<?xml version="1.0" encoding="utf-8" standalone="no"?>
<!DOCTYPE svg PUBLIC "-//W3C//DTD SVG 1.1//EN"
  "http://www.w3.org/Graphics/SVG/1.1/DTD/svg11.dtd">
<svg xmlns:xlink="http://www.w3.org/1999/xlink" width="568.8pt" height="280.8pt" viewBox="0 0 568.8 280.8" xmlns="http://www.w3.org/2000/svg" version="1.1">
 <metadata>
  <rdf:RDF xmlns:dc="http://purl.org/dc/elements/1.1/" xmlns:cc="http://creativecommons.org/ns#" xmlns:rdf="http://www.w3.org/1999/02/22-rdf-syntax-ns#">
   <cc:Work>
    <dc:type rdf:resource="http://purl.org/dc/dcmitype/StillImage"/>
    <dc:date>2026-07-11T19:04:39.168181</dc:date>
    <dc:format>image/svg+xml</dc:format>
    <dc:creator>
     <cc:Agent>
      <dc:title>Matplotlib v3.11.0, https://matplotlib.org/</dc:title>
     </cc:Agent>
    </dc:creator>
   </cc:Work>
  </rdf:RDF>
 </metadata>
 <defs>
  <style type="text/css">*{stroke-linejoin: round; stroke-linecap: butt}</style>
 </defs>
 <g id="figure_1">
  <g id="patch_1">
   <path d="M 0 280.8 
L 568.8 280.8 
L 568.8 0 
L 0 0 
L 0 280.8 
z
" style="fill: none"/>
  </g>
  <g id="axes_1">
   <g id="patch_2">
    <path d="M 44.845313 241.599141 
L 561.6 241.599141 
L 561.6 7.2 
L 44.845313 7.2 
L 44.845313 241.599141 
z
" style="fill: none"/>
   </g>
   <g id="matplotlib.axis_1">
    <g id="xtick_1">
     <g id="line2d_1">
      <path d="M 68.334162 241.599141 
L 68.334162 7.2 
" clip-path="url(#pc7215d7e5c)" style="fill: none; stroke-dasharray: 2.96,1.28; stroke-dashoffset: 0; stroke: #7f7f7f; stroke-opacity: 0.6; stroke-width: 0.8"/>
     </g>
     <g id="line2d_2">
      <defs>
       <path id="m9facbd39e3" d="M 0 0 
L 0 3.5 
" style="stroke: #7f7f7f; stroke-width: 1.8"/>
      </defs>
      <g>
       <use xlink:href="#m9facbd39e3" x="68.334162" y="241.599141" style="fill: #7f7f7f; stroke: #7f7f7f; stroke-width: 1.8"/>
      </g>
     </g>
     <g id="text_1">
      <!-- 0 -->
      <g style="fill: #7f7f7f" transform="translate(65.152912 256.196797) scale(0.1 -0.1)">
       <defs>
        <path id="DejaVuSans-13" d="M 2034 4250 
Q 1547 4250 1301 3770 
Q 1056 3291 1056 2328 
Q 1056 1369 1301 889 
Q 1547 409 2034 409 
Q 2525 409 2770 889 
Q 3016 1369 3016 2328 
Q 3016 3291 2770 3770 
Q 2525 4250 2034 4250 
z
M 2034 4750 
Q 2819 4750 3233 4129 
Q 3647 3509 3647 2328 
Q 3647 1150 3233 529 
Q 2819 -91 2034 -91 
Q 1250 -91 836 529 
Q 422 1150 422 2328 
Q 422 3509 836 4129 
Q 1250 4750 2034 4750 
z
" transform="scale(0.015625)"/>
       </defs>
       <use xlink:href="#DejaVuSans-13"/>
      </g>
     </g>
    </g>
    <g id="xtick_2">
     <g id="line2d_3">
      <path d="M 162.28956 241.599141 
L 162.28956 7.2 
" clip-path="url(#pc7215d7e5c)" style="fill: none; stroke-dasharray: 2.96,1.28; stroke-dashoffset: 0; stroke: #7f7f7f; stroke-opacity: 0.6; stroke-width: 0.8"/>
     </g>
     <g id="line2d_4">
      <g>
       <use xlink:href="#m9facbd39e3" x="162.28956" y="241.599141" style="fill: #7f7f7f; stroke: #7f7f7f; stroke-width: 1.8"/>
      </g>
     </g>
     <g id="text_2">
      <!-- 20 -->
      <g style="fill: #7f7f7f" transform="translate(155.92706 256.196797) scale(0.1 -0.1)">
       <defs>
        <path id="DejaVuSans-15" d="M 1228 531 
L 3431 531 
L 3431 0 
L 469 0 
L 469 531 
Q 828 903 1448 1529 
Q 2069 2156 2228 2338 
Q 2531 2678 2651 2914 
Q 2772 3150 2772 3378 
Q 2772 3750 2511 3984 
Q 2250 4219 1831 4219 
Q 1534 4219 1204 4116 
Q 875 4013 500 3803 
L 500 4441 
Q 881 4594 1212 4672 
Q 1544 4750 1819 4750 
Q 2544 4750 2975 4387 
Q 3406 4025 3406 3419 
Q 3406 3131 3298 2873 
Q 3191 2616 2906 2266 
Q 2828 2175 2409 1742 
Q 1991 1309 1228 531 
z
" transform="scale(0.015625)"/>
       </defs>
       <use xlink:href="#DejaVuSans-15"/>
       <use xlink:href="#DejaVuSans-13" transform="translate(63.625 0)"/>
      </g>
     </g>
    </g>
    <g id="xtick_3">
     <g id="line2d_5">
      <path d="M 256.244957 241.599141 
L 256.244957 7.2 
" clip-path="url(#pc7215d7e5c)" style="fill: none; stroke-dasharray: 2.96,1.28; stroke-dashoffset: 0; stroke: #7f7f7f; stroke-opacity: 0.6; stroke-width: 0.8"/>
     </g>
     <g id="line2d_6">
      <g>
       <use xlink:href="#m9facbd39e3" x="256.244957" y="241.599141" style="fill: #7f7f7f; stroke: #7f7f7f; stroke-width: 1.8"/>
      </g>
     </g>
     <g id="text_3">
      <!-- 40 -->
      <g style="fill: #7f7f7f" transform="translate(249.882457 256.196797) scale(0.1 -0.1)">
       <defs>
        <path id="DejaVuSans-17" d="M 2419 4116 
L 825 1625 
L 2419 1625 
L 2419 4116 
z
M 2253 4666 
L 3047 4666 
L 3047 1625 
L 3713 1625 
L 3713 1100 
L 3047 1100 
L 3047 0 
L 2419 0 
L 2419 1100 
L 313 1100 
L 313 1709 
L 2253 4666 
z
" transform="scale(0.015625)"/>
       </defs>
       <use xlink:href="#DejaVuSans-17"/>
       <use xlink:href="#DejaVuSans-13" transform="translate(63.625 0)"/>
      </g>
     </g>
    </g>
    <g id="xtick_4">
     <g id="line2d_7">
      <path d="M 350.200355 241.599141 
L 350.200355 7.2 
" clip-path="url(#pc7215d7e5c)" style="fill: none; stroke-dasharray: 2.96,1.28; stroke-dashoffset: 0; stroke: #7f7f7f; stroke-opacity: 0.6; stroke-width: 0.8"/>
     </g>
     <g id="line2d_8">
      <g>
       <use xlink:href="#m9facbd39e3" x="350.200355" y="241.599141" style="fill: #7f7f7f; stroke: #7f7f7f; stroke-width: 1.8"/>
      </g>
     </g>
     <g id="text_4">
      <!-- 60 -->
      <g style="fill: #7f7f7f" transform="translate(343.837855 256.196797) scale(0.1 -0.1)">
       <defs>
        <path id="DejaVuSans-19" d="M 2113 2584 
Q 1688 2584 1439 2293 
Q 1191 2003 1191 1497 
Q 1191 994 1439 701 
Q 1688 409 2113 409 
Q 2538 409 2786 701 
Q 3034 994 3034 1497 
Q 3034 2003 2786 2293 
Q 2538 2584 2113 2584 
z
M 3366 4563 
L 3366 3988 
Q 3128 4100 2886 4159 
Q 2644 4219 2406 4219 
Q 1781 4219 1451 3797 
Q 1122 3375 1075 2522 
Q 1259 2794 1537 2939 
Q 1816 3084 2150 3084 
Q 2853 3084 3261 2657 
Q 3669 2231 3669 1497 
Q 3669 778 3244 343 
Q 2819 -91 2113 -91 
Q 1303 -91 875 529 
Q 447 1150 447 2328 
Q 447 3434 972 4092 
Q 1497 4750 2381 4750 
Q 2619 4750 2861 4703 
Q 3103 4656 3366 4563 
z
" transform="scale(0.015625)"/>
       </defs>
       <use xlink:href="#DejaVuSans-19"/>
       <use xlink:href="#DejaVuSans-13" transform="translate(63.625 0)"/>
      </g>
     </g>
    </g>
    <g id="xtick_5">
     <g id="line2d_9">
      <path d="M 444.155753 241.599141 
L 444.155753 7.2 
" clip-path="url(#pc7215d7e5c)" style="fill: none; stroke-dasharray: 2.96,1.28; stroke-dashoffset: 0; stroke: #7f7f7f; stroke-opacity: 0.6; stroke-width: 0.8"/>
     </g>
     <g id="line2d_10">
      <g>
       <use xlink:href="#m9facbd39e3" x="444.155753" y="241.599141" style="fill: #7f7f7f; stroke: #7f7f7f; stroke-width: 1.8"/>
      </g>
     </g>
     <g id="text_5">
      <!-- 80 -->
      <g style="fill: #7f7f7f" transform="translate(437.793253 256.196797) scale(0.1 -0.1)">
       <defs>
        <path id="DejaVuSans-1b" d="M 2034 2216 
Q 1584 2216 1326 1975 
Q 1069 1734 1069 1313 
Q 1069 891 1326 650 
Q 1584 409 2034 409 
Q 2484 409 2743 651 
Q 3003 894 3003 1313 
Q 3003 1734 2745 1975 
Q 2488 2216 2034 2216 
z
M 1403 2484 
Q 997 2584 770 2862 
Q 544 3141 544 3541 
Q 544 4100 942 4425 
Q 1341 4750 2034 4750 
Q 2731 4750 3128 4425 
Q 3525 4100 3525 3541 
Q 3525 3141 3298 2862 
Q 3072 2584 2669 2484 
Q 3125 2378 3379 2068 
Q 3634 1759 3634 1313 
Q 3634 634 3220 271 
Q 2806 -91 2034 -91 
Q 1263 -91 848 271 
Q 434 634 434 1313 
Q 434 1759 690 2068 
Q 947 2378 1403 2484 
z
M 1172 3481 
Q 1172 3119 1398 2916 
Q 1625 2713 2034 2713 
Q 2441 2713 2670 2916 
Q 2900 3119 2900 3481 
Q 2900 3844 2670 4047 
Q 2441 4250 2034 4250 
Q 1625 4250 1398 4047 
Q 1172 3844 1172 3481 
z
" transform="scale(0.015625)"/>
       </defs>
       <use xlink:href="#DejaVuSans-1b"/>
       <use xlink:href="#DejaVuSans-13" transform="translate(63.625 0)"/>
      </g>
     </g>
    </g>
    <g id="xtick_6">
     <g id="line2d_11">
      <path d="M 538.111151 241.599141 
L 538.111151 7.2 
" clip-path="url(#pc7215d7e5c)" style="fill: none; stroke-dasharray: 2.96,1.28; stroke-dashoffset: 0; stroke: #7f7f7f; stroke-opacity: 0.6; stroke-width: 0.8"/>
     </g>
     <g id="line2d_12">
      <g>
       <use xlink:href="#m9facbd39e3" x="538.111151" y="241.599141" style="fill: #7f7f7f; stroke: #7f7f7f; stroke-width: 1.8"/>
      </g>
     </g>
     <g id="text_6">
      <!-- 100 -->
      <g style="fill: #7f7f7f" transform="translate(528.567401 256.196797) scale(0.1 -0.1)">
       <defs>
        <path id="DejaVuSans-14" d="M 794 531 
L 1825 531 
L 1825 4091 
L 703 3866 
L 703 4441 
L 1819 4666 
L 2450 4666 
L 2450 531 
L 3481 531 
L 3481 0 
L 794 0 
L 794 531 
z
" transform="scale(0.015625)"/>
       </defs>
       <use xlink:href="#DejaVuSans-14"/>
       <use xlink:href="#DejaVuSans-13" transform="translate(63.625 0)"/>
       <use xlink:href="#DejaVuSans-13" transform="translate(127.25 0)"/>
      </g>
     </g>
    </g>
    <g id="text_7">
     <!-- time [s] -->
     <g style="fill: #7f7f7f" transform="translate(281.892109 270.957422) scale(0.11 -0.11)">
      <defs>
       <path id="DejaVuSans-57" d="M 1172 4494 
L 1172 3500 
L 2356 3500 
L 2356 3053 
L 1172 3053 
L 1172 1153 
Q 1172 725 1289 603 
Q 1406 481 1766 481 
L 2356 481 
L 2356 0 
L 1766 0 
Q 1100 0 847 248 
Q 594 497 594 1153 
L 594 3053 
L 172 3053 
L 172 3500 
L 594 3500 
L 594 4494 
L 1172 4494 
z
" transform="scale(0.015625)"/>
       <path id="DejaVuSans-4c" d="M 603 3500 
L 1178 3500 
L 1178 0 
L 603 0 
L 603 3500 
z
M 603 4863 
L 1178 4863 
L 1178 4134 
L 603 4134 
L 603 4863 
z
" transform="scale(0.015625)"/>
       <path id="DejaVuSans-50" d="M 3328 2828 
Q 3544 3216 3844 3400 
Q 4144 3584 4550 3584 
Q 5097 3584 5394 3201 
Q 5691 2819 5691 2113 
L 5691 0 
L 5113 0 
L 5113 2094 
Q 5113 2597 4934 2840 
Q 4756 3084 4391 3084 
Q 3944 3084 3684 2787 
Q 3425 2491 3425 1978 
L 3425 0 
L 2847 0 
L 2847 2094 
Q 2847 2600 2669 2842 
Q 2491 3084 2119 3084 
Q 1678 3084 1418 2786 
Q 1159 2488 1159 1978 
L 1159 0 
L 581 0 
L 581 3500 
L 1159 3500 
L 1159 2956 
Q 1356 3278 1631 3431 
Q 1906 3584 2284 3584 
Q 2666 3584 2933 3390 
Q 3200 3197 3328 2828 
z
" transform="scale(0.015625)"/>
       <path id="DejaVuSans-48" d="M 3597 1894 
L 3597 1613 
L 953 1613 
Q 991 1019 1311 708 
Q 1631 397 2203 397 
Q 2534 397 2845 478 
Q 3156 559 3463 722 
L 3463 178 
Q 3153 47 2828 -22 
Q 2503 -91 2169 -91 
Q 1331 -91 842 396 
Q 353 884 353 1716 
Q 353 2575 817 3079 
Q 1281 3584 2069 3584 
Q 2775 3584 3186 3129 
Q 3597 2675 3597 1894 
z
M 3022 2063 
Q 3016 2534 2758 2815 
Q 2500 3097 2075 3097 
Q 1594 3097 1305 2825 
Q 1016 2553 972 2059 
L 3022 2063 
z
" transform="scale(0.015625)"/>
       <path id="DejaVuSans-3" transform="scale(0.015625)"/>
       <path id="DejaVuSans-3e" d="M 550 4863 
L 1875 4863 
L 1875 4416 
L 1125 4416 
L 1125 -397 
L 1875 -397 
L 1875 -844 
L 550 -844 
L 550 4863 
z
" transform="scale(0.015625)"/>
       <path id="DejaVuSans-56" d="M 2834 3397 
L 2834 2853 
Q 2591 2978 2328 3040 
Q 2066 3103 1784 3103 
Q 1356 3103 1142 2972 
Q 928 2841 928 2578 
Q 928 2378 1081 2264 
Q 1234 2150 1697 2047 
L 1894 2003 
Q 2506 1872 2764 1633 
Q 3022 1394 3022 966 
Q 3022 478 2636 193 
Q 2250 -91 1575 -91 
Q 1294 -91 989 -36 
Q 684 19 347 128 
L 347 722 
Q 666 556 975 473 
Q 1284 391 1588 391 
Q 1994 391 2212 530 
Q 2431 669 2431 922 
Q 2431 1156 2273 1281 
Q 2116 1406 1581 1522 
L 1381 1569 
Q 847 1681 609 1914 
Q 372 2147 372 2553 
Q 372 3047 722 3315 
Q 1072 3584 1716 3584 
Q 2034 3584 2315 3537 
Q 2597 3491 2834 3397 
z
" transform="scale(0.015625)"/>
       <path id="DejaVuSans-40" d="M 1947 4863 
L 1947 -844 
L 622 -844 
L 622 -397 
L 1369 -397 
L 1369 4416 
L 622 4416 
L 622 4863 
L 1947 4863 
z
" transform="scale(0.015625)"/>
      </defs>
      <use xlink:href="#DejaVuSans-57"/>
      <use xlink:href="#DejaVuSans-4c" transform="translate(39.203125 0)"/>
      <use xlink:href="#DejaVuSans-50" transform="translate(66.984375 0)"/>
      <use xlink:href="#DejaVuSans-48" transform="translate(164.390625 0)"/>
      <use xlink:href="#DejaVuSans-3" transform="translate(225.921875 0)"/>
      <use xlink:href="#DejaVuSans-3e" transform="translate(257.703125 0)"/>
      <use xlink:href="#DejaVuSans-56" transform="translate(296.71875 0)"/>
      <use xlink:href="#DejaVuSans-40" transform="translate(348.8125 0)"/>
     </g>
    </g>
   </g>
   <g id="matplotlib.axis_2">
    <g id="ytick_1">
     <g id="line2d_13">
      <path d="M 44.845313 210.446512 
L 561.6 210.446512 
" clip-path="url(#pc7215d7e5c)" style="fill: none; stroke-dasharray: 2.96,1.28; stroke-dashoffset: 0; stroke: #7f7f7f; stroke-opacity: 0.6; stroke-width: 0.8"/>
     </g>
     <g id="line2d_14">
      <defs>
       <path id="m5f89eb8226" d="M 0 0 
L -3.5 0 
" style="stroke: #7f7f7f; stroke-width: 1.8"/>
      </defs>
      <g>
       <use xlink:href="#m5f89eb8226" x="44.845313" y="210.446512" style="fill: #7f7f7f; stroke: #7f7f7f; stroke-width: 1.8"/>
      </g>
     </g>
     <g id="text_8">
      <!-- −0.02 -->
      <g style="fill: #7f7f7f" transform="translate(7.2 214.24534) scale(0.1 -0.1)">
       <defs>
        <path id="DejaVuSans-c9c" d="M 678 2272 
L 4684 2272 
L 4684 1741 
L 678 1741 
L 678 2272 
z
" transform="scale(0.015625)"/>
        <path id="DejaVuSans-11" d="M 684 794 
L 1344 794 
L 1344 0 
L 684 0 
L 684 794 
z
" transform="scale(0.015625)"/>
       </defs>
       <use xlink:href="#DejaVuSans-c9c"/>
       <use xlink:href="#DejaVuSans-13" transform="translate(83.796875 0)"/>
       <use xlink:href="#DejaVuSans-11" transform="translate(147.421875 0)"/>
       <use xlink:href="#DejaVuSans-13" transform="translate(179.203125 0)"/>
       <use xlink:href="#DejaVuSans-15" transform="translate(242.828125 0)"/>
      </g>
     </g>
    </g>
    <g id="ytick_2">
     <g id="line2d_15">
      <path d="M 44.845313 174.303782 
L 561.6 174.303782 
" clip-path="url(#pc7215d7e5c)" style="fill: none; stroke-dasharray: 2.96,1.28; stroke-dashoffset: 0; stroke: #7f7f7f; stroke-opacity: 0.6; stroke-width: 0.8"/>
     </g>
     <g id="line2d_16">
      <g>
       <use xlink:href="#m5f89eb8226" x="44.845313" y="174.303782" style="fill: #7f7f7f; stroke: #7f7f7f; stroke-width: 1.8"/>
      </g>
     </g>
     <g id="text_9">
      <!-- 0.00 -->
      <g style="fill: #7f7f7f" transform="translate(15.579688 178.10261) scale(0.1 -0.1)">
       <use xlink:href="#DejaVuSans-13"/>
       <use xlink:href="#DejaVuSans-11" transform="translate(63.625 0)"/>
       <use xlink:href="#DejaVuSans-13" transform="translate(95.40625 0)"/>
       <use xlink:href="#DejaVuSans-13" transform="translate(159.03125 0)"/>
      </g>
     </g>
    </g>
    <g id="ytick_3">
     <g id="line2d_17">
      <path d="M 44.845313 138.161052 
L 561.6 138.161052 
" clip-path="url(#pc7215d7e5c)" style="fill: none; stroke-dasharray: 2.96,1.28; stroke-dashoffset: 0; stroke: #7f7f7f; stroke-opacity: 0.6; stroke-width: 0.8"/>
     </g>
     <g id="line2d_18">
      <g>
       <use xlink:href="#m5f89eb8226" x="44.845313" y="138.161052" style="fill: #7f7f7f; stroke: #7f7f7f; stroke-width: 1.8"/>
      </g>
     </g>
     <g id="text_10">
      <!-- 0.02 -->
      <g style="fill: #7f7f7f" transform="translate(15.579688 141.95988) scale(0.1 -0.1)">
       <use xlink:href="#DejaVuSans-13"/>
       <use xlink:href="#DejaVuSans-11" transform="translate(63.625 0)"/>
       <use xlink:href="#DejaVuSans-13" transform="translate(95.40625 0)"/>
       <use xlink:href="#DejaVuSans-15" transform="translate(159.03125 0)"/>
      </g>
     </g>
    </g>
    <g id="ytick_4">
     <g id="line2d_19">
      <path d="M 44.845313 102.018322 
L 561.6 102.018322 
" clip-path="url(#pc7215d7e5c)" style="fill: none; stroke-dasharray: 2.96,1.28; stroke-dashoffset: 0; stroke: #7f7f7f; stroke-opacity: 0.6; stroke-width: 0.8"/>
     </g>
     <g id="line2d_20">
      <g>
       <use xlink:href="#m5f89eb8226" x="44.845313" y="102.018322" style="fill: #7f7f7f; stroke: #7f7f7f; stroke-width: 1.8"/>
      </g>
     </g>
     <g id="text_11">
      <!-- 0.04 -->
      <g style="fill: #7f7f7f" transform="translate(15.579688 105.81715) scale(0.1 -0.1)">
       <use xlink:href="#DejaVuSans-13"/>
       <use xlink:href="#DejaVuSans-11" transform="translate(63.625 0)"/>
       <use xlink:href="#DejaVuSans-13" transform="translate(95.40625 0)"/>
       <use xlink:href="#DejaVuSans-17" transform="translate(159.03125 0)"/>
      </g>
     </g>
    </g>
    <g id="ytick_5">
     <g id="line2d_21">
      <path d="M 44.845313 65.875592 
L 561.6 65.875592 
" clip-path="url(#pc7215d7e5c)" style="fill: none; stroke-dasharray: 2.96,1.28; stroke-dashoffset: 0; stroke: #7f7f7f; stroke-opacity: 0.6; stroke-width: 0.8"/>
     </g>
     <g id="line2d_22">
      <g>
       <use xlink:href="#m5f89eb8226" x="44.845313" y="65.875592" style="fill: #7f7f7f; stroke: #7f7f7f; stroke-width: 1.8"/>
      </g>
     </g>
     <g id="text_12">
      <!-- 0.06 -->
      <g style="fill: #7f7f7f" transform="translate(15.579688 69.67442) scale(0.1 -0.1)">
       <use xlink:href="#DejaVuSans-13"/>
       <use xlink:href="#DejaVuSans-11" transform="translate(63.625 0)"/>
       <use xlink:href="#DejaVuSans-13" transform="translate(95.40625 0)"/>
       <use xlink:href="#DejaVuSans-19" transform="translate(159.03125 0)"/>
      </g>
     </g>
    </g>
    <g id="ytick_6">
     <g id="line2d_23">
      <path d="M 44.845313 29.732862 
L 561.6 29.732862 
" clip-path="url(#pc7215d7e5c)" style="fill: none; stroke-dasharray: 2.96,1.28; stroke-dashoffset: 0; stroke: #7f7f7f; stroke-opacity: 0.6; stroke-width: 0.8"/>
     </g>
     <g id="line2d_24">
      <g>
       <use xlink:href="#m5f89eb8226" x="44.845313" y="29.732862" style="fill: #7f7f7f; stroke: #7f7f7f; stroke-width: 1.8"/>
      </g>
     </g>
     <g id="text_13">
      <!-- 0.08 -->
      <g style="fill: #7f7f7f" transform="translate(15.579688 33.531691) scale(0.1 -0.1)">
       <use xlink:href="#DejaVuSans-13"/>
       <use xlink:href="#DejaVuSans-11" transform="translate(63.625 0)"/>
       <use xlink:href="#DejaVuSans-13" transform="translate(95.40625 0)"/>
       <use xlink:href="#DejaVuSans-1b" transform="translate(159.03125 0)"/>
      </g>
     </g>
    </g>
   </g>
   <g id="line2d_25">
    <path d="M 68.334162 174.303782 
L 68.38114 164.256411 
L 68.752449 182.911765 
L 69.225665 177.789089 
L 69.938317 170.204255 
L 70.745464 172.679072 
L 71.143454 176.818119 
L 71.545277 171.275387 
L 72.363553 176.957794 
L 72.720275 169.279182 
L 73.079044 170.313285 
L 73.46411 177.874937 
L 74.210277 173.821635 
L 74.599075 174.158555 
L 75.356998 180.207451 
L 75.674762 169.304111 
L 76.334932 171.434562 
L 76.672606 169.436189 
L 77.010805 178.254908 
L 77.727698 173.435842 
L 78.07522 173.440053 
L 78.388397 166.964691 
L 78.665425 180.576491 
L 78.958218 174.137692 
L 79.318809 174.05925 
L 79.891913 190.238087 
L 80.124345 177.323708 
L 81.038956 166.916971 
L 81.32188 181.064095 
L 81.889523 166.644798 
L 82.932296 174.093919 
L 83.283732 170.778908 
L 83.646816 171.00221 
L 84.048264 178.403064 
L 84.817332 175.570042 
L 85.637563 172.619549 
L 86.022918 177.498414 
L 86.360154 168.812412 
L 86.702413 170.380605 
L 87.997549 184.706345 
L 89.267369 169.199902 
L 89.599514 174.777019 
L 90.40853 173.918719 
L 90.804405 177.642318 
L 91.12454 165.923008 
L 91.385503 182.729324 
L 91.653102 180.70315 
L 92.537319 182.85254 
L 93.049119 161.801275 
L 93.919199 179.582327 
L 94.234542 173.682297 
L 94.866155 182.654907 
L 95.161673 175.764837 
L 95.565862 175.250569 
L 96.016399 172.131489 
L 96.422264 176.101245 
L 96.821935 172.881227 
L 97.638368 173.960563 
L 98.057174 176.997408 
L 99.219917 169.933844 
L 99.551123 179.952375 
L 99.885896 174.567457 
L 100.235088 166.348676 
L 100.558949 170.176728 
L 101.335798 176.558161 
L 101.71226 169.399688 
L 102.081783 175.091733 
L 102.880574 178.417785 
L 103.270887 177.656408 
L 103.97985 171.134305 
L 104.337529 179.75072 
L 104.607585 164.231813 
L 105.1225 176.574461 
L 105.551416 178.592352 
L 107.134665 168.47553 
L 108.24197 183.315755 
L 108.548314 175.663254 
L 108.949127 178.006315 
L 109.290193 168.290316 
L 109.626588 178.260298 
L 109.948373 179.825398 
L 110.509724 165.396608 
L 110.786248 174.038648 
L 111.11738 173.61266 
L 111.496196 178.177256 
L 111.873316 170.019751 
L 112.612246 175.262396 
L 113.005097 176.311361 
L 113.356246 167.687165 
L 113.693911 176.580099 
L 114.034464 180.625725 
L 114.354074 177.942494 
L 114.695478 169.124987 
L 115.393868 173.371929 
L 115.779881 174.517281 
L 116.238627 173.212588 
L 116.701147 171.477748 
L 117.156907 177.579815 
L 117.527475 175.399756 
L 118.699297 170.547191 
L 119.077762 177.940585 
L 119.434636 173.143789 
L 120.222586 171.235398 
L 120.611214 172.05914 
L 120.985146 166.659416 
L 121.327904 172.665779 
L 121.670755 180.742896 
L 122.348011 175.016054 
L 122.697965 177.144476 
L 123.076298 176.996064 
L 123.400313 167.396722 
L 124.076203 176.520787 
L 124.809884 182.290667 
L 125.122926 169.721219 
L 126.012319 171.196585 
L 126.364127 172.611334 
L 126.709923 166.225338 
L 127.642818 165.875287 
L 127.911859 182.854244 
L 128.435483 163.962826 
L 128.969195 178.420847 
L 129.272477 180.501954 
L 129.963867 171.741814 
L 131.116451 178.837443 
L 131.467202 180.406738 
L 132.150296 168.360941 
L 132.871689 173.506256 
L 133.389337 173.454969 
L 133.860575 172.117188 
L 134.972053 180.980324 
L 136.321305 168.041669 
L 138.009177 181.313935 
L 138.777723 173.503885 
L 139.174653 178.782473 
L 139.96786 176.118765 
L 140.374852 172.882433 
L 141.086273 185.384488 
L 142.314005 167.402386 
L 142.660192 178.557937 
L 142.981318 175.427004 
L 143.272878 161.820797 
L 143.810734 179.045742 
L 144.103993 169.05775 
L 144.986704 177.247203 
L 144.697485 164.274559 
L 145.270071 176.643794 
L 145.980114 169.131466 
L 146.289609 180.075214 
L 146.905744 174.188585 
L 147.293073 174.103722 
L 147.594347 182.773326 
L 147.886003 169.32448 
L 148.161647 177.134927 
L 148.456235 178.241292 
L 149.113349 170.836719 
L 149.482916 172.535686 
L 149.893421 171.992674 
L 150.650306 181.073703 
L 150.987311 168.863953 
L 151.253602 182.874202 
L 151.525943 173.423885 
L 152.177478 172.776208 
L 152.517547 180.530796 
L 152.853824 169.628078 
L 153.163669 170.863955 
L 153.460155 183.82445 
L 153.743451 176.485611 
L 154.089751 167.197009 
L 154.416413 174.781058 
L 154.788728 177.046078 
L 155.184418 170.865218 
L 155.559603 173.41093 
L 156.350443 181.340347 
L 157.375998 167.893646 
L 158.026507 180.094928 
L 158.343482 173.752112 
L 159.082181 168.507747 
L 160.513109 180.947936 
L 161.880936 171.417537 
L 162.289292 187.980474 
L 162.289465 162.020716 
L 162.291433 17.854506 
L 162.300409 222.528427 
L 163.281592 127.32198 
L 163.582548 162.652258 
L 164.459745 160.728199 
L 164.659188 145.872519 
L 165.424953 161.258278 
L 165.652963 147.471763 
L 166.314911 153.66188 
L 166.544748 167.549658 
L 166.808451 147.961033 
L 167.289175 157.098003 
L 167.552506 158.276681 
L 167.826447 168.922709 
L 168.502419 160.846815 
L 168.82915 168.432795 
L 169.207908 162.361014 
L 169.571229 158.37817 
L 169.903026 164.528054 
L 170.271118 172.046 
L 170.707795 165.040562 
L 171.102012 165.351156 
L 171.426872 150.807782 
L 172.031678 155.104488 
L 172.977938 168.947954 
L 173.374439 162.206278 
L 174.671397 168.185456 
L 177.057447 158.774426 
L 177.435147 167.240271 
L 178.365244 166.401132 
L 178.813473 166.120731 
L 180.176109 168.939706 
L 181.371312 160.641405 
L 182.197965 170.835329 
L 183.351496 164.343236 
L 184.198404 170.934253 
L 184.576419 165.334654 
L 184.949594 165.719761 
L 185.705277 177.158825 
L 186.0682 170.705041 
L 186.716972 157.5134 
L 187.054113 168.242487 
L 188.065462 172.031211 
L 188.454195 167.608108 
L 188.839129 172.112734 
L 190.067037 172.463502 
L 190.447798 167.845567 
L 190.825421 172.337079 
L 191.342225 171.615784 
L 191.727841 167.609784 
L 192.110085 170.90549 
L 193.24451 181.60821 
L 194.044939 167.36149 
L 194.400282 168.090368 
L 194.79279 171.530166 
L 195.141787 162.883999 
L 195.486721 170.892699 
L 196.455309 169.271846 
L 197.947962 177.299335 
L 198.832899 169.202937 
L 199.213203 173.417877 
L 199.775789 173.513719 
L 200.92631 175.710469 
L 201.454009 174.842326 
L 202.736167 181.983997 
L 203.500113 169.34505 
L 203.86292 174.088628 
L 204.570028 181.943861 
L 204.943598 177.685142 
L 206.203064 166.550517 
L 207.024752 175.84565 
L 207.437637 172.223667 
L 207.915345 172.174734 
L 208.383961 173.540102 
L 208.808367 179.541642 
L 209.218244 173.735439 
L 210.239043 176.82338 
L 211.193609 171.76117 
L 211.613324 178.926068 
L 212.043938 169.433021 
L 213.346841 176.411659 
L 213.860195 175.938801 
L 214.23437 180.855808 
L 214.605597 173.116813 
L 215.477503 171.754964 
L 215.931836 172.616052 
L 216.674285 172.135804 
L 217.012236 184.304087 
L 218.289079 175.052946 
L 219.404352 182.508544 
L 221.138795 170.475963 
L 222.484329 173.629774 
L 223.807141 177.714544 
L 224.274187 174.216938 
L 224.78945 174.716885 
L 225.13295 183.976781 
L 225.472608 173.972961 
L 225.799181 164.293085 
L 226.122549 175.686473 
L 226.565425 175.795921 
L 227.616765 174.356177 
L 229.670994 177.606614 
L 230.108046 173.787666 
L 230.705805 175.763794 
L 231.17846 177.587174 
L 232.052015 171.468209 
L 232.467577 182.900648 
L 232.851931 171.447138 
L 234.213241 177.424362 
L 235.037756 177.632691 
L 235.456987 169.649445 
L 236.888869 175.848341 
L 237.339969 175.90747 
L 237.841206 172.920281 
L 238.376443 174.601753 
L 238.907554 173.09161 
L 239.38908 179.008158 
L 239.825098 175.741512 
L 240.578727 169.859895 
L 240.98367 180.28284 
L 241.802043 177.875063 
L 242.261902 176.89749 
L 242.630684 170.356309 
L 243.435549 171.360879 
L 244.744485 180.802196 
L 245.100417 172.905541 
L 245.598541 173.415946 
L 246.070328 178.223271 
L 246.524146 170.723515 
L 246.989155 176.583962 
L 247.927227 177.292628 
L 248.389139 175.001307 
L 248.81982 176.962023 
L 249.868429 175.797883 
L 250.245765 170.050064 
L 250.620595 177.143358 
L 251.543813 172.986651 
L 252.088918 173.740768 
L 252.524466 176.702282 
L 253.389368 176.815258 
L 253.739242 166.826615 
L 254.461305 183.942228 
L 254.8182 172.492875 
L 255.260003 172.531644 
L 255.680665 168.538591 
L 256.082193 168.663958 
L 256.490842 174.743346 
L 256.865283 167.571124 
L 257.235747 173.583368 
L 257.603729 166.535929 
L 257.968009 174.560433 
L 259.199387 182.950689 
L 259.592482 171.321527 
L 259.971263 172.935186 
L 260.860873 171.7865 
L 261.30026 182.155195 
L 262.502942 168.019712 
L 262.846022 169.683299 
L 263.241882 169.78697 
L 264.863636 175.386642 
L 265.276851 173.39665 
L 265.637983 173.839049 
L 266.001234 179.87982 
L 266.392474 167.770177 
L 267.211605 169.935185 
L 268.944521 181.619136 
L 269.303383 176.208699 
L 269.6378 166.333127 
L 269.968991 175.615217 
L 271.387908 171.816052 
L 272.287352 171.502122 
L 272.79152 176.493186 
L 273.231783 176.250243 
L 273.678887 181.340673 
L 274.083417 177.828906 
L 275.352414 168.061724 
L 276.114948 179.995911 
L 276.474616 164.721553 
L 276.832767 173.920488 
L 277.376509 170.04737 
L 277.875385 171.166094 
L 279.802387 179.635213 
L 280.576101 165.812174 
L 281.783445 181.200089 
L 282.576757 172.685758 
L 282.967164 176.152434 
L 283.749132 180.83697 
L 284.148062 172.175754 
L 284.60606 177.395902 
L 285.043687 178.9486 
L 286.360084 169.89327 
L 287.175204 177.79103 
L 287.553287 174.230167 
L 287.940768 167.331098 
L 288.325479 174.924237 
L 288.774735 174.29378 
L 289.131885 166.75614 
L 289.485946 174.435454 
L 289.878729 168.900004 
L 291.135346 178.751716 
L 293.095591 166.145161 
L 293.865885 179.544185 
L 294.224303 177.135788 
L 294.598685 168.666071 
L 294.985246 169.006923 
L 296.043718 183.377247 
L 297.232958 173.275529 
L 298.14694 179.443046 
L 298.532574 169.458641 
L 298.938369 173.735086 
L 299.417705 175.165048 
L 299.760321 165.191154 
L 300.099206 166.119245 
L 300.886082 176.762551 
L 301.277539 174.828167 
L 301.734688 177.458061 
L 302.190441 176.802416 
L 303.702911 174.274132 
L 304.33012 174.756476 
L 305.243626 170.012409 
L 305.676359 171.816934 
L 306.137724 176.105468 
L 306.548455 169.406902 
L 306.926876 172.409995 
L 308.24183 177.046898 
L 309.078761 177.728211 
L 309.546038 170.787583 
L 310.348793 178.130617 
L 310.712025 174.037005 
L 311.077167 170.226134 
L 312.250269 178.788287 
L 312.972928 166.357245 
L 313.313072 180.007856 
L 314.130788 177.010862 
L 315.246379 169.069858 
L 316.022799 169.421983 
L 317.294351 177.249356 
L 317.712652 175.521902 
L 318.033919 161.986744 
L 318.351061 185.089104 
L 320.321327 164.485604 
L 321.087274 179.072212 
L 321.476641 172.974775 
L 322.351636 170.570813 
L 322.729376 179.467256 
L 323.083589 171.409306 
L 323.462179 169.597068 
L 324.611317 176.428665 
L 324.968458 169.536738 
L 325.383239 175.974404 
L 325.814179 177.890309 
L 326.217874 169.08194 
L 327.044613 172.327725 
L 327.810059 181.910342 
L 328.184555 171.972213 
L 328.954582 173.473911 
L 329.32413 180.331184 
L 329.690549 172.213976 
L 330.48221 167.873448 
L 331.261826 180.987673 
L 331.636959 177.42666 
L 332.810327 171.507601 
L 333.158729 181.528079 
L 333.503654 180.127749 
L 333.89254 167.610676 
L 334.271635 176.016751 
L 335.04079 180.163264 
L 335.411648 171.116238 
L 336.228577 172.658182 
L 336.644698 167.936362 
L 337.478619 177.961873 
L 338.67002 170.115114 
L 339.052198 170.30803 
L 341.306139 178.067376 
L 341.673823 172.291875 
L 342.479396 172.532072 
L 342.852413 172.830328 
L 343.228765 165.627709 
L 343.605261 172.801344 
L 344.035524 171.746778 
L 344.917797 171.201331 
L 345.327425 181.714214 
L 346.59386 172.944944 
L 347.74797 181.038359 
L 348.14611 167.208764 
L 348.535854 182.51643 
L 349.380594 170.878676 
L 349.935337 174.47505 
L 350.100915 180.094774 
L 350.196755 176.46192 
L 350.200314 230.944634 
L 350.212175 105.315563 
L 350.885707 186.607696 
L 351.561488 189.138921 
L 351.932569 182.659751 
L 352.306704 193.973202 
L 352.644427 179.218021 
L 353.957195 191.524134 
L 355.488757 175.50155 
L 356.25321 190.573889 
L 356.970201 186.10545 
L 357.364708 176.277468 
L 357.773036 182.061235 
L 358.17262 189.866841 
L 358.535283 180.755896 
L 358.850516 167.538141 
L 359.167422 186.224926 
L 359.495189 178.903932 
L 359.937949 182.623987 
L 360.890734 176.062403 
L 362.133861 182.413053 
L 363.49863 172.384852 
L 364.524905 187.808092 
L 365.700621 175.125658 
L 366.211203 178.541726 
L 366.662106 180.089046 
L 367.080888 179.601222 
L 367.521783 176.856921 
L 368.751803 181.397098 
L 369.1756 174.025272 
L 369.65285 174.526104 
L 370.009886 182.466879 
L 370.363128 176.140722 
L 370.753996 172.390912 
L 372.275209 190.337899 
L 373.037519 174.79093 
L 373.518959 175.69295 
L 374.025522 174.59211 
L 374.379116 167.466513 
L 375.129292 167.734947 
L 376.63094 184.820245 
L 376.966837 168.828424 
L 377.777197 173.975783 
L 378.474906 182.687147 
L 378.846634 172.064161 
L 379.282415 183.446348 
L 379.690743 175.173454 
L 380.191722 174.740029 
L 380.691607 179.078985 
L 381.147716 176.311667 
L 381.932824 178.599505 
L 382.369957 171.819409 
L 384.006727 184.235136 
L 384.364873 172.160279 
L 385.190398 172.778133 
L 385.676167 173.73512 
L 386.035037 167.259798 
L 386.776548 180.609047 
L 387.153863 172.722218 
L 387.562495 170.181276 
L 387.946836 173.660048 
L 388.500527 171.845599 
L 388.854786 180.234694 
L 389.644677 176.68944 
L 390.383096 169.432216 
L 390.783958 178.538462 
L 391.202273 173.752363 
L 391.67858 172.026043 
L 392.114238 174.617836 
L 392.864687 168.720121 
L 393.267776 177.807125 
L 394.170864 175.906396 
L 394.575344 170.605555 
L 394.967782 171.1118 
L 395.351309 180.193925 
L 395.739828 172.572933 
L 396.183942 174.428263 
L 396.996241 186.319344 
L 397.358918 179.311188 
L 397.800099 178.09 
L 398.123288 165.66153 
L 398.812928 176.311504 
L 399.262731 167.84701 
L 399.700903 177.138793 
L 400.570036 165.647525 
L 400.927888 172.487271 
L 402.041678 173.471397 
L 402.3994 166.295483 
L 402.753916 171.681566 
L 403.11438 178.414469 
L 403.472683 170.801496 
L 404.36705 173.746342 
L 405.067621 182.825655 
L 405.435028 178.695604 
L 405.876319 177.114044 
L 406.229397 169.422982 
L 406.579725 179.380892 
L 406.966947 171.733048 
L 407.414628 175.12708 
L 407.935188 171.803933 
L 408.447821 174.45139 
L 409.706973 163.075566 
L 410.434923 184.794506 
L 411.207524 178.93791 
L 412.919897 166.053669 
L 413.289954 179.347863 
L 413.672316 168.521034 
L 415.072745 173.986775 
L 415.578855 171.601636 
L 416.077403 173.067086 
L 417.14279 175.976003 
L 417.516565 169.700338 
L 417.88795 172.470057 
L 418.729899 179.604254 
L 419.101712 166.20553 
L 419.473202 177.760583 
L 419.887206 180.38337 
L 421.277663 171.244602 
L 421.733269 174.784304 
L 422.336744 172.776107 
L 422.772586 169.329658 
L 423.164846 176.295511 
L 423.641117 172.168722 
L 424.133894 171.999687 
L 424.458134 185.452119 
L 424.778128 168.504815 
L 425.119095 175.199795 
L 425.582017 175.346554 
L 425.937001 182.279686 
L 426.288996 171.466385 
L 426.695003 170.863108 
L 427.098792 180.234606 
L 427.507018 167.707375 
L 428.432036 175.157623 
L 429.417952 171.023261 
L 429.877691 175.226133 
L 430.307159 173.666585 
L 431.169575 174.045993 
L 431.604628 171.988857 
L 432.412158 179.818724 
L 432.809932 168.346796 
L 433.666695 172.406563 
L 434.604757 178.333834 
L 435.449616 175.769878 
L 436.017045 176.271238 
L 436.451281 172.951041 
L 436.77576 161.399174 
L 437.096841 173.484901 
L 437.953117 173.207741 
L 438.428938 175.526288 
L 438.924728 175.604263 
L 439.283528 168.060441 
L 439.639323 174.498387 
L 440.054576 178.580149 
L 440.432765 176.109044 
L 441.700975 171.601987 
L 442.107462 173.53302 
L 442.509723 174.249611 
L 442.924286 173.559034 
L 443.347658 173.50256 
L 443.697895 167.121683 
L 444.055948 171.734793 
L 444.469112 174.095162 
L 444.854344 167.80087 
L 445.261458 180.356781 
L 446.021774 179.56858 
L 446.439465 167.649375 
L 446.825645 172.70085 
L 447.260234 174.78511 
L 447.683753 167.590661 
L 448.093181 174.881041 
L 448.58983 170.600342 
L 449.001417 175.302741 
L 449.418948 174.641108 
L 449.795912 168.436782 
L 450.193995 185.975426 
L 450.943699 180.25284 
L 451.740304 170.856655 
L 452.106382 175.13611 
L 452.550488 177.794184 
L 452.955739 166.477118 
L 453.34103 169.72771 
L 453.747536 179.29483 
L 454.128982 175.310979 
L 454.522869 171.484931 
L 454.969116 173.84727 
L 455.415472 173.080395 
L 456.801343 182.098885 
L 457.167327 180.656696 
L 458.375459 165.239573 
L 458.698889 168.14043 
L 459.078546 164.009793 
L 459.451588 180.330064 
L 460.216502 180.173927 
L 461.437057 171.469249 
L 461.894464 180.672506 
L 462.324776 173.998278 
L 462.746542 173.002485 
L 463.126731 180.130075 
L 463.492104 166.281696 
L 464.268034 170.649208 
L 465.498614 164.769293 
L 466.18143 184.453231 
L 466.847128 176.307368 
L 467.722552 178.324677 
L 468.11629 174.827372 
L 468.527768 179.282956 
L 470.72178 171.478111 
L 471.147911 177.250395 
L 471.561281 173.887687 
L 472.015384 171.148186 
L 472.425306 171.692748 
L 472.796421 174.444931 
L 473.608805 176.647658 
L 474.015814 168.966933 
L 474.775701 186.261207 
L 475.101063 176.861248 
L 475.935308 169.482231 
L 476.331752 186.344048 
L 477.116849 179.608245 
L 479.127254 168.02435 
L 480.719056 178.760344 
L 481.133977 176.920905 
L 481.57183 172.112214 
L 482.048445 173.999939 
L 483.076554 176.228431 
L 483.995703 169.91721 
L 484.760025 181.802069 
L 485.098648 168.657552 
L 485.464503 172.173861 
L 486.296751 170.018247 
L 486.721602 182.452285 
L 487.91213 165.386563 
L 488.246195 171.580287 
L 488.925237 166.798995 
L 489.276101 185.070812 
L 490.00248 173.202388 
L 490.685927 185.162749 
L 491.774566 162.56568 
L 492.965748 174.03176 
L 493.385157 165.875349 
L 493.78277 180.136495 
L 494.179007 170.781363 
L 494.621892 170.556609 
L 495.564587 170.246435 
L 495.973847 178.286929 
L 496.774911 168.344118 
L 498.014254 180.526296 
L 498.394809 182.776685 
L 499.519484 167.998126 
L 500.667209 180.409577 
L 501.47084 171.453349 
L 501.885349 173.615378 
L 502.310042 168.496834 
L 502.728215 174.494963 
L 503.066545 182.883794 
L 503.40211 170.02436 
L 503.774809 176.403007 
L 504.238364 174.216805 
L 504.57903 164.953874 
L 505.346429 168.700459 
L 505.750045 169.098032 
L 506.585528 177.071435 
L 506.97429 183.003122 
L 507.340459 176.049091 
L 508.189718 166.676675 
L 508.566484 179.298718 
L 509.380952 174.334786 
L 509.802442 176.551652 
L 510.289913 172.737466 
L 510.644295 181.506298 
L 510.995003 176.525354 
L 511.467508 173.870652 
L 511.889081 177.548717 
L 512.307926 169.766417 
L 512.719947 176.640597 
L 513.201465 172.306228 
L 513.72519 177.485664 
L 514.509408 175.678001 
L 514.893254 164.529728 
L 515.252989 174.882141 
L 516.140511 176.779402 
L 516.518879 168.552113 
L 516.87539 174.160351 
L 518.421762 174.059226 
L 518.793078 168.339946 
L 519.16197 176.781639 
L 519.599762 170.973914 
L 519.976098 170.140783 
L 520.762787 179.423918 
L 521.15985 173.925873 
L 521.616754 174.602616 
L 521.977616 167.954211 
L 522.335836 179.832274 
L 523.182521 178.011165 
L 523.6462 172.944067 
L 523.981375 185.182252 
L 524.717924 176.198962 
L 525.449262 170.650378 
L 525.862104 180.323145 
L 526.273144 179.389505 
L 526.643584 172.8841 
L 527.062158 173.492964 
L 527.48377 179.725237 
L 527.904163 176.830044 
L 528.678896 163.96719 
L 529.020577 165.351961 
L 529.396411 182.729429 
L 529.745223 174.117065 
L 530.205089 169.799436 
L 530.627417 179.968604 
L 530.948222 162.541483 
L 531.669218 173.823863 
L 532.107384 176.524219 
L 532.540917 171.520478 
L 533.355732 172.635992 
L 533.765569 172.020266 
L 534.216081 172.999601 
L 534.623966 167.53396 
L 535.004101 174.95454 
L 535.756285 182.619282 
L 536.125768 176.517811 
L 536.639698 176.197305 
L 537.044116 179.419185 
L 537.445654 173.437875 
L 537.836768 180.849423 
L 538.111151 174.632668 
" clip-path="url(#pc7215d7e5c)" style="fill: none; stroke: #e41a1c; stroke-width: 2; stroke-linecap: square"/>
   </g>
   <g id="line2d_26">
    <path d="M 68.334162 174.303782 
L 68.38114 171.668591 
L 68.752449 176.814363 
L 69.225665 176.364926 
L 70.745464 174.026508 
L 71.143454 175.436751 
L 71.545277 173.593673 
L 71.934767 173.736515 
L 72.363553 175.197502 
L 73.079044 172.27345 
L 73.46411 174.659749 
L 74.210277 173.883082 
L 74.990261 174.941317 
L 75.356998 176.666854 
L 75.674762 173.379668 
L 76.006751 175.869146 
L 76.672606 172.834189 
L 77.010805 175.517872 
L 78.388397 171.502624 
L 79.891913 180.529373 
L 81.038956 173.576068 
L 81.32188 177.791225 
L 81.889523 172.678838 
L 82.932296 173.824886 
L 83.646816 172.06528 
L 84.048264 174.515307 
L 84.817332 173.874013 
L 85.637563 172.8742 
L 86.022918 174.555196 
L 86.360154 171.69333 
L 86.702413 171.530093 
L 87.997549 177.553402 
L 89.267369 173.040902 
L 90.804405 175.2348 
L 91.12454 171.304406 
L 91.653102 176.461514 
L 93.049119 170.271864 
L 92.537319 177.04313 
L 93.284531 172.75348 
L 93.576848 172.022758 
L 94.866155 177.458636 
L 96.016399 174.870665 
L 96.422264 176.145532 
L 96.821935 175.141248 
L 97.638368 175.158528 
L 98.057174 176.360079 
L 98.437865 174.74775 
L 98.820267 174.988518 
L 99.219917 173.433104 
L 99.551123 176.6207 
L 99.885896 175.342775 
L 100.235088 172.223111 
L 100.945381 174.407889 
L 101.335798 174.81312 
L 101.71226 172.318946 
L 102.081783 173.813356 
L 103.270887 176.268945 
L 103.624756 176.131196 
L 104.337529 177.386122 
L 104.607585 172.525638 
L 105.551416 177.570979 
L 107.134665 173.522577 
L 108.24197 177.922456 
L 108.949127 177.403533 
L 109.290193 174.220446 
L 109.626588 177.188271 
L 109.948373 178.286071 
L 110.509724 172.843265 
L 111.11738 174.716807 
L 111.496196 176.413931 
L 111.873316 173.771054 
L 113.005097 175.663918 
L 113.356246 172.625817 
L 113.693911 175.096756 
L 114.034464 176.943266 
L 114.354074 176.756891 
L 114.695478 173.904363 
L 115.393868 175.156281 
L 116.238627 174.952859 
L 116.701147 173.995824 
L 117.156907 176.083361 
L 117.527475 175.717209 
L 118.699297 173.234854 
L 119.077762 175.582595 
L 119.434636 174.242417 
L 120.611214 172.800252 
L 120.985146 170.318766 
L 121.327904 171.539335 
L 121.670755 174.376004 
L 122.348011 173.35806 
L 123.076298 174.647808 
L 123.400313 171.414307 
L 124.076203 174.04801 
L 124.809884 177.391045 
L 125.122926 173.764496 
L 126.012319 174.033579 
L 126.364127 174.14554 
L 126.994622 175.578829 
L 127.642818 170.988511 
L 127.911859 176.039225 
L 128.435483 169.702983 
L 128.680656 172.120009 
L 129.272477 174.908673 
L 129.575773 173.46774 
L 129.963867 172.393094 
L 131.467202 176.493384 
L 133.860575 172.638666 
L 134.972053 176.169401 
L 136.321305 172.016403 
L 138.009177 176.1305 
L 138.777723 174.250236 
L 139.174653 176.262797 
L 139.96786 175.955649 
L 140.374852 174.946427 
L 141.086273 180.090782 
L 141.373198 176.57243 
L 142.314005 173.468855 
L 142.660192 176.778267 
L 142.981318 176.159794 
L 143.272878 171.39072 
L 143.810734 176.295697 
L 144.103993 173.24326 
L 144.386949 174.069924 
L 144.697485 170.678061 
L 145.270071 174.276696 
L 145.980114 171.097136 
L 146.289609 174.46513 
L 146.905744 172.377466 
L 147.293073 172.309872 
L 147.594347 175.434915 
L 147.886003 171.573803 
L 148.456235 174.516287 
L 149.893421 171.418067 
L 150.650306 175.323241 
L 150.987311 171.615893 
L 151.253602 175.941207 
L 151.525943 173.544521 
L 152.517547 176.243228 
L 153.163669 172.843623 
L 153.460155 177.132315 
L 154.089751 172.352588 
L 154.788728 175.232316 
L 155.184418 173.181124 
L 155.994143 175.099833 
L 156.350443 177.119939 
L 156.686525 174.577161 
L 157.023677 174.28619 
L 157.375998 172.358627 
L 157.714027 175.634139 
L 158.026507 176.670048 
L 158.343482 175.05938 
L 159.082181 172.64749 
L 159.798205 174.19021 
L 161.180252 177.890981 
L 162.288137 174.006585 
L 162.300409 188.060821 
L 162.291433 138.124146 
L 163.281592 150.229341 
L 163.582548 156.738093 
L 164.106453 145.741361 
L 164.459745 147.518029 
L 165.868603 132.084466 
L 168.502419 116.973418 
L 168.82915 118.078614 
L 170.707795 110.098587 
L 171.102012 108.83143 
L 172.660764 95.284241 
L 172.977938 97.681532 
L 173.374439 94.148797 
L 173.764355 94.346528 
L 176.657753 82.177776 
L 177.893027 77.981785 
L 184.949594 57.126396 
L 185.344299 57.846314 
L 185.705277 59.81149 
L 186.0682 57.737374 
L 186.716972 50.437882 
L 187.054113 52.23236 
L 188.065462 52.146566 
L 188.454195 50.025696 
L 188.839129 50.789462 
L 190.067037 50.062401 
L 191.727841 46.03414 
L 192.110085 46.317733 
L 193.24451 50.73959 
L 195.141787 41.934479 
L 195.486721 43.406343 
L 195.988278 42.201228 
L 197.435994 40.489616 
L 197.947962 42.777122 
L 198.414576 41.525101 
L 198.832899 39.692578 
L 199.213203 40.56862 
L 200.36936 40.929732 
L 202.331701 42.979146 
L 202.736167 45.345282 
L 203.105767 43.187246 
L 203.500113 41.391665 
L 203.86292 42.520589 
L 204.570028 46.47168 
L 204.943598 45.960246 
L 206.203064 41.325701 
L 207.437637 42.476074 
L 208.383961 42.180403 
L 208.808367 44.520679 
L 209.218244 42.996747 
L 210.239043 44.539633 
L 210.737806 43.624476 
L 211.193609 42.676416 
L 211.613324 45.192636 
L 212.043938 42.01622 
L 213.346841 43.86527 
L 213.860195 44.063805 
L 214.23437 46.238716 
L 214.605597 44.16978 
L 215.931836 42.953343 
L 217.012236 47.473782 
L 217.345543 46.788099 
L 218.289079 46.1774 
L 219.404352 50.325548 
L 219.765493 49.728073 
L 220.22221 50.582349 
L 221.982081 47.085841 
L 223.319655 48.495254 
L 223.807141 49.605545 
L 224.274187 48.727604 
L 224.78945 48.920638 
L 225.13295 52.507046 
L 225.472608 50.025689 
L 225.799181 46.356846 
L 226.122549 49.30592 
L 229.670994 51.499047 
L 230.108046 50.47702 
L 230.705805 51.320019 
L 231.17846 52.397524 
L 231.609146 51.075711 
L 232.052015 50.180548 
L 232.467577 54.408522 
L 232.851931 51.178729 
L 235.037756 53.573975 
L 235.456987 50.838836 
L 235.880146 52.536653 
L 236.437567 51.669848 
L 236.888869 52.58778 
L 237.339969 52.889362 
L 238.907554 51.689905 
L 239.38908 54.046109 
L 239.825098 53.506202 
L 240.578727 50.820817 
L 241.802043 54.897508 
L 242.261902 55.160907 
L 243.435549 52.951862 
L 244.385588 53.317851 
L 244.744485 55.93499 
L 245.100417 53.813905 
L 245.598541 53.760391 
L 246.070328 55.688693 
L 246.524146 53.208512 
L 246.989155 55.069583 
L 249.868429 57.168738 
L 250.245765 55.13482 
L 250.620595 57.299929 
L 251.086768 57.36981 
L 252.088918 56.470705 
L 252.524466 57.62084 
L 253.739242 54.078032 
L 254.461305 60.512905 
L 254.8182 57.475818 
L 255.260003 57.184341 
L 256.865283 53.110212 
L 257.235747 54.450187 
L 257.603729 51.563251 
L 257.968009 53.53356 
L 259.199387 58.452682 
L 259.592482 55.155592 
L 259.971263 55.347135 
L 261.30026 59.197585 
L 262.846022 55.272998 
L 264.422814 53.852857 
L 266.001234 56.482014 
L 266.392474 52.495086 
L 267.211605 52.835638 
L 267.64087 53.011512 
L 268.944521 56.94409 
L 269.303383 55.90781 
L 269.6378 52.439064 
L 270.434988 54.273253 
L 272.287352 52.589107 
L 273.678887 57.054506 
L 274.083417 56.793203 
L 274.505862 55.858075 
L 274.930933 57.399491 
L 275.352414 53.979658 
L 275.753071 55.494552 
L 276.114948 57.725474 
L 276.474616 52.624835 
L 277.376509 52.904096 
L 277.875385 52.513676 
L 279.802387 55.7463 
L 281.350658 49.90644 
L 282.189566 54.691174 
L 282.576757 52.899422 
L 285.043687 57.884289 
L 286.360084 53.924152 
L 287.175204 56.100709 
L 287.553287 55.223369 
L 287.940768 52.451755 
L 288.325479 54.389826 
L 288.774735 54.22359 
L 289.878729 50.950596 
L 291.135346 54.249333 
L 291.521017 53.804951 
L 292.32182 54.457633 
L 293.095591 50.275131 
L 293.469092 52.214172 
L 293.865885 54.342347 
L 294.224303 54.162717 
L 294.985246 50.50048 
L 295.328381 52.309654 
L 295.672406 52.527116 
L 296.043718 55.729309 
L 296.803469 55.284796 
L 297.232958 53.884192 
L 297.748397 54.746167 
L 298.14694 56.525466 
L 298.532574 53.355254 
L 298.938369 54.315264 
L 299.417705 54.842136 
L 300.099206 50.270452 
L 300.472148 52.364314 
L 302.190441 54.411668 
L 304.786034 54.078968 
L 305.676359 52.618239 
L 306.137724 53.990201 
L 306.548455 51.536627 
L 307.313686 52.752117 
L 309.078761 54.693499 
L 309.546038 52.34042 
L 309.944245 53.137325 
L 310.348793 54.731563 
L 310.712025 53.698172 
L 311.077167 52.172464 
L 311.48208 54.578721 
L 311.868212 52.921251 
L 312.250269 55.203175 
L 312.629448 54.40784 
L 312.972928 51.200682 
L 313.313072 55.305177 
L 316.022799 51.017078 
L 317.294351 53.996663 
L 317.712652 53.781842 
L 318.033919 48.897868 
L 318.351061 55.892522 
L 320.321327 50.806206 
L 321.087274 55.444537 
L 321.476641 53.754661 
L 322.351636 52.070221 
L 322.729376 55.018582 
L 323.083589 52.641403 
L 324.255721 51.214225 
L 324.611317 52.877979 
L 324.968458 50.503945 
L 325.383239 52.337671 
L 325.814179 53.419902 
L 327.044613 50.499657 
L 327.810059 54.617788 
L 328.184555 51.84823 
L 329.32413 54.956592 
L 330.48221 49.939142 
L 331.261826 55.182983 
L 331.636959 54.798286 
L 332.810327 52.671411 
L 333.503654 56.605071 
L 333.89254 52.522538 
L 334.271635 54.842903 
L 335.04079 57.697546 
L 336.644698 52.860361 
L 337.478619 56.381442 
L 339.052198 52.85592 
L 341.306139 55.150094 
L 341.673823 53.446938 
L 342.852413 52.872877 
L 343.228765 49.792872 
L 344.035524 50.56493 
L 344.469895 51.636274 
L 344.917797 50.014773 
L 345.327425 53.786134 
L 346.16367 52.600181 
L 346.59386 51.891482 
L 347.74797 55.550439 
L 348.14611 51.052195 
L 348.535854 56.081284 
L 349.380594 52.841838 
L 349.935337 53.796308 
L 350.100915 55.545889 
L 350.196755 54.765664 
L 350.200314 68.137597 
L 350.212175 37.287898 
L 350.885707 60.560365 
L 353.957195 76.518395 
L 354.317227 75.245837 
L 354.762213 74.69424 
L 356.585918 83.243011 
L 358.17262 90.28698 
L 358.535283 89.005773 
L 358.850516 84.9265 
L 359.167422 90.981311 
L 359.495189 89.786976 
L 359.937949 92.161911 
L 360.358543 90.913805 
L 360.890734 91.19862 
L 362.133861 95.755334 
L 363.49863 92.698215 
L 364.893556 102.078769 
L 365.279489 102.917753 
L 365.700621 101.119396 
L 366.211203 102.817681 
L 368.751803 108.929478 
L 369.1756 107.078649 
L 369.65285 107.223997 
L 370.009886 110.315855 
L 370.363128 109.022703 
L 370.753996 107.792007 
L 372.275209 116.947334 
L 372.613483 115.845922 
L 373.037519 114.271853 
L 373.518959 114.776778 
L 374.025522 114.573086 
L 375.129292 110.094111 
L 376.63094 116.571046 
L 376.966837 111.921017 
L 377.777197 112.994304 
L 379.282415 118.840038 
L 380.191722 116.969162 
L 380.691607 119.011333 
L 381.147716 118.722909 
L 381.540729 117.265169 
L 381.932824 119.58987 
L 382.369957 117.503457 
L 384.775691 122.993621 
L 386.035037 118.299718 
L 386.776548 123.206573 
L 387.153863 121.05603 
L 388.500527 119.507436 
L 388.854786 122.392103 
L 389.644677 121.716643 
L 390.383096 118.516692 
L 390.783958 121.414785 
L 391.202273 120.15294 
L 392.864687 116.837735 
L 393.267776 119.607065 
L 394.170864 118.99556 
L 394.967782 116.701232 
L 395.351309 119.816218 
L 395.739828 117.685085 
L 396.183942 118.159662 
L 396.996241 124.111887 
L 397.800099 123.596534 
L 398.44208 119.238535 
L 398.812928 121.595689 
L 399.262731 118.37247 
L 400.175291 119.017499 
L 400.570036 116.338208 
L 400.927888 117.735516 
L 402.041678 117.434151 
L 402.3994 114.522887 
L 402.753916 115.447412 
L 403.11438 117.668648 
L 403.472683 115.298168 
L 404.36705 115.596339 
L 405.067621 120.011687 
L 405.876319 119.820488 
L 406.229397 117.275608 
L 406.579725 120.4353 
L 406.966947 118.193511 
L 407.414628 119.195943 
L 409.706973 112.424331 
L 410.434923 119.247122 
L 411.207524 118.76969 
L 412.566625 115.408159 
L 412.919897 113.85232 
L 413.289954 117.838647 
L 413.672316 114.305929 
L 415.072745 114.841441 
L 416.077403 113.772467 
L 417.14279 115.083353 
L 417.516565 112.860098 
L 417.88795 113.257211 
L 418.729899 115.906643 
L 419.101712 111.430578 
L 419.473202 114.761011 
L 420.781835 116.880761 
L 421.277663 114.654647 
L 421.733269 115.625033 
L 424.133894 113.145809 
L 424.458134 117.868911 
L 424.778128 112.998584 
L 425.119095 114.755179 
L 425.582017 114.990055 
L 425.937001 117.823415 
L 426.288996 114.798757 
L 426.695003 114.098615 
L 427.098792 117.357339 
L 427.507018 113.225867 
L 428.432036 115.369999 
L 431.604628 113.151873 
L 432.412158 116.485485 
L 432.809932 112.738769 
L 433.666695 113.198958 
L 436.017045 116.021871 
L 436.451281 114.989428 
L 436.77576 110.500759 
L 437.502464 113.791 
L 437.953117 113.153828 
L 438.428938 113.945647 
L 438.924728 114.222156 
L 439.283528 111.481083 
L 439.639323 113.070783 
L 440.054576 114.775503 
L 440.856738 114.289543 
L 441.296158 114.59395 
L 441.700975 113.233994 
L 442.509723 113.743986 
L 443.347658 113.29747 
L 444.854344 109.432875 
L 446.021774 114.846961 
L 446.439465 110.82418 
L 447.260234 112.38901 
L 448.58983 109.511612 
L 449.418948 110.681797 
L 449.795912 108.265441 
L 450.943699 114.865652 
L 451.740304 112.494997 
L 452.106382 113.675 
L 452.550488 114.972183 
L 452.955739 110.947877 
L 453.34103 111.030547 
L 453.747536 114.179072 
L 454.128982 113.364251 
L 455.415472 112.06355 
L 458.047325 117.294089 
L 459.078546 110.157187 
L 460.216502 115.825065 
L 461.437057 113.915598 
L 461.894464 117.353801 
L 462.324776 115.690608 
L 462.746542 115.239952 
L 463.126731 117.880286 
L 464.268034 113.243633 
L 465.498614 108.360557 
L 465.863473 109.841537 
L 466.18143 114.086078 
L 466.847128 111.74905 
L 468.952417 114.809489 
L 470.72178 112.893535 
L 471.147911 114.812621 
L 471.561281 113.929678 
L 473.177109 111.210987 
L 474.015814 110.529976 
L 474.775701 116.671737 
L 475.935308 111.962352 
L 476.331752 118.003355 
L 477.116849 117.126133 
L 478.719292 114.450398 
L 479.127254 112.730063 
L 479.507755 112.962625 
L 480.719056 115.507157 
L 481.133977 115.497588 
L 481.57183 113.939911 
L 482.048445 114.340967 
L 483.076554 115.44287 
L 483.995703 112.451293 
L 484.418063 112.902973 
L 484.760025 116.105366 
L 485.098648 112.131012 
L 485.464503 112.667393 
L 486.721602 117.113296 
L 487.91213 112.014648 
L 488.246195 113.159128 
L 489.276101 117.851725 
L 488.925237 111.882799 
L 489.612994 117.46307 
L 490.00248 115.601866 
L 490.685927 121.462057 
L 491.046968 116.684379 
L 491.413772 117.275983 
L 491.774566 113.218104 
L 492.55226 114.817439 
L 492.965748 115.377695 
L 493.385157 111.945859 
L 493.78277 116.338539 
L 494.179007 113.482335 
L 494.621892 112.73359 
L 495.048699 114.239699 
L 495.973847 114.602152 
L 496.774911 110.867382 
L 498.394809 116.949359 
L 498.759199 116.48559 
L 499.519484 112.38415 
L 500.667209 118.194943 
L 502.310042 113.48016 
L 503.066545 118.177761 
L 503.774809 116.344325 
L 504.238364 115.801442 
L 505.346429 111.885678 
L 506.180944 111.238894 
L 506.97429 115.773603 
L 507.340459 114.333394 
L 508.189718 110.526219 
L 508.566484 114.35038 
L 509.380952 113.051574 
L 510.644295 115.89468 
L 510.995003 115.000048 
L 511.467508 114.286784 
L 511.889081 115.748565 
L 512.307926 113.096448 
L 513.201465 113.726749 
L 514.115143 116.149967 
L 514.509408 115.96474 
L 514.893254 111.745111 
L 515.252989 114.350655 
L 516.140511 115.613621 
L 516.518879 112.734502 
L 516.87539 114.078195 
L 518.421762 113.782686 
L 518.793078 111.49208 
L 519.16197 113.907679 
L 519.599762 111.88867 
L 519.976098 111.040891 
L 520.357536 112.022057 
L 520.762787 114.103756 
L 521.15985 112.69726 
L 521.616754 112.911984 
L 521.977616 110.366714 
L 522.335836 114.050148 
L 523.182521 114.467146 
L 523.6462 112.985023 
L 523.981375 117.435134 
L 524.717924 115.556044 
L 525.449262 113.533623 
L 526.273144 117.543152 
L 526.643584 115.765788 
L 527.062158 115.798476 
L 527.48377 118.261816 
L 527.904163 118.010471 
L 529.020577 111.767985 
L 529.396411 117.264359 
L 529.745223 115.1339 
L 530.205089 113.230541 
L 530.627417 116.667459 
L 530.948222 110.906948 
L 531.669218 112.855699 
L 532.107384 113.884089 
L 533.355732 112.09928 
L 534.623966 109.061365 
L 535.004101 110.945941 
L 535.756285 114.910549 
L 536.125768 113.757541 
L 536.639698 114.096978 
L 537.836768 117.01341 
L 538.111151 115.545282 
L 538.111151 115.545282 
" clip-path="url(#pc7215d7e5c)" style="fill: none; stroke: #377eb8; stroke-width: 2; stroke-linecap: square"/>
   </g>
   <g id="patch_3">
    <path d="M 44.845313 241.599141 
L 44.845313 7.2 
" style="fill: none; stroke: #7f7f7f; stroke-width: 1.8; stroke-linejoin: miter; stroke-linecap: square"/>
   </g>
   <g id="patch_4">
    <path d="M 44.845313 241.599141 
L 561.6 241.599141 
" style="fill: none; stroke: #7f7f7f; stroke-width: 1.8; stroke-linejoin: miter; stroke-linecap: square"/>
   </g>
   <g id="legend_1">
    <g id="line2d_27">
     <path d="M 499.584375 20.298438 
L 509.584375 20.298438 
L 519.584375 20.298438 
" style="fill: none; stroke: #e41a1c; stroke-width: 2; stroke-linecap: square"/>
    </g>
    <g id="text_14">
     <!-- err 2 -->
     <g style="fill: #7f7f7f" transform="translate(527.584375 23.798438) scale(0.1 -0.1)">
      <defs>
       <path id="DejaVuSans-55" d="M 2631 2963 
Q 2534 3019 2420 3045 
Q 2306 3072 2169 3072 
Q 1681 3072 1420 2755 
Q 1159 2438 1159 1844 
L 1159 0 
L 581 0 
L 581 3500 
L 1159 3500 
L 1159 2956 
Q 1341 3275 1631 3429 
Q 1922 3584 2338 3584 
Q 2397 3584 2469 3576 
Q 2541 3569 2628 3553 
L 2631 2963 
z
" transform="scale(0.015625)"/>
      </defs>
      <use xlink:href="#DejaVuSans-48"/>
      <use xlink:href="#DejaVuSans-55" transform="translate(61.53125 0)"/>
      <use xlink:href="#DejaVuSans-55" transform="translate(100.890625 0)"/>
      <use xlink:href="#DejaVuSans-3" transform="translate(142 0)"/>
      <use xlink:href="#DejaVuSans-15" transform="translate(173.78125 0)"/>
     </g>
    </g>
    <g id="line2d_28">
     <path d="M 499.584375 35.299219 
L 509.584375 35.299219 
L 519.584375 35.299219 
" style="fill: none; stroke: #377eb8; stroke-width: 2; stroke-linecap: square"/>
    </g>
    <g id="text_15">
     <!-- pid 2 -->
     <g style="fill: #7f7f7f" transform="translate(527.584375 38.799219) scale(0.1 -0.1)">
      <defs>
       <path id="DejaVuSans-53" d="M 1159 525 
L 1159 -1331 
L 581 -1331 
L 581 3500 
L 1159 3500 
L 1159 2969 
Q 1341 3281 1617 3432 
Q 1894 3584 2278 3584 
Q 2916 3584 3314 3078 
Q 3713 2572 3713 1747 
Q 3713 922 3314 415 
Q 2916 -91 2278 -91 
Q 1894 -91 1617 61 
Q 1341 213 1159 525 
z
M 3116 1747 
Q 3116 2381 2855 2742 
Q 2594 3103 2138 3103 
Q 1681 3103 1420 2742 
Q 1159 2381 1159 1747 
Q 1159 1113 1420 752 
Q 1681 391 2138 391 
Q 2594 391 2855 752 
Q 3116 1113 3116 1747 
z
" transform="scale(0.015625)"/>
       <path id="DejaVuSans-47" d="M 2906 2969 
L 2906 4863 
L 3481 4863 
L 3481 0 
L 2906 0 
L 2906 525 
Q 2725 213 2448 61 
Q 2172 -91 1784 -91 
Q 1150 -91 751 415 
Q 353 922 353 1747 
Q 353 2572 751 3078 
Q 1150 3584 1784 3584 
Q 2172 3584 2448 3432 
Q 2725 3281 2906 2969 
z
M 947 1747 
Q 947 1113 1208 752 
Q 1469 391 1925 391 
Q 2381 391 2643 752 
Q 2906 1113 2906 1747 
Q 2906 2381 2643 2742 
Q 2381 3103 1925 3103 
Q 1469 3103 1208 2742 
Q 947 2381 947 1747 
z
" transform="scale(0.015625)"/>
      </defs>
      <use xlink:href="#DejaVuSans-53"/>
      <use xlink:href="#DejaVuSans-4c" transform="translate(63.484375 0)"/>
      <use xlink:href="#DejaVuSans-47" transform="translate(91.265625 0)"/>
      <use xlink:href="#DejaVuSans-3" transform="translate(154.75 0)"/>
      <use xlink:href="#DejaVuSans-15" transform="translate(186.53125 0)"/>
     </g>
    </g>
   </g>
  </g>
 </g>
 <defs>
  <clipPath id="pc7215d7e5c">
   <rect x="44.845313" y="7.2" width="516.754687" height="234.399141"/>
  </clipPath>
 </defs>
</svg>
