<?xml version="1.0" encoding="utf-8" standalone="no"?>
<!DOCTYPE svg PUBLIC "-//W3C//DTD SVG 1.1//EN"
  "http://www.w3.org/Graphics/SVG/1.1/DTD/svg11.dtd">
<svg xmlns:xlink="http://www.w3.org/1999/xlink" width="568.8pt" height="280.8pt" viewBox="0 0 568.8 280.8" xmlns="http://www.w3.org/2000/svg" version="1.1">
 <metadata>
  <rdf:RDF xmlns:dc="http://purl.org/dc/elements/1.1/" xmlns:cc="http://creativecommons.org/ns#" xmlns:rdf="http://www.w3.org/1999/02/22-rdf-syntax-ns#">
   <cc:Work>
    <dc:type rdf:resource="http://purl.org/dc/dcmitype/StillImage"/>
    <dc:date>2026-06-01T00:52:19.199906</dc:date>
    <dc:format>image/svg+xml</dc:format>
    <dc:creator>
     <cc:Agent>
      <dc:title>Matplotlib v3.10.9, https://matplotlib.org/</dc:title>
     </cc:Agent>
    </dc:creator>
   </cc:Work>
  </rdf:RDF>
 </metadata>
 <defs>
  <style type="text/css">*{stroke-linejoin: round; stroke-linecap: butt}</style>
 </defs>
 <g id="figure_1">
  <g id="patch_1">
   <path d="M 0 280.8 
L 568.8 280.8 
L 568.8 0 
L 0 0 
L 0 280.8 
z
" style="fill: none"/>
  </g>
  <g id="axes_1">
   <g id="patch_2">
    <path d="M 38.482813 242.275937 
L 561.6 242.275937 
L 561.6 7.2 
L 38.482813 7.2 
L 38.482813 242.275937 
z
" style="fill: none"/>
   </g>
   <g id="matplotlib.axis_1">
    <g id="xtick_1">
     <g id="line2d_1">
      <path d="M 62.260866 242.275937 
L 62.260866 7.2 
" clip-path="url(#p8ce2f6e75f)" style="fill: none; stroke-dasharray: 2.96,1.28; stroke-dashoffset: 0; stroke: #7f7f7f; stroke-opacity: 0.6; stroke-width: 0.8"/>
     </g>
     <g id="line2d_2">
      <defs>
       <path id="ma64922b735" d="M 0 0 
L 0 3.5 
" style="stroke: #7f7f7f; stroke-width: 1.8"/>
      </defs>
      <g>
       <use xlink:href="#ma64922b735" x="62.260866" y="242.275937" style="fill: #7f7f7f; stroke: #7f7f7f; stroke-width: 1.8"/>
      </g>
     </g>
     <g id="text_1">
      <!-- 0 -->
      <g style="fill: #7f7f7f" transform="translate(59.079616 256.874375) scale(0.1 -0.1)">
       <defs>
        <path id="DejaVuSans-30" d="M 2034 4250 
Q 1547 4250 1301 3770 
Q 1056 3291 1056 2328 
Q 1056 1369 1301 889 
Q 1547 409 2034 409 
Q 2525 409 2770 889 
Q 3016 1369 3016 2328 
Q 3016 3291 2770 3770 
Q 2525 4250 2034 4250 
z
M 2034 4750 
Q 2819 4750 3233 4129 
Q 3647 3509 3647 2328 
Q 3647 1150 3233 529 
Q 2819 -91 2034 -91 
Q 1250 -91 836 529 
Q 422 1150 422 2328 
Q 422 3509 836 4129 
Q 1250 4750 2034 4750 
z
" transform="scale(0.015625)"/>
       </defs>
       <use xlink:href="#DejaVuSans-30"/>
      </g>
     </g>
    </g>
    <g id="xtick_2">
     <g id="line2d_3">
      <path d="M 157.373082 242.275937 
L 157.373082 7.2 
" clip-path="url(#p8ce2f6e75f)" style="fill: none; stroke-dasharray: 2.96,1.28; stroke-dashoffset: 0; stroke: #7f7f7f; stroke-opacity: 0.6; stroke-width: 0.8"/>
     </g>
     <g id="line2d_4">
      <g>
       <use xlink:href="#ma64922b735" x="157.373082" y="242.275937" style="fill: #7f7f7f; stroke: #7f7f7f; stroke-width: 1.8"/>
      </g>
     </g>
     <g id="text_2">
      <!-- 20 -->
      <g style="fill: #7f7f7f" transform="translate(151.010582 256.874375) scale(0.1 -0.1)">
       <defs>
        <path id="DejaVuSans-32" d="M 1228 531 
L 3431 531 
L 3431 0 
L 469 0 
L 469 531 
Q 828 903 1448 1529 
Q 2069 2156 2228 2338 
Q 2531 2678 2651 2914 
Q 2772 3150 2772 3378 
Q 2772 3750 2511 3984 
Q 2250 4219 1831 4219 
Q 1534 4219 1204 4116 
Q 875 4013 500 3803 
L 500 4441 
Q 881 4594 1212 4672 
Q 1544 4750 1819 4750 
Q 2544 4750 2975 4387 
Q 3406 4025 3406 3419 
Q 3406 3131 3298 2873 
Q 3191 2616 2906 2266 
Q 2828 2175 2409 1742 
Q 1991 1309 1228 531 
z
" transform="scale(0.015625)"/>
       </defs>
       <use xlink:href="#DejaVuSans-32"/>
       <use xlink:href="#DejaVuSans-30" transform="translate(63.623047 0)"/>
      </g>
     </g>
    </g>
    <g id="xtick_3">
     <g id="line2d_5">
      <path d="M 252.485298 242.275937 
L 252.485298 7.2 
" clip-path="url(#p8ce2f6e75f)" style="fill: none; stroke-dasharray: 2.96,1.28; stroke-dashoffset: 0; stroke: #7f7f7f; stroke-opacity: 0.6; stroke-width: 0.8"/>
     </g>
     <g id="line2d_6">
      <g>
       <use xlink:href="#ma64922b735" x="252.485298" y="242.275937" style="fill: #7f7f7f; stroke: #7f7f7f; stroke-width: 1.8"/>
      </g>
     </g>
     <g id="text_3">
      <!-- 40 -->
      <g style="fill: #7f7f7f" transform="translate(246.122798 256.874375) scale(0.1 -0.1)">
       <defs>
        <path id="DejaVuSans-34" d="M 2419 4116 
L 825 1625 
L 2419 1625 
L 2419 4116 
z
M 2253 4666 
L 3047 4666 
L 3047 1625 
L 3713 1625 
L 3713 1100 
L 3047 1100 
L 3047 0 
L 2419 0 
L 2419 1100 
L 313 1100 
L 313 1709 
L 2253 4666 
z
" transform="scale(0.015625)"/>
       </defs>
       <use xlink:href="#DejaVuSans-34"/>
       <use xlink:href="#DejaVuSans-30" transform="translate(63.623047 0)"/>
      </g>
     </g>
    </g>
    <g id="xtick_4">
     <g id="line2d_7">
      <path d="M 347.597514 242.275937 
L 347.597514 7.2 
" clip-path="url(#p8ce2f6e75f)" style="fill: none; stroke-dasharray: 2.96,1.28; stroke-dashoffset: 0; stroke: #7f7f7f; stroke-opacity: 0.6; stroke-width: 0.8"/>
     </g>
     <g id="line2d_8">
      <g>
       <use xlink:href="#ma64922b735" x="347.597514" y="242.275937" style="fill: #7f7f7f; stroke: #7f7f7f; stroke-width: 1.8"/>
      </g>
     </g>
     <g id="text_4">
      <!-- 60 -->
      <g style="fill: #7f7f7f" transform="translate(341.235014 256.874375) scale(0.1 -0.1)">
       <defs>
        <path id="DejaVuSans-36" d="M 2113 2584 
Q 1688 2584 1439 2293 
Q 1191 2003 1191 1497 
Q 1191 994 1439 701 
Q 1688 409 2113 409 
Q 2538 409 2786 701 
Q 3034 994 3034 1497 
Q 3034 2003 2786 2293 
Q 2538 2584 2113 2584 
z
M 3366 4563 
L 3366 3988 
Q 3128 4100 2886 4159 
Q 2644 4219 2406 4219 
Q 1781 4219 1451 3797 
Q 1122 3375 1075 2522 
Q 1259 2794 1537 2939 
Q 1816 3084 2150 3084 
Q 2853 3084 3261 2657 
Q 3669 2231 3669 1497 
Q 3669 778 3244 343 
Q 2819 -91 2113 -91 
Q 1303 -91 875 529 
Q 447 1150 447 2328 
Q 447 3434 972 4092 
Q 1497 4750 2381 4750 
Q 2619 4750 2861 4703 
Q 3103 4656 3366 4563 
z
" transform="scale(0.015625)"/>
       </defs>
       <use xlink:href="#DejaVuSans-36"/>
       <use xlink:href="#DejaVuSans-30" transform="translate(63.623047 0)"/>
      </g>
     </g>
    </g>
    <g id="xtick_5">
     <g id="line2d_9">
      <path d="M 442.70973 242.275937 
L 442.70973 7.2 
" clip-path="url(#p8ce2f6e75f)" style="fill: none; stroke-dasharray: 2.96,1.28; stroke-dashoffset: 0; stroke: #7f7f7f; stroke-opacity: 0.6; stroke-width: 0.8"/>
     </g>
     <g id="line2d_10">
      <g>
       <use xlink:href="#ma64922b735" x="442.70973" y="242.275937" style="fill: #7f7f7f; stroke: #7f7f7f; stroke-width: 1.8"/>
      </g>
     </g>
     <g id="text_5">
      <!-- 80 -->
      <g style="fill: #7f7f7f" transform="translate(436.34723 256.874375) scale(0.1 -0.1)">
       <defs>
        <path id="DejaVuSans-38" d="M 2034 2216 
Q 1584 2216 1326 1975 
Q 1069 1734 1069 1313 
Q 1069 891 1326 650 
Q 1584 409 2034 409 
Q 2484 409 2743 651 
Q 3003 894 3003 1313 
Q 3003 1734 2745 1975 
Q 2488 2216 2034 2216 
z
M 1403 2484 
Q 997 2584 770 2862 
Q 544 3141 544 3541 
Q 544 4100 942 4425 
Q 1341 4750 2034 4750 
Q 2731 4750 3128 4425 
Q 3525 4100 3525 3541 
Q 3525 3141 3298 2862 
Q 3072 2584 2669 2484 
Q 3125 2378 3379 2068 
Q 3634 1759 3634 1313 
Q 3634 634 3220 271 
Q 2806 -91 2034 -91 
Q 1263 -91 848 271 
Q 434 634 434 1313 
Q 434 1759 690 2068 
Q 947 2378 1403 2484 
z
M 1172 3481 
Q 1172 3119 1398 2916 
Q 1625 2713 2034 2713 
Q 2441 2713 2670 2916 
Q 2900 3119 2900 3481 
Q 2900 3844 2670 4047 
Q 2441 4250 2034 4250 
Q 1625 4250 1398 4047 
Q 1172 3844 1172 3481 
z
" transform="scale(0.015625)"/>
       </defs>
       <use xlink:href="#DejaVuSans-38"/>
       <use xlink:href="#DejaVuSans-30" transform="translate(63.623047 0)"/>
      </g>
     </g>
    </g>
    <g id="xtick_6">
     <g id="line2d_11">
      <path d="M 537.821946 242.275937 
L 537.821946 7.2 
" clip-path="url(#p8ce2f6e75f)" style="fill: none; stroke-dasharray: 2.96,1.28; stroke-dashoffset: 0; stroke: #7f7f7f; stroke-opacity: 0.6; stroke-width: 0.8"/>
     </g>
     <g id="line2d_12">
      <g>
       <use xlink:href="#ma64922b735" x="537.821946" y="242.275937" style="fill: #7f7f7f; stroke: #7f7f7f; stroke-width: 1.8"/>
      </g>
     </g>
     <g id="text_6">
      <!-- 100 -->
      <g style="fill: #7f7f7f" transform="translate(528.278196 256.874375) scale(0.1 -0.1)">
       <defs>
        <path id="DejaVuSans-31" d="M 794 531 
L 1825 531 
L 1825 4091 
L 703 3866 
L 703 4441 
L 1819 4666 
L 2450 4666 
L 2450 531 
L 3481 531 
L 3481 0 
L 794 0 
L 794 531 
z
" transform="scale(0.015625)"/>
       </defs>
       <use xlink:href="#DejaVuSans-31"/>
       <use xlink:href="#DejaVuSans-30" transform="translate(63.623047 0)"/>
       <use xlink:href="#DejaVuSans-30" transform="translate(127.246094 0)"/>
      </g>
     </g>
    </g>
    <g id="text_7">
     <!-- time [s] -->
     <g style="fill: #7f7f7f" transform="translate(278.710859 271.312344) scale(0.11 -0.11)">
      <defs>
       <path id="DejaVuSans-74" d="M 1172 4494 
L 1172 3500 
L 2356 3500 
L 2356 3053 
L 1172 3053 
L 1172 1153 
Q 1172 725 1289 603 
Q 1406 481 1766 481 
L 2356 481 
L 2356 0 
L 1766 0 
Q 1100 0 847 248 
Q 594 497 594 1153 
L 594 3053 
L 172 3053 
L 172 3500 
L 594 3500 
L 594 4494 
L 1172 4494 
z
" transform="scale(0.015625)"/>
       <path id="DejaVuSans-69" d="M 603 3500 
L 1178 3500 
L 1178 0 
L 603 0 
L 603 3500 
z
M 603 4863 
L 1178 4863 
L 1178 4134 
L 603 4134 
L 603 4863 
z
" transform="scale(0.015625)"/>
       <path id="DejaVuSans-6d" d="M 3328 2828 
Q 3544 3216 3844 3400 
Q 4144 3584 4550 3584 
Q 5097 3584 5394 3201 
Q 5691 2819 5691 2113 
L 5691 0 
L 5113 0 
L 5113 2094 
Q 5113 2597 4934 2840 
Q 4756 3084 4391 3084 
Q 3944 3084 3684 2787 
Q 3425 2491 3425 1978 
L 3425 0 
L 2847 0 
L 2847 2094 
Q 2847 2600 2669 2842 
Q 2491 3084 2119 3084 
Q 1678 3084 1418 2786 
Q 1159 2488 1159 1978 
L 1159 0 
L 581 0 
L 581 3500 
L 1159 3500 
L 1159 2956 
Q 1356 3278 1631 3431 
Q 1906 3584 2284 3584 
Q 2666 3584 2933 3390 
Q 3200 3197 3328 2828 
z
" transform="scale(0.015625)"/>
       <path id="DejaVuSans-65" d="M 3597 1894 
L 3597 1613 
L 953 1613 
Q 991 1019 1311 708 
Q 1631 397 2203 397 
Q 2534 397 2845 478 
Q 3156 559 3463 722 
L 3463 178 
Q 3153 47 2828 -22 
Q 2503 -91 2169 -91 
Q 1331 -91 842 396 
Q 353 884 353 1716 
Q 353 2575 817 3079 
Q 1281 3584 2069 3584 
Q 2775 3584 3186 3129 
Q 3597 2675 3597 1894 
z
M 3022 2063 
Q 3016 2534 2758 2815 
Q 2500 3097 2075 3097 
Q 1594 3097 1305 2825 
Q 1016 2553 972 2059 
L 3022 2063 
z
" transform="scale(0.015625)"/>
       <path id="DejaVuSans-20" transform="scale(0.015625)"/>
       <path id="DejaVuSans-5b" d="M 550 4863 
L 1875 4863 
L 1875 4416 
L 1125 4416 
L 1125 -397 
L 1875 -397 
L 1875 -844 
L 550 -844 
L 550 4863 
z
" transform="scale(0.015625)"/>
       <path id="DejaVuSans-73" d="M 2834 3397 
L 2834 2853 
Q 2591 2978 2328 3040 
Q 2066 3103 1784 3103 
Q 1356 3103 1142 2972 
Q 928 2841 928 2578 
Q 928 2378 1081 2264 
Q 1234 2150 1697 2047 
L 1894 2003 
Q 2506 1872 2764 1633 
Q 3022 1394 3022 966 
Q 3022 478 2636 193 
Q 2250 -91 1575 -91 
Q 1294 -91 989 -36 
Q 684 19 347 128 
L 347 722 
Q 666 556 975 473 
Q 1284 391 1588 391 
Q 1994 391 2212 530 
Q 2431 669 2431 922 
Q 2431 1156 2273 1281 
Q 2116 1406 1581 1522 
L 1381 1569 
Q 847 1681 609 1914 
Q 372 2147 372 2553 
Q 372 3047 722 3315 
Q 1072 3584 1716 3584 
Q 2034 3584 2315 3537 
Q 2597 3491 2834 3397 
z
" transform="scale(0.015625)"/>
       <path id="DejaVuSans-5d" d="M 1947 4863 
L 1947 -844 
L 622 -844 
L 622 -397 
L 1369 -397 
L 1369 4416 
L 622 4416 
L 622 4863 
L 1947 4863 
z
" transform="scale(0.015625)"/>
      </defs>
      <use xlink:href="#DejaVuSans-74"/>
      <use xlink:href="#DejaVuSans-69" transform="translate(39.208984 0)"/>
      <use xlink:href="#DejaVuSans-6d" transform="translate(66.992188 0)"/>
      <use xlink:href="#DejaVuSans-65" transform="translate(164.404297 0)"/>
      <use xlink:href="#DejaVuSans-20" transform="translate(225.927734 0)"/>
      <use xlink:href="#DejaVuSans-5b" transform="translate(257.714844 0)"/>
      <use xlink:href="#DejaVuSans-73" transform="translate(296.728516 0)"/>
      <use xlink:href="#DejaVuSans-5d" transform="translate(348.828125 0)"/>
     </g>
    </g>
   </g>
   <g id="matplotlib.axis_2">
    <g id="ytick_1">
     <g id="line2d_13">
      <path d="M 38.482813 228.547777 
L 561.6 228.547777 
" clip-path="url(#p8ce2f6e75f)" style="fill: none; stroke-dasharray: 2.96,1.28; stroke-dashoffset: 0; stroke: #7f7f7f; stroke-opacity: 0.6; stroke-width: 0.8"/>
     </g>
     <g id="line2d_14">
      <defs>
       <path id="me5474cf0dd" d="M 0 0 
L -3.5 0 
" style="stroke: #7f7f7f; stroke-width: 1.8"/>
      </defs>
      <g>
       <use xlink:href="#me5474cf0dd" x="38.482813" y="228.547777" style="fill: #7f7f7f; stroke: #7f7f7f; stroke-width: 1.8"/>
      </g>
     </g>
     <g id="text_8">
      <!-- −0.3 -->
      <g style="fill: #7f7f7f" transform="translate(7.2 232.346996) scale(0.1 -0.1)">
       <defs>
        <path id="DejaVuSans-2212" d="M 678 2272 
L 4684 2272 
L 4684 1741 
L 678 1741 
L 678 2272 
z
" transform="scale(0.015625)"/>
        <path id="DejaVuSans-2e" d="M 684 794 
L 1344 794 
L 1344 0 
L 684 0 
L 684 794 
z
" transform="scale(0.015625)"/>
        <path id="DejaVuSans-33" d="M 2597 2516 
Q 3050 2419 3304 2112 
Q 3559 1806 3559 1356 
Q 3559 666 3084 287 
Q 2609 -91 1734 -91 
Q 1441 -91 1130 -33 
Q 819 25 488 141 
L 488 750 
Q 750 597 1062 519 
Q 1375 441 1716 441 
Q 2309 441 2620 675 
Q 2931 909 2931 1356 
Q 2931 1769 2642 2001 
Q 2353 2234 1838 2234 
L 1294 2234 
L 1294 2753 
L 1863 2753 
Q 2328 2753 2575 2939 
Q 2822 3125 2822 3475 
Q 2822 3834 2567 4026 
Q 2313 4219 1838 4219 
Q 1578 4219 1281 4162 
Q 984 4106 628 3988 
L 628 4550 
Q 988 4650 1302 4700 
Q 1616 4750 1894 4750 
Q 2613 4750 3031 4423 
Q 3450 4097 3450 3541 
Q 3450 3153 3228 2886 
Q 3006 2619 2597 2516 
z
" transform="scale(0.015625)"/>
       </defs>
       <use xlink:href="#DejaVuSans-2212"/>
       <use xlink:href="#DejaVuSans-30" transform="translate(83.789062 0)"/>
       <use xlink:href="#DejaVuSans-2e" transform="translate(147.412109 0)"/>
       <use xlink:href="#DejaVuSans-33" transform="translate(179.199219 0)"/>
      </g>
     </g>
    </g>
    <g id="ytick_2">
     <g id="line2d_15">
      <path d="M 38.482813 192.855943 
L 561.6 192.855943 
" clip-path="url(#p8ce2f6e75f)" style="fill: none; stroke-dasharray: 2.96,1.28; stroke-dashoffset: 0; stroke: #7f7f7f; stroke-opacity: 0.6; stroke-width: 0.8"/>
     </g>
     <g id="line2d_16">
      <g>
       <use xlink:href="#me5474cf0dd" x="38.482813" y="192.855943" style="fill: #7f7f7f; stroke: #7f7f7f; stroke-width: 1.8"/>
      </g>
     </g>
     <g id="text_9">
      <!-- −0.2 -->
      <g style="fill: #7f7f7f" transform="translate(7.2 196.655162) scale(0.1 -0.1)">
       <use xlink:href="#DejaVuSans-2212"/>
       <use xlink:href="#DejaVuSans-30" transform="translate(83.789062 0)"/>
       <use xlink:href="#DejaVuSans-2e" transform="translate(147.412109 0)"/>
       <use xlink:href="#DejaVuSans-32" transform="translate(179.199219 0)"/>
      </g>
     </g>
    </g>
    <g id="ytick_3">
     <g id="line2d_17">
      <path d="M 38.482813 157.164109 
L 561.6 157.164109 
" clip-path="url(#p8ce2f6e75f)" style="fill: none; stroke-dasharray: 2.96,1.28; stroke-dashoffset: 0; stroke: #7f7f7f; stroke-opacity: 0.6; stroke-width: 0.8"/>
     </g>
     <g id="line2d_18">
      <g>
       <use xlink:href="#me5474cf0dd" x="38.482813" y="157.164109" style="fill: #7f7f7f; stroke: #7f7f7f; stroke-width: 1.8"/>
      </g>
     </g>
     <g id="text_10">
      <!-- −0.1 -->
      <g style="fill: #7f7f7f" transform="translate(7.2 160.963328) scale(0.1 -0.1)">
       <use xlink:href="#DejaVuSans-2212"/>
       <use xlink:href="#DejaVuSans-30" transform="translate(83.789062 0)"/>
       <use xlink:href="#DejaVuSans-2e" transform="translate(147.412109 0)"/>
       <use xlink:href="#DejaVuSans-31" transform="translate(179.199219 0)"/>
      </g>
     </g>
    </g>
    <g id="ytick_4">
     <g id="line2d_19">
      <path d="M 38.482813 121.472275 
L 561.6 121.472275 
" clip-path="url(#p8ce2f6e75f)" style="fill: none; stroke-dasharray: 2.96,1.28; stroke-dashoffset: 0; stroke: #7f7f7f; stroke-opacity: 0.6; stroke-width: 0.8"/>
     </g>
     <g id="line2d_20">
      <g>
       <use xlink:href="#me5474cf0dd" x="38.482813" y="121.472275" style="fill: #7f7f7f; stroke: #7f7f7f; stroke-width: 1.8"/>
      </g>
     </g>
     <g id="text_11">
      <!-- 0.0 -->
      <g style="fill: #7f7f7f" transform="translate(15.579688 125.271493) scale(0.1 -0.1)">
       <use xlink:href="#DejaVuSans-30"/>
       <use xlink:href="#DejaVuSans-2e" transform="translate(63.623047 0)"/>
       <use xlink:href="#DejaVuSans-30" transform="translate(95.410156 0)"/>
      </g>
     </g>
    </g>
    <g id="ytick_5">
     <g id="line2d_21">
      <path d="M 38.482813 85.78044 
L 561.6 85.78044 
" clip-path="url(#p8ce2f6e75f)" style="fill: none; stroke-dasharray: 2.96,1.28; stroke-dashoffset: 0; stroke: #7f7f7f; stroke-opacity: 0.6; stroke-width: 0.8"/>
     </g>
     <g id="line2d_22">
      <g>
       <use xlink:href="#me5474cf0dd" x="38.482813" y="85.78044" style="fill: #7f7f7f; stroke: #7f7f7f; stroke-width: 1.8"/>
      </g>
     </g>
     <g id="text_12">
      <!-- 0.1 -->
      <g style="fill: #7f7f7f" transform="translate(15.579688 89.579659) scale(0.1 -0.1)">
       <use xlink:href="#DejaVuSans-30"/>
       <use xlink:href="#DejaVuSans-2e" transform="translate(63.623047 0)"/>
       <use xlink:href="#DejaVuSans-31" transform="translate(95.410156 0)"/>
      </g>
     </g>
    </g>
    <g id="ytick_6">
     <g id="line2d_23">
      <path d="M 38.482813 50.088606 
L 561.6 50.088606 
" clip-path="url(#p8ce2f6e75f)" style="fill: none; stroke-dasharray: 2.96,1.28; stroke-dashoffset: 0; stroke: #7f7f7f; stroke-opacity: 0.6; stroke-width: 0.8"/>
     </g>
     <g id="line2d_24">
      <g>
       <use xlink:href="#me5474cf0dd" x="38.482813" y="50.088606" style="fill: #7f7f7f; stroke: #7f7f7f; stroke-width: 1.8"/>
      </g>
     </g>
     <g id="text_13">
      <!-- 0.2 -->
      <g style="fill: #7f7f7f" transform="translate(15.579688 53.887825) scale(0.1 -0.1)">
       <use xlink:href="#DejaVuSans-30"/>
       <use xlink:href="#DejaVuSans-2e" transform="translate(63.623047 0)"/>
       <use xlink:href="#DejaVuSans-32" transform="translate(95.410156 0)"/>
      </g>
     </g>
    </g>
    <g id="ytick_7">
     <g id="line2d_25">
      <path d="M 38.482813 14.396772 
L 561.6 14.396772 
" clip-path="url(#p8ce2f6e75f)" style="fill: none; stroke-dasharray: 2.96,1.28; stroke-dashoffset: 0; stroke: #7f7f7f; stroke-opacity: 0.6; stroke-width: 0.8"/>
     </g>
     <g id="line2d_26">
      <g>
       <use xlink:href="#me5474cf0dd" x="38.482813" y="14.396772" style="fill: #7f7f7f; stroke: #7f7f7f; stroke-width: 1.8"/>
      </g>
     </g>
     <g id="text_14">
      <!-- 0.3 -->
      <g style="fill: #7f7f7f" transform="translate(15.579688 18.195991) scale(0.1 -0.1)">
       <use xlink:href="#DejaVuSans-30"/>
       <use xlink:href="#DejaVuSans-2e" transform="translate(63.623047 0)"/>
       <use xlink:href="#DejaVuSans-33" transform="translate(95.410156 0)"/>
      </g>
     </g>
    </g>
   </g>
   <g id="line2d_27">
    <path d="M 62.260866 121.472275 
L 62.308423 118.464111 
L 63.120947 124.37415 
L 63.640043 119.506002 
L 64.241885 120.601036 
L 64.519689 123.335021 
L 65.147737 120.774889 
L 65.920584 121.37729 
L 66.239246 123.76248 
L 66.526071 121.257595 
L 66.826799 122.074636 
L 68.049884 121.303417 
L 68.339822 119.098635 
L 68.608989 120.83355 
L 69.548896 121.365114 
L 70.831007 120.799291 
L 73.186931 123.229833 
L 73.861821 122.01486 
L 76.335973 121.219018 
L 76.700578 122.758472 
L 77.049458 122.113649 
L 77.879878 120.729711 
L 78.284883 121.215893 
L 79.475446 120.955246 
L 80.356582 121.088362 
L 82.214973 122.229969 
L 82.575454 120.507879 
L 82.892027 122.698011 
L 83.212594 121.043108 
L 84.476486 121.784224 
L 86.880764 120.513241 
L 87.53628 123.121624 
L 87.840017 121.568646 
L 89.180655 122.04347 
L 89.64698 122.309562 
L 90.015912 120.430861 
L 90.765427 121.06538 
L 92.03738 122.080187 
L 93.358832 120.204377 
L 93.728474 121.369964 
L 94.200054 120.998922 
L 94.58576 119.944102 
L 94.936351 121.869014 
L 96.081187 120.230694 
L 96.736888 123.514607 
L 97.373313 122.306359 
L 98.088214 120.252634 
L 98.421852 122.033124 
L 99.061375 122.911022 
L 99.367785 120.278679 
L 99.943939 120.99001 
L 100.209087 124.040766 
L 100.428501 119.525715 
L 100.958695 122.262047 
L 102.804072 119.531153 
L 103.100672 122.342984 
L 103.788423 121.202206 
L 104.116382 119.469872 
L 104.415214 122.540797 
L 105.392626 119.451047 
L 106.084336 121.240644 
L 106.852912 120.941392 
L 107.157955 123.624378 
L 107.78955 121.287773 
L 108.232264 121.90802 
L 108.684264 121.316668 
L 109.697131 121.887904 
L 110.900437 122.360651 
L 111.645979 122.858825 
L 112.357216 120.595919 
L 112.720036 122.098848 
L 113.078118 121.383162 
L 113.857316 120.452484 
L 114.231068 121.721265 
L 114.631124 121.283684 
L 114.936549 119.369977 
L 115.613145 120.941093 
L 116.980508 120.908982 
L 117.709639 122.852759 
L 118.037896 121.822145 
L 118.966358 121.744142 
L 119.37782 122.153613 
L 119.797882 121.025895 
L 120.12331 123.433779 
L 120.853904 121.669882 
L 122.141344 121.795498 
L 123.791359 120.139656 
L 124.431652 122.591182 
L 124.703333 119.641229 
L 124.974375 121.393766 
L 125.302741 121.931014 
L 125.611387 119.725872 
L 126.300667 121.662254 
L 126.670145 121.503375 
L 127.836644 122.542231 
L 129.27589 119.940938 
L 130.674774 122.697363 
L 130.985625 122.499361 
L 132.493512 120.107361 
L 132.800746 122.59199 
L 133.507716 121.580755 
L 134.251883 120.002328 
L 134.95774 121.073866 
L 135.381781 120.8582 
L 135.736556 122.852292 
L 136.45192 121.412811 
L 138.034237 121.674817 
L 138.382713 123.063561 
L 138.707424 121.94856 
L 139.020182 119.528918 
L 139.59454 122.257714 
L 140.681711 121.009932 
L 141.049077 122.119337 
L 141.369186 120.150587 
L 143.711116 122.094921 
L 144.945558 120.159065 
L 145.924064 122.310732 
L 146.231694 121.868638 
L 146.669835 121.545253 
L 147.064758 122.248916 
L 147.376477 119.42296 
L 147.949408 122.374441 
L 149.392093 120.120111 
L 149.713406 122.358714 
L 150.389799 121.532133 
L 150.929836 121.166855 
L 151.248372 119.451461 
L 151.507845 122.840311 
L 151.785739 120.276147 
L 152.996797 122.113842 
L 153.956532 119.918811 
L 153.662058 122.657023 
L 154.597686 120.504593 
L 156.143089 122.628916 
L 156.503168 122.758287 
L 156.846415 120.414023 
L 157.284325 124.190198 
L 157.371682 123.044609 
L 157.373673 231.590668 
L 157.37299 70.888132 
L 158.263202 116.491931 
L 158.421354 114.510319 
L 159.196395 116.046908 
L 159.365941 117.629747 
L 159.971787 117.128653 
L 160.553215 115.362437 
L 160.738716 118.478961 
L 162.090434 117.815479 
L 162.872815 119.575066 
L 162.618071 116.948044 
L 163.234532 118.596865 
L 164.603103 119.379923 
L 164.919931 117.77088 
L 165.223045 118.975039 
L 165.555001 120.829912 
L 165.985741 119.591467 
L 166.662262 116.950735 
L 166.954826 118.956846 
L 167.676985 120.640264 
L 168.013294 117.706051 
L 168.336234 120.845992 
L 168.680779 117.999851 
L 169.349187 119.13111 
L 170.116654 120.209614 
L 170.578692 119.333582 
L 171.405221 117.930428 
L 171.770706 120.468986 
L 172.333957 120.364794 
L 172.718658 119.428267 
L 173.529353 120.062126 
L 174.817895 119.073666 
L 175.214507 120.554765 
L 175.718843 120.140544 
L 176.139086 119.50435 
L 176.526557 121.169362 
L 176.884773 119.109287 
L 177.236951 118.885565 
L 178.048045 120.042809 
L 178.457413 119.246008 
L 178.835365 120.608413 
L 179.341777 121.264201 
L 179.709117 119.664449 
L 180.071865 121.401358 
L 180.488505 121.893958 
L 180.878045 118.72417 
L 181.639722 118.91105 
L 182.022866 120.881669 
L 182.604635 120.112239 
L 183.969109 120.218769 
L 185.326096 121.854461 
L 186.022444 122.073783 
L 186.440187 119.922965 
L 187.278082 121.484358 
L 187.664089 120.174508 
L 188.045424 119.093765 
L 188.411999 121.708311 
L 189.302355 121.513053 
L 190.563336 122.243117 
L 191.404714 120.827768 
L 192.235192 123.25618 
L 192.610115 121.872317 
L 192.962781 120.464931 
L 193.312857 120.739987 
L 194.124 122.681021 
L 194.875863 119.806573 
L 195.245673 120.632433 
L 196.103179 122.307051 
L 196.48185 120.881199 
L 201.134586 121.105162 
L 201.942849 122.272029 
L 202.366704 121.685063 
L 205.055381 122.065015 
L 205.406145 120.31552 
L 205.754034 121.293061 
L 206.256402 121.76106 
L 207.001133 120.102385 
L 207.389009 120.238387 
L 208.214159 122.232666 
L 208.618486 121.95057 
L 209.094956 122.558349 
L 209.5362 121.870485 
L 211.414386 119.544002 
L 211.755703 123.614917 
L 212.444821 120.697219 
L 213.248449 120.566924 
L 213.679182 123.843621 
L 215.05683 121.407275 
L 221.570978 122.257998 
L 221.971148 123.003894 
L 222.361423 122.002486 
L 222.725608 120.709015 
L 223.088037 122.376697 
L 223.520838 121.408542 
L 223.888807 120.307282 
L 224.254378 121.56032 
L 225.423362 122.529075 
L 226.188772 119.840496 
L 226.541464 122.518257 
L 227.316788 121.987189 
L 228.29934 121.488933 
L 228.689317 122.426302 
L 229.076422 121.506017 
L 229.508353 120.808792 
L 230.829799 122.152525 
L 232.250043 120.723145 
L 232.650499 121.186273 
L 233.023184 122.422486 
L 233.393362 121.405268 
L 233.989745 121.732102 
L 234.33819 123.444546 
L 234.682898 121.138741 
L 235.126904 122.478504 
L 236.152421 121.218625 
L 236.631677 121.937687 
L 237.129023 121.211716 
L 237.561805 120.571307 
L 238.818086 122.777091 
L 239.549176 120.545991 
L 239.916177 121.383066 
L 241.728797 122.489852 
L 242.603354 122.947457 
L 243.032415 120.139785 
L 244.292937 122.744137 
L 244.641261 122.330771 
L 245.047802 120.605712 
L 245.467978 121.411591 
L 246.921448 120.69251 
L 247.344372 123.026658 
L 247.732115 121.212735 
L 248.256715 121.582266 
L 249.005995 120.432484 
L 249.411714 122.154792 
L 249.845048 120.985322 
L 252.097223 121.972037 
L 252.510803 120.045766 
L 252.911939 121.313419 
L 253.746822 121.873337 
L 254.159254 120.044502 
L 254.547556 121.245395 
L 254.949445 122.127751 
L 255.356836 120.413818 
L 255.789038 121.82429 
L 258.385369 122.203712 
L 260.533613 120.978774 
L 262.389349 121.164235 
L 263.843494 121.156164 
L 265.498811 123.337918 
L 266.2866 120.411991 
L 266.669754 121.226124 
L 267.619711 121.764459 
L 267.979219 120.185523 
L 268.335478 123.259118 
L 268.695912 121.223641 
L 269.131508 120.292599 
L 269.903213 122.413972 
L 270.301874 120.467404 
L 271.100251 120.855209 
L 271.909533 121.068992 
L 273.518101 120.747585 
L 273.974448 120.855796 
L 274.744213 123.477206 
L 275.947123 120.713315 
L 276.382495 122.45455 
L 277.299009 122.117706 
L 277.752785 120.324239 
L 278.162479 120.542601 
L 278.572946 122.511049 
L 278.978198 121.890028 
L 280.220069 120.871771 
L 280.66332 122.127273 
L 281.025663 120.297704 
L 281.384279 121.483044 
L 281.79714 122.111034 
L 282.19662 121.094712 
L 283.100202 121.515485 
L 283.57896 120.348451 
L 284.01035 121.822283 
L 284.445141 122.410295 
L 284.852742 121.182553 
L 285.41685 121.822714 
L 285.869957 122.290375 
L 286.28301 121.487959 
L 287.274733 121.809152 
L 287.622192 119.828481 
L 287.965828 120.445084 
L 289.26998 121.514584 
L 291.981568 121.247072 
L 292.932677 122.141821 
L 294.169838 121.217362 
L 294.531034 122.701456 
L 294.927566 120.746244 
L 296.70687 121.341349 
L 297.562705 120.29449 
L 297.973202 120.746745 
L 298.840262 122.405664 
L 299.222942 121.202547 
L 299.664036 120.636194 
L 300.498377 122.635836 
L 301.286814 120.187479 
L 301.64709 121.436338 
L 302.085281 121.748502 
L 302.55567 120.729077 
L 303.884635 122.543201 
L 304.271331 120.640053 
L 305.065246 121.414208 
L 305.88588 122.214943 
L 307.711275 120.514776 
L 308.151557 121.012628 
L 308.498136 122.821332 
L 308.841809 120.830689 
L 310.931862 121.075075 
L 312.655719 121.172333 
L 313.950692 121.554373 
L 315.22306 122.790878 
L 315.629662 121.091013 
L 316.096998 122.315793 
L 316.959139 121.536616 
L 318.19321 120.016269 
L 319.005992 122.574951 
L 319.394785 122.173725 
L 320.565021 120.234525 
L 320.972211 122.474271 
L 321.754566 121.927805 
L 323.259723 120.265234 
L 323.62085 122.017003 
L 324.069714 121.852903 
L 325.354609 120.912861 
L 325.821187 121.772197 
L 327.186839 120.567088 
L 328.447107 121.706757 
L 329.261949 122.054275 
L 329.618267 120.035178 
L 330.347734 123.193226 
L 331.120318 122.328591 
L 332.847268 121.03606 
L 336.189333 122.18692 
L 336.59225 120.718238 
L 336.973349 121.371871 
L 337.358306 122.497205 
L 337.761514 121.923847 
L 338.897026 119.805028 
L 339.68745 122.906674 
L 340.039046 122.367134 
L 341.894675 121.049323 
L 342.28836 119.964341 
L 342.647535 121.897414 
L 343.520139 120.271296 
L 343.915877 121.117137 
L 344.426301 121.65811 
L 344.81005 121.264577 
L 345.204133 119.868602 
L 346.011997 122.822628 
L 346.392526 121.597477 
L 347.585215 122.374014 
L 347.597492 17.88527 
L 347.597948 175.634939 
L 348.421289 124.138426 
L 348.772512 123.868967 
L 349.532402 125.027807 
L 350.34851 122.732504 
L 350.723557 123.94879 
L 351.910063 122.582232 
L 352.284299 123.743489 
L 352.654281 123.577272 
L 353.04538 121.324846 
L 353.503796 123.019053 
L 354.755095 122.966584 
L 355.664595 121.80982 
L 356.019439 123.686241 
L 356.369497 122.297937 
L 356.842804 122.075241 
L 357.204611 123.587365 
L 357.95535 122.467765 
L 358.883104 122.941084 
L 359.882088 122.133397 
L 360.225523 124.116362 
L 360.564401 121.782459 
L 362.699779 122.681315 
L 363.0951 123.855545 
L 363.457399 122.79901 
L 364.312841 121.175318 
L 364.706975 123.466473 
L 365.516046 122.729223 
L 367.044515 121.276674 
L 368.460106 122.221963 
L 369.746476 120.340096 
L 370.10293 123.755264 
L 370.940452 122.158679 
L 372.266665 121.659658 
L 373.770049 122.32503 
L 374.698573 121.033341 
L 376.974975 122.463956 
L 377.396314 122.330341 
L 377.858943 121.053187 
L 378.31847 121.908059 
L 378.682114 123.072431 
L 379.042709 121.355418 
L 379.50948 121.307116 
L 379.970105 122.616253 
L 380.404156 121.990738 
L 381.588634 121.589089 
L 381.977678 122.511249 
L 382.364223 121.366722 
L 384.662278 121.788246 
L 385.038839 120.501245 
L 385.412567 121.521278 
L 386.278444 121.775241 
L 387.174616 119.929431 
L 388.315231 123.660483 
L 388.644791 120.073448 
L 389.323201 120.786756 
L 389.710247 122.184368 
L 390.150688 121.451084 
L 393.291276 121.362024 
L 394.902083 121.049196 
L 395.347172 120.027389 
L 395.748557 122.45493 
L 396.158837 121.448511 
L 396.648004 121.021417 
L 397.100619 122.562371 
L 397.527156 122.015728 
L 399.732254 119.45209 
L 400.075761 120.782472 
L 400.420682 122.567914 
L 400.762872 122.185568 
L 401.167026 119.720399 
L 401.548105 121.4755 
L 402.049204 120.815948 
L 403.143398 122.628262 
L 404.364626 120.539471 
L 405.976472 123.088422 
L 406.35107 120.741693 
L 407.208303 120.95542 
L 408.258979 121.31595 
L 408.672497 120.704702 
L 409.083636 121.60811 
L 410.101856 121.553139 
L 410.890311 120.551733 
L 411.308968 120.914981 
L 411.790998 122.02419 
L 412.241269 121.261658 
L 413.310699 121.168073 
L 413.723767 120.175622 
L 414.096886 121.689162 
L 416.545532 121.212833 
L 417.001848 120.69354 
L 418.307526 122.298872 
L 418.749525 120.480931 
L 419.170043 122.358716 
L 419.618387 121.712424 
L 420.003123 122.653644 
L 421.230405 122.640184 
L 421.87421 119.271086 
L 422.212712 121.717421 
L 423.894764 120.704768 
L 424.348404 121.985111 
L 424.791251 120.718359 
L 425.649041 121.466817 
L 426.495056 121.88378 
L 427.363204 120.048948 
L 427.734016 122.086295 
L 428.156346 120.174813 
L 428.585729 119.701632 
L 429.754849 122.904703 
L 430.898162 120.910221 
L 431.332913 121.244195 
L 432.019795 123.34931 
L 432.382743 122.375537 
L 435.382006 120.497051 
L 435.783637 122.329985 
L 436.202783 120.980166 
L 436.690155 121.466431 
L 437.197595 120.726643 
L 440.07699 121.708707 
L 440.443669 122.818066 
L 441.240322 122.060806 
L 442.080371 121.481963 
L 442.418044 123.667408 
L 442.75246 119.149947 
L 443.484906 120.893203 
L 445.607019 120.897224 
L 445.958644 119.750778 
L 446.327074 121.356804 
L 446.743261 122.192697 
L 447.121689 121.597719 
L 447.554271 120.776907 
L 447.949914 121.331136 
L 448.685896 124.465999 
L 449.028955 120.4435 
L 449.817251 122.744689 
L 450.172573 120.775809 
L 450.970557 121.548793 
L 451.41937 121.639827 
L 451.882338 120.363936 
L 452.306162 121.637499 
L 453.097278 122.915894 
L 454.431417 120.949092 
L 456.133849 121.002044 
L 456.609138 120.530977 
L 457.874691 121.598162 
L 458.255409 120.518477 
L 458.633866 121.804563 
L 460.451696 121.376221 
L 461.804551 121.45675 
L 462.139832 123.762165 
L 462.471758 122.829414 
L 464.104238 120.100723 
L 464.825925 123.603832 
L 465.152255 118.972031 
L 465.863813 121.634274 
L 469.215139 120.995929 
L 469.568054 122.903027 
L 469.91709 119.837757 
L 470.271067 122.019842 
L 470.682299 123.182831 
L 471.056278 121.516341 
L 471.993089 122.43511 
L 472.865149 120.822413 
L 473.27417 121.193488 
L 473.615382 121.995822 
L 473.96666 120.626349 
L 475.734989 121.512828 
L 476.078805 119.602635 
L 476.419278 123.173876 
L 476.759537 120.642696 
L 477.960905 122.929816 
L 478.741593 120.410339 
L 479.130422 121.822919 
L 479.525256 120.585355 
L 479.967731 120.876114 
L 481.305994 122.984315 
L 481.662299 121.560836 
L 482.063495 121.355034 
L 482.479416 122.809882 
L 483.344186 122.465561 
L 484.571189 119.913496 
L 484.952292 120.658973 
L 486.699426 122.008823 
L 487.088813 121.246209 
L 487.622873 121.854731 
L 488.499884 122.785761 
L 489.338132 120.889265 
L 489.757064 122.674598 
L 490.171592 122.03804 
L 491.860651 120.625709 
L 492.232805 121.562797 
L 492.606564 121.136024 
L 492.991098 120.293668 
L 493.372983 121.925306 
L 494.190648 121.342707 
L 495.017009 122.881677 
L 495.413301 120.091877 
L 496.177895 120.87793 
L 497.470754 121.481987 
L 497.869372 121.250973 
L 498.272886 121.998564 
L 498.680645 122.86108 
L 499.976882 120.211543 
L 501.28029 122.303279 
L 502.166927 120.723284 
L 503.456744 122.010464 
L 504.625833 120.513539 
L 505.89774 122.261369 
L 506.718382 120.023166 
L 507.080741 121.570679 
L 507.860624 122.208658 
L 508.232593 120.887073 
L 508.672626 122.431318 
L 510.056137 121.150343 
L 510.389299 119.101093 
L 510.718811 121.993893 
L 511.097367 121.149327 
L 511.57271 122.204796 
L 512.941096 122.095055 
L 513.276279 119.60643 
L 514.072769 120.108193 
L 514.879378 122.922056 
L 515.237977 121.45642 
L 517.481613 120.906528 
L 517.861145 122.088669 
L 518.693168 121.578537 
L 519.550646 121.027968 
L 520.787893 122.797579 
L 521.631041 121.229524 
L 522.104456 121.802033 
L 522.45863 122.078988 
L 522.831348 120.872027 
L 523.268199 122.039379 
L 525.564744 120.530371 
L 525.939811 121.884822 
L 526.405821 122.15238 
L 527.245474 120.328377 
L 528.011909 122.903529 
L 528.370489 120.695901 
L 529.219974 121.533625 
L 530.452065 120.558596 
L 532.520395 122.304704 
L 532.889055 120.286262 
L 533.644336 121.421531 
L 534.54018 120.320334 
L 534.926585 120.9699 
L 535.733418 122.827881 
L 536.121021 120.879086 
L 537.014869 121.226527 
L 537.53965 121.426657 
L 537.821946 120.685492 
" clip-path="url(#p8ce2f6e75f)" style="fill: none; stroke: #e41a1c; stroke-width: 2; stroke-linecap: square"/>
   </g>
   <g id="line2d_28">
    <path d="M 62.260866 121.472275 
L 62.308423 120.683295 
L 63.120947 122.498847 
L 64.241885 121.340384 
L 64.519689 122.210723 
L 65.147737 121.516414 
L 65.920584 121.575963 
L 67.161038 122.141608 
L 76.335973 121.592536 
L 77.049458 122.087079 
L 77.47918 121.669214 
L 81.300365 121.299497 
L 95.706767 121.141794 
L 96.081187 120.813367 
L 96.44103 121.270162 
L 97.373313 121.75754 
L 98.088214 121.003795 
L 98.421852 121.51075 
L 99.646329 121.770328 
L 100.428501 121.216379 
L 100.209087 122.483584 
L 100.663235 121.646763 
L 101.697731 121.845874 
L 102.804072 120.90945 
L 103.379844 121.583193 
L 106.852912 120.932721 
L 107.157955 121.844127 
L 107.78955 121.276163 
L 110.900437 122.013433 
L 112.357216 121.551488 
L 113.078118 121.824788 
L 113.472468 121.466555 
L 116.980508 120.707964 
L 118.966358 121.291904 
L 122.141344 121.8596 
L 127.413576 121.666023 
L 128.93105 121.897538 
L 130.36907 120.858997 
L 131.316421 121.658385 
L 133.120448 121.586542 
L 138.034237 121.48134 
L 138.382713 122.040886 
L 138.707424 121.832342 
L 139.020182 121.004557 
L 139.59454 121.832593 
L 144.945558 120.913269 
L 146.231694 121.474228 
L 151.248372 120.805984 
L 151.507845 121.771089 
L 152.342979 121.168637 
L 153.307928 121.13744 
L 153.662058 121.618514 
L 154.252203 120.795039 
L 155.76948 120.933135 
L 157.157381 121.264477 
L 157.241949 121.004653 
L 157.284325 121.862226 
L 157.371682 121.653247 
L 157.373673 148.155102 
L 157.37299 108.930056 
L 158.263202 118.214065 
L 159.767045 115.345559 
L 162.618071 110.887833 
L 162.872815 111.340669 
L 165.223045 108.867086 
L 165.555001 109.242462 
L 165.985741 108.632346 
L 168.013294 106.078677 
L 168.336234 106.771948 
L 168.680779 105.613472 
L 171.405221 103.065394 
L 172.333957 103.283822 
L 174.817895 101.227631 
L 175.718843 101.091872 
L 178.457413 99.028176 
L 180.488505 99.322229 
L 181.639722 97.576707 
L 182.604635 97.461168 
L 184.433479 97.177857 
L 186.440187 96.514458 
L 188.411999 96.263527 
L 188.87687 95.295596 
L 189.302355 95.822403 
L 194.492852 95.823165 
L 195.688639 95.784419 
L 196.94532 95.55424 
L 203.243615 95.71646 
L 207.001133 95.190205 
L 208.214159 95.755186 
L 213.248449 95.97789 
L 214.496035 97.010719 
L 217.974054 96.616636 
L 219.871682 97.056205 
L 221.570978 97.119419 
L 223.088037 97.495238 
L 225.034534 97.202641 
L 225.423362 97.671826 
L 225.808379 97.17588 
L 226.921046 96.56584 
L 228.29934 97.046298 
L 229.901826 97.402395 
L 233.989745 97.443546 
L 235.126904 98.035861 
L 237.129023 97.642003 
L 238.45294 97.574236 
L 239.180052 97.872501 
L 239.549176 97.454001 
L 242.603354 98.506169 
L 243.941125 97.621951 
L 244.641261 98.292756 
L 245.047802 97.733244 
L 246.460508 97.695685 
L 247.732115 97.802167 
L 251.212201 97.829668 
L 253.337425 97.512221 
L 254.949445 97.537999 
L 255.356836 96.945925 
L 255.789038 97.347208 
L 259.64027 97.874187 
L 264.712242 97.641223 
L 265.876548 98.104476 
L 267.147131 98.07435 
L 272.656721 97.341272 
L 274.375782 97.482017 
L 275.505718 97.855725 
L 275.947123 97.303392 
L 276.382495 97.899479 
L 291.981568 97.431762 
L 294.531034 98.221165 
L 295.82048 97.933067 
L 312.655719 97.208062 
L 314.388682 97.370994 
L 316.528105 98.167064 
L 319.769368 97.828799 
L 321.362112 98.331452 
L 334.856872 97.431173 
L 336.189333 97.997462 
L 336.973349 97.663223 
L 337.358306 98.094482 
L 345.589914 97.50186 
L 347.585215 98.102328 
L 347.597492 72.60555 
L 347.597948 111.097723 
L 348.421289 99.458938 
L 356.369497 104.327407 
L 357.95535 105.162675 
L 360.225523 106.703675 
L 360.564401 106.173336 
L 362.699779 107.367826 
L 363.890837 107.851723 
L 364.312841 107.602115 
L 364.706975 108.470834 
L 367.580544 108.669253 
L 369.387282 109.036606 
L 369.746476 108.444786 
L 370.10293 109.595168 
L 370.444912 109.104594 
L 373.770049 109.933704 
L 375.141898 109.585836 
L 390.678761 110.909289 
L 392.294204 110.82723 
L 396.648004 110.393382 
L 397.976863 110.877658 
L 400.075761 110.122012 
L 400.762872 110.708412 
L 402.049204 109.956268 
L 403.143398 110.715957 
L 404.364626 109.833715 
L 405.976472 110.876491 
L 407.208303 110.14058 
L 410.101856 110.212549 
L 411.790998 110.066938 
L 415.032938 109.418841 
L 420.003123 110.157248 
L 421.230405 110.740655 
L 421.87421 109.432519 
L 422.212712 110.063515 
L 428.156346 108.712169 
L 429.395983 108.809295 
L 429.754849 109.358105 
L 430.504707 108.828685 
L 431.678197 109.452277 
L 433.298451 109.787729 
L 436.690155 109.764136 
L 439.1187 109.138485 
L 442.080371 109.581931 
L 442.418044 110.409436 
L 442.75246 109.003162 
L 443.070662 109.433751 
L 446.743261 109.184719 
L 448.319279 109.304076 
L 448.685896 110.201778 
L 449.385384 109.557276 
L 450.529077 109.608603 
L 537.821946 109.20464 
L 537.821946 109.20464 
" clip-path="url(#p8ce2f6e75f)" style="fill: none; stroke: #377eb8; stroke-width: 2; stroke-linecap: square"/>
   </g>
   <g id="patch_3">
    <path d="M 38.482813 242.275937 
L 38.482813 7.2 
" style="fill: none; stroke: #7f7f7f; stroke-width: 1.8; stroke-linejoin: miter; stroke-linecap: square"/>
   </g>
   <g id="patch_4">
    <path d="M 38.482813 242.275937 
L 561.6 242.275937 
" style="fill: none; stroke: #7f7f7f; stroke-width: 1.8; stroke-linejoin: miter; stroke-linecap: square"/>
   </g>
   <g id="legend_1">
    <g id="line2d_29">
     <path d="M 499.584375 20.298438 
L 509.584375 20.298438 
L 519.584375 20.298438 
" style="fill: none; stroke: #e41a1c; stroke-width: 2; stroke-linecap: square"/>
    </g>
    <g id="text_15">
     <!-- err 2 -->
     <g style="fill: #7f7f7f" transform="translate(527.584375 23.798438) scale(0.1 -0.1)">
      <defs>
       <path id="DejaVuSans-72" d="M 2631 2963 
Q 2534 3019 2420 3045 
Q 2306 3072 2169 3072 
Q 1681 3072 1420 2755 
Q 1159 2438 1159 1844 
L 1159 0 
L 581 0 
L 581 3500 
L 1159 3500 
L 1159 2956 
Q 1341 3275 1631 3429 
Q 1922 3584 2338 3584 
Q 2397 3584 2469 3576 
Q 2541 3569 2628 3553 
L 2631 2963 
z
" transform="scale(0.015625)"/>
      </defs>
      <use xlink:href="#DejaVuSans-65"/>
      <use xlink:href="#DejaVuSans-72" transform="translate(61.523438 0)"/>
      <use xlink:href="#DejaVuSans-72" transform="translate(100.886719 0)"/>
      <use xlink:href="#DejaVuSans-20" transform="translate(142 0)"/>
      <use xlink:href="#DejaVuSans-32" transform="translate(173.787109 0)"/>
     </g>
    </g>
    <g id="line2d_30">
     <path d="M 499.584375 34.976563 
L 509.584375 34.976563 
L 519.584375 34.976563 
" style="fill: none; stroke: #377eb8; stroke-width: 2; stroke-linecap: square"/>
    </g>
    <g id="text_16">
     <!-- pid 2 -->
     <g style="fill: #7f7f7f" transform="translate(527.584375 38.476563) scale(0.1 -0.1)">
      <defs>
       <path id="DejaVuSans-70" d="M 1159 525 
L 1159 -1331 
L 581 -1331 
L 581 3500 
L 1159 3500 
L 1159 2969 
Q 1341 3281 1617 3432 
Q 1894 3584 2278 3584 
Q 2916 3584 3314 3078 
Q 3713 2572 3713 1747 
Q 3713 922 3314 415 
Q 2916 -91 2278 -91 
Q 1894 -91 1617 61 
Q 1341 213 1159 525 
z
M 3116 1747 
Q 3116 2381 2855 2742 
Q 2594 3103 2138 3103 
Q 1681 3103 1420 2742 
Q 1159 2381 1159 1747 
Q 1159 1113 1420 752 
Q 1681 391 2138 391 
Q 2594 391 2855 752 
Q 3116 1113 3116 1747 
z
" transform="scale(0.015625)"/>
       <path id="DejaVuSans-64" d="M 2906 2969 
L 2906 4863 
L 3481 4863 
L 3481 0 
L 2906 0 
L 2906 525 
Q 2725 213 2448 61 
Q 2172 -91 1784 -91 
Q 1150 -91 751 415 
Q 353 922 353 1747 
Q 353 2572 751 3078 
Q 1150 3584 1784 3584 
Q 2172 3584 2448 3432 
Q 2725 3281 2906 2969 
z
M 947 1747 
Q 947 1113 1208 752 
Q 1469 391 1925 391 
Q 2381 391 2643 752 
Q 2906 1113 2906 1747 
Q 2906 2381 2643 2742 
Q 2381 3103 1925 3103 
Q 1469 3103 1208 2742 
Q 947 2381 947 1747 
z
" transform="scale(0.015625)"/>
      </defs>
      <use xlink:href="#DejaVuSans-70"/>
      <use xlink:href="#DejaVuSans-69" transform="translate(63.476562 0)"/>
      <use xlink:href="#DejaVuSans-64" transform="translate(91.259766 0)"/>
      <use xlink:href="#DejaVuSans-20" transform="translate(154.736328 0)"/>
      <use xlink:href="#DejaVuSans-32" transform="translate(186.523438 0)"/>
     </g>
    </g>
   </g>
  </g>
 </g>
 <defs>
  <clipPath id="p8ce2f6e75f">
   <rect x="38.482813" y="7.2" width="523.117187" height="235.075937"/>
  </clipPath>
 </defs>
</svg>
