<?xml version="1.0" encoding="utf-8" standalone="no"?>
<!DOCTYPE svg PUBLIC "-//W3C//DTD SVG 1.1//EN"
  "http://www.w3.org/Graphics/SVG/1.1/DTD/svg11.dtd">
<svg xmlns:xlink="http://www.w3.org/1999/xlink" width="568.8pt" height="280.8pt" viewBox="0 0 568.8 280.8" xmlns="http://www.w3.org/2000/svg" version="1.1">
 <metadata>
  <rdf:RDF xmlns:dc="http://purl.org/dc/elements/1.1/" xmlns:cc="http://creativecommons.org/ns#" xmlns:rdf="http://www.w3.org/1999/02/22-rdf-syntax-ns#">
   <cc:Work>
    <dc:type rdf:resource="http://purl.org/dc/dcmitype/StillImage"/>
    <dc:date>2026-07-07T09:42:45.769710</dc:date>
    <dc:format>image/svg+xml</dc:format>
    <dc:creator>
     <cc:Agent>
      <dc:title>Matplotlib v3.11.0, https://matplotlib.org/</dc:title>
     </cc:Agent>
    </dc:creator>
   </cc:Work>
  </rdf:RDF>
 </metadata>
 <defs>
  <style type="text/css">*{stroke-linejoin: round; stroke-linecap: butt}</style>
 </defs>
 <g id="figure_1">
  <g id="patch_1">
   <path d="M 0 280.8 
L 568.8 280.8 
L 568.8 0 
L 0 0 
L 0 280.8 
z
" style="fill: none"/>
  </g>
  <g id="axes_1">
   <g id="patch_2">
    <path d="M 38.482813 241.599141 
L 561.6 241.599141 
L 561.6 7.2 
L 38.482813 7.2 
L 38.482813 241.599141 
z
" style="fill: none"/>
   </g>
   <g id="matplotlib.axis_1">
    <g id="xtick_1">
     <g id="line2d_1">
      <path d="M 62.260866 241.599141 
L 62.260866 7.2 
" clip-path="url(#p0e75bf8439)" style="fill: none; stroke-dasharray: 2.96,1.28; stroke-dashoffset: 0; stroke: #7f7f7f; stroke-opacity: 0.6; stroke-width: 0.8"/>
     </g>
     <g id="line2d_2">
      <defs>
       <path id="med8b5a4911" d="M 0 0 
L 0 3.5 
" style="stroke: #7f7f7f; stroke-width: 1.8"/>
      </defs>
      <g>
       <use xlink:href="#med8b5a4911" x="62.260866" y="241.599141" style="fill: #7f7f7f; stroke: #7f7f7f; stroke-width: 1.8"/>
      </g>
     </g>
     <g id="text_1">
      <!-- 0 -->
      <g style="fill: #7f7f7f" transform="translate(59.079616 256.196797) scale(0.1 -0.1)">
       <defs>
        <path id="DejaVuSans-13" d="M 2034 4250 
Q 1547 4250 1301 3770 
Q 1056 3291 1056 2328 
Q 1056 1369 1301 889 
Q 1547 409 2034 409 
Q 2525 409 2770 889 
Q 3016 1369 3016 2328 
Q 3016 3291 2770 3770 
Q 2525 4250 2034 4250 
z
M 2034 4750 
Q 2819 4750 3233 4129 
Q 3647 3509 3647 2328 
Q 3647 1150 3233 529 
Q 2819 -91 2034 -91 
Q 1250 -91 836 529 
Q 422 1150 422 2328 
Q 422 3509 836 4129 
Q 1250 4750 2034 4750 
z
" transform="scale(0.015625)"/>
       </defs>
       <use xlink:href="#DejaVuSans-13"/>
      </g>
     </g>
    </g>
    <g id="xtick_2">
     <g id="line2d_3">
      <path d="M 157.373082 241.599141 
L 157.373082 7.2 
" clip-path="url(#p0e75bf8439)" style="fill: none; stroke-dasharray: 2.96,1.28; stroke-dashoffset: 0; stroke: #7f7f7f; stroke-opacity: 0.6; stroke-width: 0.8"/>
     </g>
     <g id="line2d_4">
      <g>
       <use xlink:href="#med8b5a4911" x="157.373082" y="241.599141" style="fill: #7f7f7f; stroke: #7f7f7f; stroke-width: 1.8"/>
      </g>
     </g>
     <g id="text_2">
      <!-- 20 -->
      <g style="fill: #7f7f7f" transform="translate(151.010582 256.196797) scale(0.1 -0.1)">
       <defs>
        <path id="DejaVuSans-15" d="M 1228 531 
L 3431 531 
L 3431 0 
L 469 0 
L 469 531 
Q 828 903 1448 1529 
Q 2069 2156 2228 2338 
Q 2531 2678 2651 2914 
Q 2772 3150 2772 3378 
Q 2772 3750 2511 3984 
Q 2250 4219 1831 4219 
Q 1534 4219 1204 4116 
Q 875 4013 500 3803 
L 500 4441 
Q 881 4594 1212 4672 
Q 1544 4750 1819 4750 
Q 2544 4750 2975 4387 
Q 3406 4025 3406 3419 
Q 3406 3131 3298 2873 
Q 3191 2616 2906 2266 
Q 2828 2175 2409 1742 
Q 1991 1309 1228 531 
z
" transform="scale(0.015625)"/>
       </defs>
       <use xlink:href="#DejaVuSans-15"/>
       <use xlink:href="#DejaVuSans-13" transform="translate(63.625 0)"/>
      </g>
     </g>
    </g>
    <g id="xtick_3">
     <g id="line2d_5">
      <path d="M 252.485298 241.599141 
L 252.485298 7.2 
" clip-path="url(#p0e75bf8439)" style="fill: none; stroke-dasharray: 2.96,1.28; stroke-dashoffset: 0; stroke: #7f7f7f; stroke-opacity: 0.6; stroke-width: 0.8"/>
     </g>
     <g id="line2d_6">
      <g>
       <use xlink:href="#med8b5a4911" x="252.485298" y="241.599141" style="fill: #7f7f7f; stroke: #7f7f7f; stroke-width: 1.8"/>
      </g>
     </g>
     <g id="text_3">
      <!-- 40 -->
      <g style="fill: #7f7f7f" transform="translate(246.122798 256.196797) scale(0.1 -0.1)">
       <defs>
        <path id="DejaVuSans-17" d="M 2419 4116 
L 825 1625 
L 2419 1625 
L 2419 4116 
z
M 2253 4666 
L 3047 4666 
L 3047 1625 
L 3713 1625 
L 3713 1100 
L 3047 1100 
L 3047 0 
L 2419 0 
L 2419 1100 
L 313 1100 
L 313 1709 
L 2253 4666 
z
" transform="scale(0.015625)"/>
       </defs>
       <use xlink:href="#DejaVuSans-17"/>
       <use xlink:href="#DejaVuSans-13" transform="translate(63.625 0)"/>
      </g>
     </g>
    </g>
    <g id="xtick_4">
     <g id="line2d_7">
      <path d="M 347.597514 241.599141 
L 347.597514 7.2 
" clip-path="url(#p0e75bf8439)" style="fill: none; stroke-dasharray: 2.96,1.28; stroke-dashoffset: 0; stroke: #7f7f7f; stroke-opacity: 0.6; stroke-width: 0.8"/>
     </g>
     <g id="line2d_8">
      <g>
       <use xlink:href="#med8b5a4911" x="347.597514" y="241.599141" style="fill: #7f7f7f; stroke: #7f7f7f; stroke-width: 1.8"/>
      </g>
     </g>
     <g id="text_4">
      <!-- 60 -->
      <g style="fill: #7f7f7f" transform="translate(341.235014 256.196797) scale(0.1 -0.1)">
       <defs>
        <path id="DejaVuSans-19" d="M 2113 2584 
Q 1688 2584 1439 2293 
Q 1191 2003 1191 1497 
Q 1191 994 1439 701 
Q 1688 409 2113 409 
Q 2538 409 2786 701 
Q 3034 994 3034 1497 
Q 3034 2003 2786 2293 
Q 2538 2584 2113 2584 
z
M 3366 4563 
L 3366 3988 
Q 3128 4100 2886 4159 
Q 2644 4219 2406 4219 
Q 1781 4219 1451 3797 
Q 1122 3375 1075 2522 
Q 1259 2794 1537 2939 
Q 1816 3084 2150 3084 
Q 2853 3084 3261 2657 
Q 3669 2231 3669 1497 
Q 3669 778 3244 343 
Q 2819 -91 2113 -91 
Q 1303 -91 875 529 
Q 447 1150 447 2328 
Q 447 3434 972 4092 
Q 1497 4750 2381 4750 
Q 2619 4750 2861 4703 
Q 3103 4656 3366 4563 
z
" transform="scale(0.015625)"/>
       </defs>
       <use xlink:href="#DejaVuSans-19"/>
       <use xlink:href="#DejaVuSans-13" transform="translate(63.625 0)"/>
      </g>
     </g>
    </g>
    <g id="xtick_5">
     <g id="line2d_9">
      <path d="M 442.70973 241.599141 
L 442.70973 7.2 
" clip-path="url(#p0e75bf8439)" style="fill: none; stroke-dasharray: 2.96,1.28; stroke-dashoffset: 0; stroke: #7f7f7f; stroke-opacity: 0.6; stroke-width: 0.8"/>
     </g>
     <g id="line2d_10">
      <g>
       <use xlink:href="#med8b5a4911" x="442.70973" y="241.599141" style="fill: #7f7f7f; stroke: #7f7f7f; stroke-width: 1.8"/>
      </g>
     </g>
     <g id="text_5">
      <!-- 80 -->
      <g style="fill: #7f7f7f" transform="translate(436.34723 256.196797) scale(0.1 -0.1)">
       <defs>
        <path id="DejaVuSans-1b" d="M 2034 2216 
Q 1584 2216 1326 1975 
Q 1069 1734 1069 1313 
Q 1069 891 1326 650 
Q 1584 409 2034 409 
Q 2484 409 2743 651 
Q 3003 894 3003 1313 
Q 3003 1734 2745 1975 
Q 2488 2216 2034 2216 
z
M 1403 2484 
Q 997 2584 770 2862 
Q 544 3141 544 3541 
Q 544 4100 942 4425 
Q 1341 4750 2034 4750 
Q 2731 4750 3128 4425 
Q 3525 4100 3525 3541 
Q 3525 3141 3298 2862 
Q 3072 2584 2669 2484 
Q 3125 2378 3379 2068 
Q 3634 1759 3634 1313 
Q 3634 634 3220 271 
Q 2806 -91 2034 -91 
Q 1263 -91 848 271 
Q 434 634 434 1313 
Q 434 1759 690 2068 
Q 947 2378 1403 2484 
z
M 1172 3481 
Q 1172 3119 1398 2916 
Q 1625 2713 2034 2713 
Q 2441 2713 2670 2916 
Q 2900 3119 2900 3481 
Q 2900 3844 2670 4047 
Q 2441 4250 2034 4250 
Q 1625 4250 1398 4047 
Q 1172 3844 1172 3481 
z
" transform="scale(0.015625)"/>
       </defs>
       <use xlink:href="#DejaVuSans-1b"/>
       <use xlink:href="#DejaVuSans-13" transform="translate(63.625 0)"/>
      </g>
     </g>
    </g>
    <g id="xtick_6">
     <g id="line2d_11">
      <path d="M 537.821946 241.599141 
L 537.821946 7.2 
" clip-path="url(#p0e75bf8439)" style="fill: none; stroke-dasharray: 2.96,1.28; stroke-dashoffset: 0; stroke: #7f7f7f; stroke-opacity: 0.6; stroke-width: 0.8"/>
     </g>
     <g id="line2d_12">
      <g>
       <use xlink:href="#med8b5a4911" x="537.821946" y="241.599141" style="fill: #7f7f7f; stroke: #7f7f7f; stroke-width: 1.8"/>
      </g>
     </g>
     <g id="text_6">
      <!-- 100 -->
      <g style="fill: #7f7f7f" transform="translate(528.278196 256.196797) scale(0.1 -0.1)">
       <defs>
        <path id="DejaVuSans-14" d="M 794 531 
L 1825 531 
L 1825 4091 
L 703 3866 
L 703 4441 
L 1819 4666 
L 2450 4666 
L 2450 531 
L 3481 531 
L 3481 0 
L 794 0 
L 794 531 
z
" transform="scale(0.015625)"/>
       </defs>
       <use xlink:href="#DejaVuSans-14"/>
       <use xlink:href="#DejaVuSans-13" transform="translate(63.625 0)"/>
       <use xlink:href="#DejaVuSans-13" transform="translate(127.25 0)"/>
      </g>
     </g>
    </g>
    <g id="text_7">
     <!-- time [s] -->
     <g style="fill: #7f7f7f" transform="translate(278.710859 270.957422) scale(0.11 -0.11)">
      <defs>
       <path id="DejaVuSans-57" d="M 1172 4494 
L 1172 3500 
L 2356 3500 
L 2356 3053 
L 1172 3053 
L 1172 1153 
Q 1172 725 1289 603 
Q 1406 481 1766 481 
L 2356 481 
L 2356 0 
L 1766 0 
Q 1100 0 847 248 
Q 594 497 594 1153 
L 594 3053 
L 172 3053 
L 172 3500 
L 594 3500 
L 594 4494 
L 1172 4494 
z
" transform="scale(0.015625)"/>
       <path id="DejaVuSans-4c" d="M 603 3500 
L 1178 3500 
L 1178 0 
L 603 0 
L 603 3500 
z
M 603 4863 
L 1178 4863 
L 1178 4134 
L 603 4134 
L 603 4863 
z
" transform="scale(0.015625)"/>
       <path id="DejaVuSans-50" d="M 3328 2828 
Q 3544 3216 3844 3400 
Q 4144 3584 4550 3584 
Q 5097 3584 5394 3201 
Q 5691 2819 5691 2113 
L 5691 0 
L 5113 0 
L 5113 2094 
Q 5113 2597 4934 2840 
Q 4756 3084 4391 3084 
Q 3944 3084 3684 2787 
Q 3425 2491 3425 1978 
L 3425 0 
L 2847 0 
L 2847 2094 
Q 2847 2600 2669 2842 
Q 2491 3084 2119 3084 
Q 1678 3084 1418 2786 
Q 1159 2488 1159 1978 
L 1159 0 
L 581 0 
L 581 3500 
L 1159 3500 
L 1159 2956 
Q 1356 3278 1631 3431 
Q 1906 3584 2284 3584 
Q 2666 3584 2933 3390 
Q 3200 3197 3328 2828 
z
" transform="scale(0.015625)"/>
       <path id="DejaVuSans-48" d="M 3597 1894 
L 3597 1613 
L 953 1613 
Q 991 1019 1311 708 
Q 1631 397 2203 397 
Q 2534 397 2845 478 
Q 3156 559 3463 722 
L 3463 178 
Q 3153 47 2828 -22 
Q 2503 -91 2169 -91 
Q 1331 -91 842 396 
Q 353 884 353 1716 
Q 353 2575 817 3079 
Q 1281 3584 2069 3584 
Q 2775 3584 3186 3129 
Q 3597 2675 3597 1894 
z
M 3022 2063 
Q 3016 2534 2758 2815 
Q 2500 3097 2075 3097 
Q 1594 3097 1305 2825 
Q 1016 2553 972 2059 
L 3022 2063 
z
" transform="scale(0.015625)"/>
       <path id="DejaVuSans-3" transform="scale(0.015625)"/>
       <path id="DejaVuSans-3e" d="M 550 4863 
L 1875 4863 
L 1875 4416 
L 1125 4416 
L 1125 -397 
L 1875 -397 
L 1875 -844 
L 550 -844 
L 550 4863 
z
" transform="scale(0.015625)"/>
       <path id="DejaVuSans-56" d="M 2834 3397 
L 2834 2853 
Q 2591 2978 2328 3040 
Q 2066 3103 1784 3103 
Q 1356 3103 1142 2972 
Q 928 2841 928 2578 
Q 928 2378 1081 2264 
Q 1234 2150 1697 2047 
L 1894 2003 
Q 2506 1872 2764 1633 
Q 3022 1394 3022 966 
Q 3022 478 2636 193 
Q 2250 -91 1575 -91 
Q 1294 -91 989 -36 
Q 684 19 347 128 
L 347 722 
Q 666 556 975 473 
Q 1284 391 1588 391 
Q 1994 391 2212 530 
Q 2431 669 2431 922 
Q 2431 1156 2273 1281 
Q 2116 1406 1581 1522 
L 1381 1569 
Q 847 1681 609 1914 
Q 372 2147 372 2553 
Q 372 3047 722 3315 
Q 1072 3584 1716 3584 
Q 2034 3584 2315 3537 
Q 2597 3491 2834 3397 
z
" transform="scale(0.015625)"/>
       <path id="DejaVuSans-40" d="M 1947 4863 
L 1947 -844 
L 622 -844 
L 622 -397 
L 1369 -397 
L 1369 4416 
L 622 4416 
L 622 4863 
L 1947 4863 
z
" transform="scale(0.015625)"/>
      </defs>
      <use xlink:href="#DejaVuSans-57"/>
      <use xlink:href="#DejaVuSans-4c" transform="translate(39.203125 0)"/>
      <use xlink:href="#DejaVuSans-50" transform="translate(66.984375 0)"/>
      <use xlink:href="#DejaVuSans-48" transform="translate(164.390625 0)"/>
      <use xlink:href="#DejaVuSans-3" transform="translate(225.921875 0)"/>
      <use xlink:href="#DejaVuSans-3e" transform="translate(257.703125 0)"/>
      <use xlink:href="#DejaVuSans-56" transform="translate(296.71875 0)"/>
      <use xlink:href="#DejaVuSans-40" transform="translate(348.8125 0)"/>
     </g>
    </g>
   </g>
   <g id="matplotlib.axis_2">
    <g id="ytick_1">
     <g id="line2d_13">
      <path d="M 38.482813 237.211676 
L 561.6 237.211676 
" clip-path="url(#p0e75bf8439)" style="fill: none; stroke-dasharray: 2.96,1.28; stroke-dashoffset: 0; stroke: #7f7f7f; stroke-opacity: 0.6; stroke-width: 0.8"/>
     </g>
     <g id="line2d_14">
      <defs>
       <path id="m825bef0fde" d="M 0 0 
L -3.5 0 
" style="stroke: #7f7f7f; stroke-width: 1.8"/>
      </defs>
      <g>
       <use xlink:href="#m825bef0fde" x="38.482813" y="237.211676" style="fill: #7f7f7f; stroke: #7f7f7f; stroke-width: 1.8"/>
      </g>
     </g>
     <g id="text_8">
      <!-- −0.2 -->
      <g style="fill: #7f7f7f" transform="translate(7.2 241.010504) scale(0.1 -0.1)">
       <defs>
        <path id="DejaVuSans-c9c" d="M 678 2272 
L 4684 2272 
L 4684 1741 
L 678 1741 
L 678 2272 
z
" transform="scale(0.015625)"/>
        <path id="DejaVuSans-11" d="M 684 794 
L 1344 794 
L 1344 0 
L 684 0 
L 684 794 
z
" transform="scale(0.015625)"/>
       </defs>
       <use xlink:href="#DejaVuSans-c9c"/>
       <use xlink:href="#DejaVuSans-13" transform="translate(83.796875 0)"/>
       <use xlink:href="#DejaVuSans-11" transform="translate(147.421875 0)"/>
       <use xlink:href="#DejaVuSans-15" transform="translate(179.203125 0)"/>
      </g>
     </g>
    </g>
    <g id="ytick_2">
     <g id="line2d_15">
      <path d="M 38.482813 202.775346 
L 561.6 202.775346 
" clip-path="url(#p0e75bf8439)" style="fill: none; stroke-dasharray: 2.96,1.28; stroke-dashoffset: 0; stroke: #7f7f7f; stroke-opacity: 0.6; stroke-width: 0.8"/>
     </g>
     <g id="line2d_16">
      <g>
       <use xlink:href="#m825bef0fde" x="38.482813" y="202.775346" style="fill: #7f7f7f; stroke: #7f7f7f; stroke-width: 1.8"/>
      </g>
     </g>
     <g id="text_9">
      <!-- 0.0 -->
      <g style="fill: #7f7f7f" transform="translate(15.579688 206.574174) scale(0.1 -0.1)">
       <use xlink:href="#DejaVuSans-13"/>
       <use xlink:href="#DejaVuSans-11" transform="translate(63.625 0)"/>
       <use xlink:href="#DejaVuSans-13" transform="translate(95.40625 0)"/>
      </g>
     </g>
    </g>
    <g id="ytick_3">
     <g id="line2d_17">
      <path d="M 38.482813 168.339016 
L 561.6 168.339016 
" clip-path="url(#p0e75bf8439)" style="fill: none; stroke-dasharray: 2.96,1.28; stroke-dashoffset: 0; stroke: #7f7f7f; stroke-opacity: 0.6; stroke-width: 0.8"/>
     </g>
     <g id="line2d_18">
      <g>
       <use xlink:href="#m825bef0fde" x="38.482813" y="168.339016" style="fill: #7f7f7f; stroke: #7f7f7f; stroke-width: 1.8"/>
      </g>
     </g>
     <g id="text_10">
      <!-- 0.2 -->
      <g style="fill: #7f7f7f" transform="translate(15.579688 172.137844) scale(0.1 -0.1)">
       <use xlink:href="#DejaVuSans-13"/>
       <use xlink:href="#DejaVuSans-11" transform="translate(63.625 0)"/>
       <use xlink:href="#DejaVuSans-15" transform="translate(95.40625 0)"/>
      </g>
     </g>
    </g>
    <g id="ytick_4">
     <g id="line2d_19">
      <path d="M 38.482813 133.902686 
L 561.6 133.902686 
" clip-path="url(#p0e75bf8439)" style="fill: none; stroke-dasharray: 2.96,1.28; stroke-dashoffset: 0; stroke: #7f7f7f; stroke-opacity: 0.6; stroke-width: 0.8"/>
     </g>
     <g id="line2d_20">
      <g>
       <use xlink:href="#m825bef0fde" x="38.482813" y="133.902686" style="fill: #7f7f7f; stroke: #7f7f7f; stroke-width: 1.8"/>
      </g>
     </g>
     <g id="text_11">
      <!-- 0.4 -->
      <g style="fill: #7f7f7f" transform="translate(15.579688 137.701514) scale(0.1 -0.1)">
       <use xlink:href="#DejaVuSans-13"/>
       <use xlink:href="#DejaVuSans-11" transform="translate(63.625 0)"/>
       <use xlink:href="#DejaVuSans-17" transform="translate(95.40625 0)"/>
      </g>
     </g>
    </g>
    <g id="ytick_5">
     <g id="line2d_21">
      <path d="M 38.482813 99.466356 
L 561.6 99.466356 
" clip-path="url(#p0e75bf8439)" style="fill: none; stroke-dasharray: 2.96,1.28; stroke-dashoffset: 0; stroke: #7f7f7f; stroke-opacity: 0.6; stroke-width: 0.8"/>
     </g>
     <g id="line2d_22">
      <g>
       <use xlink:href="#m825bef0fde" x="38.482813" y="99.466356" style="fill: #7f7f7f; stroke: #7f7f7f; stroke-width: 1.8"/>
      </g>
     </g>
     <g id="text_12">
      <!-- 0.6 -->
      <g style="fill: #7f7f7f" transform="translate(15.579688 103.265184) scale(0.1 -0.1)">
       <use xlink:href="#DejaVuSans-13"/>
       <use xlink:href="#DejaVuSans-11" transform="translate(63.625 0)"/>
       <use xlink:href="#DejaVuSans-19" transform="translate(95.40625 0)"/>
      </g>
     </g>
    </g>
    <g id="ytick_6">
     <g id="line2d_23">
      <path d="M 38.482813 65.030026 
L 561.6 65.030026 
" clip-path="url(#p0e75bf8439)" style="fill: none; stroke-dasharray: 2.96,1.28; stroke-dashoffset: 0; stroke: #7f7f7f; stroke-opacity: 0.6; stroke-width: 0.8"/>
     </g>
     <g id="line2d_24">
      <g>
       <use xlink:href="#m825bef0fde" x="38.482813" y="65.030026" style="fill: #7f7f7f; stroke: #7f7f7f; stroke-width: 1.8"/>
      </g>
     </g>
     <g id="text_13">
      <!-- 0.8 -->
      <g style="fill: #7f7f7f" transform="translate(15.579688 68.828854) scale(0.1 -0.1)">
       <use xlink:href="#DejaVuSans-13"/>
       <use xlink:href="#DejaVuSans-11" transform="translate(63.625 0)"/>
       <use xlink:href="#DejaVuSans-1b" transform="translate(95.40625 0)"/>
      </g>
     </g>
    </g>
    <g id="ytick_7">
     <g id="line2d_25">
      <path d="M 38.482813 30.593696 
L 561.6 30.593696 
" clip-path="url(#p0e75bf8439)" style="fill: none; stroke-dasharray: 2.96,1.28; stroke-dashoffset: 0; stroke: #7f7f7f; stroke-opacity: 0.6; stroke-width: 0.8"/>
     </g>
     <g id="line2d_26">
      <g>
       <use xlink:href="#m825bef0fde" x="38.482813" y="30.593696" style="fill: #7f7f7f; stroke: #7f7f7f; stroke-width: 1.8"/>
      </g>
     </g>
     <g id="text_14">
      <!-- 1.0 -->
      <g style="fill: #7f7f7f" transform="translate(15.579688 34.392524) scale(0.1 -0.1)">
       <use xlink:href="#DejaVuSans-14"/>
       <use xlink:href="#DejaVuSans-11" transform="translate(63.625 0)"/>
       <use xlink:href="#DejaVuSans-13" transform="translate(95.40625 0)"/>
      </g>
     </g>
    </g>
   </g>
   <g id="line2d_27">
    <path d="M 62.260866 202.775346 
L 157.373053 202.775346 
L 158.364397 30.593696 
L 347.597462 30.593696 
L 348.482769 116.684521 
L 537.821946 116.684521 
L 537.821946 116.684521 
" clip-path="url(#p0e75bf8439)" style="fill: none; stroke: #e41a1c; stroke-width: 2; stroke-linecap: square"/>
   </g>
   <g id="line2d_28">
    <path d="M 62.260866 202.775346 
L 62.623564 203.787692 
L 62.793747 202.046648 
L 63.190494 202.47647 
L 64.539651 203.24254 
L 65.424982 202.334937 
L 66.418128 202.846099 
L 67.052908 203.254898 
L 67.387295 201.864486 
L 68.920535 203.305445 
L 69.295983 202.196155 
L 69.674714 202.530633 
L 70.400604 203.241557 
L 71.210413 202.660529 
L 71.587845 203.008104 
L 72.986936 202.353287 
L 73.338245 203.206859 
L 73.73512 203.042612 
L 74.100358 201.599852 
L 74.468331 202.73051 
L 74.814194 203.466505 
L 75.461169 202.593612 
L 76.635371 202.473632 
L 77.06198 201.945727 
L 77.480439 202.29491 
L 78.939537 203.568378 
L 79.215694 202.758097 
L 79.917591 202.078833 
L 80.249886 202.438592 
L 81.029024 203.440115 
L 82.155769 202.232277 
L 83.552533 203.32782 
L 84.976169 202.565608 
L 86.468003 203.280804 
L 86.831176 202.38798 
L 87.631428 202.928676 
L 88.828633 202.996731 
L 91.153862 203.198465 
L 92.358127 203.190103 
L 92.771793 203.722813 
L 93.199118 203.004966 
L 98.891324 203.530488 
L 99.168737 203.854354 
L 99.477512 202.316284 
L 100.33242 202.961624 
L 100.707065 201.966376 
L 101.087627 202.512986 
L 102.312241 202.650793 
L 110.933077 202.682704 
L 111.295625 204.029489 
L 111.854251 202.711885 
L 113.213146 203.115987 
L 114.431246 202.096897 
L 117.410249 203.189168 
L 118.819854 201.539701 
L 119.687674 201.327122 
L 120.008844 202.984786 
L 121.94544 202.665182 
L 122.790687 203.018681 
L 123.827464 202.136772 
L 124.736597 203.41816 
L 125.129444 203.120067 
L 126.825252 202.60604 
L 128.596756 203.344311 
L 129.209098 203.803625 
L 129.502753 202.264822 
L 129.803176 203.288598 
L 130.458146 202.732268 
L 132.260011 202.701667 
L 133.359216 201.904657 
L 134.955327 202.893837 
L 135.516156 203.78632 
L 136.35437 201.69501 
L 136.599039 203.40645 
L 137.091871 203.283442 
L 138.461344 202.356476 
L 139.213417 204.336872 
L 140.033016 203.563332 
L 140.516203 202.151769 
L 141.269127 203.174269 
L 143.016563 202.396521 
L 143.316324 202.254097 
L 143.61868 203.243727 
L 144.223639 202.68303 
L 144.888792 202.425704 
L 145.258041 202.859182 
L 147.915568 202.918415 
L 149.560812 202.462563 
L 150.361169 202.746554 
L 150.680371 202.308725 
L 151.345388 202.372261 
L 152.049197 202.972024 
L 152.30599 201.816178 
L 152.868254 202.448487 
L 153.197047 203.205821 
L 153.838523 202.741893 
L 156.316698 202.006609 
L 157.339862 203.36112 
L 157.368051 202.60912 
L 157.37327 176.339152 
L 157.373167 230.944634 
L 158.364397 203.288436 
L 159.081642 204.043914 
L 159.619279 202.622436 
L 160.351866 203.451426 
L 159.968915 201.803063 
L 160.559109 202.489301 
L 160.763719 202.730908 
L 161.270441 202.019324 
L 162.012627 202.461447 
L 162.53529 201.031703 
L 163.42762 200.772828 
L 164.762675 197.82177 
L 165.179514 198.175185 
L 165.540956 197.173434 
L 168.768673 186.828357 
L 172.056056 171.984145 
L 177.810926 139.325741 
L 185.631805 94.250277 
L 191.385585 65.447207 
L 196.636594 45.793532 
L 199.106925 39.20666 
L 202.51096 30.722284 
L 205.875337 25.887089 
L 207.818819 23.15553 
L 208.742303 22.955879 
L 210.009068 21.280126 
L 211.095439 21.01438 
L 212.436837 19.849571 
L 212.804993 20.175419 
L 214.022382 18.427674 
L 215.684765 19.183669 
L 216.539833 17.872163 
L 216.991157 18.753472 
L 217.458884 18.388965 
L 218.730768 18.104889 
L 219.093406 19.803404 
L 219.519443 18.901186 
L 221.407267 18.508645 
L 224.099619 19.620052 
L 225.359587 18.817921 
L 227.368415 20.565839 
L 227.745458 18.669566 
L 228.120674 20.420453 
L 231.284405 22.034047 
L 232.080046 21.696119 
L 233.822741 23.003155 
L 234.279231 22.333637 
L 234.631354 24.401516 
L 235.366582 23.833623 
L 235.717092 23.49982 
L 236.237131 24.103871 
L 237.203944 24.655129 
L 241.14547 26.585424 
L 243.297333 27.759228 
L 245.220596 26.991875 
L 248.033697 29.083925 
L 248.793301 28.390408 
L 249.141461 28.740512 
L 259.0621 30.140428 
L 259.473819 29.780239 
L 259.896344 30.698256 
L 262.27725 30.577433 
L 263.946455 31.37291 
L 267.630529 31.310038 
L 269.32985 31.444372 
L 270.653232 31.133441 
L 272.354192 32.22618 
L 272.810515 31.401653 
L 273.242153 32.260899 
L 274.695372 31.539801 
L 275.185478 32.311879 
L 275.891442 31.771631 
L 286.752035 31.185347 
L 287.164711 30.673115 
L 287.585229 31.536393 
L 289.779151 31.919059 
L 291.413476 30.684137 
L 291.840372 31.805465 
L 292.242883 31.033387 
L 293.866822 31.084812 
L 294.314334 31.556697 
L 294.724238 30.787615 
L 308.657626 30.483438 
L 309.020001 32.013297 
L 309.384017 29.592964 
L 309.725206 30.924034 
L 310.563055 30.806721 
L 317.55548 29.386307 
L 318.32609 31.127656 
L 318.709 30.028497 
L 319.975925 31.133521 
L 323.72837 30.379128 
L 324.85073 31.23317 
L 325.886291 30.64535 
L 326.696987 31.451113 
L 327.037637 29.68989 
L 327.810968 30.014318 
L 329.445652 29.744708 
L 330.644269 30.578353 
L 331.74424 29.793048 
L 332.190579 30.542627 
L 332.627305 30.401179 
L 333.000249 31.489771 
L 333.379303 30.006068 
L 333.753657 31.145038 
L 334.925598 31.043141 
L 339.489962 30.711313 
L 340.307819 29.482016 
L 340.696352 30.674934 
L 342.424229 30.629727 
L 343.738059 30.662044 
L 344.997616 30.634769 
L 346.197206 30.751099 
L 346.560249 31.288378 
L 346.920063 29.783917 
L 347.478698 31.360111 
L 347.597692 35.851017 
L 347.597297 24.126343 
L 348.209915 31.17988 
L 348.482769 30.433668 
L 349.121315 31.249791 
L 349.495458 31.831751 
L 349.886611 30.712551 
L 350.248215 31.275298 
L 354.73427 32.525796 
L 360.627881 41.779412 
L 363.384006 49.607711 
L 363.750061 49.408348 
L 366.842608 58.064297 
L 372.778212 76.943277 
L 377.678721 89.356095 
L 380.574475 97.215839 
L 390.539827 113.712899 
L 391.342169 114.857713 
L 392.921334 116.788945 
L 393.734856 116.693995 
L 394.568085 118.450849 
L 395.035519 118.119704 
L 399.786397 121.402755 
L 400.259153 120.521058 
L 401.527697 121.957559 
L 402.859284 122.314533 
L 408.391861 123.276348 
L 408.96281 122.414581 
L 409.479714 122.903151 
L 415.02529 122.8701 
L 415.481001 121.999205 
L 415.892181 122.620442 
L 417.046585 122.189312 
L 418.27358 120.88329 
L 419.543175 122.098687 
L 419.92216 121.838203 
L 420.789319 120.767161 
L 421.236447 121.585793 
L 421.640805 120.899149 
L 428.970021 120.558396 
L 430.13403 118.880203 
L 432.813571 118.211306 
L 433.207088 119.803648 
L 433.612532 118.159856 
L 435.299064 117.652403 
L 435.719989 118.551035 
L 436.142101 117.606638 
L 437.156459 117.983112 
L 437.971293 117.388061 
L 439.195422 118.255644 
L 440.41636 117.686621 
L 441.776633 117.889183 
L 443.078792 116.855406 
L 443.934006 117.8677 
L 444.284266 116.270982 
L 445.040476 116.781297 
L 445.495386 116.140778 
L 445.863996 117.498596 
L 446.234405 117.151789 
L 446.627691 116.299366 
L 447.025934 117.147711 
L 450.295082 117.363165 
L 451.513573 115.859759 
L 451.948407 116.68271 
L 452.356509 116.190296 
L 453.265325 116.290584 
L 456.981635 116.156238 
L 457.38526 115.497957 
L 457.798301 115.76791 
L 459.129432 116.319843 
L 460.422732 115.777832 
L 461.673379 116.390561 
L 463.116068 116.528866 
L 464.850122 115.881467 
L 466.499231 116.681827 
L 469.475856 116.358142 
L 469.890747 116.85227 
L 470.302605 116.469052 
L 472.708692 116.456588 
L 474.80229 117.255381 
L 475.591258 115.53117 
L 475.989467 116.842765 
L 477.596204 116.264123 
L 479.347276 115.984012 
L 480.225431 116.564862 
L 482.043043 115.70347 
L 482.476566 115.740829 
L 483.208967 116.946732 
L 483.624174 116.494875 
L 484.013544 115.506135 
L 484.403329 116.681281 
L 487.495157 116.197555 
L 488.275148 117.340806 
L 488.68618 116.878187 
L 490.382165 116.8859 
L 508.172544 116.606382 
L 508.570239 117.387651 
L 508.966632 116.796572 
L 513.762839 116.642473 
L 525.240166 116.722836 
L 527.052944 116.601864 
L 533.035469 116.005183 
L 533.802154 115.76917 
L 534.173577 117.315546 
L 534.94008 116.653909 
L 535.33055 117.089157 
L 535.718116 117.807394 
L 536.121568 116.655994 
L 536.96498 116.819525 
L 537.821946 116.385174 
L 537.821946 116.385174 
" clip-path="url(#p0e75bf8439)" style="fill: none; stroke: #377eb8; stroke-width: 2; stroke-linecap: square"/>
   </g>
   <g id="line2d_29">
    <path d="M 62.260866 202.775346 
L 62.398289 204.538806 
L 62.793747 201.94654 
L 63.190494 202.317565 
L 64.020953 203.385006 
L 64.276686 201.888535 
L 65.09808 202.379492 
L 66.418128 203.332672 
L 67.774839 202.500011 
L 78.640232 202.759833 
L 78.939537 201.669769 
L 79.215694 202.598886 
L 79.917591 203.373363 
L 80.249886 202.797085 
L 82.155769 202.268658 
L 82.48138 203.28452 
L 83.133673 202.635881 
L 87.631428 202.991556 
L 88.828633 202.280182 
L 89.203765 202.744875 
L 91.153862 202.638294 
L 92.358127 202.435227 
L 93.199118 203.082221 
L 94.289687 203.220309 
L 95.167471 202.691103 
L 95.524993 203.51201 
L 95.796947 201.776885 
L 96.061274 202.79225 
L 97.538873 202.112884 
L 97.818206 201.487795 
L 98.076492 203.030929 
L 98.33041 202.478938 
L 98.61867 202.273764 
L 99.477512 202.053595 
L 99.745713 203.502291 
L 100.707065 202.732075 
L 104.099876 202.932015 
L 104.40023 203.806673 
L 105.030843 202.820659 
L 106.351236 202.921115 
L 106.702777 203.550665 
L 107.029384 203.018032 
L 108.756411 202.516426 
L 110.287153 203.048381 
L 110.626054 202.157067 
L 110.933077 202.672744 
L 111.295625 203.372546 
L 111.598458 202.169107 
L 111.854251 201.282322 
L 112.409162 202.605385 
L 113.624352 202.864534 
L 116.076288 202.526736 
L 116.756184 204.050617 
L 117.018404 203.23146 
L 118.170501 202.655336 
L 118.819854 203.94003 
L 119.687674 201.978641 
L 120.008844 202.673227 
L 122.790687 202.774787 
L 123.827464 203.497131 
L 124.111799 202.206977 
L 124.736597 203.000344 
L 126.441137 202.857801 
L 129.209098 201.909795 
L 134.613155 203.234207 
L 135.237522 203.6854 
L 135.812491 202.067554 
L 136.10795 202.07895 
L 136.35437 203.937068 
L 137.091871 202.696388 
L 138.194652 202.471738 
L 138.461344 201.340968 
L 138.706091 203.133805 
L 138.942995 202.489734 
L 139.793834 201.963074 
L 140.033016 203.941145 
L 141.269127 202.555964 
L 142.344527 203.143706 
L 143.316324 202.441662 
L 143.61868 203.180574 
L 144.223639 202.677312 
L 144.57022 201.960156 
L 145.258041 202.66067 
L 151.73347 203.071656 
L 152.049197 203.688727 
L 152.30599 202.038641 
L 155.62551 203.544938 
L 155.925797 202.868706 
L 157.180583 202.61195 
L 157.375747 223.051451 
L 157.384343 197.168077 
L 158.049078 201.854563 
L 158.209085 202.177882 
L 158.541732 201.130823 
L 158.725551 201.368406 
L 162.802302 198.033116 
L 163.060898 196.483848 
L 163.776383 196.778445 
L 164.103955 197.008047 
L 165.179514 194.766222 
L 165.540956 195.341992 
L 166.862487 194.18618 
L 168.397519 193.475102 
L 169.11621 192.875706 
L 169.494606 191.704717 
L 170.229244 192.110504 
L 170.98001 192.138619 
L 172.398553 190.660361 
L 173.30023 190.184667 
L 173.752114 189.028624 
L 174.189375 189.726964 
L 175.343407 189.090555 
L 176.70061 188.6987 
L 177.076773 189.307468 
L 177.429086 188.709341 
L 179.124429 187.519819 
L 179.575955 187.580386 
L 181.009495 186.439192 
L 181.379352 186.954341 
L 181.745123 186.269842 
L 187.976306 185.311892 
L 188.370157 183.920047 
L 188.743728 185.012748 
L 192.319493 184.324114 
L 192.646873 185.439886 
L 192.970107 184.215821 
L 194.598382 183.672524 
L 196.150101 183.952782 
L 197.496413 184.509032 
L 198.268962 184.347454 
L 201.289498 183.347499 
L 201.685852 184.547038 
L 202.51096 184.026307 
L 202.925043 184.38928 
L 203.337063 183.270122 
L 203.723693 184.231474 
L 204.913538 184.351457 
L 206.642355 183.458039 
L 207.407826 184.51033 
L 207.818819 184.276904 
L 210.009068 184.261824 
L 212.065078 184.597214 
L 212.436837 183.903115 
L 212.804993 185.307854 
L 213.172716 185.60623 
L 214.51672 184.484548 
L 215.684765 183.716586 
L 216.991157 184.878517 
L 219.093406 184.438423 
L 220.520149 184.960421 
L 221.847487 185.151866 
L 223.343877 185.11432 
L 224.979915 184.443998 
L 226.661826 185.921437 
L 227.013783 184.360851 
L 227.368415 185.110315 
L 228.700402 185.383797 
L 229.902259 184.696838 
L 230.607251 186.432015 
L 231.284405 185.406197 
L 232.556388 185.351707 
L 234.980017 185.646636 
L 236.237131 185.919091 
L 237.644931 185.267791 
L 238.125811 185.941304 
L 238.560261 185.272871 
L 241.14547 185.270042 
L 241.564671 184.998445 
L 241.974837 186.021775 
L 242.395798 185.799675 
L 243.814477 185.401802 
L 250.478434 185.805178 
L 251.684773 185.534699 
L 252.806028 185.826858 
L 253.155231 184.829008 
L 253.500246 186.188057 
L 253.873922 185.688803 
L 255.20565 185.389839 
L 256.025982 185.766699 
L 256.459969 185.330292 
L 258.19655 185.646938 
L 262.692233 185.371793 
L 263.513052 185.992546 
L 265.342484 185.480306 
L 275.891442 185.620933 
L 279.382945 185.600496 
L 281.581928 185.393492 
L 281.976572 184.866826 
L 282.334349 186.195671 
L 283.12767 185.913006 
L 290.601529 186.08123 
L 291.011335 184.782019 
L 291.413476 185.234466 
L 291.840372 185.860555 
L 292.242883 185.396209 
L 292.65887 185.000353 
L 293.037144 185.93284 
L 307.547762 185.43825 
L 307.888898 186.394229 
L 308.226307 185.328389 
L 311.066964 185.680882 
L 314.023789 185.644914 
L 314.779896 185.242932 
L 315.216099 185.636513 
L 315.908454 186.288076 
L 316.287765 185.262942 
L 316.713207 185.563306 
L 317.937622 185.594228 
L 318.32609 184.781718 
L 318.709 185.946814 
L 320.419424 185.548249 
L 324.459345 185.675649 
L 325.2192 185.628426 
L 325.554304 184.57246 
L 325.886291 185.984424 
L 326.258624 185.605515 
L 327.380077 185.860965 
L 328.206883 186.128655 
L 329.834847 185.297801 
L 330.644269 186.088242 
L 331.026323 185.768782 
L 331.386659 185.060785 
L 332.190579 185.614839 
L 334.925598 185.639474 
L 335.966728 184.571528 
L 336.319238 186.091138 
L 337.150336 185.511071 
L 338.484213 185.785857 
L 339.918899 186.025714 
L 340.307819 184.915738 
L 341.094582 185.371325 
L 341.544692 185.804986 
L 341.978134 185.170525 
L 347.449133 186.251378 
L 347.597297 201.922028 
L 347.5979 162.33683 
L 348.209915 186.627502 
L 348.482769 184.412713 
L 349.121315 185.761577 
L 352.374482 188.39582 
L 352.726562 187.624235 
L 353.074178 188.507711 
L 356.069168 189.318001 
L 357.824902 190.431588 
L 358.167073 189.465666 
L 358.504322 189.993922 
L 359.850285 190.600931 
L 360.253253 190.323737 
L 360.627881 191.728175 
L 361.511873 191.267366 
L 365.090021 191.967865 
L 366.327424 193.093246 
L 369.02783 192.285314 
L 369.853819 193.540149 
L 370.284812 193.209796 
L 373.239922 194.162884 
L 373.587203 193.231573 
L 373.930819 193.413572 
L 374.729065 194.505668 
L 375.125817 194.122628 
L 375.544356 193.799165 
L 375.927031 194.352724 
L 386.734864 194.996352 
L 388.413587 194.738741 
L 399.786397 195.117349 
L 400.259153 194.570274 
L 400.725585 195.163757 
L 402.422925 195.12075 
L 403.773012 194.214374 
L 404.194857 194.765262 
L 418.714382 194.796949 
L 419.543175 194.545879 
L 421.236447 193.891341 
L 422.711427 194.362145 
L 424.015252 193.307797 
L 424.365497 195.190621 
L 425.131408 194.654871 
L 427.845681 194.05905 
L 429.355553 194.905575 
L 429.761995 193.523304 
L 430.13403 194.107735 
L 431.558266 193.741633 
L 431.993875 193.391888 
L 433.207088 194.477458 
L 434.049772 193.689971 
L 434.461556 194.568741 
L 435.719989 194.694258 
L 437.156459 194.0708 
L 442.235374 193.761287 
L 443.511887 194.366754 
L 444.284266 193.625559 
L 444.646013 194.543137 
L 445.040476 193.794544 
L 447.44417 193.212902 
L 447.828222 194.794626 
L 448.607821 194.017888 
L 449.052411 194.645347 
L 449.493878 193.861951 
L 451.948407 194.044605 
L 453.704114 194.106464 
L 456.230474 193.592323 
L 456.981635 194.57301 
L 457.38526 193.678124 
L 457.798301 194.16604 
L 459.561301 194.401556 
L 460.422732 193.606443 
L 460.826558 194.559608 
L 461.240457 194.349768 
L 462.040364 193.016791 
L 462.384442 194.023236 
L 463.552352 194.57928 
L 465.690289 194.603814 
L 466.103013 193.577887 
L 466.499231 194.418829 
L 474.065342 193.890905 
L 475.209242 194.083734 
L 478.032488 194.164786 
L 478.916178 193.779921 
L 480.225431 194.125951 
L 482.043043 194.217798 
L 483.624174 194.8623 
L 484.81341 193.43477 
L 485.204576 193.705618 
L 486.754721 194.979425 
L 488.275148 193.662513 
L 489.559686 194.855423 
L 489.962599 194.577977 
L 492.823312 193.088637 
L 494.295114 194.376799 
L 494.66185 194.236595 
L 495.083475 195.234962 
L 495.464337 194.687929 
L 496.823294 194.105283 
L 498.129784 194.019822 
L 500.495552 194.878562 
L 501.224265 193.419613 
L 501.59282 194.090825 
L 506.587749 194.17486 
L 506.96288 194.965454 
L 507.741595 194.334915 
L 509.466874 194.287829 
L 511.291578 194.107149 
L 512.090281 193.554533 
L 512.899164 194.44135 
L 514.25908 193.832797 
L 514.755653 194.454949 
L 515.129707 193.700904 
L 515.500842 193.175003 
L 515.863303 194.285918 
L 518.082084 194.392591 
L 519.424791 193.831651 
L 520.761677 193.982711 
L 521.120161 194.755837 
L 521.475515 194.401285 
L 521.905787 194.065188 
L 522.249311 195.144417 
L 523.066323 194.670646 
L 524.800294 193.672647 
L 526.184437 194.24565 
L 526.621286 193.662019 
L 527.052944 194.278308 
L 532.664019 194.138783 
L 533.035469 194.617806 
L 533.408611 193.614253 
L 536.96498 193.949783 
L 537.364358 193.488949 
L 537.728098 194.146745 
L 537.821946 195.052774 
L 537.821946 195.052774 
" clip-path="url(#p0e75bf8439)" style="fill: none; stroke: #4daf4a; stroke-width: 2; stroke-linecap: square"/>
   </g>
   <g id="patch_3">
    <path d="M 38.482813 241.599141 
L 38.482813 7.2 
" style="fill: none; stroke: #7f7f7f; stroke-width: 1.8; stroke-linejoin: miter; stroke-linecap: square"/>
   </g>
   <g id="patch_4">
    <path d="M 38.482813 241.599141 
L 561.6 241.599141 
" style="fill: none; stroke: #7f7f7f; stroke-width: 1.8; stroke-linejoin: miter; stroke-linecap: square"/>
   </g>
   <g id="legend_1">
    <g id="line2d_30">
     <path d="M 483.814062 20.298438 
L 493.814062 20.298438 
L 503.814062 20.298438 
" style="fill: none; stroke: #e41a1c; stroke-width: 2; stroke-linecap: square"/>
    </g>
    <g id="text_15">
     <!-- setpoint -->
     <g style="fill: #7f7f7f" transform="translate(511.814062 23.798438) scale(0.1 -0.1)">
      <defs>
       <path id="DejaVuSans-53" d="M 1159 525 
L 1159 -1331 
L 581 -1331 
L 581 3500 
L 1159 3500 
L 1159 2969 
Q 1341 3281 1617 3432 
Q 1894 3584 2278 3584 
Q 2916 3584 3314 3078 
Q 3713 2572 3713 1747 
Q 3713 922 3314 415 
Q 2916 -91 2278 -91 
Q 1894 -91 1617 61 
Q 1341 213 1159 525 
z
M 3116 1747 
Q 3116 2381 2855 2742 
Q 2594 3103 2138 3103 
Q 1681 3103 1420 2742 
Q 1159 2381 1159 1747 
Q 1159 1113 1420 752 
Q 1681 391 2138 391 
Q 2594 391 2855 752 
Q 3116 1113 3116 1747 
z
" transform="scale(0.015625)"/>
       <path id="DejaVuSans-52" d="M 1959 3097 
Q 1497 3097 1228 2736 
Q 959 2375 959 1747 
Q 959 1119 1226 758 
Q 1494 397 1959 397 
Q 2419 397 2687 759 
Q 2956 1122 2956 1747 
Q 2956 2369 2687 2733 
Q 2419 3097 1959 3097 
z
M 1959 3584 
Q 2709 3584 3137 3096 
Q 3566 2609 3566 1747 
Q 3566 888 3137 398 
Q 2709 -91 1959 -91 
Q 1206 -91 779 398 
Q 353 888 353 1747 
Q 353 2609 779 3096 
Q 1206 3584 1959 3584 
z
" transform="scale(0.015625)"/>
       <path id="DejaVuSans-51" d="M 3513 2113 
L 3513 0 
L 2938 0 
L 2938 2094 
Q 2938 2591 2744 2837 
Q 2550 3084 2163 3084 
Q 1697 3084 1428 2787 
Q 1159 2491 1159 1978 
L 1159 0 
L 581 0 
L 581 3500 
L 1159 3500 
L 1159 2956 
Q 1366 3272 1645 3428 
Q 1925 3584 2291 3584 
Q 2894 3584 3203 3211 
Q 3513 2838 3513 2113 
z
" transform="scale(0.015625)"/>
      </defs>
      <use xlink:href="#DejaVuSans-56"/>
      <use xlink:href="#DejaVuSans-48" transform="translate(52.09375 0)"/>
      <use xlink:href="#DejaVuSans-57" transform="translate(113.625 0)"/>
      <use xlink:href="#DejaVuSans-53" transform="translate(152.828125 0)"/>
      <use xlink:href="#DejaVuSans-52" transform="translate(216.3125 0)"/>
      <use xlink:href="#DejaVuSans-4c" transform="translate(277.5 0)"/>
      <use xlink:href="#DejaVuSans-51" transform="translate(305.28125 0)"/>
      <use xlink:href="#DejaVuSans-57" transform="translate(368.65625 0)"/>
     </g>
    </g>
    <g id="line2d_31">
     <path d="M 483.814062 35.299219 
L 493.814062 35.299219 
L 503.814062 35.299219 
" style="fill: none; stroke: #377eb8; stroke-width: 2; stroke-linecap: square"/>
    </g>
    <g id="text_16">
     <!-- plant 1 -->
     <g style="fill: #7f7f7f" transform="translate(511.814062 38.799219) scale(0.1 -0.1)">
      <defs>
       <path id="DejaVuSans-4f" d="M 603 4863 
L 1178 4863 
L 1178 0 
L 603 0 
L 603 4863 
z
" transform="scale(0.015625)"/>
       <path id="DejaVuSans-44" d="M 2194 1759 
Q 1497 1759 1228 1600 
Q 959 1441 959 1056 
Q 959 750 1161 570 
Q 1363 391 1709 391 
Q 2188 391 2477 730 
Q 2766 1069 2766 1631 
L 2766 1759 
L 2194 1759 
z
M 3341 1997 
L 3341 0 
L 2766 0 
L 2766 531 
Q 2569 213 2275 61 
Q 1981 -91 1556 -91 
Q 1019 -91 701 211 
Q 384 513 384 1019 
Q 384 1609 779 1909 
Q 1175 2209 1959 2209 
L 2766 2209 
L 2766 2266 
Q 2766 2663 2505 2880 
Q 2244 3097 1772 3097 
Q 1472 3097 1187 3025 
Q 903 2953 641 2809 
L 641 3341 
Q 956 3463 1253 3523 
Q 1550 3584 1831 3584 
Q 2591 3584 2966 3190 
Q 3341 2797 3341 1997 
z
" transform="scale(0.015625)"/>
      </defs>
      <use xlink:href="#DejaVuSans-53"/>
      <use xlink:href="#DejaVuSans-4f" transform="translate(63.484375 0)"/>
      <use xlink:href="#DejaVuSans-44" transform="translate(91.265625 0)"/>
      <use xlink:href="#DejaVuSans-51" transform="translate(152.546875 0)"/>
      <use xlink:href="#DejaVuSans-57" transform="translate(215.921875 0)"/>
      <use xlink:href="#DejaVuSans-3" transform="translate(255.125 0)"/>
      <use xlink:href="#DejaVuSans-14" transform="translate(286.90625 0)"/>
     </g>
    </g>
    <g id="line2d_32">
     <path d="M 483.814062 50.3 
L 493.814062 50.3 
L 503.814062 50.3 
" style="fill: none; stroke: #4daf4a; stroke-width: 2; stroke-linecap: square"/>
    </g>
    <g id="text_17">
     <!-- plant 2 -->
     <g style="fill: #7f7f7f" transform="translate(511.814062 53.8) scale(0.1 -0.1)">
      <use xlink:href="#DejaVuSans-53"/>
      <use xlink:href="#DejaVuSans-4f" transform="translate(63.484375 0)"/>
      <use xlink:href="#DejaVuSans-44" transform="translate(91.265625 0)"/>
      <use xlink:href="#DejaVuSans-51" transform="translate(152.546875 0)"/>
      <use xlink:href="#DejaVuSans-57" transform="translate(215.921875 0)"/>
      <use xlink:href="#DejaVuSans-3" transform="translate(255.125 0)"/>
      <use xlink:href="#DejaVuSans-15" transform="translate(286.90625 0)"/>
     </g>
    </g>
   </g>
  </g>
 </g>
 <defs>
  <clipPath id="p0e75bf8439">
   <rect x="38.482813" y="7.2" width="523.117187" height="234.399141"/>
  </clipPath>
 </defs>
</svg>
