<?xml version="1.0" encoding="utf-8" standalone="no"?>
<!DOCTYPE svg PUBLIC "-//W3C//DTD SVG 1.1//EN"
  "http://www.w3.org/Graphics/SVG/1.1/DTD/svg11.dtd">
<svg xmlns:xlink="http://www.w3.org/1999/xlink" width="568.8pt" height="280.8pt" viewBox="0 0 568.8 280.8" xmlns="http://www.w3.org/2000/svg" version="1.1">
 <metadata>
  <rdf:RDF xmlns:dc="http://purl.org/dc/elements/1.1/" xmlns:cc="http://creativecommons.org/ns#" xmlns:rdf="http://www.w3.org/1999/02/22-rdf-syntax-ns#">
   <cc:Work>
    <dc:type rdf:resource="http://purl.org/dc/dcmitype/StillImage"/>
    <dc:date>2026-07-02T13:57:53.781084</dc:date>
    <dc:format>image/svg+xml</dc:format>
    <dc:creator>
     <cc:Agent>
      <dc:title>Matplotlib v3.11.0, https://matplotlib.org/</dc:title>
     </cc:Agent>
    </dc:creator>
   </cc:Work>
  </rdf:RDF>
 </metadata>
 <defs>
  <style type="text/css">*{stroke-linejoin: round; stroke-linecap: butt}</style>
 </defs>
 <g id="figure_1">
  <g id="patch_1">
   <path d="M 0 280.8 
L 568.8 280.8 
L 568.8 0 
L 0 0 
L 0 280.8 
z
" style="fill: none"/>
  </g>
  <g id="axes_1">
   <g id="patch_2">
    <path d="M 38.482813 241.599141 
L 561.6 241.599141 
L 561.6 7.2 
L 38.482813 7.2 
L 38.482813 241.599141 
z
" style="fill: none"/>
   </g>
   <g id="matplotlib.axis_1">
    <g id="xtick_1">
     <g id="line2d_1">
      <path d="M 62.260866 241.599141 
L 62.260866 7.2 
" clip-path="url(#p70c070ca50)" style="fill: none; stroke-dasharray: 2.96,1.28; stroke-dashoffset: 0; stroke: #7f7f7f; stroke-opacity: 0.6; stroke-width: 0.8"/>
     </g>
     <g id="line2d_2">
      <defs>
       <path id="ma68e5b7a23" d="M 0 0 
L 0 3.5 
" style="stroke: #7f7f7f; stroke-width: 1.8"/>
      </defs>
      <g>
       <use xlink:href="#ma68e5b7a23" x="62.260866" y="241.599141" style="fill: #7f7f7f; stroke: #7f7f7f; stroke-width: 1.8"/>
      </g>
     </g>
     <g id="text_1">
      <!-- 0 -->
      <g style="fill: #7f7f7f" transform="translate(59.079616 256.196797) scale(0.1 -0.1)">
       <defs>
        <path id="DejaVuSans-13" d="M 2034 4250 
Q 1547 4250 1301 3770 
Q 1056 3291 1056 2328 
Q 1056 1369 1301 889 
Q 1547 409 2034 409 
Q 2525 409 2770 889 
Q 3016 1369 3016 2328 
Q 3016 3291 2770 3770 
Q 2525 4250 2034 4250 
z
M 2034 4750 
Q 2819 4750 3233 4129 
Q 3647 3509 3647 2328 
Q 3647 1150 3233 529 
Q 2819 -91 2034 -91 
Q 1250 -91 836 529 
Q 422 1150 422 2328 
Q 422 3509 836 4129 
Q 1250 4750 2034 4750 
z
" transform="scale(0.015625)"/>
       </defs>
       <use xlink:href="#DejaVuSans-13"/>
      </g>
     </g>
    </g>
    <g id="xtick_2">
     <g id="line2d_3">
      <path d="M 157.373082 241.599141 
L 157.373082 7.2 
" clip-path="url(#p70c070ca50)" style="fill: none; stroke-dasharray: 2.96,1.28; stroke-dashoffset: 0; stroke: #7f7f7f; stroke-opacity: 0.6; stroke-width: 0.8"/>
     </g>
     <g id="line2d_4">
      <g>
       <use xlink:href="#ma68e5b7a23" x="157.373082" y="241.599141" style="fill: #7f7f7f; stroke: #7f7f7f; stroke-width: 1.8"/>
      </g>
     </g>
     <g id="text_2">
      <!-- 20 -->
      <g style="fill: #7f7f7f" transform="translate(151.010582 256.196797) scale(0.1 -0.1)">
       <defs>
        <path id="DejaVuSans-15" d="M 1228 531 
L 3431 531 
L 3431 0 
L 469 0 
L 469 531 
Q 828 903 1448 1529 
Q 2069 2156 2228 2338 
Q 2531 2678 2651 2914 
Q 2772 3150 2772 3378 
Q 2772 3750 2511 3984 
Q 2250 4219 1831 4219 
Q 1534 4219 1204 4116 
Q 875 4013 500 3803 
L 500 4441 
Q 881 4594 1212 4672 
Q 1544 4750 1819 4750 
Q 2544 4750 2975 4387 
Q 3406 4025 3406 3419 
Q 3406 3131 3298 2873 
Q 3191 2616 2906 2266 
Q 2828 2175 2409 1742 
Q 1991 1309 1228 531 
z
" transform="scale(0.015625)"/>
       </defs>
       <use xlink:href="#DejaVuSans-15"/>
       <use xlink:href="#DejaVuSans-13" transform="translate(63.625 0)"/>
      </g>
     </g>
    </g>
    <g id="xtick_3">
     <g id="line2d_5">
      <path d="M 252.485298 241.599141 
L 252.485298 7.2 
" clip-path="url(#p70c070ca50)" style="fill: none; stroke-dasharray: 2.96,1.28; stroke-dashoffset: 0; stroke: #7f7f7f; stroke-opacity: 0.6; stroke-width: 0.8"/>
     </g>
     <g id="line2d_6">
      <g>
       <use xlink:href="#ma68e5b7a23" x="252.485298" y="241.599141" style="fill: #7f7f7f; stroke: #7f7f7f; stroke-width: 1.8"/>
      </g>
     </g>
     <g id="text_3">
      <!-- 40 -->
      <g style="fill: #7f7f7f" transform="translate(246.122798 256.196797) scale(0.1 -0.1)">
       <defs>
        <path id="DejaVuSans-17" d="M 2419 4116 
L 825 1625 
L 2419 1625 
L 2419 4116 
z
M 2253 4666 
L 3047 4666 
L 3047 1625 
L 3713 1625 
L 3713 1100 
L 3047 1100 
L 3047 0 
L 2419 0 
L 2419 1100 
L 313 1100 
L 313 1709 
L 2253 4666 
z
" transform="scale(0.015625)"/>
       </defs>
       <use xlink:href="#DejaVuSans-17"/>
       <use xlink:href="#DejaVuSans-13" transform="translate(63.625 0)"/>
      </g>
     </g>
    </g>
    <g id="xtick_4">
     <g id="line2d_7">
      <path d="M 347.597514 241.599141 
L 347.597514 7.2 
" clip-path="url(#p70c070ca50)" style="fill: none; stroke-dasharray: 2.96,1.28; stroke-dashoffset: 0; stroke: #7f7f7f; stroke-opacity: 0.6; stroke-width: 0.8"/>
     </g>
     <g id="line2d_8">
      <g>
       <use xlink:href="#ma68e5b7a23" x="347.597514" y="241.599141" style="fill: #7f7f7f; stroke: #7f7f7f; stroke-width: 1.8"/>
      </g>
     </g>
     <g id="text_4">
      <!-- 60 -->
      <g style="fill: #7f7f7f" transform="translate(341.235014 256.196797) scale(0.1 -0.1)">
       <defs>
        <path id="DejaVuSans-19" d="M 2113 2584 
Q 1688 2584 1439 2293 
Q 1191 2003 1191 1497 
Q 1191 994 1439 701 
Q 1688 409 2113 409 
Q 2538 409 2786 701 
Q 3034 994 3034 1497 
Q 3034 2003 2786 2293 
Q 2538 2584 2113 2584 
z
M 3366 4563 
L 3366 3988 
Q 3128 4100 2886 4159 
Q 2644 4219 2406 4219 
Q 1781 4219 1451 3797 
Q 1122 3375 1075 2522 
Q 1259 2794 1537 2939 
Q 1816 3084 2150 3084 
Q 2853 3084 3261 2657 
Q 3669 2231 3669 1497 
Q 3669 778 3244 343 
Q 2819 -91 2113 -91 
Q 1303 -91 875 529 
Q 447 1150 447 2328 
Q 447 3434 972 4092 
Q 1497 4750 2381 4750 
Q 2619 4750 2861 4703 
Q 3103 4656 3366 4563 
z
" transform="scale(0.015625)"/>
       </defs>
       <use xlink:href="#DejaVuSans-19"/>
       <use xlink:href="#DejaVuSans-13" transform="translate(63.625 0)"/>
      </g>
     </g>
    </g>
    <g id="xtick_5">
     <g id="line2d_9">
      <path d="M 442.70973 241.599141 
L 442.70973 7.2 
" clip-path="url(#p70c070ca50)" style="fill: none; stroke-dasharray: 2.96,1.28; stroke-dashoffset: 0; stroke: #7f7f7f; stroke-opacity: 0.6; stroke-width: 0.8"/>
     </g>
     <g id="line2d_10">
      <g>
       <use xlink:href="#ma68e5b7a23" x="442.70973" y="241.599141" style="fill: #7f7f7f; stroke: #7f7f7f; stroke-width: 1.8"/>
      </g>
     </g>
     <g id="text_5">
      <!-- 80 -->
      <g style="fill: #7f7f7f" transform="translate(436.34723 256.196797) scale(0.1 -0.1)">
       <defs>
        <path id="DejaVuSans-1b" d="M 2034 2216 
Q 1584 2216 1326 1975 
Q 1069 1734 1069 1313 
Q 1069 891 1326 650 
Q 1584 409 2034 409 
Q 2484 409 2743 651 
Q 3003 894 3003 1313 
Q 3003 1734 2745 1975 
Q 2488 2216 2034 2216 
z
M 1403 2484 
Q 997 2584 770 2862 
Q 544 3141 544 3541 
Q 544 4100 942 4425 
Q 1341 4750 2034 4750 
Q 2731 4750 3128 4425 
Q 3525 4100 3525 3541 
Q 3525 3141 3298 2862 
Q 3072 2584 2669 2484 
Q 3125 2378 3379 2068 
Q 3634 1759 3634 1313 
Q 3634 634 3220 271 
Q 2806 -91 2034 -91 
Q 1263 -91 848 271 
Q 434 634 434 1313 
Q 434 1759 690 2068 
Q 947 2378 1403 2484 
z
M 1172 3481 
Q 1172 3119 1398 2916 
Q 1625 2713 2034 2713 
Q 2441 2713 2670 2916 
Q 2900 3119 2900 3481 
Q 2900 3844 2670 4047 
Q 2441 4250 2034 4250 
Q 1625 4250 1398 4047 
Q 1172 3844 1172 3481 
z
" transform="scale(0.015625)"/>
       </defs>
       <use xlink:href="#DejaVuSans-1b"/>
       <use xlink:href="#DejaVuSans-13" transform="translate(63.625 0)"/>
      </g>
     </g>
    </g>
    <g id="xtick_6">
     <g id="line2d_11">
      <path d="M 537.821946 241.599141 
L 537.821946 7.2 
" clip-path="url(#p70c070ca50)" style="fill: none; stroke-dasharray: 2.96,1.28; stroke-dashoffset: 0; stroke: #7f7f7f; stroke-opacity: 0.6; stroke-width: 0.8"/>
     </g>
     <g id="line2d_12">
      <g>
       <use xlink:href="#ma68e5b7a23" x="537.821946" y="241.599141" style="fill: #7f7f7f; stroke: #7f7f7f; stroke-width: 1.8"/>
      </g>
     </g>
     <g id="text_6">
      <!-- 100 -->
      <g style="fill: #7f7f7f" transform="translate(528.278196 256.196797) scale(0.1 -0.1)">
       <defs>
        <path id="DejaVuSans-14" d="M 794 531 
L 1825 531 
L 1825 4091 
L 703 3866 
L 703 4441 
L 1819 4666 
L 2450 4666 
L 2450 531 
L 3481 531 
L 3481 0 
L 794 0 
L 794 531 
z
" transform="scale(0.015625)"/>
       </defs>
       <use xlink:href="#DejaVuSans-14"/>
       <use xlink:href="#DejaVuSans-13" transform="translate(63.625 0)"/>
       <use xlink:href="#DejaVuSans-13" transform="translate(127.25 0)"/>
      </g>
     </g>
    </g>
    <g id="text_7">
     <!-- time [s] -->
     <g style="fill: #7f7f7f" transform="translate(278.710859 270.957422) scale(0.11 -0.11)">
      <defs>
       <path id="DejaVuSans-57" d="M 1172 4494 
L 1172 3500 
L 2356 3500 
L 2356 3053 
L 1172 3053 
L 1172 1153 
Q 1172 725 1289 603 
Q 1406 481 1766 481 
L 2356 481 
L 2356 0 
L 1766 0 
Q 1100 0 847 248 
Q 594 497 594 1153 
L 594 3053 
L 172 3053 
L 172 3500 
L 594 3500 
L 594 4494 
L 1172 4494 
z
" transform="scale(0.015625)"/>
       <path id="DejaVuSans-4c" d="M 603 3500 
L 1178 3500 
L 1178 0 
L 603 0 
L 603 3500 
z
M 603 4863 
L 1178 4863 
L 1178 4134 
L 603 4134 
L 603 4863 
z
" transform="scale(0.015625)"/>
       <path id="DejaVuSans-50" d="M 3328 2828 
Q 3544 3216 3844 3400 
Q 4144 3584 4550 3584 
Q 5097 3584 5394 3201 
Q 5691 2819 5691 2113 
L 5691 0 
L 5113 0 
L 5113 2094 
Q 5113 2597 4934 2840 
Q 4756 3084 4391 3084 
Q 3944 3084 3684 2787 
Q 3425 2491 3425 1978 
L 3425 0 
L 2847 0 
L 2847 2094 
Q 2847 2600 2669 2842 
Q 2491 3084 2119 3084 
Q 1678 3084 1418 2786 
Q 1159 2488 1159 1978 
L 1159 0 
L 581 0 
L 581 3500 
L 1159 3500 
L 1159 2956 
Q 1356 3278 1631 3431 
Q 1906 3584 2284 3584 
Q 2666 3584 2933 3390 
Q 3200 3197 3328 2828 
z
" transform="scale(0.015625)"/>
       <path id="DejaVuSans-48" d="M 3597 1894 
L 3597 1613 
L 953 1613 
Q 991 1019 1311 708 
Q 1631 397 2203 397 
Q 2534 397 2845 478 
Q 3156 559 3463 722 
L 3463 178 
Q 3153 47 2828 -22 
Q 2503 -91 2169 -91 
Q 1331 -91 842 396 
Q 353 884 353 1716 
Q 353 2575 817 3079 
Q 1281 3584 2069 3584 
Q 2775 3584 3186 3129 
Q 3597 2675 3597 1894 
z
M 3022 2063 
Q 3016 2534 2758 2815 
Q 2500 3097 2075 3097 
Q 1594 3097 1305 2825 
Q 1016 2553 972 2059 
L 3022 2063 
z
" transform="scale(0.015625)"/>
       <path id="DejaVuSans-3" transform="scale(0.015625)"/>
       <path id="DejaVuSans-3e" d="M 550 4863 
L 1875 4863 
L 1875 4416 
L 1125 4416 
L 1125 -397 
L 1875 -397 
L 1875 -844 
L 550 -844 
L 550 4863 
z
" transform="scale(0.015625)"/>
       <path id="DejaVuSans-56" d="M 2834 3397 
L 2834 2853 
Q 2591 2978 2328 3040 
Q 2066 3103 1784 3103 
Q 1356 3103 1142 2972 
Q 928 2841 928 2578 
Q 928 2378 1081 2264 
Q 1234 2150 1697 2047 
L 1894 2003 
Q 2506 1872 2764 1633 
Q 3022 1394 3022 966 
Q 3022 478 2636 193 
Q 2250 -91 1575 -91 
Q 1294 -91 989 -36 
Q 684 19 347 128 
L 347 722 
Q 666 556 975 473 
Q 1284 391 1588 391 
Q 1994 391 2212 530 
Q 2431 669 2431 922 
Q 2431 1156 2273 1281 
Q 2116 1406 1581 1522 
L 1381 1569 
Q 847 1681 609 1914 
Q 372 2147 372 2553 
Q 372 3047 722 3315 
Q 1072 3584 1716 3584 
Q 2034 3584 2315 3537 
Q 2597 3491 2834 3397 
z
" transform="scale(0.015625)"/>
       <path id="DejaVuSans-40" d="M 1947 4863 
L 1947 -844 
L 622 -844 
L 622 -397 
L 1369 -397 
L 1369 4416 
L 622 4416 
L 622 4863 
L 1947 4863 
z
" transform="scale(0.015625)"/>
      </defs>
      <use xlink:href="#DejaVuSans-57"/>
      <use xlink:href="#DejaVuSans-4c" transform="translate(39.203125 0)"/>
      <use xlink:href="#DejaVuSans-50" transform="translate(66.984375 0)"/>
      <use xlink:href="#DejaVuSans-48" transform="translate(164.390625 0)"/>
      <use xlink:href="#DejaVuSans-3" transform="translate(225.921875 0)"/>
      <use xlink:href="#DejaVuSans-3e" transform="translate(257.703125 0)"/>
      <use xlink:href="#DejaVuSans-56" transform="translate(296.71875 0)"/>
      <use xlink:href="#DejaVuSans-40" transform="translate(348.8125 0)"/>
     </g>
    </g>
   </g>
   <g id="matplotlib.axis_2">
    <g id="ytick_1">
     <g id="line2d_13">
      <path d="M 38.482813 237.340283 
L 561.6 237.340283 
" clip-path="url(#p70c070ca50)" style="fill: none; stroke-dasharray: 2.96,1.28; stroke-dashoffset: 0; stroke: #7f7f7f; stroke-opacity: 0.6; stroke-width: 0.8"/>
     </g>
     <g id="line2d_14">
      <defs>
       <path id="mccd74d5d17" d="M 0 0 
L -3.5 0 
" style="stroke: #7f7f7f; stroke-width: 1.8"/>
      </defs>
      <g>
       <use xlink:href="#mccd74d5d17" x="38.482813" y="237.340283" style="fill: #7f7f7f; stroke: #7f7f7f; stroke-width: 1.8"/>
      </g>
     </g>
     <g id="text_8">
      <!-- −0.2 -->
      <g style="fill: #7f7f7f" transform="translate(7.2 241.139111) scale(0.1 -0.1)">
       <defs>
        <path id="DejaVuSans-c9c" d="M 678 2272 
L 4684 2272 
L 4684 1741 
L 678 1741 
L 678 2272 
z
" transform="scale(0.015625)"/>
        <path id="DejaVuSans-11" d="M 684 794 
L 1344 794 
L 1344 0 
L 684 0 
L 684 794 
z
" transform="scale(0.015625)"/>
       </defs>
       <use xlink:href="#DejaVuSans-c9c"/>
       <use xlink:href="#DejaVuSans-13" transform="translate(83.796875 0)"/>
       <use xlink:href="#DejaVuSans-11" transform="translate(147.421875 0)"/>
       <use xlink:href="#DejaVuSans-15" transform="translate(179.203125 0)"/>
      </g>
     </g>
    </g>
    <g id="ytick_2">
     <g id="line2d_15">
      <path d="M 38.482813 206.481047 
L 561.6 206.481047 
" clip-path="url(#p70c070ca50)" style="fill: none; stroke-dasharray: 2.96,1.28; stroke-dashoffset: 0; stroke: #7f7f7f; stroke-opacity: 0.6; stroke-width: 0.8"/>
     </g>
     <g id="line2d_16">
      <g>
       <use xlink:href="#mccd74d5d17" x="38.482813" y="206.481047" style="fill: #7f7f7f; stroke: #7f7f7f; stroke-width: 1.8"/>
      </g>
     </g>
     <g id="text_9">
      <!-- 0.0 -->
      <g style="fill: #7f7f7f" transform="translate(15.579688 210.279875) scale(0.1 -0.1)">
       <use xlink:href="#DejaVuSans-13"/>
       <use xlink:href="#DejaVuSans-11" transform="translate(63.625 0)"/>
       <use xlink:href="#DejaVuSans-13" transform="translate(95.40625 0)"/>
      </g>
     </g>
    </g>
    <g id="ytick_3">
     <g id="line2d_17">
      <path d="M 38.482813 175.62181 
L 561.6 175.62181 
" clip-path="url(#p70c070ca50)" style="fill: none; stroke-dasharray: 2.96,1.28; stroke-dashoffset: 0; stroke: #7f7f7f; stroke-opacity: 0.6; stroke-width: 0.8"/>
     </g>
     <g id="line2d_18">
      <g>
       <use xlink:href="#mccd74d5d17" x="38.482813" y="175.62181" style="fill: #7f7f7f; stroke: #7f7f7f; stroke-width: 1.8"/>
      </g>
     </g>
     <g id="text_10">
      <!-- 0.2 -->
      <g style="fill: #7f7f7f" transform="translate(15.579688 179.420639) scale(0.1 -0.1)">
       <use xlink:href="#DejaVuSans-13"/>
       <use xlink:href="#DejaVuSans-11" transform="translate(63.625 0)"/>
       <use xlink:href="#DejaVuSans-15" transform="translate(95.40625 0)"/>
      </g>
     </g>
    </g>
    <g id="ytick_4">
     <g id="line2d_19">
      <path d="M 38.482813 144.762574 
L 561.6 144.762574 
" clip-path="url(#p70c070ca50)" style="fill: none; stroke-dasharray: 2.96,1.28; stroke-dashoffset: 0; stroke: #7f7f7f; stroke-opacity: 0.6; stroke-width: 0.8"/>
     </g>
     <g id="line2d_20">
      <g>
       <use xlink:href="#mccd74d5d17" x="38.482813" y="144.762574" style="fill: #7f7f7f; stroke: #7f7f7f; stroke-width: 1.8"/>
      </g>
     </g>
     <g id="text_11">
      <!-- 0.4 -->
      <g style="fill: #7f7f7f" transform="translate(15.579688 148.561402) scale(0.1 -0.1)">
       <use xlink:href="#DejaVuSans-13"/>
       <use xlink:href="#DejaVuSans-11" transform="translate(63.625 0)"/>
       <use xlink:href="#DejaVuSans-17" transform="translate(95.40625 0)"/>
      </g>
     </g>
    </g>
    <g id="ytick_5">
     <g id="line2d_21">
      <path d="M 38.482813 113.903338 
L 561.6 113.903338 
" clip-path="url(#p70c070ca50)" style="fill: none; stroke-dasharray: 2.96,1.28; stroke-dashoffset: 0; stroke: #7f7f7f; stroke-opacity: 0.6; stroke-width: 0.8"/>
     </g>
     <g id="line2d_22">
      <g>
       <use xlink:href="#mccd74d5d17" x="38.482813" y="113.903338" style="fill: #7f7f7f; stroke: #7f7f7f; stroke-width: 1.8"/>
      </g>
     </g>
     <g id="text_12">
      <!-- 0.6 -->
      <g style="fill: #7f7f7f" transform="translate(15.579688 117.702166) scale(0.1 -0.1)">
       <use xlink:href="#DejaVuSans-13"/>
       <use xlink:href="#DejaVuSans-11" transform="translate(63.625 0)"/>
       <use xlink:href="#DejaVuSans-19" transform="translate(95.40625 0)"/>
      </g>
     </g>
    </g>
    <g id="ytick_6">
     <g id="line2d_23">
      <path d="M 38.482813 83.044102 
L 561.6 83.044102 
" clip-path="url(#p70c070ca50)" style="fill: none; stroke-dasharray: 2.96,1.28; stroke-dashoffset: 0; stroke: #7f7f7f; stroke-opacity: 0.6; stroke-width: 0.8"/>
     </g>
     <g id="line2d_24">
      <g>
       <use xlink:href="#mccd74d5d17" x="38.482813" y="83.044102" style="fill: #7f7f7f; stroke: #7f7f7f; stroke-width: 1.8"/>
      </g>
     </g>
     <g id="text_13">
      <!-- 0.8 -->
      <g style="fill: #7f7f7f" transform="translate(15.579688 86.84293) scale(0.1 -0.1)">
       <use xlink:href="#DejaVuSans-13"/>
       <use xlink:href="#DejaVuSans-11" transform="translate(63.625 0)"/>
       <use xlink:href="#DejaVuSans-1b" transform="translate(95.40625 0)"/>
      </g>
     </g>
    </g>
    <g id="ytick_7">
     <g id="line2d_25">
      <path d="M 38.482813 52.184865 
L 561.6 52.184865 
" clip-path="url(#p70c070ca50)" style="fill: none; stroke-dasharray: 2.96,1.28; stroke-dashoffset: 0; stroke: #7f7f7f; stroke-opacity: 0.6; stroke-width: 0.8"/>
     </g>
     <g id="line2d_26">
      <g>
       <use xlink:href="#mccd74d5d17" x="38.482813" y="52.184865" style="fill: #7f7f7f; stroke: #7f7f7f; stroke-width: 1.8"/>
      </g>
     </g>
     <g id="text_14">
      <!-- 1.0 -->
      <g style="fill: #7f7f7f" transform="translate(15.579688 55.983693) scale(0.1 -0.1)">
       <use xlink:href="#DejaVuSans-14"/>
       <use xlink:href="#DejaVuSans-11" transform="translate(63.625 0)"/>
       <use xlink:href="#DejaVuSans-13" transform="translate(95.40625 0)"/>
      </g>
     </g>
    </g>
    <g id="ytick_8">
     <g id="line2d_27">
      <path d="M 38.482813 21.325629 
L 561.6 21.325629 
" clip-path="url(#p70c070ca50)" style="fill: none; stroke-dasharray: 2.96,1.28; stroke-dashoffset: 0; stroke: #7f7f7f; stroke-opacity: 0.6; stroke-width: 0.8"/>
     </g>
     <g id="line2d_28">
      <g>
       <use xlink:href="#mccd74d5d17" x="38.482813" y="21.325629" style="fill: #7f7f7f; stroke: #7f7f7f; stroke-width: 1.8"/>
      </g>
     </g>
     <g id="text_15">
      <!-- 1.2 -->
      <g style="fill: #7f7f7f" transform="translate(15.579688 25.124457) scale(0.1 -0.1)">
       <use xlink:href="#DejaVuSans-14"/>
       <use xlink:href="#DejaVuSans-11" transform="translate(63.625 0)"/>
       <use xlink:href="#DejaVuSans-15" transform="translate(95.40625 0)"/>
      </g>
     </g>
    </g>
   </g>
   <g id="line2d_29">
    <path d="M 62.260866 206.481047 
L 157.373057 206.481047 
L 158.30648 52.184865 
L 347.597434 52.184865 
L 348.421432 129.332956 
L 537.821946 129.332956 
L 537.821946 129.332956 
" clip-path="url(#p70c070ca50)" style="fill: none; stroke: #e41a1c; stroke-width: 2; stroke-linecap: square"/>
   </g>
   <g id="line2d_30">
    <path d="M 62.260866 206.481047 
L 62.308423 205.063594 
L 62.421266 207.592823 
L 63.039068 206.575546 
L 64.585992 206.021394 
L 65.267184 206.770124 
L 65.567151 206.306955 
L 65.859924 206.260794 
L 66.184806 207.43815 
L 66.491324 205.871372 
L 66.823654 206.991927 
L 68.77749 206.634762 
L 69.848878 205.479521 
L 70.222434 206.565896 
L 70.78747 205.997006 
L 71.048923 205.791618 
L 71.435762 206.375478 
L 72.529167 206.729176 
L 73.390201 206.208387 
L 74.06615 207.021848 
L 74.344214 206.40094 
L 76.232138 206.015817 
L 88.203926 206.50171 
L 88.598913 206.205509 
L 88.959852 207.674788 
L 89.599132 206.210607 
L 90.749177 207.181133 
L 91.049505 205.807226 
L 91.800011 206.4409 
L 93.059675 206.656118 
L 100.87934 207.043013 
L 102.076737 205.60161 
L 103.239137 206.524196 
L 108.419834 206.220991 
L 109.710768 206.817375 
L 110.212013 206.906513 
L 110.578271 205.937271 
L 111.327687 206.640036 
L 111.752304 207.208778 
L 112.124763 206.154761 
L 113.660034 206.728065 
L 114.067728 206.277307 
L 114.455194 207.378442 
L 115.332629 206.918214 
L 117.093843 206.498399 
L 122.406164 206.743483 
L 122.765548 205.704857 
L 123.090497 206.046857 
L 123.450089 207.25198 
L 124.243503 206.685271 
L 124.651765 206.473048 
L 125.066408 207.513123 
L 125.446379 206.444092 
L 125.846022 205.595284 
L 126.210393 206.46968 
L 134.198374 206.404549 
L 135.198076 205.878378 
L 135.841712 205.210878 
L 136.583279 206.676079 
L 136.851015 206.276766 
L 137.350659 207.037251 
L 143.661111 206.738687 
L 144.055616 207.509137 
L 144.399818 206.825852 
L 145.856448 206.486912 
L 147.629055 206.692739 
L 147.989922 206.255806 
L 148.35179 207.779792 
L 148.72254 205.825717 
L 149.41835 207.054339 
L 149.758672 206.283959 
L 151.000559 206.402211 
L 152.406074 206.669403 
L 153.499363 205.565328 
L 153.889671 206.128989 
L 155.647048 206.307823 
L 156.741631 206.824272 
L 157.12242 206.646836 
L 157.216884 207.199099 
L 157.373167 212.182236 
L 157.373268 191.090618 
L 157.373542 182.054624 
L 157.375152 230.944634 
L 158.30648 206.406036 
L 158.488107 205.713774 
L 158.993566 207.129497 
L 159.310689 206.320142 
L 160.253631 206.757748 
L 160.519544 207.278307 
L 161.25712 206.69812 
L 166.337974 199.692694 
L 169.292118 190.11221 
L 170.542391 186.120784 
L 186.86174 102.430068 
L 200.590157 56.435164 
L 204.214015 50.312124 
L 206.657232 45.913124 
L 206.998764 46.539953 
L 207.399015 47.107282 
L 209.074183 44.919711 
L 214.694871 41.552252 
L 215.903314 41.209492 
L 222.93194 41.822266 
L 224.637797 41.504555 
L 226.084045 42.295562 
L 228.000525 42.93244 
L 228.842699 43.576451 
L 229.887269 44.348653 
L 231.131722 43.906168 
L 232.895217 45.922094 
L 233.247784 44.684199 
L 233.597122 44.632779 
L 234.912247 46.051309 
L 236.568304 46.103055 
L 238.648558 47.740834 
L 240.205988 47.866166 
L 242.395564 49.574524 
L 242.733918 48.211895 
L 243.179804 49.402928 
L 244.177194 48.663194 
L 244.605984 49.201226 
L 246.166749 49.02777 
L 246.558838 50.325151 
L 247.338868 49.630895 
L 249.126085 50.738217 
L 250.973978 50.977022 
L 251.820915 51.501373 
L 252.244752 51.006498 
L 253.08121 51.744955 
L 255.405095 51.720581 
L 257.04083 51.581371 
L 257.827777 53.008112 
L 258.245735 52.517102 
L 259.942146 52.201732 
L 261.306833 53.026917 
L 262.596898 52.787891 
L 265.654369 52.887742 
L 266.714653 53.772628 
L 267.075772 52.316179 
L 267.824368 53.172084 
L 269.414384 52.826158 
L 270.714905 52.940837 
L 275.707302 53.23954 
L 277.59417 52.857042 
L 278.903658 53.403503 
L 284.935092 52.781848 
L 285.380707 52.394144 
L 285.797362 52.906778 
L 286.138637 53.425388 
L 286.895666 52.848095 
L 288.195178 53.069318 
L 290.835605 53.099813 
L 291.201073 52.131526 
L 291.584691 53.294172 
L 292.400174 53.077441 
L 292.730139 51.467696 
L 293.068113 52.330883 
L 294.705393 53.228192 
L 296.058221 52.494196 
L 296.519145 52.523204 
L 296.889824 51.490103 
L 297.263192 52.41776 
L 298.545418 52.298992 
L 300.295496 52.084844 
L 300.668921 52.997449 
L 301.039919 52.608734 
L 301.414013 51.810016 
L 301.795811 52.384038 
L 309.187009 51.982185 
L 310.436235 51.903886 
L 312.368093 52.489628 
L 313.979438 52.139131 
L 315.982982 51.680626 
L 317.4897 51.980202 
L 318.799995 51.82731 
L 321.141734 52.104035 
L 324.132689 52.734543 
L 324.517239 51.500094 
L 324.878472 51.923994 
L 325.684027 52.396414 
L 326.961929 51.515566 
L 327.343493 52.74102 
L 327.722131 52.115503 
L 329.407026 52.03779 
L 329.763915 52.316951 
L 330.117764 50.9344 
L 330.490157 52.2412 
L 332.229511 51.974389 
L 334.580219 51.872024 
L 335.412308 51.500248 
L 336.124412 52.747898 
L 336.550188 52.546117 
L 338.165446 51.9581 
L 338.942816 52.915245 
L 339.382163 52.271025 
L 340.072389 52.825828 
L 340.460779 52.21631 
L 343.19568 53.374606 
L 344.750962 51.610162 
L 345.959274 52.29472 
L 347.468215 51.517345 
L 347.551938 50.281152 
L 347.597032 57.776184 
L 347.597434 52.636609 
L 347.597703 82.851616 
L 347.59795 17.854506 
L 348.421432 53.371506 
L 350.159848 51.913251 
L 354.976502 54.30289 
L 357.058713 56.243205 
L 360.467205 61.818403 
L 362.382445 66.373965 
L 362.83879 66.808647 
L 365.039839 72.920687 
L 366.301084 75.600523 
L 368.670004 82.222615 
L 370.321983 86.801776 
L 374.78942 98.428393 
L 375.134325 98.050042 
L 378.384433 106.689853 
L 379.261302 108.30704 
L 383.667456 117.301126 
L 392.079019 128.910177 
L 392.480636 128.582243 
L 403.192703 135.114673 
L 404.394448 134.592554 
L 404.861271 135.51693 
L 405.220085 135.043045 
L 406.494939 134.79656 
L 406.98217 135.456299 
L 407.510214 134.826568 
L 409.171737 135.025485 
L 409.517669 134.317109 
L 409.859694 135.339533 
L 411.019959 134.937251 
L 411.751979 133.938291 
L 412.2482 134.264483 
L 413.256971 134.06279 
L 413.583108 133.755604 
L 413.922749 134.567641 
L 453.170323 128.618185 
L 453.937796 129.664859 
L 455.136141 128.652502 
L 461.796589 128.683627 
L 462.144116 130.040589 
L 462.850583 129.096078 
L 464.662149 129.276269 
L 465.477379 128.690021 
L 465.841926 130.27243 
L 467.024212 128.728283 
L 471.958365 129.606664 
L 474.34664 128.820464 
L 474.731072 129.616358 
L 475.53546 129.048559 
L 476.56996 129.28434 
L 477.947371 128.670018 
L 479.968553 129.564964 
L 480.343138 128.432368 
L 480.707073 129.46729 
L 483.90297 129.020213 
L 484.663394 129.707459 
L 485.114847 129.119315 
L 487.075064 129.842615 
L 487.485446 128.728566 
L 487.867321 129.16258 
L 489.092235 129.456881 
L 492.849082 129.197334 
L 493.24148 128.515358 
L 493.636867 128.867013 
L 494.909483 129.585201 
L 496.145341 129.050964 
L 497.499053 129.419631 
L 510.706238 129.705754 
L 511.063636 128.413788 
L 511.809391 129.360586 
L 515.928486 130.185009 
L 516.295754 129.028634 
L 517.098329 129.473797 
L 518.359021 129.572381 
L 525.864055 129.340887 
L 526.320656 128.871843 
L 526.770265 129.509567 
L 527.176963 129.622067 
L 527.549167 128.406204 
L 528.335466 128.986859 
L 529.827774 129.148866 
L 531.071506 128.689418 
L 531.535542 129.287158 
L 531.961368 128.808099 
L 532.417571 128.41318 
L 532.784521 129.644351 
L 533.565818 129.154909 
L 533.964581 129.86232 
L 534.348184 129.42849 
L 535.654415 129.122907 
L 536.061034 129.734052 
L 536.473634 129.273207 
L 537.821946 129.005437 
L 537.821946 129.005437 
" clip-path="url(#p70c070ca50)" style="fill: none; stroke: #377eb8; stroke-width: 2; stroke-linecap: square"/>
   </g>
   <g id="line2d_31">
    <path d="M 62.260866 206.481047 
L 63.577667 206.158145 
L 65.267184 206.61879 
L 65.567151 207.204771 
L 65.859924 206.978339 
L 66.184806 206.072524 
L 66.823654 206.611562 
L 67.936392 206.592527 
L 69.143673 205.820437 
L 69.479114 206.320009 
L 70.513488 207.424729 
L 71.435762 205.905936 
L 71.746079 206.992548 
L 72.529167 206.283295 
L 73.76844 205.870276 
L 74.06615 205.520442 
L 74.344214 206.182906 
L 74.706627 207.007096 
L 75.466069 206.279766 
L 79.757704 207.182911 
L 80.381974 205.861346 
L 80.672575 206.150678 
L 82.095592 206.976027 
L 84.891339 207.175724 
L 85.130514 205.386455 
L 85.703569 206.184524 
L 86.841088 206.518138 
L 87.193525 205.826894 
L 87.525729 206.253467 
L 87.871081 207.029781 
L 88.598913 206.486378 
L 89.323883 206.645389 
L 90.498844 207.775933 
L 91.800011 206.460919 
L 96.078247 206.312968 
L 97.66882 206.591233 
L 98.12711 206.31527 
L 98.431143 207.393816 
L 98.980702 205.83675 
L 100.000981 206.511488 
L 105.607257 206.641753 
L 107.032837 206.738953 
L 108.843387 206.229914 
L 110.578271 206.518274 
L 112.124763 206.415575 
L 114.837684 206.576448 
L 120.362485 206.191036 
L 120.664146 207.335301 
L 121.252948 206.681213 
L 124.651765 206.16524 
L 125.846022 206.379373 
L 126.854835 205.68918 
L 127.772941 206.779739 
L 128.101931 206.584095 
L 128.853605 205.912905 
L 129.200322 206.519574 
L 130.521571 206.954208 
L 131.659071 206.253318 
L 133.027259 206.868718 
L 134.198374 206.33269 
L 135.198076 207.126436 
L 136.851015 205.379736 
L 138.141537 206.945789 
L 139.653801 206.3931 
L 140.076189 206.254828 
L 140.404492 207.295037 
L 141.066857 206.54771 
L 142.238953 206.012622 
L 142.927166 206.882278 
L 143.274078 206.392867 
L 145.152024 206.047696 
L 145.513995 206.788979 
L 146.303673 206.299758 
L 148.72254 206.697696 
L 149.758672 205.971917 
L 151.348774 207.015396 
L 152.761583 206.247459 
L 157.12242 206.212751 
L 157.216884 205.676566 
L 157.372993 207.224126 
L 157.373268 230.647946 
L 157.373542 191.284622 
L 158.30648 205.661476 
L 158.993566 205.997393 
L 158.653866 205.38659 
L 159.151067 205.755934 
L 160.253631 203.350253 
L 160.519544 203.595331 
L 161.520866 203.137005 
L 162.590289 201.841963 
L 162.880041 202.369681 
L 163.141971 201.26326 
L 168.002705 197.833929 
L 174.235154 194.627727 
L 175.80872 194.490573 
L 177.118971 193.472887 
L 177.941461 194.220328 
L 179.188694 192.443938 
L 179.965923 192.701822 
L 180.827471 191.849467 
L 182.282674 191.504207 
L 193.452564 189.812447 
L 194.20842 190.547989 
L 194.575534 189.809801 
L 206.312867 189.549324 
L 206.657232 190.403385 
L 207.399015 189.931821 
L 209.074183 189.229846 
L 209.455634 190.272378 
L 209.859675 189.758612 
L 210.6561 189.493127 
L 211.979947 190.525099 
L 212.86987 190.173855 
L 227.60836 190.712917 
L 228.842699 191.087233 
L 229.887269 190.647368 
L 231.986466 191.248571 
L 232.895217 190.82627 
L 233.247784 191.648387 
L 233.597122 190.293923 
L 240.205988 191.224437 
L 242.021032 191.205777 
L 242.395564 191.858824 
L 242.733918 191.206758 
L 246.166749 191.241918 
L 247.338868 191.163226 
L 248.699645 191.356168 
L 249.892773 191.822977 
L 250.25173 190.356837 
L 250.973978 191.263885 
L 255.020594 191.611656 
L 256.226559 191.024851 
L 257.453194 191.106414 
L 258.676589 191.165211 
L 259.942146 191.24903 
L 262.175189 190.683489 
L 262.596898 191.398415 
L 263.056232 190.790628 
L 266.714653 191.407677 
L 267.075772 192.162868 
L 267.415627 190.864833 
L 269.414384 191.510164 
L 270.714905 190.681274 
L 272.503223 191.224584 
L 276.885154 190.2758 
L 277.236691 191.688754 
L 277.993876 191.101088 
L 281.611224 191.088242 
L 284.08302 191.211659 
L 291.584691 191.157676 
L 292.00123 191.547246 
L 292.400174 190.720869 
L 296.889824 191.416368 
L 298.110677 190.620651 
L 299.857752 191.339648 
L 304.491468 190.573038 
L 304.87788 191.218099 
L 305.354479 190.414596 
L 309.187009 191.661767 
L 310.436235 190.555226 
L 310.838057 190.869615 
L 311.564314 191.336725 
L 311.94622 190.721293 
L 312.368093 191.280703 
L 313.618821 191.061204 
L 313.979438 190.259323 
L 314.72516 190.67807 
L 315.982982 191.064264 
L 317.4897 191.731958 
L 317.832801 191.029213 
L 318.318342 191.28323 
L 319.731545 191.148639 
L 321.629615 190.611424 
L 322.963289 191.104286 
L 324.517239 190.165144 
L 325.684027 191.085829 
L 327.722131 190.914438 
L 328.163248 190.637309 
L 328.575088 191.804325 
L 329.407026 191.210421 
L 329.763915 190.531322 
L 330.490157 190.97569 
L 333.048164 192.011199 
L 333.807531 190.690574 
L 334.172331 190.887975 
L 336.124412 191.31123 
L 339.382163 191.069295 
L 339.72874 191.826011 
L 340.072389 190.680699 
L 340.460779 191.40583 
L 341.131017 190.279734 
L 341.494082 190.850745 
L 342.361966 191.342789 
L 343.602046 190.485782 
L 344.37658 191.46695 
L 344.750962 190.398196 
L 345.131832 191.171648 
L 347.390204 191.377452 
L 347.468215 191.195647 
L 347.597032 186.850265 
L 347.597434 194.533712 
L 347.597703 201.203708 
L 347.59795 182.841946 
L 348.421432 191.409235 
L 348.75168 191.338677 
L 349.112391 192.338058 
L 349.776151 191.81946 
L 351.669658 192.369773 
L 352.409697 193.164762 
L 357.058713 194.831389 
L 357.48473 194.652769 
L 357.885193 195.573296 
L 358.420998 195.112729 
L 374.440108 198.949187 
L 374.78942 198.057788 
L 375.134325 198.7842 
L 376.719204 199.242815 
L 377.109501 199.860196 
L 377.463407 198.998552 
L 380.865097 199.272262 
L 382.134068 199.158605 
L 382.51677 199.664078 
L 382.897728 198.761049 
L 383.667456 199.264174 
L 384.046991 199.672595 
L 384.426798 198.446844 
L 384.781488 199.70708 
L 386.513694 199.651469 
L 389.60788 199.63783 
L 391.6681 199.623936 
L 392.958525 199.242147 
L 394.052677 199.923315 
L 395.358059 199.542156 
L 396.698724 199.503744 
L 400.771642 199.313001 
L 401.118311 198.608286 
L 401.461729 199.047805 
L 402.398232 199.001722 
L 403.192703 198.329527 
L 404.394448 199.366375 
L 406.98217 198.990952 
L 408.55007 199.150476 
L 412.2482 199.07502 
L 412.589356 199.790399 
L 412.927311 199.322513 
L 413.256971 198.248309 
L 413.583108 199.610348 
L 413.922749 199.224156 
L 414.361541 198.49767 
L 414.772153 199.111569 
L 416.912893 199.123001 
L 417.62164 198.541119 
L 418.021021 199.131806 
L 421.500665 198.68793 
L 423.719973 198.88421 
L 424.931614 198.623594 
L 427.727431 199.129376 
L 428.561996 198.489791 
L 429.358253 199.363815 
L 430.710965 198.823748 
L 436.74228 198.479587 
L 438.065343 198.686774 
L 453.569263 198.206816 
L 454.325376 198.230661 
L 455.591239 198.903763 
L 462.144116 198.446932 
L 463.311317 198.299969 
L 464.20207 198.859664 
L 465.477379 198.572229 
L 465.841926 199.285208 
L 466.596682 198.871837 
L 467.431466 198.477542 
L 467.82732 199.128382 
L 468.196425 199.611584 
L 468.557563 198.699155 
L 473.119417 197.927505 
L 474.34664 199.058733 
L 475.53546 198.587237 
L 475.87164 199.561296 
L 476.56996 198.647073 
L 479.968553 198.902803 
L 480.707073 198.540134 
L 481.119865 198.93682 
L 482.292837 199.41044 
L 483.487166 198.352461 
L 488.690506 198.967882 
L 489.092235 199.446261 
L 489.455565 198.555344 
L 491.573953 198.866834 
L 494.909483 199.095814 
L 496.145341 198.265537 
L 497.499053 198.614436 
L 500.079125 198.406964 
L 500.404658 199.594066 
L 501.164697 198.736607 
L 504.944133 199.14756 
L 506.496787 197.891531 
L 507.953167 198.559419 
L 508.375834 198.276473 
L 508.786047 198.896893 
L 509.501566 199.430627 
L 510.706238 198.671549 
L 511.063636 199.100989 
L 511.424245 198.315824 
L 517.098329 198.502282 
L 526.320656 198.554019 
L 529.453209 198.974741 
L 530.631901 199.086924 
L 531.961368 198.648945 
L 533.565818 198.076756 
L 535.149959 198.882206 
L 537.689118 198.508778 
L 537.821946 199.351928 
L 537.821946 199.351928 
" clip-path="url(#p70c070ca50)" style="fill: none; stroke: #4daf4a; stroke-width: 2; stroke-linecap: square"/>
   </g>
   <g id="patch_3">
    <path d="M 38.482813 241.599141 
L 38.482813 7.2 
" style="fill: none; stroke: #7f7f7f; stroke-width: 1.8; stroke-linejoin: miter; stroke-linecap: square"/>
   </g>
   <g id="patch_4">
    <path d="M 38.482813 241.599141 
L 561.6 241.599141 
" style="fill: none; stroke: #7f7f7f; stroke-width: 1.8; stroke-linejoin: miter; stroke-linecap: square"/>
   </g>
   <g id="legend_1">
    <g id="line2d_32">
     <path d="M 483.814062 20.298438 
L 493.814062 20.298438 
L 503.814062 20.298438 
" style="fill: none; stroke: #e41a1c; stroke-width: 2; stroke-linecap: square"/>
    </g>
    <g id="text_16">
     <!-- setpoint -->
     <g style="fill: #7f7f7f" transform="translate(511.814062 23.798438) scale(0.1 -0.1)">
      <defs>
       <path id="DejaVuSans-53" d="M 1159 525 
L 1159 -1331 
L 581 -1331 
L 581 3500 
L 1159 3500 
L 1159 2969 
Q 1341 3281 1617 3432 
Q 1894 3584 2278 3584 
Q 2916 3584 3314 3078 
Q 3713 2572 3713 1747 
Q 3713 922 3314 415 
Q 2916 -91 2278 -91 
Q 1894 -91 1617 61 
Q 1341 213 1159 525 
z
M 3116 1747 
Q 3116 2381 2855 2742 
Q 2594 3103 2138 3103 
Q 1681 3103 1420 2742 
Q 1159 2381 1159 1747 
Q 1159 1113 1420 752 
Q 1681 391 2138 391 
Q 2594 391 2855 752 
Q 3116 1113 3116 1747 
z
" transform="scale(0.015625)"/>
       <path id="DejaVuSans-52" d="M 1959 3097 
Q 1497 3097 1228 2736 
Q 959 2375 959 1747 
Q 959 1119 1226 758 
Q 1494 397 1959 397 
Q 2419 397 2687 759 
Q 2956 1122 2956 1747 
Q 2956 2369 2687 2733 
Q 2419 3097 1959 3097 
z
M 1959 3584 
Q 2709 3584 3137 3096 
Q 3566 2609 3566 1747 
Q 3566 888 3137 398 
Q 2709 -91 1959 -91 
Q 1206 -91 779 398 
Q 353 888 353 1747 
Q 353 2609 779 3096 
Q 1206 3584 1959 3584 
z
" transform="scale(0.015625)"/>
       <path id="DejaVuSans-51" d="M 3513 2113 
L 3513 0 
L 2938 0 
L 2938 2094 
Q 2938 2591 2744 2837 
Q 2550 3084 2163 3084 
Q 1697 3084 1428 2787 
Q 1159 2491 1159 1978 
L 1159 0 
L 581 0 
L 581 3500 
L 1159 3500 
L 1159 2956 
Q 1366 3272 1645 3428 
Q 1925 3584 2291 3584 
Q 2894 3584 3203 3211 
Q 3513 2838 3513 2113 
z
" transform="scale(0.015625)"/>
      </defs>
      <use xlink:href="#DejaVuSans-56"/>
      <use xlink:href="#DejaVuSans-48" transform="translate(52.09375 0)"/>
      <use xlink:href="#DejaVuSans-57" transform="translate(113.625 0)"/>
      <use xlink:href="#DejaVuSans-53" transform="translate(152.828125 0)"/>
      <use xlink:href="#DejaVuSans-52" transform="translate(216.3125 0)"/>
      <use xlink:href="#DejaVuSans-4c" transform="translate(277.5 0)"/>
      <use xlink:href="#DejaVuSans-51" transform="translate(305.28125 0)"/>
      <use xlink:href="#DejaVuSans-57" transform="translate(368.65625 0)"/>
     </g>
    </g>
    <g id="line2d_33">
     <path d="M 483.814062 35.299219 
L 493.814062 35.299219 
L 503.814062 35.299219 
" style="fill: none; stroke: #377eb8; stroke-width: 2; stroke-linecap: square"/>
    </g>
    <g id="text_17">
     <!-- plant 1 -->
     <g style="fill: #7f7f7f" transform="translate(511.814062 38.799219) scale(0.1 -0.1)">
      <defs>
       <path id="DejaVuSans-4f" d="M 603 4863 
L 1178 4863 
L 1178 0 
L 603 0 
L 603 4863 
z
" transform="scale(0.015625)"/>
       <path id="DejaVuSans-44" d="M 2194 1759 
Q 1497 1759 1228 1600 
Q 959 1441 959 1056 
Q 959 750 1161 570 
Q 1363 391 1709 391 
Q 2188 391 2477 730 
Q 2766 1069 2766 1631 
L 2766 1759 
L 2194 1759 
z
M 3341 1997 
L 3341 0 
L 2766 0 
L 2766 531 
Q 2569 213 2275 61 
Q 1981 -91 1556 -91 
Q 1019 -91 701 211 
Q 384 513 384 1019 
Q 384 1609 779 1909 
Q 1175 2209 1959 2209 
L 2766 2209 
L 2766 2266 
Q 2766 2663 2505 2880 
Q 2244 3097 1772 3097 
Q 1472 3097 1187 3025 
Q 903 2953 641 2809 
L 641 3341 
Q 956 3463 1253 3523 
Q 1550 3584 1831 3584 
Q 2591 3584 2966 3190 
Q 3341 2797 3341 1997 
z
" transform="scale(0.015625)"/>
      </defs>
      <use xlink:href="#DejaVuSans-53"/>
      <use xlink:href="#DejaVuSans-4f" transform="translate(63.484375 0)"/>
      <use xlink:href="#DejaVuSans-44" transform="translate(91.265625 0)"/>
      <use xlink:href="#DejaVuSans-51" transform="translate(152.546875 0)"/>
      <use xlink:href="#DejaVuSans-57" transform="translate(215.921875 0)"/>
      <use xlink:href="#DejaVuSans-3" transform="translate(255.125 0)"/>
      <use xlink:href="#DejaVuSans-14" transform="translate(286.90625 0)"/>
     </g>
    </g>
    <g id="line2d_34">
     <path d="M 483.814062 50.3 
L 493.814062 50.3 
L 503.814062 50.3 
" style="fill: none; stroke: #4daf4a; stroke-width: 2; stroke-linecap: square"/>
    </g>
    <g id="text_18">
     <!-- plant 2 -->
     <g style="fill: #7f7f7f" transform="translate(511.814062 53.8) scale(0.1 -0.1)">
      <use xlink:href="#DejaVuSans-53"/>
      <use xlink:href="#DejaVuSans-4f" transform="translate(63.484375 0)"/>
      <use xlink:href="#DejaVuSans-44" transform="translate(91.265625 0)"/>
      <use xlink:href="#DejaVuSans-51" transform="translate(152.546875 0)"/>
      <use xlink:href="#DejaVuSans-57" transform="translate(215.921875 0)"/>
      <use xlink:href="#DejaVuSans-3" transform="translate(255.125 0)"/>
      <use xlink:href="#DejaVuSans-15" transform="translate(286.90625 0)"/>
     </g>
    </g>
   </g>
  </g>
 </g>
 <defs>
  <clipPath id="p70c070ca50">
   <rect x="38.482813" y="7.2" width="523.117187" height="234.399141"/>
  </clipPath>
 </defs>
</svg>
