<?xml version="1.0" encoding="utf-8" standalone="no"?>
<!DOCTYPE svg PUBLIC "-//W3C//DTD SVG 1.1//EN"
  "http://www.w3.org/Graphics/SVG/1.1/DTD/svg11.dtd">
<svg xmlns:xlink="http://www.w3.org/1999/xlink" width="568.8pt" height="280.8pt" viewBox="0 0 568.8 280.8" xmlns="http://www.w3.org/2000/svg" version="1.1">
 <metadata>
  <rdf:RDF xmlns:dc="http://purl.org/dc/elements/1.1/" xmlns:cc="http://creativecommons.org/ns#" xmlns:rdf="http://www.w3.org/1999/02/22-rdf-syntax-ns#">
   <cc:Work>
    <dc:type rdf:resource="http://purl.org/dc/dcmitype/StillImage"/>
    <dc:date>2026-07-11T02:19:09.619728</dc:date>
    <dc:format>image/svg+xml</dc:format>
    <dc:creator>
     <cc:Agent>
      <dc:title>Matplotlib v3.11.0, https://matplotlib.org/</dc:title>
     </cc:Agent>
    </dc:creator>
   </cc:Work>
  </rdf:RDF>
 </metadata>
 <defs>
  <style type="text/css">*{stroke-linejoin: round; stroke-linecap: butt}</style>
 </defs>
 <g id="figure_1">
  <g id="patch_1">
   <path d="M 0 280.8 
L 568.8 280.8 
L 568.8 0 
L 0 0 
L 0 280.8 
z
" style="fill: none"/>
  </g>
  <g id="axes_1">
   <g id="patch_2">
    <path d="M 38.482813 241.599141 
L 561.6 241.599141 
L 561.6 7.2 
L 38.482813 7.2 
L 38.482813 241.599141 
z
" style="fill: none"/>
   </g>
   <g id="matplotlib.axis_1">
    <g id="xtick_1">
     <g id="line2d_1">
      <path d="M 62.260866 241.599141 
L 62.260866 7.2 
" clip-path="url(#p860e358aa1)" style="fill: none; stroke-dasharray: 2.96,1.28; stroke-dashoffset: 0; stroke: #7f7f7f; stroke-opacity: 0.6; stroke-width: 0.8"/>
     </g>
     <g id="line2d_2">
      <defs>
       <path id="mc8ead9e2d9" d="M 0 0 
L 0 3.5 
" style="stroke: #7f7f7f; stroke-width: 1.8"/>
      </defs>
      <g>
       <use xlink:href="#mc8ead9e2d9" x="62.260866" y="241.599141" style="fill: #7f7f7f; stroke: #7f7f7f; stroke-width: 1.8"/>
      </g>
     </g>
     <g id="text_1">
      <!-- 0 -->
      <g style="fill: #7f7f7f" transform="translate(59.079616 256.196797) scale(0.1 -0.1)">
       <defs>
        <path id="DejaVuSans-13" d="M 2034 4250 
Q 1547 4250 1301 3770 
Q 1056 3291 1056 2328 
Q 1056 1369 1301 889 
Q 1547 409 2034 409 
Q 2525 409 2770 889 
Q 3016 1369 3016 2328 
Q 3016 3291 2770 3770 
Q 2525 4250 2034 4250 
z
M 2034 4750 
Q 2819 4750 3233 4129 
Q 3647 3509 3647 2328 
Q 3647 1150 3233 529 
Q 2819 -91 2034 -91 
Q 1250 -91 836 529 
Q 422 1150 422 2328 
Q 422 3509 836 4129 
Q 1250 4750 2034 4750 
z
" transform="scale(0.015625)"/>
       </defs>
       <use xlink:href="#DejaVuSans-13"/>
      </g>
     </g>
    </g>
    <g id="xtick_2">
     <g id="line2d_3">
      <path d="M 157.373082 241.599141 
L 157.373082 7.2 
" clip-path="url(#p860e358aa1)" style="fill: none; stroke-dasharray: 2.96,1.28; stroke-dashoffset: 0; stroke: #7f7f7f; stroke-opacity: 0.6; stroke-width: 0.8"/>
     </g>
     <g id="line2d_4">
      <g>
       <use xlink:href="#mc8ead9e2d9" x="157.373082" y="241.599141" style="fill: #7f7f7f; stroke: #7f7f7f; stroke-width: 1.8"/>
      </g>
     </g>
     <g id="text_2">
      <!-- 20 -->
      <g style="fill: #7f7f7f" transform="translate(151.010582 256.196797) scale(0.1 -0.1)">
       <defs>
        <path id="DejaVuSans-15" d="M 1228 531 
L 3431 531 
L 3431 0 
L 469 0 
L 469 531 
Q 828 903 1448 1529 
Q 2069 2156 2228 2338 
Q 2531 2678 2651 2914 
Q 2772 3150 2772 3378 
Q 2772 3750 2511 3984 
Q 2250 4219 1831 4219 
Q 1534 4219 1204 4116 
Q 875 4013 500 3803 
L 500 4441 
Q 881 4594 1212 4672 
Q 1544 4750 1819 4750 
Q 2544 4750 2975 4387 
Q 3406 4025 3406 3419 
Q 3406 3131 3298 2873 
Q 3191 2616 2906 2266 
Q 2828 2175 2409 1742 
Q 1991 1309 1228 531 
z
" transform="scale(0.015625)"/>
       </defs>
       <use xlink:href="#DejaVuSans-15"/>
       <use xlink:href="#DejaVuSans-13" transform="translate(63.625 0)"/>
      </g>
     </g>
    </g>
    <g id="xtick_3">
     <g id="line2d_5">
      <path d="M 252.485298 241.599141 
L 252.485298 7.2 
" clip-path="url(#p860e358aa1)" style="fill: none; stroke-dasharray: 2.96,1.28; stroke-dashoffset: 0; stroke: #7f7f7f; stroke-opacity: 0.6; stroke-width: 0.8"/>
     </g>
     <g id="line2d_6">
      <g>
       <use xlink:href="#mc8ead9e2d9" x="252.485298" y="241.599141" style="fill: #7f7f7f; stroke: #7f7f7f; stroke-width: 1.8"/>
      </g>
     </g>
     <g id="text_3">
      <!-- 40 -->
      <g style="fill: #7f7f7f" transform="translate(246.122798 256.196797) scale(0.1 -0.1)">
       <defs>
        <path id="DejaVuSans-17" d="M 2419 4116 
L 825 1625 
L 2419 1625 
L 2419 4116 
z
M 2253 4666 
L 3047 4666 
L 3047 1625 
L 3713 1625 
L 3713 1100 
L 3047 1100 
L 3047 0 
L 2419 0 
L 2419 1100 
L 313 1100 
L 313 1709 
L 2253 4666 
z
" transform="scale(0.015625)"/>
       </defs>
       <use xlink:href="#DejaVuSans-17"/>
       <use xlink:href="#DejaVuSans-13" transform="translate(63.625 0)"/>
      </g>
     </g>
    </g>
    <g id="xtick_4">
     <g id="line2d_7">
      <path d="M 347.597514 241.599141 
L 347.597514 7.2 
" clip-path="url(#p860e358aa1)" style="fill: none; stroke-dasharray: 2.96,1.28; stroke-dashoffset: 0; stroke: #7f7f7f; stroke-opacity: 0.6; stroke-width: 0.8"/>
     </g>
     <g id="line2d_8">
      <g>
       <use xlink:href="#mc8ead9e2d9" x="347.597514" y="241.599141" style="fill: #7f7f7f; stroke: #7f7f7f; stroke-width: 1.8"/>
      </g>
     </g>
     <g id="text_4">
      <!-- 60 -->
      <g style="fill: #7f7f7f" transform="translate(341.235014 256.196797) scale(0.1 -0.1)">
       <defs>
        <path id="DejaVuSans-19" d="M 2113 2584 
Q 1688 2584 1439 2293 
Q 1191 2003 1191 1497 
Q 1191 994 1439 701 
Q 1688 409 2113 409 
Q 2538 409 2786 701 
Q 3034 994 3034 1497 
Q 3034 2003 2786 2293 
Q 2538 2584 2113 2584 
z
M 3366 4563 
L 3366 3988 
Q 3128 4100 2886 4159 
Q 2644 4219 2406 4219 
Q 1781 4219 1451 3797 
Q 1122 3375 1075 2522 
Q 1259 2794 1537 2939 
Q 1816 3084 2150 3084 
Q 2853 3084 3261 2657 
Q 3669 2231 3669 1497 
Q 3669 778 3244 343 
Q 2819 -91 2113 -91 
Q 1303 -91 875 529 
Q 447 1150 447 2328 
Q 447 3434 972 4092 
Q 1497 4750 2381 4750 
Q 2619 4750 2861 4703 
Q 3103 4656 3366 4563 
z
" transform="scale(0.015625)"/>
       </defs>
       <use xlink:href="#DejaVuSans-19"/>
       <use xlink:href="#DejaVuSans-13" transform="translate(63.625 0)"/>
      </g>
     </g>
    </g>
    <g id="xtick_5">
     <g id="line2d_9">
      <path d="M 442.70973 241.599141 
L 442.70973 7.2 
" clip-path="url(#p860e358aa1)" style="fill: none; stroke-dasharray: 2.96,1.28; stroke-dashoffset: 0; stroke: #7f7f7f; stroke-opacity: 0.6; stroke-width: 0.8"/>
     </g>
     <g id="line2d_10">
      <g>
       <use xlink:href="#mc8ead9e2d9" x="442.70973" y="241.599141" style="fill: #7f7f7f; stroke: #7f7f7f; stroke-width: 1.8"/>
      </g>
     </g>
     <g id="text_5">
      <!-- 80 -->
      <g style="fill: #7f7f7f" transform="translate(436.34723 256.196797) scale(0.1 -0.1)">
       <defs>
        <path id="DejaVuSans-1b" d="M 2034 2216 
Q 1584 2216 1326 1975 
Q 1069 1734 1069 1313 
Q 1069 891 1326 650 
Q 1584 409 2034 409 
Q 2484 409 2743 651 
Q 3003 894 3003 1313 
Q 3003 1734 2745 1975 
Q 2488 2216 2034 2216 
z
M 1403 2484 
Q 997 2584 770 2862 
Q 544 3141 544 3541 
Q 544 4100 942 4425 
Q 1341 4750 2034 4750 
Q 2731 4750 3128 4425 
Q 3525 4100 3525 3541 
Q 3525 3141 3298 2862 
Q 3072 2584 2669 2484 
Q 3125 2378 3379 2068 
Q 3634 1759 3634 1313 
Q 3634 634 3220 271 
Q 2806 -91 2034 -91 
Q 1263 -91 848 271 
Q 434 634 434 1313 
Q 434 1759 690 2068 
Q 947 2378 1403 2484 
z
M 1172 3481 
Q 1172 3119 1398 2916 
Q 1625 2713 2034 2713 
Q 2441 2713 2670 2916 
Q 2900 3119 2900 3481 
Q 2900 3844 2670 4047 
Q 2441 4250 2034 4250 
Q 1625 4250 1398 4047 
Q 1172 3844 1172 3481 
z
" transform="scale(0.015625)"/>
       </defs>
       <use xlink:href="#DejaVuSans-1b"/>
       <use xlink:href="#DejaVuSans-13" transform="translate(63.625 0)"/>
      </g>
     </g>
    </g>
    <g id="xtick_6">
     <g id="line2d_11">
      <path d="M 537.821946 241.599141 
L 537.821946 7.2 
" clip-path="url(#p860e358aa1)" style="fill: none; stroke-dasharray: 2.96,1.28; stroke-dashoffset: 0; stroke: #7f7f7f; stroke-opacity: 0.6; stroke-width: 0.8"/>
     </g>
     <g id="line2d_12">
      <g>
       <use xlink:href="#mc8ead9e2d9" x="537.821946" y="241.599141" style="fill: #7f7f7f; stroke: #7f7f7f; stroke-width: 1.8"/>
      </g>
     </g>
     <g id="text_6">
      <!-- 100 -->
      <g style="fill: #7f7f7f" transform="translate(528.278196 256.196797) scale(0.1 -0.1)">
       <defs>
        <path id="DejaVuSans-14" d="M 794 531 
L 1825 531 
L 1825 4091 
L 703 3866 
L 703 4441 
L 1819 4666 
L 2450 4666 
L 2450 531 
L 3481 531 
L 3481 0 
L 794 0 
L 794 531 
z
" transform="scale(0.015625)"/>
       </defs>
       <use xlink:href="#DejaVuSans-14"/>
       <use xlink:href="#DejaVuSans-13" transform="translate(63.625 0)"/>
       <use xlink:href="#DejaVuSans-13" transform="translate(127.25 0)"/>
      </g>
     </g>
    </g>
    <g id="text_7">
     <!-- time [s] -->
     <g style="fill: #7f7f7f" transform="translate(278.710859 270.957422) scale(0.11 -0.11)">
      <defs>
       <path id="DejaVuSans-57" d="M 1172 4494 
L 1172 3500 
L 2356 3500 
L 2356 3053 
L 1172 3053 
L 1172 1153 
Q 1172 725 1289 603 
Q 1406 481 1766 481 
L 2356 481 
L 2356 0 
L 1766 0 
Q 1100 0 847 248 
Q 594 497 594 1153 
L 594 3053 
L 172 3053 
L 172 3500 
L 594 3500 
L 594 4494 
L 1172 4494 
z
" transform="scale(0.015625)"/>
       <path id="DejaVuSans-4c" d="M 603 3500 
L 1178 3500 
L 1178 0 
L 603 0 
L 603 3500 
z
M 603 4863 
L 1178 4863 
L 1178 4134 
L 603 4134 
L 603 4863 
z
" transform="scale(0.015625)"/>
       <path id="DejaVuSans-50" d="M 3328 2828 
Q 3544 3216 3844 3400 
Q 4144 3584 4550 3584 
Q 5097 3584 5394 3201 
Q 5691 2819 5691 2113 
L 5691 0 
L 5113 0 
L 5113 2094 
Q 5113 2597 4934 2840 
Q 4756 3084 4391 3084 
Q 3944 3084 3684 2787 
Q 3425 2491 3425 1978 
L 3425 0 
L 2847 0 
L 2847 2094 
Q 2847 2600 2669 2842 
Q 2491 3084 2119 3084 
Q 1678 3084 1418 2786 
Q 1159 2488 1159 1978 
L 1159 0 
L 581 0 
L 581 3500 
L 1159 3500 
L 1159 2956 
Q 1356 3278 1631 3431 
Q 1906 3584 2284 3584 
Q 2666 3584 2933 3390 
Q 3200 3197 3328 2828 
z
" transform="scale(0.015625)"/>
       <path id="DejaVuSans-48" d="M 3597 1894 
L 3597 1613 
L 953 1613 
Q 991 1019 1311 708 
Q 1631 397 2203 397 
Q 2534 397 2845 478 
Q 3156 559 3463 722 
L 3463 178 
Q 3153 47 2828 -22 
Q 2503 -91 2169 -91 
Q 1331 -91 842 396 
Q 353 884 353 1716 
Q 353 2575 817 3079 
Q 1281 3584 2069 3584 
Q 2775 3584 3186 3129 
Q 3597 2675 3597 1894 
z
M 3022 2063 
Q 3016 2534 2758 2815 
Q 2500 3097 2075 3097 
Q 1594 3097 1305 2825 
Q 1016 2553 972 2059 
L 3022 2063 
z
" transform="scale(0.015625)"/>
       <path id="DejaVuSans-3" transform="scale(0.015625)"/>
       <path id="DejaVuSans-3e" d="M 550 4863 
L 1875 4863 
L 1875 4416 
L 1125 4416 
L 1125 -397 
L 1875 -397 
L 1875 -844 
L 550 -844 
L 550 4863 
z
" transform="scale(0.015625)"/>
       <path id="DejaVuSans-56" d="M 2834 3397 
L 2834 2853 
Q 2591 2978 2328 3040 
Q 2066 3103 1784 3103 
Q 1356 3103 1142 2972 
Q 928 2841 928 2578 
Q 928 2378 1081 2264 
Q 1234 2150 1697 2047 
L 1894 2003 
Q 2506 1872 2764 1633 
Q 3022 1394 3022 966 
Q 3022 478 2636 193 
Q 2250 -91 1575 -91 
Q 1294 -91 989 -36 
Q 684 19 347 128 
L 347 722 
Q 666 556 975 473 
Q 1284 391 1588 391 
Q 1994 391 2212 530 
Q 2431 669 2431 922 
Q 2431 1156 2273 1281 
Q 2116 1406 1581 1522 
L 1381 1569 
Q 847 1681 609 1914 
Q 372 2147 372 2553 
Q 372 3047 722 3315 
Q 1072 3584 1716 3584 
Q 2034 3584 2315 3537 
Q 2597 3491 2834 3397 
z
" transform="scale(0.015625)"/>
       <path id="DejaVuSans-40" d="M 1947 4863 
L 1947 -844 
L 622 -844 
L 622 -397 
L 1369 -397 
L 1369 4416 
L 622 4416 
L 622 4863 
L 1947 4863 
z
" transform="scale(0.015625)"/>
      </defs>
      <use xlink:href="#DejaVuSans-57"/>
      <use xlink:href="#DejaVuSans-4c" transform="translate(39.203125 0)"/>
      <use xlink:href="#DejaVuSans-50" transform="translate(66.984375 0)"/>
      <use xlink:href="#DejaVuSans-48" transform="translate(164.390625 0)"/>
      <use xlink:href="#DejaVuSans-3" transform="translate(225.921875 0)"/>
      <use xlink:href="#DejaVuSans-3e" transform="translate(257.703125 0)"/>
      <use xlink:href="#DejaVuSans-56" transform="translate(296.71875 0)"/>
      <use xlink:href="#DejaVuSans-40" transform="translate(348.8125 0)"/>
     </g>
    </g>
   </g>
   <g id="matplotlib.axis_2">
    <g id="ytick_1">
     <g id="line2d_13">
      <path d="M 38.482813 222.185118 
L 561.6 222.185118 
" clip-path="url(#p860e358aa1)" style="fill: none; stroke-dasharray: 2.96,1.28; stroke-dashoffset: 0; stroke: #7f7f7f; stroke-opacity: 0.6; stroke-width: 0.8"/>
     </g>
     <g id="line2d_14">
      <defs>
       <path id="m10addb0aca" d="M 0 0 
L -3.5 0 
" style="stroke: #7f7f7f; stroke-width: 1.8"/>
      </defs>
      <g>
       <use xlink:href="#m10addb0aca" x="38.482813" y="222.185118" style="fill: #7f7f7f; stroke: #7f7f7f; stroke-width: 1.8"/>
      </g>
     </g>
     <g id="text_8">
      <!-- −0.2 -->
      <g style="fill: #7f7f7f" transform="translate(7.2 225.983947) scale(0.1 -0.1)">
       <defs>
        <path id="DejaVuSans-c9c" d="M 678 2272 
L 4684 2272 
L 4684 1741 
L 678 1741 
L 678 2272 
z
" transform="scale(0.015625)"/>
        <path id="DejaVuSans-11" d="M 684 794 
L 1344 794 
L 1344 0 
L 684 0 
L 684 794 
z
" transform="scale(0.015625)"/>
       </defs>
       <use xlink:href="#DejaVuSans-c9c"/>
       <use xlink:href="#DejaVuSans-13" transform="translate(83.796875 0)"/>
       <use xlink:href="#DejaVuSans-11" transform="translate(147.421875 0)"/>
       <use xlink:href="#DejaVuSans-15" transform="translate(179.203125 0)"/>
      </g>
     </g>
    </g>
    <g id="ytick_2">
     <g id="line2d_15">
      <path d="M 38.482813 194.07588 
L 561.6 194.07588 
" clip-path="url(#p860e358aa1)" style="fill: none; stroke-dasharray: 2.96,1.28; stroke-dashoffset: 0; stroke: #7f7f7f; stroke-opacity: 0.6; stroke-width: 0.8"/>
     </g>
     <g id="line2d_16">
      <g>
       <use xlink:href="#m10addb0aca" x="38.482813" y="194.07588" style="fill: #7f7f7f; stroke: #7f7f7f; stroke-width: 1.8"/>
      </g>
     </g>
     <g id="text_9">
      <!-- 0.0 -->
      <g style="fill: #7f7f7f" transform="translate(15.579688 197.874708) scale(0.1 -0.1)">
       <use xlink:href="#DejaVuSans-13"/>
       <use xlink:href="#DejaVuSans-11" transform="translate(63.625 0)"/>
       <use xlink:href="#DejaVuSans-13" transform="translate(95.40625 0)"/>
      </g>
     </g>
    </g>
    <g id="ytick_3">
     <g id="line2d_17">
      <path d="M 38.482813 165.966641 
L 561.6 165.966641 
" clip-path="url(#p860e358aa1)" style="fill: none; stroke-dasharray: 2.96,1.28; stroke-dashoffset: 0; stroke: #7f7f7f; stroke-opacity: 0.6; stroke-width: 0.8"/>
     </g>
     <g id="line2d_18">
      <g>
       <use xlink:href="#m10addb0aca" x="38.482813" y="165.966641" style="fill: #7f7f7f; stroke: #7f7f7f; stroke-width: 1.8"/>
      </g>
     </g>
     <g id="text_10">
      <!-- 0.2 -->
      <g style="fill: #7f7f7f" transform="translate(15.579688 169.765469) scale(0.1 -0.1)">
       <use xlink:href="#DejaVuSans-13"/>
       <use xlink:href="#DejaVuSans-11" transform="translate(63.625 0)"/>
       <use xlink:href="#DejaVuSans-15" transform="translate(95.40625 0)"/>
      </g>
     </g>
    </g>
    <g id="ytick_4">
     <g id="line2d_19">
      <path d="M 38.482813 137.857402 
L 561.6 137.857402 
" clip-path="url(#p860e358aa1)" style="fill: none; stroke-dasharray: 2.96,1.28; stroke-dashoffset: 0; stroke: #7f7f7f; stroke-opacity: 0.6; stroke-width: 0.8"/>
     </g>
     <g id="line2d_20">
      <g>
       <use xlink:href="#m10addb0aca" x="38.482813" y="137.857402" style="fill: #7f7f7f; stroke: #7f7f7f; stroke-width: 1.8"/>
      </g>
     </g>
     <g id="text_11">
      <!-- 0.4 -->
      <g style="fill: #7f7f7f" transform="translate(15.579688 141.65623) scale(0.1 -0.1)">
       <use xlink:href="#DejaVuSans-13"/>
       <use xlink:href="#DejaVuSans-11" transform="translate(63.625 0)"/>
       <use xlink:href="#DejaVuSans-17" transform="translate(95.40625 0)"/>
      </g>
     </g>
    </g>
    <g id="ytick_5">
     <g id="line2d_21">
      <path d="M 38.482813 109.748163 
L 561.6 109.748163 
" clip-path="url(#p860e358aa1)" style="fill: none; stroke-dasharray: 2.96,1.28; stroke-dashoffset: 0; stroke: #7f7f7f; stroke-opacity: 0.6; stroke-width: 0.8"/>
     </g>
     <g id="line2d_22">
      <g>
       <use xlink:href="#m10addb0aca" x="38.482813" y="109.748163" style="fill: #7f7f7f; stroke: #7f7f7f; stroke-width: 1.8"/>
      </g>
     </g>
     <g id="text_12">
      <!-- 0.6 -->
      <g style="fill: #7f7f7f" transform="translate(15.579688 113.546991) scale(0.1 -0.1)">
       <use xlink:href="#DejaVuSans-13"/>
       <use xlink:href="#DejaVuSans-11" transform="translate(63.625 0)"/>
       <use xlink:href="#DejaVuSans-19" transform="translate(95.40625 0)"/>
      </g>
     </g>
    </g>
    <g id="ytick_6">
     <g id="line2d_23">
      <path d="M 38.482813 81.638925 
L 561.6 81.638925 
" clip-path="url(#p860e358aa1)" style="fill: none; stroke-dasharray: 2.96,1.28; stroke-dashoffset: 0; stroke: #7f7f7f; stroke-opacity: 0.6; stroke-width: 0.8"/>
     </g>
     <g id="line2d_24">
      <g>
       <use xlink:href="#m10addb0aca" x="38.482813" y="81.638925" style="fill: #7f7f7f; stroke: #7f7f7f; stroke-width: 1.8"/>
      </g>
     </g>
     <g id="text_13">
      <!-- 0.8 -->
      <g style="fill: #7f7f7f" transform="translate(15.579688 85.437753) scale(0.1 -0.1)">
       <use xlink:href="#DejaVuSans-13"/>
       <use xlink:href="#DejaVuSans-11" transform="translate(63.625 0)"/>
       <use xlink:href="#DejaVuSans-1b" transform="translate(95.40625 0)"/>
      </g>
     </g>
    </g>
    <g id="ytick_7">
     <g id="line2d_25">
      <path d="M 38.482813 53.529686 
L 561.6 53.529686 
" clip-path="url(#p860e358aa1)" style="fill: none; stroke-dasharray: 2.96,1.28; stroke-dashoffset: 0; stroke: #7f7f7f; stroke-opacity: 0.6; stroke-width: 0.8"/>
     </g>
     <g id="line2d_26">
      <g>
       <use xlink:href="#m10addb0aca" x="38.482813" y="53.529686" style="fill: #7f7f7f; stroke: #7f7f7f; stroke-width: 1.8"/>
      </g>
     </g>
     <g id="text_14">
      <!-- 1.0 -->
      <g style="fill: #7f7f7f" transform="translate(15.579688 57.328514) scale(0.1 -0.1)">
       <use xlink:href="#DejaVuSans-14"/>
       <use xlink:href="#DejaVuSans-11" transform="translate(63.625 0)"/>
       <use xlink:href="#DejaVuSans-13" transform="translate(95.40625 0)"/>
      </g>
     </g>
    </g>
    <g id="ytick_8">
     <g id="line2d_27">
      <path d="M 38.482813 25.420447 
L 561.6 25.420447 
" clip-path="url(#p860e358aa1)" style="fill: none; stroke-dasharray: 2.96,1.28; stroke-dashoffset: 0; stroke: #7f7f7f; stroke-opacity: 0.6; stroke-width: 0.8"/>
     </g>
     <g id="line2d_28">
      <g>
       <use xlink:href="#m10addb0aca" x="38.482813" y="25.420447" style="fill: #7f7f7f; stroke: #7f7f7f; stroke-width: 1.8"/>
      </g>
     </g>
     <g id="text_15">
      <!-- 1.2 -->
      <g style="fill: #7f7f7f" transform="translate(15.579688 29.219275) scale(0.1 -0.1)">
       <use xlink:href="#DejaVuSans-14"/>
       <use xlink:href="#DejaVuSans-11" transform="translate(63.625 0)"/>
       <use xlink:href="#DejaVuSans-15" transform="translate(95.40625 0)"/>
      </g>
     </g>
    </g>
   </g>
   <g id="line2d_29">
    <path d="M 62.260866 194.07588 
L 157.373081 194.07588 
L 158.34374 53.529686 
L 347.597513 53.529686 
L 348.369322 123.802783 
L 537.821946 123.802783 
L 537.821946 123.802783 
" clip-path="url(#p860e358aa1)" style="fill: none; stroke: #e41a1c; stroke-width: 2; stroke-linecap: square"/>
   </g>
   <g id="line2d_30">
    <path d="M 62.260866 194.07588 
L 62.308423 191.941528 
L 62.603597 194.972497 
L 63.241238 193.704148 
L 65.007929 193.97035 
L 67.538839 194.251278 
L 73.37778 193.852121 
L 73.690396 195.056988 
L 73.992951 194.000501 
L 74.78761 193.223253 
L 75.143475 194.477896 
L 75.855294 193.52934 
L 77.575455 194.551318 
L 79.43746 193.801607 
L 81.474591 193.934248 
L 82.468991 193.537577 
L 82.790577 194.447174 
L 83.378639 193.836492 
L 85.698327 194.631788 
L 86.703933 193.712223 
L 90.410707 193.739954 
L 91.439908 194.479003 
L 91.790274 193.323852 
L 92.514458 193.853328 
L 94.04337 194.202408 
L 94.702865 193.598092 
L 95.003125 194.529165 
L 95.891115 193.919103 
L 96.168778 193.603389 
L 96.467707 194.673996 
L 99.450156 193.76766 
L 99.756481 195.004879 
L 100.394482 193.559342 
L 141.015937 194.42103 
L 141.373263 193.512078 
L 142.267755 193.929175 
L 144.055536 194.492395 
L 144.890503 193.922098 
L 146.063896 194.550405 
L 147.259399 193.554203 
L 149.802843 194.407146 
L 150.188094 193.685968 
L 150.58893 193.92592 
L 151.270187 193.33097 
L 151.630765 194.369032 
L 153.194453 193.7678 
L 154.602786 193.8939 
L 156.305379 193.840039 
L 156.657975 194.532795 
L 157.351655 193.906431 
L 157.373081 207.359253 
L 157.373187 189.998048 
L 157.373285 230.944634 
L 157.376134 184.43754 
L 158.34374 193.480372 
L 158.516611 192.958766 
L 158.700096 195.012207 
L 159.333577 193.47751 
L 159.536831 193.383831 
L 159.724893 194.138937 
L 160.281028 194.893854 
L 160.48072 194.002739 
L 161.556743 192.798903 
L 161.785764 193.050833 
L 163.083557 193.155737 
L 164.491208 190.55696 
L 164.826925 190.894509 
L 172.492501 166.865915 
L 175.699965 152.441129 
L 187.848544 94.681007 
L 188.254659 94.434672 
L 190.646116 84.588664 
L 195.363226 69.507224 
L 198.034949 63.369375 
L 200.156101 58.464349 
L 207.742054 47.121813 
L 208.617647 47.537791 
L 209.843223 45.064967 
L 211.123536 45.187747 
L 218.890052 43.790825 
L 220.273613 44.391217 
L 221.066429 43.60166 
L 221.511678 43.91097 
L 222.6496 45.011246 
L 224.06458 43.997768 
L 226.554746 44.612694 
L 227.354767 45.089731 
L 232.366355 46.827688 
L 234.362924 47.620547 
L 235.546591 47.989676 
L 238.524639 48.960964 
L 244.190715 50.755544 
L 245.491706 51.479144 
L 247.872903 51.507438 
L 249.486132 52.964379 
L 251.041375 51.557525 
L 252.289772 53.131318 
L 252.681442 52.212443 
L 253.080032 52.73584 
L 254.179662 53.784059 
L 255.314007 53.55775 
L 261.034617 53.831047 
L 261.925697 54.083949 
L 263.966242 53.795325 
L 267.169199 53.429648 
L 268.404901 54.172635 
L 269.164399 53.203129 
L 269.532695 53.881931 
L 271.05697 54.231838 
L 271.859495 53.58585 
L 272.272633 54.655731 
L 274.331513 54.324615 
L 275.634363 54.977634 
L 276.879863 53.510768 
L 278.340722 54.979906 
L 280.290195 53.670266 
L 281.981088 53.986251 
L 283.596288 53.273364 
L 284.702383 54.507314 
L 285.905678 54.142485 
L 288.213606 54.572175 
L 289.548622 53.512357 
L 290.855671 54.220465 
L 292.622334 53.713035 
L 295.877405 53.977472 
L 296.269251 53.460296 
L 296.679004 54.280067 
L 297.540889 53.819802 
L 298.753977 53.424837 
L 300.867897 53.519136 
L 302.163113 53.582851 
L 303.558922 53.731851 
L 308.940956 53.158224 
L 309.588768 54.374796 
L 309.939525 53.056345 
L 311.280023 53.943089 
L 311.599517 53.002671 
L 311.973961 53.492459 
L 312.861391 53.819389 
L 313.643997 53.377825 
L 314.445828 53.798893 
L 314.857064 53.402339 
L 318.777104 53.383826 
L 320.398367 53.320501 
L 328.235243 53.707226 
L 329.847425 53.063174 
L 330.603435 53.734402 
L 331.000241 53.003392 
L 331.363272 53.529257 
L 337.041148 53.413367 
L 337.883434 53.244734 
L 339.509783 53.689771 
L 347.582806 52.981577 
L 347.597784 17.854506 
L 347.597513 66.75755 
L 348.369322 53.745985 
L 349.550529 53.410528 
L 351.158828 53.882946 
L 352.341709 53.730073 
L 353.510872 54.177878 
L 354.322363 54.262105 
L 355.481619 55.574944 
L 358.960163 59.91306 
L 369.690338 83.738761 
L 373.958403 93.824864 
L 375.189094 96.38904 
L 378.330026 103.462783 
L 380.999758 107.843934 
L 383.392471 112.612989 
L 393.033317 123.355481 
L 398.990873 127.115354 
L 400.323599 127.801967 
L 401.254153 127.901354 
L 402.637062 128.739705 
L 406.614809 129.282324 
L 408.089931 128.412659 
L 408.43663 129.513703 
L 408.849154 128.835682 
L 410.005369 128.526224 
L 411.635871 128.686187 
L 412.919265 128.665847 
L 419.164186 127.379869 
L 420.669847 127.687637 
L 423.150402 126.705898 
L 424.479347 126.579603 
L 425.271519 125.968845 
L 425.703417 127.066679 
L 426.098209 126.298535 
L 428.750784 125.620929 
L 429.876181 125.614087 
L 430.732059 125.997045 
L 437.626795 124.576433 
L 439.056213 124.420543 
L 439.439698 123.770116 
L 439.833424 124.447606 
L 458.606105 123.344143 
L 459.280408 122.795659 
L 459.690712 123.698436 
L 461.515111 123.349543 
L 465.15184 123.428556 
L 465.574015 122.626922 
L 465.955194 123.911304 
L 468.370165 123.27407 
L 471.119601 123.57094 
L 473.928454 123.793801 
L 475.055979 123.557189 
L 475.430184 122.596223 
L 475.806928 123.541653 
L 478.710343 123.360301 
L 479.059058 124.732583 
L 479.409766 123.390385 
L 481.176456 123.887865 
L 481.541898 122.825806 
L 482.271597 123.382253 
L 486.475198 123.91367 
L 486.859656 122.849706 
L 487.62098 123.30531 
L 515.465634 124.021922 
L 517.132085 123.328196 
L 518.35423 124.161485 
L 519.613126 123.381188 
L 520.911291 123.721058 
L 523.258467 123.402881 
L 524.444433 123.96452 
L 525.719192 123.336336 
L 527.42268 124.020566 
L 528.706935 123.250821 
L 530.022152 123.883867 
L 531.740286 123.411014 
L 532.158128 124.417866 
L 532.535326 123.82091 
L 532.902589 123.333641 
L 533.305963 124.390327 
L 535.175652 123.163693 
L 535.542968 124.292185 
L 536.323235 123.972354 
L 537.821946 124.221334 
L 537.821946 124.221334 
" clip-path="url(#p860e358aa1)" style="fill: none; stroke: #377eb8; stroke-width: 2; stroke-linecap: square"/>
   </g>
   <g id="line2d_31">
    <path d="M 62.260866 194.07588 
L 62.377908 193.032643 
L 62.484054 194.679988 
L 62.933818 193.937825 
L 64.154217 194.269913 
L 66.200286 194.327724 
L 70.79339 193.881867 
L 71.876754 194.264613 
L 75.5049 193.66703 
L 76.891644 194.350239 
L 77.575455 193.507486 
L 77.899133 194.26831 
L 79.99816 195.155993 
L 80.20495 193.214136 
L 81.10301 193.999463 
L 82.166318 194.504006 
L 83.078324 193.582597 
L 83.378639 194.219364 
L 84.995373 193.663251 
L 85.341405 194.433827 
L 85.698327 193.769692 
L 86.038967 193.44824 
L 86.346998 193.840246 
L 87.402344 194.589235 
L 88.607373 194.026291 
L 94.385375 193.546969 
L 95.003125 194.043455 
L 95.63517 195.085741 
L 95.891115 194.046656 
L 97.197803 193.834159 
L 98.456199 194.216636 
L 99.450156 193.591899 
L 100.075751 194.570773 
L 100.394482 193.87565 
L 101.146912 194.376054 
L 101.488874 193.579529 
L 103.305367 193.749318 
L 103.611628 194.975529 
L 104.194632 193.452099 
L 105.716863 194.694999 
L 106.338993 193.634336 
L 106.62259 194.676731 
L 107.584381 194.296667 
L 109.212593 194.150722 
L 109.531506 194.947416 
L 110.141491 194.154084 
L 111.636631 193.581405 
L 112.943056 194.234767 
L 114.015066 193.952527 
L 115.201749 194.63929 
L 115.531024 193.895181 
L 116.879696 193.460852 
L 117.138559 194.893467 
L 117.829419 194.332606 
L 119.508272 193.973544 
L 121.473186 194.280328 
L 122.662015 193.844469 
L 128.415766 194.111372 
L 130.653188 194.073118 
L 130.950364 194.773516 
L 131.614304 194.077723 
L 135.195858 194.155461 
L 136.438421 193.805919 
L 137.634192 194.220537 
L 143.62568 193.817966 
L 146.063896 194.050087 
L 146.828269 194.12721 
L 147.647941 194.126461 
L 148.690195 193.634831 
L 150.188094 194.210636 
L 157.054332 193.750894 
L 157.302403 193.339954 
L 157.373081 204.688145 
L 157.373187 219.666402 
L 157.380621 184.98509 
L 158.34374 193.188742 
L 159.018071 193.943016 
L 159.724893 191.769156 
L 159.913029 193.020121 
L 160.681291 191.618831 
L 163.083557 189.696587 
L 163.884537 189.807758 
L 165.142641 187.790701 
L 165.89953 187.601064 
L 168.255966 186.182503 
L 171.35368 184.810329 
L 172.914673 183.646563 
L 176.659479 182.557633 
L 178.603765 181.683368 
L 181.978967 180.933311 
L 183.161998 180.319695 
L 184.487262 180.09983 
L 185.716591 179.559983 
L 186.987756 179.847895 
L 189.131048 179.022422 
L 192.785118 179.473325 
L 194.494861 178.308526 
L 196.250505 179.100596 
L 197.65122 178.421699 
L 199.215391 179.149249 
L 200.661732 178.800413 
L 202.812338 178.561164 
L 204.832377 178.690219 
L 205.69938 179.159293 
L 206.082137 179.532813 
L 206.439995 178.463703 
L 207.240041 178.949685 
L 209.013366 178.099205 
L 210.351822 178.989283 
L 211.710845 179.209529 
L 212.94203 179.243425 
L 217.174574 178.90831 
L 218.40945 179.284624 
L 220.273613 178.955349 
L 220.664755 179.857413 
L 221.066429 179.068256 
L 224.06458 179.846728 
L 224.492575 179.230979 
L 224.915027 179.784596 
L 230.278082 179.999728 
L 231.485429 179.685545 
L 232.01758 180.032631 
L 232.366355 179.260846 
L 232.710922 179.161972 
L 233.074905 180.203881 
L 233.973196 179.793397 
L 235.546591 179.749486 
L 236.44813 179.953601 
L 236.832014 179.628429 
L 237.213964 180.289363 
L 238.944113 180.319797 
L 240.296429 179.771863 
L 242.633331 180.200356 
L 247.186086 179.951166 
L 248.271916 180.52736 
L 249.069628 179.853722 
L 249.486132 180.055143 
L 250.330925 180.18826 
L 251.041375 179.656955 
L 252.289772 180.239137 
L 263.219968 179.523314 
L 263.607964 179.093125 
L 264.774327 180.692744 
L 266.328537 179.677981 
L 266.71332 180.31587 
L 268.793654 180.23786 
L 270.319291 180.937572 
L 271.859495 179.98122 
L 273.949962 179.538714 
L 275.139482 179.612226 
L 277.666424 180.321412 
L 278.005195 179.422797 
L 278.340722 180.696982 
L 280.72481 179.993671 
L 281.079594 180.746118 
L 281.430325 180.10496 
L 304.11182 180.058033 
L 304.446776 179.171574 
L 304.777551 180.378921 
L 305.143254 179.440621 
L 308.503924 180.391834 
L 308.940956 179.714616 
L 309.266601 180.952516 
L 309.588768 180.169532 
L 347.577093 180.324727 
L 347.597784 210.600319 
L 347.60138 166.104612 
L 348.369322 180.649509 
L 349.550529 180.60551 
L 351.977518 182.066547 
L 352.700642 181.737622 
L 353.084558 182.097083 
L 360.794437 184.141483 
L 362.071908 184.483949 
L 370.161777 186.400522 
L 376.829924 187.592803 
L 377.954902 186.786426 
L 387.091992 188.112953 
L 387.45462 187.160001 
L 387.828692 187.487238 
L 389.72988 187.846678 
L 391.012922 187.128328 
L 391.41005 188.470975 
L 392.149942 188.232971 
L 393.501344 187.259237 
L 395.927778 188.193163 
L 397.378809 187.85992 
L 401.688178 187.259255 
L 402.637062 187.485004 
L 417.605662 187.485809 
L 417.983434 186.608114 
L 418.371507 187.62171 
L 426.567611 186.943099 
L 427.015101 187.646654 
L 427.827366 187.072931 
L 432.265749 187.215309 
L 433.386645 186.7898 
L 435.782515 186.980071 
L 436.454892 188.016987 
L 436.797156 186.755053 
L 437.626795 186.983494 
L 441.140261 186.773614 
L 442.277294 187.250417 
L 443.170204 186.632927 
L 444.367327 187.642629 
L 444.72027 186.601605 
L 445.48623 187.203762 
L 446.408238 187.342157 
L 446.743079 186.400244 
L 447.456123 186.817115 
L 448.745866 186.977342 
L 449.859315 187.596918 
L 452.39065 186.603327 
L 453.171462 187.659176 
L 453.544703 186.769973 
L 457.27032 186.918459 
L 458.276181 188.048725 
L 458.943888 186.59282 
L 459.690712 187.386138 
L 462.711517 186.808397 
L 464.437244 187.225843 
L 464.801177 186.416067 
L 465.15184 186.953864 
L 467.135588 187.407558 
L 471.119601 187.051173 
L 475.430184 187.485841 
L 477.153395 186.56684 
L 482.271597 186.889321 
L 482.670594 186.533493 
L 483.05329 187.29303 
L 485.678884 186.900516 
L 486.097689 186.544307 
L 486.475198 187.050321 
L 487.62098 187.339842 
L 488.877314 186.998784 
L 493.270537 187.097061 
L 495.766698 186.976242 
L 496.112559 187.732814 
L 496.873914 187.277576 
L 498.495609 186.605564 
L 499.745196 187.557594 
L 503.184649 186.761615 
L 504.312665 186.868115 
L 506.72428 187.432608 
L 507.895364 187.441422 
L 508.675018 186.790465 
L 509.083596 187.150901 
L 515.026362 187.332681 
L 516.739285 186.417571 
L 518.35423 187.058642 
L 520.472522 187.471187 
L 522.892091 186.691409 
L 524.86988 187.473191 
L 526.141916 186.85376 
L 534.794002 187.004597 
L 535.542968 186.389494 
L 535.916524 187.228944 
L 537.772476 186.817913 
L 537.821946 187.007617 
" clip-path="url(#p860e358aa1)" style="fill: none; stroke: #4daf4a; stroke-width: 2; stroke-linecap: square"/>
   </g>
   <g id="patch_3">
    <path d="M 38.482813 241.599141 
L 38.482813 7.2 
" style="fill: none; stroke: #7f7f7f; stroke-width: 1.8; stroke-linejoin: miter; stroke-linecap: square"/>
   </g>
   <g id="patch_4">
    <path d="M 38.482813 241.599141 
L 561.6 241.599141 
" style="fill: none; stroke: #7f7f7f; stroke-width: 1.8; stroke-linejoin: miter; stroke-linecap: square"/>
   </g>
   <g id="legend_1">
    <g id="line2d_32">
     <path d="M 483.814062 20.298438 
L 493.814062 20.298438 
L 503.814062 20.298438 
" style="fill: none; stroke: #e41a1c; stroke-width: 2; stroke-linecap: square"/>
    </g>
    <g id="text_16">
     <!-- setpoint -->
     <g style="fill: #7f7f7f" transform="translate(511.814062 23.798438) scale(0.1 -0.1)">
      <defs>
       <path id="DejaVuSans-53" d="M 1159 525 
L 1159 -1331 
L 581 -1331 
L 581 3500 
L 1159 3500 
L 1159 2969 
Q 1341 3281 1617 3432 
Q 1894 3584 2278 3584 
Q 2916 3584 3314 3078 
Q 3713 2572 3713 1747 
Q 3713 922 3314 415 
Q 2916 -91 2278 -91 
Q 1894 -91 1617 61 
Q 1341 213 1159 525 
z
M 3116 1747 
Q 3116 2381 2855 2742 
Q 2594 3103 2138 3103 
Q 1681 3103 1420 2742 
Q 1159 2381 1159 1747 
Q 1159 1113 1420 752 
Q 1681 391 2138 391 
Q 2594 391 2855 752 
Q 3116 1113 3116 1747 
z
" transform="scale(0.015625)"/>
       <path id="DejaVuSans-52" d="M 1959 3097 
Q 1497 3097 1228 2736 
Q 959 2375 959 1747 
Q 959 1119 1226 758 
Q 1494 397 1959 397 
Q 2419 397 2687 759 
Q 2956 1122 2956 1747 
Q 2956 2369 2687 2733 
Q 2419 3097 1959 3097 
z
M 1959 3584 
Q 2709 3584 3137 3096 
Q 3566 2609 3566 1747 
Q 3566 888 3137 398 
Q 2709 -91 1959 -91 
Q 1206 -91 779 398 
Q 353 888 353 1747 
Q 353 2609 779 3096 
Q 1206 3584 1959 3584 
z
" transform="scale(0.015625)"/>
       <path id="DejaVuSans-51" d="M 3513 2113 
L 3513 0 
L 2938 0 
L 2938 2094 
Q 2938 2591 2744 2837 
Q 2550 3084 2163 3084 
Q 1697 3084 1428 2787 
Q 1159 2491 1159 1978 
L 1159 0 
L 581 0 
L 581 3500 
L 1159 3500 
L 1159 2956 
Q 1366 3272 1645 3428 
Q 1925 3584 2291 3584 
Q 2894 3584 3203 3211 
Q 3513 2838 3513 2113 
z
" transform="scale(0.015625)"/>
      </defs>
      <use xlink:href="#DejaVuSans-56"/>
      <use xlink:href="#DejaVuSans-48" transform="translate(52.09375 0)"/>
      <use xlink:href="#DejaVuSans-57" transform="translate(113.625 0)"/>
      <use xlink:href="#DejaVuSans-53" transform="translate(152.828125 0)"/>
      <use xlink:href="#DejaVuSans-52" transform="translate(216.3125 0)"/>
      <use xlink:href="#DejaVuSans-4c" transform="translate(277.5 0)"/>
      <use xlink:href="#DejaVuSans-51" transform="translate(305.28125 0)"/>
      <use xlink:href="#DejaVuSans-57" transform="translate(368.65625 0)"/>
     </g>
    </g>
    <g id="line2d_33">
     <path d="M 483.814062 35.299219 
L 493.814062 35.299219 
L 503.814062 35.299219 
" style="fill: none; stroke: #377eb8; stroke-width: 2; stroke-linecap: square"/>
    </g>
    <g id="text_17">
     <!-- plant 1 -->
     <g style="fill: #7f7f7f" transform="translate(511.814062 38.799219) scale(0.1 -0.1)">
      <defs>
       <path id="DejaVuSans-4f" d="M 603 4863 
L 1178 4863 
L 1178 0 
L 603 0 
L 603 4863 
z
" transform="scale(0.015625)"/>
       <path id="DejaVuSans-44" d="M 2194 1759 
Q 1497 1759 1228 1600 
Q 959 1441 959 1056 
Q 959 750 1161 570 
Q 1363 391 1709 391 
Q 2188 391 2477 730 
Q 2766 1069 2766 1631 
L 2766 1759 
L 2194 1759 
z
M 3341 1997 
L 3341 0 
L 2766 0 
L 2766 531 
Q 2569 213 2275 61 
Q 1981 -91 1556 -91 
Q 1019 -91 701 211 
Q 384 513 384 1019 
Q 384 1609 779 1909 
Q 1175 2209 1959 2209 
L 2766 2209 
L 2766 2266 
Q 2766 2663 2505 2880 
Q 2244 3097 1772 3097 
Q 1472 3097 1187 3025 
Q 903 2953 641 2809 
L 641 3341 
Q 956 3463 1253 3523 
Q 1550 3584 1831 3584 
Q 2591 3584 2966 3190 
Q 3341 2797 3341 1997 
z
" transform="scale(0.015625)"/>
      </defs>
      <use xlink:href="#DejaVuSans-53"/>
      <use xlink:href="#DejaVuSans-4f" transform="translate(63.484375 0)"/>
      <use xlink:href="#DejaVuSans-44" transform="translate(91.265625 0)"/>
      <use xlink:href="#DejaVuSans-51" transform="translate(152.546875 0)"/>
      <use xlink:href="#DejaVuSans-57" transform="translate(215.921875 0)"/>
      <use xlink:href="#DejaVuSans-3" transform="translate(255.125 0)"/>
      <use xlink:href="#DejaVuSans-14" transform="translate(286.90625 0)"/>
     </g>
    </g>
    <g id="line2d_34">
     <path d="M 483.814062 50.3 
L 493.814062 50.3 
L 503.814062 50.3 
" style="fill: none; stroke: #4daf4a; stroke-width: 2; stroke-linecap: square"/>
    </g>
    <g id="text_18">
     <!-- plant 2 -->
     <g style="fill: #7f7f7f" transform="translate(511.814062 53.8) scale(0.1 -0.1)">
      <use xlink:href="#DejaVuSans-53"/>
      <use xlink:href="#DejaVuSans-4f" transform="translate(63.484375 0)"/>
      <use xlink:href="#DejaVuSans-44" transform="translate(91.265625 0)"/>
      <use xlink:href="#DejaVuSans-51" transform="translate(152.546875 0)"/>
      <use xlink:href="#DejaVuSans-57" transform="translate(215.921875 0)"/>
      <use xlink:href="#DejaVuSans-3" transform="translate(255.125 0)"/>
      <use xlink:href="#DejaVuSans-15" transform="translate(286.90625 0)"/>
     </g>
    </g>
   </g>
  </g>
 </g>
 <defs>
  <clipPath id="p860e358aa1">
   <rect x="38.482813" y="7.2" width="523.117187" height="234.399141"/>
  </clipPath>
 </defs>
</svg>
