<?xml version="1.0" encoding="utf-8" standalone="no"?>
<!DOCTYPE svg PUBLIC "-//W3C//DTD SVG 1.1//EN"
  "http://www.w3.org/Graphics/SVG/1.1/DTD/svg11.dtd">
<svg xmlns:xlink="http://www.w3.org/1999/xlink" width="568.8pt" height="280.8pt" viewBox="0 0 568.8 280.8" xmlns="http://www.w3.org/2000/svg" version="1.1">
 <metadata>
  <rdf:RDF xmlns:dc="http://purl.org/dc/elements/1.1/" xmlns:cc="http://creativecommons.org/ns#" xmlns:rdf="http://www.w3.org/1999/02/22-rdf-syntax-ns#">
   <cc:Work>
    <dc:type rdf:resource="http://purl.org/dc/dcmitype/StillImage"/>
    <dc:date>2026-06-19T13:19:37.493140</dc:date>
    <dc:format>image/svg+xml</dc:format>
    <dc:creator>
     <cc:Agent>
      <dc:title>Matplotlib v3.11.0, https://matplotlib.org/</dc:title>
     </cc:Agent>
    </dc:creator>
   </cc:Work>
  </rdf:RDF>
 </metadata>
 <defs>
  <style type="text/css">*{stroke-linejoin: round; stroke-linecap: butt}</style>
 </defs>
 <g id="figure_1">
  <g id="patch_1">
   <path d="M 0 280.8 
L 568.8 280.8 
L 568.8 0 
L 0 0 
L 0 280.8 
z
" style="fill: none"/>
  </g>
  <g id="axes_1">
   <g id="patch_2">
    <path d="M 38.482813 241.599141 
L 561.6 241.599141 
L 561.6 7.2 
L 38.482813 7.2 
L 38.482813 241.599141 
z
" style="fill: none"/>
   </g>
   <g id="matplotlib.axis_1">
    <g id="xtick_1">
     <g id="line2d_1">
      <path d="M 62.260866 241.599141 
L 62.260866 7.2 
" clip-path="url(#pb8b17124f7)" style="fill: none; stroke-dasharray: 2.96,1.28; stroke-dashoffset: 0; stroke: #7f7f7f; stroke-opacity: 0.6; stroke-width: 0.8"/>
     </g>
     <g id="line2d_2">
      <defs>
       <path id="m648be3b1b8" d="M 0 0 
L 0 3.5 
" style="stroke: #7f7f7f; stroke-width: 1.8"/>
      </defs>
      <g>
       <use xlink:href="#m648be3b1b8" x="62.260866" y="241.599141" style="fill: #7f7f7f; stroke: #7f7f7f; stroke-width: 1.8"/>
      </g>
     </g>
     <g id="text_1">
      <!-- 0 -->
      <g style="fill: #7f7f7f" transform="translate(59.079616 256.196797) scale(0.1 -0.1)">
       <defs>
        <path id="DejaVuSans-13" d="M 2034 4250 
Q 1547 4250 1301 3770 
Q 1056 3291 1056 2328 
Q 1056 1369 1301 889 
Q 1547 409 2034 409 
Q 2525 409 2770 889 
Q 3016 1369 3016 2328 
Q 3016 3291 2770 3770 
Q 2525 4250 2034 4250 
z
M 2034 4750 
Q 2819 4750 3233 4129 
Q 3647 3509 3647 2328 
Q 3647 1150 3233 529 
Q 2819 -91 2034 -91 
Q 1250 -91 836 529 
Q 422 1150 422 2328 
Q 422 3509 836 4129 
Q 1250 4750 2034 4750 
z
" transform="scale(0.015625)"/>
       </defs>
       <use xlink:href="#DejaVuSans-13"/>
      </g>
     </g>
    </g>
    <g id="xtick_2">
     <g id="line2d_3">
      <path d="M 157.373082 241.599141 
L 157.373082 7.2 
" clip-path="url(#pb8b17124f7)" style="fill: none; stroke-dasharray: 2.96,1.28; stroke-dashoffset: 0; stroke: #7f7f7f; stroke-opacity: 0.6; stroke-width: 0.8"/>
     </g>
     <g id="line2d_4">
      <g>
       <use xlink:href="#m648be3b1b8" x="157.373082" y="241.599141" style="fill: #7f7f7f; stroke: #7f7f7f; stroke-width: 1.8"/>
      </g>
     </g>
     <g id="text_2">
      <!-- 20 -->
      <g style="fill: #7f7f7f" transform="translate(151.010582 256.196797) scale(0.1 -0.1)">
       <defs>
        <path id="DejaVuSans-15" d="M 1228 531 
L 3431 531 
L 3431 0 
L 469 0 
L 469 531 
Q 828 903 1448 1529 
Q 2069 2156 2228 2338 
Q 2531 2678 2651 2914 
Q 2772 3150 2772 3378 
Q 2772 3750 2511 3984 
Q 2250 4219 1831 4219 
Q 1534 4219 1204 4116 
Q 875 4013 500 3803 
L 500 4441 
Q 881 4594 1212 4672 
Q 1544 4750 1819 4750 
Q 2544 4750 2975 4387 
Q 3406 4025 3406 3419 
Q 3406 3131 3298 2873 
Q 3191 2616 2906 2266 
Q 2828 2175 2409 1742 
Q 1991 1309 1228 531 
z
" transform="scale(0.015625)"/>
       </defs>
       <use xlink:href="#DejaVuSans-15"/>
       <use xlink:href="#DejaVuSans-13" transform="translate(63.625 0)"/>
      </g>
     </g>
    </g>
    <g id="xtick_3">
     <g id="line2d_5">
      <path d="M 252.485298 241.599141 
L 252.485298 7.2 
" clip-path="url(#pb8b17124f7)" style="fill: none; stroke-dasharray: 2.96,1.28; stroke-dashoffset: 0; stroke: #7f7f7f; stroke-opacity: 0.6; stroke-width: 0.8"/>
     </g>
     <g id="line2d_6">
      <g>
       <use xlink:href="#m648be3b1b8" x="252.485298" y="241.599141" style="fill: #7f7f7f; stroke: #7f7f7f; stroke-width: 1.8"/>
      </g>
     </g>
     <g id="text_3">
      <!-- 40 -->
      <g style="fill: #7f7f7f" transform="translate(246.122798 256.196797) scale(0.1 -0.1)">
       <defs>
        <path id="DejaVuSans-17" d="M 2419 4116 
L 825 1625 
L 2419 1625 
L 2419 4116 
z
M 2253 4666 
L 3047 4666 
L 3047 1625 
L 3713 1625 
L 3713 1100 
L 3047 1100 
L 3047 0 
L 2419 0 
L 2419 1100 
L 313 1100 
L 313 1709 
L 2253 4666 
z
" transform="scale(0.015625)"/>
       </defs>
       <use xlink:href="#DejaVuSans-17"/>
       <use xlink:href="#DejaVuSans-13" transform="translate(63.625 0)"/>
      </g>
     </g>
    </g>
    <g id="xtick_4">
     <g id="line2d_7">
      <path d="M 347.597514 241.599141 
L 347.597514 7.2 
" clip-path="url(#pb8b17124f7)" style="fill: none; stroke-dasharray: 2.96,1.28; stroke-dashoffset: 0; stroke: #7f7f7f; stroke-opacity: 0.6; stroke-width: 0.8"/>
     </g>
     <g id="line2d_8">
      <g>
       <use xlink:href="#m648be3b1b8" x="347.597514" y="241.599141" style="fill: #7f7f7f; stroke: #7f7f7f; stroke-width: 1.8"/>
      </g>
     </g>
     <g id="text_4">
      <!-- 60 -->
      <g style="fill: #7f7f7f" transform="translate(341.235014 256.196797) scale(0.1 -0.1)">
       <defs>
        <path id="DejaVuSans-19" d="M 2113 2584 
Q 1688 2584 1439 2293 
Q 1191 2003 1191 1497 
Q 1191 994 1439 701 
Q 1688 409 2113 409 
Q 2538 409 2786 701 
Q 3034 994 3034 1497 
Q 3034 2003 2786 2293 
Q 2538 2584 2113 2584 
z
M 3366 4563 
L 3366 3988 
Q 3128 4100 2886 4159 
Q 2644 4219 2406 4219 
Q 1781 4219 1451 3797 
Q 1122 3375 1075 2522 
Q 1259 2794 1537 2939 
Q 1816 3084 2150 3084 
Q 2853 3084 3261 2657 
Q 3669 2231 3669 1497 
Q 3669 778 3244 343 
Q 2819 -91 2113 -91 
Q 1303 -91 875 529 
Q 447 1150 447 2328 
Q 447 3434 972 4092 
Q 1497 4750 2381 4750 
Q 2619 4750 2861 4703 
Q 3103 4656 3366 4563 
z
" transform="scale(0.015625)"/>
       </defs>
       <use xlink:href="#DejaVuSans-19"/>
       <use xlink:href="#DejaVuSans-13" transform="translate(63.625 0)"/>
      </g>
     </g>
    </g>
    <g id="xtick_5">
     <g id="line2d_9">
      <path d="M 442.70973 241.599141 
L 442.70973 7.2 
" clip-path="url(#pb8b17124f7)" style="fill: none; stroke-dasharray: 2.96,1.28; stroke-dashoffset: 0; stroke: #7f7f7f; stroke-opacity: 0.6; stroke-width: 0.8"/>
     </g>
     <g id="line2d_10">
      <g>
       <use xlink:href="#m648be3b1b8" x="442.70973" y="241.599141" style="fill: #7f7f7f; stroke: #7f7f7f; stroke-width: 1.8"/>
      </g>
     </g>
     <g id="text_5">
      <!-- 80 -->
      <g style="fill: #7f7f7f" transform="translate(436.34723 256.196797) scale(0.1 -0.1)">
       <defs>
        <path id="DejaVuSans-1b" d="M 2034 2216 
Q 1584 2216 1326 1975 
Q 1069 1734 1069 1313 
Q 1069 891 1326 650 
Q 1584 409 2034 409 
Q 2484 409 2743 651 
Q 3003 894 3003 1313 
Q 3003 1734 2745 1975 
Q 2488 2216 2034 2216 
z
M 1403 2484 
Q 997 2584 770 2862 
Q 544 3141 544 3541 
Q 544 4100 942 4425 
Q 1341 4750 2034 4750 
Q 2731 4750 3128 4425 
Q 3525 4100 3525 3541 
Q 3525 3141 3298 2862 
Q 3072 2584 2669 2484 
Q 3125 2378 3379 2068 
Q 3634 1759 3634 1313 
Q 3634 634 3220 271 
Q 2806 -91 2034 -91 
Q 1263 -91 848 271 
Q 434 634 434 1313 
Q 434 1759 690 2068 
Q 947 2378 1403 2484 
z
M 1172 3481 
Q 1172 3119 1398 2916 
Q 1625 2713 2034 2713 
Q 2441 2713 2670 2916 
Q 2900 3119 2900 3481 
Q 2900 3844 2670 4047 
Q 2441 4250 2034 4250 
Q 1625 4250 1398 4047 
Q 1172 3844 1172 3481 
z
" transform="scale(0.015625)"/>
       </defs>
       <use xlink:href="#DejaVuSans-1b"/>
       <use xlink:href="#DejaVuSans-13" transform="translate(63.625 0)"/>
      </g>
     </g>
    </g>
    <g id="xtick_6">
     <g id="line2d_11">
      <path d="M 537.821946 241.599141 
L 537.821946 7.2 
" clip-path="url(#pb8b17124f7)" style="fill: none; stroke-dasharray: 2.96,1.28; stroke-dashoffset: 0; stroke: #7f7f7f; stroke-opacity: 0.6; stroke-width: 0.8"/>
     </g>
     <g id="line2d_12">
      <g>
       <use xlink:href="#m648be3b1b8" x="537.821946" y="241.599141" style="fill: #7f7f7f; stroke: #7f7f7f; stroke-width: 1.8"/>
      </g>
     </g>
     <g id="text_6">
      <!-- 100 -->
      <g style="fill: #7f7f7f" transform="translate(528.278196 256.196797) scale(0.1 -0.1)">
       <defs>
        <path id="DejaVuSans-14" d="M 794 531 
L 1825 531 
L 1825 4091 
L 703 3866 
L 703 4441 
L 1819 4666 
L 2450 4666 
L 2450 531 
L 3481 531 
L 3481 0 
L 794 0 
L 794 531 
z
" transform="scale(0.015625)"/>
       </defs>
       <use xlink:href="#DejaVuSans-14"/>
       <use xlink:href="#DejaVuSans-13" transform="translate(63.625 0)"/>
       <use xlink:href="#DejaVuSans-13" transform="translate(127.25 0)"/>
      </g>
     </g>
    </g>
    <g id="text_7">
     <!-- time [s] -->
     <g style="fill: #7f7f7f" transform="translate(278.710859 270.957422) scale(0.11 -0.11)">
      <defs>
       <path id="DejaVuSans-57" d="M 1172 4494 
L 1172 3500 
L 2356 3500 
L 2356 3053 
L 1172 3053 
L 1172 1153 
Q 1172 725 1289 603 
Q 1406 481 1766 481 
L 2356 481 
L 2356 0 
L 1766 0 
Q 1100 0 847 248 
Q 594 497 594 1153 
L 594 3053 
L 172 3053 
L 172 3500 
L 594 3500 
L 594 4494 
L 1172 4494 
z
" transform="scale(0.015625)"/>
       <path id="DejaVuSans-4c" d="M 603 3500 
L 1178 3500 
L 1178 0 
L 603 0 
L 603 3500 
z
M 603 4863 
L 1178 4863 
L 1178 4134 
L 603 4134 
L 603 4863 
z
" transform="scale(0.015625)"/>
       <path id="DejaVuSans-50" d="M 3328 2828 
Q 3544 3216 3844 3400 
Q 4144 3584 4550 3584 
Q 5097 3584 5394 3201 
Q 5691 2819 5691 2113 
L 5691 0 
L 5113 0 
L 5113 2094 
Q 5113 2597 4934 2840 
Q 4756 3084 4391 3084 
Q 3944 3084 3684 2787 
Q 3425 2491 3425 1978 
L 3425 0 
L 2847 0 
L 2847 2094 
Q 2847 2600 2669 2842 
Q 2491 3084 2119 3084 
Q 1678 3084 1418 2786 
Q 1159 2488 1159 1978 
L 1159 0 
L 581 0 
L 581 3500 
L 1159 3500 
L 1159 2956 
Q 1356 3278 1631 3431 
Q 1906 3584 2284 3584 
Q 2666 3584 2933 3390 
Q 3200 3197 3328 2828 
z
" transform="scale(0.015625)"/>
       <path id="DejaVuSans-48" d="M 3597 1894 
L 3597 1613 
L 953 1613 
Q 991 1019 1311 708 
Q 1631 397 2203 397 
Q 2534 397 2845 478 
Q 3156 559 3463 722 
L 3463 178 
Q 3153 47 2828 -22 
Q 2503 -91 2169 -91 
Q 1331 -91 842 396 
Q 353 884 353 1716 
Q 353 2575 817 3079 
Q 1281 3584 2069 3584 
Q 2775 3584 3186 3129 
Q 3597 2675 3597 1894 
z
M 3022 2063 
Q 3016 2534 2758 2815 
Q 2500 3097 2075 3097 
Q 1594 3097 1305 2825 
Q 1016 2553 972 2059 
L 3022 2063 
z
" transform="scale(0.015625)"/>
       <path id="DejaVuSans-3" transform="scale(0.015625)"/>
       <path id="DejaVuSans-3e" d="M 550 4863 
L 1875 4863 
L 1875 4416 
L 1125 4416 
L 1125 -397 
L 1875 -397 
L 1875 -844 
L 550 -844 
L 550 4863 
z
" transform="scale(0.015625)"/>
       <path id="DejaVuSans-56" d="M 2834 3397 
L 2834 2853 
Q 2591 2978 2328 3040 
Q 2066 3103 1784 3103 
Q 1356 3103 1142 2972 
Q 928 2841 928 2578 
Q 928 2378 1081 2264 
Q 1234 2150 1697 2047 
L 1894 2003 
Q 2506 1872 2764 1633 
Q 3022 1394 3022 966 
Q 3022 478 2636 193 
Q 2250 -91 1575 -91 
Q 1294 -91 989 -36 
Q 684 19 347 128 
L 347 722 
Q 666 556 975 473 
Q 1284 391 1588 391 
Q 1994 391 2212 530 
Q 2431 669 2431 922 
Q 2431 1156 2273 1281 
Q 2116 1406 1581 1522 
L 1381 1569 
Q 847 1681 609 1914 
Q 372 2147 372 2553 
Q 372 3047 722 3315 
Q 1072 3584 1716 3584 
Q 2034 3584 2315 3537 
Q 2597 3491 2834 3397 
z
" transform="scale(0.015625)"/>
       <path id="DejaVuSans-40" d="M 1947 4863 
L 1947 -844 
L 622 -844 
L 622 -397 
L 1369 -397 
L 1369 4416 
L 622 4416 
L 622 4863 
L 1947 4863 
z
" transform="scale(0.015625)"/>
      </defs>
      <use xlink:href="#DejaVuSans-57"/>
      <use xlink:href="#DejaVuSans-4c" transform="translate(39.203125 0)"/>
      <use xlink:href="#DejaVuSans-50" transform="translate(66.984375 0)"/>
      <use xlink:href="#DejaVuSans-48" transform="translate(164.390625 0)"/>
      <use xlink:href="#DejaVuSans-3" transform="translate(225.921875 0)"/>
      <use xlink:href="#DejaVuSans-3e" transform="translate(257.703125 0)"/>
      <use xlink:href="#DejaVuSans-56" transform="translate(296.71875 0)"/>
      <use xlink:href="#DejaVuSans-40" transform="translate(348.8125 0)"/>
     </g>
    </g>
   </g>
   <g id="matplotlib.axis_2">
    <g id="ytick_1">
     <g id="line2d_13">
      <path d="M 38.482813 233.344032 
L 561.6 233.344032 
" clip-path="url(#pb8b17124f7)" style="fill: none; stroke-dasharray: 2.96,1.28; stroke-dashoffset: 0; stroke: #7f7f7f; stroke-opacity: 0.6; stroke-width: 0.8"/>
     </g>
     <g id="line2d_14">
      <defs>
       <path id="m6557c4b5ae" d="M 0 0 
L -3.5 0 
" style="stroke: #7f7f7f; stroke-width: 1.8"/>
      </defs>
      <g>
       <use xlink:href="#m6557c4b5ae" x="38.482813" y="233.344032" style="fill: #7f7f7f; stroke: #7f7f7f; stroke-width: 1.8"/>
      </g>
     </g>
     <g id="text_8">
      <!-- −0.2 -->
      <g style="fill: #7f7f7f" transform="translate(7.2 237.14286) scale(0.1 -0.1)">
       <defs>
        <path id="DejaVuSans-c9c" d="M 678 2272 
L 4684 2272 
L 4684 1741 
L 678 1741 
L 678 2272 
z
" transform="scale(0.015625)"/>
        <path id="DejaVuSans-11" d="M 684 794 
L 1344 794 
L 1344 0 
L 684 0 
L 684 794 
z
" transform="scale(0.015625)"/>
       </defs>
       <use xlink:href="#DejaVuSans-c9c"/>
       <use xlink:href="#DejaVuSans-13" transform="translate(83.796875 0)"/>
       <use xlink:href="#DejaVuSans-11" transform="translate(147.421875 0)"/>
       <use xlink:href="#DejaVuSans-15" transform="translate(179.203125 0)"/>
      </g>
     </g>
    </g>
    <g id="ytick_2">
     <g id="line2d_15">
      <path d="M 38.482813 202.753151 
L 561.6 202.753151 
" clip-path="url(#pb8b17124f7)" style="fill: none; stroke-dasharray: 2.96,1.28; stroke-dashoffset: 0; stroke: #7f7f7f; stroke-opacity: 0.6; stroke-width: 0.8"/>
     </g>
     <g id="line2d_16">
      <g>
       <use xlink:href="#m6557c4b5ae" x="38.482813" y="202.753151" style="fill: #7f7f7f; stroke: #7f7f7f; stroke-width: 1.8"/>
      </g>
     </g>
     <g id="text_9">
      <!-- 0.0 -->
      <g style="fill: #7f7f7f" transform="translate(15.579688 206.551979) scale(0.1 -0.1)">
       <use xlink:href="#DejaVuSans-13"/>
       <use xlink:href="#DejaVuSans-11" transform="translate(63.625 0)"/>
       <use xlink:href="#DejaVuSans-13" transform="translate(95.40625 0)"/>
      </g>
     </g>
    </g>
    <g id="ytick_3">
     <g id="line2d_17">
      <path d="M 38.482813 172.16227 
L 561.6 172.16227 
" clip-path="url(#pb8b17124f7)" style="fill: none; stroke-dasharray: 2.96,1.28; stroke-dashoffset: 0; stroke: #7f7f7f; stroke-opacity: 0.6; stroke-width: 0.8"/>
     </g>
     <g id="line2d_18">
      <g>
       <use xlink:href="#m6557c4b5ae" x="38.482813" y="172.16227" style="fill: #7f7f7f; stroke: #7f7f7f; stroke-width: 1.8"/>
      </g>
     </g>
     <g id="text_10">
      <!-- 0.2 -->
      <g style="fill: #7f7f7f" transform="translate(15.579688 175.961099) scale(0.1 -0.1)">
       <use xlink:href="#DejaVuSans-13"/>
       <use xlink:href="#DejaVuSans-11" transform="translate(63.625 0)"/>
       <use xlink:href="#DejaVuSans-15" transform="translate(95.40625 0)"/>
      </g>
     </g>
    </g>
    <g id="ytick_4">
     <g id="line2d_19">
      <path d="M 38.482813 141.57139 
L 561.6 141.57139 
" clip-path="url(#pb8b17124f7)" style="fill: none; stroke-dasharray: 2.96,1.28; stroke-dashoffset: 0; stroke: #7f7f7f; stroke-opacity: 0.6; stroke-width: 0.8"/>
     </g>
     <g id="line2d_20">
      <g>
       <use xlink:href="#m6557c4b5ae" x="38.482813" y="141.57139" style="fill: #7f7f7f; stroke: #7f7f7f; stroke-width: 1.8"/>
      </g>
     </g>
     <g id="text_11">
      <!-- 0.4 -->
      <g style="fill: #7f7f7f" transform="translate(15.579688 145.370218) scale(0.1 -0.1)">
       <use xlink:href="#DejaVuSans-13"/>
       <use xlink:href="#DejaVuSans-11" transform="translate(63.625 0)"/>
       <use xlink:href="#DejaVuSans-17" transform="translate(95.40625 0)"/>
      </g>
     </g>
    </g>
    <g id="ytick_5">
     <g id="line2d_21">
      <path d="M 38.482813 110.980509 
L 561.6 110.980509 
" clip-path="url(#pb8b17124f7)" style="fill: none; stroke-dasharray: 2.96,1.28; stroke-dashoffset: 0; stroke: #7f7f7f; stroke-opacity: 0.6; stroke-width: 0.8"/>
     </g>
     <g id="line2d_22">
      <g>
       <use xlink:href="#m6557c4b5ae" x="38.482813" y="110.980509" style="fill: #7f7f7f; stroke: #7f7f7f; stroke-width: 1.8"/>
      </g>
     </g>
     <g id="text_12">
      <!-- 0.6 -->
      <g style="fill: #7f7f7f" transform="translate(15.579688 114.779337) scale(0.1 -0.1)">
       <use xlink:href="#DejaVuSans-13"/>
       <use xlink:href="#DejaVuSans-11" transform="translate(63.625 0)"/>
       <use xlink:href="#DejaVuSans-19" transform="translate(95.40625 0)"/>
      </g>
     </g>
    </g>
    <g id="ytick_6">
     <g id="line2d_23">
      <path d="M 38.482813 80.389629 
L 561.6 80.389629 
" clip-path="url(#pb8b17124f7)" style="fill: none; stroke-dasharray: 2.96,1.28; stroke-dashoffset: 0; stroke: #7f7f7f; stroke-opacity: 0.6; stroke-width: 0.8"/>
     </g>
     <g id="line2d_24">
      <g>
       <use xlink:href="#m6557c4b5ae" x="38.482813" y="80.389629" style="fill: #7f7f7f; stroke: #7f7f7f; stroke-width: 1.8"/>
      </g>
     </g>
     <g id="text_13">
      <!-- 0.8 -->
      <g style="fill: #7f7f7f" transform="translate(15.579688 84.188457) scale(0.1 -0.1)">
       <use xlink:href="#DejaVuSans-13"/>
       <use xlink:href="#DejaVuSans-11" transform="translate(63.625 0)"/>
       <use xlink:href="#DejaVuSans-1b" transform="translate(95.40625 0)"/>
      </g>
     </g>
    </g>
    <g id="ytick_7">
     <g id="line2d_25">
      <path d="M 38.482813 49.798748 
L 561.6 49.798748 
" clip-path="url(#pb8b17124f7)" style="fill: none; stroke-dasharray: 2.96,1.28; stroke-dashoffset: 0; stroke: #7f7f7f; stroke-opacity: 0.6; stroke-width: 0.8"/>
     </g>
     <g id="line2d_26">
      <g>
       <use xlink:href="#m6557c4b5ae" x="38.482813" y="49.798748" style="fill: #7f7f7f; stroke: #7f7f7f; stroke-width: 1.8"/>
      </g>
     </g>
     <g id="text_14">
      <!-- 1.0 -->
      <g style="fill: #7f7f7f" transform="translate(15.579688 53.597576) scale(0.1 -0.1)">
       <use xlink:href="#DejaVuSans-14"/>
       <use xlink:href="#DejaVuSans-11" transform="translate(63.625 0)"/>
       <use xlink:href="#DejaVuSans-13" transform="translate(95.40625 0)"/>
      </g>
     </g>
    </g>
    <g id="ytick_8">
     <g id="line2d_27">
      <path d="M 38.482813 19.207868 
L 561.6 19.207868 
" clip-path="url(#pb8b17124f7)" style="fill: none; stroke-dasharray: 2.96,1.28; stroke-dashoffset: 0; stroke: #7f7f7f; stroke-opacity: 0.6; stroke-width: 0.8"/>
     </g>
     <g id="line2d_28">
      <g>
       <use xlink:href="#m6557c4b5ae" x="38.482813" y="19.207868" style="fill: #7f7f7f; stroke: #7f7f7f; stroke-width: 1.8"/>
      </g>
     </g>
     <g id="text_15">
      <!-- 1.2 -->
      <g style="fill: #7f7f7f" transform="translate(15.579688 23.006696) scale(0.1 -0.1)">
       <use xlink:href="#DejaVuSans-14"/>
       <use xlink:href="#DejaVuSans-11" transform="translate(63.625 0)"/>
       <use xlink:href="#DejaVuSans-15" transform="translate(95.40625 0)"/>
      </g>
     </g>
    </g>
   </g>
   <g id="line2d_29">
    <path d="M 62.260866 202.753151 
L 157.373073 202.753151 
L 158.310696 49.798748 
L 347.59751 49.798748 
L 348.347425 126.27595 
L 537.821946 126.27595 
L 537.821946 126.27595 
" clip-path="url(#pb8b17124f7)" style="fill: none; stroke: #e41a1c; stroke-width: 2; stroke-linecap: square"/>
   </g>
   <g id="line2d_30">
    <path d="M 62.260866 202.753151 
L 62.308423 204.372922 
L 63.246704 202.29065 
L 63.603927 203.459682 
L 64.296455 202.521432 
L 64.578034 202.134921 
L 65.155471 202.78991 
L 65.530903 203.613443 
L 65.838319 202.685298 
L 66.541959 202.391061 
L 67.45854 202.872195 
L 68.235634 202.005118 
L 68.612705 202.247808 
L 70.425876 203.025922 
L 71.275019 201.958327 
L 71.628226 202.789509 
L 73.02197 202.488568 
L 74.720444 203.245754 
L 76.18296 202.417071 
L 76.858432 203.354566 
L 77.449299 202.971564 
L 77.7848 202.055002 
L 78.449455 202.373895 
L 79.642735 203.35669 
L 80.462291 202.944138 
L 80.82444 203.570536 
L 81.181049 202.801104 
L 83.873847 202.453284 
L 84.181702 203.008846 
L 84.488933 202.778234 
L 84.823897 201.705451 
L 85.200678 203.417519 
L 86.315831 202.891361 
L 86.643984 203.184573 
L 88.70958 203.004994 
L 89.874521 202.38684 
L 90.253233 203.321557 
L 90.637394 202.847511 
L 91.070249 202.521562 
L 91.429049 203.181329 
L 92.655779 203.13621 
L 92.920819 201.970102 
L 93.577322 203.094462 
L 94.607359 202.062366 
L 95.193368 202.719682 
L 96.464013 202.986075 
L 119.502265 202.464727 
L 119.756216 203.103758 
L 120.402335 202.487806 
L 121.948977 202.398951 
L 122.367591 201.942318 
L 122.731916 202.587616 
L 123.618486 203.616744 
L 124.343022 201.70055 
L 124.582207 203.939156 
L 125.392136 202.906334 
L 128.86586 202.205403 
L 129.205325 203.455763 
L 129.869524 203.064434 
L 131.116974 202.592681 
L 132.013758 203.474404 
L 132.366777 202.101678 
L 133.152229 202.996601 
L 134.635053 202.502792 
L 135.229895 201.883648 
L 136.120741 202.93285 
L 136.890022 203.124049 
L 137.197871 202.606009 
L 138.717875 202.911147 
L 140.103388 203.653715 
L 140.503991 202.871444 
L 140.869251 202.226944 
L 141.229369 203.445309 
L 143.921367 202.729488 
L 145.120758 203.267808 
L 146.636188 202.943501 
L 147.577263 204.030928 
L 147.285466 202.678975 
L 147.852239 203.624902 
L 149.18383 202.948218 
L 151.058919 203.145935 
L 151.455389 202.294997 
L 151.795926 203.727585 
L 152.123665 202.853764 
L 154.835266 202.580904 
L 155.469961 202.930076 
L 155.755774 202.55617 
L 156.107379 201.934506 
L 156.477204 202.736989 
L 157.361876 202.70738 
L 157.373073 195.170916 
L 157.373548 221.692767 
L 158.310696 203.117071 
L 158.968165 202.52492 
L 159.680798 203.856885 
L 160.935546 202.484582 
L 161.131339 202.815855 
L 161.378539 202.209775 
L 162.101082 201.110584 
L 162.347509 201.384652 
L 162.601529 201.700883 
L 162.889453 200.903961 
L 163.154413 201.242528 
L 164.118937 199.838154 
L 168.10932 190.563911 
L 176.072613 155.460555 
L 192.799462 75.669685 
L 202.885656 49.464195 
L 204.560357 47.566764 
L 206.828598 44.118868 
L 210.629701 39.993459 
L 211.033453 40.393186 
L 217.311677 38.919546 
L 218.561594 39.16496 
L 221.496523 38.704778 
L 222.736208 39.759533 
L 223.206038 38.98808 
L 223.601946 39.440146 
L 227.275609 40.667827 
L 227.621607 39.981398 
L 228.006094 40.511202 
L 230.491351 42.055429 
L 231.331018 41.600035 
L 232.955632 42.539815 
L 233.321263 42.779537 
L 233.775595 41.7472 
L 235.100572 44.000869 
L 238.380479 44.984112 
L 239.789112 45.870415 
L 240.237272 45.574025 
L 240.664947 46.374464 
L 242.792571 46.409177 
L 248.105261 47.715986 
L 249.504359 48.630468 
L 254.903794 49.508674 
L 255.291584 50.263076 
L 255.687367 49.466776 
L 257.399291 49.678903 
L 258.678076 50.252118 
L 259.993048 50.317975 
L 260.88594 51.306555 
L 261.324064 50.749043 
L 266.175736 50.693027 
L 266.547296 49.80164 
L 267.39448 50.174015 
L 282.003097 50.396711 
L 282.361227 51.382763 
L 282.752398 50.500536 
L 283.633895 50.606066 
L 284.018449 49.381059 
L 284.755415 49.861954 
L 286.637326 50.328576 
L 287.972933 49.678381 
L 288.742058 50.192099 
L 289.09995 49.716699 
L 293.2382 50.812367 
L 293.582223 49.371479 
L 293.945725 49.480805 
L 295.222565 50.299618 
L 296.103526 49.749624 
L 296.479024 49.368369 
L 296.877081 50.934222 
L 297.609229 49.757286 
L 299.830514 50.286663 
L 300.192457 49.039396 
L 300.556808 49.389567 
L 301.722009 50.786796 
L 303.403411 50.025409 
L 304.645787 50.647872 
L 305.465511 49.982534 
L 305.943146 50.288259 
L 308.67076 49.608668 
L 309.482698 49.953739 
L 309.847768 48.910969 
L 310.22436 49.2927 
L 311.736385 50.775969 
L 312.405456 49.052751 
L 313.187867 49.802283 
L 313.996037 50.509754 
L 314.341156 50.023713 
L 315.42718 49.065505 
L 316.218419 50.395014 
L 317.01582 49.262561 
L 320.855399 49.918352 
L 321.255922 49.16413 
L 321.660167 49.641441 
L 322.903461 49.551806 
L 323.363814 49.275442 
L 323.788679 50.00065 
L 325.074428 50.382853 
L 326.468299 49.474884 
L 327.7679 49.482405 
L 329.771167 50.267988 
L 332.676436 49.89822 
L 336.61474 49.798399 
L 338.324962 49.821682 
L 338.640929 49.567927 
L 338.952716 50.242969 
L 339.294416 50.797479 
L 339.700485 50.027627 
L 340.088567 49.24345 
L 340.459963 49.788179 
L 342.104116 49.890466 
L 347.59711 49.921778 
L 347.598734 17.854506 
L 347.597951 60.421636 
L 348.347425 50.801764 
L 348.668436 49.735132 
L 349.382023 50.011512 
L 352.277788 49.89076 
L 353.561651 50.82823 
L 353.954854 50.50867 
L 354.435647 51.253569 
L 356.626607 53.04252 
L 358.855467 56.30273 
L 359.279702 56.4252 
L 361.436087 61.559865 
L 366.219007 73.121896 
L 366.563759 73.118545 
L 369.118443 80.245423 
L 381.234871 109.530735 
L 389.633285 122.423085 
L 394.872405 127.68456 
L 400.651084 131.020816 
L 401.090256 129.865031 
L 401.517238 131.468338 
L 404.788163 131.909123 
L 405.61038 131.425297 
L 406.998517 132.263602 
L 409.581012 131.395785 
L 409.995804 132.527864 
L 410.423825 132.002218 
L 411.225797 131.243467 
L 411.732446 131.613618 
L 414.197328 131.668417 
L 415.372041 131.156786 
L 415.772877 131.676099 
L 416.173234 131.063133 
L 420.437123 130.021343 
L 421.446551 129.644778 
L 422.202238 130.521309 
L 422.586435 129.808564 
L 425.177617 129.515444 
L 425.549648 128.984361 
L 425.919105 129.686456 
L 428.629534 129.184746 
L 430.045871 128.352886 
L 430.502324 128.945428 
L 430.92022 128.203797 
L 435.242073 127.617574 
L 436.012595 127.424377 
L 436.408313 126.94166 
L 437.260375 128.314008 
L 438.065829 127.111963 
L 438.513269 127.773208 
L 438.921051 127.354636 
L 440.511056 126.330061 
L 443.048701 126.634431 
L 444.16713 126.031885 
L 446.174048 126.709457 
L 448.103634 126.178868 
L 448.90288 126.588618 
L 449.341805 126.12922 
L 450.599264 126.144736 
L 452.306404 125.378439 
L 453.579366 125.888522 
L 454.773423 125.94641 
L 460.841241 125.491826 
L 464.56864 126.425723 
L 478.71373 125.989771 
L 479.090472 126.711522 
L 479.471156 125.933176 
L 483.956004 126.571446 
L 484.330335 125.309433 
L 484.706442 126.051668 
L 485.904777 126.359487 
L 499.809498 126.200364 
L 500.202559 125.395352 
L 500.58842 126.627801 
L 502.47882 125.776287 
L 502.849442 126.863171 
L 503.631877 126.35125 
L 504.480934 127.165845 
L 504.907725 126.311672 
L 506.146264 126.491851 
L 509.97011 126.468995 
L 510.340618 125.753392 
L 510.756814 126.536993 
L 515.506489 125.812258 
L 516.657881 126.969836 
L 517.857861 126.229474 
L 519.612365 126.066565 
L 521.012092 126.640935 
L 522.222946 126.534433 
L 524.419433 126.685762 
L 525.248082 126.10047 
L 525.643861 126.364759 
L 528.178889 126.027027 
L 530.379933 126.425956 
L 530.733671 125.682393 
L 531.08441 126.818228 
L 532.677427 126.316609 
L 535.844529 125.927479 
L 537.163946 126.197938 
L 537.821946 126.107212 
L 537.821946 126.107212 
" clip-path="url(#pb8b17124f7)" style="fill: none; stroke: #377eb8; stroke-width: 2; stroke-linecap: square"/>
   </g>
   <g id="line2d_31">
    <path d="M 62.260866 202.753151 
L 62.308423 204.884507 
L 62.437938 201.094645 
L 63.246704 202.464178 
L 64.296455 203.553976 
L 64.848218 202.911648 
L 66.159278 202.705562 
L 69.465132 203.290364 
L 70.830802 202.705835 
L 71.960728 202.492936 
L 72.64818 202.383032 
L 74.308567 202.920095 
L 75.135468 202.305184 
L 75.453885 203.341972 
L 76.18296 203.029353 
L 76.858432 203.472886 
L 77.152685 202.521542 
L 78.117497 203.293653 
L 78.449455 202.91291 
L 79.909311 201.609131 
L 80.157133 202.587292 
L 83.558624 203.160432 
L 83.873847 202.12332 
L 84.488933 203.104421 
L 86.315831 202.102974 
L 86.643984 202.817644 
L 91.429049 203.324615 
L 92.374404 202.201744 
L 92.655779 203.249852 
L 93.233456 202.461695 
L 93.971384 202.878297 
L 94.304637 203.564737 
L 94.607359 202.503457 
L 94.903011 203.186329 
L 96.464013 202.857379 
L 97.728035 202.496763 
L 98.027107 201.854363 
L 98.655316 202.278831 
L 99.611929 203.33083 
L 99.919805 202.884686 
L 101.362576 202.302327 
L 101.695163 202.413469 
L 101.99643 203.595244 
L 102.278856 202.230583 
L 102.809778 203.005117 
L 105.804188 202.383902 
L 107.135817 203.139389 
L 107.705894 203.638332 
L 108.367603 202.735901 
L 108.701057 203.488851 
L 109.012774 202.963566 
L 109.353996 202.165206 
L 110.100556 202.543105 
L 111.813538 202.982956 
L 112.15596 203.359559 
L 112.798316 202.748576 
L 115.266411 202.536854 
L 116.286398 203.16102 
L 116.600776 202.749391 
L 116.929446 203.483938 
L 117.238574 203.654925 
L 118.432568 202.191169 
L 118.736943 203.264215 
L 118.978994 201.849853 
L 119.224197 202.800813 
L 119.502265 201.968203 
L 120.402335 202.300153 
L 120.996798 203.697381 
L 121.577689 202.598689 
L 123.318324 202.148845 
L 123.618486 201.922556 
L 124.582207 203.941074 
L 125.7713 202.218664 
L 126.809114 203.296383 
L 127.141924 202.873135 
L 127.494302 202.126029 
L 127.824594 203.198951 
L 128.126393 203.083659 
L 130.256192 202.647795 
L 131.457226 203.466723 
L 131.731289 202.117025 
L 132.366777 202.693269 
L 134.635053 202.435658 
L 134.937655 203.504339 
L 135.229895 202.207391 
L 135.494172 202.808923 
L 135.812217 202.291278 
L 136.120741 202.737411 
L 137.822614 203.370856 
L 139.02788 202.54522 
L 140.103388 202.618183 
L 141.229369 202.506226 
L 141.527196 203.488995 
L 141.817229 202.950348 
L 142.194802 202.159329 
L 142.491814 203.325688 
L 142.796476 203.128538 
L 144.611997 202.693088 
L 147.285466 202.365357 
L 147.852239 203.014148 
L 148.454965 202.283925 
L 151.058919 202.914846 
L 153.040601 202.669247 
L 153.407208 203.154339 
L 154.077712 202.533923 
L 154.835266 202.188597 
L 155.469961 203.479944 
L 156.107379 203.12899 
L 157.113943 202.125595 
L 157.187669 203.028318 
L 157.369743 206.535373 
L 157.373073 198.670072 
L 157.373193 167.824193 
L 157.373301 230.944634 
L 158.310696 201.525955 
L 158.471089 202.388979 
L 159.288906 201.91115 
L 160.300961 200.061738 
L 161.620856 199.83366 
L 162.601529 198.075937 
L 162.889453 198.546365 
L 164.454352 196.590653 
L 164.81256 196.917779 
L 165.137997 196.235113 
L 177.375416 190.155781 
L 177.766536 190.487729 
L 178.132152 189.643078 
L 179.654382 188.941751 
L 180.959822 188.685984 
L 182.588441 187.249607 
L 182.94831 188.122154 
L 183.341913 187.560588 
L 184.912085 187.404793 
L 186.049764 187.784048 
L 188.598069 186.519076 
L 191.836684 186.403382 
L 192.799462 186.50042 
L 193.221512 187.034204 
L 193.603183 185.997323 
L 195.408261 186.240092 
L 197.977429 185.672654 
L 198.443646 186.529315 
L 198.883672 186.227949 
L 201.622458 185.524545 
L 202.885656 186.021144 
L 204.560357 185.756891 
L 205.988772 186.571865 
L 207.650013 186.006696 
L 209.017419 186.354797 
L 209.941404 186.18605 
L 210.287233 187.052891 
L 211.033453 186.332233 
L 218.561594 186.854481 
L 221.056432 186.681351 
L 226.902339 187.525131 
L 227.275609 188.004018 
L 227.621607 186.845254 
L 228.006094 186.427799 
L 228.36304 187.170665 
L 273.321659 187.126046 
L 274.114709 187.34456 
L 274.450918 188.254918 
L 274.783565 187.167762 
L 276.949795 187.589309 
L 278.21879 188.166846 
L 279.455182 187.045892 
L 280.260733 188.445126 
L 280.615942 187.648867 
L 280.93414 186.485811 
L 281.641911 187.356782 
L 282.003097 186.759509 
L 282.752398 187.328237 
L 304.230507 187.306134 
L 305.465511 187.200499 
L 306.805942 188.025405 
L 307.159611 186.622687 
L 307.514736 187.123466 
L 307.836891 188.365541 
L 308.155221 187.537277 
L 313.996037 187.353821 
L 314.341156 186.59538 
L 314.683237 188.248538 
L 316.584999 187.230354 
L 317.45507 187.760628 
L 318.669493 186.937877 
L 319.073288 187.274208 
L 320.374491 187.615017 
L 321.660167 187.506765 
L 322.903461 187.658611 
L 325.449894 187.063794 
L 325.83205 187.125277 
L 326.152244 188.425956 
L 326.856014 187.741519 
L 328.646511 187.543353 
L 329.771167 187.854785 
L 330.953543 187.505997 
L 331.318446 186.936301 
L 331.704342 187.433449 
L 347.508376 188.415924 
L 347.59751 183.543803 
L 347.59774 209.543061 
L 348.347425 187.229821 
L 350.632093 188.70808 
L 351.878818 188.923966 
L 352.840316 190.044557 
L 353.203169 189.538998 
L 356.626607 191.786242 
L 358.157249 190.667329 
L 358.491602 190.941931 
L 360.61536 192.584864 
L 362.245722 192.30623 
L 363.63729 192.852783 
L 365.390511 193.534091 
L 366.563759 193.793357 
L 366.936054 193.299378 
L 367.304054 194.093999 
L 370.196113 194.288756 
L 371.639903 194.916004 
L 375.090429 195.126874 
L 375.463571 194.691321 
L 375.83331 195.411634 
L 377.396777 195.534894 
L 378.735716 195.243744 
L 382.119651 195.889218 
L 382.477122 195.115706 
L 383.296576 195.498529 
L 383.676831 196.070022 
L 384.055037 195.570371 
L 385.638812 195.395523 
L 387.240762 195.799088 
L 387.613061 195.267866 
L 387.982675 196.204942 
L 389.992421 196.597438 
L 390.688651 195.213321 
L 391.026718 195.994462 
L 391.438135 196.500107 
L 391.816573 196.154791 
L 392.639808 195.261159 
L 393.00698 195.954741 
L 397.2398 195.89903 
L 397.648892 196.28908 
L 398.039395 195.77668 
L 399.849321 195.3666 
L 400.238615 196.110405 
L 400.651084 195.889884 
L 401.986577 195.346171 
L 403.937552 196.201643 
L 404.788163 195.591929 
L 405.200575 195.877914 
L 407.548588 195.27199 
L 409.581012 195.018765 
L 410.812352 195.866362 
L 412.310622 195.376936 
L 419.958598 195.16799 
L 422.202238 195.779522 
L 422.586435 194.594585 
L 423.375773 195.080874 
L 424.714967 195.371992 
L 428.093393 195.026166 
L 430.502324 195.43098 
L 431.33708 194.685229 
L 431.720614 195.628788 
L 432.114154 195.33217 
L 432.54142 194.45856 
L 432.933455 195.33975 
L 435.242073 195.067954 
L 436.408313 195.055221 
L 438.513269 194.47433 
L 439.757964 194.972515 
L 440.925596 194.997218 
L 443.048701 195.580369 
L 443.794158 194.403158 
L 444.54877 195.745024 
L 444.917129 195.435804 
L 445.349668 194.738412 
L 445.765559 195.116924 
L 446.962749 195.194743 
L 451.110961 195.170639 
L 452.306404 195.137988 
L 453.579366 194.434731 
L 454.38536 195.398659 
L 454.773423 195.135821 
L 460.373483 195.05985 
L 462.026944 194.64695 
L 464.17589 195.367012 
L 465.351438 195.059184 
L 465.758497 194.458446 
L 466.151836 194.969656 
L 472.406672 195.44778 
L 473.677128 194.625815 
L 474.543016 195.252004 
L 475.691382 195.647934 
L 478.71373 195.222501 
L 479.090472 195.546128 
L 479.471156 194.739677 
L 484.330335 195.377035 
L 485.478281 194.664506 
L 486.321148 194.737864 
L 487.570763 194.723798 
L 489.189122 195.718984 
L 489.983423 195.360272 
L 490.421852 195.804524 
L 490.827174 195.181366 
L 492.001786 195.122444 
L 496.989329 194.667888 
L 498.60967 195.783161 
L 499.007879 194.666906 
L 499.391962 194.938169 
L 500.58842 195.511568 
L 500.965269 194.369617 
L 501.71081 195.160938 
L 502.100111 195.764812 
L 502.47882 195.044425 
L 505.311584 195.000397 
L 506.629771 195.346665 
L 508.146274 194.389756 
L 509.32024 195.367926 
L 509.646991 194.159359 
L 510.340618 195.061517 
L 520.321377 194.321409 
L 520.671515 193.903634 
L 521.416641 195.520008 
L 521.788805 194.810747 
L 522.222946 195.573693 
L 522.660164 195.214408 
L 529.090629 194.576433 
L 529.504417 195.433606 
L 529.935575 194.872548 
L 537.821946 195.434476 
L 537.821946 195.434476 
" clip-path="url(#pb8b17124f7)" style="fill: none; stroke: #4daf4a; stroke-width: 2; stroke-linecap: square"/>
   </g>
   <g id="patch_3">
    <path d="M 38.482813 241.599141 
L 38.482813 7.2 
" style="fill: none; stroke: #7f7f7f; stroke-width: 1.8; stroke-linejoin: miter; stroke-linecap: square"/>
   </g>
   <g id="patch_4">
    <path d="M 38.482813 241.599141 
L 561.6 241.599141 
" style="fill: none; stroke: #7f7f7f; stroke-width: 1.8; stroke-linejoin: miter; stroke-linecap: square"/>
   </g>
   <g id="legend_1">
    <g id="line2d_32">
     <path d="M 483.814062 20.298438 
L 493.814062 20.298438 
L 503.814062 20.298438 
" style="fill: none; stroke: #e41a1c; stroke-width: 2; stroke-linecap: square"/>
    </g>
    <g id="text_16">
     <!-- setpoint -->
     <g style="fill: #7f7f7f" transform="translate(511.814062 23.798438) scale(0.1 -0.1)">
      <defs>
       <path id="DejaVuSans-53" d="M 1159 525 
L 1159 -1331 
L 581 -1331 
L 581 3500 
L 1159 3500 
L 1159 2969 
Q 1341 3281 1617 3432 
Q 1894 3584 2278 3584 
Q 2916 3584 3314 3078 
Q 3713 2572 3713 1747 
Q 3713 922 3314 415 
Q 2916 -91 2278 -91 
Q 1894 -91 1617 61 
Q 1341 213 1159 525 
z
M 3116 1747 
Q 3116 2381 2855 2742 
Q 2594 3103 2138 3103 
Q 1681 3103 1420 2742 
Q 1159 2381 1159 1747 
Q 1159 1113 1420 752 
Q 1681 391 2138 391 
Q 2594 391 2855 752 
Q 3116 1113 3116 1747 
z
" transform="scale(0.015625)"/>
       <path id="DejaVuSans-52" d="M 1959 3097 
Q 1497 3097 1228 2736 
Q 959 2375 959 1747 
Q 959 1119 1226 758 
Q 1494 397 1959 397 
Q 2419 397 2687 759 
Q 2956 1122 2956 1747 
Q 2956 2369 2687 2733 
Q 2419 3097 1959 3097 
z
M 1959 3584 
Q 2709 3584 3137 3096 
Q 3566 2609 3566 1747 
Q 3566 888 3137 398 
Q 2709 -91 1959 -91 
Q 1206 -91 779 398 
Q 353 888 353 1747 
Q 353 2609 779 3096 
Q 1206 3584 1959 3584 
z
" transform="scale(0.015625)"/>
       <path id="DejaVuSans-51" d="M 3513 2113 
L 3513 0 
L 2938 0 
L 2938 2094 
Q 2938 2591 2744 2837 
Q 2550 3084 2163 3084 
Q 1697 3084 1428 2787 
Q 1159 2491 1159 1978 
L 1159 0 
L 581 0 
L 581 3500 
L 1159 3500 
L 1159 2956 
Q 1366 3272 1645 3428 
Q 1925 3584 2291 3584 
Q 2894 3584 3203 3211 
Q 3513 2838 3513 2113 
z
" transform="scale(0.015625)"/>
      </defs>
      <use xlink:href="#DejaVuSans-56"/>
      <use xlink:href="#DejaVuSans-48" transform="translate(52.09375 0)"/>
      <use xlink:href="#DejaVuSans-57" transform="translate(113.625 0)"/>
      <use xlink:href="#DejaVuSans-53" transform="translate(152.828125 0)"/>
      <use xlink:href="#DejaVuSans-52" transform="translate(216.3125 0)"/>
      <use xlink:href="#DejaVuSans-4c" transform="translate(277.5 0)"/>
      <use xlink:href="#DejaVuSans-51" transform="translate(305.28125 0)"/>
      <use xlink:href="#DejaVuSans-57" transform="translate(368.65625 0)"/>
     </g>
    </g>
    <g id="line2d_33">
     <path d="M 483.814062 35.299219 
L 493.814062 35.299219 
L 503.814062 35.299219 
" style="fill: none; stroke: #377eb8; stroke-width: 2; stroke-linecap: square"/>
    </g>
    <g id="text_17">
     <!-- plant 1 -->
     <g style="fill: #7f7f7f" transform="translate(511.814062 38.799219) scale(0.1 -0.1)">
      <defs>
       <path id="DejaVuSans-4f" d="M 603 4863 
L 1178 4863 
L 1178 0 
L 603 0 
L 603 4863 
z
" transform="scale(0.015625)"/>
       <path id="DejaVuSans-44" d="M 2194 1759 
Q 1497 1759 1228 1600 
Q 959 1441 959 1056 
Q 959 750 1161 570 
Q 1363 391 1709 391 
Q 2188 391 2477 730 
Q 2766 1069 2766 1631 
L 2766 1759 
L 2194 1759 
z
M 3341 1997 
L 3341 0 
L 2766 0 
L 2766 531 
Q 2569 213 2275 61 
Q 1981 -91 1556 -91 
Q 1019 -91 701 211 
Q 384 513 384 1019 
Q 384 1609 779 1909 
Q 1175 2209 1959 2209 
L 2766 2209 
L 2766 2266 
Q 2766 2663 2505 2880 
Q 2244 3097 1772 3097 
Q 1472 3097 1187 3025 
Q 903 2953 641 2809 
L 641 3341 
Q 956 3463 1253 3523 
Q 1550 3584 1831 3584 
Q 2591 3584 2966 3190 
Q 3341 2797 3341 1997 
z
" transform="scale(0.015625)"/>
      </defs>
      <use xlink:href="#DejaVuSans-53"/>
      <use xlink:href="#DejaVuSans-4f" transform="translate(63.484375 0)"/>
      <use xlink:href="#DejaVuSans-44" transform="translate(91.265625 0)"/>
      <use xlink:href="#DejaVuSans-51" transform="translate(152.546875 0)"/>
      <use xlink:href="#DejaVuSans-57" transform="translate(215.921875 0)"/>
      <use xlink:href="#DejaVuSans-3" transform="translate(255.125 0)"/>
      <use xlink:href="#DejaVuSans-14" transform="translate(286.90625 0)"/>
     </g>
    </g>
    <g id="line2d_34">
     <path d="M 483.814062 50.3 
L 493.814062 50.3 
L 503.814062 50.3 
" style="fill: none; stroke: #4daf4a; stroke-width: 2; stroke-linecap: square"/>
    </g>
    <g id="text_18">
     <!-- plant 2 -->
     <g style="fill: #7f7f7f" transform="translate(511.814062 53.8) scale(0.1 -0.1)">
      <use xlink:href="#DejaVuSans-53"/>
      <use xlink:href="#DejaVuSans-4f" transform="translate(63.484375 0)"/>
      <use xlink:href="#DejaVuSans-44" transform="translate(91.265625 0)"/>
      <use xlink:href="#DejaVuSans-51" transform="translate(152.546875 0)"/>
      <use xlink:href="#DejaVuSans-57" transform="translate(215.921875 0)"/>
      <use xlink:href="#DejaVuSans-3" transform="translate(255.125 0)"/>
      <use xlink:href="#DejaVuSans-15" transform="translate(286.90625 0)"/>
     </g>
    </g>
   </g>
  </g>
 </g>
 <defs>
  <clipPath id="pb8b17124f7">
   <rect x="38.482813" y="7.2" width="523.117187" height="234.399141"/>
  </clipPath>
 </defs>
</svg>
