<?xml version="1.0" encoding="utf-8" standalone="no"?>
<!DOCTYPE svg PUBLIC "-//W3C//DTD SVG 1.1//EN"
  "http://www.w3.org/Graphics/SVG/1.1/DTD/svg11.dtd">
<svg xmlns:xlink="http://www.w3.org/1999/xlink" width="575.1625pt" height="424.8pt" viewBox="0 0 575.1625 424.8" xmlns="http://www.w3.org/2000/svg" version="1.1">
 <metadata>
  <rdf:RDF xmlns:dc="http://purl.org/dc/elements/1.1/" xmlns:cc="http://creativecommons.org/ns#" xmlns:rdf="http://www.w3.org/1999/02/22-rdf-syntax-ns#">
   <cc:Work>
    <dc:type rdf:resource="http://purl.org/dc/dcmitype/StillImage"/>
    <dc:date>2026-06-15T14:15:40.655593</dc:date>
    <dc:format>image/svg+xml</dc:format>
    <dc:creator>
     <cc:Agent>
      <dc:title>Matplotlib v3.11.0, https://matplotlib.org/</dc:title>
     </cc:Agent>
    </dc:creator>
   </cc:Work>
  </rdf:RDF>
 </metadata>
 <defs>
  <style type="text/css">*{stroke-linejoin: round; stroke-linecap: butt}</style>
 </defs>
 <g id="figure_1">
  <g id="patch_1">
   <path d="M 0 424.8 
L 575.1625 424.8 
L 575.1625 0 
L 0 0 
L 0 424.8 
z
" style="fill: none"/>
  </g>
  <g id="axes_1">
   <g id="patch_2">
    <path d="M 51.466484 190.058633 
L 567.9625 190.058633 
L 567.9625 22.318125 
L 51.466484 22.318125 
L 51.466484 190.058633 
z
" style="fill: none"/>
   </g>
   <g id="matplotlib.axis_1">
    <g id="xtick_1">
     <g id="line2d_1">
      <defs>
       <path id="m983a986ff0" d="M 0 0 
L 0 3.5 
" style="stroke: #7f7f7f; stroke-width: 1.8"/>
      </defs>
      <g>
       <use xlink:href="#m983a986ff0" x="74.943576" y="190.058633" style="fill: #7f7f7f; stroke: #7f7f7f; stroke-width: 1.8"/>
      </g>
     </g>
     <g id="text_1">
      <!-- 0.0 -->
      <g style="fill: #7f7f7f" transform="translate(66.992013 204.656289) scale(0.1 -0.1)">
       <defs>
        <path id="DejaVuSans-13" d="M 2034 4250 
Q 1547 4250 1301 3770 
Q 1056 3291 1056 2328 
Q 1056 1369 1301 889 
Q 1547 409 2034 409 
Q 2525 409 2770 889 
Q 3016 1369 3016 2328 
Q 3016 3291 2770 3770 
Q 2525 4250 2034 4250 
z
M 2034 4750 
Q 2819 4750 3233 4129 
Q 3647 3509 3647 2328 
Q 3647 1150 3233 529 
Q 2819 -91 2034 -91 
Q 1250 -91 836 529 
Q 422 1150 422 2328 
Q 422 3509 836 4129 
Q 1250 4750 2034 4750 
z
" transform="scale(0.015625)"/>
        <path id="DejaVuSans-11" d="M 684 794 
L 1344 794 
L 1344 0 
L 684 0 
L 684 794 
z
" transform="scale(0.015625)"/>
       </defs>
       <use xlink:href="#DejaVuSans-13"/>
       <use xlink:href="#DejaVuSans-11" transform="translate(63.625 0)"/>
       <use xlink:href="#DejaVuSans-13" transform="translate(95.40625 0)"/>
      </g>
     </g>
    </g>
    <g id="xtick_2">
     <g id="line2d_2">
      <g>
       <use xlink:href="#m983a986ff0" x="133.636305" y="190.058633" style="fill: #7f7f7f; stroke: #7f7f7f; stroke-width: 1.8"/>
      </g>
     </g>
     <g id="text_2">
      <!-- 2.5 -->
      <g style="fill: #7f7f7f" transform="translate(125.684743 204.656289) scale(0.1 -0.1)">
       <defs>
        <path id="DejaVuSans-15" d="M 1228 531 
L 3431 531 
L 3431 0 
L 469 0 
L 469 531 
Q 828 903 1448 1529 
Q 2069 2156 2228 2338 
Q 2531 2678 2651 2914 
Q 2772 3150 2772 3378 
Q 2772 3750 2511 3984 
Q 2250 4219 1831 4219 
Q 1534 4219 1204 4116 
Q 875 4013 500 3803 
L 500 4441 
Q 881 4594 1212 4672 
Q 1544 4750 1819 4750 
Q 2544 4750 2975 4387 
Q 3406 4025 3406 3419 
Q 3406 3131 3298 2873 
Q 3191 2616 2906 2266 
Q 2828 2175 2409 1742 
Q 1991 1309 1228 531 
z
" transform="scale(0.015625)"/>
        <path id="DejaVuSans-18" d="M 691 4666 
L 3169 4666 
L 3169 4134 
L 1269 4134 
L 1269 2991 
Q 1406 3038 1543 3061 
Q 1681 3084 1819 3084 
Q 2600 3084 3056 2656 
Q 3513 2228 3513 1497 
Q 3513 744 3044 326 
Q 2575 -91 1722 -91 
Q 1428 -91 1123 -41 
Q 819 9 494 109 
L 494 744 
Q 775 591 1075 516 
Q 1375 441 1709 441 
Q 2250 441 2565 725 
Q 2881 1009 2881 1497 
Q 2881 1984 2565 2268 
Q 2250 2553 1709 2553 
Q 1456 2553 1204 2497 
Q 953 2441 691 2322 
L 691 4666 
z
" transform="scale(0.015625)"/>
       </defs>
       <use xlink:href="#DejaVuSans-15"/>
       <use xlink:href="#DejaVuSans-11" transform="translate(63.625 0)"/>
       <use xlink:href="#DejaVuSans-18" transform="translate(95.40625 0)"/>
      </g>
     </g>
    </g>
    <g id="xtick_3">
     <g id="line2d_3">
      <g>
       <use xlink:href="#m983a986ff0" x="192.329034" y="190.058633" style="fill: #7f7f7f; stroke: #7f7f7f; stroke-width: 1.8"/>
      </g>
     </g>
     <g id="text_3">
      <!-- 5.0 -->
      <g style="fill: #7f7f7f" transform="translate(184.377472 204.656289) scale(0.1 -0.1)">
       <use xlink:href="#DejaVuSans-18"/>
       <use xlink:href="#DejaVuSans-11" transform="translate(63.625 0)"/>
       <use xlink:href="#DejaVuSans-13" transform="translate(95.40625 0)"/>
      </g>
     </g>
    </g>
    <g id="xtick_4">
     <g id="line2d_4">
      <g>
       <use xlink:href="#m983a986ff0" x="251.021763" y="190.058633" style="fill: #7f7f7f; stroke: #7f7f7f; stroke-width: 1.8"/>
      </g>
     </g>
     <g id="text_4">
      <!-- 7.5 -->
      <g style="fill: #7f7f7f" transform="translate(243.070201 204.656289) scale(0.1 -0.1)">
       <defs>
        <path id="DejaVuSans-1a" d="M 525 4666 
L 3525 4666 
L 3525 4397 
L 1831 0 
L 1172 0 
L 2766 4134 
L 525 4134 
L 525 4666 
z
" transform="scale(0.015625)"/>
       </defs>
       <use xlink:href="#DejaVuSans-1a"/>
       <use xlink:href="#DejaVuSans-11" transform="translate(63.625 0)"/>
       <use xlink:href="#DejaVuSans-18" transform="translate(95.40625 0)"/>
      </g>
     </g>
    </g>
    <g id="xtick_5">
     <g id="line2d_5">
      <g>
       <use xlink:href="#m983a986ff0" x="309.714492" y="190.058633" style="fill: #7f7f7f; stroke: #7f7f7f; stroke-width: 1.8"/>
      </g>
     </g>
     <g id="text_5">
      <!-- 10.0 -->
      <g style="fill: #7f7f7f" transform="translate(298.58168 204.656289) scale(0.1 -0.1)">
       <defs>
        <path id="DejaVuSans-14" d="M 794 531 
L 1825 531 
L 1825 4091 
L 703 3866 
L 703 4441 
L 1819 4666 
L 2450 4666 
L 2450 531 
L 3481 531 
L 3481 0 
L 794 0 
L 794 531 
z
" transform="scale(0.015625)"/>
       </defs>
       <use xlink:href="#DejaVuSans-14"/>
       <use xlink:href="#DejaVuSans-13" transform="translate(63.625 0)"/>
       <use xlink:href="#DejaVuSans-11" transform="translate(127.25 0)"/>
       <use xlink:href="#DejaVuSans-13" transform="translate(159.03125 0)"/>
      </g>
     </g>
    </g>
    <g id="xtick_6">
     <g id="line2d_6">
      <g>
       <use xlink:href="#m983a986ff0" x="368.407221" y="190.058633" style="fill: #7f7f7f; stroke: #7f7f7f; stroke-width: 1.8"/>
      </g>
     </g>
     <g id="text_6">
      <!-- 12.5 -->
      <g style="fill: #7f7f7f" transform="translate(357.274409 204.656289) scale(0.1 -0.1)">
       <use xlink:href="#DejaVuSans-14"/>
       <use xlink:href="#DejaVuSans-15" transform="translate(63.625 0)"/>
       <use xlink:href="#DejaVuSans-11" transform="translate(127.25 0)"/>
       <use xlink:href="#DejaVuSans-18" transform="translate(159.03125 0)"/>
      </g>
     </g>
    </g>
    <g id="xtick_7">
     <g id="line2d_7">
      <g>
       <use xlink:href="#m983a986ff0" x="427.09995" y="190.058633" style="fill: #7f7f7f; stroke: #7f7f7f; stroke-width: 1.8"/>
      </g>
     </g>
     <g id="text_7">
      <!-- 15.0 -->
      <g style="fill: #7f7f7f" transform="translate(415.967138 204.656289) scale(0.1 -0.1)">
       <use xlink:href="#DejaVuSans-14"/>
       <use xlink:href="#DejaVuSans-18" transform="translate(63.625 0)"/>
       <use xlink:href="#DejaVuSans-11" transform="translate(127.25 0)"/>
       <use xlink:href="#DejaVuSans-13" transform="translate(159.03125 0)"/>
      </g>
     </g>
    </g>
    <g id="xtick_8">
     <g id="line2d_8">
      <g>
       <use xlink:href="#m983a986ff0" x="485.792679" y="190.058633" style="fill: #7f7f7f; stroke: #7f7f7f; stroke-width: 1.8"/>
      </g>
     </g>
     <g id="text_8">
      <!-- 17.5 -->
      <g style="fill: #7f7f7f" transform="translate(474.659867 204.656289) scale(0.1 -0.1)">
       <use xlink:href="#DejaVuSans-14"/>
       <use xlink:href="#DejaVuSans-1a" transform="translate(63.625 0)"/>
       <use xlink:href="#DejaVuSans-11" transform="translate(127.25 0)"/>
       <use xlink:href="#DejaVuSans-18" transform="translate(159.03125 0)"/>
      </g>
     </g>
    </g>
    <g id="xtick_9">
     <g id="line2d_9">
      <g>
       <use xlink:href="#m983a986ff0" x="544.485408" y="190.058633" style="fill: #7f7f7f; stroke: #7f7f7f; stroke-width: 1.8"/>
      </g>
     </g>
     <g id="text_9">
      <!-- 20.0 -->
      <g style="fill: #7f7f7f" transform="translate(533.352596 204.656289) scale(0.1 -0.1)">
       <use xlink:href="#DejaVuSans-15"/>
       <use xlink:href="#DejaVuSans-13" transform="translate(63.625 0)"/>
       <use xlink:href="#DejaVuSans-11" transform="translate(127.25 0)"/>
       <use xlink:href="#DejaVuSans-13" transform="translate(159.03125 0)"/>
      </g>
     </g>
    </g>
   </g>
   <g id="matplotlib.axis_2">
    <g id="ytick_1">
     <g id="line2d_10">
      <defs>
       <path id="m3e954dac05" d="M 0 0 
L -3.5 0 
" style="stroke: #7f7f7f; stroke-width: 1.8"/>
      </defs>
      <g>
       <use xlink:href="#m3e954dac05" x="51.466484" y="182.434064" style="fill: #7f7f7f; stroke: #7f7f7f; stroke-width: 1.8"/>
      </g>
     </g>
     <g id="text_10">
      <!-- 0.00 -->
      <g style="fill: #7f7f7f" transform="translate(22.200859 186.232892) scale(0.1 -0.1)">
       <use xlink:href="#DejaVuSans-13"/>
       <use xlink:href="#DejaVuSans-11" transform="translate(63.625 0)"/>
       <use xlink:href="#DejaVuSans-13" transform="translate(95.40625 0)"/>
       <use xlink:href="#DejaVuSans-13" transform="translate(159.03125 0)"/>
      </g>
     </g>
    </g>
    <g id="ytick_2">
     <g id="line2d_11">
      <g>
       <use xlink:href="#m3e954dac05" x="51.466484" y="160.896205" style="fill: #7f7f7f; stroke: #7f7f7f; stroke-width: 1.8"/>
      </g>
     </g>
     <g id="text_11">
      <!-- 0.05 -->
      <g style="fill: #7f7f7f" transform="translate(22.200859 164.695033) scale(0.1 -0.1)">
       <use xlink:href="#DejaVuSans-13"/>
       <use xlink:href="#DejaVuSans-11" transform="translate(63.625 0)"/>
       <use xlink:href="#DejaVuSans-13" transform="translate(95.40625 0)"/>
       <use xlink:href="#DejaVuSans-18" transform="translate(159.03125 0)"/>
      </g>
     </g>
    </g>
    <g id="ytick_3">
     <g id="line2d_12">
      <g>
       <use xlink:href="#m3e954dac05" x="51.466484" y="139.358346" style="fill: #7f7f7f; stroke: #7f7f7f; stroke-width: 1.8"/>
      </g>
     </g>
     <g id="text_12">
      <!-- 0.10 -->
      <g style="fill: #7f7f7f" transform="translate(22.200859 143.157174) scale(0.1 -0.1)">
       <use xlink:href="#DejaVuSans-13"/>
       <use xlink:href="#DejaVuSans-11" transform="translate(63.625 0)"/>
       <use xlink:href="#DejaVuSans-14" transform="translate(95.40625 0)"/>
       <use xlink:href="#DejaVuSans-13" transform="translate(159.03125 0)"/>
      </g>
     </g>
    </g>
    <g id="ytick_4">
     <g id="line2d_13">
      <g>
       <use xlink:href="#m3e954dac05" x="51.466484" y="117.820487" style="fill: #7f7f7f; stroke: #7f7f7f; stroke-width: 1.8"/>
      </g>
     </g>
     <g id="text_13">
      <!-- 0.15 -->
      <g style="fill: #7f7f7f" transform="translate(22.200859 121.619315) scale(0.1 -0.1)">
       <use xlink:href="#DejaVuSans-13"/>
       <use xlink:href="#DejaVuSans-11" transform="translate(63.625 0)"/>
       <use xlink:href="#DejaVuSans-14" transform="translate(95.40625 0)"/>
       <use xlink:href="#DejaVuSans-18" transform="translate(159.03125 0)"/>
      </g>
     </g>
    </g>
    <g id="ytick_5">
     <g id="line2d_14">
      <g>
       <use xlink:href="#m3e954dac05" x="51.466484" y="96.282628" style="fill: #7f7f7f; stroke: #7f7f7f; stroke-width: 1.8"/>
      </g>
     </g>
     <g id="text_14">
      <!-- 0.20 -->
      <g style="fill: #7f7f7f" transform="translate(22.200859 100.081456) scale(0.1 -0.1)">
       <use xlink:href="#DejaVuSans-13"/>
       <use xlink:href="#DejaVuSans-11" transform="translate(63.625 0)"/>
       <use xlink:href="#DejaVuSans-15" transform="translate(95.40625 0)"/>
       <use xlink:href="#DejaVuSans-13" transform="translate(159.03125 0)"/>
      </g>
     </g>
    </g>
    <g id="ytick_6">
     <g id="line2d_15">
      <g>
       <use xlink:href="#m3e954dac05" x="51.466484" y="74.744769" style="fill: #7f7f7f; stroke: #7f7f7f; stroke-width: 1.8"/>
      </g>
     </g>
     <g id="text_15">
      <!-- 0.25 -->
      <g style="fill: #7f7f7f" transform="translate(22.200859 78.543597) scale(0.1 -0.1)">
       <use xlink:href="#DejaVuSans-13"/>
       <use xlink:href="#DejaVuSans-11" transform="translate(63.625 0)"/>
       <use xlink:href="#DejaVuSans-15" transform="translate(95.40625 0)"/>
       <use xlink:href="#DejaVuSans-18" transform="translate(159.03125 0)"/>
      </g>
     </g>
    </g>
    <g id="ytick_7">
     <g id="line2d_16">
      <g>
       <use xlink:href="#m3e954dac05" x="51.466484" y="53.206909" style="fill: #7f7f7f; stroke: #7f7f7f; stroke-width: 1.8"/>
      </g>
     </g>
     <g id="text_16">
      <!-- 0.30 -->
      <g style="fill: #7f7f7f" transform="translate(22.200859 57.005738) scale(0.1 -0.1)">
       <defs>
        <path id="DejaVuSans-16" d="M 2597 2516 
Q 3050 2419 3304 2112 
Q 3559 1806 3559 1356 
Q 3559 666 3084 287 
Q 2609 -91 1734 -91 
Q 1441 -91 1130 -33 
Q 819 25 488 141 
L 488 750 
Q 750 597 1062 519 
Q 1375 441 1716 441 
Q 2309 441 2620 675 
Q 2931 909 2931 1356 
Q 2931 1769 2642 2001 
Q 2353 2234 1838 2234 
L 1294 2234 
L 1294 2753 
L 1863 2753 
Q 2328 2753 2575 2939 
Q 2822 3125 2822 3475 
Q 2822 3834 2567 4026 
Q 2313 4219 1838 4219 
Q 1578 4219 1281 4162 
Q 984 4106 628 3988 
L 628 4550 
Q 988 4650 1302 4700 
Q 1616 4750 1894 4750 
Q 2613 4750 3031 4423 
Q 3450 4097 3450 3541 
Q 3450 3153 3228 2886 
Q 3006 2619 2597 2516 
z
" transform="scale(0.015625)"/>
       </defs>
       <use xlink:href="#DejaVuSans-13"/>
       <use xlink:href="#DejaVuSans-11" transform="translate(63.625 0)"/>
       <use xlink:href="#DejaVuSans-16" transform="translate(95.40625 0)"/>
       <use xlink:href="#DejaVuSans-13" transform="translate(159.03125 0)"/>
      </g>
     </g>
    </g>
    <g id="ytick_8">
     <g id="line2d_17">
      <g>
       <use xlink:href="#m3e954dac05" x="51.466484" y="31.66905" style="fill: #7f7f7f; stroke: #7f7f7f; stroke-width: 1.8"/>
      </g>
     </g>
     <g id="text_17">
      <!-- 0.35 -->
      <g style="fill: #7f7f7f" transform="translate(22.200859 35.467878) scale(0.1 -0.1)">
       <use xlink:href="#DejaVuSans-13"/>
       <use xlink:href="#DejaVuSans-11" transform="translate(63.625 0)"/>
       <use xlink:href="#DejaVuSans-16" transform="translate(95.40625 0)"/>
       <use xlink:href="#DejaVuSans-18" transform="translate(159.03125 0)"/>
      </g>
     </g>
    </g>
    <g id="text_18">
     <!-- Position Error [m] -->
     <g style="fill: #7f7f7f" transform="translate(15.558281 154.153535) rotate(-90) scale(0.11 -0.11)">
      <defs>
       <path id="DejaVuSans-33" d="M 1259 4147 
L 1259 2394 
L 2053 2394 
Q 2494 2394 2734 2622 
Q 2975 2850 2975 3272 
Q 2975 3691 2734 3919 
Q 2494 4147 2053 4147 
L 1259 4147 
z
M 628 4666 
L 2053 4666 
Q 2838 4666 3239 4311 
Q 3641 3956 3641 3272 
Q 3641 2581 3239 2228 
Q 2838 1875 2053 1875 
L 1259 1875 
L 1259 0 
L 628 0 
L 628 4666 
z
" transform="scale(0.015625)"/>
       <path id="DejaVuSans-52" d="M 1959 3097 
Q 1497 3097 1228 2736 
Q 959 2375 959 1747 
Q 959 1119 1226 758 
Q 1494 397 1959 397 
Q 2419 397 2687 759 
Q 2956 1122 2956 1747 
Q 2956 2369 2687 2733 
Q 2419 3097 1959 3097 
z
M 1959 3584 
Q 2709 3584 3137 3096 
Q 3566 2609 3566 1747 
Q 3566 888 3137 398 
Q 2709 -91 1959 -91 
Q 1206 -91 779 398 
Q 353 888 353 1747 
Q 353 2609 779 3096 
Q 1206 3584 1959 3584 
z
" transform="scale(0.015625)"/>
       <path id="DejaVuSans-56" d="M 2834 3397 
L 2834 2853 
Q 2591 2978 2328 3040 
Q 2066 3103 1784 3103 
Q 1356 3103 1142 2972 
Q 928 2841 928 2578 
Q 928 2378 1081 2264 
Q 1234 2150 1697 2047 
L 1894 2003 
Q 2506 1872 2764 1633 
Q 3022 1394 3022 966 
Q 3022 478 2636 193 
Q 2250 -91 1575 -91 
Q 1294 -91 989 -36 
Q 684 19 347 128 
L 347 722 
Q 666 556 975 473 
Q 1284 391 1588 391 
Q 1994 391 2212 530 
Q 2431 669 2431 922 
Q 2431 1156 2273 1281 
Q 2116 1406 1581 1522 
L 1381 1569 
Q 847 1681 609 1914 
Q 372 2147 372 2553 
Q 372 3047 722 3315 
Q 1072 3584 1716 3584 
Q 2034 3584 2315 3537 
Q 2597 3491 2834 3397 
z
" transform="scale(0.015625)"/>
       <path id="DejaVuSans-4c" d="M 603 3500 
L 1178 3500 
L 1178 0 
L 603 0 
L 603 3500 
z
M 603 4863 
L 1178 4863 
L 1178 4134 
L 603 4134 
L 603 4863 
z
" transform="scale(0.015625)"/>
       <path id="DejaVuSans-57" d="M 1172 4494 
L 1172 3500 
L 2356 3500 
L 2356 3053 
L 1172 3053 
L 1172 1153 
Q 1172 725 1289 603 
Q 1406 481 1766 481 
L 2356 481 
L 2356 0 
L 1766 0 
Q 1100 0 847 248 
Q 594 497 594 1153 
L 594 3053 
L 172 3053 
L 172 3500 
L 594 3500 
L 594 4494 
L 1172 4494 
z
" transform="scale(0.015625)"/>
       <path id="DejaVuSans-51" d="M 3513 2113 
L 3513 0 
L 2938 0 
L 2938 2094 
Q 2938 2591 2744 2837 
Q 2550 3084 2163 3084 
Q 1697 3084 1428 2787 
Q 1159 2491 1159 1978 
L 1159 0 
L 581 0 
L 581 3500 
L 1159 3500 
L 1159 2956 
Q 1366 3272 1645 3428 
Q 1925 3584 2291 3584 
Q 2894 3584 3203 3211 
Q 3513 2838 3513 2113 
z
" transform="scale(0.015625)"/>
       <path id="DejaVuSans-3" transform="scale(0.015625)"/>
       <path id="DejaVuSans-28" d="M 628 4666 
L 3578 4666 
L 3578 4134 
L 1259 4134 
L 1259 2753 
L 3481 2753 
L 3481 2222 
L 1259 2222 
L 1259 531 
L 3634 531 
L 3634 0 
L 628 0 
L 628 4666 
z
" transform="scale(0.015625)"/>
       <path id="DejaVuSans-55" d="M 2631 2963 
Q 2534 3019 2420 3045 
Q 2306 3072 2169 3072 
Q 1681 3072 1420 2755 
Q 1159 2438 1159 1844 
L 1159 0 
L 581 0 
L 581 3500 
L 1159 3500 
L 1159 2956 
Q 1341 3275 1631 3429 
Q 1922 3584 2338 3584 
Q 2397 3584 2469 3576 
Q 2541 3569 2628 3553 
L 2631 2963 
z
" transform="scale(0.015625)"/>
       <path id="DejaVuSans-3e" d="M 550 4863 
L 1875 4863 
L 1875 4416 
L 1125 4416 
L 1125 -397 
L 1875 -397 
L 1875 -844 
L 550 -844 
L 550 4863 
z
" transform="scale(0.015625)"/>
       <path id="DejaVuSans-50" d="M 3328 2828 
Q 3544 3216 3844 3400 
Q 4144 3584 4550 3584 
Q 5097 3584 5394 3201 
Q 5691 2819 5691 2113 
L 5691 0 
L 5113 0 
L 5113 2094 
Q 5113 2597 4934 2840 
Q 4756 3084 4391 3084 
Q 3944 3084 3684 2787 
Q 3425 2491 3425 1978 
L 3425 0 
L 2847 0 
L 2847 2094 
Q 2847 2600 2669 2842 
Q 2491 3084 2119 3084 
Q 1678 3084 1418 2786 
Q 1159 2488 1159 1978 
L 1159 0 
L 581 0 
L 581 3500 
L 1159 3500 
L 1159 2956 
Q 1356 3278 1631 3431 
Q 1906 3584 2284 3584 
Q 2666 3584 2933 3390 
Q 3200 3197 3328 2828 
z
" transform="scale(0.015625)"/>
       <path id="DejaVuSans-40" d="M 1947 4863 
L 1947 -844 
L 622 -844 
L 622 -397 
L 1369 -397 
L 1369 4416 
L 622 4416 
L 622 4863 
L 1947 4863 
z
" transform="scale(0.015625)"/>
      </defs>
      <use xlink:href="#DejaVuSans-33"/>
      <use xlink:href="#DejaVuSans-52" transform="translate(56.734375 0)"/>
      <use xlink:href="#DejaVuSans-56" transform="translate(117.921875 0)"/>
      <use xlink:href="#DejaVuSans-4c" transform="translate(170.015625 0)"/>
      <use xlink:href="#DejaVuSans-57" transform="translate(197.796875 0)"/>
      <use xlink:href="#DejaVuSans-4c" transform="translate(237 0)"/>
      <use xlink:href="#DejaVuSans-52" transform="translate(264.78125 0)"/>
      <use xlink:href="#DejaVuSans-51" transform="translate(325.96875 0)"/>
      <use xlink:href="#DejaVuSans-3" transform="translate(389.34375 0)"/>
      <use xlink:href="#DejaVuSans-28" transform="translate(421.125 0)"/>
      <use xlink:href="#DejaVuSans-55" transform="translate(484.3125 0)"/>
      <use xlink:href="#DejaVuSans-55" transform="translate(523.671875 0)"/>
      <use xlink:href="#DejaVuSans-52" transform="translate(562.578125 0)"/>
      <use xlink:href="#DejaVuSans-55" transform="translate(623.765625 0)"/>
      <use xlink:href="#DejaVuSans-3" transform="translate(664.875 0)"/>
      <use xlink:href="#DejaVuSans-3e" transform="translate(696.65625 0)"/>
      <use xlink:href="#DejaVuSans-50" transform="translate(735.671875 0)"/>
      <use xlink:href="#DejaVuSans-40" transform="translate(833.078125 0)"/>
     </g>
    </g>
   </g>
   <g id="line2d_18">
    <path d="M 74.943576 182.434064 
L 75.413118 130.554689 
L 76.821743 146.658813 
L 77.056514 160.635721 
L 77.526056 141.957804 
L 77.760827 127.590439 
L 77.995598 155.506148 
L 78.699911 181.044654 
L 79.169452 170.819548 
L 80.578078 92.482466 
L 80.812849 95.508458 
L 81.04762 95.93053 
L 81.517162 125.958972 
L 81.751933 114.461618 
L 82.691016 29.942694 
L 82.925787 59.968839 
L 84.334413 159.090007 
L 84.569184 157.540137 
L 84.803954 180.148729 
L 85.508267 174.529318 
L 85.743038 169.319287 
L 85.977809 182.089229 
L 86.21258 169.558327 
L 86.447351 177.727346 
L 86.682122 173.193584 
L 87.386435 148.160754 
L 87.621205 148.211904 
L 87.855976 176.904516 
L 88.560289 151.768174 
L 88.79506 148.203718 
L 89.029831 118.5066 
L 89.499373 153.154325 
L 90.438456 164.057367 
L 90.673227 163.589125 
L 91.142769 153.524009 
L 91.37754 180.048789 
L 92.081853 177.820914 
L 92.316624 167.254866 
L 92.551395 179.873739 
L 93.020937 179.321772 
L 93.725249 179.769931 
L 95.133875 155.140186 
L 95.838188 181.004695 
L 96.307729 168.192275 
L 96.5425 175.256572 
L 96.777271 159.684658 
L 97.012042 170.344207 
L 97.716355 148.633435 
L 98.185897 151.832513 
L 98.655439 148.989627 
L 98.890209 160.165505 
L 99.12498 143.437632 
L 99.594522 151.782306 
L 100.064064 180.426929 
L 100.533606 162.706539 
L 101.003148 166.877476 
L 101.942231 143.533991 
L 102.177002 150.366221 
L 102.411773 155.822677 
L 102.646544 149.307965 
L 102.881315 149.628232 
L 103.116086 139.963467 
L 103.350857 164.883714 
L 104.289941 181.01465 
L 104.524711 170.939186 
L 104.994253 181.228292 
L 105.229024 177.504046 
L 105.933337 158.063775 
L 106.402879 165.124396 
L 106.63765 164.621349 
L 106.872421 180.900149 
L 107.341962 157.490094 
L 107.576733 168.270298 
L 108.515817 176.162519 
L 108.985359 179.93281 
L 109.22013 176.44808 
L 110.159213 166.755129 
L 110.393984 167.297211 
L 110.628755 177.845273 
L 111.098297 175.595518 
L 111.567839 150.414917 
L 112.272152 160.21244 
L 114.38509 182.359402 
L 114.619861 165.69264 
L 115.558944 167.740545 
L 115.793715 170.088836 
L 116.263257 169.721962 
L 116.498028 166.916337 
L 116.732799 181.409104 
L 117.671883 178.370499 
L 118.376195 169.15338 
L 118.845737 181.568718 
L 119.315279 176.109573 
L 120.254363 161.601862 
L 121.428217 115.553459 
L 121.897759 120.87225 
L 122.367301 138.423804 
L 123.071614 126.919518 
L 124.71501 147.858871 
L 123.541156 126.370846 
L 124.949781 144.356294 
L 125.888865 160.063669 
L 125.419323 142.890363 
L 126.358407 153.30275 
L 127.29749 180.352929 
L 127.767032 179.295999 
L 128.471345 144.66202 
L 128.940887 152.794856 
L 129.410429 154.325771 
L 129.645199 144.494982 
L 131.053825 182.262348 
L 131.523367 181.746833 
L 132.931992 161.601517 
L 133.166763 162.308661 
L 133.401534 172.02482 
L 134.105847 169.86714 
L 134.81016 150.67682 
L 135.514472 156.483152 
L 135.749243 160.976541 
L 136.218785 151.511043 
L 136.453556 141.410828 
L 136.923098 162.706981 
L 137.157869 154.089161 
L 137.39264 154.170898 
L 137.627411 155.533818 
L 138.096952 135.759079 
L 138.801265 139.922944 
L 140.209891 157.410906 
L 140.914203 153.409542 
L 141.383745 168.681165 
L 141.618516 167.359431 
L 142.5576 134.781567 
L 143.027142 139.97024 
L 143.496684 144.204715 
L 144.670538 102.6604 
L 145.14008 110.667716 
L 145.374851 112.35531 
L 145.844393 100.361918 
L 146.313935 107.029306 
L 146.548705 111.998236 
L 147.018247 103.807591 
L 147.487789 84.555262 
L 147.72256 101.182947 
L 149.365956 135.863724 
L 149.600727 134.952293 
L 149.835498 127.790715 
L 150.070269 140.538673 
L 150.30504 137.78804 
L 151.478895 161.041032 
L 151.713666 154.392543 
L 152.417978 158.245675 
L 152.88752 149.350001 
L 153.122291 162.057532 
L 154.530917 182.239803 
L 155.704771 137.352759 
L 155.939542 140.915439 
L 157.348168 174.511471 
L 157.817709 170.400102 
L 158.05248 154.58607 
L 158.522022 175.161979 
L 158.756793 170.995938 
L 159.226335 169.986771 
L 159.695877 182.22998 
L 160.165419 176.241919 
L 160.400189 147.059283 
L 161.104502 165.076335 
L 161.808815 179.499643 
L 162.043586 178.116302 
L 163.21744 155.13176 
L 163.921753 178.719979 
L 164.391295 177.760867 
L 165.330379 162.600614 
L 165.56515 168.375468 
L 165.799921 169.877781 
L 166.034691 166.473668 
L 166.504233 168.008388 
L 166.739004 166.882814 
L 167.912859 180.909514 
L 168.14763 175.959817 
L 168.851942 181.44995 
L 169.086713 182.107327 
L 169.321484 181.482149 
L 170.495339 173.840452 
L 170.73011 180.970364 
L 171.199652 171.392711 
L 171.434423 172.344774 
L 172.138735 163.742218 
L 172.373506 168.652926 
L 172.843048 182.016117 
L 173.547361 176.600539 
L 174.016903 164.878599 
L 174.251674 177.378494 
L 174.486444 180.882991 
L 174.721215 178.805629 
L 174.955986 170.537359 
L 175.425528 181.103883 
L 175.660299 180.354464 
L 177.068925 159.151106 
L 176.129841 181.007183 
L 177.538466 161.940991 
L 177.773237 167.233063 
L 178.242779 160.998191 
L 179.181863 144.447906 
L 179.416634 147.06778 
L 180.355717 160.610054 
L 180.590488 158.137775 
L 181.764343 147.042368 
L 181.999114 168.359128 
L 182.468656 149.685093 
L 183.877281 114.632811 
L 184.112052 134.157786 
L 185.051136 129.954113 
L 186.459761 154.440859 
L 187.164074 120.680928 
L 187.868387 78.376971 
L 188.337929 105.955905 
L 188.572699 105.649606 
L 189.042241 120.303974 
L 189.277012 109.650672 
L 189.511783 98.339085 
L 189.981325 115.499714 
L 190.216096 121.661997 
L 190.450867 120.420697 
L 190.685638 106.155046 
L 191.15518 129.44067 
L 191.859492 154.538086 
L 192.094263 142.834838 
L 192.563805 126.501697 
L 193.033347 139.499301 
L 193.268118 140.626828 
L 194.441972 181.42055 
L 194.676743 180.841091 
L 194.911514 172.778545 
L 195.381056 181.189999 
L 195.850598 174.561925 
L 196.085369 180.725354 
L 196.32014 173.841456 
L 196.789681 159.922889 
L 197.259223 162.612834 
L 197.493994 169.441693 
L 197.728765 159.040372 
L 197.963536 161.541629 
L 198.667849 149.974947 
L 200.076474 182.109488 
L 200.780787 171.364837 
L 201.015558 175.411144 
L 201.4851 174.257378 
L 201.954642 182.19567 
L 202.424183 162.398187 
L 202.893725 175.281352 
L 203.598038 179.651148 
L 203.363267 174.375542 
L 203.832809 175.161457 
L 204.06758 175.691719 
L 204.537122 158.222083 
L 204.771893 179.025133 
L 205.006664 178.169077 
L 205.241434 179.024195 
L 205.476205 180.391781 
L 205.710976 179.08239 
L 206.180518 168.38796 
L 208.058685 126.548723 
L 208.997769 136.83136 
L 210.171624 180.806446 
L 211.580249 161.652195 
L 212.988875 180.979591 
L 213.223646 181.494329 
L 215.101813 123.124978 
L 215.336584 130.638837 
L 215.806126 121.843804 
L 217.214751 102.979973 
L 217.449522 95.180456 
L 217.684293 112.337855 
L 217.919064 130.018665 
L 218.388606 118.253903 
L 218.623377 107.122411 
L 219.092919 120.128613 
L 219.327689 123.943972 
L 220.266773 165.321848 
L 220.501544 153.866886 
L 222.14494 136.202108 
L 222.379711 144.252281 
L 223.084024 182.243318 
L 223.788337 170.523856 
L 224.023108 176.774069 
L 224.257879 161.768584 
L 224.49265 167.127061 
L 225.666504 130.226359 
L 226.136046 147.27928 
L 227.779442 176.956916 
L 228.248984 175.006562 
L 228.483755 179.366208 
L 228.718526 173.296005 
L 229.892381 157.420449 
L 230.127152 167.093604 
L 230.831464 163.803948 
L 231.301006 154.802117 
L 231.535777 156.581034 
L 232.24009 181.284357 
L 232.709632 175.932514 
L 233.179174 145.565941 
L 234.118257 146.657576 
L 234.353028 159.829541 
L 235.292112 157.045224 
L 235.761654 145.428317 
L 236.231195 152.457517 
L 236.465966 154.13562 
L 237.874592 173.239444 
L 238.344134 172.396102 
L 239.283217 178.582965 
L 239.752759 178.883883 
L 240.691843 155.311373 
L 241.161385 181.663813 
L 241.630926 178.732173 
L 242.100468 161.076003 
L 242.57001 166.940031 
L 243.039552 180.908918 
L 243.743865 180.753206 
L 244.448177 158.17205 
L 244.682948 160.013789 
L 244.917719 174.525417 
L 245.387261 157.649939 
L 245.622032 158.181148 
L 247.030658 140.071551 
L 247.265428 137.49241 
L 248.674054 175.116778 
L 249.143596 161.141101 
L 249.378367 167.18372 
L 249.613138 180.324481 
L 250.31745 175.975573 
L 250.552221 175.709699 
L 250.786992 178.191947 
L 251.491305 135.679735 
L 252.195618 143.552303 
L 253.134701 117.266462 
L 253.369472 135.920102 
L 253.604243 139.098956 
L 253.839014 128.397838 
L 254.308556 143.2146 
L 254.543327 145.630544 
L 254.778098 140.976587 
L 255.482411 132.02212 
L 255.24764 142.122902 
L 255.717181 136.32709 
L 256.656265 179.152187 
L 256.891036 168.007129 
L 257.125807 165.393539 
L 257.595349 170.394857 
L 257.83012 178.451096 
L 258.299662 161.053576 
L 258.534432 149.7808 
L 259.473516 150.904765 
L 260.177829 138.070314 
L 260.4126 147.442023 
L 260.647371 147.879758 
L 260.882142 138.023989 
L 261.351683 154.446077 
L 261.821225 141.841379 
L 262.760309 142.927891 
L 262.99508 150.807537 
L 263.464622 141.224986 
L 263.699393 128.134955 
L 264.403705 135.985508 
L 264.638476 144.429759 
L 265.108018 137.899663 
L 265.342789 131.735885 
L 265.57756 139.919031 
L 267.455727 167.942637 
L 267.925269 174.493529 
L 268.16004 152.915145 
L 268.864353 175.673732 
L 269.333895 173.706306 
L 269.803436 181.787221 
L 271.916375 140.470255 
L 272.855458 157.464719 
L 273.090229 156.761007 
L 273.325 144.554908 
L 274.029313 150.998586 
L 274.264084 153.362966 
L 275.203168 136.25323 
L 275.437938 138.804405 
L 276.377022 175.527484 
L 276.611793 169.296912 
L 276.846564 168.903632 
L 277.316106 180.337154 
L 278.020419 178.385965 
L 278.255189 182.28563 
L 278.724731 174.716511 
L 278.959502 175.615768 
L 279.194273 182.419099 
L 279.429044 175.900883 
L 279.898586 156.159969 
L 280.368128 164.667594 
L 281.307211 179.055389 
L 281.541982 177.171694 
L 282.011524 180.484993 
L 282.715837 164.66532 
L 282.950608 162.662895 
L 283.185379 164.152554 
L 284.594004 179.404743 
L 285.298317 149.464545 
L 286.00263 153.665635 
L 286.237401 164.290994 
L 286.706942 147.636045 
L 286.941713 145.726781 
L 288.350339 120.887638 
L 288.58511 119.952311 
L 289.054652 131.564217 
L 289.289422 120.230304 
L 289.993735 106.345878 
L 290.228506 119.633922 
L 290.463277 118.428196 
L 291.871903 171.618628 
L 292.341444 154.422205 
L 292.576215 142.567568 
L 293.045757 152.016399 
L 293.515299 170.90857 
L 293.984841 167.43115 
L 294.219612 158.040103 
L 294.454383 170.773488 
L 294.923924 163.736781 
L 295.158695 178.419409 
L 296.097779 178.319604 
L 296.567321 157.970701 
L 297.271634 167.202543 
L 298.445488 180.138677 
L 298.91503 169.318644 
L 299.384572 177.514046 
L 299.854114 172.849413 
L 300.323656 174.669583 
L 300.793197 167.525937 
L 301.027968 178.522697 
L 301.49751 178.367382 
L 301.967052 179.112005 
L 302.906136 150.264303 
L 303.845219 180.275795 
L 304.314761 173.583869 
L 304.784303 166.739678 
L 305.019074 179.172484 
L 305.723387 165.382834 
L 307.132012 118.292115 
L 306.192928 165.927052 
L 307.836325 124.207056 
L 308.775409 141.645175 
L 309.010179 135.778935 
L 309.24495 133.613695 
L 310.888347 181.946615 
L 312.062201 139.945218 
L 312.296972 143.717545 
L 312.531743 131.691913 
L 313.236056 135.557423 
L 314.409911 167.210651 
L 314.644681 162.175036 
L 315.348994 157.572148 
L 315.583765 170.327954 
L 316.053307 162.020592 
L 316.288078 149.846008 
L 316.522849 165.909468 
L 316.992391 160.038666 
L 317.931474 135.63569 
L 318.401016 143.805434 
L 319.105329 142.415501 
L 320.044412 175.072555 
L 321.687809 136.446693 
L 322.861663 151.766701 
L 323.096434 142.043266 
L 323.565976 151.886159 
L 323.800747 157.961809 
L 324.270289 147.449809 
L 324.50506 156.312479 
L 325.444144 146.914599 
L 326.383227 105.943804 
L 327.322311 114.056624 
L 327.557082 115.677393 
L 327.791853 126.238721 
L 328.261395 112.795744 
L 328.496165 125.72922 
L 329.904791 96.258932 
L 330.139562 111.754534 
L 331.078646 109.069568 
L 331.313416 109.395059 
L 332.487271 160.487812 
L 332.722042 150.717761 
L 332.956813 143.199221 
L 333.426355 150.182302 
L 334.365438 161.312962 
L 334.600209 157.922914 
L 335.774064 181.249056 
L 336.713148 174.202156 
L 337.652231 157.833928 
L 337.887002 160.355432 
L 338.121773 175.2329 
L 338.591315 164.130466 
L 339.530399 124.29835 
L 339.765169 130.689156 
L 340.939024 152.815711 
L 341.173795 150.37848 
L 343.051962 95.41932 
L 343.286733 98.88706 
L 344.225817 128.254214 
L 344.695359 118.388846 
L 345.634442 90.475999 
L 345.869213 90.705345 
L 347.747381 155.375648 
L 347.982152 136.638644 
L 348.686464 145.243667 
L 350.564632 158.595005 
L 351.268944 135.145403 
L 351.973257 141.983124 
L 352.912341 145.844059 
L 353.851424 147.700888 
L 354.320966 122.064893 
L 355.964363 156.088837 
L 356.199134 144.86637 
L 356.668675 137.809717 
L 356.903446 138.715511 
L 357.138217 148.692258 
L 357.372988 137.084074 
L 357.607759 124.466858 
L 357.84253 139.856456 
L 358.077301 128.211366 
L 358.312072 146.750243 
L 359.251156 145.956235 
L 359.485926 150.833396 
L 359.955468 141.891719 
L 360.190239 139.403548 
L 360.42501 143.693237 
L 361.129323 154.116638 
L 360.894552 140.310192 
L 361.598865 151.186193 
L 361.833636 152.131485 
L 362.772719 167.931266 
L 363.00749 167.120632 
L 363.477032 178.771258 
L 364.181345 178.175828 
L 366.294283 125.526072 
L 367.468138 144.397435 
L 368.641992 126.743341 
L 369.581076 146.41393 
L 370.050618 136.713377 
L 370.520159 136.984899 
L 370.75493 134.497595 
L 371.459243 153.582227 
L 372.163556 153.460037 
L 372.867869 167.404183 
L 373.33741 168.325779 
L 374.511265 180.920124 
L 374.980807 166.036012 
L 375.450349 174.191353 
L 375.68512 174.20933 
L 375.919891 176.287547 
L 376.154661 175.063507 
L 377.798058 149.776906 
L 378.032829 152.772954 
L 378.2676 163.038503 
L 378.971912 151.038709 
L 379.206683 141.958605 
L 379.676225 151.350566 
L 381.084851 181.351407 
L 381.319622 182.245237 
L 381.789163 180.891965 
L 382.493476 167.637355 
L 382.728247 173.225063 
L 382.963018 179.903996 
L 383.667331 172.488486 
L 384.371644 148.480894 
L 384.606414 166.626789 
L 384.841185 176.024972 
L 385.075956 162.323341 
L 385.310727 166.480124 
L 386.01504 167.850484 
L 386.249811 158.063324 
L 386.719353 182.322754 
L 387.658436 182.213188 
L 388.832291 154.693769 
L 389.067062 169.103352 
L 389.536604 180.953305 
L 389.771375 165.327109 
L 390.240916 180.058438 
L 390.475687 173.285489 
L 390.945229 181.374882 
L 391.18 178.964409 
L 391.414771 179.426425 
L 391.884313 179.454538 
L 392.588626 167.95934 
L 393.997251 181.619018 
L 394.701564 170.304044 
L 394.936335 180.36325 
L 395.171106 181.387365 
L 395.640648 179.573528 
L 396.110189 180.378294 
L 396.579731 176.656559 
L 396.814502 182.083822 
L 397.518815 180.419572 
L 398.223128 159.394521 
L 399.866524 109.30935 
L 400.101295 109.570287 
L 400.336066 109.308535 
L 401.50992 91.953938 
L 403.388088 131.368944 
L 404.0924 110.790225 
L 404.796713 114.903449 
L 405.970568 132.799166 
L 407.613964 93.728263 
L 408.083506 63.025179 
L 408.787819 73.518672 
L 409.961673 112.070486 
L 410.196444 110.341366 
L 410.431215 110.178654 
L 410.900757 87.862807 
L 411.135528 103.105051 
L 411.60507 124.784583 
L 412.309383 122.949142 
L 414.657092 159.625499 
L 414.891863 154.424075 
L 415.126634 143.95161 
L 415.596175 163.667355 
L 415.830946 148.288625 
L 417.004801 168.73345 
L 416.535259 147.418659 
L 417.239572 162.864943 
L 417.474343 161.885976 
L 418.413426 179.673908 
L 418.882968 179.486188 
L 419.117739 167.54572 
L 419.822052 173.932979 
L 420.056823 173.313018 
L 420.291594 173.511819 
L 420.526365 181.769738 
L 420.761136 172.958359 
L 420.995906 176.876969 
L 421.465448 144.762128 
L 421.93499 157.186948 
L 422.169761 158.436941 
L 422.404532 152.312858 
L 422.639303 169.554628 
L 422.874074 170.050772 
L 424.047928 145.670127 
L 424.51747 152.161991 
L 426.160867 182.029677 
L 427.334721 168.660372 
L 427.804263 150.825962 
L 428.508576 155.677629 
L 428.743347 154.698395 
L 429.917201 125.995069 
L 430.151972 133.50371 
L 430.621514 119.320797 
L 432.26491 132.953844 
L 432.734452 153.555544 
L 433.438765 144.632388 
L 434.143078 121.798082 
L 434.61262 127.312807 
L 435.082161 106.357871 
L 436.256016 112.799334 
L 436.960329 107.112991 
L 437.1951 107.99866 
L 437.664642 120.208603 
L 438.134183 106.755841 
L 439.77758 130.772954 
L 440.247122 131.374448 
L 440.716663 122.181016 
L 442.125289 92.095121 
L 442.36006 94.396402 
L 442.829602 111.311832 
L 443.299144 104.299152 
L 443.768685 84.125252 
L 444.003456 110.285365 
L 444.238227 112.32366 
L 445.646853 91.698752 
L 446.116394 108.015506 
L 446.351165 93.289445 
L 446.820707 71.919573 
L 447.52502 78.530434 
L 447.759791 80.467646 
L 447.994562 79.672171 
L 448.464104 63.038034 
L 448.933645 79.23343 
L 449.872729 105.308619 
L 450.342271 99.099815 
L 450.577042 81.812537 
L 451.046584 105.824682 
L 451.516126 103.868932 
L 453.629064 145.831466 
L 453.863835 144.758371 
L 454.802918 157.183048 
L 454.333377 144.479304 
L 455.27246 155.646583 
L 455.507231 146.690343 
L 455.976773 161.562139 
L 456.211544 164.59667 
L 457.150628 143.318598 
L 457.385398 148.965153 
L 457.620169 160.93859 
L 458.089711 136.040596 
L 458.324482 152.622043 
L 458.559253 153.510874 
L 458.794024 163.530257 
L 459.263566 142.696592 
L 460.672191 119.392471 
L 461.141733 128.048128 
L 462.315588 182.135961 
L 462.78513 168.687673 
L 463.489442 179.476951 
L 463.724213 180.457045 
L 463.958984 175.798337 
L 464.663297 180.115146 
L 465.132839 180.937159 
L 465.36761 177.764946 
L 465.602381 181.60023 
L 466.071922 173.751723 
L 466.306693 172.5279 
L 467.011006 169.630654 
L 467.480548 181.837627 
L 470.063028 158.240251 
L 470.767341 178.016637 
L 471.236883 169.118469 
L 471.706424 150.262632 
L 471.941195 171.144544 
L 472.175966 163.053131 
L 472.410737 165.462216 
L 472.880279 163.34094 
L 474.054134 107.82127 
L 474.523675 114.590701 
L 477.106155 175.18422 
L 477.810468 143.739725 
L 478.045239 157.852566 
L 478.984323 181.313697 
L 479.453865 178.768118 
L 479.688636 182.002652 
L 480.158177 160.556647 
L 480.86249 171.860796 
L 481.801574 182.198603 
L 482.271116 182.044818 
L 482.505887 181.230812 
L 482.740657 168.452309 
L 483.44497 169.301363 
L 483.914512 163.020073 
L 484.853596 181.839384 
L 487.201305 134.788077 
L 487.670847 132.973792 
L 487.905618 138.046592 
L 488.140388 136.603322 
L 488.844701 116.20596 
L 489.314243 122.790232 
L 489.549014 122.352323 
L 489.783785 137.203715 
L 490.253327 121.800147 
L 490.488098 127.085445 
L 492.601036 163.860866 
L 492.835807 156.513852 
L 493.54012 148.139978 
L 493.77489 148.987719 
L 494.009661 159.275795 
L 494.479203 146.510442 
L 495.418287 117.397248 
L 495.653058 121.079012 
L 496.357371 138.475379 
L 496.592141 137.813356 
L 498.235538 179.166946 
L 498.70508 180.757144 
L 500.113705 168.238012 
L 500.348476 157.825998 
L 500.818018 174.081537 
L 501.052789 172.314747 
L 502.461414 144.870359 
L 503.400498 180.205842 
L 503.87004 169.854222 
L 504.574353 179.726712 
L 504.809124 178.71091 
L 505.513436 168.00367 
L 505.748207 171.570952 
L 506.922062 180.445509 
L 508.330687 154.105242 
L 508.565458 168.499858 
L 508.800229 170.84696 
L 509.739313 139.869882 
L 509.974084 140.588343 
L 510.678396 174.058641 
L 510.913167 158.252321 
L 511.61748 133.775769 
L 511.852251 148.89247 
L 512.791335 170.289004 
L 513.026106 161.738976 
L 513.260877 156.342648 
L 513.495647 168.328753 
L 513.730418 175.820277 
L 514.19996 166.855144 
L 514.904273 148.569201 
L 515.139044 158.010994 
L 515.373815 169.755828 
L 515.843357 147.748254 
L 516.078128 149.479577 
L 517.017211 123.143045 
L 517.251982 130.904903 
L 518.425837 161.108354 
L 518.660608 156.693848 
L 518.895379 157.951081 
L 519.130149 154.98291 
L 520.304004 128.544396 
L 520.773546 120.848855 
L 521.008317 140.047639 
L 521.71263 133.081257 
L 522.182171 136.661067 
L 522.651713 157.304968 
L 522.886484 148.484834 
L 523.121255 133.084193 
L 523.825568 150.015262 
L 524.529881 162.020335 
L 525.938506 115.072661 
L 526.173277 118.302999 
L 526.408048 111.345822 
L 528.051444 79.09849 
L 528.520986 80.579896 
L 529.225299 109.934339 
L 530.633924 108.074362 
L 531.807779 115.330358 
L 532.746863 147.092237 
L 532.981633 138.551457 
L 533.216404 137.611929 
L 534.390259 118.488661 
L 534.859801 124.033831 
L 535.798884 139.909537 
L 536.033655 127.154926 
L 536.503197 144.596412 
L 536.972739 180.098805 
L 537.677052 172.17384 
L 538.850906 147.910592 
L 539.085677 163.895163 
L 539.555219 157.825077 
L 540.024761 142.944142 
L 540.494303 148.220307 
L 540.963845 147.92411 
L 542.137699 161.380346 
L 542.607241 169.227582 
L 543.546325 145.769748 
L 544.485408 180.533471 
L 544.485408 180.533471 
" clip-path="url(#p84a1eb7cd9)" style="fill: none; stroke: #e41a1c; stroke-width: 2; stroke-linecap: square"/>
   </g>
   <g id="patch_3">
    <path d="M 51.466484 190.058633 
L 51.466484 22.318125 
" style="fill: none; stroke: #7f7f7f; stroke-width: 1.8; stroke-linejoin: miter; stroke-linecap: square"/>
   </g>
   <g id="patch_4">
    <path d="M 51.466484 190.058633 
L 567.9625 190.058633 
" style="fill: none; stroke: #7f7f7f; stroke-width: 1.8; stroke-linejoin: miter; stroke-linecap: square"/>
   </g>
   <g id="text_19">
    <!-- Kalman Filter Estimation Error -->
    <g style="fill: #7f7f7f" transform="translate(206.701055 16.318125) scale(0.12 -0.12)">
     <defs>
      <path id="DejaVuSans-Bold-2e" d="M 588 4666 
L 1791 4666 
L 1791 2963 
L 3525 4666 
L 4922 4666 
L 2675 2456 
L 5153 0 
L 3647 0 
L 1791 1838 
L 1791 0 
L 588 0 
L 588 4666 
z
" transform="scale(0.015625)"/>
      <path id="DejaVuSans-Bold-44" d="M 2106 1575 
Q 1756 1575 1579 1456 
Q 1403 1338 1403 1106 
Q 1403 894 1545 773 
Q 1688 653 1941 653 
Q 2256 653 2472 879 
Q 2688 1106 2688 1447 
L 2688 1575 
L 2106 1575 
z
M 3816 1997 
L 3816 0 
L 2688 0 
L 2688 519 
Q 2463 200 2181 54 
Q 1900 -91 1497 -91 
Q 953 -91 614 226 
Q 275 544 275 1050 
Q 275 1666 698 1953 
Q 1122 2241 2028 2241 
L 2688 2241 
L 2688 2328 
Q 2688 2594 2478 2717 
Q 2269 2841 1825 2841 
Q 1466 2841 1156 2769 
Q 847 2697 581 2553 
L 581 3406 
Q 941 3494 1303 3539 
Q 1666 3584 2028 3584 
Q 2975 3584 3395 3211 
Q 3816 2838 3816 1997 
z
" transform="scale(0.015625)"/>
      <path id="DejaVuSans-Bold-4f" d="M 538 4863 
L 1656 4863 
L 1656 0 
L 538 0 
L 538 4863 
z
" transform="scale(0.015625)"/>
      <path id="DejaVuSans-Bold-50" d="M 3781 2919 
Q 3994 3244 4286 3414 
Q 4578 3584 4928 3584 
Q 5531 3584 5847 3212 
Q 6163 2841 6163 2131 
L 6163 0 
L 5038 0 
L 5038 1825 
Q 5041 1866 5042 1909 
Q 5044 1953 5044 2034 
Q 5044 2406 4934 2573 
Q 4825 2741 4581 2741 
Q 4263 2741 4089 2478 
Q 3916 2216 3909 1719 
L 3909 0 
L 2784 0 
L 2784 1825 
Q 2784 2406 2684 2573 
Q 2584 2741 2328 2741 
Q 2006 2741 1831 2477 
Q 1656 2213 1656 1722 
L 1656 0 
L 531 0 
L 531 3500 
L 1656 3500 
L 1656 2988 
Q 1863 3284 2130 3434 
Q 2397 3584 2719 3584 
Q 3081 3584 3359 3409 
Q 3638 3234 3781 2919 
z
" transform="scale(0.015625)"/>
      <path id="DejaVuSans-Bold-51" d="M 4056 2131 
L 4056 0 
L 2931 0 
L 2931 347 
L 2931 1631 
Q 2931 2084 2911 2256 
Q 2891 2428 2841 2509 
Q 2775 2619 2662 2680 
Q 2550 2741 2406 2741 
Q 2056 2741 1856 2470 
Q 1656 2200 1656 1722 
L 1656 0 
L 538 0 
L 538 3500 
L 1656 3500 
L 1656 2988 
Q 1909 3294 2193 3439 
Q 2478 3584 2822 3584 
Q 3428 3584 3742 3212 
Q 4056 2841 4056 2131 
z
" transform="scale(0.015625)"/>
      <path id="DejaVuSans-Bold-3" transform="scale(0.015625)"/>
      <path id="DejaVuSans-Bold-29" d="M 588 4666 
L 3834 4666 
L 3834 3756 
L 1791 3756 
L 1791 2888 
L 3713 2888 
L 3713 1978 
L 1791 1978 
L 1791 0 
L 588 0 
L 588 4666 
z
" transform="scale(0.015625)"/>
      <path id="DejaVuSans-Bold-4c" d="M 538 3500 
L 1656 3500 
L 1656 0 
L 538 0 
L 538 3500 
z
M 538 4863 
L 1656 4863 
L 1656 3950 
L 538 3950 
L 538 4863 
z
" transform="scale(0.015625)"/>
      <path id="DejaVuSans-Bold-57" d="M 1759 4494 
L 1759 3500 
L 2913 3500 
L 2913 2700 
L 1759 2700 
L 1759 1216 
Q 1759 972 1856 886 
Q 1953 800 2241 800 
L 2816 800 
L 2816 0 
L 1856 0 
Q 1194 0 917 276 
Q 641 553 641 1216 
L 641 2700 
L 84 2700 
L 84 3500 
L 641 3500 
L 641 4494 
L 1759 4494 
z
" transform="scale(0.015625)"/>
      <path id="DejaVuSans-Bold-48" d="M 4031 1759 
L 4031 1441 
L 1416 1441 
Q 1456 1047 1700 850 
Q 1944 653 2381 653 
Q 2734 653 3104 758 
Q 3475 863 3866 1075 
L 3866 213 
Q 3469 63 3072 -14 
Q 2675 -91 2278 -91 
Q 1328 -91 801 392 
Q 275 875 275 1747 
Q 275 2603 792 3093 
Q 1309 3584 2216 3584 
Q 3041 3584 3536 3087 
Q 4031 2591 4031 1759 
z
M 2881 2131 
Q 2881 2450 2695 2645 
Q 2509 2841 2209 2841 
Q 1884 2841 1681 2658 
Q 1478 2475 1428 2131 
L 2881 2131 
z
" transform="scale(0.015625)"/>
      <path id="DejaVuSans-Bold-55" d="M 3138 2547 
Q 2991 2616 2845 2648 
Q 2700 2681 2553 2681 
Q 2122 2681 1889 2404 
Q 1656 2128 1656 1613 
L 1656 0 
L 538 0 
L 538 3500 
L 1656 3500 
L 1656 2925 
Q 1872 3269 2151 3426 
Q 2431 3584 2822 3584 
Q 2878 3584 2943 3579 
Q 3009 3575 3134 3559 
L 3138 2547 
z
" transform="scale(0.015625)"/>
      <path id="DejaVuSans-Bold-28" d="M 588 4666 
L 3834 4666 
L 3834 3756 
L 1791 3756 
L 1791 2888 
L 3713 2888 
L 3713 1978 
L 1791 1978 
L 1791 909 
L 3903 909 
L 3903 0 
L 588 0 
L 588 4666 
z
" transform="scale(0.015625)"/>
      <path id="DejaVuSans-Bold-56" d="M 3272 3391 
L 3272 2541 
Q 2913 2691 2578 2766 
Q 2244 2841 1947 2841 
Q 1628 2841 1473 2761 
Q 1319 2681 1319 2516 
Q 1319 2381 1436 2309 
Q 1553 2238 1856 2203 
L 2053 2175 
Q 2913 2066 3209 1816 
Q 3506 1566 3506 1031 
Q 3506 472 3093 190 
Q 2681 -91 1863 -91 
Q 1516 -91 1145 -36 
Q 775 19 384 128 
L 384 978 
Q 719 816 1070 734 
Q 1422 653 1784 653 
Q 2113 653 2278 743 
Q 2444 834 2444 1013 
Q 2444 1163 2330 1236 
Q 2216 1309 1875 1350 
L 1678 1375 
Q 931 1469 631 1722 
Q 331 1975 331 2491 
Q 331 3047 712 3315 
Q 1094 3584 1881 3584 
Q 2191 3584 2531 3537 
Q 2872 3491 3272 3391 
z
" transform="scale(0.015625)"/>
      <path id="DejaVuSans-Bold-52" d="M 2203 2784 
Q 1831 2784 1636 2517 
Q 1441 2250 1441 1747 
Q 1441 1244 1636 976 
Q 1831 709 2203 709 
Q 2569 709 2762 976 
Q 2956 1244 2956 1747 
Q 2956 2250 2762 2517 
Q 2569 2784 2203 2784 
z
M 2203 3584 
Q 3106 3584 3614 3096 
Q 4122 2609 4122 1747 
Q 4122 884 3614 396 
Q 3106 -91 2203 -91 
Q 1297 -91 786 396 
Q 275 884 275 1747 
Q 275 2609 786 3096 
Q 1297 3584 2203 3584 
z
" transform="scale(0.015625)"/>
     </defs>
     <use xlink:href="#DejaVuSans-Bold-2e"/>
     <use xlink:href="#DejaVuSans-Bold-44" transform="translate(77.484375 0)"/>
     <use xlink:href="#DejaVuSans-Bold-4f" transform="translate(144.96875 0)"/>
     <use xlink:href="#DejaVuSans-Bold-50" transform="translate(179.25 0)"/>
     <use xlink:href="#DejaVuSans-Bold-44" transform="translate(283.453125 0)"/>
     <use xlink:href="#DejaVuSans-Bold-51" transform="translate(350.9375 0)"/>
     <use xlink:href="#DejaVuSans-Bold-3" transform="translate(422.125 0)"/>
     <use xlink:href="#DejaVuSans-Bold-29" transform="translate(456.9375 0)"/>
     <use xlink:href="#DejaVuSans-Bold-4c" transform="translate(525.25 0)"/>
     <use xlink:href="#DejaVuSans-Bold-4f" transform="translate(559.53125 0)"/>
     <use xlink:href="#DejaVuSans-Bold-57" transform="translate(593.8125 0)"/>
     <use xlink:href="#DejaVuSans-Bold-48" transform="translate(641.609375 0)"/>
     <use xlink:href="#DejaVuSans-Bold-55" transform="translate(709.4375 0)"/>
     <use xlink:href="#DejaVuSans-Bold-3" transform="translate(758.75 0)"/>
     <use xlink:href="#DejaVuSans-Bold-28" transform="translate(793.5625 0)"/>
     <use xlink:href="#DejaVuSans-Bold-56" transform="translate(861.875 0)"/>
     <use xlink:href="#DejaVuSans-Bold-57" transform="translate(921.390625 0)"/>
     <use xlink:href="#DejaVuSans-Bold-4c" transform="translate(969.1875 0)"/>
     <use xlink:href="#DejaVuSans-Bold-50" transform="translate(1003.46875 0)"/>
     <use xlink:href="#DejaVuSans-Bold-44" transform="translate(1107.671875 0)"/>
     <use xlink:href="#DejaVuSans-Bold-57" transform="translate(1175.15625 0)"/>
     <use xlink:href="#DejaVuSans-Bold-4c" transform="translate(1222.953125 0)"/>
     <use xlink:href="#DejaVuSans-Bold-52" transform="translate(1257.234375 0)"/>
     <use xlink:href="#DejaVuSans-Bold-51" transform="translate(1325.9375 0)"/>
     <use xlink:href="#DejaVuSans-Bold-3" transform="translate(1397.125 0)"/>
     <use xlink:href="#DejaVuSans-Bold-28" transform="translate(1431.9375 0)"/>
     <use xlink:href="#DejaVuSans-Bold-55" transform="translate(1500.25 0)"/>
     <use xlink:href="#DejaVuSans-Bold-55" transform="translate(1549.5625 0)"/>
     <use xlink:href="#DejaVuSans-Bold-52" transform="translate(1598.875 0)"/>
     <use xlink:href="#DejaVuSans-Bold-55" transform="translate(1667.578125 0)"/>
    </g>
   </g>
  </g>
  <g id="axes_2">
   <g id="patch_5">
    <path d="M 51.466484 385.599141 
L 567.9625 385.599141 
L 567.9625 217.858633 
L 51.466484 217.858633 
L 51.466484 385.599141 
z
" style="fill: none"/>
   </g>
   <g id="matplotlib.axis_3">
    <g id="xtick_10">
     <g id="line2d_19">
      <g>
       <use xlink:href="#m983a986ff0" x="74.943576" y="385.599141" style="fill: #7f7f7f; stroke: #7f7f7f; stroke-width: 1.8"/>
      </g>
     </g>
     <g id="text_20">
      <!-- 0.0 -->
      <g style="fill: #7f7f7f" transform="translate(66.992013 400.196797) scale(0.1 -0.1)">
       <use xlink:href="#DejaVuSans-13"/>
       <use xlink:href="#DejaVuSans-11" transform="translate(63.625 0)"/>
       <use xlink:href="#DejaVuSans-13" transform="translate(95.40625 0)"/>
      </g>
     </g>
    </g>
    <g id="xtick_11">
     <g id="line2d_20">
      <g>
       <use xlink:href="#m983a986ff0" x="133.636305" y="385.599141" style="fill: #7f7f7f; stroke: #7f7f7f; stroke-width: 1.8"/>
      </g>
     </g>
     <g id="text_21">
      <!-- 2.5 -->
      <g style="fill: #7f7f7f" transform="translate(125.684743 400.196797) scale(0.1 -0.1)">
       <use xlink:href="#DejaVuSans-15"/>
       <use xlink:href="#DejaVuSans-11" transform="translate(63.625 0)"/>
       <use xlink:href="#DejaVuSans-18" transform="translate(95.40625 0)"/>
      </g>
     </g>
    </g>
    <g id="xtick_12">
     <g id="line2d_21">
      <g>
       <use xlink:href="#m983a986ff0" x="192.329034" y="385.599141" style="fill: #7f7f7f; stroke: #7f7f7f; stroke-width: 1.8"/>
      </g>
     </g>
     <g id="text_22">
      <!-- 5.0 -->
      <g style="fill: #7f7f7f" transform="translate(184.377472 400.196797) scale(0.1 -0.1)">
       <use xlink:href="#DejaVuSans-18"/>
       <use xlink:href="#DejaVuSans-11" transform="translate(63.625 0)"/>
       <use xlink:href="#DejaVuSans-13" transform="translate(95.40625 0)"/>
      </g>
     </g>
    </g>
    <g id="xtick_13">
     <g id="line2d_22">
      <g>
       <use xlink:href="#m983a986ff0" x="251.021763" y="385.599141" style="fill: #7f7f7f; stroke: #7f7f7f; stroke-width: 1.8"/>
      </g>
     </g>
     <g id="text_23">
      <!-- 7.5 -->
      <g style="fill: #7f7f7f" transform="translate(243.070201 400.196797) scale(0.1 -0.1)">
       <use xlink:href="#DejaVuSans-1a"/>
       <use xlink:href="#DejaVuSans-11" transform="translate(63.625 0)"/>
       <use xlink:href="#DejaVuSans-18" transform="translate(95.40625 0)"/>
      </g>
     </g>
    </g>
    <g id="xtick_14">
     <g id="line2d_23">
      <g>
       <use xlink:href="#m983a986ff0" x="309.714492" y="385.599141" style="fill: #7f7f7f; stroke: #7f7f7f; stroke-width: 1.8"/>
      </g>
     </g>
     <g id="text_24">
      <!-- 10.0 -->
      <g style="fill: #7f7f7f" transform="translate(298.58168 400.196797) scale(0.1 -0.1)">
       <use xlink:href="#DejaVuSans-14"/>
       <use xlink:href="#DejaVuSans-13" transform="translate(63.625 0)"/>
       <use xlink:href="#DejaVuSans-11" transform="translate(127.25 0)"/>
       <use xlink:href="#DejaVuSans-13" transform="translate(159.03125 0)"/>
      </g>
     </g>
    </g>
    <g id="xtick_15">
     <g id="line2d_24">
      <g>
       <use xlink:href="#m983a986ff0" x="368.407221" y="385.599141" style="fill: #7f7f7f; stroke: #7f7f7f; stroke-width: 1.8"/>
      </g>
     </g>
     <g id="text_25">
      <!-- 12.5 -->
      <g style="fill: #7f7f7f" transform="translate(357.274409 400.196797) scale(0.1 -0.1)">
       <use xlink:href="#DejaVuSans-14"/>
       <use xlink:href="#DejaVuSans-15" transform="translate(63.625 0)"/>
       <use xlink:href="#DejaVuSans-11" transform="translate(127.25 0)"/>
       <use xlink:href="#DejaVuSans-18" transform="translate(159.03125 0)"/>
      </g>
     </g>
    </g>
    <g id="xtick_16">
     <g id="line2d_25">
      <g>
       <use xlink:href="#m983a986ff0" x="427.09995" y="385.599141" style="fill: #7f7f7f; stroke: #7f7f7f; stroke-width: 1.8"/>
      </g>
     </g>
     <g id="text_26">
      <!-- 15.0 -->
      <g style="fill: #7f7f7f" transform="translate(415.967138 400.196797) scale(0.1 -0.1)">
       <use xlink:href="#DejaVuSans-14"/>
       <use xlink:href="#DejaVuSans-18" transform="translate(63.625 0)"/>
       <use xlink:href="#DejaVuSans-11" transform="translate(127.25 0)"/>
       <use xlink:href="#DejaVuSans-13" transform="translate(159.03125 0)"/>
      </g>
     </g>
    </g>
    <g id="xtick_17">
     <g id="line2d_26">
      <g>
       <use xlink:href="#m983a986ff0" x="485.792679" y="385.599141" style="fill: #7f7f7f; stroke: #7f7f7f; stroke-width: 1.8"/>
      </g>
     </g>
     <g id="text_27">
      <!-- 17.5 -->
      <g style="fill: #7f7f7f" transform="translate(474.659867 400.196797) scale(0.1 -0.1)">
       <use xlink:href="#DejaVuSans-14"/>
       <use xlink:href="#DejaVuSans-1a" transform="translate(63.625 0)"/>
       <use xlink:href="#DejaVuSans-11" transform="translate(127.25 0)"/>
       <use xlink:href="#DejaVuSans-18" transform="translate(159.03125 0)"/>
      </g>
     </g>
    </g>
    <g id="xtick_18">
     <g id="line2d_27">
      <g>
       <use xlink:href="#m983a986ff0" x="544.485408" y="385.599141" style="fill: #7f7f7f; stroke: #7f7f7f; stroke-width: 1.8"/>
      </g>
     </g>
     <g id="text_28">
      <!-- 20.0 -->
      <g style="fill: #7f7f7f" transform="translate(533.352596 400.196797) scale(0.1 -0.1)">
       <use xlink:href="#DejaVuSans-15"/>
       <use xlink:href="#DejaVuSans-13" transform="translate(63.625 0)"/>
       <use xlink:href="#DejaVuSans-11" transform="translate(127.25 0)"/>
       <use xlink:href="#DejaVuSans-13" transform="translate(159.03125 0)"/>
      </g>
     </g>
    </g>
    <g id="text_29">
     <!-- Time [s] -->
     <g style="fill: #7f7f7f" transform="translate(287.350117 414.957422) scale(0.11 -0.11)">
      <defs>
       <path id="DejaVuSans-37" d="M -19 4666 
L 3928 4666 
L 3928 4134 
L 2272 4134 
L 2272 0 
L 1638 0 
L 1638 4134 
L -19 4134 
L -19 4666 
z
" transform="scale(0.015625)"/>
       <path id="DejaVuSans-48" d="M 3597 1894 
L 3597 1613 
L 953 1613 
Q 991 1019 1311 708 
Q 1631 397 2203 397 
Q 2534 397 2845 478 
Q 3156 559 3463 722 
L 3463 178 
Q 3153 47 2828 -22 
Q 2503 -91 2169 -91 
Q 1331 -91 842 396 
Q 353 884 353 1716 
Q 353 2575 817 3079 
Q 1281 3584 2069 3584 
Q 2775 3584 3186 3129 
Q 3597 2675 3597 1894 
z
M 3022 2063 
Q 3016 2534 2758 2815 
Q 2500 3097 2075 3097 
Q 1594 3097 1305 2825 
Q 1016 2553 972 2059 
L 3022 2063 
z
" transform="scale(0.015625)"/>
      </defs>
      <use xlink:href="#DejaVuSans-37"/>
      <use xlink:href="#DejaVuSans-4c" transform="translate(58 0)"/>
      <use xlink:href="#DejaVuSans-50" transform="translate(85.78125 0)"/>
      <use xlink:href="#DejaVuSans-48" transform="translate(183.1875 0)"/>
      <use xlink:href="#DejaVuSans-3" transform="translate(244.71875 0)"/>
      <use xlink:href="#DejaVuSans-3e" transform="translate(276.5 0)"/>
      <use xlink:href="#DejaVuSans-56" transform="translate(315.515625 0)"/>
      <use xlink:href="#DejaVuSans-40" transform="translate(367.609375 0)"/>
     </g>
    </g>
   </g>
   <g id="matplotlib.axis_4">
    <g id="ytick_9">
     <g id="line2d_28">
      <g>
       <use xlink:href="#m3e954dac05" x="51.466484" y="377.980256" style="fill: #7f7f7f; stroke: #7f7f7f; stroke-width: 1.8"/>
      </g>
     </g>
     <g id="text_30">
      <!-- 0.0 -->
      <g style="fill: #7f7f7f" transform="translate(28.563359 381.779084) scale(0.1 -0.1)">
       <use xlink:href="#DejaVuSans-13"/>
       <use xlink:href="#DejaVuSans-11" transform="translate(63.625 0)"/>
       <use xlink:href="#DejaVuSans-13" transform="translate(95.40625 0)"/>
      </g>
     </g>
    </g>
    <g id="ytick_10">
     <g id="line2d_29">
      <g>
       <use xlink:href="#m3e954dac05" x="51.466484" y="340.06786" style="fill: #7f7f7f; stroke: #7f7f7f; stroke-width: 1.8"/>
      </g>
     </g>
     <g id="text_31">
      <!-- 0.5 -->
      <g style="fill: #7f7f7f" transform="translate(28.563359 343.866688) scale(0.1 -0.1)">
       <use xlink:href="#DejaVuSans-13"/>
       <use xlink:href="#DejaVuSans-11" transform="translate(63.625 0)"/>
       <use xlink:href="#DejaVuSans-18" transform="translate(95.40625 0)"/>
      </g>
     </g>
    </g>
    <g id="ytick_11">
     <g id="line2d_30">
      <g>
       <use xlink:href="#m3e954dac05" x="51.466484" y="302.155463" style="fill: #7f7f7f; stroke: #7f7f7f; stroke-width: 1.8"/>
      </g>
     </g>
     <g id="text_32">
      <!-- 1.0 -->
      <g style="fill: #7f7f7f" transform="translate(28.563359 305.954292) scale(0.1 -0.1)">
       <use xlink:href="#DejaVuSans-14"/>
       <use xlink:href="#DejaVuSans-11" transform="translate(63.625 0)"/>
       <use xlink:href="#DejaVuSans-13" transform="translate(95.40625 0)"/>
      </g>
     </g>
    </g>
    <g id="ytick_12">
     <g id="line2d_31">
      <g>
       <use xlink:href="#m3e954dac05" x="51.466484" y="264.243067" style="fill: #7f7f7f; stroke: #7f7f7f; stroke-width: 1.8"/>
      </g>
     </g>
     <g id="text_33">
      <!-- 1.5 -->
      <g style="fill: #7f7f7f" transform="translate(28.563359 268.041895) scale(0.1 -0.1)">
       <use xlink:href="#DejaVuSans-14"/>
       <use xlink:href="#DejaVuSans-11" transform="translate(63.625 0)"/>
       <use xlink:href="#DejaVuSans-18" transform="translate(95.40625 0)"/>
      </g>
     </g>
    </g>
    <g id="ytick_13">
     <g id="line2d_32">
      <g>
       <use xlink:href="#m3e954dac05" x="51.466484" y="226.330671" style="fill: #7f7f7f; stroke: #7f7f7f; stroke-width: 1.8"/>
      </g>
     </g>
     <g id="text_34">
      <!-- 2.0 -->
      <g style="fill: #7f7f7f" transform="translate(28.563359 230.129499) scale(0.1 -0.1)">
       <use xlink:href="#DejaVuSans-15"/>
       <use xlink:href="#DejaVuSans-11" transform="translate(63.625 0)"/>
       <use xlink:href="#DejaVuSans-13" transform="translate(95.40625 0)"/>
      </g>
     </g>
    </g>
    <g id="text_35">
     <!-- Velocity Error [m/s] -->
     <g style="fill: #7f7f7f" transform="translate(21.920781 354.574434) rotate(-90) scale(0.11 -0.11)">
      <defs>
       <path id="DejaVuSans-39" d="M 1831 0 
L 50 4666 
L 709 4666 
L 2188 738 
L 3669 4666 
L 4325 4666 
L 2547 0 
L 1831 0 
z
" transform="scale(0.015625)"/>
       <path id="DejaVuSans-4f" d="M 603 4863 
L 1178 4863 
L 1178 0 
L 603 0 
L 603 4863 
z
" transform="scale(0.015625)"/>
       <path id="DejaVuSans-46" d="M 3122 3366 
L 3122 2828 
Q 2878 2963 2633 3030 
Q 2388 3097 2138 3097 
Q 1578 3097 1268 2742 
Q 959 2388 959 1747 
Q 959 1106 1268 751 
Q 1578 397 2138 397 
Q 2388 397 2633 464 
Q 2878 531 3122 666 
L 3122 134 
Q 2881 22 2623 -34 
Q 2366 -91 2075 -91 
Q 1284 -91 818 406 
Q 353 903 353 1747 
Q 353 2603 823 3093 
Q 1294 3584 2113 3584 
Q 2378 3584 2631 3529 
Q 2884 3475 3122 3366 
z
" transform="scale(0.015625)"/>
       <path id="DejaVuSans-5c" d="M 2059 -325 
Q 1816 -950 1584 -1140 
Q 1353 -1331 966 -1331 
L 506 -1331 
L 506 -850 
L 844 -850 
Q 1081 -850 1212 -737 
Q 1344 -625 1503 -206 
L 1606 56 
L 191 3500 
L 800 3500 
L 1894 763 
L 2988 3500 
L 3597 3500 
L 2059 -325 
z
" transform="scale(0.015625)"/>
       <path id="DejaVuSans-12" d="M 1625 4666 
L 2156 4666 
L 531 -594 
L 0 -594 
L 1625 4666 
z
" transform="scale(0.015625)"/>
      </defs>
      <use xlink:href="#DejaVuSans-39"/>
      <use xlink:href="#DejaVuSans-48" transform="translate(60.640625 0)"/>
      <use xlink:href="#DejaVuSans-4f" transform="translate(122.171875 0)"/>
      <use xlink:href="#DejaVuSans-52" transform="translate(149.953125 0)"/>
      <use xlink:href="#DejaVuSans-46" transform="translate(211.140625 0)"/>
      <use xlink:href="#DejaVuSans-4c" transform="translate(266.125 0)"/>
      <use xlink:href="#DejaVuSans-57" transform="translate(293.90625 0)"/>
      <use xlink:href="#DejaVuSans-5c" transform="translate(333.109375 0)"/>
      <use xlink:href="#DejaVuSans-3" transform="translate(392.296875 0)"/>
      <use xlink:href="#DejaVuSans-28" transform="translate(424.078125 0)"/>
      <use xlink:href="#DejaVuSans-55" transform="translate(487.265625 0)"/>
      <use xlink:href="#DejaVuSans-55" transform="translate(526.625 0)"/>
      <use xlink:href="#DejaVuSans-52" transform="translate(565.53125 0)"/>
      <use xlink:href="#DejaVuSans-55" transform="translate(626.71875 0)"/>
      <use xlink:href="#DejaVuSans-3" transform="translate(667.828125 0)"/>
      <use xlink:href="#DejaVuSans-3e" transform="translate(699.609375 0)"/>
      <use xlink:href="#DejaVuSans-50" transform="translate(738.625 0)"/>
      <use xlink:href="#DejaVuSans-12" transform="translate(836.03125 0)"/>
      <use xlink:href="#DejaVuSans-56" transform="translate(869.71875 0)"/>
      <use xlink:href="#DejaVuSans-40" transform="translate(921.8125 0)"/>
     </g>
    </g>
   </g>
   <g id="line2d_33">
    <path d="M 74.943576 226.330671 
L 76.117431 227.094738 
L 76.586972 226.666952 
L 76.821743 227.955561 
L 79.169452 263.617239 
L 79.404223 255.669471 
L 79.873765 232.423312 
L 80.108536 236.165169 
L 81.517162 283.602814 
L 82.221474 257.648344 
L 82.456245 239.983974 
L 82.925787 266.275431 
L 84.334413 340.154192 
L 84.569184 340.493237 
L 85.273496 368.337995 
L 85.743038 364.768428 
L 86.21258 352.327771 
L 86.682122 364.645029 
L 87.386435 377.398658 
L 87.621205 377.390142 
L 87.855976 358.968018 
L 88.560289 376.223001 
L 88.79506 377.834362 
L 89.029831 365.230372 
L 89.734144 373.832021 
L 89.968915 371.19721 
L 90.673227 371.79722 
L 91.142769 375.962808 
L 91.612311 359.941248 
L 92.316624 360.380069 
L 93.490478 368.682106 
L 93.725249 368.410106 
L 93.96002 370.791793 
L 95.133875 359.741735 
L 96.307729 374.41638 
L 97.716355 360.433259 
L 98.890209 365.33602 
L 99.12498 360.491848 
L 99.594522 363.575735 
L 100.064064 373.708248 
L 100.533606 367.446673 
L 101.003148 369.017145 
L 101.942231 362.980031 
L 102.177002 365.207772 
L 102.411773 366.995804 
L 102.881315 365.595563 
L 103.116086 363.019963 
L 103.350857 370.412915 
L 104.289941 376.188049 
L 104.524711 372.540893 
L 105.229024 377.399655 
L 105.698566 374.540649 
L 105.933337 373.142118 
L 106.168108 375.989267 
L 106.402879 375.247901 
L 106.63765 375.149725 
L 106.872421 376.173282 
L 107.107192 375.101424 
L 107.341962 373.204844 
L 107.811504 376.666861 
L 108.046275 377.438789 
L 108.281046 373.817633 
L 109.22013 374.118388 
L 110.159213 371.706013 
L 110.393984 371.9588 
L 110.628755 375.02294 
L 111.098297 374.522623 
L 111.567839 367.618634 
L 112.272152 370.751412 
L 114.38509 377.721567 
L 114.619861 372.973445 
L 115.558944 373.771116 
L 116.96757 377.663353 
L 117.202341 377.086477 
L 117.437112 373.544855 
L 118.376195 374.100918 
L 118.845737 377.783465 
L 119.315279 376.141754 
L 120.489134 368.367199 
L 121.193446 359.98702 
L 121.428217 360.119679 
L 122.367301 367.59729 
L 122.602072 366.267103 
L 122.836843 366.256713 
L 123.071614 364.863825 
L 123.541156 365.108852 
L 124.71501 372.008759 
L 124.949781 371.105393 
L 126.593178 377.512226 
L 125.419323 370.89886 
L 127.062719 374.818466 
L 128.471345 371.603063 
L 128.706116 376.576838 
L 129.410429 374.628213 
L 129.645199 371.871991 
L 129.87997 377.138236 
L 130.114741 376.10252 
L 130.349512 376.951115 
L 130.584283 375.754034 
L 131.523367 373.228583 
L 132.697221 377.587031 
L 133.401534 376.501917 
L 133.636305 376.662632 
L 133.871076 377.66087 
L 134.575389 376.295563 
L 134.81016 373.390399 
L 135.514472 375.209208 
L 135.749243 376.538884 
L 136.218785 373.904522 
L 136.453556 371.083161 
L 136.923098 377.314054 
L 138.096952 369.851359 
L 138.331723 371.246015 
L 138.801265 371.387589 
L 140.209891 376.77269 
L 141.853287 375.252278 
L 142.5576 370.527789 
L 143.027142 372.230998 
L 143.496684 373.620738 
L 144.670538 362.489841 
L 145.14008 365.253618 
L 145.374851 365.942472 
L 145.609622 362.75816 
L 146.313935 365.32606 
L 146.548705 366.951367 
L 147.018247 364.975543 
L 147.487789 359.936494 
L 147.72256 364.980686 
L 149.365956 375.789541 
L 149.600727 375.564672 
L 149.835498 373.557558 
L 150.070269 377.2719 
L 150.30504 376.497445 
L 150.774582 377.852861 
L 151.009353 377.697254 
L 151.478895 372.886184 
L 152.183207 373.969936 
L 152.417978 373.937185 
L 152.88752 376.588906 
L 153.122291 372.980558 
L 155.704771 356.219421 
L 157.582938 368.662731 
L 157.817709 367.748568 
L 158.05248 363.396087 
L 158.522022 369.693454 
L 158.756793 368.637597 
L 159.226335 368.651587 
L 159.695877 372.526534 
L 160.165419 370.900238 
L 160.400189 362.676721 
L 161.104502 368.487571 
L 161.808815 372.943074 
L 162.043586 372.629572 
L 163.21744 366.692681 
L 164.626066 377.705682 
L 165.330379 369.543259 
L 165.799921 371.867511 
L 166.034691 370.994057 
L 166.739004 371.431448 
L 167.912859 375.786756 
L 168.617172 377.873505 
L 168.851942 376.547298 
L 169.086713 376.195998 
L 169.321484 376.590321 
L 170.260568 377.709463 
L 170.025797 376.068526 
L 170.495339 377.103103 
L 172.138735 374.307055 
L 172.373506 375.76986 
L 172.608277 377.332259 
L 173.077819 374.221734 
L 173.31259 376.704888 
L 174.016903 371.419724 
L 174.251674 375.097925 
L 175.190757 377.94018 
L 175.425528 376.97059 
L 177.068925 372.787418 
L 177.773237 375.298936 
L 178.008008 374.531885 
L 179.181863 369.351313 
L 179.416634 370.239984 
L 180.355717 374.48433 
L 180.590488 373.834652 
L 181.764343 371.066596 
L 181.999114 377.269852 
L 182.468656 371.992547 
L 183.877281 363.111535 
L 184.346823 368.966346 
L 185.051136 368.352709 
L 186.459761 375.926914 
L 187.164074 366.536784 
L 187.868387 355.180155 
L 188.103158 358.007408 
L 189.042241 368.520794 
L 189.277012 365.630286 
L 189.511783 362.598601 
L 189.981325 367.967368 
L 191.624721 376.545466 
L 190.685638 365.726027 
L 191.859492 375.915637 
L 192.094263 376.66729 
L 192.563805 372.092942 
L 193.033347 375.923238 
L 193.268118 376.278807 
L 194.441972 368.425947 
L 194.676743 368.746613 
L 195.146285 367.514748 
L 195.850598 371.233925 
L 196.789681 363.230215 
L 197.259223 364.418676 
L 197.493994 366.590086 
L 197.728765 363.80292 
L 198.198307 364.140846 
L 198.433078 364.317105 
L 198.667849 362.103953 
L 198.90262 367.269621 
L 199.137391 364.423768 
L 200.311245 374.773793 
L 200.546016 373.666447 
L 200.780787 369.461048 
L 201.250329 372.072496 
L 201.4851 375.311814 
L 201.954642 373.011292 
L 202.424183 367.592251 
L 202.893725 371.542659 
L 203.598038 374.683899 
L 204.06758 372.114953 
L 204.537122 367.326612 
L 205.006664 375.710159 
L 205.710976 373.675706 
L 206.180518 377.216966 
L 206.65006 373.903059 
L 208.058685 366.146643 
L 208.528227 367.406274 
L 208.762998 366.677273 
L 209.702082 377.423744 
L 210.406395 376.069534 
L 211.110707 374.131601 
L 211.345478 375.939807 
L 212.284562 377.858772 
L 212.519333 377.434702 
L 213.223646 373.065612 
L 213.458417 377.047351 
L 213.927958 376.659811 
L 215.101813 365.903398 
L 215.806126 366.065863 
L 216.040897 365.584734 
L 216.275668 366.371397 
L 217.449522 359.991687 
L 217.919064 370.445995 
L 218.623377 364.335201 
L 220.736315 377.683694 
L 222.14494 373.501456 
L 222.614482 376.261927 
L 222.849253 373.681516 
L 223.553566 365.844035 
L 223.788337 366.312846 
L 224.962191 377.550691 
L 225.196962 376.011377 
L 225.666504 371.014254 
L 226.136046 376.063824 
L 226.605588 377.914062 
L 227.07513 376.570608 
L 229.892381 364.319681 
L 230.127152 367.305423 
L 230.831464 366.900153 
L 231.301006 364.711705 
L 231.535777 365.435394 
L 231.770548 374.548402 
L 232.474861 372.442447 
L 232.944403 368.449964 
L 233.179174 363.089028 
L 234.118257 364.253531 
L 234.353028 368.240092 
L 235.292112 368.149091 
L 235.761654 365.189366 
L 236.231195 367.609101 
L 239.752759 377.602003 
L 239.98753 376.295116 
L 240.691843 369.780738 
L 240.926614 375.873756 
L 241.161385 377.918125 
L 241.630926 377.181891 
L 242.100468 372.203646 
L 242.57001 374.039064 
L 243.743865 376.973637 
L 244.448177 370.700914 
L 244.682948 371.345333 
L 244.917719 375.599569 
L 245.387261 370.912357 
L 245.622032 371.178875 
L 246.795887 366.90197 
L 247.265428 366.321882 
L 248.674054 377.628823 
L 249.143596 370.238656 
L 249.613138 375.941356 
L 249.847909 374.084239 
L 250.31745 374.835344 
L 250.786992 377.933048 
L 251.021763 373.318831 
L 251.491305 366.094697 
L 252.195618 368.855265 
L 253.134701 362.081326 
L 253.369472 367.669474 
L 254.543327 371.240474 
L 253.839014 365.837355 
L 254.778098 370.020063 
L 255.482411 367.870034 
L 255.24764 370.637018 
L 255.717181 369.264247 
L 255.951952 376.916492 
L 256.656265 374.377328 
L 257.125807 368.768592 
L 257.595349 370.483915 
L 257.83012 372.90758 
L 258.299662 368.123547 
L 258.534432 365.06248 
L 259.238745 367.237296 
L 260.177829 363.127738 
L 260.4126 366.046693 
L 260.647371 366.365485 
L 260.882142 363.73785 
L 261.351683 368.838893 
L 261.821225 365.549278 
L 262.290767 367.9828 
L 262.525538 368.396255 
L 263.699393 363.047529 
L 262.99508 369.009353 
L 263.934164 364.614508 
L 264.638476 368.562525 
L 265.108018 367.008386 
L 265.342789 365.425259 
L 265.57756 367.967301 
L 267.455727 376.797294 
L 267.690498 372.312913 
L 267.925269 377.364168 
L 268.394811 374.444767 
L 268.864353 376.849969 
L 269.099124 374.51962 
L 269.333895 372.498946 
L 269.803436 374.964024 
L 270.038207 377.311483 
L 270.74252 374.953434 
L 270.977291 375.822852 
L 271.212062 373.775724 
L 271.446833 374.676286 
L 271.916375 369.145668 
L 272.620687 370.525122 
L 272.855458 374.495822 
L 273.559771 371.720012 
L 273.794542 371.833599 
L 274.264084 373.834777 
L 274.498855 371.320846 
L 274.733626 372.644669 
L 275.203168 369.317546 
L 275.437938 370.187135 
L 276.611793 376.964269 
L 276.846564 377.093136 
L 277.550877 371.618377 
L 278.020419 374.699776 
L 278.724731 371.51773 
L 279.663815 377.22717 
L 279.898586 374.499403 
L 280.602899 375.375263 
L 280.837669 376.006577 
L 281.07244 375.914863 
L 281.776753 369.390358 
L 282.011524 374.81795 
L 283.42015 377.807647 
L 283.65492 376.914491 
L 285.063546 367.960998 
L 285.298317 365.467512 
L 285.767859 368.693066 
L 286.00263 367.204333 
L 286.237401 370.415331 
L 286.706942 365.963119 
L 286.941713 365.612639 
L 287.411255 365.812088 
L 288.350339 359.895946 
L 288.58511 359.922243 
L 289.054652 363.784045 
L 289.524193 360.117315 
L 289.993735 357.680049 
L 291.871903 377.684361 
L 292.576215 369.500679 
L 293.280528 375.203446 
L 293.515299 377.966016 
L 293.984841 377.026266 
L 294.219612 374.358367 
L 294.454383 377.904932 
L 294.923924 376.083967 
L 295.158695 375.650369 
L 295.393466 377.737634 
L 296.33255 377.463904 
L 296.567321 374.406664 
L 297.271634 377.197927 
L 298.445488 373.847447 
L 299.149801 377.699791 
L 299.384572 375.97726 
L 299.619343 376.274822 
L 299.854114 371.892913 
L 300.558426 377.264868 
L 301.262739 375.901082 
L 302.906136 366.198733 
L 303.845219 375.260752 
L 304.314761 373.520252 
L 304.784303 371.715676 
L 305.019074 375.369901 
L 305.723387 371.631388 
L 307.132012 359.208063 
L 306.192928 372.023309 
L 307.836325 361.76384 
L 310.184034 374.873355 
L 310.418805 374.81877 
L 310.653576 377.911164 
L 311.123118 374.103332 
L 311.357889 375.799301 
L 312.531743 366.382392 
L 312.766514 367.153234 
L 313.470827 370.906161 
L 313.705598 369.706497 
L 314.409911 377.610541 
L 314.879452 375.883903 
L 315.818536 377.465081 
L 315.348994 374.955091 
L 316.053307 376.272797 
L 316.288078 372.821764 
L 316.522849 377.495452 
L 316.992391 375.850117 
L 317.931474 369.204027 
L 318.401016 371.785825 
L 319.105329 371.63723 
L 319.809642 377.018945 
L 320.044412 374.795969 
L 320.513954 377.832958 
L 320.748725 377.285018 
L 321.687809 370.30901 
L 322.626893 371.614038 
L 323.800747 377.166751 
L 326.383227 363.07801 
L 327.08754 363.940402 
L 328.496165 370.433156 
L 329.904791 362.998237 
L 330.843875 367.821864 
L 331.078646 367.645391 
L 331.313416 367.906159 
L 332.017729 376.350859 
L 332.487271 373.133071 
L 332.956813 377.776651 
L 333.426355 376.197669 
L 334.365438 373.210937 
L 334.600209 374.257024 
L 335.774064 368.084529 
L 337.652231 362.312507 
L 338.121773 367.776901 
L 338.591315 364.973555 
L 339.530399 354.726382 
L 339.765169 356.929955 
L 340.939024 364.71989 
L 341.173795 364.23873 
L 343.051962 351.087782 
L 343.286733 352.515187 
L 344.225817 362.367848 
L 344.695359 360.092403 
L 345.634442 353.435035 
L 345.869213 353.899003 
L 347.747381 374.17048 
L 347.982152 368.878437 
L 348.686464 371.723523 
L 350.564632 376.076652 
L 351.268944 369.596099 
L 351.973257 371.892345 
L 352.912341 373.368353 
L 353.616654 368.45895 
L 353.851424 374.372578 
L 354.320966 367.217361 
L 354.555737 368.424642 
L 354.790508 367.762375 
L 355.964363 377.712449 
L 356.199134 374.510104 
L 356.668675 372.631955 
L 356.903446 372.977593 
L 357.138217 375.909542 
L 357.372988 372.626248 
L 357.607759 369.107932 
L 357.84253 373.649356 
L 358.077301 370.392206 
L 359.251156 375.817501 
L 359.485926 377.246201 
L 359.955468 374.721569 
L 360.190239 374.063499 
L 360.42501 375.352809 
L 360.894552 374.434501 
L 361.598865 377.60437 
L 361.833636 377.880578 
L 362.772719 373.737354 
L 363.00749 374.037858 
L 363.477032 370.851004 
L 364.181345 371.326253 
L 364.650887 377.356272 
L 365.120428 372.93769 
L 365.58997 374.447047 
L 366.294283 369.874513 
L 367.468138 375.689771 
L 368.641992 370.977382 
L 369.581076 376.899058 
L 370.050618 374.177504 
L 370.989701 374.601351 
L 371.224472 377.734845 
L 371.928785 375.47441 
L 372.163556 376.799813 
L 372.398327 374.925046 
L 373.572181 371.26499 
L 373.806952 371.639411 
L 374.041723 372.842679 
L 374.276494 372.131713 
L 374.511265 369.735661 
L 374.980807 374.191845 
L 375.215578 372.492739 
L 375.450349 372.012121 
L 376.624203 361.333323 
L 376.858974 362.798085 
L 377.093745 365.832427 
L 377.798058 362.278459 
L 378.2676 366.559541 
L 378.971912 363.710505 
L 379.206683 361.347605 
L 379.676225 364.538536 
L 381.084851 374.552115 
L 382.023934 372.585035 
L 382.493476 370.431776 
L 382.728247 372.150932 
L 382.963018 375.599864 
L 383.667331 372.235588 
L 384.371644 365.812612 
L 384.606414 371.195109 
L 384.841185 373.990675 
L 385.075956 370.140351 
L 385.310727 371.455367 
L 386.01504 372.208348 
L 386.249811 369.505472 
L 387.893207 377.868872 
L 388.832291 369.208409 
L 389.067062 373.468174 
L 389.536604 376.958667 
L 389.771375 372.510242 
L 390.240916 376.848173 
L 390.475687 374.931257 
L 391.18 377.351694 
L 391.414771 377.493913 
L 392.588626 374.360149 
L 393.76248 377.625794 
L 393.997251 377.020391 
L 394.701564 375.223209 
L 395.640648 377.892632 
L 395.875418 376.334626 
L 396.579731 377.014931 
L 397.284044 377.239707 
L 397.518815 376.71131 
L 398.223128 370.856256 
L 399.866524 357.947336 
L 400.336066 358.590991 
L 401.50992 355.309978 
L 403.388088 368.652631 
L 404.0924 363.333747 
L 404.561942 365.567807 
L 404.796713 365.136972 
L 405.970568 371.065776 
L 406.44011 371.155905 
L 407.613964 360.927998 
L 408.083506 352.817848 
L 408.553048 355.996482 
L 409.02259 362.06724 
L 409.961673 369.169513 
L 410.431215 368.920686 
L 410.900757 362.908292 
L 411.135528 367.508249 
L 411.60507 373.966847 
L 412.309383 373.742181 
L 413.483237 377.974572 
L 413.718008 375.879962 
L 414.657092 371.76356 
L 414.891863 373.350722 
L 415.126634 376.41826 
L 415.596175 370.881391 
L 415.830946 375.390922 
L 417.004801 369.827203 
L 416.535259 375.795651 
L 417.239572 371.636409 
L 417.474343 372.019115 
L 418.648197 365.260421 
L 418.882968 367.903401 
L 419.117739 371.478828 
L 419.587281 366.569052 
L 419.822052 370.071975 
L 420.056823 370.377494 
L 420.761136 370.970816 
L 421.465448 358.096517 
L 422.874074 366.905305 
L 423.343616 363.098025 
L 424.047928 361.050835 
L 423.813157 363.987379 
L 424.282699 361.568102 
L 426.630408 374.607219 
L 427.804263 364.943959 
L 428.273805 366.014983 
L 428.508576 366.894808 
L 428.743347 366.79495 
L 429.447659 359.775236 
L 429.917201 359.904212 
L 430.151972 362.343144 
L 430.621514 358.820812 
L 430.856285 359.523464 
L 431.325827 360.101028 
L 432.26491 364.688551 
L 432.734452 370.962062 
L 433.438765 368.822027 
L 434.143078 362.891484 
L 434.61262 364.934644 
L 435.082161 359.387565 
L 436.021245 361.578834 
L 437.664642 366.175004 
L 437.899412 365.697303 
L 438.134183 362.722046 
L 438.603725 364.844937 
L 439.77758 370.946169 
L 440.012351 370.64995 
L 440.247122 371.351212 
L 440.481893 370.362415 
L 442.125289 361.545259 
L 442.36006 362.469608 
L 442.829602 367.758295 
L 443.299144 366.088259 
L 443.768685 360.745649 
L 444.003456 368.500369 
L 444.238227 369.236672 
L 444.472998 367.305558 
L 444.707769 367.974169 
L 444.94254 368.086352 
L 445.646853 364.373723 
L 445.881624 366.975494 
L 446.116394 369.435557 
L 446.351165 365.366456 
L 446.820707 359.718654 
L 447.52502 362.324346 
L 447.994562 363.145749 
L 448.229333 361.9152 
L 448.464104 358.894316 
L 448.933645 364.083295 
L 449.872729 372.350425 
L 450.342271 370.766665 
L 450.577042 365.944117 
L 451.046584 373.130609 
L 451.985667 377.429262 
L 451.516126 372.700976 
L 452.220438 375.938125 
L 452.924751 371.456881 
L 453.159522 372.136495 
L 453.394293 373.14439 
L 453.629064 371.633887 
L 453.863835 372.043531 
L 454.802918 368.891165 
L 454.333377 372.332401 
L 455.27246 369.591567 
L 455.507231 372.286882 
L 455.976773 368.259383 
L 456.211544 367.550096 
L 457.150628 374.100628 
L 457.385398 372.550166 
L 457.620169 369.217037 
L 458.089711 376.601152 
L 458.324482 371.885578 
L 458.559253 371.730538 
L 458.794024 368.969062 
L 459.263566 375.189579 
L 459.498337 377.824702 
L 460.202649 377.163532 
L 460.672191 374.149703 
L 461.141733 376.726793 
L 462.315588 364.175924 
L 462.550359 365.451333 
L 462.78513 368.616439 
L 463.489442 366.062558 
L 463.724213 364.846142 
L 463.958984 367.520338 
L 464.428526 365.349705 
L 465.132839 367.012843 
L 465.602381 366.685318 
L 466.306693 370.234306 
L 467.011006 371.47652 
L 467.480548 367.890039 
L 467.95009 365.260433 
L 468.419632 369.331119 
L 468.889173 366.172538 
L 470.063028 363.190216 
L 470.297799 364.646072 
L 470.767341 369.469115 
L 471.236883 367.213939 
L 471.706424 362.21182 
L 471.941195 368.434553 
L 472.175966 366.277476 
L 472.410737 367.155812 
L 472.880279 366.907602 
L 474.054134 352.269794 
L 474.523675 355.018662 
L 477.106155 374.589003 
L 477.810468 365.960131 
L 478.045239 370.187834 
L 479.219094 377.47522 
L 479.453865 377.393871 
L 479.688636 377.632892 
L 480.158177 372.24272 
L 480.86249 375.692572 
L 481.566803 375.258055 
L 482.036345 377.824053 
L 482.505887 376.957307 
L 482.740657 373.3226 
L 483.44497 373.757758 
L 483.914512 372.070616 
L 484.853596 377.622296 
L 486.966534 366.563488 
L 487.670847 365.229305 
L 487.905618 366.885782 
L 488.140388 366.653478 
L 488.844701 361.497026 
L 489.314243 363.890539 
L 489.549014 363.994125 
L 489.783785 368.464775 
L 490.722869 367.524941 
L 492.601036 377.874453 
L 492.835807 375.776845 
L 493.54012 373.520922 
L 493.77489 373.835541 
L 494.009661 376.842522 
L 494.479203 373.285379 
L 495.418287 365.450548 
L 495.653058 366.705961 
L 496.826912 375.419948 
L 497.061683 377.510009 
L 497.765996 375.448734 
L 499.174622 369.421163 
L 499.409392 369.478599 
L 500.348476 365.234465 
L 500.583247 368.22873 
L 500.818018 370.244493 
L 501.28756 365.854202 
L 501.522331 367.137142 
L 501.757102 363.189088 
L 501.991873 364.181196 
L 502.461414 363.231964 
L 504.104811 374.031334 
L 504.574353 374.215981 
L 504.809124 376.114529 
L 505.043894 371.87255 
L 505.278665 372.12807 
L 505.513436 371.151786 
L 505.748207 372.28194 
L 507.156833 377.182128 
L 508.330687 372.312847 
L 508.800229 377.212337 
L 509.035 371.399854 
L 509.269771 368.634928 
L 509.504542 372.828622 
L 509.974084 369.071278 
L 510.678396 377.089026 
L 510.913167 374.340542 
L 511.61748 367.640379 
L 511.852251 372.127649 
L 512.791335 377.545112 
L 513.026106 375.965263 
L 514.904273 364.971049 
L 513.495647 377.938133 
L 515.139044 367.880108 
L 515.373815 371.400014 
L 515.843357 365.374081 
L 516.078128 366.073419 
L 516.312898 364.521547 
L 516.547669 365.5435 
L 517.017211 359.442949 
L 517.486753 366.026514 
L 518.425837 371.502718 
L 519.130149 370.097581 
L 520.304004 363.402158 
L 520.773546 361.698164 
L 521.008317 367.448301 
L 521.9474 366.517875 
L 522.416942 368.928632 
L 522.651713 373.664532 
L 523.121255 366.923605 
L 523.356026 370.725479 
L 523.590797 369.552657 
L 523.825568 372.195512 
L 524.529881 375.823682 
L 525.938506 363.246436 
L 526.173277 364.408638 
L 526.408048 362.641007 
L 528.051444 355.471244 
L 528.520986 356.593171 
L 530.633924 366.610573 
L 532.04255 373.606635 
L 532.512092 377.400465 
L 533.216404 376.086665 
L 534.390259 370.937113 
L 534.859801 372.741138 
L 535.798884 377.498245 
L 536.972739 367.007142 
L 537.20751 368.293441 
L 537.442281 368.130299 
L 538.850906 377.158476 
L 539.320448 375.768642 
L 539.555219 374.462029 
L 539.78999 377.30847 
L 540.259532 374.636244 
L 540.963845 377.411672 
L 541.198616 375.638329 
L 542.137699 373.802854 
L 542.607241 371.666743 
L 543.546325 377.402338 
L 544.485408 368.877673 
L 544.485408 368.877673 
" clip-path="url(#p235fd17a2c)" style="fill: none; stroke: #e41a1c; stroke-width: 2; stroke-linecap: square"/>
   </g>
   <g id="patch_6">
    <path d="M 51.466484 385.599141 
L 51.466484 217.858633 
" style="fill: none; stroke: #7f7f7f; stroke-width: 1.8; stroke-linejoin: miter; stroke-linecap: square"/>
   </g>
   <g id="patch_7">
    <path d="M 51.466484 385.599141 
L 567.9625 385.599141 
" style="fill: none; stroke: #7f7f7f; stroke-width: 1.8; stroke-linejoin: miter; stroke-linecap: square"/>
   </g>
  </g>
 </g>
 <defs>
  <clipPath id="p84a1eb7cd9">
   <rect x="51.466484" y="22.318125" width="516.496016" height="167.740508"/>
  </clipPath>
  <clipPath id="p235fd17a2c">
   <rect x="51.466484" y="217.858633" width="516.496016" height="167.740508"/>
  </clipPath>
 </defs>
</svg>
