<?xml version="1.0" encoding="utf-8" standalone="no"?>
<!DOCTYPE svg PUBLIC "-//W3C//DTD SVG 1.1//EN"
  "http://www.w3.org/Graphics/SVG/1.1/DTD/svg11.dtd">
<svg xmlns:xlink="http://www.w3.org/1999/xlink" width="568.8pt" height="424.8pt" viewBox="0 0 568.8 424.8" xmlns="http://www.w3.org/2000/svg" version="1.1">
 <metadata>
  <rdf:RDF xmlns:dc="http://purl.org/dc/elements/1.1/" xmlns:cc="http://creativecommons.org/ns#" xmlns:rdf="http://www.w3.org/1999/02/22-rdf-syntax-ns#">
   <cc:Work>
    <dc:type rdf:resource="http://purl.org/dc/dcmitype/StillImage"/>
    <dc:date>2026-05-22T19:36:22.825950</dc:date>
    <dc:format>image/svg+xml</dc:format>
    <dc:creator>
     <cc:Agent>
      <dc:title>Matplotlib v3.10.9, https://matplotlib.org/</dc:title>
     </cc:Agent>
    </dc:creator>
   </cc:Work>
  </rdf:RDF>
 </metadata>
 <defs>
  <style type="text/css">*{stroke-linejoin: round; stroke-linecap: butt}</style>
 </defs>
 <g id="figure_1">
  <g id="patch_1">
   <path d="M 0 424.8 
L 568.8 424.8 
L 568.8 0 
L 0 0 
L 0 424.8 
z
" style="fill: none"/>
  </g>
  <g id="axes_1">
   <g id="patch_2">
    <path d="M 44.749063 190.557969 
L 561.6 190.557969 
L 561.6 22.318125 
L 44.749063 22.318125 
L 44.749063 190.557969 
z
" style="fill: none"/>
   </g>
   <g id="matplotlib.axis_1">
    <g id="xtick_1">
     <g id="line2d_1">
      <defs>
       <path id="m40c471bb3a" d="M 0 0 
L 0 3.5 
" style="stroke: #7f7f7f; stroke-width: 1.8"/>
      </defs>
      <g>
       <use xlink:href="#m40c471bb3a" x="68.242287" y="190.557969" style="fill: #7f7f7f; stroke: #7f7f7f; stroke-width: 1.8"/>
      </g>
     </g>
     <g id="text_1">
      <!-- 0.0 -->
      <g style="fill: #7f7f7f" transform="translate(60.290724 205.156406) scale(0.1 -0.1)">
       <defs>
        <path id="DejaVuSans-30" d="M 2034 4250 
Q 1547 4250 1301 3770 
Q 1056 3291 1056 2328 
Q 1056 1369 1301 889 
Q 1547 409 2034 409 
Q 2525 409 2770 889 
Q 3016 1369 3016 2328 
Q 3016 3291 2770 3770 
Q 2525 4250 2034 4250 
z
M 2034 4750 
Q 2819 4750 3233 4129 
Q 3647 3509 3647 2328 
Q 3647 1150 3233 529 
Q 2819 -91 2034 -91 
Q 1250 -91 836 529 
Q 422 1150 422 2328 
Q 422 3509 836 4129 
Q 1250 4750 2034 4750 
z
" transform="scale(0.015625)"/>
        <path id="DejaVuSans-2e" d="M 684 794 
L 1344 794 
L 1344 0 
L 684 0 
L 684 794 
z
" transform="scale(0.015625)"/>
       </defs>
       <use xlink:href="#DejaVuSans-30"/>
       <use xlink:href="#DejaVuSans-2e" transform="translate(63.623047 0)"/>
       <use xlink:href="#DejaVuSans-30" transform="translate(95.410156 0)"/>
      </g>
     </g>
    </g>
    <g id="xtick_2">
     <g id="line2d_2">
      <g>
       <use xlink:href="#m40c471bb3a" x="126.975348" y="190.557969" style="fill: #7f7f7f; stroke: #7f7f7f; stroke-width: 1.8"/>
      </g>
     </g>
     <g id="text_2">
      <!-- 2.5 -->
      <g style="fill: #7f7f7f" transform="translate(119.023786 205.156406) scale(0.1 -0.1)">
       <defs>
        <path id="DejaVuSans-32" d="M 1228 531 
L 3431 531 
L 3431 0 
L 469 0 
L 469 531 
Q 828 903 1448 1529 
Q 2069 2156 2228 2338 
Q 2531 2678 2651 2914 
Q 2772 3150 2772 3378 
Q 2772 3750 2511 3984 
Q 2250 4219 1831 4219 
Q 1534 4219 1204 4116 
Q 875 4013 500 3803 
L 500 4441 
Q 881 4594 1212 4672 
Q 1544 4750 1819 4750 
Q 2544 4750 2975 4387 
Q 3406 4025 3406 3419 
Q 3406 3131 3298 2873 
Q 3191 2616 2906 2266 
Q 2828 2175 2409 1742 
Q 1991 1309 1228 531 
z
" transform="scale(0.015625)"/>
        <path id="DejaVuSans-35" d="M 691 4666 
L 3169 4666 
L 3169 4134 
L 1269 4134 
L 1269 2991 
Q 1406 3038 1543 3061 
Q 1681 3084 1819 3084 
Q 2600 3084 3056 2656 
Q 3513 2228 3513 1497 
Q 3513 744 3044 326 
Q 2575 -91 1722 -91 
Q 1428 -91 1123 -41 
Q 819 9 494 109 
L 494 744 
Q 775 591 1075 516 
Q 1375 441 1709 441 
Q 2250 441 2565 725 
Q 2881 1009 2881 1497 
Q 2881 1984 2565 2268 
Q 2250 2553 1709 2553 
Q 1456 2553 1204 2497 
Q 953 2441 691 2322 
L 691 4666 
z
" transform="scale(0.015625)"/>
       </defs>
       <use xlink:href="#DejaVuSans-32"/>
       <use xlink:href="#DejaVuSans-2e" transform="translate(63.623047 0)"/>
       <use xlink:href="#DejaVuSans-35" transform="translate(95.410156 0)"/>
      </g>
     </g>
    </g>
    <g id="xtick_3">
     <g id="line2d_3">
      <g>
       <use xlink:href="#m40c471bb3a" x="185.708409" y="190.557969" style="fill: #7f7f7f; stroke: #7f7f7f; stroke-width: 1.8"/>
      </g>
     </g>
     <g id="text_3">
      <!-- 5.0 -->
      <g style="fill: #7f7f7f" transform="translate(177.756847 205.156406) scale(0.1 -0.1)">
       <use xlink:href="#DejaVuSans-35"/>
       <use xlink:href="#DejaVuSans-2e" transform="translate(63.623047 0)"/>
       <use xlink:href="#DejaVuSans-30" transform="translate(95.410156 0)"/>
      </g>
     </g>
    </g>
    <g id="xtick_4">
     <g id="line2d_4">
      <g>
       <use xlink:href="#m40c471bb3a" x="244.44147" y="190.557969" style="fill: #7f7f7f; stroke: #7f7f7f; stroke-width: 1.8"/>
      </g>
     </g>
     <g id="text_4">
      <!-- 7.5 -->
      <g style="fill: #7f7f7f" transform="translate(236.489908 205.156406) scale(0.1 -0.1)">
       <defs>
        <path id="DejaVuSans-37" d="M 525 4666 
L 3525 4666 
L 3525 4397 
L 1831 0 
L 1172 0 
L 2766 4134 
L 525 4134 
L 525 4666 
z
" transform="scale(0.015625)"/>
       </defs>
       <use xlink:href="#DejaVuSans-37"/>
       <use xlink:href="#DejaVuSans-2e" transform="translate(63.623047 0)"/>
       <use xlink:href="#DejaVuSans-35" transform="translate(95.410156 0)"/>
      </g>
     </g>
    </g>
    <g id="xtick_5">
     <g id="line2d_5">
      <g>
       <use xlink:href="#m40c471bb3a" x="303.174531" y="190.557969" style="fill: #7f7f7f; stroke: #7f7f7f; stroke-width: 1.8"/>
      </g>
     </g>
     <g id="text_5">
      <!-- 10.0 -->
      <g style="fill: #7f7f7f" transform="translate(292.041719 205.156406) scale(0.1 -0.1)">
       <defs>
        <path id="DejaVuSans-31" d="M 794 531 
L 1825 531 
L 1825 4091 
L 703 3866 
L 703 4441 
L 1819 4666 
L 2450 4666 
L 2450 531 
L 3481 531 
L 3481 0 
L 794 0 
L 794 531 
z
" transform="scale(0.015625)"/>
       </defs>
       <use xlink:href="#DejaVuSans-31"/>
       <use xlink:href="#DejaVuSans-30" transform="translate(63.623047 0)"/>
       <use xlink:href="#DejaVuSans-2e" transform="translate(127.246094 0)"/>
       <use xlink:href="#DejaVuSans-30" transform="translate(159.033203 0)"/>
      </g>
     </g>
    </g>
    <g id="xtick_6">
     <g id="line2d_6">
      <g>
       <use xlink:href="#m40c471bb3a" x="361.907592" y="190.557969" style="fill: #7f7f7f; stroke: #7f7f7f; stroke-width: 1.8"/>
      </g>
     </g>
     <g id="text_6">
      <!-- 12.5 -->
      <g style="fill: #7f7f7f" transform="translate(350.77478 205.156406) scale(0.1 -0.1)">
       <use xlink:href="#DejaVuSans-31"/>
       <use xlink:href="#DejaVuSans-32" transform="translate(63.623047 0)"/>
       <use xlink:href="#DejaVuSans-2e" transform="translate(127.246094 0)"/>
       <use xlink:href="#DejaVuSans-35" transform="translate(159.033203 0)"/>
      </g>
     </g>
    </g>
    <g id="xtick_7">
     <g id="line2d_7">
      <g>
       <use xlink:href="#m40c471bb3a" x="420.640653" y="190.557969" style="fill: #7f7f7f; stroke: #7f7f7f; stroke-width: 1.8"/>
      </g>
     </g>
     <g id="text_7">
      <!-- 15.0 -->
      <g style="fill: #7f7f7f" transform="translate(409.507841 205.156406) scale(0.1 -0.1)">
       <use xlink:href="#DejaVuSans-31"/>
       <use xlink:href="#DejaVuSans-35" transform="translate(63.623047 0)"/>
       <use xlink:href="#DejaVuSans-2e" transform="translate(127.246094 0)"/>
       <use xlink:href="#DejaVuSans-30" transform="translate(159.033203 0)"/>
      </g>
     </g>
    </g>
    <g id="xtick_8">
     <g id="line2d_8">
      <g>
       <use xlink:href="#m40c471bb3a" x="479.373714" y="190.557969" style="fill: #7f7f7f; stroke: #7f7f7f; stroke-width: 1.8"/>
      </g>
     </g>
     <g id="text_8">
      <!-- 17.5 -->
      <g style="fill: #7f7f7f" transform="translate(468.240902 205.156406) scale(0.1 -0.1)">
       <use xlink:href="#DejaVuSans-31"/>
       <use xlink:href="#DejaVuSans-37" transform="translate(63.623047 0)"/>
       <use xlink:href="#DejaVuSans-2e" transform="translate(127.246094 0)"/>
       <use xlink:href="#DejaVuSans-35" transform="translate(159.033203 0)"/>
      </g>
     </g>
    </g>
    <g id="xtick_9">
     <g id="line2d_9">
      <g>
       <use xlink:href="#m40c471bb3a" x="538.106776" y="190.557969" style="fill: #7f7f7f; stroke: #7f7f7f; stroke-width: 1.8"/>
      </g>
     </g>
     <g id="text_9">
      <!-- 20.0 -->
      <g style="fill: #7f7f7f" transform="translate(526.973963 205.156406) scale(0.1 -0.1)">
       <use xlink:href="#DejaVuSans-32"/>
       <use xlink:href="#DejaVuSans-30" transform="translate(63.623047 0)"/>
       <use xlink:href="#DejaVuSans-2e" transform="translate(127.246094 0)"/>
       <use xlink:href="#DejaVuSans-30" transform="translate(159.033203 0)"/>
      </g>
     </g>
    </g>
   </g>
   <g id="matplotlib.axis_2">
    <g id="ytick_1">
     <g id="line2d_10">
      <defs>
       <path id="m775ae7f6d8" d="M 0 0 
L -3.5 0 
" style="stroke: #7f7f7f; stroke-width: 1.8"/>
      </defs>
      <g>
       <use xlink:href="#m775ae7f6d8" x="44.749063" y="182.910703" style="fill: #7f7f7f; stroke: #7f7f7f; stroke-width: 1.8"/>
      </g>
     </g>
     <g id="text_10">
      <!-- 0.0 -->
      <g style="fill: #7f7f7f" transform="translate(21.845938 186.709922) scale(0.1 -0.1)">
       <use xlink:href="#DejaVuSans-30"/>
       <use xlink:href="#DejaVuSans-2e" transform="translate(63.623047 0)"/>
       <use xlink:href="#DejaVuSans-30" transform="translate(95.410156 0)"/>
      </g>
     </g>
    </g>
    <g id="ytick_2">
     <g id="line2d_11">
      <g>
       <use xlink:href="#m775ae7f6d8" x="44.749063" y="142.579082" style="fill: #7f7f7f; stroke: #7f7f7f; stroke-width: 1.8"/>
      </g>
     </g>
     <g id="text_11">
      <!-- 0.1 -->
      <g style="fill: #7f7f7f" transform="translate(21.845938 146.378301) scale(0.1 -0.1)">
       <use xlink:href="#DejaVuSans-30"/>
       <use xlink:href="#DejaVuSans-2e" transform="translate(63.623047 0)"/>
       <use xlink:href="#DejaVuSans-31" transform="translate(95.410156 0)"/>
      </g>
     </g>
    </g>
    <g id="ytick_3">
     <g id="line2d_12">
      <g>
       <use xlink:href="#m775ae7f6d8" x="44.749063" y="102.247462" style="fill: #7f7f7f; stroke: #7f7f7f; stroke-width: 1.8"/>
      </g>
     </g>
     <g id="text_12">
      <!-- 0.2 -->
      <g style="fill: #7f7f7f" transform="translate(21.845938 106.04668) scale(0.1 -0.1)">
       <use xlink:href="#DejaVuSans-30"/>
       <use xlink:href="#DejaVuSans-2e" transform="translate(63.623047 0)"/>
       <use xlink:href="#DejaVuSans-32" transform="translate(95.410156 0)"/>
      </g>
     </g>
    </g>
    <g id="ytick_4">
     <g id="line2d_13">
      <g>
       <use xlink:href="#m775ae7f6d8" x="44.749063" y="61.915841" style="fill: #7f7f7f; stroke: #7f7f7f; stroke-width: 1.8"/>
      </g>
     </g>
     <g id="text_13">
      <!-- 0.3 -->
      <g style="fill: #7f7f7f" transform="translate(21.845938 65.71506) scale(0.1 -0.1)">
       <defs>
        <path id="DejaVuSans-33" d="M 2597 2516 
Q 3050 2419 3304 2112 
Q 3559 1806 3559 1356 
Q 3559 666 3084 287 
Q 2609 -91 1734 -91 
Q 1441 -91 1130 -33 
Q 819 25 488 141 
L 488 750 
Q 750 597 1062 519 
Q 1375 441 1716 441 
Q 2309 441 2620 675 
Q 2931 909 2931 1356 
Q 2931 1769 2642 2001 
Q 2353 2234 1838 2234 
L 1294 2234 
L 1294 2753 
L 1863 2753 
Q 2328 2753 2575 2939 
Q 2822 3125 2822 3475 
Q 2822 3834 2567 4026 
Q 2313 4219 1838 4219 
Q 1578 4219 1281 4162 
Q 984 4106 628 3988 
L 628 4550 
Q 988 4650 1302 4700 
Q 1616 4750 1894 4750 
Q 2613 4750 3031 4423 
Q 3450 4097 3450 3541 
Q 3450 3153 3228 2886 
Q 3006 2619 2597 2516 
z
" transform="scale(0.015625)"/>
       </defs>
       <use xlink:href="#DejaVuSans-30"/>
       <use xlink:href="#DejaVuSans-2e" transform="translate(63.623047 0)"/>
       <use xlink:href="#DejaVuSans-33" transform="translate(95.410156 0)"/>
      </g>
     </g>
    </g>
    <g id="text_14">
     <!-- Position Error [m] -->
     <g style="fill: #7f7f7f" transform="translate(15.558281 154.397187) rotate(-90) scale(0.11 -0.11)">
      <defs>
       <path id="DejaVuSans-50" d="M 1259 4147 
L 1259 2394 
L 2053 2394 
Q 2494 2394 2734 2622 
Q 2975 2850 2975 3272 
Q 2975 3691 2734 3919 
Q 2494 4147 2053 4147 
L 1259 4147 
z
M 628 4666 
L 2053 4666 
Q 2838 4666 3239 4311 
Q 3641 3956 3641 3272 
Q 3641 2581 3239 2228 
Q 2838 1875 2053 1875 
L 1259 1875 
L 1259 0 
L 628 0 
L 628 4666 
z
" transform="scale(0.015625)"/>
       <path id="DejaVuSans-6f" d="M 1959 3097 
Q 1497 3097 1228 2736 
Q 959 2375 959 1747 
Q 959 1119 1226 758 
Q 1494 397 1959 397 
Q 2419 397 2687 759 
Q 2956 1122 2956 1747 
Q 2956 2369 2687 2733 
Q 2419 3097 1959 3097 
z
M 1959 3584 
Q 2709 3584 3137 3096 
Q 3566 2609 3566 1747 
Q 3566 888 3137 398 
Q 2709 -91 1959 -91 
Q 1206 -91 779 398 
Q 353 888 353 1747 
Q 353 2609 779 3096 
Q 1206 3584 1959 3584 
z
" transform="scale(0.015625)"/>
       <path id="DejaVuSans-73" d="M 2834 3397 
L 2834 2853 
Q 2591 2978 2328 3040 
Q 2066 3103 1784 3103 
Q 1356 3103 1142 2972 
Q 928 2841 928 2578 
Q 928 2378 1081 2264 
Q 1234 2150 1697 2047 
L 1894 2003 
Q 2506 1872 2764 1633 
Q 3022 1394 3022 966 
Q 3022 478 2636 193 
Q 2250 -91 1575 -91 
Q 1294 -91 989 -36 
Q 684 19 347 128 
L 347 722 
Q 666 556 975 473 
Q 1284 391 1588 391 
Q 1994 391 2212 530 
Q 2431 669 2431 922 
Q 2431 1156 2273 1281 
Q 2116 1406 1581 1522 
L 1381 1569 
Q 847 1681 609 1914 
Q 372 2147 372 2553 
Q 372 3047 722 3315 
Q 1072 3584 1716 3584 
Q 2034 3584 2315 3537 
Q 2597 3491 2834 3397 
z
" transform="scale(0.015625)"/>
       <path id="DejaVuSans-69" d="M 603 3500 
L 1178 3500 
L 1178 0 
L 603 0 
L 603 3500 
z
M 603 4863 
L 1178 4863 
L 1178 4134 
L 603 4134 
L 603 4863 
z
" transform="scale(0.015625)"/>
       <path id="DejaVuSans-74" d="M 1172 4494 
L 1172 3500 
L 2356 3500 
L 2356 3053 
L 1172 3053 
L 1172 1153 
Q 1172 725 1289 603 
Q 1406 481 1766 481 
L 2356 481 
L 2356 0 
L 1766 0 
Q 1100 0 847 248 
Q 594 497 594 1153 
L 594 3053 
L 172 3053 
L 172 3500 
L 594 3500 
L 594 4494 
L 1172 4494 
z
" transform="scale(0.015625)"/>
       <path id="DejaVuSans-6e" d="M 3513 2113 
L 3513 0 
L 2938 0 
L 2938 2094 
Q 2938 2591 2744 2837 
Q 2550 3084 2163 3084 
Q 1697 3084 1428 2787 
Q 1159 2491 1159 1978 
L 1159 0 
L 581 0 
L 581 3500 
L 1159 3500 
L 1159 2956 
Q 1366 3272 1645 3428 
Q 1925 3584 2291 3584 
Q 2894 3584 3203 3211 
Q 3513 2838 3513 2113 
z
" transform="scale(0.015625)"/>
       <path id="DejaVuSans-20" transform="scale(0.015625)"/>
       <path id="DejaVuSans-45" d="M 628 4666 
L 3578 4666 
L 3578 4134 
L 1259 4134 
L 1259 2753 
L 3481 2753 
L 3481 2222 
L 1259 2222 
L 1259 531 
L 3634 531 
L 3634 0 
L 628 0 
L 628 4666 
z
" transform="scale(0.015625)"/>
       <path id="DejaVuSans-72" d="M 2631 2963 
Q 2534 3019 2420 3045 
Q 2306 3072 2169 3072 
Q 1681 3072 1420 2755 
Q 1159 2438 1159 1844 
L 1159 0 
L 581 0 
L 581 3500 
L 1159 3500 
L 1159 2956 
Q 1341 3275 1631 3429 
Q 1922 3584 2338 3584 
Q 2397 3584 2469 3576 
Q 2541 3569 2628 3553 
L 2631 2963 
z
" transform="scale(0.015625)"/>
       <path id="DejaVuSans-5b" d="M 550 4863 
L 1875 4863 
L 1875 4416 
L 1125 4416 
L 1125 -397 
L 1875 -397 
L 1875 -844 
L 550 -844 
L 550 4863 
z
" transform="scale(0.015625)"/>
       <path id="DejaVuSans-6d" d="M 3328 2828 
Q 3544 3216 3844 3400 
Q 4144 3584 4550 3584 
Q 5097 3584 5394 3201 
Q 5691 2819 5691 2113 
L 5691 0 
L 5113 0 
L 5113 2094 
Q 5113 2597 4934 2840 
Q 4756 3084 4391 3084 
Q 3944 3084 3684 2787 
Q 3425 2491 3425 1978 
L 3425 0 
L 2847 0 
L 2847 2094 
Q 2847 2600 2669 2842 
Q 2491 3084 2119 3084 
Q 1678 3084 1418 2786 
Q 1159 2488 1159 1978 
L 1159 0 
L 581 0 
L 581 3500 
L 1159 3500 
L 1159 2956 
Q 1356 3278 1631 3431 
Q 1906 3584 2284 3584 
Q 2666 3584 2933 3390 
Q 3200 3197 3328 2828 
z
" transform="scale(0.015625)"/>
       <path id="DejaVuSans-5d" d="M 1947 4863 
L 1947 -844 
L 622 -844 
L 622 -397 
L 1369 -397 
L 1369 4416 
L 622 4416 
L 622 4863 
L 1947 4863 
z
" transform="scale(0.015625)"/>
      </defs>
      <use xlink:href="#DejaVuSans-50"/>
      <use xlink:href="#DejaVuSans-6f" transform="translate(56.677734 0)"/>
      <use xlink:href="#DejaVuSans-73" transform="translate(117.859375 0)"/>
      <use xlink:href="#DejaVuSans-69" transform="translate(169.958984 0)"/>
      <use xlink:href="#DejaVuSans-74" transform="translate(197.742188 0)"/>
      <use xlink:href="#DejaVuSans-69" transform="translate(236.951172 0)"/>
      <use xlink:href="#DejaVuSans-6f" transform="translate(264.734375 0)"/>
      <use xlink:href="#DejaVuSans-6e" transform="translate(325.916016 0)"/>
      <use xlink:href="#DejaVuSans-20" transform="translate(389.294922 0)"/>
      <use xlink:href="#DejaVuSans-45" transform="translate(421.082031 0)"/>
      <use xlink:href="#DejaVuSans-72" transform="translate(484.265625 0)"/>
      <use xlink:href="#DejaVuSans-72" transform="translate(523.628906 0)"/>
      <use xlink:href="#DejaVuSans-6f" transform="translate(562.492188 0)"/>
      <use xlink:href="#DejaVuSans-72" transform="translate(623.673828 0)"/>
      <use xlink:href="#DejaVuSans-20" transform="translate(664.787109 0)"/>
      <use xlink:href="#DejaVuSans-5b" transform="translate(696.574219 0)"/>
      <use xlink:href="#DejaVuSans-6d" transform="translate(735.587891 0)"/>
      <use xlink:href="#DejaVuSans-5d" transform="translate(833 0)"/>
     </g>
    </g>
   </g>
   <g id="line2d_14">
    <path d="M 68.242287 182.910703 
L 68.947084 139.924016 
L 69.416948 165.481861 
L 69.886813 73.487794 
L 70.356677 114.68648 
L 70.826542 145.420136 
L 71.531338 178.496193 
L 72.001203 176.046641 
L 74.350525 29.965391 
L 74.82039 30.752597 
L 76.93478 151.268071 
L 77.639577 162.001523 
L 77.874509 150.155185 
L 78.109441 148.155652 
L 79.04917 177.470897 
L 79.284102 166.389679 
L 80.693696 138.264047 
L 81.16356 165.962308 
L 81.633425 157.250854 
L 82.808086 98.325268 
L 83.043018 99.857083 
L 83.277951 94.32865 
L 83.747815 102.53333 
L 84.687544 116.915556 
L 84.922476 85.089388 
L 85.627273 117.554562 
L 85.862205 124.517337 
L 86.33207 112.006341 
L 87.506731 87.578394 
L 87.976595 88.843144 
L 88.211528 110.567791 
L 88.916324 92.276632 
L 89.151257 87.307988 
L 89.621121 93.736445 
L 90.795782 120.485465 
L 91.735511 98.328501 
L 91.970444 110.221524 
L 92.205376 120.720662 
L 92.67524 109.469881 
L 92.910173 106.899389 
L 93.614969 134.983533 
L 94.084834 129.741767 
L 95.024563 91.656451 
L 95.259495 97.346902 
L 96.199224 136.339149 
L 96.434156 131.658263 
L 97.608817 155.514941 
L 97.138953 130.284148 
L 98.078682 148.859682 
L 98.548546 150.044943 
L 99.018411 158.776263 
L 99.253343 143.916865 
L 99.488275 128.775216 
L 99.95814 131.024641 
L 100.897869 160.089914 
L 101.132801 152.378466 
L 101.602666 149.87206 
L 102.542395 151.583438 
L 102.777327 136.611587 
L 103.717056 165.746365 
L 103.951988 159.598909 
L 104.18692 158.627567 
L 104.421853 159.899238 
L 105.596514 182.594048 
L 106.301311 177.891842 
L 106.536243 172.263855 
L 106.771175 182.575183 
L 107.241039 179.191992 
L 107.475972 177.46483 
L 107.710904 182.152538 
L 107.945836 182.015042 
L 108.180768 179.383265 
L 109.120497 152.568672 
L 109.35543 155.432328 
L 110.060226 180.333288 
L 111.234888 176.606778 
L 111.704752 166.481563 
L 112.174617 177.332911 
L 112.644481 175.813275 
L 113.349278 182.880824 
L 116.638329 160.949777 
L 117.108194 180.758276 
L 117.578058 167.052295 
L 117.81299 155.952366 
L 118.517787 167.556674 
L 118.752719 166.990394 
L 119.222584 155.841088 
L 119.457516 165.3895 
L 119.692448 179.497386 
L 120.397245 163.777937 
L 120.632177 166.233021 
L 120.86711 160.481873 
L 121.336974 161.376522 
L 121.571906 163.878723 
L 122.041771 148.658303 
L 122.511635 157.845881 
L 123.216432 164.052386 
L 123.686297 148.523598 
L 124.156161 161.878381 
L 124.391093 175.700002 
L 124.860958 162.749631 
L 126.270551 135.665079 
L 126.505484 140.344255 
L 126.975348 139.075311 
L 127.680145 150.539679 
L 128.384941 139.314004 
L 128.619874 147.120398 
L 128.854806 147.655815 
L 129.32467 139.882086 
L 130.029467 140.514003 
L 131.204128 163.81031 
L 131.439061 161.482396 
L 131.673993 162.461383 
L 131.908925 162.386024 
L 132.37879 180.333645 
L 133.083586 177.448882 
L 133.553451 180.773363 
L 134.49318 164.978658 
L 134.728112 168.115765 
L 135.432909 179.262825 
L 135.902773 174.946015 
L 137.547299 125.350202 
L 138.017163 126.806775 
L 138.252096 126.52057 
L 138.487028 112.224744 
L 139.191825 127.344427 
L 139.661689 115.734821 
L 140.131554 126.343141 
L 140.366486 126.936171 
L 140.601418 131.477039 
L 141.071283 122.261051 
L 141.306215 112.484097 
L 141.541147 116.628534 
L 141.776079 140.029488 
L 142.480876 125.828509 
L 144.360334 164.645614 
L 145.534995 144.442443 
L 145.769928 142.561819 
L 146.944589 118.92777 
L 147.179521 120.151772 
L 147.649386 130.746474 
L 147.884318 119.920007 
L 148.11925 120.26618 
L 149.528843 94.179571 
L 149.763776 98.409455 
L 149.998708 102.290595 
L 151.408301 72.576936 
L 153.052827 112.035598 
L 153.522692 122.994524 
L 154.932285 155.111192 
L 155.167217 151.374689 
L 155.40215 159.194035 
L 155.872014 167.005479 
L 156.106946 149.044771 
L 157.046675 150.419891 
L 157.751472 165.400864 
L 158.221337 162.279209 
L 158.456269 162.581995 
L 159.395998 178.159954 
L 159.63093 171.761147 
L 160.335727 178.424979 
L 160.570659 176.048071 
L 160.805591 181.367695 
L 161.040523 176.531697 
L 161.510388 147.521206 
L 162.215185 154.471126 
L 162.450117 154.426024 
L 163.154914 140.112277 
L 163.389846 145.547276 
L 165.034372 181.319797 
L 165.269304 180.76294 
L 165.504236 171.129418 
L 166.209033 182.635437 
L 166.91383 177.343531 
L 167.148762 179.610029 
L 167.383694 182.252527 
L 167.618626 175.671473 
L 168.088491 175.856597 
L 168.323423 181.925781 
L 168.793287 181.067389 
L 169.498084 182.080934 
L 169.967949 167.057959 
L 170.907678 177.976475 
L 171.14261 174.616626 
L 172.552203 155.589875 
L 173.491932 138.14582 
L 173.726865 138.572746 
L 174.666594 147.239019 
L 174.901526 142.849065 
L 175.136458 138.406113 
L 175.37139 143.672645 
L 175.606323 149.642297 
L 176.076187 137.588673 
L 176.311119 137.608853 
L 176.546052 134.896439 
L 177.015916 155.996391 
L 177.485781 134.855829 
L 177.720713 137.498244 
L 178.42551 113.947086 
L 179.130306 115.108869 
L 180.070035 134.722616 
L 180.5399 133.477082 
L 181.009764 134.481758 
L 182.184425 153.130338 
L 182.419358 152.611617 
L 182.889222 159.806534 
L 183.359087 151.810985 
L 184.76868 121.094831 
L 185.003612 130.258556 
L 185.943341 128.222966 
L 186.648138 107.298029 
L 186.88307 121.308633 
L 188.057732 153.39705 
L 188.762528 147.190858 
L 190.172122 120.782941 
L 190.407054 122.978085 
L 190.876918 143.393164 
L 191.346783 123.619256 
L 192.521444 101.859692 
L 192.756376 107.740825 
L 193.696105 103.748828 
L 193.226241 108.125641 
L 193.931038 105.524367 
L 195.340631 138.686592 
L 195.575563 131.875955 
L 195.810496 133.031276 
L 196.985157 146.358334 
L 197.220089 139.989054 
L 197.455021 152.60502 
L 198.629683 168.423293 
L 199.804344 142.11558 
L 200.039276 144.209448 
L 201.683802 180.490688 
L 201.918734 181.151235 
L 203.093395 172.167689 
L 203.328327 176.451937 
L 203.56326 168.876398 
L 203.798192 161.859453 
L 204.502989 167.553368 
L 204.737921 171.2868 
L 205.207785 167.015602 
L 205.67765 168.922832 
L 206.147514 156.615005 
L 206.617379 146.563571 
L 207.087243 164.726677 
L 207.79204 136.016748 
L 208.261905 144.130522 
L 208.496837 144.838817 
L 208.731769 143.250639 
L 208.966701 138.035028 
L 209.436566 144.500247 
L 209.671498 144.785292 
L 209.90643 139.471368 
L 210.376295 139.959898 
L 211.550956 181.961209 
L 212.725617 160.206523 
L 213.900278 181.542268 
L 214.135211 165.168759 
L 214.840007 168.736885 
L 215.309872 180.525383 
L 215.544804 178.041571 
L 216.249601 155.87954 
L 216.484533 156.999397 
L 217.424262 170.068107 
L 217.659194 167.65302 
L 218.129059 178.818545 
L 218.363991 171.901304 
L 219.30372 144.309924 
L 220.243449 145.128951 
L 220.713313 136.84054 
L 221.887975 162.493182 
L 222.122907 160.256655 
L 222.592771 133.076854 
L 223.297568 143.375461 
L 224.002365 124.275181 
L 224.472229 130.258434 
L 224.707162 148.972058 
L 225.411958 134.274675 
L 226.821552 117.27503 
L 227.056484 118.127754 
L 228.466078 160.916878 
L 228.935942 145.182651 
L 229.640739 153.29615 
L 229.875671 153.960592 
L 230.110603 147.663464 
L 230.8154 154.269921 
L 231.285264 143.753262 
L 232.694858 109.714956 
L 234.574316 151.831754 
L 235.514045 126.948876 
L 235.748977 130.275768 
L 235.983909 130.366888 
L 236.923638 157.851928 
L 237.393503 149.001954 
L 237.628435 142.172276 
L 238.0983 148.935397 
L 239.507893 182.657431 
L 240.447622 173.349537 
L 240.682554 176.972912 
L 241.152419 180.791374 
L 241.387351 178.053692 
L 241.622283 175.965411 
L 241.857215 164.831444 
L 242.562012 167.890944 
L 242.796944 171.753391 
L 243.266809 170.422441 
L 244.206538 160.57932 
L 245.381199 180.827268 
L 245.616131 181.205859 
L 246.55586 181.620349 
L 246.790793 161.352561 
L 247.965454 140.06117 
L 248.905183 159.110279 
L 249.140115 158.376089 
L 249.844912 144.965797 
L 250.079844 147.596835 
L 250.314776 155.36779 
L 250.784641 146.873549 
L 251.019573 149.053171 
L 251.254505 149.222498 
L 251.72437 150.254595 
L 252.429166 140.326485 
L 252.664099 148.666827 
L 253.133963 134.376237 
L 253.368895 132.021971 
L 254.073692 104.873678 
L 254.543557 112.29229 
L 256.188082 144.817892 
L 256.423015 139.535997 
L 257.362744 127.595332 
L 257.597676 132.915461 
L 259.007269 149.675141 
L 258.06754 131.808453 
L 259.242202 145.890402 
L 259.712066 143.163921 
L 259.946998 132.404785 
L 260.416863 151.869726 
L 261.12166 168.71082 
L 261.591524 163.277104 
L 261.826456 161.331603 
L 262.766185 179.89942 
L 263.23605 172.797396 
L 263.470982 177.629543 
L 263.940846 168.260142 
L 264.175779 173.489258 
L 264.410711 159.6766 
L 264.880575 178.520179 
L 265.115508 175.412069 
L 265.35044 166.794986 
L 265.820304 169.226674 
L 266.290169 181.8566 
L 266.760033 172.833509 
L 267.229898 176.040088 
L 269.814153 109.244737 
L 270.049085 109.07271 
L 270.284017 118.717828 
L 270.988814 112.797016 
L 271.223746 114.281315 
L 271.693611 100.03045 
L 272.398407 106.713464 
L 273.338136 90.964514 
L 273.573068 95.219829 
L 274.277865 120.134442 
L 274.982662 111.411543 
L 275.922391 100.377523 
L 276.392255 106.646962 
L 278.036781 176.022311 
L 278.271713 174.254824 
L 278.506646 182.235192 
L 279.211442 175.172883 
L 279.446375 172.283951 
L 279.916239 177.653063 
L 280.151171 179.421896 
L 281.325833 170.817901 
L 281.560765 174.916104 
L 281.795697 170.904081 
L 282.500494 162.676118 
L 282.970358 163.332672 
L 284.145019 176.570364 
L 284.379952 172.804238 
L 284.614884 172.965132 
L 285.084748 182.214423 
L 285.554613 172.793717 
L 286.024477 179.52264 
L 286.964206 155.469954 
L 287.199139 156.702254 
L 287.903935 153.010731 
L 288.3738 170.509179 
L 288.843664 182.811192 
L 289.548461 180.420873 
L 290.018326 180.843715 
L 290.253258 176.752134 
L 291.662851 140.359645 
L 291.897784 133.779045 
L 292.367648 138.515479 
L 294.012174 181.709954 
L 294.482038 182.640052 
L 295.421767 174.745272 
L 296.126564 181.823118 
L 297.301225 162.815566 
L 298.006022 177.36968 
L 298.475886 175.30193 
L 300.355344 141.953934 
L 301.060141 167.452584 
L 301.295073 154.248486 
L 302.704667 119.827971 
L 304.349192 96.01007 
L 304.584125 96.667936 
L 304.819057 92.095262 
L 305.053989 103.306628 
L 305.288921 96.645066 
L 306.933447 136.931563 
L 307.403312 125.744871 
L 308.577973 112.92858 
L 309.987566 123.935119 
L 310.222499 123.539217 
L 310.457431 126.655396 
L 310.692363 122.788997 
L 310.927295 126.342485 
L 311.162228 115.016961 
L 311.632092 129.263156 
L 311.867024 127.879438 
L 312.101957 127.806268 
L 313.746482 148.674586 
L 313.981414 141.205742 
L 314.686211 150.030866 
L 315.156076 145.165245 
L 316.095805 144.882944 
L 316.330737 154.000562 
L 316.565669 153.931148 
L 317.270466 163.338731 
L 318.210195 172.224345 
L 319.619788 154.129686 
L 319.854721 156.984678 
L 321.264314 182.434578 
L 321.969111 167.360227 
L 322.673908 170.092615 
L 323.143772 177.299792 
L 323.378704 170.803272 
L 323.613637 163.479988 
L 324.083501 171.346739 
L 324.318433 182.63904 
L 324.788298 173.454949 
L 325.728027 163.509327 
L 326.197891 177.796785 
L 326.667756 165.661119 
L 327.13762 148.127601 
L 327.607485 151.19578 
L 329.017078 182.791475 
L 329.25201 174.698993 
L 330.191739 176.064094 
L 330.426672 176.194718 
L 330.661604 182.770186 
L 331.131468 173.160333 
L 331.366401 173.965391 
L 331.601333 182.007681 
L 332.071197 173.346565 
L 332.775994 155.904781 
L 333.245859 161.336456 
L 333.480791 173.580086 
L 334.42052 172.331641 
L 334.655452 179.402587 
L 334.890384 164.391136 
L 335.125316 169.700774 
L 335.360249 168.35165 
L 335.830113 176.361887 
L 336.299978 167.151218 
L 336.53491 150.064577 
L 337.239707 167.67299 
L 337.709571 158.995527 
L 337.944503 167.885325 
L 338.6493 180.32795 
L 339.589029 177.264761 
L 339.823961 169.294428 
L 340.293826 178.577041 
L 340.528758 177.516489 
L 340.998623 180.575137 
L 341.468487 165.551585 
L 342.408216 181.188302 
L 343.347945 182.587224 
L 343.582877 163.246725 
L 344.287674 182.711024 
L 344.757538 181.960094 
L 345.9322 166.86655 
L 346.167132 170.538641 
L 346.402064 162.286386 
L 347.106861 170.366547 
L 348.516454 146.022996 
L 347.576725 174.554569 
L 348.751387 149.60064 
L 348.986319 156.588322 
L 349.456183 145.538946 
L 349.691116 141.732003 
L 349.926048 150.513946 
L 350.16098 154.961175 
L 350.395912 154.92688 
L 350.865777 141.225003 
L 351.335641 146.674989 
L 353.215099 169.330331 
L 353.684964 162.008849 
L 354.389761 151.603938 
L 354.624693 154.318347 
L 355.094557 171.23382 
L 355.564422 155.07707 
L 355.799354 139.215569 
L 356.269218 157.756841 
L 357.678812 179.076374 
L 357.913744 175.216954 
L 358.148676 162.775339 
L 358.618541 179.937089 
L 358.853473 182.822854 
L 360.028134 160.114734 
L 360.263067 160.426116 
L 361.202796 182.649352 
L 361.437728 179.718265 
L 361.907592 181.419733 
L 362.612389 170.75284 
L 363.082254 172.529837 
L 363.78705 169.377561 
L 364.491847 182.061351 
L 364.961712 172.791358 
L 365.666508 157.554814 
L 365.90144 164.327752 
L 366.371305 160.165856 
L 367.076102 175.410775 
L 367.780898 162.152914 
L 368.485695 165.161575 
L 368.95556 180.466467 
L 369.190492 170.937257 
L 370.130221 157.216387 
L 370.365153 163.95799 
L 371.06995 169.909826 
L 371.304882 169.535389 
L 371.539814 177.800777 
L 372.009679 160.812203 
L 373.18434 142.779199 
L 373.889137 132.263884 
L 374.124069 141.060111 
L 376.238459 181.567134 
L 376.473391 180.969983 
L 377.648053 151.496439 
L 377.882985 156.047784 
L 378.117917 149.924382 
L 378.587782 132.72343 
L 378.822714 134.18775 
L 379.527511 170.436507 
L 379.997375 163.048895 
L 380.232307 162.45203 
L 380.46724 166.897994 
L 380.937104 158.376388 
L 381.876833 140.009882 
L 382.346698 127.109025 
L 382.58163 138.771467 
L 383.521359 165.819443 
L 384.226156 156.744224 
L 384.461088 156.039686 
L 385.870681 179.841805 
L 386.105613 177.521643 
L 386.81041 159.089989 
L 387.045342 159.372427 
L 388.454936 182.6891 
L 388.9248 164.873144 
L 389.629597 172.817026 
L 389.864529 171.107447 
L 391.039191 182.257251 
L 392.213852 163.716686 
L 392.448784 142.323978 
L 393.153581 150.612995 
L 393.388513 152.319366 
L 393.858378 149.912731 
L 394.563174 138.938524 
L 394.798107 149.939967 
L 395.502903 133.185598 
L 395.737836 116.894238 
L 396.442632 137.070683 
L 396.912497 145.310472 
L 397.382361 138.274883 
L 397.852226 121.811112 
L 398.557022 128.841202 
L 398.791955 129.496576 
L 399.026887 128.910717 
L 400.43648 98.908821 
L 400.906345 102.48225 
L 401.846074 137.446104 
L 402.550871 136.932399 
L 402.785803 135.511486 
L 404.195396 166.846684 
L 404.665261 160.177983 
L 404.900193 169.127648 
L 405.135125 170.502268 
L 405.370058 166.517255 
L 406.074854 152.072319 
L 406.779651 136.71218 
L 407.014583 140.541789 
L 407.954312 157.487879 
L 408.189244 145.505472 
L 408.894041 151.110188 
L 409.128973 156.054643 
L 409.598838 145.021077 
L 409.83377 136.175029 
L 410.303635 149.160338 
L 410.538567 153.733747 
L 411.008431 144.040301 
L 412.418025 124.008636 
L 412.652957 125.723263 
L 413.122822 121.961637 
L 413.357754 120.256366 
L 414.532415 107.027182 
L 415.237212 126.724855 
L 415.942009 125.177084 
L 416.646805 110.69769 
L 417.11667 118.087022 
L 417.351602 130.145115 
L 417.821466 115.995647 
L 418.056399 121.550657 
L 418.291331 119.476592 
L 419.465992 138.331998 
L 420.405721 147.115758 
L 421.110518 127.693083 
L 421.34545 144.284775 
L 422.285179 163.659269 
L 422.755044 159.081784 
L 423.45984 140.594701 
L 423.929705 140.689221 
L 426.279027 182.729418 
L 427.218756 179.797658 
L 427.688621 180.985685 
L 427.923553 168.720525 
L 428.158485 182.905811 
L 428.62835 169.487546 
L 428.863282 164.606043 
L 429.333146 175.173767 
L 429.568079 167.016703 
L 430.272875 171.227029 
L 430.74274 149.223804 
L 431.447537 151.686593 
L 431.917401 154.906364 
L 433.326995 127.518003 
L 434.266724 138.163524 
L 435.676317 100.835696 
L 436.850978 126.82064 
L 437.085911 118.137863 
L 437.320843 107.038852 
L 437.555775 118.199957 
L 437.790707 115.739365 
L 438.730436 114.671245 
L 439.905097 153.825882 
L 440.14003 159.210095 
L 440.374962 153.488915 
L 441.079759 141.979119 
L 441.314691 160.722994 
L 442.019488 148.151057 
L 442.489352 145.630137 
L 443.898946 178.079498 
L 444.36881 182.707053 
L 445.073607 168.330569 
L 445.778404 182.802577 
L 446.953065 180.875463 
L 450.007184 129.130896 
L 451.65171 179.871159 
L 452.356506 182.202563 
L 452.826371 170.422232 
L 453.296235 182.242122 
L 453.531168 167.009367 
L 454.001032 159.354909 
L 454.235964 151.559444 
L 454.705829 153.346318 
L 455.645558 177.86543 
L 456.115422 176.359822 
L 456.350355 170.724916 
L 456.820219 179.892424 
L 457.055151 182.1143 
L 457.290084 179.40814 
L 457.525016 180.183749 
L 458.464745 173.204607 
L 458.699677 175.576813 
L 459.639406 182.836179 
L 460.814067 153.155347 
L 461.283932 158.579547 
L 461.518864 169.810624 
L 461.988728 156.582525 
L 462.223661 159.006975 
L 462.458593 163.579307 
L 462.693525 159.707019 
L 464.103119 140.708486 
L 464.338051 147.452662 
L 464.572983 142.794501 
L 464.807915 130.634855 
L 465.512712 142.193646 
L 466.922306 169.916403 
L 467.157238 165.834225 
L 467.39217 176.006737 
L 467.627102 172.592062 
L 467.862035 175.467496 
L 468.096967 156.237816 
L 468.801763 175.401655 
L 469.036696 181.506069 
L 469.271628 172.566762 
L 469.50656 172.672079 
L 470.211357 171.670774 
L 470.446289 174.183418 
L 470.681221 163.036817 
L 471.386018 175.684949 
L 471.62095 182.373365 
L 472.325747 175.585725 
L 472.560679 174.382931 
L 472.795612 178.335442 
L 473.030544 179.6381 
L 474.910002 104.041918 
L 475.144934 109.758966 
L 475.379866 101.068811 
L 475.849731 103.462241 
L 477.494257 66.407047 
L 477.729189 50.850377 
L 478.433986 68.584397 
L 478.668918 68.021982 
L 480.078511 38.633096 
L 481.253172 59.052226 
L 481.488105 54.468321 
L 481.723037 50.726948 
L 481.957969 54.345777 
L 485.012088 142.774986 
L 485.247021 136.266602 
L 485.481953 132.532536 
L 485.716885 140.668136 
L 487.126479 158.205162 
L 486.18675 137.43001 
L 487.361411 157.555035 
L 488.066208 159.769289 
L 488.536072 143.642922 
L 489.945665 159.245327 
L 490.885394 144.307878 
L 491.355259 155.410233 
L 492.060056 152.839144 
L 492.52992 162.757014 
L 493.704581 182.43947 
L 494.879243 169.423565 
L 495.349107 176.053179 
L 496.523768 182.04252 
L 497.228565 164.370731 
L 497.69843 173.546224 
L 498.168294 177.713377 
L 498.403226 166.093082 
L 499.108023 168.806212 
L 499.342955 170.450965 
L 500.517616 182.578962 
L 501.457345 161.373854 
L 502.397074 171.356298 
L 502.866939 181.835803 
L 503.336803 181.178911 
L 504.511465 161.662361 
L 504.746397 163.343027 
L 505.451194 179.811268 
L 506.390923 172.486995 
L 508.035448 141.258779 
L 508.270381 140.23708 
L 508.505313 142.481094 
L 508.975177 137.258181 
L 509.21011 145.544945 
L 510.384771 110.680282 
L 510.854635 119.663368 
L 511.559432 138.580448 
L 512.499161 177.898715 
L 513.43889 169.49411 
L 513.673822 159.365908 
L 514.143687 166.047974 
L 514.848483 181.213476 
L 515.318348 174.607451 
L 515.55328 176.71685 
L 515.788212 173.7423 
L 517.66767 142.288852 
L 517.902603 143.486171 
L 519.547128 168.112171 
L 520.956722 150.44934 
L 521.191654 151.972248 
L 522.131383 174.925078 
L 522.366315 167.110779 
L 522.601247 166.515307 
L 522.83618 168.339525 
L 523.306044 182.891258 
L 524.010841 181.79582 
L 525.655367 151.2111 
L 528.239621 182.086421 
L 528.709486 177.957664 
L 528.944418 177.208052 
L 529.17935 179.601538 
L 529.414283 179.841099 
L 530.119079 157.570014 
L 530.588944 165.714056 
L 531.058808 175.203217 
L 531.528673 164.113827 
L 531.763605 160.337836 
L 531.998537 161.021348 
L 532.233469 176.508624 
L 532.703334 144.332724 
L 532.938266 145.238168 
L 533.173198 142.757052 
L 534.112927 113.621066 
L 534.582792 130.446305 
L 534.817724 128.219933 
L 535.052656 132.635706 
L 535.757453 144.218945 
L 536.227318 141.788578 
L 537.401979 160.522024 
L 537.636911 155.129591 
L 538.106776 152.585908 
L 538.106776 152.585908 
" clip-path="url(#p5e9c23c734)" style="fill: none; stroke: #e41a1c; stroke-width: 2; stroke-linecap: square"/>
   </g>
   <g id="patch_3">
    <path d="M 44.749063 190.557969 
L 44.749063 22.318125 
" style="fill: none; stroke: #7f7f7f; stroke-width: 1.8; stroke-linejoin: miter; stroke-linecap: square"/>
   </g>
   <g id="patch_4">
    <path d="M 44.749063 190.557969 
L 561.6 190.557969 
" style="fill: none; stroke: #7f7f7f; stroke-width: 1.8; stroke-linejoin: miter; stroke-linecap: square"/>
   </g>
   <g id="text_15">
    <!-- Kalman Filter Estimation Error -->
    <g style="fill: #7f7f7f" transform="translate(200.161094 16.318125) scale(0.12 -0.12)">
     <defs>
      <path id="DejaVuSans-Bold-4b" d="M 588 4666 
L 1791 4666 
L 1791 2963 
L 3525 4666 
L 4922 4666 
L 2675 2456 
L 5153 0 
L 3647 0 
L 1791 1838 
L 1791 0 
L 588 0 
L 588 4666 
z
" transform="scale(0.015625)"/>
      <path id="DejaVuSans-Bold-61" d="M 2106 1575 
Q 1756 1575 1579 1456 
Q 1403 1338 1403 1106 
Q 1403 894 1545 773 
Q 1688 653 1941 653 
Q 2256 653 2472 879 
Q 2688 1106 2688 1447 
L 2688 1575 
L 2106 1575 
z
M 3816 1997 
L 3816 0 
L 2688 0 
L 2688 519 
Q 2463 200 2181 54 
Q 1900 -91 1497 -91 
Q 953 -91 614 226 
Q 275 544 275 1050 
Q 275 1666 698 1953 
Q 1122 2241 2028 2241 
L 2688 2241 
L 2688 2328 
Q 2688 2594 2478 2717 
Q 2269 2841 1825 2841 
Q 1466 2841 1156 2769 
Q 847 2697 581 2553 
L 581 3406 
Q 941 3494 1303 3539 
Q 1666 3584 2028 3584 
Q 2975 3584 3395 3211 
Q 3816 2838 3816 1997 
z
" transform="scale(0.015625)"/>
      <path id="DejaVuSans-Bold-6c" d="M 538 4863 
L 1656 4863 
L 1656 0 
L 538 0 
L 538 4863 
z
" transform="scale(0.015625)"/>
      <path id="DejaVuSans-Bold-6d" d="M 3781 2919 
Q 3994 3244 4286 3414 
Q 4578 3584 4928 3584 
Q 5531 3584 5847 3212 
Q 6163 2841 6163 2131 
L 6163 0 
L 5038 0 
L 5038 1825 
Q 5041 1866 5042 1909 
Q 5044 1953 5044 2034 
Q 5044 2406 4934 2573 
Q 4825 2741 4581 2741 
Q 4263 2741 4089 2478 
Q 3916 2216 3909 1719 
L 3909 0 
L 2784 0 
L 2784 1825 
Q 2784 2406 2684 2573 
Q 2584 2741 2328 2741 
Q 2006 2741 1831 2477 
Q 1656 2213 1656 1722 
L 1656 0 
L 531 0 
L 531 3500 
L 1656 3500 
L 1656 2988 
Q 1863 3284 2130 3434 
Q 2397 3584 2719 3584 
Q 3081 3584 3359 3409 
Q 3638 3234 3781 2919 
z
" transform="scale(0.015625)"/>
      <path id="DejaVuSans-Bold-6e" d="M 4056 2131 
L 4056 0 
L 2931 0 
L 2931 347 
L 2931 1631 
Q 2931 2084 2911 2256 
Q 2891 2428 2841 2509 
Q 2775 2619 2662 2680 
Q 2550 2741 2406 2741 
Q 2056 2741 1856 2470 
Q 1656 2200 1656 1722 
L 1656 0 
L 538 0 
L 538 3500 
L 1656 3500 
L 1656 2988 
Q 1909 3294 2193 3439 
Q 2478 3584 2822 3584 
Q 3428 3584 3742 3212 
Q 4056 2841 4056 2131 
z
" transform="scale(0.015625)"/>
      <path id="DejaVuSans-Bold-20" transform="scale(0.015625)"/>
      <path id="DejaVuSans-Bold-46" d="M 588 4666 
L 3834 4666 
L 3834 3756 
L 1791 3756 
L 1791 2888 
L 3713 2888 
L 3713 1978 
L 1791 1978 
L 1791 0 
L 588 0 
L 588 4666 
z
" transform="scale(0.015625)"/>
      <path id="DejaVuSans-Bold-69" d="M 538 3500 
L 1656 3500 
L 1656 0 
L 538 0 
L 538 3500 
z
M 538 4863 
L 1656 4863 
L 1656 3950 
L 538 3950 
L 538 4863 
z
" transform="scale(0.015625)"/>
      <path id="DejaVuSans-Bold-74" d="M 1759 4494 
L 1759 3500 
L 2913 3500 
L 2913 2700 
L 1759 2700 
L 1759 1216 
Q 1759 972 1856 886 
Q 1953 800 2241 800 
L 2816 800 
L 2816 0 
L 1856 0 
Q 1194 0 917 276 
Q 641 553 641 1216 
L 641 2700 
L 84 2700 
L 84 3500 
L 641 3500 
L 641 4494 
L 1759 4494 
z
" transform="scale(0.015625)"/>
      <path id="DejaVuSans-Bold-65" d="M 4031 1759 
L 4031 1441 
L 1416 1441 
Q 1456 1047 1700 850 
Q 1944 653 2381 653 
Q 2734 653 3104 758 
Q 3475 863 3866 1075 
L 3866 213 
Q 3469 63 3072 -14 
Q 2675 -91 2278 -91 
Q 1328 -91 801 392 
Q 275 875 275 1747 
Q 275 2603 792 3093 
Q 1309 3584 2216 3584 
Q 3041 3584 3536 3087 
Q 4031 2591 4031 1759 
z
M 2881 2131 
Q 2881 2450 2695 2645 
Q 2509 2841 2209 2841 
Q 1884 2841 1681 2658 
Q 1478 2475 1428 2131 
L 2881 2131 
z
" transform="scale(0.015625)"/>
      <path id="DejaVuSans-Bold-72" d="M 3138 2547 
Q 2991 2616 2845 2648 
Q 2700 2681 2553 2681 
Q 2122 2681 1889 2404 
Q 1656 2128 1656 1613 
L 1656 0 
L 538 0 
L 538 3500 
L 1656 3500 
L 1656 2925 
Q 1872 3269 2151 3426 
Q 2431 3584 2822 3584 
Q 2878 3584 2943 3579 
Q 3009 3575 3134 3559 
L 3138 2547 
z
" transform="scale(0.015625)"/>
      <path id="DejaVuSans-Bold-45" d="M 588 4666 
L 3834 4666 
L 3834 3756 
L 1791 3756 
L 1791 2888 
L 3713 2888 
L 3713 1978 
L 1791 1978 
L 1791 909 
L 3903 909 
L 3903 0 
L 588 0 
L 588 4666 
z
" transform="scale(0.015625)"/>
      <path id="DejaVuSans-Bold-73" d="M 3272 3391 
L 3272 2541 
Q 2913 2691 2578 2766 
Q 2244 2841 1947 2841 
Q 1628 2841 1473 2761 
Q 1319 2681 1319 2516 
Q 1319 2381 1436 2309 
Q 1553 2238 1856 2203 
L 2053 2175 
Q 2913 2066 3209 1816 
Q 3506 1566 3506 1031 
Q 3506 472 3093 190 
Q 2681 -91 1863 -91 
Q 1516 -91 1145 -36 
Q 775 19 384 128 
L 384 978 
Q 719 816 1070 734 
Q 1422 653 1784 653 
Q 2113 653 2278 743 
Q 2444 834 2444 1013 
Q 2444 1163 2330 1236 
Q 2216 1309 1875 1350 
L 1678 1375 
Q 931 1469 631 1722 
Q 331 1975 331 2491 
Q 331 3047 712 3315 
Q 1094 3584 1881 3584 
Q 2191 3584 2531 3537 
Q 2872 3491 3272 3391 
z
" transform="scale(0.015625)"/>
      <path id="DejaVuSans-Bold-6f" d="M 2203 2784 
Q 1831 2784 1636 2517 
Q 1441 2250 1441 1747 
Q 1441 1244 1636 976 
Q 1831 709 2203 709 
Q 2569 709 2762 976 
Q 2956 1244 2956 1747 
Q 2956 2250 2762 2517 
Q 2569 2784 2203 2784 
z
M 2203 3584 
Q 3106 3584 3614 3096 
Q 4122 2609 4122 1747 
Q 4122 884 3614 396 
Q 3106 -91 2203 -91 
Q 1297 -91 786 396 
Q 275 884 275 1747 
Q 275 2609 786 3096 
Q 1297 3584 2203 3584 
z
" transform="scale(0.015625)"/>
     </defs>
     <use xlink:href="#DejaVuSans-Bold-4b"/>
     <use xlink:href="#DejaVuSans-Bold-61" transform="translate(77.490234 0)"/>
     <use xlink:href="#DejaVuSans-Bold-6c" transform="translate(144.970703 0)"/>
     <use xlink:href="#DejaVuSans-Bold-6d" transform="translate(179.248047 0)"/>
     <use xlink:href="#DejaVuSans-Bold-61" transform="translate(283.447266 0)"/>
     <use xlink:href="#DejaVuSans-Bold-6e" transform="translate(350.927734 0)"/>
     <use xlink:href="#DejaVuSans-Bold-20" transform="translate(422.119141 0)"/>
     <use xlink:href="#DejaVuSans-Bold-46" transform="translate(456.933594 0)"/>
     <use xlink:href="#DejaVuSans-Bold-69" transform="translate(525.244141 0)"/>
     <use xlink:href="#DejaVuSans-Bold-6c" transform="translate(559.521484 0)"/>
     <use xlink:href="#DejaVuSans-Bold-74" transform="translate(593.798828 0)"/>
     <use xlink:href="#DejaVuSans-Bold-65" transform="translate(641.601562 0)"/>
     <use xlink:href="#DejaVuSans-Bold-72" transform="translate(709.423828 0)"/>
     <use xlink:href="#DejaVuSans-Bold-20" transform="translate(758.740234 0)"/>
     <use xlink:href="#DejaVuSans-Bold-45" transform="translate(793.554688 0)"/>
     <use xlink:href="#DejaVuSans-Bold-73" transform="translate(861.865234 0)"/>
     <use xlink:href="#DejaVuSans-Bold-74" transform="translate(921.386719 0)"/>
     <use xlink:href="#DejaVuSans-Bold-69" transform="translate(969.189453 0)"/>
     <use xlink:href="#DejaVuSans-Bold-6d" transform="translate(1003.466797 0)"/>
     <use xlink:href="#DejaVuSans-Bold-61" transform="translate(1107.666016 0)"/>
     <use xlink:href="#DejaVuSans-Bold-74" transform="translate(1175.146484 0)"/>
     <use xlink:href="#DejaVuSans-Bold-69" transform="translate(1222.949219 0)"/>
     <use xlink:href="#DejaVuSans-Bold-6f" transform="translate(1257.226562 0)"/>
     <use xlink:href="#DejaVuSans-Bold-6e" transform="translate(1325.927734 0)"/>
     <use xlink:href="#DejaVuSans-Bold-20" transform="translate(1397.119141 0)"/>
     <use xlink:href="#DejaVuSans-Bold-45" transform="translate(1431.933594 0)"/>
     <use xlink:href="#DejaVuSans-Bold-72" transform="translate(1500.244141 0)"/>
     <use xlink:href="#DejaVuSans-Bold-72" transform="translate(1549.560547 0)"/>
     <use xlink:href="#DejaVuSans-Bold-6f" transform="translate(1598.876953 0)"/>
     <use xlink:href="#DejaVuSans-Bold-72" transform="translate(1667.578125 0)"/>
    </g>
   </g>
  </g>
  <g id="axes_2">
   <g id="patch_5">
    <path d="M 44.749063 386.275937 
L 561.6 386.275937 
L 561.6 218.036094 
L 44.749063 218.036094 
L 44.749063 386.275937 
z
" style="fill: none"/>
   </g>
   <g id="matplotlib.axis_3">
    <g id="xtick_10">
     <g id="line2d_15">
      <g>
       <use xlink:href="#m40c471bb3a" x="68.242287" y="386.275937" style="fill: #7f7f7f; stroke: #7f7f7f; stroke-width: 1.8"/>
      </g>
     </g>
     <g id="text_16">
      <!-- 0.0 -->
      <g style="fill: #7f7f7f" transform="translate(60.290724 400.874375) scale(0.1 -0.1)">
       <use xlink:href="#DejaVuSans-30"/>
       <use xlink:href="#DejaVuSans-2e" transform="translate(63.623047 0)"/>
       <use xlink:href="#DejaVuSans-30" transform="translate(95.410156 0)"/>
      </g>
     </g>
    </g>
    <g id="xtick_11">
     <g id="line2d_16">
      <g>
       <use xlink:href="#m40c471bb3a" x="126.975348" y="386.275937" style="fill: #7f7f7f; stroke: #7f7f7f; stroke-width: 1.8"/>
      </g>
     </g>
     <g id="text_17">
      <!-- 2.5 -->
      <g style="fill: #7f7f7f" transform="translate(119.023786 400.874375) scale(0.1 -0.1)">
       <use xlink:href="#DejaVuSans-32"/>
       <use xlink:href="#DejaVuSans-2e" transform="translate(63.623047 0)"/>
       <use xlink:href="#DejaVuSans-35" transform="translate(95.410156 0)"/>
      </g>
     </g>
    </g>
    <g id="xtick_12">
     <g id="line2d_17">
      <g>
       <use xlink:href="#m40c471bb3a" x="185.708409" y="386.275937" style="fill: #7f7f7f; stroke: #7f7f7f; stroke-width: 1.8"/>
      </g>
     </g>
     <g id="text_18">
      <!-- 5.0 -->
      <g style="fill: #7f7f7f" transform="translate(177.756847 400.874375) scale(0.1 -0.1)">
       <use xlink:href="#DejaVuSans-35"/>
       <use xlink:href="#DejaVuSans-2e" transform="translate(63.623047 0)"/>
       <use xlink:href="#DejaVuSans-30" transform="translate(95.410156 0)"/>
      </g>
     </g>
    </g>
    <g id="xtick_13">
     <g id="line2d_18">
      <g>
       <use xlink:href="#m40c471bb3a" x="244.44147" y="386.275937" style="fill: #7f7f7f; stroke: #7f7f7f; stroke-width: 1.8"/>
      </g>
     </g>
     <g id="text_19">
      <!-- 7.5 -->
      <g style="fill: #7f7f7f" transform="translate(236.489908 400.874375) scale(0.1 -0.1)">
       <use xlink:href="#DejaVuSans-37"/>
       <use xlink:href="#DejaVuSans-2e" transform="translate(63.623047 0)"/>
       <use xlink:href="#DejaVuSans-35" transform="translate(95.410156 0)"/>
      </g>
     </g>
    </g>
    <g id="xtick_14">
     <g id="line2d_19">
      <g>
       <use xlink:href="#m40c471bb3a" x="303.174531" y="386.275937" style="fill: #7f7f7f; stroke: #7f7f7f; stroke-width: 1.8"/>
      </g>
     </g>
     <g id="text_20">
      <!-- 10.0 -->
      <g style="fill: #7f7f7f" transform="translate(292.041719 400.874375) scale(0.1 -0.1)">
       <use xlink:href="#DejaVuSans-31"/>
       <use xlink:href="#DejaVuSans-30" transform="translate(63.623047 0)"/>
       <use xlink:href="#DejaVuSans-2e" transform="translate(127.246094 0)"/>
       <use xlink:href="#DejaVuSans-30" transform="translate(159.033203 0)"/>
      </g>
     </g>
    </g>
    <g id="xtick_15">
     <g id="line2d_20">
      <g>
       <use xlink:href="#m40c471bb3a" x="361.907592" y="386.275937" style="fill: #7f7f7f; stroke: #7f7f7f; stroke-width: 1.8"/>
      </g>
     </g>
     <g id="text_21">
      <!-- 12.5 -->
      <g style="fill: #7f7f7f" transform="translate(350.77478 400.874375) scale(0.1 -0.1)">
       <use xlink:href="#DejaVuSans-31"/>
       <use xlink:href="#DejaVuSans-32" transform="translate(63.623047 0)"/>
       <use xlink:href="#DejaVuSans-2e" transform="translate(127.246094 0)"/>
       <use xlink:href="#DejaVuSans-35" transform="translate(159.033203 0)"/>
      </g>
     </g>
    </g>
    <g id="xtick_16">
     <g id="line2d_21">
      <g>
       <use xlink:href="#m40c471bb3a" x="420.640653" y="386.275937" style="fill: #7f7f7f; stroke: #7f7f7f; stroke-width: 1.8"/>
      </g>
     </g>
     <g id="text_22">
      <!-- 15.0 -->
      <g style="fill: #7f7f7f" transform="translate(409.507841 400.874375) scale(0.1 -0.1)">
       <use xlink:href="#DejaVuSans-31"/>
       <use xlink:href="#DejaVuSans-35" transform="translate(63.623047 0)"/>
       <use xlink:href="#DejaVuSans-2e" transform="translate(127.246094 0)"/>
       <use xlink:href="#DejaVuSans-30" transform="translate(159.033203 0)"/>
      </g>
     </g>
    </g>
    <g id="xtick_17">
     <g id="line2d_22">
      <g>
       <use xlink:href="#m40c471bb3a" x="479.373714" y="386.275937" style="fill: #7f7f7f; stroke: #7f7f7f; stroke-width: 1.8"/>
      </g>
     </g>
     <g id="text_23">
      <!-- 17.5 -->
      <g style="fill: #7f7f7f" transform="translate(468.240902 400.874375) scale(0.1 -0.1)">
       <use xlink:href="#DejaVuSans-31"/>
       <use xlink:href="#DejaVuSans-37" transform="translate(63.623047 0)"/>
       <use xlink:href="#DejaVuSans-2e" transform="translate(127.246094 0)"/>
       <use xlink:href="#DejaVuSans-35" transform="translate(159.033203 0)"/>
      </g>
     </g>
    </g>
    <g id="xtick_18">
     <g id="line2d_23">
      <g>
       <use xlink:href="#m40c471bb3a" x="538.106776" y="386.275937" style="fill: #7f7f7f; stroke: #7f7f7f; stroke-width: 1.8"/>
      </g>
     </g>
     <g id="text_24">
      <!-- 20.0 -->
      <g style="fill: #7f7f7f" transform="translate(526.973963 400.874375) scale(0.1 -0.1)">
       <use xlink:href="#DejaVuSans-32"/>
       <use xlink:href="#DejaVuSans-30" transform="translate(63.623047 0)"/>
       <use xlink:href="#DejaVuSans-2e" transform="translate(127.246094 0)"/>
       <use xlink:href="#DejaVuSans-30" transform="translate(159.033203 0)"/>
      </g>
     </g>
    </g>
    <g id="text_25">
     <!-- Time [s] -->
     <g style="fill: #7f7f7f" transform="translate(280.812734 415.312344) scale(0.11 -0.11)">
      <defs>
       <path id="DejaVuSans-54" d="M -19 4666 
L 3928 4666 
L 3928 4134 
L 2272 4134 
L 2272 0 
L 1638 0 
L 1638 4134 
L -19 4134 
L -19 4666 
z
" transform="scale(0.015625)"/>
       <path id="DejaVuSans-65" d="M 3597 1894 
L 3597 1613 
L 953 1613 
Q 991 1019 1311 708 
Q 1631 397 2203 397 
Q 2534 397 2845 478 
Q 3156 559 3463 722 
L 3463 178 
Q 3153 47 2828 -22 
Q 2503 -91 2169 -91 
Q 1331 -91 842 396 
Q 353 884 353 1716 
Q 353 2575 817 3079 
Q 1281 3584 2069 3584 
Q 2775 3584 3186 3129 
Q 3597 2675 3597 1894 
z
M 3022 2063 
Q 3016 2534 2758 2815 
Q 2500 3097 2075 3097 
Q 1594 3097 1305 2825 
Q 1016 2553 972 2059 
L 3022 2063 
z
" transform="scale(0.015625)"/>
      </defs>
      <use xlink:href="#DejaVuSans-54"/>
      <use xlink:href="#DejaVuSans-69" transform="translate(57.958984 0)"/>
      <use xlink:href="#DejaVuSans-6d" transform="translate(85.742188 0)"/>
      <use xlink:href="#DejaVuSans-65" transform="translate(183.154297 0)"/>
      <use xlink:href="#DejaVuSans-20" transform="translate(244.677734 0)"/>
      <use xlink:href="#DejaVuSans-5b" transform="translate(276.464844 0)"/>
      <use xlink:href="#DejaVuSans-73" transform="translate(315.478516 0)"/>
      <use xlink:href="#DejaVuSans-5d" transform="translate(367.578125 0)"/>
     </g>
    </g>
   </g>
   <g id="matplotlib.axis_4">
    <g id="ytick_5">
     <g id="line2d_24">
      <g>
       <use xlink:href="#m775ae7f6d8" x="44.749063" y="378.632142" style="fill: #7f7f7f; stroke: #7f7f7f; stroke-width: 1.8"/>
      </g>
     </g>
     <g id="text_26">
      <!-- 0.0 -->
      <g style="fill: #7f7f7f" transform="translate(21.845938 382.431361) scale(0.1 -0.1)">
       <use xlink:href="#DejaVuSans-30"/>
       <use xlink:href="#DejaVuSans-2e" transform="translate(63.623047 0)"/>
       <use xlink:href="#DejaVuSans-30" transform="translate(95.410156 0)"/>
      </g>
     </g>
    </g>
    <g id="ytick_6">
     <g id="line2d_25">
      <g>
       <use xlink:href="#m775ae7f6d8" x="44.749063" y="347.40064" style="fill: #7f7f7f; stroke: #7f7f7f; stroke-width: 1.8"/>
      </g>
     </g>
     <g id="text_27">
      <!-- 0.5 -->
      <g style="fill: #7f7f7f" transform="translate(21.845938 351.199859) scale(0.1 -0.1)">
       <use xlink:href="#DejaVuSans-30"/>
       <use xlink:href="#DejaVuSans-2e" transform="translate(63.623047 0)"/>
       <use xlink:href="#DejaVuSans-35" transform="translate(95.410156 0)"/>
      </g>
     </g>
    </g>
    <g id="ytick_7">
     <g id="line2d_26">
      <g>
       <use xlink:href="#m775ae7f6d8" x="44.749063" y="316.169137" style="fill: #7f7f7f; stroke: #7f7f7f; stroke-width: 1.8"/>
      </g>
     </g>
     <g id="text_28">
      <!-- 1.0 -->
      <g style="fill: #7f7f7f" transform="translate(21.845938 319.968356) scale(0.1 -0.1)">
       <use xlink:href="#DejaVuSans-31"/>
       <use xlink:href="#DejaVuSans-2e" transform="translate(63.623047 0)"/>
       <use xlink:href="#DejaVuSans-30" transform="translate(95.410156 0)"/>
      </g>
     </g>
    </g>
    <g id="ytick_8">
     <g id="line2d_27">
      <g>
       <use xlink:href="#m775ae7f6d8" x="44.749063" y="284.937634" style="fill: #7f7f7f; stroke: #7f7f7f; stroke-width: 1.8"/>
      </g>
     </g>
     <g id="text_29">
      <!-- 1.5 -->
      <g style="fill: #7f7f7f" transform="translate(21.845938 288.736853) scale(0.1 -0.1)">
       <use xlink:href="#DejaVuSans-31"/>
       <use xlink:href="#DejaVuSans-2e" transform="translate(63.623047 0)"/>
       <use xlink:href="#DejaVuSans-35" transform="translate(95.410156 0)"/>
      </g>
     </g>
    </g>
    <g id="ytick_9">
     <g id="line2d_28">
      <g>
       <use xlink:href="#m775ae7f6d8" x="44.749063" y="253.706132" style="fill: #7f7f7f; stroke: #7f7f7f; stroke-width: 1.8"/>
      </g>
     </g>
     <g id="text_30">
      <!-- 2.0 -->
      <g style="fill: #7f7f7f" transform="translate(21.845938 257.505351) scale(0.1 -0.1)">
       <use xlink:href="#DejaVuSans-32"/>
       <use xlink:href="#DejaVuSans-2e" transform="translate(63.623047 0)"/>
       <use xlink:href="#DejaVuSans-30" transform="translate(95.410156 0)"/>
      </g>
     </g>
    </g>
    <g id="ytick_10">
     <g id="line2d_29">
      <g>
       <use xlink:href="#m775ae7f6d8" x="44.749063" y="222.474629" style="fill: #7f7f7f; stroke: #7f7f7f; stroke-width: 1.8"/>
      </g>
     </g>
     <g id="text_31">
      <!-- 2.5 -->
      <g style="fill: #7f7f7f" transform="translate(21.845938 226.273848) scale(0.1 -0.1)">
       <use xlink:href="#DejaVuSans-32"/>
       <use xlink:href="#DejaVuSans-2e" transform="translate(63.623047 0)"/>
       <use xlink:href="#DejaVuSans-35" transform="translate(95.410156 0)"/>
      </g>
     </g>
    </g>
    <g id="text_32">
     <!-- Velocity Error [m/s] -->
     <g style="fill: #7f7f7f" transform="translate(15.558281 354.999844) rotate(-90) scale(0.11 -0.11)">
      <defs>
       <path id="DejaVuSans-56" d="M 1831 0 
L 50 4666 
L 709 4666 
L 2188 738 
L 3669 4666 
L 4325 4666 
L 2547 0 
L 1831 0 
z
" transform="scale(0.015625)"/>
       <path id="DejaVuSans-6c" d="M 603 4863 
L 1178 4863 
L 1178 0 
L 603 0 
L 603 4863 
z
" transform="scale(0.015625)"/>
       <path id="DejaVuSans-63" d="M 3122 3366 
L 3122 2828 
Q 2878 2963 2633 3030 
Q 2388 3097 2138 3097 
Q 1578 3097 1268 2742 
Q 959 2388 959 1747 
Q 959 1106 1268 751 
Q 1578 397 2138 397 
Q 2388 397 2633 464 
Q 2878 531 3122 666 
L 3122 134 
Q 2881 22 2623 -34 
Q 2366 -91 2075 -91 
Q 1284 -91 818 406 
Q 353 903 353 1747 
Q 353 2603 823 3093 
Q 1294 3584 2113 3584 
Q 2378 3584 2631 3529 
Q 2884 3475 3122 3366 
z
" transform="scale(0.015625)"/>
       <path id="DejaVuSans-79" d="M 2059 -325 
Q 1816 -950 1584 -1140 
Q 1353 -1331 966 -1331 
L 506 -1331 
L 506 -850 
L 844 -850 
Q 1081 -850 1212 -737 
Q 1344 -625 1503 -206 
L 1606 56 
L 191 3500 
L 800 3500 
L 1894 763 
L 2988 3500 
L 3597 3500 
L 2059 -325 
z
" transform="scale(0.015625)"/>
       <path id="DejaVuSans-2f" d="M 1625 4666 
L 2156 4666 
L 531 -594 
L 0 -594 
L 1625 4666 
z
" transform="scale(0.015625)"/>
      </defs>
      <use xlink:href="#DejaVuSans-56"/>
      <use xlink:href="#DejaVuSans-65" transform="translate(60.658203 0)"/>
      <use xlink:href="#DejaVuSans-6c" transform="translate(122.181641 0)"/>
      <use xlink:href="#DejaVuSans-6f" transform="translate(149.964844 0)"/>
      <use xlink:href="#DejaVuSans-63" transform="translate(211.146484 0)"/>
      <use xlink:href="#DejaVuSans-69" transform="translate(266.126953 0)"/>
      <use xlink:href="#DejaVuSans-74" transform="translate(293.910156 0)"/>
      <use xlink:href="#DejaVuSans-79" transform="translate(333.119141 0)"/>
      <use xlink:href="#DejaVuSans-20" transform="translate(392.298828 0)"/>
      <use xlink:href="#DejaVuSans-45" transform="translate(424.085938 0)"/>
      <use xlink:href="#DejaVuSans-72" transform="translate(487.269531 0)"/>
      <use xlink:href="#DejaVuSans-72" transform="translate(526.632812 0)"/>
      <use xlink:href="#DejaVuSans-6f" transform="translate(565.496094 0)"/>
      <use xlink:href="#DejaVuSans-72" transform="translate(626.677734 0)"/>
      <use xlink:href="#DejaVuSans-20" transform="translate(667.791016 0)"/>
      <use xlink:href="#DejaVuSans-5b" transform="translate(699.578125 0)"/>
      <use xlink:href="#DejaVuSans-6d" transform="translate(738.591797 0)"/>
      <use xlink:href="#DejaVuSans-2f" transform="translate(836.003906 0)"/>
      <use xlink:href="#DejaVuSans-73" transform="translate(869.695312 0)"/>
      <use xlink:href="#DejaVuSans-5d" transform="translate(921.794922 0)"/>
     </g>
    </g>
   </g>
   <g id="line2d_30">
    <path d="M 68.242287 253.706132 
L 68.947084 254.30458 
L 69.182016 252.112227 
L 69.416948 255.101573 
L 69.886813 263.345259 
L 70.356677 259.656362 
L 70.591609 259.910228 
L 71.531338 250.275049 
L 71.766271 259.76238 
L 72.236135 250.480632 
L 73.645729 233.86617 
L 74.115593 225.683359 
L 74.350525 226.439738 
L 78.814238 360.88791 
L 79.04917 359.908378 
L 79.753967 341.315346 
L 80.458764 342.93401 
L 80.693696 343.614042 
L 81.16356 356.684206 
L 81.633425 354.453451 
L 82.808086 336.144848 
L 84.687544 349.486182 
L 84.922476 339.42703 
L 85.392341 347.70159 
L 85.862205 355.123447 
L 86.33207 352.149821 
L 86.801934 345.6535 
L 87.741663 348.435281 
L 87.976595 349.087455 
L 88.211528 356.08126 
L 88.916324 352.098632 
L 89.151257 351.162576 
L 89.386189 352.522562 
L 90.795782 363.286787 
L 91.500579 359.7419 
L 91.735511 358.452127 
L 91.970444 361.996489 
L 93.145105 367.024594 
L 93.380037 365.723295 
L 93.614969 370.232582 
L 94.084834 369.180496 
L 94.789631 360.140011 
L 95.259495 362.105349 
L 96.199224 372.722817 
L 96.434156 371.635612 
L 97.608817 378.088205 
L 98.078682 376.449189 
L 98.548546 376.814037 
L 98.783479 378.466306 
L 99.253343 375.317987 
L 99.488275 371.605871 
L 99.95814 372.377406 
L 100.662937 378.140268 
L 101.132801 377.805802 
L 101.602666 377.214677 
L 102.542395 377.804631 
L 102.777327 374.112504 
L 103.012259 378.399326 
L 103.951988 377.473098 
L 104.18692 377.732122 
L 104.421853 377.43161 
L 106.066378 370.632183 
L 106.301311 371.078952 
L 106.536243 375.08778 
L 107.241039 373.609143 
L 108.650633 365.979713 
L 108.885565 366.943419 
L 109.120497 366.174276 
L 109.35543 367.088112 
L 111.704752 378.536328 
L 111.939684 377.840105 
L 112.409549 374.730666 
L 113.114346 375.685302 
L 113.58421 374.370504 
L 114.054075 374.611122 
L 114.993804 378.40863 
L 115.463668 378.12526 
L 116.638329 376.697007 
L 116.873262 378.3719 
L 117.108194 375.566335 
L 117.81299 368.500638 
L 118.517787 371.859274 
L 118.752719 371.826865 
L 119.222584 369.277926 
L 119.457516 371.829927 
L 119.927381 378.03173 
L 120.632177 376.768855 
L 122.041771 372.649194 
L 123.216432 376.828272 
L 123.686297 373.010906 
L 124.156161 376.511797 
L 124.626026 378.026721 
L 124.860958 376.752624 
L 126.270551 370.316363 
L 127.680145 374.694779 
L 128.384941 372.113746 
L 128.619874 374.183329 
L 128.854806 374.39027 
L 129.089738 373.919281 
L 129.32467 372.580287 
L 129.794535 374.191693 
L 130.029467 373.000722 
L 131.439061 378.573981 
L 131.908925 378.465161 
L 132.613722 371.733454 
L 133.083586 375.044856 
L 133.788383 377.863208 
L 134.49318 369.595113 
L 135.432909 375.522232 
L 135.902773 372.759763 
L 137.547299 361.762768 
L 137.782231 362.098142 
L 138.252096 362.858428 
L 138.487028 359.520196 
L 138.956892 363.826275 
L 139.191825 364.143352 
L 139.661689 361.718893 
L 139.896621 364.617989 
L 140.601418 366.618921 
L 141.071283 364.702412 
L 141.306215 362.470546 
L 141.541147 363.774829 
L 141.776079 369.899106 
L 142.715808 368.5274 
L 142.950741 368.41992 
L 144.360334 377.514479 
L 145.534995 372.717622 
L 145.769928 372.340849 
L 146.944589 367.133536 
L 147.649386 370.61037 
L 148.11925 368.278176 
L 149.528843 362.826401 
L 148.589114 368.413321 
L 149.763776 364.146331 
L 149.998708 365.357164 
L 150.23364 361.825844 
L 150.468572 362.586596 
L 151.408301 359.483312 
L 153.052827 370.813766 
L 153.522692 373.811236 
L 154.462421 377.655791 
L 154.697353 376.397552 
L 155.872014 372.511319 
L 156.106946 377.125959 
L 157.046675 377.012001 
L 157.751472 373.411384 
L 158.221337 374.356726 
L 158.456269 374.350006 
L 159.395998 368.452976 
L 159.865862 372.663627 
L 160.570659 371.996637 
L 161.510388 362.018699 
L 162.215185 364.530114 
L 162.450117 364.747688 
L 162.685049 364.012055 
L 163.154914 361.879867 
L 163.389846 363.518165 
L 165.034372 373.721532 
L 165.269304 373.661249 
L 165.504236 371.32006 
L 165.974101 375.648576 
L 166.91383 373.333424 
L 167.148762 373.989237 
L 168.558355 376.794461 
L 169.967949 371.530424 
L 170.437813 371.741383 
L 170.672745 372.0857 
L 170.907678 374.700379 
L 171.612474 373.609633 
L 172.317271 373.305151 
L 173.491932 365.952633 
L 173.726865 366.265786 
L 175.606323 370.447461 
L 175.841255 369.363367 
L 176.546052 367.375585 
L 177.015916 372.968836 
L 177.485781 367.903201 
L 177.720713 368.741667 
L 177.955645 366.570425 
L 178.42551 363.405884 
L 179.130306 364.357119 
L 180.5399 370.070776 
L 181.009764 370.596148 
L 182.184425 375.743773 
L 182.419358 375.660252 
L 182.889222 377.54909 
L 183.359087 375.593854 
L 184.533748 368.482371 
L 184.76868 368.593911 
L 185.943341 371.100673 
L 186.648138 366.285201 
L 186.88307 370.007909 
L 188.057732 378.54076 
L 188.762528 377.041679 
L 190.172122 370.93848 
L 190.641986 375.082956 
L 190.876918 376.919124 
L 191.111851 375.924141 
L 192.521444 367.289093 
L 193.226241 369.363662 
L 193.696105 368.568324 
L 194.16597 371.416999 
L 195.340631 378.056693 
L 195.575563 376.353831 
L 197.220089 378.426199 
L 198.629683 372.059906 
L 200.039276 378.421507 
L 200.979005 370.229897 
L 201.213937 373.743209 
L 203.798192 365.431821 
L 204.268056 366.320314 
L 204.737921 368.594537 
L 205.207785 367.859428 
L 205.67765 368.711568 
L 206.147514 365.957702 
L 206.617379 363.808085 
L 207.087243 368.8157 
L 207.79204 362.217663 
L 208.261905 364.762037 
L 208.496837 365.165252 
L 208.731769 364.984586 
L 208.966701 363.894911 
L 209.436566 365.993694 
L 210.141362 366.331017 
L 209.90643 365.135246 
L 210.376295 365.676834 
L 211.550956 376.863415 
L 211.785888 373.229271 
L 212.255753 376.483619 
L 212.725617 374.215819 
L 213.195482 378.522571 
L 214.840007 373.725515 
L 215.544804 378.603165 
L 215.779736 375.453566 
L 216.014669 373.091041 
L 216.484533 373.543756 
L 217.424262 377.033541 
L 217.659194 376.452335 
L 217.894127 378.259389 
L 218.363991 374.223096 
L 219.30372 367.635853 
L 219.773585 370.101588 
L 220.008517 370.080853 
L 220.713313 366.682087 
L 221.887975 373.853049 
L 222.122907 373.368361 
L 222.592771 366.774112 
L 223.297568 369.89735 
L 223.767433 367.838941 
L 224.002365 365.562825 
L 224.237297 368.611784 
L 224.472229 367.44183 
L 224.707162 372.328108 
L 225.411958 369.011136 
L 226.116755 365.422264 
L 226.821552 365.870155 
L 227.056484 366.291692 
L 228.466078 377.699179 
L 228.935942 373.7956 
L 229.640739 376.04334 
L 229.875671 376.252405 
L 230.110603 374.707928 
L 230.8154 376.521213 
L 231.285264 373.956189 
L 232.694858 366.082118 
L 234.574316 377.599453 
L 235.514045 371.643611 
L 235.748977 372.593439 
L 235.983909 372.714371 
L 236.688706 378.058897 
L 237.393503 377.597666 
L 238.803096 371.987799 
L 239.272961 370.466833 
L 239.977758 372.936204 
L 240.447622 369.530884 
L 240.917487 371.571326 
L 241.152419 371.794678 
L 241.387351 371.217412 
L 241.622283 370.812776 
L 241.857215 368.140612 
L 242.562012 369.395095 
L 243.031877 370.575511 
L 243.266809 370.443985 
L 243.501741 368.235834 
L 244.206538 368.573063 
L 245.146267 375.349592 
L 245.381199 375.210764 
L 245.851064 375.850728 
L 246.085996 378.27005 
L 246.55586 374.545997 
L 247.965454 365.046302 
L 248.905183 370.55064 
L 249.140115 370.497248 
L 249.844912 367.584365 
L 250.079844 368.425147 
L 250.314776 370.544462 
L 251.019573 369.408412 
L 251.72437 370.163516 
L 251.959302 369.750939 
L 252.429166 368.10923 
L 252.664099 370.376818 
L 252.899031 370.171355 
L 254.073692 360.514166 
L 254.308624 360.92998 
L 256.188082 372.36811 
L 256.423015 371.141917 
L 257.362744 368.694043 
L 259.007269 375.124739 
L 259.242202 374.230185 
L 259.712066 373.688094 
L 259.946998 371.063489 
L 260.416863 376.155252 
L 261.591524 378.253266 
L 261.826456 378.515767 
L 263.940846 370.275325 
L 264.880575 373.430547 
L 264.410711 368.365177 
L 265.115508 372.7336 
L 265.35044 370.663003 
L 265.585372 372.955338 
L 265.820304 371.495843 
L 266.994966 377.757922 
L 267.229898 376.955964 
L 269.344288 364.798664 
L 269.814153 364.909969 
L 270.049085 365.089469 
L 270.284017 367.734098 
L 271.223746 367.387574 
L 271.693611 364.206881 
L 272.163475 365.570718 
L 272.398407 366.514605 
L 272.868272 364.86111 
L 273.338136 363.417217 
L 273.573068 364.733988 
L 274.277865 371.535505 
L 274.982662 369.730984 
L 275.922391 367.569763 
L 276.157323 369.202037 
L 276.392255 369.478556 
L 276.86212 378.45138 
L 277.566917 377.290702 
L 278.036781 366.821668 
L 278.741578 370.383868 
L 279.446375 372.08057 
L 280.151171 370.630461 
L 280.621036 367.117701 
L 281.325833 367.545914 
L 281.560765 368.756167 
L 282.030629 366.605926 
L 282.970358 366.96447 
L 284.614884 375.330813 
L 284.849816 374.474935 
L 285.554613 370.598866 
L 286.024477 372.513009 
L 286.729274 378.333025 
L 287.199139 377.19398 
L 287.669003 377.887232 
L 288.608732 374.706799 
L 289.078597 373.482105 
L 289.313529 374.990052 
L 289.548461 374.371708 
L 291.192987 378.206767 
L 291.897784 371.083554 
L 292.367648 372.504409 
L 293.307377 378.426802 
L 293.777241 377.513422 
L 294.71697 371.613289 
L 294.951903 372.595182 
L 295.421767 371.912818 
L 295.656699 375.183215 
L 296.126564 373.95837 
L 297.301225 369.719557 
L 298.006022 373.721218 
L 298.475886 373.380001 
L 298.945751 373.502859 
L 300.355344 366.093317 
L 301.060141 372.960623 
L 301.295073 369.73316 
L 302.704667 362.312315 
L 304.349192 358.339596 
L 304.819057 358.006181 
L 305.993718 363.109004 
L 306.933447 371.467244 
L 307.168379 369.840748 
L 308.577973 366.555617 
L 310.457431 371.282 
L 311.162228 368.725041 
L 310.927295 371.455801 
L 311.39716 370.569731 
L 312.571821 376.745716 
L 312.806753 373.014805 
L 313.51155 377.674332 
L 313.746482 378.088309 
L 313.981414 376.21946 
L 314.686211 378.514967 
L 317.270466 375.412444 
L 317.505398 373.235827 
L 318.210195 373.466752 
L 319.619788 378.270595 
L 319.854721 377.558716 
L 320.79445 370.257741 
L 321.029382 371.332139 
L 321.499246 372.783861 
L 321.734179 371.149362 
L 321.969111 368.029497 
L 322.673908 369.19524 
L 323.143772 371.287982 
L 323.378704 369.773964 
L 323.613637 368.076673 
L 324.083501 370.386106 
L 325.728027 378.541304 
L 327.13762 374.773477 
L 327.607485 375.667138 
L 327.842417 377.256941 
L 328.547214 375.415677 
L 329.25201 371.757921 
L 329.721875 373.700134 
L 329.956807 373.808351 
L 330.661604 374.361789 
L 331.131468 372.104521 
L 331.366401 372.412875 
L 332.071197 377.267895 
L 332.541062 376.812512 
L 332.775994 375.654003 
L 333.010926 378.375972 
L 333.480791 377.088861 
L 333.715723 378.588878 
L 334.42052 377.447581 
L 334.890384 370.199149 
L 336.065045 372.126025 
L 336.299978 371.541503 
L 336.53491 367.361 
L 337.239707 372.244836 
L 337.709571 370.277676 
L 337.944503 372.648198 
L 339.354097 378.481582 
L 340.293826 377.885998 
L 340.76369 378.612917 
L 341.468487 372.53559 
L 341.938352 374.382268 
L 342.408216 376.742729 
L 342.643148 374.75905 
L 342.878081 373.924196 
L 343.113013 375.248093 
L 343.582877 374.898786 
L 344.287674 377.350314 
L 344.992471 374.697904 
L 344.757538 377.621086 
L 345.227403 375.152178 
L 345.462335 377.22241 
L 345.9322 373.57964 
L 346.167132 374.584824 
L 346.402064 372.575895 
L 347.106861 374.849663 
L 348.516454 369.180177 
L 347.576725 376.046651 
L 348.751387 370.233032 
L 348.986319 372.126084 
L 349.456183 369.584694 
L 349.691116 368.774488 
L 349.926048 371.142296 
L 350.395912 372.474752 
L 350.630845 369.190294 
L 351.335641 370.933203 
L 353.215099 377.280173 
L 353.684964 375.506783 
L 354.389761 373.09268 
L 354.624693 373.865006 
L 355.094557 378.24941 
L 355.564422 374.223177 
L 355.799354 370.307144 
L 356.269218 375.191643 
L 357.44388 378.436852 
L 358.148676 370.729739 
L 358.618541 375.276496 
L 359.323338 378.593512 
L 360.028134 370.535762 
L 360.497999 374.7852 
L 361.437728 377.48135 
L 361.67266 377.288091 
L 361.907592 376.344433 
L 362.142525 378.556489 
L 362.612389 377.458202 
L 362.847321 378.496554 
L 363.552118 377.709067 
L 364.021983 378.208205 
L 364.726779 376.056702 
L 364.961712 377.961682 
L 365.196644 375.688668 
L 365.431576 377.677361 
L 365.666508 374.205358 
L 366.136373 378.265334 
L 366.371305 374.982642 
L 366.841169 378.458003 
L 367.545966 377.40245 
L 367.780898 375.56988 
L 368.250763 377.986059 
L 368.485695 376.431351 
L 369.190492 377.906096 
L 369.425424 376.11827 
L 369.660356 376.845135 
L 369.895289 375.986508 
L 370.130221 374.581198 
L 370.600085 376.745979 
L 371.774747 378.587796 
L 373.419272 369.162444 
L 375.29873 378.624545 
L 375.533662 378.502884 
L 377.648053 367.626196 
L 377.882985 368.949066 
L 378.352849 366.604204 
L 378.587782 363.617341 
L 379.057646 369.501625 
L 379.527511 373.835729 
L 380.232307 372.094562 
L 380.46724 373.318406 
L 380.937104 371.371657 
L 381.876833 367.310484 
L 382.346698 364.47652 
L 382.58163 367.638256 
L 383.521359 374.948191 
L 384.226156 372.883789 
L 384.461088 372.799978 
L 385.400817 377.79152 
L 385.870681 376.651276 
L 386.105613 376.100139 
L 386.81041 371.718461 
L 387.045342 371.901694 
L 387.985071 378.628672 
L 388.454936 378.05251 
L 388.9248 374.653478 
L 389.394665 378.112297 
L 389.864529 376.335755 
L 390.334394 378.374879 
L 390.569326 378.37898 
L 391.743987 375.411144 
L 391.97892 375.725469 
L 392.448784 368.016601 
L 393.388513 371.125538 
L 393.858378 370.767288 
L 394.563174 368.426618 
L 394.798107 371.358058 
L 395.267971 368.972049 
L 395.737836 363.635962 
L 396.2077 366.049802 
L 396.912497 371.707531 
L 397.382361 370.173598 
L 397.852226 366.349396 
L 398.32209 366.733604 
L 399.026887 368.998397 
L 399.496751 368.356952 
L 399.731684 368.977864 
L 400.43648 362.54933 
L 400.906345 363.921563 
L 402.550871 373.545572 
L 402.785803 373.270921 
L 403.4906 378.481051 
L 403.960464 378.388628 
L 405.135125 375.212383 
L 405.839922 378.151699 
L 406.074854 377.288345 
L 406.779651 373.56188 
L 407.014583 374.606952 
L 407.71938 378.343543 
L 407.954312 378.288054 
L 408.189244 375.958253 
L 408.424177 378.452391 
L 408.894041 377.446608 
L 409.128973 378.55539 
L 409.363906 377.994154 
L 409.83377 373.763878 
L 410.303635 377.159317 
L 410.538567 378.332986 
L 411.008431 375.92442 
L 411.713228 376.1384 
L 412.418025 371.337891 
L 412.652957 371.887355 
L 413.122822 371.163769 
L 413.357754 370.856293 
L 413.827618 367.89052 
L 414.532415 368.2736 
L 415.237212 373.653875 
L 415.942009 373.533769 
L 416.646805 370.189521 
L 417.11667 372.294664 
L 417.351602 375.428959 
L 417.821466 372.026102 
L 418.056399 373.529872 
L 418.291331 373.091273 
L 419.465992 377.999584 
L 421.110518 375.362138 
L 421.34545 377.677893 
L 421.815315 374.680741 
L 422.285179 373.010363 
L 422.520111 374.84894 
L 422.755044 374.313817 
L 423.224908 378.518998 
L 423.929705 378.216206 
L 424.399569 377.122439 
L 426.044095 371.63934 
L 426.983824 367.420766 
L 427.218756 368.742469 
L 427.688621 369.372967 
L 427.923553 366.439791 
L 428.863282 375.142397 
L 429.098214 373.455509 
L 429.333146 372.626336 
L 429.568079 374.774523 
L 430.272875 373.907888 
L 430.507808 378.591277 
L 431.447537 378.329917 
L 433.326995 372.553937 
L 434.266724 375.499614 
L 435.676317 366.830909 
L 436.850978 374.062144 
L 437.085911 371.953466 
L 437.320843 369.271573 
L 437.555775 372.229437 
L 437.790707 371.714774 
L 439.200301 377.351536 
L 440.14003 374.143807 
L 440.374962 375.654977 
L 441.079759 378.604667 
L 441.314691 373.892879 
L 442.019488 377.239066 
L 442.489352 377.907362 
L 443.898946 370.210562 
L 445.073607 373.339103 
L 444.603742 368.845788 
L 445.308539 372.607569 
L 446.013336 369.700425 
L 446.248268 373.183155 
L 446.953065 370.108265 
L 448.59759 358.902272 
L 449.302387 363.629043 
L 450.007184 360.294759 
L 450.477048 362.847912 
L 451.65171 374.426747 
L 452.121574 373.761791 
L 452.826371 372.450934 
L 453.296235 375.607988 
L 454.235964 368.307934 
L 454.470897 368.596293 
L 454.940761 371.713864 
L 456.585287 378.625555 
L 457.055151 376.754863 
L 457.525016 377.683548 
L 457.99488 378.068186 
L 458.464745 374.641333 
L 458.934609 375.964373 
L 459.404474 375.451779 
L 459.639406 377.344199 
L 460.814067 372.468174 
L 460.10927 377.689098 
L 461.048999 372.838771 
L 461.518864 376.924203 
L 462.458593 375.597879 
L 464.103119 370.547833 
L 464.338051 372.374558 
L 464.807915 368.367055 
L 466.922306 378.143166 
L 467.157238 378.086917 
L 468.096967 375.602297 
L 468.331899 376.559303 
L 468.801763 376.731163 
L 469.271628 372.329025 
L 470.211357 372.493139 
L 470.446289 373.224474 
L 470.681221 370.509985 
L 471.151086 371.638716 
L 471.62095 375.81879 
L 472.325747 374.27321 
L 472.560679 374.041583 
L 472.795612 375.109767 
L 473.030544 377.139908 
L 473.500408 375.663099 
L 475.379866 361.927997 
L 475.849731 363.058079 
L 476.084663 362.352502 
L 477.729189 352.325179 
L 478.199053 354.306392 
L 479.138782 358.913944 
L 480.078511 353.008502 
L 480.313443 354.707252 
L 481.253172 360.017905 
L 481.488105 359.167664 
L 481.723037 358.543039 
L 481.957969 359.778917 
L 484.307292 378.360094 
L 484.542224 376.882383 
L 485.951817 373.614635 
L 486.18675 375.470517 
L 486.656614 372.608706 
L 487.126479 370.59939 
L 487.361411 370.893226 
L 488.066208 370.655496 
L 488.536072 374.926317 
L 489.945665 371.471226 
L 490.885394 375.576502 
L 491.120327 372.916677 
L 491.355259 372.927734 
L 491.825123 375.095459 
L 492.294988 373.062147 
L 493.939514 366.661173 
L 494.409378 369.701134 
L 494.64431 366.609162 
L 494.879243 364.62677 
L 495.349107 366.726233 
L 496.758701 371.05706 
L 497.228565 365.098592 
L 497.69843 367.826944 
L 497.933362 368.261967 
L 498.873091 374.924864 
L 499.108023 374.391218 
L 499.342955 374.046567 
L 500.047752 369.676511 
L 500.282684 369.701944 
L 500.752549 372.438405 
L 501.222413 369.844387 
L 501.457345 366.586421 
L 501.92721 370.823094 
L 502.162142 367.690039 
L 504.276532 378.131906 
L 504.511465 378.626594 
L 504.981329 377.464881 
L 505.451194 374.154826 
L 506.15599 375.423337 
L 506.625855 378.221333 
L 506.860787 374.659429 
L 507.330652 376.932308 
L 508.270381 373.223702 
L 508.505313 373.875643 
L 508.975177 372.706247 
L 509.21011 374.885743 
L 510.384771 366.74932 
L 510.619703 368.349018 
L 512.029296 376.889009 
L 512.734093 373.603948 
L 513.673822 366.322228 
L 513.908754 366.973491 
L 515.083416 375.917411 
L 515.55328 371.717595 
L 516.962874 367.151826 
L 517.197806 370.24684 
L 517.66767 364.470648 
L 518.137535 366.931394 
L 519.547128 372.270207 
L 520.251925 368.228217 
L 521.191654 369.224933 
L 522.131383 375.444675 
L 522.366315 373.531891 
L 522.83618 374.007467 
L 523.775909 378.343609 
L 524.010841 377.523761 
L 525.655367 370.30667 
L 528.239621 378.156013 
L 528.474554 377.764301 
L 530.119079 372.215118 
L 530.588944 374.432656 
L 531.058808 376.928235 
L 531.528673 374.197628 
L 531.763605 373.320323 
L 531.998537 373.578384 
L 532.233469 377.553941 
L 532.703334 369.550398 
L 532.938266 369.925449 
L 533.173198 369.443026 
L 534.112927 362.881808 
L 534.34786 366.365134 
L 536.697182 374.591804 
L 536.932114 373.471146 
L 537.167047 375.512101 
L 537.401979 376.556421 
L 537.871843 374.771965 
L 538.106776 374.71278 
L 538.106776 374.71278 
" clip-path="url(#p9aa3191994)" style="fill: none; stroke: #e41a1c; stroke-width: 2; stroke-linecap: square"/>
   </g>
   <g id="patch_6">
    <path d="M 44.749063 386.275937 
L 44.749063 218.036094 
" style="fill: none; stroke: #7f7f7f; stroke-width: 1.8; stroke-linejoin: miter; stroke-linecap: square"/>
   </g>
   <g id="patch_7">
    <path d="M 44.749063 386.275937 
L 561.6 386.275937 
" style="fill: none; stroke: #7f7f7f; stroke-width: 1.8; stroke-linejoin: miter; stroke-linecap: square"/>
   </g>
  </g>
 </g>
 <defs>
  <clipPath id="p5e9c23c734">
   <rect x="44.749063" y="22.318125" width="516.850937" height="168.239844"/>
  </clipPath>
  <clipPath id="p9aa3191994">
   <rect x="44.749063" y="218.036094" width="516.850937" height="168.239844"/>
  </clipPath>
 </defs>
</svg>
