<?xml version="1.0" encoding="utf-8" standalone="no"?>
<!DOCTYPE svg PUBLIC "-//W3C//DTD SVG 1.1//EN"
  "http://www.w3.org/Graphics/SVG/1.1/DTD/svg11.dtd">
<svg xmlns:xlink="http://www.w3.org/1999/xlink" width="568.8pt" height="424.8pt" viewBox="0 0 568.8 424.8" xmlns="http://www.w3.org/2000/svg" version="1.1">
 <metadata>
  <rdf:RDF xmlns:dc="http://purl.org/dc/elements/1.1/" xmlns:cc="http://creativecommons.org/ns#" xmlns:rdf="http://www.w3.org/1999/02/22-rdf-syntax-ns#">
   <cc:Work>
    <dc:type rdf:resource="http://purl.org/dc/dcmitype/StillImage"/>
    <dc:date>2026-05-28T19:00:45.722475</dc:date>
    <dc:format>image/svg+xml</dc:format>
    <dc:creator>
     <cc:Agent>
      <dc:title>Matplotlib v3.10.9, https://matplotlib.org/</dc:title>
     </cc:Agent>
    </dc:creator>
   </cc:Work>
  </rdf:RDF>
 </metadata>
 <defs>
  <style type="text/css">*{stroke-linejoin: round; stroke-linecap: butt}</style>
 </defs>
 <g id="figure_1">
  <g id="patch_1">
   <path d="M 0 424.8 
L 568.8 424.8 
L 568.8 0 
L 0 0 
L 0 424.8 
z
" style="fill: none"/>
  </g>
  <g id="axes_1">
   <g id="patch_2">
    <path d="M 44.749063 190.557969 
L 561.6 190.557969 
L 561.6 22.318125 
L 44.749063 22.318125 
L 44.749063 190.557969 
z
" style="fill: none"/>
   </g>
   <g id="matplotlib.axis_1">
    <g id="xtick_1">
     <g id="line2d_1">
      <defs>
       <path id="m76ecb18d30" d="M 0 0 
L 0 3.5 
" style="stroke: #7f7f7f; stroke-width: 1.8"/>
      </defs>
      <g>
       <use xlink:href="#m76ecb18d30" x="68.242287" y="190.557969" style="fill: #7f7f7f; stroke: #7f7f7f; stroke-width: 1.8"/>
      </g>
     </g>
     <g id="text_1">
      <!-- 0.0 -->
      <g style="fill: #7f7f7f" transform="translate(60.290724 205.156406) scale(0.1 -0.1)">
       <defs>
        <path id="DejaVuSans-30" d="M 2034 4250 
Q 1547 4250 1301 3770 
Q 1056 3291 1056 2328 
Q 1056 1369 1301 889 
Q 1547 409 2034 409 
Q 2525 409 2770 889 
Q 3016 1369 3016 2328 
Q 3016 3291 2770 3770 
Q 2525 4250 2034 4250 
z
M 2034 4750 
Q 2819 4750 3233 4129 
Q 3647 3509 3647 2328 
Q 3647 1150 3233 529 
Q 2819 -91 2034 -91 
Q 1250 -91 836 529 
Q 422 1150 422 2328 
Q 422 3509 836 4129 
Q 1250 4750 2034 4750 
z
" transform="scale(0.015625)"/>
        <path id="DejaVuSans-2e" d="M 684 794 
L 1344 794 
L 1344 0 
L 684 0 
L 684 794 
z
" transform="scale(0.015625)"/>
       </defs>
       <use xlink:href="#DejaVuSans-30"/>
       <use xlink:href="#DejaVuSans-2e" transform="translate(63.623047 0)"/>
       <use xlink:href="#DejaVuSans-30" transform="translate(95.410156 0)"/>
      </g>
     </g>
    </g>
    <g id="xtick_2">
     <g id="line2d_2">
      <g>
       <use xlink:href="#m76ecb18d30" x="126.975348" y="190.557969" style="fill: #7f7f7f; stroke: #7f7f7f; stroke-width: 1.8"/>
      </g>
     </g>
     <g id="text_2">
      <!-- 2.5 -->
      <g style="fill: #7f7f7f" transform="translate(119.023786 205.156406) scale(0.1 -0.1)">
       <defs>
        <path id="DejaVuSans-32" d="M 1228 531 
L 3431 531 
L 3431 0 
L 469 0 
L 469 531 
Q 828 903 1448 1529 
Q 2069 2156 2228 2338 
Q 2531 2678 2651 2914 
Q 2772 3150 2772 3378 
Q 2772 3750 2511 3984 
Q 2250 4219 1831 4219 
Q 1534 4219 1204 4116 
Q 875 4013 500 3803 
L 500 4441 
Q 881 4594 1212 4672 
Q 1544 4750 1819 4750 
Q 2544 4750 2975 4387 
Q 3406 4025 3406 3419 
Q 3406 3131 3298 2873 
Q 3191 2616 2906 2266 
Q 2828 2175 2409 1742 
Q 1991 1309 1228 531 
z
" transform="scale(0.015625)"/>
        <path id="DejaVuSans-35" d="M 691 4666 
L 3169 4666 
L 3169 4134 
L 1269 4134 
L 1269 2991 
Q 1406 3038 1543 3061 
Q 1681 3084 1819 3084 
Q 2600 3084 3056 2656 
Q 3513 2228 3513 1497 
Q 3513 744 3044 326 
Q 2575 -91 1722 -91 
Q 1428 -91 1123 -41 
Q 819 9 494 109 
L 494 744 
Q 775 591 1075 516 
Q 1375 441 1709 441 
Q 2250 441 2565 725 
Q 2881 1009 2881 1497 
Q 2881 1984 2565 2268 
Q 2250 2553 1709 2553 
Q 1456 2553 1204 2497 
Q 953 2441 691 2322 
L 691 4666 
z
" transform="scale(0.015625)"/>
       </defs>
       <use xlink:href="#DejaVuSans-32"/>
       <use xlink:href="#DejaVuSans-2e" transform="translate(63.623047 0)"/>
       <use xlink:href="#DejaVuSans-35" transform="translate(95.410156 0)"/>
      </g>
     </g>
    </g>
    <g id="xtick_3">
     <g id="line2d_3">
      <g>
       <use xlink:href="#m76ecb18d30" x="185.708409" y="190.557969" style="fill: #7f7f7f; stroke: #7f7f7f; stroke-width: 1.8"/>
      </g>
     </g>
     <g id="text_3">
      <!-- 5.0 -->
      <g style="fill: #7f7f7f" transform="translate(177.756847 205.156406) scale(0.1 -0.1)">
       <use xlink:href="#DejaVuSans-35"/>
       <use xlink:href="#DejaVuSans-2e" transform="translate(63.623047 0)"/>
       <use xlink:href="#DejaVuSans-30" transform="translate(95.410156 0)"/>
      </g>
     </g>
    </g>
    <g id="xtick_4">
     <g id="line2d_4">
      <g>
       <use xlink:href="#m76ecb18d30" x="244.44147" y="190.557969" style="fill: #7f7f7f; stroke: #7f7f7f; stroke-width: 1.8"/>
      </g>
     </g>
     <g id="text_4">
      <!-- 7.5 -->
      <g style="fill: #7f7f7f" transform="translate(236.489908 205.156406) scale(0.1 -0.1)">
       <defs>
        <path id="DejaVuSans-37" d="M 525 4666 
L 3525 4666 
L 3525 4397 
L 1831 0 
L 1172 0 
L 2766 4134 
L 525 4134 
L 525 4666 
z
" transform="scale(0.015625)"/>
       </defs>
       <use xlink:href="#DejaVuSans-37"/>
       <use xlink:href="#DejaVuSans-2e" transform="translate(63.623047 0)"/>
       <use xlink:href="#DejaVuSans-35" transform="translate(95.410156 0)"/>
      </g>
     </g>
    </g>
    <g id="xtick_5">
     <g id="line2d_5">
      <g>
       <use xlink:href="#m76ecb18d30" x="303.174531" y="190.557969" style="fill: #7f7f7f; stroke: #7f7f7f; stroke-width: 1.8"/>
      </g>
     </g>
     <g id="text_5">
      <!-- 10.0 -->
      <g style="fill: #7f7f7f" transform="translate(292.041719 205.156406) scale(0.1 -0.1)">
       <defs>
        <path id="DejaVuSans-31" d="M 794 531 
L 1825 531 
L 1825 4091 
L 703 3866 
L 703 4441 
L 1819 4666 
L 2450 4666 
L 2450 531 
L 3481 531 
L 3481 0 
L 794 0 
L 794 531 
z
" transform="scale(0.015625)"/>
       </defs>
       <use xlink:href="#DejaVuSans-31"/>
       <use xlink:href="#DejaVuSans-30" transform="translate(63.623047 0)"/>
       <use xlink:href="#DejaVuSans-2e" transform="translate(127.246094 0)"/>
       <use xlink:href="#DejaVuSans-30" transform="translate(159.033203 0)"/>
      </g>
     </g>
    </g>
    <g id="xtick_6">
     <g id="line2d_6">
      <g>
       <use xlink:href="#m76ecb18d30" x="361.907592" y="190.557969" style="fill: #7f7f7f; stroke: #7f7f7f; stroke-width: 1.8"/>
      </g>
     </g>
     <g id="text_6">
      <!-- 12.5 -->
      <g style="fill: #7f7f7f" transform="translate(350.77478 205.156406) scale(0.1 -0.1)">
       <use xlink:href="#DejaVuSans-31"/>
       <use xlink:href="#DejaVuSans-32" transform="translate(63.623047 0)"/>
       <use xlink:href="#DejaVuSans-2e" transform="translate(127.246094 0)"/>
       <use xlink:href="#DejaVuSans-35" transform="translate(159.033203 0)"/>
      </g>
     </g>
    </g>
    <g id="xtick_7">
     <g id="line2d_7">
      <g>
       <use xlink:href="#m76ecb18d30" x="420.640653" y="190.557969" style="fill: #7f7f7f; stroke: #7f7f7f; stroke-width: 1.8"/>
      </g>
     </g>
     <g id="text_7">
      <!-- 15.0 -->
      <g style="fill: #7f7f7f" transform="translate(409.507841 205.156406) scale(0.1 -0.1)">
       <use xlink:href="#DejaVuSans-31"/>
       <use xlink:href="#DejaVuSans-35" transform="translate(63.623047 0)"/>
       <use xlink:href="#DejaVuSans-2e" transform="translate(127.246094 0)"/>
       <use xlink:href="#DejaVuSans-30" transform="translate(159.033203 0)"/>
      </g>
     </g>
    </g>
    <g id="xtick_8">
     <g id="line2d_8">
      <g>
       <use xlink:href="#m76ecb18d30" x="479.373714" y="190.557969" style="fill: #7f7f7f; stroke: #7f7f7f; stroke-width: 1.8"/>
      </g>
     </g>
     <g id="text_8">
      <!-- 17.5 -->
      <g style="fill: #7f7f7f" transform="translate(468.240902 205.156406) scale(0.1 -0.1)">
       <use xlink:href="#DejaVuSans-31"/>
       <use xlink:href="#DejaVuSans-37" transform="translate(63.623047 0)"/>
       <use xlink:href="#DejaVuSans-2e" transform="translate(127.246094 0)"/>
       <use xlink:href="#DejaVuSans-35" transform="translate(159.033203 0)"/>
      </g>
     </g>
    </g>
    <g id="xtick_9">
     <g id="line2d_9">
      <g>
       <use xlink:href="#m76ecb18d30" x="538.106776" y="190.557969" style="fill: #7f7f7f; stroke: #7f7f7f; stroke-width: 1.8"/>
      </g>
     </g>
     <g id="text_9">
      <!-- 20.0 -->
      <g style="fill: #7f7f7f" transform="translate(526.973963 205.156406) scale(0.1 -0.1)">
       <use xlink:href="#DejaVuSans-32"/>
       <use xlink:href="#DejaVuSans-30" transform="translate(63.623047 0)"/>
       <use xlink:href="#DejaVuSans-2e" transform="translate(127.246094 0)"/>
       <use xlink:href="#DejaVuSans-30" transform="translate(159.033203 0)"/>
      </g>
     </g>
    </g>
   </g>
   <g id="matplotlib.axis_2">
    <g id="ytick_1">
     <g id="line2d_10">
      <defs>
       <path id="m523f7e9484" d="M 0 0 
L -3.5 0 
" style="stroke: #7f7f7f; stroke-width: 1.8"/>
      </defs>
      <g>
       <use xlink:href="#m523f7e9484" x="44.749063" y="182.910703" style="fill: #7f7f7f; stroke: #7f7f7f; stroke-width: 1.8"/>
      </g>
     </g>
     <g id="text_10">
      <!-- 0.0 -->
      <g style="fill: #7f7f7f" transform="translate(21.845938 186.709922) scale(0.1 -0.1)">
       <use xlink:href="#DejaVuSans-30"/>
       <use xlink:href="#DejaVuSans-2e" transform="translate(63.623047 0)"/>
       <use xlink:href="#DejaVuSans-30" transform="translate(95.410156 0)"/>
      </g>
     </g>
    </g>
    <g id="ytick_2">
     <g id="line2d_11">
      <g>
       <use xlink:href="#m523f7e9484" x="44.749063" y="148.164146" style="fill: #7f7f7f; stroke: #7f7f7f; stroke-width: 1.8"/>
      </g>
     </g>
     <g id="text_11">
      <!-- 0.1 -->
      <g style="fill: #7f7f7f" transform="translate(21.845938 151.963365) scale(0.1 -0.1)">
       <use xlink:href="#DejaVuSans-30"/>
       <use xlink:href="#DejaVuSans-2e" transform="translate(63.623047 0)"/>
       <use xlink:href="#DejaVuSans-31" transform="translate(95.410156 0)"/>
      </g>
     </g>
    </g>
    <g id="ytick_3">
     <g id="line2d_12">
      <g>
       <use xlink:href="#m523f7e9484" x="44.749063" y="113.417589" style="fill: #7f7f7f; stroke: #7f7f7f; stroke-width: 1.8"/>
      </g>
     </g>
     <g id="text_12">
      <!-- 0.2 -->
      <g style="fill: #7f7f7f" transform="translate(21.845938 117.216808) scale(0.1 -0.1)">
       <use xlink:href="#DejaVuSans-30"/>
       <use xlink:href="#DejaVuSans-2e" transform="translate(63.623047 0)"/>
       <use xlink:href="#DejaVuSans-32" transform="translate(95.410156 0)"/>
      </g>
     </g>
    </g>
    <g id="ytick_4">
     <g id="line2d_13">
      <g>
       <use xlink:href="#m523f7e9484" x="44.749063" y="78.671032" style="fill: #7f7f7f; stroke: #7f7f7f; stroke-width: 1.8"/>
      </g>
     </g>
     <g id="text_13">
      <!-- 0.3 -->
      <g style="fill: #7f7f7f" transform="translate(21.845938 82.470251) scale(0.1 -0.1)">
       <defs>
        <path id="DejaVuSans-33" d="M 2597 2516 
Q 3050 2419 3304 2112 
Q 3559 1806 3559 1356 
Q 3559 666 3084 287 
Q 2609 -91 1734 -91 
Q 1441 -91 1130 -33 
Q 819 25 488 141 
L 488 750 
Q 750 597 1062 519 
Q 1375 441 1716 441 
Q 2309 441 2620 675 
Q 2931 909 2931 1356 
Q 2931 1769 2642 2001 
Q 2353 2234 1838 2234 
L 1294 2234 
L 1294 2753 
L 1863 2753 
Q 2328 2753 2575 2939 
Q 2822 3125 2822 3475 
Q 2822 3834 2567 4026 
Q 2313 4219 1838 4219 
Q 1578 4219 1281 4162 
Q 984 4106 628 3988 
L 628 4550 
Q 988 4650 1302 4700 
Q 1616 4750 1894 4750 
Q 2613 4750 3031 4423 
Q 3450 4097 3450 3541 
Q 3450 3153 3228 2886 
Q 3006 2619 2597 2516 
z
" transform="scale(0.015625)"/>
       </defs>
       <use xlink:href="#DejaVuSans-30"/>
       <use xlink:href="#DejaVuSans-2e" transform="translate(63.623047 0)"/>
       <use xlink:href="#DejaVuSans-33" transform="translate(95.410156 0)"/>
      </g>
     </g>
    </g>
    <g id="ytick_5">
     <g id="line2d_14">
      <g>
       <use xlink:href="#m523f7e9484" x="44.749063" y="43.924475" style="fill: #7f7f7f; stroke: #7f7f7f; stroke-width: 1.8"/>
      </g>
     </g>
     <g id="text_14">
      <!-- 0.4 -->
      <g style="fill: #7f7f7f" transform="translate(21.845938 47.723694) scale(0.1 -0.1)">
       <defs>
        <path id="DejaVuSans-34" d="M 2419 4116 
L 825 1625 
L 2419 1625 
L 2419 4116 
z
M 2253 4666 
L 3047 4666 
L 3047 1625 
L 3713 1625 
L 3713 1100 
L 3047 1100 
L 3047 0 
L 2419 0 
L 2419 1100 
L 313 1100 
L 313 1709 
L 2253 4666 
z
" transform="scale(0.015625)"/>
       </defs>
       <use xlink:href="#DejaVuSans-30"/>
       <use xlink:href="#DejaVuSans-2e" transform="translate(63.623047 0)"/>
       <use xlink:href="#DejaVuSans-34" transform="translate(95.410156 0)"/>
      </g>
     </g>
    </g>
    <g id="text_15">
     <!-- Position Error [m] -->
     <g style="fill: #7f7f7f" transform="translate(15.558281 154.397187) rotate(-90) scale(0.11 -0.11)">
      <defs>
       <path id="DejaVuSans-50" d="M 1259 4147 
L 1259 2394 
L 2053 2394 
Q 2494 2394 2734 2622 
Q 2975 2850 2975 3272 
Q 2975 3691 2734 3919 
Q 2494 4147 2053 4147 
L 1259 4147 
z
M 628 4666 
L 2053 4666 
Q 2838 4666 3239 4311 
Q 3641 3956 3641 3272 
Q 3641 2581 3239 2228 
Q 2838 1875 2053 1875 
L 1259 1875 
L 1259 0 
L 628 0 
L 628 4666 
z
" transform="scale(0.015625)"/>
       <path id="DejaVuSans-6f" d="M 1959 3097 
Q 1497 3097 1228 2736 
Q 959 2375 959 1747 
Q 959 1119 1226 758 
Q 1494 397 1959 397 
Q 2419 397 2687 759 
Q 2956 1122 2956 1747 
Q 2956 2369 2687 2733 
Q 2419 3097 1959 3097 
z
M 1959 3584 
Q 2709 3584 3137 3096 
Q 3566 2609 3566 1747 
Q 3566 888 3137 398 
Q 2709 -91 1959 -91 
Q 1206 -91 779 398 
Q 353 888 353 1747 
Q 353 2609 779 3096 
Q 1206 3584 1959 3584 
z
" transform="scale(0.015625)"/>
       <path id="DejaVuSans-73" d="M 2834 3397 
L 2834 2853 
Q 2591 2978 2328 3040 
Q 2066 3103 1784 3103 
Q 1356 3103 1142 2972 
Q 928 2841 928 2578 
Q 928 2378 1081 2264 
Q 1234 2150 1697 2047 
L 1894 2003 
Q 2506 1872 2764 1633 
Q 3022 1394 3022 966 
Q 3022 478 2636 193 
Q 2250 -91 1575 -91 
Q 1294 -91 989 -36 
Q 684 19 347 128 
L 347 722 
Q 666 556 975 473 
Q 1284 391 1588 391 
Q 1994 391 2212 530 
Q 2431 669 2431 922 
Q 2431 1156 2273 1281 
Q 2116 1406 1581 1522 
L 1381 1569 
Q 847 1681 609 1914 
Q 372 2147 372 2553 
Q 372 3047 722 3315 
Q 1072 3584 1716 3584 
Q 2034 3584 2315 3537 
Q 2597 3491 2834 3397 
z
" transform="scale(0.015625)"/>
       <path id="DejaVuSans-69" d="M 603 3500 
L 1178 3500 
L 1178 0 
L 603 0 
L 603 3500 
z
M 603 4863 
L 1178 4863 
L 1178 4134 
L 603 4134 
L 603 4863 
z
" transform="scale(0.015625)"/>
       <path id="DejaVuSans-74" d="M 1172 4494 
L 1172 3500 
L 2356 3500 
L 2356 3053 
L 1172 3053 
L 1172 1153 
Q 1172 725 1289 603 
Q 1406 481 1766 481 
L 2356 481 
L 2356 0 
L 1766 0 
Q 1100 0 847 248 
Q 594 497 594 1153 
L 594 3053 
L 172 3053 
L 172 3500 
L 594 3500 
L 594 4494 
L 1172 4494 
z
" transform="scale(0.015625)"/>
       <path id="DejaVuSans-6e" d="M 3513 2113 
L 3513 0 
L 2938 0 
L 2938 2094 
Q 2938 2591 2744 2837 
Q 2550 3084 2163 3084 
Q 1697 3084 1428 2787 
Q 1159 2491 1159 1978 
L 1159 0 
L 581 0 
L 581 3500 
L 1159 3500 
L 1159 2956 
Q 1366 3272 1645 3428 
Q 1925 3584 2291 3584 
Q 2894 3584 3203 3211 
Q 3513 2838 3513 2113 
z
" transform="scale(0.015625)"/>
       <path id="DejaVuSans-20" transform="scale(0.015625)"/>
       <path id="DejaVuSans-45" d="M 628 4666 
L 3578 4666 
L 3578 4134 
L 1259 4134 
L 1259 2753 
L 3481 2753 
L 3481 2222 
L 1259 2222 
L 1259 531 
L 3634 531 
L 3634 0 
L 628 0 
L 628 4666 
z
" transform="scale(0.015625)"/>
       <path id="DejaVuSans-72" d="M 2631 2963 
Q 2534 3019 2420 3045 
Q 2306 3072 2169 3072 
Q 1681 3072 1420 2755 
Q 1159 2438 1159 1844 
L 1159 0 
L 581 0 
L 581 3500 
L 1159 3500 
L 1159 2956 
Q 1341 3275 1631 3429 
Q 1922 3584 2338 3584 
Q 2397 3584 2469 3576 
Q 2541 3569 2628 3553 
L 2631 2963 
z
" transform="scale(0.015625)"/>
       <path id="DejaVuSans-5b" d="M 550 4863 
L 1875 4863 
L 1875 4416 
L 1125 4416 
L 1125 -397 
L 1875 -397 
L 1875 -844 
L 550 -844 
L 550 4863 
z
" transform="scale(0.015625)"/>
       <path id="DejaVuSans-6d" d="M 3328 2828 
Q 3544 3216 3844 3400 
Q 4144 3584 4550 3584 
Q 5097 3584 5394 3201 
Q 5691 2819 5691 2113 
L 5691 0 
L 5113 0 
L 5113 2094 
Q 5113 2597 4934 2840 
Q 4756 3084 4391 3084 
Q 3944 3084 3684 2787 
Q 3425 2491 3425 1978 
L 3425 0 
L 2847 0 
L 2847 2094 
Q 2847 2600 2669 2842 
Q 2491 3084 2119 3084 
Q 1678 3084 1418 2786 
Q 1159 2488 1159 1978 
L 1159 0 
L 581 0 
L 581 3500 
L 1159 3500 
L 1159 2956 
Q 1356 3278 1631 3431 
Q 1906 3584 2284 3584 
Q 2666 3584 2933 3390 
Q 3200 3197 3328 2828 
z
" transform="scale(0.015625)"/>
       <path id="DejaVuSans-5d" d="M 1947 4863 
L 1947 -844 
L 622 -844 
L 622 -397 
L 1369 -397 
L 1369 4416 
L 622 4416 
L 622 4863 
L 1947 4863 
z
" transform="scale(0.015625)"/>
      </defs>
      <use xlink:href="#DejaVuSans-50"/>
      <use xlink:href="#DejaVuSans-6f" transform="translate(56.677734 0)"/>
      <use xlink:href="#DejaVuSans-73" transform="translate(117.859375 0)"/>
      <use xlink:href="#DejaVuSans-69" transform="translate(169.958984 0)"/>
      <use xlink:href="#DejaVuSans-74" transform="translate(197.742188 0)"/>
      <use xlink:href="#DejaVuSans-69" transform="translate(236.951172 0)"/>
      <use xlink:href="#DejaVuSans-6f" transform="translate(264.734375 0)"/>
      <use xlink:href="#DejaVuSans-6e" transform="translate(325.916016 0)"/>
      <use xlink:href="#DejaVuSans-20" transform="translate(389.294922 0)"/>
      <use xlink:href="#DejaVuSans-45" transform="translate(421.082031 0)"/>
      <use xlink:href="#DejaVuSans-72" transform="translate(484.265625 0)"/>
      <use xlink:href="#DejaVuSans-72" transform="translate(523.628906 0)"/>
      <use xlink:href="#DejaVuSans-6f" transform="translate(562.492188 0)"/>
      <use xlink:href="#DejaVuSans-72" transform="translate(623.673828 0)"/>
      <use xlink:href="#DejaVuSans-20" transform="translate(664.787109 0)"/>
      <use xlink:href="#DejaVuSans-5b" transform="translate(696.574219 0)"/>
      <use xlink:href="#DejaVuSans-6d" transform="translate(735.587891 0)"/>
      <use xlink:href="#DejaVuSans-5d" transform="translate(833 0)"/>
     </g>
    </g>
   </g>
   <g id="line2d_15">
    <path d="M 68.242287 182.910703 
L 68.477219 175.961392 
L 68.712151 29.965391 
L 69.416948 148.193034 
L 69.886813 172.829334 
L 70.121745 121.479127 
L 70.591609 173.308843 
L 70.826542 145.451331 
L 71.766271 176.999109 
L 72.001203 164.343167 
L 72.471067 138.358446 
L 72.706 151.497007 
L 73.175864 179.80746 
L 73.880661 172.52172 
L 74.115593 154.359959 
L 75.055322 157.896954 
L 75.995051 181.252044 
L 76.229983 176.250019 
L 76.464915 179.044858 
L 76.699848 171.353728 
L 76.93478 161.269828 
L 77.404644 166.759456 
L 77.874509 181.600282 
L 78.344373 174.249407 
L 79.284102 166.826199 
L 78.814238 178.025524 
L 79.519035 168.688738 
L 79.988899 177.63932 
L 80.223831 177.419736 
L 80.458764 166.128371 
L 81.16356 173.018195 
L 81.398493 172.616924 
L 82.808086 182.158599 
L 83.043018 157.00597 
L 83.747815 175.416045 
L 85.392341 134.290455 
L 86.097137 131.542921 
L 86.33207 144.146737 
L 87.036866 112.904823 
L 87.271799 131.552749 
L 88.211528 178.679197 
L 88.44646 163.408019 
L 88.681392 161.449652 
L 89.856053 181.705751 
L 91.265647 172.814484 
L 91.500579 175.959431 
L 91.735511 169.99732 
L 91.970444 170.859851 
L 93.145105 137.186719 
L 93.380037 144.425407 
L 93.614969 134.13581 
L 94.319766 101.500636 
L 95.024563 108.080724 
L 95.259495 108.181361 
L 96.669088 93.936709 
L 97.138953 98.690073 
L 97.608817 97.458652 
L 99.018411 128.792504 
L 100.428004 99.520454 
L 99.488275 133.857027 
L 101.132801 100.93179 
L 101.367733 104.92637 
L 101.602666 100.794602 
L 101.837598 81.534827 
L 102.307462 101.473958 
L 102.542395 99.911097 
L 102.777327 101.558058 
L 103.012259 96.143817 
L 103.247191 94.962306 
L 103.482124 102.187493 
L 104.18692 99.996669 
L 104.421853 94.692476 
L 104.656785 98.940905 
L 105.831446 128.384711 
L 105.361582 97.702195 
L 106.301311 128.047583 
L 107.241039 111.074407 
L 107.475972 114.867929 
L 108.415701 129.698651 
L 108.650633 122.007024 
L 108.885565 128.680868 
L 109.590362 128.582317 
L 110.060226 140.396599 
L 110.295159 140.548916 
L 110.530091 134.344001 
L 110.999955 140.140648 
L 111.939684 154.170234 
L 112.409549 152.468963 
L 113.58421 129.431627 
L 114.054075 144.915168 
L 114.758871 141.845692 
L 114.993804 149.174022 
L 115.463668 140.854031 
L 116.403397 115.007555 
L 116.873262 124.770682 
L 117.108194 124.426049 
L 117.343126 125.96798 
L 117.81299 119.654345 
L 118.047923 128.082232 
L 118.282855 124.755809 
L 119.222584 141.511853 
L 119.457516 134.224531 
L 119.692448 125.854616 
L 120.397245 131.688751 
L 120.86711 144.478031 
L 121.336974 141.635873 
L 121.806839 155.379878 
L 122.276703 147.198777 
L 122.511635 147.708812 
L 122.746568 164.603786 
L 123.451364 151.887984 
L 123.686297 150.472554 
L 123.921229 153.910975 
L 124.156161 161.61386 
L 124.626026 154.891683 
L 126.270551 126.491479 
L 128.384941 163.537734 
L 128.854806 160.142531 
L 131.673993 113.595378 
L 134.258248 172.937156 
L 134.49318 165.453925 
L 135.197977 182.459329 
L 135.667841 174.131601 
L 136.842502 149.907473 
L 137.077435 156.049903 
L 137.547299 153.657609 
L 138.487028 167.49228 
L 139.191825 179.387785 
L 139.426757 178.336459 
L 139.661689 169.93225 
L 140.366486 170.756712 
L 140.601418 172.799107 
L 140.83635 168.043739 
L 142.011012 145.969318 
L 142.245944 147.827758 
L 142.715808 146.010547 
L 142.950741 146.873452 
L 143.185673 155.496672 
L 143.89047 144.692356 
L 144.595266 130.741934 
L 144.830199 135.118441 
L 146.709657 169.626302 
L 147.414453 169.848006 
L 147.884318 158.175972 
L 148.589114 170.468246 
L 149.528843 181.023263 
L 150.468572 165.638431 
L 150.703505 170.93689 
L 150.938437 168.832029 
L 151.408301 176.137339 
L 151.878166 174.880832 
L 152.582963 167.644867 
L 153.052827 171.952079 
L 153.522692 180.26544 
L 153.757624 168.400184 
L 153.992556 174.28367 
L 154.932285 165.005725 
L 155.167217 167.17814 
L 155.637082 166.30498 
L 156.106946 168.442086 
L 156.341879 172.360871 
L 156.576811 169.329322 
L 156.811743 159.749699 
L 157.51654 160.595937 
L 157.751472 162.396703 
L 158.456269 144.7977 
L 158.691201 154.689108 
L 159.63093 177.121263 
L 160.100794 165.141849 
L 160.335727 162.842646 
L 160.805591 165.545174 
L 161.275456 178.888482 
L 161.980252 177.03491 
L 162.215185 177.199239 
L 162.685049 165.469671 
L 162.919981 170.530635 
L 163.154914 181.444359 
L 163.85971 170.031142 
L 164.094643 176.756836 
L 164.329575 167.920377 
L 165.504236 143.57405 
L 165.739168 144.75657 
L 165.974101 144.635535 
L 166.209033 147.332753 
L 166.443965 139.471496 
L 166.678897 135.657969 
L 167.148762 143.650589 
L 167.618626 140.549422 
L 168.558355 140.082302 
L 168.793287 148.21918 
L 169.02822 147.059216 
L 170.672745 174.673354 
L 169.733016 146.037226 
L 170.907678 169.330531 
L 173.726865 112.214284 
L 174.431661 130.637384 
L 175.606323 148.44377 
L 175.841255 149.686859 
L 176.076187 147.368216 
L 177.015916 126.098547 
L 177.485781 126.229228 
L 178.190577 137.832901 
L 178.42551 128.767313 
L 178.660442 125.930984 
L 178.895374 133.807278 
L 179.600171 136.801596 
L 180.5399 121.251556 
L 180.774832 122.779888 
L 181.949493 160.857162 
L 182.889222 156.658733 
L 183.594019 124.155919 
L 184.063883 137.115567 
L 184.533748 120.386833 
L 185.238545 126.547615 
L 185.473477 127.977149 
L 185.943341 115.625914 
L 186.413206 124.174482 
L 187.118003 126.3221 
L 187.822799 136.293076 
L 188.057732 133.709397 
L 189.467325 119.457456 
L 189.937189 131.721487 
L 190.407054 121.404822 
L 190.641986 118.945099 
L 191.816647 133.213697 
L 192.05158 127.445476 
L 192.521444 140.016189 
L 194.16597 157.09714 
L 195.105699 167.569108 
L 195.340631 167.400561 
L 196.515292 144.537473 
L 196.750225 144.882943 
L 197.689954 127.362184 
L 197.924886 129.367738 
L 198.159818 127.14042 
L 198.39475 129.437084 
L 198.629683 128.006446 
L 200.274208 152.944316 
L 200.979005 134.112826 
L 202.153666 165.593769 
L 203.093395 144.808018 
L 203.328327 158.264097 
L 203.56326 156.690387 
L 204.268056 139.873203 
L 204.737921 146.549814 
L 204.972853 147.836183 
L 205.67765 127.884409 
L 206.147514 132.335557 
L 206.382447 132.46066 
L 207.79204 143.946525 
L 208.026972 135.24923 
L 208.496837 145.073221 
L 208.731769 142.21769 
L 210.376295 160.478835 
L 210.611227 160.098813 
L 212.02082 178.969633 
L 212.255753 166.981993 
L 212.960549 169.224916 
L 213.195482 171.404371 
L 213.430414 168.735167 
L 214.135211 148.766439 
L 214.840007 148.902207 
L 215.544804 131.363469 
L 215.779736 134.1057 
L 216.014669 113.299232 
L 216.719465 126.440621 
L 216.954398 124.767099 
L 217.894127 147.333781 
L 218.129059 134.583256 
L 218.363991 125.360491 
L 219.068788 127.64501 
L 221.653042 150.039514 
L 221.887975 148.927452 
L 223.062636 122.317726 
L 223.5325 125.301151 
L 224.002365 134.165421 
L 224.237297 121.038256 
L 224.472229 120.39438 
L 225.646891 156.077079 
L 225.881823 144.8523 
L 227.056484 123.848288 
L 227.291416 133.445425 
L 227.526349 143.933038 
L 227.996213 132.29714 
L 228.231145 138.343596 
L 228.70101 136.963956 
L 231.285264 181.213327 
L 231.755129 182.829089 
L 231.990061 179.694349 
L 232.92979 171.189518 
L 233.869519 182.024668 
L 234.104451 181.301401 
L 234.574316 172.058863 
L 235.514045 159.387633 
L 236.688706 176.340553 
L 237.158571 166.244479 
L 237.863367 169.303263 
L 238.0983 171.14668 
L 239.272961 151.825682 
L 239.507893 153.145748 
L 242.562012 182.835822 
L 243.031877 175.887635 
L 244.206538 165.067039 
L 244.44147 171.05565 
L 244.676402 173.895679 
L 245.381199 144.786476 
L 245.851064 155.262928 
L 247.025725 177.825926 
L 247.260657 173.242004 
L 247.495589 173.864406 
L 247.730522 172.483638 
L 247.965454 182.348588 
L 248.670251 175.369421 
L 249.60998 158.424095 
L 250.079844 162.545909 
L 250.549709 167.192842 
L 251.019573 165.01406 
L 251.254505 160.470982 
L 251.489437 172.147991 
L 252.194234 176.561113 
L 252.429166 174.280352 
L 252.899031 165.755669 
L 253.368895 170.482335 
L 253.83876 182.661335 
L 254.073692 177.983912 
L 255.248353 149.418974 
L 255.483286 149.196114 
L 256.423015 180.119428 
L 256.892879 176.146732 
L 257.127811 175.773522 
L 259.007269 147.995444 
L 260.651795 176.509922 
L 261.591524 166.719791 
L 263.001117 182.359128 
L 264.410711 139.444607 
L 264.645643 151.032252 
L 265.35044 142.207396 
L 265.585372 143.384249 
L 265.820304 143.106848 
L 267.229898 117.194178 
L 269.57922 162.356528 
L 269.814153 156.726091 
L 270.049085 147.908635 
L 270.518949 163.990998 
L 270.753882 163.626012 
L 271.693611 182.823924 
L 271.928543 180.822667 
L 272.398407 181.674979 
L 273.103204 170.606543 
L 274.042933 182.641964 
L 274.512797 182.56077 
L 274.74773 181.877448 
L 275.452526 174.781033 
L 275.687459 179.097986 
L 275.922391 182.172352 
L 276.392255 176.676931 
L 276.86212 177.732917 
L 277.566917 160.792946 
L 277.801849 176.202622 
L 278.271713 150.880834 
L 278.741578 139.299573 
L 279.211442 142.05479 
L 279.446375 154.850326 
L 280.386104 153.512448 
L 280.855968 142.197024 
L 281.560765 144.405541 
L 281.795697 152.285333 
L 282.265562 148.579988 
L 282.500494 141.331176 
L 283.20529 148.61893 
L 284.614884 178.593543 
L 285.084748 172.594605 
L 285.319681 170.142523 
L 285.789545 173.972747 
L 286.024477 171.532513 
L 286.25941 174.134978 
L 286.494342 171.902741 
L 290.018326 95.895382 
L 290.958055 122.931165 
L 291.192987 113.582768 
L 292.132716 94.319475 
L 292.367648 105.047484 
L 293.307377 103.665318 
L 293.542309 104.356129 
L 294.247106 118.536046 
L 294.482038 105.466479 
L 295.421767 94.127891 
L 295.656699 100.108227 
L 295.891632 102.321229 
L 296.126564 99.80871 
L 296.596428 95.420615 
L 297.066293 95.586288 
L 297.301225 99.702283 
L 297.536157 91.847096 
L 297.77109 80.749539 
L 298.475886 89.923425 
L 298.710819 89.6739 
L 300.825209 123.710075 
L 301.060141 118.767556 
L 301.764938 104.325164 
L 302.234802 104.362869 
L 302.939599 107.902678 
L 303.409463 120.295699 
L 303.879328 115.600736 
L 304.11426 111.495949 
L 304.349192 115.978057 
L 304.584125 113.490129 
L 306.22865 131.371827 
L 306.463583 128.513161 
L 306.698515 129.818496 
L 307.168379 139.504489 
L 307.638244 137.513831 
L 308.577973 119.414271 
L 308.812905 124.73411 
L 310.692363 147.884715 
L 310.927295 144.192809 
L 311.162228 135.708454 
L 311.632092 151.70463 
L 312.571821 139.400824 
L 313.041686 144.645711 
L 313.276618 144.001566 
L 313.746482 154.68885 
L 314.216347 144.450408 
L 314.921143 150.266381 
L 315.391008 131.880862 
L 316.565669 149.157497 
L 317.035534 155.568115 
L 317.270466 151.051536 
L 318.210195 140.183603 
L 318.445127 148.047097 
L 320.089653 180.461191 
L 321.264314 174.520235 
L 323.378704 137.156486 
L 321.734179 182.075278 
L 323.848569 140.933569 
L 324.083501 153.990801 
L 324.553365 148.061866 
L 325.728027 129.299522 
L 325.962959 130.323188 
L 326.197891 128.21657 
L 327.13762 107.065775 
L 327.372552 108.124156 
L 328.782146 136.96667 
L 329.017078 136.035547 
L 329.486943 137.548828 
L 329.956807 126.935244 
L 330.191739 141.282729 
L 330.661604 144.014195 
L 330.896536 141.223088 
L 331.131468 157.70518 
L 331.836265 145.929696 
L 332.30613 140.22204 
L 332.541062 148.378514 
L 332.775994 146.476183 
L 333.010926 145.615867 
L 333.245859 161.875668 
L 333.950655 152.940672 
L 334.42052 163.174289 
L 334.655452 171.454398 
L 335.125316 160.684159 
L 335.360249 166.641823 
L 336.065045 149.384305 
L 336.769842 155.520578 
L 337.004774 161.025214 
L 337.239707 152.021666 
L 338.6493 129.559509 
L 338.884232 130.865037 
L 340.293826 169.929431 
L 341.233555 167.0327 
L 341.703419 162.619392 
L 341.938352 168.451367 
L 342.643148 142.538654 
L 343.113013 144.636497 
L 343.347945 146.68135 
L 343.582877 143.534563 
L 344.052742 124.331884 
L 344.757538 136.846955 
L 344.992471 132.26838 
L 345.227403 146.550952 
L 345.462335 144.502875 
L 345.697267 150.400338 
L 345.9322 145.983816 
L 346.402064 143.817033 
L 347.576725 169.976984 
L 348.986319 147.637396 
L 350.16098 162.195193 
L 350.630845 153.81239 
L 351.100709 145.989957 
L 351.335641 155.009568 
L 351.570574 164.861025 
L 352.040438 145.426186 
L 352.27537 146.069404 
L 353.215099 153.82328 
L 354.859625 124.189553 
L 356.269218 140.412035 
L 357.44388 134.691737 
L 359.323338 179.290061 
L 359.55827 174.130403 
L 361.202796 139.171146 
L 361.67266 141.002418 
L 363.082254 169.330444 
L 363.317186 167.902012 
L 363.552118 168.323578 
L 364.021983 181.814235 
L 364.491847 169.924173 
L 366.371305 144.943201 
L 366.606237 155.321923 
L 367.076102 141.954142 
L 367.311034 130.942527 
L 367.780898 148.843237 
L 368.485695 127.086049 
L 369.660356 135.578015 
L 369.895289 135.937257 
L 371.304882 162.845528 
L 371.539814 153.302288 
L 372.009679 165.845706 
L 372.244611 176.400991 
L 372.479543 158.311519 
L 372.949408 174.999974 
L 374.359001 159.078555 
L 374.593934 154.147281 
L 375.063798 160.942591 
L 375.533662 160.495588 
L 376.003527 179.7573 
L 376.473391 174.703633 
L 376.708324 168.178867 
L 377.178188 177.851507 
L 377.41312 173.046818 
L 378.117917 181.544684 
L 378.352849 179.419284 
L 380.46724 153.961843 
L 381.172036 162.699086 
L 381.406969 159.074383 
L 381.641901 148.239772 
L 382.111765 166.046825 
L 382.816562 156.765931 
L 383.051494 148.522603 
L 383.521359 159.728267 
L 383.991223 166.683848 
L 384.461088 158.686614 
L 384.930952 166.247585 
L 385.165885 165.939625 
L 385.400817 154.410189 
L 386.105613 159.361372 
L 386.340546 164.673698 
L 386.81041 157.896632 
L 387.280275 150.240601 
L 388.220004 134.54637 
L 388.689868 135.080691 
L 389.159733 138.266872 
L 389.394665 134.99239 
L 389.864529 160.804146 
L 390.569326 160.487648 
L 390.804258 158.36138 
L 391.039191 161.41015 
L 392.448784 179.63626 
L 392.683716 180.592364 
L 392.918649 179.213961 
L 393.623445 162.468881 
L 393.858378 166.750449 
L 394.09331 177.229988 
L 394.798107 166.133456 
L 395.267971 162.438187 
L 395.502903 171.1663 
L 396.2077 168.404803 
L 397.617293 131.715937 
L 398.087158 138.860841 
L 398.557022 153.382639 
L 399.026887 142.077404 
L 399.261819 136.164788 
L 399.731684 140.746691 
L 400.201548 164.255201 
L 400.671413 155.487553 
L 401.376209 146.305972 
L 401.611142 148.232342 
L 402.081006 161.206486 
L 402.550871 149.150513 
L 402.785803 152.311267 
L 403.020735 152.217138 
L 404.430329 122.741144 
L 403.4906 152.909951 
L 404.665261 127.673246 
L 406.074854 119.157538 
L 406.309787 125.147027 
L 406.544719 117.892816 
L 406.779651 111.240301 
L 407.484448 116.251407 
L 408.659109 136.711967 
L 409.128973 130.289981 
L 409.363906 113.083313 
L 410.303635 113.370986 
L 410.538567 114.035892 
L 410.773499 125.473449 
L 411.243364 109.770692 
L 411.478296 112.584905 
L 412.183093 120.650116 
L 412.418025 114.594729 
L 412.887889 126.264905 
L 413.357754 117.063897 
L 413.592686 112.449415 
L 414.062551 119.084696 
L 414.297483 128.998818 
L 415.00228 127.464533 
L 415.237212 123.401561 
L 415.707076 130.350753 
L 415.942009 130.920254 
L 417.351602 151.672633 
L 418.526263 156.98943 
L 419.465992 143.109577 
L 419.700924 145.961 
L 419.935857 143.995957 
L 420.170789 144.341331 
L 421.34545 151.85494 
L 421.580382 151.259173 
L 422.285179 136.968871 
L 422.520111 145.20755 
L 422.755044 146.409109 
L 423.224908 140.423051 
L 423.694773 141.401452 
L 425.104366 168.026366 
L 425.574231 166.122888 
L 425.809163 165.009248 
L 426.279027 167.167587 
L 426.983824 177.492676 
L 428.393417 146.955849 
L 429.803011 123.179468 
L 430.74274 148.073041 
L 430.977672 138.737362 
L 432.387266 111.07726 
L 432.622198 118.646519 
L 432.85713 110.970594 
L 433.326995 114.20084 
L 433.561927 109.820087 
L 433.796859 120.338093 
L 435.676317 163.485968 
L 436.146182 157.354976 
L 436.616046 142.870739 
L 437.085911 155.154202 
L 437.790707 165.860219 
L 438.025639 153.22797 
L 438.260572 170.713704 
L 438.495504 165.108185 
L 439.670165 182.018319 
L 439.905097 180.913361 
L 441.549623 140.198526 
L 442.959217 181.489574 
L 443.194149 164.752416 
L 443.664013 160.531656 
L 443.898946 161.812898 
L 445.073607 178.681829 
L 445.778404 169.25603 
L 446.013336 178.107315 
L 446.248268 179.352145 
L 446.4832 178.943554 
L 448.127726 149.328705 
L 448.832523 163.464182 
L 449.302387 154.49882 
L 449.537319 156.608817 
L 449.772252 150.367859 
L 450.007184 150.511299 
L 450.242116 149.916963 
L 451.181845 177.764082 
L 451.416777 169.705633 
L 452.826371 142.489051 
L 453.531168 165.024639 
L 454.001032 156.06881 
L 454.940761 138.570732 
L 455.175693 142.782848 
L 456.115422 172.219136 
L 456.350355 168.830674 
L 457.525016 136.786691 
L 457.99488 139.351763 
L 458.934609 162.106374 
L 459.169541 154.077472 
L 459.404474 155.179517 
L 459.639406 154.944021 
L 461.283932 128.809563 
L 461.753796 137.649728 
L 462.693525 148.618745 
L 463.16339 146.179505 
L 463.398322 135.092001 
L 464.103119 138.894981 
L 464.338051 138.444709 
L 465.27778 120.250878 
L 465.512712 126.75278 
L 469.036696 158.999276 
L 469.271628 149.780585 
L 469.741492 156.820505 
L 470.446289 165.631118 
L 470.916154 162.03621 
L 471.151086 155.955834 
L 471.855883 157.281596 
L 472.090815 158.133769 
L 472.325747 147.448089 
L 473.030544 160.390126 
L 473.970273 180.456652 
L 474.205205 173.473329 
L 474.440137 173.826149 
L 475.144934 173.21908 
L 475.379866 178.087767 
L 477.494257 129.22817 
L 477.729189 137.368807 
L 478.199053 152.180737 
L 478.433986 139.593643 
L 479.373714 140.36239 
L 479.608647 133.979844 
L 481.723037 167.215073 
L 481.957969 161.78855 
L 482.662766 166.568216 
L 483.837427 144.864454 
L 484.307292 157.237796 
L 484.777156 156.169093 
L 485.951817 181.543707 
L 486.656614 178.306511 
L 487.126479 181.049941 
L 487.361411 164.83744 
L 488.066208 178.813427 
L 489.005937 182.726227 
L 489.240869 182.678535 
L 489.475801 172.876347 
L 490.180598 177.133521 
L 490.41553 175.775624 
L 490.650462 179.950419 
L 490.885394 181.747056 
L 491.355259 165.223124 
L 491.825123 172.156499 
L 492.52992 179.257476 
L 492.764852 177.196838 
L 493.234717 162.053602 
L 494.174446 165.518623 
L 494.64431 180.875859 
L 494.879243 172.018892 
L 495.114175 155.431546 
L 495.818972 173.656197 
L 496.053904 177.403672 
L 496.993633 139.616996 
L 497.228565 147.339703 
L 497.69843 162.083185 
L 498.403226 158.042607 
L 498.638159 153.184579 
L 499.108023 160.292659 
L 499.577887 153.830929 
L 499.81282 163.894012 
L 500.517616 157.596923 
L 500.752549 158.227141 
L 500.987481 151.323645 
L 501.692278 157.028387 
L 502.866939 146.173133 
L 503.571736 167.277307 
L 504.0416 157.749176 
L 504.276532 154.160467 
L 504.511465 164.282938 
L 504.746397 163.479353 
L 504.981329 166.928076 
L 505.216261 161.280555 
L 505.686126 144.411559 
L 506.625855 147.299876 
L 508.270381 182.439448 
L 508.505313 178.075121 
L 508.975177 165.1023 
L 509.445042 177.058033 
L 509.679974 174.913334 
L 510.619703 182.787671 
L 513.908754 119.064383 
L 514.143687 122.684396 
L 515.788212 174.714328 
L 516.493009 170.676274 
L 516.727941 167.865308 
L 516.962874 172.457212 
L 517.66767 179.948746 
L 518.137535 175.603993 
L 518.372467 175.77044 
L 518.607399 175.138737 
L 518.842332 164.115653 
L 519.547128 176.597346 
L 520.016993 172.14251 
L 520.251925 175.278572 
L 520.486857 181.725007 
L 521.191654 178.744235 
L 521.661518 172.039585 
L 522.131383 172.803726 
L 522.83618 182.787434 
L 523.071112 175.134835 
L 523.306044 175.85115 
L 524.010841 182.705648 
L 524.245773 182.280358 
L 525.655367 169.327663 
L 526.360163 181.00047 
L 526.595096 178.284437 
L 527.534825 153.698682 
L 527.769757 154.032473 
L 528.004689 161.950336 
L 528.474554 151.550472 
L 528.709486 152.768673 
L 530.119079 115.36549 
L 530.354012 117.280994 
L 531.528673 142.924734 
L 531.763605 139.371798 
L 531.998537 156.215133 
L 532.703334 142.266053 
L 533.877995 157.15856 
L 534.112927 150.810093 
L 534.34786 133.844004 
L 534.817724 148.370971 
L 535.757453 169.155305 
L 535.992385 165.65616 
L 536.227318 162.549562 
L 536.46225 168.820816 
L 536.697182 170.632769 
L 537.167047 182.672007 
L 537.401979 174.287009 
L 538.106776 148.077948 
L 538.106776 148.077948 
" clip-path="url(#p44f413299c)" style="fill: none; stroke: #e41a1c; stroke-width: 2; stroke-linecap: square"/>
   </g>
   <g id="patch_3">
    <path d="M 44.749063 190.557969 
L 44.749063 22.318125 
" style="fill: none; stroke: #7f7f7f; stroke-width: 1.8; stroke-linejoin: miter; stroke-linecap: square"/>
   </g>
   <g id="patch_4">
    <path d="M 44.749063 190.557969 
L 561.6 190.557969 
" style="fill: none; stroke: #7f7f7f; stroke-width: 1.8; stroke-linejoin: miter; stroke-linecap: square"/>
   </g>
   <g id="text_16">
    <!-- Kalman Filter Estimation Error -->
    <g style="fill: #7f7f7f" transform="translate(200.161094 16.318125) scale(0.12 -0.12)">
     <defs>
      <path id="DejaVuSans-Bold-4b" d="M 588 4666 
L 1791 4666 
L 1791 2963 
L 3525 4666 
L 4922 4666 
L 2675 2456 
L 5153 0 
L 3647 0 
L 1791 1838 
L 1791 0 
L 588 0 
L 588 4666 
z
" transform="scale(0.015625)"/>
      <path id="DejaVuSans-Bold-61" d="M 2106 1575 
Q 1756 1575 1579 1456 
Q 1403 1338 1403 1106 
Q 1403 894 1545 773 
Q 1688 653 1941 653 
Q 2256 653 2472 879 
Q 2688 1106 2688 1447 
L 2688 1575 
L 2106 1575 
z
M 3816 1997 
L 3816 0 
L 2688 0 
L 2688 519 
Q 2463 200 2181 54 
Q 1900 -91 1497 -91 
Q 953 -91 614 226 
Q 275 544 275 1050 
Q 275 1666 698 1953 
Q 1122 2241 2028 2241 
L 2688 2241 
L 2688 2328 
Q 2688 2594 2478 2717 
Q 2269 2841 1825 2841 
Q 1466 2841 1156 2769 
Q 847 2697 581 2553 
L 581 3406 
Q 941 3494 1303 3539 
Q 1666 3584 2028 3584 
Q 2975 3584 3395 3211 
Q 3816 2838 3816 1997 
z
" transform="scale(0.015625)"/>
      <path id="DejaVuSans-Bold-6c" d="M 538 4863 
L 1656 4863 
L 1656 0 
L 538 0 
L 538 4863 
z
" transform="scale(0.015625)"/>
      <path id="DejaVuSans-Bold-6d" d="M 3781 2919 
Q 3994 3244 4286 3414 
Q 4578 3584 4928 3584 
Q 5531 3584 5847 3212 
Q 6163 2841 6163 2131 
L 6163 0 
L 5038 0 
L 5038 1825 
Q 5041 1866 5042 1909 
Q 5044 1953 5044 2034 
Q 5044 2406 4934 2573 
Q 4825 2741 4581 2741 
Q 4263 2741 4089 2478 
Q 3916 2216 3909 1719 
L 3909 0 
L 2784 0 
L 2784 1825 
Q 2784 2406 2684 2573 
Q 2584 2741 2328 2741 
Q 2006 2741 1831 2477 
Q 1656 2213 1656 1722 
L 1656 0 
L 531 0 
L 531 3500 
L 1656 3500 
L 1656 2988 
Q 1863 3284 2130 3434 
Q 2397 3584 2719 3584 
Q 3081 3584 3359 3409 
Q 3638 3234 3781 2919 
z
" transform="scale(0.015625)"/>
      <path id="DejaVuSans-Bold-6e" d="M 4056 2131 
L 4056 0 
L 2931 0 
L 2931 347 
L 2931 1631 
Q 2931 2084 2911 2256 
Q 2891 2428 2841 2509 
Q 2775 2619 2662 2680 
Q 2550 2741 2406 2741 
Q 2056 2741 1856 2470 
Q 1656 2200 1656 1722 
L 1656 0 
L 538 0 
L 538 3500 
L 1656 3500 
L 1656 2988 
Q 1909 3294 2193 3439 
Q 2478 3584 2822 3584 
Q 3428 3584 3742 3212 
Q 4056 2841 4056 2131 
z
" transform="scale(0.015625)"/>
      <path id="DejaVuSans-Bold-20" transform="scale(0.015625)"/>
      <path id="DejaVuSans-Bold-46" d="M 588 4666 
L 3834 4666 
L 3834 3756 
L 1791 3756 
L 1791 2888 
L 3713 2888 
L 3713 1978 
L 1791 1978 
L 1791 0 
L 588 0 
L 588 4666 
z
" transform="scale(0.015625)"/>
      <path id="DejaVuSans-Bold-69" d="M 538 3500 
L 1656 3500 
L 1656 0 
L 538 0 
L 538 3500 
z
M 538 4863 
L 1656 4863 
L 1656 3950 
L 538 3950 
L 538 4863 
z
" transform="scale(0.015625)"/>
      <path id="DejaVuSans-Bold-74" d="M 1759 4494 
L 1759 3500 
L 2913 3500 
L 2913 2700 
L 1759 2700 
L 1759 1216 
Q 1759 972 1856 886 
Q 1953 800 2241 800 
L 2816 800 
L 2816 0 
L 1856 0 
Q 1194 0 917 276 
Q 641 553 641 1216 
L 641 2700 
L 84 2700 
L 84 3500 
L 641 3500 
L 641 4494 
L 1759 4494 
z
" transform="scale(0.015625)"/>
      <path id="DejaVuSans-Bold-65" d="M 4031 1759 
L 4031 1441 
L 1416 1441 
Q 1456 1047 1700 850 
Q 1944 653 2381 653 
Q 2734 653 3104 758 
Q 3475 863 3866 1075 
L 3866 213 
Q 3469 63 3072 -14 
Q 2675 -91 2278 -91 
Q 1328 -91 801 392 
Q 275 875 275 1747 
Q 275 2603 792 3093 
Q 1309 3584 2216 3584 
Q 3041 3584 3536 3087 
Q 4031 2591 4031 1759 
z
M 2881 2131 
Q 2881 2450 2695 2645 
Q 2509 2841 2209 2841 
Q 1884 2841 1681 2658 
Q 1478 2475 1428 2131 
L 2881 2131 
z
" transform="scale(0.015625)"/>
      <path id="DejaVuSans-Bold-72" d="M 3138 2547 
Q 2991 2616 2845 2648 
Q 2700 2681 2553 2681 
Q 2122 2681 1889 2404 
Q 1656 2128 1656 1613 
L 1656 0 
L 538 0 
L 538 3500 
L 1656 3500 
L 1656 2925 
Q 1872 3269 2151 3426 
Q 2431 3584 2822 3584 
Q 2878 3584 2943 3579 
Q 3009 3575 3134 3559 
L 3138 2547 
z
" transform="scale(0.015625)"/>
      <path id="DejaVuSans-Bold-45" d="M 588 4666 
L 3834 4666 
L 3834 3756 
L 1791 3756 
L 1791 2888 
L 3713 2888 
L 3713 1978 
L 1791 1978 
L 1791 909 
L 3903 909 
L 3903 0 
L 588 0 
L 588 4666 
z
" transform="scale(0.015625)"/>
      <path id="DejaVuSans-Bold-73" d="M 3272 3391 
L 3272 2541 
Q 2913 2691 2578 2766 
Q 2244 2841 1947 2841 
Q 1628 2841 1473 2761 
Q 1319 2681 1319 2516 
Q 1319 2381 1436 2309 
Q 1553 2238 1856 2203 
L 2053 2175 
Q 2913 2066 3209 1816 
Q 3506 1566 3506 1031 
Q 3506 472 3093 190 
Q 2681 -91 1863 -91 
Q 1516 -91 1145 -36 
Q 775 19 384 128 
L 384 978 
Q 719 816 1070 734 
Q 1422 653 1784 653 
Q 2113 653 2278 743 
Q 2444 834 2444 1013 
Q 2444 1163 2330 1236 
Q 2216 1309 1875 1350 
L 1678 1375 
Q 931 1469 631 1722 
Q 331 1975 331 2491 
Q 331 3047 712 3315 
Q 1094 3584 1881 3584 
Q 2191 3584 2531 3537 
Q 2872 3491 3272 3391 
z
" transform="scale(0.015625)"/>
      <path id="DejaVuSans-Bold-6f" d="M 2203 2784 
Q 1831 2784 1636 2517 
Q 1441 2250 1441 1747 
Q 1441 1244 1636 976 
Q 1831 709 2203 709 
Q 2569 709 2762 976 
Q 2956 1244 2956 1747 
Q 2956 2250 2762 2517 
Q 2569 2784 2203 2784 
z
M 2203 3584 
Q 3106 3584 3614 3096 
Q 4122 2609 4122 1747 
Q 4122 884 3614 396 
Q 3106 -91 2203 -91 
Q 1297 -91 786 396 
Q 275 884 275 1747 
Q 275 2609 786 3096 
Q 1297 3584 2203 3584 
z
" transform="scale(0.015625)"/>
     </defs>
     <use xlink:href="#DejaVuSans-Bold-4b"/>
     <use xlink:href="#DejaVuSans-Bold-61" transform="translate(77.490234 0)"/>
     <use xlink:href="#DejaVuSans-Bold-6c" transform="translate(144.970703 0)"/>
     <use xlink:href="#DejaVuSans-Bold-6d" transform="translate(179.248047 0)"/>
     <use xlink:href="#DejaVuSans-Bold-61" transform="translate(283.447266 0)"/>
     <use xlink:href="#DejaVuSans-Bold-6e" transform="translate(350.927734 0)"/>
     <use xlink:href="#DejaVuSans-Bold-20" transform="translate(422.119141 0)"/>
     <use xlink:href="#DejaVuSans-Bold-46" transform="translate(456.933594 0)"/>
     <use xlink:href="#DejaVuSans-Bold-69" transform="translate(525.244141 0)"/>
     <use xlink:href="#DejaVuSans-Bold-6c" transform="translate(559.521484 0)"/>
     <use xlink:href="#DejaVuSans-Bold-74" transform="translate(593.798828 0)"/>
     <use xlink:href="#DejaVuSans-Bold-65" transform="translate(641.601562 0)"/>
     <use xlink:href="#DejaVuSans-Bold-72" transform="translate(709.423828 0)"/>
     <use xlink:href="#DejaVuSans-Bold-20" transform="translate(758.740234 0)"/>
     <use xlink:href="#DejaVuSans-Bold-45" transform="translate(793.554688 0)"/>
     <use xlink:href="#DejaVuSans-Bold-73" transform="translate(861.865234 0)"/>
     <use xlink:href="#DejaVuSans-Bold-74" transform="translate(921.386719 0)"/>
     <use xlink:href="#DejaVuSans-Bold-69" transform="translate(969.189453 0)"/>
     <use xlink:href="#DejaVuSans-Bold-6d" transform="translate(1003.466797 0)"/>
     <use xlink:href="#DejaVuSans-Bold-61" transform="translate(1107.666016 0)"/>
     <use xlink:href="#DejaVuSans-Bold-74" transform="translate(1175.146484 0)"/>
     <use xlink:href="#DejaVuSans-Bold-69" transform="translate(1222.949219 0)"/>
     <use xlink:href="#DejaVuSans-Bold-6f" transform="translate(1257.226562 0)"/>
     <use xlink:href="#DejaVuSans-Bold-6e" transform="translate(1325.927734 0)"/>
     <use xlink:href="#DejaVuSans-Bold-20" transform="translate(1397.119141 0)"/>
     <use xlink:href="#DejaVuSans-Bold-45" transform="translate(1431.933594 0)"/>
     <use xlink:href="#DejaVuSans-Bold-72" transform="translate(1500.244141 0)"/>
     <use xlink:href="#DejaVuSans-Bold-72" transform="translate(1549.560547 0)"/>
     <use xlink:href="#DejaVuSans-Bold-6f" transform="translate(1598.876953 0)"/>
     <use xlink:href="#DejaVuSans-Bold-72" transform="translate(1667.578125 0)"/>
    </g>
   </g>
  </g>
  <g id="axes_2">
   <g id="patch_5">
    <path d="M 44.749063 386.275937 
L 561.6 386.275937 
L 561.6 218.036094 
L 44.749063 218.036094 
L 44.749063 386.275937 
z
" style="fill: none"/>
   </g>
   <g id="matplotlib.axis_3">
    <g id="xtick_10">
     <g id="line2d_16">
      <g>
       <use xlink:href="#m76ecb18d30" x="68.242287" y="386.275937" style="fill: #7f7f7f; stroke: #7f7f7f; stroke-width: 1.8"/>
      </g>
     </g>
     <g id="text_17">
      <!-- 0.0 -->
      <g style="fill: #7f7f7f" transform="translate(60.290724 400.874375) scale(0.1 -0.1)">
       <use xlink:href="#DejaVuSans-30"/>
       <use xlink:href="#DejaVuSans-2e" transform="translate(63.623047 0)"/>
       <use xlink:href="#DejaVuSans-30" transform="translate(95.410156 0)"/>
      </g>
     </g>
    </g>
    <g id="xtick_11">
     <g id="line2d_17">
      <g>
       <use xlink:href="#m76ecb18d30" x="126.975348" y="386.275937" style="fill: #7f7f7f; stroke: #7f7f7f; stroke-width: 1.8"/>
      </g>
     </g>
     <g id="text_18">
      <!-- 2.5 -->
      <g style="fill: #7f7f7f" transform="translate(119.023786 400.874375) scale(0.1 -0.1)">
       <use xlink:href="#DejaVuSans-32"/>
       <use xlink:href="#DejaVuSans-2e" transform="translate(63.623047 0)"/>
       <use xlink:href="#DejaVuSans-35" transform="translate(95.410156 0)"/>
      </g>
     </g>
    </g>
    <g id="xtick_12">
     <g id="line2d_18">
      <g>
       <use xlink:href="#m76ecb18d30" x="185.708409" y="386.275937" style="fill: #7f7f7f; stroke: #7f7f7f; stroke-width: 1.8"/>
      </g>
     </g>
     <g id="text_19">
      <!-- 5.0 -->
      <g style="fill: #7f7f7f" transform="translate(177.756847 400.874375) scale(0.1 -0.1)">
       <use xlink:href="#DejaVuSans-35"/>
       <use xlink:href="#DejaVuSans-2e" transform="translate(63.623047 0)"/>
       <use xlink:href="#DejaVuSans-30" transform="translate(95.410156 0)"/>
      </g>
     </g>
    </g>
    <g id="xtick_13">
     <g id="line2d_19">
      <g>
       <use xlink:href="#m76ecb18d30" x="244.44147" y="386.275937" style="fill: #7f7f7f; stroke: #7f7f7f; stroke-width: 1.8"/>
      </g>
     </g>
     <g id="text_20">
      <!-- 7.5 -->
      <g style="fill: #7f7f7f" transform="translate(236.489908 400.874375) scale(0.1 -0.1)">
       <use xlink:href="#DejaVuSans-37"/>
       <use xlink:href="#DejaVuSans-2e" transform="translate(63.623047 0)"/>
       <use xlink:href="#DejaVuSans-35" transform="translate(95.410156 0)"/>
      </g>
     </g>
    </g>
    <g id="xtick_14">
     <g id="line2d_20">
      <g>
       <use xlink:href="#m76ecb18d30" x="303.174531" y="386.275937" style="fill: #7f7f7f; stroke: #7f7f7f; stroke-width: 1.8"/>
      </g>
     </g>
     <g id="text_21">
      <!-- 10.0 -->
      <g style="fill: #7f7f7f" transform="translate(292.041719 400.874375) scale(0.1 -0.1)">
       <use xlink:href="#DejaVuSans-31"/>
       <use xlink:href="#DejaVuSans-30" transform="translate(63.623047 0)"/>
       <use xlink:href="#DejaVuSans-2e" transform="translate(127.246094 0)"/>
       <use xlink:href="#DejaVuSans-30" transform="translate(159.033203 0)"/>
      </g>
     </g>
    </g>
    <g id="xtick_15">
     <g id="line2d_21">
      <g>
       <use xlink:href="#m76ecb18d30" x="361.907592" y="386.275937" style="fill: #7f7f7f; stroke: #7f7f7f; stroke-width: 1.8"/>
      </g>
     </g>
     <g id="text_22">
      <!-- 12.5 -->
      <g style="fill: #7f7f7f" transform="translate(350.77478 400.874375) scale(0.1 -0.1)">
       <use xlink:href="#DejaVuSans-31"/>
       <use xlink:href="#DejaVuSans-32" transform="translate(63.623047 0)"/>
       <use xlink:href="#DejaVuSans-2e" transform="translate(127.246094 0)"/>
       <use xlink:href="#DejaVuSans-35" transform="translate(159.033203 0)"/>
      </g>
     </g>
    </g>
    <g id="xtick_16">
     <g id="line2d_22">
      <g>
       <use xlink:href="#m76ecb18d30" x="420.640653" y="386.275937" style="fill: #7f7f7f; stroke: #7f7f7f; stroke-width: 1.8"/>
      </g>
     </g>
     <g id="text_23">
      <!-- 15.0 -->
      <g style="fill: #7f7f7f" transform="translate(409.507841 400.874375) scale(0.1 -0.1)">
       <use xlink:href="#DejaVuSans-31"/>
       <use xlink:href="#DejaVuSans-35" transform="translate(63.623047 0)"/>
       <use xlink:href="#DejaVuSans-2e" transform="translate(127.246094 0)"/>
       <use xlink:href="#DejaVuSans-30" transform="translate(159.033203 0)"/>
      </g>
     </g>
    </g>
    <g id="xtick_17">
     <g id="line2d_23">
      <g>
       <use xlink:href="#m76ecb18d30" x="479.373714" y="386.275937" style="fill: #7f7f7f; stroke: #7f7f7f; stroke-width: 1.8"/>
      </g>
     </g>
     <g id="text_24">
      <!-- 17.5 -->
      <g style="fill: #7f7f7f" transform="translate(468.240902 400.874375) scale(0.1 -0.1)">
       <use xlink:href="#DejaVuSans-31"/>
       <use xlink:href="#DejaVuSans-37" transform="translate(63.623047 0)"/>
       <use xlink:href="#DejaVuSans-2e" transform="translate(127.246094 0)"/>
       <use xlink:href="#DejaVuSans-35" transform="translate(159.033203 0)"/>
      </g>
     </g>
    </g>
    <g id="xtick_18">
     <g id="line2d_24">
      <g>
       <use xlink:href="#m76ecb18d30" x="538.106776" y="386.275937" style="fill: #7f7f7f; stroke: #7f7f7f; stroke-width: 1.8"/>
      </g>
     </g>
     <g id="text_25">
      <!-- 20.0 -->
      <g style="fill: #7f7f7f" transform="translate(526.973963 400.874375) scale(0.1 -0.1)">
       <use xlink:href="#DejaVuSans-32"/>
       <use xlink:href="#DejaVuSans-30" transform="translate(63.623047 0)"/>
       <use xlink:href="#DejaVuSans-2e" transform="translate(127.246094 0)"/>
       <use xlink:href="#DejaVuSans-30" transform="translate(159.033203 0)"/>
      </g>
     </g>
    </g>
    <g id="text_26">
     <!-- Time [s] -->
     <g style="fill: #7f7f7f" transform="translate(280.812734 415.312344) scale(0.11 -0.11)">
      <defs>
       <path id="DejaVuSans-54" d="M -19 4666 
L 3928 4666 
L 3928 4134 
L 2272 4134 
L 2272 0 
L 1638 0 
L 1638 4134 
L -19 4134 
L -19 4666 
z
" transform="scale(0.015625)"/>
       <path id="DejaVuSans-65" d="M 3597 1894 
L 3597 1613 
L 953 1613 
Q 991 1019 1311 708 
Q 1631 397 2203 397 
Q 2534 397 2845 478 
Q 3156 559 3463 722 
L 3463 178 
Q 3153 47 2828 -22 
Q 2503 -91 2169 -91 
Q 1331 -91 842 396 
Q 353 884 353 1716 
Q 353 2575 817 3079 
Q 1281 3584 2069 3584 
Q 2775 3584 3186 3129 
Q 3597 2675 3597 1894 
z
M 3022 2063 
Q 3016 2534 2758 2815 
Q 2500 3097 2075 3097 
Q 1594 3097 1305 2825 
Q 1016 2553 972 2059 
L 3022 2063 
z
" transform="scale(0.015625)"/>
      </defs>
      <use xlink:href="#DejaVuSans-54"/>
      <use xlink:href="#DejaVuSans-69" transform="translate(57.958984 0)"/>
      <use xlink:href="#DejaVuSans-6d" transform="translate(85.742188 0)"/>
      <use xlink:href="#DejaVuSans-65" transform="translate(183.154297 0)"/>
      <use xlink:href="#DejaVuSans-20" transform="translate(244.677734 0)"/>
      <use xlink:href="#DejaVuSans-5b" transform="translate(276.464844 0)"/>
      <use xlink:href="#DejaVuSans-73" transform="translate(315.478516 0)"/>
      <use xlink:href="#DejaVuSans-5d" transform="translate(367.578125 0)"/>
     </g>
    </g>
   </g>
   <g id="matplotlib.axis_4">
    <g id="ytick_6">
     <g id="line2d_25">
      <g>
       <use xlink:href="#m523f7e9484" x="44.749063" y="378.630777" style="fill: #7f7f7f; stroke: #7f7f7f; stroke-width: 1.8"/>
      </g>
     </g>
     <g id="text_27">
      <!-- 0.0 -->
      <g style="fill: #7f7f7f" transform="translate(21.845938 382.429996) scale(0.1 -0.1)">
       <use xlink:href="#DejaVuSans-30"/>
       <use xlink:href="#DejaVuSans-2e" transform="translate(63.623047 0)"/>
       <use xlink:href="#DejaVuSans-30" transform="translate(95.410156 0)"/>
      </g>
     </g>
    </g>
    <g id="ytick_7">
     <g id="line2d_26">
      <g>
       <use xlink:href="#m523f7e9484" x="44.749063" y="342.071005" style="fill: #7f7f7f; stroke: #7f7f7f; stroke-width: 1.8"/>
      </g>
     </g>
     <g id="text_28">
      <!-- 0.5 -->
      <g style="fill: #7f7f7f" transform="translate(21.845938 345.870224) scale(0.1 -0.1)">
       <use xlink:href="#DejaVuSans-30"/>
       <use xlink:href="#DejaVuSans-2e" transform="translate(63.623047 0)"/>
       <use xlink:href="#DejaVuSans-35" transform="translate(95.410156 0)"/>
      </g>
     </g>
    </g>
    <g id="ytick_8">
     <g id="line2d_27">
      <g>
       <use xlink:href="#m523f7e9484" x="44.749063" y="305.511233" style="fill: #7f7f7f; stroke: #7f7f7f; stroke-width: 1.8"/>
      </g>
     </g>
     <g id="text_29">
      <!-- 1.0 -->
      <g style="fill: #7f7f7f" transform="translate(21.845938 309.310451) scale(0.1 -0.1)">
       <use xlink:href="#DejaVuSans-31"/>
       <use xlink:href="#DejaVuSans-2e" transform="translate(63.623047 0)"/>
       <use xlink:href="#DejaVuSans-30" transform="translate(95.410156 0)"/>
      </g>
     </g>
    </g>
    <g id="ytick_9">
     <g id="line2d_28">
      <g>
       <use xlink:href="#m523f7e9484" x="44.749063" y="268.95146" style="fill: #7f7f7f; stroke: #7f7f7f; stroke-width: 1.8"/>
      </g>
     </g>
     <g id="text_30">
      <!-- 1.5 -->
      <g style="fill: #7f7f7f" transform="translate(21.845938 272.750679) scale(0.1 -0.1)">
       <use xlink:href="#DejaVuSans-31"/>
       <use xlink:href="#DejaVuSans-2e" transform="translate(63.623047 0)"/>
       <use xlink:href="#DejaVuSans-35" transform="translate(95.410156 0)"/>
      </g>
     </g>
    </g>
    <g id="ytick_10">
     <g id="line2d_29">
      <g>
       <use xlink:href="#m523f7e9484" x="44.749063" y="232.391688" style="fill: #7f7f7f; stroke: #7f7f7f; stroke-width: 1.8"/>
      </g>
     </g>
     <g id="text_31">
      <!-- 2.0 -->
      <g style="fill: #7f7f7f" transform="translate(21.845938 236.190906) scale(0.1 -0.1)">
       <use xlink:href="#DejaVuSans-32"/>
       <use xlink:href="#DejaVuSans-2e" transform="translate(63.623047 0)"/>
       <use xlink:href="#DejaVuSans-30" transform="translate(95.410156 0)"/>
      </g>
     </g>
    </g>
    <g id="text_32">
     <!-- Velocity Error [m/s] -->
     <g style="fill: #7f7f7f" transform="translate(15.558281 354.999844) rotate(-90) scale(0.11 -0.11)">
      <defs>
       <path id="DejaVuSans-56" d="M 1831 0 
L 50 4666 
L 709 4666 
L 2188 738 
L 3669 4666 
L 4325 4666 
L 2547 0 
L 1831 0 
z
" transform="scale(0.015625)"/>
       <path id="DejaVuSans-6c" d="M 603 4863 
L 1178 4863 
L 1178 0 
L 603 0 
L 603 4863 
z
" transform="scale(0.015625)"/>
       <path id="DejaVuSans-63" d="M 3122 3366 
L 3122 2828 
Q 2878 2963 2633 3030 
Q 2388 3097 2138 3097 
Q 1578 3097 1268 2742 
Q 959 2388 959 1747 
Q 959 1106 1268 751 
Q 1578 397 2138 397 
Q 2388 397 2633 464 
Q 2878 531 3122 666 
L 3122 134 
Q 2881 22 2623 -34 
Q 2366 -91 2075 -91 
Q 1284 -91 818 406 
Q 353 903 353 1747 
Q 353 2603 823 3093 
Q 1294 3584 2113 3584 
Q 2378 3584 2631 3529 
Q 2884 3475 3122 3366 
z
" transform="scale(0.015625)"/>
       <path id="DejaVuSans-79" d="M 2059 -325 
Q 1816 -950 1584 -1140 
Q 1353 -1331 966 -1331 
L 506 -1331 
L 506 -850 
L 844 -850 
Q 1081 -850 1212 -737 
Q 1344 -625 1503 -206 
L 1606 56 
L 191 3500 
L 800 3500 
L 1894 763 
L 2988 3500 
L 3597 3500 
L 2059 -325 
z
" transform="scale(0.015625)"/>
       <path id="DejaVuSans-2f" d="M 1625 4666 
L 2156 4666 
L 531 -594 
L 0 -594 
L 1625 4666 
z
" transform="scale(0.015625)"/>
      </defs>
      <use xlink:href="#DejaVuSans-56"/>
      <use xlink:href="#DejaVuSans-65" transform="translate(60.658203 0)"/>
      <use xlink:href="#DejaVuSans-6c" transform="translate(122.181641 0)"/>
      <use xlink:href="#DejaVuSans-6f" transform="translate(149.964844 0)"/>
      <use xlink:href="#DejaVuSans-63" transform="translate(211.146484 0)"/>
      <use xlink:href="#DejaVuSans-69" transform="translate(266.126953 0)"/>
      <use xlink:href="#DejaVuSans-74" transform="translate(293.910156 0)"/>
      <use xlink:href="#DejaVuSans-79" transform="translate(333.119141 0)"/>
      <use xlink:href="#DejaVuSans-20" transform="translate(392.298828 0)"/>
      <use xlink:href="#DejaVuSans-45" transform="translate(424.085938 0)"/>
      <use xlink:href="#DejaVuSans-72" transform="translate(487.269531 0)"/>
      <use xlink:href="#DejaVuSans-72" transform="translate(526.632812 0)"/>
      <use xlink:href="#DejaVuSans-6f" transform="translate(565.496094 0)"/>
      <use xlink:href="#DejaVuSans-72" transform="translate(626.677734 0)"/>
      <use xlink:href="#DejaVuSans-20" transform="translate(667.791016 0)"/>
      <use xlink:href="#DejaVuSans-5b" transform="translate(699.578125 0)"/>
      <use xlink:href="#DejaVuSans-6d" transform="translate(738.591797 0)"/>
      <use xlink:href="#DejaVuSans-2f" transform="translate(836.003906 0)"/>
      <use xlink:href="#DejaVuSans-73" transform="translate(869.695312 0)"/>
      <use xlink:href="#DejaVuSans-5d" transform="translate(921.794922 0)"/>
     </g>
    </g>
   </g>
   <g id="line2d_30">
    <path d="M 68.242287 232.391688 
L 68.477219 232.391688 
L 68.712151 230.992829 
L 68.947084 233.649402 
L 70.121745 247.254321 
L 70.356677 241.539509 
L 70.826542 225.683359 
L 71.296406 233.583218 
L 72.471067 288.637052 
L 73.175864 270.242361 
L 73.880661 271.866876 
L 74.115593 262.013606 
L 76.229983 318.576994 
L 76.464915 318.62002 
L 77.169712 335.346722 
L 77.639577 325.705883 
L 78.109441 333.076907 
L 78.344373 323.775159 
L 78.579306 323.912949 
L 80.458764 350.756779 
L 80.693696 346.080736 
L 80.928628 351.313992 
L 81.398493 350.177096 
L 82.103289 344.078541 
L 82.573154 346.205357 
L 83.043018 362.917102 
L 83.747815 355.19854 
L 85.157409 335.706933 
L 85.392341 334.495269 
L 86.33207 342.240538 
L 86.567002 338.437283 
L 86.801934 338.668807 
L 87.036866 331.412187 
L 87.271799 340.086623 
L 88.211528 361.623302 
L 88.44646 355.850962 
L 88.681392 355.503937 
L 90.090986 367.127498 
L 90.325918 367.459034 
L 91.030715 368.115647 
L 91.735511 362.617154 
L 91.970444 363.209659 
L 93.145105 352.841454 
L 93.380037 355.855154 
L 93.849902 349.374072 
L 94.319766 342.55449 
L 95.024563 346.515168 
L 95.259495 347.080358 
L 95.494427 346.747177 
L 95.72936 343.62155 
L 96.434156 346.735861 
L 96.669088 345.405233 
L 97.138953 348.090999 
L 99.018411 361.532243 
L 100.428004 353.470085 
L 99.488275 363.811478 
L 101.132801 355.080952 
L 101.367733 356.802006 
L 101.602666 355.760793 
L 101.837598 349.647241 
L 102.307462 357.224666 
L 102.542395 357.041172 
L 103.012259 356.449968 
L 104.18692 359.390184 
L 104.421853 357.913122 
L 104.656785 359.674166 
L 106.301311 371.11712 
L 107.241039 366.040903 
L 107.475972 367.523693 
L 108.415701 373.040513 
L 108.650633 370.52919 
L 110.295159 377.245004 
L 110.530091 375.163512 
L 110.999955 377.207432 
L 111.234888 378.528841 
L 111.704752 378.064472 
L 112.879413 374.007491 
L 113.349278 375.468898 
L 113.58421 373.686421 
L 114.523939 378.615304 
L 114.758871 377.994008 
L 116.403397 369.104997 
L 116.638329 369.628202 
L 117.343126 373.336109 
L 117.578058 371.660356 
L 117.81299 371.380248 
L 119.222584 378.091936 
L 119.692448 373.844697 
L 120.397245 376.021288 
L 120.86711 376.799304 
L 121.336974 377.866209 
L 121.806839 373.208093 
L 122.276703 376.143842 
L 122.511635 376.009915 
L 122.746568 370.278023 
L 123.451364 374.946286 
L 123.686297 375.489945 
L 123.921229 374.365651 
L 124.156161 371.801923 
L 124.626026 374.299707 
L 125.565755 378.525863 
L 125.800687 376.96866 
L 126.035619 377.024505 
L 126.270551 373.098577 
L 126.975348 377.076492 
L 127.445212 376.952431 
L 127.680145 378.096329 
L 127.915077 377.02795 
L 128.384941 371.411111 
L 128.854806 372.759712 
L 130.264399 376.896381 
L 131.673993 368.865392 
L 133.083586 377.041323 
L 133.318519 375.36545 
L 134.258248 368.079531 
L 134.49318 370.807738 
L 134.963044 366.370408 
L 135.197977 365.47087 
L 135.902773 371.109445 
L 136.372638 369.227481 
L 136.842502 377.674275 
L 137.782231 373.723703 
L 139.191825 366.010665 
L 139.426757 368.981658 
L 140.366486 372.115121 
L 140.601418 371.523196 
L 141.776079 378.59279 
L 142.245944 377.043881 
L 143.89047 376.120518 
L 144.595266 371.534636 
L 144.830199 373.144787 
L 145.769928 377.957853 
L 146.00486 377.447968 
L 146.709657 372.281761 
L 147.649386 372.644591 
L 147.884318 376.63039 
L 148.589114 372.55667 
L 150.468572 363.699683 
L 151.408301 368.12923 
L 151.878166 368.06078 
L 152.582963 366.129686 
L 152.817895 368.238039 
L 153.052827 367.972598 
L 154.227488 377.482555 
L 154.462421 377.410026 
L 154.697353 375.841881 
L 154.932285 378.389533 
L 155.40215 377.569785 
L 155.637082 377.982758 
L 155.872014 377.294819 
L 156.106946 377.284947 
L 156.341879 375.968172 
L 156.811743 376.916586 
L 157.751472 377.881654 
L 158.456269 372.048994 
L 158.691201 375.534666 
L 159.161065 377.12225 
L 159.395998 375.402039 
L 159.63093 374.059907 
L 159.865862 375.147596 
L 160.570659 378.60411 
L 160.805591 378.143852 
L 162.215185 370.575823 
L 162.685049 366.846223 
L 162.919981 368.766316 
L 163.154914 372.654514 
L 163.85971 369.111982 
L 164.094643 371.563962 
L 164.329575 368.660184 
L 165.504236 361.452822 
L 165.739168 362.13561 
L 166.209033 363.547469 
L 166.678897 360.088716 
L 167.148762 363.412399 
L 167.618626 362.855571 
L 168.793287 366.662917 
L 169.02822 366.460949 
L 170.672745 376.942979 
L 170.907678 375.145291 
L 173.022068 357.964487 
L 173.726865 358.159434 
L 175.841255 372.753601 
L 176.546052 370.266406 
L 177.015916 365.328072 
L 177.955645 366.795478 
L 178.190577 370.334158 
L 178.660442 366.585951 
L 179.130306 369.793112 
L 179.600171 370.928169 
L 179.835103 369.459872 
L 180.5399 366.253885 
L 180.774832 366.976866 
L 181.714561 378.469325 
L 182.65429 377.229668 
L 182.889222 378.277768 
L 183.594019 368.149672 
L 183.828951 370.847618 
L 184.063883 372.873107 
L 184.298816 368.203009 
L 184.533748 367.42138 
L 184.76868 368.574789 
L 185.473477 370.644922 
L 185.943341 366.730789 
L 186.413206 369.99393 
L 187.118003 371.125797 
L 187.822799 374.812855 
L 188.057732 373.992257 
L 188.527596 369.894285 
L 189.232393 371.241372 
L 189.467325 369.771104 
L 189.702257 370.778979 
L 189.937189 374.231713 
L 190.641986 370.141576 
L 190.876918 373.786226 
L 191.346783 371.604966 
L 191.581715 372.954205 
L 192.756376 378.602123 
L 193.696105 373.614502 
L 193.931038 375.372826 
L 195.105699 370.543147 
L 195.340631 370.732005 
L 196.515292 378.512959 
L 196.750225 378.628672 
L 197.689954 372.82631 
L 197.924886 373.605621 
L 198.159818 372.926351 
L 198.39475 373.803478 
L 198.629683 373.393139 
L 200.039276 378.603153 
L 201.213937 373.39228 
L 201.448869 378.332215 
L 201.918734 373.75875 
L 202.153666 371.188568 
L 202.623531 376.620109 
L 202.858463 373.41923 
L 203.093395 378.608136 
L 204.033124 378.477058 
L 205.67765 372.847123 
L 207.79204 378.463167 
L 208.026972 375.824711 
L 208.731769 378.24813 
L 211.316024 367.813007 
L 211.785888 369.154144 
L 212.255753 361.140632 
L 212.960549 362.647982 
L 213.195482 363.651918 
L 213.665346 362.24717 
L 215.544804 353.21179 
L 215.779736 354.561142 
L 216.014669 347.844463 
L 216.719465 353.752607 
L 216.954398 353.584779 
L 217.894127 362.710208 
L 218.129059 358.613121 
L 218.363991 355.787607 
L 219.068788 357.655646 
L 221.653042 368.178295 
L 221.887975 367.968091 
L 223.062636 360.095489 
L 223.297568 361.12119 
L 224.002365 365.233618 
L 224.237297 360.96691 
L 224.472229 361.033697 
L 225.646891 374.095751 
L 225.881823 370.335034 
L 227.056484 363.998545 
L 227.291416 367.514403 
L 227.526349 371.277372 
L 228.231145 369.801852 
L 228.70101 369.620631 
L 230.110603 378.564855 
L 230.345536 378.155329 
L 231.755129 372.006232 
L 232.224993 368.410542 
L 232.92979 368.723263 
L 234.104451 373.853838 
L 236.218842 378.548786 
L 236.688706 375.688057 
L 237.158571 378.05656 
L 237.393503 378.072778 
L 237.863367 378.188538 
L 239.272961 373.32674 
L 240.447622 376.906791 
L 240.682554 375.378535 
L 241.857215 371.961611 
L 243.501741 377.985808 
L 243.971606 377.334176 
L 244.676402 377.031741 
L 245.146267 370.376858 
L 245.851064 374.261553 
L 246.320928 378.170563 
L 246.790793 376.689095 
L 247.025725 375.279998 
L 247.260657 376.900237 
L 247.495589 376.715718 
L 247.730522 377.218469 
L 248.200386 372.251871 
L 248.670251 376.501685 
L 248.905183 378.436896 
L 249.375047 378.219717 
L 249.60998 374.950083 
L 250.314776 376.789253 
L 250.549709 378.121792 
L 251.019573 377.404451 
L 252.194234 375.952801 
L 253.368895 378.070219 
L 253.83876 373.981384 
L 254.543557 374.368341 
L 254.778489 374.51615 
L 255.013421 372.054157 
L 255.483286 372.125413 
L 255.95315 378.45438 
L 256.423015 374.461028 
L 257.832608 378.100163 
L 259.007269 371.83687 
L 260.181931 377.578394 
L 260.651795 375.372774 
L 261.12166 376.552936 
L 261.356592 378.519128 
L 261.826456 376.362292 
L 263.001117 373.732121 
L 264.410711 359.788057 
L 264.645643 364.052211 
L 265.35044 361.806627 
L 265.820304 362.649119 
L 267.229898 355.679207 
L 269.57922 373.538966 
L 269.814153 371.698289 
L 270.049085 368.798819 
L 270.518949 374.562381 
L 270.753882 374.503745 
L 271.458678 378.275094 
L 271.693611 376.08542 
L 272.163475 373.868927 
L 272.398407 376.707541 
L 272.633339 376.785925 
L 273.103204 372.196793 
L 273.338136 373.850177 
L 273.573068 378.614311 
L 274.277865 373.842569 
L 274.512797 376.815933 
L 275.217594 374.0738 
L 275.452526 374.123632 
L 275.922391 377.274108 
L 276.392255 374.949635 
L 276.86212 375.482883 
L 277.566917 369.927439 
L 277.801849 375.332592 
L 278.271713 366.872879 
L 278.741578 363.33966 
L 279.211442 364.758268 
L 280.386104 369.511353 
L 280.855968 365.974885 
L 281.560765 367.268041 
L 281.795697 370.14419 
L 282.500494 366.867903 
L 285.084748 378.395464 
L 285.319681 377.561664 
L 286.024477 378.058259 
L 286.494342 378.188733 
L 290.018326 355.515608 
L 290.958055 365.927263 
L 291.192987 362.940106 
L 291.897784 357.341939 
L 292.132716 357.594046 
L 293.307377 362.223633 
L 293.777241 364.992339 
L 294.247106 368.251158 
L 294.482038 363.955144 
L 295.186835 360.852536 
L 295.656699 363.446675 
L 295.891632 364.449105 
L 296.361496 362.768848 
L 296.596428 362.819977 
L 297.301225 365.015682 
L 297.536157 362.553395 
L 297.77109 359.0235 
L 298.475886 363.032622 
L 298.710819 363.200585 
L 300.825209 376.055421 
L 301.060141 374.408884 
L 301.764938 369.816999 
L 302.234802 370.098902 
L 302.939599 371.704797 
L 303.409463 376.12205 
L 303.879328 374.608244 
L 304.11426 373.271364 
L 304.349192 374.889429 
L 304.584125 374.100296 
L 305.758786 378.438797 
L 305.993718 377.433124 
L 307.168379 374.281177 
L 306.463583 377.942705 
L 307.638244 375.062441 
L 308.343041 377.938802 
L 308.812905 377.795427 
L 309.047837 378.361125 
L 309.28277 376.617052 
L 309.517702 377.47897 
L 310.692363 371.762247 
L 310.927295 373.134879 
L 311.162228 376.122309 
L 311.632092 370.811984 
L 312.571821 375.406563 
L 313.041686 373.766295 
L 313.276618 374.065296 
L 313.51155 372.941353 
L 313.746482 370.581033 
L 314.216347 374.297817 
L 314.921143 372.469 
L 315.391008 378.349799 
L 316.565669 373.22018 
L 317.035534 371.216649 
L 317.270466 372.879842 
L 318.210195 376.863965 
L 318.445127 374.206512 
L 320.79445 358.796438 
L 321.499246 360.557255 
L 321.734179 365.485366 
L 322.438975 359.938065 
L 323.378704 351.738203 
L 323.848569 353.856214 
L 324.083501 358.718662 
L 324.788298 354.095793 
L 325.258162 355.030991 
L 325.728027 352.88766 
L 325.962959 353.655219 
L 326.197891 353.341029 
L 327.13762 347.951126 
L 327.372552 348.810677 
L 328.782146 361.057878 
L 329.017078 361.025066 
L 329.486943 362.106364 
L 329.956807 359.048957 
L 330.191739 364.267857 
L 330.661604 365.656298 
L 330.896536 364.91348 
L 331.131468 370.766355 
L 331.836265 367.19926 
L 332.30613 365.631307 
L 333.245859 373.744024 
L 333.715723 371.344434 
L 333.950655 370.984755 
L 334.185587 371.691415 
L 334.655452 377.609245 
L 335.360249 376.114727 
L 336.065045 370.388765 
L 336.769842 372.843513 
L 337.004774 374.817814 
L 337.239707 371.804138 
L 338.6493 365.065627 
L 338.884232 365.731788 
L 341.233555 378.527247 
L 341.703419 377.231631 
L 341.938352 378.015037 
L 342.643148 370.576641 
L 343.113013 371.515379 
L 343.347945 372.329393 
L 343.582877 371.356754 
L 344.052742 365.072038 
L 344.522606 370.198303 
L 344.992471 368.487382 
L 346.167132 375.143686 
L 346.402064 372.969908 
L 346.871929 376.500795 
L 347.576725 375.261664 
L 347.811658 378.506478 
L 348.516454 375.073411 
L 348.986319 374.475836 
L 350.395912 378.626566 
L 351.100709 374.18531 
L 351.570574 376.536837 
L 351.805506 378.053657 
L 352.040438 374.061245 
L 352.27537 374.355141 
L 353.215099 377.18801 
L 354.154828 369.212756 
L 354.389761 371.078819 
L 354.624693 371.61564 
L 354.859625 367.673748 
L 355.564422 371.561793 
L 356.034286 372.146754 
L 357.208947 374.193715 
L 357.44388 372.443493 
L 357.678812 375.19976 
L 357.913744 374.144282 
L 358.853473 378.48272 
L 359.323338 369.272435 
L 359.793202 373.479814 
L 360.497999 378.029775 
L 360.967863 376.737503 
L 361.202796 373.94835 
L 361.67266 374.718856 
L 361.907592 378.587212 
L 362.612389 376.689837 
L 362.847321 376.582809 
L 364.021983 368.978211 
L 364.256915 369.455511 
L 365.666508 377.270375 
L 365.90144 378.02722 
L 366.136373 377.379437 
L 366.606237 378.607156 
L 367.311034 370.470812 
L 367.780898 376.777627 
L 368.250763 372.640149 
L 368.485695 369.519344 
L 368.95556 373.548254 
L 369.190492 371.088147 
L 370.600085 378.604395 
L 371.06995 377.851797 
L 371.539814 378.029405 
L 372.244611 370.283441 
L 372.479543 376.598221 
L 372.949408 371.012207 
L 374.124069 364.097936 
L 374.593934 360.020935 
L 375.063798 362.910011 
L 375.533662 363.26533 
L 376.003527 372.408907 
L 376.473391 368.805028 
L 376.708324 366.735696 
L 377.178188 370.417517 
L 377.41312 368.909581 
L 378.117917 372.220061 
L 378.822714 371.264966 
L 379.527511 366.051944 
L 379.997375 366.456136 
L 380.46724 364.406234 
L 380.937104 366.690541 
L 381.172036 368.02574 
L 381.406969 366.959706 
L 381.641901 363.448106 
L 382.111765 369.993081 
L 382.58163 369.063777 
L 383.051494 364.63251 
L 383.521359 368.899611 
L 383.991223 371.56139 
L 384.69602 370.695437 
L 385.165885 371.950107 
L 385.400817 368.12015 
L 386.105613 370.293041 
L 386.340546 372.243051 
L 387.045342 369.823374 
L 388.220004 363.314062 
L 388.689868 363.968386 
L 389.159733 365.524453 
L 389.394665 364.618656 
L 390.569326 373.932329 
L 390.804258 373.282274 
L 391.039191 374.41054 
L 391.97892 377.727013 
L 392.213852 377.083184 
L 392.918649 374.167399 
L 393.623445 368.774 
L 393.858378 370.396566 
L 394.09331 374.109991 
L 394.798107 370.640495 
L 395.267971 369.645328 
L 395.502903 372.772669 
L 396.2077 372.153106 
L 397.617293 360.76207 
L 398.087158 363.76385 
L 398.557022 369.144985 
L 399.026887 365.619799 
L 399.261819 363.81128 
L 399.731684 365.837769 
L 400.201548 374.18527 
L 400.671413 371.360029 
L 401.376209 368.612024 
L 401.611142 369.432694 
L 402.081006 374.116468 
L 402.550871 370.154367 
L 403.255667 368.604395 
L 403.4906 371.973203 
L 404.430329 362.395835 
L 404.900193 363.891617 
L 405.370058 364.87676 
L 405.60499 364.443312 
L 406.309787 365.1446 
L 406.779651 360.868631 
L 408.659109 371.310889 
L 408.894041 369.591192 
L 409.128973 369.382726 
L 409.363906 363.655129 
L 410.303635 364.618909 
L 410.538567 365.073488 
L 410.773499 369.200576 
L 411.243364 364.143695 
L 411.713228 368.178359 
L 412.418025 366.747448 
L 412.652957 368.173705 
L 412.887889 371.096571 
L 413.357754 368.213656 
L 413.592686 366.806468 
L 414.062551 369.419426 
L 414.297483 372.955569 
L 415.00228 372.719818 
L 415.237212 371.427876 
L 415.707076 374.01641 
L 415.942009 374.285852 
L 416.646805 378.279773 
L 416.881737 375.898866 
L 417.11667 376.789229 
L 417.586534 375.498887 
L 417.821466 375.736957 
L 418.291331 375.371091 
L 418.526263 374.285912 
L 418.761195 377.713971 
L 419.23106 375.691252 
L 420.170789 378.495103 
L 421.34545 376.29263 
L 423.929705 377.647475 
L 424.399569 378.248062 
L 426.983824 364.85057 
L 428.158485 356.117234 
L 428.393417 356.308816 
L 428.62835 355.559559 
L 429.803011 350.560463 
L 430.74274 360.530058 
L 430.977672 357.634857 
L 431.682469 358.135614 
L 432.387266 350.307672 
L 432.622198 353.353056 
L 433.326995 353.112347 
L 433.561927 352.030135 
L 435.676317 372.730766 
L 436.616046 366.202516 
L 436.850978 367.644023 
L 438.260572 376.595841 
L 438.965368 377.813166 
L 439.200301 373.97721 
L 439.670165 376.170664 
L 440.14003 376.110513 
L 440.844826 366.449746 
L 441.549623 366.922697 
L 442.489352 376.851956 
L 442.959217 375.792085 
L 443.664013 368.032383 
L 443.898946 368.64209 
L 445.073607 375.011334 
L 445.308539 374.141875 
L 445.543471 374.518696 
L 445.778404 371.989895 
L 446.248268 375.60345 
L 446.4832 378.223338 
L 447.187997 375.560964 
L 448.127726 369.254211 
L 448.59759 371.108216 
L 448.832523 374.473301 
L 449.537319 372.43294 
L 449.772252 370.401665 
L 450.242116 370.511839 
L 450.946913 377.869182 
L 451.416777 377.525841 
L 452.356506 368.648277 
L 452.826371 368.921306 
L 453.531168 376.998029 
L 454.001032 374.040055 
L 454.940761 368.421488 
L 455.175693 370.026052 
L 455.88049 378.341376 
L 456.350355 378.134888 
L 457.525016 368.483745 
L 457.99488 369.652126 
L 458.934609 377.682507 
L 459.169541 374.955264 
L 459.639406 375.36352 
L 459.874338 374.313677 
L 461.283932 367.175547 
L 462.693525 374.732202 
L 465.27778 366.268827 
L 466.922306 375.199774 
L 467.157238 373.393335 
L 467.39217 373.846968 
L 467.627102 378.46853 
L 468.566831 377.369766 
L 469.036696 376.550192 
L 469.271628 377.528527 
L 469.50656 377.943402 
L 469.741492 377.321489 
L 470.446289 374.433241 
L 470.916154 375.789302 
L 471.151086 377.912455 
L 471.855883 377.52972 
L 472.325747 376.332573 
L 472.560679 378.565148 
L 473.030544 376.462937 
L 474.205205 366.10401 
L 474.440137 366.427874 
L 475.379866 368.622111 
L 477.494257 354.627001 
L 477.729189 357.797451 
L 478.199053 363.500489 
L 478.668918 358.137231 
L 481.01824 365.341865 
L 482.427834 372.776342 
L 483.13263 372.044422 
L 483.602495 365.84095 
L 484.072359 369.285859 
L 485.951817 377.779603 
L 486.18675 376.63063 
L 487.361411 371.338769 
L 487.596343 374.343995 
L 487.831275 378.517106 
L 488.536072 377.679372 
L 489.005937 377.869729 
L 489.475801 376.000334 
L 490.650462 378.500459 
L 491.355259 371.815935 
L 492.060056 376.292058 
L 492.52992 377.877655 
L 492.764852 376.171919 
L 493.234717 371.10432 
L 493.704581 374.458676 
L 494.174446 372.612496 
L 494.64431 377.87693 
L 495.114175 369.258657 
L 495.584039 373.534549 
L 496.053904 376.331753 
L 496.288836 372.029955 
L 496.993633 363.92708 
L 497.228565 366.803802 
L 497.69843 372.148785 
L 498.403226 371.173813 
L 498.638159 369.635379 
L 499.108023 372.350282 
L 499.342955 370.181934 
L 499.577887 370.382082 
L 499.81282 373.953483 
L 500.517616 372.110303 
L 500.752549 372.431428 
L 500.987481 370.173858 
L 501.222413 372.540986 
L 501.692278 372.481842 
L 502.866939 369.343761 
L 503.571736 376.930647 
L 504.0416 373.792939 
L 504.276532 372.645583 
L 504.511465 376.200529 
L 504.746397 375.965477 
L 504.981329 377.18681 
L 505.216261 375.281082 
L 505.686126 369.665985 
L 506.625855 371.111572 
L 507.800516 377.507212 
L 508.035448 375.31851 
L 508.975177 367.993716 
L 509.21011 370.601121 
L 510.149838 376.798299 
L 510.619703 374.677626 
L 512.499161 363.511378 
L 512.734093 366.959692 
L 513.203958 360.858543 
L 513.43889 360.987144 
L 513.908754 355.653588 
L 514.378619 360.423795 
L 515.788212 376.375402 
L 516.493009 375.152086 
L 516.727941 374.248341 
L 516.962874 375.888053 
L 517.66767 378.53228 
L 518.137535 377.066668 
L 518.842332 371.366126 
L 519.312196 374.058789 
L 520.486857 378.578937 
L 521.661518 374.630835 
L 522.83618 378.586248 
L 523.071112 376.060492 
L 523.775909 377.23639 
L 524.010841 378.558287 
L 524.480705 377.343097 
L 525.655367 374.045182 
L 526.360163 377.776713 
L 526.595096 377.23814 
L 527.534825 369.174793 
L 527.769757 369.442311 
L 528.004689 372.29617 
L 528.474554 368.970657 
L 528.709486 369.543598 
L 530.119079 358.096477 
L 530.354012 359.08413 
L 531.528673 368.922212 
L 531.763605 367.866142 
L 531.998537 373.794486 
L 532.703334 369.358222 
L 533.877995 375.033778 
L 534.112927 372.92356 
L 534.34786 367.220665 
L 534.817724 372.479728 
L 535.992385 378.546264 
L 537.636911 366.895797 
L 538.106776 361.682473 
L 538.106776 361.682473 
" clip-path="url(#pab706f51b1)" style="fill: none; stroke: #e41a1c; stroke-width: 2; stroke-linecap: square"/>
   </g>
   <g id="patch_6">
    <path d="M 44.749063 386.275937 
L 44.749063 218.036094 
" style="fill: none; stroke: #7f7f7f; stroke-width: 1.8; stroke-linejoin: miter; stroke-linecap: square"/>
   </g>
   <g id="patch_7">
    <path d="M 44.749063 386.275937 
L 561.6 386.275937 
" style="fill: none; stroke: #7f7f7f; stroke-width: 1.8; stroke-linejoin: miter; stroke-linecap: square"/>
   </g>
  </g>
 </g>
 <defs>
  <clipPath id="p44f413299c">
   <rect x="44.749063" y="22.318125" width="516.850937" height="168.239844"/>
  </clipPath>
  <clipPath id="pab706f51b1">
   <rect x="44.749063" y="218.036094" width="516.850937" height="168.239844"/>
  </clipPath>
 </defs>
</svg>
