<?xml version="1.0" encoding="utf-8" standalone="no"?>
<!DOCTYPE svg PUBLIC "-//W3C//DTD SVG 1.1//EN"
  "http://www.w3.org/Graphics/SVG/1.1/DTD/svg11.dtd">
<svg xmlns:xlink="http://www.w3.org/1999/xlink" width="568.8pt" height="424.8pt" viewBox="0 0 568.8 424.8" xmlns="http://www.w3.org/2000/svg" version="1.1">
 <metadata>
  <rdf:RDF xmlns:dc="http://purl.org/dc/elements/1.1/" xmlns:cc="http://creativecommons.org/ns#" xmlns:rdf="http://www.w3.org/1999/02/22-rdf-syntax-ns#">
   <cc:Work>
    <dc:type rdf:resource="http://purl.org/dc/dcmitype/StillImage"/>
    <dc:date>2026-07-22T13:49:59.627480</dc:date>
    <dc:format>image/svg+xml</dc:format>
    <dc:creator>
     <cc:Agent>
      <dc:title>Matplotlib v3.11.1, https://matplotlib.org/</dc:title>
     </cc:Agent>
    </dc:creator>
   </cc:Work>
  </rdf:RDF>
 </metadata>
 <defs>
  <style type="text/css">*{stroke-linejoin: round; stroke-linecap: butt}</style>
 </defs>
 <g id="figure_1">
  <g id="patch_1">
   <path d="M 0 424.8 
L 568.8 424.8 
L 568.8 0 
L 0 0 
L 0 424.8 
z
" style="fill: none"/>
  </g>
  <g id="axes_1">
   <g id="patch_2">
    <path d="M 51.466484 190.058633 
L 561.6 190.058633 
L 561.6 22.318125 
L 51.466484 22.318125 
L 51.466484 190.058633 
z
" style="fill: none"/>
   </g>
   <g id="matplotlib.axis_1">
    <g id="xtick_1">
     <g id="line2d_1">
      <defs>
       <path id="m4f7e0fd62d" d="M 0 0 
L 0 3.5 
" style="stroke: #7f7f7f; stroke-width: 1.8"/>
      </defs>
      <g>
       <use xlink:href="#m4f7e0fd62d" x="74.654371" y="190.058633" style="fill: #7f7f7f; stroke: #7f7f7f; stroke-width: 1.8"/>
      </g>
     </g>
     <g id="text_1">
      <!-- 0.0 -->
      <g style="fill: #7f7f7f" transform="translate(66.702809 204.656289) scale(0.1 -0.1)">
       <defs>
        <path id="DejaVuSans-13" d="M 2034 4250 
Q 1547 4250 1301 3770 
Q 1056 3291 1056 2328 
Q 1056 1369 1301 889 
Q 1547 409 2034 409 
Q 2525 409 2770 889 
Q 3016 1369 3016 2328 
Q 3016 3291 2770 3770 
Q 2525 4250 2034 4250 
z
M 2034 4750 
Q 2819 4750 3233 4129 
Q 3647 3509 3647 2328 
Q 3647 1150 3233 529 
Q 2819 -91 2034 -91 
Q 1250 -91 836 529 
Q 422 1150 422 2328 
Q 422 3509 836 4129 
Q 1250 4750 2034 4750 
z
" transform="scale(0.015625)"/>
        <path id="DejaVuSans-11" d="M 684 794 
L 1344 794 
L 1344 0 
L 684 0 
L 684 794 
z
" transform="scale(0.015625)"/>
       </defs>
       <use xlink:href="#DejaVuSans-13"/>
       <use xlink:href="#DejaVuSans-11" transform="translate(63.625 0)"/>
       <use xlink:href="#DejaVuSans-13" transform="translate(95.40625 0)"/>
      </g>
     </g>
    </g>
    <g id="xtick_2">
     <g id="line2d_2">
      <g>
       <use xlink:href="#m4f7e0fd62d" x="132.624089" y="190.058633" style="fill: #7f7f7f; stroke: #7f7f7f; stroke-width: 1.8"/>
      </g>
     </g>
     <g id="text_2">
      <!-- 2.5 -->
      <g style="fill: #7f7f7f" transform="translate(124.672527 204.656289) scale(0.1 -0.1)">
       <defs>
        <path id="DejaVuSans-15" d="M 1228 531 
L 3431 531 
L 3431 0 
L 469 0 
L 469 531 
Q 828 903 1448 1529 
Q 2069 2156 2228 2338 
Q 2531 2678 2651 2914 
Q 2772 3150 2772 3378 
Q 2772 3750 2511 3984 
Q 2250 4219 1831 4219 
Q 1534 4219 1204 4116 
Q 875 4013 500 3803 
L 500 4441 
Q 881 4594 1212 4672 
Q 1544 4750 1819 4750 
Q 2544 4750 2975 4387 
Q 3406 4025 3406 3419 
Q 3406 3131 3298 2873 
Q 3191 2616 2906 2266 
Q 2828 2175 2409 1742 
Q 1991 1309 1228 531 
z
" transform="scale(0.015625)"/>
        <path id="DejaVuSans-18" d="M 691 4666 
L 3169 4666 
L 3169 4134 
L 1269 4134 
L 1269 2991 
Q 1406 3038 1543 3061 
Q 1681 3084 1819 3084 
Q 2600 3084 3056 2656 
Q 3513 2228 3513 1497 
Q 3513 744 3044 326 
Q 2575 -91 1722 -91 
Q 1428 -91 1123 -41 
Q 819 9 494 109 
L 494 744 
Q 775 591 1075 516 
Q 1375 441 1709 441 
Q 2250 441 2565 725 
Q 2881 1009 2881 1497 
Q 2881 1984 2565 2268 
Q 2250 2553 1709 2553 
Q 1456 2553 1204 2497 
Q 953 2441 691 2322 
L 691 4666 
z
" transform="scale(0.015625)"/>
       </defs>
       <use xlink:href="#DejaVuSans-15"/>
       <use xlink:href="#DejaVuSans-11" transform="translate(63.625 0)"/>
       <use xlink:href="#DejaVuSans-18" transform="translate(95.40625 0)"/>
      </g>
     </g>
    </g>
    <g id="xtick_3">
     <g id="line2d_3">
      <g>
       <use xlink:href="#m4f7e0fd62d" x="190.593807" y="190.058633" style="fill: #7f7f7f; stroke: #7f7f7f; stroke-width: 1.8"/>
      </g>
     </g>
     <g id="text_3">
      <!-- 5.0 -->
      <g style="fill: #7f7f7f" transform="translate(182.642244 204.656289) scale(0.1 -0.1)">
       <use xlink:href="#DejaVuSans-18"/>
       <use xlink:href="#DejaVuSans-11" transform="translate(63.625 0)"/>
       <use xlink:href="#DejaVuSans-13" transform="translate(95.40625 0)"/>
      </g>
     </g>
    </g>
    <g id="xtick_4">
     <g id="line2d_4">
      <g>
       <use xlink:href="#m4f7e0fd62d" x="248.563525" y="190.058633" style="fill: #7f7f7f; stroke: #7f7f7f; stroke-width: 1.8"/>
      </g>
     </g>
     <g id="text_4">
      <!-- 7.5 -->
      <g style="fill: #7f7f7f" transform="translate(240.611962 204.656289) scale(0.1 -0.1)">
       <defs>
        <path id="DejaVuSans-1a" d="M 525 4666 
L 3525 4666 
L 3525 4397 
L 1831 0 
L 1172 0 
L 2766 4134 
L 525 4134 
L 525 4666 
z
" transform="scale(0.015625)"/>
       </defs>
       <use xlink:href="#DejaVuSans-1a"/>
       <use xlink:href="#DejaVuSans-11" transform="translate(63.625 0)"/>
       <use xlink:href="#DejaVuSans-18" transform="translate(95.40625 0)"/>
      </g>
     </g>
    </g>
    <g id="xtick_5">
     <g id="line2d_5">
      <g>
       <use xlink:href="#m4f7e0fd62d" x="306.533242" y="190.058633" style="fill: #7f7f7f; stroke: #7f7f7f; stroke-width: 1.8"/>
      </g>
     </g>
     <g id="text_5">
      <!-- 10.0 -->
      <g style="fill: #7f7f7f" transform="translate(295.40043 204.656289) scale(0.1 -0.1)">
       <defs>
        <path id="DejaVuSans-14" d="M 794 531 
L 1825 531 
L 1825 4091 
L 703 3866 
L 703 4441 
L 1819 4666 
L 2450 4666 
L 2450 531 
L 3481 531 
L 3481 0 
L 794 0 
L 794 531 
z
" transform="scale(0.015625)"/>
       </defs>
       <use xlink:href="#DejaVuSans-14"/>
       <use xlink:href="#DejaVuSans-13" transform="translate(63.625 0)"/>
       <use xlink:href="#DejaVuSans-11" transform="translate(127.25 0)"/>
       <use xlink:href="#DejaVuSans-13" transform="translate(159.03125 0)"/>
      </g>
     </g>
    </g>
    <g id="xtick_6">
     <g id="line2d_6">
      <g>
       <use xlink:href="#m4f7e0fd62d" x="364.50296" y="190.058633" style="fill: #7f7f7f; stroke: #7f7f7f; stroke-width: 1.8"/>
      </g>
     </g>
     <g id="text_6">
      <!-- 12.5 -->
      <g style="fill: #7f7f7f" transform="translate(353.370147 204.656289) scale(0.1 -0.1)">
       <use xlink:href="#DejaVuSans-14"/>
       <use xlink:href="#DejaVuSans-15" transform="translate(63.625 0)"/>
       <use xlink:href="#DejaVuSans-11" transform="translate(127.25 0)"/>
       <use xlink:href="#DejaVuSans-18" transform="translate(159.03125 0)"/>
      </g>
     </g>
    </g>
    <g id="xtick_7">
     <g id="line2d_7">
      <g>
       <use xlink:href="#m4f7e0fd62d" x="422.472678" y="190.058633" style="fill: #7f7f7f; stroke: #7f7f7f; stroke-width: 1.8"/>
      </g>
     </g>
     <g id="text_7">
      <!-- 15.0 -->
      <g style="fill: #7f7f7f" transform="translate(411.339865 204.656289) scale(0.1 -0.1)">
       <use xlink:href="#DejaVuSans-14"/>
       <use xlink:href="#DejaVuSans-18" transform="translate(63.625 0)"/>
       <use xlink:href="#DejaVuSans-11" transform="translate(127.25 0)"/>
       <use xlink:href="#DejaVuSans-13" transform="translate(159.03125 0)"/>
      </g>
     </g>
    </g>
    <g id="xtick_8">
     <g id="line2d_8">
      <g>
       <use xlink:href="#m4f7e0fd62d" x="480.442395" y="190.058633" style="fill: #7f7f7f; stroke: #7f7f7f; stroke-width: 1.8"/>
      </g>
     </g>
     <g id="text_8">
      <!-- 17.5 -->
      <g style="fill: #7f7f7f" transform="translate(469.309583 204.656289) scale(0.1 -0.1)">
       <use xlink:href="#DejaVuSans-14"/>
       <use xlink:href="#DejaVuSans-1a" transform="translate(63.625 0)"/>
       <use xlink:href="#DejaVuSans-11" transform="translate(127.25 0)"/>
       <use xlink:href="#DejaVuSans-18" transform="translate(159.03125 0)"/>
      </g>
     </g>
    </g>
    <g id="xtick_9">
     <g id="line2d_9">
      <g>
       <use xlink:href="#m4f7e0fd62d" x="538.412113" y="190.058633" style="fill: #7f7f7f; stroke: #7f7f7f; stroke-width: 1.8"/>
      </g>
     </g>
     <g id="text_9">
      <!-- 20.0 -->
      <g style="fill: #7f7f7f" transform="translate(527.2793 204.656289) scale(0.1 -0.1)">
       <use xlink:href="#DejaVuSans-15"/>
       <use xlink:href="#DejaVuSans-13" transform="translate(63.625 0)"/>
       <use xlink:href="#DejaVuSans-11" transform="translate(127.25 0)"/>
       <use xlink:href="#DejaVuSans-13" transform="translate(159.03125 0)"/>
      </g>
     </g>
    </g>
   </g>
   <g id="matplotlib.axis_2">
    <g id="ytick_1">
     <g id="line2d_10">
      <defs>
       <path id="med7cc2547a" d="M 0 0 
L -3.5 0 
" style="stroke: #7f7f7f; stroke-width: 1.8"/>
      </defs>
      <g>
       <use xlink:href="#med7cc2547a" x="51.466484" y="182.434064" style="fill: #7f7f7f; stroke: #7f7f7f; stroke-width: 1.8"/>
      </g>
     </g>
     <g id="text_10">
      <!-- 0.00 -->
      <g style="fill: #7f7f7f" transform="translate(22.200859 186.232892) scale(0.1 -0.1)">
       <use xlink:href="#DejaVuSans-13"/>
       <use xlink:href="#DejaVuSans-11" transform="translate(63.625 0)"/>
       <use xlink:href="#DejaVuSans-13" transform="translate(95.40625 0)"/>
       <use xlink:href="#DejaVuSans-13" transform="translate(159.03125 0)"/>
      </g>
     </g>
    </g>
    <g id="ytick_2">
     <g id="line2d_11">
      <g>
       <use xlink:href="#med7cc2547a" x="51.466484" y="154.36499" style="fill: #7f7f7f; stroke: #7f7f7f; stroke-width: 1.8"/>
      </g>
     </g>
     <g id="text_11">
      <!-- 0.05 -->
      <g style="fill: #7f7f7f" transform="translate(22.200859 158.163819) scale(0.1 -0.1)">
       <use xlink:href="#DejaVuSans-13"/>
       <use xlink:href="#DejaVuSans-11" transform="translate(63.625 0)"/>
       <use xlink:href="#DejaVuSans-13" transform="translate(95.40625 0)"/>
       <use xlink:href="#DejaVuSans-18" transform="translate(159.03125 0)"/>
      </g>
     </g>
    </g>
    <g id="ytick_3">
     <g id="line2d_12">
      <g>
       <use xlink:href="#med7cc2547a" x="51.466484" y="126.295917" style="fill: #7f7f7f; stroke: #7f7f7f; stroke-width: 1.8"/>
      </g>
     </g>
     <g id="text_12">
      <!-- 0.10 -->
      <g style="fill: #7f7f7f" transform="translate(22.200859 130.094745) scale(0.1 -0.1)">
       <use xlink:href="#DejaVuSans-13"/>
       <use xlink:href="#DejaVuSans-11" transform="translate(63.625 0)"/>
       <use xlink:href="#DejaVuSans-14" transform="translate(95.40625 0)"/>
       <use xlink:href="#DejaVuSans-13" transform="translate(159.03125 0)"/>
      </g>
     </g>
    </g>
    <g id="ytick_4">
     <g id="line2d_13">
      <g>
       <use xlink:href="#med7cc2547a" x="51.466484" y="98.226843" style="fill: #7f7f7f; stroke: #7f7f7f; stroke-width: 1.8"/>
      </g>
     </g>
     <g id="text_13">
      <!-- 0.15 -->
      <g style="fill: #7f7f7f" transform="translate(22.200859 102.025671) scale(0.1 -0.1)">
       <use xlink:href="#DejaVuSans-13"/>
       <use xlink:href="#DejaVuSans-11" transform="translate(63.625 0)"/>
       <use xlink:href="#DejaVuSans-14" transform="translate(95.40625 0)"/>
       <use xlink:href="#DejaVuSans-18" transform="translate(159.03125 0)"/>
      </g>
     </g>
    </g>
    <g id="ytick_5">
     <g id="line2d_14">
      <g>
       <use xlink:href="#med7cc2547a" x="51.466484" y="70.157769" style="fill: #7f7f7f; stroke: #7f7f7f; stroke-width: 1.8"/>
      </g>
     </g>
     <g id="text_14">
      <!-- 0.20 -->
      <g style="fill: #7f7f7f" transform="translate(22.200859 73.956597) scale(0.1 -0.1)">
       <use xlink:href="#DejaVuSans-13"/>
       <use xlink:href="#DejaVuSans-11" transform="translate(63.625 0)"/>
       <use xlink:href="#DejaVuSans-15" transform="translate(95.40625 0)"/>
       <use xlink:href="#DejaVuSans-13" transform="translate(159.03125 0)"/>
      </g>
     </g>
    </g>
    <g id="ytick_6">
     <g id="line2d_15">
      <g>
       <use xlink:href="#med7cc2547a" x="51.466484" y="42.088695" style="fill: #7f7f7f; stroke: #7f7f7f; stroke-width: 1.8"/>
      </g>
     </g>
     <g id="text_15">
      <!-- 0.25 -->
      <g style="fill: #7f7f7f" transform="translate(22.200859 45.887523) scale(0.1 -0.1)">
       <use xlink:href="#DejaVuSans-13"/>
       <use xlink:href="#DejaVuSans-11" transform="translate(63.625 0)"/>
       <use xlink:href="#DejaVuSans-15" transform="translate(95.40625 0)"/>
       <use xlink:href="#DejaVuSans-18" transform="translate(159.03125 0)"/>
      </g>
     </g>
    </g>
    <g id="text_16">
     <!-- Position Error [m] -->
     <g style="fill: #7f7f7f" transform="translate(15.558281 154.153535) rotate(-90) scale(0.11 -0.11)">
      <defs>
       <path id="DejaVuSans-33" d="M 1259 4147 
L 1259 2394 
L 2053 2394 
Q 2494 2394 2734 2622 
Q 2975 2850 2975 3272 
Q 2975 3691 2734 3919 
Q 2494 4147 2053 4147 
L 1259 4147 
z
M 628 4666 
L 2053 4666 
Q 2838 4666 3239 4311 
Q 3641 3956 3641 3272 
Q 3641 2581 3239 2228 
Q 2838 1875 2053 1875 
L 1259 1875 
L 1259 0 
L 628 0 
L 628 4666 
z
" transform="scale(0.015625)"/>
       <path id="DejaVuSans-52" d="M 1959 3097 
Q 1497 3097 1228 2736 
Q 959 2375 959 1747 
Q 959 1119 1226 758 
Q 1494 397 1959 397 
Q 2419 397 2687 759 
Q 2956 1122 2956 1747 
Q 2956 2369 2687 2733 
Q 2419 3097 1959 3097 
z
M 1959 3584 
Q 2709 3584 3137 3096 
Q 3566 2609 3566 1747 
Q 3566 888 3137 398 
Q 2709 -91 1959 -91 
Q 1206 -91 779 398 
Q 353 888 353 1747 
Q 353 2609 779 3096 
Q 1206 3584 1959 3584 
z
" transform="scale(0.015625)"/>
       <path id="DejaVuSans-56" d="M 2834 3397 
L 2834 2853 
Q 2591 2978 2328 3040 
Q 2066 3103 1784 3103 
Q 1356 3103 1142 2972 
Q 928 2841 928 2578 
Q 928 2378 1081 2264 
Q 1234 2150 1697 2047 
L 1894 2003 
Q 2506 1872 2764 1633 
Q 3022 1394 3022 966 
Q 3022 478 2636 193 
Q 2250 -91 1575 -91 
Q 1294 -91 989 -36 
Q 684 19 347 128 
L 347 722 
Q 666 556 975 473 
Q 1284 391 1588 391 
Q 1994 391 2212 530 
Q 2431 669 2431 922 
Q 2431 1156 2273 1281 
Q 2116 1406 1581 1522 
L 1381 1569 
Q 847 1681 609 1914 
Q 372 2147 372 2553 
Q 372 3047 722 3315 
Q 1072 3584 1716 3584 
Q 2034 3584 2315 3537 
Q 2597 3491 2834 3397 
z
" transform="scale(0.015625)"/>
       <path id="DejaVuSans-4c" d="M 603 3500 
L 1178 3500 
L 1178 0 
L 603 0 
L 603 3500 
z
M 603 4863 
L 1178 4863 
L 1178 4134 
L 603 4134 
L 603 4863 
z
" transform="scale(0.015625)"/>
       <path id="DejaVuSans-57" d="M 1172 4494 
L 1172 3500 
L 2356 3500 
L 2356 3053 
L 1172 3053 
L 1172 1153 
Q 1172 725 1289 603 
Q 1406 481 1766 481 
L 2356 481 
L 2356 0 
L 1766 0 
Q 1100 0 847 248 
Q 594 497 594 1153 
L 594 3053 
L 172 3053 
L 172 3500 
L 594 3500 
L 594 4494 
L 1172 4494 
z
" transform="scale(0.015625)"/>
       <path id="DejaVuSans-51" d="M 3513 2113 
L 3513 0 
L 2938 0 
L 2938 2094 
Q 2938 2591 2744 2837 
Q 2550 3084 2163 3084 
Q 1697 3084 1428 2787 
Q 1159 2491 1159 1978 
L 1159 0 
L 581 0 
L 581 3500 
L 1159 3500 
L 1159 2956 
Q 1366 3272 1645 3428 
Q 1925 3584 2291 3584 
Q 2894 3584 3203 3211 
Q 3513 2838 3513 2113 
z
" transform="scale(0.015625)"/>
       <path id="DejaVuSans-3" transform="scale(0.015625)"/>
       <path id="DejaVuSans-28" d="M 628 4666 
L 3578 4666 
L 3578 4134 
L 1259 4134 
L 1259 2753 
L 3481 2753 
L 3481 2222 
L 1259 2222 
L 1259 531 
L 3634 531 
L 3634 0 
L 628 0 
L 628 4666 
z
" transform="scale(0.015625)"/>
       <path id="DejaVuSans-55" d="M 2631 2963 
Q 2534 3019 2420 3045 
Q 2306 3072 2169 3072 
Q 1681 3072 1420 2755 
Q 1159 2438 1159 1844 
L 1159 0 
L 581 0 
L 581 3500 
L 1159 3500 
L 1159 2956 
Q 1341 3275 1631 3429 
Q 1922 3584 2338 3584 
Q 2397 3584 2469 3576 
Q 2541 3569 2628 3553 
L 2631 2963 
z
" transform="scale(0.015625)"/>
       <path id="DejaVuSans-3e" d="M 550 4863 
L 1875 4863 
L 1875 4416 
L 1125 4416 
L 1125 -397 
L 1875 -397 
L 1875 -844 
L 550 -844 
L 550 4863 
z
" transform="scale(0.015625)"/>
       <path id="DejaVuSans-50" d="M 3328 2828 
Q 3544 3216 3844 3400 
Q 4144 3584 4550 3584 
Q 5097 3584 5394 3201 
Q 5691 2819 5691 2113 
L 5691 0 
L 5113 0 
L 5113 2094 
Q 5113 2597 4934 2840 
Q 4756 3084 4391 3084 
Q 3944 3084 3684 2787 
Q 3425 2491 3425 1978 
L 3425 0 
L 2847 0 
L 2847 2094 
Q 2847 2600 2669 2842 
Q 2491 3084 2119 3084 
Q 1678 3084 1418 2786 
Q 1159 2488 1159 1978 
L 1159 0 
L 581 0 
L 581 3500 
L 1159 3500 
L 1159 2956 
Q 1356 3278 1631 3431 
Q 1906 3584 2284 3584 
Q 2666 3584 2933 3390 
Q 3200 3197 3328 2828 
z
" transform="scale(0.015625)"/>
       <path id="DejaVuSans-40" d="M 1947 4863 
L 1947 -844 
L 622 -844 
L 622 -397 
L 1369 -397 
L 1369 4416 
L 622 4416 
L 622 4863 
L 1947 4863 
z
" transform="scale(0.015625)"/>
      </defs>
      <use xlink:href="#DejaVuSans-33"/>
      <use xlink:href="#DejaVuSans-52" transform="translate(56.734375 0)"/>
      <use xlink:href="#DejaVuSans-56" transform="translate(117.921875 0)"/>
      <use xlink:href="#DejaVuSans-4c" transform="translate(170.015625 0)"/>
      <use xlink:href="#DejaVuSans-57" transform="translate(197.796875 0)"/>
      <use xlink:href="#DejaVuSans-4c" transform="translate(237 0)"/>
      <use xlink:href="#DejaVuSans-52" transform="translate(264.78125 0)"/>
      <use xlink:href="#DejaVuSans-51" transform="translate(325.96875 0)"/>
      <use xlink:href="#DejaVuSans-3" transform="translate(389.34375 0)"/>
      <use xlink:href="#DejaVuSans-28" transform="translate(421.125 0)"/>
      <use xlink:href="#DejaVuSans-55" transform="translate(484.3125 0)"/>
      <use xlink:href="#DejaVuSans-55" transform="translate(523.671875 0)"/>
      <use xlink:href="#DejaVuSans-52" transform="translate(562.578125 0)"/>
      <use xlink:href="#DejaVuSans-55" transform="translate(623.765625 0)"/>
      <use xlink:href="#DejaVuSans-3" transform="translate(664.875 0)"/>
      <use xlink:href="#DejaVuSans-3e" transform="translate(696.65625 0)"/>
      <use xlink:href="#DejaVuSans-50" transform="translate(735.671875 0)"/>
      <use xlink:href="#DejaVuSans-40" transform="translate(833.078125 0)"/>
     </g>
    </g>
   </g>
   <g id="line2d_16">
    <path d="M 74.654371 182.434064 
L 76.045645 130.783038 
L 76.277524 152.195616 
L 76.509402 150.520651 
L 77.668797 89.040411 
L 78.828191 173.561238 
L 79.987585 59.29147 
L 80.219464 74.829778 
L 82.074495 134.662587 
L 82.306374 119.624262 
L 82.538253 141.587527 
L 82.770132 181.80726 
L 83.697647 171.304622 
L 85.3208 124.770983 
L 85.784557 122.423789 
L 86.248315 163.001591 
L 86.480194 135.074419 
L 86.943952 166.041975 
L 87.17583 174.811043 
L 88.567104 79.100652 
L 88.798983 77.276197 
L 89.494619 119.355837 
L 89.726498 115.354709 
L 91.117771 48.659075 
L 92.045287 112.593876 
L 92.509044 95.88177 
L 92.972802 65.979526 
L 93.668439 80.513789 
L 94.595954 45.856791 
L 95.291591 53.398308 
L 97.378501 126.787796 
L 97.61038 128.726787 
L 98.074137 153.057991 
L 98.769774 148.192203 
L 99.697289 107.149462 
L 99.929168 129.301906 
L 100.161047 132.581272 
L 100.856684 99.352876 
L 101.088563 113.57593 
L 102.711715 148.120359 
L 102.943594 155.4807 
L 103.407351 148.932679 
L 103.63923 141.821364 
L 103.871109 160.066272 
L 104.334867 169.764918 
L 104.798625 169.470717 
L 105.72614 140.086075 
L 105.958019 140.630993 
L 106.189898 141.402208 
L 106.421777 119.965713 
L 106.885534 148.312057 
L 107.117413 146.484789 
L 107.349292 146.583393 
L 109.204323 111.433925 
L 109.436202 107.058738 
L 109.668081 119.796473 
L 109.89996 118.67198 
L 110.827475 86.535685 
L 111.059354 87.052036 
L 111.291233 100.482383 
L 111.98687 89.689693 
L 112.682506 105.738554 
L 113.610022 134.876477 
L 113.841901 121.460946 
L 114.073779 123.63407 
L 114.769416 105.555217 
L 115.001295 117.364657 
L 117.088205 180.15892 
L 117.783841 169.757208 
L 118.247599 151.263196 
L 118.711357 171.702383 
L 119.175115 173.574115 
L 120.798267 139.777009 
L 121.957661 154.272096 
L 122.18954 145.552602 
L 122.653298 153.42666 
L 123.348934 177.452391 
L 123.117055 153.197287 
L 124.27645 168.174095 
L 124.508329 157.031543 
L 125.203965 161.394542 
L 125.435844 174.289387 
L 125.899602 173.664087 
L 127.058996 144.980436 
L 127.290875 141.401189 
L 127.522754 151.606253 
L 128.914027 181.792609 
L 129.145906 172.634906 
L 129.377785 169.681608 
L 129.609664 173.000131 
L 129.841543 181.882738 
L 130.3053 163.880922 
L 130.537179 180.508484 
L 131.000937 171.456983 
L 131.232816 180.689246 
L 131.464695 174.809246 
L 132.160331 166.455287 
L 132.39221 182.172298 
L 132.855968 141.743271 
L 133.319726 166.384909 
L 134.47912 182.213263 
L 135.638514 146.942906 
L 135.870393 171.172735 
L 136.56603 145.224658 
L 137.493545 175.358602 
L 137.957303 170.039118 
L 138.189182 161.251463 
L 138.65294 181.332241 
L 138.884819 181.570962 
L 140.044213 124.942583 
L 140.276092 131.139794 
L 140.73985 179.482145 
L 141.435486 163.738385 
L 142.131123 134.188855 
L 142.594881 153.050404 
L 143.058638 177.110813 
L 143.986154 168.212833 
L 144.218033 168.883813 
L 144.68179 155.242078 
L 145.145548 170.340535 
L 145.377427 177.260435 
L 145.609306 164.87219 
L 146.536821 111.615248 
L 146.7687 122.464071 
L 148.159973 148.639972 
L 148.391852 145.371324 
L 148.623731 154.906027 
L 148.85561 163.530271 
L 149.319368 159.613541 
L 150.246883 159.803264 
L 150.478762 144.822663 
L 152.101914 175.799986 
L 154.188824 135.71921 
L 155.348218 151.080533 
L 155.580097 148.306505 
L 155.811976 147.096629 
L 156.739492 119.912447 
L 156.971371 131.829252 
L 157.203249 140.784474 
L 157.667007 123.509453 
L 157.898886 123.542889 
L 158.130765 126.653571 
L 158.362644 116.01918 
L 158.594523 139.764832 
L 160.681432 175.851522 
L 161.14519 154.233641 
L 161.608948 167.69529 
L 162.768342 177.944294 
L 163.2321 155.666861 
L 163.927737 168.718326 
L 164.855252 181.782447 
L 166.246525 151.967033 
L 168.101556 104.412531 
L 169.260951 164.14334 
L 169.49283 150.811248 
L 170.188466 136.659323 
L 171.579739 182.215671 
L 172.275376 163.5711 
L 172.507255 168.844302 
L 172.739134 174.486728 
L 172.971013 171.139923 
L 173.202892 159.761417 
L 173.43477 180.761566 
L 173.898528 173.591251 
L 174.130407 177.627509 
L 174.362286 176.513401 
L 174.594165 164.706085 
L 175.057922 171.201122 
L 175.289801 181.409322 
L 175.985438 180.9176 
L 176.912953 169.448021 
L 176.449196 180.998753 
L 177.144832 169.60291 
L 178.072348 180.490449 
L 178.304227 177.22497 
L 178.536106 168.486212 
L 178.767984 179.363891 
L 178.999863 173.978655 
L 179.231742 181.311215 
L 179.927379 176.465882 
L 180.159258 175.787389 
L 180.623015 182.285054 
L 181.086773 176.919117 
L 181.550531 114.393354 
L 182.246167 140.06238 
L 182.478046 145.965187 
L 182.709925 142.498191 
L 184.101198 93.471027 
L 184.564956 88.161128 
L 185.956229 133.703227 
L 186.188108 135.106563 
L 187.115624 168.925835 
L 187.347503 156.44925 
L 189.89817 112.234383 
L 190.361928 137.312324 
L 190.825686 132.663146 
L 191.057565 124.884059 
L 191.98508 161.631524 
L 192.216959 148.734125 
L 192.448838 127.971529 
L 192.912596 151.380185 
L 194.07199 179.490932 
L 194.535748 167.715663 
L 194.767626 180.566903 
L 194.999505 169.129263 
L 195.231384 179.454857 
L 195.695142 168.699395 
L 195.927021 156.30892 
L 196.390779 163.667936 
L 196.622657 176.567211 
L 197.318294 162.233356 
L 197.550173 164.674629 
L 198.477688 180.794791 
L 198.709567 175.973939 
L 198.941446 174.179742 
L 199.405204 178.091444 
L 199.637083 180.071612 
L 199.868962 174.881202 
L 200.100841 162.372554 
L 201.028356 164.019277 
L 202.883387 110.134102 
L 201.492114 164.773197 
L 203.579024 126.516048 
L 203.810902 127.656372 
L 204.970297 105.09438 
L 205.202176 101.00587 
L 205.434055 111.719232 
L 205.665933 120.38033 
L 206.129691 112.24193 
L 207.289086 100.217436 
L 208.44848 125.714219 
L 208.680359 90.302621 
L 209.607874 101.013573 
L 210.53539 62.517055 
L 210.767269 71.258346 
L 211.462905 104.306954 
L 211.694784 96.817208 
L 211.926663 77.246931 
L 212.390421 109.514616 
L 212.6223 117.616535 
L 212.854178 102.93119 
L 213.086057 111.776619 
L 214.477331 66.837342 
L 214.709209 66.864301 
L 214.941088 64.469267 
L 216.332361 29.942694 
L 217.723635 61.346659 
L 217.955514 61.124853 
L 218.187392 51.066745 
L 218.65115 72.359273 
L 219.578666 97.248695 
L 219.810545 92.047752 
L 220.274302 79.323638 
L 220.73806 87.123289 
L 221.897454 122.646024 
L 222.593091 123.840386 
L 223.288728 97.121014 
L 223.520606 106.839943 
L 223.984364 89.197819 
L 224.216243 83.525577 
L 224.680001 92.744511 
L 226.99879 153.060563 
L 227.462547 142.294949 
L 228.85382 108.087376 
L 231.868246 176.88065 
L 232.563882 180.125373 
L 232.795761 164.083524 
L 233.02764 178.744304 
L 233.723277 162.03128 
L 233.955156 158.385728 
L 234.187035 168.702791 
L 234.418913 171.856691 
L 234.650792 163.51246 
L 234.882671 157.938736 
L 235.11455 181.768892 
L 235.346429 155.560672 
L 235.810187 160.036229 
L 236.042065 151.105568 
L 236.273944 158.06074 
L 237.20146 178.245237 
L 237.433339 170.211148 
L 238.128975 140.217427 
L 238.824612 140.666473 
L 239.056491 142.557028 
L 239.28837 140.515712 
L 239.752127 172.656787 
L 240.447764 168.271448 
L 240.679643 165.229746 
L 240.911522 175.841897 
L 241.143401 165.139685 
L 241.607158 133.864373 
L 242.302795 143.449965 
L 242.766553 141.603217 
L 242.998432 145.494677 
L 243.23031 175.601757 
L 243.925947 157.261784 
L 245.549099 180.405023 
L 247.40413 141.739451 
L 248.795403 166.618045 
L 249.259161 152.709439 
L 249.722919 153.774809 
L 249.954798 166.526036 
L 250.186677 151.005065 
L 250.418555 162.804727 
L 252.041708 94.69159 
L 252.273586 97.966296 
L 252.505465 99.052711 
L 253.896739 152.04782 
L 256.447406 85.649956 
L 256.679285 93.051453 
L 257.838679 125.70363 
L 258.070558 123.14783 
L 258.766195 155.417508 
L 259.229953 142.699722 
L 259.461831 137.135148 
L 259.69371 151.945529 
L 261.084984 181.13002 
L 261.548741 142.144277 
L 262.012499 168.833247 
L 262.244378 166.445657 
L 262.476257 174.576875 
L 263.171893 169.334947 
L 263.403772 171.005509 
L 263.86753 167.249908 
L 264.099409 168.332053 
L 264.331288 180.05765 
L 264.795045 153.7592 
L 265.026924 170.583285 
L 265.722561 174.376336 
L 268.505107 97.544756 
L 266.186319 181.584589 
L 268.736986 107.374486 
L 268.968865 108.795255 
L 269.200744 107.238382 
L 269.664502 97.796278 
L 270.592017 47.434091 
L 270.823896 54.259701 
L 274.533958 179.3744 
L 274.997716 174.100063 
L 277.316504 71.495769 
L 279.171535 158.239518 
L 279.635293 126.959341 
L 279.867172 122.236274 
L 280.099051 129.218147 
L 280.562809 126.842237 
L 280.794688 125.0025 
L 281.954082 78.899849 
L 282.185961 81.200262 
L 282.41784 96.954111 
L 283.113476 85.269697 
L 283.809113 70.709986 
L 284.040992 87.588031 
L 284.272871 89.845217 
L 285.200386 150.318236 
L 285.664144 133.20293 
L 285.896023 130.492703 
L 286.591659 95.899613 
L 287.055417 108.248117 
L 287.519175 98.823969 
L 287.751054 104.748799 
L 288.44669 127.815529 
L 288.910448 116.199546 
L 290.069842 100.475236 
L 289.606085 122.979756 
L 290.301721 102.073056 
L 290.997358 180.603797 
L 291.924873 173.771758 
L 292.156752 170.83158 
L 292.388631 176.613347 
L 292.62051 181.649761 
L 293.084268 170.167518 
L 293.316147 169.463645 
L 293.548025 163.877667 
L 293.779904 169.074639 
L 294.475541 167.252961 
L 294.70742 181.511224 
L 295.866814 139.947776 
L 297.026208 180.824682 
L 297.489966 167.575141 
L 297.953724 170.388282 
L 298.185603 178.039493 
L 299.113118 176.743796 
L 299.808755 160.784167 
L 301.200028 113.642951 
L 301.431907 119.95309 
L 301.663786 104.888243 
L 301.895665 100.48077 
L 302.127544 105.1782 
L 303.055059 125.666699 
L 304.214453 56.268147 
L 304.678211 66.808702 
L 306.301363 177.956924 
L 306.997 143.726755 
L 307.228879 154.660296 
L 307.460758 179.920867 
L 308.156394 166.949856 
L 309.547668 132.702656 
L 310.011425 112.433736 
L 310.243304 138.708637 
L 310.475183 121.534725 
L 310.938941 142.763301 
L 311.402698 122.578189 
L 312.330214 108.575942 
L 314.649003 181.601866 
L 315.808397 159.96114 
L 316.040276 148.725738 
L 316.272155 148.964744 
L 316.735912 181.474218 
L 317.431549 177.795995 
L 318.127186 164.250062 
L 318.359065 176.261447 
L 318.822822 181.801201 
L 319.28658 175.9029 
L 319.750338 172.431686 
L 320.445974 134.863619 
L 320.909732 153.348574 
L 321.141611 178.663056 
L 322.069127 173.473329 
L 322.301005 171.556238 
L 322.996642 181.605412 
L 323.228521 174.39129 
L 324.387915 133.484198 
L 324.619794 141.801759 
L 324.851673 135.04939 
L 325.083552 146.805932 
L 326.011067 176.688698 
L 326.938583 168.028281 
L 327.170462 142.953763 
L 327.866098 154.547712 
L 328.561735 173.530832 
L 329.257372 172.709285 
L 329.48925 150.449419 
L 330.184887 176.505562 
L 330.416766 174.226336 
L 330.648645 177.612133 
L 330.880524 175.490878 
L 332.039918 147.608772 
L 332.503676 155.577685 
L 332.735555 148.669773 
L 333.894949 97.285493 
L 334.126828 99.274691 
L 334.358707 103.599299 
L 334.590586 94.348156 
L 335.286222 97.201508 
L 335.981859 74.817203 
L 336.909374 108.958752 
L 337.373132 100.138158 
L 338.068769 114.346426 
L 338.532526 108.461593 
L 339.228163 87.92237 
L 339.460042 98.229347 
L 340.387557 127.785391 
L 340.851315 125.041872 
L 341.315073 101.923411 
L 342.010709 111.438591 
L 342.242588 127.047159 
L 342.938225 117.60815 
L 343.401983 125.466595 
L 343.86574 113.583713 
L 344.097619 130.721833 
L 344.561377 117.093187 
L 345.025135 126.531287 
L 345.488892 147.758006 
L 345.720771 138.010872 
L 346.416408 109.236412 
L 346.880166 111.165877 
L 348.03956 137.268426 
L 348.735197 128.697666 
L 349.198954 152.987053 
L 349.662712 131.259693 
L 349.894591 155.956779 
L 350.12647 151.241199 
L 351.053985 182.288817 
L 351.285864 176.263415 
L 352.677137 144.467966 
L 351.981501 180.948729 
L 352.909016 145.473545 
L 353.372774 140.466454 
L 354.068411 152.594861 
L 354.532168 139.302801 
L 354.764047 164.071509 
L 354.995926 174.56594 
L 355.227805 157.806858 
L 355.459684 161.166725 
L 356.387199 130.634 
L 356.850957 136.836589 
L 357.082836 135.587312 
L 357.546594 116.906712 
L 358.010351 122.087355 
L 359.401625 165.251176 
L 359.865382 146.723554 
L 360.561019 152.658176 
L 362.41605 179.563757 
L 362.647929 176.095269 
L 363.343566 141.160379 
L 364.039202 162.007245 
L 364.50296 182.237349 
L 365.198596 173.480871 
L 365.430475 170.911965 
L 367.053627 130.320926 
L 367.285506 131.533386 
L 368.213022 116.212183 
L 370.299932 178.567988 
L 370.531811 179.112465 
L 372.61872 127.218867 
L 372.850599 129.418431 
L 373.082478 147.99855 
L 373.778115 126.05441 
L 374.009994 138.523443 
L 374.473751 117.127644 
L 374.70563 134.568085 
L 374.937509 126.033567 
L 375.169388 148.365491 
L 375.633146 132.856958 
L 375.865025 133.092309 
L 376.328782 149.159829 
L 376.79254 131.684036 
L 377.951934 166.54766 
L 377.488177 130.576712 
L 378.415692 150.104765 
L 378.647571 150.532018 
L 380.038844 179.024801 
L 380.270723 168.934656 
L 380.502602 169.345099 
L 380.96636 181.191681 
L 381.430117 167.572968 
L 382.589512 129.412498 
L 382.821391 130.594101 
L 383.05327 129.137308 
L 383.285148 132.317363 
L 383.517027 144.187944 
L 383.748906 129.342009 
L 384.212664 137.507487 
L 384.9083 144.499896 
L 385.372058 130.350691 
L 385.603937 132.138314 
L 385.835816 131.688847 
L 387.458968 173.430933 
L 387.922726 182.245856 
L 388.154605 178.675156 
L 388.850241 181.05279 
L 389.313999 157.514813 
L 389.545878 159.059674 
L 389.777757 152.540498 
L 390.009636 165.043958 
L 390.473393 157.982139 
L 391.400909 181.606447 
L 392.560303 161.713918 
L 392.792182 166.384568 
L 393.25594 163.005093 
L 393.487819 177.594531 
L 393.719698 149.064861 
L 394.183455 159.121391 
L 394.415334 145.488135 
L 394.647213 173.819287 
L 394.879092 173.361163 
L 395.110971 181.501714 
L 395.574729 174.159955 
L 395.806607 163.091087 
L 396.502244 165.579343 
L 397.42976 181.64675 
L 397.661638 176.836102 
L 398.125396 166.628598 
L 398.589154 170.036334 
L 398.821033 172.825121 
L 399.052912 166.210982 
L 399.28479 163.644928 
L 399.516669 180.676191 
L 400.444185 177.570985 
L 401.603579 119.281689 
L 402.531095 133.138077 
L 402.762974 117.157963 
L 403.226731 130.564819 
L 403.922368 157.023038 
L 404.618005 151.901307 
L 404.849883 146.011925 
L 405.081762 169.917848 
L 405.777399 168.123126 
L 406.241157 142.200485 
L 406.936793 161.999027 
L 407.63243 178.878934 
L 408.096188 172.315472 
L 408.328066 167.882893 
L 408.559945 182.215301 
L 409.023703 173.374897 
L 410.414976 147.394082 
L 409.71934 175.429671 
L 411.80625 152.60021 
L 412.501886 179.074612 
L 412.965644 167.790616 
L 413.429402 170.862933 
L 413.66128 167.226256 
L 414.125038 160.538483 
L 414.588796 136.984774 
L 415.284433 143.815976 
L 416.907585 180.385088 
L 418.994494 118.039492 
L 419.458252 133.63222 
L 420.153889 162.213411 
L 420.385768 150.024522 
L 421.081404 115.433018 
L 421.313283 127.655386 
L 422.240799 181.955446 
L 422.704556 178.470258 
L 423.400193 159.021871 
L 423.632072 176.703436 
L 423.863951 179.12054 
L 424.327709 166.783117 
L 424.559587 181.160257 
L 424.791466 175.041875 
L 425.023345 176.521011 
L 426.414618 155.183808 
L 426.646497 155.901657 
L 426.878376 155.408233 
L 427.342134 133.314168 
L 428.03777 143.299155 
L 428.501528 136.316444 
L 428.733407 151.249602 
L 429.197165 124.653581 
L 429.429044 126.3308 
L 429.660923 125.742851 
L 430.356559 114.113445 
L 430.588438 127.831455 
L 430.820317 143.101635 
L 431.284075 133.482626 
L 431.979711 109.107856 
L 432.21159 114.242014 
L 432.907227 145.557272 
L 433.370984 125.601683 
L 433.602863 116.673987 
L 434.066621 131.192683 
L 434.2985 123.491908 
L 434.762258 135.258003 
L 435.457894 131.954546 
L 435.689773 124.323861 
L 435.921652 126.467533 
L 436.153531 149.901576 
L 436.849168 139.72433 
L 437.081046 139.256982 
L 438.008562 169.296828 
L 438.240441 163.116046 
L 438.47232 152.910319 
L 438.704199 163.963499 
L 438.936077 181.684468 
L 439.631714 162.616826 
L 440.791108 180.796969 
L 441.022987 174.935997 
L 441.950503 107.716799 
L 442.41426 112.782098 
L 442.878018 118.894602 
L 443.805534 84.62478 
L 444.037413 69.584643 
L 444.50117 98.726373 
L 445.892444 79.537518 
L 446.124322 84.324261 
L 447.515596 142.302643 
L 447.747474 130.59409 
L 448.211232 134.040915 
L 448.443111 120.490276 
L 448.906869 142.234669 
L 449.602505 135.349525 
L 449.834384 135.84541 
L 452.385052 92.885112 
L 452.616931 95.983418 
L 454.471962 163.21743 
L 454.703841 157.171202 
L 455.399477 180.950708 
L 455.863235 170.792204 
L 456.095114 169.968033 
L 456.326993 180.214764 
L 456.79075 165.494527 
L 458.413903 123.321023 
L 458.645781 124.74278 
L 459.573297 140.736507 
L 459.805176 122.747474 
L 460.500812 138.49817 
L 460.732691 138.555466 
L 461.196449 141.106668 
L 462.123964 110.680425 
L 463.283359 96.088059 
L 463.515238 88.888914 
L 463.747117 90.530462 
L 463.978995 118.474252 
L 464.906511 115.997661 
L 465.834026 91.090716 
L 466.297784 98.199823 
L 467.457178 129.204219 
L 467.689057 102.42543 
L 468.384694 119.436287 
L 468.616573 134.244356 
L 469.312209 119.123058 
L 470.703483 93.271285 
L 470.935362 94.472141 
L 471.399119 75.115899 
L 471.630998 98.059032 
L 472.326635 85.063223 
L 473.022271 83.148731 
L 473.25415 90.637804 
L 473.717908 78.828733 
L 474.413545 83.803146 
L 474.877302 101.938134 
L 475.572939 97.762752 
L 475.804818 96.265435 
L 476.036697 71.24975 
L 476.732333 84.297493 
L 477.42797 73.873248 
L 478.123607 121.906175 
L 478.355485 113.4346 
L 478.819243 123.580583 
L 479.978637 161.024431 
L 480.210516 180.006848 
L 480.906153 176.352616 
L 481.833668 156.687726 
L 481.369911 176.779149 
L 482.065547 157.333957 
L 483.224942 169.267638 
L 484.384336 148.319855 
L 484.616215 160.656498 
L 485.311852 157.294078 
L 485.775609 150.998757 
L 486.007488 169.094057 
L 486.703125 162.742341 
L 487.166882 151.096105 
L 487.398761 154.157767 
L 488.326277 176.439239 
L 488.558156 172.713136 
L 489.021913 180.700119 
L 489.253792 171.5384 
L 489.485671 168.2276 
L 489.71755 174.770276 
L 489.949429 169.191181 
L 490.181308 173.103888 
L 490.645066 149.54134 
L 491.108823 153.617991 
L 491.572581 180.620879 
L 492.268218 172.664417 
L 492.963854 155.730786 
L 493.195733 168.799996 
L 494.123249 181.386634 
L 495.050764 124.047064 
L 495.746401 141.425945 
L 496.673916 179.646554 
L 497.137674 176.653739 
L 498.297068 166.985341 
L 498.528947 168.013902 
L 499.456463 182.343273 
L 498.992705 156.705623 
L 499.688342 177.627129 
L 500.615857 164.296943 
L 500.847736 154.203075 
L 501.079615 169.430214 
L 501.543372 161.738206 
L 502.934646 179.446708 
L 504.09404 134.061489 
L 504.557798 148.271822 
L 505.717192 161.256009 
L 508.035981 84.153272 
L 508.731617 86.819193 
L 509.891012 108.817262 
L 512.209801 178.194909 
L 512.673558 169.736773 
L 513.832953 139.185912 
L 514.064831 143.145451 
L 514.992347 181.949479 
L 515.687984 180.423651 
L 516.151741 178.170623 
L 517.311136 153.562469 
L 517.543015 159.499349 
L 518.006772 152.184316 
L 519.398046 100.237103 
L 519.861803 88.503342 
L 520.325561 98.667225 
L 520.789319 124.695978 
L 521.253076 102.815454 
L 521.948713 83.152187 
L 522.412471 89.746034 
L 524.035623 126.263694 
L 524.499381 134.672604 
L 524.963138 171.74744 
L 525.426896 154.068577 
L 526.122533 154.204547 
L 526.586291 132.630724 
L 526.818169 144.19927 
L 527.281927 124.365766 
L 527.513806 127.406981 
L 527.745685 116.363037 
L 528.441321 118.050825 
L 528.905079 133.568638 
L 529.136958 115.414036 
L 529.600716 126.705232 
L 531.223868 156.795465 
L 531.687626 132.877879 
L 532.383262 141.895635 
L 533.310778 159.730789 
L 533.542657 143.695273 
L 534.238293 164.563355 
L 534.93393 180.77453 
L 535.397688 176.831918 
L 536.788961 143.26845 
L 537.716476 177.921211 
L 538.180234 176.86666 
L 538.412113 158.198389 
L 538.412113 158.198389 
" clip-path="url(#p5f29772250)" style="fill: none; stroke: #e41a1c; stroke-width: 2; stroke-linecap: square"/>
   </g>
   <g id="patch_3">
    <path d="M 51.466484 190.058633 
L 51.466484 22.318125 
" style="fill: none; stroke: #7f7f7f; stroke-width: 1.8; stroke-linejoin: miter; stroke-linecap: square"/>
   </g>
   <g id="patch_4">
    <path d="M 51.466484 190.058633 
L 561.6 190.058633 
" style="fill: none; stroke: #7f7f7f; stroke-width: 1.8; stroke-linejoin: miter; stroke-linecap: square"/>
   </g>
   <g id="text_17">
    <!-- Kalman Filter Estimation Error -->
    <g style="fill: #7f7f7f" transform="translate(203.519805 16.318125) scale(0.12 -0.12)">
     <defs>
      <path id="DejaVuSans-Bold-2e" d="M 588 4666 
L 1791 4666 
L 1791 2963 
L 3525 4666 
L 4922 4666 
L 2675 2456 
L 5153 0 
L 3647 0 
L 1791 1838 
L 1791 0 
L 588 0 
L 588 4666 
z
" transform="scale(0.015625)"/>
      <path id="DejaVuSans-Bold-44" d="M 2106 1575 
Q 1756 1575 1579 1456 
Q 1403 1338 1403 1106 
Q 1403 894 1545 773 
Q 1688 653 1941 653 
Q 2256 653 2472 879 
Q 2688 1106 2688 1447 
L 2688 1575 
L 2106 1575 
z
M 3816 1997 
L 3816 0 
L 2688 0 
L 2688 519 
Q 2463 200 2181 54 
Q 1900 -91 1497 -91 
Q 953 -91 614 226 
Q 275 544 275 1050 
Q 275 1666 698 1953 
Q 1122 2241 2028 2241 
L 2688 2241 
L 2688 2328 
Q 2688 2594 2478 2717 
Q 2269 2841 1825 2841 
Q 1466 2841 1156 2769 
Q 847 2697 581 2553 
L 581 3406 
Q 941 3494 1303 3539 
Q 1666 3584 2028 3584 
Q 2975 3584 3395 3211 
Q 3816 2838 3816 1997 
z
" transform="scale(0.015625)"/>
      <path id="DejaVuSans-Bold-4f" d="M 538 4863 
L 1656 4863 
L 1656 0 
L 538 0 
L 538 4863 
z
" transform="scale(0.015625)"/>
      <path id="DejaVuSans-Bold-50" d="M 3781 2919 
Q 3994 3244 4286 3414 
Q 4578 3584 4928 3584 
Q 5531 3584 5847 3212 
Q 6163 2841 6163 2131 
L 6163 0 
L 5038 0 
L 5038 1825 
Q 5041 1866 5042 1909 
Q 5044 1953 5044 2034 
Q 5044 2406 4934 2573 
Q 4825 2741 4581 2741 
Q 4263 2741 4089 2478 
Q 3916 2216 3909 1719 
L 3909 0 
L 2784 0 
L 2784 1825 
Q 2784 2406 2684 2573 
Q 2584 2741 2328 2741 
Q 2006 2741 1831 2477 
Q 1656 2213 1656 1722 
L 1656 0 
L 531 0 
L 531 3500 
L 1656 3500 
L 1656 2988 
Q 1863 3284 2130 3434 
Q 2397 3584 2719 3584 
Q 3081 3584 3359 3409 
Q 3638 3234 3781 2919 
z
" transform="scale(0.015625)"/>
      <path id="DejaVuSans-Bold-51" d="M 4056 2131 
L 4056 0 
L 2931 0 
L 2931 347 
L 2931 1631 
Q 2931 2084 2911 2256 
Q 2891 2428 2841 2509 
Q 2775 2619 2662 2680 
Q 2550 2741 2406 2741 
Q 2056 2741 1856 2470 
Q 1656 2200 1656 1722 
L 1656 0 
L 538 0 
L 538 3500 
L 1656 3500 
L 1656 2988 
Q 1909 3294 2193 3439 
Q 2478 3584 2822 3584 
Q 3428 3584 3742 3212 
Q 4056 2841 4056 2131 
z
" transform="scale(0.015625)"/>
      <path id="DejaVuSans-Bold-3" transform="scale(0.015625)"/>
      <path id="DejaVuSans-Bold-29" d="M 588 4666 
L 3834 4666 
L 3834 3756 
L 1791 3756 
L 1791 2888 
L 3713 2888 
L 3713 1978 
L 1791 1978 
L 1791 0 
L 588 0 
L 588 4666 
z
" transform="scale(0.015625)"/>
      <path id="DejaVuSans-Bold-4c" d="M 538 3500 
L 1656 3500 
L 1656 0 
L 538 0 
L 538 3500 
z
M 538 4863 
L 1656 4863 
L 1656 3950 
L 538 3950 
L 538 4863 
z
" transform="scale(0.015625)"/>
      <path id="DejaVuSans-Bold-57" d="M 1759 4494 
L 1759 3500 
L 2913 3500 
L 2913 2700 
L 1759 2700 
L 1759 1216 
Q 1759 972 1856 886 
Q 1953 800 2241 800 
L 2816 800 
L 2816 0 
L 1856 0 
Q 1194 0 917 276 
Q 641 553 641 1216 
L 641 2700 
L 84 2700 
L 84 3500 
L 641 3500 
L 641 4494 
L 1759 4494 
z
" transform="scale(0.015625)"/>
      <path id="DejaVuSans-Bold-48" d="M 4031 1759 
L 4031 1441 
L 1416 1441 
Q 1456 1047 1700 850 
Q 1944 653 2381 653 
Q 2734 653 3104 758 
Q 3475 863 3866 1075 
L 3866 213 
Q 3469 63 3072 -14 
Q 2675 -91 2278 -91 
Q 1328 -91 801 392 
Q 275 875 275 1747 
Q 275 2603 792 3093 
Q 1309 3584 2216 3584 
Q 3041 3584 3536 3087 
Q 4031 2591 4031 1759 
z
M 2881 2131 
Q 2881 2450 2695 2645 
Q 2509 2841 2209 2841 
Q 1884 2841 1681 2658 
Q 1478 2475 1428 2131 
L 2881 2131 
z
" transform="scale(0.015625)"/>
      <path id="DejaVuSans-Bold-55" d="M 3138 2547 
Q 2991 2616 2845 2648 
Q 2700 2681 2553 2681 
Q 2122 2681 1889 2404 
Q 1656 2128 1656 1613 
L 1656 0 
L 538 0 
L 538 3500 
L 1656 3500 
L 1656 2925 
Q 1872 3269 2151 3426 
Q 2431 3584 2822 3584 
Q 2878 3584 2943 3579 
Q 3009 3575 3134 3559 
L 3138 2547 
z
" transform="scale(0.015625)"/>
      <path id="DejaVuSans-Bold-28" d="M 588 4666 
L 3834 4666 
L 3834 3756 
L 1791 3756 
L 1791 2888 
L 3713 2888 
L 3713 1978 
L 1791 1978 
L 1791 909 
L 3903 909 
L 3903 0 
L 588 0 
L 588 4666 
z
" transform="scale(0.015625)"/>
      <path id="DejaVuSans-Bold-56" d="M 3272 3391 
L 3272 2541 
Q 2913 2691 2578 2766 
Q 2244 2841 1947 2841 
Q 1628 2841 1473 2761 
Q 1319 2681 1319 2516 
Q 1319 2381 1436 2309 
Q 1553 2238 1856 2203 
L 2053 2175 
Q 2913 2066 3209 1816 
Q 3506 1566 3506 1031 
Q 3506 472 3093 190 
Q 2681 -91 1863 -91 
Q 1516 -91 1145 -36 
Q 775 19 384 128 
L 384 978 
Q 719 816 1070 734 
Q 1422 653 1784 653 
Q 2113 653 2278 743 
Q 2444 834 2444 1013 
Q 2444 1163 2330 1236 
Q 2216 1309 1875 1350 
L 1678 1375 
Q 931 1469 631 1722 
Q 331 1975 331 2491 
Q 331 3047 712 3315 
Q 1094 3584 1881 3584 
Q 2191 3584 2531 3537 
Q 2872 3491 3272 3391 
z
" transform="scale(0.015625)"/>
      <path id="DejaVuSans-Bold-52" d="M 2203 2784 
Q 1831 2784 1636 2517 
Q 1441 2250 1441 1747 
Q 1441 1244 1636 976 
Q 1831 709 2203 709 
Q 2569 709 2762 976 
Q 2956 1244 2956 1747 
Q 2956 2250 2762 2517 
Q 2569 2784 2203 2784 
z
M 2203 3584 
Q 3106 3584 3614 3096 
Q 4122 2609 4122 1747 
Q 4122 884 3614 396 
Q 3106 -91 2203 -91 
Q 1297 -91 786 396 
Q 275 884 275 1747 
Q 275 2609 786 3096 
Q 1297 3584 2203 3584 
z
" transform="scale(0.015625)"/>
     </defs>
     <use xlink:href="#DejaVuSans-Bold-2e"/>
     <use xlink:href="#DejaVuSans-Bold-44" transform="translate(77.484375 0)"/>
     <use xlink:href="#DejaVuSans-Bold-4f" transform="translate(144.96875 0)"/>
     <use xlink:href="#DejaVuSans-Bold-50" transform="translate(179.25 0)"/>
     <use xlink:href="#DejaVuSans-Bold-44" transform="translate(283.453125 0)"/>
     <use xlink:href="#DejaVuSans-Bold-51" transform="translate(350.9375 0)"/>
     <use xlink:href="#DejaVuSans-Bold-3" transform="translate(422.125 0)"/>
     <use xlink:href="#DejaVuSans-Bold-29" transform="translate(456.9375 0)"/>
     <use xlink:href="#DejaVuSans-Bold-4c" transform="translate(525.25 0)"/>
     <use xlink:href="#DejaVuSans-Bold-4f" transform="translate(559.53125 0)"/>
     <use xlink:href="#DejaVuSans-Bold-57" transform="translate(593.8125 0)"/>
     <use xlink:href="#DejaVuSans-Bold-48" transform="translate(641.609375 0)"/>
     <use xlink:href="#DejaVuSans-Bold-55" transform="translate(709.4375 0)"/>
     <use xlink:href="#DejaVuSans-Bold-3" transform="translate(758.75 0)"/>
     <use xlink:href="#DejaVuSans-Bold-28" transform="translate(793.5625 0)"/>
     <use xlink:href="#DejaVuSans-Bold-56" transform="translate(861.875 0)"/>
     <use xlink:href="#DejaVuSans-Bold-57" transform="translate(921.390625 0)"/>
     <use xlink:href="#DejaVuSans-Bold-4c" transform="translate(969.1875 0)"/>
     <use xlink:href="#DejaVuSans-Bold-50" transform="translate(1003.46875 0)"/>
     <use xlink:href="#DejaVuSans-Bold-44" transform="translate(1107.671875 0)"/>
     <use xlink:href="#DejaVuSans-Bold-57" transform="translate(1175.15625 0)"/>
     <use xlink:href="#DejaVuSans-Bold-4c" transform="translate(1222.953125 0)"/>
     <use xlink:href="#DejaVuSans-Bold-52" transform="translate(1257.234375 0)"/>
     <use xlink:href="#DejaVuSans-Bold-51" transform="translate(1325.9375 0)"/>
     <use xlink:href="#DejaVuSans-Bold-3" transform="translate(1397.125 0)"/>
     <use xlink:href="#DejaVuSans-Bold-28" transform="translate(1431.9375 0)"/>
     <use xlink:href="#DejaVuSans-Bold-55" transform="translate(1500.25 0)"/>
     <use xlink:href="#DejaVuSans-Bold-55" transform="translate(1549.5625 0)"/>
     <use xlink:href="#DejaVuSans-Bold-52" transform="translate(1598.875 0)"/>
     <use xlink:href="#DejaVuSans-Bold-55" transform="translate(1667.578125 0)"/>
    </g>
   </g>
  </g>
  <g id="axes_2">
   <g id="patch_5">
    <path d="M 51.466484 385.599141 
L 561.6 385.599141 
L 561.6 217.858633 
L 51.466484 217.858633 
L 51.466484 385.599141 
z
" style="fill: none"/>
   </g>
   <g id="matplotlib.axis_3">
    <g id="xtick_10">
     <g id="line2d_17">
      <g>
       <use xlink:href="#m4f7e0fd62d" x="74.654371" y="385.599141" style="fill: #7f7f7f; stroke: #7f7f7f; stroke-width: 1.8"/>
      </g>
     </g>
     <g id="text_18">
      <!-- 0.0 -->
      <g style="fill: #7f7f7f" transform="translate(66.702809 400.196797) scale(0.1 -0.1)">
       <use xlink:href="#DejaVuSans-13"/>
       <use xlink:href="#DejaVuSans-11" transform="translate(63.625 0)"/>
       <use xlink:href="#DejaVuSans-13" transform="translate(95.40625 0)"/>
      </g>
     </g>
    </g>
    <g id="xtick_11">
     <g id="line2d_18">
      <g>
       <use xlink:href="#m4f7e0fd62d" x="132.624089" y="385.599141" style="fill: #7f7f7f; stroke: #7f7f7f; stroke-width: 1.8"/>
      </g>
     </g>
     <g id="text_19">
      <!-- 2.5 -->
      <g style="fill: #7f7f7f" transform="translate(124.672527 400.196797) scale(0.1 -0.1)">
       <use xlink:href="#DejaVuSans-15"/>
       <use xlink:href="#DejaVuSans-11" transform="translate(63.625 0)"/>
       <use xlink:href="#DejaVuSans-18" transform="translate(95.40625 0)"/>
      </g>
     </g>
    </g>
    <g id="xtick_12">
     <g id="line2d_19">
      <g>
       <use xlink:href="#m4f7e0fd62d" x="190.593807" y="385.599141" style="fill: #7f7f7f; stroke: #7f7f7f; stroke-width: 1.8"/>
      </g>
     </g>
     <g id="text_20">
      <!-- 5.0 -->
      <g style="fill: #7f7f7f" transform="translate(182.642244 400.196797) scale(0.1 -0.1)">
       <use xlink:href="#DejaVuSans-18"/>
       <use xlink:href="#DejaVuSans-11" transform="translate(63.625 0)"/>
       <use xlink:href="#DejaVuSans-13" transform="translate(95.40625 0)"/>
      </g>
     </g>
    </g>
    <g id="xtick_13">
     <g id="line2d_20">
      <g>
       <use xlink:href="#m4f7e0fd62d" x="248.563525" y="385.599141" style="fill: #7f7f7f; stroke: #7f7f7f; stroke-width: 1.8"/>
      </g>
     </g>
     <g id="text_21">
      <!-- 7.5 -->
      <g style="fill: #7f7f7f" transform="translate(240.611962 400.196797) scale(0.1 -0.1)">
       <use xlink:href="#DejaVuSans-1a"/>
       <use xlink:href="#DejaVuSans-11" transform="translate(63.625 0)"/>
       <use xlink:href="#DejaVuSans-18" transform="translate(95.40625 0)"/>
      </g>
     </g>
    </g>
    <g id="xtick_14">
     <g id="line2d_21">
      <g>
       <use xlink:href="#m4f7e0fd62d" x="306.533242" y="385.599141" style="fill: #7f7f7f; stroke: #7f7f7f; stroke-width: 1.8"/>
      </g>
     </g>
     <g id="text_22">
      <!-- 10.0 -->
      <g style="fill: #7f7f7f" transform="translate(295.40043 400.196797) scale(0.1 -0.1)">
       <use xlink:href="#DejaVuSans-14"/>
       <use xlink:href="#DejaVuSans-13" transform="translate(63.625 0)"/>
       <use xlink:href="#DejaVuSans-11" transform="translate(127.25 0)"/>
       <use xlink:href="#DejaVuSans-13" transform="translate(159.03125 0)"/>
      </g>
     </g>
    </g>
    <g id="xtick_15">
     <g id="line2d_22">
      <g>
       <use xlink:href="#m4f7e0fd62d" x="364.50296" y="385.599141" style="fill: #7f7f7f; stroke: #7f7f7f; stroke-width: 1.8"/>
      </g>
     </g>
     <g id="text_23">
      <!-- 12.5 -->
      <g style="fill: #7f7f7f" transform="translate(353.370147 400.196797) scale(0.1 -0.1)">
       <use xlink:href="#DejaVuSans-14"/>
       <use xlink:href="#DejaVuSans-15" transform="translate(63.625 0)"/>
       <use xlink:href="#DejaVuSans-11" transform="translate(127.25 0)"/>
       <use xlink:href="#DejaVuSans-18" transform="translate(159.03125 0)"/>
      </g>
     </g>
    </g>
    <g id="xtick_16">
     <g id="line2d_23">
      <g>
       <use xlink:href="#m4f7e0fd62d" x="422.472678" y="385.599141" style="fill: #7f7f7f; stroke: #7f7f7f; stroke-width: 1.8"/>
      </g>
     </g>
     <g id="text_24">
      <!-- 15.0 -->
      <g style="fill: #7f7f7f" transform="translate(411.339865 400.196797) scale(0.1 -0.1)">
       <use xlink:href="#DejaVuSans-14"/>
       <use xlink:href="#DejaVuSans-18" transform="translate(63.625 0)"/>
       <use xlink:href="#DejaVuSans-11" transform="translate(127.25 0)"/>
       <use xlink:href="#DejaVuSans-13" transform="translate(159.03125 0)"/>
      </g>
     </g>
    </g>
    <g id="xtick_17">
     <g id="line2d_24">
      <g>
       <use xlink:href="#m4f7e0fd62d" x="480.442395" y="385.599141" style="fill: #7f7f7f; stroke: #7f7f7f; stroke-width: 1.8"/>
      </g>
     </g>
     <g id="text_25">
      <!-- 17.5 -->
      <g style="fill: #7f7f7f" transform="translate(469.309583 400.196797) scale(0.1 -0.1)">
       <use xlink:href="#DejaVuSans-14"/>
       <use xlink:href="#DejaVuSans-1a" transform="translate(63.625 0)"/>
       <use xlink:href="#DejaVuSans-11" transform="translate(127.25 0)"/>
       <use xlink:href="#DejaVuSans-18" transform="translate(159.03125 0)"/>
      </g>
     </g>
    </g>
    <g id="xtick_18">
     <g id="line2d_25">
      <g>
       <use xlink:href="#m4f7e0fd62d" x="538.412113" y="385.599141" style="fill: #7f7f7f; stroke: #7f7f7f; stroke-width: 1.8"/>
      </g>
     </g>
     <g id="text_26">
      <!-- 20.0 -->
      <g style="fill: #7f7f7f" transform="translate(527.2793 400.196797) scale(0.1 -0.1)">
       <use xlink:href="#DejaVuSans-15"/>
       <use xlink:href="#DejaVuSans-13" transform="translate(63.625 0)"/>
       <use xlink:href="#DejaVuSans-11" transform="translate(127.25 0)"/>
       <use xlink:href="#DejaVuSans-13" transform="translate(159.03125 0)"/>
      </g>
     </g>
    </g>
    <g id="text_27">
     <!-- Time [s] -->
     <g style="fill: #7f7f7f" transform="translate(284.168867 414.957422) scale(0.11 -0.11)">
      <defs>
       <path id="DejaVuSans-37" d="M -19 4666 
L 3928 4666 
L 3928 4134 
L 2272 4134 
L 2272 0 
L 1638 0 
L 1638 4134 
L -19 4134 
L -19 4666 
z
" transform="scale(0.015625)"/>
       <path id="DejaVuSans-48" d="M 3597 1894 
L 3597 1613 
L 953 1613 
Q 991 1019 1311 708 
Q 1631 397 2203 397 
Q 2534 397 2845 478 
Q 3156 559 3463 722 
L 3463 178 
Q 3153 47 2828 -22 
Q 2503 -91 2169 -91 
Q 1331 -91 842 396 
Q 353 884 353 1716 
Q 353 2575 817 3079 
Q 1281 3584 2069 3584 
Q 2775 3584 3186 3129 
Q 3597 2675 3597 1894 
z
M 3022 2063 
Q 3016 2534 2758 2815 
Q 2500 3097 2075 3097 
Q 1594 3097 1305 2825 
Q 1016 2553 972 2059 
L 3022 2063 
z
" transform="scale(0.015625)"/>
      </defs>
      <use xlink:href="#DejaVuSans-37"/>
      <use xlink:href="#DejaVuSans-4c" transform="translate(58 0)"/>
      <use xlink:href="#DejaVuSans-50" transform="translate(85.78125 0)"/>
      <use xlink:href="#DejaVuSans-48" transform="translate(183.1875 0)"/>
      <use xlink:href="#DejaVuSans-3" transform="translate(244.71875 0)"/>
      <use xlink:href="#DejaVuSans-3e" transform="translate(276.5 0)"/>
      <use xlink:href="#DejaVuSans-56" transform="translate(315.515625 0)"/>
      <use xlink:href="#DejaVuSans-40" transform="translate(367.609375 0)"/>
     </g>
    </g>
   </g>
   <g id="matplotlib.axis_4">
    <g id="ytick_7">
     <g id="line2d_26">
      <g>
       <use xlink:href="#med7cc2547a" x="51.466484" y="377.979461" style="fill: #7f7f7f; stroke: #7f7f7f; stroke-width: 1.8"/>
      </g>
     </g>
     <g id="text_28">
      <!-- 0.0 -->
      <g style="fill: #7f7f7f" transform="translate(28.563359 381.778289) scale(0.1 -0.1)">
       <use xlink:href="#DejaVuSans-13"/>
       <use xlink:href="#DejaVuSans-11" transform="translate(63.625 0)"/>
       <use xlink:href="#DejaVuSans-13" transform="translate(95.40625 0)"/>
      </g>
     </g>
    </g>
    <g id="ytick_8">
     <g id="line2d_27">
      <g>
       <use xlink:href="#med7cc2547a" x="51.466484" y="340.570891" style="fill: #7f7f7f; stroke: #7f7f7f; stroke-width: 1.8"/>
      </g>
     </g>
     <g id="text_29">
      <!-- 0.5 -->
      <g style="fill: #7f7f7f" transform="translate(28.563359 344.369719) scale(0.1 -0.1)">
       <use xlink:href="#DejaVuSans-13"/>
       <use xlink:href="#DejaVuSans-11" transform="translate(63.625 0)"/>
       <use xlink:href="#DejaVuSans-18" transform="translate(95.40625 0)"/>
      </g>
     </g>
    </g>
    <g id="ytick_9">
     <g id="line2d_28">
      <g>
       <use xlink:href="#med7cc2547a" x="51.466484" y="303.162321" style="fill: #7f7f7f; stroke: #7f7f7f; stroke-width: 1.8"/>
      </g>
     </g>
     <g id="text_30">
      <!-- 1.0 -->
      <g style="fill: #7f7f7f" transform="translate(28.563359 306.961149) scale(0.1 -0.1)">
       <use xlink:href="#DejaVuSans-14"/>
       <use xlink:href="#DejaVuSans-11" transform="translate(63.625 0)"/>
       <use xlink:href="#DejaVuSans-13" transform="translate(95.40625 0)"/>
      </g>
     </g>
    </g>
    <g id="ytick_10">
     <g id="line2d_29">
      <g>
       <use xlink:href="#med7cc2547a" x="51.466484" y="265.75375" style="fill: #7f7f7f; stroke: #7f7f7f; stroke-width: 1.8"/>
      </g>
     </g>
     <g id="text_31">
      <!-- 1.5 -->
      <g style="fill: #7f7f7f" transform="translate(28.563359 269.552579) scale(0.1 -0.1)">
       <use xlink:href="#DejaVuSans-14"/>
       <use xlink:href="#DejaVuSans-11" transform="translate(63.625 0)"/>
       <use xlink:href="#DejaVuSans-18" transform="translate(95.40625 0)"/>
      </g>
     </g>
    </g>
    <g id="ytick_11">
     <g id="line2d_30">
      <g>
       <use xlink:href="#med7cc2547a" x="51.466484" y="228.34518" style="fill: #7f7f7f; stroke: #7f7f7f; stroke-width: 1.8"/>
      </g>
     </g>
     <g id="text_32">
      <!-- 2.0 -->
      <g style="fill: #7f7f7f" transform="translate(28.563359 232.144009) scale(0.1 -0.1)">
       <use xlink:href="#DejaVuSans-15"/>
       <use xlink:href="#DejaVuSans-11" transform="translate(63.625 0)"/>
       <use xlink:href="#DejaVuSans-13" transform="translate(95.40625 0)"/>
      </g>
     </g>
    </g>
    <g id="text_33">
     <!-- Velocity Error [m/s] -->
     <g style="fill: #7f7f7f" transform="translate(21.920781 354.574434) rotate(-90) scale(0.11 -0.11)">
      <defs>
       <path id="DejaVuSans-39" d="M 1831 0 
L 50 4666 
L 709 4666 
L 2188 738 
L 3669 4666 
L 4325 4666 
L 2547 0 
L 1831 0 
z
" transform="scale(0.015625)"/>
       <path id="DejaVuSans-4f" d="M 603 4863 
L 1178 4863 
L 1178 0 
L 603 0 
L 603 4863 
z
" transform="scale(0.015625)"/>
       <path id="DejaVuSans-46" d="M 3122 3366 
L 3122 2828 
Q 2878 2963 2633 3030 
Q 2388 3097 2138 3097 
Q 1578 3097 1268 2742 
Q 959 2388 959 1747 
Q 959 1106 1268 751 
Q 1578 397 2138 397 
Q 2388 397 2633 464 
Q 2878 531 3122 666 
L 3122 134 
Q 2881 22 2623 -34 
Q 2366 -91 2075 -91 
Q 1284 -91 818 406 
Q 353 903 353 1747 
Q 353 2603 823 3093 
Q 1294 3584 2113 3584 
Q 2378 3584 2631 3529 
Q 2884 3475 3122 3366 
z
" transform="scale(0.015625)"/>
       <path id="DejaVuSans-5c" d="M 2059 -325 
Q 1816 -950 1584 -1140 
Q 1353 -1331 966 -1331 
L 506 -1331 
L 506 -850 
L 844 -850 
Q 1081 -850 1212 -737 
Q 1344 -625 1503 -206 
L 1606 56 
L 191 3500 
L 800 3500 
L 1894 763 
L 2988 3500 
L 3597 3500 
L 2059 -325 
z
" transform="scale(0.015625)"/>
       <path id="DejaVuSans-12" d="M 1625 4666 
L 2156 4666 
L 531 -594 
L 0 -594 
L 1625 4666 
z
" transform="scale(0.015625)"/>
      </defs>
      <use xlink:href="#DejaVuSans-39"/>
      <use xlink:href="#DejaVuSans-48" transform="translate(60.640625 0)"/>
      <use xlink:href="#DejaVuSans-4f" transform="translate(122.171875 0)"/>
      <use xlink:href="#DejaVuSans-52" transform="translate(149.953125 0)"/>
      <use xlink:href="#DejaVuSans-46" transform="translate(211.140625 0)"/>
      <use xlink:href="#DejaVuSans-4c" transform="translate(266.125 0)"/>
      <use xlink:href="#DejaVuSans-57" transform="translate(293.90625 0)"/>
      <use xlink:href="#DejaVuSans-5c" transform="translate(333.109375 0)"/>
      <use xlink:href="#DejaVuSans-3" transform="translate(392.296875 0)"/>
      <use xlink:href="#DejaVuSans-28" transform="translate(424.078125 0)"/>
      <use xlink:href="#DejaVuSans-55" transform="translate(487.265625 0)"/>
      <use xlink:href="#DejaVuSans-55" transform="translate(526.625 0)"/>
      <use xlink:href="#DejaVuSans-52" transform="translate(565.53125 0)"/>
      <use xlink:href="#DejaVuSans-55" transform="translate(626.71875 0)"/>
      <use xlink:href="#DejaVuSans-3" transform="translate(667.828125 0)"/>
      <use xlink:href="#DejaVuSans-3e" transform="translate(699.609375 0)"/>
      <use xlink:href="#DejaVuSans-50" transform="translate(738.625 0)"/>
      <use xlink:href="#DejaVuSans-12" transform="translate(836.03125 0)"/>
      <use xlink:href="#DejaVuSans-56" transform="translate(869.71875 0)"/>
      <use xlink:href="#DejaVuSans-40" transform="translate(921.8125 0)"/>
     </g>
    </g>
   </g>
   <g id="line2d_31">
    <path d="M 74.654371 228.34518 
L 75.350008 229.026241 
L 76.045645 234.04853 
L 75.813766 227.935906 
L 76.277524 233.147396 
L 76.741281 225.483201 
L 77.436918 225.94869 
L 77.668797 227.417911 
L 78.828191 276.763505 
L 79.06007 255.509403 
L 79.291949 256.421411 
L 79.523828 266.026456 
L 79.755707 264.840422 
L 79.987585 237.665907 
L 80.683222 265.202764 
L 80.915101 266.237873 
L 83.002011 345.72985 
L 83.929526 332.361646 
L 84.161405 333.41469 
L 84.625163 326.125834 
L 85.3208 328.458131 
L 86.248315 348.171185 
L 86.712073 345.95624 
L 87.17583 355.666649 
L 87.407709 342.198847 
L 88.567104 328.521062 
L 88.103346 344.458862 
L 88.798983 329.133337 
L 89.494619 345.483204 
L 89.958377 337.596189 
L 90.190256 335.223498 
L 90.654014 343.815628 
L 90.885892 336.781725 
L 91.117771 330.316143 
L 91.581529 342.15452 
L 92.045287 351.648579 
L 92.509044 348.197017 
L 92.972802 341.427165 
L 93.43656 347.21102 
L 93.900318 346.663768 
L 94.595954 340.898643 
L 94.827833 344.337492 
L 96.682864 362.703388 
L 96.914743 362.804384 
L 98.074137 372.496553 
L 98.769774 371.70274 
L 99.697289 363.163164 
L 99.929168 368.372593 
L 100.161047 369.265415 
L 100.856684 362.429706 
L 101.088563 365.824733 
L 102.711715 374.281776 
L 102.943594 375.937809 
L 103.407351 374.59996 
L 103.63923 373.119977 
L 103.871109 377.130685 
L 104.102988 377.948066 
L 104.334867 376.728878 
L 104.798625 376.820416 
L 105.72614 372.985366 
L 105.958019 373.181896 
L 106.189898 373.423495 
L 106.421777 368.920456 
L 106.885534 375.224495 
L 107.581171 373.096086 
L 109.204323 368.441447 
L 109.436202 367.662017 
L 109.668081 370.540125 
L 110.363718 367.499942 
L 110.827475 364.207276 
L 111.523112 365.142615 
L 113.610022 376.370355 
L 114.073779 374.062395 
L 114.769416 370.458446 
L 115.001295 373.110357 
L 115.92881 377.099189 
L 116.392568 376.058273 
L 117.088205 368.330852 
L 117.783841 371.8634 
L 118.247599 376.003862 
L 118.711357 371.712938 
L 118.943236 367.321304 
L 119.406994 374.180856 
L 119.638872 373.437204 
L 119.870751 374.405407 
L 121.030146 377.965011 
L 121.957661 376.216056 
L 122.18954 377.830922 
L 122.885177 375.672815 
L 123.117055 376.546424 
L 124.508329 365.442024 
L 124.740208 365.67832 
L 125.899602 370.070147 
L 127.058996 364.719068 
L 127.290875 364.159771 
L 129.377785 376.889619 
L 130.073422 371.869087 
L 130.3053 370.322272 
L 130.537179 374.046288 
L 131.000937 372.194283 
L 131.464695 376.375313 
L 132.855968 366.394349 
L 133.783483 377.165738 
L 134.247241 376.936467 
L 134.710999 377.029279 
L 135.638514 372.764766 
L 135.870393 377.864985 
L 136.56603 372.560059 
L 137.957303 377.801076 
L 140.044213 363.440911 
L 140.276092 365.017988 
L 140.971728 376.963438 
L 141.435486 375.523274 
L 142.131123 369.338151 
L 142.594881 373.622037 
L 143.058638 377.013486 
L 143.522396 373.393164 
L 143.754275 374.56501 
L 144.68179 370.444185 
L 144.913669 373.069689 
L 145.377427 375.47591 
L 145.609306 372.836384 
L 146.536821 362.021986 
L 146.7687 364.628085 
L 148.159973 371.262324 
L 148.391852 370.66423 
L 148.85561 374.794753 
L 149.551247 372.209192 
L 150.246883 374.404445 
L 150.478762 371.22167 
L 151.174399 374.258521 
L 151.870035 376.148304 
L 152.101914 374.714912 
L 153.261309 372.295412 
L 153.493187 372.123047 
L 154.188824 366.862009 
L 154.652582 369.558514 
L 155.348218 370.913076 
L 155.811976 370.288515 
L 156.507613 364.964505 
L 156.971371 367.846051 
L 157.203249 369.947849 
L 157.667007 366.503923 
L 158.130765 367.553509 
L 158.362644 365.422171 
L 158.594523 370.76299 
L 159.753917 377.838818 
L 160.681432 376.880773 
L 161.840827 372.809993 
L 161.608948 377.433706 
L 162.072706 373.267446 
L 164.159616 377.974572 
L 164.623373 374.666549 
L 165.087131 376.798072 
L 165.31901 377.612008 
L 165.550889 376.569356 
L 168.101556 364.564404 
L 169.260951 377.881741 
L 169.49283 375.191355 
L 170.188466 372.279614 
L 170.652224 377.955283 
L 171.347861 375.793322 
L 171.579739 373.747097 
L 171.811618 376.783806 
L 172.043497 375.361495 
L 172.275376 377.911241 
L 172.739134 375.570486 
L 173.202892 369.091351 
L 173.898528 372.38192 
L 174.130407 373.345981 
L 174.362286 373.180171 
L 174.594165 370.703699 
L 175.057922 372.317823 
L 176.217317 377.085437 
L 176.912953 372.408147 
L 177.60859 374.258056 
L 178.536106 377.324784 
L 178.999863 373.82613 
L 179.6955 374.090063 
L 181.086773 377.26254 
L 181.550531 365.275359 
L 182.246167 371.370754 
L 182.478046 372.755035 
L 182.709925 372.089797 
L 184.101198 362.512663 
L 184.564956 361.829927 
L 186.419987 377.074233 
L 187.115624 375.49481 
L 187.347503 377.724616 
L 188.043139 375.33781 
L 189.202534 373.037388 
L 189.434412 373.234851 
L 189.89817 368.774721 
L 190.130049 373.457015 
L 190.361928 374.422869 
L 190.825686 373.537232 
L 191.057565 371.926427 
L 191.289443 377.832561 
L 192.216959 377.154232 
L 192.912596 377.851314 
L 193.376353 372.49093 
L 194.535748 375.02983 
L 195.695142 369.289049 
L 195.927021 377.905601 
L 196.854536 376.005441 
L 197.318294 376.945989 
L 197.550173 376.434624 
L 198.013931 370.635034 
L 198.941446 371.272038 
L 200.100841 377.776749 
L 200.332719 377.157934 
L 200.564598 375.628793 
L 201.028356 377.504429 
L 201.260235 377.254009 
L 201.955871 377.291541 
L 204.042781 366.907528 
L 204.506539 368.696462 
L 204.738418 369.929947 
L 204.970297 367.207607 
L 205.202176 366.497962 
L 205.434055 369.002047 
L 205.665933 371.021502 
L 206.129691 369.50664 
L 207.289086 367.67289 
L 208.44848 373.746845 
L 208.680359 366.154668 
L 209.375995 367.359493 
L 209.607874 369.162392 
L 209.839753 364.32358 
L 210.071632 365.140658 
L 210.53539 361.626706 
L 210.767269 363.783231 
L 211.462905 371.459357 
L 211.694784 369.944877 
L 211.926663 365.8415 
L 212.390421 373.163662 
L 212.6223 374.994591 
L 212.854178 371.866041 
L 213.086057 373.878883 
L 214.477331 364.982665 
L 214.709209 365.199471 
L 214.941088 364.888786 
L 215.868604 365.136762 
L 216.332361 358.836289 
L 217.723635 367.180563 
L 217.955514 367.307873 
L 218.187392 365.305148 
L 218.419271 368.452887 
L 219.578666 375.951314 
L 219.810545 374.859074 
L 220.274302 372.235392 
L 220.73806 374.067884 
L 220.969939 377.075238 
L 221.665575 375.192778 
L 221.897454 374.214787 
L 222.129333 375.672879 
L 222.82497 377.116529 
L 222.593091 374.073066 
L 223.056849 376.057854 
L 223.288728 375.996821 
L 223.520606 377.82734 
L 223.984364 374.322205 
L 224.216243 373.154449 
L 224.680001 375.30321 
L 225.839395 377.531314 
L 226.99879 367.901778 
L 227.462547 370.552382 
L 228.621942 377.678529 
L 228.85382 377.63136 
L 230.245094 371.23711 
L 232.100125 361.328015 
L 232.795761 360.548647 
L 233.02764 364.003284 
L 233.955156 360.620488 
L 235.11455 366.94665 
L 236.042065 361.223389 
L 236.273944 363.000055 
L 238.128975 377.394209 
L 239.056491 377.917883 
L 239.28837 377.477268 
L 239.752127 371.572625 
L 240.447764 372.762521 
L 240.911522 371.282056 
L 242.998432 377.92709 
L 243.23031 371.414627 
L 243.925947 375.65652 
L 245.549099 370.346163 
L 246.012857 375.182169 
L 246.940372 374.538489 
L 248.099767 377.675005 
L 248.795403 374.682797 
L 249.027282 375.976301 
L 249.259161 377.777791 
L 249.49104 374.922188 
L 249.722919 377.600212 
L 249.954798 374.84779 
L 250.186677 377.702516 
L 250.650434 376.858177 
L 250.882313 377.873154 
L 251.114192 376.121729 
L 251.57795 376.838504 
L 252.041708 365.630576 
L 252.737344 371.508094 
L 252.969223 371.336909 
L 254.128617 377.713087 
L 255.751769 367.848177 
L 256.447406 365.459038 
L 256.679285 367.263505 
L 257.838679 374.847974 
L 258.070558 374.345889 
L 258.302437 377.723779 
L 259.229953 377.462422 
L 259.461831 377.284276 
L 261.548741 361.177293 
L 261.78062 363.283302 
L 262.708136 373.910956 
L 263.171893 373.826017 
L 263.403772 373.532032 
L 263.86753 374.483337 
L 264.099409 368.20437 
L 264.563167 373.229184 
L 264.795045 377.809353 
L 265.490682 373.789091 
L 265.722561 373.548751 
L 265.95444 375.089848 
L 266.186319 372.108158 
L 267.345713 358.273471 
L 267.577592 358.661449 
L 267.809471 360.4303 
L 268.273229 358.343225 
L 268.505107 356.119056 
L 268.968865 359.222396 
L 269.432623 358.670579 
L 269.664502 357.765811 
L 270.592017 348.519106 
L 270.823896 350.473968 
L 274.0702 377.905695 
L 274.533958 374.975417 
L 277.084626 353.177715 
L 277.316504 353.289893 
L 279.171535 374.370204 
L 279.635293 367.797729 
L 279.867172 366.941226 
L 280.099051 368.630852 
L 280.33093 367.316856 
L 280.562809 368.441688 
L 280.794688 368.198506 
L 281.954082 359.328172 
L 282.185961 360.128599 
L 282.41784 363.826527 
L 283.113476 362.031967 
L 283.809113 359.717787 
L 285.200386 377.900814 
L 285.664144 374.371723 
L 285.896023 373.84396 
L 286.591659 366.732279 
L 287.055417 369.714897 
L 287.519175 367.959976 
L 287.751054 369.404386 
L 288.44669 374.73177 
L 288.910448 372.342867 
L 290.069842 369.405239 
L 289.606085 374.115582 
L 290.301721 369.890091 
L 290.5336 374.140818 
L 290.997358 368.980455 
L 291.461116 366.066176 
L 292.156752 366.950609 
L 292.852389 370.767232 
L 293.084268 367.394468 
L 293.316147 367.414016 
L 293.548025 374.405978 
L 294.243662 369.377412 
L 294.70742 371.141766 
L 295.866814 362.624975 
L 297.026208 372.917082 
L 297.489966 369.564109 
L 297.721845 370.434197 
L 297.953724 375.64371 
L 298.881239 374.294131 
L 299.344997 375.462854 
L 299.576876 375.152029 
L 299.808755 377.801771 
L 300.040634 373.599736 
L 300.73627 373.770227 
L 301.200028 368.110375 
L 301.431907 369.635701 
L 301.663786 366.51204 
L 301.895665 365.744682 
L 302.127544 366.959519 
L 303.055059 371.9386 
L 304.214453 357.843502 
L 304.678211 360.746021 
L 305.837606 376.800302 
L 306.069484 374.571741 
L 306.301363 370.656656 
L 306.765121 375.23194 
L 306.997 377.64748 
L 307.228879 375.940709 
L 308.388273 363.29126 
L 308.620152 364.492162 
L 308.852031 365.264907 
L 309.08391 362.568911 
L 309.547668 361.037315 
L 310.011425 357.220431 
L 310.938941 364.911606 
L 311.17082 363.560171 
L 312.330214 359.11904 
L 314.649003 376.615582 
L 314.880882 377.657559 
L 315.11276 376.520584 
L 316.040276 369.815788 
L 316.272155 370.000013 
L 317.431549 377.55638 
L 318.127186 374.697499 
L 318.590943 376.546551 
L 318.822822 377.424195 
L 319.28658 375.903432 
L 319.750338 375.223063 
L 320.445974 367.349393 
L 320.909732 371.656604 
L 321.141611 377.235731 
L 322.069127 376.283255 
L 322.301005 375.896049 
L 322.532884 377.719136 
L 323.228521 375.973012 
L 324.387915 367.636068 
L 324.619794 369.603375 
L 324.851673 368.278546 
L 325.083552 370.979408 
L 325.779188 377.47154 
L 326.474825 375.505182 
L 327.170462 368.739758 
L 327.866098 371.62656 
L 329.257372 375.974995 
L 329.48925 371.191872 
L 330.184887 377.027809 
L 330.648645 377.248204 
L 332.039918 370.464719 
L 332.503676 372.408431 
L 332.735555 371.004418 
L 333.894949 360.83115 
L 334.126828 361.539853 
L 334.358707 362.74229 
L 334.822464 360.429584 
L 335.054343 359.900278 
L 335.286222 362.459711 
L 335.74998 358.725114 
L 335.981859 358.492619 
L 336.909374 366.878478 
L 337.373132 365.366969 
L 338.068769 369.024959 
L 338.532526 368.05498 
L 339.228163 364.163599 
L 339.460042 366.617661 
L 340.387557 373.496428 
L 340.851315 373.053471 
L 341.315073 368.23789 
L 342.010709 370.696268 
L 342.242588 374.191224 
L 342.938225 372.344005 
L 343.401983 374.219356 
L 343.633862 372.049392 
L 343.86574 371.805931 
L 344.097619 375.613776 
L 345.025135 374.985811 
L 345.720771 377.47047 
L 346.416408 371.441274 
L 346.880166 372.020912 
L 348.03956 377.908461 
L 349.198954 374.649567 
L 349.662712 376.524745 
L 349.894591 374.067638 
L 350.12647 375.151298 
L 350.822106 367.393685 
L 351.285864 367.686982 
L 351.749622 372.563538 
L 352.21338 366.503657 
L 353.372774 361.567572 
L 353.604653 362.700411 
L 354.532168 362.508116 
L 354.995926 370.548107 
L 356.387199 362.169821 
L 356.619078 364.610425 
L 357.314715 362.659601 
L 357.546594 360.377438 
L 358.010351 362.04101 
L 359.401625 372.580486 
L 359.865382 368.803685 
L 360.32914 370.007791 
L 360.792898 371.586342 
L 361.256656 371.360815 
L 362.41605 376.807563 
L 362.879808 374.896506 
L 363.343566 368.727326 
L 363.807323 372.477519 
L 364.966718 377.822787 
L 365.430475 375.660785 
L 367.053627 367.559057 
L 367.285506 367.99051 
L 368.213022 365.408368 
L 370.068053 377.785041 
L 371.691205 366.649741 
L 371.923084 368.552264 
L 372.154963 370.546487 
L 372.386841 366.396639 
L 372.61872 364.591078 
L 372.850599 365.284257 
L 373.082478 369.509925 
L 373.778115 365.244147 
L 374.009994 368.148404 
L 374.473751 363.856266 
L 374.70563 367.858558 
L 374.937509 366.176505 
L 375.169388 371.199348 
L 375.633146 368.093988 
L 375.865025 368.305371 
L 376.328782 372.068524 
L 377.024419 369.885308 
L 377.256298 370.022765 
L 377.488177 368.711039 
L 377.951934 376.706684 
L 378.647571 373.428256 
L 379.111329 377.860797 
L 379.806965 377.709566 
L 380.270723 372.611957 
L 380.96636 375.480956 
L 381.198239 377.89207 
L 381.661996 373.630492 
L 381.893875 374.887414 
L 382.589512 369.033271 
L 383.285148 370.087217 
L 383.517027 372.78339 
L 383.748906 369.655993 
L 384.212664 371.668765 
L 384.444543 370.470327 
L 384.676422 372.225595 
L 384.9083 373.499224 
L 385.372058 370.613962 
L 386.067695 374.372775 
L 386.99521 377.473632 
L 387.227089 377.271295 
L 388.386484 369.82992 
L 388.618362 370.621928 
L 390.009636 377.889243 
L 391.632788 372.612396 
L 392.096545 376.826026 
L 392.328424 371.55411 
L 392.560303 370.034396 
L 393.25594 370.667822 
L 393.487819 373.942763 
L 393.719698 367.836231 
L 394.183455 370.317501 
L 394.415334 367.49248 
L 394.647213 373.791824 
L 394.879092 377.686322 
L 395.574729 377.580842 
L 395.806607 375.976989 
L 396.270365 377.938251 
L 396.502244 376.549077 
L 397.197881 377.766697 
L 398.125396 372.522562 
L 398.589154 373.432894 
L 398.821033 374.110018 
L 399.052912 372.741938 
L 399.28479 372.271822 
L 400.212306 377.972801 
L 400.444185 375.514007 
L 401.603579 363.62438 
L 402.531095 367.433963 
L 402.762974 364.148035 
L 403.226731 367.474947 
L 403.922368 373.6355 
L 404.618005 372.775022 
L 404.849883 371.585405 
L 405.081762 376.860964 
L 405.777399 376.546633 
L 406.241157 371.012401 
L 406.704914 374.643063 
L 407.168672 377.59287 
L 407.400551 372.449501 
L 408.328066 373.048553 
L 409.255582 376.994428 
L 409.487461 376.275998 
L 410.414976 369.114312 
L 411.342492 370.673931 
L 411.80625 371.01361 
L 412.501886 376.952839 
L 412.965644 374.577905 
L 413.429402 375.348842 
L 413.893159 374.305473 
L 414.588796 368.406567 
L 415.284433 370.266702 
L 416.675706 377.584089 
L 416.907585 377.250245 
L 418.994494 363.739737 
L 419.226373 364.781954 
L 420.153889 374.163213 
L 420.385768 371.588238 
L 420.849525 364.380638 
L 421.313283 367.447259 
L 422.704556 377.315789 
L 424.09583 373.958256 
L 424.791466 377.860456 
L 425.023345 377.77654 
L 426.182739 371.953267 
L 427.342134 366.738377 
L 427.805892 368.958683 
L 428.501528 368.180686 
L 428.733407 371.57036 
L 429.892801 364.997721 
L 430.820317 371.412442 
L 430.356559 364.763792 
L 431.284075 369.558596 
L 431.979711 364.782739 
L 432.21159 366.107672 
L 432.907227 373.302485 
L 433.370984 369.169992 
L 433.602863 367.381591 
L 434.066621 370.850008 
L 434.2985 369.299766 
L 434.762258 372.107424 
L 435.457894 371.713253 
L 435.689773 370.164162 
L 435.921652 370.754783 
L 436.153531 375.941739 
L 436.849168 373.881137 
L 437.081046 373.846559 
L 437.544804 377.873867 
L 438.240441 376.934515 
L 438.704199 376.748987 
L 438.936077 372.935238 
L 439.631714 377.240649 
L 440.095472 374.40212 
L 440.327351 375.461703 
L 441.950503 357.923993 
L 442.646139 359.139826 
L 442.878018 361.577655 
L 443.341776 356.968921 
L 443.573655 356.958656 
L 444.037413 352.528335 
L 444.269291 355.290352 
L 444.50117 359.614251 
L 445.428686 358.326063 
L 445.892444 357.351811 
L 446.819959 364.995797 
L 447.515596 372.551746 
L 447.979353 369.723954 
L 448.906869 373.266746 
L 448.443111 368.294245 
L 449.138748 373.026481 
L 450.7619 366.403686 
L 451.457536 367.016637 
L 451.921294 364.93438 
L 454.008204 376.099335 
L 452.385052 364.842896 
L 454.240083 375.658789 
L 454.703841 376.217064 
L 455.399477 370.604927 
L 455.631356 366.359783 
L 456.326993 371.05525 
L 458.413903 360.339102 
L 459.109539 363.210029 
L 459.573297 365.384305 
L 459.805176 361.697042 
L 460.268933 366.063649 
L 460.500812 365.774459 
L 460.732691 365.984974 
L 461.196449 366.963498 
L 462.123964 361.164732 
L 462.819601 361.274929 
L 463.515238 358.142212 
L 463.747117 358.819354 
L 464.906511 365.567835 
L 465.834026 361.093476 
L 466.297784 363.146029 
L 467.457178 370.777409 
L 467.689057 365.101041 
L 468.384694 369.305912 
L 468.616573 372.650259 
L 469.312209 369.705028 
L 470.703483 365.124085 
L 470.935362 365.592553 
L 471.16724 364.670301 
L 471.399119 361.822174 
L 471.630998 367.047927 
L 472.094756 364.311047 
L 473.25415 366.867069 
L 473.486029 365.668662 
L 473.717908 364.692536 
L 473.949787 366.151472 
L 474.181666 365.166473 
L 475.109181 370.638218 
L 475.804818 369.940923 
L 476.036697 364.659561 
L 476.732333 368.05537 
L 477.42797 366.206436 
L 478.123607 376.971241 
L 478.355485 375.154881 
L 479.051122 377.542701 
L 479.283001 377.900675 
L 480.906153 365.344747 
L 481.138032 364.246657 
L 481.833668 372.908738 
L 482.529305 371.647292 
L 483.224942 370.807335 
L 484.384336 375.712974 
L 484.616215 373.080878 
L 485.079973 375.834326 
L 485.775609 375.46657 
L 486.007488 371.592655 
L 486.703125 373.225554 
L 487.166882 375.879999 
L 487.398761 375.251725 
L 488.558156 367.557243 
L 489.949429 373.219504 
L 490.181308 372.450303 
L 490.645066 377.668597 
L 491.108823 376.803816 
L 492.500097 367.93314 
L 492.963854 365.766981 
L 493.195733 368.792592 
L 494.587006 376.333553 
L 495.050764 370.970866 
L 495.746401 374.99256 
L 495.97828 377.606458 
L 496.442037 376.2228 
L 497.369553 370.320863 
L 497.601432 373.775395 
L 498.297068 375.957997 
L 498.528947 375.768294 
L 498.992705 377.654702 
L 500.152099 370.005278 
L 501.543372 377.726647 
L 502.934646 374.054461 
L 503.862161 377.351992 
L 504.09404 371.908952 
L 504.789677 376.307518 
L 505.717192 377.844317 
L 505.253434 375.403669 
L 505.949071 376.798231 
L 508.035981 362.435957 
L 508.963496 367.838555 
L 509.427254 367.596858 
L 511.282285 377.209629 
L 511.977922 373.332839 
L 513.832953 362.233953 
L 514.760468 368.455233 
L 515.919862 373.805618 
L 516.151741 373.951332 
L 516.615499 376.919634 
L 517.311136 376.553853 
L 517.543015 377.861368 
L 517.774893 376.305933 
L 518.006772 376.30793 
L 519.861803 363.444213 
L 520.325561 366.072697 
L 520.789319 372.020063 
L 521.253076 367.488797 
L 521.948713 363.762189 
L 521.716834 367.740149 
L 522.412471 365.637022 
L 524.035623 374.426578 
L 524.499381 376.350262 
L 524.73126 373.795739 
L 524.963138 371.629421 
L 525.426896 375.614513 
L 525.658775 377.537158 
L 526.354412 376.509887 
L 527.745685 372.231163 
L 526.818169 377.844218 
L 528.209443 372.412508 
L 528.6732 375.016571 
L 529.136958 372.450699 
L 529.832595 376.23395 
L 530.064474 374.75882 
L 530.528231 377.361187 
L 530.991989 377.143577 
L 531.223868 374.422958 
L 531.919505 377.729881 
L 532.615141 375.958678 
L 533.310778 373.973841 
L 533.542657 377.507958 
L 534.238293 373.143272 
L 535.165809 367.543163 
L 535.397688 368.716432 
L 535.629566 367.174915 
L 535.861445 371.6939 
L 536.788961 376.94197 
L 537.252719 375.95046 
L 537.716476 371.638358 
L 538.180234 372.055019 
L 538.412113 376.189849 
L 538.412113 376.189849 
" clip-path="url(#p0ab0d03b27)" style="fill: none; stroke: #e41a1c; stroke-width: 2; stroke-linecap: square"/>
   </g>
   <g id="patch_6">
    <path d="M 51.466484 385.599141 
L 51.466484 217.858633 
" style="fill: none; stroke: #7f7f7f; stroke-width: 1.8; stroke-linejoin: miter; stroke-linecap: square"/>
   </g>
   <g id="patch_7">
    <path d="M 51.466484 385.599141 
L 561.6 385.599141 
" style="fill: none; stroke: #7f7f7f; stroke-width: 1.8; stroke-linejoin: miter; stroke-linecap: square"/>
   </g>
  </g>
 </g>
 <defs>
  <clipPath id="p5f29772250">
   <rect x="51.466484" y="22.318125" width="510.133516" height="167.740508"/>
  </clipPath>
  <clipPath id="p0ab0d03b27">
   <rect x="51.466484" y="217.858633" width="510.133516" height="167.740508"/>
  </clipPath>
 </defs>
</svg>
