<?xml version="1.0" encoding="utf-8" standalone="no"?>
<!DOCTYPE svg PUBLIC "-//W3C//DTD SVG 1.1//EN"
  "http://www.w3.org/Graphics/SVG/1.1/DTD/svg11.dtd">
<svg xmlns:xlink="http://www.w3.org/1999/xlink" width="575.1625pt" height="424.8pt" viewBox="0 0 575.1625 424.8" xmlns="http://www.w3.org/2000/svg" version="1.1">
 <metadata>
  <rdf:RDF xmlns:dc="http://purl.org/dc/elements/1.1/" xmlns:cc="http://creativecommons.org/ns#" xmlns:rdf="http://www.w3.org/1999/02/22-rdf-syntax-ns#">
   <cc:Work>
    <dc:type rdf:resource="http://purl.org/dc/dcmitype/StillImage"/>
    <dc:date>2026-06-26T18:47:53.858951</dc:date>
    <dc:format>image/svg+xml</dc:format>
    <dc:creator>
     <cc:Agent>
      <dc:title>Matplotlib v3.11.0, https://matplotlib.org/</dc:title>
     </cc:Agent>
    </dc:creator>
   </cc:Work>
  </rdf:RDF>
 </metadata>
 <defs>
  <style type="text/css">*{stroke-linejoin: round; stroke-linecap: butt}</style>
 </defs>
 <g id="figure_1">
  <g id="patch_1">
   <path d="M 0 424.8 
L 575.1625 424.8 
L 575.1625 0 
L 0 0 
L 0 424.8 
z
" style="fill: none"/>
  </g>
  <g id="axes_1">
   <g id="patch_2">
    <path d="M 51.466484 190.058633 
L 567.9625 190.058633 
L 567.9625 22.318125 
L 51.466484 22.318125 
L 51.466484 190.058633 
z
" style="fill: none"/>
   </g>
   <g id="matplotlib.axis_1">
    <g id="xtick_1">
     <g id="line2d_1">
      <defs>
       <path id="mc0d39b138a" d="M 0 0 
L 0 3.5 
" style="stroke: #7f7f7f; stroke-width: 1.8"/>
      </defs>
      <g>
       <use xlink:href="#mc0d39b138a" x="74.943576" y="190.058633" style="fill: #7f7f7f; stroke: #7f7f7f; stroke-width: 1.8"/>
      </g>
     </g>
     <g id="text_1">
      <!-- 0.0 -->
      <g style="fill: #7f7f7f" transform="translate(66.992013 204.656289) scale(0.1 -0.1)">
       <defs>
        <path id="DejaVuSans-13" d="M 2034 4250 
Q 1547 4250 1301 3770 
Q 1056 3291 1056 2328 
Q 1056 1369 1301 889 
Q 1547 409 2034 409 
Q 2525 409 2770 889 
Q 3016 1369 3016 2328 
Q 3016 3291 2770 3770 
Q 2525 4250 2034 4250 
z
M 2034 4750 
Q 2819 4750 3233 4129 
Q 3647 3509 3647 2328 
Q 3647 1150 3233 529 
Q 2819 -91 2034 -91 
Q 1250 -91 836 529 
Q 422 1150 422 2328 
Q 422 3509 836 4129 
Q 1250 4750 2034 4750 
z
" transform="scale(0.015625)"/>
        <path id="DejaVuSans-11" d="M 684 794 
L 1344 794 
L 1344 0 
L 684 0 
L 684 794 
z
" transform="scale(0.015625)"/>
       </defs>
       <use xlink:href="#DejaVuSans-13"/>
       <use xlink:href="#DejaVuSans-11" transform="translate(63.625 0)"/>
       <use xlink:href="#DejaVuSans-13" transform="translate(95.40625 0)"/>
      </g>
     </g>
    </g>
    <g id="xtick_2">
     <g id="line2d_2">
      <g>
       <use xlink:href="#mc0d39b138a" x="133.636305" y="190.058633" style="fill: #7f7f7f; stroke: #7f7f7f; stroke-width: 1.8"/>
      </g>
     </g>
     <g id="text_2">
      <!-- 2.5 -->
      <g style="fill: #7f7f7f" transform="translate(125.684743 204.656289) scale(0.1 -0.1)">
       <defs>
        <path id="DejaVuSans-15" d="M 1228 531 
L 3431 531 
L 3431 0 
L 469 0 
L 469 531 
Q 828 903 1448 1529 
Q 2069 2156 2228 2338 
Q 2531 2678 2651 2914 
Q 2772 3150 2772 3378 
Q 2772 3750 2511 3984 
Q 2250 4219 1831 4219 
Q 1534 4219 1204 4116 
Q 875 4013 500 3803 
L 500 4441 
Q 881 4594 1212 4672 
Q 1544 4750 1819 4750 
Q 2544 4750 2975 4387 
Q 3406 4025 3406 3419 
Q 3406 3131 3298 2873 
Q 3191 2616 2906 2266 
Q 2828 2175 2409 1742 
Q 1991 1309 1228 531 
z
" transform="scale(0.015625)"/>
        <path id="DejaVuSans-18" d="M 691 4666 
L 3169 4666 
L 3169 4134 
L 1269 4134 
L 1269 2991 
Q 1406 3038 1543 3061 
Q 1681 3084 1819 3084 
Q 2600 3084 3056 2656 
Q 3513 2228 3513 1497 
Q 3513 744 3044 326 
Q 2575 -91 1722 -91 
Q 1428 -91 1123 -41 
Q 819 9 494 109 
L 494 744 
Q 775 591 1075 516 
Q 1375 441 1709 441 
Q 2250 441 2565 725 
Q 2881 1009 2881 1497 
Q 2881 1984 2565 2268 
Q 2250 2553 1709 2553 
Q 1456 2553 1204 2497 
Q 953 2441 691 2322 
L 691 4666 
z
" transform="scale(0.015625)"/>
       </defs>
       <use xlink:href="#DejaVuSans-15"/>
       <use xlink:href="#DejaVuSans-11" transform="translate(63.625 0)"/>
       <use xlink:href="#DejaVuSans-18" transform="translate(95.40625 0)"/>
      </g>
     </g>
    </g>
    <g id="xtick_3">
     <g id="line2d_3">
      <g>
       <use xlink:href="#mc0d39b138a" x="192.329034" y="190.058633" style="fill: #7f7f7f; stroke: #7f7f7f; stroke-width: 1.8"/>
      </g>
     </g>
     <g id="text_3">
      <!-- 5.0 -->
      <g style="fill: #7f7f7f" transform="translate(184.377472 204.656289) scale(0.1 -0.1)">
       <use xlink:href="#DejaVuSans-18"/>
       <use xlink:href="#DejaVuSans-11" transform="translate(63.625 0)"/>
       <use xlink:href="#DejaVuSans-13" transform="translate(95.40625 0)"/>
      </g>
     </g>
    </g>
    <g id="xtick_4">
     <g id="line2d_4">
      <g>
       <use xlink:href="#mc0d39b138a" x="251.021763" y="190.058633" style="fill: #7f7f7f; stroke: #7f7f7f; stroke-width: 1.8"/>
      </g>
     </g>
     <g id="text_4">
      <!-- 7.5 -->
      <g style="fill: #7f7f7f" transform="translate(243.070201 204.656289) scale(0.1 -0.1)">
       <defs>
        <path id="DejaVuSans-1a" d="M 525 4666 
L 3525 4666 
L 3525 4397 
L 1831 0 
L 1172 0 
L 2766 4134 
L 525 4134 
L 525 4666 
z
" transform="scale(0.015625)"/>
       </defs>
       <use xlink:href="#DejaVuSans-1a"/>
       <use xlink:href="#DejaVuSans-11" transform="translate(63.625 0)"/>
       <use xlink:href="#DejaVuSans-18" transform="translate(95.40625 0)"/>
      </g>
     </g>
    </g>
    <g id="xtick_5">
     <g id="line2d_5">
      <g>
       <use xlink:href="#mc0d39b138a" x="309.714492" y="190.058633" style="fill: #7f7f7f; stroke: #7f7f7f; stroke-width: 1.8"/>
      </g>
     </g>
     <g id="text_5">
      <!-- 10.0 -->
      <g style="fill: #7f7f7f" transform="translate(298.58168 204.656289) scale(0.1 -0.1)">
       <defs>
        <path id="DejaVuSans-14" d="M 794 531 
L 1825 531 
L 1825 4091 
L 703 3866 
L 703 4441 
L 1819 4666 
L 2450 4666 
L 2450 531 
L 3481 531 
L 3481 0 
L 794 0 
L 794 531 
z
" transform="scale(0.015625)"/>
       </defs>
       <use xlink:href="#DejaVuSans-14"/>
       <use xlink:href="#DejaVuSans-13" transform="translate(63.625 0)"/>
       <use xlink:href="#DejaVuSans-11" transform="translate(127.25 0)"/>
       <use xlink:href="#DejaVuSans-13" transform="translate(159.03125 0)"/>
      </g>
     </g>
    </g>
    <g id="xtick_6">
     <g id="line2d_6">
      <g>
       <use xlink:href="#mc0d39b138a" x="368.407221" y="190.058633" style="fill: #7f7f7f; stroke: #7f7f7f; stroke-width: 1.8"/>
      </g>
     </g>
     <g id="text_6">
      <!-- 12.5 -->
      <g style="fill: #7f7f7f" transform="translate(357.274409 204.656289) scale(0.1 -0.1)">
       <use xlink:href="#DejaVuSans-14"/>
       <use xlink:href="#DejaVuSans-15" transform="translate(63.625 0)"/>
       <use xlink:href="#DejaVuSans-11" transform="translate(127.25 0)"/>
       <use xlink:href="#DejaVuSans-18" transform="translate(159.03125 0)"/>
      </g>
     </g>
    </g>
    <g id="xtick_7">
     <g id="line2d_7">
      <g>
       <use xlink:href="#mc0d39b138a" x="427.09995" y="190.058633" style="fill: #7f7f7f; stroke: #7f7f7f; stroke-width: 1.8"/>
      </g>
     </g>
     <g id="text_7">
      <!-- 15.0 -->
      <g style="fill: #7f7f7f" transform="translate(415.967138 204.656289) scale(0.1 -0.1)">
       <use xlink:href="#DejaVuSans-14"/>
       <use xlink:href="#DejaVuSans-18" transform="translate(63.625 0)"/>
       <use xlink:href="#DejaVuSans-11" transform="translate(127.25 0)"/>
       <use xlink:href="#DejaVuSans-13" transform="translate(159.03125 0)"/>
      </g>
     </g>
    </g>
    <g id="xtick_8">
     <g id="line2d_8">
      <g>
       <use xlink:href="#mc0d39b138a" x="485.792679" y="190.058633" style="fill: #7f7f7f; stroke: #7f7f7f; stroke-width: 1.8"/>
      </g>
     </g>
     <g id="text_8">
      <!-- 17.5 -->
      <g style="fill: #7f7f7f" transform="translate(474.659867 204.656289) scale(0.1 -0.1)">
       <use xlink:href="#DejaVuSans-14"/>
       <use xlink:href="#DejaVuSans-1a" transform="translate(63.625 0)"/>
       <use xlink:href="#DejaVuSans-11" transform="translate(127.25 0)"/>
       <use xlink:href="#DejaVuSans-18" transform="translate(159.03125 0)"/>
      </g>
     </g>
    </g>
    <g id="xtick_9">
     <g id="line2d_9">
      <g>
       <use xlink:href="#mc0d39b138a" x="544.485408" y="190.058633" style="fill: #7f7f7f; stroke: #7f7f7f; stroke-width: 1.8"/>
      </g>
     </g>
     <g id="text_9">
      <!-- 20.0 -->
      <g style="fill: #7f7f7f" transform="translate(533.352596 204.656289) scale(0.1 -0.1)">
       <use xlink:href="#DejaVuSans-15"/>
       <use xlink:href="#DejaVuSans-13" transform="translate(63.625 0)"/>
       <use xlink:href="#DejaVuSans-11" transform="translate(127.25 0)"/>
       <use xlink:href="#DejaVuSans-13" transform="translate(159.03125 0)"/>
      </g>
     </g>
    </g>
   </g>
   <g id="matplotlib.axis_2">
    <g id="ytick_1">
     <g id="line2d_10">
      <defs>
       <path id="mf7c2cbdbff" d="M 0 0 
L -3.5 0 
" style="stroke: #7f7f7f; stroke-width: 1.8"/>
      </defs>
      <g>
       <use xlink:href="#mf7c2cbdbff" x="51.466484" y="182.434064" style="fill: #7f7f7f; stroke: #7f7f7f; stroke-width: 1.8"/>
      </g>
     </g>
     <g id="text_10">
      <!-- 0.00 -->
      <g style="fill: #7f7f7f" transform="translate(22.200859 186.232892) scale(0.1 -0.1)">
       <use xlink:href="#DejaVuSans-13"/>
       <use xlink:href="#DejaVuSans-11" transform="translate(63.625 0)"/>
       <use xlink:href="#DejaVuSans-13" transform="translate(95.40625 0)"/>
       <use xlink:href="#DejaVuSans-13" transform="translate(159.03125 0)"/>
      </g>
     </g>
    </g>
    <g id="ytick_2">
     <g id="line2d_11">
      <g>
       <use xlink:href="#mf7c2cbdbff" x="51.466484" y="159.090034" style="fill: #7f7f7f; stroke: #7f7f7f; stroke-width: 1.8"/>
      </g>
     </g>
     <g id="text_11">
      <!-- 0.05 -->
      <g style="fill: #7f7f7f" transform="translate(22.200859 162.888863) scale(0.1 -0.1)">
       <use xlink:href="#DejaVuSans-13"/>
       <use xlink:href="#DejaVuSans-11" transform="translate(63.625 0)"/>
       <use xlink:href="#DejaVuSans-13" transform="translate(95.40625 0)"/>
       <use xlink:href="#DejaVuSans-18" transform="translate(159.03125 0)"/>
      </g>
     </g>
    </g>
    <g id="ytick_3">
     <g id="line2d_12">
      <g>
       <use xlink:href="#mf7c2cbdbff" x="51.466484" y="135.746004" style="fill: #7f7f7f; stroke: #7f7f7f; stroke-width: 1.8"/>
      </g>
     </g>
     <g id="text_12">
      <!-- 0.10 -->
      <g style="fill: #7f7f7f" transform="translate(22.200859 139.544833) scale(0.1 -0.1)">
       <use xlink:href="#DejaVuSans-13"/>
       <use xlink:href="#DejaVuSans-11" transform="translate(63.625 0)"/>
       <use xlink:href="#DejaVuSans-14" transform="translate(95.40625 0)"/>
       <use xlink:href="#DejaVuSans-13" transform="translate(159.03125 0)"/>
      </g>
     </g>
    </g>
    <g id="ytick_4">
     <g id="line2d_13">
      <g>
       <use xlink:href="#mf7c2cbdbff" x="51.466484" y="112.401975" style="fill: #7f7f7f; stroke: #7f7f7f; stroke-width: 1.8"/>
      </g>
     </g>
     <g id="text_13">
      <!-- 0.15 -->
      <g style="fill: #7f7f7f" transform="translate(22.200859 116.200803) scale(0.1 -0.1)">
       <use xlink:href="#DejaVuSans-13"/>
       <use xlink:href="#DejaVuSans-11" transform="translate(63.625 0)"/>
       <use xlink:href="#DejaVuSans-14" transform="translate(95.40625 0)"/>
       <use xlink:href="#DejaVuSans-18" transform="translate(159.03125 0)"/>
      </g>
     </g>
    </g>
    <g id="ytick_5">
     <g id="line2d_14">
      <g>
       <use xlink:href="#mf7c2cbdbff" x="51.466484" y="89.057945" style="fill: #7f7f7f; stroke: #7f7f7f; stroke-width: 1.8"/>
      </g>
     </g>
     <g id="text_14">
      <!-- 0.20 -->
      <g style="fill: #7f7f7f" transform="translate(22.200859 92.856773) scale(0.1 -0.1)">
       <use xlink:href="#DejaVuSans-13"/>
       <use xlink:href="#DejaVuSans-11" transform="translate(63.625 0)"/>
       <use xlink:href="#DejaVuSans-15" transform="translate(95.40625 0)"/>
       <use xlink:href="#DejaVuSans-13" transform="translate(159.03125 0)"/>
      </g>
     </g>
    </g>
    <g id="ytick_6">
     <g id="line2d_15">
      <g>
       <use xlink:href="#mf7c2cbdbff" x="51.466484" y="65.713915" style="fill: #7f7f7f; stroke: #7f7f7f; stroke-width: 1.8"/>
      </g>
     </g>
     <g id="text_15">
      <!-- 0.25 -->
      <g style="fill: #7f7f7f" transform="translate(22.200859 69.512743) scale(0.1 -0.1)">
       <use xlink:href="#DejaVuSans-13"/>
       <use xlink:href="#DejaVuSans-11" transform="translate(63.625 0)"/>
       <use xlink:href="#DejaVuSans-15" transform="translate(95.40625 0)"/>
       <use xlink:href="#DejaVuSans-18" transform="translate(159.03125 0)"/>
      </g>
     </g>
    </g>
    <g id="ytick_7">
     <g id="line2d_16">
      <g>
       <use xlink:href="#mf7c2cbdbff" x="51.466484" y="42.369885" style="fill: #7f7f7f; stroke: #7f7f7f; stroke-width: 1.8"/>
      </g>
     </g>
     <g id="text_16">
      <!-- 0.30 -->
      <g style="fill: #7f7f7f" transform="translate(22.200859 46.168713) scale(0.1 -0.1)">
       <defs>
        <path id="DejaVuSans-16" d="M 2597 2516 
Q 3050 2419 3304 2112 
Q 3559 1806 3559 1356 
Q 3559 666 3084 287 
Q 2609 -91 1734 -91 
Q 1441 -91 1130 -33 
Q 819 25 488 141 
L 488 750 
Q 750 597 1062 519 
Q 1375 441 1716 441 
Q 2309 441 2620 675 
Q 2931 909 2931 1356 
Q 2931 1769 2642 2001 
Q 2353 2234 1838 2234 
L 1294 2234 
L 1294 2753 
L 1863 2753 
Q 2328 2753 2575 2939 
Q 2822 3125 2822 3475 
Q 2822 3834 2567 4026 
Q 2313 4219 1838 4219 
Q 1578 4219 1281 4162 
Q 984 4106 628 3988 
L 628 4550 
Q 988 4650 1302 4700 
Q 1616 4750 1894 4750 
Q 2613 4750 3031 4423 
Q 3450 4097 3450 3541 
Q 3450 3153 3228 2886 
Q 3006 2619 2597 2516 
z
" transform="scale(0.015625)"/>
       </defs>
       <use xlink:href="#DejaVuSans-13"/>
       <use xlink:href="#DejaVuSans-11" transform="translate(63.625 0)"/>
       <use xlink:href="#DejaVuSans-16" transform="translate(95.40625 0)"/>
       <use xlink:href="#DejaVuSans-13" transform="translate(159.03125 0)"/>
      </g>
     </g>
    </g>
    <g id="text_17">
     <!-- Position Error [m] -->
     <g style="fill: #7f7f7f" transform="translate(15.558281 154.153535) rotate(-90) scale(0.11 -0.11)">
      <defs>
       <path id="DejaVuSans-33" d="M 1259 4147 
L 1259 2394 
L 2053 2394 
Q 2494 2394 2734 2622 
Q 2975 2850 2975 3272 
Q 2975 3691 2734 3919 
Q 2494 4147 2053 4147 
L 1259 4147 
z
M 628 4666 
L 2053 4666 
Q 2838 4666 3239 4311 
Q 3641 3956 3641 3272 
Q 3641 2581 3239 2228 
Q 2838 1875 2053 1875 
L 1259 1875 
L 1259 0 
L 628 0 
L 628 4666 
z
" transform="scale(0.015625)"/>
       <path id="DejaVuSans-52" d="M 1959 3097 
Q 1497 3097 1228 2736 
Q 959 2375 959 1747 
Q 959 1119 1226 758 
Q 1494 397 1959 397 
Q 2419 397 2687 759 
Q 2956 1122 2956 1747 
Q 2956 2369 2687 2733 
Q 2419 3097 1959 3097 
z
M 1959 3584 
Q 2709 3584 3137 3096 
Q 3566 2609 3566 1747 
Q 3566 888 3137 398 
Q 2709 -91 1959 -91 
Q 1206 -91 779 398 
Q 353 888 353 1747 
Q 353 2609 779 3096 
Q 1206 3584 1959 3584 
z
" transform="scale(0.015625)"/>
       <path id="DejaVuSans-56" d="M 2834 3397 
L 2834 2853 
Q 2591 2978 2328 3040 
Q 2066 3103 1784 3103 
Q 1356 3103 1142 2972 
Q 928 2841 928 2578 
Q 928 2378 1081 2264 
Q 1234 2150 1697 2047 
L 1894 2003 
Q 2506 1872 2764 1633 
Q 3022 1394 3022 966 
Q 3022 478 2636 193 
Q 2250 -91 1575 -91 
Q 1294 -91 989 -36 
Q 684 19 347 128 
L 347 722 
Q 666 556 975 473 
Q 1284 391 1588 391 
Q 1994 391 2212 530 
Q 2431 669 2431 922 
Q 2431 1156 2273 1281 
Q 2116 1406 1581 1522 
L 1381 1569 
Q 847 1681 609 1914 
Q 372 2147 372 2553 
Q 372 3047 722 3315 
Q 1072 3584 1716 3584 
Q 2034 3584 2315 3537 
Q 2597 3491 2834 3397 
z
" transform="scale(0.015625)"/>
       <path id="DejaVuSans-4c" d="M 603 3500 
L 1178 3500 
L 1178 0 
L 603 0 
L 603 3500 
z
M 603 4863 
L 1178 4863 
L 1178 4134 
L 603 4134 
L 603 4863 
z
" transform="scale(0.015625)"/>
       <path id="DejaVuSans-57" d="M 1172 4494 
L 1172 3500 
L 2356 3500 
L 2356 3053 
L 1172 3053 
L 1172 1153 
Q 1172 725 1289 603 
Q 1406 481 1766 481 
L 2356 481 
L 2356 0 
L 1766 0 
Q 1100 0 847 248 
Q 594 497 594 1153 
L 594 3053 
L 172 3053 
L 172 3500 
L 594 3500 
L 594 4494 
L 1172 4494 
z
" transform="scale(0.015625)"/>
       <path id="DejaVuSans-51" d="M 3513 2113 
L 3513 0 
L 2938 0 
L 2938 2094 
Q 2938 2591 2744 2837 
Q 2550 3084 2163 3084 
Q 1697 3084 1428 2787 
Q 1159 2491 1159 1978 
L 1159 0 
L 581 0 
L 581 3500 
L 1159 3500 
L 1159 2956 
Q 1366 3272 1645 3428 
Q 1925 3584 2291 3584 
Q 2894 3584 3203 3211 
Q 3513 2838 3513 2113 
z
" transform="scale(0.015625)"/>
       <path id="DejaVuSans-3" transform="scale(0.015625)"/>
       <path id="DejaVuSans-28" d="M 628 4666 
L 3578 4666 
L 3578 4134 
L 1259 4134 
L 1259 2753 
L 3481 2753 
L 3481 2222 
L 1259 2222 
L 1259 531 
L 3634 531 
L 3634 0 
L 628 0 
L 628 4666 
z
" transform="scale(0.015625)"/>
       <path id="DejaVuSans-55" d="M 2631 2963 
Q 2534 3019 2420 3045 
Q 2306 3072 2169 3072 
Q 1681 3072 1420 2755 
Q 1159 2438 1159 1844 
L 1159 0 
L 581 0 
L 581 3500 
L 1159 3500 
L 1159 2956 
Q 1341 3275 1631 3429 
Q 1922 3584 2338 3584 
Q 2397 3584 2469 3576 
Q 2541 3569 2628 3553 
L 2631 2963 
z
" transform="scale(0.015625)"/>
       <path id="DejaVuSans-3e" d="M 550 4863 
L 1875 4863 
L 1875 4416 
L 1125 4416 
L 1125 -397 
L 1875 -397 
L 1875 -844 
L 550 -844 
L 550 4863 
z
" transform="scale(0.015625)"/>
       <path id="DejaVuSans-50" d="M 3328 2828 
Q 3544 3216 3844 3400 
Q 4144 3584 4550 3584 
Q 5097 3584 5394 3201 
Q 5691 2819 5691 2113 
L 5691 0 
L 5113 0 
L 5113 2094 
Q 5113 2597 4934 2840 
Q 4756 3084 4391 3084 
Q 3944 3084 3684 2787 
Q 3425 2491 3425 1978 
L 3425 0 
L 2847 0 
L 2847 2094 
Q 2847 2600 2669 2842 
Q 2491 3084 2119 3084 
Q 1678 3084 1418 2786 
Q 1159 2488 1159 1978 
L 1159 0 
L 581 0 
L 581 3500 
L 1159 3500 
L 1159 2956 
Q 1356 3278 1631 3431 
Q 1906 3584 2284 3584 
Q 2666 3584 2933 3390 
Q 3200 3197 3328 2828 
z
" transform="scale(0.015625)"/>
       <path id="DejaVuSans-40" d="M 1947 4863 
L 1947 -844 
L 622 -844 
L 622 -397 
L 1369 -397 
L 1369 4416 
L 622 4416 
L 622 4863 
L 1947 4863 
z
" transform="scale(0.015625)"/>
      </defs>
      <use xlink:href="#DejaVuSans-33"/>
      <use xlink:href="#DejaVuSans-52" transform="translate(56.734375 0)"/>
      <use xlink:href="#DejaVuSans-56" transform="translate(117.921875 0)"/>
      <use xlink:href="#DejaVuSans-4c" transform="translate(170.015625 0)"/>
      <use xlink:href="#DejaVuSans-57" transform="translate(197.796875 0)"/>
      <use xlink:href="#DejaVuSans-4c" transform="translate(237 0)"/>
      <use xlink:href="#DejaVuSans-52" transform="translate(264.78125 0)"/>
      <use xlink:href="#DejaVuSans-51" transform="translate(325.96875 0)"/>
      <use xlink:href="#DejaVuSans-3" transform="translate(389.34375 0)"/>
      <use xlink:href="#DejaVuSans-28" transform="translate(421.125 0)"/>
      <use xlink:href="#DejaVuSans-55" transform="translate(484.3125 0)"/>
      <use xlink:href="#DejaVuSans-55" transform="translate(523.671875 0)"/>
      <use xlink:href="#DejaVuSans-52" transform="translate(562.578125 0)"/>
      <use xlink:href="#DejaVuSans-55" transform="translate(623.765625 0)"/>
      <use xlink:href="#DejaVuSans-3" transform="translate(664.875 0)"/>
      <use xlink:href="#DejaVuSans-3e" transform="translate(696.65625 0)"/>
      <use xlink:href="#DejaVuSans-50" transform="translate(735.671875 0)"/>
      <use xlink:href="#DejaVuSans-40" transform="translate(833.078125 0)"/>
     </g>
    </g>
   </g>
   <g id="line2d_17">
    <path d="M 74.943576 182.434064 
L 75.647889 119.806389 
L 76.117431 137.200112 
L 76.586972 38.960387 
L 77.526056 121.827077 
L 77.760827 82.238298 
L 77.995598 85.829684 
L 79.169452 174.627446 
L 79.873765 172.441359 
L 80.578078 180.808349 
L 80.812849 178.844833 
L 81.517162 157.673228 
L 81.751933 172.518772 
L 82.456245 181.187612 
L 85.038725 81.116972 
L 85.273496 95.622252 
L 85.508267 64.828236 
L 85.977809 83.277708 
L 86.682122 85.846903 
L 87.151664 63.0349 
L 87.386435 90.773068 
L 87.855976 57.889045 
L 88.560289 44.322756 
L 89.499373 71.639895 
L 89.734144 71.143151 
L 90.203686 47.99903 
L 90.673227 63.313273 
L 91.847082 86.752621 
L 92.316624 80.665411 
L 92.551395 78.069508 
L 93.255707 113.532372 
L 93.725249 98.655775 
L 95.368646 29.942694 
L 95.838188 33.274789 
L 97.012042 55.428257 
L 97.481584 55.248681 
L 97.716355 53.850843 
L 98.185897 55.896959 
L 99.359751 107.056793 
L 99.594522 95.080067 
L 100.064064 121.839013 
L 101.70746 170.898905 
L 101.942231 171.917081 
L 102.177002 180.417803 
L 102.881315 169.911698 
L 103.116086 170.739957 
L 103.350857 162.993075 
L 103.585628 177.375597 
L 103.820399 173.46585 
L 104.05517 177.294749 
L 104.289941 173.606407 
L 104.994253 156.480906 
L 105.463795 163.949824 
L 105.698566 178.261669 
L 106.63765 176.949839 
L 106.872421 179.749721 
L 108.515817 123.077082 
L 108.750588 134.317308 
L 110.393984 168.837213 
L 110.628755 176.935085 
L 110.863526 157.275574 
L 112.272152 124.485183 
L 112.741694 128.685721 
L 112.976464 114.915495 
L 113.446006 142.609892 
L 114.854632 179.590031 
L 115.558944 165.077507 
L 115.793715 168.765014 
L 116.028486 179.190693 
L 116.263257 170.990082 
L 116.96757 146.639755 
L 117.437112 147.645289 
L 118.845737 167.313145 
L 119.080508 173.105983 
L 119.784821 170.135289 
L 120.723905 159.968552 
L 121.897759 144.706249 
L 122.367301 147.461988 
L 122.602072 143.581218 
L 123.306385 148.105616 
L 123.775927 134.218557 
L 124.010697 133.151295 
L 124.245468 125.311492 
L 124.71501 139.985494 
L 125.419323 125.696229 
L 126.358407 165.666383 
L 126.593178 163.812825 
L 127.29749 145.851305 
L 127.532261 147.768299 
L 128.706116 164.481466 
L 129.175658 161.073182 
L 129.645199 144.010881 
L 130.114741 162.948065 
L 130.819054 169.105621 
L 131.053825 167.80012 
L 131.992909 152.083492 
L 132.22768 166.576125 
L 132.697221 145.200604 
L 133.401534 146.55504 
L 133.636305 134.100351 
L 135.279701 182.177369 
L 135.514472 172.895701 
L 136.688327 157.943492 
L 137.862182 174.835169 
L 138.566494 180.350246 
L 139.740349 152.734474 
L 140.914203 179.551023 
L 141.853287 177.034824 
L 142.088058 169.482666 
L 142.792371 170.789496 
L 143.261913 180.436631 
L 143.496684 175.323569 
L 144.200996 157.653066 
L 144.905309 158.048467 
L 145.14008 155.57523 
L 145.374851 159.308021 
L 145.844393 180.716624 
L 146.079164 175.686746 
L 146.313935 152.140985 
L 147.018247 167.805349 
L 147.487789 155.370805 
L 147.72256 155.972118 
L 148.192102 181.154908 
L 148.661644 171.834001 
L 150.070269 132.814277 
L 150.774582 118.273835 
L 151.009353 125.866796 
L 151.948437 169.524052 
L 152.183207 162.271254 
L 152.417978 161.671946 
L 154.061375 181.065292 
L 154.296146 179.568002 
L 154.765687 178.430593 
L 156.174313 154.28111 
L 156.409084 174.410737 
L 157.348168 171.720795 
L 157.582938 171.642726 
L 158.287251 181.803671 
L 158.756793 177.174061 
L 158.991564 159.068746 
L 159.461106 176.194727 
L 159.930648 182.247364 
L 160.63496 157.057227 
L 161.104502 170.707868 
L 161.339273 175.04111 
L 161.574044 170.230342 
L 162.043586 155.973522 
L 162.278357 172.565054 
L 162.747899 173.172691 
L 162.98267 165.727998 
L 163.452211 170.274521 
L 163.921753 180.584317 
L 164.391295 174.691404 
L 164.626066 172.410521 
L 164.860837 173.26025 
L 165.095608 181.537338 
L 165.330379 165.490847 
L 165.799921 147.550642 
L 166.504233 153.094299 
L 168.617172 123.513128 
L 168.851942 128.687146 
L 169.321484 121.344221 
L 169.556255 126.748225 
L 169.791026 129.816289 
L 170.025797 128.953311 
L 170.495339 112.445327 
L 170.964881 124.661515 
L 171.434423 129.012233 
L 172.373506 175.130394 
L 172.843048 153.760034 
L 173.077819 149.505355 
L 173.782132 175.657244 
L 174.251674 173.057135 
L 174.721215 170.297112 
L 174.955986 174.195899 
L 175.190757 171.048585 
L 175.660299 179.20827 
L 176.129841 151.880284 
L 176.599383 155.315713 
L 177.068925 176.92178 
L 177.538466 174.294015 
L 178.947092 128.37301 
L 179.416634 134.190519 
L 179.651405 126.014032 
L 179.886176 126.193112 
L 181.294801 159.375016 
L 181.529572 159.039573 
L 181.764343 160.474566 
L 181.999114 153.356095 
L 182.233885 166.809686 
L 182.938197 173.873561 
L 182.703427 165.546582 
L 183.407739 171.151658 
L 183.64251 173.225037 
L 183.877281 169.132905 
L 184.112052 161.1307 
L 184.346823 172.327761 
L 184.581594 167.804149 
L 184.816365 177.972284 
L 185.520678 173.273095 
L 186.22499 154.802534 
L 186.694532 166.743172 
L 186.929303 174.893756 
L 187.633616 166.510821 
L 187.868387 159.989428 
L 188.103158 172.869295 
L 188.337929 181.0342 
L 188.80747 167.284978 
L 189.277012 154.419916 
L 189.511783 167.716023 
L 189.981325 178.591791 
L 190.450867 175.422601 
L 191.859492 139.749586 
L 192.094263 146.013953 
L 192.329034 127.767749 
L 192.563805 129.936739 
L 192.798576 118.101267 
L 193.033347 137.002162 
L 193.268118 145.931746 
L 193.972431 135.000954 
L 194.207201 140.083349 
L 194.441972 138.630573 
L 194.911514 121.95179 
L 195.381056 126.786085 
L 196.32014 148.549434 
L 196.789681 133.485999 
L 197.259223 141.865492 
L 197.963536 152.758911 
L 198.433078 133.908784 
L 198.90262 142.091835 
L 199.137391 141.201489 
L 199.841703 112.121256 
L 200.311245 115.453199 
L 201.954642 162.914752 
L 202.424183 170.421559 
L 203.128496 170.028492 
L 204.06758 144.379339 
L 204.302351 147.091439 
L 204.537122 150.138286 
L 204.771893 149.303003 
L 205.710976 102.062025 
L 206.65006 112.558812 
L 207.589144 122.8467 
L 208.058685 116.210001 
L 208.528227 121.338009 
L 208.762998 134.364017 
L 209.23254 134.000591 
L 209.467311 115.352806 
L 210.171624 134.255312 
L 210.641166 120.592964 
L 211.110707 129.465392 
L 211.345478 145.810097 
L 212.049791 138.59774 
L 213.223646 103.810473 
L 213.458417 107.2103 
L 214.632271 139.219723 
L 214.867042 138.713703 
L 215.101813 138.563052 
L 216.275668 180.711311 
L 217.214751 176.486233 
L 217.449522 174.982601 
L 217.684293 175.794095 
L 217.919064 180.296319 
L 218.623377 177.113143 
L 218.858148 176.281758 
L 219.327689 171.433248 
L 219.56246 180.210991 
L 220.266773 181.767974 
L 220.736315 170.011088 
L 221.440628 175.740714 
L 221.205857 168.255237 
L 221.675399 173.819222 
L 223.318795 154.244087 
L 224.257879 175.327474 
L 224.49265 165.756986 
L 224.962191 153.595624 
L 225.196962 169.244688 
L 225.431733 169.667267 
L 225.666504 176.154738 
L 226.370817 175.429547 
L 227.309901 153.394666 
L 227.544672 159.217745 
L 228.014213 159.709056 
L 228.483755 149.547703 
L 229.422839 181.461043 
L 229.65761 176.907763 
L 230.831464 158.693565 
L 231.535777 172.976937 
L 232.24009 171.702531 
L 232.944403 167.233116 
L 233.883486 179.537035 
L 234.118257 174.422546 
L 234.353028 176.215267 
L 234.587799 161.08087 
L 234.82257 179.937738 
L 235.292112 175.8332 
L 235.996425 163.253267 
L 236.231195 170.489386 
L 236.700737 180.440869 
L 237.170279 179.106875 
L 237.639821 152.965314 
L 238.109363 168.616649 
L 238.344134 169.425759 
L 238.578905 178.880253 
L 238.813675 162.025543 
L 239.283217 178.523344 
L 239.98753 158.728227 
L 240.222301 168.026891 
L 241.396156 181.349678 
L 243.274323 136.034679 
L 243.978636 140.326849 
L 244.448177 130.860717 
L 245.622032 122.443112 
L 245.856803 135.464871 
L 246.326345 121.217845 
L 247.500199 91.183997 
L 248.908825 118.574386 
L 249.143596 117.350591 
L 250.786992 166.761886 
L 251.491305 162.718209 
L 251.726076 165.903566 
L 252.195618 180.863347 
L 252.66516 172.22923 
L 252.89993 170.688813 
L 254.308556 142.685861 
L 254.543327 138.692548 
L 254.778098 148.695749 
L 255.24764 177.432024 
L 256.421494 172.478202 
L 257.125807 149.257996 
L 257.360578 160.546096 
L 258.064891 174.708783 
L 258.299662 174.318695 
L 258.534432 167.794638 
L 258.769203 181.35817 
L 259.003974 169.127673 
L 259.238745 179.292523 
L 259.708287 165.417248 
L 260.177829 178.219766 
L 261.351683 169.54223 
L 261.586454 180.421395 
L 262.055996 161.366363 
L 262.525538 148.446637 
L 262.760309 160.482959 
L 262.99508 170.706981 
L 263.229851 159.508274 
L 263.699393 170.570789 
L 264.403705 149.61125 
L 265.108018 158.689047 
L 266.516644 181.413393 
L 266.751415 180.604884 
L 267.690498 168.977835 
L 268.864353 181.900127 
L 269.568666 166.355555 
L 269.803436 172.043142 
L 270.038207 181.272598 
L 270.507749 180.467965 
L 270.977291 161.087482 
L 271.446833 181.409607 
L 272.151146 181.50527 
L 273.559771 159.084379 
L 274.498855 176.308666 
L 274.733626 171.439731 
L 275.203168 160.576834 
L 275.672709 171.643098 
L 275.90748 173.547491 
L 276.142251 156.629982 
L 276.611793 170.613547 
L 276.846564 180.851701 
L 277.316106 161.906482 
L 277.550877 171.062087 
L 278.959502 157.890658 
L 278.020419 174.998136 
L 279.194273 158.531719 
L 279.663815 182.430342 
L 280.133357 177.538101 
L 280.602899 163.942094 
L 281.07244 170.343501 
L 281.307211 170.191049 
L 281.541982 174.492981 
L 282.011524 146.799609 
L 282.715837 150.544336 
L 282.950608 154.179065 
L 283.185379 145.164475 
L 283.65492 121.451643 
L 284.124462 139.043083 
L 284.594004 151.710938 
L 284.828775 138.594632 
L 285.298317 128.795762 
L 285.533088 130.035491 
L 285.767859 149.647081 
L 286.472171 126.812004 
L 286.706942 129.259535 
L 287.880797 153.267105 
L 288.350339 165.051567 
L 288.819881 154.174572 
L 289.054652 148.082822 
L 289.289422 158.015429 
L 290.698048 181.405872 
L 291.637132 165.098803 
L 291.871903 173.768964 
L 292.341444 181.311028 
L 292.810986 177.138314 
L 294.219612 157.540889 
L 294.454383 157.794004 
L 294.689154 155.351503 
L 294.923924 133.813875 
L 295.628237 149.170383 
L 296.097779 128.011852 
L 296.802092 138.360902 
L 297.741175 164.727891 
L 297.975946 156.373378 
L 298.445488 130.450735 
L 299.149801 137.482033 
L 299.384572 136.25777 
L 299.619343 140.769463 
L 300.088885 117.432664 
L 300.793197 121.829005 
L 301.027968 122.947558 
L 301.262739 120.094825 
L 302.671365 142.357121 
L 303.140907 146.719138 
L 303.375677 154.149997 
L 303.610448 139.055334 
L 304.784303 126.202339 
L 305.019074 123.111091 
L 305.488616 86.394838 
L 305.958158 104.44885 
L 306.897241 136.638552 
L 307.601554 134.368011 
L 307.836325 135.874068 
L 308.305867 164.065319 
L 309.010179 161.152389 
L 310.418805 133.697562 
L 311.82743 167.242043 
L 311.123118 126.013501 
L 312.062201 161.41172 
L 313.001285 157.67572 
L 313.236056 158.989014 
L 313.470827 157.468893 
L 314.879452 131.629801 
L 315.348994 136.571868 
L 315.583765 126.805445 
L 315.818536 132.159794 
L 316.992391 108.785842 
L 317.227162 116.47716 
L 318.166245 139.382228 
L 318.401016 137.386946 
L 318.870558 125.270845 
L 319.3401 126.044983 
L 320.044412 159.125554 
L 320.748725 154.52751 
L 321.218267 159.339996 
L 321.453038 147.650555 
L 321.92258 168.046785 
L 322.392122 149.187944 
L 323.331205 122.186801 
L 323.565976 135.647732 
L 324.739831 115.993823 
L 324.974602 120.561056 
L 326.148456 126.108668 
L 326.383227 114.15491 
L 326.852769 127.788719 
L 327.08754 126.973138 
L 328.261395 173.84648 
L 329.67002 166.831868 
L 330.374333 158.039607 
L 331.078646 182.288073 
L 331.548187 174.510628 
L 332.2525 176.757419 
L 332.487271 180.120431 
L 332.722042 174.829093 
L 332.956813 171.725697 
L 333.191584 178.435701 
L 333.426355 176.573556 
L 333.661126 181.00792 
L 334.365438 178.533634 
L 337.182689 109.632954 
L 337.652231 129.6332 
L 338.121773 146.224214 
L 338.356544 133.970243 
L 339.060857 91.441943 
L 339.530399 111.360396 
L 339.765169 117.621657 
L 339.99994 115.346583 
L 340.234711 95.318711 
L 340.939024 106.774103 
L 341.173795 102.989379 
L 342.58242 144.611598 
L 342.817191 144.724254 
L 343.286733 134.196789 
L 343.521504 144.231471 
L 345.164901 179.551068 
L 345.399671 181.940102 
L 345.869213 154.506282 
L 346.338755 165.249949 
L 346.573526 182.185455 
L 347.043068 163.797559 
L 347.277839 174.612192 
L 347.51261 175.411218 
L 347.982152 161.929219 
L 348.216922 182.244445 
L 348.686464 166.071209 
L 348.921235 159.367301 
L 349.156006 173.655139 
L 349.390777 179.107575 
L 351.034173 121.607061 
L 351.738486 111.430094 
L 352.208028 112.046375 
L 353.381883 125.862339 
L 354.555737 78.775539 
L 354.790508 79.023791 
L 356.199134 104.848182 
L 356.668675 102.615278 
L 358.312072 135.100985 
L 358.546843 130.236385 
L 359.485926 159.227214 
L 359.720697 158.670804 
L 360.659781 136.015628 
L 360.894552 139.453536 
L 361.129323 151.014659 
L 361.598865 127.528235 
L 361.833636 119.515051 
L 362.303177 122.460225 
L 362.537948 129.999515 
L 362.772719 121.712587 
L 363.00749 127.686301 
L 363.477032 130.270604 
L 363.946574 118.575341 
L 364.416116 133.487087 
L 364.885657 120.129233 
L 365.120428 103.804735 
L 365.355199 122.203585 
L 365.58997 120.87369 
L 366.059512 131.656498 
L 366.294283 129.476153 
L 366.529054 106.393439 
L 367.468138 107.269004 
L 368.876763 139.699713 
L 369.111534 141.365547 
L 370.050618 123.702333 
L 370.285389 126.261284 
L 370.520159 135.249333 
L 370.75493 129.589418 
L 371.694014 100.595706 
L 371.928785 114.723698 
L 372.633098 102.918143 
L 373.10264 107.179511 
L 373.33741 108.830706 
L 373.572181 118.206753 
L 374.276494 113.226852 
L 374.511265 113.513855 
L 377.328516 180.077956 
L 377.798058 159.223574 
L 378.2676 178.101711 
L 378.737142 162.170038 
L 378.971912 176.34761 
L 379.441454 174.830492 
L 379.910996 181.574843 
L 380.615309 166.46158 
L 380.85008 181.140466 
L 381.084851 182.087189 
L 382.258705 166.018672 
L 382.493476 159.658584 
L 383.197789 160.81569 
L 383.667331 165.30064 
L 383.902102 160.033472 
L 384.841185 142.105082 
L 385.545498 181.853635 
L 386.249811 179.625722 
L 386.954124 157.227568 
L 387.423665 157.852637 
L 388.362749 177.246691 
L 388.59752 173.168631 
L 389.301833 175.293464 
L 390.006146 148.059496 
L 390.475687 168.54561 
L 390.945229 146.588941 
L 391.18 144.683107 
L 392.588626 182.319127 
L 393.527709 161.440415 
L 393.76248 174.267409 
L 393.997251 181.805231 
L 394.466793 166.771962 
L 394.701564 176.719379 
L 395.405877 182.315122 
L 396.110189 151.828829 
L 396.814502 159.8775 
L 397.988357 143.386502 
L 398.223128 157.586389 
L 398.692669 134.993206 
L 399.866524 67.217767 
L 400.101295 77.764346 
L 402.683775 168.369835 
L 403.622859 161.61965 
L 403.85763 151.010322 
L 404.327171 163.080514 
L 404.796713 178.505833 
L 405.266255 173.114046 
L 406.44011 118.741418 
L 406.909651 121.537217 
L 407.379193 139.430608 
L 408.553048 162.90906 
L 409.726902 140.471905 
L 409.02259 164.483638 
L 409.961673 144.817374 
L 410.900757 182.024008 
L 411.370299 175.733492 
L 412.544153 139.388265 
L 412.778924 140.67994 
L 413.952779 160.833179 
L 414.657092 134.235667 
L 415.126634 144.904438 
L 415.361404 153.545816 
L 416.065717 144.952653 
L 416.300488 144.004029 
L 417.474343 97.914825 
L 417.943885 107.856907 
L 419.35251 143.667904 
L 419.822052 137.752063 
L 420.056823 146.673069 
L 420.291594 154.111272 
L 420.526365 133.376166 
L 421.93499 158.184259 
L 422.169761 148.167898 
L 422.639303 130.06408 
L 423.108845 144.599217 
L 423.343616 154.192942 
L 423.813157 148.207276 
L 424.51747 128.101117 
L 424.752241 134.987438 
L 426.395638 179.590403 
L 426.865179 182.132805 
L 429.212889 156.159111 
L 430.151972 115.447055 
L 430.621514 118.907959 
L 430.856285 132.267326 
L 431.325827 113.47634 
L 431.795369 121.963616 
L 432.734452 142.556643 
L 432.969223 135.045824 
L 433.203994 126.690518 
L 433.673536 138.000347 
L 433.908307 144.686324 
L 434.143078 137.635964 
L 434.377849 140.898376 
L 434.61262 129.103686 
L 434.847391 146.196639 
L 435.551703 130.320585 
L 436.725558 163.328692 
L 436.960329 157.111788 
L 437.1951 142.429081 
L 437.899412 155.852071 
L 439.308038 180.956074 
L 439.542809 176.871839 
L 439.77758 178.448692 
L 440.012351 177.723461 
L 441.420976 131.843388 
L 441.655747 138.86225 
L 442.125289 162.002 
L 442.594831 148.048767 
L 442.829602 148.652422 
L 444.472998 177.832178 
L 444.94254 155.95967 
L 445.646853 158.078248 
L 446.585936 180.367473 
L 447.290249 179.638289 
L 447.52502 154.097706 
L 448.229333 167.565951 
L 450.1075 143.353249 
L 450.577042 140.186934 
L 451.281355 157.545496 
L 451.750896 171.278622 
L 451.985667 153.675096 
L 452.455209 171.334012 
L 452.68998 166.626063 
L 453.159522 180.703599 
L 453.863835 175.173583 
L 454.098606 177.041993 
L 454.333377 171.066146 
L 454.568147 170.908737 
L 454.802918 171.295121 
L 455.037689 181.881109 
L 455.507231 162.922462 
L 455.976773 178.350193 
L 456.681086 168.610632 
L 457.150628 172.950611 
L 458.324482 149.844135 
L 459.733108 165.743439 
L 459.967879 161.717791 
L 460.672191 166.34888 
L 460.906962 179.111232 
L 461.376504 162.807271 
L 461.846046 150.576388 
L 462.315588 161.441576 
L 462.78513 160.243174 
L 463.0199 166.245419 
L 463.254671 178.548117 
L 463.724213 162.239399 
L 464.898068 146.792986 
L 465.132839 160.956432 
L 465.837151 157.371708 
L 466.071922 157.18005 
L 466.776235 166.942838 
L 468.184861 140.949766 
L 470.53257 103.455234 
L 471.706424 150.710493 
L 471.941195 137.607109 
L 472.410737 165.754445 
L 472.880279 138.307437 
L 473.11505 136.856248 
L 473.584592 113.191195 
L 474.523675 115.328106 
L 476.401843 156.556316 
L 476.871385 149.309451 
L 477.810468 139.97124 
L 478.045239 145.973698 
L 478.749552 143.309009 
L 479.453865 130.195257 
L 479.688636 143.047009 
L 479.923406 145.988259 
L 480.627719 181.167417 
L 480.86249 171.121886 
L 481.332032 156.969066 
L 481.801574 158.930638 
L 482.036345 174.964227 
L 482.740657 165.231794 
L 483.210199 174.769317 
L 483.679741 166.30753 
L 484.149283 154.986627 
L 484.384054 136.819034 
L 484.853596 155.333159 
L 485.088367 151.600019 
L 486.02745 139.664258 
L 487.201305 169.628824 
L 487.670847 158.176191 
L 488.140388 169.746092 
L 488.375159 168.781128 
L 488.844701 159.000867 
L 489.549014 180.996015 
L 491.19241 163.050714 
L 491.661952 136.732077 
L 492.131494 146.668798 
L 492.366265 154.586005 
L 492.601036 153.970581 
L 493.070578 118.001773 
L 493.77489 129.212307 
L 495.183516 181.258464 
L 495.418287 172.306515 
L 497.061683 136.3303 
L 497.296454 134.550475 
L 498.000767 156.546725 
L 498.235538 142.114175 
L 498.70508 125.584004 
L 499.174622 132.466469 
L 500.348476 155.983485 
L 500.583247 155.516669 
L 501.991873 120.552848 
L 502.461414 115.369904 
L 503.400498 135.100642 
L 504.809124 104.836683 
L 506.45252 144.907366 
L 506.687291 145.27569 
L 507.391604 172.465823 
L 508.095916 164.709202 
L 509.269771 141.229794 
L 509.739313 145.561855 
L 510.208855 156.268648 
L 510.443626 150.095223 
L 511.852251 127.428325 
L 512.321793 140.578638 
L 512.791335 125.558578 
L 513.965189 107.72971 
L 515.608586 139.041648 
L 516.312898 121.109645 
L 516.78244 112.989414 
L 517.251982 114.694547 
L 517.721524 135.418672 
L 518.191066 116.245567 
L 518.425837 112.367614 
L 518.660608 118.318225 
L 518.895379 116.634636 
L 519.36492 135.786698 
L 520.069233 133.730622 
L 520.538775 106.416494 
L 521.008317 121.105733 
L 521.243088 128.928492 
L 521.477859 117.976759 
L 521.71263 110.039415 
L 521.9474 123.037855 
L 522.886484 145.822534 
L 523.121255 125.824672 
L 523.825568 128.53965 
L 525.938506 179.802036 
L 527.347131 164.055898 
L 527.581902 170.178915 
L 528.051444 177.508136 
L 528.520986 171.744902 
L 529.694841 146.562436 
L 529.929612 151.849425 
L 530.164382 153.21723 
L 531.573008 105.023952 
L 531.807779 110.689046 
L 532.04255 93.802945 
L 532.277321 79.550501 
L 532.981633 90.378148 
L 533.216404 89.803576 
L 535.094572 138.513819 
L 535.564114 124.895475 
L 535.798884 124.820646 
L 536.503197 98.108383 
L 536.972739 108.59391 
L 537.442281 125.26769 
L 537.677052 116.180074 
L 537.911823 102.121259 
L 538.850906 105.747248 
L 539.085677 102.661089 
L 539.320448 104.930453 
L 539.78999 129.807316 
L 540.259532 102.884019 
L 540.494303 113.59852 
L 540.729074 111.22517 
L 540.963845 111.941719 
L 542.842012 146.307428 
L 544.250637 99.456719 
L 544.485408 105.749786 
" clip-path="url(#pebd97a5b1c)" style="fill: none; stroke: #e41a1c; stroke-width: 2; stroke-linecap: square"/>
   </g>
   <g id="patch_3">
    <path d="M 51.466484 190.058633 
L 51.466484 22.318125 
" style="fill: none; stroke: #7f7f7f; stroke-width: 1.8; stroke-linejoin: miter; stroke-linecap: square"/>
   </g>
   <g id="patch_4">
    <path d="M 51.466484 190.058633 
L 567.9625 190.058633 
" style="fill: none; stroke: #7f7f7f; stroke-width: 1.8; stroke-linejoin: miter; stroke-linecap: square"/>
   </g>
   <g id="text_18">
    <!-- Kalman Filter Estimation Error -->
    <g style="fill: #7f7f7f" transform="translate(206.701055 16.318125) scale(0.12 -0.12)">
     <defs>
      <path id="DejaVuSans-Bold-2e" d="M 588 4666 
L 1791 4666 
L 1791 2963 
L 3525 4666 
L 4922 4666 
L 2675 2456 
L 5153 0 
L 3647 0 
L 1791 1838 
L 1791 0 
L 588 0 
L 588 4666 
z
" transform="scale(0.015625)"/>
      <path id="DejaVuSans-Bold-44" d="M 2106 1575 
Q 1756 1575 1579 1456 
Q 1403 1338 1403 1106 
Q 1403 894 1545 773 
Q 1688 653 1941 653 
Q 2256 653 2472 879 
Q 2688 1106 2688 1447 
L 2688 1575 
L 2106 1575 
z
M 3816 1997 
L 3816 0 
L 2688 0 
L 2688 519 
Q 2463 200 2181 54 
Q 1900 -91 1497 -91 
Q 953 -91 614 226 
Q 275 544 275 1050 
Q 275 1666 698 1953 
Q 1122 2241 2028 2241 
L 2688 2241 
L 2688 2328 
Q 2688 2594 2478 2717 
Q 2269 2841 1825 2841 
Q 1466 2841 1156 2769 
Q 847 2697 581 2553 
L 581 3406 
Q 941 3494 1303 3539 
Q 1666 3584 2028 3584 
Q 2975 3584 3395 3211 
Q 3816 2838 3816 1997 
z
" transform="scale(0.015625)"/>
      <path id="DejaVuSans-Bold-4f" d="M 538 4863 
L 1656 4863 
L 1656 0 
L 538 0 
L 538 4863 
z
" transform="scale(0.015625)"/>
      <path id="DejaVuSans-Bold-50" d="M 3781 2919 
Q 3994 3244 4286 3414 
Q 4578 3584 4928 3584 
Q 5531 3584 5847 3212 
Q 6163 2841 6163 2131 
L 6163 0 
L 5038 0 
L 5038 1825 
Q 5041 1866 5042 1909 
Q 5044 1953 5044 2034 
Q 5044 2406 4934 2573 
Q 4825 2741 4581 2741 
Q 4263 2741 4089 2478 
Q 3916 2216 3909 1719 
L 3909 0 
L 2784 0 
L 2784 1825 
Q 2784 2406 2684 2573 
Q 2584 2741 2328 2741 
Q 2006 2741 1831 2477 
Q 1656 2213 1656 1722 
L 1656 0 
L 531 0 
L 531 3500 
L 1656 3500 
L 1656 2988 
Q 1863 3284 2130 3434 
Q 2397 3584 2719 3584 
Q 3081 3584 3359 3409 
Q 3638 3234 3781 2919 
z
" transform="scale(0.015625)"/>
      <path id="DejaVuSans-Bold-51" d="M 4056 2131 
L 4056 0 
L 2931 0 
L 2931 347 
L 2931 1631 
Q 2931 2084 2911 2256 
Q 2891 2428 2841 2509 
Q 2775 2619 2662 2680 
Q 2550 2741 2406 2741 
Q 2056 2741 1856 2470 
Q 1656 2200 1656 1722 
L 1656 0 
L 538 0 
L 538 3500 
L 1656 3500 
L 1656 2988 
Q 1909 3294 2193 3439 
Q 2478 3584 2822 3584 
Q 3428 3584 3742 3212 
Q 4056 2841 4056 2131 
z
" transform="scale(0.015625)"/>
      <path id="DejaVuSans-Bold-3" transform="scale(0.015625)"/>
      <path id="DejaVuSans-Bold-29" d="M 588 4666 
L 3834 4666 
L 3834 3756 
L 1791 3756 
L 1791 2888 
L 3713 2888 
L 3713 1978 
L 1791 1978 
L 1791 0 
L 588 0 
L 588 4666 
z
" transform="scale(0.015625)"/>
      <path id="DejaVuSans-Bold-4c" d="M 538 3500 
L 1656 3500 
L 1656 0 
L 538 0 
L 538 3500 
z
M 538 4863 
L 1656 4863 
L 1656 3950 
L 538 3950 
L 538 4863 
z
" transform="scale(0.015625)"/>
      <path id="DejaVuSans-Bold-57" d="M 1759 4494 
L 1759 3500 
L 2913 3500 
L 2913 2700 
L 1759 2700 
L 1759 1216 
Q 1759 972 1856 886 
Q 1953 800 2241 800 
L 2816 800 
L 2816 0 
L 1856 0 
Q 1194 0 917 276 
Q 641 553 641 1216 
L 641 2700 
L 84 2700 
L 84 3500 
L 641 3500 
L 641 4494 
L 1759 4494 
z
" transform="scale(0.015625)"/>
      <path id="DejaVuSans-Bold-48" d="M 4031 1759 
L 4031 1441 
L 1416 1441 
Q 1456 1047 1700 850 
Q 1944 653 2381 653 
Q 2734 653 3104 758 
Q 3475 863 3866 1075 
L 3866 213 
Q 3469 63 3072 -14 
Q 2675 -91 2278 -91 
Q 1328 -91 801 392 
Q 275 875 275 1747 
Q 275 2603 792 3093 
Q 1309 3584 2216 3584 
Q 3041 3584 3536 3087 
Q 4031 2591 4031 1759 
z
M 2881 2131 
Q 2881 2450 2695 2645 
Q 2509 2841 2209 2841 
Q 1884 2841 1681 2658 
Q 1478 2475 1428 2131 
L 2881 2131 
z
" transform="scale(0.015625)"/>
      <path id="DejaVuSans-Bold-55" d="M 3138 2547 
Q 2991 2616 2845 2648 
Q 2700 2681 2553 2681 
Q 2122 2681 1889 2404 
Q 1656 2128 1656 1613 
L 1656 0 
L 538 0 
L 538 3500 
L 1656 3500 
L 1656 2925 
Q 1872 3269 2151 3426 
Q 2431 3584 2822 3584 
Q 2878 3584 2943 3579 
Q 3009 3575 3134 3559 
L 3138 2547 
z
" transform="scale(0.015625)"/>
      <path id="DejaVuSans-Bold-28" d="M 588 4666 
L 3834 4666 
L 3834 3756 
L 1791 3756 
L 1791 2888 
L 3713 2888 
L 3713 1978 
L 1791 1978 
L 1791 909 
L 3903 909 
L 3903 0 
L 588 0 
L 588 4666 
z
" transform="scale(0.015625)"/>
      <path id="DejaVuSans-Bold-56" d="M 3272 3391 
L 3272 2541 
Q 2913 2691 2578 2766 
Q 2244 2841 1947 2841 
Q 1628 2841 1473 2761 
Q 1319 2681 1319 2516 
Q 1319 2381 1436 2309 
Q 1553 2238 1856 2203 
L 2053 2175 
Q 2913 2066 3209 1816 
Q 3506 1566 3506 1031 
Q 3506 472 3093 190 
Q 2681 -91 1863 -91 
Q 1516 -91 1145 -36 
Q 775 19 384 128 
L 384 978 
Q 719 816 1070 734 
Q 1422 653 1784 653 
Q 2113 653 2278 743 
Q 2444 834 2444 1013 
Q 2444 1163 2330 1236 
Q 2216 1309 1875 1350 
L 1678 1375 
Q 931 1469 631 1722 
Q 331 1975 331 2491 
Q 331 3047 712 3315 
Q 1094 3584 1881 3584 
Q 2191 3584 2531 3537 
Q 2872 3491 3272 3391 
z
" transform="scale(0.015625)"/>
      <path id="DejaVuSans-Bold-52" d="M 2203 2784 
Q 1831 2784 1636 2517 
Q 1441 2250 1441 1747 
Q 1441 1244 1636 976 
Q 1831 709 2203 709 
Q 2569 709 2762 976 
Q 2956 1244 2956 1747 
Q 2956 2250 2762 2517 
Q 2569 2784 2203 2784 
z
M 2203 3584 
Q 3106 3584 3614 3096 
Q 4122 2609 4122 1747 
Q 4122 884 3614 396 
Q 3106 -91 2203 -91 
Q 1297 -91 786 396 
Q 275 884 275 1747 
Q 275 2609 786 3096 
Q 1297 3584 2203 3584 
z
" transform="scale(0.015625)"/>
     </defs>
     <use xlink:href="#DejaVuSans-Bold-2e"/>
     <use xlink:href="#DejaVuSans-Bold-44" transform="translate(77.484375 0)"/>
     <use xlink:href="#DejaVuSans-Bold-4f" transform="translate(144.96875 0)"/>
     <use xlink:href="#DejaVuSans-Bold-50" transform="translate(179.25 0)"/>
     <use xlink:href="#DejaVuSans-Bold-44" transform="translate(283.453125 0)"/>
     <use xlink:href="#DejaVuSans-Bold-51" transform="translate(350.9375 0)"/>
     <use xlink:href="#DejaVuSans-Bold-3" transform="translate(422.125 0)"/>
     <use xlink:href="#DejaVuSans-Bold-29" transform="translate(456.9375 0)"/>
     <use xlink:href="#DejaVuSans-Bold-4c" transform="translate(525.25 0)"/>
     <use xlink:href="#DejaVuSans-Bold-4f" transform="translate(559.53125 0)"/>
     <use xlink:href="#DejaVuSans-Bold-57" transform="translate(593.8125 0)"/>
     <use xlink:href="#DejaVuSans-Bold-48" transform="translate(641.609375 0)"/>
     <use xlink:href="#DejaVuSans-Bold-55" transform="translate(709.4375 0)"/>
     <use xlink:href="#DejaVuSans-Bold-3" transform="translate(758.75 0)"/>
     <use xlink:href="#DejaVuSans-Bold-28" transform="translate(793.5625 0)"/>
     <use xlink:href="#DejaVuSans-Bold-56" transform="translate(861.875 0)"/>
     <use xlink:href="#DejaVuSans-Bold-57" transform="translate(921.390625 0)"/>
     <use xlink:href="#DejaVuSans-Bold-4c" transform="translate(969.1875 0)"/>
     <use xlink:href="#DejaVuSans-Bold-50" transform="translate(1003.46875 0)"/>
     <use xlink:href="#DejaVuSans-Bold-44" transform="translate(1107.671875 0)"/>
     <use xlink:href="#DejaVuSans-Bold-57" transform="translate(1175.15625 0)"/>
     <use xlink:href="#DejaVuSans-Bold-4c" transform="translate(1222.953125 0)"/>
     <use xlink:href="#DejaVuSans-Bold-52" transform="translate(1257.234375 0)"/>
     <use xlink:href="#DejaVuSans-Bold-51" transform="translate(1325.9375 0)"/>
     <use xlink:href="#DejaVuSans-Bold-3" transform="translate(1397.125 0)"/>
     <use xlink:href="#DejaVuSans-Bold-28" transform="translate(1431.9375 0)"/>
     <use xlink:href="#DejaVuSans-Bold-55" transform="translate(1500.25 0)"/>
     <use xlink:href="#DejaVuSans-Bold-55" transform="translate(1549.5625 0)"/>
     <use xlink:href="#DejaVuSans-Bold-52" transform="translate(1598.875 0)"/>
     <use xlink:href="#DejaVuSans-Bold-55" transform="translate(1667.578125 0)"/>
    </g>
   </g>
  </g>
  <g id="axes_2">
   <g id="patch_5">
    <path d="M 51.466484 385.599141 
L 567.9625 385.599141 
L 567.9625 217.858633 
L 51.466484 217.858633 
L 51.466484 385.599141 
z
" style="fill: none"/>
   </g>
   <g id="matplotlib.axis_3">
    <g id="xtick_10">
     <g id="line2d_18">
      <g>
       <use xlink:href="#mc0d39b138a" x="74.943576" y="385.599141" style="fill: #7f7f7f; stroke: #7f7f7f; stroke-width: 1.8"/>
      </g>
     </g>
     <g id="text_19">
      <!-- 0.0 -->
      <g style="fill: #7f7f7f" transform="translate(66.992013 400.196797) scale(0.1 -0.1)">
       <use xlink:href="#DejaVuSans-13"/>
       <use xlink:href="#DejaVuSans-11" transform="translate(63.625 0)"/>
       <use xlink:href="#DejaVuSans-13" transform="translate(95.40625 0)"/>
      </g>
     </g>
    </g>
    <g id="xtick_11">
     <g id="line2d_19">
      <g>
       <use xlink:href="#mc0d39b138a" x="133.636305" y="385.599141" style="fill: #7f7f7f; stroke: #7f7f7f; stroke-width: 1.8"/>
      </g>
     </g>
     <g id="text_20">
      <!-- 2.5 -->
      <g style="fill: #7f7f7f" transform="translate(125.684743 400.196797) scale(0.1 -0.1)">
       <use xlink:href="#DejaVuSans-15"/>
       <use xlink:href="#DejaVuSans-11" transform="translate(63.625 0)"/>
       <use xlink:href="#DejaVuSans-18" transform="translate(95.40625 0)"/>
      </g>
     </g>
    </g>
    <g id="xtick_12">
     <g id="line2d_20">
      <g>
       <use xlink:href="#mc0d39b138a" x="192.329034" y="385.599141" style="fill: #7f7f7f; stroke: #7f7f7f; stroke-width: 1.8"/>
      </g>
     </g>
     <g id="text_21">
      <!-- 5.0 -->
      <g style="fill: #7f7f7f" transform="translate(184.377472 400.196797) scale(0.1 -0.1)">
       <use xlink:href="#DejaVuSans-18"/>
       <use xlink:href="#DejaVuSans-11" transform="translate(63.625 0)"/>
       <use xlink:href="#DejaVuSans-13" transform="translate(95.40625 0)"/>
      </g>
     </g>
    </g>
    <g id="xtick_13">
     <g id="line2d_21">
      <g>
       <use xlink:href="#mc0d39b138a" x="251.021763" y="385.599141" style="fill: #7f7f7f; stroke: #7f7f7f; stroke-width: 1.8"/>
      </g>
     </g>
     <g id="text_22">
      <!-- 7.5 -->
      <g style="fill: #7f7f7f" transform="translate(243.070201 400.196797) scale(0.1 -0.1)">
       <use xlink:href="#DejaVuSans-1a"/>
       <use xlink:href="#DejaVuSans-11" transform="translate(63.625 0)"/>
       <use xlink:href="#DejaVuSans-18" transform="translate(95.40625 0)"/>
      </g>
     </g>
    </g>
    <g id="xtick_14">
     <g id="line2d_22">
      <g>
       <use xlink:href="#mc0d39b138a" x="309.714492" y="385.599141" style="fill: #7f7f7f; stroke: #7f7f7f; stroke-width: 1.8"/>
      </g>
     </g>
     <g id="text_23">
      <!-- 10.0 -->
      <g style="fill: #7f7f7f" transform="translate(298.58168 400.196797) scale(0.1 -0.1)">
       <use xlink:href="#DejaVuSans-14"/>
       <use xlink:href="#DejaVuSans-13" transform="translate(63.625 0)"/>
       <use xlink:href="#DejaVuSans-11" transform="translate(127.25 0)"/>
       <use xlink:href="#DejaVuSans-13" transform="translate(159.03125 0)"/>
      </g>
     </g>
    </g>
    <g id="xtick_15">
     <g id="line2d_23">
      <g>
       <use xlink:href="#mc0d39b138a" x="368.407221" y="385.599141" style="fill: #7f7f7f; stroke: #7f7f7f; stroke-width: 1.8"/>
      </g>
     </g>
     <g id="text_24">
      <!-- 12.5 -->
      <g style="fill: #7f7f7f" transform="translate(357.274409 400.196797) scale(0.1 -0.1)">
       <use xlink:href="#DejaVuSans-14"/>
       <use xlink:href="#DejaVuSans-15" transform="translate(63.625 0)"/>
       <use xlink:href="#DejaVuSans-11" transform="translate(127.25 0)"/>
       <use xlink:href="#DejaVuSans-18" transform="translate(159.03125 0)"/>
      </g>
     </g>
    </g>
    <g id="xtick_16">
     <g id="line2d_24">
      <g>
       <use xlink:href="#mc0d39b138a" x="427.09995" y="385.599141" style="fill: #7f7f7f; stroke: #7f7f7f; stroke-width: 1.8"/>
      </g>
     </g>
     <g id="text_25">
      <!-- 15.0 -->
      <g style="fill: #7f7f7f" transform="translate(415.967138 400.196797) scale(0.1 -0.1)">
       <use xlink:href="#DejaVuSans-14"/>
       <use xlink:href="#DejaVuSans-18" transform="translate(63.625 0)"/>
       <use xlink:href="#DejaVuSans-11" transform="translate(127.25 0)"/>
       <use xlink:href="#DejaVuSans-13" transform="translate(159.03125 0)"/>
      </g>
     </g>
    </g>
    <g id="xtick_17">
     <g id="line2d_25">
      <g>
       <use xlink:href="#mc0d39b138a" x="485.792679" y="385.599141" style="fill: #7f7f7f; stroke: #7f7f7f; stroke-width: 1.8"/>
      </g>
     </g>
     <g id="text_26">
      <!-- 17.5 -->
      <g style="fill: #7f7f7f" transform="translate(474.659867 400.196797) scale(0.1 -0.1)">
       <use xlink:href="#DejaVuSans-14"/>
       <use xlink:href="#DejaVuSans-1a" transform="translate(63.625 0)"/>
       <use xlink:href="#DejaVuSans-11" transform="translate(127.25 0)"/>
       <use xlink:href="#DejaVuSans-18" transform="translate(159.03125 0)"/>
      </g>
     </g>
    </g>
    <g id="xtick_18">
     <g id="line2d_26">
      <g>
       <use xlink:href="#mc0d39b138a" x="544.485408" y="385.599141" style="fill: #7f7f7f; stroke: #7f7f7f; stroke-width: 1.8"/>
      </g>
     </g>
     <g id="text_27">
      <!-- 20.0 -->
      <g style="fill: #7f7f7f" transform="translate(533.352596 400.196797) scale(0.1 -0.1)">
       <use xlink:href="#DejaVuSans-15"/>
       <use xlink:href="#DejaVuSans-13" transform="translate(63.625 0)"/>
       <use xlink:href="#DejaVuSans-11" transform="translate(127.25 0)"/>
       <use xlink:href="#DejaVuSans-13" transform="translate(159.03125 0)"/>
      </g>
     </g>
    </g>
    <g id="text_28">
     <!-- Time [s] -->
     <g style="fill: #7f7f7f" transform="translate(287.350117 414.957422) scale(0.11 -0.11)">
      <defs>
       <path id="DejaVuSans-37" d="M -19 4666 
L 3928 4666 
L 3928 4134 
L 2272 4134 
L 2272 0 
L 1638 0 
L 1638 4134 
L -19 4134 
L -19 4666 
z
" transform="scale(0.015625)"/>
       <path id="DejaVuSans-48" d="M 3597 1894 
L 3597 1613 
L 953 1613 
Q 991 1019 1311 708 
Q 1631 397 2203 397 
Q 2534 397 2845 478 
Q 3156 559 3463 722 
L 3463 178 
Q 3153 47 2828 -22 
Q 2503 -91 2169 -91 
Q 1331 -91 842 396 
Q 353 884 353 1716 
Q 353 2575 817 3079 
Q 1281 3584 2069 3584 
Q 2775 3584 3186 3129 
Q 3597 2675 3597 1894 
z
M 3022 2063 
Q 3016 2534 2758 2815 
Q 2500 3097 2075 3097 
Q 1594 3097 1305 2825 
Q 1016 2553 972 2059 
L 3022 2063 
z
" transform="scale(0.015625)"/>
      </defs>
      <use xlink:href="#DejaVuSans-37"/>
      <use xlink:href="#DejaVuSans-4c" transform="translate(58 0)"/>
      <use xlink:href="#DejaVuSans-50" transform="translate(85.78125 0)"/>
      <use xlink:href="#DejaVuSans-48" transform="translate(183.1875 0)"/>
      <use xlink:href="#DejaVuSans-3" transform="translate(244.71875 0)"/>
      <use xlink:href="#DejaVuSans-3e" transform="translate(276.5 0)"/>
      <use xlink:href="#DejaVuSans-56" transform="translate(315.515625 0)"/>
      <use xlink:href="#DejaVuSans-40" transform="translate(367.609375 0)"/>
     </g>
    </g>
   </g>
   <g id="matplotlib.axis_4">
    <g id="ytick_8">
     <g id="line2d_27">
      <g>
       <use xlink:href="#mf7c2cbdbff" x="51.466484" y="377.99404" style="fill: #7f7f7f; stroke: #7f7f7f; stroke-width: 1.8"/>
      </g>
     </g>
     <g id="text_29">
      <!-- 0.0 -->
      <g style="fill: #7f7f7f" transform="translate(28.563359 381.792869) scale(0.1 -0.1)">
       <use xlink:href="#DejaVuSans-13"/>
       <use xlink:href="#DejaVuSans-11" transform="translate(63.625 0)"/>
       <use xlink:href="#DejaVuSans-13" transform="translate(95.40625 0)"/>
      </g>
     </g>
    </g>
    <g id="ytick_9">
     <g id="line2d_28">
      <g>
       <use xlink:href="#mf7c2cbdbff" x="51.466484" y="341.075324" style="fill: #7f7f7f; stroke: #7f7f7f; stroke-width: 1.8"/>
      </g>
     </g>
     <g id="text_30">
      <!-- 0.5 -->
      <g style="fill: #7f7f7f" transform="translate(28.563359 344.874153) scale(0.1 -0.1)">
       <use xlink:href="#DejaVuSans-13"/>
       <use xlink:href="#DejaVuSans-11" transform="translate(63.625 0)"/>
       <use xlink:href="#DejaVuSans-18" transform="translate(95.40625 0)"/>
      </g>
     </g>
    </g>
    <g id="ytick_10">
     <g id="line2d_29">
      <g>
       <use xlink:href="#mf7c2cbdbff" x="51.466484" y="304.156608" style="fill: #7f7f7f; stroke: #7f7f7f; stroke-width: 1.8"/>
      </g>
     </g>
     <g id="text_31">
      <!-- 1.0 -->
      <g style="fill: #7f7f7f" transform="translate(28.563359 307.955436) scale(0.1 -0.1)">
       <use xlink:href="#DejaVuSans-14"/>
       <use xlink:href="#DejaVuSans-11" transform="translate(63.625 0)"/>
       <use xlink:href="#DejaVuSans-13" transform="translate(95.40625 0)"/>
      </g>
     </g>
    </g>
    <g id="ytick_11">
     <g id="line2d_30">
      <g>
       <use xlink:href="#mf7c2cbdbff" x="51.466484" y="267.237892" style="fill: #7f7f7f; stroke: #7f7f7f; stroke-width: 1.8"/>
      </g>
     </g>
     <g id="text_32">
      <!-- 1.5 -->
      <g style="fill: #7f7f7f" transform="translate(28.563359 271.03672) scale(0.1 -0.1)">
       <use xlink:href="#DejaVuSans-14"/>
       <use xlink:href="#DejaVuSans-11" transform="translate(63.625 0)"/>
       <use xlink:href="#DejaVuSans-18" transform="translate(95.40625 0)"/>
      </g>
     </g>
    </g>
    <g id="ytick_12">
     <g id="line2d_31">
      <g>
       <use xlink:href="#mf7c2cbdbff" x="51.466484" y="230.319176" style="fill: #7f7f7f; stroke: #7f7f7f; stroke-width: 1.8"/>
      </g>
     </g>
     <g id="text_33">
      <!-- 2.0 -->
      <g style="fill: #7f7f7f" transform="translate(28.563359 234.118004) scale(0.1 -0.1)">
       <use xlink:href="#DejaVuSans-15"/>
       <use xlink:href="#DejaVuSans-11" transform="translate(63.625 0)"/>
       <use xlink:href="#DejaVuSans-13" transform="translate(95.40625 0)"/>
      </g>
     </g>
    </g>
    <g id="text_34">
     <!-- Velocity Error [m/s] -->
     <g style="fill: #7f7f7f" transform="translate(21.920781 354.574434) rotate(-90) scale(0.11 -0.11)">
      <defs>
       <path id="DejaVuSans-39" d="M 1831 0 
L 50 4666 
L 709 4666 
L 2188 738 
L 3669 4666 
L 4325 4666 
L 2547 0 
L 1831 0 
z
" transform="scale(0.015625)"/>
       <path id="DejaVuSans-4f" d="M 603 4863 
L 1178 4863 
L 1178 0 
L 603 0 
L 603 4863 
z
" transform="scale(0.015625)"/>
       <path id="DejaVuSans-46" d="M 3122 3366 
L 3122 2828 
Q 2878 2963 2633 3030 
Q 2388 3097 2138 3097 
Q 1578 3097 1268 2742 
Q 959 2388 959 1747 
Q 959 1106 1268 751 
Q 1578 397 2138 397 
Q 2388 397 2633 464 
Q 2878 531 3122 666 
L 3122 134 
Q 2881 22 2623 -34 
Q 2366 -91 2075 -91 
Q 1284 -91 818 406 
Q 353 903 353 1747 
Q 353 2603 823 3093 
Q 1294 3584 2113 3584 
Q 2378 3584 2631 3529 
Q 2884 3475 3122 3366 
z
" transform="scale(0.015625)"/>
       <path id="DejaVuSans-5c" d="M 2059 -325 
Q 1816 -950 1584 -1140 
Q 1353 -1331 966 -1331 
L 506 -1331 
L 506 -850 
L 844 -850 
Q 1081 -850 1212 -737 
Q 1344 -625 1503 -206 
L 1606 56 
L 191 3500 
L 800 3500 
L 1894 763 
L 2988 3500 
L 3597 3500 
L 2059 -325 
z
" transform="scale(0.015625)"/>
       <path id="DejaVuSans-12" d="M 1625 4666 
L 2156 4666 
L 531 -594 
L 0 -594 
L 1625 4666 
z
" transform="scale(0.015625)"/>
      </defs>
      <use xlink:href="#DejaVuSans-39"/>
      <use xlink:href="#DejaVuSans-48" transform="translate(60.640625 0)"/>
      <use xlink:href="#DejaVuSans-4f" transform="translate(122.171875 0)"/>
      <use xlink:href="#DejaVuSans-52" transform="translate(149.953125 0)"/>
      <use xlink:href="#DejaVuSans-46" transform="translate(211.140625 0)"/>
      <use xlink:href="#DejaVuSans-4c" transform="translate(266.125 0)"/>
      <use xlink:href="#DejaVuSans-57" transform="translate(293.90625 0)"/>
      <use xlink:href="#DejaVuSans-5c" transform="translate(333.109375 0)"/>
      <use xlink:href="#DejaVuSans-3" transform="translate(392.296875 0)"/>
      <use xlink:href="#DejaVuSans-28" transform="translate(424.078125 0)"/>
      <use xlink:href="#DejaVuSans-55" transform="translate(487.265625 0)"/>
      <use xlink:href="#DejaVuSans-55" transform="translate(526.625 0)"/>
      <use xlink:href="#DejaVuSans-52" transform="translate(565.53125 0)"/>
      <use xlink:href="#DejaVuSans-55" transform="translate(626.71875 0)"/>
      <use xlink:href="#DejaVuSans-3" transform="translate(667.828125 0)"/>
      <use xlink:href="#DejaVuSans-3e" transform="translate(699.609375 0)"/>
      <use xlink:href="#DejaVuSans-50" transform="translate(738.625 0)"/>
      <use xlink:href="#DejaVuSans-12" transform="translate(836.03125 0)"/>
      <use xlink:href="#DejaVuSans-56" transform="translate(869.71875 0)"/>
      <use xlink:href="#DejaVuSans-40" transform="translate(921.8125 0)"/>
     </g>
    </g>
   </g>
   <g id="line2d_32">
    <path d="M 74.943576 230.319176 
L 75.647889 230.091373 
L 76.117431 233.046875 
L 76.586972 225.483201 
L 81.517162 336.30769 
L 81.751933 329.311226 
L 81.986703 320.800488 
L 82.456245 330.044103 
L 82.691016 322.402814 
L 82.925787 328.636889 
L 83.395329 317.04114 
L 84.569184 297.890932 
L 85.038725 299.559977 
L 85.743038 311.971541 
L 85.508267 296.347678 
L 86.21258 309.488043 
L 87.386435 323.683029 
L 88.560289 312.419943 
L 89.734144 329.695877 
L 89.968915 323.107795 
L 90.438456 326.916035 
L 91.847082 344.208604 
L 92.081853 342.776628 
L 93.020937 348.980917 
L 93.255707 356.829162 
L 93.96002 347.675383 
L 95.368646 336.610613 
L 98.185897 351.359415 
L 99.359751 366.888733 
L 99.594522 363.848838 
L 99.829293 366.733236 
L 100.768377 377.664286 
L 101.237919 375.110032 
L 101.70746 371.559878 
L 101.942231 365.908184 
L 102.646544 370.17805 
L 103.350857 374.512928 
L 103.585628 370.869031 
L 104.994253 363.909997 
L 105.933337 375.816625 
L 106.402879 373.145996 
L 106.872421 370.76668 
L 108.515817 357.766443 
L 108.750588 360.931095 
L 110.628755 373.143679 
L 111.567839 362.109595 
L 112.037381 363.167477 
L 112.976464 359.638872 
L 114.854632 377.33809 
L 115.558944 373.767294 
L 115.793715 374.77308 
L 116.028486 377.477246 
L 116.263257 375.398599 
L 116.498028 369.374795 
L 117.437112 370.02375 
L 118.845737 375.587103 
L 119.080508 377.105494 
L 119.784821 376.403038 
L 120.723905 373.952361 
L 121.897759 370.519264 
L 122.367301 371.461643 
L 122.602072 370.573101 
L 122.836843 368.443839 
L 123.306385 372.144612 
L 123.775927 368.795356 
L 124.010697 368.670817 
L 124.245468 366.811215 
L 124.71501 370.888259 
L 125.419323 367.631119 
L 126.358407 377.806803 
L 126.593178 377.702383 
L 127.29749 373.182379 
L 127.532261 373.752764 
L 128.706116 377.804037 
L 128.940887 377.924072 
L 129.175658 377.30666 
L 129.645199 372.983131 
L 129.87997 375.30721 
L 130.114741 377.972703 
L 130.819054 376.45258 
L 131.758138 377.589811 
L 133.166763 371.11128 
L 133.636305 370.926713 
L 134.340618 377.42671 
L 135.984014 366.876791 
L 136.688327 367.143307 
L 137.862182 372.194225 
L 138.566494 374.941947 
L 138.801265 374.591853 
L 139.270807 376.989922 
L 139.740349 374.029393 
L 140.209891 377.974572 
L 140.444662 372.857104 
L 140.679433 376.320955 
L 142.088058 371.425924 
L 143.261913 375.746851 
L 143.966225 377.882696 
L 145.14008 374.039681 
L 145.609622 377.850845 
L 146.079164 376.727609 
L 146.313935 373.194895 
L 146.548705 377.624773 
L 147.018247 377.313765 
L 147.487789 374.168184 
L 148.192102 374.452987 
L 148.661644 377.57763 
L 148.896415 373.664241 
L 149.365956 370.636134 
L 150.774582 365.661503 
L 152.88752 377.752568 
L 154.296146 372.746626 
L 155.704771 377.248444 
L 155.939542 377.347312 
L 156.174313 375.006411 
L 156.878626 377.499698 
L 157.582938 376.539077 
L 158.287251 374.025821 
L 158.756793 375.313658 
L 159.226335 377.104135 
L 159.461106 375.590374 
L 160.63496 367.923146 
L 160.869731 369.22396 
L 161.339273 372.947361 
L 161.808815 370.073101 
L 162.043586 368.363526 
L 162.278357 372.779181 
L 162.747899 373.102229 
L 162.98267 371.270453 
L 163.452211 372.629733 
L 164.391295 377.92486 
L 164.626066 377.476553 
L 165.799921 371.132033 
L 166.504233 372.862084 
L 166.739004 371.929907 
L 167.208546 366.173262 
L 167.912859 368.029079 
L 168.14763 369.671741 
L 168.617172 366.532877 
L 168.851942 368.047197 
L 169.321484 366.488101 
L 169.556255 368.06219 
L 169.791026 369.011045 
L 170.260568 367.274666 
L 170.495339 365.018432 
L 170.964881 368.555781 
L 171.434423 369.973035 
L 172.138735 377.273225 
L 172.608277 375.376943 
L 173.547361 376.27401 
L 174.721215 369.607852 
L 175.190757 375.831698 
L 175.660299 372.181527 
L 176.129841 365.442914 
L 176.599383 366.726473 
L 177.068925 372.598104 
L 177.538466 372.107465 
L 178.947092 361.448237 
L 180.120946 366.401188 
L 180.355717 364.730759 
L 180.590488 362.859377 
L 180.825259 365.170029 
L 181.764343 372.157895 
L 181.999114 370.42517 
L 182.938197 375.99415 
L 183.172968 375.29902 
L 184.112052 372.486153 
L 184.816365 376.99992 
L 185.285907 375.930083 
L 185.990219 372.852626 
L 186.22499 370.986499 
L 186.694532 374.232099 
L 186.929303 376.385591 
L 187.633616 374.348816 
L 187.868387 372.73381 
L 188.103158 376.125729 
L 188.337929 377.017174 
L 189.277012 370.434972 
L 189.511783 373.971064 
L 189.981325 377.140772 
L 190.450867 375.989594 
L 191.859492 367.412897 
L 192.094263 369.192851 
L 192.329034 364.651537 
L 192.563805 365.424946 
L 192.798576 362.590564 
L 193.033347 367.692857 
L 193.268118 370.152483 
L 193.972431 367.760249 
L 194.207201 369.231127 
L 194.676743 365.935274 
L 194.911514 365.060361 
L 195.381056 366.708911 
L 196.32014 372.778973 
L 196.789681 369.133099 
L 197.259223 371.541777 
L 197.963536 374.589818 
L 198.433078 369.929229 
L 198.90262 372.245468 
L 199.137391 372.110212 
L 199.841703 365.025255 
L 200.311245 366.260002 
L 201.719871 375.656256 
L 202.424183 374.865231 
L 202.893725 376.74511 
L 204.06758 374.410406 
L 204.537122 375.992946 
L 205.006664 374.253574 
L 205.710976 364.104431 
L 206.180518 370.842526 
L 206.65006 367.468371 
L 207.119602 368.932723 
L 209.23254 374.342933 
L 209.467311 369.614926 
L 210.171624 374.775617 
L 210.641166 371.408392 
L 211.110707 373.865511 
L 211.345478 377.859527 
L 212.049791 376.327592 
L 213.223646 367.94335 
L 213.458417 368.979306 
L 214.632271 377.629351 
L 214.867042 377.505365 
L 215.336584 376.663427 
L 216.510438 366.167607 
L 216.745209 370.338486 
L 218.153835 367.700851 
L 218.858148 370.7424 
L 218.623377 367.628727 
L 219.092919 368.579742 
L 219.327689 366.60937 
L 219.56246 369.047603 
L 220.032002 372.910756 
L 220.266773 369.775079 
L 220.736315 367.062128 
L 220.971086 372.210629 
L 222.14494 374.34228 
L 222.379711 374.271262 
L 223.318795 377.711529 
L 223.553566 375.706963 
L 224.257879 373.025023 
L 224.49265 375.562627 
L 224.727421 377.681916 
L 225.196962 374.689893 
L 225.431733 374.635044 
L 227.309901 365.021151 
L 227.544672 366.726641 
L 228.014213 367.231643 
L 228.483755 364.994294 
L 229.892381 377.76632 
L 230.127152 377.547296 
L 230.596693 377.660217 
L 230.831464 375.78091 
L 231.535777 376.502175 
L 232.944403 377.914222 
L 233.179174 371.60329 
L 234.118257 372.414585 
L 234.353028 372.965384 
L 234.587799 369.161698 
L 234.82257 374.146021 
L 235.292112 373.22494 
L 235.996425 370.263728 
L 236.231195 372.246874 
L 237.170279 376.372331 
L 237.40505 376.047664 
L 237.639821 372.909938 
L 238.109363 377.029945 
L 238.344134 377.25331 
L 238.578905 376.295581 
L 239.048446 376.6733 
L 239.98753 374.551811 
L 240.691843 377.791513 
L 240.926614 377.561669 
L 242.335239 371.178268 
L 242.804781 374.144065 
L 243.039552 371.243924 
L 243.509094 367.983628 
L 244.213407 369.247429 
L 245.622032 367.164059 
L 245.856803 370.682815 
L 246.326345 367.294262 
L 247.265428 360.648832 
L 247.500199 360.720449 
L 248.908825 369.068102 
L 249.143596 368.89882 
L 250.31745 377.124757 
L 250.552221 376.973901 
L 251.960847 371.477042 
L 253.604243 361.283474 
L 254.308556 361.943088 
L 254.543327 361.178471 
L 256.656265 377.34764 
L 257.125807 373.767828 
L 257.595349 376.604812 
L 257.83012 376.704774 
L 258.534432 377.490088 
L 258.769203 374.016227 
L 259.708287 377.741545 
L 260.177829 374.983832 
L 260.647371 377.009299 
L 261.351683 377.340908 
L 262.525538 373.194829 
L 263.464622 377.398071 
L 263.699393 376.985636 
L 263.934164 377.712482 
L 264.168934 376.062777 
L 264.403705 373.641246 
L 265.108018 376.114409 
L 266.047102 377.349099 
L 266.751415 373.405576 
L 266.986185 375.444458 
L 267.220956 376.127471 
L 267.690498 370.648379 
L 267.925269 373.769878 
L 268.16004 377.163092 
L 268.864353 374.491639 
L 269.099124 375.749709 
L 269.333895 371.732571 
L 269.568666 370.421804 
L 269.803436 372.004844 
L 270.74252 376.427379 
L 270.977291 375.628749 
L 271.212062 377.18003 
L 271.681604 373.764287 
L 272.151146 374.813714 
L 272.385917 372.337294 
L 273.090229 377.686808 
L 273.325 375.640888 
L 273.559771 374.825329 
L 273.794542 377.32173 
L 274.029313 376.950274 
L 274.264084 377.9051 
L 275.203168 369.767658 
L 275.437938 372.580755 
L 275.672709 372.830007 
L 275.90748 377.965467 
L 276.611793 377.365095 
L 277.316106 370.409939 
L 277.785648 372.127797 
L 278.020419 374.072132 
L 278.48996 371.38785 
L 278.959502 370.055152 
L 279.194273 370.348596 
L 279.663815 376.673229 
L 280.133357 375.407527 
L 280.602899 372.052081 
L 281.07244 373.852394 
L 281.307211 373.880487 
L 281.541982 375.051656 
L 282.011524 368.106071 
L 282.715837 369.392905 
L 282.950608 370.465635 
L 283.185379 368.273608 
L 283.65492 362.546129 
L 284.124462 367.506555 
L 284.594004 371.066711 
L 284.828775 367.811931 
L 285.298317 365.645691 
L 285.533088 366.164402 
L 285.767859 371.391132 
L 286.472171 365.922951 
L 286.706942 366.747229 
L 287.880797 373.528031 
L 288.350339 376.668412 
L 288.819881 373.922805 
L 289.054652 372.425013 
L 289.289422 375.06532 
L 289.993735 377.111882 
L 290.228506 376.012119 
L 290.463277 376.231657 
L 290.698048 374.872561 
L 291.16759 376.730384 
L 291.402361 377.57763 
L 291.871903 376.902271 
L 292.576215 373.539733 
L 292.810986 376.237665 
L 293.045757 377.848127 
L 293.75007 377.086629 
L 294.923924 368.870474 
L 295.158695 369.721047 
L 295.628237 373.179658 
L 295.863008 371.788863 
L 296.097779 367.9267 
L 296.802092 371.001693 
L 297.741175 377.954569 
L 297.975946 375.810432 
L 298.445488 369.324543 
L 298.91503 375.058042 
L 300.088885 366.73733 
L 300.323656 368.38286 
L 301.027968 368.801787 
L 301.262739 368.218646 
L 302.671365 374.576584 
L 303.375677 377.7433 
L 304.784303 371.01967 
L 305.019074 370.339295 
L 305.488616 361.26161 
L 305.958158 366.426085 
L 306.897241 375.184063 
L 307.601554 374.775733 
L 308.071096 377.663105 
L 308.305867 373.496444 
L 309.010179 374.437634 
L 309.24495 377.826368 
L 309.949263 375.476182 
L 310.418805 374.576833 
L 311.123118 372.702649 
L 311.59266 377.848546 
L 311.82743 372.604415 
L 312.531743 375.054744 
L 313.236056 375.063478 
L 313.470827 375.501295 
L 313.940369 377.532523 
L 314.17514 375.137341 
L 314.409911 375.78788 
L 314.644681 376.245351 
L 316.053307 372.095392 
L 316.288078 371.83822 
L 316.522849 368.656617 
L 317.227162 370.980354 
L 318.166245 377.134001 
L 318.401016 376.635731 
L 318.870558 373.579782 
L 319.3401 373.910797 
L 320.044412 373.536387 
L 320.279183 377.015653 
L 321.218267 373.705631 
L 321.453038 376.776167 
L 321.92258 371.659112 
L 322.392122 376.639418 
L 323.331205 372.495529 
L 322.861663 377.463597 
L 323.800747 374.227157 
L 324.035518 375.912238 
L 324.50506 373.127743 
L 324.739831 371.236179 
L 325.444144 373.060567 
L 326.148456 374.333803 
L 326.383227 371.32444 
L 326.852769 375.018248 
L 327.08754 374.857176 
L 327.322311 376.282172 
L 327.791853 373.780654 
L 328.261395 369.253283 
L 328.730936 369.756892 
L 329.904791 373.601026 
L 330.374333 374.220711 
L 331.313416 364.942197 
L 331.782958 366.920514 
L 332.2525 367.712137 
L 332.956813 372.342 
L 333.191584 370.711151 
L 333.426355 368.298394 
L 333.895897 370.804852 
L 334.130667 369.801784 
L 334.365438 369.333121 
L 335.304522 377.619431 
L 335.774064 375.779037 
L 337.182689 367.203895 
L 337.41746 370.42156 
L 338.121773 377.029699 
L 338.356544 373.899504 
L 339.060857 363.37097 
L 339.530399 368.92569 
L 339.765169 370.680289 
L 339.99994 370.214953 
L 340.234711 365.199657 
L 340.939024 368.678616 
L 341.173795 367.858213 
L 342.58242 376.880361 
L 343.521504 376.995805 
L 344.225817 365.817464 
L 345.164901 367.374998 
L 345.399671 368.414309 
L 345.869213 361.522776 
L 346.338755 364.765248 
L 346.573526 369.45533 
L 347.51261 368.285887 
L 347.982152 365.186781 
L 348.216922 370.707377 
L 348.451693 368.638186 
L 348.921235 365.190008 
L 349.156006 369.065837 
L 349.390777 370.610519 
L 349.625548 365.672532 
L 351.268944 355.634294 
L 352.442799 357.888224 
L 353.381883 361.797072 
L 354.555737 351.470415 
L 354.790508 351.964696 
L 356.199134 360.782878 
L 356.433905 360.698442 
L 356.668675 360.769783 
L 358.312072 370.526999 
L 358.546843 369.399365 
L 359.485926 377.122547 
L 359.720697 376.993852 
L 360.659781 371.382836 
L 360.894552 372.372736 
L 361.129323 375.431966 
L 361.598865 369.561438 
L 361.833636 367.64117 
L 362.303177 368.727641 
L 363.477032 371.421687 
L 363.946574 368.644988 
L 364.181345 370.99301 
L 364.416116 372.738549 
L 364.885657 369.499857 
L 365.120428 365.446902 
L 365.355199 370.373943 
L 365.58997 370.156226 
L 366.059512 373.135818 
L 366.294283 372.654941 
L 366.529054 366.815795 
L 367.468138 367.633273 
L 368.876763 376.496333 
L 369.111534 376.948299 
L 370.050618 372.60143 
L 370.285389 373.345902 
L 370.520159 375.728773 
L 370.75493 374.312527 
L 371.694014 367.356897 
L 371.928785 371.156516 
L 372.633098 368.515724 
L 372.867869 371.106841 
L 373.10264 369.875362 
L 373.33741 370.431046 
L 373.572181 372.96084 
L 374.276494 371.9505 
L 374.511265 372.122282 
L 375.215578 377.822549 
L 375.68512 375.996772 
L 377.328516 367.305895 
L 377.798058 372.930557 
L 378.032829 370.816958 
L 378.737142 362.398137 
L 378.971912 366.290978 
L 380.615309 373.085095 
L 381.319622 365.921099 
L 381.789163 367.860536 
L 382.023934 367.881045 
L 382.493476 364.408574 
L 383.197789 365.309094 
L 383.667331 366.850921 
L 383.902102 365.679612 
L 384.606414 361.870328 
L 384.841185 362.001453 
L 386.484582 376.818213 
L 387.188895 377.393455 
L 387.423665 376.495157 
L 387.658436 376.808942 
L 387.893207 376.561379 
L 388.362749 374.582332 
L 388.59752 375.684636 
L 389.301833 375.146286 
L 389.536604 377.393793 
L 390.006146 373.848255 
L 390.475687 376.799343 
L 390.710458 376.87922 
L 391.18 373.133568 
L 391.414771 377.770006 
L 391.884313 374.311559 
L 392.823397 371.503545 
L 392.353855 375.446447 
L 393.058167 373.999435 
L 393.527709 377.02451 
L 393.997251 373.757731 
L 394.466793 369.747261 
L 394.936335 370.066814 
L 395.171106 374.166251 
L 395.875418 369.388814 
L 397.049273 365.726898 
L 397.753586 366.22017 
L 397.988357 365.914005 
L 398.223128 369.755503 
L 398.692669 364.239559 
L 399.866524 348.506394 
L 400.101295 351.692584 
L 402.683775 377.789654 
L 403.622859 376.185227 
L 403.85763 373.490954 
L 404.327171 376.696174 
L 404.561942 377.803854 
L 404.796713 373.297009 
L 405.501026 374.855026 
L 405.735797 377.501562 
L 406.205339 372.193616 
L 406.44011 365.418621 
L 407.144422 367.967249 
L 408.553048 377.70609 
L 409.726902 372.086491 
L 409.02259 377.835452 
L 409.961673 373.297958 
L 410.196444 377.227436 
L 410.665986 371.336686 
L 410.900757 373.220266 
L 412.309383 364.712891 
L 412.544153 363.165907 
L 413.013695 366.160486 
L 413.248466 366.163082 
L 413.952779 369.839616 
L 414.18755 366.952463 
L 414.657092 363.539717 
L 415.126634 366.706558 
L 415.361404 369.108205 
L 416.065717 367.380189 
L 416.300488 367.308949 
L 417.474343 356.687409 
L 417.709114 358.164312 
L 420.291594 373.470469 
L 420.526365 368.220765 
L 421.230677 370.414535 
L 421.93499 375.290331 
L 422.169761 372.762811 
L 422.639303 368.354158 
L 423.108845 372.351926 
L 423.343616 374.906422 
L 423.813157 373.49356 
L 424.51747 368.652191 
L 424.752241 370.571696 
L 425.456554 376.830911 
L 425.926096 374.788598 
L 426.160867 374.520135 
L 427.334721 372.264897 
L 427.804263 371.196102 
L 430.151972 358.220188 
L 430.621514 359.706799 
L 430.856285 363.433277 
L 431.325827 359.125652 
L 431.560598 359.859735 
L 432.734452 368.074987 
L 432.969223 366.307816 
L 433.203994 364.352534 
L 433.673536 367.675166 
L 433.908307 369.559098 
L 434.377849 368.887655 
L 434.61262 366.007533 
L 434.847391 370.590223 
L 435.316932 367.812604 
L 435.551703 366.954432 
L 435.786474 369.264927 
L 436.021245 370.022018 
L 436.256016 367.50832 
L 436.490787 369.035942 
L 436.725558 376.194231 
L 437.429871 372.806632 
L 438.134183 376.329249 
L 438.603725 373.671024 
L 439.073267 372.744933 
L 439.308038 374.342733 
L 439.542809 373.353495 
L 439.77758 373.833635 
L 440.012351 373.714987 
L 441.420976 362.884962 
L 441.655747 364.932111 
L 442.125289 371.198241 
L 442.594831 367.85717 
L 442.829602 368.17669 
L 444.472998 376.338319 
L 444.94254 370.839344 
L 445.646853 371.637817 
L 446.585936 377.642729 
L 447.055478 376.82837 
L 447.290249 377.151592 
L 447.52502 370.830548 
L 448.229333 374.580724 
L 450.1075 369.156927 
L 450.577042 368.571636 
L 451.281355 373.404678 
L 452.924751 377.683968 
L 451.985667 372.564017 
L 453.394293 376.665307 
L 454.333377 373.132568 
L 454.568147 373.171073 
L 454.802918 373.348555 
L 455.27246 376.6172 
L 455.742002 375.612743 
L 455.976773 375.146009 
L 456.211544 377.772838 
L 456.681086 372.697552 
L 457.150628 374.003886 
L 458.324482 368.603005 
L 459.733108 373.346208 
L 459.967879 372.388187 
L 460.906962 377.160783 
L 461.141733 376.193149 
L 461.846046 370.014837 
L 462.315588 373.042602 
L 463.254671 377.724912 
L 463.489442 375.858973 
L 464.898068 370.127418 
L 465.132839 373.891165 
L 466.071922 373.225262 
L 466.776235 375.911685 
L 467.95009 369.786676 
L 468.419632 368.853921 
L 469.828257 361.41431 
L 470.063028 362.932919 
L 470.53257 362.122381 
L 472.645508 377.910197 
L 473.584592 365.949544 
L 474.054134 367.46688 
L 474.758446 368.869051 
L 474.993217 368.338158 
L 476.401843 377.489656 
L 477.810468 374.417908 
L 478.045239 376.016915 
L 478.749552 375.436897 
L 479.453865 372.253378 
L 479.688636 375.645877 
L 479.923406 376.439074 
L 480.158177 374.185078 
L 480.392948 373.74889 
L 481.332032 364.270443 
L 481.801574 365.211984 
L 482.036345 369.535627 
L 482.975428 368.866009 
L 483.210199 370.319343 
L 483.679741 368.416361 
L 484.149283 365.829275 
L 484.384054 361.362743 
L 484.853596 366.622032 
L 485.088367 365.848256 
L 485.792679 363.557426 
L 486.02745 363.656261 
L 487.201305 372.131729 
L 487.436076 370.809227 
L 487.670847 369.40339 
L 488.140388 372.624445 
L 488.375159 372.463882 
L 488.844701 370.096248 
L 489.783785 377.562915 
L 490.018556 376.86334 
L 490.253327 372.872312 
L 490.488098 377.753399 
L 490.957639 374.955537 
L 491.19241 374.511707 
L 491.661952 367.954247 
L 492.131494 370.807473 
L 492.366265 372.956642 
L 492.601036 372.88042 
L 493.070578 363.894638 
L 493.77489 367.278431 
L 494.713974 376.636415 
L 495.183516 374.375052 
L 496.1226 363.865124 
L 497.061683 364.165904 
L 497.296454 363.933453 
L 498.000767 370.161306 
L 498.235538 366.583316 
L 498.70508 362.771578 
L 499.174622 365.007882 
L 500.348476 371.803735 
L 500.583247 371.784379 
L 501.28756 363.779205 
L 501.991873 363.917045 
L 502.461414 363.014408 
L 503.400498 368.846336 
L 504.809124 362.239755 
L 506.45252 373.830986 
L 506.687291 373.99312 
L 507.626375 377.534755 
L 508.095916 376.935973 
L 508.330687 377.796654 
L 508.565458 375.63767 
L 509.269771 373.109325 
L 509.035 377.674393 
L 509.739313 374.372868 
L 510.208855 377.195586 
L 510.678396 373.734719 
L 511.852251 370.34582 
L 512.321793 373.917842 
L 512.791335 370.240934 
L 513.965189 366.442904 
L 515.608586 375.453083 
L 516.312898 371.021722 
L 516.78244 369.183241 
L 517.251982 369.880492 
L 517.721524 375.426824 
L 518.191066 370.639475 
L 518.425837 369.763309 
L 518.660608 371.424561 
L 518.895379 371.098989 
L 519.36492 376.173913 
L 520.069233 375.76024 
L 520.538775 368.872552 
L 521.008317 372.882567 
L 521.71263 370.267482 
L 522.182171 377.627701 
L 523.121255 374.522155 
L 522.651713 377.793445 
L 523.356026 376.325907 
L 523.825568 375.269638 
L 524.29511 377.882886 
L 525.703735 366.090573 
L 527.347131 373.070036 
L 528.990528 360.228076 
L 529.929612 362.646278 
L 530.164382 363.246557 
L 531.573008 352.915891 
L 531.807779 354.777324 
L 532.04255 350.819181 
L 532.277321 347.601403 
L 532.746863 351.970359 
L 532.981633 351.752392 
L 533.216404 352.03086 
L 535.094572 367.288524 
L 535.564114 364.164384 
L 535.798884 364.369667 
L 536.503197 358.265825 
L 536.972739 361.579466 
L 537.442281 366.358241 
L 537.677052 364.214141 
L 537.911823 360.828635 
L 538.616135 361.763857 
L 539.78999 369.914131 
L 540.024761 368.433922 
L 540.259532 363.288705 
L 540.963845 366.23988 
L 542.842012 375.975073 
L 544.250637 364.706828 
L 544.485408 366.538076 
" clip-path="url(#p69b46fefbc)" style="fill: none; stroke: #e41a1c; stroke-width: 2; stroke-linecap: square"/>
   </g>
   <g id="patch_6">
    <path d="M 51.466484 385.599141 
L 51.466484 217.858633 
" style="fill: none; stroke: #7f7f7f; stroke-width: 1.8; stroke-linejoin: miter; stroke-linecap: square"/>
   </g>
   <g id="patch_7">
    <path d="M 51.466484 385.599141 
L 567.9625 385.599141 
" style="fill: none; stroke: #7f7f7f; stroke-width: 1.8; stroke-linejoin: miter; stroke-linecap: square"/>
   </g>
  </g>
 </g>
 <defs>
  <clipPath id="pebd97a5b1c">
   <rect x="51.466484" y="22.318125" width="516.496016" height="167.740508"/>
  </clipPath>
  <clipPath id="p69b46fefbc">
   <rect x="51.466484" y="217.858633" width="516.496016" height="167.740508"/>
  </clipPath>
 </defs>
</svg>
