<?xml version="1.0" encoding="utf-8" standalone="no"?>
<!DOCTYPE svg PUBLIC "-//W3C//DTD SVG 1.1//EN"
  "http://www.w3.org/Graphics/SVG/1.1/DTD/svg11.dtd">
<svg xmlns:xlink="http://www.w3.org/1999/xlink" width="568.8pt" height="280.8pt" viewBox="0 0 568.8 280.8" xmlns="http://www.w3.org/2000/svg" version="1.1">
 <metadata>
  <rdf:RDF xmlns:dc="http://purl.org/dc/elements/1.1/" xmlns:cc="http://creativecommons.org/ns#" xmlns:rdf="http://www.w3.org/1999/02/22-rdf-syntax-ns#">
   <cc:Work>
    <dc:type rdf:resource="http://purl.org/dc/dcmitype/StillImage"/>
    <dc:date>2026-05-28T07:29:02.164013</dc:date>
    <dc:format>image/svg+xml</dc:format>
    <dc:creator>
     <cc:Agent>
      <dc:title>Matplotlib v3.10.9, https://matplotlib.org/</dc:title>
     </cc:Agent>
    </dc:creator>
   </cc:Work>
  </rdf:RDF>
 </metadata>
 <defs>
  <style type="text/css">*{stroke-linejoin: round; stroke-linecap: butt}</style>
 </defs>
 <g id="figure_1">
  <g id="patch_1">
   <path d="M 0 280.8 
L 568.8 280.8 
L 568.8 0 
L 0 0 
L 0 280.8 
z
" style="fill: none"/>
  </g>
  <g id="axes_1">
   <g id="patch_2">
    <path d="M 28.942188 242.275937 
L 561.6 242.275937 
L 561.6 7.2 
L 28.942188 7.2 
L 28.942188 242.275937 
z
" style="fill: none"/>
   </g>
   <g id="matplotlib.axis_1">
    <g id="xtick_1">
     <g id="line2d_1">
      <defs>
       <path id="md2c806f6e4" d="M 0 0 
L 0 3.5 
" style="stroke: #7f7f7f; stroke-width: 1.8"/>
      </defs>
      <g>
       <use xlink:href="#md2c806f6e4" x="53.153906" y="242.275937" style="fill: #7f7f7f; stroke: #7f7f7f; stroke-width: 1.8"/>
      </g>
     </g>
     <g id="text_1">
      <!-- 0.00000 -->
      <g style="fill: #7f7f7f" transform="translate(32.477344 256.874375) scale(0.1 -0.1)">
       <defs>
        <path id="DejaVuSans-30" d="M 2034 4250 
Q 1547 4250 1301 3770 
Q 1056 3291 1056 2328 
Q 1056 1369 1301 889 
Q 1547 409 2034 409 
Q 2525 409 2770 889 
Q 3016 1369 3016 2328 
Q 3016 3291 2770 3770 
Q 2525 4250 2034 4250 
z
M 2034 4750 
Q 2819 4750 3233 4129 
Q 3647 3509 3647 2328 
Q 3647 1150 3233 529 
Q 2819 -91 2034 -91 
Q 1250 -91 836 529 
Q 422 1150 422 2328 
Q 422 3509 836 4129 
Q 1250 4750 2034 4750 
z
" transform="scale(0.015625)"/>
        <path id="DejaVuSans-2e" d="M 684 794 
L 1344 794 
L 1344 0 
L 684 0 
L 684 794 
z
" transform="scale(0.015625)"/>
       </defs>
       <use xlink:href="#DejaVuSans-30"/>
       <use xlink:href="#DejaVuSans-2e" transform="translate(63.623047 0)"/>
       <use xlink:href="#DejaVuSans-30" transform="translate(95.410156 0)"/>
       <use xlink:href="#DejaVuSans-30" transform="translate(159.033203 0)"/>
       <use xlink:href="#DejaVuSans-30" transform="translate(222.65625 0)"/>
       <use xlink:href="#DejaVuSans-30" transform="translate(286.279297 0)"/>
       <use xlink:href="#DejaVuSans-30" transform="translate(349.902344 0)"/>
      </g>
     </g>
    </g>
    <g id="xtick_2">
     <g id="line2d_2">
      <g>
       <use xlink:href="#md2c806f6e4" x="149.981416" y="242.275937" style="fill: #7f7f7f; stroke: #7f7f7f; stroke-width: 1.8"/>
      </g>
     </g>
     <g id="text_2">
      <!-- 0.00002 -->
      <g style="fill: #7f7f7f" transform="translate(129.304853 256.874375) scale(0.1 -0.1)">
       <defs>
        <path id="DejaVuSans-32" d="M 1228 531 
L 3431 531 
L 3431 0 
L 469 0 
L 469 531 
Q 828 903 1448 1529 
Q 2069 2156 2228 2338 
Q 2531 2678 2651 2914 
Q 2772 3150 2772 3378 
Q 2772 3750 2511 3984 
Q 2250 4219 1831 4219 
Q 1534 4219 1204 4116 
Q 875 4013 500 3803 
L 500 4441 
Q 881 4594 1212 4672 
Q 1544 4750 1819 4750 
Q 2544 4750 2975 4387 
Q 3406 4025 3406 3419 
Q 3406 3131 3298 2873 
Q 3191 2616 2906 2266 
Q 2828 2175 2409 1742 
Q 1991 1309 1228 531 
z
" transform="scale(0.015625)"/>
       </defs>
       <use xlink:href="#DejaVuSans-30"/>
       <use xlink:href="#DejaVuSans-2e" transform="translate(63.623047 0)"/>
       <use xlink:href="#DejaVuSans-30" transform="translate(95.410156 0)"/>
       <use xlink:href="#DejaVuSans-30" transform="translate(159.033203 0)"/>
       <use xlink:href="#DejaVuSans-30" transform="translate(222.65625 0)"/>
       <use xlink:href="#DejaVuSans-30" transform="translate(286.279297 0)"/>
       <use xlink:href="#DejaVuSans-32" transform="translate(349.902344 0)"/>
      </g>
     </g>
    </g>
    <g id="xtick_3">
     <g id="line2d_3">
      <g>
       <use xlink:href="#md2c806f6e4" x="246.808925" y="242.275937" style="fill: #7f7f7f; stroke: #7f7f7f; stroke-width: 1.8"/>
      </g>
     </g>
     <g id="text_3">
      <!-- 0.00004 -->
      <g style="fill: #7f7f7f" transform="translate(226.132363 256.874375) scale(0.1 -0.1)">
       <defs>
        <path id="DejaVuSans-34" d="M 2419 4116 
L 825 1625 
L 2419 1625 
L 2419 4116 
z
M 2253 4666 
L 3047 4666 
L 3047 1625 
L 3713 1625 
L 3713 1100 
L 3047 1100 
L 3047 0 
L 2419 0 
L 2419 1100 
L 313 1100 
L 313 1709 
L 2253 4666 
z
" transform="scale(0.015625)"/>
       </defs>
       <use xlink:href="#DejaVuSans-30"/>
       <use xlink:href="#DejaVuSans-2e" transform="translate(63.623047 0)"/>
       <use xlink:href="#DejaVuSans-30" transform="translate(95.410156 0)"/>
       <use xlink:href="#DejaVuSans-30" transform="translate(159.033203 0)"/>
       <use xlink:href="#DejaVuSans-30" transform="translate(222.65625 0)"/>
       <use xlink:href="#DejaVuSans-30" transform="translate(286.279297 0)"/>
       <use xlink:href="#DejaVuSans-34" transform="translate(349.902344 0)"/>
      </g>
     </g>
    </g>
    <g id="xtick_4">
     <g id="line2d_4">
      <g>
       <use xlink:href="#md2c806f6e4" x="343.636435" y="242.275937" style="fill: #7f7f7f; stroke: #7f7f7f; stroke-width: 1.8"/>
      </g>
     </g>
     <g id="text_4">
      <!-- 0.00006 -->
      <g style="fill: #7f7f7f" transform="translate(322.959872 256.874375) scale(0.1 -0.1)">
       <defs>
        <path id="DejaVuSans-36" d="M 2113 2584 
Q 1688 2584 1439 2293 
Q 1191 2003 1191 1497 
Q 1191 994 1439 701 
Q 1688 409 2113 409 
Q 2538 409 2786 701 
Q 3034 994 3034 1497 
Q 3034 2003 2786 2293 
Q 2538 2584 2113 2584 
z
M 3366 4563 
L 3366 3988 
Q 3128 4100 2886 4159 
Q 2644 4219 2406 4219 
Q 1781 4219 1451 3797 
Q 1122 3375 1075 2522 
Q 1259 2794 1537 2939 
Q 1816 3084 2150 3084 
Q 2853 3084 3261 2657 
Q 3669 2231 3669 1497 
Q 3669 778 3244 343 
Q 2819 -91 2113 -91 
Q 1303 -91 875 529 
Q 447 1150 447 2328 
Q 447 3434 972 4092 
Q 1497 4750 2381 4750 
Q 2619 4750 2861 4703 
Q 3103 4656 3366 4563 
z
" transform="scale(0.015625)"/>
       </defs>
       <use xlink:href="#DejaVuSans-30"/>
       <use xlink:href="#DejaVuSans-2e" transform="translate(63.623047 0)"/>
       <use xlink:href="#DejaVuSans-30" transform="translate(95.410156 0)"/>
       <use xlink:href="#DejaVuSans-30" transform="translate(159.033203 0)"/>
       <use xlink:href="#DejaVuSans-30" transform="translate(222.65625 0)"/>
       <use xlink:href="#DejaVuSans-30" transform="translate(286.279297 0)"/>
       <use xlink:href="#DejaVuSans-36" transform="translate(349.902344 0)"/>
      </g>
     </g>
    </g>
    <g id="xtick_5">
     <g id="line2d_5">
      <g>
       <use xlink:href="#md2c806f6e4" x="440.463944" y="242.275937" style="fill: #7f7f7f; stroke: #7f7f7f; stroke-width: 1.8"/>
      </g>
     </g>
     <g id="text_5">
      <!-- 0.00008 -->
      <g style="fill: #7f7f7f" transform="translate(419.787382 256.874375) scale(0.1 -0.1)">
       <defs>
        <path id="DejaVuSans-38" d="M 2034 2216 
Q 1584 2216 1326 1975 
Q 1069 1734 1069 1313 
Q 1069 891 1326 650 
Q 1584 409 2034 409 
Q 2484 409 2743 651 
Q 3003 894 3003 1313 
Q 3003 1734 2745 1975 
Q 2488 2216 2034 2216 
z
M 1403 2484 
Q 997 2584 770 2862 
Q 544 3141 544 3541 
Q 544 4100 942 4425 
Q 1341 4750 2034 4750 
Q 2731 4750 3128 4425 
Q 3525 4100 3525 3541 
Q 3525 3141 3298 2862 
Q 3072 2584 2669 2484 
Q 3125 2378 3379 2068 
Q 3634 1759 3634 1313 
Q 3634 634 3220 271 
Q 2806 -91 2034 -91 
Q 1263 -91 848 271 
Q 434 634 434 1313 
Q 434 1759 690 2068 
Q 947 2378 1403 2484 
z
M 1172 3481 
Q 1172 3119 1398 2916 
Q 1625 2713 2034 2713 
Q 2441 2713 2670 2916 
Q 2900 3119 2900 3481 
Q 2900 3844 2670 4047 
Q 2441 4250 2034 4250 
Q 1625 4250 1398 4047 
Q 1172 3844 1172 3481 
z
" transform="scale(0.015625)"/>
       </defs>
       <use xlink:href="#DejaVuSans-30"/>
       <use xlink:href="#DejaVuSans-2e" transform="translate(63.623047 0)"/>
       <use xlink:href="#DejaVuSans-30" transform="translate(95.410156 0)"/>
       <use xlink:href="#DejaVuSans-30" transform="translate(159.033203 0)"/>
       <use xlink:href="#DejaVuSans-30" transform="translate(222.65625 0)"/>
       <use xlink:href="#DejaVuSans-30" transform="translate(286.279297 0)"/>
       <use xlink:href="#DejaVuSans-38" transform="translate(349.902344 0)"/>
      </g>
     </g>
    </g>
    <g id="xtick_6">
     <g id="line2d_6">
      <g>
       <use xlink:href="#md2c806f6e4" x="537.291454" y="242.275937" style="fill: #7f7f7f; stroke: #7f7f7f; stroke-width: 1.8"/>
      </g>
     </g>
     <g id="text_6">
      <!-- 0.00010 -->
      <g style="fill: #7f7f7f" transform="translate(516.614891 256.874375) scale(0.1 -0.1)">
       <defs>
        <path id="DejaVuSans-31" d="M 794 531 
L 1825 531 
L 1825 4091 
L 703 3866 
L 703 4441 
L 1819 4666 
L 2450 4666 
L 2450 531 
L 3481 531 
L 3481 0 
L 794 0 
L 794 531 
z
" transform="scale(0.015625)"/>
       </defs>
       <use xlink:href="#DejaVuSans-30"/>
       <use xlink:href="#DejaVuSans-2e" transform="translate(63.623047 0)"/>
       <use xlink:href="#DejaVuSans-30" transform="translate(95.410156 0)"/>
       <use xlink:href="#DejaVuSans-30" transform="translate(159.033203 0)"/>
       <use xlink:href="#DejaVuSans-30" transform="translate(222.65625 0)"/>
       <use xlink:href="#DejaVuSans-31" transform="translate(286.279297 0)"/>
       <use xlink:href="#DejaVuSans-30" transform="translate(349.902344 0)"/>
      </g>
     </g>
    </g>
    <g id="text_7">
     <!-- time [s] -->
     <g style="fill: #7f7f7f" transform="translate(273.940547 271.312344) scale(0.11 -0.11)">
      <defs>
       <path id="DejaVuSans-74" d="M 1172 4494 
L 1172 3500 
L 2356 3500 
L 2356 3053 
L 1172 3053 
L 1172 1153 
Q 1172 725 1289 603 
Q 1406 481 1766 481 
L 2356 481 
L 2356 0 
L 1766 0 
Q 1100 0 847 248 
Q 594 497 594 1153 
L 594 3053 
L 172 3053 
L 172 3500 
L 594 3500 
L 594 4494 
L 1172 4494 
z
" transform="scale(0.015625)"/>
       <path id="DejaVuSans-69" d="M 603 3500 
L 1178 3500 
L 1178 0 
L 603 0 
L 603 3500 
z
M 603 4863 
L 1178 4863 
L 1178 4134 
L 603 4134 
L 603 4863 
z
" transform="scale(0.015625)"/>
       <path id="DejaVuSans-6d" d="M 3328 2828 
Q 3544 3216 3844 3400 
Q 4144 3584 4550 3584 
Q 5097 3584 5394 3201 
Q 5691 2819 5691 2113 
L 5691 0 
L 5113 0 
L 5113 2094 
Q 5113 2597 4934 2840 
Q 4756 3084 4391 3084 
Q 3944 3084 3684 2787 
Q 3425 2491 3425 1978 
L 3425 0 
L 2847 0 
L 2847 2094 
Q 2847 2600 2669 2842 
Q 2491 3084 2119 3084 
Q 1678 3084 1418 2786 
Q 1159 2488 1159 1978 
L 1159 0 
L 581 0 
L 581 3500 
L 1159 3500 
L 1159 2956 
Q 1356 3278 1631 3431 
Q 1906 3584 2284 3584 
Q 2666 3584 2933 3390 
Q 3200 3197 3328 2828 
z
" transform="scale(0.015625)"/>
       <path id="DejaVuSans-65" d="M 3597 1894 
L 3597 1613 
L 953 1613 
Q 991 1019 1311 708 
Q 1631 397 2203 397 
Q 2534 397 2845 478 
Q 3156 559 3463 722 
L 3463 178 
Q 3153 47 2828 -22 
Q 2503 -91 2169 -91 
Q 1331 -91 842 396 
Q 353 884 353 1716 
Q 353 2575 817 3079 
Q 1281 3584 2069 3584 
Q 2775 3584 3186 3129 
Q 3597 2675 3597 1894 
z
M 3022 2063 
Q 3016 2534 2758 2815 
Q 2500 3097 2075 3097 
Q 1594 3097 1305 2825 
Q 1016 2553 972 2059 
L 3022 2063 
z
" transform="scale(0.015625)"/>
       <path id="DejaVuSans-20" transform="scale(0.015625)"/>
       <path id="DejaVuSans-5b" d="M 550 4863 
L 1875 4863 
L 1875 4416 
L 1125 4416 
L 1125 -397 
L 1875 -397 
L 1875 -844 
L 550 -844 
L 550 4863 
z
" transform="scale(0.015625)"/>
       <path id="DejaVuSans-73" d="M 2834 3397 
L 2834 2853 
Q 2591 2978 2328 3040 
Q 2066 3103 1784 3103 
Q 1356 3103 1142 2972 
Q 928 2841 928 2578 
Q 928 2378 1081 2264 
Q 1234 2150 1697 2047 
L 1894 2003 
Q 2506 1872 2764 1633 
Q 3022 1394 3022 966 
Q 3022 478 2636 193 
Q 2250 -91 1575 -91 
Q 1294 -91 989 -36 
Q 684 19 347 128 
L 347 722 
Q 666 556 975 473 
Q 1284 391 1588 391 
Q 1994 391 2212 530 
Q 2431 669 2431 922 
Q 2431 1156 2273 1281 
Q 2116 1406 1581 1522 
L 1381 1569 
Q 847 1681 609 1914 
Q 372 2147 372 2553 
Q 372 3047 722 3315 
Q 1072 3584 1716 3584 
Q 2034 3584 2315 3537 
Q 2597 3491 2834 3397 
z
" transform="scale(0.015625)"/>
       <path id="DejaVuSans-5d" d="M 1947 4863 
L 1947 -844 
L 622 -844 
L 622 -397 
L 1369 -397 
L 1369 4416 
L 622 4416 
L 622 4863 
L 1947 4863 
z
" transform="scale(0.015625)"/>
      </defs>
      <use xlink:href="#DejaVuSans-74"/>
      <use xlink:href="#DejaVuSans-69" transform="translate(39.208984 0)"/>
      <use xlink:href="#DejaVuSans-6d" transform="translate(66.992188 0)"/>
      <use xlink:href="#DejaVuSans-65" transform="translate(164.404297 0)"/>
      <use xlink:href="#DejaVuSans-20" transform="translate(225.927734 0)"/>
      <use xlink:href="#DejaVuSans-5b" transform="translate(257.714844 0)"/>
      <use xlink:href="#DejaVuSans-73" transform="translate(296.728516 0)"/>
      <use xlink:href="#DejaVuSans-5d" transform="translate(348.828125 0)"/>
     </g>
    </g>
   </g>
   <g id="matplotlib.axis_2">
    <g id="ytick_1">
     <g id="line2d_7">
      <defs>
       <path id="m88d2913eef" d="M 0 0 
L -3.5 0 
" style="stroke: #7f7f7f; stroke-width: 1.8"/>
      </defs>
      <g>
       <use xlink:href="#m88d2913eef" x="28.942188" y="235.097881" style="fill: #7f7f7f; stroke: #7f7f7f; stroke-width: 1.8"/>
      </g>
     </g>
     <g id="text_8">
      <!-- −8 -->
      <g style="fill: #7f7f7f" transform="translate(7.2 238.897099) scale(0.1 -0.1)">
       <defs>
        <path id="DejaVuSans-2212" d="M 678 2272 
L 4684 2272 
L 4684 1741 
L 678 1741 
L 678 2272 
z
" transform="scale(0.015625)"/>
       </defs>
       <use xlink:href="#DejaVuSans-2212"/>
       <use xlink:href="#DejaVuSans-38" transform="translate(83.789062 0)"/>
      </g>
     </g>
    </g>
    <g id="ytick_2">
     <g id="line2d_8">
      <g>
       <use xlink:href="#m88d2913eef" x="28.942188" y="208.032254" style="fill: #7f7f7f; stroke: #7f7f7f; stroke-width: 1.8"/>
      </g>
     </g>
     <g id="text_9">
      <!-- −6 -->
      <g style="fill: #7f7f7f" transform="translate(7.2 211.831472) scale(0.1 -0.1)">
       <use xlink:href="#DejaVuSans-2212"/>
       <use xlink:href="#DejaVuSans-36" transform="translate(83.789062 0)"/>
      </g>
     </g>
    </g>
    <g id="ytick_3">
     <g id="line2d_9">
      <g>
       <use xlink:href="#m88d2913eef" x="28.942188" y="180.966626" style="fill: #7f7f7f; stroke: #7f7f7f; stroke-width: 1.8"/>
      </g>
     </g>
     <g id="text_10">
      <!-- −4 -->
      <g style="fill: #7f7f7f" transform="translate(7.2 184.765845) scale(0.1 -0.1)">
       <use xlink:href="#DejaVuSans-2212"/>
       <use xlink:href="#DejaVuSans-34" transform="translate(83.789062 0)"/>
      </g>
     </g>
    </g>
    <g id="ytick_4">
     <g id="line2d_10">
      <g>
       <use xlink:href="#m88d2913eef" x="28.942188" y="153.900999" style="fill: #7f7f7f; stroke: #7f7f7f; stroke-width: 1.8"/>
      </g>
     </g>
     <g id="text_11">
      <!-- −2 -->
      <g style="fill: #7f7f7f" transform="translate(7.2 157.700218) scale(0.1 -0.1)">
       <use xlink:href="#DejaVuSans-2212"/>
       <use xlink:href="#DejaVuSans-32" transform="translate(83.789062 0)"/>
      </g>
     </g>
    </g>
    <g id="ytick_5">
     <g id="line2d_11">
      <g>
       <use xlink:href="#m88d2913eef" x="28.942188" y="126.835372" style="fill: #7f7f7f; stroke: #7f7f7f; stroke-width: 1.8"/>
      </g>
     </g>
     <g id="text_12">
      <!-- 0 -->
      <g style="fill: #7f7f7f" transform="translate(15.579688 130.634591) scale(0.1 -0.1)">
       <use xlink:href="#DejaVuSans-30"/>
      </g>
     </g>
    </g>
    <g id="ytick_6">
     <g id="line2d_12">
      <g>
       <use xlink:href="#m88d2913eef" x="28.942188" y="99.769745" style="fill: #7f7f7f; stroke: #7f7f7f; stroke-width: 1.8"/>
      </g>
     </g>
     <g id="text_13">
      <!-- 2 -->
      <g style="fill: #7f7f7f" transform="translate(15.579688 103.568964) scale(0.1 -0.1)">
       <use xlink:href="#DejaVuSans-32"/>
      </g>
     </g>
    </g>
    <g id="ytick_7">
     <g id="line2d_13">
      <g>
       <use xlink:href="#m88d2913eef" x="28.942188" y="72.704118" style="fill: #7f7f7f; stroke: #7f7f7f; stroke-width: 1.8"/>
      </g>
     </g>
     <g id="text_14">
      <!-- 4 -->
      <g style="fill: #7f7f7f" transform="translate(15.579688 76.503337) scale(0.1 -0.1)">
       <use xlink:href="#DejaVuSans-34"/>
      </g>
     </g>
    </g>
    <g id="ytick_8">
     <g id="line2d_14">
      <g>
       <use xlink:href="#m88d2913eef" x="28.942188" y="45.638491" style="fill: #7f7f7f; stroke: #7f7f7f; stroke-width: 1.8"/>
      </g>
     </g>
     <g id="text_15">
      <!-- 6 -->
      <g style="fill: #7f7f7f" transform="translate(15.579688 49.43771) scale(0.1 -0.1)">
       <use xlink:href="#DejaVuSans-36"/>
      </g>
     </g>
    </g>
    <g id="ytick_9">
     <g id="line2d_15">
      <g>
       <use xlink:href="#m88d2913eef" x="28.942188" y="18.572864" style="fill: #7f7f7f; stroke: #7f7f7f; stroke-width: 1.8"/>
      </g>
     </g>
     <g id="text_16">
      <!-- 8 -->
      <g style="fill: #7f7f7f" transform="translate(15.579688 22.372083) scale(0.1 -0.1)">
       <use xlink:href="#DejaVuSans-38"/>
      </g>
     </g>
    </g>
   </g>
   <g id="line2d_16">
    <path d="M 53.153906 126.835372 
L 57.656385 114.382046 
L 59.544522 113.354882 
L 61.142176 114.976477 
L 63.611277 121.227705 
L 70.437617 140.023463 
L 72.035271 140.128482 
L 73.778166 137.682829 
L 76.682991 129.203927 
L 82.056918 114.131662 
L 83.945054 113.431642 
L 85.542708 115.319023 
L 88.157051 122.331387 
L 94.402425 139.806869 
L 96.14532 140.188009 
L 97.742974 138.169483 
L 100.502558 130.52918 
L 106.312209 114.074057 
L 108.200345 113.456133 
L 109.797999 115.40924 
L 112.412342 122.492102 
L 118.512475 139.705843 
L 120.25537 140.239102 
L 121.853024 138.351722 
L 124.467367 131.339357 
L 130.712741 113.863876 
L 132.455637 113.482735 
L 134.05329 115.501261 
L 136.812874 123.141565 
L 142.622525 139.596687 
L 144.510661 140.214612 
L 146.108315 138.261505 
L 148.722658 131.178642 
L 154.822791 113.964902 
L 156.565686 113.431642 
L 158.16334 115.319023 
L 160.777683 122.331387 
L 167.023057 139.806869 
L 168.765953 140.188009 
L 170.363606 138.169483 
L 173.123191 130.52918 
L 178.932841 114.074057 
L 180.820978 113.456133 
L 182.418631 115.40924 
L 185.032974 122.492102 
L 191.133107 139.705843 
L 192.876002 140.239102 
L 194.473656 138.351722 
L 197.087999 131.339357 
L 203.333373 113.863876 
L 205.076269 113.482735 
L 206.673923 115.501261 
L 209.433507 123.141565 
L 215.243157 139.596687 
L 217.131294 140.214612 
L 218.728947 138.261505 
L 221.34329 131.178642 
L 227.443423 113.964902 
L 229.186319 113.431642 
L 230.783972 115.319023 
L 233.398315 122.331387 
L 239.64369 139.806869 
L 241.386585 140.188009 
L 242.984239 138.169483 
L 245.743823 130.52918 
L 251.553473 114.074057 
L 253.44161 113.456133 
L 255.039264 115.40924 
L 257.653606 122.492102 
L 263.753739 139.705843 
L 265.496635 140.239102 
L 267.094288 138.351722 
L 269.708631 131.339357 
L 275.954006 113.863876 
L 277.696901 113.482735 
L 279.294555 115.501261 
L 282.054139 123.141565 
L 287.863789 139.596687 
L 289.751926 140.214612 
L 291.34958 138.261505 
L 293.963922 131.178642 
L 300.064055 113.964902 
L 301.806951 113.431642 
L 303.404605 115.319023 
L 306.018947 122.331387 
L 312.264322 139.806869 
L 314.007217 140.188009 
L 315.604871 138.169483 
L 318.364455 130.52918 
L 324.174105 114.074057 
L 326.062242 113.456133 
L 327.659896 115.40924 
L 330.274238 122.492102 
L 336.374372 139.705843 
L 338.117267 140.239102 
L 339.714921 138.351722 
L 342.329263 131.339357 
L 348.574638 113.863876 
L 350.317533 113.482735 
L 351.915187 115.501261 
L 354.674771 123.141565 
L 360.484421 139.596687 
L 362.372558 140.214612 
L 363.970212 138.261505 
L 366.584554 131.178642 
L 372.684688 113.964902 
L 374.427583 113.431642 
L 376.025237 115.319023 
L 378.639579 122.331387 
L 384.884954 139.806869 
L 386.627849 140.188009 
L 388.225503 138.169483 
L 390.985087 130.52918 
L 396.794737 114.074057 
L 398.682874 113.456133 
L 400.280528 115.40924 
L 402.894871 122.492102 
L 408.995004 139.705843 
L 410.737899 140.239102 
L 412.335553 138.351722 
L 414.949895 131.339357 
L 421.19527 113.863876 
L 422.938165 113.482735 
L 424.535819 115.501261 
L 427.295403 123.141565 
L 433.105054 139.596687 
L 434.99319 140.214612 
L 436.590844 138.261505 
L 439.205187 131.178642 
L 445.30532 113.964902 
L 447.048215 113.431642 
L 448.645869 115.319023 
L 451.260212 122.331387 
L 457.505586 139.806869 
L 459.248481 140.188009 
L 460.846135 138.169483 
L 463.605719 130.52918 
L 469.41537 114.074057 
L 471.303506 113.456133 
L 472.90116 115.40924 
L 475.515503 122.492102 
L 481.615636 139.705843 
L 483.358531 140.239102 
L 484.956185 138.351722 
L 487.570528 131.339357 
L 493.815902 113.863876 
L 495.558797 113.482735 
L 497.156451 115.501261 
L 499.916035 123.141565 
L 505.725686 139.596687 
L 507.613822 140.214612 
L 509.211476 138.261505 
L 511.825819 131.178642 
L 517.925952 113.964902 
L 519.668847 113.431642 
L 521.266501 115.319023 
L 523.880844 122.331387 
L 530.126218 139.806869 
L 531.869113 140.188009 
L 533.466767 138.169483 
L 536.226351 130.52918 
L 537.388281 126.495291 
L 537.388281 126.495291 
" clip-path="url(#p703cad095f)" style="fill: none; stroke: #e41a1c; stroke-width: 2; stroke-linecap: square"/>
   </g>
   <g id="line2d_17">
    <path d="M 53.153906 126.835372 
L 53.444389 127.755456 
L 53.880113 129.580298 
L 54.170595 127.601908 
L 55.332525 96.623154 
L 57.946868 36.619963 
L 59.689763 28.722853 
L 61.723141 24.111131 
L 63.030312 30.84032 
L 65.06369 81.868505 
L 69.130445 191.137904 
L 71.454306 218.670687 
L 72.616236 221.991825 
L 73.197201 220.769342 
L 75.085337 216.172011 
L 77.263956 158.688394 
L 80.604505 59.115738 
L 84.235537 18.932787 
L 84.816502 17.88527 
L 85.252226 18.730916 
L 86.84988 27.475925 
L 88.01181 42.626682 
L 94.692908 213.867697 
L 97.162009 226.383942 
L 97.742974 228.421176 
L 97.888216 226.99477 
L 100.793041 175.593732 
L 104.859796 53.191289 
L 108.055104 20.837304 
L 109.217034 18.675367 
L 109.362276 18.720094 
L 109.797999 19.904988 
L 111.686136 38.094681 
L 114.009996 79.848987 
L 115.898132 153.541344 
L 118.221993 212.535817 
L 119.964888 228.888955 
L 120.110129 228.771692 
L 120.400612 229.263795 
L 120.691094 228.566699 
L 122.869713 216.421967 
L 126.355503 151.933116 
L 130.5675 35.904482 
L 132.746119 21.418184 
L 133.036602 21.583121 
L 134.489014 28.572428 
L 137.974805 88.243392 
L 140.734389 154.624165 
L 142.186801 191.008552 
L 144.655903 230.764445 
L 145.817833 222.632293 
L 149.884588 154.948938 
L 153.370379 45.291961 
L 155.258515 28.173597 
L 156.710928 26.022189 
L 156.856169 26.156407 
L 157.437134 24.723292 
L 158.744305 19.56413 
L 159.180029 21.473691 
L 160.487201 37.481973 
L 162.230096 90.377099 
L 166.587334 206.959161 
L 168.330229 224.526818 
L 169.492159 228.651846 
L 169.782641 227.686921 
L 171.816019 214.996542 
L 174.575603 140.766807 
L 177.335187 69.283297 
L 180.675736 22.28426 
L 181.837666 19.598501 
L 182.128149 20.913429 
L 183.725803 34.551938 
L 186.775869 98.031472 
L 190.842625 205.752075 
L 194.473656 223.659539 
L 194.764139 222.353869 
L 197.23324 193.354819 
L 204.785786 22.946704 
L 205.802475 20.941677 
L 205.947716 21.154866 
L 207.835853 30.159142 
L 209.86923 75.26084 
L 214.081227 186.550864 
L 216.840811 227.734815 
L 217.131294 228.454389 
L 217.712259 227.61497 
L 218.002741 226.783135 
L 221.052808 197.711761 
L 222.50522 159.283712 
L 226.426734 48.717238 
L 229.33156 20.648472 
L 229.767284 19.682193 
L 230.203007 20.705385 
L 231.510179 25.585453 
L 232.526868 37.152523 
L 237.610312 172.677758 
L 239.64369 206.206716 
L 241.386585 210.565723 
L 242.984239 215.724485 
L 243.419962 214.913501 
L 244.727134 207.515551 
L 247.050994 157.581523 
L 251.698714 33.056236 
L 255.329746 21.195941 
L 255.474987 21.466468 
L 257.508365 49.215513 
L 264.189463 217.560695 
L 265.932358 229.70557 
L 266.0776 229.160449 
L 268.256219 215.350653 
L 269.127666 203.607438 
L 270.72532 165.129035 
L 275.954006 28.90154 
L 277.696901 19.431076 
L 277.842142 19.601263 
L 279.004072 19.694967 
L 281.327932 39.355478 
L 285.104205 154.022124 
L 287.863789 215.648612 
L 289.316202 222.370444 
L 290.623373 223.615083 
L 290.768615 222.919435 
L 294.109164 186.926008 
L 299.773573 38.052636 
L 301.806951 22.991621 
L 301.952192 23.162526 
L 303.259363 24.628733 
L 304.130811 30.64608 
L 306.599912 66.573359 
L 311.973839 219.941029 
L 313.281011 227.683031 
L 314.442941 224.179067 
L 315.459629 222.043707 
L 315.750112 222.759639 
L 316.185836 222.798004 
L 316.912042 211.556481 
L 324.900312 23.230627 
L 325.626518 18.859301 
L 326.207483 19.711989 
L 327.514654 22.471734 
L 328.676585 32.583009 
L 330.709962 70.078455 
L 338.262508 224.0039 
L 338.55299 224.88566 
L 339.279197 224.463934 
L 340.150644 221.076585 
L 342.910228 176.772017 
L 347.557949 47.35936 
L 349.736568 25.640663 
L 351.479463 18.858315 
L 351.915187 21.057659 
L 354.384288 46.623762 
L 357.143872 115.725428 
L 360.774904 214.735834 
L 361.791593 220.962881 
L 362.227317 219.624251 
L 362.953523 220.111176 
L 363.82497 224.568503 
L 364.260694 221.527362 
L 365.132142 214.323329 
L 365.858348 214.759457 
L 366.729796 203.01962 
L 367.746485 159.029311 
L 370.070345 73.985354 
L 371.81324 50.045715 
L 374.1371 19.859662 
L 374.427583 19.264125 
L 374.863307 20.188002 
L 377.768132 39.511836 
L 380.091992 100.792586 
L 383.868265 190.378537 
L 386.046884 216.010269 
L 387.644538 222.360622 
L 387.789779 222.277432 
L 388.225503 218.587872 
L 393.59943 106.556403 
L 397.08522 29.693332 
L 398.828115 20.575073 
L 400.135287 24.217711 
L 404.347283 78.819278 
L 409.430727 218.077865 
L 409.72121 219.849164 
L 410.447416 218.391604 
L 412.190311 222.669978 
L 413.207 221.580981 
L 415.240378 181.239543 
L 421.19527 34.102945 
L 423.083406 18.52335 
L 423.809613 19.304196 
L 424.68106 27.272005 
L 427.295403 61.323085 
L 434.557466 229.298534 
L 434.702707 228.844865 
L 435.864638 224.900042 
L 436.009879 224.938496 
L 436.590844 224.87084 
L 437.462291 214.229453 
L 439.931393 168.763987 
L 446.322009 24.242705 
L 447.193456 21.357217 
L 447.483939 21.654755 
L 449.662558 36.701249 
L 451.550694 53.991982 
L 457.94131 222.341915 
L 459.538964 231.590668 
L 459.684205 231.369882 
L 460.700894 227.128667 
L 463.315236 199.50604 
L 465.348614 142.555336 
L 468.979646 40.779691 
L 471.303506 25.960375 
L 472.320195 21.606997 
L 472.90116 24.313444 
L 475.22502 40.453391 
L 477.403639 84.197583 
L 482.341842 218.780281 
L 483.939496 231.176626 
L 484.37522 226.698486 
L 488.732458 162.774104 
L 493.815902 31.469007 
L 495.558797 24.809359 
L 496.720727 19.858578 
L 497.301692 22.079786 
L 498.608864 38.363762 
L 500.497 73.878205 
L 507.178098 223.417905 
L 507.904305 227.713253 
L 508.48527 225.636581 
L 510.373406 214.517803 
L 511.97106 195.670323 
L 517.925952 37.819618 
L 520.395053 20.107591 
L 520.830777 21.335042 
L 523.154637 42.34991 
L 524.461809 70.141868 
L 530.271459 213.845344 
L 532.740561 230.781836 
L 533.321526 228.200404 
L 534.91918 213.734343 
L 537.24304 162.268981 
L 537.388281 157.521095 
L 537.388281 157.521095 
" clip-path="url(#p703cad095f)" style="fill: none; stroke: #377eb8; stroke-width: 2; stroke-linecap: square"/>
   </g>
   <g id="patch_3">
    <path d="M 28.942188 242.275937 
L 28.942188 7.2 
" style="fill: none; stroke: #7f7f7f; stroke-width: 1.8; stroke-linejoin: miter; stroke-linecap: square"/>
   </g>
   <g id="patch_4">
    <path d="M 28.942188 242.275937 
L 561.6 242.275937 
" style="fill: none; stroke: #7f7f7f; stroke-width: 1.8; stroke-linejoin: miter; stroke-linecap: square"/>
   </g>
   <g id="legend_1">
    <g id="line2d_18">
     <path d="M 37.942188 213.018125 
L 47.942188 213.018125 
L 57.942188 213.018125 
" style="fill: none; stroke: #e41a1c; stroke-width: 2; stroke-linecap: square"/>
    </g>
    <g id="text_17">
     <!-- Src -->
     <g style="fill: #7f7f7f" transform="translate(65.942188 216.518125) scale(0.1 -0.1)">
      <defs>
       <path id="DejaVuSans-53" d="M 3425 4513 
L 3425 3897 
Q 3066 4069 2747 4153 
Q 2428 4238 2131 4238 
Q 1616 4238 1336 4038 
Q 1056 3838 1056 3469 
Q 1056 3159 1242 3001 
Q 1428 2844 1947 2747 
L 2328 2669 
Q 3034 2534 3370 2195 
Q 3706 1856 3706 1288 
Q 3706 609 3251 259 
Q 2797 -91 1919 -91 
Q 1588 -91 1214 -16 
Q 841 59 441 206 
L 441 856 
Q 825 641 1194 531 
Q 1563 422 1919 422 
Q 2459 422 2753 634 
Q 3047 847 3047 1241 
Q 3047 1584 2836 1778 
Q 2625 1972 2144 2069 
L 1759 2144 
Q 1053 2284 737 2584 
Q 422 2884 422 3419 
Q 422 4038 858 4394 
Q 1294 4750 2059 4750 
Q 2388 4750 2728 4690 
Q 3069 4631 3425 4513 
z
" transform="scale(0.015625)"/>
       <path id="DejaVuSans-72" d="M 2631 2963 
Q 2534 3019 2420 3045 
Q 2306 3072 2169 3072 
Q 1681 3072 1420 2755 
Q 1159 2438 1159 1844 
L 1159 0 
L 581 0 
L 581 3500 
L 1159 3500 
L 1159 2956 
Q 1341 3275 1631 3429 
Q 1922 3584 2338 3584 
Q 2397 3584 2469 3576 
Q 2541 3569 2628 3553 
L 2631 2963 
z
" transform="scale(0.015625)"/>
       <path id="DejaVuSans-63" d="M 3122 3366 
L 3122 2828 
Q 2878 2963 2633 3030 
Q 2388 3097 2138 3097 
Q 1578 3097 1268 2742 
Q 959 2388 959 1747 
Q 959 1106 1268 751 
Q 1578 397 2138 397 
Q 2388 397 2633 464 
Q 2878 531 3122 666 
L 3122 134 
Q 2881 22 2623 -34 
Q 2366 -91 2075 -91 
Q 1284 -91 818 406 
Q 353 903 353 1747 
Q 353 2603 823 3093 
Q 1294 3584 2113 3584 
Q 2378 3584 2631 3529 
Q 2884 3475 3122 3366 
z
" transform="scale(0.015625)"/>
      </defs>
      <use xlink:href="#DejaVuSans-53"/>
      <use xlink:href="#DejaVuSans-72" transform="translate(63.476562 0)"/>
      <use xlink:href="#DejaVuSans-63" transform="translate(102.339844 0)"/>
     </g>
    </g>
    <g id="line2d_19">
     <path d="M 37.942188 227.69625 
L 47.942188 227.69625 
L 57.942188 227.69625 
" style="fill: none; stroke: #377eb8; stroke-width: 2; stroke-linecap: square"/>
    </g>
    <g id="text_18">
     <!-- AMP -->
     <g style="fill: #7f7f7f" transform="translate(65.942188 231.19625) scale(0.1 -0.1)">
      <defs>
       <path id="DejaVuSans-41" d="M 2188 4044 
L 1331 1722 
L 3047 1722 
L 2188 4044 
z
M 1831 4666 
L 2547 4666 
L 4325 0 
L 3669 0 
L 3244 1197 
L 1141 1197 
L 716 0 
L 50 0 
L 1831 4666 
z
" transform="scale(0.015625)"/>
       <path id="DejaVuSans-4d" d="M 628 4666 
L 1569 4666 
L 2759 1491 
L 3956 4666 
L 4897 4666 
L 4897 0 
L 4281 0 
L 4281 4097 
L 3078 897 
L 2444 897 
L 1241 4097 
L 1241 0 
L 628 0 
L 628 4666 
z
" transform="scale(0.015625)"/>
       <path id="DejaVuSans-50" d="M 1259 4147 
L 1259 2394 
L 2053 2394 
Q 2494 2394 2734 2622 
Q 2975 2850 2975 3272 
Q 2975 3691 2734 3919 
Q 2494 4147 2053 4147 
L 1259 4147 
z
M 628 4666 
L 2053 4666 
Q 2838 4666 3239 4311 
Q 3641 3956 3641 3272 
Q 3641 2581 3239 2228 
Q 2838 1875 2053 1875 
L 1259 1875 
L 1259 0 
L 628 0 
L 628 4666 
z
" transform="scale(0.015625)"/>
      </defs>
      <use xlink:href="#DejaVuSans-41"/>
      <use xlink:href="#DejaVuSans-4d" transform="translate(68.408203 0)"/>
      <use xlink:href="#DejaVuSans-50" transform="translate(154.6875 0)"/>
     </g>
    </g>
   </g>
  </g>
 </g>
 <defs>
  <clipPath id="p703cad095f">
   <rect x="28.942188" y="7.2" width="532.657812" height="235.075937"/>
  </clipPath>
 </defs>
</svg>
