<?xml version="1.0" encoding="utf-8" standalone="no"?>
<!DOCTYPE svg PUBLIC "-//W3C//DTD SVG 1.1//EN"
  "http://www.w3.org/Graphics/SVG/1.1/DTD/svg11.dtd">
<svg xmlns:xlink="http://www.w3.org/1999/xlink" width="568.8pt" height="280.8pt" viewBox="0 0 568.8 280.8" xmlns="http://www.w3.org/2000/svg" version="1.1">
 <metadata>
  <rdf:RDF xmlns:dc="http://purl.org/dc/elements/1.1/" xmlns:cc="http://creativecommons.org/ns#" xmlns:rdf="http://www.w3.org/1999/02/22-rdf-syntax-ns#">
   <cc:Work>
    <dc:type rdf:resource="http://purl.org/dc/dcmitype/StillImage"/>
    <dc:date>2026-07-06T15:30:35.393984</dc:date>
    <dc:format>image/svg+xml</dc:format>
    <dc:creator>
     <cc:Agent>
      <dc:title>Matplotlib v3.11.0, https://matplotlib.org/</dc:title>
     </cc:Agent>
    </dc:creator>
   </cc:Work>
  </rdf:RDF>
 </metadata>
 <defs>
  <style type="text/css">*{stroke-linejoin: round; stroke-linecap: butt}</style>
 </defs>
 <g id="figure_1">
  <g id="patch_1">
   <path d="M 0 280.8 
L 568.8 280.8 
L 568.8 0 
L 0 0 
L 0 280.8 
z
" style="fill: none"/>
  </g>
  <g id="axes_1">
   <g id="patch_2">
    <path d="M 28.942188 241.599141 
L 561.6 241.599141 
L 561.6 7.2 
L 28.942188 7.2 
L 28.942188 241.599141 
z
" style="fill: none"/>
   </g>
   <g id="matplotlib.axis_1">
    <g id="xtick_1">
     <g id="line2d_1">
      <defs>
       <path id="m3b4c4c09e4" d="M 0 0 
L 0 3.5 
" style="stroke: #7f7f7f; stroke-width: 1.8"/>
      </defs>
      <g>
       <use xlink:href="#m3b4c4c09e4" x="53.153906" y="241.599141" style="fill: #7f7f7f; stroke: #7f7f7f; stroke-width: 1.8"/>
      </g>
     </g>
     <g id="text_1">
      <!-- 0.00000 -->
      <g style="fill: #7f7f7f" transform="translate(32.477344 256.196797) scale(0.1 -0.1)">
       <defs>
        <path id="DejaVuSans-13" d="M 2034 4250 
Q 1547 4250 1301 3770 
Q 1056 3291 1056 2328 
Q 1056 1369 1301 889 
Q 1547 409 2034 409 
Q 2525 409 2770 889 
Q 3016 1369 3016 2328 
Q 3016 3291 2770 3770 
Q 2525 4250 2034 4250 
z
M 2034 4750 
Q 2819 4750 3233 4129 
Q 3647 3509 3647 2328 
Q 3647 1150 3233 529 
Q 2819 -91 2034 -91 
Q 1250 -91 836 529 
Q 422 1150 422 2328 
Q 422 3509 836 4129 
Q 1250 4750 2034 4750 
z
" transform="scale(0.015625)"/>
        <path id="DejaVuSans-11" d="M 684 794 
L 1344 794 
L 1344 0 
L 684 0 
L 684 794 
z
" transform="scale(0.015625)"/>
       </defs>
       <use xlink:href="#DejaVuSans-13"/>
       <use xlink:href="#DejaVuSans-11" transform="translate(63.625 0)"/>
       <use xlink:href="#DejaVuSans-13" transform="translate(95.40625 0)"/>
       <use xlink:href="#DejaVuSans-13" transform="translate(159.03125 0)"/>
       <use xlink:href="#DejaVuSans-13" transform="translate(222.65625 0)"/>
       <use xlink:href="#DejaVuSans-13" transform="translate(286.28125 0)"/>
       <use xlink:href="#DejaVuSans-13" transform="translate(349.90625 0)"/>
      </g>
     </g>
    </g>
    <g id="xtick_2">
     <g id="line2d_2">
      <g>
       <use xlink:href="#m3b4c4c09e4" x="149.981416" y="241.599141" style="fill: #7f7f7f; stroke: #7f7f7f; stroke-width: 1.8"/>
      </g>
     </g>
     <g id="text_2">
      <!-- 0.00002 -->
      <g style="fill: #7f7f7f" transform="translate(129.304853 256.196797) scale(0.1 -0.1)">
       <defs>
        <path id="DejaVuSans-15" d="M 1228 531 
L 3431 531 
L 3431 0 
L 469 0 
L 469 531 
Q 828 903 1448 1529 
Q 2069 2156 2228 2338 
Q 2531 2678 2651 2914 
Q 2772 3150 2772 3378 
Q 2772 3750 2511 3984 
Q 2250 4219 1831 4219 
Q 1534 4219 1204 4116 
Q 875 4013 500 3803 
L 500 4441 
Q 881 4594 1212 4672 
Q 1544 4750 1819 4750 
Q 2544 4750 2975 4387 
Q 3406 4025 3406 3419 
Q 3406 3131 3298 2873 
Q 3191 2616 2906 2266 
Q 2828 2175 2409 1742 
Q 1991 1309 1228 531 
z
" transform="scale(0.015625)"/>
       </defs>
       <use xlink:href="#DejaVuSans-13"/>
       <use xlink:href="#DejaVuSans-11" transform="translate(63.625 0)"/>
       <use xlink:href="#DejaVuSans-13" transform="translate(95.40625 0)"/>
       <use xlink:href="#DejaVuSans-13" transform="translate(159.03125 0)"/>
       <use xlink:href="#DejaVuSans-13" transform="translate(222.65625 0)"/>
       <use xlink:href="#DejaVuSans-13" transform="translate(286.28125 0)"/>
       <use xlink:href="#DejaVuSans-15" transform="translate(349.90625 0)"/>
      </g>
     </g>
    </g>
    <g id="xtick_3">
     <g id="line2d_3">
      <g>
       <use xlink:href="#m3b4c4c09e4" x="246.808925" y="241.599141" style="fill: #7f7f7f; stroke: #7f7f7f; stroke-width: 1.8"/>
      </g>
     </g>
     <g id="text_3">
      <!-- 0.00004 -->
      <g style="fill: #7f7f7f" transform="translate(226.132363 256.196797) scale(0.1 -0.1)">
       <defs>
        <path id="DejaVuSans-17" d="M 2419 4116 
L 825 1625 
L 2419 1625 
L 2419 4116 
z
M 2253 4666 
L 3047 4666 
L 3047 1625 
L 3713 1625 
L 3713 1100 
L 3047 1100 
L 3047 0 
L 2419 0 
L 2419 1100 
L 313 1100 
L 313 1709 
L 2253 4666 
z
" transform="scale(0.015625)"/>
       </defs>
       <use xlink:href="#DejaVuSans-13"/>
       <use xlink:href="#DejaVuSans-11" transform="translate(63.625 0)"/>
       <use xlink:href="#DejaVuSans-13" transform="translate(95.40625 0)"/>
       <use xlink:href="#DejaVuSans-13" transform="translate(159.03125 0)"/>
       <use xlink:href="#DejaVuSans-13" transform="translate(222.65625 0)"/>
       <use xlink:href="#DejaVuSans-13" transform="translate(286.28125 0)"/>
       <use xlink:href="#DejaVuSans-17" transform="translate(349.90625 0)"/>
      </g>
     </g>
    </g>
    <g id="xtick_4">
     <g id="line2d_4">
      <g>
       <use xlink:href="#m3b4c4c09e4" x="343.636435" y="241.599141" style="fill: #7f7f7f; stroke: #7f7f7f; stroke-width: 1.8"/>
      </g>
     </g>
     <g id="text_4">
      <!-- 0.00006 -->
      <g style="fill: #7f7f7f" transform="translate(322.959872 256.196797) scale(0.1 -0.1)">
       <defs>
        <path id="DejaVuSans-19" d="M 2113 2584 
Q 1688 2584 1439 2293 
Q 1191 2003 1191 1497 
Q 1191 994 1439 701 
Q 1688 409 2113 409 
Q 2538 409 2786 701 
Q 3034 994 3034 1497 
Q 3034 2003 2786 2293 
Q 2538 2584 2113 2584 
z
M 3366 4563 
L 3366 3988 
Q 3128 4100 2886 4159 
Q 2644 4219 2406 4219 
Q 1781 4219 1451 3797 
Q 1122 3375 1075 2522 
Q 1259 2794 1537 2939 
Q 1816 3084 2150 3084 
Q 2853 3084 3261 2657 
Q 3669 2231 3669 1497 
Q 3669 778 3244 343 
Q 2819 -91 2113 -91 
Q 1303 -91 875 529 
Q 447 1150 447 2328 
Q 447 3434 972 4092 
Q 1497 4750 2381 4750 
Q 2619 4750 2861 4703 
Q 3103 4656 3366 4563 
z
" transform="scale(0.015625)"/>
       </defs>
       <use xlink:href="#DejaVuSans-13"/>
       <use xlink:href="#DejaVuSans-11" transform="translate(63.625 0)"/>
       <use xlink:href="#DejaVuSans-13" transform="translate(95.40625 0)"/>
       <use xlink:href="#DejaVuSans-13" transform="translate(159.03125 0)"/>
       <use xlink:href="#DejaVuSans-13" transform="translate(222.65625 0)"/>
       <use xlink:href="#DejaVuSans-13" transform="translate(286.28125 0)"/>
       <use xlink:href="#DejaVuSans-19" transform="translate(349.90625 0)"/>
      </g>
     </g>
    </g>
    <g id="xtick_5">
     <g id="line2d_5">
      <g>
       <use xlink:href="#m3b4c4c09e4" x="440.463944" y="241.599141" style="fill: #7f7f7f; stroke: #7f7f7f; stroke-width: 1.8"/>
      </g>
     </g>
     <g id="text_5">
      <!-- 0.00008 -->
      <g style="fill: #7f7f7f" transform="translate(419.787382 256.196797) scale(0.1 -0.1)">
       <defs>
        <path id="DejaVuSans-1b" d="M 2034 2216 
Q 1584 2216 1326 1975 
Q 1069 1734 1069 1313 
Q 1069 891 1326 650 
Q 1584 409 2034 409 
Q 2484 409 2743 651 
Q 3003 894 3003 1313 
Q 3003 1734 2745 1975 
Q 2488 2216 2034 2216 
z
M 1403 2484 
Q 997 2584 770 2862 
Q 544 3141 544 3541 
Q 544 4100 942 4425 
Q 1341 4750 2034 4750 
Q 2731 4750 3128 4425 
Q 3525 4100 3525 3541 
Q 3525 3141 3298 2862 
Q 3072 2584 2669 2484 
Q 3125 2378 3379 2068 
Q 3634 1759 3634 1313 
Q 3634 634 3220 271 
Q 2806 -91 2034 -91 
Q 1263 -91 848 271 
Q 434 634 434 1313 
Q 434 1759 690 2068 
Q 947 2378 1403 2484 
z
M 1172 3481 
Q 1172 3119 1398 2916 
Q 1625 2713 2034 2713 
Q 2441 2713 2670 2916 
Q 2900 3119 2900 3481 
Q 2900 3844 2670 4047 
Q 2441 4250 2034 4250 
Q 1625 4250 1398 4047 
Q 1172 3844 1172 3481 
z
" transform="scale(0.015625)"/>
       </defs>
       <use xlink:href="#DejaVuSans-13"/>
       <use xlink:href="#DejaVuSans-11" transform="translate(63.625 0)"/>
       <use xlink:href="#DejaVuSans-13" transform="translate(95.40625 0)"/>
       <use xlink:href="#DejaVuSans-13" transform="translate(159.03125 0)"/>
       <use xlink:href="#DejaVuSans-13" transform="translate(222.65625 0)"/>
       <use xlink:href="#DejaVuSans-13" transform="translate(286.28125 0)"/>
       <use xlink:href="#DejaVuSans-1b" transform="translate(349.90625 0)"/>
      </g>
     </g>
    </g>
    <g id="xtick_6">
     <g id="line2d_6">
      <g>
       <use xlink:href="#m3b4c4c09e4" x="537.291454" y="241.599141" style="fill: #7f7f7f; stroke: #7f7f7f; stroke-width: 1.8"/>
      </g>
     </g>
     <g id="text_6">
      <!-- 0.00010 -->
      <g style="fill: #7f7f7f" transform="translate(516.614891 256.196797) scale(0.1 -0.1)">
       <defs>
        <path id="DejaVuSans-14" d="M 794 531 
L 1825 531 
L 1825 4091 
L 703 3866 
L 703 4441 
L 1819 4666 
L 2450 4666 
L 2450 531 
L 3481 531 
L 3481 0 
L 794 0 
L 794 531 
z
" transform="scale(0.015625)"/>
       </defs>
       <use xlink:href="#DejaVuSans-13"/>
       <use xlink:href="#DejaVuSans-11" transform="translate(63.625 0)"/>
       <use xlink:href="#DejaVuSans-13" transform="translate(95.40625 0)"/>
       <use xlink:href="#DejaVuSans-13" transform="translate(159.03125 0)"/>
       <use xlink:href="#DejaVuSans-13" transform="translate(222.65625 0)"/>
       <use xlink:href="#DejaVuSans-14" transform="translate(286.28125 0)"/>
       <use xlink:href="#DejaVuSans-13" transform="translate(349.90625 0)"/>
      </g>
     </g>
    </g>
    <g id="text_7">
     <!-- time [s] -->
     <g style="fill: #7f7f7f" transform="translate(273.940547 270.957422) scale(0.11 -0.11)">
      <defs>
       <path id="DejaVuSans-57" d="M 1172 4494 
L 1172 3500 
L 2356 3500 
L 2356 3053 
L 1172 3053 
L 1172 1153 
Q 1172 725 1289 603 
Q 1406 481 1766 481 
L 2356 481 
L 2356 0 
L 1766 0 
Q 1100 0 847 248 
Q 594 497 594 1153 
L 594 3053 
L 172 3053 
L 172 3500 
L 594 3500 
L 594 4494 
L 1172 4494 
z
" transform="scale(0.015625)"/>
       <path id="DejaVuSans-4c" d="M 603 3500 
L 1178 3500 
L 1178 0 
L 603 0 
L 603 3500 
z
M 603 4863 
L 1178 4863 
L 1178 4134 
L 603 4134 
L 603 4863 
z
" transform="scale(0.015625)"/>
       <path id="DejaVuSans-50" d="M 3328 2828 
Q 3544 3216 3844 3400 
Q 4144 3584 4550 3584 
Q 5097 3584 5394 3201 
Q 5691 2819 5691 2113 
L 5691 0 
L 5113 0 
L 5113 2094 
Q 5113 2597 4934 2840 
Q 4756 3084 4391 3084 
Q 3944 3084 3684 2787 
Q 3425 2491 3425 1978 
L 3425 0 
L 2847 0 
L 2847 2094 
Q 2847 2600 2669 2842 
Q 2491 3084 2119 3084 
Q 1678 3084 1418 2786 
Q 1159 2488 1159 1978 
L 1159 0 
L 581 0 
L 581 3500 
L 1159 3500 
L 1159 2956 
Q 1356 3278 1631 3431 
Q 1906 3584 2284 3584 
Q 2666 3584 2933 3390 
Q 3200 3197 3328 2828 
z
" transform="scale(0.015625)"/>
       <path id="DejaVuSans-48" d="M 3597 1894 
L 3597 1613 
L 953 1613 
Q 991 1019 1311 708 
Q 1631 397 2203 397 
Q 2534 397 2845 478 
Q 3156 559 3463 722 
L 3463 178 
Q 3153 47 2828 -22 
Q 2503 -91 2169 -91 
Q 1331 -91 842 396 
Q 353 884 353 1716 
Q 353 2575 817 3079 
Q 1281 3584 2069 3584 
Q 2775 3584 3186 3129 
Q 3597 2675 3597 1894 
z
M 3022 2063 
Q 3016 2534 2758 2815 
Q 2500 3097 2075 3097 
Q 1594 3097 1305 2825 
Q 1016 2553 972 2059 
L 3022 2063 
z
" transform="scale(0.015625)"/>
       <path id="DejaVuSans-3" transform="scale(0.015625)"/>
       <path id="DejaVuSans-3e" d="M 550 4863 
L 1875 4863 
L 1875 4416 
L 1125 4416 
L 1125 -397 
L 1875 -397 
L 1875 -844 
L 550 -844 
L 550 4863 
z
" transform="scale(0.015625)"/>
       <path id="DejaVuSans-56" d="M 2834 3397 
L 2834 2853 
Q 2591 2978 2328 3040 
Q 2066 3103 1784 3103 
Q 1356 3103 1142 2972 
Q 928 2841 928 2578 
Q 928 2378 1081 2264 
Q 1234 2150 1697 2047 
L 1894 2003 
Q 2506 1872 2764 1633 
Q 3022 1394 3022 966 
Q 3022 478 2636 193 
Q 2250 -91 1575 -91 
Q 1294 -91 989 -36 
Q 684 19 347 128 
L 347 722 
Q 666 556 975 473 
Q 1284 391 1588 391 
Q 1994 391 2212 530 
Q 2431 669 2431 922 
Q 2431 1156 2273 1281 
Q 2116 1406 1581 1522 
L 1381 1569 
Q 847 1681 609 1914 
Q 372 2147 372 2553 
Q 372 3047 722 3315 
Q 1072 3584 1716 3584 
Q 2034 3584 2315 3537 
Q 2597 3491 2834 3397 
z
" transform="scale(0.015625)"/>
       <path id="DejaVuSans-40" d="M 1947 4863 
L 1947 -844 
L 622 -844 
L 622 -397 
L 1369 -397 
L 1369 4416 
L 622 4416 
L 622 4863 
L 1947 4863 
z
" transform="scale(0.015625)"/>
      </defs>
      <use xlink:href="#DejaVuSans-57"/>
      <use xlink:href="#DejaVuSans-4c" transform="translate(39.203125 0)"/>
      <use xlink:href="#DejaVuSans-50" transform="translate(66.984375 0)"/>
      <use xlink:href="#DejaVuSans-48" transform="translate(164.390625 0)"/>
      <use xlink:href="#DejaVuSans-3" transform="translate(225.921875 0)"/>
      <use xlink:href="#DejaVuSans-3e" transform="translate(257.703125 0)"/>
      <use xlink:href="#DejaVuSans-56" transform="translate(296.71875 0)"/>
      <use xlink:href="#DejaVuSans-40" transform="translate(348.8125 0)"/>
     </g>
    </g>
   </g>
   <g id="matplotlib.axis_2">
    <g id="ytick_1">
     <g id="line2d_7">
      <defs>
       <path id="m5b6e7daa2e" d="M 0 0 
L -3.5 0 
" style="stroke: #7f7f7f; stroke-width: 1.8"/>
      </defs>
      <g>
       <use xlink:href="#m5b6e7daa2e" x="28.942188" y="232.728231" style="fill: #7f7f7f; stroke: #7f7f7f; stroke-width: 1.8"/>
      </g>
     </g>
     <g id="text_8">
      <!-- −8 -->
      <g style="fill: #7f7f7f" transform="translate(7.2 236.527059) scale(0.1 -0.1)">
       <defs>
        <path id="DejaVuSans-c9c" d="M 678 2272 
L 4684 2272 
L 4684 1741 
L 678 1741 
L 678 2272 
z
" transform="scale(0.015625)"/>
       </defs>
       <use xlink:href="#DejaVuSans-c9c"/>
       <use xlink:href="#DejaVuSans-1b" transform="translate(83.796875 0)"/>
      </g>
     </g>
    </g>
    <g id="ytick_2">
     <g id="line2d_8">
      <g>
       <use xlink:href="#m5b6e7daa2e" x="28.942188" y="206.16242" style="fill: #7f7f7f; stroke: #7f7f7f; stroke-width: 1.8"/>
      </g>
     </g>
     <g id="text_9">
      <!-- −6 -->
      <g style="fill: #7f7f7f" transform="translate(7.2 209.961248) scale(0.1 -0.1)">
       <use xlink:href="#DejaVuSans-c9c"/>
       <use xlink:href="#DejaVuSans-19" transform="translate(83.796875 0)"/>
      </g>
     </g>
    </g>
    <g id="ytick_3">
     <g id="line2d_9">
      <g>
       <use xlink:href="#m5b6e7daa2e" x="28.942188" y="179.596609" style="fill: #7f7f7f; stroke: #7f7f7f; stroke-width: 1.8"/>
      </g>
     </g>
     <g id="text_10">
      <!-- −4 -->
      <g style="fill: #7f7f7f" transform="translate(7.2 183.395437) scale(0.1 -0.1)">
       <use xlink:href="#DejaVuSans-c9c"/>
       <use xlink:href="#DejaVuSans-17" transform="translate(83.796875 0)"/>
      </g>
     </g>
    </g>
    <g id="ytick_4">
     <g id="line2d_10">
      <g>
       <use xlink:href="#m5b6e7daa2e" x="28.942188" y="153.030798" style="fill: #7f7f7f; stroke: #7f7f7f; stroke-width: 1.8"/>
      </g>
     </g>
     <g id="text_11">
      <!-- −2 -->
      <g style="fill: #7f7f7f" transform="translate(7.2 156.829626) scale(0.1 -0.1)">
       <use xlink:href="#DejaVuSans-c9c"/>
       <use xlink:href="#DejaVuSans-15" transform="translate(83.796875 0)"/>
      </g>
     </g>
    </g>
    <g id="ytick_5">
     <g id="line2d_11">
      <g>
       <use xlink:href="#m5b6e7daa2e" x="28.942188" y="126.464987" style="fill: #7f7f7f; stroke: #7f7f7f; stroke-width: 1.8"/>
      </g>
     </g>
     <g id="text_12">
      <!-- 0 -->
      <g style="fill: #7f7f7f" transform="translate(15.579688 130.263815) scale(0.1 -0.1)">
       <use xlink:href="#DejaVuSans-13"/>
      </g>
     </g>
    </g>
    <g id="ytick_6">
     <g id="line2d_12">
      <g>
       <use xlink:href="#m5b6e7daa2e" x="28.942188" y="99.899176" style="fill: #7f7f7f; stroke: #7f7f7f; stroke-width: 1.8"/>
      </g>
     </g>
     <g id="text_13">
      <!-- 2 -->
      <g style="fill: #7f7f7f" transform="translate(15.579688 103.698004) scale(0.1 -0.1)">
       <use xlink:href="#DejaVuSans-15"/>
      </g>
     </g>
    </g>
    <g id="ytick_7">
     <g id="line2d_13">
      <g>
       <use xlink:href="#m5b6e7daa2e" x="28.942188" y="73.333365" style="fill: #7f7f7f; stroke: #7f7f7f; stroke-width: 1.8"/>
      </g>
     </g>
     <g id="text_14">
      <!-- 4 -->
      <g style="fill: #7f7f7f" transform="translate(15.579688 77.132193) scale(0.1 -0.1)">
       <use xlink:href="#DejaVuSans-17"/>
      </g>
     </g>
    </g>
    <g id="ytick_8">
     <g id="line2d_14">
      <g>
       <use xlink:href="#m5b6e7daa2e" x="28.942188" y="46.767554" style="fill: #7f7f7f; stroke: #7f7f7f; stroke-width: 1.8"/>
      </g>
     </g>
     <g id="text_15">
      <!-- 6 -->
      <g style="fill: #7f7f7f" transform="translate(15.579688 50.566382) scale(0.1 -0.1)">
       <use xlink:href="#DejaVuSans-19"/>
      </g>
     </g>
    </g>
    <g id="ytick_9">
     <g id="line2d_15">
      <g>
       <use xlink:href="#m5b6e7daa2e" x="28.942188" y="20.201743" style="fill: #7f7f7f; stroke: #7f7f7f; stroke-width: 1.8"/>
      </g>
     </g>
     <g id="text_16">
      <!-- 8 -->
      <g style="fill: #7f7f7f" transform="translate(15.579688 24.000571) scale(0.1 -0.1)">
       <use xlink:href="#DejaVuSans-1b"/>
      </g>
     </g>
    </g>
   </g>
   <g id="line2d_16">
    <path d="M 53.153906 126.464987 
L 57.656385 114.241634 
L 59.544522 113.233438 
L 61.142176 114.825088 
L 63.611277 120.960875 
L 70.437617 139.409535 
L 72.035271 139.512615 
L 73.778166 137.112125 
L 76.682991 128.789801 
L 82.056918 113.995874 
L 83.945054 113.308781 
L 85.542708 115.161307 
L 88.157051 122.044176 
L 94.402425 139.196941 
L 96.14532 139.571043 
L 97.888216 137.308344 
L 100.793041 129.117715 
L 106.312209 113.939333 
L 108.200345 113.332819 
L 109.797999 115.249859 
L 112.412342 122.201923 
L 118.512475 139.09778 
L 120.25537 139.621192 
L 121.853024 137.768666 
L 124.467367 130.885797 
L 130.712741 113.733032 
L 132.455637 113.358931 
L 134.198532 115.62163 
L 137.103357 123.812258 
L 142.622525 138.990641 
L 144.510661 139.597154 
L 146.108315 137.680115 
L 148.722658 130.72805 
L 154.822791 113.832193 
L 156.565686 113.308781 
L 158.16334 115.161307 
L 160.777683 122.044176 
L 167.023057 139.196941 
L 168.765953 139.571043 
L 170.508848 137.308344 
L 173.413673 129.117715 
L 178.932841 113.939333 
L 180.820978 113.332819 
L 182.418631 115.249859 
L 185.032974 122.201923 
L 191.133107 139.09778 
L 192.876002 139.621192 
L 194.473656 137.768666 
L 197.087999 130.885797 
L 203.333373 113.733032 
L 205.076269 113.358931 
L 206.819164 115.62163 
L 209.723989 123.812258 
L 215.243157 138.990641 
L 217.131294 139.597154 
L 218.728947 137.680115 
L 221.34329 130.72805 
L 227.443423 113.832193 
L 229.186319 113.308781 
L 230.783972 115.161307 
L 233.398315 122.044176 
L 239.64369 139.196941 
L 241.386585 139.571043 
L 243.12948 137.308344 
L 246.034305 129.117715 
L 251.553473 113.939333 
L 253.44161 113.332819 
L 255.039264 115.249859 
L 257.653606 122.201923 
L 263.753739 139.09778 
L 265.496635 139.621192 
L 267.094288 137.768666 
L 269.708631 130.885797 
L 275.954006 113.733032 
L 277.696901 113.358931 
L 279.439796 115.62163 
L 282.344621 123.812258 
L 287.863789 138.990641 
L 289.751926 139.597154 
L 291.34958 137.680115 
L 293.963922 130.72805 
L 300.064055 113.832193 
L 301.806951 113.308781 
L 303.404605 115.161307 
L 306.018947 122.044176 
L 312.264322 139.196941 
L 314.007217 139.571043 
L 315.750112 137.308344 
L 318.654937 129.117715 
L 324.174105 113.939333 
L 326.062242 113.332819 
L 327.659896 115.249859 
L 330.274238 122.201923 
L 336.374372 139.09778 
L 338.117267 139.621192 
L 339.714921 137.768666 
L 342.329263 130.885797 
L 348.574638 113.733032 
L 350.317533 113.358931 
L 352.060428 115.62163 
L 354.965253 123.812258 
L 360.484421 138.990641 
L 362.372558 139.597154 
L 363.970212 137.680115 
L 366.584554 130.72805 
L 372.684688 113.832193 
L 374.427583 113.308781 
L 376.025237 115.161307 
L 378.639579 122.044176 
L 384.884954 139.196941 
L 386.627849 139.571043 
L 388.370744 137.308344 
L 391.275569 129.117715 
L 396.794737 113.939333 
L 398.682874 113.332819 
L 400.280528 115.249859 
L 402.894871 122.201923 
L 408.995004 139.09778 
L 410.737899 139.621192 
L 412.335553 137.768666 
L 414.949895 130.885797 
L 421.19527 113.733032 
L 422.938165 113.358931 
L 424.68106 115.62163 
L 427.585885 123.812258 
L 433.105054 138.990641 
L 434.99319 139.597154 
L 436.590844 137.680115 
L 439.205187 130.72805 
L 445.30532 113.832193 
L 447.048215 113.308781 
L 448.645869 115.161307 
L 451.260212 122.044176 
L 457.505586 139.196941 
L 459.248481 139.571043 
L 460.991376 137.308344 
L 463.896202 129.117715 
L 469.41537 113.939333 
L 471.303506 113.332819 
L 472.90116 115.249859 
L 475.515503 122.201923 
L 481.615636 139.09778 
L 483.358531 139.621192 
L 484.956185 137.768666 
L 487.570528 130.885797 
L 493.815902 113.733032 
L 495.558797 113.358931 
L 497.301692 115.62163 
L 500.206518 123.812258 
L 505.725686 138.990641 
L 507.613822 139.597154 
L 509.211476 137.680115 
L 511.825819 130.72805 
L 517.925952 113.832193 
L 519.668847 113.308781 
L 521.266501 115.161307 
L 523.880844 122.044176 
L 530.126218 139.196941 
L 531.869113 139.571043 
L 533.612008 137.308344 
L 536.516834 129.117715 
L 537.388281 126.131186 
L 537.388281 126.131186 
" clip-path="url(#pef0d66f590)" style="fill: none; stroke: #e41a1c; stroke-width: 2; stroke-linecap: square"/>
   </g>
   <g id="line2d_17">
    <path d="M 53.153906 126.464987 
L 53.58963 122.714469 
L 59.835004 25.22489 
L 60.125487 25.600975 
L 61.5779 28.250562 
L 62.885071 40.968308 
L 65.935138 103.954743 
L 68.839963 194.302864 
L 71.309064 227.172653 
L 71.599547 227.992687 
L 72.035271 226.546519 
L 72.325753 225.438468 
L 75.230578 192.905629 
L 82.637883 24.635345 
L 83.218848 27.541377 
L 83.50933 28.02786 
L 84.090296 27.489627 
L 85.687949 24.375106 
L 85.833191 24.980693 
L 86.995121 37.096938 
L 90.045187 98.55129 
L 94.692908 217.787656 
L 96.000079 221.592995 
L 97.597733 223.164834 
L 97.888216 221.87963 
L 98.759663 211.764602 
L 102.245454 150.01769 
L 106.893174 32.420206 
L 108.78131 22.176835 
L 109.362276 23.376438 
L 112.12186 54.201996 
L 117.93151 201.696857 
L 119.529164 225.308568 
L 119.819647 223.651082 
L 120.110129 222.829769 
L 120.691094 223.806797 
L 120.836335 224.05005 
L 121.126818 222.672619 
L 125.048332 176.781977 
L 131.72943 22.086726 
L 132.019913 21.575522 
L 132.455637 23.103228 
L 136.086668 46.405718 
L 137.684322 88.19138 
L 142.477284 207.96569 
L 144.510661 227.383608 
L 145.091627 225.422319 
L 147.560728 210.846662 
L 149.448864 181.026099 
L 155.984721 29.514532 
L 158.018099 21.262712 
L 158.453823 24.493873 
L 161.503889 79.201916 
L 167.31354 218.343782 
L 169.056435 226.567796 
L 169.346918 226.247554 
L 171.525537 210.111341 
L 172.687467 190.993638 
L 176.173257 109.028982 
L 180.675736 28.608044 
L 181.692425 25.94843 
L 181.982908 26.89593 
L 185.613939 69.133755 
L 186.921111 114.194439 
L 190.552142 208.159259 
L 192.730761 223.394926 
L 193.892691 227.039305 
L 194.328415 224.973784 
L 195.635586 214.250801 
L 198.540412 151.843339 
L 201.154755 87.09799 
L 204.931027 27.566608 
L 205.366751 26.904315 
L 205.657234 27.920137 
L 209.723989 61.619878 
L 216.986052 226.751445 
L 218.293224 228.308052 
L 218.583706 228.293603 
L 218.728947 227.651194 
L 220.471843 213.779921 
L 224.683839 106.340203 
L 227.733906 34.374206 
L 229.476801 21.821147 
L 229.767284 22.170879 
L 230.49349 24.942571 
L 232.962591 46.559979 
L 234.850728 85.218761 
L 237.755553 188.731562 
L 240.660378 224.880345 
L 242.112791 230.650803 
L 242.403274 229.199015 
L 246.324788 186.442322 
L 247.922442 127.0117 
L 250.391543 56.423122 
L 251.408232 40.687234 
L 253.586851 23.360976 
L 254.313057 23.682797 
L 255.620229 31.474472 
L 257.072641 44.418642 
L 258.379813 73.476674 
L 264.334704 220.340714 
L 265.496635 228.011583 
L 265.932358 226.656813 
L 266.803806 220.575273 
L 270.72532 177.29241 
L 272.758698 97.971213 
L 275.082558 47.016521 
L 277.115936 25.02037 
L 277.406418 24.836016 
L 277.842142 25.345103 
L 278.568348 29.711648 
L 281.763656 53.194932 
L 288.444754 220.450297 
L 289.751926 224.82516 
L 290.478132 224.878124 
L 290.623373 224.584619 
L 292.656751 215.471599 
L 294.544887 186.430401 
L 301.806951 19.887654 
L 302.533157 17.854506 
L 302.968881 19.388439 
L 304.130811 29.581516 
L 307.616601 100.076822 
L 311.538115 206.515974 
L 313.571493 230.944634 
L 313.716734 230.293962 
L 314.588182 225.958292 
L 315.169147 227.032678 
L 316.331077 223.275294 
L 317.638248 199.80385 
L 324.609829 30.440564 
L 326.497966 20.789314 
L 326.788448 20.613558 
L 326.933689 20.835675 
L 329.983756 52.781043 
L 332.598099 102.132907 
L 336.374372 207.463158 
L 337.972025 221.577201 
L 338.55299 220.60219 
L 341.167333 206.762119 
L 343.491193 154.368696 
L 349.300844 24.655056 
L 349.446085 24.450111 
L 349.881809 25.290383 
L 354.093806 40.088379 
L 355.110495 56.74375 
L 362.227317 224.100591 
L 362.953523 226.287965 
L 363.389247 225.148279 
L 365.132142 217.060033 
L 366.729796 191.858313 
L 369.779862 116.255793 
L 373.265653 31.703474 
L 373.991859 28.767742 
L 374.572824 29.553718 
L 375.29903 28.616592 
L 375.734754 29.871584 
L 376.751443 32.181307 
L 380.382475 98.699493 
L 383.142059 188.458783 
L 385.320678 221.169372 
L 386.77309 226.106439 
L 386.918331 225.94449 
L 387.644538 221.827381 
L 388.225503 217.627744 
L 388.951709 219.12039 
L 390.258881 216.159731 
L 391.420811 184.510949 
L 398.24715 27.299965 
L 398.973356 25.284349 
L 399.554321 26.498402 
L 402.168664 50.687489 
L 404.347283 106.009423 
L 407.687832 193.207652 
L 410.592658 224.894493 
L 410.737899 225.474688 
L 411.173623 223.834839 
L 415.095137 194.027819 
L 422.211959 33.523994 
L 423.51913 25.979235 
L 424.100095 27.110938 
L 424.68106 29.905483 
L 427.876368 73.692604 
L 432.088365 188.082996 
L 434.702707 224.820086 
L 436.445603 229.263721 
L 436.736085 228.444741 
L 438.188498 212.191454 
L 440.948082 155.32214 
L 443.562425 74.474763 
L 446.322009 31.823555 
L 446.757732 28.54496 
L 447.338697 30.627284 
L 451.550694 59.460519 
L 453.729313 129.648859 
L 456.634138 204.906234 
L 458.667516 220.960814 
L 460.700894 227.079957 
L 461.4271 227.923204 
L 461.572341 227.764559 
L 462.58903 207.064423 
L 469.560611 31.321795 
L 470.432058 26.7362 
L 470.867782 28.28688 
L 472.465436 30.507381 
L 473.336884 28.839081 
L 473.772608 30.77782 
L 474.934538 43.338313 
L 482.922807 223.983588 
L 484.229979 226.316156 
L 484.37522 225.803942 
L 485.682391 219.047294 
L 485.972874 219.59445 
L 486.263356 218.632674 
L 487.715769 200.538675 
L 494.832591 25.828493 
L 494.977832 25.842872 
L 496.430245 26.587307 
L 499.770794 67.88722 
L 503.692308 166.923537 
L 505.870927 218.08274 
L 506.742374 223.324497 
L 507.32334 222.78211 
L 509.066235 223.603188 
L 509.211476 222.540065 
L 512.261543 180.303919 
L 518.361676 33.687279 
L 519.814088 27.413773 
L 520.249812 27.824814 
L 520.540295 28.201373 
L 521.12126 27.355557 
L 522.137949 27.839008 
L 523.009396 42.130431 
L 525.914221 103.749649 
L 529.980977 214.565508 
L 531.869113 223.285376 
L 532.450078 224.498325 
L 532.740561 223.549281 
L 533.321526 221.754202 
L 533.75725 223.522301 
L 534.192973 222.644518 
L 535.064421 210.895543 
L 537.388281 156.011636 
L 537.388281 156.011636 
" clip-path="url(#pef0d66f590)" style="fill: none; stroke: #377eb8; stroke-width: 2; stroke-linecap: square"/>
   </g>
   <g id="patch_3">
    <path d="M 28.942188 241.599141 
L 28.942188 7.2 
" style="fill: none; stroke: #7f7f7f; stroke-width: 1.8; stroke-linejoin: miter; stroke-linecap: square"/>
   </g>
   <g id="patch_4">
    <path d="M 28.942188 241.599141 
L 561.6 241.599141 
" style="fill: none; stroke: #7f7f7f; stroke-width: 1.8; stroke-linejoin: miter; stroke-linecap: square"/>
   </g>
   <g id="legend_1">
    <g id="line2d_18">
     <path d="M 37.942188 211.696016 
L 47.942188 211.696016 
L 57.942188 211.696016 
" style="fill: none; stroke: #e41a1c; stroke-width: 2; stroke-linecap: square"/>
    </g>
    <g id="text_17">
     <!-- Src -->
     <g style="fill: #7f7f7f" transform="translate(65.942188 215.196016) scale(0.1 -0.1)">
      <defs>
       <path id="DejaVuSans-36" d="M 3425 4513 
L 3425 3897 
Q 3066 4069 2747 4153 
Q 2428 4238 2131 4238 
Q 1616 4238 1336 4038 
Q 1056 3838 1056 3469 
Q 1056 3159 1242 3001 
Q 1428 2844 1947 2747 
L 2328 2669 
Q 3034 2534 3370 2195 
Q 3706 1856 3706 1288 
Q 3706 609 3251 259 
Q 2797 -91 1919 -91 
Q 1588 -91 1214 -16 
Q 841 59 441 206 
L 441 856 
Q 825 641 1194 531 
Q 1563 422 1919 422 
Q 2459 422 2753 634 
Q 3047 847 3047 1241 
Q 3047 1584 2836 1778 
Q 2625 1972 2144 2069 
L 1759 2144 
Q 1053 2284 737 2584 
Q 422 2884 422 3419 
Q 422 4038 858 4394 
Q 1294 4750 2059 4750 
Q 2388 4750 2728 4690 
Q 3069 4631 3425 4513 
z
" transform="scale(0.015625)"/>
       <path id="DejaVuSans-55" d="M 2631 2963 
Q 2534 3019 2420 3045 
Q 2306 3072 2169 3072 
Q 1681 3072 1420 2755 
Q 1159 2438 1159 1844 
L 1159 0 
L 581 0 
L 581 3500 
L 1159 3500 
L 1159 2956 
Q 1341 3275 1631 3429 
Q 1922 3584 2338 3584 
Q 2397 3584 2469 3576 
Q 2541 3569 2628 3553 
L 2631 2963 
z
" transform="scale(0.015625)"/>
       <path id="DejaVuSans-46" d="M 3122 3366 
L 3122 2828 
Q 2878 2963 2633 3030 
Q 2388 3097 2138 3097 
Q 1578 3097 1268 2742 
Q 959 2388 959 1747 
Q 959 1106 1268 751 
Q 1578 397 2138 397 
Q 2388 397 2633 464 
Q 2878 531 3122 666 
L 3122 134 
Q 2881 22 2623 -34 
Q 2366 -91 2075 -91 
Q 1284 -91 818 406 
Q 353 903 353 1747 
Q 353 2603 823 3093 
Q 1294 3584 2113 3584 
Q 2378 3584 2631 3529 
Q 2884 3475 3122 3366 
z
" transform="scale(0.015625)"/>
      </defs>
      <use xlink:href="#DejaVuSans-36"/>
      <use xlink:href="#DejaVuSans-55" transform="translate(63.484375 0)"/>
      <use xlink:href="#DejaVuSans-46" transform="translate(102.390625 0)"/>
     </g>
    </g>
    <g id="line2d_19">
     <path d="M 37.942188 226.696797 
L 47.942188 226.696797 
L 57.942188 226.696797 
" style="fill: none; stroke: #377eb8; stroke-width: 2; stroke-linecap: square"/>
    </g>
    <g id="text_18">
     <!-- AMP -->
     <g style="fill: #7f7f7f" transform="translate(65.942188 230.196797) scale(0.1 -0.1)">
      <defs>
       <path id="DejaVuSans-24" d="M 2188 4044 
L 1331 1722 
L 3047 1722 
L 2188 4044 
z
M 1831 4666 
L 2547 4666 
L 4325 0 
L 3669 0 
L 3244 1197 
L 1141 1197 
L 716 0 
L 50 0 
L 1831 4666 
z
" transform="scale(0.015625)"/>
       <path id="DejaVuSans-30" d="M 628 4666 
L 1569 4666 
L 2759 1491 
L 3956 4666 
L 4897 4666 
L 4897 0 
L 4281 0 
L 4281 4097 
L 3078 897 
L 2444 897 
L 1241 4097 
L 1241 0 
L 628 0 
L 628 4666 
z
" transform="scale(0.015625)"/>
       <path id="DejaVuSans-33" d="M 1259 4147 
L 1259 2394 
L 2053 2394 
Q 2494 2394 2734 2622 
Q 2975 2850 2975 3272 
Q 2975 3691 2734 3919 
Q 2494 4147 2053 4147 
L 1259 4147 
z
M 628 4666 
L 2053 4666 
Q 2838 4666 3239 4311 
Q 3641 3956 3641 3272 
Q 3641 2581 3239 2228 
Q 2838 1875 2053 1875 
L 1259 1875 
L 1259 0 
L 628 0 
L 628 4666 
z
" transform="scale(0.015625)"/>
      </defs>
      <use xlink:href="#DejaVuSans-24"/>
      <use xlink:href="#DejaVuSans-30" transform="translate(68.40625 0)"/>
      <use xlink:href="#DejaVuSans-33" transform="translate(154.6875 0)"/>
     </g>
    </g>
   </g>
  </g>
 </g>
 <defs>
  <clipPath id="pef0d66f590">
   <rect x="28.942188" y="7.2" width="532.657812" height="234.399141"/>
  </clipPath>
 </defs>
</svg>
