<?xml version="1.0" encoding="utf-8" standalone="no"?>
<!DOCTYPE svg PUBLIC "-//W3C//DTD SVG 1.1//EN"
  "http://www.w3.org/Graphics/SVG/1.1/DTD/svg11.dtd">
<svg xmlns:xlink="http://www.w3.org/1999/xlink" width="568.8pt" height="280.8pt" viewBox="0 0 568.8 280.8" xmlns="http://www.w3.org/2000/svg" version="1.1">
 <metadata>
  <rdf:RDF xmlns:dc="http://purl.org/dc/elements/1.1/" xmlns:cc="http://creativecommons.org/ns#" xmlns:rdf="http://www.w3.org/1999/02/22-rdf-syntax-ns#">
   <cc:Work>
    <dc:type rdf:resource="http://purl.org/dc/dcmitype/StillImage"/>
    <dc:date>2026-07-18T13:13:29.445509</dc:date>
    <dc:format>image/svg+xml</dc:format>
    <dc:creator>
     <cc:Agent>
      <dc:title>Matplotlib v3.11.1, https://matplotlib.org/</dc:title>
     </cc:Agent>
    </dc:creator>
   </cc:Work>
  </rdf:RDF>
 </metadata>
 <defs>
  <style type="text/css">*{stroke-linejoin: round; stroke-linecap: butt}</style>
 </defs>
 <g id="figure_1">
  <g id="patch_1">
   <path d="M 0 280.8 
L 568.8 280.8 
L 568.8 0 
L 0 0 
L 0 280.8 
z
" style="fill: none"/>
  </g>
  <g id="axes_1">
   <g id="patch_2">
    <path d="M 28.942188 241.599141 
L 561.6 241.599141 
L 561.6 7.2 
L 28.942188 7.2 
L 28.942188 241.599141 
z
" style="fill: none"/>
   </g>
   <g id="matplotlib.axis_1">
    <g id="xtick_1">
     <g id="line2d_1">
      <defs>
       <path id="m5af3c3c373" d="M 0 0 
L 0 3.5 
" style="stroke: #7f7f7f; stroke-width: 1.8"/>
      </defs>
      <g>
       <use xlink:href="#m5af3c3c373" x="53.153906" y="241.599141" style="fill: #7f7f7f; stroke: #7f7f7f; stroke-width: 1.8"/>
      </g>
     </g>
     <g id="text_1">
      <!-- 0.00000 -->
      <g style="fill: #7f7f7f" transform="translate(32.477344 256.196797) scale(0.1 -0.1)">
       <defs>
        <path id="DejaVuSans-13" d="M 2034 4250 
Q 1547 4250 1301 3770 
Q 1056 3291 1056 2328 
Q 1056 1369 1301 889 
Q 1547 409 2034 409 
Q 2525 409 2770 889 
Q 3016 1369 3016 2328 
Q 3016 3291 2770 3770 
Q 2525 4250 2034 4250 
z
M 2034 4750 
Q 2819 4750 3233 4129 
Q 3647 3509 3647 2328 
Q 3647 1150 3233 529 
Q 2819 -91 2034 -91 
Q 1250 -91 836 529 
Q 422 1150 422 2328 
Q 422 3509 836 4129 
Q 1250 4750 2034 4750 
z
" transform="scale(0.015625)"/>
        <path id="DejaVuSans-11" d="M 684 794 
L 1344 794 
L 1344 0 
L 684 0 
L 684 794 
z
" transform="scale(0.015625)"/>
       </defs>
       <use xlink:href="#DejaVuSans-13"/>
       <use xlink:href="#DejaVuSans-11" transform="translate(63.625 0)"/>
       <use xlink:href="#DejaVuSans-13" transform="translate(95.40625 0)"/>
       <use xlink:href="#DejaVuSans-13" transform="translate(159.03125 0)"/>
       <use xlink:href="#DejaVuSans-13" transform="translate(222.65625 0)"/>
       <use xlink:href="#DejaVuSans-13" transform="translate(286.28125 0)"/>
       <use xlink:href="#DejaVuSans-13" transform="translate(349.90625 0)"/>
      </g>
     </g>
    </g>
    <g id="xtick_2">
     <g id="line2d_2">
      <g>
       <use xlink:href="#m5af3c3c373" x="149.981416" y="241.599141" style="fill: #7f7f7f; stroke: #7f7f7f; stroke-width: 1.8"/>
      </g>
     </g>
     <g id="text_2">
      <!-- 0.00002 -->
      <g style="fill: #7f7f7f" transform="translate(129.304853 256.196797) scale(0.1 -0.1)">
       <defs>
        <path id="DejaVuSans-15" d="M 1228 531 
L 3431 531 
L 3431 0 
L 469 0 
L 469 531 
Q 828 903 1448 1529 
Q 2069 2156 2228 2338 
Q 2531 2678 2651 2914 
Q 2772 3150 2772 3378 
Q 2772 3750 2511 3984 
Q 2250 4219 1831 4219 
Q 1534 4219 1204 4116 
Q 875 4013 500 3803 
L 500 4441 
Q 881 4594 1212 4672 
Q 1544 4750 1819 4750 
Q 2544 4750 2975 4387 
Q 3406 4025 3406 3419 
Q 3406 3131 3298 2873 
Q 3191 2616 2906 2266 
Q 2828 2175 2409 1742 
Q 1991 1309 1228 531 
z
" transform="scale(0.015625)"/>
       </defs>
       <use xlink:href="#DejaVuSans-13"/>
       <use xlink:href="#DejaVuSans-11" transform="translate(63.625 0)"/>
       <use xlink:href="#DejaVuSans-13" transform="translate(95.40625 0)"/>
       <use xlink:href="#DejaVuSans-13" transform="translate(159.03125 0)"/>
       <use xlink:href="#DejaVuSans-13" transform="translate(222.65625 0)"/>
       <use xlink:href="#DejaVuSans-13" transform="translate(286.28125 0)"/>
       <use xlink:href="#DejaVuSans-15" transform="translate(349.90625 0)"/>
      </g>
     </g>
    </g>
    <g id="xtick_3">
     <g id="line2d_3">
      <g>
       <use xlink:href="#m5af3c3c373" x="246.808925" y="241.599141" style="fill: #7f7f7f; stroke: #7f7f7f; stroke-width: 1.8"/>
      </g>
     </g>
     <g id="text_3">
      <!-- 0.00004 -->
      <g style="fill: #7f7f7f" transform="translate(226.132363 256.196797) scale(0.1 -0.1)">
       <defs>
        <path id="DejaVuSans-17" d="M 2419 4116 
L 825 1625 
L 2419 1625 
L 2419 4116 
z
M 2253 4666 
L 3047 4666 
L 3047 1625 
L 3713 1625 
L 3713 1100 
L 3047 1100 
L 3047 0 
L 2419 0 
L 2419 1100 
L 313 1100 
L 313 1709 
L 2253 4666 
z
" transform="scale(0.015625)"/>
       </defs>
       <use xlink:href="#DejaVuSans-13"/>
       <use xlink:href="#DejaVuSans-11" transform="translate(63.625 0)"/>
       <use xlink:href="#DejaVuSans-13" transform="translate(95.40625 0)"/>
       <use xlink:href="#DejaVuSans-13" transform="translate(159.03125 0)"/>
       <use xlink:href="#DejaVuSans-13" transform="translate(222.65625 0)"/>
       <use xlink:href="#DejaVuSans-13" transform="translate(286.28125 0)"/>
       <use xlink:href="#DejaVuSans-17" transform="translate(349.90625 0)"/>
      </g>
     </g>
    </g>
    <g id="xtick_4">
     <g id="line2d_4">
      <g>
       <use xlink:href="#m5af3c3c373" x="343.636435" y="241.599141" style="fill: #7f7f7f; stroke: #7f7f7f; stroke-width: 1.8"/>
      </g>
     </g>
     <g id="text_4">
      <!-- 0.00006 -->
      <g style="fill: #7f7f7f" transform="translate(322.959872 256.196797) scale(0.1 -0.1)">
       <defs>
        <path id="DejaVuSans-19" d="M 2113 2584 
Q 1688 2584 1439 2293 
Q 1191 2003 1191 1497 
Q 1191 994 1439 701 
Q 1688 409 2113 409 
Q 2538 409 2786 701 
Q 3034 994 3034 1497 
Q 3034 2003 2786 2293 
Q 2538 2584 2113 2584 
z
M 3366 4563 
L 3366 3988 
Q 3128 4100 2886 4159 
Q 2644 4219 2406 4219 
Q 1781 4219 1451 3797 
Q 1122 3375 1075 2522 
Q 1259 2794 1537 2939 
Q 1816 3084 2150 3084 
Q 2853 3084 3261 2657 
Q 3669 2231 3669 1497 
Q 3669 778 3244 343 
Q 2819 -91 2113 -91 
Q 1303 -91 875 529 
Q 447 1150 447 2328 
Q 447 3434 972 4092 
Q 1497 4750 2381 4750 
Q 2619 4750 2861 4703 
Q 3103 4656 3366 4563 
z
" transform="scale(0.015625)"/>
       </defs>
       <use xlink:href="#DejaVuSans-13"/>
       <use xlink:href="#DejaVuSans-11" transform="translate(63.625 0)"/>
       <use xlink:href="#DejaVuSans-13" transform="translate(95.40625 0)"/>
       <use xlink:href="#DejaVuSans-13" transform="translate(159.03125 0)"/>
       <use xlink:href="#DejaVuSans-13" transform="translate(222.65625 0)"/>
       <use xlink:href="#DejaVuSans-13" transform="translate(286.28125 0)"/>
       <use xlink:href="#DejaVuSans-19" transform="translate(349.90625 0)"/>
      </g>
     </g>
    </g>
    <g id="xtick_5">
     <g id="line2d_5">
      <g>
       <use xlink:href="#m5af3c3c373" x="440.463944" y="241.599141" style="fill: #7f7f7f; stroke: #7f7f7f; stroke-width: 1.8"/>
      </g>
     </g>
     <g id="text_5">
      <!-- 0.00008 -->
      <g style="fill: #7f7f7f" transform="translate(419.787382 256.196797) scale(0.1 -0.1)">
       <defs>
        <path id="DejaVuSans-1b" d="M 2034 2216 
Q 1584 2216 1326 1975 
Q 1069 1734 1069 1313 
Q 1069 891 1326 650 
Q 1584 409 2034 409 
Q 2484 409 2743 651 
Q 3003 894 3003 1313 
Q 3003 1734 2745 1975 
Q 2488 2216 2034 2216 
z
M 1403 2484 
Q 997 2584 770 2862 
Q 544 3141 544 3541 
Q 544 4100 942 4425 
Q 1341 4750 2034 4750 
Q 2731 4750 3128 4425 
Q 3525 4100 3525 3541 
Q 3525 3141 3298 2862 
Q 3072 2584 2669 2484 
Q 3125 2378 3379 2068 
Q 3634 1759 3634 1313 
Q 3634 634 3220 271 
Q 2806 -91 2034 -91 
Q 1263 -91 848 271 
Q 434 634 434 1313 
Q 434 1759 690 2068 
Q 947 2378 1403 2484 
z
M 1172 3481 
Q 1172 3119 1398 2916 
Q 1625 2713 2034 2713 
Q 2441 2713 2670 2916 
Q 2900 3119 2900 3481 
Q 2900 3844 2670 4047 
Q 2441 4250 2034 4250 
Q 1625 4250 1398 4047 
Q 1172 3844 1172 3481 
z
" transform="scale(0.015625)"/>
       </defs>
       <use xlink:href="#DejaVuSans-13"/>
       <use xlink:href="#DejaVuSans-11" transform="translate(63.625 0)"/>
       <use xlink:href="#DejaVuSans-13" transform="translate(95.40625 0)"/>
       <use xlink:href="#DejaVuSans-13" transform="translate(159.03125 0)"/>
       <use xlink:href="#DejaVuSans-13" transform="translate(222.65625 0)"/>
       <use xlink:href="#DejaVuSans-13" transform="translate(286.28125 0)"/>
       <use xlink:href="#DejaVuSans-1b" transform="translate(349.90625 0)"/>
      </g>
     </g>
    </g>
    <g id="xtick_6">
     <g id="line2d_6">
      <g>
       <use xlink:href="#m5af3c3c373" x="537.291454" y="241.599141" style="fill: #7f7f7f; stroke: #7f7f7f; stroke-width: 1.8"/>
      </g>
     </g>
     <g id="text_6">
      <!-- 0.00010 -->
      <g style="fill: #7f7f7f" transform="translate(516.614891 256.196797) scale(0.1 -0.1)">
       <defs>
        <path id="DejaVuSans-14" d="M 794 531 
L 1825 531 
L 1825 4091 
L 703 3866 
L 703 4441 
L 1819 4666 
L 2450 4666 
L 2450 531 
L 3481 531 
L 3481 0 
L 794 0 
L 794 531 
z
" transform="scale(0.015625)"/>
       </defs>
       <use xlink:href="#DejaVuSans-13"/>
       <use xlink:href="#DejaVuSans-11" transform="translate(63.625 0)"/>
       <use xlink:href="#DejaVuSans-13" transform="translate(95.40625 0)"/>
       <use xlink:href="#DejaVuSans-13" transform="translate(159.03125 0)"/>
       <use xlink:href="#DejaVuSans-13" transform="translate(222.65625 0)"/>
       <use xlink:href="#DejaVuSans-14" transform="translate(286.28125 0)"/>
       <use xlink:href="#DejaVuSans-13" transform="translate(349.90625 0)"/>
      </g>
     </g>
    </g>
    <g id="text_7">
     <!-- time [s] -->
     <g style="fill: #7f7f7f" transform="translate(273.940547 270.957422) scale(0.11 -0.11)">
      <defs>
       <path id="DejaVuSans-57" d="M 1172 4494 
L 1172 3500 
L 2356 3500 
L 2356 3053 
L 1172 3053 
L 1172 1153 
Q 1172 725 1289 603 
Q 1406 481 1766 481 
L 2356 481 
L 2356 0 
L 1766 0 
Q 1100 0 847 248 
Q 594 497 594 1153 
L 594 3053 
L 172 3053 
L 172 3500 
L 594 3500 
L 594 4494 
L 1172 4494 
z
" transform="scale(0.015625)"/>
       <path id="DejaVuSans-4c" d="M 603 3500 
L 1178 3500 
L 1178 0 
L 603 0 
L 603 3500 
z
M 603 4863 
L 1178 4863 
L 1178 4134 
L 603 4134 
L 603 4863 
z
" transform="scale(0.015625)"/>
       <path id="DejaVuSans-50" d="M 3328 2828 
Q 3544 3216 3844 3400 
Q 4144 3584 4550 3584 
Q 5097 3584 5394 3201 
Q 5691 2819 5691 2113 
L 5691 0 
L 5113 0 
L 5113 2094 
Q 5113 2597 4934 2840 
Q 4756 3084 4391 3084 
Q 3944 3084 3684 2787 
Q 3425 2491 3425 1978 
L 3425 0 
L 2847 0 
L 2847 2094 
Q 2847 2600 2669 2842 
Q 2491 3084 2119 3084 
Q 1678 3084 1418 2786 
Q 1159 2488 1159 1978 
L 1159 0 
L 581 0 
L 581 3500 
L 1159 3500 
L 1159 2956 
Q 1356 3278 1631 3431 
Q 1906 3584 2284 3584 
Q 2666 3584 2933 3390 
Q 3200 3197 3328 2828 
z
" transform="scale(0.015625)"/>
       <path id="DejaVuSans-48" d="M 3597 1894 
L 3597 1613 
L 953 1613 
Q 991 1019 1311 708 
Q 1631 397 2203 397 
Q 2534 397 2845 478 
Q 3156 559 3463 722 
L 3463 178 
Q 3153 47 2828 -22 
Q 2503 -91 2169 -91 
Q 1331 -91 842 396 
Q 353 884 353 1716 
Q 353 2575 817 3079 
Q 1281 3584 2069 3584 
Q 2775 3584 3186 3129 
Q 3597 2675 3597 1894 
z
M 3022 2063 
Q 3016 2534 2758 2815 
Q 2500 3097 2075 3097 
Q 1594 3097 1305 2825 
Q 1016 2553 972 2059 
L 3022 2063 
z
" transform="scale(0.015625)"/>
       <path id="DejaVuSans-3" transform="scale(0.015625)"/>
       <path id="DejaVuSans-3e" d="M 550 4863 
L 1875 4863 
L 1875 4416 
L 1125 4416 
L 1125 -397 
L 1875 -397 
L 1875 -844 
L 550 -844 
L 550 4863 
z
" transform="scale(0.015625)"/>
       <path id="DejaVuSans-56" d="M 2834 3397 
L 2834 2853 
Q 2591 2978 2328 3040 
Q 2066 3103 1784 3103 
Q 1356 3103 1142 2972 
Q 928 2841 928 2578 
Q 928 2378 1081 2264 
Q 1234 2150 1697 2047 
L 1894 2003 
Q 2506 1872 2764 1633 
Q 3022 1394 3022 966 
Q 3022 478 2636 193 
Q 2250 -91 1575 -91 
Q 1294 -91 989 -36 
Q 684 19 347 128 
L 347 722 
Q 666 556 975 473 
Q 1284 391 1588 391 
Q 1994 391 2212 530 
Q 2431 669 2431 922 
Q 2431 1156 2273 1281 
Q 2116 1406 1581 1522 
L 1381 1569 
Q 847 1681 609 1914 
Q 372 2147 372 2553 
Q 372 3047 722 3315 
Q 1072 3584 1716 3584 
Q 2034 3584 2315 3537 
Q 2597 3491 2834 3397 
z
" transform="scale(0.015625)"/>
       <path id="DejaVuSans-40" d="M 1947 4863 
L 1947 -844 
L 622 -844 
L 622 -397 
L 1369 -397 
L 1369 4416 
L 622 4416 
L 622 4863 
L 1947 4863 
z
" transform="scale(0.015625)"/>
      </defs>
      <use xlink:href="#DejaVuSans-57"/>
      <use xlink:href="#DejaVuSans-4c" transform="translate(39.203125 0)"/>
      <use xlink:href="#DejaVuSans-50" transform="translate(66.984375 0)"/>
      <use xlink:href="#DejaVuSans-48" transform="translate(164.390625 0)"/>
      <use xlink:href="#DejaVuSans-3" transform="translate(225.921875 0)"/>
      <use xlink:href="#DejaVuSans-3e" transform="translate(257.703125 0)"/>
      <use xlink:href="#DejaVuSans-56" transform="translate(296.71875 0)"/>
      <use xlink:href="#DejaVuSans-40" transform="translate(348.8125 0)"/>
     </g>
    </g>
   </g>
   <g id="matplotlib.axis_2">
    <g id="ytick_1">
     <g id="line2d_7">
      <defs>
       <path id="m298e59b4de" d="M 0 0 
L -3.5 0 
" style="stroke: #7f7f7f; stroke-width: 1.8"/>
      </defs>
      <g>
       <use xlink:href="#m298e59b4de" x="28.942188" y="231.29017" style="fill: #7f7f7f; stroke: #7f7f7f; stroke-width: 1.8"/>
      </g>
     </g>
     <g id="text_8">
      <!-- −8 -->
      <g style="fill: #7f7f7f" transform="translate(7.2 235.088998) scale(0.1 -0.1)">
       <defs>
        <path id="DejaVuSans-c9c" d="M 678 2272 
L 4684 2272 
L 4684 1741 
L 678 1741 
L 678 2272 
z
" transform="scale(0.015625)"/>
       </defs>
       <use xlink:href="#DejaVuSans-c9c"/>
       <use xlink:href="#DejaVuSans-1b" transform="translate(83.796875 0)"/>
      </g>
     </g>
    </g>
    <g id="ytick_2">
     <g id="line2d_8">
      <g>
       <use xlink:href="#m298e59b4de" x="28.942188" y="204.501522" style="fill: #7f7f7f; stroke: #7f7f7f; stroke-width: 1.8"/>
      </g>
     </g>
     <g id="text_9">
      <!-- −6 -->
      <g style="fill: #7f7f7f" transform="translate(7.2 208.30035) scale(0.1 -0.1)">
       <use xlink:href="#DejaVuSans-c9c"/>
       <use xlink:href="#DejaVuSans-19" transform="translate(83.796875 0)"/>
      </g>
     </g>
    </g>
    <g id="ytick_3">
     <g id="line2d_9">
      <g>
       <use xlink:href="#m298e59b4de" x="28.942188" y="177.712873" style="fill: #7f7f7f; stroke: #7f7f7f; stroke-width: 1.8"/>
      </g>
     </g>
     <g id="text_10">
      <!-- −4 -->
      <g style="fill: #7f7f7f" transform="translate(7.2 181.511701) scale(0.1 -0.1)">
       <use xlink:href="#DejaVuSans-c9c"/>
       <use xlink:href="#DejaVuSans-17" transform="translate(83.796875 0)"/>
      </g>
     </g>
    </g>
    <g id="ytick_4">
     <g id="line2d_10">
      <g>
       <use xlink:href="#m298e59b4de" x="28.942188" y="150.924225" style="fill: #7f7f7f; stroke: #7f7f7f; stroke-width: 1.8"/>
      </g>
     </g>
     <g id="text_11">
      <!-- −2 -->
      <g style="fill: #7f7f7f" transform="translate(7.2 154.723053) scale(0.1 -0.1)">
       <use xlink:href="#DejaVuSans-c9c"/>
       <use xlink:href="#DejaVuSans-15" transform="translate(83.796875 0)"/>
      </g>
     </g>
    </g>
    <g id="ytick_5">
     <g id="line2d_11">
      <g>
       <use xlink:href="#m298e59b4de" x="28.942188" y="124.135576" style="fill: #7f7f7f; stroke: #7f7f7f; stroke-width: 1.8"/>
      </g>
     </g>
     <g id="text_12">
      <!-- 0 -->
      <g style="fill: #7f7f7f" transform="translate(15.579688 127.934404) scale(0.1 -0.1)">
       <use xlink:href="#DejaVuSans-13"/>
      </g>
     </g>
    </g>
    <g id="ytick_6">
     <g id="line2d_12">
      <g>
       <use xlink:href="#m298e59b4de" x="28.942188" y="97.346928" style="fill: #7f7f7f; stroke: #7f7f7f; stroke-width: 1.8"/>
      </g>
     </g>
     <g id="text_13">
      <!-- 2 -->
      <g style="fill: #7f7f7f" transform="translate(15.579688 101.145756) scale(0.1 -0.1)">
       <use xlink:href="#DejaVuSans-15"/>
      </g>
     </g>
    </g>
    <g id="ytick_7">
     <g id="line2d_13">
      <g>
       <use xlink:href="#m298e59b4de" x="28.942188" y="70.558279" style="fill: #7f7f7f; stroke: #7f7f7f; stroke-width: 1.8"/>
      </g>
     </g>
     <g id="text_14">
      <!-- 4 -->
      <g style="fill: #7f7f7f" transform="translate(15.579688 74.357107) scale(0.1 -0.1)">
       <use xlink:href="#DejaVuSans-17"/>
      </g>
     </g>
    </g>
    <g id="ytick_8">
     <g id="line2d_14">
      <g>
       <use xlink:href="#m298e59b4de" x="28.942188" y="43.769631" style="fill: #7f7f7f; stroke: #7f7f7f; stroke-width: 1.8"/>
      </g>
     </g>
     <g id="text_15">
      <!-- 6 -->
      <g style="fill: #7f7f7f" transform="translate(15.579688 47.568459) scale(0.1 -0.1)">
       <use xlink:href="#DejaVuSans-19"/>
      </g>
     </g>
    </g>
    <g id="ytick_9">
     <g id="line2d_15">
      <g>
       <use xlink:href="#m298e59b4de" x="28.942188" y="16.980982" style="fill: #7f7f7f; stroke: #7f7f7f; stroke-width: 1.8"/>
      </g>
     </g>
     <g id="text_16">
      <!-- 8 -->
      <g style="fill: #7f7f7f" transform="translate(15.579688 20.779811) scale(0.1 -0.1)">
       <use xlink:href="#DejaVuSans-1b"/>
      </g>
     </g>
    </g>
   </g>
   <g id="line2d_16">
    <path d="M 53.153906 124.135576 
L 57.656385 111.809693 
L 59.544522 110.79304 
L 61.142176 112.39804 
L 63.611277 118.585295 
L 70.437617 137.188705 
L 72.035271 137.29265 
L 73.778166 134.872024 
L 76.682991 126.479892 
L 82.056918 111.561871 
L 83.945054 110.869015 
L 85.542708 112.73708 
L 88.157051 119.677683 
L 94.402425 136.974328 
L 96.14532 137.351568 
L 97.742974 135.353698 
L 100.502558 127.791583 
L 106.312209 111.504855 
L 108.200345 110.893254 
L 109.797999 112.826374 
L 112.412342 119.836753 
L 118.512475 136.874336 
L 120.25537 137.402138 
L 121.853024 135.534072 
L 124.467367 128.593469 
L 130.712741 111.296825 
L 132.455637 110.919585 
L 134.05329 112.917454 
L 136.812874 120.47957 
L 142.622525 136.766297 
L 144.510661 137.377898 
L 146.108315 135.444778 
L 148.722658 128.434399 
L 154.822791 111.396817 
L 156.565686 110.869015 
L 158.16334 112.73708 
L 160.777683 119.677683 
L 167.023057 136.974328 
L 168.765953 137.351568 
L 170.363606 135.353698 
L 173.123191 127.791583 
L 178.932841 111.504855 
L 180.820978 110.893254 
L 182.418631 112.826374 
L 185.032974 119.836753 
L 191.133107 136.874336 
L 192.876002 137.402138 
L 194.473656 135.534072 
L 197.087999 128.593469 
L 203.333373 111.296825 
L 205.076269 110.919585 
L 206.673923 112.917454 
L 209.433507 120.47957 
L 215.243157 136.766297 
L 217.131294 137.377898 
L 218.728947 135.444778 
L 221.34329 128.434399 
L 227.443423 111.396817 
L 229.186319 110.869015 
L 230.783972 112.73708 
L 233.398315 119.677683 
L 239.64369 136.974328 
L 241.386585 137.351568 
L 242.984239 135.353698 
L 245.743823 127.791583 
L 251.553473 111.504855 
L 253.44161 110.893254 
L 255.039264 112.826374 
L 257.653606 119.836753 
L 263.753739 136.874336 
L 265.496635 137.402138 
L 267.094288 135.534072 
L 269.708631 128.593469 
L 275.954006 111.296825 
L 277.696901 110.919585 
L 279.294555 112.917454 
L 282.054139 120.47957 
L 287.863789 136.766297 
L 289.751926 137.377898 
L 291.34958 135.444778 
L 293.963922 128.434399 
L 300.064055 111.396817 
L 301.806951 110.869015 
L 303.404605 112.73708 
L 306.018947 119.677683 
L 312.264322 136.974328 
L 314.007217 137.351568 
L 315.604871 135.353698 
L 318.364455 127.791583 
L 324.174105 111.504855 
L 326.062242 110.893254 
L 327.659896 112.826374 
L 330.274238 119.836753 
L 336.374372 136.874336 
L 338.117267 137.402138 
L 339.714921 135.534072 
L 342.329263 128.593469 
L 348.574638 111.296825 
L 350.317533 110.919585 
L 351.915187 112.917454 
L 354.674771 120.47957 
L 360.484421 136.766297 
L 362.372558 137.377898 
L 363.970212 135.444778 
L 366.584554 128.434399 
L 372.684688 111.396817 
L 374.427583 110.869015 
L 376.025237 112.73708 
L 378.639579 119.677683 
L 384.884954 136.974328 
L 386.627849 137.351568 
L 388.225503 135.353698 
L 390.985087 127.791583 
L 396.794737 111.504855 
L 398.682874 110.893254 
L 400.280528 112.826374 
L 402.894871 119.836753 
L 408.995004 136.874336 
L 410.737899 137.402138 
L 412.335553 135.534072 
L 414.949895 128.593469 
L 421.19527 111.296825 
L 422.938165 110.919585 
L 424.535819 112.917454 
L 427.295403 120.47957 
L 433.105054 136.766297 
L 434.99319 137.377898 
L 436.590844 135.444778 
L 439.205187 128.434399 
L 445.30532 111.396817 
L 447.048215 110.869015 
L 448.645869 112.73708 
L 451.260212 119.677683 
L 457.505586 136.974328 
L 459.248481 137.351568 
L 460.846135 135.353698 
L 463.605719 127.791583 
L 469.41537 111.504855 
L 471.303506 110.893254 
L 472.90116 112.826374 
L 475.515503 119.836753 
L 481.615636 136.874336 
L 483.358531 137.402138 
L 484.956185 135.534072 
L 487.570528 128.593469 
L 493.815902 111.296825 
L 495.558797 110.919585 
L 497.156451 112.917454 
L 499.916035 120.47957 
L 505.725686 136.766297 
L 507.613822 137.377898 
L 509.211476 135.444778 
L 511.825819 128.434399 
L 517.925952 111.396817 
L 519.668847 110.869015 
L 521.266501 112.73708 
L 523.880844 119.677683 
L 530.126218 136.974328 
L 531.869113 137.351568 
L 533.466767 135.353698 
L 536.226351 127.791583 
L 537.388281 123.798976 
L 537.388281 123.798976 
" clip-path="url(#pb8048659cc)" style="fill: none; stroke: #e41a1c; stroke-width: 2; stroke-linecap: square"/>
   </g>
   <g id="line2d_17">
    <path d="M 53.153906 124.135576 
L 55.187284 106.155798 
L 58.23735 34.5365 
L 60.415969 25.199798 
L 60.851693 27.434221 
L 63.175553 40.142865 
L 65.499414 89.201677 
L 69.420928 201.378682 
L 70.001893 207.631621 
L 72.035271 225.098156 
L 72.470994 225.491929 
L 72.906718 225.026674 
L 74.649613 215.44153 
L 77.69968 163.827157 
L 83.654572 19.016355 
L 84.380778 22.502216 
L 87.721327 48.352242 
L 89.17374 79.362442 
L 93.82146 204.886005 
L 95.564355 221.10676 
L 96.871527 227.740447 
L 97.162009 227.271486 
L 99.050146 213.92815 
L 101.228765 174.3359 
L 106.602691 33.371353 
L 108.200345 24.074592 
L 108.490828 24.35895 
L 109.652758 23.663077 
L 109.797999 24.224024 
L 111.105171 35.057014 
L 112.267101 57.66533 
L 119.238681 224.992316 
L 119.964888 226.125954 
L 120.400612 225.533898 
L 123.014954 210.443685 
L 125.629297 174.537875 
L 130.712741 27.510213 
L 132.746119 20.146857 
L 133.617567 22.965006 
L 136.086668 44.27448 
L 138.120046 91.504317 
L 140.87963 188.659496 
L 143.493973 224.32491 
L 144.074938 226.275074 
L 144.510661 224.479745 
L 149.448864 182.322223 
L 151.046518 132.210502 
L 153.370379 59.592643 
L 156.129963 32.249198 
L 157.291893 27.008209 
L 157.582375 27.210144 
L 158.308582 29.226953 
L 160.632442 48.018089 
L 161.794372 75.755163 
L 166.732575 216.244914 
L 168.911194 228.899304 
L 169.346918 228.713224 
L 170.073124 223.894002 
L 173.849397 184.689857 
L 180.530495 20.153386 
L 180.675736 19.734108 
L 180.966219 20.780843 
L 182.854355 27.645015 
L 185.032974 42.614959 
L 186.775869 95.039411 
L 190.26166 202.95418 
L 192.876002 225.268244 
L 193.74745 228.413333 
L 194.037933 226.30293 
L 197.087999 191.485237 
L 200.864272 96.249477 
L 203.478615 28.183599 
L 205.511992 17.854506 
L 206.964405 27.723668 
L 209.723989 51.665472 
L 210.450195 68.300949 
L 215.243157 209.635139 
L 217.276535 228.623464 
L 217.712259 227.619578 
L 219.890878 208.47573 
L 223.957633 122.062891 
L 227.0077 42.392068 
L 228.895836 26.699175 
L 230.203007 19.7148 
L 230.638731 20.645245 
L 231.800661 25.775039 
L 235.431693 106.162119 
L 239.207966 202.079997 
L 241.096102 220.871799 
L 242.258032 225.430414 
L 242.693756 222.840977 
L 245.162858 195.945739 
L 251.117749 43.625657 
L 253.005886 22.406967 
L 253.296368 22.101435 
L 253.586851 23.142111 
L 257.798848 69.94273 
L 259.25126 115.436082 
L 262.591809 199.683699 
L 264.479946 225.428759 
L 265.060911 225.389675 
L 265.206152 225.091805 
L 265.787117 223.96801 
L 266.0776 224.766085 
L 266.803806 227.323208 
L 267.094288 225.513161 
L 269.418149 202.579034 
L 271.742009 135.391365 
L 275.082558 51.825268 
L 277.406418 27.663498 
L 278.277866 22.654199 
L 278.858831 24.766703 
L 280.601726 35.784492 
L 283.216069 83.053768 
L 286.8471 191.408645 
L 289.751926 225.699298 
L 289.897167 226.069431 
L 290.332891 224.975394 
L 290.913856 222.643666 
L 294.399646 187.189066 
L 300.499779 32.300917 
L 302.387916 21.513 
L 302.678398 22.408077 
L 304.421293 30.561367 
L 305.583224 48.89434 
L 313.716734 226.606407 
L 313.861976 226.35095 
L 314.442941 223.008417 
L 315.023906 219.953687 
L 315.604871 220.99366 
L 315.895353 221.346752 
L 316.040595 220.69826 
L 317.928731 201.401879 
L 319.235902 176.249063 
L 323.738382 53.963387 
L 325.626518 29.834213 
L 325.917001 30.588874 
L 326.352724 31.808561 
L 326.788448 30.83413 
L 327.078931 30.380397 
L 327.369413 31.566816 
L 329.112308 41.862009 
L 332.162375 114.900096 
L 335.502924 204.188383 
L 337.39106 225.621038 
L 337.681543 225.095004 
L 338.117267 226.562715 
L 338.988714 230.140363 
L 339.424438 228.821763 
L 340.295886 223.021325 
L 343.491193 175.009669 
L 347.267466 63.05623 
L 350.317533 24.974093 
L 350.753257 25.079104 
L 350.898498 25.638032 
L 352.931876 31.718779 
L 354.384288 58.441971 
L 360.33918 209.868481 
L 362.953523 225.720365 
L 363.098764 225.367472 
L 366.584554 201.088217 
L 368.32745 165.296256 
L 374.282342 25.753029 
L 374.427583 25.847148 
L 376.751443 32.861118 
L 379.365786 78.399131 
L 386.046884 226.702859 
L 387.499297 230.944634 
L 387.789779 230.068411 
L 389.677916 214.631482 
L 391.711293 168.882296 
L 397.956668 36.750295 
L 399.263839 26.288211 
L 399.990045 27.852448 
L 400.716252 35.321274 
L 404.347283 92.981493 
L 408.55928 203.429075 
L 411.318864 226.506523 
L 412.335553 225.949404 
L 413.352242 223.740572 
L 414.078448 215.532202 
L 416.257067 161.091178 
L 421.921476 23.56296 
L 422.066717 23.574841 
L 425.262025 32.174365 
L 428.457333 104.143478 
L 432.378847 201.08712 
L 435.138431 225.49167 
L 435.864638 227.964379 
L 436.445603 226.723654 
L 437.026568 225.480371 
L 438.624222 214.634699 
L 441.529047 147.094748 
L 445.160078 44.744094 
L 447.483939 27.440449 
L 448.064904 25.895348 
L 448.355386 26.933808 
L 451.695935 56.415299 
L 457.796068 214.717931 
L 459.538964 227.850871 
L 459.684205 227.50872 
L 462.298548 211.471539 
L 464.622408 168.126174 
L 469.560611 39.564671 
L 472.174954 22.89321 
L 472.465436 23.493423 
L 474.934538 47.108478 
L 482.196601 221.093241 
L 483.649013 229.691337 
L 484.229979 226.760316 
L 487.570528 184.849786 
L 495.123073 33.173631 
L 497.01121 27.53198 
L 497.446934 28.696827 
L 498.608864 35.897039 
L 499.33507 53.147812 
L 505.870927 212.754219 
L 507.904305 226.703095 
L 508.049546 226.485038 
L 511.680577 198.225994 
L 513.13299 171.562601 
L 519.378364 23.016467 
L 521.12126 25.9265 
L 521.702225 25.796993 
L 521.847466 26.105694 
L 523.590361 46.570098 
L 525.188015 89.538275 
L 528.819047 195.078045 
L 530.707183 219.916039 
L 532.159596 226.780396 
L 532.304837 226.325018 
L 535.500145 204.099489 
L 537.097799 174.844206 
L 537.388281 164.02183 
L 537.388281 164.02183 
" clip-path="url(#pb8048659cc)" style="fill: none; stroke: #377eb8; stroke-width: 2; stroke-linecap: square"/>
   </g>
   <g id="patch_3">
    <path d="M 28.942188 241.599141 
L 28.942188 7.2 
" style="fill: none; stroke: #7f7f7f; stroke-width: 1.8; stroke-linejoin: miter; stroke-linecap: square"/>
   </g>
   <g id="patch_4">
    <path d="M 28.942188 241.599141 
L 561.6 241.599141 
" style="fill: none; stroke: #7f7f7f; stroke-width: 1.8; stroke-linejoin: miter; stroke-linecap: square"/>
   </g>
   <g id="legend_1">
    <g id="line2d_18">
     <path d="M 37.942188 211.696016 
L 47.942188 211.696016 
L 57.942188 211.696016 
" style="fill: none; stroke: #e41a1c; stroke-width: 2; stroke-linecap: square"/>
    </g>
    <g id="text_17">
     <!-- Src -->
     <g style="fill: #7f7f7f" transform="translate(65.942188 215.196016) scale(0.1 -0.1)">
      <defs>
       <path id="DejaVuSans-36" d="M 3425 4513 
L 3425 3897 
Q 3066 4069 2747 4153 
Q 2428 4238 2131 4238 
Q 1616 4238 1336 4038 
Q 1056 3838 1056 3469 
Q 1056 3159 1242 3001 
Q 1428 2844 1947 2747 
L 2328 2669 
Q 3034 2534 3370 2195 
Q 3706 1856 3706 1288 
Q 3706 609 3251 259 
Q 2797 -91 1919 -91 
Q 1588 -91 1214 -16 
Q 841 59 441 206 
L 441 856 
Q 825 641 1194 531 
Q 1563 422 1919 422 
Q 2459 422 2753 634 
Q 3047 847 3047 1241 
Q 3047 1584 2836 1778 
Q 2625 1972 2144 2069 
L 1759 2144 
Q 1053 2284 737 2584 
Q 422 2884 422 3419 
Q 422 4038 858 4394 
Q 1294 4750 2059 4750 
Q 2388 4750 2728 4690 
Q 3069 4631 3425 4513 
z
" transform="scale(0.015625)"/>
       <path id="DejaVuSans-55" d="M 2631 2963 
Q 2534 3019 2420 3045 
Q 2306 3072 2169 3072 
Q 1681 3072 1420 2755 
Q 1159 2438 1159 1844 
L 1159 0 
L 581 0 
L 581 3500 
L 1159 3500 
L 1159 2956 
Q 1341 3275 1631 3429 
Q 1922 3584 2338 3584 
Q 2397 3584 2469 3576 
Q 2541 3569 2628 3553 
L 2631 2963 
z
" transform="scale(0.015625)"/>
       <path id="DejaVuSans-46" d="M 3122 3366 
L 3122 2828 
Q 2878 2963 2633 3030 
Q 2388 3097 2138 3097 
Q 1578 3097 1268 2742 
Q 959 2388 959 1747 
Q 959 1106 1268 751 
Q 1578 397 2138 397 
Q 2388 397 2633 464 
Q 2878 531 3122 666 
L 3122 134 
Q 2881 22 2623 -34 
Q 2366 -91 2075 -91 
Q 1284 -91 818 406 
Q 353 903 353 1747 
Q 353 2603 823 3093 
Q 1294 3584 2113 3584 
Q 2378 3584 2631 3529 
Q 2884 3475 3122 3366 
z
" transform="scale(0.015625)"/>
      </defs>
      <use xlink:href="#DejaVuSans-36"/>
      <use xlink:href="#DejaVuSans-55" transform="translate(63.484375 0)"/>
      <use xlink:href="#DejaVuSans-46" transform="translate(102.390625 0)"/>
     </g>
    </g>
    <g id="line2d_19">
     <path d="M 37.942188 226.696797 
L 47.942188 226.696797 
L 57.942188 226.696797 
" style="fill: none; stroke: #377eb8; stroke-width: 2; stroke-linecap: square"/>
    </g>
    <g id="text_18">
     <!-- AMP -->
     <g style="fill: #7f7f7f" transform="translate(65.942188 230.196797) scale(0.1 -0.1)">
      <defs>
       <path id="DejaVuSans-24" d="M 2188 4044 
L 1331 1722 
L 3047 1722 
L 2188 4044 
z
M 1831 4666 
L 2547 4666 
L 4325 0 
L 3669 0 
L 3244 1197 
L 1141 1197 
L 716 0 
L 50 0 
L 1831 4666 
z
" transform="scale(0.015625)"/>
       <path id="DejaVuSans-30" d="M 628 4666 
L 1569 4666 
L 2759 1491 
L 3956 4666 
L 4897 4666 
L 4897 0 
L 4281 0 
L 4281 4097 
L 3078 897 
L 2444 897 
L 1241 4097 
L 1241 0 
L 628 0 
L 628 4666 
z
" transform="scale(0.015625)"/>
       <path id="DejaVuSans-33" d="M 1259 4147 
L 1259 2394 
L 2053 2394 
Q 2494 2394 2734 2622 
Q 2975 2850 2975 3272 
Q 2975 3691 2734 3919 
Q 2494 4147 2053 4147 
L 1259 4147 
z
M 628 4666 
L 2053 4666 
Q 2838 4666 3239 4311 
Q 3641 3956 3641 3272 
Q 3641 2581 3239 2228 
Q 2838 1875 2053 1875 
L 1259 1875 
L 1259 0 
L 628 0 
L 628 4666 
z
" transform="scale(0.015625)"/>
      </defs>
      <use xlink:href="#DejaVuSans-24"/>
      <use xlink:href="#DejaVuSans-30" transform="translate(68.40625 0)"/>
      <use xlink:href="#DejaVuSans-33" transform="translate(154.6875 0)"/>
     </g>
    </g>
   </g>
  </g>
 </g>
 <defs>
  <clipPath id="pb8048659cc">
   <rect x="28.942188" y="7.2" width="532.657812" height="234.399141"/>
  </clipPath>
 </defs>
</svg>
