<?xml version="1.0" encoding="utf-8" standalone="no"?>
<!DOCTYPE svg PUBLIC "-//W3C//DTD SVG 1.1//EN"
  "http://www.w3.org/Graphics/SVG/1.1/DTD/svg11.dtd">
<svg xmlns:xlink="http://www.w3.org/1999/xlink" width="568.8pt" height="424.8pt" viewBox="0 0 568.8 424.8" xmlns="http://www.w3.org/2000/svg" version="1.1">
 <metadata>
  <rdf:RDF xmlns:dc="http://purl.org/dc/elements/1.1/" xmlns:cc="http://creativecommons.org/ns#" xmlns:rdf="http://www.w3.org/1999/02/22-rdf-syntax-ns#">
   <cc:Work>
    <dc:type rdf:resource="http://purl.org/dc/dcmitype/StillImage"/>
    <dc:date>2026-07-09T19:41:36.783820</dc:date>
    <dc:format>image/svg+xml</dc:format>
    <dc:creator>
     <cc:Agent>
      <dc:title>Matplotlib v3.11.0, https://matplotlib.org/</dc:title>
     </cc:Agent>
    </dc:creator>
   </cc:Work>
  </rdf:RDF>
 </metadata>
 <defs>
  <style type="text/css">*{stroke-linejoin: round; stroke-linecap: butt}</style>
 </defs>
 <g id="figure_1">
  <g id="patch_1">
   <path d="M 0 424.8 
L 568.8 424.8 
L 568.8 0 
L 0 0 
L 0 424.8 
z
" style="fill: none"/>
  </g>
  <g id="axes_1">
   <g id="patch_2">
    <path d="M 45.103984 190.058633 
L 561.6 190.058633 
L 561.6 22.318125 
L 45.103984 22.318125 
L 45.103984 190.058633 
z
" style="fill: none"/>
   </g>
   <g id="matplotlib.axis_1">
    <g id="xtick_1">
     <g id="line2d_1">
      <defs>
       <path id="mc97dba5983" d="M 0 0 
L 0 3.5 
" style="stroke: #7f7f7f; stroke-width: 1.8"/>
      </defs>
      <g>
       <use xlink:href="#mc97dba5983" x="68.581076" y="190.058633" style="fill: #7f7f7f; stroke: #7f7f7f; stroke-width: 1.8"/>
      </g>
     </g>
     <g id="text_1">
      <!-- 0.0 -->
      <g style="fill: #7f7f7f" transform="translate(60.629513 204.656289) scale(0.1 -0.1)">
       <defs>
        <path id="DejaVuSans-13" d="M 2034 4250 
Q 1547 4250 1301 3770 
Q 1056 3291 1056 2328 
Q 1056 1369 1301 889 
Q 1547 409 2034 409 
Q 2525 409 2770 889 
Q 3016 1369 3016 2328 
Q 3016 3291 2770 3770 
Q 2525 4250 2034 4250 
z
M 2034 4750 
Q 2819 4750 3233 4129 
Q 3647 3509 3647 2328 
Q 3647 1150 3233 529 
Q 2819 -91 2034 -91 
Q 1250 -91 836 529 
Q 422 1150 422 2328 
Q 422 3509 836 4129 
Q 1250 4750 2034 4750 
z
" transform="scale(0.015625)"/>
        <path id="DejaVuSans-11" d="M 684 794 
L 1344 794 
L 1344 0 
L 684 0 
L 684 794 
z
" transform="scale(0.015625)"/>
       </defs>
       <use xlink:href="#DejaVuSans-13"/>
       <use xlink:href="#DejaVuSans-11" transform="translate(63.625 0)"/>
       <use xlink:href="#DejaVuSans-13" transform="translate(95.40625 0)"/>
      </g>
     </g>
    </g>
    <g id="xtick_2">
     <g id="line2d_2">
      <g>
       <use xlink:href="#mc97dba5983" x="127.273805" y="190.058633" style="fill: #7f7f7f; stroke: #7f7f7f; stroke-width: 1.8"/>
      </g>
     </g>
     <g id="text_2">
      <!-- 2.5 -->
      <g style="fill: #7f7f7f" transform="translate(119.322243 204.656289) scale(0.1 -0.1)">
       <defs>
        <path id="DejaVuSans-15" d="M 1228 531 
L 3431 531 
L 3431 0 
L 469 0 
L 469 531 
Q 828 903 1448 1529 
Q 2069 2156 2228 2338 
Q 2531 2678 2651 2914 
Q 2772 3150 2772 3378 
Q 2772 3750 2511 3984 
Q 2250 4219 1831 4219 
Q 1534 4219 1204 4116 
Q 875 4013 500 3803 
L 500 4441 
Q 881 4594 1212 4672 
Q 1544 4750 1819 4750 
Q 2544 4750 2975 4387 
Q 3406 4025 3406 3419 
Q 3406 3131 3298 2873 
Q 3191 2616 2906 2266 
Q 2828 2175 2409 1742 
Q 1991 1309 1228 531 
z
" transform="scale(0.015625)"/>
        <path id="DejaVuSans-18" d="M 691 4666 
L 3169 4666 
L 3169 4134 
L 1269 4134 
L 1269 2991 
Q 1406 3038 1543 3061 
Q 1681 3084 1819 3084 
Q 2600 3084 3056 2656 
Q 3513 2228 3513 1497 
Q 3513 744 3044 326 
Q 2575 -91 1722 -91 
Q 1428 -91 1123 -41 
Q 819 9 494 109 
L 494 744 
Q 775 591 1075 516 
Q 1375 441 1709 441 
Q 2250 441 2565 725 
Q 2881 1009 2881 1497 
Q 2881 1984 2565 2268 
Q 2250 2553 1709 2553 
Q 1456 2553 1204 2497 
Q 953 2441 691 2322 
L 691 4666 
z
" transform="scale(0.015625)"/>
       </defs>
       <use xlink:href="#DejaVuSans-15"/>
       <use xlink:href="#DejaVuSans-11" transform="translate(63.625 0)"/>
       <use xlink:href="#DejaVuSans-18" transform="translate(95.40625 0)"/>
      </g>
     </g>
    </g>
    <g id="xtick_3">
     <g id="line2d_3">
      <g>
       <use xlink:href="#mc97dba5983" x="185.966534" y="190.058633" style="fill: #7f7f7f; stroke: #7f7f7f; stroke-width: 1.8"/>
      </g>
     </g>
     <g id="text_3">
      <!-- 5.0 -->
      <g style="fill: #7f7f7f" transform="translate(178.014972 204.656289) scale(0.1 -0.1)">
       <use xlink:href="#DejaVuSans-18"/>
       <use xlink:href="#DejaVuSans-11" transform="translate(63.625 0)"/>
       <use xlink:href="#DejaVuSans-13" transform="translate(95.40625 0)"/>
      </g>
     </g>
    </g>
    <g id="xtick_4">
     <g id="line2d_4">
      <g>
       <use xlink:href="#mc97dba5983" x="244.659263" y="190.058633" style="fill: #7f7f7f; stroke: #7f7f7f; stroke-width: 1.8"/>
      </g>
     </g>
     <g id="text_4">
      <!-- 7.5 -->
      <g style="fill: #7f7f7f" transform="translate(236.707701 204.656289) scale(0.1 -0.1)">
       <defs>
        <path id="DejaVuSans-1a" d="M 525 4666 
L 3525 4666 
L 3525 4397 
L 1831 0 
L 1172 0 
L 2766 4134 
L 525 4134 
L 525 4666 
z
" transform="scale(0.015625)"/>
       </defs>
       <use xlink:href="#DejaVuSans-1a"/>
       <use xlink:href="#DejaVuSans-11" transform="translate(63.625 0)"/>
       <use xlink:href="#DejaVuSans-18" transform="translate(95.40625 0)"/>
      </g>
     </g>
    </g>
    <g id="xtick_5">
     <g id="line2d_5">
      <g>
       <use xlink:href="#mc97dba5983" x="303.351992" y="190.058633" style="fill: #7f7f7f; stroke: #7f7f7f; stroke-width: 1.8"/>
      </g>
     </g>
     <g id="text_5">
      <!-- 10.0 -->
      <g style="fill: #7f7f7f" transform="translate(292.21918 204.656289) scale(0.1 -0.1)">
       <defs>
        <path id="DejaVuSans-14" d="M 794 531 
L 1825 531 
L 1825 4091 
L 703 3866 
L 703 4441 
L 1819 4666 
L 2450 4666 
L 2450 531 
L 3481 531 
L 3481 0 
L 794 0 
L 794 531 
z
" transform="scale(0.015625)"/>
       </defs>
       <use xlink:href="#DejaVuSans-14"/>
       <use xlink:href="#DejaVuSans-13" transform="translate(63.625 0)"/>
       <use xlink:href="#DejaVuSans-11" transform="translate(127.25 0)"/>
       <use xlink:href="#DejaVuSans-13" transform="translate(159.03125 0)"/>
      </g>
     </g>
    </g>
    <g id="xtick_6">
     <g id="line2d_6">
      <g>
       <use xlink:href="#mc97dba5983" x="362.044721" y="190.058633" style="fill: #7f7f7f; stroke: #7f7f7f; stroke-width: 1.8"/>
      </g>
     </g>
     <g id="text_6">
      <!-- 12.5 -->
      <g style="fill: #7f7f7f" transform="translate(350.911909 204.656289) scale(0.1 -0.1)">
       <use xlink:href="#DejaVuSans-14"/>
       <use xlink:href="#DejaVuSans-15" transform="translate(63.625 0)"/>
       <use xlink:href="#DejaVuSans-11" transform="translate(127.25 0)"/>
       <use xlink:href="#DejaVuSans-18" transform="translate(159.03125 0)"/>
      </g>
     </g>
    </g>
    <g id="xtick_7">
     <g id="line2d_7">
      <g>
       <use xlink:href="#mc97dba5983" x="420.73745" y="190.058633" style="fill: #7f7f7f; stroke: #7f7f7f; stroke-width: 1.8"/>
      </g>
     </g>
     <g id="text_7">
      <!-- 15.0 -->
      <g style="fill: #7f7f7f" transform="translate(409.604638 204.656289) scale(0.1 -0.1)">
       <use xlink:href="#DejaVuSans-14"/>
       <use xlink:href="#DejaVuSans-18" transform="translate(63.625 0)"/>
       <use xlink:href="#DejaVuSans-11" transform="translate(127.25 0)"/>
       <use xlink:href="#DejaVuSans-13" transform="translate(159.03125 0)"/>
      </g>
     </g>
    </g>
    <g id="xtick_8">
     <g id="line2d_8">
      <g>
       <use xlink:href="#mc97dba5983" x="479.430179" y="190.058633" style="fill: #7f7f7f; stroke: #7f7f7f; stroke-width: 1.8"/>
      </g>
     </g>
     <g id="text_8">
      <!-- 17.5 -->
      <g style="fill: #7f7f7f" transform="translate(468.297367 204.656289) scale(0.1 -0.1)">
       <use xlink:href="#DejaVuSans-14"/>
       <use xlink:href="#DejaVuSans-1a" transform="translate(63.625 0)"/>
       <use xlink:href="#DejaVuSans-11" transform="translate(127.25 0)"/>
       <use xlink:href="#DejaVuSans-18" transform="translate(159.03125 0)"/>
      </g>
     </g>
    </g>
    <g id="xtick_9">
     <g id="line2d_9">
      <g>
       <use xlink:href="#mc97dba5983" x="538.122908" y="190.058633" style="fill: #7f7f7f; stroke: #7f7f7f; stroke-width: 1.8"/>
      </g>
     </g>
     <g id="text_9">
      <!-- 20.0 -->
      <g style="fill: #7f7f7f" transform="translate(526.990096 204.656289) scale(0.1 -0.1)">
       <use xlink:href="#DejaVuSans-15"/>
       <use xlink:href="#DejaVuSans-13" transform="translate(63.625 0)"/>
       <use xlink:href="#DejaVuSans-11" transform="translate(127.25 0)"/>
       <use xlink:href="#DejaVuSans-13" transform="translate(159.03125 0)"/>
      </g>
     </g>
    </g>
   </g>
   <g id="matplotlib.axis_2">
    <g id="ytick_1">
     <g id="line2d_10">
      <defs>
       <path id="m07a39eb52c" d="M 0 0 
L -3.5 0 
" style="stroke: #7f7f7f; stroke-width: 1.8"/>
      </defs>
      <g>
       <use xlink:href="#m07a39eb52c" x="45.103984" y="182.434064" style="fill: #7f7f7f; stroke: #7f7f7f; stroke-width: 1.8"/>
      </g>
     </g>
     <g id="text_10">
      <!-- 0.0 -->
      <g style="fill: #7f7f7f" transform="translate(22.200859 186.232892) scale(0.1 -0.1)">
       <use xlink:href="#DejaVuSans-13"/>
       <use xlink:href="#DejaVuSans-11" transform="translate(63.625 0)"/>
       <use xlink:href="#DejaVuSans-13" transform="translate(95.40625 0)"/>
      </g>
     </g>
    </g>
    <g id="ytick_2">
     <g id="line2d_11">
      <g>
       <use xlink:href="#m07a39eb52c" x="45.103984" y="151.828304" style="fill: #7f7f7f; stroke: #7f7f7f; stroke-width: 1.8"/>
      </g>
     </g>
     <g id="text_11">
      <!-- 0.1 -->
      <g style="fill: #7f7f7f" transform="translate(22.200859 155.627132) scale(0.1 -0.1)">
       <use xlink:href="#DejaVuSans-13"/>
       <use xlink:href="#DejaVuSans-11" transform="translate(63.625 0)"/>
       <use xlink:href="#DejaVuSans-14" transform="translate(95.40625 0)"/>
      </g>
     </g>
    </g>
    <g id="ytick_3">
     <g id="line2d_12">
      <g>
       <use xlink:href="#m07a39eb52c" x="45.103984" y="121.222544" style="fill: #7f7f7f; stroke: #7f7f7f; stroke-width: 1.8"/>
      </g>
     </g>
     <g id="text_12">
      <!-- 0.2 -->
      <g style="fill: #7f7f7f" transform="translate(22.200859 125.021372) scale(0.1 -0.1)">
       <use xlink:href="#DejaVuSans-13"/>
       <use xlink:href="#DejaVuSans-11" transform="translate(63.625 0)"/>
       <use xlink:href="#DejaVuSans-15" transform="translate(95.40625 0)"/>
      </g>
     </g>
    </g>
    <g id="ytick_4">
     <g id="line2d_13">
      <g>
       <use xlink:href="#m07a39eb52c" x="45.103984" y="90.616784" style="fill: #7f7f7f; stroke: #7f7f7f; stroke-width: 1.8"/>
      </g>
     </g>
     <g id="text_13">
      <!-- 0.3 -->
      <g style="fill: #7f7f7f" transform="translate(22.200859 94.415612) scale(0.1 -0.1)">
       <defs>
        <path id="DejaVuSans-16" d="M 2597 2516 
Q 3050 2419 3304 2112 
Q 3559 1806 3559 1356 
Q 3559 666 3084 287 
Q 2609 -91 1734 -91 
Q 1441 -91 1130 -33 
Q 819 25 488 141 
L 488 750 
Q 750 597 1062 519 
Q 1375 441 1716 441 
Q 2309 441 2620 675 
Q 2931 909 2931 1356 
Q 2931 1769 2642 2001 
Q 2353 2234 1838 2234 
L 1294 2234 
L 1294 2753 
L 1863 2753 
Q 2328 2753 2575 2939 
Q 2822 3125 2822 3475 
Q 2822 3834 2567 4026 
Q 2313 4219 1838 4219 
Q 1578 4219 1281 4162 
Q 984 4106 628 3988 
L 628 4550 
Q 988 4650 1302 4700 
Q 1616 4750 1894 4750 
Q 2613 4750 3031 4423 
Q 3450 4097 3450 3541 
Q 3450 3153 3228 2886 
Q 3006 2619 2597 2516 
z
" transform="scale(0.015625)"/>
       </defs>
       <use xlink:href="#DejaVuSans-13"/>
       <use xlink:href="#DejaVuSans-11" transform="translate(63.625 0)"/>
       <use xlink:href="#DejaVuSans-16" transform="translate(95.40625 0)"/>
      </g>
     </g>
    </g>
    <g id="ytick_5">
     <g id="line2d_14">
      <g>
       <use xlink:href="#m07a39eb52c" x="45.103984" y="60.011024" style="fill: #7f7f7f; stroke: #7f7f7f; stroke-width: 1.8"/>
      </g>
     </g>
     <g id="text_14">
      <!-- 0.4 -->
      <g style="fill: #7f7f7f" transform="translate(22.200859 63.809852) scale(0.1 -0.1)">
       <defs>
        <path id="DejaVuSans-17" d="M 2419 4116 
L 825 1625 
L 2419 1625 
L 2419 4116 
z
M 2253 4666 
L 3047 4666 
L 3047 1625 
L 3713 1625 
L 3713 1100 
L 3047 1100 
L 3047 0 
L 2419 0 
L 2419 1100 
L 313 1100 
L 313 1709 
L 2253 4666 
z
" transform="scale(0.015625)"/>
       </defs>
       <use xlink:href="#DejaVuSans-13"/>
       <use xlink:href="#DejaVuSans-11" transform="translate(63.625 0)"/>
       <use xlink:href="#DejaVuSans-17" transform="translate(95.40625 0)"/>
      </g>
     </g>
    </g>
    <g id="ytick_6">
     <g id="line2d_15">
      <g>
       <use xlink:href="#m07a39eb52c" x="45.103984" y="29.405264" style="fill: #7f7f7f; stroke: #7f7f7f; stroke-width: 1.8"/>
      </g>
     </g>
     <g id="text_15">
      <!-- 0.5 -->
      <g style="fill: #7f7f7f" transform="translate(22.200859 33.204093) scale(0.1 -0.1)">
       <use xlink:href="#DejaVuSans-13"/>
       <use xlink:href="#DejaVuSans-11" transform="translate(63.625 0)"/>
       <use xlink:href="#DejaVuSans-18" transform="translate(95.40625 0)"/>
      </g>
     </g>
    </g>
    <g id="text_16">
     <!-- Position Error [m] -->
     <g style="fill: #7f7f7f" transform="translate(15.558281 154.153535) rotate(-90) scale(0.11 -0.11)">
      <defs>
       <path id="DejaVuSans-33" d="M 1259 4147 
L 1259 2394 
L 2053 2394 
Q 2494 2394 2734 2622 
Q 2975 2850 2975 3272 
Q 2975 3691 2734 3919 
Q 2494 4147 2053 4147 
L 1259 4147 
z
M 628 4666 
L 2053 4666 
Q 2838 4666 3239 4311 
Q 3641 3956 3641 3272 
Q 3641 2581 3239 2228 
Q 2838 1875 2053 1875 
L 1259 1875 
L 1259 0 
L 628 0 
L 628 4666 
z
" transform="scale(0.015625)"/>
       <path id="DejaVuSans-52" d="M 1959 3097 
Q 1497 3097 1228 2736 
Q 959 2375 959 1747 
Q 959 1119 1226 758 
Q 1494 397 1959 397 
Q 2419 397 2687 759 
Q 2956 1122 2956 1747 
Q 2956 2369 2687 2733 
Q 2419 3097 1959 3097 
z
M 1959 3584 
Q 2709 3584 3137 3096 
Q 3566 2609 3566 1747 
Q 3566 888 3137 398 
Q 2709 -91 1959 -91 
Q 1206 -91 779 398 
Q 353 888 353 1747 
Q 353 2609 779 3096 
Q 1206 3584 1959 3584 
z
" transform="scale(0.015625)"/>
       <path id="DejaVuSans-56" d="M 2834 3397 
L 2834 2853 
Q 2591 2978 2328 3040 
Q 2066 3103 1784 3103 
Q 1356 3103 1142 2972 
Q 928 2841 928 2578 
Q 928 2378 1081 2264 
Q 1234 2150 1697 2047 
L 1894 2003 
Q 2506 1872 2764 1633 
Q 3022 1394 3022 966 
Q 3022 478 2636 193 
Q 2250 -91 1575 -91 
Q 1294 -91 989 -36 
Q 684 19 347 128 
L 347 722 
Q 666 556 975 473 
Q 1284 391 1588 391 
Q 1994 391 2212 530 
Q 2431 669 2431 922 
Q 2431 1156 2273 1281 
Q 2116 1406 1581 1522 
L 1381 1569 
Q 847 1681 609 1914 
Q 372 2147 372 2553 
Q 372 3047 722 3315 
Q 1072 3584 1716 3584 
Q 2034 3584 2315 3537 
Q 2597 3491 2834 3397 
z
" transform="scale(0.015625)"/>
       <path id="DejaVuSans-4c" d="M 603 3500 
L 1178 3500 
L 1178 0 
L 603 0 
L 603 3500 
z
M 603 4863 
L 1178 4863 
L 1178 4134 
L 603 4134 
L 603 4863 
z
" transform="scale(0.015625)"/>
       <path id="DejaVuSans-57" d="M 1172 4494 
L 1172 3500 
L 2356 3500 
L 2356 3053 
L 1172 3053 
L 1172 1153 
Q 1172 725 1289 603 
Q 1406 481 1766 481 
L 2356 481 
L 2356 0 
L 1766 0 
Q 1100 0 847 248 
Q 594 497 594 1153 
L 594 3053 
L 172 3053 
L 172 3500 
L 594 3500 
L 594 4494 
L 1172 4494 
z
" transform="scale(0.015625)"/>
       <path id="DejaVuSans-51" d="M 3513 2113 
L 3513 0 
L 2938 0 
L 2938 2094 
Q 2938 2591 2744 2837 
Q 2550 3084 2163 3084 
Q 1697 3084 1428 2787 
Q 1159 2491 1159 1978 
L 1159 0 
L 581 0 
L 581 3500 
L 1159 3500 
L 1159 2956 
Q 1366 3272 1645 3428 
Q 1925 3584 2291 3584 
Q 2894 3584 3203 3211 
Q 3513 2838 3513 2113 
z
" transform="scale(0.015625)"/>
       <path id="DejaVuSans-3" transform="scale(0.015625)"/>
       <path id="DejaVuSans-28" d="M 628 4666 
L 3578 4666 
L 3578 4134 
L 1259 4134 
L 1259 2753 
L 3481 2753 
L 3481 2222 
L 1259 2222 
L 1259 531 
L 3634 531 
L 3634 0 
L 628 0 
L 628 4666 
z
" transform="scale(0.015625)"/>
       <path id="DejaVuSans-55" d="M 2631 2963 
Q 2534 3019 2420 3045 
Q 2306 3072 2169 3072 
Q 1681 3072 1420 2755 
Q 1159 2438 1159 1844 
L 1159 0 
L 581 0 
L 581 3500 
L 1159 3500 
L 1159 2956 
Q 1341 3275 1631 3429 
Q 1922 3584 2338 3584 
Q 2397 3584 2469 3576 
Q 2541 3569 2628 3553 
L 2631 2963 
z
" transform="scale(0.015625)"/>
       <path id="DejaVuSans-3e" d="M 550 4863 
L 1875 4863 
L 1875 4416 
L 1125 4416 
L 1125 -397 
L 1875 -397 
L 1875 -844 
L 550 -844 
L 550 4863 
z
" transform="scale(0.015625)"/>
       <path id="DejaVuSans-50" d="M 3328 2828 
Q 3544 3216 3844 3400 
Q 4144 3584 4550 3584 
Q 5097 3584 5394 3201 
Q 5691 2819 5691 2113 
L 5691 0 
L 5113 0 
L 5113 2094 
Q 5113 2597 4934 2840 
Q 4756 3084 4391 3084 
Q 3944 3084 3684 2787 
Q 3425 2491 3425 1978 
L 3425 0 
L 2847 0 
L 2847 2094 
Q 2847 2600 2669 2842 
Q 2491 3084 2119 3084 
Q 1678 3084 1418 2786 
Q 1159 2488 1159 1978 
L 1159 0 
L 581 0 
L 581 3500 
L 1159 3500 
L 1159 2956 
Q 1356 3278 1631 3431 
Q 1906 3584 2284 3584 
Q 2666 3584 2933 3390 
Q 3200 3197 3328 2828 
z
" transform="scale(0.015625)"/>
       <path id="DejaVuSans-40" d="M 1947 4863 
L 1947 -844 
L 622 -844 
L 622 -397 
L 1369 -397 
L 1369 4416 
L 622 4416 
L 622 4863 
L 1947 4863 
z
" transform="scale(0.015625)"/>
      </defs>
      <use xlink:href="#DejaVuSans-33"/>
      <use xlink:href="#DejaVuSans-52" transform="translate(56.734375 0)"/>
      <use xlink:href="#DejaVuSans-56" transform="translate(117.921875 0)"/>
      <use xlink:href="#DejaVuSans-4c" transform="translate(170.015625 0)"/>
      <use xlink:href="#DejaVuSans-57" transform="translate(197.796875 0)"/>
      <use xlink:href="#DejaVuSans-4c" transform="translate(237 0)"/>
      <use xlink:href="#DejaVuSans-52" transform="translate(264.78125 0)"/>
      <use xlink:href="#DejaVuSans-51" transform="translate(325.96875 0)"/>
      <use xlink:href="#DejaVuSans-3" transform="translate(389.34375 0)"/>
      <use xlink:href="#DejaVuSans-28" transform="translate(421.125 0)"/>
      <use xlink:href="#DejaVuSans-55" transform="translate(484.3125 0)"/>
      <use xlink:href="#DejaVuSans-55" transform="translate(523.671875 0)"/>
      <use xlink:href="#DejaVuSans-52" transform="translate(562.578125 0)"/>
      <use xlink:href="#DejaVuSans-55" transform="translate(623.765625 0)"/>
      <use xlink:href="#DejaVuSans-3" transform="translate(664.875 0)"/>
      <use xlink:href="#DejaVuSans-3e" transform="translate(696.65625 0)"/>
      <use xlink:href="#DejaVuSans-50" transform="translate(735.671875 0)"/>
      <use xlink:href="#DejaVuSans-40" transform="translate(833.078125 0)"/>
     </g>
    </g>
   </g>
   <g id="line2d_16">
    <path d="M 68.581076 182.434064 
L 68.815847 176.312912 
L 69.050618 84.498815 
L 69.754931 174.493208 
L 70.694014 147.029474 
L 71.398327 168.603951 
L 71.163556 146.096918 
L 71.633098 157.121736 
L 72.806952 71.30038 
L 73.276494 83.813312 
L 74.919891 29.942694 
L 75.154662 48.085006 
L 76.093745 100.488273 
L 76.563287 98.600882 
L 76.798058 92.002798 
L 77.737142 48.808026 
L 79.380538 111.146731 
L 80.319622 84.650255 
L 80.554393 86.813934 
L 81.963018 130.036836 
L 83.371644 179.67067 
L 83.606415 177.136135 
L 85.719353 97.895361 
L 85.954124 104.6134 
L 87.832291 152.493116 
L 89.006146 136.733601 
L 89.240917 136.563352 
L 89.475688 137.038738 
L 90.18 125.584449 
L 90.414771 131.608591 
L 92.527709 168.082936 
L 92.76248 165.370735 
L 93.936335 155.566871 
L 94.171106 166.485244 
L 94.640648 157.543955 
L 95.814502 142.15703 
L 96.049273 145.522775 
L 96.284044 135.351347 
L 96.518815 135.982394 
L 96.753586 130.370243 
L 97.223128 141.134094 
L 97.457899 138.884984 
L 99.101295 169.629244 
L 99.336066 166.937825 
L 99.570837 174.158273 
L 100.040379 181.259797 
L 100.27515 177.470569 
L 100.509921 168.60707 
L 101.214233 178.844398 
L 101.449004 179.561365 
L 101.683775 178.579181 
L 102.153317 170.182339 
L 102.622859 180.314173 
L 103.092401 178.504715 
L 103.796713 163.150523 
L 104.266255 165.650735 
L 104.735797 173.25527 
L 104.970568 166.660631 
L 105.44011 150.305768 
L 106.144423 151.394422 
L 106.379194 151.186764 
L 107.318277 165.002412 
L 107.553048 160.446335 
L 108.257361 142.582221 
L 110.135528 103.281242 
L 110.370299 104.038557 
L 111.778925 74.079515 
L 112.013695 73.00704 
L 113.657092 97.705196 
L 114.126634 95.84913 
L 114.361405 104.704324 
L 114.830946 98.28966 
L 115.535259 87.961011 
L 115.77003 99.265783 
L 118.587281 139.40049 
L 118.822052 138.915436 
L 119.056823 133.989117 
L 119.291594 143.259874 
L 119.761136 154.68984 
L 120.230678 147.595183 
L 120.465448 148.172773 
L 122.108845 182.17732 
L 123.047929 181.982755 
L 123.282699 181.72159 
L 124.926096 156.45877 
L 125.160867 164.461664 
L 125.630409 181.997219 
L 126.569492 180.534536 
L 126.804263 175.925442 
L 127.039034 181.942911 
L 127.508576 177.775708 
L 127.978118 179.823102 
L 128.44766 171.141081 
L 128.682431 182.265136 
L 128.917201 179.863057 
L 129.151972 179.412089 
L 129.386743 182.08192 
L 129.856285 178.356117 
L 130.091056 177.48752 
L 130.795369 162.879761 
L 131.03014 173.829979 
L 131.264911 175.441894 
L 131.499682 174.552479 
L 132.203994 162.401087 
L 132.438765 168.730529 
L 132.673536 178.788263 
L 133.143078 175.022067 
L 133.377849 164.189132 
L 133.61262 180.715815 
L 133.847391 176.855322 
L 134.082162 179.650639 
L 134.316933 172.746316 
L 134.551703 173.415338 
L 135.021245 172.589905 
L 135.256016 173.973338 
L 136.429871 159.319509 
L 137.134184 168.035621 
L 137.368954 153.617288 
L 138.073267 164.868208 
L 139.481893 182.321332 
L 141.594831 135.859425 
L 142.768686 155.123823 
L 143.003456 145.000184 
L 143.707769 156.934393 
L 144.177311 147.072745 
L 144.646853 161.86817 
L 145.116395 154.304059 
L 145.351166 154.39326 
L 146.055478 139.323028 
L 146.994562 142.798601 
L 148.637958 159.87232 
L 149.577042 165.807374 
L 149.1075 159.004772 
L 149.811813 162.679788 
L 150.046584 161.476959 
L 150.985668 180.366566 
L 151.220438 177.120286 
L 152.629064 162.477915 
L 152.863835 165.616567 
L 153.098606 171.143271 
L 153.333377 164.360258 
L 153.802919 164.585658 
L 155.211544 137.010831 
L 156.150628 143.790376 
L 156.85494 124.992238 
L 157.559253 130.548947 
L 158.733108 103.170892 
L 159.437421 107.883574 
L 159.672191 116.716369 
L 159.906962 106.641666 
L 160.376504 111.897387 
L 161.080817 96.968054 
L 161.78513 98.806175 
L 162.254672 103.351678 
L 163.428526 120.34211 
L 164.36761 112.892215 
L 164.602381 116.809763 
L 166.95009 135.050486 
L 167.419632 127.641424 
L 167.654403 131.963579 
L 168.593486 161.968431 
L 169.063028 158.640212 
L 169.297799 167.40802 
L 169.767341 158.286431 
L 172.349821 121.220711 
L 172.819363 131.515666 
L 173.758446 137.225082 
L 173.993217 135.488913 
L 174.227988 133.033399 
L 176.106156 181.714021 
L 176.340927 180.234839 
L 177.045239 169.223463 
L 177.28001 173.74064 
L 178.219094 182.225217 
L 178.453865 182.115153 
L 179.627719 164.721709 
L 179.86249 173.689347 
L 180.332032 161.961973 
L 180.801574 155.481481 
L 181.036345 158.840104 
L 181.271116 165.145388 
L 181.505887 155.579434 
L 181.740658 150.647098 
L 182.210199 152.595629 
L 183.384054 176.148275 
L 183.618825 173.602671 
L 184.088367 169.452339 
L 184.557909 178.457444 
L 184.79268 171.351816 
L 185.496992 176.99979 
L 186.201305 181.492172 
L 186.436076 179.372495 
L 187.140389 163.159604 
L 187.37516 164.506014 
L 188.079472 178.209834 
L 188.549014 177.475607 
L 188.783785 172.53264 
L 189.253327 182.12158 
L 189.488098 176.521734 
L 189.95764 172.287469 
L 190.192411 172.881468 
L 190.427181 181.449003 
L 191.131494 181.342233 
L 192.774891 137.149475 
L 193.009662 138.870756 
L 193.244432 133.924195 
L 193.479203 144.344479 
L 193.713974 148.981809 
L 194.183516 138.936951 
L 194.653058 128.494224 
L 194.887829 135.892402 
L 196.531225 166.382951 
L 196.765996 165.155035 
L 197.000767 170.242752 
L 197.235538 159.350487 
L 198.409393 145.795638 
L 199.113705 166.255154 
L 199.583247 162.389145 
L 199.818018 161.110152 
L 200.522331 179.359366 
L 200.991873 175.710646 
L 202.165727 163.9489 
L 202.87004 182.289591 
L 203.339582 180.059027 
L 203.574353 182.280365 
L 203.809124 177.477625 
L 204.278666 181.271048 
L 206.626375 160.061776 
L 208.269771 182.349154 
L 209.208855 176.404086 
L 210.61748 153.452684 
L 212.026106 176.765456 
L 211.087022 151.757829 
L 212.260877 169.200195 
L 212.730419 163.756185 
L 212.965189 173.812409 
L 213.19996 178.765862 
L 213.669502 170.647169 
L 213.904273 170.892843 
L 214.139044 176.309325 
L 214.373815 173.275952 
L 214.608586 156.27662 
L 215.312899 172.807232 
L 215.54767 180.122742 
L 215.78244 170.175691 
L 216.017211 177.319357 
L 216.251982 169.573311 
L 216.721524 178.70584 
L 217.191066 181.879458 
L 217.425837 176.869613 
L 217.895379 173.102006 
L 218.13015 182.356685 
L 218.834462 178.554628 
L 219.538775 163.560119 
L 219.773546 153.74139 
L 220.243088 168.869715 
L 220.947401 181.290645 
L 221.416942 174.438967 
L 221.651713 162.724251 
L 221.886484 179.013225 
L 222.356026 175.797766 
L 222.590797 170.460947 
L 223.29511 172.668897 
L 223.529881 182.220482 
L 223.764652 167.627658 
L 225.173277 141.153678 
L 225.408048 143.96509 
L 225.87759 154.27239 
L 226.347132 145.828618 
L 227.520986 139.452262 
L 229.164383 164.025387 
L 230.573008 142.100057 
L 230.807779 146.407041 
L 231.04255 149.045368 
L 231.277321 148.894628 
L 231.981634 133.694494 
L 232.451175 137.331342 
L 232.685946 135.038382 
L 232.920717 137.511686 
L 234.329343 149.110298 
L 233.390259 137.146474 
L 234.564114 147.416897 
L 234.798885 149.110131 
L 235.033656 146.634223 
L 235.737968 132.418099 
L 235.972739 136.991987 
L 236.442281 144.669269 
L 236.911823 136.964894 
L 237.146594 131.077903 
L 237.616136 137.133752 
L 239.259532 156.130209 
L 239.494303 154.05425 
L 240.198616 138.233237 
L 240.668158 143.293958 
L 241.842012 175.368538 
L 242.546325 162.133255 
L 244.189721 139.672292 
L 243.250638 163.686199 
L 244.424492 139.811479 
L 244.659263 133.011497 
L 245.128805 144.912391 
L 245.363576 139.78638 
L 246.30266 129.515705 
L 245.833118 143.287871 
L 246.53743 131.589079 
L 247.006972 142.020673 
L 247.241743 130.306987 
L 247.476514 137.124652 
L 248.415598 127.016283 
L 248.88514 128.690781 
L 249.119911 129.734243 
L 249.589452 144.880124 
L 250.293765 134.78047 
L 250.528536 132.070304 
L 250.763307 137.292474 
L 251.232849 144.814739 
L 251.702391 139.302868 
L 253.111016 127.83879 
L 255.928267 181.214774 
L 256.867351 173.936982 
L 259.449831 147.175119 
L 259.919373 142.269032 
L 260.858456 120.992474 
L 261.093227 127.948535 
L 262.032311 150.361971 
L 262.501853 144.023267 
L 262.736624 139.597652 
L 262.971395 145.38526 
L 264.849562 170.107611 
L 263.440936 138.153011 
L 265.084333 169.773975 
L 265.553875 160.99544 
L 266.023417 169.39151 
L 266.492958 182.357303 
L 266.9625 180.154352 
L 267.197271 172.81169 
L 267.666813 182.418265 
L 267.901584 179.3699 
L 268.840668 171.817255 
L 269.54498 182.181194 
L 270.014522 180.59713 
L 270.249293 182.137753 
L 270.484064 174.493101 
L 271.188377 178.769539 
L 271.423148 178.728116 
L 271.657919 169.438137 
L 271.892689 181.920432 
L 272.362231 173.594851 
L 272.597002 173.8458 
L 272.831773 173.482266 
L 273.536086 182.272647 
L 273.770857 178.195619 
L 274.475169 174.591161 
L 274.240399 180.150428 
L 274.70994 175.205341 
L 274.944711 182.263548 
L 275.414253 173.76184 
L 275.649024 176.117851 
L 276.118566 165.588032 
L 276.588108 173.487115 
L 277.05765 172.692138 
L 277.761962 181.454108 
L 279.170588 142.511257 
L 279.64013 140.826225 
L 280.579213 156.271538 
L 281.283526 144.44976 
L 282.457381 162.863173 
L 283.631235 172.028255 
L 283.396464 162.27049 
L 283.866006 171.319464 
L 284.100777 166.199072 
L 284.570319 177.245998 
L 284.80509 179.652292 
L 285.039861 177.777992 
L 285.274632 169.761158 
L 285.978944 170.190567 
L 286.448486 181.047107 
L 286.918028 175.259956 
L 287.622341 160.70206 
L 289.265737 121.603158 
L 290.909134 99.355197 
L 291.143905 102.925147 
L 291.613446 109.833798 
L 292.317759 107.4821 
L 292.55253 97.383798 
L 293.022072 108.315976 
L 293.256843 106.350702 
L 293.961156 98.08171 
L 294.195926 104.910046 
L 294.430697 108.229104 
L 294.665468 102.378841 
L 295.13501 107.905195 
L 295.369781 107.265083 
L 297.013177 124.443867 
L 297.247948 119.921187 
L 297.71749 124.972869 
L 298.421803 144.644692 
L 299.360887 140.843322 
L 299.830428 137.431588 
L 300.065199 140.969432 
L 300.769512 158.423178 
L 301.004283 149.951726 
L 301.708596 144.83003 
L 301.943367 145.198564 
L 302.178138 147.477378 
L 302.412909 147.19799 
L 302.647679 140.286457 
L 303.117221 148.312232 
L 304.291076 164.504422 
L 303.586763 148.20361 
L 304.760618 159.620525 
L 305.23016 155.516028 
L 305.46493 164.274777 
L 306.169243 178.266595 
L 306.638785 176.216745 
L 307.81264 151.24424 
L 308.047411 164.798223 
L 308.751723 154.953323 
L 308.986494 144.907876 
L 309.221265 153.839037 
L 309.456036 170.119727 
L 310.160349 169.714349 
L 311.334203 143.238908 
L 311.568974 147.326632 
L 312.038516 157.045925 
L 312.508058 155.717219 
L 312.742829 150.206425 
L 313.212371 157.603779 
L 313.447142 163.363266 
L 313.916683 161.596703 
L 314.151454 150.239467 
L 314.855767 160.254715 
L 315.090538 162.379316 
L 315.325309 155.514638 
L 316.029622 143.19922 
L 316.499163 151.852207 
L 316.733934 153.778776 
L 316.968705 148.868679 
L 317.203476 140.648425 
L 317.673018 151.436933 
L 317.907789 153.946128 
L 318.14256 146.830419 
L 318.377331 150.734694 
L 318.846873 140.953803 
L 319.316414 148.49572 
L 320.490269 179.473208 
L 320.959811 179.083705 
L 322.368436 147.976245 
L 322.603207 154.459756 
L 324.011833 181.5892 
L 324.246604 176.686404 
L 325.185687 153.819711 
L 325.655229 164.905631 
L 325.89 171.126339 
L 326.359542 162.93876 
L 327.063855 147.770074 
L 327.768167 148.742717 
L 329.411564 179.62327 
L 330.115877 172.635271 
L 329.881106 179.732834 
L 330.350648 176.391757 
L 330.585418 178.309042 
L 330.820189 174.806629 
L 331.05496 172.718039 
L 331.289731 174.518555 
L 331.524502 178.344042 
L 331.994044 172.559293 
L 332.933128 154.903442 
L 333.167899 166.108032 
L 333.402669 181.528833 
L 334.341753 178.114707 
L 334.811295 169.498747 
L 335.280837 178.105004 
L 335.515608 177.465699 
L 335.750379 163.235766 
L 336.454691 167.94479 
L 336.689462 177.844924 
L 337.393775 174.867934 
L 337.628546 167.570077 
L 338.098088 181.859887 
L 339.271942 175.040329 
L 339.506713 180.175564 
L 339.741484 181.277589 
L 339.976255 180.784693 
L 340.680568 159.580864 
L 341.619652 164.731998 
L 342.793506 178.504156 
L 343.263048 175.356021 
L 344.202132 160.073015 
L 344.436903 161.535957 
L 344.671673 169.769717 
L 345.141215 153.946477 
L 345.610757 142.213154 
L 346.080299 147.466571 
L 346.784612 160.407404 
L 347.254154 153.011173 
L 349.367092 124.906506 
L 349.836634 125.876912 
L 351.245259 141.477349 
L 350.306175 124.496714 
L 351.714801 133.964035 
L 351.949572 133.752783 
L 352.419114 143.731908 
L 354.06251 178.828723 
L 355.471136 170.679312 
L 356.410219 148.253879 
L 356.64499 157.607881 
L 357.818845 168.635904 
L 357.349303 157.261604 
L 358.053616 168.477712 
L 358.523157 182.295777 
L 359.462241 178.410313 
L 359.697012 177.812172 
L 360.166554 168.297667 
L 360.636096 171.552026 
L 361.340408 182.155435 
L 361.80995 178.575734 
L 362.044721 176.756997 
L 362.279492 179.254734 
L 362.514263 178.306696 
L 362.749034 181.627188 
L 362.983805 176.045894 
L 363.218576 181.262013 
L 364.39243 173.047161 
L 364.627201 178.620753 
L 364.861972 172.800824 
L 365.801056 154.097957 
L 366.035827 158.074517 
L 366.97491 147.027687 
L 366.505369 160.104199 
L 367.209681 152.585248 
L 367.679223 158.196155 
L 367.913994 156.426823 
L 368.853078 138.124492 
L 369.087849 143.512526 
L 370.731245 167.139792 
L 370.966016 156.641917 
L 371.200787 147.332738 
L 371.670329 158.674427 
L 372.139871 147.93196 
L 372.374642 154.67299 
L 372.844183 145.009603 
L 373.078954 144.249489 
L 373.313725 146.571696 
L 373.783267 123.828283 
L 374.48758 131.646514 
L 374.957122 135.611686 
L 375.191893 134.609582 
L 375.426663 130.143042 
L 375.896205 136.21337 
L 376.130976 142.461528 
L 376.600518 134.027649 
L 377.07006 141.603142 
L 377.304831 140.258945 
L 377.539602 142.647355 
L 378.948227 157.934868 
L 379.182998 160.375846 
L 379.65254 155.170477 
L 379.887311 156.434493 
L 381.530707 141.996231 
L 381.765478 143.597069 
L 382.000249 133.927433 
L 382.704562 136.457466 
L 382.939333 136.793337 
L 383.174104 144.30139 
L 383.408875 134.428119 
L 383.878416 140.826683 
L 384.8175 127.81521 
L 384.347958 143.952107 
L 385.287042 132.868422 
L 386.460897 152.581034 
L 386.695667 142.521105 
L 388.573835 167.109563 
L 389.043377 182.113905 
L 389.747689 180.953614 
L 389.98246 182.023364 
L 390.217231 181.346752 
L 390.921544 182.045073 
L 392.095399 155.430426 
L 393.034482 181.530465 
L 393.738795 179.495908 
L 394.443108 158.670873 
L 394.91265 167.245828 
L 396.086504 182.066792 
L 396.556046 181.693616 
L 397.260359 172.791164 
L 397.49513 177.919784 
L 397.7299 182.194538 
L 397.964671 173.171935 
L 398.199442 177.006534 
L 398.668984 159.541788 
L 399.373297 172.064727 
L 399.608068 173.735705 
L 399.842839 171.26846 
L 400.312381 167.189797 
L 400.781922 180.794583 
L 401.486235 178.991732 
L 401.955777 180.531846 
L 402.425319 163.739294 
L 402.894861 167.649767 
L 403.129632 174.198826 
L 403.599173 163.811171 
L 403.833944 161.704906 
L 404.068715 174.035221 
L 404.773028 164.589085 
L 405.007799 165.762719 
L 405.24257 164.012735 
L 407.355508 141.10683 
L 407.590279 143.402075 
L 408.294592 148.812898 
L 408.764134 130.077868 
L 409.468446 141.813288 
L 410.642301 154.945676 
L 410.877072 143.552536 
L 411.581385 156.152294 
L 412.99001 180.571865 
L 414.398636 165.84361 
L 414.868177 169.015874 
L 416.042032 153.241749 
L 416.981116 177.274848 
L 417.215887 174.426934 
L 417.450657 175.210163 
L 417.685428 180.659666 
L 418.389741 174.506983 
L 418.624512 160.862913 
L 419.328825 176.016172 
L 419.798367 179.92861 
L 420.033138 179.532345 
L 421.441763 167.519639 
L 421.911305 163.322979 
L 422.146076 171.732954 
L 422.615618 155.313136 
L 423.31993 138.8641 
L 423.789472 140.291871 
L 424.259014 144.879416 
L 424.728556 140.936951 
L 425.198098 131.796057 
L 425.66764 139.347754 
L 426.137181 142.756324 
L 426.371952 139.718739 
L 426.841494 127.686505 
L 427.076265 140.557814 
L 427.311036 155.617601 
L 427.780578 137.564593 
L 428.25012 133.333405 
L 428.484891 135.347243 
L 429.189203 151.492638 
L 429.658745 145.385709 
L 430.128287 131.03256 
L 430.597829 139.500135 
L 431.302142 161.850674 
L 431.536912 152.210368 
L 431.771683 143.706798 
L 432.241225 156.721472 
L 432.945538 166.997812 
L 433.180309 159.811242 
L 434.354163 135.332491 
L 434.588934 141.58449 
L 436.467102 181.488868 
L 436.701873 172.504054 
L 437.406185 179.980468 
L 438.58004 167.40155 
L 437.875727 180.396414 
L 438.814811 173.264183 
L 439.049582 179.259007 
L 439.284353 170.17039 
L 441.397291 118.425508 
L 444.214542 157.52312 
L 444.918855 148.826778 
L 446.32748 164.967635 
L 446.797022 157.348656 
L 447.031793 156.929321 
L 448.205647 181.402645 
L 448.440418 172.821862 
L 448.675189 171.360609 
L 448.90996 175.42289 
L 449.849044 182.19597 
L 451.022898 151.504762 
L 451.257669 160.942353 
L 451.727211 160.580572 
L 452.901066 182.210932 
L 453.370608 175.373675 
L 454.309691 155.603715 
L 454.544462 159.089174 
L 455.014004 177.991408 
L 455.483546 156.146275 
L 457.596484 180.427922 
L 459.239881 163.301163 
L 459.474651 167.476301 
L 459.709422 165.696718 
L 461.58759 124.456311 
L 462.057132 119.618025 
L 462.761444 128.81713 
L 462.996215 126.428027 
L 463.230986 130.785037 
L 463.700528 135.496363 
L 463.935299 124.301152 
L 464.404841 131.206827 
L 464.874383 142.977447 
L 465.578695 140.023108 
L 466.048237 132.727022 
L 466.283008 134.753247 
L 467.926404 170.510275 
L 468.630717 155.562457 
L 468.865488 157.520166 
L 470.274114 178.813315 
L 470.743655 168.902603 
L 470.978426 180.760708 
L 471.213197 181.659091 
L 471.447968 179.68373 
L 472.152281 170.365941 
L 472.621823 174.773155 
L 472.856594 181.037606 
L 473.560906 177.571993 
L 473.795677 173.449246 
L 474.265219 181.241994 
L 474.49999 175.551069 
L 474.734761 177.26699 
L 475.204303 176.051468 
L 477.552012 147.0245 
L 477.786783 148.456214 
L 478.256325 146.820768 
L 478.960637 157.695251 
L 479.430179 139.763663 
L 479.899721 156.330056 
L 480.134492 165.948839 
L 480.604034 151.139458 
L 481.543118 130.843554 
L 481.777888 136.554637 
L 482.012659 136.992355 
L 483.421285 120.828215 
L 483.890827 123.210492 
L 484.360369 122.138456 
L 484.595139 123.50724 
L 485.064681 122.176706 
L 485.768994 131.694983 
L 486.003765 123.789499 
L 486.708078 125.771066 
L 486.942849 127.572704 
L 487.17762 139.514446 
L 487.647161 125.476882 
L 488.351474 108.278219 
L 488.821016 112.253542 
L 491.168725 164.252265 
L 492.577351 180.196165 
L 493.281663 181.423592 
L 494.220747 151.483275 
L 494.690289 151.097308 
L 495.159831 155.813603 
L 495.864143 141.75738 
L 496.098914 143.398822 
L 496.333685 153.958892 
L 496.568456 142.560464 
L 497.037998 143.85176 
L 497.272769 141.932572 
L 497.50754 149.62374 
L 497.977082 144.634255 
L 498.916165 137.837489 
L 499.150936 142.770485 
L 499.620478 139.761427 
L 500.324791 110.960096 
L 500.794333 119.515084 
L 502.202958 138.695716 
L 502.437729 128.117449 
L 503.376813 107.627349 
L 503.611584 111.566423 
L 503.846355 111.14803 
L 504.315896 125.280565 
L 505.020209 116.775541 
L 505.724522 112.095059 
L 505.959293 115.554822 
L 506.428835 125.845533 
L 506.663606 120.926086 
L 507.602689 104.056298 
L 509.246086 141.443974 
L 509.480857 142.467899 
L 509.950398 164.576463 
L 510.654711 156.252416 
L 510.889482 152.784892 
L 511.359024 157.52229 
L 511.593795 171.129252 
L 512.298108 163.301168 
L 512.532879 167.089342 
L 513.237191 165.837866 
L 513.471962 162.515375 
L 513.706733 165.196678 
L 514.176275 179.05461 
L 514.645817 171.556814 
L 514.880588 171.313891 
L 515.115359 179.410305 
L 515.5849 170.566616 
L 515.819671 173.355202 
L 516.289213 162.922267 
L 516.758755 167.361006 
L 517.228297 173.026532 
L 517.463068 164.858083 
L 517.697839 166.03726 
L 518.402151 176.244994 
L 518.636922 171.006161 
L 520.045548 146.134732 
L 520.280319 152.482103 
L 520.984631 164.721501 
L 521.219402 156.7448 
L 521.454173 157.550227 
L 522.393257 144.664843 
L 522.628028 146.948935 
L 523.332341 169.297983 
L 524.271424 165.581916 
L 524.506195 160.774814 
L 524.975737 171.378142 
L 525.210508 175.808353 
L 525.68005 169.43091 
L 525.914821 174.617877 
L 526.853904 147.945719 
L 527.558217 154.91335 
L 527.792988 168.216801 
L 528.497301 151.803426 
L 529.905926 175.265619 
L 530.140697 165.96855 
L 530.84501 175.76129 
L 531.784094 164.50127 
L 532.488406 168.425806 
L 532.957948 182.158251 
L 533.42749 169.816622 
L 533.662261 170.573336 
L 533.897032 162.427284 
L 534.366574 169.008017 
L 535.305657 181.28995 
L 535.775199 180.508314 
L 536.479512 169.35247 
L 537.183825 172.944593 
L 538.122908 176.924195 
L 538.122908 176.924195 
" clip-path="url(#p4c3988226f)" style="fill: none; stroke: #e41a1c; stroke-width: 2; stroke-linecap: square"/>
   </g>
   <g id="patch_3">
    <path d="M 45.103984 190.058633 
L 45.103984 22.318125 
" style="fill: none; stroke: #7f7f7f; stroke-width: 1.8; stroke-linejoin: miter; stroke-linecap: square"/>
   </g>
   <g id="patch_4">
    <path d="M 45.103984 190.058633 
L 561.6 190.058633 
" style="fill: none; stroke: #7f7f7f; stroke-width: 1.8; stroke-linejoin: miter; stroke-linecap: square"/>
   </g>
   <g id="text_17">
    <!-- Kalman Filter Estimation Error -->
    <g style="fill: #7f7f7f" transform="translate(200.338555 16.318125) scale(0.12 -0.12)">
     <defs>
      <path id="DejaVuSans-Bold-2e" d="M 588 4666 
L 1791 4666 
L 1791 2963 
L 3525 4666 
L 4922 4666 
L 2675 2456 
L 5153 0 
L 3647 0 
L 1791 1838 
L 1791 0 
L 588 0 
L 588 4666 
z
" transform="scale(0.015625)"/>
      <path id="DejaVuSans-Bold-44" d="M 2106 1575 
Q 1756 1575 1579 1456 
Q 1403 1338 1403 1106 
Q 1403 894 1545 773 
Q 1688 653 1941 653 
Q 2256 653 2472 879 
Q 2688 1106 2688 1447 
L 2688 1575 
L 2106 1575 
z
M 3816 1997 
L 3816 0 
L 2688 0 
L 2688 519 
Q 2463 200 2181 54 
Q 1900 -91 1497 -91 
Q 953 -91 614 226 
Q 275 544 275 1050 
Q 275 1666 698 1953 
Q 1122 2241 2028 2241 
L 2688 2241 
L 2688 2328 
Q 2688 2594 2478 2717 
Q 2269 2841 1825 2841 
Q 1466 2841 1156 2769 
Q 847 2697 581 2553 
L 581 3406 
Q 941 3494 1303 3539 
Q 1666 3584 2028 3584 
Q 2975 3584 3395 3211 
Q 3816 2838 3816 1997 
z
" transform="scale(0.015625)"/>
      <path id="DejaVuSans-Bold-4f" d="M 538 4863 
L 1656 4863 
L 1656 0 
L 538 0 
L 538 4863 
z
" transform="scale(0.015625)"/>
      <path id="DejaVuSans-Bold-50" d="M 3781 2919 
Q 3994 3244 4286 3414 
Q 4578 3584 4928 3584 
Q 5531 3584 5847 3212 
Q 6163 2841 6163 2131 
L 6163 0 
L 5038 0 
L 5038 1825 
Q 5041 1866 5042 1909 
Q 5044 1953 5044 2034 
Q 5044 2406 4934 2573 
Q 4825 2741 4581 2741 
Q 4263 2741 4089 2478 
Q 3916 2216 3909 1719 
L 3909 0 
L 2784 0 
L 2784 1825 
Q 2784 2406 2684 2573 
Q 2584 2741 2328 2741 
Q 2006 2741 1831 2477 
Q 1656 2213 1656 1722 
L 1656 0 
L 531 0 
L 531 3500 
L 1656 3500 
L 1656 2988 
Q 1863 3284 2130 3434 
Q 2397 3584 2719 3584 
Q 3081 3584 3359 3409 
Q 3638 3234 3781 2919 
z
" transform="scale(0.015625)"/>
      <path id="DejaVuSans-Bold-51" d="M 4056 2131 
L 4056 0 
L 2931 0 
L 2931 347 
L 2931 1631 
Q 2931 2084 2911 2256 
Q 2891 2428 2841 2509 
Q 2775 2619 2662 2680 
Q 2550 2741 2406 2741 
Q 2056 2741 1856 2470 
Q 1656 2200 1656 1722 
L 1656 0 
L 538 0 
L 538 3500 
L 1656 3500 
L 1656 2988 
Q 1909 3294 2193 3439 
Q 2478 3584 2822 3584 
Q 3428 3584 3742 3212 
Q 4056 2841 4056 2131 
z
" transform="scale(0.015625)"/>
      <path id="DejaVuSans-Bold-3" transform="scale(0.015625)"/>
      <path id="DejaVuSans-Bold-29" d="M 588 4666 
L 3834 4666 
L 3834 3756 
L 1791 3756 
L 1791 2888 
L 3713 2888 
L 3713 1978 
L 1791 1978 
L 1791 0 
L 588 0 
L 588 4666 
z
" transform="scale(0.015625)"/>
      <path id="DejaVuSans-Bold-4c" d="M 538 3500 
L 1656 3500 
L 1656 0 
L 538 0 
L 538 3500 
z
M 538 4863 
L 1656 4863 
L 1656 3950 
L 538 3950 
L 538 4863 
z
" transform="scale(0.015625)"/>
      <path id="DejaVuSans-Bold-57" d="M 1759 4494 
L 1759 3500 
L 2913 3500 
L 2913 2700 
L 1759 2700 
L 1759 1216 
Q 1759 972 1856 886 
Q 1953 800 2241 800 
L 2816 800 
L 2816 0 
L 1856 0 
Q 1194 0 917 276 
Q 641 553 641 1216 
L 641 2700 
L 84 2700 
L 84 3500 
L 641 3500 
L 641 4494 
L 1759 4494 
z
" transform="scale(0.015625)"/>
      <path id="DejaVuSans-Bold-48" d="M 4031 1759 
L 4031 1441 
L 1416 1441 
Q 1456 1047 1700 850 
Q 1944 653 2381 653 
Q 2734 653 3104 758 
Q 3475 863 3866 1075 
L 3866 213 
Q 3469 63 3072 -14 
Q 2675 -91 2278 -91 
Q 1328 -91 801 392 
Q 275 875 275 1747 
Q 275 2603 792 3093 
Q 1309 3584 2216 3584 
Q 3041 3584 3536 3087 
Q 4031 2591 4031 1759 
z
M 2881 2131 
Q 2881 2450 2695 2645 
Q 2509 2841 2209 2841 
Q 1884 2841 1681 2658 
Q 1478 2475 1428 2131 
L 2881 2131 
z
" transform="scale(0.015625)"/>
      <path id="DejaVuSans-Bold-55" d="M 3138 2547 
Q 2991 2616 2845 2648 
Q 2700 2681 2553 2681 
Q 2122 2681 1889 2404 
Q 1656 2128 1656 1613 
L 1656 0 
L 538 0 
L 538 3500 
L 1656 3500 
L 1656 2925 
Q 1872 3269 2151 3426 
Q 2431 3584 2822 3584 
Q 2878 3584 2943 3579 
Q 3009 3575 3134 3559 
L 3138 2547 
z
" transform="scale(0.015625)"/>
      <path id="DejaVuSans-Bold-28" d="M 588 4666 
L 3834 4666 
L 3834 3756 
L 1791 3756 
L 1791 2888 
L 3713 2888 
L 3713 1978 
L 1791 1978 
L 1791 909 
L 3903 909 
L 3903 0 
L 588 0 
L 588 4666 
z
" transform="scale(0.015625)"/>
      <path id="DejaVuSans-Bold-56" d="M 3272 3391 
L 3272 2541 
Q 2913 2691 2578 2766 
Q 2244 2841 1947 2841 
Q 1628 2841 1473 2761 
Q 1319 2681 1319 2516 
Q 1319 2381 1436 2309 
Q 1553 2238 1856 2203 
L 2053 2175 
Q 2913 2066 3209 1816 
Q 3506 1566 3506 1031 
Q 3506 472 3093 190 
Q 2681 -91 1863 -91 
Q 1516 -91 1145 -36 
Q 775 19 384 128 
L 384 978 
Q 719 816 1070 734 
Q 1422 653 1784 653 
Q 2113 653 2278 743 
Q 2444 834 2444 1013 
Q 2444 1163 2330 1236 
Q 2216 1309 1875 1350 
L 1678 1375 
Q 931 1469 631 1722 
Q 331 1975 331 2491 
Q 331 3047 712 3315 
Q 1094 3584 1881 3584 
Q 2191 3584 2531 3537 
Q 2872 3491 3272 3391 
z
" transform="scale(0.015625)"/>
      <path id="DejaVuSans-Bold-52" d="M 2203 2784 
Q 1831 2784 1636 2517 
Q 1441 2250 1441 1747 
Q 1441 1244 1636 976 
Q 1831 709 2203 709 
Q 2569 709 2762 976 
Q 2956 1244 2956 1747 
Q 2956 2250 2762 2517 
Q 2569 2784 2203 2784 
z
M 2203 3584 
Q 3106 3584 3614 3096 
Q 4122 2609 4122 1747 
Q 4122 884 3614 396 
Q 3106 -91 2203 -91 
Q 1297 -91 786 396 
Q 275 884 275 1747 
Q 275 2609 786 3096 
Q 1297 3584 2203 3584 
z
" transform="scale(0.015625)"/>
     </defs>
     <use xlink:href="#DejaVuSans-Bold-2e"/>
     <use xlink:href="#DejaVuSans-Bold-44" transform="translate(77.484375 0)"/>
     <use xlink:href="#DejaVuSans-Bold-4f" transform="translate(144.96875 0)"/>
     <use xlink:href="#DejaVuSans-Bold-50" transform="translate(179.25 0)"/>
     <use xlink:href="#DejaVuSans-Bold-44" transform="translate(283.453125 0)"/>
     <use xlink:href="#DejaVuSans-Bold-51" transform="translate(350.9375 0)"/>
     <use xlink:href="#DejaVuSans-Bold-3" transform="translate(422.125 0)"/>
     <use xlink:href="#DejaVuSans-Bold-29" transform="translate(456.9375 0)"/>
     <use xlink:href="#DejaVuSans-Bold-4c" transform="translate(525.25 0)"/>
     <use xlink:href="#DejaVuSans-Bold-4f" transform="translate(559.53125 0)"/>
     <use xlink:href="#DejaVuSans-Bold-57" transform="translate(593.8125 0)"/>
     <use xlink:href="#DejaVuSans-Bold-48" transform="translate(641.609375 0)"/>
     <use xlink:href="#DejaVuSans-Bold-55" transform="translate(709.4375 0)"/>
     <use xlink:href="#DejaVuSans-Bold-3" transform="translate(758.75 0)"/>
     <use xlink:href="#DejaVuSans-Bold-28" transform="translate(793.5625 0)"/>
     <use xlink:href="#DejaVuSans-Bold-56" transform="translate(861.875 0)"/>
     <use xlink:href="#DejaVuSans-Bold-57" transform="translate(921.390625 0)"/>
     <use xlink:href="#DejaVuSans-Bold-4c" transform="translate(969.1875 0)"/>
     <use xlink:href="#DejaVuSans-Bold-50" transform="translate(1003.46875 0)"/>
     <use xlink:href="#DejaVuSans-Bold-44" transform="translate(1107.671875 0)"/>
     <use xlink:href="#DejaVuSans-Bold-57" transform="translate(1175.15625 0)"/>
     <use xlink:href="#DejaVuSans-Bold-4c" transform="translate(1222.953125 0)"/>
     <use xlink:href="#DejaVuSans-Bold-52" transform="translate(1257.234375 0)"/>
     <use xlink:href="#DejaVuSans-Bold-51" transform="translate(1325.9375 0)"/>
     <use xlink:href="#DejaVuSans-Bold-3" transform="translate(1397.125 0)"/>
     <use xlink:href="#DejaVuSans-Bold-28" transform="translate(1431.9375 0)"/>
     <use xlink:href="#DejaVuSans-Bold-55" transform="translate(1500.25 0)"/>
     <use xlink:href="#DejaVuSans-Bold-55" transform="translate(1549.5625 0)"/>
     <use xlink:href="#DejaVuSans-Bold-52" transform="translate(1598.875 0)"/>
     <use xlink:href="#DejaVuSans-Bold-55" transform="translate(1667.578125 0)"/>
    </g>
   </g>
  </g>
  <g id="axes_2">
   <g id="patch_5">
    <path d="M 45.103984 385.599141 
L 561.6 385.599141 
L 561.6 217.858633 
L 45.103984 217.858633 
L 45.103984 385.599141 
z
" style="fill: none"/>
   </g>
   <g id="matplotlib.axis_3">
    <g id="xtick_10">
     <g id="line2d_17">
      <g>
       <use xlink:href="#mc97dba5983" x="68.581076" y="385.599141" style="fill: #7f7f7f; stroke: #7f7f7f; stroke-width: 1.8"/>
      </g>
     </g>
     <g id="text_18">
      <!-- 0.0 -->
      <g style="fill: #7f7f7f" transform="translate(60.629513 400.196797) scale(0.1 -0.1)">
       <use xlink:href="#DejaVuSans-13"/>
       <use xlink:href="#DejaVuSans-11" transform="translate(63.625 0)"/>
       <use xlink:href="#DejaVuSans-13" transform="translate(95.40625 0)"/>
      </g>
     </g>
    </g>
    <g id="xtick_11">
     <g id="line2d_18">
      <g>
       <use xlink:href="#mc97dba5983" x="127.273805" y="385.599141" style="fill: #7f7f7f; stroke: #7f7f7f; stroke-width: 1.8"/>
      </g>
     </g>
     <g id="text_19">
      <!-- 2.5 -->
      <g style="fill: #7f7f7f" transform="translate(119.322243 400.196797) scale(0.1 -0.1)">
       <use xlink:href="#DejaVuSans-15"/>
       <use xlink:href="#DejaVuSans-11" transform="translate(63.625 0)"/>
       <use xlink:href="#DejaVuSans-18" transform="translate(95.40625 0)"/>
      </g>
     </g>
    </g>
    <g id="xtick_12">
     <g id="line2d_19">
      <g>
       <use xlink:href="#mc97dba5983" x="185.966534" y="385.599141" style="fill: #7f7f7f; stroke: #7f7f7f; stroke-width: 1.8"/>
      </g>
     </g>
     <g id="text_20">
      <!-- 5.0 -->
      <g style="fill: #7f7f7f" transform="translate(178.014972 400.196797) scale(0.1 -0.1)">
       <use xlink:href="#DejaVuSans-18"/>
       <use xlink:href="#DejaVuSans-11" transform="translate(63.625 0)"/>
       <use xlink:href="#DejaVuSans-13" transform="translate(95.40625 0)"/>
      </g>
     </g>
    </g>
    <g id="xtick_13">
     <g id="line2d_20">
      <g>
       <use xlink:href="#mc97dba5983" x="244.659263" y="385.599141" style="fill: #7f7f7f; stroke: #7f7f7f; stroke-width: 1.8"/>
      </g>
     </g>
     <g id="text_21">
      <!-- 7.5 -->
      <g style="fill: #7f7f7f" transform="translate(236.707701 400.196797) scale(0.1 -0.1)">
       <use xlink:href="#DejaVuSans-1a"/>
       <use xlink:href="#DejaVuSans-11" transform="translate(63.625 0)"/>
       <use xlink:href="#DejaVuSans-18" transform="translate(95.40625 0)"/>
      </g>
     </g>
    </g>
    <g id="xtick_14">
     <g id="line2d_21">
      <g>
       <use xlink:href="#mc97dba5983" x="303.351992" y="385.599141" style="fill: #7f7f7f; stroke: #7f7f7f; stroke-width: 1.8"/>
      </g>
     </g>
     <g id="text_22">
      <!-- 10.0 -->
      <g style="fill: #7f7f7f" transform="translate(292.21918 400.196797) scale(0.1 -0.1)">
       <use xlink:href="#DejaVuSans-14"/>
       <use xlink:href="#DejaVuSans-13" transform="translate(63.625 0)"/>
       <use xlink:href="#DejaVuSans-11" transform="translate(127.25 0)"/>
       <use xlink:href="#DejaVuSans-13" transform="translate(159.03125 0)"/>
      </g>
     </g>
    </g>
    <g id="xtick_15">
     <g id="line2d_22">
      <g>
       <use xlink:href="#mc97dba5983" x="362.044721" y="385.599141" style="fill: #7f7f7f; stroke: #7f7f7f; stroke-width: 1.8"/>
      </g>
     </g>
     <g id="text_23">
      <!-- 12.5 -->
      <g style="fill: #7f7f7f" transform="translate(350.911909 400.196797) scale(0.1 -0.1)">
       <use xlink:href="#DejaVuSans-14"/>
       <use xlink:href="#DejaVuSans-15" transform="translate(63.625 0)"/>
       <use xlink:href="#DejaVuSans-11" transform="translate(127.25 0)"/>
       <use xlink:href="#DejaVuSans-18" transform="translate(159.03125 0)"/>
      </g>
     </g>
    </g>
    <g id="xtick_16">
     <g id="line2d_23">
      <g>
       <use xlink:href="#mc97dba5983" x="420.73745" y="385.599141" style="fill: #7f7f7f; stroke: #7f7f7f; stroke-width: 1.8"/>
      </g>
     </g>
     <g id="text_24">
      <!-- 15.0 -->
      <g style="fill: #7f7f7f" transform="translate(409.604638 400.196797) scale(0.1 -0.1)">
       <use xlink:href="#DejaVuSans-14"/>
       <use xlink:href="#DejaVuSans-18" transform="translate(63.625 0)"/>
       <use xlink:href="#DejaVuSans-11" transform="translate(127.25 0)"/>
       <use xlink:href="#DejaVuSans-13" transform="translate(159.03125 0)"/>
      </g>
     </g>
    </g>
    <g id="xtick_17">
     <g id="line2d_24">
      <g>
       <use xlink:href="#mc97dba5983" x="479.430179" y="385.599141" style="fill: #7f7f7f; stroke: #7f7f7f; stroke-width: 1.8"/>
      </g>
     </g>
     <g id="text_25">
      <!-- 17.5 -->
      <g style="fill: #7f7f7f" transform="translate(468.297367 400.196797) scale(0.1 -0.1)">
       <use xlink:href="#DejaVuSans-14"/>
       <use xlink:href="#DejaVuSans-1a" transform="translate(63.625 0)"/>
       <use xlink:href="#DejaVuSans-11" transform="translate(127.25 0)"/>
       <use xlink:href="#DejaVuSans-18" transform="translate(159.03125 0)"/>
      </g>
     </g>
    </g>
    <g id="xtick_18">
     <g id="line2d_25">
      <g>
       <use xlink:href="#mc97dba5983" x="538.122908" y="385.599141" style="fill: #7f7f7f; stroke: #7f7f7f; stroke-width: 1.8"/>
      </g>
     </g>
     <g id="text_26">
      <!-- 20.0 -->
      <g style="fill: #7f7f7f" transform="translate(526.990096 400.196797) scale(0.1 -0.1)">
       <use xlink:href="#DejaVuSans-15"/>
       <use xlink:href="#DejaVuSans-13" transform="translate(63.625 0)"/>
       <use xlink:href="#DejaVuSans-11" transform="translate(127.25 0)"/>
       <use xlink:href="#DejaVuSans-13" transform="translate(159.03125 0)"/>
      </g>
     </g>
    </g>
    <g id="text_27">
     <!-- Time [s] -->
     <g style="fill: #7f7f7f" transform="translate(280.987617 414.957422) scale(0.11 -0.11)">
      <defs>
       <path id="DejaVuSans-37" d="M -19 4666 
L 3928 4666 
L 3928 4134 
L 2272 4134 
L 2272 0 
L 1638 0 
L 1638 4134 
L -19 4134 
L -19 4666 
z
" transform="scale(0.015625)"/>
       <path id="DejaVuSans-48" d="M 3597 1894 
L 3597 1613 
L 953 1613 
Q 991 1019 1311 708 
Q 1631 397 2203 397 
Q 2534 397 2845 478 
Q 3156 559 3463 722 
L 3463 178 
Q 3153 47 2828 -22 
Q 2503 -91 2169 -91 
Q 1331 -91 842 396 
Q 353 884 353 1716 
Q 353 2575 817 3079 
Q 1281 3584 2069 3584 
Q 2775 3584 3186 3129 
Q 3597 2675 3597 1894 
z
M 3022 2063 
Q 3016 2534 2758 2815 
Q 2500 3097 2075 3097 
Q 1594 3097 1305 2825 
Q 1016 2553 972 2059 
L 3022 2063 
z
" transform="scale(0.015625)"/>
      </defs>
      <use xlink:href="#DejaVuSans-37"/>
      <use xlink:href="#DejaVuSans-4c" transform="translate(58 0)"/>
      <use xlink:href="#DejaVuSans-50" transform="translate(85.78125 0)"/>
      <use xlink:href="#DejaVuSans-48" transform="translate(183.1875 0)"/>
      <use xlink:href="#DejaVuSans-3" transform="translate(244.71875 0)"/>
      <use xlink:href="#DejaVuSans-3e" transform="translate(276.5 0)"/>
      <use xlink:href="#DejaVuSans-56" transform="translate(315.515625 0)"/>
      <use xlink:href="#DejaVuSans-40" transform="translate(367.609375 0)"/>
     </g>
    </g>
   </g>
   <g id="matplotlib.axis_4">
    <g id="ytick_7">
     <g id="line2d_26">
      <g>
       <use xlink:href="#m07a39eb52c" x="45.103984" y="377.979867" style="fill: #7f7f7f; stroke: #7f7f7f; stroke-width: 1.8"/>
      </g>
     </g>
     <g id="text_28">
      <!-- 0.0 -->
      <g style="fill: #7f7f7f" transform="translate(22.200859 381.778695) scale(0.1 -0.1)">
       <use xlink:href="#DejaVuSans-13"/>
       <use xlink:href="#DejaVuSans-11" transform="translate(63.625 0)"/>
       <use xlink:href="#DejaVuSans-13" transform="translate(95.40625 0)"/>
      </g>
     </g>
    </g>
    <g id="ytick_8">
     <g id="line2d_27">
      <g>
       <use xlink:href="#m07a39eb52c" x="45.103984" y="347.176983" style="fill: #7f7f7f; stroke: #7f7f7f; stroke-width: 1.8"/>
      </g>
     </g>
     <g id="text_29">
      <!-- 0.5 -->
      <g style="fill: #7f7f7f" transform="translate(22.200859 350.975811) scale(0.1 -0.1)">
       <use xlink:href="#DejaVuSans-13"/>
       <use xlink:href="#DejaVuSans-11" transform="translate(63.625 0)"/>
       <use xlink:href="#DejaVuSans-18" transform="translate(95.40625 0)"/>
      </g>
     </g>
    </g>
    <g id="ytick_9">
     <g id="line2d_28">
      <g>
       <use xlink:href="#m07a39eb52c" x="45.103984" y="316.374098" style="fill: #7f7f7f; stroke: #7f7f7f; stroke-width: 1.8"/>
      </g>
     </g>
     <g id="text_30">
      <!-- 1.0 -->
      <g style="fill: #7f7f7f" transform="translate(22.200859 320.172927) scale(0.1 -0.1)">
       <use xlink:href="#DejaVuSans-14"/>
       <use xlink:href="#DejaVuSans-11" transform="translate(63.625 0)"/>
       <use xlink:href="#DejaVuSans-13" transform="translate(95.40625 0)"/>
      </g>
     </g>
    </g>
    <g id="ytick_10">
     <g id="line2d_29">
      <g>
       <use xlink:href="#m07a39eb52c" x="45.103984" y="285.571214" style="fill: #7f7f7f; stroke: #7f7f7f; stroke-width: 1.8"/>
      </g>
     </g>
     <g id="text_31">
      <!-- 1.5 -->
      <g style="fill: #7f7f7f" transform="translate(22.200859 289.370042) scale(0.1 -0.1)">
       <use xlink:href="#DejaVuSans-14"/>
       <use xlink:href="#DejaVuSans-11" transform="translate(63.625 0)"/>
       <use xlink:href="#DejaVuSans-18" transform="translate(95.40625 0)"/>
      </g>
     </g>
    </g>
    <g id="ytick_11">
     <g id="line2d_30">
      <g>
       <use xlink:href="#m07a39eb52c" x="45.103984" y="254.768329" style="fill: #7f7f7f; stroke: #7f7f7f; stroke-width: 1.8"/>
      </g>
     </g>
     <g id="text_32">
      <!-- 2.0 -->
      <g style="fill: #7f7f7f" transform="translate(22.200859 258.567158) scale(0.1 -0.1)">
       <use xlink:href="#DejaVuSans-15"/>
       <use xlink:href="#DejaVuSans-11" transform="translate(63.625 0)"/>
       <use xlink:href="#DejaVuSans-13" transform="translate(95.40625 0)"/>
      </g>
     </g>
    </g>
    <g id="ytick_12">
     <g id="line2d_31">
      <g>
       <use xlink:href="#m07a39eb52c" x="45.103984" y="223.965445" style="fill: #7f7f7f; stroke: #7f7f7f; stroke-width: 1.8"/>
      </g>
     </g>
     <g id="text_33">
      <!-- 2.5 -->
      <g style="fill: #7f7f7f" transform="translate(22.200859 227.764273) scale(0.1 -0.1)">
       <use xlink:href="#DejaVuSans-15"/>
       <use xlink:href="#DejaVuSans-11" transform="translate(63.625 0)"/>
       <use xlink:href="#DejaVuSans-18" transform="translate(95.40625 0)"/>
      </g>
     </g>
    </g>
    <g id="text_34">
     <!-- Velocity Error [m/s] -->
     <g style="fill: #7f7f7f" transform="translate(15.558281 354.574434) rotate(-90) scale(0.11 -0.11)">
      <defs>
       <path id="DejaVuSans-39" d="M 1831 0 
L 50 4666 
L 709 4666 
L 2188 738 
L 3669 4666 
L 4325 4666 
L 2547 0 
L 1831 0 
z
" transform="scale(0.015625)"/>
       <path id="DejaVuSans-4f" d="M 603 4863 
L 1178 4863 
L 1178 0 
L 603 0 
L 603 4863 
z
" transform="scale(0.015625)"/>
       <path id="DejaVuSans-46" d="M 3122 3366 
L 3122 2828 
Q 2878 2963 2633 3030 
Q 2388 3097 2138 3097 
Q 1578 3097 1268 2742 
Q 959 2388 959 1747 
Q 959 1106 1268 751 
Q 1578 397 2138 397 
Q 2388 397 2633 464 
Q 2878 531 3122 666 
L 3122 134 
Q 2881 22 2623 -34 
Q 2366 -91 2075 -91 
Q 1284 -91 818 406 
Q 353 903 353 1747 
Q 353 2603 823 3093 
Q 1294 3584 2113 3584 
Q 2378 3584 2631 3529 
Q 2884 3475 3122 3366 
z
" transform="scale(0.015625)"/>
       <path id="DejaVuSans-5c" d="M 2059 -325 
Q 1816 -950 1584 -1140 
Q 1353 -1331 966 -1331 
L 506 -1331 
L 506 -850 
L 844 -850 
Q 1081 -850 1212 -737 
Q 1344 -625 1503 -206 
L 1606 56 
L 191 3500 
L 800 3500 
L 1894 763 
L 2988 3500 
L 3597 3500 
L 2059 -325 
z
" transform="scale(0.015625)"/>
       <path id="DejaVuSans-12" d="M 1625 4666 
L 2156 4666 
L 531 -594 
L 0 -594 
L 1625 4666 
z
" transform="scale(0.015625)"/>
      </defs>
      <use xlink:href="#DejaVuSans-39"/>
      <use xlink:href="#DejaVuSans-48" transform="translate(60.640625 0)"/>
      <use xlink:href="#DejaVuSans-4f" transform="translate(122.171875 0)"/>
      <use xlink:href="#DejaVuSans-52" transform="translate(149.953125 0)"/>
      <use xlink:href="#DejaVuSans-46" transform="translate(211.140625 0)"/>
      <use xlink:href="#DejaVuSans-4c" transform="translate(266.125 0)"/>
      <use xlink:href="#DejaVuSans-57" transform="translate(293.90625 0)"/>
      <use xlink:href="#DejaVuSans-5c" transform="translate(333.109375 0)"/>
      <use xlink:href="#DejaVuSans-3" transform="translate(392.296875 0)"/>
      <use xlink:href="#DejaVuSans-28" transform="translate(424.078125 0)"/>
      <use xlink:href="#DejaVuSans-55" transform="translate(487.265625 0)"/>
      <use xlink:href="#DejaVuSans-55" transform="translate(526.625 0)"/>
      <use xlink:href="#DejaVuSans-52" transform="translate(565.53125 0)"/>
      <use xlink:href="#DejaVuSans-55" transform="translate(626.71875 0)"/>
      <use xlink:href="#DejaVuSans-3" transform="translate(667.828125 0)"/>
      <use xlink:href="#DejaVuSans-3e" transform="translate(699.609375 0)"/>
      <use xlink:href="#DejaVuSans-50" transform="translate(738.625 0)"/>
      <use xlink:href="#DejaVuSans-12" transform="translate(836.03125 0)"/>
      <use xlink:href="#DejaVuSans-56" transform="translate(869.71875 0)"/>
      <use xlink:href="#DejaVuSans-40" transform="translate(921.8125 0)"/>
     </g>
    </g>
   </g>
   <g id="line2d_32">
    <path d="M 68.581076 254.768329 
L 69.050618 253.943708 
L 70.694014 263.287737 
L 71.163556 247.937733 
L 71.867869 248.679878 
L 72.10264 247.485437 
L 72.572182 225.483201 
L 73.041723 245.562704 
L 73.511265 246.006755 
L 74.450349 233.141036 
L 76.563287 316.373565 
L 76.798058 313.903002 
L 77.032829 288.088514 
L 77.737142 295.064764 
L 79.380538 347.16476 
L 80.319622 335.809623 
L 80.554393 338.197946 
L 82.43256 376.630544 
L 83.136873 366.529642 
L 85.484582 332.430401 
L 85.954124 336.601528 
L 87.832291 361.109318 
L 88.771375 356.458846 
L 89.006146 356.847353 
L 89.475688 357.742213 
L 90.18 354.680189 
L 90.414771 357.296027 
L 92.527709 372.450972 
L 92.76248 371.607581 
L 93.936335 368.870472 
L 94.171106 372.716157 
L 94.640648 369.934938 
L 95.814502 365.681694 
L 96.049273 366.996939 
L 96.284044 363.820374 
L 96.518815 364.259842 
L 96.753586 362.639352 
L 96.988357 364.050733 
L 98.162211 371.674576 
L 98.631753 371.151213 
L 100.744692 377.282813 
L 100.979462 376.648707 
L 101.449004 374.014699 
L 101.683775 376.243909 
L 102.153317 377.000969 
L 102.388088 375.941669 
L 103.796713 369.213019 
L 102.85763 376.125539 
L 104.031484 369.71931 
L 104.735797 372.974549 
L 104.970568 370.931777 
L 105.44011 365.956128 
L 106.144423 366.748956 
L 106.379194 366.861877 
L 107.318277 371.881907 
L 107.787819 369.641139 
L 108.492132 362.628295 
L 110.135528 354.714205 
L 110.370299 355.334282 
L 111.544154 348.535032 
L 112.013695 348.397587 
L 113.657092 359.291143 
L 113.891863 359.176899 
L 114.126634 359.293293 
L 114.361405 362.479046 
L 114.830946 360.89795 
L 115.065717 357.929812 
L 115.535259 358.436155 
L 116.943885 368.754676 
L 117.178656 368.437199 
L 118.587281 377.178211 
L 118.822052 377.032805 
L 119.761136 373.787817 
L 119.291594 377.45108 
L 119.995907 373.928782 
L 120.230678 376.239801 
L 120.93499 374.029461 
L 121.404532 373.692532 
L 122.813158 365.076039 
L 123.047929 366.064817 
L 123.282699 366.172959 
L 124.926096 375.705931 
L 125.160867 373.12618 
L 126.804263 366.061782 
L 127.978118 369.902923 
L 128.44766 365.668229 
L 128.917201 368.857454 
L 129.151972 370.834167 
L 129.856285 368.877472 
L 130.091056 368.741346 
L 130.795369 364.504557 
L 131.03014 368.303026 
L 131.264911 368.987107 
L 131.734452 367.477968 
L 132.203994 365.382556 
L 132.438765 367.656039 
L 132.673536 371.111227 
L 133.143078 370.132197 
L 133.377849 366.718846 
L 133.61262 372.303431 
L 133.847391 371.133822 
L 134.082162 372.158607 
L 134.316933 369.996545 
L 134.551703 370.344828 
L 135.256016 370.899267 
L 136.429871 366.772268 
L 137.134184 370.101733 
L 137.368954 365.517875 
L 138.073267 369.74472 
L 139.716664 377.646025 
L 140.655747 367.982043 
L 141.125289 368.53506 
L 141.594831 365.782756 
L 141.829602 370.100934 
L 142.299144 368.908028 
L 142.768686 372.764282 
L 143.003456 369.541105 
L 143.472998 371.67171 
L 144.177311 370.71741 
L 144.646853 375.711237 
L 146.055478 368.799173 
L 147.464104 373.681698 
L 147.698875 371.673416 
L 148.168417 375.312489 
L 149.811813 377.552835 
L 150.046584 377.16676 
L 151.924751 368.017528 
L 152.159522 368.69084 
L 152.394293 370.160016 
L 152.629064 366.490467 
L 153.098606 369.675088 
L 154.037689 364.827116 
L 154.507231 365.964113 
L 155.211544 360.268684 
L 155.915857 361.697553 
L 156.150628 363.568334 
L 156.385399 361.323951 
L 156.62017 361.607219 
L 156.85494 358.196293 
L 157.559253 360.935512 
L 158.733108 353.513547 
L 159.437421 356.136377 
L 160.141733 359.378514 
L 160.376504 358.756863 
L 161.080817 354.89357 
L 161.78513 356.558708 
L 162.254672 358.725779 
L 163.428526 365.516973 
L 164.132839 363.851962 
L 164.36761 363.955722 
L 166.480548 371.827705 
L 166.715319 371.822577 
L 167.419632 370.711381 
L 168.123944 377.767606 
L 169.297799 372.206983 
L 170.941195 377.819995 
L 172.349821 369.051681 
L 173.758446 374.831759 
L 174.227988 373.572731 
L 174.462759 376.532246 
L 174.932301 373.308585 
L 176.340927 366.207139 
L 177.045239 371.669104 
L 177.28001 370.29558 
L 177.984323 366.047528 
L 178.219094 368.06048 
L 178.453865 368.185536 
L 179.627719 363.465276 
L 179.86249 366.631017 
L 180.332032 363.213876 
L 180.801574 361.598097 
L 181.036345 362.96143 
L 181.271116 365.265439 
L 181.740658 360.988364 
L 184.557909 372.211113 
L 184.79268 369.983029 
L 185.496992 372.207029 
L 186.201305 374.554805 
L 186.436076 373.302293 
L 187.140389 368.370676 
L 187.37516 368.966591 
L 188.783785 377.441082 
L 189.018556 375.95245 
L 189.95764 372.185974 
L 190.192411 372.474111 
L 190.427181 376.006607 
L 191.131494 375.497342 
L 192.774891 362.008645 
L 193.713974 366.856673 
L 193.244432 361.459975 
L 194.183516 363.959489 
L 194.653058 361.014083 
L 194.887829 363.706798 
L 196.531225 374.699096 
L 196.765996 374.351137 
L 197.000767 376.072425 
L 197.235538 372.544399 
L 197.70508 368.623645 
L 198.409393 368.735512 
L 199.113705 375.754438 
L 199.583247 374.577677 
L 199.818018 374.214999 
L 200.28756 377.766515 
L 200.522331 373.702446 
L 200.757102 373.257391 
L 201.226644 377.75107 
L 201.696185 376.621693 
L 202.87004 374.768626 
L 203.809124 376.620347 
L 204.043895 375.835349 
L 205.687291 369.349934 
L 204.513436 376.584291 
L 205.922062 370.907021 
L 206.156833 371.371495 
L 206.626375 368.828741 
L 207.095917 371.236217 
L 208.739313 377.193241 
L 207.565458 370.735156 
L 208.974084 375.386424 
L 210.147938 371.771909 
L 211.087022 367.767344 
L 212.026106 376.291911 
L 212.260877 373.847402 
L 212.730419 372.221371 
L 213.19996 377.2578 
L 213.669502 373.683177 
L 213.904273 373.833196 
L 214.139044 375.670315 
L 214.373815 374.716666 
L 214.608586 369.215195 
L 215.312899 374.907391 
L 215.54767 377.34757 
L 215.78244 374.107688 
L 216.017211 376.504698 
L 216.251982 373.997665 
L 216.721524 376.43684 
L 217.191066 377.85454 
L 217.425837 375.857205 
L 217.895379 374.712565 
L 218.13015 377.789519 
L 218.834462 376.898824 
L 219.538775 372.099809 
L 219.773546 368.987041 
L 220.243088 374.189164 
L 220.947401 376.835546 
L 221.182172 374.572478 
L 221.416942 374.670683 
L 221.651713 370.896679 
L 222.121255 376.471605 
L 222.356026 376.337391 
L 222.590797 374.620276 
L 223.29511 375.472101 
L 223.529881 377.186423 
L 223.764652 373.852731 
L 225.173277 365.971214 
L 225.408048 367.084761 
L 225.87759 370.767451 
L 226.347132 368.290848 
L 226.581903 366.393579 
L 227.286215 367.884838 
L 227.520986 367.044919 
L 227.755757 369.058447 
L 229.164383 375.864392 
L 229.399154 374.014118 
L 230.573008 369.22494 
L 231.04255 371.753365 
L 231.277321 371.805184 
L 231.981634 367.224406 
L 232.451175 368.722813 
L 232.685946 368.123867 
L 232.920717 369.091995 
L 234.329343 373.639564 
L 234.564114 373.156709 
L 234.798885 373.788257 
L 235.033656 373.047308 
L 235.737968 368.725247 
L 235.972739 370.369968 
L 236.442281 373.106051 
L 236.911823 370.761554 
L 237.146594 368.955184 
L 237.616136 371.211692 
L 239.259532 377.712557 
L 239.494303 377.038588 
L 240.198616 372.041713 
L 240.668158 373.879545 
L 241.37247 376.757679 
L 241.607241 374.782452 
L 241.842012 371.526521 
L 242.311554 373.121036 
L 243.485409 377.453563 
L 244.659263 370.502053 
L 245.128805 374.599504 
L 245.833118 374.309362 
L 246.30266 369.992619 
L 246.772201 372.579899 
L 247.006972 374.412413 
L 247.241743 370.642938 
L 247.476514 372.989672 
L 248.415598 370.06229 
L 248.88514 370.854021 
L 249.354681 373.385921 
L 249.589452 376.442306 
L 250.293765 373.301501 
L 250.528536 372.491911 
L 250.763307 374.287312 
L 251.232849 376.846175 
L 251.702391 375.121 
L 253.111016 371.806762 
L 254.519642 376.927857 
L 257.806434 357.721684 
L 258.510747 359.427653 
L 258.275976 357.302352 
L 258.980289 359.246427 
L 259.684602 358.777005 
L 260.858456 352.338365 
L 261.093227 355.027451 
L 262.032311 363.680597 
L 262.501853 362.087643 
L 262.736624 360.89957 
L 262.971395 363.067899 
L 263.440936 361.161721 
L 265.084333 372.617231 
L 265.553875 369.949429 
L 266.023417 372.932707 
L 266.492958 377.326531 
L 266.9625 376.605995 
L 267.197271 374.229122 
L 267.666813 377.495645 
L 267.901584 376.497144 
L 268.840668 374.191932 
L 270.249293 377.883303 
L 270.484064 375.193385 
L 271.188377 376.667613 
L 271.423148 376.67538 
L 271.657919 373.661104 
L 271.892689 377.809732 
L 272.362231 375.08764 
L 272.831773 375.142657 
L 273.536086 377.941807 
L 273.770857 376.504793 
L 274.475169 375.45437 
L 274.240399 377.259131 
L 274.70994 375.696045 
L 274.944711 377.920385 
L 275.414253 375.063307 
L 275.649024 375.880465 
L 276.118566 372.557196 
L 276.588108 375.291701 
L 277.05765 375.118474 
L 277.29242 377.501834 
L 277.761962 377.310892 
L 279.170588 365.833528 
L 279.64013 365.642258 
L 280.579213 371.31647 
L 281.283526 367.831719 
L 282.457381 374.370476 
L 283.631235 377.59011 
L 283.866006 377.364843 
L 285.274632 370.923915 
L 285.509403 371.95496 
L 285.978944 371.370819 
L 286.213715 373.53109 
L 286.918028 377.961189 
L 287.152799 377.050578 
L 289.735279 359.208243 
L 290.204821 358.194216 
L 290.439592 359.388602 
L 290.909134 356.619485 
L 291.613446 361.0039 
L 292.317759 361.063384 
L 292.55253 358.038418 
L 293.022072 362.220311 
L 293.256843 361.833988 
L 293.961156 359.954423 
L 295.369781 364.445903 
L 297.013177 371.301019 
L 297.247948 369.931673 
L 297.71749 371.841265 
L 298.656574 377.519295 
L 299.360887 377.33172 
L 300.769512 372.890854 
L 301.708596 377.501214 
L 301.943367 377.388567 
L 303.351992 375.179425 
L 303.586763 376.517189 
L 303.821534 374.236896 
L 304.291076 371.360655 
L 304.760618 373.163641 
L 305.23016 374.639132 
L 305.46493 371.831486 
L 306.169243 367.592394 
L 306.638785 368.581612 
L 307.81264 377.15307 
L 308.047411 372.7378 
L 308.751723 376.128451 
L 309.221265 376.498877 
L 309.456036 371.203288 
L 310.160349 371.636907 
L 311.099432 377.767413 
L 311.568974 376.928441 
L 311.803745 377.249863 
L 312.038516 375.850349 
L 312.508058 376.332064 
L 312.742829 377.8003 
L 313.212371 375.751462 
L 313.447142 373.905753 
L 313.916683 374.608017 
L 314.151454 377.586067 
L 314.855767 375.142772 
L 315.090538 374.494624 
L 315.794851 377.957077 
L 316.264393 377.696176 
L 316.499163 377.957751 
L 316.968705 377.016201 
L 317.203476 374.34592 
L 317.673018 377.956918 
L 317.907789 377.182578 
L 318.846873 374.570101 
L 318.377331 377.739905 
L 319.081644 376.142375 
L 319.316414 377.119559 
L 319.551185 375.401447 
L 320.72504 366.554408 
L 320.959811 367.305903 
L 321.664124 377.898728 
L 322.133665 377.364188 
L 322.603207 377.809984 
L 324.011833 369.41811 
L 325.185687 377.057252 
L 325.655229 375.293707 
L 325.89 373.304727 
L 326.359542 376.099771 
L 326.594313 377.114954 
L 327.063855 374.896794 
L 327.298626 376.464329 
L 327.768167 375.3153 
L 328.002938 377.509937 
L 328.707251 376.655597 
L 330.115877 366.919377 
L 331.524502 369.750275 
L 331.759273 369.680956 
L 332.933128 363.149244 
L 333.167899 367.051025 
L 333.872211 372.262548 
L 334.341753 371.626776 
L 334.811295 369.027294 
L 335.046066 371.135653 
L 335.280837 372.095767 
L 335.515608 371.982392 
L 335.750379 367.430193 
L 336.454691 369.396927 
L 336.689462 372.771067 
L 337.393775 372.107202 
L 337.628546 369.817996 
L 337.863317 371.704937 
L 338.802401 376.1453 
L 339.037171 374.178849 
L 339.271942 377.549817 
L 339.976255 374.69908 
L 340.211026 377.354124 
L 340.680568 373.202011 
L 340.915339 374.678084 
L 341.15011 373.639055 
L 341.619652 375.151967 
L 342.558735 377.934921 
L 342.793506 376.164227 
L 344.202132 368.109212 
L 344.671673 371.587652 
L 344.906444 370.406651 
L 345.610757 363.207905 
L 346.080299 365.376218 
L 346.784612 370.116391 
L 347.254154 368.006358 
L 347.488924 366.997368 
L 348.193237 367.848529 
L 348.428008 367.652953 
L 349.367092 360.524497 
L 349.836634 361.384777 
L 353.592968 377.300021 
L 354.06251 374.648748 
L 354.297281 375.138254 
L 354.532052 374.968495 
L 356.175448 363.69077 
L 356.410219 363.548565 
L 357.818845 371.227829 
L 358.053616 371.285745 
L 359.22747 376.784158 
L 359.462241 374.855099 
L 359.697012 374.710383 
L 360.166554 371.741131 
L 360.636096 372.976641 
L 361.80995 377.959482 
L 362.044721 377.36555 
L 362.514263 377.844714 
L 362.983805 374.692384 
L 363.688118 377.24095 
L 363.922889 376.065375 
L 365.331514 372.042358 
L 365.801056 369.994999 
L 366.270598 371.093622 
L 366.505369 372.305326 
L 366.74014 371.257399 
L 366.97491 368.233881 
L 367.444452 371.980394 
L 367.679223 372.264868 
L 367.913994 371.779519 
L 368.853078 366.339876 
L 369.087849 368.289336 
L 370.731245 376.722112 
L 370.966016 373.312404 
L 371.200787 370.346445 
L 371.670329 374.261092 
L 372.139871 370.90803 
L 372.374642 373.22542 
L 372.844183 370.236112 
L 373.078954 370.113451 
L 373.313725 370.999913 
L 373.783267 363.852531 
L 374.48758 367.028354 
L 376.130976 371.664557 
L 376.365747 370.476376 
L 376.600518 369.133148 
L 377.07006 371.879694 
L 377.304831 371.539507 
L 377.539602 372.424452 
L 378.948227 377.660111 
L 380.122082 375.654823 
L 381.295936 372.829176 
L 381.765478 373.444061 
L 382.000249 370.358187 
L 382.704562 371.501481 
L 382.939333 371.716387 
L 383.174104 374.271276 
L 383.408875 371.105438 
L 383.878416 373.391049 
L 384.8175 369.447427 
L 384.347958 374.572984 
L 385.287042 371.335765 
L 386.460897 377.815262 
L 386.930438 375.691154 
L 387.634751 377.785218 
L 388.104293 377.357896 
L 390.452002 366.832248 
L 390.686773 366.758464 
L 391.860628 377.382479 
L 392.330169 377.129045 
L 393.034482 369.698983 
L 393.738795 371.258444 
L 394.443108 377.711326 
L 394.91265 375.488366 
L 396.556046 370.83696 
L 397.260359 374.468358 
L 397.49513 372.84961 
L 398.668984 364.530475 
L 399.138526 368.330016 
L 399.608068 369.883058 
L 400.07761 368.039967 
L 400.312381 368.179387 
L 400.781922 372.879646 
L 401.486235 372.57126 
L 401.955777 373.245877 
L 402.894861 377.265188 
L 403.129632 376.543076 
L 403.364402 377.230847 
L 403.599173 376.011384 
L 403.833944 375.355126 
L 404.068715 376.533137 
L 404.303486 377.386688 
L 404.773028 376.322261 
L 405.007799 376.732647 
L 405.712112 373.738472 
L 406.181653 370.70454 
L 406.651195 372.112457 
L 406.885966 374.049688 
L 407.120737 371.600591 
L 407.355508 369.422563 
L 407.82505 371.712208 
L 408.059821 371.685501 
L 408.294592 372.407783 
L 408.529363 370.300243 
L 408.764134 366.501322 
L 409.468446 370.8125 
L 410.642301 375.533083 
L 410.877072 371.850153 
L 411.581385 376.22943 
L 411.816155 377.195315 
L 412.050926 375.786657 
L 414.398636 366.741192 
L 414.633406 367.45968 
L 414.868177 368.130917 
L 415.102948 366.202774 
L 415.337719 367.73943 
L 416.042032 363.901493 
L 416.981116 372.359082 
L 417.215887 371.519782 
L 417.450657 371.880562 
L 417.685428 374.919717 
L 418.389741 371.979931 
L 418.624512 367.619198 
L 419.328825 373.015753 
L 419.798367 374.437073 
L 420.267908 372.687804 
L 421.911305 369.844582 
L 422.146076 372.724554 
L 422.380847 367.48585 
L 422.615618 367.61512 
L 423.31993 362.858121 
L 423.789472 363.796584 
L 424.259014 365.746099 
L 424.728556 364.876 
L 425.198098 362.332489 
L 425.432869 364.382159 
L 426.137181 366.786709 
L 426.371952 365.97589 
L 426.841494 362.4853 
L 427.076265 366.94245 
L 427.311036 372.042322 
L 428.015349 365.633944 
L 428.25012 365.404089 
L 428.484891 366.266238 
L 429.189203 372.012469 
L 429.658745 370.279397 
L 430.128287 365.87246 
L 430.597829 369.013059 
L 431.302142 376.579037 
L 431.536912 373.451857 
L 431.771683 370.746863 
L 432.241225 375.194065 
L 432.710767 377.770774 
L 433.180309 376.26405 
L 434.354163 368.622528 
L 434.588934 370.81723 
L 435.528018 377.929889 
L 435.762789 376.519695 
L 436.701873 368.56132 
L 436.936644 373.861875 
L 438.58004 367.725439 
L 439.284353 377.008469 
L 439.988665 371.742657 
L 441.16252 362.950921 
L 441.866833 367.137295 
L 444.684084 377.385016 
L 444.918855 374.644419 
L 445.623167 376.529454 
L 446.32748 375.984041 
L 446.797022 377.464746 
L 447.031793 377.336092 
L 448.205647 370.884578 
L 448.440418 373.803479 
L 448.675189 374.348729 
L 448.90996 373.080344 
L 450.553357 363.908051 
L 451.022898 362.066083 
L 451.257669 365.408089 
L 453.370608 376.022655 
L 454.07492 375.973741 
L 454.309691 373.545285 
L 455.014004 375.012313 
L 456.187859 376.742053 
L 455.483546 373.798992 
L 456.42263 376.250922 
L 456.892171 371.125168 
L 457.831255 371.464512 
L 458.066026 372.942905 
L 458.535568 370.990576 
L 458.770339 371.172278 
L 460.648506 360.871456 
L 460.883277 361.865846 
L 461.118048 360.516819 
L 462.057132 356.878716 
L 462.291902 358.192731 
L 463.700528 364.093596 
L 463.935299 360.661032 
L 464.404841 363.47224 
L 464.874383 367.736981 
L 465.578695 367.287398 
L 466.048237 365.265951 
L 466.283008 366.13439 
L 467.926404 377.532284 
L 468.630717 373.64067 
L 468.865488 374.350778 
L 470.039343 377.948933 
L 471.213197 373.775863 
L 471.447968 374.489544 
L 472.152281 369.928464 
L 472.621823 371.581365 
L 473.795677 377.350399 
L 474.030448 376.68369 
L 474.265219 374.056413 
L 474.49999 376.758586 
L 474.969532 376.620849 
L 475.204303 376.665573 
L 475.439074 377.974572 
L 475.673845 375.960108 
L 475.908616 376.065986 
L 477.552012 370.262512 
L 476.378157 377.730681 
L 477.786783 370.85559 
L 478.256325 370.537586 
L 478.960637 374.416076 
L 479.430179 368.73309 
L 479.899721 374.38786 
L 480.134492 377.589053 
L 480.604034 372.816451 
L 481.543118 366.660768 
L 481.777888 368.710573 
L 482.012659 369.004061 
L 482.24743 368.080007 
L 482.482201 368.326724 
L 483.186514 364.649875 
L 483.656056 365.480871 
L 485.768994 370.163413 
L 486.003765 367.70722 
L 486.238536 370.429079 
L 486.708078 368.782146 
L 486.942849 369.520125 
L 487.17762 373.55935 
L 487.647161 369.139996 
L 488.351474 364.024044 
L 488.821016 365.766442 
L 489.994871 376.735914 
L 490.464412 374.70064 
L 491.403496 371.626929 
L 491.873038 372.068453 
L 492.34258 370.445656 
L 494.220747 358.521277 
L 493.046892 371.913053 
L 494.455518 359.220219 
L 494.690289 359.015548 
L 494.92506 359.799337 
L 495.159831 361.159533 
L 495.394602 357.616127 
L 495.629373 358.259318 
L 495.864143 357.490452 
L 496.098914 358.359382 
L 496.333685 362.128322 
L 497.037998 359.674181 
L 497.272769 359.344247 
L 497.50754 362.159802 
L 498.211853 359.406574 
L 499.150936 361.906016 
L 499.620478 361.463293 
L 500.324791 352.978744 
L 500.794333 356.549262 
L 502.202958 364.612119 
L 502.437729 361.372721 
L 503.376813 355.929311 
L 503.611584 357.574322 
L 503.846355 357.768851 
L 504.315896 363.013767 
L 505.25498 360.967611 
L 506.428835 365.561015 
L 505.724522 360.28321 
L 506.663606 364.155203 
L 507.602689 359.727641 
L 509.246086 373.177802 
L 509.480857 373.590314 
L 510.654711 377.865848 
L 511.593795 372.990083 
L 512.063337 374.633435 
L 512.298108 375.709615 
L 512.532879 374.508702 
L 513.00242 374.797259 
L 513.471962 376.207842 
L 513.706733 375.360505 
L 514.645817 366.610964 
L 515.115359 369.544439 
L 516.054442 366.736844 
L 516.289213 364.960964 
L 516.758755 366.821631 
L 517.463068 366.484111 
L 517.93261 370.128848 
L 519.810777 362.211573 
L 518.402151 370.836788 
L 520.280319 364.668528 
L 520.984631 369.187907 
L 521.219402 366.724279 
L 521.454173 367.170157 
L 522.393257 363.772257 
L 522.628028 364.749199 
L 523.332341 372.546703 
L 524.271424 371.746696 
L 524.506195 370.277182 
L 524.740966 372.598508 
L 525.210508 375.467048 
L 525.914821 375.253933 
L 526.853904 366.913188 
L 527.558217 369.665342 
L 527.792988 374.147141 
L 528.497301 369.020934 
L 529.905926 377.102889 
L 530.140697 374.079357 
L 530.84501 377.446928 
L 531.784094 373.864934 
L 532.488406 375.286882 
L 533.192719 377.364951 
L 533.42749 375.749627 
L 533.662261 376.033082 
L 533.897032 373.403005 
L 534.366574 375.675121 
L 534.601345 377.216527 
L 535.305657 375.482195 
L 535.540428 373.832032 
L 535.775199 375.334674 
L 536.00997 377.719802 
L 536.714283 375.791911 
L 537.418596 377.690176 
L 537.653367 373.215413 
L 538.122908 374.207407 
" clip-path="url(#p48551c36cb)" style="fill: none; stroke: #e41a1c; stroke-width: 2; stroke-linecap: square"/>
   </g>
   <g id="patch_6">
    <path d="M 45.103984 385.599141 
L 45.103984 217.858633 
" style="fill: none; stroke: #7f7f7f; stroke-width: 1.8; stroke-linejoin: miter; stroke-linecap: square"/>
   </g>
   <g id="patch_7">
    <path d="M 45.103984 385.599141 
L 561.6 385.599141 
" style="fill: none; stroke: #7f7f7f; stroke-width: 1.8; stroke-linejoin: miter; stroke-linecap: square"/>
   </g>
  </g>
 </g>
 <defs>
  <clipPath id="p4c3988226f">
   <rect x="45.103984" y="22.318125" width="516.496016" height="167.740508"/>
  </clipPath>
  <clipPath id="p48551c36cb">
   <rect x="45.103984" y="217.858633" width="516.496016" height="167.740508"/>
  </clipPath>
 </defs>
</svg>
