<?xml version="1.0" encoding="utf-8" standalone="no"?>
<!DOCTYPE svg PUBLIC "-//W3C//DTD SVG 1.1//EN"
  "http://www.w3.org/Graphics/SVG/1.1/DTD/svg11.dtd">
<svg xmlns:xlink="http://www.w3.org/1999/xlink" width="568.8pt" height="424.8pt" viewBox="0 0 568.8 424.8" xmlns="http://www.w3.org/2000/svg" version="1.1">
 <metadata>
  <rdf:RDF xmlns:dc="http://purl.org/dc/elements/1.1/" xmlns:cc="http://creativecommons.org/ns#" xmlns:rdf="http://www.w3.org/1999/02/22-rdf-syntax-ns#">
   <cc:Work>
    <dc:type rdf:resource="http://purl.org/dc/dcmitype/StillImage"/>
    <dc:date>2026-07-04T13:17:36.270387</dc:date>
    <dc:format>image/svg+xml</dc:format>
    <dc:creator>
     <cc:Agent>
      <dc:title>Matplotlib v3.11.0, https://matplotlib.org/</dc:title>
     </cc:Agent>
    </dc:creator>
   </cc:Work>
  </rdf:RDF>
 </metadata>
 <defs>
  <style type="text/css">*{stroke-linejoin: round; stroke-linecap: butt}</style>
 </defs>
 <g id="figure_1">
  <g id="patch_1">
   <path d="M 0 424.8 
L 568.8 424.8 
L 568.8 0 
L 0 0 
L 0 424.8 
z
" style="fill: none"/>
  </g>
  <g id="axes_1">
   <g id="patch_2">
    <path d="M 45.103984 190.058633 
L 561.6 190.058633 
L 561.6 22.318125 
L 45.103984 22.318125 
L 45.103984 190.058633 
z
" style="fill: none"/>
   </g>
   <g id="matplotlib.axis_1">
    <g id="xtick_1">
     <g id="line2d_1">
      <defs>
       <path id="m307d497e6e" d="M 0 0 
L 0 3.5 
" style="stroke: #7f7f7f; stroke-width: 1.8"/>
      </defs>
      <g>
       <use xlink:href="#m307d497e6e" x="68.581076" y="190.058633" style="fill: #7f7f7f; stroke: #7f7f7f; stroke-width: 1.8"/>
      </g>
     </g>
     <g id="text_1">
      <!-- 0.0 -->
      <g style="fill: #7f7f7f" transform="translate(60.629513 204.656289) scale(0.1 -0.1)">
       <defs>
        <path id="DejaVuSans-13" d="M 2034 4250 
Q 1547 4250 1301 3770 
Q 1056 3291 1056 2328 
Q 1056 1369 1301 889 
Q 1547 409 2034 409 
Q 2525 409 2770 889 
Q 3016 1369 3016 2328 
Q 3016 3291 2770 3770 
Q 2525 4250 2034 4250 
z
M 2034 4750 
Q 2819 4750 3233 4129 
Q 3647 3509 3647 2328 
Q 3647 1150 3233 529 
Q 2819 -91 2034 -91 
Q 1250 -91 836 529 
Q 422 1150 422 2328 
Q 422 3509 836 4129 
Q 1250 4750 2034 4750 
z
" transform="scale(0.015625)"/>
        <path id="DejaVuSans-11" d="M 684 794 
L 1344 794 
L 1344 0 
L 684 0 
L 684 794 
z
" transform="scale(0.015625)"/>
       </defs>
       <use xlink:href="#DejaVuSans-13"/>
       <use xlink:href="#DejaVuSans-11" transform="translate(63.625 0)"/>
       <use xlink:href="#DejaVuSans-13" transform="translate(95.40625 0)"/>
      </g>
     </g>
    </g>
    <g id="xtick_2">
     <g id="line2d_2">
      <g>
       <use xlink:href="#m307d497e6e" x="127.273805" y="190.058633" style="fill: #7f7f7f; stroke: #7f7f7f; stroke-width: 1.8"/>
      </g>
     </g>
     <g id="text_2">
      <!-- 2.5 -->
      <g style="fill: #7f7f7f" transform="translate(119.322243 204.656289) scale(0.1 -0.1)">
       <defs>
        <path id="DejaVuSans-15" d="M 1228 531 
L 3431 531 
L 3431 0 
L 469 0 
L 469 531 
Q 828 903 1448 1529 
Q 2069 2156 2228 2338 
Q 2531 2678 2651 2914 
Q 2772 3150 2772 3378 
Q 2772 3750 2511 3984 
Q 2250 4219 1831 4219 
Q 1534 4219 1204 4116 
Q 875 4013 500 3803 
L 500 4441 
Q 881 4594 1212 4672 
Q 1544 4750 1819 4750 
Q 2544 4750 2975 4387 
Q 3406 4025 3406 3419 
Q 3406 3131 3298 2873 
Q 3191 2616 2906 2266 
Q 2828 2175 2409 1742 
Q 1991 1309 1228 531 
z
" transform="scale(0.015625)"/>
        <path id="DejaVuSans-18" d="M 691 4666 
L 3169 4666 
L 3169 4134 
L 1269 4134 
L 1269 2991 
Q 1406 3038 1543 3061 
Q 1681 3084 1819 3084 
Q 2600 3084 3056 2656 
Q 3513 2228 3513 1497 
Q 3513 744 3044 326 
Q 2575 -91 1722 -91 
Q 1428 -91 1123 -41 
Q 819 9 494 109 
L 494 744 
Q 775 591 1075 516 
Q 1375 441 1709 441 
Q 2250 441 2565 725 
Q 2881 1009 2881 1497 
Q 2881 1984 2565 2268 
Q 2250 2553 1709 2553 
Q 1456 2553 1204 2497 
Q 953 2441 691 2322 
L 691 4666 
z
" transform="scale(0.015625)"/>
       </defs>
       <use xlink:href="#DejaVuSans-15"/>
       <use xlink:href="#DejaVuSans-11" transform="translate(63.625 0)"/>
       <use xlink:href="#DejaVuSans-18" transform="translate(95.40625 0)"/>
      </g>
     </g>
    </g>
    <g id="xtick_3">
     <g id="line2d_3">
      <g>
       <use xlink:href="#m307d497e6e" x="185.966534" y="190.058633" style="fill: #7f7f7f; stroke: #7f7f7f; stroke-width: 1.8"/>
      </g>
     </g>
     <g id="text_3">
      <!-- 5.0 -->
      <g style="fill: #7f7f7f" transform="translate(178.014972 204.656289) scale(0.1 -0.1)">
       <use xlink:href="#DejaVuSans-18"/>
       <use xlink:href="#DejaVuSans-11" transform="translate(63.625 0)"/>
       <use xlink:href="#DejaVuSans-13" transform="translate(95.40625 0)"/>
      </g>
     </g>
    </g>
    <g id="xtick_4">
     <g id="line2d_4">
      <g>
       <use xlink:href="#m307d497e6e" x="244.659263" y="190.058633" style="fill: #7f7f7f; stroke: #7f7f7f; stroke-width: 1.8"/>
      </g>
     </g>
     <g id="text_4">
      <!-- 7.5 -->
      <g style="fill: #7f7f7f" transform="translate(236.707701 204.656289) scale(0.1 -0.1)">
       <defs>
        <path id="DejaVuSans-1a" d="M 525 4666 
L 3525 4666 
L 3525 4397 
L 1831 0 
L 1172 0 
L 2766 4134 
L 525 4134 
L 525 4666 
z
" transform="scale(0.015625)"/>
       </defs>
       <use xlink:href="#DejaVuSans-1a"/>
       <use xlink:href="#DejaVuSans-11" transform="translate(63.625 0)"/>
       <use xlink:href="#DejaVuSans-18" transform="translate(95.40625 0)"/>
      </g>
     </g>
    </g>
    <g id="xtick_5">
     <g id="line2d_5">
      <g>
       <use xlink:href="#m307d497e6e" x="303.351992" y="190.058633" style="fill: #7f7f7f; stroke: #7f7f7f; stroke-width: 1.8"/>
      </g>
     </g>
     <g id="text_5">
      <!-- 10.0 -->
      <g style="fill: #7f7f7f" transform="translate(292.21918 204.656289) scale(0.1 -0.1)">
       <defs>
        <path id="DejaVuSans-14" d="M 794 531 
L 1825 531 
L 1825 4091 
L 703 3866 
L 703 4441 
L 1819 4666 
L 2450 4666 
L 2450 531 
L 3481 531 
L 3481 0 
L 794 0 
L 794 531 
z
" transform="scale(0.015625)"/>
       </defs>
       <use xlink:href="#DejaVuSans-14"/>
       <use xlink:href="#DejaVuSans-13" transform="translate(63.625 0)"/>
       <use xlink:href="#DejaVuSans-11" transform="translate(127.25 0)"/>
       <use xlink:href="#DejaVuSans-13" transform="translate(159.03125 0)"/>
      </g>
     </g>
    </g>
    <g id="xtick_6">
     <g id="line2d_6">
      <g>
       <use xlink:href="#m307d497e6e" x="362.044721" y="190.058633" style="fill: #7f7f7f; stroke: #7f7f7f; stroke-width: 1.8"/>
      </g>
     </g>
     <g id="text_6">
      <!-- 12.5 -->
      <g style="fill: #7f7f7f" transform="translate(350.911909 204.656289) scale(0.1 -0.1)">
       <use xlink:href="#DejaVuSans-14"/>
       <use xlink:href="#DejaVuSans-15" transform="translate(63.625 0)"/>
       <use xlink:href="#DejaVuSans-11" transform="translate(127.25 0)"/>
       <use xlink:href="#DejaVuSans-18" transform="translate(159.03125 0)"/>
      </g>
     </g>
    </g>
    <g id="xtick_7">
     <g id="line2d_7">
      <g>
       <use xlink:href="#m307d497e6e" x="420.73745" y="190.058633" style="fill: #7f7f7f; stroke: #7f7f7f; stroke-width: 1.8"/>
      </g>
     </g>
     <g id="text_7">
      <!-- 15.0 -->
      <g style="fill: #7f7f7f" transform="translate(409.604638 204.656289) scale(0.1 -0.1)">
       <use xlink:href="#DejaVuSans-14"/>
       <use xlink:href="#DejaVuSans-18" transform="translate(63.625 0)"/>
       <use xlink:href="#DejaVuSans-11" transform="translate(127.25 0)"/>
       <use xlink:href="#DejaVuSans-13" transform="translate(159.03125 0)"/>
      </g>
     </g>
    </g>
    <g id="xtick_8">
     <g id="line2d_8">
      <g>
       <use xlink:href="#m307d497e6e" x="479.430179" y="190.058633" style="fill: #7f7f7f; stroke: #7f7f7f; stroke-width: 1.8"/>
      </g>
     </g>
     <g id="text_8">
      <!-- 17.5 -->
      <g style="fill: #7f7f7f" transform="translate(468.297367 204.656289) scale(0.1 -0.1)">
       <use xlink:href="#DejaVuSans-14"/>
       <use xlink:href="#DejaVuSans-1a" transform="translate(63.625 0)"/>
       <use xlink:href="#DejaVuSans-11" transform="translate(127.25 0)"/>
       <use xlink:href="#DejaVuSans-18" transform="translate(159.03125 0)"/>
      </g>
     </g>
    </g>
    <g id="xtick_9">
     <g id="line2d_9">
      <g>
       <use xlink:href="#m307d497e6e" x="538.122908" y="190.058633" style="fill: #7f7f7f; stroke: #7f7f7f; stroke-width: 1.8"/>
      </g>
     </g>
     <g id="text_9">
      <!-- 20.0 -->
      <g style="fill: #7f7f7f" transform="translate(526.990096 204.656289) scale(0.1 -0.1)">
       <use xlink:href="#DejaVuSans-15"/>
       <use xlink:href="#DejaVuSans-13" transform="translate(63.625 0)"/>
       <use xlink:href="#DejaVuSans-11" transform="translate(127.25 0)"/>
       <use xlink:href="#DejaVuSans-13" transform="translate(159.03125 0)"/>
      </g>
     </g>
    </g>
   </g>
   <g id="matplotlib.axis_2">
    <g id="ytick_1">
     <g id="line2d_10">
      <defs>
       <path id="m889095477a" d="M 0 0 
L -3.5 0 
" style="stroke: #7f7f7f; stroke-width: 1.8"/>
      </defs>
      <g>
       <use xlink:href="#m889095477a" x="45.103984" y="182.434064" style="fill: #7f7f7f; stroke: #7f7f7f; stroke-width: 1.8"/>
      </g>
     </g>
     <g id="text_10">
      <!-- 0.0 -->
      <g style="fill: #7f7f7f" transform="translate(22.200859 186.232892) scale(0.1 -0.1)">
       <use xlink:href="#DejaVuSans-13"/>
       <use xlink:href="#DejaVuSans-11" transform="translate(63.625 0)"/>
       <use xlink:href="#DejaVuSans-13" transform="translate(95.40625 0)"/>
      </g>
     </g>
    </g>
    <g id="ytick_2">
     <g id="line2d_11">
      <g>
       <use xlink:href="#m889095477a" x="45.103984" y="155.859637" style="fill: #7f7f7f; stroke: #7f7f7f; stroke-width: 1.8"/>
      </g>
     </g>
     <g id="text_11">
      <!-- 0.1 -->
      <g style="fill: #7f7f7f" transform="translate(22.200859 159.658465) scale(0.1 -0.1)">
       <use xlink:href="#DejaVuSans-13"/>
       <use xlink:href="#DejaVuSans-11" transform="translate(63.625 0)"/>
       <use xlink:href="#DejaVuSans-14" transform="translate(95.40625 0)"/>
      </g>
     </g>
    </g>
    <g id="ytick_3">
     <g id="line2d_12">
      <g>
       <use xlink:href="#m889095477a" x="45.103984" y="129.28521" style="fill: #7f7f7f; stroke: #7f7f7f; stroke-width: 1.8"/>
      </g>
     </g>
     <g id="text_12">
      <!-- 0.2 -->
      <g style="fill: #7f7f7f" transform="translate(22.200859 133.084038) scale(0.1 -0.1)">
       <use xlink:href="#DejaVuSans-13"/>
       <use xlink:href="#DejaVuSans-11" transform="translate(63.625 0)"/>
       <use xlink:href="#DejaVuSans-15" transform="translate(95.40625 0)"/>
      </g>
     </g>
    </g>
    <g id="ytick_4">
     <g id="line2d_13">
      <g>
       <use xlink:href="#m889095477a" x="45.103984" y="102.710782" style="fill: #7f7f7f; stroke: #7f7f7f; stroke-width: 1.8"/>
      </g>
     </g>
     <g id="text_13">
      <!-- 0.3 -->
      <g style="fill: #7f7f7f" transform="translate(22.200859 106.509611) scale(0.1 -0.1)">
       <defs>
        <path id="DejaVuSans-16" d="M 2597 2516 
Q 3050 2419 3304 2112 
Q 3559 1806 3559 1356 
Q 3559 666 3084 287 
Q 2609 -91 1734 -91 
Q 1441 -91 1130 -33 
Q 819 25 488 141 
L 488 750 
Q 750 597 1062 519 
Q 1375 441 1716 441 
Q 2309 441 2620 675 
Q 2931 909 2931 1356 
Q 2931 1769 2642 2001 
Q 2353 2234 1838 2234 
L 1294 2234 
L 1294 2753 
L 1863 2753 
Q 2328 2753 2575 2939 
Q 2822 3125 2822 3475 
Q 2822 3834 2567 4026 
Q 2313 4219 1838 4219 
Q 1578 4219 1281 4162 
Q 984 4106 628 3988 
L 628 4550 
Q 988 4650 1302 4700 
Q 1616 4750 1894 4750 
Q 2613 4750 3031 4423 
Q 3450 4097 3450 3541 
Q 3450 3153 3228 2886 
Q 3006 2619 2597 2516 
z
" transform="scale(0.015625)"/>
       </defs>
       <use xlink:href="#DejaVuSans-13"/>
       <use xlink:href="#DejaVuSans-11" transform="translate(63.625 0)"/>
       <use xlink:href="#DejaVuSans-16" transform="translate(95.40625 0)"/>
      </g>
     </g>
    </g>
    <g id="ytick_5">
     <g id="line2d_14">
      <g>
       <use xlink:href="#m889095477a" x="45.103984" y="76.136355" style="fill: #7f7f7f; stroke: #7f7f7f; stroke-width: 1.8"/>
      </g>
     </g>
     <g id="text_14">
      <!-- 0.4 -->
      <g style="fill: #7f7f7f" transform="translate(22.200859 79.935183) scale(0.1 -0.1)">
       <defs>
        <path id="DejaVuSans-17" d="M 2419 4116 
L 825 1625 
L 2419 1625 
L 2419 4116 
z
M 2253 4666 
L 3047 4666 
L 3047 1625 
L 3713 1625 
L 3713 1100 
L 3047 1100 
L 3047 0 
L 2419 0 
L 2419 1100 
L 313 1100 
L 313 1709 
L 2253 4666 
z
" transform="scale(0.015625)"/>
       </defs>
       <use xlink:href="#DejaVuSans-13"/>
       <use xlink:href="#DejaVuSans-11" transform="translate(63.625 0)"/>
       <use xlink:href="#DejaVuSans-17" transform="translate(95.40625 0)"/>
      </g>
     </g>
    </g>
    <g id="ytick_6">
     <g id="line2d_15">
      <g>
       <use xlink:href="#m889095477a" x="45.103984" y="49.561928" style="fill: #7f7f7f; stroke: #7f7f7f; stroke-width: 1.8"/>
      </g>
     </g>
     <g id="text_15">
      <!-- 0.5 -->
      <g style="fill: #7f7f7f" transform="translate(22.200859 53.360756) scale(0.1 -0.1)">
       <use xlink:href="#DejaVuSans-13"/>
       <use xlink:href="#DejaVuSans-11" transform="translate(63.625 0)"/>
       <use xlink:href="#DejaVuSans-18" transform="translate(95.40625 0)"/>
      </g>
     </g>
    </g>
    <g id="ytick_7">
     <g id="line2d_16">
      <g>
       <use xlink:href="#m889095477a" x="45.103984" y="22.987501" style="fill: #7f7f7f; stroke: #7f7f7f; stroke-width: 1.8"/>
      </g>
     </g>
     <g id="text_16">
      <!-- 0.6 -->
      <g style="fill: #7f7f7f" transform="translate(22.200859 26.786329) scale(0.1 -0.1)">
       <defs>
        <path id="DejaVuSans-19" d="M 2113 2584 
Q 1688 2584 1439 2293 
Q 1191 2003 1191 1497 
Q 1191 994 1439 701 
Q 1688 409 2113 409 
Q 2538 409 2786 701 
Q 3034 994 3034 1497 
Q 3034 2003 2786 2293 
Q 2538 2584 2113 2584 
z
M 3366 4563 
L 3366 3988 
Q 3128 4100 2886 4159 
Q 2644 4219 2406 4219 
Q 1781 4219 1451 3797 
Q 1122 3375 1075 2522 
Q 1259 2794 1537 2939 
Q 1816 3084 2150 3084 
Q 2853 3084 3261 2657 
Q 3669 2231 3669 1497 
Q 3669 778 3244 343 
Q 2819 -91 2113 -91 
Q 1303 -91 875 529 
Q 447 1150 447 2328 
Q 447 3434 972 4092 
Q 1497 4750 2381 4750 
Q 2619 4750 2861 4703 
Q 3103 4656 3366 4563 
z
" transform="scale(0.015625)"/>
       </defs>
       <use xlink:href="#DejaVuSans-13"/>
       <use xlink:href="#DejaVuSans-11" transform="translate(63.625 0)"/>
       <use xlink:href="#DejaVuSans-19" transform="translate(95.40625 0)"/>
      </g>
     </g>
    </g>
    <g id="text_17">
     <!-- Position Error [m] -->
     <g style="fill: #7f7f7f" transform="translate(15.558281 154.153535) rotate(-90) scale(0.11 -0.11)">
      <defs>
       <path id="DejaVuSans-33" d="M 1259 4147 
L 1259 2394 
L 2053 2394 
Q 2494 2394 2734 2622 
Q 2975 2850 2975 3272 
Q 2975 3691 2734 3919 
Q 2494 4147 2053 4147 
L 1259 4147 
z
M 628 4666 
L 2053 4666 
Q 2838 4666 3239 4311 
Q 3641 3956 3641 3272 
Q 3641 2581 3239 2228 
Q 2838 1875 2053 1875 
L 1259 1875 
L 1259 0 
L 628 0 
L 628 4666 
z
" transform="scale(0.015625)"/>
       <path id="DejaVuSans-52" d="M 1959 3097 
Q 1497 3097 1228 2736 
Q 959 2375 959 1747 
Q 959 1119 1226 758 
Q 1494 397 1959 397 
Q 2419 397 2687 759 
Q 2956 1122 2956 1747 
Q 2956 2369 2687 2733 
Q 2419 3097 1959 3097 
z
M 1959 3584 
Q 2709 3584 3137 3096 
Q 3566 2609 3566 1747 
Q 3566 888 3137 398 
Q 2709 -91 1959 -91 
Q 1206 -91 779 398 
Q 353 888 353 1747 
Q 353 2609 779 3096 
Q 1206 3584 1959 3584 
z
" transform="scale(0.015625)"/>
       <path id="DejaVuSans-56" d="M 2834 3397 
L 2834 2853 
Q 2591 2978 2328 3040 
Q 2066 3103 1784 3103 
Q 1356 3103 1142 2972 
Q 928 2841 928 2578 
Q 928 2378 1081 2264 
Q 1234 2150 1697 2047 
L 1894 2003 
Q 2506 1872 2764 1633 
Q 3022 1394 3022 966 
Q 3022 478 2636 193 
Q 2250 -91 1575 -91 
Q 1294 -91 989 -36 
Q 684 19 347 128 
L 347 722 
Q 666 556 975 473 
Q 1284 391 1588 391 
Q 1994 391 2212 530 
Q 2431 669 2431 922 
Q 2431 1156 2273 1281 
Q 2116 1406 1581 1522 
L 1381 1569 
Q 847 1681 609 1914 
Q 372 2147 372 2553 
Q 372 3047 722 3315 
Q 1072 3584 1716 3584 
Q 2034 3584 2315 3537 
Q 2597 3491 2834 3397 
z
" transform="scale(0.015625)"/>
       <path id="DejaVuSans-4c" d="M 603 3500 
L 1178 3500 
L 1178 0 
L 603 0 
L 603 3500 
z
M 603 4863 
L 1178 4863 
L 1178 4134 
L 603 4134 
L 603 4863 
z
" transform="scale(0.015625)"/>
       <path id="DejaVuSans-57" d="M 1172 4494 
L 1172 3500 
L 2356 3500 
L 2356 3053 
L 1172 3053 
L 1172 1153 
Q 1172 725 1289 603 
Q 1406 481 1766 481 
L 2356 481 
L 2356 0 
L 1766 0 
Q 1100 0 847 248 
Q 594 497 594 1153 
L 594 3053 
L 172 3053 
L 172 3500 
L 594 3500 
L 594 4494 
L 1172 4494 
z
" transform="scale(0.015625)"/>
       <path id="DejaVuSans-51" d="M 3513 2113 
L 3513 0 
L 2938 0 
L 2938 2094 
Q 2938 2591 2744 2837 
Q 2550 3084 2163 3084 
Q 1697 3084 1428 2787 
Q 1159 2491 1159 1978 
L 1159 0 
L 581 0 
L 581 3500 
L 1159 3500 
L 1159 2956 
Q 1366 3272 1645 3428 
Q 1925 3584 2291 3584 
Q 2894 3584 3203 3211 
Q 3513 2838 3513 2113 
z
" transform="scale(0.015625)"/>
       <path id="DejaVuSans-3" transform="scale(0.015625)"/>
       <path id="DejaVuSans-28" d="M 628 4666 
L 3578 4666 
L 3578 4134 
L 1259 4134 
L 1259 2753 
L 3481 2753 
L 3481 2222 
L 1259 2222 
L 1259 531 
L 3634 531 
L 3634 0 
L 628 0 
L 628 4666 
z
" transform="scale(0.015625)"/>
       <path id="DejaVuSans-55" d="M 2631 2963 
Q 2534 3019 2420 3045 
Q 2306 3072 2169 3072 
Q 1681 3072 1420 2755 
Q 1159 2438 1159 1844 
L 1159 0 
L 581 0 
L 581 3500 
L 1159 3500 
L 1159 2956 
Q 1341 3275 1631 3429 
Q 1922 3584 2338 3584 
Q 2397 3584 2469 3576 
Q 2541 3569 2628 3553 
L 2631 2963 
z
" transform="scale(0.015625)"/>
       <path id="DejaVuSans-3e" d="M 550 4863 
L 1875 4863 
L 1875 4416 
L 1125 4416 
L 1125 -397 
L 1875 -397 
L 1875 -844 
L 550 -844 
L 550 4863 
z
" transform="scale(0.015625)"/>
       <path id="DejaVuSans-50" d="M 3328 2828 
Q 3544 3216 3844 3400 
Q 4144 3584 4550 3584 
Q 5097 3584 5394 3201 
Q 5691 2819 5691 2113 
L 5691 0 
L 5113 0 
L 5113 2094 
Q 5113 2597 4934 2840 
Q 4756 3084 4391 3084 
Q 3944 3084 3684 2787 
Q 3425 2491 3425 1978 
L 3425 0 
L 2847 0 
L 2847 2094 
Q 2847 2600 2669 2842 
Q 2491 3084 2119 3084 
Q 1678 3084 1418 2786 
Q 1159 2488 1159 1978 
L 1159 0 
L 581 0 
L 581 3500 
L 1159 3500 
L 1159 2956 
Q 1356 3278 1631 3431 
Q 1906 3584 2284 3584 
Q 2666 3584 2933 3390 
Q 3200 3197 3328 2828 
z
" transform="scale(0.015625)"/>
       <path id="DejaVuSans-40" d="M 1947 4863 
L 1947 -844 
L 622 -844 
L 622 -397 
L 1369 -397 
L 1369 4416 
L 622 4416 
L 622 4863 
L 1947 4863 
z
" transform="scale(0.015625)"/>
      </defs>
      <use xlink:href="#DejaVuSans-33"/>
      <use xlink:href="#DejaVuSans-52" transform="translate(56.734375 0)"/>
      <use xlink:href="#DejaVuSans-56" transform="translate(117.921875 0)"/>
      <use xlink:href="#DejaVuSans-4c" transform="translate(170.015625 0)"/>
      <use xlink:href="#DejaVuSans-57" transform="translate(197.796875 0)"/>
      <use xlink:href="#DejaVuSans-4c" transform="translate(237 0)"/>
      <use xlink:href="#DejaVuSans-52" transform="translate(264.78125 0)"/>
      <use xlink:href="#DejaVuSans-51" transform="translate(325.96875 0)"/>
      <use xlink:href="#DejaVuSans-3" transform="translate(389.34375 0)"/>
      <use xlink:href="#DejaVuSans-28" transform="translate(421.125 0)"/>
      <use xlink:href="#DejaVuSans-55" transform="translate(484.3125 0)"/>
      <use xlink:href="#DejaVuSans-55" transform="translate(523.671875 0)"/>
      <use xlink:href="#DejaVuSans-52" transform="translate(562.578125 0)"/>
      <use xlink:href="#DejaVuSans-55" transform="translate(623.765625 0)"/>
      <use xlink:href="#DejaVuSans-3" transform="translate(664.875 0)"/>
      <use xlink:href="#DejaVuSans-3e" transform="translate(696.65625 0)"/>
      <use xlink:href="#DejaVuSans-50" transform="translate(735.671875 0)"/>
      <use xlink:href="#DejaVuSans-40" transform="translate(833.078125 0)"/>
     </g>
    </g>
   </g>
   <g id="line2d_17">
    <path d="M 68.581076 182.434064 
L 68.815847 177.119179 
L 69.989701 29.942694 
L 70.928785 91.696172 
L 71.163556 89.65363 
L 72.337411 136.641575 
L 72.806952 129.251999 
L 73.041723 129.914376 
L 74.450349 160.751167 
L 74.68512 152.046704 
L 76.328516 124.927905 
L 76.563287 127.290178 
L 77.2676 157.23293 
L 77.737142 155.771292 
L 78.441454 148.451408 
L 79.145767 181.236177 
L 79.615309 167.621942 
L 79.85008 163.473139 
L 80.084851 178.006862 
L 80.554393 155.955487 
L 81.023935 159.498946 
L 81.493476 178.128975 
L 81.963018 173.141176 
L 82.902102 131.432934 
L 83.371644 149.760037 
L 84.075956 160.868707 
L 84.545498 156.973173 
L 84.780269 144.724149 
L 85.249811 162.415673 
L 85.954124 181.097425 
L 86.188895 180.568808 
L 87.127978 170.994353 
L 87.362749 174.509025 
L 87.59752 182.304721 
L 87.832291 169.703663 
L 88.301833 173.610874 
L 88.771375 170.13535 
L 89.006146 179.680478 
L 89.945229 151.839443 
L 90.18 154.268425 
L 90.649542 156.930113 
L 90.884313 154.153738 
L 91.353855 147.673659 
L 92.058168 172.9863 
L 92.292939 163.598954 
L 92.527709 151.297809 
L 92.997251 160.648932 
L 93.936335 180.414932 
L 94.640648 179.534104 
L 95.579731 165.185755 
L 96.284044 181.498242 
L 96.518815 176.027679 
L 99.805608 130.346755 
L 100.040379 134.482463 
L 100.509921 145.734452 
L 101.214233 145.613636 
L 102.153317 125.587497 
L 102.622859 128.968425 
L 102.85763 130.032784 
L 103.092401 128.325872 
L 103.796713 123.736129 
L 104.501026 112.390997 
L 104.735797 119.640588 
L 104.970568 123.333634 
L 105.44011 117.644481 
L 105.674881 120.197706 
L 106.379194 121.266554 
L 106.613964 118.177223 
L 106.848735 128.028757 
L 108.257361 155.115804 
L 108.492132 153.467873 
L 108.726903 145.621561 
L 109.431215 146.300946 
L 111.074612 165.452968 
L 111.544154 157.344761 
L 111.778925 168.48769 
L 112.248466 172.173121 
L 112.718008 182.063461 
L 113.422321 181.839694 
L 113.657092 177.725427 
L 114.361405 181.202989 
L 114.596176 181.096441 
L 115.535259 166.377205 
L 115.77003 166.448134 
L 116.474343 176.285913 
L 117.882968 150.286276 
L 118.117739 159.182014 
L 118.587281 147.716188 
L 119.056823 145.049047 
L 119.291594 141.045424 
L 119.761136 147.209112 
L 119.995907 145.317869 
L 120.230678 148.345273 
L 120.700219 142.872938 
L 120.93499 144.869769 
L 121.169761 139.781779 
L 121.404532 145.579159 
L 121.874074 144.958319 
L 122.108845 143.615773 
L 123.047929 122.714555 
L 123.282699 135.063498 
L 125.160867 113.345248 
L 125.395638 119.398508 
L 126.09995 112.352044 
L 126.334721 113.118886 
L 126.569492 109.245818 
L 126.804263 117.540807 
L 127.273805 111.8191 
L 129.386743 160.077576 
L 129.621514 155.457328 
L 130.795369 162.592048 
L 131.264911 163.152151 
L 131.499682 158.625541 
L 131.734452 167.837536 
L 131.969223 169.590771 
L 132.673536 181.065377 
L 132.908307 174.349888 
L 133.143078 172.992573 
L 133.847391 181.216409 
L 134.082162 177.538006 
L 134.551703 180.922541 
L 135.960329 153.153919 
L 136.429871 155.708428 
L 136.664642 153.942246 
L 138.308038 180.801165 
L 138.77758 177.068476 
L 139.481893 179.032166 
L 139.716664 178.866673 
L 140.420976 166.958268 
L 140.655747 170.486257 
L 141.125289 182.398952 
L 141.829602 182.132137 
L 143.238227 167.076089 
L 144.412082 160.047153 
L 144.646853 160.801071 
L 145.116395 162.456556 
L 145.820707 162.509703 
L 146.290249 150.492757 
L 146.52502 167.22101 
L 147.229333 153.70607 
L 147.464104 148.395658 
L 148.168417 154.592804 
L 148.403187 149.483443 
L 148.872729 156.098444 
L 149.1075 163.087549 
L 149.342271 158.150127 
L 150.750897 122.983414 
L 151.220438 126.127531 
L 151.68998 123.656073 
L 151.924751 122.694784 
L 153.333377 99.892752 
L 153.568148 99.535756 
L 153.802919 93.143335 
L 154.507231 93.871949 
L 154.742002 97.490328 
L 155.211544 89.612632 
L 155.681086 81.95932 
L 156.150628 83.609666 
L 157.559253 114.097307 
L 158.028795 110.593681 
L 158.263566 114.681712 
L 158.967879 130.263875 
L 159.906962 126.883326 
L 160.141733 122.830913 
L 160.376504 126.556187 
L 162.489442 172.658947 
L 162.958984 172.462462 
L 163.193755 172.459147 
L 164.602381 160.137811 
L 165.776235 169.950583 
L 166.245777 171.796727 
L 166.715319 179.329611 
L 166.95009 173.948877 
L 167.889174 156.932633 
L 168.358715 165.564068 
L 168.593486 161.576844 
L 168.828257 164.350035 
L 169.53257 180.950227 
L 170.002112 176.671152 
L 170.471654 181.597736 
L 170.706425 171.440863 
L 171.175966 157.275124 
L 171.880279 165.666776 
L 172.819363 160.811997 
L 173.054134 160.853498 
L 173.288905 162.667845 
L 173.523676 162.00527 
L 173.758446 151.352055 
L 174.462759 157.08204 
L 174.69753 157.770548 
L 175.167072 145.707467 
L 175.636614 150.468553 
L 177.514781 168.442862 
L 177.749552 166.558018 
L 177.984323 159.818676 
L 178.453865 166.835964 
L 179.392948 182.419098 
L 179.86249 175.913262 
L 181.271116 160.189073 
L 181.740658 162.074563 
L 181.975429 164.230329 
L 182.679741 149.251125 
L 183.149283 152.112759 
L 184.088367 164.234809 
L 184.323138 161.994514 
L 184.557909 155.48418 
L 185.02745 163.15941 
L 185.262221 161.78481 
L 185.966534 174.238156 
L 186.436076 172.881262 
L 186.670847 171.182272 
L 186.905618 177.114951 
L 187.609931 176.703732 
L 188.079472 181.937251 
L 188.549014 170.86028 
L 188.783785 180.630703 
L 189.722869 180.068444 
L 189.95764 181.174743 
L 190.661952 172.126566 
L 190.896723 178.159986 
L 191.601036 175.82728 
L 191.835807 180.839629 
L 192.305349 179.010707 
L 192.54012 181.812902 
L 192.774891 179.734338 
L 193.479203 165.706429 
L 193.713974 171.902226 
L 194.653058 179.730532 
L 194.887829 175.917015 
L 195.1226 181.901977 
L 195.592142 176.448663 
L 196.061683 178.494699 
L 196.765996 155.074169 
L 197.235538 162.653688 
L 198.174622 182.423198 
L 198.409393 177.193494 
L 199.113705 182.191682 
L 199.348476 180.062183 
L 199.818018 180.487682 
L 200.28756 176.309549 
L 200.757102 182.018411 
L 200.991873 179.42068 
L 201.696185 170.865145 
L 202.165727 171.933695 
L 202.87004 170.163779 
L 203.104811 176.710377 
L 204.043895 170.301674 
L 203.574353 180.54679 
L 204.278666 172.980965 
L 204.513436 172.522698 
L 205.45252 163.526745 
L 207.095917 181.258964 
L 207.330687 172.566814 
L 208.035 176.438187 
L 208.269771 181.823149 
L 208.504542 176.335193 
L 208.974084 176.339686 
L 209.913168 150.845328 
L 210.852251 152.739474 
L 212.260877 169.56877 
L 212.495648 168.606005 
L 212.965189 168.066443 
L 213.669502 182.200985 
L 213.904273 181.804003 
L 214.608586 170.418875 
L 214.843357 178.222976 
L 215.078128 179.644977 
L 215.54767 173.486244 
L 215.78244 177.519661 
L 216.251982 182.131911 
L 216.486753 175.865106 
L 216.721524 175.086463 
L 216.956295 169.554035 
L 217.425837 181.53805 
L 218.364921 177.639165 
L 218.599691 178.309645 
L 219.069233 180.861061 
L 219.538775 179.216837 
L 219.773546 177.947133 
L 220.243088 180.29442 
L 220.947401 182.361688 
L 221.416942 172.414582 
L 221.886484 175.882735 
L 222.121255 181.679496 
L 222.825568 175.148288 
L 223.060339 180.822006 
L 223.529881 179.23976 
L 223.764652 166.793516 
L 224.468964 167.033297 
L 225.642819 180.556451 
L 226.816674 162.04926 
L 227.051444 169.183455 
L 227.520986 182.387916 
L 228.225299 179.100779 
L 228.46007 179.074441 
L 229.164383 182.307985 
L 229.633925 170.506145 
L 230.338237 174.404308 
L 231.277321 180.524377 
L 233.155488 133.820443 
L 233.390259 142.977359 
L 233.859801 154.638339 
L 234.564114 149.697472 
L 235.033656 159.182755 
L 235.268426 152.288414 
L 235.503197 145.029584 
L 235.972739 150.366746 
L 236.20751 162.696356 
L 236.911823 151.718653 
L 238.78999 131.243241 
L 239.494303 152.011151 
L 239.963845 137.644812 
L 241.37247 162.468333 
L 241.842012 152.654954 
L 242.076783 144.918881 
L 243.015867 146.891622 
L 244.424492 169.12056 
L 244.659263 169.887681 
L 245.128805 158.622173 
L 245.598347 163.225498 
L 246.30266 172.07916 
L 246.772201 168.606147 
L 247.006972 169.322742 
L 247.241743 169.102487 
L 247.946056 151.443903 
L 248.88514 158.769174 
L 249.354681 153.782706 
L 249.589452 150.019349 
L 249.824223 152.986685 
L 251.232849 169.687973 
L 251.937162 181.668085 
L 252.406703 175.0846 
L 252.641474 174.162742 
L 252.876245 174.299008 
L 253.111016 180.949583 
L 253.815329 176.123914 
L 254.284871 161.034218 
L 254.989183 168.838202 
L 255.458725 182.363271 
L 255.928267 169.446479 
L 256.397809 167.6987 
L 257.336893 179.282181 
L 257.806434 168.70241 
L 258.275976 178.313846 
L 258.745518 175.080662 
L 259.449831 181.739155 
L 260.858456 156.001157 
L 261.327998 163.661843 
L 261.562769 164.367864 
L 262.501853 150.79849 
L 262.736624 157.501724 
L 262.971395 158.991826 
L 263.675707 150.03019 
L 263.910478 152.282143 
L 264.145249 159.119052 
L 264.849562 153.389597 
L 265.084333 154.792234 
L 265.319104 152.07812 
L 265.788646 152.684712 
L 266.258187 145.06915 
L 266.9625 137.566508 
L 267.197271 137.823726 
L 268.840668 163.073154 
L 269.310209 158.628099 
L 269.54498 152.190935 
L 270.014522 161.306472 
L 271.892689 180.488495 
L 272.12746 177.639609 
L 272.362231 169.986477 
L 272.831773 172.779997 
L 273.066544 182.014833 
L 273.770857 181.396025 
L 275.414253 159.240486 
L 274.475169 182.302767 
L 275.883795 165.753319 
L 276.588108 173.29592 
L 276.822879 167.972819 
L 277.05765 163.818346 
L 277.527191 166.264886 
L 277.761962 173.476995 
L 278.231504 165.998666 
L 278.466275 166.377415 
L 278.701046 164.122131 
L 279.170588 167.997713 
L 281.048755 180.845425 
L 281.518297 179.011937 
L 281.987839 169.070408 
L 282.692152 171.974138 
L 282.926922 176.500529 
L 283.161693 167.878197 
L 283.631235 171.3477 
L 284.570319 159.765562 
L 285.039861 147.025874 
L 285.509403 153.94008 
L 285.744173 158.005 
L 286.448486 157.20053 
L 287.152799 152.194237 
L 286.918028 159.492638 
L 287.38757 154.104538 
L 288.561424 168.237142 
L 288.796195 171.08701 
L 289.265737 165.70226 
L 289.500508 165.239513 
L 290.674363 180.242122 
L 291.143905 181.593398 
L 291.378675 179.252719 
L 291.613446 172.624148 
L 292.082988 180.717275 
L 292.317759 180.532187 
L 293.022072 173.401174 
L 293.256843 177.428123 
L 294.195926 181.961536 
L 297.247948 148.144144 
L 297.482719 150.968056 
L 297.71749 143.4838 
L 297.952261 145.609952 
L 298.187032 146.252835 
L 299.126116 135.573895 
L 299.360887 138.844539 
L 300.065199 151.275068 
L 300.769512 148.029103 
L 303.586763 173.960074 
L 303.821534 169.678075 
L 305.23016 147.983856 
L 305.46493 152.435691 
L 306.404014 169.412155 
L 306.873556 169.090955 
L 307.343098 170.088323 
L 307.577869 166.770569 
L 307.81264 169.813422 
L 308.047411 161.654443 
L 308.751723 155.311804 
L 308.986494 163.047515 
L 309.690807 161.340752 
L 309.925578 159.238976 
L 310.160349 167.420091 
L 310.629891 149.22692 
L 310.864662 149.31812 
L 311.099432 147.103113 
L 311.568974 149.51883 
L 311.803745 151.480187 
L 312.038516 148.127012 
L 313.212371 132.781147 
L 313.916683 151.988176 
L 314.855767 147.730072 
L 316.264393 122.579188 
L 319.081644 164.165194 
L 319.316414 156.745602 
L 319.785956 169.241333 
L 320.255498 163.235303 
L 321.429353 173.894064 
L 321.664124 174.777236 
L 321.898895 162.900285 
L 322.603207 175.26038 
L 322.837978 182.203272 
L 323.777062 182.052797 
L 324.011833 181.826812 
L 324.950916 160.615219 
L 325.420458 170.457555 
L 326.124771 179.969244 
L 326.359542 177.046668 
L 326.594313 172.311302 
L 326.829084 181.284066 
L 327.063855 178.655774 
L 327.533397 181.134368 
L 328.237709 164.174029 
L 328.707251 168.535822 
L 328.942022 169.278144 
L 329.646335 180.606464 
L 330.115877 173.862948 
L 331.524502 152.979127 
L 332.228815 169.712378 
L 332.698357 166.450144 
L 332.933128 164.838695 
L 333.402669 165.660406 
L 333.872211 168.893991 
L 334.576524 158.52731 
L 334.811295 161.83607 
L 335.046066 169.217725 
L 335.515608 159.356014 
L 335.750379 164.388995 
L 335.98515 162.675995 
L 336.21992 167.558331 
L 337.159004 181.307072 
L 337.863317 178.194447 
L 338.332859 172.93343 
L 338.56763 174.279526 
L 339.741484 181.87933 
L 340.680568 171.880694 
L 340.915339 172.372757 
L 341.15011 171.315961 
L 341.384881 172.842953 
L 341.619652 175.060118 
L 343.028277 150.748993 
L 343.263048 149.268284 
L 343.73259 158.451761 
L 343.967361 149.559313 
L 345.141215 140.112465 
L 345.845528 147.32048 
L 346.31507 143.422475 
L 346.549841 138.509137 
L 346.784612 147.150458 
L 347.254154 142.615425 
L 348.89755 154.691098 
L 349.132321 145.651639 
L 349.601863 154.684966 
L 351.245259 176.318837 
L 351.48003 172.591892 
L 351.714801 160.634549 
L 352.653885 160.983342 
L 353.592968 147.323664 
L 355.001594 172.816691 
L 355.940677 180.103985 
L 356.175448 178.346556 
L 356.64499 160.046892 
L 357.349303 160.528641 
L 358.288387 169.742542 
L 358.992699 158.450592 
L 359.22747 161.873961 
L 359.462241 162.503815 
L 359.697012 169.953852 
L 360.401325 168.382623 
L 360.636096 164.843403 
L 361.575179 180.797189 
L 361.80995 179.300119 
L 362.279492 175.861825 
L 362.514263 179.015427 
L 362.983805 181.034645 
L 363.688118 163.282793 
L 363.922889 173.596525 
L 364.39243 182.122305 
L 364.861972 177.348645 
L 365.096743 173.192178 
L 365.566285 179.203258 
L 365.801056 181.448531 
L 366.035827 178.380725 
L 367.444452 152.043784 
L 368.383536 173.299161 
L 368.618307 170.023872 
L 369.087849 163.057037 
L 369.32262 171.76739 
L 369.557391 170.514212 
L 369.792161 168.396951 
L 370.496474 181.440609 
L 370.966016 176.443159 
L 371.200787 171.116058 
L 371.670329 176.619853 
L 371.9051 179.727757 
L 372.374642 174.327897 
L 372.609412 165.475804 
L 373.548496 166.601119 
L 373.783267 166.715882 
L 374.018038 169.881502 
L 374.252809 164.549471 
L 375.426663 141.401996 
L 375.661434 146.187908 
L 376.600518 126.942846 
L 376.835289 131.190399 
L 377.07006 138.230087 
L 377.539602 126.719178 
L 378.009144 130.744249 
L 378.713456 122.166054 
L 379.182998 127.950285 
L 379.417769 127.89744 
L 379.887311 118.385655 
L 380.356853 119.159632 
L 382.469791 156.516816 
L 383.408875 166.034626 
L 383.643646 159.585501 
L 383.878416 152.242573 
L 384.347958 161.96937 
L 385.052271 161.453643 
L 385.521813 172.071258 
L 385.756584 164.103875 
L 386.460897 167.542957 
L 386.695667 166.997688 
L 386.930438 172.755411 
L 387.39998 166.753016 
L 387.634751 164.740869 
L 387.869522 170.161443 
L 388.104293 170.254867 
L 388.808606 181.651002 
L 389.043377 174.969186 
L 390.217231 153.528925 
L 391.860628 171.556456 
L 392.095399 162.985577 
L 392.330169 164.33216 
L 392.56494 160.621667 
L 392.799711 162.942848 
L 394.443108 141.612993 
L 395.382191 145.990567 
L 395.616962 144.144932 
L 395.851733 143.347145 
L 396.556046 151.528542 
L 396.790817 144.590177 
L 397.025588 143.347859 
L 397.49513 155.208045 
L 397.964671 150.395635 
L 398.199442 150.139373 
L 398.668984 163.07472 
L 399.373297 159.079504 
L 400.07761 151.964828 
L 400.312381 159.357992 
L 400.547151 159.008858 
L 401.016693 159.449672 
L 401.251464 160.281411 
L 402.425319 144.665478 
L 402.66009 147.37471 
L 403.364402 158.829344 
L 403.599173 155.971666 
L 403.833944 148.427483 
L 404.303486 153.49284 
L 405.007799 166.612389 
L 405.477341 148.442761 
L 405.946883 153.93128 
L 408.529363 182.17279 
L 408.998904 179.496396 
L 409.468446 164.397573 
L 410.172759 173.283636 
L 410.40753 173.798666 
L 412.050926 151.367857 
L 411.111843 175.881825 
L 412.755239 155.71989 
L 412.99001 156.226099 
L 413.224781 170.870535 
L 414.163865 168.671896 
L 415.337719 179.280942 
L 415.57249 178.470793 
L 416.042032 162.888716 
L 416.511574 164.880029 
L 417.450657 182.042106 
L 417.685428 177.242896 
L 417.920199 177.175427 
L 418.624512 179.362743 
L 419.094054 168.067354 
L 419.328825 167.614199 
L 420.502679 158.926732 
L 420.73745 159.540086 
L 421.206992 161.319106 
L 422.380847 148.635516 
L 423.789472 177.756052 
L 424.024243 173.32997 
L 424.259014 173.424963 
L 424.493785 179.827714 
L 425.198098 174.356208 
L 425.432869 165.663803 
L 426.137181 169.829454 
L 427.076265 175.162658 
L 427.311036 182.097963 
L 427.545807 170.628392 
L 428.015349 176.324241 
L 428.25012 179.421238 
L 428.719661 173.519538 
L 429.658745 161.571337 
L 429.893516 162.92664 
L 430.128287 168.693587 
L 430.597829 159.137729 
L 432.006454 142.202851 
L 433.884622 154.273038 
L 434.823705 139.938277 
L 435.058476 144.813646 
L 436.701873 162.372798 
L 438.58004 141.782075 
L 440.458207 182.398448 
L 441.16252 170.857279 
L 441.866833 176.86927 
L 442.336375 174.820185 
L 443.275458 182.01782 
L 444.214542 182.29714 
L 444.449313 176.571553 
L 444.918855 163.545086 
L 445.623167 164.834016 
L 446.092709 171.627755 
L 446.797022 170.125773 
L 447.031793 169.40928 
L 447.266564 162.575818 
L 447.501335 172.155445 
L 447.736106 172.134035 
L 447.970877 173.022195 
L 448.675189 164.398732 
L 448.90996 169.615802 
L 449.379502 180.913918 
L 450.083815 175.061552 
L 451.257669 157.3899 
L 451.727211 159.332111 
L 451.961982 158.71777 
L 452.196753 159.229857 
L 452.901066 166.260901 
L 453.135837 162.180997 
L 453.370608 162.16473 
L 453.840149 165.513364 
L 454.07492 163.573933 
L 454.309691 160.043315 
L 454.544462 161.226039 
L 455.483546 173.65794 
L 456.892171 161.862169 
L 457.126942 162.753962 
L 459.474651 126.09824 
L 459.944193 129.216111 
L 460.178964 130.705835 
L 460.648506 119.467591 
L 461.352819 122.709264 
L 461.58759 119.626131 
L 461.822361 123.006282 
L 462.057132 122.538498 
L 462.291902 123.63142 
L 462.526673 122.586136 
L 463.230986 118.578575 
L 463.465757 122.697682 
L 463.700528 129.948455 
L 464.639612 128.562648 
L 465.109153 132.336682 
L 466.283008 163.427433 
L 466.987321 158.092316 
L 467.456863 148.09554 
L 467.691634 158.190837 
L 467.926404 155.802457 
L 468.865488 171.310084 
L 469.100259 170.943598 
L 470.508885 166.655532 
L 469.569801 173.206254 
L 470.743655 167.045474 
L 471.447968 173.315563 
L 471.682739 170.9813 
L 472.387052 165.040343 
L 472.152281 173.013625 
L 472.621823 170.505784 
L 472.856594 173.279167 
L 473.091365 170.075947 
L 473.560906 171.404837 
L 473.795677 169.254318 
L 474.030448 173.801142 
L 474.265219 174.419414 
L 475.908616 144.821241 
L 476.143387 146.543124 
L 476.378157 151.917949 
L 476.847699 142.551504 
L 478.021554 134.985759 
L 478.256325 135.328148 
L 478.491096 141.559097 
L 478.725867 129.601799 
L 479.195408 140.661053 
L 479.899721 128.931409 
L 480.369263 131.251022 
L 480.604034 133.178664 
L 480.838805 129.360399 
L 481.073576 128.637519 
L 481.308347 133.421047 
L 481.777888 123.367884 
L 482.012659 129.614734 
L 482.24743 129.202159 
L 482.482201 125.256473 
L 482.951743 131.271875 
L 483.890827 148.050697 
L 485.534223 181.186438 
L 486.473307 161.198446 
L 486.942849 168.912292 
L 487.647161 181.249218 
L 488.116703 178.015138 
L 488.586245 175.234417 
L 489.290558 176.305517 
L 489.525329 176.545446 
L 490.464412 171.517033 
L 490.699183 178.641813 
L 491.403496 176.735344 
L 491.638267 171.189334 
L 492.107809 180.126874 
L 492.34258 180.779454 
L 493.046892 161.882602 
L 493.281663 172.442014 
L 494.220747 182.020977 
L 494.455518 181.940545 
L 496.803227 134.450914 
L 497.037998 137.811724 
L 497.50754 152.476049 
L 497.977082 142.221009 
L 498.446624 130.04005 
L 498.916165 132.416752 
L 499.150936 140.995345 
L 499.855249 138.15143 
L 500.324791 135.543521 
L 501.263875 145.218983 
L 503.142042 119.167152 
L 503.611584 109.860399 
L 504.081126 119.034743 
L 504.785438 118.913499 
L 505.020209 120.204692 
L 505.25498 119.106165 
L 505.489751 116.250557 
L 506.194064 118.163542 
L 506.663606 116.486511 
L 508.072231 140.118135 
L 508.541773 140.548327 
L 508.776544 137.1333 
L 509.715628 152.654668 
L 509.950398 149.499387 
L 510.654711 134.020594 
L 511.124253 141.570287 
L 511.828566 158.15246 
L 512.532879 154.756639 
L 512.767649 154.812769 
L 514.176275 179.335566 
L 514.645817 177.338027 
L 514.880588 176.901331 
L 515.115359 178.210716 
L 516.054442 158.935368 
L 516.523984 161.366345 
L 516.758755 162.375048 
L 516.993526 161.158632 
L 518.167381 150.270949 
L 518.636922 162.101119 
L 519.106464 159.082171 
L 519.341235 156.5453 
L 520.280319 181.931915 
L 520.51509 176.667477 
L 521.923715 158.04719 
L 522.158486 171.275985 
L 522.862799 169.959906 
L 523.567112 157.933853 
L 524.036653 163.813954 
L 525.68005 145.429367 
L 524.740966 166.07743 
L 525.914821 149.061765 
L 527.323446 175.894356 
L 527.792988 176.524243 
L 528.497301 177.534989 
L 528.966843 169.961058 
L 529.671155 181.925825 
L 530.140697 176.019373 
L 530.610239 177.386649 
L 531.549323 157.960757 
L 532.723177 181.11014 
L 532.957948 181.026589 
L 533.192719 180.682784 
L 533.897032 176.917759 
L 534.836116 182.269427 
L 535.070886 179.155926 
L 535.775199 181.549658 
L 536.00997 181.595455 
L 538.122908 155.655121 
L 538.122908 155.655121 
" clip-path="url(#pd915d51817)" style="fill: none; stroke: #e41a1c; stroke-width: 2; stroke-linecap: square"/>
   </g>
   <g id="patch_3">
    <path d="M 45.103984 190.058633 
L 45.103984 22.318125 
" style="fill: none; stroke: #7f7f7f; stroke-width: 1.8; stroke-linejoin: miter; stroke-linecap: square"/>
   </g>
   <g id="patch_4">
    <path d="M 45.103984 190.058633 
L 561.6 190.058633 
" style="fill: none; stroke: #7f7f7f; stroke-width: 1.8; stroke-linejoin: miter; stroke-linecap: square"/>
   </g>
   <g id="text_18">
    <!-- Kalman Filter Estimation Error -->
    <g style="fill: #7f7f7f" transform="translate(200.338555 16.318125) scale(0.12 -0.12)">
     <defs>
      <path id="DejaVuSans-Bold-2e" d="M 588 4666 
L 1791 4666 
L 1791 2963 
L 3525 4666 
L 4922 4666 
L 2675 2456 
L 5153 0 
L 3647 0 
L 1791 1838 
L 1791 0 
L 588 0 
L 588 4666 
z
" transform="scale(0.015625)"/>
      <path id="DejaVuSans-Bold-44" d="M 2106 1575 
Q 1756 1575 1579 1456 
Q 1403 1338 1403 1106 
Q 1403 894 1545 773 
Q 1688 653 1941 653 
Q 2256 653 2472 879 
Q 2688 1106 2688 1447 
L 2688 1575 
L 2106 1575 
z
M 3816 1997 
L 3816 0 
L 2688 0 
L 2688 519 
Q 2463 200 2181 54 
Q 1900 -91 1497 -91 
Q 953 -91 614 226 
Q 275 544 275 1050 
Q 275 1666 698 1953 
Q 1122 2241 2028 2241 
L 2688 2241 
L 2688 2328 
Q 2688 2594 2478 2717 
Q 2269 2841 1825 2841 
Q 1466 2841 1156 2769 
Q 847 2697 581 2553 
L 581 3406 
Q 941 3494 1303 3539 
Q 1666 3584 2028 3584 
Q 2975 3584 3395 3211 
Q 3816 2838 3816 1997 
z
" transform="scale(0.015625)"/>
      <path id="DejaVuSans-Bold-4f" d="M 538 4863 
L 1656 4863 
L 1656 0 
L 538 0 
L 538 4863 
z
" transform="scale(0.015625)"/>
      <path id="DejaVuSans-Bold-50" d="M 3781 2919 
Q 3994 3244 4286 3414 
Q 4578 3584 4928 3584 
Q 5531 3584 5847 3212 
Q 6163 2841 6163 2131 
L 6163 0 
L 5038 0 
L 5038 1825 
Q 5041 1866 5042 1909 
Q 5044 1953 5044 2034 
Q 5044 2406 4934 2573 
Q 4825 2741 4581 2741 
Q 4263 2741 4089 2478 
Q 3916 2216 3909 1719 
L 3909 0 
L 2784 0 
L 2784 1825 
Q 2784 2406 2684 2573 
Q 2584 2741 2328 2741 
Q 2006 2741 1831 2477 
Q 1656 2213 1656 1722 
L 1656 0 
L 531 0 
L 531 3500 
L 1656 3500 
L 1656 2988 
Q 1863 3284 2130 3434 
Q 2397 3584 2719 3584 
Q 3081 3584 3359 3409 
Q 3638 3234 3781 2919 
z
" transform="scale(0.015625)"/>
      <path id="DejaVuSans-Bold-51" d="M 4056 2131 
L 4056 0 
L 2931 0 
L 2931 347 
L 2931 1631 
Q 2931 2084 2911 2256 
Q 2891 2428 2841 2509 
Q 2775 2619 2662 2680 
Q 2550 2741 2406 2741 
Q 2056 2741 1856 2470 
Q 1656 2200 1656 1722 
L 1656 0 
L 538 0 
L 538 3500 
L 1656 3500 
L 1656 2988 
Q 1909 3294 2193 3439 
Q 2478 3584 2822 3584 
Q 3428 3584 3742 3212 
Q 4056 2841 4056 2131 
z
" transform="scale(0.015625)"/>
      <path id="DejaVuSans-Bold-3" transform="scale(0.015625)"/>
      <path id="DejaVuSans-Bold-29" d="M 588 4666 
L 3834 4666 
L 3834 3756 
L 1791 3756 
L 1791 2888 
L 3713 2888 
L 3713 1978 
L 1791 1978 
L 1791 0 
L 588 0 
L 588 4666 
z
" transform="scale(0.015625)"/>
      <path id="DejaVuSans-Bold-4c" d="M 538 3500 
L 1656 3500 
L 1656 0 
L 538 0 
L 538 3500 
z
M 538 4863 
L 1656 4863 
L 1656 3950 
L 538 3950 
L 538 4863 
z
" transform="scale(0.015625)"/>
      <path id="DejaVuSans-Bold-57" d="M 1759 4494 
L 1759 3500 
L 2913 3500 
L 2913 2700 
L 1759 2700 
L 1759 1216 
Q 1759 972 1856 886 
Q 1953 800 2241 800 
L 2816 800 
L 2816 0 
L 1856 0 
Q 1194 0 917 276 
Q 641 553 641 1216 
L 641 2700 
L 84 2700 
L 84 3500 
L 641 3500 
L 641 4494 
L 1759 4494 
z
" transform="scale(0.015625)"/>
      <path id="DejaVuSans-Bold-48" d="M 4031 1759 
L 4031 1441 
L 1416 1441 
Q 1456 1047 1700 850 
Q 1944 653 2381 653 
Q 2734 653 3104 758 
Q 3475 863 3866 1075 
L 3866 213 
Q 3469 63 3072 -14 
Q 2675 -91 2278 -91 
Q 1328 -91 801 392 
Q 275 875 275 1747 
Q 275 2603 792 3093 
Q 1309 3584 2216 3584 
Q 3041 3584 3536 3087 
Q 4031 2591 4031 1759 
z
M 2881 2131 
Q 2881 2450 2695 2645 
Q 2509 2841 2209 2841 
Q 1884 2841 1681 2658 
Q 1478 2475 1428 2131 
L 2881 2131 
z
" transform="scale(0.015625)"/>
      <path id="DejaVuSans-Bold-55" d="M 3138 2547 
Q 2991 2616 2845 2648 
Q 2700 2681 2553 2681 
Q 2122 2681 1889 2404 
Q 1656 2128 1656 1613 
L 1656 0 
L 538 0 
L 538 3500 
L 1656 3500 
L 1656 2925 
Q 1872 3269 2151 3426 
Q 2431 3584 2822 3584 
Q 2878 3584 2943 3579 
Q 3009 3575 3134 3559 
L 3138 2547 
z
" transform="scale(0.015625)"/>
      <path id="DejaVuSans-Bold-28" d="M 588 4666 
L 3834 4666 
L 3834 3756 
L 1791 3756 
L 1791 2888 
L 3713 2888 
L 3713 1978 
L 1791 1978 
L 1791 909 
L 3903 909 
L 3903 0 
L 588 0 
L 588 4666 
z
" transform="scale(0.015625)"/>
      <path id="DejaVuSans-Bold-56" d="M 3272 3391 
L 3272 2541 
Q 2913 2691 2578 2766 
Q 2244 2841 1947 2841 
Q 1628 2841 1473 2761 
Q 1319 2681 1319 2516 
Q 1319 2381 1436 2309 
Q 1553 2238 1856 2203 
L 2053 2175 
Q 2913 2066 3209 1816 
Q 3506 1566 3506 1031 
Q 3506 472 3093 190 
Q 2681 -91 1863 -91 
Q 1516 -91 1145 -36 
Q 775 19 384 128 
L 384 978 
Q 719 816 1070 734 
Q 1422 653 1784 653 
Q 2113 653 2278 743 
Q 2444 834 2444 1013 
Q 2444 1163 2330 1236 
Q 2216 1309 1875 1350 
L 1678 1375 
Q 931 1469 631 1722 
Q 331 1975 331 2491 
Q 331 3047 712 3315 
Q 1094 3584 1881 3584 
Q 2191 3584 2531 3537 
Q 2872 3491 3272 3391 
z
" transform="scale(0.015625)"/>
      <path id="DejaVuSans-Bold-52" d="M 2203 2784 
Q 1831 2784 1636 2517 
Q 1441 2250 1441 1747 
Q 1441 1244 1636 976 
Q 1831 709 2203 709 
Q 2569 709 2762 976 
Q 2956 1244 2956 1747 
Q 2956 2250 2762 2517 
Q 2569 2784 2203 2784 
z
M 2203 3584 
Q 3106 3584 3614 3096 
Q 4122 2609 4122 1747 
Q 4122 884 3614 396 
Q 3106 -91 2203 -91 
Q 1297 -91 786 396 
Q 275 884 275 1747 
Q 275 2609 786 3096 
Q 1297 3584 2203 3584 
z
" transform="scale(0.015625)"/>
     </defs>
     <use xlink:href="#DejaVuSans-Bold-2e"/>
     <use xlink:href="#DejaVuSans-Bold-44" transform="translate(77.484375 0)"/>
     <use xlink:href="#DejaVuSans-Bold-4f" transform="translate(144.96875 0)"/>
     <use xlink:href="#DejaVuSans-Bold-50" transform="translate(179.25 0)"/>
     <use xlink:href="#DejaVuSans-Bold-44" transform="translate(283.453125 0)"/>
     <use xlink:href="#DejaVuSans-Bold-51" transform="translate(350.9375 0)"/>
     <use xlink:href="#DejaVuSans-Bold-3" transform="translate(422.125 0)"/>
     <use xlink:href="#DejaVuSans-Bold-29" transform="translate(456.9375 0)"/>
     <use xlink:href="#DejaVuSans-Bold-4c" transform="translate(525.25 0)"/>
     <use xlink:href="#DejaVuSans-Bold-4f" transform="translate(559.53125 0)"/>
     <use xlink:href="#DejaVuSans-Bold-57" transform="translate(593.8125 0)"/>
     <use xlink:href="#DejaVuSans-Bold-48" transform="translate(641.609375 0)"/>
     <use xlink:href="#DejaVuSans-Bold-55" transform="translate(709.4375 0)"/>
     <use xlink:href="#DejaVuSans-Bold-3" transform="translate(758.75 0)"/>
     <use xlink:href="#DejaVuSans-Bold-28" transform="translate(793.5625 0)"/>
     <use xlink:href="#DejaVuSans-Bold-56" transform="translate(861.875 0)"/>
     <use xlink:href="#DejaVuSans-Bold-57" transform="translate(921.390625 0)"/>
     <use xlink:href="#DejaVuSans-Bold-4c" transform="translate(969.1875 0)"/>
     <use xlink:href="#DejaVuSans-Bold-50" transform="translate(1003.46875 0)"/>
     <use xlink:href="#DejaVuSans-Bold-44" transform="translate(1107.671875 0)"/>
     <use xlink:href="#DejaVuSans-Bold-57" transform="translate(1175.15625 0)"/>
     <use xlink:href="#DejaVuSans-Bold-4c" transform="translate(1222.953125 0)"/>
     <use xlink:href="#DejaVuSans-Bold-52" transform="translate(1257.234375 0)"/>
     <use xlink:href="#DejaVuSans-Bold-51" transform="translate(1325.9375 0)"/>
     <use xlink:href="#DejaVuSans-Bold-3" transform="translate(1397.125 0)"/>
     <use xlink:href="#DejaVuSans-Bold-28" transform="translate(1431.9375 0)"/>
     <use xlink:href="#DejaVuSans-Bold-55" transform="translate(1500.25 0)"/>
     <use xlink:href="#DejaVuSans-Bold-55" transform="translate(1549.5625 0)"/>
     <use xlink:href="#DejaVuSans-Bold-52" transform="translate(1598.875 0)"/>
     <use xlink:href="#DejaVuSans-Bold-55" transform="translate(1667.578125 0)"/>
    </g>
   </g>
  </g>
  <g id="axes_2">
   <g id="patch_5">
    <path d="M 45.103984 385.599141 
L 561.6 385.599141 
L 561.6 217.858633 
L 45.103984 217.858633 
L 45.103984 385.599141 
z
" style="fill: none"/>
   </g>
   <g id="matplotlib.axis_3">
    <g id="xtick_10">
     <g id="line2d_18">
      <g>
       <use xlink:href="#m307d497e6e" x="68.581076" y="385.599141" style="fill: #7f7f7f; stroke: #7f7f7f; stroke-width: 1.8"/>
      </g>
     </g>
     <g id="text_19">
      <!-- 0.0 -->
      <g style="fill: #7f7f7f" transform="translate(60.629513 400.196797) scale(0.1 -0.1)">
       <use xlink:href="#DejaVuSans-13"/>
       <use xlink:href="#DejaVuSans-11" transform="translate(63.625 0)"/>
       <use xlink:href="#DejaVuSans-13" transform="translate(95.40625 0)"/>
      </g>
     </g>
    </g>
    <g id="xtick_11">
     <g id="line2d_19">
      <g>
       <use xlink:href="#m307d497e6e" x="127.273805" y="385.599141" style="fill: #7f7f7f; stroke: #7f7f7f; stroke-width: 1.8"/>
      </g>
     </g>
     <g id="text_20">
      <!-- 2.5 -->
      <g style="fill: #7f7f7f" transform="translate(119.322243 400.196797) scale(0.1 -0.1)">
       <use xlink:href="#DejaVuSans-15"/>
       <use xlink:href="#DejaVuSans-11" transform="translate(63.625 0)"/>
       <use xlink:href="#DejaVuSans-18" transform="translate(95.40625 0)"/>
      </g>
     </g>
    </g>
    <g id="xtick_12">
     <g id="line2d_20">
      <g>
       <use xlink:href="#m307d497e6e" x="185.966534" y="385.599141" style="fill: #7f7f7f; stroke: #7f7f7f; stroke-width: 1.8"/>
      </g>
     </g>
     <g id="text_21">
      <!-- 5.0 -->
      <g style="fill: #7f7f7f" transform="translate(178.014972 400.196797) scale(0.1 -0.1)">
       <use xlink:href="#DejaVuSans-18"/>
       <use xlink:href="#DejaVuSans-11" transform="translate(63.625 0)"/>
       <use xlink:href="#DejaVuSans-13" transform="translate(95.40625 0)"/>
      </g>
     </g>
    </g>
    <g id="xtick_13">
     <g id="line2d_21">
      <g>
       <use xlink:href="#m307d497e6e" x="244.659263" y="385.599141" style="fill: #7f7f7f; stroke: #7f7f7f; stroke-width: 1.8"/>
      </g>
     </g>
     <g id="text_22">
      <!-- 7.5 -->
      <g style="fill: #7f7f7f" transform="translate(236.707701 400.196797) scale(0.1 -0.1)">
       <use xlink:href="#DejaVuSans-1a"/>
       <use xlink:href="#DejaVuSans-11" transform="translate(63.625 0)"/>
       <use xlink:href="#DejaVuSans-18" transform="translate(95.40625 0)"/>
      </g>
     </g>
    </g>
    <g id="xtick_14">
     <g id="line2d_22">
      <g>
       <use xlink:href="#m307d497e6e" x="303.351992" y="385.599141" style="fill: #7f7f7f; stroke: #7f7f7f; stroke-width: 1.8"/>
      </g>
     </g>
     <g id="text_23">
      <!-- 10.0 -->
      <g style="fill: #7f7f7f" transform="translate(292.21918 400.196797) scale(0.1 -0.1)">
       <use xlink:href="#DejaVuSans-14"/>
       <use xlink:href="#DejaVuSans-13" transform="translate(63.625 0)"/>
       <use xlink:href="#DejaVuSans-11" transform="translate(127.25 0)"/>
       <use xlink:href="#DejaVuSans-13" transform="translate(159.03125 0)"/>
      </g>
     </g>
    </g>
    <g id="xtick_15">
     <g id="line2d_23">
      <g>
       <use xlink:href="#m307d497e6e" x="362.044721" y="385.599141" style="fill: #7f7f7f; stroke: #7f7f7f; stroke-width: 1.8"/>
      </g>
     </g>
     <g id="text_24">
      <!-- 12.5 -->
      <g style="fill: #7f7f7f" transform="translate(350.911909 400.196797) scale(0.1 -0.1)">
       <use xlink:href="#DejaVuSans-14"/>
       <use xlink:href="#DejaVuSans-15" transform="translate(63.625 0)"/>
       <use xlink:href="#DejaVuSans-11" transform="translate(127.25 0)"/>
       <use xlink:href="#DejaVuSans-18" transform="translate(159.03125 0)"/>
      </g>
     </g>
    </g>
    <g id="xtick_16">
     <g id="line2d_24">
      <g>
       <use xlink:href="#m307d497e6e" x="420.73745" y="385.599141" style="fill: #7f7f7f; stroke: #7f7f7f; stroke-width: 1.8"/>
      </g>
     </g>
     <g id="text_25">
      <!-- 15.0 -->
      <g style="fill: #7f7f7f" transform="translate(409.604638 400.196797) scale(0.1 -0.1)">
       <use xlink:href="#DejaVuSans-14"/>
       <use xlink:href="#DejaVuSans-18" transform="translate(63.625 0)"/>
       <use xlink:href="#DejaVuSans-11" transform="translate(127.25 0)"/>
       <use xlink:href="#DejaVuSans-13" transform="translate(159.03125 0)"/>
      </g>
     </g>
    </g>
    <g id="xtick_17">
     <g id="line2d_25">
      <g>
       <use xlink:href="#m307d497e6e" x="479.430179" y="385.599141" style="fill: #7f7f7f; stroke: #7f7f7f; stroke-width: 1.8"/>
      </g>
     </g>
     <g id="text_26">
      <!-- 17.5 -->
      <g style="fill: #7f7f7f" transform="translate(468.297367 400.196797) scale(0.1 -0.1)">
       <use xlink:href="#DejaVuSans-14"/>
       <use xlink:href="#DejaVuSans-1a" transform="translate(63.625 0)"/>
       <use xlink:href="#DejaVuSans-11" transform="translate(127.25 0)"/>
       <use xlink:href="#DejaVuSans-18" transform="translate(159.03125 0)"/>
      </g>
     </g>
    </g>
    <g id="xtick_18">
     <g id="line2d_26">
      <g>
       <use xlink:href="#m307d497e6e" x="538.122908" y="385.599141" style="fill: #7f7f7f; stroke: #7f7f7f; stroke-width: 1.8"/>
      </g>
     </g>
     <g id="text_27">
      <!-- 20.0 -->
      <g style="fill: #7f7f7f" transform="translate(526.990096 400.196797) scale(0.1 -0.1)">
       <use xlink:href="#DejaVuSans-15"/>
       <use xlink:href="#DejaVuSans-13" transform="translate(63.625 0)"/>
       <use xlink:href="#DejaVuSans-11" transform="translate(127.25 0)"/>
       <use xlink:href="#DejaVuSans-13" transform="translate(159.03125 0)"/>
      </g>
     </g>
    </g>
    <g id="text_28">
     <!-- Time [s] -->
     <g style="fill: #7f7f7f" transform="translate(280.987617 414.957422) scale(0.11 -0.11)">
      <defs>
       <path id="DejaVuSans-37" d="M -19 4666 
L 3928 4666 
L 3928 4134 
L 2272 4134 
L 2272 0 
L 1638 0 
L 1638 4134 
L -19 4134 
L -19 4666 
z
" transform="scale(0.015625)"/>
       <path id="DejaVuSans-48" d="M 3597 1894 
L 3597 1613 
L 953 1613 
Q 991 1019 1311 708 
Q 1631 397 2203 397 
Q 2534 397 2845 478 
Q 3156 559 3463 722 
L 3463 178 
Q 3153 47 2828 -22 
Q 2503 -91 2169 -91 
Q 1331 -91 842 396 
Q 353 884 353 1716 
Q 353 2575 817 3079 
Q 1281 3584 2069 3584 
Q 2775 3584 3186 3129 
Q 3597 2675 3597 1894 
z
M 3022 2063 
Q 3016 2534 2758 2815 
Q 2500 3097 2075 3097 
Q 1594 3097 1305 2825 
Q 1016 2553 972 2059 
L 3022 2063 
z
" transform="scale(0.015625)"/>
      </defs>
      <use xlink:href="#DejaVuSans-37"/>
      <use xlink:href="#DejaVuSans-4c" transform="translate(58 0)"/>
      <use xlink:href="#DejaVuSans-50" transform="translate(85.78125 0)"/>
      <use xlink:href="#DejaVuSans-48" transform="translate(183.1875 0)"/>
      <use xlink:href="#DejaVuSans-3" transform="translate(244.71875 0)"/>
      <use xlink:href="#DejaVuSans-3e" transform="translate(276.5 0)"/>
      <use xlink:href="#DejaVuSans-56" transform="translate(315.515625 0)"/>
      <use xlink:href="#DejaVuSans-40" transform="translate(367.609375 0)"/>
     </g>
    </g>
   </g>
   <g id="matplotlib.axis_4">
    <g id="ytick_8">
     <g id="line2d_27">
      <g>
       <use xlink:href="#m889095477a" x="45.103984" y="377.976235" style="fill: #7f7f7f; stroke: #7f7f7f; stroke-width: 1.8"/>
      </g>
     </g>
     <g id="text_29">
      <!-- 0.0 -->
      <g style="fill: #7f7f7f" transform="translate(22.200859 381.775063) scale(0.1 -0.1)">
       <use xlink:href="#DejaVuSans-13"/>
       <use xlink:href="#DejaVuSans-11" transform="translate(63.625 0)"/>
       <use xlink:href="#DejaVuSans-13" transform="translate(95.40625 0)"/>
      </g>
     </g>
    </g>
    <g id="ytick_9">
     <g id="line2d_28">
      <g>
       <use xlink:href="#m889095477a" x="45.103984" y="341.773405" style="fill: #7f7f7f; stroke: #7f7f7f; stroke-width: 1.8"/>
      </g>
     </g>
     <g id="text_30">
      <!-- 0.5 -->
      <g style="fill: #7f7f7f" transform="translate(22.200859 345.572233) scale(0.1 -0.1)">
       <use xlink:href="#DejaVuSans-13"/>
       <use xlink:href="#DejaVuSans-11" transform="translate(63.625 0)"/>
       <use xlink:href="#DejaVuSans-18" transform="translate(95.40625 0)"/>
      </g>
     </g>
    </g>
    <g id="ytick_10">
     <g id="line2d_29">
      <g>
       <use xlink:href="#m889095477a" x="45.103984" y="305.570575" style="fill: #7f7f7f; stroke: #7f7f7f; stroke-width: 1.8"/>
      </g>
     </g>
     <g id="text_31">
      <!-- 1.0 -->
      <g style="fill: #7f7f7f" transform="translate(22.200859 309.369404) scale(0.1 -0.1)">
       <use xlink:href="#DejaVuSans-14"/>
       <use xlink:href="#DejaVuSans-11" transform="translate(63.625 0)"/>
       <use xlink:href="#DejaVuSans-13" transform="translate(95.40625 0)"/>
      </g>
     </g>
    </g>
    <g id="ytick_11">
     <g id="line2d_30">
      <g>
       <use xlink:href="#m889095477a" x="45.103984" y="269.367746" style="fill: #7f7f7f; stroke: #7f7f7f; stroke-width: 1.8"/>
      </g>
     </g>
     <g id="text_32">
      <!-- 1.5 -->
      <g style="fill: #7f7f7f" transform="translate(22.200859 273.166574) scale(0.1 -0.1)">
       <use xlink:href="#DejaVuSans-14"/>
       <use xlink:href="#DejaVuSans-11" transform="translate(63.625 0)"/>
       <use xlink:href="#DejaVuSans-18" transform="translate(95.40625 0)"/>
      </g>
     </g>
    </g>
    <g id="ytick_12">
     <g id="line2d_31">
      <g>
       <use xlink:href="#m889095477a" x="45.103984" y="233.164916" style="fill: #7f7f7f; stroke: #7f7f7f; stroke-width: 1.8"/>
      </g>
     </g>
     <g id="text_33">
      <!-- 2.0 -->
      <g style="fill: #7f7f7f" transform="translate(22.200859 236.963744) scale(0.1 -0.1)">
       <use xlink:href="#DejaVuSans-15"/>
       <use xlink:href="#DejaVuSans-11" transform="translate(63.625 0)"/>
       <use xlink:href="#DejaVuSans-13" transform="translate(95.40625 0)"/>
      </g>
     </g>
    </g>
    <g id="text_34">
     <!-- Velocity Error [m/s] -->
     <g style="fill: #7f7f7f" transform="translate(15.558281 354.574434) rotate(-90) scale(0.11 -0.11)">
      <defs>
       <path id="DejaVuSans-39" d="M 1831 0 
L 50 4666 
L 709 4666 
L 2188 738 
L 3669 4666 
L 4325 4666 
L 2547 0 
L 1831 0 
z
" transform="scale(0.015625)"/>
       <path id="DejaVuSans-4f" d="M 603 4863 
L 1178 4863 
L 1178 0 
L 603 0 
L 603 4863 
z
" transform="scale(0.015625)"/>
       <path id="DejaVuSans-46" d="M 3122 3366 
L 3122 2828 
Q 2878 2963 2633 3030 
Q 2388 3097 2138 3097 
Q 1578 3097 1268 2742 
Q 959 2388 959 1747 
Q 959 1106 1268 751 
Q 1578 397 2138 397 
Q 2388 397 2633 464 
Q 2878 531 3122 666 
L 3122 134 
Q 2881 22 2623 -34 
Q 2366 -91 2075 -91 
Q 1284 -91 818 406 
Q 353 903 353 1747 
Q 353 2603 823 3093 
Q 1294 3584 2113 3584 
Q 2378 3584 2631 3529 
Q 2884 3475 3122 3366 
z
" transform="scale(0.015625)"/>
       <path id="DejaVuSans-5c" d="M 2059 -325 
Q 1816 -950 1584 -1140 
Q 1353 -1331 966 -1331 
L 506 -1331 
L 506 -850 
L 844 -850 
Q 1081 -850 1212 -737 
Q 1344 -625 1503 -206 
L 1606 56 
L 191 3500 
L 800 3500 
L 1894 763 
L 2988 3500 
L 3597 3500 
L 2059 -325 
z
" transform="scale(0.015625)"/>
       <path id="DejaVuSans-12" d="M 1625 4666 
L 2156 4666 
L 531 -594 
L 0 -594 
L 1625 4666 
z
" transform="scale(0.015625)"/>
      </defs>
      <use xlink:href="#DejaVuSans-39"/>
      <use xlink:href="#DejaVuSans-48" transform="translate(60.640625 0)"/>
      <use xlink:href="#DejaVuSans-4f" transform="translate(122.171875 0)"/>
      <use xlink:href="#DejaVuSans-52" transform="translate(149.953125 0)"/>
      <use xlink:href="#DejaVuSans-46" transform="translate(211.140625 0)"/>
      <use xlink:href="#DejaVuSans-4c" transform="translate(266.125 0)"/>
      <use xlink:href="#DejaVuSans-57" transform="translate(293.90625 0)"/>
      <use xlink:href="#DejaVuSans-5c" transform="translate(333.109375 0)"/>
      <use xlink:href="#DejaVuSans-3" transform="translate(392.296875 0)"/>
      <use xlink:href="#DejaVuSans-28" transform="translate(424.078125 0)"/>
      <use xlink:href="#DejaVuSans-55" transform="translate(487.265625 0)"/>
      <use xlink:href="#DejaVuSans-55" transform="translate(526.625 0)"/>
      <use xlink:href="#DejaVuSans-52" transform="translate(565.53125 0)"/>
      <use xlink:href="#DejaVuSans-55" transform="translate(626.71875 0)"/>
      <use xlink:href="#DejaVuSans-3" transform="translate(667.828125 0)"/>
      <use xlink:href="#DejaVuSans-3e" transform="translate(699.609375 0)"/>
      <use xlink:href="#DejaVuSans-50" transform="translate(738.625 0)"/>
      <use xlink:href="#DejaVuSans-12" transform="translate(836.03125 0)"/>
      <use xlink:href="#DejaVuSans-56" transform="translate(869.71875 0)"/>
      <use xlink:href="#DejaVuSans-40" transform="translate(921.8125 0)"/>
     </g>
    </g>
   </g>
   <g id="line2d_32">
    <path d="M 68.581076 233.164916 
L 68.815847 233.164916 
L 69.285389 234.935933 
L 69.989701 225.483201 
L 72.337411 284.957164 
L 72.572182 279.616319 
L 73.041723 288.404192 
L 74.450349 332.550417 
L 74.919891 322.750154 
L 75.154662 325.043056 
L 75.858974 329.005109 
L 76.328516 313.134772 
L 79.145767 376.670353 
L 80.084851 374.907205 
L 80.554393 358.527235 
L 81.023935 362.178165 
L 81.493476 376.241985 
L 81.963018 372.849254 
L 82.902102 345.986544 
L 83.371644 359.326314 
L 84.310727 367.609628 
L 84.545498 365.533023 
L 84.780269 358.412593 
L 85.249811 369.656272 
L 85.484582 377.421238 
L 86.188895 375.603175 
L 86.423666 369.446147 
L 86.893207 376.749931 
L 87.127978 374.820607 
L 87.362749 376.78904 
L 87.832291 374.224446 
L 88.301833 376.404958 
L 89.945229 360.448067 
L 90.649542 363.841461 
L 90.884313 362.741342 
L 91.353855 360.180014 
L 92.058168 372.880096 
L 92.292939 368.532705 
L 92.527709 362.909354 
L 92.997251 367.762778 
L 93.936335 376.738753 
L 94.640648 376.42422 
L 95.579731 370.2397 
L 96.284044 377.364063 
L 96.518815 375.305522 
L 99.805608 358.031434 
L 101.214233 366.162197 
L 102.153317 358.353989 
L 102.622859 360.40649 
L 103.561943 360.993526 
L 104.501026 355.466175 
L 104.735797 358.984346 
L 105.909652 361.107116 
L 106.613964 360.612098 
L 108.257361 377.623396 
L 108.726903 373.490681 
L 109.665986 375.928261 
L 110.135528 377.740796 
L 111.074612 373.696163 
L 111.544154 377.372902 
L 111.778925 372.485047 
L 112.248466 371.044706 
L 112.952779 364.874731 
L 113.422321 367.645937 
L 113.657092 369.62511 
L 114.126634 367.367232 
L 114.361405 368.551919 
L 114.596176 368.751382 
L 115.535259 361.95308 
L 115.77003 362.243896 
L 116.474343 367.274862 
L 117.648197 357.978668 
L 117.882968 357.441363 
L 118.117739 361.705727 
L 118.587281 357.19953 
L 118.822052 357.192728 
L 119.291594 355.269874 
L 119.526365 356.543191 
L 120.230678 359.848404 
L 120.465448 358.069596 
L 120.700219 358.045339 
L 121.874074 360.507497 
L 121.169761 357.305394 
L 122.108845 360.197143 
L 123.047929 352.282649 
L 123.282699 358.164848 
L 123.987012 353.649756 
L 124.221783 354.104958 
L 125.160867 351.619563 
L 125.395638 354.72678 
L 126.09995 352.784144 
L 126.569492 352.21565 
L 128.212889 361.836416 
L 129.856285 377.970828 
L 130.325827 377.738228 
L 130.795369 376.86833 
L 131.264911 376.659784 
L 131.499682 377.268377 
L 133.143078 364.790404 
L 134.082162 371.73549 
L 134.316933 371.257274 
L 134.551703 370.448593 
L 135.256016 377.349918 
L 135.490787 377.17453 
L 135.960329 373.092729 
L 136.664642 373.652858 
L 137.134184 377.343732 
L 137.368954 373.453429 
L 138.308038 369.291972 
L 138.542809 371.760142 
L 138.77758 372.62946 
L 139.012351 368.397911 
L 139.716664 372.270539 
L 140.420976 377.722977 
L 140.890518 373.229089 
L 141.594831 366.82193 
L 142.299144 367.236174 
L 142.768686 371.035528 
L 143.003456 367.262056 
L 144.412082 363.451018 
L 145.116395 365.1956 
L 145.820707 365.900406 
L 146.290249 360.988427 
L 146.52502 368.662577 
L 147.229333 363.256776 
L 147.464104 361.147075 
L 147.933646 364.204356 
L 148.168417 364.613551 
L 148.403187 362.570747 
L 148.872729 365.981687 
L 149.1075 369.267446 
L 149.342271 367.225142 
L 150.516126 353.442195 
L 150.750897 353.474495 
L 151.220438 355.646883 
L 151.924751 355.227113 
L 153.333377 347.718059 
L 153.568148 348.05133 
L 153.802919 345.709889 
L 154.507231 347.538472 
L 154.742002 349.632864 
L 155.211544 347.076007 
L 155.681086 344.712167 
L 156.150628 346.500254 
L 157.559253 362.252479 
L 157.794024 362.193124 
L 158.028795 361.214341 
L 158.263566 363.294473 
L 158.967879 370.777697 
L 159.906962 369.913355 
L 160.141733 368.251938 
L 160.376504 370.0574 
L 161.315588 377.099328 
L 161.550359 374.479834 
L 162.489442 365.6539 
L 162.958984 366.130893 
L 163.193755 366.324641 
L 164.602381 372.577217 
L 165.776235 368.866443 
L 166.245777 368.347015 
L 166.715319 365.375805 
L 166.95009 367.960145 
L 167.889174 375.938217 
L 168.593486 374.074121 
L 169.53257 364.702953 
L 169.767341 360.756414 
L 170.236883 365.530938 
L 170.471654 365.924488 
L 171.175966 377.778252 
L 171.645508 374.028366 
L 171.880279 374.173242 
L 173.054134 376.50866 
L 173.758446 375.150093 
L 174.69753 377.925088 
L 175.167072 372.752758 
L 175.636614 374.977411 
L 176.340927 376.511786 
L 176.575697 375.560604 
L 177.514781 373.162721 
L 177.749552 374.074491 
L 177.984323 377.118516 
L 178.453865 374.052642 
L 181.271116 359.505882 
L 181.975429 362.127498 
L 182.679741 356.450726 
L 182.914512 358.828829 
L 183.149283 358.376605 
L 184.088367 364.843731 
L 184.323138 364.066065 
L 184.557909 361.412463 
L 185.02745 365.292691 
L 185.262221 364.890619 
L 185.966534 370.978499 
L 186.670847 370.036472 
L 188.314243 377.916092 
L 189.018556 373.118687 
L 189.488098 373.482017 
L 189.95764 376.264616 
L 190.661952 371.366594 
L 190.896723 374.142357 
L 191.601036 373.291764 
L 192.305349 377.887544 
L 193.479203 369.275267 
L 193.713974 372.156794 
L 194.653058 377.782184 
L 194.887829 374.089042 
L 195.826913 374.903636 
L 196.061683 375.447404 
L 196.765996 365.348841 
L 197.235538 369.097269 
L 198.174622 377.856915 
L 198.409393 375.771004 
L 199.113705 377.971448 
L 199.348476 376.824704 
L 200.28756 375.390521 
L 200.522331 376.476642 
L 200.757102 377.933076 
L 200.991873 376.502093 
L 201.696185 373.094367 
L 202.165727 373.689106 
L 202.87004 373.056205 
L 203.574353 377.808584 
L 204.748207 370.570098 
L 204.982978 372.521415 
L 205.45252 369.558689 
L 205.922062 370.963689 
L 207.095917 377.973797 
L 207.800229 377.873436 
L 209.208855 373.493756 
L 209.443626 372.932105 
L 209.913168 364.956666 
L 210.852251 366.504011 
L 212.730419 377.855562 
L 212.965189 374.140652 
L 213.669502 375.289306 
L 213.904273 375.714673 
L 214.608586 370.304183 
L 214.843357 373.880332 
L 215.078128 374.575744 
L 215.312899 372.412557 
L 215.54767 371.997362 
L 216.486753 376.878627 
L 216.721524 376.552065 
L 216.956295 374.128292 
L 217.191066 377.753769 
L 217.660608 375.085727 
L 217.895379 375.081042 
L 218.364921 377.626109 
L 218.599691 374.375826 
L 219.069233 376.961409 
L 219.773546 377.670097 
L 220.008317 374.575259 
L 220.71263 377.026623 
L 221.182172 374.644876 
L 221.416942 372.055591 
L 221.886484 373.767888 
L 222.590797 377.42692 
L 222.825568 373.590322 
L 223.060339 376.170899 
L 223.529881 375.531329 
L 223.764652 370.066272 
L 224.468964 370.477434 
L 225.642819 377.507214 
L 225.87759 375.528538 
L 226.347132 377.338823 
L 226.816674 369.505888 
L 227.286215 376.374809 
L 227.990528 377.782943 
L 228.46007 377.263442 
L 229.399154 375.720906 
L 229.633925 373.473603 
L 230.338237 375.365428 
L 230.573008 374.341469 
L 230.807779 375.745862 
L 231.04255 374.743086 
L 231.277321 377.966913 
L 231.746863 373.386862 
L 232.685946 364.007909 
L 233.155488 358.418126 
L 233.390259 362.785542 
L 234.798885 369.884609 
L 235.033656 371.207907 
L 235.268426 368.268535 
L 235.503197 365.21567 
L 235.972739 367.965926 
L 236.20751 373.58158 
L 236.911823 368.95644 
L 237.616136 369.048015 
L 238.78999 361.328049 
L 240.902928 375.519296 
L 241.37247 376.663263 
L 241.607241 375.77916 
L 242.076783 369.049283 
L 242.781096 370.933546 
L 243.015867 370.433429 
L 243.720179 377.151558 
L 244.189721 376.256758 
L 244.659263 375.220057 
L 244.894034 377.30165 
L 245.128805 375.694196 
L 245.363576 377.879566 
L 246.067889 375.318705 
L 246.30266 374.340197 
L 246.772201 375.986951 
L 247.241743 375.836632 
L 247.476514 377.48402 
L 247.711285 373.975695 
L 247.946056 372.327989 
L 248.180827 376.027551 
L 248.415598 377.78185 
L 248.88514 375.696819 
L 249.354681 373.572661 
L 249.589452 371.979679 
L 249.824223 373.389418 
L 250.998078 377.90765 
L 251.937162 369.337729 
L 252.171932 374.108619 
L 254.284871 361.427322 
L 254.989183 365.514809 
L 255.928267 377.75763 
L 256.397809 377.395883 
L 257.336893 373.469803 
L 256.867351 377.922972 
L 257.571664 375.189797 
L 257.806434 377.685045 
L 258.275976 374.068907 
L 258.745518 375.635675 
L 259.684602 370.316371 
L 260.388915 377.598764 
L 260.623685 374.770651 
L 260.858456 371.391819 
L 261.562769 375.304239 
L 262.501853 369.655946 
L 262.736624 372.755724 
L 262.971395 373.499511 
L 263.206166 371.009681 
L 263.440936 372.785335 
L 263.675707 369.805962 
L 264.145249 374.072729 
L 264.38002 371.485585 
L 264.849562 371.814725 
L 265.084333 372.535103 
L 265.553875 371.076993 
L 265.788646 371.909678 
L 266.727729 365.910458 
L 267.197271 366.311999 
L 269.075438 377.955553 
L 269.310209 376.205014 
L 269.54498 373.386727 
L 270.014522 377.542559 
L 270.953606 374.433372 
L 271.892689 368.703455 
L 272.362231 375.319495 
L 272.831773 374.181097 
L 273.536086 366.521438 
L 273.770857 370.930495 
L 274.005628 372.13767 
L 274.475169 370.733808 
L 274.70994 369.213133 
L 274.944711 372.900242 
L 275.179482 377.638949 
L 276.118566 376.767762 
L 276.588108 375.152997 
L 276.822879 377.553136 
L 277.05765 376.55502 
L 277.527191 377.679285 
L 277.761962 375.078582 
L 278.466275 377.680976 
L 279.64013 374.836085 
L 279.874901 376.761515 
L 280.579213 375.490272 
L 281.987839 366.019501 
L 282.457381 367.654306 
L 282.692152 367.807134 
L 282.926922 369.974146 
L 283.161693 366.290542 
L 283.631235 368.18523 
L 284.570319 363.759046 
L 285.039861 358.619766 
L 285.509403 362.27354 
L 286.448486 364.631544 
L 287.152799 363.069555 
L 286.918028 366.104799 
L 287.38757 364.156422 
L 288.561424 371.242762 
L 288.796195 372.612508 
L 289.265737 370.40984 
L 289.500508 370.327999 
L 290.674363 377.350238 
L 291.143905 377.974102 
L 291.378675 376.199471 
L 291.613446 373.296618 
L 292.082988 377.433216 
L 292.317759 377.360169 
L 293.022072 374.277402 
L 293.256843 376.11849 
L 294.195926 377.769878 
L 296.074094 364.543606 
L 297.247948 364.806391 
L 297.482719 366.269138 
L 297.71749 363.149027 
L 298.187032 364.835919 
L 299.126116 361.066173 
L 299.360887 362.787215 
L 300.065199 368.917521 
L 300.769512 367.985724 
L 302.88245 377.777897 
L 303.351992 377.313413 
L 304.291076 373.892121 
L 303.821534 377.423136 
L 304.525847 374.025233 
L 304.760618 374.316706 
L 305.23016 369.238299 
L 305.46493 371.349104 
L 306.169243 377.481367 
L 306.638785 376.451752 
L 307.577869 377.855146 
L 307.81264 376.749561 
L 308.751723 372.925596 
L 308.986494 376.428944 
L 309.690807 375.812383 
L 311.099432 369.877502 
L 310.160349 377.366538 
L 311.568974 371.191767 
L 311.803745 372.169369 
L 312.038516 370.780583 
L 313.212371 364.723644 
L 313.916683 373.701592 
L 314.855767 372.26121 
L 316.264393 362.096953 
L 318.612102 377.766693 
L 318.846873 376.564542 
L 319.785956 372.380798 
L 319.316414 377.847054 
L 320.020727 372.948266 
L 320.255498 375.209601 
L 320.490269 371.54499 
L 320.72504 373.852879 
L 321.664124 370.660033 
L 321.898895 376.031752 
L 322.603207 370.751128 
L 322.837978 367.797698 
L 323.30752 370.838001 
L 323.777062 368.419986 
L 324.011833 368.675059 
L 325.185687 377.914841 
L 325.420458 374.075059 
L 326.594313 364.905249 
L 326.829084 369.085915 
L 327.063855 371.40992 
L 327.298626 369.006397 
L 327.533397 369.416213 
L 328.237709 362.490737 
L 328.707251 364.89009 
L 329.411564 367.94523 
L 330.350648 376.041484 
L 330.820189 374.85094 
L 331.524502 371.240144 
L 332.698357 377.368178 
L 332.933128 376.665334 
L 333.402669 377.069888 
L 333.63744 377.896737 
L 333.872211 377.436423 
L 334.576524 374.025042 
L 334.811295 375.552584 
L 335.046066 377.095773 
L 335.515608 374.498871 
L 335.750379 376.781313 
L 336.21992 377.718641 
L 336.689462 375.593629 
L 336.924233 376.817439 
L 338.332859 367.640731 
L 341.15011 377.80397 
L 341.619652 376.164509 
L 343.263048 368.842773 
L 343.73259 373.163281 
L 343.967361 369.308442 
L 344.436903 369.535338 
L 345.141215 365.905484 
L 345.845528 369.616021 
L 346.31507 368.17577 
L 346.549841 366.161779 
L 346.784612 370.175456 
L 347.254154 368.44773 
L 348.89755 374.598115 
L 349.132321 370.654964 
L 349.601863 374.864649 
L 350.540946 377.556931 
L 351.245259 371.546569 
L 351.48003 373.299299 
L 352.653885 377.422753 
L 353.592968 371.614992 
L 354.06251 377.749154 
L 354.532052 377.1603 
L 355.940677 370.148097 
L 357.584074 377.75029 
L 358.053616 375.722725 
L 358.288387 375.100784 
L 358.523157 376.415058 
L 358.992699 375.841682 
L 359.462241 377.678506 
L 359.697012 374.974117 
L 360.401325 375.794156 
L 360.636096 377.394909 
L 361.80995 368.701122 
L 362.279492 367.484696 
L 362.514263 369.049781 
L 362.749034 371.936039 
L 363.218576 365.663294 
L 363.453347 366.471168 
L 363.688118 362.847565 
L 364.157659 369.981758 
L 364.39243 371.998603 
L 364.861972 369.821539 
L 365.096743 368.115582 
L 365.566285 371.080337 
L 365.801056 372.185319 
L 366.035827 370.922487 
L 366.505369 361.611902 
L 367.209681 361.678272 
L 367.444452 360.634452 
L 368.383536 370.852376 
L 368.618307 369.519415 
L 369.087849 366.736639 
L 369.32262 370.771516 
L 369.792161 369.521836 
L 370.731245 377.656685 
L 370.966016 377.362646 
L 371.670329 377.539618 
L 371.9051 374.637296 
L 372.139871 377.074253 
L 372.609412 372.602408 
L 372.844183 374.856005 
L 373.078954 375.877573 
L 373.313725 374.760399 
L 374.018038 374.924096 
L 376.600518 358.07154 
L 377.07006 363.674153 
L 377.539602 359.055052 
L 377.774373 358.508885 
L 378.009144 361.458416 
L 378.713456 358.515078 
L 379.417769 361.92174 
L 379.65254 358.085549 
L 380.356853 359.267359 
L 382.469791 377.246564 
L 382.704562 377.08309 
L 383.408875 374.593493 
L 383.643646 377.500733 
L 383.878416 375.196376 
L 384.113187 377.777144 
L 384.8175 374.697296 
L 385.052271 376.754015 
L 385.521813 372.155232 
L 385.756584 375.773549 
L 386.930438 372.212342 
L 387.165209 373.438707 
L 387.634751 375.972001 
L 388.104293 373.636718 
L 389.043377 365.368563 
L 389.512918 356.892359 
L 390.217231 357.386557 
L 391.860628 367.166991 
L 392.330169 364.381429 
L 393.504024 359.976153 
L 393.738795 361.996066 
L 394.208337 358.086997 
L 394.443108 356.749579 
L 394.91265 357.692163 
L 396.556046 363.875133 
L 397.025588 360.760862 
L 397.260359 366.246888 
L 397.49513 366.476255 
L 397.7299 366.099203 
L 397.964671 364.727286 
L 398.199442 364.829012 
L 398.668984 370.903917 
L 399.373297 369.518554 
L 400.07761 366.835127 
L 401.251464 371.183028 
L 402.425319 365.023092 
L 402.66009 366.4316 
L 403.364402 372.000894 
L 403.599173 370.833991 
L 403.833944 367.613275 
L 404.303486 370.137869 
L 405.007799 376.222629 
L 405.24257 369.147911 
L 405.477341 368.358309 
L 406.885966 376.843592 
L 407.120737 375.838524 
L 407.590279 377.885214 
L 407.82505 376.618532 
L 408.294592 375.787623 
L 408.529363 372.087603 
L 409.233675 376.477118 
L 409.703217 377.357951 
L 410.40753 376.055792 
L 410.642301 377.416682 
L 411.111843 375.196109 
L 411.346614 375.979057 
L 412.050926 370.089141 
L 412.755239 372.340305 
L 412.99001 372.655678 
L 413.694323 377.959899 
L 414.163865 377.691528 
L 416.042032 363.647737 
L 416.511574 364.981201 
L 417.450657 373.419785 
L 417.685428 371.024434 
L 417.920199 371.10744 
L 418.624512 372.469037 
L 419.094054 367.671489 
L 419.328825 367.638341 
L 420.267908 367.903661 
L 420.502679 364.687843 
L 420.972221 364.320807 
L 421.441763 366.463538 
L 422.380847 361.843948 
L 422.615618 365.301633 
L 422.850389 363.78051 
L 423.085159 364.25268 
L 424.493785 376.949672 
L 425.432869 370.552649 
L 426.137181 372.731472 
L 427.076265 375.361747 
L 427.311036 377.183622 
L 427.545807 372.123708 
L 427.780578 373.383466 
L 428.484891 376.215073 
L 428.719661 373.680198 
L 429.658745 368.80104 
L 429.893516 369.549404 
L 430.128287 372.236808 
L 430.363058 368.168808 
L 430.597829 368.262795 
L 432.006454 361.970475 
L 433.884622 368.937199 
L 434.823705 363.303117 
L 435.058476 365.697587 
L 436.701873 374.266301 
L 437.875727 366.999655 
L 438.110498 370.264499 
L 438.58004 366.233037 
L 438.814811 370.939725 
L 439.519124 376.066211 
L 439.753894 375.44406 
L 441.16252 366.760521 
L 442.336375 375.936809 
L 442.571145 375.590213 
L 443.510229 371.997662 
L 443.745 372.689343 
L 445.388396 377.458691 
L 445.623167 375.080181 
L 446.092709 377.805553 
L 446.32748 376.21967 
L 446.562251 377.974572 
L 447.031793 377.199038 
L 447.266564 374.189339 
L 447.501335 377.464766 
L 447.970877 377.097735 
L 448.440418 377.543317 
L 449.379502 372.218518 
L 450.788128 364.002065 
L 451.257669 363.14405 
L 452.666295 367.663739 
L 453.135837 366.884409 
L 453.840149 368.867117 
L 454.309691 366.75507 
L 454.544462 367.460316 
L 455.483546 373.464892 
L 455.718317 371.238122 
L 456.187859 369.452866 
L 456.42263 373.079467 
L 456.892171 368.885035 
L 457.126942 369.427033 
L 458.535568 354.986985 
L 459.709422 357.633336 
L 460.178964 359.224105 
L 460.648506 354.931067 
L 461.118048 356.178019 
L 462.291902 359.165673 
L 462.526673 359.008709 
L 463.230986 358.185941 
L 465.813466 376.593217 
L 466.048237 376.20555 
L 466.283008 375.514045 
L 466.517779 376.553013 
L 466.75255 376.414802 
L 466.987321 377.962086 
L 467.222092 375.639045 
L 467.456863 373.606703 
L 467.691634 377.809873 
L 468.161175 374.972693 
L 468.395946 377.078953 
L 468.630717 373.598574 
L 469.569801 371.557289 
L 469.804572 372.367888 
L 470.743655 374.674448 
L 471.213197 374.134574 
L 471.447968 372.09794 
L 472.152281 372.472059 
L 472.387052 376.087842 
L 473.091365 374.048915 
L 473.795677 374.610874 
L 474.265219 372.467462 
L 474.49999 375.600268 
L 474.734761 377.473985 
L 475.204303 374.862879 
L 478.021554 367.279243 
L 478.256325 367.604316 
L 478.725867 365.360917 
L 479.195408 370.607327 
L 479.899721 365.85564 
L 480.369263 367.236651 
L 481.308347 368.895669 
L 481.073576 366.595259 
L 481.543118 368.364129 
L 481.777888 364.752772 
L 482.482201 366.135613 
L 483.890827 376.943036 
L 484.125598 374.642961 
L 485.534223 365.118632 
L 486.473307 374.615547 
L 486.942849 371.383937 
L 487.881932 363.129622 
L 488.586245 363.534893 
L 490.464412 372.680915 
L 490.699183 369.615713 
L 491.403496 370.817988 
L 491.638267 373.387084 
L 492.107809 369.58841 
L 492.34258 369.435943 
L 493.046892 377.901257 
L 493.281663 373.379762 
L 494.455518 369.311715 
L 496.803227 351.163167 
L 497.037998 353.084839 
L 497.50754 360.331224 
L 497.977082 356.414468 
L 498.446624 351.794341 
L 498.916165 353.688101 
L 499.150936 357.876517 
L 500.09002 357.587272 
L 500.324791 357.152579 
L 501.263875 362.604561 
L 502.6725 355.027561 
L 502.907271 356.269959 
L 503.142042 353.586028 
L 503.611584 350.287395 
L 503.846355 351.430509 
L 505.020209 357.192171 
L 505.489751 356.120502 
L 505.959293 356.964382 
L 509.715628 376.161615 
L 510.185169 371.573145 
L 510.41994 371.733456 
L 510.654711 368.20647 
L 511.124253 371.825659 
L 512.532879 377.851812 
L 512.767649 377.878657 
L 514.176275 364.930021 
L 514.645817 368.898839 
L 515.35013 371.53777 
L 516.054442 377.651944 
L 516.523984 376.621318 
L 518.167381 374.440807 
L 519.106464 377.580924 
L 519.341235 377.243118 
L 520.984631 363.420056 
L 521.219402 364.23975 
L 521.454173 362.745825 
L 521.923715 358.407307 
L 522.158486 364.575816 
L 523.567112 360.075824 
L 523.801882 362.237148 
L 524.271424 361.994381 
L 524.740966 364.974562 
L 525.68005 356.879103 
L 525.914821 358.82811 
L 527.323446 371.708795 
L 527.792988 372.184368 
L 528.497301 372.973951 
L 528.966843 369.834009 
L 530.610239 377.899906 
L 531.549323 369.750838 
L 532.253635 377.542435 
L 532.723177 375.816772 
L 533.192719 376.074723 
L 533.897032 373.038032 
L 534.131803 375.319534 
L 535.070886 377.127629 
L 535.305657 375.08467 
L 536.00997 375.420181 
L 536.244741 377.903353 
L 536.949054 375.372557 
L 538.122908 364.545847 
L 538.122908 364.545847 
" clip-path="url(#pb9268725e6)" style="fill: none; stroke: #e41a1c; stroke-width: 2; stroke-linecap: square"/>
   </g>
   <g id="patch_6">
    <path d="M 45.103984 385.599141 
L 45.103984 217.858633 
" style="fill: none; stroke: #7f7f7f; stroke-width: 1.8; stroke-linejoin: miter; stroke-linecap: square"/>
   </g>
   <g id="patch_7">
    <path d="M 45.103984 385.599141 
L 561.6 385.599141 
" style="fill: none; stroke: #7f7f7f; stroke-width: 1.8; stroke-linejoin: miter; stroke-linecap: square"/>
   </g>
  </g>
 </g>
 <defs>
  <clipPath id="pd915d51817">
   <rect x="45.103984" y="22.318125" width="516.496016" height="167.740508"/>
  </clipPath>
  <clipPath id="pb9268725e6">
   <rect x="45.103984" y="217.858633" width="516.496016" height="167.740508"/>
  </clipPath>
 </defs>
</svg>
