<?xml version="1.0" encoding="utf-8" standalone="no"?>
<!DOCTYPE svg PUBLIC "-//W3C//DTD SVG 1.1//EN"
  "http://www.w3.org/Graphics/SVG/1.1/DTD/svg11.dtd">
<svg xmlns:xlink="http://www.w3.org/1999/xlink" width="568.8pt" height="280.8pt" viewBox="0 0 568.8 280.8" xmlns="http://www.w3.org/2000/svg" version="1.1">
 <metadata>
  <rdf:RDF xmlns:dc="http://purl.org/dc/elements/1.1/" xmlns:cc="http://creativecommons.org/ns#" xmlns:rdf="http://www.w3.org/1999/02/22-rdf-syntax-ns#">
   <cc:Work>
    <dc:type rdf:resource="http://purl.org/dc/dcmitype/StillImage"/>
    <dc:date>2026-06-20T00:47:18.120727</dc:date>
    <dc:format>image/svg+xml</dc:format>
    <dc:creator>
     <cc:Agent>
      <dc:title>Matplotlib v3.11.0, https://matplotlib.org/</dc:title>
     </cc:Agent>
    </dc:creator>
   </cc:Work>
  </rdf:RDF>
 </metadata>
 <defs>
  <style type="text/css">*{stroke-linejoin: round; stroke-linecap: butt}</style>
 </defs>
 <g id="figure_1">
  <g id="patch_1">
   <path d="M 0 280.8 
L 568.8 280.8 
L 568.8 0 
L 0 0 
L 0 280.8 
z
" style="fill: none"/>
  </g>
  <g id="axes_1">
   <g id="patch_2">
    <path d="M 38.482813 241.599141 
L 561.6 241.599141 
L 561.6 7.2 
L 38.482813 7.2 
L 38.482813 241.599141 
z
" style="fill: none"/>
   </g>
   <g id="matplotlib.axis_1">
    <g id="xtick_1">
     <g id="line2d_1">
      <path d="M 62.260866 241.599141 
L 62.260866 7.2 
" clip-path="url(#p0508715ab3)" style="fill: none; stroke-dasharray: 2.96,1.28; stroke-dashoffset: 0; stroke: #7f7f7f; stroke-opacity: 0.6; stroke-width: 0.8"/>
     </g>
     <g id="line2d_2">
      <defs>
       <path id="m2a1384c6d1" d="M 0 0 
L 0 3.5 
" style="stroke: #7f7f7f; stroke-width: 1.8"/>
      </defs>
      <g>
       <use xlink:href="#m2a1384c6d1" x="62.260866" y="241.599141" style="fill: #7f7f7f; stroke: #7f7f7f; stroke-width: 1.8"/>
      </g>
     </g>
     <g id="text_1">
      <!-- 0 -->
      <g style="fill: #7f7f7f" transform="translate(59.079616 256.196797) scale(0.1 -0.1)">
       <defs>
        <path id="DejaVuSans-13" d="M 2034 4250 
Q 1547 4250 1301 3770 
Q 1056 3291 1056 2328 
Q 1056 1369 1301 889 
Q 1547 409 2034 409 
Q 2525 409 2770 889 
Q 3016 1369 3016 2328 
Q 3016 3291 2770 3770 
Q 2525 4250 2034 4250 
z
M 2034 4750 
Q 2819 4750 3233 4129 
Q 3647 3509 3647 2328 
Q 3647 1150 3233 529 
Q 2819 -91 2034 -91 
Q 1250 -91 836 529 
Q 422 1150 422 2328 
Q 422 3509 836 4129 
Q 1250 4750 2034 4750 
z
" transform="scale(0.015625)"/>
       </defs>
       <use xlink:href="#DejaVuSans-13"/>
      </g>
     </g>
    </g>
    <g id="xtick_2">
     <g id="line2d_3">
      <path d="M 157.373082 241.599141 
L 157.373082 7.2 
" clip-path="url(#p0508715ab3)" style="fill: none; stroke-dasharray: 2.96,1.28; stroke-dashoffset: 0; stroke: #7f7f7f; stroke-opacity: 0.6; stroke-width: 0.8"/>
     </g>
     <g id="line2d_4">
      <g>
       <use xlink:href="#m2a1384c6d1" x="157.373082" y="241.599141" style="fill: #7f7f7f; stroke: #7f7f7f; stroke-width: 1.8"/>
      </g>
     </g>
     <g id="text_2">
      <!-- 20 -->
      <g style="fill: #7f7f7f" transform="translate(151.010582 256.196797) scale(0.1 -0.1)">
       <defs>
        <path id="DejaVuSans-15" d="M 1228 531 
L 3431 531 
L 3431 0 
L 469 0 
L 469 531 
Q 828 903 1448 1529 
Q 2069 2156 2228 2338 
Q 2531 2678 2651 2914 
Q 2772 3150 2772 3378 
Q 2772 3750 2511 3984 
Q 2250 4219 1831 4219 
Q 1534 4219 1204 4116 
Q 875 4013 500 3803 
L 500 4441 
Q 881 4594 1212 4672 
Q 1544 4750 1819 4750 
Q 2544 4750 2975 4387 
Q 3406 4025 3406 3419 
Q 3406 3131 3298 2873 
Q 3191 2616 2906 2266 
Q 2828 2175 2409 1742 
Q 1991 1309 1228 531 
z
" transform="scale(0.015625)"/>
       </defs>
       <use xlink:href="#DejaVuSans-15"/>
       <use xlink:href="#DejaVuSans-13" transform="translate(63.625 0)"/>
      </g>
     </g>
    </g>
    <g id="xtick_3">
     <g id="line2d_5">
      <path d="M 252.485298 241.599141 
L 252.485298 7.2 
" clip-path="url(#p0508715ab3)" style="fill: none; stroke-dasharray: 2.96,1.28; stroke-dashoffset: 0; stroke: #7f7f7f; stroke-opacity: 0.6; stroke-width: 0.8"/>
     </g>
     <g id="line2d_6">
      <g>
       <use xlink:href="#m2a1384c6d1" x="252.485298" y="241.599141" style="fill: #7f7f7f; stroke: #7f7f7f; stroke-width: 1.8"/>
      </g>
     </g>
     <g id="text_3">
      <!-- 40 -->
      <g style="fill: #7f7f7f" transform="translate(246.122798 256.196797) scale(0.1 -0.1)">
       <defs>
        <path id="DejaVuSans-17" d="M 2419 4116 
L 825 1625 
L 2419 1625 
L 2419 4116 
z
M 2253 4666 
L 3047 4666 
L 3047 1625 
L 3713 1625 
L 3713 1100 
L 3047 1100 
L 3047 0 
L 2419 0 
L 2419 1100 
L 313 1100 
L 313 1709 
L 2253 4666 
z
" transform="scale(0.015625)"/>
       </defs>
       <use xlink:href="#DejaVuSans-17"/>
       <use xlink:href="#DejaVuSans-13" transform="translate(63.625 0)"/>
      </g>
     </g>
    </g>
    <g id="xtick_4">
     <g id="line2d_7">
      <path d="M 347.597514 241.599141 
L 347.597514 7.2 
" clip-path="url(#p0508715ab3)" style="fill: none; stroke-dasharray: 2.96,1.28; stroke-dashoffset: 0; stroke: #7f7f7f; stroke-opacity: 0.6; stroke-width: 0.8"/>
     </g>
     <g id="line2d_8">
      <g>
       <use xlink:href="#m2a1384c6d1" x="347.597514" y="241.599141" style="fill: #7f7f7f; stroke: #7f7f7f; stroke-width: 1.8"/>
      </g>
     </g>
     <g id="text_4">
      <!-- 60 -->
      <g style="fill: #7f7f7f" transform="translate(341.235014 256.196797) scale(0.1 -0.1)">
       <defs>
        <path id="DejaVuSans-19" d="M 2113 2584 
Q 1688 2584 1439 2293 
Q 1191 2003 1191 1497 
Q 1191 994 1439 701 
Q 1688 409 2113 409 
Q 2538 409 2786 701 
Q 3034 994 3034 1497 
Q 3034 2003 2786 2293 
Q 2538 2584 2113 2584 
z
M 3366 4563 
L 3366 3988 
Q 3128 4100 2886 4159 
Q 2644 4219 2406 4219 
Q 1781 4219 1451 3797 
Q 1122 3375 1075 2522 
Q 1259 2794 1537 2939 
Q 1816 3084 2150 3084 
Q 2853 3084 3261 2657 
Q 3669 2231 3669 1497 
Q 3669 778 3244 343 
Q 2819 -91 2113 -91 
Q 1303 -91 875 529 
Q 447 1150 447 2328 
Q 447 3434 972 4092 
Q 1497 4750 2381 4750 
Q 2619 4750 2861 4703 
Q 3103 4656 3366 4563 
z
" transform="scale(0.015625)"/>
       </defs>
       <use xlink:href="#DejaVuSans-19"/>
       <use xlink:href="#DejaVuSans-13" transform="translate(63.625 0)"/>
      </g>
     </g>
    </g>
    <g id="xtick_5">
     <g id="line2d_9">
      <path d="M 442.70973 241.599141 
L 442.70973 7.2 
" clip-path="url(#p0508715ab3)" style="fill: none; stroke-dasharray: 2.96,1.28; stroke-dashoffset: 0; stroke: #7f7f7f; stroke-opacity: 0.6; stroke-width: 0.8"/>
     </g>
     <g id="line2d_10">
      <g>
       <use xlink:href="#m2a1384c6d1" x="442.70973" y="241.599141" style="fill: #7f7f7f; stroke: #7f7f7f; stroke-width: 1.8"/>
      </g>
     </g>
     <g id="text_5">
      <!-- 80 -->
      <g style="fill: #7f7f7f" transform="translate(436.34723 256.196797) scale(0.1 -0.1)">
       <defs>
        <path id="DejaVuSans-1b" d="M 2034 2216 
Q 1584 2216 1326 1975 
Q 1069 1734 1069 1313 
Q 1069 891 1326 650 
Q 1584 409 2034 409 
Q 2484 409 2743 651 
Q 3003 894 3003 1313 
Q 3003 1734 2745 1975 
Q 2488 2216 2034 2216 
z
M 1403 2484 
Q 997 2584 770 2862 
Q 544 3141 544 3541 
Q 544 4100 942 4425 
Q 1341 4750 2034 4750 
Q 2731 4750 3128 4425 
Q 3525 4100 3525 3541 
Q 3525 3141 3298 2862 
Q 3072 2584 2669 2484 
Q 3125 2378 3379 2068 
Q 3634 1759 3634 1313 
Q 3634 634 3220 271 
Q 2806 -91 2034 -91 
Q 1263 -91 848 271 
Q 434 634 434 1313 
Q 434 1759 690 2068 
Q 947 2378 1403 2484 
z
M 1172 3481 
Q 1172 3119 1398 2916 
Q 1625 2713 2034 2713 
Q 2441 2713 2670 2916 
Q 2900 3119 2900 3481 
Q 2900 3844 2670 4047 
Q 2441 4250 2034 4250 
Q 1625 4250 1398 4047 
Q 1172 3844 1172 3481 
z
" transform="scale(0.015625)"/>
       </defs>
       <use xlink:href="#DejaVuSans-1b"/>
       <use xlink:href="#DejaVuSans-13" transform="translate(63.625 0)"/>
      </g>
     </g>
    </g>
    <g id="xtick_6">
     <g id="line2d_11">
      <path d="M 537.821946 241.599141 
L 537.821946 7.2 
" clip-path="url(#p0508715ab3)" style="fill: none; stroke-dasharray: 2.96,1.28; stroke-dashoffset: 0; stroke: #7f7f7f; stroke-opacity: 0.6; stroke-width: 0.8"/>
     </g>
     <g id="line2d_12">
      <g>
       <use xlink:href="#m2a1384c6d1" x="537.821946" y="241.599141" style="fill: #7f7f7f; stroke: #7f7f7f; stroke-width: 1.8"/>
      </g>
     </g>
     <g id="text_6">
      <!-- 100 -->
      <g style="fill: #7f7f7f" transform="translate(528.278196 256.196797) scale(0.1 -0.1)">
       <defs>
        <path id="DejaVuSans-14" d="M 794 531 
L 1825 531 
L 1825 4091 
L 703 3866 
L 703 4441 
L 1819 4666 
L 2450 4666 
L 2450 531 
L 3481 531 
L 3481 0 
L 794 0 
L 794 531 
z
" transform="scale(0.015625)"/>
       </defs>
       <use xlink:href="#DejaVuSans-14"/>
       <use xlink:href="#DejaVuSans-13" transform="translate(63.625 0)"/>
       <use xlink:href="#DejaVuSans-13" transform="translate(127.25 0)"/>
      </g>
     </g>
    </g>
    <g id="text_7">
     <!-- time [s] -->
     <g style="fill: #7f7f7f" transform="translate(278.710859 270.957422) scale(0.11 -0.11)">
      <defs>
       <path id="DejaVuSans-57" d="M 1172 4494 
L 1172 3500 
L 2356 3500 
L 2356 3053 
L 1172 3053 
L 1172 1153 
Q 1172 725 1289 603 
Q 1406 481 1766 481 
L 2356 481 
L 2356 0 
L 1766 0 
Q 1100 0 847 248 
Q 594 497 594 1153 
L 594 3053 
L 172 3053 
L 172 3500 
L 594 3500 
L 594 4494 
L 1172 4494 
z
" transform="scale(0.015625)"/>
       <path id="DejaVuSans-4c" d="M 603 3500 
L 1178 3500 
L 1178 0 
L 603 0 
L 603 3500 
z
M 603 4863 
L 1178 4863 
L 1178 4134 
L 603 4134 
L 603 4863 
z
" transform="scale(0.015625)"/>
       <path id="DejaVuSans-50" d="M 3328 2828 
Q 3544 3216 3844 3400 
Q 4144 3584 4550 3584 
Q 5097 3584 5394 3201 
Q 5691 2819 5691 2113 
L 5691 0 
L 5113 0 
L 5113 2094 
Q 5113 2597 4934 2840 
Q 4756 3084 4391 3084 
Q 3944 3084 3684 2787 
Q 3425 2491 3425 1978 
L 3425 0 
L 2847 0 
L 2847 2094 
Q 2847 2600 2669 2842 
Q 2491 3084 2119 3084 
Q 1678 3084 1418 2786 
Q 1159 2488 1159 1978 
L 1159 0 
L 581 0 
L 581 3500 
L 1159 3500 
L 1159 2956 
Q 1356 3278 1631 3431 
Q 1906 3584 2284 3584 
Q 2666 3584 2933 3390 
Q 3200 3197 3328 2828 
z
" transform="scale(0.015625)"/>
       <path id="DejaVuSans-48" d="M 3597 1894 
L 3597 1613 
L 953 1613 
Q 991 1019 1311 708 
Q 1631 397 2203 397 
Q 2534 397 2845 478 
Q 3156 559 3463 722 
L 3463 178 
Q 3153 47 2828 -22 
Q 2503 -91 2169 -91 
Q 1331 -91 842 396 
Q 353 884 353 1716 
Q 353 2575 817 3079 
Q 1281 3584 2069 3584 
Q 2775 3584 3186 3129 
Q 3597 2675 3597 1894 
z
M 3022 2063 
Q 3016 2534 2758 2815 
Q 2500 3097 2075 3097 
Q 1594 3097 1305 2825 
Q 1016 2553 972 2059 
L 3022 2063 
z
" transform="scale(0.015625)"/>
       <path id="DejaVuSans-3" transform="scale(0.015625)"/>
       <path id="DejaVuSans-3e" d="M 550 4863 
L 1875 4863 
L 1875 4416 
L 1125 4416 
L 1125 -397 
L 1875 -397 
L 1875 -844 
L 550 -844 
L 550 4863 
z
" transform="scale(0.015625)"/>
       <path id="DejaVuSans-56" d="M 2834 3397 
L 2834 2853 
Q 2591 2978 2328 3040 
Q 2066 3103 1784 3103 
Q 1356 3103 1142 2972 
Q 928 2841 928 2578 
Q 928 2378 1081 2264 
Q 1234 2150 1697 2047 
L 1894 2003 
Q 2506 1872 2764 1633 
Q 3022 1394 3022 966 
Q 3022 478 2636 193 
Q 2250 -91 1575 -91 
Q 1294 -91 989 -36 
Q 684 19 347 128 
L 347 722 
Q 666 556 975 473 
Q 1284 391 1588 391 
Q 1994 391 2212 530 
Q 2431 669 2431 922 
Q 2431 1156 2273 1281 
Q 2116 1406 1581 1522 
L 1381 1569 
Q 847 1681 609 1914 
Q 372 2147 372 2553 
Q 372 3047 722 3315 
Q 1072 3584 1716 3584 
Q 2034 3584 2315 3537 
Q 2597 3491 2834 3397 
z
" transform="scale(0.015625)"/>
       <path id="DejaVuSans-40" d="M 1947 4863 
L 1947 -844 
L 622 -844 
L 622 -397 
L 1369 -397 
L 1369 4416 
L 622 4416 
L 622 4863 
L 1947 4863 
z
" transform="scale(0.015625)"/>
      </defs>
      <use xlink:href="#DejaVuSans-57"/>
      <use xlink:href="#DejaVuSans-4c" transform="translate(39.203125 0)"/>
      <use xlink:href="#DejaVuSans-50" transform="translate(66.984375 0)"/>
      <use xlink:href="#DejaVuSans-48" transform="translate(164.390625 0)"/>
      <use xlink:href="#DejaVuSans-3" transform="translate(225.921875 0)"/>
      <use xlink:href="#DejaVuSans-3e" transform="translate(257.703125 0)"/>
      <use xlink:href="#DejaVuSans-56" transform="translate(296.71875 0)"/>
      <use xlink:href="#DejaVuSans-40" transform="translate(348.8125 0)"/>
     </g>
    </g>
   </g>
   <g id="matplotlib.axis_2">
    <g id="ytick_1">
     <g id="line2d_13">
      <path d="M 38.482813 241.23327 
L 561.6 241.23327 
" clip-path="url(#p0508715ab3)" style="fill: none; stroke-dasharray: 2.96,1.28; stroke-dashoffset: 0; stroke: #7f7f7f; stroke-opacity: 0.6; stroke-width: 0.8"/>
     </g>
     <g id="line2d_14">
      <defs>
       <path id="m75ac6b9337" d="M 0 0 
L -3.5 0 
" style="stroke: #7f7f7f; stroke-width: 1.8"/>
      </defs>
      <g>
       <use xlink:href="#m75ac6b9337" x="38.482813" y="241.23327" style="fill: #7f7f7f; stroke: #7f7f7f; stroke-width: 1.8"/>
      </g>
     </g>
     <g id="text_8">
      <!-- −0.2 -->
      <g style="fill: #7f7f7f" transform="translate(7.2 245.032099) scale(0.1 -0.1)">
       <defs>
        <path id="DejaVuSans-c9c" d="M 678 2272 
L 4684 2272 
L 4684 1741 
L 678 1741 
L 678 2272 
z
" transform="scale(0.015625)"/>
        <path id="DejaVuSans-11" d="M 684 794 
L 1344 794 
L 1344 0 
L 684 0 
L 684 794 
z
" transform="scale(0.015625)"/>
       </defs>
       <use xlink:href="#DejaVuSans-c9c"/>
       <use xlink:href="#DejaVuSans-13" transform="translate(83.796875 0)"/>
       <use xlink:href="#DejaVuSans-11" transform="translate(147.421875 0)"/>
       <use xlink:href="#DejaVuSans-15" transform="translate(179.203125 0)"/>
      </g>
     </g>
    </g>
    <g id="ytick_2">
     <g id="line2d_15">
      <path d="M 38.482813 210.465761 
L 561.6 210.465761 
" clip-path="url(#p0508715ab3)" style="fill: none; stroke-dasharray: 2.96,1.28; stroke-dashoffset: 0; stroke: #7f7f7f; stroke-opacity: 0.6; stroke-width: 0.8"/>
     </g>
     <g id="line2d_16">
      <g>
       <use xlink:href="#m75ac6b9337" x="38.482813" y="210.465761" style="fill: #7f7f7f; stroke: #7f7f7f; stroke-width: 1.8"/>
      </g>
     </g>
     <g id="text_9">
      <!-- 0.0 -->
      <g style="fill: #7f7f7f" transform="translate(15.579688 214.264589) scale(0.1 -0.1)">
       <use xlink:href="#DejaVuSans-13"/>
       <use xlink:href="#DejaVuSans-11" transform="translate(63.625 0)"/>
       <use xlink:href="#DejaVuSans-13" transform="translate(95.40625 0)"/>
      </g>
     </g>
    </g>
    <g id="ytick_3">
     <g id="line2d_17">
      <path d="M 38.482813 179.698252 
L 561.6 179.698252 
" clip-path="url(#p0508715ab3)" style="fill: none; stroke-dasharray: 2.96,1.28; stroke-dashoffset: 0; stroke: #7f7f7f; stroke-opacity: 0.6; stroke-width: 0.8"/>
     </g>
     <g id="line2d_18">
      <g>
       <use xlink:href="#m75ac6b9337" x="38.482813" y="179.698252" style="fill: #7f7f7f; stroke: #7f7f7f; stroke-width: 1.8"/>
      </g>
     </g>
     <g id="text_10">
      <!-- 0.2 -->
      <g style="fill: #7f7f7f" transform="translate(15.579688 183.49708) scale(0.1 -0.1)">
       <use xlink:href="#DejaVuSans-13"/>
       <use xlink:href="#DejaVuSans-11" transform="translate(63.625 0)"/>
       <use xlink:href="#DejaVuSans-15" transform="translate(95.40625 0)"/>
      </g>
     </g>
    </g>
    <g id="ytick_4">
     <g id="line2d_19">
      <path d="M 38.482813 148.930743 
L 561.6 148.930743 
" clip-path="url(#p0508715ab3)" style="fill: none; stroke-dasharray: 2.96,1.28; stroke-dashoffset: 0; stroke: #7f7f7f; stroke-opacity: 0.6; stroke-width: 0.8"/>
     </g>
     <g id="line2d_20">
      <g>
       <use xlink:href="#m75ac6b9337" x="38.482813" y="148.930743" style="fill: #7f7f7f; stroke: #7f7f7f; stroke-width: 1.8"/>
      </g>
     </g>
     <g id="text_11">
      <!-- 0.4 -->
      <g style="fill: #7f7f7f" transform="translate(15.579688 152.729571) scale(0.1 -0.1)">
       <use xlink:href="#DejaVuSans-13"/>
       <use xlink:href="#DejaVuSans-11" transform="translate(63.625 0)"/>
       <use xlink:href="#DejaVuSans-17" transform="translate(95.40625 0)"/>
      </g>
     </g>
    </g>
    <g id="ytick_5">
     <g id="line2d_21">
      <path d="M 38.482813 118.163234 
L 561.6 118.163234 
" clip-path="url(#p0508715ab3)" style="fill: none; stroke-dasharray: 2.96,1.28; stroke-dashoffset: 0; stroke: #7f7f7f; stroke-opacity: 0.6; stroke-width: 0.8"/>
     </g>
     <g id="line2d_22">
      <g>
       <use xlink:href="#m75ac6b9337" x="38.482813" y="118.163234" style="fill: #7f7f7f; stroke: #7f7f7f; stroke-width: 1.8"/>
      </g>
     </g>
     <g id="text_12">
      <!-- 0.6 -->
      <g style="fill: #7f7f7f" transform="translate(15.579688 121.962062) scale(0.1 -0.1)">
       <use xlink:href="#DejaVuSans-13"/>
       <use xlink:href="#DejaVuSans-11" transform="translate(63.625 0)"/>
       <use xlink:href="#DejaVuSans-19" transform="translate(95.40625 0)"/>
      </g>
     </g>
    </g>
    <g id="ytick_6">
     <g id="line2d_23">
      <path d="M 38.482813 87.395725 
L 561.6 87.395725 
" clip-path="url(#p0508715ab3)" style="fill: none; stroke-dasharray: 2.96,1.28; stroke-dashoffset: 0; stroke: #7f7f7f; stroke-opacity: 0.6; stroke-width: 0.8"/>
     </g>
     <g id="line2d_24">
      <g>
       <use xlink:href="#m75ac6b9337" x="38.482813" y="87.395725" style="fill: #7f7f7f; stroke: #7f7f7f; stroke-width: 1.8"/>
      </g>
     </g>
     <g id="text_13">
      <!-- 0.8 -->
      <g style="fill: #7f7f7f" transform="translate(15.579688 91.194553) scale(0.1 -0.1)">
       <use xlink:href="#DejaVuSans-13"/>
       <use xlink:href="#DejaVuSans-11" transform="translate(63.625 0)"/>
       <use xlink:href="#DejaVuSans-1b" transform="translate(95.40625 0)"/>
      </g>
     </g>
    </g>
    <g id="ytick_7">
     <g id="line2d_25">
      <path d="M 38.482813 56.628215 
L 561.6 56.628215 
" clip-path="url(#p0508715ab3)" style="fill: none; stroke-dasharray: 2.96,1.28; stroke-dashoffset: 0; stroke: #7f7f7f; stroke-opacity: 0.6; stroke-width: 0.8"/>
     </g>
     <g id="line2d_26">
      <g>
       <use xlink:href="#m75ac6b9337" x="38.482813" y="56.628215" style="fill: #7f7f7f; stroke: #7f7f7f; stroke-width: 1.8"/>
      </g>
     </g>
     <g id="text_14">
      <!-- 1.0 -->
      <g style="fill: #7f7f7f" transform="translate(15.579688 60.427044) scale(0.1 -0.1)">
       <use xlink:href="#DejaVuSans-14"/>
       <use xlink:href="#DejaVuSans-11" transform="translate(63.625 0)"/>
       <use xlink:href="#DejaVuSans-13" transform="translate(95.40625 0)"/>
      </g>
     </g>
    </g>
    <g id="ytick_8">
     <g id="line2d_27">
      <path d="M 38.482813 25.860706 
L 561.6 25.860706 
" clip-path="url(#p0508715ab3)" style="fill: none; stroke-dasharray: 2.96,1.28; stroke-dashoffset: 0; stroke: #7f7f7f; stroke-opacity: 0.6; stroke-width: 0.8"/>
     </g>
     <g id="line2d_28">
      <g>
       <use xlink:href="#m75ac6b9337" x="38.482813" y="25.860706" style="fill: #7f7f7f; stroke: #7f7f7f; stroke-width: 1.8"/>
      </g>
     </g>
     <g id="text_15">
      <!-- 1.2 -->
      <g style="fill: #7f7f7f" transform="translate(15.579688 29.659534) scale(0.1 -0.1)">
       <use xlink:href="#DejaVuSans-14"/>
       <use xlink:href="#DejaVuSans-11" transform="translate(63.625 0)"/>
       <use xlink:href="#DejaVuSans-15" transform="translate(95.40625 0)"/>
      </g>
     </g>
    </g>
   </g>
   <g id="line2d_29">
    <path d="M 62.260866 210.465761 
L 157.373066 210.465761 
L 158.267519 56.628215 
L 347.597495 56.628215 
L 348.542098 133.546988 
L 537.821946 133.546988 
L 537.821946 133.546988 
" clip-path="url(#p0508715ab3)" style="fill: none; stroke: #e41a1c; stroke-width: 2; stroke-linecap: square"/>
   </g>
   <g id="line2d_30">
    <path d="M 62.260866 210.465761 
L 62.811253 211.122134 
L 62.39261 209.420988 
L 63.042575 210.48561 
L 63.288526 210.076368 
L 63.667442 211.314887 
L 64.048143 210.667054 
L 66.18207 210.574808 
L 68.006024 210.632897 
L 68.378972 210.281024 
L 68.814247 210.799745 
L 71.055006 210.547584 
L 72.567197 210.193593 
L 76.857312 210.799161 
L 77.268439 209.946747 
L 77.948363 210.338327 
L 79.256447 210.255277 
L 80.349275 211.081166 
L 81.42375 209.968197 
L 82.190108 210.922945 
L 82.597107 210.216479 
L 82.992612 210.490131 
L 83.384517 211.260017 
L 83.721222 210.412499 
L 85.970163 209.946351 
L 86.717246 210.914678 
L 87.131328 210.230844 
L 88.013045 210.693812 
L 88.395597 209.738656 
L 88.996634 210.27323 
L 90.108452 211.254523 
L 90.384012 210.179528 
L 92.306055 210.090539 
L 94.70399 210.075991 
L 95.188499 209.84945 
L 95.559368 210.760799 
L 95.917855 211.224376 
L 96.307856 210.314088 
L 97.585175 209.393764 
L 98.658396 211.199063 
L 98.955021 210.14602 
L 99.737249 210.551616 
L 101.350192 210.739194 
L 105.908299 210.365908 
L 106.343737 211.173052 
L 107.074346 210.518555 
L 108.851923 210.463954 
L 110.087358 210.690513 
L 110.48448 210.035821 
L 110.88434 211.357716 
L 111.260383 209.941828 
L 112.923606 210.754671 
L 113.254312 211.557305 
L 113.645777 210.932786 
L 115.151483 209.406239 
L 115.779555 210.605571 
L 118.599268 211.054235 
L 120.406942 209.816316 
L 121.806924 210.954822 
L 123.613712 210.001378 
L 128.370759 210.409546 
L 129.432047 210.861383 
L 130.367377 209.751457 
L 130.623127 210.170075 
L 133.882282 210.401061 
L 135.753646 210.008955 
L 136.803133 210.619884 
L 137.47712 210.256637 
L 137.843335 210.688367 
L 139.825542 210.611284 
L 140.733932 210.75424 
L 141.098988 209.817227 
L 141.462462 210.590622 
L 142.557025 210.838087 
L 144.558768 210.526634 
L 146.063715 210.749327 
L 147.193056 210.407809 
L 148.991706 210.29797 
L 150.746073 210.75799 
L 151.967656 210.041615 
L 152.858617 211.116392 
L 153.44641 210.097299 
L 153.751285 210.408392 
L 154.835734 210.650191 
L 157.129299 209.987987 
L 157.230429 211.058514 
L 157.372362 214.145941 
L 157.357399 208.445218 
L 157.373066 212.281583 
L 157.373264 230.944634 
L 157.373594 177.12885 
L 158.267519 210.256069 
L 158.56116 211.657286 
L 159.024241 210.123695 
L 159.533473 208.534454 
L 159.714104 210.727957 
L 159.893257 210.594685 
L 160.064675 211.879594 
L 160.656638 210.088048 
L 160.871199 210.48686 
L 161.087937 211.09935 
L 161.75358 210.152244 
L 162.532796 209.747349 
L 164.487559 207.349088 
L 164.791226 207.508234 
L 167.174347 201.358979 
L 170.394872 190.389816 
L 173.860353 174.526814 
L 176.641979 159.323207 
L 185.279222 115.220236 
L 195.115358 74.674083 
L 202.320518 57.787691 
L 204.910918 53.562507 
L 205.914619 51.851423 
L 207.70979 49.97767 
L 212.959659 46.283056 
L 213.397648 46.971198 
L 213.80402 46.188333 
L 215.73368 45.657505 
L 226.791582 47.111924 
L 227.227272 47.688079 
L 227.618523 47.278953 
L 228.426995 47.299009 
L 230.244579 48.619346 
L 233.800277 49.840926 
L 235.07486 50.830523 
L 235.965552 51.16377 
L 238.174078 51.615672 
L 238.534067 51.141995 
L 238.917864 51.852098 
L 240.393695 52.403713 
L 241.898323 53.055431 
L 244.800771 53.778646 
L 249.156705 55.235857 
L 250.011942 55.188418 
L 250.421157 56.070731 
L 251.270831 55.621016 
L 252.133151 56.222635 
L 252.574855 55.520883 
L 252.985216 56.06053 
L 254.465867 57.128044 
L 254.829925 56.577987 
L 262.60099 56.967632 
L 264.143998 57.0992 
L 265.050279 56.648783 
L 265.461718 57.414093 
L 267.176034 57.462118 
L 267.597626 57.879503 
L 267.986955 57.383069 
L 271.481464 57.729081 
L 271.876254 57.893911 
L 272.238108 56.859445 
L 272.964764 57.74509 
L 275.046187 57.707623 
L 276.455401 57.222778 
L 276.866054 57.88452 
L 277.315937 56.934765 
L 278.868645 57.573912 
L 281.030278 57.334993 
L 284.262457 56.696582 
L 285.813167 58.130113 
L 286.155581 56.266876 
L 286.894973 56.602569 
L 288.268681 56.906513 
L 288.609538 56.671133 
L 288.947021 57.500624 
L 290.179623 58.501958 
L 291.348341 56.871673 
L 292.758365 56.495127 
L 298.445522 56.96345 
L 299.497613 57.248333 
L 301.355853 56.550218 
L 301.755609 57.210874 
L 302.205798 56.637797 
L 323.48514 56.813704 
L 325.06376 56.955082 
L 327.698434 56.680297 
L 329.08167 56.574876 
L 330.262068 56.093902 
L 333.227066 57.295774 
L 334.55139 56.193413 
L 334.964904 57.220758 
L 335.349297 56.142842 
L 338.691913 57.200179 
L 339.084722 55.849664 
L 339.829415 56.300713 
L 340.548293 56.958085 
L 341.311944 55.763047 
L 344.814638 56.512134 
L 346.636017 56.288225 
L 347.582072 57.225875 
L 347.589408 56.274752 
L 347.598621 17.854506 
L 347.595108 62.739146 
L 348.542098 56.208279 
L 350.965744 57.056375 
L 351.390819 56.403907 
L 351.834611 57.902247 
L 352.236293 56.957672 
L 355.207174 58.313716 
L 357.634625 61.820728 
L 359.426888 63.93193 
L 361.197172 67.714857 
L 364.227098 74.896316 
L 364.665378 75.303732 
L 367.353253 83.313298 
L 367.793086 83.68318 
L 370.593026 92.154104 
L 381.258145 117.972791 
L 381.636505 117.364384 
L 381.979945 117.826888 
L 384.734018 123.66911 
L 385.118835 123.529545 
L 387.348654 127.606263 
L 387.839316 127.301855 
L 389.477324 130.496686 
L 389.887279 129.844573 
L 390.345442 130.538538 
L 393.271274 133.7641 
L 394.203446 133.985638 
L 394.594369 135.477879 
L 395.405812 135.117139 
L 395.840739 134.672381 
L 397.64464 136.735711 
L 398.579908 136.489053 
L 399.943555 138.168474 
L 401.08467 137.222932 
L 403.472983 138.655314 
L 404.89884 138.066487 
L 405.286446 139.697706 
L 405.658303 138.719913 
L 406.893942 138.428081 
L 408.6861 139.559906 
L 409.96905 138.776106 
L 411.668763 138.769106 
L 413.845592 138.917839 
L 414.173092 137.452447 
L 414.627879 138.883824 
L 414.976495 139.594502 
L 415.325256 139.275943 
L 416.120223 138.13979 
L 416.495719 138.940996 
L 418.18534 138.326291 
L 418.883178 137.923144 
L 420.053282 137.570082 
L 420.452688 138.376263 
L 420.933198 137.190879 
L 422.270144 137.043554 
L 423.429683 137.60236 
L 424.618313 136.512083 
L 426.140584 136.85077 
L 430.357021 135.639632 
L 431.601438 135.455784 
L 432.384251 134.885244 
L 433.639321 136.005576 
L 434.912003 135.308262 
L 435.311565 134.170395 
L 435.704415 134.686726 
L 436.956635 134.87775 
L 438.061779 133.765932 
L 439.260862 134.249182 
L 441.060227 134.340431 
L 445.449555 133.778262 
L 446.306126 134.012104 
L 447.478237 133.428102 
L 453.049117 133.307473 
L 453.377458 132.558942 
L 453.701691 134.012308 
L 457.196888 133.029127 
L 457.92515 134.118121 
L 458.340097 133.80545 
L 460.159064 133.192592 
L 466.989508 133.138128 
L 467.398451 132.256502 
L 467.810543 132.930913 
L 469.528184 132.999573 
L 471.041948 132.286424 
L 472.302499 133.689821 
L 473.516132 132.755908 
L 475.739045 133.127513 
L 479.420232 132.824773 
L 479.831928 133.856418 
L 480.661131 133.240159 
L 485.730852 133.30226 
L 486.136427 133.814928 
L 486.545302 133.457879 
L 488.200044 132.79502 
L 488.555248 133.958932 
L 489.269302 132.87579 
L 489.617289 132.957886 
L 489.974106 134.202276 
L 490.711626 133.92888 
L 491.179329 133.508641 
L 491.572443 134.508886 
L 492.363092 133.93536 
L 494.526682 133.741834 
L 497.721413 133.64935 
L 498.556745 134.094922 
L 499.000423 133.727049 
L 501.994472 133.647489 
L 505.001291 133.354109 
L 509.031977 134.054309 
L 510.221943 133.337254 
L 513.679699 133.869045 
L 514.807491 133.758288 
L 524.843656 133.056678 
L 525.201323 134.181894 
L 525.995007 133.42271 
L 527.304726 133.740264 
L 529.412111 133.428957 
L 530.620152 133.886667 
L 530.989941 132.579277 
L 531.73244 133.472304 
L 536.507846 133.554792 
L 537.821946 133.027881 
L 537.821946 133.027881 
" clip-path="url(#p0508715ab3)" style="fill: none; stroke: #377eb8; stroke-width: 2; stroke-linecap: square"/>
   </g>
   <g id="line2d_31">
    <path d="M 62.260866 210.465761 
L 62.308423 210.847633 
L 62.811253 209.482558 
L 63.042575 210.638018 
L 65.152682 210.296577 
L 65.476623 211.007365 
L 66.18207 210.273933 
L 67.239229 210.162065 
L 68.814247 210.774372 
L 72.192789 210.560742 
L 73.380732 210.458242 
L 74.513238 210.53159 
L 80.106961 210.307771 
L 80.579832 211.037398 
L 80.99998 209.034802 
L 81.792108 210.669903 
L 82.992612 210.484814 
L 83.721222 211.161678 
L 84.037013 210.596407 
L 85.157665 210.606984 
L 85.970163 210.220716 
L 87.131328 210.116113 
L 88.706556 211.292923 
L 89.561163 209.868444 
L 90.384012 211.555098 
L 90.641133 210.681697 
L 90.918783 209.540185 
L 91.57948 209.960277 
L 91.950619 210.722482 
L 92.713471 210.2339 
L 93.935525 210.877338 
L 94.293594 210.473715 
L 96.307856 210.864939 
L 96.613445 209.806745 
L 97.213377 210.392294 
L 98.334527 210.66729 
L 98.658396 211.318959 
L 99.283202 210.408956 
L 100.569019 210.66698 
L 102.068385 210.2446 
L 106.736423 210.371547 
L 108.148643 211.001008 
L 114.641887 210.499133 
L 114.905616 211.650358 
L 115.151483 210.243612 
L 115.397026 210.40305 
L 116.55672 210.540837 
L 117.578063 209.929746 
L 117.905612 210.564171 
L 118.599268 210.110906 
L 128.370759 210.13763 
L 129.432047 210.026107 
L 130.367377 211.565105 
L 130.623127 211.331582 
L 131.227442 209.790598 
L 131.901951 210.538545 
L 150.746073 210.43712 
L 151.089311 209.679185 
L 151.400818 210.585153 
L 151.967656 210.079713 
L 152.557584 211.040141 
L 153.44641 209.897554 
L 154.493057 210.813742 
L 155.846346 209.968591 
L 156.478477 210.885274 
L 156.808218 210.138387 
L 157.312005 212.140097 
L 157.334567 210.64861 
L 157.373594 205.127838 
L 157.373264 230.824867 
L 158.267519 210.456664 
L 159.173292 208.686525 
L 159.714104 208.96592 
L 159.893257 209.253029 
L 160.064675 208.662576 
L 161.293024 207.270152 
L 164.791226 204.017392 
L 166.074191 202.685776 
L 167.519317 202.978432 
L 170.394872 200.467228 
L 171.190194 200.443412 
L 172.669983 199.738989 
L 173.074183 199.891942 
L 174.63058 197.663006 
L 175.88395 198.443623 
L 176.241052 198.014404 
L 178.583388 197.004199 
L 180.336104 195.997159 
L 180.699785 196.655454 
L 181.058232 195.058178 
L 181.86453 195.998003 
L 186.209417 195.188211 
L 186.931097 195.459725 
L 188.175347 194.172054 
L 188.546443 194.76552 
L 188.914047 193.696826 
L 189.304818 194.095406 
L 195.996638 193.391668 
L 197.298153 193.663553 
L 199.351378 193.700164 
L 200.170472 193.862092 
L 202.320518 193.727749 
L 205.914619 193.703249 
L 206.245111 192.686245 
L 206.571419 194.65105 
L 208.114514 193.460978 
L 221.752889 194.272454 
L 222.149171 193.862738 
L 222.514972 194.301156 
L 226.354536 194.796663 
L 227.618523 195.159966 
L 229.410377 194.757132 
L 231.577118 194.374631 
L 232.389253 195.194173 
L 232.798059 194.876548 
L 235.07486 194.887988 
L 236.409643 194.783672 
L 236.758896 195.571311 
L 237.104898 195.190868 
L 237.459704 194.493793 
L 237.811595 195.128036 
L 238.174078 195.615878 
L 238.534067 194.555392 
L 238.917864 195.0427 
L 240.393695 195.188823 
L 241.221198 195.025438 
L 241.56159 195.914436 
L 241.898323 195.159643 
L 242.249499 194.561904 
L 242.597979 195.63174 
L 245.875134 194.972636 
L 247.279901 195.237211 
L 248.115813 194.909782 
L 248.448024 196.012127 
L 249.156705 195.554238 
L 250.011942 194.850479 
L 251.270831 195.541882 
L 252.574855 195.108166 
L 253.362469 195.536784 
L 254.465867 195.68615 
L 255.265401 195.00456 
L 255.705893 195.280405 
L 258.238952 194.518537 
L 259.442786 195.556994 
L 260.751899 194.789702 
L 261.178696 195.777186 
L 262.031105 195.250436 
L 263.505721 194.818285 
L 263.827031 196.142914 
L 264.574583 195.084185 
L 265.875557 194.924138 
L 267.176034 195.52009 
L 268.478222 195.368541 
L 270.26308 195.078591 
L 283.593047 195.000981 
L 283.929821 195.965756 
L 284.262457 194.416489 
L 287.80321 195.529489 
L 288.609538 194.223341 
L 288.947021 194.681677 
L 290.179623 195.579866 
L 290.945647 194.728121 
L 291.348341 195.455641 
L 292.758365 195.313978 
L 294.531357 194.702836 
L 295.867315 195.022089 
L 297.658269 195.288441 
L 299.905981 194.997875 
L 302.645399 195.036626 
L 304.329698 194.626512 
L 305.632082 194.675455 
L 308.00039 195.047934 
L 309.810849 194.829486 
L 312.815565 194.914489 
L 314.401468 194.431254 
L 314.74948 195.588772 
L 315.511748 195.298976 
L 317.259047 194.857543 
L 321.943842 195.128172 
L 322.343031 194.762314 
L 322.717531 195.898419 
L 323.48514 195.060921 
L 323.824535 194.119675 
L 324.574608 194.721646 
L 328.659301 195.571753 
L 329.882079 194.736458 
L 335.349297 195.35666 
L 336.577863 194.602175 
L 336.994008 195.470515 
L 337.831543 195.064735 
L 339.458172 194.963092 
L 339.829415 195.509197 
L 340.197993 193.997012 
L 340.548293 195.329232 
L 343.975065 195.279471 
L 347.498904 194.810837 
L 347.533598 195.082682 
L 347.597495 191.404146 
L 347.597908 211.641993 
L 347.598621 164.754147 
L 348.542098 194.92896 
L 350.121665 196.404754 
L 351.834611 196.917204 
L 352.931071 197.63496 
L 353.618723 196.989319 
L 353.973732 197.440994 
L 357.230056 199.117861 
L 358.507438 199.229179 
L 359.889829 199.857909 
L 371.579933 202.190164 
L 372.811043 202.455951 
L 374.680701 202.520987 
L 375.508782 202.330932 
L 376.753668 203.658084 
L 377.156585 202.649595 
L 377.572499 203.520624 
L 380.149761 202.686113 
L 381.258145 202.922049 
L 381.636505 202.18131 
L 381.979945 203.344201 
L 383.194965 203.839718 
L 383.572004 202.804036 
L 383.955013 203.946753 
L 404.89884 203.43745 
L 405.658303 203.578599 
L 406.070077 202.601493 
L 406.893942 203.074546 
L 408.257664 203.348555 
L 409.106121 203.513888 
L 409.53945 202.783493 
L 409.96905 203.216757 
L 418.516626 202.995966 
L 419.639275 203.311835 
L 420.933198 203.183591 
L 422.270144 202.088083 
L 422.621092 203.265188 
L 423.429683 202.75317 
L 424.618313 202.782609 
L 430.850708 202.708967 
L 432.020852 202.892679 
L 433.175144 202.395207 
L 441.506596 202.712596 
L 442.662949 202.061142 
L 445.449555 202.740366 
L 453.049117 202.751716 
L 453.377458 201.819568 
L 454.065845 202.51108 
L 456.331982 202.839527 
L 460.758361 202.77137 
L 461.151845 203.158948 
L 461.535756 201.995648 
L 462.293836 202.586171 
L 464.490023 202.707034 
L 465.820044 202.90681 
L 494.096726 202.329295 
L 494.927483 202.443568 
L 497.292206 203.185613 
L 500.269936 202.065975 
L 501.522346 202.972778 
L 504.180501 202.225847 
L 505.507249 202.889436 
L 505.862474 203.494621 
L 506.214563 202.514934 
L 506.573445 201.87892 
L 506.908439 202.850549 
L 508.573908 202.513345 
L 509.777497 203.012408 
L 511.040017 202.901056 
L 512.31783 202.504122 
L 518.821575 202.756979 
L 520.746365 202.497319 
L 521.582979 203.471514 
L 521.962057 202.288961 
L 522.351383 203.131659 
L 522.778282 203.457527 
L 523.166867 202.723695 
L 523.57053 202.411779 
L 523.945 202.973117 
L 525.995007 203.180609 
L 526.415274 202.268968 
L 526.843552 202.854947 
L 530.989941 202.925748 
L 532.275046 202.916682 
L 533.49869 203.160233 
L 534.901974 202.600148 
L 537.821946 203.090378 
L 537.821946 203.090378 
" clip-path="url(#p0508715ab3)" style="fill: none; stroke: #4daf4a; stroke-width: 2; stroke-linecap: square"/>
   </g>
   <g id="patch_3">
    <path d="M 38.482813 241.599141 
L 38.482813 7.2 
" style="fill: none; stroke: #7f7f7f; stroke-width: 1.8; stroke-linejoin: miter; stroke-linecap: square"/>
   </g>
   <g id="patch_4">
    <path d="M 38.482813 241.599141 
L 561.6 241.599141 
" style="fill: none; stroke: #7f7f7f; stroke-width: 1.8; stroke-linejoin: miter; stroke-linecap: square"/>
   </g>
   <g id="legend_1">
    <g id="line2d_32">
     <path d="M 483.814062 20.298438 
L 493.814062 20.298438 
L 503.814062 20.298438 
" style="fill: none; stroke: #e41a1c; stroke-width: 2; stroke-linecap: square"/>
    </g>
    <g id="text_16">
     <!-- setpoint -->
     <g style="fill: #7f7f7f" transform="translate(511.814062 23.798438) scale(0.1 -0.1)">
      <defs>
       <path id="DejaVuSans-53" d="M 1159 525 
L 1159 -1331 
L 581 -1331 
L 581 3500 
L 1159 3500 
L 1159 2969 
Q 1341 3281 1617 3432 
Q 1894 3584 2278 3584 
Q 2916 3584 3314 3078 
Q 3713 2572 3713 1747 
Q 3713 922 3314 415 
Q 2916 -91 2278 -91 
Q 1894 -91 1617 61 
Q 1341 213 1159 525 
z
M 3116 1747 
Q 3116 2381 2855 2742 
Q 2594 3103 2138 3103 
Q 1681 3103 1420 2742 
Q 1159 2381 1159 1747 
Q 1159 1113 1420 752 
Q 1681 391 2138 391 
Q 2594 391 2855 752 
Q 3116 1113 3116 1747 
z
" transform="scale(0.015625)"/>
       <path id="DejaVuSans-52" d="M 1959 3097 
Q 1497 3097 1228 2736 
Q 959 2375 959 1747 
Q 959 1119 1226 758 
Q 1494 397 1959 397 
Q 2419 397 2687 759 
Q 2956 1122 2956 1747 
Q 2956 2369 2687 2733 
Q 2419 3097 1959 3097 
z
M 1959 3584 
Q 2709 3584 3137 3096 
Q 3566 2609 3566 1747 
Q 3566 888 3137 398 
Q 2709 -91 1959 -91 
Q 1206 -91 779 398 
Q 353 888 353 1747 
Q 353 2609 779 3096 
Q 1206 3584 1959 3584 
z
" transform="scale(0.015625)"/>
       <path id="DejaVuSans-51" d="M 3513 2113 
L 3513 0 
L 2938 0 
L 2938 2094 
Q 2938 2591 2744 2837 
Q 2550 3084 2163 3084 
Q 1697 3084 1428 2787 
Q 1159 2491 1159 1978 
L 1159 0 
L 581 0 
L 581 3500 
L 1159 3500 
L 1159 2956 
Q 1366 3272 1645 3428 
Q 1925 3584 2291 3584 
Q 2894 3584 3203 3211 
Q 3513 2838 3513 2113 
z
" transform="scale(0.015625)"/>
      </defs>
      <use xlink:href="#DejaVuSans-56"/>
      <use xlink:href="#DejaVuSans-48" transform="translate(52.09375 0)"/>
      <use xlink:href="#DejaVuSans-57" transform="translate(113.625 0)"/>
      <use xlink:href="#DejaVuSans-53" transform="translate(152.828125 0)"/>
      <use xlink:href="#DejaVuSans-52" transform="translate(216.3125 0)"/>
      <use xlink:href="#DejaVuSans-4c" transform="translate(277.5 0)"/>
      <use xlink:href="#DejaVuSans-51" transform="translate(305.28125 0)"/>
      <use xlink:href="#DejaVuSans-57" transform="translate(368.65625 0)"/>
     </g>
    </g>
    <g id="line2d_33">
     <path d="M 483.814062 35.299219 
L 493.814062 35.299219 
L 503.814062 35.299219 
" style="fill: none; stroke: #377eb8; stroke-width: 2; stroke-linecap: square"/>
    </g>
    <g id="text_17">
     <!-- plant 1 -->
     <g style="fill: #7f7f7f" transform="translate(511.814062 38.799219) scale(0.1 -0.1)">
      <defs>
       <path id="DejaVuSans-4f" d="M 603 4863 
L 1178 4863 
L 1178 0 
L 603 0 
L 603 4863 
z
" transform="scale(0.015625)"/>
       <path id="DejaVuSans-44" d="M 2194 1759 
Q 1497 1759 1228 1600 
Q 959 1441 959 1056 
Q 959 750 1161 570 
Q 1363 391 1709 391 
Q 2188 391 2477 730 
Q 2766 1069 2766 1631 
L 2766 1759 
L 2194 1759 
z
M 3341 1997 
L 3341 0 
L 2766 0 
L 2766 531 
Q 2569 213 2275 61 
Q 1981 -91 1556 -91 
Q 1019 -91 701 211 
Q 384 513 384 1019 
Q 384 1609 779 1909 
Q 1175 2209 1959 2209 
L 2766 2209 
L 2766 2266 
Q 2766 2663 2505 2880 
Q 2244 3097 1772 3097 
Q 1472 3097 1187 3025 
Q 903 2953 641 2809 
L 641 3341 
Q 956 3463 1253 3523 
Q 1550 3584 1831 3584 
Q 2591 3584 2966 3190 
Q 3341 2797 3341 1997 
z
" transform="scale(0.015625)"/>
      </defs>
      <use xlink:href="#DejaVuSans-53"/>
      <use xlink:href="#DejaVuSans-4f" transform="translate(63.484375 0)"/>
      <use xlink:href="#DejaVuSans-44" transform="translate(91.265625 0)"/>
      <use xlink:href="#DejaVuSans-51" transform="translate(152.546875 0)"/>
      <use xlink:href="#DejaVuSans-57" transform="translate(215.921875 0)"/>
      <use xlink:href="#DejaVuSans-3" transform="translate(255.125 0)"/>
      <use xlink:href="#DejaVuSans-14" transform="translate(286.90625 0)"/>
     </g>
    </g>
    <g id="line2d_34">
     <path d="M 483.814062 50.3 
L 493.814062 50.3 
L 503.814062 50.3 
" style="fill: none; stroke: #4daf4a; stroke-width: 2; stroke-linecap: square"/>
    </g>
    <g id="text_18">
     <!-- plant 2 -->
     <g style="fill: #7f7f7f" transform="translate(511.814062 53.8) scale(0.1 -0.1)">
      <use xlink:href="#DejaVuSans-53"/>
      <use xlink:href="#DejaVuSans-4f" transform="translate(63.484375 0)"/>
      <use xlink:href="#DejaVuSans-44" transform="translate(91.265625 0)"/>
      <use xlink:href="#DejaVuSans-51" transform="translate(152.546875 0)"/>
      <use xlink:href="#DejaVuSans-57" transform="translate(215.921875 0)"/>
      <use xlink:href="#DejaVuSans-3" transform="translate(255.125 0)"/>
      <use xlink:href="#DejaVuSans-15" transform="translate(286.90625 0)"/>
     </g>
    </g>
   </g>
  </g>
 </g>
 <defs>
  <clipPath id="p0508715ab3">
   <rect x="38.482813" y="7.2" width="523.117187" height="234.399141"/>
  </clipPath>
 </defs>
</svg>
