<?xml version="1.0" encoding="utf-8" standalone="no"?>
<!DOCTYPE svg PUBLIC "-//W3C//DTD SVG 1.1//EN"
  "http://www.w3.org/Graphics/SVG/1.1/DTD/svg11.dtd">
<svg xmlns:xlink="http://www.w3.org/1999/xlink" width="568.8pt" height="280.8pt" viewBox="0 0 568.8 280.8" xmlns="http://www.w3.org/2000/svg" version="1.1">
 <metadata>
  <rdf:RDF xmlns:dc="http://purl.org/dc/elements/1.1/" xmlns:cc="http://creativecommons.org/ns#" xmlns:rdf="http://www.w3.org/1999/02/22-rdf-syntax-ns#">
   <cc:Work>
    <dc:type rdf:resource="http://purl.org/dc/dcmitype/StillImage"/>
    <dc:date>2026-06-22T08:04:58.159585</dc:date>
    <dc:format>image/svg+xml</dc:format>
    <dc:creator>
     <cc:Agent>
      <dc:title>Matplotlib v3.11.0, https://matplotlib.org/</dc:title>
     </cc:Agent>
    </dc:creator>
   </cc:Work>
  </rdf:RDF>
 </metadata>
 <defs>
  <style type="text/css">*{stroke-linejoin: round; stroke-linecap: butt}</style>
 </defs>
 <g id="figure_1">
  <g id="patch_1">
   <path d="M 0 280.8 
L 568.8 280.8 
L 568.8 0 
L 0 0 
L 0 280.8 
z
" style="fill: none"/>
  </g>
  <g id="axes_1">
   <g id="patch_2">
    <path d="M 44.845313 241.599141 
L 561.6 241.599141 
L 561.6 7.2 
L 44.845313 7.2 
L 44.845313 241.599141 
z
" style="fill: none"/>
   </g>
   <g id="matplotlib.axis_1">
    <g id="xtick_1">
     <g id="line2d_1">
      <path d="M 68.334162 241.599141 
L 68.334162 7.2 
" clip-path="url(#p54cb6c0e47)" style="fill: none; stroke-dasharray: 2.96,1.28; stroke-dashoffset: 0; stroke: #7f7f7f; stroke-opacity: 0.6; stroke-width: 0.8"/>
     </g>
     <g id="line2d_2">
      <defs>
       <path id="m74e4ef8c87" d="M 0 0 
L 0 3.5 
" style="stroke: #7f7f7f; stroke-width: 1.8"/>
      </defs>
      <g>
       <use xlink:href="#m74e4ef8c87" x="68.334162" y="241.599141" style="fill: #7f7f7f; stroke: #7f7f7f; stroke-width: 1.8"/>
      </g>
     </g>
     <g id="text_1">
      <!-- 0 -->
      <g style="fill: #7f7f7f" transform="translate(65.152912 256.196797) scale(0.1 -0.1)">
       <defs>
        <path id="DejaVuSans-13" d="M 2034 4250 
Q 1547 4250 1301 3770 
Q 1056 3291 1056 2328 
Q 1056 1369 1301 889 
Q 1547 409 2034 409 
Q 2525 409 2770 889 
Q 3016 1369 3016 2328 
Q 3016 3291 2770 3770 
Q 2525 4250 2034 4250 
z
M 2034 4750 
Q 2819 4750 3233 4129 
Q 3647 3509 3647 2328 
Q 3647 1150 3233 529 
Q 2819 -91 2034 -91 
Q 1250 -91 836 529 
Q 422 1150 422 2328 
Q 422 3509 836 4129 
Q 1250 4750 2034 4750 
z
" transform="scale(0.015625)"/>
       </defs>
       <use xlink:href="#DejaVuSans-13"/>
      </g>
     </g>
    </g>
    <g id="xtick_2">
     <g id="line2d_3">
      <path d="M 162.28956 241.599141 
L 162.28956 7.2 
" clip-path="url(#p54cb6c0e47)" style="fill: none; stroke-dasharray: 2.96,1.28; stroke-dashoffset: 0; stroke: #7f7f7f; stroke-opacity: 0.6; stroke-width: 0.8"/>
     </g>
     <g id="line2d_4">
      <g>
       <use xlink:href="#m74e4ef8c87" x="162.28956" y="241.599141" style="fill: #7f7f7f; stroke: #7f7f7f; stroke-width: 1.8"/>
      </g>
     </g>
     <g id="text_2">
      <!-- 20 -->
      <g style="fill: #7f7f7f" transform="translate(155.92706 256.196797) scale(0.1 -0.1)">
       <defs>
        <path id="DejaVuSans-15" d="M 1228 531 
L 3431 531 
L 3431 0 
L 469 0 
L 469 531 
Q 828 903 1448 1529 
Q 2069 2156 2228 2338 
Q 2531 2678 2651 2914 
Q 2772 3150 2772 3378 
Q 2772 3750 2511 3984 
Q 2250 4219 1831 4219 
Q 1534 4219 1204 4116 
Q 875 4013 500 3803 
L 500 4441 
Q 881 4594 1212 4672 
Q 1544 4750 1819 4750 
Q 2544 4750 2975 4387 
Q 3406 4025 3406 3419 
Q 3406 3131 3298 2873 
Q 3191 2616 2906 2266 
Q 2828 2175 2409 1742 
Q 1991 1309 1228 531 
z
" transform="scale(0.015625)"/>
       </defs>
       <use xlink:href="#DejaVuSans-15"/>
       <use xlink:href="#DejaVuSans-13" transform="translate(63.625 0)"/>
      </g>
     </g>
    </g>
    <g id="xtick_3">
     <g id="line2d_5">
      <path d="M 256.244957 241.599141 
L 256.244957 7.2 
" clip-path="url(#p54cb6c0e47)" style="fill: none; stroke-dasharray: 2.96,1.28; stroke-dashoffset: 0; stroke: #7f7f7f; stroke-opacity: 0.6; stroke-width: 0.8"/>
     </g>
     <g id="line2d_6">
      <g>
       <use xlink:href="#m74e4ef8c87" x="256.244957" y="241.599141" style="fill: #7f7f7f; stroke: #7f7f7f; stroke-width: 1.8"/>
      </g>
     </g>
     <g id="text_3">
      <!-- 40 -->
      <g style="fill: #7f7f7f" transform="translate(249.882457 256.196797) scale(0.1 -0.1)">
       <defs>
        <path id="DejaVuSans-17" d="M 2419 4116 
L 825 1625 
L 2419 1625 
L 2419 4116 
z
M 2253 4666 
L 3047 4666 
L 3047 1625 
L 3713 1625 
L 3713 1100 
L 3047 1100 
L 3047 0 
L 2419 0 
L 2419 1100 
L 313 1100 
L 313 1709 
L 2253 4666 
z
" transform="scale(0.015625)"/>
       </defs>
       <use xlink:href="#DejaVuSans-17"/>
       <use xlink:href="#DejaVuSans-13" transform="translate(63.625 0)"/>
      </g>
     </g>
    </g>
    <g id="xtick_4">
     <g id="line2d_7">
      <path d="M 350.200355 241.599141 
L 350.200355 7.2 
" clip-path="url(#p54cb6c0e47)" style="fill: none; stroke-dasharray: 2.96,1.28; stroke-dashoffset: 0; stroke: #7f7f7f; stroke-opacity: 0.6; stroke-width: 0.8"/>
     </g>
     <g id="line2d_8">
      <g>
       <use xlink:href="#m74e4ef8c87" x="350.200355" y="241.599141" style="fill: #7f7f7f; stroke: #7f7f7f; stroke-width: 1.8"/>
      </g>
     </g>
     <g id="text_4">
      <!-- 60 -->
      <g style="fill: #7f7f7f" transform="translate(343.837855 256.196797) scale(0.1 -0.1)">
       <defs>
        <path id="DejaVuSans-19" d="M 2113 2584 
Q 1688 2584 1439 2293 
Q 1191 2003 1191 1497 
Q 1191 994 1439 701 
Q 1688 409 2113 409 
Q 2538 409 2786 701 
Q 3034 994 3034 1497 
Q 3034 2003 2786 2293 
Q 2538 2584 2113 2584 
z
M 3366 4563 
L 3366 3988 
Q 3128 4100 2886 4159 
Q 2644 4219 2406 4219 
Q 1781 4219 1451 3797 
Q 1122 3375 1075 2522 
Q 1259 2794 1537 2939 
Q 1816 3084 2150 3084 
Q 2853 3084 3261 2657 
Q 3669 2231 3669 1497 
Q 3669 778 3244 343 
Q 2819 -91 2113 -91 
Q 1303 -91 875 529 
Q 447 1150 447 2328 
Q 447 3434 972 4092 
Q 1497 4750 2381 4750 
Q 2619 4750 2861 4703 
Q 3103 4656 3366 4563 
z
" transform="scale(0.015625)"/>
       </defs>
       <use xlink:href="#DejaVuSans-19"/>
       <use xlink:href="#DejaVuSans-13" transform="translate(63.625 0)"/>
      </g>
     </g>
    </g>
    <g id="xtick_5">
     <g id="line2d_9">
      <path d="M 444.155753 241.599141 
L 444.155753 7.2 
" clip-path="url(#p54cb6c0e47)" style="fill: none; stroke-dasharray: 2.96,1.28; stroke-dashoffset: 0; stroke: #7f7f7f; stroke-opacity: 0.6; stroke-width: 0.8"/>
     </g>
     <g id="line2d_10">
      <g>
       <use xlink:href="#m74e4ef8c87" x="444.155753" y="241.599141" style="fill: #7f7f7f; stroke: #7f7f7f; stroke-width: 1.8"/>
      </g>
     </g>
     <g id="text_5">
      <!-- 80 -->
      <g style="fill: #7f7f7f" transform="translate(437.793253 256.196797) scale(0.1 -0.1)">
       <defs>
        <path id="DejaVuSans-1b" d="M 2034 2216 
Q 1584 2216 1326 1975 
Q 1069 1734 1069 1313 
Q 1069 891 1326 650 
Q 1584 409 2034 409 
Q 2484 409 2743 651 
Q 3003 894 3003 1313 
Q 3003 1734 2745 1975 
Q 2488 2216 2034 2216 
z
M 1403 2484 
Q 997 2584 770 2862 
Q 544 3141 544 3541 
Q 544 4100 942 4425 
Q 1341 4750 2034 4750 
Q 2731 4750 3128 4425 
Q 3525 4100 3525 3541 
Q 3525 3141 3298 2862 
Q 3072 2584 2669 2484 
Q 3125 2378 3379 2068 
Q 3634 1759 3634 1313 
Q 3634 634 3220 271 
Q 2806 -91 2034 -91 
Q 1263 -91 848 271 
Q 434 634 434 1313 
Q 434 1759 690 2068 
Q 947 2378 1403 2484 
z
M 1172 3481 
Q 1172 3119 1398 2916 
Q 1625 2713 2034 2713 
Q 2441 2713 2670 2916 
Q 2900 3119 2900 3481 
Q 2900 3844 2670 4047 
Q 2441 4250 2034 4250 
Q 1625 4250 1398 4047 
Q 1172 3844 1172 3481 
z
" transform="scale(0.015625)"/>
       </defs>
       <use xlink:href="#DejaVuSans-1b"/>
       <use xlink:href="#DejaVuSans-13" transform="translate(63.625 0)"/>
      </g>
     </g>
    </g>
    <g id="xtick_6">
     <g id="line2d_11">
      <path d="M 538.111151 241.599141 
L 538.111151 7.2 
" clip-path="url(#p54cb6c0e47)" style="fill: none; stroke-dasharray: 2.96,1.28; stroke-dashoffset: 0; stroke: #7f7f7f; stroke-opacity: 0.6; stroke-width: 0.8"/>
     </g>
     <g id="line2d_12">
      <g>
       <use xlink:href="#m74e4ef8c87" x="538.111151" y="241.599141" style="fill: #7f7f7f; stroke: #7f7f7f; stroke-width: 1.8"/>
      </g>
     </g>
     <g id="text_6">
      <!-- 100 -->
      <g style="fill: #7f7f7f" transform="translate(528.567401 256.196797) scale(0.1 -0.1)">
       <defs>
        <path id="DejaVuSans-14" d="M 794 531 
L 1825 531 
L 1825 4091 
L 703 3866 
L 703 4441 
L 1819 4666 
L 2450 4666 
L 2450 531 
L 3481 531 
L 3481 0 
L 794 0 
L 794 531 
z
" transform="scale(0.015625)"/>
       </defs>
       <use xlink:href="#DejaVuSans-14"/>
       <use xlink:href="#DejaVuSans-13" transform="translate(63.625 0)"/>
       <use xlink:href="#DejaVuSans-13" transform="translate(127.25 0)"/>
      </g>
     </g>
    </g>
    <g id="text_7">
     <!-- time [s] -->
     <g style="fill: #7f7f7f" transform="translate(281.892109 270.957422) scale(0.11 -0.11)">
      <defs>
       <path id="DejaVuSans-57" d="M 1172 4494 
L 1172 3500 
L 2356 3500 
L 2356 3053 
L 1172 3053 
L 1172 1153 
Q 1172 725 1289 603 
Q 1406 481 1766 481 
L 2356 481 
L 2356 0 
L 1766 0 
Q 1100 0 847 248 
Q 594 497 594 1153 
L 594 3053 
L 172 3053 
L 172 3500 
L 594 3500 
L 594 4494 
L 1172 4494 
z
" transform="scale(0.015625)"/>
       <path id="DejaVuSans-4c" d="M 603 3500 
L 1178 3500 
L 1178 0 
L 603 0 
L 603 3500 
z
M 603 4863 
L 1178 4863 
L 1178 4134 
L 603 4134 
L 603 4863 
z
" transform="scale(0.015625)"/>
       <path id="DejaVuSans-50" d="M 3328 2828 
Q 3544 3216 3844 3400 
Q 4144 3584 4550 3584 
Q 5097 3584 5394 3201 
Q 5691 2819 5691 2113 
L 5691 0 
L 5113 0 
L 5113 2094 
Q 5113 2597 4934 2840 
Q 4756 3084 4391 3084 
Q 3944 3084 3684 2787 
Q 3425 2491 3425 1978 
L 3425 0 
L 2847 0 
L 2847 2094 
Q 2847 2600 2669 2842 
Q 2491 3084 2119 3084 
Q 1678 3084 1418 2786 
Q 1159 2488 1159 1978 
L 1159 0 
L 581 0 
L 581 3500 
L 1159 3500 
L 1159 2956 
Q 1356 3278 1631 3431 
Q 1906 3584 2284 3584 
Q 2666 3584 2933 3390 
Q 3200 3197 3328 2828 
z
" transform="scale(0.015625)"/>
       <path id="DejaVuSans-48" d="M 3597 1894 
L 3597 1613 
L 953 1613 
Q 991 1019 1311 708 
Q 1631 397 2203 397 
Q 2534 397 2845 478 
Q 3156 559 3463 722 
L 3463 178 
Q 3153 47 2828 -22 
Q 2503 -91 2169 -91 
Q 1331 -91 842 396 
Q 353 884 353 1716 
Q 353 2575 817 3079 
Q 1281 3584 2069 3584 
Q 2775 3584 3186 3129 
Q 3597 2675 3597 1894 
z
M 3022 2063 
Q 3016 2534 2758 2815 
Q 2500 3097 2075 3097 
Q 1594 3097 1305 2825 
Q 1016 2553 972 2059 
L 3022 2063 
z
" transform="scale(0.015625)"/>
       <path id="DejaVuSans-3" transform="scale(0.015625)"/>
       <path id="DejaVuSans-3e" d="M 550 4863 
L 1875 4863 
L 1875 4416 
L 1125 4416 
L 1125 -397 
L 1875 -397 
L 1875 -844 
L 550 -844 
L 550 4863 
z
" transform="scale(0.015625)"/>
       <path id="DejaVuSans-56" d="M 2834 3397 
L 2834 2853 
Q 2591 2978 2328 3040 
Q 2066 3103 1784 3103 
Q 1356 3103 1142 2972 
Q 928 2841 928 2578 
Q 928 2378 1081 2264 
Q 1234 2150 1697 2047 
L 1894 2003 
Q 2506 1872 2764 1633 
Q 3022 1394 3022 966 
Q 3022 478 2636 193 
Q 2250 -91 1575 -91 
Q 1294 -91 989 -36 
Q 684 19 347 128 
L 347 722 
Q 666 556 975 473 
Q 1284 391 1588 391 
Q 1994 391 2212 530 
Q 2431 669 2431 922 
Q 2431 1156 2273 1281 
Q 2116 1406 1581 1522 
L 1381 1569 
Q 847 1681 609 1914 
Q 372 2147 372 2553 
Q 372 3047 722 3315 
Q 1072 3584 1716 3584 
Q 2034 3584 2315 3537 
Q 2597 3491 2834 3397 
z
" transform="scale(0.015625)"/>
       <path id="DejaVuSans-40" d="M 1947 4863 
L 1947 -844 
L 622 -844 
L 622 -397 
L 1369 -397 
L 1369 4416 
L 622 4416 
L 622 4863 
L 1947 4863 
z
" transform="scale(0.015625)"/>
      </defs>
      <use xlink:href="#DejaVuSans-57"/>
      <use xlink:href="#DejaVuSans-4c" transform="translate(39.203125 0)"/>
      <use xlink:href="#DejaVuSans-50" transform="translate(66.984375 0)"/>
      <use xlink:href="#DejaVuSans-48" transform="translate(164.390625 0)"/>
      <use xlink:href="#DejaVuSans-3" transform="translate(225.921875 0)"/>
      <use xlink:href="#DejaVuSans-3e" transform="translate(257.703125 0)"/>
      <use xlink:href="#DejaVuSans-56" transform="translate(296.71875 0)"/>
      <use xlink:href="#DejaVuSans-40" transform="translate(348.8125 0)"/>
     </g>
    </g>
   </g>
   <g id="matplotlib.axis_2">
    <g id="ytick_1">
     <g id="line2d_13">
      <path d="M 44.845313 214.947573 
L 561.6 214.947573 
" clip-path="url(#p54cb6c0e47)" style="fill: none; stroke-dasharray: 2.96,1.28; stroke-dashoffset: 0; stroke: #7f7f7f; stroke-opacity: 0.6; stroke-width: 0.8"/>
     </g>
     <g id="line2d_14">
      <defs>
       <path id="m76cf566906" d="M 0 0 
L -3.5 0 
" style="stroke: #7f7f7f; stroke-width: 1.8"/>
      </defs>
      <g>
       <use xlink:href="#m76cf566906" x="44.845313" y="214.947573" style="fill: #7f7f7f; stroke: #7f7f7f; stroke-width: 1.8"/>
      </g>
     </g>
     <g id="text_8">
      <!-- −0.50 -->
      <g style="fill: #7f7f7f" transform="translate(7.2 218.746401) scale(0.1 -0.1)">
       <defs>
        <path id="DejaVuSans-c9c" d="M 678 2272 
L 4684 2272 
L 4684 1741 
L 678 1741 
L 678 2272 
z
" transform="scale(0.015625)"/>
        <path id="DejaVuSans-11" d="M 684 794 
L 1344 794 
L 1344 0 
L 684 0 
L 684 794 
z
" transform="scale(0.015625)"/>
        <path id="DejaVuSans-18" d="M 691 4666 
L 3169 4666 
L 3169 4134 
L 1269 4134 
L 1269 2991 
Q 1406 3038 1543 3061 
Q 1681 3084 1819 3084 
Q 2600 3084 3056 2656 
Q 3513 2228 3513 1497 
Q 3513 744 3044 326 
Q 2575 -91 1722 -91 
Q 1428 -91 1123 -41 
Q 819 9 494 109 
L 494 744 
Q 775 591 1075 516 
Q 1375 441 1709 441 
Q 2250 441 2565 725 
Q 2881 1009 2881 1497 
Q 2881 1984 2565 2268 
Q 2250 2553 1709 2553 
Q 1456 2553 1204 2497 
Q 953 2441 691 2322 
L 691 4666 
z
" transform="scale(0.015625)"/>
       </defs>
       <use xlink:href="#DejaVuSans-c9c"/>
       <use xlink:href="#DejaVuSans-13" transform="translate(83.796875 0)"/>
       <use xlink:href="#DejaVuSans-11" transform="translate(147.421875 0)"/>
       <use xlink:href="#DejaVuSans-18" transform="translate(179.203125 0)"/>
       <use xlink:href="#DejaVuSans-13" transform="translate(242.828125 0)"/>
      </g>
     </g>
    </g>
    <g id="ytick_2">
     <g id="line2d_15">
      <path d="M 44.845313 183.177314 
L 561.6 183.177314 
" clip-path="url(#p54cb6c0e47)" style="fill: none; stroke-dasharray: 2.96,1.28; stroke-dashoffset: 0; stroke: #7f7f7f; stroke-opacity: 0.6; stroke-width: 0.8"/>
     </g>
     <g id="line2d_16">
      <g>
       <use xlink:href="#m76cf566906" x="44.845313" y="183.177314" style="fill: #7f7f7f; stroke: #7f7f7f; stroke-width: 1.8"/>
      </g>
     </g>
     <g id="text_9">
      <!-- −0.25 -->
      <g style="fill: #7f7f7f" transform="translate(7.2 186.976142) scale(0.1 -0.1)">
       <use xlink:href="#DejaVuSans-c9c"/>
       <use xlink:href="#DejaVuSans-13" transform="translate(83.796875 0)"/>
       <use xlink:href="#DejaVuSans-11" transform="translate(147.421875 0)"/>
       <use xlink:href="#DejaVuSans-15" transform="translate(179.203125 0)"/>
       <use xlink:href="#DejaVuSans-18" transform="translate(242.828125 0)"/>
      </g>
     </g>
    </g>
    <g id="ytick_3">
     <g id="line2d_17">
      <path d="M 44.845313 151.407054 
L 561.6 151.407054 
" clip-path="url(#p54cb6c0e47)" style="fill: none; stroke-dasharray: 2.96,1.28; stroke-dashoffset: 0; stroke: #7f7f7f; stroke-opacity: 0.6; stroke-width: 0.8"/>
     </g>
     <g id="line2d_18">
      <g>
       <use xlink:href="#m76cf566906" x="44.845313" y="151.407054" style="fill: #7f7f7f; stroke: #7f7f7f; stroke-width: 1.8"/>
      </g>
     </g>
     <g id="text_10">
      <!-- 0.00 -->
      <g style="fill: #7f7f7f" transform="translate(15.579688 155.205883) scale(0.1 -0.1)">
       <use xlink:href="#DejaVuSans-13"/>
       <use xlink:href="#DejaVuSans-11" transform="translate(63.625 0)"/>
       <use xlink:href="#DejaVuSans-13" transform="translate(95.40625 0)"/>
       <use xlink:href="#DejaVuSans-13" transform="translate(159.03125 0)"/>
      </g>
     </g>
    </g>
    <g id="ytick_4">
     <g id="line2d_19">
      <path d="M 44.845313 119.636795 
L 561.6 119.636795 
" clip-path="url(#p54cb6c0e47)" style="fill: none; stroke-dasharray: 2.96,1.28; stroke-dashoffset: 0; stroke: #7f7f7f; stroke-opacity: 0.6; stroke-width: 0.8"/>
     </g>
     <g id="line2d_20">
      <g>
       <use xlink:href="#m76cf566906" x="44.845313" y="119.636795" style="fill: #7f7f7f; stroke: #7f7f7f; stroke-width: 1.8"/>
      </g>
     </g>
     <g id="text_11">
      <!-- 0.25 -->
      <g style="fill: #7f7f7f" transform="translate(15.579688 123.435623) scale(0.1 -0.1)">
       <use xlink:href="#DejaVuSans-13"/>
       <use xlink:href="#DejaVuSans-11" transform="translate(63.625 0)"/>
       <use xlink:href="#DejaVuSans-15" transform="translate(95.40625 0)"/>
       <use xlink:href="#DejaVuSans-18" transform="translate(159.03125 0)"/>
      </g>
     </g>
    </g>
    <g id="ytick_5">
     <g id="line2d_21">
      <path d="M 44.845313 87.866536 
L 561.6 87.866536 
" clip-path="url(#p54cb6c0e47)" style="fill: none; stroke-dasharray: 2.96,1.28; stroke-dashoffset: 0; stroke: #7f7f7f; stroke-opacity: 0.6; stroke-width: 0.8"/>
     </g>
     <g id="line2d_22">
      <g>
       <use xlink:href="#m76cf566906" x="44.845313" y="87.866536" style="fill: #7f7f7f; stroke: #7f7f7f; stroke-width: 1.8"/>
      </g>
     </g>
     <g id="text_12">
      <!-- 0.50 -->
      <g style="fill: #7f7f7f" transform="translate(15.579688 91.665364) scale(0.1 -0.1)">
       <use xlink:href="#DejaVuSans-13"/>
       <use xlink:href="#DejaVuSans-11" transform="translate(63.625 0)"/>
       <use xlink:href="#DejaVuSans-18" transform="translate(95.40625 0)"/>
       <use xlink:href="#DejaVuSans-13" transform="translate(159.03125 0)"/>
      </g>
     </g>
    </g>
    <g id="ytick_6">
     <g id="line2d_23">
      <path d="M 44.845313 56.096277 
L 561.6 56.096277 
" clip-path="url(#p54cb6c0e47)" style="fill: none; stroke-dasharray: 2.96,1.28; stroke-dashoffset: 0; stroke: #7f7f7f; stroke-opacity: 0.6; stroke-width: 0.8"/>
     </g>
     <g id="line2d_24">
      <g>
       <use xlink:href="#m76cf566906" x="44.845313" y="56.096277" style="fill: #7f7f7f; stroke: #7f7f7f; stroke-width: 1.8"/>
      </g>
     </g>
     <g id="text_13">
      <!-- 0.75 -->
      <g style="fill: #7f7f7f" transform="translate(15.579688 59.895105) scale(0.1 -0.1)">
       <defs>
        <path id="DejaVuSans-1a" d="M 525 4666 
L 3525 4666 
L 3525 4397 
L 1831 0 
L 1172 0 
L 2766 4134 
L 525 4134 
L 525 4666 
z
" transform="scale(0.015625)"/>
       </defs>
       <use xlink:href="#DejaVuSans-13"/>
       <use xlink:href="#DejaVuSans-11" transform="translate(63.625 0)"/>
       <use xlink:href="#DejaVuSans-1a" transform="translate(95.40625 0)"/>
       <use xlink:href="#DejaVuSans-18" transform="translate(159.03125 0)"/>
      </g>
     </g>
    </g>
    <g id="ytick_7">
     <g id="line2d_25">
      <path d="M 44.845313 24.326017 
L 561.6 24.326017 
" clip-path="url(#p54cb6c0e47)" style="fill: none; stroke-dasharray: 2.96,1.28; stroke-dashoffset: 0; stroke: #7f7f7f; stroke-opacity: 0.6; stroke-width: 0.8"/>
     </g>
     <g id="line2d_26">
      <g>
       <use xlink:href="#m76cf566906" x="44.845313" y="24.326017" style="fill: #7f7f7f; stroke: #7f7f7f; stroke-width: 1.8"/>
      </g>
     </g>
     <g id="text_14">
      <!-- 1.00 -->
      <g style="fill: #7f7f7f" transform="translate(15.579688 28.124846) scale(0.1 -0.1)">
       <use xlink:href="#DejaVuSans-14"/>
       <use xlink:href="#DejaVuSans-11" transform="translate(63.625 0)"/>
       <use xlink:href="#DejaVuSans-13" transform="translate(95.40625 0)"/>
       <use xlink:href="#DejaVuSans-13" transform="translate(159.03125 0)"/>
      </g>
     </g>
    </g>
   </g>
   <g id="line2d_27">
    <path d="M 68.334162 151.407054 
L 68.51481 148.965405 
L 68.634598 152.100423 
L 69.151237 151.350129 
L 69.438755 150.729667 
L 70.221827 151.214028 
L 71.2574 151.404782 
L 71.517517 151.089271 
L 71.832218 151.392086 
L 72.42098 151.826251 
L 72.705301 150.928747 
L 75.174846 151.56484 
L 76.234821 150.956232 
L 78.372681 152.121937 
L 80.300076 151.715794 
L 93.975607 151.707615 
L 95.350403 150.524389 
L 95.684198 151.745538 
L 96.342089 151.298962 
L 144.120073 151.053783 
L 144.546343 150.426014 
L 144.947232 151.351138 
L 147.133215 151.187757 
L 148.682046 151.027351 
L 149.922916 151.651795 
L 150.275412 150.753258 
L 150.959243 151.240051 
L 156.483218 151.378122 
L 157.698191 150.864581 
L 158.622893 151.842353 
L 159.480298 151.329153 
L 160.570182 151.716233 
L 162.168946 150.927626 
L 162.288544 149.32558 
L 162.289385 153.046975 
L 162.294394 17.854506 
L 163.19329 24.353066 
L 164.116379 24.088878 
L 163.805485 25.317824 
L 164.280885 24.250961 
L 164.944955 23.626406 
L 164.767147 24.66852 
L 165.314927 23.866025 
L 166.532675 24.943533 
L 167.024037 25.686176 
L 167.577927 25.231267 
L 168.545536 26.204327 
L 168.839327 25.691881 
L 169.117831 27.061561 
L 171.983034 31.146483 
L 179.557724 58.348877 
L 191.73893 111.332039 
L 193.176278 115.939619 
L 196.766381 128.080879 
L 207.348305 151.705146 
L 209.052351 153.492522 
L 211.08686 156.316048 
L 211.545772 155.779776 
L 212.064242 156.705754 
L 213.990591 157.593512 
L 216.151783 159.797693 
L 217.721237 159.458206 
L 220.152846 160.660441 
L 222.667741 161.036578 
L 226.319975 159.751181 
L 227.814362 160.453555 
L 229.335545 159.276927 
L 241.760471 155.822831 
L 243.561591 155.086056 
L 245.160211 155.114904 
L 245.918503 153.927179 
L 246.426807 154.456851 
L 262.559627 151.559919 
L 263.836786 151.872599 
L 264.193239 151.008193 
L 264.95381 151.641516 
L 266.637803 150.806232 
L 267.854078 151.395663 
L 270.937286 150.335755 
L 272.096109 150.863602 
L 272.468372 149.973706 
L 272.881083 150.490438 
L 273.270657 151.062767 
L 273.673766 150.019451 
L 279.132454 150.873209 
L 279.542868 151.309781 
L 279.910209 149.855456 
L 280.655501 150.189116 
L 281.368911 150.409602 
L 282.566707 151.229327 
L 282.940513 149.919372 
L 283.801005 150.426033 
L 284.797201 150.794092 
L 286.063638 150.940754 
L 292.836707 151.030504 
L 294.541145 150.698239 
L 296.670307 151.478336 
L 301.854653 150.766903 
L 302.589221 151.457892 
L 303.042726 151.224382 
L 303.88735 151.128679 
L 305.143237 151.603661 
L 305.514513 150.772785 
L 306.260902 151.210341 
L 306.990501 150.567603 
L 307.743243 151.802468 
L 308.936546 151.570262 
L 311.913748 151.110259 
L 313.527615 151.259384 
L 315.108105 151.556315 
L 319.155795 151.41383 
L 320.385163 151.616148 
L 322.406222 151.18161 
L 323.106913 151.800328 
L 323.487176 151.259718 
L 327.218129 151.235745 
L 328.541725 151.087211 
L 329.770969 152.132987 
L 330.509072 151.323647 
L 330.890749 151.581123 
L 332.499419 151.313349 
L 333.701361 151.55172 
L 335.270587 150.650598 
L 335.627484 151.778024 
L 336.422397 151.508809 
L 340.073317 151.663788 
L 341.336886 151.645058 
L 341.664199 151.0773 
L 342.044418 151.810716 
L 346.220718 151.886674 
L 347.046171 151.792815 
L 347.817423 151.423658 
L 348.261922 151.800637 
L 349.175312 151.5775 
L 350.152425 149.34771 
L 350.194553 151.570876 
L 350.201435 230.944634 
L 351.138881 214.881135 
L 352.202517 215.278993 
L 353.368615 215.079546 
L 355.376126 215.138516 
L 356.811742 214.029254 
L 358.920177 212.272718 
L 359.304161 212.413 
L 360.948712 209.792098 
L 361.804054 208.172436 
L 368.099112 196.569405 
L 372.76603 185.907838 
L 373.273274 185.874763 
L 375.201246 181.036633 
L 382.258471 166.983271 
L 383.621394 165.038479 
L 385.870137 160.454578 
L 386.23956 160.63656 
L 388.8788 157.260448 
L 390.148991 155.517497 
L 391.347405 154.62641 
L 394.671428 151.511229 
L 395.553759 151.28219 
L 397.808012 149.59984 
L 401.244978 148.122798 
L 405.135538 146.683994 
L 406.437126 147.12056 
L 413.633435 146.801129 
L 415.796843 147.189465 
L 416.984205 147.32252 
L 420.949342 148.521133 
L 421.394689 147.573394 
L 421.859534 148.04117 
L 426.134005 148.864082 
L 427.690748 148.683042 
L 429.238075 149.299402 
L 430.538747 149.188779 
L 434.054643 149.805119 
L 435.68386 149.768549 
L 436.901521 150.693212 
L 438.765537 150.121843 
L 440.144443 150.937598 
L 442.582916 150.408436 
L 443.661107 152.031953 
L 444.405116 150.907367 
L 444.758919 151.059015 
L 446.80809 151.369114 
L 448.42067 150.644159 
L 449.270035 151.467668 
L 449.686881 151.076137 
L 451.389309 151.251092 
L 452.725093 151.80704 
L 453.908421 151.29948 
L 454.596433 151.547479 
L 456.553874 152.112398 
L 458.279767 151.870486 
L 459.148871 152.034143 
L 460.463434 151.583783 
L 461.623587 151.601517 
L 462.818147 151.502527 
L 463.230575 152.08547 
L 463.637374 151.758939 
L 464.813973 151.072579 
L 465.174963 151.469728 
L 465.533441 151.3848 
L 465.929428 152.381472 
L 466.683837 151.647688 
L 474.260666 151.463148 
L 475.111617 151.631956 
L 476.334444 151.836003 
L 479.667476 151.413437 
L 480.42664 152.398541 
L 480.791475 150.990852 
L 481.614196 151.534718 
L 485.757525 151.729283 
L 486.573427 151.430274 
L 488.068982 152.30262 
L 489.281319 151.519089 
L 495.465669 151.949652 
L 496.602743 151.312275 
L 496.999969 152.240784 
L 497.77736 151.662549 
L 506.718226 150.882814 
L 507.497473 151.185556 
L 507.831666 151.974384 
L 508.189483 151.131961 
L 511.900506 150.980844 
L 513.067344 151.975274 
L 513.541227 151.904288 
L 513.878131 150.61616 
L 514.623976 151.651896 
L 516.753887 151.77362 
L 517.184129 151.321371 
L 517.592462 151.712763 
L 518.830291 151.659829 
L 519.183065 150.801952 
L 519.538812 151.527616 
L 524.07283 151.673588 
L 524.888152 150.882308 
L 526.368441 151.458429 
L 531.365559 151.527257 
L 531.767772 150.916582 
L 532.172393 151.315437 
L 533.350698 151.523649 
L 538.111151 150.634393 
L 538.111151 150.634393 
" clip-path="url(#p54cb6c0e47)" style="fill: none; stroke: #e41a1c; stroke-width: 2; stroke-linecap: square"/>
   </g>
   <g id="line2d_28">
    <path d="M 68.334162 151.407054 
L 73.010551 151.400226 
L 144.120073 151.402341 
L 162.289643 150.007634 
L 162.290066 150.041315 
L 163.19329 148.986126 
L 176.130055 142.276105 
L 186.131402 139.103721 
L 197.484307 137.681551 
L 210.71559 137.671035 
L 233.401296 138.51931 
L 270.937286 138.760739 
L 351.830693 140.119843 
L 368.539389 144.102086 
L 384.562854 145.556421 
L 406.123674 145.408283 
L 538.111151 145.051973 
L 538.111151 145.051973 
" clip-path="url(#p54cb6c0e47)" style="fill: none; stroke: #377eb8; stroke-width: 2; stroke-linecap: square"/>
   </g>
   <g id="patch_3">
    <path d="M 44.845313 241.599141 
L 44.845313 7.2 
" style="fill: none; stroke: #7f7f7f; stroke-width: 1.8; stroke-linejoin: miter; stroke-linecap: square"/>
   </g>
   <g id="patch_4">
    <path d="M 44.845313 241.599141 
L 561.6 241.599141 
" style="fill: none; stroke: #7f7f7f; stroke-width: 1.8; stroke-linejoin: miter; stroke-linecap: square"/>
   </g>
   <g id="legend_1">
    <g id="line2d_29">
     <path d="M 499.584375 20.298438 
L 509.584375 20.298438 
L 519.584375 20.298438 
" style="fill: none; stroke: #e41a1c; stroke-width: 2; stroke-linecap: square"/>
    </g>
    <g id="text_15">
     <!-- err 1 -->
     <g style="fill: #7f7f7f" transform="translate(527.584375 23.798438) scale(0.1 -0.1)">
      <defs>
       <path id="DejaVuSans-55" d="M 2631 2963 
Q 2534 3019 2420 3045 
Q 2306 3072 2169 3072 
Q 1681 3072 1420 2755 
Q 1159 2438 1159 1844 
L 1159 0 
L 581 0 
L 581 3500 
L 1159 3500 
L 1159 2956 
Q 1341 3275 1631 3429 
Q 1922 3584 2338 3584 
Q 2397 3584 2469 3576 
Q 2541 3569 2628 3553 
L 2631 2963 
z
" transform="scale(0.015625)"/>
      </defs>
      <use xlink:href="#DejaVuSans-48"/>
      <use xlink:href="#DejaVuSans-55" transform="translate(61.53125 0)"/>
      <use xlink:href="#DejaVuSans-55" transform="translate(100.890625 0)"/>
      <use xlink:href="#DejaVuSans-3" transform="translate(142 0)"/>
      <use xlink:href="#DejaVuSans-14" transform="translate(173.78125 0)"/>
     </g>
    </g>
    <g id="line2d_30">
     <path d="M 499.584375 35.299219 
L 509.584375 35.299219 
L 519.584375 35.299219 
" style="fill: none; stroke: #377eb8; stroke-width: 2; stroke-linecap: square"/>
    </g>
    <g id="text_16">
     <!-- pid 1 -->
     <g style="fill: #7f7f7f" transform="translate(527.584375 38.799219) scale(0.1 -0.1)">
      <defs>
       <path id="DejaVuSans-53" d="M 1159 525 
L 1159 -1331 
L 581 -1331 
L 581 3500 
L 1159 3500 
L 1159 2969 
Q 1341 3281 1617 3432 
Q 1894 3584 2278 3584 
Q 2916 3584 3314 3078 
Q 3713 2572 3713 1747 
Q 3713 922 3314 415 
Q 2916 -91 2278 -91 
Q 1894 -91 1617 61 
Q 1341 213 1159 525 
z
M 3116 1747 
Q 3116 2381 2855 2742 
Q 2594 3103 2138 3103 
Q 1681 3103 1420 2742 
Q 1159 2381 1159 1747 
Q 1159 1113 1420 752 
Q 1681 391 2138 391 
Q 2594 391 2855 752 
Q 3116 1113 3116 1747 
z
" transform="scale(0.015625)"/>
       <path id="DejaVuSans-47" d="M 2906 2969 
L 2906 4863 
L 3481 4863 
L 3481 0 
L 2906 0 
L 2906 525 
Q 2725 213 2448 61 
Q 2172 -91 1784 -91 
Q 1150 -91 751 415 
Q 353 922 353 1747 
Q 353 2572 751 3078 
Q 1150 3584 1784 3584 
Q 2172 3584 2448 3432 
Q 2725 3281 2906 2969 
z
M 947 1747 
Q 947 1113 1208 752 
Q 1469 391 1925 391 
Q 2381 391 2643 752 
Q 2906 1113 2906 1747 
Q 2906 2381 2643 2742 
Q 2381 3103 1925 3103 
Q 1469 3103 1208 2742 
Q 947 2381 947 1747 
z
" transform="scale(0.015625)"/>
      </defs>
      <use xlink:href="#DejaVuSans-53"/>
      <use xlink:href="#DejaVuSans-4c" transform="translate(63.484375 0)"/>
      <use xlink:href="#DejaVuSans-47" transform="translate(91.265625 0)"/>
      <use xlink:href="#DejaVuSans-3" transform="translate(154.75 0)"/>
      <use xlink:href="#DejaVuSans-14" transform="translate(186.53125 0)"/>
     </g>
    </g>
   </g>
  </g>
 </g>
 <defs>
  <clipPath id="p54cb6c0e47">
   <rect x="44.845313" y="7.2" width="516.754687" height="234.399141"/>
  </clipPath>
 </defs>
</svg>
