<?xml version="1.0" encoding="utf-8" standalone="no"?>
<!DOCTYPE svg PUBLIC "-//W3C//DTD SVG 1.1//EN"
  "http://www.w3.org/Graphics/SVG/1.1/DTD/svg11.dtd">
<svg xmlns:xlink="http://www.w3.org/1999/xlink" width="568.8pt" height="280.8pt" viewBox="0 0 568.8 280.8" xmlns="http://www.w3.org/2000/svg" version="1.1">
 <metadata>
  <rdf:RDF xmlns:dc="http://purl.org/dc/elements/1.1/" xmlns:cc="http://creativecommons.org/ns#" xmlns:rdf="http://www.w3.org/1999/02/22-rdf-syntax-ns#">
   <cc:Work>
    <dc:type rdf:resource="http://purl.org/dc/dcmitype/StillImage"/>
    <dc:date>2026-06-17T13:19:31.268152</dc:date>
    <dc:format>image/svg+xml</dc:format>
    <dc:creator>
     <cc:Agent>
      <dc:title>Matplotlib v3.11.0, https://matplotlib.org/</dc:title>
     </cc:Agent>
    </dc:creator>
   </cc:Work>
  </rdf:RDF>
 </metadata>
 <defs>
  <style type="text/css">*{stroke-linejoin: round; stroke-linecap: butt}</style>
 </defs>
 <g id="figure_1">
  <g id="patch_1">
   <path d="M 0 280.8 
L 568.8 280.8 
L 568.8 0 
L 0 0 
L 0 280.8 
z
" style="fill: none"/>
  </g>
  <g id="axes_1">
   <g id="patch_2">
    <path d="M 44.845313 241.599141 
L 561.6 241.599141 
L 561.6 7.2 
L 44.845313 7.2 
L 44.845313 241.599141 
z
" style="fill: none"/>
   </g>
   <g id="matplotlib.axis_1">
    <g id="xtick_1">
     <g id="line2d_1">
      <path d="M 68.334162 241.599141 
L 68.334162 7.2 
" clip-path="url(#p4add93e877)" style="fill: none; stroke-dasharray: 2.96,1.28; stroke-dashoffset: 0; stroke: #7f7f7f; stroke-opacity: 0.6; stroke-width: 0.8"/>
     </g>
     <g id="line2d_2">
      <defs>
       <path id="m980089ac13" d="M 0 0 
L 0 3.5 
" style="stroke: #7f7f7f; stroke-width: 1.8"/>
      </defs>
      <g>
       <use xlink:href="#m980089ac13" x="68.334162" y="241.599141" style="fill: #7f7f7f; stroke: #7f7f7f; stroke-width: 1.8"/>
      </g>
     </g>
     <g id="text_1">
      <!-- 0 -->
      <g style="fill: #7f7f7f" transform="translate(65.152912 256.196797) scale(0.1 -0.1)">
       <defs>
        <path id="DejaVuSans-13" d="M 2034 4250 
Q 1547 4250 1301 3770 
Q 1056 3291 1056 2328 
Q 1056 1369 1301 889 
Q 1547 409 2034 409 
Q 2525 409 2770 889 
Q 3016 1369 3016 2328 
Q 3016 3291 2770 3770 
Q 2525 4250 2034 4250 
z
M 2034 4750 
Q 2819 4750 3233 4129 
Q 3647 3509 3647 2328 
Q 3647 1150 3233 529 
Q 2819 -91 2034 -91 
Q 1250 -91 836 529 
Q 422 1150 422 2328 
Q 422 3509 836 4129 
Q 1250 4750 2034 4750 
z
" transform="scale(0.015625)"/>
       </defs>
       <use xlink:href="#DejaVuSans-13"/>
      </g>
     </g>
    </g>
    <g id="xtick_2">
     <g id="line2d_3">
      <path d="M 162.28956 241.599141 
L 162.28956 7.2 
" clip-path="url(#p4add93e877)" style="fill: none; stroke-dasharray: 2.96,1.28; stroke-dashoffset: 0; stroke: #7f7f7f; stroke-opacity: 0.6; stroke-width: 0.8"/>
     </g>
     <g id="line2d_4">
      <g>
       <use xlink:href="#m980089ac13" x="162.28956" y="241.599141" style="fill: #7f7f7f; stroke: #7f7f7f; stroke-width: 1.8"/>
      </g>
     </g>
     <g id="text_2">
      <!-- 20 -->
      <g style="fill: #7f7f7f" transform="translate(155.92706 256.196797) scale(0.1 -0.1)">
       <defs>
        <path id="DejaVuSans-15" d="M 1228 531 
L 3431 531 
L 3431 0 
L 469 0 
L 469 531 
Q 828 903 1448 1529 
Q 2069 2156 2228 2338 
Q 2531 2678 2651 2914 
Q 2772 3150 2772 3378 
Q 2772 3750 2511 3984 
Q 2250 4219 1831 4219 
Q 1534 4219 1204 4116 
Q 875 4013 500 3803 
L 500 4441 
Q 881 4594 1212 4672 
Q 1544 4750 1819 4750 
Q 2544 4750 2975 4387 
Q 3406 4025 3406 3419 
Q 3406 3131 3298 2873 
Q 3191 2616 2906 2266 
Q 2828 2175 2409 1742 
Q 1991 1309 1228 531 
z
" transform="scale(0.015625)"/>
       </defs>
       <use xlink:href="#DejaVuSans-15"/>
       <use xlink:href="#DejaVuSans-13" transform="translate(63.625 0)"/>
      </g>
     </g>
    </g>
    <g id="xtick_3">
     <g id="line2d_5">
      <path d="M 256.244957 241.599141 
L 256.244957 7.2 
" clip-path="url(#p4add93e877)" style="fill: none; stroke-dasharray: 2.96,1.28; stroke-dashoffset: 0; stroke: #7f7f7f; stroke-opacity: 0.6; stroke-width: 0.8"/>
     </g>
     <g id="line2d_6">
      <g>
       <use xlink:href="#m980089ac13" x="256.244957" y="241.599141" style="fill: #7f7f7f; stroke: #7f7f7f; stroke-width: 1.8"/>
      </g>
     </g>
     <g id="text_3">
      <!-- 40 -->
      <g style="fill: #7f7f7f" transform="translate(249.882457 256.196797) scale(0.1 -0.1)">
       <defs>
        <path id="DejaVuSans-17" d="M 2419 4116 
L 825 1625 
L 2419 1625 
L 2419 4116 
z
M 2253 4666 
L 3047 4666 
L 3047 1625 
L 3713 1625 
L 3713 1100 
L 3047 1100 
L 3047 0 
L 2419 0 
L 2419 1100 
L 313 1100 
L 313 1709 
L 2253 4666 
z
" transform="scale(0.015625)"/>
       </defs>
       <use xlink:href="#DejaVuSans-17"/>
       <use xlink:href="#DejaVuSans-13" transform="translate(63.625 0)"/>
      </g>
     </g>
    </g>
    <g id="xtick_4">
     <g id="line2d_7">
      <path d="M 350.200355 241.599141 
L 350.200355 7.2 
" clip-path="url(#p4add93e877)" style="fill: none; stroke-dasharray: 2.96,1.28; stroke-dashoffset: 0; stroke: #7f7f7f; stroke-opacity: 0.6; stroke-width: 0.8"/>
     </g>
     <g id="line2d_8">
      <g>
       <use xlink:href="#m980089ac13" x="350.200355" y="241.599141" style="fill: #7f7f7f; stroke: #7f7f7f; stroke-width: 1.8"/>
      </g>
     </g>
     <g id="text_4">
      <!-- 60 -->
      <g style="fill: #7f7f7f" transform="translate(343.837855 256.196797) scale(0.1 -0.1)">
       <defs>
        <path id="DejaVuSans-19" d="M 2113 2584 
Q 1688 2584 1439 2293 
Q 1191 2003 1191 1497 
Q 1191 994 1439 701 
Q 1688 409 2113 409 
Q 2538 409 2786 701 
Q 3034 994 3034 1497 
Q 3034 2003 2786 2293 
Q 2538 2584 2113 2584 
z
M 3366 4563 
L 3366 3988 
Q 3128 4100 2886 4159 
Q 2644 4219 2406 4219 
Q 1781 4219 1451 3797 
Q 1122 3375 1075 2522 
Q 1259 2794 1537 2939 
Q 1816 3084 2150 3084 
Q 2853 3084 3261 2657 
Q 3669 2231 3669 1497 
Q 3669 778 3244 343 
Q 2819 -91 2113 -91 
Q 1303 -91 875 529 
Q 447 1150 447 2328 
Q 447 3434 972 4092 
Q 1497 4750 2381 4750 
Q 2619 4750 2861 4703 
Q 3103 4656 3366 4563 
z
" transform="scale(0.015625)"/>
       </defs>
       <use xlink:href="#DejaVuSans-19"/>
       <use xlink:href="#DejaVuSans-13" transform="translate(63.625 0)"/>
      </g>
     </g>
    </g>
    <g id="xtick_5">
     <g id="line2d_9">
      <path d="M 444.155753 241.599141 
L 444.155753 7.2 
" clip-path="url(#p4add93e877)" style="fill: none; stroke-dasharray: 2.96,1.28; stroke-dashoffset: 0; stroke: #7f7f7f; stroke-opacity: 0.6; stroke-width: 0.8"/>
     </g>
     <g id="line2d_10">
      <g>
       <use xlink:href="#m980089ac13" x="444.155753" y="241.599141" style="fill: #7f7f7f; stroke: #7f7f7f; stroke-width: 1.8"/>
      </g>
     </g>
     <g id="text_5">
      <!-- 80 -->
      <g style="fill: #7f7f7f" transform="translate(437.793253 256.196797) scale(0.1 -0.1)">
       <defs>
        <path id="DejaVuSans-1b" d="M 2034 2216 
Q 1584 2216 1326 1975 
Q 1069 1734 1069 1313 
Q 1069 891 1326 650 
Q 1584 409 2034 409 
Q 2484 409 2743 651 
Q 3003 894 3003 1313 
Q 3003 1734 2745 1975 
Q 2488 2216 2034 2216 
z
M 1403 2484 
Q 997 2584 770 2862 
Q 544 3141 544 3541 
Q 544 4100 942 4425 
Q 1341 4750 2034 4750 
Q 2731 4750 3128 4425 
Q 3525 4100 3525 3541 
Q 3525 3141 3298 2862 
Q 3072 2584 2669 2484 
Q 3125 2378 3379 2068 
Q 3634 1759 3634 1313 
Q 3634 634 3220 271 
Q 2806 -91 2034 -91 
Q 1263 -91 848 271 
Q 434 634 434 1313 
Q 434 1759 690 2068 
Q 947 2378 1403 2484 
z
M 1172 3481 
Q 1172 3119 1398 2916 
Q 1625 2713 2034 2713 
Q 2441 2713 2670 2916 
Q 2900 3119 2900 3481 
Q 2900 3844 2670 4047 
Q 2441 4250 2034 4250 
Q 1625 4250 1398 4047 
Q 1172 3844 1172 3481 
z
" transform="scale(0.015625)"/>
       </defs>
       <use xlink:href="#DejaVuSans-1b"/>
       <use xlink:href="#DejaVuSans-13" transform="translate(63.625 0)"/>
      </g>
     </g>
    </g>
    <g id="xtick_6">
     <g id="line2d_11">
      <path d="M 538.111151 241.599141 
L 538.111151 7.2 
" clip-path="url(#p4add93e877)" style="fill: none; stroke-dasharray: 2.96,1.28; stroke-dashoffset: 0; stroke: #7f7f7f; stroke-opacity: 0.6; stroke-width: 0.8"/>
     </g>
     <g id="line2d_12">
      <g>
       <use xlink:href="#m980089ac13" x="538.111151" y="241.599141" style="fill: #7f7f7f; stroke: #7f7f7f; stroke-width: 1.8"/>
      </g>
     </g>
     <g id="text_6">
      <!-- 100 -->
      <g style="fill: #7f7f7f" transform="translate(528.567401 256.196797) scale(0.1 -0.1)">
       <defs>
        <path id="DejaVuSans-14" d="M 794 531 
L 1825 531 
L 1825 4091 
L 703 3866 
L 703 4441 
L 1819 4666 
L 2450 4666 
L 2450 531 
L 3481 531 
L 3481 0 
L 794 0 
L 794 531 
z
" transform="scale(0.015625)"/>
       </defs>
       <use xlink:href="#DejaVuSans-14"/>
       <use xlink:href="#DejaVuSans-13" transform="translate(63.625 0)"/>
       <use xlink:href="#DejaVuSans-13" transform="translate(127.25 0)"/>
      </g>
     </g>
    </g>
    <g id="text_7">
     <!-- time [s] -->
     <g style="fill: #7f7f7f" transform="translate(281.892109 270.957422) scale(0.11 -0.11)">
      <defs>
       <path id="DejaVuSans-57" d="M 1172 4494 
L 1172 3500 
L 2356 3500 
L 2356 3053 
L 1172 3053 
L 1172 1153 
Q 1172 725 1289 603 
Q 1406 481 1766 481 
L 2356 481 
L 2356 0 
L 1766 0 
Q 1100 0 847 248 
Q 594 497 594 1153 
L 594 3053 
L 172 3053 
L 172 3500 
L 594 3500 
L 594 4494 
L 1172 4494 
z
" transform="scale(0.015625)"/>
       <path id="DejaVuSans-4c" d="M 603 3500 
L 1178 3500 
L 1178 0 
L 603 0 
L 603 3500 
z
M 603 4863 
L 1178 4863 
L 1178 4134 
L 603 4134 
L 603 4863 
z
" transform="scale(0.015625)"/>
       <path id="DejaVuSans-50" d="M 3328 2828 
Q 3544 3216 3844 3400 
Q 4144 3584 4550 3584 
Q 5097 3584 5394 3201 
Q 5691 2819 5691 2113 
L 5691 0 
L 5113 0 
L 5113 2094 
Q 5113 2597 4934 2840 
Q 4756 3084 4391 3084 
Q 3944 3084 3684 2787 
Q 3425 2491 3425 1978 
L 3425 0 
L 2847 0 
L 2847 2094 
Q 2847 2600 2669 2842 
Q 2491 3084 2119 3084 
Q 1678 3084 1418 2786 
Q 1159 2488 1159 1978 
L 1159 0 
L 581 0 
L 581 3500 
L 1159 3500 
L 1159 2956 
Q 1356 3278 1631 3431 
Q 1906 3584 2284 3584 
Q 2666 3584 2933 3390 
Q 3200 3197 3328 2828 
z
" transform="scale(0.015625)"/>
       <path id="DejaVuSans-48" d="M 3597 1894 
L 3597 1613 
L 953 1613 
Q 991 1019 1311 708 
Q 1631 397 2203 397 
Q 2534 397 2845 478 
Q 3156 559 3463 722 
L 3463 178 
Q 3153 47 2828 -22 
Q 2503 -91 2169 -91 
Q 1331 -91 842 396 
Q 353 884 353 1716 
Q 353 2575 817 3079 
Q 1281 3584 2069 3584 
Q 2775 3584 3186 3129 
Q 3597 2675 3597 1894 
z
M 3022 2063 
Q 3016 2534 2758 2815 
Q 2500 3097 2075 3097 
Q 1594 3097 1305 2825 
Q 1016 2553 972 2059 
L 3022 2063 
z
" transform="scale(0.015625)"/>
       <path id="DejaVuSans-3" transform="scale(0.015625)"/>
       <path id="DejaVuSans-3e" d="M 550 4863 
L 1875 4863 
L 1875 4416 
L 1125 4416 
L 1125 -397 
L 1875 -397 
L 1875 -844 
L 550 -844 
L 550 4863 
z
" transform="scale(0.015625)"/>
       <path id="DejaVuSans-56" d="M 2834 3397 
L 2834 2853 
Q 2591 2978 2328 3040 
Q 2066 3103 1784 3103 
Q 1356 3103 1142 2972 
Q 928 2841 928 2578 
Q 928 2378 1081 2264 
Q 1234 2150 1697 2047 
L 1894 2003 
Q 2506 1872 2764 1633 
Q 3022 1394 3022 966 
Q 3022 478 2636 193 
Q 2250 -91 1575 -91 
Q 1294 -91 989 -36 
Q 684 19 347 128 
L 347 722 
Q 666 556 975 473 
Q 1284 391 1588 391 
Q 1994 391 2212 530 
Q 2431 669 2431 922 
Q 2431 1156 2273 1281 
Q 2116 1406 1581 1522 
L 1381 1569 
Q 847 1681 609 1914 
Q 372 2147 372 2553 
Q 372 3047 722 3315 
Q 1072 3584 1716 3584 
Q 2034 3584 2315 3537 
Q 2597 3491 2834 3397 
z
" transform="scale(0.015625)"/>
       <path id="DejaVuSans-40" d="M 1947 4863 
L 1947 -844 
L 622 -844 
L 622 -397 
L 1369 -397 
L 1369 4416 
L 622 4416 
L 622 4863 
L 1947 4863 
z
" transform="scale(0.015625)"/>
      </defs>
      <use xlink:href="#DejaVuSans-57"/>
      <use xlink:href="#DejaVuSans-4c" transform="translate(39.203125 0)"/>
      <use xlink:href="#DejaVuSans-50" transform="translate(66.984375 0)"/>
      <use xlink:href="#DejaVuSans-48" transform="translate(164.390625 0)"/>
      <use xlink:href="#DejaVuSans-3" transform="translate(225.921875 0)"/>
      <use xlink:href="#DejaVuSans-3e" transform="translate(257.703125 0)"/>
      <use xlink:href="#DejaVuSans-56" transform="translate(296.71875 0)"/>
      <use xlink:href="#DejaVuSans-40" transform="translate(348.8125 0)"/>
     </g>
    </g>
   </g>
   <g id="matplotlib.axis_2">
    <g id="ytick_1">
     <g id="line2d_13">
      <path d="M 44.845313 235.584157 
L 561.6 235.584157 
" clip-path="url(#p4add93e877)" style="fill: none; stroke-dasharray: 2.96,1.28; stroke-dashoffset: 0; stroke: #7f7f7f; stroke-opacity: 0.6; stroke-width: 0.8"/>
     </g>
     <g id="line2d_14">
      <defs>
       <path id="mf26bf75cb7" d="M 0 0 
L -3.5 0 
" style="stroke: #7f7f7f; stroke-width: 1.8"/>
      </defs>
      <g>
       <use xlink:href="#mf26bf75cb7" x="44.845313" y="235.584157" style="fill: #7f7f7f; stroke: #7f7f7f; stroke-width: 1.8"/>
      </g>
     </g>
     <g id="text_8">
      <!-- −0.20 -->
      <g style="fill: #7f7f7f" transform="translate(7.2 239.382985) scale(0.1 -0.1)">
       <defs>
        <path id="DejaVuSans-c9c" d="M 678 2272 
L 4684 2272 
L 4684 1741 
L 678 1741 
L 678 2272 
z
" transform="scale(0.015625)"/>
        <path id="DejaVuSans-11" d="M 684 794 
L 1344 794 
L 1344 0 
L 684 0 
L 684 794 
z
" transform="scale(0.015625)"/>
       </defs>
       <use xlink:href="#DejaVuSans-c9c"/>
       <use xlink:href="#DejaVuSans-13" transform="translate(83.796875 0)"/>
       <use xlink:href="#DejaVuSans-11" transform="translate(147.421875 0)"/>
       <use xlink:href="#DejaVuSans-15" transform="translate(179.203125 0)"/>
       <use xlink:href="#DejaVuSans-13" transform="translate(242.828125 0)"/>
      </g>
     </g>
    </g>
    <g id="ytick_2">
     <g id="line2d_15">
      <path d="M 44.845313 202.630567 
L 561.6 202.630567 
" clip-path="url(#p4add93e877)" style="fill: none; stroke-dasharray: 2.96,1.28; stroke-dashoffset: 0; stroke: #7f7f7f; stroke-opacity: 0.6; stroke-width: 0.8"/>
     </g>
     <g id="line2d_16">
      <g>
       <use xlink:href="#mf26bf75cb7" x="44.845313" y="202.630567" style="fill: #7f7f7f; stroke: #7f7f7f; stroke-width: 1.8"/>
      </g>
     </g>
     <g id="text_9">
      <!-- −0.15 -->
      <g style="fill: #7f7f7f" transform="translate(7.2 206.429395) scale(0.1 -0.1)">
       <defs>
        <path id="DejaVuSans-18" d="M 691 4666 
L 3169 4666 
L 3169 4134 
L 1269 4134 
L 1269 2991 
Q 1406 3038 1543 3061 
Q 1681 3084 1819 3084 
Q 2600 3084 3056 2656 
Q 3513 2228 3513 1497 
Q 3513 744 3044 326 
Q 2575 -91 1722 -91 
Q 1428 -91 1123 -41 
Q 819 9 494 109 
L 494 744 
Q 775 591 1075 516 
Q 1375 441 1709 441 
Q 2250 441 2565 725 
Q 2881 1009 2881 1497 
Q 2881 1984 2565 2268 
Q 2250 2553 1709 2553 
Q 1456 2553 1204 2497 
Q 953 2441 691 2322 
L 691 4666 
z
" transform="scale(0.015625)"/>
       </defs>
       <use xlink:href="#DejaVuSans-c9c"/>
       <use xlink:href="#DejaVuSans-13" transform="translate(83.796875 0)"/>
       <use xlink:href="#DejaVuSans-11" transform="translate(147.421875 0)"/>
       <use xlink:href="#DejaVuSans-14" transform="translate(179.203125 0)"/>
       <use xlink:href="#DejaVuSans-18" transform="translate(242.828125 0)"/>
      </g>
     </g>
    </g>
    <g id="ytick_3">
     <g id="line2d_17">
      <path d="M 44.845313 169.676976 
L 561.6 169.676976 
" clip-path="url(#p4add93e877)" style="fill: none; stroke-dasharray: 2.96,1.28; stroke-dashoffset: 0; stroke: #7f7f7f; stroke-opacity: 0.6; stroke-width: 0.8"/>
     </g>
     <g id="line2d_18">
      <g>
       <use xlink:href="#mf26bf75cb7" x="44.845313" y="169.676976" style="fill: #7f7f7f; stroke: #7f7f7f; stroke-width: 1.8"/>
      </g>
     </g>
     <g id="text_10">
      <!-- −0.10 -->
      <g style="fill: #7f7f7f" transform="translate(7.2 173.475804) scale(0.1 -0.1)">
       <use xlink:href="#DejaVuSans-c9c"/>
       <use xlink:href="#DejaVuSans-13" transform="translate(83.796875 0)"/>
       <use xlink:href="#DejaVuSans-11" transform="translate(147.421875 0)"/>
       <use xlink:href="#DejaVuSans-14" transform="translate(179.203125 0)"/>
       <use xlink:href="#DejaVuSans-13" transform="translate(242.828125 0)"/>
      </g>
     </g>
    </g>
    <g id="ytick_4">
     <g id="line2d_19">
      <path d="M 44.845313 136.723386 
L 561.6 136.723386 
" clip-path="url(#p4add93e877)" style="fill: none; stroke-dasharray: 2.96,1.28; stroke-dashoffset: 0; stroke: #7f7f7f; stroke-opacity: 0.6; stroke-width: 0.8"/>
     </g>
     <g id="line2d_20">
      <g>
       <use xlink:href="#mf26bf75cb7" x="44.845313" y="136.723386" style="fill: #7f7f7f; stroke: #7f7f7f; stroke-width: 1.8"/>
      </g>
     </g>
     <g id="text_11">
      <!-- −0.05 -->
      <g style="fill: #7f7f7f" transform="translate(7.2 140.522214) scale(0.1 -0.1)">
       <use xlink:href="#DejaVuSans-c9c"/>
       <use xlink:href="#DejaVuSans-13" transform="translate(83.796875 0)"/>
       <use xlink:href="#DejaVuSans-11" transform="translate(147.421875 0)"/>
       <use xlink:href="#DejaVuSans-13" transform="translate(179.203125 0)"/>
       <use xlink:href="#DejaVuSans-18" transform="translate(242.828125 0)"/>
      </g>
     </g>
    </g>
    <g id="ytick_5">
     <g id="line2d_21">
      <path d="M 44.845313 103.769795 
L 561.6 103.769795 
" clip-path="url(#p4add93e877)" style="fill: none; stroke-dasharray: 2.96,1.28; stroke-dashoffset: 0; stroke: #7f7f7f; stroke-opacity: 0.6; stroke-width: 0.8"/>
     </g>
     <g id="line2d_22">
      <g>
       <use xlink:href="#mf26bf75cb7" x="44.845313" y="103.769795" style="fill: #7f7f7f; stroke: #7f7f7f; stroke-width: 1.8"/>
      </g>
     </g>
     <g id="text_12">
      <!-- 0.00 -->
      <g style="fill: #7f7f7f" transform="translate(15.579688 107.568623) scale(0.1 -0.1)">
       <use xlink:href="#DejaVuSans-13"/>
       <use xlink:href="#DejaVuSans-11" transform="translate(63.625 0)"/>
       <use xlink:href="#DejaVuSans-13" transform="translate(95.40625 0)"/>
       <use xlink:href="#DejaVuSans-13" transform="translate(159.03125 0)"/>
      </g>
     </g>
    </g>
    <g id="ytick_6">
     <g id="line2d_23">
      <path d="M 44.845313 70.816205 
L 561.6 70.816205 
" clip-path="url(#p4add93e877)" style="fill: none; stroke-dasharray: 2.96,1.28; stroke-dashoffset: 0; stroke: #7f7f7f; stroke-opacity: 0.6; stroke-width: 0.8"/>
     </g>
     <g id="line2d_24">
      <g>
       <use xlink:href="#mf26bf75cb7" x="44.845313" y="70.816205" style="fill: #7f7f7f; stroke: #7f7f7f; stroke-width: 1.8"/>
      </g>
     </g>
     <g id="text_13">
      <!-- 0.05 -->
      <g style="fill: #7f7f7f" transform="translate(15.579688 74.615033) scale(0.1 -0.1)">
       <use xlink:href="#DejaVuSans-13"/>
       <use xlink:href="#DejaVuSans-11" transform="translate(63.625 0)"/>
       <use xlink:href="#DejaVuSans-13" transform="translate(95.40625 0)"/>
       <use xlink:href="#DejaVuSans-18" transform="translate(159.03125 0)"/>
      </g>
     </g>
    </g>
    <g id="ytick_7">
     <g id="line2d_25">
      <path d="M 44.845313 37.862614 
L 561.6 37.862614 
" clip-path="url(#p4add93e877)" style="fill: none; stroke-dasharray: 2.96,1.28; stroke-dashoffset: 0; stroke: #7f7f7f; stroke-opacity: 0.6; stroke-width: 0.8"/>
     </g>
     <g id="line2d_26">
      <g>
       <use xlink:href="#mf26bf75cb7" x="44.845313" y="37.862614" style="fill: #7f7f7f; stroke: #7f7f7f; stroke-width: 1.8"/>
      </g>
     </g>
     <g id="text_14">
      <!-- 0.10 -->
      <g style="fill: #7f7f7f" transform="translate(15.579688 41.661442) scale(0.1 -0.1)">
       <use xlink:href="#DejaVuSans-13"/>
       <use xlink:href="#DejaVuSans-11" transform="translate(63.625 0)"/>
       <use xlink:href="#DejaVuSans-14" transform="translate(95.40625 0)"/>
       <use xlink:href="#DejaVuSans-13" transform="translate(159.03125 0)"/>
      </g>
     </g>
    </g>
   </g>
   <g id="line2d_27">
    <path d="M 68.334162 103.769795 
L 68.522886 109.890811 
L 68.448445 95.965426 
L 69.319443 104.27558 
L 69.592656 102.292164 
L 69.885442 103.612267 
L 71.045073 105.709793 
L 72.254272 103.121739 
L 72.654214 103.810186 
L 73.426306 104.259425 
L 73.781279 101.712264 
L 74.490611 101.812786 
L 74.845392 105.149614 
L 75.518987 102.410978 
L 75.886314 105.323754 
L 76.608055 103.902084 
L 78.465095 102.576904 
L 78.865904 101.717604 
L 79.161503 107.133217 
L 79.754817 102.534175 
L 80.817074 105.004955 
L 81.199719 102.972974 
L 81.590677 103.631054 
L 82.064617 105.133421 
L 82.397793 100.558863 
L 83.040859 103.864316 
L 83.416005 105.616983 
L 83.785241 103.579656 
L 84.493937 104.530943 
L 84.781982 100.048174 
L 85.338564 105.534218 
L 85.98758 103.569837 
L 87.551811 101.728424 
L 88.242277 100.361543 
L 88.551605 103.422294 
L 88.926541 102.085533 
L 89.225034 107.182693 
L 89.85282 106.05168 
L 91.021942 102.937066 
L 91.767758 106.499263 
L 92.453129 105.556351 
L 93.543383 102.300632 
L 94.295031 103.167497 
L 94.70466 104.137236 
L 95.04443 101.55959 
L 95.329122 106.777871 
L 95.613447 101.72211 
L 95.879279 103.114327 
L 96.146066 98.608748 
L 96.655574 106.027112 
L 96.877754 110.389437 
L 97.087837 105.316705 
L 97.362904 106.105393 
L 97.649355 101.6982 
L 98.473849 102.998295 
L 98.912555 103.239272 
L 99.274067 105.115465 
L 99.640561 104.659096 
L 100.041755 103.456809 
L 100.434095 105.302623 
L 100.74479 108.095826 
L 101.798152 100.385586 
L 103.527961 104.150772 
L 104.819925 102.014048 
L 105.129156 107.696787 
L 105.812537 103.962846 
L 106.72889 104.249336 
L 107.101036 106.764386 
L 107.398889 101.741521 
L 108.109886 104.905121 
L 108.418027 107.199622 
L 108.709703 102.972834 
L 109.375113 105.474593 
L 110.118977 103.955679 
L 110.458233 101.316439 
L 110.783916 104.573209 
L 111.949507 102.740739 
L 112.268731 106.866788 
L 112.893679 103.928697 
L 113.292035 101.860715 
L 114.065103 102.948151 
L 114.439613 101.57024 
L 114.797366 104.681754 
L 115.069071 98.665292 
L 115.318696 103.208747 
L 115.611122 102.855496 
L 116.360684 104.732452 
L 116.773904 102.966495 
L 117.197109 104.253996 
L 119.406919 105.798767 
L 120.2315 102.44593 
L 120.63123 103.427675 
L 121.107579 104.082375 
L 121.475211 101.564546 
L 121.825353 102.043534 
L 122.137477 106.258716 
L 122.768461 105.639116 
L 123.075384 101.867669 
L 123.364713 106.016994 
L 123.635227 104.530719 
L 124.421256 101.829227 
L 124.77765 103.634417 
L 125.548315 101.822842 
L 126.671157 104.884946 
L 127.083985 102.818333 
L 127.43837 105.728747 
L 127.790327 104.352118 
L 128.674219 103.882147 
L 129.066292 106.190507 
L 129.426296 103.811112 
L 129.793045 101.775052 
L 130.547351 102.632026 
L 130.960746 102.737973 
L 131.404667 104.543443 
L 131.777595 101.754187 
L 132.141703 105.45857 
L 133.596187 101.586583 
L 133.924174 101.956868 
L 134.787493 106.648148 
L 134.540351 100.765484 
L 135.050624 105.535541 
L 135.372971 101.473108 
L 136.053483 103.671956 
L 136.958478 102.559805 
L 137.72309 107.220151 
L 138.43979 105.228219 
L 138.795291 102.130976 
L 139.148146 103.121729 
L 139.54703 105.257902 
L 139.925616 102.770296 
L 140.251767 101.07251 
L 140.530874 106.162121 
L 141.137243 104.994131 
L 141.464306 101.847344 
L 142.189737 102.587841 
L 142.951747 101.593598 
L 143.700269 105.298463 
L 144.876234 101.387116 
L 145.173956 106.118219 
L 145.799221 105.777938 
L 146.453986 101.940774 
L 146.791953 105.15928 
L 147.117096 105.62833 
L 147.412416 101.43018 
L 148.096183 101.550494 
L 148.858069 103.945073 
L 149.246185 101.601624 
L 149.615147 105.317939 
L 149.95189 103.608564 
L 150.316618 105.868284 
L 151.424207 104.737837 
L 152.717632 101.494799 
L 153.68871 106.049971 
L 153.388504 100.917334 
L 153.960628 104.863981 
L 154.3439 105.15161 
L 155.99021 100.652071 
L 155.06187 106.247249 
L 156.274289 101.250013 
L 156.575651 101.83257 
L 156.909157 105.707376 
L 157.541532 104.674318 
L 157.893205 103.273119 
L 158.833259 107.388318 
L 160.099426 102.436792 
L 160.411985 101.619679 
L 160.722063 103.567784 
L 161.143521 102.47075 
L 161.548477 102.171357 
L 161.942829 103.490782 
L 162.082043 103.261031 
L 162.289555 81.071466 
L 162.288941 115.456801 
L 162.28966 110.174074 
L 162.289757 17.854506 
L 162.29253 126.752575 
L 163.188793 90.255814 
L 163.327158 97.481197 
L 164.253585 95.768561 
L 165.115783 90.102958 
L 165.278957 91.691692 
L 165.644483 96.543147 
L 166.249951 96.190259 
L 166.475455 93.188364 
L 166.924665 98.644926 
L 167.479221 97.985193 
L 168.050602 95.758446 
L 168.686186 101.506478 
L 169.790641 97.78062 
L 170.12771 100.829186 
L 170.928151 100.06572 
L 172.117585 102.887556 
L 173.298703 98.973511 
L 173.670715 100.643815 
L 174.07967 98.039184 
L 174.447811 96.685476 
L 175.86268 101.350713 
L 177.272409 101.081413 
L 177.6426 97.980615 
L 177.982884 103.542157 
L 180.341368 98.438577 
L 180.713247 101.603859 
L 181.212802 101.222755 
L 181.631809 99.932876 
L 182.014136 100.562543 
L 182.421994 103.727488 
L 182.756934 98.446976 
L 183.519806 101.240812 
L 183.977571 100.647076 
L 184.741334 99.118371 
L 185.077188 105.144273 
L 185.45141 100.381809 
L 186.264177 101.113178 
L 186.686567 100.656177 
L 187.093443 101.379692 
L 188.552753 103.929576 
L 189.778248 100.371249 
L 190.591396 103.423633 
L 191.168815 102.102716 
L 191.598958 101.379176 
L 191.997847 102.143686 
L 192.450339 104.636086 
L 192.889431 104.006215 
L 193.358519 102.070874 
L 193.797202 105.725444 
L 194.220474 103.643667 
L 194.761127 103.584659 
L 195.165274 104.963707 
L 195.56807 104.305876 
L 196.063554 103.647994 
L 196.384289 98.726075 
L 196.700511 107.24616 
L 197.739897 101.096605 
L 198.083216 103.341178 
L 199.721203 102.741323 
L 200.218228 103.845447 
L 200.553815 99.671334 
L 201.248584 100.145621 
L 201.978489 106.331484 
L 202.319552 103.671867 
L 203.402177 104.244291 
L 203.782349 102.25442 
L 204.160653 107.56627 
L 204.524023 104.182408 
L 205.032292 104.787761 
L 205.886992 101.214126 
L 206.236341 105.546122 
L 206.627199 104.020845 
L 207.050495 101.714234 
L 207.457267 103.863808 
L 207.955085 104.454153 
L 208.418246 103.073863 
L 208.888179 103.924125 
L 209.361382 103.50256 
L 210.127306 103.314186 
L 210.472933 107.146238 
L 210.814112 102.987808 
L 211.663863 103.466006 
L 212.184113 103.396467 
L 212.549454 105.856152 
L 213.399792 105.516827 
L 213.85543 103.200217 
L 214.224192 106.131361 
L 214.588942 105.979806 
L 214.986351 102.899048 
L 215.434623 103.809536 
L 215.921369 103.706313 
L 216.452772 104.745676 
L 217.77878 102.31112 
L 218.207708 105.903713 
L 218.612198 104.347021 
L 219.649206 104.641411 
L 220.029523 102.546105 
L 220.408368 107.24601 
L 220.781274 104.630385 
L 222.066079 102.40744 
L 222.451593 104.159561 
L 222.86191 102.583779 
L 223.270258 102.461047 
L 223.603231 106.86003 
L 223.932415 104.765006 
L 224.823032 105.33975 
L 225.294702 102.103953 
L 227.065184 106.396165 
L 229.369852 102.73138 
L 229.820653 105.000911 
L 230.326842 103.185047 
L 233.419213 106.53239 
L 234.18838 101.515326 
L 234.563709 103.612658 
L 235.617476 101.967769 
L 236.494347 104.566821 
L 236.93466 103.145091 
L 237.462007 103.510546 
L 238.407644 104.524823 
L 238.852348 101.793716 
L 239.273952 105.352239 
L 239.722756 103.517446 
L 240.1507 104.794105 
L 240.576109 104.363188 
L 241.03196 105.326762 
L 241.394515 108.769665 
L 241.727321 103.919425 
L 243.138444 103.503495 
L 244.639254 103.287734 
L 245.092064 104.011624 
L 245.561669 102.897546 
L 246.940294 105.490088 
L 248.154725 101.018401 
L 248.538685 102.615234 
L 250.397072 104.794313 
L 250.798844 102.954127 
L 251.127061 107.979402 
L 251.450478 101.902054 
L 252.208331 104.226731 
L 253.116292 103.742554 
L 253.542783 103.574865 
L 253.969019 104.861359 
L 254.426008 102.231231 
L 254.877442 104.670414 
L 256.167492 105.315791 
L 256.589546 102.936486 
L 257.047143 105.103226 
L 257.492408 104.905721 
L 257.943893 102.360357 
L 258.358464 103.593507 
L 260.482446 102.338007 
L 262.101001 105.77923 
L 262.912692 101.495055 
L 263.297057 103.463557 
L 264.207006 104.069302 
L 264.61917 102.810774 
L 265.035863 104.61653 
L 265.882035 103.752812 
L 266.691574 105.714292 
L 268.305401 101.67806 
L 269.049985 102.20086 
L 269.482956 101.11203 
L 269.891745 103.403939 
L 270.44484 103.014452 
L 270.804203 100.604069 
L 271.160343 108.615191 
L 271.8707 102.189964 
L 273.066646 104.41066 
L 273.456717 103.517082 
L 273.881359 103.200004 
L 274.270113 104.301205 
L 274.661311 101.484986 
L 275.063203 107.400301 
L 275.877721 105.635238 
L 276.264613 103.597665 
L 276.658024 104.168593 
L 276.999756 107.579116 
L 277.337962 102.803412 
L 277.694614 100.36937 
L 278.027665 105.096485 
L 278.847094 104.379018 
L 279.668293 104.532038 
L 281.987905 102.288563 
L 282.442991 105.338963 
L 282.865287 104.747073 
L 284.667782 101.206784 
L 285.057802 101.852218 
L 286.250872 105.610692 
L 288.506869 102.941061 
L 289.754328 106.0161 
L 290.17219 102.410308 
L 291.077759 103.130432 
L 291.543247 104.869925 
L 292.779608 100.555925 
L 294.011699 106.149481 
L 295.310964 103.092985 
L 296.199068 102.72579 
L 296.622498 105.104946 
L 297.065256 102.123061 
L 297.513937 105.053799 
L 298.291354 106.096157 
L 298.691903 100.426014 
L 299.054348 105.426416 
L 299.424177 105.557683 
L 301.039217 101.243606 
L 301.424518 104.275332 
L 301.861428 104.061007 
L 302.226643 101.496189 
L 303.024194 102.593825 
L 304.23292 105.097575 
L 304.644389 103.309231 
L 305.031838 101.728454 
L 305.422749 105.560263 
L 305.840486 101.901457 
L 306.705329 105.173414 
L 307.128192 103.673904 
L 307.480943 103.250153 
L 307.835488 104.625445 
L 308.272886 104.507715 
L 308.710991 103.251776 
L 309.060619 106.710565 
L 309.406408 102.881433 
L 309.84013 102.210087 
L 310.628037 104.425877 
L 311.01937 102.297772 
L 311.444366 102.756714 
L 312.672706 104.705886 
L 313.876826 102.509083 
L 314.638809 105.918463 
L 314.997727 101.700058 
L 315.387615 107.341764 
L 315.766168 104.069042 
L 316.937545 103.090976 
L 317.374203 103.662642 
L 317.830836 102.80282 
L 318.19889 101.622463 
L 318.57328 107.233974 
L 318.93025 100.795319 
L 319.300631 104.450622 
L 319.787757 102.978241 
L 320.136265 106.396535 
L 320.865308 104.787136 
L 321.274586 105.631018 
L 321.688069 102.60964 
L 322.391338 104.238133 
L 322.783429 102.982517 
L 323.153524 105.593042 
L 323.521737 102.624073 
L 323.893392 104.835535 
L 324.267812 100.778888 
L 324.643338 103.956991 
L 325.048827 106.314171 
L 325.425656 103.234057 
L 326.257222 102.915665 
L 327.600694 105.334805 
L 328.026556 101.987728 
L 328.890258 102.459979 
L 329.743309 104.902705 
L 330.156962 103.246742 
L 330.51382 101.02864 
L 331.270924 102.110894 
L 331.677352 102.509894 
L 332.000349 107.352249 
L 332.75246 103.890783 
L 334.741645 105.151843 
L 335.187742 103.207984 
L 335.950742 103.870261 
L 336.307173 103.828912 
L 336.700145 102.3555 
L 337.091091 103.569094 
L 337.516783 103.314499 
L 337.86365 105.254985 
L 338.212096 102.594514 
L 338.617733 101.892864 
L 339.432786 104.711656 
L 339.8685 103.939583 
L 340.311721 103.907162 
L 340.631479 98.715486 
L 340.947068 103.477951 
L 341.71352 105.751943 
L 342.100692 104.331225 
L 342.442215 101.116166 
L 342.781168 106.148041 
L 343.150417 103.12522 
L 343.586316 101.847444 
L 344.825867 105.644724 
L 345.630846 103.231245 
L 346.014518 103.517125 
L 346.40412 103.451303 
L 346.788234 101.862583 
L 347.169743 105.371539 
L 347.879305 102.777228 
L 349.158149 104.836493 
L 349.596094 105.621918 
L 349.962157 108.989643 
L 350.199263 99.24116 
L 350.200239 30.077099 
L 350.200823 230.944634 
L 351.01322 105.205155 
L 351.356894 111.038927 
L 352.140153 108.79694 
L 352.55376 109.52882 
L 352.932024 108.280221 
L 353.733938 107.389759 
L 354.156403 106.724358 
L 354.553967 108.486722 
L 354.920963 106.389791 
L 355.35767 106.1865 
L 355.769546 107.626671 
L 356.524639 102.192974 
L 357.208265 109.467693 
L 357.548231 105.841401 
L 358.022257 103.970156 
L 358.479373 104.690227 
L 360.306085 106.32382 
L 360.723744 108.623204 
L 361.101842 103.304191 
L 361.551326 106.084892 
L 361.971776 106.406158 
L 362.377652 103.997698 
L 363.065623 110.099098 
L 363.401709 106.199359 
L 365.227013 106.961422 
L 365.611462 101.001418 
L 366.333579 104.54647 
L 367.202039 107.09358 
L 368.022542 105.44367 
L 368.959736 103.231086 
L 369.365292 104.471514 
L 369.884614 104.340936 
L 370.230543 107.465996 
L 370.572458 104.808894 
L 370.899631 100.865379 
L 371.223654 105.192648 
L 371.596843 105.154581 
L 372.009827 100.99892 
L 372.396115 104.774808 
L 372.779972 106.403229 
L 373.138418 103.236778 
L 373.602645 105.067575 
L 374.047424 105.474688 
L 374.471412 104.193423 
L 375.360653 104.525102 
L 375.704905 107.875002 
L 376.045017 105.097337 
L 376.398356 102.470849 
L 376.753388 106.013771 
L 377.13695 104.31445 
L 377.532631 105.827544 
L 377.924973 102.098542 
L 378.329507 105.777673 
L 378.704606 107.274964 
L 379.429695 100.891108 
L 379.786049 102.810325 
L 380.104064 107.913833 
L 380.82086 105.483429 
L 381.265613 106.399276 
L 381.669261 103.316855 
L 382.158947 104.844922 
L 382.608233 105.392685 
L 383.439636 102.037585 
L 383.838769 104.890747 
L 384.283524 102.800214 
L 385.765469 104.768811 
L 386.242894 103.537655 
L 386.858561 103.891793 
L 388.527091 105.797729 
L 388.934191 102.717962 
L 389.382791 105.773061 
L 389.775609 106.648572 
L 390.582568 103.00886 
L 391.002519 103.407535 
L 391.517707 104.132367 
L 392.065334 103.488683 
L 392.460517 102.166049 
L 392.85332 102.578154 
L 393.29971 104.555088 
L 393.767465 101.914992 
L 394.696286 102.299712 
L 396.320645 105.084645 
L 397.145679 104.322489 
L 398.031915 102.332129 
L 398.429056 103.576295 
L 399.014007 103.805075 
L 399.440163 102.530347 
L 399.851276 103.009819 
L 400.321571 103.601348 
L 400.718218 102.083668 
L 401.495324 106.649848 
L 402.665018 102.443215 
L 403.126504 104.954871 
L 403.629422 103.041342 
L 403.987123 100.941195 
L 404.341915 102.972348 
L 405.338849 103.863763 
L 406.395422 103.479831 
L 406.751747 100.907062 
L 407.104815 101.503078 
L 407.831709 107.01137 
L 408.589786 105.522121 
L 408.926704 101.369927 
L 409.639289 102.980411 
L 409.966342 107.325258 
L 410.289582 104.835796 
L 410.741929 104.133531 
L 411.295667 104.616435 
L 411.72606 105.852201 
L 412.440454 99.702141 
L 412.762962 106.173084 
L 413.497177 101.228905 
L 414.227131 100.842521 
L 414.593895 104.784664 
L 415.835987 101.016946 
L 416.18074 103.416108 
L 417.717621 102.024964 
L 418.109329 103.050998 
L 420.98318 106.570376 
L 421.370437 101.812313 
L 422.15197 103.601396 
L 422.56787 102.32844 
L 422.980211 104.245877 
L 423.468778 103.251396 
L 423.868584 104.847059 
L 424.267406 102.370742 
L 425.123494 101.848576 
L 425.54584 105.155592 
L 425.965573 102.324203 
L 427.276144 104.379698 
L 428.121961 101.771938 
L 428.494252 104.594742 
L 428.941633 104.413492 
L 429.391462 102.883573 
L 429.882873 103.641253 
L 430.363717 103.24591 
L 430.75978 104.962604 
L 431.153937 102.18717 
L 431.5874 102.914189 
L 432.035277 105.637571 
L 432.450751 104.003029 
L 432.802572 101.301216 
L 433.151545 103.337932 
L 433.585219 103.786601 
L 434.027073 101.692313 
L 434.454184 105.179652 
L 435.348385 104.803745 
L 435.768154 105.593111 
L 437.125589 103.399944 
L 437.960754 106.037605 
L 438.337626 102.221468 
L 439.15946 102.695099 
L 439.523817 104.978936 
L 439.899307 103.131544 
L 440.748022 103.335392 
L 441.115566 106.00431 
L 441.471062 103.317042 
L 441.928156 103.462081 
L 442.317096 102.277006 
L 443.158527 102.745293 
L 443.588131 102.620069 
L 444.02447 105.663778 
L 444.435989 100.973357 
L 444.836996 105.206476 
L 445.200866 104.854557 
L 445.566622 105.932197 
L 445.964011 99.706777 
L 446.322411 102.505724 
L 446.643289 107.345472 
L 447.336068 104.569298 
L 448.628928 102.789999 
L 449.018286 103.263136 
L 449.754782 100.861466 
L 451.334565 107.080112 
L 451.687303 107.496841 
L 452.052953 102.343493 
L 452.876669 104.830763 
L 453.763675 101.357588 
L 454.154071 103.797908 
L 454.598448 104.243517 
L 455.035675 103.287981 
L 455.439547 102.95565 
L 455.849508 100.898351 
L 456.221952 103.334953 
L 456.724221 103.158218 
L 457.902414 106.190209 
L 458.296862 100.521089 
L 459.04342 102.89388 
L 459.458703 105.160577 
L 459.905955 102.871474 
L 460.359458 103.196748 
L 460.720773 100.988111 
L 461.079379 104.119249 
L 461.535376 103.899635 
L 462.322091 107.514892 
L 462.690098 104.386862 
L 463.097837 102.642368 
L 463.466161 104.43755 
L 464.266851 102.912504 
L 465.06822 106.218471 
L 465.435259 105.809998 
L 466.723081 101.778468 
L 467.130281 105.624187 
L 467.549601 103.963673 
L 468.028545 104.240772 
L 469.076704 100.060441 
L 469.810767 104.76812 
L 470.202813 104.634429 
L 470.56197 101.474164 
L 470.915998 106.354866 
L 471.280427 103.921995 
L 473.188604 102.815491 
L 473.534331 106.19572 
L 474.289044 104.957828 
L 474.708228 101.966476 
L 475.109494 104.95697 
L 475.563336 103.159985 
L 476.730325 106.53917 
L 477.520998 102.057239 
L 477.905328 102.843579 
L 478.309426 104.49312 
L 479.032883 103.635496 
L 479.486687 102.606518 
L 479.968846 103.563006 
L 480.437726 105.218611 
L 480.866984 102.645237 
L 481.257611 103.141941 
L 481.61158 106.121007 
L 482.323254 103.775161 
L 482.694236 104.259441 
L 483.545149 101.421733 
L 483.91399 105.12828 
L 484.325879 103.720419 
L 484.819251 102.9937 
L 485.313487 104.245332 
L 485.831971 103.466491 
L 486.30542 102.022631 
L 486.733517 105.557841 
L 487.138874 102.604618 
L 489.061605 105.731203 
L 490.288741 102.866852 
L 490.773823 102.372493 
L 491.618553 105.37743 
L 492.027373 102.80385 
L 492.453102 105.166945 
L 493.244001 103.819515 
L 493.647596 105.834436 
L 494.068078 104.150688 
L 495.770806 102.302503 
L 496.201448 102.898285 
L 496.59922 105.853038 
L 497.45052 104.861664 
L 498.338908 102.606166 
L 498.744299 103.404948 
L 500.007034 105.966429 
L 500.425764 102.396198 
L 500.865869 104.872389 
L 501.362147 103.438167 
L 501.937704 103.872698 
L 502.337022 105.173692 
L 503.131883 101.387982 
L 503.914197 101.544484 
L 504.294603 104.739973 
L 505.049658 104.318801 
L 505.799969 100.451233 
L 506.142843 103.637165 
L 506.551025 105.134277 
L 506.92437 102.332502 
L 507.295975 102.751908 
L 507.669603 104.623833 
L 508.091441 101.481696 
L 508.409555 107.842985 
L 508.723024 104.578515 
L 509.974772 102.273975 
L 511.586311 106.422262 
L 513.192998 101.947034 
L 514.51471 105.261388 
L 515.234992 101.751165 
L 515.622197 101.926086 
L 516.385241 105.127622 
L 516.773966 104.181239 
L 517.563682 99.879855 
L 519.086947 106.028737 
L 519.875615 103.097068 
L 520.257239 103.7057 
L 521.039142 107.119512 
L 521.413204 101.438118 
L 521.781625 103.636715 
L 522.143489 106.545734 
L 522.491821 102.74614 
L 522.896854 101.216012 
L 523.272227 103.136743 
L 523.685556 105.276326 
L 524.091632 104.91657 
L 524.894143 101.650838 
L 525.266131 106.510795 
L 525.638498 104.019547 
L 526.039197 101.859356 
L 526.402877 102.5807 
L 527.776258 104.041794 
L 528.174689 103.705357 
L 528.581366 102.212216 
L 529.008274 104.867832 
L 529.48655 103.786717 
L 530.827479 104.738291 
L 532.073197 102.740556 
L 532.488452 103.839575 
L 532.899429 103.257383 
L 533.363279 102.522864 
L 534.11303 105.710936 
L 534.943743 102.155515 
L 535.351242 105.711454 
L 535.760551 103.295927 
L 536.155087 102.577518 
L 536.583729 106.181779 
L 536.990102 102.547103 
L 537.438561 102.186218 
L 537.846045 104.692887 
L 538.111151 103.951465 
" clip-path="url(#p4add93e877)" style="fill: none; stroke: #e41a1c; stroke-width: 2; stroke-linecap: square"/>
   </g>
   <g id="line2d_28">
    <path d="M 68.334162 103.769795 
L 68.522886 105.322784 
L 68.448445 101.747329 
L 69.319443 103.564884 
L 69.592656 102.918631 
L 69.885442 103.219854 
L 71.815719 104.62 
L 73.017364 104.533697 
L 73.781279 103.673206 
L 75.518987 103.168169 
L 76.226537 104.192848 
L 76.608055 103.944686 
L 84.493937 104.013168 
L 84.781982 102.491905 
L 85.338564 104.104939 
L 86.781913 103.397897 
L 87.908766 102.882853 
L 88.926541 101.840235 
L 89.85282 103.564328 
L 91.021942 102.682626 
L 91.428482 103.084973 
L 92.803196 104.227939 
L 93.543383 103.177387 
L 93.916987 103.891507 
L 95.04443 102.807703 
L 95.329122 104.42105 
L 95.879279 103.226835 
L 96.146066 101.579526 
L 96.655574 103.646344 
L 96.877754 105.291714 
L 97.362904 104.634574 
L 98.198962 103.282907 
L 98.473849 103.484195 
L 100.041755 103.783436 
L 100.74479 105.69964 
L 101.260841 104.909832 
L 102.054846 103.115891 
L 102.342035 103.647576 
L 104.819925 102.201822 
L 105.129156 104.066962 
L 105.812537 103.265862 
L 106.72889 103.406927 
L 107.101036 104.469194 
L 107.398889 103.005664 
L 108.109886 103.824626 
L 109.375113 104.523721 
L 110.458233 103.247148 
L 111.118076 104.171273 
L 114.065103 103.667067 
L 115.069071 101.862147 
L 115.611122 102.713187 
L 117.197109 103.240686 
L 119.789189 104.286183 
L 121.825353 103.029253 
L 122.768461 104.352871 
L 123.075384 103.200475 
L 123.635227 104.191469 
L 125.548315 102.688729 
L 126.671157 103.734301 
L 127.083985 103.069924 
L 127.790327 103.803626 
L 128.674219 103.744151 
L 129.066292 104.692366 
L 129.426296 104.122895 
L 130.960746 103.10267 
L 133.26555 104.473284 
L 134.540351 102.767969 
L 134.787493 104.484747 
L 135.663616 103.600645 
L 137.394522 103.677031 
L 138.43979 104.550352 
L 138.795291 103.566063 
L 139.148146 103.718479 
L 139.54703 104.481179 
L 139.925616 103.725395 
L 140.251767 102.959859 
L 140.530874 104.466036 
L 140.823668 103.625163 
L 141.137243 104.251125 
L 141.464306 103.232455 
L 141.770465 103.636421 
L 143.296004 103.071353 
L 144.520747 103.735528 
L 144.876234 102.728477 
L 145.173956 104.159941 
L 145.479788 103.279889 
L 145.799221 104.230498 
L 146.101708 103.635936 
L 146.453986 103.00295 
L 146.791953 103.975284 
L 147.117096 104.332067 
L 148.096183 102.678327 
L 148.858069 103.314302 
L 149.246185 102.400464 
L 149.95189 103.09115 
L 151.424207 104.305961 
L 152.717632 102.99352 
L 153.68871 104.166183 
L 153.388504 102.642989 
L 153.960628 103.995148 
L 155.06187 104.908182 
L 155.398946 104.035853 
L 156.575651 102.49157 
L 156.909157 103.689112 
L 157.541532 103.452915 
L 157.893205 103.037723 
L 158.833259 105.044074 
L 159.129836 103.921301 
L 159.430801 103.713058 
L 159.778292 104.716947 
L 160.099426 103.748439 
L 161.548477 102.90582 
L 162.082043 103.093273 
L 162.15155 102.221373 
L 162.29253 109.133806 
L 162.289757 82.549718 
L 162.880211 100.371051 
L 164.615088 92.072201 
L 169.063744 81.495389 
L 169.427583 81.718197 
L 170.928151 79.039925 
L 172.905589 76.873296 
L 175.510203 70.869317 
L 175.86268 71.360349 
L 183.977571 61.646663 
L 184.400039 62.410829 
L 185.45141 60.643822 
L 186.264177 60.065077 
L 187.52549 59.324762 
L 189.004412 58.700196 
L 191.168815 56.996601 
L 191.997847 56.323511 
L 192.889431 56.977183 
L 193.358519 56.185335 
L 193.797202 57.427135 
L 194.220474 56.905385 
L 196.063554 57.168446 
L 196.384289 55.326291 
L 196.700511 57.845487 
L 200.218228 56.380391 
L 201.248584 54.213515 
L 201.978489 56.145815 
L 202.319552 55.478921 
L 203.782349 55.007647 
L 204.160653 56.877179 
L 205.032292 56.475721 
L 208.418246 55.640383 
L 211.24377 56.004643 
L 213.85543 56.521657 
L 214.588942 57.874071 
L 214.986351 56.986904 
L 216.94074 57.270603 
L 217.77878 56.512363 
L 219.069903 57.587134 
L 221.678505 58.237963 
L 223.270258 57.179934 
L 223.603231 58.659177 
L 224.379695 57.59529 
L 224.823032 58.503327 
L 225.294702 57.389629 
L 227.44996 59.414036 
L 227.881027 58.965528 
L 228.434524 59.514552 
L 229.820653 59.825247 
L 230.939049 59.361207 
L 234.563709 59.602641 
L 236.93466 59.080767 
L 241.03196 60.077595 
L 241.394515 61.649271 
L 241.727321 60.493645 
L 244.094045 60.324294 
L 246.506611 59.553561 
L 247.761438 60.662656 
L 248.961682 59.316661 
L 250.798844 59.038571 
L 251.127061 60.814138 
L 251.803343 59.175125 
L 253.116292 59.287824 
L 254.877442 59.5371 
L 256.167492 60.481418 
L 256.589546 59.766716 
L 257.047143 60.550376 
L 258.358464 60.122619 
L 261.336446 59.760886 
L 262.101001 60.73254 
L 262.505738 60.276501 
L 262.912692 59.334037 
L 263.297057 59.76618 
L 268.652209 60.190073 
L 270.804203 58.376595 
L 271.160343 61.015371 
L 271.8707 59.516204 
L 274.270113 59.718415 
L 274.661311 58.668451 
L 275.877721 60.723868 
L 276.658024 60.415103 
L 276.999756 61.773657 
L 277.337962 60.48564 
L 278.027665 60.743344 
L 278.415465 59.53836 
L 279.668293 60.679092 
L 285.873446 60.238337 
L 287.040652 60.258734 
L 290.621163 60.056726 
L 293.58104 59.02857 
L 294.011699 60.327507 
L 294.860299 59.75534 
L 296.199068 59.351727 
L 297.915618 60.691168 
L 298.291354 61.063741 
L 298.691903 59.147456 
L 299.054348 60.609881 
L 300.659728 60.640038 
L 301.039217 59.580063 
L 301.424518 60.398081 
L 304.644389 59.853995 
L 305.422749 60.362308 
L 305.840486 59.153245 
L 309.060619 60.914343 
L 309.406408 59.86046 
L 311.444366 59.211108 
L 313.474583 59.641952 
L 314.277339 59.347416 
L 314.997727 58.900016 
L 315.387615 60.836735 
L 316.937545 59.724927 
L 317.830836 59.459499 
L 318.19889 58.852126 
L 318.57328 60.739802 
L 319.300631 59.733957 
L 319.787757 59.21406 
L 321.274586 61.021034 
L 321.688069 60.099656 
L 322.391338 60.538345 
L 323.521737 60.131577 
L 323.893392 60.832746 
L 324.267812 59.39525 
L 324.643338 60.196927 
L 325.048827 61.187786 
L 325.425656 60.358079 
L 326.70903 60.1019 
L 327.600694 60.915415 
L 328.890258 59.534629 
L 331.270924 58.578341 
L 331.677352 58.457864 
L 332.000349 60.094864 
L 332.75246 59.348987 
L 337.86365 60.364511 
L 338.617733 59.072402 
L 339.01874 59.443763 
L 340.311721 59.733566 
L 340.631479 57.820546 
L 340.947068 58.940653 
L 341.71352 60.060499 
L 342.100692 59.802405 
L 342.442215 58.656328 
L 342.781168 60.205605 
L 343.150417 59.373927 
L 343.586316 58.722165 
L 344.825867 60.237711 
L 346.788234 58.887234 
L 347.169743 59.98765 
L 347.879305 59.060923 
L 349.596094 60.542778 
L 349.910131 58.505105 
L 350.189104 61.104349 
L 350.199263 58.859966 
L 350.200239 41.95605 
L 350.200823 90.986703 
L 351.01322 61.665462 
L 352.55376 65.931399 
L 361.971776 74.702263 
L 362.377652 74.142226 
L 363.858963 76.898136 
L 365.227013 78.495315 
L 365.611462 76.612071 
L 366.333579 78.012901 
L 369.365292 79.417757 
L 369.884614 79.489082 
L 370.230543 80.756016 
L 370.572458 80.245594 
L 370.899631 78.898838 
L 371.223654 80.131068 
L 371.596843 80.319916 
L 372.009827 78.831926 
L 372.396115 79.894208 
L 373.602645 80.502145 
L 375.704905 82.479795 
L 376.045017 81.983867 
L 376.398356 81.160107 
L 376.753388 82.342774 
L 377.924973 81.537704 
L 378.704606 83.656853 
L 379.058328 82.085906 
L 379.429695 81.409105 
L 379.786049 81.735328 
L 380.104064 83.502576 
L 380.82086 83.158518 
L 382.158947 83.629948 
L 382.608233 84.064989 
L 383.439636 82.686491 
L 383.838769 83.560236 
L 384.283524 82.872864 
L 384.794506 83.312468 
L 391.517707 84.773436 
L 395.957904 83.376266 
L 397.145679 83.979483 
L 400.718218 82.446645 
L 402.234718 83.852955 
L 403.987123 82.244687 
L 405.338849 82.893391 
L 408.159249 82.863294 
L 408.589786 83.298694 
L 409.260193 81.80505 
L 409.639289 81.974841 
L 409.966342 83.499266 
L 410.741929 82.936164 
L 412.11422 83.331746 
L 412.440454 81.879443 
L 412.762962 83.770647 
L 413.099631 83.072044 
L 414.227131 81.489116 
L 415.487676 82.642882 
L 415.835987 81.412944 
L 416.727999 81.734065 
L 419.334672 82.077996 
L 420.98318 84.143366 
L 421.750656 82.742265 
L 422.15197 82.951593 
L 423.468778 82.614656 
L 423.868584 83.180336 
L 424.267406 82.354809 
L 425.123494 81.571801 
L 425.54584 82.608835 
L 425.965573 81.669219 
L 427.747282 81.879848 
L 428.121961 81.117837 
L 428.494252 81.925678 
L 430.75978 82.016575 
L 431.5874 81.110511 
L 432.035277 82.110769 
L 432.450751 81.751915 
L 432.802572 80.74482 
L 433.585219 81.287134 
L 434.027073 80.399916 
L 434.454184 81.487611 
L 434.899047 81.034948 
L 435.348385 81.534241 
L 436.652111 81.69312 
L 437.553841 81.966918 
L 438.337626 81.481068 
L 438.742558 82.771976 
L 439.899307 81.987785 
L 440.748022 81.833487 
L 441.115566 82.814979 
L 441.471062 82.097925 
L 444.02447 82.306115 
L 444.435989 80.695032 
L 444.836996 81.955092 
L 445.566622 82.607045 
L 445.964011 80.439646 
L 446.322411 80.937049 
L 446.960624 82.576482 
L 447.336068 82.31926 
L 449.754782 80.217748 
L 451.687303 83.215011 
L 452.052953 81.755944 
L 452.444092 82.763685 
L 453.340466 82.577864 
L 453.763675 81.582359 
L 454.154071 82.183684 
L 455.439547 81.850177 
L 456.724221 81.213575 
L 457.902414 82.568986 
L 458.296862 80.670802 
L 459.04342 81.268189 
L 459.458703 82.05172 
L 459.905955 81.32942 
L 461.926211 81.630284 
L 462.322091 82.812893 
L 462.690098 82.146216 
L 463.87135 81.990029 
L 464.266851 81.606737 
L 464.668478 82.202812 
L 465.435259 83.174865 
L 465.842907 82.751849 
L 468.706893 81.251401 
L 469.076704 80.50774 
L 469.452243 81.21657 
L 470.202813 81.80567 
L 470.56197 80.699495 
L 470.915998 82.251264 
L 471.280427 81.677339 
L 473.188604 80.676988 
L 474.289044 81.702873 
L 474.708228 80.666251 
L 475.563336 81.032069 
L 476.730325 82.84687 
L 477.134324 82.590767 
L 477.905328 81.722487 
L 478.309426 82.245489 
L 479.486687 81.395625 
L 483.139043 81.79317 
L 483.545149 81.008698 
L 483.91399 82.111406 
L 486.30542 80.870916 
L 486.733517 82.038145 
L 487.138874 81.125608 
L 490.288741 81.248504 
L 491.210951 81.201183 
L 492.453102 81.873981 
L 502.734489 82.302634 
L 503.914197 81.17449 
L 505.049658 82.153182 
L 507.295975 81.020615 
L 508.409555 82.502752 
L 508.091441 80.437795 
L 508.723024 81.806759 
L 509.974772 80.64579 
L 510.402595 81.093215 
L 512.443897 83.035478 
L 513.192998 81.763264 
L 513.565851 82.383749 
L 515.976946 81.933642 
L 516.773966 82.187053 
L 518.334717 80.660608 
L 519.466079 81.948638 
L 520.257239 81.544026 
L 521.039142 83.270979 
L 521.413204 81.542331 
L 521.781625 82.062936 
L 522.143489 83.179078 
L 522.491821 82.114406 
L 522.896854 81.327469 
L 523.272227 81.699703 
L 524.091632 82.573791 
L 524.493054 81.957246 
L 524.894143 81.302354 
L 525.266131 82.89626 
L 525.638498 82.327881 
L 526.83364 81.54008 
L 538.111151 81.523094 
L 538.111151 81.523094 
" clip-path="url(#p4add93e877)" style="fill: none; stroke: #377eb8; stroke-width: 2; stroke-linecap: square"/>
   </g>
   <g id="patch_3">
    <path d="M 44.845313 241.599141 
L 44.845313 7.2 
" style="fill: none; stroke: #7f7f7f; stroke-width: 1.8; stroke-linejoin: miter; stroke-linecap: square"/>
   </g>
   <g id="patch_4">
    <path d="M 44.845313 241.599141 
L 561.6 241.599141 
" style="fill: none; stroke: #7f7f7f; stroke-width: 1.8; stroke-linejoin: miter; stroke-linecap: square"/>
   </g>
   <g id="legend_1">
    <g id="line2d_29">
     <path d="M 499.584375 20.298438 
L 509.584375 20.298438 
L 519.584375 20.298438 
" style="fill: none; stroke: #e41a1c; stroke-width: 2; stroke-linecap: square"/>
    </g>
    <g id="text_15">
     <!-- err 2 -->
     <g style="fill: #7f7f7f" transform="translate(527.584375 23.798438) scale(0.1 -0.1)">
      <defs>
       <path id="DejaVuSans-55" d="M 2631 2963 
Q 2534 3019 2420 3045 
Q 2306 3072 2169 3072 
Q 1681 3072 1420 2755 
Q 1159 2438 1159 1844 
L 1159 0 
L 581 0 
L 581 3500 
L 1159 3500 
L 1159 2956 
Q 1341 3275 1631 3429 
Q 1922 3584 2338 3584 
Q 2397 3584 2469 3576 
Q 2541 3569 2628 3553 
L 2631 2963 
z
" transform="scale(0.015625)"/>
      </defs>
      <use xlink:href="#DejaVuSans-48"/>
      <use xlink:href="#DejaVuSans-55" transform="translate(61.53125 0)"/>
      <use xlink:href="#DejaVuSans-55" transform="translate(100.890625 0)"/>
      <use xlink:href="#DejaVuSans-3" transform="translate(142 0)"/>
      <use xlink:href="#DejaVuSans-15" transform="translate(173.78125 0)"/>
     </g>
    </g>
    <g id="line2d_30">
     <path d="M 499.584375 35.299219 
L 509.584375 35.299219 
L 519.584375 35.299219 
" style="fill: none; stroke: #377eb8; stroke-width: 2; stroke-linecap: square"/>
    </g>
    <g id="text_16">
     <!-- pid 2 -->
     <g style="fill: #7f7f7f" transform="translate(527.584375 38.799219) scale(0.1 -0.1)">
      <defs>
       <path id="DejaVuSans-53" d="M 1159 525 
L 1159 -1331 
L 581 -1331 
L 581 3500 
L 1159 3500 
L 1159 2969 
Q 1341 3281 1617 3432 
Q 1894 3584 2278 3584 
Q 2916 3584 3314 3078 
Q 3713 2572 3713 1747 
Q 3713 922 3314 415 
Q 2916 -91 2278 -91 
Q 1894 -91 1617 61 
Q 1341 213 1159 525 
z
M 3116 1747 
Q 3116 2381 2855 2742 
Q 2594 3103 2138 3103 
Q 1681 3103 1420 2742 
Q 1159 2381 1159 1747 
Q 1159 1113 1420 752 
Q 1681 391 2138 391 
Q 2594 391 2855 752 
Q 3116 1113 3116 1747 
z
" transform="scale(0.015625)"/>
       <path id="DejaVuSans-47" d="M 2906 2969 
L 2906 4863 
L 3481 4863 
L 3481 0 
L 2906 0 
L 2906 525 
Q 2725 213 2448 61 
Q 2172 -91 1784 -91 
Q 1150 -91 751 415 
Q 353 922 353 1747 
Q 353 2572 751 3078 
Q 1150 3584 1784 3584 
Q 2172 3584 2448 3432 
Q 2725 3281 2906 2969 
z
M 947 1747 
Q 947 1113 1208 752 
Q 1469 391 1925 391 
Q 2381 391 2643 752 
Q 2906 1113 2906 1747 
Q 2906 2381 2643 2742 
Q 2381 3103 1925 3103 
Q 1469 3103 1208 2742 
Q 947 2381 947 1747 
z
" transform="scale(0.015625)"/>
      </defs>
      <use xlink:href="#DejaVuSans-53"/>
      <use xlink:href="#DejaVuSans-4c" transform="translate(63.484375 0)"/>
      <use xlink:href="#DejaVuSans-47" transform="translate(91.265625 0)"/>
      <use xlink:href="#DejaVuSans-3" transform="translate(154.75 0)"/>
      <use xlink:href="#DejaVuSans-15" transform="translate(186.53125 0)"/>
     </g>
    </g>
   </g>
  </g>
 </g>
 <defs>
  <clipPath id="p4add93e877">
   <rect x="44.845313" y="7.2" width="516.754687" height="234.399141"/>
  </clipPath>
 </defs>
</svg>
