<?xml version="1.0" encoding="utf-8" standalone="no"?>
<!DOCTYPE svg PUBLIC "-//W3C//DTD SVG 1.1//EN"
  "http://www.w3.org/Graphics/SVG/1.1/DTD/svg11.dtd">
<svg xmlns:xlink="http://www.w3.org/1999/xlink" width="568.8pt" height="280.8pt" viewBox="0 0 568.8 280.8" xmlns="http://www.w3.org/2000/svg" version="1.1">
 <metadata>
  <rdf:RDF xmlns:dc="http://purl.org/dc/elements/1.1/" xmlns:cc="http://creativecommons.org/ns#" xmlns:rdf="http://www.w3.org/1999/02/22-rdf-syntax-ns#">
   <cc:Work>
    <dc:type rdf:resource="http://purl.org/dc/dcmitype/StillImage"/>
    <dc:date>2026-05-31T18:29:02.504683</dc:date>
    <dc:format>image/svg+xml</dc:format>
    <dc:creator>
     <cc:Agent>
      <dc:title>Matplotlib v3.10.9, https://matplotlib.org/</dc:title>
     </cc:Agent>
    </dc:creator>
   </cc:Work>
  </rdf:RDF>
 </metadata>
 <defs>
  <style type="text/css">*{stroke-linejoin: round; stroke-linecap: butt}</style>
 </defs>
 <g id="figure_1">
  <g id="patch_1">
   <path d="M 0 280.8 
L 568.8 280.8 
L 568.8 0 
L 0 0 
L 0 280.8 
z
" style="fill: none"/>
  </g>
  <g id="axes_1">
   <g id="patch_2">
    <path d="M 38.482813 242.275938 
L 561.6 242.275938 
L 561.6 7.2 
L 38.482813 7.2 
L 38.482813 242.275938 
z
" style="fill: none"/>
   </g>
   <g id="matplotlib.axis_1">
    <g id="xtick_1">
     <g id="line2d_1">
      <path d="M 62.260866 242.275938 
L 62.260866 7.2 
" clip-path="url(#pe712adeea2)" style="fill: none; stroke-dasharray: 2.96,1.28; stroke-dashoffset: 0; stroke: #7f7f7f; stroke-opacity: 0.6; stroke-width: 0.8"/>
     </g>
     <g id="line2d_2">
      <defs>
       <path id="m4863630b29" d="M 0 0 
L 0 3.5 
" style="stroke: #7f7f7f; stroke-width: 1.8"/>
      </defs>
      <g>
       <use xlink:href="#m4863630b29" x="62.260866" y="242.275938" style="fill: #7f7f7f; stroke: #7f7f7f; stroke-width: 1.8"/>
      </g>
     </g>
     <g id="text_1">
      <!-- 0 -->
      <g style="fill: #7f7f7f" transform="translate(59.079616 256.874375) scale(0.1 -0.1)">
       <defs>
        <path id="DejaVuSans-30" d="M 2034 4250 
Q 1547 4250 1301 3770 
Q 1056 3291 1056 2328 
Q 1056 1369 1301 889 
Q 1547 409 2034 409 
Q 2525 409 2770 889 
Q 3016 1369 3016 2328 
Q 3016 3291 2770 3770 
Q 2525 4250 2034 4250 
z
M 2034 4750 
Q 2819 4750 3233 4129 
Q 3647 3509 3647 2328 
Q 3647 1150 3233 529 
Q 2819 -91 2034 -91 
Q 1250 -91 836 529 
Q 422 1150 422 2328 
Q 422 3509 836 4129 
Q 1250 4750 2034 4750 
z
" transform="scale(0.015625)"/>
       </defs>
       <use xlink:href="#DejaVuSans-30"/>
      </g>
     </g>
    </g>
    <g id="xtick_2">
     <g id="line2d_3">
      <path d="M 157.373082 242.275938 
L 157.373082 7.2 
" clip-path="url(#pe712adeea2)" style="fill: none; stroke-dasharray: 2.96,1.28; stroke-dashoffset: 0; stroke: #7f7f7f; stroke-opacity: 0.6; stroke-width: 0.8"/>
     </g>
     <g id="line2d_4">
      <g>
       <use xlink:href="#m4863630b29" x="157.373082" y="242.275938" style="fill: #7f7f7f; stroke: #7f7f7f; stroke-width: 1.8"/>
      </g>
     </g>
     <g id="text_2">
      <!-- 20 -->
      <g style="fill: #7f7f7f" transform="translate(151.010582 256.874375) scale(0.1 -0.1)">
       <defs>
        <path id="DejaVuSans-32" d="M 1228 531 
L 3431 531 
L 3431 0 
L 469 0 
L 469 531 
Q 828 903 1448 1529 
Q 2069 2156 2228 2338 
Q 2531 2678 2651 2914 
Q 2772 3150 2772 3378 
Q 2772 3750 2511 3984 
Q 2250 4219 1831 4219 
Q 1534 4219 1204 4116 
Q 875 4013 500 3803 
L 500 4441 
Q 881 4594 1212 4672 
Q 1544 4750 1819 4750 
Q 2544 4750 2975 4387 
Q 3406 4025 3406 3419 
Q 3406 3131 3298 2873 
Q 3191 2616 2906 2266 
Q 2828 2175 2409 1742 
Q 1991 1309 1228 531 
z
" transform="scale(0.015625)"/>
       </defs>
       <use xlink:href="#DejaVuSans-32"/>
       <use xlink:href="#DejaVuSans-30" transform="translate(63.623047 0)"/>
      </g>
     </g>
    </g>
    <g id="xtick_3">
     <g id="line2d_5">
      <path d="M 252.485298 242.275938 
L 252.485298 7.2 
" clip-path="url(#pe712adeea2)" style="fill: none; stroke-dasharray: 2.96,1.28; stroke-dashoffset: 0; stroke: #7f7f7f; stroke-opacity: 0.6; stroke-width: 0.8"/>
     </g>
     <g id="line2d_6">
      <g>
       <use xlink:href="#m4863630b29" x="252.485298" y="242.275938" style="fill: #7f7f7f; stroke: #7f7f7f; stroke-width: 1.8"/>
      </g>
     </g>
     <g id="text_3">
      <!-- 40 -->
      <g style="fill: #7f7f7f" transform="translate(246.122798 256.874375) scale(0.1 -0.1)">
       <defs>
        <path id="DejaVuSans-34" d="M 2419 4116 
L 825 1625 
L 2419 1625 
L 2419 4116 
z
M 2253 4666 
L 3047 4666 
L 3047 1625 
L 3713 1625 
L 3713 1100 
L 3047 1100 
L 3047 0 
L 2419 0 
L 2419 1100 
L 313 1100 
L 313 1709 
L 2253 4666 
z
" transform="scale(0.015625)"/>
       </defs>
       <use xlink:href="#DejaVuSans-34"/>
       <use xlink:href="#DejaVuSans-30" transform="translate(63.623047 0)"/>
      </g>
     </g>
    </g>
    <g id="xtick_4">
     <g id="line2d_7">
      <path d="M 347.597514 242.275938 
L 347.597514 7.2 
" clip-path="url(#pe712adeea2)" style="fill: none; stroke-dasharray: 2.96,1.28; stroke-dashoffset: 0; stroke: #7f7f7f; stroke-opacity: 0.6; stroke-width: 0.8"/>
     </g>
     <g id="line2d_8">
      <g>
       <use xlink:href="#m4863630b29" x="347.597514" y="242.275938" style="fill: #7f7f7f; stroke: #7f7f7f; stroke-width: 1.8"/>
      </g>
     </g>
     <g id="text_4">
      <!-- 60 -->
      <g style="fill: #7f7f7f" transform="translate(341.235014 256.874375) scale(0.1 -0.1)">
       <defs>
        <path id="DejaVuSans-36" d="M 2113 2584 
Q 1688 2584 1439 2293 
Q 1191 2003 1191 1497 
Q 1191 994 1439 701 
Q 1688 409 2113 409 
Q 2538 409 2786 701 
Q 3034 994 3034 1497 
Q 3034 2003 2786 2293 
Q 2538 2584 2113 2584 
z
M 3366 4563 
L 3366 3988 
Q 3128 4100 2886 4159 
Q 2644 4219 2406 4219 
Q 1781 4219 1451 3797 
Q 1122 3375 1075 2522 
Q 1259 2794 1537 2939 
Q 1816 3084 2150 3084 
Q 2853 3084 3261 2657 
Q 3669 2231 3669 1497 
Q 3669 778 3244 343 
Q 2819 -91 2113 -91 
Q 1303 -91 875 529 
Q 447 1150 447 2328 
Q 447 3434 972 4092 
Q 1497 4750 2381 4750 
Q 2619 4750 2861 4703 
Q 3103 4656 3366 4563 
z
" transform="scale(0.015625)"/>
       </defs>
       <use xlink:href="#DejaVuSans-36"/>
       <use xlink:href="#DejaVuSans-30" transform="translate(63.623047 0)"/>
      </g>
     </g>
    </g>
    <g id="xtick_5">
     <g id="line2d_9">
      <path d="M 442.70973 242.275938 
L 442.70973 7.2 
" clip-path="url(#pe712adeea2)" style="fill: none; stroke-dasharray: 2.96,1.28; stroke-dashoffset: 0; stroke: #7f7f7f; stroke-opacity: 0.6; stroke-width: 0.8"/>
     </g>
     <g id="line2d_10">
      <g>
       <use xlink:href="#m4863630b29" x="442.70973" y="242.275938" style="fill: #7f7f7f; stroke: #7f7f7f; stroke-width: 1.8"/>
      </g>
     </g>
     <g id="text_5">
      <!-- 80 -->
      <g style="fill: #7f7f7f" transform="translate(436.34723 256.874375) scale(0.1 -0.1)">
       <defs>
        <path id="DejaVuSans-38" d="M 2034 2216 
Q 1584 2216 1326 1975 
Q 1069 1734 1069 1313 
Q 1069 891 1326 650 
Q 1584 409 2034 409 
Q 2484 409 2743 651 
Q 3003 894 3003 1313 
Q 3003 1734 2745 1975 
Q 2488 2216 2034 2216 
z
M 1403 2484 
Q 997 2584 770 2862 
Q 544 3141 544 3541 
Q 544 4100 942 4425 
Q 1341 4750 2034 4750 
Q 2731 4750 3128 4425 
Q 3525 4100 3525 3541 
Q 3525 3141 3298 2862 
Q 3072 2584 2669 2484 
Q 3125 2378 3379 2068 
Q 3634 1759 3634 1313 
Q 3634 634 3220 271 
Q 2806 -91 2034 -91 
Q 1263 -91 848 271 
Q 434 634 434 1313 
Q 434 1759 690 2068 
Q 947 2378 1403 2484 
z
M 1172 3481 
Q 1172 3119 1398 2916 
Q 1625 2713 2034 2713 
Q 2441 2713 2670 2916 
Q 2900 3119 2900 3481 
Q 2900 3844 2670 4047 
Q 2441 4250 2034 4250 
Q 1625 4250 1398 4047 
Q 1172 3844 1172 3481 
z
" transform="scale(0.015625)"/>
       </defs>
       <use xlink:href="#DejaVuSans-38"/>
       <use xlink:href="#DejaVuSans-30" transform="translate(63.623047 0)"/>
      </g>
     </g>
    </g>
    <g id="xtick_6">
     <g id="line2d_11">
      <path d="M 537.821946 242.275938 
L 537.821946 7.2 
" clip-path="url(#pe712adeea2)" style="fill: none; stroke-dasharray: 2.96,1.28; stroke-dashoffset: 0; stroke: #7f7f7f; stroke-opacity: 0.6; stroke-width: 0.8"/>
     </g>
     <g id="line2d_12">
      <g>
       <use xlink:href="#m4863630b29" x="537.821946" y="242.275938" style="fill: #7f7f7f; stroke: #7f7f7f; stroke-width: 1.8"/>
      </g>
     </g>
     <g id="text_6">
      <!-- 100 -->
      <g style="fill: #7f7f7f" transform="translate(528.278196 256.874375) scale(0.1 -0.1)">
       <defs>
        <path id="DejaVuSans-31" d="M 794 531 
L 1825 531 
L 1825 4091 
L 703 3866 
L 703 4441 
L 1819 4666 
L 2450 4666 
L 2450 531 
L 3481 531 
L 3481 0 
L 794 0 
L 794 531 
z
" transform="scale(0.015625)"/>
       </defs>
       <use xlink:href="#DejaVuSans-31"/>
       <use xlink:href="#DejaVuSans-30" transform="translate(63.623047 0)"/>
       <use xlink:href="#DejaVuSans-30" transform="translate(127.246094 0)"/>
      </g>
     </g>
    </g>
    <g id="text_7">
     <!-- time [s] -->
     <g style="fill: #7f7f7f" transform="translate(278.710859 271.312344) scale(0.11 -0.11)">
      <defs>
       <path id="DejaVuSans-74" d="M 1172 4494 
L 1172 3500 
L 2356 3500 
L 2356 3053 
L 1172 3053 
L 1172 1153 
Q 1172 725 1289 603 
Q 1406 481 1766 481 
L 2356 481 
L 2356 0 
L 1766 0 
Q 1100 0 847 248 
Q 594 497 594 1153 
L 594 3053 
L 172 3053 
L 172 3500 
L 594 3500 
L 594 4494 
L 1172 4494 
z
" transform="scale(0.015625)"/>
       <path id="DejaVuSans-69" d="M 603 3500 
L 1178 3500 
L 1178 0 
L 603 0 
L 603 3500 
z
M 603 4863 
L 1178 4863 
L 1178 4134 
L 603 4134 
L 603 4863 
z
" transform="scale(0.015625)"/>
       <path id="DejaVuSans-6d" d="M 3328 2828 
Q 3544 3216 3844 3400 
Q 4144 3584 4550 3584 
Q 5097 3584 5394 3201 
Q 5691 2819 5691 2113 
L 5691 0 
L 5113 0 
L 5113 2094 
Q 5113 2597 4934 2840 
Q 4756 3084 4391 3084 
Q 3944 3084 3684 2787 
Q 3425 2491 3425 1978 
L 3425 0 
L 2847 0 
L 2847 2094 
Q 2847 2600 2669 2842 
Q 2491 3084 2119 3084 
Q 1678 3084 1418 2786 
Q 1159 2488 1159 1978 
L 1159 0 
L 581 0 
L 581 3500 
L 1159 3500 
L 1159 2956 
Q 1356 3278 1631 3431 
Q 1906 3584 2284 3584 
Q 2666 3584 2933 3390 
Q 3200 3197 3328 2828 
z
" transform="scale(0.015625)"/>
       <path id="DejaVuSans-65" d="M 3597 1894 
L 3597 1613 
L 953 1613 
Q 991 1019 1311 708 
Q 1631 397 2203 397 
Q 2534 397 2845 478 
Q 3156 559 3463 722 
L 3463 178 
Q 3153 47 2828 -22 
Q 2503 -91 2169 -91 
Q 1331 -91 842 396 
Q 353 884 353 1716 
Q 353 2575 817 3079 
Q 1281 3584 2069 3584 
Q 2775 3584 3186 3129 
Q 3597 2675 3597 1894 
z
M 3022 2063 
Q 3016 2534 2758 2815 
Q 2500 3097 2075 3097 
Q 1594 3097 1305 2825 
Q 1016 2553 972 2059 
L 3022 2063 
z
" transform="scale(0.015625)"/>
       <path id="DejaVuSans-20" transform="scale(0.015625)"/>
       <path id="DejaVuSans-5b" d="M 550 4863 
L 1875 4863 
L 1875 4416 
L 1125 4416 
L 1125 -397 
L 1875 -397 
L 1875 -844 
L 550 -844 
L 550 4863 
z
" transform="scale(0.015625)"/>
       <path id="DejaVuSans-73" d="M 2834 3397 
L 2834 2853 
Q 2591 2978 2328 3040 
Q 2066 3103 1784 3103 
Q 1356 3103 1142 2972 
Q 928 2841 928 2578 
Q 928 2378 1081 2264 
Q 1234 2150 1697 2047 
L 1894 2003 
Q 2506 1872 2764 1633 
Q 3022 1394 3022 966 
Q 3022 478 2636 193 
Q 2250 -91 1575 -91 
Q 1294 -91 989 -36 
Q 684 19 347 128 
L 347 722 
Q 666 556 975 473 
Q 1284 391 1588 391 
Q 1994 391 2212 530 
Q 2431 669 2431 922 
Q 2431 1156 2273 1281 
Q 2116 1406 1581 1522 
L 1381 1569 
Q 847 1681 609 1914 
Q 372 2147 372 2553 
Q 372 3047 722 3315 
Q 1072 3584 1716 3584 
Q 2034 3584 2315 3537 
Q 2597 3491 2834 3397 
z
" transform="scale(0.015625)"/>
       <path id="DejaVuSans-5d" d="M 1947 4863 
L 1947 -844 
L 622 -844 
L 622 -397 
L 1369 -397 
L 1369 4416 
L 622 4416 
L 622 4863 
L 1947 4863 
z
" transform="scale(0.015625)"/>
      </defs>
      <use xlink:href="#DejaVuSans-74"/>
      <use xlink:href="#DejaVuSans-69" transform="translate(39.208984 0)"/>
      <use xlink:href="#DejaVuSans-6d" transform="translate(66.992188 0)"/>
      <use xlink:href="#DejaVuSans-65" transform="translate(164.404297 0)"/>
      <use xlink:href="#DejaVuSans-20" transform="translate(225.927734 0)"/>
      <use xlink:href="#DejaVuSans-5b" transform="translate(257.714844 0)"/>
      <use xlink:href="#DejaVuSans-73" transform="translate(296.728516 0)"/>
      <use xlink:href="#DejaVuSans-5d" transform="translate(348.828125 0)"/>
     </g>
    </g>
   </g>
   <g id="matplotlib.axis_2">
    <g id="ytick_1">
     <g id="line2d_13">
      <path d="M 38.482813 237.387372 
L 561.6 237.387372 
" clip-path="url(#pe712adeea2)" style="fill: none; stroke-dasharray: 2.96,1.28; stroke-dashoffset: 0; stroke: #7f7f7f; stroke-opacity: 0.6; stroke-width: 0.8"/>
     </g>
     <g id="line2d_14">
      <defs>
       <path id="m270d05c400" d="M 0 0 
L -3.5 0 
" style="stroke: #7f7f7f; stroke-width: 1.8"/>
      </defs>
      <g>
       <use xlink:href="#m270d05c400" x="38.482813" y="237.387372" style="fill: #7f7f7f; stroke: #7f7f7f; stroke-width: 1.8"/>
      </g>
     </g>
     <g id="text_8">
      <!-- −0.3 -->
      <g style="fill: #7f7f7f" transform="translate(7.2 241.18659) scale(0.1 -0.1)">
       <defs>
        <path id="DejaVuSans-2212" d="M 678 2272 
L 4684 2272 
L 4684 1741 
L 678 1741 
L 678 2272 
z
" transform="scale(0.015625)"/>
        <path id="DejaVuSans-2e" d="M 684 794 
L 1344 794 
L 1344 0 
L 684 0 
L 684 794 
z
" transform="scale(0.015625)"/>
        <path id="DejaVuSans-33" d="M 2597 2516 
Q 3050 2419 3304 2112 
Q 3559 1806 3559 1356 
Q 3559 666 3084 287 
Q 2609 -91 1734 -91 
Q 1441 -91 1130 -33 
Q 819 25 488 141 
L 488 750 
Q 750 597 1062 519 
Q 1375 441 1716 441 
Q 2309 441 2620 675 
Q 2931 909 2931 1356 
Q 2931 1769 2642 2001 
Q 2353 2234 1838 2234 
L 1294 2234 
L 1294 2753 
L 1863 2753 
Q 2328 2753 2575 2939 
Q 2822 3125 2822 3475 
Q 2822 3834 2567 4026 
Q 2313 4219 1838 4219 
Q 1578 4219 1281 4162 
Q 984 4106 628 3988 
L 628 4550 
Q 988 4650 1302 4700 
Q 1616 4750 1894 4750 
Q 2613 4750 3031 4423 
Q 3450 4097 3450 3541 
Q 3450 3153 3228 2886 
Q 3006 2619 2597 2516 
z
" transform="scale(0.015625)"/>
       </defs>
       <use xlink:href="#DejaVuSans-2212"/>
       <use xlink:href="#DejaVuSans-30" transform="translate(83.789062 0)"/>
       <use xlink:href="#DejaVuSans-2e" transform="translate(147.412109 0)"/>
       <use xlink:href="#DejaVuSans-33" transform="translate(179.199219 0)"/>
      </g>
     </g>
    </g>
    <g id="ytick_2">
     <g id="line2d_15">
      <path d="M 38.482813 192.825888 
L 561.6 192.825888 
" clip-path="url(#pe712adeea2)" style="fill: none; stroke-dasharray: 2.96,1.28; stroke-dashoffset: 0; stroke: #7f7f7f; stroke-opacity: 0.6; stroke-width: 0.8"/>
     </g>
     <g id="line2d_16">
      <g>
       <use xlink:href="#m270d05c400" x="38.482813" y="192.825888" style="fill: #7f7f7f; stroke: #7f7f7f; stroke-width: 1.8"/>
      </g>
     </g>
     <g id="text_9">
      <!-- −0.2 -->
      <g style="fill: #7f7f7f" transform="translate(7.2 196.625107) scale(0.1 -0.1)">
       <use xlink:href="#DejaVuSans-2212"/>
       <use xlink:href="#DejaVuSans-30" transform="translate(83.789062 0)"/>
       <use xlink:href="#DejaVuSans-2e" transform="translate(147.412109 0)"/>
       <use xlink:href="#DejaVuSans-32" transform="translate(179.199219 0)"/>
      </g>
     </g>
    </g>
    <g id="ytick_3">
     <g id="line2d_17">
      <path d="M 38.482813 148.264404 
L 561.6 148.264404 
" clip-path="url(#pe712adeea2)" style="fill: none; stroke-dasharray: 2.96,1.28; stroke-dashoffset: 0; stroke: #7f7f7f; stroke-opacity: 0.6; stroke-width: 0.8"/>
     </g>
     <g id="line2d_18">
      <g>
       <use xlink:href="#m270d05c400" x="38.482813" y="148.264404" style="fill: #7f7f7f; stroke: #7f7f7f; stroke-width: 1.8"/>
      </g>
     </g>
     <g id="text_10">
      <!-- −0.1 -->
      <g style="fill: #7f7f7f" transform="translate(7.2 152.063623) scale(0.1 -0.1)">
       <use xlink:href="#DejaVuSans-2212"/>
       <use xlink:href="#DejaVuSans-30" transform="translate(83.789062 0)"/>
       <use xlink:href="#DejaVuSans-2e" transform="translate(147.412109 0)"/>
       <use xlink:href="#DejaVuSans-31" transform="translate(179.199219 0)"/>
      </g>
     </g>
    </g>
    <g id="ytick_4">
     <g id="line2d_19">
      <path d="M 38.482813 103.702921 
L 561.6 103.702921 
" clip-path="url(#pe712adeea2)" style="fill: none; stroke-dasharray: 2.96,1.28; stroke-dashoffset: 0; stroke: #7f7f7f; stroke-opacity: 0.6; stroke-width: 0.8"/>
     </g>
     <g id="line2d_20">
      <g>
       <use xlink:href="#m270d05c400" x="38.482813" y="103.702921" style="fill: #7f7f7f; stroke: #7f7f7f; stroke-width: 1.8"/>
      </g>
     </g>
     <g id="text_11">
      <!-- 0.0 -->
      <g style="fill: #7f7f7f" transform="translate(15.579688 107.502139) scale(0.1 -0.1)">
       <use xlink:href="#DejaVuSans-30"/>
       <use xlink:href="#DejaVuSans-2e" transform="translate(63.623047 0)"/>
       <use xlink:href="#DejaVuSans-30" transform="translate(95.410156 0)"/>
      </g>
     </g>
    </g>
    <g id="ytick_5">
     <g id="line2d_21">
      <path d="M 38.482813 59.141437 
L 561.6 59.141437 
" clip-path="url(#pe712adeea2)" style="fill: none; stroke-dasharray: 2.96,1.28; stroke-dashoffset: 0; stroke: #7f7f7f; stroke-opacity: 0.6; stroke-width: 0.8"/>
     </g>
     <g id="line2d_22">
      <g>
       <use xlink:href="#m270d05c400" x="38.482813" y="59.141437" style="fill: #7f7f7f; stroke: #7f7f7f; stroke-width: 1.8"/>
      </g>
     </g>
     <g id="text_12">
      <!-- 0.1 -->
      <g style="fill: #7f7f7f" transform="translate(15.579688 62.940656) scale(0.1 -0.1)">
       <use xlink:href="#DejaVuSans-30"/>
       <use xlink:href="#DejaVuSans-2e" transform="translate(63.623047 0)"/>
       <use xlink:href="#DejaVuSans-31" transform="translate(95.410156 0)"/>
      </g>
     </g>
    </g>
    <g id="ytick_6">
     <g id="line2d_23">
      <path d="M 38.482813 14.579954 
L 561.6 14.579954 
" clip-path="url(#pe712adeea2)" style="fill: none; stroke-dasharray: 2.96,1.28; stroke-dashoffset: 0; stroke: #7f7f7f; stroke-opacity: 0.6; stroke-width: 0.8"/>
     </g>
     <g id="line2d_24">
      <g>
       <use xlink:href="#m270d05c400" x="38.482813" y="14.579954" style="fill: #7f7f7f; stroke: #7f7f7f; stroke-width: 1.8"/>
      </g>
     </g>
     <g id="text_13">
      <!-- 0.2 -->
      <g style="fill: #7f7f7f" transform="translate(15.579688 18.379172) scale(0.1 -0.1)">
       <use xlink:href="#DejaVuSans-30"/>
       <use xlink:href="#DejaVuSans-2e" transform="translate(63.623047 0)"/>
       <use xlink:href="#DejaVuSans-32" transform="translate(95.410156 0)"/>
      </g>
     </g>
    </g>
   </g>
   <g id="line2d_25">
    <path d="M 62.260866 103.702921 
L 62.308423 109.045218 
L 63.03673 101.57087 
L 63.683522 104.317912 
L 64.076326 104.19889 
L 64.514614 102.773886 
L 64.915668 103.293791 
L 65.830915 104.378523 
L 66.179634 105.650579 
L 66.505291 103.911952 
L 66.921867 104.764184 
L 67.673208 102.208496 
L 68.019276 103.93093 
L 68.843343 104.735018 
L 69.186505 102.333078 
L 69.445154 107.651609 
L 70.004961 102.139361 
L 70.639554 105.890771 
L 70.956235 103.10343 
L 71.225403 100.882336 
L 71.771792 103.981747 
L 72.089913 102.353018 
L 72.39753 104.188049 
L 73.094068 104.526148 
L 73.487301 103.342431 
L 73.818526 105.792315 
L 74.130396 102.530469 
L 74.420437 103.849746 
L 75.107565 102.225862 
L 75.810746 104.14279 
L 76.232164 103.367886 
L 76.70227 103.461792 
L 77.071207 104.665167 
L 77.373514 101.355086 
L 77.955256 104.064084 
L 78.818331 103.187779 
L 79.192621 105.387602 
L 79.931239 104.512416 
L 80.320526 103.673139 
L 80.742321 104.430703 
L 81.161937 105.021268 
L 81.496536 102.398069 
L 82.189996 102.908889 
L 83.176127 106.141888 
L 83.787082 101.898447 
L 84.405921 102.274024 
L 85.923373 105.206955 
L 86.279199 104.99789 
L 87.392785 101.190578 
L 88.241585 104.621347 
L 89.006668 101.060841 
L 89.250056 105.241408 
L 89.983389 103.029222 
L 90.362367 104.732111 
L 90.726927 102.771196 
L 91.077201 104.237456 
L 93.015201 102.267072 
L 93.319068 105.735388 
L 94.072862 104.678913 
L 95.683786 104.687517 
L 97.274193 101.605358 
L 97.929257 105.177906 
L 98.268837 103.008028 
L 98.60734 103.327668 
L 98.94205 101.618331 
L 99.255844 104.374811 
L 99.565832 102.225763 
L 100.200835 104.0094 
L 100.588084 103.255902 
L 100.9467 102.839775 
L 102.460867 105.46219 
L 102.809223 102.751966 
L 103.503022 103.109886 
L 104.8135 105.384842 
L 105.107851 102.953502 
L 105.772975 103.361173 
L 107.021708 103.113461 
L 107.455106 103.39214 
L 107.839111 101.950587 
L 108.193761 104.074722 
L 108.557335 102.554038 
L 109.867023 104.127636 
L 110.319589 104.582384 
L 110.741188 104.116887 
L 111.163563 103.579274 
L 111.488698 106.154996 
L 111.747366 101.648163 
L 112.016015 103.94088 
L 113.030403 101.484513 
L 113.660011 104.765206 
L 113.994998 102.811006 
L 115.045052 106.679296 
L 115.313284 103.884205 
L 116.037382 102.624733 
L 116.337855 106.223851 
L 116.907234 105.68458 
L 117.745726 101.846043 
L 117.994316 103.887106 
L 118.590603 101.606731 
L 119.358355 100.697543 
L 119.556779 107.917665 
L 119.755572 102.895198 
L 120.351511 104.21648 
L 121.161999 102.860527 
L 121.490489 105.754465 
L 122.146412 104.40651 
L 122.468354 102.061968 
L 123.177164 103.505216 
L 124.360121 103.224533 
L 125.143919 104.687036 
L 125.535094 103.745975 
L 125.908697 102.92075 
L 126.287914 104.482427 
L 127.857013 103.975996 
L 128.146464 100.758735 
L 128.684609 103.719847 
L 128.995876 104.443392 
L 129.670057 102.177885 
L 130.344602 102.582471 
L 130.684245 101.756229 
L 130.935188 106.968493 
L 131.84767 105.151879 
L 133.039091 103.647018 
L 133.356733 106.335336 
L 134.012126 104.716556 
L 134.381332 104.683238 
L 134.719413 102.305664 
L 135.454398 103.254264 
L 137.841917 103.989821 
L 138.586244 101.270137 
L 139.79218 104.22891 
L 140.169394 105.062987 
L 140.52079 102.682229 
L 141.220644 103.899935 
L 141.639228 103.057522 
L 142.011804 104.941536 
L 142.322393 101.758359 
L 142.627716 103.682305 
L 142.991363 102.914895 
L 143.372991 103.190595 
L 144.412013 105.861374 
L 145.287657 103.996993 
L 145.736611 104.501519 
L 146.182771 103.958933 
L 146.578423 102.587887 
L 146.95384 104.665747 
L 147.305985 103.230012 
L 147.67757 102.711324 
L 148.045657 104.818849 
L 148.736414 103.674144 
L 149.901556 103.617154 
L 150.229694 101.285404 
L 150.479648 106.257179 
L 150.730633 102.451876 
L 151.549107 106.211523 
L 152.352958 101.661944 
L 152.637298 101.866671 
L 152.930661 105.37604 
L 153.495798 103.159498 
L 154.340098 104.208677 
L 154.731286 103.593545 
L 155.127667 102.89029 
L 155.52628 104.677521 
L 155.850484 102.206788 
L 157.371409 105.792404 
L 157.373025 18.265455 
L 157.373638 231.590668 
L 158.232123 95.776883 
L 158.376189 98.12639 
L 158.51931 92.246637 
L 159.16605 97.640171 
L 159.346708 97.211301 
L 159.52659 98.716015 
L 159.72707 97.41424 
L 160.132708 96.695136 
L 160.787548 100.216728 
L 161.778207 96.828553 
L 161.999719 101.5027 
L 162.862871 100.576252 
L 163.169224 99.222842 
L 163.456088 100.28344 
L 164.127896 101.721051 
L 164.513071 101.388406 
L 164.895943 101.509303 
L 165.224811 98.704474 
L 165.876731 100.012511 
L 166.209335 102.567647 
L 166.562008 99.563359 
L 166.897929 100.496655 
L 167.248643 100.028406 
L 168.395735 101.915995 
L 169.612267 99.142803 
L 170.760782 101.972519 
L 171.166468 100.336308 
L 171.53424 100.599633 
L 172.866914 103.694774 
L 173.210757 100.387422 
L 173.548717 101.127133 
L 174.316563 104.458855 
L 174.676281 99.407306 
L 175.380562 100.821823 
L 176.653777 103.405498 
L 176.997072 100.579817 
L 177.747065 100.922268 
L 178.144243 101.363792 
L 178.896391 100.335959 
L 179.236367 105.232685 
L 179.583648 100.837727 
L 180.321112 101.486181 
L 180.6938 99.988782 
L 181.463011 100.875126 
L 181.86965 100.427578 
L 182.257118 103.512404 
L 182.771664 102.836957 
L 183.319243 103.373041 
L 183.651485 100.161543 
L 183.97941 103.668533 
L 184.900534 102.429109 
L 185.328127 102.694571 
L 185.795773 103.691181 
L 186.175866 102.047245 
L 186.551858 102.951053 
L 187.021084 104.436899 
L 187.45594 102.526916 
L 188.40753 103.49698 
L 189.229872 101.92572 
L 189.631758 105.456987 
L 190.01279 105.388855 
L 190.388166 102.221988 
L 190.773056 102.968401 
L 192.109515 104.644499 
L 193.066925 103.276026 
L 193.405248 100.956295 
L 193.739865 102.853847 
L 194.655384 104.208921 
L 195.960365 102.406093 
L 196.797956 102.931957 
L 197.227467 102.149262 
L 197.619882 102.792218 
L 197.954929 105.583468 
L 198.286236 101.325657 
L 198.63269 101.827752 
L 199.881172 104.310349 
L 200.301288 104.635158 
L 200.736505 103.519571 
L 201.162463 104.551057 
L 202.433898 104.892484 
L 202.878589 103.536029 
L 203.33027 104.678741 
L 203.785789 104.638391 
L 204.991645 101.032899 
L 204.666461 105.039278 
L 205.312116 102.756755 
L 205.749745 102.710564 
L 206.107663 104.839786 
L 206.462854 102.70531 
L 206.899164 102.399769 
L 207.309297 104.171029 
L 207.809119 103.019598 
L 209.119857 105.638766 
L 209.500523 104.705455 
L 210.45045 104.096388 
L 210.898213 104.542027 
L 212.294895 103.202856 
L 213.170041 102.108832 
L 213.581748 102.964579 
L 213.951716 104.607881 
L 214.784556 104.364247 
L 215.738184 104.418118 
L 216.234285 103.233284 
L 216.708002 104.88064 
L 217.173855 103.729373 
L 218.250167 104.360254 
L 218.695918 105.447984 
L 219.103323 104.992702 
L 220.696551 103.804733 
L 221.10763 104.679477 
L 221.516494 101.830901 
L 221.906593 103.09103 
L 224.471558 105.414025 
L 224.870442 104.241675 
L 225.649471 104.952462 
L 226.984097 104.338452 
L 227.524503 104.036183 
L 227.854592 101.075233 
L 228.180502 103.479983 
L 228.645974 103.946871 
L 229.077859 102.16866 
L 229.504312 103.637036 
L 229.847271 105.772009 
L 230.186938 101.886562 
L 232.698899 104.855671 
L 233.130728 102.291293 
L 233.533918 102.749166 
L 233.945755 105.242034 
L 234.768066 104.490664 
L 236.122399 104.979843 
L 236.523398 102.91075 
L 236.961822 105.290754 
L 237.401062 103.406101 
L 238.317358 104.309778 
L 238.808853 102.655748 
L 239.256078 103.251518 
L 239.733871 104.51256 
L 240.183416 102.23919 
L 240.615002 103.362839 
L 241.100732 102.90572 
L 242.589609 104.389975 
L 243.975952 102.589981 
L 244.812846 104.8382 
L 245.228179 102.369612 
L 246.068397 102.777003 
L 247.498789 103.96729 
L 248.990339 103.753428 
L 250.383545 104.700008 
L 251.783504 103.496153 
L 253.866904 103.518414 
L 254.3121 104.514525 
L 254.652205 101.509146 
L 254.988879 102.758752 
L 255.860516 104.341142 
L 256.676059 102.7983 
L 257.059298 103.461833 
L 257.526766 104.087342 
L 257.87815 101.665195 
L 258.225797 102.346845 
L 258.630363 104.83655 
L 259.034389 102.480892 
L 261.118301 105.192767 
L 262.99189 103.200655 
L 263.323388 106.454544 
L 263.65098 100.814741 
L 263.973236 103.926901 
L 264.392362 102.975836 
L 264.784275 104.43968 
L 266.855466 102.35631 
L 267.229877 104.82334 
L 268.093578 103.920287 
L 268.560672 103.052382 
L 268.96613 105.016146 
L 269.331231 103.167268 
L 269.813474 103.139707 
L 270.263793 104.830134 
L 270.702384 104.387856 
L 274.059589 102.397122 
L 275.352542 104.465404 
L 275.817645 103.470103 
L 276.179065 105.514501 
L 276.536798 103.026181 
L 276.907912 104.390156 
L 277.284957 102.233892 
L 277.680361 103.443048 
L 278.575511 104.725064 
L 279.002359 102.495591 
L 279.424966 104.218128 
L 279.845705 104.879552 
L 280.618096 103.138241 
L 281.003495 104.011426 
L 281.430738 104.191101 
L 281.752871 100.377189 
L 282.070781 102.563673 
L 282.506152 104.852537 
L 282.905449 103.447664 
L 283.292784 101.489734 
L 283.641394 103.291602 
L 284.351792 104.989639 
L 284.742251 103.97311 
L 286.762491 104.550926 
L 287.645678 102.728679 
L 288.068615 103.354866 
L 289.244885 101.922678 
L 290.077197 104.790157 
L 290.476808 104.115925 
L 290.958383 103.344365 
L 291.461387 104.60926 
L 291.947159 103.484564 
L 292.746393 103.39227 
L 294.413639 104.268491 
L 294.880323 102.951552 
L 295.320096 104.094647 
L 296.139913 104.121478 
L 296.563498 102.687669 
L 297.384122 105.70243 
L 298.576625 102.461313 
L 299.8049 106.070032 
L 300.600681 102.432888 
L 300.985662 102.80872 
L 302.700749 103.572483 
L 303.05891 105.670921 
L 303.424422 104.700689 
L 303.846175 102.705362 
L 304.71511 103.356896 
L 306.244215 103.751305 
L 307.936521 103.980735 
L 310.68228 102.715889 
L 311.134148 104.830458 
L 311.574393 104.374294 
L 312.015866 102.751884 
L 312.453993 103.499611 
L 314.242983 103.896033 
L 314.68485 103.165798 
L 315.161593 104.70457 
L 315.627447 103.645026 
L 316.066357 103.14036 
L 316.531399 104.852143 
L 316.96738 102.152111 
L 317.827297 102.983303 
L 318.205671 101.467986 
L 318.561225 103.698508 
L 318.937043 105.632752 
L 319.27737 102.398022 
L 320.45214 104.912458 
L 320.819603 104.167323 
L 321.654138 102.233859 
L 322.019991 104.59829 
L 322.447346 104.350601 
L 323.681555 100.980577 
L 324.83265 104.444439 
L 325.235364 103.525059 
L 326.07537 103.957655 
L 326.537355 104.023543 
L 326.872796 101.167788 
L 327.204427 103.091517 
L 327.658258 104.741761 
L 328.070997 103.808707 
L 328.549195 102.665395 
L 328.985155 105.201992 
L 329.877168 104.784096 
L 330.822768 103.67828 
L 331.311649 104.901535 
L 331.760741 104.7089 
L 332.171096 103.18301 
L 332.606795 104.728761 
L 333.47898 102.909974 
L 333.874314 104.038463 
L 334.298821 104.903359 
L 335.518895 102.472289 
L 335.943852 101.847813 
L 336.353909 102.685115 
L 336.81741 103.048329 
L 337.178437 104.849021 
L 337.536802 102.862076 
L 337.970023 103.964219 
L 338.349347 102.815194 
L 338.738801 104.226414 
L 339.10629 106.645218 
L 339.439755 105.156257 
L 341.093881 103.762336 
L 341.456873 105.553038 
L 341.816991 102.229735 
L 342.622134 103.227776 
L 343.803147 101.880192 
L 344.61199 105.152119 
L 344.98953 103.348641 
L 345.42811 104.148119 
L 345.873735 102.308064 
L 346.293855 103.846894 
L 347.572073 104.351375 
L 347.594533 103.524342 
L 347.605132 137.455214 
L 347.598683 17.88527 
L 348.394748 105.267907 
L 348.753586 109.435406 
L 349.459789 108.024323 
L 351.075859 105.967244 
L 351.81435 107.819777 
L 352.620109 103.453325 
L 353.04532 105.761463 
L 353.421339 107.125145 
L 353.771781 103.714398 
L 354.235336 105.342863 
L 355.256092 104.616399 
L 355.702953 105.296494 
L 356.110938 104.787685 
L 356.572903 104.004296 
L 357.241924 104.607816 
L 358.808822 106.506127 
L 360.078223 104.102462 
L 360.441961 106.27115 
L 360.800711 103.939663 
L 361.869809 104.633986 
L 362.392341 103.462707 
L 362.760262 105.517997 
L 363.123686 103.922175 
L 363.633577 103.874556 
L 364.381098 106.710202 
L 364.743609 105.531014 
L 366.342271 105.636484 
L 367.128913 105.944944 
L 367.50111 103.966106 
L 368.072919 104.488016 
L 368.460785 103.118878 
L 368.849635 104.003992 
L 369.53981 103.242713 
L 369.959203 106.564138 
L 370.346562 103.676915 
L 370.837564 104.301833 
L 372.408076 104.449846 
L 372.897077 104.526999 
L 373.380442 103.373053 
L 373.888205 103.811605 
L 375.257622 104.379901 
L 376.099242 103.111287 
L 376.507766 105.795399 
L 376.900378 102.961917 
L 377.339939 102.916707 
L 378.648047 104.608442 
L 380.126003 103.405528 
L 380.484039 105.479548 
L 380.83868 104.178943 
L 381.225398 102.96832 
L 381.61092 105.225104 
L 382.444745 104.21064 
L 382.853006 103.226134 
L 383.261605 105.666185 
L 383.662249 103.486873 
L 384.151032 104.272448 
L 384.728941 103.745632 
L 386.803185 102.6323 
L 387.674269 105.408962 
L 388.062321 102.835305 
L 389.004446 103.293758 
L 392.972483 103.919586 
L 393.351986 102.469082 
L 393.728804 104.029651 
L 394.674593 103.230557 
L 395.401437 101.811952 
L 396.201468 104.442171 
L 396.597653 103.500382 
L 397.074784 104.542749 
L 397.558391 103.689663 
L 398.417936 102.482048 
L 398.80401 106.085298 
L 399.172455 103.838766 
L 399.675257 104.338678 
L 400.056082 102.784934 
L 400.434539 103.945418 
L 402.921852 103.014063 
L 403.332975 101.854718 
L 403.705926 102.695034 
L 404.155268 103.360066 
L 404.889908 104.605527 
L 405.291916 101.46761 
L 406.552689 104.742207 
L 407.869487 102.722254 
L 408.241125 104.737085 
L 408.661404 101.718082 
L 409.891121 105.878037 
L 410.237499 105.058383 
L 411.481609 102.770337 
L 411.904147 103.383718 
L 412.272954 104.938133 
L 412.639543 102.852223 
L 413.06025 102.99796 
L 413.499133 101.799191 
L 413.900614 104.17869 
L 414.36782 103.478778 
L 416.20119 103.367891 
L 418.195404 102.787516 
L 419.000287 104.527399 
L 419.388557 101.75117 
L 419.778748 106.064737 
L 420.563737 103.546943 
L 421.095953 104.314867 
L 422.071741 102.914947 
L 422.482386 104.293967 
L 422.973049 103.187059 
L 423.909704 103.492002 
L 425.160816 104.635711 
L 427.294293 101.695195 
L 428.667928 104.333086 
L 429.506988 102.239706 
L 429.911038 104.456791 
L 430.353172 103.055322 
L 430.784716 102.831161 
L 431.631058 104.996165 
L 432.035347 102.984326 
L 432.480856 104.274718 
L 432.921013 104.815445 
L 433.327915 104.361958 
L 434.025709 101.998027 
L 434.760916 106.617775 
L 435.090973 104.180599 
L 435.418715 101.446943 
L 436.177687 102.974029 
L 436.615716 105.148602 
L 437.022094 104.242539 
L 438.793792 103.726682 
L 439.158361 105.288415 
L 439.520374 103.865795 
L 439.978522 102.840623 
L 440.40865 103.392473 
L 443.828503 104.363563 
L 444.204897 102.209636 
L 444.560802 102.921305 
L 444.989749 105.369547 
L 445.385882 103.614777 
L 445.851577 103.734523 
L 446.212394 101.995888 
L 447.033689 102.484597 
L 449.158786 105.319173 
L 449.542911 102.984388 
L 449.978971 104.246339 
L 451.446912 102.943583 
L 451.910452 105.104661 
L 452.334198 104.696648 
L 452.758153 102.729528 
L 453.600942 102.938297 
L 454.016791 104.183286 
L 454.532819 103.307662 
L 455.932012 104.350363 
L 456.926003 102.951777 
L 457.8749 103.662598 
L 458.881729 103.043655 
L 459.799539 105.44955 
L 461.348709 102.975628 
L 462.218713 105.020579 
L 463.434322 102.364342 
L 464.649467 105.549602 
L 464.989779 101.673609 
L 465.766742 103.277881 
L 466.556365 105.561501 
L 467.802728 102.733231 
L 468.243286 104.533385 
L 468.973978 103.887335 
L 469.774571 101.739493 
L 470.135283 104.518757 
L 470.960266 103.314433 
L 472.169418 102.062837 
L 472.574787 104.229556 
L 473.047227 103.699554 
L 473.561528 103.304949 
L 474.8045 106.031849 
L 475.177913 103.585249 
L 475.653086 104.422858 
L 476.058133 105.355882 
L 476.441332 103.977942 
L 476.870716 104.767685 
L 478.124822 102.438922 
L 478.535995 104.273551 
L 478.940075 103.934483 
L 479.789548 102.800905 
L 481.044999 104.525206 
L 481.529887 102.609923 
L 481.983027 103.712481 
L 482.930267 104.745646 
L 484.164306 101.209287 
L 484.875121 104.639193 
L 485.255216 102.084092 
L 485.651485 101.673921 
L 486.031415 104.260036 
L 486.433526 103.925984 
L 486.882968 102.187107 
L 487.306668 104.82996 
L 487.722073 103.932077 
L 489.059514 103.082694 
L 489.880031 103.600232 
L 490.344566 102.09779 
L 490.764267 103.317588 
L 491.788179 106.481401 
L 492.95105 102.616597 
L 493.789689 105.244374 
L 494.196104 103.326739 
L 494.607356 104.056846 
L 495.022792 104.255635 
L 495.398688 102.370441 
L 495.76295 103.048162 
L 496.660401 104.047167 
L 497.124865 102.442423 
L 497.564716 103.429916 
L 497.968265 103.819448 
L 498.803707 102.362524 
L 499.636674 103.409763 
L 500.008657 101.864404 
L 500.377483 103.915014 
L 500.698361 106.948766 
L 501.469985 105.306131 
L 502.699583 101.310932 
L 503.401545 106.035099 
L 503.73039 103.853597 
L 506.357107 103.414815 
L 506.758613 101.856163 
L 507.149468 103.437587 
L 507.48786 105.774128 
L 507.822951 103.538256 
L 508.265762 103.370363 
L 508.701073 102.076609 
L 510.008694 104.128731 
L 510.347774 101.230504 
L 510.683195 103.311368 
L 511.504996 105.963016 
L 512.653672 102.274068 
L 513.021825 102.251445 
L 514.198329 106.185543 
L 514.532151 103.552222 
L 514.963308 104.366851 
L 515.358863 106.301819 
L 515.735274 105.89036 
L 517.505418 101.918704 
L 517.8938 101.797733 
L 518.282912 104.198929 
L 518.738395 103.686648 
L 519.686648 103.007903 
L 520.129239 104.072002 
L 520.564389 102.293682 
L 520.960783 103.962742 
L 521.352979 103.490438 
L 521.75045 103.862487 
L 522.533447 104.521531 
L 523.756704 102.614582 
L 525.104523 105.013779 
L 526.245205 101.990956 
L 527.02252 105.353186 
L 527.37694 105.076116 
L 527.775511 102.722769 
L 528.51105 103.01335 
L 529.438367 103.107253 
L 530.139665 102.308395 
L 530.517565 105.294526 
L 531.665461 102.182643 
L 532.012998 104.253215 
L 532.442868 104.434999 
L 532.880092 103.030125 
L 533.662461 103.825316 
L 534.082037 102.647245 
L 534.5097 103.876852 
L 534.883779 105.271559 
L 535.247169 102.485698 
L 536.095609 102.962854 
L 536.498052 104.997524 
L 536.866496 103.552188 
L 537.308195 102.92129 
L 537.714947 105.322174 
L 537.821946 104.541801 
" clip-path="url(#pe712adeea2)" style="fill: none; stroke: #e41a1c; stroke-width: 2; stroke-linecap: square"/>
   </g>
   <g id="line2d_26">
    <path d="M 62.260866 103.702921 
L 62.308423 105.104082 
L 63.03673 102.890352 
L 64.076326 103.611982 
L 64.514614 103.099632 
L 69.186505 103.373277 
L 69.445154 105.071854 
L 70.004961 103.62282 
L 70.639554 104.813085 
L 70.956235 104.061389 
L 72.089913 103.249277 
L 73.818526 104.576346 
L 75.107565 103.173041 
L 76.232164 103.476273 
L 80.742321 103.996107 
L 81.835427 104.078243 
L 82.189996 103.644418 
L 82.545699 104.399737 
L 84.096591 103.672288 
L 85.550413 103.650305 
L 86.279199 104.491555 
L 86.641347 104.178644 
L 87.086483 104.269708 
L 87.971777 103.288937 
L 88.771217 103.976842 
L 89.701172 102.999687 
L 92.636809 103.298829 
L 93.015201 102.7537 
L 93.319068 103.840841 
L 93.615354 103.546493 
L 96.088602 104.360153 
L 97.274193 103.268344 
L 97.587148 103.723493 
L 97.929257 104.318887 
L 98.60734 103.724287 
L 99.565832 103.077221 
L 100.588084 103.310428 
L 101.327346 103.488927 
L 102.460867 104.277414 
L 103.503022 103.381075 
L 104.8135 104.521961 
L 106.19386 103.527372 
L 111.488698 104.266339 
L 111.747366 102.960009 
L 112.321175 103.356479 
L 115.624484 103.601407 
L 116.037382 103.169745 
L 116.907234 104.687168 
L 117.19953 103.797664 
L 117.475984 104.587613 
L 117.745726 103.589668 
L 117.994316 104.107166 
L 119.358355 102.784517 
L 119.556779 104.871248 
L 120.351511 103.954658 
L 121.161999 103.37229 
L 121.490489 104.342781 
L 122.146412 104.095885 
L 123.555063 103.288282 
L 125.535094 103.68508 
L 126.65844 103.905927 
L 133.039091 103.381112 
L 134.381332 104.3072 
L 135.454398 103.685922 
L 145.287657 103.754565 
L 146.95384 104.092089 
L 147.67757 103.407505 
L 148.045657 104.085098 
L 150.974011 103.632694 
L 151.549107 104.628509 
L 152.06825 103.953152 
L 152.637298 103.029116 
L 153.195943 103.542987 
L 155.127667 103.287189 
L 155.52628 103.87651 
L 156.179036 103.112608 
L 157.362293 103.238105 
L 157.373638 134.478771 
L 157.373025 82.411556 
L 158.232123 98.968897 
L 158.376189 99.234818 
L 159.346708 96.262472 
L 159.52659 96.282594 
L 161.778207 91.254891 
L 161.999719 92.205013 
L 162.587717 90.642292 
L 163.763109 89.736119 
L 164.895943 88.758398 
L 166.562008 86.096609 
L 168.838207 84.007597 
L 171.53424 80.72537 
L 172.866914 80.839206 
L 173.548717 79.437035 
L 173.927855 79.959939 
L 174.316563 80.347395 
L 175.771434 77.878817 
L 176.653777 78.224982 
L 178.144243 76.274902 
L 178.550716 76.809937 
L 179.583648 75.503034 
L 179.942976 76.027424 
L 180.321112 75.274606 
L 181.86965 73.172054 
L 182.257118 73.89043 
L 182.771664 73.542262 
L 183.319243 73.599755 
L 183.651485 72.352018 
L 184.434675 72.84458 
L 186.551858 72.099046 
L 187.021084 72.601457 
L 187.45594 71.934952 
L 188.82006 71.669836 
L 189.229872 71.210399 
L 190.01279 72.594994 
L 190.388166 71.607366 
L 195.581415 72.011178 
L 197.227467 70.841565 
L 201.584665 71.538788 
L 203.33027 72.176594 
L 204.666461 72.573996 
L 205.749745 71.36685 
L 206.107663 72.043372 
L 206.462854 71.379271 
L 207.809119 71.141478 
L 212.294895 71.860953 
L 214.319301 71.640288 
L 220.04032 73.074039 
L 225.261801 73.827871 
L 227.524503 74.390197 
L 227.854592 73.329132 
L 228.645974 74.047659 
L 229.077859 73.348755 
L 229.504312 73.692051 
L 229.847271 74.491471 
L 230.186938 73.29905 
L 231.890516 73.786899 
L 232.698899 74.235221 
L 233.533918 73.322119 
L 234.768066 74.263507 
L 238.317358 74.971601 
L 239.256078 74.430443 
L 239.733871 74.893189 
L 240.183416 74.075292 
L 241.604535 74.424638 
L 242.102644 73.882956 
L 242.589609 74.407654 
L 249.953351 74.798736 
L 252.152848 74.670771 
L 253.866904 74.56596 
L 254.3121 74.954515 
L 254.652205 73.927567 
L 257.526766 74.437324 
L 258.225797 73.538079 
L 258.630363 74.322618 
L 259.956932 73.621857 
L 262.509963 74.072976 
L 262.99189 73.828211 
L 263.323388 74.98287 
L 263.65098 73.235481 
L 263.973236 74.022786 
L 265.175034 74.142677 
L 266.443859 74.246873 
L 267.642467 73.734796 
L 268.96613 74.497373 
L 269.331231 73.969578 
L 272.028499 73.883037 
L 273.288949 74.313645 
L 274.059589 73.572404 
L 274.46726 74.165863 
L 275.817645 74.026018 
L 276.907912 74.518949 
L 277.284957 73.77464 
L 277.680361 74.028388 
L 279.845705 74.784053 
L 281.003495 74.463886 
L 281.430738 74.592422 
L 281.752871 73.240059 
L 282.506152 74.382047 
L 283.292784 73.176435 
L 283.997763 74.147361 
L 286.762491 74.63916 
L 289.244885 73.074198 
L 290.476808 73.900172 
L 292.746393 73.63967 
L 296.139913 74.145558 
L 296.563498 73.625759 
L 296.965423 74.43197 
L 298.159785 74.579299 
L 298.576625 73.891604 
L 299.003476 74.288272 
L 299.8049 75.373028 
L 300.177826 74.481623 
L 302.346548 73.901073 
L 310.68228 73.732929 
L 311.574393 74.458859 
L 312.952375 74.189856 
L 315.161593 74.71784 
L 318.205671 73.40001 
L 318.937043 74.696453 
L 319.27737 73.731084 
L 323.296007 74.182079 
L 323.681555 73.010156 
L 324.432719 73.709038 
L 326.537355 73.959438 
L 326.872796 72.926687 
L 327.204427 73.313427 
L 328.070997 73.689124 
L 328.549195 73.20915 
L 328.985155 74.086668 
L 330.822768 74.034731 
L 332.606795 74.826449 
L 338.738801 73.749914 
L 339.10629 74.766515 
L 339.857825 74.436002 
L 342.622134 74.244076 
L 343.803147 73.139862 
L 345.42811 73.916294 
L 346.668628 73.701936 
L 347.594533 73.71345 
L 347.605132 81.988711 
L 347.598683 52.79191 
L 348.394748 74.982668 
L 349.840534 77.719752 
L 353.421339 81.542762 
L 353.771781 80.712236 
L 354.235336 81.40961 
L 356.572903 81.886751 
L 369.196576 88.50337 
L 369.53981 87.729244 
L 369.959203 89.016166 
L 370.346562 88.308482 
L 372.897077 89.09834 
L 374.822012 88.841659 
L 376.507766 89.808144 
L 377.339939 88.846316 
L 377.75426 89.38129 
L 380.83868 89.979774 
L 381.225398 89.572521 
L 381.61092 90.356684 
L 394.674593 89.977457 
L 395.401437 89.082542 
L 395.789694 89.682556 
L 398.029578 89.745878 
L 398.417936 89.312144 
L 399.675257 90.290254 
L 400.961031 90.11639 
L 402.39544 90.081474 
L 406.09106 89.109922 
L 407.495516 89.6859 
L 409.061855 88.921287 
L 411.084105 89.456328 
L 413.499133 88.558669 
L 414.898352 89.046795 
L 416.20119 89.07582 
L 418.610331 88.632616 
L 420.148046 89.268427 
L 422.071741 88.828299 
L 422.973049 88.894193 
L 424.728357 89.359782 
L 426.035211 89.664575 
L 427.294293 88.246535 
L 427.692831 88.677422 
L 434.401149 88.691522 
L 434.760916 89.638452 
L 435.090973 89.109489 
L 436.177687 88.334596 
L 437.472458 89.013619 
L 440.40865 88.766551 
L 456.422324 88.952275 
L 458.881729 88.426708 
L 460.565199 89.067922 
L 464.305641 88.485134 
L 464.649467 89.329046 
L 464.989779 88.109335 
L 465.337534 88.746573 
L 465.766742 88.473634 
L 466.154524 89.134726 
L 467.352249 89.332123 
L 468.606614 89.040683 
L 469.374317 88.931684 
L 469.774571 88.263012 
L 470.135283 89.055457 
L 474.424076 88.420491 
L 475.653086 89.190306 
L 476.870716 89.782555 
L 479.789548 88.912825 
L 481.044999 89.443644 
L 482.466246 89.167865 
L 483.827516 89.407972 
L 484.164306 88.314543 
L 484.875121 89.314857 
L 485.651485 88.022425 
L 486.031415 88.731611 
L 491.104372 88.67504 
L 492.56154 89.814492 
L 492.95105 88.809229 
L 493.358992 89.62613 
L 495.022792 89.821926 
L 496.210668 89.434762 
L 497.968265 89.245189 
L 500.008657 87.882208 
L 501.469985 89.581762 
L 501.886222 89.11705 
L 503.069525 88.667337 
L 503.401545 89.539005 
L 504.203601 89.000107 
L 505.958989 89.084434 
L 509.574797 88.508432 
L 510.008694 88.760499 
L 510.347774 87.720479 
L 510.683195 88.172823 
L 511.504996 89.355508 
L 512.282784 88.720146 
L 513.021825 87.911478 
L 513.420151 88.310554 
L 513.860498 88.218227 
L 515.358863 89.724943 
L 516.654802 89.806896 
L 519.686648 88.70892 
L 520.960783 88.794494 
L 523.756704 88.397487 
L 525.104523 89.274031 
L 525.489117 88.643198 
L 526.245205 87.974484 
L 526.637951 88.491827 
L 527.37694 89.205407 
L 527.775511 88.47761 
L 528.966525 88.399221 
L 530.139665 88.114238 
L 531.314817 89.12436 
L 531.665461 88.383882 
L 532.012998 88.965397 
L 533.662461 89.007794 
L 534.5097 88.87508 
L 535.641912 89.180119 
L 537.308195 88.732483 
L 537.714947 89.581116 
L 537.821946 89.425604 
" clip-path="url(#pe712adeea2)" style="fill: none; stroke: #377eb8; stroke-width: 2; stroke-linecap: square"/>
   </g>
   <g id="patch_3">
    <path d="M 38.482813 242.275938 
L 38.482813 7.2 
" style="fill: none; stroke: #7f7f7f; stroke-width: 1.8; stroke-linejoin: miter; stroke-linecap: square"/>
   </g>
   <g id="patch_4">
    <path d="M 38.482813 242.275938 
L 561.6 242.275938 
" style="fill: none; stroke: #7f7f7f; stroke-width: 1.8; stroke-linejoin: miter; stroke-linecap: square"/>
   </g>
   <g id="legend_1">
    <g id="line2d_27">
     <path d="M 499.584375 20.298438 
L 509.584375 20.298438 
L 519.584375 20.298438 
" style="fill: none; stroke: #e41a1c; stroke-width: 2; stroke-linecap: square"/>
    </g>
    <g id="text_14">
     <!-- err 2 -->
     <g style="fill: #7f7f7f" transform="translate(527.584375 23.798438) scale(0.1 -0.1)">
      <defs>
       <path id="DejaVuSans-72" d="M 2631 2963 
Q 2534 3019 2420 3045 
Q 2306 3072 2169 3072 
Q 1681 3072 1420 2755 
Q 1159 2438 1159 1844 
L 1159 0 
L 581 0 
L 581 3500 
L 1159 3500 
L 1159 2956 
Q 1341 3275 1631 3429 
Q 1922 3584 2338 3584 
Q 2397 3584 2469 3576 
Q 2541 3569 2628 3553 
L 2631 2963 
z
" transform="scale(0.015625)"/>
      </defs>
      <use xlink:href="#DejaVuSans-65"/>
      <use xlink:href="#DejaVuSans-72" transform="translate(61.523438 0)"/>
      <use xlink:href="#DejaVuSans-72" transform="translate(100.886719 0)"/>
      <use xlink:href="#DejaVuSans-20" transform="translate(142 0)"/>
      <use xlink:href="#DejaVuSans-32" transform="translate(173.787109 0)"/>
     </g>
    </g>
    <g id="line2d_28">
     <path d="M 499.584375 34.976563 
L 509.584375 34.976563 
L 519.584375 34.976563 
" style="fill: none; stroke: #377eb8; stroke-width: 2; stroke-linecap: square"/>
    </g>
    <g id="text_15">
     <!-- pid 2 -->
     <g style="fill: #7f7f7f" transform="translate(527.584375 38.476563) scale(0.1 -0.1)">
      <defs>
       <path id="DejaVuSans-70" d="M 1159 525 
L 1159 -1331 
L 581 -1331 
L 581 3500 
L 1159 3500 
L 1159 2969 
Q 1341 3281 1617 3432 
Q 1894 3584 2278 3584 
Q 2916 3584 3314 3078 
Q 3713 2572 3713 1747 
Q 3713 922 3314 415 
Q 2916 -91 2278 -91 
Q 1894 -91 1617 61 
Q 1341 213 1159 525 
z
M 3116 1747 
Q 3116 2381 2855 2742 
Q 2594 3103 2138 3103 
Q 1681 3103 1420 2742 
Q 1159 2381 1159 1747 
Q 1159 1113 1420 752 
Q 1681 391 2138 391 
Q 2594 391 2855 752 
Q 3116 1113 3116 1747 
z
" transform="scale(0.015625)"/>
       <path id="DejaVuSans-64" d="M 2906 2969 
L 2906 4863 
L 3481 4863 
L 3481 0 
L 2906 0 
L 2906 525 
Q 2725 213 2448 61 
Q 2172 -91 1784 -91 
Q 1150 -91 751 415 
Q 353 922 353 1747 
Q 353 2572 751 3078 
Q 1150 3584 1784 3584 
Q 2172 3584 2448 3432 
Q 2725 3281 2906 2969 
z
M 947 1747 
Q 947 1113 1208 752 
Q 1469 391 1925 391 
Q 2381 391 2643 752 
Q 2906 1113 2906 1747 
Q 2906 2381 2643 2742 
Q 2381 3103 1925 3103 
Q 1469 3103 1208 2742 
Q 947 2381 947 1747 
z
" transform="scale(0.015625)"/>
      </defs>
      <use xlink:href="#DejaVuSans-70"/>
      <use xlink:href="#DejaVuSans-69" transform="translate(63.476562 0)"/>
      <use xlink:href="#DejaVuSans-64" transform="translate(91.259766 0)"/>
      <use xlink:href="#DejaVuSans-20" transform="translate(154.736328 0)"/>
      <use xlink:href="#DejaVuSans-32" transform="translate(186.523438 0)"/>
     </g>
    </g>
   </g>
  </g>
 </g>
 <defs>
  <clipPath id="pe712adeea2">
   <rect x="38.482813" y="7.2" width="523.117187" height="235.075938"/>
  </clipPath>
 </defs>
</svg>
