<?xml version="1.0" encoding="utf-8" standalone="no"?>
<!DOCTYPE svg PUBLIC "-//W3C//DTD SVG 1.1//EN"
  "http://www.w3.org/Graphics/SVG/1.1/DTD/svg11.dtd">
<svg xmlns:xlink="http://www.w3.org/1999/xlink" width="568.8pt" height="280.8pt" viewBox="0 0 568.8 280.8" xmlns="http://www.w3.org/2000/svg" version="1.1">
 <metadata>
  <rdf:RDF xmlns:dc="http://purl.org/dc/elements/1.1/" xmlns:cc="http://creativecommons.org/ns#" xmlns:rdf="http://www.w3.org/1999/02/22-rdf-syntax-ns#">
   <cc:Work>
    <dc:type rdf:resource="http://purl.org/dc/dcmitype/StillImage"/>
    <dc:date>2026-06-11T19:03:26.765914</dc:date>
    <dc:format>image/svg+xml</dc:format>
    <dc:creator>
     <cc:Agent>
      <dc:title>Matplotlib v3.10.9, https://matplotlib.org/</dc:title>
     </cc:Agent>
    </dc:creator>
   </cc:Work>
  </rdf:RDF>
 </metadata>
 <defs>
  <style type="text/css">*{stroke-linejoin: round; stroke-linecap: butt}</style>
 </defs>
 <g id="figure_1">
  <g id="patch_1">
   <path d="M 0 280.8 
L 568.8 280.8 
L 568.8 0 
L 0 0 
L 0 280.8 
z
" style="fill: none"/>
  </g>
  <g id="axes_1">
   <g id="patch_2">
    <path d="M 38.482813 242.275937 
L 561.6 242.275937 
L 561.6 7.2 
L 38.482813 7.2 
L 38.482813 242.275937 
z
" style="fill: none"/>
   </g>
   <g id="matplotlib.axis_1">
    <g id="xtick_1">
     <g id="line2d_1">
      <path d="M 62.260866 242.275937 
L 62.260866 7.2 
" clip-path="url(#paa8f0fb82c)" style="fill: none; stroke-dasharray: 2.96,1.28; stroke-dashoffset: 0; stroke: #7f7f7f; stroke-opacity: 0.6; stroke-width: 0.8"/>
     </g>
     <g id="line2d_2">
      <defs>
       <path id="me532658d53" d="M 0 0 
L 0 3.5 
" style="stroke: #7f7f7f; stroke-width: 1.8"/>
      </defs>
      <g>
       <use xlink:href="#me532658d53" x="62.260866" y="242.275937" style="fill: #7f7f7f; stroke: #7f7f7f; stroke-width: 1.8"/>
      </g>
     </g>
     <g id="text_1">
      <!-- 0 -->
      <g style="fill: #7f7f7f" transform="translate(59.079616 256.874375) scale(0.1 -0.1)">
       <defs>
        <path id="DejaVuSans-30" d="M 2034 4250 
Q 1547 4250 1301 3770 
Q 1056 3291 1056 2328 
Q 1056 1369 1301 889 
Q 1547 409 2034 409 
Q 2525 409 2770 889 
Q 3016 1369 3016 2328 
Q 3016 3291 2770 3770 
Q 2525 4250 2034 4250 
z
M 2034 4750 
Q 2819 4750 3233 4129 
Q 3647 3509 3647 2328 
Q 3647 1150 3233 529 
Q 2819 -91 2034 -91 
Q 1250 -91 836 529 
Q 422 1150 422 2328 
Q 422 3509 836 4129 
Q 1250 4750 2034 4750 
z
" transform="scale(0.015625)"/>
       </defs>
       <use xlink:href="#DejaVuSans-30"/>
      </g>
     </g>
    </g>
    <g id="xtick_2">
     <g id="line2d_3">
      <path d="M 157.373082 242.275937 
L 157.373082 7.2 
" clip-path="url(#paa8f0fb82c)" style="fill: none; stroke-dasharray: 2.96,1.28; stroke-dashoffset: 0; stroke: #7f7f7f; stroke-opacity: 0.6; stroke-width: 0.8"/>
     </g>
     <g id="line2d_4">
      <g>
       <use xlink:href="#me532658d53" x="157.373082" y="242.275937" style="fill: #7f7f7f; stroke: #7f7f7f; stroke-width: 1.8"/>
      </g>
     </g>
     <g id="text_2">
      <!-- 20 -->
      <g style="fill: #7f7f7f" transform="translate(151.010582 256.874375) scale(0.1 -0.1)">
       <defs>
        <path id="DejaVuSans-32" d="M 1228 531 
L 3431 531 
L 3431 0 
L 469 0 
L 469 531 
Q 828 903 1448 1529 
Q 2069 2156 2228 2338 
Q 2531 2678 2651 2914 
Q 2772 3150 2772 3378 
Q 2772 3750 2511 3984 
Q 2250 4219 1831 4219 
Q 1534 4219 1204 4116 
Q 875 4013 500 3803 
L 500 4441 
Q 881 4594 1212 4672 
Q 1544 4750 1819 4750 
Q 2544 4750 2975 4387 
Q 3406 4025 3406 3419 
Q 3406 3131 3298 2873 
Q 3191 2616 2906 2266 
Q 2828 2175 2409 1742 
Q 1991 1309 1228 531 
z
" transform="scale(0.015625)"/>
       </defs>
       <use xlink:href="#DejaVuSans-32"/>
       <use xlink:href="#DejaVuSans-30" transform="translate(63.623047 0)"/>
      </g>
     </g>
    </g>
    <g id="xtick_3">
     <g id="line2d_5">
      <path d="M 252.485298 242.275937 
L 252.485298 7.2 
" clip-path="url(#paa8f0fb82c)" style="fill: none; stroke-dasharray: 2.96,1.28; stroke-dashoffset: 0; stroke: #7f7f7f; stroke-opacity: 0.6; stroke-width: 0.8"/>
     </g>
     <g id="line2d_6">
      <g>
       <use xlink:href="#me532658d53" x="252.485298" y="242.275937" style="fill: #7f7f7f; stroke: #7f7f7f; stroke-width: 1.8"/>
      </g>
     </g>
     <g id="text_3">
      <!-- 40 -->
      <g style="fill: #7f7f7f" transform="translate(246.122798 256.874375) scale(0.1 -0.1)">
       <defs>
        <path id="DejaVuSans-34" d="M 2419 4116 
L 825 1625 
L 2419 1625 
L 2419 4116 
z
M 2253 4666 
L 3047 4666 
L 3047 1625 
L 3713 1625 
L 3713 1100 
L 3047 1100 
L 3047 0 
L 2419 0 
L 2419 1100 
L 313 1100 
L 313 1709 
L 2253 4666 
z
" transform="scale(0.015625)"/>
       </defs>
       <use xlink:href="#DejaVuSans-34"/>
       <use xlink:href="#DejaVuSans-30" transform="translate(63.623047 0)"/>
      </g>
     </g>
    </g>
    <g id="xtick_4">
     <g id="line2d_7">
      <path d="M 347.597514 242.275937 
L 347.597514 7.2 
" clip-path="url(#paa8f0fb82c)" style="fill: none; stroke-dasharray: 2.96,1.28; stroke-dashoffset: 0; stroke: #7f7f7f; stroke-opacity: 0.6; stroke-width: 0.8"/>
     </g>
     <g id="line2d_8">
      <g>
       <use xlink:href="#me532658d53" x="347.597514" y="242.275937" style="fill: #7f7f7f; stroke: #7f7f7f; stroke-width: 1.8"/>
      </g>
     </g>
     <g id="text_4">
      <!-- 60 -->
      <g style="fill: #7f7f7f" transform="translate(341.235014 256.874375) scale(0.1 -0.1)">
       <defs>
        <path id="DejaVuSans-36" d="M 2113 2584 
Q 1688 2584 1439 2293 
Q 1191 2003 1191 1497 
Q 1191 994 1439 701 
Q 1688 409 2113 409 
Q 2538 409 2786 701 
Q 3034 994 3034 1497 
Q 3034 2003 2786 2293 
Q 2538 2584 2113 2584 
z
M 3366 4563 
L 3366 3988 
Q 3128 4100 2886 4159 
Q 2644 4219 2406 4219 
Q 1781 4219 1451 3797 
Q 1122 3375 1075 2522 
Q 1259 2794 1537 2939 
Q 1816 3084 2150 3084 
Q 2853 3084 3261 2657 
Q 3669 2231 3669 1497 
Q 3669 778 3244 343 
Q 2819 -91 2113 -91 
Q 1303 -91 875 529 
Q 447 1150 447 2328 
Q 447 3434 972 4092 
Q 1497 4750 2381 4750 
Q 2619 4750 2861 4703 
Q 3103 4656 3366 4563 
z
" transform="scale(0.015625)"/>
       </defs>
       <use xlink:href="#DejaVuSans-36"/>
       <use xlink:href="#DejaVuSans-30" transform="translate(63.623047 0)"/>
      </g>
     </g>
    </g>
    <g id="xtick_5">
     <g id="line2d_9">
      <path d="M 442.70973 242.275937 
L 442.70973 7.2 
" clip-path="url(#paa8f0fb82c)" style="fill: none; stroke-dasharray: 2.96,1.28; stroke-dashoffset: 0; stroke: #7f7f7f; stroke-opacity: 0.6; stroke-width: 0.8"/>
     </g>
     <g id="line2d_10">
      <g>
       <use xlink:href="#me532658d53" x="442.70973" y="242.275937" style="fill: #7f7f7f; stroke: #7f7f7f; stroke-width: 1.8"/>
      </g>
     </g>
     <g id="text_5">
      <!-- 80 -->
      <g style="fill: #7f7f7f" transform="translate(436.34723 256.874375) scale(0.1 -0.1)">
       <defs>
        <path id="DejaVuSans-38" d="M 2034 2216 
Q 1584 2216 1326 1975 
Q 1069 1734 1069 1313 
Q 1069 891 1326 650 
Q 1584 409 2034 409 
Q 2484 409 2743 651 
Q 3003 894 3003 1313 
Q 3003 1734 2745 1975 
Q 2488 2216 2034 2216 
z
M 1403 2484 
Q 997 2584 770 2862 
Q 544 3141 544 3541 
Q 544 4100 942 4425 
Q 1341 4750 2034 4750 
Q 2731 4750 3128 4425 
Q 3525 4100 3525 3541 
Q 3525 3141 3298 2862 
Q 3072 2584 2669 2484 
Q 3125 2378 3379 2068 
Q 3634 1759 3634 1313 
Q 3634 634 3220 271 
Q 2806 -91 2034 -91 
Q 1263 -91 848 271 
Q 434 634 434 1313 
Q 434 1759 690 2068 
Q 947 2378 1403 2484 
z
M 1172 3481 
Q 1172 3119 1398 2916 
Q 1625 2713 2034 2713 
Q 2441 2713 2670 2916 
Q 2900 3119 2900 3481 
Q 2900 3844 2670 4047 
Q 2441 4250 2034 4250 
Q 1625 4250 1398 4047 
Q 1172 3844 1172 3481 
z
" transform="scale(0.015625)"/>
       </defs>
       <use xlink:href="#DejaVuSans-38"/>
       <use xlink:href="#DejaVuSans-30" transform="translate(63.623047 0)"/>
      </g>
     </g>
    </g>
    <g id="xtick_6">
     <g id="line2d_11">
      <path d="M 537.821946 242.275937 
L 537.821946 7.2 
" clip-path="url(#paa8f0fb82c)" style="fill: none; stroke-dasharray: 2.96,1.28; stroke-dashoffset: 0; stroke: #7f7f7f; stroke-opacity: 0.6; stroke-width: 0.8"/>
     </g>
     <g id="line2d_12">
      <g>
       <use xlink:href="#me532658d53" x="537.821946" y="242.275937" style="fill: #7f7f7f; stroke: #7f7f7f; stroke-width: 1.8"/>
      </g>
     </g>
     <g id="text_6">
      <!-- 100 -->
      <g style="fill: #7f7f7f" transform="translate(528.278196 256.874375) scale(0.1 -0.1)">
       <defs>
        <path id="DejaVuSans-31" d="M 794 531 
L 1825 531 
L 1825 4091 
L 703 3866 
L 703 4441 
L 1819 4666 
L 2450 4666 
L 2450 531 
L 3481 531 
L 3481 0 
L 794 0 
L 794 531 
z
" transform="scale(0.015625)"/>
       </defs>
       <use xlink:href="#DejaVuSans-31"/>
       <use xlink:href="#DejaVuSans-30" transform="translate(63.623047 0)"/>
       <use xlink:href="#DejaVuSans-30" transform="translate(127.246094 0)"/>
      </g>
     </g>
    </g>
    <g id="text_7">
     <!-- time [s] -->
     <g style="fill: #7f7f7f" transform="translate(278.710859 271.312344) scale(0.11 -0.11)">
      <defs>
       <path id="DejaVuSans-74" d="M 1172 4494 
L 1172 3500 
L 2356 3500 
L 2356 3053 
L 1172 3053 
L 1172 1153 
Q 1172 725 1289 603 
Q 1406 481 1766 481 
L 2356 481 
L 2356 0 
L 1766 0 
Q 1100 0 847 248 
Q 594 497 594 1153 
L 594 3053 
L 172 3053 
L 172 3500 
L 594 3500 
L 594 4494 
L 1172 4494 
z
" transform="scale(0.015625)"/>
       <path id="DejaVuSans-69" d="M 603 3500 
L 1178 3500 
L 1178 0 
L 603 0 
L 603 3500 
z
M 603 4863 
L 1178 4863 
L 1178 4134 
L 603 4134 
L 603 4863 
z
" transform="scale(0.015625)"/>
       <path id="DejaVuSans-6d" d="M 3328 2828 
Q 3544 3216 3844 3400 
Q 4144 3584 4550 3584 
Q 5097 3584 5394 3201 
Q 5691 2819 5691 2113 
L 5691 0 
L 5113 0 
L 5113 2094 
Q 5113 2597 4934 2840 
Q 4756 3084 4391 3084 
Q 3944 3084 3684 2787 
Q 3425 2491 3425 1978 
L 3425 0 
L 2847 0 
L 2847 2094 
Q 2847 2600 2669 2842 
Q 2491 3084 2119 3084 
Q 1678 3084 1418 2786 
Q 1159 2488 1159 1978 
L 1159 0 
L 581 0 
L 581 3500 
L 1159 3500 
L 1159 2956 
Q 1356 3278 1631 3431 
Q 1906 3584 2284 3584 
Q 2666 3584 2933 3390 
Q 3200 3197 3328 2828 
z
" transform="scale(0.015625)"/>
       <path id="DejaVuSans-65" d="M 3597 1894 
L 3597 1613 
L 953 1613 
Q 991 1019 1311 708 
Q 1631 397 2203 397 
Q 2534 397 2845 478 
Q 3156 559 3463 722 
L 3463 178 
Q 3153 47 2828 -22 
Q 2503 -91 2169 -91 
Q 1331 -91 842 396 
Q 353 884 353 1716 
Q 353 2575 817 3079 
Q 1281 3584 2069 3584 
Q 2775 3584 3186 3129 
Q 3597 2675 3597 1894 
z
M 3022 2063 
Q 3016 2534 2758 2815 
Q 2500 3097 2075 3097 
Q 1594 3097 1305 2825 
Q 1016 2553 972 2059 
L 3022 2063 
z
" transform="scale(0.015625)"/>
       <path id="DejaVuSans-20" transform="scale(0.015625)"/>
       <path id="DejaVuSans-5b" d="M 550 4863 
L 1875 4863 
L 1875 4416 
L 1125 4416 
L 1125 -397 
L 1875 -397 
L 1875 -844 
L 550 -844 
L 550 4863 
z
" transform="scale(0.015625)"/>
       <path id="DejaVuSans-73" d="M 2834 3397 
L 2834 2853 
Q 2591 2978 2328 3040 
Q 2066 3103 1784 3103 
Q 1356 3103 1142 2972 
Q 928 2841 928 2578 
Q 928 2378 1081 2264 
Q 1234 2150 1697 2047 
L 1894 2003 
Q 2506 1872 2764 1633 
Q 3022 1394 3022 966 
Q 3022 478 2636 193 
Q 2250 -91 1575 -91 
Q 1294 -91 989 -36 
Q 684 19 347 128 
L 347 722 
Q 666 556 975 473 
Q 1284 391 1588 391 
Q 1994 391 2212 530 
Q 2431 669 2431 922 
Q 2431 1156 2273 1281 
Q 2116 1406 1581 1522 
L 1381 1569 
Q 847 1681 609 1914 
Q 372 2147 372 2553 
Q 372 3047 722 3315 
Q 1072 3584 1716 3584 
Q 2034 3584 2315 3537 
Q 2597 3491 2834 3397 
z
" transform="scale(0.015625)"/>
       <path id="DejaVuSans-5d" d="M 1947 4863 
L 1947 -844 
L 622 -844 
L 622 -397 
L 1369 -397 
L 1369 4416 
L 622 4416 
L 622 4863 
L 1947 4863 
z
" transform="scale(0.015625)"/>
      </defs>
      <use xlink:href="#DejaVuSans-74"/>
      <use xlink:href="#DejaVuSans-69" transform="translate(39.208984 0)"/>
      <use xlink:href="#DejaVuSans-6d" transform="translate(66.992188 0)"/>
      <use xlink:href="#DejaVuSans-65" transform="translate(164.404297 0)"/>
      <use xlink:href="#DejaVuSans-20" transform="translate(225.927734 0)"/>
      <use xlink:href="#DejaVuSans-5b" transform="translate(257.714844 0)"/>
      <use xlink:href="#DejaVuSans-73" transform="translate(296.728516 0)"/>
      <use xlink:href="#DejaVuSans-5d" transform="translate(348.828125 0)"/>
     </g>
    </g>
   </g>
   <g id="matplotlib.axis_2">
    <g id="ytick_1">
     <g id="line2d_13">
      <path d="M 38.482813 234.608821 
L 561.6 234.608821 
" clip-path="url(#paa8f0fb82c)" style="fill: none; stroke-dasharray: 2.96,1.28; stroke-dashoffset: 0; stroke: #7f7f7f; stroke-opacity: 0.6; stroke-width: 0.8"/>
     </g>
     <g id="line2d_14">
      <defs>
       <path id="md859efe805" d="M 0 0 
L -3.5 0 
" style="stroke: #7f7f7f; stroke-width: 1.8"/>
      </defs>
      <g>
       <use xlink:href="#md859efe805" x="38.482813" y="234.608821" style="fill: #7f7f7f; stroke: #7f7f7f; stroke-width: 1.8"/>
      </g>
     </g>
     <g id="text_8">
      <!-- −0.2 -->
      <g style="fill: #7f7f7f" transform="translate(7.2 238.40804) scale(0.1 -0.1)">
       <defs>
        <path id="DejaVuSans-2212" d="M 678 2272 
L 4684 2272 
L 4684 1741 
L 678 1741 
L 678 2272 
z
" transform="scale(0.015625)"/>
        <path id="DejaVuSans-2e" d="M 684 794 
L 1344 794 
L 1344 0 
L 684 0 
L 684 794 
z
" transform="scale(0.015625)"/>
       </defs>
       <use xlink:href="#DejaVuSans-2212"/>
       <use xlink:href="#DejaVuSans-30" transform="translate(83.789062 0)"/>
       <use xlink:href="#DejaVuSans-2e" transform="translate(147.412109 0)"/>
       <use xlink:href="#DejaVuSans-32" transform="translate(179.199219 0)"/>
      </g>
     </g>
    </g>
    <g id="ytick_2">
     <g id="line2d_15">
      <path d="M 38.482813 200.590917 
L 561.6 200.590917 
" clip-path="url(#paa8f0fb82c)" style="fill: none; stroke-dasharray: 2.96,1.28; stroke-dashoffset: 0; stroke: #7f7f7f; stroke-opacity: 0.6; stroke-width: 0.8"/>
     </g>
     <g id="line2d_16">
      <g>
       <use xlink:href="#md859efe805" x="38.482813" y="200.590917" style="fill: #7f7f7f; stroke: #7f7f7f; stroke-width: 1.8"/>
      </g>
     </g>
     <g id="text_9">
      <!-- 0.0 -->
      <g style="fill: #7f7f7f" transform="translate(15.579688 204.390135) scale(0.1 -0.1)">
       <use xlink:href="#DejaVuSans-30"/>
       <use xlink:href="#DejaVuSans-2e" transform="translate(63.623047 0)"/>
       <use xlink:href="#DejaVuSans-30" transform="translate(95.410156 0)"/>
      </g>
     </g>
    </g>
    <g id="ytick_3">
     <g id="line2d_17">
      <path d="M 38.482813 166.573012 
L 561.6 166.573012 
" clip-path="url(#paa8f0fb82c)" style="fill: none; stroke-dasharray: 2.96,1.28; stroke-dashoffset: 0; stroke: #7f7f7f; stroke-opacity: 0.6; stroke-width: 0.8"/>
     </g>
     <g id="line2d_18">
      <g>
       <use xlink:href="#md859efe805" x="38.482813" y="166.573012" style="fill: #7f7f7f; stroke: #7f7f7f; stroke-width: 1.8"/>
      </g>
     </g>
     <g id="text_10">
      <!-- 0.2 -->
      <g style="fill: #7f7f7f" transform="translate(15.579688 170.372231) scale(0.1 -0.1)">
       <use xlink:href="#DejaVuSans-30"/>
       <use xlink:href="#DejaVuSans-2e" transform="translate(63.623047 0)"/>
       <use xlink:href="#DejaVuSans-32" transform="translate(95.410156 0)"/>
      </g>
     </g>
    </g>
    <g id="ytick_4">
     <g id="line2d_19">
      <path d="M 38.482813 132.555107 
L 561.6 132.555107 
" clip-path="url(#paa8f0fb82c)" style="fill: none; stroke-dasharray: 2.96,1.28; stroke-dashoffset: 0; stroke: #7f7f7f; stroke-opacity: 0.6; stroke-width: 0.8"/>
     </g>
     <g id="line2d_20">
      <g>
       <use xlink:href="#md859efe805" x="38.482813" y="132.555107" style="fill: #7f7f7f; stroke: #7f7f7f; stroke-width: 1.8"/>
      </g>
     </g>
     <g id="text_11">
      <!-- 0.4 -->
      <g style="fill: #7f7f7f" transform="translate(15.579688 136.354326) scale(0.1 -0.1)">
       <use xlink:href="#DejaVuSans-30"/>
       <use xlink:href="#DejaVuSans-2e" transform="translate(63.623047 0)"/>
       <use xlink:href="#DejaVuSans-34" transform="translate(95.410156 0)"/>
      </g>
     </g>
    </g>
    <g id="ytick_5">
     <g id="line2d_21">
      <path d="M 38.482813 98.537203 
L 561.6 98.537203 
" clip-path="url(#paa8f0fb82c)" style="fill: none; stroke-dasharray: 2.96,1.28; stroke-dashoffset: 0; stroke: #7f7f7f; stroke-opacity: 0.6; stroke-width: 0.8"/>
     </g>
     <g id="line2d_22">
      <g>
       <use xlink:href="#md859efe805" x="38.482813" y="98.537203" style="fill: #7f7f7f; stroke: #7f7f7f; stroke-width: 1.8"/>
      </g>
     </g>
     <g id="text_12">
      <!-- 0.6 -->
      <g style="fill: #7f7f7f" transform="translate(15.579688 102.336422) scale(0.1 -0.1)">
       <use xlink:href="#DejaVuSans-30"/>
       <use xlink:href="#DejaVuSans-2e" transform="translate(63.623047 0)"/>
       <use xlink:href="#DejaVuSans-36" transform="translate(95.410156 0)"/>
      </g>
     </g>
    </g>
    <g id="ytick_6">
     <g id="line2d_23">
      <path d="M 38.482813 64.519298 
L 561.6 64.519298 
" clip-path="url(#paa8f0fb82c)" style="fill: none; stroke-dasharray: 2.96,1.28; stroke-dashoffset: 0; stroke: #7f7f7f; stroke-opacity: 0.6; stroke-width: 0.8"/>
     </g>
     <g id="line2d_24">
      <g>
       <use xlink:href="#md859efe805" x="38.482813" y="64.519298" style="fill: #7f7f7f; stroke: #7f7f7f; stroke-width: 1.8"/>
      </g>
     </g>
     <g id="text_13">
      <!-- 0.8 -->
      <g style="fill: #7f7f7f" transform="translate(15.579688 68.318517) scale(0.1 -0.1)">
       <use xlink:href="#DejaVuSans-30"/>
       <use xlink:href="#DejaVuSans-2e" transform="translate(63.623047 0)"/>
       <use xlink:href="#DejaVuSans-38" transform="translate(95.410156 0)"/>
      </g>
     </g>
    </g>
    <g id="ytick_7">
     <g id="line2d_25">
      <path d="M 38.482813 30.501394 
L 561.6 30.501394 
" clip-path="url(#paa8f0fb82c)" style="fill: none; stroke-dasharray: 2.96,1.28; stroke-dashoffset: 0; stroke: #7f7f7f; stroke-opacity: 0.6; stroke-width: 0.8"/>
     </g>
     <g id="line2d_26">
      <g>
       <use xlink:href="#md859efe805" x="38.482813" y="30.501394" style="fill: #7f7f7f; stroke: #7f7f7f; stroke-width: 1.8"/>
      </g>
     </g>
     <g id="text_14">
      <!-- 1.0 -->
      <g style="fill: #7f7f7f" transform="translate(15.579688 34.300612) scale(0.1 -0.1)">
       <use xlink:href="#DejaVuSans-31"/>
       <use xlink:href="#DejaVuSans-2e" transform="translate(63.623047 0)"/>
       <use xlink:href="#DejaVuSans-30" transform="translate(95.410156 0)"/>
      </g>
     </g>
    </g>
   </g>
   <g id="line2d_27">
    <path d="M 62.260866 200.590917 
L 157.373054 200.590917 
L 158.269131 30.501394 
L 347.59751 30.501394 
L 348.438999 115.546155 
L 537.821946 115.546155 
L 537.821946 115.546155 
" clip-path="url(#paa8f0fb82c)" style="fill: none; stroke: #e41a1c; stroke-width: 2; stroke-linecap: square"/>
   </g>
   <g id="line2d_28">
    <path d="M 62.260866 200.590917 
L 62.370634 201.831469 
L 63.160742 199.502988 
L 64.320976 201.053798 
L 65.430226 199.752207 
L 65.756665 200.203309 
L 67.993181 200.64819 
L 71.053308 200.672613 
L 71.337825 201.312787 
L 71.935653 200.431967 
L 72.506961 201.107789 
L 72.801804 199.688212 
L 73.337212 200.554403 
L 74.992835 200.411601 
L 75.900379 200.298236 
L 77.125371 200.540478 
L 83.461196 200.255689 
L 84.177842 201.651056 
L 84.554063 200.871312 
L 86.788367 200.130713 
L 88.947767 201.565261 
L 90.192532 200.493126 
L 90.617186 201.155119 
L 91.282994 200.545387 
L 91.592976 200.618557 
L 91.980101 201.756692 
L 92.565113 201.127289 
L 93.126725 199.668357 
L 93.659615 201.077295 
L 94.830207 200.749471 
L 98.011177 200.286788 
L 99.614782 201.465319 
L 99.917093 200.605158 
L 100.305439 199.976869 
L 100.691147 200.927395 
L 103.993903 200.102124 
L 104.774486 201.024691 
L 105.084355 200.535999 
L 106.51317 199.901345 
L 106.809356 200.744022 
L 108.188767 200.890823 
L 110.849418 200.291168 
L 111.23953 199.575087 
L 111.844924 200.081363 
L 112.989459 200.614756 
L 113.412723 199.786982 
L 113.827359 200.720023 
L 117.060787 200.655549 
L 118.434056 200.452803 
L 119.817335 200.506935 
L 121.987953 199.181616 
L 123.359662 200.992844 
L 125.72012 200.887716 
L 126.880616 200.76868 
L 128.540272 199.560756 
L 128.950515 200.441365 
L 138.175687 200.284957 
L 138.903884 199.714743 
L 139.33485 200.409863 
L 141.335523 201.324109 
L 142.816945 200.611656 
L 143.922503 200.950137 
L 145.192039 200.3473 
L 145.55714 201.0932 
L 146.297197 200.582088 
L 148.433345 200.925841 
L 148.803253 199.828323 
L 149.171025 200.38425 
L 150.446693 201.51494 
L 151.826343 199.602231 
L 152.61558 201.144004 
L 152.971707 199.919666 
L 153.785561 200.114674 
L 155.1892 199.921857 
L 157.364764 199.960063 
L 157.37327 225.63479 
L 157.37292 194.49414 
L 158.269131 200.021918 
L 158.420288 198.977737 
L 158.760631 200.167767 
L 159.133555 200.022001 
L 160.757235 200.810016 
L 160.970286 199.953212 
L 161.630554 200.030805 
L 162.117886 199.734086 
L 162.366429 200.950181 
L 163.814802 198.426093 
L 168.790692 185.303708 
L 175.531667 151.195235 
L 183.376987 104.915956 
L 194.538484 53.179941 
L 206.449585 24.668737 
L 208.109237 22.644834 
L 209.910551 21.035888 
L 212.394399 18.353654 
L 212.950134 19.363897 
L 213.468958 18.732179 
L 215.914483 18.216173 
L 217.948515 18.420707 
L 219.331823 18.420396 
L 223.764406 18.485752 
L 225.27372 19.738123 
L 225.675544 20.291759 
L 226.037419 19.709929 
L 227.169191 20.113742 
L 231.24393 22.143734 
L 231.670695 21.237172 
L 232.077845 23.499157 
L 232.83234 22.911206 
L 235.244514 23.826222 
L 241.237924 26.70527 
L 241.708744 25.881884 
L 242.134548 26.922234 
L 243.40626 27.576979 
L 243.813538 28.373951 
L 244.204797 27.70751 
L 244.917796 27.557825 
L 246.407505 28.804062 
L 248.393708 29.201301 
L 251.268101 29.57343 
L 258.230929 30.094127 
L 258.587324 29.245169 
L 258.960376 31.260095 
L 259.687377 29.929894 
L 260.04883 31.140648 
L 260.838714 30.681653 
L 261.883802 30.567035 
L 263.038588 31.411026 
L 264.200745 30.399434 
L 265.373152 31.506458 
L 269.520527 31.144619 
L 270.307204 31.929812 
L 270.709716 31.235233 
L 271.07947 30.534993 
L 271.860187 31.141061 
L 273.054879 31.53812 
L 274.337129 30.894712 
L 274.732451 31.923393 
L 275.590006 31.435254 
L 277.62434 31.045565 
L 279.341631 31.557552 
L 283.086034 30.917465 
L 284.782096 31.554715 
L 285.191613 31.155069 
L 285.609599 32.190316 
L 285.993831 31.529977 
L 288.198411 30.826478 
L 288.615536 31.594419 
L 289.035644 31.061619 
L 289.388575 29.969232 
L 289.749443 30.994598 
L 290.601141 30.811417 
L 291.050351 30.378762 
L 291.474232 31.247467 
L 302.471988 30.769332 
L 302.936113 30.172212 
L 303.314789 31.395517 
L 304.191071 30.881977 
L 304.993435 31.362149 
L 305.774327 30.094025 
L 306.580654 31.050912 
L 307.753006 30.04158 
L 309.752412 31.02785 
L 310.140313 30.169952 
L 310.534918 30.520721 
L 311.677759 31.314719 
L 312.836064 30.738148 
L 318.677416 30.697944 
L 319.096318 29.59613 
L 319.490346 30.782705 
L 323.41236 30.040672 
L 324.503261 30.746242 
L 326.477147 29.827117 
L 330.964631 30.331718 
L 333.266125 30.806319 
L 334.487245 30.931583 
L 335.810708 30.298095 
L 336.228109 31.1484 
L 336.641178 30.892151 
L 337.951151 30.561512 
L 347.5663 29.744976 
L 347.597974 20.828077 
L 347.598969 37.100096 
L 348.438999 29.861885 
L 349.435046 30.903134 
L 351.8881 30.215175 
L 353.571801 30.931994 
L 355.21623 32.88466 
L 356.801996 34.701322 
L 357.172731 34.342082 
L 370.138113 68.375693 
L 375.558055 84.079315 
L 378.596576 90.926286 
L 380.336148 95.156751 
L 388.371812 109.817075 
L 388.773039 110.097078 
L 390.598756 113.143866 
L 393.962578 116.276112 
L 394.36895 115.981809 
L 395.563909 118.100395 
L 400.378627 119.403114 
L 400.719678 121.024262 
L 401.181775 120.318306 
L 402.948198 120.740769 
L 404.149572 122.21156 
L 405.039218 120.974779 
L 405.540952 121.81421 
L 408.323031 121.469362 
L 408.8008 122.367146 
L 409.246739 121.700361 
L 409.74067 120.745115 
L 410.213225 121.265211 
L 411.752909 122.192835 
L 412.173794 121.544547 
L 412.71985 122.381667 
L 416.446053 120.422926 
L 419.399268 121.105086 
L 419.808812 119.607305 
L 420.212816 120.199479 
L 420.851527 121.190936 
L 421.241445 120.220278 
L 423.568188 118.835599 
L 425.108409 119.536004 
L 426.776754 118.29026 
L 427.18621 118.925397 
L 427.626271 118.458556 
L 434.730822 116.572145 
L 435.068507 117.985942 
L 435.476092 117.545497 
L 436.658959 117.256897 
L 438.600027 115.851682 
L 439.461291 116.214339 
L 440.228356 115.083775 
L 441.488555 116.190476 
L 442.758876 115.299059 
L 444.723305 115.420723 
L 446.84872 114.918821 
L 447.195595 116.008068 
L 447.975239 115.486456 
L 449.305591 115.528831 
L 451.399056 115.753493 
L 451.801477 116.548582 
L 452.183584 115.19101 
L 453.009973 115.485813 
L 454.647092 114.774603 
L 458.649588 115.248469 
L 460.327058 114.717529 
L 463.26674 114.536856 
L 463.666701 115.488786 
L 464.389678 115.010102 
L 465.54046 115.470496 
L 465.973874 116.090411 
L 466.365427 115.409144 
L 468.471639 114.657247 
L 470.267296 115.781803 
L 474.935627 114.532572 
L 475.297723 115.802586 
L 475.670682 115.288432 
L 486.485889 114.87709 
L 487.665677 116.058204 
L 488.406811 114.84451 
L 490.073756 115.715671 
L 493.877486 115.724939 
L 494.297202 116.256194 
L 494.726345 115.282816 
L 497.250652 115.730101 
L 497.624408 115.039964 
L 498.037939 116.159541 
L 498.428225 115.551407 
L 499.200973 115.400432 
L 500.503264 115.774786 
L 502.143525 115.205975 
L 503.860579 115.591288 
L 505.792321 115.485411 
L 509.887132 115.320629 
L 511.559473 115.225652 
L 512.369664 115.922581 
L 513.58876 115.2101 
L 516.26639 115.638017 
L 521.509191 114.985618 
L 521.880919 114.652205 
L 522.273711 115.148871 
L 522.630831 116.335438 
L 523.364563 115.721497 
L 523.813245 116.085786 
L 524.171094 114.494265 
L 524.530683 115.576201 
L 525.749102 115.775082 
L 526.937494 115.312663 
L 529.025269 115.614921 
L 529.772367 115.26893 
L 530.193472 116.12211 
L 530.592728 115.477979 
L 536.315319 116.170028 
L 537.821946 115.265381 
L 537.821946 115.265381 
" clip-path="url(#paa8f0fb82c)" style="fill: none; stroke: #377eb8; stroke-width: 2; stroke-linecap: square"/>
   </g>
   <g id="line2d_29">
    <path d="M 62.260866 200.590917 
L 62.308423 202.523084 
L 62.910592 199.916515 
L 63.160742 200.621877 
L 63.762138 199.316567 
L 64.320976 200.223602 
L 64.884601 201.332671 
L 65.171155 199.899905 
L 65.430226 200.583726 
L 66.329924 201.228275 
L 66.04063 199.852608 
L 66.594277 200.509295 
L 67.612592 200.936922 
L 69.168232 201.25173 
L 69.796444 199.606735 
L 70.063483 200.44432 
L 70.417603 201.082595 
L 70.748783 200.089908 
L 71.644365 199.677698 
L 72.801804 201.387942 
L 73.079992 199.971861 
L 73.733335 200.735474 
L 77.500299 200.840242 
L 79.657669 200.153016 
L 80.822563 200.93046 
L 81.180192 200.084698 
L 81.463001 201.657023 
L 81.730934 200.984057 
L 84.177842 200.754949 
L 86.788367 200.729596 
L 87.07257 199.39939 
L 87.720133 200.315291 
L 88.372732 199.592564 
L 89.347972 200.756875 
L 90.617186 200.381929 
L 91.282994 201.317638 
L 91.592976 200.959307 
L 94.830207 200.426669 
L 96.884759 200.593948 
L 97.356674 200.23793 
L 98.328689 201.172342 
L 99.317916 200.006428 
L 99.614782 201.228172 
L 100.305439 200.758105 
L 101.509474 200.888266 
L 102.637806 200.673813 
L 108.613113 200.294178 
L 108.975895 201.246113 
L 109.679388 200.89124 
L 111.23953 201.147568 
L 111.553306 201.563897 
L 111.844924 200.584951 
L 113.827359 200.689668 
L 114.504097 199.642921 
L 115.209376 200.279029 
L 116.062985 200.348198 
L 116.496895 200.075012 
L 116.792095 201.707576 
L 117.438174 200.167963 
L 118.434056 201.338891 
L 119.552522 199.74719 
L 120.56044 200.564759 
L 120.972586 200.22257 
L 121.299349 201.39407 
L 121.987953 200.573446 
L 122.315486 199.874379 
L 122.629864 200.154995 
L 123.772058 200.695181 
L 124.561146 200.011702 
L 124.91884 201.035191 
L 125.72012 200.64338 
L 126.524892 201.18935 
L 126.880616 200.673307 
L 128.950515 200.668537 
L 136.14208 200.695084 
L 137.863197 201.258393 
L 138.175687 200.036025 
L 138.903884 200.732905 
L 140.589234 200.550862 
L 140.981926 199.898704 
L 141.335523 200.171777 
L 142.040168 200.955892 
L 142.419114 200.42099 
L 143.922503 200.335632 
L 145.55714 201.038103 
L 146.297197 200.093276 
L 146.65012 200.406949 
L 149.171025 200.822919 
L 149.869479 199.991177 
L 150.156338 201.294212 
L 150.75095 201.157895 
L 152.237862 200.066916 
L 152.971707 201.018327 
L 153.332858 200.776737 
L 155.618045 200.367169 
L 157.314352 201.219015 
L 157.371743 198.994612 
L 157.372702 203.4722 
L 157.373167 182.968209 
L 157.373542 231.590668 
L 158.269131 200.204416 
L 158.420288 200.322015 
L 159.504956 198.764415 
L 159.690716 198.774917 
L 160.757235 197.667244 
L 161.180028 197.602749 
L 162.366429 195.661077 
L 162.645065 196.202015 
L 162.90149 195.270244 
L 165.055283 193.63412 
L 165.390115 193.538599 
L 165.720113 192.09123 
L 166.436414 192.266694 
L 168.416377 191.272346 
L 169.138149 191.43558 
L 170.598417 190.006096 
L 171.356359 189.376206 
L 172.187306 187.929205 
L 172.587148 188.691156 
L 172.983386 188.672789 
L 174.309307 187.662231 
L 174.712968 186.812861 
L 175.126872 187.147498 
L 176.347201 187.198002 
L 177.906582 185.040957 
L 179.12132 185.813036 
L 180.651213 184.576718 
L 181.875982 184.599882 
L 183.027701 185.087281 
L 183.757461 183.21214 
L 184.11228 184.317019 
L 185.362154 183.569533 
L 186.089236 183.995406 
L 186.472404 183.41011 
L 188.444644 182.228488 
L 188.792245 182.884006 
L 193.289101 181.706408 
L 194.538484 182.551822 
L 209.571655 181.938731 
L 209.910551 183.065359 
L 210.24587 182.327251 
L 211.189518 182.441277 
L 211.523099 183.523427 
L 211.852723 182.713391 
L 215.914483 182.475438 
L 216.956333 181.663453 
L 217.629318 183.506285 
L 218.810243 182.626401 
L 222.977606 183.095563 
L 223.372248 182.705665 
L 223.764406 183.849975 
L 224.151772 183.268972 
L 224.897094 182.476832 
L 225.27372 183.155919 
L 226.588998 183.440944 
L 229.773628 183.1296 
L 241.708744 183.49143 
L 243.006967 184.037191 
L 243.813538 183.406181 
L 244.917796 182.602929 
L 245.260843 183.141118 
L 246.065925 184.454278 
L 246.407505 183.507779 
L 246.78663 182.878008 
L 247.132404 183.561542 
L 248.023899 183.478767 
L 248.393708 182.991745 
L 248.760892 183.456521 
L 249.933237 183.697831 
L 254.613965 183.632647 
L 255.026249 184.01165 
L 255.458378 183.293762 
L 259.302417 184.44232 
L 259.687377 182.754667 
L 260.430639 183.036231 
L 260.838714 182.95994 
L 261.149589 184.72376 
L 261.883802 183.582959 
L 262.272 183.022006 
L 262.637423 183.648388 
L 264.963022 184.128047 
L 266.681747 183.569631 
L 267.929235 184.573552 
L 269.115602 183.149444 
L 270.709716 184.182482 
L 273.921988 183.139208 
L 275.135182 183.850576 
L 276.409281 183.26318 
L 277.62434 184.051601 
L 278.902933 183.245701 
L 282.32187 184.082674 
L 282.712386 182.778719 
L 283.486266 183.123115 
L 283.938817 184.202723 
L 284.375243 183.321376 
L 286.469044 183.50377 
L 289.035644 183.655031 
L 291.050351 183.268902 
L 293.452474 184.119376 
L 293.838519 182.429119 
L 294.191666 183.478851 
L 295.373642 183.467735 
L 298.414781 183.411796 
L 299.645654 182.534789 
L 300.793405 184.43542 
L 301.150076 184.143568 
L 302.030692 183.67869 
L 303.695411 183.48639 
L 304.993435 183.834479 
L 306.173581 183.875254 
L 307.402307 183.239064 
L 308.530632 184.134666 
L 309.752412 183.153462 
L 311.277682 184.192581 
L 312.427206 183.141336 
L 312.836064 183.428034 
L 316.249934 183.376462 
L 317.440736 182.671133 
L 318.261996 183.745994 
L 319.490346 182.984052 
L 320.755162 184.013449 
L 321.636046 183.168934 
L 322.926637 183.63453 
L 323.41236 183.93012 
L 323.753911 182.834478 
L 324.503261 183.771981 
L 326.954796 183.920563 
L 328.20417 182.807623 
L 328.565378 184.169471 
L 328.936929 182.745327 
L 330.964631 183.770673 
L 332.129132 183.07374 
L 333.266125 184.195256 
L 333.616529 183.435647 
L 335.810708 183.444559 
L 337.05575 183.601604 
L 340.397061 183.788383 
L 340.713423 185.251939 
L 341.025646 183.336964 
L 341.391518 184.194769 
L 343.453395 183.313266 
L 344.617996 183.151913 
L 345.973882 183.80276 
L 347.307367 183.392769 
L 347.40742 183.880649 
L 347.46983 185.360946 
L 347.494787 181.213394 
L 347.59751 181.684812 
L 347.597753 159.088638 
L 347.625664 186.34243 
L 348.438999 183.478591 
L 350.758612 184.721705 
L 351.148725 184.160084 
L 352.263416 186.672021 
L 352.706559 185.661271 
L 353.132949 186.384611 
L 356.022748 187.104684 
L 358.041545 188.234667 
L 358.903352 188.231157 
L 359.294049 187.827468 
L 359.664257 188.807226 
L 360.108541 189.275119 
L 360.512517 188.87789 
L 361.664823 188.987495 
L 362.069686 190.06779 
L 362.500304 189.905063 
L 364.544879 189.732053 
L 365.390637 190.071315 
L 366.775463 190.951457 
L 368.456018 190.736982 
L 370.138113 191.441904 
L 371.412475 191.308593 
L 372.707075 192.016037 
L 374.043691 191.193086 
L 375.558055 192.192753 
L 380.336148 192.810004 
L 381.845603 192.226328 
L 383.010298 193.904461 
L 384.13052 192.238796 
L 384.916208 193.227882 
L 385.30047 192.599032 
L 386.856185 193.411567 
L 388.003179 192.340421 
L 389.277357 193.043034 
L 393.962578 193.111919 
L 394.36895 193.339821 
L 394.766927 192.213561 
L 395.563909 192.832042 
L 402.077984 192.955561 
L 404.57617 192.950245 
L 406.057074 192.491888 
L 418.705697 192.007167 
L 419.054246 192.900488 
L 419.399268 192.612939 
L 419.808812 191.704567 
L 420.212816 192.195973 
L 420.53443 193.52619 
L 420.851527 192.467867 
L 421.633812 192.127783 
L 423.077875 192.027551 
L 426.095775 191.962764 
L 426.438273 192.949135 
L 427.18621 192.580329 
L 428.514143 192.059191 
L 433.498334 191.444216 
L 434.389293 192.099312 
L 434.730822 191.062778 
L 435.476092 191.883664 
L 436.223679 192.284858 
L 436.658959 191.835668 
L 437.894648 191.878886 
L 439.05129 192.843461 
L 440.668461 191.936742 
L 441.925627 191.95113 
L 443.951145 192.723172 
L 445.154755 191.884632 
L 446.497444 192.300815 
L 446.84872 191.272717 
L 447.195595 192.678619 
L 448.844821 191.794266 
L 450.237363 191.914777 
L 451.399056 191.99894 
L 453.439973 192.388906 
L 455.012603 191.398277 
L 456.240802 192.45498 
L 457.468287 192.176338 
L 458.283296 191.473516 
L 458.649588 192.871419 
L 459.44997 191.99288 
L 462.389071 192.18868 
L 463.666701 192.761773 
L 465.153167 191.196623 
L 465.973874 192.255784 
L 466.365427 191.790914 
L 467.710858 191.988277 
L 468.110939 191.409776 
L 468.471639 191.846337 
L 470.267296 192.598807 
L 472.543575 191.927623 
L 472.890352 192.745814 
L 473.693168 192.138418 
L 475.670682 192.067248 
L 479.387615 192.444978 
L 479.758173 192.901987 
L 480.124872 192.306616 
L 482.89758 191.859956 
L 485.673903 192.191619 
L 487.273452 191.344901 
L 488.406811 192.043283 
L 489.682733 192.512365 
L 490.073756 192.885607 
L 490.456203 192.283287 
L 490.823237 191.737635 
L 491.188533 192.65671 
L 491.954067 192.010832 
L 492.681052 191.308528 
L 493.052673 191.97898 
L 496.350028 192.295365 
L 498.037939 191.875879 
L 499.200973 192.602829 
L 500.503264 192.020449 
L 501.687441 192.128663 
L 502.143525 192.640349 
L 502.992196 191.491803 
L 503.38238 192.020098 
L 505.123285 192.259608 
L 505.45983 191.105413 
L 505.792321 191.632726 
L 506.618807 192.375428 
L 507.84727 191.678103 
L 509.03829 192.622589 
L 511.139003 192.231299 
L 511.559473 192.56019 
L 511.982113 191.937247 
L 513.170098 192.177249 
L 514.006555 192.28916 
L 515.811432 191.765411 
L 516.791979 191.991708 
L 517.150959 191.353466 
L 517.506842 192.665403 
L 518.671921 192.035585 
L 518.998353 193.24848 
L 519.320847 191.439678 
L 520.432935 192.894356 
L 520.789371 191.906101 
L 521.162078 191.353167 
L 521.509191 192.635758 
L 522.273711 192.412686 
L 522.630831 190.895822 
L 522.956539 192.128143 
L 528.67196 192.350572 
L 529.772367 191.556683 
L 531.043362 191.842699 
L 531.922836 191.393074 
L 532.287474 190.941215 
L 533.362221 191.936307 
L 535.475141 192.403094 
L 537.561622 192.180202 
L 537.821946 192.733116 
L 537.821946 192.733116 
" clip-path="url(#paa8f0fb82c)" style="fill: none; stroke: #4daf4a; stroke-width: 2; stroke-linecap: square"/>
   </g>
   <g id="patch_3">
    <path d="M 38.482813 242.275938 
L 38.482813 7.2 
" style="fill: none; stroke: #7f7f7f; stroke-width: 1.8; stroke-linejoin: miter; stroke-linecap: square"/>
   </g>
   <g id="patch_4">
    <path d="M 38.482813 242.275937 
L 561.6 242.275937 
" style="fill: none; stroke: #7f7f7f; stroke-width: 1.8; stroke-linejoin: miter; stroke-linecap: square"/>
   </g>
   <g id="legend_1">
    <g id="line2d_30">
     <path d="M 483.814062 20.298437 
L 493.814062 20.298437 
L 503.814062 20.298437 
" style="fill: none; stroke: #e41a1c; stroke-width: 2; stroke-linecap: square"/>
    </g>
    <g id="text_15">
     <!-- setpoint -->
     <g style="fill: #7f7f7f" transform="translate(511.814062 23.798437) scale(0.1 -0.1)">
      <defs>
       <path id="DejaVuSans-70" d="M 1159 525 
L 1159 -1331 
L 581 -1331 
L 581 3500 
L 1159 3500 
L 1159 2969 
Q 1341 3281 1617 3432 
Q 1894 3584 2278 3584 
Q 2916 3584 3314 3078 
Q 3713 2572 3713 1747 
Q 3713 922 3314 415 
Q 2916 -91 2278 -91 
Q 1894 -91 1617 61 
Q 1341 213 1159 525 
z
M 3116 1747 
Q 3116 2381 2855 2742 
Q 2594 3103 2138 3103 
Q 1681 3103 1420 2742 
Q 1159 2381 1159 1747 
Q 1159 1113 1420 752 
Q 1681 391 2138 391 
Q 2594 391 2855 752 
Q 3116 1113 3116 1747 
z
" transform="scale(0.015625)"/>
       <path id="DejaVuSans-6f" d="M 1959 3097 
Q 1497 3097 1228 2736 
Q 959 2375 959 1747 
Q 959 1119 1226 758 
Q 1494 397 1959 397 
Q 2419 397 2687 759 
Q 2956 1122 2956 1747 
Q 2956 2369 2687 2733 
Q 2419 3097 1959 3097 
z
M 1959 3584 
Q 2709 3584 3137 3096 
Q 3566 2609 3566 1747 
Q 3566 888 3137 398 
Q 2709 -91 1959 -91 
Q 1206 -91 779 398 
Q 353 888 353 1747 
Q 353 2609 779 3096 
Q 1206 3584 1959 3584 
z
" transform="scale(0.015625)"/>
       <path id="DejaVuSans-6e" d="M 3513 2113 
L 3513 0 
L 2938 0 
L 2938 2094 
Q 2938 2591 2744 2837 
Q 2550 3084 2163 3084 
Q 1697 3084 1428 2787 
Q 1159 2491 1159 1978 
L 1159 0 
L 581 0 
L 581 3500 
L 1159 3500 
L 1159 2956 
Q 1366 3272 1645 3428 
Q 1925 3584 2291 3584 
Q 2894 3584 3203 3211 
Q 3513 2838 3513 2113 
z
" transform="scale(0.015625)"/>
      </defs>
      <use xlink:href="#DejaVuSans-73"/>
      <use xlink:href="#DejaVuSans-65" transform="translate(52.099609 0)"/>
      <use xlink:href="#DejaVuSans-74" transform="translate(113.623047 0)"/>
      <use xlink:href="#DejaVuSans-70" transform="translate(152.832031 0)"/>
      <use xlink:href="#DejaVuSans-6f" transform="translate(216.308594 0)"/>
      <use xlink:href="#DejaVuSans-69" transform="translate(277.490234 0)"/>
      <use xlink:href="#DejaVuSans-6e" transform="translate(305.273438 0)"/>
      <use xlink:href="#DejaVuSans-74" transform="translate(368.652344 0)"/>
     </g>
    </g>
    <g id="line2d_31">
     <path d="M 483.814062 34.976562 
L 493.814062 34.976562 
L 503.814062 34.976562 
" style="fill: none; stroke: #377eb8; stroke-width: 2; stroke-linecap: square"/>
    </g>
    <g id="text_16">
     <!-- plant 1 -->
     <g style="fill: #7f7f7f" transform="translate(511.814062 38.476562) scale(0.1 -0.1)">
      <defs>
       <path id="DejaVuSans-6c" d="M 603 4863 
L 1178 4863 
L 1178 0 
L 603 0 
L 603 4863 
z
" transform="scale(0.015625)"/>
       <path id="DejaVuSans-61" d="M 2194 1759 
Q 1497 1759 1228 1600 
Q 959 1441 959 1056 
Q 959 750 1161 570 
Q 1363 391 1709 391 
Q 2188 391 2477 730 
Q 2766 1069 2766 1631 
L 2766 1759 
L 2194 1759 
z
M 3341 1997 
L 3341 0 
L 2766 0 
L 2766 531 
Q 2569 213 2275 61 
Q 1981 -91 1556 -91 
Q 1019 -91 701 211 
Q 384 513 384 1019 
Q 384 1609 779 1909 
Q 1175 2209 1959 2209 
L 2766 2209 
L 2766 2266 
Q 2766 2663 2505 2880 
Q 2244 3097 1772 3097 
Q 1472 3097 1187 3025 
Q 903 2953 641 2809 
L 641 3341 
Q 956 3463 1253 3523 
Q 1550 3584 1831 3584 
Q 2591 3584 2966 3190 
Q 3341 2797 3341 1997 
z
" transform="scale(0.015625)"/>
      </defs>
      <use xlink:href="#DejaVuSans-70"/>
      <use xlink:href="#DejaVuSans-6c" transform="translate(63.476562 0)"/>
      <use xlink:href="#DejaVuSans-61" transform="translate(91.259766 0)"/>
      <use xlink:href="#DejaVuSans-6e" transform="translate(152.539062 0)"/>
      <use xlink:href="#DejaVuSans-74" transform="translate(215.917969 0)"/>
      <use xlink:href="#DejaVuSans-20" transform="translate(255.126953 0)"/>
      <use xlink:href="#DejaVuSans-31" transform="translate(286.914062 0)"/>
     </g>
    </g>
    <g id="line2d_32">
     <path d="M 483.814062 49.654687 
L 493.814062 49.654687 
L 503.814062 49.654687 
" style="fill: none; stroke: #4daf4a; stroke-width: 2; stroke-linecap: square"/>
    </g>
    <g id="text_17">
     <!-- plant 2 -->
     <g style="fill: #7f7f7f" transform="translate(511.814062 53.154687) scale(0.1 -0.1)">
      <use xlink:href="#DejaVuSans-70"/>
      <use xlink:href="#DejaVuSans-6c" transform="translate(63.476562 0)"/>
      <use xlink:href="#DejaVuSans-61" transform="translate(91.259766 0)"/>
      <use xlink:href="#DejaVuSans-6e" transform="translate(152.539062 0)"/>
      <use xlink:href="#DejaVuSans-74" transform="translate(215.917969 0)"/>
      <use xlink:href="#DejaVuSans-20" transform="translate(255.126953 0)"/>
      <use xlink:href="#DejaVuSans-32" transform="translate(286.914062 0)"/>
     </g>
    </g>
   </g>
  </g>
 </g>
 <defs>
  <clipPath id="paa8f0fb82c">
   <rect x="38.482813" y="7.2" width="523.117187" height="235.075938"/>
  </clipPath>
 </defs>
</svg>
