<?xml version="1.0" encoding="utf-8" standalone="no"?>
<!DOCTYPE svg PUBLIC "-//W3C//DTD SVG 1.1//EN"
  "http://www.w3.org/Graphics/SVG/1.1/DTD/svg11.dtd">
<svg xmlns:xlink="http://www.w3.org/1999/xlink" width="568.8pt" height="280.8pt" viewBox="0 0 568.8 280.8" xmlns="http://www.w3.org/2000/svg" version="1.1">
 <metadata>
  <rdf:RDF xmlns:dc="http://purl.org/dc/elements/1.1/" xmlns:cc="http://creativecommons.org/ns#" xmlns:rdf="http://www.w3.org/1999/02/22-rdf-syntax-ns#">
   <cc:Work>
    <dc:type rdf:resource="http://purl.org/dc/dcmitype/StillImage"/>
    <dc:date>2026-06-23T00:46:20.936702</dc:date>
    <dc:format>image/svg+xml</dc:format>
    <dc:creator>
     <cc:Agent>
      <dc:title>Matplotlib v3.11.0, https://matplotlib.org/</dc:title>
     </cc:Agent>
    </dc:creator>
   </cc:Work>
  </rdf:RDF>
 </metadata>
 <defs>
  <style type="text/css">*{stroke-linejoin: round; stroke-linecap: butt}</style>
 </defs>
 <g id="figure_1">
  <g id="patch_1">
   <path d="M 0 280.8 
L 568.8 280.8 
L 568.8 0 
L 0 0 
L 0 280.8 
z
" style="fill: none"/>
  </g>
  <g id="axes_1">
   <g id="patch_2">
    <path d="M 51.207813 241.599141 
L 561.6 241.599141 
L 561.6 7.2 
L 51.207813 7.2 
L 51.207813 241.599141 
z
" style="fill: none"/>
   </g>
   <g id="matplotlib.axis_1">
    <g id="xtick_1">
     <g id="line2d_1">
      <path d="M 74.407457 241.599141 
L 74.407457 7.2 
" clip-path="url(#p239005e196)" style="fill: none; stroke-dasharray: 2.96,1.28; stroke-dashoffset: 0; stroke: #7f7f7f; stroke-opacity: 0.6; stroke-width: 0.8"/>
     </g>
     <g id="line2d_2">
      <defs>
       <path id="m842066e17f" d="M 0 0 
L 0 3.5 
" style="stroke: #7f7f7f; stroke-width: 1.8"/>
      </defs>
      <g>
       <use xlink:href="#m842066e17f" x="74.407457" y="241.599141" style="fill: #7f7f7f; stroke: #7f7f7f; stroke-width: 1.8"/>
      </g>
     </g>
     <g id="text_1">
      <!-- 0 -->
      <g style="fill: #7f7f7f" transform="translate(71.226207 256.196797) scale(0.1 -0.1)">
       <defs>
        <path id="DejaVuSans-13" d="M 2034 4250 
Q 1547 4250 1301 3770 
Q 1056 3291 1056 2328 
Q 1056 1369 1301 889 
Q 1547 409 2034 409 
Q 2525 409 2770 889 
Q 3016 1369 3016 2328 
Q 3016 3291 2770 3770 
Q 2525 4250 2034 4250 
z
M 2034 4750 
Q 2819 4750 3233 4129 
Q 3647 3509 3647 2328 
Q 3647 1150 3233 529 
Q 2819 -91 2034 -91 
Q 1250 -91 836 529 
Q 422 1150 422 2328 
Q 422 3509 836 4129 
Q 1250 4750 2034 4750 
z
" transform="scale(0.015625)"/>
       </defs>
       <use xlink:href="#DejaVuSans-13"/>
      </g>
     </g>
    </g>
    <g id="xtick_2">
     <g id="line2d_3">
      <path d="M 167.206037 241.599141 
L 167.206037 7.2 
" clip-path="url(#p239005e196)" style="fill: none; stroke-dasharray: 2.96,1.28; stroke-dashoffset: 0; stroke: #7f7f7f; stroke-opacity: 0.6; stroke-width: 0.8"/>
     </g>
     <g id="line2d_4">
      <g>
       <use xlink:href="#m842066e17f" x="167.206037" y="241.599141" style="fill: #7f7f7f; stroke: #7f7f7f; stroke-width: 1.8"/>
      </g>
     </g>
     <g id="text_2">
      <!-- 20 -->
      <g style="fill: #7f7f7f" transform="translate(160.843537 256.196797) scale(0.1 -0.1)">
       <defs>
        <path id="DejaVuSans-15" d="M 1228 531 
L 3431 531 
L 3431 0 
L 469 0 
L 469 531 
Q 828 903 1448 1529 
Q 2069 2156 2228 2338 
Q 2531 2678 2651 2914 
Q 2772 3150 2772 3378 
Q 2772 3750 2511 3984 
Q 2250 4219 1831 4219 
Q 1534 4219 1204 4116 
Q 875 4013 500 3803 
L 500 4441 
Q 881 4594 1212 4672 
Q 1544 4750 1819 4750 
Q 2544 4750 2975 4387 
Q 3406 4025 3406 3419 
Q 3406 3131 3298 2873 
Q 3191 2616 2906 2266 
Q 2828 2175 2409 1742 
Q 1991 1309 1228 531 
z
" transform="scale(0.015625)"/>
       </defs>
       <use xlink:href="#DejaVuSans-15"/>
       <use xlink:href="#DejaVuSans-13" transform="translate(63.625 0)"/>
      </g>
     </g>
    </g>
    <g id="xtick_3">
     <g id="line2d_5">
      <path d="M 260.004616 241.599141 
L 260.004616 7.2 
" clip-path="url(#p239005e196)" style="fill: none; stroke-dasharray: 2.96,1.28; stroke-dashoffset: 0; stroke: #7f7f7f; stroke-opacity: 0.6; stroke-width: 0.8"/>
     </g>
     <g id="line2d_6">
      <g>
       <use xlink:href="#m842066e17f" x="260.004616" y="241.599141" style="fill: #7f7f7f; stroke: #7f7f7f; stroke-width: 1.8"/>
      </g>
     </g>
     <g id="text_3">
      <!-- 40 -->
      <g style="fill: #7f7f7f" transform="translate(253.642116 256.196797) scale(0.1 -0.1)">
       <defs>
        <path id="DejaVuSans-17" d="M 2419 4116 
L 825 1625 
L 2419 1625 
L 2419 4116 
z
M 2253 4666 
L 3047 4666 
L 3047 1625 
L 3713 1625 
L 3713 1100 
L 3047 1100 
L 3047 0 
L 2419 0 
L 2419 1100 
L 313 1100 
L 313 1709 
L 2253 4666 
z
" transform="scale(0.015625)"/>
       </defs>
       <use xlink:href="#DejaVuSans-17"/>
       <use xlink:href="#DejaVuSans-13" transform="translate(63.625 0)"/>
      </g>
     </g>
    </g>
    <g id="xtick_4">
     <g id="line2d_7">
      <path d="M 352.803196 241.599141 
L 352.803196 7.2 
" clip-path="url(#p239005e196)" style="fill: none; stroke-dasharray: 2.96,1.28; stroke-dashoffset: 0; stroke: #7f7f7f; stroke-opacity: 0.6; stroke-width: 0.8"/>
     </g>
     <g id="line2d_8">
      <g>
       <use xlink:href="#m842066e17f" x="352.803196" y="241.599141" style="fill: #7f7f7f; stroke: #7f7f7f; stroke-width: 1.8"/>
      </g>
     </g>
     <g id="text_4">
      <!-- 60 -->
      <g style="fill: #7f7f7f" transform="translate(346.440696 256.196797) scale(0.1 -0.1)">
       <defs>
        <path id="DejaVuSans-19" d="M 2113 2584 
Q 1688 2584 1439 2293 
Q 1191 2003 1191 1497 
Q 1191 994 1439 701 
Q 1688 409 2113 409 
Q 2538 409 2786 701 
Q 3034 994 3034 1497 
Q 3034 2003 2786 2293 
Q 2538 2584 2113 2584 
z
M 3366 4563 
L 3366 3988 
Q 3128 4100 2886 4159 
Q 2644 4219 2406 4219 
Q 1781 4219 1451 3797 
Q 1122 3375 1075 2522 
Q 1259 2794 1537 2939 
Q 1816 3084 2150 3084 
Q 2853 3084 3261 2657 
Q 3669 2231 3669 1497 
Q 3669 778 3244 343 
Q 2819 -91 2113 -91 
Q 1303 -91 875 529 
Q 447 1150 447 2328 
Q 447 3434 972 4092 
Q 1497 4750 2381 4750 
Q 2619 4750 2861 4703 
Q 3103 4656 3366 4563 
z
" transform="scale(0.015625)"/>
       </defs>
       <use xlink:href="#DejaVuSans-19"/>
       <use xlink:href="#DejaVuSans-13" transform="translate(63.625 0)"/>
      </g>
     </g>
    </g>
    <g id="xtick_5">
     <g id="line2d_9">
      <path d="M 445.601776 241.599141 
L 445.601776 7.2 
" clip-path="url(#p239005e196)" style="fill: none; stroke-dasharray: 2.96,1.28; stroke-dashoffset: 0; stroke: #7f7f7f; stroke-opacity: 0.6; stroke-width: 0.8"/>
     </g>
     <g id="line2d_10">
      <g>
       <use xlink:href="#m842066e17f" x="445.601776" y="241.599141" style="fill: #7f7f7f; stroke: #7f7f7f; stroke-width: 1.8"/>
      </g>
     </g>
     <g id="text_5">
      <!-- 80 -->
      <g style="fill: #7f7f7f" transform="translate(439.239276 256.196797) scale(0.1 -0.1)">
       <defs>
        <path id="DejaVuSans-1b" d="M 2034 2216 
Q 1584 2216 1326 1975 
Q 1069 1734 1069 1313 
Q 1069 891 1326 650 
Q 1584 409 2034 409 
Q 2484 409 2743 651 
Q 3003 894 3003 1313 
Q 3003 1734 2745 1975 
Q 2488 2216 2034 2216 
z
M 1403 2484 
Q 997 2584 770 2862 
Q 544 3141 544 3541 
Q 544 4100 942 4425 
Q 1341 4750 2034 4750 
Q 2731 4750 3128 4425 
Q 3525 4100 3525 3541 
Q 3525 3141 3298 2862 
Q 3072 2584 2669 2484 
Q 3125 2378 3379 2068 
Q 3634 1759 3634 1313 
Q 3634 634 3220 271 
Q 2806 -91 2034 -91 
Q 1263 -91 848 271 
Q 434 634 434 1313 
Q 434 1759 690 2068 
Q 947 2378 1403 2484 
z
M 1172 3481 
Q 1172 3119 1398 2916 
Q 1625 2713 2034 2713 
Q 2441 2713 2670 2916 
Q 2900 3119 2900 3481 
Q 2900 3844 2670 4047 
Q 2441 4250 2034 4250 
Q 1625 4250 1398 4047 
Q 1172 3844 1172 3481 
z
" transform="scale(0.015625)"/>
       </defs>
       <use xlink:href="#DejaVuSans-1b"/>
       <use xlink:href="#DejaVuSans-13" transform="translate(63.625 0)"/>
      </g>
     </g>
    </g>
    <g id="xtick_6">
     <g id="line2d_11">
      <path d="M 538.400355 241.599141 
L 538.400355 7.2 
" clip-path="url(#p239005e196)" style="fill: none; stroke-dasharray: 2.96,1.28; stroke-dashoffset: 0; stroke: #7f7f7f; stroke-opacity: 0.6; stroke-width: 0.8"/>
     </g>
     <g id="line2d_12">
      <g>
       <use xlink:href="#m842066e17f" x="538.400355" y="241.599141" style="fill: #7f7f7f; stroke: #7f7f7f; stroke-width: 1.8"/>
      </g>
     </g>
     <g id="text_6">
      <!-- 100 -->
      <g style="fill: #7f7f7f" transform="translate(528.856605 256.196797) scale(0.1 -0.1)">
       <defs>
        <path id="DejaVuSans-14" d="M 794 531 
L 1825 531 
L 1825 4091 
L 703 3866 
L 703 4441 
L 1819 4666 
L 2450 4666 
L 2450 531 
L 3481 531 
L 3481 0 
L 794 0 
L 794 531 
z
" transform="scale(0.015625)"/>
       </defs>
       <use xlink:href="#DejaVuSans-14"/>
       <use xlink:href="#DejaVuSans-13" transform="translate(63.625 0)"/>
       <use xlink:href="#DejaVuSans-13" transform="translate(127.25 0)"/>
      </g>
     </g>
    </g>
    <g id="text_7">
     <!-- time [s] -->
     <g style="fill: #7f7f7f" transform="translate(285.073359 270.957422) scale(0.11 -0.11)">
      <defs>
       <path id="DejaVuSans-57" d="M 1172 4494 
L 1172 3500 
L 2356 3500 
L 2356 3053 
L 1172 3053 
L 1172 1153 
Q 1172 725 1289 603 
Q 1406 481 1766 481 
L 2356 481 
L 2356 0 
L 1766 0 
Q 1100 0 847 248 
Q 594 497 594 1153 
L 594 3053 
L 172 3053 
L 172 3500 
L 594 3500 
L 594 4494 
L 1172 4494 
z
" transform="scale(0.015625)"/>
       <path id="DejaVuSans-4c" d="M 603 3500 
L 1178 3500 
L 1178 0 
L 603 0 
L 603 3500 
z
M 603 4863 
L 1178 4863 
L 1178 4134 
L 603 4134 
L 603 4863 
z
" transform="scale(0.015625)"/>
       <path id="DejaVuSans-50" d="M 3328 2828 
Q 3544 3216 3844 3400 
Q 4144 3584 4550 3584 
Q 5097 3584 5394 3201 
Q 5691 2819 5691 2113 
L 5691 0 
L 5113 0 
L 5113 2094 
Q 5113 2597 4934 2840 
Q 4756 3084 4391 3084 
Q 3944 3084 3684 2787 
Q 3425 2491 3425 1978 
L 3425 0 
L 2847 0 
L 2847 2094 
Q 2847 2600 2669 2842 
Q 2491 3084 2119 3084 
Q 1678 3084 1418 2786 
Q 1159 2488 1159 1978 
L 1159 0 
L 581 0 
L 581 3500 
L 1159 3500 
L 1159 2956 
Q 1356 3278 1631 3431 
Q 1906 3584 2284 3584 
Q 2666 3584 2933 3390 
Q 3200 3197 3328 2828 
z
" transform="scale(0.015625)"/>
       <path id="DejaVuSans-48" d="M 3597 1894 
L 3597 1613 
L 953 1613 
Q 991 1019 1311 708 
Q 1631 397 2203 397 
Q 2534 397 2845 478 
Q 3156 559 3463 722 
L 3463 178 
Q 3153 47 2828 -22 
Q 2503 -91 2169 -91 
Q 1331 -91 842 396 
Q 353 884 353 1716 
Q 353 2575 817 3079 
Q 1281 3584 2069 3584 
Q 2775 3584 3186 3129 
Q 3597 2675 3597 1894 
z
M 3022 2063 
Q 3016 2534 2758 2815 
Q 2500 3097 2075 3097 
Q 1594 3097 1305 2825 
Q 1016 2553 972 2059 
L 3022 2063 
z
" transform="scale(0.015625)"/>
       <path id="DejaVuSans-3" transform="scale(0.015625)"/>
       <path id="DejaVuSans-3e" d="M 550 4863 
L 1875 4863 
L 1875 4416 
L 1125 4416 
L 1125 -397 
L 1875 -397 
L 1875 -844 
L 550 -844 
L 550 4863 
z
" transform="scale(0.015625)"/>
       <path id="DejaVuSans-56" d="M 2834 3397 
L 2834 2853 
Q 2591 2978 2328 3040 
Q 2066 3103 1784 3103 
Q 1356 3103 1142 2972 
Q 928 2841 928 2578 
Q 928 2378 1081 2264 
Q 1234 2150 1697 2047 
L 1894 2003 
Q 2506 1872 2764 1633 
Q 3022 1394 3022 966 
Q 3022 478 2636 193 
Q 2250 -91 1575 -91 
Q 1294 -91 989 -36 
Q 684 19 347 128 
L 347 722 
Q 666 556 975 473 
Q 1284 391 1588 391 
Q 1994 391 2212 530 
Q 2431 669 2431 922 
Q 2431 1156 2273 1281 
Q 2116 1406 1581 1522 
L 1381 1569 
Q 847 1681 609 1914 
Q 372 2147 372 2553 
Q 372 3047 722 3315 
Q 1072 3584 1716 3584 
Q 2034 3584 2315 3537 
Q 2597 3491 2834 3397 
z
" transform="scale(0.015625)"/>
       <path id="DejaVuSans-40" d="M 1947 4863 
L 1947 -844 
L 622 -844 
L 622 -397 
L 1369 -397 
L 1369 4416 
L 622 4416 
L 622 4863 
L 1947 4863 
z
" transform="scale(0.015625)"/>
      </defs>
      <use xlink:href="#DejaVuSans-57"/>
      <use xlink:href="#DejaVuSans-4c" transform="translate(39.203125 0)"/>
      <use xlink:href="#DejaVuSans-50" transform="translate(66.984375 0)"/>
      <use xlink:href="#DejaVuSans-48" transform="translate(164.390625 0)"/>
      <use xlink:href="#DejaVuSans-3" transform="translate(225.921875 0)"/>
      <use xlink:href="#DejaVuSans-3e" transform="translate(257.703125 0)"/>
      <use xlink:href="#DejaVuSans-56" transform="translate(296.71875 0)"/>
      <use xlink:href="#DejaVuSans-40" transform="translate(348.8125 0)"/>
     </g>
    </g>
   </g>
   <g id="matplotlib.axis_2">
    <g id="ytick_1">
     <g id="line2d_13">
      <path d="M 51.207813 227.085935 
L 561.6 227.085935 
" clip-path="url(#p239005e196)" style="fill: none; stroke-dasharray: 2.96,1.28; stroke-dashoffset: 0; stroke: #7f7f7f; stroke-opacity: 0.6; stroke-width: 0.8"/>
     </g>
     <g id="line2d_14">
      <defs>
       <path id="m6d7fc9658d" d="M 0 0 
L -3.5 0 
" style="stroke: #7f7f7f; stroke-width: 1.8"/>
      </defs>
      <g>
       <use xlink:href="#m6d7fc9658d" x="51.207813" y="227.085935" style="fill: #7f7f7f; stroke: #7f7f7f; stroke-width: 1.8"/>
      </g>
     </g>
     <g id="text_8">
      <!-- −0.100 -->
      <g style="fill: #7f7f7f" transform="translate(7.2 230.884763) scale(0.1 -0.1)">
       <defs>
        <path id="DejaVuSans-c9c" d="M 678 2272 
L 4684 2272 
L 4684 1741 
L 678 1741 
L 678 2272 
z
" transform="scale(0.015625)"/>
        <path id="DejaVuSans-11" d="M 684 794 
L 1344 794 
L 1344 0 
L 684 0 
L 684 794 
z
" transform="scale(0.015625)"/>
       </defs>
       <use xlink:href="#DejaVuSans-c9c"/>
       <use xlink:href="#DejaVuSans-13" transform="translate(83.796875 0)"/>
       <use xlink:href="#DejaVuSans-11" transform="translate(147.421875 0)"/>
       <use xlink:href="#DejaVuSans-14" transform="translate(179.203125 0)"/>
       <use xlink:href="#DejaVuSans-13" transform="translate(242.828125 0)"/>
       <use xlink:href="#DejaVuSans-13" transform="translate(306.453125 0)"/>
      </g>
     </g>
    </g>
    <g id="ytick_2">
     <g id="line2d_15">
      <path d="M 51.207813 198.864364 
L 561.6 198.864364 
" clip-path="url(#p239005e196)" style="fill: none; stroke-dasharray: 2.96,1.28; stroke-dashoffset: 0; stroke: #7f7f7f; stroke-opacity: 0.6; stroke-width: 0.8"/>
     </g>
     <g id="line2d_16">
      <g>
       <use xlink:href="#m6d7fc9658d" x="51.207813" y="198.864364" style="fill: #7f7f7f; stroke: #7f7f7f; stroke-width: 1.8"/>
      </g>
     </g>
     <g id="text_9">
      <!-- −0.075 -->
      <g style="fill: #7f7f7f" transform="translate(7.2 202.663192) scale(0.1 -0.1)">
       <defs>
        <path id="DejaVuSans-1a" d="M 525 4666 
L 3525 4666 
L 3525 4397 
L 1831 0 
L 1172 0 
L 2766 4134 
L 525 4134 
L 525 4666 
z
" transform="scale(0.015625)"/>
        <path id="DejaVuSans-18" d="M 691 4666 
L 3169 4666 
L 3169 4134 
L 1269 4134 
L 1269 2991 
Q 1406 3038 1543 3061 
Q 1681 3084 1819 3084 
Q 2600 3084 3056 2656 
Q 3513 2228 3513 1497 
Q 3513 744 3044 326 
Q 2575 -91 1722 -91 
Q 1428 -91 1123 -41 
Q 819 9 494 109 
L 494 744 
Q 775 591 1075 516 
Q 1375 441 1709 441 
Q 2250 441 2565 725 
Q 2881 1009 2881 1497 
Q 2881 1984 2565 2268 
Q 2250 2553 1709 2553 
Q 1456 2553 1204 2497 
Q 953 2441 691 2322 
L 691 4666 
z
" transform="scale(0.015625)"/>
       </defs>
       <use xlink:href="#DejaVuSans-c9c"/>
       <use xlink:href="#DejaVuSans-13" transform="translate(83.796875 0)"/>
       <use xlink:href="#DejaVuSans-11" transform="translate(147.421875 0)"/>
       <use xlink:href="#DejaVuSans-13" transform="translate(179.203125 0)"/>
       <use xlink:href="#DejaVuSans-1a" transform="translate(242.828125 0)"/>
       <use xlink:href="#DejaVuSans-18" transform="translate(306.453125 0)"/>
      </g>
     </g>
    </g>
    <g id="ytick_3">
     <g id="line2d_17">
      <path d="M 51.207813 170.642793 
L 561.6 170.642793 
" clip-path="url(#p239005e196)" style="fill: none; stroke-dasharray: 2.96,1.28; stroke-dashoffset: 0; stroke: #7f7f7f; stroke-opacity: 0.6; stroke-width: 0.8"/>
     </g>
     <g id="line2d_18">
      <g>
       <use xlink:href="#m6d7fc9658d" x="51.207813" y="170.642793" style="fill: #7f7f7f; stroke: #7f7f7f; stroke-width: 1.8"/>
      </g>
     </g>
     <g id="text_10">
      <!-- −0.050 -->
      <g style="fill: #7f7f7f" transform="translate(7.2 174.441622) scale(0.1 -0.1)">
       <use xlink:href="#DejaVuSans-c9c"/>
       <use xlink:href="#DejaVuSans-13" transform="translate(83.796875 0)"/>
       <use xlink:href="#DejaVuSans-11" transform="translate(147.421875 0)"/>
       <use xlink:href="#DejaVuSans-13" transform="translate(179.203125 0)"/>
       <use xlink:href="#DejaVuSans-18" transform="translate(242.828125 0)"/>
       <use xlink:href="#DejaVuSans-13" transform="translate(306.453125 0)"/>
      </g>
     </g>
    </g>
    <g id="ytick_4">
     <g id="line2d_19">
      <path d="M 51.207813 142.421223 
L 561.6 142.421223 
" clip-path="url(#p239005e196)" style="fill: none; stroke-dasharray: 2.96,1.28; stroke-dashoffset: 0; stroke: #7f7f7f; stroke-opacity: 0.6; stroke-width: 0.8"/>
     </g>
     <g id="line2d_20">
      <g>
       <use xlink:href="#m6d7fc9658d" x="51.207813" y="142.421223" style="fill: #7f7f7f; stroke: #7f7f7f; stroke-width: 1.8"/>
      </g>
     </g>
     <g id="text_11">
      <!-- −0.025 -->
      <g style="fill: #7f7f7f" transform="translate(7.2 146.220051) scale(0.1 -0.1)">
       <use xlink:href="#DejaVuSans-c9c"/>
       <use xlink:href="#DejaVuSans-13" transform="translate(83.796875 0)"/>
       <use xlink:href="#DejaVuSans-11" transform="translate(147.421875 0)"/>
       <use xlink:href="#DejaVuSans-13" transform="translate(179.203125 0)"/>
       <use xlink:href="#DejaVuSans-15" transform="translate(242.828125 0)"/>
       <use xlink:href="#DejaVuSans-18" transform="translate(306.453125 0)"/>
      </g>
     </g>
    </g>
    <g id="ytick_5">
     <g id="line2d_21">
      <path d="M 51.207813 114.199652 
L 561.6 114.199652 
" clip-path="url(#p239005e196)" style="fill: none; stroke-dasharray: 2.96,1.28; stroke-dashoffset: 0; stroke: #7f7f7f; stroke-opacity: 0.6; stroke-width: 0.8"/>
     </g>
     <g id="line2d_22">
      <g>
       <use xlink:href="#m6d7fc9658d" x="51.207813" y="114.199652" style="fill: #7f7f7f; stroke: #7f7f7f; stroke-width: 1.8"/>
      </g>
     </g>
     <g id="text_12">
      <!-- 0.000 -->
      <g style="fill: #7f7f7f" transform="translate(15.579688 117.99848) scale(0.1 -0.1)">
       <use xlink:href="#DejaVuSans-13"/>
       <use xlink:href="#DejaVuSans-11" transform="translate(63.625 0)"/>
       <use xlink:href="#DejaVuSans-13" transform="translate(95.40625 0)"/>
       <use xlink:href="#DejaVuSans-13" transform="translate(159.03125 0)"/>
       <use xlink:href="#DejaVuSans-13" transform="translate(222.65625 0)"/>
      </g>
     </g>
    </g>
    <g id="ytick_6">
     <g id="line2d_23">
      <path d="M 51.207813 85.978081 
L 561.6 85.978081 
" clip-path="url(#p239005e196)" style="fill: none; stroke-dasharray: 2.96,1.28; stroke-dashoffset: 0; stroke: #7f7f7f; stroke-opacity: 0.6; stroke-width: 0.8"/>
     </g>
     <g id="line2d_24">
      <g>
       <use xlink:href="#m6d7fc9658d" x="51.207813" y="85.978081" style="fill: #7f7f7f; stroke: #7f7f7f; stroke-width: 1.8"/>
      </g>
     </g>
     <g id="text_13">
      <!-- 0.025 -->
      <g style="fill: #7f7f7f" transform="translate(15.579688 89.776909) scale(0.1 -0.1)">
       <use xlink:href="#DejaVuSans-13"/>
       <use xlink:href="#DejaVuSans-11" transform="translate(63.625 0)"/>
       <use xlink:href="#DejaVuSans-13" transform="translate(95.40625 0)"/>
       <use xlink:href="#DejaVuSans-15" transform="translate(159.03125 0)"/>
       <use xlink:href="#DejaVuSans-18" transform="translate(222.65625 0)"/>
      </g>
     </g>
    </g>
    <g id="ytick_7">
     <g id="line2d_25">
      <path d="M 51.207813 57.756511 
L 561.6 57.756511 
" clip-path="url(#p239005e196)" style="fill: none; stroke-dasharray: 2.96,1.28; stroke-dashoffset: 0; stroke: #7f7f7f; stroke-opacity: 0.6; stroke-width: 0.8"/>
     </g>
     <g id="line2d_26">
      <g>
       <use xlink:href="#m6d7fc9658d" x="51.207813" y="57.756511" style="fill: #7f7f7f; stroke: #7f7f7f; stroke-width: 1.8"/>
      </g>
     </g>
     <g id="text_14">
      <!-- 0.050 -->
      <g style="fill: #7f7f7f" transform="translate(15.579688 61.555339) scale(0.1 -0.1)">
       <use xlink:href="#DejaVuSans-13"/>
       <use xlink:href="#DejaVuSans-11" transform="translate(63.625 0)"/>
       <use xlink:href="#DejaVuSans-13" transform="translate(95.40625 0)"/>
       <use xlink:href="#DejaVuSans-18" transform="translate(159.03125 0)"/>
       <use xlink:href="#DejaVuSans-13" transform="translate(222.65625 0)"/>
      </g>
     </g>
    </g>
    <g id="ytick_8">
     <g id="line2d_27">
      <path d="M 51.207813 29.53494 
L 561.6 29.53494 
" clip-path="url(#p239005e196)" style="fill: none; stroke-dasharray: 2.96,1.28; stroke-dashoffset: 0; stroke: #7f7f7f; stroke-opacity: 0.6; stroke-width: 0.8"/>
     </g>
     <g id="line2d_28">
      <g>
       <use xlink:href="#m6d7fc9658d" x="51.207813" y="29.53494" style="fill: #7f7f7f; stroke: #7f7f7f; stroke-width: 1.8"/>
      </g>
     </g>
     <g id="text_15">
      <!-- 0.075 -->
      <g style="fill: #7f7f7f" transform="translate(15.579688 33.333768) scale(0.1 -0.1)">
       <use xlink:href="#DejaVuSans-13"/>
       <use xlink:href="#DejaVuSans-11" transform="translate(63.625 0)"/>
       <use xlink:href="#DejaVuSans-13" transform="translate(95.40625 0)"/>
       <use xlink:href="#DejaVuSans-1a" transform="translate(159.03125 0)"/>
       <use xlink:href="#DejaVuSans-18" transform="translate(222.65625 0)"/>
      </g>
     </g>
    </g>
   </g>
   <g id="line2d_29">
    <path d="M 74.407457 114.199652 
L 74.453857 122.6554 
L 74.818244 113.491037 
L 75.092994 113.61198 
L 75.887376 119.248254 
L 76.219986 115.12973 
L 76.567744 114.880544 
L 77.674185 116.053073 
L 78.715209 108.759439 
L 79.470275 115.119078 
L 79.809017 108.502639 
L 80.442039 112.852752 
L 80.812178 116.254172 
L 81.173192 113.570475 
L 81.519553 109.338656 
L 81.842615 110.156099 
L 82.170352 115.691832 
L 82.498058 113.90676 
L 82.887925 110.587667 
L 83.205799 117.930121 
L 83.846212 113.633736 
L 84.634279 117.484617 
L 85.345302 111.331612 
L 85.70068 114.92644 
L 86.403042 119.813149 
L 86.698501 113.333081 
L 86.962038 121.106328 
L 87.591157 114.826504 
L 87.948652 111.39486 
L 88.304079 115.83184 
L 88.663564 116.973649 
L 88.943957 106.896439 
L 89.474604 114.836277 
L 90.328539 111.646443 
L 91.385287 120.32372 
L 91.674294 111.196385 
L 92.26578 115.348751 
L 92.623632 117.286375 
L 92.972801 111.446502 
L 93.616048 113.790031 
L 94.001503 114.948607 
L 94.435381 113.094553 
L 94.890696 113.221422 
L 95.350527 116.508031 
L 95.768187 112.376284 
L 96.116168 109.895885 
L 96.449305 113.947506 
L 97.272065 110.672611 
L 97.644588 111.430517 
L 98.033198 111.671824 
L 99.252316 117.625009 
L 99.600803 112.604012 
L 99.914309 118.037531 
L 100.22937 114.353841 
L 100.636524 113.238595 
L 100.974106 109.283708 
L 101.230004 121.59505 
L 101.440145 106.326212 
L 102.187576 120.161318 
L 102.752739 112.777645 
L 103.115853 113.89779 
L 103.444319 119.757479 
L 103.748796 115.004298 
L 104.106684 110.922013 
L 104.455121 115.360525 
L 105.162056 114.100411 
L 105.506533 110.395503 
L 105.790936 118.311099 
L 106.450773 117.672481 
L 108.054564 109.153362 
L 109.161342 117.756212 
L 109.500225 112.317908 
L 110.310011 112.695204 
L 110.749991 115.245133 
L 111.201534 113.953329 
L 111.611154 113.740308 
L 111.932157 119.756547 
L 112.232036 114.530149 
L 112.594041 112.739122 
L 112.906476 120.052737 
L 113.494596 113.779909 
L 113.865994 110.130877 
L 114.212409 114.820246 
L 114.537883 118.745225 
L 114.852114 113.76041 
L 115.201909 116.549983 
L 116.301717 111.039923 
L 117.426373 117.299299 
L 117.785141 112.769118 
L 118.527817 113.041644 
L 119.294926 117.746204 
L 120.051747 116.141779 
L 120.409895 110.957134 
L 121.199539 112.311059 
L 122.606754 115.242962 
L 123.040723 113.042476 
L 123.337017 120.912574 
L 123.611492 111.074572 
L 124.17786 118.683893 
L 124.465993 112.453073 
L 125.042591 112.70889 
L 125.64797 111.289125 
L 125.903373 120.105363 
L 126.420352 110.134585 
L 126.687657 112.588315 
L 128.38825 116.116166 
L 128.806698 112.638554 
L 129.65997 113.299375 
L 130.020417 118.697356 
L 130.354007 115.630831 
L 130.765837 114.744672 
L 131.105301 110.000686 
L 131.430368 116.909165 
L 131.735315 117.098484 
L 132.868677 111.756341 
L 133.2372 112.157295 
L 133.636681 116.101846 
L 134.020379 113.221359 
L 134.433123 112.414569 
L 134.76757 119.609707 
L 135.427286 112.533483 
L 135.805603 116.815914 
L 136.563389 114.03785 
L 137.434987 111.973372 
L 137.815028 116.680237 
L 138.176691 112.398454 
L 138.536749 110.347329 
L 138.832971 118.078987 
L 139.472076 112.371833 
L 139.845528 116.221579 
L 140.209065 114.41889 
L 140.633561 112.666403 
L 140.994891 118.029022 
L 141.341342 111.203579 
L 142.045312 110.565254 
L 142.412172 116.621899 
L 142.749575 111.599607 
L 143.025675 119.692983 
L 143.298878 114.242408 
L 143.591015 119.026244 
L 143.88302 111.784292 
L 144.167441 113.407134 
L 144.572765 111.499702 
L 144.95968 114.215581 
L 145.769809 114.165363 
L 146.575179 111.918441 
L 146.986409 112.472881 
L 147.976131 122.642207 
L 148.227309 115.986381 
L 149.834446 111.802587 
L 150.234218 113.956591 
L 150.613547 111.276197 
L 151.356402 113.535991 
L 151.760916 110.870432 
L 152.361257 119.011843 
L 152.652566 115.186568 
L 153.065795 114.638301 
L 153.776475 107.968767 
L 154.324328 118.898358 
L 154.591798 115.340936 
L 155.040627 116.532498 
L 155.463852 116.103024 
L 155.909547 113.681583 
L 156.265089 117.719395 
L 156.55614 109.000633 
L 157.119772 117.764964 
L 157.414186 111.411381 
L 157.699036 117.08237 
L 158.270886 111.114231 
L 158.930437 114.475277 
L 159.356796 116.881774 
L 159.662674 108.04678 
L 160.252406 119.064863 
L 160.532815 111.359183 
L 160.803231 115.309424 
L 161.436851 112.016408 
L 162.145034 118.862287 
L 162.468433 112.170241 
L 163.147687 118.770653 
L 163.870146 114.729397 
L 164.640304 112.822628 
L 164.973534 108.586198 
L 165.612167 109.210099 
L 166.213163 119.565511 
L 166.744899 113.666903 
L 167.184206 116.257545 
L 167.20616 230.944634 
L 167.209684 44.911938 
L 168.035053 97.418982 
L 168.195488 98.064989 
L 168.648034 86.972188 
L 168.786241 101.484502 
L 168.9966 107.255007 
L 169.198736 94.465337 
L 169.5718 96.732476 
L 169.753899 95.291247 
L 169.930727 101.504593 
L 170.342756 98.040891 
L 170.541302 103.48203 
L 171.040903 107.898501 
L 171.334601 104.123883 
L 171.575754 98.908493 
L 171.80687 107.604128 
L 172.092157 102.07429 
L 172.925363 100.2123 
L 173.490048 108.953167 
L 174.136792 101.32373 
L 175.281363 104.045949 
L 176.724308 110.22716 
L 177.173053 110.084712 
L 178.626873 103.01965 
L 178.955342 108.732692 
L 179.738613 105.322838 
L 180.538538 111.699342 
L 181.076325 110.69574 
L 181.876277 105.988012 
L 182.243524 112.296306 
L 182.859591 109.890328 
L 183.190755 103.500732 
L 183.51718 107.92235 
L 183.909159 111.38138 
L 184.264465 106.016883 
L 185.427312 109.702481 
L 185.823636 106.840027 
L 186.189213 111.974089 
L 186.610744 109.627092 
L 187.424779 107.39856 
L 188.300289 112.851837 
L 189.047995 107.63593 
L 189.419591 114.766269 
L 189.881607 108.962564 
L 191.233869 111.494361 
L 191.707304 112.345927 
L 192.071116 108.642135 
L 192.851897 108.914581 
L 194.091728 114.212107 
L 194.465616 109.990577 
L 194.835107 115.522097 
L 196.249507 112.928236 
L 196.935348 115.909258 
L 197.340674 107.507237 
L 198.136388 116.953798 
L 198.520315 111.765041 
L 198.896853 107.813736 
L 199.239449 117.469772 
L 200.08658 115.744286 
L 200.581855 111.256541 
L 201.028128 112.646436 
L 201.484244 113.626533 
L 201.853523 110.066406 
L 202.219856 112.988437 
L 202.721481 115.011754 
L 203.187194 110.619153 
L 203.617619 112.521466 
L 204.071909 112.087182 
L 204.555093 115.639531 
L 204.902839 109.490856 
L 205.247065 116.689526 
L 206.068525 112.178569 
L 207.076896 113.663718 
L 207.641644 113.582584 
L 208.030466 116.460111 
L 208.417053 113.58619 
L 209.463792 116.322421 
L 209.898449 111.195385 
L 210.311002 112.691472 
L 211.948426 120.168212 
L 212.311493 112.764925 
L 212.749724 121.018573 
L 213.147847 113.130058 
L 213.513931 109.728816 
L 213.853161 115.696956 
L 214.289203 112.161784 
L 214.822324 115.443813 
L 216.149036 111.232573 
L 216.559699 118.658238 
L 216.941155 116.504797 
L 217.780294 117.139251 
L 218.244034 111.852403 
L 219.124432 116.892295 
L 219.538617 112.909583 
L 220.005515 117.006671 
L 220.406043 118.566529 
L 220.781134 116.050731 
L 221.2585 115.775947 
L 221.731549 116.821222 
L 222.158561 112.563938 
L 222.60409 114.742803 
L 223.636407 115.255183 
L 223.980779 109.756288 
L 224.321836 117.981812 
L 224.692789 112.114752 
L 226.15116 116.323071 
L 226.556482 112.970805 
L 227.051452 115.035414 
L 227.622389 113.481522 
L 228.178735 114.468289 
L 228.662556 115.602643 
L 229.105788 115.078815 
L 230.381397 114.476983 
L 231.728326 114.546522 
L 232.156642 112.997769 
L 232.584689 115.965252 
L 233.064359 113.287518 
L 233.668776 114.089491 
L 234.067805 116.391806 
L 234.464678 113.97 
L 234.886004 111.822084 
L 235.697877 116.878048 
L 236.105936 115.101056 
L 236.639794 115.460701 
L 237.220099 114.384364 
L 237.563093 119.927894 
L 237.902719 112.083266 
L 238.298113 115.040713 
L 238.71959 112.947122 
L 239.140384 111.181488 
L 240.454073 117.540254 
L 241.355064 113.960726 
L 241.886927 116.400922 
L 242.371136 112.772327 
L 242.860644 115.168188 
L 243.427203 114.170488 
L 243.954085 115.333719 
L 244.34593 112.25331 
L 244.736003 113.08104 
L 245.200634 115.646401 
L 245.677563 114.917836 
L 246.175171 115.017716 
L 246.735115 113.836468 
L 247.143682 116.134027 
L 247.550388 113.332888 
L 248.099894 115.627475 
L 249.073872 111.556897 
L 250.28823 119.461948 
L 251.415707 107.667186 
L 252.101393 119.143977 
L 252.874809 116.160113 
L 253.305323 117.047057 
L 253.710908 110.837191 
L 254.108435 114.327179 
L 254.57328 115.685085 
L 255.438158 110.650175 
L 256.273026 110.806288 
L 256.710041 111.448616 
L 257.15224 115.556877 
L 257.970547 114.627734 
L 258.404462 116.40928 
L 258.812164 108.693776 
L 259.186586 118.248143 
L 260.029121 112.69648 
L 260.4458 115.190341 
L 260.8588 117.279346 
L 261.238862 112.151817 
L 261.669995 118.620729 
L 263.432499 113.142856 
L 264.346504 113.821192 
L 265.714209 117.989607 
L 266.555087 112.853136 
L 266.974955 117.94625 
L 267.384134 110.671823 
L 268.223744 112.859204 
L 268.628775 116.380224 
L 269.429399 114.98681 
L 269.757296 108.085353 
L 270.081277 109.783416 
L 271.160443 115.873625 
L 272.036671 116.188397 
L 272.421375 112.724608 
L 272.81008 114.042494 
L 273.173133 111.387098 
L 273.581955 114.602285 
L 274.025179 114.654805 
L 274.474592 112.556275 
L 274.958739 116.457912 
L 275.419197 112.898429 
L 275.906344 115.555521 
L 276.257338 110.111484 
L 276.604947 116.209465 
L 277.025818 114.709232 
L 277.489594 115.234975 
L 278.342622 116.243805 
L 278.747062 111.747202 
L 279.164476 112.820106 
L 279.601485 115.1821 
L 280.062007 110.823098 
L 280.494637 111.377129 
L 282.929821 123.244939 
L 284.107209 111.03053 
L 284.493184 115.6056 
L 285.326195 114.512447 
L 286.206218 111.084869 
L 287.500843 116.360918 
L 287.887294 111.478836 
L 288.313459 113.314696 
L 288.777542 116.019813 
L 289.228744 114.158845 
L 289.57638 109.551606 
L 289.921134 111.936167 
L 290.678279 119.995538 
L 291.007093 119.380982 
L 292.298905 113.276365 
L 292.715017 110.571858 
L 293.109934 117.737871 
L 293.510338 114.41929 
L 293.842988 108.306198 
L 294.172165 114.286307 
L 295.644853 113.049524 
L 296.461458 116.361089 
L 296.851971 115.558993 
L 297.299211 117.0856 
L 297.721951 113.009632 
L 298.14434 114.536367 
L 298.521996 115.463049 
L 298.911924 113.778261 
L 299.492128 114.59305 
L 300.641194 112.49122 
L 301.461792 112.258715 
L 302.260609 117.531246 
L 302.638129 106.317362 
L 302.982193 117.07459 
L 303.370608 115.379829 
L 303.695853 107.442141 
L 304.017672 117.29436 
L 304.372351 110.422022 
L 305.202924 116.286383 
L 305.626625 110.574686 
L 306.049167 113.937438 
L 307.413118 115.434118 
L 307.806961 114.801577 
L 308.991739 110.949432 
L 310.884731 118.539039 
L 312.138581 112.297649 
L 312.579914 113.659017 
L 312.936015 119.494167 
L 313.270389 109.835287 
L 313.623322 115.846234 
L 315.055596 113.041806 
L 315.475762 113.501393 
L 315.876858 117.295959 
L 316.243191 113.612892 
L 316.734631 114.376618 
L 317.111485 110.33716 
L 317.468941 116.215407 
L 317.890993 117.620794 
L 318.710462 110.710478 
L 319.100394 111.360181 
L 319.936371 116.10865 
L 320.725805 109.995995 
L 321.089762 113.774314 
L 321.439117 117.814887 
L 321.786044 111.952173 
L 323.887194 116.468458 
L 324.809438 112.132635 
L 325.245918 113.664143 
L 326.058383 118.94269 
L 326.416239 116.034484 
L 327.189488 116.263772 
L 327.984429 111.878305 
L 328.402502 114.693098 
L 328.923588 113.629399 
L 329.403056 114.215891 
L 330.249009 114.552582 
L 330.628871 111.446039 
L 331.455607 118.864441 
L 332.176444 110.338442 
L 332.51838 116.598719 
L 332.929855 118.350516 
L 334.106926 112.045999 
L 335.322639 112.527826 
L 335.733723 109.840917 
L 336.106622 113.198909 
L 336.935975 109.978499 
L 337.658553 121.382354 
L 338.392461 117.691265 
L 340.693541 112.519985 
L 341.147583 115.013857 
L 341.635441 114.631145 
L 342.082259 112.314795 
L 342.542557 113.490957 
L 343.028307 114.507421 
L 343.432457 112.07349 
L 343.834496 114.23994 
L 344.286207 115.300144 
L 344.758053 113.852174 
L 345.141517 109.363687 
L 345.489122 113.398965 
L 347.616437 116.793759 
L 348.410398 112.094664 
L 348.787229 114.686767 
L 349.655708 117.077245 
L 350.077943 110.31458 
L 350.475942 111.552428 
L 350.877886 114.46886 
L 351.29637 113.486978 
L 351.615754 105.241288 
L 351.93151 119.426777 
L 352.59267 116.092033 
L 352.766759 95.985558 
L 352.803173 150.859268 
L 352.803614 101.875031 
L 352.804488 28.324099 
L 352.827956 146.690767 
L 353.684367 125.190663 
L 354.424196 125.895213 
L 354.791987 120.284988 
L 355.207095 122.900923 
L 355.606819 120.616908 
L 357.112356 115.962946 
L 357.872881 119.726017 
L 358.257251 117.545568 
L 359.140951 118.658298 
L 360.250928 123.999878 
L 361.025189 115.000635 
L 361.390525 120.535214 
L 362.153116 116.460608 
L 362.684061 117.367749 
L 363.081936 120.743091 
L 363.440838 116.421104 
L 363.775748 111.30602 
L 364.111123 116.626242 
L 364.516716 117.006113 
L 364.892339 120.90393 
L 365.24003 115.762833 
L 365.651817 113.33418 
L 366.032732 116.418342 
L 368.054864 122.077962 
L 368.426444 115.815389 
L 368.821971 119.339999 
L 369.210129 121.213957 
L 369.587888 112.966764 
L 370.435861 115.748831 
L 370.923921 114.083736 
L 371.406152 114.598016 
L 371.987771 114.547986 
L 372.334574 119.573176 
L 372.678004 113.523329 
L 373.486601 119.33821 
L 374.278505 112.816101 
L 374.600317 121.665563 
L 375.296393 116.736779 
L 376.005378 121.682296 
L 376.751966 112.720494 
L 377.128309 112.807514 
L 377.552695 111.233218 
L 377.965955 112.251521 
L 379.05918 118.307356 
L 379.458212 117.491406 
L 379.879644 112.699053 
L 380.315079 113.414524 
L 380.64867 120.261768 
L 380.978595 112.92656 
L 381.375332 115.45433 
L 381.723935 119.885843 
L 382.069226 114.93285 
L 382.443235 118.878505 
L 383.823331 114.712649 
L 384.462088 114.787812 
L 384.830718 118.094878 
L 385.196819 116.950429 
L 386.038676 112.274877 
L 386.426273 114.179725 
L 387.026057 114.16513 
L 387.898662 116.128203 
L 390.647705 110.894037 
L 391.06547 117.912999 
L 391.460997 111.852062 
L 391.891086 111.961737 
L 392.308762 114.24353 
L 392.790119 113.10665 
L 393.27028 113.697833 
L 393.651701 116.675625 
L 394.030937 115.898846 
L 394.470375 111.6484 
L 394.896048 113.977083 
L 396.650535 113.004549 
L 396.976641 120.647249 
L 397.298743 114.368912 
L 397.732254 111.97284 
L 398.136263 112.786948 
L 399.018468 116.371511 
L 399.401797 119.111858 
L 400.140882 110.499024 
L 400.489502 113.981288 
L 400.86846 116.528254 
L 401.246079 114.807933 
L 401.634837 114.552228 
L 402.032829 108.599946 
L 402.402667 111.774826 
L 402.731131 118.628993 
L 403.056607 112.601224 
L 403.446971 109.380454 
L 403.819557 115.390379 
L 404.2585 115.070389 
L 404.694501 111.695403 
L 405.14103 113.148982 
L 405.514807 116.590165 
L 405.886652 115.357243 
L 406.239374 110.471178 
L 406.589313 117.66324 
L 406.96379 118.175024 
L 407.340692 110.862801 
L 407.729391 111.553081 
L 408.121476 118.236943 
L 408.508078 115.180398 
L 409.463749 113.709834 
L 409.949659 116.875133 
L 410.391351 111.449936 
L 410.829045 113.634502 
L 411.310017 113.991368 
L 411.760803 115.813884 
L 412.168021 110.989196 
L 412.584507 114.214503 
L 413.142031 113.274172 
L 413.655557 113.63543 
L 414.004703 108.874571 
L 414.350431 114.248551 
L 415.730048 115.538105 
L 416.099123 111.393469 
L 416.955035 112.61189 
L 417.308884 117.601413 
L 417.659816 109.081828 
L 418.013713 113.797873 
L 418.530946 114.70682 
L 419.014963 112.513737 
L 419.515207 114.619447 
L 421.181187 113.052684 
L 421.565667 116.207678 
L 421.948375 111.667593 
L 422.705529 121.199336 
L 423.026819 118.786779 
L 423.404455 111.603448 
L 424.19363 114.004371 
L 425.466443 116.98263 
L 426.295516 110.149594 
L 426.657459 115.683987 
L 427.089277 113.235435 
L 427.496042 110.229658 
L 427.864168 114.676229 
L 428.270919 116.600922 
L 428.647811 109.681773 
L 429.030771 115.257483 
L 429.952044 114.819306 
L 430.303394 109.99717 
L 430.65165 118.371811 
L 431.014436 112.741709 
L 431.447482 112.551954 
L 431.881211 118.162434 
L 432.284054 113.216727 
L 432.770599 114.507507 
L 433.145027 111.190769 
L 433.516906 116.935723 
L 433.928435 113.949216 
L 434.435616 114.858107 
L 435.280002 108.055126 
L 435.623371 112.474845 
L 436.003023 115.481221 
L 436.384517 111.592285 
L 436.822107 114.320984 
L 437.299392 112.624882 
L 437.751928 113.316845 
L 438.121915 116.962871 
L 438.489411 116.769348 
L 438.896804 112.989421 
L 439.972301 120.845963 
L 440.982224 107.894078 
L 441.316534 120.184344 
L 442.015212 114.894523 
L 442.408994 113.950038 
L 442.8095 116.088851 
L 444.086993 109.756382 
L 444.445642 116.206216 
L 444.855257 116.00155 
L 445.262894 111.500459 
L 445.691801 112.621919 
L 446.130883 113.023905 
L 446.869849 115.993889 
L 447.267492 114.54213 
L 447.664294 114.030649 
L 448.099306 115.021264 
L 448.563254 114.924113 
L 449.033387 111.513033 
L 449.463295 112.668156 
L 450.186704 118.013805 
L 450.563783 117.753894 
L 450.962353 117.033649 
L 451.741698 118.253724 
L 452.545501 109.65027 
L 453.376298 113.959158 
L 453.789954 113.739829 
L 454.210409 109.136051 
L 454.593701 113.89033 
L 454.944654 117.580991 
L 455.29345 113.980109 
L 455.659999 111.919991 
L 456.028793 114.06711 
L 456.433537 117.447152 
L 456.799175 113.481078 
L 457.2057 111.318385 
L 457.579382 119.017282 
L 457.952936 116.006337 
L 459.134635 109.115764 
L 460.229578 119.263029 
L 461.447002 110.570365 
L 462.709229 116.106626 
L 463.143854 115.258822 
L 463.534922 111.735069 
L 463.908337 117.471388 
L 464.311064 113.165139 
L 464.649364 108.438687 
L 464.984693 110.390798 
L 465.375544 115.096165 
L 465.796736 109.176354 
L 466.208472 114.73581 
L 466.975233 113.357242 
L 467.682918 118.695248 
L 468.925692 110.741536 
L 469.331698 115.179462 
L 469.763803 114.345828 
L 470.146197 110.766717 
L 470.513121 118.983493 
L 470.881823 115.285058 
L 471.325394 113.757683 
L 471.730027 116.387132 
L 472.13298 114.925229 
L 472.839864 117.373776 
L 473.226148 109.049301 
L 475.175069 117.047472 
L 475.592554 116.705466 
L 476.025398 116.179859 
L 476.72959 112.598519 
L 477.140426 115.790064 
L 477.557666 109.608418 
L 477.952575 114.949884 
L 478.75563 114.882367 
L 479.104571 119.310616 
L 479.450664 116.017326 
L 479.78042 109.524942 
L 480.517187 113.588751 
L 480.880578 117.667169 
L 481.235164 112.868138 
L 481.670187 116.00205 
L 482.045343 116.660748 
L 482.431586 115.695983 
L 482.76553 109.322562 
L 483.47496 114.055062 
L 483.923071 114.763189 
L 484.313205 111.895323 
L 484.706455 116.691819 
L 485.136442 110.642737 
L 486.779414 118.377984 
L 487.127255 109.958424 
L 487.9172 113.665046 
L 489.475148 112.762913 
L 490.156832 120.607375 
L 490.504638 118.836171 
L 491.678787 109.753125 
L 492.929246 115.5715 
L 493.31679 109.977623 
L 493.699009 112.598046 
L 494.086217 113.400014 
L 494.440984 121.894376 
L 494.775597 115.36669 
L 495.707617 117.343821 
L 497.026503 112.736938 
L 497.421267 109.65718 
L 497.78169 113.344694 
L 498.803737 120.016562 
L 500.010577 113.160896 
L 500.7879 112.073604 
L 501.14448 114.96291 
L 501.628405 111.249584 
L 502.090448 112.729757 
L 502.50671 108.138972 
L 503.745873 117.964628 
L 504.547456 113.890823 
L 504.950289 116.728965 
L 505.392905 114.221162 
L 506.082582 118.144437 
L 506.443528 109.165753 
L 507.200587 114.485761 
L 508.031394 113.374699 
L 508.42249 112.69089 
L 508.82182 113.918341 
L 509.305797 113.310061 
L 509.662317 117.879725 
L 510.418493 115.543217 
L 511.245594 113.56007 
L 511.680884 116.967524 
L 512.08837 116.351984 
L 512.854143 112.460702 
L 514.487613 117.810332 
L 514.908628 111.197321 
L 515.311459 114.743956 
L 515.78591 114.901936 
L 516.266365 113.572932 
L 516.726225 113.821045 
L 517.102818 108.302239 
L 517.442079 118.157422 
L 517.794599 113.485565 
L 518.164825 110.074071 
L 518.545377 114.297429 
L 519.831863 116.060053 
L 520.161044 108.806992 
L 520.874189 111.519624 
L 521.697811 114.757236 
L 522.089487 110.796083 
L 522.507968 113.600134 
L 523.290069 116.606367 
L 524.073005 113.348109 
L 524.82869 117.883411 
L 525.218437 110.265528 
L 525.602934 119.474868 
L 527.547682 111.49849 
L 528.342023 115.71279 
L 528.751356 113.24934 
L 529.243723 115.16902 
L 529.687908 113.359029 
L 530.207831 112.858298 
L 530.608908 109.617463 
L 531.740998 116.797794 
L 532.936778 109.470103 
L 533.318382 117.371688 
L 534.11406 115.160836 
L 534.526838 112.325574 
L 534.886523 116.779748 
L 535.249734 113.829652 
L 535.653947 114.613333 
L 536.063944 118.533528 
L 536.45757 115.454684 
L 536.865092 111.25875 
L 537.244901 113.195978 
L 537.698998 114.453363 
L 538.153477 113.122966 
L 538.400355 112.939145 
L 538.400355 112.939145 
" clip-path="url(#p239005e196)" style="fill: none; stroke: #e41a1c; stroke-width: 2; stroke-linecap: square"/>
   </g>
   <g id="line2d_30">
    <path d="M 74.407457 114.199652 
L 74.453857 116.417402 
L 75.092994 114.216298 
L 77.674185 116.749646 
L 78.715209 113.462306 
L 79.014542 114.351971 
L 79.470275 115.029229 
L 79.809017 112.627897 
L 80.442039 113.59277 
L 80.812178 114.722675 
L 81.173192 113.97029 
L 81.842615 111.908526 
L 82.170352 113.444834 
L 82.887925 111.563278 
L 83.205799 113.823139 
L 83.846212 112.441966 
L 84.634279 114.091928 
L 84.99737 112.46109 
L 85.345302 111.868835 
L 85.70068 112.844725 
L 86.962038 116.25954 
L 87.219067 115.619393 
L 87.948652 113.923646 
L 88.304079 115.250589 
L 88.663564 115.944988 
L 88.943957 112.66853 
L 89.474604 114.786018 
L 90.328539 113.415011 
L 91.385287 117.284045 
L 91.674294 114.71575 
L 91.943511 114.613866 
L 93.296915 116.352354 
L 94.435381 115.371785 
L 94.890696 115.223843 
L 95.350527 116.465826 
L 95.768187 115.151577 
L 97.272065 113.124217 
L 98.889323 112.253481 
L 99.914309 114.4175 
L 100.974106 111.455189 
L 101.230004 115.214857 
L 101.440145 110.826601 
L 102.187576 114.662502 
L 102.752739 112.620965 
L 103.115853 112.845937 
L 103.444319 115.013147 
L 103.748796 113.955331 
L 104.106684 112.486886 
L 104.455121 113.733523 
L 105.162056 113.561122 
L 105.506533 112.126812 
L 105.790936 114.527515 
L 106.08717 113.708778 
L 107.265871 114.726057 
L 107.70547 114.716966 
L 108.817216 112.570917 
L 109.161342 114.595282 
L 109.834855 113.229478 
L 111.201534 113.148095 
L 111.611154 113.015104 
L 112.906476 115.848255 
L 113.865994 112.609656 
L 114.212409 113.839291 
L 114.537883 115.395864 
L 115.201909 115.146245 
L 117.06495 113.282628 
L 117.426373 114.796747 
L 118.147877 114.394445 
L 118.527817 113.581501 
L 118.930664 113.841428 
L 120.051747 115.22841 
L 121.199539 113.285368 
L 123.040723 112.793914 
L 123.337017 115.513317 
L 124.17786 115.25831 
L 124.465993 113.538238 
L 125.042591 113.865222 
L 125.64797 113.473927 
L 125.903373 116.232818 
L 126.420352 113.160833 
L 127.113318 113.732435 
L 127.991731 114.600543 
L 128.38825 114.906543 
L 129.65997 113.718608 
L 130.020417 115.693702 
L 130.765837 115.026966 
L 131.105301 113.296428 
L 131.430368 115.33895 
L 132.466178 115.809829 
L 133.2372 114.145392 
L 133.636681 115.417991 
L 134.020379 114.564371 
L 134.433123 114.065853 
L 134.76757 116.553493 
L 135.427286 114.581886 
L 136.16034 116.097362 
L 136.563389 115.601494 
L 137.434987 114.32287 
L 137.815028 115.851326 
L 138.176691 114.541924 
L 138.536749 113.474391 
L 138.832971 115.819824 
L 139.472076 114.051085 
L 139.845528 115.292952 
L 140.209065 114.883806 
L 140.633561 114.187439 
L 140.994891 116.056007 
L 141.341342 113.970404 
L 141.657537 114.217902 
L 142.045312 113.066995 
L 142.412172 114.89771 
L 142.749575 113.312211 
L 143.591015 116.303934 
L 144.572765 113.64911 
L 145.769809 114.325881 
L 146.986409 113.024013 
L 147.338081 113.503054 
L 147.976131 116.865988 
L 148.99674 115.336238 
L 150.613547 113.138069 
L 151.760916 112.009425 
L 152.361257 115.146482 
L 152.652566 114.329541 
L 153.065795 114.272327 
L 153.776475 111.393453 
L 154.062898 114.203204 
L 155.040627 114.943751 
L 156.265089 116.007864 
L 156.55614 113.276396 
L 157.414186 114.209159 
L 157.699036 115.927488 
L 158.270886 113.853078 
L 158.930437 114.405638 
L 159.356796 115.459784 
L 159.662674 112.544902 
L 160.252406 115.899145 
L 160.532815 113.699532 
L 160.803231 114.783927 
L 161.436851 113.43662 
L 163.147687 116.054215 
L 163.484332 115.364223 
L 164.640304 114.617928 
L 165.612167 111.842649 
L 166.213163 115.272288 
L 166.744899 113.432619 
L 167.184206 114.403914 
L 167.20616 142.523511 
L 167.209684 97.06898 
L 168.035053 103.877133 
L 172.925363 79.471355 
L 173.490048 80.121703 
L 176.724308 70.03641 
L 177.565936 67.375173 
L 179.738613 59.549092 
L 180.109615 59.710636 
L 180.538538 59.945877 
L 182.859591 55.333745 
L 184.264465 50.585414 
L 193.679233 36.861503 
L 194.091728 37.699671 
L 194.465616 36.035005 
L 194.835107 37.587971 
L 196.249507 36.711376 
L 197.340674 33.69957 
L 196.935348 36.849741 
L 197.730294 33.883622 
L 198.136388 35.88601 
L 198.520315 34.242096 
L 198.896853 32.298728 
L 199.239449 35.104341 
L 199.600759 33.711063 
L 200.08658 34.770242 
L 201.853523 31.770059 
L 202.721481 32.945927 
L 204.071909 30.815406 
L 204.555093 31.949502 
L 204.902839 29.777112 
L 205.247065 31.870583 
L 208.417053 30.874293 
L 209.463792 32.320552 
L 209.898449 30.535262 
L 210.311002 30.639428 
L 211.948426 33.959866 
L 212.311493 31.947543 
L 212.749724 35.195079 
L 213.147847 33.11053 
L 213.513931 31.622134 
L 214.289203 32.05492 
L 214.822324 33.121057 
L 215.348684 32.660493 
L 216.149036 31.041303 
L 216.559699 33.583417 
L 216.941155 33.409362 
L 217.780294 33.774136 
L 218.244034 32.028304 
L 219.124432 34.214465 
L 219.538617 33.023177 
L 221.2585 35.583811 
L 221.731549 36.362209 
L 222.158561 35.048814 
L 222.60409 35.683044 
L 223.636407 36.219428 
L 223.980779 34.256556 
L 224.321836 36.781882 
L 224.692789 35.033121 
L 226.15116 36.498751 
L 226.556482 35.471806 
L 227.051452 36.133527 
L 228.178735 35.850668 
L 229.632777 36.274015 
L 234.464678 36.620398 
L 234.886004 35.678887 
L 235.270439 37.253978 
L 236.639794 37.847381 
L 237.220099 37.634245 
L 237.563093 39.7861 
L 238.298113 38.449492 
L 239.140384 36.77439 
L 239.550997 38.257031 
L 240.007902 38.272423 
L 240.454073 39.437304 
L 240.871251 39.200747 
L 241.355064 38.767728 
L 241.886927 39.859297 
L 242.371136 38.698683 
L 243.954085 39.775666 
L 244.736003 38.738949 
L 246.175171 39.795562 
L 247.550388 39.486889 
L 248.099894 40.377273 
L 249.073872 38.592045 
L 250.28823 42.328144 
L 251.415707 37.371593 
L 251.778671 38.319771 
L 252.101393 40.557144 
L 252.874809 40.075615 
L 253.305323 40.79432 
L 253.710908 38.725593 
L 254.108435 39.596106 
L 254.57328 40.210157 
L 255.030701 39.215414 
L 256.710041 36.860026 
L 258.404462 38.730984 
L 258.812164 35.924523 
L 259.186586 38.862408 
L 260.029121 37.160392 
L 260.4458 37.931452 
L 261.669995 39.754282 
L 261.238862 37.393132 
L 262.087709 39.483751 
L 265.265241 39.71226 
L 265.714209 40.909981 
L 266.123262 39.649083 
L 266.555087 39.303614 
L 266.974955 41.200386 
L 267.384134 38.848116 
L 269.429399 40.353208 
L 270.081277 37.693931 
L 270.454949 39.321595 
L 271.59157 39.274502 
L 272.036671 40.064313 
L 272.421375 38.992433 
L 272.81008 39.289516 
L 273.173133 38.226544 
L 273.581955 39.074106 
L 275.906344 39.555649 
L 276.257338 37.645871 
L 276.604947 39.414141 
L 277.489594 39.463351 
L 278.342622 40.376555 
L 279.164476 38.912243 
L 279.601485 39.666009 
L 280.494637 37.589065 
L 280.913776 37.771304 
L 282.19218 38.523821 
L 282.929821 42.502472 
L 283.27392 40.772094 
L 284.107209 39.064256 
L 284.897487 39.653947 
L 285.326195 40.041392 
L 286.206218 38.149715 
L 286.621862 38.854184 
L 287.112605 38.653563 
L 287.500843 39.635743 
L 287.887294 38.013166 
L 289.228744 38.833009 
L 289.57638 37.050456 
L 290.346174 37.945051 
L 291.007093 40.618413 
L 291.370808 39.074147 
L 291.838803 39.911871 
L 292.298905 39.163226 
L 292.715017 37.891137 
L 293.109934 40.209704 
L 293.510338 39.441252 
L 293.842988 37.15732 
L 294.657149 38.172161 
L 296.851971 39.308192 
L 297.299211 40.21803 
L 297.721951 39.028686 
L 299.492128 39.728039 
L 301.461792 38.510952 
L 301.858692 39.698675 
L 302.260609 40.628985 
L 302.638129 36.683827 
L 303.370608 39.475538 
L 303.695853 36.647684 
L 304.372351 37.222202 
L 305.202924 38.820205 
L 305.626625 36.789579 
L 306.049167 37.551204 
L 307.806961 38.423498 
L 308.991739 36.239185 
L 309.408135 36.691606 
L 310.884731 40.134294 
L 312.138581 38.011964 
L 312.579914 38.249678 
L 312.936015 40.441046 
L 313.270389 37.499281 
L 313.623322 39.203844 
L 315.055596 38.377557 
L 315.475762 38.370395 
L 315.876858 39.804445 
L 316.243191 38.822785 
L 316.734631 39.051243 
L 317.111485 37.474466 
L 317.468941 39.19855 
L 317.890993 40.134411 
L 318.27798 38.774191 
L 319.100394 37.329441 
L 319.936371 38.946563 
L 320.725805 36.437904 
L 321.089762 37.285811 
L 321.439117 38.77609 
L 321.786044 37.025414 
L 324.326934 38.266213 
L 324.809438 37.197928 
L 325.245918 37.472299 
L 327.189488 39.765231 
L 330.628871 37.66545 
L 331.455607 40.968846 
L 331.832105 39.902281 
L 332.176444 38.391557 
L 332.51838 40.25493 
L 332.929855 41.390775 
L 333.737811 41.051338 
L 335.733723 37.695845 
L 336.106622 38.351398 
L 336.515029 37.518842 
L 336.935975 36.371337 
L 337.34301 37.159002 
L 338.392461 39.893151 
L 344.758053 38.950597 
L 345.141517 37.096755 
L 345.894835 38.258691 
L 348.031981 39.871018 
L 348.410398 38.846805 
L 348.787229 39.558651 
L 349.655708 40.915433 
L 350.475942 38.477702 
L 350.877886 39.22984 
L 351.29637 38.865427 
L 351.615754 35.691768 
L 351.93151 39.811137 
L 352.245222 40.212198 
L 352.59267 39.836869 
L 352.766759 34.485071 
L 352.803173 47.780321 
L 352.803614 35.830391 
L 352.804488 17.854506 
L 352.854766 47.167391 
L 353.684367 44.972917 
L 354.018447 44.585829 
L 355.606819 49.952824 
L 357.112356 50.359976 
L 360.61772 59.470885 
L 361.025189 58.365658 
L 361.750199 60.914334 
L 362.153116 60.697714 
L 363.081936 63.469401 
L 363.440838 62.731826 
L 363.775748 61.081622 
L 364.111123 62.693417 
L 367.673062 68.119378 
L 369.210129 71.811651 
L 369.587888 69.613985 
L 370.017036 72.172985 
L 371.406152 71.255962 
L 371.987771 71.293139 
L 373.486601 74.07469 
L 374.278505 72.023575 
L 375.652768 76.925956 
L 376.005378 78.183646 
L 376.367773 76.113608 
L 377.965955 74.486763 
L 379.458212 77.751672 
L 380.315079 76.349845 
L 381.723935 79.575122 
L 382.069226 78.473004 
L 382.443235 80.154341 
L 384.462088 80.017993 
L 385.196819 81.555279 
L 385.615516 80.944747 
L 386.038676 80.125119 
L 386.426273 80.590488 
L 387.462693 81.12184 
L 388.347121 81.436846 
L 390.647705 79.149432 
L 391.06547 81.486136 
L 391.460997 79.624479 
L 393.27028 79.326118 
L 394.030937 80.502641 
L 395.406569 79.254391 
L 396.650535 78.640122 
L 396.976641 81.353735 
L 397.298743 79.847881 
L 398.580362 78.996775 
L 399.401797 81.468435 
L 399.757947 80.208753 
L 400.140882 78.78476 
L 400.489502 79.607648 
L 400.86846 80.593585 
L 401.634837 80.278553 
L 402.032829 77.924453 
L 402.402667 78.33238 
L 402.731131 80.591041 
L 403.056607 78.911585 
L 403.446971 77.357484 
L 403.819557 78.998333 
L 404.2585 79.074144 
L 404.694501 77.801542 
L 405.14103 77.958129 
L 405.514807 79.15783 
L 405.886652 79.033647 
L 406.239374 77.309399 
L 406.589313 79.556122 
L 406.96379 80.292855 
L 407.729391 77.759787 
L 408.121476 80.038346 
L 408.955248 79.383498 
L 409.463749 79.091037 
L 409.949659 80.416317 
L 410.391351 78.610721 
L 410.829045 79.051298 
L 411.760803 79.859035 
L 412.168021 78.15567 
L 412.584507 78.947721 
L 414.004703 76.55791 
L 414.813448 78.241146 
L 416.955035 77.097347 
L 417.308884 78.800624 
L 417.659816 75.993184 
L 418.530946 77.40366 
L 420.127402 76.454591 
L 421.181187 75.905766 
L 421.565667 76.983579 
L 421.948375 75.47794 
L 422.380288 76.087475 
L 423.026819 78.729927 
L 423.404455 76.589596 
L 424.19363 76.880694 
L 425.466443 78.658365 
L 426.295516 76.044961 
L 426.657459 77.613905 
L 427.496042 75.454715 
L 427.864168 76.604979 
L 428.270919 77.469473 
L 428.647811 75.0869 
L 429.030771 76.605804 
L 429.952044 76.745645 
L 430.303394 74.968941 
L 430.65165 77.599322 
L 431.014436 76.011327 
L 431.447482 75.670638 
L 431.881211 77.742714 
L 432.284054 76.37976 
L 432.770599 76.762034 
L 433.145027 75.496961 
L 433.516906 77.312547 
L 435.280002 73.890587 
L 435.623371 74.718679 
L 436.003023 75.637884 
L 436.384517 74.273834 
L 436.822107 74.945473 
L 437.299392 74.204357 
L 437.751928 74.19238 
L 439.245137 76.918393 
L 439.589373 76.625219 
L 439.972301 78.709355 
L 440.321218 78.23775 
L 440.982224 74.720821 
L 441.316534 78.534401 
L 442.015212 77.054317 
L 444.086993 75.040384 
L 444.855257 77.151769 
L 446.130883 75.469899 
L 446.869849 76.619354 
L 447.267492 76.320397 
L 449.463295 75.328136 
L 450.962353 78.253829 
L 451.34947 77.422508 
L 451.741698 79.168257 
L 452.154415 77.488804 
L 452.545501 76.080671 
L 452.91501 76.759514 
L 453.789954 76.785155 
L 454.210409 74.784894 
L 454.593701 75.883801 
L 454.944654 77.258066 
L 455.29345 76.344368 
L 455.659999 75.498071 
L 456.028793 75.995552 
L 456.433537 77.350937 
L 456.799175 76.276392 
L 457.2057 75.267814 
L 457.579382 77.875422 
L 458.375458 76.846993 
L 458.753994 77.144818 
L 459.134635 74.987359 
L 459.505176 77.977223 
L 459.876539 77.032462 
L 460.229578 78.913576 
L 460.579308 77.440435 
L 462.245825 76.413777 
L 463.143854 77.305764 
L 463.908337 77.949783 
L 464.984693 74.739496 
L 465.375544 76.016778 
L 465.796736 73.691679 
L 466.208472 75.118061 
L 467.682918 77.672484 
L 468.925692 75.213862 
L 469.331698 76.458337 
L 469.763803 76.282254 
L 470.146197 74.873262 
L 470.513121 77.589294 
L 471.325394 76.407116 
L 471.730027 77.414659 
L 472.13298 77.184543 
L 472.839864 77.738383 
L 473.604703 74.915366 
L 477.140426 77.652038 
L 477.557666 75.365974 
L 477.952575 76.787759 
L 478.75563 76.986273 
L 479.104571 78.793124 
L 479.450664 78.252869 
L 479.78042 76.051614 
L 480.517187 76.728867 
L 480.880578 78.23611 
L 481.670187 77.965828 
L 482.431586 78.518012 
L 482.76553 76.310142 
L 483.47496 77.253703 
L 483.923071 77.528098 
L 484.706455 78.028427 
L 485.136442 75.923709 
L 486.779414 77.877215 
L 487.127255 75.222229 
L 487.9172 76.245419 
L 489.475148 75.30399 
L 490.504638 78.930718 
L 491.678787 75.991485 
L 492.929246 77.078069 
L 493.31679 75.042747 
L 494.086217 75.48125 
L 494.440984 78.655601 
L 495.285059 77.660273 
L 495.707617 78.601365 
L 496.111331 77.282401 
L 496.568886 77.732928 
L 497.026503 77.053853 
L 497.421267 75.572207 
L 497.78169 76.341646 
L 498.803737 79.260941 
L 499.141437 78.060873 
L 499.5789 79.683756 
L 500.010577 78.259581 
L 502.50671 74.666919 
L 503.745873 77.932898 
L 504.547456 76.920044 
L 504.950289 78.028505 
L 505.392905 77.424706 
L 506.082582 78.298158 
L 506.804571 75.390354 
L 507.200587 76.244907 
L 507.612293 75.407315 
L 513.275933 76.967769 
L 514.487613 79.103804 
L 514.908628 76.992433 
L 515.311459 77.958043 
L 516.726225 77.7103 
L 517.102818 75.462288 
L 517.442079 78.407922 
L 517.794599 77.165589 
L 518.164825 75.709839 
L 518.545377 76.748304 
L 519.831863 78.053181 
L 520.874189 75.356141 
L 521.697811 76.009587 
L 522.089487 74.487315 
L 522.507968 75.052131 
L 523.290069 76.319525 
L 523.683289 75.588717 
L 524.073005 75.325098 
L 524.82869 77.355371 
L 525.218437 74.876538 
L 525.602934 77.95162 
L 527.547682 76.382445 
L 528.342023 77.765808 
L 528.751356 77.012813 
L 529.243723 77.686232 
L 529.687908 77.097957 
L 530.608908 75.146842 
L 531.354164 76.676757 
L 531.740998 77.521076 
L 532.150556 76.48535 
L 532.936778 74.280842 
L 533.318382 76.688959 
L 534.11406 76.26039 
L 534.526838 75.247363 
L 534.886523 76.705411 
L 535.249734 75.929576 
L 535.653947 76.186694 
L 536.063944 77.87063 
L 536.45757 77.328542 
L 536.865092 75.823451 
L 537.698998 76.496349 
L 538.400355 75.799983 
L 538.400355 75.799983 
" clip-path="url(#p239005e196)" style="fill: none; stroke: #377eb8; stroke-width: 2; stroke-linecap: square"/>
   </g>
   <g id="patch_3">
    <path d="M 51.207813 241.599141 
L 51.207813 7.2 
" style="fill: none; stroke: #7f7f7f; stroke-width: 1.8; stroke-linejoin: miter; stroke-linecap: square"/>
   </g>
   <g id="patch_4">
    <path d="M 51.207813 241.599141 
L 561.6 241.599141 
" style="fill: none; stroke: #7f7f7f; stroke-width: 1.8; stroke-linejoin: miter; stroke-linecap: square"/>
   </g>
   <g id="legend_1">
    <g id="line2d_31">
     <path d="M 499.584375 20.298438 
L 509.584375 20.298438 
L 519.584375 20.298438 
" style="fill: none; stroke: #e41a1c; stroke-width: 2; stroke-linecap: square"/>
    </g>
    <g id="text_16">
     <!-- err 2 -->
     <g style="fill: #7f7f7f" transform="translate(527.584375 23.798438) scale(0.1 -0.1)">
      <defs>
       <path id="DejaVuSans-55" d="M 2631 2963 
Q 2534 3019 2420 3045 
Q 2306 3072 2169 3072 
Q 1681 3072 1420 2755 
Q 1159 2438 1159 1844 
L 1159 0 
L 581 0 
L 581 3500 
L 1159 3500 
L 1159 2956 
Q 1341 3275 1631 3429 
Q 1922 3584 2338 3584 
Q 2397 3584 2469 3576 
Q 2541 3569 2628 3553 
L 2631 2963 
z
" transform="scale(0.015625)"/>
      </defs>
      <use xlink:href="#DejaVuSans-48"/>
      <use xlink:href="#DejaVuSans-55" transform="translate(61.53125 0)"/>
      <use xlink:href="#DejaVuSans-55" transform="translate(100.890625 0)"/>
      <use xlink:href="#DejaVuSans-3" transform="translate(142 0)"/>
      <use xlink:href="#DejaVuSans-15" transform="translate(173.78125 0)"/>
     </g>
    </g>
    <g id="line2d_32">
     <path d="M 499.584375 35.299219 
L 509.584375 35.299219 
L 519.584375 35.299219 
" style="fill: none; stroke: #377eb8; stroke-width: 2; stroke-linecap: square"/>
    </g>
    <g id="text_17">
     <!-- pid 2 -->
     <g style="fill: #7f7f7f" transform="translate(527.584375 38.799219) scale(0.1 -0.1)">
      <defs>
       <path id="DejaVuSans-53" d="M 1159 525 
L 1159 -1331 
L 581 -1331 
L 581 3500 
L 1159 3500 
L 1159 2969 
Q 1341 3281 1617 3432 
Q 1894 3584 2278 3584 
Q 2916 3584 3314 3078 
Q 3713 2572 3713 1747 
Q 3713 922 3314 415 
Q 2916 -91 2278 -91 
Q 1894 -91 1617 61 
Q 1341 213 1159 525 
z
M 3116 1747 
Q 3116 2381 2855 2742 
Q 2594 3103 2138 3103 
Q 1681 3103 1420 2742 
Q 1159 2381 1159 1747 
Q 1159 1113 1420 752 
Q 1681 391 2138 391 
Q 2594 391 2855 752 
Q 3116 1113 3116 1747 
z
" transform="scale(0.015625)"/>
       <path id="DejaVuSans-47" d="M 2906 2969 
L 2906 4863 
L 3481 4863 
L 3481 0 
L 2906 0 
L 2906 525 
Q 2725 213 2448 61 
Q 2172 -91 1784 -91 
Q 1150 -91 751 415 
Q 353 922 353 1747 
Q 353 2572 751 3078 
Q 1150 3584 1784 3584 
Q 2172 3584 2448 3432 
Q 2725 3281 2906 2969 
z
M 947 1747 
Q 947 1113 1208 752 
Q 1469 391 1925 391 
Q 2381 391 2643 752 
Q 2906 1113 2906 1747 
Q 2906 2381 2643 2742 
Q 2381 3103 1925 3103 
Q 1469 3103 1208 2742 
Q 947 2381 947 1747 
z
" transform="scale(0.015625)"/>
      </defs>
      <use xlink:href="#DejaVuSans-53"/>
      <use xlink:href="#DejaVuSans-4c" transform="translate(63.484375 0)"/>
      <use xlink:href="#DejaVuSans-47" transform="translate(91.265625 0)"/>
      <use xlink:href="#DejaVuSans-3" transform="translate(154.75 0)"/>
      <use xlink:href="#DejaVuSans-15" transform="translate(186.53125 0)"/>
     </g>
    </g>
   </g>
  </g>
 </g>
 <defs>
  <clipPath id="p239005e196">
   <rect x="51.207813" y="7.2" width="510.392187" height="234.399141"/>
  </clipPath>
 </defs>
</svg>
