<?xml version="1.0" encoding="utf-8" standalone="no"?>
<!DOCTYPE svg PUBLIC "-//W3C//DTD SVG 1.1//EN"
  "http://www.w3.org/Graphics/SVG/1.1/DTD/svg11.dtd">
<svg xmlns:xlink="http://www.w3.org/1999/xlink" width="575.1625pt" height="424.8pt" viewBox="0 0 575.1625 424.8" xmlns="http://www.w3.org/2000/svg" version="1.1">
 <metadata>
  <rdf:RDF xmlns:dc="http://purl.org/dc/elements/1.1/" xmlns:cc="http://creativecommons.org/ns#" xmlns:rdf="http://www.w3.org/1999/02/22-rdf-syntax-ns#">
   <cc:Work>
    <dc:type rdf:resource="http://purl.org/dc/dcmitype/StillImage"/>
    <dc:date>2026-05-30T00:43:23.368587</dc:date>
    <dc:format>image/svg+xml</dc:format>
    <dc:creator>
     <cc:Agent>
      <dc:title>Matplotlib v3.10.9, https://matplotlib.org/</dc:title>
     </cc:Agent>
    </dc:creator>
   </cc:Work>
  </rdf:RDF>
 </metadata>
 <defs>
  <style type="text/css">*{stroke-linejoin: round; stroke-linecap: butt}</style>
 </defs>
 <g id="figure_1">
  <g id="patch_1">
   <path d="M 0 424.8 
L 575.1625 424.8 
L 575.1625 0 
L 0 0 
L 0 424.8 
z
" style="fill: none"/>
  </g>
  <g id="axes_1">
   <g id="patch_2">
    <path d="M 51.111563 190.557969 
L 567.9625 190.557969 
L 567.9625 22.318125 
L 51.111563 22.318125 
L 51.111563 190.557969 
z
" style="fill: none"/>
   </g>
   <g id="matplotlib.axis_1">
    <g id="xtick_1">
     <g id="line2d_1">
      <defs>
       <path id="md43d28981e" d="M 0 0 
L 0 3.5 
" style="stroke: #7f7f7f; stroke-width: 1.8"/>
      </defs>
      <g>
       <use xlink:href="#md43d28981e" x="74.604787" y="190.557969" style="fill: #7f7f7f; stroke: #7f7f7f; stroke-width: 1.8"/>
      </g>
     </g>
     <g id="text_1">
      <!-- 0.0 -->
      <g style="fill: #7f7f7f" transform="translate(66.653224 205.156406) scale(0.1 -0.1)">
       <defs>
        <path id="DejaVuSans-30" d="M 2034 4250 
Q 1547 4250 1301 3770 
Q 1056 3291 1056 2328 
Q 1056 1369 1301 889 
Q 1547 409 2034 409 
Q 2525 409 2770 889 
Q 3016 1369 3016 2328 
Q 3016 3291 2770 3770 
Q 2525 4250 2034 4250 
z
M 2034 4750 
Q 2819 4750 3233 4129 
Q 3647 3509 3647 2328 
Q 3647 1150 3233 529 
Q 2819 -91 2034 -91 
Q 1250 -91 836 529 
Q 422 1150 422 2328 
Q 422 3509 836 4129 
Q 1250 4750 2034 4750 
z
" transform="scale(0.015625)"/>
        <path id="DejaVuSans-2e" d="M 684 794 
L 1344 794 
L 1344 0 
L 684 0 
L 684 794 
z
" transform="scale(0.015625)"/>
       </defs>
       <use xlink:href="#DejaVuSans-30"/>
       <use xlink:href="#DejaVuSans-2e" transform="translate(63.623047 0)"/>
       <use xlink:href="#DejaVuSans-30" transform="translate(95.410156 0)"/>
      </g>
     </g>
    </g>
    <g id="xtick_2">
     <g id="line2d_2">
      <g>
       <use xlink:href="#md43d28981e" x="133.337848" y="190.557969" style="fill: #7f7f7f; stroke: #7f7f7f; stroke-width: 1.8"/>
      </g>
     </g>
     <g id="text_2">
      <!-- 2.5 -->
      <g style="fill: #7f7f7f" transform="translate(125.386286 205.156406) scale(0.1 -0.1)">
       <defs>
        <path id="DejaVuSans-32" d="M 1228 531 
L 3431 531 
L 3431 0 
L 469 0 
L 469 531 
Q 828 903 1448 1529 
Q 2069 2156 2228 2338 
Q 2531 2678 2651 2914 
Q 2772 3150 2772 3378 
Q 2772 3750 2511 3984 
Q 2250 4219 1831 4219 
Q 1534 4219 1204 4116 
Q 875 4013 500 3803 
L 500 4441 
Q 881 4594 1212 4672 
Q 1544 4750 1819 4750 
Q 2544 4750 2975 4387 
Q 3406 4025 3406 3419 
Q 3406 3131 3298 2873 
Q 3191 2616 2906 2266 
Q 2828 2175 2409 1742 
Q 1991 1309 1228 531 
z
" transform="scale(0.015625)"/>
        <path id="DejaVuSans-35" d="M 691 4666 
L 3169 4666 
L 3169 4134 
L 1269 4134 
L 1269 2991 
Q 1406 3038 1543 3061 
Q 1681 3084 1819 3084 
Q 2600 3084 3056 2656 
Q 3513 2228 3513 1497 
Q 3513 744 3044 326 
Q 2575 -91 1722 -91 
Q 1428 -91 1123 -41 
Q 819 9 494 109 
L 494 744 
Q 775 591 1075 516 
Q 1375 441 1709 441 
Q 2250 441 2565 725 
Q 2881 1009 2881 1497 
Q 2881 1984 2565 2268 
Q 2250 2553 1709 2553 
Q 1456 2553 1204 2497 
Q 953 2441 691 2322 
L 691 4666 
z
" transform="scale(0.015625)"/>
       </defs>
       <use xlink:href="#DejaVuSans-32"/>
       <use xlink:href="#DejaVuSans-2e" transform="translate(63.623047 0)"/>
       <use xlink:href="#DejaVuSans-35" transform="translate(95.410156 0)"/>
      </g>
     </g>
    </g>
    <g id="xtick_3">
     <g id="line2d_3">
      <g>
       <use xlink:href="#md43d28981e" x="192.070909" y="190.557969" style="fill: #7f7f7f; stroke: #7f7f7f; stroke-width: 1.8"/>
      </g>
     </g>
     <g id="text_3">
      <!-- 5.0 -->
      <g style="fill: #7f7f7f" transform="translate(184.119347 205.156406) scale(0.1 -0.1)">
       <use xlink:href="#DejaVuSans-35"/>
       <use xlink:href="#DejaVuSans-2e" transform="translate(63.623047 0)"/>
       <use xlink:href="#DejaVuSans-30" transform="translate(95.410156 0)"/>
      </g>
     </g>
    </g>
    <g id="xtick_4">
     <g id="line2d_4">
      <g>
       <use xlink:href="#md43d28981e" x="250.80397" y="190.557969" style="fill: #7f7f7f; stroke: #7f7f7f; stroke-width: 1.8"/>
      </g>
     </g>
     <g id="text_4">
      <!-- 7.5 -->
      <g style="fill: #7f7f7f" transform="translate(242.852408 205.156406) scale(0.1 -0.1)">
       <defs>
        <path id="DejaVuSans-37" d="M 525 4666 
L 3525 4666 
L 3525 4397 
L 1831 0 
L 1172 0 
L 2766 4134 
L 525 4134 
L 525 4666 
z
" transform="scale(0.015625)"/>
       </defs>
       <use xlink:href="#DejaVuSans-37"/>
       <use xlink:href="#DejaVuSans-2e" transform="translate(63.623047 0)"/>
       <use xlink:href="#DejaVuSans-35" transform="translate(95.410156 0)"/>
      </g>
     </g>
    </g>
    <g id="xtick_5">
     <g id="line2d_5">
      <g>
       <use xlink:href="#md43d28981e" x="309.537031" y="190.557969" style="fill: #7f7f7f; stroke: #7f7f7f; stroke-width: 1.8"/>
      </g>
     </g>
     <g id="text_5">
      <!-- 10.0 -->
      <g style="fill: #7f7f7f" transform="translate(298.404219 205.156406) scale(0.1 -0.1)">
       <defs>
        <path id="DejaVuSans-31" d="M 794 531 
L 1825 531 
L 1825 4091 
L 703 3866 
L 703 4441 
L 1819 4666 
L 2450 4666 
L 2450 531 
L 3481 531 
L 3481 0 
L 794 0 
L 794 531 
z
" transform="scale(0.015625)"/>
       </defs>
       <use xlink:href="#DejaVuSans-31"/>
       <use xlink:href="#DejaVuSans-30" transform="translate(63.623047 0)"/>
       <use xlink:href="#DejaVuSans-2e" transform="translate(127.246094 0)"/>
       <use xlink:href="#DejaVuSans-30" transform="translate(159.033203 0)"/>
      </g>
     </g>
    </g>
    <g id="xtick_6">
     <g id="line2d_6">
      <g>
       <use xlink:href="#md43d28981e" x="368.270092" y="190.557969" style="fill: #7f7f7f; stroke: #7f7f7f; stroke-width: 1.8"/>
      </g>
     </g>
     <g id="text_6">
      <!-- 12.5 -->
      <g style="fill: #7f7f7f" transform="translate(357.13728 205.156406) scale(0.1 -0.1)">
       <use xlink:href="#DejaVuSans-31"/>
       <use xlink:href="#DejaVuSans-32" transform="translate(63.623047 0)"/>
       <use xlink:href="#DejaVuSans-2e" transform="translate(127.246094 0)"/>
       <use xlink:href="#DejaVuSans-35" transform="translate(159.033203 0)"/>
      </g>
     </g>
    </g>
    <g id="xtick_7">
     <g id="line2d_7">
      <g>
       <use xlink:href="#md43d28981e" x="427.003153" y="190.557969" style="fill: #7f7f7f; stroke: #7f7f7f; stroke-width: 1.8"/>
      </g>
     </g>
     <g id="text_7">
      <!-- 15.0 -->
      <g style="fill: #7f7f7f" transform="translate(415.870341 205.156406) scale(0.1 -0.1)">
       <use xlink:href="#DejaVuSans-31"/>
       <use xlink:href="#DejaVuSans-35" transform="translate(63.623047 0)"/>
       <use xlink:href="#DejaVuSans-2e" transform="translate(127.246094 0)"/>
       <use xlink:href="#DejaVuSans-30" transform="translate(159.033203 0)"/>
      </g>
     </g>
    </g>
    <g id="xtick_8">
     <g id="line2d_8">
      <g>
       <use xlink:href="#md43d28981e" x="485.736214" y="190.557969" style="fill: #7f7f7f; stroke: #7f7f7f; stroke-width: 1.8"/>
      </g>
     </g>
     <g id="text_8">
      <!-- 17.5 -->
      <g style="fill: #7f7f7f" transform="translate(474.603402 205.156406) scale(0.1 -0.1)">
       <use xlink:href="#DejaVuSans-31"/>
       <use xlink:href="#DejaVuSans-37" transform="translate(63.623047 0)"/>
       <use xlink:href="#DejaVuSans-2e" transform="translate(127.246094 0)"/>
       <use xlink:href="#DejaVuSans-35" transform="translate(159.033203 0)"/>
      </g>
     </g>
    </g>
    <g id="xtick_9">
     <g id="line2d_9">
      <g>
       <use xlink:href="#md43d28981e" x="544.469276" y="190.557969" style="fill: #7f7f7f; stroke: #7f7f7f; stroke-width: 1.8"/>
      </g>
     </g>
     <g id="text_9">
      <!-- 20.0 -->
      <g style="fill: #7f7f7f" transform="translate(533.336463 205.156406) scale(0.1 -0.1)">
       <use xlink:href="#DejaVuSans-32"/>
       <use xlink:href="#DejaVuSans-30" transform="translate(63.623047 0)"/>
       <use xlink:href="#DejaVuSans-2e" transform="translate(127.246094 0)"/>
       <use xlink:href="#DejaVuSans-30" transform="translate(159.033203 0)"/>
      </g>
     </g>
    </g>
   </g>
   <g id="matplotlib.axis_2">
    <g id="ytick_1">
     <g id="line2d_10">
      <defs>
       <path id="me5dc7bc81e" d="M 0 0 
L -3.5 0 
" style="stroke: #7f7f7f; stroke-width: 1.8"/>
      </defs>
      <g>
       <use xlink:href="#me5dc7bc81e" x="51.111563" y="182.910703" style="fill: #7f7f7f; stroke: #7f7f7f; stroke-width: 1.8"/>
      </g>
     </g>
     <g id="text_10">
      <!-- 0.00 -->
      <g style="fill: #7f7f7f" transform="translate(21.845938 186.709922) scale(0.1 -0.1)">
       <use xlink:href="#DejaVuSans-30"/>
       <use xlink:href="#DejaVuSans-2e" transform="translate(63.623047 0)"/>
       <use xlink:href="#DejaVuSans-30" transform="translate(95.410156 0)"/>
       <use xlink:href="#DejaVuSans-30" transform="translate(159.033203 0)"/>
      </g>
     </g>
    </g>
    <g id="ytick_2">
     <g id="line2d_11">
      <g>
       <use xlink:href="#me5dc7bc81e" x="51.111563" y="159.588576" style="fill: #7f7f7f; stroke: #7f7f7f; stroke-width: 1.8"/>
      </g>
     </g>
     <g id="text_11">
      <!-- 0.05 -->
      <g style="fill: #7f7f7f" transform="translate(21.845938 163.387794) scale(0.1 -0.1)">
       <use xlink:href="#DejaVuSans-30"/>
       <use xlink:href="#DejaVuSans-2e" transform="translate(63.623047 0)"/>
       <use xlink:href="#DejaVuSans-30" transform="translate(95.410156 0)"/>
       <use xlink:href="#DejaVuSans-35" transform="translate(159.033203 0)"/>
      </g>
     </g>
    </g>
    <g id="ytick_3">
     <g id="line2d_12">
      <g>
       <use xlink:href="#me5dc7bc81e" x="51.111563" y="136.266448" style="fill: #7f7f7f; stroke: #7f7f7f; stroke-width: 1.8"/>
      </g>
     </g>
     <g id="text_12">
      <!-- 0.10 -->
      <g style="fill: #7f7f7f" transform="translate(21.845938 140.065667) scale(0.1 -0.1)">
       <use xlink:href="#DejaVuSans-30"/>
       <use xlink:href="#DejaVuSans-2e" transform="translate(63.623047 0)"/>
       <use xlink:href="#DejaVuSans-31" transform="translate(95.410156 0)"/>
       <use xlink:href="#DejaVuSans-30" transform="translate(159.033203 0)"/>
      </g>
     </g>
    </g>
    <g id="ytick_4">
     <g id="line2d_13">
      <g>
       <use xlink:href="#me5dc7bc81e" x="51.111563" y="112.944321" style="fill: #7f7f7f; stroke: #7f7f7f; stroke-width: 1.8"/>
      </g>
     </g>
     <g id="text_13">
      <!-- 0.15 -->
      <g style="fill: #7f7f7f" transform="translate(21.845938 116.743539) scale(0.1 -0.1)">
       <use xlink:href="#DejaVuSans-30"/>
       <use xlink:href="#DejaVuSans-2e" transform="translate(63.623047 0)"/>
       <use xlink:href="#DejaVuSans-31" transform="translate(95.410156 0)"/>
       <use xlink:href="#DejaVuSans-35" transform="translate(159.033203 0)"/>
      </g>
     </g>
    </g>
    <g id="ytick_5">
     <g id="line2d_14">
      <g>
       <use xlink:href="#me5dc7bc81e" x="51.111563" y="89.622193" style="fill: #7f7f7f; stroke: #7f7f7f; stroke-width: 1.8"/>
      </g>
     </g>
     <g id="text_14">
      <!-- 0.20 -->
      <g style="fill: #7f7f7f" transform="translate(21.845938 93.421412) scale(0.1 -0.1)">
       <use xlink:href="#DejaVuSans-30"/>
       <use xlink:href="#DejaVuSans-2e" transform="translate(63.623047 0)"/>
       <use xlink:href="#DejaVuSans-32" transform="translate(95.410156 0)"/>
       <use xlink:href="#DejaVuSans-30" transform="translate(159.033203 0)"/>
      </g>
     </g>
    </g>
    <g id="ytick_6">
     <g id="line2d_15">
      <g>
       <use xlink:href="#me5dc7bc81e" x="51.111563" y="66.300066" style="fill: #7f7f7f; stroke: #7f7f7f; stroke-width: 1.8"/>
      </g>
     </g>
     <g id="text_15">
      <!-- 0.25 -->
      <g style="fill: #7f7f7f" transform="translate(21.845938 70.099284) scale(0.1 -0.1)">
       <use xlink:href="#DejaVuSans-30"/>
       <use xlink:href="#DejaVuSans-2e" transform="translate(63.623047 0)"/>
       <use xlink:href="#DejaVuSans-32" transform="translate(95.410156 0)"/>
       <use xlink:href="#DejaVuSans-35" transform="translate(159.033203 0)"/>
      </g>
     </g>
    </g>
    <g id="ytick_7">
     <g id="line2d_16">
      <g>
       <use xlink:href="#me5dc7bc81e" x="51.111563" y="42.977938" style="fill: #7f7f7f; stroke: #7f7f7f; stroke-width: 1.8"/>
      </g>
     </g>
     <g id="text_16">
      <!-- 0.30 -->
      <g style="fill: #7f7f7f" transform="translate(21.845938 46.777157) scale(0.1 -0.1)">
       <defs>
        <path id="DejaVuSans-33" d="M 2597 2516 
Q 3050 2419 3304 2112 
Q 3559 1806 3559 1356 
Q 3559 666 3084 287 
Q 2609 -91 1734 -91 
Q 1441 -91 1130 -33 
Q 819 25 488 141 
L 488 750 
Q 750 597 1062 519 
Q 1375 441 1716 441 
Q 2309 441 2620 675 
Q 2931 909 2931 1356 
Q 2931 1769 2642 2001 
Q 2353 2234 1838 2234 
L 1294 2234 
L 1294 2753 
L 1863 2753 
Q 2328 2753 2575 2939 
Q 2822 3125 2822 3475 
Q 2822 3834 2567 4026 
Q 2313 4219 1838 4219 
Q 1578 4219 1281 4162 
Q 984 4106 628 3988 
L 628 4550 
Q 988 4650 1302 4700 
Q 1616 4750 1894 4750 
Q 2613 4750 3031 4423 
Q 3450 4097 3450 3541 
Q 3450 3153 3228 2886 
Q 3006 2619 2597 2516 
z
" transform="scale(0.015625)"/>
       </defs>
       <use xlink:href="#DejaVuSans-30"/>
       <use xlink:href="#DejaVuSans-2e" transform="translate(63.623047 0)"/>
       <use xlink:href="#DejaVuSans-33" transform="translate(95.410156 0)"/>
       <use xlink:href="#DejaVuSans-30" transform="translate(159.033203 0)"/>
      </g>
     </g>
    </g>
    <g id="text_17">
     <!-- Position Error [m] -->
     <g style="fill: #7f7f7f" transform="translate(15.558281 154.397187) rotate(-90) scale(0.11 -0.11)">
      <defs>
       <path id="DejaVuSans-50" d="M 1259 4147 
L 1259 2394 
L 2053 2394 
Q 2494 2394 2734 2622 
Q 2975 2850 2975 3272 
Q 2975 3691 2734 3919 
Q 2494 4147 2053 4147 
L 1259 4147 
z
M 628 4666 
L 2053 4666 
Q 2838 4666 3239 4311 
Q 3641 3956 3641 3272 
Q 3641 2581 3239 2228 
Q 2838 1875 2053 1875 
L 1259 1875 
L 1259 0 
L 628 0 
L 628 4666 
z
" transform="scale(0.015625)"/>
       <path id="DejaVuSans-6f" d="M 1959 3097 
Q 1497 3097 1228 2736 
Q 959 2375 959 1747 
Q 959 1119 1226 758 
Q 1494 397 1959 397 
Q 2419 397 2687 759 
Q 2956 1122 2956 1747 
Q 2956 2369 2687 2733 
Q 2419 3097 1959 3097 
z
M 1959 3584 
Q 2709 3584 3137 3096 
Q 3566 2609 3566 1747 
Q 3566 888 3137 398 
Q 2709 -91 1959 -91 
Q 1206 -91 779 398 
Q 353 888 353 1747 
Q 353 2609 779 3096 
Q 1206 3584 1959 3584 
z
" transform="scale(0.015625)"/>
       <path id="DejaVuSans-73" d="M 2834 3397 
L 2834 2853 
Q 2591 2978 2328 3040 
Q 2066 3103 1784 3103 
Q 1356 3103 1142 2972 
Q 928 2841 928 2578 
Q 928 2378 1081 2264 
Q 1234 2150 1697 2047 
L 1894 2003 
Q 2506 1872 2764 1633 
Q 3022 1394 3022 966 
Q 3022 478 2636 193 
Q 2250 -91 1575 -91 
Q 1294 -91 989 -36 
Q 684 19 347 128 
L 347 722 
Q 666 556 975 473 
Q 1284 391 1588 391 
Q 1994 391 2212 530 
Q 2431 669 2431 922 
Q 2431 1156 2273 1281 
Q 2116 1406 1581 1522 
L 1381 1569 
Q 847 1681 609 1914 
Q 372 2147 372 2553 
Q 372 3047 722 3315 
Q 1072 3584 1716 3584 
Q 2034 3584 2315 3537 
Q 2597 3491 2834 3397 
z
" transform="scale(0.015625)"/>
       <path id="DejaVuSans-69" d="M 603 3500 
L 1178 3500 
L 1178 0 
L 603 0 
L 603 3500 
z
M 603 4863 
L 1178 4863 
L 1178 4134 
L 603 4134 
L 603 4863 
z
" transform="scale(0.015625)"/>
       <path id="DejaVuSans-74" d="M 1172 4494 
L 1172 3500 
L 2356 3500 
L 2356 3053 
L 1172 3053 
L 1172 1153 
Q 1172 725 1289 603 
Q 1406 481 1766 481 
L 2356 481 
L 2356 0 
L 1766 0 
Q 1100 0 847 248 
Q 594 497 594 1153 
L 594 3053 
L 172 3053 
L 172 3500 
L 594 3500 
L 594 4494 
L 1172 4494 
z
" transform="scale(0.015625)"/>
       <path id="DejaVuSans-6e" d="M 3513 2113 
L 3513 0 
L 2938 0 
L 2938 2094 
Q 2938 2591 2744 2837 
Q 2550 3084 2163 3084 
Q 1697 3084 1428 2787 
Q 1159 2491 1159 1978 
L 1159 0 
L 581 0 
L 581 3500 
L 1159 3500 
L 1159 2956 
Q 1366 3272 1645 3428 
Q 1925 3584 2291 3584 
Q 2894 3584 3203 3211 
Q 3513 2838 3513 2113 
z
" transform="scale(0.015625)"/>
       <path id="DejaVuSans-20" transform="scale(0.015625)"/>
       <path id="DejaVuSans-45" d="M 628 4666 
L 3578 4666 
L 3578 4134 
L 1259 4134 
L 1259 2753 
L 3481 2753 
L 3481 2222 
L 1259 2222 
L 1259 531 
L 3634 531 
L 3634 0 
L 628 0 
L 628 4666 
z
" transform="scale(0.015625)"/>
       <path id="DejaVuSans-72" d="M 2631 2963 
Q 2534 3019 2420 3045 
Q 2306 3072 2169 3072 
Q 1681 3072 1420 2755 
Q 1159 2438 1159 1844 
L 1159 0 
L 581 0 
L 581 3500 
L 1159 3500 
L 1159 2956 
Q 1341 3275 1631 3429 
Q 1922 3584 2338 3584 
Q 2397 3584 2469 3576 
Q 2541 3569 2628 3553 
L 2631 2963 
z
" transform="scale(0.015625)"/>
       <path id="DejaVuSans-5b" d="M 550 4863 
L 1875 4863 
L 1875 4416 
L 1125 4416 
L 1125 -397 
L 1875 -397 
L 1875 -844 
L 550 -844 
L 550 4863 
z
" transform="scale(0.015625)"/>
       <path id="DejaVuSans-6d" d="M 3328 2828 
Q 3544 3216 3844 3400 
Q 4144 3584 4550 3584 
Q 5097 3584 5394 3201 
Q 5691 2819 5691 2113 
L 5691 0 
L 5113 0 
L 5113 2094 
Q 5113 2597 4934 2840 
Q 4756 3084 4391 3084 
Q 3944 3084 3684 2787 
Q 3425 2491 3425 1978 
L 3425 0 
L 2847 0 
L 2847 2094 
Q 2847 2600 2669 2842 
Q 2491 3084 2119 3084 
Q 1678 3084 1418 2786 
Q 1159 2488 1159 1978 
L 1159 0 
L 581 0 
L 581 3500 
L 1159 3500 
L 1159 2956 
Q 1356 3278 1631 3431 
Q 1906 3584 2284 3584 
Q 2666 3584 2933 3390 
Q 3200 3197 3328 2828 
z
" transform="scale(0.015625)"/>
       <path id="DejaVuSans-5d" d="M 1947 4863 
L 1947 -844 
L 622 -844 
L 622 -397 
L 1369 -397 
L 1369 4416 
L 622 4416 
L 622 4863 
L 1947 4863 
z
" transform="scale(0.015625)"/>
      </defs>
      <use xlink:href="#DejaVuSans-50"/>
      <use xlink:href="#DejaVuSans-6f" transform="translate(56.677734 0)"/>
      <use xlink:href="#DejaVuSans-73" transform="translate(117.859375 0)"/>
      <use xlink:href="#DejaVuSans-69" transform="translate(169.958984 0)"/>
      <use xlink:href="#DejaVuSans-74" transform="translate(197.742188 0)"/>
      <use xlink:href="#DejaVuSans-69" transform="translate(236.951172 0)"/>
      <use xlink:href="#DejaVuSans-6f" transform="translate(264.734375 0)"/>
      <use xlink:href="#DejaVuSans-6e" transform="translate(325.916016 0)"/>
      <use xlink:href="#DejaVuSans-20" transform="translate(389.294922 0)"/>
      <use xlink:href="#DejaVuSans-45" transform="translate(421.082031 0)"/>
      <use xlink:href="#DejaVuSans-72" transform="translate(484.265625 0)"/>
      <use xlink:href="#DejaVuSans-72" transform="translate(523.628906 0)"/>
      <use xlink:href="#DejaVuSans-6f" transform="translate(562.492188 0)"/>
      <use xlink:href="#DejaVuSans-72" transform="translate(623.673828 0)"/>
      <use xlink:href="#DejaVuSans-20" transform="translate(664.787109 0)"/>
      <use xlink:href="#DejaVuSans-5b" transform="translate(696.574219 0)"/>
      <use xlink:href="#DejaVuSans-6d" transform="translate(735.587891 0)"/>
      <use xlink:href="#DejaVuSans-5d" transform="translate(833 0)"/>
     </g>
    </g>
   </g>
   <g id="line2d_17">
    <path d="M 74.604787 182.910703 
L 76.01438 126.641639 
L 76.249313 140.462287 
L 77.189042 178.143714 
L 79.0685 53.64042 
L 80.008229 53.901108 
L 81.18289 143.11379 
L 81.652754 109.227458 
L 81.887687 89.41237 
L 82.592483 90.46373 
L 82.827415 125.51774 
L 83.29728 90.256622 
L 83.532212 90.664515 
L 83.767144 114.23611 
L 84.471941 100.542022 
L 85.646602 39.844223 
L 86.821264 93.930244 
L 86.116467 29.965391 
L 87.291128 90.232079 
L 87.995925 43.944045 
L 88.465789 68.899471 
L 89.875383 151.667159 
L 90.815112 104.342671 
L 91.284976 115.831927 
L 91.519909 116.624086 
L 91.754841 111.995647 
L 91.989773 119.029047 
L 93.399366 173.135376 
L 93.634299 168.948827 
L 94.104163 137.880884 
L 94.80896 155.97148 
L 95.513757 182.827392 
L 95.748689 180.505565 
L 96.218553 148.472874 
L 96.688418 167.153684 
L 96.92335 170.621522 
L 97.393215 166.023211 
L 98.098011 151.095044 
L 98.332944 162.29126 
L 99.507605 182.602337 
L 99.977469 177.475207 
L 100.447334 154.426229 
L 100.917198 177.928285 
L 101.387063 182.429525 
L 102.326792 142.119578 
L 102.796656 142.615054 
L 103.031588 149.612614 
L 103.266521 131.497124 
L 103.501453 138.748905 
L 103.971317 118.776773 
L 104.676114 126.489961 
L 105.145979 137.95598 
L 105.615843 133.714974 
L 105.850775 119.190476 
L 106.555572 133.443181 
L 107.260369 129.990591 
L 108.669962 153.792613 
L 108.904895 136.072673 
L 109.609691 143.09731 
L 109.844624 143.313795 
L 110.079556 157.341655 
L 110.314488 136.501081 
L 110.784353 148.574076 
L 111.254217 145.096617 
L 111.489149 155.720089 
L 111.724082 132.59589 
L 112.663811 137.158182 
L 114.073404 180.930146 
L 115.248065 163.339947 
L 116.657659 182.333566 
L 117.127523 182.719214 
L 117.597388 179.077032 
L 118.302184 129.533327 
L 119.241913 149.069129 
L 121.121371 109.82318 
L 122.765897 162.650268 
L 123.000829 161.638782 
L 123.705626 149.405566 
L 124.17549 132.021588 
L 124.645355 138.887856 
L 125.350152 149.442311 
L 126.054948 115.167516 
L 126.524813 124.753577 
L 126.759745 125.977822 
L 126.994677 119.533185 
L 128.404271 181.035751 
L 128.639203 179.325166 
L 129.344 162.975801 
L 129.578932 175.76577 
L 129.813864 180.504228 
L 130.283729 171.075771 
L 130.753593 181.360421 
L 130.988526 176.348551 
L 131.223458 167.973942 
L 131.693322 178.883053 
L 131.928255 174.779317 
L 132.163187 181.051395 
L 132.398119 166.747568 
L 133.337848 151.656863 
L 133.57278 158.523888 
L 133.807712 174.329305 
L 134.512509 169.244478 
L 135.452238 157.344072 
L 135.922103 179.971079 
L 136.391967 153.777025 
L 137.096764 146.032037 
L 137.331696 154.160961 
L 137.566628 156.454907 
L 137.801561 148.359054 
L 138.036493 160.474727 
L 138.271425 159.481878 
L 138.506357 160.324725 
L 139.915951 130.227114 
L 140.620748 170.300498 
L 141.090612 150.253742 
L 141.560477 159.337584 
L 141.795409 151.795065 
L 143.674867 126.995939 
L 144.849528 162.701681 
L 145.08446 155.686471 
L 145.319392 175.321847 
L 146.494054 156.18704 
L 146.728986 164.256131 
L 147.19885 177.627411 
L 147.903647 175.093599 
L 148.138579 181.44334 
L 148.608444 170.701562 
L 149.078308 147.881539 
L 149.783105 160.793506 
L 150.018037 156.592077 
L 150.487902 177.415216 
L 150.957766 171.457122 
L 151.427631 154.013477 
L 151.897495 168.444715 
L 152.132428 169.275414 
L 152.602292 182.076824 
L 153.307089 154.892617 
L 154.48175 182.858593 
L 154.716682 175.318817 
L 154.951614 180.399904 
L 155.421479 169.885511 
L 155.656411 157.663282 
L 156.126276 175.602239 
L 156.361208 175.660788 
L 156.59614 152.331772 
L 157.300937 154.759679 
L 157.535869 161.057924 
L 157.770801 155.204791 
L 158.475598 113.056886 
L 159.180395 127.435445 
L 159.415327 115.197169 
L 159.885192 133.777251 
L 160.120124 137.476717 
L 160.355056 126.739216 
L 161.294785 105.411102 
L 161.529717 113.741303 
L 163.174243 155.299231 
L 163.644108 146.671927 
L 164.113972 143.647293 
L 165.99343 180.642867 
L 166.463294 179.235472 
L 167.872888 151.950293 
L 167.403023 179.809053 
L 168.10782 151.984171 
L 169.282481 170.573591 
L 169.752346 163.972405 
L 169.987278 171.74562 
L 170.22221 180.118926 
L 170.927007 180.053251 
L 172.806465 130.916379 
L 173.041397 131.774487 
L 173.511262 145.034965 
L 173.981126 133.15305 
L 174.685923 122.094517 
L 174.920855 128.644619 
L 175.155787 126.128886 
L 175.39072 132.928864 
L 175.860584 131.516856 
L 176.095516 149.144335 
L 177.50511 177.587445 
L 177.740042 151.411455 
L 178.444839 178.766906 
L 178.679771 177.995574 
L 178.914703 178.994016 
L 179.384568 182.845949 
L 179.6195 179.182251 
L 180.089365 170.076095 
L 180.324297 179.150263 
L 180.559229 180.868465 
L 180.794161 177.848623 
L 181.498958 132.816453 
L 182.203755 142.826185 
L 182.908552 153.116999 
L 182.673619 142.773944 
L 183.378416 149.798349 
L 184.318145 130.289394 
L 184.553077 130.355135 
L 185.257874 142.350799 
L 185.962671 182.673959 
L 186.432535 177.332931 
L 189.251722 125.583209 
L 189.486654 129.174975 
L 189.721587 130.640037 
L 191.13118 180.980649 
L 191.601045 172.588166 
L 192.305841 164.662967 
L 192.540774 149.63069 
L 193.24557 157.463925 
L 193.480503 157.926566 
L 194.185299 162.312989 
L 194.655164 145.582761 
L 196.299689 179.985743 
L 196.534622 180.838026 
L 198.179147 145.342182 
L 198.41408 145.99196 
L 199.823673 104.2256 
L 200.058605 116.090231 
L 201.233267 100.620245 
L 201.468199 122.323598 
L 202.407928 117.059827 
L 202.64286 114.873439 
L 202.877792 127.761746 
L 203.582589 121.196171 
L 203.817521 112.023368 
L 204.052454 131.223205 
L 204.287386 128.171962 
L 204.522318 131.491805 
L 204.75725 130.027676 
L 205.462047 130.48255 
L 205.931912 119.249551 
L 206.166844 133.230479 
L 206.87164 131.242417 
L 207.341505 119.317083 
L 207.576437 127.219538 
L 208.516166 160.497459 
L 208.986031 156.584976 
L 209.455895 140.359649 
L 209.690827 161.851422 
L 209.92576 163.097396 
L 210.160692 154.648773 
L 210.395624 171.012473 
L 210.630556 174.275596 
L 210.865489 163.650022 
L 211.335353 173.771322 
L 212.275082 164.82194 
L 212.510014 147.604237 
L 213.214811 159.463778 
L 213.684676 172.121563 
L 214.15454 166.128603 
L 214.389472 160.35148 
L 214.624405 165.497777 
L 215.329201 176.424101 
L 215.799066 176.363374 
L 216.033998 177.105548 
L 217.208659 160.392515 
L 218.38332 175.248267 
L 218.618253 170.873803 
L 218.853185 158.93628 
L 219.088117 173.018674 
L 219.557982 159.98677 
L 219.792914 168.421705 
L 220.027846 153.315414 
L 220.497711 159.306116 
L 220.732643 161.48882 
L 220.967575 157.843177 
L 221.202507 158.888999 
L 221.672372 127.293166 
L 222.377169 137.573805 
L 222.847033 145.086777 
L 224.256627 110.258297 
L 225.431288 137.678484 
L 225.66622 134.315824 
L 226.136085 127.413006 
L 226.840881 146.73203 
L 227.075813 131.609115 
L 227.545678 148.740049 
L 227.78061 145.340024 
L 228.015542 141.431287 
L 228.720339 181.837337 
L 229.425136 177.774124 
L 229.895 182.315202 
L 232.244323 118.427381 
L 233.184052 165.602206 
L 233.418984 151.142745 
L 233.653916 158.488426 
L 234.123781 148.762362 
L 234.358713 157.273037 
L 234.828578 140.227006 
L 235.06351 153.308865 
L 235.298442 178.159794 
L 235.768307 152.346083 
L 236.003239 137.830632 
L 236.238171 152.577966 
L 236.942968 171.741352 
L 237.412832 167.209729 
L 238.587493 118.161912 
L 238.822426 122.432833 
L 239.762155 182.339862 
L 240.701884 165.065049 
L 242.111477 182.799586 
L 242.581342 161.927428 
L 243.051206 182.159114 
L 243.756003 177.926165 
L 243.990935 171.226535 
L 244.4608 179.767994 
L 244.695732 178.301328 
L 245.165596 178.570299 
L 245.635461 170.044782 
L 246.340258 169.708319 
L 246.57519 178.16082 
L 247.045054 170.49339 
L 247.279987 148.983234 
L 247.984783 172.209334 
L 248.68958 162.558876 
L 248.924512 169.814558 
L 249.864241 182.78297 
L 250.099173 175.07851 
L 250.334106 174.633325 
L 251.038902 181.909305 
L 253.153293 127.036957 
L 254.093022 182.607903 
L 254.797818 176.906427 
L 255.032751 161.975636 
L 255.737547 166.979159 
L 256.677276 181.69502 
L 258.08687 150.003197 
L 258.791666 178.092824 
L 259.496463 177.359507 
L 259.731395 177.604112 
L 259.966328 180.35245 
L 260.20126 167.523461 
L 260.671124 182.19878 
L 260.906057 181.448734 
L 261.375921 182.110628 
L 262.080718 170.52405 
L 262.31565 171.212782 
L 262.550582 182.454458 
L 262.785515 169.966351 
L 263.020447 172.823184 
L 263.960176 144.9518 
L 264.195108 149.235826 
L 264.899905 178.539003 
L 265.369769 164.967794 
L 266.309498 182.040186 
L 266.544431 178.488882 
L 268.423888 134.002655 
L 268.658821 134.696603 
L 269.59855 160.914255 
L 269.833482 160.674952 
L 270.303346 139.600678 
L 270.773211 162.337593 
L 271.008143 146.442122 
L 271.478008 142.907271 
L 271.947872 145.300357 
L 272.182804 152.356547 
L 272.652669 145.133993 
L 272.887601 149.478687 
L 274.767059 120.949113 
L 276.176653 154.52012 
L 276.411585 146.147911 
L 276.646517 154.006043 
L 277.586246 181.682237 
L 277.821178 176.063298 
L 278.760907 150.935996 
L 279.465704 151.20339 
L 280.640365 175.394004 
L 280.875297 179.058917 
L 281.11023 177.675547 
L 281.815026 158.568656 
L 282.049959 163.337623 
L 282.284891 172.04734 
L 282.519823 157.515405 
L 282.754755 161.964041 
L 284.399281 135.114218 
L 285.104078 156.325076 
L 285.573942 151.976765 
L 286.983536 124.105616 
L 287.218468 133.610153 
L 287.4534 152.359902 
L 287.923265 119.018002 
L 288.158197 133.861364 
L 288.628062 135.28434 
L 289.802723 152.081519 
L 290.037655 146.780172 
L 290.507519 150.830669 
L 290.742452 159.97929 
L 290.977384 136.250254 
L 291.447248 137.555575 
L 291.917113 128.591893 
L 292.856842 154.848581 
L 293.091774 148.836384 
L 293.326706 148.241349 
L 294.031503 167.450135 
L 294.266435 151.597713 
L 294.7363 156.960276 
L 295.441097 140.927485 
L 295.676029 147.172082 
L 296.145893 140.671136 
L 296.380826 137.705199 
L 296.615758 141.697462 
L 296.85069 140.94734 
L 298.025351 178.775697 
L 298.495216 166.400162 
L 298.96508 162.314576 
L 299.200012 146.248195 
L 299.669877 162.379042 
L 299.904809 158.645911 
L 301.549335 181.495567 
L 302.489064 141.223335 
L 303.898657 108.4248 
L 304.368522 118.989465 
L 304.603454 102.552907 
L 304.838386 106.416224 
L 305.073319 104.760317 
L 305.308251 109.744484 
L 305.543183 113.444889 
L 305.778115 99.631652 
L 306.24798 122.461324 
L 306.482912 113.709907 
L 306.952777 111.082887 
L 307.187709 113.373821 
L 307.892506 110.381684 
L 309.302099 156.918941 
L 309.537031 155.374535 
L 309.771963 157.493937 
L 310.006896 156.199344 
L 310.241828 157.51258 
L 310.711692 146.869818 
L 310.946625 159.600945 
L 311.181557 152.756939 
L 312.59115 182.76429 
L 313.530879 170.221797 
L 313.765812 181.699798 
L 314.705541 181.221184 
L 315.410337 165.997231 
L 315.64527 181.997703 
L 318.699389 113.338512 
L 318.934321 115.285034 
L 319.169253 102.322179 
L 319.87405 107.089122 
L 320.108982 110.981653 
L 320.343914 104.568445 
L 320.813779 98.562288 
L 321.048711 106.065859 
L 322.693237 131.414588 
L 324.337763 103.35651 
L 324.572695 112.039031 
L 325.042559 106.241889 
L 325.512424 87.78591 
L 325.982288 106.627659 
L 327.15695 151.916865 
L 328.801475 123.037704 
L 329.506272 101.39006 
L 329.976137 103.947789 
L 330.680933 130.300444 
L 330.915865 118.258792 
L 332.560391 94.217351 
L 333.735052 123.551495 
L 333.969985 120.753565 
L 334.204917 119.193693 
L 335.61451 151.70499 
L 337.259036 114.463694 
L 337.493968 126.53008 
L 338.198765 123.431778 
L 339.373426 85.897867 
L 339.608359 93.82818 
L 340.548087 119.168321 
L 340.78302 112.014106 
L 341.017952 109.401958 
L 341.487816 128.547451 
L 341.957681 115.194729 
L 342.192613 105.033742 
L 342.662478 120.952911 
L 342.89741 122.489984 
L 343.367274 121.306108 
L 344.307003 147.84435 
L 344.541936 147.283952 
L 344.776868 148.944132 
L 345.0118 150.252729 
L 345.246732 137.440075 
L 345.951529 151.631998 
L 346.421394 142.617522 
L 346.656326 156.93245 
L 347.361123 134.486513 
L 347.596055 123.209496 
L 348.065919 139.725999 
L 348.300852 136.781954 
L 350.18031 182.435619 
L 350.415242 171.601638 
L 350.650174 160.930598 
L 351.120038 167.689494 
L 351.589903 182.85282 
L 352.059767 167.174469 
L 352.2947 166.5912 
L 352.529632 170.761586 
L 352.999496 161.817149 
L 353.704293 143.479529 
L 354.40909 147.606812 
L 354.644022 154.051724 
L 354.878954 137.534334 
L 355.583751 113.091349 
L 356.053616 129.405692 
L 356.288548 139.09896 
L 356.758412 122.586941 
L 357.228277 137.241751 
L 358.63787 115.479714 
L 360.282396 150.867271 
L 360.752261 162.582611 
L 361.222125 153.096801 
L 362.396786 120.214136 
L 362.631718 136.480969 
L 363.101583 118.684056 
L 363.80638 130.766019 
L 366.155702 182.523455 
L 367.565296 151.776968 
L 368.270092 179.521587 
L 368.739957 177.125868 
L 368.974889 174.350613 
L 369.444754 151.190335 
L 369.914618 163.912767 
L 370.14955 162.203469 
L 370.384483 174.312484 
L 370.619415 161.695764 
L 371.089279 173.332852 
L 372.968737 131.073758 
L 373.203669 144.961416 
L 373.673534 116.782238 
L 374.143398 99.367593 
L 374.613263 105.459956 
L 376.022856 142.334295 
L 377.902314 179.123069 
L 378.137247 176.698616 
L 378.372179 177.120016 
L 378.607111 182.851674 
L 379.076976 176.149289 
L 381.191366 140.482288 
L 382.131095 157.95216 
L 382.366027 157.343795 
L 382.835891 179.976714 
L 383.540688 174.397906 
L 383.77562 169.816479 
L 384.010553 182.836758 
L 385.420146 169.756532 
L 385.655078 180.574968 
L 386.359875 168.814467 
L 387.299604 180.949262 
L 387.534536 179.791187 
L 388.239333 181.56607 
L 389.179062 152.240878 
L 390.823588 182.189163 
L 389.648927 149.209832 
L 391.293452 179.407635 
L 392.937978 166.107651 
L 393.17291 170.432731 
L 393.407842 182.396756 
L 393.877707 157.434999 
L 394.347571 163.374839 
L 394.582504 161.934707 
L 395.757165 141.102097 
L 395.992097 150.311188 
L 396.696894 153.07859 
L 398.576352 120.424832 
L 399.751013 145.264454 
L 400.220878 129.984625 
L 400.690742 134.960122 
L 401.630471 160.483611 
L 401.865403 154.123316 
L 402.100336 155.296056 
L 402.335268 154.95143 
L 403.509929 115.329852 
L 403.744861 118.598959 
L 406.564048 181.835492 
L 407.268845 180.001903 
L 407.738709 166.55663 
L 408.443506 174.262068 
L 408.678438 172.070319 
L 409.148303 172.300269 
L 409.618167 179.526421 
L 409.8531 161.788313 
L 410.557896 181.546006 
L 411.262693 170.589286 
L 411.732558 173.129382 
L 411.96749 177.6783 
L 412.202422 177.376519 
L 412.437354 166.453833 
L 413.377083 168.646339 
L 413.612015 169.193726 
L 413.846948 168.574343 
L 414.786677 181.495386 
L 415.021609 176.121053 
L 415.256541 172.06527 
L 415.961338 175.180663 
L 416.19627 175.682901 
L 416.431202 174.58696 
L 418.780525 129.387728 
L 420.659983 181.202056 
L 421.129847 173.391094 
L 421.36478 172.849939 
L 421.834644 169.07986 
L 422.539441 178.946195 
L 424.888763 114.656359 
L 423.009305 180.133532 
L 425.123695 126.476724 
L 425.358628 128.107694 
L 426.768221 155.400504 
L 427.003153 149.736019 
L 427.238086 159.424037 
L 428.177815 172.890364 
L 428.882611 143.522796 
L 429.117544 155.931469 
L 430.057273 175.908706 
L 431.466866 144.173018 
L 433.111392 181.4051 
L 433.346324 180.408771 
L 433.581256 180.491246 
L 433.816188 170.42232 
L 434.520985 182.253482 
L 434.755917 181.066655 
L 435.930579 168.668261 
L 436.165511 174.553073 
L 437.10524 137.730604 
L 437.340172 144.683131 
L 437.575104 145.799716 
L 437.810037 142.625396 
L 438.984698 157.766645 
L 439.21963 164.900904 
L 439.689495 152.736088 
L 439.924427 152.29991 
L 441.099088 171.020128 
L 441.33402 151.325245 
L 442.038817 161.509948 
L 442.273749 167.712917 
L 442.508682 150.472724 
L 442.743614 157.075525 
L 442.978546 142.740927 
L 443.213478 158.478096 
L 443.918275 143.840152 
L 445.327868 173.933471 
L 444.858004 142.912243 
L 445.797733 172.376539 
L 446.737462 143.369629 
L 447.442259 173.257784 
L 447.677191 155.452165 
L 448.147055 153.970239 
L 449.321717 181.71393 
L 449.556649 180.007348 
L 450.966242 120.644988 
L 451.436107 139.41075 
L 451.671039 139.293968 
L 452.610768 123.904762 
L 452.8457 124.161941 
L 453.550497 123.665325 
L 453.785429 129.952494 
L 454.020362 116.837455 
L 454.725158 131.61036 
L 456.839548 173.10403 
L 457.309413 164.498147 
L 458.484074 148.512431 
L 459.188871 180.824091 
L 459.658735 167.285641 
L 460.1286 160.801008 
L 460.363532 166.670628 
L 460.598464 168.846416 
L 462.712855 121.697801 
L 463.652584 144.675112 
L 464.35738 135.746386 
L 464.592312 131.671445 
L 466.236838 169.465361 
L 466.47177 167.693487 
L 466.706703 177.232047 
L 466.941635 166.004195 
L 467.411499 170.205849 
L 467.646432 169.263573 
L 468.116296 180.708973 
L 468.586161 177.726064 
L 469.290957 158.358548 
L 469.760822 163.749626 
L 469.995754 164.721296 
L 470.230686 158.965567 
L 470.465619 169.977446 
L 470.700551 173.552101 
L 470.935483 166.1915 
L 471.170415 167.527803 
L 471.405348 167.59579 
L 471.64028 161.203125 
L 471.875212 166.967778 
L 472.110144 178.317681 
L 472.814941 171.46247 
L 473.284806 180.153496 
L 473.519738 167.876606 
L 474.459467 149.688293 
L 474.694399 157.64898 
L 474.929331 156.944096 
L 476.103992 182.427393 
L 476.338925 176.943143 
L 476.808789 168.7952 
L 477.043721 174.58225 
L 477.278654 180.827449 
L 477.513586 176.695537 
L 478.688247 136.367894 
L 478.923179 138.51775 
L 479.158112 136.022403 
L 480.567705 104.437352 
L 482.212231 158.782028 
L 483.386892 143.11998 
L 485.26635 166.664061 
L 485.501282 157.022588 
L 485.971147 134.926365 
L 486.441011 149.049759 
L 487.145808 175.399262 
L 487.615672 166.985662 
L 488.085537 155.651176 
L 488.320469 151.613361 
L 488.555401 163.173011 
L 489.964995 182.410426 
L 490.434859 181.820975 
L 492.314317 120.873489 
L 492.54925 124.106537 
L 492.784182 133.046294 
L 493.019114 114.699358 
L 494.193775 105.477115 
L 495.133504 123.949327 
L 495.603369 121.137037 
L 496.073233 100.404606 
L 496.543098 109.814997 
L 496.77803 111.504796 
L 497.012962 106.833598 
L 497.717759 95.224524 
L 497.952691 104.802176 
L 498.187623 110.907299 
L 498.657488 102.187392 
L 498.89242 87.8534 
L 499.597217 96.050276 
L 499.832149 101.126457 
L 500.067081 85.742758 
L 500.302014 93.941734 
L 500.536946 94.33727 
L 501.476675 110.108539 
L 501.711607 109.741509 
L 501.946539 109.793963 
L 502.416404 96.756738 
L 502.886268 107.532593 
L 503.356133 97.312787 
L 504.530794 129.823583 
L 505.705455 140.468555 
L 505.235591 129.75482 
L 505.940387 137.430432 
L 506.880116 124.542269 
L 507.115049 134.647032 
L 507.584913 152.035534 
L 507.819845 145.13861 
L 508.759574 102.014291 
L 508.994507 115.636349 
L 510.169168 153.989495 
L 512.048626 176.101797 
L 512.988355 146.215557 
L 513.458219 164.926389 
L 513.928084 177.167378 
L 514.163016 169.474633 
L 515.102745 149.051841 
L 515.337677 151.9869 
L 516.042474 164.240973 
L 516.747271 126.624796 
L 517.217135 133.706174 
L 517.921932 148.662703 
L 518.391796 143.53734 
L 518.626729 143.669715 
L 519.096593 165.521497 
L 519.566458 154.39749 
L 519.80139 145.450712 
L 520.271254 156.919154 
L 520.506187 160.146375 
L 520.741119 153.92551 
L 520.976051 157.742681 
L 521.445916 148.150297 
L 521.91578 158.100032 
L 522.150712 152.338458 
L 522.385645 154.882764 
L 523.560306 125.367703 
L 523.795238 126.237775 
L 524.500035 106.866136 
L 524.734967 115.886551 
L 525.909628 157.098832 
L 526.144561 146.62072 
L 526.379493 138.016677 
L 526.614425 145.47339 
L 526.849357 160.042698 
L 527.554154 149.569283 
L 527.789086 147.413219 
L 528.024018 149.937397 
L 528.728815 162.062313 
L 528.963747 151.301767 
L 529.19868 149.101897 
L 529.668544 152.978481 
L 529.903476 159.182329 
L 530.138409 157.303994 
L 530.373341 138.817554 
L 531.078138 153.766979 
L 531.31307 143.753817 
L 531.782934 163.986709 
L 533.42746 182.575546 
L 532.252799 160.738782 
L 533.662392 174.132384 
L 533.897325 171.966073 
L 534.132257 180.595468 
L 534.367189 169.772246 
L 534.602121 171.535158 
L 536.716512 87.478812 
L 536.951444 92.176421 
L 537.186376 81.968819 
L 537.421308 84.03999 
L 537.65624 81.663041 
L 538.595969 132.263899 
L 539.065834 168.820554 
L 539.770631 167.860134 
L 540.71036 143.102805 
L 540.945292 150.672191 
L 541.885021 160.537316 
L 542.354885 158.413008 
L 543.059682 114.967006 
L 543.764479 128.419545 
L 544.234343 152.428731 
L 544.469276 145.342819 
" clip-path="url(#p5edc8eacd8)" style="fill: none; stroke: #e41a1c; stroke-width: 2; stroke-linecap: square"/>
   </g>
   <g id="patch_3">
    <path d="M 51.111563 190.557969 
L 51.111563 22.318125 
" style="fill: none; stroke: #7f7f7f; stroke-width: 1.8; stroke-linejoin: miter; stroke-linecap: square"/>
   </g>
   <g id="patch_4">
    <path d="M 51.111563 190.557969 
L 567.9625 190.557969 
" style="fill: none; stroke: #7f7f7f; stroke-width: 1.8; stroke-linejoin: miter; stroke-linecap: square"/>
   </g>
   <g id="text_18">
    <!-- Kalman Filter Estimation Error -->
    <g style="fill: #7f7f7f" transform="translate(206.523594 16.318125) scale(0.12 -0.12)">
     <defs>
      <path id="DejaVuSans-Bold-4b" d="M 588 4666 
L 1791 4666 
L 1791 2963 
L 3525 4666 
L 4922 4666 
L 2675 2456 
L 5153 0 
L 3647 0 
L 1791 1838 
L 1791 0 
L 588 0 
L 588 4666 
z
" transform="scale(0.015625)"/>
      <path id="DejaVuSans-Bold-61" d="M 2106 1575 
Q 1756 1575 1579 1456 
Q 1403 1338 1403 1106 
Q 1403 894 1545 773 
Q 1688 653 1941 653 
Q 2256 653 2472 879 
Q 2688 1106 2688 1447 
L 2688 1575 
L 2106 1575 
z
M 3816 1997 
L 3816 0 
L 2688 0 
L 2688 519 
Q 2463 200 2181 54 
Q 1900 -91 1497 -91 
Q 953 -91 614 226 
Q 275 544 275 1050 
Q 275 1666 698 1953 
Q 1122 2241 2028 2241 
L 2688 2241 
L 2688 2328 
Q 2688 2594 2478 2717 
Q 2269 2841 1825 2841 
Q 1466 2841 1156 2769 
Q 847 2697 581 2553 
L 581 3406 
Q 941 3494 1303 3539 
Q 1666 3584 2028 3584 
Q 2975 3584 3395 3211 
Q 3816 2838 3816 1997 
z
" transform="scale(0.015625)"/>
      <path id="DejaVuSans-Bold-6c" d="M 538 4863 
L 1656 4863 
L 1656 0 
L 538 0 
L 538 4863 
z
" transform="scale(0.015625)"/>
      <path id="DejaVuSans-Bold-6d" d="M 3781 2919 
Q 3994 3244 4286 3414 
Q 4578 3584 4928 3584 
Q 5531 3584 5847 3212 
Q 6163 2841 6163 2131 
L 6163 0 
L 5038 0 
L 5038 1825 
Q 5041 1866 5042 1909 
Q 5044 1953 5044 2034 
Q 5044 2406 4934 2573 
Q 4825 2741 4581 2741 
Q 4263 2741 4089 2478 
Q 3916 2216 3909 1719 
L 3909 0 
L 2784 0 
L 2784 1825 
Q 2784 2406 2684 2573 
Q 2584 2741 2328 2741 
Q 2006 2741 1831 2477 
Q 1656 2213 1656 1722 
L 1656 0 
L 531 0 
L 531 3500 
L 1656 3500 
L 1656 2988 
Q 1863 3284 2130 3434 
Q 2397 3584 2719 3584 
Q 3081 3584 3359 3409 
Q 3638 3234 3781 2919 
z
" transform="scale(0.015625)"/>
      <path id="DejaVuSans-Bold-6e" d="M 4056 2131 
L 4056 0 
L 2931 0 
L 2931 347 
L 2931 1631 
Q 2931 2084 2911 2256 
Q 2891 2428 2841 2509 
Q 2775 2619 2662 2680 
Q 2550 2741 2406 2741 
Q 2056 2741 1856 2470 
Q 1656 2200 1656 1722 
L 1656 0 
L 538 0 
L 538 3500 
L 1656 3500 
L 1656 2988 
Q 1909 3294 2193 3439 
Q 2478 3584 2822 3584 
Q 3428 3584 3742 3212 
Q 4056 2841 4056 2131 
z
" transform="scale(0.015625)"/>
      <path id="DejaVuSans-Bold-20" transform="scale(0.015625)"/>
      <path id="DejaVuSans-Bold-46" d="M 588 4666 
L 3834 4666 
L 3834 3756 
L 1791 3756 
L 1791 2888 
L 3713 2888 
L 3713 1978 
L 1791 1978 
L 1791 0 
L 588 0 
L 588 4666 
z
" transform="scale(0.015625)"/>
      <path id="DejaVuSans-Bold-69" d="M 538 3500 
L 1656 3500 
L 1656 0 
L 538 0 
L 538 3500 
z
M 538 4863 
L 1656 4863 
L 1656 3950 
L 538 3950 
L 538 4863 
z
" transform="scale(0.015625)"/>
      <path id="DejaVuSans-Bold-74" d="M 1759 4494 
L 1759 3500 
L 2913 3500 
L 2913 2700 
L 1759 2700 
L 1759 1216 
Q 1759 972 1856 886 
Q 1953 800 2241 800 
L 2816 800 
L 2816 0 
L 1856 0 
Q 1194 0 917 276 
Q 641 553 641 1216 
L 641 2700 
L 84 2700 
L 84 3500 
L 641 3500 
L 641 4494 
L 1759 4494 
z
" transform="scale(0.015625)"/>
      <path id="DejaVuSans-Bold-65" d="M 4031 1759 
L 4031 1441 
L 1416 1441 
Q 1456 1047 1700 850 
Q 1944 653 2381 653 
Q 2734 653 3104 758 
Q 3475 863 3866 1075 
L 3866 213 
Q 3469 63 3072 -14 
Q 2675 -91 2278 -91 
Q 1328 -91 801 392 
Q 275 875 275 1747 
Q 275 2603 792 3093 
Q 1309 3584 2216 3584 
Q 3041 3584 3536 3087 
Q 4031 2591 4031 1759 
z
M 2881 2131 
Q 2881 2450 2695 2645 
Q 2509 2841 2209 2841 
Q 1884 2841 1681 2658 
Q 1478 2475 1428 2131 
L 2881 2131 
z
" transform="scale(0.015625)"/>
      <path id="DejaVuSans-Bold-72" d="M 3138 2547 
Q 2991 2616 2845 2648 
Q 2700 2681 2553 2681 
Q 2122 2681 1889 2404 
Q 1656 2128 1656 1613 
L 1656 0 
L 538 0 
L 538 3500 
L 1656 3500 
L 1656 2925 
Q 1872 3269 2151 3426 
Q 2431 3584 2822 3584 
Q 2878 3584 2943 3579 
Q 3009 3575 3134 3559 
L 3138 2547 
z
" transform="scale(0.015625)"/>
      <path id="DejaVuSans-Bold-45" d="M 588 4666 
L 3834 4666 
L 3834 3756 
L 1791 3756 
L 1791 2888 
L 3713 2888 
L 3713 1978 
L 1791 1978 
L 1791 909 
L 3903 909 
L 3903 0 
L 588 0 
L 588 4666 
z
" transform="scale(0.015625)"/>
      <path id="DejaVuSans-Bold-73" d="M 3272 3391 
L 3272 2541 
Q 2913 2691 2578 2766 
Q 2244 2841 1947 2841 
Q 1628 2841 1473 2761 
Q 1319 2681 1319 2516 
Q 1319 2381 1436 2309 
Q 1553 2238 1856 2203 
L 2053 2175 
Q 2913 2066 3209 1816 
Q 3506 1566 3506 1031 
Q 3506 472 3093 190 
Q 2681 -91 1863 -91 
Q 1516 -91 1145 -36 
Q 775 19 384 128 
L 384 978 
Q 719 816 1070 734 
Q 1422 653 1784 653 
Q 2113 653 2278 743 
Q 2444 834 2444 1013 
Q 2444 1163 2330 1236 
Q 2216 1309 1875 1350 
L 1678 1375 
Q 931 1469 631 1722 
Q 331 1975 331 2491 
Q 331 3047 712 3315 
Q 1094 3584 1881 3584 
Q 2191 3584 2531 3537 
Q 2872 3491 3272 3391 
z
" transform="scale(0.015625)"/>
      <path id="DejaVuSans-Bold-6f" d="M 2203 2784 
Q 1831 2784 1636 2517 
Q 1441 2250 1441 1747 
Q 1441 1244 1636 976 
Q 1831 709 2203 709 
Q 2569 709 2762 976 
Q 2956 1244 2956 1747 
Q 2956 2250 2762 2517 
Q 2569 2784 2203 2784 
z
M 2203 3584 
Q 3106 3584 3614 3096 
Q 4122 2609 4122 1747 
Q 4122 884 3614 396 
Q 3106 -91 2203 -91 
Q 1297 -91 786 396 
Q 275 884 275 1747 
Q 275 2609 786 3096 
Q 1297 3584 2203 3584 
z
" transform="scale(0.015625)"/>
     </defs>
     <use xlink:href="#DejaVuSans-Bold-4b"/>
     <use xlink:href="#DejaVuSans-Bold-61" transform="translate(77.490234 0)"/>
     <use xlink:href="#DejaVuSans-Bold-6c" transform="translate(144.970703 0)"/>
     <use xlink:href="#DejaVuSans-Bold-6d" transform="translate(179.248047 0)"/>
     <use xlink:href="#DejaVuSans-Bold-61" transform="translate(283.447266 0)"/>
     <use xlink:href="#DejaVuSans-Bold-6e" transform="translate(350.927734 0)"/>
     <use xlink:href="#DejaVuSans-Bold-20" transform="translate(422.119141 0)"/>
     <use xlink:href="#DejaVuSans-Bold-46" transform="translate(456.933594 0)"/>
     <use xlink:href="#DejaVuSans-Bold-69" transform="translate(525.244141 0)"/>
     <use xlink:href="#DejaVuSans-Bold-6c" transform="translate(559.521484 0)"/>
     <use xlink:href="#DejaVuSans-Bold-74" transform="translate(593.798828 0)"/>
     <use xlink:href="#DejaVuSans-Bold-65" transform="translate(641.601562 0)"/>
     <use xlink:href="#DejaVuSans-Bold-72" transform="translate(709.423828 0)"/>
     <use xlink:href="#DejaVuSans-Bold-20" transform="translate(758.740234 0)"/>
     <use xlink:href="#DejaVuSans-Bold-45" transform="translate(793.554688 0)"/>
     <use xlink:href="#DejaVuSans-Bold-73" transform="translate(861.865234 0)"/>
     <use xlink:href="#DejaVuSans-Bold-74" transform="translate(921.386719 0)"/>
     <use xlink:href="#DejaVuSans-Bold-69" transform="translate(969.189453 0)"/>
     <use xlink:href="#DejaVuSans-Bold-6d" transform="translate(1003.466797 0)"/>
     <use xlink:href="#DejaVuSans-Bold-61" transform="translate(1107.666016 0)"/>
     <use xlink:href="#DejaVuSans-Bold-74" transform="translate(1175.146484 0)"/>
     <use xlink:href="#DejaVuSans-Bold-69" transform="translate(1222.949219 0)"/>
     <use xlink:href="#DejaVuSans-Bold-6f" transform="translate(1257.226562 0)"/>
     <use xlink:href="#DejaVuSans-Bold-6e" transform="translate(1325.927734 0)"/>
     <use xlink:href="#DejaVuSans-Bold-20" transform="translate(1397.119141 0)"/>
     <use xlink:href="#DejaVuSans-Bold-45" transform="translate(1431.933594 0)"/>
     <use xlink:href="#DejaVuSans-Bold-72" transform="translate(1500.244141 0)"/>
     <use xlink:href="#DejaVuSans-Bold-72" transform="translate(1549.560547 0)"/>
     <use xlink:href="#DejaVuSans-Bold-6f" transform="translate(1598.876953 0)"/>
     <use xlink:href="#DejaVuSans-Bold-72" transform="translate(1667.578125 0)"/>
    </g>
   </g>
  </g>
  <g id="axes_2">
   <g id="patch_5">
    <path d="M 51.111563 386.275937 
L 567.9625 386.275937 
L 567.9625 218.036094 
L 51.111563 218.036094 
L 51.111563 386.275937 
z
" style="fill: none"/>
   </g>
   <g id="matplotlib.axis_3">
    <g id="xtick_10">
     <g id="line2d_18">
      <g>
       <use xlink:href="#md43d28981e" x="74.604787" y="386.275937" style="fill: #7f7f7f; stroke: #7f7f7f; stroke-width: 1.8"/>
      </g>
     </g>
     <g id="text_19">
      <!-- 0.0 -->
      <g style="fill: #7f7f7f" transform="translate(66.653224 400.874375) scale(0.1 -0.1)">
       <use xlink:href="#DejaVuSans-30"/>
       <use xlink:href="#DejaVuSans-2e" transform="translate(63.623047 0)"/>
       <use xlink:href="#DejaVuSans-30" transform="translate(95.410156 0)"/>
      </g>
     </g>
    </g>
    <g id="xtick_11">
     <g id="line2d_19">
      <g>
       <use xlink:href="#md43d28981e" x="133.337848" y="386.275937" style="fill: #7f7f7f; stroke: #7f7f7f; stroke-width: 1.8"/>
      </g>
     </g>
     <g id="text_20">
      <!-- 2.5 -->
      <g style="fill: #7f7f7f" transform="translate(125.386286 400.874375) scale(0.1 -0.1)">
       <use xlink:href="#DejaVuSans-32"/>
       <use xlink:href="#DejaVuSans-2e" transform="translate(63.623047 0)"/>
       <use xlink:href="#DejaVuSans-35" transform="translate(95.410156 0)"/>
      </g>
     </g>
    </g>
    <g id="xtick_12">
     <g id="line2d_20">
      <g>
       <use xlink:href="#md43d28981e" x="192.070909" y="386.275937" style="fill: #7f7f7f; stroke: #7f7f7f; stroke-width: 1.8"/>
      </g>
     </g>
     <g id="text_21">
      <!-- 5.0 -->
      <g style="fill: #7f7f7f" transform="translate(184.119347 400.874375) scale(0.1 -0.1)">
       <use xlink:href="#DejaVuSans-35"/>
       <use xlink:href="#DejaVuSans-2e" transform="translate(63.623047 0)"/>
       <use xlink:href="#DejaVuSans-30" transform="translate(95.410156 0)"/>
      </g>
     </g>
    </g>
    <g id="xtick_13">
     <g id="line2d_21">
      <g>
       <use xlink:href="#md43d28981e" x="250.80397" y="386.275937" style="fill: #7f7f7f; stroke: #7f7f7f; stroke-width: 1.8"/>
      </g>
     </g>
     <g id="text_22">
      <!-- 7.5 -->
      <g style="fill: #7f7f7f" transform="translate(242.852408 400.874375) scale(0.1 -0.1)">
       <use xlink:href="#DejaVuSans-37"/>
       <use xlink:href="#DejaVuSans-2e" transform="translate(63.623047 0)"/>
       <use xlink:href="#DejaVuSans-35" transform="translate(95.410156 0)"/>
      </g>
     </g>
    </g>
    <g id="xtick_14">
     <g id="line2d_22">
      <g>
       <use xlink:href="#md43d28981e" x="309.537031" y="386.275937" style="fill: #7f7f7f; stroke: #7f7f7f; stroke-width: 1.8"/>
      </g>
     </g>
     <g id="text_23">
      <!-- 10.0 -->
      <g style="fill: #7f7f7f" transform="translate(298.404219 400.874375) scale(0.1 -0.1)">
       <use xlink:href="#DejaVuSans-31"/>
       <use xlink:href="#DejaVuSans-30" transform="translate(63.623047 0)"/>
       <use xlink:href="#DejaVuSans-2e" transform="translate(127.246094 0)"/>
       <use xlink:href="#DejaVuSans-30" transform="translate(159.033203 0)"/>
      </g>
     </g>
    </g>
    <g id="xtick_15">
     <g id="line2d_23">
      <g>
       <use xlink:href="#md43d28981e" x="368.270092" y="386.275937" style="fill: #7f7f7f; stroke: #7f7f7f; stroke-width: 1.8"/>
      </g>
     </g>
     <g id="text_24">
      <!-- 12.5 -->
      <g style="fill: #7f7f7f" transform="translate(357.13728 400.874375) scale(0.1 -0.1)">
       <use xlink:href="#DejaVuSans-31"/>
       <use xlink:href="#DejaVuSans-32" transform="translate(63.623047 0)"/>
       <use xlink:href="#DejaVuSans-2e" transform="translate(127.246094 0)"/>
       <use xlink:href="#DejaVuSans-35" transform="translate(159.033203 0)"/>
      </g>
     </g>
    </g>
    <g id="xtick_16">
     <g id="line2d_24">
      <g>
       <use xlink:href="#md43d28981e" x="427.003153" y="386.275937" style="fill: #7f7f7f; stroke: #7f7f7f; stroke-width: 1.8"/>
      </g>
     </g>
     <g id="text_25">
      <!-- 15.0 -->
      <g style="fill: #7f7f7f" transform="translate(415.870341 400.874375) scale(0.1 -0.1)">
       <use xlink:href="#DejaVuSans-31"/>
       <use xlink:href="#DejaVuSans-35" transform="translate(63.623047 0)"/>
       <use xlink:href="#DejaVuSans-2e" transform="translate(127.246094 0)"/>
       <use xlink:href="#DejaVuSans-30" transform="translate(159.033203 0)"/>
      </g>
     </g>
    </g>
    <g id="xtick_17">
     <g id="line2d_25">
      <g>
       <use xlink:href="#md43d28981e" x="485.736214" y="386.275937" style="fill: #7f7f7f; stroke: #7f7f7f; stroke-width: 1.8"/>
      </g>
     </g>
     <g id="text_26">
      <!-- 17.5 -->
      <g style="fill: #7f7f7f" transform="translate(474.603402 400.874375) scale(0.1 -0.1)">
       <use xlink:href="#DejaVuSans-31"/>
       <use xlink:href="#DejaVuSans-37" transform="translate(63.623047 0)"/>
       <use xlink:href="#DejaVuSans-2e" transform="translate(127.246094 0)"/>
       <use xlink:href="#DejaVuSans-35" transform="translate(159.033203 0)"/>
      </g>
     </g>
    </g>
    <g id="xtick_18">
     <g id="line2d_26">
      <g>
       <use xlink:href="#md43d28981e" x="544.469276" y="386.275937" style="fill: #7f7f7f; stroke: #7f7f7f; stroke-width: 1.8"/>
      </g>
     </g>
     <g id="text_27">
      <!-- 20.0 -->
      <g style="fill: #7f7f7f" transform="translate(533.336463 400.874375) scale(0.1 -0.1)">
       <use xlink:href="#DejaVuSans-32"/>
       <use xlink:href="#DejaVuSans-30" transform="translate(63.623047 0)"/>
       <use xlink:href="#DejaVuSans-2e" transform="translate(127.246094 0)"/>
       <use xlink:href="#DejaVuSans-30" transform="translate(159.033203 0)"/>
      </g>
     </g>
    </g>
    <g id="text_28">
     <!-- Time [s] -->
     <g style="fill: #7f7f7f" transform="translate(287.175234 415.312344) scale(0.11 -0.11)">
      <defs>
       <path id="DejaVuSans-54" d="M -19 4666 
L 3928 4666 
L 3928 4134 
L 2272 4134 
L 2272 0 
L 1638 0 
L 1638 4134 
L -19 4134 
L -19 4666 
z
" transform="scale(0.015625)"/>
       <path id="DejaVuSans-65" d="M 3597 1894 
L 3597 1613 
L 953 1613 
Q 991 1019 1311 708 
Q 1631 397 2203 397 
Q 2534 397 2845 478 
Q 3156 559 3463 722 
L 3463 178 
Q 3153 47 2828 -22 
Q 2503 -91 2169 -91 
Q 1331 -91 842 396 
Q 353 884 353 1716 
Q 353 2575 817 3079 
Q 1281 3584 2069 3584 
Q 2775 3584 3186 3129 
Q 3597 2675 3597 1894 
z
M 3022 2063 
Q 3016 2534 2758 2815 
Q 2500 3097 2075 3097 
Q 1594 3097 1305 2825 
Q 1016 2553 972 2059 
L 3022 2063 
z
" transform="scale(0.015625)"/>
      </defs>
      <use xlink:href="#DejaVuSans-54"/>
      <use xlink:href="#DejaVuSans-69" transform="translate(57.958984 0)"/>
      <use xlink:href="#DejaVuSans-6d" transform="translate(85.742188 0)"/>
      <use xlink:href="#DejaVuSans-65" transform="translate(183.154297 0)"/>
      <use xlink:href="#DejaVuSans-20" transform="translate(244.677734 0)"/>
      <use xlink:href="#DejaVuSans-5b" transform="translate(276.464844 0)"/>
      <use xlink:href="#DejaVuSans-73" transform="translate(315.478516 0)"/>
      <use xlink:href="#DejaVuSans-5d" transform="translate(367.578125 0)"/>
     </g>
    </g>
   </g>
   <g id="matplotlib.axis_4">
    <g id="ytick_8">
     <g id="line2d_27">
      <g>
       <use xlink:href="#me5dc7bc81e" x="51.111563" y="378.640669" style="fill: #7f7f7f; stroke: #7f7f7f; stroke-width: 1.8"/>
      </g>
     </g>
     <g id="text_29">
      <!-- 0.0 -->
      <g style="fill: #7f7f7f" transform="translate(28.208438 382.439888) scale(0.1 -0.1)">
       <use xlink:href="#DejaVuSans-30"/>
       <use xlink:href="#DejaVuSans-2e" transform="translate(63.623047 0)"/>
       <use xlink:href="#DejaVuSans-30" transform="translate(95.410156 0)"/>
      </g>
     </g>
    </g>
    <g id="ytick_9">
     <g id="line2d_28">
      <g>
       <use xlink:href="#me5dc7bc81e" x="51.111563" y="343.069946" style="fill: #7f7f7f; stroke: #7f7f7f; stroke-width: 1.8"/>
      </g>
     </g>
     <g id="text_30">
      <!-- 0.5 -->
      <g style="fill: #7f7f7f" transform="translate(28.208438 346.869165) scale(0.1 -0.1)">
       <use xlink:href="#DejaVuSans-30"/>
       <use xlink:href="#DejaVuSans-2e" transform="translate(63.623047 0)"/>
       <use xlink:href="#DejaVuSans-35" transform="translate(95.410156 0)"/>
      </g>
     </g>
    </g>
    <g id="ytick_10">
     <g id="line2d_29">
      <g>
       <use xlink:href="#me5dc7bc81e" x="51.111563" y="307.499223" style="fill: #7f7f7f; stroke: #7f7f7f; stroke-width: 1.8"/>
      </g>
     </g>
     <g id="text_31">
      <!-- 1.0 -->
      <g style="fill: #7f7f7f" transform="translate(28.208438 311.298442) scale(0.1 -0.1)">
       <use xlink:href="#DejaVuSans-31"/>
       <use xlink:href="#DejaVuSans-2e" transform="translate(63.623047 0)"/>
       <use xlink:href="#DejaVuSans-30" transform="translate(95.410156 0)"/>
      </g>
     </g>
    </g>
    <g id="ytick_11">
     <g id="line2d_30">
      <g>
       <use xlink:href="#me5dc7bc81e" x="51.111563" y="271.928501" style="fill: #7f7f7f; stroke: #7f7f7f; stroke-width: 1.8"/>
      </g>
     </g>
     <g id="text_32">
      <!-- 1.5 -->
      <g style="fill: #7f7f7f" transform="translate(28.208438 275.727719) scale(0.1 -0.1)">
       <use xlink:href="#DejaVuSans-31"/>
       <use xlink:href="#DejaVuSans-2e" transform="translate(63.623047 0)"/>
       <use xlink:href="#DejaVuSans-35" transform="translate(95.410156 0)"/>
      </g>
     </g>
    </g>
    <g id="ytick_12">
     <g id="line2d_31">
      <g>
       <use xlink:href="#me5dc7bc81e" x="51.111563" y="236.357778" style="fill: #7f7f7f; stroke: #7f7f7f; stroke-width: 1.8"/>
      </g>
     </g>
     <g id="text_33">
      <!-- 2.0 -->
      <g style="fill: #7f7f7f" transform="translate(28.208438 240.156996) scale(0.1 -0.1)">
       <use xlink:href="#DejaVuSans-32"/>
       <use xlink:href="#DejaVuSans-2e" transform="translate(63.623047 0)"/>
       <use xlink:href="#DejaVuSans-30" transform="translate(95.410156 0)"/>
      </g>
     </g>
    </g>
    <g id="text_34">
     <!-- Velocity Error [m/s] -->
     <g style="fill: #7f7f7f" transform="translate(21.920781 354.999844) rotate(-90) scale(0.11 -0.11)">
      <defs>
       <path id="DejaVuSans-56" d="M 1831 0 
L 50 4666 
L 709 4666 
L 2188 738 
L 3669 4666 
L 4325 4666 
L 2547 0 
L 1831 0 
z
" transform="scale(0.015625)"/>
       <path id="DejaVuSans-6c" d="M 603 4863 
L 1178 4863 
L 1178 0 
L 603 0 
L 603 4863 
z
" transform="scale(0.015625)"/>
       <path id="DejaVuSans-63" d="M 3122 3366 
L 3122 2828 
Q 2878 2963 2633 3030 
Q 2388 3097 2138 3097 
Q 1578 3097 1268 2742 
Q 959 2388 959 1747 
Q 959 1106 1268 751 
Q 1578 397 2138 397 
Q 2388 397 2633 464 
Q 2878 531 3122 666 
L 3122 134 
Q 2881 22 2623 -34 
Q 2366 -91 2075 -91 
Q 1284 -91 818 406 
Q 353 903 353 1747 
Q 353 2603 823 3093 
Q 1294 3584 2113 3584 
Q 2378 3584 2631 3529 
Q 2884 3475 3122 3366 
z
" transform="scale(0.015625)"/>
       <path id="DejaVuSans-79" d="M 2059 -325 
Q 1816 -950 1584 -1140 
Q 1353 -1331 966 -1331 
L 506 -1331 
L 506 -850 
L 844 -850 
Q 1081 -850 1212 -737 
Q 1344 -625 1503 -206 
L 1606 56 
L 191 3500 
L 800 3500 
L 1894 763 
L 2988 3500 
L 3597 3500 
L 2059 -325 
z
" transform="scale(0.015625)"/>
       <path id="DejaVuSans-2f" d="M 1625 4666 
L 2156 4666 
L 531 -594 
L 0 -594 
L 1625 4666 
z
" transform="scale(0.015625)"/>
      </defs>
      <use xlink:href="#DejaVuSans-56"/>
      <use xlink:href="#DejaVuSans-65" transform="translate(60.658203 0)"/>
      <use xlink:href="#DejaVuSans-6c" transform="translate(122.181641 0)"/>
      <use xlink:href="#DejaVuSans-6f" transform="translate(149.964844 0)"/>
      <use xlink:href="#DejaVuSans-63" transform="translate(211.146484 0)"/>
      <use xlink:href="#DejaVuSans-69" transform="translate(266.126953 0)"/>
      <use xlink:href="#DejaVuSans-74" transform="translate(293.910156 0)"/>
      <use xlink:href="#DejaVuSans-79" transform="translate(333.119141 0)"/>
      <use xlink:href="#DejaVuSans-20" transform="translate(392.298828 0)"/>
      <use xlink:href="#DejaVuSans-45" transform="translate(424.085938 0)"/>
      <use xlink:href="#DejaVuSans-72" transform="translate(487.269531 0)"/>
      <use xlink:href="#DejaVuSans-72" transform="translate(526.632812 0)"/>
      <use xlink:href="#DejaVuSans-6f" transform="translate(565.496094 0)"/>
      <use xlink:href="#DejaVuSans-72" transform="translate(626.677734 0)"/>
      <use xlink:href="#DejaVuSans-20" transform="translate(667.791016 0)"/>
      <use xlink:href="#DejaVuSans-5b" transform="translate(699.578125 0)"/>
      <use xlink:href="#DejaVuSans-6d" transform="translate(738.591797 0)"/>
      <use xlink:href="#DejaVuSans-2f" transform="translate(836.003906 0)"/>
      <use xlink:href="#DejaVuSans-73" transform="translate(869.695312 0)"/>
      <use xlink:href="#DejaVuSans-5d" transform="translate(921.794922 0)"/>
     </g>
    </g>
   </g>
   <g id="line2d_32">
    <path d="M 74.604787 236.357778 
L 75.309584 236.765981 
L 76.01438 235.256971 
L 76.484245 244.910176 
L 76.719177 251.688414 
L 77.423974 243.932774 
L 77.893838 228.406908 
L 78.128771 237.679985 
L 78.363703 248.593905 
L 78.833567 229.608406 
L 79.0685 225.683359 
L 80.478093 285.542909 
L 80.713025 282.656099 
L 81.18289 310.486896 
L 81.652754 297.030738 
L 81.887687 289.104886 
L 82.357551 302.515244 
L 82.592483 298.509019 
L 83.767144 322.620069 
L 85.176738 305.546055 
L 86.116467 303.062196 
L 86.351399 321.775477 
L 86.586331 322.397098 
L 87.291128 336.410929 
L 87.52606 330.060637 
L 87.995925 321.800103 
L 88.230857 332.194003 
L 88.465789 334.023842 
L 89.875383 368.526753 
L 90.110315 362.153714 
L 90.815112 353.698998 
L 91.284976 358.567683 
L 91.754841 358.169821 
L 91.989773 360.85708 
L 93.399366 378.325315 
L 93.634299 377.689933 
L 94.104163 368.587816 
L 94.574028 373.680301 
L 95.748689 376.00876 
L 96.218553 365.941929 
L 96.688418 371.452332 
L 96.92335 372.526843 
L 97.393215 371.509942 
L 98.098011 367.968827 
L 98.332944 371.115418 
L 98.567876 377.113908 
L 99.507605 376.94664 
L 100.212402 374.489433 
L 100.447334 373.078808 
L 100.682266 378.453665 
L 101.387063 377.023276 
L 103.266521 368.232234 
L 103.501453 370.197711 
L 103.736385 369.428154 
L 103.971317 365.549822 
L 104.441182 369.819622 
L 104.676114 367.982919 
L 105.145979 371.106872 
L 105.615843 370.333135 
L 105.850775 366.909571 
L 106.555572 370.879718 
L 107.260369 370.407439 
L 107.495301 371.568867 
L 108.669962 376.711605 
L 108.904895 372.423458 
L 109.609691 374.314152 
L 109.844624 374.436063 
L 110.079556 377.922773 
L 110.314488 372.853464 
L 111.019285 377.225367 
L 111.724082 372.197543 
L 111.489149 377.828413 
L 112.193946 373.80329 
L 112.663811 373.613208 
L 113.368607 377.671863 
L 113.603539 373.200721 
L 113.838472 374.178104 
L 114.073404 372.031702 
L 114.543268 368.241667 
L 115.248065 368.429439 
L 115.71793 375.592531 
L 116.657659 373.882888 
L 116.892591 374.246125 
L 117.362455 373.88416 
L 117.597388 373.098044 
L 117.83232 377.502863 
L 118.302184 370.074157 
L 118.537117 373.193001 
L 118.772049 373.060185 
L 119.241913 375.33081 
L 120.181642 367.598697 
L 120.886439 369.959346 
L 121.121371 366.63637 
L 121.591236 372.50307 
L 121.826168 372.747078 
L 122.530965 378.268786 
L 123.235762 377.833818 
L 123.470694 378.018428 
L 123.705626 376.971638 
L 124.17549 372.75386 
L 124.645355 374.588101 
L 125.350152 377.330638 
L 126.054948 369.128232 
L 126.524813 371.790689 
L 126.759745 372.205041 
L 126.994677 370.713645 
L 127.934406 378.562674 
L 128.404271 370.375398 
L 129.109068 374.613576 
L 129.344 376.154995 
L 129.578932 373.026929 
L 129.813864 370.751913 
L 130.283729 374.506171 
L 130.753593 371.333468 
L 131.223458 368.272626 
L 131.45839 369.197408 
L 132.867984 378.400179 
L 133.807712 374.737973 
L 134.042645 377.183559 
L 134.512509 376.092342 
L 135.217306 378.292712 
L 135.452238 378.187736 
L 136.861832 364.405966 
L 137.331696 366.847097 
L 137.801561 365.780765 
L 138.506357 369.268163 
L 139.915951 363.056082 
L 140.620748 373.507205 
L 141.090612 368.740211 
L 141.560477 371.294174 
L 141.795409 369.54569 
L 142.500206 369.685284 
L 143.205002 364.430501 
L 145.319392 377.681585 
L 145.554325 376.857933 
L 146.494054 373.172312 
L 146.728986 375.2589 
L 146.963918 378.386582 
L 147.903647 377.985995 
L 148.608444 376.884193 
L 149.078308 371.336682 
L 149.783105 374.838576 
L 150.018037 373.860117 
L 150.25297 378.256745 
L 150.957766 374.077708 
L 151.427631 369.939834 
L 151.897495 373.745928 
L 152.132428 374.03104 
L 152.36736 372.506328 
L 152.602292 377.37472 
L 152.837224 378.122274 
L 153.072157 375.646238 
L 153.307089 372.800134 
L 154.011886 376.11487 
L 154.246818 376.084567 
L 154.716682 378.112629 
L 154.951614 377.902202 
L 155.656411 371.176852 
L 155.891343 373.823431 
L 156.361208 375.877715 
L 156.59614 370.146938 
L 157.300937 371.041249 
L 157.535869 372.723881 
L 157.770801 371.370845 
L 158.475598 361.45562 
L 158.945463 367.303393 
L 159.415327 362.906775 
L 159.650259 364.316812 
L 160.120124 369.083341 
L 160.355056 366.580145 
L 161.294785 362.213238 
L 163.174243 375.843431 
L 163.409175 375.413371 
L 164.113972 373.215181 
L 164.348904 374.680187 
L 164.583837 378.524868 
L 165.523565 378.314462 
L 166.933159 371.15439 
L 167.168091 371.230537 
L 167.403023 374.095275 
L 167.637956 370.668527 
L 167.872888 367.401232 
L 168.342752 370.744307 
L 168.577685 369.523355 
L 169.987278 373.512278 
L 170.457143 378.288769 
L 171.161939 378.235357 
L 172.806465 368.609515 
L 173.041397 368.984798 
L 173.511262 372.554535 
L 173.981126 369.827862 
L 174.216059 367.263152 
L 174.920855 369.365444 
L 175.155787 368.893162 
L 176.330449 378.203203 
L 177.035245 377.939083 
L 177.50511 375.169677 
L 177.740042 375.574669 
L 177.974974 378.53699 
L 178.444839 374.906619 
L 178.679771 372.724424 
L 178.914703 375.007041 
L 179.6195 373.310128 
L 179.854432 376.26769 
L 180.089365 371.180676 
L 180.794161 375.889708 
L 181.029094 376.989398 
L 181.264026 373.979643 
L 181.498958 370.300383 
L 182.203755 373.115171 
L 182.908552 375.912652 
L 183.378416 375.203236 
L 184.318145 370.79086 
L 184.553077 370.93456 
L 187.137332 376.752568 
L 187.607196 371.53838 
L 188.311993 375.064629 
L 189.251722 370.43724 
L 189.721587 371.938939 
L 190.191451 378.409222 
L 190.661316 375.938639 
L 190.896248 372.832563 
L 191.601045 375.097554 
L 193.480503 378.485284 
L 193.715435 377.298801 
L 194.420232 378.628672 
L 194.655164 375.482407 
L 195.594893 378.590829 
L 195.829825 377.869625 
L 197.709283 366.610233 
L 197.944215 367.679467 
L 198.179147 364.410835 
L 198.41408 364.802696 
L 199.823673 356.115508 
L 200.058605 359.418592 
L 200.763402 358.602988 
L 201.233267 357.225521 
L 201.468199 362.946453 
L 202.407928 362.76786 
L 202.64286 362.484213 
L 203.347657 365.919148 
L 203.582589 364.936068 
L 203.817521 362.887532 
L 204.052454 367.896735 
L 204.287386 367.315712 
L 204.992183 366.01783 
L 205.462047 368.793369 
L 205.931912 366.358063 
L 206.166844 370.018835 
L 206.636708 367.170131 
L 208.516166 378.070432 
L 208.986031 377.124898 
L 209.455895 373.191613 
L 209.690827 378.60099 
L 210.160692 376.814032 
L 210.630556 375.615049 
L 210.865489 378.294838 
L 211.570285 376.18069 
L 211.805218 375.909869 
L 212.04015 376.16407 
L 212.744947 378.175446 
L 212.510014 374.795551 
L 213.214811 377.801497 
L 213.449743 378.19873 
L 213.684676 376.339585 
L 214.389472 377.950362 
L 214.624405 378.045653 
L 216.26893 369.158061 
L 216.503862 369.283097 
L 216.973727 373.034008 
L 217.208659 369.004395 
L 217.443591 369.683365 
L 218.148388 371.216595 
L 218.38332 373.387371 
L 218.853185 369.535603 
L 219.088117 373.169916 
L 220.027846 368.719828 
L 220.967575 370.409572 
L 221.202507 370.802109 
L 221.672372 363.297178 
L 222.377169 366.519125 
L 222.612101 365.793188 
L 222.847033 368.784498 
L 223.081965 367.338051 
L 223.316898 361.1497 
L 224.256627 361.45017 
L 225.901152 371.156606 
L 226.136085 367.197548 
L 226.605949 369.155539 
L 227.545678 373.388501 
L 227.075813 368.840947 
L 227.78061 372.631981 
L 228.015542 371.761795 
L 228.485407 377.705143 
L 229.190204 376.550268 
L 229.425136 376.527897 
L 229.660068 377.997246 
L 229.895 375.44836 
L 231.069662 367.486245 
L 232.244323 361.121236 
L 233.184052 373.548488 
L 233.418984 370.051281 
L 234.123781 369.8487 
L 234.358713 372.098486 
L 234.828578 368.140049 
L 235.06351 371.549304 
L 235.298442 377.816998 
L 235.768307 371.48371 
L 236.003239 368.006157 
L 236.238171 371.829922 
L 236.942968 376.786833 
L 237.412832 375.749233 
L 238.587493 364.378986 
L 238.822426 365.667884 
L 239.527222 377.893022 
L 240.232019 372.694578 
L 240.701884 372.004286 
L 241.641613 378.081482 
L 242.111477 376.84077 
L 242.346409 371.659459 
L 243.051206 377.305352 
L 243.756003 378.423189 
L 243.521071 376.674034 
L 243.990935 377.195927 
L 244.225867 375.61453 
L 244.695732 378.369966 
L 245.400529 378.364051 
L 246.340258 374.019159 
L 246.810122 375.301379 
L 247.045054 374.382584 
L 247.279987 369.126228 
L 247.984783 375.26828 
L 248.68958 373.085432 
L 248.924512 374.971967 
L 249.864241 378.335196 
L 250.099173 376.970469 
L 250.80397 377.668592 
L 251.038902 378.103037 
L 252.683428 367.807953 
L 254.327954 377.600956 
L 253.153293 365.65553 
L 254.797818 375.932334 
L 255.032751 372.279738 
L 255.737547 373.749862 
L 256.442344 378.602124 
L 256.677276 377.472314 
L 258.08687 370.059557 
L 259.026599 377.348125 
L 259.496463 377.238552 
L 259.966328 378.023712 
L 260.20126 374.857531 
L 260.671124 378.56443 
L 260.906057 378.379972 
L 262.080718 375.484265 
L 262.31565 375.706018 
L 262.550582 378.51856 
L 262.785515 375.443082 
L 263.020447 376.202281 
L 263.960176 369.607787 
L 264.195108 370.815052 
L 264.899905 378.314074 
L 265.369769 374.96524 
L 266.544431 378.44442 
L 268.423888 368.081989 
L 268.658821 368.425192 
L 269.833482 375.413046 
L 270.303346 370.337359 
L 270.538279 376.051756 
L 270.773211 376.143365 
L 271.478008 371.583366 
L 271.947872 372.398317 
L 272.182804 374.246616 
L 272.887601 373.782396 
L 274.767059 367.764305 
L 276.176653 376.557068 
L 276.411585 374.518102 
L 276.881449 376.947518 
L 277.116382 375.905891 
L 277.586246 373.986218 
L 277.821178 375.452907 
L 278.525975 378.30502 
L 278.995839 378.02011 
L 279.465704 375.637124 
L 279.935568 377.046573 
L 280.170501 378.576615 
L 280.640365 375.659855 
L 281.815026 368.241358 
L 282.049959 369.590866 
L 282.754755 377.526077 
L 282.989688 375.268465 
L 283.22462 371.774642 
L 283.929417 373.7655 
L 284.399281 371.411903 
L 284.869146 374.004899 
L 285.33901 376.927704 
L 285.808875 375.036768 
L 286.748604 369.434839 
L 286.278739 375.266246 
L 286.983536 369.499553 
L 287.4534 376.7509 
L 287.688333 375.454381 
L 287.923265 368.578525 
L 288.628062 372.96676 
L 289.802723 377.400599 
L 290.742452 377.807636 
L 291.212316 373.11042 
L 292.856842 378.536252 
L 291.917113 372.025271 
L 293.091774 377.254895 
L 293.326706 377.130071 
L 293.561639 378.488921 
L 294.031503 375.353502 
L 294.266435 377.949741 
L 296.380826 374.731537 
L 297.555487 378.168011 
L 298.025351 372.287737 
L 298.495216 375.520666 
L 299.904809 377.540774 
L 301.549335 372.225932 
L 302.254132 377.178201 
L 302.489064 374.836281 
L 303.898657 367.503788 
L 304.368522 370.444264 
L 304.603454 366.507958 
L 304.838386 367.661383 
L 305.073319 367.429637 
L 306.24798 372.610004 
L 305.778115 366.642417 
L 306.482912 370.541226 
L 306.952777 370.158698 
L 307.187709 370.863572 
L 307.892506 370.470092 
L 308.597302 378.153437 
L 309.771963 375.004307 
L 310.711692 377.830355 
L 312.121286 371.369915 
L 312.59115 369.412265 
L 312.826083 370.9817 
L 313.530879 366.92087 
L 313.765812 369.952832 
L 314.000744 368.935634 
L 314.470608 369.823491 
L 314.705541 370.41571 
L 315.410337 375.297426 
L 315.64527 371.390306 
L 316.115134 373.052582 
L 317.054863 366.630613 
L 317.289795 365.830393 
L 318.699389 356.721724 
L 318.934321 357.559447 
L 319.169253 354.692313 
L 319.639118 358.340351 
L 319.87405 356.948593 
L 320.108982 358.264425 
L 320.578847 356.60546 
L 320.813779 356.229261 
L 322.693237 366.499525 
L 324.10283 361.420996 
L 324.337763 361.309338 
L 324.572695 363.740287 
L 325.277492 360.717462 
L 325.512424 358.774534 
L 325.747356 362.211483 
L 327.15695 375.847698 
L 327.861746 372.485202 
L 329.036408 368.065132 
L 329.27134 367.954547 
L 329.506272 364.607 
L 330.211069 368.632614 
L 330.680933 372.70639 
L 330.915865 369.821452 
L 332.560391 365.125169 
L 333.735052 373.303698 
L 333.969985 372.697621 
L 334.204917 372.4079 
L 335.379578 377.420938 
L 335.61451 376.499614 
L 335.849443 377.938679 
L 336.084375 376.65578 
L 336.319307 378.199226 
L 336.554239 375.877579 
L 337.259036 371.807927 
L 337.728901 374.023378 
L 339.138494 365.627818 
L 338.198765 374.369798 
L 339.608359 367.925302 
L 340.548087 374.665758 
L 340.78302 372.959044 
L 341.017952 372.404557 
L 341.487816 377.304347 
L 341.957681 374.103258 
L 342.192613 371.661259 
L 342.662478 375.794904 
L 343.132342 378.496529 
L 343.837139 378.025339 
L 345.0118 374.355401 
L 345.246732 377.597114 
L 345.951529 374.172145 
L 346.656326 373.019816 
L 347.361123 378.499257 
L 347.596055 375.709593 
L 348.300852 378.163557 
L 349.710445 367.31711 
L 350.415242 370.422608 
L 350.650174 373.197941 
L 351.120038 371.720758 
L 351.589903 368.205145 
L 352.059767 372.395072 
L 352.529632 371.705751 
L 353.234429 374.981808 
L 353.704293 378.481018 
L 354.40909 377.841254 
L 355.583751 370.983276 
L 355.818683 372.333006 
L 356.288548 377.703975 
L 357.228277 377.416233 
L 358.63787 372.323067 
L 359.812532 378.028497 
L 360.752261 373.182906 
L 361.222125 375.662813 
L 361.457057 377.764388 
L 361.926922 377.616707 
L 363.101583 373.226298 
L 363.336515 373.680842 
L 364.041312 378.446875 
L 364.276244 376.977092 
L 364.746109 377.26883 
L 365.450905 372.589751 
L 365.685838 372.163026 
L 366.155702 368.677901 
L 366.390634 370.151971 
L 367.095431 369.342948 
L 367.565296 376.97988 
L 368.505025 368.077919 
L 368.739957 368.480822 
L 368.974889 367.958647 
L 369.444754 362.652823 
L 369.914618 366.273508 
L 370.14955 366.051073 
L 371.089279 369.51723 
L 372.968737 360.921528 
L 373.203669 364.647457 
L 373.673534 358.183398 
L 374.143398 354.545336 
L 374.613263 356.818391 
L 376.022856 367.567288 
L 377.902314 377.578862 
L 378.137247 376.995853 
L 378.372179 377.126883 
L 378.607111 378.599726 
L 379.076976 377.013521 
L 381.191366 368.397006 
L 382.131095 373.285186 
L 382.366027 373.221501 
L 383.305756 378.574079 
L 383.540688 375.538775 
L 384.715349 378.241099 
L 385.420146 376.248803 
L 385.655078 377.158724 
L 385.890011 378.453431 
L 386.359875 376.051541 
L 386.594807 377.488761 
L 387.769469 375.070448 
L 388.004401 378.285042 
L 388.709198 375.191625 
L 389.648927 369.832551 
L 389.883859 371.197103 
L 390.823588 378.416176 
L 391.998249 377.708076 
L 392.937978 374.620064 
L 393.17291 375.756131 
L 393.407842 378.26185 
L 393.642775 374.896933 
L 393.877707 372.148749 
L 394.817436 372.268162 
L 395.757165 368.983319 
L 396.696894 372.472981 
L 398.106487 366.834014 
L 398.576352 365.609888 
L 401.395539 375.898495 
L 401.630471 377.206615 
L 401.865403 375.655214 
L 402.335268 375.951662 
L 403.509929 366.759019 
L 403.744861 367.761254 
L 405.154455 377.759473 
L 405.389387 375.077502 
L 405.859251 371.576469 
L 406.329116 374.219545 
L 407.738709 369.827831 
L 407.973642 371.048556 
L 408.208574 372.452493 
L 408.913371 372.313178 
L 409.148303 371.938654 
L 410.088032 377.604267 
L 410.792829 376.65431 
L 411.262693 378.032145 
L 411.732558 377.43896 
L 411.96749 376.332248 
L 412.437354 378.097019 
L 412.672287 376.695214 
L 413.377083 378.562609 
L 413.846948 371.747714 
L 414.316812 378.470584 
L 415.256541 372.919714 
L 415.726406 373.375767 
L 416.431202 377.960722 
L 416.666135 377.527911 
L 418.075728 368.935612 
L 418.31066 371.09967 
L 419.015457 370.818578 
L 419.250389 369.835973 
L 420.190118 376.758631 
L 420.425051 375.880695 
L 420.659983 374.790993 
L 421.129847 376.830574 
L 421.36478 376.993936 
L 421.834644 377.99997 
L 422.774373 371.923691 
L 423.009305 374.195515 
L 423.244237 370.711052 
L 424.653831 361.741882 
L 424.888763 359.600355 
L 425.358628 363.496259 
L 426.768221 371.283702 
L 427.003153 370.000715 
L 427.238086 372.53952 
L 428.177815 376.178897 
L 428.882611 369.157893 
L 429.117544 372.383958 
L 430.057273 377.556051 
L 430.292205 375.045363 
L 430.527137 375.343403 
L 431.466866 370.118866 
L 431.936731 371.928448 
L 432.171663 371.516643 
L 434.051121 378.177919 
L 434.755917 376.491174 
L 434.99085 377.859632 
L 435.225782 378.450646 
L 437.10524 366.498037 
L 438.514833 371.85352 
L 438.749766 371.612013 
L 438.984698 372.606821 
L 439.21963 374.471064 
L 439.689495 371.626002 
L 439.924427 371.63188 
L 441.099088 376.636878 
L 441.33402 371.793353 
L 442.038817 374.590062 
L 442.273749 376.191542 
L 442.508682 371.962978 
L 442.743614 373.706094 
L 442.978546 370.237241 
L 443.213478 374.269853 
L 443.918275 370.920922 
L 445.797733 378.551465 
L 446.737462 371.591337 
L 447.442259 378.145578 
L 447.677191 374.719416 
L 448.147055 374.480654 
L 448.61692 378.548717 
L 449.086784 377.130719 
L 450.496378 367.050506 
L 450.966242 361.191783 
L 451.436107 366.341487 
L 451.671039 366.512223 
L 452.610768 363.569276 
L 452.8457 363.877598 
L 453.785429 366.225124 
L 454.020362 363.179646 
L 454.490226 364.94337 
L 456.604616 378.399058 
L 456.839548 378.592433 
L 458.01421 373.075661 
L 458.953939 376.366667 
L 458.484074 372.877754 
L 459.188871 375.266362 
L 460.1286 370.690295 
L 460.363532 372.272549 
L 460.598464 372.914602 
L 460.833397 370.952982 
L 461.068329 371.829161 
L 461.773126 362.126734 
L 462.24299 364.671778 
L 462.712855 363.035913 
L 463.182719 363.639374 
L 464.827245 370.716824 
L 465.297109 370.206644 
L 466.706703 378.034415 
L 466.941635 376.457296 
L 467.646432 377.330113 
L 467.881364 377.495221 
L 469.290957 370.808037 
L 469.52589 370.963456 
L 470.700551 375.207321 
L 470.935483 373.440719 
L 471.405348 373.950471 
L 471.64028 372.443912 
L 471.875212 373.971712 
L 472.110144 376.857506 
L 473.049873 376.227755 
L 473.284806 378.396803 
L 473.519738 375.361254 
L 474.459467 371.149616 
L 474.694399 373.242119 
L 474.929331 373.155237 
L 475.86906 378.065854 
L 476.103992 377.562338 
L 476.808789 374.065142 
L 477.043721 375.57217 
L 477.278654 377.168164 
L 477.748518 373.519156 
L 477.98345 373.320811 
L 479.393044 365.074527 
L 479.862908 367.723076 
L 480.097841 362.209049 
L 482.212231 376.787054 
L 483.386892 373.169009 
L 485.26635 377.872468 
L 485.501282 377.009369 
L 485.971147 371.607123 
L 486.441011 375.282417 
L 487.38074 378.284611 
L 487.615672 377.611272 
L 487.850605 378.123012 
L 488.085537 376.838766 
L 489.260198 374.305391 
L 488.555401 378.506067 
L 489.49513 374.376689 
L 489.964995 373.745212 
L 490.669792 377.06121 
L 492.079385 362.313737 
L 492.784182 363.462552 
L 493.254046 358.829968 
L 493.958843 360.429663 
L 494.193775 358.437189 
L 494.66364 362.357491 
L 494.898572 362.453945 
L 495.133504 364.15495 
L 495.603369 363.936567 
L 496.073233 359.336131 
L 496.543098 362.262558 
L 496.77803 362.946778 
L 497.012962 362.045039 
L 497.717759 360.036556 
L 498.187623 364.479887 
L 498.657488 362.787054 
L 498.89242 359.495597 
L 499.597217 362.413082 
L 500.067081 360.363309 
L 501.00681 367.345788 
L 501.241743 366.456517 
L 501.711607 367.870011 
L 501.946539 368.057834 
L 502.416404 365.212412 
L 502.886268 368.278069 
L 503.356133 366.098087 
L 504.530794 374.800736 
L 505.705455 377.658851 
L 505.940387 376.922611 
L 506.880116 373.921167 
L 507.115049 376.499511 
L 507.819845 378.171839 
L 508.759574 368.678692 
L 508.994507 372.212945 
L 509.229439 378.01725 
L 509.934236 377.971373 
L 511.343829 371.670581 
L 511.578761 373.871241 
L 512.048626 370.580114 
L 512.988355 360.690973 
L 513.223287 365.914664 
L 513.458219 365.821342 
L 513.928084 369.232763 
L 514.163016 367.480912 
L 515.102745 363.269356 
L 515.337677 364.245534 
L 516.042474 367.91624 
L 516.277406 364.07619 
L 516.747271 359.292536 
L 517.217135 361.663667 
L 519.096593 371.27496 
L 519.80139 366.750727 
L 520.036322 368.497423 
L 520.506187 370.887841 
L 521.210983 369.872053 
L 521.445916 368.465902 
L 521.91578 371.247293 
L 522.150712 369.940859 
L 522.385645 370.711998 
L 523.560306 364.398246 
L 523.795238 364.844851 
L 524.500035 360.75283 
L 524.265103 364.951695 
L 524.734967 363.276468 
L 525.909628 374.355954 
L 526.144561 371.83134 
L 526.379493 369.811688 
L 526.614425 371.801136 
L 526.849357 375.519223 
L 527.554154 373.131065 
L 527.789086 372.686703 
L 528.024018 373.408287 
L 528.728815 376.637996 
L 528.963747 374.006413 
L 529.19868 373.536997 
L 529.668544 374.657634 
L 529.903476 376.258236 
L 530.138409 375.831872 
L 530.373341 371.300601 
L 531.078138 375.320635 
L 531.31307 372.895473 
L 531.782934 378.077094 
L 532.017867 378.545035 
L 532.252799 377.28057 
L 534.367189 371.791794 
L 534.602121 372.33943 
L 536.716512 353.746296 
L 537.186376 353.1649 
L 538.830902 373.912112 
L 539.065834 376.950016 
L 539.770631 376.855398 
L 540.71036 371.027185 
L 540.945292 373.024798 
L 541.885021 375.781685 
L 542.354885 375.366092 
L 543.059682 364.981836 
L 543.529547 371.129787 
L 543.764479 368.85838 
L 543.999411 374.584233 
L 544.234343 375.027204 
L 544.469276 373.331533 
L 544.469276 373.331533 
" clip-path="url(#p0f04ebdd1d)" style="fill: none; stroke: #e41a1c; stroke-width: 2; stroke-linecap: square"/>
   </g>
   <g id="patch_6">
    <path d="M 51.111563 386.275937 
L 51.111563 218.036094 
" style="fill: none; stroke: #7f7f7f; stroke-width: 1.8; stroke-linejoin: miter; stroke-linecap: square"/>
   </g>
   <g id="patch_7">
    <path d="M 51.111563 386.275937 
L 567.9625 386.275937 
" style="fill: none; stroke: #7f7f7f; stroke-width: 1.8; stroke-linejoin: miter; stroke-linecap: square"/>
   </g>
  </g>
 </g>
 <defs>
  <clipPath id="p5edc8eacd8">
   <rect x="51.111563" y="22.318125" width="516.850937" height="168.239844"/>
  </clipPath>
  <clipPath id="p0f04ebdd1d">
   <rect x="51.111563" y="218.036094" width="516.850937" height="168.239844"/>
  </clipPath>
 </defs>
</svg>
