<?xml version="1.0" encoding="utf-8" standalone="no"?>
<!DOCTYPE svg PUBLIC "-//W3C//DTD SVG 1.1//EN"
  "http://www.w3.org/Graphics/SVG/1.1/DTD/svg11.dtd">
<svg xmlns:xlink="http://www.w3.org/1999/xlink" width="568.8pt" height="424.8pt" viewBox="0 0 568.8 424.8" xmlns="http://www.w3.org/2000/svg" version="1.1">
 <metadata>
  <rdf:RDF xmlns:dc="http://purl.org/dc/elements/1.1/" xmlns:cc="http://creativecommons.org/ns#" xmlns:rdf="http://www.w3.org/1999/02/22-rdf-syntax-ns#">
   <cc:Work>
    <dc:type rdf:resource="http://purl.org/dc/dcmitype/StillImage"/>
    <dc:date>2026-06-19T00:56:32.944114</dc:date>
    <dc:format>image/svg+xml</dc:format>
    <dc:creator>
     <cc:Agent>
      <dc:title>Matplotlib v3.11.0, https://matplotlib.org/</dc:title>
     </cc:Agent>
    </dc:creator>
   </cc:Work>
  </rdf:RDF>
 </metadata>
 <defs>
  <style type="text/css">*{stroke-linejoin: round; stroke-linecap: butt}</style>
 </defs>
 <g id="figure_1">
  <g id="patch_1">
   <path d="M 0 424.8 
L 568.8 424.8 
L 568.8 0 
L 0 0 
L 0 424.8 
z
" style="fill: none"/>
  </g>
  <g id="axes_1">
   <g id="patch_2">
    <path d="M 45.103984 190.058633 
L 561.6 190.058633 
L 561.6 22.318125 
L 45.103984 22.318125 
L 45.103984 190.058633 
z
" style="fill: none"/>
   </g>
   <g id="matplotlib.axis_1">
    <g id="xtick_1">
     <g id="line2d_1">
      <defs>
       <path id="m7623588f64" d="M 0 0 
L 0 3.5 
" style="stroke: #7f7f7f; stroke-width: 1.8"/>
      </defs>
      <g>
       <use xlink:href="#m7623588f64" x="68.581076" y="190.058633" style="fill: #7f7f7f; stroke: #7f7f7f; stroke-width: 1.8"/>
      </g>
     </g>
     <g id="text_1">
      <!-- 0.0 -->
      <g style="fill: #7f7f7f" transform="translate(60.629513 204.656289) scale(0.1 -0.1)">
       <defs>
        <path id="DejaVuSans-13" d="M 2034 4250 
Q 1547 4250 1301 3770 
Q 1056 3291 1056 2328 
Q 1056 1369 1301 889 
Q 1547 409 2034 409 
Q 2525 409 2770 889 
Q 3016 1369 3016 2328 
Q 3016 3291 2770 3770 
Q 2525 4250 2034 4250 
z
M 2034 4750 
Q 2819 4750 3233 4129 
Q 3647 3509 3647 2328 
Q 3647 1150 3233 529 
Q 2819 -91 2034 -91 
Q 1250 -91 836 529 
Q 422 1150 422 2328 
Q 422 3509 836 4129 
Q 1250 4750 2034 4750 
z
" transform="scale(0.015625)"/>
        <path id="DejaVuSans-11" d="M 684 794 
L 1344 794 
L 1344 0 
L 684 0 
L 684 794 
z
" transform="scale(0.015625)"/>
       </defs>
       <use xlink:href="#DejaVuSans-13"/>
       <use xlink:href="#DejaVuSans-11" transform="translate(63.625 0)"/>
       <use xlink:href="#DejaVuSans-13" transform="translate(95.40625 0)"/>
      </g>
     </g>
    </g>
    <g id="xtick_2">
     <g id="line2d_2">
      <g>
       <use xlink:href="#m7623588f64" x="127.273805" y="190.058633" style="fill: #7f7f7f; stroke: #7f7f7f; stroke-width: 1.8"/>
      </g>
     </g>
     <g id="text_2">
      <!-- 2.5 -->
      <g style="fill: #7f7f7f" transform="translate(119.322243 204.656289) scale(0.1 -0.1)">
       <defs>
        <path id="DejaVuSans-15" d="M 1228 531 
L 3431 531 
L 3431 0 
L 469 0 
L 469 531 
Q 828 903 1448 1529 
Q 2069 2156 2228 2338 
Q 2531 2678 2651 2914 
Q 2772 3150 2772 3378 
Q 2772 3750 2511 3984 
Q 2250 4219 1831 4219 
Q 1534 4219 1204 4116 
Q 875 4013 500 3803 
L 500 4441 
Q 881 4594 1212 4672 
Q 1544 4750 1819 4750 
Q 2544 4750 2975 4387 
Q 3406 4025 3406 3419 
Q 3406 3131 3298 2873 
Q 3191 2616 2906 2266 
Q 2828 2175 2409 1742 
Q 1991 1309 1228 531 
z
" transform="scale(0.015625)"/>
        <path id="DejaVuSans-18" d="M 691 4666 
L 3169 4666 
L 3169 4134 
L 1269 4134 
L 1269 2991 
Q 1406 3038 1543 3061 
Q 1681 3084 1819 3084 
Q 2600 3084 3056 2656 
Q 3513 2228 3513 1497 
Q 3513 744 3044 326 
Q 2575 -91 1722 -91 
Q 1428 -91 1123 -41 
Q 819 9 494 109 
L 494 744 
Q 775 591 1075 516 
Q 1375 441 1709 441 
Q 2250 441 2565 725 
Q 2881 1009 2881 1497 
Q 2881 1984 2565 2268 
Q 2250 2553 1709 2553 
Q 1456 2553 1204 2497 
Q 953 2441 691 2322 
L 691 4666 
z
" transform="scale(0.015625)"/>
       </defs>
       <use xlink:href="#DejaVuSans-15"/>
       <use xlink:href="#DejaVuSans-11" transform="translate(63.625 0)"/>
       <use xlink:href="#DejaVuSans-18" transform="translate(95.40625 0)"/>
      </g>
     </g>
    </g>
    <g id="xtick_3">
     <g id="line2d_3">
      <g>
       <use xlink:href="#m7623588f64" x="185.966534" y="190.058633" style="fill: #7f7f7f; stroke: #7f7f7f; stroke-width: 1.8"/>
      </g>
     </g>
     <g id="text_3">
      <!-- 5.0 -->
      <g style="fill: #7f7f7f" transform="translate(178.014972 204.656289) scale(0.1 -0.1)">
       <use xlink:href="#DejaVuSans-18"/>
       <use xlink:href="#DejaVuSans-11" transform="translate(63.625 0)"/>
       <use xlink:href="#DejaVuSans-13" transform="translate(95.40625 0)"/>
      </g>
     </g>
    </g>
    <g id="xtick_4">
     <g id="line2d_4">
      <g>
       <use xlink:href="#m7623588f64" x="244.659263" y="190.058633" style="fill: #7f7f7f; stroke: #7f7f7f; stroke-width: 1.8"/>
      </g>
     </g>
     <g id="text_4">
      <!-- 7.5 -->
      <g style="fill: #7f7f7f" transform="translate(236.707701 204.656289) scale(0.1 -0.1)">
       <defs>
        <path id="DejaVuSans-1a" d="M 525 4666 
L 3525 4666 
L 3525 4397 
L 1831 0 
L 1172 0 
L 2766 4134 
L 525 4134 
L 525 4666 
z
" transform="scale(0.015625)"/>
       </defs>
       <use xlink:href="#DejaVuSans-1a"/>
       <use xlink:href="#DejaVuSans-11" transform="translate(63.625 0)"/>
       <use xlink:href="#DejaVuSans-18" transform="translate(95.40625 0)"/>
      </g>
     </g>
    </g>
    <g id="xtick_5">
     <g id="line2d_5">
      <g>
       <use xlink:href="#m7623588f64" x="303.351992" y="190.058633" style="fill: #7f7f7f; stroke: #7f7f7f; stroke-width: 1.8"/>
      </g>
     </g>
     <g id="text_5">
      <!-- 10.0 -->
      <g style="fill: #7f7f7f" transform="translate(292.21918 204.656289) scale(0.1 -0.1)">
       <defs>
        <path id="DejaVuSans-14" d="M 794 531 
L 1825 531 
L 1825 4091 
L 703 3866 
L 703 4441 
L 1819 4666 
L 2450 4666 
L 2450 531 
L 3481 531 
L 3481 0 
L 794 0 
L 794 531 
z
" transform="scale(0.015625)"/>
       </defs>
       <use xlink:href="#DejaVuSans-14"/>
       <use xlink:href="#DejaVuSans-13" transform="translate(63.625 0)"/>
       <use xlink:href="#DejaVuSans-11" transform="translate(127.25 0)"/>
       <use xlink:href="#DejaVuSans-13" transform="translate(159.03125 0)"/>
      </g>
     </g>
    </g>
    <g id="xtick_6">
     <g id="line2d_6">
      <g>
       <use xlink:href="#m7623588f64" x="362.044721" y="190.058633" style="fill: #7f7f7f; stroke: #7f7f7f; stroke-width: 1.8"/>
      </g>
     </g>
     <g id="text_6">
      <!-- 12.5 -->
      <g style="fill: #7f7f7f" transform="translate(350.911909 204.656289) scale(0.1 -0.1)">
       <use xlink:href="#DejaVuSans-14"/>
       <use xlink:href="#DejaVuSans-15" transform="translate(63.625 0)"/>
       <use xlink:href="#DejaVuSans-11" transform="translate(127.25 0)"/>
       <use xlink:href="#DejaVuSans-18" transform="translate(159.03125 0)"/>
      </g>
     </g>
    </g>
    <g id="xtick_7">
     <g id="line2d_7">
      <g>
       <use xlink:href="#m7623588f64" x="420.73745" y="190.058633" style="fill: #7f7f7f; stroke: #7f7f7f; stroke-width: 1.8"/>
      </g>
     </g>
     <g id="text_7">
      <!-- 15.0 -->
      <g style="fill: #7f7f7f" transform="translate(409.604638 204.656289) scale(0.1 -0.1)">
       <use xlink:href="#DejaVuSans-14"/>
       <use xlink:href="#DejaVuSans-18" transform="translate(63.625 0)"/>
       <use xlink:href="#DejaVuSans-11" transform="translate(127.25 0)"/>
       <use xlink:href="#DejaVuSans-13" transform="translate(159.03125 0)"/>
      </g>
     </g>
    </g>
    <g id="xtick_8">
     <g id="line2d_8">
      <g>
       <use xlink:href="#m7623588f64" x="479.430179" y="190.058633" style="fill: #7f7f7f; stroke: #7f7f7f; stroke-width: 1.8"/>
      </g>
     </g>
     <g id="text_8">
      <!-- 17.5 -->
      <g style="fill: #7f7f7f" transform="translate(468.297367 204.656289) scale(0.1 -0.1)">
       <use xlink:href="#DejaVuSans-14"/>
       <use xlink:href="#DejaVuSans-1a" transform="translate(63.625 0)"/>
       <use xlink:href="#DejaVuSans-11" transform="translate(127.25 0)"/>
       <use xlink:href="#DejaVuSans-18" transform="translate(159.03125 0)"/>
      </g>
     </g>
    </g>
    <g id="xtick_9">
     <g id="line2d_9">
      <g>
       <use xlink:href="#m7623588f64" x="538.122908" y="190.058633" style="fill: #7f7f7f; stroke: #7f7f7f; stroke-width: 1.8"/>
      </g>
     </g>
     <g id="text_9">
      <!-- 20.0 -->
      <g style="fill: #7f7f7f" transform="translate(526.990096 204.656289) scale(0.1 -0.1)">
       <use xlink:href="#DejaVuSans-15"/>
       <use xlink:href="#DejaVuSans-13" transform="translate(63.625 0)"/>
       <use xlink:href="#DejaVuSans-11" transform="translate(127.25 0)"/>
       <use xlink:href="#DejaVuSans-13" transform="translate(159.03125 0)"/>
      </g>
     </g>
    </g>
   </g>
   <g id="matplotlib.axis_2">
    <g id="ytick_1">
     <g id="line2d_10">
      <defs>
       <path id="meb6ac77b6e" d="M 0 0 
L -3.5 0 
" style="stroke: #7f7f7f; stroke-width: 1.8"/>
      </defs>
      <g>
       <use xlink:href="#meb6ac77b6e" x="45.103984" y="182.434064" style="fill: #7f7f7f; stroke: #7f7f7f; stroke-width: 1.8"/>
      </g>
     </g>
     <g id="text_10">
      <!-- 0.0 -->
      <g style="fill: #7f7f7f" transform="translate(22.200859 186.232892) scale(0.1 -0.1)">
       <use xlink:href="#DejaVuSans-13"/>
       <use xlink:href="#DejaVuSans-11" transform="translate(63.625 0)"/>
       <use xlink:href="#DejaVuSans-13" transform="translate(95.40625 0)"/>
      </g>
     </g>
    </g>
    <g id="ytick_2">
     <g id="line2d_11">
      <g>
       <use xlink:href="#meb6ac77b6e" x="45.103984" y="146.904807" style="fill: #7f7f7f; stroke: #7f7f7f; stroke-width: 1.8"/>
      </g>
     </g>
     <g id="text_11">
      <!-- 0.1 -->
      <g style="fill: #7f7f7f" transform="translate(22.200859 150.703636) scale(0.1 -0.1)">
       <use xlink:href="#DejaVuSans-13"/>
       <use xlink:href="#DejaVuSans-11" transform="translate(63.625 0)"/>
       <use xlink:href="#DejaVuSans-14" transform="translate(95.40625 0)"/>
      </g>
     </g>
    </g>
    <g id="ytick_3">
     <g id="line2d_12">
      <g>
       <use xlink:href="#meb6ac77b6e" x="45.103984" y="111.375551" style="fill: #7f7f7f; stroke: #7f7f7f; stroke-width: 1.8"/>
      </g>
     </g>
     <g id="text_12">
      <!-- 0.2 -->
      <g style="fill: #7f7f7f" transform="translate(22.200859 115.174379) scale(0.1 -0.1)">
       <use xlink:href="#DejaVuSans-13"/>
       <use xlink:href="#DejaVuSans-11" transform="translate(63.625 0)"/>
       <use xlink:href="#DejaVuSans-15" transform="translate(95.40625 0)"/>
      </g>
     </g>
    </g>
    <g id="ytick_4">
     <g id="line2d_13">
      <g>
       <use xlink:href="#meb6ac77b6e" x="45.103984" y="75.846294" style="fill: #7f7f7f; stroke: #7f7f7f; stroke-width: 1.8"/>
      </g>
     </g>
     <g id="text_13">
      <!-- 0.3 -->
      <g style="fill: #7f7f7f" transform="translate(22.200859 79.645122) scale(0.1 -0.1)">
       <defs>
        <path id="DejaVuSans-16" d="M 2597 2516 
Q 3050 2419 3304 2112 
Q 3559 1806 3559 1356 
Q 3559 666 3084 287 
Q 2609 -91 1734 -91 
Q 1441 -91 1130 -33 
Q 819 25 488 141 
L 488 750 
Q 750 597 1062 519 
Q 1375 441 1716 441 
Q 2309 441 2620 675 
Q 2931 909 2931 1356 
Q 2931 1769 2642 2001 
Q 2353 2234 1838 2234 
L 1294 2234 
L 1294 2753 
L 1863 2753 
Q 2328 2753 2575 2939 
Q 2822 3125 2822 3475 
Q 2822 3834 2567 4026 
Q 2313 4219 1838 4219 
Q 1578 4219 1281 4162 
Q 984 4106 628 3988 
L 628 4550 
Q 988 4650 1302 4700 
Q 1616 4750 1894 4750 
Q 2613 4750 3031 4423 
Q 3450 4097 3450 3541 
Q 3450 3153 3228 2886 
Q 3006 2619 2597 2516 
z
" transform="scale(0.015625)"/>
       </defs>
       <use xlink:href="#DejaVuSans-13"/>
       <use xlink:href="#DejaVuSans-11" transform="translate(63.625 0)"/>
       <use xlink:href="#DejaVuSans-16" transform="translate(95.40625 0)"/>
      </g>
     </g>
    </g>
    <g id="ytick_5">
     <g id="line2d_14">
      <g>
       <use xlink:href="#meb6ac77b6e" x="45.103984" y="40.317037" style="fill: #7f7f7f; stroke: #7f7f7f; stroke-width: 1.8"/>
      </g>
     </g>
     <g id="text_14">
      <!-- 0.4 -->
      <g style="fill: #7f7f7f" transform="translate(22.200859 44.115865) scale(0.1 -0.1)">
       <defs>
        <path id="DejaVuSans-17" d="M 2419 4116 
L 825 1625 
L 2419 1625 
L 2419 4116 
z
M 2253 4666 
L 3047 4666 
L 3047 1625 
L 3713 1625 
L 3713 1100 
L 3047 1100 
L 3047 0 
L 2419 0 
L 2419 1100 
L 313 1100 
L 313 1709 
L 2253 4666 
z
" transform="scale(0.015625)"/>
       </defs>
       <use xlink:href="#DejaVuSans-13"/>
       <use xlink:href="#DejaVuSans-11" transform="translate(63.625 0)"/>
       <use xlink:href="#DejaVuSans-17" transform="translate(95.40625 0)"/>
      </g>
     </g>
    </g>
    <g id="text_15">
     <!-- Position Error [m] -->
     <g style="fill: #7f7f7f" transform="translate(15.558281 154.153535) rotate(-90) scale(0.11 -0.11)">
      <defs>
       <path id="DejaVuSans-33" d="M 1259 4147 
L 1259 2394 
L 2053 2394 
Q 2494 2394 2734 2622 
Q 2975 2850 2975 3272 
Q 2975 3691 2734 3919 
Q 2494 4147 2053 4147 
L 1259 4147 
z
M 628 4666 
L 2053 4666 
Q 2838 4666 3239 4311 
Q 3641 3956 3641 3272 
Q 3641 2581 3239 2228 
Q 2838 1875 2053 1875 
L 1259 1875 
L 1259 0 
L 628 0 
L 628 4666 
z
" transform="scale(0.015625)"/>
       <path id="DejaVuSans-52" d="M 1959 3097 
Q 1497 3097 1228 2736 
Q 959 2375 959 1747 
Q 959 1119 1226 758 
Q 1494 397 1959 397 
Q 2419 397 2687 759 
Q 2956 1122 2956 1747 
Q 2956 2369 2687 2733 
Q 2419 3097 1959 3097 
z
M 1959 3584 
Q 2709 3584 3137 3096 
Q 3566 2609 3566 1747 
Q 3566 888 3137 398 
Q 2709 -91 1959 -91 
Q 1206 -91 779 398 
Q 353 888 353 1747 
Q 353 2609 779 3096 
Q 1206 3584 1959 3584 
z
" transform="scale(0.015625)"/>
       <path id="DejaVuSans-56" d="M 2834 3397 
L 2834 2853 
Q 2591 2978 2328 3040 
Q 2066 3103 1784 3103 
Q 1356 3103 1142 2972 
Q 928 2841 928 2578 
Q 928 2378 1081 2264 
Q 1234 2150 1697 2047 
L 1894 2003 
Q 2506 1872 2764 1633 
Q 3022 1394 3022 966 
Q 3022 478 2636 193 
Q 2250 -91 1575 -91 
Q 1294 -91 989 -36 
Q 684 19 347 128 
L 347 722 
Q 666 556 975 473 
Q 1284 391 1588 391 
Q 1994 391 2212 530 
Q 2431 669 2431 922 
Q 2431 1156 2273 1281 
Q 2116 1406 1581 1522 
L 1381 1569 
Q 847 1681 609 1914 
Q 372 2147 372 2553 
Q 372 3047 722 3315 
Q 1072 3584 1716 3584 
Q 2034 3584 2315 3537 
Q 2597 3491 2834 3397 
z
" transform="scale(0.015625)"/>
       <path id="DejaVuSans-4c" d="M 603 3500 
L 1178 3500 
L 1178 0 
L 603 0 
L 603 3500 
z
M 603 4863 
L 1178 4863 
L 1178 4134 
L 603 4134 
L 603 4863 
z
" transform="scale(0.015625)"/>
       <path id="DejaVuSans-57" d="M 1172 4494 
L 1172 3500 
L 2356 3500 
L 2356 3053 
L 1172 3053 
L 1172 1153 
Q 1172 725 1289 603 
Q 1406 481 1766 481 
L 2356 481 
L 2356 0 
L 1766 0 
Q 1100 0 847 248 
Q 594 497 594 1153 
L 594 3053 
L 172 3053 
L 172 3500 
L 594 3500 
L 594 4494 
L 1172 4494 
z
" transform="scale(0.015625)"/>
       <path id="DejaVuSans-51" d="M 3513 2113 
L 3513 0 
L 2938 0 
L 2938 2094 
Q 2938 2591 2744 2837 
Q 2550 3084 2163 3084 
Q 1697 3084 1428 2787 
Q 1159 2491 1159 1978 
L 1159 0 
L 581 0 
L 581 3500 
L 1159 3500 
L 1159 2956 
Q 1366 3272 1645 3428 
Q 1925 3584 2291 3584 
Q 2894 3584 3203 3211 
Q 3513 2838 3513 2113 
z
" transform="scale(0.015625)"/>
       <path id="DejaVuSans-3" transform="scale(0.015625)"/>
       <path id="DejaVuSans-28" d="M 628 4666 
L 3578 4666 
L 3578 4134 
L 1259 4134 
L 1259 2753 
L 3481 2753 
L 3481 2222 
L 1259 2222 
L 1259 531 
L 3634 531 
L 3634 0 
L 628 0 
L 628 4666 
z
" transform="scale(0.015625)"/>
       <path id="DejaVuSans-55" d="M 2631 2963 
Q 2534 3019 2420 3045 
Q 2306 3072 2169 3072 
Q 1681 3072 1420 2755 
Q 1159 2438 1159 1844 
L 1159 0 
L 581 0 
L 581 3500 
L 1159 3500 
L 1159 2956 
Q 1341 3275 1631 3429 
Q 1922 3584 2338 3584 
Q 2397 3584 2469 3576 
Q 2541 3569 2628 3553 
L 2631 2963 
z
" transform="scale(0.015625)"/>
       <path id="DejaVuSans-3e" d="M 550 4863 
L 1875 4863 
L 1875 4416 
L 1125 4416 
L 1125 -397 
L 1875 -397 
L 1875 -844 
L 550 -844 
L 550 4863 
z
" transform="scale(0.015625)"/>
       <path id="DejaVuSans-50" d="M 3328 2828 
Q 3544 3216 3844 3400 
Q 4144 3584 4550 3584 
Q 5097 3584 5394 3201 
Q 5691 2819 5691 2113 
L 5691 0 
L 5113 0 
L 5113 2094 
Q 5113 2597 4934 2840 
Q 4756 3084 4391 3084 
Q 3944 3084 3684 2787 
Q 3425 2491 3425 1978 
L 3425 0 
L 2847 0 
L 2847 2094 
Q 2847 2600 2669 2842 
Q 2491 3084 2119 3084 
Q 1678 3084 1418 2786 
Q 1159 2488 1159 1978 
L 1159 0 
L 581 0 
L 581 3500 
L 1159 3500 
L 1159 2956 
Q 1356 3278 1631 3431 
Q 1906 3584 2284 3584 
Q 2666 3584 2933 3390 
Q 3200 3197 3328 2828 
z
" transform="scale(0.015625)"/>
       <path id="DejaVuSans-40" d="M 1947 4863 
L 1947 -844 
L 622 -844 
L 622 -397 
L 1369 -397 
L 1369 4416 
L 622 4416 
L 622 4863 
L 1947 4863 
z
" transform="scale(0.015625)"/>
      </defs>
      <use xlink:href="#DejaVuSans-33"/>
      <use xlink:href="#DejaVuSans-52" transform="translate(56.734375 0)"/>
      <use xlink:href="#DejaVuSans-56" transform="translate(117.921875 0)"/>
      <use xlink:href="#DejaVuSans-4c" transform="translate(170.015625 0)"/>
      <use xlink:href="#DejaVuSans-57" transform="translate(197.796875 0)"/>
      <use xlink:href="#DejaVuSans-4c" transform="translate(237 0)"/>
      <use xlink:href="#DejaVuSans-52" transform="translate(264.78125 0)"/>
      <use xlink:href="#DejaVuSans-51" transform="translate(325.96875 0)"/>
      <use xlink:href="#DejaVuSans-3" transform="translate(389.34375 0)"/>
      <use xlink:href="#DejaVuSans-28" transform="translate(421.125 0)"/>
      <use xlink:href="#DejaVuSans-55" transform="translate(484.3125 0)"/>
      <use xlink:href="#DejaVuSans-55" transform="translate(523.671875 0)"/>
      <use xlink:href="#DejaVuSans-52" transform="translate(562.578125 0)"/>
      <use xlink:href="#DejaVuSans-55" transform="translate(623.765625 0)"/>
      <use xlink:href="#DejaVuSans-3" transform="translate(664.875 0)"/>
      <use xlink:href="#DejaVuSans-3e" transform="translate(696.65625 0)"/>
      <use xlink:href="#DejaVuSans-50" transform="translate(735.671875 0)"/>
      <use xlink:href="#DejaVuSans-40" transform="translate(833.078125 0)"/>
     </g>
    </g>
   </g>
   <g id="line2d_15">
    <path d="M 68.581076 182.434064 
L 68.815847 175.328213 
L 69.050618 96.591786 
L 69.754931 144.736281 
L 69.989701 177.244985 
L 70.694014 158.893521 
L 70.928785 150.879287 
L 72.10264 78.312927 
L 72.337411 75.987336 
L 72.806952 29.942694 
L 73.511265 55.205231 
L 73.746036 57.004328 
L 73.980807 52.618432 
L 75.154662 150.827121 
L 75.858974 138.248034 
L 76.328516 102.287945 
L 77.2676 116.261858 
L 77.502371 120.870236 
L 77.737142 161.485204 
L 78.441454 159.496649 
L 79.380538 121.378072 
L 79.615309 122.025719 
L 80.084851 129.41768 
L 80.319622 120.099796 
L 81.493476 85.813718 
L 81.963018 132.659403 
L 82.667331 106.645383 
L 83.371644 87.388864 
L 83.606415 93.643017 
L 84.310727 125.319515 
L 85.01504 123.310667 
L 85.249811 123.384032 
L 85.719353 109.318022 
L 86.188895 110.058063 
L 87.832291 169.805854 
L 88.067062 162.005556 
L 89.006146 182.406912 
L 89.945229 177.64458 
L 90.649542 181.310459 
L 91.353855 172.298609 
L 91.119084 181.908864 
L 91.823397 175.436823 
L 92.292939 181.593357 
L 92.997251 180.748115 
L 93.466793 182.317457 
L 94.640648 170.251967 
L 95.579731 177.099066 
L 95.34496 165.179496 
L 95.814502 174.598598 
L 96.049273 174.621676 
L 98.631753 124.90366 
L 98.866524 128.215985 
L 99.570837 135.569228 
L 100.040379 119.737017 
L 100.744692 126.739774 
L 102.622859 161.918644 
L 103.327172 181.299081 
L 104.501026 175.600907 
L 104.735797 174.524709 
L 104.970568 177.568983 
L 105.674881 181.460514 
L 106.144423 180.199931 
L 106.613964 167.40062 
L 106.848735 156.61438 
L 107.553048 161.862355 
L 108.257361 172.710528 
L 108.726903 168.092666 
L 109.900757 157.343166 
L 110.60507 172.374453 
L 111.309383 179.577392 
L 111.544154 178.578676 
L 111.778925 172.213625 
L 112.248466 180.694868 
L 112.483237 178.652646 
L 113.18755 162.725671 
L 113.891863 145.77698 
L 114.361405 154.89321 
L 114.596176 156.093408 
L 115.065717 169.801572 
L 115.300488 158.44022 
L 115.535259 141.7922 
L 116.239572 155.176732 
L 116.474343 172.914778 
L 117.178656 168.30096 
L 118.822052 154.502187 
L 119.995907 177.014358 
L 120.230678 172.0794 
L 120.700219 178.495817 
L 120.93499 179.098007 
L 122.578387 143.233434 
L 122.813158 143.363371 
L 123.752241 156.69672 
L 123.987012 153.106603 
L 125.395638 162.748806 
L 124.691325 151.260219 
L 125.630409 162.207651 
L 126.334721 159.823389 
L 126.804263 146.547773 
L 127.273805 156.381677 
L 128.682431 176.302111 
L 127.743347 153.508824 
L 129.151972 167.649077 
L 129.386743 167.109652 
L 130.795369 180.40268 
L 129.856285 166.534708 
L 131.03014 180.334376 
L 132.203994 165.477751 
L 133.61262 179.761387 
L 133.847391 174.288662 
L 134.316933 159.815407 
L 134.551703 174.075605 
L 135.490787 178.985119 
L 135.725558 171.87833 
L 136.1951 181.725082 
L 136.429871 179.923505 
L 136.664642 181.1397 
L 136.899413 170.37892 
L 137.134184 181.368117 
L 137.603725 176.155972 
L 137.838496 179.768983 
L 138.073267 176.148679 
L 139.247122 162.163412 
L 139.481893 159.711884 
L 140.186205 181.344063 
L 140.655747 172.950537 
L 141.125289 156.626687 
L 141.594831 165.055934 
L 141.829602 173.53379 
L 142.299144 157.442595 
L 143.472998 133.749628 
L 143.94254 141.096062 
L 145.351166 178.314192 
L 145.585937 173.096221 
L 145.820707 161.422205 
L 146.52502 164.649765 
L 146.994562 165.563248 
L 147.698875 151.211874 
L 147.933646 160.797679 
L 148.168417 162.270264 
L 149.342271 140.32512 
L 149.811813 147.142083 
L 150.046584 136.039666 
L 150.281355 138.518567 
L 150.516126 132.020183 
L 150.750897 130.853869 
L 150.985668 132.507625 
L 151.68998 119.904951 
L 151.924751 134.663014 
L 152.159522 135.73769 
L 153.568148 173.122694 
L 154.037689 171.283193 
L 154.507231 181.095769 
L 154.976773 179.111291 
L 155.446315 169.872406 
L 156.150628 174.767838 
L 157.559253 181.457453 
L 157.794024 181.322956 
L 158.498337 162.0224 
L 158.967879 165.459306 
L 160.141733 178.974771 
L 160.846046 165.884785 
L 161.315588 169.341208 
L 161.550359 181.358588 
L 162.254672 178.342278 
L 162.958984 182.400388 
L 163.428526 172.083506 
L 163.898068 179.374095 
L 164.132839 172.224367 
L 164.36761 165.348988 
L 164.837152 172.376426 
L 165.071923 169.306833 
L 165.306693 176.713234 
L 165.776235 166.188951 
L 166.011006 176.665803 
L 167.654403 141.789863 
L 167.889174 148.778776 
L 168.358715 135.49115 
L 168.593486 143.277065 
L 169.767341 117.796219 
L 170.236883 120.919353 
L 170.471654 119.427792 
L 170.706425 134.130286 
L 171.410737 116.226777 
L 171.645508 114.181787 
L 172.584592 141.718958 
L 172.819363 140.241068 
L 173.993217 112.840503 
L 174.462759 117.080316 
L 176.575697 149.851892 
L 176.810468 149.524333 
L 177.045239 146.279465 
L 177.514781 171.677042 
L 178.219094 164.075841 
L 179.392948 143.637714 
L 179.627719 144.613211 
L 179.86249 157.100286 
L 180.566803 151.741628 
L 181.271116 160.894685 
L 181.505887 155.155879 
L 182.44497 128.153656 
L 182.679741 142.473978 
L 183.384054 157.63805 
L 183.618825 156.032385 
L 184.557909 178.154749 
L 185.02745 176.873561 
L 185.731763 182.406959 
L 185.966534 178.774583 
L 187.37516 155.718194 
L 187.844701 179.351903 
L 188.549014 175.935389 
L 189.253327 180.092886 
L 189.95764 165.945563 
L 191.131494 181.844368 
L 191.366265 180.621528 
L 191.835807 182.399818 
L 192.305349 171.891684 
L 193.009662 181.164625 
L 192.774891 171.633262 
L 193.713974 181.107783 
L 194.418287 168.153511 
L 194.653058 174.771721 
L 194.887829 180.795907 
L 195.1226 175.003108 
L 196.531225 156.056079 
L 197.470309 138.934926 
L 197.235538 156.576532 
L 197.70508 148.651412 
L 198.409393 152.909107 
L 198.644164 149.788777 
L 199.348476 133.621011 
L 199.818018 142.345832 
L 200.522331 155.713981 
L 200.757102 145.019722 
L 201.461415 129.135913 
L 201.930956 132.11175 
L 202.635269 151.920051 
L 202.87004 148.074446 
L 204.043895 126.116155 
L 205.687291 155.495022 
L 205.922062 154.976485 
L 208.269771 100.190141 
L 208.739313 103.737896 
L 208.974084 106.265968 
L 210.147938 124.739017 
L 212.026106 97.945306 
L 212.260877 96.524447 
L 212.965189 110.401971 
L 213.19996 100.448835 
L 214.843357 81.811445 
L 216.017211 107.072886 
L 216.251982 104.340998 
L 216.956295 82.453058 
L 217.425837 82.784131 
L 218.364921 82.631134 
L 218.834462 98.705507 
L 219.304004 120.945083 
L 219.773546 106.937781 
L 220.008317 103.703629 
L 220.243088 112.675073 
L 220.477859 110.909103 
L 220.71263 110.2702 
L 221.886484 121.01947 
L 222.121255 116.657685 
L 222.356026 130.70926 
L 223.29511 149.71968 
L 222.825568 130.353332 
L 223.529881 143.33622 
L 223.764652 136.866661 
L 223.999423 149.242983 
L 225.173277 177.761559 
L 225.408048 177.157291 
L 225.642819 173.474664 
L 225.87759 181.675428 
L 226.112361 175.906826 
L 226.347132 180.193381 
L 227.286215 179.177836 
L 227.990528 169.473416 
L 228.225299 155.73253 
L 228.694841 176.994576 
L 229.633925 179.741725 
L 230.338237 148.049849 
L 230.807779 151.384988 
L 231.746863 180.670934 
L 231.981634 174.171368 
L 232.451175 165.941798 
L 232.685946 175.710019 
L 233.155488 167.798684 
L 233.390259 166.354612 
L 234.329343 182.068839 
L 234.564114 180.926301 
L 235.503197 150.126597 
L 236.20751 152.517276 
L 236.442281 157.999639 
L 236.677052 146.453197 
L 237.381365 147.71815 
L 237.616136 138.57277 
L 239.259532 164.420635 
L 239.963845 145.580671 
L 240.668158 147.154898 
L 241.137699 140.286977 
L 241.37247 143.871702 
L 241.842012 167.889541 
L 242.781096 154.286084 
L 243.250638 130.83833 
L 243.95495 138.822595 
L 244.189721 138.863811 
L 245.128805 149.591936 
L 245.833118 127.645623 
L 246.30266 139.729699 
L 246.53743 141.732441 
L 246.772201 127.335278 
L 247.476514 132.918658 
L 247.711285 132.061786 
L 248.180827 121.867759 
L 248.415598 138.292492 
L 249.824223 161.458639 
L 248.88514 131.385802 
L 250.293765 158.899836 
L 251.702391 140.006303 
L 251.937162 134.998024 
L 252.406703 142.596262 
L 252.641474 146.26542 
L 253.345787 141.700469 
L 254.0501 146.693269 
L 254.989183 115.327948 
L 255.458725 128.226023 
L 255.693496 149.316227 
L 256.63258 144.144719 
L 257.806434 155.220628 
L 258.041205 151.168863 
L 258.275976 159.487465 
L 259.21506 170.439815 
L 260.154144 179.022936 
L 260.388915 179.0033 
L 260.858456 175.761511 
L 261.093227 161.971149 
L 261.79754 170.438226 
L 262.267082 174.245049 
L 262.736624 162.966679 
L 263.910478 180.949943 
L 264.145249 178.040161 
L 264.38002 182.267097 
L 264.614791 171.467535 
L 264.849562 165.223003 
L 265.084333 168.81879 
L 265.319104 181.678812 
L 266.023417 173.237203 
L 266.258187 172.572927 
L 266.492958 173.519387 
L 266.727729 173.443813 
L 266.9625 174.850386 
L 268.605897 144.96656 
L 269.075438 147.034833 
L 270.484064 160.887959 
L 271.188377 155.078344 
L 271.423148 159.102355 
L 272.362231 174.667185 
L 272.597002 172.425849 
L 273.066544 165.39607 
L 273.536086 167.314833 
L 274.70994 180.693875 
L 275.179482 171.048048 
L 275.649024 181.342181 
L 275.883795 176.406464 
L 276.118566 181.964802 
L 276.353337 166.220272 
L 276.822879 178.163241 
L 277.761962 167.267036 
L 277.29242 180.557156 
L 277.996733 169.775606 
L 278.935817 160.8925 
L 279.405359 166.091133 
L 279.64013 165.154989 
L 280.813984 138.19904 
L 281.048755 148.554348 
L 281.518297 139.993708 
L 281.753068 131.247246 
L 281.987839 141.962822 
L 282.22261 152.453902 
L 282.457381 141.692754 
L 282.926922 151.132906 
L 283.161693 144.150249 
L 283.631235 148.979329 
L 285.039861 182.031064 
L 285.509403 172.384405 
L 285.978944 175.811625 
L 286.213715 181.31294 
L 286.918028 175.810176 
L 287.152799 175.481528 
L 289.735279 145.176321 
L 290.204821 155.14852 
L 290.674363 151.377174 
L 291.378675 136.068868 
L 291.613446 143.907982 
L 291.848217 148.744229 
L 292.082988 145.742751 
L 293.726385 95.855326 
L 294.195926 111.147632 
L 294.430697 102.849317 
L 294.665468 92.870688 
L 294.900239 102.878745 
L 295.13501 101.760497 
L 295.369781 110.866192 
L 295.839323 95.252132 
L 296.074094 93.644003 
L 296.308865 84.701717 
L 297.013177 95.96076 
L 298.891345 151.609711 
L 299.126116 143.676444 
L 299.360887 143.538869 
L 300.29997 124.514864 
L 300.769512 111.813614 
L 301.239054 117.670248 
L 303.586763 146.712684 
L 304.291076 155.210817 
L 305.23016 178.623782 
L 305.46493 173.141094 
L 306.169243 181.02848 
L 306.404014 173.805573 
L 306.638785 173.600384 
L 307.577869 180.568639 
L 307.81264 171.272971 
L 308.516952 176.333086 
L 308.751723 174.032193 
L 308.986494 176.622961 
L 309.221265 175.688902 
L 310.39512 181.430588 
L 311.803745 139.270089 
L 312.038516 139.846 
L 312.508058 138.425251 
L 312.742829 139.203965 
L 312.9776 138.459587 
L 313.212371 133.850643 
L 313.681912 143.318907 
L 313.916683 141.85308 
L 315.090538 153.222599 
L 315.325309 153.005416 
L 315.56008 157.180615 
L 316.029622 152.630435 
L 316.264393 145.7734 
L 316.499163 155.876291 
L 316.733934 155.857489 
L 318.14256 180.392529 
L 317.203476 155.715681 
L 318.377331 178.236432 
L 318.612102 168.316417 
L 319.316414 177.068484 
L 319.551185 182.021443 
L 319.785956 172.078934 
L 320.255498 176.026019 
L 320.490269 170.22263 
L 321.194582 172.865284 
L 322.368436 181.22456 
L 322.603207 182.300013 
L 323.542291 158.383556 
L 324.011833 171.997612 
L 324.246604 181.067662 
L 324.481375 166.731489 
L 324.716146 167.026454 
L 324.950916 165.339321 
L 325.185687 165.491419 
L 325.655229 149.683441 
L 326.359542 151.708986 
L 326.594313 171.408596 
L 327.298626 166.573124 
L 327.768167 158.128969 
L 328.237709 159.075594 
L 328.942022 173.498414 
L 329.176793 166.754971 
L 331.05496 140.546674 
L 330.115877 167.445151 
L 331.289731 142.303693 
L 331.524502 144.004702 
L 331.759273 139.920777 
L 332.228815 131.920142 
L 332.463586 140.879788 
L 332.698357 137.705516 
L 334.341753 175.860409 
L 334.576524 176.351578 
L 337.393775 140.221178 
L 337.628546 160.812748 
L 338.332859 149.829937 
L 338.56763 147.570609 
L 340.211026 181.14628 
L 340.680568 181.012925 
L 341.619652 158.063966 
L 342.089193 164.783684 
L 343.263048 181.197903 
L 343.497819 177.660819 
L 345.610757 152.660123 
L 345.845528 155.098794 
L 346.549841 167.560271 
L 347.019383 159.910319 
L 347.254154 164.258482 
L 347.488924 162.150376 
L 347.958466 148.873989 
L 348.428008 161.793124 
L 348.662779 166.568517 
L 348.89755 160.794642 
L 349.367092 162.441263 
L 349.601863 162.268842 
L 351.010488 141.9753 
L 351.245259 152.785352 
L 351.48003 141.220963 
L 351.949572 145.402958 
L 352.184343 146.271673 
L 353.827739 181.533835 
L 354.06251 173.362918 
L 355.236365 181.124843 
L 358.053616 133.090724 
L 358.992699 146.715991 
L 359.22747 138.156178 
L 359.697012 144.71445 
L 360.166554 138.114153 
L 360.636096 133.12433 
L 360.870867 141.865886 
L 361.105638 141.909261 
L 362.983805 97.429399 
L 365.096743 147.799122 
L 365.566285 137.416685 
L 366.505369 117.99366 
L 366.74014 120.544066 
L 367.913994 162.65663 
L 368.148765 162.473867 
L 368.383536 163.206114 
L 368.853078 156.687176 
L 369.087849 169.637627 
L 369.32262 162.210076 
L 371.670329 180.226307 
L 372.374642 160.569971 
L 372.609412 172.293339 
L 373.313725 182.219109 
L 373.548496 176.620638 
L 374.957122 153.946138 
L 375.191893 160.915245 
L 375.896205 160.124432 
L 378.009144 181.243042 
L 378.713456 159.194372 
L 379.182998 160.561686 
L 379.887311 172.254936 
L 381.061165 148.493717 
L 381.295936 144.739026 
L 381.530707 149.541021 
L 382.23502 145.648026 
L 382.939333 139.414944 
L 383.174104 144.650808 
L 383.643646 155.546088 
L 384.347958 151.941696 
L 384.582729 151.493379 
L 385.287042 134.540531 
L 385.521813 136.485259 
L 385.756584 148.976573 
L 386.460897 135.946832 
L 387.39998 113.561687 
L 387.869522 116.646349 
L 388.808606 144.867803 
L 389.043377 138.937891 
L 389.278148 130.525397 
L 389.747689 140.826807 
L 389.98246 140.236302 
L 390.217231 141.351544 
L 390.452002 138.880297 
L 393.269253 95.7029 
L 393.504024 99.926872 
L 394.443108 105.786248 
L 394.91265 105.866744 
L 395.616962 90.656337 
L 395.851733 99.121451 
L 396.556046 94.846454 
L 396.790817 91.334358 
L 398.199442 115.566108 
L 398.668984 112.269607 
L 402.425319 181.521795 
L 402.894861 173.330545 
L 403.364402 174.293025 
L 403.833944 177.67131 
L 404.068715 172.242092 
L 404.773028 146.718088 
L 405.24257 147.58962 
L 405.712112 143.294873 
L 406.181653 160.970353 
L 406.651195 141.301412 
L 407.120737 146.200999 
L 408.529363 163.533498 
L 408.764134 161.949953 
L 409.233675 152.849665 
L 409.703217 163.615483 
L 409.937988 168.89167 
L 410.40753 165.494373 
L 410.877072 136.210599 
L 411.581385 149.209324 
L 412.285697 139.053008 
L 412.520468 144.776997 
L 412.755239 160.129007 
L 413.459552 156.298461 
L 414.163865 148.377752 
L 414.868177 171.730084 
L 415.102948 159.890841 
L 415.337719 159.781068 
L 415.57249 172.173764 
L 416.042032 151.98964 
L 416.276803 153.678941 
L 416.511574 146.518182 
L 416.746345 153.862785 
L 417.215887 151.368141 
L 418.389741 172.521738 
L 418.859283 154.484432 
L 419.094054 169.157165 
L 420.502679 182.062449 
L 423.085159 145.42154 
L 423.789472 158.524728 
L 424.024243 149.174077 
L 425.198098 138.808807 
L 428.25012 181.732263 
L 429.658745 160.841332 
L 429.893516 165.349618 
L 430.8326 181.695111 
L 431.067371 179.082119 
L 431.536912 155.02744 
L 432.475996 155.201691 
L 432.710767 148.643589 
L 433.180309 157.343872 
L 434.119393 182.319575 
L 434.588934 172.98138 
L 435.058476 181.232599 
L 435.99756 180.592271 
L 436.467102 181.46407 
L 438.110498 157.889216 
L 439.519124 132.526211 
L 439.753894 132.879301 
L 440.458207 155.661507 
L 440.692978 148.267392 
L 441.397291 130.230663 
L 441.866833 134.49045 
L 442.336375 136.821666 
L 442.571145 132.097843 
L 443.275458 135.726047 
L 443.510229 135.076207 
L 443.745 135.663573 
L 444.214542 142.858279 
L 444.449313 134.690531 
L 444.918855 141.134977 
L 445.153626 137.253499 
L 445.623167 137.757632 
L 446.562251 166.684143 
L 447.031793 158.403427 
L 447.501335 148.337676 
L 447.736106 155.110061 
L 447.970877 163.251974 
L 448.205647 153.653316 
L 449.144731 133.458435 
L 449.379502 140.63823 
L 449.614273 148.165962 
L 449.849044 138.572008 
L 450.083815 141.15755 
L 451.022898 135.31194 
L 451.49244 147.662488 
L 451.727211 136.259741 
L 451.961982 133.075361 
L 452.196753 143.452618 
L 453.370608 174.082103 
L 453.840149 170.531942 
L 455.483546 140.704394 
L 455.953088 158.56866 
L 456.42263 155.855401 
L 457.596484 129.937183 
L 457.831255 131.904442 
L 458.066026 125.348847 
L 458.770339 131.112549 
L 461.352819 166.371694 
L 461.822361 160.171165 
L 462.057132 156.356121 
L 462.526673 162.632657 
L 462.761444 163.680102 
L 463.465757 138.344022 
L 463.935299 147.268805 
L 464.874383 147.07674 
L 465.343924 162.663193 
L 465.578695 150.161729 
L 466.048237 168.330611 
L 466.283008 170.325282 
L 467.222092 137.399373 
L 467.926404 140.666655 
L 468.395946 147.73717 
L 468.630717 136.943405 
L 469.33503 145.951096 
L 470.743655 161.252898 
L 471.447968 166.305606 
L 472.387052 154.255029 
L 472.621823 160.301275 
L 472.856594 174.696137 
L 473.560906 172.064839 
L 475.439074 152.103667 
L 475.673845 155.319155 
L 476.847699 171.042225 
L 477.08247 161.476679 
L 477.552012 166.432481 
L 478.256325 179.778421 
L 478.491096 179.017797 
L 479.66495 161.913921 
L 480.604034 148.110583 
L 481.073576 149.892496 
L 482.716972 182.310456 
L 483.421285 182.248471 
L 483.656056 173.829932 
L 484.360369 174.192958 
L 484.595139 180.393447 
L 484.82991 170.007574 
L 485.299452 158.525446 
L 485.534223 160.379704 
L 486.003765 180.361758 
L 486.473307 170.787996 
L 486.708078 163.117016 
L 487.17762 169.750955 
L 487.647161 179.697875 
L 488.116703 177.067922 
L 489.290558 164.381258 
L 489.7601 179.287734 
L 490.699183 173.579184 
L 491.403496 178.068687 
L 491.638267 181.95832 
L 492.34258 181.889871 
L 493.516434 142.827118 
L 493.751205 145.043522 
L 493.985976 143.637874 
L 494.220747 144.458462 
L 495.159831 161.225677 
L 495.629373 151.023987 
L 496.803227 115.842898 
L 497.037998 127.490103 
L 498.916165 156.830729 
L 499.385707 146.966075 
L 499.620478 139.590787 
L 500.09002 143.468858 
L 501.029104 156.436012 
L 501.498645 140.531327 
L 501.968187 152.337985 
L 502.6725 149.239477 
L 503.376813 168.219022 
L 503.611584 158.211365 
L 503.846355 154.16546 
L 504.315896 163.265626 
L 505.25498 152.241677 
L 505.724522 138.11967 
L 506.428835 144.623874 
L 507.83746 179.153893 
L 508.307002 169.946215 
L 508.541773 170.253719 
L 508.776544 179.850297 
L 509.246086 170.348986 
L 509.715628 151.614405 
L 510.654711 152.566755 
L 511.593795 175.780289 
L 511.828566 174.741928 
L 512.298108 156.440833 
L 513.00242 159.825928 
L 513.471962 168.386823 
L 513.706733 180.407756 
L 514.411046 178.270953 
L 514.880588 166.068962 
L 515.35013 176.847088 
L 515.5849 181.100851 
L 516.054442 172.316443 
L 516.289213 173.79804 
L 517.228297 158.766234 
L 517.463068 162.481418 
L 517.697839 165.167749 
L 517.93261 149.86885 
L 518.636922 166.570332 
L 519.576006 181.487811 
L 519.810777 180.085244 
L 520.280319 180.577821 
L 520.51509 174.930831 
L 522.628028 151.067685 
L 522.862799 154.395833 
L 523.09757 154.134893 
L 523.332341 161.527054 
L 523.801882 156.203101 
L 524.271424 130.633424 
L 524.975737 131.179465 
L 525.210508 131.189954 
L 525.68005 132.685961 
L 525.914821 126.666639 
L 526.619133 139.269589 
L 527.088675 138.09653 
L 527.323446 132.394674 
L 527.792988 143.862158 
L 528.027759 139.282626 
L 528.26253 139.656608 
L 528.497301 142.536534 
L 528.732072 137.462976 
L 529.671155 122.124842 
L 529.905926 123.554089 
L 531.079781 144.232365 
L 531.314552 142.527429 
L 532.723177 120.022842 
L 534.836116 159.897993 
L 535.305657 154.666198 
L 535.540428 147.557781 
L 536.00997 158.250209 
L 536.479512 154.37529 
L 537.888137 179.987712 
L 538.122908 174.903094 
" clip-path="url(#pb2fa20deb4)" style="fill: none; stroke: #e41a1c; stroke-width: 2; stroke-linecap: square"/>
   </g>
   <g id="patch_3">
    <path d="M 45.103984 190.058633 
L 45.103984 22.318125 
" style="fill: none; stroke: #7f7f7f; stroke-width: 1.8; stroke-linejoin: miter; stroke-linecap: square"/>
   </g>
   <g id="patch_4">
    <path d="M 45.103984 190.058633 
L 561.6 190.058633 
" style="fill: none; stroke: #7f7f7f; stroke-width: 1.8; stroke-linejoin: miter; stroke-linecap: square"/>
   </g>
   <g id="text_16">
    <!-- Kalman Filter Estimation Error -->
    <g style="fill: #7f7f7f" transform="translate(200.338555 16.318125) scale(0.12 -0.12)">
     <defs>
      <path id="DejaVuSans-Bold-2e" d="M 588 4666 
L 1791 4666 
L 1791 2963 
L 3525 4666 
L 4922 4666 
L 2675 2456 
L 5153 0 
L 3647 0 
L 1791 1838 
L 1791 0 
L 588 0 
L 588 4666 
z
" transform="scale(0.015625)"/>
      <path id="DejaVuSans-Bold-44" d="M 2106 1575 
Q 1756 1575 1579 1456 
Q 1403 1338 1403 1106 
Q 1403 894 1545 773 
Q 1688 653 1941 653 
Q 2256 653 2472 879 
Q 2688 1106 2688 1447 
L 2688 1575 
L 2106 1575 
z
M 3816 1997 
L 3816 0 
L 2688 0 
L 2688 519 
Q 2463 200 2181 54 
Q 1900 -91 1497 -91 
Q 953 -91 614 226 
Q 275 544 275 1050 
Q 275 1666 698 1953 
Q 1122 2241 2028 2241 
L 2688 2241 
L 2688 2328 
Q 2688 2594 2478 2717 
Q 2269 2841 1825 2841 
Q 1466 2841 1156 2769 
Q 847 2697 581 2553 
L 581 3406 
Q 941 3494 1303 3539 
Q 1666 3584 2028 3584 
Q 2975 3584 3395 3211 
Q 3816 2838 3816 1997 
z
" transform="scale(0.015625)"/>
      <path id="DejaVuSans-Bold-4f" d="M 538 4863 
L 1656 4863 
L 1656 0 
L 538 0 
L 538 4863 
z
" transform="scale(0.015625)"/>
      <path id="DejaVuSans-Bold-50" d="M 3781 2919 
Q 3994 3244 4286 3414 
Q 4578 3584 4928 3584 
Q 5531 3584 5847 3212 
Q 6163 2841 6163 2131 
L 6163 0 
L 5038 0 
L 5038 1825 
Q 5041 1866 5042 1909 
Q 5044 1953 5044 2034 
Q 5044 2406 4934 2573 
Q 4825 2741 4581 2741 
Q 4263 2741 4089 2478 
Q 3916 2216 3909 1719 
L 3909 0 
L 2784 0 
L 2784 1825 
Q 2784 2406 2684 2573 
Q 2584 2741 2328 2741 
Q 2006 2741 1831 2477 
Q 1656 2213 1656 1722 
L 1656 0 
L 531 0 
L 531 3500 
L 1656 3500 
L 1656 2988 
Q 1863 3284 2130 3434 
Q 2397 3584 2719 3584 
Q 3081 3584 3359 3409 
Q 3638 3234 3781 2919 
z
" transform="scale(0.015625)"/>
      <path id="DejaVuSans-Bold-51" d="M 4056 2131 
L 4056 0 
L 2931 0 
L 2931 347 
L 2931 1631 
Q 2931 2084 2911 2256 
Q 2891 2428 2841 2509 
Q 2775 2619 2662 2680 
Q 2550 2741 2406 2741 
Q 2056 2741 1856 2470 
Q 1656 2200 1656 1722 
L 1656 0 
L 538 0 
L 538 3500 
L 1656 3500 
L 1656 2988 
Q 1909 3294 2193 3439 
Q 2478 3584 2822 3584 
Q 3428 3584 3742 3212 
Q 4056 2841 4056 2131 
z
" transform="scale(0.015625)"/>
      <path id="DejaVuSans-Bold-3" transform="scale(0.015625)"/>
      <path id="DejaVuSans-Bold-29" d="M 588 4666 
L 3834 4666 
L 3834 3756 
L 1791 3756 
L 1791 2888 
L 3713 2888 
L 3713 1978 
L 1791 1978 
L 1791 0 
L 588 0 
L 588 4666 
z
" transform="scale(0.015625)"/>
      <path id="DejaVuSans-Bold-4c" d="M 538 3500 
L 1656 3500 
L 1656 0 
L 538 0 
L 538 3500 
z
M 538 4863 
L 1656 4863 
L 1656 3950 
L 538 3950 
L 538 4863 
z
" transform="scale(0.015625)"/>
      <path id="DejaVuSans-Bold-57" d="M 1759 4494 
L 1759 3500 
L 2913 3500 
L 2913 2700 
L 1759 2700 
L 1759 1216 
Q 1759 972 1856 886 
Q 1953 800 2241 800 
L 2816 800 
L 2816 0 
L 1856 0 
Q 1194 0 917 276 
Q 641 553 641 1216 
L 641 2700 
L 84 2700 
L 84 3500 
L 641 3500 
L 641 4494 
L 1759 4494 
z
" transform="scale(0.015625)"/>
      <path id="DejaVuSans-Bold-48" d="M 4031 1759 
L 4031 1441 
L 1416 1441 
Q 1456 1047 1700 850 
Q 1944 653 2381 653 
Q 2734 653 3104 758 
Q 3475 863 3866 1075 
L 3866 213 
Q 3469 63 3072 -14 
Q 2675 -91 2278 -91 
Q 1328 -91 801 392 
Q 275 875 275 1747 
Q 275 2603 792 3093 
Q 1309 3584 2216 3584 
Q 3041 3584 3536 3087 
Q 4031 2591 4031 1759 
z
M 2881 2131 
Q 2881 2450 2695 2645 
Q 2509 2841 2209 2841 
Q 1884 2841 1681 2658 
Q 1478 2475 1428 2131 
L 2881 2131 
z
" transform="scale(0.015625)"/>
      <path id="DejaVuSans-Bold-55" d="M 3138 2547 
Q 2991 2616 2845 2648 
Q 2700 2681 2553 2681 
Q 2122 2681 1889 2404 
Q 1656 2128 1656 1613 
L 1656 0 
L 538 0 
L 538 3500 
L 1656 3500 
L 1656 2925 
Q 1872 3269 2151 3426 
Q 2431 3584 2822 3584 
Q 2878 3584 2943 3579 
Q 3009 3575 3134 3559 
L 3138 2547 
z
" transform="scale(0.015625)"/>
      <path id="DejaVuSans-Bold-28" d="M 588 4666 
L 3834 4666 
L 3834 3756 
L 1791 3756 
L 1791 2888 
L 3713 2888 
L 3713 1978 
L 1791 1978 
L 1791 909 
L 3903 909 
L 3903 0 
L 588 0 
L 588 4666 
z
" transform="scale(0.015625)"/>
      <path id="DejaVuSans-Bold-56" d="M 3272 3391 
L 3272 2541 
Q 2913 2691 2578 2766 
Q 2244 2841 1947 2841 
Q 1628 2841 1473 2761 
Q 1319 2681 1319 2516 
Q 1319 2381 1436 2309 
Q 1553 2238 1856 2203 
L 2053 2175 
Q 2913 2066 3209 1816 
Q 3506 1566 3506 1031 
Q 3506 472 3093 190 
Q 2681 -91 1863 -91 
Q 1516 -91 1145 -36 
Q 775 19 384 128 
L 384 978 
Q 719 816 1070 734 
Q 1422 653 1784 653 
Q 2113 653 2278 743 
Q 2444 834 2444 1013 
Q 2444 1163 2330 1236 
Q 2216 1309 1875 1350 
L 1678 1375 
Q 931 1469 631 1722 
Q 331 1975 331 2491 
Q 331 3047 712 3315 
Q 1094 3584 1881 3584 
Q 2191 3584 2531 3537 
Q 2872 3491 3272 3391 
z
" transform="scale(0.015625)"/>
      <path id="DejaVuSans-Bold-52" d="M 2203 2784 
Q 1831 2784 1636 2517 
Q 1441 2250 1441 1747 
Q 1441 1244 1636 976 
Q 1831 709 2203 709 
Q 2569 709 2762 976 
Q 2956 1244 2956 1747 
Q 2956 2250 2762 2517 
Q 2569 2784 2203 2784 
z
M 2203 3584 
Q 3106 3584 3614 3096 
Q 4122 2609 4122 1747 
Q 4122 884 3614 396 
Q 3106 -91 2203 -91 
Q 1297 -91 786 396 
Q 275 884 275 1747 
Q 275 2609 786 3096 
Q 1297 3584 2203 3584 
z
" transform="scale(0.015625)"/>
     </defs>
     <use xlink:href="#DejaVuSans-Bold-2e"/>
     <use xlink:href="#DejaVuSans-Bold-44" transform="translate(77.484375 0)"/>
     <use xlink:href="#DejaVuSans-Bold-4f" transform="translate(144.96875 0)"/>
     <use xlink:href="#DejaVuSans-Bold-50" transform="translate(179.25 0)"/>
     <use xlink:href="#DejaVuSans-Bold-44" transform="translate(283.453125 0)"/>
     <use xlink:href="#DejaVuSans-Bold-51" transform="translate(350.9375 0)"/>
     <use xlink:href="#DejaVuSans-Bold-3" transform="translate(422.125 0)"/>
     <use xlink:href="#DejaVuSans-Bold-29" transform="translate(456.9375 0)"/>
     <use xlink:href="#DejaVuSans-Bold-4c" transform="translate(525.25 0)"/>
     <use xlink:href="#DejaVuSans-Bold-4f" transform="translate(559.53125 0)"/>
     <use xlink:href="#DejaVuSans-Bold-57" transform="translate(593.8125 0)"/>
     <use xlink:href="#DejaVuSans-Bold-48" transform="translate(641.609375 0)"/>
     <use xlink:href="#DejaVuSans-Bold-55" transform="translate(709.4375 0)"/>
     <use xlink:href="#DejaVuSans-Bold-3" transform="translate(758.75 0)"/>
     <use xlink:href="#DejaVuSans-Bold-28" transform="translate(793.5625 0)"/>
     <use xlink:href="#DejaVuSans-Bold-56" transform="translate(861.875 0)"/>
     <use xlink:href="#DejaVuSans-Bold-57" transform="translate(921.390625 0)"/>
     <use xlink:href="#DejaVuSans-Bold-4c" transform="translate(969.1875 0)"/>
     <use xlink:href="#DejaVuSans-Bold-50" transform="translate(1003.46875 0)"/>
     <use xlink:href="#DejaVuSans-Bold-44" transform="translate(1107.671875 0)"/>
     <use xlink:href="#DejaVuSans-Bold-57" transform="translate(1175.15625 0)"/>
     <use xlink:href="#DejaVuSans-Bold-4c" transform="translate(1222.953125 0)"/>
     <use xlink:href="#DejaVuSans-Bold-52" transform="translate(1257.234375 0)"/>
     <use xlink:href="#DejaVuSans-Bold-51" transform="translate(1325.9375 0)"/>
     <use xlink:href="#DejaVuSans-Bold-3" transform="translate(1397.125 0)"/>
     <use xlink:href="#DejaVuSans-Bold-28" transform="translate(1431.9375 0)"/>
     <use xlink:href="#DejaVuSans-Bold-55" transform="translate(1500.25 0)"/>
     <use xlink:href="#DejaVuSans-Bold-55" transform="translate(1549.5625 0)"/>
     <use xlink:href="#DejaVuSans-Bold-52" transform="translate(1598.875 0)"/>
     <use xlink:href="#DejaVuSans-Bold-55" transform="translate(1667.578125 0)"/>
    </g>
   </g>
  </g>
  <g id="axes_2">
   <g id="patch_5">
    <path d="M 45.103984 385.599141 
L 561.6 385.599141 
L 561.6 217.858633 
L 45.103984 217.858633 
L 45.103984 385.599141 
z
" style="fill: none"/>
   </g>
   <g id="matplotlib.axis_3">
    <g id="xtick_10">
     <g id="line2d_16">
      <g>
       <use xlink:href="#m7623588f64" x="68.581076" y="385.599141" style="fill: #7f7f7f; stroke: #7f7f7f; stroke-width: 1.8"/>
      </g>
     </g>
     <g id="text_17">
      <!-- 0.0 -->
      <g style="fill: #7f7f7f" transform="translate(60.629513 400.196797) scale(0.1 -0.1)">
       <use xlink:href="#DejaVuSans-13"/>
       <use xlink:href="#DejaVuSans-11" transform="translate(63.625 0)"/>
       <use xlink:href="#DejaVuSans-13" transform="translate(95.40625 0)"/>
      </g>
     </g>
    </g>
    <g id="xtick_11">
     <g id="line2d_17">
      <g>
       <use xlink:href="#m7623588f64" x="127.273805" y="385.599141" style="fill: #7f7f7f; stroke: #7f7f7f; stroke-width: 1.8"/>
      </g>
     </g>
     <g id="text_18">
      <!-- 2.5 -->
      <g style="fill: #7f7f7f" transform="translate(119.322243 400.196797) scale(0.1 -0.1)">
       <use xlink:href="#DejaVuSans-15"/>
       <use xlink:href="#DejaVuSans-11" transform="translate(63.625 0)"/>
       <use xlink:href="#DejaVuSans-18" transform="translate(95.40625 0)"/>
      </g>
     </g>
    </g>
    <g id="xtick_12">
     <g id="line2d_18">
      <g>
       <use xlink:href="#m7623588f64" x="185.966534" y="385.599141" style="fill: #7f7f7f; stroke: #7f7f7f; stroke-width: 1.8"/>
      </g>
     </g>
     <g id="text_19">
      <!-- 5.0 -->
      <g style="fill: #7f7f7f" transform="translate(178.014972 400.196797) scale(0.1 -0.1)">
       <use xlink:href="#DejaVuSans-18"/>
       <use xlink:href="#DejaVuSans-11" transform="translate(63.625 0)"/>
       <use xlink:href="#DejaVuSans-13" transform="translate(95.40625 0)"/>
      </g>
     </g>
    </g>
    <g id="xtick_13">
     <g id="line2d_19">
      <g>
       <use xlink:href="#m7623588f64" x="244.659263" y="385.599141" style="fill: #7f7f7f; stroke: #7f7f7f; stroke-width: 1.8"/>
      </g>
     </g>
     <g id="text_20">
      <!-- 7.5 -->
      <g style="fill: #7f7f7f" transform="translate(236.707701 400.196797) scale(0.1 -0.1)">
       <use xlink:href="#DejaVuSans-1a"/>
       <use xlink:href="#DejaVuSans-11" transform="translate(63.625 0)"/>
       <use xlink:href="#DejaVuSans-18" transform="translate(95.40625 0)"/>
      </g>
     </g>
    </g>
    <g id="xtick_14">
     <g id="line2d_20">
      <g>
       <use xlink:href="#m7623588f64" x="303.351992" y="385.599141" style="fill: #7f7f7f; stroke: #7f7f7f; stroke-width: 1.8"/>
      </g>
     </g>
     <g id="text_21">
      <!-- 10.0 -->
      <g style="fill: #7f7f7f" transform="translate(292.21918 400.196797) scale(0.1 -0.1)">
       <use xlink:href="#DejaVuSans-14"/>
       <use xlink:href="#DejaVuSans-13" transform="translate(63.625 0)"/>
       <use xlink:href="#DejaVuSans-11" transform="translate(127.25 0)"/>
       <use xlink:href="#DejaVuSans-13" transform="translate(159.03125 0)"/>
      </g>
     </g>
    </g>
    <g id="xtick_15">
     <g id="line2d_21">
      <g>
       <use xlink:href="#m7623588f64" x="362.044721" y="385.599141" style="fill: #7f7f7f; stroke: #7f7f7f; stroke-width: 1.8"/>
      </g>
     </g>
     <g id="text_22">
      <!-- 12.5 -->
      <g style="fill: #7f7f7f" transform="translate(350.911909 400.196797) scale(0.1 -0.1)">
       <use xlink:href="#DejaVuSans-14"/>
       <use xlink:href="#DejaVuSans-15" transform="translate(63.625 0)"/>
       <use xlink:href="#DejaVuSans-11" transform="translate(127.25 0)"/>
       <use xlink:href="#DejaVuSans-18" transform="translate(159.03125 0)"/>
      </g>
     </g>
    </g>
    <g id="xtick_16">
     <g id="line2d_22">
      <g>
       <use xlink:href="#m7623588f64" x="420.73745" y="385.599141" style="fill: #7f7f7f; stroke: #7f7f7f; stroke-width: 1.8"/>
      </g>
     </g>
     <g id="text_23">
      <!-- 15.0 -->
      <g style="fill: #7f7f7f" transform="translate(409.604638 400.196797) scale(0.1 -0.1)">
       <use xlink:href="#DejaVuSans-14"/>
       <use xlink:href="#DejaVuSans-18" transform="translate(63.625 0)"/>
       <use xlink:href="#DejaVuSans-11" transform="translate(127.25 0)"/>
       <use xlink:href="#DejaVuSans-13" transform="translate(159.03125 0)"/>
      </g>
     </g>
    </g>
    <g id="xtick_17">
     <g id="line2d_23">
      <g>
       <use xlink:href="#m7623588f64" x="479.430179" y="385.599141" style="fill: #7f7f7f; stroke: #7f7f7f; stroke-width: 1.8"/>
      </g>
     </g>
     <g id="text_24">
      <!-- 17.5 -->
      <g style="fill: #7f7f7f" transform="translate(468.297367 400.196797) scale(0.1 -0.1)">
       <use xlink:href="#DejaVuSans-14"/>
       <use xlink:href="#DejaVuSans-1a" transform="translate(63.625 0)"/>
       <use xlink:href="#DejaVuSans-11" transform="translate(127.25 0)"/>
       <use xlink:href="#DejaVuSans-18" transform="translate(159.03125 0)"/>
      </g>
     </g>
    </g>
    <g id="xtick_18">
     <g id="line2d_24">
      <g>
       <use xlink:href="#m7623588f64" x="538.122908" y="385.599141" style="fill: #7f7f7f; stroke: #7f7f7f; stroke-width: 1.8"/>
      </g>
     </g>
     <g id="text_25">
      <!-- 20.0 -->
      <g style="fill: #7f7f7f" transform="translate(526.990096 400.196797) scale(0.1 -0.1)">
       <use xlink:href="#DejaVuSans-15"/>
       <use xlink:href="#DejaVuSans-13" transform="translate(63.625 0)"/>
       <use xlink:href="#DejaVuSans-11" transform="translate(127.25 0)"/>
       <use xlink:href="#DejaVuSans-13" transform="translate(159.03125 0)"/>
      </g>
     </g>
    </g>
    <g id="text_26">
     <!-- Time [s] -->
     <g style="fill: #7f7f7f" transform="translate(280.987617 414.957422) scale(0.11 -0.11)">
      <defs>
       <path id="DejaVuSans-37" d="M -19 4666 
L 3928 4666 
L 3928 4134 
L 2272 4134 
L 2272 0 
L 1638 0 
L 1638 4134 
L -19 4134 
L -19 4666 
z
" transform="scale(0.015625)"/>
       <path id="DejaVuSans-48" d="M 3597 1894 
L 3597 1613 
L 953 1613 
Q 991 1019 1311 708 
Q 1631 397 2203 397 
Q 2534 397 2845 478 
Q 3156 559 3463 722 
L 3463 178 
Q 3153 47 2828 -22 
Q 2503 -91 2169 -91 
Q 1331 -91 842 396 
Q 353 884 353 1716 
Q 353 2575 817 3079 
Q 1281 3584 2069 3584 
Q 2775 3584 3186 3129 
Q 3597 2675 3597 1894 
z
M 3022 2063 
Q 3016 2534 2758 2815 
Q 2500 3097 2075 3097 
Q 1594 3097 1305 2825 
Q 1016 2553 972 2059 
L 3022 2063 
z
" transform="scale(0.015625)"/>
      </defs>
      <use xlink:href="#DejaVuSans-37"/>
      <use xlink:href="#DejaVuSans-4c" transform="translate(58 0)"/>
      <use xlink:href="#DejaVuSans-50" transform="translate(85.78125 0)"/>
      <use xlink:href="#DejaVuSans-48" transform="translate(183.1875 0)"/>
      <use xlink:href="#DejaVuSans-3" transform="translate(244.71875 0)"/>
      <use xlink:href="#DejaVuSans-3e" transform="translate(276.5 0)"/>
      <use xlink:href="#DejaVuSans-56" transform="translate(315.515625 0)"/>
      <use xlink:href="#DejaVuSans-40" transform="translate(367.609375 0)"/>
     </g>
    </g>
   </g>
   <g id="matplotlib.axis_4">
    <g id="ytick_6">
     <g id="line2d_25">
      <g>
       <use xlink:href="#meb6ac77b6e" x="45.103984" y="377.97568" style="fill: #7f7f7f; stroke: #7f7f7f; stroke-width: 1.8"/>
      </g>
     </g>
     <g id="text_27">
      <!-- 0.0 -->
      <g style="fill: #7f7f7f" transform="translate(22.200859 381.774508) scale(0.1 -0.1)">
       <use xlink:href="#DejaVuSans-13"/>
       <use xlink:href="#DejaVuSans-11" transform="translate(63.625 0)"/>
       <use xlink:href="#DejaVuSans-13" transform="translate(95.40625 0)"/>
      </g>
     </g>
    </g>
    <g id="ytick_7">
     <g id="line2d_26">
      <g>
       <use xlink:href="#meb6ac77b6e" x="45.103984" y="344.884012" style="fill: #7f7f7f; stroke: #7f7f7f; stroke-width: 1.8"/>
      </g>
     </g>
     <g id="text_28">
      <!-- 0.5 -->
      <g style="fill: #7f7f7f" transform="translate(22.200859 348.68284) scale(0.1 -0.1)">
       <use xlink:href="#DejaVuSans-13"/>
       <use xlink:href="#DejaVuSans-11" transform="translate(63.625 0)"/>
       <use xlink:href="#DejaVuSans-18" transform="translate(95.40625 0)"/>
      </g>
     </g>
    </g>
    <g id="ytick_8">
     <g id="line2d_27">
      <g>
       <use xlink:href="#meb6ac77b6e" x="45.103984" y="311.792344" style="fill: #7f7f7f; stroke: #7f7f7f; stroke-width: 1.8"/>
      </g>
     </g>
     <g id="text_29">
      <!-- 1.0 -->
      <g style="fill: #7f7f7f" transform="translate(22.200859 315.591172) scale(0.1 -0.1)">
       <use xlink:href="#DejaVuSans-14"/>
       <use xlink:href="#DejaVuSans-11" transform="translate(63.625 0)"/>
       <use xlink:href="#DejaVuSans-13" transform="translate(95.40625 0)"/>
      </g>
     </g>
    </g>
    <g id="ytick_9">
     <g id="line2d_28">
      <g>
       <use xlink:href="#meb6ac77b6e" x="45.103984" y="278.700676" style="fill: #7f7f7f; stroke: #7f7f7f; stroke-width: 1.8"/>
      </g>
     </g>
     <g id="text_30">
      <!-- 1.5 -->
      <g style="fill: #7f7f7f" transform="translate(22.200859 282.499505) scale(0.1 -0.1)">
       <use xlink:href="#DejaVuSans-14"/>
       <use xlink:href="#DejaVuSans-11" transform="translate(63.625 0)"/>
       <use xlink:href="#DejaVuSans-18" transform="translate(95.40625 0)"/>
      </g>
     </g>
    </g>
    <g id="ytick_10">
     <g id="line2d_29">
      <g>
       <use xlink:href="#meb6ac77b6e" x="45.103984" y="245.609009" style="fill: #7f7f7f; stroke: #7f7f7f; stroke-width: 1.8"/>
      </g>
     </g>
     <g id="text_31">
      <!-- 2.0 -->
      <g style="fill: #7f7f7f" transform="translate(22.200859 249.407837) scale(0.1 -0.1)">
       <use xlink:href="#DejaVuSans-15"/>
       <use xlink:href="#DejaVuSans-11" transform="translate(63.625 0)"/>
       <use xlink:href="#DejaVuSans-13" transform="translate(95.40625 0)"/>
      </g>
     </g>
    </g>
    <g id="text_32">
     <!-- Velocity Error [m/s] -->
     <g style="fill: #7f7f7f" transform="translate(15.558281 354.574434) rotate(-90) scale(0.11 -0.11)">
      <defs>
       <path id="DejaVuSans-39" d="M 1831 0 
L 50 4666 
L 709 4666 
L 2188 738 
L 3669 4666 
L 4325 4666 
L 2547 0 
L 1831 0 
z
" transform="scale(0.015625)"/>
       <path id="DejaVuSans-4f" d="M 603 4863 
L 1178 4863 
L 1178 0 
L 603 0 
L 603 4863 
z
" transform="scale(0.015625)"/>
       <path id="DejaVuSans-46" d="M 3122 3366 
L 3122 2828 
Q 2878 2963 2633 3030 
Q 2388 3097 2138 3097 
Q 1578 3097 1268 2742 
Q 959 2388 959 1747 
Q 959 1106 1268 751 
Q 1578 397 2138 397 
Q 2388 397 2633 464 
Q 2878 531 3122 666 
L 3122 134 
Q 2881 22 2623 -34 
Q 2366 -91 2075 -91 
Q 1284 -91 818 406 
Q 353 903 353 1747 
Q 353 2603 823 3093 
Q 1294 3584 2113 3584 
Q 2378 3584 2631 3529 
Q 2884 3475 3122 3366 
z
" transform="scale(0.015625)"/>
       <path id="DejaVuSans-5c" d="M 2059 -325 
Q 1816 -950 1584 -1140 
Q 1353 -1331 966 -1331 
L 506 -1331 
L 506 -850 
L 844 -850 
Q 1081 -850 1212 -737 
Q 1344 -625 1503 -206 
L 1606 56 
L 191 3500 
L 800 3500 
L 1894 763 
L 2988 3500 
L 3597 3500 
L 2059 -325 
z
" transform="scale(0.015625)"/>
       <path id="DejaVuSans-12" d="M 1625 4666 
L 2156 4666 
L 531 -594 
L 0 -594 
L 1625 4666 
z
" transform="scale(0.015625)"/>
      </defs>
      <use xlink:href="#DejaVuSans-39"/>
      <use xlink:href="#DejaVuSans-48" transform="translate(60.640625 0)"/>
      <use xlink:href="#DejaVuSans-4f" transform="translate(122.171875 0)"/>
      <use xlink:href="#DejaVuSans-52" transform="translate(149.953125 0)"/>
      <use xlink:href="#DejaVuSans-46" transform="translate(211.140625 0)"/>
      <use xlink:href="#DejaVuSans-4c" transform="translate(266.125 0)"/>
      <use xlink:href="#DejaVuSans-57" transform="translate(293.90625 0)"/>
      <use xlink:href="#DejaVuSans-5c" transform="translate(333.109375 0)"/>
      <use xlink:href="#DejaVuSans-3" transform="translate(392.296875 0)"/>
      <use xlink:href="#DejaVuSans-28" transform="translate(424.078125 0)"/>
      <use xlink:href="#DejaVuSans-55" transform="translate(487.265625 0)"/>
      <use xlink:href="#DejaVuSans-55" transform="translate(526.625 0)"/>
      <use xlink:href="#DejaVuSans-52" transform="translate(565.53125 0)"/>
      <use xlink:href="#DejaVuSans-55" transform="translate(626.71875 0)"/>
      <use xlink:href="#DejaVuSans-3" transform="translate(667.828125 0)"/>
      <use xlink:href="#DejaVuSans-3e" transform="translate(699.609375 0)"/>
      <use xlink:href="#DejaVuSans-50" transform="translate(738.625 0)"/>
      <use xlink:href="#DejaVuSans-12" transform="translate(836.03125 0)"/>
      <use xlink:href="#DejaVuSans-56" transform="translate(869.71875 0)"/>
      <use xlink:href="#DejaVuSans-40" transform="translate(921.8125 0)"/>
     </g>
    </g>
   </g>
   <g id="line2d_30">
    <path d="M 68.581076 245.609009 
L 69.285389 245.542044 
L 70.224472 252.946151 
L 71.163556 234.0866 
L 71.633098 238.550161 
L 71.867869 245.749621 
L 72.572182 237.005785 
L 72.806952 225.483201 
L 73.276494 246.938401 
L 74.68512 312.239387 
L 75.154662 341.313352 
L 75.858974 337.133431 
L 76.328516 316.501756 
L 77.032829 331.395229 
L 77.502371 337.437662 
L 78.441454 364.257962 
L 78.676225 344.10204 
L 79.615309 346.728793 
L 80.084851 352.407914 
L 80.319622 348.22518 
L 81.493476 335.770685 
L 81.963018 360.163597 
L 82.667331 349.80963 
L 83.371644 343.299276 
L 83.136873 350.646703 
L 83.606415 346.847395 
L 84.780269 362.663514 
L 85.01504 362.391623 
L 85.249811 362.759293 
L 85.719353 357.862186 
L 86.188895 358.981037 
L 87.362749 377.625064 
L 87.59752 374.849641 
L 88.067062 376.363026 
L 88.536604 373.263085 
L 88.771375 374.209592 
L 89.710458 367.561606 
L 89.945229 368.36138 
L 91.353855 374.223382 
L 90.884313 368.02307 
L 91.823397 373.351513 
L 92.058168 370.865657 
L 92.76248 373.453113 
L 93.701564 368.937501 
L 93.936335 369.335307 
L 94.405877 372.906412 
L 94.640648 368.549924 
L 94.875419 370.293527 
L 95.34496 367.44009 
L 95.579731 371.279819 
L 96.284044 376.981278 
L 96.518815 372.563641 
L 96.753586 372.952679 
L 96.988357 375.410925 
L 97.69267 372.366913 
L 98.631753 366.319895 
L 98.866524 367.50198 
L 99.570837 370.148282 
L 99.805608 367.056988 
L 100.040379 365.714833 
L 100.509921 368.175673 
L 100.744692 368.349335 
L 102.388088 376.351657 
L 102.622859 376.522509 
L 102.85763 375.71223 
L 103.796713 367.254627 
L 104.031484 370.001833 
L 104.266255 368.864276 
L 104.735797 369.086133 
L 105.44011 373.117829 
L 105.909652 372.963484 
L 106.144423 372.670228 
L 106.379194 373.479538 
L 107.553048 377.679909 
L 108.02259 377.509128 
L 108.257361 375.035544 
L 108.961674 377.881349 
L 110.839841 373.05559 
L 111.778925 369.517012 
L 112.013695 369.711064 
L 112.248466 372.336903 
L 112.952779 371.467169 
L 113.891863 362.838721 
L 114.126634 364.352319 
L 115.065717 371.057657 
L 115.300488 367.743193 
L 115.535259 362.887072 
L 116.239572 367.596044 
L 116.474343 373.118521 
L 117.178656 372.038682 
L 117.882968 368.28551 
L 118.117739 368.523929 
L 119.291594 373.560594 
L 119.526365 372.751916 
L 119.761136 374.784949 
L 120.230678 374.519794 
L 120.93499 377.161746 
L 122.578387 366.803937 
L 122.813158 367.024692 
L 123.752241 371.607719 
L 123.987012 370.624885 
L 125.395638 374.2011 
L 124.691325 370.410482 
L 125.630409 374.098666 
L 126.334721 373.581301 
L 126.804263 369.75526 
L 127.273805 372.957911 
L 128.917201 377.558374 
L 127.743347 372.235631 
L 129.151972 376.659533 
L 130.091056 376.330266 
L 130.325827 377.235569 
L 131.734452 370.112808 
L 131.969223 371.863835 
L 132.673536 370.706808 
L 132.908307 370.802906 
L 133.847391 377.46296 
L 134.082162 373.325831 
L 134.316933 373.169086 
L 135.256016 377.529058 
L 135.490787 376.931369 
L 137.368954 375.456552 
L 137.603725 374.097044 
L 137.838496 376.864571 
L 138.073267 377.973922 
L 138.308038 375.107737 
L 138.542809 376.605166 
L 139.481893 373.249041 
L 139.716664 377.708929 
L 139.951435 372.406003 
L 140.655747 377.208013 
L 141.125289 372.324 
L 141.594831 375.033376 
L 141.829602 377.644712 
L 142.299144 372.838467 
L 143.472998 366.282581 
L 143.94254 368.875851 
L 144.881624 377.191575 
L 145.585937 377.126181 
L 145.820707 375.281488 
L 146.52502 376.33965 
L 146.994562 376.6641 
L 147.698875 372.478134 
L 147.933646 375.46584 
L 148.168417 375.951847 
L 149.342271 369.772687 
L 149.811813 372.080755 
L 150.046584 368.819392 
L 150.281355 369.717567 
L 151.68998 365.109423 
L 152.863835 377.432076 
L 153.098606 377.14253 
L 154.742002 369.965535 
L 154.976773 370.838294 
L 155.211544 369.178619 
L 155.446315 368.303342 
L 155.915857 369.971784 
L 156.62017 374.928226 
L 156.85494 373.801137 
L 157.324482 371.894746 
L 157.794024 373.355378 
L 158.967879 377.719822 
L 160.141733 372.16286 
L 160.846046 377.620143 
L 161.315588 377.327034 
L 161.78513 372.317204 
L 162.254672 374.873754 
L 162.489442 376.060896 
L 162.958984 373.770037 
L 163.428526 370.808561 
L 163.663297 375.55023 
L 163.898068 375.019341 
L 164.36761 369.088224 
L 165.071923 370.649071 
L 165.776235 369.98804 
L 166.011006 373.285691 
L 167.654403 363.554096 
L 167.889174 365.901506 
L 168.358715 362.321094 
L 168.593486 364.929517 
L 169.767341 358.503775 
L 170.002112 360.219952 
L 170.471654 359.892378 
L 170.706425 364.631662 
L 171.410737 359.927231 
L 171.645508 359.601842 
L 172.584592 368.824857 
L 172.819363 368.526514 
L 173.993217 361.311219 
L 174.462759 363.119051 
L 176.575697 374.364939 
L 177.045239 373.402589 
L 177.749552 377.725375 
L 178.219094 377.141919 
L 178.923407 375.245036 
L 179.392948 372.782272 
L 179.627719 373.161546 
L 179.86249 377.015533 
L 180.801574 376.078148 
L 181.036345 377.968442 
L 181.505887 376.591944 
L 182.44497 368.721131 
L 182.679741 373.201535 
L 183.384054 377.97281 
L 183.853596 375.388749 
L 184.557909 371.996584 
L 185.02745 372.569521 
L 185.262221 370.559482 
L 185.966534 372.415487 
L 187.140389 377.723973 
L 188.783785 368.385825 
L 189.018556 371.136157 
L 189.253327 371.473665 
L 189.95764 377.341656 
L 190.427181 376.062939 
L 190.896723 371.20585 
L 191.366265 373.266235 
L 191.601036 374.882071 
L 191.835807 372.834469 
L 192.070578 373.234965 
L 192.305349 369.817432 
L 192.774891 376.4554 
L 193.009662 373.597986 
L 193.244432 371.812112 
L 193.713974 373.877882 
L 193.948745 374.541236 
L 194.418287 369.409301 
L 194.887829 373.475475 
L 195.592142 376.811381 
L 195.826913 376.592529 
L 197.000767 372.475503 
L 197.235538 374.434076 
L 197.470309 369.157101 
L 197.939851 372.696461 
L 198.409393 373.787346 
L 198.644164 372.911809 
L 199.348476 368.323741 
L 199.818018 371.213546 
L 200.522331 375.491249 
L 200.757102 372.29785 
L 201.461415 367.906171 
L 201.930956 369.107462 
L 202.635269 375.387187 
L 202.87004 374.266372 
L 204.043895 368.226279 
L 205.687291 377.655554 
L 205.922062 377.503955 
L 208.035 362.157403 
L 208.269771 362.397988 
L 209.678397 370.852572 
L 210.852251 365.468626 
L 210.147938 371.307823 
L 211.087022 366.368165 
L 211.556564 367.846173 
L 212.260877 364.370287 
L 212.965189 369.141183 
L 213.19996 366.274963 
L 214.843357 362.110311 
L 216.017211 370.843817 
L 216.251982 370.133519 
L 216.956295 364.037 
L 217.425837 364.567486 
L 218.834462 370.525598 
L 219.304004 377.416594 
L 219.773546 373.224784 
L 220.008317 372.323962 
L 220.243088 375.128488 
L 220.71263 374.501656 
L 220.947401 375.803841 
L 221.886484 377.890993 
L 223.29511 369.62898 
L 223.529881 371.694699 
L 223.764652 373.752921 
L 223.999423 370.079117 
L 225.173277 362.332516 
L 225.408048 362.769165 
L 225.642819 364.12956 
L 225.87759 361.415781 
L 226.112361 359.940284 
L 226.347132 361.529214 
L 226.581903 360.894758 
L 228.225299 372.068678 
L 228.929612 365.249437 
L 229.633925 365.837957 
L 230.338237 375.878078 
L 230.807779 374.949436 
L 231.746863 365.564981 
L 231.981634 368.798048 
L 232.451175 371.550978 
L 232.685946 368.701555 
L 233.155488 371.391483 
L 233.390259 371.93502 
L 234.798885 364.699359 
L 235.503197 358.927985 
L 236.20751 360.510431 
L 236.442281 362.451695 
L 236.677052 359.212279 
L 236.911823 357.616226 
L 237.381365 360.530688 
L 237.616136 358.048489 
L 239.259532 367.745412 
L 239.494303 365.022446 
L 239.963845 362.658008 
L 240.198616 364.827075 
L 240.433387 366.120049 
L 240.668158 363.788555 
L 241.137699 362.187254 
L 241.37247 363.527492 
L 241.842012 371.231552 
L 242.781096 367.676647 
L 243.250638 361.004143 
L 243.720179 364.14271 
L 244.189721 364.359957 
L 245.128805 368.393768 
L 245.363576 366.382622 
L 245.833118 362.334656 
L 246.30266 366.456491 
L 246.53743 367.249067 
L 246.772201 363.069777 
L 247.476514 365.444612 
L 247.711285 365.388925 
L 248.180827 362.751935 
L 248.415598 367.965565 
L 249.824223 375.802988 
L 248.88514 366.183852 
L 250.293765 375.107969 
L 251.46762 370.931093 
L 251.937162 368.529574 
L 252.406703 371.120296 
L 252.641474 372.341057 
L 253.345787 371.268738 
L 254.0501 373.11431 
L 254.989183 364.199084 
L 257.806434 377.314459 
L 259.684602 369.047362 
L 260.154144 369.891487 
L 260.388915 370.016777 
L 261.093227 377.537913 
L 261.79754 375.072594 
L 262.267082 374.003085 
L 262.736624 377.514316 
L 263.675707 370.404839 
L 264.145249 370.708634 
L 264.849562 377.493911 
L 265.788646 374.473293 
L 266.258187 375.544232 
L 266.492958 375.297511 
L 267.197271 369.14828 
L 267.666813 369.820489 
L 268.605897 362.589364 
L 269.075438 363.684266 
L 270.484064 369.049012 
L 270.953606 367.616085 
L 271.423148 369.155127 
L 272.362231 374.311568 
L 272.597002 373.693311 
L 273.066544 371.717273 
L 273.536086 372.484761 
L 274.005628 377.607249 
L 274.70994 376.628371 
L 274.944711 376.607725 
L 275.179482 375.354224 
L 275.414253 377.497127 
L 275.883795 377.01603 
L 276.118566 377.239022 
L 276.353337 373.939551 
L 276.822879 377.632217 
L 277.05765 375.025568 
L 277.527191 376.965345 
L 277.761962 374.38182 
L 277.996733 375.198699 
L 278.935817 372.724067 
L 279.170588 373.634325 
L 279.405359 374.451748 
L 279.64013 374.22588 
L 280.813984 366.634396 
L 281.048755 369.949732 
L 281.518297 367.670152 
L 281.753068 365.192685 
L 281.987839 368.640361 
L 282.926922 371.921581 
L 283.161693 369.90844 
L 283.631235 371.611708 
L 284.335548 377.71815 
L 284.80509 375.409954 
L 285.509403 371.233486 
L 285.978944 372.46763 
L 287.38757 377.783072 
L 287.622341 377.522556 
L 288.796195 373.461823 
L 289.500508 370.410726 
L 289.735279 370.533771 
L 290.204821 373.746057 
L 290.674363 372.76872 
L 291.378675 368.471777 
L 291.613446 370.99644 
L 291.848217 372.572116 
L 292.082988 371.752244 
L 293.726385 358.288865 
L 294.195926 363.50563 
L 294.900239 361.828353 
L 295.13501 361.752332 
L 295.369781 364.769059 
L 295.839323 360.49904 
L 296.074094 360.296467 
L 296.308865 357.87948 
L 296.778407 359.315156 
L 299.126116 377.577614 
L 299.830428 376.759004 
L 300.769512 368.304901 
L 301.239054 370.385979 
L 303.117221 376.671032 
L 303.351992 377.096893 
L 303.586763 376.167538 
L 304.291076 373.702201 
L 305.46493 363.409841 
L 306.638785 369.777657 
L 306.873556 368.049517 
L 307.108327 369.963784 
L 307.577869 368.253656 
L 307.81264 371.222293 
L 308.751723 370.894522 
L 308.986494 366.711751 
L 309.690807 367.505344 
L 309.925578 369.93148 
L 310.39512 369.078998 
L 310.629891 364.283193 
L 311.099432 373.482667 
L 311.334203 377.711152 
L 311.803745 372.929668 
L 312.038516 373.185723 
L 312.9776 373.08096 
L 313.212371 371.766762 
L 313.681912 374.805489 
L 313.916683 374.413714 
L 315.090538 377.905031 
L 315.325309 377.97185 
L 316.264393 375.764496 
L 316.499163 377.096059 
L 316.733934 377.116023 
L 318.14256 368.75524 
L 317.203476 377.210383 
L 318.377331 370.791511 
L 318.612102 373.907741 
L 319.316414 371.504763 
L 319.785956 366.983824 
L 320.020727 371.250618 
L 320.490269 374.186569 
L 321.194582 373.594491 
L 322.368436 370.784842 
L 322.837978 370.220548 
L 323.072749 372.136875 
L 323.542291 377.055436 
L 324.011833 374.808001 
L 324.246604 372.11682 
L 324.481375 376.546895 
L 324.716146 376.480897 
L 325.185687 376.984914 
L 325.655229 374.212591 
L 325.89 377.393791 
L 326.359542 374.940552 
L 327.063855 375.256093 
L 328.002938 377.875388 
L 328.237709 377.087739 
L 328.942022 374.537704 
L 329.176793 376.632593 
L 329.411564 377.772141 
L 330.115877 376.468109 
L 330.585418 374.857476 
L 331.994044 369.527849 
L 332.228815 369.420894 
L 333.167899 377.149384 
L 333.63744 375.984767 
L 337.393775 360.912436 
L 337.628546 367.415894 
L 338.332859 364.689211 
L 338.56763 364.221711 
L 340.211026 376.069563 
L 341.619652 368.676721 
L 342.089193 370.997285 
L 343.263048 377.041536 
L 343.497819 375.239576 
L 345.610757 368.475443 
L 346.549841 373.49678 
L 347.488924 372.221866 
L 347.958466 368.436357 
L 348.428008 372.608871 
L 348.662779 374.139971 
L 348.89755 372.456332 
L 349.367092 373.126979 
L 349.601863 373.15355 
L 351.010488 367.676898 
L 351.245259 371.112817 
L 351.949572 369.321067 
L 352.419114 371.834679 
L 352.888656 377.720923 
L 353.592968 375.852841 
L 353.827739 374.805494 
L 354.06251 377.872098 
L 354.297281 376.964557 
L 355.705906 371.996114 
L 357.114532 363.925461 
L 358.053616 362.433014 
L 358.992699 367.417871 
L 359.22747 365.000938 
L 359.697012 367.385525 
L 360.166554 365.751586 
L 360.636096 364.655587 
L 361.105638 367.697997 
L 361.340408 364.567628 
L 362.983805 356.257756 
L 365.096743 373.415063 
L 365.566285 370.446518 
L 366.505369 365.215037 
L 366.74014 366.193367 
L 367.679223 377.973806 
L 367.913994 376.681758 
L 368.853078 377.403848 
L 370.026932 374.369865 
L 370.731245 375.683624 
L 370.966016 374.538298 
L 372.374642 365.217898 
L 373.313725 372.496342 
L 373.548496 370.762425 
L 374.957122 364.791729 
L 375.191893 367.113057 
L 378.009144 374.774097 
L 378.713456 368.43544 
L 379.182998 369.142214 
L 379.887311 373.026181 
L 381.061165 366.552469 
L 381.295936 365.602555 
L 381.530707 367.255431 
L 381.765478 366.198397 
L 382.000249 367.530374 
L 382.704562 367.010697 
L 382.939333 365.27777 
L 383.408875 368.928343 
L 383.878416 370.743826 
L 384.347958 369.964439 
L 384.582729 369.958921 
L 385.052271 365.186225 
L 385.521813 366.127538 
L 385.991355 370.18179 
L 386.460897 366.569477 
L 387.39998 360.741691 
L 387.634751 363.673253 
L 387.869522 362.186351 
L 388.104293 365.933926 
L 388.339064 365.702135 
L 388.808606 371.504331 
L 389.278148 367.404973 
L 389.512918 367.60464 
L 390.217231 371.250564 
L 390.452002 370.612475 
L 392.799711 360.830978 
L 393.034482 363.471889 
L 393.269253 360.032362 
L 393.973566 363.379597 
L 394.208337 363.197629 
L 394.91265 364.864857 
L 394.677879 362.162784 
L 395.14742 363.938904 
L 395.616962 360.973975 
L 396.086504 361.698127 
L 399.373297 377.551616 
L 399.842839 377.121737 
L 401.251464 369.581783 
L 402.425319 365.920952 
L 402.894861 368.754025 
L 403.364402 368.760663 
L 404.773028 356.852741 
L 405.007799 358.108046 
L 405.24257 357.781662 
L 405.712112 357.095224 
L 406.181653 363.063896 
L 406.416424 357.578064 
L 407.120737 359.792675 
L 408.529363 366.574616 
L 408.764134 366.280853 
L 408.998904 363.888321 
L 409.468446 366.697184 
L 409.937988 369.377397 
L 410.40753 368.644039 
L 410.877072 360.18824 
L 411.346614 363.546411 
L 411.581385 364.870864 
L 411.816155 362.507137 
L 412.050926 364.317915 
L 412.285697 362.485324 
L 412.520468 364.467593 
L 412.755239 369.329003 
L 413.459552 368.630797 
L 414.163865 366.748117 
L 414.868177 374.162526 
L 415.337719 370.730288 
L 415.57249 374.595201 
L 416.042032 368.658873 
L 416.511574 367.296141 
L 416.746345 369.690358 
L 416.981116 368.110553 
L 417.215887 369.230658 
L 418.389741 376.038527 
L 418.624512 373.84524 
L 418.859283 370.682902 
L 419.328825 377.449551 
L 419.563596 377.09769 
L 419.798367 377.678867 
L 420.033138 374.446171 
L 420.73745 375.639965 
L 421.441763 377.24211 
L 421.911305 376.652351 
L 423.085159 368.352328 
L 423.554701 371.017941 
L 423.789472 372.677193 
L 424.024243 369.935754 
L 425.198098 367.514116 
L 427.076265 377.363222 
L 427.311036 377.029638 
L 427.545807 373.193617 
L 428.25012 374.880029 
L 429.189203 377.55955 
L 429.423974 377.166646 
L 429.658745 374.636725 
L 430.128287 377.448918 
L 430.363058 377.350491 
L 431.536912 372.855764 
L 431.771683 376.764778 
L 432.475996 373.118212 
L 432.710767 371.214024 
L 433.180309 374.031502 
L 433.41508 376.57621 
L 433.884622 372.760476 
L 434.119393 374.345581 
L 434.354163 373.809164 
L 434.588934 377.365061 
L 435.293247 376.140689 
L 435.762789 376.054017 
L 436.701873 374.420211 
L 436.936644 377.79273 
L 437.640956 375.911766 
L 437.875727 376.024438 
L 439.519124 366.785695 
L 439.753894 367.074105 
L 440.458207 374.37637 
L 440.927749 370.014989 
L 441.397291 367.129058 
L 441.866833 368.74928 
L 444.214542 372.627381 
L 444.449313 370.244436 
L 445.153626 371.347671 
L 447.031793 377.830429 
L 448.205647 376.728932 
L 449.144731 370.835929 
L 449.379502 373.122852 
L 449.614273 375.477861 
L 450.318586 372.502004 
L 451.022898 372.032861 
L 451.49244 375.92455 
L 451.961982 371.635717 
L 452.431524 376.713871 
L 452.666295 377.894245 
L 452.901066 376.594158 
L 454.309691 360.197649 
L 454.779233 361.873459 
L 455.483546 358.895644 
L 455.718317 361.649563 
L 455.953088 364.872174 
L 456.42263 364.483502 
L 457.596484 358.055502 
L 458.066026 357.299892 
L 461.352819 372.679517 
L 461.58759 369.1772 
L 462.291902 371.901104 
L 462.761444 372.530392 
L 463.465757 365.190964 
L 463.935299 368.279735 
L 465.343924 373.749674 
L 465.578695 370.038083 
L 466.048237 375.723844 
L 466.283008 376.363546 
L 467.222092 366.721644 
L 467.926404 368.178971 
L 468.630717 367.478904 
L 471.447968 377.454718 
L 472.387052 373.889338 
L 472.621823 375.783933 
L 473.091365 376.129051 
L 473.326136 377.711881 
L 474.030448 376.267757 
L 474.265219 377.198648 
L 474.734761 376.62827 
L 475.439074 373.400312 
L 475.673845 374.446881 
L 476.143387 377.964829 
L 476.847699 376.662704 
L 477.08247 376.374914 
L 477.552012 377.896843 
L 477.786783 375.617143 
L 478.256325 372.513431 
L 478.491096 374.438121 
L 478.725867 377.974572 
L 479.430179 376.695514 
L 479.899721 375.553661 
L 480.134492 375.773852 
L 480.604034 372.270022 
L 481.073576 372.961302 
L 482.012659 375.588383 
L 482.24743 375.017621 
L 482.482201 372.277317 
L 483.186514 373.777894 
L 483.421285 373.349847 
L 483.656056 375.970533 
L 484.125598 373.677199 
L 485.299452 366.791827 
L 485.534223 367.534061 
L 486.473307 377.851517 
L 486.708078 375.533983 
L 487.17762 377.613293 
L 487.647161 375.348113 
L 489.290558 369.70831 
L 489.7601 374.46293 
L 490.933954 373.423535 
L 491.168725 373.349347 
L 491.873038 377.212868 
L 492.34258 375.92145 
L 493.516434 364.731926 
L 493.751205 365.617104 
L 493.985976 365.392677 
L 494.220747 365.845062 
L 495.159831 371.538465 
L 495.629373 368.70121 
L 496.803227 359.243205 
L 498.446624 369.968963 
L 498.916165 373.367522 
L 499.385707 370.561492 
L 499.620478 368.451706 
L 499.855249 370.827862 
L 500.09002 369.894984 
L 501.029104 374.230688 
L 501.498645 369.586949 
L 501.968187 373.373605 
L 502.6725 372.663696 
L 503.376813 377.357396 
L 503.846355 374.373661 
L 504.315896 377.210932 
L 504.785438 374.902669 
L 505.25498 374.01132 
L 505.724522 369.901966 
L 506.428835 372.190884 
L 507.133147 377.397967 
L 507.602689 374.48805 
L 508.307002 368.690614 
L 508.776544 371.982896 
L 509.715628 363.985883 
L 510.654711 365.121251 
L 512.532879 377.804021 
L 512.767649 377.433054 
L 513.00242 374.402839 
L 513.706733 375.202842 
L 513.941504 375.385432 
L 514.880588 370.018154 
L 515.115359 371.594223 
L 515.5849 374.868744 
L 516.054442 372.333429 
L 516.289213 372.873022 
L 516.523984 371.265709 
L 516.758755 371.560496 
L 517.93261 366.47033 
L 519.341235 377.579676 
L 521.688944 368.755193 
L 520.045548 377.879082 
L 522.158486 369.972432 
L 522.393257 370.100537 
L 522.628028 368.422734 
L 523.09757 369.641483 
L 523.332341 372.01201 
L 523.801882 370.603602 
L 524.271424 363.197844 
L 524.975737 364.000572 
L 526.149592 366.18074 
L 525.445279 363.125718 
L 526.384363 364.499145 
L 527.558217 369.357558 
L 528.027759 368.938236 
L 528.497301 370.211339 
L 529.671155 364.899252 
L 529.905926 365.543692 
L 531.079781 372.542073 
L 531.314552 372.114737 
L 532.723177 366.146987 
L 535.070886 377.595753 
L 535.305657 377.469637 
L 535.540428 375.328409 
L 535.775199 377.91573 
L 536.244741 377.859552 
L 536.949054 376.487844 
L 537.183825 376.893293 
L 537.653367 368.721719 
L 538.122908 372.732368 
" clip-path="url(#p1a830b4088)" style="fill: none; stroke: #e41a1c; stroke-width: 2; stroke-linecap: square"/>
   </g>
   <g id="patch_6">
    <path d="M 45.103984 385.599141 
L 45.103984 217.858633 
" style="fill: none; stroke: #7f7f7f; stroke-width: 1.8; stroke-linejoin: miter; stroke-linecap: square"/>
   </g>
   <g id="patch_7">
    <path d="M 45.103984 385.599141 
L 561.6 385.599141 
" style="fill: none; stroke: #7f7f7f; stroke-width: 1.8; stroke-linejoin: miter; stroke-linecap: square"/>
   </g>
  </g>
 </g>
 <defs>
  <clipPath id="pb2fa20deb4">
   <rect x="45.103984" y="22.318125" width="516.496016" height="167.740508"/>
  </clipPath>
  <clipPath id="p1a830b4088">
   <rect x="45.103984" y="217.858633" width="516.496016" height="167.740508"/>
  </clipPath>
 </defs>
</svg>
