<?xml version="1.0" encoding="utf-8" standalone="no"?>
<!DOCTYPE svg PUBLIC "-//W3C//DTD SVG 1.1//EN"
  "http://www.w3.org/Graphics/SVG/1.1/DTD/svg11.dtd">
<svg xmlns:xlink="http://www.w3.org/1999/xlink" width="568.8pt" height="280.8pt" viewBox="0 0 568.8 280.8" xmlns="http://www.w3.org/2000/svg" version="1.1">
 <metadata>
  <rdf:RDF xmlns:dc="http://purl.org/dc/elements/1.1/" xmlns:cc="http://creativecommons.org/ns#" xmlns:rdf="http://www.w3.org/1999/02/22-rdf-syntax-ns#">
   <cc:Work>
    <dc:type rdf:resource="http://purl.org/dc/dcmitype/StillImage"/>
    <dc:date>2026-06-14T18:34:34.644401</dc:date>
    <dc:format>image/svg+xml</dc:format>
    <dc:creator>
     <cc:Agent>
      <dc:title>Matplotlib v3.11.0, https://matplotlib.org/</dc:title>
     </cc:Agent>
    </dc:creator>
   </cc:Work>
  </rdf:RDF>
 </metadata>
 <defs>
  <style type="text/css">*{stroke-linejoin: round; stroke-linecap: butt}</style>
 </defs>
 <g id="figure_1">
  <g id="patch_1">
   <path d="M 0 280.8 
L 568.8 280.8 
L 568.8 0 
L 0 0 
L 0 280.8 
z
" style="fill: none"/>
  </g>
  <g id="axes_1">
   <g id="patch_2">
    <path d="M 28.942188 241.599141 
L 561.6 241.599141 
L 561.6 7.2 
L 28.942188 7.2 
L 28.942188 241.599141 
z
" style="fill: none"/>
   </g>
   <g id="matplotlib.axis_1">
    <g id="xtick_1">
     <g id="line2d_1">
      <defs>
       <path id="m7d4ea86f8b" d="M 0 0 
L 0 3.5 
" style="stroke: #7f7f7f; stroke-width: 1.8"/>
      </defs>
      <g>
       <use xlink:href="#m7d4ea86f8b" x="53.153906" y="241.599141" style="fill: #7f7f7f; stroke: #7f7f7f; stroke-width: 1.8"/>
      </g>
     </g>
     <g id="text_1">
      <!-- 0.00000 -->
      <g style="fill: #7f7f7f" transform="translate(32.477344 256.196797) scale(0.1 -0.1)">
       <defs>
        <path id="DejaVuSans-13" d="M 2034 4250 
Q 1547 4250 1301 3770 
Q 1056 3291 1056 2328 
Q 1056 1369 1301 889 
Q 1547 409 2034 409 
Q 2525 409 2770 889 
Q 3016 1369 3016 2328 
Q 3016 3291 2770 3770 
Q 2525 4250 2034 4250 
z
M 2034 4750 
Q 2819 4750 3233 4129 
Q 3647 3509 3647 2328 
Q 3647 1150 3233 529 
Q 2819 -91 2034 -91 
Q 1250 -91 836 529 
Q 422 1150 422 2328 
Q 422 3509 836 4129 
Q 1250 4750 2034 4750 
z
" transform="scale(0.015625)"/>
        <path id="DejaVuSans-11" d="M 684 794 
L 1344 794 
L 1344 0 
L 684 0 
L 684 794 
z
" transform="scale(0.015625)"/>
       </defs>
       <use xlink:href="#DejaVuSans-13"/>
       <use xlink:href="#DejaVuSans-11" transform="translate(63.625 0)"/>
       <use xlink:href="#DejaVuSans-13" transform="translate(95.40625 0)"/>
       <use xlink:href="#DejaVuSans-13" transform="translate(159.03125 0)"/>
       <use xlink:href="#DejaVuSans-13" transform="translate(222.65625 0)"/>
       <use xlink:href="#DejaVuSans-13" transform="translate(286.28125 0)"/>
       <use xlink:href="#DejaVuSans-13" transform="translate(349.90625 0)"/>
      </g>
     </g>
    </g>
    <g id="xtick_2">
     <g id="line2d_2">
      <g>
       <use xlink:href="#m7d4ea86f8b" x="149.981416" y="241.599141" style="fill: #7f7f7f; stroke: #7f7f7f; stroke-width: 1.8"/>
      </g>
     </g>
     <g id="text_2">
      <!-- 0.00002 -->
      <g style="fill: #7f7f7f" transform="translate(129.304853 256.196797) scale(0.1 -0.1)">
       <defs>
        <path id="DejaVuSans-15" d="M 1228 531 
L 3431 531 
L 3431 0 
L 469 0 
L 469 531 
Q 828 903 1448 1529 
Q 2069 2156 2228 2338 
Q 2531 2678 2651 2914 
Q 2772 3150 2772 3378 
Q 2772 3750 2511 3984 
Q 2250 4219 1831 4219 
Q 1534 4219 1204 4116 
Q 875 4013 500 3803 
L 500 4441 
Q 881 4594 1212 4672 
Q 1544 4750 1819 4750 
Q 2544 4750 2975 4387 
Q 3406 4025 3406 3419 
Q 3406 3131 3298 2873 
Q 3191 2616 2906 2266 
Q 2828 2175 2409 1742 
Q 1991 1309 1228 531 
z
" transform="scale(0.015625)"/>
       </defs>
       <use xlink:href="#DejaVuSans-13"/>
       <use xlink:href="#DejaVuSans-11" transform="translate(63.625 0)"/>
       <use xlink:href="#DejaVuSans-13" transform="translate(95.40625 0)"/>
       <use xlink:href="#DejaVuSans-13" transform="translate(159.03125 0)"/>
       <use xlink:href="#DejaVuSans-13" transform="translate(222.65625 0)"/>
       <use xlink:href="#DejaVuSans-13" transform="translate(286.28125 0)"/>
       <use xlink:href="#DejaVuSans-15" transform="translate(349.90625 0)"/>
      </g>
     </g>
    </g>
    <g id="xtick_3">
     <g id="line2d_3">
      <g>
       <use xlink:href="#m7d4ea86f8b" x="246.808925" y="241.599141" style="fill: #7f7f7f; stroke: #7f7f7f; stroke-width: 1.8"/>
      </g>
     </g>
     <g id="text_3">
      <!-- 0.00004 -->
      <g style="fill: #7f7f7f" transform="translate(226.132363 256.196797) scale(0.1 -0.1)">
       <defs>
        <path id="DejaVuSans-17" d="M 2419 4116 
L 825 1625 
L 2419 1625 
L 2419 4116 
z
M 2253 4666 
L 3047 4666 
L 3047 1625 
L 3713 1625 
L 3713 1100 
L 3047 1100 
L 3047 0 
L 2419 0 
L 2419 1100 
L 313 1100 
L 313 1709 
L 2253 4666 
z
" transform="scale(0.015625)"/>
       </defs>
       <use xlink:href="#DejaVuSans-13"/>
       <use xlink:href="#DejaVuSans-11" transform="translate(63.625 0)"/>
       <use xlink:href="#DejaVuSans-13" transform="translate(95.40625 0)"/>
       <use xlink:href="#DejaVuSans-13" transform="translate(159.03125 0)"/>
       <use xlink:href="#DejaVuSans-13" transform="translate(222.65625 0)"/>
       <use xlink:href="#DejaVuSans-13" transform="translate(286.28125 0)"/>
       <use xlink:href="#DejaVuSans-17" transform="translate(349.90625 0)"/>
      </g>
     </g>
    </g>
    <g id="xtick_4">
     <g id="line2d_4">
      <g>
       <use xlink:href="#m7d4ea86f8b" x="343.636435" y="241.599141" style="fill: #7f7f7f; stroke: #7f7f7f; stroke-width: 1.8"/>
      </g>
     </g>
     <g id="text_4">
      <!-- 0.00006 -->
      <g style="fill: #7f7f7f" transform="translate(322.959872 256.196797) scale(0.1 -0.1)">
       <defs>
        <path id="DejaVuSans-19" d="M 2113 2584 
Q 1688 2584 1439 2293 
Q 1191 2003 1191 1497 
Q 1191 994 1439 701 
Q 1688 409 2113 409 
Q 2538 409 2786 701 
Q 3034 994 3034 1497 
Q 3034 2003 2786 2293 
Q 2538 2584 2113 2584 
z
M 3366 4563 
L 3366 3988 
Q 3128 4100 2886 4159 
Q 2644 4219 2406 4219 
Q 1781 4219 1451 3797 
Q 1122 3375 1075 2522 
Q 1259 2794 1537 2939 
Q 1816 3084 2150 3084 
Q 2853 3084 3261 2657 
Q 3669 2231 3669 1497 
Q 3669 778 3244 343 
Q 2819 -91 2113 -91 
Q 1303 -91 875 529 
Q 447 1150 447 2328 
Q 447 3434 972 4092 
Q 1497 4750 2381 4750 
Q 2619 4750 2861 4703 
Q 3103 4656 3366 4563 
z
" transform="scale(0.015625)"/>
       </defs>
       <use xlink:href="#DejaVuSans-13"/>
       <use xlink:href="#DejaVuSans-11" transform="translate(63.625 0)"/>
       <use xlink:href="#DejaVuSans-13" transform="translate(95.40625 0)"/>
       <use xlink:href="#DejaVuSans-13" transform="translate(159.03125 0)"/>
       <use xlink:href="#DejaVuSans-13" transform="translate(222.65625 0)"/>
       <use xlink:href="#DejaVuSans-13" transform="translate(286.28125 0)"/>
       <use xlink:href="#DejaVuSans-19" transform="translate(349.90625 0)"/>
      </g>
     </g>
    </g>
    <g id="xtick_5">
     <g id="line2d_5">
      <g>
       <use xlink:href="#m7d4ea86f8b" x="440.463944" y="241.599141" style="fill: #7f7f7f; stroke: #7f7f7f; stroke-width: 1.8"/>
      </g>
     </g>
     <g id="text_5">
      <!-- 0.00008 -->
      <g style="fill: #7f7f7f" transform="translate(419.787382 256.196797) scale(0.1 -0.1)">
       <defs>
        <path id="DejaVuSans-1b" d="M 2034 2216 
Q 1584 2216 1326 1975 
Q 1069 1734 1069 1313 
Q 1069 891 1326 650 
Q 1584 409 2034 409 
Q 2484 409 2743 651 
Q 3003 894 3003 1313 
Q 3003 1734 2745 1975 
Q 2488 2216 2034 2216 
z
M 1403 2484 
Q 997 2584 770 2862 
Q 544 3141 544 3541 
Q 544 4100 942 4425 
Q 1341 4750 2034 4750 
Q 2731 4750 3128 4425 
Q 3525 4100 3525 3541 
Q 3525 3141 3298 2862 
Q 3072 2584 2669 2484 
Q 3125 2378 3379 2068 
Q 3634 1759 3634 1313 
Q 3634 634 3220 271 
Q 2806 -91 2034 -91 
Q 1263 -91 848 271 
Q 434 634 434 1313 
Q 434 1759 690 2068 
Q 947 2378 1403 2484 
z
M 1172 3481 
Q 1172 3119 1398 2916 
Q 1625 2713 2034 2713 
Q 2441 2713 2670 2916 
Q 2900 3119 2900 3481 
Q 2900 3844 2670 4047 
Q 2441 4250 2034 4250 
Q 1625 4250 1398 4047 
Q 1172 3844 1172 3481 
z
" transform="scale(0.015625)"/>
       </defs>
       <use xlink:href="#DejaVuSans-13"/>
       <use xlink:href="#DejaVuSans-11" transform="translate(63.625 0)"/>
       <use xlink:href="#DejaVuSans-13" transform="translate(95.40625 0)"/>
       <use xlink:href="#DejaVuSans-13" transform="translate(159.03125 0)"/>
       <use xlink:href="#DejaVuSans-13" transform="translate(222.65625 0)"/>
       <use xlink:href="#DejaVuSans-13" transform="translate(286.28125 0)"/>
       <use xlink:href="#DejaVuSans-1b" transform="translate(349.90625 0)"/>
      </g>
     </g>
    </g>
    <g id="xtick_6">
     <g id="line2d_6">
      <g>
       <use xlink:href="#m7d4ea86f8b" x="537.291454" y="241.599141" style="fill: #7f7f7f; stroke: #7f7f7f; stroke-width: 1.8"/>
      </g>
     </g>
     <g id="text_6">
      <!-- 0.00010 -->
      <g style="fill: #7f7f7f" transform="translate(516.614891 256.196797) scale(0.1 -0.1)">
       <defs>
        <path id="DejaVuSans-14" d="M 794 531 
L 1825 531 
L 1825 4091 
L 703 3866 
L 703 4441 
L 1819 4666 
L 2450 4666 
L 2450 531 
L 3481 531 
L 3481 0 
L 794 0 
L 794 531 
z
" transform="scale(0.015625)"/>
       </defs>
       <use xlink:href="#DejaVuSans-13"/>
       <use xlink:href="#DejaVuSans-11" transform="translate(63.625 0)"/>
       <use xlink:href="#DejaVuSans-13" transform="translate(95.40625 0)"/>
       <use xlink:href="#DejaVuSans-13" transform="translate(159.03125 0)"/>
       <use xlink:href="#DejaVuSans-13" transform="translate(222.65625 0)"/>
       <use xlink:href="#DejaVuSans-14" transform="translate(286.28125 0)"/>
       <use xlink:href="#DejaVuSans-13" transform="translate(349.90625 0)"/>
      </g>
     </g>
    </g>
    <g id="text_7">
     <!-- time [s] -->
     <g style="fill: #7f7f7f" transform="translate(273.940547 270.957422) scale(0.11 -0.11)">
      <defs>
       <path id="DejaVuSans-57" d="M 1172 4494 
L 1172 3500 
L 2356 3500 
L 2356 3053 
L 1172 3053 
L 1172 1153 
Q 1172 725 1289 603 
Q 1406 481 1766 481 
L 2356 481 
L 2356 0 
L 1766 0 
Q 1100 0 847 248 
Q 594 497 594 1153 
L 594 3053 
L 172 3053 
L 172 3500 
L 594 3500 
L 594 4494 
L 1172 4494 
z
" transform="scale(0.015625)"/>
       <path id="DejaVuSans-4c" d="M 603 3500 
L 1178 3500 
L 1178 0 
L 603 0 
L 603 3500 
z
M 603 4863 
L 1178 4863 
L 1178 4134 
L 603 4134 
L 603 4863 
z
" transform="scale(0.015625)"/>
       <path id="DejaVuSans-50" d="M 3328 2828 
Q 3544 3216 3844 3400 
Q 4144 3584 4550 3584 
Q 5097 3584 5394 3201 
Q 5691 2819 5691 2113 
L 5691 0 
L 5113 0 
L 5113 2094 
Q 5113 2597 4934 2840 
Q 4756 3084 4391 3084 
Q 3944 3084 3684 2787 
Q 3425 2491 3425 1978 
L 3425 0 
L 2847 0 
L 2847 2094 
Q 2847 2600 2669 2842 
Q 2491 3084 2119 3084 
Q 1678 3084 1418 2786 
Q 1159 2488 1159 1978 
L 1159 0 
L 581 0 
L 581 3500 
L 1159 3500 
L 1159 2956 
Q 1356 3278 1631 3431 
Q 1906 3584 2284 3584 
Q 2666 3584 2933 3390 
Q 3200 3197 3328 2828 
z
" transform="scale(0.015625)"/>
       <path id="DejaVuSans-48" d="M 3597 1894 
L 3597 1613 
L 953 1613 
Q 991 1019 1311 708 
Q 1631 397 2203 397 
Q 2534 397 2845 478 
Q 3156 559 3463 722 
L 3463 178 
Q 3153 47 2828 -22 
Q 2503 -91 2169 -91 
Q 1331 -91 842 396 
Q 353 884 353 1716 
Q 353 2575 817 3079 
Q 1281 3584 2069 3584 
Q 2775 3584 3186 3129 
Q 3597 2675 3597 1894 
z
M 3022 2063 
Q 3016 2534 2758 2815 
Q 2500 3097 2075 3097 
Q 1594 3097 1305 2825 
Q 1016 2553 972 2059 
L 3022 2063 
z
" transform="scale(0.015625)"/>
       <path id="DejaVuSans-3" transform="scale(0.015625)"/>
       <path id="DejaVuSans-3e" d="M 550 4863 
L 1875 4863 
L 1875 4416 
L 1125 4416 
L 1125 -397 
L 1875 -397 
L 1875 -844 
L 550 -844 
L 550 4863 
z
" transform="scale(0.015625)"/>
       <path id="DejaVuSans-56" d="M 2834 3397 
L 2834 2853 
Q 2591 2978 2328 3040 
Q 2066 3103 1784 3103 
Q 1356 3103 1142 2972 
Q 928 2841 928 2578 
Q 928 2378 1081 2264 
Q 1234 2150 1697 2047 
L 1894 2003 
Q 2506 1872 2764 1633 
Q 3022 1394 3022 966 
Q 3022 478 2636 193 
Q 2250 -91 1575 -91 
Q 1294 -91 989 -36 
Q 684 19 347 128 
L 347 722 
Q 666 556 975 473 
Q 1284 391 1588 391 
Q 1994 391 2212 530 
Q 2431 669 2431 922 
Q 2431 1156 2273 1281 
Q 2116 1406 1581 1522 
L 1381 1569 
Q 847 1681 609 1914 
Q 372 2147 372 2553 
Q 372 3047 722 3315 
Q 1072 3584 1716 3584 
Q 2034 3584 2315 3537 
Q 2597 3491 2834 3397 
z
" transform="scale(0.015625)"/>
       <path id="DejaVuSans-40" d="M 1947 4863 
L 1947 -844 
L 622 -844 
L 622 -397 
L 1369 -397 
L 1369 4416 
L 622 4416 
L 622 4863 
L 1947 4863 
z
" transform="scale(0.015625)"/>
      </defs>
      <use xlink:href="#DejaVuSans-57"/>
      <use xlink:href="#DejaVuSans-4c" transform="translate(39.203125 0)"/>
      <use xlink:href="#DejaVuSans-50" transform="translate(66.984375 0)"/>
      <use xlink:href="#DejaVuSans-48" transform="translate(164.390625 0)"/>
      <use xlink:href="#DejaVuSans-3" transform="translate(225.921875 0)"/>
      <use xlink:href="#DejaVuSans-3e" transform="translate(257.703125 0)"/>
      <use xlink:href="#DejaVuSans-56" transform="translate(296.71875 0)"/>
      <use xlink:href="#DejaVuSans-40" transform="translate(348.8125 0)"/>
     </g>
    </g>
   </g>
   <g id="matplotlib.axis_2">
    <g id="ytick_1">
     <g id="line2d_7">
      <defs>
       <path id="mdb30a70af3" d="M 0 0 
L -3.5 0 
" style="stroke: #7f7f7f; stroke-width: 1.8"/>
      </defs>
      <g>
       <use xlink:href="#mdb30a70af3" x="28.942188" y="227.942918" style="fill: #7f7f7f; stroke: #7f7f7f; stroke-width: 1.8"/>
      </g>
     </g>
     <g id="text_8">
      <!-- −8 -->
      <g style="fill: #7f7f7f" transform="translate(7.2 231.741746) scale(0.1 -0.1)">
       <defs>
        <path id="DejaVuSans-c9c" d="M 678 2272 
L 4684 2272 
L 4684 1741 
L 678 1741 
L 678 2272 
z
" transform="scale(0.015625)"/>
       </defs>
       <use xlink:href="#DejaVuSans-c9c"/>
       <use xlink:href="#DejaVuSans-1b" transform="translate(83.796875 0)"/>
      </g>
     </g>
    </g>
    <g id="ytick_2">
     <g id="line2d_8">
      <g>
       <use xlink:href="#mdb30a70af3" x="28.942188" y="201.861652" style="fill: #7f7f7f; stroke: #7f7f7f; stroke-width: 1.8"/>
      </g>
     </g>
     <g id="text_9">
      <!-- −6 -->
      <g style="fill: #7f7f7f" transform="translate(7.2 205.66048) scale(0.1 -0.1)">
       <use xlink:href="#DejaVuSans-c9c"/>
       <use xlink:href="#DejaVuSans-19" transform="translate(83.796875 0)"/>
      </g>
     </g>
    </g>
    <g id="ytick_3">
     <g id="line2d_9">
      <g>
       <use xlink:href="#mdb30a70af3" x="28.942188" y="175.780386" style="fill: #7f7f7f; stroke: #7f7f7f; stroke-width: 1.8"/>
      </g>
     </g>
     <g id="text_10">
      <!-- −4 -->
      <g style="fill: #7f7f7f" transform="translate(7.2 179.579215) scale(0.1 -0.1)">
       <use xlink:href="#DejaVuSans-c9c"/>
       <use xlink:href="#DejaVuSans-17" transform="translate(83.796875 0)"/>
      </g>
     </g>
    </g>
    <g id="ytick_4">
     <g id="line2d_10">
      <g>
       <use xlink:href="#mdb30a70af3" x="28.942188" y="149.699121" style="fill: #7f7f7f; stroke: #7f7f7f; stroke-width: 1.8"/>
      </g>
     </g>
     <g id="text_11">
      <!-- −2 -->
      <g style="fill: #7f7f7f" transform="translate(7.2 153.497949) scale(0.1 -0.1)">
       <use xlink:href="#DejaVuSans-c9c"/>
       <use xlink:href="#DejaVuSans-15" transform="translate(83.796875 0)"/>
      </g>
     </g>
    </g>
    <g id="ytick_5">
     <g id="line2d_11">
      <g>
       <use xlink:href="#mdb30a70af3" x="28.942188" y="123.617855" style="fill: #7f7f7f; stroke: #7f7f7f; stroke-width: 1.8"/>
      </g>
     </g>
     <g id="text_12">
      <!-- 0 -->
      <g style="fill: #7f7f7f" transform="translate(15.579688 127.416683) scale(0.1 -0.1)">
       <use xlink:href="#DejaVuSans-13"/>
      </g>
     </g>
    </g>
    <g id="ytick_6">
     <g id="line2d_12">
      <g>
       <use xlink:href="#mdb30a70af3" x="28.942188" y="97.53659" style="fill: #7f7f7f; stroke: #7f7f7f; stroke-width: 1.8"/>
      </g>
     </g>
     <g id="text_13">
      <!-- 2 -->
      <g style="fill: #7f7f7f" transform="translate(15.579688 101.335418) scale(0.1 -0.1)">
       <use xlink:href="#DejaVuSans-15"/>
      </g>
     </g>
    </g>
    <g id="ytick_7">
     <g id="line2d_13">
      <g>
       <use xlink:href="#mdb30a70af3" x="28.942188" y="71.455324" style="fill: #7f7f7f; stroke: #7f7f7f; stroke-width: 1.8"/>
      </g>
     </g>
     <g id="text_14">
      <!-- 4 -->
      <g style="fill: #7f7f7f" transform="translate(15.579688 75.254152) scale(0.1 -0.1)">
       <use xlink:href="#DejaVuSans-17"/>
      </g>
     </g>
    </g>
    <g id="ytick_8">
     <g id="line2d_14">
      <g>
       <use xlink:href="#mdb30a70af3" x="28.942188" y="45.374059" style="fill: #7f7f7f; stroke: #7f7f7f; stroke-width: 1.8"/>
      </g>
     </g>
     <g id="text_15">
      <!-- 6 -->
      <g style="fill: #7f7f7f" transform="translate(15.579688 49.172887) scale(0.1 -0.1)">
       <use xlink:href="#DejaVuSans-19"/>
      </g>
     </g>
    </g>
    <g id="ytick_9">
     <g id="line2d_15">
      <g>
       <use xlink:href="#mdb30a70af3" x="28.942188" y="19.292793" style="fill: #7f7f7f; stroke: #7f7f7f; stroke-width: 1.8"/>
      </g>
     </g>
     <g id="text_16">
      <!-- 8 -->
      <g style="fill: #7f7f7f" transform="translate(15.579688 23.091621) scale(0.1 -0.1)">
       <use xlink:href="#DejaVuSans-1b"/>
      </g>
     </g>
    </g>
   </g>
   <g id="line2d_16">
    <path d="M 53.153906 123.617855 
L 57.656385 111.61745 
L 59.544522 110.627643 
L 61.142176 112.190262 
L 63.611277 118.214135 
L 70.437617 136.326302 
L 72.180512 136.326302 
L 73.923407 133.769496 
L 77.118715 124.436683 
L 81.911677 111.554263 
L 83.799813 110.643064 
L 85.397467 112.270108 
L 87.866568 118.3637 
L 94.547667 136.248793 
L 96.290562 136.395785 
L 98.033457 133.971993 
L 101.083523 125.25228 
L 106.166968 111.492982 
L 108.055104 110.660535 
L 109.652758 112.351747 
L 112.267101 118.970019 
L 118.657716 136.163305 
L 120.400612 136.457197 
L 122.143507 134.167949 
L 125.048332 126.061426 
L 130.422259 111.433615 
L 132.310395 110.680052 
L 133.908049 112.435165 
L 136.522392 119.123493 
L 142.767766 136.069893 
L 144.510661 136.5105 
L 146.108315 134.628426 
L 148.722658 127.803163 
L 154.822791 111.215476 
L 156.565686 110.701612 
L 158.16334 112.520349 
L 160.777683 119.277678 
L 167.023057 136.117586 
L 168.765953 136.484864 
L 170.508848 134.263436 
L 173.413673 126.2222 
L 178.932841 111.320662 
L 180.820978 110.725211 
L 182.418631 112.607285 
L 185.032974 119.432548 
L 191.133107 136.020234 
L 192.876002 136.534099 
L 194.473656 134.715362 
L 197.087999 127.958033 
L 203.333373 111.118125 
L 205.076269 110.750846 
L 206.819164 112.972275 
L 209.723989 121.013511 
L 215.243157 135.915049 
L 217.131294 136.5105 
L 218.728947 134.628426 
L 221.34329 127.803163 
L 227.443423 111.215476 
L 229.186319 110.701612 
L 230.783972 112.520349 
L 233.398315 119.277678 
L 239.64369 136.117586 
L 241.386585 136.484864 
L 243.12948 134.263436 
L 246.034305 126.2222 
L 251.553473 111.320662 
L 253.44161 110.725211 
L 255.039264 112.607285 
L 257.653606 119.432548 
L 263.753739 136.020234 
L 265.496635 136.534099 
L 267.094288 134.715362 
L 269.708631 127.958033 
L 275.954006 111.118125 
L 277.696901 110.750846 
L 279.439796 112.972275 
L 282.344621 121.013511 
L 287.863789 135.915049 
L 289.751926 136.5105 
L 291.34958 134.628426 
L 293.963922 127.803163 
L 300.064055 111.215476 
L 301.806951 110.701612 
L 303.404605 112.520349 
L 306.018947 119.277678 
L 312.264322 136.117586 
L 314.007217 136.484864 
L 315.750112 134.263436 
L 318.654937 126.2222 
L 324.174105 111.320662 
L 326.062242 110.725211 
L 327.659896 112.607285 
L 330.274238 119.432548 
L 336.374372 136.020234 
L 338.117267 136.534099 
L 339.714921 134.715362 
L 342.329263 127.958033 
L 348.574638 111.118125 
L 350.317533 110.750846 
L 352.060428 112.972275 
L 354.965253 121.013511 
L 360.484421 135.915049 
L 362.372558 136.5105 
L 363.970212 134.628426 
L 366.584554 127.803163 
L 372.684688 111.215476 
L 374.427583 110.701612 
L 376.025237 112.520349 
L 378.639579 119.277678 
L 384.884954 136.117586 
L 386.627849 136.484864 
L 388.370744 134.263436 
L 391.275569 126.2222 
L 396.794737 111.320662 
L 398.682874 110.725211 
L 400.280528 112.607285 
L 402.894871 119.432548 
L 408.995004 136.020234 
L 410.737899 136.534099 
L 412.335553 134.715362 
L 414.949895 127.958033 
L 421.19527 111.118125 
L 422.938165 110.750846 
L 424.68106 112.972275 
L 427.585885 121.013511 
L 433.105054 135.915049 
L 434.99319 136.5105 
L 436.590844 134.628426 
L 439.205187 127.803163 
L 445.30532 111.215476 
L 447.048215 110.701612 
L 448.645869 112.520349 
L 451.260212 119.277678 
L 457.505586 136.117586 
L 459.248481 136.484864 
L 460.991376 134.263436 
L 463.896202 126.2222 
L 469.41537 111.320662 
L 471.303506 110.725211 
L 472.90116 112.607285 
L 475.515503 119.432548 
L 481.615636 136.020234 
L 483.358531 136.534099 
L 484.956185 134.715362 
L 487.570528 127.958033 
L 493.815902 111.118125 
L 495.558797 110.750846 
L 497.301692 112.972275 
L 500.206518 121.013511 
L 505.725686 135.915049 
L 507.613822 136.5105 
L 509.211476 134.628426 
L 511.825819 127.803163 
L 517.925952 111.215476 
L 519.668847 110.701612 
L 521.266501 112.520349 
L 523.880844 119.277678 
L 530.126218 136.117586 
L 531.869113 136.484864 
L 533.612008 134.263436 
L 536.516834 126.2222 
L 537.388281 123.290143 
L 537.388281 123.290143 
" clip-path="url(#pb41e15084b)" style="fill: none; stroke: #e41a1c; stroke-width: 2; stroke-linecap: square"/>
   </g>
   <g id="line2d_17">
    <path d="M 53.153906 123.617855 
L 54.315836 111.814326 
L 58.23735 32.030656 
L 60.270728 21.339119 
L 60.706452 22.06245 
L 63.320795 44.890611 
L 67.097068 143.129594 
L 69.566169 188.727172 
L 72.325753 217.73417 
L 73.051959 216.620547 
L 74.21389 210.716658 
L 76.247267 181.753964 
L 82.928365 24.31932 
L 83.50933 26.272206 
L 84.235537 25.319059 
L 84.526019 25.228861 
L 84.816502 25.963103 
L 85.397467 29.712542 
L 89.17374 70.411431 
L 95.273873 215.034152 
L 96.871527 220.691517 
L 97.016768 221.002935 
L 97.452492 220.174647 
L 98.904904 203.271248 
L 101.374006 151.614538 
L 104.859796 57.854544 
L 108.926552 23.486379 
L 109.217034 23.943538 
L 110.088482 27.277003 
L 113.28379 65.833974 
L 120.691094 226.827481 
L 121.272059 225.887984 
L 122.433989 217.54997 
L 123.886402 193.575841 
L 125.338815 165.200093 
L 130.277018 39.616235 
L 134.05329 22.467007 
L 134.198532 22.51101 
L 135.215221 27.390419 
L 136.231909 39.623039 
L 138.991493 105.309498 
L 143.058249 206.870145 
L 144.801144 218.219041 
L 145.091627 217.613061 
L 146.834522 209.913512 
L 150.465553 146.755288 
L 154.968032 29.466696 
L 157.146651 21.378901 
L 157.291893 21.723513 
L 158.599064 33.197015 
L 159.32527 31.964046 
L 159.615753 32.256844 
L 160.632442 46.188031 
L 164.844438 169.859086 
L 167.604022 218.132613 
L 168.330229 218.797212 
L 168.765953 218.239725 
L 169.056435 218.602702 
L 169.492159 217.510762 
L 170.944572 209.823346 
L 173.413673 169.060386 
L 175.592292 106.127163 
L 177.916152 53.660057 
L 180.385254 24.685046 
L 181.692425 21.070726 
L 181.982908 21.393176 
L 184.742492 37.292329 
L 186.630628 89.942268 
L 190.842625 196.954793 
L 192.58552 214.79035 
L 193.021244 215.718633 
L 193.311726 214.266864 
L 197.23324 180.231116 
L 202.607167 45.723815 
L 204.204821 35.249938 
L 205.947716 19.324865 
L 206.38344 20.042966 
L 207.835853 29.529369 
L 209.143024 57.872324 
L 215.824122 213.17419 
L 217.8575 220.072618 
L 218.002741 219.915257 
L 219.745636 209.20769 
L 220.907566 191.173807 
L 223.66715 122.823796 
L 229.041077 23.790222 
L 229.476801 23.605795 
L 229.622042 23.178217 
L 230.203007 21.798055 
L 230.348249 22.658244 
L 233.97928 60.747571 
L 240.079413 209.47438 
L 240.224655 209.441733 
L 241.677067 208.870288 
L 242.258032 208.705962 
L 242.693756 209.01242 
L 243.565204 208.466659 
L 245.743823 177.298081 
L 253.151127 18.790927 
L 253.732092 17.854506 
L 254.022575 18.628597 
L 257.653606 44.703761 
L 265.496635 217.483602 
L 265.787117 218.204911 
L 266.0776 217.191948 
L 266.658565 214.532686 
L 267.23953 215.927036 
L 267.675254 217.161735 
L 267.965736 216.067453 
L 269.127666 193.964242 
L 271.88725 121.970108 
L 275.373041 30.809038 
L 277.115936 23.295591 
L 277.406418 23.977025 
L 281.182691 45.157453 
L 284.232758 121.90091 
L 287.863789 210.692317 
L 289.461443 219.534764 
L 289.751926 220.042349 
L 290.042408 219.0856 
L 293.237716 199.345511 
L 296.142541 137.385885 
L 300.354538 35.060958 
L 302.242674 22.539093 
L 302.387916 22.855965 
L 303.840328 33.075284 
L 307.035636 77.66806 
L 311.828598 205.970455 
L 314.442941 230.939119 
L 314.733423 230.877825 
L 315.459629 230.113374 
L 317.493007 210.048003 
L 319.090661 180.062695 
L 325.336035 27.250624 
L 325.626518 25.850359 
L 326.207483 27.861423 
L 328.967067 33.822942 
L 329.693273 50.316585 
L 336.22913 212.152506 
L 337.681543 219.227566 
L 338.55299 218.416082 
L 338.988714 219.446937 
L 339.133956 219.607768 
L 339.279197 219.073487 
L 341.457816 201.217381 
L 349.446085 26.52986 
L 350.317533 22.279876 
L 350.608015 23.205975 
L 352.931876 27.468357 
L 353.803323 46.608191 
L 362.808282 223.415815 
L 363.82497 225.71156 
L 364.115453 223.762594 
L 366.875037 189.009109 
L 373.265653 36.016042 
L 375.589513 25.823104 
L 375.734754 25.656328 
L 376.025237 26.575151 
L 377.913373 47.770829 
L 379.656268 86.93316 
L 382.996817 169.049886 
L 386.192125 221.493361 
L 387.063573 226.499568 
L 387.789779 226.213513 
L 388.370744 225.397574 
L 390.258881 204.519962 
L 392.001776 167.069387 
L 397.08522 34.999669 
L 397.811426 32.75506 
L 398.101909 33.908306 
L 398.828115 35.668965 
L 399.263839 34.793916 
L 400.425769 29.908408 
L 400.861493 32.069404 
L 403.185353 60.233179 
L 405.07349 120.061448 
L 408.414039 211.263397 
L 410.156934 224.33529 
L 411.754588 228.685391 
L 412.04507 227.96509 
L 412.916518 223.602572 
L 414.223689 207.753339 
L 416.838032 153.515278 
L 422.211959 23.48574 
L 422.502441 23.785607 
L 425.552508 35.087098 
L 429.328781 99.107071 
L 433.686019 214.79563 
L 434.99319 219.393605 
L 435.283672 218.848819 
L 438.043257 206.859261 
L 438.769463 205.217806 
L 439.64091 192.3136 
L 446.322009 23.093308 
L 446.46725 23.132229 
L 447.919662 25.110085 
L 448.210145 25.348578 
L 448.355386 25.851612 
L 450.679246 43.5909 
L 453.148348 87.057215 
L 458.667516 220.835604 
L 460.26517 224.583606 
L 460.991376 219.777974 
L 463.315236 185.830674 
L 470.286817 29.146351 
L 470.432058 29.182311 
L 470.5773 29.287794 
L 470.867782 28.47478 
L 472.174954 23.993697 
L 472.465436 24.056984 
L 472.90116 24.809079 
L 475.951226 62.268167 
L 481.034671 199.209067 
L 483.649013 223.851591 
L 483.939496 223.234709 
L 487.280045 199.123519 
L 495.268315 24.790903 
L 495.704038 25.932059 
L 497.592175 28.00173 
L 498.608864 39.014224 
L 501.223206 91.386664 
L 504.563756 197.072865 
L 506.306651 216.400076 
L 507.178098 218.244005 
L 508.340028 219.268801 
L 509.066235 218.717972 
L 509.356717 219.577474 
L 509.501959 219.821 
L 509.792441 218.744278 
L 511.244854 197.293055 
L 513.568714 147.617536 
L 518.071193 35.141244 
L 520.395053 27.145585 
L 521.12126 26.54436 
L 521.411742 27.126163 
L 522.718914 42.996011 
L 526.349945 130.619262 
L 528.964288 197.447737 
L 530.997666 224.17209 
L 531.288148 222.757188 
L 533.321526 216.429446 
L 533.466767 216.701905 
L 533.75725 216.18433 
L 534.192973 216.004847 
L 534.91918 210.665559 
L 537.097799 166.454234 
L 537.388281 155.691481 
L 537.388281 155.691481 
" clip-path="url(#pb41e15084b)" style="fill: none; stroke: #377eb8; stroke-width: 2; stroke-linecap: square"/>
   </g>
   <g id="patch_3">
    <path d="M 28.942188 241.599141 
L 28.942188 7.2 
" style="fill: none; stroke: #7f7f7f; stroke-width: 1.8; stroke-linejoin: miter; stroke-linecap: square"/>
   </g>
   <g id="patch_4">
    <path d="M 28.942188 241.599141 
L 561.6 241.599141 
" style="fill: none; stroke: #7f7f7f; stroke-width: 1.8; stroke-linejoin: miter; stroke-linecap: square"/>
   </g>
   <g id="legend_1">
    <g id="line2d_18">
     <path d="M 37.942188 211.696016 
L 47.942188 211.696016 
L 57.942188 211.696016 
" style="fill: none; stroke: #e41a1c; stroke-width: 2; stroke-linecap: square"/>
    </g>
    <g id="text_17">
     <!-- Src -->
     <g style="fill: #7f7f7f" transform="translate(65.942188 215.196016) scale(0.1 -0.1)">
      <defs>
       <path id="DejaVuSans-36" d="M 3425 4513 
L 3425 3897 
Q 3066 4069 2747 4153 
Q 2428 4238 2131 4238 
Q 1616 4238 1336 4038 
Q 1056 3838 1056 3469 
Q 1056 3159 1242 3001 
Q 1428 2844 1947 2747 
L 2328 2669 
Q 3034 2534 3370 2195 
Q 3706 1856 3706 1288 
Q 3706 609 3251 259 
Q 2797 -91 1919 -91 
Q 1588 -91 1214 -16 
Q 841 59 441 206 
L 441 856 
Q 825 641 1194 531 
Q 1563 422 1919 422 
Q 2459 422 2753 634 
Q 3047 847 3047 1241 
Q 3047 1584 2836 1778 
Q 2625 1972 2144 2069 
L 1759 2144 
Q 1053 2284 737 2584 
Q 422 2884 422 3419 
Q 422 4038 858 4394 
Q 1294 4750 2059 4750 
Q 2388 4750 2728 4690 
Q 3069 4631 3425 4513 
z
" transform="scale(0.015625)"/>
       <path id="DejaVuSans-55" d="M 2631 2963 
Q 2534 3019 2420 3045 
Q 2306 3072 2169 3072 
Q 1681 3072 1420 2755 
Q 1159 2438 1159 1844 
L 1159 0 
L 581 0 
L 581 3500 
L 1159 3500 
L 1159 2956 
Q 1341 3275 1631 3429 
Q 1922 3584 2338 3584 
Q 2397 3584 2469 3576 
Q 2541 3569 2628 3553 
L 2631 2963 
z
" transform="scale(0.015625)"/>
       <path id="DejaVuSans-46" d="M 3122 3366 
L 3122 2828 
Q 2878 2963 2633 3030 
Q 2388 3097 2138 3097 
Q 1578 3097 1268 2742 
Q 959 2388 959 1747 
Q 959 1106 1268 751 
Q 1578 397 2138 397 
Q 2388 397 2633 464 
Q 2878 531 3122 666 
L 3122 134 
Q 2881 22 2623 -34 
Q 2366 -91 2075 -91 
Q 1284 -91 818 406 
Q 353 903 353 1747 
Q 353 2603 823 3093 
Q 1294 3584 2113 3584 
Q 2378 3584 2631 3529 
Q 2884 3475 3122 3366 
z
" transform="scale(0.015625)"/>
      </defs>
      <use xlink:href="#DejaVuSans-36"/>
      <use xlink:href="#DejaVuSans-55" transform="translate(63.484375 0)"/>
      <use xlink:href="#DejaVuSans-46" transform="translate(102.390625 0)"/>
     </g>
    </g>
    <g id="line2d_19">
     <path d="M 37.942188 226.696797 
L 47.942188 226.696797 
L 57.942188 226.696797 
" style="fill: none; stroke: #377eb8; stroke-width: 2; stroke-linecap: square"/>
    </g>
    <g id="text_18">
     <!-- AMP -->
     <g style="fill: #7f7f7f" transform="translate(65.942188 230.196797) scale(0.1 -0.1)">
      <defs>
       <path id="DejaVuSans-24" d="M 2188 4044 
L 1331 1722 
L 3047 1722 
L 2188 4044 
z
M 1831 4666 
L 2547 4666 
L 4325 0 
L 3669 0 
L 3244 1197 
L 1141 1197 
L 716 0 
L 50 0 
L 1831 4666 
z
" transform="scale(0.015625)"/>
       <path id="DejaVuSans-30" d="M 628 4666 
L 1569 4666 
L 2759 1491 
L 3956 4666 
L 4897 4666 
L 4897 0 
L 4281 0 
L 4281 4097 
L 3078 897 
L 2444 897 
L 1241 4097 
L 1241 0 
L 628 0 
L 628 4666 
z
" transform="scale(0.015625)"/>
       <path id="DejaVuSans-33" d="M 1259 4147 
L 1259 2394 
L 2053 2394 
Q 2494 2394 2734 2622 
Q 2975 2850 2975 3272 
Q 2975 3691 2734 3919 
Q 2494 4147 2053 4147 
L 1259 4147 
z
M 628 4666 
L 2053 4666 
Q 2838 4666 3239 4311 
Q 3641 3956 3641 3272 
Q 3641 2581 3239 2228 
Q 2838 1875 2053 1875 
L 1259 1875 
L 1259 0 
L 628 0 
L 628 4666 
z
" transform="scale(0.015625)"/>
      </defs>
      <use xlink:href="#DejaVuSans-24"/>
      <use xlink:href="#DejaVuSans-30" transform="translate(68.40625 0)"/>
      <use xlink:href="#DejaVuSans-33" transform="translate(154.6875 0)"/>
     </g>
    </g>
   </g>
  </g>
 </g>
 <defs>
  <clipPath id="pb41e15084b">
   <rect x="28.942188" y="7.2" width="532.657812" height="234.399141"/>
  </clipPath>
 </defs>
</svg>
