<?xml version="1.0" encoding="utf-8" standalone="no"?>
<!DOCTYPE svg PUBLIC "-//W3C//DTD SVG 1.1//EN"
  "http://www.w3.org/Graphics/SVG/1.1/DTD/svg11.dtd">
<svg xmlns:xlink="http://www.w3.org/1999/xlink" width="568.8pt" height="280.8pt" viewBox="0 0 568.8 280.8" xmlns="http://www.w3.org/2000/svg" version="1.1">
 <metadata>
  <rdf:RDF xmlns:dc="http://purl.org/dc/elements/1.1/" xmlns:cc="http://creativecommons.org/ns#" xmlns:rdf="http://www.w3.org/1999/02/22-rdf-syntax-ns#">
   <cc:Work>
    <dc:type rdf:resource="http://purl.org/dc/dcmitype/StillImage"/>
    <dc:date>2026-06-19T07:56:58.566543</dc:date>
    <dc:format>image/svg+xml</dc:format>
    <dc:creator>
     <cc:Agent>
      <dc:title>Matplotlib v3.11.0, https://matplotlib.org/</dc:title>
     </cc:Agent>
    </dc:creator>
   </cc:Work>
  </rdf:RDF>
 </metadata>
 <defs>
  <style type="text/css">*{stroke-linejoin: round; stroke-linecap: butt}</style>
 </defs>
 <g id="figure_1">
  <g id="patch_1">
   <path d="M 0 280.8 
L 568.8 280.8 
L 568.8 0 
L 0 0 
L 0 280.8 
z
" style="fill: none"/>
  </g>
  <g id="axes_1">
   <g id="patch_2">
    <path d="M 28.942188 241.599141 
L 561.6 241.599141 
L 561.6 7.2 
L 28.942188 7.2 
L 28.942188 241.599141 
z
" style="fill: none"/>
   </g>
   <g id="matplotlib.axis_1">
    <g id="xtick_1">
     <g id="line2d_1">
      <defs>
       <path id="mc70ad2e018" d="M 0 0 
L 0 3.5 
" style="stroke: #7f7f7f; stroke-width: 1.8"/>
      </defs>
      <g>
       <use xlink:href="#mc70ad2e018" x="53.153906" y="241.599141" style="fill: #7f7f7f; stroke: #7f7f7f; stroke-width: 1.8"/>
      </g>
     </g>
     <g id="text_1">
      <!-- 0.00000 -->
      <g style="fill: #7f7f7f" transform="translate(32.477344 256.196797) scale(0.1 -0.1)">
       <defs>
        <path id="DejaVuSans-13" d="M 2034 4250 
Q 1547 4250 1301 3770 
Q 1056 3291 1056 2328 
Q 1056 1369 1301 889 
Q 1547 409 2034 409 
Q 2525 409 2770 889 
Q 3016 1369 3016 2328 
Q 3016 3291 2770 3770 
Q 2525 4250 2034 4250 
z
M 2034 4750 
Q 2819 4750 3233 4129 
Q 3647 3509 3647 2328 
Q 3647 1150 3233 529 
Q 2819 -91 2034 -91 
Q 1250 -91 836 529 
Q 422 1150 422 2328 
Q 422 3509 836 4129 
Q 1250 4750 2034 4750 
z
" transform="scale(0.015625)"/>
        <path id="DejaVuSans-11" d="M 684 794 
L 1344 794 
L 1344 0 
L 684 0 
L 684 794 
z
" transform="scale(0.015625)"/>
       </defs>
       <use xlink:href="#DejaVuSans-13"/>
       <use xlink:href="#DejaVuSans-11" transform="translate(63.625 0)"/>
       <use xlink:href="#DejaVuSans-13" transform="translate(95.40625 0)"/>
       <use xlink:href="#DejaVuSans-13" transform="translate(159.03125 0)"/>
       <use xlink:href="#DejaVuSans-13" transform="translate(222.65625 0)"/>
       <use xlink:href="#DejaVuSans-13" transform="translate(286.28125 0)"/>
       <use xlink:href="#DejaVuSans-13" transform="translate(349.90625 0)"/>
      </g>
     </g>
    </g>
    <g id="xtick_2">
     <g id="line2d_2">
      <g>
       <use xlink:href="#mc70ad2e018" x="149.981416" y="241.599141" style="fill: #7f7f7f; stroke: #7f7f7f; stroke-width: 1.8"/>
      </g>
     </g>
     <g id="text_2">
      <!-- 0.00002 -->
      <g style="fill: #7f7f7f" transform="translate(129.304853 256.196797) scale(0.1 -0.1)">
       <defs>
        <path id="DejaVuSans-15" d="M 1228 531 
L 3431 531 
L 3431 0 
L 469 0 
L 469 531 
Q 828 903 1448 1529 
Q 2069 2156 2228 2338 
Q 2531 2678 2651 2914 
Q 2772 3150 2772 3378 
Q 2772 3750 2511 3984 
Q 2250 4219 1831 4219 
Q 1534 4219 1204 4116 
Q 875 4013 500 3803 
L 500 4441 
Q 881 4594 1212 4672 
Q 1544 4750 1819 4750 
Q 2544 4750 2975 4387 
Q 3406 4025 3406 3419 
Q 3406 3131 3298 2873 
Q 3191 2616 2906 2266 
Q 2828 2175 2409 1742 
Q 1991 1309 1228 531 
z
" transform="scale(0.015625)"/>
       </defs>
       <use xlink:href="#DejaVuSans-13"/>
       <use xlink:href="#DejaVuSans-11" transform="translate(63.625 0)"/>
       <use xlink:href="#DejaVuSans-13" transform="translate(95.40625 0)"/>
       <use xlink:href="#DejaVuSans-13" transform="translate(159.03125 0)"/>
       <use xlink:href="#DejaVuSans-13" transform="translate(222.65625 0)"/>
       <use xlink:href="#DejaVuSans-13" transform="translate(286.28125 0)"/>
       <use xlink:href="#DejaVuSans-15" transform="translate(349.90625 0)"/>
      </g>
     </g>
    </g>
    <g id="xtick_3">
     <g id="line2d_3">
      <g>
       <use xlink:href="#mc70ad2e018" x="246.808925" y="241.599141" style="fill: #7f7f7f; stroke: #7f7f7f; stroke-width: 1.8"/>
      </g>
     </g>
     <g id="text_3">
      <!-- 0.00004 -->
      <g style="fill: #7f7f7f" transform="translate(226.132363 256.196797) scale(0.1 -0.1)">
       <defs>
        <path id="DejaVuSans-17" d="M 2419 4116 
L 825 1625 
L 2419 1625 
L 2419 4116 
z
M 2253 4666 
L 3047 4666 
L 3047 1625 
L 3713 1625 
L 3713 1100 
L 3047 1100 
L 3047 0 
L 2419 0 
L 2419 1100 
L 313 1100 
L 313 1709 
L 2253 4666 
z
" transform="scale(0.015625)"/>
       </defs>
       <use xlink:href="#DejaVuSans-13"/>
       <use xlink:href="#DejaVuSans-11" transform="translate(63.625 0)"/>
       <use xlink:href="#DejaVuSans-13" transform="translate(95.40625 0)"/>
       <use xlink:href="#DejaVuSans-13" transform="translate(159.03125 0)"/>
       <use xlink:href="#DejaVuSans-13" transform="translate(222.65625 0)"/>
       <use xlink:href="#DejaVuSans-13" transform="translate(286.28125 0)"/>
       <use xlink:href="#DejaVuSans-17" transform="translate(349.90625 0)"/>
      </g>
     </g>
    </g>
    <g id="xtick_4">
     <g id="line2d_4">
      <g>
       <use xlink:href="#mc70ad2e018" x="343.636435" y="241.599141" style="fill: #7f7f7f; stroke: #7f7f7f; stroke-width: 1.8"/>
      </g>
     </g>
     <g id="text_4">
      <!-- 0.00006 -->
      <g style="fill: #7f7f7f" transform="translate(322.959872 256.196797) scale(0.1 -0.1)">
       <defs>
        <path id="DejaVuSans-19" d="M 2113 2584 
Q 1688 2584 1439 2293 
Q 1191 2003 1191 1497 
Q 1191 994 1439 701 
Q 1688 409 2113 409 
Q 2538 409 2786 701 
Q 3034 994 3034 1497 
Q 3034 2003 2786 2293 
Q 2538 2584 2113 2584 
z
M 3366 4563 
L 3366 3988 
Q 3128 4100 2886 4159 
Q 2644 4219 2406 4219 
Q 1781 4219 1451 3797 
Q 1122 3375 1075 2522 
Q 1259 2794 1537 2939 
Q 1816 3084 2150 3084 
Q 2853 3084 3261 2657 
Q 3669 2231 3669 1497 
Q 3669 778 3244 343 
Q 2819 -91 2113 -91 
Q 1303 -91 875 529 
Q 447 1150 447 2328 
Q 447 3434 972 4092 
Q 1497 4750 2381 4750 
Q 2619 4750 2861 4703 
Q 3103 4656 3366 4563 
z
" transform="scale(0.015625)"/>
       </defs>
       <use xlink:href="#DejaVuSans-13"/>
       <use xlink:href="#DejaVuSans-11" transform="translate(63.625 0)"/>
       <use xlink:href="#DejaVuSans-13" transform="translate(95.40625 0)"/>
       <use xlink:href="#DejaVuSans-13" transform="translate(159.03125 0)"/>
       <use xlink:href="#DejaVuSans-13" transform="translate(222.65625 0)"/>
       <use xlink:href="#DejaVuSans-13" transform="translate(286.28125 0)"/>
       <use xlink:href="#DejaVuSans-19" transform="translate(349.90625 0)"/>
      </g>
     </g>
    </g>
    <g id="xtick_5">
     <g id="line2d_5">
      <g>
       <use xlink:href="#mc70ad2e018" x="440.463944" y="241.599141" style="fill: #7f7f7f; stroke: #7f7f7f; stroke-width: 1.8"/>
      </g>
     </g>
     <g id="text_5">
      <!-- 0.00008 -->
      <g style="fill: #7f7f7f" transform="translate(419.787382 256.196797) scale(0.1 -0.1)">
       <defs>
        <path id="DejaVuSans-1b" d="M 2034 2216 
Q 1584 2216 1326 1975 
Q 1069 1734 1069 1313 
Q 1069 891 1326 650 
Q 1584 409 2034 409 
Q 2484 409 2743 651 
Q 3003 894 3003 1313 
Q 3003 1734 2745 1975 
Q 2488 2216 2034 2216 
z
M 1403 2484 
Q 997 2584 770 2862 
Q 544 3141 544 3541 
Q 544 4100 942 4425 
Q 1341 4750 2034 4750 
Q 2731 4750 3128 4425 
Q 3525 4100 3525 3541 
Q 3525 3141 3298 2862 
Q 3072 2584 2669 2484 
Q 3125 2378 3379 2068 
Q 3634 1759 3634 1313 
Q 3634 634 3220 271 
Q 2806 -91 2034 -91 
Q 1263 -91 848 271 
Q 434 634 434 1313 
Q 434 1759 690 2068 
Q 947 2378 1403 2484 
z
M 1172 3481 
Q 1172 3119 1398 2916 
Q 1625 2713 2034 2713 
Q 2441 2713 2670 2916 
Q 2900 3119 2900 3481 
Q 2900 3844 2670 4047 
Q 2441 4250 2034 4250 
Q 1625 4250 1398 4047 
Q 1172 3844 1172 3481 
z
" transform="scale(0.015625)"/>
       </defs>
       <use xlink:href="#DejaVuSans-13"/>
       <use xlink:href="#DejaVuSans-11" transform="translate(63.625 0)"/>
       <use xlink:href="#DejaVuSans-13" transform="translate(95.40625 0)"/>
       <use xlink:href="#DejaVuSans-13" transform="translate(159.03125 0)"/>
       <use xlink:href="#DejaVuSans-13" transform="translate(222.65625 0)"/>
       <use xlink:href="#DejaVuSans-13" transform="translate(286.28125 0)"/>
       <use xlink:href="#DejaVuSans-1b" transform="translate(349.90625 0)"/>
      </g>
     </g>
    </g>
    <g id="xtick_6">
     <g id="line2d_6">
      <g>
       <use xlink:href="#mc70ad2e018" x="537.291454" y="241.599141" style="fill: #7f7f7f; stroke: #7f7f7f; stroke-width: 1.8"/>
      </g>
     </g>
     <g id="text_6">
      <!-- 0.00010 -->
      <g style="fill: #7f7f7f" transform="translate(516.614891 256.196797) scale(0.1 -0.1)">
       <defs>
        <path id="DejaVuSans-14" d="M 794 531 
L 1825 531 
L 1825 4091 
L 703 3866 
L 703 4441 
L 1819 4666 
L 2450 4666 
L 2450 531 
L 3481 531 
L 3481 0 
L 794 0 
L 794 531 
z
" transform="scale(0.015625)"/>
       </defs>
       <use xlink:href="#DejaVuSans-13"/>
       <use xlink:href="#DejaVuSans-11" transform="translate(63.625 0)"/>
       <use xlink:href="#DejaVuSans-13" transform="translate(95.40625 0)"/>
       <use xlink:href="#DejaVuSans-13" transform="translate(159.03125 0)"/>
       <use xlink:href="#DejaVuSans-13" transform="translate(222.65625 0)"/>
       <use xlink:href="#DejaVuSans-14" transform="translate(286.28125 0)"/>
       <use xlink:href="#DejaVuSans-13" transform="translate(349.90625 0)"/>
      </g>
     </g>
    </g>
    <g id="text_7">
     <!-- time [s] -->
     <g style="fill: #7f7f7f" transform="translate(273.940547 270.957422) scale(0.11 -0.11)">
      <defs>
       <path id="DejaVuSans-57" d="M 1172 4494 
L 1172 3500 
L 2356 3500 
L 2356 3053 
L 1172 3053 
L 1172 1153 
Q 1172 725 1289 603 
Q 1406 481 1766 481 
L 2356 481 
L 2356 0 
L 1766 0 
Q 1100 0 847 248 
Q 594 497 594 1153 
L 594 3053 
L 172 3053 
L 172 3500 
L 594 3500 
L 594 4494 
L 1172 4494 
z
" transform="scale(0.015625)"/>
       <path id="DejaVuSans-4c" d="M 603 3500 
L 1178 3500 
L 1178 0 
L 603 0 
L 603 3500 
z
M 603 4863 
L 1178 4863 
L 1178 4134 
L 603 4134 
L 603 4863 
z
" transform="scale(0.015625)"/>
       <path id="DejaVuSans-50" d="M 3328 2828 
Q 3544 3216 3844 3400 
Q 4144 3584 4550 3584 
Q 5097 3584 5394 3201 
Q 5691 2819 5691 2113 
L 5691 0 
L 5113 0 
L 5113 2094 
Q 5113 2597 4934 2840 
Q 4756 3084 4391 3084 
Q 3944 3084 3684 2787 
Q 3425 2491 3425 1978 
L 3425 0 
L 2847 0 
L 2847 2094 
Q 2847 2600 2669 2842 
Q 2491 3084 2119 3084 
Q 1678 3084 1418 2786 
Q 1159 2488 1159 1978 
L 1159 0 
L 581 0 
L 581 3500 
L 1159 3500 
L 1159 2956 
Q 1356 3278 1631 3431 
Q 1906 3584 2284 3584 
Q 2666 3584 2933 3390 
Q 3200 3197 3328 2828 
z
" transform="scale(0.015625)"/>
       <path id="DejaVuSans-48" d="M 3597 1894 
L 3597 1613 
L 953 1613 
Q 991 1019 1311 708 
Q 1631 397 2203 397 
Q 2534 397 2845 478 
Q 3156 559 3463 722 
L 3463 178 
Q 3153 47 2828 -22 
Q 2503 -91 2169 -91 
Q 1331 -91 842 396 
Q 353 884 353 1716 
Q 353 2575 817 3079 
Q 1281 3584 2069 3584 
Q 2775 3584 3186 3129 
Q 3597 2675 3597 1894 
z
M 3022 2063 
Q 3016 2534 2758 2815 
Q 2500 3097 2075 3097 
Q 1594 3097 1305 2825 
Q 1016 2553 972 2059 
L 3022 2063 
z
" transform="scale(0.015625)"/>
       <path id="DejaVuSans-3" transform="scale(0.015625)"/>
       <path id="DejaVuSans-3e" d="M 550 4863 
L 1875 4863 
L 1875 4416 
L 1125 4416 
L 1125 -397 
L 1875 -397 
L 1875 -844 
L 550 -844 
L 550 4863 
z
" transform="scale(0.015625)"/>
       <path id="DejaVuSans-56" d="M 2834 3397 
L 2834 2853 
Q 2591 2978 2328 3040 
Q 2066 3103 1784 3103 
Q 1356 3103 1142 2972 
Q 928 2841 928 2578 
Q 928 2378 1081 2264 
Q 1234 2150 1697 2047 
L 1894 2003 
Q 2506 1872 2764 1633 
Q 3022 1394 3022 966 
Q 3022 478 2636 193 
Q 2250 -91 1575 -91 
Q 1294 -91 989 -36 
Q 684 19 347 128 
L 347 722 
Q 666 556 975 473 
Q 1284 391 1588 391 
Q 1994 391 2212 530 
Q 2431 669 2431 922 
Q 2431 1156 2273 1281 
Q 2116 1406 1581 1522 
L 1381 1569 
Q 847 1681 609 1914 
Q 372 2147 372 2553 
Q 372 3047 722 3315 
Q 1072 3584 1716 3584 
Q 2034 3584 2315 3537 
Q 2597 3491 2834 3397 
z
" transform="scale(0.015625)"/>
       <path id="DejaVuSans-40" d="M 1947 4863 
L 1947 -844 
L 622 -844 
L 622 -397 
L 1369 -397 
L 1369 4416 
L 622 4416 
L 622 4863 
L 1947 4863 
z
" transform="scale(0.015625)"/>
      </defs>
      <use xlink:href="#DejaVuSans-57"/>
      <use xlink:href="#DejaVuSans-4c" transform="translate(39.203125 0)"/>
      <use xlink:href="#DejaVuSans-50" transform="translate(66.984375 0)"/>
      <use xlink:href="#DejaVuSans-48" transform="translate(164.390625 0)"/>
      <use xlink:href="#DejaVuSans-3" transform="translate(225.921875 0)"/>
      <use xlink:href="#DejaVuSans-3e" transform="translate(257.703125 0)"/>
      <use xlink:href="#DejaVuSans-56" transform="translate(296.71875 0)"/>
      <use xlink:href="#DejaVuSans-40" transform="translate(348.8125 0)"/>
     </g>
    </g>
   </g>
   <g id="matplotlib.axis_2">
    <g id="ytick_1">
     <g id="line2d_7">
      <defs>
       <path id="m84830ef6f2" d="M 0 0 
L -3.5 0 
" style="stroke: #7f7f7f; stroke-width: 1.8"/>
      </defs>
      <g>
       <use xlink:href="#m84830ef6f2" x="28.942188" y="231.557003" style="fill: #7f7f7f; stroke: #7f7f7f; stroke-width: 1.8"/>
      </g>
     </g>
     <g id="text_8">
      <!-- −8 -->
      <g style="fill: #7f7f7f" transform="translate(7.2 235.355831) scale(0.1 -0.1)">
       <defs>
        <path id="DejaVuSans-c9c" d="M 678 2272 
L 4684 2272 
L 4684 1741 
L 678 1741 
L 678 2272 
z
" transform="scale(0.015625)"/>
       </defs>
       <use xlink:href="#DejaVuSans-c9c"/>
       <use xlink:href="#DejaVuSans-1b" transform="translate(83.796875 0)"/>
      </g>
     </g>
    </g>
    <g id="ytick_2">
     <g id="line2d_8">
      <g>
       <use xlink:href="#m84830ef6f2" x="28.942188" y="205.16504" style="fill: #7f7f7f; stroke: #7f7f7f; stroke-width: 1.8"/>
      </g>
     </g>
     <g id="text_9">
      <!-- −6 -->
      <g style="fill: #7f7f7f" transform="translate(7.2 208.963868) scale(0.1 -0.1)">
       <use xlink:href="#DejaVuSans-c9c"/>
       <use xlink:href="#DejaVuSans-19" transform="translate(83.796875 0)"/>
      </g>
     </g>
    </g>
    <g id="ytick_3">
     <g id="line2d_9">
      <g>
       <use xlink:href="#m84830ef6f2" x="28.942188" y="178.773077" style="fill: #7f7f7f; stroke: #7f7f7f; stroke-width: 1.8"/>
      </g>
     </g>
     <g id="text_10">
      <!-- −4 -->
      <g style="fill: #7f7f7f" transform="translate(7.2 182.571905) scale(0.1 -0.1)">
       <use xlink:href="#DejaVuSans-c9c"/>
       <use xlink:href="#DejaVuSans-17" transform="translate(83.796875 0)"/>
      </g>
     </g>
    </g>
    <g id="ytick_4">
     <g id="line2d_10">
      <g>
       <use xlink:href="#m84830ef6f2" x="28.942188" y="152.381114" style="fill: #7f7f7f; stroke: #7f7f7f; stroke-width: 1.8"/>
      </g>
     </g>
     <g id="text_11">
      <!-- −2 -->
      <g style="fill: #7f7f7f" transform="translate(7.2 156.179942) scale(0.1 -0.1)">
       <use xlink:href="#DejaVuSans-c9c"/>
       <use xlink:href="#DejaVuSans-15" transform="translate(83.796875 0)"/>
      </g>
     </g>
    </g>
    <g id="ytick_5">
     <g id="line2d_11">
      <g>
       <use xlink:href="#m84830ef6f2" x="28.942188" y="125.989151" style="fill: #7f7f7f; stroke: #7f7f7f; stroke-width: 1.8"/>
      </g>
     </g>
     <g id="text_12">
      <!-- 0 -->
      <g style="fill: #7f7f7f" transform="translate(15.579688 129.78798) scale(0.1 -0.1)">
       <use xlink:href="#DejaVuSans-13"/>
      </g>
     </g>
    </g>
    <g id="ytick_6">
     <g id="line2d_12">
      <g>
       <use xlink:href="#m84830ef6f2" x="28.942188" y="99.597189" style="fill: #7f7f7f; stroke: #7f7f7f; stroke-width: 1.8"/>
      </g>
     </g>
     <g id="text_13">
      <!-- 2 -->
      <g style="fill: #7f7f7f" transform="translate(15.579688 103.396017) scale(0.1 -0.1)">
       <use xlink:href="#DejaVuSans-15"/>
      </g>
     </g>
    </g>
    <g id="ytick_7">
     <g id="line2d_13">
      <g>
       <use xlink:href="#m84830ef6f2" x="28.942188" y="73.205226" style="fill: #7f7f7f; stroke: #7f7f7f; stroke-width: 1.8"/>
      </g>
     </g>
     <g id="text_14">
      <!-- 4 -->
      <g style="fill: #7f7f7f" transform="translate(15.579688 77.004054) scale(0.1 -0.1)">
       <use xlink:href="#DejaVuSans-17"/>
      </g>
     </g>
    </g>
    <g id="ytick_8">
     <g id="line2d_14">
      <g>
       <use xlink:href="#m84830ef6f2" x="28.942188" y="46.813263" style="fill: #7f7f7f; stroke: #7f7f7f; stroke-width: 1.8"/>
      </g>
     </g>
     <g id="text_15">
      <!-- 6 -->
      <g style="fill: #7f7f7f" transform="translate(15.579688 50.612091) scale(0.1 -0.1)">
       <use xlink:href="#DejaVuSans-19"/>
      </g>
     </g>
    </g>
    <g id="ytick_9">
     <g id="line2d_15">
      <g>
       <use xlink:href="#m84830ef6f2" x="28.942188" y="20.4213" style="fill: #7f7f7f; stroke: #7f7f7f; stroke-width: 1.8"/>
      </g>
     </g>
     <g id="text_16">
      <!-- 8 -->
      <g style="fill: #7f7f7f" transform="translate(15.579688 24.220128) scale(0.1 -0.1)">
       <use xlink:href="#DejaVuSans-1b"/>
      </g>
     </g>
    </g>
   </g>
   <g id="line2d_16">
    <path d="M 53.153906 125.989151 
L 57.656385 113.845789 
L 59.544522 112.844191 
L 61.142176 114.425425 
L 63.611277 120.521059 
L 70.437617 138.84899 
L 72.035271 138.951396 
L 73.778166 136.566615 
L 76.682991 128.298752 
L 82.056918 113.601637 
L 83.945054 112.919041 
L 85.542708 114.759444 
L 88.157051 121.597271 
L 94.402425 138.637787 
L 96.14532 139.009441 
L 97.888216 136.761549 
L 100.793041 128.624521 
L 106.312209 113.545466 
L 108.200345 112.942921 
L 109.797999 114.847416 
L 112.412342 121.753986 
L 118.512475 138.539276 
L 120.25537 139.059262 
L 121.853024 137.218859 
L 124.467367 130.381032 
L 130.712741 113.340516 
L 132.455637 112.968862 
L 134.198532 115.216754 
L 137.103357 123.353782 
L 142.622525 138.432837 
L 144.510661 139.035382 
L 146.108315 137.130887 
L 148.722658 130.224317 
L 154.822791 113.439027 
L 156.565686 112.919041 
L 158.16334 114.759444 
L 160.777683 121.597271 
L 167.023057 138.637787 
L 168.765953 139.009441 
L 170.508848 136.761549 
L 173.413673 128.624521 
L 178.932841 113.545466 
L 180.820978 112.942921 
L 182.418631 114.847416 
L 185.032974 121.753986 
L 191.133107 138.539276 
L 192.876002 139.059262 
L 194.473656 137.218859 
L 197.087999 130.381032 
L 203.333373 113.340516 
L 205.076269 112.968862 
L 206.819164 115.216754 
L 209.723989 123.353782 
L 215.243157 138.432837 
L 217.131294 139.035382 
L 218.728947 137.130887 
L 221.34329 130.224317 
L 227.443423 113.439027 
L 229.186319 112.919041 
L 230.783972 114.759444 
L 233.398315 121.597271 
L 239.64369 138.637787 
L 241.386585 139.009441 
L 243.12948 136.761549 
L 246.034305 128.624521 
L 251.553473 113.545466 
L 253.44161 112.942921 
L 255.039264 114.847416 
L 257.653606 121.753986 
L 263.753739 138.539276 
L 265.496635 139.059262 
L 267.094288 137.218859 
L 269.708631 130.381032 
L 275.954006 113.340516 
L 277.696901 112.968862 
L 279.439796 115.216754 
L 282.344621 123.353782 
L 287.863789 138.432837 
L 289.751926 139.035382 
L 291.34958 137.130887 
L 293.963922 130.224317 
L 300.064055 113.439027 
L 301.806951 112.919041 
L 303.404605 114.759444 
L 306.018947 121.597271 
L 312.264322 138.637787 
L 314.007217 139.009441 
L 315.750112 136.761549 
L 318.654937 128.624521 
L 324.174105 113.545466 
L 326.062242 112.942921 
L 327.659896 114.847416 
L 330.274238 121.753986 
L 336.374372 138.539276 
L 338.117267 139.059262 
L 339.714921 137.218859 
L 342.329263 130.381032 
L 348.574638 113.340516 
L 350.317533 112.968862 
L 352.060428 115.216754 
L 354.965253 123.353782 
L 360.484421 138.432837 
L 362.372558 139.035382 
L 363.970212 137.130887 
L 366.584554 130.224317 
L 372.684688 113.439027 
L 374.427583 112.919041 
L 376.025237 114.759444 
L 378.639579 121.597271 
L 384.884954 138.637787 
L 386.627849 139.009441 
L 388.370744 136.761549 
L 391.275569 128.624521 
L 396.794737 113.545466 
L 398.682874 112.942921 
L 400.280528 114.847416 
L 402.894871 121.753986 
L 408.995004 138.539276 
L 410.737899 139.059262 
L 412.335553 137.218859 
L 414.949895 130.381032 
L 421.19527 113.340516 
L 422.938165 112.968862 
L 424.68106 115.216754 
L 427.585885 123.353782 
L 433.105054 138.432837 
L 434.99319 139.035382 
L 436.590844 137.130887 
L 439.205187 130.224317 
L 445.30532 113.439027 
L 447.048215 112.919041 
L 448.645869 114.759444 
L 451.260212 121.597271 
L 457.505586 138.637787 
L 459.248481 139.009441 
L 460.991376 136.761549 
L 463.896202 128.624521 
L 469.41537 113.545466 
L 471.303506 112.942921 
L 472.90116 114.847416 
L 475.515503 121.753986 
L 481.615636 138.539276 
L 483.358531 139.059262 
L 484.956185 137.218859 
L 487.570528 130.381032 
L 493.815902 113.340516 
L 495.558797 112.968862 
L 497.301692 115.216754 
L 500.206518 123.353782 
L 505.725686 138.432837 
L 507.613822 139.035382 
L 509.211476 137.130887 
L 511.825819 130.224317 
L 517.925952 113.439027 
L 519.668847 112.919041 
L 521.266501 114.759444 
L 523.880844 121.597271 
L 530.126218 138.637787 
L 531.869113 139.009441 
L 533.612008 136.761549 
L 536.516834 128.624521 
L 537.388281 125.657535 
L 537.388281 125.657535 
" clip-path="url(#pd3f39d0a1f)" style="fill: none; stroke: #e41a1c; stroke-width: 2; stroke-linecap: square"/>
   </g>
   <g id="line2d_17">
    <path d="M 53.153906 125.989151 
L 53.880113 124.898491 
L 54.75156 109.998943 
L 58.23735 46.558327 
L 61.5779 33.220762 
L 61.868382 33.711861 
L 62.594588 39.911826 
L 65.354172 108.958562 
L 68.404239 191.713583 
L 71.163823 225.420876 
L 71.309064 225.851343 
L 71.890029 224.510018 
L 74.359131 217.556837 
L 75.811543 205.002532 
L 78.86161 113.49084 
L 82.3474 41.892034 
L 84.816502 26.910241 
L 84.961743 27.044282 
L 86.995121 38.0176 
L 88.738016 72.889154 
L 93.530978 205.535308 
L 95.564355 230.724125 
L 97.016768 226.276584 
L 97.452492 227.338032 
L 98.033457 229.600842 
L 98.469181 228.673605 
L 99.776352 215.003626 
L 101.954971 166.274644 
L 104.859796 87.044705 
L 108.200345 32.257554 
L 108.636069 30.72667 
L 109.071793 31.854062 
L 111.831377 53.377461 
L 115.60765 162.856767 
L 117.641028 202.256219 
L 119.964888 225.83669 
L 121.4173 225.331737 
L 121.998266 224.614735 
L 124.467367 216.315924 
L 125.484056 196.470006 
L 130.857983 41.2125 
L 133.908049 31.016985 
L 134.198532 30.512588 
L 134.343773 31.365365 
L 137.539081 82.0641 
L 143.348731 212.030325 
L 143.929696 212.829051 
L 146.544039 223.210454 
L 146.834522 222.398507 
L 148.432176 205.489197 
L 155.548998 39.731683 
L 157.727617 24.514012 
L 157.872858 24.926759 
L 159.32527 37.910467 
L 161.649131 66.504723 
L 163.246785 124.953153 
L 166.006369 194.994273 
L 168.765953 219.745982 
L 169.492159 222.543503 
L 169.927883 220.894229 
L 171.96126 202.726384 
L 179.513806 21.924077 
L 180.530495 25.114083 
L 181.692425 26.349974 
L 181.837666 25.902858 
L 182.27339 24.462915 
L 182.709114 25.75296 
L 184.306768 37.244838 
L 187.356834 112.789391 
L 190.842625 209.964388 
L 192.58552 221.886963 
L 194.037933 226.123712 
L 194.618898 224.091572 
L 197.23324 195.024012 
L 203.769097 30.099145 
L 204.204821 28.888024 
L 205.076269 26.280157 
L 205.366751 27.032557 
L 206.238199 28.020169 
L 207.835853 31.840633 
L 210.304954 74.190658 
L 217.131294 224.459303 
L 217.567017 223.800067 
L 218.002741 223.091196 
L 220.326601 205.515403 
L 222.940944 141.479193 
L 225.991011 64.503889 
L 228.024388 35.279035 
L 229.912525 29.440287 
L 230.49349 28.472793 
L 231.800661 26.383789 
L 232.091144 27.331923 
L 233.253074 55.560568 
L 239.788931 214.994883 
L 241.531826 229.005845 
L 242.112791 230.944634 
L 242.403274 230.149227 
L 243.855686 221.024864 
L 244.29141 221.848939 
L 244.436651 222.075042 
L 244.727134 220.745633 
L 245.598581 204.186924 
L 252.715403 33.098851 
L 253.44161 28.484649 
L 253.877333 30.044304 
L 256.491676 47.038881 
L 259.686984 120.710232 
L 262.156086 191.11644 
L 264.334704 220.807149 
L 266.0776 224.055905 
L 266.513323 224.36747 
L 266.949047 223.759432 
L 267.820495 218.283508 
L 273.630145 91.39595 
L 276.825453 30.949983 
L 278.132625 24.583824 
L 278.423107 25.747191 
L 278.71359 26.711163 
L 279.439796 26.298622 
L 279.585037 26.258891 
L 279.730278 26.951949 
L 282.054139 58.610018 
L 283.651793 113.595368 
L 286.266135 187.482963 
L 289.897167 226.927687 
L 290.913856 228.395744 
L 291.059097 228.005784 
L 292.51151 213.470235 
L 295.271094 159.21566 
L 300.354538 33.157891 
L 301.080744 28.740736 
L 302.533157 24.764899 
L 303.259363 23.780934 
L 303.549846 24.842629 
L 307.47136 75.497785 
L 311.683357 198.042073 
L 314.007217 218.464245 
L 314.297699 220.266415 
L 315.023906 218.538385 
L 316.476318 213.40807 
L 318.94542 169.022982 
L 324.319347 35.935444 
L 326.207483 24.99107 
L 326.352724 25.104796 
L 326.933689 24.60389 
L 327.950378 23.110444 
L 328.095619 23.334441 
L 328.676585 29.668754 
L 333.324305 150.277766 
L 335.938648 205.822471 
L 337.972025 225.639727 
L 338.117267 225.605747 
L 340.876851 217.428097 
L 344.072159 149.93555 
L 347.557949 45.899729 
L 349.736568 20.321522 
L 350.753257 17.854506 
L 351.18898 19.015455 
L 352.060428 23.914129 
L 352.931876 38.061949 
L 362.953523 222.608959 
L 363.244005 222.777166 
L 363.679729 222.002007 
L 363.970212 221.884388 
L 364.115453 221.091099 
L 366.729796 184.047466 
L 373.846618 34.344412 
L 374.718065 29.646354 
L 375.153789 31.586327 
L 377.768132 41.065948 
L 380.382475 87.703297 
L 384.884954 212.56966 
L 386.77309 222.21373 
L 386.918331 222.011557 
L 389.09695 211.046472 
L 392.292258 159.741328 
L 397.811426 25.14268 
L 398.682874 20.341837 
L 399.118598 20.745068 
L 400.135287 21.969976 
L 400.57101 21.803871 
L 401.151975 25.524509 
L 402.313906 44.533469 
L 408.123556 185.740138 
L 410.302175 216.606566 
L 411.609346 223.115482 
L 412.190311 221.201334 
L 412.626035 219.496804 
L 415.530861 157.994347 
L 419.307133 61.597379 
L 422.066717 25.548321 
L 422.502441 22.501119 
L 422.938165 25.39502 
L 424.68106 32.045279 
L 425.116784 31.463412 
L 425.407267 30.901222 
L 425.84299 31.894356 
L 426.278714 36.815345 
L 430.200228 139.352348 
L 433.686019 213.413468 
L 434.99319 221.392462 
L 435.428914 219.582256 
L 437.31705 210.059134 
L 438.914704 200.568287 
L 446.46725 29.479472 
L 448.210145 23.840923 
L 448.355386 24.131258 
L 448.936351 25.948046 
L 450.243523 38.89367 
L 459.393722 217.784499 
L 459.538964 217.513649 
L 459.829446 216.907045 
L 460.26517 218.374009 
L 460.846135 218.274777 
L 460.991376 217.65055 
L 462.008065 207.285569 
L 470.867782 24.735913 
L 471.884471 25.339084 
L 472.174954 24.555187 
L 472.610677 23.809861 
L 472.90116 24.584445 
L 475.805985 58.526344 
L 476.967915 86.275324 
L 481.034671 201.159999 
L 483.794255 221.946877 
L 484.810944 223.036647 
L 484.956185 222.950906 
L 485.827632 217.930089 
L 488.877699 175.416904 
L 493.380178 47.758046 
L 495.268315 27.194095 
L 495.413556 27.368577 
L 497.592175 30.020952 
L 497.737416 29.878144 
L 497.882657 29.783462 
L 498.027899 30.407661 
L 498.899346 40.695238 
L 501.513689 95.741236 
L 506.597133 222.046778 
L 508.194787 225.370095 
L 508.48527 225.588414 
L 508.775752 224.569698 
L 512.116301 182.522935 
L 518.652158 31.160469 
L 520.540295 21.364373 
L 520.976018 24.047133 
L 525.623739 85.805559 
L 527.076151 144.899359 
L 529.25477 203.567954 
L 531.288148 222.568653 
L 532.304837 220.94156 
L 533.321526 215.891937 
L 533.75725 216.388079 
L 534.047732 215.620544 
L 535.209662 199.996813 
L 537.388281 160.75885 
L 537.388281 160.75885 
" clip-path="url(#pd3f39d0a1f)" style="fill: none; stroke: #377eb8; stroke-width: 2; stroke-linecap: square"/>
   </g>
   <g id="patch_3">
    <path d="M 28.942188 241.599141 
L 28.942188 7.2 
" style="fill: none; stroke: #7f7f7f; stroke-width: 1.8; stroke-linejoin: miter; stroke-linecap: square"/>
   </g>
   <g id="patch_4">
    <path d="M 28.942188 241.599141 
L 561.6 241.599141 
" style="fill: none; stroke: #7f7f7f; stroke-width: 1.8; stroke-linejoin: miter; stroke-linecap: square"/>
   </g>
   <g id="legend_1">
    <g id="line2d_18">
     <path d="M 503.101562 20.298438 
L 513.101562 20.298438 
L 523.101562 20.298438 
" style="fill: none; stroke: #e41a1c; stroke-width: 2; stroke-linecap: square"/>
    </g>
    <g id="text_17">
     <!-- Src -->
     <g style="fill: #7f7f7f" transform="translate(531.101562 23.798438) scale(0.1 -0.1)">
      <defs>
       <path id="DejaVuSans-36" d="M 3425 4513 
L 3425 3897 
Q 3066 4069 2747 4153 
Q 2428 4238 2131 4238 
Q 1616 4238 1336 4038 
Q 1056 3838 1056 3469 
Q 1056 3159 1242 3001 
Q 1428 2844 1947 2747 
L 2328 2669 
Q 3034 2534 3370 2195 
Q 3706 1856 3706 1288 
Q 3706 609 3251 259 
Q 2797 -91 1919 -91 
Q 1588 -91 1214 -16 
Q 841 59 441 206 
L 441 856 
Q 825 641 1194 531 
Q 1563 422 1919 422 
Q 2459 422 2753 634 
Q 3047 847 3047 1241 
Q 3047 1584 2836 1778 
Q 2625 1972 2144 2069 
L 1759 2144 
Q 1053 2284 737 2584 
Q 422 2884 422 3419 
Q 422 4038 858 4394 
Q 1294 4750 2059 4750 
Q 2388 4750 2728 4690 
Q 3069 4631 3425 4513 
z
" transform="scale(0.015625)"/>
       <path id="DejaVuSans-55" d="M 2631 2963 
Q 2534 3019 2420 3045 
Q 2306 3072 2169 3072 
Q 1681 3072 1420 2755 
Q 1159 2438 1159 1844 
L 1159 0 
L 581 0 
L 581 3500 
L 1159 3500 
L 1159 2956 
Q 1341 3275 1631 3429 
Q 1922 3584 2338 3584 
Q 2397 3584 2469 3576 
Q 2541 3569 2628 3553 
L 2631 2963 
z
" transform="scale(0.015625)"/>
       <path id="DejaVuSans-46" d="M 3122 3366 
L 3122 2828 
Q 2878 2963 2633 3030 
Q 2388 3097 2138 3097 
Q 1578 3097 1268 2742 
Q 959 2388 959 1747 
Q 959 1106 1268 751 
Q 1578 397 2138 397 
Q 2388 397 2633 464 
Q 2878 531 3122 666 
L 3122 134 
Q 2881 22 2623 -34 
Q 2366 -91 2075 -91 
Q 1284 -91 818 406 
Q 353 903 353 1747 
Q 353 2603 823 3093 
Q 1294 3584 2113 3584 
Q 2378 3584 2631 3529 
Q 2884 3475 3122 3366 
z
" transform="scale(0.015625)"/>
      </defs>
      <use xlink:href="#DejaVuSans-36"/>
      <use xlink:href="#DejaVuSans-55" transform="translate(63.484375 0)"/>
      <use xlink:href="#DejaVuSans-46" transform="translate(102.390625 0)"/>
     </g>
    </g>
    <g id="line2d_19">
     <path d="M 503.101562 35.299219 
L 513.101562 35.299219 
L 523.101562 35.299219 
" style="fill: none; stroke: #377eb8; stroke-width: 2; stroke-linecap: square"/>
    </g>
    <g id="text_18">
     <!-- AMP -->
     <g style="fill: #7f7f7f" transform="translate(531.101562 38.799219) scale(0.1 -0.1)">
      <defs>
       <path id="DejaVuSans-24" d="M 2188 4044 
L 1331 1722 
L 3047 1722 
L 2188 4044 
z
M 1831 4666 
L 2547 4666 
L 4325 0 
L 3669 0 
L 3244 1197 
L 1141 1197 
L 716 0 
L 50 0 
L 1831 4666 
z
" transform="scale(0.015625)"/>
       <path id="DejaVuSans-30" d="M 628 4666 
L 1569 4666 
L 2759 1491 
L 3956 4666 
L 4897 4666 
L 4897 0 
L 4281 0 
L 4281 4097 
L 3078 897 
L 2444 897 
L 1241 4097 
L 1241 0 
L 628 0 
L 628 4666 
z
" transform="scale(0.015625)"/>
       <path id="DejaVuSans-33" d="M 1259 4147 
L 1259 2394 
L 2053 2394 
Q 2494 2394 2734 2622 
Q 2975 2850 2975 3272 
Q 2975 3691 2734 3919 
Q 2494 4147 2053 4147 
L 1259 4147 
z
M 628 4666 
L 2053 4666 
Q 2838 4666 3239 4311 
Q 3641 3956 3641 3272 
Q 3641 2581 3239 2228 
Q 2838 1875 2053 1875 
L 1259 1875 
L 1259 0 
L 628 0 
L 628 4666 
z
" transform="scale(0.015625)"/>
      </defs>
      <use xlink:href="#DejaVuSans-24"/>
      <use xlink:href="#DejaVuSans-30" transform="translate(68.40625 0)"/>
      <use xlink:href="#DejaVuSans-33" transform="translate(154.6875 0)"/>
     </g>
    </g>
   </g>
  </g>
 </g>
 <defs>
  <clipPath id="pd3f39d0a1f">
   <rect x="28.942188" y="7.2" width="532.657812" height="234.399141"/>
  </clipPath>
 </defs>
</svg>
