<?xml version="1.0" encoding="utf-8" standalone="no"?>
<!DOCTYPE svg PUBLIC "-//W3C//DTD SVG 1.1//EN"
  "http://www.w3.org/Graphics/SVG/1.1/DTD/svg11.dtd">
<svg xmlns:xlink="http://www.w3.org/1999/xlink" width="568.8pt" height="280.8pt" viewBox="0 0 568.8 280.8" xmlns="http://www.w3.org/2000/svg" version="1.1">
 <metadata>
  <rdf:RDF xmlns:dc="http://purl.org/dc/elements/1.1/" xmlns:cc="http://creativecommons.org/ns#" xmlns:rdf="http://www.w3.org/1999/02/22-rdf-syntax-ns#">
   <cc:Work>
    <dc:type rdf:resource="http://purl.org/dc/dcmitype/StillImage"/>
    <dc:date>2026-07-03T19:18:20.114110</dc:date>
    <dc:format>image/svg+xml</dc:format>
    <dc:creator>
     <cc:Agent>
      <dc:title>Matplotlib v3.11.0, https://matplotlib.org/</dc:title>
     </cc:Agent>
    </dc:creator>
   </cc:Work>
  </rdf:RDF>
 </metadata>
 <defs>
  <style type="text/css">*{stroke-linejoin: round; stroke-linecap: butt}</style>
 </defs>
 <g id="figure_1">
  <g id="patch_1">
   <path d="M 0 280.8 
L 568.8 280.8 
L 568.8 0 
L 0 0 
L 0 280.8 
z
" style="fill: none"/>
  </g>
  <g id="axes_1">
   <g id="patch_2">
    <path d="M 44.845313 241.599141 
L 561.6 241.599141 
L 561.6 7.2 
L 44.845313 7.2 
L 44.845313 241.599141 
z
" style="fill: none"/>
   </g>
   <g id="matplotlib.axis_1">
    <g id="xtick_1">
     <g id="line2d_1">
      <path d="M 68.334162 241.599141 
L 68.334162 7.2 
" clip-path="url(#p7cfadd39ee)" style="fill: none; stroke-dasharray: 2.96,1.28; stroke-dashoffset: 0; stroke: #7f7f7f; stroke-opacity: 0.6; stroke-width: 0.8"/>
     </g>
     <g id="line2d_2">
      <defs>
       <path id="me9b68b748b" d="M 0 0 
L 0 3.5 
" style="stroke: #7f7f7f; stroke-width: 1.8"/>
      </defs>
      <g>
       <use xlink:href="#me9b68b748b" x="68.334162" y="241.599141" style="fill: #7f7f7f; stroke: #7f7f7f; stroke-width: 1.8"/>
      </g>
     </g>
     <g id="text_1">
      <!-- 0 -->
      <g style="fill: #7f7f7f" transform="translate(65.152912 256.196797) scale(0.1 -0.1)">
       <defs>
        <path id="DejaVuSans-13" d="M 2034 4250 
Q 1547 4250 1301 3770 
Q 1056 3291 1056 2328 
Q 1056 1369 1301 889 
Q 1547 409 2034 409 
Q 2525 409 2770 889 
Q 3016 1369 3016 2328 
Q 3016 3291 2770 3770 
Q 2525 4250 2034 4250 
z
M 2034 4750 
Q 2819 4750 3233 4129 
Q 3647 3509 3647 2328 
Q 3647 1150 3233 529 
Q 2819 -91 2034 -91 
Q 1250 -91 836 529 
Q 422 1150 422 2328 
Q 422 3509 836 4129 
Q 1250 4750 2034 4750 
z
" transform="scale(0.015625)"/>
       </defs>
       <use xlink:href="#DejaVuSans-13"/>
      </g>
     </g>
    </g>
    <g id="xtick_2">
     <g id="line2d_3">
      <path d="M 162.28956 241.599141 
L 162.28956 7.2 
" clip-path="url(#p7cfadd39ee)" style="fill: none; stroke-dasharray: 2.96,1.28; stroke-dashoffset: 0; stroke: #7f7f7f; stroke-opacity: 0.6; stroke-width: 0.8"/>
     </g>
     <g id="line2d_4">
      <g>
       <use xlink:href="#me9b68b748b" x="162.28956" y="241.599141" style="fill: #7f7f7f; stroke: #7f7f7f; stroke-width: 1.8"/>
      </g>
     </g>
     <g id="text_2">
      <!-- 20 -->
      <g style="fill: #7f7f7f" transform="translate(155.92706 256.196797) scale(0.1 -0.1)">
       <defs>
        <path id="DejaVuSans-15" d="M 1228 531 
L 3431 531 
L 3431 0 
L 469 0 
L 469 531 
Q 828 903 1448 1529 
Q 2069 2156 2228 2338 
Q 2531 2678 2651 2914 
Q 2772 3150 2772 3378 
Q 2772 3750 2511 3984 
Q 2250 4219 1831 4219 
Q 1534 4219 1204 4116 
Q 875 4013 500 3803 
L 500 4441 
Q 881 4594 1212 4672 
Q 1544 4750 1819 4750 
Q 2544 4750 2975 4387 
Q 3406 4025 3406 3419 
Q 3406 3131 3298 2873 
Q 3191 2616 2906 2266 
Q 2828 2175 2409 1742 
Q 1991 1309 1228 531 
z
" transform="scale(0.015625)"/>
       </defs>
       <use xlink:href="#DejaVuSans-15"/>
       <use xlink:href="#DejaVuSans-13" transform="translate(63.625 0)"/>
      </g>
     </g>
    </g>
    <g id="xtick_3">
     <g id="line2d_5">
      <path d="M 256.244957 241.599141 
L 256.244957 7.2 
" clip-path="url(#p7cfadd39ee)" style="fill: none; stroke-dasharray: 2.96,1.28; stroke-dashoffset: 0; stroke: #7f7f7f; stroke-opacity: 0.6; stroke-width: 0.8"/>
     </g>
     <g id="line2d_6">
      <g>
       <use xlink:href="#me9b68b748b" x="256.244957" y="241.599141" style="fill: #7f7f7f; stroke: #7f7f7f; stroke-width: 1.8"/>
      </g>
     </g>
     <g id="text_3">
      <!-- 40 -->
      <g style="fill: #7f7f7f" transform="translate(249.882457 256.196797) scale(0.1 -0.1)">
       <defs>
        <path id="DejaVuSans-17" d="M 2419 4116 
L 825 1625 
L 2419 1625 
L 2419 4116 
z
M 2253 4666 
L 3047 4666 
L 3047 1625 
L 3713 1625 
L 3713 1100 
L 3047 1100 
L 3047 0 
L 2419 0 
L 2419 1100 
L 313 1100 
L 313 1709 
L 2253 4666 
z
" transform="scale(0.015625)"/>
       </defs>
       <use xlink:href="#DejaVuSans-17"/>
       <use xlink:href="#DejaVuSans-13" transform="translate(63.625 0)"/>
      </g>
     </g>
    </g>
    <g id="xtick_4">
     <g id="line2d_7">
      <path d="M 350.200355 241.599141 
L 350.200355 7.2 
" clip-path="url(#p7cfadd39ee)" style="fill: none; stroke-dasharray: 2.96,1.28; stroke-dashoffset: 0; stroke: #7f7f7f; stroke-opacity: 0.6; stroke-width: 0.8"/>
     </g>
     <g id="line2d_8">
      <g>
       <use xlink:href="#me9b68b748b" x="350.200355" y="241.599141" style="fill: #7f7f7f; stroke: #7f7f7f; stroke-width: 1.8"/>
      </g>
     </g>
     <g id="text_4">
      <!-- 60 -->
      <g style="fill: #7f7f7f" transform="translate(343.837855 256.196797) scale(0.1 -0.1)">
       <defs>
        <path id="DejaVuSans-19" d="M 2113 2584 
Q 1688 2584 1439 2293 
Q 1191 2003 1191 1497 
Q 1191 994 1439 701 
Q 1688 409 2113 409 
Q 2538 409 2786 701 
Q 3034 994 3034 1497 
Q 3034 2003 2786 2293 
Q 2538 2584 2113 2584 
z
M 3366 4563 
L 3366 3988 
Q 3128 4100 2886 4159 
Q 2644 4219 2406 4219 
Q 1781 4219 1451 3797 
Q 1122 3375 1075 2522 
Q 1259 2794 1537 2939 
Q 1816 3084 2150 3084 
Q 2853 3084 3261 2657 
Q 3669 2231 3669 1497 
Q 3669 778 3244 343 
Q 2819 -91 2113 -91 
Q 1303 -91 875 529 
Q 447 1150 447 2328 
Q 447 3434 972 4092 
Q 1497 4750 2381 4750 
Q 2619 4750 2861 4703 
Q 3103 4656 3366 4563 
z
" transform="scale(0.015625)"/>
       </defs>
       <use xlink:href="#DejaVuSans-19"/>
       <use xlink:href="#DejaVuSans-13" transform="translate(63.625 0)"/>
      </g>
     </g>
    </g>
    <g id="xtick_5">
     <g id="line2d_9">
      <path d="M 444.155753 241.599141 
L 444.155753 7.2 
" clip-path="url(#p7cfadd39ee)" style="fill: none; stroke-dasharray: 2.96,1.28; stroke-dashoffset: 0; stroke: #7f7f7f; stroke-opacity: 0.6; stroke-width: 0.8"/>
     </g>
     <g id="line2d_10">
      <g>
       <use xlink:href="#me9b68b748b" x="444.155753" y="241.599141" style="fill: #7f7f7f; stroke: #7f7f7f; stroke-width: 1.8"/>
      </g>
     </g>
     <g id="text_5">
      <!-- 80 -->
      <g style="fill: #7f7f7f" transform="translate(437.793253 256.196797) scale(0.1 -0.1)">
       <defs>
        <path id="DejaVuSans-1b" d="M 2034 2216 
Q 1584 2216 1326 1975 
Q 1069 1734 1069 1313 
Q 1069 891 1326 650 
Q 1584 409 2034 409 
Q 2484 409 2743 651 
Q 3003 894 3003 1313 
Q 3003 1734 2745 1975 
Q 2488 2216 2034 2216 
z
M 1403 2484 
Q 997 2584 770 2862 
Q 544 3141 544 3541 
Q 544 4100 942 4425 
Q 1341 4750 2034 4750 
Q 2731 4750 3128 4425 
Q 3525 4100 3525 3541 
Q 3525 3141 3298 2862 
Q 3072 2584 2669 2484 
Q 3125 2378 3379 2068 
Q 3634 1759 3634 1313 
Q 3634 634 3220 271 
Q 2806 -91 2034 -91 
Q 1263 -91 848 271 
Q 434 634 434 1313 
Q 434 1759 690 2068 
Q 947 2378 1403 2484 
z
M 1172 3481 
Q 1172 3119 1398 2916 
Q 1625 2713 2034 2713 
Q 2441 2713 2670 2916 
Q 2900 3119 2900 3481 
Q 2900 3844 2670 4047 
Q 2441 4250 2034 4250 
Q 1625 4250 1398 4047 
Q 1172 3844 1172 3481 
z
" transform="scale(0.015625)"/>
       </defs>
       <use xlink:href="#DejaVuSans-1b"/>
       <use xlink:href="#DejaVuSans-13" transform="translate(63.625 0)"/>
      </g>
     </g>
    </g>
    <g id="xtick_6">
     <g id="line2d_11">
      <path d="M 538.111151 241.599141 
L 538.111151 7.2 
" clip-path="url(#p7cfadd39ee)" style="fill: none; stroke-dasharray: 2.96,1.28; stroke-dashoffset: 0; stroke: #7f7f7f; stroke-opacity: 0.6; stroke-width: 0.8"/>
     </g>
     <g id="line2d_12">
      <g>
       <use xlink:href="#me9b68b748b" x="538.111151" y="241.599141" style="fill: #7f7f7f; stroke: #7f7f7f; stroke-width: 1.8"/>
      </g>
     </g>
     <g id="text_6">
      <!-- 100 -->
      <g style="fill: #7f7f7f" transform="translate(528.567401 256.196797) scale(0.1 -0.1)">
       <defs>
        <path id="DejaVuSans-14" d="M 794 531 
L 1825 531 
L 1825 4091 
L 703 3866 
L 703 4441 
L 1819 4666 
L 2450 4666 
L 2450 531 
L 3481 531 
L 3481 0 
L 794 0 
L 794 531 
z
" transform="scale(0.015625)"/>
       </defs>
       <use xlink:href="#DejaVuSans-14"/>
       <use xlink:href="#DejaVuSans-13" transform="translate(63.625 0)"/>
       <use xlink:href="#DejaVuSans-13" transform="translate(127.25 0)"/>
      </g>
     </g>
    </g>
    <g id="text_7">
     <!-- time [s] -->
     <g style="fill: #7f7f7f" transform="translate(281.892109 270.957422) scale(0.11 -0.11)">
      <defs>
       <path id="DejaVuSans-57" d="M 1172 4494 
L 1172 3500 
L 2356 3500 
L 2356 3053 
L 1172 3053 
L 1172 1153 
Q 1172 725 1289 603 
Q 1406 481 1766 481 
L 2356 481 
L 2356 0 
L 1766 0 
Q 1100 0 847 248 
Q 594 497 594 1153 
L 594 3053 
L 172 3053 
L 172 3500 
L 594 3500 
L 594 4494 
L 1172 4494 
z
" transform="scale(0.015625)"/>
       <path id="DejaVuSans-4c" d="M 603 3500 
L 1178 3500 
L 1178 0 
L 603 0 
L 603 3500 
z
M 603 4863 
L 1178 4863 
L 1178 4134 
L 603 4134 
L 603 4863 
z
" transform="scale(0.015625)"/>
       <path id="DejaVuSans-50" d="M 3328 2828 
Q 3544 3216 3844 3400 
Q 4144 3584 4550 3584 
Q 5097 3584 5394 3201 
Q 5691 2819 5691 2113 
L 5691 0 
L 5113 0 
L 5113 2094 
Q 5113 2597 4934 2840 
Q 4756 3084 4391 3084 
Q 3944 3084 3684 2787 
Q 3425 2491 3425 1978 
L 3425 0 
L 2847 0 
L 2847 2094 
Q 2847 2600 2669 2842 
Q 2491 3084 2119 3084 
Q 1678 3084 1418 2786 
Q 1159 2488 1159 1978 
L 1159 0 
L 581 0 
L 581 3500 
L 1159 3500 
L 1159 2956 
Q 1356 3278 1631 3431 
Q 1906 3584 2284 3584 
Q 2666 3584 2933 3390 
Q 3200 3197 3328 2828 
z
" transform="scale(0.015625)"/>
       <path id="DejaVuSans-48" d="M 3597 1894 
L 3597 1613 
L 953 1613 
Q 991 1019 1311 708 
Q 1631 397 2203 397 
Q 2534 397 2845 478 
Q 3156 559 3463 722 
L 3463 178 
Q 3153 47 2828 -22 
Q 2503 -91 2169 -91 
Q 1331 -91 842 396 
Q 353 884 353 1716 
Q 353 2575 817 3079 
Q 1281 3584 2069 3584 
Q 2775 3584 3186 3129 
Q 3597 2675 3597 1894 
z
M 3022 2063 
Q 3016 2534 2758 2815 
Q 2500 3097 2075 3097 
Q 1594 3097 1305 2825 
Q 1016 2553 972 2059 
L 3022 2063 
z
" transform="scale(0.015625)"/>
       <path id="DejaVuSans-3" transform="scale(0.015625)"/>
       <path id="DejaVuSans-3e" d="M 550 4863 
L 1875 4863 
L 1875 4416 
L 1125 4416 
L 1125 -397 
L 1875 -397 
L 1875 -844 
L 550 -844 
L 550 4863 
z
" transform="scale(0.015625)"/>
       <path id="DejaVuSans-56" d="M 2834 3397 
L 2834 2853 
Q 2591 2978 2328 3040 
Q 2066 3103 1784 3103 
Q 1356 3103 1142 2972 
Q 928 2841 928 2578 
Q 928 2378 1081 2264 
Q 1234 2150 1697 2047 
L 1894 2003 
Q 2506 1872 2764 1633 
Q 3022 1394 3022 966 
Q 3022 478 2636 193 
Q 2250 -91 1575 -91 
Q 1294 -91 989 -36 
Q 684 19 347 128 
L 347 722 
Q 666 556 975 473 
Q 1284 391 1588 391 
Q 1994 391 2212 530 
Q 2431 669 2431 922 
Q 2431 1156 2273 1281 
Q 2116 1406 1581 1522 
L 1381 1569 
Q 847 1681 609 1914 
Q 372 2147 372 2553 
Q 372 3047 722 3315 
Q 1072 3584 1716 3584 
Q 2034 3584 2315 3537 
Q 2597 3491 2834 3397 
z
" transform="scale(0.015625)"/>
       <path id="DejaVuSans-40" d="M 1947 4863 
L 1947 -844 
L 622 -844 
L 622 -397 
L 1369 -397 
L 1369 4416 
L 622 4416 
L 622 4863 
L 1947 4863 
z
" transform="scale(0.015625)"/>
      </defs>
      <use xlink:href="#DejaVuSans-57"/>
      <use xlink:href="#DejaVuSans-4c" transform="translate(39.203125 0)"/>
      <use xlink:href="#DejaVuSans-50" transform="translate(66.984375 0)"/>
      <use xlink:href="#DejaVuSans-48" transform="translate(164.390625 0)"/>
      <use xlink:href="#DejaVuSans-3" transform="translate(225.921875 0)"/>
      <use xlink:href="#DejaVuSans-3e" transform="translate(257.703125 0)"/>
      <use xlink:href="#DejaVuSans-56" transform="translate(296.71875 0)"/>
      <use xlink:href="#DejaVuSans-40" transform="translate(348.8125 0)"/>
     </g>
    </g>
   </g>
   <g id="matplotlib.axis_2">
    <g id="ytick_1">
     <g id="line2d_13">
      <path d="M 44.845313 208.432621 
L 561.6 208.432621 
" clip-path="url(#p7cfadd39ee)" style="fill: none; stroke-dasharray: 2.96,1.28; stroke-dashoffset: 0; stroke: #7f7f7f; stroke-opacity: 0.6; stroke-width: 0.8"/>
     </g>
     <g id="line2d_14">
      <defs>
       <path id="m98c41195c9" d="M 0 0 
L -3.5 0 
" style="stroke: #7f7f7f; stroke-width: 1.8"/>
      </defs>
      <g>
       <use xlink:href="#m98c41195c9" x="44.845313" y="208.432621" style="fill: #7f7f7f; stroke: #7f7f7f; stroke-width: 1.8"/>
      </g>
     </g>
     <g id="text_8">
      <!-- −0.15 -->
      <g style="fill: #7f7f7f" transform="translate(7.2 212.231449) scale(0.1 -0.1)">
       <defs>
        <path id="DejaVuSans-c9c" d="M 678 2272 
L 4684 2272 
L 4684 1741 
L 678 1741 
L 678 2272 
z
" transform="scale(0.015625)"/>
        <path id="DejaVuSans-11" d="M 684 794 
L 1344 794 
L 1344 0 
L 684 0 
L 684 794 
z
" transform="scale(0.015625)"/>
        <path id="DejaVuSans-18" d="M 691 4666 
L 3169 4666 
L 3169 4134 
L 1269 4134 
L 1269 2991 
Q 1406 3038 1543 3061 
Q 1681 3084 1819 3084 
Q 2600 3084 3056 2656 
Q 3513 2228 3513 1497 
Q 3513 744 3044 326 
Q 2575 -91 1722 -91 
Q 1428 -91 1123 -41 
Q 819 9 494 109 
L 494 744 
Q 775 591 1075 516 
Q 1375 441 1709 441 
Q 2250 441 2565 725 
Q 2881 1009 2881 1497 
Q 2881 1984 2565 2268 
Q 2250 2553 1709 2553 
Q 1456 2553 1204 2497 
Q 953 2441 691 2322 
L 691 4666 
z
" transform="scale(0.015625)"/>
       </defs>
       <use xlink:href="#DejaVuSans-c9c"/>
       <use xlink:href="#DejaVuSans-13" transform="translate(83.796875 0)"/>
       <use xlink:href="#DejaVuSans-11" transform="translate(147.421875 0)"/>
       <use xlink:href="#DejaVuSans-14" transform="translate(179.203125 0)"/>
       <use xlink:href="#DejaVuSans-18" transform="translate(242.828125 0)"/>
      </g>
     </g>
    </g>
    <g id="ytick_2">
     <g id="line2d_15">
      <path d="M 44.845313 171.261413 
L 561.6 171.261413 
" clip-path="url(#p7cfadd39ee)" style="fill: none; stroke-dasharray: 2.96,1.28; stroke-dashoffset: 0; stroke: #7f7f7f; stroke-opacity: 0.6; stroke-width: 0.8"/>
     </g>
     <g id="line2d_16">
      <g>
       <use xlink:href="#m98c41195c9" x="44.845313" y="171.261413" style="fill: #7f7f7f; stroke: #7f7f7f; stroke-width: 1.8"/>
      </g>
     </g>
     <g id="text_9">
      <!-- −0.10 -->
      <g style="fill: #7f7f7f" transform="translate(7.2 175.060241) scale(0.1 -0.1)">
       <use xlink:href="#DejaVuSans-c9c"/>
       <use xlink:href="#DejaVuSans-13" transform="translate(83.796875 0)"/>
       <use xlink:href="#DejaVuSans-11" transform="translate(147.421875 0)"/>
       <use xlink:href="#DejaVuSans-14" transform="translate(179.203125 0)"/>
       <use xlink:href="#DejaVuSans-13" transform="translate(242.828125 0)"/>
      </g>
     </g>
    </g>
    <g id="ytick_3">
     <g id="line2d_17">
      <path d="M 44.845313 134.090204 
L 561.6 134.090204 
" clip-path="url(#p7cfadd39ee)" style="fill: none; stroke-dasharray: 2.96,1.28; stroke-dashoffset: 0; stroke: #7f7f7f; stroke-opacity: 0.6; stroke-width: 0.8"/>
     </g>
     <g id="line2d_18">
      <g>
       <use xlink:href="#m98c41195c9" x="44.845313" y="134.090204" style="fill: #7f7f7f; stroke: #7f7f7f; stroke-width: 1.8"/>
      </g>
     </g>
     <g id="text_10">
      <!-- −0.05 -->
      <g style="fill: #7f7f7f" transform="translate(7.2 137.889032) scale(0.1 -0.1)">
       <use xlink:href="#DejaVuSans-c9c"/>
       <use xlink:href="#DejaVuSans-13" transform="translate(83.796875 0)"/>
       <use xlink:href="#DejaVuSans-11" transform="translate(147.421875 0)"/>
       <use xlink:href="#DejaVuSans-13" transform="translate(179.203125 0)"/>
       <use xlink:href="#DejaVuSans-18" transform="translate(242.828125 0)"/>
      </g>
     </g>
    </g>
    <g id="ytick_4">
     <g id="line2d_19">
      <path d="M 44.845313 96.918995 
L 561.6 96.918995 
" clip-path="url(#p7cfadd39ee)" style="fill: none; stroke-dasharray: 2.96,1.28; stroke-dashoffset: 0; stroke: #7f7f7f; stroke-opacity: 0.6; stroke-width: 0.8"/>
     </g>
     <g id="line2d_20">
      <g>
       <use xlink:href="#m98c41195c9" x="44.845313" y="96.918995" style="fill: #7f7f7f; stroke: #7f7f7f; stroke-width: 1.8"/>
      </g>
     </g>
     <g id="text_11">
      <!-- 0.00 -->
      <g style="fill: #7f7f7f" transform="translate(15.579688 100.717823) scale(0.1 -0.1)">
       <use xlink:href="#DejaVuSans-13"/>
       <use xlink:href="#DejaVuSans-11" transform="translate(63.625 0)"/>
       <use xlink:href="#DejaVuSans-13" transform="translate(95.40625 0)"/>
       <use xlink:href="#DejaVuSans-13" transform="translate(159.03125 0)"/>
      </g>
     </g>
    </g>
    <g id="ytick_5">
     <g id="line2d_21">
      <path d="M 44.845313 59.747786 
L 561.6 59.747786 
" clip-path="url(#p7cfadd39ee)" style="fill: none; stroke-dasharray: 2.96,1.28; stroke-dashoffset: 0; stroke: #7f7f7f; stroke-opacity: 0.6; stroke-width: 0.8"/>
     </g>
     <g id="line2d_22">
      <g>
       <use xlink:href="#m98c41195c9" x="44.845313" y="59.747786" style="fill: #7f7f7f; stroke: #7f7f7f; stroke-width: 1.8"/>
      </g>
     </g>
     <g id="text_12">
      <!-- 0.05 -->
      <g style="fill: #7f7f7f" transform="translate(15.579688 63.546614) scale(0.1 -0.1)">
       <use xlink:href="#DejaVuSans-13"/>
       <use xlink:href="#DejaVuSans-11" transform="translate(63.625 0)"/>
       <use xlink:href="#DejaVuSans-13" transform="translate(95.40625 0)"/>
       <use xlink:href="#DejaVuSans-18" transform="translate(159.03125 0)"/>
      </g>
     </g>
    </g>
    <g id="ytick_6">
     <g id="line2d_23">
      <path d="M 44.845313 22.576578 
L 561.6 22.576578 
" clip-path="url(#p7cfadd39ee)" style="fill: none; stroke-dasharray: 2.96,1.28; stroke-dashoffset: 0; stroke: #7f7f7f; stroke-opacity: 0.6; stroke-width: 0.8"/>
     </g>
     <g id="line2d_24">
      <g>
       <use xlink:href="#m98c41195c9" x="44.845313" y="22.576578" style="fill: #7f7f7f; stroke: #7f7f7f; stroke-width: 1.8"/>
      </g>
     </g>
     <g id="text_13">
      <!-- 0.10 -->
      <g style="fill: #7f7f7f" transform="translate(15.579688 26.375406) scale(0.1 -0.1)">
       <use xlink:href="#DejaVuSans-13"/>
       <use xlink:href="#DejaVuSans-11" transform="translate(63.625 0)"/>
       <use xlink:href="#DejaVuSans-14" transform="translate(95.40625 0)"/>
       <use xlink:href="#DejaVuSans-13" transform="translate(159.03125 0)"/>
      </g>
     </g>
    </g>
   </g>
   <g id="line2d_25">
    <path d="M 68.334162 96.918995 
L 68.628161 105.455753 
L 69.191168 93.503325 
L 69.403336 99.001966 
L 70.18298 95.656301 
L 70.525784 99.278937 
L 71.243059 97.53783 
L 71.621498 97.918322 
L 71.890897 91.307077 
L 72.403688 99.36469 
L 73.772602 94.343512 
L 74.111102 96.128007 
L 74.449806 100.482217 
L 74.759501 95.26134 
L 75.053569 98.073187 
L 75.696811 93.682897 
L 75.971632 99.83963 
L 76.873843 99.672417 
L 77.458783 93.448525 
L 78.023595 96.154116 
L 78.448104 97.486546 
L 78.857235 95.220178 
L 79.198225 98.91568 
L 79.546402 99.551874 
L 80.156422 101.712004 
L 81.051231 93.579763 
L 82.559948 101.264727 
L 82.832999 96.989224 
L 83.52443 98.436671 
L 84.275126 97.650564 
L 84.79106 96.41656 
L 85.272377 97.185871 
L 85.811623 96.781451 
L 86.286319 97.793607 
L 86.982529 99.720209 
L 87.267451 94.356972 
L 87.567561 98.338507 
L 88.154381 96.259364 
L 88.582729 96.228327 
L 88.983363 94.128859 
L 89.34735 94.243302 
L 89.646957 99.552937 
L 89.893905 91.635451 
L 90.382971 98.410608 
L 91.045782 95.634599 
L 91.343012 101.108967 
L 91.919333 99.607703 
L 92.174143 92.369397 
L 93.002965 95.509133 
L 94.019956 101.438826 
L 94.301962 96.352454 
L 94.998226 99.008039 
L 95.385388 98.217448 
L 95.758312 94.783897 
L 96.481586 97.095452 
L 96.853935 96.732966 
L 97.87892 93.037065 
L 98.975208 97.359343 
L 99.885327 97.579241 
L 100.659747 96.874861 
L 101.023241 99.700222 
L 101.320811 94.239681 
L 101.975497 94.68651 
L 103.427112 99.056579 
L 103.780069 95.874249 
L 104.518395 96.895918 
L 104.969166 98.356344 
L 105.836179 98.029977 
L 106.582929 99.551985 
L 107.836048 93.540307 
L 108.958915 99.555639 
L 109.295293 98.915574 
L 109.650456 96.235612 
L 110.027714 97.646449 
L 110.413447 98.840552 
L 110.781304 95.53566 
L 111.132248 96.670099 
L 111.639892 97.309701 
L 112.011921 94.702971 
L 112.374646 96.832752 
L 112.776805 98.80701 
L 113.110392 94.843205 
L 113.82232 96.440439 
L 114.60431 95.793146 
L 115.487054 98.076324 
L 116.338048 98.629314 
L 117.120514 95.197014 
L 117.807246 101.009748 
L 118.380379 99.317121 
L 119.396232 95.480541 
L 119.774944 98.631594 
L 120.541554 97.520491 
L 121.482033 96.578686 
L 121.987098 97.811257 
L 122.476881 97.035559 
L 123.356862 96.112616 
L 123.699075 93.303011 
L 124.011866 97.471402 
L 124.338336 97.529999 
L 124.690592 99.324721 
L 125.034893 96.348864 
L 125.340807 93.005577 
L 125.628916 94.822621 
L 125.976395 97.420611 
L 126.353024 96.390521 
L 126.727355 94.217727 
L 127.033355 99.556273 
L 127.714659 95.408794 
L 128.091427 98.512026 
L 128.383368 92.918604 
L 128.665409 98.100275 
L 128.94834 94.965189 
L 129.236811 99.325146 
L 129.511746 96.439146 
L 131.012633 99.063006 
L 133.053095 95.629558 
L 133.81268 97.931349 
L 134.19623 97.051602 
L 134.600035 95.281442 
L 134.979617 98.677307 
L 135.72626 98.41524 
L 136.462644 94.822081 
L 137.227713 95.357575 
L 137.617154 94.91539 
L 138.364318 98.574335 
L 138.687124 94.366714 
L 139.400434 96.439468 
L 139.79598 95.996527 
L 140.146297 100.187672 
L 140.797519 95.973744 
L 141.564554 98.369681 
L 141.935496 95.960707 
L 142.251206 100.330885 
L 143.941228 94.76873 
L 144.217295 100.683098 
L 144.492816 94.603515 
L 144.749812 96.868608 
L 145.097187 95.882303 
L 145.452958 98.381184 
L 145.804972 94.830245 
L 146.128362 94.531112 
L 147.25505 97.785266 
L 147.646712 95.391316 
L 148.020314 96.807916 
L 148.779832 99.427842 
L 149.837666 94.89174 
L 150.152662 95.3011 
L 151.350511 98.059656 
L 151.741867 96.243186 
L 152.083352 93.691609 
L 152.403104 97.258741 
L 152.751127 95.363038 
L 153.101579 94.999645 
L 154.720652 98.737416 
L 155.541907 95.558382 
L 155.945244 98.521268 
L 156.31747 98.766164 
L 157.501133 95.909608 
L 157.953296 96.910704 
L 158.465354 96.61738 
L 159.007191 96.683271 
L 159.371616 99.362252 
L 159.722894 96.736677 
L 160.066162 94.108627 
L 160.395145 96.645029 
L 160.824094 98.216047 
L 161.236151 97.002662 
L 161.868967 98.167242 
L 162.288389 94.995564 
L 162.28955 110.984109 
L 162.304133 56.302719 
L 162.289812 230.944634 
L 163.287988 88.093077 
L 163.481998 88.083389 
L 163.951878 79.316716 
L 164.256754 89.252063 
L 164.458554 88.854289 
L 164.660535 87.606116 
L 164.824656 78.692178 
L 165.610597 89.988794 
L 166.742038 84.808248 
L 167.237595 92.484504 
L 167.844231 90.204379 
L 169.149992 95.601679 
L 170.196576 88.164321 
L 171.633321 96.087935 
L 172.313404 87.950147 
L 172.939792 88.556833 
L 173.247784 95.714287 
L 174.057856 93.043592 
L 174.473267 96.578665 
L 174.793944 88.93608 
L 175.491439 93.531115 
L 175.869996 90.311312 
L 176.219493 92.778576 
L 176.618745 93.681972 
L 177.472867 91.880905 
L 177.864397 92.640523 
L 179.200444 97.21098 
L 180.054915 92.762097 
L 180.429245 93.340054 
L 181.674862 93.445185 
L 182.102015 93.910387 
L 182.945685 92.315928 
L 183.337322 97.407619 
L 183.782967 93.339538 
L 184.235578 94.673678 
L 184.671055 92.51605 
L 185.067962 93.358675 
L 185.471661 96.0289 
L 186.249058 95.765613 
L 186.772274 96.408179 
L 187.729554 93.278494 
L 188.094194 94.78016 
L 189.076706 96.308624 
L 190.241784 92.698024 
L 190.593777 93.12029 
L 191.956346 95.432881 
L 192.415737 94.736257 
L 192.83675 95.018807 
L 193.877975 99.974506 
L 194.229433 93.881786 
L 194.591876 96.886152 
L 196.161891 96.710083 
L 198.042062 98.311808 
L 198.979941 95.515131 
L 199.411865 98.51955 
L 199.84677 96.471533 
L 200.20306 93.85499 
L 200.556364 96.05608 
L 201.04589 95.205969 
L 201.946829 98.780115 
L 202.682525 91.60439 
L 203.010173 97.681683 
L 203.416771 98.819574 
L 203.793067 97.220244 
L 204.30103 98.275076 
L 205.755209 95.503057 
L 206.227741 97.916978 
L 206.583173 94.083404 
L 206.935202 98.379511 
L 207.349841 99.367413 
L 207.736346 96.583896 
L 208.183138 97.617505 
L 209.159619 98.353228 
L 209.588653 98.936029 
L 210.019084 97.8549 
L 210.973743 99.080219 
L 211.37819 97.718017 
L 212.263173 93.91063 
L 212.61458 97.160035 
L 213.014269 99.127182 
L 213.786916 98.392119 
L 215.086774 94.865338 
L 216.264712 97.316404 
L 216.828927 96.716901 
L 217.636173 99.727809 
L 218.028751 96.187105 
L 218.516051 96.736271 
L 220.492601 98.17024 
L 220.958564 96.453146 
L 221.487123 98.135422 
L 224.937287 96.667185 
L 226.556794 100.537997 
L 227.730786 93.301639 
L 228.094514 97.630596 
L 228.569958 94.725523 
L 230.12291 97.36834 
L 230.604594 96.876809 
L 231.32033 100.915435 
L 232.647978 96.006462 
L 233.614419 95.899859 
L 233.959799 99.880141 
L 234.301598 96.565705 
L 235.115878 95.449212 
L 235.545595 98.546894 
L 235.980204 98.230589 
L 236.816273 96.007892 
L 237.224249 98.539266 
L 237.678239 96.791937 
L 239.798093 96.423644 
L 240.227176 94.960744 
L 241.058434 98.456275 
L 241.473441 95.877385 
L 241.947953 98.438015 
L 243.425945 96.167068 
L 244.353229 98.748361 
L 244.75184 94.659462 
L 245.154318 98.122123 
L 245.660827 96.857588 
L 246.201329 98.091938 
L 246.688878 97.603363 
L 247.069787 95.383758 
L 247.448723 99.428246 
L 248.327259 98.32751 
L 248.763154 98.557601 
L 249.18186 101.153351 
L 249.560951 95.137425 
L 249.962597 99.32683 
L 250.367667 99.555675 
L 251.580912 93.575209 
L 251.964285 94.200335 
L 252.368656 98.364222 
L 252.779123 94.63736 
L 253.241836 94.871569 
L 253.998426 96.925074 
L 254.367517 94.880426 
L 254.767443 96.313043 
L 255.182479 96.851847 
L 255.536769 99.753141 
L 256.278775 98.207161 
L 257.121309 95.698513 
L 257.549111 96.873355 
L 258.009265 95.916997 
L 258.4115 95.512931 
L 258.825715 99.649161 
L 259.218654 95.849747 
L 259.674237 97.814296 
L 260.866168 94.791944 
L 261.676718 97.139005 
L 262.013681 100.857844 
L 262.79112 98.786998 
L 263.590198 95.582935 
L 263.966202 97.387128 
L 264.882419 97.350628 
L 265.259776 95.062125 
L 265.634644 97.089499 
L 266.459707 97.967647 
L 266.921033 99.150004 
L 267.338518 94.206228 
L 267.732683 96.800587 
L 268.116195 98.51935 
L 268.498175 97.102643 
L 268.926245 97.383596 
L 269.749523 93.58231 
L 270.105746 96.132315 
L 270.477432 98.260675 
L 270.847723 98.097929 
L 272.004232 91.87313 
L 272.795135 97.189616 
L 273.194025 94.842797 
L 274.000629 99.669002 
L 274.388429 98.613277 
L 274.803242 94.97503 
L 275.209813 96.708915 
L 275.541437 101.260518 
L 275.869305 95.330973 
L 276.246968 93.668785 
L 277.046872 93.062068 
L 277.450748 98.006941 
L 277.824351 100.257339 
L 278.167999 98.294736 
L 279.486668 96.936639 
L 279.841251 100.132864 
L 280.192644 96.737423 
L 281.603803 95.334698 
L 282.052099 99.41703 
L 282.458615 97.88768 
L 282.840894 96.042909 
L 283.241299 98.250068 
L 284.201457 95.226774 
L 284.6329 97.164523 
L 285.864767 98.921205 
L 286.279378 97.785012 
L 286.698545 95.837207 
L 287.085691 96.252199 
L 287.516689 96.843894 
L 288.295938 93.053787 
L 289.488049 97.293947 
L 289.863539 98.313059 
L 290.244282 95.832385 
L 290.604276 97.824679 
L 290.969732 101.45201 
L 291.305322 96.21526 
L 292.098899 93.349111 
L 293.246387 98.669345 
L 293.650269 96.393124 
L 294.532686 96.980545 
L 295.396322 95.706669 
L 296.930102 99.2637 
L 297.330613 99.14171 
L 299.005045 96.612413 
L 299.398342 96.528642 
L 299.806918 94.848516 
L 300.222812 98.4454 
L 300.667746 93.919615 
L 302.020425 97.836426 
L 302.501876 97.88491 
L 303.799873 95.478564 
L 305.045646 98.478298 
L 305.48195 96.621826 
L 306.334486 99.668051 
L 306.733948 93.928078 
L 307.107346 95.507731 
L 307.51118 97.742117 
L 307.983426 96.074949 
L 308.503727 96.676571 
L 308.869569 99.242312 
L 309.232773 98.297928 
L 309.663313 97.215423 
L 310.033209 99.81301 
L 310.399795 96.424171 
L 311.507137 93.715891 
L 311.866708 97.951884 
L 312.300587 97.897026 
L 312.70414 94.568226 
L 313.115719 100.590361 
L 313.501319 97.914705 
L 313.939558 96.78212 
L 314.420703 97.953663 
L 314.884993 98.309058 
L 316.085287 92.599318 
L 316.446447 96.128617 
L 317.829751 98.294085 
L 319.133681 99.079551 
L 319.544212 95.324535 
L 319.958614 96.418768 
L 320.363742 97.260404 
L 320.761484 95.714541 
L 321.161591 97.492868 
L 322.74613 97.138216 
L 323.189719 98.155468 
L 324.040165 95.08427 
L 324.424314 96.70516 
L 324.879257 96.420739 
L 325.287414 94.690626 
L 325.672408 95.937669 
L 326.059155 98.663501 
L 326.422325 93.334782 
L 327.246356 95.567235 
L 328.514028 99.761008 
L 330.144781 94.914176 
L 330.559001 96.215296 
L 330.997889 95.513561 
L 331.880886 96.342739 
L 332.664287 98.119064 
L 333.098263 97.636497 
L 333.866054 99.937513 
L 334.228705 98.169473 
L 334.666574 97.757945 
L 335.040464 95.913306 
L 335.419344 96.483454 
L 335.843141 97.110757 
L 336.293882 94.029937 
L 336.701489 97.129232 
L 337.088725 99.483436 
L 337.442726 96.603037 
L 337.852983 94.932721 
L 338.226381 96.711791 
L 338.684381 96.755111 
L 339.04696 93.986994 
L 339.40655 96.7322 
L 339.986433 95.611477 
L 340.367674 99.404111 
L 340.714859 95.314505 
L 341.129249 97.355019 
L 343.051946 94.501313 
L 343.845249 94.216667 
L 344.218207 98.412376 
L 344.633058 97.397051 
L 345.039451 100.778025 
L 345.828935 99.446206 
L 346.268428 100.143463 
L 347.642409 95.460266 
L 348.093749 96.703211 
L 348.525898 95.905517 
L 349.392308 94.433786 
L 350.199621 101.662238 
L 350.2005 17.854506 
L 350.370164 108.055741 
L 350.944581 102.932352 
L 351.627207 102.307836 
L 352.019077 104.726674 
L 352.3863 104.5798 
L 353.483809 99.753086 
L 354.847675 101.89171 
L 355.714387 98.029947 
L 357.345658 102.445027 
L 358.609664 96.062423 
L 359.423293 101.117803 
L 359.779999 99.123944 
L 360.214722 99.892498 
L 360.653636 96.369228 
L 361.003375 101.09571 
L 361.347912 97.312589 
L 361.688142 102.3473 
L 362.022902 95.594501 
L 362.402442 98.388816 
L 362.853743 99.794026 
L 363.269532 96.709613 
L 363.82007 98.604442 
L 364.166352 101.767829 
L 364.508554 100.008252 
L 365.951623 97.97467 
L 366.697563 101.168779 
L 367.071976 98.653456 
L 367.547223 97.523686 
L 368.100037 97.980817 
L 368.854417 101.289934 
L 369.644061 96.404304 
L 370.045875 98.445603 
L 370.450534 99.881884 
L 370.826024 99.088524 
L 371.24963 96.524848 
L 371.737445 97.313738 
L 372.140512 98.794751 
L 372.540581 98.43424 
L 372.986448 96.464747 
L 373.491964 99.081065 
L 373.955231 97.027706 
L 374.904204 98.646196 
L 375.356949 96.440279 
L 376.479112 102.742425 
L 377.626936 95.901171 
L 377.996374 97.04453 
L 378.497451 95.60537 
L 380.128715 99.997545 
L 380.911401 94.987709 
L 381.298989 98.852078 
L 381.715198 97.015668 
L 382.04956 92.775815 
L 382.38023 95.579429 
L 382.835767 97.058973 
L 383.363598 95.789185 
L 384.409546 97.588925 
L 384.872463 96.366037 
L 385.211497 100.874397 
L 385.546171 100.005164 
L 386.789199 94.589217 
L 388.105411 98.760739 
L 388.527805 96.095939 
L 389.033258 97.889499 
L 389.394041 100.133294 
L 389.751922 98.034369 
L 390.227938 98.997986 
L 391.120994 95.71891 
L 391.944677 99.162398 
L 392.317444 97.676924 
L 392.808063 96.988209 
L 393.170617 94.463692 
L 393.530376 97.871187 
L 394.362495 98.351163 
L 394.760199 95.326197 
L 395.091655 101.066595 
L 395.822507 96.955235 
L 396.330117 97.654395 
L 396.689933 94.483198 
L 397.046604 95.238869 
L 397.459993 97.589975 
L 397.947181 96.666764 
L 398.381313 95.765606 
L 398.757342 92.489577 
L 399.099383 93.501882 
L 399.860238 97.785637 
L 400.239193 97.433311 
L 400.578075 92.925583 
L 400.913541 97.669187 
L 401.310992 98.105788 
L 401.719682 97.31695 
L 402.228594 96.098771 
L 402.716727 98.588388 
L 403.175343 98.072221 
L 403.629704 97.552228 
L 404.381601 98.013196 
L 404.833253 95.306662 
L 405.256168 94.977089 
L 406.116025 97.974108 
L 406.545365 97.118361 
L 407.139553 97.028918 
L 407.537946 95.43089 
L 407.934483 96.835253 
L 408.636238 94.753831 
L 409.010262 100.182921 
L 409.382828 92.057143 
L 410.165657 95.710817 
L 410.706068 96.381819 
L 411.066809 99.111422 
L 411.424988 94.691372 
L 411.810783 97.766027 
L 412.207313 99.598381 
L 412.571518 93.372926 
L 413.352168 93.998108 
L 413.768998 98.362535 
L 414.661363 97.726692 
L 415.150192 95.920947 
L 415.667849 96.463096 
L 417.469584 98.976885 
L 418.197254 93.628394 
L 418.53737 95.923373 
L 418.885907 99.338014 
L 419.231797 95.034403 
L 419.617975 96.949276 
L 420.114702 97.494236 
L 420.571348 96.838648 
L 420.969496 95.353836 
L 421.365781 96.326151 
L 422.091637 99.211171 
L 422.482198 98.520687 
L 423.305958 93.924966 
L 423.663477 96.443733 
L 424.238494 95.555236 
L 425.321382 97.24062 
L 425.685912 94.426659 
L 426.047522 95.963297 
L 428.023028 98.952011 
L 428.892451 96.380563 
L 429.245074 100.15465 
L 430.076549 98.823842 
L 430.558313 95.264818 
L 430.999833 97.550178 
L 432.251046 93.165481 
L 433.360042 99.732077 
L 433.705225 97.326603 
L 434.489908 98.330324 
L 435.38959 95.211702 
L 435.802688 98.206369 
L 436.258727 96.470641 
L 436.623304 94.174674 
L 436.985119 96.438155 
L 437.868732 98.600299 
L 439.219532 95.375049 
L 440.113459 96.374679 
L 440.580092 94.50818 
L 441.901067 98.264277 
L 443.119284 93.936592 
L 443.503636 98.911873 
L 444.293576 98.328694 
L 444.737904 97.834295 
L 445.974003 95.230565 
L 446.343652 100.630355 
L 446.706126 96.86536 
L 447.090645 96.107005 
L 447.526665 98.250246 
L 447.982481 96.263845 
L 449.803003 98.588343 
L 450.764125 96.780094 
L 451.178321 98.013592 
L 451.601808 96.761809 
L 452.007164 97.128362 
L 452.385041 94.723467 
L 452.786197 94.942286 
L 453.197569 98.593668 
L 453.615373 95.433868 
L 454.022289 93.399103 
L 454.401324 96.455993 
L 454.811097 98.788399 
L 455.202299 98.290504 
L 455.621529 96.850361 
L 455.968716 100.783821 
L 456.311884 97.248722 
L 456.74496 97.446981 
L 457.128793 95.499865 
L 457.897183 96.110531 
L 458.339948 98.449228 
L 458.773563 96.137601 
L 459.606398 99.819254 
L 460.374449 93.556807 
L 460.718121 97.500111 
L 461.427404 100.399851 
L 462.676235 94.911644 
L 463.090445 95.827328 
L 463.921191 93.951609 
L 464.659769 99.799457 
L 464.994962 95.922544 
L 465.404652 95.187593 
L 465.813658 95.900564 
L 467.084299 99.083973 
L 467.475378 95.869754 
L 468.357409 96.282586 
L 469.207803 100.076834 
L 469.598888 95.492807 
L 470.437937 96.572602 
L 470.856579 97.80397 
L 471.274824 95.782346 
L 472.214624 96.049454 
L 473.562459 99.187428 
L 473.972416 98.279577 
L 475.988313 94.8386 
L 476.366547 92.384576 
L 476.716132 94.762778 
L 477.363372 100.344562 
L 478.424346 93.707778 
L 479.638914 97.106816 
L 480.500384 97.447755 
L 480.923208 98.869422 
L 481.346887 96.010763 
L 482.19591 96.78999 
L 482.53817 99.361967 
L 483.294938 98.209557 
L 483.693413 94.616416 
L 484.080984 99.254032 
L 485.415932 95.364416 
L 485.803672 98.812961 
L 486.64506 97.618553 
L 487.108486 95.476178 
L 487.530882 97.516401 
L 489.456644 96.082322 
L 489.946635 97.691807 
L 490.447893 96.20949 
L 490.802767 93.55914 
L 491.154631 97.583848 
L 491.584005 97.10964 
L 492.443276 94.813753 
L 493.230736 100.909849 
L 493.568738 99.400876 
L 494.739028 92.34212 
L 495.903464 97.320426 
L 497.249828 95.891761 
L 497.649507 99.189569 
L 498.031696 98.425437 
L 499.395734 96.079566 
L 499.858113 99.39374 
L 500.279119 96.577929 
L 500.607172 92.335079 
L 500.931929 96.779184 
L 501.709081 97.429702 
L 502.05198 98.610296 
L 502.454447 97.118846 
L 502.855119 95.710684 
L 503.254575 98.227401 
L 503.572713 91.306596 
L 504.275443 97.616403 
L 504.694816 97.299245 
L 505.155405 95.397596 
L 506.049708 95.652766 
L 506.479449 98.975938 
L 507.356924 98.131331 
L 508.16735 95.603219 
L 508.984947 98.79546 
L 509.378614 96.006515 
L 509.843013 97.933201 
L 510.387415 97.33113 
L 510.803319 98.437162 
L 511.217199 94.422966 
L 512.030366 95.032033 
L 513.309372 99.265056 
L 513.709586 96.047574 
L 514.135424 97.034108 
L 514.528203 98.235767 
L 514.958027 97.222642 
L 515.78189 98.30385 
L 516.16697 96.88083 
L 517.349503 94.313622 
L 517.755258 99.8362 
L 518.574417 98.40956 
L 521.262042 93.514348 
L 521.608562 94.563097 
L 522.362179 99.318243 
L 522.713703 96.764894 
L 523.472371 92.388326 
L 523.831138 95.97009 
L 524.634007 98.337863 
L 525.04353 95.042308 
L 525.783285 96.400467 
L 526.193239 95.387983 
L 527.425272 99.420637 
L 528.320399 97.161836 
L 528.697152 99.487157 
L 529.070789 95.710405 
L 529.50123 95.90091 
L 529.925858 99.067176 
L 530.344845 95.597656 
L 530.737679 95.699785 
L 531.112555 99.859489 
L 531.455982 95.179724 
L 531.840941 95.309529 
L 532.662367 97.565941 
L 532.998995 92.802548 
L 533.331605 99.931625 
L 533.673617 96.922202 
L 534.072988 96.602938 
L 534.465178 98.710451 
L 534.892972 94.864678 
L 535.32391 97.294065 
L 536.741355 97.928143 
L 537.151919 99.834113 
L 537.523637 97.503315 
L 538.111151 96.619525 
L 538.111151 96.619525 
" clip-path="url(#p7cfadd39ee)" style="fill: none; stroke: #e41a1c; stroke-width: 2; stroke-linecap: square"/>
   </g>
   <g id="line2d_26">
    <path d="M 68.334162 96.918995 
L 68.628161 99.478023 
L 69.191168 96.291666 
L 69.622216 97.846486 
L 70.18298 96.668803 
L 70.525784 97.876073 
L 71.243059 97.632455 
L 71.621498 97.881031 
L 71.890897 95.669183 
L 72.403688 97.925612 
L 74.111102 96.324378 
L 74.449806 97.864577 
L 75.053569 97.203882 
L 75.696811 95.661453 
L 76.255904 96.604281 
L 76.873843 98.049212 
L 77.176595 96.587886 
L 77.730613 95.729593 
L 78.023595 96.140859 
L 79.546402 97.40487 
L 80.156422 98.379217 
L 81.051231 95.798547 
L 81.342054 96.944769 
L 81.952019 95.682904 
L 83.90691 97.750295 
L 86.665562 96.82292 
L 86.982529 98.347052 
L 87.567561 97.892278 
L 88.983363 95.918327 
L 89.34735 95.547773 
L 89.646957 97.151054 
L 89.893905 94.698829 
L 90.382971 96.571075 
L 91.045782 95.813722 
L 91.919333 97.93194 
L 92.174143 95.708782 
L 93.002965 96.372039 
L 94.019956 98.430848 
L 94.301962 97.129571 
L 96.853935 97.59445 
L 97.87892 95.772578 
L 98.179398 96.505597 
L 98.567327 96.131471 
L 98.975208 96.611104 
L 101.624026 96.574111 
L 103.069709 96.078781 
L 103.427112 96.992197 
L 104.13717 96.477289 
L 105.389946 96.894417 
L 106.582929 98.24649 
L 106.928662 96.85518 
L 107.836048 95.71462 
L 108.130633 96.169251 
L 108.601232 95.631087 
L 109.295293 97.192451 
L 109.650456 96.441681 
L 110.413447 97.487195 
L 111.132248 96.7225 
L 111.639892 96.961384 
L 112.011921 95.994942 
L 112.374646 96.500085 
L 112.776805 97.286109 
L 113.110392 96.042899 
L 114.193238 95.949795 
L 115.037777 96.080444 
L 116.338048 96.845908 
L 117.120514 95.58326 
L 117.503916 96.632521 
L 117.807246 97.738817 
L 118.093319 96.35284 
L 118.380379 97.480603 
L 119.396232 96.412806 
L 120.541554 97.249446 
L 123.356862 96.955768 
L 123.699075 95.774541 
L 124.338336 96.949182 
L 124.690592 97.725209 
L 125.034893 96.921737 
L 125.340807 95.628379 
L 125.976395 96.52628 
L 127.714659 95.685287 
L 128.091427 96.679318 
L 128.383368 94.84791 
L 128.665409 96.241302 
L 128.94834 95.25367 
L 129.236811 96.590819 
L 129.511746 95.832775 
L 131.389321 97.305293 
L 136.110111 97.340466 
L 137.617154 96.15171 
L 138.364318 97.194687 
L 139.01326 96.106775 
L 139.79598 95.872105 
L 140.146297 97.348052 
L 140.797519 96.081882 
L 143.627202 98.151381 
L 143.941228 96.731733 
L 144.217295 98.590697 
L 144.749812 97.407475 
L 146.866856 96.301125 
L 148.779832 97.635377 
L 150.506538 96.521433 
L 151.350511 97.406052 
L 151.741867 96.858207 
L 153.101579 95.658753 
L 155.101404 96.972546 
L 155.541907 96.126701 
L 155.945244 97.110606 
L 157.058682 96.871466 
L 159.007191 96.634238 
L 159.371616 97.645374 
L 159.722894 96.981818 
L 160.066162 95.955906 
L 160.395145 96.537289 
L 162.032876 98.745553 
L 162.281668 97.839581 
L 162.304133 87.508801 
L 162.289812 130.227304 
L 163.287988 90.874265 
L 164.660535 84.789555 
L 165.836777 79.235994 
L 166.502076 77.556664 
L 167.844231 73.89366 
L 168.13496 74.101817 
L 170.196576 68.951736 
L 170.490365 69.840897 
L 174.057856 63.141818 
L 174.473267 63.975435 
L 175.869996 59.451217 
L 176.618745 59.207192 
L 178.738439 55.883712 
L 179.200444 56.817606 
L 181.242453 53.137827 
L 185.067962 48.188742 
L 185.471661 48.69813 
L 185.863337 47.612421 
L 186.772274 48.009515 
L 192.83675 42.688635 
L 193.877975 44.581274 
L 194.229433 42.671501 
L 195.109168 43.222488 
L 196.636316 43.426615 
L 198.042062 44.28976 
L 198.979941 43.1088 
L 199.411865 44.125801 
L 199.84677 43.554103 
L 201.04589 42.339747 
L 201.946829 43.570694 
L 202.325572 42.459779 
L 202.682525 40.800687 
L 203.010173 42.375038 
L 204.30103 43.135981 
L 205.755209 41.800089 
L 206.227741 42.568719 
L 206.583173 41.223328 
L 206.935202 42.469519 
L 208.183138 42.753105 
L 210.528217 43.999695 
L 211.37819 44.453786 
L 212.263173 43.024086 
L 212.61458 43.847756 
L 213.786916 45.013952 
L 215.866403 43.334075 
L 217.636173 45.134835 
L 218.977909 44.322647 
L 225.327767 46.328291 
L 226.556794 48.106756 
L 226.958043 47.232381 
L 228.569958 45.594427 
L 232.17768 47.050708 
L 233.614419 46.27189 
L 233.959799 47.649051 
L 234.301598 46.791219 
L 235.115878 46.031585 
L 236.407825 47.088352 
L 237.678239 47.033867 
L 243.924761 47.347481 
L 244.353229 47.88803 
L 244.75184 46.529947 
L 245.154318 47.569037 
L 246.201329 47.811355 
L 248.763154 48.564408 
L 249.18186 49.924381 
L 249.560951 48.197181 
L 249.962597 49.619854 
L 250.367667 50.120018 
L 251.964285 47.386483 
L 252.368656 48.632294 
L 252.779123 47.340589 
L 254.767443 46.868737 
L 258.009265 46.936096 
L 258.4115 46.604889 
L 258.825715 48.065217 
L 259.674237 47.612505 
L 261.21897 46.283827 
L 264.436034 47.769411 
L 269.359077 47.504582 
L 269.749523 46.432443 
L 270.105746 46.937785 
L 271.684279 47.962045 
L 272.004232 45.783425 
L 272.795135 47.082241 
L 273.194025 46.171252 
L 273.576907 46.44922 
L 274.388429 47.727913 
L 274.803242 46.517348 
L 275.209813 46.904771 
L 275.541437 48.591399 
L 275.869305 46.939718 
L 276.607116 47.276561 
L 277.046872 45.365389 
L 277.824351 47.78617 
L 278.563834 47.476627 
L 279.486668 47.317707 
L 279.841251 48.557858 
L 280.192644 47.710202 
L 281.603803 47.103741 
L 282.052099 48.557206 
L 282.840894 47.771228 
L 283.241299 48.530284 
L 283.724937 48.127099 
L 284.201457 47.440311 
L 284.6329 47.956687 
L 287.516689 48.503865 
L 288.295938 46.417837 
L 288.669772 47.291291 
L 289.488049 47.359477 
L 290.969732 49.198651 
L 292.098899 46.261098 
L 292.468349 46.866216 
L 292.855054 46.07405 
L 293.246387 47.34423 
L 293.650269 46.697099 
L 295.021036 46.754646 
L 296.138798 46.411379 
L 297.330613 48.237115 
L 297.749433 47.99465 
L 299.398342 47.854898 
L 300.667746 46.599697 
L 302.501876 47.341281 
L 303.799873 46.149346 
L 304.240368 46.636528 
L 305.48195 46.599216 
L 306.334486 48.266361 
L 306.733948 46.39163 
L 307.51118 47.24498 
L 308.503727 46.769119 
L 310.033209 48.570244 
L 311.507137 46.227539 
L 312.300587 47.563918 
L 312.70414 46.36863 
L 313.115719 48.445584 
L 313.939558 47.656451 
L 315.321095 48.212334 
L 316.085287 46.228194 
L 316.913653 46.98985 
L 317.829751 47.53944 
L 319.133681 48.768452 
L 319.544212 47.596907 
L 320.363742 48.049401 
L 320.761484 47.481112 
L 321.161591 48.007861 
L 326.059155 48.052686 
L 326.422325 46.226417 
L 327.246356 46.703827 
L 328.514028 48.674358 
L 328.90965 48.273525 
L 331.880886 46.630193 
L 333.866054 48.778415 
L 334.228705 48.53661 
L 335.843141 48.275696 
L 336.293882 47.000377 
L 336.701489 47.788877 
L 337.088725 48.762034 
L 337.442726 48.016766 
L 339.04696 46.555527 
L 340.367674 47.890239 
L 340.714859 46.66616 
L 341.650325 46.983332 
L 344.633058 46.259575 
L 346.268428 48.715863 
L 347.642409 47.478456 
L 348.525898 47.384066 
L 349.392308 46.272687 
L 350.199621 48.339951 
L 350.2005 27.878787 
L 350.707434 51.109663 
L 350.944581 50.592431 
L 354.847675 58.103543 
L 355.212553 57.599047 
L 356.120184 58.455787 
L 358.142605 61.292527 
L 358.609664 60.235393 
L 359.036365 61.308763 
L 360.214722 62.972103 
L 360.653636 61.999305 
L 361.688142 64.8028 
L 362.022902 62.969616 
L 362.402442 63.860891 
L 364.508554 66.130145 
L 366.32664 67.496861 
L 366.697563 68.360435 
L 367.547223 67.839002 
L 368.479017 69.089928 
L 368.854417 70.086147 
L 369.226192 69.100922 
L 369.644061 68.833039 
L 370.045875 69.570935 
L 370.826024 70.529436 
L 371.24963 69.832986 
L 376.084969 72.765729 
L 377.259963 74.295321 
L 378.497451 73.119274 
L 380.128715 75.449832 
L 380.911401 73.697609 
L 381.298989 74.941061 
L 383.912611 73.518926 
L 386.326676 74.730081 
L 387.648906 73.063352 
L 389.394041 75.110717 
L 391.120994 74.302639 
L 392.808063 75.226439 
L 393.170617 74.259417 
L 393.96317 74.919019 
L 395.091655 76.518145 
L 395.41902 75.367462 
L 396.689933 74.701985 
L 398.381313 74.642552 
L 399.099383 72.945045 
L 399.483835 73.084574 
L 400.239193 73.817885 
L 400.578075 72.171181 
L 400.913541 73.421445 
L 401.719682 73.579533 
L 402.228594 73.107861 
L 403.629704 74.135348 
L 405.256168 72.81445 
L 406.545365 73.74643 
L 408.636238 73.071535 
L 409.010262 74.890863 
L 409.382828 72.186349 
L 411.066809 73.706167 
L 411.424988 72.30794 
L 411.810783 73.187345 
L 412.207313 74.063191 
L 413.352168 71.808343 
L 413.768998 73.112216 
L 414.661363 72.631118 
L 416.210985 72.209818 
L 417.469584 73.221467 
L 417.85401 72.71969 
L 418.197254 71.470725 
L 418.53737 71.894747 
L 418.885907 73.06515 
L 419.617975 72.227148 
L 420.571348 72.30455 
L 421.365781 71.834059 
L 422.482198 73.270288 
L 424.238494 71.485096 
L 425.321382 72.036401 
L 425.685912 70.983728 
L 426.510064 71.617645 
L 427.591629 71.828973 
L 428.415413 72.331665 
L 428.892451 71.905923 
L 430.076549 73.361638 
L 430.558313 72.18339 
L 430.999833 72.86078 
L 433.011346 71.377113 
L 434.099206 72.993812 
L 434.943094 72.235092 
L 436.623304 71.25182 
L 438.72585 72.76038 
L 440.580092 70.716995 
L 441.901067 71.539709 
L 443.119284 69.748812 
L 443.503636 71.261044 
L 444.737904 71.690194 
L 445.974003 70.536096 
L 446.343652 72.402864 
L 447.090645 71.171772 
L 447.526665 71.932424 
L 447.982481 71.331264 
L 452.385041 71.336041 
L 452.786197 71.068442 
L 453.197569 72.233627 
L 453.615373 71.211023 
L 454.022289 70.131259 
L 454.401324 70.796935 
L 455.968716 72.890075 
L 457.510926 71.433634 
L 459.185044 71.94806 
L 459.606398 73.015695 
L 460.000283 72.008152 
L 460.374449 70.869945 
L 460.718121 71.910535 
L 462.245986 73.811867 
L 463.921191 71.036051 
L 464.659769 72.742226 
L 464.994962 71.660363 
L 466.277142 71.33549 
L 467.907018 72.672137 
L 468.357409 71.878917 
L 468.78918 72.713842 
L 469.207803 73.630085 
L 469.598888 72.296269 
L 472.730818 72.519454 
L 474.384899 73.587984 
L 476.366547 70.555731 
L 476.716132 70.823187 
L 477.363372 72.961735 
L 477.70888 70.96313 
L 478.424346 70.36976 
L 478.782082 71.080638 
L 480.07467 70.936367 
L 483.294938 72.504765 
L 483.693413 71.265556 
L 484.080984 72.765509 
L 485.415932 71.681923 
L 486.64506 72.923227 
L 487.108486 72.138156 
L 487.530882 72.741863 
L 492.860107 71.67452 
L 493.568738 72.953176 
L 493.968677 72.329382 
L 494.349083 72.786219 
L 494.739028 70.685707 
L 495.471597 71.344061 
L 496.859601 71.824677 
L 497.249828 71.333016 
L 498.031696 72.548847 
L 498.44295 72.138933 
L 500.279119 72.419792 
L 500.607172 70.785823 
L 501.370434 71.883246 
L 503.254575 72.552658 
L 503.572713 70.151409 
L 504.275443 71.814238 
L 510.387415 72.370767 
L 510.803319 72.901822 
L 512.030366 71.073928 
L 514.528203 72.693405 
L 517.349503 71.270051 
L 518.574417 73.008392 
L 520.912222 72.698973 
L 521.608562 71.387166 
L 522.008326 71.930959 
L 522.362179 72.866245 
L 522.713703 72.220121 
L 523.472371 70.176506 
L 523.831138 70.903537 
L 524.634007 71.838189 
L 525.04353 70.717274 
L 525.783285 71.06053 
L 526.193239 70.553865 
L 526.598379 71.206755 
L 529.925858 72.741539 
L 530.737679 71.510967 
L 531.112555 72.968851 
L 531.455982 71.59072 
L 532.998995 70.284093 
L 533.331605 72.420541 
L 534.072988 71.555835 
L 534.465178 72.35248 
L 534.892972 71.059839 
L 537.151919 73.227069 
L 538.111151 72.608496 
L 538.111151 72.608496 
" clip-path="url(#p7cfadd39ee)" style="fill: none; stroke: #377eb8; stroke-width: 2; stroke-linecap: square"/>
   </g>
   <g id="patch_3">
    <path d="M 44.845313 241.599141 
L 44.845313 7.2 
" style="fill: none; stroke: #7f7f7f; stroke-width: 1.8; stroke-linejoin: miter; stroke-linecap: square"/>
   </g>
   <g id="patch_4">
    <path d="M 44.845313 241.599141 
L 561.6 241.599141 
" style="fill: none; stroke: #7f7f7f; stroke-width: 1.8; stroke-linejoin: miter; stroke-linecap: square"/>
   </g>
   <g id="legend_1">
    <g id="line2d_27">
     <path d="M 499.584375 20.298438 
L 509.584375 20.298438 
L 519.584375 20.298438 
" style="fill: none; stroke: #e41a1c; stroke-width: 2; stroke-linecap: square"/>
    </g>
    <g id="text_14">
     <!-- err 2 -->
     <g style="fill: #7f7f7f" transform="translate(527.584375 23.798438) scale(0.1 -0.1)">
      <defs>
       <path id="DejaVuSans-55" d="M 2631 2963 
Q 2534 3019 2420 3045 
Q 2306 3072 2169 3072 
Q 1681 3072 1420 2755 
Q 1159 2438 1159 1844 
L 1159 0 
L 581 0 
L 581 3500 
L 1159 3500 
L 1159 2956 
Q 1341 3275 1631 3429 
Q 1922 3584 2338 3584 
Q 2397 3584 2469 3576 
Q 2541 3569 2628 3553 
L 2631 2963 
z
" transform="scale(0.015625)"/>
      </defs>
      <use xlink:href="#DejaVuSans-48"/>
      <use xlink:href="#DejaVuSans-55" transform="translate(61.53125 0)"/>
      <use xlink:href="#DejaVuSans-55" transform="translate(100.890625 0)"/>
      <use xlink:href="#DejaVuSans-3" transform="translate(142 0)"/>
      <use xlink:href="#DejaVuSans-15" transform="translate(173.78125 0)"/>
     </g>
    </g>
    <g id="line2d_28">
     <path d="M 499.584375 35.299219 
L 509.584375 35.299219 
L 519.584375 35.299219 
" style="fill: none; stroke: #377eb8; stroke-width: 2; stroke-linecap: square"/>
    </g>
    <g id="text_15">
     <!-- pid 2 -->
     <g style="fill: #7f7f7f" transform="translate(527.584375 38.799219) scale(0.1 -0.1)">
      <defs>
       <path id="DejaVuSans-53" d="M 1159 525 
L 1159 -1331 
L 581 -1331 
L 581 3500 
L 1159 3500 
L 1159 2969 
Q 1341 3281 1617 3432 
Q 1894 3584 2278 3584 
Q 2916 3584 3314 3078 
Q 3713 2572 3713 1747 
Q 3713 922 3314 415 
Q 2916 -91 2278 -91 
Q 1894 -91 1617 61 
Q 1341 213 1159 525 
z
M 3116 1747 
Q 3116 2381 2855 2742 
Q 2594 3103 2138 3103 
Q 1681 3103 1420 2742 
Q 1159 2381 1159 1747 
Q 1159 1113 1420 752 
Q 1681 391 2138 391 
Q 2594 391 2855 752 
Q 3116 1113 3116 1747 
z
" transform="scale(0.015625)"/>
       <path id="DejaVuSans-47" d="M 2906 2969 
L 2906 4863 
L 3481 4863 
L 3481 0 
L 2906 0 
L 2906 525 
Q 2725 213 2448 61 
Q 2172 -91 1784 -91 
Q 1150 -91 751 415 
Q 353 922 353 1747 
Q 353 2572 751 3078 
Q 1150 3584 1784 3584 
Q 2172 3584 2448 3432 
Q 2725 3281 2906 2969 
z
M 947 1747 
Q 947 1113 1208 752 
Q 1469 391 1925 391 
Q 2381 391 2643 752 
Q 2906 1113 2906 1747 
Q 2906 2381 2643 2742 
Q 2381 3103 1925 3103 
Q 1469 3103 1208 2742 
Q 947 2381 947 1747 
z
" transform="scale(0.015625)"/>
      </defs>
      <use xlink:href="#DejaVuSans-53"/>
      <use xlink:href="#DejaVuSans-4c" transform="translate(63.484375 0)"/>
      <use xlink:href="#DejaVuSans-47" transform="translate(91.265625 0)"/>
      <use xlink:href="#DejaVuSans-3" transform="translate(154.75 0)"/>
      <use xlink:href="#DejaVuSans-15" transform="translate(186.53125 0)"/>
     </g>
    </g>
   </g>
  </g>
 </g>
 <defs>
  <clipPath id="p7cfadd39ee">
   <rect x="44.845313" y="7.2" width="516.754687" height="234.399141"/>
  </clipPath>
 </defs>
</svg>
