<?xml version="1.0" encoding="utf-8" standalone="no"?>
<!DOCTYPE svg PUBLIC "-//W3C//DTD SVG 1.1//EN"
  "http://www.w3.org/Graphics/SVG/1.1/DTD/svg11.dtd">
<svg xmlns:xlink="http://www.w3.org/1999/xlink" width="568.8pt" height="280.8pt" viewBox="0 0 568.8 280.8" xmlns="http://www.w3.org/2000/svg" version="1.1">
 <metadata>
  <rdf:RDF xmlns:dc="http://purl.org/dc/elements/1.1/" xmlns:cc="http://creativecommons.org/ns#" xmlns:rdf="http://www.w3.org/1999/02/22-rdf-syntax-ns#">
   <cc:Work>
    <dc:type rdf:resource="http://purl.org/dc/dcmitype/StillImage"/>
    <dc:date>2026-07-01T18:45:51.715114</dc:date>
    <dc:format>image/svg+xml</dc:format>
    <dc:creator>
     <cc:Agent>
      <dc:title>Matplotlib v3.11.0, https://matplotlib.org/</dc:title>
     </cc:Agent>
    </dc:creator>
   </cc:Work>
  </rdf:RDF>
 </metadata>
 <defs>
  <style type="text/css">*{stroke-linejoin: round; stroke-linecap: butt}</style>
 </defs>
 <g id="figure_1">
  <g id="patch_1">
   <path d="M 0 280.8 
L 568.8 280.8 
L 568.8 0 
L 0 0 
L 0 280.8 
z
" style="fill: none"/>
  </g>
  <g id="axes_1">
   <g id="patch_2">
    <path d="M 38.482813 241.599141 
L 561.6 241.599141 
L 561.6 7.2 
L 38.482813 7.2 
L 38.482813 241.599141 
z
" style="fill: none"/>
   </g>
   <g id="matplotlib.axis_1">
    <g id="xtick_1">
     <g id="line2d_1">
      <path d="M 62.260866 241.599141 
L 62.260866 7.2 
" clip-path="url(#p056b1d2132)" style="fill: none; stroke-dasharray: 2.96,1.28; stroke-dashoffset: 0; stroke: #7f7f7f; stroke-opacity: 0.6; stroke-width: 0.8"/>
     </g>
     <g id="line2d_2">
      <defs>
       <path id="m38cd9fec20" d="M 0 0 
L 0 3.5 
" style="stroke: #7f7f7f; stroke-width: 1.8"/>
      </defs>
      <g>
       <use xlink:href="#m38cd9fec20" x="62.260866" y="241.599141" style="fill: #7f7f7f; stroke: #7f7f7f; stroke-width: 1.8"/>
      </g>
     </g>
     <g id="text_1">
      <!-- 0 -->
      <g style="fill: #7f7f7f" transform="translate(59.079616 256.196797) scale(0.1 -0.1)">
       <defs>
        <path id="DejaVuSans-13" d="M 2034 4250 
Q 1547 4250 1301 3770 
Q 1056 3291 1056 2328 
Q 1056 1369 1301 889 
Q 1547 409 2034 409 
Q 2525 409 2770 889 
Q 3016 1369 3016 2328 
Q 3016 3291 2770 3770 
Q 2525 4250 2034 4250 
z
M 2034 4750 
Q 2819 4750 3233 4129 
Q 3647 3509 3647 2328 
Q 3647 1150 3233 529 
Q 2819 -91 2034 -91 
Q 1250 -91 836 529 
Q 422 1150 422 2328 
Q 422 3509 836 4129 
Q 1250 4750 2034 4750 
z
" transform="scale(0.015625)"/>
       </defs>
       <use xlink:href="#DejaVuSans-13"/>
      </g>
     </g>
    </g>
    <g id="xtick_2">
     <g id="line2d_3">
      <path d="M 157.373082 241.599141 
L 157.373082 7.2 
" clip-path="url(#p056b1d2132)" style="fill: none; stroke-dasharray: 2.96,1.28; stroke-dashoffset: 0; stroke: #7f7f7f; stroke-opacity: 0.6; stroke-width: 0.8"/>
     </g>
     <g id="line2d_4">
      <g>
       <use xlink:href="#m38cd9fec20" x="157.373082" y="241.599141" style="fill: #7f7f7f; stroke: #7f7f7f; stroke-width: 1.8"/>
      </g>
     </g>
     <g id="text_2">
      <!-- 20 -->
      <g style="fill: #7f7f7f" transform="translate(151.010582 256.196797) scale(0.1 -0.1)">
       <defs>
        <path id="DejaVuSans-15" d="M 1228 531 
L 3431 531 
L 3431 0 
L 469 0 
L 469 531 
Q 828 903 1448 1529 
Q 2069 2156 2228 2338 
Q 2531 2678 2651 2914 
Q 2772 3150 2772 3378 
Q 2772 3750 2511 3984 
Q 2250 4219 1831 4219 
Q 1534 4219 1204 4116 
Q 875 4013 500 3803 
L 500 4441 
Q 881 4594 1212 4672 
Q 1544 4750 1819 4750 
Q 2544 4750 2975 4387 
Q 3406 4025 3406 3419 
Q 3406 3131 3298 2873 
Q 3191 2616 2906 2266 
Q 2828 2175 2409 1742 
Q 1991 1309 1228 531 
z
" transform="scale(0.015625)"/>
       </defs>
       <use xlink:href="#DejaVuSans-15"/>
       <use xlink:href="#DejaVuSans-13" transform="translate(63.625 0)"/>
      </g>
     </g>
    </g>
    <g id="xtick_3">
     <g id="line2d_5">
      <path d="M 252.485298 241.599141 
L 252.485298 7.2 
" clip-path="url(#p056b1d2132)" style="fill: none; stroke-dasharray: 2.96,1.28; stroke-dashoffset: 0; stroke: #7f7f7f; stroke-opacity: 0.6; stroke-width: 0.8"/>
     </g>
     <g id="line2d_6">
      <g>
       <use xlink:href="#m38cd9fec20" x="252.485298" y="241.599141" style="fill: #7f7f7f; stroke: #7f7f7f; stroke-width: 1.8"/>
      </g>
     </g>
     <g id="text_3">
      <!-- 40 -->
      <g style="fill: #7f7f7f" transform="translate(246.122798 256.196797) scale(0.1 -0.1)">
       <defs>
        <path id="DejaVuSans-17" d="M 2419 4116 
L 825 1625 
L 2419 1625 
L 2419 4116 
z
M 2253 4666 
L 3047 4666 
L 3047 1625 
L 3713 1625 
L 3713 1100 
L 3047 1100 
L 3047 0 
L 2419 0 
L 2419 1100 
L 313 1100 
L 313 1709 
L 2253 4666 
z
" transform="scale(0.015625)"/>
       </defs>
       <use xlink:href="#DejaVuSans-17"/>
       <use xlink:href="#DejaVuSans-13" transform="translate(63.625 0)"/>
      </g>
     </g>
    </g>
    <g id="xtick_4">
     <g id="line2d_7">
      <path d="M 347.597514 241.599141 
L 347.597514 7.2 
" clip-path="url(#p056b1d2132)" style="fill: none; stroke-dasharray: 2.96,1.28; stroke-dashoffset: 0; stroke: #7f7f7f; stroke-opacity: 0.6; stroke-width: 0.8"/>
     </g>
     <g id="line2d_8">
      <g>
       <use xlink:href="#m38cd9fec20" x="347.597514" y="241.599141" style="fill: #7f7f7f; stroke: #7f7f7f; stroke-width: 1.8"/>
      </g>
     </g>
     <g id="text_4">
      <!-- 60 -->
      <g style="fill: #7f7f7f" transform="translate(341.235014 256.196797) scale(0.1 -0.1)">
       <defs>
        <path id="DejaVuSans-19" d="M 2113 2584 
Q 1688 2584 1439 2293 
Q 1191 2003 1191 1497 
Q 1191 994 1439 701 
Q 1688 409 2113 409 
Q 2538 409 2786 701 
Q 3034 994 3034 1497 
Q 3034 2003 2786 2293 
Q 2538 2584 2113 2584 
z
M 3366 4563 
L 3366 3988 
Q 3128 4100 2886 4159 
Q 2644 4219 2406 4219 
Q 1781 4219 1451 3797 
Q 1122 3375 1075 2522 
Q 1259 2794 1537 2939 
Q 1816 3084 2150 3084 
Q 2853 3084 3261 2657 
Q 3669 2231 3669 1497 
Q 3669 778 3244 343 
Q 2819 -91 2113 -91 
Q 1303 -91 875 529 
Q 447 1150 447 2328 
Q 447 3434 972 4092 
Q 1497 4750 2381 4750 
Q 2619 4750 2861 4703 
Q 3103 4656 3366 4563 
z
" transform="scale(0.015625)"/>
       </defs>
       <use xlink:href="#DejaVuSans-19"/>
       <use xlink:href="#DejaVuSans-13" transform="translate(63.625 0)"/>
      </g>
     </g>
    </g>
    <g id="xtick_5">
     <g id="line2d_9">
      <path d="M 442.70973 241.599141 
L 442.70973 7.2 
" clip-path="url(#p056b1d2132)" style="fill: none; stroke-dasharray: 2.96,1.28; stroke-dashoffset: 0; stroke: #7f7f7f; stroke-opacity: 0.6; stroke-width: 0.8"/>
     </g>
     <g id="line2d_10">
      <g>
       <use xlink:href="#m38cd9fec20" x="442.70973" y="241.599141" style="fill: #7f7f7f; stroke: #7f7f7f; stroke-width: 1.8"/>
      </g>
     </g>
     <g id="text_5">
      <!-- 80 -->
      <g style="fill: #7f7f7f" transform="translate(436.34723 256.196797) scale(0.1 -0.1)">
       <defs>
        <path id="DejaVuSans-1b" d="M 2034 2216 
Q 1584 2216 1326 1975 
Q 1069 1734 1069 1313 
Q 1069 891 1326 650 
Q 1584 409 2034 409 
Q 2484 409 2743 651 
Q 3003 894 3003 1313 
Q 3003 1734 2745 1975 
Q 2488 2216 2034 2216 
z
M 1403 2484 
Q 997 2584 770 2862 
Q 544 3141 544 3541 
Q 544 4100 942 4425 
Q 1341 4750 2034 4750 
Q 2731 4750 3128 4425 
Q 3525 4100 3525 3541 
Q 3525 3141 3298 2862 
Q 3072 2584 2669 2484 
Q 3125 2378 3379 2068 
Q 3634 1759 3634 1313 
Q 3634 634 3220 271 
Q 2806 -91 2034 -91 
Q 1263 -91 848 271 
Q 434 634 434 1313 
Q 434 1759 690 2068 
Q 947 2378 1403 2484 
z
M 1172 3481 
Q 1172 3119 1398 2916 
Q 1625 2713 2034 2713 
Q 2441 2713 2670 2916 
Q 2900 3119 2900 3481 
Q 2900 3844 2670 4047 
Q 2441 4250 2034 4250 
Q 1625 4250 1398 4047 
Q 1172 3844 1172 3481 
z
" transform="scale(0.015625)"/>
       </defs>
       <use xlink:href="#DejaVuSans-1b"/>
       <use xlink:href="#DejaVuSans-13" transform="translate(63.625 0)"/>
      </g>
     </g>
    </g>
    <g id="xtick_6">
     <g id="line2d_11">
      <path d="M 537.821946 241.599141 
L 537.821946 7.2 
" clip-path="url(#p056b1d2132)" style="fill: none; stroke-dasharray: 2.96,1.28; stroke-dashoffset: 0; stroke: #7f7f7f; stroke-opacity: 0.6; stroke-width: 0.8"/>
     </g>
     <g id="line2d_12">
      <g>
       <use xlink:href="#m38cd9fec20" x="537.821946" y="241.599141" style="fill: #7f7f7f; stroke: #7f7f7f; stroke-width: 1.8"/>
      </g>
     </g>
     <g id="text_6">
      <!-- 100 -->
      <g style="fill: #7f7f7f" transform="translate(528.278196 256.196797) scale(0.1 -0.1)">
       <defs>
        <path id="DejaVuSans-14" d="M 794 531 
L 1825 531 
L 1825 4091 
L 703 3866 
L 703 4441 
L 1819 4666 
L 2450 4666 
L 2450 531 
L 3481 531 
L 3481 0 
L 794 0 
L 794 531 
z
" transform="scale(0.015625)"/>
       </defs>
       <use xlink:href="#DejaVuSans-14"/>
       <use xlink:href="#DejaVuSans-13" transform="translate(63.625 0)"/>
       <use xlink:href="#DejaVuSans-13" transform="translate(127.25 0)"/>
      </g>
     </g>
    </g>
    <g id="text_7">
     <!-- time [s] -->
     <g style="fill: #7f7f7f" transform="translate(278.710859 270.957422) scale(0.11 -0.11)">
      <defs>
       <path id="DejaVuSans-57" d="M 1172 4494 
L 1172 3500 
L 2356 3500 
L 2356 3053 
L 1172 3053 
L 1172 1153 
Q 1172 725 1289 603 
Q 1406 481 1766 481 
L 2356 481 
L 2356 0 
L 1766 0 
Q 1100 0 847 248 
Q 594 497 594 1153 
L 594 3053 
L 172 3053 
L 172 3500 
L 594 3500 
L 594 4494 
L 1172 4494 
z
" transform="scale(0.015625)"/>
       <path id="DejaVuSans-4c" d="M 603 3500 
L 1178 3500 
L 1178 0 
L 603 0 
L 603 3500 
z
M 603 4863 
L 1178 4863 
L 1178 4134 
L 603 4134 
L 603 4863 
z
" transform="scale(0.015625)"/>
       <path id="DejaVuSans-50" d="M 3328 2828 
Q 3544 3216 3844 3400 
Q 4144 3584 4550 3584 
Q 5097 3584 5394 3201 
Q 5691 2819 5691 2113 
L 5691 0 
L 5113 0 
L 5113 2094 
Q 5113 2597 4934 2840 
Q 4756 3084 4391 3084 
Q 3944 3084 3684 2787 
Q 3425 2491 3425 1978 
L 3425 0 
L 2847 0 
L 2847 2094 
Q 2847 2600 2669 2842 
Q 2491 3084 2119 3084 
Q 1678 3084 1418 2786 
Q 1159 2488 1159 1978 
L 1159 0 
L 581 0 
L 581 3500 
L 1159 3500 
L 1159 2956 
Q 1356 3278 1631 3431 
Q 1906 3584 2284 3584 
Q 2666 3584 2933 3390 
Q 3200 3197 3328 2828 
z
" transform="scale(0.015625)"/>
       <path id="DejaVuSans-48" d="M 3597 1894 
L 3597 1613 
L 953 1613 
Q 991 1019 1311 708 
Q 1631 397 2203 397 
Q 2534 397 2845 478 
Q 3156 559 3463 722 
L 3463 178 
Q 3153 47 2828 -22 
Q 2503 -91 2169 -91 
Q 1331 -91 842 396 
Q 353 884 353 1716 
Q 353 2575 817 3079 
Q 1281 3584 2069 3584 
Q 2775 3584 3186 3129 
Q 3597 2675 3597 1894 
z
M 3022 2063 
Q 3016 2534 2758 2815 
Q 2500 3097 2075 3097 
Q 1594 3097 1305 2825 
Q 1016 2553 972 2059 
L 3022 2063 
z
" transform="scale(0.015625)"/>
       <path id="DejaVuSans-3" transform="scale(0.015625)"/>
       <path id="DejaVuSans-3e" d="M 550 4863 
L 1875 4863 
L 1875 4416 
L 1125 4416 
L 1125 -397 
L 1875 -397 
L 1875 -844 
L 550 -844 
L 550 4863 
z
" transform="scale(0.015625)"/>
       <path id="DejaVuSans-56" d="M 2834 3397 
L 2834 2853 
Q 2591 2978 2328 3040 
Q 2066 3103 1784 3103 
Q 1356 3103 1142 2972 
Q 928 2841 928 2578 
Q 928 2378 1081 2264 
Q 1234 2150 1697 2047 
L 1894 2003 
Q 2506 1872 2764 1633 
Q 3022 1394 3022 966 
Q 3022 478 2636 193 
Q 2250 -91 1575 -91 
Q 1294 -91 989 -36 
Q 684 19 347 128 
L 347 722 
Q 666 556 975 473 
Q 1284 391 1588 391 
Q 1994 391 2212 530 
Q 2431 669 2431 922 
Q 2431 1156 2273 1281 
Q 2116 1406 1581 1522 
L 1381 1569 
Q 847 1681 609 1914 
Q 372 2147 372 2553 
Q 372 3047 722 3315 
Q 1072 3584 1716 3584 
Q 2034 3584 2315 3537 
Q 2597 3491 2834 3397 
z
" transform="scale(0.015625)"/>
       <path id="DejaVuSans-40" d="M 1947 4863 
L 1947 -844 
L 622 -844 
L 622 -397 
L 1369 -397 
L 1369 4416 
L 622 4416 
L 622 4863 
L 1947 4863 
z
" transform="scale(0.015625)"/>
      </defs>
      <use xlink:href="#DejaVuSans-57"/>
      <use xlink:href="#DejaVuSans-4c" transform="translate(39.203125 0)"/>
      <use xlink:href="#DejaVuSans-50" transform="translate(66.984375 0)"/>
      <use xlink:href="#DejaVuSans-48" transform="translate(164.390625 0)"/>
      <use xlink:href="#DejaVuSans-3" transform="translate(225.921875 0)"/>
      <use xlink:href="#DejaVuSans-3e" transform="translate(257.703125 0)"/>
      <use xlink:href="#DejaVuSans-56" transform="translate(296.71875 0)"/>
      <use xlink:href="#DejaVuSans-40" transform="translate(348.8125 0)"/>
     </g>
    </g>
   </g>
   <g id="matplotlib.axis_2">
    <g id="ytick_1">
     <g id="line2d_13">
      <path d="M 38.482813 241.309606 
L 561.6 241.309606 
" clip-path="url(#p056b1d2132)" style="fill: none; stroke-dasharray: 2.96,1.28; stroke-dashoffset: 0; stroke: #7f7f7f; stroke-opacity: 0.6; stroke-width: 0.8"/>
     </g>
     <g id="line2d_14">
      <defs>
       <path id="ma4ca7f5b99" d="M 0 0 
L -3.5 0 
" style="stroke: #7f7f7f; stroke-width: 1.8"/>
      </defs>
      <g>
       <use xlink:href="#ma4ca7f5b99" x="38.482813" y="241.309606" style="fill: #7f7f7f; stroke: #7f7f7f; stroke-width: 1.8"/>
      </g>
     </g>
     <g id="text_8">
      <!-- −0.3 -->
      <g style="fill: #7f7f7f" transform="translate(7.2 245.108434) scale(0.1 -0.1)">
       <defs>
        <path id="DejaVuSans-c9c" d="M 678 2272 
L 4684 2272 
L 4684 1741 
L 678 1741 
L 678 2272 
z
" transform="scale(0.015625)"/>
        <path id="DejaVuSans-11" d="M 684 794 
L 1344 794 
L 1344 0 
L 684 0 
L 684 794 
z
" transform="scale(0.015625)"/>
        <path id="DejaVuSans-16" d="M 2597 2516 
Q 3050 2419 3304 2112 
Q 3559 1806 3559 1356 
Q 3559 666 3084 287 
Q 2609 -91 1734 -91 
Q 1441 -91 1130 -33 
Q 819 25 488 141 
L 488 750 
Q 750 597 1062 519 
Q 1375 441 1716 441 
Q 2309 441 2620 675 
Q 2931 909 2931 1356 
Q 2931 1769 2642 2001 
Q 2353 2234 1838 2234 
L 1294 2234 
L 1294 2753 
L 1863 2753 
Q 2328 2753 2575 2939 
Q 2822 3125 2822 3475 
Q 2822 3834 2567 4026 
Q 2313 4219 1838 4219 
Q 1578 4219 1281 4162 
Q 984 4106 628 3988 
L 628 4550 
Q 988 4650 1302 4700 
Q 1616 4750 1894 4750 
Q 2613 4750 3031 4423 
Q 3450 4097 3450 3541 
Q 3450 3153 3228 2886 
Q 3006 2619 2597 2516 
z
" transform="scale(0.015625)"/>
       </defs>
       <use xlink:href="#DejaVuSans-c9c"/>
       <use xlink:href="#DejaVuSans-13" transform="translate(83.796875 0)"/>
       <use xlink:href="#DejaVuSans-11" transform="translate(147.421875 0)"/>
       <use xlink:href="#DejaVuSans-16" transform="translate(179.203125 0)"/>
      </g>
     </g>
    </g>
    <g id="ytick_2">
     <g id="line2d_15">
      <path d="M 38.482813 201.641255 
L 561.6 201.641255 
" clip-path="url(#p056b1d2132)" style="fill: none; stroke-dasharray: 2.96,1.28; stroke-dashoffset: 0; stroke: #7f7f7f; stroke-opacity: 0.6; stroke-width: 0.8"/>
     </g>
     <g id="line2d_16">
      <g>
       <use xlink:href="#ma4ca7f5b99" x="38.482813" y="201.641255" style="fill: #7f7f7f; stroke: #7f7f7f; stroke-width: 1.8"/>
      </g>
     </g>
     <g id="text_9">
      <!-- −0.2 -->
      <g style="fill: #7f7f7f" transform="translate(7.2 205.440083) scale(0.1 -0.1)">
       <use xlink:href="#DejaVuSans-c9c"/>
       <use xlink:href="#DejaVuSans-13" transform="translate(83.796875 0)"/>
       <use xlink:href="#DejaVuSans-11" transform="translate(147.421875 0)"/>
       <use xlink:href="#DejaVuSans-15" transform="translate(179.203125 0)"/>
      </g>
     </g>
    </g>
    <g id="ytick_3">
     <g id="line2d_17">
      <path d="M 38.482813 161.972904 
L 561.6 161.972904 
" clip-path="url(#p056b1d2132)" style="fill: none; stroke-dasharray: 2.96,1.28; stroke-dashoffset: 0; stroke: #7f7f7f; stroke-opacity: 0.6; stroke-width: 0.8"/>
     </g>
     <g id="line2d_18">
      <g>
       <use xlink:href="#ma4ca7f5b99" x="38.482813" y="161.972904" style="fill: #7f7f7f; stroke: #7f7f7f; stroke-width: 1.8"/>
      </g>
     </g>
     <g id="text_10">
      <!-- −0.1 -->
      <g style="fill: #7f7f7f" transform="translate(7.2 165.771732) scale(0.1 -0.1)">
       <use xlink:href="#DejaVuSans-c9c"/>
       <use xlink:href="#DejaVuSans-13" transform="translate(83.796875 0)"/>
       <use xlink:href="#DejaVuSans-11" transform="translate(147.421875 0)"/>
       <use xlink:href="#DejaVuSans-14" transform="translate(179.203125 0)"/>
      </g>
     </g>
    </g>
    <g id="ytick_4">
     <g id="line2d_19">
      <path d="M 38.482813 122.304554 
L 561.6 122.304554 
" clip-path="url(#p056b1d2132)" style="fill: none; stroke-dasharray: 2.96,1.28; stroke-dashoffset: 0; stroke: #7f7f7f; stroke-opacity: 0.6; stroke-width: 0.8"/>
     </g>
     <g id="line2d_20">
      <g>
       <use xlink:href="#ma4ca7f5b99" x="38.482813" y="122.304554" style="fill: #7f7f7f; stroke: #7f7f7f; stroke-width: 1.8"/>
      </g>
     </g>
     <g id="text_11">
      <!-- 0.0 -->
      <g style="fill: #7f7f7f" transform="translate(15.579688 126.103382) scale(0.1 -0.1)">
       <use xlink:href="#DejaVuSans-13"/>
       <use xlink:href="#DejaVuSans-11" transform="translate(63.625 0)"/>
       <use xlink:href="#DejaVuSans-13" transform="translate(95.40625 0)"/>
      </g>
     </g>
    </g>
    <g id="ytick_5">
     <g id="line2d_21">
      <path d="M 38.482813 82.636203 
L 561.6 82.636203 
" clip-path="url(#p056b1d2132)" style="fill: none; stroke-dasharray: 2.96,1.28; stroke-dashoffset: 0; stroke: #7f7f7f; stroke-opacity: 0.6; stroke-width: 0.8"/>
     </g>
     <g id="line2d_22">
      <g>
       <use xlink:href="#ma4ca7f5b99" x="38.482813" y="82.636203" style="fill: #7f7f7f; stroke: #7f7f7f; stroke-width: 1.8"/>
      </g>
     </g>
     <g id="text_12">
      <!-- 0.1 -->
      <g style="fill: #7f7f7f" transform="translate(15.579688 86.435031) scale(0.1 -0.1)">
       <use xlink:href="#DejaVuSans-13"/>
       <use xlink:href="#DejaVuSans-11" transform="translate(63.625 0)"/>
       <use xlink:href="#DejaVuSans-14" transform="translate(95.40625 0)"/>
      </g>
     </g>
    </g>
    <g id="ytick_6">
     <g id="line2d_23">
      <path d="M 38.482813 42.967852 
L 561.6 42.967852 
" clip-path="url(#p056b1d2132)" style="fill: none; stroke-dasharray: 2.96,1.28; stroke-dashoffset: 0; stroke: #7f7f7f; stroke-opacity: 0.6; stroke-width: 0.8"/>
     </g>
     <g id="line2d_24">
      <g>
       <use xlink:href="#ma4ca7f5b99" x="38.482813" y="42.967852" style="fill: #7f7f7f; stroke: #7f7f7f; stroke-width: 1.8"/>
      </g>
     </g>
     <g id="text_13">
      <!-- 0.2 -->
      <g style="fill: #7f7f7f" transform="translate(15.579688 46.76668) scale(0.1 -0.1)">
       <use xlink:href="#DejaVuSans-13"/>
       <use xlink:href="#DejaVuSans-11" transform="translate(63.625 0)"/>
       <use xlink:href="#DejaVuSans-15" transform="translate(95.40625 0)"/>
      </g>
     </g>
    </g>
   </g>
   <g id="line2d_25">
    <path d="M 62.260866 122.304554 
L 62.308423 124.517871 
L 62.476093 120.054205 
L 63.183139 123.167345 
L 63.533275 121.83097 
L 63.859884 123.625543 
L 64.189052 122.286298 
L 64.586841 123.105561 
L 65.50942 120.977694 
L 65.208617 123.785522 
L 65.786008 121.814106 
L 66.156918 120.963088 
L 66.512443 123.110012 
L 67.259406 122.017928 
L 68.543327 121.717406 
L 69.031421 122.716686 
L 69.483311 122.094442 
L 69.829468 121.125671 
L 70.591172 121.796614 
L 71.907239 123.228905 
L 73.160082 122.751996 
L 74.325734 122.135329 
L 74.744583 121.504118 
L 75.157415 121.946898 
L 75.517023 123.604518 
L 76.286385 122.891111 
L 77.082628 120.930588 
L 77.352574 125.521371 
L 77.881769 122.713636 
L 78.452176 119.742818 
L 78.713635 123.07726 
L 78.972324 123.05079 
L 79.293638 120.842762 
L 79.589225 123.467361 
L 79.869939 123.099034 
L 80.160226 124.823693 
L 80.432646 123.922869 
L 80.736469 121.564215 
L 81.330359 123.289575 
L 82.489112 121.965493 
L 82.938596 123.085027 
L 83.354763 121.923286 
L 84.079558 121.03958 
L 84.929743 124.798886 
L 84.709335 119.35747 
L 85.158111 121.519601 
L 85.722593 123.9657 
L 86.037745 121.708938 
L 86.355192 120.845527 
L 86.66178 121.985148 
L 88.250035 122.248307 
L 89.065448 123.767109 
L 90.213966 122.154374 
L 90.609871 122.095123 
L 91.022238 123.16155 
L 91.411732 122.590047 
L 95.936847 122.558715 
L 96.754315 121.164494 
L 97.131798 121.564578 
L 97.54578 122.717045 
L 98.33888 122.29661 
L 99.217822 122.223544 
L 99.610615 122.935223 
L 100.77862 121.534016 
L 101.137211 123.479204 
L 101.490563 122.828572 
L 101.828023 120.094112 
L 102.102144 123.614623 
L 102.397571 121.850988 
L 103.045297 120.739087 
L 103.312675 124.382097 
L 103.857096 122.592611 
L 104.631952 121.395289 
L 105.225126 120.43598 
L 105.771876 124.635713 
L 106.023989 121.73345 
L 106.916333 122.635758 
L 107.29552 121.440166 
L 107.672797 122.55961 
L 108.924225 122.627218 
L 109.272685 124.066546 
L 109.598082 123.39518 
L 110.740185 121.654956 
L 111.505386 123.176293 
L 112.819251 120.573738 
L 114.671919 122.908824 
L 115.765015 120.645309 
L 116.090574 121.222495 
L 116.806434 123.564716 
L 117.142049 122.357498 
L 117.880205 123.140168 
L 118.269617 121.45045 
L 118.632474 122.768429 
L 118.96323 123.988813 
L 119.281598 121.17675 
L 119.853929 121.811504 
L 120.54095 123.595956 
L 120.907846 122.167656 
L 121.268444 121.082855 
L 121.620846 121.661045 
L 122.631695 124.301136 
L 122.354087 120.859383 
L 122.906608 122.921115 
L 123.25479 120.785777 
L 123.917879 122.874348 
L 124.310705 122.168185 
L 125.41074 123.850107 
L 125.746645 121.165506 
L 126.434671 121.51035 
L 128.192534 123.600317 
L 129.987417 120.119089 
L 131.698896 124.548056 
L 131.989491 121.727406 
L 132.657231 123.48529 
L 133.022647 123.428375 
L 133.744654 120.990737 
L 134.091627 121.914387 
L 135.684702 123.584274 
L 136.051514 121.930323 
L 136.427637 122.58685 
L 137.14496 124.025533 
L 137.743015 119.848209 
L 138.317774 120.439058 
L 139.921821 123.268777 
L 141.631464 121.043026 
L 143.213527 123.685093 
L 143.501217 120.52535 
L 144.1265 123.008615 
L 145.356102 121.673845 
L 145.760597 122.768289 
L 146.173761 122.395217 
L 147.123878 121.990682 
L 147.460833 124.409481 
L 147.713134 119.971311 
L 147.964512 121.843313 
L 148.315679 122.616722 
L 148.719996 122.016883 
L 149.500956 120.879846 
L 150.741867 122.763287 
L 153.068965 123.001206 
L 153.381199 124.547194 
L 153.672191 121.966526 
L 153.971619 122.022729 
L 154.334037 123.538865 
L 154.695544 122.801864 
L 155.899685 121.523099 
L 156.344448 122.405677 
L 156.781945 121.73099 
L 157.340375 122.466795 
L 157.373214 180.111311 
L 157.373077 17.854506 
L 158.253576 113.595686 
L 158.711683 118.529774 
L 159.207188 115.746113 
L 159.373376 115.584388 
L 160.148734 119.100232 
L 160.399057 118.036749 
L 160.634225 118.289112 
L 160.871705 117.855744 
L 161.324756 116.832939 
L 161.542133 118.427622 
L 162.581177 119.172584 
L 162.866797 117.538859 
L 163.129169 119.636665 
L 163.444633 120.755864 
L 164.194581 120.028702 
L 166.379205 119.194289 
L 166.733433 117.941926 
L 167.053364 119.790142 
L 167.771555 119.005324 
L 168.118233 119.376565 
L 168.824255 118.540343 
L 169.164915 121.198328 
L 170.86132 118.983536 
L 171.245312 120.034263 
L 171.651977 121.048974 
L 172.012852 119.203971 
L 172.368687 122.163722 
L 172.728224 119.517993 
L 173.97512 120.967062 
L 174.764415 118.543417 
L 175.122109 120.038217 
L 175.528176 121.379412 
L 176.091608 121.13514 
L 176.933372 119.593045 
L 178.093312 121.31254 
L 179.086008 121.227916 
L 179.847888 119.345552 
L 180.214427 120.795825 
L 181.084666 120.215361 
L 181.988966 121.049195 
L 182.491511 120.928217 
L 182.947739 122.080477 
L 183.699632 121.639828 
L 184.076761 120.563201 
L 184.450497 123.021689 
L 184.86777 120.524183 
L 187.723316 122.805053 
L 188.186578 121.468547 
L 188.683427 122.40525 
L 189.103012 123.250157 
L 189.489546 121.379963 
L 190.369396 121.564458 
L 190.84314 121.809228 
L 191.186295 119.644245 
L 191.525353 121.57713 
L 192.03898 121.336476 
L 194.240338 123.315307 
L 195.073604 121.481519 
L 195.472386 122.486944 
L 195.906636 121.664521 
L 196.338022 122.836764 
L 199.153713 121.813092 
L 200.134368 123.067424 
L 200.574498 121.768648 
L 201.063111 122.934299 
L 201.529656 122.963711 
L 201.869701 120.506155 
L 202.206204 123.574279 
L 202.580124 121.641773 
L 203.003963 122.892829 
L 203.419359 121.229731 
L 205.209039 123.422008 
L 206.068765 122.010717 
L 206.528016 121.773823 
L 207.4445 123.195133 
L 208.366839 121.906995 
L 209.758734 123.443101 
L 210.215382 121.904973 
L 210.568519 124.241404 
L 211.379634 122.917726 
L 211.70263 119.835106 
L 212.021099 123.017367 
L 212.402427 122.358243 
L 215.281918 122.889178 
L 217.218748 121.758569 
L 218.990985 122.647785 
L 219.542669 122.280886 
L 219.916115 123.676439 
L 220.733047 123.180502 
L 221.208392 121.745242 
L 221.666745 122.634229 
L 222.100491 123.399341 
L 222.493486 122.732893 
L 222.998805 121.915232 
L 223.966046 122.91352 
L 224.941098 122.872684 
L 225.398806 123.156589 
L 225.855482 122.323203 
L 226.422977 122.468399 
L 226.794425 121.097068 
L 227.163086 124.688901 
L 227.520221 121.666321 
L 227.897157 120.604568 
L 228.248684 121.547868 
L 230.788163 122.802857 
L 231.295379 121.628168 
L 232.194934 123.436624 
L 233.60939 122.040719 
L 235.570746 122.134909 
L 236.50272 122.836388 
L 236.979647 121.888735 
L 237.496984 122.490315 
L 237.986749 122.50465 
L 239.144343 123.514178 
L 240.505565 123.09968 
L 240.826828 119.951365 
L 241.143436 121.932209 
L 241.563402 122.589756 
L 242.374631 120.267679 
L 243.130744 123.424665 
L 243.487743 122.942713 
L 244.782678 121.200995 
L 246.066768 123.090985 
L 246.497525 122.268133 
L 247.050241 122.841945 
L 247.487404 123.502512 
L 247.88481 121.039958 
L 248.280964 122.461802 
L 248.634673 124.048375 
L 249.424406 123.47963 
L 249.869248 123.394872 
L 250.184217 119.736462 
L 250.924873 122.206295 
L 252.135768 123.292389 
L 253.849906 121.496471 
L 254.291595 122.694198 
L 255.576659 121.978591 
L 257.136093 120.116968 
L 258.323844 123.653326 
L 258.7259 121.896767 
L 259.265118 122.610599 
L 261.002389 123.497758 
L 261.324285 120.124547 
L 262.062747 122.00059 
L 262.535559 120.771826 
L 262.962008 121.858978 
L 264.042588 125.382864 
L 263.722744 121.518814 
L 264.357475 123.256498 
L 264.702943 121.209154 
L 265.045748 122.212832 
L 265.483295 123.044924 
L 265.929523 122.653912 
L 269.353629 122.645867 
L 269.710374 124.368629 
L 270.063585 121.248123 
L 270.872587 121.790056 
L 271.320689 120.869913 
L 271.734536 121.084204 
L 272.55724 123.716139 
L 272.940136 123.468477 
L 273.352079 120.370944 
L 273.724628 121.249006 
L 274.123938 122.884013 
L 274.947777 122.545108 
L 276.468345 120.501625 
L 276.832742 121.007968 
L 277.233423 121.040397 
L 277.663209 122.673572 
L 278.142732 121.17001 
L 278.626202 121.473311 
L 279.472368 123.58642 
L 279.867502 122.285048 
L 280.457754 122.53849 
L 280.989565 122.527272 
L 281.357464 123.911925 
L 281.722171 123.108591 
L 282.557373 120.694808 
L 282.909442 122.229453 
L 284.199105 122.474727 
L 285.021722 122.367974 
L 285.397429 123.622665 
L 286.271978 123.323151 
L 286.744185 121.205008 
L 287.170391 121.569456 
L 287.597356 123.537182 
L 288.006323 122.975425 
L 288.437015 122.231684 
L 288.898532 122.661948 
L 289.330133 123.329588 
L 290.534662 119.713993 
L 290.875893 122.443716 
L 291.337184 120.868472 
L 293.005882 122.527301 
L 293.38059 120.935331 
L 293.742013 122.293676 
L 294.633722 123.276704 
L 295.059459 122.603109 
L 295.530788 121.626535 
L 295.87022 124.40787 
L 296.205668 121.465815 
L 296.59473 121.05358 
L 296.903051 125.753961 
L 297.562001 121.866173 
L 298.284454 123.162928 
L 298.707702 121.362921 
L 299.546438 122.127607 
L 299.954911 121.310273 
L 300.387215 123.270663 
L 300.80478 121.51096 
L 301.941168 124.535481 
L 302.270836 121.397474 
L 303.074987 121.749562 
L 303.504359 121.00056 
L 304.355594 123.656489 
L 305.610778 120.582425 
L 306.002121 122.850956 
L 306.423025 121.375636 
L 306.806625 121.340599 
L 307.95158 123.86822 
L 308.701784 122.321438 
L 309.066005 124.681815 
L 309.406752 121.949407 
L 310.238339 121.71799 
L 310.622635 120.159908 
L 310.972645 122.362596 
L 311.398724 121.632825 
L 312.615145 123.957883 
L 313.440923 122.599814 
L 313.818249 123.866255 
L 314.192832 121.195494 
L 314.955907 121.772282 
L 315.697269 120.251429 
L 316.071769 121.300808 
L 316.456825 122.616216 
L 317.285147 122.007986 
L 317.734693 121.846885 
L 318.605541 123.104771 
L 319.009291 121.815614 
L 319.475204 123.735233 
L 319.912884 120.647486 
L 320.314294 123.377417 
L 321.603828 122.004157 
L 323.200743 124.099136 
L 325.334013 121.154472 
L 326.124199 122.053924 
L 326.510382 120.971383 
L 326.893626 122.098617 
L 327.247626 122.553033 
L 327.609355 120.172202 
L 327.977482 122.341206 
L 329.620398 122.801458 
L 330.073216 122.634301 
L 330.431678 120.954265 
L 331.194285 122.121579 
L 331.588037 122.984949 
L 331.980456 122.466339 
L 332.39161 122.066588 
L 333.614733 123.386132 
L 335.264048 120.850176 
L 335.624885 124.224822 
L 335.973926 121.957058 
L 336.375448 121.061727 
L 336.746179 121.917397 
L 337.170994 123.555543 
L 337.983469 123.230699 
L 338.38928 121.019807 
L 339.190796 122.183077 
L 341.217767 120.534753 
L 342.009044 122.823352 
L 342.409136 122.440592 
L 346.452471 123.405092 
L 347.444316 118.09961 
L 347.597504 165.882064 
L 347.597775 230.944634 
L 347.598019 52.626247 
L 348.328564 124.848026 
L 348.665121 127.386448 
L 349.341204 125.92045 
L 353.657628 123.421766 
L 355.229384 125.363932 
L 356.625494 122.498083 
L 357.897276 124.735748 
L 358.703597 122.764896 
L 359.350051 123.204994 
L 359.938511 122.354524 
L 360.657153 126.15743 
L 360.996961 122.619069 
L 361.461804 122.403592 
L 361.892981 124.385089 
L 362.759542 123.906293 
L 363.201919 122.380061 
L 363.823954 122.970757 
L 364.170563 124.941967 
L 364.512933 122.233197 
L 364.964446 122.163057 
L 365.800115 124.96007 
L 366.17081 123.679039 
L 366.608001 123.47387 
L 366.972525 124.873148 
L 367.333186 123.616163 
L 367.775719 122.357652 
L 368.276367 122.540138 
L 368.805335 123.103445 
L 369.158123 121.023761 
L 369.507802 121.801369 
L 369.951137 123.124185 
L 370.397418 121.147783 
L 370.717511 125.135832 
L 371.03244 120.603732 
L 371.360666 123.55918 
L 372.176927 121.853652 
L 372.591121 123.632212 
L 373.460679 123.296283 
L 373.92463 122.263142 
L 374.645275 124.335164 
L 375.022189 123.095686 
L 375.399378 124.379322 
L 375.772576 122.491872 
L 376.858456 122.425078 
L 377.237602 121.27526 
L 377.614468 121.960304 
L 378.102001 122.74414 
L 378.586254 122.133404 
L 379.739985 122.964085 
L 380.178228 121.716814 
L 380.651462 123.599245 
L 381.093995 122.192659 
L 383.813589 122.23603 
L 384.538397 121.95351 
L 384.985473 124.197226 
L 385.398173 121.805695 
L 385.8577 122.411143 
L 386.865724 122.50222 
L 387.201727 120.068187 
L 387.533624 124.617438 
L 387.85388 121.912793 
L 388.23719 120.757628 
L 388.61371 123.055835 
L 389.494813 122.546733 
L 389.860082 120.786045 
L 390.221699 122.857091 
L 390.645174 122.684492 
L 391.089705 123.653491 
L 391.889113 120.848616 
L 392.257245 122.207238 
L 392.629622 123.29708 
L 393.000167 120.394689 
L 393.365617 121.894732 
L 394.690256 123.450349 
L 395.117871 120.698151 
L 395.524745 123.1902 
L 397.243508 120.841814 
L 398.491205 124.302068 
L 398.877962 122.144473 
L 399.352558 122.330839 
L 400.945626 122.870172 
L 401.798199 121.152201 
L 402.187012 123.546254 
L 403.034365 122.757038 
L 403.500715 122.848763 
L 404.868206 121.704908 
L 405.746171 120.972453 
L 406.135587 123.341836 
L 406.540042 121.843733 
L 407.026813 121.453402 
L 407.891188 123.261945 
L 408.280233 121.18558 
L 408.693804 124.0278 
L 410.018858 120.98366 
L 410.393328 122.929547 
L 410.829395 122.289398 
L 411.166817 119.868374 
L 411.500225 123.287324 
L 413.239837 121.643854 
L 414.205759 122.219811 
L 415.054413 121.779141 
L 415.537949 122.80524 
L 416.014745 122.467491 
L 417.195111 120.826709 
L 418.006574 123.673516 
L 418.363942 123.187883 
L 418.784844 121.442718 
L 419.660223 121.82558 
L 420.88639 123.894826 
L 421.274677 121.99905 
L 421.744382 122.674025 
L 423.93794 122.206881 
L 424.345291 122.987001 
L 425.573933 120.815955 
L 426.805914 123.043484 
L 428.050986 120.515252 
L 428.412371 123.367928 
L 429.225642 122.099769 
L 430.12688 121.098541 
L 430.943647 123.832111 
L 431.301335 123.620756 
L 432.598616 122.109532 
L 432.98114 123.373888 
L 433.361044 120.852329 
L 434.223083 121.117577 
L 435.795324 124.919607 
L 437.031762 121.822186 
L 438.375628 123.051112 
L 439.696699 121.263732 
L 440.511764 123.684014 
L 441.258281 119.712154 
L 441.594627 121.313379 
L 442.464807 123.064484 
L 442.878567 121.244567 
L 443.324254 122.521296 
L 444.713746 122.70528 
L 446.969687 123.130607 
L 448.278147 121.966166 
L 449.163324 122.674618 
L 449.578146 120.613615 
L 449.969538 121.900948 
L 450.305698 124.197445 
L 450.638455 121.845353 
L 451.042455 120.723933 
L 451.422424 121.026464 
L 452.281104 122.909011 
L 453.516895 121.725517 
L 454.707707 124.690823 
L 455.831624 119.861697 
L 456.186487 122.763253 
L 457.009897 122.637607 
L 457.422124 121.087966 
L 457.854107 122.570823 
L 458.24929 123.889345 
L 458.606086 120.733622 
L 459.419818 121.48354 
L 459.856356 123.512143 
L 460.270289 120.153127 
L 460.658039 121.765913 
L 462.596393 123.175511 
L 464.466414 122.312282 
L 464.925414 122.228205 
L 465.299067 123.61231 
L 466.094563 122.862957 
L 468.694327 120.329266 
L 469.0868 123.595029 
L 469.876435 122.38661 
L 470.642076 122.791913 
L 471.891613 121.397069 
L 473.117082 124.70204 
L 473.849602 121.934848 
L 474.248121 124.408452 
L 474.634862 123.841151 
L 474.944071 119.811351 
L 475.623845 120.815784 
L 476.017232 121.86458 
L 476.438356 121.697343 
L 476.863194 120.530459 
L 477.266627 121.34825 
L 478.08317 124.56275 
L 478.419435 123.959454 
L 479.604712 122.304749 
L 479.944508 124.979792 
L 480.279929 120.870731 
L 480.989986 121.87989 
L 481.369485 123.08367 
L 481.747584 121.471434 
L 483.676288 123.931939 
L 484.811935 120.348708 
L 485.61017 123.863266 
L 485.983485 122.402398 
L 486.336464 120.811292 
L 486.686788 123.340207 
L 487.073272 121.286349 
L 487.496933 121.326064 
L 489.011672 125.287144 
L 490.636755 120.686675 
L 491.410233 123.280346 
L 491.818819 120.936283 
L 492.233542 121.492422 
L 492.660005 123.162107 
L 493.072747 122.143619 
L 494.826112 120.809388 
L 495.989548 123.512019 
L 497.374181 121.625166 
L 497.836153 121.610493 
L 498.275937 123.761892 
L 498.680585 121.435761 
L 499.099129 120.668403 
L 499.87084 123.636379 
L 500.236583 122.216841 
L 500.74183 122.892634 
L 501.26107 122.040388 
L 502.081387 122.831193 
L 503.465395 120.564516 
L 504.767792 122.400576 
L 505.611411 122.968849 
L 506.715339 121.588663 
L 507.501883 122.888554 
L 507.899117 121.858597 
L 509.186536 121.087012 
L 509.560731 124.531144 
L 510.285729 123.167869 
L 510.647369 124.068511 
L 511.769569 119.718626 
L 512.535821 122.886263 
L 512.939467 121.553286 
L 513.34888 121.259127 
L 513.753427 121.946187 
L 514.214689 122.749128 
L 514.641679 122.394245 
L 514.984515 120.199161 
L 515.323615 123.915636 
L 516.800264 120.516622 
L 518.052646 122.580376 
L 518.435599 122.663204 
L 518.823074 120.926991 
L 519.219877 123.327856 
L 519.641851 123.661109 
L 520.468522 122.029558 
L 521.852462 123.589666 
L 523.033329 121.049941 
L 524.605439 124.8794 
L 525.801231 121.23048 
L 526.599169 120.949247 
L 527.009569 122.966132 
L 527.445035 121.957924 
L 527.837554 121.436197 
L 528.694629 121.127249 
L 529.143636 122.441946 
L 529.560548 122.97285 
L 530.375211 121.087198 
L 531.63937 123.958788 
L 532.864862 121.743611 
L 534.157706 123.680416 
L 535.416404 121.476498 
L 536.367181 121.442627 
L 536.79288 120.927771 
L 537.189689 121.391756 
L 537.821946 123.894823 
L 537.821946 123.894823 
" clip-path="url(#p056b1d2132)" style="fill: none; stroke: #e41a1c; stroke-width: 2; stroke-linecap: square"/>
   </g>
   <g id="line2d_26">
    <path d="M 62.260866 122.304554 
L 62.308423 122.885065 
L 62.476093 121.687138 
L 63.183139 122.487207 
L 64.189052 122.375182 
L 65.208617 122.856956 
L 66.156918 121.760492 
L 67.259406 122.06039 
L 70.591172 121.447827 
L 74.325734 121.949392 
L 75.869592 122.063588 
L 77.881769 122.379379 
L 78.452176 121.086083 
L 78.972324 122.045581 
L 79.293638 121.320095 
L 79.869939 122.09115 
L 81.036041 122.682274 
L 83.354763 122.412962 
L 84.709335 121.122418 
L 85.722593 122.564017 
L 87.138668 121.728794 
L 89.065448 122.467872 
L 90.609871 121.950522 
L 92.310549 122.657536 
L 99.217822 122.156618 
L 100.388705 121.8047 
L 103.045297 121.188579 
L 103.579559 122.420787 
L 103.857096 122.077524 
L 105.225126 121.324729 
L 106.571578 122.443781 
L 108.924225 122.399425 
L 109.963853 122.856314 
L 111.10704 122.71181 
L 112.156011 122.617443 
L 113.130284 121.875517 
L 113.480391 122.310568 
L 115.427694 121.772174 
L 116.090574 121.392332 
L 116.456803 121.93375 
L 117.880205 122.393219 
L 118.269617 121.850023 
L 118.632474 122.238416 
L 119.574211 122.647296 
L 120.156879 122.310591 
L 120.54095 122.815203 
L 122.354087 121.754102 
L 122.631695 122.810734 
L 123.25479 121.81156 
L 124.684079 122.854114 
L 131.38025 121.968003 
L 132.657231 122.584026 
L 133.386899 122.396644 
L 134.091627 122.102989 
L 134.482003 122.46486 
L 136.051514 122.470908 
L 137.14496 123.502761 
L 137.47198 122.799938 
L 138.317774 121.903651 
L 138.613387 122.175754 
L 141.220792 122.438743 
L 142.431443 122.118221 
L 146.173761 122.322159 
L 151.680729 122.28302 
L 156.344448 122.544785 
L 157.340375 122.380179 
L 157.373214 136.40113 
L 157.373077 96.807412 
L 158.253576 117.738106 
L 158.711683 118.059672 
L 159.954711 114.677764 
L 160.148734 115.07271 
L 160.634225 114.089997 
L 162.866797 110.28418 
L 163.129169 110.522315 
L 164.194581 109.774091 
L 178.093312 98.313544 
L 180.214427 96.769779 
L 182.491511 95.334532 
L 183.699632 95.264259 
L 185.292447 94.402719 
L 187.723316 94.552019 
L 188.683427 94.328343 
L 189.919419 94.132464 
L 193.015195 93.673854 
L 195.472386 93.705495 
L 196.827226 93.761077 
L 198.720522 93.261089 
L 224.433327 95.320581 
L 226.422977 95.66111 
L 226.794425 95.149319 
L 227.163086 96.37396 
L 227.520221 95.548146 
L 228.692337 95.116667 
L 232.194934 96.072007 
L 234.138298 95.462974 
L 235.570746 95.274884 
L 240.505565 96.793835 
L 240.826828 95.732268 
L 241.563402 96.381697 
L 242.374631 95.318927 
L 242.736741 95.773587 
L 243.487743 96.215257 
L 243.918668 95.718738 
L 246.497525 95.720157 
L 249.869248 96.923321 
L 250.184217 95.716034 
L 250.924873 96.191861 
L 252.588709 96.834519 
L 254.291595 96.490939 
L 256.385791 96.188878 
L 257.916719 95.364193 
L 259.265118 95.86221 
L 261.002389 96.733721 
L 261.324285 95.637197 
L 262.062747 95.938278 
L 262.962008 95.531463 
L 264.042588 96.790865 
L 264.357475 96.391653 
L 264.702943 95.744833 
L 265.483295 96.312632 
L 269.353629 96.565832 
L 269.710374 97.281004 
L 270.063585 96.376523 
L 271.320689 95.894793 
L 272.135255 96.320004 
L 272.940136 96.847054 
L 273.724628 95.832903 
L 274.123938 96.321065 
L 278.142732 95.086191 
L 279.07078 95.742799 
L 281.722171 96.275282 
L 284.199105 95.926227 
L 303.074987 95.649879 
L 303.504359 95.240709 
L 303.922173 95.908174 
L 305.197001 96.102329 
L 306.423025 95.363096 
L 307.5978 95.299801 
L 309.066005 96.623606 
L 310.622635 95.01843 
L 312.615145 96.502551 
L 314.192832 96.028817 
L 314.585127 96.757661 
L 314.955907 96.277123 
L 316.071769 95.435141 
L 317.285147 95.499185 
L 319.009291 95.570101 
L 320.314294 96.100835 
L 321.603828 95.720123 
L 323.597564 96.744988 
L 328.355811 95.671243 
L 330.073216 96.033696 
L 331.194285 95.54135 
L 332.808287 96.038389 
L 334.39967 95.964708 
L 339.190796 96.133475 
L 343.741691 95.630461 
L 345.542225 95.790362 
L 347.595968 95.870814 
L 347.597775 122.320656 
L 347.598019 78.804453 
L 348.328564 97.230629 
L 350.109828 100.185915 
L 350.994372 100.725453 
L 359.350051 104.543582 
L 360.300199 105.039039 
L 360.657153 106.05561 
L 360.996961 105.231513 
L 362.302937 105.868934 
L 364.170563 107.103292 
L 364.964446 106.38075 
L 366.972525 108.579924 
L 370.397418 107.761428 
L 370.717511 109.086851 
L 371.360666 108.645654 
L 372.176927 108.149617 
L 372.591121 108.795391 
L 374.287176 109.448428 
L 375.399378 110.22661 
L 375.772576 109.798176 
L 379.739985 110.05963 
L 381.093995 109.992026 
L 383.813589 109.959051 
L 384.985473 110.940105 
L 385.8577 110.449683 
L 386.865724 110.635746 
L 387.201727 109.74668 
L 387.533624 111.1602 
L 387.85388 110.452767 
L 389.033151 110.091955 
L 391.089705 110.82491 
L 391.889113 109.786875 
L 392.257245 110.103033 
L 392.629622 110.51483 
L 393.000167 109.525986 
L 394.690256 110.452742 
L 395.956839 109.846417 
L 397.243508 109.035212 
L 398.491205 110.526028 
L 399.83796 110.126763 
L 435.451249 108.969387 
L 435.795324 109.811501 
L 436.588718 109.144948 
L 440.095183 109.284259 
L 440.511764 109.600028 
L 440.902136 108.786714 
L 441.258281 108.080947 
L 442.045166 108.506865 
L 443.324254 108.574895 
L 446.183951 108.903266 
L 447.416701 109.174623 
L 449.163324 109.398779 
L 449.578146 108.618607 
L 449.969538 108.868997 
L 450.305698 109.68004 
L 450.638455 109.046869 
L 451.422424 108.397011 
L 451.826435 108.707777 
L 455.441146 109.824587 
L 455.831624 108.585349 
L 456.600265 108.925042 
L 458.24929 109.648303 
L 459.419818 108.633039 
L 459.856356 109.335345 
L 460.270289 108.159212 
L 462.596393 108.993629 
L 472.782764 108.601778 
L 474.248121 109.903093 
L 474.634862 110.006883 
L 475.623845 108.80239 
L 476.438356 108.846463 
L 477.266627 108.298673 
L 477.712216 108.697432 
L 479.180837 109.650131 
L 479.604712 109.361797 
L 479.944508 110.377119 
L 480.279929 109.189217 
L 482.964144 108.95487 
L 484.401874 108.843211 
L 484.811935 108.2389 
L 485.198639 108.807403 
L 485.61017 109.379733 
L 485.983485 109.036936 
L 487.496933 108.380358 
L 489.799679 110.165279 
L 490.986849 109.401648 
L 491.410233 109.871908 
L 491.818819 109.080354 
L 510.285729 109.976379 
L 510.647369 110.454482 
L 511.012254 109.859676 
L 514.984515 108.591738 
L 515.323615 109.711901 
L 516.112544 109.457508 
L 516.800264 108.456909 
L 517.173326 108.831867 
L 521.461895 109.117319 
L 521.852462 109.615199 
L 522.229165 109.162396 
L 523.033329 108.543828 
L 523.438612 108.94531 
L 525.801231 109.293262 
L 527.837554 108.836531 
L 529.560548 109.190092 
L 531.218842 108.444789 
L 532.413983 108.968464 
L 533.707908 109.366444 
L 535.012236 109.262474 
L 537.189689 108.308865 
L 537.821946 109.144584 
L 537.821946 109.144584 
" clip-path="url(#p056b1d2132)" style="fill: none; stroke: #377eb8; stroke-width: 2; stroke-linecap: square"/>
   </g>
   <g id="patch_3">
    <path d="M 38.482813 241.599141 
L 38.482813 7.2 
" style="fill: none; stroke: #7f7f7f; stroke-width: 1.8; stroke-linejoin: miter; stroke-linecap: square"/>
   </g>
   <g id="patch_4">
    <path d="M 38.482813 241.599141 
L 561.6 241.599141 
" style="fill: none; stroke: #7f7f7f; stroke-width: 1.8; stroke-linejoin: miter; stroke-linecap: square"/>
   </g>
   <g id="legend_1">
    <g id="line2d_27">
     <path d="M 499.584375 20.298438 
L 509.584375 20.298438 
L 519.584375 20.298438 
" style="fill: none; stroke: #e41a1c; stroke-width: 2; stroke-linecap: square"/>
    </g>
    <g id="text_14">
     <!-- err 2 -->
     <g style="fill: #7f7f7f" transform="translate(527.584375 23.798438) scale(0.1 -0.1)">
      <defs>
       <path id="DejaVuSans-55" d="M 2631 2963 
Q 2534 3019 2420 3045 
Q 2306 3072 2169 3072 
Q 1681 3072 1420 2755 
Q 1159 2438 1159 1844 
L 1159 0 
L 581 0 
L 581 3500 
L 1159 3500 
L 1159 2956 
Q 1341 3275 1631 3429 
Q 1922 3584 2338 3584 
Q 2397 3584 2469 3576 
Q 2541 3569 2628 3553 
L 2631 2963 
z
" transform="scale(0.015625)"/>
      </defs>
      <use xlink:href="#DejaVuSans-48"/>
      <use xlink:href="#DejaVuSans-55" transform="translate(61.53125 0)"/>
      <use xlink:href="#DejaVuSans-55" transform="translate(100.890625 0)"/>
      <use xlink:href="#DejaVuSans-3" transform="translate(142 0)"/>
      <use xlink:href="#DejaVuSans-15" transform="translate(173.78125 0)"/>
     </g>
    </g>
    <g id="line2d_28">
     <path d="M 499.584375 35.299219 
L 509.584375 35.299219 
L 519.584375 35.299219 
" style="fill: none; stroke: #377eb8; stroke-width: 2; stroke-linecap: square"/>
    </g>
    <g id="text_15">
     <!-- pid 2 -->
     <g style="fill: #7f7f7f" transform="translate(527.584375 38.799219) scale(0.1 -0.1)">
      <defs>
       <path id="DejaVuSans-53" d="M 1159 525 
L 1159 -1331 
L 581 -1331 
L 581 3500 
L 1159 3500 
L 1159 2969 
Q 1341 3281 1617 3432 
Q 1894 3584 2278 3584 
Q 2916 3584 3314 3078 
Q 3713 2572 3713 1747 
Q 3713 922 3314 415 
Q 2916 -91 2278 -91 
Q 1894 -91 1617 61 
Q 1341 213 1159 525 
z
M 3116 1747 
Q 3116 2381 2855 2742 
Q 2594 3103 2138 3103 
Q 1681 3103 1420 2742 
Q 1159 2381 1159 1747 
Q 1159 1113 1420 752 
Q 1681 391 2138 391 
Q 2594 391 2855 752 
Q 3116 1113 3116 1747 
z
" transform="scale(0.015625)"/>
       <path id="DejaVuSans-47" d="M 2906 2969 
L 2906 4863 
L 3481 4863 
L 3481 0 
L 2906 0 
L 2906 525 
Q 2725 213 2448 61 
Q 2172 -91 1784 -91 
Q 1150 -91 751 415 
Q 353 922 353 1747 
Q 353 2572 751 3078 
Q 1150 3584 1784 3584 
Q 2172 3584 2448 3432 
Q 2725 3281 2906 2969 
z
M 947 1747 
Q 947 1113 1208 752 
Q 1469 391 1925 391 
Q 2381 391 2643 752 
Q 2906 1113 2906 1747 
Q 2906 2381 2643 2742 
Q 2381 3103 1925 3103 
Q 1469 3103 1208 2742 
Q 947 2381 947 1747 
z
" transform="scale(0.015625)"/>
      </defs>
      <use xlink:href="#DejaVuSans-53"/>
      <use xlink:href="#DejaVuSans-4c" transform="translate(63.484375 0)"/>
      <use xlink:href="#DejaVuSans-47" transform="translate(91.265625 0)"/>
      <use xlink:href="#DejaVuSans-3" transform="translate(154.75 0)"/>
      <use xlink:href="#DejaVuSans-15" transform="translate(186.53125 0)"/>
     </g>
    </g>
   </g>
  </g>
 </g>
 <defs>
  <clipPath id="p056b1d2132">
   <rect x="38.482813" y="7.2" width="523.117187" height="234.399141"/>
  </clipPath>
 </defs>
</svg>
