<?xml version="1.0" encoding="utf-8" standalone="no"?>
<!DOCTYPE svg PUBLIC "-//W3C//DTD SVG 1.1//EN"
  "http://www.w3.org/Graphics/SVG/1.1/DTD/svg11.dtd">
<svg xmlns:xlink="http://www.w3.org/1999/xlink" width="568.8pt" height="280.8pt" viewBox="0 0 568.8 280.8" xmlns="http://www.w3.org/2000/svg" version="1.1">
 <metadata>
  <rdf:RDF xmlns:dc="http://purl.org/dc/elements/1.1/" xmlns:cc="http://creativecommons.org/ns#" xmlns:rdf="http://www.w3.org/1999/02/22-rdf-syntax-ns#">
   <cc:Work>
    <dc:type rdf:resource="http://purl.org/dc/dcmitype/StillImage"/>
    <dc:date>2026-07-18T07:46:49.972975</dc:date>
    <dc:format>image/svg+xml</dc:format>
    <dc:creator>
     <cc:Agent>
      <dc:title>Matplotlib v3.11.1, https://matplotlib.org/</dc:title>
     </cc:Agent>
    </dc:creator>
   </cc:Work>
  </rdf:RDF>
 </metadata>
 <defs>
  <style type="text/css">*{stroke-linejoin: round; stroke-linecap: butt}</style>
 </defs>
 <g id="figure_1">
  <g id="patch_1">
   <path d="M 0 280.8 
L 568.8 280.8 
L 568.8 0 
L 0 0 
L 0 280.8 
z
" style="fill: none"/>
  </g>
  <g id="axes_1">
   <g id="patch_2">
    <path d="M 38.482813 241.599141 
L 561.6 241.599141 
L 561.6 7.2 
L 38.482813 7.2 
L 38.482813 241.599141 
z
" style="fill: none"/>
   </g>
   <g id="matplotlib.axis_1">
    <g id="xtick_1">
     <g id="line2d_1">
      <path d="M 62.260866 241.599141 
L 62.260866 7.2 
" clip-path="url(#p45e0684a42)" style="fill: none; stroke-dasharray: 2.96,1.28; stroke-dashoffset: 0; stroke: #7f7f7f; stroke-opacity: 0.6; stroke-width: 0.8"/>
     </g>
     <g id="line2d_2">
      <defs>
       <path id="m4096ac5382" d="M 0 0 
L 0 3.5 
" style="stroke: #7f7f7f; stroke-width: 1.8"/>
      </defs>
      <g>
       <use xlink:href="#m4096ac5382" x="62.260866" y="241.599141" style="fill: #7f7f7f; stroke: #7f7f7f; stroke-width: 1.8"/>
      </g>
     </g>
     <g id="text_1">
      <!-- 0 -->
      <g style="fill: #7f7f7f" transform="translate(59.079616 256.196797) scale(0.1 -0.1)">
       <defs>
        <path id="DejaVuSans-13" d="M 2034 4250 
Q 1547 4250 1301 3770 
Q 1056 3291 1056 2328 
Q 1056 1369 1301 889 
Q 1547 409 2034 409 
Q 2525 409 2770 889 
Q 3016 1369 3016 2328 
Q 3016 3291 2770 3770 
Q 2525 4250 2034 4250 
z
M 2034 4750 
Q 2819 4750 3233 4129 
Q 3647 3509 3647 2328 
Q 3647 1150 3233 529 
Q 2819 -91 2034 -91 
Q 1250 -91 836 529 
Q 422 1150 422 2328 
Q 422 3509 836 4129 
Q 1250 4750 2034 4750 
z
" transform="scale(0.015625)"/>
       </defs>
       <use xlink:href="#DejaVuSans-13"/>
      </g>
     </g>
    </g>
    <g id="xtick_2">
     <g id="line2d_3">
      <path d="M 157.373082 241.599141 
L 157.373082 7.2 
" clip-path="url(#p45e0684a42)" style="fill: none; stroke-dasharray: 2.96,1.28; stroke-dashoffset: 0; stroke: #7f7f7f; stroke-opacity: 0.6; stroke-width: 0.8"/>
     </g>
     <g id="line2d_4">
      <g>
       <use xlink:href="#m4096ac5382" x="157.373082" y="241.599141" style="fill: #7f7f7f; stroke: #7f7f7f; stroke-width: 1.8"/>
      </g>
     </g>
     <g id="text_2">
      <!-- 20 -->
      <g style="fill: #7f7f7f" transform="translate(151.010582 256.196797) scale(0.1 -0.1)">
       <defs>
        <path id="DejaVuSans-15" d="M 1228 531 
L 3431 531 
L 3431 0 
L 469 0 
L 469 531 
Q 828 903 1448 1529 
Q 2069 2156 2228 2338 
Q 2531 2678 2651 2914 
Q 2772 3150 2772 3378 
Q 2772 3750 2511 3984 
Q 2250 4219 1831 4219 
Q 1534 4219 1204 4116 
Q 875 4013 500 3803 
L 500 4441 
Q 881 4594 1212 4672 
Q 1544 4750 1819 4750 
Q 2544 4750 2975 4387 
Q 3406 4025 3406 3419 
Q 3406 3131 3298 2873 
Q 3191 2616 2906 2266 
Q 2828 2175 2409 1742 
Q 1991 1309 1228 531 
z
" transform="scale(0.015625)"/>
       </defs>
       <use xlink:href="#DejaVuSans-15"/>
       <use xlink:href="#DejaVuSans-13" transform="translate(63.625 0)"/>
      </g>
     </g>
    </g>
    <g id="xtick_3">
     <g id="line2d_5">
      <path d="M 252.485298 241.599141 
L 252.485298 7.2 
" clip-path="url(#p45e0684a42)" style="fill: none; stroke-dasharray: 2.96,1.28; stroke-dashoffset: 0; stroke: #7f7f7f; stroke-opacity: 0.6; stroke-width: 0.8"/>
     </g>
     <g id="line2d_6">
      <g>
       <use xlink:href="#m4096ac5382" x="252.485298" y="241.599141" style="fill: #7f7f7f; stroke: #7f7f7f; stroke-width: 1.8"/>
      </g>
     </g>
     <g id="text_3">
      <!-- 40 -->
      <g style="fill: #7f7f7f" transform="translate(246.122798 256.196797) scale(0.1 -0.1)">
       <defs>
        <path id="DejaVuSans-17" d="M 2419 4116 
L 825 1625 
L 2419 1625 
L 2419 4116 
z
M 2253 4666 
L 3047 4666 
L 3047 1625 
L 3713 1625 
L 3713 1100 
L 3047 1100 
L 3047 0 
L 2419 0 
L 2419 1100 
L 313 1100 
L 313 1709 
L 2253 4666 
z
" transform="scale(0.015625)"/>
       </defs>
       <use xlink:href="#DejaVuSans-17"/>
       <use xlink:href="#DejaVuSans-13" transform="translate(63.625 0)"/>
      </g>
     </g>
    </g>
    <g id="xtick_4">
     <g id="line2d_7">
      <path d="M 347.597514 241.599141 
L 347.597514 7.2 
" clip-path="url(#p45e0684a42)" style="fill: none; stroke-dasharray: 2.96,1.28; stroke-dashoffset: 0; stroke: #7f7f7f; stroke-opacity: 0.6; stroke-width: 0.8"/>
     </g>
     <g id="line2d_8">
      <g>
       <use xlink:href="#m4096ac5382" x="347.597514" y="241.599141" style="fill: #7f7f7f; stroke: #7f7f7f; stroke-width: 1.8"/>
      </g>
     </g>
     <g id="text_4">
      <!-- 60 -->
      <g style="fill: #7f7f7f" transform="translate(341.235014 256.196797) scale(0.1 -0.1)">
       <defs>
        <path id="DejaVuSans-19" d="M 2113 2584 
Q 1688 2584 1439 2293 
Q 1191 2003 1191 1497 
Q 1191 994 1439 701 
Q 1688 409 2113 409 
Q 2538 409 2786 701 
Q 3034 994 3034 1497 
Q 3034 2003 2786 2293 
Q 2538 2584 2113 2584 
z
M 3366 4563 
L 3366 3988 
Q 3128 4100 2886 4159 
Q 2644 4219 2406 4219 
Q 1781 4219 1451 3797 
Q 1122 3375 1075 2522 
Q 1259 2794 1537 2939 
Q 1816 3084 2150 3084 
Q 2853 3084 3261 2657 
Q 3669 2231 3669 1497 
Q 3669 778 3244 343 
Q 2819 -91 2113 -91 
Q 1303 -91 875 529 
Q 447 1150 447 2328 
Q 447 3434 972 4092 
Q 1497 4750 2381 4750 
Q 2619 4750 2861 4703 
Q 3103 4656 3366 4563 
z
" transform="scale(0.015625)"/>
       </defs>
       <use xlink:href="#DejaVuSans-19"/>
       <use xlink:href="#DejaVuSans-13" transform="translate(63.625 0)"/>
      </g>
     </g>
    </g>
    <g id="xtick_5">
     <g id="line2d_9">
      <path d="M 442.70973 241.599141 
L 442.70973 7.2 
" clip-path="url(#p45e0684a42)" style="fill: none; stroke-dasharray: 2.96,1.28; stroke-dashoffset: 0; stroke: #7f7f7f; stroke-opacity: 0.6; stroke-width: 0.8"/>
     </g>
     <g id="line2d_10">
      <g>
       <use xlink:href="#m4096ac5382" x="442.70973" y="241.599141" style="fill: #7f7f7f; stroke: #7f7f7f; stroke-width: 1.8"/>
      </g>
     </g>
     <g id="text_5">
      <!-- 80 -->
      <g style="fill: #7f7f7f" transform="translate(436.34723 256.196797) scale(0.1 -0.1)">
       <defs>
        <path id="DejaVuSans-1b" d="M 2034 2216 
Q 1584 2216 1326 1975 
Q 1069 1734 1069 1313 
Q 1069 891 1326 650 
Q 1584 409 2034 409 
Q 2484 409 2743 651 
Q 3003 894 3003 1313 
Q 3003 1734 2745 1975 
Q 2488 2216 2034 2216 
z
M 1403 2484 
Q 997 2584 770 2862 
Q 544 3141 544 3541 
Q 544 4100 942 4425 
Q 1341 4750 2034 4750 
Q 2731 4750 3128 4425 
Q 3525 4100 3525 3541 
Q 3525 3141 3298 2862 
Q 3072 2584 2669 2484 
Q 3125 2378 3379 2068 
Q 3634 1759 3634 1313 
Q 3634 634 3220 271 
Q 2806 -91 2034 -91 
Q 1263 -91 848 271 
Q 434 634 434 1313 
Q 434 1759 690 2068 
Q 947 2378 1403 2484 
z
M 1172 3481 
Q 1172 3119 1398 2916 
Q 1625 2713 2034 2713 
Q 2441 2713 2670 2916 
Q 2900 3119 2900 3481 
Q 2900 3844 2670 4047 
Q 2441 4250 2034 4250 
Q 1625 4250 1398 4047 
Q 1172 3844 1172 3481 
z
" transform="scale(0.015625)"/>
       </defs>
       <use xlink:href="#DejaVuSans-1b"/>
       <use xlink:href="#DejaVuSans-13" transform="translate(63.625 0)"/>
      </g>
     </g>
    </g>
    <g id="xtick_6">
     <g id="line2d_11">
      <path d="M 537.821946 241.599141 
L 537.821946 7.2 
" clip-path="url(#p45e0684a42)" style="fill: none; stroke-dasharray: 2.96,1.28; stroke-dashoffset: 0; stroke: #7f7f7f; stroke-opacity: 0.6; stroke-width: 0.8"/>
     </g>
     <g id="line2d_12">
      <g>
       <use xlink:href="#m4096ac5382" x="537.821946" y="241.599141" style="fill: #7f7f7f; stroke: #7f7f7f; stroke-width: 1.8"/>
      </g>
     </g>
     <g id="text_6">
      <!-- 100 -->
      <g style="fill: #7f7f7f" transform="translate(528.278196 256.196797) scale(0.1 -0.1)">
       <defs>
        <path id="DejaVuSans-14" d="M 794 531 
L 1825 531 
L 1825 4091 
L 703 3866 
L 703 4441 
L 1819 4666 
L 2450 4666 
L 2450 531 
L 3481 531 
L 3481 0 
L 794 0 
L 794 531 
z
" transform="scale(0.015625)"/>
       </defs>
       <use xlink:href="#DejaVuSans-14"/>
       <use xlink:href="#DejaVuSans-13" transform="translate(63.625 0)"/>
       <use xlink:href="#DejaVuSans-13" transform="translate(127.25 0)"/>
      </g>
     </g>
    </g>
    <g id="text_7">
     <!-- time [s] -->
     <g style="fill: #7f7f7f" transform="translate(278.710859 270.957422) scale(0.11 -0.11)">
      <defs>
       <path id="DejaVuSans-57" d="M 1172 4494 
L 1172 3500 
L 2356 3500 
L 2356 3053 
L 1172 3053 
L 1172 1153 
Q 1172 725 1289 603 
Q 1406 481 1766 481 
L 2356 481 
L 2356 0 
L 1766 0 
Q 1100 0 847 248 
Q 594 497 594 1153 
L 594 3053 
L 172 3053 
L 172 3500 
L 594 3500 
L 594 4494 
L 1172 4494 
z
" transform="scale(0.015625)"/>
       <path id="DejaVuSans-4c" d="M 603 3500 
L 1178 3500 
L 1178 0 
L 603 0 
L 603 3500 
z
M 603 4863 
L 1178 4863 
L 1178 4134 
L 603 4134 
L 603 4863 
z
" transform="scale(0.015625)"/>
       <path id="DejaVuSans-50" d="M 3328 2828 
Q 3544 3216 3844 3400 
Q 4144 3584 4550 3584 
Q 5097 3584 5394 3201 
Q 5691 2819 5691 2113 
L 5691 0 
L 5113 0 
L 5113 2094 
Q 5113 2597 4934 2840 
Q 4756 3084 4391 3084 
Q 3944 3084 3684 2787 
Q 3425 2491 3425 1978 
L 3425 0 
L 2847 0 
L 2847 2094 
Q 2847 2600 2669 2842 
Q 2491 3084 2119 3084 
Q 1678 3084 1418 2786 
Q 1159 2488 1159 1978 
L 1159 0 
L 581 0 
L 581 3500 
L 1159 3500 
L 1159 2956 
Q 1356 3278 1631 3431 
Q 1906 3584 2284 3584 
Q 2666 3584 2933 3390 
Q 3200 3197 3328 2828 
z
" transform="scale(0.015625)"/>
       <path id="DejaVuSans-48" d="M 3597 1894 
L 3597 1613 
L 953 1613 
Q 991 1019 1311 708 
Q 1631 397 2203 397 
Q 2534 397 2845 478 
Q 3156 559 3463 722 
L 3463 178 
Q 3153 47 2828 -22 
Q 2503 -91 2169 -91 
Q 1331 -91 842 396 
Q 353 884 353 1716 
Q 353 2575 817 3079 
Q 1281 3584 2069 3584 
Q 2775 3584 3186 3129 
Q 3597 2675 3597 1894 
z
M 3022 2063 
Q 3016 2534 2758 2815 
Q 2500 3097 2075 3097 
Q 1594 3097 1305 2825 
Q 1016 2553 972 2059 
L 3022 2063 
z
" transform="scale(0.015625)"/>
       <path id="DejaVuSans-3" transform="scale(0.015625)"/>
       <path id="DejaVuSans-3e" d="M 550 4863 
L 1875 4863 
L 1875 4416 
L 1125 4416 
L 1125 -397 
L 1875 -397 
L 1875 -844 
L 550 -844 
L 550 4863 
z
" transform="scale(0.015625)"/>
       <path id="DejaVuSans-56" d="M 2834 3397 
L 2834 2853 
Q 2591 2978 2328 3040 
Q 2066 3103 1784 3103 
Q 1356 3103 1142 2972 
Q 928 2841 928 2578 
Q 928 2378 1081 2264 
Q 1234 2150 1697 2047 
L 1894 2003 
Q 2506 1872 2764 1633 
Q 3022 1394 3022 966 
Q 3022 478 2636 193 
Q 2250 -91 1575 -91 
Q 1294 -91 989 -36 
Q 684 19 347 128 
L 347 722 
Q 666 556 975 473 
Q 1284 391 1588 391 
Q 1994 391 2212 530 
Q 2431 669 2431 922 
Q 2431 1156 2273 1281 
Q 2116 1406 1581 1522 
L 1381 1569 
Q 847 1681 609 1914 
Q 372 2147 372 2553 
Q 372 3047 722 3315 
Q 1072 3584 1716 3584 
Q 2034 3584 2315 3537 
Q 2597 3491 2834 3397 
z
" transform="scale(0.015625)"/>
       <path id="DejaVuSans-40" d="M 1947 4863 
L 1947 -844 
L 622 -844 
L 622 -397 
L 1369 -397 
L 1369 4416 
L 622 4416 
L 622 4863 
L 1947 4863 
z
" transform="scale(0.015625)"/>
      </defs>
      <use xlink:href="#DejaVuSans-57"/>
      <use xlink:href="#DejaVuSans-4c" transform="translate(39.203125 0)"/>
      <use xlink:href="#DejaVuSans-50" transform="translate(66.984375 0)"/>
      <use xlink:href="#DejaVuSans-48" transform="translate(164.390625 0)"/>
      <use xlink:href="#DejaVuSans-3" transform="translate(225.921875 0)"/>
      <use xlink:href="#DejaVuSans-3e" transform="translate(257.703125 0)"/>
      <use xlink:href="#DejaVuSans-56" transform="translate(296.71875 0)"/>
      <use xlink:href="#DejaVuSans-40" transform="translate(348.8125 0)"/>
     </g>
    </g>
   </g>
   <g id="matplotlib.axis_2">
    <g id="ytick_1">
     <g id="line2d_13">
      <path d="M 38.482813 234.527556 
L 561.6 234.527556 
" clip-path="url(#p45e0684a42)" style="fill: none; stroke-dasharray: 2.96,1.28; stroke-dashoffset: 0; stroke: #7f7f7f; stroke-opacity: 0.6; stroke-width: 0.8"/>
     </g>
     <g id="line2d_14">
      <defs>
       <path id="ma77a5a7c18" d="M 0 0 
L -3.5 0 
" style="stroke: #7f7f7f; stroke-width: 1.8"/>
      </defs>
      <g>
       <use xlink:href="#ma77a5a7c18" x="38.482813" y="234.527556" style="fill: #7f7f7f; stroke: #7f7f7f; stroke-width: 1.8"/>
      </g>
     </g>
     <g id="text_8">
      <!-- −0.2 -->
      <g style="fill: #7f7f7f" transform="translate(7.2 238.326384) scale(0.1 -0.1)">
       <defs>
        <path id="DejaVuSans-c9c" d="M 678 2272 
L 4684 2272 
L 4684 1741 
L 678 1741 
L 678 2272 
z
" transform="scale(0.015625)"/>
        <path id="DejaVuSans-11" d="M 684 794 
L 1344 794 
L 1344 0 
L 684 0 
L 684 794 
z
" transform="scale(0.015625)"/>
       </defs>
       <use xlink:href="#DejaVuSans-c9c"/>
       <use xlink:href="#DejaVuSans-13" transform="translate(83.796875 0)"/>
       <use xlink:href="#DejaVuSans-11" transform="translate(147.421875 0)"/>
       <use xlink:href="#DejaVuSans-15" transform="translate(179.203125 0)"/>
      </g>
     </g>
    </g>
    <g id="ytick_2">
     <g id="line2d_15">
      <path d="M 38.482813 200.901734 
L 561.6 200.901734 
" clip-path="url(#p45e0684a42)" style="fill: none; stroke-dasharray: 2.96,1.28; stroke-dashoffset: 0; stroke: #7f7f7f; stroke-opacity: 0.6; stroke-width: 0.8"/>
     </g>
     <g id="line2d_16">
      <g>
       <use xlink:href="#ma77a5a7c18" x="38.482813" y="200.901734" style="fill: #7f7f7f; stroke: #7f7f7f; stroke-width: 1.8"/>
      </g>
     </g>
     <g id="text_9">
      <!-- 0.0 -->
      <g style="fill: #7f7f7f" transform="translate(15.579688 204.700563) scale(0.1 -0.1)">
       <use xlink:href="#DejaVuSans-13"/>
       <use xlink:href="#DejaVuSans-11" transform="translate(63.625 0)"/>
       <use xlink:href="#DejaVuSans-13" transform="translate(95.40625 0)"/>
      </g>
     </g>
    </g>
    <g id="ytick_3">
     <g id="line2d_17">
      <path d="M 38.482813 167.275913 
L 561.6 167.275913 
" clip-path="url(#p45e0684a42)" style="fill: none; stroke-dasharray: 2.96,1.28; stroke-dashoffset: 0; stroke: #7f7f7f; stroke-opacity: 0.6; stroke-width: 0.8"/>
     </g>
     <g id="line2d_18">
      <g>
       <use xlink:href="#ma77a5a7c18" x="38.482813" y="167.275913" style="fill: #7f7f7f; stroke: #7f7f7f; stroke-width: 1.8"/>
      </g>
     </g>
     <g id="text_10">
      <!-- 0.2 -->
      <g style="fill: #7f7f7f" transform="translate(15.579688 171.074741) scale(0.1 -0.1)">
       <use xlink:href="#DejaVuSans-13"/>
       <use xlink:href="#DejaVuSans-11" transform="translate(63.625 0)"/>
       <use xlink:href="#DejaVuSans-15" transform="translate(95.40625 0)"/>
      </g>
     </g>
    </g>
    <g id="ytick_4">
     <g id="line2d_19">
      <path d="M 38.482813 133.650092 
L 561.6 133.650092 
" clip-path="url(#p45e0684a42)" style="fill: none; stroke-dasharray: 2.96,1.28; stroke-dashoffset: 0; stroke: #7f7f7f; stroke-opacity: 0.6; stroke-width: 0.8"/>
     </g>
     <g id="line2d_20">
      <g>
       <use xlink:href="#ma77a5a7c18" x="38.482813" y="133.650092" style="fill: #7f7f7f; stroke: #7f7f7f; stroke-width: 1.8"/>
      </g>
     </g>
     <g id="text_11">
      <!-- 0.4 -->
      <g style="fill: #7f7f7f" transform="translate(15.579688 137.44892) scale(0.1 -0.1)">
       <use xlink:href="#DejaVuSans-13"/>
       <use xlink:href="#DejaVuSans-11" transform="translate(63.625 0)"/>
       <use xlink:href="#DejaVuSans-17" transform="translate(95.40625 0)"/>
      </g>
     </g>
    </g>
    <g id="ytick_5">
     <g id="line2d_21">
      <path d="M 38.482813 100.024271 
L 561.6 100.024271 
" clip-path="url(#p45e0684a42)" style="fill: none; stroke-dasharray: 2.96,1.28; stroke-dashoffset: 0; stroke: #7f7f7f; stroke-opacity: 0.6; stroke-width: 0.8"/>
     </g>
     <g id="line2d_22">
      <g>
       <use xlink:href="#ma77a5a7c18" x="38.482813" y="100.024271" style="fill: #7f7f7f; stroke: #7f7f7f; stroke-width: 1.8"/>
      </g>
     </g>
     <g id="text_12">
      <!-- 0.6 -->
      <g style="fill: #7f7f7f" transform="translate(15.579688 103.823099) scale(0.1 -0.1)">
       <use xlink:href="#DejaVuSans-13"/>
       <use xlink:href="#DejaVuSans-11" transform="translate(63.625 0)"/>
       <use xlink:href="#DejaVuSans-19" transform="translate(95.40625 0)"/>
      </g>
     </g>
    </g>
    <g id="ytick_6">
     <g id="line2d_23">
      <path d="M 38.482813 66.39845 
L 561.6 66.39845 
" clip-path="url(#p45e0684a42)" style="fill: none; stroke-dasharray: 2.96,1.28; stroke-dashoffset: 0; stroke: #7f7f7f; stroke-opacity: 0.6; stroke-width: 0.8"/>
     </g>
     <g id="line2d_24">
      <g>
       <use xlink:href="#ma77a5a7c18" x="38.482813" y="66.39845" style="fill: #7f7f7f; stroke: #7f7f7f; stroke-width: 1.8"/>
      </g>
     </g>
     <g id="text_13">
      <!-- 0.8 -->
      <g style="fill: #7f7f7f" transform="translate(15.579688 70.197278) scale(0.1 -0.1)">
       <use xlink:href="#DejaVuSans-13"/>
       <use xlink:href="#DejaVuSans-11" transform="translate(63.625 0)"/>
       <use xlink:href="#DejaVuSans-1b" transform="translate(95.40625 0)"/>
      </g>
     </g>
    </g>
    <g id="ytick_7">
     <g id="line2d_25">
      <path d="M 38.482813 32.772629 
L 561.6 32.772629 
" clip-path="url(#p45e0684a42)" style="fill: none; stroke-dasharray: 2.96,1.28; stroke-dashoffset: 0; stroke: #7f7f7f; stroke-opacity: 0.6; stroke-width: 0.8"/>
     </g>
     <g id="line2d_26">
      <g>
       <use xlink:href="#ma77a5a7c18" x="38.482813" y="32.772629" style="fill: #7f7f7f; stroke: #7f7f7f; stroke-width: 1.8"/>
      </g>
     </g>
     <g id="text_14">
      <!-- 1.0 -->
      <g style="fill: #7f7f7f" transform="translate(15.579688 36.571457) scale(0.1 -0.1)">
       <use xlink:href="#DejaVuSans-14"/>
       <use xlink:href="#DejaVuSans-11" transform="translate(63.625 0)"/>
       <use xlink:href="#DejaVuSans-13" transform="translate(95.40625 0)"/>
      </g>
     </g>
    </g>
   </g>
   <g id="line2d_27">
    <path d="M 62.260866 200.901734 
L 157.373066 200.901734 
L 158.276932 32.772629 
L 347.597496 32.772629 
L 348.533549 116.837182 
L 537.821946 116.837182 
L 537.821946 116.837182 
" clip-path="url(#p45e0684a42)" style="fill: none; stroke: #e41a1c; stroke-width: 2; stroke-linecap: square"/>
   </g>
   <g id="line2d_28">
    <path d="M 62.260866 200.901734 
L 62.308423 200.280122 
L 62.904632 202.058576 
L 63.10786 200.813329 
L 73.224842 201.026834 
L 74.552571 201.027022 
L 76.911356 200.8187 
L 77.261776 200.250437 
L 77.601924 201.436726 
L 77.960503 200.818729 
L 80.69997 201.279073 
L 82.2304 200.215144 
L 83.012039 201.044095 
L 83.368853 200.394307 
L 84.718062 201.039798 
L 101.454225 200.898274 
L 101.77961 201.904988 
L 102.448532 201.425967 
L 102.779218 201.410796 
L 103.160842 200.004427 
L 103.877786 201.136495 
L 104.940108 201.529884 
L 106.235231 200.82646 
L 107.425995 201.651467 
L 107.751309 200.317916 
L 108.381952 200.903402 
L 109.337705 201.053299 
L 109.711769 201.857141 
L 110.07142 201.112484 
L 111.636088 201.097856 
L 112.450903 201.134148 
L 112.845653 199.918735 
L 113.21317 201.165613 
L 113.592457 201.982298 
L 113.892749 200.780428 
L 114.402378 201.550931 
L 114.64668 200.602222 
L 115.308003 201.386797 
L 116.098693 201.445403 
L 117.173629 200.669776 
L 118.621236 201.16187 
L 120.144901 200.616291 
L 121.212525 201.834829 
L 121.556178 201.258241 
L 122.764739 200.667129 
L 124.078181 201.427664 
L 124.91387 200.736788 
L 125.187574 201.872217 
L 125.745263 200.664436 
L 127.420403 201.027483 
L 129.19461 200.916801 
L 131.503398 201.232253 
L 132.365752 200.737463 
L 132.783552 201.562866 
L 133.182326 199.91814 
L 133.912229 200.789521 
L 134.366445 200.250261 
L 134.78472 200.649154 
L 135.908705 200.588995 
L 136.396796 201.248057 
L 136.982815 200.280435 
L 138.198291 200.661719 
L 139.770605 199.83485 
L 141.189121 200.480046 
L 142.236738 199.931575 
L 143.986148 201.022304 
L 145.190376 200.408048 
L 145.553777 201.283894 
L 146.200052 200.4526 
L 146.954561 201.535955 
L 147.299983 201.185708 
L 147.971585 199.90711 
L 148.304049 200.528917 
L 149.443644 201.270375 
L 150.983687 200.613287 
L 152.179078 201.012513 
L 153.76356 200.527235 
L 155.134407 201.366257 
L 156.259376 200.566372 
L 156.585357 201.937248 
L 156.914548 201.352365 
L 157.301086 200.479658 
L 157.359358 202.289376 
L 157.373175 160.456482 
L 157.374287 230.944634 
L 158.276932 201.56443 
L 159.067291 199.777784 
L 159.559396 200.175673 
L 160.400638 199.652187 
L 160.781388 201.023946 
L 164.540833 197.103975 
L 166.735906 192.609783 
L 169.407093 182.668959 
L 170.548484 177.834817 
L 177.76389 139.047873 
L 182.100118 113.876803 
L 186.316153 91.487355 
L 193.267712 59.849448 
L 194.857148 54.398704 
L 197.943407 43.954535 
L 202.202203 33.280605 
L 202.651528 33.704992 
L 203.887765 30.42736 
L 204.347881 30.450803 
L 206.100018 26.805993 
L 206.458988 26.997369 
L 208.339206 24.308852 
L 209.755793 23.492064 
L 214.716638 20.907988 
L 215.707863 21.481215 
L 216.129083 20.249562 
L 216.99724 20.667958 
L 218.710935 20.11539 
L 219.896263 20.473353 
L 220.29343 20.129638 
L 220.680712 20.698103 
L 221.076998 21.885668 
L 221.520059 20.767885 
L 221.935737 20.114705 
L 222.361181 20.880337 
L 223.80263 20.646755 
L 224.931275 22.413238 
L 225.507904 21.883437 
L 227.154219 22.916919 
L 228.20921 23.584354 
L 228.758752 22.55155 
L 229.783 24.25134 
L 230.965576 24.419036 
L 232.462904 25.080161 
L 233.413555 25.209734 
L 234.960196 26.620424 
L 235.43022 25.853176 
L 235.815567 27.060549 
L 237.402716 26.461931 
L 238.907453 28.515778 
L 239.267755 28.295702 
L 242.052934 28.046715 
L 247.289509 30.834463 
L 247.624355 30.358321 
L 247.955105 31.634123 
L 248.792981 30.939201 
L 254.28158 32.441636 
L 255.85311 31.905154 
L 256.963437 33.778792 
L 258.211805 32.868554 
L 259.85541 33.111077 
L 260.245184 34.030658 
L 260.629421 33.426264 
L 261.420145 32.543367 
L 261.80943 33.448293 
L 262.238618 34.176425 
L 262.641898 33.317832 
L 263.42059 32.897572 
L 265.020092 34.41133 
L 266.273226 33.632998 
L 291.437168 32.830897 
L 291.825088 32.431076 
L 292.250897 32.974282 
L 292.645562 33.702054 
L 293.043412 33.248928 
L 294.584108 32.162632 
L 295.35022 33.187052 
L 295.774659 32.853971 
L 297.834063 32.961794 
L 298.233314 33.618127 
L 298.606152 32.702143 
L 302.505669 33.109442 
L 302.896014 32.356679 
L 303.630484 32.978874 
L 304.808279 33.974768 
L 306.010408 33.120027 
L 307.840315 32.850104 
L 308.251922 33.534339 
L 309.075341 33.003709 
L 309.43941 31.9427 
L 309.807673 32.896708 
L 310.185553 34.306158 
L 310.548053 32.777773 
L 312.418776 33.154959 
L 313.148321 33.343981 
L 313.598805 33.844373 
L 314.328968 31.905036 
L 314.697445 32.317781 
L 315.502556 32.702893 
L 315.91482 32.352234 
L 316.352208 33.095167 
L 316.755756 33.254455 
L 317.131773 32.325519 
L 317.525492 33.228276 
L 319.131831 31.785684 
L 319.484335 33.302455 
L 319.843048 32.447768 
L 321.210321 32.701639 
L 326.404248 33.354974 
L 327.246021 32.77835 
L 327.636922 33.540921 
L 328.029418 32.958719 
L 329.658883 32.334156 
L 338.310284 32.724413 
L 338.687185 31.598792 
L 339.070072 32.326488 
L 339.806493 33.2445 
L 340.564976 31.981111 
L 340.877519 32.28903 
L 342.811738 33.068119 
L 347.597361 31.798836 
L 347.598542 17.854506 
L 347.59791 48.723453 
L 348.533549 32.598368 
L 348.857244 32.503432 
L 349.626829 33.691411 
L 351.21715 32.640084 
L 351.637505 33.555677 
L 352.044469 32.407142 
L 359.265152 40.612846 
L 374.173183 81.089612 
L 380.983384 97.890529 
L 383.209595 103.397757 
L 383.581607 103.135821 
L 383.950077 103.767207 
L 386.533814 108.699493 
L 390.651373 114.613175 
L 393.763818 117.548693 
L 394.496051 118.651882 
L 394.864813 117.371999 
L 395.237709 118.329245 
L 396.562526 119.54822 
L 399.845465 121.824006 
L 401.066634 120.941067 
L 402.08178 122.244588 
L 402.582222 121.920506 
L 405.416108 122.174086 
L 405.814819 123.146241 
L 406.642482 122.769606 
L 407.167816 122.102548 
L 407.700667 123.322531 
L 408.185386 122.98662 
L 410.499101 121.894584 
L 411.699899 123.488363 
L 416.124109 121.446441 
L 417.274192 122.884502 
L 417.776737 121.273237 
L 418.695842 121.592991 
L 421.206696 121.13247 
L 422.495298 121.046591 
L 423.812665 120.845827 
L 424.990101 120.587634 
L 425.436022 121.058997 
L 425.863744 119.548472 
L 426.299259 120.243781 
L 427.039149 119.971488 
L 427.388574 118.909816 
L 427.735008 120.023321 
L 428.519494 119.318914 
L 433.291701 119.280359 
L 434.585584 118.141789 
L 435.080471 118.746286 
L 435.552227 118.202834 
L 437.868376 118.049039 
L 445.933674 116.561317 
L 446.309379 117.559922 
L 446.690533 116.82437 
L 447.918997 116.581537 
L 450.690545 116.857964 
L 454.185491 116.107936 
L 458.33369 116.452539 
L 459.161361 115.95462 
L 459.994283 116.566939 
L 460.385336 115.724634 
L 461.199448 116.293661 
L 461.657751 115.737598 
L 462.085477 116.264698 
L 462.962675 116.892181 
L 463.403138 115.982164 
L 464.251029 116.505708 
L 466.329154 116.220565 
L 469.142119 116.608858 
L 469.974112 115.759894 
L 470.43871 116.196628 
L 471.4734 115.702606 
L 471.898598 116.318301 
L 472.761799 116.053868 
L 474.119845 115.769391 
L 474.968206 116.379722 
L 475.843057 115.835026 
L 478.758579 116.589709 
L 479.108322 115.759409 
L 479.492761 116.598368 
L 481.907714 116.491387 
L 482.255192 117.403597 
L 482.60018 115.696171 
L 483.386642 117.041098 
L 484.168533 116.470868 
L 488.757643 116.62331 
L 491.07038 117.251228 
L 492.301467 116.287486 
L 492.704685 115.91718 
L 493.067964 116.555714 
L 494.220428 117.566891 
L 495.443228 116.588091 
L 498.069517 117.715518 
L 498.803155 116.564271 
L 499.243999 117.251657 
L 501.309212 116.942636 
L 502.156754 117.742488 
L 502.59619 117.032677 
L 504.283199 117.040564 
L 511.56994 116.070079 
L 511.953215 117.864704 
L 512.704572 117.242549 
L 513.938678 116.593459 
L 514.277929 117.078558 
L 514.653643 118.179993 
L 515.024356 117.101004 
L 515.379974 116.030964 
L 515.737092 117.290548 
L 519.007617 116.676552 
L 519.392022 117.82182 
L 519.779224 117.260526 
L 520.643754 117.072627 
L 521.521843 117.22555 
L 521.969971 116.719379 
L 522.383204 117.669291 
L 526.941383 116.64724 
L 527.727566 117.737384 
L 528.109543 117.319242 
L 528.875447 116.408754 
L 529.273234 117.539887 
L 530.094761 116.868768 
L 537.821946 117.501409 
L 537.821946 117.501409 
" clip-path="url(#p45e0684a42)" style="fill: none; stroke: #377eb8; stroke-width: 2; stroke-linecap: square"/>
   </g>
   <g id="line2d_29">
    <path d="M 62.260866 200.901734 
L 62.386576 198.950717 
L 62.904632 201.690348 
L 63.10786 201.410151 
L 64.284469 200.066719 
L 64.544423 201.593982 
L 65.285573 201.090682 
L 66.522613 200.833291 
L 66.885213 201.537175 
L 67.232054 200.722207 
L 67.524608 199.90385 
L 67.800278 200.538096 
L 68.63528 201.304232 
L 69.649474 200.094872 
L 69.95525 200.444668 
L 71.080066 201.021938 
L 72.356644 201.067783 
L 75.381623 201.36225 
L 75.98967 200.087676 
L 76.278181 200.973098 
L 77.261776 201.518379 
L 78.334316 200.604121 
L 78.687583 201.399354 
L 79.503453 200.824469 
L 81.369713 200.592396 
L 83.368853 201.350017 
L 83.697811 200.305532 
L 83.965632 201.610917 
L 84.245958 201.084599 
L 85.970555 201.338034 
L 87.060837 201.103758 
L 88.269814 200.540682 
L 88.612741 201.380231 
L 89.379528 201.045339 
L 90.127715 200.210917 
L 90.460871 200.756264 
L 92.152844 200.875955 
L 94.057385 200.925278 
L 94.419152 200.301852 
L 95.135443 201.037887 
L 96.040157 201.015153 
L 97.194698 200.604328 
L 97.990701 201.423936 
L 98.354526 200.559585 
L 105.310486 201.417819 
L 105.594411 199.953056 
L 106.235231 201.196094 
L 108.381952 200.873662 
L 109.337705 200.610599 
L 110.934993 200.460208 
L 112.064483 201.368489 
L 112.845653 200.937397 
L 113.21317 201.194226 
L 113.592457 201.145697 
L 113.892749 199.931896 
L 114.139642 201.63764 
L 114.64668 200.180967 
L 116.098693 201.343246 
L 116.432959 200.378805 
L 116.77229 200.73519 
L 118.30516 201.72186 
L 119.396077 200.789681 
L 119.778589 201.47758 
L 120.49005 200.7823 
L 121.212525 200.291193 
L 121.556178 200.859232 
L 122.383066 200.761822 
L 122.764739 200.343418 
L 123.130641 201.235028 
L 124.078181 200.887904 
L 124.354646 199.874009 
L 124.91387 200.169589 
L 125.745263 201.505671 
L 126.005883 201.065021 
L 126.366621 201.594131 
L 126.70249 200.616044 
L 129.607434 200.581673 
L 129.940625 199.978719 
L 130.246181 200.609968 
L 131.924203 201.009118 
L 133.544985 200.466597 
L 135.212823 200.664537 
L 135.593294 200.308515 
L 136.163508 202.464484 
L 136.638986 200.99544 
L 147.632801 200.550311 
L 147.971585 201.493541 
L 148.618652 200.865345 
L 150.210523 201.575517 
L 151.373525 200.634806 
L 151.785735 200.999063 
L 152.612467 200.75831 
L 153.76356 200.647088 
L 154.56325 200.212739 
L 154.849178 201.65635 
L 155.54135 201.075753 
L 155.910507 200.263849 
L 156.259376 201.281565 
L 157.365369 201.477528 
L 157.373579 211.279161 
L 157.374287 170.575173 
L 158.276932 200.132883 
L 158.759577 200.325235 
L 159.240369 198.663418 
L 159.40345 200.465302 
L 160.228557 199.297229 
L 160.400638 199.490409 
L 160.781388 196.880902 
L 161.557772 197.913562 
L 162.74882 195.589613 
L 163.04892 195.994637 
L 163.328028 194.744095 
L 165.325097 193.709094 
L 171.643218 189.37639 
L 172.041962 189.74075 
L 172.408458 188.125621 
L 173.22717 188.816108 
L 174.773362 188.619461 
L 177.417805 186.449921 
L 178.105671 187.347182 
L 178.879114 185.48453 
L 179.277418 185.793758 
L 180.083772 185.696682 
L 181.598193 184.988834 
L 196.573103 182.183809 
L 196.889295 183.60112 
L 197.555071 182.157938 
L 199.75246 182.482155 
L 201.73415 182.32276 
L 204.347881 182.103313 
L 204.779897 183.062528 
L 205.24099 182.481782 
L 206.100018 183.392454 
L 206.458988 182.063526 
L 207.210171 182.291521 
L 207.540041 183.519977 
L 208.339206 183.031895 
L 209.755793 183.039126 
L 210.488816 182.285789 
L 210.872227 182.974781 
L 215.707863 183.125267 
L 217.632827 184.100348 
L 218.366731 182.569778 
L 218.710935 183.267339 
L 219.896263 183.832483 
L 220.29343 182.756104 
L 220.680712 182.956353 
L 221.520059 183.832708 
L 221.935737 183.316779 
L 223.196006 183.497601 
L 225.507904 183.569786 
L 226.69715 183.337355 
L 228.758752 183.905035 
L 233.894603 183.852152 
L 235.43022 183.743999 
L 235.815567 183.145454 
L 236.166591 183.752361 
L 238.907453 184.929527 
L 240.445875 183.704219 
L 242.052934 184.240321 
L 242.385277 185.380926 
L 242.71337 183.929229 
L 243.109573 184.315563 
L 245.390022 184.33436 
L 246.829077 184.364142 
L 247.289509 184.510254 
L 247.955105 183.206658 
L 248.307438 184.243003 
L 269.749424 183.898163 
L 271.502466 183.504813 
L 273.299603 184.351114 
L 274.998543 183.93341 
L 276.309853 184.110355 
L 277.602519 184.353682 
L 278.91913 184.263804 
L 283.465559 184.117993 
L 283.829567 183.494328 
L 284.656726 184.048267 
L 288.668075 183.986824 
L 289.093813 183.405322 
L 289.484217 184.157469 
L 290.283835 184.573549 
L 291.437168 183.277639 
L 293.844054 185.05711 
L 294.584108 183.307826 
L 294.92085 184.05482 
L 295.35022 184.393442 
L 295.774659 183.344391 
L 296.176741 184.674523 
L 297.401244 184.491752 
L 300.317677 183.72563 
L 300.764475 184.667236 
L 301.178257 183.593389 
L 302.896014 184.780797 
L 303.630484 183.606341 
L 304.02002 184.828379 
L 304.808279 184.195518 
L 306.010408 184.718033 
L 307.332064 184.07554 
L 309.807673 183.350133 
L 310.548053 184.350441 
L 310.948429 183.742039 
L 312.418776 184.094322 
L 312.785105 183.445194 
L 313.148321 183.776454 
L 315.094995 184.406581 
L 315.502556 183.651059 
L 315.91482 184.611683 
L 316.352208 184.535878 
L 317.525492 183.501081 
L 318.354603 184.961767 
L 318.726078 184.219291 
L 321.210321 184.106093 
L 322.544584 183.680988 
L 328.830732 184.427814 
L 329.25798 183.447296 
L 329.658883 184.12622 
L 330.824736 184.140305 
L 339.434954 184.266411 
L 340.564976 184.433196 
L 340.877519 182.771575 
L 341.587344 183.911304 
L 342.811738 184.776731 
L 344.047304 183.86841 
L 344.822531 184.714669 
L 345.178386 183.009329 
L 345.937079 183.834967 
L 347.595743 184.257701 
L 347.597713 217.527616 
L 347.598542 170.302471 
L 348.533549 185.054709 
L 348.857244 183.515409 
L 349.176417 184.998171 
L 350.397436 185.626934 
L 351.637505 185.721398 
L 353.389622 186.691093 
L 355.359071 187.73378 
L 356.458366 187.136012 
L 358.734203 189.075145 
L 362.171397 189.882961 
L 363.50778 190.3599 
L 365.586597 190.413376 
L 368.239236 192.037937 
L 369.783878 190.94686 
L 370.909942 191.485269 
L 371.753606 192.254162 
L 372.14565 192.777126 
L 372.503794 192.16595 
L 372.894413 191.65979 
L 373.249856 192.568373 
L 377.162098 192.526536 
L 377.527001 193.262049 
L 377.889693 192.79265 
L 378.230613 191.95449 
L 378.567995 193.196872 
L 378.956727 192.639285 
L 379.9045 193.236015 
L 380.243201 192.182211 
L 380.578073 193.257703 
L 381.826393 193.336882 
L 383.950077 193.003336 
L 387.588898 193.628661 
L 389.320814 192.62014 
L 390.651373 193.070955 
L 397.57788 193.579207 
L 397.964637 192.636848 
L 398.815152 193.193611 
L 401.531121 193.196519 
L 404.31937 193.093103 
L 407.700667 192.686388 
L 409.041519 193.049092 
L 412.025903 192.130917 
L 412.413302 193.176334 
L 412.81126 192.772999 
L 413.546477 191.570118 
L 413.900821 192.859188 
L 415.466125 192.892417 
L 415.797395 194.049437 
L 416.124109 192.053109 
L 416.455448 193.816578 
L 417.776737 192.796681 
L 419.169479 193.091569 
L 419.968188 191.868353 
L 420.316173 192.765722 
L 426.299259 192.316412 
L 426.670653 192.967064 
L 427.039149 192.450346 
L 427.388574 191.747867 
L 427.735008 193.23056 
L 428.939377 192.50577 
L 432.028028 193.163815 
L 433.291701 191.965611 
L 435.552227 192.685254 
L 442.589603 192.236063 
L 443.798366 192.659852 
L 447.452551 192.851151 
L 449.078941 192.274878 
L 449.822099 192.646364 
L 451.141227 192.301396 
L 453.716056 192.307895 
L 454.185491 192.832341 
L 454.637669 191.929429 
L 456.712381 193.18274 
L 458.33369 192.090743 
L 459.572674 192.231048 
L 460.803457 193.270196 
L 462.528159 192.294799 
L 473.249787 192.165579 
L 474.546069 192.82356 
L 475.843057 192.551708 
L 478.405562 192.386144 
L 479.108322 193.132996 
L 479.492761 192.503711 
L 480.75995 192.497598 
L 481.521585 191.783473 
L 481.907714 192.397413 
L 482.96801 192.999153 
L 483.785657 191.903006 
L 484.168533 192.342275 
L 486.939912 192.401413 
L 490.198084 192.789341 
L 492.301467 192.655433 
L 492.704685 193.220689 
L 493.836787 191.655786 
L 495.006214 192.776457 
L 496.878157 192.070205 
L 498.803155 192.686668 
L 500.555681 192.387075 
L 500.952151 191.762068 
L 501.309212 192.730522 
L 506.533021 192.702696 
L 506.865585 193.66032 
L 507.579306 193.165039 
L 507.969317 192.073462 
L 508.36341 192.331708 
L 509.600721 192.285031 
L 511.953215 192.816796 
L 512.704572 192.366456 
L 513.596039 192.833314 
L 513.938678 191.833902 
L 514.277929 192.418127 
L 515.737092 193.200608 
L 516.840619 191.311199 
L 517.156444 192.141371 
L 517.464474 193.870163 
L 517.767551 191.724579 
L 518.077006 192.367169 
L 521.969971 192.719964 
L 523.237266 192.592621 
L 524.115875 192.017781 
L 526.246868 192.084771 
L 526.595432 192.94844 
L 526.941383 192.008424 
L 527.727566 192.81318 
L 529.273234 193.160425 
L 531.551923 192.122453 
L 531.974771 193.069207 
L 532.802919 192.633906 
L 534.05992 191.627901 
L 534.87011 192.65822 
L 536.20202 192.022278 
L 537.821946 192.976551 
L 537.821946 192.976551 
" clip-path="url(#p45e0684a42)" style="fill: none; stroke: #4daf4a; stroke-width: 2; stroke-linecap: square"/>
   </g>
   <g id="patch_3">
    <path d="M 38.482813 241.599141 
L 38.482813 7.2 
" style="fill: none; stroke: #7f7f7f; stroke-width: 1.8; stroke-linejoin: miter; stroke-linecap: square"/>
   </g>
   <g id="patch_4">
    <path d="M 38.482813 241.599141 
L 561.6 241.599141 
" style="fill: none; stroke: #7f7f7f; stroke-width: 1.8; stroke-linejoin: miter; stroke-linecap: square"/>
   </g>
   <g id="legend_1">
    <g id="line2d_30">
     <path d="M 483.814062 20.298438 
L 493.814062 20.298438 
L 503.814062 20.298438 
" style="fill: none; stroke: #e41a1c; stroke-width: 2; stroke-linecap: square"/>
    </g>
    <g id="text_15">
     <!-- setpoint -->
     <g style="fill: #7f7f7f" transform="translate(511.814062 23.798438) scale(0.1 -0.1)">
      <defs>
       <path id="DejaVuSans-53" d="M 1159 525 
L 1159 -1331 
L 581 -1331 
L 581 3500 
L 1159 3500 
L 1159 2969 
Q 1341 3281 1617 3432 
Q 1894 3584 2278 3584 
Q 2916 3584 3314 3078 
Q 3713 2572 3713 1747 
Q 3713 922 3314 415 
Q 2916 -91 2278 -91 
Q 1894 -91 1617 61 
Q 1341 213 1159 525 
z
M 3116 1747 
Q 3116 2381 2855 2742 
Q 2594 3103 2138 3103 
Q 1681 3103 1420 2742 
Q 1159 2381 1159 1747 
Q 1159 1113 1420 752 
Q 1681 391 2138 391 
Q 2594 391 2855 752 
Q 3116 1113 3116 1747 
z
" transform="scale(0.015625)"/>
       <path id="DejaVuSans-52" d="M 1959 3097 
Q 1497 3097 1228 2736 
Q 959 2375 959 1747 
Q 959 1119 1226 758 
Q 1494 397 1959 397 
Q 2419 397 2687 759 
Q 2956 1122 2956 1747 
Q 2956 2369 2687 2733 
Q 2419 3097 1959 3097 
z
M 1959 3584 
Q 2709 3584 3137 3096 
Q 3566 2609 3566 1747 
Q 3566 888 3137 398 
Q 2709 -91 1959 -91 
Q 1206 -91 779 398 
Q 353 888 353 1747 
Q 353 2609 779 3096 
Q 1206 3584 1959 3584 
z
" transform="scale(0.015625)"/>
       <path id="DejaVuSans-51" d="M 3513 2113 
L 3513 0 
L 2938 0 
L 2938 2094 
Q 2938 2591 2744 2837 
Q 2550 3084 2163 3084 
Q 1697 3084 1428 2787 
Q 1159 2491 1159 1978 
L 1159 0 
L 581 0 
L 581 3500 
L 1159 3500 
L 1159 2956 
Q 1366 3272 1645 3428 
Q 1925 3584 2291 3584 
Q 2894 3584 3203 3211 
Q 3513 2838 3513 2113 
z
" transform="scale(0.015625)"/>
      </defs>
      <use xlink:href="#DejaVuSans-56"/>
      <use xlink:href="#DejaVuSans-48" transform="translate(52.09375 0)"/>
      <use xlink:href="#DejaVuSans-57" transform="translate(113.625 0)"/>
      <use xlink:href="#DejaVuSans-53" transform="translate(152.828125 0)"/>
      <use xlink:href="#DejaVuSans-52" transform="translate(216.3125 0)"/>
      <use xlink:href="#DejaVuSans-4c" transform="translate(277.5 0)"/>
      <use xlink:href="#DejaVuSans-51" transform="translate(305.28125 0)"/>
      <use xlink:href="#DejaVuSans-57" transform="translate(368.65625 0)"/>
     </g>
    </g>
    <g id="line2d_31">
     <path d="M 483.814062 35.299219 
L 493.814062 35.299219 
L 503.814062 35.299219 
" style="fill: none; stroke: #377eb8; stroke-width: 2; stroke-linecap: square"/>
    </g>
    <g id="text_16">
     <!-- plant 1 -->
     <g style="fill: #7f7f7f" transform="translate(511.814062 38.799219) scale(0.1 -0.1)">
      <defs>
       <path id="DejaVuSans-4f" d="M 603 4863 
L 1178 4863 
L 1178 0 
L 603 0 
L 603 4863 
z
" transform="scale(0.015625)"/>
       <path id="DejaVuSans-44" d="M 2194 1759 
Q 1497 1759 1228 1600 
Q 959 1441 959 1056 
Q 959 750 1161 570 
Q 1363 391 1709 391 
Q 2188 391 2477 730 
Q 2766 1069 2766 1631 
L 2766 1759 
L 2194 1759 
z
M 3341 1997 
L 3341 0 
L 2766 0 
L 2766 531 
Q 2569 213 2275 61 
Q 1981 -91 1556 -91 
Q 1019 -91 701 211 
Q 384 513 384 1019 
Q 384 1609 779 1909 
Q 1175 2209 1959 2209 
L 2766 2209 
L 2766 2266 
Q 2766 2663 2505 2880 
Q 2244 3097 1772 3097 
Q 1472 3097 1187 3025 
Q 903 2953 641 2809 
L 641 3341 
Q 956 3463 1253 3523 
Q 1550 3584 1831 3584 
Q 2591 3584 2966 3190 
Q 3341 2797 3341 1997 
z
" transform="scale(0.015625)"/>
      </defs>
      <use xlink:href="#DejaVuSans-53"/>
      <use xlink:href="#DejaVuSans-4f" transform="translate(63.484375 0)"/>
      <use xlink:href="#DejaVuSans-44" transform="translate(91.265625 0)"/>
      <use xlink:href="#DejaVuSans-51" transform="translate(152.546875 0)"/>
      <use xlink:href="#DejaVuSans-57" transform="translate(215.921875 0)"/>
      <use xlink:href="#DejaVuSans-3" transform="translate(255.125 0)"/>
      <use xlink:href="#DejaVuSans-14" transform="translate(286.90625 0)"/>
     </g>
    </g>
    <g id="line2d_32">
     <path d="M 483.814062 50.3 
L 493.814062 50.3 
L 503.814062 50.3 
" style="fill: none; stroke: #4daf4a; stroke-width: 2; stroke-linecap: square"/>
    </g>
    <g id="text_17">
     <!-- plant 2 -->
     <g style="fill: #7f7f7f" transform="translate(511.814062 53.8) scale(0.1 -0.1)">
      <use xlink:href="#DejaVuSans-53"/>
      <use xlink:href="#DejaVuSans-4f" transform="translate(63.484375 0)"/>
      <use xlink:href="#DejaVuSans-44" transform="translate(91.265625 0)"/>
      <use xlink:href="#DejaVuSans-51" transform="translate(152.546875 0)"/>
      <use xlink:href="#DejaVuSans-57" transform="translate(215.921875 0)"/>
      <use xlink:href="#DejaVuSans-3" transform="translate(255.125 0)"/>
      <use xlink:href="#DejaVuSans-15" transform="translate(286.90625 0)"/>
     </g>
    </g>
   </g>
  </g>
 </g>
 <defs>
  <clipPath id="p45e0684a42">
   <rect x="38.482813" y="7.2" width="523.117187" height="234.399141"/>
  </clipPath>
 </defs>
</svg>
