<?xml version="1.0" encoding="utf-8" standalone="no"?>
<!DOCTYPE svg PUBLIC "-//W3C//DTD SVG 1.1//EN"
  "http://www.w3.org/Graphics/SVG/1.1/DTD/svg11.dtd">
<svg xmlns:xlink="http://www.w3.org/1999/xlink" width="568.8pt" height="280.8pt" viewBox="0 0 568.8 280.8" xmlns="http://www.w3.org/2000/svg" version="1.1">
 <metadata>
  <rdf:RDF xmlns:dc="http://purl.org/dc/elements/1.1/" xmlns:cc="http://creativecommons.org/ns#" xmlns:rdf="http://www.w3.org/1999/02/22-rdf-syntax-ns#">
   <cc:Work>
    <dc:type rdf:resource="http://purl.org/dc/dcmitype/StillImage"/>
    <dc:date>2026-06-25T00:48:43.920960</dc:date>
    <dc:format>image/svg+xml</dc:format>
    <dc:creator>
     <cc:Agent>
      <dc:title>Matplotlib v3.11.0, https://matplotlib.org/</dc:title>
     </cc:Agent>
    </dc:creator>
   </cc:Work>
  </rdf:RDF>
 </metadata>
 <defs>
  <style type="text/css">*{stroke-linejoin: round; stroke-linecap: butt}</style>
 </defs>
 <g id="figure_1">
  <g id="patch_1">
   <path d="M 0 280.8 
L 568.8 280.8 
L 568.8 0 
L 0 0 
L 0 280.8 
z
" style="fill: none"/>
  </g>
  <g id="axes_1">
   <g id="patch_2">
    <path d="M 38.482813 241.599141 
L 561.6 241.599141 
L 561.6 7.2 
L 38.482813 7.2 
L 38.482813 241.599141 
z
" style="fill: none"/>
   </g>
   <g id="matplotlib.axis_1">
    <g id="xtick_1">
     <g id="line2d_1">
      <path d="M 62.260866 241.599141 
L 62.260866 7.2 
" clip-path="url(#pf1c7866a2a)" style="fill: none; stroke-dasharray: 2.96,1.28; stroke-dashoffset: 0; stroke: #7f7f7f; stroke-opacity: 0.6; stroke-width: 0.8"/>
     </g>
     <g id="line2d_2">
      <defs>
       <path id="m542445b62c" d="M 0 0 
L 0 3.5 
" style="stroke: #7f7f7f; stroke-width: 1.8"/>
      </defs>
      <g>
       <use xlink:href="#m542445b62c" x="62.260866" y="241.599141" style="fill: #7f7f7f; stroke: #7f7f7f; stroke-width: 1.8"/>
      </g>
     </g>
     <g id="text_1">
      <!-- 0 -->
      <g style="fill: #7f7f7f" transform="translate(59.079616 256.196797) scale(0.1 -0.1)">
       <defs>
        <path id="DejaVuSans-13" d="M 2034 4250 
Q 1547 4250 1301 3770 
Q 1056 3291 1056 2328 
Q 1056 1369 1301 889 
Q 1547 409 2034 409 
Q 2525 409 2770 889 
Q 3016 1369 3016 2328 
Q 3016 3291 2770 3770 
Q 2525 4250 2034 4250 
z
M 2034 4750 
Q 2819 4750 3233 4129 
Q 3647 3509 3647 2328 
Q 3647 1150 3233 529 
Q 2819 -91 2034 -91 
Q 1250 -91 836 529 
Q 422 1150 422 2328 
Q 422 3509 836 4129 
Q 1250 4750 2034 4750 
z
" transform="scale(0.015625)"/>
       </defs>
       <use xlink:href="#DejaVuSans-13"/>
      </g>
     </g>
    </g>
    <g id="xtick_2">
     <g id="line2d_3">
      <path d="M 157.373082 241.599141 
L 157.373082 7.2 
" clip-path="url(#pf1c7866a2a)" style="fill: none; stroke-dasharray: 2.96,1.28; stroke-dashoffset: 0; stroke: #7f7f7f; stroke-opacity: 0.6; stroke-width: 0.8"/>
     </g>
     <g id="line2d_4">
      <g>
       <use xlink:href="#m542445b62c" x="157.373082" y="241.599141" style="fill: #7f7f7f; stroke: #7f7f7f; stroke-width: 1.8"/>
      </g>
     </g>
     <g id="text_2">
      <!-- 20 -->
      <g style="fill: #7f7f7f" transform="translate(151.010582 256.196797) scale(0.1 -0.1)">
       <defs>
        <path id="DejaVuSans-15" d="M 1228 531 
L 3431 531 
L 3431 0 
L 469 0 
L 469 531 
Q 828 903 1448 1529 
Q 2069 2156 2228 2338 
Q 2531 2678 2651 2914 
Q 2772 3150 2772 3378 
Q 2772 3750 2511 3984 
Q 2250 4219 1831 4219 
Q 1534 4219 1204 4116 
Q 875 4013 500 3803 
L 500 4441 
Q 881 4594 1212 4672 
Q 1544 4750 1819 4750 
Q 2544 4750 2975 4387 
Q 3406 4025 3406 3419 
Q 3406 3131 3298 2873 
Q 3191 2616 2906 2266 
Q 2828 2175 2409 1742 
Q 1991 1309 1228 531 
z
" transform="scale(0.015625)"/>
       </defs>
       <use xlink:href="#DejaVuSans-15"/>
       <use xlink:href="#DejaVuSans-13" transform="translate(63.625 0)"/>
      </g>
     </g>
    </g>
    <g id="xtick_3">
     <g id="line2d_5">
      <path d="M 252.485298 241.599141 
L 252.485298 7.2 
" clip-path="url(#pf1c7866a2a)" style="fill: none; stroke-dasharray: 2.96,1.28; stroke-dashoffset: 0; stroke: #7f7f7f; stroke-opacity: 0.6; stroke-width: 0.8"/>
     </g>
     <g id="line2d_6">
      <g>
       <use xlink:href="#m542445b62c" x="252.485298" y="241.599141" style="fill: #7f7f7f; stroke: #7f7f7f; stroke-width: 1.8"/>
      </g>
     </g>
     <g id="text_3">
      <!-- 40 -->
      <g style="fill: #7f7f7f" transform="translate(246.122798 256.196797) scale(0.1 -0.1)">
       <defs>
        <path id="DejaVuSans-17" d="M 2419 4116 
L 825 1625 
L 2419 1625 
L 2419 4116 
z
M 2253 4666 
L 3047 4666 
L 3047 1625 
L 3713 1625 
L 3713 1100 
L 3047 1100 
L 3047 0 
L 2419 0 
L 2419 1100 
L 313 1100 
L 313 1709 
L 2253 4666 
z
" transform="scale(0.015625)"/>
       </defs>
       <use xlink:href="#DejaVuSans-17"/>
       <use xlink:href="#DejaVuSans-13" transform="translate(63.625 0)"/>
      </g>
     </g>
    </g>
    <g id="xtick_4">
     <g id="line2d_7">
      <path d="M 347.597514 241.599141 
L 347.597514 7.2 
" clip-path="url(#pf1c7866a2a)" style="fill: none; stroke-dasharray: 2.96,1.28; stroke-dashoffset: 0; stroke: #7f7f7f; stroke-opacity: 0.6; stroke-width: 0.8"/>
     </g>
     <g id="line2d_8">
      <g>
       <use xlink:href="#m542445b62c" x="347.597514" y="241.599141" style="fill: #7f7f7f; stroke: #7f7f7f; stroke-width: 1.8"/>
      </g>
     </g>
     <g id="text_4">
      <!-- 60 -->
      <g style="fill: #7f7f7f" transform="translate(341.235014 256.196797) scale(0.1 -0.1)">
       <defs>
        <path id="DejaVuSans-19" d="M 2113 2584 
Q 1688 2584 1439 2293 
Q 1191 2003 1191 1497 
Q 1191 994 1439 701 
Q 1688 409 2113 409 
Q 2538 409 2786 701 
Q 3034 994 3034 1497 
Q 3034 2003 2786 2293 
Q 2538 2584 2113 2584 
z
M 3366 4563 
L 3366 3988 
Q 3128 4100 2886 4159 
Q 2644 4219 2406 4219 
Q 1781 4219 1451 3797 
Q 1122 3375 1075 2522 
Q 1259 2794 1537 2939 
Q 1816 3084 2150 3084 
Q 2853 3084 3261 2657 
Q 3669 2231 3669 1497 
Q 3669 778 3244 343 
Q 2819 -91 2113 -91 
Q 1303 -91 875 529 
Q 447 1150 447 2328 
Q 447 3434 972 4092 
Q 1497 4750 2381 4750 
Q 2619 4750 2861 4703 
Q 3103 4656 3366 4563 
z
" transform="scale(0.015625)"/>
       </defs>
       <use xlink:href="#DejaVuSans-19"/>
       <use xlink:href="#DejaVuSans-13" transform="translate(63.625 0)"/>
      </g>
     </g>
    </g>
    <g id="xtick_5">
     <g id="line2d_9">
      <path d="M 442.70973 241.599141 
L 442.70973 7.2 
" clip-path="url(#pf1c7866a2a)" style="fill: none; stroke-dasharray: 2.96,1.28; stroke-dashoffset: 0; stroke: #7f7f7f; stroke-opacity: 0.6; stroke-width: 0.8"/>
     </g>
     <g id="line2d_10">
      <g>
       <use xlink:href="#m542445b62c" x="442.70973" y="241.599141" style="fill: #7f7f7f; stroke: #7f7f7f; stroke-width: 1.8"/>
      </g>
     </g>
     <g id="text_5">
      <!-- 80 -->
      <g style="fill: #7f7f7f" transform="translate(436.34723 256.196797) scale(0.1 -0.1)">
       <defs>
        <path id="DejaVuSans-1b" d="M 2034 2216 
Q 1584 2216 1326 1975 
Q 1069 1734 1069 1313 
Q 1069 891 1326 650 
Q 1584 409 2034 409 
Q 2484 409 2743 651 
Q 3003 894 3003 1313 
Q 3003 1734 2745 1975 
Q 2488 2216 2034 2216 
z
M 1403 2484 
Q 997 2584 770 2862 
Q 544 3141 544 3541 
Q 544 4100 942 4425 
Q 1341 4750 2034 4750 
Q 2731 4750 3128 4425 
Q 3525 4100 3525 3541 
Q 3525 3141 3298 2862 
Q 3072 2584 2669 2484 
Q 3125 2378 3379 2068 
Q 3634 1759 3634 1313 
Q 3634 634 3220 271 
Q 2806 -91 2034 -91 
Q 1263 -91 848 271 
Q 434 634 434 1313 
Q 434 1759 690 2068 
Q 947 2378 1403 2484 
z
M 1172 3481 
Q 1172 3119 1398 2916 
Q 1625 2713 2034 2713 
Q 2441 2713 2670 2916 
Q 2900 3119 2900 3481 
Q 2900 3844 2670 4047 
Q 2441 4250 2034 4250 
Q 1625 4250 1398 4047 
Q 1172 3844 1172 3481 
z
" transform="scale(0.015625)"/>
       </defs>
       <use xlink:href="#DejaVuSans-1b"/>
       <use xlink:href="#DejaVuSans-13" transform="translate(63.625 0)"/>
      </g>
     </g>
    </g>
    <g id="xtick_6">
     <g id="line2d_11">
      <path d="M 537.821946 241.599141 
L 537.821946 7.2 
" clip-path="url(#pf1c7866a2a)" style="fill: none; stroke-dasharray: 2.96,1.28; stroke-dashoffset: 0; stroke: #7f7f7f; stroke-opacity: 0.6; stroke-width: 0.8"/>
     </g>
     <g id="line2d_12">
      <g>
       <use xlink:href="#m542445b62c" x="537.821946" y="241.599141" style="fill: #7f7f7f; stroke: #7f7f7f; stroke-width: 1.8"/>
      </g>
     </g>
     <g id="text_6">
      <!-- 100 -->
      <g style="fill: #7f7f7f" transform="translate(528.278196 256.196797) scale(0.1 -0.1)">
       <defs>
        <path id="DejaVuSans-14" d="M 794 531 
L 1825 531 
L 1825 4091 
L 703 3866 
L 703 4441 
L 1819 4666 
L 2450 4666 
L 2450 531 
L 3481 531 
L 3481 0 
L 794 0 
L 794 531 
z
" transform="scale(0.015625)"/>
       </defs>
       <use xlink:href="#DejaVuSans-14"/>
       <use xlink:href="#DejaVuSans-13" transform="translate(63.625 0)"/>
       <use xlink:href="#DejaVuSans-13" transform="translate(127.25 0)"/>
      </g>
     </g>
    </g>
    <g id="text_7">
     <!-- time [s] -->
     <g style="fill: #7f7f7f" transform="translate(278.710859 270.957422) scale(0.11 -0.11)">
      <defs>
       <path id="DejaVuSans-57" d="M 1172 4494 
L 1172 3500 
L 2356 3500 
L 2356 3053 
L 1172 3053 
L 1172 1153 
Q 1172 725 1289 603 
Q 1406 481 1766 481 
L 2356 481 
L 2356 0 
L 1766 0 
Q 1100 0 847 248 
Q 594 497 594 1153 
L 594 3053 
L 172 3053 
L 172 3500 
L 594 3500 
L 594 4494 
L 1172 4494 
z
" transform="scale(0.015625)"/>
       <path id="DejaVuSans-4c" d="M 603 3500 
L 1178 3500 
L 1178 0 
L 603 0 
L 603 3500 
z
M 603 4863 
L 1178 4863 
L 1178 4134 
L 603 4134 
L 603 4863 
z
" transform="scale(0.015625)"/>
       <path id="DejaVuSans-50" d="M 3328 2828 
Q 3544 3216 3844 3400 
Q 4144 3584 4550 3584 
Q 5097 3584 5394 3201 
Q 5691 2819 5691 2113 
L 5691 0 
L 5113 0 
L 5113 2094 
Q 5113 2597 4934 2840 
Q 4756 3084 4391 3084 
Q 3944 3084 3684 2787 
Q 3425 2491 3425 1978 
L 3425 0 
L 2847 0 
L 2847 2094 
Q 2847 2600 2669 2842 
Q 2491 3084 2119 3084 
Q 1678 3084 1418 2786 
Q 1159 2488 1159 1978 
L 1159 0 
L 581 0 
L 581 3500 
L 1159 3500 
L 1159 2956 
Q 1356 3278 1631 3431 
Q 1906 3584 2284 3584 
Q 2666 3584 2933 3390 
Q 3200 3197 3328 2828 
z
" transform="scale(0.015625)"/>
       <path id="DejaVuSans-48" d="M 3597 1894 
L 3597 1613 
L 953 1613 
Q 991 1019 1311 708 
Q 1631 397 2203 397 
Q 2534 397 2845 478 
Q 3156 559 3463 722 
L 3463 178 
Q 3153 47 2828 -22 
Q 2503 -91 2169 -91 
Q 1331 -91 842 396 
Q 353 884 353 1716 
Q 353 2575 817 3079 
Q 1281 3584 2069 3584 
Q 2775 3584 3186 3129 
Q 3597 2675 3597 1894 
z
M 3022 2063 
Q 3016 2534 2758 2815 
Q 2500 3097 2075 3097 
Q 1594 3097 1305 2825 
Q 1016 2553 972 2059 
L 3022 2063 
z
" transform="scale(0.015625)"/>
       <path id="DejaVuSans-3" transform="scale(0.015625)"/>
       <path id="DejaVuSans-3e" d="M 550 4863 
L 1875 4863 
L 1875 4416 
L 1125 4416 
L 1125 -397 
L 1875 -397 
L 1875 -844 
L 550 -844 
L 550 4863 
z
" transform="scale(0.015625)"/>
       <path id="DejaVuSans-56" d="M 2834 3397 
L 2834 2853 
Q 2591 2978 2328 3040 
Q 2066 3103 1784 3103 
Q 1356 3103 1142 2972 
Q 928 2841 928 2578 
Q 928 2378 1081 2264 
Q 1234 2150 1697 2047 
L 1894 2003 
Q 2506 1872 2764 1633 
Q 3022 1394 3022 966 
Q 3022 478 2636 193 
Q 2250 -91 1575 -91 
Q 1294 -91 989 -36 
Q 684 19 347 128 
L 347 722 
Q 666 556 975 473 
Q 1284 391 1588 391 
Q 1994 391 2212 530 
Q 2431 669 2431 922 
Q 2431 1156 2273 1281 
Q 2116 1406 1581 1522 
L 1381 1569 
Q 847 1681 609 1914 
Q 372 2147 372 2553 
Q 372 3047 722 3315 
Q 1072 3584 1716 3584 
Q 2034 3584 2315 3537 
Q 2597 3491 2834 3397 
z
" transform="scale(0.015625)"/>
       <path id="DejaVuSans-40" d="M 1947 4863 
L 1947 -844 
L 622 -844 
L 622 -397 
L 1369 -397 
L 1369 4416 
L 622 4416 
L 622 4863 
L 1947 4863 
z
" transform="scale(0.015625)"/>
      </defs>
      <use xlink:href="#DejaVuSans-57"/>
      <use xlink:href="#DejaVuSans-4c" transform="translate(39.203125 0)"/>
      <use xlink:href="#DejaVuSans-50" transform="translate(66.984375 0)"/>
      <use xlink:href="#DejaVuSans-48" transform="translate(164.390625 0)"/>
      <use xlink:href="#DejaVuSans-3" transform="translate(225.921875 0)"/>
      <use xlink:href="#DejaVuSans-3e" transform="translate(257.703125 0)"/>
      <use xlink:href="#DejaVuSans-56" transform="translate(296.71875 0)"/>
      <use xlink:href="#DejaVuSans-40" transform="translate(348.8125 0)"/>
     </g>
    </g>
   </g>
   <g id="matplotlib.axis_2">
    <g id="ytick_1">
     <g id="line2d_13">
      <path d="M 38.482813 225.249654 
L 561.6 225.249654 
" clip-path="url(#pf1c7866a2a)" style="fill: none; stroke-dasharray: 2.96,1.28; stroke-dashoffset: 0; stroke: #7f7f7f; stroke-opacity: 0.6; stroke-width: 0.8"/>
     </g>
     <g id="line2d_14">
      <defs>
       <path id="ma5e4f5a1b3" d="M 0 0 
L -3.5 0 
" style="stroke: #7f7f7f; stroke-width: 1.8"/>
      </defs>
      <g>
       <use xlink:href="#ma5e4f5a1b3" x="38.482813" y="225.249654" style="fill: #7f7f7f; stroke: #7f7f7f; stroke-width: 1.8"/>
      </g>
     </g>
     <g id="text_8">
      <!-- −0.3 -->
      <g style="fill: #7f7f7f" transform="translate(7.2 229.048482) scale(0.1 -0.1)">
       <defs>
        <path id="DejaVuSans-c9c" d="M 678 2272 
L 4684 2272 
L 4684 1741 
L 678 1741 
L 678 2272 
z
" transform="scale(0.015625)"/>
        <path id="DejaVuSans-11" d="M 684 794 
L 1344 794 
L 1344 0 
L 684 0 
L 684 794 
z
" transform="scale(0.015625)"/>
        <path id="DejaVuSans-16" d="M 2597 2516 
Q 3050 2419 3304 2112 
Q 3559 1806 3559 1356 
Q 3559 666 3084 287 
Q 2609 -91 1734 -91 
Q 1441 -91 1130 -33 
Q 819 25 488 141 
L 488 750 
Q 750 597 1062 519 
Q 1375 441 1716 441 
Q 2309 441 2620 675 
Q 2931 909 2931 1356 
Q 2931 1769 2642 2001 
Q 2353 2234 1838 2234 
L 1294 2234 
L 1294 2753 
L 1863 2753 
Q 2328 2753 2575 2939 
Q 2822 3125 2822 3475 
Q 2822 3834 2567 4026 
Q 2313 4219 1838 4219 
Q 1578 4219 1281 4162 
Q 984 4106 628 3988 
L 628 4550 
Q 988 4650 1302 4700 
Q 1616 4750 1894 4750 
Q 2613 4750 3031 4423 
Q 3450 4097 3450 3541 
Q 3450 3153 3228 2886 
Q 3006 2619 2597 2516 
z
" transform="scale(0.015625)"/>
       </defs>
       <use xlink:href="#DejaVuSans-c9c"/>
       <use xlink:href="#DejaVuSans-13" transform="translate(83.796875 0)"/>
       <use xlink:href="#DejaVuSans-11" transform="translate(147.421875 0)"/>
       <use xlink:href="#DejaVuSans-16" transform="translate(179.203125 0)"/>
      </g>
     </g>
    </g>
    <g id="ytick_2">
     <g id="line2d_15">
      <path d="M 38.482813 188.556489 
L 561.6 188.556489 
" clip-path="url(#pf1c7866a2a)" style="fill: none; stroke-dasharray: 2.96,1.28; stroke-dashoffset: 0; stroke: #7f7f7f; stroke-opacity: 0.6; stroke-width: 0.8"/>
     </g>
     <g id="line2d_16">
      <g>
       <use xlink:href="#ma5e4f5a1b3" x="38.482813" y="188.556489" style="fill: #7f7f7f; stroke: #7f7f7f; stroke-width: 1.8"/>
      </g>
     </g>
     <g id="text_9">
      <!-- −0.2 -->
      <g style="fill: #7f7f7f" transform="translate(7.2 192.355317) scale(0.1 -0.1)">
       <use xlink:href="#DejaVuSans-c9c"/>
       <use xlink:href="#DejaVuSans-13" transform="translate(83.796875 0)"/>
       <use xlink:href="#DejaVuSans-11" transform="translate(147.421875 0)"/>
       <use xlink:href="#DejaVuSans-15" transform="translate(179.203125 0)"/>
      </g>
     </g>
    </g>
    <g id="ytick_3">
     <g id="line2d_17">
      <path d="M 38.482813 151.863324 
L 561.6 151.863324 
" clip-path="url(#pf1c7866a2a)" style="fill: none; stroke-dasharray: 2.96,1.28; stroke-dashoffset: 0; stroke: #7f7f7f; stroke-opacity: 0.6; stroke-width: 0.8"/>
     </g>
     <g id="line2d_18">
      <g>
       <use xlink:href="#ma5e4f5a1b3" x="38.482813" y="151.863324" style="fill: #7f7f7f; stroke: #7f7f7f; stroke-width: 1.8"/>
      </g>
     </g>
     <g id="text_10">
      <!-- −0.1 -->
      <g style="fill: #7f7f7f" transform="translate(7.2 155.662152) scale(0.1 -0.1)">
       <use xlink:href="#DejaVuSans-c9c"/>
       <use xlink:href="#DejaVuSans-13" transform="translate(83.796875 0)"/>
       <use xlink:href="#DejaVuSans-11" transform="translate(147.421875 0)"/>
       <use xlink:href="#DejaVuSans-14" transform="translate(179.203125 0)"/>
      </g>
     </g>
    </g>
    <g id="ytick_4">
     <g id="line2d_19">
      <path d="M 38.482813 115.170158 
L 561.6 115.170158 
" clip-path="url(#pf1c7866a2a)" style="fill: none; stroke-dasharray: 2.96,1.28; stroke-dashoffset: 0; stroke: #7f7f7f; stroke-opacity: 0.6; stroke-width: 0.8"/>
     </g>
     <g id="line2d_20">
      <g>
       <use xlink:href="#ma5e4f5a1b3" x="38.482813" y="115.170158" style="fill: #7f7f7f; stroke: #7f7f7f; stroke-width: 1.8"/>
      </g>
     </g>
     <g id="text_11">
      <!-- 0.0 -->
      <g style="fill: #7f7f7f" transform="translate(15.579688 118.968987) scale(0.1 -0.1)">
       <use xlink:href="#DejaVuSans-13"/>
       <use xlink:href="#DejaVuSans-11" transform="translate(63.625 0)"/>
       <use xlink:href="#DejaVuSans-13" transform="translate(95.40625 0)"/>
      </g>
     </g>
    </g>
    <g id="ytick_5">
     <g id="line2d_21">
      <path d="M 38.482813 78.476993 
L 561.6 78.476993 
" clip-path="url(#pf1c7866a2a)" style="fill: none; stroke-dasharray: 2.96,1.28; stroke-dashoffset: 0; stroke: #7f7f7f; stroke-opacity: 0.6; stroke-width: 0.8"/>
     </g>
     <g id="line2d_22">
      <g>
       <use xlink:href="#ma5e4f5a1b3" x="38.482813" y="78.476993" style="fill: #7f7f7f; stroke: #7f7f7f; stroke-width: 1.8"/>
      </g>
     </g>
     <g id="text_12">
      <!-- 0.1 -->
      <g style="fill: #7f7f7f" transform="translate(15.579688 82.275822) scale(0.1 -0.1)">
       <use xlink:href="#DejaVuSans-13"/>
       <use xlink:href="#DejaVuSans-11" transform="translate(63.625 0)"/>
       <use xlink:href="#DejaVuSans-14" transform="translate(95.40625 0)"/>
      </g>
     </g>
    </g>
    <g id="ytick_6">
     <g id="line2d_23">
      <path d="M 38.482813 41.783828 
L 561.6 41.783828 
" clip-path="url(#pf1c7866a2a)" style="fill: none; stroke-dasharray: 2.96,1.28; stroke-dashoffset: 0; stroke: #7f7f7f; stroke-opacity: 0.6; stroke-width: 0.8"/>
     </g>
     <g id="line2d_24">
      <g>
       <use xlink:href="#ma5e4f5a1b3" x="38.482813" y="41.783828" style="fill: #7f7f7f; stroke: #7f7f7f; stroke-width: 1.8"/>
      </g>
     </g>
     <g id="text_13">
      <!-- 0.2 -->
      <g style="fill: #7f7f7f" transform="translate(15.579688 45.582657) scale(0.1 -0.1)">
       <use xlink:href="#DejaVuSans-13"/>
       <use xlink:href="#DejaVuSans-11" transform="translate(63.625 0)"/>
       <use xlink:href="#DejaVuSans-15" transform="translate(95.40625 0)"/>
      </g>
     </g>
    </g>
   </g>
   <g id="line2d_25">
    <path d="M 62.260866 115.170158 
L 62.308423 112.648387 
L 62.817543 117.073068 
L 63.008144 116.32316 
L 63.279671 117.565149 
L 63.528362 115.475867 
L 64.569077 113.66798 
L 65.334209 114.313613 
L 67.934869 115.919359 
L 68.906549 113.247562 
L 69.744211 116.867299 
L 70.041318 115.968888 
L 70.427285 116.323694 
L 71.168489 114.363806 
L 71.541875 114.640008 
L 71.921047 116.172178 
L 72.667771 115.339909 
L 75.616787 114.164621 
L 76.703108 116.11137 
L 77.010205 113.555273 
L 77.756421 115.688732 
L 78.180125 114.895433 
L 78.607503 115.496052 
L 79.03946 116.114504 
L 79.434281 115.559479 
L 81.161629 112.966215 
L 81.429527 114.459568 
L 83.077616 116.739111 
L 83.699167 113.476024 
L 83.993541 115.023483 
L 84.688296 116.842585 
L 84.998066 114.189102 
L 85.848041 115.301491 
L 86.581413 113.40311 
L 87.165451 117.316662 
L 87.742189 115.060836 
L 88.521416 115.096727 
L 89.226698 116.905915 
L 89.530929 114.573165 
L 90.228898 115.451209 
L 91.497319 115.329799 
L 91.833693 113.321154 
L 92.143138 115.519144 
L 92.464008 115.290489 
L 93.350532 111.581333 
L 93.572069 115.983781 
L 94.421323 114.031752 
L 94.722365 116.665099 
L 95.358053 115.494148 
L 95.768366 116.292859 
L 96.540553 114.551885 
L 96.936684 114.891173 
L 97.295596 114.426529 
L 97.926398 116.738332 
L 98.557511 116.36075 
L 98.815001 112.929285 
L 99.340041 115.598771 
L 100.579821 117.523865 
L 100.858847 116.841106 
L 102.349089 114.704202 
L 102.772644 116.097389 
L 103.155068 114.946365 
L 104.814721 116.073382 
L 105.139259 113.799504 
L 105.830981 114.203225 
L 106.551858 115.874668 
L 106.938427 114.40596 
L 107.680278 115.398199 
L 108.515782 114.82092 
L 109.1816 113.690734 
L 109.501426 114.682866 
L 109.948494 114.059534 
L 110.361164 114.843299 
L 110.755644 116.322862 
L 111.110769 115.861527 
L 111.512083 115.000056 
L 112.271054 115.439374 
L 113.477257 116.083265 
L 113.80278 113.957084 
L 114.130228 114.667541 
L 114.578952 115.91621 
L 115.355912 115.362634 
L 116.51703 114.804887 
L 117.344179 114.925552 
L 118.127357 116.352222 
L 119.395447 113.283266 
L 119.691637 116.014812 
L 120.397854 114.851359 
L 120.828471 115.630511 
L 121.2632 114.800123 
L 121.711811 114.786746 
L 122.022681 117.252609 
L 122.309946 114.663223 
L 122.598063 115.387182 
L 123.615522 113.560202 
L 124.911403 115.924196 
L 126.163415 114.951523 
L 126.572921 116.004563 
L 126.902753 113.696278 
L 127.222958 114.935568 
L 127.586287 116.433447 
L 128.301562 116.068403 
L 128.608261 113.670475 
L 129.249974 113.962424 
L 130.267432 115.717318 
L 130.618449 115.152717 
L 130.986059 116.612514 
L 131.27888 113.634172 
L 131.865709 115.027655 
L 132.188825 116.562688 
L 132.50957 114.875901 
L 132.801075 113.147409 
L 133.080325 115.893313 
L 133.355193 114.406087 
L 133.645035 115.90517 
L 134.328513 114.794243 
L 135.157142 116.329003 
L 135.913758 114.118067 
L 136.273519 114.297762 
L 137.709026 116.369641 
L 138.071977 115.106779 
L 138.90678 116.073695 
L 139.309323 115.225957 
L 139.70526 114.204689 
L 140.079719 115.110934 
L 140.913982 115.682312 
L 141.585862 116.786466 
L 142.20656 113.647971 
L 143.089742 116.337751 
L 142.817205 112.712176 
L 143.339274 114.360772 
L 143.601436 113.991614 
L 143.887614 116.220692 
L 144.555653 115.224066 
L 145.319295 113.889771 
L 146.662989 116.691192 
L 147.754001 115.399646 
L 148.047017 117.447678 
L 148.725404 115.714097 
L 149.924239 114.877404 
L 150.260605 116.967624 
L 150.539149 113.805875 
L 150.829384 114.349733 
L 151.178362 114.526743 
L 151.932955 116.289966 
L 152.228793 113.341676 
L 152.882053 114.140099 
L 154.023248 115.859957 
L 154.735094 113.805282 
L 155.000742 117.523014 
L 155.536838 116.936617 
L 155.796739 114.277459 
L 156.445541 114.574978 
L 157.270555 114.629863 
L 157.350123 108.837119 
L 157.372913 117.412126 
L 157.373076 111.787167 
L 157.373195 230.944634 
L 157.373559 17.854506 
L 158.286202 108.09015 
L 158.717408 109.720968 
L 158.878913 112.157941 
L 159.284197 109.190696 
L 159.69419 112.029626 
L 160.116284 108.234242 
L 160.913224 109.406049 
L 161.325352 111.983436 
L 162.261607 111.669405 
L 162.52385 110.204526 
L 163.045029 112.559139 
L 163.349235 112.518236 
L 164.140269 114.441189 
L 165.189875 111.952666 
L 165.527521 113.228787 
L 165.903966 112.399721 
L 166.257804 111.371734 
L 166.580816 112.006178 
L 167.278724 113.355431 
L 167.674512 111.871511 
L 168.032151 113.039036 
L 168.423222 113.935994 
L 168.88289 112.812563 
L 169.26006 111.943151 
L 169.618496 112.885413 
L 170.006609 115.191716 
L 170.446034 114.062755 
L 170.910517 113.654679 
L 171.613829 111.509953 
L 171.949339 112.157529 
L 172.30511 114.797628 
L 172.762459 112.701901 
L 175.448035 114.670976 
L 176.629775 113.33935 
L 179.03944 114.22094 
L 179.389832 112.318144 
L 180.20444 113.374852 
L 180.600895 112.72497 
L 180.974273 113.537704 
L 181.397203 115.738788 
L 181.809182 113.855721 
L 183.140244 115.471992 
L 183.62237 114.380174 
L 184.023107 113.218258 
L 184.384079 113.562268 
L 185.735687 115.664554 
L 187.725257 113.608275 
L 190.025855 116.457297 
L 190.391371 116.007051 
L 191.725727 114.33974 
L 193.091748 116.162241 
L 193.999911 114.366374 
L 194.362265 112.286016 
L 194.69179 115.086584 
L 197.147577 115.909082 
L 198.008589 113.817793 
L 198.378743 114.060603 
L 198.791768 115.275964 
L 199.189465 114.119251 
L 202.30065 116.729953 
L 202.694331 115.126225 
L 203.864996 115.300756 
L 204.761088 115.337154 
L 205.261934 114.887799 
L 206.436723 117.502166 
L 206.814515 113.395748 
L 207.614146 115.375515 
L 208.489774 116.449701 
L 209.330265 114.560362 
L 209.752325 114.91635 
L 211.054187 116.61997 
L 211.448221 114.279403 
L 211.850375 115.374791 
L 212.385654 115.61276 
L 212.88466 114.722226 
L 213.385361 115.025452 
L 215.677285 114.777422 
L 216.023931 116.852694 
L 216.366893 115.205588 
L 216.781799 114.29853 
L 217.156603 115.589396 
L 218.941829 115.828717 
L 219.37148 113.733146 
L 219.770876 114.882141 
L 222.871056 116.339745 
L 223.29704 115.346144 
L 223.673322 116.710517 
L 224.045627 116.042823 
L 225.644537 115.414724 
L 225.993819 117.165998 
L 226.339611 115.453372 
L 227.149153 113.851866 
L 227.533958 116.67955 
L 227.916934 114.954883 
L 228.993305 115.443453 
L 229.361113 114.002996 
L 230.194131 114.237561 
L 231.055725 116.3627 
L 231.765868 117.305634 
L 232.101535 114.466697 
L 233.417714 115.068493 
L 233.998972 115.194306 
L 234.36767 116.4569 
L 234.73342 115.067803 
L 236.055013 114.465318 
L 237.531856 116.048471 
L 237.984748 114.265992 
L 238.864995 114.550736 
L 240.030883 116.180842 
L 240.443498 115.637314 
L 240.799 114.050327 
L 241.151819 116.165281 
L 241.560638 114.95861 
L 242.807268 116.570116 
L 244.165762 114.768977 
L 245.622632 115.442382 
L 246.097157 115.409202 
L 246.444531 117.198198 
L 246.788423 117.031036 
L 247.163295 113.468386 
L 247.894116 115.419505 
L 248.857464 114.207748 
L 249.272966 115.015837 
L 249.767828 114.996186 
L 250.111543 112.962841 
L 250.451375 115.383616 
L 250.907809 114.135395 
L 251.334411 115.481192 
L 251.813489 114.815431 
L 252.246376 114.783948 
L 252.604611 117.696635 
L 252.927787 114.469297 
L 253.302899 115.793188 
L 253.733164 116.053904 
L 254.128412 114.064229 
L 254.526314 114.50052 
L 255.333999 115.87062 
L 256.553501 114.193022 
L 257.907337 115.601254 
L 258.321542 116.217433 
L 258.706126 115.14828 
L 259.499879 113.805346 
L 259.89277 114.770706 
L 260.262634 114.356326 
L 260.637472 114.96544 
L 262.249401 116.68183 
L 265.313263 113.827104 
L 266.402835 116.739149 
L 266.771233 116.254547 
L 267.924901 113.336216 
L 268.256214 116.238428 
L 269.103283 115.823826 
L 270.043412 114.159482 
L 270.465738 115.020024 
L 271.878317 114.856112 
L 272.225322 116.720776 
L 272.568905 114.65778 
L 273.007105 114.070902 
L 273.825663 115.955015 
L 274.228383 113.634948 
L 274.619067 115.087945 
L 276.335038 115.221443 
L 277.722197 114.791173 
L 278.157383 116.038798 
L 278.592761 114.681982 
L 279.448274 115.624787 
L 279.841133 116.872302 
L 280.196396 115.715105 
L 281.435775 113.808468 
L 281.784051 115.604857 
L 282.71207 115.2039 
L 284.074371 116.266005 
L 284.925664 114.178834 
L 285.300673 116.375613 
L 285.698751 112.930248 
L 286.512499 115.591511 
L 286.957617 113.978588 
L 290.444682 116.498696 
L 291.257944 114.402109 
L 291.659522 114.667687 
L 292.073435 116.340619 
L 292.47589 115.919164 
L 293.311875 113.909274 
L 293.704597 114.090004 
L 295.002665 115.911172 
L 295.808286 114.973863 
L 296.565845 114.134833 
L 297.345548 117.24959 
L 298.608544 114.834863 
L 299.41931 115.347951 
L 299.805172 113.450959 
L 300.152504 115.313308 
L 300.911457 116.289355 
L 301.309229 115.676815 
L 303.10845 114.468648 
L 303.582612 115.992073 
L 303.911486 112.85567 
L 304.235735 116.099192 
L 304.599132 114.537657 
L 304.979552 114.000847 
L 305.382953 115.516333 
L 306.163986 115.153083 
L 307.921922 114.969759 
L 308.329217 113.121379 
L 308.69651 113.770837 
L 309.96131 115.788581 
L 310.408424 116.053948 
L 310.778783 115.118541 
L 311.157151 112.973031 
L 311.510749 114.43576 
L 311.839659 116.90287 
L 312.547065 115.442491 
L 313.823766 114.531392 
L 314.251977 114.688709 
L 314.975003 116.561332 
L 315.354977 115.541203 
L 316.169998 113.737551 
L 316.552902 115.735783 
L 317.399023 115.550399 
L 317.789766 113.394967 
L 318.169112 115.856462 
L 319.505137 114.941203 
L 319.9596 116.345342 
L 320.77597 115.649675 
L 321.743681 114.772382 
L 324.052733 116.493317 
L 324.430902 115.707697 
L 325.304978 114.18698 
L 325.712338 115.486365 
L 326.527477 115.224856 
L 326.940336 115.043399 
L 327.28601 113.170184 
L 327.628604 113.65004 
L 328.016648 116.123686 
L 328.408155 115.945555 
L 328.804128 114.062319 
L 329.216133 115.528378 
L 329.679073 115.586381 
L 330.037697 113.361237 
L 330.377246 115.851863 
L 330.781376 114.245943 
L 331.221268 116.40862 
L 331.641318 115.828097 
L 332.788016 114.305593 
L 333.960846 115.629759 
L 334.343269 113.450416 
L 335.089173 114.949183 
L 337.877186 115.762451 
L 338.272115 115.927699 
L 338.671407 117.294129 
L 339.050502 114.331334 
L 339.832707 115.61571 
L 340.256709 114.265673 
L 341.059819 114.565807 
L 344.275751 117.298775 
L 344.611375 115.392883 
L 345.903933 114.14647 
L 346.32653 116.186199 
L 346.737439 115.038606 
L 347.417893 115.410005 
L 347.484152 115.045084 
L 347.597476 135.911266 
L 347.602737 108.418871 
L 348.425798 118.82853 
L 348.726 115.336645 
L 349.091297 117.944154 
L 349.464155 118.707656 
L 349.826095 117.615571 
L 351.114198 116.839558 
L 351.554264 117.297143 
L 352.419596 115.163326 
L 352.82972 117.122348 
L 353.706678 116.889878 
L 354.139046 116.975929 
L 354.545905 115.421004 
L 354.937882 116.790836 
L 355.323093 117.925853 
L 356.410085 115.21777 
L 357.389208 115.944192 
L 358.100172 117.325482 
L 358.475988 116.56151 
L 358.909149 117.433437 
L 359.741726 115.148291 
L 360.164999 116.70012 
L 360.589032 115.68259 
L 364.079534 116.649708 
L 364.934852 115.207962 
L 365.383768 115.527148 
L 365.75083 116.822465 
L 366.507223 116.467549 
L 367.584161 115.743645 
L 368.351596 117.802865 
L 369.159079 114.803498 
L 369.562505 116.971412 
L 369.957813 115.43929 
L 371.694787 116.442245 
L 372.08808 114.431847 
L 372.506842 115.201964 
L 373.459237 115.671972 
L 373.943502 114.389685 
L 374.380336 115.753915 
L 374.874176 115.501829 
L 375.25018 116.569438 
L 376.108879 116.218678 
L 378.649132 114.735679 
L 379.448752 117.220872 
L 379.803552 116.710686 
L 380.570296 116.946499 
L 380.933349 114.753451 
L 381.353181 114.735273 
L 381.773529 116.371768 
L 382.195045 114.216299 
L 387.360712 115.017914 
L 387.783618 114.209559 
L 388.166344 116.025882 
L 388.585135 114.442957 
L 389.491684 115.306419 
L 389.915272 116.132243 
L 390.298429 114.707282 
L 391.12613 116.668238 
L 391.490768 115.062492 
L 392.822501 114.681978 
L 393.300332 115.84914 
L 394.19138 114.262617 
L 394.614865 116.466444 
L 395.012248 113.932021 
L 395.857667 115.613966 
L 397.220554 114.503799 
L 399.277134 115.738932 
L 400.410938 114.135591 
L 401.265121 115.612175 
L 401.680896 114.054586 
L 402.108793 115.020818 
L 402.898529 117.517628 
L 403.259877 116.112796 
L 404.28969 113.201436 
L 404.654533 115.300975 
L 405.114966 115.128118 
L 406.116848 114.943844 
L 410.803001 114.438756 
L 411.149108 116.757037 
L 411.491219 116.332015 
L 411.884553 113.678995 
L 412.679364 115.099936 
L 413.020739 116.993182 
L 413.358656 114.685046 
L 413.758226 114.096765 
L 414.587086 115.982185 
L 415.003401 114.978583 
L 415.548945 115.353977 
L 416.392256 115.843391 
L 416.716119 112.91524 
L 417.446955 114.814821 
L 417.990138 114.751623 
L 418.387969 115.732092 
L 418.784755 114.459514 
L 419.240612 114.655569 
L 419.70066 116.264531 
L 420.119828 115.989247 
L 422.024987 113.343655 
L 423.764293 115.304779 
L 425.039803 115.33427 
L 425.46481 116.07144 
L 425.852044 115.7058 
L 427.505866 114.977915 
L 427.86442 116.702048 
L 428.219493 114.491948 
L 428.624944 113.841917 
L 429.379314 117.111263 
L 429.721905 115.141982 
L 431.538598 114.061845 
L 431.976671 116.060559 
L 432.423534 115.514223 
L 433.765839 114.138189 
L 434.953572 116.864075 
L 436.175451 114.410052 
L 437.823634 115.315722 
L 438.258633 115.853673 
L 439.521332 114.495066 
L 439.912985 116.231385 
L 440.661675 115.255543 
L 441.050096 113.806682 
L 441.442969 114.117657 
L 442.306489 114.824895 
L 442.766693 114.448467 
L 443.689459 114.156178 
L 444.011299 117.321784 
L 444.726172 116.447468 
L 447.825878 114.098738 
L 448.982314 117.141632 
L 449.317566 114.410351 
L 450.116275 115.829382 
L 450.502087 115.775948 
L 450.899187 113.332502 
L 451.694162 114.664567 
L 452.127628 115.978001 
L 452.546271 114.051007 
L 452.982917 114.687668 
L 453.334769 116.479645 
L 453.683545 115.71263 
L 454.446117 114.442592 
L 454.831531 115.729881 
L 455.220126 113.933028 
L 455.632289 115.285917 
L 456.059213 115.218714 
L 456.449705 116.191895 
L 456.860277 115.366826 
L 458.458596 115.6586 
L 458.820045 116.97045 
L 459.17835 114.533964 
L 460.048227 115.901271 
L 460.877316 113.950286 
L 461.253936 114.669492 
L 462.19229 114.527838 
L 463.46899 116.019164 
L 465.099292 114.287638 
L 465.446359 116.51041 
L 466.190641 115.17194 
L 466.571439 116.09269 
L 466.990157 114.921968 
L 467.421797 114.085476 
L 467.828682 115.534583 
L 468.323159 113.914596 
L 468.769996 113.789477 
L 470.026971 116.113885 
L 470.439083 115.50688 
L 472.034677 115.067496 
L 472.462464 116.229549 
L 472.898752 115.442408 
L 473.309133 114.055371 
L 473.707998 114.949119 
L 475.454976 115.88004 
L 477.022547 114.37478 
L 477.42624 114.825529 
L 479.207663 113.654608 
L 480.447374 115.580639 
L 481.273867 114.658477 
L 482.556025 116.471726 
L 483.35434 114.66887 
L 483.732038 113.622223 
L 484.084875 115.55802 
L 484.912835 116.085783 
L 485.741437 113.842905 
L 486.128811 116.761516 
L 486.503885 114.625066 
L 488.213734 115.286699 
L 489.006265 114.632109 
L 489.453254 116.496662 
L 490.685773 113.284389 
L 491.783764 116.920647 
L 493.013832 113.746126 
L 493.406651 114.203094 
L 494.167396 113.377887 
L 494.910418 115.815964 
L 495.307926 114.793654 
L 495.703469 116.380468 
L 496.117719 116.538746 
L 497.829026 114.212028 
L 498.218716 115.728805 
L 498.677686 115.045819 
L 500.230933 113.407631 
L 501.537917 115.704522 
L 502.715309 116.196049 
L 503.155095 114.114972 
L 503.568505 117.449874 
L 503.948011 115.339677 
L 504.363413 114.486613 
L 504.741303 115.284462 
L 506.319411 116.20919 
L 507.834543 115.027047 
L 509.221452 115.285812 
L 509.660121 113.898978 
L 510.065615 115.355296 
L 514.004561 114.902211 
L 514.404236 116.32575 
L 514.808947 114.615029 
L 515.18423 114.434798 
L 516.07981 115.841385 
L 517.905227 114.064558 
L 518.673221 113.739731 
L 519.073778 115.879073 
L 519.488055 114.234473 
L 519.936219 115.775561 
L 520.763967 115.385342 
L 521.190548 115.666237 
L 523.662455 114.863966 
L 524.47821 114.31341 
L 524.858929 115.794703 
L 525.242422 115.321713 
L 525.61474 116.515689 
L 525.984167 115.512006 
L 526.345831 114.135091 
L 527.190638 114.519209 
L 527.636621 115.873053 
L 528.045188 115.059202 
L 529.291219 114.660156 
L 530.476047 115.299614 
L 532.63994 114.170914 
L 534.233798 115.75927 
L 534.688013 116.436475 
L 535.101273 114.560297 
L 535.552412 115.197808 
L 536.507506 115.1176 
L 537.006874 114.749969 
L 537.356172 116.741092 
L 537.821946 114.582073 
L 537.821946 114.582073 
" clip-path="url(#pf1c7866a2a)" style="fill: none; stroke: #e41a1c; stroke-width: 2; stroke-linecap: square"/>
   </g>
   <g id="line2d_26">
    <path d="M 62.260866 115.170158 
L 62.308423 114.508755 
L 62.817543 115.755846 
L 63.008144 115.658796 
L 63.279671 116.218467 
L 63.834679 115.590708 
L 65.334209 115.034717 
L 69.437717 115.287207 
L 70.427285 115.833306 
L 70.791167 115.432386 
L 71.921047 115.709751 
L 74.028722 115.351426 
L 88.910965 115.613654 
L 89.226698 115.983401 
L 89.831419 115.347184 
L 91.497319 115.60739 
L 92.789204 114.870311 
L 97.613708 115.178149 
L 98.557511 115.415821 
L 99.069135 114.284588 
L 99.626917 115.093287 
L 103.567413 115.629083 
L 113.068499 115.094974 
L 114.578952 115.405218 
L 121.711811 114.938453 
L 122.022681 115.794685 
L 122.598063 115.30841 
L 124.536449 114.852164 
L 126.572921 115.30614 
L 126.902753 114.551635 
L 127.586287 115.370627 
L 128.910858 114.787072 
L 130.618449 114.897701 
L 131.574577 115.212948 
L 133.355193 114.729664 
L 134.770802 115.125662 
L 135.526826 115.076566 
L 136.654074 114.726833 
L 137.709026 115.502233 
L 139.70526 115.009534 
L 141.883557 115.48294 
L 142.817205 114.258955 
L 143.339274 114.70352 
L 145.319295 114.326275 
L 146.974644 115.188738 
L 149.124251 115.629486 
L 150.260605 116.343913 
L 150.539149 115.42664 
L 154.381473 115.065956 
L 154.735094 114.713143 
L 155.536838 115.89819 
L 155.796739 115.15874 
L 157.270555 114.973994 
L 157.350123 113.366235 
L 157.372913 115.44274 
L 157.373076 114.070085 
L 157.373195 143.149801 
L 157.373559 91.146231 
L 158.286202 111.079831 
L 162.767436 104.060337 
L 165.527521 102.181073 
L 168.032151 99.484071 
L 168.88289 98.828752 
L 169.618496 98.055999 
L 170.006609 98.631426 
L 174.857425 94.76681 
L 176.629775 93.679784 
L 188.621492 88.644792 
L 191.340502 89.343515 
L 192.609953 88.810687 
L 193.533412 89.364152 
L 195.606754 88.687292 
L 203.864996 88.323189 
L 206.436723 89.601145 
L 206.814515 88.337062 
L 207.614146 88.959986 
L 212.385654 89.556707 
L 213.916906 89.307083 
L 216.023931 90.028162 
L 216.781799 89.263272 
L 217.156603 89.637913 
L 220.245327 89.524592 
L 222.06002 89.733842 
L 226.764156 90.497781 
L 227.916934 90.576629 
L 234.73342 90.641096 
L 238.864995 90.028982 
L 243.226375 91.296371 
L 245.140316 91.034655 
L 248.410381 91.065385 
L 250.907809 90.251505 
L 252.604611 91.374384 
L 252.927787 90.497338 
L 253.733164 91.12926 
L 254.526314 90.471331 
L 254.945124 90.868239 
L 256.988082 90.872515 
L 257.447062 90.361345 
L 257.907337 90.775672 
L 259.094896 90.487673 
L 260.637472 90.212207 
L 263.970239 91.129691 
L 266.771233 91.58837 
L 267.924901 90.659005 
L 269.103283 91.465768 
L 271.878317 90.796736 
L 272.225322 91.463011 
L 272.568905 90.890182 
L 273.404933 91.017446 
L 275.092357 90.825473 
L 279.448274 90.775607 
L 280.196396 91.14252 
L 282.249832 90.662893 
L 285.300673 91.42497 
L 285.698751 90.230783 
L 286.512499 90.855395 
L 288.344545 89.961987 
L 295.808286 90.280713 
L 297.345548 91.355347 
L 298.608544 90.840882 
L 301.764803 91.128847 
L 305.769079 90.730422 
L 319.505137 90.368121 
L 320.77597 90.837462 
L 322.72655 90.555581 
L 325.712338 91.079164 
L 327.628604 90.050652 
L 328.408155 90.871609 
L 328.804128 90.23625 
L 329.679073 90.738895 
L 330.781376 90.092253 
L 331.641318 90.802924 
L 332.021911 90.51475 
L 333.960846 90.619202 
L 335.089173 90.16058 
L 337.877186 90.674324 
L 339.832707 90.979858 
L 341.516851 90.551361 
L 343.172529 90.772907 
L 347.484152 90.935704 
L 347.597476 96.119563 
L 347.602737 89.405529 
L 348.425798 93.298959 
L 348.726 92.461489 
L 349.091297 93.491069 
L 350.678417 94.846677 
L 371.694787 103.120315 
L 372.506842 102.704767 
L 374.380336 103.01261 
L 378.649132 103.568632 
L 380.570296 105.082162 
L 382.195045 104.342854 
L 385.35775 104.12591 
L 385.749146 104.498891 
L 386.137983 104.090722 
L 387.783618 103.817262 
L 388.166344 104.388834 
L 388.585135 103.880312 
L 390.75872 104.22314 
L 391.942517 104.239333 
L 394.19138 103.656746 
L 394.614865 104.41225 
L 395.012248 103.598663 
L 398.196307 103.752934 
L 401.265121 103.812965 
L 402.108793 103.458295 
L 402.504307 103.752468 
L 402.898529 104.53806 
L 403.259877 104.334901 
L 404.28969 103.229335 
L 405.615752 103.441117 
L 410.360074 103.242932 
L 410.803001 102.85347 
L 411.149108 103.635524 
L 413.358656 103.130175 
L 413.758226 102.817212 
L 414.148447 103.371337 
L 416.392256 103.788981 
L 416.716119 102.789398 
L 417.446955 103.21111 
L 425.039803 102.62175 
L 426.313284 102.910458 
L 427.505866 102.758943 
L 427.86442 103.397951 
L 428.219493 102.765675 
L 428.624944 102.39379 
L 429.00679 102.938676 
L 429.379314 103.563056 
L 430.17385 103.042483 
L 431.976671 103.196092 
L 434.597544 103.522924 
L 435.784156 103.385261 
L 437.405595 102.726606 
L 439.105879 102.978735 
L 441.442969 102.331722 
L 443.191648 102.103985 
L 443.689459 101.766193 
L 444.726172 102.87332 
L 450.502087 103.286735 
L 451.694162 102.519861 
L 452.127628 102.977124 
L 452.546271 102.318309 
L 461.253936 102.864596 
L 463.018155 102.963478 
L 464.761337 103.123823 
L 465.817685 102.936893 
L 467.828682 103.10456 
L 469.599516 102.256596 
L 471.170523 102.868359 
L 476.318657 102.924493 
L 477.42624 102.928617 
L 481.273867 102.538248 
L 483.35434 103.097806 
L 483.732038 102.613052 
L 484.084875 103.139809 
L 484.912835 103.601025 
L 485.332855 102.941107 
L 485.741437 102.663369 
L 486.128811 103.619596 
L 486.503885 103.018436 
L 489.006265 102.859057 
L 489.453254 103.551762 
L 489.890851 103.038852 
L 491.44045 102.593218 
L 492.581075 103.26869 
L 494.167396 102.105491 
L 495.703469 103.159581 
L 497.398115 103.071239 
L 500.230933 101.683553 
L 501.945412 102.574015 
L 503.155095 102.078598 
L 503.568505 103.268063 
L 503.948011 102.78207 
L 505.546211 102.802644 
L 507.301859 103.426507 
L 511.063284 102.911856 
L 512.857234 103.230385 
L 515.601887 103.358983 
L 517.481601 103.253741 
L 518.673221 102.611415 
L 519.936219 103.165924 
L 521.595421 103.274507 
L 522.488088 103.375409 
L 523.662455 103.001047 
L 525.61474 103.689619 
L 529.291219 102.831363 
L 531.367844 102.980507 
L 533.473691 102.700278 
L 537.821946 102.945009 
L 537.821946 102.945009 
" clip-path="url(#pf1c7866a2a)" style="fill: none; stroke: #377eb8; stroke-width: 2; stroke-linecap: square"/>
   </g>
   <g id="patch_3">
    <path d="M 38.482813 241.599141 
L 38.482813 7.2 
" style="fill: none; stroke: #7f7f7f; stroke-width: 1.8; stroke-linejoin: miter; stroke-linecap: square"/>
   </g>
   <g id="patch_4">
    <path d="M 38.482813 241.599141 
L 561.6 241.599141 
" style="fill: none; stroke: #7f7f7f; stroke-width: 1.8; stroke-linejoin: miter; stroke-linecap: square"/>
   </g>
   <g id="legend_1">
    <g id="line2d_27">
     <path d="M 499.584375 20.298438 
L 509.584375 20.298438 
L 519.584375 20.298438 
" style="fill: none; stroke: #e41a1c; stroke-width: 2; stroke-linecap: square"/>
    </g>
    <g id="text_14">
     <!-- err 2 -->
     <g style="fill: #7f7f7f" transform="translate(527.584375 23.798438) scale(0.1 -0.1)">
      <defs>
       <path id="DejaVuSans-55" d="M 2631 2963 
Q 2534 3019 2420 3045 
Q 2306 3072 2169 3072 
Q 1681 3072 1420 2755 
Q 1159 2438 1159 1844 
L 1159 0 
L 581 0 
L 581 3500 
L 1159 3500 
L 1159 2956 
Q 1341 3275 1631 3429 
Q 1922 3584 2338 3584 
Q 2397 3584 2469 3576 
Q 2541 3569 2628 3553 
L 2631 2963 
z
" transform="scale(0.015625)"/>
      </defs>
      <use xlink:href="#DejaVuSans-48"/>
      <use xlink:href="#DejaVuSans-55" transform="translate(61.53125 0)"/>
      <use xlink:href="#DejaVuSans-55" transform="translate(100.890625 0)"/>
      <use xlink:href="#DejaVuSans-3" transform="translate(142 0)"/>
      <use xlink:href="#DejaVuSans-15" transform="translate(173.78125 0)"/>
     </g>
    </g>
    <g id="line2d_28">
     <path d="M 499.584375 35.299219 
L 509.584375 35.299219 
L 519.584375 35.299219 
" style="fill: none; stroke: #377eb8; stroke-width: 2; stroke-linecap: square"/>
    </g>
    <g id="text_15">
     <!-- pid 2 -->
     <g style="fill: #7f7f7f" transform="translate(527.584375 38.799219) scale(0.1 -0.1)">
      <defs>
       <path id="DejaVuSans-53" d="M 1159 525 
L 1159 -1331 
L 581 -1331 
L 581 3500 
L 1159 3500 
L 1159 2969 
Q 1341 3281 1617 3432 
Q 1894 3584 2278 3584 
Q 2916 3584 3314 3078 
Q 3713 2572 3713 1747 
Q 3713 922 3314 415 
Q 2916 -91 2278 -91 
Q 1894 -91 1617 61 
Q 1341 213 1159 525 
z
M 3116 1747 
Q 3116 2381 2855 2742 
Q 2594 3103 2138 3103 
Q 1681 3103 1420 2742 
Q 1159 2381 1159 1747 
Q 1159 1113 1420 752 
Q 1681 391 2138 391 
Q 2594 391 2855 752 
Q 3116 1113 3116 1747 
z
" transform="scale(0.015625)"/>
       <path id="DejaVuSans-47" d="M 2906 2969 
L 2906 4863 
L 3481 4863 
L 3481 0 
L 2906 0 
L 2906 525 
Q 2725 213 2448 61 
Q 2172 -91 1784 -91 
Q 1150 -91 751 415 
Q 353 922 353 1747 
Q 353 2572 751 3078 
Q 1150 3584 1784 3584 
Q 2172 3584 2448 3432 
Q 2725 3281 2906 2969 
z
M 947 1747 
Q 947 1113 1208 752 
Q 1469 391 1925 391 
Q 2381 391 2643 752 
Q 2906 1113 2906 1747 
Q 2906 2381 2643 2742 
Q 2381 3103 1925 3103 
Q 1469 3103 1208 2742 
Q 947 2381 947 1747 
z
" transform="scale(0.015625)"/>
      </defs>
      <use xlink:href="#DejaVuSans-53"/>
      <use xlink:href="#DejaVuSans-4c" transform="translate(63.484375 0)"/>
      <use xlink:href="#DejaVuSans-47" transform="translate(91.265625 0)"/>
      <use xlink:href="#DejaVuSans-3" transform="translate(154.75 0)"/>
      <use xlink:href="#DejaVuSans-15" transform="translate(186.53125 0)"/>
     </g>
    </g>
   </g>
  </g>
 </g>
 <defs>
  <clipPath id="pf1c7866a2a">
   <rect x="38.482813" y="7.2" width="523.117187" height="234.399141"/>
  </clipPath>
 </defs>
</svg>
