<?xml version="1.0" encoding="utf-8" standalone="no"?>
<!DOCTYPE svg PUBLIC "-//W3C//DTD SVG 1.1//EN"
  "http://www.w3.org/Graphics/SVG/1.1/DTD/svg11.dtd">
<svg xmlns:xlink="http://www.w3.org/1999/xlink" width="568.8pt" height="424.8pt" viewBox="0 0 568.8 424.8" xmlns="http://www.w3.org/2000/svg" version="1.1">
 <metadata>
  <rdf:RDF xmlns:dc="http://purl.org/dc/elements/1.1/" xmlns:cc="http://creativecommons.org/ns#" xmlns:rdf="http://www.w3.org/1999/02/22-rdf-syntax-ns#">
   <cc:Work>
    <dc:type rdf:resource="http://purl.org/dc/dcmitype/StillImage"/>
    <dc:date>2026-07-24T08:23:26.559537</dc:date>
    <dc:format>image/svg+xml</dc:format>
    <dc:creator>
     <cc:Agent>
      <dc:title>Matplotlib v3.11.1, https://matplotlib.org/</dc:title>
     </cc:Agent>
    </dc:creator>
   </cc:Work>
  </rdf:RDF>
 </metadata>
 <defs>
  <style type="text/css">*{stroke-linejoin: round; stroke-linecap: butt}</style>
 </defs>
 <g id="figure_1">
  <g id="patch_1">
   <path d="M 0 424.8 
L 568.8 424.8 
L 568.8 0 
L 0 0 
L 0 424.8 
z
" style="fill: none"/>
  </g>
  <g id="axes_1">
   <g id="patch_2">
    <path d="M 45.103984 190.058633 
L 561.6 190.058633 
L 561.6 22.318125 
L 45.103984 22.318125 
L 45.103984 190.058633 
z
" style="fill: none"/>
   </g>
   <g id="matplotlib.axis_1">
    <g id="xtick_1">
     <g id="line2d_1">
      <defs>
       <path id="mb73e3731cf" d="M 0 0 
L 0 3.5 
" style="stroke: #7f7f7f; stroke-width: 1.8"/>
      </defs>
      <g>
       <use xlink:href="#mb73e3731cf" x="68.581076" y="190.058633" style="fill: #7f7f7f; stroke: #7f7f7f; stroke-width: 1.8"/>
      </g>
     </g>
     <g id="text_1">
      <!-- 0.0 -->
      <g style="fill: #7f7f7f" transform="translate(60.629513 204.656289) scale(0.1 -0.1)">
       <defs>
        <path id="DejaVuSans-13" d="M 2034 4250 
Q 1547 4250 1301 3770 
Q 1056 3291 1056 2328 
Q 1056 1369 1301 889 
Q 1547 409 2034 409 
Q 2525 409 2770 889 
Q 3016 1369 3016 2328 
Q 3016 3291 2770 3770 
Q 2525 4250 2034 4250 
z
M 2034 4750 
Q 2819 4750 3233 4129 
Q 3647 3509 3647 2328 
Q 3647 1150 3233 529 
Q 2819 -91 2034 -91 
Q 1250 -91 836 529 
Q 422 1150 422 2328 
Q 422 3509 836 4129 
Q 1250 4750 2034 4750 
z
" transform="scale(0.015625)"/>
        <path id="DejaVuSans-11" d="M 684 794 
L 1344 794 
L 1344 0 
L 684 0 
L 684 794 
z
" transform="scale(0.015625)"/>
       </defs>
       <use xlink:href="#DejaVuSans-13"/>
       <use xlink:href="#DejaVuSans-11" transform="translate(63.625 0)"/>
       <use xlink:href="#DejaVuSans-13" transform="translate(95.40625 0)"/>
      </g>
     </g>
    </g>
    <g id="xtick_2">
     <g id="line2d_2">
      <g>
       <use xlink:href="#mb73e3731cf" x="127.273805" y="190.058633" style="fill: #7f7f7f; stroke: #7f7f7f; stroke-width: 1.8"/>
      </g>
     </g>
     <g id="text_2">
      <!-- 2.5 -->
      <g style="fill: #7f7f7f" transform="translate(119.322243 204.656289) scale(0.1 -0.1)">
       <defs>
        <path id="DejaVuSans-15" d="M 1228 531 
L 3431 531 
L 3431 0 
L 469 0 
L 469 531 
Q 828 903 1448 1529 
Q 2069 2156 2228 2338 
Q 2531 2678 2651 2914 
Q 2772 3150 2772 3378 
Q 2772 3750 2511 3984 
Q 2250 4219 1831 4219 
Q 1534 4219 1204 4116 
Q 875 4013 500 3803 
L 500 4441 
Q 881 4594 1212 4672 
Q 1544 4750 1819 4750 
Q 2544 4750 2975 4387 
Q 3406 4025 3406 3419 
Q 3406 3131 3298 2873 
Q 3191 2616 2906 2266 
Q 2828 2175 2409 1742 
Q 1991 1309 1228 531 
z
" transform="scale(0.015625)"/>
        <path id="DejaVuSans-18" d="M 691 4666 
L 3169 4666 
L 3169 4134 
L 1269 4134 
L 1269 2991 
Q 1406 3038 1543 3061 
Q 1681 3084 1819 3084 
Q 2600 3084 3056 2656 
Q 3513 2228 3513 1497 
Q 3513 744 3044 326 
Q 2575 -91 1722 -91 
Q 1428 -91 1123 -41 
Q 819 9 494 109 
L 494 744 
Q 775 591 1075 516 
Q 1375 441 1709 441 
Q 2250 441 2565 725 
Q 2881 1009 2881 1497 
Q 2881 1984 2565 2268 
Q 2250 2553 1709 2553 
Q 1456 2553 1204 2497 
Q 953 2441 691 2322 
L 691 4666 
z
" transform="scale(0.015625)"/>
       </defs>
       <use xlink:href="#DejaVuSans-15"/>
       <use xlink:href="#DejaVuSans-11" transform="translate(63.625 0)"/>
       <use xlink:href="#DejaVuSans-18" transform="translate(95.40625 0)"/>
      </g>
     </g>
    </g>
    <g id="xtick_3">
     <g id="line2d_3">
      <g>
       <use xlink:href="#mb73e3731cf" x="185.966534" y="190.058633" style="fill: #7f7f7f; stroke: #7f7f7f; stroke-width: 1.8"/>
      </g>
     </g>
     <g id="text_3">
      <!-- 5.0 -->
      <g style="fill: #7f7f7f" transform="translate(178.014972 204.656289) scale(0.1 -0.1)">
       <use xlink:href="#DejaVuSans-18"/>
       <use xlink:href="#DejaVuSans-11" transform="translate(63.625 0)"/>
       <use xlink:href="#DejaVuSans-13" transform="translate(95.40625 0)"/>
      </g>
     </g>
    </g>
    <g id="xtick_4">
     <g id="line2d_4">
      <g>
       <use xlink:href="#mb73e3731cf" x="244.659263" y="190.058633" style="fill: #7f7f7f; stroke: #7f7f7f; stroke-width: 1.8"/>
      </g>
     </g>
     <g id="text_4">
      <!-- 7.5 -->
      <g style="fill: #7f7f7f" transform="translate(236.707701 204.656289) scale(0.1 -0.1)">
       <defs>
        <path id="DejaVuSans-1a" d="M 525 4666 
L 3525 4666 
L 3525 4397 
L 1831 0 
L 1172 0 
L 2766 4134 
L 525 4134 
L 525 4666 
z
" transform="scale(0.015625)"/>
       </defs>
       <use xlink:href="#DejaVuSans-1a"/>
       <use xlink:href="#DejaVuSans-11" transform="translate(63.625 0)"/>
       <use xlink:href="#DejaVuSans-18" transform="translate(95.40625 0)"/>
      </g>
     </g>
    </g>
    <g id="xtick_5">
     <g id="line2d_5">
      <g>
       <use xlink:href="#mb73e3731cf" x="303.351992" y="190.058633" style="fill: #7f7f7f; stroke: #7f7f7f; stroke-width: 1.8"/>
      </g>
     </g>
     <g id="text_5">
      <!-- 10.0 -->
      <g style="fill: #7f7f7f" transform="translate(292.21918 204.656289) scale(0.1 -0.1)">
       <defs>
        <path id="DejaVuSans-14" d="M 794 531 
L 1825 531 
L 1825 4091 
L 703 3866 
L 703 4441 
L 1819 4666 
L 2450 4666 
L 2450 531 
L 3481 531 
L 3481 0 
L 794 0 
L 794 531 
z
" transform="scale(0.015625)"/>
       </defs>
       <use xlink:href="#DejaVuSans-14"/>
       <use xlink:href="#DejaVuSans-13" transform="translate(63.625 0)"/>
       <use xlink:href="#DejaVuSans-11" transform="translate(127.25 0)"/>
       <use xlink:href="#DejaVuSans-13" transform="translate(159.03125 0)"/>
      </g>
     </g>
    </g>
    <g id="xtick_6">
     <g id="line2d_6">
      <g>
       <use xlink:href="#mb73e3731cf" x="362.044721" y="190.058633" style="fill: #7f7f7f; stroke: #7f7f7f; stroke-width: 1.8"/>
      </g>
     </g>
     <g id="text_6">
      <!-- 12.5 -->
      <g style="fill: #7f7f7f" transform="translate(350.911909 204.656289) scale(0.1 -0.1)">
       <use xlink:href="#DejaVuSans-14"/>
       <use xlink:href="#DejaVuSans-15" transform="translate(63.625 0)"/>
       <use xlink:href="#DejaVuSans-11" transform="translate(127.25 0)"/>
       <use xlink:href="#DejaVuSans-18" transform="translate(159.03125 0)"/>
      </g>
     </g>
    </g>
    <g id="xtick_7">
     <g id="line2d_7">
      <g>
       <use xlink:href="#mb73e3731cf" x="420.73745" y="190.058633" style="fill: #7f7f7f; stroke: #7f7f7f; stroke-width: 1.8"/>
      </g>
     </g>
     <g id="text_7">
      <!-- 15.0 -->
      <g style="fill: #7f7f7f" transform="translate(409.604638 204.656289) scale(0.1 -0.1)">
       <use xlink:href="#DejaVuSans-14"/>
       <use xlink:href="#DejaVuSans-18" transform="translate(63.625 0)"/>
       <use xlink:href="#DejaVuSans-11" transform="translate(127.25 0)"/>
       <use xlink:href="#DejaVuSans-13" transform="translate(159.03125 0)"/>
      </g>
     </g>
    </g>
    <g id="xtick_8">
     <g id="line2d_8">
      <g>
       <use xlink:href="#mb73e3731cf" x="479.430179" y="190.058633" style="fill: #7f7f7f; stroke: #7f7f7f; stroke-width: 1.8"/>
      </g>
     </g>
     <g id="text_8">
      <!-- 17.5 -->
      <g style="fill: #7f7f7f" transform="translate(468.297367 204.656289) scale(0.1 -0.1)">
       <use xlink:href="#DejaVuSans-14"/>
       <use xlink:href="#DejaVuSans-1a" transform="translate(63.625 0)"/>
       <use xlink:href="#DejaVuSans-11" transform="translate(127.25 0)"/>
       <use xlink:href="#DejaVuSans-18" transform="translate(159.03125 0)"/>
      </g>
     </g>
    </g>
    <g id="xtick_9">
     <g id="line2d_9">
      <g>
       <use xlink:href="#mb73e3731cf" x="538.122908" y="190.058633" style="fill: #7f7f7f; stroke: #7f7f7f; stroke-width: 1.8"/>
      </g>
     </g>
     <g id="text_9">
      <!-- 20.0 -->
      <g style="fill: #7f7f7f" transform="translate(526.990096 204.656289) scale(0.1 -0.1)">
       <use xlink:href="#DejaVuSans-15"/>
       <use xlink:href="#DejaVuSans-13" transform="translate(63.625 0)"/>
       <use xlink:href="#DejaVuSans-11" transform="translate(127.25 0)"/>
       <use xlink:href="#DejaVuSans-13" transform="translate(159.03125 0)"/>
      </g>
     </g>
    </g>
   </g>
   <g id="matplotlib.axis_2">
    <g id="ytick_1">
     <g id="line2d_10">
      <defs>
       <path id="m4cd747c2da" d="M 0 0 
L -3.5 0 
" style="stroke: #7f7f7f; stroke-width: 1.8"/>
      </defs>
      <g>
       <use xlink:href="#m4cd747c2da" x="45.103984" y="182.434064" style="fill: #7f7f7f; stroke: #7f7f7f; stroke-width: 1.8"/>
      </g>
     </g>
     <g id="text_10">
      <!-- 0.0 -->
      <g style="fill: #7f7f7f" transform="translate(22.200859 186.232892) scale(0.1 -0.1)">
       <use xlink:href="#DejaVuSans-13"/>
       <use xlink:href="#DejaVuSans-11" transform="translate(63.625 0)"/>
       <use xlink:href="#DejaVuSans-13" transform="translate(95.40625 0)"/>
      </g>
     </g>
    </g>
    <g id="ytick_2">
     <g id="line2d_11">
      <g>
       <use xlink:href="#m4cd747c2da" x="45.103984" y="150.373743" style="fill: #7f7f7f; stroke: #7f7f7f; stroke-width: 1.8"/>
      </g>
     </g>
     <g id="text_11">
      <!-- 0.1 -->
      <g style="fill: #7f7f7f" transform="translate(22.200859 154.172572) scale(0.1 -0.1)">
       <use xlink:href="#DejaVuSans-13"/>
       <use xlink:href="#DejaVuSans-11" transform="translate(63.625 0)"/>
       <use xlink:href="#DejaVuSans-14" transform="translate(95.40625 0)"/>
      </g>
     </g>
    </g>
    <g id="ytick_3">
     <g id="line2d_12">
      <g>
       <use xlink:href="#m4cd747c2da" x="45.103984" y="118.313423" style="fill: #7f7f7f; stroke: #7f7f7f; stroke-width: 1.8"/>
      </g>
     </g>
     <g id="text_12">
      <!-- 0.2 -->
      <g style="fill: #7f7f7f" transform="translate(22.200859 122.112251) scale(0.1 -0.1)">
       <use xlink:href="#DejaVuSans-13"/>
       <use xlink:href="#DejaVuSans-11" transform="translate(63.625 0)"/>
       <use xlink:href="#DejaVuSans-15" transform="translate(95.40625 0)"/>
      </g>
     </g>
    </g>
    <g id="ytick_4">
     <g id="line2d_13">
      <g>
       <use xlink:href="#m4cd747c2da" x="45.103984" y="86.253102" style="fill: #7f7f7f; stroke: #7f7f7f; stroke-width: 1.8"/>
      </g>
     </g>
     <g id="text_13">
      <!-- 0.3 -->
      <g style="fill: #7f7f7f" transform="translate(22.200859 90.05193) scale(0.1 -0.1)">
       <defs>
        <path id="DejaVuSans-16" d="M 2597 2516 
Q 3050 2419 3304 2112 
Q 3559 1806 3559 1356 
Q 3559 666 3084 287 
Q 2609 -91 1734 -91 
Q 1441 -91 1130 -33 
Q 819 25 488 141 
L 488 750 
Q 750 597 1062 519 
Q 1375 441 1716 441 
Q 2309 441 2620 675 
Q 2931 909 2931 1356 
Q 2931 1769 2642 2001 
Q 2353 2234 1838 2234 
L 1294 2234 
L 1294 2753 
L 1863 2753 
Q 2328 2753 2575 2939 
Q 2822 3125 2822 3475 
Q 2822 3834 2567 4026 
Q 2313 4219 1838 4219 
Q 1578 4219 1281 4162 
Q 984 4106 628 3988 
L 628 4550 
Q 988 4650 1302 4700 
Q 1616 4750 1894 4750 
Q 2613 4750 3031 4423 
Q 3450 4097 3450 3541 
Q 3450 3153 3228 2886 
Q 3006 2619 2597 2516 
z
" transform="scale(0.015625)"/>
       </defs>
       <use xlink:href="#DejaVuSans-13"/>
       <use xlink:href="#DejaVuSans-11" transform="translate(63.625 0)"/>
       <use xlink:href="#DejaVuSans-16" transform="translate(95.40625 0)"/>
      </g>
     </g>
    </g>
    <g id="ytick_5">
     <g id="line2d_14">
      <g>
       <use xlink:href="#m4cd747c2da" x="45.103984" y="54.192781" style="fill: #7f7f7f; stroke: #7f7f7f; stroke-width: 1.8"/>
      </g>
     </g>
     <g id="text_14">
      <!-- 0.4 -->
      <g style="fill: #7f7f7f" transform="translate(22.200859 57.991609) scale(0.1 -0.1)">
       <defs>
        <path id="DejaVuSans-17" d="M 2419 4116 
L 825 1625 
L 2419 1625 
L 2419 4116 
z
M 2253 4666 
L 3047 4666 
L 3047 1625 
L 3713 1625 
L 3713 1100 
L 3047 1100 
L 3047 0 
L 2419 0 
L 2419 1100 
L 313 1100 
L 313 1709 
L 2253 4666 
z
" transform="scale(0.015625)"/>
       </defs>
       <use xlink:href="#DejaVuSans-13"/>
       <use xlink:href="#DejaVuSans-11" transform="translate(63.625 0)"/>
       <use xlink:href="#DejaVuSans-17" transform="translate(95.40625 0)"/>
      </g>
     </g>
    </g>
    <g id="text_15">
     <!-- Position Error [m] -->
     <g style="fill: #7f7f7f" transform="translate(15.558281 154.153535) rotate(-90) scale(0.11 -0.11)">
      <defs>
       <path id="DejaVuSans-33" d="M 1259 4147 
L 1259 2394 
L 2053 2394 
Q 2494 2394 2734 2622 
Q 2975 2850 2975 3272 
Q 2975 3691 2734 3919 
Q 2494 4147 2053 4147 
L 1259 4147 
z
M 628 4666 
L 2053 4666 
Q 2838 4666 3239 4311 
Q 3641 3956 3641 3272 
Q 3641 2581 3239 2228 
Q 2838 1875 2053 1875 
L 1259 1875 
L 1259 0 
L 628 0 
L 628 4666 
z
" transform="scale(0.015625)"/>
       <path id="DejaVuSans-52" d="M 1959 3097 
Q 1497 3097 1228 2736 
Q 959 2375 959 1747 
Q 959 1119 1226 758 
Q 1494 397 1959 397 
Q 2419 397 2687 759 
Q 2956 1122 2956 1747 
Q 2956 2369 2687 2733 
Q 2419 3097 1959 3097 
z
M 1959 3584 
Q 2709 3584 3137 3096 
Q 3566 2609 3566 1747 
Q 3566 888 3137 398 
Q 2709 -91 1959 -91 
Q 1206 -91 779 398 
Q 353 888 353 1747 
Q 353 2609 779 3096 
Q 1206 3584 1959 3584 
z
" transform="scale(0.015625)"/>
       <path id="DejaVuSans-56" d="M 2834 3397 
L 2834 2853 
Q 2591 2978 2328 3040 
Q 2066 3103 1784 3103 
Q 1356 3103 1142 2972 
Q 928 2841 928 2578 
Q 928 2378 1081 2264 
Q 1234 2150 1697 2047 
L 1894 2003 
Q 2506 1872 2764 1633 
Q 3022 1394 3022 966 
Q 3022 478 2636 193 
Q 2250 -91 1575 -91 
Q 1294 -91 989 -36 
Q 684 19 347 128 
L 347 722 
Q 666 556 975 473 
Q 1284 391 1588 391 
Q 1994 391 2212 530 
Q 2431 669 2431 922 
Q 2431 1156 2273 1281 
Q 2116 1406 1581 1522 
L 1381 1569 
Q 847 1681 609 1914 
Q 372 2147 372 2553 
Q 372 3047 722 3315 
Q 1072 3584 1716 3584 
Q 2034 3584 2315 3537 
Q 2597 3491 2834 3397 
z
" transform="scale(0.015625)"/>
       <path id="DejaVuSans-4c" d="M 603 3500 
L 1178 3500 
L 1178 0 
L 603 0 
L 603 3500 
z
M 603 4863 
L 1178 4863 
L 1178 4134 
L 603 4134 
L 603 4863 
z
" transform="scale(0.015625)"/>
       <path id="DejaVuSans-57" d="M 1172 4494 
L 1172 3500 
L 2356 3500 
L 2356 3053 
L 1172 3053 
L 1172 1153 
Q 1172 725 1289 603 
Q 1406 481 1766 481 
L 2356 481 
L 2356 0 
L 1766 0 
Q 1100 0 847 248 
Q 594 497 594 1153 
L 594 3053 
L 172 3053 
L 172 3500 
L 594 3500 
L 594 4494 
L 1172 4494 
z
" transform="scale(0.015625)"/>
       <path id="DejaVuSans-51" d="M 3513 2113 
L 3513 0 
L 2938 0 
L 2938 2094 
Q 2938 2591 2744 2837 
Q 2550 3084 2163 3084 
Q 1697 3084 1428 2787 
Q 1159 2491 1159 1978 
L 1159 0 
L 581 0 
L 581 3500 
L 1159 3500 
L 1159 2956 
Q 1366 3272 1645 3428 
Q 1925 3584 2291 3584 
Q 2894 3584 3203 3211 
Q 3513 2838 3513 2113 
z
" transform="scale(0.015625)"/>
       <path id="DejaVuSans-3" transform="scale(0.015625)"/>
       <path id="DejaVuSans-28" d="M 628 4666 
L 3578 4666 
L 3578 4134 
L 1259 4134 
L 1259 2753 
L 3481 2753 
L 3481 2222 
L 1259 2222 
L 1259 531 
L 3634 531 
L 3634 0 
L 628 0 
L 628 4666 
z
" transform="scale(0.015625)"/>
       <path id="DejaVuSans-55" d="M 2631 2963 
Q 2534 3019 2420 3045 
Q 2306 3072 2169 3072 
Q 1681 3072 1420 2755 
Q 1159 2438 1159 1844 
L 1159 0 
L 581 0 
L 581 3500 
L 1159 3500 
L 1159 2956 
Q 1341 3275 1631 3429 
Q 1922 3584 2338 3584 
Q 2397 3584 2469 3576 
Q 2541 3569 2628 3553 
L 2631 2963 
z
" transform="scale(0.015625)"/>
       <path id="DejaVuSans-3e" d="M 550 4863 
L 1875 4863 
L 1875 4416 
L 1125 4416 
L 1125 -397 
L 1875 -397 
L 1875 -844 
L 550 -844 
L 550 4863 
z
" transform="scale(0.015625)"/>
       <path id="DejaVuSans-50" d="M 3328 2828 
Q 3544 3216 3844 3400 
Q 4144 3584 4550 3584 
Q 5097 3584 5394 3201 
Q 5691 2819 5691 2113 
L 5691 0 
L 5113 0 
L 5113 2094 
Q 5113 2597 4934 2840 
Q 4756 3084 4391 3084 
Q 3944 3084 3684 2787 
Q 3425 2491 3425 1978 
L 3425 0 
L 2847 0 
L 2847 2094 
Q 2847 2600 2669 2842 
Q 2491 3084 2119 3084 
Q 1678 3084 1418 2786 
Q 1159 2488 1159 1978 
L 1159 0 
L 581 0 
L 581 3500 
L 1159 3500 
L 1159 2956 
Q 1356 3278 1631 3431 
Q 1906 3584 2284 3584 
Q 2666 3584 2933 3390 
Q 3200 3197 3328 2828 
z
" transform="scale(0.015625)"/>
       <path id="DejaVuSans-40" d="M 1947 4863 
L 1947 -844 
L 622 -844 
L 622 -397 
L 1369 -397 
L 1369 4416 
L 622 4416 
L 622 4863 
L 1947 4863 
z
" transform="scale(0.015625)"/>
      </defs>
      <use xlink:href="#DejaVuSans-33"/>
      <use xlink:href="#DejaVuSans-52" transform="translate(56.734375 0)"/>
      <use xlink:href="#DejaVuSans-56" transform="translate(117.921875 0)"/>
      <use xlink:href="#DejaVuSans-4c" transform="translate(170.015625 0)"/>
      <use xlink:href="#DejaVuSans-57" transform="translate(197.796875 0)"/>
      <use xlink:href="#DejaVuSans-4c" transform="translate(237 0)"/>
      <use xlink:href="#DejaVuSans-52" transform="translate(264.78125 0)"/>
      <use xlink:href="#DejaVuSans-51" transform="translate(325.96875 0)"/>
      <use xlink:href="#DejaVuSans-3" transform="translate(389.34375 0)"/>
      <use xlink:href="#DejaVuSans-28" transform="translate(421.125 0)"/>
      <use xlink:href="#DejaVuSans-55" transform="translate(484.3125 0)"/>
      <use xlink:href="#DejaVuSans-55" transform="translate(523.671875 0)"/>
      <use xlink:href="#DejaVuSans-52" transform="translate(562.578125 0)"/>
      <use xlink:href="#DejaVuSans-55" transform="translate(623.765625 0)"/>
      <use xlink:href="#DejaVuSans-3" transform="translate(664.875 0)"/>
      <use xlink:href="#DejaVuSans-3e" transform="translate(696.65625 0)"/>
      <use xlink:href="#DejaVuSans-50" transform="translate(735.671875 0)"/>
      <use xlink:href="#DejaVuSans-40" transform="translate(833.078125 0)"/>
     </g>
    </g>
   </g>
   <g id="line2d_15">
    <path d="M 68.581076 182.434064 
L 68.815847 176.022 
L 69.754931 29.942694 
L 69.989701 60.850264 
L 70.459243 107.946732 
L 71.398327 101.385628 
L 71.633098 65.660548 
L 72.337411 98.601184 
L 73.041723 78.946557 
L 73.980807 122.582622 
L 74.215578 110.941617 
L 74.450349 124.142772 
L 74.919891 108.996776 
L 75.154662 101.761048 
L 75.389433 117.796217 
L 75.624203 116.611481 
L 75.858974 115.138344 
L 76.093745 118.236784 
L 76.798058 154.430873 
L 77.2676 146.717666 
L 77.737142 115.325582 
L 78.206684 143.4699 
L 79.380538 157.108325 
L 79.615309 129.7448 
L 80.319622 138.821982 
L 81.493476 161.896652 
L 81.963018 145.526598 
L 82.197789 166.693045 
L 82.902102 179.091131 
L 83.136873 163.724907 
L 83.841186 167.942748 
L 84.310727 173.514367 
L 85.01504 136.935125 
L 85.249811 154.851733 
L 85.484582 156.664997 
L 85.719353 149.505384 
L 85.954124 157.782741 
L 86.423666 151.255135 
L 86.658437 156.479277 
L 86.893207 152.946627 
L 88.067062 121.393749 
L 88.301833 122.259081 
L 88.536604 119.743708 
L 88.771375 128.096174 
L 89.240917 113.873266 
L 89.475688 114.41418 
L 91.353855 172.368867 
L 91.823397 162.403052 
L 92.997251 145.827664 
L 93.466793 142.565182 
L 93.936335 145.601394 
L 96.049273 181.753318 
L 94.405877 144.641198 
L 96.284044 170.540077 
L 97.223128 148.602849 
L 97.457899 152.970108 
L 97.69267 172.222042 
L 98.162211 157.672357 
L 98.866524 143.975266 
L 99.101295 147.364738 
L 100.040379 175.407445 
L 100.27515 172.413593 
L 100.744692 180.438284 
L 100.979462 176.236714 
L 101.918546 143.400546 
L 102.85763 146.842534 
L 103.796713 157.306363 
L 104.031484 146.673485 
L 104.501026 159.59425 
L 104.735797 152.771645 
L 104.970568 158.542607 
L 105.205339 149.588702 
L 105.44011 152.485332 
L 105.909652 142.457654 
L 106.144423 159.0076 
L 107.318277 166.2428 
L 108.961674 137.367881 
L 109.196444 137.74178 
L 109.431215 141.393837 
L 110.60507 112.922372 
L 110.839841 114.607033 
L 111.074612 115.391764 
L 111.544154 124.839425 
L 111.778925 119.035097 
L 112.013695 106.392136 
L 112.483237 123.16081 
L 112.718008 122.616662 
L 113.422321 111.458105 
L 113.657092 124.921776 
L 114.126634 108.785792 
L 114.361405 115.656068 
L 114.596176 116.067194 
L 114.830946 112.021415 
L 115.065717 117.851638 
L 116.474343 155.080105 
L 116.709114 171.64866 
L 117.413427 163.710462 
L 118.35251 154.680187 
L 119.526365 182.188293 
L 119.761136 172.44193 
L 119.995907 175.129488 
L 120.230678 169.727975 
L 120.465448 165.540967 
L 120.700219 171.045539 
L 121.169761 167.861416 
L 121.404532 166.791941 
L 123.047929 137.344693 
L 123.282699 142.288658 
L 123.51747 131.643249 
L 123.752241 126.437717 
L 123.987012 131.689173 
L 124.221783 130.239515 
L 124.456554 143.10022 
L 125.160867 138.542707 
L 125.395638 121.718474 
L 126.09995 133.640201 
L 127.508576 158.713566 
L 127.743347 149.102716 
L 127.978118 146.697639 
L 128.212889 152.083757 
L 128.44766 156.900978 
L 129.386743 156.668474 
L 129.621514 157.839998 
L 129.856285 155.626942 
L 130.325827 147.148368 
L 130.795369 148.189934 
L 132.203994 163.907896 
L 132.438765 163.896136 
L 132.673536 157.012139 
L 133.377849 163.2402 
L 135.256016 182.269479 
L 135.490787 172.621874 
L 136.1951 176.868456 
L 136.429871 179.69325 
L 136.899413 176.442001 
L 137.838496 156.985774 
L 138.073267 163.496061 
L 138.308038 166.444345 
L 138.542809 159.703784 
L 138.77758 160.825806 
L 139.247122 163.71278 
L 139.481893 159.198787 
L 139.951435 167.97215 
L 140.186205 164.238725 
L 140.420976 163.229 
L 140.655747 170.289747 
L 141.125289 159.68124 
L 141.36006 157.203919 
L 141.594831 159.947009 
L 141.829602 157.938071 
L 142.299144 162.528185 
L 142.768686 160.985768 
L 143.238227 154.688183 
L 143.472998 155.225725 
L 143.94254 168.445101 
L 144.412082 152.288093 
L 144.646853 165.09725 
L 145.351166 159.422222 
L 145.585937 163.678815 
L 146.055478 166.81919 
L 146.290249 166.2003 
L 147.464104 178.727439 
L 147.933646 175.547613 
L 149.1075 156.16561 
L 149.342271 158.834297 
L 149.577042 150.141607 
L 150.281355 160.947682 
L 150.516126 159.662653 
L 151.68998 176.478355 
L 151.924751 180.442154 
L 152.394293 173.287989 
L 153.333377 181.813784 
L 153.568148 179.47484 
L 154.037689 181.756332 
L 154.742002 171.695037 
L 155.211544 181.729692 
L 155.681086 179.695536 
L 156.85494 163.151569 
L 157.324482 172.227266 
L 157.794024 168.888386 
L 158.263566 140.954514 
L 158.967879 148.986723 
L 159.20265 145.731878 
L 159.437421 149.092427 
L 159.672191 147.880701 
L 160.611275 174.227299 
L 160.846046 167.752553 
L 162.489442 147.694263 
L 162.724213 148.192392 
L 163.193755 132.313148 
L 163.663297 147.368281 
L 164.36761 156.903657 
L 164.602381 156.881306 
L 165.071923 139.647591 
L 165.541464 149.531476 
L 165.776235 152.895094 
L 166.011006 149.36003 
L 167.184861 93.946476 
L 168.358715 106.303301 
L 168.593486 105.125779 
L 170.002112 139.84463 
L 170.706425 139.071905 
L 171.880279 122.20813 
L 172.584592 137.311436 
L 173.054134 131.11885 
L 173.523676 111.979147 
L 174.227988 116.308006 
L 174.69753 130.474958 
L 175.401843 126.628485 
L 175.636614 131.401219 
L 176.106156 122.218694 
L 176.575697 109.113891 
L 177.28001 78.833178 
L 177.749552 90.749499 
L 178.219094 84.281562 
L 178.453865 88.641384 
L 179.627719 96.029913 
L 179.86249 96.155438 
L 180.097261 99.538612 
L 181.505887 71.871707 
L 181.975429 76.114828 
L 182.210199 64.068738 
L 182.914512 78.005826 
L 183.853596 66.771608 
L 186.201305 131.8393 
L 187.37516 117.427146 
L 188.314243 101.711562 
L 188.549014 103.034347 
L 190.192411 137.486134 
L 190.427181 136.843338 
L 190.661952 129.388546 
L 190.896723 142.498748 
L 191.601036 148.906881 
L 191.835807 148.386775 
L 192.070578 142.181327 
L 192.54012 149.197661 
L 193.244432 154.380878 
L 193.713974 135.643045 
L 194.418287 142.482814 
L 194.653058 142.639606 
L 194.887829 133.997104 
L 195.357371 151.122118 
L 195.826913 135.537859 
L 196.061683 132.308264 
L 196.296454 137.660468 
L 196.531225 133.749667 
L 198.174622 169.594821 
L 198.878934 157.735409 
L 199.348476 155.069838 
L 199.583247 157.084305 
L 199.818018 166.159412 
L 200.522331 164.19882 
L 200.757102 152.009747 
L 201.461415 160.300654 
L 202.165727 182.33392 
L 203.339582 177.555953 
L 204.043895 168.15925 
L 204.278666 170.393294 
L 204.748207 180.61036 
L 205.217749 170.743292 
L 205.45252 175.069927 
L 205.687291 173.059417 
L 205.922062 164.934619 
L 206.626375 169.768186 
L 207.095917 169.696823 
L 207.330687 168.747507 
L 207.565458 169.197531 
L 208.974084 182.051681 
L 210.852251 144.406762 
L 211.087022 149.729876 
L 211.791335 157.583235 
L 212.026106 150.371148 
L 213.434731 136.06765 
L 213.904273 145.109182 
L 214.373815 140.17179 
L 215.078128 114.361164 
L 215.312899 121.370315 
L 216.251982 149.868765 
L 216.486753 136.521364 
L 216.721524 135.906065 
L 216.956295 139.128128 
L 217.425837 136.613209 
L 217.660608 129.528979 
L 217.895379 138.458819 
L 218.13015 131.746417 
L 219.773546 175.975355 
L 220.008317 171.654668 
L 220.243088 170.890069 
L 220.71263 177.212043 
L 221.182172 173.237623 
L 221.886484 161.313368 
L 222.121255 171.334321 
L 222.590797 171.087316 
L 222.825568 175.563904 
L 223.29511 164.20734 
L 223.764652 170.426559 
L 223.999423 178.580071 
L 224.703735 168.991125 
L 225.173277 172.075053 
L 225.642819 174.98972 
L 225.87759 172.40474 
L 227.520986 134.279025 
L 231.512092 181.598948 
L 231.981634 180.464291 
L 232.685946 144.627922 
L 233.155488 164.011351 
L 233.390259 159.281377 
L 233.62503 165.076593 
L 233.859801 161.964212 
L 234.329343 170.73773 
L 234.564114 159.6424 
L 234.798885 168.288556 
L 235.503197 163.439612 
L 235.972739 180.814368 
L 236.442281 161.76082 
L 237.146594 151.622349 
L 237.381365 165.619878 
L 237.850907 147.68838 
L 238.085677 149.848578 
L 238.320448 148.981708 
L 239.024761 170.614261 
L 239.729074 167.866953 
L 239.963845 166.204333 
L 240.198616 171.394553 
L 240.902928 181.540362 
L 241.137699 174.679258 
L 241.607241 179.928573 
L 241.842012 179.464228 
L 242.076783 171.349334 
L 242.311554 181.5354 
L 242.781096 177.860244 
L 243.015867 180.763326 
L 243.250638 173.094662 
L 244.189721 153.450151 
L 245.128805 154.524383 
L 245.363576 157.946701 
L 245.833118 153.234112 
L 246.067889 151.577065 
L 246.30266 155.565114 
L 247.711285 174.07692 
L 248.88514 158.474892 
L 249.354681 164.674831 
L 249.589452 176.628962 
L 250.058994 167.736056 
L 250.998078 154.271255 
L 251.232849 155.82713 
L 251.702391 156.300059 
L 252.406703 140.834155 
L 252.876245 147.503111 
L 253.111016 149.561577 
L 253.345787 147.993235 
L 253.815329 135.740857 
L 254.519642 137.751548 
L 254.754413 145.034075 
L 254.989183 132.362607 
L 255.223954 137.587154 
L 255.928267 129.105308 
L 256.397809 130.721718 
L 257.336893 154.005396 
L 258.275976 131.282191 
L 258.510747 135.089055 
L 258.745518 130.857163 
L 258.980289 135.346358 
L 259.21506 141.686585 
L 259.684602 130.977524 
L 259.919373 117.397881 
L 260.388915 131.06156 
L 260.623685 130.047368 
L 261.093227 124.643179 
L 261.327998 118.584876 
L 262.032311 125.108611 
L 262.736624 136.798369 
L 263.675707 133.781817 
L 264.145249 120.788744 
L 264.38002 127.706584 
L 265.553875 161.602792 
L 265.788646 160.292485 
L 266.023417 153.322544 
L 266.492958 162.886087 
L 266.727729 158.520237 
L 266.9625 161.94986 
L 267.197271 160.714503 
L 267.666813 144.326376 
L 268.371126 146.961712 
L 268.840668 144.203286 
L 269.075438 140.952007 
L 269.310209 144.808258 
L 270.718835 171.955828 
L 271.188377 178.542397 
L 271.423148 170.108809 
L 271.657919 172.362301 
L 271.892689 175.29829 
L 272.12746 175.121533 
L 272.597002 157.684511 
L 273.301315 167.18237 
L 274.005628 170.049417 
L 274.944711 180.058093 
L 275.179482 174.332904 
L 275.414253 174.41009 
L 276.353337 157.272266 
L 276.822879 168.424451 
L 277.05765 167.896937 
L 277.29242 156.789538 
L 277.996733 161.258644 
L 278.231504 165.155024 
L 278.701046 160.521576 
L 278.935817 159.831808 
L 280.109671 174.398292 
L 280.344442 168.049808 
L 280.579213 158.089886 
L 281.048755 174.138951 
L 281.283526 171.039176 
L 281.518297 178.932154 
L 281.753068 179.37632 
L 282.22261 171.797062 
L 282.692152 175.983486 
L 282.926922 178.367308 
L 283.161693 175.593388 
L 283.631235 178.191524 
L 283.866006 173.098901 
L 284.335548 180.940053 
L 284.570319 179.161488 
L 285.509403 171.240616 
L 287.152799 152.85429 
L 288.561424 172.202623 
L 288.796195 167.451885 
L 289.265737 175.466497 
L 289.500508 170.0057 
L 289.735279 169.732395 
L 293.256843 111.24109 
L 293.491614 112.037986 
L 294.195926 93.757534 
L 294.665468 105.7664 
L 294.900239 107.271077 
L 295.369781 118.713648 
L 296.074094 116.107995 
L 296.543636 103.411296 
L 297.247948 107.674344 
L 298.891345 124.789724 
L 299.360887 119.84724 
L 299.595658 108.668807 
L 300.065199 123.042446 
L 301.004283 147.660295 
L 301.239054 139.862724 
L 301.473825 136.314962 
L 301.708596 145.984167 
L 301.943367 144.238468 
L 302.88245 151.601652 
L 303.117221 148.968275 
L 304.291076 129.620818 
L 305.23016 141.557742 
L 305.46493 138.998508 
L 305.699701 137.265349 
L 306.638785 135.175635 
L 307.577869 173.515098 
L 307.81264 167.631043 
L 308.047411 178.604663 
L 308.282181 178.082793 
L 308.516952 179.001782 
L 308.751723 176.127971 
L 309.925578 135.637647 
L 310.160349 141.277108 
L 311.099432 165.453962 
L 311.334203 154.198441 
L 312.038516 146.727017 
L 312.273287 148.804096 
L 312.9776 180.606424 
L 313.681912 167.221672 
L 314.151454 152.917981 
L 314.855767 161.27085 
L 315.56008 182.371386 
L 316.029622 173.370828 
L 316.733934 154.596637 
L 317.203476 162.436716 
L 317.438247 161.258267 
L 317.673018 162.753724 
L 317.907789 161.539837 
L 319.081644 181.467687 
L 320.020727 178.346695 
L 321.429353 162.568643 
L 321.664124 168.401225 
L 322.368436 177.332252 
L 322.837978 174.514171 
L 323.30752 161.232766 
L 323.542291 175.002902 
L 325.185687 181.981284 
L 325.89 172.755239 
L 326.359542 178.048917 
L 326.594313 181.38298 
L 326.829084 178.575002 
L 328.237709 161.455489 
L 328.707251 159.98761 
L 329.411564 165.639898 
L 329.646335 160.656609 
L 329.881106 151.696053 
L 330.585418 156.014719 
L 330.820189 166.529602 
L 331.05496 155.256868 
L 331.289731 156.370412 
L 332.228815 141.798524 
L 331.759273 157.762757 
L 332.698357 147.52364 
L 332.933128 157.21534 
L 333.402669 150.716235 
L 334.106982 141.547299 
L 334.341753 146.906551 
L 335.280837 156.813266 
L 335.98515 170.43897 
L 336.689462 165.296667 
L 336.924233 156.388436 
L 337.393775 166.330912 
L 337.628546 178.69505 
L 338.332859 165.252853 
L 338.56763 165.291047 
L 339.037171 153.484472 
L 339.271942 164.93515 
L 340.445797 180.771063 
L 340.680568 175.650668 
L 343.028277 137.631479 
L 343.263048 137.995646 
L 343.967361 150.225928 
L 344.202132 145.958937 
L 344.671673 135.787751 
L 345.375986 140.448286 
L 345.845528 139.840846 
L 346.549841 150.387944 
L 347.019383 124.317464 
L 347.723695 132.798569 
L 349.601863 181.281235 
L 349.836634 181.051039 
L 351.245259 159.514587 
L 351.48003 160.201408 
L 351.714801 165.229718 
L 352.184343 157.122842 
L 352.419114 163.010337 
L 353.827739 151.371143 
L 354.06251 155.51507 
L 354.297281 142.268623 
L 354.766823 147.802903 
L 355.705906 181.52329 
L 355.940677 170.057919 
L 356.410219 170.780897 
L 356.64499 162.324726 
L 357.818845 179.656642 
L 359.697012 159.928776 
L 360.401325 162.156977 
L 361.105638 182.187643 
L 362.279492 176.053258 
L 363.218576 170.107043 
L 363.688118 156.65069 
L 364.157659 167.261357 
L 365.566285 177.094036 
L 366.74014 181.484803 
L 367.444452 163.364681 
L 367.913994 169.759658 
L 368.853078 161.943534 
L 369.087849 153.926025 
L 369.792161 157.067595 
L 370.261703 169.853815 
L 370.966016 168.503136 
L 371.200787 169.373238 
L 372.609412 137.0147 
L 373.078954 138.397205 
L 373.548496 146.863191 
L 374.48758 172.678045 
L 374.722351 171.755617 
L 375.426663 151.986073 
L 375.896205 154.239367 
L 376.365747 169.968175 
L 377.07006 164.499819 
L 377.304831 158.162138 
L 377.774373 171.572984 
L 378.948227 159.352853 
L 380.122082 172.978002 
L 380.826395 174.103879 
L 381.765478 162.441649 
L 382.23502 171.477942 
L 382.939333 170.759421 
L 383.174104 161.17662 
L 383.878416 167.84808 
L 384.582729 182.123472 
L 385.052271 172.781197 
L 385.287042 170.308349 
L 385.521813 180.731448 
L 385.991355 175.471399 
L 387.165209 144.72011 
L 388.339064 169.923895 
L 388.808606 160.629936 
L 389.278148 167.840933 
L 389.747689 166.717913 
L 389.98246 157.796062 
L 390.217231 168.643885 
L 390.686773 168.050609 
L 390.921544 175.256587 
L 391.156315 162.631149 
L 391.391086 153.379989 
L 391.860628 168.959296 
L 392.095399 166.374681 
L 392.330169 151.583093 
L 393.269253 155.329409 
L 394.443108 163.455258 
L 395.14742 148.137282 
L 395.382191 153.012345 
L 395.616962 159.456319 
L 396.321275 152.030481 
L 396.556046 150.232174 
L 397.7299 166.387387 
L 398.199442 171.045893 
L 398.903755 156.709039 
L 399.373297 161.705549 
L 399.608068 158.167703 
L 399.842839 166.211595 
L 400.07761 168.076615 
L 400.312381 179.426885 
L 400.781922 173.990875 
L 401.251464 156.97212 
L 401.721006 172.954995 
L 402.66009 181.33675 
L 402.894861 180.630033 
L 403.129632 179.696029 
L 404.538257 154.355498 
L 404.773028 158.752224 
L 405.007799 155.746227 
L 405.477341 159.392083 
L 405.712112 170.650806 
L 406.181653 148.008715 
L 406.416424 146.579599 
L 406.885966 165.696862 
L 407.355508 154.482862 
L 407.590279 152.259457 
L 407.82505 155.668917 
L 409.468446 180.907152 
L 410.642301 169.384788 
L 410.877072 171.102934 
L 411.346614 178.17286 
L 411.581385 168.636129 
L 411.816155 159.075946 
L 412.520468 165.597526 
L 412.755239 165.21215 
L 412.99001 162.761738 
L 413.694323 182.260949 
L 414.163865 179.670836 
L 414.633406 180.642114 
L 414.868177 179.228693 
L 416.276803 160.919461 
L 418.15497 180.116197 
L 418.859283 172.782458 
L 419.328825 173.883099 
L 419.563596 174.589288 
L 419.798367 182.349865 
L 420.267908 171.317045 
L 421.676534 157.631087 
L 423.554701 179.286272 
L 423.789472 172.604567 
L 425.90241 154.512014 
L 424.493785 173.587563 
L 426.371952 158.021544 
L 427.780578 177.979112 
L 428.25012 177.635053 
L 428.484891 167.89461 
L 429.189203 173.744527 
L 429.658745 174.574128 
L 430.128287 170.525501 
L 430.597829 161.45153 
L 430.8326 164.564583 
L 431.771683 179.982709 
L 432.006454 177.657338 
L 432.475996 178.428006 
L 433.180309 179.995601 
L 433.649851 170.452551 
L 433.884622 172.570263 
L 434.119393 169.551676 
L 434.823705 151.65671 
L 435.528018 152.32587 
L 435.762789 154.837656 
L 435.99756 147.624245 
L 436.232331 143.15479 
L 436.467102 147.257879 
L 437.875727 173.856348 
L 438.110498 172.355084 
L 438.345269 173.231997 
L 439.284353 180.082919 
L 439.519124 177.035622 
L 439.988665 174.022906 
L 440.223436 179.333683 
L 440.458207 181.445542 
L 440.692978 176.813735 
L 440.927749 177.851405 
L 441.632062 172.394893 
L 442.101604 177.223078 
L 442.336375 178.731891 
L 442.571145 166.265489 
L 443.040687 182.24376 
L 443.275458 178.75616 
L 443.510229 182.382225 
L 444.214542 156.951555 
L 444.684084 161.835703 
L 445.623167 175.396821 
L 445.857938 174.424197 
L 446.32748 175.379931 
L 446.562251 168.234931 
L 447.501335 181.68503 
L 447.736106 180.063668 
L 448.205647 177.956827 
L 448.440418 180.59683 
L 448.675189 180.9126 
L 449.614273 175.190562 
L 450.318586 182.024795 
L 450.553357 180.981664 
L 451.727211 158.164681 
L 451.961982 162.972595 
L 452.666295 174.554535 
L 452.901066 168.393987 
L 454.07492 155.503803 
L 454.309691 155.745696 
L 455.014004 178.898032 
L 455.483546 171.719643 
L 455.953088 153.035223 
L 456.42263 166.412925 
L 457.596484 172.062842 
L 457.831255 171.690608 
L 458.066026 162.529704 
L 458.770339 167.586184 
L 459.709422 167.135893 
L 460.413735 180.259794 
L 460.883277 158.270492 
L 461.58759 160.88877 
L 462.761444 176.904423 
L 464.17007 157.04126 
L 465.343924 179.80221 
L 466.048237 181.634813 
L 466.283008 176.531201 
L 466.75255 181.549934 
L 467.456863 180.343438 
L 468.161175 177.715838 
L 468.395946 179.12971 
L 469.33503 180.78798 
L 471.682739 164.801629 
L 470.039343 181.088513 
L 472.152281 166.311778 
L 473.326136 181.411355 
L 473.795677 181.388678 
L 474.969532 161.565213 
L 475.439074 181.249334 
L 476.143387 175.604872 
L 476.847699 170.058371 
L 476.612928 176.883493 
L 477.08247 173.897614 
L 478.021554 179.530458 
L 478.491096 182.038389 
L 479.195408 164.436316 
L 480.604034 181.332927 
L 480.838805 182.268237 
L 481.073576 180.375035 
L 481.308347 181.24166 
L 483.890827 147.510931 
L 484.82991 165.84095 
L 485.064681 156.899344 
L 485.768994 150.897738 
L 486.003765 153.220155 
L 486.473307 164.239923 
L 487.17762 157.310218 
L 487.647161 156.445292 
L 488.116703 159.487364 
L 488.586245 149.095982 
L 489.055787 157.681365 
L 490.464412 174.797295 
L 490.699183 170.423034 
L 490.933954 161.690594 
L 491.638267 172.583692 
L 492.34258 162.610841 
L 492.577351 164.538011 
L 493.281663 180.286965 
L 493.516434 178.606677 
L 494.92506 155.656783 
L 495.629373 150.728369 
L 496.098914 162.010474 
L 496.333685 154.83792 
L 496.803227 169.651008 
L 497.037998 160.046522 
L 498.446624 178.047867 
L 497.977082 159.617788 
L 498.681394 166.296923 
L 498.916165 166.802858 
L 499.385707 164.898658 
L 501.029104 181.927625 
L 503.142042 152.69694 
L 503.376813 162.332862 
L 503.611584 169.631039 
L 504.081126 162.11432 
L 504.315896 166.921807 
L 505.724522 148.518134 
L 505.959293 160.886841 
L 506.428835 143.416094 
L 506.663606 146.010441 
L 506.898377 138.91034 
L 507.602689 144.296321 
L 508.307002 132.795352 
L 508.541773 137.190407 
L 508.776544 126.776411 
L 509.246086 142.443415 
L 509.480857 147.745399 
L 509.950398 139.226697 
L 510.654711 126.882748 
L 511.359024 130.605741 
L 511.828566 121.567217 
L 512.063337 124.787028 
L 512.767649 135.926904 
L 513.237191 135.07657 
L 514.880588 168.0236 
L 515.115359 164.954335 
L 515.35013 155.441916 
L 516.054442 155.784404 
L 516.993526 180.60987 
L 517.463068 168.215432 
L 517.697839 168.442967 
L 517.93261 164.607534 
L 518.167381 171.474001 
L 518.402151 168.951301 
L 519.576006 180.042492 
L 519.810777 177.493532 
L 520.51509 181.667452 
L 520.280319 176.693645 
L 520.749861 178.950158 
L 521.688944 161.420013 
L 521.219402 180.120627 
L 521.923715 166.201457 
L 522.158486 171.955719 
L 522.393257 162.732745 
L 522.628028 157.818879 
L 522.862799 165.771378 
L 523.09757 159.348231 
L 523.332341 172.441476 
L 524.036653 158.332442 
L 524.271424 163.845498 
L 524.506195 157.797598 
L 524.975737 160.069485 
L 525.68005 148.618161 
L 525.914821 154.43393 
L 526.384363 159.591603 
L 526.619133 156.578281 
L 527.323446 147.301686 
L 528.027759 147.68781 
L 528.497301 146.933499 
L 528.966843 137.861913 
L 529.201614 141.811731 
L 531.549323 180.647327 
L 532.253635 181.045652 
L 532.723177 176.949336 
L 533.192719 178.322987 
L 533.662261 175.684221 
L 534.131803 181.217434 
L 534.836116 169.910058 
L 535.070886 175.488283 
L 535.305657 182.112872 
L 535.540428 174.292122 
L 536.00997 177.459419 
L 536.714283 161.449048 
L 537.418596 164.276581 
L 538.122908 156.778703 
L 538.122908 156.778703 
" clip-path="url(#p81b084edf1)" style="fill: none; stroke: #e41a1c; stroke-width: 2; stroke-linecap: square"/>
   </g>
   <g id="patch_3">
    <path d="M 45.103984 190.058633 
L 45.103984 22.318125 
" style="fill: none; stroke: #7f7f7f; stroke-width: 1.8; stroke-linejoin: miter; stroke-linecap: square"/>
   </g>
   <g id="patch_4">
    <path d="M 45.103984 190.058633 
L 561.6 190.058633 
" style="fill: none; stroke: #7f7f7f; stroke-width: 1.8; stroke-linejoin: miter; stroke-linecap: square"/>
   </g>
   <g id="text_16">
    <!-- Kalman Filter Estimation Error -->
    <g style="fill: #7f7f7f" transform="translate(200.338555 16.318125) scale(0.12 -0.12)">
     <defs>
      <path id="DejaVuSans-Bold-2e" d="M 588 4666 
L 1791 4666 
L 1791 2963 
L 3525 4666 
L 4922 4666 
L 2675 2456 
L 5153 0 
L 3647 0 
L 1791 1838 
L 1791 0 
L 588 0 
L 588 4666 
z
" transform="scale(0.015625)"/>
      <path id="DejaVuSans-Bold-44" d="M 2106 1575 
Q 1756 1575 1579 1456 
Q 1403 1338 1403 1106 
Q 1403 894 1545 773 
Q 1688 653 1941 653 
Q 2256 653 2472 879 
Q 2688 1106 2688 1447 
L 2688 1575 
L 2106 1575 
z
M 3816 1997 
L 3816 0 
L 2688 0 
L 2688 519 
Q 2463 200 2181 54 
Q 1900 -91 1497 -91 
Q 953 -91 614 226 
Q 275 544 275 1050 
Q 275 1666 698 1953 
Q 1122 2241 2028 2241 
L 2688 2241 
L 2688 2328 
Q 2688 2594 2478 2717 
Q 2269 2841 1825 2841 
Q 1466 2841 1156 2769 
Q 847 2697 581 2553 
L 581 3406 
Q 941 3494 1303 3539 
Q 1666 3584 2028 3584 
Q 2975 3584 3395 3211 
Q 3816 2838 3816 1997 
z
" transform="scale(0.015625)"/>
      <path id="DejaVuSans-Bold-4f" d="M 538 4863 
L 1656 4863 
L 1656 0 
L 538 0 
L 538 4863 
z
" transform="scale(0.015625)"/>
      <path id="DejaVuSans-Bold-50" d="M 3781 2919 
Q 3994 3244 4286 3414 
Q 4578 3584 4928 3584 
Q 5531 3584 5847 3212 
Q 6163 2841 6163 2131 
L 6163 0 
L 5038 0 
L 5038 1825 
Q 5041 1866 5042 1909 
Q 5044 1953 5044 2034 
Q 5044 2406 4934 2573 
Q 4825 2741 4581 2741 
Q 4263 2741 4089 2478 
Q 3916 2216 3909 1719 
L 3909 0 
L 2784 0 
L 2784 1825 
Q 2784 2406 2684 2573 
Q 2584 2741 2328 2741 
Q 2006 2741 1831 2477 
Q 1656 2213 1656 1722 
L 1656 0 
L 531 0 
L 531 3500 
L 1656 3500 
L 1656 2988 
Q 1863 3284 2130 3434 
Q 2397 3584 2719 3584 
Q 3081 3584 3359 3409 
Q 3638 3234 3781 2919 
z
" transform="scale(0.015625)"/>
      <path id="DejaVuSans-Bold-51" d="M 4056 2131 
L 4056 0 
L 2931 0 
L 2931 347 
L 2931 1631 
Q 2931 2084 2911 2256 
Q 2891 2428 2841 2509 
Q 2775 2619 2662 2680 
Q 2550 2741 2406 2741 
Q 2056 2741 1856 2470 
Q 1656 2200 1656 1722 
L 1656 0 
L 538 0 
L 538 3500 
L 1656 3500 
L 1656 2988 
Q 1909 3294 2193 3439 
Q 2478 3584 2822 3584 
Q 3428 3584 3742 3212 
Q 4056 2841 4056 2131 
z
" transform="scale(0.015625)"/>
      <path id="DejaVuSans-Bold-3" transform="scale(0.015625)"/>
      <path id="DejaVuSans-Bold-29" d="M 588 4666 
L 3834 4666 
L 3834 3756 
L 1791 3756 
L 1791 2888 
L 3713 2888 
L 3713 1978 
L 1791 1978 
L 1791 0 
L 588 0 
L 588 4666 
z
" transform="scale(0.015625)"/>
      <path id="DejaVuSans-Bold-4c" d="M 538 3500 
L 1656 3500 
L 1656 0 
L 538 0 
L 538 3500 
z
M 538 4863 
L 1656 4863 
L 1656 3950 
L 538 3950 
L 538 4863 
z
" transform="scale(0.015625)"/>
      <path id="DejaVuSans-Bold-57" d="M 1759 4494 
L 1759 3500 
L 2913 3500 
L 2913 2700 
L 1759 2700 
L 1759 1216 
Q 1759 972 1856 886 
Q 1953 800 2241 800 
L 2816 800 
L 2816 0 
L 1856 0 
Q 1194 0 917 276 
Q 641 553 641 1216 
L 641 2700 
L 84 2700 
L 84 3500 
L 641 3500 
L 641 4494 
L 1759 4494 
z
" transform="scale(0.015625)"/>
      <path id="DejaVuSans-Bold-48" d="M 4031 1759 
L 4031 1441 
L 1416 1441 
Q 1456 1047 1700 850 
Q 1944 653 2381 653 
Q 2734 653 3104 758 
Q 3475 863 3866 1075 
L 3866 213 
Q 3469 63 3072 -14 
Q 2675 -91 2278 -91 
Q 1328 -91 801 392 
Q 275 875 275 1747 
Q 275 2603 792 3093 
Q 1309 3584 2216 3584 
Q 3041 3584 3536 3087 
Q 4031 2591 4031 1759 
z
M 2881 2131 
Q 2881 2450 2695 2645 
Q 2509 2841 2209 2841 
Q 1884 2841 1681 2658 
Q 1478 2475 1428 2131 
L 2881 2131 
z
" transform="scale(0.015625)"/>
      <path id="DejaVuSans-Bold-55" d="M 3138 2547 
Q 2991 2616 2845 2648 
Q 2700 2681 2553 2681 
Q 2122 2681 1889 2404 
Q 1656 2128 1656 1613 
L 1656 0 
L 538 0 
L 538 3500 
L 1656 3500 
L 1656 2925 
Q 1872 3269 2151 3426 
Q 2431 3584 2822 3584 
Q 2878 3584 2943 3579 
Q 3009 3575 3134 3559 
L 3138 2547 
z
" transform="scale(0.015625)"/>
      <path id="DejaVuSans-Bold-28" d="M 588 4666 
L 3834 4666 
L 3834 3756 
L 1791 3756 
L 1791 2888 
L 3713 2888 
L 3713 1978 
L 1791 1978 
L 1791 909 
L 3903 909 
L 3903 0 
L 588 0 
L 588 4666 
z
" transform="scale(0.015625)"/>
      <path id="DejaVuSans-Bold-56" d="M 3272 3391 
L 3272 2541 
Q 2913 2691 2578 2766 
Q 2244 2841 1947 2841 
Q 1628 2841 1473 2761 
Q 1319 2681 1319 2516 
Q 1319 2381 1436 2309 
Q 1553 2238 1856 2203 
L 2053 2175 
Q 2913 2066 3209 1816 
Q 3506 1566 3506 1031 
Q 3506 472 3093 190 
Q 2681 -91 1863 -91 
Q 1516 -91 1145 -36 
Q 775 19 384 128 
L 384 978 
Q 719 816 1070 734 
Q 1422 653 1784 653 
Q 2113 653 2278 743 
Q 2444 834 2444 1013 
Q 2444 1163 2330 1236 
Q 2216 1309 1875 1350 
L 1678 1375 
Q 931 1469 631 1722 
Q 331 1975 331 2491 
Q 331 3047 712 3315 
Q 1094 3584 1881 3584 
Q 2191 3584 2531 3537 
Q 2872 3491 3272 3391 
z
" transform="scale(0.015625)"/>
      <path id="DejaVuSans-Bold-52" d="M 2203 2784 
Q 1831 2784 1636 2517 
Q 1441 2250 1441 1747 
Q 1441 1244 1636 976 
Q 1831 709 2203 709 
Q 2569 709 2762 976 
Q 2956 1244 2956 1747 
Q 2956 2250 2762 2517 
Q 2569 2784 2203 2784 
z
M 2203 3584 
Q 3106 3584 3614 3096 
Q 4122 2609 4122 1747 
Q 4122 884 3614 396 
Q 3106 -91 2203 -91 
Q 1297 -91 786 396 
Q 275 884 275 1747 
Q 275 2609 786 3096 
Q 1297 3584 2203 3584 
z
" transform="scale(0.015625)"/>
     </defs>
     <use xlink:href="#DejaVuSans-Bold-2e"/>
     <use xlink:href="#DejaVuSans-Bold-44" transform="translate(77.484375 0)"/>
     <use xlink:href="#DejaVuSans-Bold-4f" transform="translate(144.96875 0)"/>
     <use xlink:href="#DejaVuSans-Bold-50" transform="translate(179.25 0)"/>
     <use xlink:href="#DejaVuSans-Bold-44" transform="translate(283.453125 0)"/>
     <use xlink:href="#DejaVuSans-Bold-51" transform="translate(350.9375 0)"/>
     <use xlink:href="#DejaVuSans-Bold-3" transform="translate(422.125 0)"/>
     <use xlink:href="#DejaVuSans-Bold-29" transform="translate(456.9375 0)"/>
     <use xlink:href="#DejaVuSans-Bold-4c" transform="translate(525.25 0)"/>
     <use xlink:href="#DejaVuSans-Bold-4f" transform="translate(559.53125 0)"/>
     <use xlink:href="#DejaVuSans-Bold-57" transform="translate(593.8125 0)"/>
     <use xlink:href="#DejaVuSans-Bold-48" transform="translate(641.609375 0)"/>
     <use xlink:href="#DejaVuSans-Bold-55" transform="translate(709.4375 0)"/>
     <use xlink:href="#DejaVuSans-Bold-3" transform="translate(758.75 0)"/>
     <use xlink:href="#DejaVuSans-Bold-28" transform="translate(793.5625 0)"/>
     <use xlink:href="#DejaVuSans-Bold-56" transform="translate(861.875 0)"/>
     <use xlink:href="#DejaVuSans-Bold-57" transform="translate(921.390625 0)"/>
     <use xlink:href="#DejaVuSans-Bold-4c" transform="translate(969.1875 0)"/>
     <use xlink:href="#DejaVuSans-Bold-50" transform="translate(1003.46875 0)"/>
     <use xlink:href="#DejaVuSans-Bold-44" transform="translate(1107.671875 0)"/>
     <use xlink:href="#DejaVuSans-Bold-57" transform="translate(1175.15625 0)"/>
     <use xlink:href="#DejaVuSans-Bold-4c" transform="translate(1222.953125 0)"/>
     <use xlink:href="#DejaVuSans-Bold-52" transform="translate(1257.234375 0)"/>
     <use xlink:href="#DejaVuSans-Bold-51" transform="translate(1325.9375 0)"/>
     <use xlink:href="#DejaVuSans-Bold-3" transform="translate(1397.125 0)"/>
     <use xlink:href="#DejaVuSans-Bold-28" transform="translate(1431.9375 0)"/>
     <use xlink:href="#DejaVuSans-Bold-55" transform="translate(1500.25 0)"/>
     <use xlink:href="#DejaVuSans-Bold-55" transform="translate(1549.5625 0)"/>
     <use xlink:href="#DejaVuSans-Bold-52" transform="translate(1598.875 0)"/>
     <use xlink:href="#DejaVuSans-Bold-55" transform="translate(1667.578125 0)"/>
    </g>
   </g>
  </g>
  <g id="axes_2">
   <g id="patch_5">
    <path d="M 45.103984 385.599141 
L 561.6 385.599141 
L 561.6 217.858633 
L 45.103984 217.858633 
L 45.103984 385.599141 
z
" style="fill: none"/>
   </g>
   <g id="matplotlib.axis_3">
    <g id="xtick_10">
     <g id="line2d_16">
      <g>
       <use xlink:href="#mb73e3731cf" x="68.581076" y="385.599141" style="fill: #7f7f7f; stroke: #7f7f7f; stroke-width: 1.8"/>
      </g>
     </g>
     <g id="text_17">
      <!-- 0.0 -->
      <g style="fill: #7f7f7f" transform="translate(60.629513 400.196797) scale(0.1 -0.1)">
       <use xlink:href="#DejaVuSans-13"/>
       <use xlink:href="#DejaVuSans-11" transform="translate(63.625 0)"/>
       <use xlink:href="#DejaVuSans-13" transform="translate(95.40625 0)"/>
      </g>
     </g>
    </g>
    <g id="xtick_11">
     <g id="line2d_17">
      <g>
       <use xlink:href="#mb73e3731cf" x="127.273805" y="385.599141" style="fill: #7f7f7f; stroke: #7f7f7f; stroke-width: 1.8"/>
      </g>
     </g>
     <g id="text_18">
      <!-- 2.5 -->
      <g style="fill: #7f7f7f" transform="translate(119.322243 400.196797) scale(0.1 -0.1)">
       <use xlink:href="#DejaVuSans-15"/>
       <use xlink:href="#DejaVuSans-11" transform="translate(63.625 0)"/>
       <use xlink:href="#DejaVuSans-18" transform="translate(95.40625 0)"/>
      </g>
     </g>
    </g>
    <g id="xtick_12">
     <g id="line2d_18">
      <g>
       <use xlink:href="#mb73e3731cf" x="185.966534" y="385.599141" style="fill: #7f7f7f; stroke: #7f7f7f; stroke-width: 1.8"/>
      </g>
     </g>
     <g id="text_19">
      <!-- 5.0 -->
      <g style="fill: #7f7f7f" transform="translate(178.014972 400.196797) scale(0.1 -0.1)">
       <use xlink:href="#DejaVuSans-18"/>
       <use xlink:href="#DejaVuSans-11" transform="translate(63.625 0)"/>
       <use xlink:href="#DejaVuSans-13" transform="translate(95.40625 0)"/>
      </g>
     </g>
    </g>
    <g id="xtick_13">
     <g id="line2d_19">
      <g>
       <use xlink:href="#mb73e3731cf" x="244.659263" y="385.599141" style="fill: #7f7f7f; stroke: #7f7f7f; stroke-width: 1.8"/>
      </g>
     </g>
     <g id="text_20">
      <!-- 7.5 -->
      <g style="fill: #7f7f7f" transform="translate(236.707701 400.196797) scale(0.1 -0.1)">
       <use xlink:href="#DejaVuSans-1a"/>
       <use xlink:href="#DejaVuSans-11" transform="translate(63.625 0)"/>
       <use xlink:href="#DejaVuSans-18" transform="translate(95.40625 0)"/>
      </g>
     </g>
    </g>
    <g id="xtick_14">
     <g id="line2d_20">
      <g>
       <use xlink:href="#mb73e3731cf" x="303.351992" y="385.599141" style="fill: #7f7f7f; stroke: #7f7f7f; stroke-width: 1.8"/>
      </g>
     </g>
     <g id="text_21">
      <!-- 10.0 -->
      <g style="fill: #7f7f7f" transform="translate(292.21918 400.196797) scale(0.1 -0.1)">
       <use xlink:href="#DejaVuSans-14"/>
       <use xlink:href="#DejaVuSans-13" transform="translate(63.625 0)"/>
       <use xlink:href="#DejaVuSans-11" transform="translate(127.25 0)"/>
       <use xlink:href="#DejaVuSans-13" transform="translate(159.03125 0)"/>
      </g>
     </g>
    </g>
    <g id="xtick_15">
     <g id="line2d_21">
      <g>
       <use xlink:href="#mb73e3731cf" x="362.044721" y="385.599141" style="fill: #7f7f7f; stroke: #7f7f7f; stroke-width: 1.8"/>
      </g>
     </g>
     <g id="text_22">
      <!-- 12.5 -->
      <g style="fill: #7f7f7f" transform="translate(350.911909 400.196797) scale(0.1 -0.1)">
       <use xlink:href="#DejaVuSans-14"/>
       <use xlink:href="#DejaVuSans-15" transform="translate(63.625 0)"/>
       <use xlink:href="#DejaVuSans-11" transform="translate(127.25 0)"/>
       <use xlink:href="#DejaVuSans-18" transform="translate(159.03125 0)"/>
      </g>
     </g>
    </g>
    <g id="xtick_16">
     <g id="line2d_22">
      <g>
       <use xlink:href="#mb73e3731cf" x="420.73745" y="385.599141" style="fill: #7f7f7f; stroke: #7f7f7f; stroke-width: 1.8"/>
      </g>
     </g>
     <g id="text_23">
      <!-- 15.0 -->
      <g style="fill: #7f7f7f" transform="translate(409.604638 400.196797) scale(0.1 -0.1)">
       <use xlink:href="#DejaVuSans-14"/>
       <use xlink:href="#DejaVuSans-18" transform="translate(63.625 0)"/>
       <use xlink:href="#DejaVuSans-11" transform="translate(127.25 0)"/>
       <use xlink:href="#DejaVuSans-13" transform="translate(159.03125 0)"/>
      </g>
     </g>
    </g>
    <g id="xtick_17">
     <g id="line2d_23">
      <g>
       <use xlink:href="#mb73e3731cf" x="479.430179" y="385.599141" style="fill: #7f7f7f; stroke: #7f7f7f; stroke-width: 1.8"/>
      </g>
     </g>
     <g id="text_24">
      <!-- 17.5 -->
      <g style="fill: #7f7f7f" transform="translate(468.297367 400.196797) scale(0.1 -0.1)">
       <use xlink:href="#DejaVuSans-14"/>
       <use xlink:href="#DejaVuSans-1a" transform="translate(63.625 0)"/>
       <use xlink:href="#DejaVuSans-11" transform="translate(127.25 0)"/>
       <use xlink:href="#DejaVuSans-18" transform="translate(159.03125 0)"/>
      </g>
     </g>
    </g>
    <g id="xtick_18">
     <g id="line2d_24">
      <g>
       <use xlink:href="#mb73e3731cf" x="538.122908" y="385.599141" style="fill: #7f7f7f; stroke: #7f7f7f; stroke-width: 1.8"/>
      </g>
     </g>
     <g id="text_25">
      <!-- 20.0 -->
      <g style="fill: #7f7f7f" transform="translate(526.990096 400.196797) scale(0.1 -0.1)">
       <use xlink:href="#DejaVuSans-15"/>
       <use xlink:href="#DejaVuSans-13" transform="translate(63.625 0)"/>
       <use xlink:href="#DejaVuSans-11" transform="translate(127.25 0)"/>
       <use xlink:href="#DejaVuSans-13" transform="translate(159.03125 0)"/>
      </g>
     </g>
    </g>
    <g id="text_26">
     <!-- Time [s] -->
     <g style="fill: #7f7f7f" transform="translate(280.987617 414.957422) scale(0.11 -0.11)">
      <defs>
       <path id="DejaVuSans-37" d="M -19 4666 
L 3928 4666 
L 3928 4134 
L 2272 4134 
L 2272 0 
L 1638 0 
L 1638 4134 
L -19 4134 
L -19 4666 
z
" transform="scale(0.015625)"/>
       <path id="DejaVuSans-48" d="M 3597 1894 
L 3597 1613 
L 953 1613 
Q 991 1019 1311 708 
Q 1631 397 2203 397 
Q 2534 397 2845 478 
Q 3156 559 3463 722 
L 3463 178 
Q 3153 47 2828 -22 
Q 2503 -91 2169 -91 
Q 1331 -91 842 396 
Q 353 884 353 1716 
Q 353 2575 817 3079 
Q 1281 3584 2069 3584 
Q 2775 3584 3186 3129 
Q 3597 2675 3597 1894 
z
M 3022 2063 
Q 3016 2534 2758 2815 
Q 2500 3097 2075 3097 
Q 1594 3097 1305 2825 
Q 1016 2553 972 2059 
L 3022 2063 
z
" transform="scale(0.015625)"/>
      </defs>
      <use xlink:href="#DejaVuSans-37"/>
      <use xlink:href="#DejaVuSans-4c" transform="translate(58 0)"/>
      <use xlink:href="#DejaVuSans-50" transform="translate(85.78125 0)"/>
      <use xlink:href="#DejaVuSans-48" transform="translate(183.1875 0)"/>
      <use xlink:href="#DejaVuSans-3" transform="translate(244.71875 0)"/>
      <use xlink:href="#DejaVuSans-3e" transform="translate(276.5 0)"/>
      <use xlink:href="#DejaVuSans-56" transform="translate(315.515625 0)"/>
      <use xlink:href="#DejaVuSans-40" transform="translate(367.609375 0)"/>
     </g>
    </g>
   </g>
   <g id="matplotlib.axis_4">
    <g id="ytick_6">
     <g id="line2d_25">
      <g>
       <use xlink:href="#m4cd747c2da" x="45.103984" y="377.978879" style="fill: #7f7f7f; stroke: #7f7f7f; stroke-width: 1.8"/>
      </g>
     </g>
     <g id="text_27">
      <!-- 0.0 -->
      <g style="fill: #7f7f7f" transform="translate(22.200859 381.777708) scale(0.1 -0.1)">
       <use xlink:href="#DejaVuSans-13"/>
       <use xlink:href="#DejaVuSans-11" transform="translate(63.625 0)"/>
       <use xlink:href="#DejaVuSans-13" transform="translate(95.40625 0)"/>
      </g>
     </g>
    </g>
    <g id="ytick_7">
     <g id="line2d_26">
      <g>
       <use xlink:href="#m4cd747c2da" x="45.103984" y="340.533281" style="fill: #7f7f7f; stroke: #7f7f7f; stroke-width: 1.8"/>
      </g>
     </g>
     <g id="text_28">
      <!-- 0.5 -->
      <g style="fill: #7f7f7f" transform="translate(22.200859 344.332109) scale(0.1 -0.1)">
       <use xlink:href="#DejaVuSans-13"/>
       <use xlink:href="#DejaVuSans-11" transform="translate(63.625 0)"/>
       <use xlink:href="#DejaVuSans-18" transform="translate(95.40625 0)"/>
      </g>
     </g>
    </g>
    <g id="ytick_8">
     <g id="line2d_27">
      <g>
       <use xlink:href="#m4cd747c2da" x="45.103984" y="303.087682" style="fill: #7f7f7f; stroke: #7f7f7f; stroke-width: 1.8"/>
      </g>
     </g>
     <g id="text_29">
      <!-- 1.0 -->
      <g style="fill: #7f7f7f" transform="translate(22.200859 306.88651) scale(0.1 -0.1)">
       <use xlink:href="#DejaVuSans-14"/>
       <use xlink:href="#DejaVuSans-11" transform="translate(63.625 0)"/>
       <use xlink:href="#DejaVuSans-13" transform="translate(95.40625 0)"/>
      </g>
     </g>
    </g>
    <g id="ytick_9">
     <g id="line2d_28">
      <g>
       <use xlink:href="#m4cd747c2da" x="45.103984" y="265.642083" style="fill: #7f7f7f; stroke: #7f7f7f; stroke-width: 1.8"/>
      </g>
     </g>
     <g id="text_30">
      <!-- 1.5 -->
      <g style="fill: #7f7f7f" transform="translate(22.200859 269.440911) scale(0.1 -0.1)">
       <use xlink:href="#DejaVuSans-14"/>
       <use xlink:href="#DejaVuSans-11" transform="translate(63.625 0)"/>
       <use xlink:href="#DejaVuSans-18" transform="translate(95.40625 0)"/>
      </g>
     </g>
    </g>
    <g id="ytick_10">
     <g id="line2d_29">
      <g>
       <use xlink:href="#m4cd747c2da" x="45.103984" y="228.196484" style="fill: #7f7f7f; stroke: #7f7f7f; stroke-width: 1.8"/>
      </g>
     </g>
     <g id="text_31">
      <!-- 2.0 -->
      <g style="fill: #7f7f7f" transform="translate(22.200859 231.995312) scale(0.1 -0.1)">
       <use xlink:href="#DejaVuSans-15"/>
       <use xlink:href="#DejaVuSans-11" transform="translate(63.625 0)"/>
       <use xlink:href="#DejaVuSans-13" transform="translate(95.40625 0)"/>
      </g>
     </g>
    </g>
    <g id="text_32">
     <!-- Velocity Error [m/s] -->
     <g style="fill: #7f7f7f" transform="translate(15.558281 354.574434) rotate(-90) scale(0.11 -0.11)">
      <defs>
       <path id="DejaVuSans-39" d="M 1831 0 
L 50 4666 
L 709 4666 
L 2188 738 
L 3669 4666 
L 4325 4666 
L 2547 0 
L 1831 0 
z
" transform="scale(0.015625)"/>
       <path id="DejaVuSans-4f" d="M 603 4863 
L 1178 4863 
L 1178 0 
L 603 0 
L 603 4863 
z
" transform="scale(0.015625)"/>
       <path id="DejaVuSans-46" d="M 3122 3366 
L 3122 2828 
Q 2878 2963 2633 3030 
Q 2388 3097 2138 3097 
Q 1578 3097 1268 2742 
Q 959 2388 959 1747 
Q 959 1106 1268 751 
Q 1578 397 2138 397 
Q 2388 397 2633 464 
Q 2878 531 3122 666 
L 3122 134 
Q 2881 22 2623 -34 
Q 2366 -91 2075 -91 
Q 1284 -91 818 406 
Q 353 903 353 1747 
Q 353 2603 823 3093 
Q 1294 3584 2113 3584 
Q 2378 3584 2631 3529 
Q 2884 3475 3122 3366 
z
" transform="scale(0.015625)"/>
       <path id="DejaVuSans-5c" d="M 2059 -325 
Q 1816 -950 1584 -1140 
Q 1353 -1331 966 -1331 
L 506 -1331 
L 506 -850 
L 844 -850 
Q 1081 -850 1212 -737 
Q 1344 -625 1503 -206 
L 1606 56 
L 191 3500 
L 800 3500 
L 1894 763 
L 2988 3500 
L 3597 3500 
L 2059 -325 
z
" transform="scale(0.015625)"/>
       <path id="DejaVuSans-12" d="M 1625 4666 
L 2156 4666 
L 531 -594 
L 0 -594 
L 1625 4666 
z
" transform="scale(0.015625)"/>
      </defs>
      <use xlink:href="#DejaVuSans-39"/>
      <use xlink:href="#DejaVuSans-48" transform="translate(60.640625 0)"/>
      <use xlink:href="#DejaVuSans-4f" transform="translate(122.171875 0)"/>
      <use xlink:href="#DejaVuSans-52" transform="translate(149.953125 0)"/>
      <use xlink:href="#DejaVuSans-46" transform="translate(211.140625 0)"/>
      <use xlink:href="#DejaVuSans-4c" transform="translate(266.125 0)"/>
      <use xlink:href="#DejaVuSans-57" transform="translate(293.90625 0)"/>
      <use xlink:href="#DejaVuSans-5c" transform="translate(333.109375 0)"/>
      <use xlink:href="#DejaVuSans-3" transform="translate(392.296875 0)"/>
      <use xlink:href="#DejaVuSans-28" transform="translate(424.078125 0)"/>
      <use xlink:href="#DejaVuSans-55" transform="translate(487.265625 0)"/>
      <use xlink:href="#DejaVuSans-55" transform="translate(526.625 0)"/>
      <use xlink:href="#DejaVuSans-52" transform="translate(565.53125 0)"/>
      <use xlink:href="#DejaVuSans-55" transform="translate(626.71875 0)"/>
      <use xlink:href="#DejaVuSans-3" transform="translate(667.828125 0)"/>
      <use xlink:href="#DejaVuSans-3e" transform="translate(699.609375 0)"/>
      <use xlink:href="#DejaVuSans-50" transform="translate(738.625 0)"/>
      <use xlink:href="#DejaVuSans-12" transform="translate(836.03125 0)"/>
      <use xlink:href="#DejaVuSans-56" transform="translate(869.71875 0)"/>
      <use xlink:href="#DejaVuSans-40" transform="translate(921.8125 0)"/>
     </g>
    </g>
   </g>
   <g id="line2d_30">
    <path d="M 68.581076 228.196484 
L 69.050618 227.563661 
L 69.754931 225.483201 
L 71.398327 246.781352 
L 71.633098 233.188206 
L 72.10264 256.058654 
L 72.572182 255.59441 
L 73.276494 285.075087 
L 74.68512 311.762965 
L 75.154662 298.358501 
L 75.389433 314.815263 
L 76.093745 321.839426 
L 76.798058 355.884569 
L 77.2676 351.734692 
L 77.737142 329.575408 
L 78.206684 353.757389 
L 79.380538 366.420982 
L 79.615309 347.900336 
L 80.319622 355.984818 
L 81.493476 372.500397 
L 81.963018 363.070311 
L 82.197789 375.962003 
L 82.667331 374.820861 
L 83.371644 366.840451 
L 83.606415 375.253151 
L 84.075956 377.473947 
L 84.310727 376.368037 
L 85.01504 361.10039 
L 85.249811 370.544479 
L 85.954124 372.468265 
L 85.719353 368.194975 
L 86.188895 370.641749 
L 86.658437 372.236137 
L 87.127978 364.790666 
L 87.832291 357.468527 
L 88.301833 358.281624 
L 88.536604 357.53523 
L 88.771375 361.623373 
L 89.240917 356.081565 
L 89.475688 356.722702 
L 91.588626 377.815504 
L 91.823397 377.585822 
L 92.997251 371.964643 
L 93.466793 370.883847 
L 93.936335 372.303416 
L 94.640648 377.674873 
L 94.405877 372.099019 
L 95.11019 375.777057 
L 95.814502 367.618654 
L 96.049273 369.813173 
L 96.518815 377.710717 
L 97.223128 373.343576 
L 97.927441 377.579401 
L 98.162211 376.835977 
L 98.866524 371.841231 
L 99.101295 373.214597 
L 99.336066 375.501547 
L 99.805608 373.421759 
L 100.27515 373.520853 
L 101.683775 362.263443 
L 101.918546 356.342402 
L 102.388088 362.301487 
L 102.622859 358.075257 
L 104.970568 365.497968 
L 105.909652 360.427037 
L 106.613964 369.331332 
L 107.083506 369.137648 
L 107.318277 370.36576 
L 107.553048 368.428207 
L 108.961674 360.923884 
L 109.196444 361.338462 
L 109.431215 362.977931 
L 109.665986 357.905128 
L 110.135528 362.667172 
L 110.60507 353.693379 
L 111.309383 357.83428 
L 111.544154 359.636532 
L 111.778925 357.745219 
L 112.013695 353.306184 
L 112.483237 360.410403 
L 112.718008 360.488849 
L 113.422321 357.176947 
L 113.657092 362.597458 
L 114.126634 357.022193 
L 114.361405 359.95739 
L 114.830946 359.15931 
L 115.300488 363.331771 
L 117.648197 377.291143 
L 117.882968 377.005929 
L 118.117739 377.486911 
L 118.587281 376.229139 
L 119.291594 374.016209 
L 119.526365 368.955199 
L 120.230678 374.189836 
L 120.700219 373.786312 
L 121.639303 377.768994 
L 122.813158 374.571746 
L 123.752241 365.638749 
L 123.987012 367.831738 
L 124.221783 367.446513 
L 124.456554 372.497425 
L 125.160867 371.066401 
L 125.395638 364.794778 
L 126.09995 369.897494 
L 127.039034 377.353856 
L 127.743347 376.146546 
L 127.978118 375.263751 
L 128.212889 377.351485 
L 128.44766 376.768324 
L 129.856285 377.332652 
L 130.325827 375.43812 
L 130.795369 375.891527 
L 131.03014 377.017942 
L 131.499682 376.579284 
L 132.203994 374.193015 
L 132.438765 374.258955 
L 132.673536 376.930661 
L 133.377849 374.660868 
L 134.786474 369.372709 
L 135.490787 371.958402 
L 135.256016 368.139602 
L 135.725558 370.701461 
L 135.960329 366.479736 
L 136.899413 366.86026 
L 137.838496 360.348877 
L 138.073267 363.10398 
L 138.542809 362.126766 
L 139.247122 364.389474 
L 139.481893 362.898319 
L 139.716664 364.078037 
L 140.655747 368.166969 
L 140.890518 367.968658 
L 141.36006 363.745988 
L 141.829602 364.465827 
L 142.533915 366.77724 
L 143.003456 365.518171 
L 143.238227 364.406989 
L 143.472998 364.831123 
L 143.94254 370.193384 
L 144.412082 364.375091 
L 144.646853 369.452892 
L 145.351166 367.727609 
L 145.585937 369.508017 
L 146.994562 375.785896 
L 147.464104 377.320331 
L 147.933646 376.145585 
L 149.1075 369.236564 
L 149.577042 367.217493 
L 149.811813 370.468894 
L 150.046584 368.205276 
L 150.281355 371.770129 
L 150.516126 371.383659 
L 151.68998 377.80182 
L 152.159522 377.914898 
L 152.863835 374.504535 
L 153.802919 377.31571 
L 154.037689 375.463368 
L 154.742002 376.086479 
L 155.211544 375.528753 
L 155.681086 376.89189 
L 156.85494 369.059266 
L 157.559253 372.812455 
L 157.794024 371.657868 
L 158.263566 361.374752 
L 158.967879 365.109683 
L 159.20265 364.084398 
L 159.437421 365.584208 
L 159.672191 365.325938 
L 160.611275 375.714158 
L 160.846046 373.295794 
L 162.489442 366.517605 
L 162.724213 366.892535 
L 163.193755 361.259388 
L 163.428526 362.143512 
L 164.602381 371.654555 
L 165.071923 365.391853 
L 165.541464 369.511359 
L 165.776235 370.924249 
L 166.011006 369.698315 
L 166.95009 349.618025 
L 168.123944 354.666052 
L 170.706425 371.521385 
L 171.880279 365.816545 
L 172.584592 371.996631 
L 173.054134 369.889826 
L 173.523676 362.957152 
L 173.993217 370.245646 
L 174.227988 365.130863 
L 174.69753 370.834974 
L 175.401843 369.805911 
L 175.636614 371.74834 
L 176.106156 368.473916 
L 176.575697 363.834722 
L 177.28001 353.269689 
L 177.749552 358.528567 
L 178.219094 356.72641 
L 178.453865 358.724582 
L 180.097261 364.775144 
L 181.036345 355.665697 
L 181.505887 356.093085 
L 181.975429 358.381053 
L 182.210199 354.131458 
L 185.731763 374.695005 
L 186.436076 377.661453 
L 186.201305 372.230055 
L 186.670847 376.980481 
L 187.37516 377.869592 
L 188.314243 372.311688 
L 188.549014 372.905264 
L 189.722869 377.824494 
L 191.131494 367.088048 
L 191.366265 366.313312 
L 191.835807 366.837448 
L 192.070578 369.371327 
L 192.774891 366.815319 
L 193.244432 365.591825 
L 193.713974 373.017763 
L 194.418287 370.748996 
L 194.653058 370.806903 
L 194.887829 374.200446 
L 195.357371 367.90981 
L 195.826913 374.096338 
L 196.061683 375.383982 
L 196.296454 373.396619 
L 196.531225 374.953926 
L 198.174622 362.21801 
L 198.878934 367.368557 
L 199.348476 368.705514 
L 199.583247 368.092186 
L 199.818018 364.811513 
L 200.522331 366.16299 
L 200.757102 370.976729 
L 201.461415 368.242589 
L 202.400498 359.810719 
L 203.339582 363.661695 
L 204.043895 367.836799 
L 204.278666 367.154312 
L 205.922062 357.763057 
L 208.504542 364.554003 
L 209.208855 369.92475 
L 209.678397 366.939136 
L 209.913168 367.06102 
L 210.852251 355.052187 
L 211.556564 359.503473 
L 211.791335 361.349207 
L 212.026106 358.884423 
L 212.965189 356.239247 
L 213.904273 359.599186 
L 213.434731 355.484029 
L 214.373815 358.332212 
L 215.078128 349.644072 
L 215.312899 352.7618 
L 216.251982 364.821383 
L 216.486753 359.973806 
L 216.721524 360.032763 
L 216.956295 361.545841 
L 217.425837 361.139108 
L 217.660608 358.726216 
L 217.895379 362.424816 
L 218.13015 360.132046 
L 219.773546 377.866833 
L 220.243088 371.150157 
L 220.947401 373.0039 
L 221.886484 368.217497 
L 222.121255 372.175763 
L 222.825568 374.0546 
L 223.29511 369.923623 
L 223.764652 372.492114 
L 223.999423 375.672883 
L 224.703735 372.213249 
L 225.642819 374.802333 
L 225.87759 373.873707 
L 227.520986 360.439768 
L 231.04255 376.542478 
L 231.277321 375.428346 
L 231.981634 375.703563 
L 232.216405 368.96663 
L 232.685946 361.01508 
L 233.155488 368.872471 
L 233.390259 367.226749 
L 233.62503 369.598755 
L 233.859801 368.554613 
L 234.329343 372.140524 
L 234.564114 368.028093 
L 234.798885 371.468129 
L 235.503197 369.974742 
L 235.972739 376.742872 
L 236.442281 369.636615 
L 237.146594 366.262089 
L 237.381365 371.759962 
L 237.850907 365.194261 
L 238.085677 366.220908 
L 238.320448 366.083066 
L 239.024761 374.697344 
L 239.729074 373.848824 
L 239.963845 373.285422 
L 241.37247 377.585693 
L 241.842012 377.603945 
L 242.546325 373.772221 
L 242.781096 374.79335 
L 243.015867 375.94587 
L 243.250638 373.071015 
L 244.189721 366.139856 
L 244.894034 367.990724 
L 245.363576 368.67003 
L 246.067889 366.75029 
L 247.711285 376.140235 
L 247.946056 375.036864 
L 248.88514 370.548676 
L 249.589452 377.691411 
L 250.058994 374.355219 
L 250.998078 369.681748 
L 251.232849 370.4064 
L 251.702391 370.829066 
L 252.406703 365.429218 
L 252.876245 368.35028 
L 253.111016 369.287121 
L 253.345787 368.833517 
L 253.815329 364.552755 
L 254.284871 367.645263 
L 254.989183 364.152256 
L 254.754413 368.808245 
L 255.458725 365.058749 
L 255.928267 363.753041 
L 256.397809 364.805686 
L 257.336893 374.126876 
L 257.806434 366.033413 
L 258.510747 367.712719 
L 258.745518 366.274689 
L 258.980289 368.166923 
L 259.21506 370.730328 
L 259.684602 366.939085 
L 259.919373 361.969069 
L 260.388915 367.665233 
L 260.623685 367.448083 
L 261.093227 365.745232 
L 261.327998 363.646589 
L 261.79754 366.042347 
L 262.736624 371.669756 
L 263.675707 371.020287 
L 264.145249 366.387231 
L 264.38002 369.198549 
L 265.319104 377.864756 
L 265.553875 373.654292 
L 266.023417 376.925247 
L 266.727729 375.071574 
L 266.9625 373.818299 
L 267.197271 374.354268 
L 268.136355 377.879364 
L 270.014522 370.326423 
L 270.249293 372.420377 
L 270.718835 370.354791 
L 271.188377 368.14022 
L 271.423148 371.497833 
L 271.657919 370.748544 
L 271.892689 369.752623 
L 272.12746 369.953181 
L 272.597002 376.766466 
L 273.301315 373.273345 
L 274.005628 372.419069 
L 274.944711 369.026555 
L 275.179482 371.342792 
L 275.414253 371.421245 
L 276.353337 377.733634 
L 276.822879 374.024296 
L 277.05765 374.288516 
L 277.29242 377.397559 
L 277.996733 376.906819 
L 278.231504 375.446766 
L 278.701046 377.284597 
L 278.935817 377.557418 
L 280.109671 372.149129 
L 280.344442 374.651023 
L 280.579213 377.476045 
L 281.048755 372.407628 
L 281.283526 373.673458 
L 282.22261 365.860995 
L 282.457381 367.380121 
L 283.631235 369.286691 
L 283.866006 367.496733 
L 284.335548 370.780537 
L 284.570319 370.222977 
L 285.978944 377.726089 
L 287.152799 373.042298 
L 288.326654 377.844933 
L 289.265737 374.319775 
L 289.97005 377.309133 
L 290.439592 376.381224 
L 292.55253 360.985506 
L 292.787301 362.535408 
L 293.256843 359.602812 
L 293.491614 360.203277 
L 294.195926 354.187156 
L 294.430697 354.743893 
L 295.369781 365.216716 
L 295.839323 364.456455 
L 296.074094 364.898366 
L 296.308865 363.347944 
L 296.543636 360.533777 
L 297.013177 364.70772 
L 297.247948 362.897726 
L 298.891345 370.77223 
L 299.360887 369.143219 
L 299.595658 365.047932 
L 300.065199 370.846174 
L 301.239054 377.406584 
L 302.178138 375.120005 
L 302.412909 376.842822 
L 302.88245 374.212557 
L 303.117221 375.272237 
L 303.586763 377.235339 
L 304.056305 375.068992 
L 304.291076 373.441587 
L 304.525847 375.725614 
L 304.995389 374.674 
L 305.23016 377.759768 
L 305.934472 376.085193 
L 307.343098 367.86502 
L 308.047411 364.386235 
L 307.81264 368.391661 
L 308.516952 364.670149 
L 309.221265 370.95033 
L 309.690807 377.943578 
L 310.160349 376.363932 
L 311.099432 370.62493 
L 312.038516 377.957052 
L 312.273287 377.169805 
L 314.151454 354.907974 
L 314.620996 358.325005 
L 315.325309 362.531688 
L 315.56008 367.912186 
L 316.029622 364.84303 
L 316.733934 358.542775 
L 316.968705 362.378039 
L 317.438247 361.895531 
L 317.907789 362.511007 
L 320.255498 374.877686 
L 321.429353 365.1181 
L 322.368436 371.354643 
L 322.837978 370.54777 
L 323.30752 365.773904 
L 323.542291 371.193477 
L 325.420458 375.93155 
L 325.89 371.064838 
L 326.359542 376.591252 
L 327.063855 370.834501 
L 327.298626 372.047297 
L 327.533397 377.081488 
L 328.237709 372.747031 
L 328.707251 372.363739 
L 329.411564 374.741193 
L 329.646335 372.904153 
L 329.881106 369.588804 
L 330.585418 371.574915 
L 330.820189 375.665974 
L 331.05496 371.429047 
L 331.289731 371.957609 
L 332.228815 366.884734 
L 331.759273 372.708149 
L 332.463586 367.878815 
L 332.933128 373.21389 
L 333.402669 370.915773 
L 334.106982 367.849937 
L 334.341753 370.046514 
L 335.515608 375.532902 
L 335.750379 377.92429 
L 336.689462 377.500214 
L 337.393775 377.945646 
L 337.628546 373.257868 
L 337.863317 375.130372 
L 338.098088 368.964932 
L 339.037171 361.778304 
L 339.271942 366.383229 
L 340.445797 373.12215 
L 340.680568 371.259401 
L 340.915339 369.394212 
L 341.619652 369.83989 
L 341.854422 370.043743 
L 343.028277 358.494989 
L 343.497819 361.531746 
L 343.967361 364.42204 
L 344.436903 361.362318 
L 344.671673 359.679825 
L 344.906444 362.114194 
L 345.141215 360.699842 
L 346.549841 367.14185 
L 347.019383 357.700608 
L 347.723695 361.780699 
L 348.89755 377.879409 
L 349.601863 374.935118 
L 350.071405 371.766946 
L 350.306175 375.514374 
L 350.540946 377.92264 
L 351.010488 375.490376 
L 352.184343 371.951691 
L 352.419114 374.281989 
L 353.123426 373.967324 
L 354.297281 367.125843 
L 354.532052 367.994456 
L 355.236365 377.412456 
L 355.705906 372.821765 
L 356.64499 366.088598 
L 357.818845 375.424283 
L 358.992699 368.234078 
L 359.22747 371.18799 
L 359.697012 366.796832 
L 359.931783 369.308426 
L 360.401325 368.120039 
L 360.636096 369.423302 
L 361.575179 376.888157 
L 362.044721 376.602512 
L 362.279492 377.186136 
L 362.514263 376.767873 
L 363.688118 370.060086 
L 362.983805 377.064438 
L 363.922889 372.795593 
L 365.566285 377.688661 
L 365.801056 374.153102 
L 366.505369 376.443323 
L 366.74014 376.144451 
L 367.444452 368.798548 
L 367.913994 371.446651 
L 368.853078 368.957163 
L 369.087849 366.063476 
L 369.792161 367.812044 
L 370.261703 372.933216 
L 370.966016 372.722186 
L 371.200787 373.137448 
L 372.609412 361.765745 
L 372.844183 363.008996 
L 373.078954 362.796156 
L 374.48758 376.656004 
L 375.191893 371.826517 
L 375.426663 369.028472 
L 375.661434 373.96347 
L 375.896205 370.093362 
L 376.365747 376.262544 
L 377.07006 374.358968 
L 377.304831 372.014564 
L 377.774373 377.236479 
L 378.948227 372.766564 
L 380.122082 377.831804 
L 381.765478 374.237902 
L 382.939333 377.577039 
L 383.174104 373.94989 
L 383.878416 376.613841 
L 384.347958 377.916408 
L 385.521813 373.260995 
L 385.756584 372.409189 
L 385.991355 376.71375 
L 386.695667 371.679635 
L 387.165209 367.979554 
L 387.39998 373.405014 
L 388.339064 377.961676 
L 389.747689 376.880869 
L 389.98246 373.515644 
L 390.217231 377.701446 
L 390.686773 377.491468 
L 391.391086 371.941639 
L 391.625857 374.903892 
L 391.860628 377.960736 
L 392.330169 371.42352 
L 394.443108 376.569706 
L 395.14742 370.962361 
L 395.382191 372.924817 
L 395.616962 375.450328 
L 396.321275 372.818823 
L 396.556046 372.22069 
L 397.260359 377.938646 
L 397.7299 377.442609 
L 398.903755 374.838974 
L 399.138526 375.815358 
L 399.842839 377.370347 
L 399.608068 375.496986 
L 400.07761 376.673034 
L 401.251464 362.27751 
L 402.66009 372.478668 
L 403.129632 372.037995 
L 403.364402 376.802194 
L 404.068715 375.456915 
L 404.538257 372.308191 
L 405.477341 374.524606 
L 405.712112 377.107921 
L 405.946883 375.724622 
L 406.416424 369.869673 
L 406.651195 374.52124 
L 406.885966 377.306448 
L 407.355508 373.110135 
L 407.590279 372.346082 
L 407.82505 373.73034 
L 408.764134 377.326112 
L 409.468446 372.630867 
L 409.703217 373.802437 
L 410.642301 377.31645 
L 410.877072 376.675705 
L 411.346614 374.07926 
L 411.581385 377.758763 
L 411.816155 374.570327 
L 412.520468 377.15732 
L 412.99001 376.110855 
L 414.163865 371.6003 
L 415.57249 376.96275 
L 415.807261 377.037496 
L 416.042032 376.103053 
L 416.276803 374.881038 
L 416.511574 376.295791 
L 416.981116 375.560006 
L 417.920199 376.946035 
L 418.859283 369.427376 
L 419.328825 370.103939 
L 419.563596 370.499548 
L 420.267908 377.928246 
L 420.73745 376.099085 
L 421.676534 373.062037 
L 422.146076 374.551116 
L 423.085159 377.080539 
L 423.554701 372.178913 
L 423.789472 377.193878 
L 424.024243 377.962767 
L 424.493785 376.832327 
L 424.728556 377.05806 
L 425.90241 372.095886 
L 426.371952 373.576277 
L 427.076265 377.711928 
L 427.545807 377.657442 
L 427.780578 374.740225 
L 428.484891 377.242661 
L 429.423974 376.848044 
L 429.658745 376.246 
L 429.893516 376.82171 
L 430.128287 377.828099 
L 430.363058 375.32045 
L 430.597829 374.729636 
L 430.8326 375.962808 
L 431.067371 375.504576 
L 431.302142 375.943332 
L 431.536912 374.455579 
L 432.710767 369.54821 
L 433.884622 377.737717 
L 434.119393 377.071519 
L 434.823705 370.399592 
L 435.528018 370.988436 
L 435.762789 372.054346 
L 435.99756 369.415287 
L 436.232331 367.859538 
L 436.467102 369.579639 
L 437.640956 377.785303 
L 438.58004 370.370832 
L 439.049582 370.787576 
L 439.284353 374.010146 
L 439.988665 370.229807 
L 440.692978 375.831619 
L 441.16252 371.809783 
L 441.397291 372.249253 
L 441.632062 370.218839 
L 442.101604 372.293538 
L 442.336375 372.957948 
L 442.571145 368.312356 
L 443.040687 374.647909 
L 443.275458 376.168753 
L 443.979771 374.263795 
L 444.214542 371.543442 
L 444.684084 373.581893 
L 446.092709 377.827755 
L 447.266564 371.165587 
L 447.736106 375.626978 
L 448.205647 376.495439 
L 449.614273 372.388376 
L 450.553357 375.957592 
L 451.727211 366.699021 
L 451.961982 368.705221 
L 452.666295 373.434979 
L 452.901066 371.172741 
L 454.07492 366.891308 
L 453.840149 371.399714 
L 454.309691 367.163011 
L 455.014004 376.975133 
L 455.483546 374.289944 
L 455.953088 367.386986 
L 456.42263 372.771039 
L 457.596484 375.239218 
L 457.831255 375.142544 
L 458.066026 371.714892 
L 458.770339 373.847431 
L 459.944193 376.754326 
L 460.883277 367.23035 
L 461.58759 368.711613 
L 462.761444 375.264294 
L 463.700528 375.366648 
L 464.17007 368.126926 
L 465.343924 377.141869 
L 465.578695 375.56888 
L 466.048237 377.528466 
L 466.283008 375.880628 
L 467.456863 377.364583 
L 468.865488 376.5762 
L 470.039343 377.63278 
L 470.743655 374.657802 
L 471.682739 371.460204 
L 472.152281 372.21707 
L 473.091365 377.75084 
L 473.326136 377.004984 
L 473.795677 377.841272 
L 474.969532 370.964285 
L 475.439074 377.36795 
L 476.143387 374.447802 
L 476.847699 372.53539 
L 476.612928 375.076269 
L 477.08247 374.079542 
L 478.491096 377.533991 
L 479.899721 371.101107 
L 480.838805 377.340084 
L 481.073576 376.632576 
L 481.308347 377.887331 
L 481.543118 376.409619 
L 483.186514 366.748897 
L 483.890827 365.264838 
L 484.82991 372.773194 
L 485.768994 367.659025 
L 486.003765 368.707174 
L 486.473307 373.158129 
L 487.17762 370.818653 
L 488.116703 372.099426 
L 488.586245 368.408673 
L 489.055787 371.921227 
L 490.229641 377.755248 
L 490.699183 377.057425 
L 490.933954 373.761157 
L 491.403496 376.972597 
L 491.638267 377.948915 
L 491.873038 377.249726 
L 492.34258 374.283617 
L 492.812122 377.484947 
L 493.516434 372.685244 
L 493.751205 376.96305 
L 493.985976 376.731339 
L 494.220747 377.21564 
L 495.629373 370.178906 
L 496.803227 377.756279 
L 497.272769 375.041754 
L 497.977082 374.170702 
L 499.150936 377.880016 
L 500.559562 371.879227 
L 501.968187 377.748829 
L 503.142042 371.139327 
L 503.376813 374.904166 
L 503.611584 377.721449 
L 504.315896 376.775165 
L 505.724522 370.148473 
L 505.959293 374.965632 
L 506.428835 368.494874 
L 506.663606 369.632567 
L 506.898377 367.075785 
L 507.602689 369.607593 
L 508.307002 365.670133 
L 508.541773 367.536484 
L 508.776544 363.757142 
L 509.246086 370.10139 
L 509.480857 372.239705 
L 509.950398 369.224547 
L 510.654711 365.009925 
L 510.889482 365.919558 
L 511.124253 368.122695 
L 511.593795 365.725186 
L 511.828566 363.937937 
L 512.063337 365.386769 
L 513.471962 372.42659 
L 513.706733 370.413258 
L 514.176275 372.725819 
L 515.35013 377.775341 
L 517.463068 362.736924 
L 517.697839 363.07062 
L 517.93261 361.858276 
L 518.167381 364.72363 
L 518.402151 363.982224 
L 519.341235 371.942038 
L 520.045548 371.016373 
L 520.749861 371.805874 
L 520.984631 365.782034 
L 521.454173 377.896627 
L 522.393257 377.521428 
L 523.332341 374.694217 
L 524.271424 377.950221 
L 525.68005 372.41751 
L 526.384363 376.756118 
L 526.619133 375.633355 
L 527.323446 372.268617 
L 527.792988 372.753999 
L 528.732072 371.260437 
L 528.966843 369.281967 
L 529.436384 373.417497 
L 529.905926 377.647926 
L 530.610239 375.752458 
L 531.079781 374.183617 
L 531.784094 367.856761 
L 532.253635 369.428335 
L 532.723177 372.284416 
L 532.957948 368.305511 
L 534.366574 372.86509 
L 534.836116 366.62871 
L 535.540428 368.721295 
L 536.00997 370.216342 
L 536.714283 364.59735 
L 537.183825 368.017409 
L 538.122908 364.043828 
L 538.122908 364.043828 
" clip-path="url(#p5e2fd5cac5)" style="fill: none; stroke: #e41a1c; stroke-width: 2; stroke-linecap: square"/>
   </g>
   <g id="patch_6">
    <path d="M 45.103984 385.599141 
L 45.103984 217.858633 
" style="fill: none; stroke: #7f7f7f; stroke-width: 1.8; stroke-linejoin: miter; stroke-linecap: square"/>
   </g>
   <g id="patch_7">
    <path d="M 45.103984 385.599141 
L 561.6 385.599141 
" style="fill: none; stroke: #7f7f7f; stroke-width: 1.8; stroke-linejoin: miter; stroke-linecap: square"/>
   </g>
  </g>
 </g>
 <defs>
  <clipPath id="p81b084edf1">
   <rect x="45.103984" y="22.318125" width="516.496016" height="167.740508"/>
  </clipPath>
  <clipPath id="p5e2fd5cac5">
   <rect x="45.103984" y="217.858633" width="516.496016" height="167.740508"/>
  </clipPath>
 </defs>
</svg>
