<?xml version="1.0" encoding="utf-8" standalone="no"?>
<!DOCTYPE svg PUBLIC "-//W3C//DTD SVG 1.1//EN"
  "http://www.w3.org/Graphics/SVG/1.1/DTD/svg11.dtd">
<svg xmlns:xlink="http://www.w3.org/1999/xlink" width="568.8pt" height="424.8pt" viewBox="0 0 568.8 424.8" xmlns="http://www.w3.org/2000/svg" version="1.1">
 <metadata>
  <rdf:RDF xmlns:dc="http://purl.org/dc/elements/1.1/" xmlns:cc="http://creativecommons.org/ns#" xmlns:rdf="http://www.w3.org/1999/02/22-rdf-syntax-ns#">
   <cc:Work>
    <dc:type rdf:resource="http://purl.org/dc/dcmitype/StillImage"/>
    <dc:date>2026-07-11T19:01:06.608180</dc:date>
    <dc:format>image/svg+xml</dc:format>
    <dc:creator>
     <cc:Agent>
      <dc:title>Matplotlib v3.11.0, https://matplotlib.org/</dc:title>
     </cc:Agent>
    </dc:creator>
   </cc:Work>
  </rdf:RDF>
 </metadata>
 <defs>
  <style type="text/css">*{stroke-linejoin: round; stroke-linecap: butt}</style>
 </defs>
 <g id="figure_1">
  <g id="patch_1">
   <path d="M 0 424.8 
L 568.8 424.8 
L 568.8 0 
L 0 0 
L 0 424.8 
z
" style="fill: none"/>
  </g>
  <g id="axes_1">
   <g id="patch_2">
    <path d="M 45.103984 190.058633 
L 561.6 190.058633 
L 561.6 22.318125 
L 45.103984 22.318125 
L 45.103984 190.058633 
z
" style="fill: none"/>
   </g>
   <g id="matplotlib.axis_1">
    <g id="xtick_1">
     <g id="line2d_1">
      <defs>
       <path id="m1a72b1f1e0" d="M 0 0 
L 0 3.5 
" style="stroke: #7f7f7f; stroke-width: 1.8"/>
      </defs>
      <g>
       <use xlink:href="#m1a72b1f1e0" x="68.581076" y="190.058633" style="fill: #7f7f7f; stroke: #7f7f7f; stroke-width: 1.8"/>
      </g>
     </g>
     <g id="text_1">
      <!-- 0.0 -->
      <g style="fill: #7f7f7f" transform="translate(60.629513 204.656289) scale(0.1 -0.1)">
       <defs>
        <path id="DejaVuSans-13" d="M 2034 4250 
Q 1547 4250 1301 3770 
Q 1056 3291 1056 2328 
Q 1056 1369 1301 889 
Q 1547 409 2034 409 
Q 2525 409 2770 889 
Q 3016 1369 3016 2328 
Q 3016 3291 2770 3770 
Q 2525 4250 2034 4250 
z
M 2034 4750 
Q 2819 4750 3233 4129 
Q 3647 3509 3647 2328 
Q 3647 1150 3233 529 
Q 2819 -91 2034 -91 
Q 1250 -91 836 529 
Q 422 1150 422 2328 
Q 422 3509 836 4129 
Q 1250 4750 2034 4750 
z
" transform="scale(0.015625)"/>
        <path id="DejaVuSans-11" d="M 684 794 
L 1344 794 
L 1344 0 
L 684 0 
L 684 794 
z
" transform="scale(0.015625)"/>
       </defs>
       <use xlink:href="#DejaVuSans-13"/>
       <use xlink:href="#DejaVuSans-11" transform="translate(63.625 0)"/>
       <use xlink:href="#DejaVuSans-13" transform="translate(95.40625 0)"/>
      </g>
     </g>
    </g>
    <g id="xtick_2">
     <g id="line2d_2">
      <g>
       <use xlink:href="#m1a72b1f1e0" x="127.273805" y="190.058633" style="fill: #7f7f7f; stroke: #7f7f7f; stroke-width: 1.8"/>
      </g>
     </g>
     <g id="text_2">
      <!-- 2.5 -->
      <g style="fill: #7f7f7f" transform="translate(119.322243 204.656289) scale(0.1 -0.1)">
       <defs>
        <path id="DejaVuSans-15" d="M 1228 531 
L 3431 531 
L 3431 0 
L 469 0 
L 469 531 
Q 828 903 1448 1529 
Q 2069 2156 2228 2338 
Q 2531 2678 2651 2914 
Q 2772 3150 2772 3378 
Q 2772 3750 2511 3984 
Q 2250 4219 1831 4219 
Q 1534 4219 1204 4116 
Q 875 4013 500 3803 
L 500 4441 
Q 881 4594 1212 4672 
Q 1544 4750 1819 4750 
Q 2544 4750 2975 4387 
Q 3406 4025 3406 3419 
Q 3406 3131 3298 2873 
Q 3191 2616 2906 2266 
Q 2828 2175 2409 1742 
Q 1991 1309 1228 531 
z
" transform="scale(0.015625)"/>
        <path id="DejaVuSans-18" d="M 691 4666 
L 3169 4666 
L 3169 4134 
L 1269 4134 
L 1269 2991 
Q 1406 3038 1543 3061 
Q 1681 3084 1819 3084 
Q 2600 3084 3056 2656 
Q 3513 2228 3513 1497 
Q 3513 744 3044 326 
Q 2575 -91 1722 -91 
Q 1428 -91 1123 -41 
Q 819 9 494 109 
L 494 744 
Q 775 591 1075 516 
Q 1375 441 1709 441 
Q 2250 441 2565 725 
Q 2881 1009 2881 1497 
Q 2881 1984 2565 2268 
Q 2250 2553 1709 2553 
Q 1456 2553 1204 2497 
Q 953 2441 691 2322 
L 691 4666 
z
" transform="scale(0.015625)"/>
       </defs>
       <use xlink:href="#DejaVuSans-15"/>
       <use xlink:href="#DejaVuSans-11" transform="translate(63.625 0)"/>
       <use xlink:href="#DejaVuSans-18" transform="translate(95.40625 0)"/>
      </g>
     </g>
    </g>
    <g id="xtick_3">
     <g id="line2d_3">
      <g>
       <use xlink:href="#m1a72b1f1e0" x="185.966534" y="190.058633" style="fill: #7f7f7f; stroke: #7f7f7f; stroke-width: 1.8"/>
      </g>
     </g>
     <g id="text_3">
      <!-- 5.0 -->
      <g style="fill: #7f7f7f" transform="translate(178.014972 204.656289) scale(0.1 -0.1)">
       <use xlink:href="#DejaVuSans-18"/>
       <use xlink:href="#DejaVuSans-11" transform="translate(63.625 0)"/>
       <use xlink:href="#DejaVuSans-13" transform="translate(95.40625 0)"/>
      </g>
     </g>
    </g>
    <g id="xtick_4">
     <g id="line2d_4">
      <g>
       <use xlink:href="#m1a72b1f1e0" x="244.659263" y="190.058633" style="fill: #7f7f7f; stroke: #7f7f7f; stroke-width: 1.8"/>
      </g>
     </g>
     <g id="text_4">
      <!-- 7.5 -->
      <g style="fill: #7f7f7f" transform="translate(236.707701 204.656289) scale(0.1 -0.1)">
       <defs>
        <path id="DejaVuSans-1a" d="M 525 4666 
L 3525 4666 
L 3525 4397 
L 1831 0 
L 1172 0 
L 2766 4134 
L 525 4134 
L 525 4666 
z
" transform="scale(0.015625)"/>
       </defs>
       <use xlink:href="#DejaVuSans-1a"/>
       <use xlink:href="#DejaVuSans-11" transform="translate(63.625 0)"/>
       <use xlink:href="#DejaVuSans-18" transform="translate(95.40625 0)"/>
      </g>
     </g>
    </g>
    <g id="xtick_5">
     <g id="line2d_5">
      <g>
       <use xlink:href="#m1a72b1f1e0" x="303.351992" y="190.058633" style="fill: #7f7f7f; stroke: #7f7f7f; stroke-width: 1.8"/>
      </g>
     </g>
     <g id="text_5">
      <!-- 10.0 -->
      <g style="fill: #7f7f7f" transform="translate(292.21918 204.656289) scale(0.1 -0.1)">
       <defs>
        <path id="DejaVuSans-14" d="M 794 531 
L 1825 531 
L 1825 4091 
L 703 3866 
L 703 4441 
L 1819 4666 
L 2450 4666 
L 2450 531 
L 3481 531 
L 3481 0 
L 794 0 
L 794 531 
z
" transform="scale(0.015625)"/>
       </defs>
       <use xlink:href="#DejaVuSans-14"/>
       <use xlink:href="#DejaVuSans-13" transform="translate(63.625 0)"/>
       <use xlink:href="#DejaVuSans-11" transform="translate(127.25 0)"/>
       <use xlink:href="#DejaVuSans-13" transform="translate(159.03125 0)"/>
      </g>
     </g>
    </g>
    <g id="xtick_6">
     <g id="line2d_6">
      <g>
       <use xlink:href="#m1a72b1f1e0" x="362.044721" y="190.058633" style="fill: #7f7f7f; stroke: #7f7f7f; stroke-width: 1.8"/>
      </g>
     </g>
     <g id="text_6">
      <!-- 12.5 -->
      <g style="fill: #7f7f7f" transform="translate(350.911909 204.656289) scale(0.1 -0.1)">
       <use xlink:href="#DejaVuSans-14"/>
       <use xlink:href="#DejaVuSans-15" transform="translate(63.625 0)"/>
       <use xlink:href="#DejaVuSans-11" transform="translate(127.25 0)"/>
       <use xlink:href="#DejaVuSans-18" transform="translate(159.03125 0)"/>
      </g>
     </g>
    </g>
    <g id="xtick_7">
     <g id="line2d_7">
      <g>
       <use xlink:href="#m1a72b1f1e0" x="420.73745" y="190.058633" style="fill: #7f7f7f; stroke: #7f7f7f; stroke-width: 1.8"/>
      </g>
     </g>
     <g id="text_7">
      <!-- 15.0 -->
      <g style="fill: #7f7f7f" transform="translate(409.604638 204.656289) scale(0.1 -0.1)">
       <use xlink:href="#DejaVuSans-14"/>
       <use xlink:href="#DejaVuSans-18" transform="translate(63.625 0)"/>
       <use xlink:href="#DejaVuSans-11" transform="translate(127.25 0)"/>
       <use xlink:href="#DejaVuSans-13" transform="translate(159.03125 0)"/>
      </g>
     </g>
    </g>
    <g id="xtick_8">
     <g id="line2d_8">
      <g>
       <use xlink:href="#m1a72b1f1e0" x="479.430179" y="190.058633" style="fill: #7f7f7f; stroke: #7f7f7f; stroke-width: 1.8"/>
      </g>
     </g>
     <g id="text_8">
      <!-- 17.5 -->
      <g style="fill: #7f7f7f" transform="translate(468.297367 204.656289) scale(0.1 -0.1)">
       <use xlink:href="#DejaVuSans-14"/>
       <use xlink:href="#DejaVuSans-1a" transform="translate(63.625 0)"/>
       <use xlink:href="#DejaVuSans-11" transform="translate(127.25 0)"/>
       <use xlink:href="#DejaVuSans-18" transform="translate(159.03125 0)"/>
      </g>
     </g>
    </g>
    <g id="xtick_9">
     <g id="line2d_9">
      <g>
       <use xlink:href="#m1a72b1f1e0" x="538.122908" y="190.058633" style="fill: #7f7f7f; stroke: #7f7f7f; stroke-width: 1.8"/>
      </g>
     </g>
     <g id="text_9">
      <!-- 20.0 -->
      <g style="fill: #7f7f7f" transform="translate(526.990096 204.656289) scale(0.1 -0.1)">
       <use xlink:href="#DejaVuSans-15"/>
       <use xlink:href="#DejaVuSans-13" transform="translate(63.625 0)"/>
       <use xlink:href="#DejaVuSans-11" transform="translate(127.25 0)"/>
       <use xlink:href="#DejaVuSans-13" transform="translate(159.03125 0)"/>
      </g>
     </g>
    </g>
   </g>
   <g id="matplotlib.axis_2">
    <g id="ytick_1">
     <g id="line2d_10">
      <defs>
       <path id="me4410b3697" d="M 0 0 
L -3.5 0 
" style="stroke: #7f7f7f; stroke-width: 1.8"/>
      </defs>
      <g>
       <use xlink:href="#me4410b3697" x="45.103984" y="182.434064" style="fill: #7f7f7f; stroke: #7f7f7f; stroke-width: 1.8"/>
      </g>
     </g>
     <g id="text_10">
      <!-- 0.0 -->
      <g style="fill: #7f7f7f" transform="translate(22.200859 186.232892) scale(0.1 -0.1)">
       <use xlink:href="#DejaVuSans-13"/>
       <use xlink:href="#DejaVuSans-11" transform="translate(63.625 0)"/>
       <use xlink:href="#DejaVuSans-13" transform="translate(95.40625 0)"/>
      </g>
     </g>
    </g>
    <g id="ytick_2">
     <g id="line2d_11">
      <g>
       <use xlink:href="#me4410b3697" x="45.103984" y="144.873276" style="fill: #7f7f7f; stroke: #7f7f7f; stroke-width: 1.8"/>
      </g>
     </g>
     <g id="text_11">
      <!-- 0.1 -->
      <g style="fill: #7f7f7f" transform="translate(22.200859 148.672104) scale(0.1 -0.1)">
       <use xlink:href="#DejaVuSans-13"/>
       <use xlink:href="#DejaVuSans-11" transform="translate(63.625 0)"/>
       <use xlink:href="#DejaVuSans-14" transform="translate(95.40625 0)"/>
      </g>
     </g>
    </g>
    <g id="ytick_3">
     <g id="line2d_12">
      <g>
       <use xlink:href="#me4410b3697" x="45.103984" y="107.312488" style="fill: #7f7f7f; stroke: #7f7f7f; stroke-width: 1.8"/>
      </g>
     </g>
     <g id="text_12">
      <!-- 0.2 -->
      <g style="fill: #7f7f7f" transform="translate(22.200859 111.111316) scale(0.1 -0.1)">
       <use xlink:href="#DejaVuSans-13"/>
       <use xlink:href="#DejaVuSans-11" transform="translate(63.625 0)"/>
       <use xlink:href="#DejaVuSans-15" transform="translate(95.40625 0)"/>
      </g>
     </g>
    </g>
    <g id="ytick_4">
     <g id="line2d_13">
      <g>
       <use xlink:href="#me4410b3697" x="45.103984" y="69.751699" style="fill: #7f7f7f; stroke: #7f7f7f; stroke-width: 1.8"/>
      </g>
     </g>
     <g id="text_13">
      <!-- 0.3 -->
      <g style="fill: #7f7f7f" transform="translate(22.200859 73.550528) scale(0.1 -0.1)">
       <defs>
        <path id="DejaVuSans-16" d="M 2597 2516 
Q 3050 2419 3304 2112 
Q 3559 1806 3559 1356 
Q 3559 666 3084 287 
Q 2609 -91 1734 -91 
Q 1441 -91 1130 -33 
Q 819 25 488 141 
L 488 750 
Q 750 597 1062 519 
Q 1375 441 1716 441 
Q 2309 441 2620 675 
Q 2931 909 2931 1356 
Q 2931 1769 2642 2001 
Q 2353 2234 1838 2234 
L 1294 2234 
L 1294 2753 
L 1863 2753 
Q 2328 2753 2575 2939 
Q 2822 3125 2822 3475 
Q 2822 3834 2567 4026 
Q 2313 4219 1838 4219 
Q 1578 4219 1281 4162 
Q 984 4106 628 3988 
L 628 4550 
Q 988 4650 1302 4700 
Q 1616 4750 1894 4750 
Q 2613 4750 3031 4423 
Q 3450 4097 3450 3541 
Q 3450 3153 3228 2886 
Q 3006 2619 2597 2516 
z
" transform="scale(0.015625)"/>
       </defs>
       <use xlink:href="#DejaVuSans-13"/>
       <use xlink:href="#DejaVuSans-11" transform="translate(63.625 0)"/>
       <use xlink:href="#DejaVuSans-16" transform="translate(95.40625 0)"/>
      </g>
     </g>
    </g>
    <g id="ytick_5">
     <g id="line2d_14">
      <g>
       <use xlink:href="#me4410b3697" x="45.103984" y="32.190911" style="fill: #7f7f7f; stroke: #7f7f7f; stroke-width: 1.8"/>
      </g>
     </g>
     <g id="text_14">
      <!-- 0.4 -->
      <g style="fill: #7f7f7f" transform="translate(22.200859 35.989739) scale(0.1 -0.1)">
       <defs>
        <path id="DejaVuSans-17" d="M 2419 4116 
L 825 1625 
L 2419 1625 
L 2419 4116 
z
M 2253 4666 
L 3047 4666 
L 3047 1625 
L 3713 1625 
L 3713 1100 
L 3047 1100 
L 3047 0 
L 2419 0 
L 2419 1100 
L 313 1100 
L 313 1709 
L 2253 4666 
z
" transform="scale(0.015625)"/>
       </defs>
       <use xlink:href="#DejaVuSans-13"/>
       <use xlink:href="#DejaVuSans-11" transform="translate(63.625 0)"/>
       <use xlink:href="#DejaVuSans-17" transform="translate(95.40625 0)"/>
      </g>
     </g>
    </g>
    <g id="text_15">
     <!-- Position Error [m] -->
     <g style="fill: #7f7f7f" transform="translate(15.558281 154.153535) rotate(-90) scale(0.11 -0.11)">
      <defs>
       <path id="DejaVuSans-33" d="M 1259 4147 
L 1259 2394 
L 2053 2394 
Q 2494 2394 2734 2622 
Q 2975 2850 2975 3272 
Q 2975 3691 2734 3919 
Q 2494 4147 2053 4147 
L 1259 4147 
z
M 628 4666 
L 2053 4666 
Q 2838 4666 3239 4311 
Q 3641 3956 3641 3272 
Q 3641 2581 3239 2228 
Q 2838 1875 2053 1875 
L 1259 1875 
L 1259 0 
L 628 0 
L 628 4666 
z
" transform="scale(0.015625)"/>
       <path id="DejaVuSans-52" d="M 1959 3097 
Q 1497 3097 1228 2736 
Q 959 2375 959 1747 
Q 959 1119 1226 758 
Q 1494 397 1959 397 
Q 2419 397 2687 759 
Q 2956 1122 2956 1747 
Q 2956 2369 2687 2733 
Q 2419 3097 1959 3097 
z
M 1959 3584 
Q 2709 3584 3137 3096 
Q 3566 2609 3566 1747 
Q 3566 888 3137 398 
Q 2709 -91 1959 -91 
Q 1206 -91 779 398 
Q 353 888 353 1747 
Q 353 2609 779 3096 
Q 1206 3584 1959 3584 
z
" transform="scale(0.015625)"/>
       <path id="DejaVuSans-56" d="M 2834 3397 
L 2834 2853 
Q 2591 2978 2328 3040 
Q 2066 3103 1784 3103 
Q 1356 3103 1142 2972 
Q 928 2841 928 2578 
Q 928 2378 1081 2264 
Q 1234 2150 1697 2047 
L 1894 2003 
Q 2506 1872 2764 1633 
Q 3022 1394 3022 966 
Q 3022 478 2636 193 
Q 2250 -91 1575 -91 
Q 1294 -91 989 -36 
Q 684 19 347 128 
L 347 722 
Q 666 556 975 473 
Q 1284 391 1588 391 
Q 1994 391 2212 530 
Q 2431 669 2431 922 
Q 2431 1156 2273 1281 
Q 2116 1406 1581 1522 
L 1381 1569 
Q 847 1681 609 1914 
Q 372 2147 372 2553 
Q 372 3047 722 3315 
Q 1072 3584 1716 3584 
Q 2034 3584 2315 3537 
Q 2597 3491 2834 3397 
z
" transform="scale(0.015625)"/>
       <path id="DejaVuSans-4c" d="M 603 3500 
L 1178 3500 
L 1178 0 
L 603 0 
L 603 3500 
z
M 603 4863 
L 1178 4863 
L 1178 4134 
L 603 4134 
L 603 4863 
z
" transform="scale(0.015625)"/>
       <path id="DejaVuSans-57" d="M 1172 4494 
L 1172 3500 
L 2356 3500 
L 2356 3053 
L 1172 3053 
L 1172 1153 
Q 1172 725 1289 603 
Q 1406 481 1766 481 
L 2356 481 
L 2356 0 
L 1766 0 
Q 1100 0 847 248 
Q 594 497 594 1153 
L 594 3053 
L 172 3053 
L 172 3500 
L 594 3500 
L 594 4494 
L 1172 4494 
z
" transform="scale(0.015625)"/>
       <path id="DejaVuSans-51" d="M 3513 2113 
L 3513 0 
L 2938 0 
L 2938 2094 
Q 2938 2591 2744 2837 
Q 2550 3084 2163 3084 
Q 1697 3084 1428 2787 
Q 1159 2491 1159 1978 
L 1159 0 
L 581 0 
L 581 3500 
L 1159 3500 
L 1159 2956 
Q 1366 3272 1645 3428 
Q 1925 3584 2291 3584 
Q 2894 3584 3203 3211 
Q 3513 2838 3513 2113 
z
" transform="scale(0.015625)"/>
       <path id="DejaVuSans-3" transform="scale(0.015625)"/>
       <path id="DejaVuSans-28" d="M 628 4666 
L 3578 4666 
L 3578 4134 
L 1259 4134 
L 1259 2753 
L 3481 2753 
L 3481 2222 
L 1259 2222 
L 1259 531 
L 3634 531 
L 3634 0 
L 628 0 
L 628 4666 
z
" transform="scale(0.015625)"/>
       <path id="DejaVuSans-55" d="M 2631 2963 
Q 2534 3019 2420 3045 
Q 2306 3072 2169 3072 
Q 1681 3072 1420 2755 
Q 1159 2438 1159 1844 
L 1159 0 
L 581 0 
L 581 3500 
L 1159 3500 
L 1159 2956 
Q 1341 3275 1631 3429 
Q 1922 3584 2338 3584 
Q 2397 3584 2469 3576 
Q 2541 3569 2628 3553 
L 2631 2963 
z
" transform="scale(0.015625)"/>
       <path id="DejaVuSans-3e" d="M 550 4863 
L 1875 4863 
L 1875 4416 
L 1125 4416 
L 1125 -397 
L 1875 -397 
L 1875 -844 
L 550 -844 
L 550 4863 
z
" transform="scale(0.015625)"/>
       <path id="DejaVuSans-50" d="M 3328 2828 
Q 3544 3216 3844 3400 
Q 4144 3584 4550 3584 
Q 5097 3584 5394 3201 
Q 5691 2819 5691 2113 
L 5691 0 
L 5113 0 
L 5113 2094 
Q 5113 2597 4934 2840 
Q 4756 3084 4391 3084 
Q 3944 3084 3684 2787 
Q 3425 2491 3425 1978 
L 3425 0 
L 2847 0 
L 2847 2094 
Q 2847 2600 2669 2842 
Q 2491 3084 2119 3084 
Q 1678 3084 1418 2786 
Q 1159 2488 1159 1978 
L 1159 0 
L 581 0 
L 581 3500 
L 1159 3500 
L 1159 2956 
Q 1356 3278 1631 3431 
Q 1906 3584 2284 3584 
Q 2666 3584 2933 3390 
Q 3200 3197 3328 2828 
z
" transform="scale(0.015625)"/>
       <path id="DejaVuSans-40" d="M 1947 4863 
L 1947 -844 
L 622 -844 
L 622 -397 
L 1369 -397 
L 1369 4416 
L 622 4416 
L 622 4863 
L 1947 4863 
z
" transform="scale(0.015625)"/>
      </defs>
      <use xlink:href="#DejaVuSans-33"/>
      <use xlink:href="#DejaVuSans-52" transform="translate(56.734375 0)"/>
      <use xlink:href="#DejaVuSans-56" transform="translate(117.921875 0)"/>
      <use xlink:href="#DejaVuSans-4c" transform="translate(170.015625 0)"/>
      <use xlink:href="#DejaVuSans-57" transform="translate(197.796875 0)"/>
      <use xlink:href="#DejaVuSans-4c" transform="translate(237 0)"/>
      <use xlink:href="#DejaVuSans-52" transform="translate(264.78125 0)"/>
      <use xlink:href="#DejaVuSans-51" transform="translate(325.96875 0)"/>
      <use xlink:href="#DejaVuSans-3" transform="translate(389.34375 0)"/>
      <use xlink:href="#DejaVuSans-28" transform="translate(421.125 0)"/>
      <use xlink:href="#DejaVuSans-55" transform="translate(484.3125 0)"/>
      <use xlink:href="#DejaVuSans-55" transform="translate(523.671875 0)"/>
      <use xlink:href="#DejaVuSans-52" transform="translate(562.578125 0)"/>
      <use xlink:href="#DejaVuSans-55" transform="translate(623.765625 0)"/>
      <use xlink:href="#DejaVuSans-3" transform="translate(664.875 0)"/>
      <use xlink:href="#DejaVuSans-3e" transform="translate(696.65625 0)"/>
      <use xlink:href="#DejaVuSans-50" transform="translate(735.671875 0)"/>
      <use xlink:href="#DejaVuSans-40" transform="translate(833.078125 0)"/>
     </g>
    </g>
   </g>
   <g id="line2d_15">
    <path d="M 68.581076 182.434064 
L 69.050618 148.393783 
L 69.754931 152.93109 
L 69.989701 182.418269 
L 70.694014 162.217111 
L 71.163556 163.150473 
L 72.572182 179.421025 
L 71.633098 159.281456 
L 72.806952 177.296918 
L 76.093745 29.942694 
L 77.737142 70.847849 
L 77.971913 59.169331 
L 78.441454 80.530113 
L 79.145767 71.36144 
L 81.728247 181.246025 
L 82.197789 158.723681 
L 82.43256 138.387177 
L 83.136873 143.729224 
L 83.371644 157.253714 
L 83.841186 148.691044 
L 84.545498 112.450393 
L 85.01504 116.15496 
L 86.423666 155.677938 
L 87.362749 141.524878 
L 87.59752 141.69382 
L 88.067062 135.70964 
L 88.771375 166.152042 
L 89.475688 167.608881 
L 90.414771 132.619439 
L 91.823397 181.020785 
L 92.76248 174.953385 
L 92.997251 180.099546 
L 93.466793 171.187479 
L 93.701564 177.182222 
L 93.936335 176.919591 
L 94.875419 159.116272 
L 95.34496 175.904961 
L 95.814502 168.900378 
L 96.753586 135.700847 
L 96.988357 146.079028 
L 97.223128 148.899256 
L 97.457899 146.024553 
L 98.162211 127.698888 
L 97.927441 148.209961 
L 98.396982 133.784707 
L 99.336066 154.175534 
L 99.805608 151.553616 
L 100.040379 151.127395 
L 101.214233 178.679789 
L 101.683775 173.81563 
L 103.327172 141.392163 
L 104.031484 155.605186 
L 103.796713 137.479594 
L 104.266255 147.116523 
L 104.735797 140.191382 
L 104.970568 144.363884 
L 106.144423 169.289195 
L 106.379194 164.841058 
L 106.613964 180.267376 
L 107.553048 177.212359 
L 108.02259 159.076427 
L 108.726903 170.501927 
L 108.961674 171.025225 
L 109.431215 182.19238 
L 109.900757 174.757512 
L 110.839841 164.832684 
L 111.074612 170.222971 
L 111.544154 169.394478 
L 112.248466 174.081509 
L 112.952779 149.564636 
L 113.891863 159.124183 
L 114.361405 142.222094 
L 114.830946 159.842634 
L 115.065717 156.870026 
L 115.300488 165.329933 
L 116.004801 182.183775 
L 116.239572 174.164487 
L 116.474343 174.209175 
L 116.709114 180.336356 
L 117.178656 170.636273 
L 117.413427 162.105391 
L 117.882968 175.398441 
L 118.35251 179.463876 
L 118.587281 169.963374 
L 118.822052 180.81889 
L 119.526365 170.439469 
L 119.995907 165.263107 
L 120.230678 179.544135 
L 120.93499 162.913419 
L 121.404532 157.190252 
L 121.639303 163.052356 
L 122.343616 181.940797 
L 123.047929 181.198824 
L 124.221783 168.892468 
L 125.395638 181.498408 
L 126.09995 166.463421 
L 126.334721 178.496406 
L 126.569492 181.085422 
L 126.804263 178.743385 
L 127.743347 162.785785 
L 127.978118 171.060512 
L 128.212889 171.490907 
L 128.44766 181.178151 
L 129.151972 179.783939 
L 130.325827 170.571083 
L 131.264911 181.839099 
L 131.499682 178.280306 
L 131.734452 177.668059 
L 132.673536 142.060836 
L 132.908307 145.570916 
L 133.143078 150.105202 
L 133.377849 147.321913 
L 133.61262 128.865353 
L 134.316933 147.236955 
L 134.786474 135.93832 
L 135.021245 140.045002 
L 136.1951 150.818448 
L 136.429871 148.382642 
L 137.134184 181.316574 
L 137.603725 170.85887 
L 137.838496 164.917486 
L 138.073267 174.74865 
L 138.308038 182.410697 
L 138.542809 170.734437 
L 138.77758 176.640128 
L 141.125289 140.405131 
L 141.36006 147.779972 
L 141.829602 152.390184 
L 142.064373 146.224906 
L 143.472998 126.689504 
L 145.585937 161.674444 
L 146.055478 152.963625 
L 146.759791 142.132495 
L 146.994562 146.086813 
L 147.698875 150.933577 
L 147.933646 145.467863 
L 148.168417 136.230893 
L 148.637958 140.710054 
L 149.811813 155.790585 
L 151.924751 113.557195 
L 152.863835 123.658059 
L 153.098606 111.920225 
L 153.333377 126.817988 
L 154.976773 175.55855 
L 155.211544 173.476504 
L 155.446315 174.377844 
L 155.681086 181.811725 
L 156.150628 169.895175 
L 156.85494 157.757196 
L 157.324482 163.672231 
L 157.794024 156.307351 
L 158.028795 162.881927 
L 158.498337 177.362641 
L 159.20265 168.675473 
L 161.080817 134.54349 
L 162.254672 156.657638 
L 162.489442 156.465041 
L 164.132839 179.826804 
L 164.602381 166.42177 
L 165.071923 169.795805 
L 165.306693 178.878491 
L 165.776235 159.670373 
L 166.245777 144.649621 
L 166.95009 150.463469 
L 168.123944 169.257119 
L 168.358715 163.529182 
L 169.063028 182.196282 
L 169.767341 181.46804 
L 170.236883 178.734774 
L 170.471654 167.951059 
L 171.175966 180.708181 
L 172.11505 162.465485 
L 172.349821 163.933799 
L 173.758446 108.392709 
L 174.227988 112.134465 
L 174.462759 128.997285 
L 174.932301 106.081663 
L 175.167072 112.9498 
L 175.401843 101.443219 
L 176.106156 110.717904 
L 176.810468 120.016546 
L 177.045239 112.624954 
L 177.749552 102.291418 
L 177.984323 107.088758 
L 178.219094 110.064307 
L 178.453865 103.458076 
L 179.158178 82.957924 
L 179.86249 86.024663 
L 181.036345 112.764966 
L 181.271116 94.464641 
L 181.740658 117.311049 
L 184.088367 163.377323 
L 184.323138 152.989972 
L 184.557909 154.9908 
L 185.731763 175.095085 
L 186.436076 181.762122 
L 186.670847 178.59295 
L 187.844701 159.95759 
L 187.140389 182.317786 
L 188.079472 160.52131 
L 188.783785 174.727618 
L 189.018556 165.832184 
L 189.95764 153.969514 
L 190.192411 158.061377 
L 190.896723 179.538697 
L 191.366265 175.081914 
L 191.601036 163.810846 
L 192.070578 175.416373 
L 192.305349 181.298223 
L 192.774891 169.095072 
L 193.948745 147.575312 
L 195.1226 178.952997 
L 195.357371 174.635875 
L 195.826913 179.347377 
L 196.061683 174.797509 
L 196.765996 162.502991 
L 197.70508 144.276418 
L 198.174622 144.564183 
L 198.409393 148.314223 
L 198.644164 140.792572 
L 199.583247 128.537666 
L 199.818018 131.341473 
L 201.226644 155.664155 
L 201.461415 148.39758 
L 201.930956 158.573613 
L 202.635269 180.577451 
L 203.104811 174.57961 
L 203.809124 180.659175 
L 204.043895 177.582466 
L 205.687291 156.076292 
L 206.391604 172.662479 
L 206.861146 168.009542 
L 207.095917 164.145715 
L 207.330687 169.180988 
L 208.504542 178.981346 
L 208.974084 174.657749 
L 209.208855 180.371135 
L 209.443626 182.290896 
L 209.678397 180.795598 
L 211.321793 151.906811 
L 211.556564 159.113623 
L 211.791335 166.721597 
L 212.260877 160.164261 
L 212.730419 141.597348 
L 213.434731 146.998461 
L 213.669502 146.402391 
L 215.078128 115.181099 
L 215.54767 126.742511 
L 217.425837 154.061334 
L 217.660608 142.415678 
L 218.364921 155.445113 
L 218.834462 152.288395 
L 219.069233 156.979029 
L 219.304004 165.662196 
L 220.008317 159.313791 
L 220.243088 158.418056 
L 220.477859 160.047619 
L 220.71263 161.037649 
L 221.651713 135.895746 
L 222.121255 146.257227 
L 223.29511 174.317184 
L 223.764652 171.709138 
L 224.938506 143.081669 
L 225.173277 143.10184 
L 226.112361 126.197141 
L 225.642819 144.080984 
L 226.347132 136.671174 
L 226.581903 147.627589 
L 227.051444 134.988615 
L 227.520986 128.129776 
L 227.755757 132.667169 
L 227.990528 138.35638 
L 228.225299 118.295177 
L 228.929612 119.982695 
L 229.399154 131.997308 
L 229.868695 120.164753 
L 230.807779 95.548887 
L 231.04255 101.876656 
L 231.277321 109.524625 
L 231.512092 96.106769 
L 231.981634 104.942847 
L 232.216405 100.759141 
L 232.451175 105.607602 
L 232.685946 122.794923 
L 233.390259 103.870557 
L 233.62503 90.280758 
L 233.859801 106.133216 
L 234.329343 100.893204 
L 234.564114 104.463211 
L 235.737968 77.308643 
L 236.20751 90.47917 
L 236.677052 78.80569 
L 236.911823 78.619024 
L 237.146594 75.277665 
L 237.381365 79.479342 
L 239.494303 109.558285 
L 239.729074 105.218608 
L 240.198616 113.522514 
L 241.37247 134.780429 
L 241.607241 125.357707 
L 241.842012 124.004263 
L 242.076783 124.285782 
L 242.781096 135.266195 
L 243.015867 132.289879 
L 243.485409 122.240413 
L 243.720179 126.969402 
L 244.659263 170.67108 
L 244.894034 163.959509 
L 245.128805 161.429009 
L 246.30266 176.5317 
L 246.772201 171.872844 
L 247.241743 152.838228 
L 247.946056 161.290096 
L 248.415598 181.65888 
L 248.88514 170.16728 
L 249.824223 134.01594 
L 250.528536 147.594082 
L 250.763307 155.898902 
L 250.998078 141.046981 
L 251.937162 125.684832 
L 252.171932 127.578562 
L 253.345787 160.834674 
L 254.519642 142.398179 
L 254.754413 151.027207 
L 255.223954 133.036792 
L 256.163038 114.586269 
L 256.63258 121.239604 
L 256.867351 123.824177 
L 257.336893 105.782251 
L 257.571664 123.46214 
L 258.745518 132.98535 
L 259.449831 113.172268 
L 259.919373 119.886446 
L 260.154144 120.99536 
L 261.327998 108.500259 
L 261.562769 108.408521 
L 261.79754 100.129638 
L 262.032311 113.17545 
L 262.267082 110.523205 
L 262.736624 120.348596 
L 262.971395 104.405983 
L 263.440936 124.244356 
L 263.675707 119.405884 
L 263.910478 120.618764 
L 264.849562 93.842022 
L 265.319104 94.788869 
L 265.553875 106.220152 
L 266.258187 97.374579 
L 266.492958 97.394811 
L 266.727729 87.333788 
L 267.197271 103.814497 
L 267.666813 100.232733 
L 268.840668 113.356914 
L 269.310209 99.844411 
L 269.779751 113.43755 
L 270.014522 113.23145 
L 272.362231 174.721487 
L 273.066544 174.181047 
L 273.770857 181.916292 
L 274.475169 163.218415 
L 274.70994 175.706181 
L 275.179482 179.639108 
L 275.414253 175.453883 
L 275.649024 174.451346 
L 275.883795 177.500445 
L 276.118566 180.646264 
L 276.353337 179.631363 
L 277.05765 158.311164 
L 277.527191 166.970009 
L 277.761962 172.882298 
L 278.231504 161.780087 
L 280.579213 119.021393 
L 281.283526 120.983741 
L 281.518297 130.030719 
L 281.987839 126.216997 
L 282.22261 117.016022 
L 282.926922 126.432287 
L 284.100777 137.822405 
L 284.80509 118.149711 
L 285.274632 124.2087 
L 285.744173 128.705156 
L 287.152799 152.229174 
L 287.622341 141.560861 
L 288.326654 146.927828 
L 288.561424 150.612593 
L 289.265737 172.041266 
L 289.735279 168.025983 
L 290.204821 164.823074 
L 291.378675 182.159013 
L 292.787301 150.205417 
L 293.256843 159.229837 
L 293.726385 180.402957 
L 294.195926 176.777804 
L 294.665468 162.635432 
L 294.900239 180.180345 
L 295.13501 177.909775 
L 296.308865 155.229144 
L 295.839323 181.827435 
L 296.543636 163.410397 
L 297.013177 166.702849 
L 297.247948 168.781489 
L 297.71749 153.945761 
L 298.421803 157.674849 
L 299.360887 175.728408 
L 299.830428 170.330178 
L 301.004283 148.524755 
L 300.534741 172.981816 
L 301.473825 158.668303 
L 301.708596 159.054976 
L 303.351992 180.922275 
L 304.525847 161.240864 
L 304.056305 181.246382 
L 304.760618 167.738194 
L 304.995389 173.593363 
L 305.46493 165.550903 
L 305.699701 160.265282 
L 305.934472 171.802348 
L 306.169243 171.102574 
L 307.108327 182.174689 
L 308.282181 164.052746 
L 308.986494 168.338632 
L 309.456036 154.628649 
L 309.925578 156.242206 
L 310.160349 175.789964 
L 310.864662 158.51066 
L 311.099432 161.453598 
L 311.568974 154.937961 
L 312.273287 146.906171 
L 312.038516 158.626755 
L 312.742829 152.988777 
L 314.855767 181.100891 
L 316.029622 160.278657 
L 316.499163 167.270421 
L 317.203476 161.612946 
L 317.438247 161.89472 
L 318.846873 181.868721 
L 319.081644 181.667531 
L 319.316414 180.024511 
L 320.72504 158.255393 
L 322.368436 181.873382 
L 322.603207 178.063425 
L 322.837978 170.941228 
L 323.30752 180.401077 
L 323.542291 181.180612 
L 323.777062 179.857971 
L 324.011833 179.208504 
L 324.246604 181.636885 
L 324.716146 177.497592 
L 325.89 164.577654 
L 326.124771 170.155001 
L 326.594313 157.544653 
L 329.176793 182.062722 
L 327.063855 152.122792 
L 329.646335 180.181095 
L 330.585418 156.843126 
L 331.759273 164.676135 
L 331.994044 164.454667 
L 332.228815 161.693285 
L 332.463586 163.530906 
L 332.698357 170.737348 
L 333.402669 170.07638 
L 333.63744 158.316401 
L 334.341753 159.28706 
L 336.689462 181.103489 
L 336.924233 179.951289 
L 338.332859 157.509187 
L 338.802401 156.767407 
L 339.037171 151.779843 
L 339.271942 158.384583 
L 339.741484 156.039687 
L 340.211026 154.455015 
L 340.445797 168.195633 
L 340.680568 173.98133 
L 341.15011 172.356104 
L 341.384881 164.032197 
L 341.854422 180.037766 
L 342.323964 167.907256 
L 342.558735 178.616524 
L 342.793506 181.887509 
L 343.028277 181.469351 
L 344.906444 139.360164 
L 345.610757 111.451548 
L 346.549841 116.323034 
L 346.784612 118.367217 
L 347.488924 94.171216 
L 347.958466 106.592054 
L 348.428008 125.701735 
L 349.132321 125.485998 
L 349.367092 125.519216 
L 349.601863 126.755876 
L 351.010488 145.577439 
L 352.419114 133.135473 
L 352.653885 135.633199 
L 353.123426 122.544949 
L 353.592968 133.548098 
L 354.06251 128.31717 
L 354.532052 144.203416 
L 355.001594 135.30985 
L 355.705906 114.165549 
L 356.410219 121.542848 
L 357.349303 130.46066 
L 357.584074 127.417422 
L 358.523157 112.566981 
L 358.757928 118.215817 
L 358.992699 119.276118 
L 360.166554 173.493244 
L 360.401325 172.11979 
L 360.636096 163.29616 
L 361.340408 166.223501 
L 361.575179 167.883858 
L 361.80995 156.976781 
L 362.514263 164.596619 
L 362.749034 161.984773 
L 362.983805 164.484606 
L 363.453347 175.41194 
L 364.39243 173.160987 
L 364.627201 172.908104 
L 364.861972 168.705305 
L 365.096743 175.879546 
L 365.331514 179.88754 
L 365.566285 171.779113 
L 366.270598 162.069591 
L 366.505369 163.584974 
L 366.97491 182.10862 
L 367.444452 177.162837 
L 367.679223 163.859186 
L 368.383536 171.928782 
L 368.853078 178.913445 
L 369.32262 150.112762 
L 369.792161 160.828179 
L 370.731245 178.938802 
L 371.200787 166.775517 
L 371.9051 174.457473 
L 372.139871 180.569535 
L 372.609412 175.422107 
L 372.844183 170.264551 
L 373.313725 179.728944 
L 373.783267 166.071857 
L 374.957122 166.878914 
L 375.426663 180.995592 
L 376.130976 170.358363 
L 377.774373 182.165568 
L 378.713456 150.233569 
L 379.182998 159.735548 
L 379.417769 162.128903 
L 379.65254 156.82035 
L 379.887311 161.080197 
L 380.591624 137.145264 
L 380.826395 145.616554 
L 382.23502 167.644557 
L 382.469791 168.225489 
L 383.643646 182.260614 
L 385.052271 156.844292 
L 385.287042 163.384557 
L 385.521813 162.598875 
L 386.695667 142.662703 
L 386.930438 144.908457 
L 387.165209 138.969057 
L 387.869522 113.429732 
L 388.339064 121.510798 
L 388.808606 130.136532 
L 389.278148 122.043531 
L 389.512918 123.326497 
L 390.686773 143.21102 
L 391.156315 137.928884 
L 391.391086 124.358106 
L 391.860628 145.229348 
L 392.330169 167.784211 
L 393.504024 160.496929 
L 393.738795 159.637715 
L 394.208337 160.704291 
L 395.14742 178.563579 
L 395.382191 172.8473 
L 395.851733 179.748038 
L 396.321275 176.058569 
L 396.556046 173.748504 
L 396.790817 180.924955 
L 397.025588 180.369824 
L 397.7299 167.617905 
L 397.964671 177.482463 
L 398.199442 179.121144 
L 398.434213 174.722112 
L 399.138526 157.940875 
L 399.608068 161.694692 
L 400.781922 180.788665 
L 401.016693 180.638373 
L 401.721006 167.593213 
L 402.190548 175.848895 
L 402.425319 180.521696 
L 402.894861 171.899588 
L 403.129632 179.816423 
L 405.007799 156.634209 
L 405.24257 166.877978 
L 406.651195 181.991934 
L 406.885966 180.942687 
L 408.529363 164.297199 
L 408.764134 164.693944 
L 409.233675 136.460051 
L 409.937988 147.558187 
L 410.642301 143.421956 
L 411.346614 158.193997 
L 411.581385 151.998 
L 412.285697 139.798297 
L 412.755239 146.879597 
L 413.224781 145.575684 
L 413.929094 158.406607 
L 415.102948 137.260346 
L 416.276803 152.357458 
L 417.215887 180.125449 
L 417.685428 166.736262 
L 418.389741 168.636825 
L 419.094054 159.195632 
L 419.328825 161.432812 
L 420.033138 182.081543 
L 420.267908 166.159377 
L 420.73745 173.322349 
L 421.206992 170.113399 
L 421.911305 144.109781 
L 422.380847 152.751523 
L 423.554701 180.761942 
L 423.789472 180.471745 
L 426.137181 124.776619 
L 427.311036 155.346339 
L 427.545807 153.587736 
L 427.780578 151.086288 
L 428.484891 165.780696 
L 428.719661 158.710814 
L 429.423974 146.985371 
L 429.658745 155.348995 
L 431.067371 181.701285 
L 431.302142 177.620659 
L 431.536912 172.439518 
L 432.006454 181.337742 
L 432.475996 172.692784 
L 432.710767 181.155643 
L 432.945538 182.388969 
L 433.180309 172.319409 
L 433.884622 180.585708 
L 434.119393 181.245968 
L 434.823705 168.091503 
L 435.293247 173.994183 
L 435.528018 174.605384 
L 436.232331 182.43055 
L 436.467102 178.216988 
L 436.701873 179.196635 
L 437.640956 149.185492 
L 438.110498 150.91052 
L 438.814811 176.833721 
L 439.519124 163.628977 
L 440.223436 156.954601 
L 440.692978 158.588827 
L 441.16252 172.549508 
L 441.866833 163.476002 
L 442.101604 160.930674 
L 442.336375 162.522227 
L 443.275458 179.878238 
L 443.745 181.757857 
L 444.449313 170.357463 
L 445.153626 177.720841 
L 446.562251 149.561075 
L 448.440418 181.471585 
L 449.144731 168.387135 
L 449.614273 172.491784 
L 450.318586 182.055068 
L 450.788128 181.71234 
L 452.196753 160.863767 
L 453.370608 181.413261 
L 453.605379 168.695391 
L 454.309691 178.908422 
L 454.544462 180.386352 
L 454.779233 169.804053 
L 455.014004 181.919521 
L 455.483546 174.783213 
L 455.718317 181.908146 
L 456.187859 166.637438 
L 456.42263 171.96687 
L 456.892171 166.314609 
L 457.126942 168.519174 
L 458.300797 157.477642 
L 458.535568 157.853178 
L 459.00511 181.505835 
L 459.709422 169.707499 
L 460.178964 166.995068 
L 461.118048 176.569549 
L 461.352819 163.94964 
L 462.291902 166.068652 
L 463.230986 176.473617 
L 463.465757 173.940605 
L 463.700528 175.418249 
L 463.935299 170.9278 
L 464.17007 157.808593 
L 464.639612 164.729044 
L 465.813466 182.142573 
L 466.75255 168.715427 
L 466.987321 178.688422 
L 467.691634 181.777611 
L 467.456863 177.194002 
L 467.926404 178.723079 
L 468.395946 180.121825 
L 470.039343 161.403416 
L 470.274114 160.35893 
L 470.508885 163.146524 
L 470.743655 161.532995 
L 471.213197 181.397696 
L 471.682739 179.808595 
L 471.91751 168.27736 
L 472.621823 170.658386 
L 473.091365 178.413851 
L 473.560906 173.873801 
L 474.969532 151.456425 
L 475.439074 174.650629 
L 475.908616 156.141573 
L 477.317241 182.31861 
L 477.552012 169.235861 
L 477.786783 161.587985 
L 478.491096 169.832714 
L 478.725867 163.323674 
L 479.195408 145.093389 
L 479.430179 163.07289 
L 479.899721 170.585155 
L 480.134492 169.789479 
L 480.369263 152.262738 
L 481.073576 160.869645 
L 481.543118 180.769417 
L 482.012659 174.386433 
L 482.24743 163.842967 
L 482.716972 175.068509 
L 483.421285 181.931424 
L 483.656056 177.137507 
L 484.125598 179.737164 
L 485.299452 154.283444 
L 485.534223 158.842883 
L 486.003765 168.201228 
L 486.238536 154.639996 
L 486.473307 154.191921 
L 487.41239 165.841366 
L 487.881932 142.008374 
L 488.586245 143.528485 
L 489.055787 157.248433 
L 489.7601 148.577116 
L 489.994871 147.527352 
L 490.699183 165.081773 
L 491.168725 159.150374 
L 492.812122 122.035428 
L 493.281663 124.648494 
L 496.098914 178.308399 
L 496.803227 173.766838 
L 497.037998 175.268921 
L 497.272769 178.926644 
L 497.50754 174.53518 
L 498.211853 177.154727 
L 498.681394 160.412769 
L 498.916165 174.27065 
L 499.385707 161.780296 
L 499.620478 147.147105 
L 500.324791 152.507866 
L 500.559562 153.007859 
L 501.733416 181.833612 
L 501.968187 181.803309 
L 502.202958 171.303944 
L 502.6725 181.91574 
L 502.907271 177.311106 
L 503.142042 176.94531 
L 503.376813 179.485199 
L 503.611584 176.150083 
L 504.785438 161.100573 
L 505.020209 164.615104 
L 505.724522 182.070138 
L 506.194064 172.752602 
L 508.541773 134.906385 
L 510.185169 115.515396 
L 510.41994 124.889847 
L 510.889482 114.943963 
L 511.359024 106.644199 
L 511.828566 113.09838 
L 512.063337 114.45709 
L 514.411046 160.538105 
L 514.880588 161.975475 
L 516.289213 150.457379 
L 517.697839 181.213577 
L 518.402151 159.130295 
L 518.636922 166.334417 
L 518.871693 177.912036 
L 519.576006 170.411325 
L 519.810777 170.257207 
L 521.688944 123.882187 
L 522.628028 98.59754 
L 522.158486 125.372369 
L 522.862799 104.441718 
L 523.567112 130.068407 
L 524.036653 119.40443 
L 524.271424 112.017699 
L 524.975737 121.138125 
L 525.68005 124.116135 
L 525.914821 117.885493 
L 526.149592 127.404156 
L 526.384363 126.778595 
L 528.966843 179.09062 
L 529.671155 151.811197 
L 530.140697 155.353676 
L 530.610239 165.692172 
L 531.314552 164.36402 
L 531.784094 157.403527 
L 532.018865 161.514581 
L 532.253635 180.695078 
L 533.192719 178.150147 
L 534.601345 166.165981 
L 535.305657 166.096448 
L 535.775199 177.392752 
L 536.714283 180.718147 
L 536.949054 169.811764 
L 537.653367 170.524887 
L 537.888137 173.578326 
L 538.122908 171.282774 
" clip-path="url(#pe786fe7482)" style="fill: none; stroke: #e41a1c; stroke-width: 2; stroke-linecap: square"/>
   </g>
   <g id="patch_3">
    <path d="M 45.103984 190.058633 
L 45.103984 22.318125 
" style="fill: none; stroke: #7f7f7f; stroke-width: 1.8; stroke-linejoin: miter; stroke-linecap: square"/>
   </g>
   <g id="patch_4">
    <path d="M 45.103984 190.058633 
L 561.6 190.058633 
" style="fill: none; stroke: #7f7f7f; stroke-width: 1.8; stroke-linejoin: miter; stroke-linecap: square"/>
   </g>
   <g id="text_16">
    <!-- Kalman Filter Estimation Error -->
    <g style="fill: #7f7f7f" transform="translate(200.338555 16.318125) scale(0.12 -0.12)">
     <defs>
      <path id="DejaVuSans-Bold-2e" d="M 588 4666 
L 1791 4666 
L 1791 2963 
L 3525 4666 
L 4922 4666 
L 2675 2456 
L 5153 0 
L 3647 0 
L 1791 1838 
L 1791 0 
L 588 0 
L 588 4666 
z
" transform="scale(0.015625)"/>
      <path id="DejaVuSans-Bold-44" d="M 2106 1575 
Q 1756 1575 1579 1456 
Q 1403 1338 1403 1106 
Q 1403 894 1545 773 
Q 1688 653 1941 653 
Q 2256 653 2472 879 
Q 2688 1106 2688 1447 
L 2688 1575 
L 2106 1575 
z
M 3816 1997 
L 3816 0 
L 2688 0 
L 2688 519 
Q 2463 200 2181 54 
Q 1900 -91 1497 -91 
Q 953 -91 614 226 
Q 275 544 275 1050 
Q 275 1666 698 1953 
Q 1122 2241 2028 2241 
L 2688 2241 
L 2688 2328 
Q 2688 2594 2478 2717 
Q 2269 2841 1825 2841 
Q 1466 2841 1156 2769 
Q 847 2697 581 2553 
L 581 3406 
Q 941 3494 1303 3539 
Q 1666 3584 2028 3584 
Q 2975 3584 3395 3211 
Q 3816 2838 3816 1997 
z
" transform="scale(0.015625)"/>
      <path id="DejaVuSans-Bold-4f" d="M 538 4863 
L 1656 4863 
L 1656 0 
L 538 0 
L 538 4863 
z
" transform="scale(0.015625)"/>
      <path id="DejaVuSans-Bold-50" d="M 3781 2919 
Q 3994 3244 4286 3414 
Q 4578 3584 4928 3584 
Q 5531 3584 5847 3212 
Q 6163 2841 6163 2131 
L 6163 0 
L 5038 0 
L 5038 1825 
Q 5041 1866 5042 1909 
Q 5044 1953 5044 2034 
Q 5044 2406 4934 2573 
Q 4825 2741 4581 2741 
Q 4263 2741 4089 2478 
Q 3916 2216 3909 1719 
L 3909 0 
L 2784 0 
L 2784 1825 
Q 2784 2406 2684 2573 
Q 2584 2741 2328 2741 
Q 2006 2741 1831 2477 
Q 1656 2213 1656 1722 
L 1656 0 
L 531 0 
L 531 3500 
L 1656 3500 
L 1656 2988 
Q 1863 3284 2130 3434 
Q 2397 3584 2719 3584 
Q 3081 3584 3359 3409 
Q 3638 3234 3781 2919 
z
" transform="scale(0.015625)"/>
      <path id="DejaVuSans-Bold-51" d="M 4056 2131 
L 4056 0 
L 2931 0 
L 2931 347 
L 2931 1631 
Q 2931 2084 2911 2256 
Q 2891 2428 2841 2509 
Q 2775 2619 2662 2680 
Q 2550 2741 2406 2741 
Q 2056 2741 1856 2470 
Q 1656 2200 1656 1722 
L 1656 0 
L 538 0 
L 538 3500 
L 1656 3500 
L 1656 2988 
Q 1909 3294 2193 3439 
Q 2478 3584 2822 3584 
Q 3428 3584 3742 3212 
Q 4056 2841 4056 2131 
z
" transform="scale(0.015625)"/>
      <path id="DejaVuSans-Bold-3" transform="scale(0.015625)"/>
      <path id="DejaVuSans-Bold-29" d="M 588 4666 
L 3834 4666 
L 3834 3756 
L 1791 3756 
L 1791 2888 
L 3713 2888 
L 3713 1978 
L 1791 1978 
L 1791 0 
L 588 0 
L 588 4666 
z
" transform="scale(0.015625)"/>
      <path id="DejaVuSans-Bold-4c" d="M 538 3500 
L 1656 3500 
L 1656 0 
L 538 0 
L 538 3500 
z
M 538 4863 
L 1656 4863 
L 1656 3950 
L 538 3950 
L 538 4863 
z
" transform="scale(0.015625)"/>
      <path id="DejaVuSans-Bold-57" d="M 1759 4494 
L 1759 3500 
L 2913 3500 
L 2913 2700 
L 1759 2700 
L 1759 1216 
Q 1759 972 1856 886 
Q 1953 800 2241 800 
L 2816 800 
L 2816 0 
L 1856 0 
Q 1194 0 917 276 
Q 641 553 641 1216 
L 641 2700 
L 84 2700 
L 84 3500 
L 641 3500 
L 641 4494 
L 1759 4494 
z
" transform="scale(0.015625)"/>
      <path id="DejaVuSans-Bold-48" d="M 4031 1759 
L 4031 1441 
L 1416 1441 
Q 1456 1047 1700 850 
Q 1944 653 2381 653 
Q 2734 653 3104 758 
Q 3475 863 3866 1075 
L 3866 213 
Q 3469 63 3072 -14 
Q 2675 -91 2278 -91 
Q 1328 -91 801 392 
Q 275 875 275 1747 
Q 275 2603 792 3093 
Q 1309 3584 2216 3584 
Q 3041 3584 3536 3087 
Q 4031 2591 4031 1759 
z
M 2881 2131 
Q 2881 2450 2695 2645 
Q 2509 2841 2209 2841 
Q 1884 2841 1681 2658 
Q 1478 2475 1428 2131 
L 2881 2131 
z
" transform="scale(0.015625)"/>
      <path id="DejaVuSans-Bold-55" d="M 3138 2547 
Q 2991 2616 2845 2648 
Q 2700 2681 2553 2681 
Q 2122 2681 1889 2404 
Q 1656 2128 1656 1613 
L 1656 0 
L 538 0 
L 538 3500 
L 1656 3500 
L 1656 2925 
Q 1872 3269 2151 3426 
Q 2431 3584 2822 3584 
Q 2878 3584 2943 3579 
Q 3009 3575 3134 3559 
L 3138 2547 
z
" transform="scale(0.015625)"/>
      <path id="DejaVuSans-Bold-28" d="M 588 4666 
L 3834 4666 
L 3834 3756 
L 1791 3756 
L 1791 2888 
L 3713 2888 
L 3713 1978 
L 1791 1978 
L 1791 909 
L 3903 909 
L 3903 0 
L 588 0 
L 588 4666 
z
" transform="scale(0.015625)"/>
      <path id="DejaVuSans-Bold-56" d="M 3272 3391 
L 3272 2541 
Q 2913 2691 2578 2766 
Q 2244 2841 1947 2841 
Q 1628 2841 1473 2761 
Q 1319 2681 1319 2516 
Q 1319 2381 1436 2309 
Q 1553 2238 1856 2203 
L 2053 2175 
Q 2913 2066 3209 1816 
Q 3506 1566 3506 1031 
Q 3506 472 3093 190 
Q 2681 -91 1863 -91 
Q 1516 -91 1145 -36 
Q 775 19 384 128 
L 384 978 
Q 719 816 1070 734 
Q 1422 653 1784 653 
Q 2113 653 2278 743 
Q 2444 834 2444 1013 
Q 2444 1163 2330 1236 
Q 2216 1309 1875 1350 
L 1678 1375 
Q 931 1469 631 1722 
Q 331 1975 331 2491 
Q 331 3047 712 3315 
Q 1094 3584 1881 3584 
Q 2191 3584 2531 3537 
Q 2872 3491 3272 3391 
z
" transform="scale(0.015625)"/>
      <path id="DejaVuSans-Bold-52" d="M 2203 2784 
Q 1831 2784 1636 2517 
Q 1441 2250 1441 1747 
Q 1441 1244 1636 976 
Q 1831 709 2203 709 
Q 2569 709 2762 976 
Q 2956 1244 2956 1747 
Q 2956 2250 2762 2517 
Q 2569 2784 2203 2784 
z
M 2203 3584 
Q 3106 3584 3614 3096 
Q 4122 2609 4122 1747 
Q 4122 884 3614 396 
Q 3106 -91 2203 -91 
Q 1297 -91 786 396 
Q 275 884 275 1747 
Q 275 2609 786 3096 
Q 1297 3584 2203 3584 
z
" transform="scale(0.015625)"/>
     </defs>
     <use xlink:href="#DejaVuSans-Bold-2e"/>
     <use xlink:href="#DejaVuSans-Bold-44" transform="translate(77.484375 0)"/>
     <use xlink:href="#DejaVuSans-Bold-4f" transform="translate(144.96875 0)"/>
     <use xlink:href="#DejaVuSans-Bold-50" transform="translate(179.25 0)"/>
     <use xlink:href="#DejaVuSans-Bold-44" transform="translate(283.453125 0)"/>
     <use xlink:href="#DejaVuSans-Bold-51" transform="translate(350.9375 0)"/>
     <use xlink:href="#DejaVuSans-Bold-3" transform="translate(422.125 0)"/>
     <use xlink:href="#DejaVuSans-Bold-29" transform="translate(456.9375 0)"/>
     <use xlink:href="#DejaVuSans-Bold-4c" transform="translate(525.25 0)"/>
     <use xlink:href="#DejaVuSans-Bold-4f" transform="translate(559.53125 0)"/>
     <use xlink:href="#DejaVuSans-Bold-57" transform="translate(593.8125 0)"/>
     <use xlink:href="#DejaVuSans-Bold-48" transform="translate(641.609375 0)"/>
     <use xlink:href="#DejaVuSans-Bold-55" transform="translate(709.4375 0)"/>
     <use xlink:href="#DejaVuSans-Bold-3" transform="translate(758.75 0)"/>
     <use xlink:href="#DejaVuSans-Bold-28" transform="translate(793.5625 0)"/>
     <use xlink:href="#DejaVuSans-Bold-56" transform="translate(861.875 0)"/>
     <use xlink:href="#DejaVuSans-Bold-57" transform="translate(921.390625 0)"/>
     <use xlink:href="#DejaVuSans-Bold-4c" transform="translate(969.1875 0)"/>
     <use xlink:href="#DejaVuSans-Bold-50" transform="translate(1003.46875 0)"/>
     <use xlink:href="#DejaVuSans-Bold-44" transform="translate(1107.671875 0)"/>
     <use xlink:href="#DejaVuSans-Bold-57" transform="translate(1175.15625 0)"/>
     <use xlink:href="#DejaVuSans-Bold-4c" transform="translate(1222.953125 0)"/>
     <use xlink:href="#DejaVuSans-Bold-52" transform="translate(1257.234375 0)"/>
     <use xlink:href="#DejaVuSans-Bold-51" transform="translate(1325.9375 0)"/>
     <use xlink:href="#DejaVuSans-Bold-3" transform="translate(1397.125 0)"/>
     <use xlink:href="#DejaVuSans-Bold-28" transform="translate(1431.9375 0)"/>
     <use xlink:href="#DejaVuSans-Bold-55" transform="translate(1500.25 0)"/>
     <use xlink:href="#DejaVuSans-Bold-55" transform="translate(1549.5625 0)"/>
     <use xlink:href="#DejaVuSans-Bold-52" transform="translate(1598.875 0)"/>
     <use xlink:href="#DejaVuSans-Bold-55" transform="translate(1667.578125 0)"/>
    </g>
   </g>
  </g>
  <g id="axes_2">
   <g id="patch_5">
    <path d="M 45.103984 385.599141 
L 561.6 385.599141 
L 561.6 217.858633 
L 45.103984 217.858633 
L 45.103984 385.599141 
z
" style="fill: none"/>
   </g>
   <g id="matplotlib.axis_3">
    <g id="xtick_10">
     <g id="line2d_16">
      <g>
       <use xlink:href="#m1a72b1f1e0" x="68.581076" y="385.599141" style="fill: #7f7f7f; stroke: #7f7f7f; stroke-width: 1.8"/>
      </g>
     </g>
     <g id="text_17">
      <!-- 0.0 -->
      <g style="fill: #7f7f7f" transform="translate(60.629513 400.196797) scale(0.1 -0.1)">
       <use xlink:href="#DejaVuSans-13"/>
       <use xlink:href="#DejaVuSans-11" transform="translate(63.625 0)"/>
       <use xlink:href="#DejaVuSans-13" transform="translate(95.40625 0)"/>
      </g>
     </g>
    </g>
    <g id="xtick_11">
     <g id="line2d_17">
      <g>
       <use xlink:href="#m1a72b1f1e0" x="127.273805" y="385.599141" style="fill: #7f7f7f; stroke: #7f7f7f; stroke-width: 1.8"/>
      </g>
     </g>
     <g id="text_18">
      <!-- 2.5 -->
      <g style="fill: #7f7f7f" transform="translate(119.322243 400.196797) scale(0.1 -0.1)">
       <use xlink:href="#DejaVuSans-15"/>
       <use xlink:href="#DejaVuSans-11" transform="translate(63.625 0)"/>
       <use xlink:href="#DejaVuSans-18" transform="translate(95.40625 0)"/>
      </g>
     </g>
    </g>
    <g id="xtick_12">
     <g id="line2d_18">
      <g>
       <use xlink:href="#m1a72b1f1e0" x="185.966534" y="385.599141" style="fill: #7f7f7f; stroke: #7f7f7f; stroke-width: 1.8"/>
      </g>
     </g>
     <g id="text_19">
      <!-- 5.0 -->
      <g style="fill: #7f7f7f" transform="translate(178.014972 400.196797) scale(0.1 -0.1)">
       <use xlink:href="#DejaVuSans-18"/>
       <use xlink:href="#DejaVuSans-11" transform="translate(63.625 0)"/>
       <use xlink:href="#DejaVuSans-13" transform="translate(95.40625 0)"/>
      </g>
     </g>
    </g>
    <g id="xtick_13">
     <g id="line2d_19">
      <g>
       <use xlink:href="#m1a72b1f1e0" x="244.659263" y="385.599141" style="fill: #7f7f7f; stroke: #7f7f7f; stroke-width: 1.8"/>
      </g>
     </g>
     <g id="text_20">
      <!-- 7.5 -->
      <g style="fill: #7f7f7f" transform="translate(236.707701 400.196797) scale(0.1 -0.1)">
       <use xlink:href="#DejaVuSans-1a"/>
       <use xlink:href="#DejaVuSans-11" transform="translate(63.625 0)"/>
       <use xlink:href="#DejaVuSans-18" transform="translate(95.40625 0)"/>
      </g>
     </g>
    </g>
    <g id="xtick_14">
     <g id="line2d_20">
      <g>
       <use xlink:href="#m1a72b1f1e0" x="303.351992" y="385.599141" style="fill: #7f7f7f; stroke: #7f7f7f; stroke-width: 1.8"/>
      </g>
     </g>
     <g id="text_21">
      <!-- 10.0 -->
      <g style="fill: #7f7f7f" transform="translate(292.21918 400.196797) scale(0.1 -0.1)">
       <use xlink:href="#DejaVuSans-14"/>
       <use xlink:href="#DejaVuSans-13" transform="translate(63.625 0)"/>
       <use xlink:href="#DejaVuSans-11" transform="translate(127.25 0)"/>
       <use xlink:href="#DejaVuSans-13" transform="translate(159.03125 0)"/>
      </g>
     </g>
    </g>
    <g id="xtick_15">
     <g id="line2d_21">
      <g>
       <use xlink:href="#m1a72b1f1e0" x="362.044721" y="385.599141" style="fill: #7f7f7f; stroke: #7f7f7f; stroke-width: 1.8"/>
      </g>
     </g>
     <g id="text_22">
      <!-- 12.5 -->
      <g style="fill: #7f7f7f" transform="translate(350.911909 400.196797) scale(0.1 -0.1)">
       <use xlink:href="#DejaVuSans-14"/>
       <use xlink:href="#DejaVuSans-15" transform="translate(63.625 0)"/>
       <use xlink:href="#DejaVuSans-11" transform="translate(127.25 0)"/>
       <use xlink:href="#DejaVuSans-18" transform="translate(159.03125 0)"/>
      </g>
     </g>
    </g>
    <g id="xtick_16">
     <g id="line2d_22">
      <g>
       <use xlink:href="#m1a72b1f1e0" x="420.73745" y="385.599141" style="fill: #7f7f7f; stroke: #7f7f7f; stroke-width: 1.8"/>
      </g>
     </g>
     <g id="text_23">
      <!-- 15.0 -->
      <g style="fill: #7f7f7f" transform="translate(409.604638 400.196797) scale(0.1 -0.1)">
       <use xlink:href="#DejaVuSans-14"/>
       <use xlink:href="#DejaVuSans-18" transform="translate(63.625 0)"/>
       <use xlink:href="#DejaVuSans-11" transform="translate(127.25 0)"/>
       <use xlink:href="#DejaVuSans-13" transform="translate(159.03125 0)"/>
      </g>
     </g>
    </g>
    <g id="xtick_17">
     <g id="line2d_23">
      <g>
       <use xlink:href="#m1a72b1f1e0" x="479.430179" y="385.599141" style="fill: #7f7f7f; stroke: #7f7f7f; stroke-width: 1.8"/>
      </g>
     </g>
     <g id="text_24">
      <!-- 17.5 -->
      <g style="fill: #7f7f7f" transform="translate(468.297367 400.196797) scale(0.1 -0.1)">
       <use xlink:href="#DejaVuSans-14"/>
       <use xlink:href="#DejaVuSans-1a" transform="translate(63.625 0)"/>
       <use xlink:href="#DejaVuSans-11" transform="translate(127.25 0)"/>
       <use xlink:href="#DejaVuSans-18" transform="translate(159.03125 0)"/>
      </g>
     </g>
    </g>
    <g id="xtick_18">
     <g id="line2d_24">
      <g>
       <use xlink:href="#m1a72b1f1e0" x="538.122908" y="385.599141" style="fill: #7f7f7f; stroke: #7f7f7f; stroke-width: 1.8"/>
      </g>
     </g>
     <g id="text_25">
      <!-- 20.0 -->
      <g style="fill: #7f7f7f" transform="translate(526.990096 400.196797) scale(0.1 -0.1)">
       <use xlink:href="#DejaVuSans-15"/>
       <use xlink:href="#DejaVuSans-13" transform="translate(63.625 0)"/>
       <use xlink:href="#DejaVuSans-11" transform="translate(127.25 0)"/>
       <use xlink:href="#DejaVuSans-13" transform="translate(159.03125 0)"/>
      </g>
     </g>
    </g>
    <g id="text_26">
     <!-- Time [s] -->
     <g style="fill: #7f7f7f" transform="translate(280.987617 414.957422) scale(0.11 -0.11)">
      <defs>
       <path id="DejaVuSans-37" d="M -19 4666 
L 3928 4666 
L 3928 4134 
L 2272 4134 
L 2272 0 
L 1638 0 
L 1638 4134 
L -19 4134 
L -19 4666 
z
" transform="scale(0.015625)"/>
       <path id="DejaVuSans-48" d="M 3597 1894 
L 3597 1613 
L 953 1613 
Q 991 1019 1311 708 
Q 1631 397 2203 397 
Q 2534 397 2845 478 
Q 3156 559 3463 722 
L 3463 178 
Q 3153 47 2828 -22 
Q 2503 -91 2169 -91 
Q 1331 -91 842 396 
Q 353 884 353 1716 
Q 353 2575 817 3079 
Q 1281 3584 2069 3584 
Q 2775 3584 3186 3129 
Q 3597 2675 3597 1894 
z
M 3022 2063 
Q 3016 2534 2758 2815 
Q 2500 3097 2075 3097 
Q 1594 3097 1305 2825 
Q 1016 2553 972 2059 
L 3022 2063 
z
" transform="scale(0.015625)"/>
      </defs>
      <use xlink:href="#DejaVuSans-37"/>
      <use xlink:href="#DejaVuSans-4c" transform="translate(58 0)"/>
      <use xlink:href="#DejaVuSans-50" transform="translate(85.78125 0)"/>
      <use xlink:href="#DejaVuSans-48" transform="translate(183.1875 0)"/>
      <use xlink:href="#DejaVuSans-3" transform="translate(244.71875 0)"/>
      <use xlink:href="#DejaVuSans-3e" transform="translate(276.5 0)"/>
      <use xlink:href="#DejaVuSans-56" transform="translate(315.515625 0)"/>
      <use xlink:href="#DejaVuSans-40" transform="translate(367.609375 0)"/>
     </g>
    </g>
   </g>
   <g id="matplotlib.axis_4">
    <g id="ytick_6">
     <g id="line2d_25">
      <g>
       <use xlink:href="#me4410b3697" x="45.103984" y="377.97612" style="fill: #7f7f7f; stroke: #7f7f7f; stroke-width: 1.8"/>
      </g>
     </g>
     <g id="text_27">
      <!-- 0.0 -->
      <g style="fill: #7f7f7f" transform="translate(22.200859 381.774948) scale(0.1 -0.1)">
       <use xlink:href="#DejaVuSans-13"/>
       <use xlink:href="#DejaVuSans-11" transform="translate(63.625 0)"/>
       <use xlink:href="#DejaVuSans-13" transform="translate(95.40625 0)"/>
      </g>
     </g>
    </g>
    <g id="ytick_7">
     <g id="line2d_26">
      <g>
       <use xlink:href="#me4410b3697" x="45.103984" y="345.098949" style="fill: #7f7f7f; stroke: #7f7f7f; stroke-width: 1.8"/>
      </g>
     </g>
     <g id="text_28">
      <!-- 0.5 -->
      <g style="fill: #7f7f7f" transform="translate(22.200859 348.897778) scale(0.1 -0.1)">
       <use xlink:href="#DejaVuSans-13"/>
       <use xlink:href="#DejaVuSans-11" transform="translate(63.625 0)"/>
       <use xlink:href="#DejaVuSans-18" transform="translate(95.40625 0)"/>
      </g>
     </g>
    </g>
    <g id="ytick_8">
     <g id="line2d_27">
      <g>
       <use xlink:href="#me4410b3697" x="45.103984" y="312.221779" style="fill: #7f7f7f; stroke: #7f7f7f; stroke-width: 1.8"/>
      </g>
     </g>
     <g id="text_29">
      <!-- 1.0 -->
      <g style="fill: #7f7f7f" transform="translate(22.200859 316.020607) scale(0.1 -0.1)">
       <use xlink:href="#DejaVuSans-14"/>
       <use xlink:href="#DejaVuSans-11" transform="translate(63.625 0)"/>
       <use xlink:href="#DejaVuSans-13" transform="translate(95.40625 0)"/>
      </g>
     </g>
    </g>
    <g id="ytick_9">
     <g id="line2d_28">
      <g>
       <use xlink:href="#me4410b3697" x="45.103984" y="279.344608" style="fill: #7f7f7f; stroke: #7f7f7f; stroke-width: 1.8"/>
      </g>
     </g>
     <g id="text_30">
      <!-- 1.5 -->
      <g style="fill: #7f7f7f" transform="translate(22.200859 283.143436) scale(0.1 -0.1)">
       <use xlink:href="#DejaVuSans-14"/>
       <use xlink:href="#DejaVuSans-11" transform="translate(63.625 0)"/>
       <use xlink:href="#DejaVuSans-18" transform="translate(95.40625 0)"/>
      </g>
     </g>
    </g>
    <g id="ytick_10">
     <g id="line2d_29">
      <g>
       <use xlink:href="#me4410b3697" x="45.103984" y="246.467437" style="fill: #7f7f7f; stroke: #7f7f7f; stroke-width: 1.8"/>
      </g>
     </g>
     <g id="text_31">
      <!-- 2.0 -->
      <g style="fill: #7f7f7f" transform="translate(22.200859 250.266265) scale(0.1 -0.1)">
       <use xlink:href="#DejaVuSans-15"/>
       <use xlink:href="#DejaVuSans-11" transform="translate(63.625 0)"/>
       <use xlink:href="#DejaVuSans-13" transform="translate(95.40625 0)"/>
      </g>
     </g>
    </g>
    <g id="text_32">
     <!-- Velocity Error [m/s] -->
     <g style="fill: #7f7f7f" transform="translate(15.558281 354.574434) rotate(-90) scale(0.11 -0.11)">
      <defs>
       <path id="DejaVuSans-39" d="M 1831 0 
L 50 4666 
L 709 4666 
L 2188 738 
L 3669 4666 
L 4325 4666 
L 2547 0 
L 1831 0 
z
" transform="scale(0.015625)"/>
       <path id="DejaVuSans-4f" d="M 603 4863 
L 1178 4863 
L 1178 0 
L 603 0 
L 603 4863 
z
" transform="scale(0.015625)"/>
       <path id="DejaVuSans-46" d="M 3122 3366 
L 3122 2828 
Q 2878 2963 2633 3030 
Q 2388 3097 2138 3097 
Q 1578 3097 1268 2742 
Q 959 2388 959 1747 
Q 959 1106 1268 751 
Q 1578 397 2138 397 
Q 2388 397 2633 464 
Q 2878 531 3122 666 
L 3122 134 
Q 2881 22 2623 -34 
Q 2366 -91 2075 -91 
Q 1284 -91 818 406 
Q 353 903 353 1747 
Q 353 2603 823 3093 
Q 1294 3584 2113 3584 
Q 2378 3584 2631 3529 
Q 2884 3475 3122 3366 
z
" transform="scale(0.015625)"/>
       <path id="DejaVuSans-5c" d="M 2059 -325 
Q 1816 -950 1584 -1140 
Q 1353 -1331 966 -1331 
L 506 -1331 
L 506 -850 
L 844 -850 
Q 1081 -850 1212 -737 
Q 1344 -625 1503 -206 
L 1606 56 
L 191 3500 
L 800 3500 
L 1894 763 
L 2988 3500 
L 3597 3500 
L 2059 -325 
z
" transform="scale(0.015625)"/>
       <path id="DejaVuSans-12" d="M 1625 4666 
L 2156 4666 
L 531 -594 
L 0 -594 
L 1625 4666 
z
" transform="scale(0.015625)"/>
      </defs>
      <use xlink:href="#DejaVuSans-39"/>
      <use xlink:href="#DejaVuSans-48" transform="translate(60.640625 0)"/>
      <use xlink:href="#DejaVuSans-4f" transform="translate(122.171875 0)"/>
      <use xlink:href="#DejaVuSans-52" transform="translate(149.953125 0)"/>
      <use xlink:href="#DejaVuSans-46" transform="translate(211.140625 0)"/>
      <use xlink:href="#DejaVuSans-4c" transform="translate(266.125 0)"/>
      <use xlink:href="#DejaVuSans-57" transform="translate(293.90625 0)"/>
      <use xlink:href="#DejaVuSans-5c" transform="translate(333.109375 0)"/>
      <use xlink:href="#DejaVuSans-3" transform="translate(392.296875 0)"/>
      <use xlink:href="#DejaVuSans-28" transform="translate(424.078125 0)"/>
      <use xlink:href="#DejaVuSans-55" transform="translate(487.265625 0)"/>
      <use xlink:href="#DejaVuSans-55" transform="translate(526.625 0)"/>
      <use xlink:href="#DejaVuSans-52" transform="translate(565.53125 0)"/>
      <use xlink:href="#DejaVuSans-55" transform="translate(626.71875 0)"/>
      <use xlink:href="#DejaVuSans-3" transform="translate(667.828125 0)"/>
      <use xlink:href="#DejaVuSans-3e" transform="translate(699.609375 0)"/>
      <use xlink:href="#DejaVuSans-50" transform="translate(738.625 0)"/>
      <use xlink:href="#DejaVuSans-12" transform="translate(836.03125 0)"/>
      <use xlink:href="#DejaVuSans-56" transform="translate(869.71875 0)"/>
      <use xlink:href="#DejaVuSans-40" transform="translate(921.8125 0)"/>
     </g>
    </g>
   </g>
   <g id="line2d_30">
    <path d="M 68.581076 246.467437 
L 69.050618 246.308289 
L 69.754931 245.330335 
L 71.633098 264.465297 
L 71.867869 251.907621 
L 72.337411 259.083659 
L 72.806952 269.911773 
L 73.276494 265.147341 
L 73.980807 276.018404 
L 74.450349 249.744232 
L 74.68512 249.758055 
L 75.154662 225.483201 
L 75.624203 234.030689 
L 78.910996 308.494716 
L 79.145767 308.166236 
L 81.258705 366.678991 
L 81.493476 366.356699 
L 81.728247 373.15347 
L 82.197789 363.439018 
L 82.43256 354.908305 
L 83.136873 358.716347 
L 83.371644 364.798215 
L 83.841186 361.948766 
L 84.545498 349.017398 
L 85.01504 351.699499 
L 86.423666 368.703995 
L 86.893207 364.529744 
L 87.59752 364.962529 
L 88.771375 374.209858 
L 88.067062 363.398132 
L 89.006146 370.499612 
L 89.475688 374.946215 
L 89.710458 370.06871 
L 90.414771 364.31186 
L 90.884313 367.21235 
L 92.527709 377.597941 
L 92.76248 377.6893 
L 92.997251 376.152106 
L 93.701564 377.06675 
L 94.640648 377.749538 
L 94.875419 373.594647 
L 95.11019 377.936323 
L 95.579731 374.766782 
L 95.814502 376.559199 
L 96.049273 370.698346 
L 96.518815 371.277046 
L 96.753586 367.399096 
L 97.223128 371.456758 
L 97.457899 370.745269 
L 98.162211 365.922851 
L 97.927441 371.626757 
L 98.396982 367.838203 
L 99.336066 374.036895 
L 99.805608 373.446813 
L 100.040379 373.399766 
L 100.509921 377.692593 
L 101.449004 377.183438 
L 103.327172 371.053758 
L 104.031484 375.350673 
L 103.796713 370.154235 
L 104.266255 373.0173 
L 104.735797 371.256214 
L 104.970568 372.531805 
L 105.674881 377.857836 
L 106.144423 376.38739 
L 106.379194 377.65991 
L 107.083506 368.562716 
L 107.318277 371.660502 
L 108.257361 377.712211 
L 108.492132 377.22369 
L 109.900757 371.342976 
L 110.135528 377.722418 
L 111.074612 377.079052 
L 111.309383 377.904188 
L 111.778925 375.972959 
L 112.013695 375.482076 
L 112.248466 375.937852 
L 112.483237 376.996457 
L 112.718008 375.522506 
L 112.952779 373.073635 
L 113.657092 374.303113 
L 113.891863 376.042551 
L 114.126634 371.655354 
L 114.361405 371.390449 
L 115.300488 377.769083 
L 115.77003 375.999797 
L 117.413427 367.723944 
L 118.822052 373.734701 
L 119.056823 371.810693 
L 119.526365 371.056907 
L 119.995907 369.823488 
L 120.700219 377.30878 
L 121.169761 374.763788 
L 121.404532 373.966079 
L 121.639303 375.697624 
L 122.108845 376.944845 
L 122.343616 374.531592 
L 122.813158 370.849645 
L 123.047929 374.567943 
L 123.282699 377.974572 
L 124.221783 377.083159 
L 124.691325 377.877769 
L 124.926096 377.197371 
L 125.160867 373.369581 
L 125.86518 377.778282 
L 126.569492 375.551427 
L 126.804263 376.256804 
L 127.039034 377.407065 
L 127.508576 376.348105 
L 127.743347 375.193 
L 128.212889 377.719787 
L 128.44766 375.473748 
L 129.621514 377.582208 
L 130.325827 371.940083 
L 131.03014 373.584067 
L 131.264911 375.396825 
L 131.734452 374.310535 
L 132.438765 364.566819 
L 132.908307 365.956045 
L 133.143078 367.440191 
L 133.377849 366.820081 
L 133.61262 361.754733 
L 134.316933 367.654658 
L 134.786474 364.787211 
L 135.021245 366.168638 
L 136.1951 370.017071 
L 136.429871 369.453983 
L 137.134184 376.873289 
L 137.603725 376.156103 
L 138.542809 373.110751 
L 138.073267 377.347603 
L 138.77758 374.86811 
L 140.655747 365.85877 
L 141.125289 365.981406 
L 141.829602 369.874035 
L 142.064373 368.25354 
L 143.472998 363.806207 
L 145.585937 375.008216 
L 146.055478 372.635167 
L 146.759791 369.869731 
L 146.994562 371.124988 
L 147.698875 372.795079 
L 147.933646 371.326026 
L 148.168417 368.809169 
L 148.637958 370.357042 
L 149.811813 375.115476 
L 151.68998 364.165981 
L 151.924751 364.268593 
L 152.863835 367.965605 
L 153.098606 364.792619 
L 153.333377 369.240042 
L 154.037689 377.165659 
L 154.507231 377.129655 
L 156.85494 364.822073 
L 157.089711 368.064109 
L 158.028795 367.231693 
L 158.498337 371.670422 
L 159.20265 369.601659 
L 160.141733 365.314895 
L 160.376504 368.645883 
L 160.611275 362.482937 
L 160.846046 362.507521 
L 161.080817 361.397492 
L 162.489442 368.977839 
L 164.132839 376.219362 
L 164.602381 372.519674 
L 165.071923 373.634661 
L 165.306693 376.286171 
L 165.776235 370.928565 
L 166.245777 366.905736 
L 166.95009 369.034152 
L 168.123944 374.891835 
L 168.358715 373.314185 
L 169.767341 377.484431 
L 170.002112 377.89914 
L 170.471654 373.13284 
L 170.941195 377.099677 
L 171.880279 376.703449 
L 173.758446 357.765508 
L 174.227988 359.470978 
L 174.462759 364.563299 
L 174.932301 358.5158 
L 175.167072 360.783422 
L 175.401843 357.792664 
L 176.106156 361.350871 
L 176.810468 364.75356 
L 177.045239 362.867719 
L 177.749552 360.701448 
L 177.984323 362.345129 
L 178.219094 363.444428 
L 178.688636 361.041757 
L 179.158178 356.827048 
L 179.86249 358.641759 
L 181.036345 367.448736 
L 181.271116 362.419197 
L 181.740658 369.374605 
L 183.384054 377.194509 
L 183.618825 376.292584 
L 184.79268 370.402462 
L 185.02745 371.023044 
L 185.262221 373.124694 
L 185.731763 370.302526 
L 186.905618 366.37039 
L 187.140389 369.166394 
L 187.609931 365.126619 
L 187.844701 363.254851 
L 188.314243 367.44469 
L 188.783785 368.259821 
L 189.95764 363.355013 
L 193.244432 377.163205 
L 193.948745 373.037979 
L 194.183516 376.16321 
L 194.418287 377.575463 
L 194.887829 374.689744 
L 199.583247 360.86529 
L 195.357371 375.245759 
L 199.818018 361.939806 
L 201.226644 370.031016 
L 201.461415 368.095035 
L 201.930956 371.299694 
L 202.635269 377.800439 
L 203.104811 375.426783 
L 203.809124 377.750156 
L 204.043895 376.879512 
L 205.687291 370.594726 
L 206.391604 375.573439 
L 206.861146 374.333123 
L 207.095917 373.294271 
L 207.330687 374.801149 
L 208.504542 377.718627 
L 208.974084 376.512656 
L 209.678397 376.756516 
L 210.147938 375.643369 
L 210.382709 375.417264 
L 210.61748 376.537655 
L 211.321793 370.319243 
L 211.556564 372.491503 
L 211.791335 374.7425 
L 212.260877 373.006605 
L 212.730419 367.950885 
L 213.434731 369.934526 
L 213.904273 368.980359 
L 214.373815 367.354412 
L 214.608586 369.175866 
L 215.078128 361.980843 
L 215.54767 365.771515 
L 217.425837 374.582698 
L 217.660608 371.328423 
L 218.364921 375.28794 
L 218.834462 374.488443 
L 219.069233 375.878001 
L 219.304004 377.572676 
L 220.008317 376.612294 
L 220.947401 375.933046 
L 221.651713 370.258202 
L 222.121255 373.431988 
L 222.590797 376.399642 
L 223.060339 375.552886 
L 223.29511 374.476762 
L 223.999423 375.307367 
L 224.468964 377.533026 
L 224.703735 375.309774 
L 226.112361 368.277141 
L 226.581903 374.631067 
L 227.051444 371.187707 
L 227.520986 369.479191 
L 227.755757 370.906515 
L 227.990528 372.637984 
L 228.225299 367.02382 
L 229.164383 369.774756 
L 229.399154 371.718414 
L 229.868695 368.58195 
L 230.807779 362.411181 
L 231.04255 364.462012 
L 231.277321 366.854715 
L 231.512092 363.222277 
L 231.981634 366.202379 
L 232.216405 365.20461 
L 232.451175 366.789719 
L 232.685946 371.855446 
L 233.390259 366.892022 
L 233.62503 363.210118 
L 233.859801 367.954621 
L 234.329343 366.819024 
L 234.564114 368.014627 
L 234.798885 364.494986 
L 235.268426 365.430947 
L 235.503197 364.931435 
L 235.737968 361.301722 
L 236.20751 365.525782 
L 236.442281 365.469179 
L 237.146594 362.106638 
L 237.381365 363.558237 
L 239.494303 373.635013 
L 239.729074 372.472269 
L 240.198616 374.983651 
L 240.902928 376.532783 
L 241.137699 375.872362 
L 241.37247 374.938083 
L 241.607241 377.665065 
L 242.076783 377.973448 
L 242.546325 374.901467 
L 243.015867 375.842757 
L 243.720179 377.390281 
L 244.659263 365.426324 
L 244.894034 367.537275 
L 245.128805 368.425821 
L 245.363576 365.586544 
L 245.598347 364.64392 
L 245.833118 366.62875 
L 246.30266 365.091298 
L 247.241743 372.521434 
L 248.180827 369.090702 
L 248.650369 364.14589 
L 248.88514 368.617016 
L 249.589452 377.440951 
L 250.528536 375.459612 
L 250.763307 373.140471 
L 250.998078 377.439455 
L 251.232849 376.263 
L 251.46762 377.151972 
L 251.702391 375.728164 
L 252.406703 376.724385 
L 252.876245 373.97569 
L 253.345787 371.832216 
L 254.519642 377.318786 
L 255.693496 372.143348 
L 254.989183 377.518461 
L 255.928267 372.422149 
L 256.163038 370.941093 
L 256.63258 373.038023 
L 256.867351 373.852642 
L 257.336893 368.905496 
L 257.571664 374.076852 
L 258.745518 376.98121 
L 259.449831 371.526649 
L 259.684602 374.114165 
L 261.79754 368.793939 
L 262.736624 374.954679 
L 262.971395 370.473294 
L 263.440936 376.305523 
L 263.675707 374.957687 
L 263.910478 375.351349 
L 264.849562 368.093858 
L 265.319104 368.643886 
L 265.553875 372.043815 
L 266.258187 369.844714 
L 266.492958 369.982458 
L 266.727729 367.253164 
L 267.197271 372.223132 
L 267.666813 371.394493 
L 268.840668 375.439426 
L 269.310209 371.696268 
L 269.779751 375.713651 
L 270.014522 375.691809 
L 270.249293 377.404026 
L 270.484064 374.558781 
L 272.597002 363.22226 
L 273.536086 363.402891 
L 273.770857 362.957388 
L 274.475169 369.125796 
L 274.70994 365.720797 
L 274.944711 364.849288 
L 275.414253 366.414904 
L 275.649024 366.887466 
L 275.883795 366.200998 
L 276.353337 364.396251 
L 277.05765 359.089795 
L 277.29242 361.786958 
L 277.761962 364.057252 
L 278.231504 361.393836 
L 280.579213 352.431253 
L 280.813984 356.147001 
L 281.518297 357.056982 
L 281.283526 354.098494 
L 281.987839 356.672541 
L 282.22261 354.403704 
L 282.692152 356.65914 
L 284.100777 362.915052 
L 284.570319 357.92032 
L 285.274632 360.525989 
L 285.744173 362.360948 
L 287.152799 370.319593 
L 287.622341 367.555873 
L 288.326654 369.499073 
L 290.439592 377.488751 
L 290.674363 376.456107 
L 290.909134 377.151197 
L 291.143905 375.134583 
L 291.378675 376.01748 
L 292.787301 367.303004 
L 293.022072 369.861499 
L 293.256843 370.17246 
L 294.195926 377.40507 
L 294.430697 375.089781 
L 294.665468 373.442338 
L 294.900239 377.450548 
L 295.13501 375.532965 
L 295.604552 377.654268 
L 295.839323 376.650975 
L 296.308865 369.198244 
L 297.013177 372.801473 
L 297.247948 373.476161 
L 297.482719 369.385354 
L 298.187032 371.548099 
L 298.421803 370.877264 
L 298.656574 372.923052 
L 299.360887 376.30267 
L 299.830428 374.840531 
L 301.004283 368.959783 
L 300.534741 375.783689 
L 301.473825 372.078659 
L 301.708596 372.284271 
L 303.117221 377.010653 
L 303.821534 377.95907 
L 304.056305 377.323936 
L 304.525847 371.060297 
L 304.995389 374.763252 
L 305.699701 371.178287 
L 306.169243 374.423617 
L 307.108327 377.692612 
L 308.282181 373.112751 
L 308.986494 374.528045 
L 309.456036 370.781589 
L 309.925578 371.447499 
L 310.160349 377.108386 
L 310.864662 372.374541 
L 311.099432 373.301767 
L 311.568974 371.604223 
L 312.273287 369.619927 
L 312.038516 372.867655 
L 312.508058 371.557412 
L 312.742829 371.588265 
L 314.386225 377.786812 
L 314.620996 377.649321 
L 316.029622 369.809415 
L 316.264393 370.743519 
L 316.499163 372.046245 
L 317.203476 370.762268 
L 317.438247 370.95944 
L 318.846873 377.464773 
L 320.020727 374.501404 
L 320.255498 375.873021 
L 320.72504 372.010752 
L 320.959811 373.465187 
L 321.664124 377.785337 
L 321.898895 376.286917 
L 322.368436 377.128973 
L 322.603207 375.741386 
L 322.837978 373.753738 
L 323.30752 376.555505 
L 324.011833 377.846753 
L 323.777062 376.431756 
L 324.481375 377.554318 
L 324.716146 377.346678 
L 325.89 373.834934 
L 326.124771 375.487078 
L 326.594313 372.016819 
L 327.063855 370.656933 
L 328.942022 377.790224 
L 330.585418 369.23299 
L 330.820189 370.083909 
L 331.289731 373.037685 
L 331.994044 372.061887 
L 332.228815 371.373185 
L 332.463586 372.002568 
L 333.402669 374.173955 
L 333.63744 370.893827 
L 334.341753 371.473692 
L 336.454691 377.909764 
L 336.689462 377.728573 
L 339.037171 369.3757 
L 339.976255 371.591949 
L 340.211026 370.712362 
L 340.680568 376.431701 
L 341.15011 374.308983 
L 341.384881 372.003096 
L 341.854422 376.688025 
L 342.089193 377.100571 
L 342.323964 374.448459 
L 343.028277 377.598938 
L 345.610757 359.633422 
L 345.845528 364.392388 
L 346.549841 362.054801 
L 346.784612 362.894145 
L 347.488924 356.869918 
L 347.723695 357.858054 
L 349.367092 367.678532 
L 350.775717 371.828905 
L 351.010488 374.272309 
L 351.714801 373.074309 
L 351.949572 373.462798 
L 352.184343 371.969965 
L 353.123426 368.522308 
L 354.532052 375.312037 
L 355.705906 367.251208 
L 355.940677 369.077454 
L 357.349303 372.760497 
L 357.584074 371.98036 
L 358.523157 368.214734 
L 358.757928 369.978423 
L 358.992699 370.409554 
L 359.462241 375.811782 
L 359.931783 372.730076 
L 360.166554 370.213176 
L 360.636096 373.354539 
L 360.870867 371.441755 
L 361.80995 375.581967 
L 362.044721 373.072479 
L 362.749034 374.407268 
L 362.983805 373.75482 
L 363.453347 370.804134 
L 364.39243 371.853265 
L 364.861972 373.315443 
L 365.096743 371.352385 
L 365.801056 364.402451 
L 366.74014 366.607407 
L 366.97491 371.017909 
L 367.679223 366.019116 
L 368.853078 371.042218 
L 369.32262 363.203221 
L 369.792161 366.708664 
L 372.844183 377.78913 
L 373.783267 369.879639 
L 374.48758 370.34934 
L 375.896205 377.539749 
L 376.130976 377.1493 
L 376.365747 377.696364 
L 376.835289 376.58478 
L 377.539602 374.251302 
L 377.774373 375.445687 
L 378.009144 377.795409 
L 378.478685 372.671665 
L 378.713456 371.364633 
L 378.948227 375.928964 
L 379.887311 374.770735 
L 380.591624 368.240877 
L 380.826395 370.806203 
L 382.23502 377.453852 
L 382.469791 377.627414 
L 383.408875 371.760756 
L 383.643646 374.644126 
L 383.878416 376.256529 
L 384.113187 373.043913 
L 384.347958 373.181045 
L 387.869522 357.778005 
L 388.808606 363.641141 
L 389.043377 361.995211 
L 389.278148 361.833451 
L 389.512918 362.460072 
L 390.686773 369.107678 
L 391.156315 367.896131 
L 391.391086 364.203333 
L 391.860628 370.513243 
L 392.330169 377.138609 
L 393.504024 375.324859 
L 394.208337 375.514455 
L 394.443108 377.906242 
L 394.91265 375.894587 
L 395.382191 371.631843 
L 396.086504 372.820253 
L 396.556046 372.31629 
L 396.790817 374.447505 
L 397.49513 372.739841 
L 397.7299 370.948733 
L 398.199442 374.398413 
L 398.434213 373.206411 
L 399.138526 368.731966 
L 399.608068 370.079794 
L 400.547151 377.918782 
L 401.016693 376.908208 
L 401.721006 372.339894 
L 402.190548 374.838313 
L 402.425319 377.304004 
L 402.894861 373.824635 
L 403.129632 376.141761 
L 404.068715 374.714112 
L 404.303486 376.00244 
L 404.538257 373.766967 
L 404.773028 373.818397 
L 405.007799 371.883841 
L 405.477341 376.075711 
L 405.712112 375.939683 
L 406.416424 377.197255 
L 406.181653 374.907401 
L 406.651195 376.474302 
L 406.885966 376.200515 
L 407.120737 377.30769 
L 407.355508 377.740456 
L 408.529363 374.319364 
L 408.764134 374.491467 
L 409.233675 366.631152 
L 409.937988 370.281538 
L 410.642301 369.497906 
L 411.346614 374.00735 
L 411.581385 372.31105 
L 412.285697 369.166234 
L 412.520468 371.501372 
L 413.224781 371.256069 
L 413.929094 375.156463 
L 414.398636 369.579231 
L 415.102948 369.646762 
L 416.511574 376.565818 
L 416.746345 377.617665 
L 416.981116 376.03785 
L 418.624512 368.736936 
L 418.859283 369.09733 
L 419.094054 367.391221 
L 419.328825 368.198784 
L 420.033138 374.409092 
L 420.267908 369.942374 
L 420.73745 372.228918 
L 421.441763 370.340156 
L 421.911305 364.550111 
L 422.380847 367.408824 
L 423.554701 376.891556 
L 423.789472 375.876358 
L 425.198098 369.024478 
L 425.432869 369.364392 
L 426.137181 361.243974 
L 426.371952 365.654196 
L 428.015349 372.83018 
L 428.25012 372.57602 
L 428.484891 374.357603 
L 428.719661 372.407284 
L 428.954432 369.350358 
L 429.658745 371.937805 
L 430.8326 377.63989 
L 431.771683 377.847753 
L 432.006454 375.871985 
L 432.475996 373.490274 
L 432.710767 375.967992 
L 433.649851 377.747974 
L 434.823705 372.491799 
L 435.058476 373.801303 
L 436.232331 376.89729 
L 436.701873 376.030517 
L 437.640956 367.848394 
L 438.110498 368.631703 
L 438.814811 376.363106 
L 439.519124 372.786921 
L 440.223436 371.179932 
L 440.692978 371.852292 
L 441.16252 375.987042 
L 441.866833 373.577395 
L 442.101604 372.925489 
L 442.336375 373.459748 
L 442.805916 377.770718 
L 443.275458 377.474011 
L 443.979771 377.709654 
L 444.449313 375.779471 
L 445.153626 377.947625 
L 446.562251 370.207193 
L 447.501335 377.420185 
L 447.970877 375.75577 
L 449.144731 372.492456 
L 448.440418 376.039779 
L 449.379502 373.175782 
L 450.318586 376.909791 
L 451.022898 375.174676 
L 452.196753 371.041183 
L 452.431524 373.915214 
L 453.370608 377.643313 
L 453.605379 373.454498 
L 453.840149 377.891251 
L 454.309691 377.530934 
L 454.779233 373.841708 
L 455.483546 375.371041 
L 455.718317 377.73693 
L 456.187859 373.134634 
L 456.42263 374.727695 
L 456.6574 374.774421 
L 457.361713 371.675035 
L 457.831255 372.328044 
L 458.535568 371.460908 
L 459.00511 377.594541 
L 459.709422 373.832099 
L 460.178964 373.20532 
L 460.648506 376.272222 
L 461.118048 375.980312 
L 461.352819 372.426495 
L 462.291902 373.365948 
L 463.230986 376.49753 
L 463.465757 375.323325 
L 463.700528 376.178564 
L 463.935299 374.931687 
L 464.17007 371.253006 
L 464.639612 373.410295 
L 465.813466 377.306828 
L 466.75255 373.619229 
L 466.987321 376.523991 
L 467.691634 377.468478 
L 467.456863 376.13608 
L 467.926404 376.608708 
L 468.395946 377.065485 
L 469.804572 372.552126 
L 470.743655 372.917308 
L 471.682739 377.790989 
L 471.91751 374.881402 
L 472.621823 375.634851 
L 473.091365 377.88127 
L 473.560906 376.622668 
L 474.030448 371.00972 
L 474.734761 371.875277 
L 474.969532 370.775091 
L 475.439074 377.529376 
L 475.908616 372.328069 
L 477.08247 377.640284 
L 477.552012 376.23556 
L 477.786783 374.090508 
L 478.491096 376.562286 
L 479.195408 369.687471 
L 479.430179 374.931274 
L 479.899721 377.131811 
L 480.134492 376.919408 
L 480.369263 371.955967 
L 481.073576 374.577052 
L 481.308347 376.452076 
L 481.777888 374.491874 
L 482.24743 370.059891 
L 482.716972 373.498213 
L 483.656056 377.301111 
L 483.890827 377.055818 
L 485.299452 372.248517 
L 486.003765 376.405137 
L 486.238536 372.576927 
L 486.473307 372.53724 
L 487.41239 376.070905 
L 487.881932 369.427109 
L 488.586245 370.206128 
L 489.055787 374.3317 
L 489.7601 372.113727 
L 489.994871 371.910577 
L 490.699183 377.078366 
L 491.168725 375.43917 
L 492.812122 365.48908 
L 493.281663 366.583476 
L 494.455518 377.787357 
L 495.159831 374.468027 
L 495.629373 375.600238 
L 495.864143 375.279365 
L 496.098914 373.708122 
L 496.803227 375.19659 
L 497.037998 374.81486 
L 497.742311 368.614897 
L 498.446624 368.787335 
L 499.620478 364.127095 
L 498.916165 371.436688 
L 499.855249 365.610171 
L 501.968187 375.471438 
L 502.202958 372.528478 
L 502.6725 375.68064 
L 503.611584 377.690678 
L 504.785438 374.136388 
L 505.020209 375.197446 
L 505.489751 374.463289 
L 505.959293 376.639676 
L 507.367918 368.711463 
L 509.011315 361.261978 
L 509.246086 364.093634 
L 509.715628 361.094569 
L 510.185169 360.034506 
L 510.41994 362.989695 
L 511.124253 360.099662 
L 511.359024 358.868186 
L 511.828566 361.305243 
L 512.767649 366.351493 
L 514.880588 377.064343 
L 516.054442 374.284109 
L 516.289213 374.024103 
L 517.228297 377.332188 
L 517.463068 376.839612 
L 517.697839 373.080475 
L 517.93261 376.964659 
L 518.402151 376.481341 
L 518.636922 377.399431 
L 518.871693 374.118767 
L 519.576006 376.361566 
L 520.045548 376.027961 
L 521.454173 367.901523 
L 522.628028 360.579485 
L 522.862799 362.522626 
L 523.567112 370.372597 
L 524.036653 367.61036 
L 524.271424 365.679528 
L 524.506195 368.454874 
L 524.740966 368.379724 
L 527.088675 373.890507 
L 527.323446 372.167771 
L 527.792988 376.308443 
L 528.26253 373.688268 
L 528.966843 369.762085 
L 529.671155 360.731925 
L 530.140697 362.287631 
L 531.314552 365.989973 
L 531.784094 364.421062 
L 532.018865 365.80934 
L 532.488406 375.172968 
L 533.192719 373.440198 
L 534.601345 377.123278 
L 535.305657 377.261595 
L 535.775199 374.107312 
L 536.244741 373.521418 
L 536.479512 371.593485 
L 536.714283 373.465819 
L 537.183825 376.63762 
L 537.653367 376.516436 
L 537.888137 375.672431 
L 538.122908 376.362156 
" clip-path="url(#p606d9bf9e3)" style="fill: none; stroke: #e41a1c; stroke-width: 2; stroke-linecap: square"/>
   </g>
   <g id="patch_6">
    <path d="M 45.103984 385.599141 
L 45.103984 217.858633 
" style="fill: none; stroke: #7f7f7f; stroke-width: 1.8; stroke-linejoin: miter; stroke-linecap: square"/>
   </g>
   <g id="patch_7">
    <path d="M 45.103984 385.599141 
L 561.6 385.599141 
" style="fill: none; stroke: #7f7f7f; stroke-width: 1.8; stroke-linejoin: miter; stroke-linecap: square"/>
   </g>
  </g>
 </g>
 <defs>
  <clipPath id="pe786fe7482">
   <rect x="45.103984" y="22.318125" width="516.496016" height="167.740508"/>
  </clipPath>
  <clipPath id="p606d9bf9e3">
   <rect x="45.103984" y="217.858633" width="516.496016" height="167.740508"/>
  </clipPath>
 </defs>
</svg>
