<?xml version="1.0" encoding="utf-8" standalone="no"?>
<!DOCTYPE svg PUBLIC "-//W3C//DTD SVG 1.1//EN"
  "http://www.w3.org/Graphics/SVG/1.1/DTD/svg11.dtd">
<svg xmlns:xlink="http://www.w3.org/1999/xlink" width="568.8pt" height="280.8pt" viewBox="0 0 568.8 280.8" xmlns="http://www.w3.org/2000/svg" version="1.1">
 <metadata>
  <rdf:RDF xmlns:dc="http://purl.org/dc/elements/1.1/" xmlns:cc="http://creativecommons.org/ns#" xmlns:rdf="http://www.w3.org/1999/02/22-rdf-syntax-ns#">
   <cc:Work>
    <dc:type rdf:resource="http://purl.org/dc/dcmitype/StillImage"/>
    <dc:date>2026-07-05T19:16:09.163722</dc:date>
    <dc:format>image/svg+xml</dc:format>
    <dc:creator>
     <cc:Agent>
      <dc:title>Matplotlib v3.11.0, https://matplotlib.org/</dc:title>
     </cc:Agent>
    </dc:creator>
   </cc:Work>
  </rdf:RDF>
 </metadata>
 <defs>
  <style type="text/css">*{stroke-linejoin: round; stroke-linecap: butt}</style>
 </defs>
 <g id="figure_1">
  <g id="patch_1">
   <path d="M 0 280.8 
L 568.8 280.8 
L 568.8 0 
L 0 0 
L 0 280.8 
z
" style="fill: none"/>
  </g>
  <g id="axes_1">
   <g id="patch_2">
    <path d="M 28.942188 241.599141 
L 561.6 241.599141 
L 561.6 7.2 
L 28.942188 7.2 
L 28.942188 241.599141 
z
" style="fill: none"/>
   </g>
   <g id="matplotlib.axis_1">
    <g id="xtick_1">
     <g id="line2d_1">
      <defs>
       <path id="m15f041bbfb" d="M 0 0 
L 0 3.5 
" style="stroke: #7f7f7f; stroke-width: 1.8"/>
      </defs>
      <g>
       <use xlink:href="#m15f041bbfb" x="53.153906" y="241.599141" style="fill: #7f7f7f; stroke: #7f7f7f; stroke-width: 1.8"/>
      </g>
     </g>
     <g id="text_1">
      <!-- 0.00000 -->
      <g style="fill: #7f7f7f" transform="translate(32.477344 256.196797) scale(0.1 -0.1)">
       <defs>
        <path id="DejaVuSans-13" d="M 2034 4250 
Q 1547 4250 1301 3770 
Q 1056 3291 1056 2328 
Q 1056 1369 1301 889 
Q 1547 409 2034 409 
Q 2525 409 2770 889 
Q 3016 1369 3016 2328 
Q 3016 3291 2770 3770 
Q 2525 4250 2034 4250 
z
M 2034 4750 
Q 2819 4750 3233 4129 
Q 3647 3509 3647 2328 
Q 3647 1150 3233 529 
Q 2819 -91 2034 -91 
Q 1250 -91 836 529 
Q 422 1150 422 2328 
Q 422 3509 836 4129 
Q 1250 4750 2034 4750 
z
" transform="scale(0.015625)"/>
        <path id="DejaVuSans-11" d="M 684 794 
L 1344 794 
L 1344 0 
L 684 0 
L 684 794 
z
" transform="scale(0.015625)"/>
       </defs>
       <use xlink:href="#DejaVuSans-13"/>
       <use xlink:href="#DejaVuSans-11" transform="translate(63.625 0)"/>
       <use xlink:href="#DejaVuSans-13" transform="translate(95.40625 0)"/>
       <use xlink:href="#DejaVuSans-13" transform="translate(159.03125 0)"/>
       <use xlink:href="#DejaVuSans-13" transform="translate(222.65625 0)"/>
       <use xlink:href="#DejaVuSans-13" transform="translate(286.28125 0)"/>
       <use xlink:href="#DejaVuSans-13" transform="translate(349.90625 0)"/>
      </g>
     </g>
    </g>
    <g id="xtick_2">
     <g id="line2d_2">
      <g>
       <use xlink:href="#m15f041bbfb" x="149.981416" y="241.599141" style="fill: #7f7f7f; stroke: #7f7f7f; stroke-width: 1.8"/>
      </g>
     </g>
     <g id="text_2">
      <!-- 0.00002 -->
      <g style="fill: #7f7f7f" transform="translate(129.304853 256.196797) scale(0.1 -0.1)">
       <defs>
        <path id="DejaVuSans-15" d="M 1228 531 
L 3431 531 
L 3431 0 
L 469 0 
L 469 531 
Q 828 903 1448 1529 
Q 2069 2156 2228 2338 
Q 2531 2678 2651 2914 
Q 2772 3150 2772 3378 
Q 2772 3750 2511 3984 
Q 2250 4219 1831 4219 
Q 1534 4219 1204 4116 
Q 875 4013 500 3803 
L 500 4441 
Q 881 4594 1212 4672 
Q 1544 4750 1819 4750 
Q 2544 4750 2975 4387 
Q 3406 4025 3406 3419 
Q 3406 3131 3298 2873 
Q 3191 2616 2906 2266 
Q 2828 2175 2409 1742 
Q 1991 1309 1228 531 
z
" transform="scale(0.015625)"/>
       </defs>
       <use xlink:href="#DejaVuSans-13"/>
       <use xlink:href="#DejaVuSans-11" transform="translate(63.625 0)"/>
       <use xlink:href="#DejaVuSans-13" transform="translate(95.40625 0)"/>
       <use xlink:href="#DejaVuSans-13" transform="translate(159.03125 0)"/>
       <use xlink:href="#DejaVuSans-13" transform="translate(222.65625 0)"/>
       <use xlink:href="#DejaVuSans-13" transform="translate(286.28125 0)"/>
       <use xlink:href="#DejaVuSans-15" transform="translate(349.90625 0)"/>
      </g>
     </g>
    </g>
    <g id="xtick_3">
     <g id="line2d_3">
      <g>
       <use xlink:href="#m15f041bbfb" x="246.808925" y="241.599141" style="fill: #7f7f7f; stroke: #7f7f7f; stroke-width: 1.8"/>
      </g>
     </g>
     <g id="text_3">
      <!-- 0.00004 -->
      <g style="fill: #7f7f7f" transform="translate(226.132363 256.196797) scale(0.1 -0.1)">
       <defs>
        <path id="DejaVuSans-17" d="M 2419 4116 
L 825 1625 
L 2419 1625 
L 2419 4116 
z
M 2253 4666 
L 3047 4666 
L 3047 1625 
L 3713 1625 
L 3713 1100 
L 3047 1100 
L 3047 0 
L 2419 0 
L 2419 1100 
L 313 1100 
L 313 1709 
L 2253 4666 
z
" transform="scale(0.015625)"/>
       </defs>
       <use xlink:href="#DejaVuSans-13"/>
       <use xlink:href="#DejaVuSans-11" transform="translate(63.625 0)"/>
       <use xlink:href="#DejaVuSans-13" transform="translate(95.40625 0)"/>
       <use xlink:href="#DejaVuSans-13" transform="translate(159.03125 0)"/>
       <use xlink:href="#DejaVuSans-13" transform="translate(222.65625 0)"/>
       <use xlink:href="#DejaVuSans-13" transform="translate(286.28125 0)"/>
       <use xlink:href="#DejaVuSans-17" transform="translate(349.90625 0)"/>
      </g>
     </g>
    </g>
    <g id="xtick_4">
     <g id="line2d_4">
      <g>
       <use xlink:href="#m15f041bbfb" x="343.636435" y="241.599141" style="fill: #7f7f7f; stroke: #7f7f7f; stroke-width: 1.8"/>
      </g>
     </g>
     <g id="text_4">
      <!-- 0.00006 -->
      <g style="fill: #7f7f7f" transform="translate(322.959872 256.196797) scale(0.1 -0.1)">
       <defs>
        <path id="DejaVuSans-19" d="M 2113 2584 
Q 1688 2584 1439 2293 
Q 1191 2003 1191 1497 
Q 1191 994 1439 701 
Q 1688 409 2113 409 
Q 2538 409 2786 701 
Q 3034 994 3034 1497 
Q 3034 2003 2786 2293 
Q 2538 2584 2113 2584 
z
M 3366 4563 
L 3366 3988 
Q 3128 4100 2886 4159 
Q 2644 4219 2406 4219 
Q 1781 4219 1451 3797 
Q 1122 3375 1075 2522 
Q 1259 2794 1537 2939 
Q 1816 3084 2150 3084 
Q 2853 3084 3261 2657 
Q 3669 2231 3669 1497 
Q 3669 778 3244 343 
Q 2819 -91 2113 -91 
Q 1303 -91 875 529 
Q 447 1150 447 2328 
Q 447 3434 972 4092 
Q 1497 4750 2381 4750 
Q 2619 4750 2861 4703 
Q 3103 4656 3366 4563 
z
" transform="scale(0.015625)"/>
       </defs>
       <use xlink:href="#DejaVuSans-13"/>
       <use xlink:href="#DejaVuSans-11" transform="translate(63.625 0)"/>
       <use xlink:href="#DejaVuSans-13" transform="translate(95.40625 0)"/>
       <use xlink:href="#DejaVuSans-13" transform="translate(159.03125 0)"/>
       <use xlink:href="#DejaVuSans-13" transform="translate(222.65625 0)"/>
       <use xlink:href="#DejaVuSans-13" transform="translate(286.28125 0)"/>
       <use xlink:href="#DejaVuSans-19" transform="translate(349.90625 0)"/>
      </g>
     </g>
    </g>
    <g id="xtick_5">
     <g id="line2d_5">
      <g>
       <use xlink:href="#m15f041bbfb" x="440.463944" y="241.599141" style="fill: #7f7f7f; stroke: #7f7f7f; stroke-width: 1.8"/>
      </g>
     </g>
     <g id="text_5">
      <!-- 0.00008 -->
      <g style="fill: #7f7f7f" transform="translate(419.787382 256.196797) scale(0.1 -0.1)">
       <defs>
        <path id="DejaVuSans-1b" d="M 2034 2216 
Q 1584 2216 1326 1975 
Q 1069 1734 1069 1313 
Q 1069 891 1326 650 
Q 1584 409 2034 409 
Q 2484 409 2743 651 
Q 3003 894 3003 1313 
Q 3003 1734 2745 1975 
Q 2488 2216 2034 2216 
z
M 1403 2484 
Q 997 2584 770 2862 
Q 544 3141 544 3541 
Q 544 4100 942 4425 
Q 1341 4750 2034 4750 
Q 2731 4750 3128 4425 
Q 3525 4100 3525 3541 
Q 3525 3141 3298 2862 
Q 3072 2584 2669 2484 
Q 3125 2378 3379 2068 
Q 3634 1759 3634 1313 
Q 3634 634 3220 271 
Q 2806 -91 2034 -91 
Q 1263 -91 848 271 
Q 434 634 434 1313 
Q 434 1759 690 2068 
Q 947 2378 1403 2484 
z
M 1172 3481 
Q 1172 3119 1398 2916 
Q 1625 2713 2034 2713 
Q 2441 2713 2670 2916 
Q 2900 3119 2900 3481 
Q 2900 3844 2670 4047 
Q 2441 4250 2034 4250 
Q 1625 4250 1398 4047 
Q 1172 3844 1172 3481 
z
" transform="scale(0.015625)"/>
       </defs>
       <use xlink:href="#DejaVuSans-13"/>
       <use xlink:href="#DejaVuSans-11" transform="translate(63.625 0)"/>
       <use xlink:href="#DejaVuSans-13" transform="translate(95.40625 0)"/>
       <use xlink:href="#DejaVuSans-13" transform="translate(159.03125 0)"/>
       <use xlink:href="#DejaVuSans-13" transform="translate(222.65625 0)"/>
       <use xlink:href="#DejaVuSans-13" transform="translate(286.28125 0)"/>
       <use xlink:href="#DejaVuSans-1b" transform="translate(349.90625 0)"/>
      </g>
     </g>
    </g>
    <g id="xtick_6">
     <g id="line2d_6">
      <g>
       <use xlink:href="#m15f041bbfb" x="537.291454" y="241.599141" style="fill: #7f7f7f; stroke: #7f7f7f; stroke-width: 1.8"/>
      </g>
     </g>
     <g id="text_6">
      <!-- 0.00010 -->
      <g style="fill: #7f7f7f" transform="translate(516.614891 256.196797) scale(0.1 -0.1)">
       <defs>
        <path id="DejaVuSans-14" d="M 794 531 
L 1825 531 
L 1825 4091 
L 703 3866 
L 703 4441 
L 1819 4666 
L 2450 4666 
L 2450 531 
L 3481 531 
L 3481 0 
L 794 0 
L 794 531 
z
" transform="scale(0.015625)"/>
       </defs>
       <use xlink:href="#DejaVuSans-13"/>
       <use xlink:href="#DejaVuSans-11" transform="translate(63.625 0)"/>
       <use xlink:href="#DejaVuSans-13" transform="translate(95.40625 0)"/>
       <use xlink:href="#DejaVuSans-13" transform="translate(159.03125 0)"/>
       <use xlink:href="#DejaVuSans-13" transform="translate(222.65625 0)"/>
       <use xlink:href="#DejaVuSans-14" transform="translate(286.28125 0)"/>
       <use xlink:href="#DejaVuSans-13" transform="translate(349.90625 0)"/>
      </g>
     </g>
    </g>
    <g id="text_7">
     <!-- time [s] -->
     <g style="fill: #7f7f7f" transform="translate(273.940547 270.957422) scale(0.11 -0.11)">
      <defs>
       <path id="DejaVuSans-57" d="M 1172 4494 
L 1172 3500 
L 2356 3500 
L 2356 3053 
L 1172 3053 
L 1172 1153 
Q 1172 725 1289 603 
Q 1406 481 1766 481 
L 2356 481 
L 2356 0 
L 1766 0 
Q 1100 0 847 248 
Q 594 497 594 1153 
L 594 3053 
L 172 3053 
L 172 3500 
L 594 3500 
L 594 4494 
L 1172 4494 
z
" transform="scale(0.015625)"/>
       <path id="DejaVuSans-4c" d="M 603 3500 
L 1178 3500 
L 1178 0 
L 603 0 
L 603 3500 
z
M 603 4863 
L 1178 4863 
L 1178 4134 
L 603 4134 
L 603 4863 
z
" transform="scale(0.015625)"/>
       <path id="DejaVuSans-50" d="M 3328 2828 
Q 3544 3216 3844 3400 
Q 4144 3584 4550 3584 
Q 5097 3584 5394 3201 
Q 5691 2819 5691 2113 
L 5691 0 
L 5113 0 
L 5113 2094 
Q 5113 2597 4934 2840 
Q 4756 3084 4391 3084 
Q 3944 3084 3684 2787 
Q 3425 2491 3425 1978 
L 3425 0 
L 2847 0 
L 2847 2094 
Q 2847 2600 2669 2842 
Q 2491 3084 2119 3084 
Q 1678 3084 1418 2786 
Q 1159 2488 1159 1978 
L 1159 0 
L 581 0 
L 581 3500 
L 1159 3500 
L 1159 2956 
Q 1356 3278 1631 3431 
Q 1906 3584 2284 3584 
Q 2666 3584 2933 3390 
Q 3200 3197 3328 2828 
z
" transform="scale(0.015625)"/>
       <path id="DejaVuSans-48" d="M 3597 1894 
L 3597 1613 
L 953 1613 
Q 991 1019 1311 708 
Q 1631 397 2203 397 
Q 2534 397 2845 478 
Q 3156 559 3463 722 
L 3463 178 
Q 3153 47 2828 -22 
Q 2503 -91 2169 -91 
Q 1331 -91 842 396 
Q 353 884 353 1716 
Q 353 2575 817 3079 
Q 1281 3584 2069 3584 
Q 2775 3584 3186 3129 
Q 3597 2675 3597 1894 
z
M 3022 2063 
Q 3016 2534 2758 2815 
Q 2500 3097 2075 3097 
Q 1594 3097 1305 2825 
Q 1016 2553 972 2059 
L 3022 2063 
z
" transform="scale(0.015625)"/>
       <path id="DejaVuSans-3" transform="scale(0.015625)"/>
       <path id="DejaVuSans-3e" d="M 550 4863 
L 1875 4863 
L 1875 4416 
L 1125 4416 
L 1125 -397 
L 1875 -397 
L 1875 -844 
L 550 -844 
L 550 4863 
z
" transform="scale(0.015625)"/>
       <path id="DejaVuSans-56" d="M 2834 3397 
L 2834 2853 
Q 2591 2978 2328 3040 
Q 2066 3103 1784 3103 
Q 1356 3103 1142 2972 
Q 928 2841 928 2578 
Q 928 2378 1081 2264 
Q 1234 2150 1697 2047 
L 1894 2003 
Q 2506 1872 2764 1633 
Q 3022 1394 3022 966 
Q 3022 478 2636 193 
Q 2250 -91 1575 -91 
Q 1294 -91 989 -36 
Q 684 19 347 128 
L 347 722 
Q 666 556 975 473 
Q 1284 391 1588 391 
Q 1994 391 2212 530 
Q 2431 669 2431 922 
Q 2431 1156 2273 1281 
Q 2116 1406 1581 1522 
L 1381 1569 
Q 847 1681 609 1914 
Q 372 2147 372 2553 
Q 372 3047 722 3315 
Q 1072 3584 1716 3584 
Q 2034 3584 2315 3537 
Q 2597 3491 2834 3397 
z
" transform="scale(0.015625)"/>
       <path id="DejaVuSans-40" d="M 1947 4863 
L 1947 -844 
L 622 -844 
L 622 -397 
L 1369 -397 
L 1369 4416 
L 622 4416 
L 622 4863 
L 1947 4863 
z
" transform="scale(0.015625)"/>
      </defs>
      <use xlink:href="#DejaVuSans-57"/>
      <use xlink:href="#DejaVuSans-4c" transform="translate(39.203125 0)"/>
      <use xlink:href="#DejaVuSans-50" transform="translate(66.984375 0)"/>
      <use xlink:href="#DejaVuSans-48" transform="translate(164.390625 0)"/>
      <use xlink:href="#DejaVuSans-3" transform="translate(225.921875 0)"/>
      <use xlink:href="#DejaVuSans-3e" transform="translate(257.703125 0)"/>
      <use xlink:href="#DejaVuSans-56" transform="translate(296.71875 0)"/>
      <use xlink:href="#DejaVuSans-40" transform="translate(348.8125 0)"/>
     </g>
    </g>
   </g>
   <g id="matplotlib.axis_2">
    <g id="ytick_1">
     <g id="line2d_7">
      <defs>
       <path id="m439afbbeb8" d="M 0 0 
L -3.5 0 
" style="stroke: #7f7f7f; stroke-width: 1.8"/>
      </defs>
      <g>
       <use xlink:href="#m439afbbeb8" x="28.942188" y="230.352636" style="fill: #7f7f7f; stroke: #7f7f7f; stroke-width: 1.8"/>
      </g>
     </g>
     <g id="text_8">
      <!-- −8 -->
      <g style="fill: #7f7f7f" transform="translate(7.2 234.151464) scale(0.1 -0.1)">
       <defs>
        <path id="DejaVuSans-c9c" d="M 678 2272 
L 4684 2272 
L 4684 1741 
L 678 1741 
L 678 2272 
z
" transform="scale(0.015625)"/>
       </defs>
       <use xlink:href="#DejaVuSans-c9c"/>
       <use xlink:href="#DejaVuSans-1b" transform="translate(83.796875 0)"/>
      </g>
     </g>
    </g>
    <g id="ytick_2">
     <g id="line2d_8">
      <g>
       <use xlink:href="#m439afbbeb8" x="28.942188" y="203.701698" style="fill: #7f7f7f; stroke: #7f7f7f; stroke-width: 1.8"/>
      </g>
     </g>
     <g id="text_9">
      <!-- −6 -->
      <g style="fill: #7f7f7f" transform="translate(7.2 207.500526) scale(0.1 -0.1)">
       <use xlink:href="#DejaVuSans-c9c"/>
       <use xlink:href="#DejaVuSans-19" transform="translate(83.796875 0)"/>
      </g>
     </g>
    </g>
    <g id="ytick_3">
     <g id="line2d_9">
      <g>
       <use xlink:href="#m439afbbeb8" x="28.942188" y="177.050761" style="fill: #7f7f7f; stroke: #7f7f7f; stroke-width: 1.8"/>
      </g>
     </g>
     <g id="text_10">
      <!-- −4 -->
      <g style="fill: #7f7f7f" transform="translate(7.2 180.849589) scale(0.1 -0.1)">
       <use xlink:href="#DejaVuSans-c9c"/>
       <use xlink:href="#DejaVuSans-17" transform="translate(83.796875 0)"/>
      </g>
     </g>
    </g>
    <g id="ytick_4">
     <g id="line2d_10">
      <g>
       <use xlink:href="#m439afbbeb8" x="28.942188" y="150.399823" style="fill: #7f7f7f; stroke: #7f7f7f; stroke-width: 1.8"/>
      </g>
     </g>
     <g id="text_11">
      <!-- −2 -->
      <g style="fill: #7f7f7f" transform="translate(7.2 154.198651) scale(0.1 -0.1)">
       <use xlink:href="#DejaVuSans-c9c"/>
       <use xlink:href="#DejaVuSans-15" transform="translate(83.796875 0)"/>
      </g>
     </g>
    </g>
    <g id="ytick_5">
     <g id="line2d_11">
      <g>
       <use xlink:href="#m439afbbeb8" x="28.942188" y="123.748886" style="fill: #7f7f7f; stroke: #7f7f7f; stroke-width: 1.8"/>
      </g>
     </g>
     <g id="text_12">
      <!-- 0 -->
      <g style="fill: #7f7f7f" transform="translate(15.579688 127.547714) scale(0.1 -0.1)">
       <use xlink:href="#DejaVuSans-13"/>
      </g>
     </g>
    </g>
    <g id="ytick_6">
     <g id="line2d_12">
      <g>
       <use xlink:href="#m439afbbeb8" x="28.942188" y="97.097948" style="fill: #7f7f7f; stroke: #7f7f7f; stroke-width: 1.8"/>
      </g>
     </g>
     <g id="text_13">
      <!-- 2 -->
      <g style="fill: #7f7f7f" transform="translate(15.579688 100.896777) scale(0.1 -0.1)">
       <use xlink:href="#DejaVuSans-15"/>
      </g>
     </g>
    </g>
    <g id="ytick_7">
     <g id="line2d_13">
      <g>
       <use xlink:href="#m439afbbeb8" x="28.942188" y="70.447011" style="fill: #7f7f7f; stroke: #7f7f7f; stroke-width: 1.8"/>
      </g>
     </g>
     <g id="text_14">
      <!-- 4 -->
      <g style="fill: #7f7f7f" transform="translate(15.579688 74.245839) scale(0.1 -0.1)">
       <use xlink:href="#DejaVuSans-17"/>
      </g>
     </g>
    </g>
    <g id="ytick_8">
     <g id="line2d_14">
      <g>
       <use xlink:href="#m439afbbeb8" x="28.942188" y="43.796074" style="fill: #7f7f7f; stroke: #7f7f7f; stroke-width: 1.8"/>
      </g>
     </g>
     <g id="text_15">
      <!-- 6 -->
      <g style="fill: #7f7f7f" transform="translate(15.579688 47.594902) scale(0.1 -0.1)">
       <use xlink:href="#DejaVuSans-19"/>
      </g>
     </g>
    </g>
    <g id="ytick_9">
     <g id="line2d_15">
      <g>
       <use xlink:href="#m439afbbeb8" x="28.942188" y="17.145136" style="fill: #7f7f7f; stroke: #7f7f7f; stroke-width: 1.8"/>
      </g>
     </g>
     <g id="text_16">
      <!-- 8 -->
      <g style="fill: #7f7f7f" transform="translate(15.579688 20.943964) scale(0.1 -0.1)">
       <use xlink:href="#DejaVuSans-1b"/>
      </g>
     </g>
    </g>
   </g>
   <g id="line2d_16">
    <path d="M 53.153906 123.748886 
L 57.656385 111.486365 
L 59.544522 110.474939 
L 61.142176 112.071689 
L 63.611277 118.227137 
L 70.437617 136.734913 
L 72.035271 136.838324 
L 73.778166 134.430142 
L 76.682991 126.08115 
L 82.056918 111.239817 
L 83.945054 110.550523 
L 85.542708 112.408986 
L 88.157051 119.313909 
L 94.402425 136.521638 
L 96.14532 136.896939 
L 97.888216 134.626989 
L 100.793041 126.410115 
L 106.166968 111.359178 
L 108.055104 110.508549 
L 109.652758 112.236701 
L 112.12186 118.533648 
L 118.802958 136.696334 
L 120.545853 136.771442 
L 122.288748 134.226548 
L 125.338815 125.25275 
L 130.422259 111.298515 
L 132.310395 110.528493 
L 133.908049 112.321941 
L 136.522392 119.156357 
L 142.767766 136.472904 
L 144.510661 136.923134 
L 146.108315 134.999951 
L 148.722658 128.02561 
L 154.822791 111.075612 
L 156.565686 110.550523 
L 158.16334 112.408986 
L 160.777683 119.313909 
L 167.023057 136.521638 
L 168.765953 136.896939 
L 170.508848 134.626989 
L 173.413673 126.410115 
L 178.7876 111.359178 
L 180.675736 110.508549 
L 182.27339 112.236701 
L 184.742492 118.533648 
L 191.42359 136.696334 
L 193.166485 136.771442 
L 194.90938 134.226548 
L 197.959447 125.25275 
L 203.042891 111.298515 
L 204.931027 110.528493 
L 206.528681 112.321941 
L 209.143024 119.156357 
L 215.388398 136.472904 
L 217.131294 136.923134 
L 218.728947 134.999951 
L 221.34329 128.02561 
L 227.443423 111.075612 
L 229.186319 110.550523 
L 230.783972 112.408986 
L 233.398315 119.313909 
L 239.64369 136.521638 
L 241.386585 136.896939 
L 243.12948 134.626989 
L 246.034305 126.410115 
L 251.408232 111.359178 
L 253.296368 110.508549 
L 254.894022 112.236701 
L 257.363124 118.533648 
L 264.044222 136.696334 
L 265.787117 136.771442 
L 267.530012 134.226548 
L 270.580079 125.25275 
L 275.663523 111.298515 
L 277.55166 110.528493 
L 279.149313 112.321941 
L 281.763656 119.156357 
L 288.009031 136.472904 
L 289.751926 136.923134 
L 291.34958 134.999951 
L 293.963922 128.02561 
L 300.064055 111.075612 
L 301.806951 110.550523 
L 303.404605 112.408986 
L 306.018947 119.313909 
L 312.264322 136.521638 
L 314.007217 136.896939 
L 315.750112 134.626989 
L 318.654937 126.410115 
L 324.028864 111.359178 
L 325.917001 110.508549 
L 327.514654 112.236701 
L 329.983756 118.533648 
L 336.664854 136.696334 
L 338.407749 136.771442 
L 340.150644 134.226548 
L 343.200711 125.25275 
L 348.284155 111.298515 
L 350.172292 110.528493 
L 351.769946 112.321941 
L 354.384288 119.156357 
L 360.629663 136.472904 
L 362.372558 136.923134 
L 363.970212 134.999951 
L 366.584554 128.02561 
L 372.684688 111.075612 
L 374.427583 110.550523 
L 376.025237 112.408986 
L 378.639579 119.313909 
L 384.884954 136.521638 
L 386.627849 136.896939 
L 388.370744 134.626989 
L 391.275569 126.410115 
L 396.649496 111.359178 
L 398.537633 110.508549 
L 400.135287 112.236701 
L 402.604388 118.533648 
L 409.285486 136.696334 
L 411.028381 136.771442 
L 412.771277 134.226548 
L 415.821343 125.25275 
L 420.904787 111.298515 
L 422.792924 110.528493 
L 424.390578 112.321941 
L 427.00492 119.156357 
L 433.250295 136.472904 
L 434.99319 136.923134 
L 436.590844 134.999951 
L 439.205187 128.02561 
L 445.30532 111.075612 
L 447.048215 110.550523 
L 448.645869 112.408986 
L 451.260212 119.313909 
L 457.505586 136.521638 
L 459.248481 136.896939 
L 460.991376 134.626989 
L 463.896202 126.410115 
L 469.270128 111.359178 
L 471.158265 110.508549 
L 472.755919 112.236701 
L 475.22502 118.533648 
L 481.906118 136.696334 
L 483.649013 136.771442 
L 485.391909 134.226548 
L 488.441975 125.25275 
L 493.525419 111.298515 
L 495.413556 110.528493 
L 497.01121 112.321941 
L 499.625553 119.156357 
L 505.870927 136.472904 
L 507.613822 136.923134 
L 509.211476 134.999951 
L 511.825819 128.02561 
L 517.925952 111.075612 
L 519.668847 110.550523 
L 521.266501 112.408986 
L 523.880844 119.313909 
L 530.126218 136.521638 
L 531.869113 136.896939 
L 533.612008 134.626989 
L 536.516834 126.410115 
L 537.388281 123.414016 
L 537.388281 123.414016 
" clip-path="url(#p254d1c7077)" style="fill: none; stroke: #e41a1c; stroke-width: 2; stroke-linecap: square"/>
   </g>
   <g id="line2d_17">
    <path d="M 53.153906 123.748886 
L 53.734871 126.209147 
L 53.880113 124.975461 
L 55.477766 84.525037 
L 57.946868 37.905722 
L 59.254039 23.785863 
L 59.689763 24.284722 
L 60.270728 23.720953 
L 60.851693 21.76093 
L 61.287417 22.826582 
L 63.175553 31.893996 
L 64.337484 57.29109 
L 69.856652 211.868438 
L 71.599547 223.153858 
L 73.923407 224.777788 
L 74.359131 220.468392 
L 78.716369 115.632156 
L 81.766435 44.612056 
L 84.526019 27.178858 
L 85.252226 24.464611 
L 85.687949 25.498992 
L 86.995121 36.322912 
L 91.207117 140.579737 
L 94.257184 211.588976 
L 96.14532 223.273511 
L 96.290562 223.640976 
L 96.581044 222.229578 
L 98.033457 209.700338 
L 101.228765 171.222221 
L 107.61938 22.242912 
L 108.345587 17.854506 
L 108.926552 19.487014 
L 111.395653 38.047721 
L 112.993307 70.837145 
L 118.948199 218.157352 
L 120.25537 225.550714 
L 120.545853 225.106781 
L 122.288748 222.72927 
L 122.724472 221.007838 
L 124.031643 198.084875 
L 130.857983 29.654073 
L 132.746119 20.095085 
L 133.181843 20.557838 
L 137.248598 61.223366 
L 143.493973 219.6866 
L 144.655903 218.522877 
L 145.672592 223.499662 
L 146.108315 221.165823 
L 147.996452 209.178892 
L 150.175071 148.634376 
L 155.403756 33.715791 
L 157.146651 25.057961 
L 157.872858 25.380479 
L 158.889547 28.443993 
L 162.520578 107.239525 
L 164.98968 171.878085 
L 165.570645 177.312556 
L 168.330229 224.81049 
L 168.47547 224.387803 
L 169.201676 221.88746 
L 169.6374 222.716089 
L 170.79933 226.170612 
L 171.089813 225.230219 
L 172.396984 206.137199 
L 179.368565 28.267708 
L 180.530495 31.509182 
L 180.966219 30.129099 
L 182.418631 25.039907 
L 182.709114 26.098663 
L 184.452009 47.593844 
L 186.630628 96.222886 
L 190.842625 208.480399 
L 192.876002 221.978354 
L 193.021244 222.328079 
L 193.602209 221.712462 
L 195.926069 208.266026 
L 197.23324 182.295455 
L 203.333373 37.076492 
L 205.076269 24.59431 
L 207.981094 34.345964 
L 213.355021 174.31187 
L 215.969363 222.310323 
L 216.840811 225.429898 
L 217.276535 224.906881 
L 217.8575 223.834287 
L 220.617084 209.025094 
L 221.052808 207.743638 
L 221.633773 200.17404 
L 223.957633 123.928207 
L 227.298182 32.438935 
L 228.895836 23.051139 
L 229.186319 23.210153 
L 229.912525 23.972894 
L 230.348249 23.669404 
L 230.929214 23.365355 
L 231.074455 23.928615 
L 232.236385 35.709301 
L 235.722175 106.328046 
L 238.627001 193.134166 
L 240.660378 213.827115 
L 242.693756 222.853524 
L 242.984239 221.421065 
L 245.743823 192.421876 
L 253.44161 29.700995 
L 255.184505 20.313003 
L 255.329746 20.200968 
L 255.474987 20.59579 
L 257.653606 41.395984 
L 258.960778 83.796624 
L 263.608498 207.43625 
L 264.334704 214.611821 
L 265.932358 230.17476 
L 266.368082 229.568401 
L 267.23953 225.419338 
L 269.56339 195.913702 
L 275.373041 41.094429 
L 277.987383 20.619517 
L 278.277866 20.127102 
L 278.71359 21.380934 
L 281.03745 40.900221 
L 284.813723 132.927967 
L 288.589996 219.222494 
L 289.316202 223.219536 
L 289.897167 222.2877 
L 292.51151 215.022735 
L 295.125852 166.937371 
L 301.371227 25.92779 
L 302.533157 20.216274 
L 303.114122 21.085684 
L 304.566535 32.361451 
L 305.583224 58.061662 
L 312.409563 213.064124 
L 314.442941 223.439826 
L 315.459629 225.067052 
L 315.750112 223.980953 
L 316.62156 214.246686 
L 320.10735 143.964081 
L 324.174105 37.376507 
L 325.190794 32.124284 
L 325.917001 32.239151 
L 327.078931 26.864593 
L 327.514654 28.277615 
L 329.112308 34.224915 
L 330.41948 46.739249 
L 337.245819 216.144954 
L 339.279197 228.185617 
L 339.860162 226.872902 
L 341.022092 224.646179 
L 342.038781 201.973425 
L 347.70319 42.946721 
L 349.736568 20.634225 
L 350.02705 21.492695 
L 350.898498 22.364068 
L 351.18898 22.25475 
L 352.060428 22.141634 
L 354.384288 42.41157 
L 357.724837 138.783954 
L 359.903456 190.385772 
L 362.372558 222.689642 
L 363.098764 222.913763 
L 365.858348 197.13671 
L 367.16552 177.707372 
L 373.701376 24.14794 
L 374.1371 24.449912 
L 374.863307 23.000487 
L 375.29903 21.598987 
L 375.734754 23.061811 
L 376.896684 27.428034 
L 378.058614 51.69108 
L 384.013506 194.854044 
L 386.337366 226.254802 
L 386.627849 225.519317 
L 389.968398 206.527071 
L 394.180395 89.988225 
L 396.504255 33.958664 
L 398.973356 22.701575 
L 399.263839 22.730676 
L 399.40908 23.201373 
L 401.73294 39.522983 
L 403.621077 76.840602 
L 406.23542 165.695819 
L 408.704521 216.630456 
L 410.156934 226.251203 
L 410.592658 226.163573 
L 411.464105 229.32106 
L 411.899829 227.209863 
L 412.626035 220.298885 
L 415.385619 191.025572 
L 417.128514 131.789876 
L 420.614305 33.158875 
L 422.792924 24.371156 
L 423.373889 23.207582 
L 423.664371 22.008158 
L 424.245336 23.247817 
L 425.84299 33.277511 
L 427.731127 74.423476 
L 433.395536 212.576787 
L 435.283672 227.598845 
L 435.719396 227.914351 
L 435.864638 227.476082 
L 437.898015 212.855692 
L 441.529047 135.248071 
L 445.450561 39.691062 
L 447.774421 27.351194 
L 448.355386 29.982596 
L 449.95304 35.757324 
L 452.131659 79.665258 
L 456.77938 203.386383 
L 458.957999 224.850668 
L 460.700894 230.935629 
L 460.991376 230.190845 
L 461.717583 224.749394 
L 463.024754 203.932968 
L 470.141576 32.029634 
L 472.755919 21.988708 
L 473.482125 23.141235 
L 474.789296 35.005886 
L 476.967915 95.253196 
L 481.034671 200.797781 
L 483.939496 229.39445 
L 485.101426 226.823576 
L 486.553839 216.281092 
L 488.587216 173.558035 
L 492.218248 69.151383 
L 493.525419 48.717786 
L 496.139762 17.962878 
L 497.592175 26.322153 
L 500.932724 77.570687 
L 507.613822 224.224049 
L 508.194787 223.139215 
L 511.680577 196.513952 
L 516.037815 77.001935 
L 518.652158 30.902092 
L 520.104571 24.851522 
L 520.540295 25.491982 
L 521.12126 28.37938 
L 524.171326 62.281146 
L 526.204704 119.043134 
L 529.109529 197.879395 
L 529.835736 206.326667 
L 532.159596 226.737217 
L 532.304837 226.909627 
L 532.740561 226.225561 
L 534.628697 209.590938 
L 537.388281 168.979925 
L 537.388281 168.979925 
" clip-path="url(#p254d1c7077)" style="fill: none; stroke: #377eb8; stroke-width: 2; stroke-linecap: square"/>
   </g>
   <g id="patch_3">
    <path d="M 28.942188 241.599141 
L 28.942188 7.2 
" style="fill: none; stroke: #7f7f7f; stroke-width: 1.8; stroke-linejoin: miter; stroke-linecap: square"/>
   </g>
   <g id="patch_4">
    <path d="M 28.942188 241.599141 
L 561.6 241.599141 
" style="fill: none; stroke: #7f7f7f; stroke-width: 1.8; stroke-linejoin: miter; stroke-linecap: square"/>
   </g>
   <g id="legend_1">
    <g id="line2d_18">
     <path d="M 37.942188 211.696016 
L 47.942188 211.696016 
L 57.942188 211.696016 
" style="fill: none; stroke: #e41a1c; stroke-width: 2; stroke-linecap: square"/>
    </g>
    <g id="text_17">
     <!-- Src -->
     <g style="fill: #7f7f7f" transform="translate(65.942188 215.196016) scale(0.1 -0.1)">
      <defs>
       <path id="DejaVuSans-36" d="M 3425 4513 
L 3425 3897 
Q 3066 4069 2747 4153 
Q 2428 4238 2131 4238 
Q 1616 4238 1336 4038 
Q 1056 3838 1056 3469 
Q 1056 3159 1242 3001 
Q 1428 2844 1947 2747 
L 2328 2669 
Q 3034 2534 3370 2195 
Q 3706 1856 3706 1288 
Q 3706 609 3251 259 
Q 2797 -91 1919 -91 
Q 1588 -91 1214 -16 
Q 841 59 441 206 
L 441 856 
Q 825 641 1194 531 
Q 1563 422 1919 422 
Q 2459 422 2753 634 
Q 3047 847 3047 1241 
Q 3047 1584 2836 1778 
Q 2625 1972 2144 2069 
L 1759 2144 
Q 1053 2284 737 2584 
Q 422 2884 422 3419 
Q 422 4038 858 4394 
Q 1294 4750 2059 4750 
Q 2388 4750 2728 4690 
Q 3069 4631 3425 4513 
z
" transform="scale(0.015625)"/>
       <path id="DejaVuSans-55" d="M 2631 2963 
Q 2534 3019 2420 3045 
Q 2306 3072 2169 3072 
Q 1681 3072 1420 2755 
Q 1159 2438 1159 1844 
L 1159 0 
L 581 0 
L 581 3500 
L 1159 3500 
L 1159 2956 
Q 1341 3275 1631 3429 
Q 1922 3584 2338 3584 
Q 2397 3584 2469 3576 
Q 2541 3569 2628 3553 
L 2631 2963 
z
" transform="scale(0.015625)"/>
       <path id="DejaVuSans-46" d="M 3122 3366 
L 3122 2828 
Q 2878 2963 2633 3030 
Q 2388 3097 2138 3097 
Q 1578 3097 1268 2742 
Q 959 2388 959 1747 
Q 959 1106 1268 751 
Q 1578 397 2138 397 
Q 2388 397 2633 464 
Q 2878 531 3122 666 
L 3122 134 
Q 2881 22 2623 -34 
Q 2366 -91 2075 -91 
Q 1284 -91 818 406 
Q 353 903 353 1747 
Q 353 2603 823 3093 
Q 1294 3584 2113 3584 
Q 2378 3584 2631 3529 
Q 2884 3475 3122 3366 
z
" transform="scale(0.015625)"/>
      </defs>
      <use xlink:href="#DejaVuSans-36"/>
      <use xlink:href="#DejaVuSans-55" transform="translate(63.484375 0)"/>
      <use xlink:href="#DejaVuSans-46" transform="translate(102.390625 0)"/>
     </g>
    </g>
    <g id="line2d_19">
     <path d="M 37.942188 226.696797 
L 47.942188 226.696797 
L 57.942188 226.696797 
" style="fill: none; stroke: #377eb8; stroke-width: 2; stroke-linecap: square"/>
    </g>
    <g id="text_18">
     <!-- AMP -->
     <g style="fill: #7f7f7f" transform="translate(65.942188 230.196797) scale(0.1 -0.1)">
      <defs>
       <path id="DejaVuSans-24" d="M 2188 4044 
L 1331 1722 
L 3047 1722 
L 2188 4044 
z
M 1831 4666 
L 2547 4666 
L 4325 0 
L 3669 0 
L 3244 1197 
L 1141 1197 
L 716 0 
L 50 0 
L 1831 4666 
z
" transform="scale(0.015625)"/>
       <path id="DejaVuSans-30" d="M 628 4666 
L 1569 4666 
L 2759 1491 
L 3956 4666 
L 4897 4666 
L 4897 0 
L 4281 0 
L 4281 4097 
L 3078 897 
L 2444 897 
L 1241 4097 
L 1241 0 
L 628 0 
L 628 4666 
z
" transform="scale(0.015625)"/>
       <path id="DejaVuSans-33" d="M 1259 4147 
L 1259 2394 
L 2053 2394 
Q 2494 2394 2734 2622 
Q 2975 2850 2975 3272 
Q 2975 3691 2734 3919 
Q 2494 4147 2053 4147 
L 1259 4147 
z
M 628 4666 
L 2053 4666 
Q 2838 4666 3239 4311 
Q 3641 3956 3641 3272 
Q 3641 2581 3239 2228 
Q 2838 1875 2053 1875 
L 1259 1875 
L 1259 0 
L 628 0 
L 628 4666 
z
" transform="scale(0.015625)"/>
      </defs>
      <use xlink:href="#DejaVuSans-24"/>
      <use xlink:href="#DejaVuSans-30" transform="translate(68.40625 0)"/>
      <use xlink:href="#DejaVuSans-33" transform="translate(154.6875 0)"/>
     </g>
    </g>
   </g>
  </g>
 </g>
 <defs>
  <clipPath id="p254d1c7077">
   <rect x="28.942188" y="7.2" width="532.657812" height="234.399141"/>
  </clipPath>
 </defs>
</svg>
