<?xml version="1.0" encoding="utf-8" standalone="no"?>
<!DOCTYPE svg PUBLIC "-//W3C//DTD SVG 1.1//EN"
  "http://www.w3.org/Graphics/SVG/1.1/DTD/svg11.dtd">
<svg xmlns:xlink="http://www.w3.org/1999/xlink" width="568.8pt" height="280.8pt" viewBox="0 0 568.8 280.8" xmlns="http://www.w3.org/2000/svg" version="1.1">
 <metadata>
  <rdf:RDF xmlns:dc="http://purl.org/dc/elements/1.1/" xmlns:cc="http://creativecommons.org/ns#" xmlns:rdf="http://www.w3.org/1999/02/22-rdf-syntax-ns#">
   <cc:Work>
    <dc:type rdf:resource="http://purl.org/dc/dcmitype/StillImage"/>
    <dc:date>2026-07-04T08:37:00.381124</dc:date>
    <dc:format>image/svg+xml</dc:format>
    <dc:creator>
     <cc:Agent>
      <dc:title>Matplotlib v3.11.0, https://matplotlib.org/</dc:title>
     </cc:Agent>
    </dc:creator>
   </cc:Work>
  </rdf:RDF>
 </metadata>
 <defs>
  <style type="text/css">*{stroke-linejoin: round; stroke-linecap: butt}</style>
 </defs>
 <g id="figure_1">
  <g id="patch_1">
   <path d="M 0 280.8 
L 568.8 280.8 
L 568.8 0 
L 0 0 
L 0 280.8 
z
" style="fill: none"/>
  </g>
  <g id="axes_1">
   <g id="patch_2">
    <path d="M 28.942188 241.599141 
L 561.6 241.599141 
L 561.6 7.2 
L 28.942188 7.2 
L 28.942188 241.599141 
z
" style="fill: none"/>
   </g>
   <g id="matplotlib.axis_1">
    <g id="xtick_1">
     <g id="line2d_1">
      <defs>
       <path id="m960e307eb0" d="M 0 0 
L 0 3.5 
" style="stroke: #7f7f7f; stroke-width: 1.8"/>
      </defs>
      <g>
       <use xlink:href="#m960e307eb0" x="53.153906" y="241.599141" style="fill: #7f7f7f; stroke: #7f7f7f; stroke-width: 1.8"/>
      </g>
     </g>
     <g id="text_1">
      <!-- 0.00000 -->
      <g style="fill: #7f7f7f" transform="translate(32.477344 256.196797) scale(0.1 -0.1)">
       <defs>
        <path id="DejaVuSans-13" d="M 2034 4250 
Q 1547 4250 1301 3770 
Q 1056 3291 1056 2328 
Q 1056 1369 1301 889 
Q 1547 409 2034 409 
Q 2525 409 2770 889 
Q 3016 1369 3016 2328 
Q 3016 3291 2770 3770 
Q 2525 4250 2034 4250 
z
M 2034 4750 
Q 2819 4750 3233 4129 
Q 3647 3509 3647 2328 
Q 3647 1150 3233 529 
Q 2819 -91 2034 -91 
Q 1250 -91 836 529 
Q 422 1150 422 2328 
Q 422 3509 836 4129 
Q 1250 4750 2034 4750 
z
" transform="scale(0.015625)"/>
        <path id="DejaVuSans-11" d="M 684 794 
L 1344 794 
L 1344 0 
L 684 0 
L 684 794 
z
" transform="scale(0.015625)"/>
       </defs>
       <use xlink:href="#DejaVuSans-13"/>
       <use xlink:href="#DejaVuSans-11" transform="translate(63.625 0)"/>
       <use xlink:href="#DejaVuSans-13" transform="translate(95.40625 0)"/>
       <use xlink:href="#DejaVuSans-13" transform="translate(159.03125 0)"/>
       <use xlink:href="#DejaVuSans-13" transform="translate(222.65625 0)"/>
       <use xlink:href="#DejaVuSans-13" transform="translate(286.28125 0)"/>
       <use xlink:href="#DejaVuSans-13" transform="translate(349.90625 0)"/>
      </g>
     </g>
    </g>
    <g id="xtick_2">
     <g id="line2d_2">
      <g>
       <use xlink:href="#m960e307eb0" x="149.981416" y="241.599141" style="fill: #7f7f7f; stroke: #7f7f7f; stroke-width: 1.8"/>
      </g>
     </g>
     <g id="text_2">
      <!-- 0.00002 -->
      <g style="fill: #7f7f7f" transform="translate(129.304853 256.196797) scale(0.1 -0.1)">
       <defs>
        <path id="DejaVuSans-15" d="M 1228 531 
L 3431 531 
L 3431 0 
L 469 0 
L 469 531 
Q 828 903 1448 1529 
Q 2069 2156 2228 2338 
Q 2531 2678 2651 2914 
Q 2772 3150 2772 3378 
Q 2772 3750 2511 3984 
Q 2250 4219 1831 4219 
Q 1534 4219 1204 4116 
Q 875 4013 500 3803 
L 500 4441 
Q 881 4594 1212 4672 
Q 1544 4750 1819 4750 
Q 2544 4750 2975 4387 
Q 3406 4025 3406 3419 
Q 3406 3131 3298 2873 
Q 3191 2616 2906 2266 
Q 2828 2175 2409 1742 
Q 1991 1309 1228 531 
z
" transform="scale(0.015625)"/>
       </defs>
       <use xlink:href="#DejaVuSans-13"/>
       <use xlink:href="#DejaVuSans-11" transform="translate(63.625 0)"/>
       <use xlink:href="#DejaVuSans-13" transform="translate(95.40625 0)"/>
       <use xlink:href="#DejaVuSans-13" transform="translate(159.03125 0)"/>
       <use xlink:href="#DejaVuSans-13" transform="translate(222.65625 0)"/>
       <use xlink:href="#DejaVuSans-13" transform="translate(286.28125 0)"/>
       <use xlink:href="#DejaVuSans-15" transform="translate(349.90625 0)"/>
      </g>
     </g>
    </g>
    <g id="xtick_3">
     <g id="line2d_3">
      <g>
       <use xlink:href="#m960e307eb0" x="246.808925" y="241.599141" style="fill: #7f7f7f; stroke: #7f7f7f; stroke-width: 1.8"/>
      </g>
     </g>
     <g id="text_3">
      <!-- 0.00004 -->
      <g style="fill: #7f7f7f" transform="translate(226.132363 256.196797) scale(0.1 -0.1)">
       <defs>
        <path id="DejaVuSans-17" d="M 2419 4116 
L 825 1625 
L 2419 1625 
L 2419 4116 
z
M 2253 4666 
L 3047 4666 
L 3047 1625 
L 3713 1625 
L 3713 1100 
L 3047 1100 
L 3047 0 
L 2419 0 
L 2419 1100 
L 313 1100 
L 313 1709 
L 2253 4666 
z
" transform="scale(0.015625)"/>
       </defs>
       <use xlink:href="#DejaVuSans-13"/>
       <use xlink:href="#DejaVuSans-11" transform="translate(63.625 0)"/>
       <use xlink:href="#DejaVuSans-13" transform="translate(95.40625 0)"/>
       <use xlink:href="#DejaVuSans-13" transform="translate(159.03125 0)"/>
       <use xlink:href="#DejaVuSans-13" transform="translate(222.65625 0)"/>
       <use xlink:href="#DejaVuSans-13" transform="translate(286.28125 0)"/>
       <use xlink:href="#DejaVuSans-17" transform="translate(349.90625 0)"/>
      </g>
     </g>
    </g>
    <g id="xtick_4">
     <g id="line2d_4">
      <g>
       <use xlink:href="#m960e307eb0" x="343.636435" y="241.599141" style="fill: #7f7f7f; stroke: #7f7f7f; stroke-width: 1.8"/>
      </g>
     </g>
     <g id="text_4">
      <!-- 0.00006 -->
      <g style="fill: #7f7f7f" transform="translate(322.959872 256.196797) scale(0.1 -0.1)">
       <defs>
        <path id="DejaVuSans-19" d="M 2113 2584 
Q 1688 2584 1439 2293 
Q 1191 2003 1191 1497 
Q 1191 994 1439 701 
Q 1688 409 2113 409 
Q 2538 409 2786 701 
Q 3034 994 3034 1497 
Q 3034 2003 2786 2293 
Q 2538 2584 2113 2584 
z
M 3366 4563 
L 3366 3988 
Q 3128 4100 2886 4159 
Q 2644 4219 2406 4219 
Q 1781 4219 1451 3797 
Q 1122 3375 1075 2522 
Q 1259 2794 1537 2939 
Q 1816 3084 2150 3084 
Q 2853 3084 3261 2657 
Q 3669 2231 3669 1497 
Q 3669 778 3244 343 
Q 2819 -91 2113 -91 
Q 1303 -91 875 529 
Q 447 1150 447 2328 
Q 447 3434 972 4092 
Q 1497 4750 2381 4750 
Q 2619 4750 2861 4703 
Q 3103 4656 3366 4563 
z
" transform="scale(0.015625)"/>
       </defs>
       <use xlink:href="#DejaVuSans-13"/>
       <use xlink:href="#DejaVuSans-11" transform="translate(63.625 0)"/>
       <use xlink:href="#DejaVuSans-13" transform="translate(95.40625 0)"/>
       <use xlink:href="#DejaVuSans-13" transform="translate(159.03125 0)"/>
       <use xlink:href="#DejaVuSans-13" transform="translate(222.65625 0)"/>
       <use xlink:href="#DejaVuSans-13" transform="translate(286.28125 0)"/>
       <use xlink:href="#DejaVuSans-19" transform="translate(349.90625 0)"/>
      </g>
     </g>
    </g>
    <g id="xtick_5">
     <g id="line2d_5">
      <g>
       <use xlink:href="#m960e307eb0" x="440.463944" y="241.599141" style="fill: #7f7f7f; stroke: #7f7f7f; stroke-width: 1.8"/>
      </g>
     </g>
     <g id="text_5">
      <!-- 0.00008 -->
      <g style="fill: #7f7f7f" transform="translate(419.787382 256.196797) scale(0.1 -0.1)">
       <defs>
        <path id="DejaVuSans-1b" d="M 2034 2216 
Q 1584 2216 1326 1975 
Q 1069 1734 1069 1313 
Q 1069 891 1326 650 
Q 1584 409 2034 409 
Q 2484 409 2743 651 
Q 3003 894 3003 1313 
Q 3003 1734 2745 1975 
Q 2488 2216 2034 2216 
z
M 1403 2484 
Q 997 2584 770 2862 
Q 544 3141 544 3541 
Q 544 4100 942 4425 
Q 1341 4750 2034 4750 
Q 2731 4750 3128 4425 
Q 3525 4100 3525 3541 
Q 3525 3141 3298 2862 
Q 3072 2584 2669 2484 
Q 3125 2378 3379 2068 
Q 3634 1759 3634 1313 
Q 3634 634 3220 271 
Q 2806 -91 2034 -91 
Q 1263 -91 848 271 
Q 434 634 434 1313 
Q 434 1759 690 2068 
Q 947 2378 1403 2484 
z
M 1172 3481 
Q 1172 3119 1398 2916 
Q 1625 2713 2034 2713 
Q 2441 2713 2670 2916 
Q 2900 3119 2900 3481 
Q 2900 3844 2670 4047 
Q 2441 4250 2034 4250 
Q 1625 4250 1398 4047 
Q 1172 3844 1172 3481 
z
" transform="scale(0.015625)"/>
       </defs>
       <use xlink:href="#DejaVuSans-13"/>
       <use xlink:href="#DejaVuSans-11" transform="translate(63.625 0)"/>
       <use xlink:href="#DejaVuSans-13" transform="translate(95.40625 0)"/>
       <use xlink:href="#DejaVuSans-13" transform="translate(159.03125 0)"/>
       <use xlink:href="#DejaVuSans-13" transform="translate(222.65625 0)"/>
       <use xlink:href="#DejaVuSans-13" transform="translate(286.28125 0)"/>
       <use xlink:href="#DejaVuSans-1b" transform="translate(349.90625 0)"/>
      </g>
     </g>
    </g>
    <g id="xtick_6">
     <g id="line2d_6">
      <g>
       <use xlink:href="#m960e307eb0" x="537.291454" y="241.599141" style="fill: #7f7f7f; stroke: #7f7f7f; stroke-width: 1.8"/>
      </g>
     </g>
     <g id="text_6">
      <!-- 0.00010 -->
      <g style="fill: #7f7f7f" transform="translate(516.614891 256.196797) scale(0.1 -0.1)">
       <defs>
        <path id="DejaVuSans-14" d="M 794 531 
L 1825 531 
L 1825 4091 
L 703 3866 
L 703 4441 
L 1819 4666 
L 2450 4666 
L 2450 531 
L 3481 531 
L 3481 0 
L 794 0 
L 794 531 
z
" transform="scale(0.015625)"/>
       </defs>
       <use xlink:href="#DejaVuSans-13"/>
       <use xlink:href="#DejaVuSans-11" transform="translate(63.625 0)"/>
       <use xlink:href="#DejaVuSans-13" transform="translate(95.40625 0)"/>
       <use xlink:href="#DejaVuSans-13" transform="translate(159.03125 0)"/>
       <use xlink:href="#DejaVuSans-13" transform="translate(222.65625 0)"/>
       <use xlink:href="#DejaVuSans-14" transform="translate(286.28125 0)"/>
       <use xlink:href="#DejaVuSans-13" transform="translate(349.90625 0)"/>
      </g>
     </g>
    </g>
    <g id="text_7">
     <!-- time [s] -->
     <g style="fill: #7f7f7f" transform="translate(273.940547 270.957422) scale(0.11 -0.11)">
      <defs>
       <path id="DejaVuSans-57" d="M 1172 4494 
L 1172 3500 
L 2356 3500 
L 2356 3053 
L 1172 3053 
L 1172 1153 
Q 1172 725 1289 603 
Q 1406 481 1766 481 
L 2356 481 
L 2356 0 
L 1766 0 
Q 1100 0 847 248 
Q 594 497 594 1153 
L 594 3053 
L 172 3053 
L 172 3500 
L 594 3500 
L 594 4494 
L 1172 4494 
z
" transform="scale(0.015625)"/>
       <path id="DejaVuSans-4c" d="M 603 3500 
L 1178 3500 
L 1178 0 
L 603 0 
L 603 3500 
z
M 603 4863 
L 1178 4863 
L 1178 4134 
L 603 4134 
L 603 4863 
z
" transform="scale(0.015625)"/>
       <path id="DejaVuSans-50" d="M 3328 2828 
Q 3544 3216 3844 3400 
Q 4144 3584 4550 3584 
Q 5097 3584 5394 3201 
Q 5691 2819 5691 2113 
L 5691 0 
L 5113 0 
L 5113 2094 
Q 5113 2597 4934 2840 
Q 4756 3084 4391 3084 
Q 3944 3084 3684 2787 
Q 3425 2491 3425 1978 
L 3425 0 
L 2847 0 
L 2847 2094 
Q 2847 2600 2669 2842 
Q 2491 3084 2119 3084 
Q 1678 3084 1418 2786 
Q 1159 2488 1159 1978 
L 1159 0 
L 581 0 
L 581 3500 
L 1159 3500 
L 1159 2956 
Q 1356 3278 1631 3431 
Q 1906 3584 2284 3584 
Q 2666 3584 2933 3390 
Q 3200 3197 3328 2828 
z
" transform="scale(0.015625)"/>
       <path id="DejaVuSans-48" d="M 3597 1894 
L 3597 1613 
L 953 1613 
Q 991 1019 1311 708 
Q 1631 397 2203 397 
Q 2534 397 2845 478 
Q 3156 559 3463 722 
L 3463 178 
Q 3153 47 2828 -22 
Q 2503 -91 2169 -91 
Q 1331 -91 842 396 
Q 353 884 353 1716 
Q 353 2575 817 3079 
Q 1281 3584 2069 3584 
Q 2775 3584 3186 3129 
Q 3597 2675 3597 1894 
z
M 3022 2063 
Q 3016 2534 2758 2815 
Q 2500 3097 2075 3097 
Q 1594 3097 1305 2825 
Q 1016 2553 972 2059 
L 3022 2063 
z
" transform="scale(0.015625)"/>
       <path id="DejaVuSans-3" transform="scale(0.015625)"/>
       <path id="DejaVuSans-3e" d="M 550 4863 
L 1875 4863 
L 1875 4416 
L 1125 4416 
L 1125 -397 
L 1875 -397 
L 1875 -844 
L 550 -844 
L 550 4863 
z
" transform="scale(0.015625)"/>
       <path id="DejaVuSans-56" d="M 2834 3397 
L 2834 2853 
Q 2591 2978 2328 3040 
Q 2066 3103 1784 3103 
Q 1356 3103 1142 2972 
Q 928 2841 928 2578 
Q 928 2378 1081 2264 
Q 1234 2150 1697 2047 
L 1894 2003 
Q 2506 1872 2764 1633 
Q 3022 1394 3022 966 
Q 3022 478 2636 193 
Q 2250 -91 1575 -91 
Q 1294 -91 989 -36 
Q 684 19 347 128 
L 347 722 
Q 666 556 975 473 
Q 1284 391 1588 391 
Q 1994 391 2212 530 
Q 2431 669 2431 922 
Q 2431 1156 2273 1281 
Q 2116 1406 1581 1522 
L 1381 1569 
Q 847 1681 609 1914 
Q 372 2147 372 2553 
Q 372 3047 722 3315 
Q 1072 3584 1716 3584 
Q 2034 3584 2315 3537 
Q 2597 3491 2834 3397 
z
" transform="scale(0.015625)"/>
       <path id="DejaVuSans-40" d="M 1947 4863 
L 1947 -844 
L 622 -844 
L 622 -397 
L 1369 -397 
L 1369 4416 
L 622 4416 
L 622 4863 
L 1947 4863 
z
" transform="scale(0.015625)"/>
      </defs>
      <use xlink:href="#DejaVuSans-57"/>
      <use xlink:href="#DejaVuSans-4c" transform="translate(39.203125 0)"/>
      <use xlink:href="#DejaVuSans-50" transform="translate(66.984375 0)"/>
      <use xlink:href="#DejaVuSans-48" transform="translate(164.390625 0)"/>
      <use xlink:href="#DejaVuSans-3" transform="translate(225.921875 0)"/>
      <use xlink:href="#DejaVuSans-3e" transform="translate(257.703125 0)"/>
      <use xlink:href="#DejaVuSans-56" transform="translate(296.71875 0)"/>
      <use xlink:href="#DejaVuSans-40" transform="translate(348.8125 0)"/>
     </g>
    </g>
   </g>
   <g id="matplotlib.axis_2">
    <g id="ytick_1">
     <g id="line2d_7">
      <defs>
       <path id="m02068ee165" d="M 0 0 
L -3.5 0 
" style="stroke: #7f7f7f; stroke-width: 1.8"/>
      </defs>
      <g>
       <use xlink:href="#m02068ee165" x="28.942188" y="235.631676" style="fill: #7f7f7f; stroke: #7f7f7f; stroke-width: 1.8"/>
      </g>
     </g>
     <g id="text_8">
      <!-- −8 -->
      <g style="fill: #7f7f7f" transform="translate(7.2 239.430504) scale(0.1 -0.1)">
       <defs>
        <path id="DejaVuSans-c9c" d="M 678 2272 
L 4684 2272 
L 4684 1741 
L 678 1741 
L 678 2272 
z
" transform="scale(0.015625)"/>
       </defs>
       <use xlink:href="#DejaVuSans-c9c"/>
       <use xlink:href="#DejaVuSans-1b" transform="translate(83.796875 0)"/>
      </g>
     </g>
    </g>
    <g id="ytick_2">
     <g id="line2d_8">
      <g>
       <use xlink:href="#m02068ee165" x="28.942188" y="209.018146" style="fill: #7f7f7f; stroke: #7f7f7f; stroke-width: 1.8"/>
      </g>
     </g>
     <g id="text_9">
      <!-- −6 -->
      <g style="fill: #7f7f7f" transform="translate(7.2 212.816974) scale(0.1 -0.1)">
       <use xlink:href="#DejaVuSans-c9c"/>
       <use xlink:href="#DejaVuSans-19" transform="translate(83.796875 0)"/>
      </g>
     </g>
    </g>
    <g id="ytick_3">
     <g id="line2d_9">
      <g>
       <use xlink:href="#m02068ee165" x="28.942188" y="182.404617" style="fill: #7f7f7f; stroke: #7f7f7f; stroke-width: 1.8"/>
      </g>
     </g>
     <g id="text_10">
      <!-- −4 -->
      <g style="fill: #7f7f7f" transform="translate(7.2 186.203445) scale(0.1 -0.1)">
       <use xlink:href="#DejaVuSans-c9c"/>
       <use xlink:href="#DejaVuSans-17" transform="translate(83.796875 0)"/>
      </g>
     </g>
    </g>
    <g id="ytick_4">
     <g id="line2d_10">
      <g>
       <use xlink:href="#m02068ee165" x="28.942188" y="155.791087" style="fill: #7f7f7f; stroke: #7f7f7f; stroke-width: 1.8"/>
      </g>
     </g>
     <g id="text_11">
      <!-- −2 -->
      <g style="fill: #7f7f7f" transform="translate(7.2 159.589915) scale(0.1 -0.1)">
       <use xlink:href="#DejaVuSans-c9c"/>
       <use xlink:href="#DejaVuSans-15" transform="translate(83.796875 0)"/>
      </g>
     </g>
    </g>
    <g id="ytick_5">
     <g id="line2d_11">
      <g>
       <use xlink:href="#m02068ee165" x="28.942188" y="129.177557" style="fill: #7f7f7f; stroke: #7f7f7f; stroke-width: 1.8"/>
      </g>
     </g>
     <g id="text_12">
      <!-- 0 -->
      <g style="fill: #7f7f7f" transform="translate(15.579688 132.976385) scale(0.1 -0.1)">
       <use xlink:href="#DejaVuSans-13"/>
      </g>
     </g>
    </g>
    <g id="ytick_6">
     <g id="line2d_12">
      <g>
       <use xlink:href="#m02068ee165" x="28.942188" y="102.564027" style="fill: #7f7f7f; stroke: #7f7f7f; stroke-width: 1.8"/>
      </g>
     </g>
     <g id="text_13">
      <!-- 2 -->
      <g style="fill: #7f7f7f" transform="translate(15.579688 106.362855) scale(0.1 -0.1)">
       <use xlink:href="#DejaVuSans-15"/>
      </g>
     </g>
    </g>
    <g id="ytick_7">
     <g id="line2d_13">
      <g>
       <use xlink:href="#m02068ee165" x="28.942188" y="75.950497" style="fill: #7f7f7f; stroke: #7f7f7f; stroke-width: 1.8"/>
      </g>
     </g>
     <g id="text_14">
      <!-- 4 -->
      <g style="fill: #7f7f7f" transform="translate(15.579688 79.749325) scale(0.1 -0.1)">
       <use xlink:href="#DejaVuSans-17"/>
      </g>
     </g>
    </g>
    <g id="ytick_8">
     <g id="line2d_14">
      <g>
       <use xlink:href="#m02068ee165" x="28.942188" y="49.336968" style="fill: #7f7f7f; stroke: #7f7f7f; stroke-width: 1.8"/>
      </g>
     </g>
     <g id="text_15">
      <!-- 6 -->
      <g style="fill: #7f7f7f" transform="translate(15.579688 53.135796) scale(0.1 -0.1)">
       <use xlink:href="#DejaVuSans-19"/>
      </g>
     </g>
    </g>
    <g id="ytick_9">
     <g id="line2d_15">
      <g>
       <use xlink:href="#m02068ee165" x="28.942188" y="22.723438" style="fill: #7f7f7f; stroke: #7f7f7f; stroke-width: 1.8"/>
      </g>
     </g>
     <g id="text_16">
      <!-- 8 -->
      <g style="fill: #7f7f7f" transform="translate(15.579688 26.522266) scale(0.1 -0.1)">
       <use xlink:href="#DejaVuSans-1b"/>
      </g>
     </g>
    </g>
   </g>
   <g id="line2d_16">
    <path d="M 53.153906 129.177557 
L 57.656385 116.932248 
L 59.544522 115.922241 
L 61.142176 117.51675 
L 63.611277 123.663559 
L 70.437617 142.145357 
L 72.035271 142.248622 
L 73.778166 139.84382 
L 76.682991 131.506548 
L 82.056918 116.686046 
L 83.945054 115.99772 
L 85.542708 117.853573 
L 88.157051 124.748806 
L 94.402425 141.932381 
L 96.14532 142.307155 
L 97.888216 140.040391 
L 100.793041 131.835051 
L 106.312209 116.629404 
L 108.200345 116.021801 
L 109.797999 117.942284 
L 112.412342 124.906836 
L 118.512475 141.833042 
L 120.25537 142.357394 
L 121.853024 140.50154 
L 124.467367 133.606308 
L 130.712741 116.422733 
L 132.455637 116.047959 
L 134.198532 118.314722 
L 137.103357 126.520063 
L 142.622525 141.72571 
L 144.510661 142.333313 
L 146.108315 140.41283 
L 148.722658 133.448278 
L 154.822791 116.522071 
L 156.565686 115.99772 
L 158.16334 117.853573 
L 160.777683 124.748806 
L 167.023057 141.932381 
L 168.765953 142.307155 
L 170.508848 140.040391 
L 173.413673 131.835051 
L 178.932841 116.629404 
L 180.820978 116.021801 
L 182.418631 117.942284 
L 185.032974 124.906836 
L 191.133107 141.833042 
L 192.876002 142.357394 
L 194.473656 140.50154 
L 197.087999 133.606308 
L 203.333373 116.422733 
L 205.076269 116.047959 
L 206.819164 118.314722 
L 209.723989 126.520063 
L 215.243157 141.72571 
L 217.131294 142.333313 
L 218.728947 140.41283 
L 221.34329 133.448278 
L 227.443423 116.522071 
L 229.186319 115.99772 
L 230.783972 117.853573 
L 233.398315 124.748806 
L 239.64369 141.932381 
L 241.386585 142.307155 
L 243.12948 140.040391 
L 246.034305 131.835051 
L 251.553473 116.629404 
L 253.44161 116.021801 
L 255.039264 117.942284 
L 257.653606 124.906836 
L 263.753739 141.833042 
L 265.496635 142.357394 
L 267.094288 140.50154 
L 269.708631 133.606308 
L 275.954006 116.422733 
L 277.696901 116.047959 
L 279.439796 118.314722 
L 282.344621 126.520063 
L 287.863789 141.72571 
L 289.751926 142.333313 
L 291.34958 140.41283 
L 293.963922 133.448278 
L 300.064055 116.522071 
L 301.806951 115.99772 
L 303.404605 117.853573 
L 306.018947 124.748806 
L 312.264322 141.932381 
L 314.007217 142.307155 
L 315.750112 140.040391 
L 318.654937 131.835051 
L 324.174105 116.629404 
L 326.062242 116.021801 
L 327.659896 117.942284 
L 330.274238 124.906836 
L 336.374372 141.833042 
L 338.117267 142.357394 
L 339.714921 140.50154 
L 342.329263 133.606308 
L 348.574638 116.422733 
L 350.317533 116.047959 
L 352.060428 118.314722 
L 354.965253 126.520063 
L 360.484421 141.72571 
L 362.372558 142.333313 
L 363.970212 140.41283 
L 366.584554 133.448278 
L 372.684688 116.522071 
L 374.427583 115.99772 
L 376.025237 117.853573 
L 378.639579 124.748806 
L 384.884954 141.932381 
L 386.627849 142.307155 
L 388.370744 140.040391 
L 391.275569 131.835051 
L 396.794737 116.629404 
L 398.682874 116.021801 
L 400.280528 117.942284 
L 402.894871 124.906836 
L 408.995004 141.833042 
L 410.737899 142.357394 
L 412.335553 140.50154 
L 414.949895 133.606308 
L 421.19527 116.422733 
L 422.938165 116.047959 
L 424.68106 118.314722 
L 427.585885 126.520063 
L 433.105054 141.72571 
L 434.99319 142.333313 
L 436.590844 140.41283 
L 439.205187 133.448278 
L 445.30532 116.522071 
L 447.048215 115.99772 
L 448.645869 117.853573 
L 451.260212 124.748806 
L 457.505586 141.932381 
L 459.248481 142.307155 
L 460.991376 140.040391 
L 463.896202 131.835051 
L 469.41537 116.629404 
L 471.303506 116.021801 
L 472.90116 117.942284 
L 475.515503 124.906836 
L 481.615636 141.833042 
L 483.358531 142.357394 
L 484.956185 140.50154 
L 487.570528 133.606308 
L 493.815902 116.422733 
L 495.558797 116.047959 
L 497.301692 118.314722 
L 500.206518 126.520063 
L 505.725686 141.72571 
L 507.613822 142.333313 
L 509.211476 140.41283 
L 511.825819 133.448278 
L 517.925952 116.522071 
L 519.668847 115.99772 
L 521.266501 117.853573 
L 523.880844 124.748806 
L 530.126218 141.932381 
L 531.869113 142.307155 
L 533.612008 140.040391 
L 536.516834 131.835051 
L 537.388281 128.843157 
L 537.388281 128.843157 
" clip-path="url(#pe21711c801)" style="fill: none; stroke: #e41a1c; stroke-width: 2; stroke-linecap: square"/>
   </g>
   <g id="line2d_17">
    <path d="M 53.153906 129.177557 
L 54.025354 125.700419 
L 56.784938 49.426375 
L 58.527833 29.587585 
L 60.706452 24.633083 
L 60.996935 25.554201 
L 63.030312 39.325433 
L 64.482725 63.777948 
L 71.599547 225.850736 
L 72.761477 230.944634 
L 73.051959 229.388439 
L 76.53775 193.616251 
L 78.86161 119.169925 
L 82.056918 38.451895 
L 83.799813 27.996639 
L 85.397467 25.030349 
L 85.833191 27.38742 
L 88.738016 65.077906 
L 91.352359 138.942487 
L 94.692908 223.870889 
L 95.128632 225.79063 
L 95.709597 224.300687 
L 97.307251 226.509867 
L 97.452492 226.245524 
L 98.033457 221.463047 
L 101.519247 162.251641 
L 104.714555 60.031303 
L 107.474139 25.244018 
L 108.636069 22.562008 
L 109.071793 23.600057 
L 109.652758 24.858042 
L 110.378964 34.103322 
L 114.155237 93.640907 
L 120.110129 226.577913 
L 120.836335 229.758494 
L 121.272059 227.947436 
L 124.322126 198.607101 
L 130.857983 32.590909 
L 132.165154 23.726003 
L 132.310395 23.89739 
L 132.89136 26.851007 
L 134.779497 36.760423 
L 135.505703 38.131989 
L 136.667633 52.4752 
L 141.170112 180.549841 
L 143.348731 222.414814 
L 145.091627 226.720507 
L 145.52735 225.224258 
L 148.141693 196.815342 
L 151.772725 99.062106 
L 154.096585 54.751667 
L 156.710928 21.855872 
L 156.856169 21.631215 
L 157.146651 22.617075 
L 158.889547 32.020356 
L 162.665819 92.464935 
L 164.699197 148.589356 
L 167.604022 219.431673 
L 168.330229 223.119984 
L 169.056435 222.770897 
L 170.654089 217.829383 
L 172.542225 194.566437 
L 173.994638 159.199665 
L 179.223324 39.144619 
L 179.659047 37.399484 
L 182.128149 26.0972 
L 182.854355 28.37482 
L 184.161527 37.565547 
L 186.630628 92.828014 
L 190.552142 213.134018 
L 192.149796 223.14777 
L 192.295037 223.466135 
L 192.58552 221.94523 
L 194.90938 214.68804 
L 195.780828 211.807437 
L 196.942758 202.408119 
L 198.39517 157.791077 
L 202.026202 51.017185 
L 204.495304 24.773855 
L 205.947716 21.037018 
L 208.271576 34.217958 
L 210.450195 76.591902 
L 216.840811 210.180184 
L 218.438465 218.740123 
L 218.874189 215.018903 
L 223.376668 130.459818 
L 226.426734 46.184713 
L 229.33156 22.332224 
L 229.476801 21.906644 
L 229.767284 22.768802 
L 234.705487 84.050836 
L 241.096102 220.467523 
L 241.241343 220.45465 
L 243.274721 219.055785 
L 244.146169 203.513622 
L 252.570162 31.118993 
L 254.313057 24.36786 
L 255.184505 29.18856 
L 257.944089 60.449892 
L 265.206152 229.097604 
L 265.496635 228.614314 
L 266.368082 221.368212 
L 268.40146 198.78962 
L 277.406418 20.926853 
L 277.987383 18.635588 
L 278.423107 20.174864 
L 279.730278 27.140242 
L 282.054139 55.999506 
L 285.104205 127.091569 
L 288.589996 211.868114 
L 288.735237 211.812562 
L 288.880478 212.470031 
L 289.606684 213.957969 
L 289.897167 213.227344 
L 291.204338 211.598205 
L 292.075786 208.121211 
L 294.690129 175.582351 
L 299.047367 40.930177 
L 300.209297 28.466678 
L 300.645021 31.273607 
L 300.935503 31.84763 
L 301.371227 31.033499 
L 303.695087 23.526362 
L 304.276052 25.09803 
L 305.728465 40.746141 
L 308.488049 105.107429 
L 311.828598 195.347012 
L 314.007217 221.413819 
L 314.733423 224.955133 
L 315.459629 224.38001 
L 315.895353 222.478585 
L 316.62156 212.684715 
L 319.235902 154.517737 
L 324.174105 32.374068 
L 326.207483 17.854506 
L 326.788448 18.789592 
L 327.950378 25.115658 
L 330.709962 55.837309 
L 333.760029 147.536366 
L 335.938648 194.151308 
L 338.407749 218.876465 
L 338.55299 218.824054 
L 339.133956 219.759241 
L 339.424438 218.739303 
L 341.022092 203.562504 
L 342.619746 179.534677 
L 348.429396 33.075894 
L 350.02705 23.943113 
L 351.043739 21.774175 
L 351.624704 23.381109 
L 354.52953 44.39154 
L 360.048698 194.758244 
L 362.66304 217.17223 
L 363.534488 220.187856 
L 363.970212 218.221632 
L 365.422624 200.618395 
L 372.97517 32.493945 
L 373.846618 25.02996 
L 374.572824 25.190075 
L 375.444272 24.504799 
L 375.589513 25.010881 
L 377.041926 34.595623 
L 379.075303 53.723458 
L 381.253922 116.596638 
L 384.013506 185.791652 
L 385.175436 205.794185 
L 387.063573 228.559479 
L 387.208814 228.543095 
L 387.499297 228.789379 
L 387.789779 227.734345 
L 389.09695 210.487394 
L 390.839846 175.690696 
L 393.308947 100.098091 
L 397.230461 25.985023 
L 398.682874 22.359189 
L 399.699563 19.433493 
L 400.135287 20.760648 
L 400.861493 25.593653 
L 403.040112 62.576007 
L 409.140245 221.929973 
L 410.302175 226.24821 
L 410.592658 225.808786 
L 412.335553 220.026579 
L 413.061759 211.019725 
L 416.547549 141.464722 
L 419.742857 57.97087 
L 422.938165 24.903987 
L 423.373889 24.689226 
L 423.51913 25.325607 
L 424.971543 27.479625 
L 425.697749 29.416674 
L 427.585885 62.364475 
L 430.490711 137.152665 
L 433.976501 209.812314 
L 436.300361 217.381663 
L 437.462291 209.765264 
L 438.914704 184.529662 
L 446.322009 25.46748 
L 447.62918 19.328325 
L 448.210145 22.485151 
L 451.260212 48.19373 
L 453.438831 102.375893 
L 457.069862 203.939501 
L 459.10324 225.554597 
L 459.393722 226.553669 
L 459.684205 224.784825 
L 463.169995 189.742156 
L 468.108198 50.90933 
L 470.141576 25.555013 
L 470.867782 25.846945 
L 471.303506 24.900599 
L 472.174954 22.547067 
L 472.610677 23.746602 
L 473.482125 30.661105 
L 477.984604 103.576265 
L 481.034671 191.502149 
L 484.37522 223.154934 
L 484.520461 222.549257 
L 487.134804 194.210328 
L 493.670661 31.596116 
L 496.139762 19.778776 
L 497.01121 19.173203 
L 497.156451 20.068156 
L 500.932724 74.035668 
L 502.675619 130.663279 
L 505.580444 198.216102 
L 507.032857 212.851906 
L 508.194787 225.990413 
L 508.775752 222.911546 
L 512.697266 166.676019 
L 517.344987 41.891283 
L 519.814088 22.589004 
L 519.95933 22.924984 
L 520.249812 23.860785 
L 520.976018 23.146525 
L 521.266501 23.070128 
L 521.556983 23.811901 
L 523.154637 34.522806 
L 525.333256 81.519911 
L 531.288148 214.183538 
L 531.578631 213.439412 
L 531.869113 213.422731 
L 532.014354 213.859427 
L 533.612008 221.152646 
L 533.902491 220.32728 
L 534.91918 206.288041 
L 537.388281 157.468973 
L 537.388281 157.468973 
" clip-path="url(#pe21711c801)" style="fill: none; stroke: #377eb8; stroke-width: 2; stroke-linecap: square"/>
   </g>
   <g id="patch_3">
    <path d="M 28.942188 241.599141 
L 28.942188 7.2 
" style="fill: none; stroke: #7f7f7f; stroke-width: 1.8; stroke-linejoin: miter; stroke-linecap: square"/>
   </g>
   <g id="patch_4">
    <path d="M 28.942188 241.599141 
L 561.6 241.599141 
" style="fill: none; stroke: #7f7f7f; stroke-width: 1.8; stroke-linejoin: miter; stroke-linecap: square"/>
   </g>
   <g id="legend_1">
    <g id="line2d_18">
     <path d="M 37.942188 211.696016 
L 47.942188 211.696016 
L 57.942188 211.696016 
" style="fill: none; stroke: #e41a1c; stroke-width: 2; stroke-linecap: square"/>
    </g>
    <g id="text_17">
     <!-- Src -->
     <g style="fill: #7f7f7f" transform="translate(65.942188 215.196016) scale(0.1 -0.1)">
      <defs>
       <path id="DejaVuSans-36" d="M 3425 4513 
L 3425 3897 
Q 3066 4069 2747 4153 
Q 2428 4238 2131 4238 
Q 1616 4238 1336 4038 
Q 1056 3838 1056 3469 
Q 1056 3159 1242 3001 
Q 1428 2844 1947 2747 
L 2328 2669 
Q 3034 2534 3370 2195 
Q 3706 1856 3706 1288 
Q 3706 609 3251 259 
Q 2797 -91 1919 -91 
Q 1588 -91 1214 -16 
Q 841 59 441 206 
L 441 856 
Q 825 641 1194 531 
Q 1563 422 1919 422 
Q 2459 422 2753 634 
Q 3047 847 3047 1241 
Q 3047 1584 2836 1778 
Q 2625 1972 2144 2069 
L 1759 2144 
Q 1053 2284 737 2584 
Q 422 2884 422 3419 
Q 422 4038 858 4394 
Q 1294 4750 2059 4750 
Q 2388 4750 2728 4690 
Q 3069 4631 3425 4513 
z
" transform="scale(0.015625)"/>
       <path id="DejaVuSans-55" d="M 2631 2963 
Q 2534 3019 2420 3045 
Q 2306 3072 2169 3072 
Q 1681 3072 1420 2755 
Q 1159 2438 1159 1844 
L 1159 0 
L 581 0 
L 581 3500 
L 1159 3500 
L 1159 2956 
Q 1341 3275 1631 3429 
Q 1922 3584 2338 3584 
Q 2397 3584 2469 3576 
Q 2541 3569 2628 3553 
L 2631 2963 
z
" transform="scale(0.015625)"/>
       <path id="DejaVuSans-46" d="M 3122 3366 
L 3122 2828 
Q 2878 2963 2633 3030 
Q 2388 3097 2138 3097 
Q 1578 3097 1268 2742 
Q 959 2388 959 1747 
Q 959 1106 1268 751 
Q 1578 397 2138 397 
Q 2388 397 2633 464 
Q 2878 531 3122 666 
L 3122 134 
Q 2881 22 2623 -34 
Q 2366 -91 2075 -91 
Q 1284 -91 818 406 
Q 353 903 353 1747 
Q 353 2603 823 3093 
Q 1294 3584 2113 3584 
Q 2378 3584 2631 3529 
Q 2884 3475 3122 3366 
z
" transform="scale(0.015625)"/>
      </defs>
      <use xlink:href="#DejaVuSans-36"/>
      <use xlink:href="#DejaVuSans-55" transform="translate(63.484375 0)"/>
      <use xlink:href="#DejaVuSans-46" transform="translate(102.390625 0)"/>
     </g>
    </g>
    <g id="line2d_19">
     <path d="M 37.942188 226.696797 
L 47.942188 226.696797 
L 57.942188 226.696797 
" style="fill: none; stroke: #377eb8; stroke-width: 2; stroke-linecap: square"/>
    </g>
    <g id="text_18">
     <!-- AMP -->
     <g style="fill: #7f7f7f" transform="translate(65.942188 230.196797) scale(0.1 -0.1)">
      <defs>
       <path id="DejaVuSans-24" d="M 2188 4044 
L 1331 1722 
L 3047 1722 
L 2188 4044 
z
M 1831 4666 
L 2547 4666 
L 4325 0 
L 3669 0 
L 3244 1197 
L 1141 1197 
L 716 0 
L 50 0 
L 1831 4666 
z
" transform="scale(0.015625)"/>
       <path id="DejaVuSans-30" d="M 628 4666 
L 1569 4666 
L 2759 1491 
L 3956 4666 
L 4897 4666 
L 4897 0 
L 4281 0 
L 4281 4097 
L 3078 897 
L 2444 897 
L 1241 4097 
L 1241 0 
L 628 0 
L 628 4666 
z
" transform="scale(0.015625)"/>
       <path id="DejaVuSans-33" d="M 1259 4147 
L 1259 2394 
L 2053 2394 
Q 2494 2394 2734 2622 
Q 2975 2850 2975 3272 
Q 2975 3691 2734 3919 
Q 2494 4147 2053 4147 
L 1259 4147 
z
M 628 4666 
L 2053 4666 
Q 2838 4666 3239 4311 
Q 3641 3956 3641 3272 
Q 3641 2581 3239 2228 
Q 2838 1875 2053 1875 
L 1259 1875 
L 1259 0 
L 628 0 
L 628 4666 
z
" transform="scale(0.015625)"/>
      </defs>
      <use xlink:href="#DejaVuSans-24"/>
      <use xlink:href="#DejaVuSans-30" transform="translate(68.40625 0)"/>
      <use xlink:href="#DejaVuSans-33" transform="translate(154.6875 0)"/>
     </g>
    </g>
   </g>
  </g>
 </g>
 <defs>
  <clipPath id="pe21711c801">
   <rect x="28.942188" y="7.2" width="532.657812" height="234.399141"/>
  </clipPath>
 </defs>
</svg>
