<?xml version="1.0" encoding="utf-8" standalone="no"?>
<!DOCTYPE svg PUBLIC "-//W3C//DTD SVG 1.1//EN"
  "http://www.w3.org/Graphics/SVG/1.1/DTD/svg11.dtd">
<svg xmlns:xlink="http://www.w3.org/1999/xlink" width="568.8pt" height="280.8pt" viewBox="0 0 568.8 280.8" xmlns="http://www.w3.org/2000/svg" version="1.1">
 <metadata>
  <rdf:RDF xmlns:dc="http://purl.org/dc/elements/1.1/" xmlns:cc="http://creativecommons.org/ns#" xmlns:rdf="http://www.w3.org/1999/02/22-rdf-syntax-ns#">
   <cc:Work>
    <dc:type rdf:resource="http://purl.org/dc/dcmitype/StillImage"/>
    <dc:date>2026-07-10T09:32:47.723581</dc:date>
    <dc:format>image/svg+xml</dc:format>
    <dc:creator>
     <cc:Agent>
      <dc:title>Matplotlib v3.11.0, https://matplotlib.org/</dc:title>
     </cc:Agent>
    </dc:creator>
   </cc:Work>
  </rdf:RDF>
 </metadata>
 <defs>
  <style type="text/css">*{stroke-linejoin: round; stroke-linecap: butt}</style>
 </defs>
 <g id="figure_1">
  <g id="patch_1">
   <path d="M 0 280.8 
L 568.8 280.8 
L 568.8 0 
L 0 0 
L 0 280.8 
z
" style="fill: none"/>
  </g>
  <g id="axes_1">
   <g id="patch_2">
    <path d="M 28.942188 241.599141 
L 561.6 241.599141 
L 561.6 7.2 
L 28.942188 7.2 
L 28.942188 241.599141 
z
" style="fill: none"/>
   </g>
   <g id="matplotlib.axis_1">
    <g id="xtick_1">
     <g id="line2d_1">
      <defs>
       <path id="md004946fc9" d="M 0 0 
L 0 3.5 
" style="stroke: #7f7f7f; stroke-width: 1.8"/>
      </defs>
      <g>
       <use xlink:href="#md004946fc9" x="53.153906" y="241.599141" style="fill: #7f7f7f; stroke: #7f7f7f; stroke-width: 1.8"/>
      </g>
     </g>
     <g id="text_1">
      <!-- 0.00000 -->
      <g style="fill: #7f7f7f" transform="translate(32.477344 256.196797) scale(0.1 -0.1)">
       <defs>
        <path id="DejaVuSans-13" d="M 2034 4250 
Q 1547 4250 1301 3770 
Q 1056 3291 1056 2328 
Q 1056 1369 1301 889 
Q 1547 409 2034 409 
Q 2525 409 2770 889 
Q 3016 1369 3016 2328 
Q 3016 3291 2770 3770 
Q 2525 4250 2034 4250 
z
M 2034 4750 
Q 2819 4750 3233 4129 
Q 3647 3509 3647 2328 
Q 3647 1150 3233 529 
Q 2819 -91 2034 -91 
Q 1250 -91 836 529 
Q 422 1150 422 2328 
Q 422 3509 836 4129 
Q 1250 4750 2034 4750 
z
" transform="scale(0.015625)"/>
        <path id="DejaVuSans-11" d="M 684 794 
L 1344 794 
L 1344 0 
L 684 0 
L 684 794 
z
" transform="scale(0.015625)"/>
       </defs>
       <use xlink:href="#DejaVuSans-13"/>
       <use xlink:href="#DejaVuSans-11" transform="translate(63.625 0)"/>
       <use xlink:href="#DejaVuSans-13" transform="translate(95.40625 0)"/>
       <use xlink:href="#DejaVuSans-13" transform="translate(159.03125 0)"/>
       <use xlink:href="#DejaVuSans-13" transform="translate(222.65625 0)"/>
       <use xlink:href="#DejaVuSans-13" transform="translate(286.28125 0)"/>
       <use xlink:href="#DejaVuSans-13" transform="translate(349.90625 0)"/>
      </g>
     </g>
    </g>
    <g id="xtick_2">
     <g id="line2d_2">
      <g>
       <use xlink:href="#md004946fc9" x="149.981416" y="241.599141" style="fill: #7f7f7f; stroke: #7f7f7f; stroke-width: 1.8"/>
      </g>
     </g>
     <g id="text_2">
      <!-- 0.00002 -->
      <g style="fill: #7f7f7f" transform="translate(129.304853 256.196797) scale(0.1 -0.1)">
       <defs>
        <path id="DejaVuSans-15" d="M 1228 531 
L 3431 531 
L 3431 0 
L 469 0 
L 469 531 
Q 828 903 1448 1529 
Q 2069 2156 2228 2338 
Q 2531 2678 2651 2914 
Q 2772 3150 2772 3378 
Q 2772 3750 2511 3984 
Q 2250 4219 1831 4219 
Q 1534 4219 1204 4116 
Q 875 4013 500 3803 
L 500 4441 
Q 881 4594 1212 4672 
Q 1544 4750 1819 4750 
Q 2544 4750 2975 4387 
Q 3406 4025 3406 3419 
Q 3406 3131 3298 2873 
Q 3191 2616 2906 2266 
Q 2828 2175 2409 1742 
Q 1991 1309 1228 531 
z
" transform="scale(0.015625)"/>
       </defs>
       <use xlink:href="#DejaVuSans-13"/>
       <use xlink:href="#DejaVuSans-11" transform="translate(63.625 0)"/>
       <use xlink:href="#DejaVuSans-13" transform="translate(95.40625 0)"/>
       <use xlink:href="#DejaVuSans-13" transform="translate(159.03125 0)"/>
       <use xlink:href="#DejaVuSans-13" transform="translate(222.65625 0)"/>
       <use xlink:href="#DejaVuSans-13" transform="translate(286.28125 0)"/>
       <use xlink:href="#DejaVuSans-15" transform="translate(349.90625 0)"/>
      </g>
     </g>
    </g>
    <g id="xtick_3">
     <g id="line2d_3">
      <g>
       <use xlink:href="#md004946fc9" x="246.808925" y="241.599141" style="fill: #7f7f7f; stroke: #7f7f7f; stroke-width: 1.8"/>
      </g>
     </g>
     <g id="text_3">
      <!-- 0.00004 -->
      <g style="fill: #7f7f7f" transform="translate(226.132363 256.196797) scale(0.1 -0.1)">
       <defs>
        <path id="DejaVuSans-17" d="M 2419 4116 
L 825 1625 
L 2419 1625 
L 2419 4116 
z
M 2253 4666 
L 3047 4666 
L 3047 1625 
L 3713 1625 
L 3713 1100 
L 3047 1100 
L 3047 0 
L 2419 0 
L 2419 1100 
L 313 1100 
L 313 1709 
L 2253 4666 
z
" transform="scale(0.015625)"/>
       </defs>
       <use xlink:href="#DejaVuSans-13"/>
       <use xlink:href="#DejaVuSans-11" transform="translate(63.625 0)"/>
       <use xlink:href="#DejaVuSans-13" transform="translate(95.40625 0)"/>
       <use xlink:href="#DejaVuSans-13" transform="translate(159.03125 0)"/>
       <use xlink:href="#DejaVuSans-13" transform="translate(222.65625 0)"/>
       <use xlink:href="#DejaVuSans-13" transform="translate(286.28125 0)"/>
       <use xlink:href="#DejaVuSans-17" transform="translate(349.90625 0)"/>
      </g>
     </g>
    </g>
    <g id="xtick_4">
     <g id="line2d_4">
      <g>
       <use xlink:href="#md004946fc9" x="343.636435" y="241.599141" style="fill: #7f7f7f; stroke: #7f7f7f; stroke-width: 1.8"/>
      </g>
     </g>
     <g id="text_4">
      <!-- 0.00006 -->
      <g style="fill: #7f7f7f" transform="translate(322.959872 256.196797) scale(0.1 -0.1)">
       <defs>
        <path id="DejaVuSans-19" d="M 2113 2584 
Q 1688 2584 1439 2293 
Q 1191 2003 1191 1497 
Q 1191 994 1439 701 
Q 1688 409 2113 409 
Q 2538 409 2786 701 
Q 3034 994 3034 1497 
Q 3034 2003 2786 2293 
Q 2538 2584 2113 2584 
z
M 3366 4563 
L 3366 3988 
Q 3128 4100 2886 4159 
Q 2644 4219 2406 4219 
Q 1781 4219 1451 3797 
Q 1122 3375 1075 2522 
Q 1259 2794 1537 2939 
Q 1816 3084 2150 3084 
Q 2853 3084 3261 2657 
Q 3669 2231 3669 1497 
Q 3669 778 3244 343 
Q 2819 -91 2113 -91 
Q 1303 -91 875 529 
Q 447 1150 447 2328 
Q 447 3434 972 4092 
Q 1497 4750 2381 4750 
Q 2619 4750 2861 4703 
Q 3103 4656 3366 4563 
z
" transform="scale(0.015625)"/>
       </defs>
       <use xlink:href="#DejaVuSans-13"/>
       <use xlink:href="#DejaVuSans-11" transform="translate(63.625 0)"/>
       <use xlink:href="#DejaVuSans-13" transform="translate(95.40625 0)"/>
       <use xlink:href="#DejaVuSans-13" transform="translate(159.03125 0)"/>
       <use xlink:href="#DejaVuSans-13" transform="translate(222.65625 0)"/>
       <use xlink:href="#DejaVuSans-13" transform="translate(286.28125 0)"/>
       <use xlink:href="#DejaVuSans-19" transform="translate(349.90625 0)"/>
      </g>
     </g>
    </g>
    <g id="xtick_5">
     <g id="line2d_5">
      <g>
       <use xlink:href="#md004946fc9" x="440.463944" y="241.599141" style="fill: #7f7f7f; stroke: #7f7f7f; stroke-width: 1.8"/>
      </g>
     </g>
     <g id="text_5">
      <!-- 0.00008 -->
      <g style="fill: #7f7f7f" transform="translate(419.787382 256.196797) scale(0.1 -0.1)">
       <defs>
        <path id="DejaVuSans-1b" d="M 2034 2216 
Q 1584 2216 1326 1975 
Q 1069 1734 1069 1313 
Q 1069 891 1326 650 
Q 1584 409 2034 409 
Q 2484 409 2743 651 
Q 3003 894 3003 1313 
Q 3003 1734 2745 1975 
Q 2488 2216 2034 2216 
z
M 1403 2484 
Q 997 2584 770 2862 
Q 544 3141 544 3541 
Q 544 4100 942 4425 
Q 1341 4750 2034 4750 
Q 2731 4750 3128 4425 
Q 3525 4100 3525 3541 
Q 3525 3141 3298 2862 
Q 3072 2584 2669 2484 
Q 3125 2378 3379 2068 
Q 3634 1759 3634 1313 
Q 3634 634 3220 271 
Q 2806 -91 2034 -91 
Q 1263 -91 848 271 
Q 434 634 434 1313 
Q 434 1759 690 2068 
Q 947 2378 1403 2484 
z
M 1172 3481 
Q 1172 3119 1398 2916 
Q 1625 2713 2034 2713 
Q 2441 2713 2670 2916 
Q 2900 3119 2900 3481 
Q 2900 3844 2670 4047 
Q 2441 4250 2034 4250 
Q 1625 4250 1398 4047 
Q 1172 3844 1172 3481 
z
" transform="scale(0.015625)"/>
       </defs>
       <use xlink:href="#DejaVuSans-13"/>
       <use xlink:href="#DejaVuSans-11" transform="translate(63.625 0)"/>
       <use xlink:href="#DejaVuSans-13" transform="translate(95.40625 0)"/>
       <use xlink:href="#DejaVuSans-13" transform="translate(159.03125 0)"/>
       <use xlink:href="#DejaVuSans-13" transform="translate(222.65625 0)"/>
       <use xlink:href="#DejaVuSans-13" transform="translate(286.28125 0)"/>
       <use xlink:href="#DejaVuSans-1b" transform="translate(349.90625 0)"/>
      </g>
     </g>
    </g>
    <g id="xtick_6">
     <g id="line2d_6">
      <g>
       <use xlink:href="#md004946fc9" x="537.291454" y="241.599141" style="fill: #7f7f7f; stroke: #7f7f7f; stroke-width: 1.8"/>
      </g>
     </g>
     <g id="text_6">
      <!-- 0.00010 -->
      <g style="fill: #7f7f7f" transform="translate(516.614891 256.196797) scale(0.1 -0.1)">
       <defs>
        <path id="DejaVuSans-14" d="M 794 531 
L 1825 531 
L 1825 4091 
L 703 3866 
L 703 4441 
L 1819 4666 
L 2450 4666 
L 2450 531 
L 3481 531 
L 3481 0 
L 794 0 
L 794 531 
z
" transform="scale(0.015625)"/>
       </defs>
       <use xlink:href="#DejaVuSans-13"/>
       <use xlink:href="#DejaVuSans-11" transform="translate(63.625 0)"/>
       <use xlink:href="#DejaVuSans-13" transform="translate(95.40625 0)"/>
       <use xlink:href="#DejaVuSans-13" transform="translate(159.03125 0)"/>
       <use xlink:href="#DejaVuSans-13" transform="translate(222.65625 0)"/>
       <use xlink:href="#DejaVuSans-14" transform="translate(286.28125 0)"/>
       <use xlink:href="#DejaVuSans-13" transform="translate(349.90625 0)"/>
      </g>
     </g>
    </g>
    <g id="text_7">
     <!-- time [s] -->
     <g style="fill: #7f7f7f" transform="translate(273.940547 270.957422) scale(0.11 -0.11)">
      <defs>
       <path id="DejaVuSans-57" d="M 1172 4494 
L 1172 3500 
L 2356 3500 
L 2356 3053 
L 1172 3053 
L 1172 1153 
Q 1172 725 1289 603 
Q 1406 481 1766 481 
L 2356 481 
L 2356 0 
L 1766 0 
Q 1100 0 847 248 
Q 594 497 594 1153 
L 594 3053 
L 172 3053 
L 172 3500 
L 594 3500 
L 594 4494 
L 1172 4494 
z
" transform="scale(0.015625)"/>
       <path id="DejaVuSans-4c" d="M 603 3500 
L 1178 3500 
L 1178 0 
L 603 0 
L 603 3500 
z
M 603 4863 
L 1178 4863 
L 1178 4134 
L 603 4134 
L 603 4863 
z
" transform="scale(0.015625)"/>
       <path id="DejaVuSans-50" d="M 3328 2828 
Q 3544 3216 3844 3400 
Q 4144 3584 4550 3584 
Q 5097 3584 5394 3201 
Q 5691 2819 5691 2113 
L 5691 0 
L 5113 0 
L 5113 2094 
Q 5113 2597 4934 2840 
Q 4756 3084 4391 3084 
Q 3944 3084 3684 2787 
Q 3425 2491 3425 1978 
L 3425 0 
L 2847 0 
L 2847 2094 
Q 2847 2600 2669 2842 
Q 2491 3084 2119 3084 
Q 1678 3084 1418 2786 
Q 1159 2488 1159 1978 
L 1159 0 
L 581 0 
L 581 3500 
L 1159 3500 
L 1159 2956 
Q 1356 3278 1631 3431 
Q 1906 3584 2284 3584 
Q 2666 3584 2933 3390 
Q 3200 3197 3328 2828 
z
" transform="scale(0.015625)"/>
       <path id="DejaVuSans-48" d="M 3597 1894 
L 3597 1613 
L 953 1613 
Q 991 1019 1311 708 
Q 1631 397 2203 397 
Q 2534 397 2845 478 
Q 3156 559 3463 722 
L 3463 178 
Q 3153 47 2828 -22 
Q 2503 -91 2169 -91 
Q 1331 -91 842 396 
Q 353 884 353 1716 
Q 353 2575 817 3079 
Q 1281 3584 2069 3584 
Q 2775 3584 3186 3129 
Q 3597 2675 3597 1894 
z
M 3022 2063 
Q 3016 2534 2758 2815 
Q 2500 3097 2075 3097 
Q 1594 3097 1305 2825 
Q 1016 2553 972 2059 
L 3022 2063 
z
" transform="scale(0.015625)"/>
       <path id="DejaVuSans-3" transform="scale(0.015625)"/>
       <path id="DejaVuSans-3e" d="M 550 4863 
L 1875 4863 
L 1875 4416 
L 1125 4416 
L 1125 -397 
L 1875 -397 
L 1875 -844 
L 550 -844 
L 550 4863 
z
" transform="scale(0.015625)"/>
       <path id="DejaVuSans-56" d="M 2834 3397 
L 2834 2853 
Q 2591 2978 2328 3040 
Q 2066 3103 1784 3103 
Q 1356 3103 1142 2972 
Q 928 2841 928 2578 
Q 928 2378 1081 2264 
Q 1234 2150 1697 2047 
L 1894 2003 
Q 2506 1872 2764 1633 
Q 3022 1394 3022 966 
Q 3022 478 2636 193 
Q 2250 -91 1575 -91 
Q 1294 -91 989 -36 
Q 684 19 347 128 
L 347 722 
Q 666 556 975 473 
Q 1284 391 1588 391 
Q 1994 391 2212 530 
Q 2431 669 2431 922 
Q 2431 1156 2273 1281 
Q 2116 1406 1581 1522 
L 1381 1569 
Q 847 1681 609 1914 
Q 372 2147 372 2553 
Q 372 3047 722 3315 
Q 1072 3584 1716 3584 
Q 2034 3584 2315 3537 
Q 2597 3491 2834 3397 
z
" transform="scale(0.015625)"/>
       <path id="DejaVuSans-40" d="M 1947 4863 
L 1947 -844 
L 622 -844 
L 622 -397 
L 1369 -397 
L 1369 4416 
L 622 4416 
L 622 4863 
L 1947 4863 
z
" transform="scale(0.015625)"/>
      </defs>
      <use xlink:href="#DejaVuSans-57"/>
      <use xlink:href="#DejaVuSans-4c" transform="translate(39.203125 0)"/>
      <use xlink:href="#DejaVuSans-50" transform="translate(66.984375 0)"/>
      <use xlink:href="#DejaVuSans-48" transform="translate(164.390625 0)"/>
      <use xlink:href="#DejaVuSans-3" transform="translate(225.921875 0)"/>
      <use xlink:href="#DejaVuSans-3e" transform="translate(257.703125 0)"/>
      <use xlink:href="#DejaVuSans-56" transform="translate(296.71875 0)"/>
      <use xlink:href="#DejaVuSans-40" transform="translate(348.8125 0)"/>
     </g>
    </g>
   </g>
   <g id="matplotlib.axis_2">
    <g id="ytick_1">
     <g id="line2d_7">
      <defs>
       <path id="mbb4b0d5975" d="M 0 0 
L -3.5 0 
" style="stroke: #7f7f7f; stroke-width: 1.8"/>
      </defs>
      <g>
       <use xlink:href="#mbb4b0d5975" x="28.942188" y="227.494786" style="fill: #7f7f7f; stroke: #7f7f7f; stroke-width: 1.8"/>
      </g>
     </g>
     <g id="text_8">
      <!-- −8 -->
      <g style="fill: #7f7f7f" transform="translate(7.2 231.293615) scale(0.1 -0.1)">
       <defs>
        <path id="DejaVuSans-c9c" d="M 678 2272 
L 4684 2272 
L 4684 1741 
L 678 1741 
L 678 2272 
z
" transform="scale(0.015625)"/>
       </defs>
       <use xlink:href="#DejaVuSans-c9c"/>
       <use xlink:href="#DejaVuSans-1b" transform="translate(83.796875 0)"/>
      </g>
     </g>
    </g>
    <g id="ytick_2">
     <g id="line2d_8">
      <g>
       <use xlink:href="#mbb4b0d5975" x="28.942188" y="201.2036" style="fill: #7f7f7f; stroke: #7f7f7f; stroke-width: 1.8"/>
      </g>
     </g>
     <g id="text_9">
      <!-- −6 -->
      <g style="fill: #7f7f7f" transform="translate(7.2 205.002428) scale(0.1 -0.1)">
       <use xlink:href="#DejaVuSans-c9c"/>
       <use xlink:href="#DejaVuSans-19" transform="translate(83.796875 0)"/>
      </g>
     </g>
    </g>
    <g id="ytick_3">
     <g id="line2d_9">
      <g>
       <use xlink:href="#mbb4b0d5975" x="28.942188" y="174.912413" style="fill: #7f7f7f; stroke: #7f7f7f; stroke-width: 1.8"/>
      </g>
     </g>
     <g id="text_10">
      <!-- −4 -->
      <g style="fill: #7f7f7f" transform="translate(7.2 178.711241) scale(0.1 -0.1)">
       <use xlink:href="#DejaVuSans-c9c"/>
       <use xlink:href="#DejaVuSans-17" transform="translate(83.796875 0)"/>
      </g>
     </g>
    </g>
    <g id="ytick_4">
     <g id="line2d_10">
      <g>
       <use xlink:href="#mbb4b0d5975" x="28.942188" y="148.621226" style="fill: #7f7f7f; stroke: #7f7f7f; stroke-width: 1.8"/>
      </g>
     </g>
     <g id="text_11">
      <!-- −2 -->
      <g style="fill: #7f7f7f" transform="translate(7.2 152.420054) scale(0.1 -0.1)">
       <use xlink:href="#DejaVuSans-c9c"/>
       <use xlink:href="#DejaVuSans-15" transform="translate(83.796875 0)"/>
      </g>
     </g>
    </g>
    <g id="ytick_5">
     <g id="line2d_11">
      <g>
       <use xlink:href="#mbb4b0d5975" x="28.942188" y="122.330039" style="fill: #7f7f7f; stroke: #7f7f7f; stroke-width: 1.8"/>
      </g>
     </g>
     <g id="text_12">
      <!-- 0 -->
      <g style="fill: #7f7f7f" transform="translate(15.579688 126.128867) scale(0.1 -0.1)">
       <use xlink:href="#DejaVuSans-13"/>
      </g>
     </g>
    </g>
    <g id="ytick_6">
     <g id="line2d_12">
      <g>
       <use xlink:href="#mbb4b0d5975" x="28.942188" y="96.038852" style="fill: #7f7f7f; stroke: #7f7f7f; stroke-width: 1.8"/>
      </g>
     </g>
     <g id="text_13">
      <!-- 2 -->
      <g style="fill: #7f7f7f" transform="translate(15.579688 99.83768) scale(0.1 -0.1)">
       <use xlink:href="#DejaVuSans-15"/>
      </g>
     </g>
    </g>
    <g id="ytick_7">
     <g id="line2d_13">
      <g>
       <use xlink:href="#mbb4b0d5975" x="28.942188" y="69.747665" style="fill: #7f7f7f; stroke: #7f7f7f; stroke-width: 1.8"/>
      </g>
     </g>
     <g id="text_14">
      <!-- 4 -->
      <g style="fill: #7f7f7f" transform="translate(15.579688 73.546493) scale(0.1 -0.1)">
       <use xlink:href="#DejaVuSans-17"/>
      </g>
     </g>
    </g>
    <g id="ytick_8">
     <g id="line2d_14">
      <g>
       <use xlink:href="#mbb4b0d5975" x="28.942188" y="43.456479" style="fill: #7f7f7f; stroke: #7f7f7f; stroke-width: 1.8"/>
      </g>
     </g>
     <g id="text_15">
      <!-- 6 -->
      <g style="fill: #7f7f7f" transform="translate(15.579688 47.255307) scale(0.1 -0.1)">
       <use xlink:href="#DejaVuSans-19"/>
      </g>
     </g>
    </g>
    <g id="ytick_9">
     <g id="line2d_15">
      <g>
       <use xlink:href="#mbb4b0d5975" x="28.942188" y="17.165292" style="fill: #7f7f7f; stroke: #7f7f7f; stroke-width: 1.8"/>
      </g>
     </g>
     <g id="text_16">
      <!-- 8 -->
      <g style="fill: #7f7f7f" transform="translate(15.579688 20.96412) scale(0.1 -0.1)">
       <use xlink:href="#DejaVuSans-1b"/>
      </g>
     </g>
    </g>
   </g>
   <g id="line2d_16">
    <path d="M 53.153906 122.330039 
L 57.656385 110.233045 
L 59.544522 109.235272 
L 61.142176 110.810468 
L 63.611277 116.882826 
L 70.437617 135.140773 
L 72.035271 135.242788 
L 73.778166 132.867113 
L 76.682991 124.630821 
L 82.056918 109.989825 
L 83.945054 109.309836 
L 85.542708 111.143212 
L 88.157051 117.954929 
L 94.402425 134.930377 
L 96.14532 135.300611 
L 97.888216 133.061303 
L 100.793041 124.955345 
L 106.312209 109.933869 
L 108.200345 109.333625 
L 109.797999 111.230847 
L 112.412342 118.111045 
L 118.512475 134.832241 
L 120.25537 135.350242 
L 121.853024 133.516867 
L 124.467367 126.705149 
L 130.712741 109.729701 
L 132.455637 109.359467 
L 134.198532 111.598775 
L 137.103357 119.704733 
L 142.622525 134.726209 
L 144.510661 135.326453 
L 146.108315 133.429231 
L 148.722658 126.549033 
L 154.822791 109.827837 
L 156.565686 109.309836 
L 158.16334 111.143212 
L 160.777683 117.954929 
L 167.023057 134.930377 
L 168.765953 135.300611 
L 170.508848 133.061303 
L 173.413673 124.955345 
L 178.932841 109.933869 
L 180.820978 109.333625 
L 182.418631 111.230847 
L 185.032974 118.111045 
L 191.133107 134.832241 
L 192.876002 135.350242 
L 194.473656 133.516867 
L 197.087999 126.705149 
L 203.333373 109.729701 
L 205.076269 109.359467 
L 206.819164 111.598775 
L 209.723989 119.704733 
L 215.243157 134.726209 
L 217.131294 135.326453 
L 218.728947 133.429231 
L 221.34329 126.549033 
L 227.443423 109.827837 
L 229.186319 109.309836 
L 230.783972 111.143212 
L 233.398315 117.954929 
L 239.64369 134.930377 
L 241.386585 135.300611 
L 243.12948 133.061303 
L 246.034305 124.955345 
L 251.553473 109.933869 
L 253.44161 109.333625 
L 255.039264 111.230847 
L 257.653606 118.111045 
L 263.753739 134.832241 
L 265.496635 135.350242 
L 267.094288 133.516867 
L 269.708631 126.705149 
L 275.954006 109.729701 
L 277.696901 109.359467 
L 279.439796 111.598775 
L 282.344621 119.704733 
L 287.863789 134.726209 
L 289.751926 135.326453 
L 291.34958 133.429231 
L 293.963922 126.549033 
L 300.064055 109.827837 
L 301.806951 109.309836 
L 303.404605 111.143212 
L 306.018947 117.954929 
L 312.264322 134.930377 
L 314.007217 135.300611 
L 315.750112 133.061303 
L 318.654937 124.955345 
L 324.174105 109.933869 
L 326.062242 109.333625 
L 327.659896 111.230847 
L 330.274238 118.111045 
L 336.374372 134.832241 
L 338.117267 135.350242 
L 339.714921 133.516867 
L 342.329263 126.705149 
L 348.574638 109.729701 
L 350.317533 109.359467 
L 352.060428 111.598775 
L 354.965253 119.704733 
L 360.484421 134.726209 
L 362.372558 135.326453 
L 363.970212 133.429231 
L 366.584554 126.549033 
L 372.684688 109.827837 
L 374.427583 109.309836 
L 376.025237 111.143212 
L 378.639579 117.954929 
L 384.884954 134.930377 
L 386.627849 135.300611 
L 388.370744 133.061303 
L 391.275569 124.955345 
L 396.794737 109.933869 
L 398.682874 109.333625 
L 400.280528 111.230847 
L 402.894871 118.111045 
L 408.995004 134.832241 
L 410.737899 135.350242 
L 412.335553 133.516867 
L 414.949895 126.705149 
L 421.19527 109.729701 
L 422.938165 109.359467 
L 424.68106 111.598775 
L 427.585885 119.704733 
L 433.105054 134.726209 
L 434.99319 135.326453 
L 436.590844 133.429231 
L 439.205187 126.549033 
L 445.30532 109.827837 
L 447.048215 109.309836 
L 448.645869 111.143212 
L 451.260212 117.954929 
L 457.505586 134.930377 
L 459.248481 135.300611 
L 460.991376 133.061303 
L 463.896202 124.955345 
L 469.41537 109.933869 
L 471.303506 109.333625 
L 472.90116 111.230847 
L 475.515503 118.111045 
L 481.615636 134.832241 
L 483.358531 135.350242 
L 484.956185 133.516867 
L 487.570528 126.705149 
L 493.815902 109.729701 
L 495.558797 109.359467 
L 497.301692 111.598775 
L 500.206518 119.704733 
L 505.725686 134.726209 
L 507.613822 135.326453 
L 509.211476 133.429231 
L 511.825819 126.549033 
L 517.925952 109.827837 
L 519.668847 109.309836 
L 521.266501 111.143212 
L 523.880844 117.954929 
L 530.126218 134.930377 
L 531.869113 135.300611 
L 533.612008 133.061303 
L 536.516834 124.955345 
L 537.388281 121.999689 
L 537.388281 121.999689 
" clip-path="url(#pd540e9c1e6)" style="fill: none; stroke: #e41a1c; stroke-width: 2; stroke-linecap: square"/>
   </g>
   <g id="line2d_17">
    <path d="M 53.153906 122.330039 
L 53.734871 125.66418 
L 54.025354 126.400495 
L 54.315836 123.851434 
L 55.623008 90.524657 
L 58.818316 33.205273 
L 59.544522 30.480625 
L 59.980246 32.130036 
L 60.125487 32.410669 
L 60.561211 31.56429 
L 60.706452 31.581367 
L 61.142176 29.984563 
L 61.432658 29.155008 
L 61.868382 30.685072 
L 62.158865 31.910732 
L 64.482725 58.537879 
L 66.080379 107.741524 
L 68.694722 192.113565 
L 71.018582 223.179245 
L 71.744788 225.075038 
L 72.180512 226.729646 
L 72.761477 225.973457 
L 73.923407 221.386241 
L 77.844921 149.53456 
L 83.073607 33.132968 
L 84.526019 24.715374 
L 84.961743 26.94169 
L 88.01181 57.987102 
L 93.095254 191.178624 
L 96.435803 229.511386 
L 96.871527 229.800893 
L 97.016768 229.36597 
L 98.178698 215.870718 
L 101.664489 154.569462 
L 105.586003 47.679809 
L 108.490828 21.317634 
L 108.636069 21.496126 
L 109.362276 28.23759 
L 113.28379 86.344981 
L 119.238681 221.733911 
L 119.674405 223.850761 
L 120.25537 222.112008 
L 120.836335 221.375633 
L 121.272059 221.972022 
L 122.579231 218.797296 
L 125.629297 178.956359 
L 131.293706 33.160944 
L 132.019913 34.600461 
L 133.617567 29.76804 
L 133.908049 29.878888 
L 134.198532 29.886153 
L 134.343773 30.30982 
L 135.360462 35.571633 
L 137.974805 92.774213 
L 142.622525 210.409193 
L 144.801144 225.206989 
L 145.672592 227.341293 
L 145.963074 226.506532 
L 147.270245 216.350318 
L 150.175071 159.280127 
L 156.275204 21.73326 
L 156.856169 19.246998 
L 157.291893 20.026238 
L 159.034788 31.218648 
L 161.794372 89.531132 
L 165.425404 193.340408 
L 168.184988 225.977193 
L 169.056435 229.533504 
L 169.782641 228.975338 
L 170.654089 224.808091 
L 171.670778 215.102118 
L 176.899463 96.691755 
L 179.659047 30.12106 
L 181.11146 21.130275 
L 181.401943 21.56818 
L 183.43532 28.680873 
L 187.356834 123.773986 
L 191.278349 219.219935 
L 192.440279 227.240506 
L 193.166485 225.458867 
L 195.490345 213.550124 
L 199.411859 143.531032 
L 202.607167 53.103015 
L 205.657234 24.72768 
L 205.802475 24.963912 
L 208.852542 49.570454 
L 211.03116 102.408554 
L 215.388398 214.47441 
L 216.840811 222.854215 
L 216.986052 222.679346 
L 220.326601 207.623061 
L 222.795703 171.009834 
L 224.248116 116.212112 
L 226.571976 53.107791 
L 229.622042 24.900981 
L 230.057766 25.856263 
L 231.945903 34.301148 
L 233.543556 64.843253 
L 235.722175 126.498082 
L 238.336518 195.761722 
L 240.515137 221.963013 
L 241.386585 224.091954 
L 241.677067 223.473701 
L 242.258032 223.234242 
L 242.548515 223.648129 
L 243.12948 223.838704 
L 243.419962 223.457225 
L 244.000927 219.305745 
L 246.324788 181.635812 
L 247.7772 123.301853 
L 250.246302 61.11441 
L 253.005886 29.140955 
L 253.732092 26.630992 
L 254.167816 27.946515 
L 255.329746 33.612922 
L 258.08933 80.057951 
L 263.608498 211.248206 
L 265.932358 228.947379 
L 266.368082 226.605693 
L 269.56339 202.574726 
L 271.742009 146.642846 
L 274.937317 62.620991 
L 277.406418 28.977599 
L 278.858831 25.338428 
L 279.004072 25.637599 
L 280.166002 30.949133 
L 281.327932 45.15046 
L 289.025719 222.30373 
L 290.623373 230.944153 
L 291.34958 227.733919 
L 294.980611 177.507571 
L 297.449713 92.813194 
L 299.48309 53.432215 
L 302.242674 30.822932 
L 302.533157 30.430076 
L 302.968881 31.657876 
L 304.421293 36.422287 
L 306.018947 67.940694 
L 309.504738 169.700547 
L 312.11908 217.946585 
L 314.007217 225.564677 
L 314.152458 225.175535 
L 315.023906 222.796414 
L 315.604871 223.28766 
L 316.185836 221.632329 
L 317.347766 212.445583 
L 322.140728 87.327778 
L 325.190794 32.099007 
L 326.062242 29.80468 
L 327.659896 20.026556 
L 327.950378 20.934445 
L 330.41948 62.956657 
L 332.307616 122.588011 
L 335.793406 209.750301 
L 337.536302 221.566459 
L 338.843473 229.299935 
L 339.279197 226.783155 
L 343.345952 181.304671 
L 349.736568 29.325018 
L 350.317533 28.841064 
L 351.479463 22.515282 
L 352.060428 23.735371 
L 353.077117 36.396277 
L 354.674771 65.003124 
L 357.724837 158.482548 
L 359.612974 198.600709 
L 362.66304 222.831089 
L 362.953523 222.489284 
L 363.970212 220.258234 
L 366.729796 183.990592 
L 373.991859 28.925409 
L 374.282342 27.529639 
L 374.863307 29.911643 
L 377.768132 52.812646 
L 380.672957 116.294507 
L 384.594471 213.161501 
L 386.918331 225.225982 
L 387.354055 223.89977 
L 388.080262 221.319428 
L 388.951709 221.930524 
L 389.677916 219.251196 
L 391.711293 171.871019 
L 396.649496 36.493482 
L 398.537633 25.03596 
L 398.682874 25.051251 
L 399.699563 27.022003 
L 401.587699 36.790615 
L 404.637766 109.746982 
L 410.88314 223.569732 
L 411.318864 224.150853 
L 411.754588 223.239392 
L 413.352242 217.163462 
L 415.240378 187.071719 
L 422.211959 35.535602 
L 423.51913 27.770548 
L 424.245336 29.790856 
L 427.295403 56.899911 
L 434.847949 221.67805 
L 435.574155 224.597941 
L 436.009879 224.080542 
L 437.462291 216.283293 
L 440.948082 149.799516 
L 444.724355 34.880536 
L 447.193456 22.953245 
L 447.919662 21.838315 
L 448.355386 22.851034 
L 448.936351 24.330539 
L 450.679246 41.793805 
L 452.2769 74.94236 
L 457.796068 216.745095 
L 459.248481 222.172797 
L 460.119929 222.862434 
L 460.410411 222.352271 
L 461.281859 220.026726 
L 463.896202 184.982832 
L 465.929579 116.557555 
L 469.124887 36.579587 
L 470.867782 23.680147 
L 471.593989 24.087124 
L 471.73923 23.821605 
L 473.191642 21.050964 
L 473.336884 21.139309 
L 474.498814 30.67522 
L 476.38695 71.26755 
L 482.341842 215.959505 
L 483.649013 220.420471 
L 483.794255 220.290389 
L 486.553839 206.708675 
L 487.86101 184.075854 
L 493.525419 42.849731 
L 495.994521 28.878306 
L 496.139762 28.785306 
L 496.430245 29.741882 
L 497.01121 30.806907 
L 497.301692 30.056779 
L 497.737416 28.763988 
L 498.027899 30.269829 
L 500.061276 61.733087 
L 503.692308 164.098413 
L 505.870927 210.88052 
L 508.48527 226.41302 
L 508.775752 225.58052 
L 510.082924 211.40784 
L 514.29492 126.721559 
L 518.942641 20.309091 
L 520.249812 17.854506 
L 520.395053 17.95241 
L 522.428431 31.648229 
L 526.349945 113.106946 
L 529.835736 204.071712 
L 531.869113 219.319097 
L 532.885802 217.564349 
L 534.192973 211.640521 
L 535.064421 194.020269 
L 537.388281 139.09434 
L 537.388281 139.09434 
" clip-path="url(#pd540e9c1e6)" style="fill: none; stroke: #377eb8; stroke-width: 2; stroke-linecap: square"/>
   </g>
   <g id="patch_3">
    <path d="M 28.942188 241.599141 
L 28.942188 7.2 
" style="fill: none; stroke: #7f7f7f; stroke-width: 1.8; stroke-linejoin: miter; stroke-linecap: square"/>
   </g>
   <g id="patch_4">
    <path d="M 28.942188 241.599141 
L 561.6 241.599141 
" style="fill: none; stroke: #7f7f7f; stroke-width: 1.8; stroke-linejoin: miter; stroke-linecap: square"/>
   </g>
   <g id="legend_1">
    <g id="line2d_18">
     <path d="M 37.942188 211.696016 
L 47.942188 211.696016 
L 57.942188 211.696016 
" style="fill: none; stroke: #e41a1c; stroke-width: 2; stroke-linecap: square"/>
    </g>
    <g id="text_17">
     <!-- Src -->
     <g style="fill: #7f7f7f" transform="translate(65.942188 215.196016) scale(0.1 -0.1)">
      <defs>
       <path id="DejaVuSans-36" d="M 3425 4513 
L 3425 3897 
Q 3066 4069 2747 4153 
Q 2428 4238 2131 4238 
Q 1616 4238 1336 4038 
Q 1056 3838 1056 3469 
Q 1056 3159 1242 3001 
Q 1428 2844 1947 2747 
L 2328 2669 
Q 3034 2534 3370 2195 
Q 3706 1856 3706 1288 
Q 3706 609 3251 259 
Q 2797 -91 1919 -91 
Q 1588 -91 1214 -16 
Q 841 59 441 206 
L 441 856 
Q 825 641 1194 531 
Q 1563 422 1919 422 
Q 2459 422 2753 634 
Q 3047 847 3047 1241 
Q 3047 1584 2836 1778 
Q 2625 1972 2144 2069 
L 1759 2144 
Q 1053 2284 737 2584 
Q 422 2884 422 3419 
Q 422 4038 858 4394 
Q 1294 4750 2059 4750 
Q 2388 4750 2728 4690 
Q 3069 4631 3425 4513 
z
" transform="scale(0.015625)"/>
       <path id="DejaVuSans-55" d="M 2631 2963 
Q 2534 3019 2420 3045 
Q 2306 3072 2169 3072 
Q 1681 3072 1420 2755 
Q 1159 2438 1159 1844 
L 1159 0 
L 581 0 
L 581 3500 
L 1159 3500 
L 1159 2956 
Q 1341 3275 1631 3429 
Q 1922 3584 2338 3584 
Q 2397 3584 2469 3576 
Q 2541 3569 2628 3553 
L 2631 2963 
z
" transform="scale(0.015625)"/>
       <path id="DejaVuSans-46" d="M 3122 3366 
L 3122 2828 
Q 2878 2963 2633 3030 
Q 2388 3097 2138 3097 
Q 1578 3097 1268 2742 
Q 959 2388 959 1747 
Q 959 1106 1268 751 
Q 1578 397 2138 397 
Q 2388 397 2633 464 
Q 2878 531 3122 666 
L 3122 134 
Q 2881 22 2623 -34 
Q 2366 -91 2075 -91 
Q 1284 -91 818 406 
Q 353 903 353 1747 
Q 353 2603 823 3093 
Q 1294 3584 2113 3584 
Q 2378 3584 2631 3529 
Q 2884 3475 3122 3366 
z
" transform="scale(0.015625)"/>
      </defs>
      <use xlink:href="#DejaVuSans-36"/>
      <use xlink:href="#DejaVuSans-55" transform="translate(63.484375 0)"/>
      <use xlink:href="#DejaVuSans-46" transform="translate(102.390625 0)"/>
     </g>
    </g>
    <g id="line2d_19">
     <path d="M 37.942188 226.696797 
L 47.942188 226.696797 
L 57.942188 226.696797 
" style="fill: none; stroke: #377eb8; stroke-width: 2; stroke-linecap: square"/>
    </g>
    <g id="text_18">
     <!-- AMP -->
     <g style="fill: #7f7f7f" transform="translate(65.942188 230.196797) scale(0.1 -0.1)">
      <defs>
       <path id="DejaVuSans-24" d="M 2188 4044 
L 1331 1722 
L 3047 1722 
L 2188 4044 
z
M 1831 4666 
L 2547 4666 
L 4325 0 
L 3669 0 
L 3244 1197 
L 1141 1197 
L 716 0 
L 50 0 
L 1831 4666 
z
" transform="scale(0.015625)"/>
       <path id="DejaVuSans-30" d="M 628 4666 
L 1569 4666 
L 2759 1491 
L 3956 4666 
L 4897 4666 
L 4897 0 
L 4281 0 
L 4281 4097 
L 3078 897 
L 2444 897 
L 1241 4097 
L 1241 0 
L 628 0 
L 628 4666 
z
" transform="scale(0.015625)"/>
       <path id="DejaVuSans-33" d="M 1259 4147 
L 1259 2394 
L 2053 2394 
Q 2494 2394 2734 2622 
Q 2975 2850 2975 3272 
Q 2975 3691 2734 3919 
Q 2494 4147 2053 4147 
L 1259 4147 
z
M 628 4666 
L 2053 4666 
Q 2838 4666 3239 4311 
Q 3641 3956 3641 3272 
Q 3641 2581 3239 2228 
Q 2838 1875 2053 1875 
L 1259 1875 
L 1259 0 
L 628 0 
L 628 4666 
z
" transform="scale(0.015625)"/>
      </defs>
      <use xlink:href="#DejaVuSans-24"/>
      <use xlink:href="#DejaVuSans-30" transform="translate(68.40625 0)"/>
      <use xlink:href="#DejaVuSans-33" transform="translate(154.6875 0)"/>
     </g>
    </g>
   </g>
  </g>
 </g>
 <defs>
  <clipPath id="pd540e9c1e6">
   <rect x="28.942188" y="7.2" width="532.657812" height="234.399141"/>
  </clipPath>
 </defs>
</svg>
