<?xml version="1.0" encoding="utf-8" standalone="no"?>
<!DOCTYPE svg PUBLIC "-//W3C//DTD SVG 1.1//EN"
  "http://www.w3.org/Graphics/SVG/1.1/DTD/svg11.dtd">
<svg xmlns:xlink="http://www.w3.org/1999/xlink" width="568.8pt" height="280.8pt" viewBox="0 0 568.8 280.8" xmlns="http://www.w3.org/2000/svg" version="1.1">
 <metadata>
  <rdf:RDF xmlns:dc="http://purl.org/dc/elements/1.1/" xmlns:cc="http://creativecommons.org/ns#" xmlns:rdf="http://www.w3.org/1999/02/22-rdf-syntax-ns#">
   <cc:Work>
    <dc:type rdf:resource="http://purl.org/dc/dcmitype/StillImage"/>
    <dc:date>2026-06-30T00:56:34.907972</dc:date>
    <dc:format>image/svg+xml</dc:format>
    <dc:creator>
     <cc:Agent>
      <dc:title>Matplotlib v3.11.0, https://matplotlib.org/</dc:title>
     </cc:Agent>
    </dc:creator>
   </cc:Work>
  </rdf:RDF>
 </metadata>
 <defs>
  <style type="text/css">*{stroke-linejoin: round; stroke-linecap: butt}</style>
 </defs>
 <g id="figure_1">
  <g id="patch_1">
   <path d="M 0 280.8 
L 568.8 280.8 
L 568.8 0 
L 0 0 
L 0 280.8 
z
" style="fill: none"/>
  </g>
  <g id="axes_1">
   <g id="patch_2">
    <path d="M 30.103125 241.599141 
L 561.6 241.599141 
L 561.6 7.2 
L 30.103125 7.2 
L 30.103125 241.599141 
z
" style="fill: none"/>
   </g>
   <g id="matplotlib.axis_1">
    <g id="xtick_1">
     <g id="line2d_1">
      <path d="M 54.262074 241.599141 
L 54.262074 7.2 
" clip-path="url(#p59ed93c5ab)" style="fill: none; stroke-dasharray: 2.96,1.28; stroke-dashoffset: 0; stroke: #7f7f7f; stroke-opacity: 0.6; stroke-width: 0.8"/>
     </g>
     <g id="line2d_2">
      <defs>
       <path id="m9e5151713b" d="M 0 0 
L 0 3.5 
" style="stroke: #7f7f7f; stroke-width: 1.8"/>
      </defs>
      <g>
       <use xlink:href="#m9e5151713b" x="54.262074" y="241.599141" style="fill: #7f7f7f; stroke: #7f7f7f; stroke-width: 1.8"/>
      </g>
     </g>
     <g id="text_1">
      <!-- 0 -->
      <g style="fill: #7f7f7f" transform="translate(51.080824 256.196797) scale(0.1 -0.1)">
       <defs>
        <path id="DejaVuSans-13" d="M 2034 4250 
Q 1547 4250 1301 3770 
Q 1056 3291 1056 2328 
Q 1056 1369 1301 889 
Q 1547 409 2034 409 
Q 2525 409 2770 889 
Q 3016 1369 3016 2328 
Q 3016 3291 2770 3770 
Q 2525 4250 2034 4250 
z
M 2034 4750 
Q 2819 4750 3233 4129 
Q 3647 3509 3647 2328 
Q 3647 1150 3233 529 
Q 2819 -91 2034 -91 
Q 1250 -91 836 529 
Q 422 1150 422 2328 
Q 422 3509 836 4129 
Q 1250 4750 2034 4750 
z
" transform="scale(0.015625)"/>
       </defs>
       <use xlink:href="#DejaVuSans-13"/>
      </g>
     </g>
    </g>
    <g id="xtick_2">
     <g id="line2d_3">
      <path d="M 150.897869 241.599141 
L 150.897869 7.2 
" clip-path="url(#p59ed93c5ab)" style="fill: none; stroke-dasharray: 2.96,1.28; stroke-dashoffset: 0; stroke: #7f7f7f; stroke-opacity: 0.6; stroke-width: 0.8"/>
     </g>
     <g id="line2d_4">
      <g>
       <use xlink:href="#m9e5151713b" x="150.897869" y="241.599141" style="fill: #7f7f7f; stroke: #7f7f7f; stroke-width: 1.8"/>
      </g>
     </g>
     <g id="text_2">
      <!-- 20 -->
      <g style="fill: #7f7f7f" transform="translate(144.535369 256.196797) scale(0.1 -0.1)">
       <defs>
        <path id="DejaVuSans-15" d="M 1228 531 
L 3431 531 
L 3431 0 
L 469 0 
L 469 531 
Q 828 903 1448 1529 
Q 2069 2156 2228 2338 
Q 2531 2678 2651 2914 
Q 2772 3150 2772 3378 
Q 2772 3750 2511 3984 
Q 2250 4219 1831 4219 
Q 1534 4219 1204 4116 
Q 875 4013 500 3803 
L 500 4441 
Q 881 4594 1212 4672 
Q 1544 4750 1819 4750 
Q 2544 4750 2975 4387 
Q 3406 4025 3406 3419 
Q 3406 3131 3298 2873 
Q 3191 2616 2906 2266 
Q 2828 2175 2409 1742 
Q 1991 1309 1228 531 
z
" transform="scale(0.015625)"/>
       </defs>
       <use xlink:href="#DejaVuSans-15"/>
       <use xlink:href="#DejaVuSans-13" transform="translate(63.625 0)"/>
      </g>
     </g>
    </g>
    <g id="xtick_3">
     <g id="line2d_5">
      <path d="M 247.533665 241.599141 
L 247.533665 7.2 
" clip-path="url(#p59ed93c5ab)" style="fill: none; stroke-dasharray: 2.96,1.28; stroke-dashoffset: 0; stroke: #7f7f7f; stroke-opacity: 0.6; stroke-width: 0.8"/>
     </g>
     <g id="line2d_6">
      <g>
       <use xlink:href="#m9e5151713b" x="247.533665" y="241.599141" style="fill: #7f7f7f; stroke: #7f7f7f; stroke-width: 1.8"/>
      </g>
     </g>
     <g id="text_3">
      <!-- 40 -->
      <g style="fill: #7f7f7f" transform="translate(241.171165 256.196797) scale(0.1 -0.1)">
       <defs>
        <path id="DejaVuSans-17" d="M 2419 4116 
L 825 1625 
L 2419 1625 
L 2419 4116 
z
M 2253 4666 
L 3047 4666 
L 3047 1625 
L 3713 1625 
L 3713 1100 
L 3047 1100 
L 3047 0 
L 2419 0 
L 2419 1100 
L 313 1100 
L 313 1709 
L 2253 4666 
z
" transform="scale(0.015625)"/>
       </defs>
       <use xlink:href="#DejaVuSans-17"/>
       <use xlink:href="#DejaVuSans-13" transform="translate(63.625 0)"/>
      </g>
     </g>
    </g>
    <g id="xtick_4">
     <g id="line2d_7">
      <path d="M 344.16946 241.599141 
L 344.16946 7.2 
" clip-path="url(#p59ed93c5ab)" style="fill: none; stroke-dasharray: 2.96,1.28; stroke-dashoffset: 0; stroke: #7f7f7f; stroke-opacity: 0.6; stroke-width: 0.8"/>
     </g>
     <g id="line2d_8">
      <g>
       <use xlink:href="#m9e5151713b" x="344.16946" y="241.599141" style="fill: #7f7f7f; stroke: #7f7f7f; stroke-width: 1.8"/>
      </g>
     </g>
     <g id="text_4">
      <!-- 60 -->
      <g style="fill: #7f7f7f" transform="translate(337.80696 256.196797) scale(0.1 -0.1)">
       <defs>
        <path id="DejaVuSans-19" d="M 2113 2584 
Q 1688 2584 1439 2293 
Q 1191 2003 1191 1497 
Q 1191 994 1439 701 
Q 1688 409 2113 409 
Q 2538 409 2786 701 
Q 3034 994 3034 1497 
Q 3034 2003 2786 2293 
Q 2538 2584 2113 2584 
z
M 3366 4563 
L 3366 3988 
Q 3128 4100 2886 4159 
Q 2644 4219 2406 4219 
Q 1781 4219 1451 3797 
Q 1122 3375 1075 2522 
Q 1259 2794 1537 2939 
Q 1816 3084 2150 3084 
Q 2853 3084 3261 2657 
Q 3669 2231 3669 1497 
Q 3669 778 3244 343 
Q 2819 -91 2113 -91 
Q 1303 -91 875 529 
Q 447 1150 447 2328 
Q 447 3434 972 4092 
Q 1497 4750 2381 4750 
Q 2619 4750 2861 4703 
Q 3103 4656 3366 4563 
z
" transform="scale(0.015625)"/>
       </defs>
       <use xlink:href="#DejaVuSans-19"/>
       <use xlink:href="#DejaVuSans-13" transform="translate(63.625 0)"/>
      </g>
     </g>
    </g>
    <g id="xtick_5">
     <g id="line2d_9">
      <path d="M 440.805256 241.599141 
L 440.805256 7.2 
" clip-path="url(#p59ed93c5ab)" style="fill: none; stroke-dasharray: 2.96,1.28; stroke-dashoffset: 0; stroke: #7f7f7f; stroke-opacity: 0.6; stroke-width: 0.8"/>
     </g>
     <g id="line2d_10">
      <g>
       <use xlink:href="#m9e5151713b" x="440.805256" y="241.599141" style="fill: #7f7f7f; stroke: #7f7f7f; stroke-width: 1.8"/>
      </g>
     </g>
     <g id="text_5">
      <!-- 80 -->
      <g style="fill: #7f7f7f" transform="translate(434.442756 256.196797) scale(0.1 -0.1)">
       <defs>
        <path id="DejaVuSans-1b" d="M 2034 2216 
Q 1584 2216 1326 1975 
Q 1069 1734 1069 1313 
Q 1069 891 1326 650 
Q 1584 409 2034 409 
Q 2484 409 2743 651 
Q 3003 894 3003 1313 
Q 3003 1734 2745 1975 
Q 2488 2216 2034 2216 
z
M 1403 2484 
Q 997 2584 770 2862 
Q 544 3141 544 3541 
Q 544 4100 942 4425 
Q 1341 4750 2034 4750 
Q 2731 4750 3128 4425 
Q 3525 4100 3525 3541 
Q 3525 3141 3298 2862 
Q 3072 2584 2669 2484 
Q 3125 2378 3379 2068 
Q 3634 1759 3634 1313 
Q 3634 634 3220 271 
Q 2806 -91 2034 -91 
Q 1263 -91 848 271 
Q 434 634 434 1313 
Q 434 1759 690 2068 
Q 947 2378 1403 2484 
z
M 1172 3481 
Q 1172 3119 1398 2916 
Q 1625 2713 2034 2713 
Q 2441 2713 2670 2916 
Q 2900 3119 2900 3481 
Q 2900 3844 2670 4047 
Q 2441 4250 2034 4250 
Q 1625 4250 1398 4047 
Q 1172 3844 1172 3481 
z
" transform="scale(0.015625)"/>
       </defs>
       <use xlink:href="#DejaVuSans-1b"/>
       <use xlink:href="#DejaVuSans-13" transform="translate(63.625 0)"/>
      </g>
     </g>
    </g>
    <g id="xtick_6">
     <g id="line2d_11">
      <path d="M 537.441051 241.599141 
L 537.441051 7.2 
" clip-path="url(#p59ed93c5ab)" style="fill: none; stroke-dasharray: 2.96,1.28; stroke-dashoffset: 0; stroke: #7f7f7f; stroke-opacity: 0.6; stroke-width: 0.8"/>
     </g>
     <g id="line2d_12">
      <g>
       <use xlink:href="#m9e5151713b" x="537.441051" y="241.599141" style="fill: #7f7f7f; stroke: #7f7f7f; stroke-width: 1.8"/>
      </g>
     </g>
     <g id="text_6">
      <!-- 100 -->
      <g style="fill: #7f7f7f" transform="translate(527.897301 256.196797) scale(0.1 -0.1)">
       <defs>
        <path id="DejaVuSans-14" d="M 794 531 
L 1825 531 
L 1825 4091 
L 703 3866 
L 703 4441 
L 1819 4666 
L 2450 4666 
L 2450 531 
L 3481 531 
L 3481 0 
L 794 0 
L 794 531 
z
" transform="scale(0.015625)"/>
       </defs>
       <use xlink:href="#DejaVuSans-14"/>
       <use xlink:href="#DejaVuSans-13" transform="translate(63.625 0)"/>
       <use xlink:href="#DejaVuSans-13" transform="translate(127.25 0)"/>
      </g>
     </g>
    </g>
    <g id="text_7">
     <!-- time [s] -->
     <g style="fill: #7f7f7f" transform="translate(274.521016 270.957422) scale(0.11 -0.11)">
      <defs>
       <path id="DejaVuSans-57" d="M 1172 4494 
L 1172 3500 
L 2356 3500 
L 2356 3053 
L 1172 3053 
L 1172 1153 
Q 1172 725 1289 603 
Q 1406 481 1766 481 
L 2356 481 
L 2356 0 
L 1766 0 
Q 1100 0 847 248 
Q 594 497 594 1153 
L 594 3053 
L 172 3053 
L 172 3500 
L 594 3500 
L 594 4494 
L 1172 4494 
z
" transform="scale(0.015625)"/>
       <path id="DejaVuSans-4c" d="M 603 3500 
L 1178 3500 
L 1178 0 
L 603 0 
L 603 3500 
z
M 603 4863 
L 1178 4863 
L 1178 4134 
L 603 4134 
L 603 4863 
z
" transform="scale(0.015625)"/>
       <path id="DejaVuSans-50" d="M 3328 2828 
Q 3544 3216 3844 3400 
Q 4144 3584 4550 3584 
Q 5097 3584 5394 3201 
Q 5691 2819 5691 2113 
L 5691 0 
L 5113 0 
L 5113 2094 
Q 5113 2597 4934 2840 
Q 4756 3084 4391 3084 
Q 3944 3084 3684 2787 
Q 3425 2491 3425 1978 
L 3425 0 
L 2847 0 
L 2847 2094 
Q 2847 2600 2669 2842 
Q 2491 3084 2119 3084 
Q 1678 3084 1418 2786 
Q 1159 2488 1159 1978 
L 1159 0 
L 581 0 
L 581 3500 
L 1159 3500 
L 1159 2956 
Q 1356 3278 1631 3431 
Q 1906 3584 2284 3584 
Q 2666 3584 2933 3390 
Q 3200 3197 3328 2828 
z
" transform="scale(0.015625)"/>
       <path id="DejaVuSans-48" d="M 3597 1894 
L 3597 1613 
L 953 1613 
Q 991 1019 1311 708 
Q 1631 397 2203 397 
Q 2534 397 2845 478 
Q 3156 559 3463 722 
L 3463 178 
Q 3153 47 2828 -22 
Q 2503 -91 2169 -91 
Q 1331 -91 842 396 
Q 353 884 353 1716 
Q 353 2575 817 3079 
Q 1281 3584 2069 3584 
Q 2775 3584 3186 3129 
Q 3597 2675 3597 1894 
z
M 3022 2063 
Q 3016 2534 2758 2815 
Q 2500 3097 2075 3097 
Q 1594 3097 1305 2825 
Q 1016 2553 972 2059 
L 3022 2063 
z
" transform="scale(0.015625)"/>
       <path id="DejaVuSans-3" transform="scale(0.015625)"/>
       <path id="DejaVuSans-3e" d="M 550 4863 
L 1875 4863 
L 1875 4416 
L 1125 4416 
L 1125 -397 
L 1875 -397 
L 1875 -844 
L 550 -844 
L 550 4863 
z
" transform="scale(0.015625)"/>
       <path id="DejaVuSans-56" d="M 2834 3397 
L 2834 2853 
Q 2591 2978 2328 3040 
Q 2066 3103 1784 3103 
Q 1356 3103 1142 2972 
Q 928 2841 928 2578 
Q 928 2378 1081 2264 
Q 1234 2150 1697 2047 
L 1894 2003 
Q 2506 1872 2764 1633 
Q 3022 1394 3022 966 
Q 3022 478 2636 193 
Q 2250 -91 1575 -91 
Q 1294 -91 989 -36 
Q 684 19 347 128 
L 347 722 
Q 666 556 975 473 
Q 1284 391 1588 391 
Q 1994 391 2212 530 
Q 2431 669 2431 922 
Q 2431 1156 2273 1281 
Q 2116 1406 1581 1522 
L 1381 1569 
Q 847 1681 609 1914 
Q 372 2147 372 2553 
Q 372 3047 722 3315 
Q 1072 3584 1716 3584 
Q 2034 3584 2315 3537 
Q 2597 3491 2834 3397 
z
" transform="scale(0.015625)"/>
       <path id="DejaVuSans-40" d="M 1947 4863 
L 1947 -844 
L 622 -844 
L 622 -397 
L 1369 -397 
L 1369 4416 
L 622 4416 
L 622 4863 
L 1947 4863 
z
" transform="scale(0.015625)"/>
      </defs>
      <use xlink:href="#DejaVuSans-57"/>
      <use xlink:href="#DejaVuSans-4c" transform="translate(39.203125 0)"/>
      <use xlink:href="#DejaVuSans-50" transform="translate(66.984375 0)"/>
      <use xlink:href="#DejaVuSans-48" transform="translate(164.390625 0)"/>
      <use xlink:href="#DejaVuSans-3" transform="translate(225.921875 0)"/>
      <use xlink:href="#DejaVuSans-3e" transform="translate(257.703125 0)"/>
      <use xlink:href="#DejaVuSans-56" transform="translate(296.71875 0)"/>
      <use xlink:href="#DejaVuSans-40" transform="translate(348.8125 0)"/>
     </g>
    </g>
   </g>
   <g id="matplotlib.axis_2">
    <g id="ytick_1">
     <g id="line2d_13">
      <path d="M 30.103125 214.348662 
L 561.6 214.348662 
" clip-path="url(#p59ed93c5ab)" style="fill: none; stroke-dasharray: 2.96,1.28; stroke-dashoffset: 0; stroke: #7f7f7f; stroke-opacity: 0.6; stroke-width: 0.8"/>
     </g>
     <g id="line2d_14">
      <defs>
       <path id="ma57ddcf672" d="M 0 0 
L -3.5 0 
" style="stroke: #7f7f7f; stroke-width: 1.8"/>
      </defs>
      <g>
       <use xlink:href="#ma57ddcf672" x="30.103125" y="214.348662" style="fill: #7f7f7f; stroke: #7f7f7f; stroke-width: 1.8"/>
      </g>
     </g>
     <g id="text_8">
      <!-- 0.0 -->
      <g style="fill: #7f7f7f" transform="translate(7.2 218.14749) scale(0.1 -0.1)">
       <defs>
        <path id="DejaVuSans-11" d="M 684 794 
L 1344 794 
L 1344 0 
L 684 0 
L 684 794 
z
" transform="scale(0.015625)"/>
       </defs>
       <use xlink:href="#DejaVuSans-13"/>
       <use xlink:href="#DejaVuSans-11" transform="translate(63.625 0)"/>
       <use xlink:href="#DejaVuSans-13" transform="translate(95.40625 0)"/>
      </g>
     </g>
    </g>
    <g id="ytick_2">
     <g id="line2d_15">
      <path d="M 30.103125 183.060795 
L 561.6 183.060795 
" clip-path="url(#p59ed93c5ab)" style="fill: none; stroke-dasharray: 2.96,1.28; stroke-dashoffset: 0; stroke: #7f7f7f; stroke-opacity: 0.6; stroke-width: 0.8"/>
     </g>
     <g id="line2d_16">
      <g>
       <use xlink:href="#ma57ddcf672" x="30.103125" y="183.060795" style="fill: #7f7f7f; stroke: #7f7f7f; stroke-width: 1.8"/>
      </g>
     </g>
     <g id="text_9">
      <!-- 0.2 -->
      <g style="fill: #7f7f7f" transform="translate(7.2 186.859624) scale(0.1 -0.1)">
       <use xlink:href="#DejaVuSans-13"/>
       <use xlink:href="#DejaVuSans-11" transform="translate(63.625 0)"/>
       <use xlink:href="#DejaVuSans-15" transform="translate(95.40625 0)"/>
      </g>
     </g>
    </g>
    <g id="ytick_3">
     <g id="line2d_17">
      <path d="M 30.103125 151.772929 
L 561.6 151.772929 
" clip-path="url(#p59ed93c5ab)" style="fill: none; stroke-dasharray: 2.96,1.28; stroke-dashoffset: 0; stroke: #7f7f7f; stroke-opacity: 0.6; stroke-width: 0.8"/>
     </g>
     <g id="line2d_18">
      <g>
       <use xlink:href="#ma57ddcf672" x="30.103125" y="151.772929" style="fill: #7f7f7f; stroke: #7f7f7f; stroke-width: 1.8"/>
      </g>
     </g>
     <g id="text_10">
      <!-- 0.4 -->
      <g style="fill: #7f7f7f" transform="translate(7.2 155.571757) scale(0.1 -0.1)">
       <use xlink:href="#DejaVuSans-13"/>
       <use xlink:href="#DejaVuSans-11" transform="translate(63.625 0)"/>
       <use xlink:href="#DejaVuSans-17" transform="translate(95.40625 0)"/>
      </g>
     </g>
    </g>
    <g id="ytick_4">
     <g id="line2d_19">
      <path d="M 30.103125 120.485062 
L 561.6 120.485062 
" clip-path="url(#p59ed93c5ab)" style="fill: none; stroke-dasharray: 2.96,1.28; stroke-dashoffset: 0; stroke: #7f7f7f; stroke-opacity: 0.6; stroke-width: 0.8"/>
     </g>
     <g id="line2d_20">
      <g>
       <use xlink:href="#ma57ddcf672" x="30.103125" y="120.485062" style="fill: #7f7f7f; stroke: #7f7f7f; stroke-width: 1.8"/>
      </g>
     </g>
     <g id="text_11">
      <!-- 0.6 -->
      <g style="fill: #7f7f7f" transform="translate(7.2 124.28389) scale(0.1 -0.1)">
       <use xlink:href="#DejaVuSans-13"/>
       <use xlink:href="#DejaVuSans-11" transform="translate(63.625 0)"/>
       <use xlink:href="#DejaVuSans-19" transform="translate(95.40625 0)"/>
      </g>
     </g>
    </g>
    <g id="ytick_5">
     <g id="line2d_21">
      <path d="M 30.103125 89.197196 
L 561.6 89.197196 
" clip-path="url(#p59ed93c5ab)" style="fill: none; stroke-dasharray: 2.96,1.28; stroke-dashoffset: 0; stroke: #7f7f7f; stroke-opacity: 0.6; stroke-width: 0.8"/>
     </g>
     <g id="line2d_22">
      <g>
       <use xlink:href="#ma57ddcf672" x="30.103125" y="89.197196" style="fill: #7f7f7f; stroke: #7f7f7f; stroke-width: 1.8"/>
      </g>
     </g>
     <g id="text_12">
      <!-- 0.8 -->
      <g style="fill: #7f7f7f" transform="translate(7.2 92.996024) scale(0.1 -0.1)">
       <use xlink:href="#DejaVuSans-13"/>
       <use xlink:href="#DejaVuSans-11" transform="translate(63.625 0)"/>
       <use xlink:href="#DejaVuSans-1b" transform="translate(95.40625 0)"/>
      </g>
     </g>
    </g>
    <g id="ytick_6">
     <g id="line2d_23">
      <path d="M 30.103125 57.909329 
L 561.6 57.909329 
" clip-path="url(#p59ed93c5ab)" style="fill: none; stroke-dasharray: 2.96,1.28; stroke-dashoffset: 0; stroke: #7f7f7f; stroke-opacity: 0.6; stroke-width: 0.8"/>
     </g>
     <g id="line2d_24">
      <g>
       <use xlink:href="#ma57ddcf672" x="30.103125" y="57.909329" style="fill: #7f7f7f; stroke: #7f7f7f; stroke-width: 1.8"/>
      </g>
     </g>
     <g id="text_13">
      <!-- 1.0 -->
      <g style="fill: #7f7f7f" transform="translate(7.2 61.708157) scale(0.1 -0.1)">
       <use xlink:href="#DejaVuSans-14"/>
       <use xlink:href="#DejaVuSans-11" transform="translate(63.625 0)"/>
       <use xlink:href="#DejaVuSans-13" transform="translate(95.40625 0)"/>
      </g>
     </g>
    </g>
    <g id="ytick_7">
     <g id="line2d_25">
      <path d="M 30.103125 26.621463 
L 561.6 26.621463 
" clip-path="url(#p59ed93c5ab)" style="fill: none; stroke-dasharray: 2.96,1.28; stroke-dashoffset: 0; stroke: #7f7f7f; stroke-opacity: 0.6; stroke-width: 0.8"/>
     </g>
     <g id="line2d_26">
      <g>
       <use xlink:href="#ma57ddcf672" x="30.103125" y="26.621463" style="fill: #7f7f7f; stroke: #7f7f7f; stroke-width: 1.8"/>
      </g>
     </g>
     <g id="text_14">
      <!-- 1.2 -->
      <g style="fill: #7f7f7f" transform="translate(7.2 30.420291) scale(0.1 -0.1)">
       <use xlink:href="#DejaVuSans-14"/>
       <use xlink:href="#DejaVuSans-11" transform="translate(63.625 0)"/>
       <use xlink:href="#DejaVuSans-15" transform="translate(95.40625 0)"/>
      </g>
     </g>
    </g>
   </g>
   <g id="line2d_27">
    <path d="M 54.262074 214.348662 
L 150.89786 214.348662 
L 151.893695 57.909329 
L 344.169428 57.909329 
L 345.016752 136.128996 
L 537.441051 136.128996 
L 537.441051 136.128996 
" clip-path="url(#p59ed93c5ab)" style="fill: none; stroke: #e41a1c; stroke-width: 2; stroke-linecap: square"/>
   </g>
   <g id="line2d_28">
    <path d="M 54.262074 214.348662 
L 54.382092 212.920269 
L 54.953274 214.497634 
L 55.36279 214.044388 
L 55.766539 214.60236 
L 56.142077 214.850001 
L 56.49605 213.599429 
L 57.270329 214.145453 
L 58.617091 214.218205 
L 60.62939 213.258321 
L 61.303526 214.814426 
L 61.655085 214.04204 
L 62.952625 214.692356 
L 64.202098 214.324523 
L 65.424496 214.607805 
L 72.283501 214.215722 
L 73.644532 215.076154 
L 76.02985 214.066255 
L 77.037954 214.704913 
L 78.501076 213.581025 
L 79.488265 214.706467 
L 80.43064 213.623386 
L 80.698556 214.522119 
L 81.352846 213.585068 
L 82.740484 214.060419 
L 83.731243 214.148158 
L 85.896111 214.067507 
L 86.22098 214.879485 
L 86.540821 213.67923 
L 86.939453 214.173744 
L 87.292959 213.667208 
L 87.622064 214.52451 
L 88.745816 214.175853 
L 90.496326 214.49998 
L 91.491157 213.742119 
L 92.948488 214.366541 
L 94.404687 213.785835 
L 94.698944 215.045818 
L 95.450703 214.155414 
L 96.636307 213.692503 
L 97.649869 215.041863 
L 97.978362 214.671506 
L 98.368957 213.682142 
L 99.028837 214.556947 
L 99.877146 215.11321 
L 100.296045 214.165351 
L 101.042629 214.570945 
L 101.812644 215.561661 
L 102.225086 215.015741 
L 103.792968 214.096585 
L 104.113915 214.911227 
L 104.691694 214.125678 
L 106.001965 214.262284 
L 107.008668 214.660569 
L 108.013972 213.512585 
L 108.788192 214.787248 
L 109.132883 214.355013 
L 111.445844 214.271505 
L 111.872358 213.796666 
L 112.226884 214.929784 
L 113.172552 214.632839 
L 133.135926 214.304708 
L 133.493828 215.350484 
L 133.866352 214.388408 
L 134.224048 212.920873 
L 134.584045 213.894851 
L 136.153998 214.457088 
L 137.734205 213.968781 
L 141.984361 214.613188 
L 143.439012 213.393915 
L 145.144618 214.610279 
L 145.495392 213.735121 
L 146.192353 214.080686 
L 147.667829 214.510521 
L 148.844165 214.561032 
L 149.636059 214.507312 
L 149.980979 213.279828 
L 150.273782 214.747403 
L 150.571872 214.034951 
L 150.897582 216.310651 
L 150.89786 191.313652 
L 150.897989 230.944634 
L 151.893695 214.628669 
L 152.03658 213.595188 
L 152.176637 214.824005 
L 152.904134 214.584206 
L 153.892959 215.097545 
L 154.301627 213.781817 
L 154.965404 214.209521 
L 155.262543 214.215754 
L 156.06087 212.172913 
L 156.587249 212.794724 
L 157.717628 210.96456 
L 158.032019 211.522474 
L 161.129058 203.886791 
L 162.932214 198.37772 
L 189.22118 76.521779 
L 191.623133 69.950664 
L 194.328847 62.754381 
L 204.50228 48.824685 
L 204.957728 49.914078 
L 205.391431 49.142047 
L 207.726138 47.646648 
L 208.56448 47.48037 
L 209.956049 46.157289 
L 210.483707 47.253988 
L 210.929004 46.55811 
L 212.493533 46.26022 
L 216.217567 46.62718 
L 217.290261 46.901838 
L 219.073654 46.867246 
L 220.180618 48.542245 
L 221.963452 48.557454 
L 223.678143 49.057409 
L 224.079271 48.81278 
L 224.544437 49.593457 
L 224.964749 49.823184 
L 225.395871 48.849858 
L 225.925474 50.065351 
L 229.238366 51.064536 
L 230.889873 52.41609 
L 232.203757 52.921837 
L 234.40502 53.782398 
L 234.82392 52.719071 
L 235.20129 53.814485 
L 242.917248 56.838103 
L 243.359916 57.166014 
L 243.772045 56.009316 
L 244.594233 56.464163 
L 245.768545 56.783061 
L 247.013016 57.431493 
L 247.884669 55.889126 
L 249.081635 57.229271 
L 250.790124 57.852421 
L 252.084323 57.991507 
L 261.224791 58.578425 
L 262.40058 58.636645 
L 264.420023 58.375697 
L 265.731598 58.911654 
L 266.175294 58.126049 
L 266.603521 59.402615 
L 267.45455 59.071446 
L 269.178511 58.555636 
L 270.92654 58.970302 
L 271.814175 58.335738 
L 273.167784 58.754242 
L 275.302277 58.627122 
L 276.898286 58.425832 
L 286.618347 58.496907 
L 288.532618 58.421285 
L 288.98788 58.913996 
L 289.438614 58.342575 
L 291.280884 58.154339 
L 291.705306 57.252437 
L 292.097376 57.730844 
L 293.526213 58.383121 
L 293.933511 56.867127 
L 294.307353 57.764197 
L 295.487646 57.818595 
L 298.53303 57.786429 
L 299.671691 58.955887 
L 300.061279 57.26896 
L 300.816413 57.746828 
L 302.202389 58.264234 
L 303.479449 57.50621 
L 304.251258 58.230211 
L 304.655889 57.751952 
L 309.140899 58.072243 
L 309.523319 57.075323 
L 309.913632 58.36607 
L 313.984391 57.556654 
L 315.186954 58.691254 
L 315.955863 57.160571 
L 316.363542 58.243496 
L 318.00948 57.577307 
L 318.438241 58.187406 
L 318.856939 57.576144 
L 320.284864 57.73124 
L 320.650599 58.982386 
L 321.019804 57.256556 
L 323.016535 57.075716 
L 323.828424 57.864912 
L 324.216724 57.594939 
L 326.45755 57.188187 
L 327.245808 58.935677 
L 327.641077 57.811201 
L 329.470134 57.988443 
L 329.890412 57.493453 
L 330.31862 57.872267 
L 330.771997 58.381277 
L 331.187997 57.838693 
L 337.09315 58.069827 
L 339.190716 58.351235 
L 339.988331 57.583264 
L 340.431683 58.202551 
L 341.302642 57.277819 
L 341.745379 58.052776 
L 344.163098 57.545623 
L 344.169891 70.016114 
L 344.169671 17.854506 
L 345.016752 59.317393 
L 346.96011 57.778064 
L 347.752842 58.689626 
L 348.112757 57.417604 
L 348.468099 57.849655 
L 350.199844 59.21276 
L 350.582175 58.750064 
L 350.979266 59.527203 
L 351.771224 59.669904 
L 362.316786 79.453712 
L 365.802337 89.581252 
L 366.72666 91.381091 
L 382.245124 126.575575 
L 392.003423 137.769597 
L 392.412821 137.281081 
L 393.634001 139.162309 
L 394.528781 138.574228 
L 394.989329 139.281223 
L 396.104483 139.927416 
L 398.712587 141.499264 
L 399.140132 141.163985 
L 399.588903 142.036695 
L 400.511897 142.239305 
L 401.122262 142.262376 
L 401.596297 141.236293 
L 401.971913 141.852223 
L 402.704636 142.54533 
L 403.086293 141.39796 
L 403.494788 141.97645 
L 405.00019 141.903659 
L 407.532368 141.857464 
L 408.740223 141.919956 
L 411.238244 140.999503 
L 412.848663 141.235787 
L 414.075344 139.979015 
L 414.513792 140.448395 
L 415.25074 140.765171 
L 416.615256 140.065106 
L 437.096977 136.961051 
L 437.476087 136.20054 
L 437.879231 137.369297 
L 438.297909 136.756541 
L 439.585028 136.584913 
L 443.589564 136.187091 
L 443.992076 135.694271 
L 444.379414 136.457154 
L 444.802594 137.090421 
L 445.200956 136.442106 
L 447.503388 135.327639 
L 448.687704 136.269383 
L 450.693963 135.463202 
L 452.418354 136.104354 
L 453.228876 135.743502 
L 454.365559 136.263143 
L 455.695837 136.027501 
L 457.053243 135.730414 
L 458.798194 135.583238 
L 459.251502 134.991903 
L 459.622113 136.344321 
L 459.998301 135.208976 
L 462.539975 135.325442 
L 462.986852 136.044425 
L 463.389582 135.77323 
L 464.955246 134.738321 
L 466.164292 135.619083 
L 466.545168 135.058189 
L 466.943676 136.277279 
L 467.690474 135.648866 
L 468.140054 134.764622 
L 468.562689 135.738531 
L 468.920473 136.606153 
L 469.286941 136.03443 
L 470.087918 135.387801 
L 471.423386 136.218553 
L 473.20027 135.958408 
L 475.906378 135.937463 
L 477.522042 136.351369 
L 477.955895 137.157329 
L 478.36402 136.386473 
L 480.361489 135.972572 
L 483.31791 135.998012 
L 484.572148 135.949696 
L 485.381741 135.392496 
L 486.630961 136.049803 
L 488.001827 135.590677 
L 491.296115 136.055724 
L 493.018791 135.480595 
L 494.13846 136.392301 
L 494.976252 136.715655 
L 495.366556 135.953785 
L 496.202282 136.414621 
L 498.569644 135.719393 
L 499.800497 136.04636 
L 502.553686 136.263577 
L 502.902405 135.797147 
L 503.288737 136.158902 
L 503.717539 136.553586 
L 504.154577 136.020727 
L 505.066227 135.796407 
L 505.428121 137.168108 
L 505.789816 136.549499 
L 506.593574 135.505398 
L 507.011276 135.98586 
L 509.783277 136.919243 
L 511.477037 135.804364 
L 512.298683 136.946342 
L 512.693842 136.259795 
L 513.955086 136.045109 
L 517.347291 136.230892 
L 518.543252 136.004948 
L 519.744008 136.288221 
L 520.109529 135.1823 
L 520.492419 135.772129 
L 521.041828 135.810756 
L 521.408135 136.850431 
L 522.193523 136.402695 
L 523.387612 135.113422 
L 523.755062 136.716753 
L 524.457387 136.314864 
L 524.823344 136.798909 
L 525.242208 136.133101 
L 526.500584 135.705155 
L 526.91305 136.569583 
L 527.327182 135.306614 
L 528.904436 136.750532 
L 529.720917 135.935923 
L 530.190733 136.31744 
L 533.737721 136.42952 
L 535.580276 136.05808 
L 535.941075 135.514253 
L 536.297919 135.960889 
L 537.441051 136.722511 
L 537.441051 136.722511 
" clip-path="url(#p59ed93c5ab)" style="fill: none; stroke: #377eb8; stroke-width: 2; stroke-linecap: square"/>
   </g>
   <g id="line2d_29">
    <path d="M 54.262074 214.348662 
L 54.310392 213.422262 
L 54.717397 214.782145 
L 54.953274 214.452691 
L 59.370351 214.998182 
L 59.985969 213.917992 
L 60.320334 214.018454 
L 60.62939 215.13986 
L 61.303526 213.99995 
L 62.560122 214.596125 
L 63.268527 213.465246 
L 63.523629 215.070302 
L 64.202098 214.057274 
L 65.790139 214.855658 
L 66.514104 214.065568 
L 66.894397 214.734303 
L 69.820732 214.448126 
L 72.628001 213.801747 
L 73.644532 214.175031 
L 74.71326 214.523305 
L 76.320773 213.546679 
L 77.455554 213.809858 
L 77.835717 213.790911 
L 79.196121 215.280817 
L 79.825925 213.471539 
L 80.133726 214.198946 
L 80.43064 215.542926 
L 81.018358 214.035075 
L 84.685825 214.349132 
L 85.544426 214.100377 
L 85.896111 215.08938 
L 86.540821 214.151553 
L 89.547372 214.826457 
L 89.850229 213.543274 
L 90.496326 214.786894 
L 90.836397 214.968746 
L 91.161954 214.139351 
L 93.404009 214.113647 
L 94.969617 215.368438 
L 95.201099 213.613599 
L 95.993098 214.501144 
L 96.636307 215.335181 
L 97.161741 213.294687 
L 97.412775 214.872557 
L 97.978362 214.319762 
L 99.028837 214.550129 
L 100.682406 214.556191 
L 101.042629 213.865311 
L 101.812644 214.539192 
L 103.792968 213.993705 
L 104.113915 215.109942 
L 104.691694 214.312133 
L 106.398167 214.449517 
L 106.717812 215.298931 
L 107.008668 213.923284 
L 107.280624 214.286426 
L 107.651526 214.84685 
L 108.013972 214.605156 
L 108.419906 213.960756 
L 109.132883 214.63826 
L 111.872358 214.477827 
L 112.877235 213.80772 
L 114.114461 214.458768 
L 116.165625 214.13472 
L 116.506136 214.999013 
L 116.772498 213.406456 
L 117.311577 214.476545 
L 117.654803 214.962752 
L 117.987054 214.324086 
L 118.290075 213.330392 
L 118.56741 214.815959 
L 118.825087 214.601402 
L 119.879784 214.669489 
L 120.189966 213.333948 
L 120.77634 214.245288 
L 121.10064 215.145764 
L 121.716363 214.390397 
L 122.068059 213.699461 
L 122.402903 214.339808 
L 123.667995 214.336223 
L 124.50869 213.888753 
L 124.833233 213.56505 
L 125.398514 215.069302 
L 125.683531 214.275923 
L 127.260253 214.004634 
L 128.922597 215.520909 
L 129.465256 214.066205 
L 130.127531 214.492406 
L 131.469806 213.414556 
L 132.46755 214.810053 
L 133.135926 213.96358 
L 133.493828 214.151484 
L 136.528553 214.782071 
L 139.063469 213.863419 
L 139.374753 214.958169 
L 140.127136 214.054934 
L 141.174945 213.125366 
L 141.436113 213.74548 
L 141.712011 215.170951 
L 142.391554 214.260185 
L 142.722742 215.071334 
L 143.439012 214.719359 
L 144.456111 214.142654 
L 150.685254 215.01584 
L 150.897582 211.669896 
L 150.894678 216.979234 
L 150.897813 215.168983 
L 150.89786 226.565694 
L 150.898106 175.400797 
L 151.893695 214.584879 
L 152.03658 214.633639 
L 152.176637 214.10765 
L 153.102692 212.148838 
L 153.310414 212.912338 
L 153.892959 212.001618 
L 157.421368 208.988854 
L 158.66409 207.479475 
L 159.005776 208.119852 
L 159.330131 207.866797 
L 160.421943 206.901781 
L 160.790795 207.08969 
L 161.567931 205.482486 
L 162.236069 205.73357 
L 162.602269 206.308092 
L 162.932214 205.000471 
L 163.316953 205.675425 
L 164.786624 204.459215 
L 166.068084 203.255272 
L 169.872568 201.745398 
L 171.512214 201.4284 
L 173.21754 199.714708 
L 173.706626 200.410815 
L 174.036354 198.897179 
L 174.719235 200.297979 
L 175.084742 200.894122 
L 175.432498 199.686438 
L 177.867796 198.320624 
L 178.7402 199.079684 
L 179.865382 198.458936 
L 180.864222 198.562241 
L 182.463508 197.884638 
L 187.795437 197.701903 
L 188.772415 197.452545 
L 190.090904 197.4539 
L 190.451105 196.757467 
L 190.808197 197.745604 
L 196.277838 197.202385 
L 196.639801 197.981903 
L 196.998108 196.955859 
L 199.387706 197.855056 
L 200.632761 196.636768 
L 201.940979 197.561362 
L 203.644617 197.019111 
L 204.50228 197.739704 
L 205.769065 196.976566 
L 206.1434 198.228254 
L 206.951195 197.508719 
L 207.726138 197.392898 
L 208.996646 198.109226 
L 210.929004 197.48661 
L 211.336384 197.163158 
L 211.729833 198.715652 
L 212.493533 198.319992 
L 215.346825 197.877079 
L 216.217567 198.27364 
L 216.924003 197.58341 
L 217.290261 198.628595 
L 217.728561 197.889846 
L 218.214758 198.26114 
L 219.4501 197.803721 
L 219.823594 197.187097 
L 220.180618 198.215405 
L 230.889873 198.473305 
L 232.203757 198.267055 
L 233.113259 199.188237 
L 233.488619 198.513243 
L 235.20129 198.421518 
L 236.551337 199.158582 
L 236.975519 199.251514 
L 238.123639 197.85393 
L 238.470719 198.797294 
L 238.962639 198.479865 
L 239.345942 198.098633 
L 239.726184 199.608944 
L 240.085772 198.753654 
L 248.289177 199.438714 
L 248.696 198.254745 
L 249.081635 198.608271 
L 249.508923 199.540999 
L 249.900337 198.644214 
L 251.643334 199.060247 
L 252.940907 198.422353 
L 253.340935 199.077284 
L 253.799775 198.663341 
L 254.640284 198.383989 
L 256.393135 198.766852 
L 260.687497 198.647144 
L 262.897545 198.827983 
L 264.010221 198.47289 
L 266.175294 198.592691 
L 266.603521 199.209245 
L 267.004953 198.673994 
L 268.734731 198.452167 
L 270.526803 199.43521 
L 272.6577 198.583567 
L 273.627551 198.969767 
L 274.805704 198.354445 
L 293.526213 198.808871 
L 294.307353 198.538561 
L 295.487646 199.238371 
L 295.900068 198.205298 
L 296.29898 198.862667 
L 298.117802 198.629066 
L 299.285894 198.507188 
L 301.674951 198.576018 
L 303.122109 198.495931 
L 303.479449 199.361749 
L 303.834002 198.382598 
L 306.276989 198.429087 
L 307.103255 199.240526 
L 307.509747 198.628792 
L 309.913632 198.473063 
L 312.271574 198.881386 
L 313.984391 198.442019 
L 314.781827 199.204106 
L 315.186954 197.837337 
L 315.955863 198.615586 
L 317.257044 198.919361 
L 318.00948 198.404051 
L 318.438241 198.910668 
L 320.650599 198.586035 
L 321.387048 198.983456 
L 321.812932 197.829956 
L 322.200644 199.269577 
L 323.417292 199.104203 
L 323.828424 199.548861 
L 324.216724 198.573313 
L 325.585714 199.163331 
L 326.45755 198.135874 
L 326.847425 198.51631 
L 328.041799 198.657919 
L 330.31862 199.016336 
L 330.771997 198.174133 
L 331.187997 198.917928 
L 333.390819 198.258063 
L 334.941988 199.181712 
L 335.377299 199.659402 
L 335.769615 199.044602 
L 338.313144 198.69309 
L 340.869367 198.707188 
L 342.50672 197.958956 
L 342.85243 199.131784 
L 343.240838 198.819256 
L 343.613591 197.645754 
L 344.16759 197.878645 
L 344.169671 217.735955 
L 344.17064 189.27295 
L 345.016752 199.43489 
L 347.342168 200.098248 
L 348.885952 200.728325 
L 358.882197 204.169283 
L 359.628683 203.758682 
L 360.742525 204.883251 
L 361.106437 203.995217 
L 361.87489 204.520348 
L 363.790343 206.075846 
L 364.500563 204.906455 
L 365.26438 205.638795 
L 377.247236 207.230409 
L 377.59759 206.328537 
L 378.503275 206.737293 
L 392.003423 207.243767 
L 393.634001 206.782892 
L 395.70264 207.65398 
L 396.104483 206.879477 
L 396.553045 207.78325 
L 399.140132 206.619231 
L 401.971913 207.35641 
L 402.344398 207.896348 
L 402.704636 206.497681 
L 403.494788 206.918515 
L 425.85598 206.801141 
L 426.212607 207.733451 
L 426.539361 206.961843 
L 427.465536 206.538645 
L 427.800758 205.579839 
L 428.132086 206.48799 
L 431.33115 206.456608 
L 431.670758 205.498363 
L 432.006321 206.513296 
L 434.523671 207.17476 
L 434.900574 205.989777 
L 435.728546 206.508056 
L 436.715432 206.521134 
L 437.879231 206.579034 
L 439.585028 206.123047 
L 441.982415 207.097042 
L 442.378081 205.872306 
L 443.170865 206.236691 
L 443.589564 205.80349 
L 443.992076 207.114762 
L 444.379414 206.282318 
L 445.619915 206.676336 
L 446.000112 207.367007 
L 446.344082 206.659536 
L 453.228876 205.772842 
L 453.589953 207.315569 
L 454.365559 206.77562 
L 459.998301 205.896917 
L 460.395197 205.531641 
L 461.190367 206.761842 
L 461.591071 206.419764 
L 465.374896 206.430603 
L 473.20027 206.615328 
L 473.546352 205.651609 
L 473.888509 206.711593 
L 474.290885 207.276985 
L 474.659666 206.074257 
L 475.906378 206.767333 
L 477.522042 206.062389 
L 478.36402 206.856927 
L 479.207931 206.44049 
L 480.036929 206.844452 
L 480.361489 205.512167 
L 480.681949 206.202275 
L 482.432083 206.888269 
L 483.31791 205.902617 
L 483.708725 206.684514 
L 485.813579 205.995111 
L 487.035016 207.027507 
L 487.441714 206.524145 
L 492.581565 206.764582 
L 493.018791 206.037756 
L 493.387814 206.265289 
L 493.760228 207.122402 
L 494.13846 205.912728 
L 494.523574 206.472431 
L 496.202282 206.729775 
L 502.173236 206.232843 
L 502.553686 205.573172 
L 502.902405 206.847946 
L 503.288737 206.117519 
L 505.066227 206.810416 
L 505.428121 205.93641 
L 506.189702 206.526484 
L 508.714766 206.840784 
L 509.048851 205.775865 
L 509.783277 206.499977 
L 515.350245 206.379596 
L 517.347291 206.359388 
L 517.698827 207.162785 
L 518.543252 206.705036 
L 520.492419 206.548753 
L 523.755062 206.29454 
L 524.108597 205.622626 
L 524.457387 207.051138 
L 525.655367 206.62806 
L 528.090248 205.952813 
L 529.310954 206.962717 
L 529.720917 206.602513 
L 536.297919 206.228656 
L 536.64242 207.136561 
L 537.441051 206.8108 
" clip-path="url(#p59ed93c5ab)" style="fill: none; stroke: #4daf4a; stroke-width: 2; stroke-linecap: square"/>
   </g>
   <g id="patch_3">
    <path d="M 30.103125 241.599141 
L 30.103125 7.2 
" style="fill: none; stroke: #7f7f7f; stroke-width: 1.8; stroke-linejoin: miter; stroke-linecap: square"/>
   </g>
   <g id="patch_4">
    <path d="M 30.103125 241.599141 
L 561.6 241.599141 
" style="fill: none; stroke: #7f7f7f; stroke-width: 1.8; stroke-linejoin: miter; stroke-linecap: square"/>
   </g>
   <g id="legend_1">
    <g id="line2d_30">
     <path d="M 483.814062 20.298438 
L 493.814062 20.298438 
L 503.814062 20.298438 
" style="fill: none; stroke: #e41a1c; stroke-width: 2; stroke-linecap: square"/>
    </g>
    <g id="text_15">
     <!-- setpoint -->
     <g style="fill: #7f7f7f" transform="translate(511.814062 23.798438) scale(0.1 -0.1)">
      <defs>
       <path id="DejaVuSans-53" d="M 1159 525 
L 1159 -1331 
L 581 -1331 
L 581 3500 
L 1159 3500 
L 1159 2969 
Q 1341 3281 1617 3432 
Q 1894 3584 2278 3584 
Q 2916 3584 3314 3078 
Q 3713 2572 3713 1747 
Q 3713 922 3314 415 
Q 2916 -91 2278 -91 
Q 1894 -91 1617 61 
Q 1341 213 1159 525 
z
M 3116 1747 
Q 3116 2381 2855 2742 
Q 2594 3103 2138 3103 
Q 1681 3103 1420 2742 
Q 1159 2381 1159 1747 
Q 1159 1113 1420 752 
Q 1681 391 2138 391 
Q 2594 391 2855 752 
Q 3116 1113 3116 1747 
z
" transform="scale(0.015625)"/>
       <path id="DejaVuSans-52" d="M 1959 3097 
Q 1497 3097 1228 2736 
Q 959 2375 959 1747 
Q 959 1119 1226 758 
Q 1494 397 1959 397 
Q 2419 397 2687 759 
Q 2956 1122 2956 1747 
Q 2956 2369 2687 2733 
Q 2419 3097 1959 3097 
z
M 1959 3584 
Q 2709 3584 3137 3096 
Q 3566 2609 3566 1747 
Q 3566 888 3137 398 
Q 2709 -91 1959 -91 
Q 1206 -91 779 398 
Q 353 888 353 1747 
Q 353 2609 779 3096 
Q 1206 3584 1959 3584 
z
" transform="scale(0.015625)"/>
       <path id="DejaVuSans-51" d="M 3513 2113 
L 3513 0 
L 2938 0 
L 2938 2094 
Q 2938 2591 2744 2837 
Q 2550 3084 2163 3084 
Q 1697 3084 1428 2787 
Q 1159 2491 1159 1978 
L 1159 0 
L 581 0 
L 581 3500 
L 1159 3500 
L 1159 2956 
Q 1366 3272 1645 3428 
Q 1925 3584 2291 3584 
Q 2894 3584 3203 3211 
Q 3513 2838 3513 2113 
z
" transform="scale(0.015625)"/>
      </defs>
      <use xlink:href="#DejaVuSans-56"/>
      <use xlink:href="#DejaVuSans-48" transform="translate(52.09375 0)"/>
      <use xlink:href="#DejaVuSans-57" transform="translate(113.625 0)"/>
      <use xlink:href="#DejaVuSans-53" transform="translate(152.828125 0)"/>
      <use xlink:href="#DejaVuSans-52" transform="translate(216.3125 0)"/>
      <use xlink:href="#DejaVuSans-4c" transform="translate(277.5 0)"/>
      <use xlink:href="#DejaVuSans-51" transform="translate(305.28125 0)"/>
      <use xlink:href="#DejaVuSans-57" transform="translate(368.65625 0)"/>
     </g>
    </g>
    <g id="line2d_31">
     <path d="M 483.814062 35.299219 
L 493.814062 35.299219 
L 503.814062 35.299219 
" style="fill: none; stroke: #377eb8; stroke-width: 2; stroke-linecap: square"/>
    </g>
    <g id="text_16">
     <!-- plant 1 -->
     <g style="fill: #7f7f7f" transform="translate(511.814062 38.799219) scale(0.1 -0.1)">
      <defs>
       <path id="DejaVuSans-4f" d="M 603 4863 
L 1178 4863 
L 1178 0 
L 603 0 
L 603 4863 
z
" transform="scale(0.015625)"/>
       <path id="DejaVuSans-44" d="M 2194 1759 
Q 1497 1759 1228 1600 
Q 959 1441 959 1056 
Q 959 750 1161 570 
Q 1363 391 1709 391 
Q 2188 391 2477 730 
Q 2766 1069 2766 1631 
L 2766 1759 
L 2194 1759 
z
M 3341 1997 
L 3341 0 
L 2766 0 
L 2766 531 
Q 2569 213 2275 61 
Q 1981 -91 1556 -91 
Q 1019 -91 701 211 
Q 384 513 384 1019 
Q 384 1609 779 1909 
Q 1175 2209 1959 2209 
L 2766 2209 
L 2766 2266 
Q 2766 2663 2505 2880 
Q 2244 3097 1772 3097 
Q 1472 3097 1187 3025 
Q 903 2953 641 2809 
L 641 3341 
Q 956 3463 1253 3523 
Q 1550 3584 1831 3584 
Q 2591 3584 2966 3190 
Q 3341 2797 3341 1997 
z
" transform="scale(0.015625)"/>
      </defs>
      <use xlink:href="#DejaVuSans-53"/>
      <use xlink:href="#DejaVuSans-4f" transform="translate(63.484375 0)"/>
      <use xlink:href="#DejaVuSans-44" transform="translate(91.265625 0)"/>
      <use xlink:href="#DejaVuSans-51" transform="translate(152.546875 0)"/>
      <use xlink:href="#DejaVuSans-57" transform="translate(215.921875 0)"/>
      <use xlink:href="#DejaVuSans-3" transform="translate(255.125 0)"/>
      <use xlink:href="#DejaVuSans-14" transform="translate(286.90625 0)"/>
     </g>
    </g>
    <g id="line2d_32">
     <path d="M 483.814062 50.3 
L 493.814062 50.3 
L 503.814062 50.3 
" style="fill: none; stroke: #4daf4a; stroke-width: 2; stroke-linecap: square"/>
    </g>
    <g id="text_17">
     <!-- plant 2 -->
     <g style="fill: #7f7f7f" transform="translate(511.814062 53.8) scale(0.1 -0.1)">
      <use xlink:href="#DejaVuSans-53"/>
      <use xlink:href="#DejaVuSans-4f" transform="translate(63.484375 0)"/>
      <use xlink:href="#DejaVuSans-44" transform="translate(91.265625 0)"/>
      <use xlink:href="#DejaVuSans-51" transform="translate(152.546875 0)"/>
      <use xlink:href="#DejaVuSans-57" transform="translate(215.921875 0)"/>
      <use xlink:href="#DejaVuSans-3" transform="translate(255.125 0)"/>
      <use xlink:href="#DejaVuSans-15" transform="translate(286.90625 0)"/>
     </g>
    </g>
   </g>
  </g>
 </g>
 <defs>
  <clipPath id="p59ed93c5ab">
   <rect x="30.103125" y="7.2" width="531.496875" height="234.399141"/>
  </clipPath>
 </defs>
</svg>
