<?xml version="1.0" encoding="utf-8" standalone="no"?>
<!DOCTYPE svg PUBLIC "-//W3C//DTD SVG 1.1//EN"
  "http://www.w3.org/Graphics/SVG/1.1/DTD/svg11.dtd">
<svg xmlns:xlink="http://www.w3.org/1999/xlink" width="568.8pt" height="280.8pt" viewBox="0 0 568.8 280.8" xmlns="http://www.w3.org/2000/svg" version="1.1">
 <metadata>
  <rdf:RDF xmlns:dc="http://purl.org/dc/elements/1.1/" xmlns:cc="http://creativecommons.org/ns#" xmlns:rdf="http://www.w3.org/1999/02/22-rdf-syntax-ns#">
   <cc:Work>
    <dc:type rdf:resource="http://purl.org/dc/dcmitype/StillImage"/>
    <dc:date>2026-06-07T18:37:51.499633</dc:date>
    <dc:format>image/svg+xml</dc:format>
    <dc:creator>
     <cc:Agent>
      <dc:title>Matplotlib v3.10.9, https://matplotlib.org/</dc:title>
     </cc:Agent>
    </dc:creator>
   </cc:Work>
  </rdf:RDF>
 </metadata>
 <defs>
  <style type="text/css">*{stroke-linejoin: round; stroke-linecap: butt}</style>
 </defs>
 <g id="figure_1">
  <g id="patch_1">
   <path d="M 0 280.8 
L 568.8 280.8 
L 568.8 0 
L 0 0 
L 0 280.8 
z
" style="fill: none"/>
  </g>
  <g id="axes_1">
   <g id="patch_2">
    <path d="M 38.482813 242.275937 
L 561.6 242.275937 
L 561.6 7.2 
L 38.482813 7.2 
L 38.482813 242.275937 
z
" style="fill: none"/>
   </g>
   <g id="matplotlib.axis_1">
    <g id="xtick_1">
     <g id="line2d_1">
      <path d="M 62.260866 242.275937 
L 62.260866 7.2 
" clip-path="url(#p5f3aa51cca)" style="fill: none; stroke-dasharray: 2.96,1.28; stroke-dashoffset: 0; stroke: #7f7f7f; stroke-opacity: 0.6; stroke-width: 0.8"/>
     </g>
     <g id="line2d_2">
      <defs>
       <path id="m9ff3dc6ea8" d="M 0 0 
L 0 3.5 
" style="stroke: #7f7f7f; stroke-width: 1.8"/>
      </defs>
      <g>
       <use xlink:href="#m9ff3dc6ea8" x="62.260866" y="242.275937" style="fill: #7f7f7f; stroke: #7f7f7f; stroke-width: 1.8"/>
      </g>
     </g>
     <g id="text_1">
      <!-- 0 -->
      <g style="fill: #7f7f7f" transform="translate(59.079616 256.874375) scale(0.1 -0.1)">
       <defs>
        <path id="DejaVuSans-30" d="M 2034 4250 
Q 1547 4250 1301 3770 
Q 1056 3291 1056 2328 
Q 1056 1369 1301 889 
Q 1547 409 2034 409 
Q 2525 409 2770 889 
Q 3016 1369 3016 2328 
Q 3016 3291 2770 3770 
Q 2525 4250 2034 4250 
z
M 2034 4750 
Q 2819 4750 3233 4129 
Q 3647 3509 3647 2328 
Q 3647 1150 3233 529 
Q 2819 -91 2034 -91 
Q 1250 -91 836 529 
Q 422 1150 422 2328 
Q 422 3509 836 4129 
Q 1250 4750 2034 4750 
z
" transform="scale(0.015625)"/>
       </defs>
       <use xlink:href="#DejaVuSans-30"/>
      </g>
     </g>
    </g>
    <g id="xtick_2">
     <g id="line2d_3">
      <path d="M 157.373082 242.275937 
L 157.373082 7.2 
" clip-path="url(#p5f3aa51cca)" style="fill: none; stroke-dasharray: 2.96,1.28; stroke-dashoffset: 0; stroke: #7f7f7f; stroke-opacity: 0.6; stroke-width: 0.8"/>
     </g>
     <g id="line2d_4">
      <g>
       <use xlink:href="#m9ff3dc6ea8" x="157.373082" y="242.275937" style="fill: #7f7f7f; stroke: #7f7f7f; stroke-width: 1.8"/>
      </g>
     </g>
     <g id="text_2">
      <!-- 20 -->
      <g style="fill: #7f7f7f" transform="translate(151.010582 256.874375) scale(0.1 -0.1)">
       <defs>
        <path id="DejaVuSans-32" d="M 1228 531 
L 3431 531 
L 3431 0 
L 469 0 
L 469 531 
Q 828 903 1448 1529 
Q 2069 2156 2228 2338 
Q 2531 2678 2651 2914 
Q 2772 3150 2772 3378 
Q 2772 3750 2511 3984 
Q 2250 4219 1831 4219 
Q 1534 4219 1204 4116 
Q 875 4013 500 3803 
L 500 4441 
Q 881 4594 1212 4672 
Q 1544 4750 1819 4750 
Q 2544 4750 2975 4387 
Q 3406 4025 3406 3419 
Q 3406 3131 3298 2873 
Q 3191 2616 2906 2266 
Q 2828 2175 2409 1742 
Q 1991 1309 1228 531 
z
" transform="scale(0.015625)"/>
       </defs>
       <use xlink:href="#DejaVuSans-32"/>
       <use xlink:href="#DejaVuSans-30" transform="translate(63.623047 0)"/>
      </g>
     </g>
    </g>
    <g id="xtick_3">
     <g id="line2d_5">
      <path d="M 252.485298 242.275937 
L 252.485298 7.2 
" clip-path="url(#p5f3aa51cca)" style="fill: none; stroke-dasharray: 2.96,1.28; stroke-dashoffset: 0; stroke: #7f7f7f; stroke-opacity: 0.6; stroke-width: 0.8"/>
     </g>
     <g id="line2d_6">
      <g>
       <use xlink:href="#m9ff3dc6ea8" x="252.485298" y="242.275937" style="fill: #7f7f7f; stroke: #7f7f7f; stroke-width: 1.8"/>
      </g>
     </g>
     <g id="text_3">
      <!-- 40 -->
      <g style="fill: #7f7f7f" transform="translate(246.122798 256.874375) scale(0.1 -0.1)">
       <defs>
        <path id="DejaVuSans-34" d="M 2419 4116 
L 825 1625 
L 2419 1625 
L 2419 4116 
z
M 2253 4666 
L 3047 4666 
L 3047 1625 
L 3713 1625 
L 3713 1100 
L 3047 1100 
L 3047 0 
L 2419 0 
L 2419 1100 
L 313 1100 
L 313 1709 
L 2253 4666 
z
" transform="scale(0.015625)"/>
       </defs>
       <use xlink:href="#DejaVuSans-34"/>
       <use xlink:href="#DejaVuSans-30" transform="translate(63.623047 0)"/>
      </g>
     </g>
    </g>
    <g id="xtick_4">
     <g id="line2d_7">
      <path d="M 347.597514 242.275937 
L 347.597514 7.2 
" clip-path="url(#p5f3aa51cca)" style="fill: none; stroke-dasharray: 2.96,1.28; stroke-dashoffset: 0; stroke: #7f7f7f; stroke-opacity: 0.6; stroke-width: 0.8"/>
     </g>
     <g id="line2d_8">
      <g>
       <use xlink:href="#m9ff3dc6ea8" x="347.597514" y="242.275937" style="fill: #7f7f7f; stroke: #7f7f7f; stroke-width: 1.8"/>
      </g>
     </g>
     <g id="text_4">
      <!-- 60 -->
      <g style="fill: #7f7f7f" transform="translate(341.235014 256.874375) scale(0.1 -0.1)">
       <defs>
        <path id="DejaVuSans-36" d="M 2113 2584 
Q 1688 2584 1439 2293 
Q 1191 2003 1191 1497 
Q 1191 994 1439 701 
Q 1688 409 2113 409 
Q 2538 409 2786 701 
Q 3034 994 3034 1497 
Q 3034 2003 2786 2293 
Q 2538 2584 2113 2584 
z
M 3366 4563 
L 3366 3988 
Q 3128 4100 2886 4159 
Q 2644 4219 2406 4219 
Q 1781 4219 1451 3797 
Q 1122 3375 1075 2522 
Q 1259 2794 1537 2939 
Q 1816 3084 2150 3084 
Q 2853 3084 3261 2657 
Q 3669 2231 3669 1497 
Q 3669 778 3244 343 
Q 2819 -91 2113 -91 
Q 1303 -91 875 529 
Q 447 1150 447 2328 
Q 447 3434 972 4092 
Q 1497 4750 2381 4750 
Q 2619 4750 2861 4703 
Q 3103 4656 3366 4563 
z
" transform="scale(0.015625)"/>
       </defs>
       <use xlink:href="#DejaVuSans-36"/>
       <use xlink:href="#DejaVuSans-30" transform="translate(63.623047 0)"/>
      </g>
     </g>
    </g>
    <g id="xtick_5">
     <g id="line2d_9">
      <path d="M 442.70973 242.275937 
L 442.70973 7.2 
" clip-path="url(#p5f3aa51cca)" style="fill: none; stroke-dasharray: 2.96,1.28; stroke-dashoffset: 0; stroke: #7f7f7f; stroke-opacity: 0.6; stroke-width: 0.8"/>
     </g>
     <g id="line2d_10">
      <g>
       <use xlink:href="#m9ff3dc6ea8" x="442.70973" y="242.275937" style="fill: #7f7f7f; stroke: #7f7f7f; stroke-width: 1.8"/>
      </g>
     </g>
     <g id="text_5">
      <!-- 80 -->
      <g style="fill: #7f7f7f" transform="translate(436.34723 256.874375) scale(0.1 -0.1)">
       <defs>
        <path id="DejaVuSans-38" d="M 2034 2216 
Q 1584 2216 1326 1975 
Q 1069 1734 1069 1313 
Q 1069 891 1326 650 
Q 1584 409 2034 409 
Q 2484 409 2743 651 
Q 3003 894 3003 1313 
Q 3003 1734 2745 1975 
Q 2488 2216 2034 2216 
z
M 1403 2484 
Q 997 2584 770 2862 
Q 544 3141 544 3541 
Q 544 4100 942 4425 
Q 1341 4750 2034 4750 
Q 2731 4750 3128 4425 
Q 3525 4100 3525 3541 
Q 3525 3141 3298 2862 
Q 3072 2584 2669 2484 
Q 3125 2378 3379 2068 
Q 3634 1759 3634 1313 
Q 3634 634 3220 271 
Q 2806 -91 2034 -91 
Q 1263 -91 848 271 
Q 434 634 434 1313 
Q 434 1759 690 2068 
Q 947 2378 1403 2484 
z
M 1172 3481 
Q 1172 3119 1398 2916 
Q 1625 2713 2034 2713 
Q 2441 2713 2670 2916 
Q 2900 3119 2900 3481 
Q 2900 3844 2670 4047 
Q 2441 4250 2034 4250 
Q 1625 4250 1398 4047 
Q 1172 3844 1172 3481 
z
" transform="scale(0.015625)"/>
       </defs>
       <use xlink:href="#DejaVuSans-38"/>
       <use xlink:href="#DejaVuSans-30" transform="translate(63.623047 0)"/>
      </g>
     </g>
    </g>
    <g id="xtick_6">
     <g id="line2d_11">
      <path d="M 537.821946 242.275937 
L 537.821946 7.2 
" clip-path="url(#p5f3aa51cca)" style="fill: none; stroke-dasharray: 2.96,1.28; stroke-dashoffset: 0; stroke: #7f7f7f; stroke-opacity: 0.6; stroke-width: 0.8"/>
     </g>
     <g id="line2d_12">
      <g>
       <use xlink:href="#m9ff3dc6ea8" x="537.821946" y="242.275937" style="fill: #7f7f7f; stroke: #7f7f7f; stroke-width: 1.8"/>
      </g>
     </g>
     <g id="text_6">
      <!-- 100 -->
      <g style="fill: #7f7f7f" transform="translate(528.278196 256.874375) scale(0.1 -0.1)">
       <defs>
        <path id="DejaVuSans-31" d="M 794 531 
L 1825 531 
L 1825 4091 
L 703 3866 
L 703 4441 
L 1819 4666 
L 2450 4666 
L 2450 531 
L 3481 531 
L 3481 0 
L 794 0 
L 794 531 
z
" transform="scale(0.015625)"/>
       </defs>
       <use xlink:href="#DejaVuSans-31"/>
       <use xlink:href="#DejaVuSans-30" transform="translate(63.623047 0)"/>
       <use xlink:href="#DejaVuSans-30" transform="translate(127.246094 0)"/>
      </g>
     </g>
    </g>
    <g id="text_7">
     <!-- time [s] -->
     <g style="fill: #7f7f7f" transform="translate(278.710859 271.312344) scale(0.11 -0.11)">
      <defs>
       <path id="DejaVuSans-74" d="M 1172 4494 
L 1172 3500 
L 2356 3500 
L 2356 3053 
L 1172 3053 
L 1172 1153 
Q 1172 725 1289 603 
Q 1406 481 1766 481 
L 2356 481 
L 2356 0 
L 1766 0 
Q 1100 0 847 248 
Q 594 497 594 1153 
L 594 3053 
L 172 3053 
L 172 3500 
L 594 3500 
L 594 4494 
L 1172 4494 
z
" transform="scale(0.015625)"/>
       <path id="DejaVuSans-69" d="M 603 3500 
L 1178 3500 
L 1178 0 
L 603 0 
L 603 3500 
z
M 603 4863 
L 1178 4863 
L 1178 4134 
L 603 4134 
L 603 4863 
z
" transform="scale(0.015625)"/>
       <path id="DejaVuSans-6d" d="M 3328 2828 
Q 3544 3216 3844 3400 
Q 4144 3584 4550 3584 
Q 5097 3584 5394 3201 
Q 5691 2819 5691 2113 
L 5691 0 
L 5113 0 
L 5113 2094 
Q 5113 2597 4934 2840 
Q 4756 3084 4391 3084 
Q 3944 3084 3684 2787 
Q 3425 2491 3425 1978 
L 3425 0 
L 2847 0 
L 2847 2094 
Q 2847 2600 2669 2842 
Q 2491 3084 2119 3084 
Q 1678 3084 1418 2786 
Q 1159 2488 1159 1978 
L 1159 0 
L 581 0 
L 581 3500 
L 1159 3500 
L 1159 2956 
Q 1356 3278 1631 3431 
Q 1906 3584 2284 3584 
Q 2666 3584 2933 3390 
Q 3200 3197 3328 2828 
z
" transform="scale(0.015625)"/>
       <path id="DejaVuSans-65" d="M 3597 1894 
L 3597 1613 
L 953 1613 
Q 991 1019 1311 708 
Q 1631 397 2203 397 
Q 2534 397 2845 478 
Q 3156 559 3463 722 
L 3463 178 
Q 3153 47 2828 -22 
Q 2503 -91 2169 -91 
Q 1331 -91 842 396 
Q 353 884 353 1716 
Q 353 2575 817 3079 
Q 1281 3584 2069 3584 
Q 2775 3584 3186 3129 
Q 3597 2675 3597 1894 
z
M 3022 2063 
Q 3016 2534 2758 2815 
Q 2500 3097 2075 3097 
Q 1594 3097 1305 2825 
Q 1016 2553 972 2059 
L 3022 2063 
z
" transform="scale(0.015625)"/>
       <path id="DejaVuSans-20" transform="scale(0.015625)"/>
       <path id="DejaVuSans-5b" d="M 550 4863 
L 1875 4863 
L 1875 4416 
L 1125 4416 
L 1125 -397 
L 1875 -397 
L 1875 -844 
L 550 -844 
L 550 4863 
z
" transform="scale(0.015625)"/>
       <path id="DejaVuSans-73" d="M 2834 3397 
L 2834 2853 
Q 2591 2978 2328 3040 
Q 2066 3103 1784 3103 
Q 1356 3103 1142 2972 
Q 928 2841 928 2578 
Q 928 2378 1081 2264 
Q 1234 2150 1697 2047 
L 1894 2003 
Q 2506 1872 2764 1633 
Q 3022 1394 3022 966 
Q 3022 478 2636 193 
Q 2250 -91 1575 -91 
Q 1294 -91 989 -36 
Q 684 19 347 128 
L 347 722 
Q 666 556 975 473 
Q 1284 391 1588 391 
Q 1994 391 2212 530 
Q 2431 669 2431 922 
Q 2431 1156 2273 1281 
Q 2116 1406 1581 1522 
L 1381 1569 
Q 847 1681 609 1914 
Q 372 2147 372 2553 
Q 372 3047 722 3315 
Q 1072 3584 1716 3584 
Q 2034 3584 2315 3537 
Q 2597 3491 2834 3397 
z
" transform="scale(0.015625)"/>
       <path id="DejaVuSans-5d" d="M 1947 4863 
L 1947 -844 
L 622 -844 
L 622 -397 
L 1369 -397 
L 1369 4416 
L 622 4416 
L 622 4863 
L 1947 4863 
z
" transform="scale(0.015625)"/>
      </defs>
      <use xlink:href="#DejaVuSans-74"/>
      <use xlink:href="#DejaVuSans-69" transform="translate(39.208984 0)"/>
      <use xlink:href="#DejaVuSans-6d" transform="translate(66.992188 0)"/>
      <use xlink:href="#DejaVuSans-65" transform="translate(164.404297 0)"/>
      <use xlink:href="#DejaVuSans-20" transform="translate(225.927734 0)"/>
      <use xlink:href="#DejaVuSans-5b" transform="translate(257.714844 0)"/>
      <use xlink:href="#DejaVuSans-73" transform="translate(296.728516 0)"/>
      <use xlink:href="#DejaVuSans-5d" transform="translate(348.828125 0)"/>
     </g>
    </g>
   </g>
   <g id="matplotlib.axis_2">
    <g id="ytick_1">
     <g id="line2d_13">
      <path d="M 38.482813 220.577216 
L 561.6 220.577216 
" clip-path="url(#p5f3aa51cca)" style="fill: none; stroke-dasharray: 2.96,1.28; stroke-dashoffset: 0; stroke: #7f7f7f; stroke-opacity: 0.6; stroke-width: 0.8"/>
     </g>
     <g id="line2d_14">
      <defs>
       <path id="m7a3257e807" d="M 0 0 
L -3.5 0 
" style="stroke: #7f7f7f; stroke-width: 1.8"/>
      </defs>
      <g>
       <use xlink:href="#m7a3257e807" x="38.482813" y="220.577216" style="fill: #7f7f7f; stroke: #7f7f7f; stroke-width: 1.8"/>
      </g>
     </g>
     <g id="text_8">
      <!-- −0.2 -->
      <g style="fill: #7f7f7f" transform="translate(7.2 224.376434) scale(0.1 -0.1)">
       <defs>
        <path id="DejaVuSans-2212" d="M 678 2272 
L 4684 2272 
L 4684 1741 
L 678 1741 
L 678 2272 
z
" transform="scale(0.015625)"/>
        <path id="DejaVuSans-2e" d="M 684 794 
L 1344 794 
L 1344 0 
L 684 0 
L 684 794 
z
" transform="scale(0.015625)"/>
       </defs>
       <use xlink:href="#DejaVuSans-2212"/>
       <use xlink:href="#DejaVuSans-30" transform="translate(83.789062 0)"/>
       <use xlink:href="#DejaVuSans-2e" transform="translate(147.412109 0)"/>
       <use xlink:href="#DejaVuSans-32" transform="translate(179.199219 0)"/>
      </g>
     </g>
    </g>
    <g id="ytick_2">
     <g id="line2d_15">
      <path d="M 38.482813 189.196342 
L 561.6 189.196342 
" clip-path="url(#p5f3aa51cca)" style="fill: none; stroke-dasharray: 2.96,1.28; stroke-dashoffset: 0; stroke: #7f7f7f; stroke-opacity: 0.6; stroke-width: 0.8"/>
     </g>
     <g id="line2d_16">
      <g>
       <use xlink:href="#m7a3257e807" x="38.482813" y="189.196342" style="fill: #7f7f7f; stroke: #7f7f7f; stroke-width: 1.8"/>
      </g>
     </g>
     <g id="text_9">
      <!-- 0.0 -->
      <g style="fill: #7f7f7f" transform="translate(15.579688 192.995561) scale(0.1 -0.1)">
       <use xlink:href="#DejaVuSans-30"/>
       <use xlink:href="#DejaVuSans-2e" transform="translate(63.623047 0)"/>
       <use xlink:href="#DejaVuSans-30" transform="translate(95.410156 0)"/>
      </g>
     </g>
    </g>
    <g id="ytick_3">
     <g id="line2d_17">
      <path d="M 38.482813 157.815469 
L 561.6 157.815469 
" clip-path="url(#p5f3aa51cca)" style="fill: none; stroke-dasharray: 2.96,1.28; stroke-dashoffset: 0; stroke: #7f7f7f; stroke-opacity: 0.6; stroke-width: 0.8"/>
     </g>
     <g id="line2d_18">
      <g>
       <use xlink:href="#m7a3257e807" x="38.482813" y="157.815469" style="fill: #7f7f7f; stroke: #7f7f7f; stroke-width: 1.8"/>
      </g>
     </g>
     <g id="text_10">
      <!-- 0.2 -->
      <g style="fill: #7f7f7f" transform="translate(15.579688 161.614688) scale(0.1 -0.1)">
       <use xlink:href="#DejaVuSans-30"/>
       <use xlink:href="#DejaVuSans-2e" transform="translate(63.623047 0)"/>
       <use xlink:href="#DejaVuSans-32" transform="translate(95.410156 0)"/>
      </g>
     </g>
    </g>
    <g id="ytick_4">
     <g id="line2d_19">
      <path d="M 38.482813 126.434596 
L 561.6 126.434596 
" clip-path="url(#p5f3aa51cca)" style="fill: none; stroke-dasharray: 2.96,1.28; stroke-dashoffset: 0; stroke: #7f7f7f; stroke-opacity: 0.6; stroke-width: 0.8"/>
     </g>
     <g id="line2d_20">
      <g>
       <use xlink:href="#m7a3257e807" x="38.482813" y="126.434596" style="fill: #7f7f7f; stroke: #7f7f7f; stroke-width: 1.8"/>
      </g>
     </g>
     <g id="text_11">
      <!-- 0.4 -->
      <g style="fill: #7f7f7f" transform="translate(15.579688 130.233815) scale(0.1 -0.1)">
       <use xlink:href="#DejaVuSans-30"/>
       <use xlink:href="#DejaVuSans-2e" transform="translate(63.623047 0)"/>
       <use xlink:href="#DejaVuSans-34" transform="translate(95.410156 0)"/>
      </g>
     </g>
    </g>
    <g id="ytick_5">
     <g id="line2d_21">
      <path d="M 38.482813 95.053723 
L 561.6 95.053723 
" clip-path="url(#p5f3aa51cca)" style="fill: none; stroke-dasharray: 2.96,1.28; stroke-dashoffset: 0; stroke: #7f7f7f; stroke-opacity: 0.6; stroke-width: 0.8"/>
     </g>
     <g id="line2d_22">
      <g>
       <use xlink:href="#m7a3257e807" x="38.482813" y="95.053723" style="fill: #7f7f7f; stroke: #7f7f7f; stroke-width: 1.8"/>
      </g>
     </g>
     <g id="text_12">
      <!-- 0.6 -->
      <g style="fill: #7f7f7f" transform="translate(15.579688 98.852941) scale(0.1 -0.1)">
       <use xlink:href="#DejaVuSans-30"/>
       <use xlink:href="#DejaVuSans-2e" transform="translate(63.623047 0)"/>
       <use xlink:href="#DejaVuSans-36" transform="translate(95.410156 0)"/>
      </g>
     </g>
    </g>
    <g id="ytick_6">
     <g id="line2d_23">
      <path d="M 38.482813 63.672849 
L 561.6 63.672849 
" clip-path="url(#p5f3aa51cca)" style="fill: none; stroke-dasharray: 2.96,1.28; stroke-dashoffset: 0; stroke: #7f7f7f; stroke-opacity: 0.6; stroke-width: 0.8"/>
     </g>
     <g id="line2d_24">
      <g>
       <use xlink:href="#m7a3257e807" x="38.482813" y="63.672849" style="fill: #7f7f7f; stroke: #7f7f7f; stroke-width: 1.8"/>
      </g>
     </g>
     <g id="text_13">
      <!-- 0.8 -->
      <g style="fill: #7f7f7f" transform="translate(15.579688 67.472068) scale(0.1 -0.1)">
       <use xlink:href="#DejaVuSans-30"/>
       <use xlink:href="#DejaVuSans-2e" transform="translate(63.623047 0)"/>
       <use xlink:href="#DejaVuSans-38" transform="translate(95.410156 0)"/>
      </g>
     </g>
    </g>
    <g id="ytick_7">
     <g id="line2d_25">
      <path d="M 38.482813 32.291976 
L 561.6 32.291976 
" clip-path="url(#p5f3aa51cca)" style="fill: none; stroke-dasharray: 2.96,1.28; stroke-dashoffset: 0; stroke: #7f7f7f; stroke-opacity: 0.6; stroke-width: 0.8"/>
     </g>
     <g id="line2d_26">
      <g>
       <use xlink:href="#m7a3257e807" x="38.482813" y="32.291976" style="fill: #7f7f7f; stroke: #7f7f7f; stroke-width: 1.8"/>
      </g>
     </g>
     <g id="text_14">
      <!-- 1.0 -->
      <g style="fill: #7f7f7f" transform="translate(15.579688 36.091195) scale(0.1 -0.1)">
       <use xlink:href="#DejaVuSans-31"/>
       <use xlink:href="#DejaVuSans-2e" transform="translate(63.623047 0)"/>
       <use xlink:href="#DejaVuSans-30" transform="translate(95.410156 0)"/>
      </g>
     </g>
    </g>
   </g>
   <g id="line2d_27">
    <path d="M 62.260866 189.196342 
L 157.37308 189.196342 
L 158.363192 32.291976 
L 347.597496 32.291976 
L 348.364402 110.744159 
L 537.821946 110.744159 
L 537.821946 110.744159 
" clip-path="url(#p5f3aa51cca)" style="fill: none; stroke: #e41a1c; stroke-width: 2; stroke-linecap: square"/>
   </g>
   <g id="line2d_28">
    <path d="M 62.260866 189.196342 
L 62.623627 187.911085 
L 62.423026 189.817091 
L 63.230953 189.503527 
L 68.183299 189.143024 
L 69.939057 189.487289 
L 72.158022 188.519037 
L 72.520727 189.988448 
L 72.86791 188.339537 
L 73.19687 188.248542 
L 74.311893 189.552894 
L 79.312901 188.979565 
L 79.614188 189.959414 
L 80.280849 188.999778 
L 80.651206 187.868811 
L 81.024536 189.057435 
L 82.120247 189.418511 
L 82.436645 188.423883 
L 83.053186 188.976926 
L 84.576211 190.114457 
L 85.394686 188.813171 
L 86.122068 189.297164 
L 86.812055 188.838524 
L 87.78701 189.999748 
L 88.169136 188.709521 
L 88.926791 189.174382 
L 98.836834 189.305541 
L 99.229386 188.413396 
L 99.634456 189.243861 
L 101.575681 188.768722 
L 102.657501 188.429315 
L 103.616196 188.173898 
L 103.90918 189.792748 
L 104.731659 188.685221 
L 105.081955 189.404654 
L 106.372402 189.054739 
L 108.873282 188.471265 
L 109.756714 189.757507 
L 110.111873 189.39308 
L 110.892846 188.708652 
L 112.292698 190.101278 
L 113.556945 189.085126 
L 117.471025 190.002611 
L 118.642665 189.450303 
L 119.627187 190.872517 
L 119.961618 188.975195 
L 120.854521 189.257923 
L 121.124993 188.986282 
L 121.385451 190.019761 
L 121.652084 189.73578 
L 122.641652 190.123116 
L 124.210634 189.128966 
L 125.07406 189.711951 
L 125.953284 190.006276 
L 126.21967 188.845682 
L 127.568717 189.498536 
L 128.617668 188.773614 
L 129.781634 189.584376 
L 130.162642 188.608566 
L 130.840871 189.28954 
L 132.730845 189.864799 
L 134.187457 188.805582 
L 135.747615 188.931555 
L 136.939484 189.039319 
L 137.263575 188.604575 
L 137.577794 189.392767 
L 138.703427 189.41105 
L 138.998037 188.132453 
L 139.86669 188.602769 
L 142.100745 189.03748 
L 143.096593 188.604995 
L 144.295936 189.09017 
L 150.79179 189.501899 
L 151.189602 188.860436 
L 151.555285 189.276811 
L 153.061268 189.813607 
L 154.102903 188.777393 
L 155.481124 189.727958 
L 156.938074 188.653135 
L 157.362099 188.313329 
L 157.369869 190.023873 
L 157.373532 160.863827 
L 157.373189 227.470548 
L 158.363192 188.253103 
L 158.891414 189.568429 
L 159.225417 189.399762 
L 159.732169 190.132209 
L 160.29249 188.119845 
L 160.475711 189.4548 
L 161.285809 189.253357 
L 162.512912 187.587402 
L 162.834893 188.792601 
L 163.202526 187.382965 
L 163.577579 187.773773 
L 166.109683 182.783411 
L 166.472296 182.546777 
L 174.281826 149.837607 
L 179.481365 121.087321 
L 181.342051 112.097378 
L 186.08102 87.924494 
L 192.543654 60.150834 
L 202.421047 32.952662 
L 202.774704 33.04066 
L 204.704359 29.623073 
L 206.421106 27.138074 
L 207.981143 24.9155 
L 208.458598 25.412189 
L 209.970333 23.776514 
L 211.248489 22.215129 
L 211.667973 23.775165 
L 212.046979 21.897129 
L 212.773534 22.82859 
L 213.120517 22.367034 
L 213.67004 22.709444 
L 214.684101 21.578575 
L 215.100792 21.987559 
L 217.810614 20.9299 
L 219.375555 21.39026 
L 224.824817 22.233293 
L 226.539175 23.37736 
L 228.31788 23.051265 
L 229.372157 24.801928 
L 229.874874 23.532955 
L 233.585178 25.662357 
L 233.954214 25.278554 
L 235.37406 26.455218 
L 248.323989 29.969247 
L 249.637629 31.040595 
L 251.842233 31.099557 
L 253.266307 31.480959 
L 253.618785 31.527944 
L 253.964314 32.83246 
L 254.705187 31.851581 
L 259.759651 32.737997 
L 261.380262 31.810867 
L 263.046552 33.260255 
L 263.819558 32.27463 
L 264.25903 32.582135 
L 265.629193 32.491 
L 266.884468 32.202422 
L 267.268853 33.178739 
L 268.024368 32.560379 
L 268.448971 32.257713 
L 268.861147 33.506778 
L 269.24746 32.713619 
L 280.705323 33.046082 
L 281.770846 32.814896 
L 282.535079 33.894982 
L 282.924026 32.793443 
L 285.115383 32.623507 
L 286.813801 32.701633 
L 287.158431 32.457054 
L 287.49988 33.845294 
L 288.295042 33.321746 
L 290.408353 32.405758 
L 291.048102 33.232893 
L 291.421252 32.926843 
L 293.005195 32.06671 
L 294.214576 33.388951 
L 294.572828 32.403295 
L 296.105349 32.371796 
L 298.915251 32.857827 
L 309.373194 32.149002 
L 309.731673 31.848881 
L 310.10405 33.043429 
L 310.479108 32.052903 
L 314.254673 31.710639 
L 314.662233 30.786344 
L 315.043804 31.742082 
L 317.285239 31.938275 
L 319.015319 32.608772 
L 319.383458 31.4369 
L 319.749211 31.984899 
L 320.139674 32.907154 
L 320.516312 31.99789 
L 324.361712 32.241097 
L 324.75969 32.871365 
L 325.165751 32.372144 
L 326.480211 32.213161 
L 327.732076 32.326642 
L 328.509749 31.936286 
L 328.875975 32.596609 
L 333.069502 32.331559 
L 333.48765 32.023688 
L 333.897371 32.806152 
L 338.539751 32.61195 
L 339.762511 32.583014 
L 341.370023 32.084525 
L 341.72877 33.129258 
L 342.12061 32.317885 
L 344.216644 32.19861 
L 344.61754 32.83176 
L 345.021605 31.59486 
L 345.803587 32.000048 
L 346.682093 32.599229 
L 347.098389 31.987038 
L 347.515414 31.345333 
L 347.548656 32.418915 
L 347.58594 31.749413 
L 347.598068 17.88527 
L 347.597496 41.173892 
L 348.364402 31.504508 
L 348.675066 32.258661 
L 349.446955 31.860811 
L 350.673755 33.012809 
L 351.770486 32.156455 
L 353.012683 33.37149 
L 353.393331 32.57255 
L 353.767053 33.106902 
L 358.314102 38.277444 
L 372.027277 72.577732 
L 375.393981 81.163106 
L 375.746088 80.854653 
L 377.204054 85.352763 
L 378.059381 87.279075 
L 381.704764 95.162867 
L 382.970158 97.036124 
L 390.457218 108.668652 
L 398.194098 113.899307 
L 398.551331 113.473579 
L 399.015131 114.287459 
L 400.344397 114.930218 
L 407.068312 116.413977 
L 413.317152 115.966752 
L 414.434951 116.284456 
L 416.001495 115.335987 
L 416.352029 115.950621 
L 417.137317 115.334129 
L 419.294634 115.724338 
L 420.597192 115.215857 
L 420.983717 115.973213 
L 421.797714 115.540932 
L 423.590157 113.552933 
L 423.982454 114.695684 
L 424.842038 114.630127 
L 426.230622 113.664388 
L 427.140782 114.024467 
L 428.408844 113.204861 
L 431.742229 112.78854 
L 433.583667 112.141699 
L 438.090926 112.300614 
L 438.455419 111.3397 
L 439.168525 112.088728 
L 440.535458 111.730853 
L 440.928396 112.705815 
L 441.331226 111.304953 
L 442.978074 111.119219 
L 454.473751 109.90746 
L 455.305428 110.482724 
L 457.88279 109.533359 
L 459.268233 109.928771 
L 487.995006 110.325528 
L 488.396339 109.619701 
L 488.800175 110.137413 
L 489.644496 110.735088 
L 490.096418 110.055875 
L 490.520695 110.612891 
L 491.75543 110.609216 
L 496.625568 110.98812 
L 497.022212 110.019253 
L 497.406477 110.265688 
L 498.639384 111.27425 
L 499.993939 110.51589 
L 501.713781 110.760939 
L 503.25208 111.260179 
L 504.501565 110.653235 
L 505.795157 110.779284 
L 508.542346 110.741532 
L 509.821035 111.306715 
L 510.633505 110.488062 
L 511.054281 110.790748 
L 511.440423 110.41809 
L 511.837671 111.203836 
L 514.256507 111.35047 
L 515.887642 110.339984 
L 516.777192 111.052875 
L 517.232453 110.485964 
L 521.240802 110.8126 
L 526.258555 110.391967 
L 526.662309 111.893002 
L 527.464684 111.45633 
L 528.726195 111.216098 
L 531.50707 110.353733 
L 532.234988 111.473597 
L 532.609316 110.134507 
L 532.969744 111.117281 
L 534.818581 110.738525 
L 536.440054 109.656413 
L 536.810532 110.776716 
L 537.65649 110.322304 
L 537.821946 110.440855 
L 537.821946 110.440855 
" clip-path="url(#p5f3aa51cca)" style="fill: none; stroke: #377eb8; stroke-width: 2; stroke-linecap: square"/>
   </g>
   <g id="line2d_29">
    <path d="M 62.260866 189.196342 
L 62.423026 189.102831 
L 63.230953 189.686016 
L 63.49922 188.391414 
L 64.132606 189.390328 
L 67.382516 188.775769 
L 68.183299 189.34747 
L 68.589788 188.830261 
L 71.546676 190.014835 
L 72.158022 188.960599 
L 72.520727 189.436659 
L 73.588394 189.766411 
L 75.155873 188.909467 
L 75.49364 188.406856 
L 76.156896 188.898704 
L 77.564811 189.921539 
L 78.225078 189.034641 
L 78.63459 189.368602 
L 78.987064 189.930969 
L 79.312901 188.817276 
L 79.614188 188.366752 
L 80.280849 189.026555 
L 89.673954 189.590048 
L 90.730046 189.400697 
L 92.305771 189.033024 
L 100.667435 189.409634 
L 102.279286 189.73843 
L 104.731659 188.919631 
L 105.081955 189.828601 
L 105.854364 189.326249 
L 107.771825 188.875077 
L 108.873282 189.999798 
L 109.177355 188.886913 
L 110.111873 189.188633 
L 111.257737 189.016711 
L 111.607655 188.68006 
L 111.948752 189.433101 
L 113.166003 189.024399 
L 114.670654 188.749316 
L 115.621339 189.820676 
L 117.099164 188.797441 
L 118.642665 188.646232 
L 118.969068 189.678352 
L 119.627187 188.642464 
L 119.961618 188.50474 
L 121.124993 189.699706 
L 121.652084 190.42946 
L 122.270007 189.609105 
L 123.446847 189.10711 
L 123.842346 188.684509 
L 124.210634 189.188599 
L 125.435283 189.475535 
L 125.707648 187.8254 
L 126.21967 189.367438 
L 127.108431 187.857917 
L 128.055762 189.747915 
L 128.294252 189.494024 
L 129.781634 189.058491 
L 136.939484 188.893894 
L 137.577794 188.463295 
L 138.162718 189.896836 
L 138.438795 188.735063 
L 139.312371 188.50365 
L 139.582855 189.815039 
L 140.137522 189.423423 
L 140.429461 188.788782 
L 140.728835 189.398222 
L 141.052415 189.893419 
L 141.348829 189.532348 
L 141.72876 188.934044 
L 142.100745 189.614991 
L 144.727129 189.633919 
L 146.380972 188.646704 
L 148.020275 188.812886 
L 151.189602 188.609476 
L 152.310367 189.419585 
L 154.498996 188.840195 
L 154.82636 189.796615 
L 155.147993 189.47859 
L 155.481124 188.496361 
L 155.798812 189.06705 
L 156.938074 189.521617 
L 157.362099 189.903141 
L 157.372973 174.457278 
L 157.373532 231.590668 
L 158.363192 187.553963 
L 158.726632 188.551861 
L 159.392717 187.825984 
L 159.732169 188.283966 
L 160.656808 186.49286 
L 161.285809 186.650539 
L 161.490131 186.094447 
L 162.834893 183.824162 
L 182.706466 173.552451 
L 183.926347 174.261416 
L 184.283681 173.248807 
L 184.950744 173.579496 
L 193.120673 172.305963 
L 197.069147 171.998327 
L 199.290062 171.847726 
L 200.753261 171.822876 
L 201.187369 171.458439 
L 201.591071 172.158627 
L 205.132252 172.627906 
L 205.551694 173.230909 
L 205.929702 172.305509 
L 217.810614 172.495562 
L 218.154874 173.550538 
L 218.495351 172.653827 
L 229.874874 173.375197 
L 230.765145 172.945596 
L 231.145243 172.442783 
L 231.510151 173.916635 
L 232.37126 173.401935 
L 232.802623 173.799132 
L 233.191989 173.123603 
L 234.465972 172.905323 
L 235.37406 173.876157 
L 236.182799 172.893197 
L 236.56955 173.299077 
L 238.119797 173.885829 
L 242.468794 173.365417 
L 244.919059 173.48723 
L 246.19789 173.834146 
L 247.447194 173.663477 
L 249.090932 173.527476 
L 250.134811 173.466841 
L 250.937544 173.334146 
L 251.842233 173.955505 
L 252.170476 172.701814 
L 252.879323 173.717143 
L 253.266307 174.213719 
L 253.618785 173.330652 
L 253.964314 172.931187 
L 255.122618 174.18249 
L 256.349235 173.301681 
L 256.76808 174.296945 
L 257.165302 173.28222 
L 259.409785 173.684094 
L 259.759651 172.915669 
L 260.532815 173.586599 
L 262.183294 173.514946 
L 264.25903 173.943816 
L 265.180397 173.37233 
L 266.489886 174.40488 
L 267.268853 173.328013 
L 267.64876 174.46373 
L 268.448971 174.072041 
L 269.674064 173.627393 
L 270.047356 174.098355 
L 270.418275 173.308238 
L 271.564032 173.444542 
L 272.898346 173.67326 
L 274.066958 173.346264 
L 276.331483 173.556432 
L 282.112566 173.769424 
L 282.535079 174.285054 
L 282.924026 173.864776 
L 284.667147 173.376116 
L 286.813801 173.414904 
L 287.158431 172.664348 
L 287.49988 173.6655 
L 288.745776 173.133065 
L 289.988923 174.051284 
L 291.421252 172.719124 
L 291.808338 173.644722 
L 293.403406 174.063609 
L 294.572828 172.753449 
L 294.945858 173.345152 
L 298.915251 173.457366 
L 300.39521 172.56135 
L 301.160805 173.858022 
L 301.549869 173.653072 
L 302.848372 172.732897 
L 303.211125 173.077177 
L 304.627161 173.471728 
L 306.59258 173.732759 
L 307.435694 174.614516 
L 307.774387 173.034434 
L 314.254673 173.945871 
L 314.662233 174.339379 
L 315.98928 173.295784 
L 318.256771 173.632972 
L 319.015319 173.304646 
L 320.139674 173.927962 
L 320.934601 173.222151 
L 321.373435 174.110705 
L 321.784144 173.308522 
L 323.118257 173.636254 
L 323.515588 174.195899 
L 323.873602 173.639887 
L 342.12061 173.732194 
L 343.320515 174.128293 
L 344.61754 173.296599 
L 347.098389 173.139021 
L 347.58594 172.473962 
L 347.593083 174.920392 
L 347.597796 142.786613 
L 347.598846 183.794935 
L 348.364402 174.097414 
L 354.197622 176.174635 
L 354.619296 177.391341 
L 355.032172 176.922257 
L 356.604513 177.212566 
L 359.143056 177.963208 
L 359.579011 178.770814 
L 360.254212 178.254491 
L 364.117169 179.691737 
L 364.457594 178.692894 
L 364.792959 180.444258 
L 365.137702 179.6597 
L 365.545177 179.025805 
L 365.913641 179.3472 
L 367.372485 180.238378 
L 370.722448 180.34851 
L 372.461387 180.577278 
L 374.28216 182.126799 
L 376.062123 180.221317 
L 376.373393 180.969658 
L 377.204054 181.821994 
L 377.612546 181.315494 
L 378.840328 181.818044 
L 397.833065 182.03508 
L 398.194098 182.680727 
L 398.551331 182.239986 
L 400.344397 181.556285 
L 401.280927 181.773883 
L 418.916259 181.057937 
L 420.168701 181.14133 
L 420.597192 180.817178 
L 420.983717 182.078027 
L 421.352827 181.557669 
L 422.710821 181.517116 
L 423.982454 181.080553 
L 425.202468 182.10655 
L 427.987316 180.806198 
L 429.768651 181.711264 
L 430.190091 181.959569 
L 430.591652 181.169879 
L 430.96662 180.559786 
L 431.308161 180.982113 
L 432.701239 181.25678 
L 477.465246 181.481403 
L 479.073674 181.834735 
L 480.293119 181.106605 
L 481.635196 181.136805 
L 482.053549 182.089535 
L 482.442895 181.27337 
L 482.811652 181.231741 
L 483.184413 182.25403 
L 483.550075 180.712833 
L 483.913914 181.883519 
L 485.130105 180.840172 
L 486.43727 181.232949 
L 486.873531 180.85034 
L 487.248084 181.651486 
L 488.800175 181.586583 
L 493.137481 180.940149 
L 493.578337 181.673841 
L 494.020389 180.940335 
L 494.403358 180.483362 
L 494.756512 180.897314 
L 496.625568 181.771804 
L 498.233694 181.601362 
L 500.898724 181.433527 
L 502.464671 180.61262 
L 504.059041 181.796638 
L 504.501565 180.933593 
L 504.956748 181.201088 
L 505.795157 181.693134 
L 506.219876 180.675484 
L 506.607433 181.170973 
L 506.937828 182.219054 
L 507.667616 181.668682 
L 510.225636 181.033469 
L 511.054281 181.730776 
L 511.440423 181.064483 
L 512.660518 181.097232 
L 516.295446 181.576283 
L 517.654663 181.110325 
L 517.979951 182.485757 
L 518.300548 181.040843 
L 519.460318 181.198488 
L 520.750385 181.20754 
L 527.91797 180.852875 
L 529.208743 181.284228 
L 533.399125 181.567578 
L 535.247867 180.773154 
L 536.810532 181.631793 
L 537.225303 180.830844 
L 537.821946 181.428655 
" clip-path="url(#p5f3aa51cca)" style="fill: none; stroke: #4daf4a; stroke-width: 2; stroke-linecap: square"/>
   </g>
   <g id="patch_3">
    <path d="M 38.482813 242.275937 
L 38.482813 7.2 
" style="fill: none; stroke: #7f7f7f; stroke-width: 1.8; stroke-linejoin: miter; stroke-linecap: square"/>
   </g>
   <g id="patch_4">
    <path d="M 38.482813 242.275937 
L 561.6 242.275937 
" style="fill: none; stroke: #7f7f7f; stroke-width: 1.8; stroke-linejoin: miter; stroke-linecap: square"/>
   </g>
   <g id="legend_1">
    <g id="line2d_30">
     <path d="M 483.814062 20.298437 
L 493.814062 20.298437 
L 503.814062 20.298437 
" style="fill: none; stroke: #e41a1c; stroke-width: 2; stroke-linecap: square"/>
    </g>
    <g id="text_15">
     <!-- setpoint -->
     <g style="fill: #7f7f7f" transform="translate(511.814062 23.798437) scale(0.1 -0.1)">
      <defs>
       <path id="DejaVuSans-70" d="M 1159 525 
L 1159 -1331 
L 581 -1331 
L 581 3500 
L 1159 3500 
L 1159 2969 
Q 1341 3281 1617 3432 
Q 1894 3584 2278 3584 
Q 2916 3584 3314 3078 
Q 3713 2572 3713 1747 
Q 3713 922 3314 415 
Q 2916 -91 2278 -91 
Q 1894 -91 1617 61 
Q 1341 213 1159 525 
z
M 3116 1747 
Q 3116 2381 2855 2742 
Q 2594 3103 2138 3103 
Q 1681 3103 1420 2742 
Q 1159 2381 1159 1747 
Q 1159 1113 1420 752 
Q 1681 391 2138 391 
Q 2594 391 2855 752 
Q 3116 1113 3116 1747 
z
" transform="scale(0.015625)"/>
       <path id="DejaVuSans-6f" d="M 1959 3097 
Q 1497 3097 1228 2736 
Q 959 2375 959 1747 
Q 959 1119 1226 758 
Q 1494 397 1959 397 
Q 2419 397 2687 759 
Q 2956 1122 2956 1747 
Q 2956 2369 2687 2733 
Q 2419 3097 1959 3097 
z
M 1959 3584 
Q 2709 3584 3137 3096 
Q 3566 2609 3566 1747 
Q 3566 888 3137 398 
Q 2709 -91 1959 -91 
Q 1206 -91 779 398 
Q 353 888 353 1747 
Q 353 2609 779 3096 
Q 1206 3584 1959 3584 
z
" transform="scale(0.015625)"/>
       <path id="DejaVuSans-6e" d="M 3513 2113 
L 3513 0 
L 2938 0 
L 2938 2094 
Q 2938 2591 2744 2837 
Q 2550 3084 2163 3084 
Q 1697 3084 1428 2787 
Q 1159 2491 1159 1978 
L 1159 0 
L 581 0 
L 581 3500 
L 1159 3500 
L 1159 2956 
Q 1366 3272 1645 3428 
Q 1925 3584 2291 3584 
Q 2894 3584 3203 3211 
Q 3513 2838 3513 2113 
z
" transform="scale(0.015625)"/>
      </defs>
      <use xlink:href="#DejaVuSans-73"/>
      <use xlink:href="#DejaVuSans-65" transform="translate(52.099609 0)"/>
      <use xlink:href="#DejaVuSans-74" transform="translate(113.623047 0)"/>
      <use xlink:href="#DejaVuSans-70" transform="translate(152.832031 0)"/>
      <use xlink:href="#DejaVuSans-6f" transform="translate(216.308594 0)"/>
      <use xlink:href="#DejaVuSans-69" transform="translate(277.490234 0)"/>
      <use xlink:href="#DejaVuSans-6e" transform="translate(305.273438 0)"/>
      <use xlink:href="#DejaVuSans-74" transform="translate(368.652344 0)"/>
     </g>
    </g>
    <g id="line2d_31">
     <path d="M 483.814062 34.976562 
L 493.814062 34.976562 
L 503.814062 34.976562 
" style="fill: none; stroke: #377eb8; stroke-width: 2; stroke-linecap: square"/>
    </g>
    <g id="text_16">
     <!-- plant 1 -->
     <g style="fill: #7f7f7f" transform="translate(511.814062 38.476562) scale(0.1 -0.1)">
      <defs>
       <path id="DejaVuSans-6c" d="M 603 4863 
L 1178 4863 
L 1178 0 
L 603 0 
L 603 4863 
z
" transform="scale(0.015625)"/>
       <path id="DejaVuSans-61" d="M 2194 1759 
Q 1497 1759 1228 1600 
Q 959 1441 959 1056 
Q 959 750 1161 570 
Q 1363 391 1709 391 
Q 2188 391 2477 730 
Q 2766 1069 2766 1631 
L 2766 1759 
L 2194 1759 
z
M 3341 1997 
L 3341 0 
L 2766 0 
L 2766 531 
Q 2569 213 2275 61 
Q 1981 -91 1556 -91 
Q 1019 -91 701 211 
Q 384 513 384 1019 
Q 384 1609 779 1909 
Q 1175 2209 1959 2209 
L 2766 2209 
L 2766 2266 
Q 2766 2663 2505 2880 
Q 2244 3097 1772 3097 
Q 1472 3097 1187 3025 
Q 903 2953 641 2809 
L 641 3341 
Q 956 3463 1253 3523 
Q 1550 3584 1831 3584 
Q 2591 3584 2966 3190 
Q 3341 2797 3341 1997 
z
" transform="scale(0.015625)"/>
      </defs>
      <use xlink:href="#DejaVuSans-70"/>
      <use xlink:href="#DejaVuSans-6c" transform="translate(63.476562 0)"/>
      <use xlink:href="#DejaVuSans-61" transform="translate(91.259766 0)"/>
      <use xlink:href="#DejaVuSans-6e" transform="translate(152.539062 0)"/>
      <use xlink:href="#DejaVuSans-74" transform="translate(215.917969 0)"/>
      <use xlink:href="#DejaVuSans-20" transform="translate(255.126953 0)"/>
      <use xlink:href="#DejaVuSans-31" transform="translate(286.914062 0)"/>
     </g>
    </g>
    <g id="line2d_32">
     <path d="M 483.814062 49.654687 
L 493.814062 49.654687 
L 503.814062 49.654687 
" style="fill: none; stroke: #4daf4a; stroke-width: 2; stroke-linecap: square"/>
    </g>
    <g id="text_17">
     <!-- plant 2 -->
     <g style="fill: #7f7f7f" transform="translate(511.814062 53.154687) scale(0.1 -0.1)">
      <use xlink:href="#DejaVuSans-70"/>
      <use xlink:href="#DejaVuSans-6c" transform="translate(63.476562 0)"/>
      <use xlink:href="#DejaVuSans-61" transform="translate(91.259766 0)"/>
      <use xlink:href="#DejaVuSans-6e" transform="translate(152.539062 0)"/>
      <use xlink:href="#DejaVuSans-74" transform="translate(215.917969 0)"/>
      <use xlink:href="#DejaVuSans-20" transform="translate(255.126953 0)"/>
      <use xlink:href="#DejaVuSans-32" transform="translate(286.914062 0)"/>
     </g>
    </g>
   </g>
  </g>
 </g>
 <defs>
  <clipPath id="p5f3aa51cca">
   <rect x="38.482813" y="7.2" width="523.117187" height="235.075938"/>
  </clipPath>
 </defs>
</svg>
