<?xml version="1.0" encoding="utf-8" standalone="no"?>
<!DOCTYPE svg PUBLIC "-//W3C//DTD SVG 1.1//EN"
  "http://www.w3.org/Graphics/SVG/1.1/DTD/svg11.dtd">
<svg xmlns:xlink="http://www.w3.org/1999/xlink" width="568.8pt" height="280.8pt" viewBox="0 0 568.8 280.8" xmlns="http://www.w3.org/2000/svg" version="1.1">
 <metadata>
  <rdf:RDF xmlns:dc="http://purl.org/dc/elements/1.1/" xmlns:cc="http://creativecommons.org/ns#" xmlns:rdf="http://www.w3.org/1999/02/22-rdf-syntax-ns#">
   <cc:Work>
    <dc:type rdf:resource="http://purl.org/dc/dcmitype/StillImage"/>
    <dc:date>2026-05-21T03:00:46.685991</dc:date>
    <dc:format>image/svg+xml</dc:format>
    <dc:creator>
     <cc:Agent>
      <dc:title>Matplotlib v3.10.9, https://matplotlib.org/</dc:title>
     </cc:Agent>
    </dc:creator>
   </cc:Work>
  </rdf:RDF>
 </metadata>
 <defs>
  <style type="text/css">*{stroke-linejoin: round; stroke-linecap: butt}</style>
 </defs>
 <g id="figure_1">
  <g id="patch_1">
   <path d="M 0 280.8 
L 568.8 280.8 
L 568.8 0 
L 0 0 
L 0 280.8 
z
" style="fill: none"/>
  </g>
  <g id="axes_1">
   <g id="patch_2">
    <path d="M 44.845313 242.275937 
L 561.6 242.275937 
L 561.6 7.2 
L 44.845313 7.2 
L 44.845313 242.275937 
z
" style="fill: none"/>
   </g>
   <g id="matplotlib.axis_1">
    <g id="xtick_1">
     <g id="line2d_1">
      <path d="M 68.334162 242.275937 
L 68.334162 7.2 
" clip-path="url(#pa13f0c8814)" style="fill: none; stroke-dasharray: 2.96,1.28; stroke-dashoffset: 0; stroke: #7f7f7f; stroke-opacity: 0.6; stroke-width: 0.8"/>
     </g>
     <g id="line2d_2">
      <defs>
       <path id="mef2ee2cdf4" d="M 0 0 
L 0 3.5 
" style="stroke: #7f7f7f; stroke-width: 1.8"/>
      </defs>
      <g>
       <use xlink:href="#mef2ee2cdf4" x="68.334162" y="242.275937" style="fill: #7f7f7f; stroke: #7f7f7f; stroke-width: 1.8"/>
      </g>
     </g>
     <g id="text_1">
      <!-- 0 -->
      <g style="fill: #7f7f7f" transform="translate(65.152912 256.874375) scale(0.1 -0.1)">
       <defs>
        <path id="DejaVuSans-30" d="M 2034 4250 
Q 1547 4250 1301 3770 
Q 1056 3291 1056 2328 
Q 1056 1369 1301 889 
Q 1547 409 2034 409 
Q 2525 409 2770 889 
Q 3016 1369 3016 2328 
Q 3016 3291 2770 3770 
Q 2525 4250 2034 4250 
z
M 2034 4750 
Q 2819 4750 3233 4129 
Q 3647 3509 3647 2328 
Q 3647 1150 3233 529 
Q 2819 -91 2034 -91 
Q 1250 -91 836 529 
Q 422 1150 422 2328 
Q 422 3509 836 4129 
Q 1250 4750 2034 4750 
z
" transform="scale(0.015625)"/>
       </defs>
       <use xlink:href="#DejaVuSans-30"/>
      </g>
     </g>
    </g>
    <g id="xtick_2">
     <g id="line2d_3">
      <path d="M 162.28956 242.275937 
L 162.28956 7.2 
" clip-path="url(#pa13f0c8814)" style="fill: none; stroke-dasharray: 2.96,1.28; stroke-dashoffset: 0; stroke: #7f7f7f; stroke-opacity: 0.6; stroke-width: 0.8"/>
     </g>
     <g id="line2d_4">
      <g>
       <use xlink:href="#mef2ee2cdf4" x="162.28956" y="242.275937" style="fill: #7f7f7f; stroke: #7f7f7f; stroke-width: 1.8"/>
      </g>
     </g>
     <g id="text_2">
      <!-- 20 -->
      <g style="fill: #7f7f7f" transform="translate(155.92706 256.874375) scale(0.1 -0.1)">
       <defs>
        <path id="DejaVuSans-32" d="M 1228 531 
L 3431 531 
L 3431 0 
L 469 0 
L 469 531 
Q 828 903 1448 1529 
Q 2069 2156 2228 2338 
Q 2531 2678 2651 2914 
Q 2772 3150 2772 3378 
Q 2772 3750 2511 3984 
Q 2250 4219 1831 4219 
Q 1534 4219 1204 4116 
Q 875 4013 500 3803 
L 500 4441 
Q 881 4594 1212 4672 
Q 1544 4750 1819 4750 
Q 2544 4750 2975 4387 
Q 3406 4025 3406 3419 
Q 3406 3131 3298 2873 
Q 3191 2616 2906 2266 
Q 2828 2175 2409 1742 
Q 1991 1309 1228 531 
z
" transform="scale(0.015625)"/>
       </defs>
       <use xlink:href="#DejaVuSans-32"/>
       <use xlink:href="#DejaVuSans-30" transform="translate(63.623047 0)"/>
      </g>
     </g>
    </g>
    <g id="xtick_3">
     <g id="line2d_5">
      <path d="M 256.244957 242.275937 
L 256.244957 7.2 
" clip-path="url(#pa13f0c8814)" style="fill: none; stroke-dasharray: 2.96,1.28; stroke-dashoffset: 0; stroke: #7f7f7f; stroke-opacity: 0.6; stroke-width: 0.8"/>
     </g>
     <g id="line2d_6">
      <g>
       <use xlink:href="#mef2ee2cdf4" x="256.244957" y="242.275937" style="fill: #7f7f7f; stroke: #7f7f7f; stroke-width: 1.8"/>
      </g>
     </g>
     <g id="text_3">
      <!-- 40 -->
      <g style="fill: #7f7f7f" transform="translate(249.882457 256.874375) scale(0.1 -0.1)">
       <defs>
        <path id="DejaVuSans-34" d="M 2419 4116 
L 825 1625 
L 2419 1625 
L 2419 4116 
z
M 2253 4666 
L 3047 4666 
L 3047 1625 
L 3713 1625 
L 3713 1100 
L 3047 1100 
L 3047 0 
L 2419 0 
L 2419 1100 
L 313 1100 
L 313 1709 
L 2253 4666 
z
" transform="scale(0.015625)"/>
       </defs>
       <use xlink:href="#DejaVuSans-34"/>
       <use xlink:href="#DejaVuSans-30" transform="translate(63.623047 0)"/>
      </g>
     </g>
    </g>
    <g id="xtick_4">
     <g id="line2d_7">
      <path d="M 350.200355 242.275937 
L 350.200355 7.2 
" clip-path="url(#pa13f0c8814)" style="fill: none; stroke-dasharray: 2.96,1.28; stroke-dashoffset: 0; stroke: #7f7f7f; stroke-opacity: 0.6; stroke-width: 0.8"/>
     </g>
     <g id="line2d_8">
      <g>
       <use xlink:href="#mef2ee2cdf4" x="350.200355" y="242.275937" style="fill: #7f7f7f; stroke: #7f7f7f; stroke-width: 1.8"/>
      </g>
     </g>
     <g id="text_4">
      <!-- 60 -->
      <g style="fill: #7f7f7f" transform="translate(343.837855 256.874375) scale(0.1 -0.1)">
       <defs>
        <path id="DejaVuSans-36" d="M 2113 2584 
Q 1688 2584 1439 2293 
Q 1191 2003 1191 1497 
Q 1191 994 1439 701 
Q 1688 409 2113 409 
Q 2538 409 2786 701 
Q 3034 994 3034 1497 
Q 3034 2003 2786 2293 
Q 2538 2584 2113 2584 
z
M 3366 4563 
L 3366 3988 
Q 3128 4100 2886 4159 
Q 2644 4219 2406 4219 
Q 1781 4219 1451 3797 
Q 1122 3375 1075 2522 
Q 1259 2794 1537 2939 
Q 1816 3084 2150 3084 
Q 2853 3084 3261 2657 
Q 3669 2231 3669 1497 
Q 3669 778 3244 343 
Q 2819 -91 2113 -91 
Q 1303 -91 875 529 
Q 447 1150 447 2328 
Q 447 3434 972 4092 
Q 1497 4750 2381 4750 
Q 2619 4750 2861 4703 
Q 3103 4656 3366 4563 
z
" transform="scale(0.015625)"/>
       </defs>
       <use xlink:href="#DejaVuSans-36"/>
       <use xlink:href="#DejaVuSans-30" transform="translate(63.623047 0)"/>
      </g>
     </g>
    </g>
    <g id="xtick_5">
     <g id="line2d_9">
      <path d="M 444.155753 242.275937 
L 444.155753 7.2 
" clip-path="url(#pa13f0c8814)" style="fill: none; stroke-dasharray: 2.96,1.28; stroke-dashoffset: 0; stroke: #7f7f7f; stroke-opacity: 0.6; stroke-width: 0.8"/>
     </g>
     <g id="line2d_10">
      <g>
       <use xlink:href="#mef2ee2cdf4" x="444.155753" y="242.275937" style="fill: #7f7f7f; stroke: #7f7f7f; stroke-width: 1.8"/>
      </g>
     </g>
     <g id="text_5">
      <!-- 80 -->
      <g style="fill: #7f7f7f" transform="translate(437.793253 256.874375) scale(0.1 -0.1)">
       <defs>
        <path id="DejaVuSans-38" d="M 2034 2216 
Q 1584 2216 1326 1975 
Q 1069 1734 1069 1313 
Q 1069 891 1326 650 
Q 1584 409 2034 409 
Q 2484 409 2743 651 
Q 3003 894 3003 1313 
Q 3003 1734 2745 1975 
Q 2488 2216 2034 2216 
z
M 1403 2484 
Q 997 2584 770 2862 
Q 544 3141 544 3541 
Q 544 4100 942 4425 
Q 1341 4750 2034 4750 
Q 2731 4750 3128 4425 
Q 3525 4100 3525 3541 
Q 3525 3141 3298 2862 
Q 3072 2584 2669 2484 
Q 3125 2378 3379 2068 
Q 3634 1759 3634 1313 
Q 3634 634 3220 271 
Q 2806 -91 2034 -91 
Q 1263 -91 848 271 
Q 434 634 434 1313 
Q 434 1759 690 2068 
Q 947 2378 1403 2484 
z
M 1172 3481 
Q 1172 3119 1398 2916 
Q 1625 2713 2034 2713 
Q 2441 2713 2670 2916 
Q 2900 3119 2900 3481 
Q 2900 3844 2670 4047 
Q 2441 4250 2034 4250 
Q 1625 4250 1398 4047 
Q 1172 3844 1172 3481 
z
" transform="scale(0.015625)"/>
       </defs>
       <use xlink:href="#DejaVuSans-38"/>
       <use xlink:href="#DejaVuSans-30" transform="translate(63.623047 0)"/>
      </g>
     </g>
    </g>
    <g id="xtick_6">
     <g id="line2d_11">
      <path d="M 538.111151 242.275937 
L 538.111151 7.2 
" clip-path="url(#pa13f0c8814)" style="fill: none; stroke-dasharray: 2.96,1.28; stroke-dashoffset: 0; stroke: #7f7f7f; stroke-opacity: 0.6; stroke-width: 0.8"/>
     </g>
     <g id="line2d_12">
      <g>
       <use xlink:href="#mef2ee2cdf4" x="538.111151" y="242.275937" style="fill: #7f7f7f; stroke: #7f7f7f; stroke-width: 1.8"/>
      </g>
     </g>
     <g id="text_6">
      <!-- 100 -->
      <g style="fill: #7f7f7f" transform="translate(528.567401 256.874375) scale(0.1 -0.1)">
       <defs>
        <path id="DejaVuSans-31" d="M 794 531 
L 1825 531 
L 1825 4091 
L 703 3866 
L 703 4441 
L 1819 4666 
L 2450 4666 
L 2450 531 
L 3481 531 
L 3481 0 
L 794 0 
L 794 531 
z
" transform="scale(0.015625)"/>
       </defs>
       <use xlink:href="#DejaVuSans-31"/>
       <use xlink:href="#DejaVuSans-30" transform="translate(63.623047 0)"/>
       <use xlink:href="#DejaVuSans-30" transform="translate(127.246094 0)"/>
      </g>
     </g>
    </g>
    <g id="text_7">
     <!-- time [s] -->
     <g style="fill: #7f7f7f" transform="translate(281.892109 271.312344) scale(0.11 -0.11)">
      <defs>
       <path id="DejaVuSans-74" d="M 1172 4494 
L 1172 3500 
L 2356 3500 
L 2356 3053 
L 1172 3053 
L 1172 1153 
Q 1172 725 1289 603 
Q 1406 481 1766 481 
L 2356 481 
L 2356 0 
L 1766 0 
Q 1100 0 847 248 
Q 594 497 594 1153 
L 594 3053 
L 172 3053 
L 172 3500 
L 594 3500 
L 594 4494 
L 1172 4494 
z
" transform="scale(0.015625)"/>
       <path id="DejaVuSans-69" d="M 603 3500 
L 1178 3500 
L 1178 0 
L 603 0 
L 603 3500 
z
M 603 4863 
L 1178 4863 
L 1178 4134 
L 603 4134 
L 603 4863 
z
" transform="scale(0.015625)"/>
       <path id="DejaVuSans-6d" d="M 3328 2828 
Q 3544 3216 3844 3400 
Q 4144 3584 4550 3584 
Q 5097 3584 5394 3201 
Q 5691 2819 5691 2113 
L 5691 0 
L 5113 0 
L 5113 2094 
Q 5113 2597 4934 2840 
Q 4756 3084 4391 3084 
Q 3944 3084 3684 2787 
Q 3425 2491 3425 1978 
L 3425 0 
L 2847 0 
L 2847 2094 
Q 2847 2600 2669 2842 
Q 2491 3084 2119 3084 
Q 1678 3084 1418 2786 
Q 1159 2488 1159 1978 
L 1159 0 
L 581 0 
L 581 3500 
L 1159 3500 
L 1159 2956 
Q 1356 3278 1631 3431 
Q 1906 3584 2284 3584 
Q 2666 3584 2933 3390 
Q 3200 3197 3328 2828 
z
" transform="scale(0.015625)"/>
       <path id="DejaVuSans-65" d="M 3597 1894 
L 3597 1613 
L 953 1613 
Q 991 1019 1311 708 
Q 1631 397 2203 397 
Q 2534 397 2845 478 
Q 3156 559 3463 722 
L 3463 178 
Q 3153 47 2828 -22 
Q 2503 -91 2169 -91 
Q 1331 -91 842 396 
Q 353 884 353 1716 
Q 353 2575 817 3079 
Q 1281 3584 2069 3584 
Q 2775 3584 3186 3129 
Q 3597 2675 3597 1894 
z
M 3022 2063 
Q 3016 2534 2758 2815 
Q 2500 3097 2075 3097 
Q 1594 3097 1305 2825 
Q 1016 2553 972 2059 
L 3022 2063 
z
" transform="scale(0.015625)"/>
       <path id="DejaVuSans-20" transform="scale(0.015625)"/>
       <path id="DejaVuSans-5b" d="M 550 4863 
L 1875 4863 
L 1875 4416 
L 1125 4416 
L 1125 -397 
L 1875 -397 
L 1875 -844 
L 550 -844 
L 550 4863 
z
" transform="scale(0.015625)"/>
       <path id="DejaVuSans-73" d="M 2834 3397 
L 2834 2853 
Q 2591 2978 2328 3040 
Q 2066 3103 1784 3103 
Q 1356 3103 1142 2972 
Q 928 2841 928 2578 
Q 928 2378 1081 2264 
Q 1234 2150 1697 2047 
L 1894 2003 
Q 2506 1872 2764 1633 
Q 3022 1394 3022 966 
Q 3022 478 2636 193 
Q 2250 -91 1575 -91 
Q 1294 -91 989 -36 
Q 684 19 347 128 
L 347 722 
Q 666 556 975 473 
Q 1284 391 1588 391 
Q 1994 391 2212 530 
Q 2431 669 2431 922 
Q 2431 1156 2273 1281 
Q 2116 1406 1581 1522 
L 1381 1569 
Q 847 1681 609 1914 
Q 372 2147 372 2553 
Q 372 3047 722 3315 
Q 1072 3584 1716 3584 
Q 2034 3584 2315 3537 
Q 2597 3491 2834 3397 
z
" transform="scale(0.015625)"/>
       <path id="DejaVuSans-5d" d="M 1947 4863 
L 1947 -844 
L 622 -844 
L 622 -397 
L 1369 -397 
L 1369 4416 
L 622 4416 
L 622 4863 
L 1947 4863 
z
" transform="scale(0.015625)"/>
      </defs>
      <use xlink:href="#DejaVuSans-74"/>
      <use xlink:href="#DejaVuSans-69" transform="translate(39.208984 0)"/>
      <use xlink:href="#DejaVuSans-6d" transform="translate(66.992188 0)"/>
      <use xlink:href="#DejaVuSans-65" transform="translate(164.404297 0)"/>
      <use xlink:href="#DejaVuSans-20" transform="translate(225.927734 0)"/>
      <use xlink:href="#DejaVuSans-5b" transform="translate(257.714844 0)"/>
      <use xlink:href="#DejaVuSans-73" transform="translate(296.728516 0)"/>
      <use xlink:href="#DejaVuSans-5d" transform="translate(348.828125 0)"/>
     </g>
    </g>
   </g>
   <g id="matplotlib.axis_2">
    <g id="ytick_1">
     <g id="line2d_13">
      <path d="M 44.845313 231.942662 
L 561.6 231.942662 
" clip-path="url(#pa13f0c8814)" style="fill: none; stroke-dasharray: 2.96,1.28; stroke-dashoffset: 0; stroke: #7f7f7f; stroke-opacity: 0.6; stroke-width: 0.8"/>
     </g>
     <g id="line2d_14">
      <defs>
       <path id="m82092b6bf9" d="M 0 0 
L -3.5 0 
" style="stroke: #7f7f7f; stroke-width: 1.8"/>
      </defs>
      <g>
       <use xlink:href="#m82092b6bf9" x="44.845313" y="231.942662" style="fill: #7f7f7f; stroke: #7f7f7f; stroke-width: 1.8"/>
      </g>
     </g>
     <g id="text_8">
      <!-- −0.20 -->
      <g style="fill: #7f7f7f" transform="translate(7.2 235.74188) scale(0.1 -0.1)">
       <defs>
        <path id="DejaVuSans-2212" d="M 678 2272 
L 4684 2272 
L 4684 1741 
L 678 1741 
L 678 2272 
z
" transform="scale(0.015625)"/>
        <path id="DejaVuSans-2e" d="M 684 794 
L 1344 794 
L 1344 0 
L 684 0 
L 684 794 
z
" transform="scale(0.015625)"/>
       </defs>
       <use xlink:href="#DejaVuSans-2212"/>
       <use xlink:href="#DejaVuSans-30" transform="translate(83.789062 0)"/>
       <use xlink:href="#DejaVuSans-2e" transform="translate(147.412109 0)"/>
       <use xlink:href="#DejaVuSans-32" transform="translate(179.199219 0)"/>
       <use xlink:href="#DejaVuSans-30" transform="translate(242.822266 0)"/>
      </g>
     </g>
    </g>
    <g id="ytick_2">
     <g id="line2d_15">
      <path d="M 44.845313 198.261213 
L 561.6 198.261213 
" clip-path="url(#pa13f0c8814)" style="fill: none; stroke-dasharray: 2.96,1.28; stroke-dashoffset: 0; stroke: #7f7f7f; stroke-opacity: 0.6; stroke-width: 0.8"/>
     </g>
     <g id="line2d_16">
      <g>
       <use xlink:href="#m82092b6bf9" x="44.845313" y="198.261213" style="fill: #7f7f7f; stroke: #7f7f7f; stroke-width: 1.8"/>
      </g>
     </g>
     <g id="text_9">
      <!-- −0.15 -->
      <g style="fill: #7f7f7f" transform="translate(7.2 202.060432) scale(0.1 -0.1)">
       <defs>
        <path id="DejaVuSans-35" d="M 691 4666 
L 3169 4666 
L 3169 4134 
L 1269 4134 
L 1269 2991 
Q 1406 3038 1543 3061 
Q 1681 3084 1819 3084 
Q 2600 3084 3056 2656 
Q 3513 2228 3513 1497 
Q 3513 744 3044 326 
Q 2575 -91 1722 -91 
Q 1428 -91 1123 -41 
Q 819 9 494 109 
L 494 744 
Q 775 591 1075 516 
Q 1375 441 1709 441 
Q 2250 441 2565 725 
Q 2881 1009 2881 1497 
Q 2881 1984 2565 2268 
Q 2250 2553 1709 2553 
Q 1456 2553 1204 2497 
Q 953 2441 691 2322 
L 691 4666 
z
" transform="scale(0.015625)"/>
       </defs>
       <use xlink:href="#DejaVuSans-2212"/>
       <use xlink:href="#DejaVuSans-30" transform="translate(83.789062 0)"/>
       <use xlink:href="#DejaVuSans-2e" transform="translate(147.412109 0)"/>
       <use xlink:href="#DejaVuSans-31" transform="translate(179.199219 0)"/>
       <use xlink:href="#DejaVuSans-35" transform="translate(242.822266 0)"/>
      </g>
     </g>
    </g>
    <g id="ytick_3">
     <g id="line2d_17">
      <path d="M 44.845313 164.579764 
L 561.6 164.579764 
" clip-path="url(#pa13f0c8814)" style="fill: none; stroke-dasharray: 2.96,1.28; stroke-dashoffset: 0; stroke: #7f7f7f; stroke-opacity: 0.6; stroke-width: 0.8"/>
     </g>
     <g id="line2d_18">
      <g>
       <use xlink:href="#m82092b6bf9" x="44.845313" y="164.579764" style="fill: #7f7f7f; stroke: #7f7f7f; stroke-width: 1.8"/>
      </g>
     </g>
     <g id="text_10">
      <!-- −0.10 -->
      <g style="fill: #7f7f7f" transform="translate(7.2 168.378983) scale(0.1 -0.1)">
       <use xlink:href="#DejaVuSans-2212"/>
       <use xlink:href="#DejaVuSans-30" transform="translate(83.789062 0)"/>
       <use xlink:href="#DejaVuSans-2e" transform="translate(147.412109 0)"/>
       <use xlink:href="#DejaVuSans-31" transform="translate(179.199219 0)"/>
       <use xlink:href="#DejaVuSans-30" transform="translate(242.822266 0)"/>
      </g>
     </g>
    </g>
    <g id="ytick_4">
     <g id="line2d_19">
      <path d="M 44.845313 130.898315 
L 561.6 130.898315 
" clip-path="url(#pa13f0c8814)" style="fill: none; stroke-dasharray: 2.96,1.28; stroke-dashoffset: 0; stroke: #7f7f7f; stroke-opacity: 0.6; stroke-width: 0.8"/>
     </g>
     <g id="line2d_20">
      <g>
       <use xlink:href="#m82092b6bf9" x="44.845313" y="130.898315" style="fill: #7f7f7f; stroke: #7f7f7f; stroke-width: 1.8"/>
      </g>
     </g>
     <g id="text_11">
      <!-- −0.05 -->
      <g style="fill: #7f7f7f" transform="translate(7.2 134.697534) scale(0.1 -0.1)">
       <use xlink:href="#DejaVuSans-2212"/>
       <use xlink:href="#DejaVuSans-30" transform="translate(83.789062 0)"/>
       <use xlink:href="#DejaVuSans-2e" transform="translate(147.412109 0)"/>
       <use xlink:href="#DejaVuSans-30" transform="translate(179.199219 0)"/>
       <use xlink:href="#DejaVuSans-35" transform="translate(242.822266 0)"/>
      </g>
     </g>
    </g>
    <g id="ytick_5">
     <g id="line2d_21">
      <path d="M 44.845313 97.216866 
L 561.6 97.216866 
" clip-path="url(#pa13f0c8814)" style="fill: none; stroke-dasharray: 2.96,1.28; stroke-dashoffset: 0; stroke: #7f7f7f; stroke-opacity: 0.6; stroke-width: 0.8"/>
     </g>
     <g id="line2d_22">
      <g>
       <use xlink:href="#m82092b6bf9" x="44.845313" y="97.216866" style="fill: #7f7f7f; stroke: #7f7f7f; stroke-width: 1.8"/>
      </g>
     </g>
     <g id="text_12">
      <!-- 0.00 -->
      <g style="fill: #7f7f7f" transform="translate(15.579688 101.016085) scale(0.1 -0.1)">
       <use xlink:href="#DejaVuSans-30"/>
       <use xlink:href="#DejaVuSans-2e" transform="translate(63.623047 0)"/>
       <use xlink:href="#DejaVuSans-30" transform="translate(95.410156 0)"/>
       <use xlink:href="#DejaVuSans-30" transform="translate(159.033203 0)"/>
      </g>
     </g>
    </g>
    <g id="ytick_6">
     <g id="line2d_23">
      <path d="M 44.845313 63.535417 
L 561.6 63.535417 
" clip-path="url(#pa13f0c8814)" style="fill: none; stroke-dasharray: 2.96,1.28; stroke-dashoffset: 0; stroke: #7f7f7f; stroke-opacity: 0.6; stroke-width: 0.8"/>
     </g>
     <g id="line2d_24">
      <g>
       <use xlink:href="#m82092b6bf9" x="44.845313" y="63.535417" style="fill: #7f7f7f; stroke: #7f7f7f; stroke-width: 1.8"/>
      </g>
     </g>
     <g id="text_13">
      <!-- 0.05 -->
      <g style="fill: #7f7f7f" transform="translate(15.579688 67.334636) scale(0.1 -0.1)">
       <use xlink:href="#DejaVuSans-30"/>
       <use xlink:href="#DejaVuSans-2e" transform="translate(63.623047 0)"/>
       <use xlink:href="#DejaVuSans-30" transform="translate(95.410156 0)"/>
       <use xlink:href="#DejaVuSans-35" transform="translate(159.033203 0)"/>
      </g>
     </g>
    </g>
    <g id="ytick_7">
     <g id="line2d_25">
      <path d="M 44.845313 29.853969 
L 561.6 29.853969 
" clip-path="url(#pa13f0c8814)" style="fill: none; stroke-dasharray: 2.96,1.28; stroke-dashoffset: 0; stroke: #7f7f7f; stroke-opacity: 0.6; stroke-width: 0.8"/>
     </g>
     <g id="line2d_26">
      <g>
       <use xlink:href="#m82092b6bf9" x="44.845313" y="29.853969" style="fill: #7f7f7f; stroke: #7f7f7f; stroke-width: 1.8"/>
      </g>
     </g>
     <g id="text_14">
      <!-- 0.10 -->
      <g style="fill: #7f7f7f" transform="translate(15.579688 33.653187) scale(0.1 -0.1)">
       <use xlink:href="#DejaVuSans-30"/>
       <use xlink:href="#DejaVuSans-2e" transform="translate(63.623047 0)"/>
       <use xlink:href="#DejaVuSans-31" transform="translate(95.410156 0)"/>
       <use xlink:href="#DejaVuSans-30" transform="translate(159.033203 0)"/>
      </g>
     </g>
    </g>
   </g>
   <g id="line2d_27">
    <path d="M 68.334162 97.216866 
L 68.631273 96.39219 
L 68.483426 98.540135 
L 69.12143 96.622199 
L 69.82587 94.903723 
L 70.7703 100.211909 
L 71.030056 94.519655 
L 71.71254 96.969692 
L 72.126564 98.123292 
L 72.914854 94.598735 
L 73.207044 99.906545 
L 74.134033 99.733036 
L 74.433412 94.801675 
L 74.707745 99.957761 
L 75.255089 96.183082 
L 75.601139 95.474125 
L 75.952206 96.553806 
L 76.669485 99.615188 
L 77.423685 97.942011 
L 77.818579 98.744989 
L 78.530333 94.37037 
L 78.842663 97.143741 
L 79.644606 97.486817 
L 80.415907 99.992179 
L 81.067898 95.277957 
L 81.345829 100.465736 
L 81.62429 97.227404 
L 81.950829 97.955387 
L 82.341345 95.465749 
L 82.696313 98.15073 
L 83.055856 99.090643 
L 83.40562 97.437592 
L 83.744551 97.470709 
L 84.413971 99.657154 
L 84.73643 97.591925 
L 85.111835 96.95834 
L 85.489924 97.59035 
L 85.896286 98.41074 
L 86.594777 94.042937 
L 86.904702 95.562725 
L 87.672491 98.666068 
L 89.190767 94.288358 
L 89.915405 98.861802 
L 90.281059 96.898646 
L 90.570749 92.904777 
L 90.841365 98.584078 
L 91.345247 95.202129 
L 91.659101 95.490562 
L 92.259808 95.277759 
L 92.85214 100.017883 
L 93.46493 99.863707 
L 94.574533 97.265637 
L 95.332373 96.554421 
L 95.664181 99.801537 
L 95.94648 94.467762 
L 96.18185 102.252487 
L 96.719311 97.758344 
L 97.638748 96.919263 
L 98.116426 97.667384 
L 98.500127 94.620041 
L 98.8484 97.276995 
L 99.25283 97.424367 
L 99.962038 94.88979 
L 100.297347 96.913538 
L 101.086685 99.368425 
L 101.441098 99.24798 
L 102.965738 96.229787 
L 103.396173 96.141925 
L 103.839108 97.51481 
L 104.240623 94.961141 
L 104.610267 98.135255 
L 104.971211 96.241275 
L 106.295771 101.293166 
L 105.669572 94.807254 
L 106.572831 99.515691 
L 106.828058 92.478728 
L 107.701761 95.366173 
L 109.182755 99.511043 
L 109.499378 95.315773 
L 110.230424 98.768465 
L 110.98549 96.888625 
L 111.372544 98.943903 
L 111.756393 96.534827 
L 112.14786 97.150925 
L 112.584538 95.949546 
L 112.992126 98.327593 
L 113.381491 96.984825 
L 113.846239 97.373305 
L 114.320767 96.786791 
L 114.669664 100.081666 
L 114.995075 97.996513 
L 115.925234 98.112278 
L 116.379009 96.231313 
L 116.80759 98.237218 
L 117.225285 98.590317 
L 117.64437 97.285986 
L 117.997216 100.061928 
L 118.331922 95.635839 
L 118.643351 94.508573 
L 118.942414 96.581594 
L 120.023724 101.420813 
L 120.262865 92.933807 
L 121.107053 96.861864 
L 121.481622 98.389586 
L 121.858631 96.267822 
L 122.198619 94.522858 
L 123.146669 99.576876 
L 123.426475 94.932661 
L 124.008109 96.591847 
L 125.234645 97.81933 
L 126.470372 95.253558 
L 126.847787 96.528759 
L 127.207755 99.359888 
L 127.555848 96.427122 
L 127.915369 97.936415 
L 128.305488 98.973609 
L 128.675528 97.693905 
L 129.048254 95.047612 
L 129.401443 95.66441 
L 130.172566 98.260317 
L 130.57086 96.168783 
L 130.869585 101.872848 
L 131.139605 95.887421 
L 131.401309 97.46372 
L 131.744924 95.247562 
L 132.070594 97.136833 
L 132.495535 97.457995 
L 132.873254 99.121191 
L 133.244845 96.853716 
L 133.65092 98.716752 
L 134.032483 96.115081 
L 134.402178 98.398168 
L 134.768246 98.697101 
L 135.147082 96.623524 
L 135.927068 96.930889 
L 136.361203 98.134387 
L 136.659617 93.485316 
L 137.26819 95.996612 
L 137.666227 96.728689 
L 138.018612 93.886313 
L 138.339508 97.04173 
L 138.71404 96.621674 
L 139.725637 100.924555 
L 139.98272 94.119992 
L 140.443066 102.236586 
L 140.669356 96.911337 
L 140.91408 97.841837 
L 141.516795 99.928553 
L 142.125893 94.306844 
L 143.170491 98.709702 
L 143.970398 98.114204 
L 144.38237 96.598054 
L 144.818148 98.189705 
L 145.244452 98.857665 
L 145.644755 98.115249 
L 146.784775 95.562454 
L 147.456383 100.405073 
L 147.757287 96.678834 
L 148.074808 97.170076 
L 148.442081 95.119795 
L 148.75193 99.647498 
L 149.472604 98.198766 
L 150.49672 93.241446 
L 150.7796 93.604389 
L 151.05727 98.44378 
L 151.73965 95.268752 
L 152.444863 99.578053 
L 152.777058 95.856538 
L 153.493029 99.150012 
L 154.258462 98.562827 
L 154.558467 92.852905 
L 155.099444 96.118387 
L 155.802243 95.623049 
L 156.607367 96.688515 
L 157.013751 95.182768 
L 158.010238 100.66515 
L 158.297454 96.684166 
L 158.97583 97.340594 
L 159.439393 97.551727 
L 159.847046 99.107881 
L 160.17758 94.963165 
L 160.831154 99.110702 
L 161.162786 97.020288 
L 161.551811 97.655286 
L 162.141742 96.856466 
L 162.189639 100.863084 
L 162.289416 42.07679 
L 162.289213 133.31231 
L 162.29021 116.781631 
L 162.29158 216.375834 
L 162.314525 72.281475 
L 163.175969 89.961929 
L 164.671476 82.849132 
L 165.932293 93.019081 
L 166.215429 94.134973 
L 167.024947 88.728593 
L 167.279268 93.132706 
L 167.559745 89.099513 
L 168.09916 91.867795 
L 168.705744 93.524921 
L 169.670478 90.250476 
L 171.111386 95.146339 
L 172.823946 90.519067 
L 173.160286 94.306807 
L 173.581299 93.336893 
L 174.37136 93.625892 
L 174.739204 90.92914 
L 175.895894 93.990252 
L 176.327765 94.803545 
L 177.896216 92.466289 
L 178.696556 93.833802 
L 179.079395 91.525117 
L 179.434083 96.610789 
L 179.938759 94.881244 
L 180.365178 94.003093 
L 180.760908 95.540081 
L 181.239228 94.986339 
L 181.649068 93.65568 
L 182.028229 93.902426 
L 182.865617 95.391779 
L 183.220206 92.573821 
L 183.570491 94.579006 
L 185.382028 97.261174 
L 185.805205 93.536523 
L 186.197275 96.395236 
L 186.693568 96.380546 
L 187.788663 92.897597 
L 188.166704 98.156452 
L 188.583063 95.93842 
L 189.745253 96.32013 
L 190.097148 93.541906 
L 190.445231 97.220116 
L 192.433466 95.229019 
L 192.764736 99.873079 
L 193.09265 93.975323 
L 193.443322 96.623339 
L 193.81396 98.636444 
L 194.183102 95.258643 
L 194.597539 94.767785 
L 194.989562 96.058935 
L 195.336861 92.854783 
L 195.680449 95.959461 
L 196.04186 98.353169 
L 196.404793 97.203504 
L 197.314627 94.97577 
L 197.701763 98.851394 
L 198.543362 98.722006 
L 199.450771 95.930445 
L 200.388439 97.782716 
L 201.614535 97.479393 
L 202.090932 98.271122 
L 202.523344 95.353628 
L 203.384768 95.89884 
L 204.940587 98.730996 
L 205.328127 98.572666 
L 207.129923 97.698389 
L 207.57349 99.984218 
L 208.357918 99.424039 
L 209.214838 95.249034 
L 209.60829 97.298546 
L 210.066356 97.805167 
L 211.010521 96.470514 
L 212.923329 98.180101 
L 213.818573 97.793084 
L 214.18915 95.598749 
L 214.557815 99.228713 
L 214.964782 96.910772 
L 215.37231 98.651295 
L 215.776541 96.671186 
L 216.18145 95.112183 
L 216.550095 96.451522 
L 217.489297 98.514259 
L 217.923098 95.208228 
L 218.337837 99.578912 
L 219.637165 96.767373 
L 220.136593 97.111076 
L 221.105517 98.413734 
L 221.522312 97.320437 
L 222.015211 96.821124 
L 222.368007 100.029645 
L 222.717404 96.645938 
L 223.194732 97.494881 
L 223.542342 100.653768 
L 223.886282 97.071292 
L 225.857414 99.407183 
L 226.247505 95.805514 
L 226.661395 96.280667 
L 227.483233 99.643631 
L 228.690861 96.117141 
L 229.526929 98.697711 
L 229.923068 98.172328 
L 230.760177 95.310462 
L 231.130752 95.841489 
L 231.555757 98.032257 
L 232.025818 95.522039 
L 232.930137 96.020973 
L 234.342682 98.018686 
L 236.16834 99.7663 
L 236.547804 96.146218 
L 236.978576 97.832865 
L 239.281057 96.031791 
L 239.741129 98.905253 
L 240.604824 98.255999 
L 241.033255 99.299848 
L 241.859198 94.605555 
L 242.237833 95.143929 
L 242.64906 97.985564 
L 243.104931 97.26294 
L 244.233669 97.248865 
L 244.58829 100.052288 
L 245.338565 99.227091 
L 245.769019 100.695918 
L 246.989538 94.66645 
L 247.81033 98.530762 
L 248.194376 97.085652 
L 249.229131 97.38566 
L 249.675772 96.070093 
L 250.083997 98.859219 
L 250.514342 94.522823 
L 250.924611 97.888225 
L 252.298134 97.108781 
L 252.76494 96.651646 
L 253.222371 98.881289 
L 253.66318 97.049489 
L 254.613304 96.131309 
L 255.070984 99.158519 
L 255.489494 95.150931 
L 256.359807 96.13419 
L 256.788065 95.42414 
L 257.569193 94.878767 
L 257.948966 99.651079 
L 258.327579 94.963784 
L 258.744548 96.564745 
L 259.795055 100.888017 
L 260.141155 96.464786 
L 261.015885 97.130465 
L 261.461081 97.12957 
L 261.863737 98.212934 
L 262.256257 96.525873 
L 262.652666 97.060058 
L 263.043119 95.613605 
L 264.613768 101.023034 
L 265.294345 94.048779 
L 266.070129 97.573345 
L 267.344581 97.529477 
L 267.662642 92.14011 
L 267.976388 98.216557 
L 269.19879 95.441645 
L 269.588305 96.802537 
L 270.068318 98.234466 
L 270.512747 96.889222 
L 270.928068 97.136502 
L 271.348329 100.761952 
L 271.726774 96.784161 
L 272.577464 98.308163 
L 273.065618 96.990811 
L 273.499808 95.752075 
L 273.89415 97.942854 
L 274.765868 97.637122 
L 275.297758 97.483777 
L 275.670088 95.235713 
L 276.039653 97.355388 
L 276.901892 97.697435 
L 277.284997 99.426694 
L 277.65718 95.318111 
L 278.053635 96.477507 
L 278.487104 98.932535 
L 278.910715 98.414402 
L 279.765745 94.630179 
L 280.153004 97.351231 
L 280.612425 97.760919 
L 281.049593 95.970817 
L 281.497885 96.491108 
L 281.940156 97.195233 
L 282.339533 96.642791 
L 282.686933 93.69533 
L 283.030958 99.019252 
L 283.404478 95.062197 
L 283.752251 99.542447 
L 284.436419 98.748585 
L 284.783643 97.443832 
L 285.535938 98.176936 
L 286.017342 97.468338 
L 286.351174 101.683587 
L 286.680998 97.29886 
L 287.109393 96.175486 
L 287.936555 95.523155 
L 288.274096 99.132106 
L 289.853362 94.395755 
L 290.249542 96.150251 
L 291.504425 97.196353 
L 291.945874 96.397094 
L 292.386691 98.970772 
L 292.818474 96.842694 
L 293.201969 95.878854 
L 293.597593 99.069637 
L 294.016466 97.147707 
L 295.329368 96.65211 
L 295.699841 99.040475 
L 296.067698 96.114261 
L 296.521437 96.53244 
L 296.97529 99.108429 
L 297.398819 98.369825 
L 297.740831 94.657812 
L 298.079719 97.119042 
L 298.454553 98.910092 
L 299.272384 98.296909 
L 300.963336 96.271824 
L 301.404734 95.527858 
L 301.813865 95.982145 
L 302.137252 100.901361 
L 302.456843 96.133755 
L 302.851266 95.410184 
L 303.617852 95.24726 
L 303.990226 101.066137 
L 304.733604 101.334574 
L 305.108182 95.129654 
L 305.903823 99.366544 
L 306.289637 94.162705 
L 306.658451 97.66092 
L 307.467455 97.269578 
L 307.850698 99.218517 
L 309.070286 95.849275 
L 309.456399 98.612099 
L 309.874332 98.013085 
L 310.560975 92.245788 
L 310.899842 94.076161 
L 311.679267 98.300547 
L 312.07578 97.312678 
L 313.287447 95.92378 
L 313.636905 99.447597 
L 314.428855 97.856688 
L 314.978975 97.768218 
L 315.366039 99.316349 
L 316.170327 99.036315 
L 317.845025 94.095462 
L 319.880647 97.485848 
L 320.233262 96.769319 
L 320.598124 96.159154 
L 321.451997 100.041941 
L 321.836766 95.480679 
L 322.641804 96.489404 
L 323.040697 99.179677 
L 323.428429 97.304143 
L 324.602374 94.172924 
L 325.335667 97.78876 
L 325.725574 97.149776 
L 326.086164 95.725761 
L 326.455784 96.643542 
L 327.313138 99.398702 
L 328.112113 98.249828 
L 328.550302 98.72447 
L 329.001217 97.626026 
L 329.369185 99.990611 
L 329.733823 95.277323 
L 330.116991 97.700637 
L 330.505639 98.268011 
L 331.302618 94.849405 
L 331.693475 96.642096 
L 333.258681 102.617542 
L 334.788689 94.246558 
L 335.888751 98.392668 
L 337.068001 96.438771 
L 337.896741 96.0433 
L 338.267274 97.470554 
L 338.641171 95.705726 
L 339.068834 98.733771 
L 339.815411 97.837367 
L 340.904967 93.108038 
L 341.278003 98.85137 
L 342.137802 97.758645 
L 342.908962 99.378639 
L 343.312158 95.611151 
L 343.726118 96.422866 
L 345.335071 100.088124 
L 345.726493 97.223026 
L 346.199266 98.769834 
L 346.675688 98.420205 
L 347.541713 94.60703 
L 348.314602 99.341346 
L 348.69828 96.920039 
L 349.13806 98.856934 
L 349.605093 97.881997 
L 350.190348 93.571978 
L 350.200036 95.212611 
L 350.200534 231.590668 
L 350.200748 17.88527 
L 350.952292 101.888066 
L 351.272476 102.630638 
L 351.620706 98.974136 
L 351.971855 102.898893 
L 352.316865 101.669495 
L 352.697782 101.569923 
L 353.095893 102.95165 
L 354.38573 97.746683 
L 354.94431 99.314497 
L 355.48881 97.755348 
L 355.907487 99.159743 
L 356.703041 101.921276 
L 357.072338 97.828554 
L 357.429757 101.77944 
L 358.547346 99.591388 
L 358.945359 102.23179 
L 359.304498 99.188327 
L 359.787278 99.186085 
L 360.160109 101.058334 
L 360.528812 98.788676 
L 361.454192 97.363105 
L 361.90394 100.29867 
L 362.316766 97.91959 
L 362.83398 97.272173 
L 363.659375 101.903597 
L 363.9946 97.389496 
L 364.467551 98.952704 
L 365.325201 101.281447 
L 365.709893 98.760095 
L 366.186901 98.836584 
L 367.231456 98.686441 
L 367.595755 100.830499 
L 367.956449 99.279792 
L 368.939772 98.684615 
L 369.301451 100.912355 
L 369.65946 96.768398 
L 370.106431 98.452832 
L 370.620231 98.797202 
L 371.856615 100.592492 
L 372.677349 96.405069 
L 373.061197 98.842163 
L 375.091438 97.400624 
L 375.595226 98.104339 
L 376.051443 97.508965 
L 376.944626 95.497169 
L 377.724552 99.313753 
L 378.101154 99.037847 
L 378.517481 95.551678 
L 378.925783 98.782089 
L 379.781917 99.095591 
L 380.211424 97.296295 
L 380.6537 98.499049 
L 381.091342 98.302853 
L 381.446744 100.802677 
L 381.798952 95.497775 
L 382.175019 97.030671 
L 382.52054 100.462274 
L 383.340077 98.715339 
L 384.676878 94.816333 
L 386.042584 97.12895 
L 387.141324 97.832228 
L 387.501125 94.985567 
L 387.858035 99.289278 
L 389.104528 97.420032 
L 390.263593 97.62639 
L 391.065951 96.17019 
L 391.510974 98.041854 
L 391.99653 96.681055 
L 392.904334 98.39657 
L 393.309835 97.145152 
L 393.797042 96.620937 
L 394.674475 96.172646 
L 395.12377 98.176844 
L 396.854642 96.523458 
L 397.301759 98.194459 
L 397.784506 96.557939 
L 398.350413 97.297448 
L 398.832086 96.671818 
L 399.76688 94.758847 
L 400.176758 96.990625 
L 400.786594 96.17884 
L 401.336076 96.63696 
L 401.725784 95.143547 
L 402.112799 98.797372 
L 402.524022 96.145191 
L 403.966387 98.413906 
L 404.414599 96.282524 
L 404.885237 96.493846 
L 406.742744 98.980996 
L 407.772242 97.293292 
L 408.361483 97.340061 
L 408.727453 94.96634 
L 409.0907 98.851317 
L 410.63701 94.641594 
L 411.010504 95.980627 
L 411.471507 97.382302 
L 411.985976 97.15073 
L 413.450824 94.485978 
L 413.824178 99.908328 
L 414.189908 97.778252 
L 414.62839 94.817991 
L 415.027592 100.958877 
L 415.399169 98.937963 
L 415.801313 95.208115 
L 416.190344 97.693648 
L 416.63229 98.452072 
L 417.04132 97.592005 
L 417.858703 95.835801 
L 418.285568 98.60055 
L 418.728526 96.346882 
L 419.177938 96.059579 
L 420.472338 98.94045 
L 420.857985 96.424494 
L 421.323883 97.561541 
L 421.802761 98.136105 
L 422.241591 95.671772 
L 422.679503 95.966053 
L 423.112016 97.199002 
L 423.573487 96.311622 
L 425.014257 96.063358 
L 425.929315 98.727989 
L 426.327741 97.517822 
L 426.78977 96.611033 
L 427.2664 97.681698 
L 427.63407 99.636458 
L 427.999207 94.435134 
L 428.752543 96.271475 
L 429.238839 96.071802 
L 431.049258 99.488529 
L 431.438881 99.031424 
L 431.863896 96.506887 
L 432.329096 98.54779 
L 433.813542 96.960851 
L 434.193892 99.106941 
L 434.571696 95.125229 
L 435.393281 96.56759 
L 436.6 98.923381 
L 437.008895 95.642484 
L 437.428662 97.428645 
L 438.732407 96.618934 
L 439.242767 96.140222 
L 439.706171 97.441281 
L 440.187661 96.663511 
L 440.674686 96.641819 
L 441.075058 94.499071 
L 441.439227 97.575175 
L 441.814411 100.223423 
L 442.154778 97.644291 
L 442.510248 95.181417 
L 442.863453 99.039857 
L 443.252599 95.988931 
L 443.696882 95.860413 
L 445.099458 97.199683 
L 445.536907 97.132095 
L 445.875927 100.756519 
L 446.211544 97.019966 
L 446.64786 99.699604 
L 447.55978 96.45448 
L 448.009353 97.811875 
L 448.510273 97.849614 
L 448.875665 94.43637 
L 449.62123 96.829497 
L 450.501222 96.792477 
L 451.823793 94.504176 
L 453.046186 99.008676 
L 453.42148 96.069908 
L 453.84745 96.343458 
L 455.135057 99.450353 
L 455.540943 95.089993 
L 455.938955 97.388194 
L 456.405133 97.383918 
L 456.773549 99.493966 
L 457.601965 99.075769 
L 458.033531 99.334157 
L 458.812285 95.093598 
L 459.63974 96.54323 
L 459.991834 99.784624 
L 460.339706 95.256656 
L 460.714666 97.059863 
L 461.601277 96.413347 
L 462.007271 97.864894 
L 462.416051 95.017086 
L 462.813231 98.814 
L 463.239981 98.118095 
L 463.670907 95.213362 
L 464.068512 97.616703 
L 465.855928 95.213121 
L 466.24511 99.302868 
L 467.07689 97.882338 
L 468.400018 96.580795 
L 468.785609 98.484178 
L 469.241435 97.93533 
L 469.659407 96.524907 
L 470.07497 99.05501 
L 470.509974 97.834609 
L 470.940171 97.504635 
L 471.781941 94.190786 
L 472.16356 97.428739 
L 472.649965 96.963722 
L 473.031334 95.085515 
L 473.409913 96.138062 
L 474.229625 97.584653 
L 474.639854 100.4112 
L 475.014763 95.07045 
L 475.785557 97.4497 
L 477.177853 95.512708 
L 478.437095 101.045261 
L 479.889082 96.193779 
L 480.671574 95.550075 
L 481.057699 99.832946 
L 481.444265 96.443515 
L 481.899974 97.454477 
L 482.750962 98.477446 
L 483.513166 97.020555 
L 483.886475 98.987427 
L 484.29987 97.224056 
L 485.989795 94.17606 
L 486.816448 97.816318 
L 487.227562 95.472257 
L 487.671962 99.354675 
L 488.095686 98.903843 
L 488.911028 95.545709 
L 489.293775 97.546452 
L 490.463217 95.368835 
L 491.25636 100.477582 
L 491.977411 98.511645 
L 492.78847 98.908524 
L 494.253145 93.24569 
L 494.96372 97.51382 
L 495.69185 96.730256 
L 496.943743 99.206093 
L 498.602079 96.775407 
L 499.063855 96.233115 
L 499.441025 93.347304 
L 499.784297 97.067851 
L 500.188657 96.273227 
L 500.574668 98.235613 
L 501.349357 97.998147 
L 502.67855 96.382681 
L 503.151664 98.713163 
L 503.592479 96.995484 
L 504.963256 94.70343 
L 505.670726 99.010794 
L 506.048043 98.204729 
L 506.487956 96.356732 
L 506.917688 98.374949 
L 507.315629 100.041633 
L 507.679528 95.765347 
L 508.08022 99.402245 
L 508.485116 99.794913 
L 508.878468 95.958884 
L 509.282731 97.306127 
L 509.691644 98.479185 
L 510.480927 98.853734 
L 510.928744 95.270952 
L 511.312329 94.229487 
L 512.866569 98.745462 
L 513.181874 92.751632 
L 513.86903 98.343131 
L 514.243112 98.818591 
L 514.653254 95.790042 
L 515.089791 96.388923 
L 517.201098 99.908855 
L 517.601862 95.743501 
L 518.433702 96.566963 
L 518.859057 98.266924 
L 519.284782 95.859507 
L 519.738377 95.566753 
L 520.156781 99.756315 
L 520.548772 96.256524 
L 520.998052 97.589226 
L 522.090428 94.841986 
L 523.690988 100.598812 
L 524.02316 100.2001 
L 524.392194 97.320723 
L 525.13508 98.186016 
L 525.551739 99.76989 
L 525.965437 96.142605 
L 526.39123 96.299612 
L 526.812257 98.268846 
L 527.242787 94.092884 
L 527.638375 98.632136 
L 528.063518 98.752558 
L 528.892706 95.909881 
L 529.319808 98.120286 
L 529.686047 95.072162 
L 530.048746 97.179942 
L 530.479171 96.987133 
L 530.91635 99.337033 
L 531.32425 97.903901 
L 531.711364 95.815017 
L 532.121495 96.893487 
L 532.978454 98.992763 
L 533.398823 98.051399 
L 534.908969 93.878311 
L 535.285232 96.361039 
L 536.015718 95.581329 
L 536.4615 96.074012 
L 536.896216 99.262517 
L 537.29003 95.190775 
L 538.111151 100.737658 
L 538.111151 100.737658 
" clip-path="url(#pa13f0c8814)" style="fill: none; stroke: #e41a1c; stroke-width: 2; stroke-linecap: square"/>
   </g>
   <g id="line2d_28">
    <path d="M 68.334162 97.216866 
L 68.483426 97.581669 
L 69.487697 96.73658 
L 69.82587 96.119855 
L 70.161029 97.236116 
L 70.477704 96.537637 
L 70.7703 97.83805 
L 71.030056 96.171353 
L 71.306678 96.471593 
L 72.539503 96.154107 
L 72.914854 95.509819 
L 74.134033 97.322933 
L 74.433412 95.831007 
L 75.255089 96.306863 
L 75.952206 96.057086 
L 76.330119 96.373861 
L 77.818579 97.501708 
L 78.530333 95.859459 
L 79.219749 96.533106 
L 86.250467 97.570739 
L 86.594777 96.894356 
L 87.276436 97.335973 
L 87.672491 97.994023 
L 88.406958 97.353439 
L 89.190767 95.969111 
L 89.51467 96.560269 
L 89.915405 97.294042 
L 90.281059 96.763523 
L 91.10291 95.314583 
L 91.345247 95.442134 
L 91.659101 95.288283 
L 92.85214 96.654289 
L 94.956462 97.464597 
L 95.664181 97.872287 
L 95.94648 96.265764 
L 96.18185 98.6359 
L 96.719311 97.848562 
L 100.297347 96.708001 
L 102.163855 97.93302 
L 104.971211 96.822666 
L 106.295771 98.310726 
L 105.669572 96.311507 
L 106.572831 98.131148 
L 106.828058 95.936261 
L 107.701761 96.244796 
L 109.182755 97.781508 
L 109.831516 96.546408 
L 110.230424 97.455268 
L 112.584538 96.742651 
L 113.846239 97.267444 
L 114.320767 97.042067 
L 114.669664 98.247117 
L 115.476099 98.009099 
L 117.997216 99.356569 
L 118.643351 97.463332 
L 118.942414 97.894159 
L 120.023724 99.658039 
L 120.813687 96.851976 
L 121.107053 97.490375 
L 121.481622 98.034873 
L 121.858631 97.369955 
L 122.527008 97.712205 
L 122.841849 96.70686 
L 123.146669 98.017582 
L 123.690897 96.573571 
L 125.643983 96.926449 
L 126.847787 96.237815 
L 128.305488 97.401202 
L 130.57086 96.213501 
L 130.869585 98.15859 
L 131.401309 96.968008 
L 131.744924 96.157086 
L 132.495535 96.724686 
L 133.65092 97.516708 
L 134.032483 96.716709 
L 134.402178 97.451392 
L 136.361203 97.869111 
L 136.659617 96.293805 
L 137.26819 96.512808 
L 137.666227 96.60797 
L 138.018612 95.439604 
L 138.71404 95.980211 
L 139.725637 97.801582 
L 139.98272 95.826336 
L 140.443066 98.672853 
L 140.669356 97.34911 
L 141.516795 98.175759 
L 141.242423 96.703451 
L 141.803667 97.409514 
L 142.416167 96.408146 
L 142.744337 96.849157 
L 143.970398 97.386038 
L 144.38237 96.91433 
L 144.818148 97.474829 
L 146.392233 97.881088 
L 146.784775 97.008419 
L 147.143107 97.790971 
L 147.456383 98.731777 
L 148.074808 97.879052 
L 148.442081 97.072819 
L 148.75193 98.478662 
L 151.73965 96.163999 
L 152.444863 97.756289 
L 152.777058 96.666221 
L 154.258462 97.897155 
L 154.558467 95.984235 
L 155.396507 96.815709 
L 157.013751 95.711035 
L 158.010238 97.559215 
L 158.297454 96.526597 
L 162.189639 98.426372 
L 162.288364 96.974793 
L 162.29158 126.597474 
L 162.289416 83.998422 
L 163.175969 92.172273 
L 165.738898 80.667513 
L 165.932293 81.917737 
L 166.215429 81.840501 
L 167.825106 76.819131 
L 169.358053 74.579073 
L 170.317219 71.826453 
L 170.639044 72.552931 
L 172.453388 69.998276 
L 173.989349 67.00607 
L 174.37136 66.846527 
L 175.895894 64.336261 
L 176.745112 63.067826 
L 180.365178 58.113169 
L 181.239228 57.685312 
L 183.570491 54.794841 
L 192.433466 49.575262 
L 192.764736 51.061401 
L 193.09265 49.200956 
L 193.443322 49.765051 
L 193.81396 50.469782 
L 194.183102 49.359543 
L 195.336861 47.571374 
L 195.680449 48.149696 
L 196.04186 48.891888 
L 196.404793 48.605923 
L 198.105689 47.300576 
L 198.543362 48.465247 
L 199.009551 47.639935 
L 199.873553 47.898865 
L 202.090932 48.414974 
L 203.384768 47.102914 
L 208.357918 49.965896 
L 209.214838 48.377162 
L 209.60829 48.887981 
L 210.501079 48.599016 
L 212.488158 48.673597 
L 213.818573 49.291933 
L 214.18915 48.5129 
L 214.557815 49.69194 
L 214.964782 49.072692 
L 215.37231 49.729537 
L 215.776541 49.154983 
L 216.18145 48.425984 
L 216.550095 48.631936 
L 217.489297 49.523418 
L 217.923098 48.357517 
L 218.337837 49.810629 
L 223.194732 50.208119 
L 223.542342 51.45692 
L 223.886282 50.56507 
L 230.387504 51.757874 
L 232.025818 50.69182 
L 233.405209 50.973357 
L 235.327364 51.864773 
L 241.446989 51.817853 
L 242.237833 51.00205 
L 243.588686 51.624943 
L 244.233669 51.627375 
L 245.769019 54.11769 
L 246.989538 51.845288 
L 248.644153 52.749502 
L 250.083997 53.226545 
L 250.514342 51.700431 
L 250.924611 52.629114 
L 254.160976 52.476245 
L 254.613304 52.244287 
L 255.070984 53.34157 
L 255.489494 52.015966 
L 256.359807 51.937008 
L 257.569193 50.872697 
L 257.948966 52.399663 
L 258.327579 50.90753 
L 259.445345 51.902523 
L 259.795055 53.15856 
L 260.570993 52.924865 
L 262.256257 52.359025 
L 264.968769 53.384174 
L 265.294345 51.911255 
L 266.070129 52.909516 
L 267.344581 53.173467 
L 267.662642 51.215875 
L 268.352102 52.80122 
L 270.512747 52.26051 
L 270.928068 52.305451 
L 271.348329 53.792406 
L 271.726774 52.761 
L 275.297758 52.890225 
L 275.670088 52.045947 
L 276.442921 52.524408 
L 279.343655 53.169618 
L 279.765745 52.049346 
L 280.153004 52.733005 
L 281.940156 52.430631 
L 283.404478 51.234683 
L 284.436419 52.754621 
L 285.535938 52.898577 
L 286.017342 52.780979 
L 286.351174 54.410083 
L 286.680998 53.358294 
L 287.936555 52.736192 
L 288.61781 53.776562 
L 289.853362 51.597572 
L 290.249542 51.846015 
L 291.504425 52.083121 
L 291.945874 51.73443 
L 292.386691 52.669069 
L 292.818474 52.082406 
L 293.201969 51.638198 
L 293.597593 52.708959 
L 295.329368 51.884328 
L 295.699841 52.736837 
L 296.067698 51.860381 
L 296.97529 52.810202 
L 297.398819 52.830676 
L 297.740831 51.577173 
L 298.079719 52.164322 
L 299.272384 53.054471 
L 301.813865 51.573173 
L 302.137252 53.245845 
L 302.456843 51.943837 
L 303.617852 51.268191 
L 304.733604 53.898211 
L 305.108182 52.076983 
L 305.493331 53.138389 
L 305.903823 53.691307 
L 306.289637 51.9549 
L 306.658451 52.876426 
L 307.850698 53.827244 
L 309.070286 52.836445 
L 309.874332 53.725223 
L 310.899842 51.274267 
L 311.288841 51.768785 
L 312.07578 52.117035 
L 313.287447 51.186452 
L 314.428855 52.186276 
L 315.750288 53.209494 
L 316.583728 53.082788 
L 320.598124 51.500148 
L 321.451997 53.040038 
L 321.836766 51.660973 
L 323.428429 52.250436 
L 324.602374 50.829265 
L 324.953569 51.531103 
L 325.725574 51.607047 
L 326.455784 51.174523 
L 326.877695 51.506466 
L 328.550302 52.641124 
L 329.001217 52.456133 
L 329.369185 53.449145 
L 329.733823 52.023123 
L 330.116991 52.694078 
L 330.505639 53.002886 
L 330.897176 52.080134 
L 331.302618 51.524886 
L 331.693475 51.869486 
L 333.258681 54.523072 
L 333.991086 53.557289 
L 336.256613 51.992765 
L 337.474473 52.33637 
L 338.641171 51.498122 
L 339.815411 52.443955 
L 340.904967 50.188186 
L 341.278003 51.825464 
L 342.137802 51.514928 
L 342.908962 52.474237 
L 343.726118 51.359884 
L 344.126127 51.853947 
L 344.93951 52.888408 
L 346.675688 53.57941 
L 347.541713 52.094288 
L 347.90253 53.233259 
L 349.13806 53.940065 
L 350.155847 53.106509 
L 350.190348 52.497825 
L 350.200296 56.800914 
L 350.200534 86.188704 
L 350.200748 34.037993 
L 350.952292 55.528311 
L 353.095893 59.629062 
L 354.38573 59.448781 
L 360.160109 66.782763 
L 361.454192 66.347764 
L 361.90394 67.610726 
L 362.316766 67.136935 
L 363.32024 67.558865 
L 363.659375 68.980348 
L 364.467551 68.591746 
L 367.956449 71.76123 
L 368.939772 72.159075 
L 369.301451 73.237365 
L 370.106431 72.793342 
L 373.496391 74.860665 
L 374.441169 74.638343 
L 377.724552 75.43198 
L 378.101154 75.635513 
L 378.517481 74.500897 
L 378.925783 75.540427 
L 381.446744 77.62661 
L 381.798952 76.095049 
L 382.175019 76.443938 
L 383.340077 77.632808 
L 385.042534 76.194102 
L 387.501125 75.582799 
L 388.675561 77.370279 
L 390.665612 76.714162 
L 392.497338 76.848508 
L 393.309835 77.027611 
L 394.674475 76.62734 
L 395.974431 77.718171 
L 396.854642 76.991802 
L 397.301759 77.581734 
L 399.76688 75.817069 
L 400.786594 75.847401 
L 406.302397 76.113887 
L 406.742744 76.691958 
L 407.165009 76.282368 
L 410.297534 75.560756 
L 411.471507 75.747135 
L 413.042202 74.959899 
L 413.450824 74.125431 
L 413.824178 75.845829 
L 414.189908 75.406635 
L 414.62839 74.256268 
L 415.027592 76.353931 
L 415.399169 76.121463 
L 415.801313 74.891739 
L 416.190344 75.575188 
L 417.04132 75.844058 
L 417.858703 75.043989 
L 418.285568 75.958888 
L 418.728526 75.256958 
L 420.084329 75.445247 
L 421.323883 75.738516 
L 421.802761 76.063967 
L 422.241591 75.194195 
L 425.504113 74.860551 
L 426.327741 75.063632 
L 427.2664 75.080801 
L 427.63407 75.916682 
L 428.36787 74.116741 
L 428.752543 74.236005 
L 430.304941 73.990529 
L 431.438881 75.437125 
L 431.863896 74.706046 
L 432.329096 75.462155 
L 440.674686 74.817305 
L 441.075058 73.851551 
L 441.439227 74.647902 
L 441.814411 75.742614 
L 442.154778 75.171573 
L 442.863453 75.478756 
L 443.252599 74.542032 
L 445.099458 74.365925 
L 445.536907 74.328761 
L 446.64786 75.85044 
L 451.823793 73.528932 
L 453.046186 74.914443 
L 453.84745 73.932764 
L 454.285578 74.202782 
L 455.135057 75.312259 
L 455.540943 73.903016 
L 455.938955 74.490678 
L 457.13921 75.102123 
L 458.033531 76.179875 
L 458.457011 75.747576 
L 459.63974 75.181424 
L 459.991834 76.337717 
L 460.339706 74.964074 
L 460.714666 75.382603 
L 468.400018 74.627941 
L 470.07497 75.761304 
L 471.375182 74.632923 
L 471.781941 73.893614 
L 472.16356 74.710603 
L 474.229625 74.117459 
L 474.639854 75.330365 
L 475.014763 73.703299 
L 477.177853 72.736698 
L 478.437095 75.031579 
L 478.818071 74.770015 
L 479.21811 75.256048 
L 479.553218 74.668218 
L 480.671574 73.941459 
L 481.057699 75.395642 
L 481.899974 74.749346 
L 484.29987 75.270621 
L 487.227562 73.248386 
L 488.095686 74.746545 
L 488.504986 74.006948 
L 489.721278 73.702639 
L 492.78847 75.841842 
L 494.253145 74.004142 
L 498.121403 75.775457 
L 500.188657 74.26104 
L 501.349357 74.798043 
L 504.963256 73.112013 
L 505.316449 73.944556 
L 506.048043 74.439198 
L 506.487956 73.833074 
L 506.917688 74.524563 
L 507.679528 74.134372 
L 508.485116 75.902223 
L 508.878468 74.776696 
L 509.282731 75.126492 
L 510.480927 75.767271 
L 511.312329 73.831357 
L 511.677092 74.362201 
L 512.866569 75.531054 
L 513.181874 73.508279 
L 513.86903 75.115874 
L 514.243112 75.473601 
L 514.653254 74.501226 
L 516.800084 75.294319 
L 518.025957 76.029362 
L 519.738377 74.792551 
L 520.156781 76.243448 
L 520.998052 75.635503 
L 522.9238 73.476981 
L 525.551739 76.411701 
L 527.242787 74.349438 
L 528.063518 75.976237 
L 528.462817 75.577061 
L 529.686047 74.688607 
L 530.048746 75.195819 
L 530.479171 75.106145 
L 530.91635 76.0538 
L 531.32425 75.819816 
L 532.121495 75.304841 
L 532.512444 75.594422 
L 533.398823 76.156422 
L 534.908969 74.122287 
L 535.285232 74.591461 
L 535.652105 73.506251 
L 538.111151 75.269272 
L 538.111151 75.269272 
" clip-path="url(#pa13f0c8814)" style="fill: none; stroke: #377eb8; stroke-width: 2; stroke-linecap: square"/>
   </g>
   <g id="patch_3">
    <path d="M 44.845313 242.275937 
L 44.845313 7.2 
" style="fill: none; stroke: #7f7f7f; stroke-width: 1.8; stroke-linejoin: miter; stroke-linecap: square"/>
   </g>
   <g id="patch_4">
    <path d="M 44.845313 242.275937 
L 561.6 242.275937 
" style="fill: none; stroke: #7f7f7f; stroke-width: 1.8; stroke-linejoin: miter; stroke-linecap: square"/>
   </g>
   <g id="legend_1">
    <g id="line2d_29">
     <path d="M 499.584375 20.298437 
L 509.584375 20.298437 
L 519.584375 20.298437 
" style="fill: none; stroke: #e41a1c; stroke-width: 2; stroke-linecap: square"/>
    </g>
    <g id="text_15">
     <!-- err 2 -->
     <g style="fill: #7f7f7f" transform="translate(527.584375 23.798437) scale(0.1 -0.1)">
      <defs>
       <path id="DejaVuSans-72" d="M 2631 2963 
Q 2534 3019 2420 3045 
Q 2306 3072 2169 3072 
Q 1681 3072 1420 2755 
Q 1159 2438 1159 1844 
L 1159 0 
L 581 0 
L 581 3500 
L 1159 3500 
L 1159 2956 
Q 1341 3275 1631 3429 
Q 1922 3584 2338 3584 
Q 2397 3584 2469 3576 
Q 2541 3569 2628 3553 
L 2631 2963 
z
" transform="scale(0.015625)"/>
      </defs>
      <use xlink:href="#DejaVuSans-65"/>
      <use xlink:href="#DejaVuSans-72" transform="translate(61.523438 0)"/>
      <use xlink:href="#DejaVuSans-72" transform="translate(100.886719 0)"/>
      <use xlink:href="#DejaVuSans-20" transform="translate(142 0)"/>
      <use xlink:href="#DejaVuSans-32" transform="translate(173.787109 0)"/>
     </g>
    </g>
    <g id="line2d_30">
     <path d="M 499.584375 34.976562 
L 509.584375 34.976562 
L 519.584375 34.976562 
" style="fill: none; stroke: #377eb8; stroke-width: 2; stroke-linecap: square"/>
    </g>
    <g id="text_16">
     <!-- pid 2 -->
     <g style="fill: #7f7f7f" transform="translate(527.584375 38.476562) scale(0.1 -0.1)">
      <defs>
       <path id="DejaVuSans-70" d="M 1159 525 
L 1159 -1331 
L 581 -1331 
L 581 3500 
L 1159 3500 
L 1159 2969 
Q 1341 3281 1617 3432 
Q 1894 3584 2278 3584 
Q 2916 3584 3314 3078 
Q 3713 2572 3713 1747 
Q 3713 922 3314 415 
Q 2916 -91 2278 -91 
Q 1894 -91 1617 61 
Q 1341 213 1159 525 
z
M 3116 1747 
Q 3116 2381 2855 2742 
Q 2594 3103 2138 3103 
Q 1681 3103 1420 2742 
Q 1159 2381 1159 1747 
Q 1159 1113 1420 752 
Q 1681 391 2138 391 
Q 2594 391 2855 752 
Q 3116 1113 3116 1747 
z
" transform="scale(0.015625)"/>
       <path id="DejaVuSans-64" d="M 2906 2969 
L 2906 4863 
L 3481 4863 
L 3481 0 
L 2906 0 
L 2906 525 
Q 2725 213 2448 61 
Q 2172 -91 1784 -91 
Q 1150 -91 751 415 
Q 353 922 353 1747 
Q 353 2572 751 3078 
Q 1150 3584 1784 3584 
Q 2172 3584 2448 3432 
Q 2725 3281 2906 2969 
z
M 947 1747 
Q 947 1113 1208 752 
Q 1469 391 1925 391 
Q 2381 391 2643 752 
Q 2906 1113 2906 1747 
Q 2906 2381 2643 2742 
Q 2381 3103 1925 3103 
Q 1469 3103 1208 2742 
Q 947 2381 947 1747 
z
" transform="scale(0.015625)"/>
      </defs>
      <use xlink:href="#DejaVuSans-70"/>
      <use xlink:href="#DejaVuSans-69" transform="translate(63.476562 0)"/>
      <use xlink:href="#DejaVuSans-64" transform="translate(91.259766 0)"/>
      <use xlink:href="#DejaVuSans-20" transform="translate(154.736328 0)"/>
      <use xlink:href="#DejaVuSans-32" transform="translate(186.523438 0)"/>
     </g>
    </g>
   </g>
  </g>
 </g>
 <defs>
  <clipPath id="pa13f0c8814">
   <rect x="44.845313" y="7.2" width="516.754687" height="235.075938"/>
  </clipPath>
 </defs>
</svg>
