<?xml version="1.0" encoding="utf-8" standalone="no"?>
<!DOCTYPE svg PUBLIC "-//W3C//DTD SVG 1.1//EN"
  "http://www.w3.org/Graphics/SVG/1.1/DTD/svg11.dtd">
<svg xmlns:xlink="http://www.w3.org/1999/xlink" width="568.8pt" height="280.8pt" viewBox="0 0 568.8 280.8" xmlns="http://www.w3.org/2000/svg" version="1.1">
 <metadata>
  <rdf:RDF xmlns:dc="http://purl.org/dc/elements/1.1/" xmlns:cc="http://creativecommons.org/ns#" xmlns:rdf="http://www.w3.org/1999/02/22-rdf-syntax-ns#">
   <cc:Work>
    <dc:type rdf:resource="http://purl.org/dc/dcmitype/StillImage"/>
    <dc:date>2026-06-22T14:05:38.604236</dc:date>
    <dc:format>image/svg+xml</dc:format>
    <dc:creator>
     <cc:Agent>
      <dc:title>Matplotlib v3.11.0, https://matplotlib.org/</dc:title>
     </cc:Agent>
    </dc:creator>
   </cc:Work>
  </rdf:RDF>
 </metadata>
 <defs>
  <style type="text/css">*{stroke-linejoin: round; stroke-linecap: butt}</style>
 </defs>
 <g id="figure_1">
  <g id="patch_1">
   <path d="M 0 280.8 
L 568.8 280.8 
L 568.8 0 
L 0 0 
L 0 280.8 
z
" style="fill: none"/>
  </g>
  <g id="axes_1">
   <g id="patch_2">
    <path d="M 38.482813 241.599141 
L 561.6 241.599141 
L 561.6 7.2 
L 38.482813 7.2 
L 38.482813 241.599141 
z
" style="fill: none"/>
   </g>
   <g id="matplotlib.axis_1">
    <g id="xtick_1">
     <g id="line2d_1">
      <path d="M 62.260866 241.599141 
L 62.260866 7.2 
" clip-path="url(#pf84163abf8)" style="fill: none; stroke-dasharray: 2.96,1.28; stroke-dashoffset: 0; stroke: #7f7f7f; stroke-opacity: 0.6; stroke-width: 0.8"/>
     </g>
     <g id="line2d_2">
      <defs>
       <path id="ma8ecef8171" d="M 0 0 
L 0 3.5 
" style="stroke: #7f7f7f; stroke-width: 1.8"/>
      </defs>
      <g>
       <use xlink:href="#ma8ecef8171" x="62.260866" y="241.599141" style="fill: #7f7f7f; stroke: #7f7f7f; stroke-width: 1.8"/>
      </g>
     </g>
     <g id="text_1">
      <!-- 0 -->
      <g style="fill: #7f7f7f" transform="translate(59.079616 256.196797) scale(0.1 -0.1)">
       <defs>
        <path id="DejaVuSans-13" d="M 2034 4250 
Q 1547 4250 1301 3770 
Q 1056 3291 1056 2328 
Q 1056 1369 1301 889 
Q 1547 409 2034 409 
Q 2525 409 2770 889 
Q 3016 1369 3016 2328 
Q 3016 3291 2770 3770 
Q 2525 4250 2034 4250 
z
M 2034 4750 
Q 2819 4750 3233 4129 
Q 3647 3509 3647 2328 
Q 3647 1150 3233 529 
Q 2819 -91 2034 -91 
Q 1250 -91 836 529 
Q 422 1150 422 2328 
Q 422 3509 836 4129 
Q 1250 4750 2034 4750 
z
" transform="scale(0.015625)"/>
       </defs>
       <use xlink:href="#DejaVuSans-13"/>
      </g>
     </g>
    </g>
    <g id="xtick_2">
     <g id="line2d_3">
      <path d="M 157.373082 241.599141 
L 157.373082 7.2 
" clip-path="url(#pf84163abf8)" style="fill: none; stroke-dasharray: 2.96,1.28; stroke-dashoffset: 0; stroke: #7f7f7f; stroke-opacity: 0.6; stroke-width: 0.8"/>
     </g>
     <g id="line2d_4">
      <g>
       <use xlink:href="#ma8ecef8171" x="157.373082" y="241.599141" style="fill: #7f7f7f; stroke: #7f7f7f; stroke-width: 1.8"/>
      </g>
     </g>
     <g id="text_2">
      <!-- 20 -->
      <g style="fill: #7f7f7f" transform="translate(151.010582 256.196797) scale(0.1 -0.1)">
       <defs>
        <path id="DejaVuSans-15" d="M 1228 531 
L 3431 531 
L 3431 0 
L 469 0 
L 469 531 
Q 828 903 1448 1529 
Q 2069 2156 2228 2338 
Q 2531 2678 2651 2914 
Q 2772 3150 2772 3378 
Q 2772 3750 2511 3984 
Q 2250 4219 1831 4219 
Q 1534 4219 1204 4116 
Q 875 4013 500 3803 
L 500 4441 
Q 881 4594 1212 4672 
Q 1544 4750 1819 4750 
Q 2544 4750 2975 4387 
Q 3406 4025 3406 3419 
Q 3406 3131 3298 2873 
Q 3191 2616 2906 2266 
Q 2828 2175 2409 1742 
Q 1991 1309 1228 531 
z
" transform="scale(0.015625)"/>
       </defs>
       <use xlink:href="#DejaVuSans-15"/>
       <use xlink:href="#DejaVuSans-13" transform="translate(63.625 0)"/>
      </g>
     </g>
    </g>
    <g id="xtick_3">
     <g id="line2d_5">
      <path d="M 252.485298 241.599141 
L 252.485298 7.2 
" clip-path="url(#pf84163abf8)" style="fill: none; stroke-dasharray: 2.96,1.28; stroke-dashoffset: 0; stroke: #7f7f7f; stroke-opacity: 0.6; stroke-width: 0.8"/>
     </g>
     <g id="line2d_6">
      <g>
       <use xlink:href="#ma8ecef8171" x="252.485298" y="241.599141" style="fill: #7f7f7f; stroke: #7f7f7f; stroke-width: 1.8"/>
      </g>
     </g>
     <g id="text_3">
      <!-- 40 -->
      <g style="fill: #7f7f7f" transform="translate(246.122798 256.196797) scale(0.1 -0.1)">
       <defs>
        <path id="DejaVuSans-17" d="M 2419 4116 
L 825 1625 
L 2419 1625 
L 2419 4116 
z
M 2253 4666 
L 3047 4666 
L 3047 1625 
L 3713 1625 
L 3713 1100 
L 3047 1100 
L 3047 0 
L 2419 0 
L 2419 1100 
L 313 1100 
L 313 1709 
L 2253 4666 
z
" transform="scale(0.015625)"/>
       </defs>
       <use xlink:href="#DejaVuSans-17"/>
       <use xlink:href="#DejaVuSans-13" transform="translate(63.625 0)"/>
      </g>
     </g>
    </g>
    <g id="xtick_4">
     <g id="line2d_7">
      <path d="M 347.597514 241.599141 
L 347.597514 7.2 
" clip-path="url(#pf84163abf8)" style="fill: none; stroke-dasharray: 2.96,1.28; stroke-dashoffset: 0; stroke: #7f7f7f; stroke-opacity: 0.6; stroke-width: 0.8"/>
     </g>
     <g id="line2d_8">
      <g>
       <use xlink:href="#ma8ecef8171" x="347.597514" y="241.599141" style="fill: #7f7f7f; stroke: #7f7f7f; stroke-width: 1.8"/>
      </g>
     </g>
     <g id="text_4">
      <!-- 60 -->
      <g style="fill: #7f7f7f" transform="translate(341.235014 256.196797) scale(0.1 -0.1)">
       <defs>
        <path id="DejaVuSans-19" d="M 2113 2584 
Q 1688 2584 1439 2293 
Q 1191 2003 1191 1497 
Q 1191 994 1439 701 
Q 1688 409 2113 409 
Q 2538 409 2786 701 
Q 3034 994 3034 1497 
Q 3034 2003 2786 2293 
Q 2538 2584 2113 2584 
z
M 3366 4563 
L 3366 3988 
Q 3128 4100 2886 4159 
Q 2644 4219 2406 4219 
Q 1781 4219 1451 3797 
Q 1122 3375 1075 2522 
Q 1259 2794 1537 2939 
Q 1816 3084 2150 3084 
Q 2853 3084 3261 2657 
Q 3669 2231 3669 1497 
Q 3669 778 3244 343 
Q 2819 -91 2113 -91 
Q 1303 -91 875 529 
Q 447 1150 447 2328 
Q 447 3434 972 4092 
Q 1497 4750 2381 4750 
Q 2619 4750 2861 4703 
Q 3103 4656 3366 4563 
z
" transform="scale(0.015625)"/>
       </defs>
       <use xlink:href="#DejaVuSans-19"/>
       <use xlink:href="#DejaVuSans-13" transform="translate(63.625 0)"/>
      </g>
     </g>
    </g>
    <g id="xtick_5">
     <g id="line2d_9">
      <path d="M 442.70973 241.599141 
L 442.70973 7.2 
" clip-path="url(#pf84163abf8)" style="fill: none; stroke-dasharray: 2.96,1.28; stroke-dashoffset: 0; stroke: #7f7f7f; stroke-opacity: 0.6; stroke-width: 0.8"/>
     </g>
     <g id="line2d_10">
      <g>
       <use xlink:href="#ma8ecef8171" x="442.70973" y="241.599141" style="fill: #7f7f7f; stroke: #7f7f7f; stroke-width: 1.8"/>
      </g>
     </g>
     <g id="text_5">
      <!-- 80 -->
      <g style="fill: #7f7f7f" transform="translate(436.34723 256.196797) scale(0.1 -0.1)">
       <defs>
        <path id="DejaVuSans-1b" d="M 2034 2216 
Q 1584 2216 1326 1975 
Q 1069 1734 1069 1313 
Q 1069 891 1326 650 
Q 1584 409 2034 409 
Q 2484 409 2743 651 
Q 3003 894 3003 1313 
Q 3003 1734 2745 1975 
Q 2488 2216 2034 2216 
z
M 1403 2484 
Q 997 2584 770 2862 
Q 544 3141 544 3541 
Q 544 4100 942 4425 
Q 1341 4750 2034 4750 
Q 2731 4750 3128 4425 
Q 3525 4100 3525 3541 
Q 3525 3141 3298 2862 
Q 3072 2584 2669 2484 
Q 3125 2378 3379 2068 
Q 3634 1759 3634 1313 
Q 3634 634 3220 271 
Q 2806 -91 2034 -91 
Q 1263 -91 848 271 
Q 434 634 434 1313 
Q 434 1759 690 2068 
Q 947 2378 1403 2484 
z
M 1172 3481 
Q 1172 3119 1398 2916 
Q 1625 2713 2034 2713 
Q 2441 2713 2670 2916 
Q 2900 3119 2900 3481 
Q 2900 3844 2670 4047 
Q 2441 4250 2034 4250 
Q 1625 4250 1398 4047 
Q 1172 3844 1172 3481 
z
" transform="scale(0.015625)"/>
       </defs>
       <use xlink:href="#DejaVuSans-1b"/>
       <use xlink:href="#DejaVuSans-13" transform="translate(63.625 0)"/>
      </g>
     </g>
    </g>
    <g id="xtick_6">
     <g id="line2d_11">
      <path d="M 537.821946 241.599141 
L 537.821946 7.2 
" clip-path="url(#pf84163abf8)" style="fill: none; stroke-dasharray: 2.96,1.28; stroke-dashoffset: 0; stroke: #7f7f7f; stroke-opacity: 0.6; stroke-width: 0.8"/>
     </g>
     <g id="line2d_12">
      <g>
       <use xlink:href="#ma8ecef8171" x="537.821946" y="241.599141" style="fill: #7f7f7f; stroke: #7f7f7f; stroke-width: 1.8"/>
      </g>
     </g>
     <g id="text_6">
      <!-- 100 -->
      <g style="fill: #7f7f7f" transform="translate(528.278196 256.196797) scale(0.1 -0.1)">
       <defs>
        <path id="DejaVuSans-14" d="M 794 531 
L 1825 531 
L 1825 4091 
L 703 3866 
L 703 4441 
L 1819 4666 
L 2450 4666 
L 2450 531 
L 3481 531 
L 3481 0 
L 794 0 
L 794 531 
z
" transform="scale(0.015625)"/>
       </defs>
       <use xlink:href="#DejaVuSans-14"/>
       <use xlink:href="#DejaVuSans-13" transform="translate(63.625 0)"/>
       <use xlink:href="#DejaVuSans-13" transform="translate(127.25 0)"/>
      </g>
     </g>
    </g>
    <g id="text_7">
     <!-- time [s] -->
     <g style="fill: #7f7f7f" transform="translate(278.710859 270.957422) scale(0.11 -0.11)">
      <defs>
       <path id="DejaVuSans-57" d="M 1172 4494 
L 1172 3500 
L 2356 3500 
L 2356 3053 
L 1172 3053 
L 1172 1153 
Q 1172 725 1289 603 
Q 1406 481 1766 481 
L 2356 481 
L 2356 0 
L 1766 0 
Q 1100 0 847 248 
Q 594 497 594 1153 
L 594 3053 
L 172 3053 
L 172 3500 
L 594 3500 
L 594 4494 
L 1172 4494 
z
" transform="scale(0.015625)"/>
       <path id="DejaVuSans-4c" d="M 603 3500 
L 1178 3500 
L 1178 0 
L 603 0 
L 603 3500 
z
M 603 4863 
L 1178 4863 
L 1178 4134 
L 603 4134 
L 603 4863 
z
" transform="scale(0.015625)"/>
       <path id="DejaVuSans-50" d="M 3328 2828 
Q 3544 3216 3844 3400 
Q 4144 3584 4550 3584 
Q 5097 3584 5394 3201 
Q 5691 2819 5691 2113 
L 5691 0 
L 5113 0 
L 5113 2094 
Q 5113 2597 4934 2840 
Q 4756 3084 4391 3084 
Q 3944 3084 3684 2787 
Q 3425 2491 3425 1978 
L 3425 0 
L 2847 0 
L 2847 2094 
Q 2847 2600 2669 2842 
Q 2491 3084 2119 3084 
Q 1678 3084 1418 2786 
Q 1159 2488 1159 1978 
L 1159 0 
L 581 0 
L 581 3500 
L 1159 3500 
L 1159 2956 
Q 1356 3278 1631 3431 
Q 1906 3584 2284 3584 
Q 2666 3584 2933 3390 
Q 3200 3197 3328 2828 
z
" transform="scale(0.015625)"/>
       <path id="DejaVuSans-48" d="M 3597 1894 
L 3597 1613 
L 953 1613 
Q 991 1019 1311 708 
Q 1631 397 2203 397 
Q 2534 397 2845 478 
Q 3156 559 3463 722 
L 3463 178 
Q 3153 47 2828 -22 
Q 2503 -91 2169 -91 
Q 1331 -91 842 396 
Q 353 884 353 1716 
Q 353 2575 817 3079 
Q 1281 3584 2069 3584 
Q 2775 3584 3186 3129 
Q 3597 2675 3597 1894 
z
M 3022 2063 
Q 3016 2534 2758 2815 
Q 2500 3097 2075 3097 
Q 1594 3097 1305 2825 
Q 1016 2553 972 2059 
L 3022 2063 
z
" transform="scale(0.015625)"/>
       <path id="DejaVuSans-3" transform="scale(0.015625)"/>
       <path id="DejaVuSans-3e" d="M 550 4863 
L 1875 4863 
L 1875 4416 
L 1125 4416 
L 1125 -397 
L 1875 -397 
L 1875 -844 
L 550 -844 
L 550 4863 
z
" transform="scale(0.015625)"/>
       <path id="DejaVuSans-56" d="M 2834 3397 
L 2834 2853 
Q 2591 2978 2328 3040 
Q 2066 3103 1784 3103 
Q 1356 3103 1142 2972 
Q 928 2841 928 2578 
Q 928 2378 1081 2264 
Q 1234 2150 1697 2047 
L 1894 2003 
Q 2506 1872 2764 1633 
Q 3022 1394 3022 966 
Q 3022 478 2636 193 
Q 2250 -91 1575 -91 
Q 1294 -91 989 -36 
Q 684 19 347 128 
L 347 722 
Q 666 556 975 473 
Q 1284 391 1588 391 
Q 1994 391 2212 530 
Q 2431 669 2431 922 
Q 2431 1156 2273 1281 
Q 2116 1406 1581 1522 
L 1381 1569 
Q 847 1681 609 1914 
Q 372 2147 372 2553 
Q 372 3047 722 3315 
Q 1072 3584 1716 3584 
Q 2034 3584 2315 3537 
Q 2597 3491 2834 3397 
z
" transform="scale(0.015625)"/>
       <path id="DejaVuSans-40" d="M 1947 4863 
L 1947 -844 
L 622 -844 
L 622 -397 
L 1369 -397 
L 1369 4416 
L 622 4416 
L 622 4863 
L 1947 4863 
z
" transform="scale(0.015625)"/>
      </defs>
      <use xlink:href="#DejaVuSans-57"/>
      <use xlink:href="#DejaVuSans-4c" transform="translate(39.203125 0)"/>
      <use xlink:href="#DejaVuSans-50" transform="translate(66.984375 0)"/>
      <use xlink:href="#DejaVuSans-48" transform="translate(164.390625 0)"/>
      <use xlink:href="#DejaVuSans-3" transform="translate(225.921875 0)"/>
      <use xlink:href="#DejaVuSans-3e" transform="translate(257.703125 0)"/>
      <use xlink:href="#DejaVuSans-56" transform="translate(296.71875 0)"/>
      <use xlink:href="#DejaVuSans-40" transform="translate(348.8125 0)"/>
     </g>
    </g>
   </g>
   <g id="matplotlib.axis_2">
    <g id="ytick_1">
     <g id="line2d_13">
      <path d="M 38.482813 226.33418 
L 561.6 226.33418 
" clip-path="url(#pf84163abf8)" style="fill: none; stroke-dasharray: 2.96,1.28; stroke-dashoffset: 0; stroke: #7f7f7f; stroke-opacity: 0.6; stroke-width: 0.8"/>
     </g>
     <g id="line2d_14">
      <defs>
       <path id="m43e82f159a" d="M 0 0 
L -3.5 0 
" style="stroke: #7f7f7f; stroke-width: 1.8"/>
      </defs>
      <g>
       <use xlink:href="#m43e82f159a" x="38.482813" y="226.33418" style="fill: #7f7f7f; stroke: #7f7f7f; stroke-width: 1.8"/>
      </g>
     </g>
     <g id="text_8">
      <!-- −0.1 -->
      <g style="fill: #7f7f7f" transform="translate(7.2 230.133008) scale(0.1 -0.1)">
       <defs>
        <path id="DejaVuSans-c9c" d="M 678 2272 
L 4684 2272 
L 4684 1741 
L 678 1741 
L 678 2272 
z
" transform="scale(0.015625)"/>
        <path id="DejaVuSans-11" d="M 684 794 
L 1344 794 
L 1344 0 
L 684 0 
L 684 794 
z
" transform="scale(0.015625)"/>
       </defs>
       <use xlink:href="#DejaVuSans-c9c"/>
       <use xlink:href="#DejaVuSans-13" transform="translate(83.796875 0)"/>
       <use xlink:href="#DejaVuSans-11" transform="translate(147.421875 0)"/>
       <use xlink:href="#DejaVuSans-14" transform="translate(179.203125 0)"/>
      </g>
     </g>
    </g>
    <g id="ytick_2">
     <g id="line2d_15">
      <path d="M 38.482813 183.500258 
L 561.6 183.500258 
" clip-path="url(#pf84163abf8)" style="fill: none; stroke-dasharray: 2.96,1.28; stroke-dashoffset: 0; stroke: #7f7f7f; stroke-opacity: 0.6; stroke-width: 0.8"/>
     </g>
     <g id="line2d_16">
      <g>
       <use xlink:href="#m43e82f159a" x="38.482813" y="183.500258" style="fill: #7f7f7f; stroke: #7f7f7f; stroke-width: 1.8"/>
      </g>
     </g>
     <g id="text_9">
      <!-- 0.0 -->
      <g style="fill: #7f7f7f" transform="translate(15.579688 187.299086) scale(0.1 -0.1)">
       <use xlink:href="#DejaVuSans-13"/>
       <use xlink:href="#DejaVuSans-11" transform="translate(63.625 0)"/>
       <use xlink:href="#DejaVuSans-13" transform="translate(95.40625 0)"/>
      </g>
     </g>
    </g>
    <g id="ytick_3">
     <g id="line2d_17">
      <path d="M 38.482813 140.666337 
L 561.6 140.666337 
" clip-path="url(#pf84163abf8)" style="fill: none; stroke-dasharray: 2.96,1.28; stroke-dashoffset: 0; stroke: #7f7f7f; stroke-opacity: 0.6; stroke-width: 0.8"/>
     </g>
     <g id="line2d_18">
      <g>
       <use xlink:href="#m43e82f159a" x="38.482813" y="140.666337" style="fill: #7f7f7f; stroke: #7f7f7f; stroke-width: 1.8"/>
      </g>
     </g>
     <g id="text_10">
      <!-- 0.1 -->
      <g style="fill: #7f7f7f" transform="translate(15.579688 144.465165) scale(0.1 -0.1)">
       <use xlink:href="#DejaVuSans-13"/>
       <use xlink:href="#DejaVuSans-11" transform="translate(63.625 0)"/>
       <use xlink:href="#DejaVuSans-14" transform="translate(95.40625 0)"/>
      </g>
     </g>
    </g>
    <g id="ytick_4">
     <g id="line2d_19">
      <path d="M 38.482813 97.832416 
L 561.6 97.832416 
" clip-path="url(#pf84163abf8)" style="fill: none; stroke-dasharray: 2.96,1.28; stroke-dashoffset: 0; stroke: #7f7f7f; stroke-opacity: 0.6; stroke-width: 0.8"/>
     </g>
     <g id="line2d_20">
      <g>
       <use xlink:href="#m43e82f159a" x="38.482813" y="97.832416" style="fill: #7f7f7f; stroke: #7f7f7f; stroke-width: 1.8"/>
      </g>
     </g>
     <g id="text_11">
      <!-- 0.2 -->
      <g style="fill: #7f7f7f" transform="translate(15.579688 101.631244) scale(0.1 -0.1)">
       <use xlink:href="#DejaVuSans-13"/>
       <use xlink:href="#DejaVuSans-11" transform="translate(63.625 0)"/>
       <use xlink:href="#DejaVuSans-15" transform="translate(95.40625 0)"/>
      </g>
     </g>
    </g>
    <g id="ytick_5">
     <g id="line2d_21">
      <path d="M 38.482813 54.998494 
L 561.6 54.998494 
" clip-path="url(#pf84163abf8)" style="fill: none; stroke-dasharray: 2.96,1.28; stroke-dashoffset: 0; stroke: #7f7f7f; stroke-opacity: 0.6; stroke-width: 0.8"/>
     </g>
     <g id="line2d_22">
      <g>
       <use xlink:href="#m43e82f159a" x="38.482813" y="54.998494" style="fill: #7f7f7f; stroke: #7f7f7f; stroke-width: 1.8"/>
      </g>
     </g>
     <g id="text_12">
      <!-- 0.3 -->
      <g style="fill: #7f7f7f" transform="translate(15.579688 58.797323) scale(0.1 -0.1)">
       <defs>
        <path id="DejaVuSans-16" d="M 2597 2516 
Q 3050 2419 3304 2112 
Q 3559 1806 3559 1356 
Q 3559 666 3084 287 
Q 2609 -91 1734 -91 
Q 1441 -91 1130 -33 
Q 819 25 488 141 
L 488 750 
Q 750 597 1062 519 
Q 1375 441 1716 441 
Q 2309 441 2620 675 
Q 2931 909 2931 1356 
Q 2931 1769 2642 2001 
Q 2353 2234 1838 2234 
L 1294 2234 
L 1294 2753 
L 1863 2753 
Q 2328 2753 2575 2939 
Q 2822 3125 2822 3475 
Q 2822 3834 2567 4026 
Q 2313 4219 1838 4219 
Q 1578 4219 1281 4162 
Q 984 4106 628 3988 
L 628 4550 
Q 988 4650 1302 4700 
Q 1616 4750 1894 4750 
Q 2613 4750 3031 4423 
Q 3450 4097 3450 3541 
Q 3450 3153 3228 2886 
Q 3006 2619 2597 2516 
z
" transform="scale(0.015625)"/>
       </defs>
       <use xlink:href="#DejaVuSans-13"/>
       <use xlink:href="#DejaVuSans-11" transform="translate(63.625 0)"/>
       <use xlink:href="#DejaVuSans-16" transform="translate(95.40625 0)"/>
      </g>
     </g>
    </g>
    <g id="ytick_6">
     <g id="line2d_23">
      <path d="M 38.482813 12.164573 
L 561.6 12.164573 
" clip-path="url(#pf84163abf8)" style="fill: none; stroke-dasharray: 2.96,1.28; stroke-dashoffset: 0; stroke: #7f7f7f; stroke-opacity: 0.6; stroke-width: 0.8"/>
     </g>
     <g id="line2d_24">
      <g>
       <use xlink:href="#m43e82f159a" x="38.482813" y="12.164573" style="fill: #7f7f7f; stroke: #7f7f7f; stroke-width: 1.8"/>
      </g>
     </g>
     <g id="text_13">
      <!-- 0.4 -->
      <g style="fill: #7f7f7f" transform="translate(15.579688 15.963401) scale(0.1 -0.1)">
       <use xlink:href="#DejaVuSans-13"/>
       <use xlink:href="#DejaVuSans-11" transform="translate(63.625 0)"/>
       <use xlink:href="#DejaVuSans-17" transform="translate(95.40625 0)"/>
      </g>
     </g>
    </g>
   </g>
   <g id="line2d_25">
    <path d="M 62.260866 183.500258 
L 62.703889 187.103629 
L 62.395488 181.90614 
L 63.112178 185.730461 
L 63.317412 180.446579 
L 64.065859 182.257549 
L 64.765405 183.535343 
L 65.141268 182.578598 
L 65.907076 182.23378 
L 66.22116 185.265139 
L 66.840165 183.687482 
L 67.227383 182.563238 
L 67.604826 183.176419 
L 68.746402 185.510748 
L 69.390955 184.611706 
L 70.126146 184.561077 
L 70.91605 182.730194 
L 71.624199 184.761614 
L 71.983546 184.438748 
L 72.381414 184.75652 
L 72.711859 182.160511 
L 73.424916 183.09643 
L 73.846996 183.298212 
L 74.21602 181.977188 
L 74.566546 183.102672 
L 75.384144 183.671843 
L 75.689335 180.829998 
L 76.29433 181.882366 
L 78.041985 185.30393 
L 78.34873 182.402966 
L 78.97961 183.56344 
L 79.300535 185.397996 
L 79.608817 183.458453 
L 79.92442 181.778414 
L 80.236158 183.770481 
L 80.576966 184.583868 
L 80.917067 183.399359 
L 81.74949 182.858229 
L 83.350369 185.366108 
L 84.736571 181.950424 
L 86.254214 184.697743 
L 86.923653 182.24341 
L 87.270174 183.149758 
L 88.874438 184.013985 
L 89.834203 180.619916 
L 90.107571 182.407749 
L 91.166861 185.417804 
L 92.102365 183.560589 
L 91.807269 185.806742 
L 92.441962 183.673811 
L 93.520268 180.795245 
L 94.728219 183.424303 
L 96.730243 184.233707 
L 97.848689 184.894594 
L 99.411119 182.273151 
L 99.770309 183.738169 
L 100.175988 183.625928 
L 100.590137 182.396114 
L 100.978929 183.112501 
L 101.484342 183.904937 
L 101.941389 183.24472 
L 102.740038 183.187268 
L 103.054085 185.520549 
L 103.355387 182.332084 
L 103.637603 184.041466 
L 103.947526 184.55874 
L 104.276562 184.078926 
L 105.113856 182.717662 
L 105.535678 183.300979 
L 106.671928 181.280792 
L 106.973235 182.884308 
L 107.805378 184.524308 
L 108.114662 181.34398 
L 108.41241 184.584127 
L 108.693172 183.363066 
L 109.05277 184.471617 
L 109.405345 183.722308 
L 110.253607 182.704529 
L 110.680317 184.180243 
L 111.513442 183.732188 
L 113.16278 183.890163 
L 114.043752 182.496647 
L 114.44745 183.906668 
L 114.81724 184.901561 
L 115.982264 182.665047 
L 116.713675 185.055208 
L 117.01315 182.056868 
L 117.693097 182.445504 
L 118.880796 183.655793 
L 119.778575 184.248963 
L 120.39037 186.563519 
L 120.604343 180.98694 
L 120.833359 184.571405 
L 121.378536 183.665662 
L 122.163512 181.912262 
L 123.559395 184.562824 
L 123.918934 182.683546 
L 124.62635 183.167557 
L 126.804739 184.277182 
L 127.175989 182.07258 
L 127.532164 183.37219 
L 127.942536 184.365398 
L 128.336118 183.681759 
L 129.710114 183.105524 
L 131.428837 183.59686 
L 131.792218 185.549746 
L 132.121198 183.375446 
L 133.388252 184.060059 
L 134.810203 180.889016 
L 135.086728 184.442221 
L 135.599459 182.697957 
L 135.973236 182.138147 
L 136.329983 183.227192 
L 136.810879 183.084825 
L 137.17045 184.894207 
L 137.520238 184.225739 
L 137.940683 183.581133 
L 138.338895 185.11413 
L 138.704337 183.654062 
L 139.114085 182.878381 
L 140.058628 185.465793 
L 140.347849 183.152049 
L 140.951314 183.940691 
L 141.788156 183.136571 
L 142.134361 185.06259 
L 142.471859 183.90603 
L 143.686456 182.283918 
L 144.022021 184.767521 
L 144.783712 183.418584 
L 145.188816 182.250942 
L 145.569114 184.520921 
L 145.914221 182.611493 
L 146.248351 182.296788 
L 146.588364 182.786992 
L 148.315585 183.593587 
L 148.714912 182.883934 
L 149.38862 185.174857 
L 150.336656 182.310504 
L 150.638635 184.306821 
L 151.299324 183.621467 
L 151.750425 182.732831 
L 152.177542 184.449759 
L 152.96256 184.056046 
L 153.338535 182.400364 
L 153.647394 185.396689 
L 153.949057 184.084096 
L 154.336707 182.786667 
L 154.656258 185.463114 
L 155.29625 182.907291 
L 156.402986 185.116247 
L 156.680226 180.981575 
L 157.366254 184.221372 
L 157.373055 212.272075 
L 157.373696 17.854506 
L 158.258144 179.178127 
L 158.40067 172.579721 
L 159.194767 177.917121 
L 159.931997 175.846721 
L 159.54088 178.655406 
L 160.108443 177.315807 
L 160.743529 180.742089 
L 161.011355 179.309882 
L 161.995458 177.007061 
L 161.495624 179.869937 
L 162.217986 178.487658 
L 162.456005 180.677855 
L 162.959292 176.896348 
L 163.191601 179.157453 
L 163.456568 177.140075 
L 163.700129 181.828832 
L 164.026396 179.31362 
L 165.288315 181.918344 
L 166.556357 180.517155 
L 167.778043 181.494536 
L 169.046082 180.781724 
L 169.45852 180.499683 
L 170.244256 179.873467 
L 170.603283 181.74313 
L 170.989003 179.32332 
L 171.337363 181.681442 
L 171.786682 182.388335 
L 172.318443 181.719095 
L 173.183365 181.581179 
L 173.61087 182.78103 
L 173.964522 180.420303 
L 174.312459 181.288534 
L 174.707064 182.548486 
L 175.064765 180.345567 
L 175.809553 183.140053 
L 176.359313 182.292701 
L 176.677312 178.211533 
L 177.38976 179.871041 
L 178.530604 183.863003 
L 180.137264 181.791303 
L 180.576222 183.028753 
L 180.936928 180.989913 
L 181.292658 184.757255 
L 182.051622 183.461381 
L 182.794953 180.649786 
L 183.160999 182.745421 
L 183.702214 182.051033 
L 184.225678 182.698079 
L 184.762835 183.324253 
L 185.511537 181.423599 
L 186.845921 183.970024 
L 187.188191 181.25505 
L 187.956847 182.945523 
L 188.32895 181.481144 
L 188.697113 184.014801 
L 189.561839 184.347492 
L 190.397532 181.004964 
L 190.766446 183.033911 
L 191.145244 181.404803 
L 191.519151 181.936976 
L 191.936932 184.757386 
L 192.32385 183.243507 
L 192.884333 183.266112 
L 193.238742 181.430866 
L 193.589834 185.008541 
L 193.956441 183.360404 
L 194.65141 181.477705 
L 195.025955 182.832392 
L 196.381157 184.718757 
L 197.141503 185.154142 
L 197.518337 184.2236 
L 197.992359 183.612645 
L 198.35371 185.525579 
L 198.711295 183.304725 
L 200.13092 184.780773 
L 200.922831 181.956487 
L 201.285874 183.84627 
L 202.173558 182.031935 
L 203.408605 184.440862 
L 204.592775 182.435682 
L 206.357152 184.003559 
L 206.897611 183.106061 
L 207.417704 183.918993 
L 207.957249 183.709407 
L 208.312687 181.806226 
L 208.665123 183.273684 
L 209.835899 186.54066 
L 210.17499 184.42171 
L 210.55674 183.077764 
L 211.40995 183.448832 
L 211.7878 184.838024 
L 212.162742 184.142332 
L 212.623472 183.0606 
L 213.100259 183.793898 
L 213.952528 184.654273 
L 214.379132 182.487282 
L 214.801324 183.530634 
L 217.487528 185.245582 
L 218.6742 181.584914 
L 219.7897 185.013251 
L 220.582646 182.873141 
L 221.040858 185.301197 
L 221.459687 184.513662 
L 222.787291 182.889168 
L 224.133254 184.464805 
L 224.529416 182.208548 
L 224.941424 184.681425 
L 225.389334 182.793076 
L 227.847068 183.817402 
L 228.579626 183.585111 
L 228.953958 185.303974 
L 230.278635 183.380993 
L 230.710602 184.093671 
L 231.141558 183.209981 
L 231.616072 182.977639 
L 231.965203 185.319767 
L 232.796546 184.323515 
L 233.165835 182.436204 
L 233.532365 183.721924 
L 233.974411 184.381694 
L 234.377999 183.707876 
L 235.19563 182.624162 
L 235.625655 183.184075 
L 236.438082 184.408173 
L 236.863685 182.34769 
L 237.29075 184.085591 
L 238.70579 183.02942 
L 240.554102 184.962231 
L 240.935178 183.710428 
L 241.518061 184.104655 
L 242.080517 183.530132 
L 242.502957 184.311331 
L 242.923331 184.976192 
L 244.150059 182.646107 
L 246.032779 182.631904 
L 248.04604 184.054498 
L 248.490325 182.257259 
L 248.916894 184.697347 
L 249.308856 185.1765 
L 250.13873 183.043343 
L 250.96856 182.834518 
L 251.453023 185.280252 
L 252.236738 181.942433 
L 252.577809 185.438728 
L 252.941165 184.19411 
L 253.275804 181.448018 
L 253.606994 181.593108 
L 253.973751 184.484077 
L 254.810692 183.849821 
L 255.262908 181.876304 
L 255.626205 184.429538 
L 257.290443 183.159892 
L 257.708549 183.56345 
L 258.195818 182.400796 
L 258.642389 185.204474 
L 259.047826 182.339077 
L 260.441007 183.95882 
L 260.809328 182.065625 
L 261.571059 182.654363 
L 262.392159 184.93277 
L 262.788284 184.52352 
L 263.192684 183.083496 
L 264.064085 183.516447 
L 264.955624 184.414751 
L 265.715479 185.61058 
L 266.101544 184.19111 
L 267.007714 184.614981 
L 269.497873 181.367625 
L 270.786053 184.231136 
L 274.247665 182.856662 
L 276.816596 184.847324 
L 277.6814 182.777808 
L 278.109454 184.142048 
L 278.563192 183.482213 
L 281.270601 182.856986 
L 281.67569 184.901675 
L 282.093096 182.9226 
L 282.621719 183.400127 
L 283.022208 182.37673 
L 283.413184 183.734893 
L 285.209483 184.061984 
L 285.62432 185.027 
L 286.813441 182.618145 
L 287.182002 183.286396 
L 287.541869 181.538944 
L 288.307039 181.990339 
L 289.544088 184.856274 
L 291.066667 182.074782 
L 292.24359 184.641548 
L 292.907055 181.284109 
L 293.263989 182.882967 
L 294.071258 184.558793 
L 294.475114 183.195111 
L 294.890918 182.227867 
L 295.269453 183.973509 
L 295.610664 181.008265 
L 296.324125 181.676475 
L 297.122158 185.496254 
L 297.483288 183.622975 
L 297.849359 181.900885 
L 298.218046 184.813355 
L 298.985053 185.498342 
L 299.70145 182.311247 
L 300.06014 184.664108 
L 300.473589 183.79474 
L 300.952071 182.784265 
L 301.409321 183.476363 
L 301.934959 183.371124 
L 302.663634 185.151499 
L 303.05032 183.847946 
L 304.409746 183.566545 
L 305.720901 181.517996 
L 306.858479 186.500596 
L 307.508573 180.972618 
L 307.829076 182.260076 
L 308.233021 185.133671 
L 309.020065 183.631397 
L 309.472282 182.493061 
L 310.798424 184.768571 
L 311.594304 181.788977 
L 312.322326 183.047353 
L 312.701279 183.078543 
L 313.567574 184.665621 
L 314.471827 183.50178 
L 315.003734 184.196483 
L 315.866157 181.223271 
L 316.216922 182.108329 
L 316.63105 184.462198 
L 317.035512 183.001745 
L 317.950543 184.440539 
L 318.395698 182.505626 
L 318.842761 184.68231 
L 319.299241 184.638727 
L 320.425723 181.311862 
L 320.796432 185.48213 
L 321.61178 183.639773 
L 322.060655 184.314538 
L 323.343448 181.937344 
L 323.755255 181.920289 
L 324.155806 185.089527 
L 324.952354 183.972298 
L 325.374316 182.899439 
L 325.823877 184.964028 
L 326.256368 183.955055 
L 327.626543 182.31998 
L 329.462019 184.209582 
L 329.934315 183.45354 
L 330.360672 184.25022 
L 330.784717 184.541347 
L 331.219002 183.884594 
L 331.967989 181.840769 
L 332.348549 182.146298 
L 333.971192 184.929094 
L 334.742956 183.71984 
L 335.136171 184.443818 
L 335.595427 184.623522 
L 336.459453 181.849415 
L 336.845867 182.989106 
L 337.251624 184.843164 
L 337.631713 183.286435 
L 338.872751 183.927977 
L 339.270106 182.573577 
L 339.66533 184.758837 
L 341.422295 182.929436 
L 342.671062 184.355639 
L 344.417008 182.142956 
L 344.825882 183.473214 
L 345.229143 183.560438 
L 345.59936 182.151956 
L 345.973343 184.320017 
L 346.366843 184.31093 
L 346.78404 181.868617 
L 347.185009 184.080904 
L 347.569544 184.331765 
L 347.59857 143.66872 
L 347.600196 230.944634 
L 348.54011 186.371401 
L 349.309272 188.282805 
L 350.062411 187.259063 
L 352.347795 184.666351 
L 353.379432 183.987684 
L 353.738676 185.948121 
L 354.50472 184.776783 
L 354.901592 186.427715 
L 355.260932 185.318829 
L 355.679252 184.625903 
L 356.075818 185.602224 
L 356.467533 185.98284 
L 356.85956 184.665435 
L 357.21904 186.588867 
L 357.574148 185.532819 
L 357.982822 185.736587 
L 358.882136 183.899898 
L 359.383734 184.15647 
L 361.404654 185.628721 
L 361.80506 183.224562 
L 362.275314 184.538246 
L 363.065669 186.851401 
L 363.428137 185.805557 
L 364.600859 184.202873 
L 365.792224 183.913655 
L 366.135551 181.698668 
L 366.476265 184.291111 
L 366.874874 183.180797 
L 367.563162 182.486026 
L 367.947529 185.680735 
L 369.360594 183.5087 
L 370.692825 184.032853 
L 371.196392 183.286352 
L 371.708383 183.985946 
L 372.083597 185.17069 
L 372.455513 183.577761 
L 373.810579 184.349094 
L 374.153103 181.946553 
L 374.492655 184.664436 
L 375.277453 185.086389 
L 375.685094 182.741977 
L 376.119284 183.782353 
L 376.670245 183.402176 
L 377.085924 184.294246 
L 377.917065 185.644576 
L 378.665728 182.504991 
L 379.021615 186.356649 
L 379.360392 186.105432 
L 379.722621 182.481334 
L 380.500408 183.293053 
L 381.440836 182.829117 
L 381.901992 184.315938 
L 382.360278 184.012209 
L 383.161847 181.118344 
L 383.499098 184.553549 
L 384.258903 183.723224 
L 385.22719 182.634421 
L 385.653999 182.990009 
L 386.655394 183.869897 
L 387.129897 182.897036 
L 387.622751 184.323059 
L 388.109259 183.550559 
L 388.671067 183.909653 
L 389.032303 185.478183 
L 389.39036 184.818022 
L 389.804412 182.106024 
L 390.193098 184.661196 
L 390.60656 183.913993 
L 391.073966 184.552521 
L 391.521761 184.49556 
L 391.969558 182.417455 
L 392.39057 182.538168 
L 393.226126 183.438336 
L 393.592706 181.78089 
L 393.956002 182.111399 
L 395.088432 186.176981 
L 395.79228 181.050891 
L 396.138612 181.962988 
L 396.937412 184.548099 
L 398.178772 181.54702 
L 399.052959 183.614457 
L 399.495066 182.821138 
L 401.326903 185.104839 
L 403.042825 182.640489 
L 404.314721 184.337119 
L 405.633779 182.740947 
L 406.093068 182.675697 
L 406.426033 185.600026 
L 406.755167 182.337682 
L 407.490794 181.557281 
L 407.875729 183.733688 
L 408.347116 183.320023 
L 409.899258 182.894639 
L 410.428458 183.254943 
L 411.164524 184.680441 
L 411.569395 183.733928 
L 412.100882 183.72445 
L 412.469325 185.25172 
L 412.834578 182.65289 
L 413.24011 181.448802 
L 413.607966 182.498619 
L 414.03968 184.687118 
L 414.440308 181.624238 
L 415.535428 185.140214 
L 415.909673 184.147773 
L 416.383408 184.084174 
L 416.73496 182.014852 
L 417.083246 183.353037 
L 417.922928 183.801998 
L 418.758182 180.600794 
L 419.483985 181.67186 
L 419.873305 185.179135 
L 420.243145 185.10863 
L 420.614314 182.397161 
L 421.524011 183.121692 
L 421.878038 181.378976 
L 422.684941 182.314792 
L 424.263683 183.026949 
L 424.97885 184.911033 
L 425.751417 185.620813 
L 426.123395 181.56879 
L 426.491029 184.529227 
L 427.335014 184.263363 
L 428.842605 182.721904 
L 429.910841 185.8711 
L 430.683328 183.381452 
L 431.168737 183.528384 
L 431.610664 183.73588 
L 432.000013 182.479553 
L 432.386564 183.819523 
L 432.802633 184.686628 
L 433.183297 183.117085 
L 434.10783 183.416309 
L 435.038764 182.469302 
L 436.8307 184.673185 
L 437.644301 182.225297 
L 438.046629 183.652085 
L 438.503005 184.536382 
L 438.918265 181.095588 
L 439.714641 182.594835 
L 440.949411 183.720693 
L 442.752933 184.251576 
L 443.088301 181.347015 
L 443.419769 181.882824 
L 443.800027 183.968504 
L 444.255871 183.607489 
L 445.17334 182.863937 
L 445.509071 185.706095 
L 446.230354 185.085102 
L 446.987192 183.556774 
L 447.368427 184.961342 
L 447.746435 180.280925 
L 448.089779 186.936491 
L 448.760866 182.050164 
L 449.93797 182.480096 
L 450.762722 183.194477 
L 451.177351 182.230169 
L 451.604309 182.754473 
L 452.023901 183.159283 
L 452.420228 181.124841 
L 452.803491 184.01587 
L 454.099447 182.405257 
L 454.419406 186.274551 
L 455.124151 182.860507 
L 455.882853 185.770254 
L 456.2606 184.450224 
L 456.701678 182.648897 
L 457.115939 184.520581 
L 458.784694 183.020132 
L 459.136558 181.386375 
L 459.485317 182.567033 
L 459.811417 185.663102 
L 460.496291 182.879281 
L 460.867315 182.408138 
L 462.179549 184.213849 
L 463.543615 183.500689 
L 463.932318 181.69661 
L 464.68395 182.940201 
L 465.467384 184.938416 
L 466.285736 183.755321 
L 466.605737 180.064254 
L 466.921615 185.467364 
L 468.396091 183.137902 
L 468.827424 183.792392 
L 470.17046 184.124603 
L 470.506076 181.09781 
L 471.20369 183.193716 
L 471.59421 184.753923 
L 472.414485 183.960889 
L 472.789824 185.140871 
L 473.162194 183.352659 
L 473.564217 183.178242 
L 473.975019 184.329124 
L 474.319668 181.603903 
L 474.660367 182.177525 
L 475.49251 184.043853 
L 475.913495 183.344671 
L 476.855133 182.885183 
L 477.538323 185.881903 
L 477.896154 181.267315 
L 478.239515 184.227336 
L 478.635109 185.395083 
L 479.012883 183.938006 
L 480.285612 183.525804 
L 481.150946 181.524801 
L 481.510379 182.419279 
L 481.943458 183.437187 
L 482.335792 183.022782 
L 482.71911 181.973799 
L 483.94305 185.06869 
L 484.343314 182.345007 
L 485.179961 182.889215 
L 485.622288 182.486694 
L 486.447601 182.154819 
L 486.875953 183.597638 
L 487.290967 182.486641 
L 487.736914 183.631914 
L 488.592186 184.185087 
L 489.378265 182.769791 
L 489.752265 185.804918 
L 490.116703 182.245771 
L 490.500418 183.767164 
L 491.412436 184.289926 
L 491.829401 185.012046 
L 493.023726 182.312826 
L 493.432714 183.348368 
L 493.840794 182.391651 
L 494.24551 182.169051 
L 495.962998 185.480464 
L 496.309803 183.472423 
L 496.784485 184.358662 
L 497.188559 185.367415 
L 497.562963 184.116425 
L 498.815164 182.611969 
L 499.200853 182.211933 
L 499.60263 182.653231 
L 500.333369 181.587788 
L 500.711875 184.07295 
L 501.568255 182.167605 
L 501.99201 183.292379 
L 502.39798 183.433078 
L 502.758399 186.511895 
L 503.083241 184.141623 
L 503.434555 182.372127 
L 504.183438 183.626405 
L 504.96796 183.270123 
L 506.212019 184.757052 
L 507.038601 182.353645 
L 507.436671 182.93559 
L 507.872056 184.793586 
L 508.281602 183.34848 
L 510.434824 182.490882 
L 511.813778 183.924925 
L 513.548857 182.984409 
L 515.213731 185.2127 
L 515.627258 184.7234 
L 516.060319 182.41811 
L 516.853794 183.280956 
L 517.246617 184.421642 
L 517.637933 183.685166 
L 518.473803 182.199657 
L 518.883692 182.900139 
L 519.296532 184.142278 
L 519.674984 183.754238 
L 521.026005 182.240402 
L 521.446365 183.717841 
L 521.79816 181.269679 
L 522.14595 184.137571 
L 522.934458 185.273441 
L 523.32024 184.697859 
L 524.899551 181.325734 
L 525.688987 184.163571 
L 526.097658 183.484231 
L 526.487736 182.273183 
L 526.8515 183.182556 
L 527.256469 184.089831 
L 527.698504 182.942897 
L 528.228812 183.116436 
L 528.578549 185.309773 
L 528.924702 182.276195 
L 529.302001 183.510169 
L 529.697166 182.577811 
L 530.017216 186.508041 
L 530.699648 182.617552 
L 531.477748 183.276963 
L 531.883541 182.516724 
L 532.287168 183.089069 
L 532.758121 183.992703 
L 533.232127 183.469118 
L 533.582512 181.466485 
L 533.929478 183.633594 
L 536.158642 184.322868 
L 536.600058 182.918974 
L 537.072692 183.862691 
L 537.511097 184.121104 
L 537.821946 183.060371 
L 537.821946 183.060371 
" clip-path="url(#pf84163abf8)" style="fill: none; stroke: #e41a1c; stroke-width: 2; stroke-linecap: square"/>
   </g>
   <g id="line2d_26">
    <path d="M 62.260866 183.500258 
L 62.703889 184.566529 
L 62.395488 183.074171 
L 63.112178 184.357418 
L 63.317412 182.82473 
L 64.065859 183.042328 
L 65.512775 182.80705 
L 67.227383 182.602681 
L 75.384144 183.872112 
L 76.29433 182.730753 
L 76.615718 182.84689 
L 78.041985 183.778929 
L 78.34873 182.937585 
L 78.97961 183.258069 
L 79.300535 183.945357 
L 79.608817 183.468101 
L 79.92442 182.844271 
L 80.576966 183.706624 
L 82.629383 183.206546 
L 84.395474 184.439658 
L 85.457097 183.750122 
L 88.874438 183.848876 
L 89.834203 182.318834 
L 90.107571 182.634136 
L 91.807269 184.268931 
L 93.520268 182.603933 
L 93.797625 183.216099 
L 94.414693 182.473145 
L 96.238417 183.060197 
L 99.043033 184.068515 
L 100.590137 183.429135 
L 104.276562 184.076908 
L 106.671928 182.454923 
L 107.805378 183.389406 
L 108.114662 182.348614 
L 108.693172 182.948431 
L 109.829481 182.965939 
L 111.087186 183.247387 
L 116.3528 183.7699 
L 117.322729 183.56122 
L 118.451833 183.203466 
L 119.778575 183.677555 
L 120.604343 182.70955 
L 120.39037 184.27959 
L 120.833359 183.679833 
L 122.163512 182.707475 
L 123.559395 183.615151 
L 124.62635 183.199441 
L 134.514682 183.411407 
L 135.353442 182.509827 
L 135.599459 182.745421 
L 136.810879 182.500843 
L 138.338895 183.556634 
L 139.772313 183.085739 
L 140.658035 183.99143 
L 140.951314 183.77693 
L 143.686456 183.152741 
L 144.022021 183.926121 
L 144.783712 183.584187 
L 146.248351 182.979938 
L 157.366254 184.064879 
L 157.373055 190.904365 
L 157.373696 143.438243 
L 158.258144 180.908056 
L 159.374432 176.83058 
L 159.54088 177.174186 
L 159.740462 176.497033 
L 161.261449 173.796211 
L 161.755537 172.919678 
L 163.456568 169.045695 
L 163.700129 170.028537 
L 164.325081 168.71487 
L 167.351978 166.092377 
L 170.603283 163.057389 
L 170.989003 161.838508 
L 171.786682 162.157421 
L 175.416898 159.135851 
L 175.809553 159.584682 
L 176.359313 159.131702 
L 177.38976 157.055272 
L 178.965925 157.254469 
L 180.137264 156.171079 
L 181.292658 156.646117 
L 182.794953 154.627782 
L 183.702214 154.548579 
L 186.845921 154.379891 
L 188.32895 152.949677 
L 189.561839 153.946472 
L 191.519151 152.035647 
L 191.936932 152.926841 
L 192.32385 152.515382 
L 197.992359 152.440332 
L 199.215309 153.191596 
L 209.067293 152.55735 
L 212.162742 153.490488 
L 213.100259 153.380528 
L 214.801324 153.516848 
L 218.279475 153.916819 
L 219.434573 153.423104 
L 221.040858 154.593504 
L 228.579626 154.499961 
L 228.953958 155.187958 
L 229.803432 154.717799 
L 239.662048 154.91093 
L 243.333753 155.635669 
L 247.034713 154.496864 
L 251.892622 155.685201 
L 252.236738 154.935514 
L 252.577809 156.052773 
L 256.419817 154.73574 
L 257.708549 154.943847 
L 258.195818 154.441756 
L 258.642389 155.427046 
L 259.440486 154.911529 
L 261.571059 154.206736 
L 263.654149 155.017386 
L 264.955624 155.320554 
L 267.007714 156.457099 
L 275.152092 154.304382 
L 275.570267 155.148966 
L 276.389456 154.695768 
L 276.816596 155.268411 
L 277.210762 154.695217 
L 279.574798 154.824262 
L 287.898355 154.708191 
L 289.105154 154.742693 
L 290.717744 155.449981 
L 291.066667 154.695794 
L 291.828778 155.2542 
L 292.24359 155.683798 
L 292.577361 154.624028 
L 293.661918 154.697758 
L 294.071258 155.158389 
L 294.475114 154.775533 
L 296.324125 153.362471 
L 297.122158 154.714883 
L 297.483288 154.273028 
L 297.849359 153.618639 
L 298.625745 154.254494 
L 298.985053 154.990993 
L 299.340755 154.594657 
L 299.70145 154.079854 
L 300.473589 154.659151 
L 301.934959 154.390883 
L 303.523907 155.183588 
L 305.30262 155.079267 
L 305.720901 154.321222 
L 306.112659 155.228051 
L 306.528233 154.970336 
L 306.858479 156.094353 
L 307.18469 155.387215 
L 307.508573 154.435761 
L 307.829076 154.592795 
L 308.233021 155.555811 
L 309.020065 155.1525 
L 310.357674 154.785661 
L 310.798424 155.523622 
L 311.240412 155.234414 
L 312.322326 154.916263 
L 314.471827 155.302733 
L 315.489563 155.098372 
L 316.216922 154.423131 
L 317.460169 154.77311 
L 319.299241 155.506526 
L 321.154932 154.993536 
L 323.343448 154.316413 
L 323.755255 154.048616 
L 324.952354 154.979185 
L 325.374316 154.616412 
L 325.823877 155.383495 
L 329.934315 154.759296 
L 331.594564 154.766158 
L 332.750663 154.515272 
L 335.595427 155.723899 
L 336.845867 154.798668 
L 338.02689 155.099565 
L 339.270106 154.692666 
L 340.081061 155.237447 
L 341.422295 154.736836 
L 343.123894 155.363637 
L 347.589856 154.360513 
L 347.59857 145.156117 
L 347.600196 166.480982 
L 348.54011 156.739208 
L 351.268005 159.891136 
L 356.075818 162.881484 
L 358.402472 164.252502 
L 360.633398 165.250638 
L 365.792224 167.71595 
L 366.135551 166.928441 
L 366.874874 167.333288 
L 367.947529 168.416964 
L 369.360594 168.021625 
L 379.021615 171.010493 
L 379.360392 171.302652 
L 379.722621 170.278775 
L 380.500408 170.698819 
L 385.653999 169.944721 
L 389.39036 171.107832 
L 389.804412 170.221719 
L 390.193098 171.027406 
L 393.956002 170.064381 
L 395.088432 171.692551 
L 396.138612 169.980975 
L 396.937412 170.926191 
L 397.331221 170.350167 
L 399.495066 169.67283 
L 402.664575 170.833639 
L 403.851857 170.905367 
L 405.216486 170.524814 
L 410.797876 170.157029 
L 412.834578 170.046737 
L 413.607966 169.533983 
L 414.03968 170.271342 
L 414.440308 169.224965 
L 417.922928 170.210812 
L 419.483985 168.819068 
L 419.873305 169.929342 
L 421.01447 169.62544 
L 424.62296 169.017807 
L 424.97885 169.214225 
L 426.123395 168.182426 
L 427.335014 169.21106 
L 428.842605 168.73242 
L 429.910841 170.083989 
L 430.25851 169.703351 
L 432.386564 169.60357 
L 433.65814 169.62823 
L 438.503005 169.543577 
L 438.918265 168.304637 
L 439.714641 168.623694 
L 441.855931 168.899744 
L 442.752933 169.311728 
L 443.419769 168.235784 
L 443.800027 168.811783 
L 445.840746 168.965248 
L 447.368427 169.703225 
L 447.746435 168.081463 
L 448.089779 170.171631 
L 448.401718 170.197727 
L 448.760866 169.070357 
L 449.524173 169.813542 
L 451.177351 168.899011 
L 459.485317 168.914201 
L 459.811417 169.946568 
L 460.496291 169.189695 
L 461.723201 169.162103 
L 463.543615 169.471678 
L 464.68395 168.753786 
L 466.285736 169.139316 
L 466.605737 167.803878 
L 466.921615 169.363843 
L 467.239752 169.365073 
L 470.506076 168.568977 
L 471.20369 168.748978 
L 472.789824 169.756354 
L 474.660367 168.665742 
L 475.913495 169.061274 
L 477.198659 169.694266 
L 477.538323 170.115728 
L 477.896154 168.676661 
L 478.239515 169.498052 
L 479.459996 169.558408 
L 480.774878 169.438046 
L 481.943458 169.094161 
L 483.538471 169.314249 
L 484.749471 169.614012 
L 486.447601 168.548019 
L 488.592186 169.173769 
L 489.378265 168.63341 
L 489.752265 169.715117 
L 490.500418 169.079446 
L 493.840794 168.771842 
L 495.584396 168.705986 
L 497.188559 170.000042 
L 500.333369 168.518909 
L 501.123059 169.044208 
L 502.39798 168.743762 
L 502.758399 169.922482 
L 503.434555 168.840581 
L 505.393677 169.422841 
L 506.63675 169.515406 
L 507.436671 169.176493 
L 508.703588 169.408295 
L 509.984307 169.226665 
L 511.412079 168.81112 
L 512.64054 169.390918 
L 513.99337 169.113764 
L 515.627258 170.174454 
L 516.853794 169.615157 
L 518.052561 169.629855 
L 519.296532 169.705218 
L 528.228812 168.874285 
L 528.578549 169.657916 
L 529.302001 169.051202 
L 529.697166 168.677134 
L 530.017216 170.01438 
L 530.699648 169.021358 
L 532.758121 169.177251 
L 535.706009 169.223811 
L 537.511097 169.538766 
L 537.821946 169.228018 
L 537.821946 169.228018 
" clip-path="url(#pf84163abf8)" style="fill: none; stroke: #377eb8; stroke-width: 2; stroke-linecap: square"/>
   </g>
   <g id="patch_3">
    <path d="M 38.482813 241.599141 
L 38.482813 7.2 
" style="fill: none; stroke: #7f7f7f; stroke-width: 1.8; stroke-linejoin: miter; stroke-linecap: square"/>
   </g>
   <g id="patch_4">
    <path d="M 38.482813 241.599141 
L 561.6 241.599141 
" style="fill: none; stroke: #7f7f7f; stroke-width: 1.8; stroke-linejoin: miter; stroke-linecap: square"/>
   </g>
   <g id="legend_1">
    <g id="line2d_27">
     <path d="M 499.584375 20.298438 
L 509.584375 20.298438 
L 519.584375 20.298438 
" style="fill: none; stroke: #e41a1c; stroke-width: 2; stroke-linecap: square"/>
    </g>
    <g id="text_14">
     <!-- err 2 -->
     <g style="fill: #7f7f7f" transform="translate(527.584375 23.798438) scale(0.1 -0.1)">
      <defs>
       <path id="DejaVuSans-55" d="M 2631 2963 
Q 2534 3019 2420 3045 
Q 2306 3072 2169 3072 
Q 1681 3072 1420 2755 
Q 1159 2438 1159 1844 
L 1159 0 
L 581 0 
L 581 3500 
L 1159 3500 
L 1159 2956 
Q 1341 3275 1631 3429 
Q 1922 3584 2338 3584 
Q 2397 3584 2469 3576 
Q 2541 3569 2628 3553 
L 2631 2963 
z
" transform="scale(0.015625)"/>
      </defs>
      <use xlink:href="#DejaVuSans-48"/>
      <use xlink:href="#DejaVuSans-55" transform="translate(61.53125 0)"/>
      <use xlink:href="#DejaVuSans-55" transform="translate(100.890625 0)"/>
      <use xlink:href="#DejaVuSans-3" transform="translate(142 0)"/>
      <use xlink:href="#DejaVuSans-15" transform="translate(173.78125 0)"/>
     </g>
    </g>
    <g id="line2d_28">
     <path d="M 499.584375 35.299219 
L 509.584375 35.299219 
L 519.584375 35.299219 
" style="fill: none; stroke: #377eb8; stroke-width: 2; stroke-linecap: square"/>
    </g>
    <g id="text_15">
     <!-- pid 2 -->
     <g style="fill: #7f7f7f" transform="translate(527.584375 38.799219) scale(0.1 -0.1)">
      <defs>
       <path id="DejaVuSans-53" d="M 1159 525 
L 1159 -1331 
L 581 -1331 
L 581 3500 
L 1159 3500 
L 1159 2969 
Q 1341 3281 1617 3432 
Q 1894 3584 2278 3584 
Q 2916 3584 3314 3078 
Q 3713 2572 3713 1747 
Q 3713 922 3314 415 
Q 2916 -91 2278 -91 
Q 1894 -91 1617 61 
Q 1341 213 1159 525 
z
M 3116 1747 
Q 3116 2381 2855 2742 
Q 2594 3103 2138 3103 
Q 1681 3103 1420 2742 
Q 1159 2381 1159 1747 
Q 1159 1113 1420 752 
Q 1681 391 2138 391 
Q 2594 391 2855 752 
Q 3116 1113 3116 1747 
z
" transform="scale(0.015625)"/>
       <path id="DejaVuSans-47" d="M 2906 2969 
L 2906 4863 
L 3481 4863 
L 3481 0 
L 2906 0 
L 2906 525 
Q 2725 213 2448 61 
Q 2172 -91 1784 -91 
Q 1150 -91 751 415 
Q 353 922 353 1747 
Q 353 2572 751 3078 
Q 1150 3584 1784 3584 
Q 2172 3584 2448 3432 
Q 2725 3281 2906 2969 
z
M 947 1747 
Q 947 1113 1208 752 
Q 1469 391 1925 391 
Q 2381 391 2643 752 
Q 2906 1113 2906 1747 
Q 2906 2381 2643 2742 
Q 2381 3103 1925 3103 
Q 1469 3103 1208 2742 
Q 947 2381 947 1747 
z
" transform="scale(0.015625)"/>
      </defs>
      <use xlink:href="#DejaVuSans-53"/>
      <use xlink:href="#DejaVuSans-4c" transform="translate(63.484375 0)"/>
      <use xlink:href="#DejaVuSans-47" transform="translate(91.265625 0)"/>
      <use xlink:href="#DejaVuSans-3" transform="translate(154.75 0)"/>
      <use xlink:href="#DejaVuSans-15" transform="translate(186.53125 0)"/>
     </g>
    </g>
   </g>
  </g>
 </g>
 <defs>
  <clipPath id="pf84163abf8">
   <rect x="38.482813" y="7.2" width="523.117187" height="234.399141"/>
  </clipPath>
 </defs>
</svg>
