<?xml version="1.0" encoding="utf-8" standalone="no"?>
<!DOCTYPE svg PUBLIC "-//W3C//DTD SVG 1.1//EN"
  "http://www.w3.org/Graphics/SVG/1.1/DTD/svg11.dtd">
<svg xmlns:xlink="http://www.w3.org/1999/xlink" width="568.8pt" height="280.8pt" viewBox="0 0 568.8 280.8" xmlns="http://www.w3.org/2000/svg" version="1.1">
 <metadata>
  <rdf:RDF xmlns:dc="http://purl.org/dc/elements/1.1/" xmlns:cc="http://creativecommons.org/ns#" xmlns:rdf="http://www.w3.org/1999/02/22-rdf-syntax-ns#">
   <cc:Work>
    <dc:type rdf:resource="http://purl.org/dc/dcmitype/StillImage"/>
    <dc:date>2026-05-30T07:10:45.915267</dc:date>
    <dc:format>image/svg+xml</dc:format>
    <dc:creator>
     <cc:Agent>
      <dc:title>Matplotlib v3.10.9, https://matplotlib.org/</dc:title>
     </cc:Agent>
    </dc:creator>
   </cc:Work>
  </rdf:RDF>
 </metadata>
 <defs>
  <style type="text/css">*{stroke-linejoin: round; stroke-linecap: butt}</style>
 </defs>
 <g id="figure_1">
  <g id="patch_1">
   <path d="M 0 280.8 
L 568.8 280.8 
L 568.8 0 
L 0 0 
L 0 280.8 
z
" style="fill: none"/>
  </g>
  <g id="axes_1">
   <g id="patch_2">
    <path d="M 44.845313 242.275937 
L 561.6 242.275937 
L 561.6 7.2 
L 44.845313 7.2 
L 44.845313 242.275937 
z
" style="fill: none"/>
   </g>
   <g id="matplotlib.axis_1">
    <g id="xtick_1">
     <g id="line2d_1">
      <path d="M 68.334162 242.275937 
L 68.334162 7.2 
" clip-path="url(#p65cdc5cf33)" style="fill: none; stroke-dasharray: 2.96,1.28; stroke-dashoffset: 0; stroke: #7f7f7f; stroke-opacity: 0.6; stroke-width: 0.8"/>
     </g>
     <g id="line2d_2">
      <defs>
       <path id="m4b48522efe" d="M 0 0 
L 0 3.5 
" style="stroke: #7f7f7f; stroke-width: 1.8"/>
      </defs>
      <g>
       <use xlink:href="#m4b48522efe" x="68.334162" y="242.275937" style="fill: #7f7f7f; stroke: #7f7f7f; stroke-width: 1.8"/>
      </g>
     </g>
     <g id="text_1">
      <!-- 0 -->
      <g style="fill: #7f7f7f" transform="translate(65.152912 256.874375) scale(0.1 -0.1)">
       <defs>
        <path id="DejaVuSans-30" d="M 2034 4250 
Q 1547 4250 1301 3770 
Q 1056 3291 1056 2328 
Q 1056 1369 1301 889 
Q 1547 409 2034 409 
Q 2525 409 2770 889 
Q 3016 1369 3016 2328 
Q 3016 3291 2770 3770 
Q 2525 4250 2034 4250 
z
M 2034 4750 
Q 2819 4750 3233 4129 
Q 3647 3509 3647 2328 
Q 3647 1150 3233 529 
Q 2819 -91 2034 -91 
Q 1250 -91 836 529 
Q 422 1150 422 2328 
Q 422 3509 836 4129 
Q 1250 4750 2034 4750 
z
" transform="scale(0.015625)"/>
       </defs>
       <use xlink:href="#DejaVuSans-30"/>
      </g>
     </g>
    </g>
    <g id="xtick_2">
     <g id="line2d_3">
      <path d="M 162.28956 242.275937 
L 162.28956 7.2 
" clip-path="url(#p65cdc5cf33)" style="fill: none; stroke-dasharray: 2.96,1.28; stroke-dashoffset: 0; stroke: #7f7f7f; stroke-opacity: 0.6; stroke-width: 0.8"/>
     </g>
     <g id="line2d_4">
      <g>
       <use xlink:href="#m4b48522efe" x="162.28956" y="242.275937" style="fill: #7f7f7f; stroke: #7f7f7f; stroke-width: 1.8"/>
      </g>
     </g>
     <g id="text_2">
      <!-- 20 -->
      <g style="fill: #7f7f7f" transform="translate(155.92706 256.874375) scale(0.1 -0.1)">
       <defs>
        <path id="DejaVuSans-32" d="M 1228 531 
L 3431 531 
L 3431 0 
L 469 0 
L 469 531 
Q 828 903 1448 1529 
Q 2069 2156 2228 2338 
Q 2531 2678 2651 2914 
Q 2772 3150 2772 3378 
Q 2772 3750 2511 3984 
Q 2250 4219 1831 4219 
Q 1534 4219 1204 4116 
Q 875 4013 500 3803 
L 500 4441 
Q 881 4594 1212 4672 
Q 1544 4750 1819 4750 
Q 2544 4750 2975 4387 
Q 3406 4025 3406 3419 
Q 3406 3131 3298 2873 
Q 3191 2616 2906 2266 
Q 2828 2175 2409 1742 
Q 1991 1309 1228 531 
z
" transform="scale(0.015625)"/>
       </defs>
       <use xlink:href="#DejaVuSans-32"/>
       <use xlink:href="#DejaVuSans-30" transform="translate(63.623047 0)"/>
      </g>
     </g>
    </g>
    <g id="xtick_3">
     <g id="line2d_5">
      <path d="M 256.244957 242.275937 
L 256.244957 7.2 
" clip-path="url(#p65cdc5cf33)" style="fill: none; stroke-dasharray: 2.96,1.28; stroke-dashoffset: 0; stroke: #7f7f7f; stroke-opacity: 0.6; stroke-width: 0.8"/>
     </g>
     <g id="line2d_6">
      <g>
       <use xlink:href="#m4b48522efe" x="256.244957" y="242.275937" style="fill: #7f7f7f; stroke: #7f7f7f; stroke-width: 1.8"/>
      </g>
     </g>
     <g id="text_3">
      <!-- 40 -->
      <g style="fill: #7f7f7f" transform="translate(249.882457 256.874375) scale(0.1 -0.1)">
       <defs>
        <path id="DejaVuSans-34" d="M 2419 4116 
L 825 1625 
L 2419 1625 
L 2419 4116 
z
M 2253 4666 
L 3047 4666 
L 3047 1625 
L 3713 1625 
L 3713 1100 
L 3047 1100 
L 3047 0 
L 2419 0 
L 2419 1100 
L 313 1100 
L 313 1709 
L 2253 4666 
z
" transform="scale(0.015625)"/>
       </defs>
       <use xlink:href="#DejaVuSans-34"/>
       <use xlink:href="#DejaVuSans-30" transform="translate(63.623047 0)"/>
      </g>
     </g>
    </g>
    <g id="xtick_4">
     <g id="line2d_7">
      <path d="M 350.200355 242.275937 
L 350.200355 7.2 
" clip-path="url(#p65cdc5cf33)" style="fill: none; stroke-dasharray: 2.96,1.28; stroke-dashoffset: 0; stroke: #7f7f7f; stroke-opacity: 0.6; stroke-width: 0.8"/>
     </g>
     <g id="line2d_8">
      <g>
       <use xlink:href="#m4b48522efe" x="350.200355" y="242.275937" style="fill: #7f7f7f; stroke: #7f7f7f; stroke-width: 1.8"/>
      </g>
     </g>
     <g id="text_4">
      <!-- 60 -->
      <g style="fill: #7f7f7f" transform="translate(343.837855 256.874375) scale(0.1 -0.1)">
       <defs>
        <path id="DejaVuSans-36" d="M 2113 2584 
Q 1688 2584 1439 2293 
Q 1191 2003 1191 1497 
Q 1191 994 1439 701 
Q 1688 409 2113 409 
Q 2538 409 2786 701 
Q 3034 994 3034 1497 
Q 3034 2003 2786 2293 
Q 2538 2584 2113 2584 
z
M 3366 4563 
L 3366 3988 
Q 3128 4100 2886 4159 
Q 2644 4219 2406 4219 
Q 1781 4219 1451 3797 
Q 1122 3375 1075 2522 
Q 1259 2794 1537 2939 
Q 1816 3084 2150 3084 
Q 2853 3084 3261 2657 
Q 3669 2231 3669 1497 
Q 3669 778 3244 343 
Q 2819 -91 2113 -91 
Q 1303 -91 875 529 
Q 447 1150 447 2328 
Q 447 3434 972 4092 
Q 1497 4750 2381 4750 
Q 2619 4750 2861 4703 
Q 3103 4656 3366 4563 
z
" transform="scale(0.015625)"/>
       </defs>
       <use xlink:href="#DejaVuSans-36"/>
       <use xlink:href="#DejaVuSans-30" transform="translate(63.623047 0)"/>
      </g>
     </g>
    </g>
    <g id="xtick_5">
     <g id="line2d_9">
      <path d="M 444.155753 242.275937 
L 444.155753 7.2 
" clip-path="url(#p65cdc5cf33)" style="fill: none; stroke-dasharray: 2.96,1.28; stroke-dashoffset: 0; stroke: #7f7f7f; stroke-opacity: 0.6; stroke-width: 0.8"/>
     </g>
     <g id="line2d_10">
      <g>
       <use xlink:href="#m4b48522efe" x="444.155753" y="242.275937" style="fill: #7f7f7f; stroke: #7f7f7f; stroke-width: 1.8"/>
      </g>
     </g>
     <g id="text_5">
      <!-- 80 -->
      <g style="fill: #7f7f7f" transform="translate(437.793253 256.874375) scale(0.1 -0.1)">
       <defs>
        <path id="DejaVuSans-38" d="M 2034 2216 
Q 1584 2216 1326 1975 
Q 1069 1734 1069 1313 
Q 1069 891 1326 650 
Q 1584 409 2034 409 
Q 2484 409 2743 651 
Q 3003 894 3003 1313 
Q 3003 1734 2745 1975 
Q 2488 2216 2034 2216 
z
M 1403 2484 
Q 997 2584 770 2862 
Q 544 3141 544 3541 
Q 544 4100 942 4425 
Q 1341 4750 2034 4750 
Q 2731 4750 3128 4425 
Q 3525 4100 3525 3541 
Q 3525 3141 3298 2862 
Q 3072 2584 2669 2484 
Q 3125 2378 3379 2068 
Q 3634 1759 3634 1313 
Q 3634 634 3220 271 
Q 2806 -91 2034 -91 
Q 1263 -91 848 271 
Q 434 634 434 1313 
Q 434 1759 690 2068 
Q 947 2378 1403 2484 
z
M 1172 3481 
Q 1172 3119 1398 2916 
Q 1625 2713 2034 2713 
Q 2441 2713 2670 2916 
Q 2900 3119 2900 3481 
Q 2900 3844 2670 4047 
Q 2441 4250 2034 4250 
Q 1625 4250 1398 4047 
Q 1172 3844 1172 3481 
z
" transform="scale(0.015625)"/>
       </defs>
       <use xlink:href="#DejaVuSans-38"/>
       <use xlink:href="#DejaVuSans-30" transform="translate(63.623047 0)"/>
      </g>
     </g>
    </g>
    <g id="xtick_6">
     <g id="line2d_11">
      <path d="M 538.111151 242.275937 
L 538.111151 7.2 
" clip-path="url(#p65cdc5cf33)" style="fill: none; stroke-dasharray: 2.96,1.28; stroke-dashoffset: 0; stroke: #7f7f7f; stroke-opacity: 0.6; stroke-width: 0.8"/>
     </g>
     <g id="line2d_12">
      <g>
       <use xlink:href="#m4b48522efe" x="538.111151" y="242.275937" style="fill: #7f7f7f; stroke: #7f7f7f; stroke-width: 1.8"/>
      </g>
     </g>
     <g id="text_6">
      <!-- 100 -->
      <g style="fill: #7f7f7f" transform="translate(528.567401 256.874375) scale(0.1 -0.1)">
       <defs>
        <path id="DejaVuSans-31" d="M 794 531 
L 1825 531 
L 1825 4091 
L 703 3866 
L 703 4441 
L 1819 4666 
L 2450 4666 
L 2450 531 
L 3481 531 
L 3481 0 
L 794 0 
L 794 531 
z
" transform="scale(0.015625)"/>
       </defs>
       <use xlink:href="#DejaVuSans-31"/>
       <use xlink:href="#DejaVuSans-30" transform="translate(63.623047 0)"/>
       <use xlink:href="#DejaVuSans-30" transform="translate(127.246094 0)"/>
      </g>
     </g>
    </g>
    <g id="text_7">
     <!-- time [s] -->
     <g style="fill: #7f7f7f" transform="translate(281.892109 271.312344) scale(0.11 -0.11)">
      <defs>
       <path id="DejaVuSans-74" d="M 1172 4494 
L 1172 3500 
L 2356 3500 
L 2356 3053 
L 1172 3053 
L 1172 1153 
Q 1172 725 1289 603 
Q 1406 481 1766 481 
L 2356 481 
L 2356 0 
L 1766 0 
Q 1100 0 847 248 
Q 594 497 594 1153 
L 594 3053 
L 172 3053 
L 172 3500 
L 594 3500 
L 594 4494 
L 1172 4494 
z
" transform="scale(0.015625)"/>
       <path id="DejaVuSans-69" d="M 603 3500 
L 1178 3500 
L 1178 0 
L 603 0 
L 603 3500 
z
M 603 4863 
L 1178 4863 
L 1178 4134 
L 603 4134 
L 603 4863 
z
" transform="scale(0.015625)"/>
       <path id="DejaVuSans-6d" d="M 3328 2828 
Q 3544 3216 3844 3400 
Q 4144 3584 4550 3584 
Q 5097 3584 5394 3201 
Q 5691 2819 5691 2113 
L 5691 0 
L 5113 0 
L 5113 2094 
Q 5113 2597 4934 2840 
Q 4756 3084 4391 3084 
Q 3944 3084 3684 2787 
Q 3425 2491 3425 1978 
L 3425 0 
L 2847 0 
L 2847 2094 
Q 2847 2600 2669 2842 
Q 2491 3084 2119 3084 
Q 1678 3084 1418 2786 
Q 1159 2488 1159 1978 
L 1159 0 
L 581 0 
L 581 3500 
L 1159 3500 
L 1159 2956 
Q 1356 3278 1631 3431 
Q 1906 3584 2284 3584 
Q 2666 3584 2933 3390 
Q 3200 3197 3328 2828 
z
" transform="scale(0.015625)"/>
       <path id="DejaVuSans-65" d="M 3597 1894 
L 3597 1613 
L 953 1613 
Q 991 1019 1311 708 
Q 1631 397 2203 397 
Q 2534 397 2845 478 
Q 3156 559 3463 722 
L 3463 178 
Q 3153 47 2828 -22 
Q 2503 -91 2169 -91 
Q 1331 -91 842 396 
Q 353 884 353 1716 
Q 353 2575 817 3079 
Q 1281 3584 2069 3584 
Q 2775 3584 3186 3129 
Q 3597 2675 3597 1894 
z
M 3022 2063 
Q 3016 2534 2758 2815 
Q 2500 3097 2075 3097 
Q 1594 3097 1305 2825 
Q 1016 2553 972 2059 
L 3022 2063 
z
" transform="scale(0.015625)"/>
       <path id="DejaVuSans-20" transform="scale(0.015625)"/>
       <path id="DejaVuSans-5b" d="M 550 4863 
L 1875 4863 
L 1875 4416 
L 1125 4416 
L 1125 -397 
L 1875 -397 
L 1875 -844 
L 550 -844 
L 550 4863 
z
" transform="scale(0.015625)"/>
       <path id="DejaVuSans-73" d="M 2834 3397 
L 2834 2853 
Q 2591 2978 2328 3040 
Q 2066 3103 1784 3103 
Q 1356 3103 1142 2972 
Q 928 2841 928 2578 
Q 928 2378 1081 2264 
Q 1234 2150 1697 2047 
L 1894 2003 
Q 2506 1872 2764 1633 
Q 3022 1394 3022 966 
Q 3022 478 2636 193 
Q 2250 -91 1575 -91 
Q 1294 -91 989 -36 
Q 684 19 347 128 
L 347 722 
Q 666 556 975 473 
Q 1284 391 1588 391 
Q 1994 391 2212 530 
Q 2431 669 2431 922 
Q 2431 1156 2273 1281 
Q 2116 1406 1581 1522 
L 1381 1569 
Q 847 1681 609 1914 
Q 372 2147 372 2553 
Q 372 3047 722 3315 
Q 1072 3584 1716 3584 
Q 2034 3584 2315 3537 
Q 2597 3491 2834 3397 
z
" transform="scale(0.015625)"/>
       <path id="DejaVuSans-5d" d="M 1947 4863 
L 1947 -844 
L 622 -844 
L 622 -397 
L 1369 -397 
L 1369 4416 
L 622 4416 
L 622 4863 
L 1947 4863 
z
" transform="scale(0.015625)"/>
      </defs>
      <use xlink:href="#DejaVuSans-74"/>
      <use xlink:href="#DejaVuSans-69" transform="translate(39.208984 0)"/>
      <use xlink:href="#DejaVuSans-6d" transform="translate(66.992188 0)"/>
      <use xlink:href="#DejaVuSans-65" transform="translate(164.404297 0)"/>
      <use xlink:href="#DejaVuSans-20" transform="translate(225.927734 0)"/>
      <use xlink:href="#DejaVuSans-5b" transform="translate(257.714844 0)"/>
      <use xlink:href="#DejaVuSans-73" transform="translate(296.728516 0)"/>
      <use xlink:href="#DejaVuSans-5d" transform="translate(348.828125 0)"/>
     </g>
    </g>
   </g>
   <g id="matplotlib.axis_2">
    <g id="ytick_1">
     <g id="line2d_13">
      <path d="M 44.845313 218.196927 
L 561.6 218.196927 
" clip-path="url(#p65cdc5cf33)" style="fill: none; stroke-dasharray: 2.96,1.28; stroke-dashoffset: 0; stroke: #7f7f7f; stroke-opacity: 0.6; stroke-width: 0.8"/>
     </g>
     <g id="line2d_14">
      <defs>
       <path id="m8266504750" d="M 0 0 
L -3.5 0 
" style="stroke: #7f7f7f; stroke-width: 1.8"/>
      </defs>
      <g>
       <use xlink:href="#m8266504750" x="44.845313" y="218.196927" style="fill: #7f7f7f; stroke: #7f7f7f; stroke-width: 1.8"/>
      </g>
     </g>
     <g id="text_8">
      <!-- −0.15 -->
      <g style="fill: #7f7f7f" transform="translate(7.2 221.996146) scale(0.1 -0.1)">
       <defs>
        <path id="DejaVuSans-2212" d="M 678 2272 
L 4684 2272 
L 4684 1741 
L 678 1741 
L 678 2272 
z
" transform="scale(0.015625)"/>
        <path id="DejaVuSans-2e" d="M 684 794 
L 1344 794 
L 1344 0 
L 684 0 
L 684 794 
z
" transform="scale(0.015625)"/>
        <path id="DejaVuSans-35" d="M 691 4666 
L 3169 4666 
L 3169 4134 
L 1269 4134 
L 1269 2991 
Q 1406 3038 1543 3061 
Q 1681 3084 1819 3084 
Q 2600 3084 3056 2656 
Q 3513 2228 3513 1497 
Q 3513 744 3044 326 
Q 2575 -91 1722 -91 
Q 1428 -91 1123 -41 
Q 819 9 494 109 
L 494 744 
Q 775 591 1075 516 
Q 1375 441 1709 441 
Q 2250 441 2565 725 
Q 2881 1009 2881 1497 
Q 2881 1984 2565 2268 
Q 2250 2553 1709 2553 
Q 1456 2553 1204 2497 
Q 953 2441 691 2322 
L 691 4666 
z
" transform="scale(0.015625)"/>
       </defs>
       <use xlink:href="#DejaVuSans-2212"/>
       <use xlink:href="#DejaVuSans-30" transform="translate(83.789062 0)"/>
       <use xlink:href="#DejaVuSans-2e" transform="translate(147.412109 0)"/>
       <use xlink:href="#DejaVuSans-31" transform="translate(179.199219 0)"/>
       <use xlink:href="#DejaVuSans-35" transform="translate(242.822266 0)"/>
      </g>
     </g>
    </g>
    <g id="ytick_2">
     <g id="line2d_15">
      <path d="M 44.845313 175.699647 
L 561.6 175.699647 
" clip-path="url(#p65cdc5cf33)" style="fill: none; stroke-dasharray: 2.96,1.28; stroke-dashoffset: 0; stroke: #7f7f7f; stroke-opacity: 0.6; stroke-width: 0.8"/>
     </g>
     <g id="line2d_16">
      <g>
       <use xlink:href="#m8266504750" x="44.845313" y="175.699647" style="fill: #7f7f7f; stroke: #7f7f7f; stroke-width: 1.8"/>
      </g>
     </g>
     <g id="text_9">
      <!-- −0.10 -->
      <g style="fill: #7f7f7f" transform="translate(7.2 179.498865) scale(0.1 -0.1)">
       <use xlink:href="#DejaVuSans-2212"/>
       <use xlink:href="#DejaVuSans-30" transform="translate(83.789062 0)"/>
       <use xlink:href="#DejaVuSans-2e" transform="translate(147.412109 0)"/>
       <use xlink:href="#DejaVuSans-31" transform="translate(179.199219 0)"/>
       <use xlink:href="#DejaVuSans-30" transform="translate(242.822266 0)"/>
      </g>
     </g>
    </g>
    <g id="ytick_3">
     <g id="line2d_17">
      <path d="M 44.845313 133.202366 
L 561.6 133.202366 
" clip-path="url(#p65cdc5cf33)" style="fill: none; stroke-dasharray: 2.96,1.28; stroke-dashoffset: 0; stroke: #7f7f7f; stroke-opacity: 0.6; stroke-width: 0.8"/>
     </g>
     <g id="line2d_18">
      <g>
       <use xlink:href="#m8266504750" x="44.845313" y="133.202366" style="fill: #7f7f7f; stroke: #7f7f7f; stroke-width: 1.8"/>
      </g>
     </g>
     <g id="text_10">
      <!-- −0.05 -->
      <g style="fill: #7f7f7f" transform="translate(7.2 137.001585) scale(0.1 -0.1)">
       <use xlink:href="#DejaVuSans-2212"/>
       <use xlink:href="#DejaVuSans-30" transform="translate(83.789062 0)"/>
       <use xlink:href="#DejaVuSans-2e" transform="translate(147.412109 0)"/>
       <use xlink:href="#DejaVuSans-30" transform="translate(179.199219 0)"/>
       <use xlink:href="#DejaVuSans-35" transform="translate(242.822266 0)"/>
      </g>
     </g>
    </g>
    <g id="ytick_4">
     <g id="line2d_19">
      <path d="M 44.845313 90.705086 
L 561.6 90.705086 
" clip-path="url(#p65cdc5cf33)" style="fill: none; stroke-dasharray: 2.96,1.28; stroke-dashoffset: 0; stroke: #7f7f7f; stroke-opacity: 0.6; stroke-width: 0.8"/>
     </g>
     <g id="line2d_20">
      <g>
       <use xlink:href="#m8266504750" x="44.845313" y="90.705086" style="fill: #7f7f7f; stroke: #7f7f7f; stroke-width: 1.8"/>
      </g>
     </g>
     <g id="text_11">
      <!-- 0.00 -->
      <g style="fill: #7f7f7f" transform="translate(15.579688 94.504305) scale(0.1 -0.1)">
       <use xlink:href="#DejaVuSans-30"/>
       <use xlink:href="#DejaVuSans-2e" transform="translate(63.623047 0)"/>
       <use xlink:href="#DejaVuSans-30" transform="translate(95.410156 0)"/>
       <use xlink:href="#DejaVuSans-30" transform="translate(159.033203 0)"/>
      </g>
     </g>
    </g>
    <g id="ytick_5">
     <g id="line2d_21">
      <path d="M 44.845313 48.207806 
L 561.6 48.207806 
" clip-path="url(#p65cdc5cf33)" style="fill: none; stroke-dasharray: 2.96,1.28; stroke-dashoffset: 0; stroke: #7f7f7f; stroke-opacity: 0.6; stroke-width: 0.8"/>
     </g>
     <g id="line2d_22">
      <g>
       <use xlink:href="#m8266504750" x="44.845313" y="48.207806" style="fill: #7f7f7f; stroke: #7f7f7f; stroke-width: 1.8"/>
      </g>
     </g>
     <g id="text_12">
      <!-- 0.05 -->
      <g style="fill: #7f7f7f" transform="translate(15.579688 52.007024) scale(0.1 -0.1)">
       <use xlink:href="#DejaVuSans-30"/>
       <use xlink:href="#DejaVuSans-2e" transform="translate(63.623047 0)"/>
       <use xlink:href="#DejaVuSans-30" transform="translate(95.410156 0)"/>
       <use xlink:href="#DejaVuSans-35" transform="translate(159.033203 0)"/>
      </g>
     </g>
    </g>
   </g>
   <g id="line2d_23">
    <path d="M 68.334162 90.705086 
L 68.461952 105.273078 
L 69.243758 92.919272 
L 70.564766 87.871608 
L 70.893224 91.122994 
L 71.261271 90.2597 
L 71.623229 87.874239 
L 71.973548 92.580707 
L 72.622248 88.872562 
L 72.978542 92.258513 
L 73.747986 90.514458 
L 74.045072 84.958307 
L 74.575099 92.92808 
L 75.603925 90.48808 
L 76.006082 92.357993 
L 76.396619 89.861406 
L 76.663169 84.176025 
L 77.145179 93.036797 
L 77.423378 89.305585 
L 78.309105 94.578513 
L 78.597589 88.374784 
L 79.209428 90.958672 
L 79.606158 89.069405 
L 79.990495 90.629786 
L 80.392118 92.418975 
L 80.730324 88.091403 
L 81.069309 91.422453 
L 81.431657 93.046446 
L 81.779203 90.561279 
L 82.194176 92.046021 
L 83.419517 93.160805 
L 84.146007 87.330367 
L 84.87887 88.881649 
L 86.16361 91.518805 
L 86.550195 91.316096 
L 86.939076 89.976328 
L 87.699519 94.008269 
L 88.040472 91.479627 
L 88.48061 91.259101 
L 89.623943 88.530492 
L 90.01945 90.408968 
L 90.313799 84.697779 
L 90.58132 92.483032 
L 90.838038 90.674649 
L 91.59714 90.964501 
L 91.997135 89.659551 
L 92.344785 94.141489 
L 92.62567 87.073234 
L 92.911928 86.642307 
L 94.102267 95.196482 
L 94.359649 91.920369 
L 94.810982 92.169333 
L 95.210193 88.945845 
L 95.938641 90.810428 
L 96.36187 90.396973 
L 96.776128 92.334568 
L 97.916488 88.061472 
L 98.285057 89.309424 
L 98.637007 86.307928 
L 98.955581 92.088555 
L 99.684824 89.191855 
L 100.939014 92.521428 
L 101.348419 92.28531 
L 101.763754 90.17756 
L 102.168701 92.186732 
L 102.576464 91.976092 
L 103.280483 94.911673 
L 104.4189 90.081273 
L 104.80013 90.6873 
L 105.189173 90.287578 
L 106.033155 88.612621 
L 106.812455 87.994849 
L 107.18018 90.936091 
L 108.515998 88.81346 
L 108.908806 92.668267 
L 109.228469 88.088293 
L 109.55862 90.721578 
L 109.960967 88.394486 
L 110.329377 89.073681 
L 112.292625 94.827837 
L 113.305089 89.538225 
L 113.701838 92.105459 
L 114.479967 91.682083 
L 114.886965 92.515524 
L 115.254747 92.027841 
L 115.662308 89.444387 
L 116.05832 91.689 
L 116.419458 92.402152 
L 116.714252 86.213172 
L 117.324531 89.696238 
L 117.756043 89.800799 
L 118.190821 88.66215 
L 118.595986 89.325692 
L 119.801229 97.188271 
L 120.019945 86.112009 
L 120.818429 90.203636 
L 121.244556 89.203697 
L 121.664318 89.61593 
L 123.022017 91.051678 
L 123.394681 89.690205 
L 123.769217 92.397084 
L 124.558843 91.538149 
L 125.000187 91.989857 
L 125.420315 91.168795 
L 126.486865 90.646464 
L 126.874543 88.655351 
L 127.259985 91.349691 
L 127.671805 89.865511 
L 128.066611 91.625233 
L 128.484972 90.155277 
L 128.851954 94.351376 
L 129.526676 93.99561 
L 129.856198 88.294628 
L 130.456584 93.321227 
L 131.126496 89.50782 
L 131.515774 92.031086 
L 131.906795 90.620997 
L 132.40681 92.252503 
L 133.231369 88.066055 
L 133.586046 90.354696 
L 134.515808 91.455058 
L 134.829712 85.835454 
L 135.119516 89.285244 
L 135.94768 93.431436 
L 137.052739 88.418285 
L 137.440045 90.570164 
L 137.746222 85.856144 
L 138.032373 91.975791 
L 138.315937 90.316054 
L 138.692485 92.835923 
L 139.044324 88.900635 
L 139.381213 90.998178 
L 139.783268 90.870883 
L 140.206795 88.904526 
L 140.604245 90.966292 
L 141.730557 87.019418 
L 142.27328 96.696674 
L 142.518919 93.314702 
L 142.80755 86.72267 
L 143.442842 94.907294 
L 144.382493 87.514766 
L 144.670353 90.126236 
L 145.060348 88.285932 
L 145.796628 92.668962 
L 146.164014 89.346999 
L 146.868734 87.279818 
L 147.875834 93.301946 
L 148.204044 92.153096 
L 149.883229 88.381006 
L 151.088143 92.607193 
L 151.477098 90.686316 
L 151.877678 93.648142 
L 152.61981 92.127354 
L 152.99805 89.891113 
L 153.339454 93.488851 
L 153.682338 91.734701 
L 154.071811 93.014056 
L 155.131032 87.668349 
L 155.467091 89.457886 
L 155.835454 87.791028 
L 156.142869 86.204067 
L 156.433712 89.591192 
L 157.789955 95.29879 
L 159.249786 89.930058 
L 159.702698 91.274827 
L 160.098246 88.716589 
L 160.876246 89.326658 
L 161.254605 92.330586 
L 161.62026 89.069897 
L 162.078359 90.050942 
L 162.288878 78.813753 
L 162.289524 121.821449 
L 162.289557 231.590668 
L 162.29829 28.507239 
L 163.261096 81.200221 
L 163.404693 70.796989 
L 163.707565 83.298553 
L 164.112833 82.060594 
L 164.314931 77.877336 
L 164.888005 80.291157 
L 165.084951 83.883646 
L 165.481525 74.468166 
L 165.660864 76.389597 
L 165.844733 76.642682 
L 166.979592 85.156621 
L 168.102891 80.104712 
L 168.94331 88.553926 
L 170.232941 80.483724 
L 170.517517 87.093406 
L 171.23012 84.163814 
L 172.032914 89.028364 
L 173.162811 83.98643 
L 173.528424 88.782809 
L 174.322568 87.023261 
L 175.429965 82.981582 
L 176.209152 89.805093 
L 176.578656 85.523529 
L 177.336262 87.028965 
L 177.712414 83.345659 
L 178.451454 84.958728 
L 178.849426 87.912512 
L 179.335573 87.818404 
L 179.675061 83.099199 
L 180.009933 89.085571 
L 180.360016 83.748824 
L 181.096547 83.356077 
L 181.921443 89.027419 
L 182.963453 87.175515 
L 183.362163 88.842483 
L 183.842565 90.622641 
L 184.19556 86.17299 
L 184.94309 87.172653 
L 185.35892 85.020472 
L 185.741849 87.985354 
L 186.189779 89.044814 
L 186.551023 85.583915 
L 186.907602 87.488856 
L 187.322645 89.379663 
L 187.751918 88.016426 
L 188.174952 88.14411 
L 189.026903 91.221346 
L 189.440555 89.304391 
L 189.85266 87.463264 
L 190.228505 93.563028 
L 190.606558 88.843299 
L 191.066016 90.323177 
L 191.574015 88.896735 
L 192.048042 88.342477 
L 192.928112 92.288793 
L 193.341947 91.323298 
L 193.850616 91.21782 
L 194.660281 86.910375 
L 195.454455 87.631025 
L 195.880099 87.510575 
L 196.303874 85.637611 
L 197.091117 92.184682 
L 197.453543 85.050548 
L 197.811288 94.328081 
L 198.1688 93.414596 
L 198.540162 88.496549 
L 198.939652 89.546317 
L 199.362488 91.797938 
L 199.845345 91.360381 
L 200.330808 89.985928 
L 200.853515 90.202145 
L 201.248501 92.335163 
L 201.64154 88.412668 
L 202.45386 88.78566 
L 202.842166 88.175553 
L 203.582504 95.007198 
L 204.372456 92.215886 
L 204.758743 89.640186 
L 205.146237 92.23046 
L 206.574361 89.079362 
L 208.623235 94.289545 
L 208.971239 92.357491 
L 209.406452 89.748477 
L 209.861142 90.377209 
L 210.734321 94.335184 
L 211.104729 93.706454 
L 212.376198 90.102381 
L 212.847902 92.277056 
L 213.317855 90.144947 
L 214.933376 93.178815 
L 215.711877 88.28416 
L 216.491579 93.875865 
L 216.874976 90.738211 
L 217.206277 86.279352 
L 217.534345 93.996278 
L 217.884894 88.417371 
L 219.135216 95.647983 
L 219.460546 92.390424 
L 220.472889 90.717055 
L 221.902947 92.787023 
L 222.812139 90.090543 
L 223.780342 91.774015 
L 224.137903 88.044087 
L 224.919105 89.047379 
L 225.804162 93.340911 
L 226.202446 89.374555 
L 226.647583 92.149054 
L 227.128333 91.861652 
L 227.616778 89.933716 
L 227.985672 93.460585 
L 228.351117 92.125061 
L 229.192208 87.817537 
L 229.558332 90.09815 
L 230.089901 89.043823 
L 231.871159 94.480548 
L 232.712505 94.103321 
L 233.833817 87.546886 
L 233.488868 95.673587 
L 234.182388 89.116381 
L 235.0096 93.242034 
L 235.788843 93.72406 
L 237.01062 87.0614 
L 237.737411 93.65541 
L 238.075731 90.839432 
L 239.159056 91.151897 
L 239.518573 87.719384 
L 239.875142 94.020631 
L 240.247377 91.311856 
L 240.707922 90.161303 
L 241.209219 91.809992 
L 241.595567 89.049616 
L 241.979952 89.312768 
L 242.413804 92.806143 
L 242.84175 91.59183 
L 244.182629 88.279089 
L 244.605095 92.40791 
L 245.07833 88.238189 
L 245.533417 88.314415 
L 246.401821 91.412582 
L 247.318194 88.986398 
L 248.174156 92.809956 
L 248.557522 88.572099 
L 248.973897 91.923374 
L 249.4404 91.727447 
L 249.912041 90.378939 
L 250.409928 91.907985 
L 251.387229 90.735773 
L 251.849904 93.369771 
L 252.170696 85.904649 
L 252.840833 91.513109 
L 253.285044 93.303667 
L 253.706051 88.240998 
L 254.118892 89.682556 
L 254.553077 91.589215 
L 255.001601 90.931872 
L 256.458615 89.221364 
L 258.349579 92.180121 
L 259.951743 88.217386 
L 261.552099 93.525054 
L 261.914348 89.234897 
L 262.676168 91.095011 
L 263.009842 93.811011 
L 263.364364 90.696336 
L 265.014388 91.207442 
L 265.397761 88.897957 
L 265.814745 91.902694 
L 267.148613 89.116807 
L 267.539712 91.62154 
L 267.883536 86.603534 
L 268.223546 90.171924 
L 268.667288 89.932613 
L 269.163848 91.958332 
L 269.619152 88.283077 
L 270.058256 92.634255 
L 270.959438 89.047365 
L 271.361511 89.182172 
L 271.80694 89.269444 
L 272.183508 92.231905 
L 272.558718 87.196629 
L 272.949012 91.265701 
L 273.344742 93.570314 
L 273.704779 90.86225 
L 274.65235 89.808058 
L 275.483515 94.159132 
L 276.279151 88.984687 
L 276.667955 96.542056 
L 277.397823 94.455894 
L 278.894112 87.44525 
L 280.6899 90.885629 
L 281.854083 87.938547 
L 283.143855 91.549154 
L 283.560804 92.160744 
L 283.964821 91.373704 
L 284.395062 89.243517 
L 284.784227 93.173968 
L 285.201305 89.129985 
L 285.68544 92.433703 
L 286.125348 89.664874 
L 286.651089 92.489603 
L 288.015261 91.416057 
L 288.806785 83.998454 
L 289.130656 88.073305 
L 289.569607 88.640711 
L 289.892167 94.490886 
L 290.211255 88.724946 
L 291.450635 90.25348 
L 292.274698 94.851634 
L 292.648418 91.956736 
L 293.06421 91.624128 
L 293.47843 92.339321 
L 294.350343 92.515247 
L 294.841853 88.49695 
L 295.28934 91.193238 
L 295.713619 87.685285 
L 296.103102 90.058916 
L 296.876746 89.746635 
L 297.591774 93.824901 
L 298.360757 93.983563 
L 298.743092 91.550815 
L 300.157258 92.478764 
L 301.480089 87.965439 
L 301.898298 89.984252 
L 302.236409 84.834692 
L 302.570155 92.193257 
L 302.955858 92.280632 
L 304.232832 88.947767 
L 305.817176 91.954703 
L 306.556541 87.392464 
L 307.373379 86.610652 
L 307.783978 92.110092 
L 308.696821 89.647225 
L 309.137705 91.247341 
L 309.478198 86.29147 
L 309.814941 91.301366 
L 310.27288 90.621028 
L 310.634702 93.630254 
L 310.993605 89.974172 
L 311.37294 88.054432 
L 311.737967 89.806234 
L 312.102428 92.921715 
L 312.46445 88.57581 
L 313.991881 94.15782 
L 314.351088 88.692405 
L 314.747113 89.091265 
L 315.935039 94.937221 
L 316.700304 88.771137 
L 317.099998 91.053362 
L 317.473898 91.325046 
L 318.299312 89.115082 
L 318.737202 93.26832 
L 319.148509 90.921645 
L 321.777005 91.060672 
L 322.177073 91.846454 
L 322.590535 88.317739 
L 322.937471 94.086401 
L 323.66302 89.717482 
L 324.09052 91.395719 
L 324.439592 89.863728 
L 325.224303 88.532534 
L 326.392672 94.171723 
L 326.730423 89.870139 
L 327.595155 90.640647 
L 328.412651 90.273577 
L 328.790341 94.185409 
L 330.346939 88.119203 
L 330.741128 91.802013 
L 331.158717 91.476617 
L 331.60558 88.901488 
L 332.058418 89.473975 
L 332.513858 93.091553 
L 333.34381 92.008191 
L 333.745023 90.148877 
L 334.151338 91.68637 
L 334.610635 93.197258 
L 335.029627 92.521317 
L 335.897855 90.974941 
L 336.294413 88.00029 
L 336.684599 88.544944 
L 337.595909 91.459808 
L 338.049892 87.893458 
L 338.913073 88.556656 
L 339.777241 94.114298 
L 340.533793 87.381039 
L 341.666811 93.244725 
L 342.076791 90.360482 
L 342.539816 92.707711 
L 343.365168 91.045768 
L 344.240563 91.599532 
L 344.671229 88.474921 
L 345.553194 91.029603 
L 345.995281 90.040149 
L 346.846524 88.343805 
L 348.166413 92.063744 
L 348.521806 92.496149 
L 349.283854 87.518667 
L 350.197875 87.357472 
L 350.198969 96.206636 
L 350.200537 165.105702 
L 350.202092 22.24844 
L 350.955402 96.17186 
L 351.313459 99.264526 
L 351.66097 95.105338 
L 352.458594 98.269344 
L 352.815871 95.624139 
L 353.223523 93.695998 
L 353.941119 98.052946 
L 354.302187 95.641104 
L 354.706743 95.522577 
L 355.128904 91.325383 
L 355.665589 91.970691 
L 356.006701 96.696864 
L 356.716373 95.58532 
L 357.108096 95.890176 
L 358.739511 91.306453 
L 359.124697 94.163422 
L 359.919619 93.328008 
L 360.887965 90.883431 
L 362.078443 95.547942 
L 362.461739 90.642596 
L 362.837506 94.713728 
L 363.206782 94.504858 
L 363.600769 90.609557 
L 364.105727 93.032498 
L 364.548185 93.411331 
L 364.971737 89.994225 
L 365.442657 93.361849 
L 366.855282 91.691476 
L 367.299117 90.623064 
L 367.978382 96.742829 
L 368.327691 92.379723 
L 368.862734 93.969375 
L 369.35722 91.532482 
L 369.775402 93.23348 
L 370.654537 91.025497 
L 371.08549 92.549027 
L 371.512061 94.54419 
L 371.908301 91.796 
L 373.275007 94.484311 
L 374.770074 88.206738 
L 375.9885 92.257245 
L 376.387225 91.820573 
L 376.846686 88.549026 
L 377.27108 91.63407 
L 378.159142 92.590232 
L 378.600821 94.520385 
L 378.99945 92.596094 
L 379.454113 92.459772 
L 379.811596 88.859287 
L 380.60854 89.818038 
L 380.947457 94.769182 
L 381.282577 91.072738 
L 381.783626 90.361256 
L 382.268274 92.210571 
L 382.762186 90.785884 
L 383.333747 90.629759 
L 383.887333 91.788812 
L 384.820816 88.684386 
L 385.207584 89.872923 
L 385.563944 93.403229 
L 385.917474 89.524274 
L 386.941207 91.213597 
L 387.864312 87.748391 
L 388.229874 93.635006 
L 389.008029 91.796774 
L 389.476914 92.282511 
L 390.395961 90.075721 
L 390.728013 95.728119 
L 391.056153 93.647541 
L 392.41174 88.821765 
L 394.279784 92.114952 
L 395.104506 88.738197 
L 395.90703 93.152734 
L 396.282636 91.693342 
L 397.955934 88.227939 
L 398.333185 93.376449 
L 398.727837 90.741518 
L 399.180968 89.326144 
L 400.046324 89.809593 
L 400.568212 91.770172 
L 401.038974 89.700172 
L 401.487486 89.507013 
L 401.941453 90.901435 
L 402.841987 88.528358 
L 403.271148 93.387864 
L 403.672952 91.434846 
L 405.053627 89.332489 
L 405.897109 92.446974 
L 406.304191 92.075984 
L 406.76323 88.201465 
L 407.176433 89.26064 
L 407.608154 93.078186 
L 408.018177 90.138382 
L 408.473361 89.48713 
L 408.902355 93.275949 
L 409.319233 88.089149 
L 410.469312 93.473548 
L 410.106854 87.44316 
L 410.847928 92.237877 
L 411.740207 90.076463 
L 412.215657 91.003316 
L 412.580252 87.713772 
L 413.349615 89.805052 
L 413.724998 92.287879 
L 414.098835 88.633458 
L 416.924275 93.31849 
L 418.147945 87.076504 
L 418.530577 91.834622 
L 418.972275 88.888683 
L 420.4089 93.237567 
L 420.770757 92.289753 
L 423.244614 88.128655 
L 424.019186 92.621287 
L 424.38074 89.040767 
L 425.596788 85.651633 
L 426.291583 95.948298 
L 426.992577 94.857852 
L 427.82724 90.202584 
L 428.234636 90.860978 
L 428.571296 95.794998 
L 428.904213 92.410267 
L 430.749142 89.226014 
L 431.20665 92.067934 
L 431.682769 89.255407 
L 432.182526 90.942891 
L 432.65577 88.11686 
L 433.088834 89.72938 
L 433.450337 92.898156 
L 433.809591 88.922424 
L 435.178046 91.975291 
L 435.645181 87.856007 
L 436.071402 91.421837 
L 436.539374 89.823375 
L 436.99623 90.331928 
L 437.325152 95.924867 
L 437.649818 87.899489 
L 437.993934 91.656555 
L 438.423352 89.588994 
L 438.92976 90.168228 
L 439.918418 91.761793 
L 442.375927 89.787718 
L 442.894446 90.893964 
L 443.272222 89.100012 
L 443.665932 94.644719 
L 444.044373 87.957152 
L 444.434487 87.238749 
L 444.806454 92.791021 
L 445.588092 89.996918 
L 445.984463 90.289458 
L 446.368913 92.527694 
L 446.751519 89.171816 
L 448.083639 94.263083 
L 448.860702 93.367735 
L 449.295986 89.645993 
L 449.696251 90.78788 
L 450.209292 91.239105 
L 450.584536 90.747211 
L 451.370476 87.572281 
L 451.739917 91.590851 
L 452.091451 88.015903 
L 452.44596 88.299906 
L 452.849891 91.681895 
L 453.311418 86.948375 
L 453.731605 92.34044 
L 454.179801 92.352784 
L 454.954499 92.733511 
L 455.329646 86.781097 
L 456.49499 93.473034 
L 456.891008 87.072651 
L 457.679566 89.522914 
L 458.471264 93.987953 
L 458.836985 92.621323 
L 459.271688 89.591371 
L 459.684413 95.102419 
L 460.076469 86.968316 
L 461.378927 91.869619 
L 462.796232 89.399862 
L 463.202107 92.130398 
L 463.592536 90.575326 
L 464.877575 89.530818 
L 465.669974 93.196244 
L 466.063969 90.393231 
L 466.445121 90.388496 
L 466.835984 89.267867 
L 467.27606 93.044694 
L 467.68644 91.995064 
L 468.041742 89.316721 
L 468.406746 92.385903 
L 468.838276 91.010199 
L 469.244641 93.976841 
L 469.646225 92.214705 
L 470.095256 89.595528 
L 470.991377 89.751774 
L 472.115445 91.412635 
L 472.536554 87.682907 
L 472.94704 90.367495 
L 473.3359 91.415814 
L 473.749451 90.888306 
L 474.192869 88.453697 
L 474.620348 91.183652 
L 474.941614 91.606298 
L 475.266978 86.903172 
L 475.615437 89.169182 
L 477.284357 92.79658 
L 477.678955 90.573935 
L 478.057431 93.512681 
L 478.43229 94.149929 
L 479.570084 85.27501 
L 479.876966 94.395481 
L 480.580947 93.370461 
L 482.25567 85.605657 
L 483.366547 91.887767 
L 483.801113 86.050474 
L 484.204901 89.017066 
L 484.583864 92.063943 
L 485.429044 91.26019 
L 486.276575 92.593691 
L 487.484813 90.632879 
L 488.692186 94.006376 
L 489.052767 88.983567 
L 489.858274 90.146998 
L 490.624562 92.770713 
L 491.783595 88.95678 
L 492.205371 94.410925 
L 492.599327 85.419595 
L 493.329017 90.361022 
L 494.277673 92.789852 
L 495.930274 89.083572 
L 496.302254 85.371555 
L 496.643642 89.675115 
L 497.105174 87.793535 
L 497.976223 91.230636 
L 498.398595 90.132051 
L 498.798734 88.981313 
L 500.030795 93.235041 
L 500.452193 92.606431 
L 500.879324 89.322107 
L 501.311839 90.529693 
L 501.654931 94.891331 
L 501.994597 87.726373 
L 505.389706 94.031444 
L 505.793535 88.167977 
L 506.59248 91.109608 
L 508.659327 88.436387 
L 510.133633 91.306639 
L 510.538494 92.789034 
L 511.331111 88.952624 
L 511.741291 91.443435 
L 513.263609 90.771373 
L 513.63011 88.006518 
L 513.994069 90.871267 
L 514.348147 93.838713 
L 514.699661 91.652701 
L 515.171307 92.019596 
L 516.152258 89.479391 
L 516.602806 92.314397 
L 517.460683 91.925194 
L 517.942065 89.249983 
L 518.395104 93.642855 
L 518.820041 90.282414 
L 519.23494 91.994404 
L 519.676261 90.705546 
L 520.020406 86.774797 
L 520.804502 88.600901 
L 522.701596 92.541159 
L 523.900789 89.164476 
L 524.335754 89.294158 
L 525.573103 94.146408 
L 525.962727 92.106268 
L 526.433121 91.29208 
L 526.763438 86.197408 
L 527.089899 87.77511 
L 527.475157 94.78487 
L 527.836116 90.607519 
L 528.163363 85.440827 
L 528.486967 89.256344 
L 528.855647 92.120332 
L 529.225137 91.210107 
L 530.015073 87.839238 
L 530.382169 93.629575 
L 531.152313 90.745803 
L 532.462557 89.623698 
L 532.870424 90.320029 
L 533.254644 89.108802 
L 533.642171 86.345344 
L 535.154549 95.942414 
L 535.891404 88.250012 
L 536.637418 88.978569 
L 538.111151 94.567734 
L 538.111151 94.567734 
" clip-path="url(#p65cdc5cf33)" style="fill: none; stroke: #e41a1c; stroke-width: 2; stroke-linecap: square"/>
   </g>
   <g id="line2d_24">
    <path d="M 68.334162 90.705086 
L 68.461952 94.763708 
L 69.243758 92.225307 
L 70.564766 90.167437 
L 70.893224 91.013843 
L 71.261271 90.73616 
L 71.973548 91.148089 
L 72.622248 89.769392 
L 72.978542 90.812378 
L 73.747986 90.331587 
L 74.045072 88.293323 
L 74.575099 90.658405 
L 76.396619 90.491433 
L 76.663169 88.413521 
L 77.145179 91.005601 
L 77.423378 89.940514 
L 78.309105 92.306527 
L 79.606158 90.314127 
L 80.392118 91.397144 
L 80.730324 89.989225 
L 81.069309 90.89834 
L 82.595139 92.047786 
L 83.419517 92.893236 
L 83.813457 91.803897 
L 84.87887 90.764101 
L 88.835545 91.636104 
L 90.01945 91.221789 
L 90.313799 89.121603 
L 90.838038 90.757731 
L 91.997135 90.381164 
L 92.344785 91.949778 
L 92.62567 89.819114 
L 92.911928 89.248513 
L 93.191776 89.80834 
L 94.102267 91.663274 
L 93.846013 89.311554 
L 94.359649 90.987172 
L 94.810982 91.31631 
L 95.210193 90.248981 
L 95.938641 90.940108 
L 98.285057 89.67328 
L 98.637007 88.312165 
L 98.955581 89.88947 
L 99.262334 89.56924 
L 99.684824 88.91381 
L 100.10436 89.626594 
L 102.168701 90.791385 
L 102.943363 92.090494 
L 103.280483 92.797402 
L 104.00046 92.112847 
L 106.812455 90.069155 
L 108.121484 90.765525 
L 108.908806 91.19482 
L 109.228469 89.74161 
L 109.55862 90.382223 
L 109.960967 89.433537 
L 111.168743 89.587157 
L 112.292625 91.928168 
L 112.590263 90.779352 
L 114.090761 90.356665 
L 115.254747 91.620942 
L 115.662308 90.790442 
L 116.05832 91.499471 
L 116.419458 91.924848 
L 116.714252 89.891073 
L 117.324531 90.320351 
L 118.595986 89.462624 
L 119.801229 93.184913 
L 120.252439 89.883655 
L 120.818429 90.65223 
L 122.577078 89.861446 
L 125.000187 90.947945 
L 128.484972 90.374173 
L 129.526676 92.323301 
L 129.856198 90.620788 
L 130.456584 92.381544 
L 131.126496 91.243823 
L 131.515774 92.072421 
L 131.906795 91.721415 
L 132.40681 92.445126 
L 135.549814 91.364967 
L 135.94768 92.353405 
L 136.310533 91.050465 
L 137.440045 90.956627 
L 137.746222 89.210359 
L 138.315937 90.38857 
L 138.692485 91.319189 
L 139.381213 90.648564 
L 140.999393 90.022969 
L 141.730557 88.521423 
L 142.27328 91.966936 
L 142.80755 89.332849 
L 144.105232 91.929858 
L 145.060348 89.790995 
L 145.796628 91.359064 
L 146.164014 90.350976 
L 146.868734 89.001476 
L 147.513742 89.592442 
L 148.605089 90.687394 
L 149.883229 89.312083 
L 150.264486 89.979996 
L 151.477098 90.199928 
L 152.61981 91.615763 
L 152.99805 90.955915 
L 153.339454 92.220952 
L 156.142869 88.892709 
L 156.782919 90.465758 
L 158.091231 92.291178 
L 158.412669 91.892829 
L 160.876246 90.763263 
L 161.254605 91.742537 
L 161.62026 90.707724 
L 162.078359 90.737657 
L 162.288878 88.124624 
L 162.289524 98.61931 
L 162.289557 125.404793 
L 162.29829 75.651788 
L 163.261096 83.730987 
L 164.314931 78.132626 
L 164.888005 76.435715 
L 165.084951 76.787103 
L 166.262374 69.569282 
L 166.479634 69.965408 
L 168.654119 63.222381 
L 168.94331 64.349522 
L 169.291576 61.815971 
L 175.429965 49.05805 
L 175.792715 49.248965 
L 176.209152 49.976279 
L 178.05899 45.267782 
L 179.675061 41.762485 
L 180.009933 43.015107 
L 180.360016 40.748387 
L 180.704081 40.626782 
L 181.096547 38.846204 
L 181.921443 39.436191 
L 189.85266 31.172775 
L 190.228505 33.098119 
L 190.606558 31.673478 
L 191.574015 31.272151 
L 192.048042 30.692663 
L 193.341947 32.074126 
L 194.256587 31.504895 
L 196.303874 27.657681 
L 197.091117 29.267609 
L 197.453543 26.694069 
L 197.811288 29.464569 
L 198.1688 29.623727 
L 198.939652 28.155616 
L 199.362488 28.884789 
L 201.248501 29.143193 
L 202.842166 27.205824 
L 204.372456 29.254072 
L 204.758743 28.462576 
L 205.146237 29.333638 
L 208.272356 28.133968 
L 208.623235 29.442196 
L 208.971239 29.198592 
L 209.861142 28.477474 
L 211.104729 30.723312 
L 211.512367 30.323614 
L 212.376198 29.783511 
L 212.847902 30.616902 
L 213.317855 29.991535 
L 215.30349 30.30401 
L 215.711877 29.378795 
L 216.080895 30.800454 
L 216.491579 31.57378 
L 216.874976 30.813704 
L 217.206277 29.137983 
L 217.534345 31.447339 
L 217.884894 29.761104 
L 219.135216 31.950304 
L 219.907 31.097638 
L 220.994214 31.512356 
L 221.902947 32.421089 
L 222.345939 31.801572 
L 223.261814 32.195047 
L 223.780342 32.427019 
L 224.919105 30.870656 
L 225.804162 32.73333 
L 226.202446 31.550547 
L 227.128333 32.637266 
L 227.616778 32.011945 
L 227.985672 33.278889 
L 228.351117 33.162692 
L 230.089901 31.301548 
L 231.440406 32.595724 
L 232.712505 34.589899 
L 233.139698 33.865667 
L 233.488868 35.728353 
L 233.833817 33.320299 
L 234.575271 34.596643 
L 235.788843 35.877446 
L 237.01062 33.376218 
L 237.39619 33.737216 
L 237.737411 35.174766 
L 238.075731 34.504515 
L 239.518573 33.38793 
L 239.875142 35.394971 
L 240.707922 34.441605 
L 241.209219 35.068953 
L 241.595567 34.138458 
L 241.979952 33.9842 
L 242.84175 35.057963 
L 243.299264 34.764831 
L 243.741909 35.296431 
L 245.07833 33.795336 
L 245.533417 33.363389 
L 245.947142 34.154706 
L 246.851047 33.452659 
L 247.318194 33.086065 
L 247.754577 33.690016 
L 248.174156 34.43713 
L 248.557522 33.070116 
L 248.973897 34.08612 
L 251.849904 35.509742 
L 252.170696 33.078338 
L 252.840833 34.903637 
L 253.285044 35.816409 
L 253.706051 34.172123 
L 254.118892 34.357163 
L 255.001601 34.863339 
L 256.898309 33.965611 
L 267.539712 35.377795 
L 267.883536 33.59096 
L 268.667288 34.185166 
L 269.163848 34.927529 
L 269.619152 33.580715 
L 270.058256 34.979907 
L 271.80694 33.274596 
L 272.183508 34.221674 
L 272.558718 32.458751 
L 272.949012 33.53027 
L 273.344742 34.542906 
L 273.704779 33.903898 
L 274.65235 33.330024 
L 275.078118 34.053471 
L 275.483515 35.16456 
L 275.869274 33.998044 
L 276.279151 33.498591 
L 277.397823 36.388768 
L 279.2618 33.681489 
L 280.6899 34.386484 
L 281.854083 32.93223 
L 282.228711 33.412483 
L 283.964821 34.34209 
L 284.784227 34.916093 
L 285.201305 33.66744 
L 286.651089 35.039634 
L 288.015261 35.361016 
L 288.806785 32.314312 
L 289.569607 32.719441 
L 289.892167 34.626171 
L 290.211255 32.962064 
L 291.450635 32.629769 
L 292.274698 34.885643 
L 293.06421 34.45218 
L 294.350343 35.104162 
L 295.713619 33.068819 
L 299.703119 36.371947 
L 300.157258 36.79155 
L 301.480089 34.714049 
L 301.898298 35.083282 
L 302.236409 33.029224 
L 302.570155 35.015178 
L 302.955858 35.274333 
L 304.232832 34.047964 
L 305.817176 35.283919 
L 307.373379 32.599706 
L 308.255958 34.037719 
L 309.478198 32.119605 
L 309.814941 33.414619 
L 310.27288 33.221404 
L 310.634702 34.374951 
L 310.993605 33.376491 
L 311.37294 32.500387 
L 311.737967 32.789998 
L 312.102428 33.868759 
L 312.46445 32.496264 
L 312.882472 33.057831 
L 313.991881 34.70414 
L 314.747113 32.925647 
L 315.150689 34.040838 
L 315.589401 33.512817 
L 315.935039 35.189312 
L 316.276854 34.153102 
L 316.700304 33.363684 
L 317.099998 33.979483 
L 317.856989 33.356936 
L 318.299312 33.072197 
L 318.737202 34.537285 
L 319.598632 34.013942 
L 322.590535 33.163995 
L 322.937471 35.040879 
L 323.66302 33.496187 
L 324.09052 34.022955 
L 324.439592 33.530215 
L 326.050935 32.469285 
L 326.392672 34.240998 
L 327.148528 33.868635 
L 328.412651 33.591479 
L 329.532845 34.957595 
L 330.346939 33.171699 
L 330.741128 34.243271 
L 331.158717 34.294564 
L 332.058418 33.250391 
L 333.34381 34.495887 
L 333.745023 33.954903 
L 334.151338 34.493176 
L 335.472729 35.626436 
L 338.478242 33.351516 
L 338.913073 32.864995 
L 339.363802 33.840499 
L 339.777241 34.968527 
L 340.156554 33.573283 
L 340.533793 32.60114 
L 340.888519 34.262747 
L 342.950099 35.534139 
L 346.846524 33.167754 
L 348.521806 34.89247 
L 349.283854 33.085587 
L 350.200169 43.378073 
L 350.200323 34.978629 
L 350.200537 52.773054 
L 350.202092 17.88527 
L 350.955402 37.349881 
L 352.458594 41.657449 
L 353.223523 41.72066 
L 354.706743 45.644731 
L 355.128904 44.726397 
L 355.665589 45.144679 
L 357.108096 49.104063 
L 357.502307 48.814168 
L 359.124697 50.784496 
L 366.855282 56.233763 
L 367.299117 55.938547 
L 368.862734 59.162109 
L 369.35722 58.731117 
L 369.775402 59.569241 
L 371.08549 60.067294 
L 372.421815 61.622482 
L 372.900133 61.54963 
L 374.037352 63.057989 
L 374.423738 62.947141 
L 374.770074 61.613431 
L 375.587795 61.977495 
L 376.387225 62.757897 
L 376.846686 61.547057 
L 377.27108 62.445848 
L 380.166906 63.523939 
L 380.60854 63.33316 
L 380.947457 65.08961 
L 381.282577 64.237796 
L 382.762186 64.41145 
L 387.864312 63.209458 
L 388.229874 65.07142 
L 389.008029 64.429353 
L 389.909215 64.384514 
L 390.395961 64.153691 
L 390.728013 66.200733 
L 391.450408 65.363092 
L 395.500631 64.626783 
L 396.708181 65.021328 
L 397.955934 63.827282 
L 398.333185 65.489374 
L 398.727837 64.857067 
L 400.046324 64.014004 
L 400.568212 64.719428 
L 401.038974 64.024017 
L 402.841987 62.814355 
L 403.271148 64.460136 
L 404.123273 64.108065 
L 405.897109 64.707003 
L 406.304191 64.850375 
L 407.176433 63.470451 
L 407.608154 64.818594 
L 408.018177 64.013865 
L 408.473361 63.636317 
L 408.902355 65.011348 
L 409.319233 63.312908 
L 410.106854 62.689522 
L 410.847928 64.49702 
L 412.941605 62.656586 
L 414.517585 62.401996 
L 416.513451 62.504438 
L 416.924275 63.537837 
L 417.29619 62.982045 
L 418.972275 61.538813 
L 419.456539 61.986716 
L 420.044224 61.613559 
L 420.770757 62.778383 
L 421.196745 62.64106 
L 422.393475 62.63462 
L 423.655585 61.465259 
L 424.019186 62.521962 
L 424.38074 61.405691 
L 425.596788 59.038498 
L 425.948218 60.813314 
L 426.992577 63.271857 
L 428.234636 62.438493 
L 428.571296 64.335608 
L 429.361117 63.46046 
L 431.20665 63.805391 
L 432.65577 62.127924 
L 435.178046 62.837665 
L 435.645181 61.287416 
L 436.539374 61.706278 
L 436.99623 61.752639 
L 437.325152 63.800367 
L 437.649818 61.47972 
L 437.993934 62.526422 
L 438.92976 61.853661 
L 440.391949 62.599471 
L 442.375927 61.70745 
L 443.665932 63.302035 
L 444.434487 60.530159 
L 444.806454 62.189179 
L 445.177941 60.77776 
L 445.984463 61.034259 
L 446.368913 61.856165 
L 446.751519 60.798068 
L 450.584536 62.869459 
L 452.44596 61.009759 
L 452.849891 61.985467 
L 453.311418 60.116031 
L 453.731605 61.695609 
L 454.954499 62.374418 
L 455.329646 60.330302 
L 455.697758 61.187374 
L 456.49499 62.59222 
L 456.891008 60.452348 
L 457.679566 61.171492 
L 458.836985 62.947519 
L 459.271688 62.021987 
L 459.684413 64.107077 
L 460.076469 61.543388 
L 461.378927 62.600614 
L 462.796232 61.452614 
L 463.202107 62.347751 
L 463.592536 61.946774 
L 464.877575 61.26806 
L 465.669974 62.602346 
L 466.445121 61.821108 
L 466.835984 61.320669 
L 467.68644 62.61722 
L 468.041742 61.769873 
L 468.406746 62.767362 
L 468.838276 62.491012 
L 469.244641 63.757394 
L 469.646225 63.582824 
L 470.991377 62.623959 
L 472.115445 63.010193 
L 472.536554 61.585762 
L 472.94704 62.180043 
L 473.749451 62.440662 
L 474.192869 61.437491 
L 474.620348 62.178525 
L 474.941614 62.394974 
L 475.266978 60.750228 
L 476.019862 61.543723 
L 479.258881 64.272997 
L 479.570084 61.574955 
L 480.195454 62.944886 
L 481.429234 64.053064 
L 482.982752 61.103393 
L 483.366547 62.434038 
L 483.801113 60.17761 
L 484.204901 60.608643 
L 485.429044 61.337797 
L 487.095256 62.098396 
L 488.318125 62.15189 
L 488.692186 63.495002 
L 489.457742 62.767944 
L 489.858274 62.357565 
L 490.238984 63.278908 
L 491.410979 63.050291 
L 491.783595 62.383514 
L 492.205371 64.350675 
L 492.599327 61.324742 
L 493.329017 62.872401 
L 495.104146 64.262952 
L 497.105174 61.368524 
L 498.398595 61.767897 
L 498.798734 61.198796 
L 499.161924 62.153654 
L 501.311839 62.453748 
L 501.654931 64.094904 
L 501.994597 61.946494 
L 503.766837 61.537862 
L 505.389706 64.065293 
L 505.793535 62.232083 
L 506.59248 62.8275 
L 510.133633 61.95713 
L 510.538494 62.654486 
L 510.928842 61.996871 
L 511.331111 61.373838 
L 511.741291 62.099908 
L 513.994069 61.858874 
L 515.171307 62.978288 
L 516.152258 61.890811 
L 517.460683 63.243184 
L 517.942065 62.314806 
L 518.395104 63.932364 
L 519.23494 63.690353 
L 519.676261 63.386189 
L 520.804502 61.741778 
L 523.513687 63.014249 
L 524.335754 61.870915 
L 524.768311 62.401989 
L 526.433121 63.675071 
L 527.089899 61.845916 
L 527.475157 64.18738 
L 527.836116 63.158017 
L 528.163363 61.210325 
L 528.855647 62.853225 
L 534.410861 61.421905 
L 535.154549 63.931275 
L 535.510565 62.818935 
L 536.637418 61.915612 
L 538.111151 63.650519 
L 538.111151 63.650519 
" clip-path="url(#p65cdc5cf33)" style="fill: none; stroke: #377eb8; stroke-width: 2; stroke-linecap: square"/>
   </g>
   <g id="patch_3">
    <path d="M 44.845313 242.275938 
L 44.845313 7.2 
" style="fill: none; stroke: #7f7f7f; stroke-width: 1.8; stroke-linejoin: miter; stroke-linecap: square"/>
   </g>
   <g id="patch_4">
    <path d="M 44.845313 242.275937 
L 561.6 242.275937 
" style="fill: none; stroke: #7f7f7f; stroke-width: 1.8; stroke-linejoin: miter; stroke-linecap: square"/>
   </g>
   <g id="legend_1">
    <g id="line2d_25">
     <path d="M 499.584375 20.298438 
L 509.584375 20.298438 
L 519.584375 20.298438 
" style="fill: none; stroke: #e41a1c; stroke-width: 2; stroke-linecap: square"/>
    </g>
    <g id="text_13">
     <!-- err 2 -->
     <g style="fill: #7f7f7f" transform="translate(527.584375 23.798438) scale(0.1 -0.1)">
      <defs>
       <path id="DejaVuSans-72" d="M 2631 2963 
Q 2534 3019 2420 3045 
Q 2306 3072 2169 3072 
Q 1681 3072 1420 2755 
Q 1159 2438 1159 1844 
L 1159 0 
L 581 0 
L 581 3500 
L 1159 3500 
L 1159 2956 
Q 1341 3275 1631 3429 
Q 1922 3584 2338 3584 
Q 2397 3584 2469 3576 
Q 2541 3569 2628 3553 
L 2631 2963 
z
" transform="scale(0.015625)"/>
      </defs>
      <use xlink:href="#DejaVuSans-65"/>
      <use xlink:href="#DejaVuSans-72" transform="translate(61.523438 0)"/>
      <use xlink:href="#DejaVuSans-72" transform="translate(100.886719 0)"/>
      <use xlink:href="#DejaVuSans-20" transform="translate(142 0)"/>
      <use xlink:href="#DejaVuSans-32" transform="translate(173.787109 0)"/>
     </g>
    </g>
    <g id="line2d_26">
     <path d="M 499.584375 34.976563 
L 509.584375 34.976563 
L 519.584375 34.976563 
" style="fill: none; stroke: #377eb8; stroke-width: 2; stroke-linecap: square"/>
    </g>
    <g id="text_14">
     <!-- pid 2 -->
     <g style="fill: #7f7f7f" transform="translate(527.584375 38.476563) scale(0.1 -0.1)">
      <defs>
       <path id="DejaVuSans-70" d="M 1159 525 
L 1159 -1331 
L 581 -1331 
L 581 3500 
L 1159 3500 
L 1159 2969 
Q 1341 3281 1617 3432 
Q 1894 3584 2278 3584 
Q 2916 3584 3314 3078 
Q 3713 2572 3713 1747 
Q 3713 922 3314 415 
Q 2916 -91 2278 -91 
Q 1894 -91 1617 61 
Q 1341 213 1159 525 
z
M 3116 1747 
Q 3116 2381 2855 2742 
Q 2594 3103 2138 3103 
Q 1681 3103 1420 2742 
Q 1159 2381 1159 1747 
Q 1159 1113 1420 752 
Q 1681 391 2138 391 
Q 2594 391 2855 752 
Q 3116 1113 3116 1747 
z
" transform="scale(0.015625)"/>
       <path id="DejaVuSans-64" d="M 2906 2969 
L 2906 4863 
L 3481 4863 
L 3481 0 
L 2906 0 
L 2906 525 
Q 2725 213 2448 61 
Q 2172 -91 1784 -91 
Q 1150 -91 751 415 
Q 353 922 353 1747 
Q 353 2572 751 3078 
Q 1150 3584 1784 3584 
Q 2172 3584 2448 3432 
Q 2725 3281 2906 2969 
z
M 947 1747 
Q 947 1113 1208 752 
Q 1469 391 1925 391 
Q 2381 391 2643 752 
Q 2906 1113 2906 1747 
Q 2906 2381 2643 2742 
Q 2381 3103 1925 3103 
Q 1469 3103 1208 2742 
Q 947 2381 947 1747 
z
" transform="scale(0.015625)"/>
      </defs>
      <use xlink:href="#DejaVuSans-70"/>
      <use xlink:href="#DejaVuSans-69" transform="translate(63.476562 0)"/>
      <use xlink:href="#DejaVuSans-64" transform="translate(91.259766 0)"/>
      <use xlink:href="#DejaVuSans-20" transform="translate(154.736328 0)"/>
      <use xlink:href="#DejaVuSans-32" transform="translate(186.523438 0)"/>
     </g>
    </g>
   </g>
  </g>
 </g>
 <defs>
  <clipPath id="p65cdc5cf33">
   <rect x="44.845313" y="7.2" width="516.754687" height="235.075937"/>
  </clipPath>
 </defs>
</svg>
