<?xml version="1.0" encoding="utf-8" standalone="no"?>
<!DOCTYPE svg PUBLIC "-//W3C//DTD SVG 1.1//EN"
  "http://www.w3.org/Graphics/SVG/1.1/DTD/svg11.dtd">
<svg xmlns:xlink="http://www.w3.org/1999/xlink" width="575.1625pt" height="424.8pt" viewBox="0 0 575.1625 424.8" xmlns="http://www.w3.org/2000/svg" version="1.1">
 <metadata>
  <rdf:RDF xmlns:dc="http://purl.org/dc/elements/1.1/" xmlns:cc="http://creativecommons.org/ns#" xmlns:rdf="http://www.w3.org/1999/02/22-rdf-syntax-ns#">
   <cc:Work>
    <dc:type rdf:resource="http://purl.org/dc/dcmitype/StillImage"/>
    <dc:date>2026-07-24T19:30:20.961234</dc:date>
    <dc:format>image/svg+xml</dc:format>
    <dc:creator>
     <cc:Agent>
      <dc:title>Matplotlib v3.11.1, https://matplotlib.org/</dc:title>
     </cc:Agent>
    </dc:creator>
   </cc:Work>
  </rdf:RDF>
 </metadata>
 <defs>
  <style type="text/css">*{stroke-linejoin: round; stroke-linecap: butt}</style>
 </defs>
 <g id="figure_1">
  <g id="patch_1">
   <path d="M 0 424.8 
L 575.1625 424.8 
L 575.1625 0 
L 0 0 
L 0 424.8 
z
" style="fill: none"/>
  </g>
  <g id="axes_1">
   <g id="patch_2">
    <path d="M 51.466484 190.058633 
L 567.9625 190.058633 
L 567.9625 22.318125 
L 51.466484 22.318125 
L 51.466484 190.058633 
z
" style="fill: none"/>
   </g>
   <g id="matplotlib.axis_1">
    <g id="xtick_1">
     <g id="line2d_1">
      <defs>
       <path id="m979f041dc7" d="M 0 0 
L 0 3.5 
" style="stroke: #7f7f7f; stroke-width: 1.8"/>
      </defs>
      <g>
       <use xlink:href="#m979f041dc7" x="74.943576" y="190.058633" style="fill: #7f7f7f; stroke: #7f7f7f; stroke-width: 1.8"/>
      </g>
     </g>
     <g id="text_1">
      <!-- 0.0 -->
      <g style="fill: #7f7f7f" transform="translate(66.992013 204.656289) scale(0.1 -0.1)">
       <defs>
        <path id="DejaVuSans-13" d="M 2034 4250 
Q 1547 4250 1301 3770 
Q 1056 3291 1056 2328 
Q 1056 1369 1301 889 
Q 1547 409 2034 409 
Q 2525 409 2770 889 
Q 3016 1369 3016 2328 
Q 3016 3291 2770 3770 
Q 2525 4250 2034 4250 
z
M 2034 4750 
Q 2819 4750 3233 4129 
Q 3647 3509 3647 2328 
Q 3647 1150 3233 529 
Q 2819 -91 2034 -91 
Q 1250 -91 836 529 
Q 422 1150 422 2328 
Q 422 3509 836 4129 
Q 1250 4750 2034 4750 
z
" transform="scale(0.015625)"/>
        <path id="DejaVuSans-11" d="M 684 794 
L 1344 794 
L 1344 0 
L 684 0 
L 684 794 
z
" transform="scale(0.015625)"/>
       </defs>
       <use xlink:href="#DejaVuSans-13"/>
       <use xlink:href="#DejaVuSans-11" transform="translate(63.625 0)"/>
       <use xlink:href="#DejaVuSans-13" transform="translate(95.40625 0)"/>
      </g>
     </g>
    </g>
    <g id="xtick_2">
     <g id="line2d_2">
      <g>
       <use xlink:href="#m979f041dc7" x="133.636305" y="190.058633" style="fill: #7f7f7f; stroke: #7f7f7f; stroke-width: 1.8"/>
      </g>
     </g>
     <g id="text_2">
      <!-- 2.5 -->
      <g style="fill: #7f7f7f" transform="translate(125.684743 204.656289) scale(0.1 -0.1)">
       <defs>
        <path id="DejaVuSans-15" d="M 1228 531 
L 3431 531 
L 3431 0 
L 469 0 
L 469 531 
Q 828 903 1448 1529 
Q 2069 2156 2228 2338 
Q 2531 2678 2651 2914 
Q 2772 3150 2772 3378 
Q 2772 3750 2511 3984 
Q 2250 4219 1831 4219 
Q 1534 4219 1204 4116 
Q 875 4013 500 3803 
L 500 4441 
Q 881 4594 1212 4672 
Q 1544 4750 1819 4750 
Q 2544 4750 2975 4387 
Q 3406 4025 3406 3419 
Q 3406 3131 3298 2873 
Q 3191 2616 2906 2266 
Q 2828 2175 2409 1742 
Q 1991 1309 1228 531 
z
" transform="scale(0.015625)"/>
        <path id="DejaVuSans-18" d="M 691 4666 
L 3169 4666 
L 3169 4134 
L 1269 4134 
L 1269 2991 
Q 1406 3038 1543 3061 
Q 1681 3084 1819 3084 
Q 2600 3084 3056 2656 
Q 3513 2228 3513 1497 
Q 3513 744 3044 326 
Q 2575 -91 1722 -91 
Q 1428 -91 1123 -41 
Q 819 9 494 109 
L 494 744 
Q 775 591 1075 516 
Q 1375 441 1709 441 
Q 2250 441 2565 725 
Q 2881 1009 2881 1497 
Q 2881 1984 2565 2268 
Q 2250 2553 1709 2553 
Q 1456 2553 1204 2497 
Q 953 2441 691 2322 
L 691 4666 
z
" transform="scale(0.015625)"/>
       </defs>
       <use xlink:href="#DejaVuSans-15"/>
       <use xlink:href="#DejaVuSans-11" transform="translate(63.625 0)"/>
       <use xlink:href="#DejaVuSans-18" transform="translate(95.40625 0)"/>
      </g>
     </g>
    </g>
    <g id="xtick_3">
     <g id="line2d_3">
      <g>
       <use xlink:href="#m979f041dc7" x="192.329034" y="190.058633" style="fill: #7f7f7f; stroke: #7f7f7f; stroke-width: 1.8"/>
      </g>
     </g>
     <g id="text_3">
      <!-- 5.0 -->
      <g style="fill: #7f7f7f" transform="translate(184.377472 204.656289) scale(0.1 -0.1)">
       <use xlink:href="#DejaVuSans-18"/>
       <use xlink:href="#DejaVuSans-11" transform="translate(63.625 0)"/>
       <use xlink:href="#DejaVuSans-13" transform="translate(95.40625 0)"/>
      </g>
     </g>
    </g>
    <g id="xtick_4">
     <g id="line2d_4">
      <g>
       <use xlink:href="#m979f041dc7" x="251.021763" y="190.058633" style="fill: #7f7f7f; stroke: #7f7f7f; stroke-width: 1.8"/>
      </g>
     </g>
     <g id="text_4">
      <!-- 7.5 -->
      <g style="fill: #7f7f7f" transform="translate(243.070201 204.656289) scale(0.1 -0.1)">
       <defs>
        <path id="DejaVuSans-1a" d="M 525 4666 
L 3525 4666 
L 3525 4397 
L 1831 0 
L 1172 0 
L 2766 4134 
L 525 4134 
L 525 4666 
z
" transform="scale(0.015625)"/>
       </defs>
       <use xlink:href="#DejaVuSans-1a"/>
       <use xlink:href="#DejaVuSans-11" transform="translate(63.625 0)"/>
       <use xlink:href="#DejaVuSans-18" transform="translate(95.40625 0)"/>
      </g>
     </g>
    </g>
    <g id="xtick_5">
     <g id="line2d_5">
      <g>
       <use xlink:href="#m979f041dc7" x="309.714492" y="190.058633" style="fill: #7f7f7f; stroke: #7f7f7f; stroke-width: 1.8"/>
      </g>
     </g>
     <g id="text_5">
      <!-- 10.0 -->
      <g style="fill: #7f7f7f" transform="translate(298.58168 204.656289) scale(0.1 -0.1)">
       <defs>
        <path id="DejaVuSans-14" d="M 794 531 
L 1825 531 
L 1825 4091 
L 703 3866 
L 703 4441 
L 1819 4666 
L 2450 4666 
L 2450 531 
L 3481 531 
L 3481 0 
L 794 0 
L 794 531 
z
" transform="scale(0.015625)"/>
       </defs>
       <use xlink:href="#DejaVuSans-14"/>
       <use xlink:href="#DejaVuSans-13" transform="translate(63.625 0)"/>
       <use xlink:href="#DejaVuSans-11" transform="translate(127.25 0)"/>
       <use xlink:href="#DejaVuSans-13" transform="translate(159.03125 0)"/>
      </g>
     </g>
    </g>
    <g id="xtick_6">
     <g id="line2d_6">
      <g>
       <use xlink:href="#m979f041dc7" x="368.407221" y="190.058633" style="fill: #7f7f7f; stroke: #7f7f7f; stroke-width: 1.8"/>
      </g>
     </g>
     <g id="text_6">
      <!-- 12.5 -->
      <g style="fill: #7f7f7f" transform="translate(357.274409 204.656289) scale(0.1 -0.1)">
       <use xlink:href="#DejaVuSans-14"/>
       <use xlink:href="#DejaVuSans-15" transform="translate(63.625 0)"/>
       <use xlink:href="#DejaVuSans-11" transform="translate(127.25 0)"/>
       <use xlink:href="#DejaVuSans-18" transform="translate(159.03125 0)"/>
      </g>
     </g>
    </g>
    <g id="xtick_7">
     <g id="line2d_7">
      <g>
       <use xlink:href="#m979f041dc7" x="427.09995" y="190.058633" style="fill: #7f7f7f; stroke: #7f7f7f; stroke-width: 1.8"/>
      </g>
     </g>
     <g id="text_7">
      <!-- 15.0 -->
      <g style="fill: #7f7f7f" transform="translate(415.967138 204.656289) scale(0.1 -0.1)">
       <use xlink:href="#DejaVuSans-14"/>
       <use xlink:href="#DejaVuSans-18" transform="translate(63.625 0)"/>
       <use xlink:href="#DejaVuSans-11" transform="translate(127.25 0)"/>
       <use xlink:href="#DejaVuSans-13" transform="translate(159.03125 0)"/>
      </g>
     </g>
    </g>
    <g id="xtick_8">
     <g id="line2d_8">
      <g>
       <use xlink:href="#m979f041dc7" x="485.792679" y="190.058633" style="fill: #7f7f7f; stroke: #7f7f7f; stroke-width: 1.8"/>
      </g>
     </g>
     <g id="text_8">
      <!-- 17.5 -->
      <g style="fill: #7f7f7f" transform="translate(474.659867 204.656289) scale(0.1 -0.1)">
       <use xlink:href="#DejaVuSans-14"/>
       <use xlink:href="#DejaVuSans-1a" transform="translate(63.625 0)"/>
       <use xlink:href="#DejaVuSans-11" transform="translate(127.25 0)"/>
       <use xlink:href="#DejaVuSans-18" transform="translate(159.03125 0)"/>
      </g>
     </g>
    </g>
    <g id="xtick_9">
     <g id="line2d_9">
      <g>
       <use xlink:href="#m979f041dc7" x="544.485408" y="190.058633" style="fill: #7f7f7f; stroke: #7f7f7f; stroke-width: 1.8"/>
      </g>
     </g>
     <g id="text_9">
      <!-- 20.0 -->
      <g style="fill: #7f7f7f" transform="translate(533.352596 204.656289) scale(0.1 -0.1)">
       <use xlink:href="#DejaVuSans-15"/>
       <use xlink:href="#DejaVuSans-13" transform="translate(63.625 0)"/>
       <use xlink:href="#DejaVuSans-11" transform="translate(127.25 0)"/>
       <use xlink:href="#DejaVuSans-13" transform="translate(159.03125 0)"/>
      </g>
     </g>
    </g>
   </g>
   <g id="matplotlib.axis_2">
    <g id="ytick_1">
     <g id="line2d_10">
      <defs>
       <path id="m9e339fd4f2" d="M 0 0 
L -3.5 0 
" style="stroke: #7f7f7f; stroke-width: 1.8"/>
      </defs>
      <g>
       <use xlink:href="#m9e339fd4f2" x="51.466484" y="182.434064" style="fill: #7f7f7f; stroke: #7f7f7f; stroke-width: 1.8"/>
      </g>
     </g>
     <g id="text_10">
      <!-- 0.00 -->
      <g style="fill: #7f7f7f" transform="translate(22.200859 186.232892) scale(0.1 -0.1)">
       <use xlink:href="#DejaVuSans-13"/>
       <use xlink:href="#DejaVuSans-11" transform="translate(63.625 0)"/>
       <use xlink:href="#DejaVuSans-13" transform="translate(95.40625 0)"/>
       <use xlink:href="#DejaVuSans-13" transform="translate(159.03125 0)"/>
      </g>
     </g>
    </g>
    <g id="ytick_2">
     <g id="line2d_11">
      <g>
       <use xlink:href="#m9e339fd4f2" x="51.466484" y="158.570481" style="fill: #7f7f7f; stroke: #7f7f7f; stroke-width: 1.8"/>
      </g>
     </g>
     <g id="text_11">
      <!-- 0.05 -->
      <g style="fill: #7f7f7f" transform="translate(22.200859 162.36931) scale(0.1 -0.1)">
       <use xlink:href="#DejaVuSans-13"/>
       <use xlink:href="#DejaVuSans-11" transform="translate(63.625 0)"/>
       <use xlink:href="#DejaVuSans-13" transform="translate(95.40625 0)"/>
       <use xlink:href="#DejaVuSans-18" transform="translate(159.03125 0)"/>
      </g>
     </g>
    </g>
    <g id="ytick_3">
     <g id="line2d_12">
      <g>
       <use xlink:href="#m9e339fd4f2" x="51.466484" y="134.706899" style="fill: #7f7f7f; stroke: #7f7f7f; stroke-width: 1.8"/>
      </g>
     </g>
     <g id="text_12">
      <!-- 0.10 -->
      <g style="fill: #7f7f7f" transform="translate(22.200859 138.505727) scale(0.1 -0.1)">
       <use xlink:href="#DejaVuSans-13"/>
       <use xlink:href="#DejaVuSans-11" transform="translate(63.625 0)"/>
       <use xlink:href="#DejaVuSans-14" transform="translate(95.40625 0)"/>
       <use xlink:href="#DejaVuSans-13" transform="translate(159.03125 0)"/>
      </g>
     </g>
    </g>
    <g id="ytick_4">
     <g id="line2d_13">
      <g>
       <use xlink:href="#m9e339fd4f2" x="51.466484" y="110.843316" style="fill: #7f7f7f; stroke: #7f7f7f; stroke-width: 1.8"/>
      </g>
     </g>
     <g id="text_13">
      <!-- 0.15 -->
      <g style="fill: #7f7f7f" transform="translate(22.200859 114.642144) scale(0.1 -0.1)">
       <use xlink:href="#DejaVuSans-13"/>
       <use xlink:href="#DejaVuSans-11" transform="translate(63.625 0)"/>
       <use xlink:href="#DejaVuSans-14" transform="translate(95.40625 0)"/>
       <use xlink:href="#DejaVuSans-18" transform="translate(159.03125 0)"/>
      </g>
     </g>
    </g>
    <g id="ytick_5">
     <g id="line2d_14">
      <g>
       <use xlink:href="#m9e339fd4f2" x="51.466484" y="86.979733" style="fill: #7f7f7f; stroke: #7f7f7f; stroke-width: 1.8"/>
      </g>
     </g>
     <g id="text_14">
      <!-- 0.20 -->
      <g style="fill: #7f7f7f" transform="translate(22.200859 90.778561) scale(0.1 -0.1)">
       <use xlink:href="#DejaVuSans-13"/>
       <use xlink:href="#DejaVuSans-11" transform="translate(63.625 0)"/>
       <use xlink:href="#DejaVuSans-15" transform="translate(95.40625 0)"/>
       <use xlink:href="#DejaVuSans-13" transform="translate(159.03125 0)"/>
      </g>
     </g>
    </g>
    <g id="ytick_6">
     <g id="line2d_15">
      <g>
       <use xlink:href="#m9e339fd4f2" x="51.466484" y="63.11615" style="fill: #7f7f7f; stroke: #7f7f7f; stroke-width: 1.8"/>
      </g>
     </g>
     <g id="text_15">
      <!-- 0.25 -->
      <g style="fill: #7f7f7f" transform="translate(22.200859 66.914978) scale(0.1 -0.1)">
       <use xlink:href="#DejaVuSans-13"/>
       <use xlink:href="#DejaVuSans-11" transform="translate(63.625 0)"/>
       <use xlink:href="#DejaVuSans-15" transform="translate(95.40625 0)"/>
       <use xlink:href="#DejaVuSans-18" transform="translate(159.03125 0)"/>
      </g>
     </g>
    </g>
    <g id="ytick_7">
     <g id="line2d_16">
      <g>
       <use xlink:href="#m9e339fd4f2" x="51.466484" y="39.252567" style="fill: #7f7f7f; stroke: #7f7f7f; stroke-width: 1.8"/>
      </g>
     </g>
     <g id="text_16">
      <!-- 0.30 -->
      <g style="fill: #7f7f7f" transform="translate(22.200859 43.051395) scale(0.1 -0.1)">
       <defs>
        <path id="DejaVuSans-16" d="M 2597 2516 
Q 3050 2419 3304 2112 
Q 3559 1806 3559 1356 
Q 3559 666 3084 287 
Q 2609 -91 1734 -91 
Q 1441 -91 1130 -33 
Q 819 25 488 141 
L 488 750 
Q 750 597 1062 519 
Q 1375 441 1716 441 
Q 2309 441 2620 675 
Q 2931 909 2931 1356 
Q 2931 1769 2642 2001 
Q 2353 2234 1838 2234 
L 1294 2234 
L 1294 2753 
L 1863 2753 
Q 2328 2753 2575 2939 
Q 2822 3125 2822 3475 
Q 2822 3834 2567 4026 
Q 2313 4219 1838 4219 
Q 1578 4219 1281 4162 
Q 984 4106 628 3988 
L 628 4550 
Q 988 4650 1302 4700 
Q 1616 4750 1894 4750 
Q 2613 4750 3031 4423 
Q 3450 4097 3450 3541 
Q 3450 3153 3228 2886 
Q 3006 2619 2597 2516 
z
" transform="scale(0.015625)"/>
       </defs>
       <use xlink:href="#DejaVuSans-13"/>
       <use xlink:href="#DejaVuSans-11" transform="translate(63.625 0)"/>
       <use xlink:href="#DejaVuSans-16" transform="translate(95.40625 0)"/>
       <use xlink:href="#DejaVuSans-13" transform="translate(159.03125 0)"/>
      </g>
     </g>
    </g>
    <g id="text_17">
     <!-- Position Error [m] -->
     <g style="fill: #7f7f7f" transform="translate(15.558281 154.153535) rotate(-90) scale(0.11 -0.11)">
      <defs>
       <path id="DejaVuSans-33" d="M 1259 4147 
L 1259 2394 
L 2053 2394 
Q 2494 2394 2734 2622 
Q 2975 2850 2975 3272 
Q 2975 3691 2734 3919 
Q 2494 4147 2053 4147 
L 1259 4147 
z
M 628 4666 
L 2053 4666 
Q 2838 4666 3239 4311 
Q 3641 3956 3641 3272 
Q 3641 2581 3239 2228 
Q 2838 1875 2053 1875 
L 1259 1875 
L 1259 0 
L 628 0 
L 628 4666 
z
" transform="scale(0.015625)"/>
       <path id="DejaVuSans-52" d="M 1959 3097 
Q 1497 3097 1228 2736 
Q 959 2375 959 1747 
Q 959 1119 1226 758 
Q 1494 397 1959 397 
Q 2419 397 2687 759 
Q 2956 1122 2956 1747 
Q 2956 2369 2687 2733 
Q 2419 3097 1959 3097 
z
M 1959 3584 
Q 2709 3584 3137 3096 
Q 3566 2609 3566 1747 
Q 3566 888 3137 398 
Q 2709 -91 1959 -91 
Q 1206 -91 779 398 
Q 353 888 353 1747 
Q 353 2609 779 3096 
Q 1206 3584 1959 3584 
z
" transform="scale(0.015625)"/>
       <path id="DejaVuSans-56" d="M 2834 3397 
L 2834 2853 
Q 2591 2978 2328 3040 
Q 2066 3103 1784 3103 
Q 1356 3103 1142 2972 
Q 928 2841 928 2578 
Q 928 2378 1081 2264 
Q 1234 2150 1697 2047 
L 1894 2003 
Q 2506 1872 2764 1633 
Q 3022 1394 3022 966 
Q 3022 478 2636 193 
Q 2250 -91 1575 -91 
Q 1294 -91 989 -36 
Q 684 19 347 128 
L 347 722 
Q 666 556 975 473 
Q 1284 391 1588 391 
Q 1994 391 2212 530 
Q 2431 669 2431 922 
Q 2431 1156 2273 1281 
Q 2116 1406 1581 1522 
L 1381 1569 
Q 847 1681 609 1914 
Q 372 2147 372 2553 
Q 372 3047 722 3315 
Q 1072 3584 1716 3584 
Q 2034 3584 2315 3537 
Q 2597 3491 2834 3397 
z
" transform="scale(0.015625)"/>
       <path id="DejaVuSans-4c" d="M 603 3500 
L 1178 3500 
L 1178 0 
L 603 0 
L 603 3500 
z
M 603 4863 
L 1178 4863 
L 1178 4134 
L 603 4134 
L 603 4863 
z
" transform="scale(0.015625)"/>
       <path id="DejaVuSans-57" d="M 1172 4494 
L 1172 3500 
L 2356 3500 
L 2356 3053 
L 1172 3053 
L 1172 1153 
Q 1172 725 1289 603 
Q 1406 481 1766 481 
L 2356 481 
L 2356 0 
L 1766 0 
Q 1100 0 847 248 
Q 594 497 594 1153 
L 594 3053 
L 172 3053 
L 172 3500 
L 594 3500 
L 594 4494 
L 1172 4494 
z
" transform="scale(0.015625)"/>
       <path id="DejaVuSans-51" d="M 3513 2113 
L 3513 0 
L 2938 0 
L 2938 2094 
Q 2938 2591 2744 2837 
Q 2550 3084 2163 3084 
Q 1697 3084 1428 2787 
Q 1159 2491 1159 1978 
L 1159 0 
L 581 0 
L 581 3500 
L 1159 3500 
L 1159 2956 
Q 1366 3272 1645 3428 
Q 1925 3584 2291 3584 
Q 2894 3584 3203 3211 
Q 3513 2838 3513 2113 
z
" transform="scale(0.015625)"/>
       <path id="DejaVuSans-3" transform="scale(0.015625)"/>
       <path id="DejaVuSans-28" d="M 628 4666 
L 3578 4666 
L 3578 4134 
L 1259 4134 
L 1259 2753 
L 3481 2753 
L 3481 2222 
L 1259 2222 
L 1259 531 
L 3634 531 
L 3634 0 
L 628 0 
L 628 4666 
z
" transform="scale(0.015625)"/>
       <path id="DejaVuSans-55" d="M 2631 2963 
Q 2534 3019 2420 3045 
Q 2306 3072 2169 3072 
Q 1681 3072 1420 2755 
Q 1159 2438 1159 1844 
L 1159 0 
L 581 0 
L 581 3500 
L 1159 3500 
L 1159 2956 
Q 1341 3275 1631 3429 
Q 1922 3584 2338 3584 
Q 2397 3584 2469 3576 
Q 2541 3569 2628 3553 
L 2631 2963 
z
" transform="scale(0.015625)"/>
       <path id="DejaVuSans-3e" d="M 550 4863 
L 1875 4863 
L 1875 4416 
L 1125 4416 
L 1125 -397 
L 1875 -397 
L 1875 -844 
L 550 -844 
L 550 4863 
z
" transform="scale(0.015625)"/>
       <path id="DejaVuSans-50" d="M 3328 2828 
Q 3544 3216 3844 3400 
Q 4144 3584 4550 3584 
Q 5097 3584 5394 3201 
Q 5691 2819 5691 2113 
L 5691 0 
L 5113 0 
L 5113 2094 
Q 5113 2597 4934 2840 
Q 4756 3084 4391 3084 
Q 3944 3084 3684 2787 
Q 3425 2491 3425 1978 
L 3425 0 
L 2847 0 
L 2847 2094 
Q 2847 2600 2669 2842 
Q 2491 3084 2119 3084 
Q 1678 3084 1418 2786 
Q 1159 2488 1159 1978 
L 1159 0 
L 581 0 
L 581 3500 
L 1159 3500 
L 1159 2956 
Q 1356 3278 1631 3431 
Q 1906 3584 2284 3584 
Q 2666 3584 2933 3390 
Q 3200 3197 3328 2828 
z
" transform="scale(0.015625)"/>
       <path id="DejaVuSans-40" d="M 1947 4863 
L 1947 -844 
L 622 -844 
L 622 -397 
L 1369 -397 
L 1369 4416 
L 622 4416 
L 622 4863 
L 1947 4863 
z
" transform="scale(0.015625)"/>
      </defs>
      <use xlink:href="#DejaVuSans-33"/>
      <use xlink:href="#DejaVuSans-52" transform="translate(56.734375 0)"/>
      <use xlink:href="#DejaVuSans-56" transform="translate(117.921875 0)"/>
      <use xlink:href="#DejaVuSans-4c" transform="translate(170.015625 0)"/>
      <use xlink:href="#DejaVuSans-57" transform="translate(197.796875 0)"/>
      <use xlink:href="#DejaVuSans-4c" transform="translate(237 0)"/>
      <use xlink:href="#DejaVuSans-52" transform="translate(264.78125 0)"/>
      <use xlink:href="#DejaVuSans-51" transform="translate(325.96875 0)"/>
      <use xlink:href="#DejaVuSans-3" transform="translate(389.34375 0)"/>
      <use xlink:href="#DejaVuSans-28" transform="translate(421.125 0)"/>
      <use xlink:href="#DejaVuSans-55" transform="translate(484.3125 0)"/>
      <use xlink:href="#DejaVuSans-55" transform="translate(523.671875 0)"/>
      <use xlink:href="#DejaVuSans-52" transform="translate(562.578125 0)"/>
      <use xlink:href="#DejaVuSans-55" transform="translate(623.765625 0)"/>
      <use xlink:href="#DejaVuSans-3" transform="translate(664.875 0)"/>
      <use xlink:href="#DejaVuSans-3e" transform="translate(696.65625 0)"/>
      <use xlink:href="#DejaVuSans-50" transform="translate(735.671875 0)"/>
      <use xlink:href="#DejaVuSans-40" transform="translate(833.078125 0)"/>
     </g>
    </g>
   </g>
   <g id="line2d_17">
    <path d="M 74.943576 182.434064 
L 75.178347 172.888631 
L 75.413118 29.942694 
L 75.88266 173.632126 
L 76.117431 151.533471 
L 76.352201 172.051406 
L 76.821743 153.439356 
L 77.056514 118.040033 
L 77.526056 124.264244 
L 77.760827 181.360733 
L 78.699911 169.374244 
L 79.404223 43.793977 
L 80.108536 93.033488 
L 80.812849 63.221093 
L 81.04762 98.470983 
L 81.751933 66.505735 
L 83.395329 144.412741 
L 83.6301 125.73352 
L 84.099642 162.043753 
L 84.803954 176.174191 
L 84.569184 157.935791 
L 85.038725 167.458689 
L 85.273496 155.679428 
L 85.508267 175.266262 
L 85.743038 163.110019 
L 85.977809 174.625563 
L 86.447351 150.562318 
L 86.916893 118.064958 
L 87.386435 135.313524 
L 88.560289 166.593967 
L 88.79506 153.157473 
L 89.264602 179.92778 
L 89.734144 179.271555 
L 89.968915 181.814845 
L 90.438456 154.856156 
L 90.907998 171.359775 
L 91.142769 180.883027 
L 91.37754 176.495266 
L 92.081853 153.404007 
L 91.847082 178.851249 
L 92.551395 155.815073 
L 93.255707 178.667668 
L 93.96002 171.247804 
L 94.194791 163.946051 
L 94.429562 182.070962 
L 94.899104 165.667158 
L 95.133875 167.710533 
L 95.603417 144.28715 
L 95.838188 161.614673 
L 96.072958 179.103695 
L 96.5425 152.384741 
L 97.012042 138.595394 
L 97.481584 140.883203 
L 99.12498 171.583731 
L 99.359751 171.321829 
L 100.533606 182.300215 
L 101.003148 178.606836 
L 101.47269 160.445624 
L 102.177002 165.254976 
L 102.411773 163.494482 
L 103.116086 130.5969 
L 103.350857 145.250235 
L 105.229024 180.481934 
L 103.820399 143.58973 
L 105.463795 178.450391 
L 105.933337 167.046266 
L 106.168108 180.959329 
L 106.402879 182.18974 
L 106.872421 149.271715 
L 107.576733 156.937354 
L 108.985359 180.05531 
L 109.454901 172.866274 
L 109.924443 163.682234 
L 110.863526 123.186334 
L 111.098297 137.327867 
L 111.80261 157.347266 
L 112.037381 138.368498 
L 112.272152 140.840181 
L 112.506923 140.542002 
L 112.741694 120.324665 
L 113.446006 141.265937 
L 113.915548 137.446748 
L 114.38509 155.838288 
L 115.089403 152.061516 
L 115.324174 152.634342 
L 115.558944 164.655803 
L 116.028486 149.264798 
L 116.498028 141.235272 
L 116.732799 151.693643 
L 117.906654 177.558403 
L 118.610966 170.860572 
L 118.845737 167.374162 
L 119.080508 171.593538 
L 119.315279 170.91637 
L 119.784821 178.145122 
L 121.428217 132.135486 
L 122.367301 151.632775 
L 122.836843 148.744117 
L 124.245468 114.297462 
L 124.480239 121.35686 
L 126.123636 175.845472 
L 127.532261 159.357203 
L 127.767032 170.22796 
L 128.471345 159.152186 
L 128.706116 159.499605 
L 129.410429 135.754535 
L 129.87997 153.242998 
L 130.584283 154.227271 
L 130.819054 147.938026 
L 131.992909 171.2558 
L 133.166763 145.698544 
L 133.401534 143.335397 
L 133.636305 130.525318 
L 134.340618 142.564036 
L 134.81016 153.29555 
L 135.279701 169.916937 
L 135.749243 161.577169 
L 135.984014 154.867976 
L 136.453556 163.341351 
L 136.688327 167.29057 
L 137.157869 161.101261 
L 137.39264 157.479328 
L 137.627411 167.560824 
L 138.096952 158.775565 
L 138.331723 159.181311 
L 138.801265 140.099481 
L 139.740349 143.134476 
L 139.97512 142.709467 
L 140.914203 98.087535 
L 141.383745 106.540877 
L 142.088058 106.470341 
L 142.5576 119.709564 
L 142.792371 119.233442 
L 144.435767 96.971864 
L 143.496684 120.95932 
L 144.670538 100.064145 
L 146.313935 121.76311 
L 146.783476 119.612741 
L 147.253018 87.24877 
L 148.192102 102.124241 
L 148.426873 101.265072 
L 148.896415 67.961959 
L 149.600727 71.034479 
L 150.774582 108.621472 
L 152.183207 80.206154 
L 152.417978 81.936307 
L 154.061375 129.419698 
L 154.296146 112.304035 
L 155.000458 126.184615 
L 156.174313 146.402279 
L 155.704771 124.227818 
L 156.409084 145.65528 
L 156.878626 149.947366 
L 157.113397 140.725271 
L 157.348168 166.268082 
L 157.582938 165.009764 
L 157.817709 157.122895 
L 158.287251 158.329247 
L 159.461106 176.422875 
L 159.930648 180.296263 
L 160.63496 151.66308 
L 160.869731 137.391249 
L 161.104502 152.134471 
L 161.574044 144.056618 
L 162.747899 167.208912 
L 162.98267 166.899725 
L 163.21744 166.157077 
L 164.391295 178.0188 
L 165.56515 165.186381 
L 165.799921 168.995281 
L 166.269462 143.636241 
L 166.973775 152.858897 
L 167.208546 146.336243 
L 167.443317 158.586057 
L 167.678088 158.563575 
L 167.912859 164.231056 
L 168.14763 157.872513 
L 169.556255 129.245066 
L 169.791026 137.963874 
L 171.199652 171.528852 
L 171.669193 182.322059 
L 172.373506 180.596958 
L 172.843048 177.475561 
L 173.547361 161.948351 
L 174.251674 167.624319 
L 174.721215 179.386375 
L 174.955986 166.255609 
L 175.425528 176.559699 
L 175.660299 180.817834 
L 175.89507 179.999761 
L 177.068925 146.458888 
L 177.303695 151.691905 
L 178.008008 166.756421 
L 178.242779 154.531232 
L 180.355717 109.841814 
L 180.590488 112.698732 
L 180.825259 112.563742 
L 181.06003 127.813514 
L 181.999114 126.318042 
L 183.64251 88.051313 
L 184.581594 143.222255 
L 185.051136 135.989901 
L 185.285907 122.704837 
L 185.990219 138.043399 
L 186.694532 129.846488 
L 186.929303 147.737599 
L 187.398845 123.215323 
L 187.633616 124.720633 
L 188.337929 106.223884 
L 188.80747 114.350207 
L 189.042241 114.904375 
L 189.511783 131.900093 
L 189.981325 128.471168 
L 190.216096 105.74799 
L 190.920409 105.772131 
L 192.329034 147.978093 
L 192.563805 139.714098 
L 193.033347 155.337987 
L 193.502889 156.412204 
L 194.676743 180.604861 
L 195.615827 178.07548 
L 196.32014 167.172489 
L 196.554911 175.63281 
L 197.024452 173.712711 
L 197.259223 177.444333 
L 197.493994 155.764866 
L 198.198307 176.375846 
L 198.667849 162.343829 
L 199.137391 177.25044 
L 199.606932 178.700019 
L 201.015558 154.798849 
L 202.189413 181.287078 
L 202.893725 169.280698 
L 203.128496 172.04256 
L 203.363267 181.428345 
L 204.06758 179.434292 
L 204.771893 180.047116 
L 206.884831 144.031496 
L 208.293456 180.203597 
L 208.528227 168.141578 
L 209.23254 173.122859 
L 209.467311 181.868579 
L 209.936853 175.500507 
L 210.406395 178.91111 
L 211.345478 157.75063 
L 212.284562 179.08933 
L 212.519333 162.115182 
L 213.223646 172.235339 
L 213.693187 180.346011 
L 214.867042 162.58064 
L 215.336584 170.021426 
L 215.806126 160.953763 
L 217.449522 181.976664 
L 218.623377 159.196075 
L 219.092919 168.348441 
L 219.327689 149.975118 
L 220.501544 115.214724 
L 220.971086 128.990431 
L 221.205857 133.811902 
L 221.440628 128.465138 
L 221.675399 132.895657 
L 222.849253 112.120139 
L 223.084024 112.733014 
L 223.788337 132.457041 
L 224.023108 122.653104 
L 224.49265 107.640262 
L 224.962191 117.167559 
L 225.431733 111.755087 
L 226.605588 153.275524 
L 227.779442 181.265573 
L 228.718526 142.212635 
L 229.188068 143.932573 
L 229.892381 174.832726 
L 230.361923 172.19974 
L 230.831464 154.922575 
L 231.301006 170.681725 
L 232.005319 181.144901 
L 232.474861 179.186153 
L 233.413944 161.949593 
L 234.118257 181.322384 
L 234.587799 173.680434 
L 234.82257 170.00878 
L 235.292112 178.11766 
L 235.526883 170.547926 
L 235.761654 175.389868 
L 236.465966 171.75229 
L 236.700737 164.491737 
L 237.170279 177.067545 
L 237.40505 179.937048 
L 237.639821 175.780718 
L 238.578905 143.869367 
L 239.048446 148.132267 
L 239.283217 151.830055 
L 240.222301 175.58454 
L 240.457072 161.336006 
L 241.161385 178.96304 
L 241.396156 177.559942 
L 242.804781 129.269438 
L 243.039552 146.568569 
L 243.978636 125.154081 
L 245.15249 173.691376 
L 245.387261 173.035241 
L 246.091574 164.969406 
L 246.326345 165.077316 
L 247.500199 139.551421 
L 247.969741 155.604745 
L 248.439283 142.052601 
L 248.674054 144.436236 
L 249.847909 180.337089 
L 250.082679 173.781373 
L 250.552221 181.208689 
L 250.786992 179.782471 
L 253.134701 123.425817 
L 253.369472 124.664414 
L 254.073785 147.046024 
L 254.308556 144.46634 
L 255.951952 102.10129 
L 256.186723 111.485622 
L 256.656265 110.770783 
L 256.891036 118.323262 
L 257.125807 103.989223 
L 257.360578 110.051797 
L 257.83012 106.017673 
L 259.003974 149.680326 
L 259.473516 147.69425 
L 261.116913 88.046278 
L 262.99508 60.678433 
L 264.403705 98.785175 
L 264.638476 88.278589 
L 264.873247 79.737874 
L 265.108018 92.472747 
L 266.516644 120.594213 
L 267.455727 108.3157 
L 268.16004 128.027993 
L 268.394811 116.762565 
L 268.864353 115.774069 
L 269.099124 111.799367 
L 269.333895 128.791782 
L 270.272978 128.337659 
L 270.507749 116.036057 
L 270.74252 132.248088 
L 271.916375 171.034496 
L 272.151146 160.636657 
L 273.090229 180.294357 
L 273.325 173.243819 
L 274.733626 143.453768 
L 274.968397 143.892957 
L 275.672709 153.39758 
L 275.437938 138.820227 
L 275.90748 145.414958 
L 276.611793 152.835227 
L 277.316106 181.104347 
L 277.785648 163.016887 
L 278.255189 134.872946 
L 278.959502 149.483177 
L 279.663815 175.729181 
L 279.898586 171.176407 
L 280.837669 152.269715 
L 281.307211 152.365848 
L 282.011524 169.859638 
L 282.950608 122.474729 
L 283.185379 124.174523 
L 285.767859 177.721701 
L 286.00263 177.621827 
L 286.941713 145.090324 
L 287.411255 158.728865 
L 288.115568 157.057302 
L 288.58511 173.981917 
L 289.289422 151.576956 
L 289.524193 160.094777 
L 289.758964 176.327908 
L 290.463277 171.857264 
L 291.16759 151.831498 
L 291.402361 164.037879 
L 291.637132 167.404891 
L 292.106673 140.50691 
L 292.576215 161.626592 
L 293.280528 180.77528 
L 293.515299 175.667201 
L 294.689154 150.309773 
L 295.628237 176.128655 
L 295.863008 163.494745 
L 296.097779 174.70127 
L 296.567321 159.750057 
L 296.802092 149.595123 
L 297.271634 164.471952 
L 297.506405 160.339526 
L 297.741175 155.876301 
L 297.975946 163.530781 
L 298.210717 169.168083 
L 298.680259 162.21816 
L 298.91503 168.042277 
L 299.384572 169.416274 
L 300.088885 153.078209 
L 301.49751 119.54815 
L 302.201823 112.20169 
L 303.845219 140.234978 
L 304.549532 117.968961 
L 305.019074 122.969062 
L 305.723387 139.874199 
L 307.601554 177.409738 
L 307.836325 175.498329 
L 308.071096 178.000347 
L 308.305867 182.118081 
L 308.775409 177.233067 
L 309.24495 170.271452 
L 309.479721 181.909728 
L 310.184034 178.810572 
L 311.357889 137.572236 
L 313.236056 117.187186 
L 314.17514 156.68841 
L 314.644681 152.356105 
L 314.879452 164.942719 
L 315.583765 153.154986 
L 315.818536 153.982295 
L 316.053307 135.786677 
L 316.75762 154.551659 
L 316.992391 139.934384 
L 317.461932 120.019006 
L 317.696703 138.580452 
L 317.931474 144.553396 
L 318.635787 100.633596 
L 318.870558 116.898483 
L 319.574871 152.112789 
L 320.044412 151.932274 
L 320.748725 132.044859 
L 321.218267 141.118747 
L 321.453038 138.503784 
L 321.687809 142.950652 
L 321.92258 139.20548 
L 322.157351 119.14916 
L 322.861663 133.567698 
L 323.331205 126.489357 
L 323.565976 129.828857 
L 324.270289 145.89866 
L 324.974602 144.016742 
L 325.209373 145.347499 
L 325.678914 116.408678 
L 326.383227 129.195824 
L 326.617998 127.938211 
L 327.322311 141.323003 
L 328.261395 101.469001 
L 328.496165 119.817462 
L 329.904791 135.667894 
L 330.139562 131.199683 
L 330.374333 139.773579 
L 331.782958 177.786308 
L 333.895897 142.774082 
L 335.069751 161.382178 
L 335.304522 156.875432 
L 335.539293 160.620126 
L 335.774064 173.346061 
L 336.008835 154.789391 
L 336.478377 163.357988 
L 336.713148 131.438856 
L 337.41746 158.503487 
L 337.652231 148.812029 
L 337.887002 158.19125 
L 338.356544 180.627933 
L 339.060857 172.78209 
L 339.295628 172.766061 
L 339.765169 180.899969 
L 339.99994 176.544321 
L 340.234711 163.757843 
L 340.469482 177.324789 
L 340.939024 172.411586 
L 341.643337 176.246447 
L 341.408566 169.996876 
L 341.878108 172.253052 
L 342.34765 173.823741 
L 343.756275 144.159381 
L 345.164901 181.630619 
L 346.338755 162.727994 
L 346.573526 170.512234 
L 346.808297 144.005204 
L 347.277839 177.14423 
L 347.51261 172.277976 
L 347.747381 180.664073 
L 348.216922 178.935891 
L 348.451693 160.810369 
L 349.156006 180.672665 
L 349.390777 181.658768 
L 350.09509 165.997154 
L 350.564632 178.543894 
L 350.799403 179.251665 
L 352.912341 118.35173 
L 353.147112 124.969513 
L 353.381883 135.389374 
L 353.851424 122.750617 
L 354.086195 130.410412 
L 354.320966 126.415137 
L 354.555737 137.018086 
L 355.025279 130.773186 
L 355.26005 146.279942 
L 355.494821 124.871743 
L 355.964363 131.519177 
L 357.607759 85.110815 
L 359.485926 126.98619 
L 359.720697 118.240546 
L 360.659781 91.235879 
L 360.894552 92.824612 
L 362.068406 125.333943 
L 362.303177 106.081293 
L 362.772719 89.287648 
L 363.242261 97.315008 
L 364.885657 144.739179 
L 365.824741 172.497567 
L 366.294283 163.14869 
L 366.529054 161.631522 
L 366.763825 161.808883 
L 367.468138 167.889574 
L 367.937679 167.724393 
L 368.17245 156.666833 
L 368.641992 162.96225 
L 369.815847 179.959697 
L 370.75493 160.177754 
L 370.989701 166.785586 
L 371.459243 177.192231 
L 371.928785 157.215967 
L 372.398327 168.062986 
L 372.867869 165.748324 
L 373.572181 180.63582 
L 374.276494 154.868599 
L 374.746036 163.466943 
L 374.980807 162.63544 
L 375.215578 168.751158 
L 375.68512 162.393022 
L 376.389432 148.177105 
L 377.093745 180.392832 
L 377.328516 163.450859 
L 377.563287 142.398163 
L 378.2676 158.792268 
L 378.502371 159.657686 
L 379.206683 180.031085 
L 379.441454 174.256684 
L 379.676225 171.465068 
L 379.910996 173.905139 
L 380.380538 180.956393 
L 380.85008 179.552894 
L 382.023934 157.915803 
L 382.493476 164.121338 
L 382.728247 147.439489 
L 383.43256 165.35785 
L 383.902102 172.652366 
L 384.136873 172.061472 
L 384.371644 160.887728 
L 384.841185 177.951959 
L 385.310727 162.300024 
L 386.249811 145.889833 
L 386.484582 155.024096 
L 386.954124 171.493945 
L 387.188895 180.887063 
L 387.893207 176.899867 
L 389.301833 155.057905 
L 389.771375 158.078901 
L 390.006146 152.707678 
L 392.119084 96.984744 
L 392.353855 108.141665 
L 392.588626 128.020048 
L 393.292938 120.924934 
L 393.76248 109.22108 
L 393.997251 121.668285 
L 395.171106 179.950101 
L 395.405877 165.305554 
L 396.110189 143.317833 
L 395.875418 171.655578 
L 396.579731 158.669294 
L 396.814502 172.660343 
L 397.518815 167.320935 
L 397.753586 167.240713 
L 397.988357 168.563677 
L 398.92744 151.171793 
L 399.162211 164.343758 
L 399.866524 151.062379 
L 400.101295 146.993722 
L 400.336066 149.017892 
L 401.50992 181.779884 
L 402.214233 160.875202 
L 402.449004 172.869624 
L 402.683775 173.685283 
L 402.918546 180.654538 
L 403.153317 170.014216 
L 403.388088 163.902186 
L 403.85763 174.56073 
L 404.0924 176.191811 
L 404.327171 171.720493 
L 405.031484 153.379701 
L 405.266255 169.351511 
L 405.501026 180.198713 
L 405.970568 171.687899 
L 406.909651 164.683195 
L 407.379193 176.197818 
L 407.613964 162.148383 
L 407.848735 158.17212 
L 408.318277 180.131617 
L 409.02259 176.977114 
L 409.257361 181.94726 
L 409.492132 174.413807 
L 409.726902 175.116269 
L 410.196444 150.336715 
L 410.665986 171.400564 
L 411.60507 156.067653 
L 412.309383 133.50594 
L 412.544153 136.043362 
L 413.718008 165.604723 
L 413.952779 160.236597 
L 414.18755 164.281659 
L 414.422321 179.20557 
L 414.657092 154.920113 
L 414.891863 160.969968 
L 415.126634 153.332217 
L 415.361404 173.477174 
L 415.596175 177.362974 
L 416.065717 160.058399 
L 416.77003 166.725125 
L 417.004801 168.592438 
L 417.239572 162.742061 
L 417.943885 129.651107 
L 418.413426 146.389718 
L 420.056823 136.160527 
L 420.291594 136.030178 
L 421.230677 180.201633 
L 421.465448 178.369683 
L 422.404532 178.609559 
L 423.108845 153.330652 
L 424.282699 178.515635 
L 424.51747 177.365229 
L 424.752241 182.053964 
L 424.987012 167.309157 
L 425.456554 181.026086 
L 426.865179 172.969619 
L 427.09995 174.478606 
L 427.804263 156.442415 
L 428.273805 157.231522 
L 428.508576 153.357493 
L 428.743347 161.644155 
L 428.978118 168.191114 
L 429.447659 157.183321 
L 429.68243 158.545525 
L 430.621514 182.154854 
L 430.856285 177.79897 
L 431.325827 143.716285 
L 432.03014 164.459947 
L 433.203994 140.927795 
L 433.438765 142.850931 
L 434.847391 182.053929 
L 435.551703 175.884869 
L 436.490787 156.448173 
L 436.021245 177.820964 
L 436.725558 167.657169 
L 437.664642 177.728686 
L 437.899412 164.762214 
L 438.134183 180.824544 
L 438.368954 173.715849 
L 438.603725 181.854616 
L 439.073267 169.662462 
L 439.77758 162.07636 
L 440.247122 179.683671 
L 440.716663 171.869764 
L 441.186205 167.979581 
L 441.420976 178.065358 
L 441.890518 156.982064 
L 442.36006 152.142899 
L 443.533914 181.924656 
L 444.472998 165.622539 
L 444.707769 175.69511 
L 444.94254 176.797573 
L 445.177311 174.78445 
L 445.881624 168.093068 
L 446.116394 181.461726 
L 446.820707 168.761244 
L 448.229333 137.396541 
L 449.872729 175.266809 
L 451.281355 139.238775 
L 451.750896 130.736966 
L 452.924751 116.090397 
L 453.863835 127.596074 
L 453.629064 114.192389 
L 454.098606 123.604073 
L 454.333377 114.814772 
L 454.568147 135.053949 
L 454.802918 139.328523 
L 455.037689 138.712315 
L 455.976773 83.677291 
L 456.446315 96.195951 
L 459.733108 158.185713 
L 460.672191 125.887477 
L 460.906962 129.115263 
L 462.78513 182.330299 
L 463.0199 179.759871 
L 463.489442 180.061865 
L 464.428526 166.495371 
L 465.36761 181.04728 
L 466.071922 178.645521 
L 467.715319 152.381835 
L 467.95009 154.857137 
L 468.184861 178.937469 
L 468.889173 177.06285 
L 469.123944 171.3317 
L 469.358715 181.125873 
L 469.593486 179.099333 
L 469.828257 178.938099 
L 470.063028 173.325648 
L 470.53257 176.197554 
L 470.767341 181.672874 
L 471.706424 181.335443 
L 473.11505 160.790599 
L 473.584592 173.62278 
L 473.819363 156.083598 
L 474.758446 145.999243 
L 474.523675 161.736163 
L 474.993217 148.93266 
L 476.167072 165.501985 
L 476.636614 160.695288 
L 478.749552 107.25695 
L 479.453865 116.189729 
L 480.392948 144.814137 
L 480.627719 141.086047 
L 480.86249 131.535885 
L 481.332032 151.664734 
L 482.975428 170.901386 
L 483.210199 159.860719 
L 483.914512 169.651632 
L 484.149283 182.277714 
L 484.618825 165.848328 
L 486.262221 125.789764 
L 486.496992 126.006344 
L 488.140388 83.738521 
L 488.60993 96.33655 
L 489.079472 87.020131 
L 489.314243 82.303388 
L 489.783785 92.665175 
L 490.018556 92.967804 
L 490.957639 59.156568 
L 491.427181 75.631567 
L 491.661952 89.619783 
L 492.366265 79.307835 
L 492.601036 65.599345 
L 493.070578 79.8184 
L 495.418287 144.590378 
L 496.357371 156.183581 
L 496.592141 152.2279 
L 497.061683 155.762094 
L 498.000767 180.416004 
L 498.235538 172.091364 
L 498.70508 181.817134 
L 499.409392 176.908736 
L 499.878934 168.293886 
L 500.583247 172.016918 
L 500.818018 180.487452 
L 501.757102 179.700039 
L 502.461414 180.954137 
L 505.513436 125.003837 
L 506.922062 98.211867 
L 507.156833 93.176363 
L 507.391604 100.418556 
L 507.626375 104.914909 
L 508.095916 96.821701 
L 508.330687 104.170157 
L 509.504542 85.297905 
L 510.208855 79.850623 
L 510.913167 116.276956 
L 511.147938 111.605372 
L 511.61748 120.262771 
L 511.852251 121.368165 
L 513.730418 97.07097 
L 514.904273 126.293495 
L 515.139044 115.202226 
L 515.843357 126.755157 
L 517.017211 91.170306 
L 517.486753 92.856615 
L 519.599691 181.794875 
L 521.008317 157.18899 
L 521.243088 157.937027 
L 521.71263 162.343333 
L 522.182171 179.427704 
L 522.651713 171.659195 
L 522.886484 165.209556 
L 523.356026 166.02355 
L 523.590797 173.532134 
L 524.060339 172.919874 
L 524.764651 143.43468 
L 525.468964 150.152505 
L 525.703735 154.423462 
L 525.938506 148.801038 
L 527.347131 105.876757 
L 528.286215 108.704387 
L 529.225299 121.495417 
L 529.46007 116.029239 
L 530.868695 83.18104 
L 531.103466 83.922898 
L 531.807779 107.666194 
L 532.04255 95.721127 
L 532.277321 95.032635 
L 532.746863 120.593378 
L 533.451175 116.857298 
L 533.685946 111.217603 
L 533.920717 121.939673 
L 534.155488 125.31365 
L 534.390259 117.940774 
L 534.62503 117.202131 
L 534.859801 107.710694 
L 535.094572 125.634488 
L 535.329343 122.090595 
L 535.564114 120.673163 
L 536.972739 153.13929 
L 537.20751 150.367604 
L 539.085677 86.490651 
L 539.555219 103.816998 
L 540.494303 118.24883 
L 540.729074 107.600784 
L 540.963845 118.613797 
L 541.668157 137.38144 
L 542.137699 135.139589 
L 543.546325 169.565041 
L 543.781096 163.809365 
L 544.015867 162.580529 
L 544.485408 165.324864 
L 544.485408 165.324864 
" clip-path="url(#p90527677e6)" style="fill: none; stroke: #e41a1c; stroke-width: 2; stroke-linecap: square"/>
   </g>
   <g id="patch_3">
    <path d="M 51.466484 190.058633 
L 51.466484 22.318125 
" style="fill: none; stroke: #7f7f7f; stroke-width: 1.8; stroke-linejoin: miter; stroke-linecap: square"/>
   </g>
   <g id="patch_4">
    <path d="M 51.466484 190.058633 
L 567.9625 190.058633 
" style="fill: none; stroke: #7f7f7f; stroke-width: 1.8; stroke-linejoin: miter; stroke-linecap: square"/>
   </g>
   <g id="text_18">
    <!-- Kalman Filter Estimation Error -->
    <g style="fill: #7f7f7f" transform="translate(206.701055 16.318125) scale(0.12 -0.12)">
     <defs>
      <path id="DejaVuSans-Bold-2e" d="M 588 4666 
L 1791 4666 
L 1791 2963 
L 3525 4666 
L 4922 4666 
L 2675 2456 
L 5153 0 
L 3647 0 
L 1791 1838 
L 1791 0 
L 588 0 
L 588 4666 
z
" transform="scale(0.015625)"/>
      <path id="DejaVuSans-Bold-44" d="M 2106 1575 
Q 1756 1575 1579 1456 
Q 1403 1338 1403 1106 
Q 1403 894 1545 773 
Q 1688 653 1941 653 
Q 2256 653 2472 879 
Q 2688 1106 2688 1447 
L 2688 1575 
L 2106 1575 
z
M 3816 1997 
L 3816 0 
L 2688 0 
L 2688 519 
Q 2463 200 2181 54 
Q 1900 -91 1497 -91 
Q 953 -91 614 226 
Q 275 544 275 1050 
Q 275 1666 698 1953 
Q 1122 2241 2028 2241 
L 2688 2241 
L 2688 2328 
Q 2688 2594 2478 2717 
Q 2269 2841 1825 2841 
Q 1466 2841 1156 2769 
Q 847 2697 581 2553 
L 581 3406 
Q 941 3494 1303 3539 
Q 1666 3584 2028 3584 
Q 2975 3584 3395 3211 
Q 3816 2838 3816 1997 
z
" transform="scale(0.015625)"/>
      <path id="DejaVuSans-Bold-4f" d="M 538 4863 
L 1656 4863 
L 1656 0 
L 538 0 
L 538 4863 
z
" transform="scale(0.015625)"/>
      <path id="DejaVuSans-Bold-50" d="M 3781 2919 
Q 3994 3244 4286 3414 
Q 4578 3584 4928 3584 
Q 5531 3584 5847 3212 
Q 6163 2841 6163 2131 
L 6163 0 
L 5038 0 
L 5038 1825 
Q 5041 1866 5042 1909 
Q 5044 1953 5044 2034 
Q 5044 2406 4934 2573 
Q 4825 2741 4581 2741 
Q 4263 2741 4089 2478 
Q 3916 2216 3909 1719 
L 3909 0 
L 2784 0 
L 2784 1825 
Q 2784 2406 2684 2573 
Q 2584 2741 2328 2741 
Q 2006 2741 1831 2477 
Q 1656 2213 1656 1722 
L 1656 0 
L 531 0 
L 531 3500 
L 1656 3500 
L 1656 2988 
Q 1863 3284 2130 3434 
Q 2397 3584 2719 3584 
Q 3081 3584 3359 3409 
Q 3638 3234 3781 2919 
z
" transform="scale(0.015625)"/>
      <path id="DejaVuSans-Bold-51" d="M 4056 2131 
L 4056 0 
L 2931 0 
L 2931 347 
L 2931 1631 
Q 2931 2084 2911 2256 
Q 2891 2428 2841 2509 
Q 2775 2619 2662 2680 
Q 2550 2741 2406 2741 
Q 2056 2741 1856 2470 
Q 1656 2200 1656 1722 
L 1656 0 
L 538 0 
L 538 3500 
L 1656 3500 
L 1656 2988 
Q 1909 3294 2193 3439 
Q 2478 3584 2822 3584 
Q 3428 3584 3742 3212 
Q 4056 2841 4056 2131 
z
" transform="scale(0.015625)"/>
      <path id="DejaVuSans-Bold-3" transform="scale(0.015625)"/>
      <path id="DejaVuSans-Bold-29" d="M 588 4666 
L 3834 4666 
L 3834 3756 
L 1791 3756 
L 1791 2888 
L 3713 2888 
L 3713 1978 
L 1791 1978 
L 1791 0 
L 588 0 
L 588 4666 
z
" transform="scale(0.015625)"/>
      <path id="DejaVuSans-Bold-4c" d="M 538 3500 
L 1656 3500 
L 1656 0 
L 538 0 
L 538 3500 
z
M 538 4863 
L 1656 4863 
L 1656 3950 
L 538 3950 
L 538 4863 
z
" transform="scale(0.015625)"/>
      <path id="DejaVuSans-Bold-57" d="M 1759 4494 
L 1759 3500 
L 2913 3500 
L 2913 2700 
L 1759 2700 
L 1759 1216 
Q 1759 972 1856 886 
Q 1953 800 2241 800 
L 2816 800 
L 2816 0 
L 1856 0 
Q 1194 0 917 276 
Q 641 553 641 1216 
L 641 2700 
L 84 2700 
L 84 3500 
L 641 3500 
L 641 4494 
L 1759 4494 
z
" transform="scale(0.015625)"/>
      <path id="DejaVuSans-Bold-48" d="M 4031 1759 
L 4031 1441 
L 1416 1441 
Q 1456 1047 1700 850 
Q 1944 653 2381 653 
Q 2734 653 3104 758 
Q 3475 863 3866 1075 
L 3866 213 
Q 3469 63 3072 -14 
Q 2675 -91 2278 -91 
Q 1328 -91 801 392 
Q 275 875 275 1747 
Q 275 2603 792 3093 
Q 1309 3584 2216 3584 
Q 3041 3584 3536 3087 
Q 4031 2591 4031 1759 
z
M 2881 2131 
Q 2881 2450 2695 2645 
Q 2509 2841 2209 2841 
Q 1884 2841 1681 2658 
Q 1478 2475 1428 2131 
L 2881 2131 
z
" transform="scale(0.015625)"/>
      <path id="DejaVuSans-Bold-55" d="M 3138 2547 
Q 2991 2616 2845 2648 
Q 2700 2681 2553 2681 
Q 2122 2681 1889 2404 
Q 1656 2128 1656 1613 
L 1656 0 
L 538 0 
L 538 3500 
L 1656 3500 
L 1656 2925 
Q 1872 3269 2151 3426 
Q 2431 3584 2822 3584 
Q 2878 3584 2943 3579 
Q 3009 3575 3134 3559 
L 3138 2547 
z
" transform="scale(0.015625)"/>
      <path id="DejaVuSans-Bold-28" d="M 588 4666 
L 3834 4666 
L 3834 3756 
L 1791 3756 
L 1791 2888 
L 3713 2888 
L 3713 1978 
L 1791 1978 
L 1791 909 
L 3903 909 
L 3903 0 
L 588 0 
L 588 4666 
z
" transform="scale(0.015625)"/>
      <path id="DejaVuSans-Bold-56" d="M 3272 3391 
L 3272 2541 
Q 2913 2691 2578 2766 
Q 2244 2841 1947 2841 
Q 1628 2841 1473 2761 
Q 1319 2681 1319 2516 
Q 1319 2381 1436 2309 
Q 1553 2238 1856 2203 
L 2053 2175 
Q 2913 2066 3209 1816 
Q 3506 1566 3506 1031 
Q 3506 472 3093 190 
Q 2681 -91 1863 -91 
Q 1516 -91 1145 -36 
Q 775 19 384 128 
L 384 978 
Q 719 816 1070 734 
Q 1422 653 1784 653 
Q 2113 653 2278 743 
Q 2444 834 2444 1013 
Q 2444 1163 2330 1236 
Q 2216 1309 1875 1350 
L 1678 1375 
Q 931 1469 631 1722 
Q 331 1975 331 2491 
Q 331 3047 712 3315 
Q 1094 3584 1881 3584 
Q 2191 3584 2531 3537 
Q 2872 3491 3272 3391 
z
" transform="scale(0.015625)"/>
      <path id="DejaVuSans-Bold-52" d="M 2203 2784 
Q 1831 2784 1636 2517 
Q 1441 2250 1441 1747 
Q 1441 1244 1636 976 
Q 1831 709 2203 709 
Q 2569 709 2762 976 
Q 2956 1244 2956 1747 
Q 2956 2250 2762 2517 
Q 2569 2784 2203 2784 
z
M 2203 3584 
Q 3106 3584 3614 3096 
Q 4122 2609 4122 1747 
Q 4122 884 3614 396 
Q 3106 -91 2203 -91 
Q 1297 -91 786 396 
Q 275 884 275 1747 
Q 275 2609 786 3096 
Q 1297 3584 2203 3584 
z
" transform="scale(0.015625)"/>
     </defs>
     <use xlink:href="#DejaVuSans-Bold-2e"/>
     <use xlink:href="#DejaVuSans-Bold-44" transform="translate(77.484375 0)"/>
     <use xlink:href="#DejaVuSans-Bold-4f" transform="translate(144.96875 0)"/>
     <use xlink:href="#DejaVuSans-Bold-50" transform="translate(179.25 0)"/>
     <use xlink:href="#DejaVuSans-Bold-44" transform="translate(283.453125 0)"/>
     <use xlink:href="#DejaVuSans-Bold-51" transform="translate(350.9375 0)"/>
     <use xlink:href="#DejaVuSans-Bold-3" transform="translate(422.125 0)"/>
     <use xlink:href="#DejaVuSans-Bold-29" transform="translate(456.9375 0)"/>
     <use xlink:href="#DejaVuSans-Bold-4c" transform="translate(525.25 0)"/>
     <use xlink:href="#DejaVuSans-Bold-4f" transform="translate(559.53125 0)"/>
     <use xlink:href="#DejaVuSans-Bold-57" transform="translate(593.8125 0)"/>
     <use xlink:href="#DejaVuSans-Bold-48" transform="translate(641.609375 0)"/>
     <use xlink:href="#DejaVuSans-Bold-55" transform="translate(709.4375 0)"/>
     <use xlink:href="#DejaVuSans-Bold-3" transform="translate(758.75 0)"/>
     <use xlink:href="#DejaVuSans-Bold-28" transform="translate(793.5625 0)"/>
     <use xlink:href="#DejaVuSans-Bold-56" transform="translate(861.875 0)"/>
     <use xlink:href="#DejaVuSans-Bold-57" transform="translate(921.390625 0)"/>
     <use xlink:href="#DejaVuSans-Bold-4c" transform="translate(969.1875 0)"/>
     <use xlink:href="#DejaVuSans-Bold-50" transform="translate(1003.46875 0)"/>
     <use xlink:href="#DejaVuSans-Bold-44" transform="translate(1107.671875 0)"/>
     <use xlink:href="#DejaVuSans-Bold-57" transform="translate(1175.15625 0)"/>
     <use xlink:href="#DejaVuSans-Bold-4c" transform="translate(1222.953125 0)"/>
     <use xlink:href="#DejaVuSans-Bold-52" transform="translate(1257.234375 0)"/>
     <use xlink:href="#DejaVuSans-Bold-51" transform="translate(1325.9375 0)"/>
     <use xlink:href="#DejaVuSans-Bold-3" transform="translate(1397.125 0)"/>
     <use xlink:href="#DejaVuSans-Bold-28" transform="translate(1431.9375 0)"/>
     <use xlink:href="#DejaVuSans-Bold-55" transform="translate(1500.25 0)"/>
     <use xlink:href="#DejaVuSans-Bold-55" transform="translate(1549.5625 0)"/>
     <use xlink:href="#DejaVuSans-Bold-52" transform="translate(1598.875 0)"/>
     <use xlink:href="#DejaVuSans-Bold-55" transform="translate(1667.578125 0)"/>
    </g>
   </g>
  </g>
  <g id="axes_2">
   <g id="patch_5">
    <path d="M 51.466484 385.599141 
L 567.9625 385.599141 
L 567.9625 217.858633 
L 51.466484 217.858633 
L 51.466484 385.599141 
z
" style="fill: none"/>
   </g>
   <g id="matplotlib.axis_3">
    <g id="xtick_10">
     <g id="line2d_18">
      <g>
       <use xlink:href="#m979f041dc7" x="74.943576" y="385.599141" style="fill: #7f7f7f; stroke: #7f7f7f; stroke-width: 1.8"/>
      </g>
     </g>
     <g id="text_19">
      <!-- 0.0 -->
      <g style="fill: #7f7f7f" transform="translate(66.992013 400.196797) scale(0.1 -0.1)">
       <use xlink:href="#DejaVuSans-13"/>
       <use xlink:href="#DejaVuSans-11" transform="translate(63.625 0)"/>
       <use xlink:href="#DejaVuSans-13" transform="translate(95.40625 0)"/>
      </g>
     </g>
    </g>
    <g id="xtick_11">
     <g id="line2d_19">
      <g>
       <use xlink:href="#m979f041dc7" x="133.636305" y="385.599141" style="fill: #7f7f7f; stroke: #7f7f7f; stroke-width: 1.8"/>
      </g>
     </g>
     <g id="text_20">
      <!-- 2.5 -->
      <g style="fill: #7f7f7f" transform="translate(125.684743 400.196797) scale(0.1 -0.1)">
       <use xlink:href="#DejaVuSans-15"/>
       <use xlink:href="#DejaVuSans-11" transform="translate(63.625 0)"/>
       <use xlink:href="#DejaVuSans-18" transform="translate(95.40625 0)"/>
      </g>
     </g>
    </g>
    <g id="xtick_12">
     <g id="line2d_20">
      <g>
       <use xlink:href="#m979f041dc7" x="192.329034" y="385.599141" style="fill: #7f7f7f; stroke: #7f7f7f; stroke-width: 1.8"/>
      </g>
     </g>
     <g id="text_21">
      <!-- 5.0 -->
      <g style="fill: #7f7f7f" transform="translate(184.377472 400.196797) scale(0.1 -0.1)">
       <use xlink:href="#DejaVuSans-18"/>
       <use xlink:href="#DejaVuSans-11" transform="translate(63.625 0)"/>
       <use xlink:href="#DejaVuSans-13" transform="translate(95.40625 0)"/>
      </g>
     </g>
    </g>
    <g id="xtick_13">
     <g id="line2d_21">
      <g>
       <use xlink:href="#m979f041dc7" x="251.021763" y="385.599141" style="fill: #7f7f7f; stroke: #7f7f7f; stroke-width: 1.8"/>
      </g>
     </g>
     <g id="text_22">
      <!-- 7.5 -->
      <g style="fill: #7f7f7f" transform="translate(243.070201 400.196797) scale(0.1 -0.1)">
       <use xlink:href="#DejaVuSans-1a"/>
       <use xlink:href="#DejaVuSans-11" transform="translate(63.625 0)"/>
       <use xlink:href="#DejaVuSans-18" transform="translate(95.40625 0)"/>
      </g>
     </g>
    </g>
    <g id="xtick_14">
     <g id="line2d_22">
      <g>
       <use xlink:href="#m979f041dc7" x="309.714492" y="385.599141" style="fill: #7f7f7f; stroke: #7f7f7f; stroke-width: 1.8"/>
      </g>
     </g>
     <g id="text_23">
      <!-- 10.0 -->
      <g style="fill: #7f7f7f" transform="translate(298.58168 400.196797) scale(0.1 -0.1)">
       <use xlink:href="#DejaVuSans-14"/>
       <use xlink:href="#DejaVuSans-13" transform="translate(63.625 0)"/>
       <use xlink:href="#DejaVuSans-11" transform="translate(127.25 0)"/>
       <use xlink:href="#DejaVuSans-13" transform="translate(159.03125 0)"/>
      </g>
     </g>
    </g>
    <g id="xtick_15">
     <g id="line2d_23">
      <g>
       <use xlink:href="#m979f041dc7" x="368.407221" y="385.599141" style="fill: #7f7f7f; stroke: #7f7f7f; stroke-width: 1.8"/>
      </g>
     </g>
     <g id="text_24">
      <!-- 12.5 -->
      <g style="fill: #7f7f7f" transform="translate(357.274409 400.196797) scale(0.1 -0.1)">
       <use xlink:href="#DejaVuSans-14"/>
       <use xlink:href="#DejaVuSans-15" transform="translate(63.625 0)"/>
       <use xlink:href="#DejaVuSans-11" transform="translate(127.25 0)"/>
       <use xlink:href="#DejaVuSans-18" transform="translate(159.03125 0)"/>
      </g>
     </g>
    </g>
    <g id="xtick_16">
     <g id="line2d_24">
      <g>
       <use xlink:href="#m979f041dc7" x="427.09995" y="385.599141" style="fill: #7f7f7f; stroke: #7f7f7f; stroke-width: 1.8"/>
      </g>
     </g>
     <g id="text_25">
      <!-- 15.0 -->
      <g style="fill: #7f7f7f" transform="translate(415.967138 400.196797) scale(0.1 -0.1)">
       <use xlink:href="#DejaVuSans-14"/>
       <use xlink:href="#DejaVuSans-18" transform="translate(63.625 0)"/>
       <use xlink:href="#DejaVuSans-11" transform="translate(127.25 0)"/>
       <use xlink:href="#DejaVuSans-13" transform="translate(159.03125 0)"/>
      </g>
     </g>
    </g>
    <g id="xtick_17">
     <g id="line2d_25">
      <g>
       <use xlink:href="#m979f041dc7" x="485.792679" y="385.599141" style="fill: #7f7f7f; stroke: #7f7f7f; stroke-width: 1.8"/>
      </g>
     </g>
     <g id="text_26">
      <!-- 17.5 -->
      <g style="fill: #7f7f7f" transform="translate(474.659867 400.196797) scale(0.1 -0.1)">
       <use xlink:href="#DejaVuSans-14"/>
       <use xlink:href="#DejaVuSans-1a" transform="translate(63.625 0)"/>
       <use xlink:href="#DejaVuSans-11" transform="translate(127.25 0)"/>
       <use xlink:href="#DejaVuSans-18" transform="translate(159.03125 0)"/>
      </g>
     </g>
    </g>
    <g id="xtick_18">
     <g id="line2d_26">
      <g>
       <use xlink:href="#m979f041dc7" x="544.485408" y="385.599141" style="fill: #7f7f7f; stroke: #7f7f7f; stroke-width: 1.8"/>
      </g>
     </g>
     <g id="text_27">
      <!-- 20.0 -->
      <g style="fill: #7f7f7f" transform="translate(533.352596 400.196797) scale(0.1 -0.1)">
       <use xlink:href="#DejaVuSans-15"/>
       <use xlink:href="#DejaVuSans-13" transform="translate(63.625 0)"/>
       <use xlink:href="#DejaVuSans-11" transform="translate(127.25 0)"/>
       <use xlink:href="#DejaVuSans-13" transform="translate(159.03125 0)"/>
      </g>
     </g>
    </g>
    <g id="text_28">
     <!-- Time [s] -->
     <g style="fill: #7f7f7f" transform="translate(287.350117 414.957422) scale(0.11 -0.11)">
      <defs>
       <path id="DejaVuSans-37" d="M -19 4666 
L 3928 4666 
L 3928 4134 
L 2272 4134 
L 2272 0 
L 1638 0 
L 1638 4134 
L -19 4134 
L -19 4666 
z
" transform="scale(0.015625)"/>
       <path id="DejaVuSans-48" d="M 3597 1894 
L 3597 1613 
L 953 1613 
Q 991 1019 1311 708 
Q 1631 397 2203 397 
Q 2534 397 2845 478 
Q 3156 559 3463 722 
L 3463 178 
Q 3153 47 2828 -22 
Q 2503 -91 2169 -91 
Q 1331 -91 842 396 
Q 353 884 353 1716 
Q 353 2575 817 3079 
Q 1281 3584 2069 3584 
Q 2775 3584 3186 3129 
Q 3597 2675 3597 1894 
z
M 3022 2063 
Q 3016 2534 2758 2815 
Q 2500 3097 2075 3097 
Q 1594 3097 1305 2825 
Q 1016 2553 972 2059 
L 3022 2063 
z
" transform="scale(0.015625)"/>
      </defs>
      <use xlink:href="#DejaVuSans-37"/>
      <use xlink:href="#DejaVuSans-4c" transform="translate(58 0)"/>
      <use xlink:href="#DejaVuSans-50" transform="translate(85.78125 0)"/>
      <use xlink:href="#DejaVuSans-48" transform="translate(183.1875 0)"/>
      <use xlink:href="#DejaVuSans-3" transform="translate(244.71875 0)"/>
      <use xlink:href="#DejaVuSans-3e" transform="translate(276.5 0)"/>
      <use xlink:href="#DejaVuSans-56" transform="translate(315.515625 0)"/>
      <use xlink:href="#DejaVuSans-40" transform="translate(367.609375 0)"/>
     </g>
    </g>
   </g>
   <g id="matplotlib.axis_4">
    <g id="ytick_8">
     <g id="line2d_27">
      <g>
       <use xlink:href="#m9e339fd4f2" x="51.466484" y="377.975077" style="fill: #7f7f7f; stroke: #7f7f7f; stroke-width: 1.8"/>
      </g>
     </g>
     <g id="text_29">
      <!-- 0.0 -->
      <g style="fill: #7f7f7f" transform="translate(28.563359 381.773905) scale(0.1 -0.1)">
       <use xlink:href="#DejaVuSans-13"/>
       <use xlink:href="#DejaVuSans-11" transform="translate(63.625 0)"/>
       <use xlink:href="#DejaVuSans-13" transform="translate(95.40625 0)"/>
      </g>
     </g>
    </g>
    <g id="ytick_9">
     <g id="line2d_28">
      <g>
       <use xlink:href="#m9e339fd4f2" x="51.466484" y="346.912304" style="fill: #7f7f7f; stroke: #7f7f7f; stroke-width: 1.8"/>
      </g>
     </g>
     <g id="text_30">
      <!-- 0.5 -->
      <g style="fill: #7f7f7f" transform="translate(28.563359 350.711132) scale(0.1 -0.1)">
       <use xlink:href="#DejaVuSans-13"/>
       <use xlink:href="#DejaVuSans-11" transform="translate(63.625 0)"/>
       <use xlink:href="#DejaVuSans-18" transform="translate(95.40625 0)"/>
      </g>
     </g>
    </g>
    <g id="ytick_10">
     <g id="line2d_29">
      <g>
       <use xlink:href="#m9e339fd4f2" x="51.466484" y="315.849531" style="fill: #7f7f7f; stroke: #7f7f7f; stroke-width: 1.8"/>
      </g>
     </g>
     <g id="text_31">
      <!-- 1.0 -->
      <g style="fill: #7f7f7f" transform="translate(28.563359 319.64836) scale(0.1 -0.1)">
       <use xlink:href="#DejaVuSans-14"/>
       <use xlink:href="#DejaVuSans-11" transform="translate(63.625 0)"/>
       <use xlink:href="#DejaVuSans-13" transform="translate(95.40625 0)"/>
      </g>
     </g>
    </g>
    <g id="ytick_11">
     <g id="line2d_30">
      <g>
       <use xlink:href="#m9e339fd4f2" x="51.466484" y="284.786759" style="fill: #7f7f7f; stroke: #7f7f7f; stroke-width: 1.8"/>
      </g>
     </g>
     <g id="text_32">
      <!-- 1.5 -->
      <g style="fill: #7f7f7f" transform="translate(28.563359 288.585587) scale(0.1 -0.1)">
       <use xlink:href="#DejaVuSans-14"/>
       <use xlink:href="#DejaVuSans-11" transform="translate(63.625 0)"/>
       <use xlink:href="#DejaVuSans-18" transform="translate(95.40625 0)"/>
      </g>
     </g>
    </g>
    <g id="ytick_12">
     <g id="line2d_31">
      <g>
       <use xlink:href="#m9e339fd4f2" x="51.466484" y="253.723986" style="fill: #7f7f7f; stroke: #7f7f7f; stroke-width: 1.8"/>
      </g>
     </g>
     <g id="text_33">
      <!-- 2.0 -->
      <g style="fill: #7f7f7f" transform="translate(28.563359 257.522814) scale(0.1 -0.1)">
       <use xlink:href="#DejaVuSans-15"/>
       <use xlink:href="#DejaVuSans-11" transform="translate(63.625 0)"/>
       <use xlink:href="#DejaVuSans-13" transform="translate(95.40625 0)"/>
      </g>
     </g>
    </g>
    <g id="ytick_13">
     <g id="line2d_32">
      <g>
       <use xlink:href="#m9e339fd4f2" x="51.466484" y="222.661213" style="fill: #7f7f7f; stroke: #7f7f7f; stroke-width: 1.8"/>
      </g>
     </g>
     <g id="text_34">
      <!-- 2.5 -->
      <g style="fill: #7f7f7f" transform="translate(28.563359 226.460041) scale(0.1 -0.1)">
       <use xlink:href="#DejaVuSans-15"/>
       <use xlink:href="#DejaVuSans-11" transform="translate(63.625 0)"/>
       <use xlink:href="#DejaVuSans-18" transform="translate(95.40625 0)"/>
      </g>
     </g>
    </g>
    <g id="text_35">
     <!-- Velocity Error [m/s] -->
     <g style="fill: #7f7f7f" transform="translate(21.920781 354.574434) rotate(-90) scale(0.11 -0.11)">
      <defs>
       <path id="DejaVuSans-39" d="M 1831 0 
L 50 4666 
L 709 4666 
L 2188 738 
L 3669 4666 
L 4325 4666 
L 2547 0 
L 1831 0 
z
" transform="scale(0.015625)"/>
       <path id="DejaVuSans-4f" d="M 603 4863 
L 1178 4863 
L 1178 0 
L 603 0 
L 603 4863 
z
" transform="scale(0.015625)"/>
       <path id="DejaVuSans-46" d="M 3122 3366 
L 3122 2828 
Q 2878 2963 2633 3030 
Q 2388 3097 2138 3097 
Q 1578 3097 1268 2742 
Q 959 2388 959 1747 
Q 959 1106 1268 751 
Q 1578 397 2138 397 
Q 2388 397 2633 464 
Q 2878 531 3122 666 
L 3122 134 
Q 2881 22 2623 -34 
Q 2366 -91 2075 -91 
Q 1284 -91 818 406 
Q 353 903 353 1747 
Q 353 2603 823 3093 
Q 1294 3584 2113 3584 
Q 2378 3584 2631 3529 
Q 2884 3475 3122 3366 
z
" transform="scale(0.015625)"/>
       <path id="DejaVuSans-5c" d="M 2059 -325 
Q 1816 -950 1584 -1140 
Q 1353 -1331 966 -1331 
L 506 -1331 
L 506 -850 
L 844 -850 
Q 1081 -850 1212 -737 
Q 1344 -625 1503 -206 
L 1606 56 
L 191 3500 
L 800 3500 
L 1894 763 
L 2988 3500 
L 3597 3500 
L 2059 -325 
z
" transform="scale(0.015625)"/>
       <path id="DejaVuSans-12" d="M 1625 4666 
L 2156 4666 
L 531 -594 
L 0 -594 
L 1625 4666 
z
" transform="scale(0.015625)"/>
      </defs>
      <use xlink:href="#DejaVuSans-39"/>
      <use xlink:href="#DejaVuSans-48" transform="translate(60.640625 0)"/>
      <use xlink:href="#DejaVuSans-4f" transform="translate(122.171875 0)"/>
      <use xlink:href="#DejaVuSans-52" transform="translate(149.953125 0)"/>
      <use xlink:href="#DejaVuSans-46" transform="translate(211.140625 0)"/>
      <use xlink:href="#DejaVuSans-4c" transform="translate(266.125 0)"/>
      <use xlink:href="#DejaVuSans-57" transform="translate(293.90625 0)"/>
      <use xlink:href="#DejaVuSans-5c" transform="translate(333.109375 0)"/>
      <use xlink:href="#DejaVuSans-3" transform="translate(392.296875 0)"/>
      <use xlink:href="#DejaVuSans-28" transform="translate(424.078125 0)"/>
      <use xlink:href="#DejaVuSans-55" transform="translate(487.265625 0)"/>
      <use xlink:href="#DejaVuSans-55" transform="translate(526.625 0)"/>
      <use xlink:href="#DejaVuSans-52" transform="translate(565.53125 0)"/>
      <use xlink:href="#DejaVuSans-55" transform="translate(626.71875 0)"/>
      <use xlink:href="#DejaVuSans-3" transform="translate(667.828125 0)"/>
      <use xlink:href="#DejaVuSans-3e" transform="translate(699.609375 0)"/>
      <use xlink:href="#DejaVuSans-50" transform="translate(738.625 0)"/>
      <use xlink:href="#DejaVuSans-12" transform="translate(836.03125 0)"/>
      <use xlink:href="#DejaVuSans-56" transform="translate(869.71875 0)"/>
      <use xlink:href="#DejaVuSans-40" transform="translate(921.8125 0)"/>
     </g>
    </g>
   </g>
   <g id="line2d_33">
    <path d="M 74.943576 253.723986 
L 75.178347 253.723986 
L 75.413118 254.791733 
L 75.88266 252.374429 
L 76.117431 253.718921 
L 76.586972 251.972022 
L 77.526056 265.717499 
L 77.995598 250.336411 
L 78.230369 266.842184 
L 78.46514 255.64542 
L 78.699911 262.087953 
L 78.934682 251.503763 
L 79.404223 225.483201 
L 79.638994 241.408955 
L 81.04762 279.778231 
L 81.282391 274.249942 
L 81.517162 286.899752 
L 81.751933 275.334248 
L 84.334413 358.055834 
L 84.569184 362.837304 
L 84.803954 350.622565 
L 85.273496 344.132104 
L 85.743038 363.890581 
L 86.21258 346.320024 
L 86.447351 346.394512 
L 86.916893 336.481769 
L 87.386435 344.737248 
L 88.560289 358.923162 
L 88.79506 355.029776 
L 89.029831 360.627341 
L 89.968915 366.424059 
L 90.438456 358.587207 
L 90.673227 361.453747 
L 90.907998 370.697957 
L 91.612311 360.562865 
L 91.847082 367.417639 
L 92.551395 361.96513 
L 93.255707 370.892687 
L 93.490478 376.902081 
L 94.194791 375.050335 
L 95.603417 362.042811 
L 96.5425 376.900206 
L 97.246813 374.763408 
L 97.481584 374.404869 
L 98.420668 377.876654 
L 98.655439 377.640652 
L 99.12498 374.483074 
L 99.359751 369.64925 
L 100.064064 370.387789 
L 100.768377 372.743693 
L 101.003148 372.039273 
L 101.47269 368.344381 
L 101.70746 370.922686 
L 102.411773 377.466514 
L 102.646544 374.764393 
L 103.116086 371.600614 
L 103.350857 374.813093 
L 104.289941 377.799474 
L 103.820399 374.54235 
L 104.524711 377.638069 
L 104.994253 374.97249 
L 105.229024 372.789969 
L 105.698566 375.198596 
L 105.933337 376.610153 
L 106.168108 373.107711 
L 106.402879 373.442788 
L 106.872421 366.813045 
L 107.576733 368.898487 
L 108.985359 374.330896 
L 109.454901 372.978242 
L 109.924443 371.233096 
L 110.863526 363.492013 
L 111.098297 366.666827 
L 111.80261 371.305913 
L 112.272152 368.142649 
L 112.506923 368.23793 
L 112.741694 364.179292 
L 113.446006 369.137948 
L 113.915548 368.629139 
L 115.558944 375.07317 
L 116.498028 370.51917 
L 116.732799 372.831252 
L 117.671883 377.385721 
L 118.610966 377.114364 
L 118.845737 376.395563 
L 119.080508 377.308047 
L 119.315279 377.176434 
L 119.55005 377.744073 
L 119.784821 377.244043 
L 121.428217 369.490462 
L 121.662988 371.162103 
L 122.367301 374.043583 
L 122.13253 370.842341 
L 122.836843 373.577 
L 124.245468 367.011732 
L 125.654094 377.079218 
L 126.358407 376.181721 
L 126.593178 375.712558 
L 127.29749 376.506964 
L 128.001803 377.840004 
L 128.471345 376.849983 
L 128.706116 376.941698 
L 129.410429 372.014535 
L 129.87997 375.886793 
L 130.584283 376.206312 
L 130.819054 374.905262 
L 131.523367 377.974572 
L 131.758138 376.667163 
L 132.46245 375.303484 
L 132.697221 376.688861 
L 132.931992 377.287141 
L 133.636305 371.518954 
L 134.105847 373.736971 
L 136.218785 377.456635 
L 136.453556 377.176336 
L 137.157869 377.704494 
L 137.627411 376.335268 
L 138.331723 377.801597 
L 138.566494 376.120846 
L 138.801265 373.800986 
L 139.036036 376.37643 
L 139.505578 375.838504 
L 140.914203 365.596195 
L 141.383745 367.746276 
L 142.5576 371.242229 
L 143.731454 371.245006 
L 144.435767 367.364604 
L 144.905309 369.007806 
L 146.313935 373.568042 
L 147.253018 366.612297 
L 147.72256 371.161584 
L 148.426873 370.255829 
L 148.896415 363.54096 
L 149.600727 364.825697 
L 150.774582 373.501138 
L 151.009353 372.035707 
L 152.183207 368.10668 
L 151.478895 372.323277 
L 152.417978 368.632435 
L 153.826604 376.717164 
L 154.061375 376.870812 
L 154.296146 375.445023 
L 154.765687 377.820114 
L 155.235229 375.679312 
L 155.939542 376.560787 
L 156.878626 372.798209 
L 157.113397 374.830795 
L 157.348168 369.484841 
L 158.287251 371.644236 
L 159.226335 364.567164 
L 159.695877 365.398915 
L 160.869731 377.657088 
L 161.574044 376.349645 
L 162.747899 371.735227 
L 162.98267 371.901845 
L 163.21744 372.157347 
L 164.860837 366.567661 
L 165.095608 366.432305 
L 165.330379 367.662784 
L 165.799921 367.462327 
L 166.269462 362.497453 
L 166.739004 364.461289 
L 167.912859 368.351192 
L 167.208546 363.982961 
L 168.14763 367.163871 
L 168.851942 361.707621 
L 169.556255 362.481527 
L 171.903964 376.524645 
L 172.373506 374.796621 
L 172.843048 376.320309 
L 174.251674 377.571027 
L 174.955986 371.882137 
L 175.660299 375.14359 
L 176.834154 377.857192 
L 177.068925 372.868654 
L 177.773237 375.379888 
L 178.008008 377.385531 
L 178.47755 373.512779 
L 179.651405 366.724083 
L 180.825259 367.542526 
L 181.999114 371.133624 
L 183.64251 364.168154 
L 184.581594 376.38546 
L 185.051136 374.938363 
L 185.285907 372.180551 
L 185.990219 375.655304 
L 186.694532 374.069415 
L 186.929303 377.913167 
L 187.398845 372.792657 
L 187.633616 373.19485 
L 188.337929 369.600601 
L 188.80747 371.534689 
L 189.042241 371.756329 
L 189.511783 375.523268 
L 189.981325 374.881175 
L 190.216096 370.13004 
L 190.920409 370.469608 
L 192.094263 377.478478 
L 192.563805 377.920391 
L 194.207201 371.074743 
L 194.441972 371.321396 
L 194.911514 367.577491 
L 195.615827 369.127565 
L 196.32014 367.268164 
L 196.554911 372.103792 
L 197.259223 369.950955 
L 197.493994 365.500386 
L 198.198307 370.421979 
L 198.667849 367.732311 
L 198.90262 371.00604 
L 200.076474 371.40558 
L 201.015558 367.392402 
L 202.424183 375.212011 
L 202.893725 376.71765 
L 203.128496 376.154486 
L 204.537122 372.736739 
L 204.771893 373.896091 
L 205.006664 371.239264 
L 206.180518 369.473973 
L 206.65006 367.330842 
L 206.884831 367.425227 
L 208.293456 376.604945 
L 208.528227 373.135923 
L 208.997769 377.378618 
L 209.23254 377.717421 
L 209.467311 376.380601 
L 209.702082 374.692187 
L 210.171624 376.591945 
L 210.406395 377.112547 
L 211.345478 371.371097 
L 212.284562 376.11442 
L 212.519333 372.558024 
L 213.223646 374.860872 
L 213.458417 377.805792 
L 214.162729 375.988573 
L 214.867042 374.840632 
L 215.806126 374.649568 
L 216.275668 377.52694 
L 217.684293 373.035382 
L 217.919064 374.390501 
L 218.388606 376.94608 
L 218.623377 374.217881 
L 219.092919 376.24219 
L 220.501544 365.705929 
L 221.675399 370.213865 
L 222.849253 366.610535 
L 223.084024 366.924512 
L 223.788337 371.543547 
L 224.023108 369.576398 
L 224.49265 366.709594 
L 224.962191 369.082717 
L 226.605588 377.486206 
L 225.431733 368.211696 
L 226.840359 374.789331 
L 228.483755 365.855478 
L 228.718526 364.69182 
L 229.188068 365.466482 
L 229.892381 372.485945 
L 230.361923 372.13306 
L 230.831464 368.720751 
L 231.301006 372.334128 
L 232.24009 376.05574 
L 232.474861 375.800549 
L 232.709632 370.870417 
L 233.413944 371.093803 
L 234.118257 375.46791 
L 234.587799 373.948971 
L 234.82257 373.238513 
L 235.057341 374.868988 
L 235.292112 375.079209 
L 235.996425 377.588584 
L 236.700737 372.379301 
L 236.935508 373.381153 
L 237.639821 377.784959 
L 237.874592 374.904947 
L 238.578905 371.64523 
L 239.048446 372.734924 
L 239.517988 377.887931 
L 240.222301 374.508287 
L 240.457072 371.553879 
L 240.926614 375.150994 
L 241.161385 375.484557 
L 241.396156 375.228513 
L 242.804781 365.782655 
L 243.039552 369.635838 
L 243.743865 368.49846 
L 243.978636 365.706538 
L 244.213407 370.827243 
L 245.15249 376.482145 
L 245.856803 375.16509 
L 246.326345 374.842794 
L 247.500199 369.851021 
L 248.908825 374.666595 
L 249.143596 373.49697 
L 249.378367 376.877273 
L 249.613138 376.068631 
L 249.847909 376.691411 
L 250.31745 376.754748 
L 251.491305 368.924108 
L 253.134701 365.280102 
L 253.369472 365.747888 
L 254.073785 370.920622 
L 254.308556 370.490053 
L 255.951952 362.759274 
L 256.186723 364.989156 
L 256.656265 365.258377 
L 256.891036 367.060625 
L 257.125807 364.209045 
L 257.595349 365.188186 
L 257.83012 365.267716 
L 259.003974 375.303784 
L 259.473516 374.996984 
L 260.882142 366.751273 
L 261.821225 359.777866 
L 262.290767 360.691027 
L 262.99508 359.734013 
L 266.047102 373.490057 
L 266.516644 374.903786 
L 266.986185 374.294636 
L 267.455727 372.55733 
L 267.690498 375.305222 
L 267.925269 373.757182 
L 268.16004 376.922244 
L 268.864353 374.461893 
L 269.099124 373.679076 
L 270.272978 377.351327 
L 272.151146 363.027402 
L 270.74252 377.710283 
L 272.385917 364.099206 
L 273.090229 368.027481 
L 273.325 366.699195 
L 274.264084 361.421058 
L 274.733626 361.816716 
L 276.611793 365.692717 
L 277.316106 372.130154 
L 277.785648 368.536277 
L 278.255189 362.941388 
L 278.724731 366.832785 
L 278.959502 366.642899 
L 279.663815 372.608886 
L 280.133357 369.845261 
L 280.837669 368.231333 
L 280.602899 370.590926 
L 281.307211 368.563208 
L 282.011524 372.630488 
L 282.950608 363.287169 
L 283.185379 363.884756 
L 286.00263 377.502016 
L 286.941713 370.7791 
L 287.411255 373.876058 
L 288.115568 373.634641 
L 288.58511 377.314842 
L 289.289422 372.688149 
L 289.758964 375.310717 
L 291.16759 370.545157 
L 291.637132 374.03317 
L 291.871903 370.018987 
L 292.106673 368.542823 
L 292.341444 371.299636 
L 293.280528 377.397816 
L 293.75007 374.82891 
L 293.984841 376.18329 
L 294.219612 371.989653 
L 294.454383 374.676305 
L 294.689154 371.227496 
L 295.158695 376.584295 
L 295.628237 376.390585 
L 296.802092 371.043861 
L 298.210717 375.647073 
L 298.680259 374.275093 
L 299.149801 375.034619 
L 299.384572 375.94294 
L 299.619343 372.926943 
L 299.854114 373.530322 
L 300.088885 372.677826 
L 301.49751 366.284206 
L 302.201823 365.323593 
L 303.845219 372.326202 
L 304.549532 368.009585 
L 305.019074 369.368176 
L 306.427699 376.639439 
L 306.66247 377.929118 
L 307.366783 377.30746 
L 307.836325 372.152249 
L 308.305867 373.729911 
L 309.24495 376.576326 
L 311.123118 366.385978 
L 312.766514 363.990184 
L 313.001285 364.038839 
L 313.236056 362.881763 
L 314.879452 374.051994 
L 316.053307 368.322679 
L 316.288078 371.685232 
L 316.75762 372.63474 
L 317.461932 365.719274 
L 317.696703 369.84021 
L 317.931474 371.23433 
L 318.635787 362.468811 
L 318.870558 366.157253 
L 320.044412 374.11826 
L 320.748725 370.205324 
L 320.983496 372.639193 
L 321.92258 372.203836 
L 322.157351 368.059663 
L 322.861663 371.543122 
L 323.331205 370.274161 
L 323.565976 371.104796 
L 324.270289 374.77266 
L 324.974602 374.563056 
L 325.209373 374.899628 
L 325.678914 368.919055 
L 326.383227 371.885313 
L 326.617998 371.718436 
L 327.322311 374.783518 
L 327.557082 371.193186 
L 328.026624 366.692348 
L 328.496165 370.929896 
L 329.904791 374.814119 
L 330.843875 373.395262 
L 330.609104 375.923204 
L 331.078646 373.902067 
L 331.313416 374.092221 
L 331.548187 373.319686 
L 333.895897 364.502115 
L 334.130667 366.561218 
L 335.774064 372.290142 
L 336.713148 363.92384 
L 336.947918 365.038044 
L 338.356544 375.406129 
L 339.060857 373.895239 
L 339.295628 373.958079 
L 339.530399 376.555794 
L 339.99994 374.870014 
L 340.234711 372.218663 
L 340.469482 375.178771 
L 340.939024 374.255419 
L 341.643337 375.243521 
L 341.408566 373.856139 
L 341.878108 374.444066 
L 342.34765 374.903725 
L 343.756275 369.220407 
L 345.164901 377.700167 
L 346.338755 373.684371 
L 346.808297 369.839757 
L 347.747381 377.365682 
L 348.451693 373.660828 
L 348.921235 375.629399 
L 349.156006 377.929769 
L 349.860319 376.76135 
L 350.09509 374.944364 
L 350.564632 377.658107 
L 350.799403 377.812803 
L 352.912341 365.833153 
L 353.147112 367.428571 
L 353.381883 369.801463 
L 354.086195 369.198801 
L 354.320966 368.497071 
L 354.555737 370.891303 
L 354.790508 369.439728 
L 355.025279 369.82531 
L 355.26005 373.234146 
L 355.494821 368.787599 
L 355.964363 370.447496 
L 357.607759 361.925852 
L 359.485926 372.301012 
L 359.720697 370.545182 
L 360.659781 365.509081 
L 360.894552 366.047134 
L 362.068406 373.606557 
L 362.303177 369.609428 
L 362.772719 366.360098 
L 363.242261 368.387413 
L 364.181345 375.649255 
L 364.650887 375.337043 
L 364.885657 376.981741 
L 365.355199 373.401136 
L 366.529054 365.397803 
L 367.468138 367.497951 
L 367.702908 367.353048 
L 367.937679 367.805545 
L 368.17245 365.634186 
L 368.641992 367.339127 
L 369.581076 372.887325 
L 369.815847 371.54639 
L 370.285389 367.693554 
L 370.75493 367.936598 
L 371.694014 377.823674 
L 372.867869 376.739399 
L 374.276494 367.874271 
L 374.511265 368.43254 
L 375.215578 371.385833 
L 375.68512 370.274977 
L 376.389432 367.680113 
L 376.858974 377.31448 
L 377.563287 372.283362 
L 378.032829 373.083106 
L 378.737142 376.231612 
L 378.971912 375.615558 
L 379.676225 372.76957 
L 380.145767 374.469584 
L 381.319622 377.546433 
L 381.554393 377.116851 
L 382.728247 373.235419 
L 382.963018 374.671901 
L 383.197789 374.325143 
L 383.667331 377.422956 
L 383.902102 377.194071 
L 384.371644 370.668805 
L 385.075956 372.364657 
L 386.249811 368.342813 
L 386.484582 370.42922 
L 386.954124 374.142661 
L 387.658436 377.965379 
L 388.127978 376.281374 
L 388.832291 376.481141 
L 389.301833 373.737615 
L 389.771375 374.505316 
L 390.006146 373.426712 
L 392.119084 363.193881 
L 392.353855 365.791252 
L 392.588626 370.189285 
L 393.292938 369.106266 
L 393.76248 366.932156 
L 393.997251 369.741478 
L 394.466793 377.402545 
L 395.405877 376.948348 
L 395.640648 377.468814 
L 395.875418 375.615051 
L 396.110189 374.309092 
L 396.34496 375.074974 
L 397.284044 377.816964 
L 397.988357 376.3 
L 398.457899 376.664238 
L 398.692669 377.483919 
L 398.92744 376.002627 
L 399.396982 377.237406 
L 400.101295 375.198221 
L 400.336066 375.671 
L 400.570837 377.835587 
L 401.040379 375.205068 
L 402.214233 369.067856 
L 402.683775 372.020287 
L 403.388088 377.961801 
L 403.85763 375.745086 
L 405.031484 368.41486 
L 405.501026 374.334732 
L 406.205339 371.435976 
L 407.379193 374.186414 
L 407.848735 370.547816 
L 408.083506 374.136632 
L 408.318277 376.343684 
L 408.553048 371.690989 
L 409.257361 376.221155 
L 410.196444 372.949564 
L 410.665986 377.512563 
L 411.370299 375.388969 
L 412.309383 369.828209 
L 412.544153 370.496606 
L 413.718008 377.057468 
L 415.126634 374.578505 
L 416.300488 377.682141 
L 417.474343 372.882648 
L 417.943885 369.868772 
L 418.178655 372.242415 
L 418.882968 371.870092 
L 419.35251 373.477262 
L 419.587281 373.455124 
L 420.056823 372.050285 
L 420.291594 372.118918 
L 420.526365 377.843418 
L 421.230677 374.459754 
L 421.465448 374.903904 
L 421.93499 369.912618 
L 422.639303 371.008566 
L 423.108845 368.591802 
L 423.343616 371.126274 
L 424.51747 376.391747 
L 423.813157 371.047803 
L 424.752241 375.42673 
L 424.987012 372.191923 
L 425.691325 376.096614 
L 426.160867 377.034525 
L 426.630408 374.185751 
L 426.865179 377.746563 
L 427.334721 370.526347 
L 428.508576 370.259752 
L 429.917201 374.111978 
L 430.386743 374.106294 
L 430.621514 377.215164 
L 431.091056 373.074418 
L 431.325827 369.096065 
L 432.03014 373.858177 
L 433.203994 369.388786 
L 433.438765 369.934519 
L 435.082161 377.638796 
L 435.551703 377.252012 
L 436.490787 373.211833 
L 436.725558 375.657589 
L 437.1951 377.527996 
L 437.664642 376.091828 
L 437.899412 373.382611 
L 438.134183 377.53127 
L 438.368954 376.909629 
L 438.838496 377.741876 
L 439.77758 374.566857 
L 440.247122 377.599415 
L 440.716663 374.820931 
L 441.186205 374.106387 
L 441.420976 376.300288 
L 441.890518 371.947622 
L 442.36006 371.124818 
L 443.533914 377.791573 
L 444.472998 374.191633 
L 444.707769 376.38136 
L 444.94254 376.92802 
L 445.412082 375.775803 
L 445.881624 374.765642 
L 446.116394 377.642507 
L 446.820707 375.035553 
L 447.759791 369.05075 
L 447.994562 370.330537 
L 448.229333 369.112965 
L 448.698875 371.769352 
L 448.933645 370.630632 
L 449.637958 374.385911 
L 449.872729 377.878877 
L 450.342271 372.365689 
L 450.577042 374.064936 
L 451.046584 374.804431 
L 451.516126 370.274915 
L 452.924751 366.758602 
L 453.863835 369.854153 
L 454.098606 369.142477 
L 454.333377 367.428694 
L 454.568147 371.876383 
L 455.037689 372.831115 
L 455.976773 361.845553 
L 456.446315 364.960799 
L 459.498337 377.11711 
L 459.733108 376.473285 
L 460.672191 372.783777 
L 460.906962 373.55007 
L 461.611275 377.785263 
L 462.080817 377.193016 
L 463.254671 369.495427 
L 463.724213 373.680138 
L 464.428526 375.196592 
L 464.663297 374.361514 
L 464.898068 373.874903 
L 465.132839 370.896551 
L 465.602381 373.995151 
L 466.071922 371.562574 
L 466.541464 368.889425 
L 466.776235 371.2558 
L 467.480548 377.796237 
L 467.95009 377.215804 
L 469.123944 370.795104 
L 470.53257 374.963952 
L 471.236883 373.354658 
L 471.706424 373.711959 
L 472.175966 377.029985 
L 472.880279 376.796017 
L 473.11505 377.19125 
L 473.584592 376.052684 
L 473.819363 376.160275 
L 474.758446 374.158973 
L 474.523675 377.476048 
L 474.993217 374.840743 
L 476.401843 377.967278 
L 476.636614 377.485209 
L 478.749552 367.136762 
L 479.219094 368.092685 
L 481.566803 377.709434 
L 482.975428 374.466226 
L 483.210199 376.856052 
L 483.914512 374.860439 
L 485.792679 362.116437 
L 486.02745 363.10399 
L 486.262221 361.876665 
L 486.496992 362.183748 
L 487.436076 356.602931 
L 487.670847 360.154308 
L 487.905618 359.693502 
L 488.140388 355.284097 
L 488.844701 358.352822 
L 489.314243 356.66477 
L 489.549014 357.081367 
L 490.488098 360.180287 
L 490.957639 354.014941 
L 491.427181 358.245762 
L 491.661952 361.521701 
L 492.366265 360.185264 
L 492.601036 357.577467 
L 493.070578 361.218001 
L 495.418287 376.334602 
L 496.592141 377.971858 
L 497.061683 377.230118 
L 498.235538 369.721565 
L 498.470309 370.825211 
L 499.174622 372.798871 
L 499.409392 371.25163 
L 499.878934 369.658742 
L 500.583247 370.818099 
L 501.052789 374.378084 
L 501.757102 372.901037 
L 501.991873 372.354134 
L 502.461414 373.42653 
L 502.696185 376.12376 
L 503.165727 371.472239 
L 504.574353 365.638687 
L 504.809124 365.908958 
L 506.217749 359.340921 
L 505.278665 366.285172 
L 506.922062 359.600216 
L 507.156833 358.834498 
L 507.391604 360.67546 
L 508.330687 362.561802 
L 508.565458 358.830898 
L 509.269771 361.184683 
L 509.739313 363.039501 
L 510.208855 359.616325 
L 511.61748 369.402861 
L 511.852251 369.775578 
L 512.087022 368.788318 
L 512.556564 368.417926 
L 513.730418 365.954914 
L 514.904273 372.892716 
L 515.139044 370.631656 
L 515.843357 373.408774 
L 517.017211 366.343141 
L 516.547669 373.640005 
L 517.486753 367.066866 
L 518.191066 377.262913 
L 518.660608 373.70962 
L 519.834462 368.55388 
L 520.069233 368.745899 
L 521.008317 365.744228 
L 521.243088 366.100826 
L 523.590797 370.844021 
L 524.764651 365.147741 
L 524.999422 366.710404 
L 525.234193 369.965846 
L 525.938506 367.138655 
L 527.347131 359.319021 
L 527.816673 360.153151 
L 529.225299 364.796432 
L 529.46007 363.855366 
L 529.929612 364.325355 
L 530.868695 358.386525 
L 531.103466 358.861253 
L 531.807779 364.664852 
L 532.04255 362.356947 
L 532.277321 362.464995 
L 532.746863 368.321041 
L 533.451175 368.047391 
L 533.685946 367.016889 
L 533.920717 369.460319 
L 534.155488 370.31145 
L 534.390259 368.877979 
L 534.62503 368.869576 
L 534.859801 367.011863 
L 535.094572 370.977083 
L 535.329343 370.341862 
L 535.564114 370.16627 
L 536.972739 377.532398 
L 537.20751 376.953933 
L 539.085677 364.010819 
L 539.555219 368.09557 
L 541.198616 376.007811 
L 541.433386 375.520244 
L 541.902928 374.107534 
L 542.37247 377.454504 
L 543.546325 372.956566 
L 543.781096 374.254191 
L 544.015867 374.574242 
L 544.485408 374.11123 
" clip-path="url(#p770878be93)" style="fill: none; stroke: #e41a1c; stroke-width: 2; stroke-linecap: square"/>
   </g>
   <g id="patch_6">
    <path d="M 51.466484 385.599141 
L 51.466484 217.858633 
" style="fill: none; stroke: #7f7f7f; stroke-width: 1.8; stroke-linejoin: miter; stroke-linecap: square"/>
   </g>
   <g id="patch_7">
    <path d="M 51.466484 385.599141 
L 567.9625 385.599141 
" style="fill: none; stroke: #7f7f7f; stroke-width: 1.8; stroke-linejoin: miter; stroke-linecap: square"/>
   </g>
  </g>
 </g>
 <defs>
  <clipPath id="p90527677e6">
   <rect x="51.466484" y="22.318125" width="516.496016" height="167.740508"/>
  </clipPath>
  <clipPath id="p770878be93">
   <rect x="51.466484" y="217.858633" width="516.496016" height="167.740508"/>
  </clipPath>
 </defs>
</svg>
