<?xml version="1.0" encoding="utf-8" standalone="no"?>
<!DOCTYPE svg PUBLIC "-//W3C//DTD SVG 1.1//EN"
  "http://www.w3.org/Graphics/SVG/1.1/DTD/svg11.dtd">
<svg xmlns:xlink="http://www.w3.org/1999/xlink" width="575.1625pt" height="424.8pt" viewBox="0 0 575.1625 424.8" xmlns="http://www.w3.org/2000/svg" version="1.1">
 <metadata>
  <rdf:RDF xmlns:dc="http://purl.org/dc/elements/1.1/" xmlns:cc="http://creativecommons.org/ns#" xmlns:rdf="http://www.w3.org/1999/02/22-rdf-syntax-ns#">
   <cc:Work>
    <dc:type rdf:resource="http://purl.org/dc/dcmitype/StillImage"/>
    <dc:date>2026-06-05T07:42:03.970278</dc:date>
    <dc:format>image/svg+xml</dc:format>
    <dc:creator>
     <cc:Agent>
      <dc:title>Matplotlib v3.10.9, https://matplotlib.org/</dc:title>
     </cc:Agent>
    </dc:creator>
   </cc:Work>
  </rdf:RDF>
 </metadata>
 <defs>
  <style type="text/css">*{stroke-linejoin: round; stroke-linecap: butt}</style>
 </defs>
 <g id="figure_1">
  <g id="patch_1">
   <path d="M 0 424.8 
L 575.1625 424.8 
L 575.1625 0 
L 0 0 
L 0 424.8 
z
" style="fill: none"/>
  </g>
  <g id="axes_1">
   <g id="patch_2">
    <path d="M 51.111563 190.557969 
L 567.9625 190.557969 
L 567.9625 22.318125 
L 51.111563 22.318125 
L 51.111563 190.557969 
z
" style="fill: none"/>
   </g>
   <g id="matplotlib.axis_1">
    <g id="xtick_1">
     <g id="line2d_1">
      <defs>
       <path id="mca1e94b948" d="M 0 0 
L 0 3.5 
" style="stroke: #7f7f7f; stroke-width: 1.8"/>
      </defs>
      <g>
       <use xlink:href="#mca1e94b948" x="74.604787" y="190.557969" style="fill: #7f7f7f; stroke: #7f7f7f; stroke-width: 1.8"/>
      </g>
     </g>
     <g id="text_1">
      <!-- 0.0 -->
      <g style="fill: #7f7f7f" transform="translate(66.653224 205.156406) scale(0.1 -0.1)">
       <defs>
        <path id="DejaVuSans-30" d="M 2034 4250 
Q 1547 4250 1301 3770 
Q 1056 3291 1056 2328 
Q 1056 1369 1301 889 
Q 1547 409 2034 409 
Q 2525 409 2770 889 
Q 3016 1369 3016 2328 
Q 3016 3291 2770 3770 
Q 2525 4250 2034 4250 
z
M 2034 4750 
Q 2819 4750 3233 4129 
Q 3647 3509 3647 2328 
Q 3647 1150 3233 529 
Q 2819 -91 2034 -91 
Q 1250 -91 836 529 
Q 422 1150 422 2328 
Q 422 3509 836 4129 
Q 1250 4750 2034 4750 
z
" transform="scale(0.015625)"/>
        <path id="DejaVuSans-2e" d="M 684 794 
L 1344 794 
L 1344 0 
L 684 0 
L 684 794 
z
" transform="scale(0.015625)"/>
       </defs>
       <use xlink:href="#DejaVuSans-30"/>
       <use xlink:href="#DejaVuSans-2e" transform="translate(63.623047 0)"/>
       <use xlink:href="#DejaVuSans-30" transform="translate(95.410156 0)"/>
      </g>
     </g>
    </g>
    <g id="xtick_2">
     <g id="line2d_2">
      <g>
       <use xlink:href="#mca1e94b948" x="133.337848" y="190.557969" style="fill: #7f7f7f; stroke: #7f7f7f; stroke-width: 1.8"/>
      </g>
     </g>
     <g id="text_2">
      <!-- 2.5 -->
      <g style="fill: #7f7f7f" transform="translate(125.386286 205.156406) scale(0.1 -0.1)">
       <defs>
        <path id="DejaVuSans-32" d="M 1228 531 
L 3431 531 
L 3431 0 
L 469 0 
L 469 531 
Q 828 903 1448 1529 
Q 2069 2156 2228 2338 
Q 2531 2678 2651 2914 
Q 2772 3150 2772 3378 
Q 2772 3750 2511 3984 
Q 2250 4219 1831 4219 
Q 1534 4219 1204 4116 
Q 875 4013 500 3803 
L 500 4441 
Q 881 4594 1212 4672 
Q 1544 4750 1819 4750 
Q 2544 4750 2975 4387 
Q 3406 4025 3406 3419 
Q 3406 3131 3298 2873 
Q 3191 2616 2906 2266 
Q 2828 2175 2409 1742 
Q 1991 1309 1228 531 
z
" transform="scale(0.015625)"/>
        <path id="DejaVuSans-35" d="M 691 4666 
L 3169 4666 
L 3169 4134 
L 1269 4134 
L 1269 2991 
Q 1406 3038 1543 3061 
Q 1681 3084 1819 3084 
Q 2600 3084 3056 2656 
Q 3513 2228 3513 1497 
Q 3513 744 3044 326 
Q 2575 -91 1722 -91 
Q 1428 -91 1123 -41 
Q 819 9 494 109 
L 494 744 
Q 775 591 1075 516 
Q 1375 441 1709 441 
Q 2250 441 2565 725 
Q 2881 1009 2881 1497 
Q 2881 1984 2565 2268 
Q 2250 2553 1709 2553 
Q 1456 2553 1204 2497 
Q 953 2441 691 2322 
L 691 4666 
z
" transform="scale(0.015625)"/>
       </defs>
       <use xlink:href="#DejaVuSans-32"/>
       <use xlink:href="#DejaVuSans-2e" transform="translate(63.623047 0)"/>
       <use xlink:href="#DejaVuSans-35" transform="translate(95.410156 0)"/>
      </g>
     </g>
    </g>
    <g id="xtick_3">
     <g id="line2d_3">
      <g>
       <use xlink:href="#mca1e94b948" x="192.070909" y="190.557969" style="fill: #7f7f7f; stroke: #7f7f7f; stroke-width: 1.8"/>
      </g>
     </g>
     <g id="text_3">
      <!-- 5.0 -->
      <g style="fill: #7f7f7f" transform="translate(184.119347 205.156406) scale(0.1 -0.1)">
       <use xlink:href="#DejaVuSans-35"/>
       <use xlink:href="#DejaVuSans-2e" transform="translate(63.623047 0)"/>
       <use xlink:href="#DejaVuSans-30" transform="translate(95.410156 0)"/>
      </g>
     </g>
    </g>
    <g id="xtick_4">
     <g id="line2d_4">
      <g>
       <use xlink:href="#mca1e94b948" x="250.80397" y="190.557969" style="fill: #7f7f7f; stroke: #7f7f7f; stroke-width: 1.8"/>
      </g>
     </g>
     <g id="text_4">
      <!-- 7.5 -->
      <g style="fill: #7f7f7f" transform="translate(242.852408 205.156406) scale(0.1 -0.1)">
       <defs>
        <path id="DejaVuSans-37" d="M 525 4666 
L 3525 4666 
L 3525 4397 
L 1831 0 
L 1172 0 
L 2766 4134 
L 525 4134 
L 525 4666 
z
" transform="scale(0.015625)"/>
       </defs>
       <use xlink:href="#DejaVuSans-37"/>
       <use xlink:href="#DejaVuSans-2e" transform="translate(63.623047 0)"/>
       <use xlink:href="#DejaVuSans-35" transform="translate(95.410156 0)"/>
      </g>
     </g>
    </g>
    <g id="xtick_5">
     <g id="line2d_5">
      <g>
       <use xlink:href="#mca1e94b948" x="309.537031" y="190.557969" style="fill: #7f7f7f; stroke: #7f7f7f; stroke-width: 1.8"/>
      </g>
     </g>
     <g id="text_5">
      <!-- 10.0 -->
      <g style="fill: #7f7f7f" transform="translate(298.404219 205.156406) scale(0.1 -0.1)">
       <defs>
        <path id="DejaVuSans-31" d="M 794 531 
L 1825 531 
L 1825 4091 
L 703 3866 
L 703 4441 
L 1819 4666 
L 2450 4666 
L 2450 531 
L 3481 531 
L 3481 0 
L 794 0 
L 794 531 
z
" transform="scale(0.015625)"/>
       </defs>
       <use xlink:href="#DejaVuSans-31"/>
       <use xlink:href="#DejaVuSans-30" transform="translate(63.623047 0)"/>
       <use xlink:href="#DejaVuSans-2e" transform="translate(127.246094 0)"/>
       <use xlink:href="#DejaVuSans-30" transform="translate(159.033203 0)"/>
      </g>
     </g>
    </g>
    <g id="xtick_6">
     <g id="line2d_6">
      <g>
       <use xlink:href="#mca1e94b948" x="368.270092" y="190.557969" style="fill: #7f7f7f; stroke: #7f7f7f; stroke-width: 1.8"/>
      </g>
     </g>
     <g id="text_6">
      <!-- 12.5 -->
      <g style="fill: #7f7f7f" transform="translate(357.13728 205.156406) scale(0.1 -0.1)">
       <use xlink:href="#DejaVuSans-31"/>
       <use xlink:href="#DejaVuSans-32" transform="translate(63.623047 0)"/>
       <use xlink:href="#DejaVuSans-2e" transform="translate(127.246094 0)"/>
       <use xlink:href="#DejaVuSans-35" transform="translate(159.033203 0)"/>
      </g>
     </g>
    </g>
    <g id="xtick_7">
     <g id="line2d_7">
      <g>
       <use xlink:href="#mca1e94b948" x="427.003153" y="190.557969" style="fill: #7f7f7f; stroke: #7f7f7f; stroke-width: 1.8"/>
      </g>
     </g>
     <g id="text_7">
      <!-- 15.0 -->
      <g style="fill: #7f7f7f" transform="translate(415.870341 205.156406) scale(0.1 -0.1)">
       <use xlink:href="#DejaVuSans-31"/>
       <use xlink:href="#DejaVuSans-35" transform="translate(63.623047 0)"/>
       <use xlink:href="#DejaVuSans-2e" transform="translate(127.246094 0)"/>
       <use xlink:href="#DejaVuSans-30" transform="translate(159.033203 0)"/>
      </g>
     </g>
    </g>
    <g id="xtick_8">
     <g id="line2d_8">
      <g>
       <use xlink:href="#mca1e94b948" x="485.736214" y="190.557969" style="fill: #7f7f7f; stroke: #7f7f7f; stroke-width: 1.8"/>
      </g>
     </g>
     <g id="text_8">
      <!-- 17.5 -->
      <g style="fill: #7f7f7f" transform="translate(474.603402 205.156406) scale(0.1 -0.1)">
       <use xlink:href="#DejaVuSans-31"/>
       <use xlink:href="#DejaVuSans-37" transform="translate(63.623047 0)"/>
       <use xlink:href="#DejaVuSans-2e" transform="translate(127.246094 0)"/>
       <use xlink:href="#DejaVuSans-35" transform="translate(159.033203 0)"/>
      </g>
     </g>
    </g>
    <g id="xtick_9">
     <g id="line2d_9">
      <g>
       <use xlink:href="#mca1e94b948" x="544.469276" y="190.557969" style="fill: #7f7f7f; stroke: #7f7f7f; stroke-width: 1.8"/>
      </g>
     </g>
     <g id="text_9">
      <!-- 20.0 -->
      <g style="fill: #7f7f7f" transform="translate(533.336463 205.156406) scale(0.1 -0.1)">
       <use xlink:href="#DejaVuSans-32"/>
       <use xlink:href="#DejaVuSans-30" transform="translate(63.623047 0)"/>
       <use xlink:href="#DejaVuSans-2e" transform="translate(127.246094 0)"/>
       <use xlink:href="#DejaVuSans-30" transform="translate(159.033203 0)"/>
      </g>
     </g>
    </g>
   </g>
   <g id="matplotlib.axis_2">
    <g id="ytick_1">
     <g id="line2d_10">
      <defs>
       <path id="mf9420f1b42" d="M 0 0 
L -3.5 0 
" style="stroke: #7f7f7f; stroke-width: 1.8"/>
      </defs>
      <g>
       <use xlink:href="#mf9420f1b42" x="51.111563" y="182.910703" style="fill: #7f7f7f; stroke: #7f7f7f; stroke-width: 1.8"/>
      </g>
     </g>
     <g id="text_10">
      <!-- 0.00 -->
      <g style="fill: #7f7f7f" transform="translate(21.845938 186.709922) scale(0.1 -0.1)">
       <use xlink:href="#DejaVuSans-30"/>
       <use xlink:href="#DejaVuSans-2e" transform="translate(63.623047 0)"/>
       <use xlink:href="#DejaVuSans-30" transform="translate(95.410156 0)"/>
       <use xlink:href="#DejaVuSans-30" transform="translate(159.033203 0)"/>
      </g>
     </g>
    </g>
    <g id="ytick_2">
     <g id="line2d_11">
      <g>
       <use xlink:href="#mf9420f1b42" x="51.111563" y="160.438193" style="fill: #7f7f7f; stroke: #7f7f7f; stroke-width: 1.8"/>
      </g>
     </g>
     <g id="text_11">
      <!-- 0.05 -->
      <g style="fill: #7f7f7f" transform="translate(21.845938 164.237412) scale(0.1 -0.1)">
       <use xlink:href="#DejaVuSans-30"/>
       <use xlink:href="#DejaVuSans-2e" transform="translate(63.623047 0)"/>
       <use xlink:href="#DejaVuSans-30" transform="translate(95.410156 0)"/>
       <use xlink:href="#DejaVuSans-35" transform="translate(159.033203 0)"/>
      </g>
     </g>
    </g>
    <g id="ytick_3">
     <g id="line2d_12">
      <g>
       <use xlink:href="#mf9420f1b42" x="51.111563" y="137.965682" style="fill: #7f7f7f; stroke: #7f7f7f; stroke-width: 1.8"/>
      </g>
     </g>
     <g id="text_12">
      <!-- 0.10 -->
      <g style="fill: #7f7f7f" transform="translate(21.845938 141.764901) scale(0.1 -0.1)">
       <use xlink:href="#DejaVuSans-30"/>
       <use xlink:href="#DejaVuSans-2e" transform="translate(63.623047 0)"/>
       <use xlink:href="#DejaVuSans-31" transform="translate(95.410156 0)"/>
       <use xlink:href="#DejaVuSans-30" transform="translate(159.033203 0)"/>
      </g>
     </g>
    </g>
    <g id="ytick_4">
     <g id="line2d_13">
      <g>
       <use xlink:href="#mf9420f1b42" x="51.111563" y="115.493172" style="fill: #7f7f7f; stroke: #7f7f7f; stroke-width: 1.8"/>
      </g>
     </g>
     <g id="text_13">
      <!-- 0.15 -->
      <g style="fill: #7f7f7f" transform="translate(21.845938 119.292391) scale(0.1 -0.1)">
       <use xlink:href="#DejaVuSans-30"/>
       <use xlink:href="#DejaVuSans-2e" transform="translate(63.623047 0)"/>
       <use xlink:href="#DejaVuSans-31" transform="translate(95.410156 0)"/>
       <use xlink:href="#DejaVuSans-35" transform="translate(159.033203 0)"/>
      </g>
     </g>
    </g>
    <g id="ytick_5">
     <g id="line2d_14">
      <g>
       <use xlink:href="#mf9420f1b42" x="51.111563" y="93.020662" style="fill: #7f7f7f; stroke: #7f7f7f; stroke-width: 1.8"/>
      </g>
     </g>
     <g id="text_14">
      <!-- 0.20 -->
      <g style="fill: #7f7f7f" transform="translate(21.845938 96.819881) scale(0.1 -0.1)">
       <use xlink:href="#DejaVuSans-30"/>
       <use xlink:href="#DejaVuSans-2e" transform="translate(63.623047 0)"/>
       <use xlink:href="#DejaVuSans-32" transform="translate(95.410156 0)"/>
       <use xlink:href="#DejaVuSans-30" transform="translate(159.033203 0)"/>
      </g>
     </g>
    </g>
    <g id="ytick_6">
     <g id="line2d_15">
      <g>
       <use xlink:href="#mf9420f1b42" x="51.111563" y="70.548152" style="fill: #7f7f7f; stroke: #7f7f7f; stroke-width: 1.8"/>
      </g>
     </g>
     <g id="text_15">
      <!-- 0.25 -->
      <g style="fill: #7f7f7f" transform="translate(21.845938 74.34737) scale(0.1 -0.1)">
       <use xlink:href="#DejaVuSans-30"/>
       <use xlink:href="#DejaVuSans-2e" transform="translate(63.623047 0)"/>
       <use xlink:href="#DejaVuSans-32" transform="translate(95.410156 0)"/>
       <use xlink:href="#DejaVuSans-35" transform="translate(159.033203 0)"/>
      </g>
     </g>
    </g>
    <g id="ytick_7">
     <g id="line2d_16">
      <g>
       <use xlink:href="#mf9420f1b42" x="51.111563" y="48.075641" style="fill: #7f7f7f; stroke: #7f7f7f; stroke-width: 1.8"/>
      </g>
     </g>
     <g id="text_16">
      <!-- 0.30 -->
      <g style="fill: #7f7f7f" transform="translate(21.845938 51.87486) scale(0.1 -0.1)">
       <defs>
        <path id="DejaVuSans-33" d="M 2597 2516 
Q 3050 2419 3304 2112 
Q 3559 1806 3559 1356 
Q 3559 666 3084 287 
Q 2609 -91 1734 -91 
Q 1441 -91 1130 -33 
Q 819 25 488 141 
L 488 750 
Q 750 597 1062 519 
Q 1375 441 1716 441 
Q 2309 441 2620 675 
Q 2931 909 2931 1356 
Q 2931 1769 2642 2001 
Q 2353 2234 1838 2234 
L 1294 2234 
L 1294 2753 
L 1863 2753 
Q 2328 2753 2575 2939 
Q 2822 3125 2822 3475 
Q 2822 3834 2567 4026 
Q 2313 4219 1838 4219 
Q 1578 4219 1281 4162 
Q 984 4106 628 3988 
L 628 4550 
Q 988 4650 1302 4700 
Q 1616 4750 1894 4750 
Q 2613 4750 3031 4423 
Q 3450 4097 3450 3541 
Q 3450 3153 3228 2886 
Q 3006 2619 2597 2516 
z
" transform="scale(0.015625)"/>
       </defs>
       <use xlink:href="#DejaVuSans-30"/>
       <use xlink:href="#DejaVuSans-2e" transform="translate(63.623047 0)"/>
       <use xlink:href="#DejaVuSans-33" transform="translate(95.410156 0)"/>
       <use xlink:href="#DejaVuSans-30" transform="translate(159.033203 0)"/>
      </g>
     </g>
    </g>
    <g id="ytick_8">
     <g id="line2d_17">
      <g>
       <use xlink:href="#mf9420f1b42" x="51.111563" y="25.603131" style="fill: #7f7f7f; stroke: #7f7f7f; stroke-width: 1.8"/>
      </g>
     </g>
     <g id="text_17">
      <!-- 0.35 -->
      <g style="fill: #7f7f7f" transform="translate(21.845938 29.40235) scale(0.1 -0.1)">
       <use xlink:href="#DejaVuSans-30"/>
       <use xlink:href="#DejaVuSans-2e" transform="translate(63.623047 0)"/>
       <use xlink:href="#DejaVuSans-33" transform="translate(95.410156 0)"/>
       <use xlink:href="#DejaVuSans-35" transform="translate(159.033203 0)"/>
      </g>
     </g>
    </g>
    <g id="text_18">
     <!-- Position Error [m] -->
     <g style="fill: #7f7f7f" transform="translate(15.558281 154.397187) rotate(-90) scale(0.11 -0.11)">
      <defs>
       <path id="DejaVuSans-50" d="M 1259 4147 
L 1259 2394 
L 2053 2394 
Q 2494 2394 2734 2622 
Q 2975 2850 2975 3272 
Q 2975 3691 2734 3919 
Q 2494 4147 2053 4147 
L 1259 4147 
z
M 628 4666 
L 2053 4666 
Q 2838 4666 3239 4311 
Q 3641 3956 3641 3272 
Q 3641 2581 3239 2228 
Q 2838 1875 2053 1875 
L 1259 1875 
L 1259 0 
L 628 0 
L 628 4666 
z
" transform="scale(0.015625)"/>
       <path id="DejaVuSans-6f" d="M 1959 3097 
Q 1497 3097 1228 2736 
Q 959 2375 959 1747 
Q 959 1119 1226 758 
Q 1494 397 1959 397 
Q 2419 397 2687 759 
Q 2956 1122 2956 1747 
Q 2956 2369 2687 2733 
Q 2419 3097 1959 3097 
z
M 1959 3584 
Q 2709 3584 3137 3096 
Q 3566 2609 3566 1747 
Q 3566 888 3137 398 
Q 2709 -91 1959 -91 
Q 1206 -91 779 398 
Q 353 888 353 1747 
Q 353 2609 779 3096 
Q 1206 3584 1959 3584 
z
" transform="scale(0.015625)"/>
       <path id="DejaVuSans-73" d="M 2834 3397 
L 2834 2853 
Q 2591 2978 2328 3040 
Q 2066 3103 1784 3103 
Q 1356 3103 1142 2972 
Q 928 2841 928 2578 
Q 928 2378 1081 2264 
Q 1234 2150 1697 2047 
L 1894 2003 
Q 2506 1872 2764 1633 
Q 3022 1394 3022 966 
Q 3022 478 2636 193 
Q 2250 -91 1575 -91 
Q 1294 -91 989 -36 
Q 684 19 347 128 
L 347 722 
Q 666 556 975 473 
Q 1284 391 1588 391 
Q 1994 391 2212 530 
Q 2431 669 2431 922 
Q 2431 1156 2273 1281 
Q 2116 1406 1581 1522 
L 1381 1569 
Q 847 1681 609 1914 
Q 372 2147 372 2553 
Q 372 3047 722 3315 
Q 1072 3584 1716 3584 
Q 2034 3584 2315 3537 
Q 2597 3491 2834 3397 
z
" transform="scale(0.015625)"/>
       <path id="DejaVuSans-69" d="M 603 3500 
L 1178 3500 
L 1178 0 
L 603 0 
L 603 3500 
z
M 603 4863 
L 1178 4863 
L 1178 4134 
L 603 4134 
L 603 4863 
z
" transform="scale(0.015625)"/>
       <path id="DejaVuSans-74" d="M 1172 4494 
L 1172 3500 
L 2356 3500 
L 2356 3053 
L 1172 3053 
L 1172 1153 
Q 1172 725 1289 603 
Q 1406 481 1766 481 
L 2356 481 
L 2356 0 
L 1766 0 
Q 1100 0 847 248 
Q 594 497 594 1153 
L 594 3053 
L 172 3053 
L 172 3500 
L 594 3500 
L 594 4494 
L 1172 4494 
z
" transform="scale(0.015625)"/>
       <path id="DejaVuSans-6e" d="M 3513 2113 
L 3513 0 
L 2938 0 
L 2938 2094 
Q 2938 2591 2744 2837 
Q 2550 3084 2163 3084 
Q 1697 3084 1428 2787 
Q 1159 2491 1159 1978 
L 1159 0 
L 581 0 
L 581 3500 
L 1159 3500 
L 1159 2956 
Q 1366 3272 1645 3428 
Q 1925 3584 2291 3584 
Q 2894 3584 3203 3211 
Q 3513 2838 3513 2113 
z
" transform="scale(0.015625)"/>
       <path id="DejaVuSans-20" transform="scale(0.015625)"/>
       <path id="DejaVuSans-45" d="M 628 4666 
L 3578 4666 
L 3578 4134 
L 1259 4134 
L 1259 2753 
L 3481 2753 
L 3481 2222 
L 1259 2222 
L 1259 531 
L 3634 531 
L 3634 0 
L 628 0 
L 628 4666 
z
" transform="scale(0.015625)"/>
       <path id="DejaVuSans-72" d="M 2631 2963 
Q 2534 3019 2420 3045 
Q 2306 3072 2169 3072 
Q 1681 3072 1420 2755 
Q 1159 2438 1159 1844 
L 1159 0 
L 581 0 
L 581 3500 
L 1159 3500 
L 1159 2956 
Q 1341 3275 1631 3429 
Q 1922 3584 2338 3584 
Q 2397 3584 2469 3576 
Q 2541 3569 2628 3553 
L 2631 2963 
z
" transform="scale(0.015625)"/>
       <path id="DejaVuSans-5b" d="M 550 4863 
L 1875 4863 
L 1875 4416 
L 1125 4416 
L 1125 -397 
L 1875 -397 
L 1875 -844 
L 550 -844 
L 550 4863 
z
" transform="scale(0.015625)"/>
       <path id="DejaVuSans-6d" d="M 3328 2828 
Q 3544 3216 3844 3400 
Q 4144 3584 4550 3584 
Q 5097 3584 5394 3201 
Q 5691 2819 5691 2113 
L 5691 0 
L 5113 0 
L 5113 2094 
Q 5113 2597 4934 2840 
Q 4756 3084 4391 3084 
Q 3944 3084 3684 2787 
Q 3425 2491 3425 1978 
L 3425 0 
L 2847 0 
L 2847 2094 
Q 2847 2600 2669 2842 
Q 2491 3084 2119 3084 
Q 1678 3084 1418 2786 
Q 1159 2488 1159 1978 
L 1159 0 
L 581 0 
L 581 3500 
L 1159 3500 
L 1159 2956 
Q 1356 3278 1631 3431 
Q 1906 3584 2284 3584 
Q 2666 3584 2933 3390 
Q 3200 3197 3328 2828 
z
" transform="scale(0.015625)"/>
       <path id="DejaVuSans-5d" d="M 1947 4863 
L 1947 -844 
L 622 -844 
L 622 -397 
L 1369 -397 
L 1369 4416 
L 622 4416 
L 622 4863 
L 1947 4863 
z
" transform="scale(0.015625)"/>
      </defs>
      <use xlink:href="#DejaVuSans-50"/>
      <use xlink:href="#DejaVuSans-6f" transform="translate(56.677734 0)"/>
      <use xlink:href="#DejaVuSans-73" transform="translate(117.859375 0)"/>
      <use xlink:href="#DejaVuSans-69" transform="translate(169.958984 0)"/>
      <use xlink:href="#DejaVuSans-74" transform="translate(197.742188 0)"/>
      <use xlink:href="#DejaVuSans-69" transform="translate(236.951172 0)"/>
      <use xlink:href="#DejaVuSans-6f" transform="translate(264.734375 0)"/>
      <use xlink:href="#DejaVuSans-6e" transform="translate(325.916016 0)"/>
      <use xlink:href="#DejaVuSans-20" transform="translate(389.294922 0)"/>
      <use xlink:href="#DejaVuSans-45" transform="translate(421.082031 0)"/>
      <use xlink:href="#DejaVuSans-72" transform="translate(484.265625 0)"/>
      <use xlink:href="#DejaVuSans-72" transform="translate(523.628906 0)"/>
      <use xlink:href="#DejaVuSans-6f" transform="translate(562.492188 0)"/>
      <use xlink:href="#DejaVuSans-72" transform="translate(623.673828 0)"/>
      <use xlink:href="#DejaVuSans-20" transform="translate(664.787109 0)"/>
      <use xlink:href="#DejaVuSans-5b" transform="translate(696.574219 0)"/>
      <use xlink:href="#DejaVuSans-6d" transform="translate(735.587891 0)"/>
      <use xlink:href="#DejaVuSans-5d" transform="translate(833 0)"/>
     </g>
    </g>
   </g>
   <g id="line2d_18">
    <path d="M 74.604787 182.910703 
L 75.309584 145.547862 
L 75.544516 147.964272 
L 76.01438 30.292591 
L 76.719177 69.648451 
L 77.423974 112.861472 
L 77.658906 83.61331 
L 79.303432 179.861115 
L 80.008229 170.319774 
L 81.18289 132.319844 
L 81.887687 182.286136 
L 82.122619 177.756672 
L 83.062348 107.852457 
L 83.29728 131.186508 
L 83.532212 155.188116 
L 84.237009 125.511232 
L 85.176738 78.66763 
L 85.41167 98.391554 
L 87.291128 169.974698 
L 88.935654 96.479563 
L 89.405518 131.129244 
L 89.875383 93.822182 
L 90.110315 90.484785 
L 90.345247 92.83873 
L 90.58018 62.388602 
L 91.050044 95.404662 
L 91.284976 106.737225 
L 91.754841 81.211904 
L 92.459637 68.19276 
L 92.69457 81.637913 
L 92.929502 81.413667 
L 93.164434 76.81991 
L 93.399366 78.159728 
L 94.574028 136.632463 
L 94.80896 128.986882 
L 95.278824 118.377734 
L 95.513757 128.226959 
L 96.218553 163.775518 
L 96.92335 150.62149 
L 97.393215 167.372744 
L 98.332944 123.903177 
L 98.802808 115.417536 
L 99.742537 164.414883 
L 100.917198 113.83138 
L 101.152131 120.602672 
L 101.621995 122.141887 
L 102.326792 112.611769 
L 102.561724 116.638924 
L 103.266521 100.469375 
L 104.676114 149.066395 
L 104.911046 145.026002 
L 105.145979 157.662232 
L 105.850775 163.844529 
L 106.085708 160.421016 
L 107.260369 133.53224 
L 107.495301 142.194645 
L 107.965166 141.565369 
L 108.669962 158.419014 
L 109.609691 146.868033 
L 109.139827 162.99892 
L 110.314488 147.386078 
L 111.489149 160.015159 
L 111.724082 153.504716 
L 111.959014 174.287773 
L 112.193946 181.921819 
L 112.898743 176.431679 
L 115.71793 134.998141 
L 117.83232 182.351288 
L 119.241913 147.968453 
L 119.476846 160.973559 
L 120.416575 174.667689 
L 121.826168 148.55925 
L 122.0611 151.716473 
L 122.296033 145.087577 
L 122.530965 142.531402 
L 123.470694 172.33579 
L 123.705626 161.14485 
L 123.940558 174.49226 
L 124.645355 165.100341 
L 124.880287 155.591265 
L 125.350152 170.928283 
L 125.585084 161.986998 
L 126.994677 181.306885 
L 127.464542 178.691593 
L 130.048797 137.988649 
L 130.283729 124.942055 
L 130.518661 142.743113 
L 130.753593 141.331335 
L 130.988526 146.449069 
L 131.223458 129.208493 
L 131.693322 155.290877 
L 131.928255 149.197217 
L 132.398119 165.033687 
L 132.867984 148.920195 
L 133.102916 161.536843 
L 133.57278 165.968683 
L 134.042645 151.200251 
L 134.277577 172.749829 
L 134.982374 147.269418 
L 135.922103 169.71654 
L 136.157035 167.932058 
L 137.566628 127.641243 
L 137.801561 127.728189 
L 140.385815 182.886902 
L 140.620748 181.676081 
L 141.560477 165.500613 
L 141.795409 176.529285 
L 142.500206 169.312586 
L 143.205002 160.515196 
L 143.439935 170.485637 
L 144.144731 167.211315 
L 144.849528 172.077236 
L 145.789257 148.400878 
L 146.024189 157.386333 
L 146.494054 146.12054 
L 146.728986 156.770571 
L 147.19885 130.893256 
L 147.668715 141.574484 
L 148.843376 168.883172 
L 149.313241 172.626913 
L 149.548173 168.83092 
L 150.018037 149.704611 
L 150.957766 160.613867 
L 151.897495 170.88338 
L 151.662563 160.113703 
L 152.132428 167.230413 
L 152.602292 138.665665 
L 153.072157 150.660284 
L 153.542021 169.728369 
L 154.011886 155.311092 
L 154.246818 157.187711 
L 155.186547 128.987496 
L 155.421479 129.118575 
L 156.126276 135.912065 
L 155.891343 124.605228 
L 156.361208 129.392394 
L 156.59614 116.298515 
L 157.300937 125.573326 
L 157.535869 124.707488 
L 158.71053 108.368035 
L 158.945463 110.071538 
L 160.824921 144.059127 
L 161.059853 136.741211 
L 161.294785 122.507145 
L 161.999582 139.937913 
L 162.234514 145.749189 
L 162.469446 127.415388 
L 162.704379 132.7112 
L 163.174243 134.962255 
L 163.409175 128.483053 
L 164.818769 157.307917 
L 165.288633 136.78317 
L 165.523565 149.174953 
L 166.463294 177.912063 
L 166.698227 176.590353 
L 168.10782 140.629205 
L 168.342752 139.053276 
L 169.752346 150.751956 
L 170.22221 148.03982 
L 170.692075 160.848455 
L 171.161939 158.265379 
L 171.396872 153.521679 
L 171.631804 164.344806 
L 172.806465 177.927408 
L 173.27633 172.730632 
L 173.511262 168.053061 
L 173.746194 173.404567 
L 173.981126 182.102872 
L 174.685923 181.331949 
L 175.155787 159.320543 
L 175.860584 160.62924 
L 176.330449 130.464491 
L 177.270178 104.512107 
L 177.740042 114.200421 
L 178.679771 127.171055 
L 180.324297 88.478322 
L 182.438687 169.029694 
L 183.378416 182.269777 
L 184.78801 139.065287 
L 185.022942 149.907179 
L 186.197603 100.667949 
L 187.372264 72.977891 
L 187.607196 73.980326 
L 188.077061 50.738577 
L 188.546925 63.026553 
L 189.721587 80.754676 
L 190.661316 112.585134 
L 191.13118 111.954996 
L 191.366112 109.727981 
L 191.601045 111.369338 
L 191.835977 115.078532 
L 192.070909 111.412126 
L 192.305841 100.321671 
L 192.540774 111.577285 
L 192.775706 106.619327 
L 193.715435 122.547017 
L 194.890096 98.614145 
L 195.125028 102.547884 
L 196.064757 87.90968 
L 196.299689 88.981529 
L 196.534622 84.035387 
L 196.769554 57.971365 
L 197.474351 76.3751 
L 197.709283 76.789229 
L 197.944215 70.783879 
L 198.179147 77.804822 
L 198.41408 76.87805 
L 198.649012 78.73872 
L 200.52847 132.263311 
L 200.763402 134.727596 
L 201.468199 117.625103 
L 201.703131 129.696269 
L 201.938063 129.373697 
L 202.64286 143.205918 
L 203.347657 122.123213 
L 203.582589 127.523576 
L 205.227115 146.292535 
L 205.931912 138.499296 
L 206.166844 145.921389 
L 208.046302 181.447496 
L 208.516166 174.315484 
L 209.220963 143.793021 
L 209.690827 146.923629 
L 210.865489 130.724545 
L 211.100421 135.032252 
L 211.335353 121.623708 
L 211.570285 109.897857 
L 212.275082 117.175872 
L 212.744947 123.851808 
L 213.214811 117.0732 
L 215.799066 69.4372 
L 216.033998 70.37356 
L 217.443591 128.725521 
L 217.678524 125.616672 
L 218.618253 102.767921 
L 218.853185 104.008719 
L 219.323049 132.488132 
L 220.262778 121.264061 
L 220.732643 128.181889 
L 221.202507 124.159239 
L 221.43744 123.349581 
L 222.142236 94.876822 
L 222.377169 106.109692 
L 222.847033 113.065586 
L 223.081965 99.955673 
L 223.316898 99.998239 
L 226.371017 182.39606 
L 227.075813 159.555203 
L 227.310746 162.755084 
L 227.545678 144.383586 
L 228.015542 167.115747 
L 228.250475 158.815338 
L 229.190204 172.126387 
L 229.425136 164.743265 
L 229.660068 165.337645 
L 229.895 162.192425 
L 230.364865 181.780614 
L 231.069662 178.351486 
L 232.244323 144.127579 
L 232.714187 150.386087 
L 234.123781 175.473889 
L 234.358713 182.759539 
L 234.828578 170.231022 
L 235.06351 159.269265 
L 235.768307 170.555241 
L 236.003239 173.011642 
L 236.238171 165.969285 
L 238.117629 139.02281 
L 239.527222 176.722008 
L 240.701884 159.667349 
L 241.876545 172.777784 
L 242.111477 181.909792 
L 242.581342 180.937403 
L 243.051206 152.696735 
L 243.756003 161.58032 
L 244.225867 140.423575 
L 244.695732 122.766619 
L 245.165596 130.896108 
L 245.400529 139.373391 
L 245.870393 134.441686 
L 246.57519 115.708026 
L 247.045054 117.309779 
L 247.514919 113.70001 
L 248.454648 128.294543 
L 249.394377 134.200471 
L 249.629309 124.390826 
L 250.334106 134.600917 
L 250.569038 137.991165 
L 250.80397 131.366698 
L 251.508767 134.345947 
L 251.978631 115.430603 
L 252.91836 164.416867 
L 253.623157 149.438736 
L 253.858089 144.535312 
L 254.562886 149.803536 
L 254.797818 151.241864 
L 255.032751 171.334085 
L 255.737547 151.526118 
L 255.97248 153.65402 
L 257.147141 119.312752 
L 257.382073 135.636691 
L 257.617005 157.532014 
L 258.321802 148.477361 
L 258.556734 134.954446 
L 259.261531 147.846845 
L 260.20126 164.615782 
L 260.671124 163.485322 
L 263.020447 125.533416 
L 263.255379 126.962158 
L 263.490311 129.237116 
L 263.725244 116.748892 
L 264.195108 132.781238 
L 265.604702 181.806471 
L 265.839634 180.200337 
L 267.719092 123.670905 
L 268.423888 129.656893 
L 268.188956 120.419791 
L 268.658821 124.155883 
L 270.068414 89.053716 
L 270.303346 99.273412 
L 271.243075 97.132032 
L 271.71294 92.494282 
L 272.182804 97.790716 
L 273.122533 117.326233 
L 274.062262 101.278033 
L 274.297195 106.715061 
L 274.532127 106.306231 
L 275.94172 137.471143 
L 277.351314 88.290921 
L 278.056111 106.087105 
L 278.525975 102.222978 
L 279.700636 70.942827 
L 281.11023 96.744604 
L 281.815026 57.661283 
L 282.754755 68.146914 
L 282.989688 67.445751 
L 285.104078 112.364248 
L 285.33901 107.891673 
L 285.808875 132.391048 
L 286.278739 121.360545 
L 286.513671 112.789895 
L 286.748604 129.841132 
L 287.218468 142.738293 
L 287.688333 139.046616 
L 287.923265 130.559261 
L 288.393129 147.200457 
L 288.628062 146.47762 
L 289.802723 181.444872 
L 290.037655 168.573752 
L 290.507519 173.106867 
L 291.447248 145.498177 
L 291.682181 148.49362 
L 291.917113 147.456812 
L 293.326706 128.740486 
L 294.7363 108.871599 
L 296.145893 85.950999 
L 296.85069 87.845957 
L 297.320555 79.272088 
L 297.555487 67.956479 
L 298.025351 68.363468 
L 298.730148 104.536689 
L 299.200012 93.905924 
L 299.434945 91.456457 
L 299.669877 97.211228 
L 300.609606 122.292597 
L 300.844538 121.528472 
L 301.549335 128.432397 
L 301.784267 146.894408 
L 302.489064 136.497386 
L 303.898657 100.271846 
L 304.368522 103.334803 
L 306.482912 175.472291 
L 306.717844 173.363982 
L 306.952777 172.803779 
L 307.187709 176.364975 
L 307.422641 175.290652 
L 308.36237 160.647374 
L 309.067167 180.652855 
L 309.302099 169.969046 
L 309.771963 142.580066 
L 310.241828 161.939289 
L 311.181557 180.076016 
L 311.416489 179.14152 
L 312.121286 156.248025 
L 312.59115 165.986157 
L 312.826083 182.155559 
L 313.530879 181.766871 
L 313.765812 164.928881 
L 314.470608 176.659339 
L 314.705541 178.796853 
L 314.940473 173.872669 
L 315.175405 149.971106 
L 315.880202 171.274575 
L 316.115134 179.838232 
L 316.584999 170.875799 
L 316.819931 171.359841 
L 317.994592 150.724661 
L 319.404186 177.617143 
L 319.639118 173.416421 
L 319.87405 176.625074 
L 320.343914 148.768067 
L 321.048711 159.099362 
L 321.283643 167.824994 
L 321.753508 153.955829 
L 322.223372 160.340611 
L 322.458305 148.641792 
L 323.163101 162.701505 
L 323.398034 156.699249 
L 324.807627 138.27924 
L 325.042559 153.072296 
L 325.512424 137.492166 
L 325.747356 132.873706 
L 326.217221 134.804854 
L 327.391882 150.977976 
L 327.626814 153.321799 
L 327.861746 175.918359 
L 328.566543 162.772937 
L 328.801475 156.380579 
L 329.036408 157.232709 
L 329.27134 176.491126 
L 329.976137 158.978315 
L 331.150798 107.83586 
L 331.620662 108.523796 
L 333.030256 130.48166 
L 333.735052 130.783491 
L 334.204917 110.15649 
L 334.909714 97.615427 
L 334.674781 110.588738 
L 335.144646 108.434215 
L 335.379578 107.37759 
L 336.084375 106.070965 
L 336.789172 131.591257 
L 337.259036 120.064047 
L 337.728901 123.548707 
L 337.963833 131.945869 
L 338.198765 123.958769 
L 338.903562 108.130035 
L 339.138494 116.205775 
L 339.373426 117.136447 
L 340.78302 145.75182 
L 341.722749 170.191961 
L 342.427545 160.75506 
L 342.662478 156.344183 
L 342.89741 160.979071 
L 343.367274 181.86649 
L 343.837139 165.322292 
L 344.541936 147.064015 
L 344.776868 165.132562 
L 345.0118 164.30025 
L 347.12619 112.263676 
L 347.361123 107.105973 
L 347.596055 115.803943 
L 347.830987 115.04348 
L 348.065919 117.204692 
L 348.770716 102.903494 
L 349.240581 108.162855 
L 351.824835 135.551519 
L 352.059767 134.312159 
L 352.2947 123.429145 
L 352.764564 140.865267 
L 352.999496 140.810562 
L 353.939225 161.309149 
L 354.878954 142.905263 
L 356.053616 165.117001 
L 356.288548 160.902849 
L 356.52348 157.795638 
L 356.758412 160.588654 
L 356.993345 166.558244 
L 357.228277 152.954911 
L 357.463209 154.695548 
L 358.402938 137.769193 
L 358.63787 142.019924 
L 359.812532 163.044678 
L 360.047464 143.023591 
L 360.752261 158.115387 
L 361.222125 171.097047 
L 361.457057 157.897816 
L 362.161854 145.425203 
L 363.336515 174.663829 
L 363.80638 152.857784 
L 364.276244 167.617662 
L 364.511176 165.221386 
L 364.746109 167.251676 
L 365.215973 174.048295 
L 365.685838 145.376402 
L 366.155702 153.418978 
L 367.330363 177.959614 
L 367.800228 159.961564 
L 368.739957 166.530159 
L 369.209821 177.922021 
L 369.679686 167.513846 
L 371.559144 110.706467 
L 372.968737 83.374459 
L 374.143398 115.210637 
L 375.083127 91.78388 
L 375.31806 103.939732 
L 375.787924 99.901259 
L 376.727653 85.99719 
L 377.902314 125.573077 
L 378.372179 125.188916 
L 378.607111 110.955695 
L 379.076976 126.312228 
L 379.311908 113.789473 
L 380.956434 141.188097 
L 381.426298 133.959632 
L 381.66123 144.799696 
L 381.896162 142.032286 
L 382.366027 155.552171 
L 382.835891 144.571512 
L 383.070824 144.888414 
L 384.245485 182.725413 
L 384.480417 176.685247 
L 384.950282 148.523163 
L 385.420146 166.001002 
L 385.655078 168.10135 
L 386.82974 138.218183 
L 386.124943 168.994792 
L 387.064672 140.894568 
L 389.179062 182.620279 
L 390.588656 145.033392 
L 390.823588 143.999745 
L 391.05852 146.500829 
L 391.528385 136.347477 
L 391.763317 147.253172 
L 391.998249 144.026285 
L 392.703046 166.539362 
L 392.937978 147.077278 
L 393.17291 140.58043 
L 393.877707 145.02299 
L 395.757165 181.442528 
L 396.227029 180.830337 
L 396.696894 180.97774 
L 397.166758 172.562441 
L 398.34142 159.553198 
L 399.516081 181.501393 
L 399.985945 172.611012 
L 401.160607 138.846513 
L 401.865403 151.745252 
L 402.100336 159.001294 
L 402.5702 147.100847 
L 402.805132 144.394888 
L 403.744861 175.945405 
L 403.979793 164.892843 
L 404.214726 164.196473 
L 404.919522 182.736993 
L 405.389387 180.432834 
L 406.564048 153.706392 
L 405.859251 181.368613 
L 406.79898 154.209944 
L 407.033913 160.593586 
L 407.268845 158.984291 
L 407.503777 144.688063 
L 408.208574 162.391991 
L 408.443506 155.69853 
L 408.913371 160.778728 
L 409.618167 171.828062 
L 409.8531 155.857489 
L 410.088032 172.09205 
L 410.557896 156.516492 
L 411.262693 175.499023 
L 411.497625 175.120095 
L 411.732558 155.779571 
L 412.437354 169.981353 
L 413.142151 162.563931 
L 414.08188 175.934466 
L 414.316812 172.03135 
L 414.551744 170.386769 
L 414.786677 160.340324 
L 415.491473 166.89555 
L 415.726406 166.58698 
L 416.431202 180.669104 
L 416.666135 164.082565 
L 416.901067 176.221059 
L 417.135999 177.414122 
L 417.840796 166.187947 
L 418.075728 166.876262 
L 418.545593 182.339966 
L 419.250389 177.679042 
L 419.955186 144.426911 
L 420.894915 155.157334 
L 421.599712 172.359612 
L 421.834644 160.233274 
L 422.539441 138.068283 
L 423.009305 150.120068 
L 423.244237 161.519164 
L 423.47917 144.858385 
L 423.714102 130.907433 
L 424.183966 145.533049 
L 425.358628 176.634422 
L 426.533289 164.603846 
L 427.70795 179.683099 
L 427.003153 163.264235 
L 427.942882 177.937749 
L 429.117544 143.68869 
L 430.292205 175.790214 
L 430.762069 156.8917 
L 431.231934 160.975241 
L 431.701798 179.53228 
L 432.171663 177.409345 
L 434.051121 127.205621 
L 434.286053 126.190016 
L 435.460714 145.223432 
L 436.870308 109.18214 
L 437.340172 123.274802 
L 437.575104 132.629756 
L 438.044969 117.022426 
L 438.514833 97.532554 
L 439.21963 108.184217 
L 439.924427 129.515216 
L 440.629224 125.318156 
L 440.864156 119.848035 
L 441.099088 126.013452 
L 441.33402 136.698308 
L 442.038817 127.979728 
L 442.508682 129.392171 
L 444.623072 78.732036 
L 445.327868 80.62743 
L 446.032665 73.384779 
L 446.267597 63.438451 
L 446.50253 78.405016 
L 447.207326 65.066746 
L 447.442259 70.82922 
L 447.677191 57.620472 
L 448.147055 51.860428 
L 448.381988 52.495628 
L 448.61692 60.932886 
L 448.851852 57.132969 
L 449.556649 29.965391 
L 449.791581 37.503152 
L 450.026513 64.852069 
L 450.73131 37.036736 
L 450.966242 45.893717 
L 451.671039 43.019269 
L 451.905971 39.606932 
L 452.140904 47.91577 
L 454.96009 129.594259 
L 455.195023 107.250074 
L 455.899819 132.677924 
L 456.134752 134.366508 
L 456.369684 133.952061 
L 457.779277 174.717968 
L 458.01421 154.093621 
L 458.719006 156.931379 
L 459.423803 166.745933 
L 459.658735 156.030096 
L 459.893668 161.534664 
L 460.1286 140.683152 
L 461.068329 142.210424 
L 461.303261 146.842241 
L 461.538193 140.393996 
L 462.24299 119.530037 
L 462.712855 121.535983 
L 463.417651 140.193296 
L 463.887516 128.371942 
L 464.122448 128.083318 
L 464.35738 125.538516 
L 465.532041 102.404616 
L 465.766974 99.885366 
L 466.001906 107.579039 
L 466.706703 118.43353 
L 466.941635 114.3862 
L 467.176567 107.724294 
L 467.411499 119.404055 
L 467.646432 110.595684 
L 468.351228 145.114367 
L 468.821093 138.215331 
L 469.056025 137.295266 
L 471.405348 178.108432 
L 471.875212 164.376983 
L 472.580009 168.523077 
L 473.284806 181.980883 
L 473.989602 179.194847 
L 478.923179 72.553494 
L 479.158112 80.844104 
L 479.862908 114.693428 
L 480.332773 112.562272 
L 481.977299 168.946266 
L 482.682095 141.721327 
L 483.15196 141.811175 
L 483.386892 142.709497 
L 483.621824 154.849435 
L 484.326621 145.74589 
L 484.561553 148.148476 
L 485.501282 129.225151 
L 485.736214 134.403566 
L 485.971147 134.400072 
L 486.206079 139.34643 
L 486.441011 130.532739 
L 486.910876 136.648542 
L 488.790334 100.436407 
L 489.260198 113.550837 
L 489.730063 112.607869 
L 489.964995 116.416324 
L 490.199927 108.630768 
L 490.669792 113.666588 
L 490.904724 104.836365 
L 491.374588 109.64394 
L 492.784182 179.576414 
L 493.488979 163.572416 
L 493.723911 150.897192 
L 494.193775 172.467502 
L 494.428708 178.730065 
L 494.898572 173.51797 
L 496.308165 130.99928 
L 497.247894 133.662209 
L 498.657488 174.305385 
L 498.89242 167.838403 
L 499.362285 161.806546 
L 499.832149 166.166534 
L 501.241743 180.436488 
L 503.121201 158.95738 
L 503.356133 163.768385 
L 504.06093 133.653424 
L 504.530794 143.430224 
L 505.235591 161.384633 
L 505.705455 157.769266 
L 505.940387 151.983166 
L 506.410252 160.021314 
L 506.645184 164.263517 
L 507.115049 154.998278 
L 508.28971 145.424148 
L 509.229439 164.66598 
L 509.699303 158.588731 
L 509.934236 158.684822 
L 510.169168 136.92592 
L 510.639032 156.580369 
L 511.108897 172.095565 
L 511.343829 161.024333 
L 512.048626 146.177229 
L 512.283558 157.213048 
L 512.51849 156.795744 
L 512.988355 170.633231 
L 513.458219 158.469827 
L 513.693152 152.241898 
L 514.163016 158.370766 
L 514.397948 160.144943 
L 514.632881 155.174423 
L 516.277406 134.062979 
L 516.747271 133.420724 
L 517.687 155.030317 
L 517.921932 157.849978 
L 518.391796 125.725287 
L 519.096593 131.46965 
L 519.566458 108.889085 
L 520.506187 95.465119 
L 520.741119 97.289549 
L 520.976051 104.618636 
L 521.210983 99.201163 
L 521.91578 82.01821 
L 522.385645 84.983433 
L 523.325374 84.46423 
L 523.795238 98.460657 
L 524.265103 119.344858 
L 524.500035 98.278266 
L 524.734967 102.104484 
L 525.204832 80.034327 
L 525.909628 85.475995 
L 526.144561 86.535084 
L 527.789086 129.060843 
L 528.963747 85.615027 
L 529.433612 99.93715 
L 531.078138 139.667537 
L 531.31307 140.186183 
L 532.487731 176.558774 
L 533.192528 169.00175 
L 533.42746 162.471231 
L 533.662392 173.996598 
L 534.132257 182.841977 
L 534.602121 173.918576 
L 535.071986 153.74224 
L 535.54185 164.404892 
L 536.246647 175.727863 
L 536.481579 170.181875 
L 536.716512 168.51233 
L 536.951444 180.183843 
L 537.65624 165.875177 
L 538.126105 182.608958 
L 538.361037 165.126708 
L 538.830902 176.015315 
L 539.065834 181.243225 
L 539.535698 174.96076 
L 540.005563 180.470333 
L 540.240495 181.481932 
L 542.119953 151.364292 
L 542.354885 156.212635 
L 542.589818 151.612006 
L 544.234343 122.476432 
L 544.469276 129.498952 
L 544.469276 129.498952 
" clip-path="url(#p10235b5e46)" style="fill: none; stroke: #e41a1c; stroke-width: 2; stroke-linecap: square"/>
   </g>
   <g id="patch_3">
    <path d="M 51.111563 190.557969 
L 51.111563 22.318125 
" style="fill: none; stroke: #7f7f7f; stroke-width: 1.8; stroke-linejoin: miter; stroke-linecap: square"/>
   </g>
   <g id="patch_4">
    <path d="M 51.111563 190.557969 
L 567.9625 190.557969 
" style="fill: none; stroke: #7f7f7f; stroke-width: 1.8; stroke-linejoin: miter; stroke-linecap: square"/>
   </g>
   <g id="text_19">
    <!-- Kalman Filter Estimation Error -->
    <g style="fill: #7f7f7f" transform="translate(206.523594 16.318125) scale(0.12 -0.12)">
     <defs>
      <path id="DejaVuSans-Bold-4b" d="M 588 4666 
L 1791 4666 
L 1791 2963 
L 3525 4666 
L 4922 4666 
L 2675 2456 
L 5153 0 
L 3647 0 
L 1791 1838 
L 1791 0 
L 588 0 
L 588 4666 
z
" transform="scale(0.015625)"/>
      <path id="DejaVuSans-Bold-61" d="M 2106 1575 
Q 1756 1575 1579 1456 
Q 1403 1338 1403 1106 
Q 1403 894 1545 773 
Q 1688 653 1941 653 
Q 2256 653 2472 879 
Q 2688 1106 2688 1447 
L 2688 1575 
L 2106 1575 
z
M 3816 1997 
L 3816 0 
L 2688 0 
L 2688 519 
Q 2463 200 2181 54 
Q 1900 -91 1497 -91 
Q 953 -91 614 226 
Q 275 544 275 1050 
Q 275 1666 698 1953 
Q 1122 2241 2028 2241 
L 2688 2241 
L 2688 2328 
Q 2688 2594 2478 2717 
Q 2269 2841 1825 2841 
Q 1466 2841 1156 2769 
Q 847 2697 581 2553 
L 581 3406 
Q 941 3494 1303 3539 
Q 1666 3584 2028 3584 
Q 2975 3584 3395 3211 
Q 3816 2838 3816 1997 
z
" transform="scale(0.015625)"/>
      <path id="DejaVuSans-Bold-6c" d="M 538 4863 
L 1656 4863 
L 1656 0 
L 538 0 
L 538 4863 
z
" transform="scale(0.015625)"/>
      <path id="DejaVuSans-Bold-6d" d="M 3781 2919 
Q 3994 3244 4286 3414 
Q 4578 3584 4928 3584 
Q 5531 3584 5847 3212 
Q 6163 2841 6163 2131 
L 6163 0 
L 5038 0 
L 5038 1825 
Q 5041 1866 5042 1909 
Q 5044 1953 5044 2034 
Q 5044 2406 4934 2573 
Q 4825 2741 4581 2741 
Q 4263 2741 4089 2478 
Q 3916 2216 3909 1719 
L 3909 0 
L 2784 0 
L 2784 1825 
Q 2784 2406 2684 2573 
Q 2584 2741 2328 2741 
Q 2006 2741 1831 2477 
Q 1656 2213 1656 1722 
L 1656 0 
L 531 0 
L 531 3500 
L 1656 3500 
L 1656 2988 
Q 1863 3284 2130 3434 
Q 2397 3584 2719 3584 
Q 3081 3584 3359 3409 
Q 3638 3234 3781 2919 
z
" transform="scale(0.015625)"/>
      <path id="DejaVuSans-Bold-6e" d="M 4056 2131 
L 4056 0 
L 2931 0 
L 2931 347 
L 2931 1631 
Q 2931 2084 2911 2256 
Q 2891 2428 2841 2509 
Q 2775 2619 2662 2680 
Q 2550 2741 2406 2741 
Q 2056 2741 1856 2470 
Q 1656 2200 1656 1722 
L 1656 0 
L 538 0 
L 538 3500 
L 1656 3500 
L 1656 2988 
Q 1909 3294 2193 3439 
Q 2478 3584 2822 3584 
Q 3428 3584 3742 3212 
Q 4056 2841 4056 2131 
z
" transform="scale(0.015625)"/>
      <path id="DejaVuSans-Bold-20" transform="scale(0.015625)"/>
      <path id="DejaVuSans-Bold-46" d="M 588 4666 
L 3834 4666 
L 3834 3756 
L 1791 3756 
L 1791 2888 
L 3713 2888 
L 3713 1978 
L 1791 1978 
L 1791 0 
L 588 0 
L 588 4666 
z
" transform="scale(0.015625)"/>
      <path id="DejaVuSans-Bold-69" d="M 538 3500 
L 1656 3500 
L 1656 0 
L 538 0 
L 538 3500 
z
M 538 4863 
L 1656 4863 
L 1656 3950 
L 538 3950 
L 538 4863 
z
" transform="scale(0.015625)"/>
      <path id="DejaVuSans-Bold-74" d="M 1759 4494 
L 1759 3500 
L 2913 3500 
L 2913 2700 
L 1759 2700 
L 1759 1216 
Q 1759 972 1856 886 
Q 1953 800 2241 800 
L 2816 800 
L 2816 0 
L 1856 0 
Q 1194 0 917 276 
Q 641 553 641 1216 
L 641 2700 
L 84 2700 
L 84 3500 
L 641 3500 
L 641 4494 
L 1759 4494 
z
" transform="scale(0.015625)"/>
      <path id="DejaVuSans-Bold-65" d="M 4031 1759 
L 4031 1441 
L 1416 1441 
Q 1456 1047 1700 850 
Q 1944 653 2381 653 
Q 2734 653 3104 758 
Q 3475 863 3866 1075 
L 3866 213 
Q 3469 63 3072 -14 
Q 2675 -91 2278 -91 
Q 1328 -91 801 392 
Q 275 875 275 1747 
Q 275 2603 792 3093 
Q 1309 3584 2216 3584 
Q 3041 3584 3536 3087 
Q 4031 2591 4031 1759 
z
M 2881 2131 
Q 2881 2450 2695 2645 
Q 2509 2841 2209 2841 
Q 1884 2841 1681 2658 
Q 1478 2475 1428 2131 
L 2881 2131 
z
" transform="scale(0.015625)"/>
      <path id="DejaVuSans-Bold-72" d="M 3138 2547 
Q 2991 2616 2845 2648 
Q 2700 2681 2553 2681 
Q 2122 2681 1889 2404 
Q 1656 2128 1656 1613 
L 1656 0 
L 538 0 
L 538 3500 
L 1656 3500 
L 1656 2925 
Q 1872 3269 2151 3426 
Q 2431 3584 2822 3584 
Q 2878 3584 2943 3579 
Q 3009 3575 3134 3559 
L 3138 2547 
z
" transform="scale(0.015625)"/>
      <path id="DejaVuSans-Bold-45" d="M 588 4666 
L 3834 4666 
L 3834 3756 
L 1791 3756 
L 1791 2888 
L 3713 2888 
L 3713 1978 
L 1791 1978 
L 1791 909 
L 3903 909 
L 3903 0 
L 588 0 
L 588 4666 
z
" transform="scale(0.015625)"/>
      <path id="DejaVuSans-Bold-73" d="M 3272 3391 
L 3272 2541 
Q 2913 2691 2578 2766 
Q 2244 2841 1947 2841 
Q 1628 2841 1473 2761 
Q 1319 2681 1319 2516 
Q 1319 2381 1436 2309 
Q 1553 2238 1856 2203 
L 2053 2175 
Q 2913 2066 3209 1816 
Q 3506 1566 3506 1031 
Q 3506 472 3093 190 
Q 2681 -91 1863 -91 
Q 1516 -91 1145 -36 
Q 775 19 384 128 
L 384 978 
Q 719 816 1070 734 
Q 1422 653 1784 653 
Q 2113 653 2278 743 
Q 2444 834 2444 1013 
Q 2444 1163 2330 1236 
Q 2216 1309 1875 1350 
L 1678 1375 
Q 931 1469 631 1722 
Q 331 1975 331 2491 
Q 331 3047 712 3315 
Q 1094 3584 1881 3584 
Q 2191 3584 2531 3537 
Q 2872 3491 3272 3391 
z
" transform="scale(0.015625)"/>
      <path id="DejaVuSans-Bold-6f" d="M 2203 2784 
Q 1831 2784 1636 2517 
Q 1441 2250 1441 1747 
Q 1441 1244 1636 976 
Q 1831 709 2203 709 
Q 2569 709 2762 976 
Q 2956 1244 2956 1747 
Q 2956 2250 2762 2517 
Q 2569 2784 2203 2784 
z
M 2203 3584 
Q 3106 3584 3614 3096 
Q 4122 2609 4122 1747 
Q 4122 884 3614 396 
Q 3106 -91 2203 -91 
Q 1297 -91 786 396 
Q 275 884 275 1747 
Q 275 2609 786 3096 
Q 1297 3584 2203 3584 
z
" transform="scale(0.015625)"/>
     </defs>
     <use xlink:href="#DejaVuSans-Bold-4b"/>
     <use xlink:href="#DejaVuSans-Bold-61" transform="translate(77.490234 0)"/>
     <use xlink:href="#DejaVuSans-Bold-6c" transform="translate(144.970703 0)"/>
     <use xlink:href="#DejaVuSans-Bold-6d" transform="translate(179.248047 0)"/>
     <use xlink:href="#DejaVuSans-Bold-61" transform="translate(283.447266 0)"/>
     <use xlink:href="#DejaVuSans-Bold-6e" transform="translate(350.927734 0)"/>
     <use xlink:href="#DejaVuSans-Bold-20" transform="translate(422.119141 0)"/>
     <use xlink:href="#DejaVuSans-Bold-46" transform="translate(456.933594 0)"/>
     <use xlink:href="#DejaVuSans-Bold-69" transform="translate(525.244141 0)"/>
     <use xlink:href="#DejaVuSans-Bold-6c" transform="translate(559.521484 0)"/>
     <use xlink:href="#DejaVuSans-Bold-74" transform="translate(593.798828 0)"/>
     <use xlink:href="#DejaVuSans-Bold-65" transform="translate(641.601562 0)"/>
     <use xlink:href="#DejaVuSans-Bold-72" transform="translate(709.423828 0)"/>
     <use xlink:href="#DejaVuSans-Bold-20" transform="translate(758.740234 0)"/>
     <use xlink:href="#DejaVuSans-Bold-45" transform="translate(793.554688 0)"/>
     <use xlink:href="#DejaVuSans-Bold-73" transform="translate(861.865234 0)"/>
     <use xlink:href="#DejaVuSans-Bold-74" transform="translate(921.386719 0)"/>
     <use xlink:href="#DejaVuSans-Bold-69" transform="translate(969.189453 0)"/>
     <use xlink:href="#DejaVuSans-Bold-6d" transform="translate(1003.466797 0)"/>
     <use xlink:href="#DejaVuSans-Bold-61" transform="translate(1107.666016 0)"/>
     <use xlink:href="#DejaVuSans-Bold-74" transform="translate(1175.146484 0)"/>
     <use xlink:href="#DejaVuSans-Bold-69" transform="translate(1222.949219 0)"/>
     <use xlink:href="#DejaVuSans-Bold-6f" transform="translate(1257.226562 0)"/>
     <use xlink:href="#DejaVuSans-Bold-6e" transform="translate(1325.927734 0)"/>
     <use xlink:href="#DejaVuSans-Bold-20" transform="translate(1397.119141 0)"/>
     <use xlink:href="#DejaVuSans-Bold-45" transform="translate(1431.933594 0)"/>
     <use xlink:href="#DejaVuSans-Bold-72" transform="translate(1500.244141 0)"/>
     <use xlink:href="#DejaVuSans-Bold-72" transform="translate(1549.560547 0)"/>
     <use xlink:href="#DejaVuSans-Bold-6f" transform="translate(1598.876953 0)"/>
     <use xlink:href="#DejaVuSans-Bold-72" transform="translate(1667.578125 0)"/>
    </g>
   </g>
  </g>
  <g id="axes_2">
   <g id="patch_5">
    <path d="M 51.111563 386.275937 
L 567.9625 386.275937 
L 567.9625 218.036094 
L 51.111563 218.036094 
L 51.111563 386.275937 
z
" style="fill: none"/>
   </g>
   <g id="matplotlib.axis_3">
    <g id="xtick_10">
     <g id="line2d_19">
      <g>
       <use xlink:href="#mca1e94b948" x="74.604787" y="386.275937" style="fill: #7f7f7f; stroke: #7f7f7f; stroke-width: 1.8"/>
      </g>
     </g>
     <g id="text_20">
      <!-- 0.0 -->
      <g style="fill: #7f7f7f" transform="translate(66.653224 400.874375) scale(0.1 -0.1)">
       <use xlink:href="#DejaVuSans-30"/>
       <use xlink:href="#DejaVuSans-2e" transform="translate(63.623047 0)"/>
       <use xlink:href="#DejaVuSans-30" transform="translate(95.410156 0)"/>
      </g>
     </g>
    </g>
    <g id="xtick_11">
     <g id="line2d_20">
      <g>
       <use xlink:href="#mca1e94b948" x="133.337848" y="386.275937" style="fill: #7f7f7f; stroke: #7f7f7f; stroke-width: 1.8"/>
      </g>
     </g>
     <g id="text_21">
      <!-- 2.5 -->
      <g style="fill: #7f7f7f" transform="translate(125.386286 400.874375) scale(0.1 -0.1)">
       <use xlink:href="#DejaVuSans-32"/>
       <use xlink:href="#DejaVuSans-2e" transform="translate(63.623047 0)"/>
       <use xlink:href="#DejaVuSans-35" transform="translate(95.410156 0)"/>
      </g>
     </g>
    </g>
    <g id="xtick_12">
     <g id="line2d_21">
      <g>
       <use xlink:href="#mca1e94b948" x="192.070909" y="386.275937" style="fill: #7f7f7f; stroke: #7f7f7f; stroke-width: 1.8"/>
      </g>
     </g>
     <g id="text_22">
      <!-- 5.0 -->
      <g style="fill: #7f7f7f" transform="translate(184.119347 400.874375) scale(0.1 -0.1)">
       <use xlink:href="#DejaVuSans-35"/>
       <use xlink:href="#DejaVuSans-2e" transform="translate(63.623047 0)"/>
       <use xlink:href="#DejaVuSans-30" transform="translate(95.410156 0)"/>
      </g>
     </g>
    </g>
    <g id="xtick_13">
     <g id="line2d_22">
      <g>
       <use xlink:href="#mca1e94b948" x="250.80397" y="386.275937" style="fill: #7f7f7f; stroke: #7f7f7f; stroke-width: 1.8"/>
      </g>
     </g>
     <g id="text_23">
      <!-- 7.5 -->
      <g style="fill: #7f7f7f" transform="translate(242.852408 400.874375) scale(0.1 -0.1)">
       <use xlink:href="#DejaVuSans-37"/>
       <use xlink:href="#DejaVuSans-2e" transform="translate(63.623047 0)"/>
       <use xlink:href="#DejaVuSans-35" transform="translate(95.410156 0)"/>
      </g>
     </g>
    </g>
    <g id="xtick_14">
     <g id="line2d_23">
      <g>
       <use xlink:href="#mca1e94b948" x="309.537031" y="386.275937" style="fill: #7f7f7f; stroke: #7f7f7f; stroke-width: 1.8"/>
      </g>
     </g>
     <g id="text_24">
      <!-- 10.0 -->
      <g style="fill: #7f7f7f" transform="translate(298.404219 400.874375) scale(0.1 -0.1)">
       <use xlink:href="#DejaVuSans-31"/>
       <use xlink:href="#DejaVuSans-30" transform="translate(63.623047 0)"/>
       <use xlink:href="#DejaVuSans-2e" transform="translate(127.246094 0)"/>
       <use xlink:href="#DejaVuSans-30" transform="translate(159.033203 0)"/>
      </g>
     </g>
    </g>
    <g id="xtick_15">
     <g id="line2d_24">
      <g>
       <use xlink:href="#mca1e94b948" x="368.270092" y="386.275937" style="fill: #7f7f7f; stroke: #7f7f7f; stroke-width: 1.8"/>
      </g>
     </g>
     <g id="text_25">
      <!-- 12.5 -->
      <g style="fill: #7f7f7f" transform="translate(357.13728 400.874375) scale(0.1 -0.1)">
       <use xlink:href="#DejaVuSans-31"/>
       <use xlink:href="#DejaVuSans-32" transform="translate(63.623047 0)"/>
       <use xlink:href="#DejaVuSans-2e" transform="translate(127.246094 0)"/>
       <use xlink:href="#DejaVuSans-35" transform="translate(159.033203 0)"/>
      </g>
     </g>
    </g>
    <g id="xtick_16">
     <g id="line2d_25">
      <g>
       <use xlink:href="#mca1e94b948" x="427.003153" y="386.275937" style="fill: #7f7f7f; stroke: #7f7f7f; stroke-width: 1.8"/>
      </g>
     </g>
     <g id="text_26">
      <!-- 15.0 -->
      <g style="fill: #7f7f7f" transform="translate(415.870341 400.874375) scale(0.1 -0.1)">
       <use xlink:href="#DejaVuSans-31"/>
       <use xlink:href="#DejaVuSans-35" transform="translate(63.623047 0)"/>
       <use xlink:href="#DejaVuSans-2e" transform="translate(127.246094 0)"/>
       <use xlink:href="#DejaVuSans-30" transform="translate(159.033203 0)"/>
      </g>
     </g>
    </g>
    <g id="xtick_17">
     <g id="line2d_26">
      <g>
       <use xlink:href="#mca1e94b948" x="485.736214" y="386.275937" style="fill: #7f7f7f; stroke: #7f7f7f; stroke-width: 1.8"/>
      </g>
     </g>
     <g id="text_27">
      <!-- 17.5 -->
      <g style="fill: #7f7f7f" transform="translate(474.603402 400.874375) scale(0.1 -0.1)">
       <use xlink:href="#DejaVuSans-31"/>
       <use xlink:href="#DejaVuSans-37" transform="translate(63.623047 0)"/>
       <use xlink:href="#DejaVuSans-2e" transform="translate(127.246094 0)"/>
       <use xlink:href="#DejaVuSans-35" transform="translate(159.033203 0)"/>
      </g>
     </g>
    </g>
    <g id="xtick_18">
     <g id="line2d_27">
      <g>
       <use xlink:href="#mca1e94b948" x="544.469276" y="386.275937" style="fill: #7f7f7f; stroke: #7f7f7f; stroke-width: 1.8"/>
      </g>
     </g>
     <g id="text_28">
      <!-- 20.0 -->
      <g style="fill: #7f7f7f" transform="translate(533.336463 400.874375) scale(0.1 -0.1)">
       <use xlink:href="#DejaVuSans-32"/>
       <use xlink:href="#DejaVuSans-30" transform="translate(63.623047 0)"/>
       <use xlink:href="#DejaVuSans-2e" transform="translate(127.246094 0)"/>
       <use xlink:href="#DejaVuSans-30" transform="translate(159.033203 0)"/>
      </g>
     </g>
    </g>
    <g id="text_29">
     <!-- Time [s] -->
     <g style="fill: #7f7f7f" transform="translate(287.175234 415.312344) scale(0.11 -0.11)">
      <defs>
       <path id="DejaVuSans-54" d="M -19 4666 
L 3928 4666 
L 3928 4134 
L 2272 4134 
L 2272 0 
L 1638 0 
L 1638 4134 
L -19 4134 
L -19 4666 
z
" transform="scale(0.015625)"/>
       <path id="DejaVuSans-65" d="M 3597 1894 
L 3597 1613 
L 953 1613 
Q 991 1019 1311 708 
Q 1631 397 2203 397 
Q 2534 397 2845 478 
Q 3156 559 3463 722 
L 3463 178 
Q 3153 47 2828 -22 
Q 2503 -91 2169 -91 
Q 1331 -91 842 396 
Q 353 884 353 1716 
Q 353 2575 817 3079 
Q 1281 3584 2069 3584 
Q 2775 3584 3186 3129 
Q 3597 2675 3597 1894 
z
M 3022 2063 
Q 3016 2534 2758 2815 
Q 2500 3097 2075 3097 
Q 1594 3097 1305 2825 
Q 1016 2553 972 2059 
L 3022 2063 
z
" transform="scale(0.015625)"/>
      </defs>
      <use xlink:href="#DejaVuSans-54"/>
      <use xlink:href="#DejaVuSans-69" transform="translate(57.958984 0)"/>
      <use xlink:href="#DejaVuSans-6d" transform="translate(85.742188 0)"/>
      <use xlink:href="#DejaVuSans-65" transform="translate(183.154297 0)"/>
      <use xlink:href="#DejaVuSans-20" transform="translate(244.677734 0)"/>
      <use xlink:href="#DejaVuSans-5b" transform="translate(276.464844 0)"/>
      <use xlink:href="#DejaVuSans-73" transform="translate(315.478516 0)"/>
      <use xlink:href="#DejaVuSans-5d" transform="translate(367.578125 0)"/>
     </g>
    </g>
   </g>
   <g id="matplotlib.axis_4">
    <g id="ytick_9">
     <g id="line2d_28">
      <g>
       <use xlink:href="#mf9420f1b42" x="51.111563" y="378.6357" style="fill: #7f7f7f; stroke: #7f7f7f; stroke-width: 1.8"/>
      </g>
     </g>
     <g id="text_30">
      <!-- 0.0 -->
      <g style="fill: #7f7f7f" transform="translate(28.208438 382.434919) scale(0.1 -0.1)">
       <use xlink:href="#DejaVuSans-30"/>
       <use xlink:href="#DejaVuSans-2e" transform="translate(63.623047 0)"/>
       <use xlink:href="#DejaVuSans-30" transform="translate(95.410156 0)"/>
      </g>
     </g>
    </g>
    <g id="ytick_10">
     <g id="line2d_29">
      <g>
       <use xlink:href="#mf9420f1b42" x="51.111563" y="340.769255" style="fill: #7f7f7f; stroke: #7f7f7f; stroke-width: 1.8"/>
      </g>
     </g>
     <g id="text_31">
      <!-- 0.5 -->
      <g style="fill: #7f7f7f" transform="translate(28.208438 344.568473) scale(0.1 -0.1)">
       <use xlink:href="#DejaVuSans-30"/>
       <use xlink:href="#DejaVuSans-2e" transform="translate(63.623047 0)"/>
       <use xlink:href="#DejaVuSans-35" transform="translate(95.410156 0)"/>
      </g>
     </g>
    </g>
    <g id="ytick_11">
     <g id="line2d_30">
      <g>
       <use xlink:href="#mf9420f1b42" x="51.111563" y="302.902809" style="fill: #7f7f7f; stroke: #7f7f7f; stroke-width: 1.8"/>
      </g>
     </g>
     <g id="text_32">
      <!-- 1.0 -->
      <g style="fill: #7f7f7f" transform="translate(28.208438 306.702028) scale(0.1 -0.1)">
       <use xlink:href="#DejaVuSans-31"/>
       <use xlink:href="#DejaVuSans-2e" transform="translate(63.623047 0)"/>
       <use xlink:href="#DejaVuSans-30" transform="translate(95.410156 0)"/>
      </g>
     </g>
    </g>
    <g id="ytick_12">
     <g id="line2d_31">
      <g>
       <use xlink:href="#mf9420f1b42" x="51.111563" y="265.036364" style="fill: #7f7f7f; stroke: #7f7f7f; stroke-width: 1.8"/>
      </g>
     </g>
     <g id="text_33">
      <!-- 1.5 -->
      <g style="fill: #7f7f7f" transform="translate(28.208438 268.835583) scale(0.1 -0.1)">
       <use xlink:href="#DejaVuSans-31"/>
       <use xlink:href="#DejaVuSans-2e" transform="translate(63.623047 0)"/>
       <use xlink:href="#DejaVuSans-35" transform="translate(95.410156 0)"/>
      </g>
     </g>
    </g>
    <g id="ytick_13">
     <g id="line2d_32">
      <g>
       <use xlink:href="#mf9420f1b42" x="51.111563" y="227.169919" style="fill: #7f7f7f; stroke: #7f7f7f; stroke-width: 1.8"/>
      </g>
     </g>
     <g id="text_34">
      <!-- 2.0 -->
      <g style="fill: #7f7f7f" transform="translate(28.208438 230.969137) scale(0.1 -0.1)">
       <use xlink:href="#DejaVuSans-32"/>
       <use xlink:href="#DejaVuSans-2e" transform="translate(63.623047 0)"/>
       <use xlink:href="#DejaVuSans-30" transform="translate(95.410156 0)"/>
      </g>
     </g>
    </g>
    <g id="text_35">
     <!-- Velocity Error [m/s] -->
     <g style="fill: #7f7f7f" transform="translate(21.920781 354.999844) rotate(-90) scale(0.11 -0.11)">
      <defs>
       <path id="DejaVuSans-56" d="M 1831 0 
L 50 4666 
L 709 4666 
L 2188 738 
L 3669 4666 
L 4325 4666 
L 2547 0 
L 1831 0 
z
" transform="scale(0.015625)"/>
       <path id="DejaVuSans-6c" d="M 603 4863 
L 1178 4863 
L 1178 0 
L 603 0 
L 603 4863 
z
" transform="scale(0.015625)"/>
       <path id="DejaVuSans-63" d="M 3122 3366 
L 3122 2828 
Q 2878 2963 2633 3030 
Q 2388 3097 2138 3097 
Q 1578 3097 1268 2742 
Q 959 2388 959 1747 
Q 959 1106 1268 751 
Q 1578 397 2138 397 
Q 2388 397 2633 464 
Q 2878 531 3122 666 
L 3122 134 
Q 2881 22 2623 -34 
Q 2366 -91 2075 -91 
Q 1284 -91 818 406 
Q 353 903 353 1747 
Q 353 2603 823 3093 
Q 1294 3584 2113 3584 
Q 2378 3584 2631 3529 
Q 2884 3475 3122 3366 
z
" transform="scale(0.015625)"/>
       <path id="DejaVuSans-79" d="M 2059 -325 
Q 1816 -950 1584 -1140 
Q 1353 -1331 966 -1331 
L 506 -1331 
L 506 -850 
L 844 -850 
Q 1081 -850 1212 -737 
Q 1344 -625 1503 -206 
L 1606 56 
L 191 3500 
L 800 3500 
L 1894 763 
L 2988 3500 
L 3597 3500 
L 2059 -325 
z
" transform="scale(0.015625)"/>
       <path id="DejaVuSans-2f" d="M 1625 4666 
L 2156 4666 
L 531 -594 
L 0 -594 
L 1625 4666 
z
" transform="scale(0.015625)"/>
      </defs>
      <use xlink:href="#DejaVuSans-56"/>
      <use xlink:href="#DejaVuSans-65" transform="translate(60.658203 0)"/>
      <use xlink:href="#DejaVuSans-6c" transform="translate(122.181641 0)"/>
      <use xlink:href="#DejaVuSans-6f" transform="translate(149.964844 0)"/>
      <use xlink:href="#DejaVuSans-63" transform="translate(211.146484 0)"/>
      <use xlink:href="#DejaVuSans-69" transform="translate(266.126953 0)"/>
      <use xlink:href="#DejaVuSans-74" transform="translate(293.910156 0)"/>
      <use xlink:href="#DejaVuSans-79" transform="translate(333.119141 0)"/>
      <use xlink:href="#DejaVuSans-20" transform="translate(392.298828 0)"/>
      <use xlink:href="#DejaVuSans-45" transform="translate(424.085938 0)"/>
      <use xlink:href="#DejaVuSans-72" transform="translate(487.269531 0)"/>
      <use xlink:href="#DejaVuSans-72" transform="translate(526.632812 0)"/>
      <use xlink:href="#DejaVuSans-6f" transform="translate(565.496094 0)"/>
      <use xlink:href="#DejaVuSans-72" transform="translate(626.677734 0)"/>
      <use xlink:href="#DejaVuSans-20" transform="translate(667.791016 0)"/>
      <use xlink:href="#DejaVuSans-5b" transform="translate(699.578125 0)"/>
      <use xlink:href="#DejaVuSans-6d" transform="translate(738.591797 0)"/>
      <use xlink:href="#DejaVuSans-2f" transform="translate(836.003906 0)"/>
      <use xlink:href="#DejaVuSans-73" transform="translate(869.695312 0)"/>
      <use xlink:href="#DejaVuSans-5d" transform="translate(921.794922 0)"/>
     </g>
    </g>
   </g>
   <g id="line2d_33">
    <path d="M 74.604787 227.169919 
L 75.309584 226.695953 
L 76.01438 237.595127 
L 76.719177 236.461612 
L 76.954109 229.805865 
L 77.189042 236.783958 
L 77.423974 232.776443 
L 77.658906 245.120537 
L 78.363703 234.500085 
L 78.598635 240.087936 
L 78.833567 227.355457 
L 79.0685 233.848777 
L 79.303432 225.683359 
L 79.538364 238.138315 
L 80.008229 235.214306 
L 80.713025 230.917717 
L 81.887687 282.84915 
L 82.592483 269.727818 
L 82.827415 270.574699 
L 83.062348 256.506676 
L 83.29728 273.975295 
L 84.002077 292.21942 
L 84.237009 283.423232 
L 84.471941 282.749052 
L 85.176738 271.276478 
L 87.291128 334.26585 
L 87.760993 309.474923 
L 88.700722 315.178973 
L 88.935654 312.968316 
L 89.405518 329.816696 
L 89.875383 317.571163 
L 90.110315 317.681859 
L 90.345247 319.96203 
L 90.58018 309.779604 
L 91.050044 324.95801 
L 91.284976 330.264231 
L 91.754841 323.199399 
L 92.224705 323.698058 
L 92.459637 322.107198 
L 94.574028 352.657858 
L 95.278824 348.425937 
L 95.513757 352.068043 
L 96.218553 364.315147 
L 96.92335 361.17548 
L 97.393215 366.822017 
L 98.332944 355.244397 
L 98.802808 353.550702 
L 99.742537 368.880192 
L 100.917198 355.876431 
L 101.152131 358.147924 
L 101.387063 356.973708 
L 101.621995 359.26898 
L 101.856927 357.98523 
L 102.09186 359.532422 
L 102.326792 357.603121 
L 102.561724 359.057406 
L 103.266521 355.67174 
L 104.676114 370.367874 
L 104.911046 369.404038 
L 105.850775 374.889234 
L 106.085708 374.023756 
L 107.025437 367.277425 
L 107.495301 369.961666 
L 108.669962 374.922666 
L 109.609691 372.080646 
L 109.139827 376.290846 
L 109.844624 373.356906 
L 110.54942 374.051589 
L 111.959014 377.069392 
L 112.663811 372.57416 
L 112.898743 376.727042 
L 113.133675 378.038689 
L 113.603539 375.901723 
L 114.308336 378.232192 
L 115.013133 369.792479 
L 117.127523 377.603918 
L 117.362455 376.948136 
L 117.597388 377.382819 
L 118.067252 372.693311 
L 118.537117 375.544147 
L 118.772049 375.283618 
L 119.006981 378.364383 
L 119.241913 373.350711 
L 119.711778 377.568352 
L 120.416575 376.61094 
L 120.651507 378.224158 
L 121.121371 375.698368 
L 121.356304 376.608723 
L 122.530965 372.217072 
L 122.765897 378.450159 
L 123.705626 377.373215 
L 124.880287 366.974485 
L 126.289881 372.82505 
L 126.524813 372.645681 
L 127.22961 376.79907 
L 127.464542 374.475214 
L 130.048797 364.793171 
L 130.283729 361.447163 
L 130.518661 366.598572 
L 130.753593 366.407686 
L 132.398119 374.091189 
L 131.223458 363.460819 
L 132.633051 372.380153 
L 132.867984 369.856219 
L 133.102916 373.45209 
L 133.337848 372.539501 
L 134.042645 370.965878 
L 134.277577 376.988472 
L 134.982374 370.265992 
L 135.452238 372.961958 
L 135.68717 372.81221 
L 135.922103 376.849056 
L 136.391967 372.374758 
L 137.566628 366.043527 
L 138.036493 368.64142 
L 139.915951 378.294125 
L 140.150883 375.066949 
L 140.620748 375.46625 
L 140.85568 377.830685 
L 141.560477 377.375384 
L 141.795409 376.858334 
L 142.030341 378.544473 
L 142.265273 377.624065 
L 142.500206 378.424828 
L 142.97007 377.193007 
L 143.205002 376.062051 
L 143.439935 378.440051 
L 143.909799 376.804139 
L 144.614596 376.015277 
L 144.849528 377.891048 
L 145.789257 373.104983 
L 146.494054 372.671979 
L 146.728986 375.681926 
L 147.19885 368.748212 
L 147.668715 371.954828 
L 147.903647 377.929853 
L 148.843376 377.575944 
L 149.313241 376.601904 
L 149.548173 377.6732 
L 149.783105 378.419214 
L 150.018037 374.35467 
L 150.722834 377.442087 
L 152.132428 377.980569 
L 152.602292 371.499598 
L 153.072157 374.95447 
L 153.776953 378.595374 
L 154.011886 376.276399 
L 154.246818 376.827978 
L 155.186547 369.465254 
L 155.421479 369.649963 
L 156.126276 371.935189 
L 155.891343 368.681015 
L 156.361208 370.260726 
L 156.59614 366.815299 
L 157.300937 369.863299 
L 157.535869 369.768874 
L 158.240666 370.160122 
L 158.71053 366.094363 
L 160.589988 374.15736 
L 160.824921 377.147901 
L 161.294785 371.333445 
L 161.529717 374.543937 
L 161.76465 374.528873 
L 162.234514 377.979248 
L 162.469446 372.975263 
L 162.704379 374.515651 
L 163.174243 375.274479 
L 163.409175 373.556852 
L 164.348904 377.244076 
L 164.583837 376.190612 
L 164.818769 375.688031 
L 165.053701 377.02138 
L 165.288633 375.947787 
L 165.523565 377.890573 
L 166.228362 366.13637 
L 166.698227 371.024962 
L 167.872888 378.364004 
L 168.342752 375.691759 
L 168.812617 375.82506 
L 169.987278 378.627936 
L 170.22221 378.303065 
L 170.692075 375.504571 
L 171.161939 376.305395 
L 171.396872 377.640731 
L 171.631804 374.696512 
L 172.336601 367.192306 
L 173.041397 368.733928 
L 173.511262 366.677592 
L 173.746194 368.335464 
L 175.155787 378.051772 
L 175.39072 376.212996 
L 176.095516 378.128994 
L 177.270178 364.757041 
L 177.50511 365.717533 
L 178.679771 371.983767 
L 178.914703 369.599265 
L 180.324297 362.689108 
L 181.73389 376.520464 
L 182.673619 368.66888 
L 183.143484 369.19161 
L 183.378416 368.97574 
L 184.78801 358.179256 
L 185.022942 361.476824 
L 185.492806 356.581387 
L 186.197603 349.739224 
L 186.667467 344.636215 
L 187.372264 344.798691 
L 187.607196 345.622145 
L 188.077061 340.397663 
L 188.546925 344.976068 
L 190.426383 360.978634 
L 191.835977 364.399642 
L 192.305841 360.838013 
L 192.775706 363.083708 
L 193.715435 368.316159 
L 194.185299 362.71056 
L 194.890096 362.78105 
L 195.125028 364.11438 
L 195.359961 360.74319 
L 195.829825 362.570386 
L 196.769554 353.828133 
L 197.239418 358.297222 
L 200.763402 378.486193 
L 201.468199 373.888164 
L 201.703131 377.266966 
L 201.938063 377.200953 
L 202.172996 378.225939 
L 202.64286 376.284829 
L 203.112725 377.315959 
L 203.347657 375.254228 
L 203.817521 378.530605 
L 204.75725 378.169591 
L 205.227115 375.336977 
L 205.696979 375.848187 
L 205.931912 377.604758 
L 206.166844 375.591382 
L 208.281234 365.366941 
L 208.516166 364.480013 
L 209.220963 357.037134 
L 209.690827 358.577667 
L 210.160692 355.656307 
L 210.865489 355.8728 
L 211.100421 357.420558 
L 211.335353 354.097397 
L 211.570285 351.288434 
L 212.275082 354.534949 
L 212.744947 357.127261 
L 213.214811 355.984991 
L 213.449743 355.117858 
L 213.684676 356.521523 
L 213.919608 356.502525 
L 214.624405 355.433842 
L 215.799066 347.36388 
L 216.033998 348.127621 
L 217.443591 366.236101 
L 217.913456 362.338198 
L 218.148388 359.998697 
L 218.853185 361.01801 
L 220.027846 369.592927 
L 220.262778 366.913006 
L 220.732643 369.156797 
L 221.43744 368.33687 
L 222.142236 361.229253 
L 222.377169 364.58425 
L 222.847033 366.912034 
L 223.081965 363.516483 
L 223.316898 363.773551 
L 224.961423 378.26017 
L 225.196356 376.052898 
L 227.545678 360.509761 
L 227.78061 363.856699 
L 228.955271 368.00198 
L 229.190204 369.599649 
L 229.425136 367.726878 
L 229.660068 368.066534 
L 229.895 367.377811 
L 230.364865 373.033617 
L 231.069662 372.385384 
L 232.244323 363.830979 
L 232.714187 365.993446 
L 233.888849 378.193084 
L 234.358713 375.629929 
L 235.06351 369.432536 
L 235.533374 372.084085 
L 236.003239 373.664238 
L 236.238171 371.818694 
L 238.117629 365.620549 
L 239.527222 376.729094 
L 240.701884 372.366128 
L 241.876545 376.299672 
L 242.346409 376.162336 
L 242.581342 378.517153 
L 243.051206 370.87569 
L 243.756003 373.596329 
L 244.225867 367.98751 
L 244.695732 363.562588 
L 245.165596 366.24336 
L 245.400529 368.76325 
L 245.870393 367.756116 
L 246.57519 363.271648 
L 247.045054 364.174711 
L 247.514919 363.629162 
L 248.68958 369.558754 
L 249.394377 370.65778 
L 249.629309 368.104123 
L 250.099173 368.715008 
L 250.569038 372.441124 
L 251.038902 369.481487 
L 251.508767 371.955921 
L 251.743699 369.088664 
L 251.978631 367.045551 
L 252.213564 369.411042 
L 253.153293 378.628672 
L 253.388225 378.125913 
L 253.858089 375.370658 
L 254.562886 376.950703 
L 254.797818 377.371471 
L 255.032751 374.38373 
L 255.502615 378.295883 
L 255.737547 377.347251 
L 255.97248 377.950195 
L 257.147141 368.994876 
L 257.382073 373.616339 
L 257.851937 378.568236 
L 258.321802 377.205563 
L 258.556734 373.529955 
L 259.261531 377.216246 
L 259.496463 378.372987 
L 259.966328 377.334623 
L 260.20126 375.41449 
L 260.436192 377.618743 
L 260.906057 377.155215 
L 261.375921 378.543108 
L 262.31565 372.029219 
L 262.785515 372.237833 
L 263.725244 369.455842 
L 263.490311 372.776544 
L 263.960176 370.251761 
L 264.664973 378.543418 
L 264.899905 375.804628 
L 265.604702 369.92987 
L 265.839634 370.510503 
L 267.014295 378.308041 
L 268.188956 370.42507 
L 268.423888 373.084907 
L 268.893753 367.76859 
L 269.363617 366.86721 
L 270.068414 363.171285 
L 270.538279 365.003633 
L 271.008143 366.835131 
L 271.478008 365.818122 
L 271.71294 365.58605 
L 271.947872 366.715078 
L 273.122533 373.341254 
L 273.82733 371.02159 
L 274.062262 369.397225 
L 274.532127 371.045906 
L 275.471856 378.554189 
L 275.94172 377.251266 
L 277.351314 367.228066 
L 278.056111 372.561521 
L 278.525975 371.734083 
L 279.700636 364.049496 
L 281.11023 372.128529 
L 281.815026 361.918391 
L 282.519823 364.92508 
L 283.459552 371.95811 
L 283.694484 371.43004 
L 285.104078 378.403662 
L 285.808875 372.976985 
L 286.278739 376.117943 
L 286.513671 378.50308 
L 286.748604 373.841333 
L 287.218468 370.523362 
L 287.688333 371.759572 
L 287.923265 374.192674 
L 288.393129 369.808417 
L 288.628062 370.14942 
L 290.742452 355.704131 
L 290.977384 356.173024 
L 291.212316 354.592045 
L 292.386977 352.03887 
L 292.856842 355.613957 
L 293.326706 352.004065 
L 293.561639 351.782215 
L 294.971232 346.541002 
L 295.206164 346.414208 
L 295.441097 348.003525 
L 295.910961 345.908927 
L 296.145893 346.095972 
L 296.615758 346.392629 
L 296.85069 348.192052 
L 297.320555 346.864888 
L 297.555487 344.285538 
L 298.025351 345.476343 
L 298.730148 356.775253 
L 299.434945 354.360125 
L 301.784267 372.188812 
L 302.019199 371.809749 
L 302.958928 366.813508 
L 303.193861 368.855312 
L 303.428793 368.740398 
L 303.898657 360.852002 
L 304.603454 365.347251 
L 306.24798 378.52219 
L 306.482912 374.195833 
L 306.952777 375.059343 
L 308.36237 367.036823 
L 309.302099 377.155783 
L 309.537031 376.836738 
L 309.771963 372.629291 
L 310.241828 378.071886 
L 310.47676 376.978063 
L 310.711692 378.124656 
L 310.946625 375.36287 
L 311.416489 372.565347 
L 311.651421 378.483166 
L 312.59115 378.260796 
L 313.765812 369.112007 
L 314.940473 377.04154 
L 315.410337 376.365889 
L 315.64527 378.425317 
L 315.880202 377.657129 
L 317.289795 368.07105 
L 317.75966 368.8637 
L 317.994592 366.77809 
L 319.404186 375.030356 
L 319.639118 373.939888 
L 319.87405 374.893753 
L 320.343914 367.448684 
L 321.048711 370.800005 
L 321.283643 373.313857 
L 321.753508 369.73346 
L 321.98844 368.938172 
L 322.458305 368.693133 
L 323.163101 372.983336 
L 324.807627 367.212935 
L 325.042559 371.444592 
L 325.747356 366.377 
L 327.626814 373.229435 
L 327.861746 377.773537 
L 328.566543 375.998133 
L 328.801475 374.292493 
L 329.27134 377.342142 
L 329.506272 375.234205 
L 329.741204 374.981304 
L 329.976137 375.232647 
L 331.150798 361.924874 
L 331.620662 362.623012 
L 333.030256 369.872347 
L 333.735052 370.397838 
L 334.204917 365.068877 
L 334.909714 362.325361 
L 334.674781 365.663277 
L 335.144646 365.549304 
L 335.379578 365.472721 
L 336.789172 373.208994 
L 337.024104 372.234688 
L 337.259036 370.248037 
L 337.728901 371.471143 
L 337.963833 373.884257 
L 338.198765 371.776733 
L 338.433697 367.722895 
L 339.138494 370.243948 
L 339.373426 370.634729 
L 340.78302 378.461813 
L 341.722749 371.849349 
L 342.427545 374.688804 
L 342.662478 375.959348 
L 342.89741 374.735045 
L 344.541936 360.18363 
L 344.776868 365.425313 
L 345.481665 361.944997 
L 347.361123 352.872599 
L 347.596055 355.669894 
L 348.065919 356.795949 
L 348.770716 354.020494 
L 349.005648 356.00064 
L 349.710445 357.487932 
L 350.650174 363.86371 
L 351.120038 362.960646 
L 353.939225 375.293156 
L 354.878954 370.570261 
L 356.053616 377.004861 
L 356.288548 375.878668 
L 356.52348 375.073529 
L 356.758412 375.895306 
L 356.993345 377.572608 
L 357.228277 373.869045 
L 357.463209 374.422524 
L 358.402938 370.113388 
L 358.63787 371.414399 
L 359.812532 377.44416 
L 360.047464 371.987282 
L 360.752261 376.304176 
L 360.987193 377.479048 
L 361.457057 376.280576 
L 362.161854 373.031865 
L 362.396786 378.403613 
L 363.101583 376.164163 
L 364.041312 376.514883 
L 364.511176 378.620784 
L 364.981041 377.101018 
L 365.685838 373.151458 
L 366.155702 375.496457 
L 367.095431 377.586332 
L 367.330363 375.11222 
L 368.03516 378.102321 
L 368.270092 378.343473 
L 371.794076 352.95893 
L 372.26394 354.316909 
L 372.498873 351.862028 
L 372.733805 352.804875 
L 372.968737 351.222633 
L 374.143398 361.810442 
L 374.848195 356.480614 
L 375.083127 356.675862 
L 375.31806 360.357229 
L 376.257789 359.432733 
L 376.727653 357.340912 
L 376.962585 360.558476 
L 377.197518 359.994621 
L 378.372179 369.819261 
L 378.607111 366.069267 
L 379.076976 370.623023 
L 379.311908 367.327833 
L 380.956434 375.705672 
L 381.426298 373.850456 
L 381.66123 376.893136 
L 381.896162 376.164473 
L 382.600959 377.671222 
L 382.835891 376.910168 
L 383.070824 377.024858 
L 383.305756 378.626628 
L 383.540688 375.156439 
L 384.245485 370.17673 
L 384.480417 371.966164 
L 384.715349 377.544731 
L 385.420146 375.021075 
L 385.655078 374.505257 
L 386.359875 378.192344 
L 386.124943 374.350112 
L 386.594807 378.092382 
L 386.82974 374.44964 
L 387.534536 377.865766 
L 390.823588 361.735351 
L 391.293452 360.358815 
L 392.703046 369.919891 
L 393.17291 363.186613 
L 393.877707 365.123371 
L 396.461962 377.810109 
L 397.401691 374.87216 
L 397.636623 375.652368 
L 397.871555 377.410381 
L 398.34142 374.333328 
L 399.281149 378.442844 
L 399.516081 376.713133 
L 401.160607 364.901553 
L 401.395539 368.934153 
L 402.100336 371.095313 
L 402.335268 370.93606 
L 402.805132 367.518741 
L 403.040064 371.007913 
L 404.919522 378.357424 
L 405.154455 377.727711 
L 405.389387 378.198931 
L 406.564048 370.415681 
L 406.79898 370.686847 
L 407.503777 368.41416 
L 407.973642 373.204037 
L 408.208574 373.643334 
L 408.443506 371.89356 
L 408.913371 373.485361 
L 409.618167 376.694696 
L 409.8531 372.357891 
L 410.088032 376.900316 
L 410.557896 372.747252 
L 411.262693 378.173313 
L 411.497625 378.077174 
L 411.732558 372.796169 
L 412.437354 376.919995 
L 413.142151 375.006834 
L 414.08188 378.523887 
L 414.316812 377.678107 
L 414.551744 377.243822 
L 414.786677 374.518486 
L 415.491473 376.456071 
L 415.726406 376.407051 
L 415.961338 378.081991 
L 416.19627 375.346139 
L 416.431202 375.812523 
L 416.666135 371.321557 
L 417.370931 372.520283 
L 418.075728 372.624475 
L 419.250389 378.60267 
L 419.955186 369.651287 
L 420.659983 372.652853 
L 420.894915 372.954902 
L 421.599712 377.819144 
L 421.834644 374.515571 
L 422.539441 368.73554 
L 423.009305 372.323271 
L 423.244237 375.543649 
L 423.47917 371.036741 
L 423.714102 367.344192 
L 424.183966 371.668266 
L 424.888763 378.317611 
L 425.123695 377.270416 
L 426.533289 370.775133 
L 427.70795 377.188175 
L 427.003153 370.633822 
L 427.942882 374.968634 
L 429.117544 366.276389 
L 430.292205 375.59556 
L 430.762069 370.564406 
L 431.231934 371.914242 
L 431.701798 378.293178 
L 432.171663 377.749436 
L 433.816188 366.789002 
L 434.286053 364.852714 
L 434.520985 367.402241 
L 434.755917 366.947689 
L 435.460714 371.033244 
L 435.225782 366.172136 
L 435.930579 367.453735 
L 436.870308 362.381671 
L 437.575104 369.46837 
L 438.044969 365.53062 
L 438.514833 360.644037 
L 439.21963 364.3766 
L 439.924427 370.815019 
L 440.629224 370.099075 
L 440.864156 368.741445 
L 441.099088 370.588437 
L 441.33402 373.641615 
L 442.038817 371.557968 
L 442.508682 372.167524 
L 444.623072 360.098663 
L 444.858004 363.793661 
L 445.562801 361.447919 
L 446.032665 360.301974 
L 446.267597 357.879034 
L 446.50253 362.309664 
L 446.972394 360.147122 
L 448.147055 357.158987 
L 447.442259 361.392427 
L 448.381988 357.681353 
L 448.61692 360.329279 
L 449.086784 355.724041 
L 449.321717 352.95371 
L 449.791581 355.727906 
L 450.026513 363.580308 
L 450.73131 356.848467 
L 452.140904 361.74187 
L 453.550497 378.53253 
L 454.255294 377.954746 
L 454.96009 372.47546 
L 455.195023 378.584302 
L 456.839548 367.741755 
L 457.309413 364.554031 
L 457.779277 361.756528 
L 458.01421 367.671748 
L 458.249142 367.529653 
L 459.423803 365.348713 
L 460.833397 373.36625 
L 461.303261 371.877755 
L 461.538193 373.751195 
L 462.477922 378.427641 
L 462.712855 378.224864 
L 463.182719 374.007261 
L 463.652584 377.237984 
L 464.35738 378.189742 
L 465.766974 372.342087 
L 466.706703 377.677125 
L 466.941635 376.585649 
L 467.176567 374.796745 
L 467.411499 378.05374 
L 467.881364 376.707424 
L 470.935483 364.665691 
L 471.405348 365.078369 
L 471.875212 369.226108 
L 472.580009 368.598292 
L 473.049873 365.259801 
L 473.284806 365.468816 
L 473.519738 364.006389 
L 473.989602 366.898556 
L 474.224535 368.536927 
L 474.459467 367.290365 
L 476.808789 345.145093 
L 477.043721 347.248936 
L 477.278654 350.94647 
L 477.748518 345.942433 
L 478.453315 343.495688 
L 478.923179 344.179104 
L 481.977299 374.546352 
L 482.682095 367.486458 
L 483.15196 367.861426 
L 483.386892 368.282032 
L 483.621824 371.770648 
L 484.326621 369.648806 
L 484.561553 370.451849 
L 485.501282 365.998937 
L 485.736214 367.62048 
L 485.971147 367.798331 
L 486.206079 369.327191 
L 486.441011 367.067549 
L 486.910876 369.097827 
L 488.790334 360.889314 
L 489.025266 362.367435 
L 489.964995 366.469192 
L 490.199927 364.537162 
L 490.904724 364.146338 
L 491.609521 368.298498 
L 492.079385 377.696013 
L 492.784182 371.856636 
L 493.019114 372.01871 
L 493.723911 377.277888 
L 493.958843 375.058386 
L 494.428708 372.489767 
L 494.898572 374.104896 
L 495.838301 377.415995 
L 496.073233 375.423621 
L 496.308165 371.410163 
L 496.77803 376.330695 
L 497.247894 372.40734 
L 497.952691 378.300676 
L 498.422556 375.191785 
L 498.657488 373.676127 
L 499.127352 376.141456 
L 499.362285 377.266325 
L 499.832149 376.132519 
L 500.771878 370.800389 
L 501.241743 371.404857 
L 501.711607 375.996018 
L 502.181472 375.017183 
L 503.825997 361.39946 
L 504.06093 360.378364 
L 504.295862 361.846203 
L 505.235591 369.139267 
L 505.940387 367.043853 
L 506.645184 370.910541 
L 507.115049 368.650945 
L 508.054778 369.054603 
L 508.28971 366.886074 
L 509.229439 372.788872 
L 509.699303 371.372849 
L 509.934236 371.517028 
L 510.169168 365.681031 
L 510.639032 371.440532 
L 511.108897 375.864674 
L 511.343829 372.881423 
L 511.578761 369.071274 
L 512.283558 372.362134 
L 512.51849 372.349829 
L 512.988355 376.291647 
L 513.458219 373.051273 
L 513.693152 371.438444 
L 514.163016 373.330295 
L 514.397948 373.901694 
L 514.632881 372.61899 
L 515.57261 367.305813 
L 516.277406 367.810687 
L 517.687 374.346767 
L 517.921932 375.187629 
L 518.391796 366.632397 
L 519.096593 368.682788 
L 519.566458 362.844572 
L 520.506187 360.271432 
L 520.741119 361.068556 
L 520.976051 363.358389 
L 521.445916 359.175823 
L 521.91578 358.317878 
L 523.795238 365.114471 
L 524.265103 371.223441 
L 524.734967 366.840033 
L 525.204832 361.270692 
L 525.674696 363.485545 
L 526.144561 364.055972 
L 527.789086 376.474751 
L 528.963747 365.071228 
L 529.433612 369.382812 
L 530.373341 378.345934 
L 530.843205 376.672414 
L 531.31307 376.549218 
L 532.487731 366.942968 
L 533.192528 369.509627 
L 533.42746 371.444012 
L 533.897325 367.036782 
L 534.602121 364.265073 
L 535.071986 359.288456 
L 535.54185 362.824528 
L 537.65624 374.291124 
L 538.126105 369.896485 
L 538.361037 374.820137 
L 538.830902 372.017693 
L 539.300766 368.552173 
L 539.535698 372.706145 
L 539.770631 371.384997 
L 540.240495 371.25365 
L 541.885021 378.30385 
L 542.354885 378.615102 
L 544.234343 369.92739 
L 544.469276 371.989567 
L 544.469276 371.989567 
" clip-path="url(#pb199491200)" style="fill: none; stroke: #e41a1c; stroke-width: 2; stroke-linecap: square"/>
   </g>
   <g id="patch_6">
    <path d="M 51.111563 386.275937 
L 51.111563 218.036094 
" style="fill: none; stroke: #7f7f7f; stroke-width: 1.8; stroke-linejoin: miter; stroke-linecap: square"/>
   </g>
   <g id="patch_7">
    <path d="M 51.111563 386.275937 
L 567.9625 386.275937 
" style="fill: none; stroke: #7f7f7f; stroke-width: 1.8; stroke-linejoin: miter; stroke-linecap: square"/>
   </g>
  </g>
 </g>
 <defs>
  <clipPath id="p10235b5e46">
   <rect x="51.111563" y="22.318125" width="516.850937" height="168.239844"/>
  </clipPath>
  <clipPath id="pb199491200">
   <rect x="51.111563" y="218.036094" width="516.850937" height="168.239844"/>
  </clipPath>
 </defs>
</svg>
