<?xml version="1.0" encoding="utf-8" standalone="no"?>
<!DOCTYPE svg PUBLIC "-//W3C//DTD SVG 1.1//EN"
  "http://www.w3.org/Graphics/SVG/1.1/DTD/svg11.dtd">
<svg xmlns:xlink="http://www.w3.org/1999/xlink" width="568.8pt" height="280.8pt" viewBox="0 0 568.8 280.8" xmlns="http://www.w3.org/2000/svg" version="1.1">
 <metadata>
  <rdf:RDF xmlns:dc="http://purl.org/dc/elements/1.1/" xmlns:cc="http://creativecommons.org/ns#" xmlns:rdf="http://www.w3.org/1999/02/22-rdf-syntax-ns#">
   <cc:Work>
    <dc:type rdf:resource="http://purl.org/dc/dcmitype/StillImage"/>
    <dc:date>2026-06-22T19:18:40.513507</dc:date>
    <dc:format>image/svg+xml</dc:format>
    <dc:creator>
     <cc:Agent>
      <dc:title>Matplotlib v3.11.0, https://matplotlib.org/</dc:title>
     </cc:Agent>
    </dc:creator>
   </cc:Work>
  </rdf:RDF>
 </metadata>
 <defs>
  <style type="text/css">*{stroke-linejoin: round; stroke-linecap: butt}</style>
 </defs>
 <g id="figure_1">
  <g id="patch_1">
   <path d="M 0 280.8 
L 568.8 280.8 
L 568.8 0 
L 0 0 
L 0 280.8 
z
" style="fill: none"/>
  </g>
  <g id="axes_1">
   <g id="patch_2">
    <path d="M 28.942188 241.599141 
L 561.6 241.599141 
L 561.6 7.2 
L 28.942188 7.2 
L 28.942188 241.599141 
z
" style="fill: none"/>
   </g>
   <g id="matplotlib.axis_1">
    <g id="xtick_1">
     <g id="line2d_1">
      <defs>
       <path id="m7a65b97564" d="M 0 0 
L 0 3.5 
" style="stroke: #7f7f7f; stroke-width: 1.8"/>
      </defs>
      <g>
       <use xlink:href="#m7a65b97564" x="53.153906" y="241.599141" style="fill: #7f7f7f; stroke: #7f7f7f; stroke-width: 1.8"/>
      </g>
     </g>
     <g id="text_1">
      <!-- 0.00000 -->
      <g style="fill: #7f7f7f" transform="translate(32.477344 256.196797) scale(0.1 -0.1)">
       <defs>
        <path id="DejaVuSans-13" d="M 2034 4250 
Q 1547 4250 1301 3770 
Q 1056 3291 1056 2328 
Q 1056 1369 1301 889 
Q 1547 409 2034 409 
Q 2525 409 2770 889 
Q 3016 1369 3016 2328 
Q 3016 3291 2770 3770 
Q 2525 4250 2034 4250 
z
M 2034 4750 
Q 2819 4750 3233 4129 
Q 3647 3509 3647 2328 
Q 3647 1150 3233 529 
Q 2819 -91 2034 -91 
Q 1250 -91 836 529 
Q 422 1150 422 2328 
Q 422 3509 836 4129 
Q 1250 4750 2034 4750 
z
" transform="scale(0.015625)"/>
        <path id="DejaVuSans-11" d="M 684 794 
L 1344 794 
L 1344 0 
L 684 0 
L 684 794 
z
" transform="scale(0.015625)"/>
       </defs>
       <use xlink:href="#DejaVuSans-13"/>
       <use xlink:href="#DejaVuSans-11" transform="translate(63.625 0)"/>
       <use xlink:href="#DejaVuSans-13" transform="translate(95.40625 0)"/>
       <use xlink:href="#DejaVuSans-13" transform="translate(159.03125 0)"/>
       <use xlink:href="#DejaVuSans-13" transform="translate(222.65625 0)"/>
       <use xlink:href="#DejaVuSans-13" transform="translate(286.28125 0)"/>
       <use xlink:href="#DejaVuSans-13" transform="translate(349.90625 0)"/>
      </g>
     </g>
    </g>
    <g id="xtick_2">
     <g id="line2d_2">
      <g>
       <use xlink:href="#m7a65b97564" x="149.981416" y="241.599141" style="fill: #7f7f7f; stroke: #7f7f7f; stroke-width: 1.8"/>
      </g>
     </g>
     <g id="text_2">
      <!-- 0.00002 -->
      <g style="fill: #7f7f7f" transform="translate(129.304853 256.196797) scale(0.1 -0.1)">
       <defs>
        <path id="DejaVuSans-15" d="M 1228 531 
L 3431 531 
L 3431 0 
L 469 0 
L 469 531 
Q 828 903 1448 1529 
Q 2069 2156 2228 2338 
Q 2531 2678 2651 2914 
Q 2772 3150 2772 3378 
Q 2772 3750 2511 3984 
Q 2250 4219 1831 4219 
Q 1534 4219 1204 4116 
Q 875 4013 500 3803 
L 500 4441 
Q 881 4594 1212 4672 
Q 1544 4750 1819 4750 
Q 2544 4750 2975 4387 
Q 3406 4025 3406 3419 
Q 3406 3131 3298 2873 
Q 3191 2616 2906 2266 
Q 2828 2175 2409 1742 
Q 1991 1309 1228 531 
z
" transform="scale(0.015625)"/>
       </defs>
       <use xlink:href="#DejaVuSans-13"/>
       <use xlink:href="#DejaVuSans-11" transform="translate(63.625 0)"/>
       <use xlink:href="#DejaVuSans-13" transform="translate(95.40625 0)"/>
       <use xlink:href="#DejaVuSans-13" transform="translate(159.03125 0)"/>
       <use xlink:href="#DejaVuSans-13" transform="translate(222.65625 0)"/>
       <use xlink:href="#DejaVuSans-13" transform="translate(286.28125 0)"/>
       <use xlink:href="#DejaVuSans-15" transform="translate(349.90625 0)"/>
      </g>
     </g>
    </g>
    <g id="xtick_3">
     <g id="line2d_3">
      <g>
       <use xlink:href="#m7a65b97564" x="246.808925" y="241.599141" style="fill: #7f7f7f; stroke: #7f7f7f; stroke-width: 1.8"/>
      </g>
     </g>
     <g id="text_3">
      <!-- 0.00004 -->
      <g style="fill: #7f7f7f" transform="translate(226.132363 256.196797) scale(0.1 -0.1)">
       <defs>
        <path id="DejaVuSans-17" d="M 2419 4116 
L 825 1625 
L 2419 1625 
L 2419 4116 
z
M 2253 4666 
L 3047 4666 
L 3047 1625 
L 3713 1625 
L 3713 1100 
L 3047 1100 
L 3047 0 
L 2419 0 
L 2419 1100 
L 313 1100 
L 313 1709 
L 2253 4666 
z
" transform="scale(0.015625)"/>
       </defs>
       <use xlink:href="#DejaVuSans-13"/>
       <use xlink:href="#DejaVuSans-11" transform="translate(63.625 0)"/>
       <use xlink:href="#DejaVuSans-13" transform="translate(95.40625 0)"/>
       <use xlink:href="#DejaVuSans-13" transform="translate(159.03125 0)"/>
       <use xlink:href="#DejaVuSans-13" transform="translate(222.65625 0)"/>
       <use xlink:href="#DejaVuSans-13" transform="translate(286.28125 0)"/>
       <use xlink:href="#DejaVuSans-17" transform="translate(349.90625 0)"/>
      </g>
     </g>
    </g>
    <g id="xtick_4">
     <g id="line2d_4">
      <g>
       <use xlink:href="#m7a65b97564" x="343.636435" y="241.599141" style="fill: #7f7f7f; stroke: #7f7f7f; stroke-width: 1.8"/>
      </g>
     </g>
     <g id="text_4">
      <!-- 0.00006 -->
      <g style="fill: #7f7f7f" transform="translate(322.959872 256.196797) scale(0.1 -0.1)">
       <defs>
        <path id="DejaVuSans-19" d="M 2113 2584 
Q 1688 2584 1439 2293 
Q 1191 2003 1191 1497 
Q 1191 994 1439 701 
Q 1688 409 2113 409 
Q 2538 409 2786 701 
Q 3034 994 3034 1497 
Q 3034 2003 2786 2293 
Q 2538 2584 2113 2584 
z
M 3366 4563 
L 3366 3988 
Q 3128 4100 2886 4159 
Q 2644 4219 2406 4219 
Q 1781 4219 1451 3797 
Q 1122 3375 1075 2522 
Q 1259 2794 1537 2939 
Q 1816 3084 2150 3084 
Q 2853 3084 3261 2657 
Q 3669 2231 3669 1497 
Q 3669 778 3244 343 
Q 2819 -91 2113 -91 
Q 1303 -91 875 529 
Q 447 1150 447 2328 
Q 447 3434 972 4092 
Q 1497 4750 2381 4750 
Q 2619 4750 2861 4703 
Q 3103 4656 3366 4563 
z
" transform="scale(0.015625)"/>
       </defs>
       <use xlink:href="#DejaVuSans-13"/>
       <use xlink:href="#DejaVuSans-11" transform="translate(63.625 0)"/>
       <use xlink:href="#DejaVuSans-13" transform="translate(95.40625 0)"/>
       <use xlink:href="#DejaVuSans-13" transform="translate(159.03125 0)"/>
       <use xlink:href="#DejaVuSans-13" transform="translate(222.65625 0)"/>
       <use xlink:href="#DejaVuSans-13" transform="translate(286.28125 0)"/>
       <use xlink:href="#DejaVuSans-19" transform="translate(349.90625 0)"/>
      </g>
     </g>
    </g>
    <g id="xtick_5">
     <g id="line2d_5">
      <g>
       <use xlink:href="#m7a65b97564" x="440.463944" y="241.599141" style="fill: #7f7f7f; stroke: #7f7f7f; stroke-width: 1.8"/>
      </g>
     </g>
     <g id="text_5">
      <!-- 0.00008 -->
      <g style="fill: #7f7f7f" transform="translate(419.787382 256.196797) scale(0.1 -0.1)">
       <defs>
        <path id="DejaVuSans-1b" d="M 2034 2216 
Q 1584 2216 1326 1975 
Q 1069 1734 1069 1313 
Q 1069 891 1326 650 
Q 1584 409 2034 409 
Q 2484 409 2743 651 
Q 3003 894 3003 1313 
Q 3003 1734 2745 1975 
Q 2488 2216 2034 2216 
z
M 1403 2484 
Q 997 2584 770 2862 
Q 544 3141 544 3541 
Q 544 4100 942 4425 
Q 1341 4750 2034 4750 
Q 2731 4750 3128 4425 
Q 3525 4100 3525 3541 
Q 3525 3141 3298 2862 
Q 3072 2584 2669 2484 
Q 3125 2378 3379 2068 
Q 3634 1759 3634 1313 
Q 3634 634 3220 271 
Q 2806 -91 2034 -91 
Q 1263 -91 848 271 
Q 434 634 434 1313 
Q 434 1759 690 2068 
Q 947 2378 1403 2484 
z
M 1172 3481 
Q 1172 3119 1398 2916 
Q 1625 2713 2034 2713 
Q 2441 2713 2670 2916 
Q 2900 3119 2900 3481 
Q 2900 3844 2670 4047 
Q 2441 4250 2034 4250 
Q 1625 4250 1398 4047 
Q 1172 3844 1172 3481 
z
" transform="scale(0.015625)"/>
       </defs>
       <use xlink:href="#DejaVuSans-13"/>
       <use xlink:href="#DejaVuSans-11" transform="translate(63.625 0)"/>
       <use xlink:href="#DejaVuSans-13" transform="translate(95.40625 0)"/>
       <use xlink:href="#DejaVuSans-13" transform="translate(159.03125 0)"/>
       <use xlink:href="#DejaVuSans-13" transform="translate(222.65625 0)"/>
       <use xlink:href="#DejaVuSans-13" transform="translate(286.28125 0)"/>
       <use xlink:href="#DejaVuSans-1b" transform="translate(349.90625 0)"/>
      </g>
     </g>
    </g>
    <g id="xtick_6">
     <g id="line2d_6">
      <g>
       <use xlink:href="#m7a65b97564" x="537.291454" y="241.599141" style="fill: #7f7f7f; stroke: #7f7f7f; stroke-width: 1.8"/>
      </g>
     </g>
     <g id="text_6">
      <!-- 0.00010 -->
      <g style="fill: #7f7f7f" transform="translate(516.614891 256.196797) scale(0.1 -0.1)">
       <defs>
        <path id="DejaVuSans-14" d="M 794 531 
L 1825 531 
L 1825 4091 
L 703 3866 
L 703 4441 
L 1819 4666 
L 2450 4666 
L 2450 531 
L 3481 531 
L 3481 0 
L 794 0 
L 794 531 
z
" transform="scale(0.015625)"/>
       </defs>
       <use xlink:href="#DejaVuSans-13"/>
       <use xlink:href="#DejaVuSans-11" transform="translate(63.625 0)"/>
       <use xlink:href="#DejaVuSans-13" transform="translate(95.40625 0)"/>
       <use xlink:href="#DejaVuSans-13" transform="translate(159.03125 0)"/>
       <use xlink:href="#DejaVuSans-13" transform="translate(222.65625 0)"/>
       <use xlink:href="#DejaVuSans-14" transform="translate(286.28125 0)"/>
       <use xlink:href="#DejaVuSans-13" transform="translate(349.90625 0)"/>
      </g>
     </g>
    </g>
    <g id="text_7">
     <!-- time [s] -->
     <g style="fill: #7f7f7f" transform="translate(273.940547 270.957422) scale(0.11 -0.11)">
      <defs>
       <path id="DejaVuSans-57" d="M 1172 4494 
L 1172 3500 
L 2356 3500 
L 2356 3053 
L 1172 3053 
L 1172 1153 
Q 1172 725 1289 603 
Q 1406 481 1766 481 
L 2356 481 
L 2356 0 
L 1766 0 
Q 1100 0 847 248 
Q 594 497 594 1153 
L 594 3053 
L 172 3053 
L 172 3500 
L 594 3500 
L 594 4494 
L 1172 4494 
z
" transform="scale(0.015625)"/>
       <path id="DejaVuSans-4c" d="M 603 3500 
L 1178 3500 
L 1178 0 
L 603 0 
L 603 3500 
z
M 603 4863 
L 1178 4863 
L 1178 4134 
L 603 4134 
L 603 4863 
z
" transform="scale(0.015625)"/>
       <path id="DejaVuSans-50" d="M 3328 2828 
Q 3544 3216 3844 3400 
Q 4144 3584 4550 3584 
Q 5097 3584 5394 3201 
Q 5691 2819 5691 2113 
L 5691 0 
L 5113 0 
L 5113 2094 
Q 5113 2597 4934 2840 
Q 4756 3084 4391 3084 
Q 3944 3084 3684 2787 
Q 3425 2491 3425 1978 
L 3425 0 
L 2847 0 
L 2847 2094 
Q 2847 2600 2669 2842 
Q 2491 3084 2119 3084 
Q 1678 3084 1418 2786 
Q 1159 2488 1159 1978 
L 1159 0 
L 581 0 
L 581 3500 
L 1159 3500 
L 1159 2956 
Q 1356 3278 1631 3431 
Q 1906 3584 2284 3584 
Q 2666 3584 2933 3390 
Q 3200 3197 3328 2828 
z
" transform="scale(0.015625)"/>
       <path id="DejaVuSans-48" d="M 3597 1894 
L 3597 1613 
L 953 1613 
Q 991 1019 1311 708 
Q 1631 397 2203 397 
Q 2534 397 2845 478 
Q 3156 559 3463 722 
L 3463 178 
Q 3153 47 2828 -22 
Q 2503 -91 2169 -91 
Q 1331 -91 842 396 
Q 353 884 353 1716 
Q 353 2575 817 3079 
Q 1281 3584 2069 3584 
Q 2775 3584 3186 3129 
Q 3597 2675 3597 1894 
z
M 3022 2063 
Q 3016 2534 2758 2815 
Q 2500 3097 2075 3097 
Q 1594 3097 1305 2825 
Q 1016 2553 972 2059 
L 3022 2063 
z
" transform="scale(0.015625)"/>
       <path id="DejaVuSans-3" transform="scale(0.015625)"/>
       <path id="DejaVuSans-3e" d="M 550 4863 
L 1875 4863 
L 1875 4416 
L 1125 4416 
L 1125 -397 
L 1875 -397 
L 1875 -844 
L 550 -844 
L 550 4863 
z
" transform="scale(0.015625)"/>
       <path id="DejaVuSans-56" d="M 2834 3397 
L 2834 2853 
Q 2591 2978 2328 3040 
Q 2066 3103 1784 3103 
Q 1356 3103 1142 2972 
Q 928 2841 928 2578 
Q 928 2378 1081 2264 
Q 1234 2150 1697 2047 
L 1894 2003 
Q 2506 1872 2764 1633 
Q 3022 1394 3022 966 
Q 3022 478 2636 193 
Q 2250 -91 1575 -91 
Q 1294 -91 989 -36 
Q 684 19 347 128 
L 347 722 
Q 666 556 975 473 
Q 1284 391 1588 391 
Q 1994 391 2212 530 
Q 2431 669 2431 922 
Q 2431 1156 2273 1281 
Q 2116 1406 1581 1522 
L 1381 1569 
Q 847 1681 609 1914 
Q 372 2147 372 2553 
Q 372 3047 722 3315 
Q 1072 3584 1716 3584 
Q 2034 3584 2315 3537 
Q 2597 3491 2834 3397 
z
" transform="scale(0.015625)"/>
       <path id="DejaVuSans-40" d="M 1947 4863 
L 1947 -844 
L 622 -844 
L 622 -397 
L 1369 -397 
L 1369 4416 
L 622 4416 
L 622 4863 
L 1947 4863 
z
" transform="scale(0.015625)"/>
      </defs>
      <use xlink:href="#DejaVuSans-57"/>
      <use xlink:href="#DejaVuSans-4c" transform="translate(39.203125 0)"/>
      <use xlink:href="#DejaVuSans-50" transform="translate(66.984375 0)"/>
      <use xlink:href="#DejaVuSans-48" transform="translate(164.390625 0)"/>
      <use xlink:href="#DejaVuSans-3" transform="translate(225.921875 0)"/>
      <use xlink:href="#DejaVuSans-3e" transform="translate(257.703125 0)"/>
      <use xlink:href="#DejaVuSans-56" transform="translate(296.71875 0)"/>
      <use xlink:href="#DejaVuSans-40" transform="translate(348.8125 0)"/>
     </g>
    </g>
   </g>
   <g id="matplotlib.axis_2">
    <g id="ytick_1">
     <g id="line2d_7">
      <defs>
       <path id="mc7d18b8b1d" d="M 0 0 
L -3.5 0 
" style="stroke: #7f7f7f; stroke-width: 1.8"/>
      </defs>
      <g>
       <use xlink:href="#mc7d18b8b1d" x="28.942188" y="232.518931" style="fill: #7f7f7f; stroke: #7f7f7f; stroke-width: 1.8"/>
      </g>
     </g>
     <g id="text_8">
      <!-- −8 -->
      <g style="fill: #7f7f7f" transform="translate(7.2 236.317759) scale(0.1 -0.1)">
       <defs>
        <path id="DejaVuSans-c9c" d="M 678 2272 
L 4684 2272 
L 4684 1741 
L 678 1741 
L 678 2272 
z
" transform="scale(0.015625)"/>
       </defs>
       <use xlink:href="#DejaVuSans-c9c"/>
       <use xlink:href="#DejaVuSans-1b" transform="translate(83.796875 0)"/>
      </g>
     </g>
    </g>
    <g id="ytick_2">
     <g id="line2d_8">
      <g>
       <use xlink:href="#mc7d18b8b1d" x="28.942188" y="205.769236" style="fill: #7f7f7f; stroke: #7f7f7f; stroke-width: 1.8"/>
      </g>
     </g>
     <g id="text_9">
      <!-- −6 -->
      <g style="fill: #7f7f7f" transform="translate(7.2 209.568064) scale(0.1 -0.1)">
       <use xlink:href="#DejaVuSans-c9c"/>
       <use xlink:href="#DejaVuSans-19" transform="translate(83.796875 0)"/>
      </g>
     </g>
    </g>
    <g id="ytick_3">
     <g id="line2d_9">
      <g>
       <use xlink:href="#mc7d18b8b1d" x="28.942188" y="179.019541" style="fill: #7f7f7f; stroke: #7f7f7f; stroke-width: 1.8"/>
      </g>
     </g>
     <g id="text_10">
      <!-- −4 -->
      <g style="fill: #7f7f7f" transform="translate(7.2 182.818369) scale(0.1 -0.1)">
       <use xlink:href="#DejaVuSans-c9c"/>
       <use xlink:href="#DejaVuSans-17" transform="translate(83.796875 0)"/>
      </g>
     </g>
    </g>
    <g id="ytick_4">
     <g id="line2d_10">
      <g>
       <use xlink:href="#mc7d18b8b1d" x="28.942188" y="152.269845" style="fill: #7f7f7f; stroke: #7f7f7f; stroke-width: 1.8"/>
      </g>
     </g>
     <g id="text_11">
      <!-- −2 -->
      <g style="fill: #7f7f7f" transform="translate(7.2 156.068674) scale(0.1 -0.1)">
       <use xlink:href="#DejaVuSans-c9c"/>
       <use xlink:href="#DejaVuSans-15" transform="translate(83.796875 0)"/>
      </g>
     </g>
    </g>
    <g id="ytick_5">
     <g id="line2d_11">
      <g>
       <use xlink:href="#mc7d18b8b1d" x="28.942188" y="125.52015" style="fill: #7f7f7f; stroke: #7f7f7f; stroke-width: 1.8"/>
      </g>
     </g>
     <g id="text_12">
      <!-- 0 -->
      <g style="fill: #7f7f7f" transform="translate(15.579688 129.318978) scale(0.1 -0.1)">
       <use xlink:href="#DejaVuSans-13"/>
      </g>
     </g>
    </g>
    <g id="ytick_6">
     <g id="line2d_12">
      <g>
       <use xlink:href="#mc7d18b8b1d" x="28.942188" y="98.770455" style="fill: #7f7f7f; stroke: #7f7f7f; stroke-width: 1.8"/>
      </g>
     </g>
     <g id="text_13">
      <!-- 2 -->
      <g style="fill: #7f7f7f" transform="translate(15.579688 102.569283) scale(0.1 -0.1)">
       <use xlink:href="#DejaVuSans-15"/>
      </g>
     </g>
    </g>
    <g id="ytick_7">
     <g id="line2d_13">
      <g>
       <use xlink:href="#mc7d18b8b1d" x="28.942188" y="72.02076" style="fill: #7f7f7f; stroke: #7f7f7f; stroke-width: 1.8"/>
      </g>
     </g>
     <g id="text_14">
      <!-- 4 -->
      <g style="fill: #7f7f7f" transform="translate(15.579688 75.819588) scale(0.1 -0.1)">
       <use xlink:href="#DejaVuSans-17"/>
      </g>
     </g>
    </g>
    <g id="ytick_8">
     <g id="line2d_14">
      <g>
       <use xlink:href="#mc7d18b8b1d" x="28.942188" y="45.271065" style="fill: #7f7f7f; stroke: #7f7f7f; stroke-width: 1.8"/>
      </g>
     </g>
     <g id="text_15">
      <!-- 6 -->
      <g style="fill: #7f7f7f" transform="translate(15.579688 49.069893) scale(0.1 -0.1)">
       <use xlink:href="#DejaVuSans-19"/>
      </g>
     </g>
    </g>
    <g id="ytick_9">
     <g id="line2d_15">
      <g>
       <use xlink:href="#mc7d18b8b1d" x="28.942188" y="18.52137" style="fill: #7f7f7f; stroke: #7f7f7f; stroke-width: 1.8"/>
      </g>
     </g>
     <g id="text_16">
      <!-- 8 -->
      <g style="fill: #7f7f7f" transform="translate(15.579688 22.320198) scale(0.1 -0.1)">
       <use xlink:href="#DejaVuSans-1b"/>
      </g>
     </g>
    </g>
   </g>
   <g id="line2d_16">
    <path d="M 53.153906 125.52015 
L 57.656385 113.21219 
L 59.544522 112.197015 
L 61.142176 113.799682 
L 63.611277 119.97794 
L 70.437617 138.554299 
L 72.035271 138.658093 
L 73.778166 136.240986 
L 76.682991 127.861057 
L 82.056918 112.964728 
L 83.945054 112.27288 
L 85.542708 114.138229 
L 88.157051 121.06874 
L 94.402425 138.340233 
L 96.14532 138.716924 
L 97.742974 136.72196 
L 100.502558 129.170841 
L 106.312209 112.907796 
L 108.200345 112.297084 
L 109.797999 114.227393 
L 112.412342 121.227578 
L 118.512475 138.240386 
L 120.25537 138.767421 
L 121.853024 136.902072 
L 124.467367 129.971561 
L 130.712741 112.700067 
L 132.455637 112.323376 
L 134.05329 114.31834 
L 136.812874 121.86946 
L 142.622525 138.132505 
L 144.510661 138.743217 
L 146.108315 136.812908 
L 148.722658 129.812722 
L 154.822791 112.799914 
L 156.565686 112.27288 
L 158.16334 114.138229 
L 160.777683 121.06874 
L 167.023057 138.340233 
L 168.765953 138.716924 
L 170.363606 136.72196 
L 173.123191 129.170841 
L 178.932841 112.907796 
L 180.820978 112.297084 
L 182.418631 114.227393 
L 185.032974 121.227578 
L 191.133107 138.240386 
L 192.876002 138.767421 
L 194.473656 136.902072 
L 197.087999 129.971561 
L 203.333373 112.700067 
L 205.076269 112.323376 
L 206.673923 114.31834 
L 209.433507 121.86946 
L 215.243157 138.132505 
L 217.131294 138.743217 
L 218.728947 136.812908 
L 221.34329 129.812722 
L 227.443423 112.799914 
L 229.186319 112.27288 
L 230.783972 114.138229 
L 233.398315 121.06874 
L 239.64369 138.340233 
L 241.386585 138.716924 
L 242.984239 136.72196 
L 245.743823 129.170841 
L 251.553473 112.907796 
L 253.44161 112.297084 
L 255.039264 114.227393 
L 257.653606 121.227578 
L 263.753739 138.240386 
L 265.496635 138.767421 
L 267.094288 136.902072 
L 269.708631 129.971561 
L 275.954006 112.700067 
L 277.696901 112.323376 
L 279.294555 114.31834 
L 282.054139 121.86946 
L 287.863789 138.132505 
L 289.751926 138.743217 
L 291.34958 136.812908 
L 293.963922 129.812722 
L 300.064055 112.799914 
L 301.806951 112.27288 
L 303.404605 114.138229 
L 306.018947 121.06874 
L 312.264322 138.340233 
L 314.007217 138.716924 
L 315.604871 136.72196 
L 318.364455 129.170841 
L 324.174105 112.907796 
L 326.062242 112.297084 
L 327.659896 114.227393 
L 330.274238 121.227578 
L 336.374372 138.240386 
L 338.117267 138.767421 
L 339.714921 136.902072 
L 342.329263 129.971561 
L 348.574638 112.700067 
L 350.317533 112.323376 
L 351.915187 114.31834 
L 354.674771 121.86946 
L 360.484421 138.132505 
L 362.372558 138.743217 
L 363.970212 136.812908 
L 366.584554 129.812722 
L 372.684688 112.799914 
L 374.427583 112.27288 
L 376.025237 114.138229 
L 378.639579 121.06874 
L 384.884954 138.340233 
L 386.627849 138.716924 
L 388.225503 136.72196 
L 390.985087 129.170841 
L 396.794737 112.907796 
L 398.682874 112.297084 
L 400.280528 114.227393 
L 402.894871 121.227578 
L 408.995004 138.240386 
L 410.737899 138.767421 
L 412.335553 136.902072 
L 414.949895 129.971561 
L 421.19527 112.700067 
L 422.938165 112.323376 
L 424.535819 114.31834 
L 427.295403 121.86946 
L 433.105054 138.132505 
L 434.99319 138.743217 
L 436.590844 136.812908 
L 439.205187 129.812722 
L 445.30532 112.799914 
L 447.048215 112.27288 
L 448.645869 114.138229 
L 451.260212 121.06874 
L 457.505586 138.340233 
L 459.248481 138.716924 
L 460.846135 136.72196 
L 463.605719 129.170841 
L 469.41537 112.907796 
L 471.303506 112.297084 
L 472.90116 114.227393 
L 475.515503 121.227578 
L 481.615636 138.240386 
L 483.358531 138.767421 
L 484.956185 136.902072 
L 487.570528 129.971561 
L 493.815902 112.700067 
L 495.558797 112.323376 
L 497.156451 114.31834 
L 499.916035 121.86946 
L 505.725686 138.132505 
L 507.613822 138.743217 
L 509.211476 136.812908 
L 511.825819 129.812722 
L 517.925952 112.799914 
L 519.668847 112.27288 
L 521.266501 114.138229 
L 523.880844 121.06874 
L 530.126218 138.340233 
L 531.869113 138.716924 
L 533.466767 136.72196 
L 536.226351 129.170841 
L 537.388281 125.184039 
L 537.388281 125.184039 
" clip-path="url(#p06405e7de0)" style="fill: none; stroke: #e41a1c; stroke-width: 2; stroke-linecap: square"/>
   </g>
   <g id="line2d_17">
    <path d="M 53.153906 125.52015 
L 54.170595 119.576054 
L 59.399281 20.909398 
L 59.689763 21.282118 
L 62.304106 29.045234 
L 65.789896 111.058044 
L 69.275687 188.271343 
L 69.71141 190.843977 
L 72.325753 222.617514 
L 72.761477 219.315134 
L 75.956785 190.181963 
L 82.637883 21.807427 
L 83.364089 18.598822 
L 83.799813 19.528315 
L 86.123673 27.339216 
L 88.302292 50.178808 
L 90.045187 97.435134 
L 93.82146 200.951149 
L 95.854838 219.676324 
L 96.871527 220.709445 
L 97.452492 222.765284 
L 97.742974 221.597773 
L 99.631111 198.403471 
L 101.664489 148.711191 
L 104.859796 61.55078 
L 106.602691 33.704336 
L 107.909863 22.754918 
L 108.055104 22.922767 
L 110.233723 34.213438 
L 113.719513 81.779695 
L 117.205304 198.000779 
L 119.09344 218.353705 
L 119.529164 217.473326 
L 119.674405 217.222601 
L 119.964888 218.231091 
L 121.126818 222.552112 
L 121.4173 221.522756 
L 122.579231 214.739561 
L 132.89136 20.523599 
L 133.327084 19.572072 
L 133.762808 20.893971 
L 136.086668 39.013613 
L 144.36542 226.630378 
L 144.946385 224.246801 
L 145.672592 217.53257 
L 146.398798 218.111006 
L 146.544039 218.225579 
L 146.834522 217.544038 
L 148.286934 200.301203 
L 155.403756 25.54114 
L 155.548998 25.612798 
L 155.984721 26.193727 
L 156.275204 25.645099 
L 158.453823 20.277848 
L 159.180029 24.306601 
L 160.632442 43.649096 
L 163.246785 116.617659 
L 166.877816 204.107593 
L 168.47547 218.218875 
L 168.911194 217.112142 
L 170.654089 211.259341 
L 173.268432 175.953564 
L 178.642359 31.630979 
L 180.530495 19.141767 
L 180.966219 18.08227 
L 181.256701 18.983886 
L 184.887733 44.87081 
L 187.647317 128.968348 
L 190.987866 202.457343 
L 193.602209 226.044236 
L 194.328415 221.966395 
L 197.814205 184.925039 
L 202.752408 38.880327 
L 204.785786 24.974578 
L 204.931027 25.173016 
L 205.947716 27.262024 
L 206.673923 26.837383 
L 206.819164 26.724084 
L 207.109646 27.521165 
L 207.981094 32.016535 
L 211.03116 89.423898 
L 214.226468 194.497054 
L 216.69557 226.458861 
L 217.567017 229.362035 
L 217.8575 228.410647 
L 219.01943 221.901886 
L 221.924255 187.447293 
L 223.086185 162.418899 
L 228.314871 31.025689 
L 229.186319 27.545569 
L 229.622042 28.490995 
L 229.912525 28.992734 
L 230.348249 27.746545 
L 231.219696 25.925712 
L 231.510179 27.207886 
L 232.672109 39.477565 
L 235.14121 99.710445 
L 237.900794 183.246485 
L 241.386585 220.254065 
L 242.403274 224.414711 
L 242.838997 222.818487 
L 244.436651 212.973496 
L 247.631959 130.155773 
L 251.843956 28.337792 
L 253.005886 23.191146 
L 253.44161 23.767604 
L 257.072641 44.121504 
L 259.541743 94.63679 
L 264.189463 220.202612 
L 264.91567 224.198145 
L 265.206152 222.162554 
L 265.932358 217.215168 
L 266.658565 217.653538 
L 267.384771 218.078387 
L 267.530012 217.678542 
L 269.708631 198.863505 
L 272.032491 122.669066 
L 275.082558 48.033193 
L 277.261177 22.603162 
L 277.842142 23.209352 
L 278.277866 24.872712 
L 279.730278 33.203679 
L 280.020761 32.311307 
L 280.311244 31.678569 
L 280.746967 33.427162 
L 281.327932 39.985348 
L 284.668481 130.808476 
L 288.154272 210.587578 
L 290.042408 220.936684 
L 290.18765 220.70013 
L 292.51151 208.304754 
L 294.254405 176.05822 
L 300.645021 19.511762 
L 300.790262 19.459536 
L 300.935503 20.192729 
L 301.661709 22.460383 
L 302.242674 21.552608 
L 303.549846 22.582763 
L 305.728465 36.649751 
L 306.599912 60.552304 
L 310.666668 177.783624 
L 312.700045 214.333389 
L 313.716734 220.914717 
L 314.152458 218.803238 
L 315.895353 209.853588 
L 317.493007 203.084818 
L 318.073972 197.090076 
L 320.397832 118.65463 
L 323.302658 43.760061 
L 326.352724 24.790231 
L 327.078931 25.662877 
L 327.950378 27.775737 
L 329.983756 48.497265 
L 331.436169 77.541241 
L 335.938648 212.17804 
L 338.117267 230.944634 
L 338.407749 230.532468 
L 339.569679 224.924298 
L 343.200711 171.408833 
L 347.412708 49.947875 
L 349.446085 27.935486 
L 349.591327 28.009885 
L 349.736568 28.178054 
L 350.02705 27.447578 
L 351.479463 18.45429 
L 352.060428 21.201679 
L 354.52953 48.073072 
L 356.708149 112.322152 
L 360.048698 204.985909 
L 362.082075 222.038262 
L 363.244005 229.474409 
L 363.534488 230.481457 
L 363.970212 228.34951 
L 364.696418 216.534701 
L 369.48938 100.713558 
L 372.394205 29.618236 
L 373.991859 21.723757 
L 375.153789 19.936685 
L 375.444272 20.923825 
L 377.187167 35.55281 
L 380.382475 90.683748 
L 385.320678 210.302173 
L 386.337366 216.948353 
L 387.063573 220.775201 
L 387.644538 220.624997 
L 389.823157 202.566217 
L 391.711293 153.332649 
L 396.359014 41.529297 
L 398.101909 19.231935 
L 398.392391 20.151011 
L 399.990045 24.332427 
L 400.716252 27.625482 
L 402.459147 43.577317 
L 404.202042 78.096723 
L 408.55928 198.043327 
L 410.592658 225.766097 
L 411.754588 223.533513 
L 412.04507 222.656021 
L 414.804654 190.203419 
L 416.257067 153.529736 
L 421.776235 31.772805 
L 423.51913 19.196112 
L 424.535819 21.89868 
L 425.988232 37.037082 
L 427.00492 61.438797 
L 433.105054 213.88477 
L 434.702707 224.036423 
L 435.864638 224.973794 
L 438.188498 213.525383 
L 440.367117 169.552634 
L 442.255253 104.389572 
L 444.724355 42.674605 
L 448.645869 19.400198 
L 449.226834 21.464188 
L 450.388764 30.919425 
L 451.405453 54.353145 
L 457.796068 219.463442 
L 458.667516 226.839857 
L 459.248481 225.985951 
L 459.829446 225.039356 
L 462.58903 203.882691 
L 463.75096 182.977946 
L 470.141576 26.382082 
L 471.73923 17.854506 
L 472.029712 18.200215 
L 472.465436 19.861638 
L 473.627366 30.57674 
L 476.677433 78.974728 
L 483.068048 220.799656 
L 483.358531 220.254718 
L 486.989563 205.337647 
L 489.749147 133.14429 
L 493.089696 41.016578 
L 496.139762 22.374733 
L 496.285003 22.568 
L 497.882657 27.591622 
L 499.044587 48.08617 
L 503.256584 151.78707 
L 505.870927 213.224353 
L 507.759063 221.550711 
L 508.194787 222.630265 
L 508.630511 221.516974 
L 511.97106 187.516182 
L 518.942641 27.321908 
L 520.395053 19.35787 
L 520.685536 19.871611 
L 521.847466 29.607398 
L 525.623739 89.47909 
L 530.561942 212.721986 
L 531.578631 219.728872 
L 532.159596 218.805019 
L 533.176285 218.011868 
L 533.75725 215.672568 
L 536.807316 175.386967 
L 537.388281 152.527242 
L 537.388281 152.527242 
" clip-path="url(#p06405e7de0)" style="fill: none; stroke: #377eb8; stroke-width: 2; stroke-linecap: square"/>
   </g>
   <g id="patch_3">
    <path d="M 28.942188 241.599141 
L 28.942188 7.2 
" style="fill: none; stroke: #7f7f7f; stroke-width: 1.8; stroke-linejoin: miter; stroke-linecap: square"/>
   </g>
   <g id="patch_4">
    <path d="M 28.942188 241.599141 
L 561.6 241.599141 
" style="fill: none; stroke: #7f7f7f; stroke-width: 1.8; stroke-linejoin: miter; stroke-linecap: square"/>
   </g>
   <g id="legend_1">
    <g id="line2d_18">
     <path d="M 37.942188 211.696016 
L 47.942188 211.696016 
L 57.942188 211.696016 
" style="fill: none; stroke: #e41a1c; stroke-width: 2; stroke-linecap: square"/>
    </g>
    <g id="text_17">
     <!-- Src -->
     <g style="fill: #7f7f7f" transform="translate(65.942188 215.196016) scale(0.1 -0.1)">
      <defs>
       <path id="DejaVuSans-36" d="M 3425 4513 
L 3425 3897 
Q 3066 4069 2747 4153 
Q 2428 4238 2131 4238 
Q 1616 4238 1336 4038 
Q 1056 3838 1056 3469 
Q 1056 3159 1242 3001 
Q 1428 2844 1947 2747 
L 2328 2669 
Q 3034 2534 3370 2195 
Q 3706 1856 3706 1288 
Q 3706 609 3251 259 
Q 2797 -91 1919 -91 
Q 1588 -91 1214 -16 
Q 841 59 441 206 
L 441 856 
Q 825 641 1194 531 
Q 1563 422 1919 422 
Q 2459 422 2753 634 
Q 3047 847 3047 1241 
Q 3047 1584 2836 1778 
Q 2625 1972 2144 2069 
L 1759 2144 
Q 1053 2284 737 2584 
Q 422 2884 422 3419 
Q 422 4038 858 4394 
Q 1294 4750 2059 4750 
Q 2388 4750 2728 4690 
Q 3069 4631 3425 4513 
z
" transform="scale(0.015625)"/>
       <path id="DejaVuSans-55" d="M 2631 2963 
Q 2534 3019 2420 3045 
Q 2306 3072 2169 3072 
Q 1681 3072 1420 2755 
Q 1159 2438 1159 1844 
L 1159 0 
L 581 0 
L 581 3500 
L 1159 3500 
L 1159 2956 
Q 1341 3275 1631 3429 
Q 1922 3584 2338 3584 
Q 2397 3584 2469 3576 
Q 2541 3569 2628 3553 
L 2631 2963 
z
" transform="scale(0.015625)"/>
       <path id="DejaVuSans-46" d="M 3122 3366 
L 3122 2828 
Q 2878 2963 2633 3030 
Q 2388 3097 2138 3097 
Q 1578 3097 1268 2742 
Q 959 2388 959 1747 
Q 959 1106 1268 751 
Q 1578 397 2138 397 
Q 2388 397 2633 464 
Q 2878 531 3122 666 
L 3122 134 
Q 2881 22 2623 -34 
Q 2366 -91 2075 -91 
Q 1284 -91 818 406 
Q 353 903 353 1747 
Q 353 2603 823 3093 
Q 1294 3584 2113 3584 
Q 2378 3584 2631 3529 
Q 2884 3475 3122 3366 
z
" transform="scale(0.015625)"/>
      </defs>
      <use xlink:href="#DejaVuSans-36"/>
      <use xlink:href="#DejaVuSans-55" transform="translate(63.484375 0)"/>
      <use xlink:href="#DejaVuSans-46" transform="translate(102.390625 0)"/>
     </g>
    </g>
    <g id="line2d_19">
     <path d="M 37.942188 226.696797 
L 47.942188 226.696797 
L 57.942188 226.696797 
" style="fill: none; stroke: #377eb8; stroke-width: 2; stroke-linecap: square"/>
    </g>
    <g id="text_18">
     <!-- AMP -->
     <g style="fill: #7f7f7f" transform="translate(65.942188 230.196797) scale(0.1 -0.1)">
      <defs>
       <path id="DejaVuSans-24" d="M 2188 4044 
L 1331 1722 
L 3047 1722 
L 2188 4044 
z
M 1831 4666 
L 2547 4666 
L 4325 0 
L 3669 0 
L 3244 1197 
L 1141 1197 
L 716 0 
L 50 0 
L 1831 4666 
z
" transform="scale(0.015625)"/>
       <path id="DejaVuSans-30" d="M 628 4666 
L 1569 4666 
L 2759 1491 
L 3956 4666 
L 4897 4666 
L 4897 0 
L 4281 0 
L 4281 4097 
L 3078 897 
L 2444 897 
L 1241 4097 
L 1241 0 
L 628 0 
L 628 4666 
z
" transform="scale(0.015625)"/>
       <path id="DejaVuSans-33" d="M 1259 4147 
L 1259 2394 
L 2053 2394 
Q 2494 2394 2734 2622 
Q 2975 2850 2975 3272 
Q 2975 3691 2734 3919 
Q 2494 4147 2053 4147 
L 1259 4147 
z
M 628 4666 
L 2053 4666 
Q 2838 4666 3239 4311 
Q 3641 3956 3641 3272 
Q 3641 2581 3239 2228 
Q 2838 1875 2053 1875 
L 1259 1875 
L 1259 0 
L 628 0 
L 628 4666 
z
" transform="scale(0.015625)"/>
      </defs>
      <use xlink:href="#DejaVuSans-24"/>
      <use xlink:href="#DejaVuSans-30" transform="translate(68.40625 0)"/>
      <use xlink:href="#DejaVuSans-33" transform="translate(154.6875 0)"/>
     </g>
    </g>
   </g>
  </g>
 </g>
 <defs>
  <clipPath id="p06405e7de0">
   <rect x="28.942188" y="7.2" width="532.657812" height="234.399141"/>
  </clipPath>
 </defs>
</svg>
