<?xml version="1.0" encoding="utf-8" standalone="no"?>
<!DOCTYPE svg PUBLIC "-//W3C//DTD SVG 1.1//EN"
  "http://www.w3.org/Graphics/SVG/1.1/DTD/svg11.dtd">
<svg xmlns:xlink="http://www.w3.org/1999/xlink" width="568.8pt" height="280.8pt" viewBox="0 0 568.8 280.8" xmlns="http://www.w3.org/2000/svg" version="1.1">
 <metadata>
  <rdf:RDF xmlns:dc="http://purl.org/dc/elements/1.1/" xmlns:cc="http://creativecommons.org/ns#" xmlns:rdf="http://www.w3.org/1999/02/22-rdf-syntax-ns#">
   <cc:Work>
    <dc:type rdf:resource="http://purl.org/dc/dcmitype/StillImage"/>
    <dc:date>2026-07-13T14:37:28.838850</dc:date>
    <dc:format>image/svg+xml</dc:format>
    <dc:creator>
     <cc:Agent>
      <dc:title>Matplotlib v3.11.0, https://matplotlib.org/</dc:title>
     </cc:Agent>
    </dc:creator>
   </cc:Work>
  </rdf:RDF>
 </metadata>
 <defs>
  <style type="text/css">*{stroke-linejoin: round; stroke-linecap: butt}</style>
 </defs>
 <g id="figure_1">
  <g id="patch_1">
   <path d="M 0 280.8 
L 568.8 280.8 
L 568.8 0 
L 0 0 
L 0 280.8 
z
" style="fill: none"/>
  </g>
  <g id="axes_1">
   <g id="patch_2">
    <path d="M 28.942188 241.599141 
L 561.6 241.599141 
L 561.6 7.2 
L 28.942188 7.2 
L 28.942188 241.599141 
z
" style="fill: none"/>
   </g>
   <g id="matplotlib.axis_1">
    <g id="xtick_1">
     <g id="line2d_1">
      <defs>
       <path id="m1f6d96c400" d="M 0 0 
L 0 3.5 
" style="stroke: #7f7f7f; stroke-width: 1.8"/>
      </defs>
      <g>
       <use xlink:href="#m1f6d96c400" x="53.153906" y="241.599141" style="fill: #7f7f7f; stroke: #7f7f7f; stroke-width: 1.8"/>
      </g>
     </g>
     <g id="text_1">
      <!-- 0.00000 -->
      <g style="fill: #7f7f7f" transform="translate(32.477344 256.196797) scale(0.1 -0.1)">
       <defs>
        <path id="DejaVuSans-13" d="M 2034 4250 
Q 1547 4250 1301 3770 
Q 1056 3291 1056 2328 
Q 1056 1369 1301 889 
Q 1547 409 2034 409 
Q 2525 409 2770 889 
Q 3016 1369 3016 2328 
Q 3016 3291 2770 3770 
Q 2525 4250 2034 4250 
z
M 2034 4750 
Q 2819 4750 3233 4129 
Q 3647 3509 3647 2328 
Q 3647 1150 3233 529 
Q 2819 -91 2034 -91 
Q 1250 -91 836 529 
Q 422 1150 422 2328 
Q 422 3509 836 4129 
Q 1250 4750 2034 4750 
z
" transform="scale(0.015625)"/>
        <path id="DejaVuSans-11" d="M 684 794 
L 1344 794 
L 1344 0 
L 684 0 
L 684 794 
z
" transform="scale(0.015625)"/>
       </defs>
       <use xlink:href="#DejaVuSans-13"/>
       <use xlink:href="#DejaVuSans-11" transform="translate(63.625 0)"/>
       <use xlink:href="#DejaVuSans-13" transform="translate(95.40625 0)"/>
       <use xlink:href="#DejaVuSans-13" transform="translate(159.03125 0)"/>
       <use xlink:href="#DejaVuSans-13" transform="translate(222.65625 0)"/>
       <use xlink:href="#DejaVuSans-13" transform="translate(286.28125 0)"/>
       <use xlink:href="#DejaVuSans-13" transform="translate(349.90625 0)"/>
      </g>
     </g>
    </g>
    <g id="xtick_2">
     <g id="line2d_2">
      <g>
       <use xlink:href="#m1f6d96c400" x="149.981416" y="241.599141" style="fill: #7f7f7f; stroke: #7f7f7f; stroke-width: 1.8"/>
      </g>
     </g>
     <g id="text_2">
      <!-- 0.00002 -->
      <g style="fill: #7f7f7f" transform="translate(129.304853 256.196797) scale(0.1 -0.1)">
       <defs>
        <path id="DejaVuSans-15" d="M 1228 531 
L 3431 531 
L 3431 0 
L 469 0 
L 469 531 
Q 828 903 1448 1529 
Q 2069 2156 2228 2338 
Q 2531 2678 2651 2914 
Q 2772 3150 2772 3378 
Q 2772 3750 2511 3984 
Q 2250 4219 1831 4219 
Q 1534 4219 1204 4116 
Q 875 4013 500 3803 
L 500 4441 
Q 881 4594 1212 4672 
Q 1544 4750 1819 4750 
Q 2544 4750 2975 4387 
Q 3406 4025 3406 3419 
Q 3406 3131 3298 2873 
Q 3191 2616 2906 2266 
Q 2828 2175 2409 1742 
Q 1991 1309 1228 531 
z
" transform="scale(0.015625)"/>
       </defs>
       <use xlink:href="#DejaVuSans-13"/>
       <use xlink:href="#DejaVuSans-11" transform="translate(63.625 0)"/>
       <use xlink:href="#DejaVuSans-13" transform="translate(95.40625 0)"/>
       <use xlink:href="#DejaVuSans-13" transform="translate(159.03125 0)"/>
       <use xlink:href="#DejaVuSans-13" transform="translate(222.65625 0)"/>
       <use xlink:href="#DejaVuSans-13" transform="translate(286.28125 0)"/>
       <use xlink:href="#DejaVuSans-15" transform="translate(349.90625 0)"/>
      </g>
     </g>
    </g>
    <g id="xtick_3">
     <g id="line2d_3">
      <g>
       <use xlink:href="#m1f6d96c400" x="246.808925" y="241.599141" style="fill: #7f7f7f; stroke: #7f7f7f; stroke-width: 1.8"/>
      </g>
     </g>
     <g id="text_3">
      <!-- 0.00004 -->
      <g style="fill: #7f7f7f" transform="translate(226.132363 256.196797) scale(0.1 -0.1)">
       <defs>
        <path id="DejaVuSans-17" d="M 2419 4116 
L 825 1625 
L 2419 1625 
L 2419 4116 
z
M 2253 4666 
L 3047 4666 
L 3047 1625 
L 3713 1625 
L 3713 1100 
L 3047 1100 
L 3047 0 
L 2419 0 
L 2419 1100 
L 313 1100 
L 313 1709 
L 2253 4666 
z
" transform="scale(0.015625)"/>
       </defs>
       <use xlink:href="#DejaVuSans-13"/>
       <use xlink:href="#DejaVuSans-11" transform="translate(63.625 0)"/>
       <use xlink:href="#DejaVuSans-13" transform="translate(95.40625 0)"/>
       <use xlink:href="#DejaVuSans-13" transform="translate(159.03125 0)"/>
       <use xlink:href="#DejaVuSans-13" transform="translate(222.65625 0)"/>
       <use xlink:href="#DejaVuSans-13" transform="translate(286.28125 0)"/>
       <use xlink:href="#DejaVuSans-17" transform="translate(349.90625 0)"/>
      </g>
     </g>
    </g>
    <g id="xtick_4">
     <g id="line2d_4">
      <g>
       <use xlink:href="#m1f6d96c400" x="343.636435" y="241.599141" style="fill: #7f7f7f; stroke: #7f7f7f; stroke-width: 1.8"/>
      </g>
     </g>
     <g id="text_4">
      <!-- 0.00006 -->
      <g style="fill: #7f7f7f" transform="translate(322.959872 256.196797) scale(0.1 -0.1)">
       <defs>
        <path id="DejaVuSans-19" d="M 2113 2584 
Q 1688 2584 1439 2293 
Q 1191 2003 1191 1497 
Q 1191 994 1439 701 
Q 1688 409 2113 409 
Q 2538 409 2786 701 
Q 3034 994 3034 1497 
Q 3034 2003 2786 2293 
Q 2538 2584 2113 2584 
z
M 3366 4563 
L 3366 3988 
Q 3128 4100 2886 4159 
Q 2644 4219 2406 4219 
Q 1781 4219 1451 3797 
Q 1122 3375 1075 2522 
Q 1259 2794 1537 2939 
Q 1816 3084 2150 3084 
Q 2853 3084 3261 2657 
Q 3669 2231 3669 1497 
Q 3669 778 3244 343 
Q 2819 -91 2113 -91 
Q 1303 -91 875 529 
Q 447 1150 447 2328 
Q 447 3434 972 4092 
Q 1497 4750 2381 4750 
Q 2619 4750 2861 4703 
Q 3103 4656 3366 4563 
z
" transform="scale(0.015625)"/>
       </defs>
       <use xlink:href="#DejaVuSans-13"/>
       <use xlink:href="#DejaVuSans-11" transform="translate(63.625 0)"/>
       <use xlink:href="#DejaVuSans-13" transform="translate(95.40625 0)"/>
       <use xlink:href="#DejaVuSans-13" transform="translate(159.03125 0)"/>
       <use xlink:href="#DejaVuSans-13" transform="translate(222.65625 0)"/>
       <use xlink:href="#DejaVuSans-13" transform="translate(286.28125 0)"/>
       <use xlink:href="#DejaVuSans-19" transform="translate(349.90625 0)"/>
      </g>
     </g>
    </g>
    <g id="xtick_5">
     <g id="line2d_5">
      <g>
       <use xlink:href="#m1f6d96c400" x="440.463944" y="241.599141" style="fill: #7f7f7f; stroke: #7f7f7f; stroke-width: 1.8"/>
      </g>
     </g>
     <g id="text_5">
      <!-- 0.00008 -->
      <g style="fill: #7f7f7f" transform="translate(419.787382 256.196797) scale(0.1 -0.1)">
       <defs>
        <path id="DejaVuSans-1b" d="M 2034 2216 
Q 1584 2216 1326 1975 
Q 1069 1734 1069 1313 
Q 1069 891 1326 650 
Q 1584 409 2034 409 
Q 2484 409 2743 651 
Q 3003 894 3003 1313 
Q 3003 1734 2745 1975 
Q 2488 2216 2034 2216 
z
M 1403 2484 
Q 997 2584 770 2862 
Q 544 3141 544 3541 
Q 544 4100 942 4425 
Q 1341 4750 2034 4750 
Q 2731 4750 3128 4425 
Q 3525 4100 3525 3541 
Q 3525 3141 3298 2862 
Q 3072 2584 2669 2484 
Q 3125 2378 3379 2068 
Q 3634 1759 3634 1313 
Q 3634 634 3220 271 
Q 2806 -91 2034 -91 
Q 1263 -91 848 271 
Q 434 634 434 1313 
Q 434 1759 690 2068 
Q 947 2378 1403 2484 
z
M 1172 3481 
Q 1172 3119 1398 2916 
Q 1625 2713 2034 2713 
Q 2441 2713 2670 2916 
Q 2900 3119 2900 3481 
Q 2900 3844 2670 4047 
Q 2441 4250 2034 4250 
Q 1625 4250 1398 4047 
Q 1172 3844 1172 3481 
z
" transform="scale(0.015625)"/>
       </defs>
       <use xlink:href="#DejaVuSans-13"/>
       <use xlink:href="#DejaVuSans-11" transform="translate(63.625 0)"/>
       <use xlink:href="#DejaVuSans-13" transform="translate(95.40625 0)"/>
       <use xlink:href="#DejaVuSans-13" transform="translate(159.03125 0)"/>
       <use xlink:href="#DejaVuSans-13" transform="translate(222.65625 0)"/>
       <use xlink:href="#DejaVuSans-13" transform="translate(286.28125 0)"/>
       <use xlink:href="#DejaVuSans-1b" transform="translate(349.90625 0)"/>
      </g>
     </g>
    </g>
    <g id="xtick_6">
     <g id="line2d_6">
      <g>
       <use xlink:href="#m1f6d96c400" x="537.291454" y="241.599141" style="fill: #7f7f7f; stroke: #7f7f7f; stroke-width: 1.8"/>
      </g>
     </g>
     <g id="text_6">
      <!-- 0.00010 -->
      <g style="fill: #7f7f7f" transform="translate(516.614891 256.196797) scale(0.1 -0.1)">
       <defs>
        <path id="DejaVuSans-14" d="M 794 531 
L 1825 531 
L 1825 4091 
L 703 3866 
L 703 4441 
L 1819 4666 
L 2450 4666 
L 2450 531 
L 3481 531 
L 3481 0 
L 794 0 
L 794 531 
z
" transform="scale(0.015625)"/>
       </defs>
       <use xlink:href="#DejaVuSans-13"/>
       <use xlink:href="#DejaVuSans-11" transform="translate(63.625 0)"/>
       <use xlink:href="#DejaVuSans-13" transform="translate(95.40625 0)"/>
       <use xlink:href="#DejaVuSans-13" transform="translate(159.03125 0)"/>
       <use xlink:href="#DejaVuSans-13" transform="translate(222.65625 0)"/>
       <use xlink:href="#DejaVuSans-14" transform="translate(286.28125 0)"/>
       <use xlink:href="#DejaVuSans-13" transform="translate(349.90625 0)"/>
      </g>
     </g>
    </g>
    <g id="text_7">
     <!-- time [s] -->
     <g style="fill: #7f7f7f" transform="translate(273.940547 270.957422) scale(0.11 -0.11)">
      <defs>
       <path id="DejaVuSans-57" d="M 1172 4494 
L 1172 3500 
L 2356 3500 
L 2356 3053 
L 1172 3053 
L 1172 1153 
Q 1172 725 1289 603 
Q 1406 481 1766 481 
L 2356 481 
L 2356 0 
L 1766 0 
Q 1100 0 847 248 
Q 594 497 594 1153 
L 594 3053 
L 172 3053 
L 172 3500 
L 594 3500 
L 594 4494 
L 1172 4494 
z
" transform="scale(0.015625)"/>
       <path id="DejaVuSans-4c" d="M 603 3500 
L 1178 3500 
L 1178 0 
L 603 0 
L 603 3500 
z
M 603 4863 
L 1178 4863 
L 1178 4134 
L 603 4134 
L 603 4863 
z
" transform="scale(0.015625)"/>
       <path id="DejaVuSans-50" d="M 3328 2828 
Q 3544 3216 3844 3400 
Q 4144 3584 4550 3584 
Q 5097 3584 5394 3201 
Q 5691 2819 5691 2113 
L 5691 0 
L 5113 0 
L 5113 2094 
Q 5113 2597 4934 2840 
Q 4756 3084 4391 3084 
Q 3944 3084 3684 2787 
Q 3425 2491 3425 1978 
L 3425 0 
L 2847 0 
L 2847 2094 
Q 2847 2600 2669 2842 
Q 2491 3084 2119 3084 
Q 1678 3084 1418 2786 
Q 1159 2488 1159 1978 
L 1159 0 
L 581 0 
L 581 3500 
L 1159 3500 
L 1159 2956 
Q 1356 3278 1631 3431 
Q 1906 3584 2284 3584 
Q 2666 3584 2933 3390 
Q 3200 3197 3328 2828 
z
" transform="scale(0.015625)"/>
       <path id="DejaVuSans-48" d="M 3597 1894 
L 3597 1613 
L 953 1613 
Q 991 1019 1311 708 
Q 1631 397 2203 397 
Q 2534 397 2845 478 
Q 3156 559 3463 722 
L 3463 178 
Q 3153 47 2828 -22 
Q 2503 -91 2169 -91 
Q 1331 -91 842 396 
Q 353 884 353 1716 
Q 353 2575 817 3079 
Q 1281 3584 2069 3584 
Q 2775 3584 3186 3129 
Q 3597 2675 3597 1894 
z
M 3022 2063 
Q 3016 2534 2758 2815 
Q 2500 3097 2075 3097 
Q 1594 3097 1305 2825 
Q 1016 2553 972 2059 
L 3022 2063 
z
" transform="scale(0.015625)"/>
       <path id="DejaVuSans-3" transform="scale(0.015625)"/>
       <path id="DejaVuSans-3e" d="M 550 4863 
L 1875 4863 
L 1875 4416 
L 1125 4416 
L 1125 -397 
L 1875 -397 
L 1875 -844 
L 550 -844 
L 550 4863 
z
" transform="scale(0.015625)"/>
       <path id="DejaVuSans-56" d="M 2834 3397 
L 2834 2853 
Q 2591 2978 2328 3040 
Q 2066 3103 1784 3103 
Q 1356 3103 1142 2972 
Q 928 2841 928 2578 
Q 928 2378 1081 2264 
Q 1234 2150 1697 2047 
L 1894 2003 
Q 2506 1872 2764 1633 
Q 3022 1394 3022 966 
Q 3022 478 2636 193 
Q 2250 -91 1575 -91 
Q 1294 -91 989 -36 
Q 684 19 347 128 
L 347 722 
Q 666 556 975 473 
Q 1284 391 1588 391 
Q 1994 391 2212 530 
Q 2431 669 2431 922 
Q 2431 1156 2273 1281 
Q 2116 1406 1581 1522 
L 1381 1569 
Q 847 1681 609 1914 
Q 372 2147 372 2553 
Q 372 3047 722 3315 
Q 1072 3584 1716 3584 
Q 2034 3584 2315 3537 
Q 2597 3491 2834 3397 
z
" transform="scale(0.015625)"/>
       <path id="DejaVuSans-40" d="M 1947 4863 
L 1947 -844 
L 622 -844 
L 622 -397 
L 1369 -397 
L 1369 4416 
L 622 4416 
L 622 4863 
L 1947 4863 
z
" transform="scale(0.015625)"/>
      </defs>
      <use xlink:href="#DejaVuSans-57"/>
      <use xlink:href="#DejaVuSans-4c" transform="translate(39.203125 0)"/>
      <use xlink:href="#DejaVuSans-50" transform="translate(66.984375 0)"/>
      <use xlink:href="#DejaVuSans-48" transform="translate(164.390625 0)"/>
      <use xlink:href="#DejaVuSans-3" transform="translate(225.921875 0)"/>
      <use xlink:href="#DejaVuSans-3e" transform="translate(257.703125 0)"/>
      <use xlink:href="#DejaVuSans-56" transform="translate(296.71875 0)"/>
      <use xlink:href="#DejaVuSans-40" transform="translate(348.8125 0)"/>
     </g>
    </g>
   </g>
   <g id="matplotlib.axis_2">
    <g id="ytick_1">
     <g id="line2d_7">
      <defs>
       <path id="m5747845548" d="M 0 0 
L -3.5 0 
" style="stroke: #7f7f7f; stroke-width: 1.8"/>
      </defs>
      <g>
       <use xlink:href="#m5747845548" x="28.942188" y="227.912583" style="fill: #7f7f7f; stroke: #7f7f7f; stroke-width: 1.8"/>
      </g>
     </g>
     <g id="text_8">
      <!-- −8 -->
      <g style="fill: #7f7f7f" transform="translate(7.2 231.711411) scale(0.1 -0.1)">
       <defs>
        <path id="DejaVuSans-c9c" d="M 678 2272 
L 4684 2272 
L 4684 1741 
L 678 1741 
L 678 2272 
z
" transform="scale(0.015625)"/>
       </defs>
       <use xlink:href="#DejaVuSans-c9c"/>
       <use xlink:href="#DejaVuSans-1b" transform="translate(83.796875 0)"/>
      </g>
     </g>
    </g>
    <g id="ytick_2">
     <g id="line2d_8">
      <g>
       <use xlink:href="#m5747845548" x="28.942188" y="201.638739" style="fill: #7f7f7f; stroke: #7f7f7f; stroke-width: 1.8"/>
      </g>
     </g>
     <g id="text_9">
      <!-- −6 -->
      <g style="fill: #7f7f7f" transform="translate(7.2 205.437567) scale(0.1 -0.1)">
       <use xlink:href="#DejaVuSans-c9c"/>
       <use xlink:href="#DejaVuSans-19" transform="translate(83.796875 0)"/>
      </g>
     </g>
    </g>
    <g id="ytick_3">
     <g id="line2d_9">
      <g>
       <use xlink:href="#m5747845548" x="28.942188" y="175.364895" style="fill: #7f7f7f; stroke: #7f7f7f; stroke-width: 1.8"/>
      </g>
     </g>
     <g id="text_10">
      <!-- −4 -->
      <g style="fill: #7f7f7f" transform="translate(7.2 179.163723) scale(0.1 -0.1)">
       <use xlink:href="#DejaVuSans-c9c"/>
       <use xlink:href="#DejaVuSans-17" transform="translate(83.796875 0)"/>
      </g>
     </g>
    </g>
    <g id="ytick_4">
     <g id="line2d_10">
      <g>
       <use xlink:href="#m5747845548" x="28.942188" y="149.09105" style="fill: #7f7f7f; stroke: #7f7f7f; stroke-width: 1.8"/>
      </g>
     </g>
     <g id="text_11">
      <!-- −2 -->
      <g style="fill: #7f7f7f" transform="translate(7.2 152.889879) scale(0.1 -0.1)">
       <use xlink:href="#DejaVuSans-c9c"/>
       <use xlink:href="#DejaVuSans-15" transform="translate(83.796875 0)"/>
      </g>
     </g>
    </g>
    <g id="ytick_5">
     <g id="line2d_11">
      <g>
       <use xlink:href="#m5747845548" x="28.942188" y="122.817206" style="fill: #7f7f7f; stroke: #7f7f7f; stroke-width: 1.8"/>
      </g>
     </g>
     <g id="text_12">
      <!-- 0 -->
      <g style="fill: #7f7f7f" transform="translate(15.579688 126.616034) scale(0.1 -0.1)">
       <use xlink:href="#DejaVuSans-13"/>
      </g>
     </g>
    </g>
    <g id="ytick_6">
     <g id="line2d_12">
      <g>
       <use xlink:href="#m5747845548" x="28.942188" y="96.543362" style="fill: #7f7f7f; stroke: #7f7f7f; stroke-width: 1.8"/>
      </g>
     </g>
     <g id="text_13">
      <!-- 2 -->
      <g style="fill: #7f7f7f" transform="translate(15.579688 100.34219) scale(0.1 -0.1)">
       <use xlink:href="#DejaVuSans-15"/>
      </g>
     </g>
    </g>
    <g id="ytick_7">
     <g id="line2d_13">
      <g>
       <use xlink:href="#m5747845548" x="28.942188" y="70.269518" style="fill: #7f7f7f; stroke: #7f7f7f; stroke-width: 1.8"/>
      </g>
     </g>
     <g id="text_14">
      <!-- 4 -->
      <g style="fill: #7f7f7f" transform="translate(15.579688 74.068346) scale(0.1 -0.1)">
       <use xlink:href="#DejaVuSans-17"/>
      </g>
     </g>
    </g>
    <g id="ytick_8">
     <g id="line2d_14">
      <g>
       <use xlink:href="#m5747845548" x="28.942188" y="43.995674" style="fill: #7f7f7f; stroke: #7f7f7f; stroke-width: 1.8"/>
      </g>
     </g>
     <g id="text_15">
      <!-- 6 -->
      <g style="fill: #7f7f7f" transform="translate(15.579688 47.794502) scale(0.1 -0.1)">
       <use xlink:href="#DejaVuSans-19"/>
      </g>
     </g>
    </g>
    <g id="ytick_9">
     <g id="line2d_15">
      <g>
       <use xlink:href="#m5747845548" x="28.942188" y="17.72183" style="fill: #7f7f7f; stroke: #7f7f7f; stroke-width: 1.8"/>
      </g>
     </g>
     <g id="text_16">
      <!-- 8 -->
      <g style="fill: #7f7f7f" transform="translate(15.579688 21.520658) scale(0.1 -0.1)">
       <use xlink:href="#DejaVuSans-1b"/>
      </g>
     </g>
    </g>
   </g>
   <g id="line2d_16">
    <path d="M 53.153906 122.817206 
L 57.656385 110.728192 
L 59.544522 109.731077 
L 61.142176 111.305234 
L 63.611277 117.373587 
L 70.437617 135.61949 
L 72.035271 135.721437 
L 73.778166 133.347329 
L 76.682991 125.116471 
L 82.056918 110.485133 
L 83.945054 109.805592 
L 85.542708 111.637758 
L 88.157051 118.444982 
L 94.402425 135.409232 
L 96.14532 135.779223 
L 97.888216 133.541391 
L 100.793041 125.440781 
L 106.312209 110.429213 
L 108.200345 109.829365 
L 109.797999 111.725336 
L 112.412342 118.600995 
L 118.512475 135.311162 
L 120.25537 135.828821 
L 121.853024 133.996654 
L 124.467367 127.189431 
L 130.712741 110.22518 
L 132.455637 109.85519 
L 134.198532 112.093021 
L 137.103357 120.193632 
L 142.622525 135.205199 
L 144.510661 135.805047 
L 146.108315 133.909076 
L 148.722658 127.033417 
L 154.822791 110.323251 
L 156.565686 109.805592 
L 158.16334 111.637758 
L 160.777683 118.444982 
L 167.023057 135.409232 
L 168.765953 135.779223 
L 170.508848 133.541391 
L 173.413673 125.440781 
L 178.932841 110.429213 
L 180.820978 109.829365 
L 182.418631 111.725336 
L 185.032974 118.600995 
L 191.133107 135.311162 
L 192.876002 135.828821 
L 194.473656 133.996654 
L 197.087999 127.189431 
L 203.333373 110.22518 
L 205.076269 109.85519 
L 206.819164 112.093021 
L 209.723989 120.193632 
L 215.243157 135.205199 
L 217.131294 135.805047 
L 218.728947 133.909076 
L 221.34329 127.033417 
L 227.443423 110.323251 
L 229.186319 109.805592 
L 230.783972 111.637758 
L 233.398315 118.444982 
L 239.64369 135.409232 
L 241.386585 135.779223 
L 243.12948 133.541391 
L 246.034305 125.440781 
L 251.553473 110.429213 
L 253.44161 109.829365 
L 255.039264 111.725336 
L 257.653606 118.600995 
L 263.753739 135.311162 
L 265.496635 135.828821 
L 267.094288 133.996654 
L 269.708631 127.189431 
L 275.954006 110.22518 
L 277.696901 109.85519 
L 279.439796 112.093021 
L 282.344621 120.193632 
L 287.863789 135.205199 
L 289.751926 135.805047 
L 291.34958 133.909076 
L 293.963922 127.033417 
L 300.064055 110.323251 
L 301.806951 109.805592 
L 303.404605 111.637758 
L 306.018947 118.444982 
L 312.264322 135.409232 
L 314.007217 135.779223 
L 315.750112 133.541391 
L 318.654937 125.440781 
L 324.174105 110.429213 
L 326.062242 109.829365 
L 327.659896 111.725336 
L 330.274238 118.600995 
L 336.374372 135.311162 
L 338.117267 135.828821 
L 339.714921 133.996654 
L 342.329263 127.189431 
L 348.574638 110.22518 
L 350.317533 109.85519 
L 352.060428 112.093021 
L 354.965253 120.193632 
L 360.484421 135.205199 
L 362.372558 135.805047 
L 363.970212 133.909076 
L 366.584554 127.033417 
L 372.684688 110.323251 
L 374.427583 109.805592 
L 376.025237 111.637758 
L 378.639579 118.444982 
L 384.884954 135.409232 
L 386.627849 135.779223 
L 388.370744 133.541391 
L 391.275569 125.440781 
L 396.794737 110.429213 
L 398.682874 109.829365 
L 400.280528 111.725336 
L 402.894871 118.600995 
L 408.995004 135.311162 
L 410.737899 135.828821 
L 412.335553 133.996654 
L 414.949895 127.189431 
L 421.19527 110.22518 
L 422.938165 109.85519 
L 424.68106 112.093021 
L 427.585885 120.193632 
L 433.105054 135.205199 
L 434.99319 135.805047 
L 436.590844 133.909076 
L 439.205187 127.033417 
L 445.30532 110.323251 
L 447.048215 109.805592 
L 448.645869 111.637758 
L 451.260212 118.444982 
L 457.505586 135.409232 
L 459.248481 135.779223 
L 460.991376 133.541391 
L 463.896202 125.440781 
L 469.41537 110.429213 
L 471.303506 109.829365 
L 472.90116 111.725336 
L 475.515503 118.600995 
L 481.615636 135.311162 
L 483.358531 135.828821 
L 484.956185 133.996654 
L 487.570528 127.189431 
L 493.815902 110.22518 
L 495.558797 109.85519 
L 497.301692 112.093021 
L 500.206518 120.193632 
L 505.725686 135.205199 
L 507.613822 135.805047 
L 509.211476 133.909076 
L 511.825819 127.033417 
L 517.925952 110.323251 
L 519.668847 109.805592 
L 521.266501 111.637758 
L 523.880844 118.444982 
L 530.126218 135.409232 
L 531.869113 135.779223 
L 533.612008 133.541391 
L 536.516834 125.440781 
L 537.388281 122.487074 
L 537.388281 122.487074 
" clip-path="url(#pe1b30d743c)" style="fill: none; stroke: #e41a1c; stroke-width: 2; stroke-linecap: square"/>
   </g>
   <g id="line2d_17">
    <path d="M 53.153906 122.817206 
L 54.025354 122.326606 
L 54.461078 119.844133 
L 55.332525 99.541958 
L 58.382592 31.992468 
L 59.399281 26.136697 
L 59.689763 26.455916 
L 60.706452 24.103176 
L 61.142176 22.335426 
L 61.723141 23.936511 
L 63.030312 33.823188 
L 65.208931 88.748451 
L 67.968515 158.505328 
L 70.87334 216.072539 
L 72.470994 224.065616 
L 72.906718 220.129789 
L 76.828232 164.969883 
L 82.783124 27.001768 
L 84.380778 24.3128 
L 85.542708 22.493609 
L 85.833191 23.644752 
L 86.995121 35.405822 
L 89.754705 88.775753 
L 94.692908 212.015722 
L 94.838149 211.943161 
L 94.98339 212.392802 
L 95.564355 215.073705 
L 96.290562 214.182522 
L 97.452492 215.388147 
L 97.742974 215.071924 
L 98.469181 209.049855 
L 103.988349 74.17456 
L 106.166968 34.765902 
L 108.345587 18.576035 
L 109.507517 18.112637 
L 109.652758 18.316625 
L 111.250412 34.08683 
L 114.881444 122.111353 
L 118.367234 210.673515 
L 118.802958 210.531107 
L 119.819647 214.63688 
L 120.545853 212.118677 
L 120.836335 211.618987 
L 121.126818 212.765936 
L 121.562542 213.829255 
L 121.707783 213.05863 
L 126.065021 148.100988 
L 129.550811 49.266352 
L 132.165154 22.282785 
L 133.472325 21.254851 
L 134.05329 21.756486 
L 136.667633 49.888222 
L 138.120046 90.965242 
L 141.605836 189.521351 
L 144.220179 224.233196 
L 144.946385 226.449728 
L 145.236868 225.574715 
L 148.141693 199.081962 
L 155.694239 20.186373 
L 156.129963 21.83959 
L 156.856169 23.520752 
L 157.291893 22.862323 
L 157.582375 22.600484 
L 157.872858 23.605759 
L 158.453823 24.484812 
L 158.889547 24.157511 
L 159.034788 23.971476 
L 159.180029 24.388437 
L 160.487201 39.027121 
L 162.084854 81.743075 
L 166.296851 202.068399 
L 167.749264 218.983394 
L 168.184988 217.862585 
L 169.492159 218.554424 
L 170.79933 219.965101 
L 170.944572 219.426902 
L 172.106502 208.894803 
L 174.575603 150.192124 
L 179.513806 30.338291 
L 181.837666 24.056228 
L 182.128149 24.939058 
L 183.144838 29.433617 
L 185.178215 59.904028 
L 187.502076 127.182145 
L 190.406901 195.65182 
L 192.440279 220.741957 
L 193.166485 222.643714 
L 193.602209 222.040806 
L 194.037933 217.902274 
L 195.635586 207.861442 
L 196.216552 205.273489 
L 198.976136 140.34115 
L 202.752408 37.974064 
L 205.076269 20.444043 
L 205.511992 21.938246 
L 207.54537 28.260578 
L 208.126335 31.624419 
L 209.86923 64.499241 
L 211.321643 110.041453 
L 213.790745 184.450622 
L 216.986052 219.246612 
L 217.421776 220.979378 
L 218.002741 220.617032 
L 219.890878 204.393393 
L 225.119563 84.264242 
L 227.879147 30.44326 
L 229.476801 25.427389 
L 230.057766 27.207727 
L 230.638731 25.908995 
L 230.783972 25.406433 
L 231.510179 26.322674 
L 232.526868 39.825548 
L 240.079413 211.797174 
L 241.096102 217.576652 
L 242.838997 222.795805 
L 243.565204 218.878023 
L 245.598581 192.19947 
L 250.972508 45.84655 
L 253.151127 23.327009 
L 253.877333 18.742661 
L 254.313057 20.480974 
L 257.363124 48.959177 
L 258.960778 96.924543 
L 264.770428 218.143627 
L 266.368082 221.746191 
L 266.513323 221.244383 
L 271.306285 155.432185 
L 275.373041 54.008269 
L 277.987383 21.229142 
L 278.277866 21.407694 
L 280.166002 34.038963 
L 283.651793 95.459946 
L 287.137583 191.516237 
L 290.478132 218.162544 
L 290.913856 217.264816 
L 292.221027 204.988689 
L 294.399646 180.565514 
L 295.852059 132.709116 
L 298.611643 59.050676 
L 300.645021 32.876185 
L 301.225986 28.291934 
L 302.823639 20.641886 
L 303.549846 19.848841 
L 303.840328 20.494226 
L 304.421293 25.851523 
L 306.454671 49.821028 
L 307.761842 93.273433 
L 312.11908 208.530244 
L 313.861976 221.44541 
L 314.297699 221.141423 
L 314.878664 221.725867 
L 315.169147 220.743605 
L 317.347766 200.087188 
L 325.045553 30.447827 
L 327.514654 22.129768 
L 327.659896 22.533601 
L 329.693273 41.130373 
L 336.083889 205.398675 
L 338.407749 227.701604 
L 338.698232 226.617147 
L 341.312575 205.7445 
L 345.960295 91.180774 
L 348.86512 30.10557 
L 350.172292 19.067461 
L 350.898498 20.267039 
L 351.479463 21.805042 
L 354.674771 62.309207 
L 360.920145 218.696987 
L 361.646352 217.685161 
L 362.372558 219.821799 
L 363.679729 222.927994 
L 363.970212 221.244053 
L 365.858348 207.44297 
L 370.65131 76.667871 
L 372.829929 44.273987 
L 374.718065 31.97055 
L 375.444272 33.212289 
L 376.606202 38.599021 
L 376.896684 38.287557 
L 377.041926 38.085942 
L 377.332408 38.763263 
L 378.058614 47.399579 
L 380.818198 119.511404 
L 385.465919 215.003251 
L 388.370744 223.321076 
L 388.806468 222.798838 
L 389.968398 210.113885 
L 392.292258 142.420401 
L 396.359014 43.365725 
L 398.101909 28.963463 
L 398.24715 28.69397 
L 398.537633 29.854166 
L 400.861493 36.303128 
L 401.151975 36.534267 
L 402.604388 49.584369 
L 404.492524 92.165074 
L 408.55928 207.53324 
L 408.995004 210.240011 
L 411.028381 223.448707 
L 411.609346 223.624392 
L 411.754588 223.302184 
L 414.514172 208.924324 
L 417.70948 110.648127 
L 420.469064 43.111038 
L 422.211959 31.206141 
L 423.954854 26.729414 
L 424.535819 31.553016 
L 428.602574 95.600285 
L 432.088365 201.750779 
L 433.976501 219.949825 
L 434.266984 219.659398 
L 434.557466 219.797834 
L 434.702707 220.347828 
L 434.99319 221.333539 
L 435.719396 220.373664 
L 436.590844 220.541403 
L 436.736085 219.908296 
L 438.188498 204.667354 
L 442.255253 110.893645 
L 445.595802 30.995922 
L 446.757732 27.111554 
L 446.902974 27.377671 
L 448.064904 30.623401 
L 448.500628 29.958354 
L 449.226834 28.994671 
L 449.372075 29.629297 
L 451.260212 48.978927 
L 453.874554 137.963357 
L 456.198415 195.070017 
L 459.10324 226.573757 
L 460.26517 230.944634 
L 460.555652 230.269009 
L 462.58903 204.991925 
L 467.381992 79.166933 
L 469.560611 27.399856 
L 471.73923 20.66149 
L 472.320195 23.702888 
L 477.113157 90.293891 
L 481.034671 214.485761 
L 484.810944 224.551208 
L 485.827632 220.678306 
L 487.715769 193.035452 
L 490.765835 103.567481 
L 494.106385 31.340311 
L 495.84928 23.069938 
L 496.139762 23.336929 
L 496.430245 22.643522 
L 496.575486 22.196427 
L 497.01121 24.046546 
L 499.33507 40.256788 
L 507.468581 221.951193 
L 507.613822 222.174565 
L 508.049546 221.253415 
L 508.630511 217.914267 
L 509.356717 218.516123 
L 509.6472 218.518465 
L 509.792441 218.068437 
L 511.244854 206.290772 
L 514.585403 110.616785 
L 518.071193 35.815017 
L 520.249812 21.456725 
L 520.540295 22.654714 
L 522.864155 48.618261 
L 526.204704 119.09407 
L 528.964288 194.76453 
L 531.723872 222.522163 
L 532.014354 222.062601 
L 535.064421 211.432055 
L 537.388281 170.223082 
L 537.388281 170.223082 
" clip-path="url(#pe1b30d743c)" style="fill: none; stroke: #377eb8; stroke-width: 2; stroke-linecap: square"/>
   </g>
   <g id="patch_3">
    <path d="M 28.942188 241.599141 
L 28.942188 7.2 
" style="fill: none; stroke: #7f7f7f; stroke-width: 1.8; stroke-linejoin: miter; stroke-linecap: square"/>
   </g>
   <g id="patch_4">
    <path d="M 28.942188 241.599141 
L 561.6 241.599141 
" style="fill: none; stroke: #7f7f7f; stroke-width: 1.8; stroke-linejoin: miter; stroke-linecap: square"/>
   </g>
   <g id="legend_1">
    <g id="line2d_18">
     <path d="M 37.942188 211.696016 
L 47.942188 211.696016 
L 57.942188 211.696016 
" style="fill: none; stroke: #e41a1c; stroke-width: 2; stroke-linecap: square"/>
    </g>
    <g id="text_17">
     <!-- Src -->
     <g style="fill: #7f7f7f" transform="translate(65.942188 215.196016) scale(0.1 -0.1)">
      <defs>
       <path id="DejaVuSans-36" d="M 3425 4513 
L 3425 3897 
Q 3066 4069 2747 4153 
Q 2428 4238 2131 4238 
Q 1616 4238 1336 4038 
Q 1056 3838 1056 3469 
Q 1056 3159 1242 3001 
Q 1428 2844 1947 2747 
L 2328 2669 
Q 3034 2534 3370 2195 
Q 3706 1856 3706 1288 
Q 3706 609 3251 259 
Q 2797 -91 1919 -91 
Q 1588 -91 1214 -16 
Q 841 59 441 206 
L 441 856 
Q 825 641 1194 531 
Q 1563 422 1919 422 
Q 2459 422 2753 634 
Q 3047 847 3047 1241 
Q 3047 1584 2836 1778 
Q 2625 1972 2144 2069 
L 1759 2144 
Q 1053 2284 737 2584 
Q 422 2884 422 3419 
Q 422 4038 858 4394 
Q 1294 4750 2059 4750 
Q 2388 4750 2728 4690 
Q 3069 4631 3425 4513 
z
" transform="scale(0.015625)"/>
       <path id="DejaVuSans-55" d="M 2631 2963 
Q 2534 3019 2420 3045 
Q 2306 3072 2169 3072 
Q 1681 3072 1420 2755 
Q 1159 2438 1159 1844 
L 1159 0 
L 581 0 
L 581 3500 
L 1159 3500 
L 1159 2956 
Q 1341 3275 1631 3429 
Q 1922 3584 2338 3584 
Q 2397 3584 2469 3576 
Q 2541 3569 2628 3553 
L 2631 2963 
z
" transform="scale(0.015625)"/>
       <path id="DejaVuSans-46" d="M 3122 3366 
L 3122 2828 
Q 2878 2963 2633 3030 
Q 2388 3097 2138 3097 
Q 1578 3097 1268 2742 
Q 959 2388 959 1747 
Q 959 1106 1268 751 
Q 1578 397 2138 397 
Q 2388 397 2633 464 
Q 2878 531 3122 666 
L 3122 134 
Q 2881 22 2623 -34 
Q 2366 -91 2075 -91 
Q 1284 -91 818 406 
Q 353 903 353 1747 
Q 353 2603 823 3093 
Q 1294 3584 2113 3584 
Q 2378 3584 2631 3529 
Q 2884 3475 3122 3366 
z
" transform="scale(0.015625)"/>
      </defs>
      <use xlink:href="#DejaVuSans-36"/>
      <use xlink:href="#DejaVuSans-55" transform="translate(63.484375 0)"/>
      <use xlink:href="#DejaVuSans-46" transform="translate(102.390625 0)"/>
     </g>
    </g>
    <g id="line2d_19">
     <path d="M 37.942188 226.696797 
L 47.942188 226.696797 
L 57.942188 226.696797 
" style="fill: none; stroke: #377eb8; stroke-width: 2; stroke-linecap: square"/>
    </g>
    <g id="text_18">
     <!-- AMP -->
     <g style="fill: #7f7f7f" transform="translate(65.942188 230.196797) scale(0.1 -0.1)">
      <defs>
       <path id="DejaVuSans-24" d="M 2188 4044 
L 1331 1722 
L 3047 1722 
L 2188 4044 
z
M 1831 4666 
L 2547 4666 
L 4325 0 
L 3669 0 
L 3244 1197 
L 1141 1197 
L 716 0 
L 50 0 
L 1831 4666 
z
" transform="scale(0.015625)"/>
       <path id="DejaVuSans-30" d="M 628 4666 
L 1569 4666 
L 2759 1491 
L 3956 4666 
L 4897 4666 
L 4897 0 
L 4281 0 
L 4281 4097 
L 3078 897 
L 2444 897 
L 1241 4097 
L 1241 0 
L 628 0 
L 628 4666 
z
" transform="scale(0.015625)"/>
       <path id="DejaVuSans-33" d="M 1259 4147 
L 1259 2394 
L 2053 2394 
Q 2494 2394 2734 2622 
Q 2975 2850 2975 3272 
Q 2975 3691 2734 3919 
Q 2494 4147 2053 4147 
L 1259 4147 
z
M 628 4666 
L 2053 4666 
Q 2838 4666 3239 4311 
Q 3641 3956 3641 3272 
Q 3641 2581 3239 2228 
Q 2838 1875 2053 1875 
L 1259 1875 
L 1259 0 
L 628 0 
L 628 4666 
z
" transform="scale(0.015625)"/>
      </defs>
      <use xlink:href="#DejaVuSans-24"/>
      <use xlink:href="#DejaVuSans-30" transform="translate(68.40625 0)"/>
      <use xlink:href="#DejaVuSans-33" transform="translate(154.6875 0)"/>
     </g>
    </g>
   </g>
  </g>
 </g>
 <defs>
  <clipPath id="pe1b30d743c">
   <rect x="28.942188" y="7.2" width="532.657812" height="234.399141"/>
  </clipPath>
 </defs>
</svg>
