<?xml version="1.0" encoding="utf-8" standalone="no"?>
<!DOCTYPE svg PUBLIC "-//W3C//DTD SVG 1.1//EN"
  "http://www.w3.org/Graphics/SVG/1.1/DTD/svg11.dtd">
<svg xmlns:xlink="http://www.w3.org/1999/xlink" width="568.8pt" height="280.8pt" viewBox="0 0 568.8 280.8" xmlns="http://www.w3.org/2000/svg" version="1.1">
 <metadata>
  <rdf:RDF xmlns:dc="http://purl.org/dc/elements/1.1/" xmlns:cc="http://creativecommons.org/ns#" xmlns:rdf="http://www.w3.org/1999/02/22-rdf-syntax-ns#">
   <cc:Work>
    <dc:type rdf:resource="http://purl.org/dc/dcmitype/StillImage"/>
    <dc:date>2026-06-28T07:37:23.530924</dc:date>
    <dc:format>image/svg+xml</dc:format>
    <dc:creator>
     <cc:Agent>
      <dc:title>Matplotlib v3.11.0, https://matplotlib.org/</dc:title>
     </cc:Agent>
    </dc:creator>
   </cc:Work>
  </rdf:RDF>
 </metadata>
 <defs>
  <style type="text/css">*{stroke-linejoin: round; stroke-linecap: butt}</style>
 </defs>
 <g id="figure_1">
  <g id="patch_1">
   <path d="M 0 280.8 
L 568.8 280.8 
L 568.8 0 
L 0 0 
L 0 280.8 
z
" style="fill: none"/>
  </g>
  <g id="axes_1">
   <g id="patch_2">
    <path d="M 28.942188 241.599141 
L 561.6 241.599141 
L 561.6 7.2 
L 28.942188 7.2 
L 28.942188 241.599141 
z
" style="fill: none"/>
   </g>
   <g id="matplotlib.axis_1">
    <g id="xtick_1">
     <g id="line2d_1">
      <defs>
       <path id="m9f3dd7d3e1" d="M 0 0 
L 0 3.5 
" style="stroke: #7f7f7f; stroke-width: 1.8"/>
      </defs>
      <g>
       <use xlink:href="#m9f3dd7d3e1" x="53.153906" y="241.599141" style="fill: #7f7f7f; stroke: #7f7f7f; stroke-width: 1.8"/>
      </g>
     </g>
     <g id="text_1">
      <!-- 0.00000 -->
      <g style="fill: #7f7f7f" transform="translate(32.477344 256.196797) scale(0.1 -0.1)">
       <defs>
        <path id="DejaVuSans-13" d="M 2034 4250 
Q 1547 4250 1301 3770 
Q 1056 3291 1056 2328 
Q 1056 1369 1301 889 
Q 1547 409 2034 409 
Q 2525 409 2770 889 
Q 3016 1369 3016 2328 
Q 3016 3291 2770 3770 
Q 2525 4250 2034 4250 
z
M 2034 4750 
Q 2819 4750 3233 4129 
Q 3647 3509 3647 2328 
Q 3647 1150 3233 529 
Q 2819 -91 2034 -91 
Q 1250 -91 836 529 
Q 422 1150 422 2328 
Q 422 3509 836 4129 
Q 1250 4750 2034 4750 
z
" transform="scale(0.015625)"/>
        <path id="DejaVuSans-11" d="M 684 794 
L 1344 794 
L 1344 0 
L 684 0 
L 684 794 
z
" transform="scale(0.015625)"/>
       </defs>
       <use xlink:href="#DejaVuSans-13"/>
       <use xlink:href="#DejaVuSans-11" transform="translate(63.625 0)"/>
       <use xlink:href="#DejaVuSans-13" transform="translate(95.40625 0)"/>
       <use xlink:href="#DejaVuSans-13" transform="translate(159.03125 0)"/>
       <use xlink:href="#DejaVuSans-13" transform="translate(222.65625 0)"/>
       <use xlink:href="#DejaVuSans-13" transform="translate(286.28125 0)"/>
       <use xlink:href="#DejaVuSans-13" transform="translate(349.90625 0)"/>
      </g>
     </g>
    </g>
    <g id="xtick_2">
     <g id="line2d_2">
      <g>
       <use xlink:href="#m9f3dd7d3e1" x="149.981416" y="241.599141" style="fill: #7f7f7f; stroke: #7f7f7f; stroke-width: 1.8"/>
      </g>
     </g>
     <g id="text_2">
      <!-- 0.00002 -->
      <g style="fill: #7f7f7f" transform="translate(129.304853 256.196797) scale(0.1 -0.1)">
       <defs>
        <path id="DejaVuSans-15" d="M 1228 531 
L 3431 531 
L 3431 0 
L 469 0 
L 469 531 
Q 828 903 1448 1529 
Q 2069 2156 2228 2338 
Q 2531 2678 2651 2914 
Q 2772 3150 2772 3378 
Q 2772 3750 2511 3984 
Q 2250 4219 1831 4219 
Q 1534 4219 1204 4116 
Q 875 4013 500 3803 
L 500 4441 
Q 881 4594 1212 4672 
Q 1544 4750 1819 4750 
Q 2544 4750 2975 4387 
Q 3406 4025 3406 3419 
Q 3406 3131 3298 2873 
Q 3191 2616 2906 2266 
Q 2828 2175 2409 1742 
Q 1991 1309 1228 531 
z
" transform="scale(0.015625)"/>
       </defs>
       <use xlink:href="#DejaVuSans-13"/>
       <use xlink:href="#DejaVuSans-11" transform="translate(63.625 0)"/>
       <use xlink:href="#DejaVuSans-13" transform="translate(95.40625 0)"/>
       <use xlink:href="#DejaVuSans-13" transform="translate(159.03125 0)"/>
       <use xlink:href="#DejaVuSans-13" transform="translate(222.65625 0)"/>
       <use xlink:href="#DejaVuSans-13" transform="translate(286.28125 0)"/>
       <use xlink:href="#DejaVuSans-15" transform="translate(349.90625 0)"/>
      </g>
     </g>
    </g>
    <g id="xtick_3">
     <g id="line2d_3">
      <g>
       <use xlink:href="#m9f3dd7d3e1" x="246.808925" y="241.599141" style="fill: #7f7f7f; stroke: #7f7f7f; stroke-width: 1.8"/>
      </g>
     </g>
     <g id="text_3">
      <!-- 0.00004 -->
      <g style="fill: #7f7f7f" transform="translate(226.132363 256.196797) scale(0.1 -0.1)">
       <defs>
        <path id="DejaVuSans-17" d="M 2419 4116 
L 825 1625 
L 2419 1625 
L 2419 4116 
z
M 2253 4666 
L 3047 4666 
L 3047 1625 
L 3713 1625 
L 3713 1100 
L 3047 1100 
L 3047 0 
L 2419 0 
L 2419 1100 
L 313 1100 
L 313 1709 
L 2253 4666 
z
" transform="scale(0.015625)"/>
       </defs>
       <use xlink:href="#DejaVuSans-13"/>
       <use xlink:href="#DejaVuSans-11" transform="translate(63.625 0)"/>
       <use xlink:href="#DejaVuSans-13" transform="translate(95.40625 0)"/>
       <use xlink:href="#DejaVuSans-13" transform="translate(159.03125 0)"/>
       <use xlink:href="#DejaVuSans-13" transform="translate(222.65625 0)"/>
       <use xlink:href="#DejaVuSans-13" transform="translate(286.28125 0)"/>
       <use xlink:href="#DejaVuSans-17" transform="translate(349.90625 0)"/>
      </g>
     </g>
    </g>
    <g id="xtick_4">
     <g id="line2d_4">
      <g>
       <use xlink:href="#m9f3dd7d3e1" x="343.636435" y="241.599141" style="fill: #7f7f7f; stroke: #7f7f7f; stroke-width: 1.8"/>
      </g>
     </g>
     <g id="text_4">
      <!-- 0.00006 -->
      <g style="fill: #7f7f7f" transform="translate(322.959872 256.196797) scale(0.1 -0.1)">
       <defs>
        <path id="DejaVuSans-19" d="M 2113 2584 
Q 1688 2584 1439 2293 
Q 1191 2003 1191 1497 
Q 1191 994 1439 701 
Q 1688 409 2113 409 
Q 2538 409 2786 701 
Q 3034 994 3034 1497 
Q 3034 2003 2786 2293 
Q 2538 2584 2113 2584 
z
M 3366 4563 
L 3366 3988 
Q 3128 4100 2886 4159 
Q 2644 4219 2406 4219 
Q 1781 4219 1451 3797 
Q 1122 3375 1075 2522 
Q 1259 2794 1537 2939 
Q 1816 3084 2150 3084 
Q 2853 3084 3261 2657 
Q 3669 2231 3669 1497 
Q 3669 778 3244 343 
Q 2819 -91 2113 -91 
Q 1303 -91 875 529 
Q 447 1150 447 2328 
Q 447 3434 972 4092 
Q 1497 4750 2381 4750 
Q 2619 4750 2861 4703 
Q 3103 4656 3366 4563 
z
" transform="scale(0.015625)"/>
       </defs>
       <use xlink:href="#DejaVuSans-13"/>
       <use xlink:href="#DejaVuSans-11" transform="translate(63.625 0)"/>
       <use xlink:href="#DejaVuSans-13" transform="translate(95.40625 0)"/>
       <use xlink:href="#DejaVuSans-13" transform="translate(159.03125 0)"/>
       <use xlink:href="#DejaVuSans-13" transform="translate(222.65625 0)"/>
       <use xlink:href="#DejaVuSans-13" transform="translate(286.28125 0)"/>
       <use xlink:href="#DejaVuSans-19" transform="translate(349.90625 0)"/>
      </g>
     </g>
    </g>
    <g id="xtick_5">
     <g id="line2d_5">
      <g>
       <use xlink:href="#m9f3dd7d3e1" x="440.463944" y="241.599141" style="fill: #7f7f7f; stroke: #7f7f7f; stroke-width: 1.8"/>
      </g>
     </g>
     <g id="text_5">
      <!-- 0.00008 -->
      <g style="fill: #7f7f7f" transform="translate(419.787382 256.196797) scale(0.1 -0.1)">
       <defs>
        <path id="DejaVuSans-1b" d="M 2034 2216 
Q 1584 2216 1326 1975 
Q 1069 1734 1069 1313 
Q 1069 891 1326 650 
Q 1584 409 2034 409 
Q 2484 409 2743 651 
Q 3003 894 3003 1313 
Q 3003 1734 2745 1975 
Q 2488 2216 2034 2216 
z
M 1403 2484 
Q 997 2584 770 2862 
Q 544 3141 544 3541 
Q 544 4100 942 4425 
Q 1341 4750 2034 4750 
Q 2731 4750 3128 4425 
Q 3525 4100 3525 3541 
Q 3525 3141 3298 2862 
Q 3072 2584 2669 2484 
Q 3125 2378 3379 2068 
Q 3634 1759 3634 1313 
Q 3634 634 3220 271 
Q 2806 -91 2034 -91 
Q 1263 -91 848 271 
Q 434 634 434 1313 
Q 434 1759 690 2068 
Q 947 2378 1403 2484 
z
M 1172 3481 
Q 1172 3119 1398 2916 
Q 1625 2713 2034 2713 
Q 2441 2713 2670 2916 
Q 2900 3119 2900 3481 
Q 2900 3844 2670 4047 
Q 2441 4250 2034 4250 
Q 1625 4250 1398 4047 
Q 1172 3844 1172 3481 
z
" transform="scale(0.015625)"/>
       </defs>
       <use xlink:href="#DejaVuSans-13"/>
       <use xlink:href="#DejaVuSans-11" transform="translate(63.625 0)"/>
       <use xlink:href="#DejaVuSans-13" transform="translate(95.40625 0)"/>
       <use xlink:href="#DejaVuSans-13" transform="translate(159.03125 0)"/>
       <use xlink:href="#DejaVuSans-13" transform="translate(222.65625 0)"/>
       <use xlink:href="#DejaVuSans-13" transform="translate(286.28125 0)"/>
       <use xlink:href="#DejaVuSans-1b" transform="translate(349.90625 0)"/>
      </g>
     </g>
    </g>
    <g id="xtick_6">
     <g id="line2d_6">
      <g>
       <use xlink:href="#m9f3dd7d3e1" x="537.291454" y="241.599141" style="fill: #7f7f7f; stroke: #7f7f7f; stroke-width: 1.8"/>
      </g>
     </g>
     <g id="text_6">
      <!-- 0.00010 -->
      <g style="fill: #7f7f7f" transform="translate(516.614891 256.196797) scale(0.1 -0.1)">
       <defs>
        <path id="DejaVuSans-14" d="M 794 531 
L 1825 531 
L 1825 4091 
L 703 3866 
L 703 4441 
L 1819 4666 
L 2450 4666 
L 2450 531 
L 3481 531 
L 3481 0 
L 794 0 
L 794 531 
z
" transform="scale(0.015625)"/>
       </defs>
       <use xlink:href="#DejaVuSans-13"/>
       <use xlink:href="#DejaVuSans-11" transform="translate(63.625 0)"/>
       <use xlink:href="#DejaVuSans-13" transform="translate(95.40625 0)"/>
       <use xlink:href="#DejaVuSans-13" transform="translate(159.03125 0)"/>
       <use xlink:href="#DejaVuSans-13" transform="translate(222.65625 0)"/>
       <use xlink:href="#DejaVuSans-14" transform="translate(286.28125 0)"/>
       <use xlink:href="#DejaVuSans-13" transform="translate(349.90625 0)"/>
      </g>
     </g>
    </g>
    <g id="text_7">
     <!-- time [s] -->
     <g style="fill: #7f7f7f" transform="translate(273.940547 270.957422) scale(0.11 -0.11)">
      <defs>
       <path id="DejaVuSans-57" d="M 1172 4494 
L 1172 3500 
L 2356 3500 
L 2356 3053 
L 1172 3053 
L 1172 1153 
Q 1172 725 1289 603 
Q 1406 481 1766 481 
L 2356 481 
L 2356 0 
L 1766 0 
Q 1100 0 847 248 
Q 594 497 594 1153 
L 594 3053 
L 172 3053 
L 172 3500 
L 594 3500 
L 594 4494 
L 1172 4494 
z
" transform="scale(0.015625)"/>
       <path id="DejaVuSans-4c" d="M 603 3500 
L 1178 3500 
L 1178 0 
L 603 0 
L 603 3500 
z
M 603 4863 
L 1178 4863 
L 1178 4134 
L 603 4134 
L 603 4863 
z
" transform="scale(0.015625)"/>
       <path id="DejaVuSans-50" d="M 3328 2828 
Q 3544 3216 3844 3400 
Q 4144 3584 4550 3584 
Q 5097 3584 5394 3201 
Q 5691 2819 5691 2113 
L 5691 0 
L 5113 0 
L 5113 2094 
Q 5113 2597 4934 2840 
Q 4756 3084 4391 3084 
Q 3944 3084 3684 2787 
Q 3425 2491 3425 1978 
L 3425 0 
L 2847 0 
L 2847 2094 
Q 2847 2600 2669 2842 
Q 2491 3084 2119 3084 
Q 1678 3084 1418 2786 
Q 1159 2488 1159 1978 
L 1159 0 
L 581 0 
L 581 3500 
L 1159 3500 
L 1159 2956 
Q 1356 3278 1631 3431 
Q 1906 3584 2284 3584 
Q 2666 3584 2933 3390 
Q 3200 3197 3328 2828 
z
" transform="scale(0.015625)"/>
       <path id="DejaVuSans-48" d="M 3597 1894 
L 3597 1613 
L 953 1613 
Q 991 1019 1311 708 
Q 1631 397 2203 397 
Q 2534 397 2845 478 
Q 3156 559 3463 722 
L 3463 178 
Q 3153 47 2828 -22 
Q 2503 -91 2169 -91 
Q 1331 -91 842 396 
Q 353 884 353 1716 
Q 353 2575 817 3079 
Q 1281 3584 2069 3584 
Q 2775 3584 3186 3129 
Q 3597 2675 3597 1894 
z
M 3022 2063 
Q 3016 2534 2758 2815 
Q 2500 3097 2075 3097 
Q 1594 3097 1305 2825 
Q 1016 2553 972 2059 
L 3022 2063 
z
" transform="scale(0.015625)"/>
       <path id="DejaVuSans-3" transform="scale(0.015625)"/>
       <path id="DejaVuSans-3e" d="M 550 4863 
L 1875 4863 
L 1875 4416 
L 1125 4416 
L 1125 -397 
L 1875 -397 
L 1875 -844 
L 550 -844 
L 550 4863 
z
" transform="scale(0.015625)"/>
       <path id="DejaVuSans-56" d="M 2834 3397 
L 2834 2853 
Q 2591 2978 2328 3040 
Q 2066 3103 1784 3103 
Q 1356 3103 1142 2972 
Q 928 2841 928 2578 
Q 928 2378 1081 2264 
Q 1234 2150 1697 2047 
L 1894 2003 
Q 2506 1872 2764 1633 
Q 3022 1394 3022 966 
Q 3022 478 2636 193 
Q 2250 -91 1575 -91 
Q 1294 -91 989 -36 
Q 684 19 347 128 
L 347 722 
Q 666 556 975 473 
Q 1284 391 1588 391 
Q 1994 391 2212 530 
Q 2431 669 2431 922 
Q 2431 1156 2273 1281 
Q 2116 1406 1581 1522 
L 1381 1569 
Q 847 1681 609 1914 
Q 372 2147 372 2553 
Q 372 3047 722 3315 
Q 1072 3584 1716 3584 
Q 2034 3584 2315 3537 
Q 2597 3491 2834 3397 
z
" transform="scale(0.015625)"/>
       <path id="DejaVuSans-40" d="M 1947 4863 
L 1947 -844 
L 622 -844 
L 622 -397 
L 1369 -397 
L 1369 4416 
L 622 4416 
L 622 4863 
L 1947 4863 
z
" transform="scale(0.015625)"/>
      </defs>
      <use xlink:href="#DejaVuSans-57"/>
      <use xlink:href="#DejaVuSans-4c" transform="translate(39.203125 0)"/>
      <use xlink:href="#DejaVuSans-50" transform="translate(66.984375 0)"/>
      <use xlink:href="#DejaVuSans-48" transform="translate(164.390625 0)"/>
      <use xlink:href="#DejaVuSans-3" transform="translate(225.921875 0)"/>
      <use xlink:href="#DejaVuSans-3e" transform="translate(257.703125 0)"/>
      <use xlink:href="#DejaVuSans-56" transform="translate(296.71875 0)"/>
      <use xlink:href="#DejaVuSans-40" transform="translate(348.8125 0)"/>
     </g>
    </g>
   </g>
   <g id="matplotlib.axis_2">
    <g id="ytick_1">
     <g id="line2d_7">
      <defs>
       <path id="md5d36e0611" d="M 0 0 
L -3.5 0 
" style="stroke: #7f7f7f; stroke-width: 1.8"/>
      </defs>
      <g>
       <use xlink:href="#md5d36e0611" x="28.942188" y="228.893611" style="fill: #7f7f7f; stroke: #7f7f7f; stroke-width: 1.8"/>
      </g>
     </g>
     <g id="text_8">
      <!-- −8 -->
      <g style="fill: #7f7f7f" transform="translate(7.2 232.692439) scale(0.1 -0.1)">
       <defs>
        <path id="DejaVuSans-c9c" d="M 678 2272 
L 4684 2272 
L 4684 1741 
L 678 1741 
L 678 2272 
z
" transform="scale(0.015625)"/>
       </defs>
       <use xlink:href="#DejaVuSans-c9c"/>
       <use xlink:href="#DejaVuSans-1b" transform="translate(83.796875 0)"/>
      </g>
     </g>
    </g>
    <g id="ytick_2">
     <g id="line2d_8">
      <g>
       <use xlink:href="#md5d36e0611" x="28.942188" y="201.86602" style="fill: #7f7f7f; stroke: #7f7f7f; stroke-width: 1.8"/>
      </g>
     </g>
     <g id="text_9">
      <!-- −6 -->
      <g style="fill: #7f7f7f" transform="translate(7.2 205.664848) scale(0.1 -0.1)">
       <use xlink:href="#DejaVuSans-c9c"/>
       <use xlink:href="#DejaVuSans-19" transform="translate(83.796875 0)"/>
      </g>
     </g>
    </g>
    <g id="ytick_3">
     <g id="line2d_9">
      <g>
       <use xlink:href="#md5d36e0611" x="28.942188" y="174.838429" style="fill: #7f7f7f; stroke: #7f7f7f; stroke-width: 1.8"/>
      </g>
     </g>
     <g id="text_10">
      <!-- −4 -->
      <g style="fill: #7f7f7f" transform="translate(7.2 178.637257) scale(0.1 -0.1)">
       <use xlink:href="#DejaVuSans-c9c"/>
       <use xlink:href="#DejaVuSans-17" transform="translate(83.796875 0)"/>
      </g>
     </g>
    </g>
    <g id="ytick_4">
     <g id="line2d_10">
      <g>
       <use xlink:href="#md5d36e0611" x="28.942188" y="147.810838" style="fill: #7f7f7f; stroke: #7f7f7f; stroke-width: 1.8"/>
      </g>
     </g>
     <g id="text_11">
      <!-- −2 -->
      <g style="fill: #7f7f7f" transform="translate(7.2 151.609667) scale(0.1 -0.1)">
       <use xlink:href="#DejaVuSans-c9c"/>
       <use xlink:href="#DejaVuSans-15" transform="translate(83.796875 0)"/>
      </g>
     </g>
    </g>
    <g id="ytick_5">
     <g id="line2d_11">
      <g>
       <use xlink:href="#md5d36e0611" x="28.942188" y="120.783248" style="fill: #7f7f7f; stroke: #7f7f7f; stroke-width: 1.8"/>
      </g>
     </g>
     <g id="text_12">
      <!-- 0 -->
      <g style="fill: #7f7f7f" transform="translate(15.579688 124.582076) scale(0.1 -0.1)">
       <use xlink:href="#DejaVuSans-13"/>
      </g>
     </g>
    </g>
    <g id="ytick_6">
     <g id="line2d_12">
      <g>
       <use xlink:href="#md5d36e0611" x="28.942188" y="93.755657" style="fill: #7f7f7f; stroke: #7f7f7f; stroke-width: 1.8"/>
      </g>
     </g>
     <g id="text_13">
      <!-- 2 -->
      <g style="fill: #7f7f7f" transform="translate(15.579688 97.554485) scale(0.1 -0.1)">
       <use xlink:href="#DejaVuSans-15"/>
      </g>
     </g>
    </g>
    <g id="ytick_7">
     <g id="line2d_13">
      <g>
       <use xlink:href="#md5d36e0611" x="28.942188" y="66.728066" style="fill: #7f7f7f; stroke: #7f7f7f; stroke-width: 1.8"/>
      </g>
     </g>
     <g id="text_14">
      <!-- 4 -->
      <g style="fill: #7f7f7f" transform="translate(15.579688 70.526894) scale(0.1 -0.1)">
       <use xlink:href="#DejaVuSans-17"/>
      </g>
     </g>
    </g>
    <g id="ytick_8">
     <g id="line2d_14">
      <g>
       <use xlink:href="#md5d36e0611" x="28.942188" y="39.700476" style="fill: #7f7f7f; stroke: #7f7f7f; stroke-width: 1.8"/>
      </g>
     </g>
     <g id="text_15">
      <!-- 6 -->
      <g style="fill: #7f7f7f" transform="translate(15.579688 43.499304) scale(0.1 -0.1)">
       <use xlink:href="#DejaVuSans-19"/>
      </g>
     </g>
    </g>
    <g id="ytick_9">
     <g id="line2d_15">
      <g>
       <use xlink:href="#md5d36e0611" x="28.942188" y="12.672885" style="fill: #7f7f7f; stroke: #7f7f7f; stroke-width: 1.8"/>
      </g>
     </g>
     <g id="text_16">
      <!-- 8 -->
      <g style="fill: #7f7f7f" transform="translate(15.579688 16.471713) scale(0.1 -0.1)">
       <use xlink:href="#DejaVuSans-1b"/>
      </g>
     </g>
    </g>
   </g>
   <g id="line2d_16">
    <path d="M 53.153906 120.783248 
L 57.656385 108.347423 
L 59.544522 107.321702 
L 61.142176 108.941019 
L 63.611277 115.183461 
L 70.437617 133.952804 
L 72.035271 134.057677 
L 73.778166 131.61546 
L 76.682991 123.148473 
L 82.056918 108.09739 
L 83.945054 107.398355 
L 85.542708 109.283082 
L 88.157051 116.285592 
L 94.402425 133.736515 
L 96.14532 134.11712 
L 97.742974 132.10143 
L 100.502558 124.471864 
L 106.312209 108.039867 
L 108.200345 107.42281 
L 109.797999 109.373173 
L 112.412342 116.446081 
L 118.512475 133.635631 
L 120.25537 134.168141 
L 121.853024 132.283413 
L 124.467367 125.280903 
L 130.712741 107.82998 
L 132.455637 107.449376 
L 134.05329 109.465065 
L 136.812874 117.094631 
L 142.622525 133.526629 
L 144.510661 134.143685 
L 146.108315 132.193322 
L 148.722658 125.120414 
L 154.822791 107.930865 
L 156.565686 107.398355 
L 158.16334 109.283082 
L 160.777683 116.285592 
L 167.023057 133.736515 
L 168.765953 134.11712 
L 170.363606 132.10143 
L 173.123191 124.471864 
L 178.932841 108.039867 
L 180.820978 107.42281 
L 182.418631 109.373173 
L 185.032974 116.446081 
L 191.133107 133.635631 
L 192.876002 134.168141 
L 194.473656 132.283413 
L 197.087999 125.280903 
L 203.333373 107.82998 
L 205.076269 107.449376 
L 206.673923 109.465065 
L 209.433507 117.094631 
L 215.243157 133.526629 
L 217.131294 134.143685 
L 218.728947 132.193322 
L 221.34329 125.120414 
L 227.443423 107.930865 
L 229.186319 107.398355 
L 230.783972 109.283082 
L 233.398315 116.285592 
L 239.64369 133.736515 
L 241.386585 134.11712 
L 242.984239 132.10143 
L 245.743823 124.471864 
L 251.553473 108.039867 
L 253.44161 107.42281 
L 255.039264 109.373173 
L 257.653606 116.446081 
L 263.753739 133.635631 
L 265.496635 134.168141 
L 267.094288 132.283413 
L 269.708631 125.280903 
L 275.954006 107.82998 
L 277.696901 107.449376 
L 279.294555 109.465065 
L 282.054139 117.094631 
L 287.863789 133.526629 
L 289.751926 134.143685 
L 291.34958 132.193322 
L 293.963922 125.120414 
L 300.064055 107.930865 
L 301.806951 107.398355 
L 303.404605 109.283082 
L 306.018947 116.285592 
L 312.264322 133.736515 
L 314.007217 134.11712 
L 315.604871 132.10143 
L 318.364455 124.471864 
L 324.174105 108.039867 
L 326.062242 107.42281 
L 327.659896 109.373173 
L 330.274238 116.446081 
L 336.374372 133.635631 
L 338.117267 134.168141 
L 339.714921 132.283413 
L 342.329263 125.280903 
L 348.574638 107.82998 
L 350.317533 107.449376 
L 351.915187 109.465065 
L 354.674771 117.094631 
L 360.484421 133.526629 
L 362.372558 134.143685 
L 363.970212 132.193322 
L 366.584554 125.120414 
L 372.684688 107.930865 
L 374.427583 107.398355 
L 376.025237 109.283082 
L 378.639579 116.285592 
L 384.884954 133.736515 
L 386.627849 134.11712 
L 388.225503 132.10143 
L 390.985087 124.471864 
L 396.794737 108.039867 
L 398.682874 107.42281 
L 400.280528 109.373173 
L 402.894871 116.446081 
L 408.995004 133.635631 
L 410.737899 134.168141 
L 412.335553 132.283413 
L 414.949895 125.280903 
L 421.19527 107.82998 
L 422.938165 107.449376 
L 424.535819 109.465065 
L 427.295403 117.094631 
L 433.105054 133.526629 
L 434.99319 134.143685 
L 436.590844 132.193322 
L 439.205187 125.120414 
L 445.30532 107.930865 
L 447.048215 107.398355 
L 448.645869 109.283082 
L 451.260212 116.285592 
L 457.505586 133.736515 
L 459.248481 134.11712 
L 460.846135 132.10143 
L 463.605719 124.471864 
L 469.41537 108.039867 
L 471.303506 107.42281 
L 472.90116 109.373173 
L 475.515503 116.446081 
L 481.615636 133.635631 
L 483.358531 134.168141 
L 484.956185 132.283413 
L 487.570528 125.280903 
L 493.815902 107.82998 
L 495.558797 107.449376 
L 497.156451 109.465065 
L 499.916035 117.094631 
L 505.725686 133.526629 
L 507.613822 134.143685 
L 509.211476 132.193322 
L 511.825819 125.120414 
L 517.925952 107.930865 
L 519.668847 107.398355 
L 521.266501 109.283082 
L 523.880844 116.285592 
L 530.126218 133.736515 
L 531.869113 134.11712 
L 533.466767 132.10143 
L 536.226351 124.471864 
L 537.388281 120.443645 
L 537.388281 120.443645 
" clip-path="url(#p3b76ff136c)" style="fill: none; stroke: #e41a1c; stroke-width: 2; stroke-linecap: square"/>
   </g>
   <g id="line2d_17">
    <path d="M 53.153906 120.783248 
L 53.734871 122.076846 
L 53.880113 121.403289 
L 55.768249 79.624935 
L 58.382592 30.009945 
L 59.835004 18.841482 
L 60.125487 19.624558 
L 63.611277 48.58197 
L 64.918449 81.961436 
L 68.839963 196.130011 
L 71.744788 230.287462 
L 72.325753 230.098008 
L 73.342442 230.824497 
L 73.487683 230.692116 
L 74.359131 226.393082 
L 76.828232 191.169011 
L 83.50933 31.422007 
L 85.106984 22.302863 
L 85.542708 23.647002 
L 86.559397 35.928457 
L 88.157051 69.386634 
L 90.626152 134.538986 
L 94.692908 222.117203 
L 95.419114 223.155275 
L 96.871527 230.944634 
L 97.888216 229.378796 
L 99.050146 220.397546 
L 101.664489 161.143524 
L 106.021726 37.896977 
L 107.764622 24.915567 
L 108.490828 22.695721 
L 108.78131 24.310627 
L 109.797999 27.081827 
L 110.088482 26.819523 
L 110.669447 25.696768 
L 110.814688 26.216269 
L 112.412342 47.231276 
L 118.512475 213.173035 
L 120.25537 225.817104 
L 121.853024 226.793908 
L 121.998266 226.36913 
L 124.031643 204.245443 
L 125.774538 164.914345 
L 130.712741 38.331893 
L 133.181843 22.695265 
L 133.908049 20.30484 
L 134.198532 21.54102 
L 135.069979 30.720397 
L 137.974805 90.986814 
L 141.896319 209.518526 
L 143.639214 222.060292 
L 143.929696 222.943304 
L 144.510661 221.327136 
L 144.946385 220.414751 
L 145.236868 221.205501 
L 145.963074 223.311487 
L 146.108315 222.53966 
L 149.013141 181.026941 
L 156.420445 17.854506 
L 157.00141 19.352416 
L 158.308582 25.469409 
L 158.744305 24.702681 
L 159.034788 25.699062 
L 159.906235 39.114922 
L 161.939613 86.314902 
L 166.442092 208.962472 
L 168.765953 224.014781 
L 168.911194 223.979504 
L 169.6374 224.708231 
L 170.218365 224.000775 
L 170.79933 221.671189 
L 171.96126 207.175132 
L 174.720844 149.881289 
L 179.94953 20.570026 
L 180.530495 20.307879 
L 180.820978 20.822499 
L 181.401943 22.750409 
L 185.613939 75.168892 
L 191.859314 211.698521 
L 193.456968 224.133534 
L 193.892691 223.285192 
L 197.378482 188.99252 
L 198.249929 171.542417 
L 203.478615 31.864378 
L 204.785786 27.347926 
L 205.657234 25.865092 
L 205.802475 26.318246 
L 208.416818 53.559233 
L 215.388398 218.824056 
L 216.840811 228.946378 
L 219.600395 216.547794 
L 223.376668 135.716675 
L 227.733906 29.260052 
L 228.16963 28.749312 
L 228.460112 29.540735 
L 229.041077 30.887962 
L 229.33156 29.95186 
L 230.638731 24.687593 
L 230.929214 26.499349 
L 231.219696 27.973105 
L 231.800661 26.497791 
L 232.091144 26.10369 
L 232.381626 27.483826 
L 233.834039 55.394219 
L 240.515137 220.664066 
L 240.950861 219.962483 
L 241.386585 218.31987 
L 242.112791 218.981486 
L 244.000927 215.473988 
L 245.889064 193.914076 
L 253.005886 22.375801 
L 254.313057 18.053222 
L 254.458298 18.502169 
L 257.944089 61.936224 
L 259.686984 118.139616 
L 262.156086 183.168704 
L 265.641876 223.44996 
L 266.803806 225.096529 
L 267.094288 224.002511 
L 269.418149 201.961752 
L 270.72532 168.534439 
L 274.792075 52.886825 
L 276.680212 28.884973 
L 278.71359 22.416598 
L 279.149313 24.694308 
L 280.746967 42.523194 
L 282.925586 91.315457 
L 287.428065 205.674447 
L 290.18765 225.872516 
L 291.34958 225.566249 
L 291.494821 225.877878 
L 291.640062 225.593771 
L 295.416335 167.390624 
L 300.645021 32.793314 
L 302.533157 20.791327 
L 302.968881 21.673816 
L 304.130811 26.507501 
L 305.292741 39.356864 
L 307.47136 91.488079 
L 310.666668 195.454446 
L 314.152458 229.861859 
L 314.588182 229.803467 
L 316.185836 224.89649 
L 317.928731 200.007759 
L 321.705004 89.212383 
L 324.75507 29.878011 
L 326.207483 23.24354 
L 326.352724 23.261776 
L 327.659896 21.457793 
L 328.240861 22.591599 
L 329.548032 33.367948 
L 331.145686 77.627745 
L 335.793406 202.73755 
L 337.972025 223.267455 
L 338.262508 221.922664 
L 341.748298 199.540375 
L 343.05547 178.736953 
L 350.172292 21.921428 
L 350.753257 20.510418 
L 351.043739 21.654242 
L 354.384288 45.391236 
L 356.562907 115.674775 
L 359.612974 200.499212 
L 361.355869 216.740333 
L 362.517799 224.479287 
L 363.534488 224.09877 
L 363.82497 224.468229 
L 363.970212 223.645268 
L 367.020278 188.118925 
L 369.344139 113.915328 
L 371.81324 39.6724 
L 373.846618 25.300124 
L 375.444272 18.003503 
L 375.879995 19.804776 
L 377.187167 29.322307 
L 379.656268 79.132859 
L 381.689646 142.992486 
L 384.739713 207.214993 
L 386.627849 221.573082 
L 387.499297 223.489058 
L 387.93502 222.675898 
L 389.09695 220.934883 
L 389.968398 213.650487 
L 393.889912 102.79289 
L 396.794737 36.148755 
L 398.682874 21.069458 
L 399.554321 19.602044 
L 400.135287 19.23858 
L 400.425769 20.118038 
L 401.151975 24.398927 
L 404.056801 96.753807 
L 406.816385 178.184555 
L 409.140245 217.743651 
L 411.173623 227.985368 
L 412.04507 227.351276 
L 412.771277 225.147328 
L 415.676102 189.932039 
L 419.307133 77.558141 
L 421.921476 40.822923 
L 422.792924 31.750821 
L 423.373889 27.40924 
L 423.954854 29.273182 
L 425.552508 36.834584 
L 426.714438 55.923465 
L 433.105054 217.567288 
L 434.847949 225.911556 
L 434.99319 225.671431 
L 436.736085 220.895789 
L 436.881326 221.130928 
L 437.31705 222.218816 
L 437.607533 220.593273 
L 439.350428 193.99098 
L 442.545736 92.569469 
L 445.160078 41.335387 
L 447.048215 24.186784 
L 447.62918 23.624512 
L 447.919662 24.666779 
L 449.081593 29.647474 
L 450.824488 51.846783 
L 458.086551 218.304457 
L 459.974687 227.614126 
L 460.119929 226.908269 
L 462.443789 212.535636 
L 462.58903 212.682427 
L 463.024754 211.053742 
L 464.622408 179.30839 
L 469.270128 36.312085 
L 470.867782 24.559953 
L 471.593989 23.051138 
L 471.884471 24.415706 
L 472.610677 26.765654 
L 472.90116 25.48815 
L 473.046401 25.255896 
L 473.336884 25.76567 
L 474.353573 38.915183 
L 476.38695 78.669972 
L 481.906118 220.2439 
L 483.503772 228.732576 
L 483.649013 228.670511 
L 484.37522 226.6323 
L 485.101426 227.590801 
L 485.53715 226.228867 
L 488.151493 192.734784 
L 489.458664 148.473073 
L 492.799213 46.024191 
L 494.542108 24.301912 
L 494.68735 23.899551 
L 495.123073 25.484018 
L 495.413556 25.89345 
L 496.139762 25.467954 
L 496.865969 24.722055 
L 497.156451 25.691599 
L 497.882657 28.919422 
L 498.899346 42.665148 
L 502.82086 145.176449 
L 505.289962 211.774884 
L 506.306651 214.19999 
L 508.049546 220.751308 
L 509.6472 223.492439 
L 508.48527 220.264214 
L 509.937682 221.92627 
L 510.954371 207.704145 
L 514.149679 132.0194 
L 517.344987 44.890662 
L 520.395053 18.437414 
L 521.266501 21.520316 
L 525.914221 101.399418 
L 530.126218 214.392664 
L 530.852424 219.470407 
L 531.433389 217.650574 
L 531.723872 216.983413 
L 532.014354 218.112457 
L 532.740561 220.408163 
L 533.031043 219.425924 
L 536.952557 187.265077 
L 537.388281 172.933041 
L 537.388281 172.933041 
" clip-path="url(#p3b76ff136c)" style="fill: none; stroke: #377eb8; stroke-width: 2; stroke-linecap: square"/>
   </g>
   <g id="patch_3">
    <path d="M 28.942188 241.599141 
L 28.942188 7.2 
" style="fill: none; stroke: #7f7f7f; stroke-width: 1.8; stroke-linejoin: miter; stroke-linecap: square"/>
   </g>
   <g id="patch_4">
    <path d="M 28.942188 241.599141 
L 561.6 241.599141 
" style="fill: none; stroke: #7f7f7f; stroke-width: 1.8; stroke-linejoin: miter; stroke-linecap: square"/>
   </g>
   <g id="legend_1">
    <g id="line2d_18">
     <path d="M 503.101562 20.298438 
L 513.101562 20.298438 
L 523.101562 20.298438 
" style="fill: none; stroke: #e41a1c; stroke-width: 2; stroke-linecap: square"/>
    </g>
    <g id="text_17">
     <!-- Src -->
     <g style="fill: #7f7f7f" transform="translate(531.101562 23.798438) scale(0.1 -0.1)">
      <defs>
       <path id="DejaVuSans-36" d="M 3425 4513 
L 3425 3897 
Q 3066 4069 2747 4153 
Q 2428 4238 2131 4238 
Q 1616 4238 1336 4038 
Q 1056 3838 1056 3469 
Q 1056 3159 1242 3001 
Q 1428 2844 1947 2747 
L 2328 2669 
Q 3034 2534 3370 2195 
Q 3706 1856 3706 1288 
Q 3706 609 3251 259 
Q 2797 -91 1919 -91 
Q 1588 -91 1214 -16 
Q 841 59 441 206 
L 441 856 
Q 825 641 1194 531 
Q 1563 422 1919 422 
Q 2459 422 2753 634 
Q 3047 847 3047 1241 
Q 3047 1584 2836 1778 
Q 2625 1972 2144 2069 
L 1759 2144 
Q 1053 2284 737 2584 
Q 422 2884 422 3419 
Q 422 4038 858 4394 
Q 1294 4750 2059 4750 
Q 2388 4750 2728 4690 
Q 3069 4631 3425 4513 
z
" transform="scale(0.015625)"/>
       <path id="DejaVuSans-55" d="M 2631 2963 
Q 2534 3019 2420 3045 
Q 2306 3072 2169 3072 
Q 1681 3072 1420 2755 
Q 1159 2438 1159 1844 
L 1159 0 
L 581 0 
L 581 3500 
L 1159 3500 
L 1159 2956 
Q 1341 3275 1631 3429 
Q 1922 3584 2338 3584 
Q 2397 3584 2469 3576 
Q 2541 3569 2628 3553 
L 2631 2963 
z
" transform="scale(0.015625)"/>
       <path id="DejaVuSans-46" d="M 3122 3366 
L 3122 2828 
Q 2878 2963 2633 3030 
Q 2388 3097 2138 3097 
Q 1578 3097 1268 2742 
Q 959 2388 959 1747 
Q 959 1106 1268 751 
Q 1578 397 2138 397 
Q 2388 397 2633 464 
Q 2878 531 3122 666 
L 3122 134 
Q 2881 22 2623 -34 
Q 2366 -91 2075 -91 
Q 1284 -91 818 406 
Q 353 903 353 1747 
Q 353 2603 823 3093 
Q 1294 3584 2113 3584 
Q 2378 3584 2631 3529 
Q 2884 3475 3122 3366 
z
" transform="scale(0.015625)"/>
      </defs>
      <use xlink:href="#DejaVuSans-36"/>
      <use xlink:href="#DejaVuSans-55" transform="translate(63.484375 0)"/>
      <use xlink:href="#DejaVuSans-46" transform="translate(102.390625 0)"/>
     </g>
    </g>
    <g id="line2d_19">
     <path d="M 503.101562 35.299219 
L 513.101562 35.299219 
L 523.101562 35.299219 
" style="fill: none; stroke: #377eb8; stroke-width: 2; stroke-linecap: square"/>
    </g>
    <g id="text_18">
     <!-- AMP -->
     <g style="fill: #7f7f7f" transform="translate(531.101562 38.799219) scale(0.1 -0.1)">
      <defs>
       <path id="DejaVuSans-24" d="M 2188 4044 
L 1331 1722 
L 3047 1722 
L 2188 4044 
z
M 1831 4666 
L 2547 4666 
L 4325 0 
L 3669 0 
L 3244 1197 
L 1141 1197 
L 716 0 
L 50 0 
L 1831 4666 
z
" transform="scale(0.015625)"/>
       <path id="DejaVuSans-30" d="M 628 4666 
L 1569 4666 
L 2759 1491 
L 3956 4666 
L 4897 4666 
L 4897 0 
L 4281 0 
L 4281 4097 
L 3078 897 
L 2444 897 
L 1241 4097 
L 1241 0 
L 628 0 
L 628 4666 
z
" transform="scale(0.015625)"/>
       <path id="DejaVuSans-33" d="M 1259 4147 
L 1259 2394 
L 2053 2394 
Q 2494 2394 2734 2622 
Q 2975 2850 2975 3272 
Q 2975 3691 2734 3919 
Q 2494 4147 2053 4147 
L 1259 4147 
z
M 628 4666 
L 2053 4666 
Q 2838 4666 3239 4311 
Q 3641 3956 3641 3272 
Q 3641 2581 3239 2228 
Q 2838 1875 2053 1875 
L 1259 1875 
L 1259 0 
L 628 0 
L 628 4666 
z
" transform="scale(0.015625)"/>
      </defs>
      <use xlink:href="#DejaVuSans-24"/>
      <use xlink:href="#DejaVuSans-30" transform="translate(68.40625 0)"/>
      <use xlink:href="#DejaVuSans-33" transform="translate(154.6875 0)"/>
     </g>
    </g>
   </g>
  </g>
 </g>
 <defs>
  <clipPath id="p3b76ff136c">
   <rect x="28.942188" y="7.2" width="532.657812" height="234.399141"/>
  </clipPath>
 </defs>
</svg>
