<?xml version="1.0" encoding="utf-8" standalone="no"?>
<!DOCTYPE svg PUBLIC "-//W3C//DTD SVG 1.1//EN"
  "http://www.w3.org/Graphics/SVG/1.1/DTD/svg11.dtd">
<svg xmlns:xlink="http://www.w3.org/1999/xlink" width="568.8pt" height="280.8pt" viewBox="0 0 568.8 280.8" xmlns="http://www.w3.org/2000/svg" version="1.1">
 <metadata>
  <rdf:RDF xmlns:dc="http://purl.org/dc/elements/1.1/" xmlns:cc="http://creativecommons.org/ns#" xmlns:rdf="http://www.w3.org/1999/02/22-rdf-syntax-ns#">
   <cc:Work>
    <dc:type rdf:resource="http://purl.org/dc/dcmitype/StillImage"/>
    <dc:date>2026-06-23T18:57:27.299961</dc:date>
    <dc:format>image/svg+xml</dc:format>
    <dc:creator>
     <cc:Agent>
      <dc:title>Matplotlib v3.11.0, https://matplotlib.org/</dc:title>
     </cc:Agent>
    </dc:creator>
   </cc:Work>
  </rdf:RDF>
 </metadata>
 <defs>
  <style type="text/css">*{stroke-linejoin: round; stroke-linecap: butt}</style>
 </defs>
 <g id="figure_1">
  <g id="patch_1">
   <path d="M 0 280.8 
L 568.8 280.8 
L 568.8 0 
L 0 0 
L 0 280.8 
z
" style="fill: none"/>
  </g>
  <g id="axes_1">
   <g id="patch_2">
    <path d="M 52.700859 239.796797 
L 561.6 239.796797 
L 561.6 7.2 
L 52.700859 7.2 
L 52.700859 239.796797 
z
" style="fill: none"/>
   </g>
   <g id="matplotlib.axis_1">
    <g id="xtick_1">
     <g id="line2d_1">
      <defs>
       <path id="m9cdb96c9eb" d="M 0 0 
L 0 3.5 
" style="stroke: #7f7f7f; stroke-width: 1.8"/>
      </defs>
      <g>
       <use xlink:href="#m9cdb96c9eb" x="59.879687" y="239.796797" style="fill: #7f7f7f; stroke: #7f7f7f; stroke-width: 1.8"/>
      </g>
     </g>
     <g id="text_1">
      <!-- $\mathdefault{10^{4}}$ -->
      <g style="fill: #7f7f7f" transform="translate(51.079687 256.096797) scale(0.1 -0.1)">
       <defs>
        <path id="DejaVuSans-14" d="M 794 531 
L 1825 531 
L 1825 4091 
L 703 3866 
L 703 4441 
L 1819 4666 
L 2450 4666 
L 2450 531 
L 3481 531 
L 3481 0 
L 794 0 
L 794 531 
z
" transform="scale(0.015625)"/>
        <path id="DejaVuSans-13" d="M 2034 4250 
Q 1547 4250 1301 3770 
Q 1056 3291 1056 2328 
Q 1056 1369 1301 889 
Q 1547 409 2034 409 
Q 2525 409 2770 889 
Q 3016 1369 3016 2328 
Q 3016 3291 2770 3770 
Q 2525 4250 2034 4250 
z
M 2034 4750 
Q 2819 4750 3233 4129 
Q 3647 3509 3647 2328 
Q 3647 1150 3233 529 
Q 2819 -91 2034 -91 
Q 1250 -91 836 529 
Q 422 1150 422 2328 
Q 422 3509 836 4129 
Q 1250 4750 2034 4750 
z
" transform="scale(0.015625)"/>
        <path id="DejaVuSans-17" d="M 2419 4116 
L 825 1625 
L 2419 1625 
L 2419 4116 
z
M 2253 4666 
L 3047 4666 
L 3047 1625 
L 3713 1625 
L 3713 1100 
L 3047 1100 
L 3047 0 
L 2419 0 
L 2419 1100 
L 313 1100 
L 313 1709 
L 2253 4666 
z
" transform="scale(0.015625)"/>
       </defs>
       <use xlink:href="#DejaVuSans-14" transform="translate(0 0.665625)"/>
       <use xlink:href="#DejaVuSans-13" transform="translate(63.623047 0.665625)"/>
       <use xlink:href="#DejaVuSans-17" transform="translate(128.203125 41.965625) scale(0.7)"/>
      </g>
     </g>
    </g>
    <g id="xtick_2">
     <g id="line2d_2">
      <g>
       <use xlink:href="#m9cdb96c9eb" x="219.409199" y="239.796797" style="fill: #7f7f7f; stroke: #7f7f7f; stroke-width: 1.8"/>
      </g>
     </g>
     <g id="text_2">
      <!-- $\mathdefault{10^{5}}$ -->
      <g style="fill: #7f7f7f" transform="translate(210.609199 256.096797) scale(0.1 -0.1)">
       <defs>
        <path id="DejaVuSans-18" d="M 691 4666 
L 3169 4666 
L 3169 4134 
L 1269 4134 
L 1269 2991 
Q 1406 3038 1543 3061 
Q 1681 3084 1819 3084 
Q 2600 3084 3056 2656 
Q 3513 2228 3513 1497 
Q 3513 744 3044 326 
Q 2575 -91 1722 -91 
Q 1428 -91 1123 -41 
Q 819 9 494 109 
L 494 744 
Q 775 591 1075 516 
Q 1375 441 1709 441 
Q 2250 441 2565 725 
Q 2881 1009 2881 1497 
Q 2881 1984 2565 2268 
Q 2250 2553 1709 2553 
Q 1456 2553 1204 2497 
Q 953 2441 691 2322 
L 691 4666 
z
" transform="scale(0.015625)"/>
       </defs>
       <use xlink:href="#DejaVuSans-14" transform="translate(0 0.665625)"/>
       <use xlink:href="#DejaVuSans-13" transform="translate(63.623047 0.665625)"/>
       <use xlink:href="#DejaVuSans-18" transform="translate(128.203125 41.965625) scale(0.7)"/>
      </g>
     </g>
    </g>
    <g id="xtick_3">
     <g id="line2d_3">
      <g>
       <use xlink:href="#m9cdb96c9eb" x="378.93871" y="239.796797" style="fill: #7f7f7f; stroke: #7f7f7f; stroke-width: 1.8"/>
      </g>
     </g>
     <g id="text_3">
      <!-- $\mathdefault{10^{6}}$ -->
      <g style="fill: #7f7f7f" transform="translate(370.13871 256.196797) scale(0.1 -0.1)">
       <defs>
        <path id="DejaVuSans-19" d="M 2113 2584 
Q 1688 2584 1439 2293 
Q 1191 2003 1191 1497 
Q 1191 994 1439 701 
Q 1688 409 2113 409 
Q 2538 409 2786 701 
Q 3034 994 3034 1497 
Q 3034 2003 2786 2293 
Q 2538 2584 2113 2584 
z
M 3366 4563 
L 3366 3988 
Q 3128 4100 2886 4159 
Q 2644 4219 2406 4219 
Q 1781 4219 1451 3797 
Q 1122 3375 1075 2522 
Q 1259 2794 1537 2939 
Q 1816 3084 2150 3084 
Q 2853 3084 3261 2657 
Q 3669 2231 3669 1497 
Q 3669 778 3244 343 
Q 2819 -91 2113 -91 
Q 1303 -91 875 529 
Q 447 1150 447 2328 
Q 447 3434 972 4092 
Q 1497 4750 2381 4750 
Q 2619 4750 2861 4703 
Q 3103 4656 3366 4563 
z
" transform="scale(0.015625)"/>
       </defs>
       <use xlink:href="#DejaVuSans-14" transform="translate(0 0.746875)"/>
       <use xlink:href="#DejaVuSans-13" transform="translate(63.623047 0.746875)"/>
       <use xlink:href="#DejaVuSans-19" transform="translate(128.203125 42.046875) scale(0.7)"/>
      </g>
     </g>
    </g>
    <g id="xtick_4">
     <g id="line2d_4">
      <g>
       <use xlink:href="#m9cdb96c9eb" x="538.468221" y="239.796797" style="fill: #7f7f7f; stroke: #7f7f7f; stroke-width: 1.8"/>
      </g>
     </g>
     <g id="text_4">
      <!-- $\mathdefault{10^{7}}$ -->
      <g style="fill: #7f7f7f" transform="translate(529.668221 256.096797) scale(0.1 -0.1)">
       <defs>
        <path id="DejaVuSans-1a" d="M 525 4666 
L 3525 4666 
L 3525 4397 
L 1831 0 
L 1172 0 
L 2766 4134 
L 525 4134 
L 525 4666 
z
" transform="scale(0.015625)"/>
       </defs>
       <use xlink:href="#DejaVuSans-14" transform="translate(0 0.665625)"/>
       <use xlink:href="#DejaVuSans-13" transform="translate(63.623047 0.665625)"/>
       <use xlink:href="#DejaVuSans-1a" transform="translate(128.203125 41.965625) scale(0.7)"/>
      </g>
     </g>
    </g>
    <g id="xtick_5">
     <g id="line2d_5">
      <defs>
       <path id="ma1e723f3e5" d="M 0 0 
L 0 2 
" style="stroke: #7f7f7f; stroke-width: 1.2"/>
      </defs>
      <g>
       <use xlink:href="#ma1e723f3e5" x="107.902855" y="239.796797" style="fill: #7f7f7f; stroke: #7f7f7f; stroke-width: 1.2"/>
      </g>
     </g>
    </g>
    <g id="xtick_6">
     <g id="line2d_6">
      <g>
       <use xlink:href="#ma1e723f3e5" x="135.994608" y="239.796797" style="fill: #7f7f7f; stroke: #7f7f7f; stroke-width: 1.2"/>
      </g>
     </g>
    </g>
    <g id="xtick_7">
     <g id="line2d_7">
      <g>
       <use xlink:href="#ma1e723f3e5" x="155.926023" y="239.796797" style="fill: #7f7f7f; stroke: #7f7f7f; stroke-width: 1.2"/>
      </g>
     </g>
    </g>
    <g id="xtick_8">
     <g id="line2d_8">
      <g>
       <use xlink:href="#ma1e723f3e5" x="171.38603" y="239.796797" style="fill: #7f7f7f; stroke: #7f7f7f; stroke-width: 1.2"/>
      </g>
     </g>
    </g>
    <g id="xtick_9">
     <g id="line2d_9">
      <g>
       <use xlink:href="#ma1e723f3e5" x="184.017776" y="239.796797" style="fill: #7f7f7f; stroke: #7f7f7f; stroke-width: 1.2"/>
      </g>
     </g>
    </g>
    <g id="xtick_10">
     <g id="line2d_10">
      <g>
       <use xlink:href="#ma1e723f3e5" x="194.697765" y="239.796797" style="fill: #7f7f7f; stroke: #7f7f7f; stroke-width: 1.2"/>
      </g>
     </g>
    </g>
    <g id="xtick_11">
     <g id="line2d_11">
      <g>
       <use xlink:href="#ma1e723f3e5" x="203.949192" y="239.796797" style="fill: #7f7f7f; stroke: #7f7f7f; stroke-width: 1.2"/>
      </g>
     </g>
    </g>
    <g id="xtick_12">
     <g id="line2d_12">
      <g>
       <use xlink:href="#ma1e723f3e5" x="212.109528" y="239.796797" style="fill: #7f7f7f; stroke: #7f7f7f; stroke-width: 1.2"/>
      </g>
     </g>
    </g>
    <g id="xtick_13">
     <g id="line2d_13">
      <g>
       <use xlink:href="#ma1e723f3e5" x="267.432367" y="239.796797" style="fill: #7f7f7f; stroke: #7f7f7f; stroke-width: 1.2"/>
      </g>
     </g>
    </g>
    <g id="xtick_14">
     <g id="line2d_14">
      <g>
       <use xlink:href="#ma1e723f3e5" x="295.524119" y="239.796797" style="fill: #7f7f7f; stroke: #7f7f7f; stroke-width: 1.2"/>
      </g>
     </g>
    </g>
    <g id="xtick_15">
     <g id="line2d_15">
      <g>
       <use xlink:href="#ma1e723f3e5" x="315.455535" y="239.796797" style="fill: #7f7f7f; stroke: #7f7f7f; stroke-width: 1.2"/>
      </g>
     </g>
    </g>
    <g id="xtick_16">
     <g id="line2d_16">
      <g>
       <use xlink:href="#ma1e723f3e5" x="330.915542" y="239.796797" style="fill: #7f7f7f; stroke: #7f7f7f; stroke-width: 1.2"/>
      </g>
     </g>
    </g>
    <g id="xtick_17">
     <g id="line2d_17">
      <g>
       <use xlink:href="#ma1e723f3e5" x="343.547287" y="239.796797" style="fill: #7f7f7f; stroke: #7f7f7f; stroke-width: 1.2"/>
      </g>
     </g>
    </g>
    <g id="xtick_18">
     <g id="line2d_18">
      <g>
       <use xlink:href="#ma1e723f3e5" x="354.227276" y="239.796797" style="fill: #7f7f7f; stroke: #7f7f7f; stroke-width: 1.2"/>
      </g>
     </g>
    </g>
    <g id="xtick_19">
     <g id="line2d_19">
      <g>
       <use xlink:href="#ma1e723f3e5" x="363.478703" y="239.796797" style="fill: #7f7f7f; stroke: #7f7f7f; stroke-width: 1.2"/>
      </g>
     </g>
    </g>
    <g id="xtick_20">
     <g id="line2d_20">
      <g>
       <use xlink:href="#ma1e723f3e5" x="371.63904" y="239.796797" style="fill: #7f7f7f; stroke: #7f7f7f; stroke-width: 1.2"/>
      </g>
     </g>
    </g>
    <g id="xtick_21">
     <g id="line2d_21">
      <g>
       <use xlink:href="#ma1e723f3e5" x="426.961878" y="239.796797" style="fill: #7f7f7f; stroke: #7f7f7f; stroke-width: 1.2"/>
      </g>
     </g>
    </g>
    <g id="xtick_22">
     <g id="line2d_22">
      <g>
       <use xlink:href="#ma1e723f3e5" x="455.05363" y="239.796797" style="fill: #7f7f7f; stroke: #7f7f7f; stroke-width: 1.2"/>
      </g>
     </g>
    </g>
    <g id="xtick_23">
     <g id="line2d_23">
      <g>
       <use xlink:href="#ma1e723f3e5" x="474.985046" y="239.796797" style="fill: #7f7f7f; stroke: #7f7f7f; stroke-width: 1.2"/>
      </g>
     </g>
    </g>
    <g id="xtick_24">
     <g id="line2d_24">
      <g>
       <use xlink:href="#ma1e723f3e5" x="490.445053" y="239.796797" style="fill: #7f7f7f; stroke: #7f7f7f; stroke-width: 1.2"/>
      </g>
     </g>
    </g>
    <g id="xtick_25">
     <g id="line2d_25">
      <g>
       <use xlink:href="#ma1e723f3e5" x="503.076798" y="239.796797" style="fill: #7f7f7f; stroke: #7f7f7f; stroke-width: 1.2"/>
      </g>
     </g>
    </g>
    <g id="xtick_26">
     <g id="line2d_26">
      <g>
       <use xlink:href="#ma1e723f3e5" x="513.756787" y="239.796797" style="fill: #7f7f7f; stroke: #7f7f7f; stroke-width: 1.2"/>
      </g>
     </g>
    </g>
    <g id="xtick_27">
     <g id="line2d_27">
      <g>
       <use xlink:href="#ma1e723f3e5" x="523.008214" y="239.796797" style="fill: #7f7f7f; stroke: #7f7f7f; stroke-width: 1.2"/>
      </g>
     </g>
    </g>
    <g id="xtick_28">
     <g id="line2d_28">
      <g>
       <use xlink:href="#ma1e723f3e5" x="531.168551" y="239.796797" style="fill: #7f7f7f; stroke: #7f7f7f; stroke-width: 1.2"/>
      </g>
     </g>
    </g>
    <g id="text_5">
     <!-- Freq [Hz] -->
     <g style="fill: #7f7f7f" transform="translate(282.309336 270.957422) scale(0.11 -0.11)">
      <defs>
       <path id="DejaVuSans-29" d="M 628 4666 
L 3309 4666 
L 3309 4134 
L 1259 4134 
L 1259 2759 
L 3109 2759 
L 3109 2228 
L 1259 2228 
L 1259 0 
L 628 0 
L 628 4666 
z
" transform="scale(0.015625)"/>
       <path id="DejaVuSans-55" d="M 2631 2963 
Q 2534 3019 2420 3045 
Q 2306 3072 2169 3072 
Q 1681 3072 1420 2755 
Q 1159 2438 1159 1844 
L 1159 0 
L 581 0 
L 581 3500 
L 1159 3500 
L 1159 2956 
Q 1341 3275 1631 3429 
Q 1922 3584 2338 3584 
Q 2397 3584 2469 3576 
Q 2541 3569 2628 3553 
L 2631 2963 
z
" transform="scale(0.015625)"/>
       <path id="DejaVuSans-48" d="M 3597 1894 
L 3597 1613 
L 953 1613 
Q 991 1019 1311 708 
Q 1631 397 2203 397 
Q 2534 397 2845 478 
Q 3156 559 3463 722 
L 3463 178 
Q 3153 47 2828 -22 
Q 2503 -91 2169 -91 
Q 1331 -91 842 396 
Q 353 884 353 1716 
Q 353 2575 817 3079 
Q 1281 3584 2069 3584 
Q 2775 3584 3186 3129 
Q 3597 2675 3597 1894 
z
M 3022 2063 
Q 3016 2534 2758 2815 
Q 2500 3097 2075 3097 
Q 1594 3097 1305 2825 
Q 1016 2553 972 2059 
L 3022 2063 
z
" transform="scale(0.015625)"/>
       <path id="DejaVuSans-54" d="M 947 1747 
Q 947 1113 1208 752 
Q 1469 391 1925 391 
Q 2381 391 2643 752 
Q 2906 1113 2906 1747 
Q 2906 2381 2643 2742 
Q 2381 3103 1925 3103 
Q 1469 3103 1208 2742 
Q 947 2381 947 1747 
z
M 2906 525 
Q 2725 213 2448 61 
Q 2172 -91 1784 -91 
Q 1150 -91 751 415 
Q 353 922 353 1747 
Q 353 2572 751 3078 
Q 1150 3584 1784 3584 
Q 2172 3584 2448 3432 
Q 2725 3281 2906 2969 
L 2906 3500 
L 3481 3500 
L 3481 -1331 
L 2906 -1331 
L 2906 525 
z
" transform="scale(0.015625)"/>
       <path id="DejaVuSans-3" transform="scale(0.015625)"/>
       <path id="DejaVuSans-3e" d="M 550 4863 
L 1875 4863 
L 1875 4416 
L 1125 4416 
L 1125 -397 
L 1875 -397 
L 1875 -844 
L 550 -844 
L 550 4863 
z
" transform="scale(0.015625)"/>
       <path id="DejaVuSans-2b" d="M 628 4666 
L 1259 4666 
L 1259 2753 
L 3553 2753 
L 3553 4666 
L 4184 4666 
L 4184 0 
L 3553 0 
L 3553 2222 
L 1259 2222 
L 1259 0 
L 628 0 
L 628 4666 
z
" transform="scale(0.015625)"/>
       <path id="DejaVuSans-5d" d="M 353 3500 
L 3084 3500 
L 3084 2975 
L 922 459 
L 3084 459 
L 3084 0 
L 275 0 
L 275 525 
L 2438 3041 
L 353 3041 
L 353 3500 
z
" transform="scale(0.015625)"/>
       <path id="DejaVuSans-40" d="M 1947 4863 
L 1947 -844 
L 622 -844 
L 622 -397 
L 1369 -397 
L 1369 4416 
L 622 4416 
L 622 4863 
L 1947 4863 
z
" transform="scale(0.015625)"/>
      </defs>
      <use xlink:href="#DejaVuSans-29"/>
      <use xlink:href="#DejaVuSans-55" transform="translate(50.234375 0)"/>
      <use xlink:href="#DejaVuSans-48" transform="translate(89.140625 0)"/>
      <use xlink:href="#DejaVuSans-54" transform="translate(150.671875 0)"/>
      <use xlink:href="#DejaVuSans-3" transform="translate(214.15625 0)"/>
      <use xlink:href="#DejaVuSans-3e" transform="translate(245.9375 0)"/>
      <use xlink:href="#DejaVuSans-2b" transform="translate(284.953125 0)"/>
      <use xlink:href="#DejaVuSans-5d" transform="translate(360.15625 0)"/>
      <use xlink:href="#DejaVuSans-40" transform="translate(412.640625 0)"/>
     </g>
    </g>
   </g>
   <g id="matplotlib.axis_2">
    <g id="ytick_1">
     <g id="line2d_29">
      <defs>
       <path id="m28310a5b39" d="M 0 0 
L -3.5 0 
" style="stroke: #7f7f7f; stroke-width: 1.8"/>
      </defs>
      <g>
       <use xlink:href="#m28310a5b39" x="52.700859" y="239.796797" style="fill: #7f7f7f; stroke: #7f7f7f; stroke-width: 1.8"/>
      </g>
     </g>
     <g id="text_6">
      <!-- $\mathdefault{10^{-6}}$ -->
      <g style="fill: #7f7f7f" transform="translate(22.200859 244.496797) scale(0.1 -0.1)">
       <defs>
        <path id="DejaVuSans-c9c" d="M 678 2272 
L 4684 2272 
L 4684 1741 
L 678 1741 
L 678 2272 
z
" transform="scale(0.015625)"/>
       </defs>
       <use xlink:href="#DejaVuSans-14" transform="translate(0 0.746875)"/>
       <use xlink:href="#DejaVuSans-13" transform="translate(63.623047 0.746875)"/>
       <use xlink:href="#DejaVuSans-c9c" transform="translate(128.203125 42.046875) scale(0.7)"/>
       <use xlink:href="#DejaVuSans-19" transform="translate(186.855469 42.046875) scale(0.7)"/>
      </g>
     </g>
    </g>
    <g id="ytick_2">
     <g id="line2d_30">
      <g>
       <use xlink:href="#m28310a5b39" x="52.700859" y="206.18189" style="fill: #7f7f7f; stroke: #7f7f7f; stroke-width: 1.8"/>
      </g>
     </g>
     <g id="text_7">
      <!-- $\mathdefault{10^{-5}}$ -->
      <g style="fill: #7f7f7f" transform="translate(22.200859 210.83189) scale(0.1 -0.1)">
       <use xlink:href="#DejaVuSans-14" transform="translate(0 0.665625)"/>
       <use xlink:href="#DejaVuSans-13" transform="translate(63.623047 0.665625)"/>
       <use xlink:href="#DejaVuSans-c9c" transform="translate(128.203125 41.965625) scale(0.7)"/>
       <use xlink:href="#DejaVuSans-18" transform="translate(186.855469 41.965625) scale(0.7)"/>
      </g>
     </g>
    </g>
    <g id="ytick_3">
     <g id="line2d_31">
      <g>
       <use xlink:href="#m28310a5b39" x="52.700859" y="172.566983" style="fill: #7f7f7f; stroke: #7f7f7f; stroke-width: 1.8"/>
      </g>
     </g>
     <g id="text_8">
      <!-- $\mathdefault{10^{-4}}$ -->
      <g style="fill: #7f7f7f" transform="translate(22.200859 177.216983) scale(0.1 -0.1)">
       <use xlink:href="#DejaVuSans-14" transform="translate(0 0.665625)"/>
       <use xlink:href="#DejaVuSans-13" transform="translate(63.623047 0.665625)"/>
       <use xlink:href="#DejaVuSans-c9c" transform="translate(128.203125 41.965625) scale(0.7)"/>
       <use xlink:href="#DejaVuSans-17" transform="translate(186.855469 41.965625) scale(0.7)"/>
      </g>
     </g>
    </g>
    <g id="ytick_4">
     <g id="line2d_32">
      <g>
       <use xlink:href="#m28310a5b39" x="52.700859" y="138.952077" style="fill: #7f7f7f; stroke: #7f7f7f; stroke-width: 1.8"/>
      </g>
     </g>
     <g id="text_9">
      <!-- $\mathdefault{10^{-3}}$ -->
      <g style="fill: #7f7f7f" transform="translate(22.200859 143.652077) scale(0.1 -0.1)">
       <defs>
        <path id="DejaVuSans-16" d="M 2597 2516 
Q 3050 2419 3304 2112 
Q 3559 1806 3559 1356 
Q 3559 666 3084 287 
Q 2609 -91 1734 -91 
Q 1441 -91 1130 -33 
Q 819 25 488 141 
L 488 750 
Q 750 597 1062 519 
Q 1375 441 1716 441 
Q 2309 441 2620 675 
Q 2931 909 2931 1356 
Q 2931 1769 2642 2001 
Q 2353 2234 1838 2234 
L 1294 2234 
L 1294 2753 
L 1863 2753 
Q 2328 2753 2575 2939 
Q 2822 3125 2822 3475 
Q 2822 3834 2567 4026 
Q 2313 4219 1838 4219 
Q 1578 4219 1281 4162 
Q 984 4106 628 3988 
L 628 4550 
Q 988 4650 1302 4700 
Q 1616 4750 1894 4750 
Q 2613 4750 3031 4423 
Q 3450 4097 3450 3541 
Q 3450 3153 3228 2886 
Q 3006 2619 2597 2516 
z
" transform="scale(0.015625)"/>
       </defs>
       <use xlink:href="#DejaVuSans-14" transform="translate(0 0.746875)"/>
       <use xlink:href="#DejaVuSans-13" transform="translate(63.623047 0.746875)"/>
       <use xlink:href="#DejaVuSans-c9c" transform="translate(128.203125 42.046875) scale(0.7)"/>
       <use xlink:href="#DejaVuSans-16" transform="translate(186.855469 42.046875) scale(0.7)"/>
      </g>
     </g>
    </g>
    <g id="ytick_5">
     <g id="line2d_33">
      <g>
       <use xlink:href="#m28310a5b39" x="52.700859" y="105.33717" style="fill: #7f7f7f; stroke: #7f7f7f; stroke-width: 1.8"/>
      </g>
     </g>
     <g id="text_10">
      <!-- $\mathdefault{10^{-2}}$ -->
      <g style="fill: #7f7f7f" transform="translate(22.200859 110.03717) scale(0.1 -0.1)">
       <defs>
        <path id="DejaVuSans-15" d="M 1228 531 
L 3431 531 
L 3431 0 
L 469 0 
L 469 531 
Q 828 903 1448 1529 
Q 2069 2156 2228 2338 
Q 2531 2678 2651 2914 
Q 2772 3150 2772 3378 
Q 2772 3750 2511 3984 
Q 2250 4219 1831 4219 
Q 1534 4219 1204 4116 
Q 875 4013 500 3803 
L 500 4441 
Q 881 4594 1212 4672 
Q 1544 4750 1819 4750 
Q 2544 4750 2975 4387 
Q 3406 4025 3406 3419 
Q 3406 3131 3298 2873 
Q 3191 2616 2906 2266 
Q 2828 2175 2409 1742 
Q 1991 1309 1228 531 
z
" transform="scale(0.015625)"/>
       </defs>
       <use xlink:href="#DejaVuSans-14" transform="translate(0 0.746875)"/>
       <use xlink:href="#DejaVuSans-13" transform="translate(63.623047 0.746875)"/>
       <use xlink:href="#DejaVuSans-c9c" transform="translate(128.203125 42.046875) scale(0.7)"/>
       <use xlink:href="#DejaVuSans-15" transform="translate(186.855469 42.046875) scale(0.7)"/>
      </g>
     </g>
    </g>
    <g id="ytick_6">
     <g id="line2d_34">
      <g>
       <use xlink:href="#m28310a5b39" x="52.700859" y="71.722263" style="fill: #7f7f7f; stroke: #7f7f7f; stroke-width: 1.8"/>
      </g>
     </g>
     <g id="text_11">
      <!-- $\mathdefault{10^{-1}}$ -->
      <g style="fill: #7f7f7f" transform="translate(22.200859 76.372263) scale(0.1 -0.1)">
       <use xlink:href="#DejaVuSans-14" transform="translate(0 0.665625)"/>
       <use xlink:href="#DejaVuSans-13" transform="translate(63.623047 0.665625)"/>
       <use xlink:href="#DejaVuSans-c9c" transform="translate(128.203125 41.965625) scale(0.7)"/>
       <use xlink:href="#DejaVuSans-14" transform="translate(186.855469 41.965625) scale(0.7)"/>
      </g>
     </g>
    </g>
    <g id="ytick_7">
     <g id="line2d_35">
      <g>
       <use xlink:href="#m28310a5b39" x="52.700859" y="38.107356" style="fill: #7f7f7f; stroke: #7f7f7f; stroke-width: 1.8"/>
      </g>
     </g>
     <g id="text_12">
      <!-- $\mathdefault{10^{0}}$ -->
      <g style="fill: #7f7f7f" transform="translate(28.100859 42.807356) scale(0.1 -0.1)">
       <use xlink:href="#DejaVuSans-14" transform="translate(0 0.746875)"/>
       <use xlink:href="#DejaVuSans-13" transform="translate(63.623047 0.746875)"/>
       <use xlink:href="#DejaVuSans-13" transform="translate(128.203125 42.046875) scale(0.7)"/>
      </g>
     </g>
    </g>
    <g id="ytick_8">
     <g id="line2d_36">
      <defs>
       <path id="ma22e4e5f80" d="M 0 0 
L -2 0 
" style="stroke: #7f7f7f; stroke-width: 1.2"/>
      </defs>
      <g>
       <use xlink:href="#ma22e4e5f80" x="52.700859" y="229.677702" style="fill: #7f7f7f; stroke: #7f7f7f; stroke-width: 1.2"/>
      </g>
     </g>
    </g>
    <g id="ytick_9">
     <g id="line2d_37">
      <g>
       <use xlink:href="#ma22e4e5f80" x="52.700859" y="223.75841" style="fill: #7f7f7f; stroke: #7f7f7f; stroke-width: 1.2"/>
      </g>
     </g>
    </g>
    <g id="ytick_10">
     <g id="line2d_38">
      <g>
       <use xlink:href="#ma22e4e5f80" x="52.700859" y="219.558606" style="fill: #7f7f7f; stroke: #7f7f7f; stroke-width: 1.2"/>
      </g>
     </g>
    </g>
    <g id="ytick_11">
     <g id="line2d_39">
      <g>
       <use xlink:href="#ma22e4e5f80" x="52.700859" y="216.300985" style="fill: #7f7f7f; stroke: #7f7f7f; stroke-width: 1.2"/>
      </g>
     </g>
    </g>
    <g id="ytick_12">
     <g id="line2d_40">
      <g>
       <use xlink:href="#ma22e4e5f80" x="52.700859" y="213.639315" style="fill: #7f7f7f; stroke: #7f7f7f; stroke-width: 1.2"/>
      </g>
     </g>
    </g>
    <g id="ytick_13">
     <g id="line2d_41">
      <g>
       <use xlink:href="#ma22e4e5f80" x="52.700859" y="211.388905" style="fill: #7f7f7f; stroke: #7f7f7f; stroke-width: 1.2"/>
      </g>
     </g>
    </g>
    <g id="ytick_14">
     <g id="line2d_42">
      <g>
       <use xlink:href="#ma22e4e5f80" x="52.700859" y="209.439511" style="fill: #7f7f7f; stroke: #7f7f7f; stroke-width: 1.2"/>
      </g>
     </g>
    </g>
    <g id="ytick_15">
     <g id="line2d_43">
      <g>
       <use xlink:href="#ma22e4e5f80" x="52.700859" y="207.720024" style="fill: #7f7f7f; stroke: #7f7f7f; stroke-width: 1.2"/>
      </g>
     </g>
    </g>
    <g id="ytick_16">
     <g id="line2d_44">
      <g>
       <use xlink:href="#ma22e4e5f80" x="52.700859" y="196.062795" style="fill: #7f7f7f; stroke: #7f7f7f; stroke-width: 1.2"/>
      </g>
     </g>
    </g>
    <g id="ytick_17">
     <g id="line2d_45">
      <g>
       <use xlink:href="#ma22e4e5f80" x="52.700859" y="190.143504" style="fill: #7f7f7f; stroke: #7f7f7f; stroke-width: 1.2"/>
      </g>
     </g>
    </g>
    <g id="ytick_18">
     <g id="line2d_46">
      <g>
       <use xlink:href="#ma22e4e5f80" x="52.700859" y="185.9437" style="fill: #7f7f7f; stroke: #7f7f7f; stroke-width: 1.2"/>
      </g>
     </g>
    </g>
    <g id="ytick_19">
     <g id="line2d_47">
      <g>
       <use xlink:href="#ma22e4e5f80" x="52.700859" y="182.686079" style="fill: #7f7f7f; stroke: #7f7f7f; stroke-width: 1.2"/>
      </g>
     </g>
    </g>
    <g id="ytick_20">
     <g id="line2d_48">
      <g>
       <use xlink:href="#ma22e4e5f80" x="52.700859" y="180.024408" style="fill: #7f7f7f; stroke: #7f7f7f; stroke-width: 1.2"/>
      </g>
     </g>
    </g>
    <g id="ytick_21">
     <g id="line2d_49">
      <g>
       <use xlink:href="#ma22e4e5f80" x="52.700859" y="177.773998" style="fill: #7f7f7f; stroke: #7f7f7f; stroke-width: 1.2"/>
      </g>
     </g>
    </g>
    <g id="ytick_22">
     <g id="line2d_50">
      <g>
       <use xlink:href="#ma22e4e5f80" x="52.700859" y="175.824604" style="fill: #7f7f7f; stroke: #7f7f7f; stroke-width: 1.2"/>
      </g>
     </g>
    </g>
    <g id="ytick_23">
     <g id="line2d_51">
      <g>
       <use xlink:href="#ma22e4e5f80" x="52.700859" y="174.105117" style="fill: #7f7f7f; stroke: #7f7f7f; stroke-width: 1.2"/>
      </g>
     </g>
    </g>
    <g id="ytick_24">
     <g id="line2d_52">
      <g>
       <use xlink:href="#ma22e4e5f80" x="52.700859" y="162.447888" style="fill: #7f7f7f; stroke: #7f7f7f; stroke-width: 1.2"/>
      </g>
     </g>
    </g>
    <g id="ytick_25">
     <g id="line2d_53">
      <g>
       <use xlink:href="#ma22e4e5f80" x="52.700859" y="156.528597" style="fill: #7f7f7f; stroke: #7f7f7f; stroke-width: 1.2"/>
      </g>
     </g>
    </g>
    <g id="ytick_26">
     <g id="line2d_54">
      <g>
       <use xlink:href="#ma22e4e5f80" x="52.700859" y="152.328793" style="fill: #7f7f7f; stroke: #7f7f7f; stroke-width: 1.2"/>
      </g>
     </g>
    </g>
    <g id="ytick_27">
     <g id="line2d_55">
      <g>
       <use xlink:href="#ma22e4e5f80" x="52.700859" y="149.071172" style="fill: #7f7f7f; stroke: #7f7f7f; stroke-width: 1.2"/>
      </g>
     </g>
    </g>
    <g id="ytick_28">
     <g id="line2d_56">
      <g>
       <use xlink:href="#ma22e4e5f80" x="52.700859" y="146.409502" style="fill: #7f7f7f; stroke: #7f7f7f; stroke-width: 1.2"/>
      </g>
     </g>
    </g>
    <g id="ytick_29">
     <g id="line2d_57">
      <g>
       <use xlink:href="#ma22e4e5f80" x="52.700859" y="144.159092" style="fill: #7f7f7f; stroke: #7f7f7f; stroke-width: 1.2"/>
      </g>
     </g>
    </g>
    <g id="ytick_30">
     <g id="line2d_58">
      <g>
       <use xlink:href="#ma22e4e5f80" x="52.700859" y="142.209698" style="fill: #7f7f7f; stroke: #7f7f7f; stroke-width: 1.2"/>
      </g>
     </g>
    </g>
    <g id="ytick_31">
     <g id="line2d_59">
      <g>
       <use xlink:href="#ma22e4e5f80" x="52.700859" y="140.49021" style="fill: #7f7f7f; stroke: #7f7f7f; stroke-width: 1.2"/>
      </g>
     </g>
    </g>
    <g id="ytick_32">
     <g id="line2d_60">
      <g>
       <use xlink:href="#ma22e4e5f80" x="52.700859" y="128.832981" style="fill: #7f7f7f; stroke: #7f7f7f; stroke-width: 1.2"/>
      </g>
     </g>
    </g>
    <g id="ytick_33">
     <g id="line2d_61">
      <g>
       <use xlink:href="#ma22e4e5f80" x="52.700859" y="122.91369" style="fill: #7f7f7f; stroke: #7f7f7f; stroke-width: 1.2"/>
      </g>
     </g>
    </g>
    <g id="ytick_34">
     <g id="line2d_62">
      <g>
       <use xlink:href="#ma22e4e5f80" x="52.700859" y="118.713886" style="fill: #7f7f7f; stroke: #7f7f7f; stroke-width: 1.2"/>
      </g>
     </g>
    </g>
    <g id="ytick_35">
     <g id="line2d_63">
      <g>
       <use xlink:href="#ma22e4e5f80" x="52.700859" y="115.456265" style="fill: #7f7f7f; stroke: #7f7f7f; stroke-width: 1.2"/>
      </g>
     </g>
    </g>
    <g id="ytick_36">
     <g id="line2d_64">
      <g>
       <use xlink:href="#ma22e4e5f80" x="52.700859" y="112.794595" style="fill: #7f7f7f; stroke: #7f7f7f; stroke-width: 1.2"/>
      </g>
     </g>
    </g>
    <g id="ytick_37">
     <g id="line2d_65">
      <g>
       <use xlink:href="#ma22e4e5f80" x="52.700859" y="110.544185" style="fill: #7f7f7f; stroke: #7f7f7f; stroke-width: 1.2"/>
      </g>
     </g>
    </g>
    <g id="ytick_38">
     <g id="line2d_66">
      <g>
       <use xlink:href="#ma22e4e5f80" x="52.700859" y="108.594791" style="fill: #7f7f7f; stroke: #7f7f7f; stroke-width: 1.2"/>
      </g>
     </g>
    </g>
    <g id="ytick_39">
     <g id="line2d_67">
      <g>
       <use xlink:href="#ma22e4e5f80" x="52.700859" y="106.875304" style="fill: #7f7f7f; stroke: #7f7f7f; stroke-width: 1.2"/>
      </g>
     </g>
    </g>
    <g id="ytick_40">
     <g id="line2d_68">
      <g>
       <use xlink:href="#ma22e4e5f80" x="52.700859" y="95.218075" style="fill: #7f7f7f; stroke: #7f7f7f; stroke-width: 1.2"/>
      </g>
     </g>
    </g>
    <g id="ytick_41">
     <g id="line2d_69">
      <g>
       <use xlink:href="#ma22e4e5f80" x="52.700859" y="89.298783" style="fill: #7f7f7f; stroke: #7f7f7f; stroke-width: 1.2"/>
      </g>
     </g>
    </g>
    <g id="ytick_42">
     <g id="line2d_70">
      <g>
       <use xlink:href="#ma22e4e5f80" x="52.700859" y="85.098979" style="fill: #7f7f7f; stroke: #7f7f7f; stroke-width: 1.2"/>
      </g>
     </g>
    </g>
    <g id="ytick_43">
     <g id="line2d_71">
      <g>
       <use xlink:href="#ma22e4e5f80" x="52.700859" y="81.841358" style="fill: #7f7f7f; stroke: #7f7f7f; stroke-width: 1.2"/>
      </g>
     </g>
    </g>
    <g id="ytick_44">
     <g id="line2d_72">
      <g>
       <use xlink:href="#ma22e4e5f80" x="52.700859" y="79.179688" style="fill: #7f7f7f; stroke: #7f7f7f; stroke-width: 1.2"/>
      </g>
     </g>
    </g>
    <g id="ytick_45">
     <g id="line2d_73">
      <g>
       <use xlink:href="#ma22e4e5f80" x="52.700859" y="76.929278" style="fill: #7f7f7f; stroke: #7f7f7f; stroke-width: 1.2"/>
      </g>
     </g>
    </g>
    <g id="ytick_46">
     <g id="line2d_74">
      <g>
       <use xlink:href="#ma22e4e5f80" x="52.700859" y="74.979884" style="fill: #7f7f7f; stroke: #7f7f7f; stroke-width: 1.2"/>
      </g>
     </g>
    </g>
    <g id="ytick_47">
     <g id="line2d_75">
      <g>
       <use xlink:href="#ma22e4e5f80" x="52.700859" y="73.260397" style="fill: #7f7f7f; stroke: #7f7f7f; stroke-width: 1.2"/>
      </g>
     </g>
    </g>
    <g id="ytick_48">
     <g id="line2d_76">
      <g>
       <use xlink:href="#ma22e4e5f80" x="52.700859" y="61.603168" style="fill: #7f7f7f; stroke: #7f7f7f; stroke-width: 1.2"/>
      </g>
     </g>
    </g>
    <g id="ytick_49">
     <g id="line2d_77">
      <g>
       <use xlink:href="#ma22e4e5f80" x="52.700859" y="55.683877" style="fill: #7f7f7f; stroke: #7f7f7f; stroke-width: 1.2"/>
      </g>
     </g>
    </g>
    <g id="ytick_50">
     <g id="line2d_78">
      <g>
       <use xlink:href="#ma22e4e5f80" x="52.700859" y="51.484073" style="fill: #7f7f7f; stroke: #7f7f7f; stroke-width: 1.2"/>
      </g>
     </g>
    </g>
    <g id="ytick_51">
     <g id="line2d_79">
      <g>
       <use xlink:href="#ma22e4e5f80" x="52.700859" y="48.226452" style="fill: #7f7f7f; stroke: #7f7f7f; stroke-width: 1.2"/>
      </g>
     </g>
    </g>
    <g id="ytick_52">
     <g id="line2d_80">
      <g>
       <use xlink:href="#ma22e4e5f80" x="52.700859" y="45.564781" style="fill: #7f7f7f; stroke: #7f7f7f; stroke-width: 1.2"/>
      </g>
     </g>
    </g>
    <g id="ytick_53">
     <g id="line2d_81">
      <g>
       <use xlink:href="#ma22e4e5f80" x="52.700859" y="43.314371" style="fill: #7f7f7f; stroke: #7f7f7f; stroke-width: 1.2"/>
      </g>
     </g>
    </g>
    <g id="ytick_54">
     <g id="line2d_82">
      <g>
       <use xlink:href="#ma22e4e5f80" x="52.700859" y="41.364977" style="fill: #7f7f7f; stroke: #7f7f7f; stroke-width: 1.2"/>
      </g>
     </g>
    </g>
    <g id="ytick_55">
     <g id="line2d_83">
      <g>
       <use xlink:href="#ma22e4e5f80" x="52.700859" y="39.64549" style="fill: #7f7f7f; stroke: #7f7f7f; stroke-width: 1.2"/>
      </g>
     </g>
    </g>
    <g id="ytick_56">
     <g id="line2d_84">
      <g>
       <use xlink:href="#ma22e4e5f80" x="52.700859" y="27.988261" style="fill: #7f7f7f; stroke: #7f7f7f; stroke-width: 1.2"/>
      </g>
     </g>
    </g>
    <g id="ytick_57">
     <g id="line2d_85">
      <g>
       <use xlink:href="#ma22e4e5f80" x="52.700859" y="22.06897" style="fill: #7f7f7f; stroke: #7f7f7f; stroke-width: 1.2"/>
      </g>
     </g>
    </g>
    <g id="ytick_58">
     <g id="line2d_86">
      <g>
       <use xlink:href="#ma22e4e5f80" x="52.700859" y="17.869166" style="fill: #7f7f7f; stroke: #7f7f7f; stroke-width: 1.2"/>
      </g>
     </g>
    </g>
    <g id="ytick_59">
     <g id="line2d_87">
      <g>
       <use xlink:href="#ma22e4e5f80" x="52.700859" y="14.611545" style="fill: #7f7f7f; stroke: #7f7f7f; stroke-width: 1.2"/>
      </g>
     </g>
    </g>
    <g id="ytick_60">
     <g id="line2d_88">
      <g>
       <use xlink:href="#ma22e4e5f80" x="52.700859" y="11.949875" style="fill: #7f7f7f; stroke: #7f7f7f; stroke-width: 1.2"/>
      </g>
     </g>
    </g>
    <g id="ytick_61">
     <g id="line2d_89">
      <g>
       <use xlink:href="#ma22e4e5f80" x="52.700859" y="9.699465" style="fill: #7f7f7f; stroke: #7f7f7f; stroke-width: 1.2"/>
      </g>
     </g>
    </g>
    <g id="ytick_62">
     <g id="line2d_90">
      <g>
       <use xlink:href="#ma22e4e5f80" x="52.700859" y="7.750071" style="fill: #7f7f7f; stroke: #7f7f7f; stroke-width: 1.2"/>
      </g>
     </g>
    </g>
    <g id="text_13">
     <!-- Magnitude -->
     <g style="fill: #7f7f7f" transform="translate(15.558281 152.637227) rotate(-90) scale(0.11 -0.11)">
      <defs>
       <path id="DejaVuSans-30" d="M 628 4666 
L 1569 4666 
L 2759 1491 
L 3956 4666 
L 4897 4666 
L 4897 0 
L 4281 0 
L 4281 4097 
L 3078 897 
L 2444 897 
L 1241 4097 
L 1241 0 
L 628 0 
L 628 4666 
z
" transform="scale(0.015625)"/>
       <path id="DejaVuSans-44" d="M 2194 1759 
Q 1497 1759 1228 1600 
Q 959 1441 959 1056 
Q 959 750 1161 570 
Q 1363 391 1709 391 
Q 2188 391 2477 730 
Q 2766 1069 2766 1631 
L 2766 1759 
L 2194 1759 
z
M 3341 1997 
L 3341 0 
L 2766 0 
L 2766 531 
Q 2569 213 2275 61 
Q 1981 -91 1556 -91 
Q 1019 -91 701 211 
Q 384 513 384 1019 
Q 384 1609 779 1909 
Q 1175 2209 1959 2209 
L 2766 2209 
L 2766 2266 
Q 2766 2663 2505 2880 
Q 2244 3097 1772 3097 
Q 1472 3097 1187 3025 
Q 903 2953 641 2809 
L 641 3341 
Q 956 3463 1253 3523 
Q 1550 3584 1831 3584 
Q 2591 3584 2966 3190 
Q 3341 2797 3341 1997 
z
" transform="scale(0.015625)"/>
       <path id="DejaVuSans-4a" d="M 2906 1791 
Q 2906 2416 2648 2759 
Q 2391 3103 1925 3103 
Q 1463 3103 1205 2759 
Q 947 2416 947 1791 
Q 947 1169 1205 825 
Q 1463 481 1925 481 
Q 2391 481 2648 825 
Q 2906 1169 2906 1791 
z
M 3481 434 
Q 3481 -459 3084 -895 
Q 2688 -1331 1869 -1331 
Q 1566 -1331 1297 -1286 
Q 1028 -1241 775 -1147 
L 775 -588 
Q 1028 -725 1275 -790 
Q 1522 -856 1778 -856 
Q 2344 -856 2625 -561 
Q 2906 -266 2906 331 
L 2906 616 
Q 2728 306 2450 153 
Q 2172 0 1784 0 
Q 1141 0 747 490 
Q 353 981 353 1791 
Q 353 2603 747 3093 
Q 1141 3584 1784 3584 
Q 2172 3584 2450 3431 
Q 2728 3278 2906 2969 
L 2906 3500 
L 3481 3500 
L 3481 434 
z
" transform="scale(0.015625)"/>
       <path id="DejaVuSans-51" d="M 3513 2113 
L 3513 0 
L 2938 0 
L 2938 2094 
Q 2938 2591 2744 2837 
Q 2550 3084 2163 3084 
Q 1697 3084 1428 2787 
Q 1159 2491 1159 1978 
L 1159 0 
L 581 0 
L 581 3500 
L 1159 3500 
L 1159 2956 
Q 1366 3272 1645 3428 
Q 1925 3584 2291 3584 
Q 2894 3584 3203 3211 
Q 3513 2838 3513 2113 
z
" transform="scale(0.015625)"/>
       <path id="DejaVuSans-4c" d="M 603 3500 
L 1178 3500 
L 1178 0 
L 603 0 
L 603 3500 
z
M 603 4863 
L 1178 4863 
L 1178 4134 
L 603 4134 
L 603 4863 
z
" transform="scale(0.015625)"/>
       <path id="DejaVuSans-57" d="M 1172 4494 
L 1172 3500 
L 2356 3500 
L 2356 3053 
L 1172 3053 
L 1172 1153 
Q 1172 725 1289 603 
Q 1406 481 1766 481 
L 2356 481 
L 2356 0 
L 1766 0 
Q 1100 0 847 248 
Q 594 497 594 1153 
L 594 3053 
L 172 3053 
L 172 3500 
L 594 3500 
L 594 4494 
L 1172 4494 
z
" transform="scale(0.015625)"/>
       <path id="DejaVuSans-58" d="M 544 1381 
L 544 3500 
L 1119 3500 
L 1119 1403 
Q 1119 906 1312 657 
Q 1506 409 1894 409 
Q 2359 409 2629 706 
Q 2900 1003 2900 1516 
L 2900 3500 
L 3475 3500 
L 3475 0 
L 2900 0 
L 2900 538 
Q 2691 219 2414 64 
Q 2138 -91 1772 -91 
Q 1169 -91 856 284 
Q 544 659 544 1381 
z
M 1991 3584 
L 1991 3584 
z
" transform="scale(0.015625)"/>
       <path id="DejaVuSans-47" d="M 2906 2969 
L 2906 4863 
L 3481 4863 
L 3481 0 
L 2906 0 
L 2906 525 
Q 2725 213 2448 61 
Q 2172 -91 1784 -91 
Q 1150 -91 751 415 
Q 353 922 353 1747 
Q 353 2572 751 3078 
Q 1150 3584 1784 3584 
Q 2172 3584 2448 3432 
Q 2725 3281 2906 2969 
z
M 947 1747 
Q 947 1113 1208 752 
Q 1469 391 1925 391 
Q 2381 391 2643 752 
Q 2906 1113 2906 1747 
Q 2906 2381 2643 2742 
Q 2381 3103 1925 3103 
Q 1469 3103 1208 2742 
Q 947 2381 947 1747 
z
" transform="scale(0.015625)"/>
      </defs>
      <use xlink:href="#DejaVuSans-30"/>
      <use xlink:href="#DejaVuSans-44" transform="translate(86.28125 0)"/>
      <use xlink:href="#DejaVuSans-4a" transform="translate(147.5625 0)"/>
      <use xlink:href="#DejaVuSans-51" transform="translate(211.046875 0)"/>
      <use xlink:href="#DejaVuSans-4c" transform="translate(274.421875 0)"/>
      <use xlink:href="#DejaVuSans-57" transform="translate(302.203125 0)"/>
      <use xlink:href="#DejaVuSans-58" transform="translate(341.40625 0)"/>
      <use xlink:href="#DejaVuSans-47" transform="translate(404.78125 0)"/>
      <use xlink:href="#DejaVuSans-48" transform="translate(468.265625 0)"/>
     </g>
    </g>
   </g>
   <g id="line2d_91">
    <path d="M 75.832638 103.163457 
L 81.406561 99.858751 
L 86.980484 98.512631 
L 92.554407 99.237441 
L 96.270355 101.254295 
L 99.986303 105.244552 
L 103.702252 113.293434 
L 105.560226 121.389403 
L 107.4182 144.086523 
L 111.134149 116.195719 
L 114.850097 105.471309 
L 118.566046 100.474848 
L 122.281994 98.445269 
L 125.997943 98.99904 
L 129.713891 102.898413 
L 131.571865 106.985001 
L 133.42984 114.179831 
L 135.287814 132.519381 
L 137.145788 125.222711 
L 140.861736 104.84409 
L 144.577685 98.931668 
L 146.435659 98.119393 
L 148.293633 98.582673 
L 150.151608 100.531138 
L 152.009582 104.611654 
L 153.867556 112.928828 
L 155.72553 146.373588 
L 157.583504 115.530879 
L 161.299453 100.257323 
L 163.157427 98.082233 
L 165.015401 98.047638 
L 166.873376 100.345605 
L 168.73135 106.238254 
L 170.589324 122.784792 
L 172.447298 118.41554 
L 174.305272 104.377368 
L 176.163247 99.000087 
L 178.021221 97.411006 
L 179.879195 99.07841 
L 181.737169 105.399597 
L 183.595144 128.853114 
L 187.311092 100.402454 
L 189.169066 97.04762 
L 191.027041 98.289112 
L 192.885015 105.808114 
L 194.742989 158.598302 
L 196.600963 104.617687 
L 198.458937 97.2972 
L 200.316912 96.89839 
L 202.174886 103.767253 
L 204.03286 147.022921 
L 205.890834 102.027741 
L 207.748809 95.861655 
L 209.606783 98.002409 
L 211.464757 115.049934 
L 215.180705 95.527436 
L 217.03868 96.698091 
L 218.896654 115.91822 
L 222.612602 93.931527 
L 224.470577 99.002889 
L 226.328551 120.241582 
L 228.186525 94.553487 
L 230.044499 94.40221 
L 231.902474 129.851356 
L 233.760448 94.661825 
L 235.618422 92.494384 
L 237.476396 130.520066 
L 239.33437 92.111183 
L 241.192345 92.235326 
L 243.050319 111.51191 
L 244.908293 87.971559 
L 246.766267 97.689022 
L 250.482216 86.612539 
L 252.34019 102.78386 
L 254.198164 81.845745 
L 256.056138 115.190315 
L 257.914113 78.066373 
L 259.772087 93.046092 
L 261.630061 72.102718 
L 263.488035 82.229397 
L 265.34601 57.737848 
L 267.203984 48.309535 
L 269.061958 54.317663 
L 270.919932 99.102074 
L 272.777906 73.210688 
L 274.635881 85.488311 
L 276.493855 88.349267 
L 278.351829 84.599226 
L 280.209803 113.700752 
L 282.067778 92.404214 
L 283.925752 92.475817 
L 285.783726 116.521922 
L 287.6417 101.390121 
L 289.499675 96.865038 
L 291.357649 103.581708 
L 293.215623 142.894168 
L 295.073597 109.580073 
L 296.931571 103.844969 
L 298.789546 104.395381 
L 300.64752 108.498766 
L 302.505494 115.807361 
L 304.363468 127.841838 
L 306.221443 161.570636 
L 308.079417 140.70378 
L 309.937391 135.300891 
L 311.795365 137.345942 
L 313.653339 149.563854 
L 315.511314 148.07254 
L 317.369288 130.200548 
L 321.085236 118.62125 
L 322.943211 118.959074 
L 324.801185 126.006386 
L 326.659159 160.471734 
L 328.517133 124.668765 
L 330.375108 123.386642 
L 332.233082 153.706255 
L 334.091056 126.122614 
L 335.94903 131.15526 
L 337.807004 132.212362 
L 339.664979 131.242915 
L 341.522953 132.025193 
L 343.380927 140.897268 
L 345.238901 129.699574 
L 347.096876 141.70961 
L 348.95485 144.970365 
L 350.812824 133.607215 
L 352.670798 133.350561 
L 358.244721 144.846882 
L 360.102695 144.571641 
L 363.818644 139.013384 
L 365.676618 139.462708 
L 369.392566 154.27961 
L 371.250541 141.484216 
L 373.108515 164.413345 
L 374.966489 143.494073 
L 376.824463 203.316268 
L 378.682437 146.016785 
L 380.540412 147.506644 
L 382.398386 160.881792 
L 384.25636 186.015385 
L 386.114334 167.028792 
L 387.972309 170.448978 
L 389.830283 187.384825 
L 391.688257 157.843474 
L 393.546231 151.225364 
L 395.404205 161.648064 
L 397.26218 156.756214 
L 399.120154 162.364399 
L 400.978128 154.499449 
L 402.836102 163.602627 
L 404.694077 192.09471 
L 406.552051 190.442059 
L 408.410025 199.65944 
L 410.267999 167.630483 
L 412.125973 159.245837 
L 413.983948 170.242858 
L 415.841922 162.43342 
L 417.699896 198.108658 
L 419.55787 166.3832 
L 421.415845 163.930461 
L 423.273819 165.043983 
L 425.131793 171.50881 
L 426.989767 185.170363 
L 428.847742 166.066893 
L 430.705716 183.019187 
L 434.421664 172.894587 
L 436.279638 176.415223 
L 438.137613 216.387347 
L 439.995587 171.367361 
L 441.853561 201.773639 
L 443.711535 175.252638 
L 445.56951 174.025297 
L 447.427484 178.036589 
L 449.285458 204.752994 
L 451.143432 175.282902 
L 454.859381 186.851165 
L 456.717355 180.585492 
L 458.575329 179.811175 
L 460.433303 184.937275 
L 462.291278 208.639805 
L 464.149252 198.155529 
L 466.007226 181.91832 
L 467.8652 207.028076 
L 469.723175 187.843825 
L 471.581149 193.327696 
L 473.439123 192.729787 
L 475.297097 193.610887 
L 477.155071 190.011447 
L 479.013046 214.900813 
L 480.87102 186.875081 
L 482.728994 190.036069 
L 484.586968 188.299804 
L 486.444943 220.32352 
L 488.302917 197.17573 
L 490.160891 223.6948 
L 492.018865 191.06251 
L 493.876839 192.276998 
L 495.734814 195.376294 
L 499.450762 194.092224 
L 501.308736 213.154125 
L 503.166711 203.639041 
L 505.024685 207.655639 
L 506.882659 216.056243 
L 508.740633 208.340777 
L 510.598607 209.219798 
L 512.456582 227.894718 
L 514.314556 202.40027 
L 516.17253 215.197943 
L 518.030504 201.011968 
L 519.888479 211.113848 
L 521.746453 202.781381 
L 523.604427 234.809991 
L 527.320376 203.641625 
L 531.036324 205.910956 
L 534.752272 219.684993 
L 536.610247 207.962033 
L 538.468221 222.441838 
L 538.468221 222.441838 
" clip-path="url(#p8bea1c7a8c)" style="fill: none; stroke: #e41a1c; stroke-width: 2; stroke-linecap: square"/>
   </g>
   <g id="line2d_92">
    <path d="M 75.832638 63.797622 
L 83.264535 62.235382 
L 88.838458 62.693129 
L 94.412381 65.025291 
L 99.986303 70.194587 
L 105.560226 77.679216 
L 107.4182 77.844706 
L 111.134149 72.658173 
L 116.708071 65.352609 
L 120.42402 62.977517 
L 124.139968 62.552707 
L 127.855917 64.386573 
L 131.571865 69.64249 
L 133.42984 74.619538 
L 137.145788 91.250587 
L 140.861736 73.82961 
L 144.577685 66.472573 
L 148.293633 64.898817 
L 150.151608 65.93657 
L 152.009582 68.432079 
L 157.583504 83.553787 
L 161.299453 70.846551 
L 163.157427 67.883425 
L 165.015401 67.088892 
L 166.873376 68.446905 
L 168.73135 72.590904 
L 172.447298 88.037675 
L 176.163247 69.343639 
L 178.021221 66.873772 
L 179.879195 67.443124 
L 181.737169 71.592212 
L 185.453118 95.39264 
L 187.311092 75.775684 
L 189.169066 70.499592 
L 191.027041 70.719524 
L 192.885015 76.656318 
L 194.742989 88.215338 
L 198.458937 69.987962 
L 200.316912 70.545686 
L 202.174886 80.135739 
L 204.03286 82.521419 
L 205.890834 67.76476 
L 207.748809 63.509281 
L 209.606783 65.845734 
L 211.464757 79.471954 
L 213.322731 78.427666 
L 215.180705 66.70746 
L 217.03868 67.309127 
L 218.896654 79.265924 
L 222.612602 65.885525 
L 224.470577 74.556227 
L 226.328551 76.044766 
L 228.186525 61.236914 
L 230.044499 61.961912 
L 231.902474 85.642429 
L 233.760448 65.660647 
L 235.618422 63.394849 
L 237.476396 96.115418 
L 239.33437 62.367834 
L 241.192345 64.001995 
L 243.050319 74.91548 
L 244.908293 57.39202 
L 246.766267 70.352444 
L 248.624242 58.554953 
L 250.482216 55.345195 
L 252.34019 72.931218 
L 254.198164 52.103933 
L 256.056138 100.119409 
L 257.914113 46.147795 
L 259.772087 59.740091 
L 261.630061 42.269838 
L 263.488035 53.108185 
L 265.34601 27.234959 
L 267.203984 18.038571 
L 269.061958 24.220582 
L 270.919932 66.659652 
L 272.777906 42.885518 
L 274.635881 56.273047 
L 276.493855 59.821399 
L 278.351829 54.324289 
L 280.209803 79.36859 
L 282.067778 63.321781 
L 283.925752 61.350284 
L 285.783726 80.080159 
L 287.6417 67.104872 
L 289.499675 66.218537 
L 291.357649 78.875466 
L 293.215623 122.565276 
L 295.073597 81.307984 
L 296.931571 74.743541 
L 298.789546 80.003096 
L 300.64752 70.62821 
L 302.505494 89.596491 
L 304.363468 91.066236 
L 306.221443 83.344449 
L 308.079417 82.702316 
L 309.937391 97.576467 
L 311.795365 95.509847 
L 313.653339 95.544503 
L 315.511314 72.819825 
L 317.369288 91.92353 
L 321.085236 106.356856 
L 322.943211 98.560543 
L 324.801185 98.302499 
L 326.659159 87.78549 
L 328.517133 97.15366 
L 330.375108 94.958152 
L 332.233082 95.895757 
L 334.091056 89.690236 
L 335.94903 95.741532 
L 337.807004 90.857949 
L 339.664979 104.150525 
L 341.522953 101.233237 
L 343.380927 59.980528 
L 345.238901 78.987017 
L 347.096876 85.415215 
L 348.95485 83.795962 
L 350.812824 91.692068 
L 352.670798 91.314472 
L 354.528772 95.316545 
L 356.386747 89.625934 
L 360.102695 106.945003 
L 363.818644 84.574643 
L 365.676618 88.448742 
L 367.534592 99.524891 
L 369.392566 94.48821 
L 371.250541 86.314778 
L 373.108515 86.280862 
L 374.966489 87.290688 
L 376.824463 153.618657 
L 378.682437 89.33903 
L 380.540412 122.419996 
L 382.398386 88.597779 
L 384.25636 107.961754 
L 386.114334 113.766436 
L 387.972309 111.818642 
L 389.830283 95.532929 
L 391.688257 99.060167 
L 393.546231 110.885709 
L 397.26218 88.855129 
L 400.978128 113.644705 
L 402.836102 114.14096 
L 410.267999 100.12633 
L 412.125973 116.240372 
L 413.983948 118.683469 
L 415.841922 105.965622 
L 417.699896 120.007442 
L 419.55787 124.382112 
L 421.415845 105.625304 
L 423.273819 112.587879 
L 425.131793 113.804303 
L 426.989767 108.032502 
L 428.847742 107.688279 
L 430.705716 117.737883 
L 432.56369 108.090648 
L 434.421664 109.169189 
L 439.995587 131.811844 
L 441.853561 130.253253 
L 443.711535 115.131605 
L 445.56951 125.542933 
L 447.427484 119.876207 
L 449.285458 118.927595 
L 451.143432 115.220252 
L 453.001406 128.594366 
L 454.859381 127.204535 
L 458.575329 133.34801 
L 460.433303 125.863578 
L 464.149252 122.910034 
L 466.007226 138.001556 
L 467.8652 127.253295 
L 469.723175 123.828965 
L 471.581149 143.608612 
L 473.439123 127.621994 
L 475.297097 123.263838 
L 479.013046 152.792018 
L 480.87102 132.492469 
L 482.728994 126.461288 
L 484.586968 134.893076 
L 486.444943 131.674216 
L 488.302917 133.431651 
L 490.160891 130.277686 
L 492.018865 133.996093 
L 493.876839 158.309905 
L 497.592788 132.60724 
L 499.450762 137.176769 
L 501.308736 137.991087 
L 503.166711 148.905799 
L 505.024685 150.058945 
L 506.882659 128.303591 
L 508.740633 140.134212 
L 510.598607 135.332184 
L 512.456582 145.937393 
L 514.314556 163.836755 
L 516.17253 142.343783 
L 518.030504 146.093612 
L 519.888479 140.704759 
L 521.746453 142.679108 
L 523.604427 158.157902 
L 525.462401 155.7798 
L 527.320376 148.418348 
L 529.17835 162.387087 
L 531.036324 134.462285 
L 532.894298 159.797672 
L 534.752272 144.83608 
L 536.610247 147.137944 
L 538.468221 141.521987 
L 538.468221 141.521987 
" clip-path="url(#p8bea1c7a8c)" style="fill: none; stroke: #377eb8; stroke-width: 2; stroke-linecap: square"/>
   </g>
   <g id="patch_3">
    <path d="M 52.700859 239.796797 
L 52.700859 7.2 
" style="fill: none; stroke: #7f7f7f; stroke-width: 1.8; stroke-linejoin: miter; stroke-linecap: square"/>
   </g>
   <g id="patch_4">
    <path d="M 52.700859 239.796797 
L 561.6 239.796797 
" style="fill: none; stroke: #7f7f7f; stroke-width: 1.8; stroke-linejoin: miter; stroke-linecap: square"/>
   </g>
   <g id="legend_1">
    <g id="line2d_93">
     <path d="M 503.101562 20.298437 
L 513.101562 20.298437 
L 523.101562 20.298437 
" style="fill: none; stroke: #e41a1c; stroke-width: 2; stroke-linecap: square"/>
    </g>
    <g id="text_14">
     <!-- Src -->
     <g style="fill: #7f7f7f" transform="translate(531.101562 23.798437) scale(0.1 -0.1)">
      <defs>
       <path id="DejaVuSans-36" d="M 3425 4513 
L 3425 3897 
Q 3066 4069 2747 4153 
Q 2428 4238 2131 4238 
Q 1616 4238 1336 4038 
Q 1056 3838 1056 3469 
Q 1056 3159 1242 3001 
Q 1428 2844 1947 2747 
L 2328 2669 
Q 3034 2534 3370 2195 
Q 3706 1856 3706 1288 
Q 3706 609 3251 259 
Q 2797 -91 1919 -91 
Q 1588 -91 1214 -16 
Q 841 59 441 206 
L 441 856 
Q 825 641 1194 531 
Q 1563 422 1919 422 
Q 2459 422 2753 634 
Q 3047 847 3047 1241 
Q 3047 1584 2836 1778 
Q 2625 1972 2144 2069 
L 1759 2144 
Q 1053 2284 737 2584 
Q 422 2884 422 3419 
Q 422 4038 858 4394 
Q 1294 4750 2059 4750 
Q 2388 4750 2728 4690 
Q 3069 4631 3425 4513 
z
" transform="scale(0.015625)"/>
       <path id="DejaVuSans-46" d="M 3122 3366 
L 3122 2828 
Q 2878 2963 2633 3030 
Q 2388 3097 2138 3097 
Q 1578 3097 1268 2742 
Q 959 2388 959 1747 
Q 959 1106 1268 751 
Q 1578 397 2138 397 
Q 2388 397 2633 464 
Q 2878 531 3122 666 
L 3122 134 
Q 2881 22 2623 -34 
Q 2366 -91 2075 -91 
Q 1284 -91 818 406 
Q 353 903 353 1747 
Q 353 2603 823 3093 
Q 1294 3584 2113 3584 
Q 2378 3584 2631 3529 
Q 2884 3475 3122 3366 
z
" transform="scale(0.015625)"/>
      </defs>
      <use xlink:href="#DejaVuSans-36"/>
      <use xlink:href="#DejaVuSans-55" transform="translate(63.484375 0)"/>
      <use xlink:href="#DejaVuSans-46" transform="translate(102.390625 0)"/>
     </g>
    </g>
    <g id="line2d_94">
     <path d="M 503.101562 35.299219 
L 513.101562 35.299219 
L 523.101562 35.299219 
" style="fill: none; stroke: #377eb8; stroke-width: 2; stroke-linecap: square"/>
    </g>
    <g id="text_15">
     <!-- AMP -->
     <g style="fill: #7f7f7f" transform="translate(531.101562 38.799219) scale(0.1 -0.1)">
      <defs>
       <path id="DejaVuSans-24" d="M 2188 4044 
L 1331 1722 
L 3047 1722 
L 2188 4044 
z
M 1831 4666 
L 2547 4666 
L 4325 0 
L 3669 0 
L 3244 1197 
L 1141 1197 
L 716 0 
L 50 0 
L 1831 4666 
z
" transform="scale(0.015625)"/>
       <path id="DejaVuSans-33" d="M 1259 4147 
L 1259 2394 
L 2053 2394 
Q 2494 2394 2734 2622 
Q 2975 2850 2975 3272 
Q 2975 3691 2734 3919 
Q 2494 4147 2053 4147 
L 1259 4147 
z
M 628 4666 
L 2053 4666 
Q 2838 4666 3239 4311 
Q 3641 3956 3641 3272 
Q 3641 2581 3239 2228 
Q 2838 1875 2053 1875 
L 1259 1875 
L 1259 0 
L 628 0 
L 628 4666 
z
" transform="scale(0.015625)"/>
      </defs>
      <use xlink:href="#DejaVuSans-24"/>
      <use xlink:href="#DejaVuSans-30" transform="translate(68.40625 0)"/>
      <use xlink:href="#DejaVuSans-33" transform="translate(154.6875 0)"/>
     </g>
    </g>
   </g>
  </g>
 </g>
 <defs>
  <clipPath id="p8bea1c7a8c">
   <rect x="52.700859" y="7.2" width="508.899141" height="232.596797"/>
  </clipPath>
 </defs>
</svg>
