<?xml version="1.0" encoding="utf-8" standalone="no"?>
<!DOCTYPE svg PUBLIC "-//W3C//DTD SVG 1.1//EN"
  "http://www.w3.org/Graphics/SVG/1.1/DTD/svg11.dtd">
<svg xmlns:xlink="http://www.w3.org/1999/xlink" width="568.8pt" height="280.8pt" viewBox="0 0 568.8 280.8" xmlns="http://www.w3.org/2000/svg" version="1.1">
 <metadata>
  <rdf:RDF xmlns:dc="http://purl.org/dc/elements/1.1/" xmlns:cc="http://creativecommons.org/ns#" xmlns:rdf="http://www.w3.org/1999/02/22-rdf-syntax-ns#">
   <cc:Work>
    <dc:type rdf:resource="http://purl.org/dc/dcmitype/StillImage"/>
    <dc:date>2026-06-20T12:46:56.502076</dc:date>
    <dc:format>image/svg+xml</dc:format>
    <dc:creator>
     <cc:Agent>
      <dc:title>Matplotlib v3.11.0, https://matplotlib.org/</dc:title>
     </cc:Agent>
    </dc:creator>
   </cc:Work>
  </rdf:RDF>
 </metadata>
 <defs>
  <style type="text/css">*{stroke-linejoin: round; stroke-linecap: butt}</style>
 </defs>
 <g id="figure_1">
  <g id="patch_1">
   <path d="M 0 280.8 
L 568.8 280.8 
L 568.8 0 
L 0 0 
L 0 280.8 
z
" style="fill: none"/>
  </g>
  <g id="axes_1">
   <g id="patch_2">
    <path d="M 30.103125 241.599141 
L 561.6 241.599141 
L 561.6 7.2 
L 30.103125 7.2 
L 30.103125 241.599141 
z
" style="fill: none"/>
   </g>
   <g id="matplotlib.axis_1">
    <g id="xtick_1">
     <g id="line2d_1">
      <path d="M 54.262074 241.599141 
L 54.262074 7.2 
" clip-path="url(#p84aea216b1)" style="fill: none; stroke-dasharray: 2.96,1.28; stroke-dashoffset: 0; stroke: #7f7f7f; stroke-opacity: 0.6; stroke-width: 0.8"/>
     </g>
     <g id="line2d_2">
      <defs>
       <path id="mb0fa853179" d="M 0 0 
L 0 3.5 
" style="stroke: #7f7f7f; stroke-width: 1.8"/>
      </defs>
      <g>
       <use xlink:href="#mb0fa853179" x="54.262074" y="241.599141" style="fill: #7f7f7f; stroke: #7f7f7f; stroke-width: 1.8"/>
      </g>
     </g>
     <g id="text_1">
      <!-- 0 -->
      <g style="fill: #7f7f7f" transform="translate(51.080824 256.196797) scale(0.1 -0.1)">
       <defs>
        <path id="DejaVuSans-13" d="M 2034 4250 
Q 1547 4250 1301 3770 
Q 1056 3291 1056 2328 
Q 1056 1369 1301 889 
Q 1547 409 2034 409 
Q 2525 409 2770 889 
Q 3016 1369 3016 2328 
Q 3016 3291 2770 3770 
Q 2525 4250 2034 4250 
z
M 2034 4750 
Q 2819 4750 3233 4129 
Q 3647 3509 3647 2328 
Q 3647 1150 3233 529 
Q 2819 -91 2034 -91 
Q 1250 -91 836 529 
Q 422 1150 422 2328 
Q 422 3509 836 4129 
Q 1250 4750 2034 4750 
z
" transform="scale(0.015625)"/>
       </defs>
       <use xlink:href="#DejaVuSans-13"/>
      </g>
     </g>
    </g>
    <g id="xtick_2">
     <g id="line2d_3">
      <path d="M 150.897869 241.599141 
L 150.897869 7.2 
" clip-path="url(#p84aea216b1)" style="fill: none; stroke-dasharray: 2.96,1.28; stroke-dashoffset: 0; stroke: #7f7f7f; stroke-opacity: 0.6; stroke-width: 0.8"/>
     </g>
     <g id="line2d_4">
      <g>
       <use xlink:href="#mb0fa853179" x="150.897869" y="241.599141" style="fill: #7f7f7f; stroke: #7f7f7f; stroke-width: 1.8"/>
      </g>
     </g>
     <g id="text_2">
      <!-- 20 -->
      <g style="fill: #7f7f7f" transform="translate(144.535369 256.196797) scale(0.1 -0.1)">
       <defs>
        <path id="DejaVuSans-15" d="M 1228 531 
L 3431 531 
L 3431 0 
L 469 0 
L 469 531 
Q 828 903 1448 1529 
Q 2069 2156 2228 2338 
Q 2531 2678 2651 2914 
Q 2772 3150 2772 3378 
Q 2772 3750 2511 3984 
Q 2250 4219 1831 4219 
Q 1534 4219 1204 4116 
Q 875 4013 500 3803 
L 500 4441 
Q 881 4594 1212 4672 
Q 1544 4750 1819 4750 
Q 2544 4750 2975 4387 
Q 3406 4025 3406 3419 
Q 3406 3131 3298 2873 
Q 3191 2616 2906 2266 
Q 2828 2175 2409 1742 
Q 1991 1309 1228 531 
z
" transform="scale(0.015625)"/>
       </defs>
       <use xlink:href="#DejaVuSans-15"/>
       <use xlink:href="#DejaVuSans-13" transform="translate(63.625 0)"/>
      </g>
     </g>
    </g>
    <g id="xtick_3">
     <g id="line2d_5">
      <path d="M 247.533665 241.599141 
L 247.533665 7.2 
" clip-path="url(#p84aea216b1)" style="fill: none; stroke-dasharray: 2.96,1.28; stroke-dashoffset: 0; stroke: #7f7f7f; stroke-opacity: 0.6; stroke-width: 0.8"/>
     </g>
     <g id="line2d_6">
      <g>
       <use xlink:href="#mb0fa853179" x="247.533665" y="241.599141" style="fill: #7f7f7f; stroke: #7f7f7f; stroke-width: 1.8"/>
      </g>
     </g>
     <g id="text_3">
      <!-- 40 -->
      <g style="fill: #7f7f7f" transform="translate(241.171165 256.196797) scale(0.1 -0.1)">
       <defs>
        <path id="DejaVuSans-17" d="M 2419 4116 
L 825 1625 
L 2419 1625 
L 2419 4116 
z
M 2253 4666 
L 3047 4666 
L 3047 1625 
L 3713 1625 
L 3713 1100 
L 3047 1100 
L 3047 0 
L 2419 0 
L 2419 1100 
L 313 1100 
L 313 1709 
L 2253 4666 
z
" transform="scale(0.015625)"/>
       </defs>
       <use xlink:href="#DejaVuSans-17"/>
       <use xlink:href="#DejaVuSans-13" transform="translate(63.625 0)"/>
      </g>
     </g>
    </g>
    <g id="xtick_4">
     <g id="line2d_7">
      <path d="M 344.16946 241.599141 
L 344.16946 7.2 
" clip-path="url(#p84aea216b1)" style="fill: none; stroke-dasharray: 2.96,1.28; stroke-dashoffset: 0; stroke: #7f7f7f; stroke-opacity: 0.6; stroke-width: 0.8"/>
     </g>
     <g id="line2d_8">
      <g>
       <use xlink:href="#mb0fa853179" x="344.16946" y="241.599141" style="fill: #7f7f7f; stroke: #7f7f7f; stroke-width: 1.8"/>
      </g>
     </g>
     <g id="text_4">
      <!-- 60 -->
      <g style="fill: #7f7f7f" transform="translate(337.80696 256.196797) scale(0.1 -0.1)">
       <defs>
        <path id="DejaVuSans-19" d="M 2113 2584 
Q 1688 2584 1439 2293 
Q 1191 2003 1191 1497 
Q 1191 994 1439 701 
Q 1688 409 2113 409 
Q 2538 409 2786 701 
Q 3034 994 3034 1497 
Q 3034 2003 2786 2293 
Q 2538 2584 2113 2584 
z
M 3366 4563 
L 3366 3988 
Q 3128 4100 2886 4159 
Q 2644 4219 2406 4219 
Q 1781 4219 1451 3797 
Q 1122 3375 1075 2522 
Q 1259 2794 1537 2939 
Q 1816 3084 2150 3084 
Q 2853 3084 3261 2657 
Q 3669 2231 3669 1497 
Q 3669 778 3244 343 
Q 2819 -91 2113 -91 
Q 1303 -91 875 529 
Q 447 1150 447 2328 
Q 447 3434 972 4092 
Q 1497 4750 2381 4750 
Q 2619 4750 2861 4703 
Q 3103 4656 3366 4563 
z
" transform="scale(0.015625)"/>
       </defs>
       <use xlink:href="#DejaVuSans-19"/>
       <use xlink:href="#DejaVuSans-13" transform="translate(63.625 0)"/>
      </g>
     </g>
    </g>
    <g id="xtick_5">
     <g id="line2d_9">
      <path d="M 440.805256 241.599141 
L 440.805256 7.2 
" clip-path="url(#p84aea216b1)" style="fill: none; stroke-dasharray: 2.96,1.28; stroke-dashoffset: 0; stroke: #7f7f7f; stroke-opacity: 0.6; stroke-width: 0.8"/>
     </g>
     <g id="line2d_10">
      <g>
       <use xlink:href="#mb0fa853179" x="440.805256" y="241.599141" style="fill: #7f7f7f; stroke: #7f7f7f; stroke-width: 1.8"/>
      </g>
     </g>
     <g id="text_5">
      <!-- 80 -->
      <g style="fill: #7f7f7f" transform="translate(434.442756 256.196797) scale(0.1 -0.1)">
       <defs>
        <path id="DejaVuSans-1b" d="M 2034 2216 
Q 1584 2216 1326 1975 
Q 1069 1734 1069 1313 
Q 1069 891 1326 650 
Q 1584 409 2034 409 
Q 2484 409 2743 651 
Q 3003 894 3003 1313 
Q 3003 1734 2745 1975 
Q 2488 2216 2034 2216 
z
M 1403 2484 
Q 997 2584 770 2862 
Q 544 3141 544 3541 
Q 544 4100 942 4425 
Q 1341 4750 2034 4750 
Q 2731 4750 3128 4425 
Q 3525 4100 3525 3541 
Q 3525 3141 3298 2862 
Q 3072 2584 2669 2484 
Q 3125 2378 3379 2068 
Q 3634 1759 3634 1313 
Q 3634 634 3220 271 
Q 2806 -91 2034 -91 
Q 1263 -91 848 271 
Q 434 634 434 1313 
Q 434 1759 690 2068 
Q 947 2378 1403 2484 
z
M 1172 3481 
Q 1172 3119 1398 2916 
Q 1625 2713 2034 2713 
Q 2441 2713 2670 2916 
Q 2900 3119 2900 3481 
Q 2900 3844 2670 4047 
Q 2441 4250 2034 4250 
Q 1625 4250 1398 4047 
Q 1172 3844 1172 3481 
z
" transform="scale(0.015625)"/>
       </defs>
       <use xlink:href="#DejaVuSans-1b"/>
       <use xlink:href="#DejaVuSans-13" transform="translate(63.625 0)"/>
      </g>
     </g>
    </g>
    <g id="xtick_6">
     <g id="line2d_11">
      <path d="M 537.441051 241.599141 
L 537.441051 7.2 
" clip-path="url(#p84aea216b1)" style="fill: none; stroke-dasharray: 2.96,1.28; stroke-dashoffset: 0; stroke: #7f7f7f; stroke-opacity: 0.6; stroke-width: 0.8"/>
     </g>
     <g id="line2d_12">
      <g>
       <use xlink:href="#mb0fa853179" x="537.441051" y="241.599141" style="fill: #7f7f7f; stroke: #7f7f7f; stroke-width: 1.8"/>
      </g>
     </g>
     <g id="text_6">
      <!-- 100 -->
      <g style="fill: #7f7f7f" transform="translate(527.897301 256.196797) scale(0.1 -0.1)">
       <defs>
        <path id="DejaVuSans-14" d="M 794 531 
L 1825 531 
L 1825 4091 
L 703 3866 
L 703 4441 
L 1819 4666 
L 2450 4666 
L 2450 531 
L 3481 531 
L 3481 0 
L 794 0 
L 794 531 
z
" transform="scale(0.015625)"/>
       </defs>
       <use xlink:href="#DejaVuSans-14"/>
       <use xlink:href="#DejaVuSans-13" transform="translate(63.625 0)"/>
       <use xlink:href="#DejaVuSans-13" transform="translate(127.25 0)"/>
      </g>
     </g>
    </g>
    <g id="text_7">
     <!-- time [s] -->
     <g style="fill: #7f7f7f" transform="translate(274.521016 270.957422) scale(0.11 -0.11)">
      <defs>
       <path id="DejaVuSans-57" d="M 1172 4494 
L 1172 3500 
L 2356 3500 
L 2356 3053 
L 1172 3053 
L 1172 1153 
Q 1172 725 1289 603 
Q 1406 481 1766 481 
L 2356 481 
L 2356 0 
L 1766 0 
Q 1100 0 847 248 
Q 594 497 594 1153 
L 594 3053 
L 172 3053 
L 172 3500 
L 594 3500 
L 594 4494 
L 1172 4494 
z
" transform="scale(0.015625)"/>
       <path id="DejaVuSans-4c" d="M 603 3500 
L 1178 3500 
L 1178 0 
L 603 0 
L 603 3500 
z
M 603 4863 
L 1178 4863 
L 1178 4134 
L 603 4134 
L 603 4863 
z
" transform="scale(0.015625)"/>
       <path id="DejaVuSans-50" d="M 3328 2828 
Q 3544 3216 3844 3400 
Q 4144 3584 4550 3584 
Q 5097 3584 5394 3201 
Q 5691 2819 5691 2113 
L 5691 0 
L 5113 0 
L 5113 2094 
Q 5113 2597 4934 2840 
Q 4756 3084 4391 3084 
Q 3944 3084 3684 2787 
Q 3425 2491 3425 1978 
L 3425 0 
L 2847 0 
L 2847 2094 
Q 2847 2600 2669 2842 
Q 2491 3084 2119 3084 
Q 1678 3084 1418 2786 
Q 1159 2488 1159 1978 
L 1159 0 
L 581 0 
L 581 3500 
L 1159 3500 
L 1159 2956 
Q 1356 3278 1631 3431 
Q 1906 3584 2284 3584 
Q 2666 3584 2933 3390 
Q 3200 3197 3328 2828 
z
" transform="scale(0.015625)"/>
       <path id="DejaVuSans-48" d="M 3597 1894 
L 3597 1613 
L 953 1613 
Q 991 1019 1311 708 
Q 1631 397 2203 397 
Q 2534 397 2845 478 
Q 3156 559 3463 722 
L 3463 178 
Q 3153 47 2828 -22 
Q 2503 -91 2169 -91 
Q 1331 -91 842 396 
Q 353 884 353 1716 
Q 353 2575 817 3079 
Q 1281 3584 2069 3584 
Q 2775 3584 3186 3129 
Q 3597 2675 3597 1894 
z
M 3022 2063 
Q 3016 2534 2758 2815 
Q 2500 3097 2075 3097 
Q 1594 3097 1305 2825 
Q 1016 2553 972 2059 
L 3022 2063 
z
" transform="scale(0.015625)"/>
       <path id="DejaVuSans-3" transform="scale(0.015625)"/>
       <path id="DejaVuSans-3e" d="M 550 4863 
L 1875 4863 
L 1875 4416 
L 1125 4416 
L 1125 -397 
L 1875 -397 
L 1875 -844 
L 550 -844 
L 550 4863 
z
" transform="scale(0.015625)"/>
       <path id="DejaVuSans-56" d="M 2834 3397 
L 2834 2853 
Q 2591 2978 2328 3040 
Q 2066 3103 1784 3103 
Q 1356 3103 1142 2972 
Q 928 2841 928 2578 
Q 928 2378 1081 2264 
Q 1234 2150 1697 2047 
L 1894 2003 
Q 2506 1872 2764 1633 
Q 3022 1394 3022 966 
Q 3022 478 2636 193 
Q 2250 -91 1575 -91 
Q 1294 -91 989 -36 
Q 684 19 347 128 
L 347 722 
Q 666 556 975 473 
Q 1284 391 1588 391 
Q 1994 391 2212 530 
Q 2431 669 2431 922 
Q 2431 1156 2273 1281 
Q 2116 1406 1581 1522 
L 1381 1569 
Q 847 1681 609 1914 
Q 372 2147 372 2553 
Q 372 3047 722 3315 
Q 1072 3584 1716 3584 
Q 2034 3584 2315 3537 
Q 2597 3491 2834 3397 
z
" transform="scale(0.015625)"/>
       <path id="DejaVuSans-40" d="M 1947 4863 
L 1947 -844 
L 622 -844 
L 622 -397 
L 1369 -397 
L 1369 4416 
L 622 4416 
L 622 4863 
L 1947 4863 
z
" transform="scale(0.015625)"/>
      </defs>
      <use xlink:href="#DejaVuSans-57"/>
      <use xlink:href="#DejaVuSans-4c" transform="translate(39.203125 0)"/>
      <use xlink:href="#DejaVuSans-50" transform="translate(66.984375 0)"/>
      <use xlink:href="#DejaVuSans-48" transform="translate(164.390625 0)"/>
      <use xlink:href="#DejaVuSans-3" transform="translate(225.921875 0)"/>
      <use xlink:href="#DejaVuSans-3e" transform="translate(257.703125 0)"/>
      <use xlink:href="#DejaVuSans-56" transform="translate(296.71875 0)"/>
      <use xlink:href="#DejaVuSans-40" transform="translate(348.8125 0)"/>
     </g>
    </g>
   </g>
   <g id="matplotlib.axis_2">
    <g id="ytick_1">
     <g id="line2d_13">
      <path d="M 30.103125 213.724749 
L 561.6 213.724749 
" clip-path="url(#p84aea216b1)" style="fill: none; stroke-dasharray: 2.96,1.28; stroke-dashoffset: 0; stroke: #7f7f7f; stroke-opacity: 0.6; stroke-width: 0.8"/>
     </g>
     <g id="line2d_14">
      <defs>
       <path id="m1d6d3cdef1" d="M 0 0 
L -3.5 0 
" style="stroke: #7f7f7f; stroke-width: 1.8"/>
      </defs>
      <g>
       <use xlink:href="#m1d6d3cdef1" x="30.103125" y="213.724749" style="fill: #7f7f7f; stroke: #7f7f7f; stroke-width: 1.8"/>
      </g>
     </g>
     <g id="text_8">
      <!-- 0.0 -->
      <g style="fill: #7f7f7f" transform="translate(7.2 217.523577) scale(0.1 -0.1)">
       <defs>
        <path id="DejaVuSans-11" d="M 684 794 
L 1344 794 
L 1344 0 
L 684 0 
L 684 794 
z
" transform="scale(0.015625)"/>
       </defs>
       <use xlink:href="#DejaVuSans-13"/>
       <use xlink:href="#DejaVuSans-11" transform="translate(63.625 0)"/>
       <use xlink:href="#DejaVuSans-13" transform="translate(95.40625 0)"/>
      </g>
     </g>
    </g>
    <g id="ytick_2">
     <g id="line2d_15">
      <path d="M 30.103125 177.98451 
L 561.6 177.98451 
" clip-path="url(#p84aea216b1)" style="fill: none; stroke-dasharray: 2.96,1.28; stroke-dashoffset: 0; stroke: #7f7f7f; stroke-opacity: 0.6; stroke-width: 0.8"/>
     </g>
     <g id="line2d_16">
      <g>
       <use xlink:href="#m1d6d3cdef1" x="30.103125" y="177.98451" style="fill: #7f7f7f; stroke: #7f7f7f; stroke-width: 1.8"/>
      </g>
     </g>
     <g id="text_9">
      <!-- 0.2 -->
      <g style="fill: #7f7f7f" transform="translate(7.2 181.783338) scale(0.1 -0.1)">
       <use xlink:href="#DejaVuSans-13"/>
       <use xlink:href="#DejaVuSans-11" transform="translate(63.625 0)"/>
       <use xlink:href="#DejaVuSans-15" transform="translate(95.40625 0)"/>
      </g>
     </g>
    </g>
    <g id="ytick_3">
     <g id="line2d_17">
      <path d="M 30.103125 142.24427 
L 561.6 142.24427 
" clip-path="url(#p84aea216b1)" style="fill: none; stroke-dasharray: 2.96,1.28; stroke-dashoffset: 0; stroke: #7f7f7f; stroke-opacity: 0.6; stroke-width: 0.8"/>
     </g>
     <g id="line2d_18">
      <g>
       <use xlink:href="#m1d6d3cdef1" x="30.103125" y="142.24427" style="fill: #7f7f7f; stroke: #7f7f7f; stroke-width: 1.8"/>
      </g>
     </g>
     <g id="text_10">
      <!-- 0.4 -->
      <g style="fill: #7f7f7f" transform="translate(7.2 146.043099) scale(0.1 -0.1)">
       <use xlink:href="#DejaVuSans-13"/>
       <use xlink:href="#DejaVuSans-11" transform="translate(63.625 0)"/>
       <use xlink:href="#DejaVuSans-17" transform="translate(95.40625 0)"/>
      </g>
     </g>
    </g>
    <g id="ytick_4">
     <g id="line2d_19">
      <path d="M 30.103125 106.504031 
L 561.6 106.504031 
" clip-path="url(#p84aea216b1)" style="fill: none; stroke-dasharray: 2.96,1.28; stroke-dashoffset: 0; stroke: #7f7f7f; stroke-opacity: 0.6; stroke-width: 0.8"/>
     </g>
     <g id="line2d_20">
      <g>
       <use xlink:href="#m1d6d3cdef1" x="30.103125" y="106.504031" style="fill: #7f7f7f; stroke: #7f7f7f; stroke-width: 1.8"/>
      </g>
     </g>
     <g id="text_11">
      <!-- 0.6 -->
      <g style="fill: #7f7f7f" transform="translate(7.2 110.302859) scale(0.1 -0.1)">
       <use xlink:href="#DejaVuSans-13"/>
       <use xlink:href="#DejaVuSans-11" transform="translate(63.625 0)"/>
       <use xlink:href="#DejaVuSans-19" transform="translate(95.40625 0)"/>
      </g>
     </g>
    </g>
    <g id="ytick_5">
     <g id="line2d_21">
      <path d="M 30.103125 70.763792 
L 561.6 70.763792 
" clip-path="url(#p84aea216b1)" style="fill: none; stroke-dasharray: 2.96,1.28; stroke-dashoffset: 0; stroke: #7f7f7f; stroke-opacity: 0.6; stroke-width: 0.8"/>
     </g>
     <g id="line2d_22">
      <g>
       <use xlink:href="#m1d6d3cdef1" x="30.103125" y="70.763792" style="fill: #7f7f7f; stroke: #7f7f7f; stroke-width: 1.8"/>
      </g>
     </g>
     <g id="text_12">
      <!-- 0.8 -->
      <g style="fill: #7f7f7f" transform="translate(7.2 74.56262) scale(0.1 -0.1)">
       <use xlink:href="#DejaVuSans-13"/>
       <use xlink:href="#DejaVuSans-11" transform="translate(63.625 0)"/>
       <use xlink:href="#DejaVuSans-1b" transform="translate(95.40625 0)"/>
      </g>
     </g>
    </g>
    <g id="ytick_6">
     <g id="line2d_23">
      <path d="M 30.103125 35.023553 
L 561.6 35.023553 
" clip-path="url(#p84aea216b1)" style="fill: none; stroke-dasharray: 2.96,1.28; stroke-dashoffset: 0; stroke: #7f7f7f; stroke-opacity: 0.6; stroke-width: 0.8"/>
     </g>
     <g id="line2d_24">
      <g>
       <use xlink:href="#m1d6d3cdef1" x="30.103125" y="35.023553" style="fill: #7f7f7f; stroke: #7f7f7f; stroke-width: 1.8"/>
      </g>
     </g>
     <g id="text_13">
      <!-- 1.0 -->
      <g style="fill: #7f7f7f" transform="translate(7.2 38.822381) scale(0.1 -0.1)">
       <use xlink:href="#DejaVuSans-14"/>
       <use xlink:href="#DejaVuSans-11" transform="translate(63.625 0)"/>
       <use xlink:href="#DejaVuSans-13" transform="translate(95.40625 0)"/>
      </g>
     </g>
    </g>
   </g>
   <g id="line2d_25">
    <path d="M 54.262074 213.724749 
L 150.897867 213.724749 
L 151.812187 35.023553 
L 344.169394 35.023553 
L 345.160491 124.374151 
L 537.441051 124.374151 
L 537.441051 124.374151 
" clip-path="url(#p84aea216b1)" style="fill: none; stroke: #e41a1c; stroke-width: 2; stroke-linecap: square"/>
   </g>
   <g id="line2d_26">
    <path d="M 54.262074 213.724749 
L 54.310392 215.079583 
L 54.996016 213.059782 
L 55.253534 214.202906 
L 61.410372 213.65869 
L 61.82593 214.467511 
L 62.244744 213.866051 
L 63.525526 212.863617 
L 63.909856 214.116565 
L 64.297214 213.798599 
L 66.161817 213.157367 
L 66.948116 213.893921 
L 67.331152 213.517279 
L 68.389701 213.198574 
L 69.297151 214.47726 
L 69.621428 213.362054 
L 70.440118 213.542784 
L 70.832713 214.275098 
L 71.201076 212.971867 
L 71.57123 213.723878 
L 71.97216 214.153272 
L 72.408498 213.555966 
L 73.561861 213.83354 
L 74.953793 213.703033 
L 76.307906 213.838526 
L 77.560191 214.144135 
L 77.929681 213.309965 
L 78.302562 214.268325 
L 79.485307 214.26728 
L 80.675285 213.43871 
L 81.933726 213.565447 
L 83.653931 213.817007 
L 88.435569 213.41703 
L 90.140227 213.090107 
L 91.875977 214.075275 
L 93.407701 213.230699 
L 95.088394 214.26988 
L 96.286085 212.611816 
L 96.81235 214.22898 
L 97.369665 214.133328 
L 98.211683 212.945926 
L 98.585442 213.822339 
L 101.32737 214.116667 
L 101.702609 213.006116 
L 102.076505 213.660157 
L 103.680101 214.3347 
L 105.471381 213.85041 
L 106.159766 212.73356 
L 106.552587 213.882462 
L 108.040742 213.846017 
L 110.369091 213.369187 
L 111.883293 212.858441 
L 112.149233 213.625349 
L 115.204183 213.539673 
L 116.427857 213.631125 
L 118.235411 213.731968 
L 118.97267 213.009138 
L 119.307556 213.86546 
L 119.726334 214.065849 
L 120.151389 213.068973 
L 120.540878 213.692033 
L 122.321045 214.339372 
L 124.380095 214.351032 
L 124.775199 212.596334 
L 125.135744 213.690355 
L 127.548238 213.624294 
L 128.347685 213.157178 
L 128.707847 213.537467 
L 129.065452 214.001408 
L 129.4225 213.376198 
L 130.561288 213.631401 
L 131.264369 214.144259 
L 131.849224 212.645845 
L 132.127656 214.448837 
L 133.551658 213.53218 
L 134.541055 214.373094 
L 135.125365 213.487875 
L 142.102378 213.568353 
L 142.47748 212.906954 
L 143.267205 213.476114 
L 148.171828 213.475702 
L 148.591342 214.482463 
L 148.976479 213.707447 
L 149.437851 213.631783 
L 149.826725 214.909166 
L 150.462751 214.050996 
L 150.868039 214.317075 
L 150.8985 195.928925 
L 150.898116 221.511297 
L 151.812187 214.672524 
L 151.963289 215.845256 
L 152.593679 213.682858 
L 152.751712 214.851579 
L 153.870546 212.889513 
L 154.114985 214.689876 
L 154.612192 212.719767 
L 154.83222 214.03489 
L 158.415254 209.961497 
L 167.438465 172.321433 
L 179.883882 99.52101 
L 187.090393 64.025201 
L 190.336918 52.921098 
L 192.420116 46.262791 
L 201.689123 28.024269 
L 202.178906 27.989701 
L 204.0031 25.06322 
L 204.478554 24.564303 
L 204.933024 25.716856 
L 205.430693 24.365599 
L 206.008957 24.934827 
L 206.350012 24.114414 
L 206.686986 24.119238 
L 208.064633 23.27833 
L 208.954304 22.609992 
L 216.946208 22.755423 
L 218.911222 23.848061 
L 220.071534 24.344254 
L 220.55195 24.54679 
L 221.093579 23.63011 
L 221.639639 24.04065 
L 236.614906 31.002403 
L 237.099015 30.219232 
L 237.602072 30.928881 
L 238.849255 32.17425 
L 242.008335 32.839694 
L 242.377196 33.477599 
L 242.864889 33.013898 
L 252.904676 35.462446 
L 253.750892 34.716357 
L 254.196635 35.306639 
L 257.641681 35.729353 
L 258.882599 35.115828 
L 259.282624 36.451708 
L 260.104377 35.907255 
L 261.469962 36.139392 
L 262.746764 36.287338 
L 263.884842 35.665249 
L 265.252255 36.384979 
L 266.675562 35.616058 
L 269.013154 36.142451 
L 272.362937 35.689891 
L 273.957492 37.038576 
L 274.316583 35.920854 
L 275.086844 36.488204 
L 276.480849 35.557964 
L 277.704955 35.844258 
L 281.733387 36.287715 
L 282.174387 35.352936 
L 282.607785 35.712905 
L 283.034634 36.454602 
L 283.465303 35.204063 
L 285.14349 36.037968 
L 305.080625 35.242453 
L 305.985856 35.431727 
L 306.358988 34.362895 
L 306.736571 35.823423 
L 307.131993 34.679159 
L 307.537401 35.778819 
L 307.949468 35.316489 
L 309.71295 34.810957 
L 310.107547 35.944871 
L 310.909435 35.397677 
L 312.519947 36.115618 
L 312.933731 35.185718 
L 313.353454 35.720683 
L 322.656211 34.897141 
L 324.108076 34.352861 
L 325.11158 33.998412 
L 325.472987 35.173337 
L 325.859412 34.106427 
L 328.460347 35.127735 
L 328.862445 34.042789 
L 329.654612 34.734579 
L 331.653867 35.416069 
L 332.836696 33.730387 
L 334.034767 35.787383 
L 335.283547 35.066432 
L 335.754182 35.836815 
L 336.122685 34.483576 
L 336.848911 35.326025 
L 340.450106 34.825281 
L 340.858761 34.251185 
L 341.252539 35.633138 
L 341.986634 35.406513 
L 343.065826 34.263211 
L 343.438495 35.819272 
L 343.871484 34.294618 
L 344.089573 33.064762 
L 344.161388 35.85142 
L 344.164228 34.423255 
L 344.237314 38.975234 
L 344.169696 17.854506 
L 345.160491 35.103243 
L 346.701232 34.415452 
L 352.642008 37.655036 
L 355.038958 42.568089 
L 355.446929 42.238013 
L 360.225482 54.030944 
L 361.702522 58.302958 
L 371.10586 86.456949 
L 379.894366 108.810294 
L 381.042431 110.438927 
L 382.520211 113.138156 
L 384.608595 117.279282 
L 388.163841 122.530636 
L 388.982711 122.251938 
L 390.722309 124.689908 
L 401.097481 130.386411 
L 401.499004 129.553184 
L 401.899053 130.231894 
L 403.877251 130.707354 
L 405.127454 130.677027 
L 408.150061 130.975204 
L 408.643621 131.439436 
L 408.978372 130.807885 
L 410.487207 129.736039 
L 411.39282 130.667271 
L 411.829245 130.165159 
L 414.652495 129.560999 
L 415.07063 130.249158 
L 415.496392 129.674675 
L 419.975542 127.537589 
L 420.792729 128.568151 
L 421.14067 128.347633 
L 423.25867 127.79908 
L 441.218627 124.157151 
L 441.640279 125.660637 
L 442.022042 124.046984 
L 443.279412 123.869862 
L 445.004073 124.972584 
L 445.767373 124.03851 
L 447.110066 123.700258 
L 448.575785 124.247054 
L 449.505887 123.990576 
L 449.906069 124.556195 
L 450.281161 123.963584 
L 451.112062 123.365705 
L 452.158894 124.747641 
L 452.468804 124.052507 
L 453.221593 123.120038 
L 453.608883 124.220488 
L 454.014599 123.881366 
L 454.434225 122.914404 
L 454.854819 124.258672 
L 455.567372 123.344215 
L 455.879561 123.707441 
L 456.207827 124.642955 
L 456.597652 123.028891 
L 456.999119 124.327778 
L 458.321633 122.97214 
L 460.085729 123.899536 
L 460.482002 122.759496 
L 461.288154 123.301494 
L 462.53269 124.331228 
L 463.88365 123.664199 
L 465.096069 123.922533 
L 466.791277 123.65614 
L 467.169421 124.738347 
L 467.546207 123.997006 
L 467.938323 123.22992 
L 468.351117 124.149349 
L 474.782314 123.9359 
L 475.564834 123.381393 
L 475.983494 124.073044 
L 479.012107 124.532509 
L 480.436563 124.649843 
L 481.828205 124.354075 
L 483.054234 123.935282 
L 484.546742 124.287102 
L 486.349503 124.247572 
L 487.861059 123.765402 
L 488.226002 125.232959 
L 489.012828 124.983978 
L 490.725705 123.43936 
L 491.125132 124.421787 
L 491.530835 124.001704 
L 493.064408 124.211085 
L 494.668228 124.766804 
L 499.710641 124.374171 
L 500.115994 125.094322 
L 500.524639 124.753106 
L 507.123697 124.528808 
L 509.967239 124.395031 
L 510.346233 123.39002 
L 511.070445 123.971558 
L 511.439277 124.789914 
L 511.843192 124.101698 
L 520.290772 124.754989 
L 520.643347 124.160004 
L 520.992198 124.621092 
L 521.416702 125.166791 
L 521.845846 124.092706 
L 524.449846 124.652233 
L 526.176206 124.320699 
L 526.554281 125.805499 
L 526.934123 125.557143 
L 527.77019 124.698036 
L 528.215155 124.959067 
L 530.038122 124.298033 
L 531.676268 124.461645 
L 533.383267 124.124584 
L 534.549445 124.714867 
L 537.441051 123.970913 
L 537.441051 123.970913 
" clip-path="url(#p84aea216b1)" style="fill: none; stroke: #377eb8; stroke-width: 2; stroke-linecap: square"/>
   </g>
   <g id="line2d_27">
    <path d="M 54.262074 213.724749 
L 54.996016 215.050896 
L 54.542924 213.450912 
L 55.253534 213.797566 
L 56.432213 213.711722 
L 56.772991 212.783696 
L 57.083508 214.251967 
L 57.368232 213.116826 
L 58.350166 214.191584 
L 59.895866 213.002713 
L 61.103215 214.32251 
L 63.120651 213.283457 
L 63.909856 213.860913 
L 64.297214 213.63628 
L 66.161817 213.950849 
L 67.331152 214.411837 
L 68.389701 213.147991 
L 68.708032 213.384309 
L 69.011401 214.771326 
L 69.621428 213.876002 
L 70.440118 213.499351 
L 70.832713 214.247941 
L 71.201076 213.508361 
L 73.561861 213.977936 
L 78.734731 213.406911 
L 79.119468 214.21521 
L 79.825926 213.69225 
L 82.576895 214.925251 
L 82.843919 213.290893 
L 84.752254 213.735867 
L 89.710792 213.968081 
L 90.848181 213.72727 
L 91.216626 214.331969 
L 91.540766 213.224078 
L 91.875977 213.511303 
L 93.407701 213.99331 
L 94.31843 213.497315 
L 94.715503 214.256855 
L 95.088394 213.803252 
L 95.736833 212.89536 
L 96.004583 214.452399 
L 96.81235 214.270784 
L 99.709541 213.592325 
L 100.892295 214.093471 
L 101.702609 213.276055 
L 102.076505 213.908221 
L 103.240879 213.694617 
L 105.471381 213.690677 
L 106.902827 212.905163 
L 108.040742 213.819936 
L 110.369091 214.682412 
L 111.588716 212.927433 
L 111.883293 214.428588 
L 112.456602 212.643764 
L 112.740929 213.89231 
L 113.865647 213.130275 
L 114.169895 214.446854 
L 114.818985 213.938607 
L 116.039955 213.669816 
L 117.230978 214.217726 
L 117.572175 213.104163 
L 118.235411 213.608948 
L 120.151389 214.222161 
L 121.846969 213.948598 
L 124.005294 213.138717 
L 125.135744 213.618063 
L 126.934979 213.484494 
L 127.25292 214.714042 
L 127.975439 213.732043 
L 128.707847 214.309834 
L 129.7604 213.744443 
L 131.264369 212.958052 
L 131.849224 214.76464 
L 132.470147 214.289544 
L 133.908348 213.216997 
L 134.266786 213.454641 
L 134.541055 212.250032 
L 135.125365 213.859965 
L 135.510731 214.102614 
L 135.832192 212.914625 
L 136.45121 214.270365 
L 136.765794 214.339998 
L 137.579502 212.5187 
L 137.832492 213.531795 
L 141.688385 213.30351 
L 143.890684 214.541009 
L 144.545367 213.475959 
L 144.857882 214.675716 
L 145.554974 213.535546 
L 145.898217 214.420535 
L 150.893869 213.408789 
L 150.89627 214.02638 
L 150.8985 205.759142 
L 150.899753 230.944634 
L 151.812187 212.428115 
L 151.963289 213.777939 
L 152.903865 213.534276 
L 154.114985 209.900295 
L 154.612192 210.784801 
L 155.277024 210.085892 
L 156.553147 207.769411 
L 157.77943 207.894778 
L 159.14703 205.307125 
L 161.038624 205.465118 
L 162.29608 202.908388 
L 162.663659 203.636693 
L 163.024642 202.606206 
L 165.384167 201.641226 
L 166.766392 200.500204 
L 167.104941 201.646116 
L 167.438465 200.512976 
L 169.469469 199.851214 
L 172.283934 198.061442 
L 184.298575 194.428695 
L 184.735423 195.109345 
L 185.17326 194.496789 
L 188.362386 194.791151 
L 189.806287 194.402869 
L 190.718536 193.826411 
L 191.097178 193.221774 
L 191.925219 193.759007 
L 194.584492 194.898283 
L 195.432678 193.999287 
L 196.305288 194.924649 
L 197.122806 193.947694 
L 197.539841 194.693156 
L 197.981961 193.474903 
L 200.04839 195.003991 
L 200.436858 193.801898 
L 200.837275 193.943552 
L 201.240881 194.754606 
L 201.689123 194.52674 
L 203.523043 194.108995 
L 204.933024 194.765493 
L 206.008957 194.63262 
L 206.350012 195.802009 
L 206.686986 195.056088 
L 208.499662 194.509168 
L 214.273236 195.185734 
L 214.690632 194.820259 
L 215.105427 195.632137 
L 217.426192 194.954848 
L 218.911222 195.339333 
L 228.599557 195.404951 
L 228.976785 194.732681 
L 229.324222 195.687072 
L 230.768383 195.560014 
L 232.310407 196.042297 
L 234.087027 195.848806 
L 234.473572 196.810212 
L 235.356221 196.333851 
L 238.043224 195.333258 
L 238.444409 196.454619 
L 238.849255 195.844561 
L 241.241762 196.063876 
L 241.626682 196.606688 
L 242.008335 195.070514 
L 242.377196 195.854122 
L 245.096761 196.884506 
L 246.488011 196.013611 
L 247.278973 195.119297 
L 247.663298 195.708335 
L 247.993079 196.94737 
L 248.701554 196.028395 
L 249.5288 195.19932 
L 249.925035 196.429624 
L 250.763615 195.862321 
L 251.599456 196.432378 
L 252.033622 195.74048 
L 259.705438 195.672163 
L 261.9322 195.40507 
L 265.698068 196.146628 
L 267.68128 195.673847 
L 269.013154 196.236998 
L 269.467801 195.561133 
L 269.919996 196.057738 
L 276.480849 196.135578 
L 277.704955 196.073876 
L 279.376063 195.677951 
L 281.733387 196.016583 
L 283.034634 196.090641 
L 284.702766 195.405594 
L 286.488786 196.319508 
L 287.316626 195.458777 
L 287.731204 196.041685 
L 290.263437 195.197531 
L 291.594847 195.969279 
L 293.334759 196.155414 
L 295.21154 195.521107 
L 296.637083 196.086563 
L 297.908384 196.952138 
L 299.079614 195.696397 
L 299.573401 196.103053 
L 300.033127 195.471351 
L 306.358988 196.135647 
L 306.736571 196.599423 
L 307.131993 196.267407 
L 307.537401 195.740348 
L 307.949468 196.313896 
L 309.71295 195.861564 
L 310.485123 195.490355 
L 310.909435 196.071315 
L 311.370333 195.628851 
L 312.114011 195.173714 
L 313.353454 195.691952 
L 315.057154 194.928728 
L 315.452423 196.15519 
L 315.889883 195.687423 
L 316.342529 195.548881 
L 316.789015 196.5321 
L 317.19783 196.003256 
L 318.534529 195.544635 
L 319.844264 196.212723 
L 321.22212 195.289649 
L 321.607588 195.954039 
L 326.739031 195.510074 
L 327.173622 196.479345 
L 327.585071 195.506686 
L 330.458475 195.915333 
L 330.847696 195.236594 
L 331.201377 195.609635 
L 334.034767 196.087394 
L 335.283547 195.609361 
L 336.122685 196.095962 
L 336.493157 194.591514 
L 336.848911 195.915164 
L 338.193182 195.814127 
L 338.543645 194.93377 
L 338.890669 196.30191 
L 344.089573 195.847304 
L 344.122272 196.376367 
L 344.17085 213.274808 
L 344.169696 186.441321 
L 344.8324 196.450272 
L 353.922175 199.976798 
L 354.319572 200.953901 
L 355.038958 200.454272 
L 356.693943 201.152961 
L 357.141049 200.784818 
L 357.988279 202.18652 
L 358.41214 201.897782 
L 362.086473 203.502912 
L 363.245663 202.418441 
L 364.573718 203.712071 
L 365.763322 203.466818 
L 366.698024 204.069461 
L 368.436616 203.87161 
L 371.600512 204.512253 
L 373.771543 205.317696 
L 374.474495 204.401249 
L 374.853518 204.723032 
L 376.251187 205.608038 
L 380.329892 205.42946 
L 380.688057 204.602409 
L 381.042431 205.385492 
L 383.66867 205.444705 
L 385.586673 205.408066 
L 386.738465 206.011553 
L 387.417096 204.726033 
L 387.788843 206.20123 
L 388.577661 205.852035 
L 388.982711 206.285433 
L 389.356687 205.206749 
L 389.76953 205.648436 
L 398.083361 205.611369 
L 399.343709 205.318094 
L 400.648897 205.865021 
L 401.899053 205.078652 
L 403.877251 205.481221 
L 405.127454 205.050271 
L 408.643621 204.947092 
L 408.978372 206.300449 
L 409.308792 205.341309 
L 410.487207 204.695535 
L 414.232329 204.905341 
L 416.274029 205.999297 
L 417.094549 204.881149 
L 417.550937 205.230516 
L 418.935696 204.822454 
L 420.441226 205.000115 
L 420.792729 205.833316 
L 421.14067 205.222328 
L 423.985447 204.86345 
L 425.264549 205.183589 
L 425.61148 203.980096 
L 426.390175 204.728511 
L 426.843142 205.403688 
L 427.259159 204.975898 
L 428.604317 204.931829 
L 429.882383 205.025473 
L 431.399624 204.710106 
L 432.189089 204.487329 
L 433.154826 204.712381 
L 434.295668 203.791973 
L 436.037939 205.43633 
L 437.429913 204.555943 
L 439.900755 204.895457 
L 440.330283 204.358878 
L 440.788964 205.35634 
L 444.165296 204.521268 
L 445.004073 205.391516 
L 445.404726 203.604345 
L 446.162063 204.484661 
L 449.505887 204.545133 
L 449.906069 204.02974 
L 450.281161 205.426297 
L 451.112062 204.874578 
L 451.479526 204.101856 
L 451.844521 204.602824 
L 452.158894 206.388145 
L 452.468804 205.095265 
L 453.608883 204.199818 
L 454.854819 204.928251 
L 455.250552 205.115154 
L 455.567372 203.197859 
L 455.879561 205.338166 
L 456.207827 204.673133 
L 457.404322 204.946302 
L 465.438875 204.951661 
L 465.798328 205.916367 
L 466.129973 204.897472 
L 466.462345 203.799854 
L 466.791277 205.119512 
L 467.169421 205.496139 
L 468.351117 203.956301 
L 470.513799 204.969681 
L 471.820468 204.759332 
L 472.68485 205.537777 
L 473.087179 204.275959 
L 473.491722 205.124451 
L 482.268971 204.750894 
L 482.674585 205.574641 
L 483.054234 204.876293 
L 483.788536 203.687745 
L 485.009789 204.980177 
L 489.43583 204.083847 
L 490.725705 205.212959 
L 492.515987 204.792571 
L 493.479618 204.106579 
L 493.859867 205.702096 
L 494.668228 204.845284 
L 495.966201 205.079221 
L 501.867669 204.791055 
L 502.228631 203.937934 
L 502.969168 204.742735 
L 503.381329 204.148071 
L 503.800332 204.644818 
L 504.154671 205.458816 
L 504.505767 204.182538 
L 508.291207 205.488192 
L 509.531482 204.327532 
L 510.346233 205.567381 
L 510.699353 204.987903 
L 511.843192 204.717511 
L 512.319712 205.3192 
L 512.766507 204.629719 
L 516.391802 205.010404 
L 516.757027 204.201217 
L 517.119288 204.70124 
L 522.628376 205.828685 
L 523.978949 204.585546 
L 525.756586 204.478888 
L 526.176206 203.726895 
L 526.554281 204.349333 
L 526.934123 205.141592 
L 527.329146 204.417805 
L 530.869202 204.902672 
L 531.277157 205.332732 
L 531.676268 204.58421 
L 534.549445 204.773324 
L 535.863855 204.256878 
L 536.266882 205.071554 
L 536.720578 204.615309 
L 537.216185 204.547548 
L 537.441051 205.817692 
L 537.441051 205.817692 
" clip-path="url(#p84aea216b1)" style="fill: none; stroke: #4daf4a; stroke-width: 2; stroke-linecap: square"/>
   </g>
   <g id="patch_3">
    <path d="M 30.103125 241.599141 
L 30.103125 7.2 
" style="fill: none; stroke: #7f7f7f; stroke-width: 1.8; stroke-linejoin: miter; stroke-linecap: square"/>
   </g>
   <g id="patch_4">
    <path d="M 30.103125 241.599141 
L 561.6 241.599141 
" style="fill: none; stroke: #7f7f7f; stroke-width: 1.8; stroke-linejoin: miter; stroke-linecap: square"/>
   </g>
   <g id="legend_1">
    <g id="line2d_28">
     <path d="M 483.814062 20.298438 
L 493.814062 20.298438 
L 503.814062 20.298438 
" style="fill: none; stroke: #e41a1c; stroke-width: 2; stroke-linecap: square"/>
    </g>
    <g id="text_14">
     <!-- setpoint -->
     <g style="fill: #7f7f7f" transform="translate(511.814062 23.798438) scale(0.1 -0.1)">
      <defs>
       <path id="DejaVuSans-53" d="M 1159 525 
L 1159 -1331 
L 581 -1331 
L 581 3500 
L 1159 3500 
L 1159 2969 
Q 1341 3281 1617 3432 
Q 1894 3584 2278 3584 
Q 2916 3584 3314 3078 
Q 3713 2572 3713 1747 
Q 3713 922 3314 415 
Q 2916 -91 2278 -91 
Q 1894 -91 1617 61 
Q 1341 213 1159 525 
z
M 3116 1747 
Q 3116 2381 2855 2742 
Q 2594 3103 2138 3103 
Q 1681 3103 1420 2742 
Q 1159 2381 1159 1747 
Q 1159 1113 1420 752 
Q 1681 391 2138 391 
Q 2594 391 2855 752 
Q 3116 1113 3116 1747 
z
" transform="scale(0.015625)"/>
       <path id="DejaVuSans-52" d="M 1959 3097 
Q 1497 3097 1228 2736 
Q 959 2375 959 1747 
Q 959 1119 1226 758 
Q 1494 397 1959 397 
Q 2419 397 2687 759 
Q 2956 1122 2956 1747 
Q 2956 2369 2687 2733 
Q 2419 3097 1959 3097 
z
M 1959 3584 
Q 2709 3584 3137 3096 
Q 3566 2609 3566 1747 
Q 3566 888 3137 398 
Q 2709 -91 1959 -91 
Q 1206 -91 779 398 
Q 353 888 353 1747 
Q 353 2609 779 3096 
Q 1206 3584 1959 3584 
z
" transform="scale(0.015625)"/>
       <path id="DejaVuSans-51" d="M 3513 2113 
L 3513 0 
L 2938 0 
L 2938 2094 
Q 2938 2591 2744 2837 
Q 2550 3084 2163 3084 
Q 1697 3084 1428 2787 
Q 1159 2491 1159 1978 
L 1159 0 
L 581 0 
L 581 3500 
L 1159 3500 
L 1159 2956 
Q 1366 3272 1645 3428 
Q 1925 3584 2291 3584 
Q 2894 3584 3203 3211 
Q 3513 2838 3513 2113 
z
" transform="scale(0.015625)"/>
      </defs>
      <use xlink:href="#DejaVuSans-56"/>
      <use xlink:href="#DejaVuSans-48" transform="translate(52.09375 0)"/>
      <use xlink:href="#DejaVuSans-57" transform="translate(113.625 0)"/>
      <use xlink:href="#DejaVuSans-53" transform="translate(152.828125 0)"/>
      <use xlink:href="#DejaVuSans-52" transform="translate(216.3125 0)"/>
      <use xlink:href="#DejaVuSans-4c" transform="translate(277.5 0)"/>
      <use xlink:href="#DejaVuSans-51" transform="translate(305.28125 0)"/>
      <use xlink:href="#DejaVuSans-57" transform="translate(368.65625 0)"/>
     </g>
    </g>
    <g id="line2d_29">
     <path d="M 483.814062 35.299219 
L 493.814062 35.299219 
L 503.814062 35.299219 
" style="fill: none; stroke: #377eb8; stroke-width: 2; stroke-linecap: square"/>
    </g>
    <g id="text_15">
     <!-- plant 1 -->
     <g style="fill: #7f7f7f" transform="translate(511.814062 38.799219) scale(0.1 -0.1)">
      <defs>
       <path id="DejaVuSans-4f" d="M 603 4863 
L 1178 4863 
L 1178 0 
L 603 0 
L 603 4863 
z
" transform="scale(0.015625)"/>
       <path id="DejaVuSans-44" d="M 2194 1759 
Q 1497 1759 1228 1600 
Q 959 1441 959 1056 
Q 959 750 1161 570 
Q 1363 391 1709 391 
Q 2188 391 2477 730 
Q 2766 1069 2766 1631 
L 2766 1759 
L 2194 1759 
z
M 3341 1997 
L 3341 0 
L 2766 0 
L 2766 531 
Q 2569 213 2275 61 
Q 1981 -91 1556 -91 
Q 1019 -91 701 211 
Q 384 513 384 1019 
Q 384 1609 779 1909 
Q 1175 2209 1959 2209 
L 2766 2209 
L 2766 2266 
Q 2766 2663 2505 2880 
Q 2244 3097 1772 3097 
Q 1472 3097 1187 3025 
Q 903 2953 641 2809 
L 641 3341 
Q 956 3463 1253 3523 
Q 1550 3584 1831 3584 
Q 2591 3584 2966 3190 
Q 3341 2797 3341 1997 
z
" transform="scale(0.015625)"/>
      </defs>
      <use xlink:href="#DejaVuSans-53"/>
      <use xlink:href="#DejaVuSans-4f" transform="translate(63.484375 0)"/>
      <use xlink:href="#DejaVuSans-44" transform="translate(91.265625 0)"/>
      <use xlink:href="#DejaVuSans-51" transform="translate(152.546875 0)"/>
      <use xlink:href="#DejaVuSans-57" transform="translate(215.921875 0)"/>
      <use xlink:href="#DejaVuSans-3" transform="translate(255.125 0)"/>
      <use xlink:href="#DejaVuSans-14" transform="translate(286.90625 0)"/>
     </g>
    </g>
    <g id="line2d_30">
     <path d="M 483.814062 50.3 
L 493.814062 50.3 
L 503.814062 50.3 
" style="fill: none; stroke: #4daf4a; stroke-width: 2; stroke-linecap: square"/>
    </g>
    <g id="text_16">
     <!-- plant 2 -->
     <g style="fill: #7f7f7f" transform="translate(511.814062 53.8) scale(0.1 -0.1)">
      <use xlink:href="#DejaVuSans-53"/>
      <use xlink:href="#DejaVuSans-4f" transform="translate(63.484375 0)"/>
      <use xlink:href="#DejaVuSans-44" transform="translate(91.265625 0)"/>
      <use xlink:href="#DejaVuSans-51" transform="translate(152.546875 0)"/>
      <use xlink:href="#DejaVuSans-57" transform="translate(215.921875 0)"/>
      <use xlink:href="#DejaVuSans-3" transform="translate(255.125 0)"/>
      <use xlink:href="#DejaVuSans-15" transform="translate(286.90625 0)"/>
     </g>
    </g>
   </g>
  </g>
 </g>
 <defs>
  <clipPath id="p84aea216b1">
   <rect x="30.103125" y="7.2" width="531.496875" height="234.399141"/>
  </clipPath>
 </defs>
</svg>
