<?xml version="1.0" encoding="utf-8" standalone="no"?>
<!DOCTYPE svg PUBLIC "-//W3C//DTD SVG 1.1//EN"
  "http://www.w3.org/Graphics/SVG/1.1/DTD/svg11.dtd">
<svg xmlns:xlink="http://www.w3.org/1999/xlink" width="568.8pt" height="280.8pt" viewBox="0 0 568.8 280.8" xmlns="http://www.w3.org/2000/svg" version="1.1">
 <metadata>
  <rdf:RDF xmlns:dc="http://purl.org/dc/elements/1.1/" xmlns:cc="http://creativecommons.org/ns#" xmlns:rdf="http://www.w3.org/1999/02/22-rdf-syntax-ns#">
   <cc:Work>
    <dc:type rdf:resource="http://purl.org/dc/dcmitype/StillImage"/>
    <dc:date>2026-07-18T02:10:14.161881</dc:date>
    <dc:format>image/svg+xml</dc:format>
    <dc:creator>
     <cc:Agent>
      <dc:title>Matplotlib v3.11.0, https://matplotlib.org/</dc:title>
     </cc:Agent>
    </dc:creator>
   </cc:Work>
  </rdf:RDF>
 </metadata>
 <defs>
  <style type="text/css">*{stroke-linejoin: round; stroke-linecap: butt}</style>
 </defs>
 <g id="figure_1">
  <g id="patch_1">
   <path d="M 0 280.8 
L 568.8 280.8 
L 568.8 0 
L 0 0 
L 0 280.8 
z
" style="fill: none"/>
  </g>
  <g id="axes_1">
   <g id="patch_2">
    <path d="M 44.845313 241.599141 
L 561.6 241.599141 
L 561.6 7.2 
L 44.845313 7.2 
L 44.845313 241.599141 
z
" style="fill: none"/>
   </g>
   <g id="matplotlib.axis_1">
    <g id="xtick_1">
     <g id="line2d_1">
      <path d="M 68.334162 241.599141 
L 68.334162 7.2 
" clip-path="url(#p2bebd0acac)" style="fill: none; stroke-dasharray: 2.96,1.28; stroke-dashoffset: 0; stroke: #7f7f7f; stroke-opacity: 0.6; stroke-width: 0.8"/>
     </g>
     <g id="line2d_2">
      <defs>
       <path id="m7ab72628cc" d="M 0 0 
L 0 3.5 
" style="stroke: #7f7f7f; stroke-width: 1.8"/>
      </defs>
      <g>
       <use xlink:href="#m7ab72628cc" x="68.334162" y="241.599141" style="fill: #7f7f7f; stroke: #7f7f7f; stroke-width: 1.8"/>
      </g>
     </g>
     <g id="text_1">
      <!-- 0 -->
      <g style="fill: #7f7f7f" transform="translate(65.152912 256.196797) scale(0.1 -0.1)">
       <defs>
        <path id="DejaVuSans-13" d="M 2034 4250 
Q 1547 4250 1301 3770 
Q 1056 3291 1056 2328 
Q 1056 1369 1301 889 
Q 1547 409 2034 409 
Q 2525 409 2770 889 
Q 3016 1369 3016 2328 
Q 3016 3291 2770 3770 
Q 2525 4250 2034 4250 
z
M 2034 4750 
Q 2819 4750 3233 4129 
Q 3647 3509 3647 2328 
Q 3647 1150 3233 529 
Q 2819 -91 2034 -91 
Q 1250 -91 836 529 
Q 422 1150 422 2328 
Q 422 3509 836 4129 
Q 1250 4750 2034 4750 
z
" transform="scale(0.015625)"/>
       </defs>
       <use xlink:href="#DejaVuSans-13"/>
      </g>
     </g>
    </g>
    <g id="xtick_2">
     <g id="line2d_3">
      <path d="M 162.28956 241.599141 
L 162.28956 7.2 
" clip-path="url(#p2bebd0acac)" style="fill: none; stroke-dasharray: 2.96,1.28; stroke-dashoffset: 0; stroke: #7f7f7f; stroke-opacity: 0.6; stroke-width: 0.8"/>
     </g>
     <g id="line2d_4">
      <g>
       <use xlink:href="#m7ab72628cc" x="162.28956" y="241.599141" style="fill: #7f7f7f; stroke: #7f7f7f; stroke-width: 1.8"/>
      </g>
     </g>
     <g id="text_2">
      <!-- 20 -->
      <g style="fill: #7f7f7f" transform="translate(155.92706 256.196797) scale(0.1 -0.1)">
       <defs>
        <path id="DejaVuSans-15" d="M 1228 531 
L 3431 531 
L 3431 0 
L 469 0 
L 469 531 
Q 828 903 1448 1529 
Q 2069 2156 2228 2338 
Q 2531 2678 2651 2914 
Q 2772 3150 2772 3378 
Q 2772 3750 2511 3984 
Q 2250 4219 1831 4219 
Q 1534 4219 1204 4116 
Q 875 4013 500 3803 
L 500 4441 
Q 881 4594 1212 4672 
Q 1544 4750 1819 4750 
Q 2544 4750 2975 4387 
Q 3406 4025 3406 3419 
Q 3406 3131 3298 2873 
Q 3191 2616 2906 2266 
Q 2828 2175 2409 1742 
Q 1991 1309 1228 531 
z
" transform="scale(0.015625)"/>
       </defs>
       <use xlink:href="#DejaVuSans-15"/>
       <use xlink:href="#DejaVuSans-13" transform="translate(63.625 0)"/>
      </g>
     </g>
    </g>
    <g id="xtick_3">
     <g id="line2d_5">
      <path d="M 256.244957 241.599141 
L 256.244957 7.2 
" clip-path="url(#p2bebd0acac)" style="fill: none; stroke-dasharray: 2.96,1.28; stroke-dashoffset: 0; stroke: #7f7f7f; stroke-opacity: 0.6; stroke-width: 0.8"/>
     </g>
     <g id="line2d_6">
      <g>
       <use xlink:href="#m7ab72628cc" x="256.244957" y="241.599141" style="fill: #7f7f7f; stroke: #7f7f7f; stroke-width: 1.8"/>
      </g>
     </g>
     <g id="text_3">
      <!-- 40 -->
      <g style="fill: #7f7f7f" transform="translate(249.882457 256.196797) scale(0.1 -0.1)">
       <defs>
        <path id="DejaVuSans-17" d="M 2419 4116 
L 825 1625 
L 2419 1625 
L 2419 4116 
z
M 2253 4666 
L 3047 4666 
L 3047 1625 
L 3713 1625 
L 3713 1100 
L 3047 1100 
L 3047 0 
L 2419 0 
L 2419 1100 
L 313 1100 
L 313 1709 
L 2253 4666 
z
" transform="scale(0.015625)"/>
       </defs>
       <use xlink:href="#DejaVuSans-17"/>
       <use xlink:href="#DejaVuSans-13" transform="translate(63.625 0)"/>
      </g>
     </g>
    </g>
    <g id="xtick_4">
     <g id="line2d_7">
      <path d="M 350.200355 241.599141 
L 350.200355 7.2 
" clip-path="url(#p2bebd0acac)" style="fill: none; stroke-dasharray: 2.96,1.28; stroke-dashoffset: 0; stroke: #7f7f7f; stroke-opacity: 0.6; stroke-width: 0.8"/>
     </g>
     <g id="line2d_8">
      <g>
       <use xlink:href="#m7ab72628cc" x="350.200355" y="241.599141" style="fill: #7f7f7f; stroke: #7f7f7f; stroke-width: 1.8"/>
      </g>
     </g>
     <g id="text_4">
      <!-- 60 -->
      <g style="fill: #7f7f7f" transform="translate(343.837855 256.196797) scale(0.1 -0.1)">
       <defs>
        <path id="DejaVuSans-19" d="M 2113 2584 
Q 1688 2584 1439 2293 
Q 1191 2003 1191 1497 
Q 1191 994 1439 701 
Q 1688 409 2113 409 
Q 2538 409 2786 701 
Q 3034 994 3034 1497 
Q 3034 2003 2786 2293 
Q 2538 2584 2113 2584 
z
M 3366 4563 
L 3366 3988 
Q 3128 4100 2886 4159 
Q 2644 4219 2406 4219 
Q 1781 4219 1451 3797 
Q 1122 3375 1075 2522 
Q 1259 2794 1537 2939 
Q 1816 3084 2150 3084 
Q 2853 3084 3261 2657 
Q 3669 2231 3669 1497 
Q 3669 778 3244 343 
Q 2819 -91 2113 -91 
Q 1303 -91 875 529 
Q 447 1150 447 2328 
Q 447 3434 972 4092 
Q 1497 4750 2381 4750 
Q 2619 4750 2861 4703 
Q 3103 4656 3366 4563 
z
" transform="scale(0.015625)"/>
       </defs>
       <use xlink:href="#DejaVuSans-19"/>
       <use xlink:href="#DejaVuSans-13" transform="translate(63.625 0)"/>
      </g>
     </g>
    </g>
    <g id="xtick_5">
     <g id="line2d_9">
      <path d="M 444.155753 241.599141 
L 444.155753 7.2 
" clip-path="url(#p2bebd0acac)" style="fill: none; stroke-dasharray: 2.96,1.28; stroke-dashoffset: 0; stroke: #7f7f7f; stroke-opacity: 0.6; stroke-width: 0.8"/>
     </g>
     <g id="line2d_10">
      <g>
       <use xlink:href="#m7ab72628cc" x="444.155753" y="241.599141" style="fill: #7f7f7f; stroke: #7f7f7f; stroke-width: 1.8"/>
      </g>
     </g>
     <g id="text_5">
      <!-- 80 -->
      <g style="fill: #7f7f7f" transform="translate(437.793253 256.196797) scale(0.1 -0.1)">
       <defs>
        <path id="DejaVuSans-1b" d="M 2034 2216 
Q 1584 2216 1326 1975 
Q 1069 1734 1069 1313 
Q 1069 891 1326 650 
Q 1584 409 2034 409 
Q 2484 409 2743 651 
Q 3003 894 3003 1313 
Q 3003 1734 2745 1975 
Q 2488 2216 2034 2216 
z
M 1403 2484 
Q 997 2584 770 2862 
Q 544 3141 544 3541 
Q 544 4100 942 4425 
Q 1341 4750 2034 4750 
Q 2731 4750 3128 4425 
Q 3525 4100 3525 3541 
Q 3525 3141 3298 2862 
Q 3072 2584 2669 2484 
Q 3125 2378 3379 2068 
Q 3634 1759 3634 1313 
Q 3634 634 3220 271 
Q 2806 -91 2034 -91 
Q 1263 -91 848 271 
Q 434 634 434 1313 
Q 434 1759 690 2068 
Q 947 2378 1403 2484 
z
M 1172 3481 
Q 1172 3119 1398 2916 
Q 1625 2713 2034 2713 
Q 2441 2713 2670 2916 
Q 2900 3119 2900 3481 
Q 2900 3844 2670 4047 
Q 2441 4250 2034 4250 
Q 1625 4250 1398 4047 
Q 1172 3844 1172 3481 
z
" transform="scale(0.015625)"/>
       </defs>
       <use xlink:href="#DejaVuSans-1b"/>
       <use xlink:href="#DejaVuSans-13" transform="translate(63.625 0)"/>
      </g>
     </g>
    </g>
    <g id="xtick_6">
     <g id="line2d_11">
      <path d="M 538.111151 241.599141 
L 538.111151 7.2 
" clip-path="url(#p2bebd0acac)" style="fill: none; stroke-dasharray: 2.96,1.28; stroke-dashoffset: 0; stroke: #7f7f7f; stroke-opacity: 0.6; stroke-width: 0.8"/>
     </g>
     <g id="line2d_12">
      <g>
       <use xlink:href="#m7ab72628cc" x="538.111151" y="241.599141" style="fill: #7f7f7f; stroke: #7f7f7f; stroke-width: 1.8"/>
      </g>
     </g>
     <g id="text_6">
      <!-- 100 -->
      <g style="fill: #7f7f7f" transform="translate(528.567401 256.196797) scale(0.1 -0.1)">
       <defs>
        <path id="DejaVuSans-14" d="M 794 531 
L 1825 531 
L 1825 4091 
L 703 3866 
L 703 4441 
L 1819 4666 
L 2450 4666 
L 2450 531 
L 3481 531 
L 3481 0 
L 794 0 
L 794 531 
z
" transform="scale(0.015625)"/>
       </defs>
       <use xlink:href="#DejaVuSans-14"/>
       <use xlink:href="#DejaVuSans-13" transform="translate(63.625 0)"/>
       <use xlink:href="#DejaVuSans-13" transform="translate(127.25 0)"/>
      </g>
     </g>
    </g>
    <g id="text_7">
     <!-- time [s] -->
     <g style="fill: #7f7f7f" transform="translate(281.892109 270.957422) scale(0.11 -0.11)">
      <defs>
       <path id="DejaVuSans-57" d="M 1172 4494 
L 1172 3500 
L 2356 3500 
L 2356 3053 
L 1172 3053 
L 1172 1153 
Q 1172 725 1289 603 
Q 1406 481 1766 481 
L 2356 481 
L 2356 0 
L 1766 0 
Q 1100 0 847 248 
Q 594 497 594 1153 
L 594 3053 
L 172 3053 
L 172 3500 
L 594 3500 
L 594 4494 
L 1172 4494 
z
" transform="scale(0.015625)"/>
       <path id="DejaVuSans-4c" d="M 603 3500 
L 1178 3500 
L 1178 0 
L 603 0 
L 603 3500 
z
M 603 4863 
L 1178 4863 
L 1178 4134 
L 603 4134 
L 603 4863 
z
" transform="scale(0.015625)"/>
       <path id="DejaVuSans-50" d="M 3328 2828 
Q 3544 3216 3844 3400 
Q 4144 3584 4550 3584 
Q 5097 3584 5394 3201 
Q 5691 2819 5691 2113 
L 5691 0 
L 5113 0 
L 5113 2094 
Q 5113 2597 4934 2840 
Q 4756 3084 4391 3084 
Q 3944 3084 3684 2787 
Q 3425 2491 3425 1978 
L 3425 0 
L 2847 0 
L 2847 2094 
Q 2847 2600 2669 2842 
Q 2491 3084 2119 3084 
Q 1678 3084 1418 2786 
Q 1159 2488 1159 1978 
L 1159 0 
L 581 0 
L 581 3500 
L 1159 3500 
L 1159 2956 
Q 1356 3278 1631 3431 
Q 1906 3584 2284 3584 
Q 2666 3584 2933 3390 
Q 3200 3197 3328 2828 
z
" transform="scale(0.015625)"/>
       <path id="DejaVuSans-48" d="M 3597 1894 
L 3597 1613 
L 953 1613 
Q 991 1019 1311 708 
Q 1631 397 2203 397 
Q 2534 397 2845 478 
Q 3156 559 3463 722 
L 3463 178 
Q 3153 47 2828 -22 
Q 2503 -91 2169 -91 
Q 1331 -91 842 396 
Q 353 884 353 1716 
Q 353 2575 817 3079 
Q 1281 3584 2069 3584 
Q 2775 3584 3186 3129 
Q 3597 2675 3597 1894 
z
M 3022 2063 
Q 3016 2534 2758 2815 
Q 2500 3097 2075 3097 
Q 1594 3097 1305 2825 
Q 1016 2553 972 2059 
L 3022 2063 
z
" transform="scale(0.015625)"/>
       <path id="DejaVuSans-3" transform="scale(0.015625)"/>
       <path id="DejaVuSans-3e" d="M 550 4863 
L 1875 4863 
L 1875 4416 
L 1125 4416 
L 1125 -397 
L 1875 -397 
L 1875 -844 
L 550 -844 
L 550 4863 
z
" transform="scale(0.015625)"/>
       <path id="DejaVuSans-56" d="M 2834 3397 
L 2834 2853 
Q 2591 2978 2328 3040 
Q 2066 3103 1784 3103 
Q 1356 3103 1142 2972 
Q 928 2841 928 2578 
Q 928 2378 1081 2264 
Q 1234 2150 1697 2047 
L 1894 2003 
Q 2506 1872 2764 1633 
Q 3022 1394 3022 966 
Q 3022 478 2636 193 
Q 2250 -91 1575 -91 
Q 1294 -91 989 -36 
Q 684 19 347 128 
L 347 722 
Q 666 556 975 473 
Q 1284 391 1588 391 
Q 1994 391 2212 530 
Q 2431 669 2431 922 
Q 2431 1156 2273 1281 
Q 2116 1406 1581 1522 
L 1381 1569 
Q 847 1681 609 1914 
Q 372 2147 372 2553 
Q 372 3047 722 3315 
Q 1072 3584 1716 3584 
Q 2034 3584 2315 3537 
Q 2597 3491 2834 3397 
z
" transform="scale(0.015625)"/>
       <path id="DejaVuSans-40" d="M 1947 4863 
L 1947 -844 
L 622 -844 
L 622 -397 
L 1369 -397 
L 1369 4416 
L 622 4416 
L 622 4863 
L 1947 4863 
z
" transform="scale(0.015625)"/>
      </defs>
      <use xlink:href="#DejaVuSans-57"/>
      <use xlink:href="#DejaVuSans-4c" transform="translate(39.203125 0)"/>
      <use xlink:href="#DejaVuSans-50" transform="translate(66.984375 0)"/>
      <use xlink:href="#DejaVuSans-48" transform="translate(164.390625 0)"/>
      <use xlink:href="#DejaVuSans-3" transform="translate(225.921875 0)"/>
      <use xlink:href="#DejaVuSans-3e" transform="translate(257.703125 0)"/>
      <use xlink:href="#DejaVuSans-56" transform="translate(296.71875 0)"/>
      <use xlink:href="#DejaVuSans-40" transform="translate(348.8125 0)"/>
     </g>
    </g>
   </g>
   <g id="matplotlib.axis_2">
    <g id="ytick_1">
     <g id="line2d_13">
      <path d="M 44.845313 219.510515 
L 561.6 219.510515 
" clip-path="url(#p2bebd0acac)" style="fill: none; stroke-dasharray: 2.96,1.28; stroke-dashoffset: 0; stroke: #7f7f7f; stroke-opacity: 0.6; stroke-width: 0.8"/>
     </g>
     <g id="line2d_14">
      <defs>
       <path id="m2bcca2e23f" d="M 0 0 
L -3.5 0 
" style="stroke: #7f7f7f; stroke-width: 1.8"/>
      </defs>
      <g>
       <use xlink:href="#m2bcca2e23f" x="44.845313" y="219.510515" style="fill: #7f7f7f; stroke: #7f7f7f; stroke-width: 1.8"/>
      </g>
     </g>
     <g id="text_8">
      <!-- −0.50 -->
      <g style="fill: #7f7f7f" transform="translate(7.2 223.309343) scale(0.1 -0.1)">
       <defs>
        <path id="DejaVuSans-c9c" d="M 678 2272 
L 4684 2272 
L 4684 1741 
L 678 1741 
L 678 2272 
z
" transform="scale(0.015625)"/>
        <path id="DejaVuSans-11" d="M 684 794 
L 1344 794 
L 1344 0 
L 684 0 
L 684 794 
z
" transform="scale(0.015625)"/>
        <path id="DejaVuSans-18" d="M 691 4666 
L 3169 4666 
L 3169 4134 
L 1269 4134 
L 1269 2991 
Q 1406 3038 1543 3061 
Q 1681 3084 1819 3084 
Q 2600 3084 3056 2656 
Q 3513 2228 3513 1497 
Q 3513 744 3044 326 
Q 2575 -91 1722 -91 
Q 1428 -91 1123 -41 
Q 819 9 494 109 
L 494 744 
Q 775 591 1075 516 
Q 1375 441 1709 441 
Q 2250 441 2565 725 
Q 2881 1009 2881 1497 
Q 2881 1984 2565 2268 
Q 2250 2553 1709 2553 
Q 1456 2553 1204 2497 
Q 953 2441 691 2322 
L 691 4666 
z
" transform="scale(0.015625)"/>
       </defs>
       <use xlink:href="#DejaVuSans-c9c"/>
       <use xlink:href="#DejaVuSans-13" transform="translate(83.796875 0)"/>
       <use xlink:href="#DejaVuSans-11" transform="translate(147.421875 0)"/>
       <use xlink:href="#DejaVuSans-18" transform="translate(179.203125 0)"/>
       <use xlink:href="#DejaVuSans-13" transform="translate(242.828125 0)"/>
      </g>
     </g>
    </g>
    <g id="ytick_2">
     <g id="line2d_15">
      <path d="M 44.845313 188.440276 
L 561.6 188.440276 
" clip-path="url(#p2bebd0acac)" style="fill: none; stroke-dasharray: 2.96,1.28; stroke-dashoffset: 0; stroke: #7f7f7f; stroke-opacity: 0.6; stroke-width: 0.8"/>
     </g>
     <g id="line2d_16">
      <g>
       <use xlink:href="#m2bcca2e23f" x="44.845313" y="188.440276" style="fill: #7f7f7f; stroke: #7f7f7f; stroke-width: 1.8"/>
      </g>
     </g>
     <g id="text_9">
      <!-- −0.25 -->
      <g style="fill: #7f7f7f" transform="translate(7.2 192.239105) scale(0.1 -0.1)">
       <use xlink:href="#DejaVuSans-c9c"/>
       <use xlink:href="#DejaVuSans-13" transform="translate(83.796875 0)"/>
       <use xlink:href="#DejaVuSans-11" transform="translate(147.421875 0)"/>
       <use xlink:href="#DejaVuSans-15" transform="translate(179.203125 0)"/>
       <use xlink:href="#DejaVuSans-18" transform="translate(242.828125 0)"/>
      </g>
     </g>
    </g>
    <g id="ytick_3">
     <g id="line2d_17">
      <path d="M 44.845313 157.370038 
L 561.6 157.370038 
" clip-path="url(#p2bebd0acac)" style="fill: none; stroke-dasharray: 2.96,1.28; stroke-dashoffset: 0; stroke: #7f7f7f; stroke-opacity: 0.6; stroke-width: 0.8"/>
     </g>
     <g id="line2d_18">
      <g>
       <use xlink:href="#m2bcca2e23f" x="44.845313" y="157.370038" style="fill: #7f7f7f; stroke: #7f7f7f; stroke-width: 1.8"/>
      </g>
     </g>
     <g id="text_10">
      <!-- 0.00 -->
      <g style="fill: #7f7f7f" transform="translate(15.579688 161.168866) scale(0.1 -0.1)">
       <use xlink:href="#DejaVuSans-13"/>
       <use xlink:href="#DejaVuSans-11" transform="translate(63.625 0)"/>
       <use xlink:href="#DejaVuSans-13" transform="translate(95.40625 0)"/>
       <use xlink:href="#DejaVuSans-13" transform="translate(159.03125 0)"/>
      </g>
     </g>
    </g>
    <g id="ytick_4">
     <g id="line2d_19">
      <path d="M 44.845313 126.299799 
L 561.6 126.299799 
" clip-path="url(#p2bebd0acac)" style="fill: none; stroke-dasharray: 2.96,1.28; stroke-dashoffset: 0; stroke: #7f7f7f; stroke-opacity: 0.6; stroke-width: 0.8"/>
     </g>
     <g id="line2d_20">
      <g>
       <use xlink:href="#m2bcca2e23f" x="44.845313" y="126.299799" style="fill: #7f7f7f; stroke: #7f7f7f; stroke-width: 1.8"/>
      </g>
     </g>
     <g id="text_11">
      <!-- 0.25 -->
      <g style="fill: #7f7f7f" transform="translate(15.579688 130.098627) scale(0.1 -0.1)">
       <use xlink:href="#DejaVuSans-13"/>
       <use xlink:href="#DejaVuSans-11" transform="translate(63.625 0)"/>
       <use xlink:href="#DejaVuSans-15" transform="translate(95.40625 0)"/>
       <use xlink:href="#DejaVuSans-18" transform="translate(159.03125 0)"/>
      </g>
     </g>
    </g>
    <g id="ytick_5">
     <g id="line2d_21">
      <path d="M 44.845313 95.22956 
L 561.6 95.22956 
" clip-path="url(#p2bebd0acac)" style="fill: none; stroke-dasharray: 2.96,1.28; stroke-dashoffset: 0; stroke: #7f7f7f; stroke-opacity: 0.6; stroke-width: 0.8"/>
     </g>
     <g id="line2d_22">
      <g>
       <use xlink:href="#m2bcca2e23f" x="44.845313" y="95.22956" style="fill: #7f7f7f; stroke: #7f7f7f; stroke-width: 1.8"/>
      </g>
     </g>
     <g id="text_12">
      <!-- 0.50 -->
      <g style="fill: #7f7f7f" transform="translate(15.579688 99.028388) scale(0.1 -0.1)">
       <use xlink:href="#DejaVuSans-13"/>
       <use xlink:href="#DejaVuSans-11" transform="translate(63.625 0)"/>
       <use xlink:href="#DejaVuSans-18" transform="translate(95.40625 0)"/>
       <use xlink:href="#DejaVuSans-13" transform="translate(159.03125 0)"/>
      </g>
     </g>
    </g>
    <g id="ytick_6">
     <g id="line2d_23">
      <path d="M 44.845313 64.159321 
L 561.6 64.159321 
" clip-path="url(#p2bebd0acac)" style="fill: none; stroke-dasharray: 2.96,1.28; stroke-dashoffset: 0; stroke: #7f7f7f; stroke-opacity: 0.6; stroke-width: 0.8"/>
     </g>
     <g id="line2d_24">
      <g>
       <use xlink:href="#m2bcca2e23f" x="44.845313" y="64.159321" style="fill: #7f7f7f; stroke: #7f7f7f; stroke-width: 1.8"/>
      </g>
     </g>
     <g id="text_13">
      <!-- 0.75 -->
      <g style="fill: #7f7f7f" transform="translate(15.579688 67.958149) scale(0.1 -0.1)">
       <defs>
        <path id="DejaVuSans-1a" d="M 525 4666 
L 3525 4666 
L 3525 4397 
L 1831 0 
L 1172 0 
L 2766 4134 
L 525 4134 
L 525 4666 
z
" transform="scale(0.015625)"/>
       </defs>
       <use xlink:href="#DejaVuSans-13"/>
       <use xlink:href="#DejaVuSans-11" transform="translate(63.625 0)"/>
       <use xlink:href="#DejaVuSans-1a" transform="translate(95.40625 0)"/>
       <use xlink:href="#DejaVuSans-18" transform="translate(159.03125 0)"/>
      </g>
     </g>
    </g>
    <g id="ytick_7">
     <g id="line2d_25">
      <path d="M 44.845313 33.089082 
L 561.6 33.089082 
" clip-path="url(#p2bebd0acac)" style="fill: none; stroke-dasharray: 2.96,1.28; stroke-dashoffset: 0; stroke: #7f7f7f; stroke-opacity: 0.6; stroke-width: 0.8"/>
     </g>
     <g id="line2d_26">
      <g>
       <use xlink:href="#m2bcca2e23f" x="44.845313" y="33.089082" style="fill: #7f7f7f; stroke: #7f7f7f; stroke-width: 1.8"/>
      </g>
     </g>
     <g id="text_14">
      <!-- 1.00 -->
      <g style="fill: #7f7f7f" transform="translate(15.579688 36.88791) scale(0.1 -0.1)">
       <use xlink:href="#DejaVuSans-14"/>
       <use xlink:href="#DejaVuSans-11" transform="translate(63.625 0)"/>
       <use xlink:href="#DejaVuSans-13" transform="translate(95.40625 0)"/>
       <use xlink:href="#DejaVuSans-13" transform="translate(159.03125 0)"/>
      </g>
     </g>
    </g>
   </g>
   <g id="line2d_27">
    <path d="M 68.334162 157.370038 
L 68.38114 158.063441 
L 68.677296 156.786676 
L 69.170811 157.160856 
L 69.763448 157.642259 
L 70.122719 156.969907 
L 70.493152 156.477656 
L 70.879931 157.190401 
L 73.725614 157.376659 
L 73.988209 158.336789 
L 74.7992 158.019226 
L 80.277335 157.279885 
L 81.533478 157.455726 
L 88.459579 157.688571 
L 89.437366 157.866385 
L 90.090721 157.178261 
L 90.389985 157.685246 
L 90.734967 158.11195 
L 91.064799 157.046396 
L 91.950361 157.652045 
L 93.55045 158.189524 
L 94.478883 156.916756 
L 94.766811 157.745335 
L 95.592019 157.347462 
L 120.980982 157.179049 
L 121.292578 157.896415 
L 121.969914 157.593453 
L 123.154033 156.832733 
L 124.44561 157.383654 
L 126.132031 158.064088 
L 127.522733 157.247422 
L 128.683167 157.279079 
L 132.083488 157.541581 
L 133.826523 157.275739 
L 135.972322 158.263552 
L 137.337661 157.243095 
L 138.363001 157.817283 
L 139.580673 157.584638 
L 141.697401 156.960531 
L 143.204392 157.354475 
L 144.627015 156.954352 
L 144.960073 158.006413 
L 145.314599 157.315704 
L 147.323564 157.236875 
L 149.110874 157.749998 
L 150.772482 156.966317 
L 151.127683 157.877939 
L 151.824947 157.288476 
L 162.278864 156.191215 
L 162.289497 166.148367 
L 162.289787 17.854506 
L 162.942757 33.352659 
L 163.083477 34.026411 
L 163.365751 31.749719 
L 163.834347 33.642886 
L 164.132984 32.042035 
L 164.518834 34.119404 
L 165.098697 33.064553 
L 168.909698 35.73874 
L 169.188368 34.866741 
L 169.509206 37.179834 
L 170.229552 36.693923 
L 176.312717 53.399758 
L 196.892798 135.018244 
L 202.488462 149.000731 
L 205.513488 154.584671 
L 215.163958 164.753734 
L 215.872282 164.674238 
L 217.572397 165.472561 
L 218.811783 166.261649 
L 220.062777 166.144594 
L 222.93533 166.424166 
L 235.426448 163.932099 
L 235.827085 163.157594 
L 236.573846 163.711896 
L 239.723947 162.14793 
L 240.201511 162.47845 
L 241.923314 161.170095 
L 243.252693 161.169747 
L 247.228542 160.034099 
L 247.6892 159.33841 
L 248.162528 160.009943 
L 250.742117 159.201946 
L 253.449539 158.26672 
L 254.943288 158.669991 
L 255.376819 157.953457 
L 255.825844 158.474191 
L 260.354062 157.578742 
L 261.551186 157.087865 
L 264.841396 156.818139 
L 265.189391 156.327189 
L 265.534762 157.007842 
L 267.22985 156.806035 
L 282.295225 156.42988 
L 282.723344 157.167204 
L 283.112578 156.05708 
L 286.336817 157.390358 
L 287.564446 156.602186 
L 288.720576 157.543696 
L 289.837361 156.087234 
L 290.204021 157.140364 
L 291.318909 157.174901 
L 292.882767 157.144775 
L 293.25709 157.762454 
L 293.626201 157.099746 
L 294.866699 157.20154 
L 297.699897 157.899662 
L 299.930145 157.431548 
L 303.170578 157.572916 
L 306.723419 157.222546 
L 307.960199 156.855651 
L 316.25801 157.110003 
L 319.062705 156.751941 
L 320.722025 157.284612 
L 322.990936 156.963821 
L 323.345282 158.031813 
L 323.702366 157.818099 
L 325.027502 157.452625 
L 327.081302 156.939414 
L 328.250122 157.908723 
L 329.903298 156.970137 
L 331.701319 157.952423 
L 332.526302 157.248607 
L 332.919004 157.975601 
L 333.754668 157.475558 
L 334.887895 156.985085 
L 335.208805 157.763348 
L 335.991112 157.281454 
L 350.198087 158.270474 
L 350.200574 230.944634 
L 350.200353 156.279536 
L 351.336575 219.83878 
L 352.395412 219.242714 
L 355.754714 219.402472 
L 358.817319 216.949018 
L 359.535946 216.847445 
L 361.98014 213.078571 
L 369.615679 198.044328 
L 378.095041 179.920699 
L 380.425067 175.815695 
L 382.453274 172.670201 
L 387.549746 165.083997 
L 391.500756 160.353646 
L 393.122022 158.720623 
L 393.98353 158.221408 
L 400.784037 154.364361 
L 407.910706 153.251556 
L 408.618584 152.382581 
L 409.072725 152.833553 
L 415.603597 153.058941 
L 415.984002 154.088187 
L 416.662131 153.444053 
L 421.207272 153.670342 
L 422.598606 154.446808 
L 424.481531 153.776414 
L 425.666811 154.619258 
L 427.118412 154.825028 
L 428.30879 154.748353 
L 433.781194 155.923384 
L 442.97348 157.360136 
L 445.462107 157.135432 
L 448.33586 157.380238 
L 449.631445 157.289983 
L 450.031536 157.858028 
L 450.437261 156.933589 
L 454.328284 157.59258 
L 455.476325 157.771598 
L 455.881793 158.519198 
L 456.26429 157.10796 
L 457.019165 157.444574 
L 457.41171 158.288237 
L 458.178916 157.824182 
L 460.237438 157.713205 
L 462.755665 156.808691 
L 463.898406 157.866826 
L 466.343403 157.564736 
L 467.566222 157.803098 
L 468.699913 157.051188 
L 470.649076 158.531975 
L 471.457614 157.431208 
L 471.819552 158.804123 
L 472.530935 157.597136 
L 473.624751 157.752631 
L 475.24558 156.938618 
L 476.047399 157.631774 
L 476.495145 157.230827 
L 478.998202 157.703515 
L 483.969893 157.570736 
L 485.749571 157.505244 
L 486.968693 157.713229 
L 489.203288 157.392049 
L 490.362243 157.541338 
L 495.658602 157.337471 
L 496.048352 157.908648 
L 496.450873 156.836083 
L 499.172781 157.785494 
L 500.671883 157.322281 
L 503.056172 157.219926 
L 506.795727 157.18662 
L 515.737641 157.333978 
L 516.875251 157.102256 
L 517.763161 157.456715 
L 518.171775 158.100438 
L 518.544919 157.112805 
L 519.696332 157.47646 
L 521.252128 157.157651 
L 538.111151 157.50339 
L 538.111151 157.50339 
" clip-path="url(#p2bebd0acac)" style="fill: none; stroke: #e41a1c; stroke-width: 2; stroke-linecap: square"/>
   </g>
   <g id="line2d_28">
    <path d="M 68.334162 157.370038 
L 72.765034 157.367399 
L 162.289497 157.50416 
L 163.228666 154.989326 
L 170.229552 151.191845 
L 181.904931 146.406486 
L 191.948626 144.377056 
L 208.914131 143.891033 
L 264.438645 145.025172 
L 348.141038 144.940357 
L 350.200293 144.946092 
L 350.200353 144.922079 
L 351.043639 146.097768 
L 366.097724 149.803313 
L 380.425067 151.465062 
L 408.25448 151.459927 
L 456.26429 151.122762 
L 485.749571 151.156347 
L 538.111151 151.156785 
L 538.111151 151.156785 
" clip-path="url(#p2bebd0acac)" style="fill: none; stroke: #377eb8; stroke-width: 2; stroke-linecap: square"/>
   </g>
   <g id="patch_3">
    <path d="M 44.845313 241.599141 
L 44.845313 7.2 
" style="fill: none; stroke: #7f7f7f; stroke-width: 1.8; stroke-linejoin: miter; stroke-linecap: square"/>
   </g>
   <g id="patch_4">
    <path d="M 44.845313 241.599141 
L 561.6 241.599141 
" style="fill: none; stroke: #7f7f7f; stroke-width: 1.8; stroke-linejoin: miter; stroke-linecap: square"/>
   </g>
   <g id="legend_1">
    <g id="line2d_29">
     <path d="M 499.584375 20.298438 
L 509.584375 20.298438 
L 519.584375 20.298438 
" style="fill: none; stroke: #e41a1c; stroke-width: 2; stroke-linecap: square"/>
    </g>
    <g id="text_15">
     <!-- err 1 -->
     <g style="fill: #7f7f7f" transform="translate(527.584375 23.798438) scale(0.1 -0.1)">
      <defs>
       <path id="DejaVuSans-55" d="M 2631 2963 
Q 2534 3019 2420 3045 
Q 2306 3072 2169 3072 
Q 1681 3072 1420 2755 
Q 1159 2438 1159 1844 
L 1159 0 
L 581 0 
L 581 3500 
L 1159 3500 
L 1159 2956 
Q 1341 3275 1631 3429 
Q 1922 3584 2338 3584 
Q 2397 3584 2469 3576 
Q 2541 3569 2628 3553 
L 2631 2963 
z
" transform="scale(0.015625)"/>
      </defs>
      <use xlink:href="#DejaVuSans-48"/>
      <use xlink:href="#DejaVuSans-55" transform="translate(61.53125 0)"/>
      <use xlink:href="#DejaVuSans-55" transform="translate(100.890625 0)"/>
      <use xlink:href="#DejaVuSans-3" transform="translate(142 0)"/>
      <use xlink:href="#DejaVuSans-14" transform="translate(173.78125 0)"/>
     </g>
    </g>
    <g id="line2d_30">
     <path d="M 499.584375 35.299219 
L 509.584375 35.299219 
L 519.584375 35.299219 
" style="fill: none; stroke: #377eb8; stroke-width: 2; stroke-linecap: square"/>
    </g>
    <g id="text_16">
     <!-- pid 1 -->
     <g style="fill: #7f7f7f" transform="translate(527.584375 38.799219) scale(0.1 -0.1)">
      <defs>
       <path id="DejaVuSans-53" d="M 1159 525 
L 1159 -1331 
L 581 -1331 
L 581 3500 
L 1159 3500 
L 1159 2969 
Q 1341 3281 1617 3432 
Q 1894 3584 2278 3584 
Q 2916 3584 3314 3078 
Q 3713 2572 3713 1747 
Q 3713 922 3314 415 
Q 2916 -91 2278 -91 
Q 1894 -91 1617 61 
Q 1341 213 1159 525 
z
M 3116 1747 
Q 3116 2381 2855 2742 
Q 2594 3103 2138 3103 
Q 1681 3103 1420 2742 
Q 1159 2381 1159 1747 
Q 1159 1113 1420 752 
Q 1681 391 2138 391 
Q 2594 391 2855 752 
Q 3116 1113 3116 1747 
z
" transform="scale(0.015625)"/>
       <path id="DejaVuSans-47" d="M 2906 2969 
L 2906 4863 
L 3481 4863 
L 3481 0 
L 2906 0 
L 2906 525 
Q 2725 213 2448 61 
Q 2172 -91 1784 -91 
Q 1150 -91 751 415 
Q 353 922 353 1747 
Q 353 2572 751 3078 
Q 1150 3584 1784 3584 
Q 2172 3584 2448 3432 
Q 2725 3281 2906 2969 
z
M 947 1747 
Q 947 1113 1208 752 
Q 1469 391 1925 391 
Q 2381 391 2643 752 
Q 2906 1113 2906 1747 
Q 2906 2381 2643 2742 
Q 2381 3103 1925 3103 
Q 1469 3103 1208 2742 
Q 947 2381 947 1747 
z
" transform="scale(0.015625)"/>
      </defs>
      <use xlink:href="#DejaVuSans-53"/>
      <use xlink:href="#DejaVuSans-4c" transform="translate(63.484375 0)"/>
      <use xlink:href="#DejaVuSans-47" transform="translate(91.265625 0)"/>
      <use xlink:href="#DejaVuSans-3" transform="translate(154.75 0)"/>
      <use xlink:href="#DejaVuSans-14" transform="translate(186.53125 0)"/>
     </g>
    </g>
   </g>
  </g>
 </g>
 <defs>
  <clipPath id="p2bebd0acac">
   <rect x="44.845313" y="7.2" width="516.754687" height="234.399141"/>
  </clipPath>
 </defs>
</svg>
