<?xml version="1.0" encoding="utf-8" standalone="no"?>
<!DOCTYPE svg PUBLIC "-//W3C//DTD SVG 1.1//EN"
  "http://www.w3.org/Graphics/SVG/1.1/DTD/svg11.dtd">
<svg xmlns:xlink="http://www.w3.org/1999/xlink" width="568.8pt" height="280.8pt" viewBox="0 0 568.8 280.8" xmlns="http://www.w3.org/2000/svg" version="1.1">
 <metadata>
  <rdf:RDF xmlns:dc="http://purl.org/dc/elements/1.1/" xmlns:cc="http://creativecommons.org/ns#" xmlns:rdf="http://www.w3.org/1999/02/22-rdf-syntax-ns#">
   <cc:Work>
    <dc:type rdf:resource="http://purl.org/dc/dcmitype/StillImage"/>
    <dc:date>2026-06-05T07:39:43.743341</dc:date>
    <dc:format>image/svg+xml</dc:format>
    <dc:creator>
     <cc:Agent>
      <dc:title>Matplotlib v3.10.9, https://matplotlib.org/</dc:title>
     </cc:Agent>
    </dc:creator>
   </cc:Work>
  </rdf:RDF>
 </metadata>
 <defs>
  <style type="text/css">*{stroke-linejoin: round; stroke-linecap: butt}</style>
 </defs>
 <g id="figure_1">
  <g id="patch_1">
   <path d="M 0 280.8 
L 568.8 280.8 
L 568.8 0 
L 0 0 
L 0 280.8 
z
" style="fill: none"/>
  </g>
  <g id="axes_1">
   <g id="patch_2">
    <path d="M 44.845313 242.275938 
L 561.6 242.275938 
L 561.6 7.2 
L 44.845313 7.2 
L 44.845313 242.275938 
z
" style="fill: none"/>
   </g>
   <g id="matplotlib.axis_1">
    <g id="xtick_1">
     <g id="line2d_1">
      <path d="M 68.334162 242.275938 
L 68.334162 7.2 
" clip-path="url(#p6123f81a5f)" style="fill: none; stroke-dasharray: 2.96,1.28; stroke-dashoffset: 0; stroke: #7f7f7f; stroke-opacity: 0.6; stroke-width: 0.8"/>
     </g>
     <g id="line2d_2">
      <defs>
       <path id="m2035ffc11c" d="M 0 0 
L 0 3.5 
" style="stroke: #7f7f7f; stroke-width: 1.8"/>
      </defs>
      <g>
       <use xlink:href="#m2035ffc11c" x="68.334162" y="242.275938" style="fill: #7f7f7f; stroke: #7f7f7f; stroke-width: 1.8"/>
      </g>
     </g>
     <g id="text_1">
      <!-- 0 -->
      <g style="fill: #7f7f7f" transform="translate(65.152912 256.874375) scale(0.1 -0.1)">
       <defs>
        <path id="DejaVuSans-30" d="M 2034 4250 
Q 1547 4250 1301 3770 
Q 1056 3291 1056 2328 
Q 1056 1369 1301 889 
Q 1547 409 2034 409 
Q 2525 409 2770 889 
Q 3016 1369 3016 2328 
Q 3016 3291 2770 3770 
Q 2525 4250 2034 4250 
z
M 2034 4750 
Q 2819 4750 3233 4129 
Q 3647 3509 3647 2328 
Q 3647 1150 3233 529 
Q 2819 -91 2034 -91 
Q 1250 -91 836 529 
Q 422 1150 422 2328 
Q 422 3509 836 4129 
Q 1250 4750 2034 4750 
z
" transform="scale(0.015625)"/>
       </defs>
       <use xlink:href="#DejaVuSans-30"/>
      </g>
     </g>
    </g>
    <g id="xtick_2">
     <g id="line2d_3">
      <path d="M 162.28956 242.275938 
L 162.28956 7.2 
" clip-path="url(#p6123f81a5f)" style="fill: none; stroke-dasharray: 2.96,1.28; stroke-dashoffset: 0; stroke: #7f7f7f; stroke-opacity: 0.6; stroke-width: 0.8"/>
     </g>
     <g id="line2d_4">
      <g>
       <use xlink:href="#m2035ffc11c" x="162.28956" y="242.275938" style="fill: #7f7f7f; stroke: #7f7f7f; stroke-width: 1.8"/>
      </g>
     </g>
     <g id="text_2">
      <!-- 20 -->
      <g style="fill: #7f7f7f" transform="translate(155.92706 256.874375) scale(0.1 -0.1)">
       <defs>
        <path id="DejaVuSans-32" d="M 1228 531 
L 3431 531 
L 3431 0 
L 469 0 
L 469 531 
Q 828 903 1448 1529 
Q 2069 2156 2228 2338 
Q 2531 2678 2651 2914 
Q 2772 3150 2772 3378 
Q 2772 3750 2511 3984 
Q 2250 4219 1831 4219 
Q 1534 4219 1204 4116 
Q 875 4013 500 3803 
L 500 4441 
Q 881 4594 1212 4672 
Q 1544 4750 1819 4750 
Q 2544 4750 2975 4387 
Q 3406 4025 3406 3419 
Q 3406 3131 3298 2873 
Q 3191 2616 2906 2266 
Q 2828 2175 2409 1742 
Q 1991 1309 1228 531 
z
" transform="scale(0.015625)"/>
       </defs>
       <use xlink:href="#DejaVuSans-32"/>
       <use xlink:href="#DejaVuSans-30" transform="translate(63.623047 0)"/>
      </g>
     </g>
    </g>
    <g id="xtick_3">
     <g id="line2d_5">
      <path d="M 256.244957 242.275938 
L 256.244957 7.2 
" clip-path="url(#p6123f81a5f)" style="fill: none; stroke-dasharray: 2.96,1.28; stroke-dashoffset: 0; stroke: #7f7f7f; stroke-opacity: 0.6; stroke-width: 0.8"/>
     </g>
     <g id="line2d_6">
      <g>
       <use xlink:href="#m2035ffc11c" x="256.244957" y="242.275938" style="fill: #7f7f7f; stroke: #7f7f7f; stroke-width: 1.8"/>
      </g>
     </g>
     <g id="text_3">
      <!-- 40 -->
      <g style="fill: #7f7f7f" transform="translate(249.882457 256.874375) scale(0.1 -0.1)">
       <defs>
        <path id="DejaVuSans-34" d="M 2419 4116 
L 825 1625 
L 2419 1625 
L 2419 4116 
z
M 2253 4666 
L 3047 4666 
L 3047 1625 
L 3713 1625 
L 3713 1100 
L 3047 1100 
L 3047 0 
L 2419 0 
L 2419 1100 
L 313 1100 
L 313 1709 
L 2253 4666 
z
" transform="scale(0.015625)"/>
       </defs>
       <use xlink:href="#DejaVuSans-34"/>
       <use xlink:href="#DejaVuSans-30" transform="translate(63.623047 0)"/>
      </g>
     </g>
    </g>
    <g id="xtick_4">
     <g id="line2d_7">
      <path d="M 350.200355 242.275938 
L 350.200355 7.2 
" clip-path="url(#p6123f81a5f)" style="fill: none; stroke-dasharray: 2.96,1.28; stroke-dashoffset: 0; stroke: #7f7f7f; stroke-opacity: 0.6; stroke-width: 0.8"/>
     </g>
     <g id="line2d_8">
      <g>
       <use xlink:href="#m2035ffc11c" x="350.200355" y="242.275938" style="fill: #7f7f7f; stroke: #7f7f7f; stroke-width: 1.8"/>
      </g>
     </g>
     <g id="text_4">
      <!-- 60 -->
      <g style="fill: #7f7f7f" transform="translate(343.837855 256.874375) scale(0.1 -0.1)">
       <defs>
        <path id="DejaVuSans-36" d="M 2113 2584 
Q 1688 2584 1439 2293 
Q 1191 2003 1191 1497 
Q 1191 994 1439 701 
Q 1688 409 2113 409 
Q 2538 409 2786 701 
Q 3034 994 3034 1497 
Q 3034 2003 2786 2293 
Q 2538 2584 2113 2584 
z
M 3366 4563 
L 3366 3988 
Q 3128 4100 2886 4159 
Q 2644 4219 2406 4219 
Q 1781 4219 1451 3797 
Q 1122 3375 1075 2522 
Q 1259 2794 1537 2939 
Q 1816 3084 2150 3084 
Q 2853 3084 3261 2657 
Q 3669 2231 3669 1497 
Q 3669 778 3244 343 
Q 2819 -91 2113 -91 
Q 1303 -91 875 529 
Q 447 1150 447 2328 
Q 447 3434 972 4092 
Q 1497 4750 2381 4750 
Q 2619 4750 2861 4703 
Q 3103 4656 3366 4563 
z
" transform="scale(0.015625)"/>
       </defs>
       <use xlink:href="#DejaVuSans-36"/>
       <use xlink:href="#DejaVuSans-30" transform="translate(63.623047 0)"/>
      </g>
     </g>
    </g>
    <g id="xtick_5">
     <g id="line2d_9">
      <path d="M 444.155753 242.275938 
L 444.155753 7.2 
" clip-path="url(#p6123f81a5f)" style="fill: none; stroke-dasharray: 2.96,1.28; stroke-dashoffset: 0; stroke: #7f7f7f; stroke-opacity: 0.6; stroke-width: 0.8"/>
     </g>
     <g id="line2d_10">
      <g>
       <use xlink:href="#m2035ffc11c" x="444.155753" y="242.275938" style="fill: #7f7f7f; stroke: #7f7f7f; stroke-width: 1.8"/>
      </g>
     </g>
     <g id="text_5">
      <!-- 80 -->
      <g style="fill: #7f7f7f" transform="translate(437.793253 256.874375) scale(0.1 -0.1)">
       <defs>
        <path id="DejaVuSans-38" d="M 2034 2216 
Q 1584 2216 1326 1975 
Q 1069 1734 1069 1313 
Q 1069 891 1326 650 
Q 1584 409 2034 409 
Q 2484 409 2743 651 
Q 3003 894 3003 1313 
Q 3003 1734 2745 1975 
Q 2488 2216 2034 2216 
z
M 1403 2484 
Q 997 2584 770 2862 
Q 544 3141 544 3541 
Q 544 4100 942 4425 
Q 1341 4750 2034 4750 
Q 2731 4750 3128 4425 
Q 3525 4100 3525 3541 
Q 3525 3141 3298 2862 
Q 3072 2584 2669 2484 
Q 3125 2378 3379 2068 
Q 3634 1759 3634 1313 
Q 3634 634 3220 271 
Q 2806 -91 2034 -91 
Q 1263 -91 848 271 
Q 434 634 434 1313 
Q 434 1759 690 2068 
Q 947 2378 1403 2484 
z
M 1172 3481 
Q 1172 3119 1398 2916 
Q 1625 2713 2034 2713 
Q 2441 2713 2670 2916 
Q 2900 3119 2900 3481 
Q 2900 3844 2670 4047 
Q 2441 4250 2034 4250 
Q 1625 4250 1398 4047 
Q 1172 3844 1172 3481 
z
" transform="scale(0.015625)"/>
       </defs>
       <use xlink:href="#DejaVuSans-38"/>
       <use xlink:href="#DejaVuSans-30" transform="translate(63.623047 0)"/>
      </g>
     </g>
    </g>
    <g id="xtick_6">
     <g id="line2d_11">
      <path d="M 538.111151 242.275938 
L 538.111151 7.2 
" clip-path="url(#p6123f81a5f)" style="fill: none; stroke-dasharray: 2.96,1.28; stroke-dashoffset: 0; stroke: #7f7f7f; stroke-opacity: 0.6; stroke-width: 0.8"/>
     </g>
     <g id="line2d_12">
      <g>
       <use xlink:href="#m2035ffc11c" x="538.111151" y="242.275938" style="fill: #7f7f7f; stroke: #7f7f7f; stroke-width: 1.8"/>
      </g>
     </g>
     <g id="text_6">
      <!-- 100 -->
      <g style="fill: #7f7f7f" transform="translate(528.567401 256.874375) scale(0.1 -0.1)">
       <defs>
        <path id="DejaVuSans-31" d="M 794 531 
L 1825 531 
L 1825 4091 
L 703 3866 
L 703 4441 
L 1819 4666 
L 2450 4666 
L 2450 531 
L 3481 531 
L 3481 0 
L 794 0 
L 794 531 
z
" transform="scale(0.015625)"/>
       </defs>
       <use xlink:href="#DejaVuSans-31"/>
       <use xlink:href="#DejaVuSans-30" transform="translate(63.623047 0)"/>
       <use xlink:href="#DejaVuSans-30" transform="translate(127.246094 0)"/>
      </g>
     </g>
    </g>
    <g id="text_7">
     <!-- time [s] -->
     <g style="fill: #7f7f7f" transform="translate(281.892109 271.312344) scale(0.11 -0.11)">
      <defs>
       <path id="DejaVuSans-74" d="M 1172 4494 
L 1172 3500 
L 2356 3500 
L 2356 3053 
L 1172 3053 
L 1172 1153 
Q 1172 725 1289 603 
Q 1406 481 1766 481 
L 2356 481 
L 2356 0 
L 1766 0 
Q 1100 0 847 248 
Q 594 497 594 1153 
L 594 3053 
L 172 3053 
L 172 3500 
L 594 3500 
L 594 4494 
L 1172 4494 
z
" transform="scale(0.015625)"/>
       <path id="DejaVuSans-69" d="M 603 3500 
L 1178 3500 
L 1178 0 
L 603 0 
L 603 3500 
z
M 603 4863 
L 1178 4863 
L 1178 4134 
L 603 4134 
L 603 4863 
z
" transform="scale(0.015625)"/>
       <path id="DejaVuSans-6d" d="M 3328 2828 
Q 3544 3216 3844 3400 
Q 4144 3584 4550 3584 
Q 5097 3584 5394 3201 
Q 5691 2819 5691 2113 
L 5691 0 
L 5113 0 
L 5113 2094 
Q 5113 2597 4934 2840 
Q 4756 3084 4391 3084 
Q 3944 3084 3684 2787 
Q 3425 2491 3425 1978 
L 3425 0 
L 2847 0 
L 2847 2094 
Q 2847 2600 2669 2842 
Q 2491 3084 2119 3084 
Q 1678 3084 1418 2786 
Q 1159 2488 1159 1978 
L 1159 0 
L 581 0 
L 581 3500 
L 1159 3500 
L 1159 2956 
Q 1356 3278 1631 3431 
Q 1906 3584 2284 3584 
Q 2666 3584 2933 3390 
Q 3200 3197 3328 2828 
z
" transform="scale(0.015625)"/>
       <path id="DejaVuSans-65" d="M 3597 1894 
L 3597 1613 
L 953 1613 
Q 991 1019 1311 708 
Q 1631 397 2203 397 
Q 2534 397 2845 478 
Q 3156 559 3463 722 
L 3463 178 
Q 3153 47 2828 -22 
Q 2503 -91 2169 -91 
Q 1331 -91 842 396 
Q 353 884 353 1716 
Q 353 2575 817 3079 
Q 1281 3584 2069 3584 
Q 2775 3584 3186 3129 
Q 3597 2675 3597 1894 
z
M 3022 2063 
Q 3016 2534 2758 2815 
Q 2500 3097 2075 3097 
Q 1594 3097 1305 2825 
Q 1016 2553 972 2059 
L 3022 2063 
z
" transform="scale(0.015625)"/>
       <path id="DejaVuSans-20" transform="scale(0.015625)"/>
       <path id="DejaVuSans-5b" d="M 550 4863 
L 1875 4863 
L 1875 4416 
L 1125 4416 
L 1125 -397 
L 1875 -397 
L 1875 -844 
L 550 -844 
L 550 4863 
z
" transform="scale(0.015625)"/>
       <path id="DejaVuSans-73" d="M 2834 3397 
L 2834 2853 
Q 2591 2978 2328 3040 
Q 2066 3103 1784 3103 
Q 1356 3103 1142 2972 
Q 928 2841 928 2578 
Q 928 2378 1081 2264 
Q 1234 2150 1697 2047 
L 1894 2003 
Q 2506 1872 2764 1633 
Q 3022 1394 3022 966 
Q 3022 478 2636 193 
Q 2250 -91 1575 -91 
Q 1294 -91 989 -36 
Q 684 19 347 128 
L 347 722 
Q 666 556 975 473 
Q 1284 391 1588 391 
Q 1994 391 2212 530 
Q 2431 669 2431 922 
Q 2431 1156 2273 1281 
Q 2116 1406 1581 1522 
L 1381 1569 
Q 847 1681 609 1914 
Q 372 2147 372 2553 
Q 372 3047 722 3315 
Q 1072 3584 1716 3584 
Q 2034 3584 2315 3537 
Q 2597 3491 2834 3397 
z
" transform="scale(0.015625)"/>
       <path id="DejaVuSans-5d" d="M 1947 4863 
L 1947 -844 
L 622 -844 
L 622 -397 
L 1369 -397 
L 1369 4416 
L 622 4416 
L 622 4863 
L 1947 4863 
z
" transform="scale(0.015625)"/>
      </defs>
      <use xlink:href="#DejaVuSans-74"/>
      <use xlink:href="#DejaVuSans-69" transform="translate(39.208984 0)"/>
      <use xlink:href="#DejaVuSans-6d" transform="translate(66.992188 0)"/>
      <use xlink:href="#DejaVuSans-65" transform="translate(164.404297 0)"/>
      <use xlink:href="#DejaVuSans-20" transform="translate(225.927734 0)"/>
      <use xlink:href="#DejaVuSans-5b" transform="translate(257.714844 0)"/>
      <use xlink:href="#DejaVuSans-73" transform="translate(296.728516 0)"/>
      <use xlink:href="#DejaVuSans-5d" transform="translate(348.828125 0)"/>
     </g>
    </g>
   </g>
   <g id="matplotlib.axis_2">
    <g id="ytick_1">
     <g id="line2d_13">
      <path d="M 44.845313 224.670751 
L 561.6 224.670751 
" clip-path="url(#p6123f81a5f)" style="fill: none; stroke-dasharray: 2.96,1.28; stroke-dashoffset: 0; stroke: #7f7f7f; stroke-opacity: 0.6; stroke-width: 0.8"/>
     </g>
     <g id="line2d_14">
      <defs>
       <path id="m88d32c6aca" d="M 0 0 
L -3.5 0 
" style="stroke: #7f7f7f; stroke-width: 1.8"/>
      </defs>
      <g>
       <use xlink:href="#m88d32c6aca" x="44.845313" y="224.670751" style="fill: #7f7f7f; stroke: #7f7f7f; stroke-width: 1.8"/>
      </g>
     </g>
     <g id="text_8">
      <!-- −0.50 -->
      <g style="fill: #7f7f7f" transform="translate(7.2 228.46997) scale(0.1 -0.1)">
       <defs>
        <path id="DejaVuSans-2212" d="M 678 2272 
L 4684 2272 
L 4684 1741 
L 678 1741 
L 678 2272 
z
" transform="scale(0.015625)"/>
        <path id="DejaVuSans-2e" d="M 684 794 
L 1344 794 
L 1344 0 
L 684 0 
L 684 794 
z
" transform="scale(0.015625)"/>
        <path id="DejaVuSans-35" d="M 691 4666 
L 3169 4666 
L 3169 4134 
L 1269 4134 
L 1269 2991 
Q 1406 3038 1543 3061 
Q 1681 3084 1819 3084 
Q 2600 3084 3056 2656 
Q 3513 2228 3513 1497 
Q 3513 744 3044 326 
Q 2575 -91 1722 -91 
Q 1428 -91 1123 -41 
Q 819 9 494 109 
L 494 744 
Q 775 591 1075 516 
Q 1375 441 1709 441 
Q 2250 441 2565 725 
Q 2881 1009 2881 1497 
Q 2881 1984 2565 2268 
Q 2250 2553 1709 2553 
Q 1456 2553 1204 2497 
Q 953 2441 691 2322 
L 691 4666 
z
" transform="scale(0.015625)"/>
       </defs>
       <use xlink:href="#DejaVuSans-2212"/>
       <use xlink:href="#DejaVuSans-30" transform="translate(83.789062 0)"/>
       <use xlink:href="#DejaVuSans-2e" transform="translate(147.412109 0)"/>
       <use xlink:href="#DejaVuSans-35" transform="translate(179.199219 0)"/>
       <use xlink:href="#DejaVuSans-30" transform="translate(242.822266 0)"/>
      </g>
     </g>
    </g>
    <g id="ytick_2">
     <g id="line2d_15">
      <path d="M 44.845313 192.167709 
L 561.6 192.167709 
" clip-path="url(#p6123f81a5f)" style="fill: none; stroke-dasharray: 2.96,1.28; stroke-dashoffset: 0; stroke: #7f7f7f; stroke-opacity: 0.6; stroke-width: 0.8"/>
     </g>
     <g id="line2d_16">
      <g>
       <use xlink:href="#m88d32c6aca" x="44.845313" y="192.167709" style="fill: #7f7f7f; stroke: #7f7f7f; stroke-width: 1.8"/>
      </g>
     </g>
     <g id="text_9">
      <!-- −0.25 -->
      <g style="fill: #7f7f7f" transform="translate(7.2 195.966928) scale(0.1 -0.1)">
       <use xlink:href="#DejaVuSans-2212"/>
       <use xlink:href="#DejaVuSans-30" transform="translate(83.789062 0)"/>
       <use xlink:href="#DejaVuSans-2e" transform="translate(147.412109 0)"/>
       <use xlink:href="#DejaVuSans-32" transform="translate(179.199219 0)"/>
       <use xlink:href="#DejaVuSans-35" transform="translate(242.822266 0)"/>
      </g>
     </g>
    </g>
    <g id="ytick_3">
     <g id="line2d_17">
      <path d="M 44.845313 159.664667 
L 561.6 159.664667 
" clip-path="url(#p6123f81a5f)" style="fill: none; stroke-dasharray: 2.96,1.28; stroke-dashoffset: 0; stroke: #7f7f7f; stroke-opacity: 0.6; stroke-width: 0.8"/>
     </g>
     <g id="line2d_18">
      <g>
       <use xlink:href="#m88d32c6aca" x="44.845313" y="159.664667" style="fill: #7f7f7f; stroke: #7f7f7f; stroke-width: 1.8"/>
      </g>
     </g>
     <g id="text_10">
      <!-- 0.00 -->
      <g style="fill: #7f7f7f" transform="translate(15.579688 163.463886) scale(0.1 -0.1)">
       <use xlink:href="#DejaVuSans-30"/>
       <use xlink:href="#DejaVuSans-2e" transform="translate(63.623047 0)"/>
       <use xlink:href="#DejaVuSans-30" transform="translate(95.410156 0)"/>
       <use xlink:href="#DejaVuSans-30" transform="translate(159.033203 0)"/>
      </g>
     </g>
    </g>
    <g id="ytick_4">
     <g id="line2d_19">
      <path d="M 44.845313 127.161625 
L 561.6 127.161625 
" clip-path="url(#p6123f81a5f)" style="fill: none; stroke-dasharray: 2.96,1.28; stroke-dashoffset: 0; stroke: #7f7f7f; stroke-opacity: 0.6; stroke-width: 0.8"/>
     </g>
     <g id="line2d_20">
      <g>
       <use xlink:href="#m88d32c6aca" x="44.845313" y="127.161625" style="fill: #7f7f7f; stroke: #7f7f7f; stroke-width: 1.8"/>
      </g>
     </g>
     <g id="text_11">
      <!-- 0.25 -->
      <g style="fill: #7f7f7f" transform="translate(15.579688 130.960844) scale(0.1 -0.1)">
       <use xlink:href="#DejaVuSans-30"/>
       <use xlink:href="#DejaVuSans-2e" transform="translate(63.623047 0)"/>
       <use xlink:href="#DejaVuSans-32" transform="translate(95.410156 0)"/>
       <use xlink:href="#DejaVuSans-35" transform="translate(159.033203 0)"/>
      </g>
     </g>
    </g>
    <g id="ytick_5">
     <g id="line2d_21">
      <path d="M 44.845313 94.658583 
L 561.6 94.658583 
" clip-path="url(#p6123f81a5f)" style="fill: none; stroke-dasharray: 2.96,1.28; stroke-dashoffset: 0; stroke: #7f7f7f; stroke-opacity: 0.6; stroke-width: 0.8"/>
     </g>
     <g id="line2d_22">
      <g>
       <use xlink:href="#m88d32c6aca" x="44.845313" y="94.658583" style="fill: #7f7f7f; stroke: #7f7f7f; stroke-width: 1.8"/>
      </g>
     </g>
     <g id="text_12">
      <!-- 0.50 -->
      <g style="fill: #7f7f7f" transform="translate(15.579688 98.457802) scale(0.1 -0.1)">
       <use xlink:href="#DejaVuSans-30"/>
       <use xlink:href="#DejaVuSans-2e" transform="translate(63.623047 0)"/>
       <use xlink:href="#DejaVuSans-35" transform="translate(95.410156 0)"/>
       <use xlink:href="#DejaVuSans-30" transform="translate(159.033203 0)"/>
      </g>
     </g>
    </g>
    <g id="ytick_6">
     <g id="line2d_23">
      <path d="M 44.845313 62.155541 
L 561.6 62.155541 
" clip-path="url(#p6123f81a5f)" style="fill: none; stroke-dasharray: 2.96,1.28; stroke-dashoffset: 0; stroke: #7f7f7f; stroke-opacity: 0.6; stroke-width: 0.8"/>
     </g>
     <g id="line2d_24">
      <g>
       <use xlink:href="#m88d32c6aca" x="44.845313" y="62.155541" style="fill: #7f7f7f; stroke: #7f7f7f; stroke-width: 1.8"/>
      </g>
     </g>
     <g id="text_13">
      <!-- 0.75 -->
      <g style="fill: #7f7f7f" transform="translate(15.579688 65.95476) scale(0.1 -0.1)">
       <defs>
        <path id="DejaVuSans-37" d="M 525 4666 
L 3525 4666 
L 3525 4397 
L 1831 0 
L 1172 0 
L 2766 4134 
L 525 4134 
L 525 4666 
z
" transform="scale(0.015625)"/>
       </defs>
       <use xlink:href="#DejaVuSans-30"/>
       <use xlink:href="#DejaVuSans-2e" transform="translate(63.623047 0)"/>
       <use xlink:href="#DejaVuSans-37" transform="translate(95.410156 0)"/>
       <use xlink:href="#DejaVuSans-35" transform="translate(159.033203 0)"/>
      </g>
     </g>
    </g>
    <g id="ytick_7">
     <g id="line2d_25">
      <path d="M 44.845313 29.652499 
L 561.6 29.652499 
" clip-path="url(#p6123f81a5f)" style="fill: none; stroke-dasharray: 2.96,1.28; stroke-dashoffset: 0; stroke: #7f7f7f; stroke-opacity: 0.6; stroke-width: 0.8"/>
     </g>
     <g id="line2d_26">
      <g>
       <use xlink:href="#m88d32c6aca" x="44.845313" y="29.652499" style="fill: #7f7f7f; stroke: #7f7f7f; stroke-width: 1.8"/>
      </g>
     </g>
     <g id="text_14">
      <!-- 1.00 -->
      <g style="fill: #7f7f7f" transform="translate(15.579688 33.451717) scale(0.1 -0.1)">
       <use xlink:href="#DejaVuSans-31"/>
       <use xlink:href="#DejaVuSans-2e" transform="translate(63.623047 0)"/>
       <use xlink:href="#DejaVuSans-30" transform="translate(95.410156 0)"/>
       <use xlink:href="#DejaVuSans-30" transform="translate(159.033203 0)"/>
      </g>
     </g>
    </g>
   </g>
   <g id="line2d_27">
    <path d="M 68.334162 159.664667 
L 68.38114 159.052496 
L 68.570901 160.14713 
L 69.08537 159.687648 
L 69.297269 160.239088 
L 69.765326 159.614268 
L 70.035121 159.354497 
L 70.326551 159.834957 
L 70.623664 160.560127 
L 70.938104 159.354668 
L 71.260222 159.680515 
L 73.336638 160.456953 
L 73.703328 160.783902 
L 74.404155 159.325972 
L 74.780253 159.927143 
L 75.130529 160.086568 
L 76.465141 159.056578 
L 82.386572 159.641901 
L 82.795663 159.106781 
L 83.10041 160.243105 
L 85.61992 159.679419 
L 86.981427 159.919405 
L 89.796197 159.268309 
L 90.957586 159.612328 
L 92.670997 159.139479 
L 93.367636 158.579168 
L 93.741817 159.738082 
L 94.676952 159.095059 
L 94.983154 160.056319 
L 95.58224 159.055826 
L 96.926416 159.12442 
L 98.330842 159.465064 
L 98.567365 159.111518 
L 99.260154 159.71133 
L 104.685503 159.393579 
L 106.131988 159.603125 
L 107.783648 160.240793 
L 109.606795 159.783121 
L 110.987837 160.249595 
L 111.363705 159.294707 
L 112.172068 159.652702 
L 113.001041 160.011364 
L 113.36817 159.166259 
L 114.106467 159.793331 
L 117.218813 159.490714 
L 121.747426 159.530395 
L 122.570906 159.188723 
L 123.711155 160.091892 
L 124.901895 159.537062 
L 126.767506 159.935818 
L 128.258689 159.539439 
L 128.992255 160.44071 
L 129.38807 159.750078 
L 130.55411 159.946728 
L 130.950195 159.428979 
L 131.325694 159.998154 
L 132.092168 160.292995 
L 132.814926 159.634433 
L 133.130653 159.864691 
L 133.716943 160.317387 
L 134.407973 159.330564 
L 134.814144 160.346784 
L 135.54752 159.844249 
L 136.65886 159.788716 
L 138.193555 159.804086 
L 139.419089 160.12538 
L 146.59836 159.375382 
L 146.943812 158.718803 
L 147.722215 159.252811 
L 148.075983 160.34703 
L 148.776725 159.383765 
L 150.826769 159.71963 
L 151.175156 159.30361 
L 151.509445 159.78268 
L 152.551926 159.948916 
L 153.81472 159.444836 
L 154.988091 159.283408 
L 157.707063 159.679367 
L 157.984227 158.824612 
L 158.671861 159.723314 
L 160.497708 159.825619 
L 162.088903 158.873058 
L 162.148232 159.305432 
L 162.285577 155.573057 
L 162.28955 158.477306 
L 162.289844 17.88527 
L 163.212242 29.531239 
L 163.519986 28.908857 
L 164.219932 30.1219 
L 164.384754 28.302447 
L 165.159045 29.674273 
L 166.90609 29.814799 
L 168.592041 31.338136 
L 171.709582 36.368719 
L 182.661033 78.790698 
L 188.854005 106.389527 
L 199.33663 143.561717 
L 203.311098 152.699407 
L 205.865364 158.342905 
L 206.237705 157.829249 
L 206.607628 158.577327 
L 208.924202 162.416952 
L 213.822231 167.342806 
L 214.232155 166.578249 
L 214.614762 166.890196 
L 215.816537 168.116657 
L 217.170061 168.35293 
L 219.787444 168.825942 
L 224.192477 168.790538 
L 224.658866 169.380853 
L 225.201186 168.88616 
L 226.033816 168.485662 
L 227.842075 168.938761 
L 229.890543 167.602039 
L 231.054927 167.442978 
L 235.974605 166.160302 
L 239.690357 164.851976 
L 240.861671 164.267981 
L 243.891214 163.195279 
L 249.851305 161.469822 
L 251.016645 161.769735 
L 252.218831 160.652378 
L 256.665287 159.703558 
L 257.920154 160.633698 
L 258.255602 159.172561 
L 258.980175 159.54548 
L 263.899853 159.226234 
L 265.086212 159.157072 
L 267.419723 159.160321 
L 268.77133 159.254771 
L 279.163816 158.50691 
L 280.006016 159.473542 
L 280.392672 158.842413 
L 281.664767 159.239251 
L 283.096623 158.778177 
L 283.970684 159.448395 
L 284.823139 158.565919 
L 285.213484 158.950884 
L 286.378808 159.456633 
L 288.881762 158.569894 
L 289.278541 159.393255 
L 290.022294 158.849182 
L 291.459441 159.420322 
L 292.97706 159.027554 
L 293.337337 158.534428 
L 293.681708 159.971984 
L 294.033855 159.052107 
L 298.784359 159.063181 
L 299.630438 159.533714 
L 300.80145 159.041493 
L 307.187338 159.810083 
L 308.460033 159.443895 
L 310.127041 160.331101 
L 311.309995 159.698177 
L 312.16876 159.727084 
L 313.467448 159.454318 
L 321.153886 159.413545 
L 321.51396 160.354765 
L 322.260762 159.618058 
L 323.367347 159.836172 
L 324.649077 159.64305 
L 325.029859 160.408091 
L 325.415782 160.008664 
L 325.789871 158.928802 
L 326.13825 159.57065 
L 326.510432 160.313839 
L 327.264232 159.805757 
L 328.09939 159.84723 
L 329.27887 159.323186 
L 330.11667 160.13424 
L 330.533341 159.351456 
L 332.129813 159.815903 
L 333.971721 159.651337 
L 339.491918 159.960369 
L 339.866681 159.056988 
L 340.24386 159.821655 
L 342.419984 159.73068 
L 343.911776 159.648448 
L 344.664203 159.082778 
L 345.413555 160.33265 
L 347.303524 159.101648 
L 348.526506 159.983453 
L 350.159246 159.239033 
L 350.182158 159.938476 
L 350.201956 231.590668 
L 350.200027 156.112817 
L 351.875824 225.270599 
L 358.988925 221.837838 
L 361.57597 218.452127 
L 366.854663 208.842212 
L 379.223952 181.244018 
L 380.062831 179.549157 
L 382.639119 174.78204 
L 389.353039 165.168143 
L 389.715593 165.364454 
L 391.564763 162.453006 
L 392.702363 162.36201 
L 394.149414 160.687547 
L 395.837915 158.308915 
L 396.61976 158.983612 
L 398.642768 157.344563 
L 399.08136 157.926719 
L 400.574949 156.115781 
L 400.965901 156.905408 
L 401.35959 156.466398 
L 402.567571 155.985362 
L 405.413963 155.819704 
L 409.25061 154.65344 
L 409.638186 155.492176 
L 410.024892 154.783021 
L 411.934034 154.491889 
L 413.608632 155.374469 
L 415.601358 155.167664 
L 421.602884 156.254136 
L 422.466394 155.846049 
L 424.074521 157.155663 
L 424.474764 156.050498 
L 424.851059 156.922955 
L 426.86565 157.33975 
L 427.744729 156.837024 
L 428.491416 156.921805 
L 428.842964 157.922484 
L 429.192272 157.395855 
L 430.364423 156.842073 
L 431.664081 158.039713 
L 445.49753 159.279333 
L 446.71499 159.174235 
L 454.593396 159.664076 
L 455.755941 160.004509 
L 456.967693 159.628227 
L 457.344846 160.586477 
L 457.725242 160.280239 
L 458.922544 159.128128 
L 459.319771 160.35765 
L 459.67966 159.573567 
L 461.302789 159.68114 
L 461.709357 160.165688 
L 462.122585 159.785304 
L 462.514674 159.337988 
L 462.912019 159.959444 
L 464.938768 160.235907 
L 466.823701 160.059619 
L 470.222837 160.061945 
L 471.430812 159.660617 
L 472.267819 160.117446 
L 472.685249 159.645665 
L 473.495999 160.061398 
L 473.916759 160.61381 
L 474.30911 159.840881 
L 477.531478 160.53102 
L 477.951255 159.637247 
L 478.687799 160.141839 
L 479.961409 159.784601 
L 480.748146 160.452935 
L 481.180569 159.804566 
L 481.585821 159.394698 
L 481.967612 159.974432 
L 484.017437 160.238105 
L 486.356372 160.300505 
L 486.697145 160.942689 
L 487.084482 160.281302 
L 488.162951 159.471713 
L 489.333423 159.716401 
L 491.666104 160.783089 
L 492.057753 159.470623 
L 492.844866 160.196057 
L 495.979524 159.730075 
L 498.436593 159.683051 
L 499.553061 159.178172 
L 500.874358 159.895843 
L 510.336374 158.695856 
L 510.664051 160.1843 
L 511.332946 159.944028 
L 512.532405 159.355131 
L 516.948092 159.599985 
L 517.781888 159.83013 
L 518.924636 159.564463 
L 520.30929 160.187431 
L 521.557341 159.589135 
L 525.432581 160.260018 
L 526.237396 159.661911 
L 526.631685 159.945225 
L 528.685765 159.395984 
L 532.27648 159.738599 
L 533.426414 159.248725 
L 534.623012 159.79097 
L 536.406868 159.559496 
L 538.111151 159.751326 
L 538.111151 159.751326 
" clip-path="url(#p6123f81a5f)" style="fill: none; stroke: #e41a1c; stroke-width: 2; stroke-linecap: square"/>
   </g>
   <g id="line2d_28">
    <path d="M 68.334162 159.664667 
L 73.336638 159.679522 
L 126.767506 159.662766 
L 162.28955 159.643929 
L 163.212242 157.17437 
L 180.655637 148.600321 
L 191.033867 146.196268 
L 203.311098 145.465445 
L 290.696014 146.675401 
L 320.717968 146.652458 
L 350.20073 147.482271 
L 351.149514 147.907008 
L 364.894252 151.515244 
L 382.639119 153.596091 
L 405.413963 153.560446 
L 466.410076 153.132336 
L 538.111151 153.165621 
L 538.111151 153.165621 
" clip-path="url(#p6123f81a5f)" style="fill: none; stroke: #377eb8; stroke-width: 2; stroke-linecap: square"/>
   </g>
   <g id="patch_3">
    <path d="M 44.845313 242.275938 
L 44.845313 7.2 
" style="fill: none; stroke: #7f7f7f; stroke-width: 1.8; stroke-linejoin: miter; stroke-linecap: square"/>
   </g>
   <g id="patch_4">
    <path d="M 44.845313 242.275938 
L 561.6 242.275938 
" style="fill: none; stroke: #7f7f7f; stroke-width: 1.8; stroke-linejoin: miter; stroke-linecap: square"/>
   </g>
   <g id="legend_1">
    <g id="line2d_29">
     <path d="M 499.584375 20.298438 
L 509.584375 20.298438 
L 519.584375 20.298438 
" style="fill: none; stroke: #e41a1c; stroke-width: 2; stroke-linecap: square"/>
    </g>
    <g id="text_15">
     <!-- err 1 -->
     <g style="fill: #7f7f7f" transform="translate(527.584375 23.798438) scale(0.1 -0.1)">
      <defs>
       <path id="DejaVuSans-72" d="M 2631 2963 
Q 2534 3019 2420 3045 
Q 2306 3072 2169 3072 
Q 1681 3072 1420 2755 
Q 1159 2438 1159 1844 
L 1159 0 
L 581 0 
L 581 3500 
L 1159 3500 
L 1159 2956 
Q 1341 3275 1631 3429 
Q 1922 3584 2338 3584 
Q 2397 3584 2469 3576 
Q 2541 3569 2628 3553 
L 2631 2963 
z
" transform="scale(0.015625)"/>
      </defs>
      <use xlink:href="#DejaVuSans-65"/>
      <use xlink:href="#DejaVuSans-72" transform="translate(61.523438 0)"/>
      <use xlink:href="#DejaVuSans-72" transform="translate(100.886719 0)"/>
      <use xlink:href="#DejaVuSans-20" transform="translate(142 0)"/>
      <use xlink:href="#DejaVuSans-31" transform="translate(173.787109 0)"/>
     </g>
    </g>
    <g id="line2d_30">
     <path d="M 499.584375 34.976563 
L 509.584375 34.976563 
L 519.584375 34.976563 
" style="fill: none; stroke: #377eb8; stroke-width: 2; stroke-linecap: square"/>
    </g>
    <g id="text_16">
     <!-- pid 1 -->
     <g style="fill: #7f7f7f" transform="translate(527.584375 38.476563) scale(0.1 -0.1)">
      <defs>
       <path id="DejaVuSans-70" d="M 1159 525 
L 1159 -1331 
L 581 -1331 
L 581 3500 
L 1159 3500 
L 1159 2969 
Q 1341 3281 1617 3432 
Q 1894 3584 2278 3584 
Q 2916 3584 3314 3078 
Q 3713 2572 3713 1747 
Q 3713 922 3314 415 
Q 2916 -91 2278 -91 
Q 1894 -91 1617 61 
Q 1341 213 1159 525 
z
M 3116 1747 
Q 3116 2381 2855 2742 
Q 2594 3103 2138 3103 
Q 1681 3103 1420 2742 
Q 1159 2381 1159 1747 
Q 1159 1113 1420 752 
Q 1681 391 2138 391 
Q 2594 391 2855 752 
Q 3116 1113 3116 1747 
z
" transform="scale(0.015625)"/>
       <path id="DejaVuSans-64" d="M 2906 2969 
L 2906 4863 
L 3481 4863 
L 3481 0 
L 2906 0 
L 2906 525 
Q 2725 213 2448 61 
Q 2172 -91 1784 -91 
Q 1150 -91 751 415 
Q 353 922 353 1747 
Q 353 2572 751 3078 
Q 1150 3584 1784 3584 
Q 2172 3584 2448 3432 
Q 2725 3281 2906 2969 
z
M 947 1747 
Q 947 1113 1208 752 
Q 1469 391 1925 391 
Q 2381 391 2643 752 
Q 2906 1113 2906 1747 
Q 2906 2381 2643 2742 
Q 2381 3103 1925 3103 
Q 1469 3103 1208 2742 
Q 947 2381 947 1747 
z
" transform="scale(0.015625)"/>
      </defs>
      <use xlink:href="#DejaVuSans-70"/>
      <use xlink:href="#DejaVuSans-69" transform="translate(63.476562 0)"/>
      <use xlink:href="#DejaVuSans-64" transform="translate(91.259766 0)"/>
      <use xlink:href="#DejaVuSans-20" transform="translate(154.736328 0)"/>
      <use xlink:href="#DejaVuSans-31" transform="translate(186.523438 0)"/>
     </g>
    </g>
   </g>
  </g>
 </g>
 <defs>
  <clipPath id="p6123f81a5f">
   <rect x="44.845313" y="7.2" width="516.754687" height="235.075938"/>
  </clipPath>
 </defs>
</svg>
