<?xml version="1.0" encoding="utf-8" standalone="no"?>
<!DOCTYPE svg PUBLIC "-//W3C//DTD SVG 1.1//EN"
  "http://www.w3.org/Graphics/SVG/1.1/DTD/svg11.dtd">
<svg xmlns:xlink="http://www.w3.org/1999/xlink" width="568.8pt" height="280.8pt" viewBox="0 0 568.8 280.8" xmlns="http://www.w3.org/2000/svg" version="1.1">
 <metadata>
  <rdf:RDF xmlns:dc="http://purl.org/dc/elements/1.1/" xmlns:cc="http://creativecommons.org/ns#" xmlns:rdf="http://www.w3.org/1999/02/22-rdf-syntax-ns#">
   <cc:Work>
    <dc:type rdf:resource="http://purl.org/dc/dcmitype/StillImage"/>
    <dc:date>2026-07-16T02:19:23.809265</dc:date>
    <dc:format>image/svg+xml</dc:format>
    <dc:creator>
     <cc:Agent>
      <dc:title>Matplotlib v3.11.0, https://matplotlib.org/</dc:title>
     </cc:Agent>
    </dc:creator>
   </cc:Work>
  </rdf:RDF>
 </metadata>
 <defs>
  <style type="text/css">*{stroke-linejoin: round; stroke-linecap: butt}</style>
 </defs>
 <g id="figure_1">
  <g id="patch_1">
   <path d="M 0 280.8 
L 568.8 280.8 
L 568.8 0 
L 0 0 
L 0 280.8 
z
" style="fill: none"/>
  </g>
  <g id="axes_1">
   <g id="patch_2">
    <path d="M 38.482813 241.599141 
L 561.6 241.599141 
L 561.6 7.2 
L 38.482813 7.2 
L 38.482813 241.599141 
z
" style="fill: none"/>
   </g>
   <g id="matplotlib.axis_1">
    <g id="xtick_1">
     <g id="line2d_1">
      <path d="M 62.260866 241.599141 
L 62.260866 7.2 
" clip-path="url(#p02f50a869a)" style="fill: none; stroke-dasharray: 2.96,1.28; stroke-dashoffset: 0; stroke: #7f7f7f; stroke-opacity: 0.6; stroke-width: 0.8"/>
     </g>
     <g id="line2d_2">
      <defs>
       <path id="m1ef21fd781" d="M 0 0 
L 0 3.5 
" style="stroke: #7f7f7f; stroke-width: 1.8"/>
      </defs>
      <g>
       <use xlink:href="#m1ef21fd781" x="62.260866" y="241.599141" style="fill: #7f7f7f; stroke: #7f7f7f; stroke-width: 1.8"/>
      </g>
     </g>
     <g id="text_1">
      <!-- 0 -->
      <g style="fill: #7f7f7f" transform="translate(59.079616 256.196797) scale(0.1 -0.1)">
       <defs>
        <path id="DejaVuSans-13" d="M 2034 4250 
Q 1547 4250 1301 3770 
Q 1056 3291 1056 2328 
Q 1056 1369 1301 889 
Q 1547 409 2034 409 
Q 2525 409 2770 889 
Q 3016 1369 3016 2328 
Q 3016 3291 2770 3770 
Q 2525 4250 2034 4250 
z
M 2034 4750 
Q 2819 4750 3233 4129 
Q 3647 3509 3647 2328 
Q 3647 1150 3233 529 
Q 2819 -91 2034 -91 
Q 1250 -91 836 529 
Q 422 1150 422 2328 
Q 422 3509 836 4129 
Q 1250 4750 2034 4750 
z
" transform="scale(0.015625)"/>
       </defs>
       <use xlink:href="#DejaVuSans-13"/>
      </g>
     </g>
    </g>
    <g id="xtick_2">
     <g id="line2d_3">
      <path d="M 157.373082 241.599141 
L 157.373082 7.2 
" clip-path="url(#p02f50a869a)" style="fill: none; stroke-dasharray: 2.96,1.28; stroke-dashoffset: 0; stroke: #7f7f7f; stroke-opacity: 0.6; stroke-width: 0.8"/>
     </g>
     <g id="line2d_4">
      <g>
       <use xlink:href="#m1ef21fd781" x="157.373082" y="241.599141" style="fill: #7f7f7f; stroke: #7f7f7f; stroke-width: 1.8"/>
      </g>
     </g>
     <g id="text_2">
      <!-- 20 -->
      <g style="fill: #7f7f7f" transform="translate(151.010582 256.196797) scale(0.1 -0.1)">
       <defs>
        <path id="DejaVuSans-15" d="M 1228 531 
L 3431 531 
L 3431 0 
L 469 0 
L 469 531 
Q 828 903 1448 1529 
Q 2069 2156 2228 2338 
Q 2531 2678 2651 2914 
Q 2772 3150 2772 3378 
Q 2772 3750 2511 3984 
Q 2250 4219 1831 4219 
Q 1534 4219 1204 4116 
Q 875 4013 500 3803 
L 500 4441 
Q 881 4594 1212 4672 
Q 1544 4750 1819 4750 
Q 2544 4750 2975 4387 
Q 3406 4025 3406 3419 
Q 3406 3131 3298 2873 
Q 3191 2616 2906 2266 
Q 2828 2175 2409 1742 
Q 1991 1309 1228 531 
z
" transform="scale(0.015625)"/>
       </defs>
       <use xlink:href="#DejaVuSans-15"/>
       <use xlink:href="#DejaVuSans-13" transform="translate(63.625 0)"/>
      </g>
     </g>
    </g>
    <g id="xtick_3">
     <g id="line2d_5">
      <path d="M 252.485298 241.599141 
L 252.485298 7.2 
" clip-path="url(#p02f50a869a)" style="fill: none; stroke-dasharray: 2.96,1.28; stroke-dashoffset: 0; stroke: #7f7f7f; stroke-opacity: 0.6; stroke-width: 0.8"/>
     </g>
     <g id="line2d_6">
      <g>
       <use xlink:href="#m1ef21fd781" x="252.485298" y="241.599141" style="fill: #7f7f7f; stroke: #7f7f7f; stroke-width: 1.8"/>
      </g>
     </g>
     <g id="text_3">
      <!-- 40 -->
      <g style="fill: #7f7f7f" transform="translate(246.122798 256.196797) scale(0.1 -0.1)">
       <defs>
        <path id="DejaVuSans-17" d="M 2419 4116 
L 825 1625 
L 2419 1625 
L 2419 4116 
z
M 2253 4666 
L 3047 4666 
L 3047 1625 
L 3713 1625 
L 3713 1100 
L 3047 1100 
L 3047 0 
L 2419 0 
L 2419 1100 
L 313 1100 
L 313 1709 
L 2253 4666 
z
" transform="scale(0.015625)"/>
       </defs>
       <use xlink:href="#DejaVuSans-17"/>
       <use xlink:href="#DejaVuSans-13" transform="translate(63.625 0)"/>
      </g>
     </g>
    </g>
    <g id="xtick_4">
     <g id="line2d_7">
      <path d="M 347.597514 241.599141 
L 347.597514 7.2 
" clip-path="url(#p02f50a869a)" style="fill: none; stroke-dasharray: 2.96,1.28; stroke-dashoffset: 0; stroke: #7f7f7f; stroke-opacity: 0.6; stroke-width: 0.8"/>
     </g>
     <g id="line2d_8">
      <g>
       <use xlink:href="#m1ef21fd781" x="347.597514" y="241.599141" style="fill: #7f7f7f; stroke: #7f7f7f; stroke-width: 1.8"/>
      </g>
     </g>
     <g id="text_4">
      <!-- 60 -->
      <g style="fill: #7f7f7f" transform="translate(341.235014 256.196797) scale(0.1 -0.1)">
       <defs>
        <path id="DejaVuSans-19" d="M 2113 2584 
Q 1688 2584 1439 2293 
Q 1191 2003 1191 1497 
Q 1191 994 1439 701 
Q 1688 409 2113 409 
Q 2538 409 2786 701 
Q 3034 994 3034 1497 
Q 3034 2003 2786 2293 
Q 2538 2584 2113 2584 
z
M 3366 4563 
L 3366 3988 
Q 3128 4100 2886 4159 
Q 2644 4219 2406 4219 
Q 1781 4219 1451 3797 
Q 1122 3375 1075 2522 
Q 1259 2794 1537 2939 
Q 1816 3084 2150 3084 
Q 2853 3084 3261 2657 
Q 3669 2231 3669 1497 
Q 3669 778 3244 343 
Q 2819 -91 2113 -91 
Q 1303 -91 875 529 
Q 447 1150 447 2328 
Q 447 3434 972 4092 
Q 1497 4750 2381 4750 
Q 2619 4750 2861 4703 
Q 3103 4656 3366 4563 
z
" transform="scale(0.015625)"/>
       </defs>
       <use xlink:href="#DejaVuSans-19"/>
       <use xlink:href="#DejaVuSans-13" transform="translate(63.625 0)"/>
      </g>
     </g>
    </g>
    <g id="xtick_5">
     <g id="line2d_9">
      <path d="M 442.70973 241.599141 
L 442.70973 7.2 
" clip-path="url(#p02f50a869a)" style="fill: none; stroke-dasharray: 2.96,1.28; stroke-dashoffset: 0; stroke: #7f7f7f; stroke-opacity: 0.6; stroke-width: 0.8"/>
     </g>
     <g id="line2d_10">
      <g>
       <use xlink:href="#m1ef21fd781" x="442.70973" y="241.599141" style="fill: #7f7f7f; stroke: #7f7f7f; stroke-width: 1.8"/>
      </g>
     </g>
     <g id="text_5">
      <!-- 80 -->
      <g style="fill: #7f7f7f" transform="translate(436.34723 256.196797) scale(0.1 -0.1)">
       <defs>
        <path id="DejaVuSans-1b" d="M 2034 2216 
Q 1584 2216 1326 1975 
Q 1069 1734 1069 1313 
Q 1069 891 1326 650 
Q 1584 409 2034 409 
Q 2484 409 2743 651 
Q 3003 894 3003 1313 
Q 3003 1734 2745 1975 
Q 2488 2216 2034 2216 
z
M 1403 2484 
Q 997 2584 770 2862 
Q 544 3141 544 3541 
Q 544 4100 942 4425 
Q 1341 4750 2034 4750 
Q 2731 4750 3128 4425 
Q 3525 4100 3525 3541 
Q 3525 3141 3298 2862 
Q 3072 2584 2669 2484 
Q 3125 2378 3379 2068 
Q 3634 1759 3634 1313 
Q 3634 634 3220 271 
Q 2806 -91 2034 -91 
Q 1263 -91 848 271 
Q 434 634 434 1313 
Q 434 1759 690 2068 
Q 947 2378 1403 2484 
z
M 1172 3481 
Q 1172 3119 1398 2916 
Q 1625 2713 2034 2713 
Q 2441 2713 2670 2916 
Q 2900 3119 2900 3481 
Q 2900 3844 2670 4047 
Q 2441 4250 2034 4250 
Q 1625 4250 1398 4047 
Q 1172 3844 1172 3481 
z
" transform="scale(0.015625)"/>
       </defs>
       <use xlink:href="#DejaVuSans-1b"/>
       <use xlink:href="#DejaVuSans-13" transform="translate(63.625 0)"/>
      </g>
     </g>
    </g>
    <g id="xtick_6">
     <g id="line2d_11">
      <path d="M 537.821946 241.599141 
L 537.821946 7.2 
" clip-path="url(#p02f50a869a)" style="fill: none; stroke-dasharray: 2.96,1.28; stroke-dashoffset: 0; stroke: #7f7f7f; stroke-opacity: 0.6; stroke-width: 0.8"/>
     </g>
     <g id="line2d_12">
      <g>
       <use xlink:href="#m1ef21fd781" x="537.821946" y="241.599141" style="fill: #7f7f7f; stroke: #7f7f7f; stroke-width: 1.8"/>
      </g>
     </g>
     <g id="text_6">
      <!-- 100 -->
      <g style="fill: #7f7f7f" transform="translate(528.278196 256.196797) scale(0.1 -0.1)">
       <defs>
        <path id="DejaVuSans-14" d="M 794 531 
L 1825 531 
L 1825 4091 
L 703 3866 
L 703 4441 
L 1819 4666 
L 2450 4666 
L 2450 531 
L 3481 531 
L 3481 0 
L 794 0 
L 794 531 
z
" transform="scale(0.015625)"/>
       </defs>
       <use xlink:href="#DejaVuSans-14"/>
       <use xlink:href="#DejaVuSans-13" transform="translate(63.625 0)"/>
       <use xlink:href="#DejaVuSans-13" transform="translate(127.25 0)"/>
      </g>
     </g>
    </g>
    <g id="text_7">
     <!-- time [s] -->
     <g style="fill: #7f7f7f" transform="translate(278.710859 270.957422) scale(0.11 -0.11)">
      <defs>
       <path id="DejaVuSans-57" d="M 1172 4494 
L 1172 3500 
L 2356 3500 
L 2356 3053 
L 1172 3053 
L 1172 1153 
Q 1172 725 1289 603 
Q 1406 481 1766 481 
L 2356 481 
L 2356 0 
L 1766 0 
Q 1100 0 847 248 
Q 594 497 594 1153 
L 594 3053 
L 172 3053 
L 172 3500 
L 594 3500 
L 594 4494 
L 1172 4494 
z
" transform="scale(0.015625)"/>
       <path id="DejaVuSans-4c" d="M 603 3500 
L 1178 3500 
L 1178 0 
L 603 0 
L 603 3500 
z
M 603 4863 
L 1178 4863 
L 1178 4134 
L 603 4134 
L 603 4863 
z
" transform="scale(0.015625)"/>
       <path id="DejaVuSans-50" d="M 3328 2828 
Q 3544 3216 3844 3400 
Q 4144 3584 4550 3584 
Q 5097 3584 5394 3201 
Q 5691 2819 5691 2113 
L 5691 0 
L 5113 0 
L 5113 2094 
Q 5113 2597 4934 2840 
Q 4756 3084 4391 3084 
Q 3944 3084 3684 2787 
Q 3425 2491 3425 1978 
L 3425 0 
L 2847 0 
L 2847 2094 
Q 2847 2600 2669 2842 
Q 2491 3084 2119 3084 
Q 1678 3084 1418 2786 
Q 1159 2488 1159 1978 
L 1159 0 
L 581 0 
L 581 3500 
L 1159 3500 
L 1159 2956 
Q 1356 3278 1631 3431 
Q 1906 3584 2284 3584 
Q 2666 3584 2933 3390 
Q 3200 3197 3328 2828 
z
" transform="scale(0.015625)"/>
       <path id="DejaVuSans-48" d="M 3597 1894 
L 3597 1613 
L 953 1613 
Q 991 1019 1311 708 
Q 1631 397 2203 397 
Q 2534 397 2845 478 
Q 3156 559 3463 722 
L 3463 178 
Q 3153 47 2828 -22 
Q 2503 -91 2169 -91 
Q 1331 -91 842 396 
Q 353 884 353 1716 
Q 353 2575 817 3079 
Q 1281 3584 2069 3584 
Q 2775 3584 3186 3129 
Q 3597 2675 3597 1894 
z
M 3022 2063 
Q 3016 2534 2758 2815 
Q 2500 3097 2075 3097 
Q 1594 3097 1305 2825 
Q 1016 2553 972 2059 
L 3022 2063 
z
" transform="scale(0.015625)"/>
       <path id="DejaVuSans-3" transform="scale(0.015625)"/>
       <path id="DejaVuSans-3e" d="M 550 4863 
L 1875 4863 
L 1875 4416 
L 1125 4416 
L 1125 -397 
L 1875 -397 
L 1875 -844 
L 550 -844 
L 550 4863 
z
" transform="scale(0.015625)"/>
       <path id="DejaVuSans-56" d="M 2834 3397 
L 2834 2853 
Q 2591 2978 2328 3040 
Q 2066 3103 1784 3103 
Q 1356 3103 1142 2972 
Q 928 2841 928 2578 
Q 928 2378 1081 2264 
Q 1234 2150 1697 2047 
L 1894 2003 
Q 2506 1872 2764 1633 
Q 3022 1394 3022 966 
Q 3022 478 2636 193 
Q 2250 -91 1575 -91 
Q 1294 -91 989 -36 
Q 684 19 347 128 
L 347 722 
Q 666 556 975 473 
Q 1284 391 1588 391 
Q 1994 391 2212 530 
Q 2431 669 2431 922 
Q 2431 1156 2273 1281 
Q 2116 1406 1581 1522 
L 1381 1569 
Q 847 1681 609 1914 
Q 372 2147 372 2553 
Q 372 3047 722 3315 
Q 1072 3584 1716 3584 
Q 2034 3584 2315 3537 
Q 2597 3491 2834 3397 
z
" transform="scale(0.015625)"/>
       <path id="DejaVuSans-40" d="M 1947 4863 
L 1947 -844 
L 622 -844 
L 622 -397 
L 1369 -397 
L 1369 4416 
L 622 4416 
L 622 4863 
L 1947 4863 
z
" transform="scale(0.015625)"/>
      </defs>
      <use xlink:href="#DejaVuSans-57"/>
      <use xlink:href="#DejaVuSans-4c" transform="translate(39.203125 0)"/>
      <use xlink:href="#DejaVuSans-50" transform="translate(66.984375 0)"/>
      <use xlink:href="#DejaVuSans-48" transform="translate(164.390625 0)"/>
      <use xlink:href="#DejaVuSans-3" transform="translate(225.921875 0)"/>
      <use xlink:href="#DejaVuSans-3e" transform="translate(257.703125 0)"/>
      <use xlink:href="#DejaVuSans-56" transform="translate(296.71875 0)"/>
      <use xlink:href="#DejaVuSans-40" transform="translate(348.8125 0)"/>
     </g>
    </g>
   </g>
   <g id="matplotlib.axis_2">
    <g id="ytick_1">
     <g id="line2d_13">
      <path d="M 38.482813 223.027925 
L 561.6 223.027925 
" clip-path="url(#p02f50a869a)" style="fill: none; stroke-dasharray: 2.96,1.28; stroke-dashoffset: 0; stroke: #7f7f7f; stroke-opacity: 0.6; stroke-width: 0.8"/>
     </g>
     <g id="line2d_14">
      <defs>
       <path id="m40870e4585" d="M 0 0 
L -3.5 0 
" style="stroke: #7f7f7f; stroke-width: 1.8"/>
      </defs>
      <g>
       <use xlink:href="#m40870e4585" x="38.482813" y="223.027925" style="fill: #7f7f7f; stroke: #7f7f7f; stroke-width: 1.8"/>
      </g>
     </g>
     <g id="text_8">
      <!-- −0.2 -->
      <g style="fill: #7f7f7f" transform="translate(7.2 226.826753) scale(0.1 -0.1)">
       <defs>
        <path id="DejaVuSans-c9c" d="M 678 2272 
L 4684 2272 
L 4684 1741 
L 678 1741 
L 678 2272 
z
" transform="scale(0.015625)"/>
        <path id="DejaVuSans-11" d="M 684 794 
L 1344 794 
L 1344 0 
L 684 0 
L 684 794 
z
" transform="scale(0.015625)"/>
       </defs>
       <use xlink:href="#DejaVuSans-c9c"/>
       <use xlink:href="#DejaVuSans-13" transform="translate(83.796875 0)"/>
       <use xlink:href="#DejaVuSans-11" transform="translate(147.421875 0)"/>
       <use xlink:href="#DejaVuSans-15" transform="translate(179.203125 0)"/>
      </g>
     </g>
    </g>
    <g id="ytick_2">
     <g id="line2d_15">
      <path d="M 38.482813 191.363181 
L 561.6 191.363181 
" clip-path="url(#p02f50a869a)" style="fill: none; stroke-dasharray: 2.96,1.28; stroke-dashoffset: 0; stroke: #7f7f7f; stroke-opacity: 0.6; stroke-width: 0.8"/>
     </g>
     <g id="line2d_16">
      <g>
       <use xlink:href="#m40870e4585" x="38.482813" y="191.363181" style="fill: #7f7f7f; stroke: #7f7f7f; stroke-width: 1.8"/>
      </g>
     </g>
     <g id="text_9">
      <!-- 0.0 -->
      <g style="fill: #7f7f7f" transform="translate(15.579688 195.162009) scale(0.1 -0.1)">
       <use xlink:href="#DejaVuSans-13"/>
       <use xlink:href="#DejaVuSans-11" transform="translate(63.625 0)"/>
       <use xlink:href="#DejaVuSans-13" transform="translate(95.40625 0)"/>
      </g>
     </g>
    </g>
    <g id="ytick_3">
     <g id="line2d_17">
      <path d="M 38.482813 159.698438 
L 561.6 159.698438 
" clip-path="url(#p02f50a869a)" style="fill: none; stroke-dasharray: 2.96,1.28; stroke-dashoffset: 0; stroke: #7f7f7f; stroke-opacity: 0.6; stroke-width: 0.8"/>
     </g>
     <g id="line2d_18">
      <g>
       <use xlink:href="#m40870e4585" x="38.482813" y="159.698438" style="fill: #7f7f7f; stroke: #7f7f7f; stroke-width: 1.8"/>
      </g>
     </g>
     <g id="text_10">
      <!-- 0.2 -->
      <g style="fill: #7f7f7f" transform="translate(15.579688 163.497266) scale(0.1 -0.1)">
       <use xlink:href="#DejaVuSans-13"/>
       <use xlink:href="#DejaVuSans-11" transform="translate(63.625 0)"/>
       <use xlink:href="#DejaVuSans-15" transform="translate(95.40625 0)"/>
      </g>
     </g>
    </g>
    <g id="ytick_4">
     <g id="line2d_19">
      <path d="M 38.482813 128.033694 
L 561.6 128.033694 
" clip-path="url(#p02f50a869a)" style="fill: none; stroke-dasharray: 2.96,1.28; stroke-dashoffset: 0; stroke: #7f7f7f; stroke-opacity: 0.6; stroke-width: 0.8"/>
     </g>
     <g id="line2d_20">
      <g>
       <use xlink:href="#m40870e4585" x="38.482813" y="128.033694" style="fill: #7f7f7f; stroke: #7f7f7f; stroke-width: 1.8"/>
      </g>
     </g>
     <g id="text_11">
      <!-- 0.4 -->
      <g style="fill: #7f7f7f" transform="translate(15.579688 131.832522) scale(0.1 -0.1)">
       <use xlink:href="#DejaVuSans-13"/>
       <use xlink:href="#DejaVuSans-11" transform="translate(63.625 0)"/>
       <use xlink:href="#DejaVuSans-17" transform="translate(95.40625 0)"/>
      </g>
     </g>
    </g>
    <g id="ytick_5">
     <g id="line2d_21">
      <path d="M 38.482813 96.368951 
L 561.6 96.368951 
" clip-path="url(#p02f50a869a)" style="fill: none; stroke-dasharray: 2.96,1.28; stroke-dashoffset: 0; stroke: #7f7f7f; stroke-opacity: 0.6; stroke-width: 0.8"/>
     </g>
     <g id="line2d_22">
      <g>
       <use xlink:href="#m40870e4585" x="38.482813" y="96.368951" style="fill: #7f7f7f; stroke: #7f7f7f; stroke-width: 1.8"/>
      </g>
     </g>
     <g id="text_12">
      <!-- 0.6 -->
      <g style="fill: #7f7f7f" transform="translate(15.579688 100.167779) scale(0.1 -0.1)">
       <use xlink:href="#DejaVuSans-13"/>
       <use xlink:href="#DejaVuSans-11" transform="translate(63.625 0)"/>
       <use xlink:href="#DejaVuSans-19" transform="translate(95.40625 0)"/>
      </g>
     </g>
    </g>
    <g id="ytick_6">
     <g id="line2d_23">
      <path d="M 38.482813 64.704207 
L 561.6 64.704207 
" clip-path="url(#p02f50a869a)" style="fill: none; stroke-dasharray: 2.96,1.28; stroke-dashoffset: 0; stroke: #7f7f7f; stroke-opacity: 0.6; stroke-width: 0.8"/>
     </g>
     <g id="line2d_24">
      <g>
       <use xlink:href="#m40870e4585" x="38.482813" y="64.704207" style="fill: #7f7f7f; stroke: #7f7f7f; stroke-width: 1.8"/>
      </g>
     </g>
     <g id="text_13">
      <!-- 0.8 -->
      <g style="fill: #7f7f7f" transform="translate(15.579688 68.503035) scale(0.1 -0.1)">
       <use xlink:href="#DejaVuSans-13"/>
       <use xlink:href="#DejaVuSans-11" transform="translate(63.625 0)"/>
       <use xlink:href="#DejaVuSans-1b" transform="translate(95.40625 0)"/>
      </g>
     </g>
    </g>
    <g id="ytick_7">
     <g id="line2d_25">
      <path d="M 38.482813 33.039463 
L 561.6 33.039463 
" clip-path="url(#p02f50a869a)" style="fill: none; stroke-dasharray: 2.96,1.28; stroke-dashoffset: 0; stroke: #7f7f7f; stroke-opacity: 0.6; stroke-width: 0.8"/>
     </g>
     <g id="line2d_26">
      <g>
       <use xlink:href="#m40870e4585" x="38.482813" y="33.039463" style="fill: #7f7f7f; stroke: #7f7f7f; stroke-width: 1.8"/>
      </g>
     </g>
     <g id="text_14">
      <!-- 1.0 -->
      <g style="fill: #7f7f7f" transform="translate(15.579688 36.838291) scale(0.1 -0.1)">
       <use xlink:href="#DejaVuSans-14"/>
       <use xlink:href="#DejaVuSans-11" transform="translate(63.625 0)"/>
       <use xlink:href="#DejaVuSans-13" transform="translate(95.40625 0)"/>
      </g>
     </g>
    </g>
   </g>
   <g id="line2d_27">
    <path d="M 62.260866 191.363181 
L 157.373073 191.363181 
L 158.224684 33.039463 
L 347.597511 33.039463 
L 348.382066 112.201322 
L 537.821946 112.201322 
L 537.821946 112.201322 
" clip-path="url(#p02f50a869a)" style="fill: none; stroke: #e41a1c; stroke-width: 2; stroke-linecap: square"/>
   </g>
   <g id="line2d_28">
    <path d="M 62.260866 191.363181 
L 62.394774 189.920864 
L 62.652209 192.093728 
L 63.182448 191.066336 
L 64.299583 191.988049 
L 64.64217 190.566521 
L 65.294247 191.954823 
L 68.818845 191.812164 
L 69.691379 191.537835 
L 71.451628 191.339068 
L 73.165111 191.068929 
L 73.433814 191.893585 
L 74.017114 191.471828 
L 76.075232 190.995116 
L 76.816463 191.989245 
L 77.250415 191.381588 
L 79.349119 190.811152 
L 79.647978 192.021896 
L 80.323534 190.902949 
L 81.765433 191.846611 
L 83.202085 190.747276 
L 83.906525 191.593032 
L 84.239744 190.893954 
L 84.944176 191.629267 
L 85.309713 192.483485 
L 85.677924 191.295467 
L 87.763549 192.06154 
L 88.135445 191.217806 
L 88.958565 191.682395 
L 89.366651 191.080874 
L 90.181807 191.646341 
L 91.466677 190.915403 
L 91.846604 191.525114 
L 93.688555 191.112774 
L 94.023223 192.123929 
L 94.352681 190.664576 
L 94.675717 190.985918 
L 95.068991 190.477486 
L 95.450979 191.467646 
L 95.759829 192.27927 
L 96.062873 191.006357 
L 98.621218 190.79287 
L 99.996758 190.891361 
L 100.365061 191.726696 
L 101.060832 190.982361 
L 103.869079 191.63047 
L 104.869686 190.376167 
L 105.876776 191.665974 
L 109.460302 191.299184 
L 110.686759 190.709211 
L 110.974941 191.245398 
L 111.351095 190.728754 
L 111.698233 190.397298 
L 112.716758 191.727354 
L 113.929149 191.057488 
L 114.848243 192.098468 
L 116.160961 191.269308 
L 116.728997 192.58076 
L 117.380762 191.371791 
L 118.334758 191.731892 
L 118.675371 192.01445 
L 119.027043 191.37043 
L 120.262051 190.943306 
L 120.613017 191.651592 
L 120.991946 191.281576 
L 123.198797 191.10605 
L 124.699263 191.604822 
L 126.372922 191.487417 
L 126.662539 190.040044 
L 127.276736 192.050068 
L 127.985875 191.106701 
L 128.386894 191.571872 
L 132.141973 191.770264 
L 134.87951 191.396745 
L 135.267286 192.031222 
L 135.581235 191.052566 
L 136.731098 191.06985 
L 137.54526 191.834905 
L 138.725997 191.381964 
L 139.188526 191.775414 
L 139.596382 191.198746 
L 139.959522 190.543965 
L 140.316846 191.07268 
L 141.438013 191.743429 
L 141.78481 190.820104 
L 142.599188 191.149658 
L 144.040298 191.294371 
L 144.71467 190.913366 
L 145.788119 192.524169 
L 146.13219 191.29903 
L 146.877095 192.238431 
L 148.119087 191.548356 
L 149.945098 192.152448 
L 150.291184 190.87855 
L 151.009048 191.309683 
L 152.645626 191.202635 
L 153.709419 191.356489 
L 154.028322 192.143964 
L 154.735229 191.259738 
L 156.78041 191.398764 
L 157.361764 191.054519 
L 157.373278 229.640589 
L 157.374792 178.427978 
L 158.224684 191.180243 
L 158.860152 190.069225 
L 159.415547 191.701191 
L 159.608673 190.145307 
L 160.394641 190.790877 
L 160.845588 192.202404 
L 161.420979 190.984029 
L 161.928065 190.502241 
L 163.19245 189.525912 
L 163.513264 190.249282 
L 163.851271 189.483281 
L 168.050127 179.303029 
L 171.759435 164.346856 
L 176.20754 141.443973 
L 185.258256 92.501955 
L 191.16091 66.086768 
L 194.774582 53.732521 
L 198.332754 43.18611 
L 201.623354 35.427894 
L 205.093315 30.251429 
L 206.465552 27.349625 
L 206.974215 27.332443 
L 209.071578 24.298284 
L 210.436208 24.280255 
L 211.878519 22.712816 
L 212.823967 22.480694 
L 215.752665 21.94771 
L 216.834826 22.0484 
L 217.198213 23.269947 
L 217.624591 22.284482 
L 218.924851 21.722258 
L 219.63285 22.60294 
L 220.033209 21.561779 
L 220.831483 22.065717 
L 222.348248 22.362215 
L 225.89876 23.545091 
L 227.106418 22.897317 
L 227.514612 23.428169 
L 228.972963 24.588068 
L 230.825215 25.30905 
L 231.19351 24.319479 
L 231.559173 24.904471 
L 233.097899 25.831217 
L 234.095011 25.998829 
L 235.615369 26.806468 
L 239.015325 27.819899 
L 239.379247 29.056375 
L 240.278398 28.631076 
L 242.238076 29.299456 
L 243.168474 29.073697 
L 243.577933 30.668671 
L 243.997823 29.992339 
L 245.180607 30.125128 
L 246.782027 30.944655 
L 248.23451 31.330509 
L 249.055572 31.493208 
L 249.782845 31.874484 
L 250.159682 31.3314 
L 251.456897 32.278275 
L 252.787263 32.597934 
L 254.757395 32.134707 
L 255.998502 32.742323 
L 257.538553 32.653032 
L 257.917529 33.317276 
L 258.319879 32.767839 
L 258.742335 31.950458 
L 259.130029 33.18947 
L 260.38796 33.311909 
L 267.281599 33.878884 
L 268.605569 33.526199 
L 270.456789 33.937483 
L 270.96918 33.699919 
L 271.377843 34.785105 
L 271.751425 33.998727 
L 274.142416 34.445806 
L 275.927414 33.765606 
L 278.652296 33.329811 
L 279.494357 33.546892 
L 280.73244 33.518888 
L 281.982871 33.665847 
L 282.358697 34.630392 
L 282.765042 33.97246 
L 284.761967 33.734781 
L 290.182261 33.219404 
L 291.887936 33.680239 
L 292.864752 33.374649 
L 294.066237 32.917255 
L 295.399623 33.080034 
L 296.364508 32.820305 
L 297.456111 33.820011 
L 297.838762 32.064513 
L 298.197894 33.530556 
L 301.22532 32.6034 
L 302.364223 33.82551 
L 303.556609 32.683536 
L 304.371802 33.25782 
L 304.729608 31.721252 
L 305.091018 33.214533 
L 316.493434 33.019707 
L 316.881 33.826588 
L 317.645949 33.320818 
L 318.082275 33.569047 
L 318.487159 32.692588 
L 320.182435 32.702278 
L 320.551817 33.921928 
L 321.314315 33.037816 
L 322.924259 32.785307 
L 323.750287 33.212072 
L 324.164984 32.668809 
L 324.586683 33.227154 
L 328.415287 33.41102 
L 329.625754 32.947677 
L 330.33811 32.18094 
L 330.694769 33.581509 
L 331.053203 32.990182 
L 332.919206 32.756064 
L 334.981758 33.2697 
L 338.025866 32.612851 
L 340.33274 32.85132 
L 343.390433 32.469602 
L 344.110417 33.491321 
L 344.512469 32.934323 
L 344.916332 32.355486 
L 345.29411 33.59735 
L 345.6662 32.779649 
L 347.592408 32.085859 
L 347.597773 17.854506 
L 347.597511 50.406812 
L 348.382066 32.858461 
L 349.359934 33.099893 
L 349.735108 32.465749 
L 350.179164 32.834487 
L 352.123829 34.209406 
L 352.544803 33.027911 
L 353.015493 33.746984 
L 356.695992 36.962714 
L 358.595812 39.70784 
L 366.439876 57.789382 
L 368.354999 63.562753 
L 375.601258 82.64033 
L 376.029454 82.824693 
L 378.242664 88.82432 
L 387.803014 106.286769 
L 388.247849 106.414317 
L 390.295589 109.24804 
L 394.082899 113.459011 
L 394.458874 112.57732 
L 395.234756 113.225751 
L 396.467365 114.882848 
L 404.172422 117.544383 
L 405.403037 117.532508 
L 405.831245 117.827798 
L 406.332021 116.818784 
L 406.805419 117.656257 
L 407.285769 117.207775 
L 408.709289 118.132377 
L 411.087503 117.751456 
L 411.432937 118.63252 
L 411.813366 117.503235 
L 419.997987 116.710294 
L 422.712892 115.825105 
L 423.105046 116.626501 
L 423.556261 116.174007 
L 425.217671 115.153513 
L 426.444103 115.550467 
L 432.497984 113.556447 
L 432.85446 114.041905 
L 433.224465 113.462877 
L 435.370524 112.693419 
L 436.658002 113.969055 
L 437.896003 112.79245 
L 439.125342 112.821414 
L 448.809075 111.941633 
L 449.212177 112.467347 
L 449.611256 111.750602 
L 450.88874 111.396818 
L 452.320493 112.212436 
L 452.705466 111.016677 
L 453.077951 111.26482 
L 454.206138 112.185377 
L 463.020419 111.173355 
L 463.844792 112.233026 
L 464.257225 111.957177 
L 519.298138 112.470612 
L 519.660365 111.272364 
L 520.026237 112.284615 
L 522.393922 112.928049 
L 522.78326 111.734918 
L 523.613966 112.066487 
L 523.946414 112.74252 
L 524.275276 111.910932 
L 526.595314 112.168754 
L 527.00702 112.658156 
L 527.425509 112.111762 
L 529.505063 111.864401 
L 529.870245 113.293092 
L 530.237434 112.118559 
L 533.015055 112.141755 
L 535.211975 112.255697 
L 536.815929 111.886661 
L 537.821946 112.685304 
L 537.821946 112.685304 
" clip-path="url(#p02f50a869a)" style="fill: none; stroke: #377eb8; stroke-width: 2; stroke-linecap: square"/>
   </g>
   <g id="line2d_29">
    <path d="M 62.260866 191.363181 
L 62.917918 190.982398 
L 62.394774 193.432019 
L 63.182448 191.754329 
L 63.456295 190.594242 
L 63.971408 191.350495 
L 66.082559 191.210172 
L 66.913714 191.653795 
L 68.046266 191.756279 
L 69.434698 190.203159 
L 70.267843 192.112626 
L 70.576061 191.002752 
L 70.869742 191.694019 
L 71.451628 190.899562 
L 71.768334 190.648691 
L 73.165111 192.211886 
L 74.017114 190.792085 
L 74.301388 191.222546 
L 79.032027 191.645546 
L 79.349119 190.597117 
L 79.981618 191.033561 
L 82.837117 191.140573 
L 84.239744 192.000525 
L 85.677924 191.373295 
L 89.366651 191.602123 
L 90.181807 191.2036 
L 90.56952 191.891185 
L 90.85711 190.441528 
L 91.130863 190.866526 
L 93.006661 192.05114 
L 93.339563 191.624847 
L 93.688555 190.753867 
L 94.023223 191.246859 
L 94.352681 191.969232 
L 94.675717 191.683252 
L 95.450979 190.927917 
L 95.759829 192.025928 
L 96.416665 191.823273 
L 96.70391 190.652373 
L 97.24938 192.19833 
L 97.47416 192.879481 
L 97.688225 191.417121 
L 97.922776 190.58783 
L 98.151365 192.051412 
L 98.621218 191.060241 
L 98.916055 191.905442 
L 99.597578 191.13891 
L 100.742881 191.341053 
L 101.060832 190.507404 
L 101.354699 191.184425 
L 102.03287 191.980334 
L 102.354105 191.360896 
L 103.535565 191.072845 
L 103.869079 192.116062 
L 104.123509 190.394648 
L 104.616524 191.78128 
L 104.869686 190.529721 
L 105.466154 191.150501 
L 109.175471 191.112076 
L 109.460302 192.125269 
L 109.744023 190.832844 
L 110.38217 191.766241 
L 110.686759 192.248405 
L 110.974941 191.774094 
L 111.351095 191.028746 
L 111.698233 191.2223 
L 112.045689 192.09409 
L 112.367388 191.550728 
L 113.335359 190.880398 
L 114.55737 191.834556 
L 115.147762 190.344042 
L 115.422984 191.663135 
L 115.690916 192.35502 
L 115.934543 190.731281 
L 116.160961 191.541451 
L 117.703511 190.585251 
L 118.334758 191.696291 
L 118.675371 191.096356 
L 122.21252 192.051958 
L 123.51433 190.828184 
L 123.79377 192.047525 
L 124.345661 191.134104 
L 124.699263 190.785591 
L 125.040404 191.223695 
L 126.372922 192.255952 
L 132.141973 191.156875 
L 134.87951 191.493954 
L 135.267286 190.664525 
L 135.581235 191.798218 
L 148.766729 190.8865 
L 149.665998 192.278766 
L 149.945098 191.447317 
L 152.645626 191.503561 
L 153.030072 191.948989 
L 153.385529 190.970434 
L 157.344124 190.870413 
L 157.36838 189.861797 
L 157.37318 230.944634 
L 157.373278 124.848289 
L 158.224684 191.10433 
L 158.377065 191.429098 
L 158.690107 190.316947 
L 158.860152 190.372344 
L 159.029008 188.885301 
L 159.231621 190.6836 
L 159.807432 189.691836 
L 159.997343 190.356109 
L 160.171294 188.420586 
L 160.394641 189.216496 
L 161.928065 186.915205 
L 162.228513 187.136751 
L 162.510006 186.205506 
L 164.826857 185.182681 
L 168.760563 182.232088 
L 169.531826 182.66937 
L 170.550616 180.815031 
L 170.967035 181.143025 
L 171.759435 180.78831 
L 173.291456 179.802204 
L 174.299807 179.007979 
L 174.639902 179.782481 
L 175.402782 179.16341 
L 184.790293 175.400715 
L 187.10204 175.303227 
L 192.5675 173.686471 
L 192.959169 174.611195 
L 193.384468 174.10893 
L 195.352086 174.24959 
L 195.728026 174.694225 
L 196.101052 174.051629 
L 199.533505 174.008649 
L 199.898982 174.63373 
L 200.26152 174.142834 
L 208.246741 174.613475 
L 214.126563 175.06681 
L 214.468826 173.98791 
L 214.806768 174.557806 
L 216.491105 175.574672 
L 216.834826 174.230481 
L 217.624591 175.096097 
L 218.924851 175.132416 
L 220.033209 174.260427 
L 222.932235 174.92829 
L 224.638642 175.394142 
L 226.697688 175.108392 
L 227.950565 175.081973 
L 231.559173 175.601964 
L 231.898263 174.626625 
L 232.233765 174.993629 
L 233.551321 175.528588 
L 254.090469 175.293247 
L 254.426032 176.517491 
L 254.757395 175.403793 
L 255.998502 175.385553 
L 256.337077 176.358335 
L 257.156532 175.702142 
L 257.538553 176.164808 
L 257.917529 175.719057 
L 259.130029 174.936619 
L 259.515055 175.559791 
L 263.137947 175.887024 
L 263.478372 174.91016 
L 264.21629 175.184409 
L 265.464134 175.737038 
L 266.84059 175.678169 
L 275.491623 175.665571 
L 275.927414 175.120927 
L 276.338146 175.499182 
L 279.93476 175.652365 
L 280.353809 174.701903 
L 280.73244 175.822981 
L 281.596343 175.926074 
L 281.982871 176.344418 
L 282.765042 175.037949 
L 283.145615 176.46212 
L 283.507888 175.496699 
L 286.147738 174.793655 
L 287.349688 175.681688 
L 287.770437 175.22501 
L 288.115509 176.203608 
L 291.443789 174.951512 
L 292.864752 175.642983 
L 293.645595 175.134453 
L 294.952677 176.071713 
L 296.364508 175.444088 
L 296.74562 176.254041 
L 297.094026 174.917738 
L 297.456111 175.630077 
L 301.97094 175.24037 
L 302.766003 175.993348 
L 303.976494 174.715477 
L 304.371802 175.747735 
L 305.091018 174.97549 
L 316.881 175.770679 
L 317.276365 174.675414 
L 317.645949 175.244254 
L 318.867836 175.487217 
L 320.923511 176.107999 
L 322.924259 174.674589 
L 324.164984 175.626003 
L 325.526262 175.20842 
L 326.942317 175.940497 
L 327.268005 174.640493 
L 328.04069 175.317295 
L 328.415287 175.920716 
L 329.173949 175.320845 
L 331.053203 175.78116 
L 332.476714 175.555023 
L 341.397122 175.660464 
L 341.742472 174.756711 
L 342.479892 175.242798 
L 347.592408 176.069923 
L 347.59744 161.847804 
L 347.597511 191.038872 
L 348.382066 175.589369 
L 348.693222 174.939407 
L 349.003805 175.749576 
L 359.051437 180.450668 
L 359.387257 179.370456 
L 359.717792 180.456717 
L 367.662917 182.444622 
L 368.011308 181.584303 
L 368.354999 182.808574 
L 369.97162 182.309569 
L 370.333395 181.992993 
L 370.69422 182.858419 
L 393.240295 184.171107 
L 394.082899 184.480925 
L 394.83026 184.687938 
L 396.467365 183.350071 
L 397.772589 183.952771 
L 399.632258 184.347998 
L 401.048896 184.27345 
L 403.334727 184.010889 
L 404.589332 183.197195 
L 405.831245 184.023579 
L 406.332021 183.462002 
L 406.805419 184.124124 
L 410.73769 183.747139 
L 411.087503 184.653892 
L 411.432937 183.376281 
L 411.813366 183.956256 
L 413.998565 183.598843 
L 422.023958 184.46594 
L 422.379471 182.587055 
L 423.105046 183.66418 
L 424.794011 183.922326 
L 425.618215 182.848988 
L 426.444103 183.571052 
L 426.885514 182.994496 
L 427.319314 183.70763 
L 431.331246 183.271741 
L 434.093251 183.769892 
L 434.529434 182.956593 
L 434.939608 183.475017 
L 437.896003 183.218969 
L 439.125342 183.273199 
L 440.640511 183.419404 
L 441.559561 183.879891 
L 441.926272 184.269875 
L 443.120373 183.190263 
L 445.24266 183.434645 
L 445.651849 182.454461 
L 446.022858 182.982923 
L 447.876644 183.56008 
L 448.31058 183.162447 
L 448.809075 183.797841 
L 450.88874 183.461206 
L 454.206138 182.778556 
L 455.555884 183.472891 
L 459.407849 183.716287 
L 460.356414 183.245289 
L 461.698327 183.795582 
L 463.844792 182.861752 
L 465.188671 183.496251 
L 468.075019 183.488887 
L 478.091755 183.480078 
L 479.282548 183.893167 
L 480.418433 182.961415 
L 481.963788 183.506648 
L 488.256505 183.554996 
L 490.549451 182.895831 
L 492.156852 183.121361 
L 492.956369 183.175282 
L 494.466688 183.879712 
L 495.69125 183.760704 
L 497.423808 182.840569 
L 498.537142 184.089989 
L 499.818259 183.116355 
L 503.759004 183.413626 
L 504.156268 182.418681 
L 504.520488 183.779416 
L 508.954175 183.396738 
L 510.122317 184.104073 
L 510.972813 183.051232 
L 512.499951 184.416896 
L 513.65859 182.866315 
L 514.00244 183.105138 
L 517.252066 183.266379 
L 519.298138 183.342569 
L 519.660365 182.739009 
L 520.026237 183.973021 
L 522.393922 183.411698 
L 523.166431 183.715933 
L 523.946414 182.415364 
L 524.275276 183.316026 
L 525.465291 184.15952 
L 526.22241 182.807244 
L 526.595314 183.353143 
L 527.849784 183.034661 
L 529.095529 183.839414 
L 532.013097 183.624821 
L 535.704425 183.56934 
L 536.815929 182.807919 
L 537.821946 183.438773 
L 537.821946 183.438773 
" clip-path="url(#p02f50a869a)" style="fill: none; stroke: #4daf4a; stroke-width: 2; stroke-linecap: square"/>
   </g>
   <g id="patch_3">
    <path d="M 38.482813 241.599141 
L 38.482813 7.2 
" style="fill: none; stroke: #7f7f7f; stroke-width: 1.8; stroke-linejoin: miter; stroke-linecap: square"/>
   </g>
   <g id="patch_4">
    <path d="M 38.482813 241.599141 
L 561.6 241.599141 
" style="fill: none; stroke: #7f7f7f; stroke-width: 1.8; stroke-linejoin: miter; stroke-linecap: square"/>
   </g>
   <g id="legend_1">
    <g id="line2d_30">
     <path d="M 483.814062 20.298438 
L 493.814062 20.298438 
L 503.814062 20.298438 
" style="fill: none; stroke: #e41a1c; stroke-width: 2; stroke-linecap: square"/>
    </g>
    <g id="text_15">
     <!-- setpoint -->
     <g style="fill: #7f7f7f" transform="translate(511.814062 23.798438) scale(0.1 -0.1)">
      <defs>
       <path id="DejaVuSans-53" d="M 1159 525 
L 1159 -1331 
L 581 -1331 
L 581 3500 
L 1159 3500 
L 1159 2969 
Q 1341 3281 1617 3432 
Q 1894 3584 2278 3584 
Q 2916 3584 3314 3078 
Q 3713 2572 3713 1747 
Q 3713 922 3314 415 
Q 2916 -91 2278 -91 
Q 1894 -91 1617 61 
Q 1341 213 1159 525 
z
M 3116 1747 
Q 3116 2381 2855 2742 
Q 2594 3103 2138 3103 
Q 1681 3103 1420 2742 
Q 1159 2381 1159 1747 
Q 1159 1113 1420 752 
Q 1681 391 2138 391 
Q 2594 391 2855 752 
Q 3116 1113 3116 1747 
z
" transform="scale(0.015625)"/>
       <path id="DejaVuSans-52" d="M 1959 3097 
Q 1497 3097 1228 2736 
Q 959 2375 959 1747 
Q 959 1119 1226 758 
Q 1494 397 1959 397 
Q 2419 397 2687 759 
Q 2956 1122 2956 1747 
Q 2956 2369 2687 2733 
Q 2419 3097 1959 3097 
z
M 1959 3584 
Q 2709 3584 3137 3096 
Q 3566 2609 3566 1747 
Q 3566 888 3137 398 
Q 2709 -91 1959 -91 
Q 1206 -91 779 398 
Q 353 888 353 1747 
Q 353 2609 779 3096 
Q 1206 3584 1959 3584 
z
" transform="scale(0.015625)"/>
       <path id="DejaVuSans-51" d="M 3513 2113 
L 3513 0 
L 2938 0 
L 2938 2094 
Q 2938 2591 2744 2837 
Q 2550 3084 2163 3084 
Q 1697 3084 1428 2787 
Q 1159 2491 1159 1978 
L 1159 0 
L 581 0 
L 581 3500 
L 1159 3500 
L 1159 2956 
Q 1366 3272 1645 3428 
Q 1925 3584 2291 3584 
Q 2894 3584 3203 3211 
Q 3513 2838 3513 2113 
z
" transform="scale(0.015625)"/>
      </defs>
      <use xlink:href="#DejaVuSans-56"/>
      <use xlink:href="#DejaVuSans-48" transform="translate(52.09375 0)"/>
      <use xlink:href="#DejaVuSans-57" transform="translate(113.625 0)"/>
      <use xlink:href="#DejaVuSans-53" transform="translate(152.828125 0)"/>
      <use xlink:href="#DejaVuSans-52" transform="translate(216.3125 0)"/>
      <use xlink:href="#DejaVuSans-4c" transform="translate(277.5 0)"/>
      <use xlink:href="#DejaVuSans-51" transform="translate(305.28125 0)"/>
      <use xlink:href="#DejaVuSans-57" transform="translate(368.65625 0)"/>
     </g>
    </g>
    <g id="line2d_31">
     <path d="M 483.814062 35.299219 
L 493.814062 35.299219 
L 503.814062 35.299219 
" style="fill: none; stroke: #377eb8; stroke-width: 2; stroke-linecap: square"/>
    </g>
    <g id="text_16">
     <!-- plant 1 -->
     <g style="fill: #7f7f7f" transform="translate(511.814062 38.799219) scale(0.1 -0.1)">
      <defs>
       <path id="DejaVuSans-4f" d="M 603 4863 
L 1178 4863 
L 1178 0 
L 603 0 
L 603 4863 
z
" transform="scale(0.015625)"/>
       <path id="DejaVuSans-44" d="M 2194 1759 
Q 1497 1759 1228 1600 
Q 959 1441 959 1056 
Q 959 750 1161 570 
Q 1363 391 1709 391 
Q 2188 391 2477 730 
Q 2766 1069 2766 1631 
L 2766 1759 
L 2194 1759 
z
M 3341 1997 
L 3341 0 
L 2766 0 
L 2766 531 
Q 2569 213 2275 61 
Q 1981 -91 1556 -91 
Q 1019 -91 701 211 
Q 384 513 384 1019 
Q 384 1609 779 1909 
Q 1175 2209 1959 2209 
L 2766 2209 
L 2766 2266 
Q 2766 2663 2505 2880 
Q 2244 3097 1772 3097 
Q 1472 3097 1187 3025 
Q 903 2953 641 2809 
L 641 3341 
Q 956 3463 1253 3523 
Q 1550 3584 1831 3584 
Q 2591 3584 2966 3190 
Q 3341 2797 3341 1997 
z
" transform="scale(0.015625)"/>
      </defs>
      <use xlink:href="#DejaVuSans-53"/>
      <use xlink:href="#DejaVuSans-4f" transform="translate(63.484375 0)"/>
      <use xlink:href="#DejaVuSans-44" transform="translate(91.265625 0)"/>
      <use xlink:href="#DejaVuSans-51" transform="translate(152.546875 0)"/>
      <use xlink:href="#DejaVuSans-57" transform="translate(215.921875 0)"/>
      <use xlink:href="#DejaVuSans-3" transform="translate(255.125 0)"/>
      <use xlink:href="#DejaVuSans-14" transform="translate(286.90625 0)"/>
     </g>
    </g>
    <g id="line2d_32">
     <path d="M 483.814062 50.3 
L 493.814062 50.3 
L 503.814062 50.3 
" style="fill: none; stroke: #4daf4a; stroke-width: 2; stroke-linecap: square"/>
    </g>
    <g id="text_17">
     <!-- plant 2 -->
     <g style="fill: #7f7f7f" transform="translate(511.814062 53.8) scale(0.1 -0.1)">
      <use xlink:href="#DejaVuSans-53"/>
      <use xlink:href="#DejaVuSans-4f" transform="translate(63.484375 0)"/>
      <use xlink:href="#DejaVuSans-44" transform="translate(91.265625 0)"/>
      <use xlink:href="#DejaVuSans-51" transform="translate(152.546875 0)"/>
      <use xlink:href="#DejaVuSans-57" transform="translate(215.921875 0)"/>
      <use xlink:href="#DejaVuSans-3" transform="translate(255.125 0)"/>
      <use xlink:href="#DejaVuSans-15" transform="translate(286.90625 0)"/>
     </g>
    </g>
   </g>
  </g>
 </g>
 <defs>
  <clipPath id="p02f50a869a">
   <rect x="38.482813" y="7.2" width="523.117187" height="234.399141"/>
  </clipPath>
 </defs>
</svg>
