<?xml version="1.0" encoding="utf-8" standalone="no"?>
<!DOCTYPE svg PUBLIC "-//W3C//DTD SVG 1.1//EN"
  "http://www.w3.org/Graphics/SVG/1.1/DTD/svg11.dtd">
<svg xmlns:xlink="http://www.w3.org/1999/xlink" width="568.8pt" height="424.8pt" viewBox="0 0 568.8 424.8" xmlns="http://www.w3.org/2000/svg" version="1.1">
 <metadata>
  <rdf:RDF xmlns:dc="http://purl.org/dc/elements/1.1/" xmlns:cc="http://creativecommons.org/ns#" xmlns:rdf="http://www.w3.org/1999/02/22-rdf-syntax-ns#">
   <cc:Work>
    <dc:type rdf:resource="http://purl.org/dc/dcmitype/StillImage"/>
    <dc:date>2026-05-22T14:39:30.995942</dc:date>
    <dc:format>image/svg+xml</dc:format>
    <dc:creator>
     <cc:Agent>
      <dc:title>Matplotlib v3.10.9, https://matplotlib.org/</dc:title>
     </cc:Agent>
    </dc:creator>
   </cc:Work>
  </rdf:RDF>
 </metadata>
 <defs>
  <style type="text/css">*{stroke-linejoin: round; stroke-linecap: butt}</style>
 </defs>
 <g id="figure_1">
  <g id="patch_1">
   <path d="M 0 424.8 
L 568.8 424.8 
L 568.8 0 
L 0 0 
L 0 424.8 
z
" style="fill: none"/>
  </g>
  <g id="axes_1">
   <g id="patch_2">
    <path d="M 44.749063 190.557969 
L 561.6 190.557969 
L 561.6 22.318125 
L 44.749063 22.318125 
L 44.749063 190.557969 
z
" style="fill: none"/>
   </g>
   <g id="matplotlib.axis_1">
    <g id="xtick_1">
     <g id="line2d_1">
      <defs>
       <path id="me6841f04db" d="M 0 0 
L 0 3.5 
" style="stroke: #7f7f7f; stroke-width: 1.8"/>
      </defs>
      <g>
       <use xlink:href="#me6841f04db" x="68.242287" y="190.557969" style="fill: #7f7f7f; stroke: #7f7f7f; stroke-width: 1.8"/>
      </g>
     </g>
     <g id="text_1">
      <!-- 0.0 -->
      <g style="fill: #7f7f7f" transform="translate(60.290724 205.156406) scale(0.1 -0.1)">
       <defs>
        <path id="DejaVuSans-30" d="M 2034 4250 
Q 1547 4250 1301 3770 
Q 1056 3291 1056 2328 
Q 1056 1369 1301 889 
Q 1547 409 2034 409 
Q 2525 409 2770 889 
Q 3016 1369 3016 2328 
Q 3016 3291 2770 3770 
Q 2525 4250 2034 4250 
z
M 2034 4750 
Q 2819 4750 3233 4129 
Q 3647 3509 3647 2328 
Q 3647 1150 3233 529 
Q 2819 -91 2034 -91 
Q 1250 -91 836 529 
Q 422 1150 422 2328 
Q 422 3509 836 4129 
Q 1250 4750 2034 4750 
z
" transform="scale(0.015625)"/>
        <path id="DejaVuSans-2e" d="M 684 794 
L 1344 794 
L 1344 0 
L 684 0 
L 684 794 
z
" transform="scale(0.015625)"/>
       </defs>
       <use xlink:href="#DejaVuSans-30"/>
       <use xlink:href="#DejaVuSans-2e" transform="translate(63.623047 0)"/>
       <use xlink:href="#DejaVuSans-30" transform="translate(95.410156 0)"/>
      </g>
     </g>
    </g>
    <g id="xtick_2">
     <g id="line2d_2">
      <g>
       <use xlink:href="#me6841f04db" x="126.975348" y="190.557969" style="fill: #7f7f7f; stroke: #7f7f7f; stroke-width: 1.8"/>
      </g>
     </g>
     <g id="text_2">
      <!-- 2.5 -->
      <g style="fill: #7f7f7f" transform="translate(119.023786 205.156406) scale(0.1 -0.1)">
       <defs>
        <path id="DejaVuSans-32" d="M 1228 531 
L 3431 531 
L 3431 0 
L 469 0 
L 469 531 
Q 828 903 1448 1529 
Q 2069 2156 2228 2338 
Q 2531 2678 2651 2914 
Q 2772 3150 2772 3378 
Q 2772 3750 2511 3984 
Q 2250 4219 1831 4219 
Q 1534 4219 1204 4116 
Q 875 4013 500 3803 
L 500 4441 
Q 881 4594 1212 4672 
Q 1544 4750 1819 4750 
Q 2544 4750 2975 4387 
Q 3406 4025 3406 3419 
Q 3406 3131 3298 2873 
Q 3191 2616 2906 2266 
Q 2828 2175 2409 1742 
Q 1991 1309 1228 531 
z
" transform="scale(0.015625)"/>
        <path id="DejaVuSans-35" d="M 691 4666 
L 3169 4666 
L 3169 4134 
L 1269 4134 
L 1269 2991 
Q 1406 3038 1543 3061 
Q 1681 3084 1819 3084 
Q 2600 3084 3056 2656 
Q 3513 2228 3513 1497 
Q 3513 744 3044 326 
Q 2575 -91 1722 -91 
Q 1428 -91 1123 -41 
Q 819 9 494 109 
L 494 744 
Q 775 591 1075 516 
Q 1375 441 1709 441 
Q 2250 441 2565 725 
Q 2881 1009 2881 1497 
Q 2881 1984 2565 2268 
Q 2250 2553 1709 2553 
Q 1456 2553 1204 2497 
Q 953 2441 691 2322 
L 691 4666 
z
" transform="scale(0.015625)"/>
       </defs>
       <use xlink:href="#DejaVuSans-32"/>
       <use xlink:href="#DejaVuSans-2e" transform="translate(63.623047 0)"/>
       <use xlink:href="#DejaVuSans-35" transform="translate(95.410156 0)"/>
      </g>
     </g>
    </g>
    <g id="xtick_3">
     <g id="line2d_3">
      <g>
       <use xlink:href="#me6841f04db" x="185.708409" y="190.557969" style="fill: #7f7f7f; stroke: #7f7f7f; stroke-width: 1.8"/>
      </g>
     </g>
     <g id="text_3">
      <!-- 5.0 -->
      <g style="fill: #7f7f7f" transform="translate(177.756847 205.156406) scale(0.1 -0.1)">
       <use xlink:href="#DejaVuSans-35"/>
       <use xlink:href="#DejaVuSans-2e" transform="translate(63.623047 0)"/>
       <use xlink:href="#DejaVuSans-30" transform="translate(95.410156 0)"/>
      </g>
     </g>
    </g>
    <g id="xtick_4">
     <g id="line2d_4">
      <g>
       <use xlink:href="#me6841f04db" x="244.44147" y="190.557969" style="fill: #7f7f7f; stroke: #7f7f7f; stroke-width: 1.8"/>
      </g>
     </g>
     <g id="text_4">
      <!-- 7.5 -->
      <g style="fill: #7f7f7f" transform="translate(236.489908 205.156406) scale(0.1 -0.1)">
       <defs>
        <path id="DejaVuSans-37" d="M 525 4666 
L 3525 4666 
L 3525 4397 
L 1831 0 
L 1172 0 
L 2766 4134 
L 525 4134 
L 525 4666 
z
" transform="scale(0.015625)"/>
       </defs>
       <use xlink:href="#DejaVuSans-37"/>
       <use xlink:href="#DejaVuSans-2e" transform="translate(63.623047 0)"/>
       <use xlink:href="#DejaVuSans-35" transform="translate(95.410156 0)"/>
      </g>
     </g>
    </g>
    <g id="xtick_5">
     <g id="line2d_5">
      <g>
       <use xlink:href="#me6841f04db" x="303.174531" y="190.557969" style="fill: #7f7f7f; stroke: #7f7f7f; stroke-width: 1.8"/>
      </g>
     </g>
     <g id="text_5">
      <!-- 10.0 -->
      <g style="fill: #7f7f7f" transform="translate(292.041719 205.156406) scale(0.1 -0.1)">
       <defs>
        <path id="DejaVuSans-31" d="M 794 531 
L 1825 531 
L 1825 4091 
L 703 3866 
L 703 4441 
L 1819 4666 
L 2450 4666 
L 2450 531 
L 3481 531 
L 3481 0 
L 794 0 
L 794 531 
z
" transform="scale(0.015625)"/>
       </defs>
       <use xlink:href="#DejaVuSans-31"/>
       <use xlink:href="#DejaVuSans-30" transform="translate(63.623047 0)"/>
       <use xlink:href="#DejaVuSans-2e" transform="translate(127.246094 0)"/>
       <use xlink:href="#DejaVuSans-30" transform="translate(159.033203 0)"/>
      </g>
     </g>
    </g>
    <g id="xtick_6">
     <g id="line2d_6">
      <g>
       <use xlink:href="#me6841f04db" x="361.907592" y="190.557969" style="fill: #7f7f7f; stroke: #7f7f7f; stroke-width: 1.8"/>
      </g>
     </g>
     <g id="text_6">
      <!-- 12.5 -->
      <g style="fill: #7f7f7f" transform="translate(350.77478 205.156406) scale(0.1 -0.1)">
       <use xlink:href="#DejaVuSans-31"/>
       <use xlink:href="#DejaVuSans-32" transform="translate(63.623047 0)"/>
       <use xlink:href="#DejaVuSans-2e" transform="translate(127.246094 0)"/>
       <use xlink:href="#DejaVuSans-35" transform="translate(159.033203 0)"/>
      </g>
     </g>
    </g>
    <g id="xtick_7">
     <g id="line2d_7">
      <g>
       <use xlink:href="#me6841f04db" x="420.640653" y="190.557969" style="fill: #7f7f7f; stroke: #7f7f7f; stroke-width: 1.8"/>
      </g>
     </g>
     <g id="text_7">
      <!-- 15.0 -->
      <g style="fill: #7f7f7f" transform="translate(409.507841 205.156406) scale(0.1 -0.1)">
       <use xlink:href="#DejaVuSans-31"/>
       <use xlink:href="#DejaVuSans-35" transform="translate(63.623047 0)"/>
       <use xlink:href="#DejaVuSans-2e" transform="translate(127.246094 0)"/>
       <use xlink:href="#DejaVuSans-30" transform="translate(159.033203 0)"/>
      </g>
     </g>
    </g>
    <g id="xtick_8">
     <g id="line2d_8">
      <g>
       <use xlink:href="#me6841f04db" x="479.373714" y="190.557969" style="fill: #7f7f7f; stroke: #7f7f7f; stroke-width: 1.8"/>
      </g>
     </g>
     <g id="text_8">
      <!-- 17.5 -->
      <g style="fill: #7f7f7f" transform="translate(468.240902 205.156406) scale(0.1 -0.1)">
       <use xlink:href="#DejaVuSans-31"/>
       <use xlink:href="#DejaVuSans-37" transform="translate(63.623047 0)"/>
       <use xlink:href="#DejaVuSans-2e" transform="translate(127.246094 0)"/>
       <use xlink:href="#DejaVuSans-35" transform="translate(159.033203 0)"/>
      </g>
     </g>
    </g>
    <g id="xtick_9">
     <g id="line2d_9">
      <g>
       <use xlink:href="#me6841f04db" x="538.106776" y="190.557969" style="fill: #7f7f7f; stroke: #7f7f7f; stroke-width: 1.8"/>
      </g>
     </g>
     <g id="text_9">
      <!-- 20.0 -->
      <g style="fill: #7f7f7f" transform="translate(526.973963 205.156406) scale(0.1 -0.1)">
       <use xlink:href="#DejaVuSans-32"/>
       <use xlink:href="#DejaVuSans-30" transform="translate(63.623047 0)"/>
       <use xlink:href="#DejaVuSans-2e" transform="translate(127.246094 0)"/>
       <use xlink:href="#DejaVuSans-30" transform="translate(159.033203 0)"/>
      </g>
     </g>
    </g>
   </g>
   <g id="matplotlib.axis_2">
    <g id="ytick_1">
     <g id="line2d_10">
      <defs>
       <path id="m3e5bf22a2c" d="M 0 0 
L -3.5 0 
" style="stroke: #7f7f7f; stroke-width: 1.8"/>
      </defs>
      <g>
       <use xlink:href="#m3e5bf22a2c" x="44.749063" y="182.910703" style="fill: #7f7f7f; stroke: #7f7f7f; stroke-width: 1.8"/>
      </g>
     </g>
     <g id="text_10">
      <!-- 0.0 -->
      <g style="fill: #7f7f7f" transform="translate(21.845938 186.709922) scale(0.1 -0.1)">
       <use xlink:href="#DejaVuSans-30"/>
       <use xlink:href="#DejaVuSans-2e" transform="translate(63.623047 0)"/>
       <use xlink:href="#DejaVuSans-30" transform="translate(95.410156 0)"/>
      </g>
     </g>
    </g>
    <g id="ytick_2">
     <g id="line2d_11">
      <g>
       <use xlink:href="#m3e5bf22a2c" x="44.749063" y="147.725787" style="fill: #7f7f7f; stroke: #7f7f7f; stroke-width: 1.8"/>
      </g>
     </g>
     <g id="text_11">
      <!-- 0.1 -->
      <g style="fill: #7f7f7f" transform="translate(21.845938 151.525006) scale(0.1 -0.1)">
       <use xlink:href="#DejaVuSans-30"/>
       <use xlink:href="#DejaVuSans-2e" transform="translate(63.623047 0)"/>
       <use xlink:href="#DejaVuSans-31" transform="translate(95.410156 0)"/>
      </g>
     </g>
    </g>
    <g id="ytick_3">
     <g id="line2d_12">
      <g>
       <use xlink:href="#m3e5bf22a2c" x="44.749063" y="112.540872" style="fill: #7f7f7f; stroke: #7f7f7f; stroke-width: 1.8"/>
      </g>
     </g>
     <g id="text_12">
      <!-- 0.2 -->
      <g style="fill: #7f7f7f" transform="translate(21.845938 116.34009) scale(0.1 -0.1)">
       <use xlink:href="#DejaVuSans-30"/>
       <use xlink:href="#DejaVuSans-2e" transform="translate(63.623047 0)"/>
       <use xlink:href="#DejaVuSans-32" transform="translate(95.410156 0)"/>
      </g>
     </g>
    </g>
    <g id="ytick_4">
     <g id="line2d_13">
      <g>
       <use xlink:href="#m3e5bf22a2c" x="44.749063" y="77.355956" style="fill: #7f7f7f; stroke: #7f7f7f; stroke-width: 1.8"/>
      </g>
     </g>
     <g id="text_13">
      <!-- 0.3 -->
      <g style="fill: #7f7f7f" transform="translate(21.845938 81.155175) scale(0.1 -0.1)">
       <defs>
        <path id="DejaVuSans-33" d="M 2597 2516 
Q 3050 2419 3304 2112 
Q 3559 1806 3559 1356 
Q 3559 666 3084 287 
Q 2609 -91 1734 -91 
Q 1441 -91 1130 -33 
Q 819 25 488 141 
L 488 750 
Q 750 597 1062 519 
Q 1375 441 1716 441 
Q 2309 441 2620 675 
Q 2931 909 2931 1356 
Q 2931 1769 2642 2001 
Q 2353 2234 1838 2234 
L 1294 2234 
L 1294 2753 
L 1863 2753 
Q 2328 2753 2575 2939 
Q 2822 3125 2822 3475 
Q 2822 3834 2567 4026 
Q 2313 4219 1838 4219 
Q 1578 4219 1281 4162 
Q 984 4106 628 3988 
L 628 4550 
Q 988 4650 1302 4700 
Q 1616 4750 1894 4750 
Q 2613 4750 3031 4423 
Q 3450 4097 3450 3541 
Q 3450 3153 3228 2886 
Q 3006 2619 2597 2516 
z
" transform="scale(0.015625)"/>
       </defs>
       <use xlink:href="#DejaVuSans-30"/>
       <use xlink:href="#DejaVuSans-2e" transform="translate(63.623047 0)"/>
       <use xlink:href="#DejaVuSans-33" transform="translate(95.410156 0)"/>
      </g>
     </g>
    </g>
    <g id="ytick_5">
     <g id="line2d_14">
      <g>
       <use xlink:href="#m3e5bf22a2c" x="44.749063" y="42.17104" style="fill: #7f7f7f; stroke: #7f7f7f; stroke-width: 1.8"/>
      </g>
     </g>
     <g id="text_14">
      <!-- 0.4 -->
      <g style="fill: #7f7f7f" transform="translate(21.845938 45.970259) scale(0.1 -0.1)">
       <defs>
        <path id="DejaVuSans-34" d="M 2419 4116 
L 825 1625 
L 2419 1625 
L 2419 4116 
z
M 2253 4666 
L 3047 4666 
L 3047 1625 
L 3713 1625 
L 3713 1100 
L 3047 1100 
L 3047 0 
L 2419 0 
L 2419 1100 
L 313 1100 
L 313 1709 
L 2253 4666 
z
" transform="scale(0.015625)"/>
       </defs>
       <use xlink:href="#DejaVuSans-30"/>
       <use xlink:href="#DejaVuSans-2e" transform="translate(63.623047 0)"/>
       <use xlink:href="#DejaVuSans-34" transform="translate(95.410156 0)"/>
      </g>
     </g>
    </g>
    <g id="text_15">
     <!-- Position Error [m] -->
     <g style="fill: #7f7f7f" transform="translate(15.558281 154.397187) rotate(-90) scale(0.11 -0.11)">
      <defs>
       <path id="DejaVuSans-50" d="M 1259 4147 
L 1259 2394 
L 2053 2394 
Q 2494 2394 2734 2622 
Q 2975 2850 2975 3272 
Q 2975 3691 2734 3919 
Q 2494 4147 2053 4147 
L 1259 4147 
z
M 628 4666 
L 2053 4666 
Q 2838 4666 3239 4311 
Q 3641 3956 3641 3272 
Q 3641 2581 3239 2228 
Q 2838 1875 2053 1875 
L 1259 1875 
L 1259 0 
L 628 0 
L 628 4666 
z
" transform="scale(0.015625)"/>
       <path id="DejaVuSans-6f" d="M 1959 3097 
Q 1497 3097 1228 2736 
Q 959 2375 959 1747 
Q 959 1119 1226 758 
Q 1494 397 1959 397 
Q 2419 397 2687 759 
Q 2956 1122 2956 1747 
Q 2956 2369 2687 2733 
Q 2419 3097 1959 3097 
z
M 1959 3584 
Q 2709 3584 3137 3096 
Q 3566 2609 3566 1747 
Q 3566 888 3137 398 
Q 2709 -91 1959 -91 
Q 1206 -91 779 398 
Q 353 888 353 1747 
Q 353 2609 779 3096 
Q 1206 3584 1959 3584 
z
" transform="scale(0.015625)"/>
       <path id="DejaVuSans-73" d="M 2834 3397 
L 2834 2853 
Q 2591 2978 2328 3040 
Q 2066 3103 1784 3103 
Q 1356 3103 1142 2972 
Q 928 2841 928 2578 
Q 928 2378 1081 2264 
Q 1234 2150 1697 2047 
L 1894 2003 
Q 2506 1872 2764 1633 
Q 3022 1394 3022 966 
Q 3022 478 2636 193 
Q 2250 -91 1575 -91 
Q 1294 -91 989 -36 
Q 684 19 347 128 
L 347 722 
Q 666 556 975 473 
Q 1284 391 1588 391 
Q 1994 391 2212 530 
Q 2431 669 2431 922 
Q 2431 1156 2273 1281 
Q 2116 1406 1581 1522 
L 1381 1569 
Q 847 1681 609 1914 
Q 372 2147 372 2553 
Q 372 3047 722 3315 
Q 1072 3584 1716 3584 
Q 2034 3584 2315 3537 
Q 2597 3491 2834 3397 
z
" transform="scale(0.015625)"/>
       <path id="DejaVuSans-69" d="M 603 3500 
L 1178 3500 
L 1178 0 
L 603 0 
L 603 3500 
z
M 603 4863 
L 1178 4863 
L 1178 4134 
L 603 4134 
L 603 4863 
z
" transform="scale(0.015625)"/>
       <path id="DejaVuSans-74" d="M 1172 4494 
L 1172 3500 
L 2356 3500 
L 2356 3053 
L 1172 3053 
L 1172 1153 
Q 1172 725 1289 603 
Q 1406 481 1766 481 
L 2356 481 
L 2356 0 
L 1766 0 
Q 1100 0 847 248 
Q 594 497 594 1153 
L 594 3053 
L 172 3053 
L 172 3500 
L 594 3500 
L 594 4494 
L 1172 4494 
z
" transform="scale(0.015625)"/>
       <path id="DejaVuSans-6e" d="M 3513 2113 
L 3513 0 
L 2938 0 
L 2938 2094 
Q 2938 2591 2744 2837 
Q 2550 3084 2163 3084 
Q 1697 3084 1428 2787 
Q 1159 2491 1159 1978 
L 1159 0 
L 581 0 
L 581 3500 
L 1159 3500 
L 1159 2956 
Q 1366 3272 1645 3428 
Q 1925 3584 2291 3584 
Q 2894 3584 3203 3211 
Q 3513 2838 3513 2113 
z
" transform="scale(0.015625)"/>
       <path id="DejaVuSans-20" transform="scale(0.015625)"/>
       <path id="DejaVuSans-45" d="M 628 4666 
L 3578 4666 
L 3578 4134 
L 1259 4134 
L 1259 2753 
L 3481 2753 
L 3481 2222 
L 1259 2222 
L 1259 531 
L 3634 531 
L 3634 0 
L 628 0 
L 628 4666 
z
" transform="scale(0.015625)"/>
       <path id="DejaVuSans-72" d="M 2631 2963 
Q 2534 3019 2420 3045 
Q 2306 3072 2169 3072 
Q 1681 3072 1420 2755 
Q 1159 2438 1159 1844 
L 1159 0 
L 581 0 
L 581 3500 
L 1159 3500 
L 1159 2956 
Q 1341 3275 1631 3429 
Q 1922 3584 2338 3584 
Q 2397 3584 2469 3576 
Q 2541 3569 2628 3553 
L 2631 2963 
z
" transform="scale(0.015625)"/>
       <path id="DejaVuSans-5b" d="M 550 4863 
L 1875 4863 
L 1875 4416 
L 1125 4416 
L 1125 -397 
L 1875 -397 
L 1875 -844 
L 550 -844 
L 550 4863 
z
" transform="scale(0.015625)"/>
       <path id="DejaVuSans-6d" d="M 3328 2828 
Q 3544 3216 3844 3400 
Q 4144 3584 4550 3584 
Q 5097 3584 5394 3201 
Q 5691 2819 5691 2113 
L 5691 0 
L 5113 0 
L 5113 2094 
Q 5113 2597 4934 2840 
Q 4756 3084 4391 3084 
Q 3944 3084 3684 2787 
Q 3425 2491 3425 1978 
L 3425 0 
L 2847 0 
L 2847 2094 
Q 2847 2600 2669 2842 
Q 2491 3084 2119 3084 
Q 1678 3084 1418 2786 
Q 1159 2488 1159 1978 
L 1159 0 
L 581 0 
L 581 3500 
L 1159 3500 
L 1159 2956 
Q 1356 3278 1631 3431 
Q 1906 3584 2284 3584 
Q 2666 3584 2933 3390 
Q 3200 3197 3328 2828 
z
" transform="scale(0.015625)"/>
       <path id="DejaVuSans-5d" d="M 1947 4863 
L 1947 -844 
L 622 -844 
L 622 -397 
L 1369 -397 
L 1369 4416 
L 622 4416 
L 622 4863 
L 1947 4863 
z
" transform="scale(0.015625)"/>
      </defs>
      <use xlink:href="#DejaVuSans-50"/>
      <use xlink:href="#DejaVuSans-6f" transform="translate(56.677734 0)"/>
      <use xlink:href="#DejaVuSans-73" transform="translate(117.859375 0)"/>
      <use xlink:href="#DejaVuSans-69" transform="translate(169.958984 0)"/>
      <use xlink:href="#DejaVuSans-74" transform="translate(197.742188 0)"/>
      <use xlink:href="#DejaVuSans-69" transform="translate(236.951172 0)"/>
      <use xlink:href="#DejaVuSans-6f" transform="translate(264.734375 0)"/>
      <use xlink:href="#DejaVuSans-6e" transform="translate(325.916016 0)"/>
      <use xlink:href="#DejaVuSans-20" transform="translate(389.294922 0)"/>
      <use xlink:href="#DejaVuSans-45" transform="translate(421.082031 0)"/>
      <use xlink:href="#DejaVuSans-72" transform="translate(484.265625 0)"/>
      <use xlink:href="#DejaVuSans-72" transform="translate(523.628906 0)"/>
      <use xlink:href="#DejaVuSans-6f" transform="translate(562.492188 0)"/>
      <use xlink:href="#DejaVuSans-72" transform="translate(623.673828 0)"/>
      <use xlink:href="#DejaVuSans-20" transform="translate(664.787109 0)"/>
      <use xlink:href="#DejaVuSans-5b" transform="translate(696.574219 0)"/>
      <use xlink:href="#DejaVuSans-6d" transform="translate(735.587891 0)"/>
      <use xlink:href="#DejaVuSans-5d" transform="translate(833 0)"/>
     </g>
    </g>
   </g>
   <g id="line2d_15">
    <path d="M 68.242287 182.910703 
L 70.121745 100.509037 
L 70.591609 136.728859 
L 71.296406 181.497449 
L 71.766271 175.639944 
L 72.001203 158.886376 
L 72.940932 161.789869 
L 73.410796 170.41485 
L 73.645729 156.91779 
L 74.115593 180.054648 
L 74.350525 170.843145 
L 74.585458 180.575773 
L 74.82039 159.405722 
L 75.055322 157.163281 
L 76.699848 71.784003 
L 76.93478 73.194028 
L 77.404644 29.965391 
L 78.344373 35.838799 
L 80.223831 122.196046 
L 80.928628 109.511292 
L 81.16356 82.830366 
L 81.633425 117.398631 
L 81.868357 111.032177 
L 83.982747 51.6468 
L 86.33207 116.008515 
L 86.567002 115.263057 
L 87.741663 95.9282 
L 87.271799 115.943353 
L 87.976595 98.683193 
L 89.856053 177.506817 
L 90.090986 182.625386 
L 90.325918 162.948213 
L 91.030715 181.771051 
L 92.440308 172.009214 
L 91.735511 182.194736 
L 92.910173 175.361362 
L 93.145105 177.747099 
L 93.614969 174.170775 
L 94.789631 147.517565 
L 95.024563 147.745633 
L 96.199224 176.658308 
L 96.434156 165.015442 
L 97.373885 166.674394 
L 97.84375 178.857485 
L 98.548546 175.944865 
L 98.783479 173.662817 
L 99.018411 177.919838 
L 99.253343 177.735662 
L 99.488275 178.500929 
L 100.897869 155.308949 
L 101.132801 163.00767 
L 101.367733 162.620667 
L 102.542395 169.776371 
L 103.012259 172.320337 
L 103.247191 161.719616 
L 103.951988 144.933494 
L 104.421853 152.53728 
L 106.301311 117.855123 
L 106.536243 127.054626 
L 108.180768 160.437221 
L 108.650633 158.022802 
L 109.35543 167.89416 
L 110.530091 144.564863 
L 110.999955 152.867324 
L 111.46982 162.46943 
L 111.704752 155.485465 
L 111.939684 144.864059 
L 112.644481 157.071246 
L 112.879413 160.232228 
L 113.114346 151.10257 
L 113.349278 141.182479 
L 114.054075 151.149769 
L 114.523939 142.52973 
L 114.758871 146.879476 
L 115.463668 168.331746 
L 115.6986 157.828412 
L 116.403397 149.747094 
L 116.638329 150.561155 
L 118.282855 180.094713 
L 119.927381 152.393053 
L 120.162313 158.49724 
L 120.397245 160.174402 
L 120.632177 171.413066 
L 121.102042 160.493947 
L 121.336974 156.394546 
L 121.806839 157.549499 
L 122.746568 172.722915 
L 122.9815 171.653762 
L 123.216432 169.381721 
L 123.686297 171.833196 
L 124.860958 182.709077 
L 125.565755 163.278893 
L 125.800687 169.961383 
L 126.035619 174.128874 
L 126.270551 172.436569 
L 127.680145 141.329949 
L 127.915077 140.901688 
L 128.619874 110.666214 
L 128.854806 123.425515 
L 129.559603 155.545354 
L 129.794535 141.372942 
L 131.204128 97.6306 
L 132.143857 106.48097 
L 131.673993 97.309297 
L 132.613722 101.447542 
L 132.848654 102.296264 
L 134.023315 87.072365 
L 135.432909 120.500418 
L 136.137706 115.320132 
L 137.547299 95.423215 
L 139.661689 126.565455 
L 140.131554 120.062265 
L 140.366486 115.036901 
L 140.601418 116.622074 
L 141.071283 130.868575 
L 141.541147 122.895979 
L 142.480876 100.169839 
L 142.715808 106.861956 
L 143.185673 109.136594 
L 143.420605 103.939869 
L 143.655537 115.985781 
L 143.89047 118.980924 
L 144.125402 113.231903 
L 144.830199 105.991655 
L 145.065131 109.115133 
L 146.00486 126.194535 
L 146.239792 125.043995 
L 146.474724 124.127411 
L 146.709657 124.65677 
L 147.884318 145.796617 
L 148.354182 142.84517 
L 148.824047 121.696834 
L 149.528843 127.710001 
L 151.408301 182.871499 
L 152.34803 181.389748 
L 152.817895 175.461832 
L 153.052827 176.025478 
L 153.287759 182.635274 
L 153.522692 175.927926 
L 154.462421 146.079776 
L 154.932285 152.865081 
L 156.106946 181.686209 
L 156.811743 181.248199 
L 158.221337 151.604825 
L 158.456269 168.878837 
L 159.395998 167.216262 
L 160.100794 148.499929 
L 161.040523 149.715414 
L 161.74532 166.791726 
L 161.980252 151.744759 
L 162.685049 134.864943 
L 163.154914 139.491187 
L 163.624778 145.91313 
L 163.85971 138.035041 
L 164.094643 139.213269 
L 164.329575 137.681915 
L 164.564507 142.519512 
L 164.799439 141.838411 
L 165.034372 143.941058 
L 165.269304 144.209191 
L 165.504236 140.816082 
L 165.739168 145.66009 
L 166.209033 142.040644 
L 167.148762 157.306296 
L 167.383694 149.345101 
L 167.618626 161.794962 
L 167.853559 160.1628 
L 168.558355 181.870424 
L 169.02822 166.559495 
L 169.263152 164.043439 
L 170.202881 182.006159 
L 170.672745 158.31411 
L 171.377542 159.765683 
L 172.082339 168.209254 
L 172.317271 162.095934 
L 172.552203 157.875948 
L 172.787136 163.817995 
L 173.257 160.018114 
L 174.196729 180.01669 
L 174.666594 177.71045 
L 174.901526 181.283544 
L 175.136458 172.984499 
L 175.606323 179.023802 
L 176.076187 181.202203 
L 176.546052 179.780848 
L 177.250848 170.110035 
L 177.485781 172.251723 
L 177.955645 177.447974 
L 178.190577 170.107736 
L 178.660442 162.267596 
L 178.895374 177.622436 
L 179.600171 167.083288 
L 180.304967 149.208095 
L 180.5399 142.709813 
L 181.009764 155.609581 
L 182.65429 171.538614 
L 182.889222 159.754584 
L 183.594019 161.16741 
L 183.828951 171.51589 
L 184.298816 152.276146 
L 184.533748 153.066907 
L 184.76868 149.873535 
L 185.003612 155.140049 
L 185.238545 164.256196 
L 185.473477 153.031157 
L 186.88307 128.962141 
L 187.118003 127.344027 
L 187.587867 123.16234 
L 188.762528 146.128741 
L 188.997461 141.245778 
L 189.232393 148.711922 
L 189.702257 144.623181 
L 190.641986 161.976417 
L 190.876918 155.045217 
L 191.111851 151.144416 
L 191.581715 155.121519 
L 192.521444 176.11106 
L 192.756376 167.888957 
L 192.991309 166.061783 
L 194.16597 179.783437 
L 195.105699 159.052391 
L 195.340631 169.018329 
L 196.515292 179.283072 
L 198.159818 153.854703 
L 198.39475 151.78533 
L 198.629683 157.517064 
L 200.50914 182.668336 
L 201.448869 173.280551 
L 201.683802 179.915349 
L 202.388598 175.073184 
L 203.328327 155.378031 
L 203.56326 155.444866 
L 204.502989 166.553514 
L 204.737921 159.922977 
L 204.972853 168.747117 
L 206.147514 182.56118 
L 206.617379 177.310454 
L 207.322176 177.602412 
L 207.79204 180.08439 
L 208.261905 167.059196 
L 208.731769 178.555894 
L 208.966701 177.704955 
L 209.201634 181.405378 
L 209.436566 180.062498 
L 210.376295 160.446945 
L 210.611227 167.455558 
L 211.081091 165.63669 
L 211.785888 179.89997 
L 212.960549 158.394485 
L 213.665346 179.597549 
L 214.370143 176.46179 
L 215.07494 162.986849 
L 215.544804 169.650069 
L 216.014669 157.724721 
L 216.484533 168.382761 
L 217.18933 180.713703 
L 217.659194 174.643113 
L 217.894127 167.267651 
L 218.129059 175.339828 
L 218.598923 172.103488 
L 218.833856 180.381406 
L 219.068788 169.269165 
L 219.30372 170.053811 
L 219.538652 157.435941 
L 220.243449 172.066526 
L 221.653042 182.216639 
L 222.827704 170.711574 
L 223.062636 157.613008 
L 223.5325 173.179713 
L 223.767433 166.031768 
L 224.707162 171.089203 
L 224.942094 165.506478 
L 225.411958 177.39373 
L 226.116755 175.744225 
L 226.351687 182.48682 
L 227.526349 170.401307 
L 227.996213 153.826678 
L 228.466078 159.192187 
L 228.70101 170.246121 
L 229.640739 169.453699 
L 230.580468 145.359601 
L 231.285264 151.859709 
L 231.755129 164.95088 
L 232.224993 157.050201 
L 232.694858 149.09915 
L 232.92979 152.222 
L 234.339384 170.224708 
L 235.514045 158.04591 
L 236.453774 166.217192 
L 236.688706 165.233691 
L 237.158571 158.508434 
L 237.393503 162.873199 
L 237.628435 167.474225 
L 238.0983 162.999198 
L 239.507893 143.827007 
L 240.447622 162.382081 
L 240.917487 153.231754 
L 241.387351 147.816793 
L 241.622283 155.602403 
L 241.857215 156.668296 
L 242.092148 162.546359 
L 242.32708 155.85039 
L 244.44147 118.025691 
L 244.911335 113.393105 
L 245.146267 113.778685 
L 245.381199 124.625002 
L 246.085996 121.487219 
L 246.790793 112.911153 
L 247.025725 119.723651 
L 247.260657 125.063316 
L 247.495589 112.809216 
L 247.730522 112.021276 
L 247.965454 106.060961 
L 248.435318 114.547967 
L 248.905183 139.200782 
L 249.60998 123.194955 
L 249.844912 123.048403 
L 250.079844 108.115512 
L 250.784641 126.291423 
L 251.019573 129.501393 
L 251.254505 147.181761 
L 251.959302 135.402962 
L 252.194234 132.651352 
L 252.664099 150.844161 
L 253.368895 150.657461 
L 254.778489 181.399635 
L 255.013421 166.87051 
L 255.483286 168.32443 
L 256.892879 179.346758 
L 257.127811 161.414073 
L 257.832608 170.83351 
L 259.242202 182.268291 
L 260.886727 149.846458 
L 262.531253 176.394187 
L 262.766185 173.722666 
L 263.001117 178.592491 
L 263.23605 180.455252 
L 265.585372 137.151769 
L 266.055237 163.338514 
L 266.525101 151.551387 
L 267.229898 148.463662 
L 268.169627 181.709755 
L 269.109356 179.557427 
L 270.753882 149.461004 
L 270.988814 150.839614 
L 271.458678 157.736497 
L 271.693611 150.295324 
L 272.163475 145.498232 
L 272.398407 151.409322 
L 273.573068 182.261839 
L 273.808001 176.732769 
L 274.277865 181.905737 
L 274.512797 175.751083 
L 275.452526 144.791148 
L 275.687459 145.994695 
L 275.922391 139.943794 
L 276.392255 143.809696 
L 276.627188 151.3716 
L 277.331984 146.334289 
L 277.801849 140.16084 
L 278.036781 152.770248 
L 278.271713 149.329789 
L 278.741578 155.350312 
L 278.97651 153.877581 
L 279.916239 166.607169 
L 280.621036 169.240423 
L 281.325833 145.865319 
L 281.560765 146.209088 
L 281.795697 155.281506 
L 282.030629 144.576503 
L 282.500494 151.652437 
L 282.735426 138.847317 
L 283.440223 147.301743 
L 283.675155 146.103219 
L 283.910087 146.999355 
L 285.789545 177.045842 
L 286.964206 157.31081 
L 287.199139 165.495503 
L 287.434071 165.550634 
L 287.669003 164.043488 
L 287.903935 174.111229 
L 288.608732 173.457157 
L 289.078597 151.963248 
L 289.783393 159.705669 
L 290.723122 179.809819 
L 290.958055 170.005732 
L 291.897784 159.542879 
L 293.072445 182.419875 
L 293.542309 165.617979 
L 294.482038 167.106772 
L 295.656699 180.468178 
L 295.891632 176.940738 
L 296.361496 177.924975 
L 296.596428 181.964646 
L 297.066293 179.436957 
L 299.650548 145.869177 
L 299.88548 156.114086 
L 300.355344 145.554046 
L 300.590277 140.754954 
L 301.060141 175.612035 
L 301.764938 154.669543 
L 302.234802 159.713676 
L 303.644396 118.206439 
L 304.11426 104.175571 
L 304.584125 112.068657 
L 306.22865 130.627971 
L 307.403312 112.792595 
L 308.812905 126.955346 
L 309.047837 127.053265 
L 309.517702 126.684042 
L 309.752634 130.426621 
L 309.987566 125.626451 
L 310.927295 126.434768 
L 312.806753 164.738599 
L 313.51155 147.294884 
L 313.981414 149.362728 
L 314.216347 149.632777 
L 315.860872 182.259045 
L 316.095805 177.919529 
L 316.330737 182.478732 
L 316.800601 180.822001 
L 317.975263 174.187618 
L 318.210195 176.400714 
L 318.914992 180.890638 
L 318.680059 174.648376 
L 319.149924 178.213338 
L 320.324585 167.360286 
L 320.79445 180.683555 
L 321.029382 173.890895 
L 321.264314 161.119218 
L 321.734179 177.910181 
L 321.969111 173.712674 
L 322.673908 159.60375 
L 323.143772 164.763343 
L 324.788298 133.801378 
L 325.02323 140.57295 
L 325.493094 150.931392 
L 325.962959 143.295927 
L 326.197891 135.586779 
L 326.667756 142.641277 
L 326.902688 156.530222 
L 327.607485 148.712882 
L 328.312281 127.570354 
L 328.547214 129.302746 
L 329.25201 107.877426 
L 329.486943 109.330633 
L 330.661604 147.909264 
L 330.896536 143.09352 
L 332.071197 163.56529 
L 332.30613 162.71153 
L 333.010926 180.559288 
L 333.715723 178.407409 
L 333.950655 177.861836 
L 334.42052 161.923352 
L 334.890384 172.272294 
L 335.125316 173.78971 
L 335.595181 170.818641 
L 337.239707 146.995232 
L 338.884232 175.580467 
L 339.823961 147.246261 
L 340.058894 154.147069 
L 342.643148 109.967005 
L 343.113013 114.230673 
L 343.347945 112.463176 
L 343.582877 119.46736 
L 343.81781 111.537784 
L 344.287674 116.14107 
L 344.522606 113.583121 
L 344.757538 121.382227 
L 344.992471 122.311226 
L 345.227403 120.119326 
L 346.402064 112.608425 
L 347.106861 129.320995 
L 347.576725 127.497023 
L 348.281522 118.225688 
L 348.516454 127.970917 
L 349.456183 152.291477 
L 349.691116 135.46622 
L 349.926048 136.537454 
L 351.100709 120.586713 
L 351.335641 124.812407 
L 351.570574 125.944872 
L 352.745235 116.102542 
L 353.215099 125.429298 
L 353.919896 119.053799 
L 354.154828 118.168821 
L 354.389761 136.31946 
L 355.094557 115.374096 
L 356.034286 137.108834 
L 356.269218 124.458087 
L 356.504151 111.24273 
L 357.208947 122.588935 
L 358.853473 151.584832 
L 359.088405 139.174826 
L 359.793202 148.148599 
L 360.028134 156.987648 
L 360.497999 148.070396 
L 360.732931 148.988544 
L 361.437728 141.708385 
L 361.67266 146.879276 
L 361.907592 150.332528 
L 362.142525 148.074136 
L 362.612389 128.487063 
L 363.082254 141.104615 
L 363.317186 146.72942 
L 363.552118 139.267551 
L 363.78705 133.64736 
L 364.021983 146.293211 
L 364.256915 155.620406 
L 364.961712 148.012387 
L 365.431576 157.639581 
L 365.666508 153.81792 
L 366.841169 132.977609 
L 367.545966 153.202937 
L 367.780898 144.715755 
L 368.485695 132.440508 
L 368.720627 139.499064 
L 368.95556 145.206653 
L 369.425424 133.229956 
L 369.660356 140.280282 
L 370.130221 148.337147 
L 370.365153 138.514206 
L 370.600085 141.906117 
L 370.835018 141.693554 
L 371.06995 137.795657 
L 371.304882 145.645097 
L 372.479543 163.409967 
L 371.774747 142.707881 
L 372.714476 160.109124 
L 373.419272 163.438111 
L 373.18434 156.970395 
L 373.654205 160.033358 
L 373.889137 158.733229 
L 374.124069 160.21891 
L 374.593934 171.398601 
L 374.828866 167.089235 
L 375.063798 153.536728 
L 375.533662 167.299911 
L 376.473391 178.363221 
L 377.178188 154.113485 
L 377.882985 146.584765 
L 378.117917 147.536539 
L 379.057646 172.952529 
L 379.527511 166.907447 
L 380.702172 150.607417 
L 380.232307 170.097162 
L 380.937104 151.725005 
L 381.172036 158.876784 
L 381.406969 144.176198 
L 381.641901 134.894047 
L 382.346698 145.036371 
L 383.051494 168.553626 
L 383.521359 165.739339 
L 383.991223 145.596111 
L 384.69602 156.128434 
L 384.930952 162.491061 
L 385.400817 152.70876 
L 385.870681 141.289564 
L 386.340546 132.49672 
L 386.81041 135.503271 
L 387.280275 134.187219 
L 388.220004 149.122836 
L 388.689868 131.900963 
L 389.159733 149.756569 
L 389.394665 144.537918 
L 389.864529 153.187727 
L 391.274123 181.77884 
L 391.509055 174.429401 
L 392.918649 140.128009 
L 393.153581 143.067194 
L 393.388513 142.29654 
L 395.737836 89.272558 
L 395.972768 89.721676 
L 396.442632 96.74405 
L 396.677564 88.745528 
L 396.912497 88.633325 
L 398.557022 130.738412 
L 399.026887 133.246095 
L 399.261819 135.489958 
L 399.496751 128.328302 
L 399.731684 129.559619 
L 401.376209 168.888102 
L 401.846074 164.250945 
L 402.315938 178.824645 
L 403.020735 175.803848 
L 403.255667 182.622696 
L 403.960464 182.228092 
L 404.900193 172.224843 
L 405.135125 175.54224 
L 405.370058 176.1882 
L 405.60499 165.985513 
L 406.309787 171.935281 
L 406.544719 172.024815 
L 407.014583 167.627963 
L 407.71938 182.547822 
L 408.189244 180.915475 
L 408.659109 181.746476 
L 409.83377 160.96096 
L 410.303635 164.526888 
L 410.538567 162.700905 
L 411.94816 140.203094 
L 412.183093 148.653717 
L 413.592686 176.688539 
L 413.827618 173.598068 
L 414.062551 163.986266 
L 414.767347 169.690025 
L 415.00228 182.062891 
L 415.707076 177.061321 
L 415.942009 175.959858 
L 416.176941 177.776604 
L 416.881737 182.363129 
L 417.11667 180.660327 
L 417.351602 169.980707 
L 418.056399 176.40699 
L 418.291331 176.02949 
L 418.526263 182.391851 
L 418.996128 171.209099 
L 420.405721 155.590995 
L 420.875586 157.506755 
L 421.34545 150.962612 
L 421.580382 161.283365 
L 421.815315 154.479571 
L 422.989976 135.782522 
L 426.044095 182.562903 
L 427.218756 156.046911 
L 427.688621 160.377125 
L 428.393417 182.730461 
L 429.098214 177.428427 
L 429.333146 168.94836 
L 429.568079 182.568013 
L 430.037943 178.415502 
L 431.447537 171.191812 
L 430.74274 178.843953 
L 431.682469 172.240175 
L 433.092062 182.779432 
L 433.326995 182.714487 
L 434.97152 147.16855 
L 436.146182 170.510122 
L 436.381114 163.260998 
L 436.850978 178.862092 
L 437.555775 171.280313 
L 437.790707 178.712678 
L 438.260572 182.530464 
L 438.495504 181.509581 
L 439.200301 170.252467 
L 439.435233 181.017878 
L 439.670165 181.492138 
L 440.14003 175.622746 
L 440.374962 182.061319 
L 440.844826 176.243073 
L 441.549623 174.140237 
L 442.019488 182.472809 
L 442.959217 168.861031 
L 443.194149 174.993103 
L 444.133878 182.477043 
L 444.838675 170.080057 
L 445.308539 175.467931 
L 445.543471 182.204233 
L 446.248268 173.803716 
L 446.4832 173.651653 
L 446.718133 172.038405 
L 446.953065 173.297359 
L 447.187997 178.956831 
L 447.422929 169.446054 
L 447.657862 175.017072 
L 447.892794 167.492383 
L 448.59759 174.808821 
L 451.65171 128.142962 
L 451.886642 136.656699 
L 452.591439 135.693374 
L 452.826371 128.662612 
L 453.061303 137.340242 
L 453.296235 134.667663 
L 455.410626 175.796845 
L 455.645558 174.287634 
L 456.350355 150.291022 
L 456.820219 164.944222 
L 457.055151 174.062653 
L 457.759948 171.754624 
L 461.048999 121.152736 
L 461.283932 124.17362 
L 461.753796 122.919802 
L 463.868186 167.879049 
L 464.103119 159.457535 
L 464.807915 168.746383 
L 465.042848 170.091011 
L 465.27778 167.619848 
L 465.512712 169.10554 
L 466.217509 164.247382 
L 466.452441 172.761316 
L 466.922306 154.320128 
L 467.39217 158.995641 
L 467.627102 158.159184 
L 468.331899 147.099464 
L 468.801763 152.200713 
L 469.271628 150.676112 
L 469.741492 138.590504 
L 470.211357 147.24159 
L 470.446289 147.892476 
L 470.916154 138.247036 
L 471.386018 145.516206 
L 472.090815 163.227303 
L 472.560679 152.839173 
L 472.795612 142.433908 
L 473.030544 153.727185 
L 473.265476 151.414278 
L 473.735341 151.048985 
L 475.144934 181.281526 
L 476.319595 167.757947 
L 476.78946 182.233577 
L 477.259324 176.900434 
L 479.373714 149.897138 
L 480.548376 178.563096 
L 480.783308 168.637018 
L 481.488105 173.055075 
L 481.723037 173.250201 
L 482.192901 182.630959 
L 482.662766 175.340258 
L 482.897698 175.047703 
L 483.13263 180.474102 
L 483.837427 179.190114 
L 485.012088 172.293816 
L 485.951817 179.458882 
L 485.481953 171.626005 
L 486.18675 177.435787 
L 486.421682 175.314825 
L 486.656614 182.416587 
L 487.361411 174.113786 
L 487.596343 172.634633 
L 489.005937 149.341774 
L 489.240869 157.821925 
L 489.710733 147.459574 
L 490.180598 154.537989 
L 490.885394 140.672616 
L 491.355259 150.290527 
L 491.590191 144.646444 
L 492.999785 128.138538 
L 492.060056 145.796139 
L 493.234717 129.911171 
L 494.174446 139.968021 
L 495.114175 123.195649 
L 496.053904 157.110477 
L 496.523768 145.207055 
L 497.69843 165.194869 
L 497.933362 161.542588 
L 499.108023 152.903143 
L 499.81282 149.630483 
L 500.752549 131.685806 
L 500.987481 141.350943 
L 501.457345 154.401375 
L 502.162142 152.194615 
L 502.397074 143.67949 
L 502.866939 153.888633 
L 503.101871 144.838837 
L 503.806668 164.04529 
L 504.276532 153.749738 
L 504.511465 149.276431 
L 504.746397 155.290567 
L 504.981329 154.241953 
L 505.686126 157.688571 
L 507.800516 182.423568 
L 508.270381 159.677986 
L 508.740245 170.946733 
L 509.21011 175.45145 
L 509.445042 154.990479 
L 509.914906 180.433493 
L 510.149838 179.181131 
L 510.384771 181.620986 
L 510.619703 177.04097 
L 511.3245 159.95433 
L 511.794364 172.53666 
L 512.029296 171.77135 
L 512.499161 180.08452 
L 512.969025 172.268186 
L 513.673822 153.708781 
L 514.143687 159.686066 
L 514.378619 166.189976 
L 514.613551 160.873831 
L 515.083416 140.685021 
L 515.55328 153.083484 
L 516.962874 174.039658 
L 517.197806 164.658397 
L 517.902603 173.610942 
L 518.137535 170.979295 
L 518.372467 175.19922 
L 518.842332 181.544358 
L 519.077264 171.517175 
L 519.782061 160.326315 
L 520.251925 161.070404 
L 520.956722 170.732563 
L 521.191654 169.320937 
L 521.896451 154.6883 
L 522.131383 157.174058 
L 523.540976 180.265573 
L 524.010841 177.744083 
L 524.480705 179.764343 
L 524.715638 182.452335 
L 525.890299 165.718511 
L 526.595096 173.619669 
L 526.830028 171.500616 
L 528.474554 150.553136 
L 528.944418 163.580869 
L 529.414283 160.617413 
L 530.354012 142.66358 
L 530.823876 147.494558 
L 531.998537 161.667983 
L 532.233469 149.515827 
L 533.173198 150.570891 
L 534.34786 167.63834 
L 534.582792 163.894003 
L 535.052656 168.415481 
L 535.522521 157.815905 
L 535.992385 169.460917 
L 536.227318 166.854726 
L 536.46225 181.793963 
L 537.167047 172.524058 
L 537.401979 174.350998 
L 537.636911 168.818797 
L 537.871843 171.295963 
L 538.106776 171.615593 
L 538.106776 171.615593 
" clip-path="url(#p95dbb9a9a9)" style="fill: none; stroke: #e41a1c; stroke-width: 2; stroke-linecap: square"/>
   </g>
   <g id="patch_3">
    <path d="M 44.749063 190.557969 
L 44.749063 22.318125 
" style="fill: none; stroke: #7f7f7f; stroke-width: 1.8; stroke-linejoin: miter; stroke-linecap: square"/>
   </g>
   <g id="patch_4">
    <path d="M 44.749063 190.557969 
L 561.6 190.557969 
" style="fill: none; stroke: #7f7f7f; stroke-width: 1.8; stroke-linejoin: miter; stroke-linecap: square"/>
   </g>
   <g id="text_16">
    <!-- Kalman Filter Estimation Error -->
    <g style="fill: #7f7f7f" transform="translate(200.161094 16.318125) scale(0.12 -0.12)">
     <defs>
      <path id="DejaVuSans-Bold-4b" d="M 588 4666 
L 1791 4666 
L 1791 2963 
L 3525 4666 
L 4922 4666 
L 2675 2456 
L 5153 0 
L 3647 0 
L 1791 1838 
L 1791 0 
L 588 0 
L 588 4666 
z
" transform="scale(0.015625)"/>
      <path id="DejaVuSans-Bold-61" d="M 2106 1575 
Q 1756 1575 1579 1456 
Q 1403 1338 1403 1106 
Q 1403 894 1545 773 
Q 1688 653 1941 653 
Q 2256 653 2472 879 
Q 2688 1106 2688 1447 
L 2688 1575 
L 2106 1575 
z
M 3816 1997 
L 3816 0 
L 2688 0 
L 2688 519 
Q 2463 200 2181 54 
Q 1900 -91 1497 -91 
Q 953 -91 614 226 
Q 275 544 275 1050 
Q 275 1666 698 1953 
Q 1122 2241 2028 2241 
L 2688 2241 
L 2688 2328 
Q 2688 2594 2478 2717 
Q 2269 2841 1825 2841 
Q 1466 2841 1156 2769 
Q 847 2697 581 2553 
L 581 3406 
Q 941 3494 1303 3539 
Q 1666 3584 2028 3584 
Q 2975 3584 3395 3211 
Q 3816 2838 3816 1997 
z
" transform="scale(0.015625)"/>
      <path id="DejaVuSans-Bold-6c" d="M 538 4863 
L 1656 4863 
L 1656 0 
L 538 0 
L 538 4863 
z
" transform="scale(0.015625)"/>
      <path id="DejaVuSans-Bold-6d" d="M 3781 2919 
Q 3994 3244 4286 3414 
Q 4578 3584 4928 3584 
Q 5531 3584 5847 3212 
Q 6163 2841 6163 2131 
L 6163 0 
L 5038 0 
L 5038 1825 
Q 5041 1866 5042 1909 
Q 5044 1953 5044 2034 
Q 5044 2406 4934 2573 
Q 4825 2741 4581 2741 
Q 4263 2741 4089 2478 
Q 3916 2216 3909 1719 
L 3909 0 
L 2784 0 
L 2784 1825 
Q 2784 2406 2684 2573 
Q 2584 2741 2328 2741 
Q 2006 2741 1831 2477 
Q 1656 2213 1656 1722 
L 1656 0 
L 531 0 
L 531 3500 
L 1656 3500 
L 1656 2988 
Q 1863 3284 2130 3434 
Q 2397 3584 2719 3584 
Q 3081 3584 3359 3409 
Q 3638 3234 3781 2919 
z
" transform="scale(0.015625)"/>
      <path id="DejaVuSans-Bold-6e" d="M 4056 2131 
L 4056 0 
L 2931 0 
L 2931 347 
L 2931 1631 
Q 2931 2084 2911 2256 
Q 2891 2428 2841 2509 
Q 2775 2619 2662 2680 
Q 2550 2741 2406 2741 
Q 2056 2741 1856 2470 
Q 1656 2200 1656 1722 
L 1656 0 
L 538 0 
L 538 3500 
L 1656 3500 
L 1656 2988 
Q 1909 3294 2193 3439 
Q 2478 3584 2822 3584 
Q 3428 3584 3742 3212 
Q 4056 2841 4056 2131 
z
" transform="scale(0.015625)"/>
      <path id="DejaVuSans-Bold-20" transform="scale(0.015625)"/>
      <path id="DejaVuSans-Bold-46" d="M 588 4666 
L 3834 4666 
L 3834 3756 
L 1791 3756 
L 1791 2888 
L 3713 2888 
L 3713 1978 
L 1791 1978 
L 1791 0 
L 588 0 
L 588 4666 
z
" transform="scale(0.015625)"/>
      <path id="DejaVuSans-Bold-69" d="M 538 3500 
L 1656 3500 
L 1656 0 
L 538 0 
L 538 3500 
z
M 538 4863 
L 1656 4863 
L 1656 3950 
L 538 3950 
L 538 4863 
z
" transform="scale(0.015625)"/>
      <path id="DejaVuSans-Bold-74" d="M 1759 4494 
L 1759 3500 
L 2913 3500 
L 2913 2700 
L 1759 2700 
L 1759 1216 
Q 1759 972 1856 886 
Q 1953 800 2241 800 
L 2816 800 
L 2816 0 
L 1856 0 
Q 1194 0 917 276 
Q 641 553 641 1216 
L 641 2700 
L 84 2700 
L 84 3500 
L 641 3500 
L 641 4494 
L 1759 4494 
z
" transform="scale(0.015625)"/>
      <path id="DejaVuSans-Bold-65" d="M 4031 1759 
L 4031 1441 
L 1416 1441 
Q 1456 1047 1700 850 
Q 1944 653 2381 653 
Q 2734 653 3104 758 
Q 3475 863 3866 1075 
L 3866 213 
Q 3469 63 3072 -14 
Q 2675 -91 2278 -91 
Q 1328 -91 801 392 
Q 275 875 275 1747 
Q 275 2603 792 3093 
Q 1309 3584 2216 3584 
Q 3041 3584 3536 3087 
Q 4031 2591 4031 1759 
z
M 2881 2131 
Q 2881 2450 2695 2645 
Q 2509 2841 2209 2841 
Q 1884 2841 1681 2658 
Q 1478 2475 1428 2131 
L 2881 2131 
z
" transform="scale(0.015625)"/>
      <path id="DejaVuSans-Bold-72" d="M 3138 2547 
Q 2991 2616 2845 2648 
Q 2700 2681 2553 2681 
Q 2122 2681 1889 2404 
Q 1656 2128 1656 1613 
L 1656 0 
L 538 0 
L 538 3500 
L 1656 3500 
L 1656 2925 
Q 1872 3269 2151 3426 
Q 2431 3584 2822 3584 
Q 2878 3584 2943 3579 
Q 3009 3575 3134 3559 
L 3138 2547 
z
" transform="scale(0.015625)"/>
      <path id="DejaVuSans-Bold-45" d="M 588 4666 
L 3834 4666 
L 3834 3756 
L 1791 3756 
L 1791 2888 
L 3713 2888 
L 3713 1978 
L 1791 1978 
L 1791 909 
L 3903 909 
L 3903 0 
L 588 0 
L 588 4666 
z
" transform="scale(0.015625)"/>
      <path id="DejaVuSans-Bold-73" d="M 3272 3391 
L 3272 2541 
Q 2913 2691 2578 2766 
Q 2244 2841 1947 2841 
Q 1628 2841 1473 2761 
Q 1319 2681 1319 2516 
Q 1319 2381 1436 2309 
Q 1553 2238 1856 2203 
L 2053 2175 
Q 2913 2066 3209 1816 
Q 3506 1566 3506 1031 
Q 3506 472 3093 190 
Q 2681 -91 1863 -91 
Q 1516 -91 1145 -36 
Q 775 19 384 128 
L 384 978 
Q 719 816 1070 734 
Q 1422 653 1784 653 
Q 2113 653 2278 743 
Q 2444 834 2444 1013 
Q 2444 1163 2330 1236 
Q 2216 1309 1875 1350 
L 1678 1375 
Q 931 1469 631 1722 
Q 331 1975 331 2491 
Q 331 3047 712 3315 
Q 1094 3584 1881 3584 
Q 2191 3584 2531 3537 
Q 2872 3491 3272 3391 
z
" transform="scale(0.015625)"/>
      <path id="DejaVuSans-Bold-6f" d="M 2203 2784 
Q 1831 2784 1636 2517 
Q 1441 2250 1441 1747 
Q 1441 1244 1636 976 
Q 1831 709 2203 709 
Q 2569 709 2762 976 
Q 2956 1244 2956 1747 
Q 2956 2250 2762 2517 
Q 2569 2784 2203 2784 
z
M 2203 3584 
Q 3106 3584 3614 3096 
Q 4122 2609 4122 1747 
Q 4122 884 3614 396 
Q 3106 -91 2203 -91 
Q 1297 -91 786 396 
Q 275 884 275 1747 
Q 275 2609 786 3096 
Q 1297 3584 2203 3584 
z
" transform="scale(0.015625)"/>
     </defs>
     <use xlink:href="#DejaVuSans-Bold-4b"/>
     <use xlink:href="#DejaVuSans-Bold-61" transform="translate(77.490234 0)"/>
     <use xlink:href="#DejaVuSans-Bold-6c" transform="translate(144.970703 0)"/>
     <use xlink:href="#DejaVuSans-Bold-6d" transform="translate(179.248047 0)"/>
     <use xlink:href="#DejaVuSans-Bold-61" transform="translate(283.447266 0)"/>
     <use xlink:href="#DejaVuSans-Bold-6e" transform="translate(350.927734 0)"/>
     <use xlink:href="#DejaVuSans-Bold-20" transform="translate(422.119141 0)"/>
     <use xlink:href="#DejaVuSans-Bold-46" transform="translate(456.933594 0)"/>
     <use xlink:href="#DejaVuSans-Bold-69" transform="translate(525.244141 0)"/>
     <use xlink:href="#DejaVuSans-Bold-6c" transform="translate(559.521484 0)"/>
     <use xlink:href="#DejaVuSans-Bold-74" transform="translate(593.798828 0)"/>
     <use xlink:href="#DejaVuSans-Bold-65" transform="translate(641.601562 0)"/>
     <use xlink:href="#DejaVuSans-Bold-72" transform="translate(709.423828 0)"/>
     <use xlink:href="#DejaVuSans-Bold-20" transform="translate(758.740234 0)"/>
     <use xlink:href="#DejaVuSans-Bold-45" transform="translate(793.554688 0)"/>
     <use xlink:href="#DejaVuSans-Bold-73" transform="translate(861.865234 0)"/>
     <use xlink:href="#DejaVuSans-Bold-74" transform="translate(921.386719 0)"/>
     <use xlink:href="#DejaVuSans-Bold-69" transform="translate(969.189453 0)"/>
     <use xlink:href="#DejaVuSans-Bold-6d" transform="translate(1003.466797 0)"/>
     <use xlink:href="#DejaVuSans-Bold-61" transform="translate(1107.666016 0)"/>
     <use xlink:href="#DejaVuSans-Bold-74" transform="translate(1175.146484 0)"/>
     <use xlink:href="#DejaVuSans-Bold-69" transform="translate(1222.949219 0)"/>
     <use xlink:href="#DejaVuSans-Bold-6f" transform="translate(1257.226562 0)"/>
     <use xlink:href="#DejaVuSans-Bold-6e" transform="translate(1325.927734 0)"/>
     <use xlink:href="#DejaVuSans-Bold-20" transform="translate(1397.119141 0)"/>
     <use xlink:href="#DejaVuSans-Bold-45" transform="translate(1431.933594 0)"/>
     <use xlink:href="#DejaVuSans-Bold-72" transform="translate(1500.244141 0)"/>
     <use xlink:href="#DejaVuSans-Bold-72" transform="translate(1549.560547 0)"/>
     <use xlink:href="#DejaVuSans-Bold-6f" transform="translate(1598.876953 0)"/>
     <use xlink:href="#DejaVuSans-Bold-72" transform="translate(1667.578125 0)"/>
    </g>
   </g>
  </g>
  <g id="axes_2">
   <g id="patch_5">
    <path d="M 44.749063 386.275937 
L 561.6 386.275937 
L 561.6 218.036094 
L 44.749063 218.036094 
L 44.749063 386.275937 
z
" style="fill: none"/>
   </g>
   <g id="matplotlib.axis_3">
    <g id="xtick_10">
     <g id="line2d_16">
      <g>
       <use xlink:href="#me6841f04db" x="68.242287" y="386.275937" style="fill: #7f7f7f; stroke: #7f7f7f; stroke-width: 1.8"/>
      </g>
     </g>
     <g id="text_17">
      <!-- 0.0 -->
      <g style="fill: #7f7f7f" transform="translate(60.290724 400.874375) scale(0.1 -0.1)">
       <use xlink:href="#DejaVuSans-30"/>
       <use xlink:href="#DejaVuSans-2e" transform="translate(63.623047 0)"/>
       <use xlink:href="#DejaVuSans-30" transform="translate(95.410156 0)"/>
      </g>
     </g>
    </g>
    <g id="xtick_11">
     <g id="line2d_17">
      <g>
       <use xlink:href="#me6841f04db" x="126.975348" y="386.275937" style="fill: #7f7f7f; stroke: #7f7f7f; stroke-width: 1.8"/>
      </g>
     </g>
     <g id="text_18">
      <!-- 2.5 -->
      <g style="fill: #7f7f7f" transform="translate(119.023786 400.874375) scale(0.1 -0.1)">
       <use xlink:href="#DejaVuSans-32"/>
       <use xlink:href="#DejaVuSans-2e" transform="translate(63.623047 0)"/>
       <use xlink:href="#DejaVuSans-35" transform="translate(95.410156 0)"/>
      </g>
     </g>
    </g>
    <g id="xtick_12">
     <g id="line2d_18">
      <g>
       <use xlink:href="#me6841f04db" x="185.708409" y="386.275937" style="fill: #7f7f7f; stroke: #7f7f7f; stroke-width: 1.8"/>
      </g>
     </g>
     <g id="text_19">
      <!-- 5.0 -->
      <g style="fill: #7f7f7f" transform="translate(177.756847 400.874375) scale(0.1 -0.1)">
       <use xlink:href="#DejaVuSans-35"/>
       <use xlink:href="#DejaVuSans-2e" transform="translate(63.623047 0)"/>
       <use xlink:href="#DejaVuSans-30" transform="translate(95.410156 0)"/>
      </g>
     </g>
    </g>
    <g id="xtick_13">
     <g id="line2d_19">
      <g>
       <use xlink:href="#me6841f04db" x="244.44147" y="386.275937" style="fill: #7f7f7f; stroke: #7f7f7f; stroke-width: 1.8"/>
      </g>
     </g>
     <g id="text_20">
      <!-- 7.5 -->
      <g style="fill: #7f7f7f" transform="translate(236.489908 400.874375) scale(0.1 -0.1)">
       <use xlink:href="#DejaVuSans-37"/>
       <use xlink:href="#DejaVuSans-2e" transform="translate(63.623047 0)"/>
       <use xlink:href="#DejaVuSans-35" transform="translate(95.410156 0)"/>
      </g>
     </g>
    </g>
    <g id="xtick_14">
     <g id="line2d_20">
      <g>
       <use xlink:href="#me6841f04db" x="303.174531" y="386.275937" style="fill: #7f7f7f; stroke: #7f7f7f; stroke-width: 1.8"/>
      </g>
     </g>
     <g id="text_21">
      <!-- 10.0 -->
      <g style="fill: #7f7f7f" transform="translate(292.041719 400.874375) scale(0.1 -0.1)">
       <use xlink:href="#DejaVuSans-31"/>
       <use xlink:href="#DejaVuSans-30" transform="translate(63.623047 0)"/>
       <use xlink:href="#DejaVuSans-2e" transform="translate(127.246094 0)"/>
       <use xlink:href="#DejaVuSans-30" transform="translate(159.033203 0)"/>
      </g>
     </g>
    </g>
    <g id="xtick_15">
     <g id="line2d_21">
      <g>
       <use xlink:href="#me6841f04db" x="361.907592" y="386.275937" style="fill: #7f7f7f; stroke: #7f7f7f; stroke-width: 1.8"/>
      </g>
     </g>
     <g id="text_22">
      <!-- 12.5 -->
      <g style="fill: #7f7f7f" transform="translate(350.77478 400.874375) scale(0.1 -0.1)">
       <use xlink:href="#DejaVuSans-31"/>
       <use xlink:href="#DejaVuSans-32" transform="translate(63.623047 0)"/>
       <use xlink:href="#DejaVuSans-2e" transform="translate(127.246094 0)"/>
       <use xlink:href="#DejaVuSans-35" transform="translate(159.033203 0)"/>
      </g>
     </g>
    </g>
    <g id="xtick_16">
     <g id="line2d_22">
      <g>
       <use xlink:href="#me6841f04db" x="420.640653" y="386.275937" style="fill: #7f7f7f; stroke: #7f7f7f; stroke-width: 1.8"/>
      </g>
     </g>
     <g id="text_23">
      <!-- 15.0 -->
      <g style="fill: #7f7f7f" transform="translate(409.507841 400.874375) scale(0.1 -0.1)">
       <use xlink:href="#DejaVuSans-31"/>
       <use xlink:href="#DejaVuSans-35" transform="translate(63.623047 0)"/>
       <use xlink:href="#DejaVuSans-2e" transform="translate(127.246094 0)"/>
       <use xlink:href="#DejaVuSans-30" transform="translate(159.033203 0)"/>
      </g>
     </g>
    </g>
    <g id="xtick_17">
     <g id="line2d_23">
      <g>
       <use xlink:href="#me6841f04db" x="479.373714" y="386.275937" style="fill: #7f7f7f; stroke: #7f7f7f; stroke-width: 1.8"/>
      </g>
     </g>
     <g id="text_24">
      <!-- 17.5 -->
      <g style="fill: #7f7f7f" transform="translate(468.240902 400.874375) scale(0.1 -0.1)">
       <use xlink:href="#DejaVuSans-31"/>
       <use xlink:href="#DejaVuSans-37" transform="translate(63.623047 0)"/>
       <use xlink:href="#DejaVuSans-2e" transform="translate(127.246094 0)"/>
       <use xlink:href="#DejaVuSans-35" transform="translate(159.033203 0)"/>
      </g>
     </g>
    </g>
    <g id="xtick_18">
     <g id="line2d_24">
      <g>
       <use xlink:href="#me6841f04db" x="538.106776" y="386.275937" style="fill: #7f7f7f; stroke: #7f7f7f; stroke-width: 1.8"/>
      </g>
     </g>
     <g id="text_25">
      <!-- 20.0 -->
      <g style="fill: #7f7f7f" transform="translate(526.973963 400.874375) scale(0.1 -0.1)">
       <use xlink:href="#DejaVuSans-32"/>
       <use xlink:href="#DejaVuSans-30" transform="translate(63.623047 0)"/>
       <use xlink:href="#DejaVuSans-2e" transform="translate(127.246094 0)"/>
       <use xlink:href="#DejaVuSans-30" transform="translate(159.033203 0)"/>
      </g>
     </g>
    </g>
    <g id="text_26">
     <!-- Time [s] -->
     <g style="fill: #7f7f7f" transform="translate(280.812734 415.312344) scale(0.11 -0.11)">
      <defs>
       <path id="DejaVuSans-54" d="M -19 4666 
L 3928 4666 
L 3928 4134 
L 2272 4134 
L 2272 0 
L 1638 0 
L 1638 4134 
L -19 4134 
L -19 4666 
z
" transform="scale(0.015625)"/>
       <path id="DejaVuSans-65" d="M 3597 1894 
L 3597 1613 
L 953 1613 
Q 991 1019 1311 708 
Q 1631 397 2203 397 
Q 2534 397 2845 478 
Q 3156 559 3463 722 
L 3463 178 
Q 3153 47 2828 -22 
Q 2503 -91 2169 -91 
Q 1331 -91 842 396 
Q 353 884 353 1716 
Q 353 2575 817 3079 
Q 1281 3584 2069 3584 
Q 2775 3584 3186 3129 
Q 3597 2675 3597 1894 
z
M 3022 2063 
Q 3016 2534 2758 2815 
Q 2500 3097 2075 3097 
Q 1594 3097 1305 2825 
Q 1016 2553 972 2059 
L 3022 2063 
z
" transform="scale(0.015625)"/>
      </defs>
      <use xlink:href="#DejaVuSans-54"/>
      <use xlink:href="#DejaVuSans-69" transform="translate(57.958984 0)"/>
      <use xlink:href="#DejaVuSans-6d" transform="translate(85.742188 0)"/>
      <use xlink:href="#DejaVuSans-65" transform="translate(183.154297 0)"/>
      <use xlink:href="#DejaVuSans-20" transform="translate(244.677734 0)"/>
      <use xlink:href="#DejaVuSans-5b" transform="translate(276.464844 0)"/>
      <use xlink:href="#DejaVuSans-73" transform="translate(315.478516 0)"/>
      <use xlink:href="#DejaVuSans-5d" transform="translate(367.578125 0)"/>
     </g>
    </g>
   </g>
   <g id="matplotlib.axis_4">
    <g id="ytick_6">
     <g id="line2d_25">
      <g>
       <use xlink:href="#m3e5bf22a2c" x="44.749063" y="378.629728" style="fill: #7f7f7f; stroke: #7f7f7f; stroke-width: 1.8"/>
      </g>
     </g>
     <g id="text_27">
      <!-- 0.0 -->
      <g style="fill: #7f7f7f" transform="translate(21.845938 382.428946) scale(0.1 -0.1)">
       <use xlink:href="#DejaVuSans-30"/>
       <use xlink:href="#DejaVuSans-2e" transform="translate(63.623047 0)"/>
       <use xlink:href="#DejaVuSans-30" transform="translate(95.410156 0)"/>
      </g>
     </g>
    </g>
    <g id="ytick_7">
     <g id="line2d_26">
      <g>
       <use xlink:href="#m3e5bf22a2c" x="44.749063" y="343.158267" style="fill: #7f7f7f; stroke: #7f7f7f; stroke-width: 1.8"/>
      </g>
     </g>
     <g id="text_28">
      <!-- 0.5 -->
      <g style="fill: #7f7f7f" transform="translate(21.845938 346.957486) scale(0.1 -0.1)">
       <use xlink:href="#DejaVuSans-30"/>
       <use xlink:href="#DejaVuSans-2e" transform="translate(63.623047 0)"/>
       <use xlink:href="#DejaVuSans-35" transform="translate(95.410156 0)"/>
      </g>
     </g>
    </g>
    <g id="ytick_8">
     <g id="line2d_27">
      <g>
       <use xlink:href="#m3e5bf22a2c" x="44.749063" y="307.686807" style="fill: #7f7f7f; stroke: #7f7f7f; stroke-width: 1.8"/>
      </g>
     </g>
     <g id="text_29">
      <!-- 1.0 -->
      <g style="fill: #7f7f7f" transform="translate(21.845938 311.486026) scale(0.1 -0.1)">
       <use xlink:href="#DejaVuSans-31"/>
       <use xlink:href="#DejaVuSans-2e" transform="translate(63.623047 0)"/>
       <use xlink:href="#DejaVuSans-30" transform="translate(95.410156 0)"/>
      </g>
     </g>
    </g>
    <g id="ytick_9">
     <g id="line2d_28">
      <g>
       <use xlink:href="#m3e5bf22a2c" x="44.749063" y="272.215347" style="fill: #7f7f7f; stroke: #7f7f7f; stroke-width: 1.8"/>
      </g>
     </g>
     <g id="text_30">
      <!-- 1.5 -->
      <g style="fill: #7f7f7f" transform="translate(21.845938 276.014566) scale(0.1 -0.1)">
       <use xlink:href="#DejaVuSans-31"/>
       <use xlink:href="#DejaVuSans-2e" transform="translate(63.623047 0)"/>
       <use xlink:href="#DejaVuSans-35" transform="translate(95.410156 0)"/>
      </g>
     </g>
    </g>
    <g id="ytick_10">
     <g id="line2d_29">
      <g>
       <use xlink:href="#m3e5bf22a2c" x="44.749063" y="236.743887" style="fill: #7f7f7f; stroke: #7f7f7f; stroke-width: 1.8"/>
      </g>
     </g>
     <g id="text_31">
      <!-- 2.0 -->
      <g style="fill: #7f7f7f" transform="translate(21.845938 240.543106) scale(0.1 -0.1)">
       <use xlink:href="#DejaVuSans-32"/>
       <use xlink:href="#DejaVuSans-2e" transform="translate(63.623047 0)"/>
       <use xlink:href="#DejaVuSans-30" transform="translate(95.410156 0)"/>
      </g>
     </g>
    </g>
    <g id="text_32">
     <!-- Velocity Error [m/s] -->
     <g style="fill: #7f7f7f" transform="translate(15.558281 354.999844) rotate(-90) scale(0.11 -0.11)">
      <defs>
       <path id="DejaVuSans-56" d="M 1831 0 
L 50 4666 
L 709 4666 
L 2188 738 
L 3669 4666 
L 4325 4666 
L 2547 0 
L 1831 0 
z
" transform="scale(0.015625)"/>
       <path id="DejaVuSans-6c" d="M 603 4863 
L 1178 4863 
L 1178 0 
L 603 0 
L 603 4863 
z
" transform="scale(0.015625)"/>
       <path id="DejaVuSans-63" d="M 3122 3366 
L 3122 2828 
Q 2878 2963 2633 3030 
Q 2388 3097 2138 3097 
Q 1578 3097 1268 2742 
Q 959 2388 959 1747 
Q 959 1106 1268 751 
Q 1578 397 2138 397 
Q 2388 397 2633 464 
Q 2878 531 3122 666 
L 3122 134 
Q 2881 22 2623 -34 
Q 2366 -91 2075 -91 
Q 1284 -91 818 406 
Q 353 903 353 1747 
Q 353 2603 823 3093 
Q 1294 3584 2113 3584 
Q 2378 3584 2631 3529 
Q 2884 3475 3122 3366 
z
" transform="scale(0.015625)"/>
       <path id="DejaVuSans-79" d="M 2059 -325 
Q 1816 -950 1584 -1140 
Q 1353 -1331 966 -1331 
L 506 -1331 
L 506 -850 
L 844 -850 
Q 1081 -850 1212 -737 
Q 1344 -625 1503 -206 
L 1606 56 
L 191 3500 
L 800 3500 
L 1894 763 
L 2988 3500 
L 3597 3500 
L 2059 -325 
z
" transform="scale(0.015625)"/>
       <path id="DejaVuSans-2f" d="M 1625 4666 
L 2156 4666 
L 531 -594 
L 0 -594 
L 1625 4666 
z
" transform="scale(0.015625)"/>
      </defs>
      <use xlink:href="#DejaVuSans-56"/>
      <use xlink:href="#DejaVuSans-65" transform="translate(60.658203 0)"/>
      <use xlink:href="#DejaVuSans-6c" transform="translate(122.181641 0)"/>
      <use xlink:href="#DejaVuSans-6f" transform="translate(149.964844 0)"/>
      <use xlink:href="#DejaVuSans-63" transform="translate(211.146484 0)"/>
      <use xlink:href="#DejaVuSans-69" transform="translate(266.126953 0)"/>
      <use xlink:href="#DejaVuSans-74" transform="translate(293.910156 0)"/>
      <use xlink:href="#DejaVuSans-79" transform="translate(333.119141 0)"/>
      <use xlink:href="#DejaVuSans-20" transform="translate(392.298828 0)"/>
      <use xlink:href="#DejaVuSans-45" transform="translate(424.085938 0)"/>
      <use xlink:href="#DejaVuSans-72" transform="translate(487.269531 0)"/>
      <use xlink:href="#DejaVuSans-72" transform="translate(526.632812 0)"/>
      <use xlink:href="#DejaVuSans-6f" transform="translate(565.496094 0)"/>
      <use xlink:href="#DejaVuSans-72" transform="translate(626.677734 0)"/>
      <use xlink:href="#DejaVuSans-20" transform="translate(667.791016 0)"/>
      <use xlink:href="#DejaVuSans-5b" transform="translate(699.578125 0)"/>
      <use xlink:href="#DejaVuSans-6d" transform="translate(738.591797 0)"/>
      <use xlink:href="#DejaVuSans-2f" transform="translate(836.003906 0)"/>
      <use xlink:href="#DejaVuSans-73" transform="translate(869.695312 0)"/>
      <use xlink:href="#DejaVuSans-5d" transform="translate(921.794922 0)"/>
     </g>
    </g>
   </g>
   <g id="line2d_30">
    <path d="M 68.242287 236.743887 
L 68.947084 237.684382 
L 70.121745 247.633477 
L 70.591609 242.680616 
L 71.296406 234.414675 
L 71.531338 240.096469 
L 73.880661 285.847024 
L 74.585458 277.512924 
L 75.995051 233.132876 
L 76.229983 238.508158 
L 76.464915 236.561874 
L 76.699848 239.885112 
L 76.93478 245.552204 
L 77.169712 238.751097 
L 77.404644 225.683359 
L 77.874509 241.735481 
L 80.223831 321.144618 
L 80.458764 320.491825 
L 81.16356 306.41749 
L 81.398493 319.02777 
L 81.633425 327.842566 
L 82.573154 325.747312 
L 83.512883 308.598684 
L 83.982747 310.385785 
L 86.567002 348.863649 
L 87.036866 347.738644 
L 87.271799 350.920027 
L 87.741663 344.223812 
L 88.211528 354.585995 
L 89.856053 378.003757 
L 90.325918 372.720816 
L 91.500579 375.613389 
L 92.205376 378.035929 
L 92.440308 373.593174 
L 93.145105 375.787602 
L 93.380037 377.707858 
L 93.849902 374.21594 
L 94.789631 368.160132 
L 95.024563 368.409548 
L 96.199224 378.412253 
L 96.434156 374.582738 
L 97.373885 375.297536 
L 98.548546 378.401493 
L 99.95814 373.373014 
L 100.897869 368.422896 
L 101.837598 373.067715 
L 102.07253 371.756007 
L 102.307462 371.632333 
L 103.012259 374.884146 
L 103.247191 371.528347 
L 103.951988 366.577975 
L 104.421853 369.386682 
L 106.301311 359.840556 
L 105.126649 369.567787 
L 106.536243 363.113939 
L 108.180768 375.078293 
L 108.650633 374.394032 
L 109.35543 377.735374 
L 110.530091 370.48339 
L 110.765023 372.76252 
L 111.46982 376.683053 
L 111.704752 374.442227 
L 111.939684 371.053159 
L 112.644481 375.317843 
L 112.879413 376.401171 
L 113.114346 373.462098 
L 113.349278 370.312181 
L 114.054075 373.953291 
L 114.523939 371.323779 
L 114.758871 372.861707 
L 115.463668 377.228446 
L 115.6986 376.577711 
L 115.933533 374.036926 
L 116.638329 374.456481 
L 117.578058 377.707495 
L 118.282855 373.153841 
L 118.517787 375.025294 
L 119.457516 378.588114 
L 119.692448 377.877778 
L 119.927381 374.932077 
L 120.632177 375.997257 
L 121.102042 377.628502 
L 121.571906 376.700252 
L 122.276703 376.515692 
L 122.511635 377.954239 
L 122.746568 375.568286 
L 123.216432 376.755456 
L 124.156161 373.222128 
L 125.565755 366.815236 
L 126.035619 370.714008 
L 126.270551 370.288323 
L 127.680145 361.395507 
L 127.915077 361.535183 
L 128.619874 352.705844 
L 128.854806 357.305433 
L 129.559603 368.620229 
L 129.794535 364.141733 
L 130.969196 351.868332 
L 131.204128 352.033539 
L 132.143857 356.569263 
L 132.848654 356.31834 
L 133.318519 352.668098 
L 134.023315 353.259788 
L 135.432909 366.115294 
L 136.137706 365.052259 
L 136.842502 360.125801 
L 137.312367 361.776235 
L 137.547299 360.146991 
L 138.017163 362.816609 
L 139.661689 372.345554 
L 139.896621 371.993123 
L 140.366486 368.915038 
L 140.601418 369.591579 
L 141.071283 374.472051 
L 141.541147 372.039397 
L 142.480876 365.25225 
L 142.715808 367.659713 
L 143.89047 372.433548 
L 143.420605 367.20687 
L 144.125402 370.652516 
L 144.830199 368.729444 
L 145.065131 369.912433 
L 146.00486 375.863405 
L 146.239792 375.53175 
L 146.474724 375.282049 
L 146.709657 375.509643 
L 147.414453 378.273143 
L 147.649386 375.433839 
L 147.884318 374.830428 
L 148.354182 375.911827 
L 148.589114 377.153542 
L 148.824047 374.405878 
L 149.293911 376.237393 
L 149.528843 376.527663 
L 149.763776 378.508487 
L 150.23364 374.747907 
L 151.643234 363.140854 
L 151.878166 359.064779 
L 152.34803 364.189691 
L 153.052827 367.560404 
L 153.287759 365.396469 
L 154.462421 354.809876 
L 154.932285 357.731111 
L 156.341879 371.191787 
L 156.811743 368.798175 
L 157.51654 360.611857 
L 157.986404 362.502296 
L 158.221337 360.542209 
L 158.456269 366.489511 
L 158.691201 363.83775 
L 159.395998 366.827282 
L 159.63093 365.852458 
L 160.100794 361.329765 
L 161.040523 362.780555 
L 161.74532 368.997212 
L 161.980252 364.22875 
L 162.685049 359.510083 
L 163.154914 361.605748 
L 163.624778 364.231224 
L 164.094643 362.543892 
L 164.329575 362.3038 
L 165.974101 368.346051 
L 166.209033 365.496134 
L 166.678897 367.302621 
L 168.793287 378.105545 
L 169.263152 374.043394 
L 169.733016 375.718203 
L 170.202881 376.552287 
L 170.437813 375.734272 
L 170.672745 372.373975 
L 171.377542 373.141686 
L 172.082339 376.104368 
L 172.317271 374.144484 
L 172.552203 372.836098 
L 172.787136 374.874965 
L 173.257 373.761079 
L 173.961797 377.640441 
L 174.431661 377.388074 
L 174.666594 377.609088 
L 174.901526 375.391058 
L 175.136458 378.034433 
L 175.606323 377.252259 
L 176.546052 375.067303 
L 177.250848 372.140451 
L 177.485781 372.946759 
L 177.955645 374.80283 
L 178.190577 372.462507 
L 178.660442 370.117068 
L 178.895374 375.280857 
L 179.600171 372.085505 
L 180.070035 371.138389 
L 180.5399 364.649659 
L 181.009764 369.300342 
L 182.65429 375.241634 
L 182.889222 371.439746 
L 183.594019 372.207324 
L 183.828951 375.69861 
L 184.298816 369.582916 
L 184.76868 369.08367 
L 185.003612 370.962346 
L 185.238545 374.070502 
L 185.708409 367.512936 
L 186.413206 367.128817 
L 187.587867 362.463076 
L 189.232393 372.142446 
L 189.702257 371.02801 
L 189.937189 373.231372 
L 190.641986 377.036179 
L 190.876918 374.793482 
L 191.111851 373.579031 
L 191.581715 375.033879 
L 192.756376 378.101672 
L 192.991309 378.551182 
L 193.931038 372.162296 
L 194.16597 374.493703 
L 194.635834 378.628672 
L 195.340631 378.032098 
L 196.750225 369.801856 
L 196.985157 371.810858 
L 197.689954 377.724331 
L 197.924886 374.969504 
L 198.39475 373.107198 
L 198.629683 375.072826 
L 199.569412 378.159263 
L 200.039276 371.408072 
L 200.50914 374.100135 
L 201.448869 377.357104 
L 203.328327 366.138941 
L 203.56326 366.363575 
L 205.207785 374.360867 
L 205.442718 372.337106 
L 205.67765 375.489433 
L 205.912582 378.429023 
L 206.617379 374.898455 
L 206.852311 375.1185 
L 207.322176 378.606875 
L 207.79204 375.952974 
L 208.261905 371.811317 
L 208.731769 375.762541 
L 208.966701 375.530573 
L 209.201634 376.79202 
L 209.671498 375.360702 
L 209.90643 376.028465 
L 210.376295 372.713401 
L 210.611227 375.103341 
L 211.081091 374.570864 
L 211.550956 378.519129 
L 212.960549 369.438065 
L 213.900278 377.615299 
L 214.370143 377.402928 
L 215.07494 373.144878 
L 215.544804 375.464168 
L 216.014669 371.679083 
L 216.484533 375.366027 
L 217.424262 378.121726 
L 217.659194 377.488336 
L 217.894127 375.092892 
L 218.129059 377.792309 
L 218.598923 376.786316 
L 218.833856 377.733872 
L 219.068788 375.874031 
L 219.30372 376.175576 
L 219.538652 372.085614 
L 220.243449 377.06281 
L 220.948246 376.331139 
L 221.41811 378.526672 
L 221.653042 376.46352 
L 222.592771 376.656244 
L 222.827704 376.557621 
L 223.062636 372.304128 
L 223.5325 377.575539 
L 223.767433 375.253146 
L 225.177026 378.422808 
L 225.646891 376.704898 
L 225.881823 376.485761 
L 226.116755 378.608163 
L 226.351687 376.444107 
L 227.526349 372.517073 
L 227.996213 367.316317 
L 228.466078 369.398728 
L 229.640739 373.38919 
L 230.580468 366.015782 
L 231.050332 367.202658 
L 231.755129 373.265033 
L 232.224993 370.894479 
L 232.694858 368.577913 
L 232.92979 369.763182 
L 234.339384 376.306907 
L 235.514045 372.707449 
L 236.453774 375.713708 
L 236.688706 375.439146 
L 237.158571 373.348322 
L 237.393503 374.86263 
L 237.628435 376.429685 
L 238.0983 375.055164 
L 239.507893 369.42711 
L 240.447622 375.958024 
L 240.917487 373.075693 
L 241.387351 371.498989 
L 241.622283 374.162951 
L 242.092148 376.573867 
L 242.32708 374.415665 
L 244.206538 363.193935 
L 244.44147 363.319229 
L 244.911335 362.306456 
L 245.146267 362.697626 
L 245.381199 366.50622 
L 246.085996 366.13218 
L 246.320928 363.827102 
L 247.025725 366.4695 
L 247.260657 368.414553 
L 247.730522 364.539977 
L 247.965454 362.817895 
L 248.435318 366.07564 
L 248.905183 374.520678 
L 249.844912 369.663965 
L 250.079844 364.922004 
L 250.549709 368.292712 
L 251.254505 378.503522 
L 251.959302 374.699649 
L 252.194234 373.862849 
L 252.429166 377.874506 
L 253.368895 377.412997 
L 254.778489 367.765267 
L 255.013421 372.696975 
L 255.483286 372.4135 
L 257.127811 361.770676 
L 257.597676 364.876235 
L 259.242202 370.389753 
L 260.181931 360.745063 
L 260.651795 361.77087 
L 260.886727 361.399496 
L 262.531253 371.330486 
L 262.766185 370.57459 
L 263.001117 372.299228 
L 263.23605 373.011667 
L 263.470982 370.724841 
L 263.940846 366.028471 
L 264.410711 360.276614 
L 264.880575 360.398506 
L 266.055237 370.103568 
L 266.290169 366.688413 
L 267.229898 366.174156 
L 268.874424 378.517725 
L 269.344288 376.33029 
L 270.049085 369.188998 
L 270.518949 369.860066 
L 270.753882 368.908306 
L 270.988814 369.517326 
L 271.458678 372.039915 
L 271.928543 369.450591 
L 272.163475 368.4351 
L 272.398407 370.535272 
L 273.808001 378.289904 
L 274.277865 376.612475 
L 275.922391 363.423086 
L 276.157323 365.462763 
L 276.392255 365.148966 
L 276.627188 367.842789 
L 277.331984 366.737394 
L 277.801849 365.127365 
L 278.741578 370.788103 
L 278.97651 370.433373 
L 279.916239 375.052987 
L 280.621036 376.141405 
L 281.325833 368.777858 
L 281.560765 369.050295 
L 281.795697 372.175176 
L 282.030629 368.776229 
L 282.500494 371.360117 
L 282.735426 367.287037 
L 283.440223 370.566071 
L 283.675155 370.304692 
L 283.910087 370.733133 
L 285.319681 375.746657 
L 286.494342 378.009317 
L 286.729274 374.594635 
L 287.434071 377.423592 
L 288.608732 377.269028 
L 288.843664 377.306997 
L 289.078597 372.954905 
L 289.783393 375.671617 
L 290.253258 378.260729 
L 290.48819 375.5887 
L 290.723122 374.981741 
L 290.958055 378.249812 
L 291.662851 377.078685 
L 292.837512 373.534627 
L 293.072445 374.269334 
L 294.012174 378.47268 
L 294.482038 377.86517 
L 296.361496 372.832356 
L 296.831361 375.018404 
L 297.066293 375.814915 
L 298.006022 365.585295 
L 298.475886 369.547196 
L 299.180683 368.773354 
L 300.590277 363.268523 
L 301.060141 375.081773 
L 301.764938 368.514153 
L 302.234802 370.475909 
L 303.174531 361.741585 
L 303.409463 363.003935 
L 303.879328 354.247569 
L 304.584125 357.786826 
L 306.22865 365.818168 
L 307.403312 361.249471 
L 308.812905 367.333866 
L 310.692363 369.320059 
L 310.927295 368.661975 
L 312.571821 378.352572 
L 312.806753 375.521238 
L 313.276618 378.432616 
L 313.51155 375.989619 
L 314.451279 376.75556 
L 315.860872 370.191886 
L 316.800601 369.797608 
L 317.035534 371.839881 
L 317.270466 372.284899 
L 317.505398 371.905389 
L 317.975263 368.258585 
L 318.680059 368.873 
L 318.914992 371.074455 
L 319.384856 367.650976 
L 319.619788 369.007379 
L 320.089653 370.342283 
L 320.324585 367.542172 
L 320.79445 373.67647 
L 321.029382 370.075773 
L 321.264314 366.034487 
L 321.734179 371.876216 
L 321.969111 370.61201 
L 322.438975 366.443893 
L 323.143772 368.572187 
L 324.788298 359.942569 
L 325.493094 366.357187 
L 325.962959 364.294009 
L 326.197891 362.003531 
L 326.667756 364.829083 
L 326.902688 369.598923 
L 327.607485 367.557643 
L 328.312281 361.234916 
L 328.547214 362.084288 
L 329.25201 356.050527 
L 329.486943 356.892679 
L 330.661604 370.695393 
L 330.896536 369.248007 
L 332.071197 376.435263 
L 332.30613 376.191451 
L 332.541062 378.100198 
L 333.010926 375.238916 
L 333.245859 376.241183 
L 333.480791 375.547342 
L 333.950655 376.30691 
L 334.890384 378.098978 
L 334.42052 375.716126 
L 335.125316 377.610947 
L 335.595181 378.608284 
L 336.065045 371.708894 
L 337.004774 372.679934 
L 337.239707 371.416063 
L 337.474639 373.103536 
L 338.414368 378.607507 
L 338.6493 377.672407 
L 339.823961 362.922209 
L 340.058894 365.435802 
L 342.173284 357.906944 
L 342.408216 358.576949 
L 342.643148 354.167756 
L 343.347945 356.129501 
L 344.757538 361.080029 
L 344.992471 361.668967 
L 345.227403 361.226882 
L 345.462335 359.083122 
L 345.9322 361.898319 
L 346.167132 361.340303 
L 346.402064 360.220291 
L 346.636996 362.922417 
L 347.341793 366.581129 
L 347.811658 365.256079 
L 348.281522 363.892572 
L 349.456183 375.799662 
L 349.691116 370.338735 
L 349.926048 370.823933 
L 350.16098 369.397275 
L 351.100709 366.379496 
L 351.570574 368.505238 
L 352.040438 367.704641 
L 352.745235 366.18258 
L 352.510303 368.00055 
L 352.980167 366.88152 
L 353.215099 369.627961 
L 353.919896 368.061716 
L 354.154828 367.943612 
L 354.389761 374.057738 
L 355.094557 367.454383 
L 356.034286 375.094987 
L 356.269218 371.011806 
L 356.504151 366.810111 
L 357.208947 371.026827 
L 357.913744 378.006883 
L 358.618541 377.324677 
L 358.853473 376.463434 
L 359.55827 376.921673 
L 359.793202 377.537095 
L 360.028134 374.661831 
L 360.497999 377.662942 
L 360.732931 377.378128 
L 361.67266 378.09463 
L 362.612389 373.166055 
L 362.847321 374.781706 
L 364.021983 378.019085 
L 364.256915 374.976228 
L 364.961712 377.612182 
L 365.431576 374.50302 
L 366.371305 376.310166 
L 366.606237 378.455231 
L 366.841169 374.651899 
L 367.311034 376.57203 
L 367.545966 375.989619 
L 367.780898 378.449146 
L 368.250763 375.874953 
L 368.485695 374.504447 
L 368.720627 376.88166 
L 369.425424 374.859608 
L 369.895289 378.351607 
L 371.06995 376.481805 
L 371.304882 378.173681 
L 371.539814 375.899539 
L 372.009679 376.863051 
L 372.479543 372.494565 
L 373.419272 372.820023 
L 373.889137 374.528914 
L 374.124069 374.109221 
L 374.593934 370.64432 
L 374.828866 372.18439 
L 375.063798 376.724718 
L 375.533662 372.291265 
L 377.41312 357.533085 
L 378.117917 358.317822 
L 379.057646 367.793899 
L 379.527511 366.17931 
L 380.702172 361.906549 
L 380.232307 367.851229 
L 380.937104 362.543794 
L 381.172036 365.145673 
L 381.406969 360.553088 
L 381.641901 357.808495 
L 382.111765 359.793293 
L 383.051494 370.411288 
L 383.756291 367.988623 
L 383.991223 363.487265 
L 384.69602 367.605539 
L 384.930952 369.866963 
L 385.400817 366.962444 
L 385.635749 366.513843 
L 386.105613 361.077746 
L 386.81041 362.802302 
L 388.220004 368.658205 
L 388.689868 363.409711 
L 389.159733 369.668101 
L 389.394665 368.10552 
L 389.864529 371.257374 
L 391.039191 378.282673 
L 391.274123 376.307829 
L 392.918649 362.903064 
L 393.153581 364.120338 
L 393.388513 364.103631 
L 395.737836 350.018807 
L 395.972768 350.630234 
L 397.852226 364.178233 
L 398.087158 363.845671 
L 399.261819 369.985842 
L 399.496751 367.782163 
L 399.966616 371.970691 
L 400.201548 372.157479 
L 400.43648 371.049737 
L 400.671413 374.59577 
L 401.141277 378.166883 
L 401.846074 377.027492 
L 402.315938 372.365594 
L 403.020735 373.624964 
L 403.4906 369.570862 
L 403.960464 371.538275 
L 404.195396 373.717172 
L 404.665261 369.118989 
L 404.900193 368.737116 
L 405.135125 369.983475 
L 405.370058 370.335248 
L 405.60499 367.130575 
L 406.309787 369.584933 
L 406.544719 369.761059 
L 406.779651 369.050126 
L 407.014583 368.621444 
L 407.484448 376.207585 
L 408.189244 373.39967 
L 408.659109 373.866209 
L 409.83377 367.577231 
L 410.303635 369.089484 
L 410.773499 367.398179 
L 411.94816 362.533632 
L 413.592686 375.639164 
L 413.827618 374.676205 
L 414.062551 371.594461 
L 414.767347 373.779142 
L 415.237212 378.447269 
L 415.942009 376.821569 
L 417.11667 378.417998 
L 417.351602 374.926021 
L 418.056399 377.196231 
L 418.761195 376.908072 
L 420.640653 370.320634 
L 421.34545 369.960722 
L 421.580382 373.479402 
L 422.520111 365.829714 
L 422.989976 366.118871 
L 424.634502 378.300776 
L 425.339298 377.302081 
L 426.51396 370.187072 
L 427.218756 366.76139 
L 427.688621 368.543364 
L 428.393417 376.2674 
L 429.098214 374.753954 
L 429.333146 372.041363 
L 429.803011 377.751576 
L 430.272875 378.350759 
L 431.447537 373.194687 
L 433.326995 377.549747 
L 434.97152 366.484196 
L 436.146182 374.744559 
L 436.381114 372.435005 
L 436.616046 373.990946 
L 437.790707 377.787631 
L 438.495504 378.579252 
L 439.200301 374.059773 
L 440.374962 378.592601 
L 441.549623 376.145771 
L 442.019488 378.088224 
L 442.489352 376.633348 
L 442.959217 374.551117 
L 443.194149 376.624337 
L 444.133878 377.896667 
L 444.838675 373.87279 
L 445.308539 375.782165 
L 446.013336 378.251827 
L 446.248268 376.025044 
L 446.953065 375.994283 
L 447.187997 377.889396 
L 447.422929 374.788558 
L 447.657862 376.674292 
L 447.892794 374.243221 
L 448.59759 376.812624 
L 451.65171 363.273543 
L 452.591439 366.602698 
L 452.826371 364.496777 
L 453.061303 367.566361 
L 453.296235 366.87122 
L 454.940761 377.778377 
L 456.350355 372.629789 
L 456.820219 377.565777 
L 457.525016 377.215719 
L 457.99488 378.358009 
L 460.10927 364.623169 
L 460.344203 364.750134 
L 461.283932 366.047113 
L 463.633254 378.535117 
L 464.807915 375.538173 
L 465.042848 375.148264 
L 465.27778 376.013583 
L 465.512712 375.569787 
L 466.217509 377.264169 
L 466.452441 374.499745 
L 466.687373 377.688788 
L 467.157238 377.247039 
L 467.39217 378.256691 
L 467.862035 375.917926 
L 468.096967 377.412039 
L 468.331899 374.443344 
L 469.036696 375.771501 
L 469.271628 375.819174 
L 469.741492 372.005521 
L 470.211357 375.005012 
L 470.446289 375.276884 
L 470.916154 372.256189 
L 471.386018 374.81764 
L 471.62095 377.645939 
L 472.560679 377.259989 
L 472.795612 373.876605 
L 473.030544 377.650023 
L 473.265476 376.908918 
L 473.735341 376.81277 
L 473.970273 378.458111 
L 475.379866 365.690429 
L 475.614799 366.317905 
L 476.319595 376.160508 
L 477.024392 374.446143 
L 478.433986 364.743317 
L 478.90385 365.663989 
L 479.373714 362.538374 
L 479.608647 367.289847 
L 479.843579 366.776028 
L 480.078511 367.567864 
L 480.548376 372.886207 
L 481.488105 371.554192 
L 481.723037 371.732911 
L 482.897698 377.744851 
L 484.307292 372.947633 
L 484.542224 373.033102 
L 485.012088 378.166155 
L 485.716885 377.10052 
L 485.951817 376.771471 
L 486.18675 377.463789 
L 486.421682 378.176901 
L 486.656614 375.536416 
L 487.361411 378.607509 
L 487.831275 375.544445 
L 488.536072 375.904303 
L 489.005937 370.78987 
L 489.240869 373.692665 
L 489.710733 370.504126 
L 490.180598 373.107384 
L 490.885394 368.934657 
L 491.355259 372.383218 
L 492.060056 371.29923 
L 492.999785 366.169586 
L 493.234717 366.952026 
L 494.174446 370.92965 
L 494.879243 366.004405 
L 495.114175 366.089995 
L 496.053904 377.689052 
L 496.523768 373.865815 
L 496.758701 376.945144 
L 497.69843 376.575461 
L 498.638159 378.365534 
L 498.873091 377.513408 
L 500.752549 370.134937 
L 500.987481 373.436207 
L 501.457345 377.815924 
L 502.162142 377.172187 
L 502.397074 374.408866 
L 502.866939 377.847424 
L 503.101871 374.898147 
L 504.746397 378.457811 
L 505.921058 376.690454 
L 506.390923 373.627826 
L 506.860787 374.17919 
L 507.095719 374.599506 
L 508.270381 363.189146 
L 508.505313 364.113915 
L 509.21011 369.188161 
L 509.445042 362.644596 
L 509.914906 371.425106 
L 510.149838 371.132162 
L 510.384771 372.052426 
L 511.089567 378.477609 
L 511.559432 375.347707 
L 512.029296 376.40045 
L 512.264229 374.247543 
L 512.499161 373.786891 
L 512.734093 375.331203 
L 513.203958 378.577763 
L 513.43889 377.353517 
L 513.673822 374.692625 
L 514.143687 376.764022 
L 514.378619 378.336433 
L 514.613551 377.178299 
L 515.083416 370.707028 
L 515.55328 374.981482 
L 516.023145 378.549656 
L 516.727941 376.861475 
L 516.962874 375.402199 
L 517.197806 378.525055 
L 517.432738 377.712755 
L 517.66767 377.718412 
L 518.842332 373.248475 
L 519.312196 378.321896 
L 520.016993 378.100662 
L 520.956722 376.859121 
L 520.486857 378.589782 
L 521.191654 377.349885 
L 521.661518 377.508309 
L 521.896451 375.099904 
L 522.366315 378.303978 
L 522.601247 378.585287 
L 524.010841 371.48937 
L 524.715638 373.655597 
L 525.890299 368.499807 
L 526.595096 371.535066 
L 527.06496 369.166553 
L 528.474554 365.269831 
L 528.944418 369.91296 
L 529.414283 369.247542 
L 530.354012 364.152436 
L 530.588944 366.039684 
L 530.823876 366.172979 
L 531.998537 371.648042 
L 532.233469 367.784001 
L 533.173198 368.772743 
L 534.34786 374.960502 
L 534.582792 373.794551 
L 535.052656 375.416569 
L 535.522521 372.105571 
L 535.992385 376.10014 
L 536.227318 375.288202 
L 536.46225 377.027435 
L 536.932114 377.412001 
L 537.636911 372.276361 
L 538.106776 373.383175 
" clip-path="url(#p42f8345f0d)" style="fill: none; stroke: #e41a1c; stroke-width: 2; stroke-linecap: square"/>
   </g>
   <g id="patch_6">
    <path d="M 44.749063 386.275937 
L 44.749063 218.036094 
" style="fill: none; stroke: #7f7f7f; stroke-width: 1.8; stroke-linejoin: miter; stroke-linecap: square"/>
   </g>
   <g id="patch_7">
    <path d="M 44.749063 386.275937 
L 561.6 386.275937 
" style="fill: none; stroke: #7f7f7f; stroke-width: 1.8; stroke-linejoin: miter; stroke-linecap: square"/>
   </g>
  </g>
 </g>
 <defs>
  <clipPath id="p95dbb9a9a9">
   <rect x="44.749063" y="22.318125" width="516.850937" height="168.239844"/>
  </clipPath>
  <clipPath id="p42f8345f0d">
   <rect x="44.749063" y="218.036094" width="516.850937" height="168.239844"/>
  </clipPath>
 </defs>
</svg>
