<?xml version="1.0" encoding="utf-8" standalone="no"?>
<!DOCTYPE svg PUBLIC "-//W3C//DTD SVG 1.1//EN"
  "http://www.w3.org/Graphics/SVG/1.1/DTD/svg11.dtd">
<svg xmlns:xlink="http://www.w3.org/1999/xlink" width="568.8pt" height="424.8pt" viewBox="0 0 568.8 424.8" xmlns="http://www.w3.org/2000/svg" version="1.1">
 <metadata>
  <rdf:RDF xmlns:dc="http://purl.org/dc/elements/1.1/" xmlns:cc="http://creativecommons.org/ns#" xmlns:rdf="http://www.w3.org/1999/02/22-rdf-syntax-ns#">
   <cc:Work>
    <dc:type rdf:resource="http://purl.org/dc/dcmitype/StillImage"/>
    <dc:date>2026-06-09T13:10:54.333551</dc:date>
    <dc:format>image/svg+xml</dc:format>
    <dc:creator>
     <cc:Agent>
      <dc:title>Matplotlib v3.10.9, https://matplotlib.org/</dc:title>
     </cc:Agent>
    </dc:creator>
   </cc:Work>
  </rdf:RDF>
 </metadata>
 <defs>
  <style type="text/css">*{stroke-linejoin: round; stroke-linecap: butt}</style>
 </defs>
 <g id="figure_1">
  <g id="patch_1">
   <path d="M 0 424.8 
L 568.8 424.8 
L 568.8 0 
L 0 0 
L 0 424.8 
z
" style="fill: none"/>
  </g>
  <g id="axes_1">
   <g id="patch_2">
    <path d="M 51.111563 190.557969 
L 561.6 190.557969 
L 561.6 22.318125 
L 51.111563 22.318125 
L 51.111563 190.557969 
z
" style="fill: none"/>
   </g>
   <g id="matplotlib.axis_1">
    <g id="xtick_1">
     <g id="line2d_1">
      <defs>
       <path id="m43a7017e2b" d="M 0 0 
L 0 3.5 
" style="stroke: #7f7f7f; stroke-width: 1.8"/>
      </defs>
      <g>
       <use xlink:href="#m43a7017e2b" x="74.315582" y="190.557969" style="fill: #7f7f7f; stroke: #7f7f7f; stroke-width: 1.8"/>
      </g>
     </g>
     <g id="text_1">
      <!-- 0.0 -->
      <g style="fill: #7f7f7f" transform="translate(66.36402 205.156406) scale(0.1 -0.1)">
       <defs>
        <path id="DejaVuSans-30" d="M 2034 4250 
Q 1547 4250 1301 3770 
Q 1056 3291 1056 2328 
Q 1056 1369 1301 889 
Q 1547 409 2034 409 
Q 2525 409 2770 889 
Q 3016 1369 3016 2328 
Q 3016 3291 2770 3770 
Q 2525 4250 2034 4250 
z
M 2034 4750 
Q 2819 4750 3233 4129 
Q 3647 3509 3647 2328 
Q 3647 1150 3233 529 
Q 2819 -91 2034 -91 
Q 1250 -91 836 529 
Q 422 1150 422 2328 
Q 422 3509 836 4129 
Q 1250 4750 2034 4750 
z
" transform="scale(0.015625)"/>
        <path id="DejaVuSans-2e" d="M 684 794 
L 1344 794 
L 1344 0 
L 684 0 
L 684 794 
z
" transform="scale(0.015625)"/>
       </defs>
       <use xlink:href="#DejaVuSans-30"/>
       <use xlink:href="#DejaVuSans-2e" transform="translate(63.623047 0)"/>
       <use xlink:href="#DejaVuSans-30" transform="translate(95.410156 0)"/>
      </g>
     </g>
    </g>
    <g id="xtick_2">
     <g id="line2d_2">
      <g>
       <use xlink:href="#m43a7017e2b" x="132.325632" y="190.557969" style="fill: #7f7f7f; stroke: #7f7f7f; stroke-width: 1.8"/>
      </g>
     </g>
     <g id="text_2">
      <!-- 2.5 -->
      <g style="fill: #7f7f7f" transform="translate(124.37407 205.156406) scale(0.1 -0.1)">
       <defs>
        <path id="DejaVuSans-32" d="M 1228 531 
L 3431 531 
L 3431 0 
L 469 0 
L 469 531 
Q 828 903 1448 1529 
Q 2069 2156 2228 2338 
Q 2531 2678 2651 2914 
Q 2772 3150 2772 3378 
Q 2772 3750 2511 3984 
Q 2250 4219 1831 4219 
Q 1534 4219 1204 4116 
Q 875 4013 500 3803 
L 500 4441 
Q 881 4594 1212 4672 
Q 1544 4750 1819 4750 
Q 2544 4750 2975 4387 
Q 3406 4025 3406 3419 
Q 3406 3131 3298 2873 
Q 3191 2616 2906 2266 
Q 2828 2175 2409 1742 
Q 1991 1309 1228 531 
z
" transform="scale(0.015625)"/>
        <path id="DejaVuSans-35" d="M 691 4666 
L 3169 4666 
L 3169 4134 
L 1269 4134 
L 1269 2991 
Q 1406 3038 1543 3061 
Q 1681 3084 1819 3084 
Q 2600 3084 3056 2656 
Q 3513 2228 3513 1497 
Q 3513 744 3044 326 
Q 2575 -91 1722 -91 
Q 1428 -91 1123 -41 
Q 819 9 494 109 
L 494 744 
Q 775 591 1075 516 
Q 1375 441 1709 441 
Q 2250 441 2565 725 
Q 2881 1009 2881 1497 
Q 2881 1984 2565 2268 
Q 2250 2553 1709 2553 
Q 1456 2553 1204 2497 
Q 953 2441 691 2322 
L 691 4666 
z
" transform="scale(0.015625)"/>
       </defs>
       <use xlink:href="#DejaVuSans-32"/>
       <use xlink:href="#DejaVuSans-2e" transform="translate(63.623047 0)"/>
       <use xlink:href="#DejaVuSans-35" transform="translate(95.410156 0)"/>
      </g>
     </g>
    </g>
    <g id="xtick_3">
     <g id="line2d_3">
      <g>
       <use xlink:href="#m43a7017e2b" x="190.335682" y="190.557969" style="fill: #7f7f7f; stroke: #7f7f7f; stroke-width: 1.8"/>
      </g>
     </g>
     <g id="text_3">
      <!-- 5.0 -->
      <g style="fill: #7f7f7f" transform="translate(182.384119 205.156406) scale(0.1 -0.1)">
       <use xlink:href="#DejaVuSans-35"/>
       <use xlink:href="#DejaVuSans-2e" transform="translate(63.623047 0)"/>
       <use xlink:href="#DejaVuSans-30" transform="translate(95.410156 0)"/>
      </g>
     </g>
    </g>
    <g id="xtick_4">
     <g id="line2d_4">
      <g>
       <use xlink:href="#m43a7017e2b" x="248.345732" y="190.557969" style="fill: #7f7f7f; stroke: #7f7f7f; stroke-width: 1.8"/>
      </g>
     </g>
     <g id="text_4">
      <!-- 7.5 -->
      <g style="fill: #7f7f7f" transform="translate(240.394169 205.156406) scale(0.1 -0.1)">
       <defs>
        <path id="DejaVuSans-37" d="M 525 4666 
L 3525 4666 
L 3525 4397 
L 1831 0 
L 1172 0 
L 2766 4134 
L 525 4134 
L 525 4666 
z
" transform="scale(0.015625)"/>
       </defs>
       <use xlink:href="#DejaVuSans-37"/>
       <use xlink:href="#DejaVuSans-2e" transform="translate(63.623047 0)"/>
       <use xlink:href="#DejaVuSans-35" transform="translate(95.410156 0)"/>
      </g>
     </g>
    </g>
    <g id="xtick_5">
     <g id="line2d_5">
      <g>
       <use xlink:href="#m43a7017e2b" x="306.355781" y="190.557969" style="fill: #7f7f7f; stroke: #7f7f7f; stroke-width: 1.8"/>
      </g>
     </g>
     <g id="text_5">
      <!-- 10.0 -->
      <g style="fill: #7f7f7f" transform="translate(295.222969 205.156406) scale(0.1 -0.1)">
       <defs>
        <path id="DejaVuSans-31" d="M 794 531 
L 1825 531 
L 1825 4091 
L 703 3866 
L 703 4441 
L 1819 4666 
L 2450 4666 
L 2450 531 
L 3481 531 
L 3481 0 
L 794 0 
L 794 531 
z
" transform="scale(0.015625)"/>
       </defs>
       <use xlink:href="#DejaVuSans-31"/>
       <use xlink:href="#DejaVuSans-30" transform="translate(63.623047 0)"/>
       <use xlink:href="#DejaVuSans-2e" transform="translate(127.246094 0)"/>
       <use xlink:href="#DejaVuSans-30" transform="translate(159.033203 0)"/>
      </g>
     </g>
    </g>
    <g id="xtick_6">
     <g id="line2d_6">
      <g>
       <use xlink:href="#m43a7017e2b" x="364.365831" y="190.557969" style="fill: #7f7f7f; stroke: #7f7f7f; stroke-width: 1.8"/>
      </g>
     </g>
     <g id="text_6">
      <!-- 12.5 -->
      <g style="fill: #7f7f7f" transform="translate(353.233018 205.156406) scale(0.1 -0.1)">
       <use xlink:href="#DejaVuSans-31"/>
       <use xlink:href="#DejaVuSans-32" transform="translate(63.623047 0)"/>
       <use xlink:href="#DejaVuSans-2e" transform="translate(127.246094 0)"/>
       <use xlink:href="#DejaVuSans-35" transform="translate(159.033203 0)"/>
      </g>
     </g>
    </g>
    <g id="xtick_7">
     <g id="line2d_7">
      <g>
       <use xlink:href="#m43a7017e2b" x="422.375881" y="190.557969" style="fill: #7f7f7f; stroke: #7f7f7f; stroke-width: 1.8"/>
      </g>
     </g>
     <g id="text_7">
      <!-- 15.0 -->
      <g style="fill: #7f7f7f" transform="translate(411.243068 205.156406) scale(0.1 -0.1)">
       <use xlink:href="#DejaVuSans-31"/>
       <use xlink:href="#DejaVuSans-35" transform="translate(63.623047 0)"/>
       <use xlink:href="#DejaVuSans-2e" transform="translate(127.246094 0)"/>
       <use xlink:href="#DejaVuSans-30" transform="translate(159.033203 0)"/>
      </g>
     </g>
    </g>
    <g id="xtick_8">
     <g id="line2d_8">
      <g>
       <use xlink:href="#m43a7017e2b" x="480.38593" y="190.557969" style="fill: #7f7f7f; stroke: #7f7f7f; stroke-width: 1.8"/>
      </g>
     </g>
     <g id="text_8">
      <!-- 17.5 -->
      <g style="fill: #7f7f7f" transform="translate(469.253118 205.156406) scale(0.1 -0.1)">
       <use xlink:href="#DejaVuSans-31"/>
       <use xlink:href="#DejaVuSans-37" transform="translate(63.623047 0)"/>
       <use xlink:href="#DejaVuSans-2e" transform="translate(127.246094 0)"/>
       <use xlink:href="#DejaVuSans-35" transform="translate(159.033203 0)"/>
      </g>
     </g>
    </g>
    <g id="xtick_9">
     <g id="line2d_9">
      <g>
       <use xlink:href="#m43a7017e2b" x="538.39598" y="190.557969" style="fill: #7f7f7f; stroke: #7f7f7f; stroke-width: 1.8"/>
      </g>
     </g>
     <g id="text_9">
      <!-- 20.0 -->
      <g style="fill: #7f7f7f" transform="translate(527.263168 205.156406) scale(0.1 -0.1)">
       <use xlink:href="#DejaVuSans-32"/>
       <use xlink:href="#DejaVuSans-30" transform="translate(63.623047 0)"/>
       <use xlink:href="#DejaVuSans-2e" transform="translate(127.246094 0)"/>
       <use xlink:href="#DejaVuSans-30" transform="translate(159.033203 0)"/>
      </g>
     </g>
    </g>
   </g>
   <g id="matplotlib.axis_2">
    <g id="ytick_1">
     <g id="line2d_10">
      <defs>
       <path id="meab4c0a2f3" d="M 0 0 
L -3.5 0 
" style="stroke: #7f7f7f; stroke-width: 1.8"/>
      </defs>
      <g>
       <use xlink:href="#meab4c0a2f3" x="51.111563" y="182.910703" style="fill: #7f7f7f; stroke: #7f7f7f; stroke-width: 1.8"/>
      </g>
     </g>
     <g id="text_10">
      <!-- 0.00 -->
      <g style="fill: #7f7f7f" transform="translate(21.845938 186.709922) scale(0.1 -0.1)">
       <use xlink:href="#DejaVuSans-30"/>
       <use xlink:href="#DejaVuSans-2e" transform="translate(63.623047 0)"/>
       <use xlink:href="#DejaVuSans-30" transform="translate(95.410156 0)"/>
       <use xlink:href="#DejaVuSans-30" transform="translate(159.033203 0)"/>
      </g>
     </g>
    </g>
    <g id="ytick_2">
     <g id="line2d_11">
      <g>
       <use xlink:href="#meab4c0a2f3" x="51.111563" y="158.297594" style="fill: #7f7f7f; stroke: #7f7f7f; stroke-width: 1.8"/>
      </g>
     </g>
     <g id="text_11">
      <!-- 0.05 -->
      <g style="fill: #7f7f7f" transform="translate(21.845938 162.096813) scale(0.1 -0.1)">
       <use xlink:href="#DejaVuSans-30"/>
       <use xlink:href="#DejaVuSans-2e" transform="translate(63.623047 0)"/>
       <use xlink:href="#DejaVuSans-30" transform="translate(95.410156 0)"/>
       <use xlink:href="#DejaVuSans-35" transform="translate(159.033203 0)"/>
      </g>
     </g>
    </g>
    <g id="ytick_3">
     <g id="line2d_12">
      <g>
       <use xlink:href="#meab4c0a2f3" x="51.111563" y="133.684485" style="fill: #7f7f7f; stroke: #7f7f7f; stroke-width: 1.8"/>
      </g>
     </g>
     <g id="text_12">
      <!-- 0.10 -->
      <g style="fill: #7f7f7f" transform="translate(21.845938 137.483704) scale(0.1 -0.1)">
       <use xlink:href="#DejaVuSans-30"/>
       <use xlink:href="#DejaVuSans-2e" transform="translate(63.623047 0)"/>
       <use xlink:href="#DejaVuSans-31" transform="translate(95.410156 0)"/>
       <use xlink:href="#DejaVuSans-30" transform="translate(159.033203 0)"/>
      </g>
     </g>
    </g>
    <g id="ytick_4">
     <g id="line2d_13">
      <g>
       <use xlink:href="#meab4c0a2f3" x="51.111563" y="109.071376" style="fill: #7f7f7f; stroke: #7f7f7f; stroke-width: 1.8"/>
      </g>
     </g>
     <g id="text_13">
      <!-- 0.15 -->
      <g style="fill: #7f7f7f" transform="translate(21.845938 112.870595) scale(0.1 -0.1)">
       <use xlink:href="#DejaVuSans-30"/>
       <use xlink:href="#DejaVuSans-2e" transform="translate(63.623047 0)"/>
       <use xlink:href="#DejaVuSans-31" transform="translate(95.410156 0)"/>
       <use xlink:href="#DejaVuSans-35" transform="translate(159.033203 0)"/>
      </g>
     </g>
    </g>
    <g id="ytick_5">
     <g id="line2d_14">
      <g>
       <use xlink:href="#meab4c0a2f3" x="51.111563" y="84.458267" style="fill: #7f7f7f; stroke: #7f7f7f; stroke-width: 1.8"/>
      </g>
     </g>
     <g id="text_14">
      <!-- 0.20 -->
      <g style="fill: #7f7f7f" transform="translate(21.845938 88.257486) scale(0.1 -0.1)">
       <use xlink:href="#DejaVuSans-30"/>
       <use xlink:href="#DejaVuSans-2e" transform="translate(63.623047 0)"/>
       <use xlink:href="#DejaVuSans-32" transform="translate(95.410156 0)"/>
       <use xlink:href="#DejaVuSans-30" transform="translate(159.033203 0)"/>
      </g>
     </g>
    </g>
    <g id="ytick_6">
     <g id="line2d_15">
      <g>
       <use xlink:href="#meab4c0a2f3" x="51.111563" y="59.845158" style="fill: #7f7f7f; stroke: #7f7f7f; stroke-width: 1.8"/>
      </g>
     </g>
     <g id="text_15">
      <!-- 0.25 -->
      <g style="fill: #7f7f7f" transform="translate(21.845938 63.644377) scale(0.1 -0.1)">
       <use xlink:href="#DejaVuSans-30"/>
       <use xlink:href="#DejaVuSans-2e" transform="translate(63.623047 0)"/>
       <use xlink:href="#DejaVuSans-32" transform="translate(95.410156 0)"/>
       <use xlink:href="#DejaVuSans-35" transform="translate(159.033203 0)"/>
      </g>
     </g>
    </g>
    <g id="ytick_7">
     <g id="line2d_16">
      <g>
       <use xlink:href="#meab4c0a2f3" x="51.111563" y="35.232049" style="fill: #7f7f7f; stroke: #7f7f7f; stroke-width: 1.8"/>
      </g>
     </g>
     <g id="text_16">
      <!-- 0.30 -->
      <g style="fill: #7f7f7f" transform="translate(21.845938 39.031268) scale(0.1 -0.1)">
       <defs>
        <path id="DejaVuSans-33" d="M 2597 2516 
Q 3050 2419 3304 2112 
Q 3559 1806 3559 1356 
Q 3559 666 3084 287 
Q 2609 -91 1734 -91 
Q 1441 -91 1130 -33 
Q 819 25 488 141 
L 488 750 
Q 750 597 1062 519 
Q 1375 441 1716 441 
Q 2309 441 2620 675 
Q 2931 909 2931 1356 
Q 2931 1769 2642 2001 
Q 2353 2234 1838 2234 
L 1294 2234 
L 1294 2753 
L 1863 2753 
Q 2328 2753 2575 2939 
Q 2822 3125 2822 3475 
Q 2822 3834 2567 4026 
Q 2313 4219 1838 4219 
Q 1578 4219 1281 4162 
Q 984 4106 628 3988 
L 628 4550 
Q 988 4650 1302 4700 
Q 1616 4750 1894 4750 
Q 2613 4750 3031 4423 
Q 3450 4097 3450 3541 
Q 3450 3153 3228 2886 
Q 3006 2619 2597 2516 
z
" transform="scale(0.015625)"/>
       </defs>
       <use xlink:href="#DejaVuSans-30"/>
       <use xlink:href="#DejaVuSans-2e" transform="translate(63.623047 0)"/>
       <use xlink:href="#DejaVuSans-33" transform="translate(95.410156 0)"/>
       <use xlink:href="#DejaVuSans-30" transform="translate(159.033203 0)"/>
      </g>
     </g>
    </g>
    <g id="text_17">
     <!-- Position Error [m] -->
     <g style="fill: #7f7f7f" transform="translate(15.558281 154.397187) rotate(-90) scale(0.11 -0.11)">
      <defs>
       <path id="DejaVuSans-50" d="M 1259 4147 
L 1259 2394 
L 2053 2394 
Q 2494 2394 2734 2622 
Q 2975 2850 2975 3272 
Q 2975 3691 2734 3919 
Q 2494 4147 2053 4147 
L 1259 4147 
z
M 628 4666 
L 2053 4666 
Q 2838 4666 3239 4311 
Q 3641 3956 3641 3272 
Q 3641 2581 3239 2228 
Q 2838 1875 2053 1875 
L 1259 1875 
L 1259 0 
L 628 0 
L 628 4666 
z
" transform="scale(0.015625)"/>
       <path id="DejaVuSans-6f" d="M 1959 3097 
Q 1497 3097 1228 2736 
Q 959 2375 959 1747 
Q 959 1119 1226 758 
Q 1494 397 1959 397 
Q 2419 397 2687 759 
Q 2956 1122 2956 1747 
Q 2956 2369 2687 2733 
Q 2419 3097 1959 3097 
z
M 1959 3584 
Q 2709 3584 3137 3096 
Q 3566 2609 3566 1747 
Q 3566 888 3137 398 
Q 2709 -91 1959 -91 
Q 1206 -91 779 398 
Q 353 888 353 1747 
Q 353 2609 779 3096 
Q 1206 3584 1959 3584 
z
" transform="scale(0.015625)"/>
       <path id="DejaVuSans-73" d="M 2834 3397 
L 2834 2853 
Q 2591 2978 2328 3040 
Q 2066 3103 1784 3103 
Q 1356 3103 1142 2972 
Q 928 2841 928 2578 
Q 928 2378 1081 2264 
Q 1234 2150 1697 2047 
L 1894 2003 
Q 2506 1872 2764 1633 
Q 3022 1394 3022 966 
Q 3022 478 2636 193 
Q 2250 -91 1575 -91 
Q 1294 -91 989 -36 
Q 684 19 347 128 
L 347 722 
Q 666 556 975 473 
Q 1284 391 1588 391 
Q 1994 391 2212 530 
Q 2431 669 2431 922 
Q 2431 1156 2273 1281 
Q 2116 1406 1581 1522 
L 1381 1569 
Q 847 1681 609 1914 
Q 372 2147 372 2553 
Q 372 3047 722 3315 
Q 1072 3584 1716 3584 
Q 2034 3584 2315 3537 
Q 2597 3491 2834 3397 
z
" transform="scale(0.015625)"/>
       <path id="DejaVuSans-69" d="M 603 3500 
L 1178 3500 
L 1178 0 
L 603 0 
L 603 3500 
z
M 603 4863 
L 1178 4863 
L 1178 4134 
L 603 4134 
L 603 4863 
z
" transform="scale(0.015625)"/>
       <path id="DejaVuSans-74" d="M 1172 4494 
L 1172 3500 
L 2356 3500 
L 2356 3053 
L 1172 3053 
L 1172 1153 
Q 1172 725 1289 603 
Q 1406 481 1766 481 
L 2356 481 
L 2356 0 
L 1766 0 
Q 1100 0 847 248 
Q 594 497 594 1153 
L 594 3053 
L 172 3053 
L 172 3500 
L 594 3500 
L 594 4494 
L 1172 4494 
z
" transform="scale(0.015625)"/>
       <path id="DejaVuSans-6e" d="M 3513 2113 
L 3513 0 
L 2938 0 
L 2938 2094 
Q 2938 2591 2744 2837 
Q 2550 3084 2163 3084 
Q 1697 3084 1428 2787 
Q 1159 2491 1159 1978 
L 1159 0 
L 581 0 
L 581 3500 
L 1159 3500 
L 1159 2956 
Q 1366 3272 1645 3428 
Q 1925 3584 2291 3584 
Q 2894 3584 3203 3211 
Q 3513 2838 3513 2113 
z
" transform="scale(0.015625)"/>
       <path id="DejaVuSans-20" transform="scale(0.015625)"/>
       <path id="DejaVuSans-45" d="M 628 4666 
L 3578 4666 
L 3578 4134 
L 1259 4134 
L 1259 2753 
L 3481 2753 
L 3481 2222 
L 1259 2222 
L 1259 531 
L 3634 531 
L 3634 0 
L 628 0 
L 628 4666 
z
" transform="scale(0.015625)"/>
       <path id="DejaVuSans-72" d="M 2631 2963 
Q 2534 3019 2420 3045 
Q 2306 3072 2169 3072 
Q 1681 3072 1420 2755 
Q 1159 2438 1159 1844 
L 1159 0 
L 581 0 
L 581 3500 
L 1159 3500 
L 1159 2956 
Q 1341 3275 1631 3429 
Q 1922 3584 2338 3584 
Q 2397 3584 2469 3576 
Q 2541 3569 2628 3553 
L 2631 2963 
z
" transform="scale(0.015625)"/>
       <path id="DejaVuSans-5b" d="M 550 4863 
L 1875 4863 
L 1875 4416 
L 1125 4416 
L 1125 -397 
L 1875 -397 
L 1875 -844 
L 550 -844 
L 550 4863 
z
" transform="scale(0.015625)"/>
       <path id="DejaVuSans-6d" d="M 3328 2828 
Q 3544 3216 3844 3400 
Q 4144 3584 4550 3584 
Q 5097 3584 5394 3201 
Q 5691 2819 5691 2113 
L 5691 0 
L 5113 0 
L 5113 2094 
Q 5113 2597 4934 2840 
Q 4756 3084 4391 3084 
Q 3944 3084 3684 2787 
Q 3425 2491 3425 1978 
L 3425 0 
L 2847 0 
L 2847 2094 
Q 2847 2600 2669 2842 
Q 2491 3084 2119 3084 
Q 1678 3084 1418 2786 
Q 1159 2488 1159 1978 
L 1159 0 
L 581 0 
L 581 3500 
L 1159 3500 
L 1159 2956 
Q 1356 3278 1631 3431 
Q 1906 3584 2284 3584 
Q 2666 3584 2933 3390 
Q 3200 3197 3328 2828 
z
" transform="scale(0.015625)"/>
       <path id="DejaVuSans-5d" d="M 1947 4863 
L 1947 -844 
L 622 -844 
L 622 -397 
L 1369 -397 
L 1369 4416 
L 622 4416 
L 622 4863 
L 1947 4863 
z
" transform="scale(0.015625)"/>
      </defs>
      <use xlink:href="#DejaVuSans-50"/>
      <use xlink:href="#DejaVuSans-6f" transform="translate(56.677734 0)"/>
      <use xlink:href="#DejaVuSans-73" transform="translate(117.859375 0)"/>
      <use xlink:href="#DejaVuSans-69" transform="translate(169.958984 0)"/>
      <use xlink:href="#DejaVuSans-74" transform="translate(197.742188 0)"/>
      <use xlink:href="#DejaVuSans-69" transform="translate(236.951172 0)"/>
      <use xlink:href="#DejaVuSans-6f" transform="translate(264.734375 0)"/>
      <use xlink:href="#DejaVuSans-6e" transform="translate(325.916016 0)"/>
      <use xlink:href="#DejaVuSans-20" transform="translate(389.294922 0)"/>
      <use xlink:href="#DejaVuSans-45" transform="translate(421.082031 0)"/>
      <use xlink:href="#DejaVuSans-72" transform="translate(484.265625 0)"/>
      <use xlink:href="#DejaVuSans-72" transform="translate(523.628906 0)"/>
      <use xlink:href="#DejaVuSans-6f" transform="translate(562.492188 0)"/>
      <use xlink:href="#DejaVuSans-72" transform="translate(623.673828 0)"/>
      <use xlink:href="#DejaVuSans-20" transform="translate(664.787109 0)"/>
      <use xlink:href="#DejaVuSans-5b" transform="translate(696.574219 0)"/>
      <use xlink:href="#DejaVuSans-6d" transform="translate(735.587891 0)"/>
      <use xlink:href="#DejaVuSans-5d" transform="translate(833 0)"/>
     </g>
    </g>
   </g>
   <g id="line2d_17">
    <path d="M 74.315582 182.910703 
L 75.475783 119.614963 
L 75.707824 179.520653 
L 76.171904 51.307767 
L 76.635984 87.073464 
L 77.332105 80.619507 
L 77.796185 29.965391 
L 78.260266 68.368994 
L 78.492306 69.467274 
L 78.956386 97.324235 
L 79.188427 71.484503 
L 79.420467 44.270044 
L 80.116587 62.502905 
L 82.436989 173.912953 
L 82.66903 173.323158 
L 82.90107 169.938493 
L 83.59719 105.432003 
L 84.061271 141.756403 
L 84.293311 168.804346 
L 84.757391 133.397517 
L 84.989432 131.884049 
L 86.149633 174.102678 
L 86.381673 174.04446 
L 86.613713 177.550614 
L 87.077793 172.892646 
L 87.309834 175.617461 
L 87.541874 158.051479 
L 87.773914 181.878724 
L 88.470035 163.459586 
L 88.702075 172.7662 
L 88.934115 150.297594 
L 89.166155 141.175411 
L 89.398195 163.74827 
L 89.862276 179.719642 
L 91.254517 124.004928 
L 91.486557 125.173134 
L 91.718597 132.615815 
L 91.950637 125.785105 
L 92.414718 81.887862 
L 93.110838 99.69857 
L 93.342879 100.750425 
L 94.73512 165.028553 
L 94.96716 155.222658 
L 95.1992 158.952274 
L 95.43124 153.131965 
L 97.055522 96.674459 
L 97.751642 142.239153 
L 98.215723 133.321509 
L 98.447763 125.336876 
L 98.679803 145.898251 
L 100.536125 180.166293 
L 102.160406 93.532966 
L 102.624487 95.510397 
L 102.856527 108.773473 
L 103.320607 102.418532 
L 104.480808 58.172917 
L 104.944889 62.521237 
L 105.176929 62.402671 
L 105.641009 98.654903 
L 106.10509 86.671078 
L 106.80121 77.448714 
L 107.03325 77.857414 
L 107.961411 123.354974 
L 108.193451 120.320034 
L 109.121612 106.7677 
L 108.889572 120.553436 
L 109.353652 110.677481 
L 110.049773 127.466502 
L 110.745894 118.706541 
L 110.977934 107.423125 
L 111.442014 120.163713 
L 111.906095 135.33184 
L 112.834255 127.164993 
L 113.066296 120.995621 
L 113.298336 145.756973 
L 113.762416 118.651266 
L 115.154657 82.471164 
L 115.386698 87.249445 
L 116.778939 139.649966 
L 117.475059 130.414403 
L 118.40322 164.155651 
L 118.867301 182.048152 
L 119.331381 177.884471 
L 120.027502 140.809822 
L 120.723622 144.055786 
L 121.419743 156.858734 
L 122.347904 131.120017 
L 122.579944 143.614972 
L 122.811984 135.370814 
L 123.044024 146.780422 
L 123.276064 140.327549 
L 123.740145 158.743615 
L 123.972185 138.204042 
L 126.292587 95.831439 
L 127.684828 145.285178 
L 127.916868 140.253833 
L 128.148909 129.96978 
L 128.845029 131.046441 
L 130.23727 181.213864 
L 131.165431 151.913326 
L 131.397471 159.539646 
L 132.325632 144.141166 
L 132.557672 149.555723 
L 133.021753 154.470781 
L 133.485833 182.674048 
L 134.181954 179.931344 
L 134.646034 157.579898 
L 135.342155 158.598467 
L 136.270315 171.640334 
L 136.502356 170.154897 
L 136.734396 162.650141 
L 137.198476 179.480902 
L 137.430516 178.699591 
L 137.662557 182.169211 
L 138.126637 175.093751 
L 139.286838 156.652782 
L 139.518878 162.066686 
L 139.982959 180.860425 
L 140.447039 161.735798 
L 140.911119 139.472609 
L 141.3752 142.584089 
L 141.60724 151.73478 
L 141.83928 140.74164 
L 142.07132 149.298318 
L 142.767441 110.049748 
L 143.695602 114.00077 
L 144.391722 119.00482 
L 144.855803 114.864183 
L 145.551923 153.59773 
L 146.016004 176.016128 
L 146.712124 169.948969 
L 146.944165 169.940753 
L 147.640285 174.165161 
L 148.336406 157.407502 
L 148.568446 159.777012 
L 149.728647 132.338386 
L 150.424768 138.603206 
L 152.049049 104.350162 
L 154.137411 171.035404 
L 154.369451 171.792123 
L 154.601491 169.878157 
L 154.833531 169.284119 
L 155.065572 179.463315 
L 155.297612 166.404196 
L 155.761692 177.359085 
L 156.225773 173.097324 
L 156.457813 182.838191 
L 157.153933 179.809937 
L 157.850054 173.549147 
L 159.010255 128.368561 
L 159.242295 128.822771 
L 160.402496 99.207083 
L 161.330657 87.466952 
L 160.866577 99.978943 
L 161.562697 90.015893 
L 162.722898 132.450503 
L 162.954938 126.304568 
L 164.115139 143.903929 
L 163.419019 121.503091 
L 164.34718 142.330962 
L 164.57922 136.966143 
L 165.27534 158.773245 
L 165.507381 154.246995 
L 167.595742 98.756842 
L 168.987984 77.863052 
L 169.220024 83.81964 
L 169.684104 70.9585 
L 169.916144 65.696322 
L 170.612265 66.94425 
L 170.844305 75.225003 
L 171.308386 59.527083 
L 171.540426 59.297299 
L 171.772466 73.15317 
L 172.236546 48.085513 
L 174.788988 90.907948 
L 175.021029 91.694706 
L 175.253069 90.836962 
L 176.87735 65.719309 
L 177.10939 81.349894 
L 177.805511 72.092736 
L 178.269591 45.477614 
L 178.733672 59.438715 
L 180.125913 107.394973 
L 180.357953 86.602159 
L 180.589993 86.121865 
L 181.054074 62.166285 
L 181.750194 71.216734 
L 182.910395 111.020891 
L 183.606516 97.54707 
L 184.070596 105.227433 
L 184.302637 106.064274 
L 185.462838 63.020141 
L 185.926918 63.71962 
L 186.390998 83.353754 
L 186.855079 68.981653 
L 187.087119 65.612004 
L 188.943441 121.26362 
L 189.175481 122.980455 
L 189.407521 122.704709 
L 190.335682 154.812969 
L 190.567722 136.707967 
L 191.495883 140.877436 
L 192.192003 118.256363 
L 192.424044 136.515804 
L 192.888124 150.471386 
L 193.352204 168.165814 
L 193.584245 143.651677 
L 193.816285 150.40675 
L 194.976486 125.561391 
L 195.208526 126.308534 
L 195.904647 141.614315 
L 196.368727 136.458815 
L 196.832807 136.193666 
L 198.689129 181.729666 
L 198.921169 175.050144 
L 199.153209 174.227821 
L 199.84933 151.336181 
L 200.08137 164.515191 
L 200.777491 182.754702 
L 201.241571 182.214394 
L 203.561973 128.1284 
L 203.794013 142.256522 
L 205.186255 181.370172 
L 206.114415 155.027036 
L 206.346456 166.785736 
L 207.042576 152.730189 
L 208.202777 123.56043 
L 208.434817 127.510661 
L 208.666858 122.232155 
L 209.130938 107.266596 
L 209.362978 115.275061 
L 210.291139 154.02834 
L 210.755219 152.568912 
L 211.68338 114.747725 
L 211.91542 119.378866 
L 212.147461 132.955179 
L 212.611541 121.836272 
L 214.003782 85.023798 
L 214.235822 85.228641 
L 214.699903 99.000435 
L 215.163983 86.606424 
L 215.860104 63.851644 
L 216.092144 88.905765 
L 217.020305 104.329801 
L 217.252345 101.187565 
L 218.180506 80.241579 
L 218.412546 80.642972 
L 220.268867 130.401862 
L 220.732948 118.482478 
L 220.964988 99.793128 
L 221.661109 119.07551 
L 221.893149 128.656757 
L 222.357229 111.019196 
L 222.589269 94.412142 
L 223.28539 111.709509 
L 225.141712 147.317017 
L 225.373752 138.284012 
L 225.837832 151.442697 
L 226.301913 153.432591 
L 226.998033 175.133439 
L 227.230073 174.522336 
L 227.694154 153.70733 
L 228.158234 178.088005 
L 228.854355 167.953363 
L 229.318435 168.248271 
L 230.478636 182.590411 
L 230.710676 165.756489 
L 231.406797 181.159501 
L 232.566998 156.272346 
L 232.799038 164.09133 
L 233.031078 175.044671 
L 233.495159 157.109405 
L 233.959239 156.681614 
L 234.191279 170.21712 
L 234.65536 179.347249 
L 235.35148 179.222038 
L 235.815561 164.724695 
L 236.279641 167.47632 
L 237.439842 181.89543 
L 237.671882 167.567305 
L 238.368003 179.583856 
L 238.600043 177.565194 
L 239.528204 150.321778 
L 239.760244 152.630445 
L 240.456365 165.791221 
L 241.384526 164.430067 
L 242.544727 137.925082 
L 242.776767 146.502367 
L 243.240847 127.255867 
L 243.472887 126.504363 
L 244.865129 151.619136 
L 245.097169 156.699198 
L 245.793289 156.634983 
L 246.25737 148.209453 
L 247.185531 171.841897 
L 247.417571 163.943741 
L 248.113691 134.055653 
L 248.577772 143.598797 
L 248.809812 141.972335 
L 249.041852 144.658002 
L 250.434093 175.685881 
L 252.058375 127.717305 
L 252.290415 138.366106 
L 253.450616 169.180489 
L 254.610817 112.532087 
L 254.842857 124.789674 
L 255.074897 124.624274 
L 256.699179 151.95551 
L 256.931219 150.085809 
L 257.395299 163.158223 
L 257.85938 152.181757 
L 258.32346 157.36936 
L 258.78754 176.833516 
L 259.251621 166.826406 
L 259.947741 157.141667 
L 260.179782 169.848327 
L 260.875902 161.40734 
L 262.500184 124.34227 
L 262.732224 123.012977 
L 263.660385 157.295197 
L 263.892425 153.325608 
L 264.356505 125.756503 
L 265.052626 131.026815 
L 265.980787 143.194506 
L 266.212827 124.893647 
L 266.908947 136.275199 
L 268.069148 161.207718 
L 269.229349 140.488445 
L 269.69343 152.362818 
L 270.38955 175.79298 
L 270.621591 161.679976 
L 271.317711 166.291674 
L 271.781792 146.700795 
L 272.013832 146.597673 
L 273.174033 125.516801 
L 273.406073 127.015778 
L 273.638113 116.324705 
L 274.334234 120.180888 
L 275.030354 144.406464 
L 275.262395 142.663703 
L 276.190555 113.595004 
L 276.654636 117.303639 
L 276.886676 129.325242 
L 277.350756 116.015299 
L 277.814837 99.66609 
L 278.278917 116.274761 
L 278.510957 108.352096 
L 279.439118 139.460426 
L 279.671158 136.985325 
L 279.903199 138.182123 
L 280.135239 127.785581 
L 280.831359 140.731391 
L 281.0634 132.968091 
L 281.52748 142.162925 
L 281.75952 144.487215 
L 281.99156 140.886759 
L 282.223601 141.302783 
L 282.687681 132.888629 
L 282.919721 143.340291 
L 283.615842 136.345115 
L 283.847882 138.18143 
L 284.544003 115.460566 
L 285.008083 116.352189 
L 285.472163 120.375136 
L 286.864405 142.514165 
L 287.328485 138.695914 
L 287.792565 122.865075 
L 288.024606 139.96708 
L 288.256646 139.88538 
L 288.720726 158.608957 
L 289.416847 153.443399 
L 289.648887 153.299806 
L 291.041128 182.508634 
L 291.273168 180.825747 
L 292.66541 139.681731 
L 293.36153 142.178123 
L 294.057651 147.787653 
L 295.217852 181.922908 
L 295.681932 170.906428 
L 295.913972 164.22486 
L 296.610093 167.541799 
L 297.074173 178.970159 
L 297.306213 167.15268 
L 297.538254 175.451561 
L 298.466414 114.337399 
L 298.930495 134.959689 
L 299.162535 130.489272 
L 299.394575 133.186515 
L 300.090696 148.399429 
L 300.322736 134.69673 
L 302.179058 86.425401 
L 300.786816 136.148733 
L 302.411098 99.387349 
L 302.643138 97.456922 
L 304.267419 137.394493 
L 304.49946 137.464823 
L 307.515982 83.824667 
L 307.980063 80.638411 
L 308.676183 98.43118 
L 309.372304 132.550735 
L 309.604344 111.613959 
L 309.836384 109.973595 
L 310.068424 122.157011 
L 310.532505 107.96748 
L 310.764545 115.5676 
L 310.996585 115.487201 
L 312.156786 144.010695 
L 312.620867 139.711789 
L 313.781068 114.345053 
L 314.477188 129.726397 
L 314.709228 119.318015 
L 315.173309 109.541126 
L 315.405349 112.601266 
L 316.33351 127.040863 
L 316.56555 116.842292 
L 317.261671 124.813412 
L 317.493711 141.368597 
L 318.189831 125.204876 
L 318.421872 126.767357 
L 319.350032 149.554045 
L 319.582073 142.63612 
L 320.046153 168.427471 
L 320.510233 153.72675 
L 320.742274 153.654076 
L 321.438394 162.124372 
L 321.670434 157.467793 
L 322.598595 146.656611 
L 322.830635 150.869953 
L 323.990836 163.193767 
L 324.222877 146.37013 
L 324.918997 164.473431 
L 325.383078 155.433543 
L 325.615118 166.265392 
L 325.847158 181.362185 
L 326.079198 157.74996 
L 326.543279 129.560305 
L 327.239399 136.002738 
L 328.16756 103.642942 
L 328.63164 104.140507 
L 328.863681 119.63193 
L 329.327761 102.770173 
L 329.559801 111.481722 
L 330.023882 107.225928 
L 330.255922 114.738199 
L 330.720002 100.238367 
L 330.952042 100.684035 
L 332.344284 131.771879 
L 332.576324 137.035981 
L 333.040404 133.098371 
L 333.736525 106.435646 
L 334.432645 117.554424 
L 335.824887 152.281401 
L 336.753047 139.037599 
L 336.985087 145.308185 
L 337.681208 160.073692 
L 338.145288 170.37294 
L 338.377329 154.811026 
L 338.609369 165.140893 
L 338.841409 159.202688 
L 339.073449 179.904647 
L 339.76957 159.520885 
L 340.23365 157.166924 
L 340.46569 169.388677 
L 340.929771 148.96452 
L 341.393851 152.60658 
L 341.625891 151.903781 
L 342.554052 173.3884 
L 342.786092 143.092374 
L 343.714253 146.905547 
L 345.570575 180.34942 
L 344.642414 145.864004 
L 346.034655 170.524032 
L 347.194856 131.992676 
L 348.587097 159.557601 
L 349.515258 138.441157 
L 349.051178 159.828145 
L 349.747298 148.060097 
L 350.211379 154.682949 
L 350.443419 160.27562 
L 350.907499 150.493182 
L 352.531781 100.593055 
L 353.227901 105.215238 
L 353.691982 97.003504 
L 354.852183 120.0653 
L 356.244424 83.763637 
L 357.868705 131.72878 
L 358.100746 129.479526 
L 358.332786 136.449872 
L 358.564826 131.014673 
L 359.492987 143.016381 
L 359.725027 137.595621 
L 359.957067 126.260266 
L 360.421148 146.506214 
L 360.653188 138.269564 
L 361.349308 153.392456 
L 361.813389 175.31128 
L 362.277469 169.231361 
L 362.74155 144.776845 
L 363.20563 156.828744 
L 363.901751 176.34837 
L 364.133791 169.552529 
L 364.365831 160.869327 
L 364.829911 180.315249 
L 365.293992 174.071561 
L 366.222153 150.945679 
L 366.454193 154.676782 
L 367.846434 180.748411 
L 369.006635 163.862999 
L 369.238675 168.769029 
L 369.470715 155.704335 
L 370.862957 128.900809 
L 371.094997 152.714942 
L 371.791117 132.702168 
L 372.719278 151.512379 
L 373.415399 146.831687 
L 375.03968 117.406663 
L 375.503761 128.044071 
L 375.967841 123.983132 
L 377.128042 97.571286 
L 376.663962 125.622287 
L 377.360082 115.07638 
L 378.752323 147.989021 
L 379.680484 111.274765 
L 380.376605 122.649766 
L 381.304765 145.707243 
L 381.536806 142.387207 
L 382.000886 139.347156 
L 383.393127 178.920937 
L 383.625167 173.621704 
L 384.089248 163.707441 
L 384.321288 181.071415 
L 384.553328 182.531653 
L 385.017409 162.371783 
L 385.713529 168.393044 
L 385.945569 176.076127 
L 386.40965 159.733871 
L 387.569851 181.557806 
L 387.801891 178.762212 
L 389.194132 158.100721 
L 389.426172 157.59513 
L 390.586373 180.706466 
L 391.514534 144.1747 
L 391.978615 155.739891 
L 393.138816 127.366083 
L 394.066976 132.90546 
L 395.691258 177.847373 
L 395.923298 177.330609 
L 396.387378 166.587017 
L 396.619419 182.236746 
L 396.851459 175.598801 
L 397.083499 180.284953 
L 397.315539 177.092496 
L 398.47574 102.96976 
L 398.70778 113.067438 
L 398.939821 110.8223 
L 399.867981 151.713927 
L 400.332062 143.290136 
L 400.564102 140.883289 
L 401.260223 115.871893 
L 401.492263 128.881912 
L 402.420424 141.958155 
L 403.348584 162.249171 
L 403.580625 160.099216 
L 404.508785 180.727261 
L 404.972866 176.544411 
L 407.525308 116.979847 
L 407.757348 123.542642 
L 408.917549 106.832133 
L 409.61367 107.775338 
L 409.84571 118.22401 
L 410.773871 117.539337 
L 411.237951 107.466532 
L 411.469991 121.478431 
L 411.702032 114.102052 
L 412.166112 109.515803 
L 414.022434 182.772116 
L 414.950594 165.893779 
L 415.182635 179.67012 
L 415.414675 153.221906 
L 416.342836 107.054272 
L 417.038956 107.169981 
L 417.270996 110.984504 
L 418.431197 78.081137 
L 418.895278 110.175698 
L 419.591398 98.449005 
L 420.751599 108.310768 
L 420.055479 97.627725 
L 420.983639 107.451601 
L 421.21568 88.214857 
L 421.9118 104.135389 
L 422.14384 102.114945 
L 423.304041 129.898344 
L 424.464242 112.87504 
L 424.928323 121.890173 
L 425.392403 114.904389 
L 425.624443 104.629219 
L 426.552604 105.249061 
L 426.784644 100.797258 
L 427.480765 154.251197 
L 427.944845 125.248745 
L 428.640966 133.579851 
L 428.873006 133.180575 
L 429.337087 109.783256 
L 429.801167 127.467216 
L 430.033207 130.297949 
L 430.265247 124.676952 
L 431.657489 90.671027 
L 432.121569 75.9331 
L 432.353609 87.615934 
L 433.977891 127.490969 
L 434.209931 126.003515 
L 434.441971 142.602697 
L 435.370132 141.506405 
L 435.602172 138.492458 
L 435.834212 146.357549 
L 436.066252 141.621258 
L 436.530333 161.944563 
L 437.226453 156.433356 
L 438.618695 134.421515 
L 438.850735 133.294778 
L 439.082775 119.541634 
L 439.546855 135.043674 
L 440.010936 123.665771 
L 440.707056 114.055194 
L 440.939097 118.809049 
L 441.171137 120.008658 
L 442.563378 153.800509 
L 442.795418 134.888611 
L 443.259499 155.827191 
L 443.723579 182.326355 
L 444.187659 158.90295 
L 445.34786 181.132606 
L 445.811941 179.542088 
L 446.276021 181.592739 
L 446.508061 179.339623 
L 447.900303 161.068974 
L 448.132343 159.133382 
L 448.828463 179.278582 
L 449.292544 171.817129 
L 449.756624 167.705019 
L 450.452745 182.412623 
L 450.684785 173.652587 
L 451.380906 181.399099 
L 452.309066 174.563043 
L 454.165388 99.539196 
L 456.02171 148.206973 
L 456.25375 148.639235 
L 456.48579 147.952095 
L 457.181911 133.358649 
L 457.413951 133.429812 
L 458.342112 148.966614 
L 459.270272 138.289995 
L 460.662513 181.406903 
L 460.894554 169.984476 
L 461.126594 169.42185 
L 461.590674 182.340727 
L 462.518835 179.25357 
L 462.750875 173.436859 
L 462.982915 180.754358 
L 463.446996 175.156167 
L 463.679036 179.718355 
L 464.375157 152.084357 
L 464.839237 165.30546 
L 465.767398 139.947248 
L 466.463518 141.690188 
L 466.695559 149.86613 
L 466.927599 130.740013 
L 467.159639 138.559952 
L 467.391679 134.869223 
L 467.623719 158.859232 
L 468.55188 157.835428 
L 469.712081 130.32975 
L 470.408202 136.550465 
L 472.032483 165.293945 
L 472.264523 156.697747 
L 472.496564 167.942766 
L 472.960644 165.432327 
L 473.424724 167.403119 
L 474.352885 154.70986 
L 475.049006 164.530676 
L 475.281046 156.340073 
L 475.745126 153.52822 
L 475.977167 161.327397 
L 476.441247 157.31318 
L 476.673287 130.700454 
L 477.369408 140.917947 
L 477.601448 148.361989 
L 478.297569 139.998066 
L 478.529609 136.967243 
L 480.15389 169.185818 
L 481.546131 136.892963 
L 481.778172 141.927099 
L 482.010212 132.246175 
L 482.242252 130.233543 
L 482.938373 163.568476 
L 483.402453 155.504372 
L 484.330614 133.260346 
L 484.562654 143.990547 
L 484.794694 158.090437 
L 485.490815 141.839276 
L 486.186935 137.801503 
L 487.115096 171.338305 
L 487.811217 163.83371 
L 488.043257 173.42808 
L 488.275297 182.837503 
L 488.507337 167.987302 
L 488.971418 180.922368 
L 490.131619 155.535419 
L 491.05978 181.765305 
L 491.29182 174.292919 
L 491.52386 176.845741 
L 491.7559 176.549747 
L 491.98794 165.157581 
L 492.452021 180.49736 
L 492.684061 174.034613 
L 493.148141 179.518627 
L 493.380182 177.98669 
L 495.004463 107.464729 
L 495.236503 111.97795 
L 495.932624 112.868213 
L 496.396704 102.401505 
L 497.556905 121.519722 
L 497.788945 118.298586 
L 498.717106 95.458861 
L 498.949146 96.666213 
L 500.109347 51.464336 
L 500.341387 59.205888 
L 501.037508 94.423258 
L 501.501588 88.565729 
L 501.733629 93.218454 
L 501.965669 90.843931 
L 502.89383 63.79961 
L 503.12587 72.821267 
L 504.750151 112.473748 
L 505.446272 101.691509 
L 505.678312 111.348173 
L 505.910352 109.807752 
L 506.374433 78.485425 
L 507.070553 83.030883 
L 508.230754 117.489907 
L 508.462794 97.471474 
L 509.158915 122.644626 
L 509.390955 126.390823 
L 509.622995 149.339498 
L 510.087076 121.285914 
L 510.551156 146.45067 
L 510.783196 144.106777 
L 512.175438 176.092281 
L 512.407478 163.785215 
L 512.871558 182.269084 
L 513.335639 174.850295 
L 515.888081 138.056336 
L 516.816242 162.569791 
L 518.440523 114.090402 
L 518.672563 112.324535 
L 518.904603 117.289925 
L 519.136644 118.840827 
L 519.368684 107.209925 
L 519.600724 123.753605 
L 520.064804 116.460552 
L 521.689086 146.811965 
L 522.385206 121.5562 
L 522.849287 135.640664 
L 523.081327 143.682918 
L 523.545407 131.233507 
L 524.009488 142.731195 
L 525.865809 80.810206 
L 526.09785 90.207498 
L 526.56193 99.578192 
L 526.79397 87.599266 
L 527.490091 101.368801 
L 527.954171 105.905208 
L 529.346412 128.084257 
L 529.578453 124.419027 
L 530.042533 132.468431 
L 530.274573 132.209473 
L 530.970694 112.862434 
L 531.202734 122.713067 
L 531.666814 135.953023 
L 532.362935 134.103555 
L 533.291096 126.626969 
L 533.523136 123.072335 
L 534.683337 160.019373 
L 535.147417 155.628275 
L 535.611498 174.927458 
L 535.843538 158.066574 
L 536.075578 141.825693 
L 536.539659 168.240927 
L 536.771699 159.911219 
L 537.003739 159.695851 
L 537.235779 148.215216 
L 537.69986 160.40183 
L 538.16394 170.142905 
L 538.39598 155.255558 
L 538.39598 155.255558 
" clip-path="url(#p3924cb5d7e)" style="fill: none; stroke: #e41a1c; stroke-width: 2; stroke-linecap: square"/>
   </g>
   <g id="patch_3">
    <path d="M 51.111563 190.557969 
L 51.111563 22.318125 
" style="fill: none; stroke: #7f7f7f; stroke-width: 1.8; stroke-linejoin: miter; stroke-linecap: square"/>
   </g>
   <g id="patch_4">
    <path d="M 51.111563 190.557969 
L 561.6 190.557969 
" style="fill: none; stroke: #7f7f7f; stroke-width: 1.8; stroke-linejoin: miter; stroke-linecap: square"/>
   </g>
   <g id="text_18">
    <!-- Kalman Filter Estimation Error -->
    <g style="fill: #7f7f7f" transform="translate(203.342344 16.318125) scale(0.12 -0.12)">
     <defs>
      <path id="DejaVuSans-Bold-4b" d="M 588 4666 
L 1791 4666 
L 1791 2963 
L 3525 4666 
L 4922 4666 
L 2675 2456 
L 5153 0 
L 3647 0 
L 1791 1838 
L 1791 0 
L 588 0 
L 588 4666 
z
" transform="scale(0.015625)"/>
      <path id="DejaVuSans-Bold-61" d="M 2106 1575 
Q 1756 1575 1579 1456 
Q 1403 1338 1403 1106 
Q 1403 894 1545 773 
Q 1688 653 1941 653 
Q 2256 653 2472 879 
Q 2688 1106 2688 1447 
L 2688 1575 
L 2106 1575 
z
M 3816 1997 
L 3816 0 
L 2688 0 
L 2688 519 
Q 2463 200 2181 54 
Q 1900 -91 1497 -91 
Q 953 -91 614 226 
Q 275 544 275 1050 
Q 275 1666 698 1953 
Q 1122 2241 2028 2241 
L 2688 2241 
L 2688 2328 
Q 2688 2594 2478 2717 
Q 2269 2841 1825 2841 
Q 1466 2841 1156 2769 
Q 847 2697 581 2553 
L 581 3406 
Q 941 3494 1303 3539 
Q 1666 3584 2028 3584 
Q 2975 3584 3395 3211 
Q 3816 2838 3816 1997 
z
" transform="scale(0.015625)"/>
      <path id="DejaVuSans-Bold-6c" d="M 538 4863 
L 1656 4863 
L 1656 0 
L 538 0 
L 538 4863 
z
" transform="scale(0.015625)"/>
      <path id="DejaVuSans-Bold-6d" d="M 3781 2919 
Q 3994 3244 4286 3414 
Q 4578 3584 4928 3584 
Q 5531 3584 5847 3212 
Q 6163 2841 6163 2131 
L 6163 0 
L 5038 0 
L 5038 1825 
Q 5041 1866 5042 1909 
Q 5044 1953 5044 2034 
Q 5044 2406 4934 2573 
Q 4825 2741 4581 2741 
Q 4263 2741 4089 2478 
Q 3916 2216 3909 1719 
L 3909 0 
L 2784 0 
L 2784 1825 
Q 2784 2406 2684 2573 
Q 2584 2741 2328 2741 
Q 2006 2741 1831 2477 
Q 1656 2213 1656 1722 
L 1656 0 
L 531 0 
L 531 3500 
L 1656 3500 
L 1656 2988 
Q 1863 3284 2130 3434 
Q 2397 3584 2719 3584 
Q 3081 3584 3359 3409 
Q 3638 3234 3781 2919 
z
" transform="scale(0.015625)"/>
      <path id="DejaVuSans-Bold-6e" d="M 4056 2131 
L 4056 0 
L 2931 0 
L 2931 347 
L 2931 1631 
Q 2931 2084 2911 2256 
Q 2891 2428 2841 2509 
Q 2775 2619 2662 2680 
Q 2550 2741 2406 2741 
Q 2056 2741 1856 2470 
Q 1656 2200 1656 1722 
L 1656 0 
L 538 0 
L 538 3500 
L 1656 3500 
L 1656 2988 
Q 1909 3294 2193 3439 
Q 2478 3584 2822 3584 
Q 3428 3584 3742 3212 
Q 4056 2841 4056 2131 
z
" transform="scale(0.015625)"/>
      <path id="DejaVuSans-Bold-20" transform="scale(0.015625)"/>
      <path id="DejaVuSans-Bold-46" d="M 588 4666 
L 3834 4666 
L 3834 3756 
L 1791 3756 
L 1791 2888 
L 3713 2888 
L 3713 1978 
L 1791 1978 
L 1791 0 
L 588 0 
L 588 4666 
z
" transform="scale(0.015625)"/>
      <path id="DejaVuSans-Bold-69" d="M 538 3500 
L 1656 3500 
L 1656 0 
L 538 0 
L 538 3500 
z
M 538 4863 
L 1656 4863 
L 1656 3950 
L 538 3950 
L 538 4863 
z
" transform="scale(0.015625)"/>
      <path id="DejaVuSans-Bold-74" d="M 1759 4494 
L 1759 3500 
L 2913 3500 
L 2913 2700 
L 1759 2700 
L 1759 1216 
Q 1759 972 1856 886 
Q 1953 800 2241 800 
L 2816 800 
L 2816 0 
L 1856 0 
Q 1194 0 917 276 
Q 641 553 641 1216 
L 641 2700 
L 84 2700 
L 84 3500 
L 641 3500 
L 641 4494 
L 1759 4494 
z
" transform="scale(0.015625)"/>
      <path id="DejaVuSans-Bold-65" d="M 4031 1759 
L 4031 1441 
L 1416 1441 
Q 1456 1047 1700 850 
Q 1944 653 2381 653 
Q 2734 653 3104 758 
Q 3475 863 3866 1075 
L 3866 213 
Q 3469 63 3072 -14 
Q 2675 -91 2278 -91 
Q 1328 -91 801 392 
Q 275 875 275 1747 
Q 275 2603 792 3093 
Q 1309 3584 2216 3584 
Q 3041 3584 3536 3087 
Q 4031 2591 4031 1759 
z
M 2881 2131 
Q 2881 2450 2695 2645 
Q 2509 2841 2209 2841 
Q 1884 2841 1681 2658 
Q 1478 2475 1428 2131 
L 2881 2131 
z
" transform="scale(0.015625)"/>
      <path id="DejaVuSans-Bold-72" d="M 3138 2547 
Q 2991 2616 2845 2648 
Q 2700 2681 2553 2681 
Q 2122 2681 1889 2404 
Q 1656 2128 1656 1613 
L 1656 0 
L 538 0 
L 538 3500 
L 1656 3500 
L 1656 2925 
Q 1872 3269 2151 3426 
Q 2431 3584 2822 3584 
Q 2878 3584 2943 3579 
Q 3009 3575 3134 3559 
L 3138 2547 
z
" transform="scale(0.015625)"/>
      <path id="DejaVuSans-Bold-45" d="M 588 4666 
L 3834 4666 
L 3834 3756 
L 1791 3756 
L 1791 2888 
L 3713 2888 
L 3713 1978 
L 1791 1978 
L 1791 909 
L 3903 909 
L 3903 0 
L 588 0 
L 588 4666 
z
" transform="scale(0.015625)"/>
      <path id="DejaVuSans-Bold-73" d="M 3272 3391 
L 3272 2541 
Q 2913 2691 2578 2766 
Q 2244 2841 1947 2841 
Q 1628 2841 1473 2761 
Q 1319 2681 1319 2516 
Q 1319 2381 1436 2309 
Q 1553 2238 1856 2203 
L 2053 2175 
Q 2913 2066 3209 1816 
Q 3506 1566 3506 1031 
Q 3506 472 3093 190 
Q 2681 -91 1863 -91 
Q 1516 -91 1145 -36 
Q 775 19 384 128 
L 384 978 
Q 719 816 1070 734 
Q 1422 653 1784 653 
Q 2113 653 2278 743 
Q 2444 834 2444 1013 
Q 2444 1163 2330 1236 
Q 2216 1309 1875 1350 
L 1678 1375 
Q 931 1469 631 1722 
Q 331 1975 331 2491 
Q 331 3047 712 3315 
Q 1094 3584 1881 3584 
Q 2191 3584 2531 3537 
Q 2872 3491 3272 3391 
z
" transform="scale(0.015625)"/>
      <path id="DejaVuSans-Bold-6f" d="M 2203 2784 
Q 1831 2784 1636 2517 
Q 1441 2250 1441 1747 
Q 1441 1244 1636 976 
Q 1831 709 2203 709 
Q 2569 709 2762 976 
Q 2956 1244 2956 1747 
Q 2956 2250 2762 2517 
Q 2569 2784 2203 2784 
z
M 2203 3584 
Q 3106 3584 3614 3096 
Q 4122 2609 4122 1747 
Q 4122 884 3614 396 
Q 3106 -91 2203 -91 
Q 1297 -91 786 396 
Q 275 884 275 1747 
Q 275 2609 786 3096 
Q 1297 3584 2203 3584 
z
" transform="scale(0.015625)"/>
     </defs>
     <use xlink:href="#DejaVuSans-Bold-4b"/>
     <use xlink:href="#DejaVuSans-Bold-61" transform="translate(77.490234 0)"/>
     <use xlink:href="#DejaVuSans-Bold-6c" transform="translate(144.970703 0)"/>
     <use xlink:href="#DejaVuSans-Bold-6d" transform="translate(179.248047 0)"/>
     <use xlink:href="#DejaVuSans-Bold-61" transform="translate(283.447266 0)"/>
     <use xlink:href="#DejaVuSans-Bold-6e" transform="translate(350.927734 0)"/>
     <use xlink:href="#DejaVuSans-Bold-20" transform="translate(422.119141 0)"/>
     <use xlink:href="#DejaVuSans-Bold-46" transform="translate(456.933594 0)"/>
     <use xlink:href="#DejaVuSans-Bold-69" transform="translate(525.244141 0)"/>
     <use xlink:href="#DejaVuSans-Bold-6c" transform="translate(559.521484 0)"/>
     <use xlink:href="#DejaVuSans-Bold-74" transform="translate(593.798828 0)"/>
     <use xlink:href="#DejaVuSans-Bold-65" transform="translate(641.601562 0)"/>
     <use xlink:href="#DejaVuSans-Bold-72" transform="translate(709.423828 0)"/>
     <use xlink:href="#DejaVuSans-Bold-20" transform="translate(758.740234 0)"/>
     <use xlink:href="#DejaVuSans-Bold-45" transform="translate(793.554688 0)"/>
     <use xlink:href="#DejaVuSans-Bold-73" transform="translate(861.865234 0)"/>
     <use xlink:href="#DejaVuSans-Bold-74" transform="translate(921.386719 0)"/>
     <use xlink:href="#DejaVuSans-Bold-69" transform="translate(969.189453 0)"/>
     <use xlink:href="#DejaVuSans-Bold-6d" transform="translate(1003.466797 0)"/>
     <use xlink:href="#DejaVuSans-Bold-61" transform="translate(1107.666016 0)"/>
     <use xlink:href="#DejaVuSans-Bold-74" transform="translate(1175.146484 0)"/>
     <use xlink:href="#DejaVuSans-Bold-69" transform="translate(1222.949219 0)"/>
     <use xlink:href="#DejaVuSans-Bold-6f" transform="translate(1257.226562 0)"/>
     <use xlink:href="#DejaVuSans-Bold-6e" transform="translate(1325.927734 0)"/>
     <use xlink:href="#DejaVuSans-Bold-20" transform="translate(1397.119141 0)"/>
     <use xlink:href="#DejaVuSans-Bold-45" transform="translate(1431.933594 0)"/>
     <use xlink:href="#DejaVuSans-Bold-72" transform="translate(1500.244141 0)"/>
     <use xlink:href="#DejaVuSans-Bold-72" transform="translate(1549.560547 0)"/>
     <use xlink:href="#DejaVuSans-Bold-6f" transform="translate(1598.876953 0)"/>
     <use xlink:href="#DejaVuSans-Bold-72" transform="translate(1667.578125 0)"/>
    </g>
   </g>
  </g>
  <g id="axes_2">
   <g id="patch_5">
    <path d="M 51.111563 386.275937 
L 561.6 386.275937 
L 561.6 218.036094 
L 51.111563 218.036094 
L 51.111563 386.275937 
z
" style="fill: none"/>
   </g>
   <g id="matplotlib.axis_3">
    <g id="xtick_10">
     <g id="line2d_18">
      <g>
       <use xlink:href="#m43a7017e2b" x="74.315582" y="386.275937" style="fill: #7f7f7f; stroke: #7f7f7f; stroke-width: 1.8"/>
      </g>
     </g>
     <g id="text_19">
      <!-- 0.0 -->
      <g style="fill: #7f7f7f" transform="translate(66.36402 400.874375) scale(0.1 -0.1)">
       <use xlink:href="#DejaVuSans-30"/>
       <use xlink:href="#DejaVuSans-2e" transform="translate(63.623047 0)"/>
       <use xlink:href="#DejaVuSans-30" transform="translate(95.410156 0)"/>
      </g>
     </g>
    </g>
    <g id="xtick_11">
     <g id="line2d_19">
      <g>
       <use xlink:href="#m43a7017e2b" x="132.325632" y="386.275937" style="fill: #7f7f7f; stroke: #7f7f7f; stroke-width: 1.8"/>
      </g>
     </g>
     <g id="text_20">
      <!-- 2.5 -->
      <g style="fill: #7f7f7f" transform="translate(124.37407 400.874375) scale(0.1 -0.1)">
       <use xlink:href="#DejaVuSans-32"/>
       <use xlink:href="#DejaVuSans-2e" transform="translate(63.623047 0)"/>
       <use xlink:href="#DejaVuSans-35" transform="translate(95.410156 0)"/>
      </g>
     </g>
    </g>
    <g id="xtick_12">
     <g id="line2d_20">
      <g>
       <use xlink:href="#m43a7017e2b" x="190.335682" y="386.275937" style="fill: #7f7f7f; stroke: #7f7f7f; stroke-width: 1.8"/>
      </g>
     </g>
     <g id="text_21">
      <!-- 5.0 -->
      <g style="fill: #7f7f7f" transform="translate(182.384119 400.874375) scale(0.1 -0.1)">
       <use xlink:href="#DejaVuSans-35"/>
       <use xlink:href="#DejaVuSans-2e" transform="translate(63.623047 0)"/>
       <use xlink:href="#DejaVuSans-30" transform="translate(95.410156 0)"/>
      </g>
     </g>
    </g>
    <g id="xtick_13">
     <g id="line2d_21">
      <g>
       <use xlink:href="#m43a7017e2b" x="248.345732" y="386.275937" style="fill: #7f7f7f; stroke: #7f7f7f; stroke-width: 1.8"/>
      </g>
     </g>
     <g id="text_22">
      <!-- 7.5 -->
      <g style="fill: #7f7f7f" transform="translate(240.394169 400.874375) scale(0.1 -0.1)">
       <use xlink:href="#DejaVuSans-37"/>
       <use xlink:href="#DejaVuSans-2e" transform="translate(63.623047 0)"/>
       <use xlink:href="#DejaVuSans-35" transform="translate(95.410156 0)"/>
      </g>
     </g>
    </g>
    <g id="xtick_14">
     <g id="line2d_22">
      <g>
       <use xlink:href="#m43a7017e2b" x="306.355781" y="386.275937" style="fill: #7f7f7f; stroke: #7f7f7f; stroke-width: 1.8"/>
      </g>
     </g>
     <g id="text_23">
      <!-- 10.0 -->
      <g style="fill: #7f7f7f" transform="translate(295.222969 400.874375) scale(0.1 -0.1)">
       <use xlink:href="#DejaVuSans-31"/>
       <use xlink:href="#DejaVuSans-30" transform="translate(63.623047 0)"/>
       <use xlink:href="#DejaVuSans-2e" transform="translate(127.246094 0)"/>
       <use xlink:href="#DejaVuSans-30" transform="translate(159.033203 0)"/>
      </g>
     </g>
    </g>
    <g id="xtick_15">
     <g id="line2d_23">
      <g>
       <use xlink:href="#m43a7017e2b" x="364.365831" y="386.275937" style="fill: #7f7f7f; stroke: #7f7f7f; stroke-width: 1.8"/>
      </g>
     </g>
     <g id="text_24">
      <!-- 12.5 -->
      <g style="fill: #7f7f7f" transform="translate(353.233018 400.874375) scale(0.1 -0.1)">
       <use xlink:href="#DejaVuSans-31"/>
       <use xlink:href="#DejaVuSans-32" transform="translate(63.623047 0)"/>
       <use xlink:href="#DejaVuSans-2e" transform="translate(127.246094 0)"/>
       <use xlink:href="#DejaVuSans-35" transform="translate(159.033203 0)"/>
      </g>
     </g>
    </g>
    <g id="xtick_16">
     <g id="line2d_24">
      <g>
       <use xlink:href="#m43a7017e2b" x="422.375881" y="386.275937" style="fill: #7f7f7f; stroke: #7f7f7f; stroke-width: 1.8"/>
      </g>
     </g>
     <g id="text_25">
      <!-- 15.0 -->
      <g style="fill: #7f7f7f" transform="translate(411.243068 400.874375) scale(0.1 -0.1)">
       <use xlink:href="#DejaVuSans-31"/>
       <use xlink:href="#DejaVuSans-35" transform="translate(63.623047 0)"/>
       <use xlink:href="#DejaVuSans-2e" transform="translate(127.246094 0)"/>
       <use xlink:href="#DejaVuSans-30" transform="translate(159.033203 0)"/>
      </g>
     </g>
    </g>
    <g id="xtick_17">
     <g id="line2d_25">
      <g>
       <use xlink:href="#m43a7017e2b" x="480.38593" y="386.275937" style="fill: #7f7f7f; stroke: #7f7f7f; stroke-width: 1.8"/>
      </g>
     </g>
     <g id="text_26">
      <!-- 17.5 -->
      <g style="fill: #7f7f7f" transform="translate(469.253118 400.874375) scale(0.1 -0.1)">
       <use xlink:href="#DejaVuSans-31"/>
       <use xlink:href="#DejaVuSans-37" transform="translate(63.623047 0)"/>
       <use xlink:href="#DejaVuSans-2e" transform="translate(127.246094 0)"/>
       <use xlink:href="#DejaVuSans-35" transform="translate(159.033203 0)"/>
      </g>
     </g>
    </g>
    <g id="xtick_18">
     <g id="line2d_26">
      <g>
       <use xlink:href="#m43a7017e2b" x="538.39598" y="386.275937" style="fill: #7f7f7f; stroke: #7f7f7f; stroke-width: 1.8"/>
      </g>
     </g>
     <g id="text_27">
      <!-- 20.0 -->
      <g style="fill: #7f7f7f" transform="translate(527.263168 400.874375) scale(0.1 -0.1)">
       <use xlink:href="#DejaVuSans-32"/>
       <use xlink:href="#DejaVuSans-30" transform="translate(63.623047 0)"/>
       <use xlink:href="#DejaVuSans-2e" transform="translate(127.246094 0)"/>
       <use xlink:href="#DejaVuSans-30" transform="translate(159.033203 0)"/>
      </g>
     </g>
    </g>
    <g id="text_28">
     <!-- Time [s] -->
     <g style="fill: #7f7f7f" transform="translate(283.993984 415.312344) scale(0.11 -0.11)">
      <defs>
       <path id="DejaVuSans-54" d="M -19 4666 
L 3928 4666 
L 3928 4134 
L 2272 4134 
L 2272 0 
L 1638 0 
L 1638 4134 
L -19 4134 
L -19 4666 
z
" transform="scale(0.015625)"/>
       <path id="DejaVuSans-65" d="M 3597 1894 
L 3597 1613 
L 953 1613 
Q 991 1019 1311 708 
Q 1631 397 2203 397 
Q 2534 397 2845 478 
Q 3156 559 3463 722 
L 3463 178 
Q 3153 47 2828 -22 
Q 2503 -91 2169 -91 
Q 1331 -91 842 396 
Q 353 884 353 1716 
Q 353 2575 817 3079 
Q 1281 3584 2069 3584 
Q 2775 3584 3186 3129 
Q 3597 2675 3597 1894 
z
M 3022 2063 
Q 3016 2534 2758 2815 
Q 2500 3097 2075 3097 
Q 1594 3097 1305 2825 
Q 1016 2553 972 2059 
L 3022 2063 
z
" transform="scale(0.015625)"/>
      </defs>
      <use xlink:href="#DejaVuSans-54"/>
      <use xlink:href="#DejaVuSans-69" transform="translate(57.958984 0)"/>
      <use xlink:href="#DejaVuSans-6d" transform="translate(85.742188 0)"/>
      <use xlink:href="#DejaVuSans-65" transform="translate(183.154297 0)"/>
      <use xlink:href="#DejaVuSans-20" transform="translate(244.677734 0)"/>
      <use xlink:href="#DejaVuSans-5b" transform="translate(276.464844 0)"/>
      <use xlink:href="#DejaVuSans-73" transform="translate(315.478516 0)"/>
      <use xlink:href="#DejaVuSans-5d" transform="translate(367.578125 0)"/>
     </g>
    </g>
   </g>
   <g id="matplotlib.axis_4">
    <g id="ytick_8">
     <g id="line2d_27">
      <g>
       <use xlink:href="#meab4c0a2f3" x="51.111563" y="378.63518" style="fill: #7f7f7f; stroke: #7f7f7f; stroke-width: 1.8"/>
      </g>
     </g>
     <g id="text_29">
      <!-- 0.0 -->
      <g style="fill: #7f7f7f" transform="translate(28.208438 382.434399) scale(0.1 -0.1)">
       <use xlink:href="#DejaVuSans-30"/>
       <use xlink:href="#DejaVuSans-2e" transform="translate(63.623047 0)"/>
       <use xlink:href="#DejaVuSans-30" transform="translate(95.410156 0)"/>
      </g>
     </g>
    </g>
    <g id="ytick_9">
     <g id="line2d_28">
      <g>
       <use xlink:href="#meab4c0a2f3" x="51.111563" y="342.3604" style="fill: #7f7f7f; stroke: #7f7f7f; stroke-width: 1.8"/>
      </g>
     </g>
     <g id="text_30">
      <!-- 0.5 -->
      <g style="fill: #7f7f7f" transform="translate(28.208438 346.159619) scale(0.1 -0.1)">
       <use xlink:href="#DejaVuSans-30"/>
       <use xlink:href="#DejaVuSans-2e" transform="translate(63.623047 0)"/>
       <use xlink:href="#DejaVuSans-35" transform="translate(95.410156 0)"/>
      </g>
     </g>
    </g>
    <g id="ytick_10">
     <g id="line2d_29">
      <g>
       <use xlink:href="#meab4c0a2f3" x="51.111563" y="306.085621" style="fill: #7f7f7f; stroke: #7f7f7f; stroke-width: 1.8"/>
      </g>
     </g>
     <g id="text_31">
      <!-- 1.0 -->
      <g style="fill: #7f7f7f" transform="translate(28.208438 309.88484) scale(0.1 -0.1)">
       <use xlink:href="#DejaVuSans-31"/>
       <use xlink:href="#DejaVuSans-2e" transform="translate(63.623047 0)"/>
       <use xlink:href="#DejaVuSans-30" transform="translate(95.410156 0)"/>
      </g>
     </g>
    </g>
    <g id="ytick_11">
     <g id="line2d_30">
      <g>
       <use xlink:href="#meab4c0a2f3" x="51.111563" y="269.810841" style="fill: #7f7f7f; stroke: #7f7f7f; stroke-width: 1.8"/>
      </g>
     </g>
     <g id="text_32">
      <!-- 1.5 -->
      <g style="fill: #7f7f7f" transform="translate(28.208438 273.61006) scale(0.1 -0.1)">
       <use xlink:href="#DejaVuSans-31"/>
       <use xlink:href="#DejaVuSans-2e" transform="translate(63.623047 0)"/>
       <use xlink:href="#DejaVuSans-35" transform="translate(95.410156 0)"/>
      </g>
     </g>
    </g>
    <g id="ytick_12">
     <g id="line2d_31">
      <g>
       <use xlink:href="#meab4c0a2f3" x="51.111563" y="233.536062" style="fill: #7f7f7f; stroke: #7f7f7f; stroke-width: 1.8"/>
      </g>
     </g>
     <g id="text_33">
      <!-- 2.0 -->
      <g style="fill: #7f7f7f" transform="translate(28.208438 237.33528) scale(0.1 -0.1)">
       <use xlink:href="#DejaVuSans-32"/>
       <use xlink:href="#DejaVuSans-2e" transform="translate(63.623047 0)"/>
       <use xlink:href="#DejaVuSans-30" transform="translate(95.410156 0)"/>
      </g>
     </g>
    </g>
    <g id="text_34">
     <!-- Velocity Error [m/s] -->
     <g style="fill: #7f7f7f" transform="translate(21.920781 354.999844) rotate(-90) scale(0.11 -0.11)">
      <defs>
       <path id="DejaVuSans-56" d="M 1831 0 
L 50 4666 
L 709 4666 
L 2188 738 
L 3669 4666 
L 4325 4666 
L 2547 0 
L 1831 0 
z
" transform="scale(0.015625)"/>
       <path id="DejaVuSans-6c" d="M 603 4863 
L 1178 4863 
L 1178 0 
L 603 0 
L 603 4863 
z
" transform="scale(0.015625)"/>
       <path id="DejaVuSans-63" d="M 3122 3366 
L 3122 2828 
Q 2878 2963 2633 3030 
Q 2388 3097 2138 3097 
Q 1578 3097 1268 2742 
Q 959 2388 959 1747 
Q 959 1106 1268 751 
Q 1578 397 2138 397 
Q 2388 397 2633 464 
Q 2878 531 3122 666 
L 3122 134 
Q 2881 22 2623 -34 
Q 2366 -91 2075 -91 
Q 1284 -91 818 406 
Q 353 903 353 1747 
Q 353 2603 823 3093 
Q 1294 3584 2113 3584 
Q 2378 3584 2631 3529 
Q 2884 3475 3122 3366 
z
" transform="scale(0.015625)"/>
       <path id="DejaVuSans-79" d="M 2059 -325 
Q 1816 -950 1584 -1140 
Q 1353 -1331 966 -1331 
L 506 -1331 
L 506 -850 
L 844 -850 
Q 1081 -850 1212 -737 
Q 1344 -625 1503 -206 
L 1606 56 
L 191 3500 
L 800 3500 
L 1894 763 
L 2988 3500 
L 3597 3500 
L 2059 -325 
z
" transform="scale(0.015625)"/>
       <path id="DejaVuSans-2f" d="M 1625 4666 
L 2156 4666 
L 531 -594 
L 0 -594 
L 1625 4666 
z
" transform="scale(0.015625)"/>
      </defs>
      <use xlink:href="#DejaVuSans-56"/>
      <use xlink:href="#DejaVuSans-65" transform="translate(60.658203 0)"/>
      <use xlink:href="#DejaVuSans-6c" transform="translate(122.181641 0)"/>
      <use xlink:href="#DejaVuSans-6f" transform="translate(149.964844 0)"/>
      <use xlink:href="#DejaVuSans-63" transform="translate(211.146484 0)"/>
      <use xlink:href="#DejaVuSans-69" transform="translate(266.126953 0)"/>
      <use xlink:href="#DejaVuSans-74" transform="translate(293.910156 0)"/>
      <use xlink:href="#DejaVuSans-79" transform="translate(333.119141 0)"/>
      <use xlink:href="#DejaVuSans-20" transform="translate(392.298828 0)"/>
      <use xlink:href="#DejaVuSans-45" transform="translate(424.085938 0)"/>
      <use xlink:href="#DejaVuSans-72" transform="translate(487.269531 0)"/>
      <use xlink:href="#DejaVuSans-72" transform="translate(526.632812 0)"/>
      <use xlink:href="#DejaVuSans-6f" transform="translate(565.496094 0)"/>
      <use xlink:href="#DejaVuSans-72" transform="translate(626.677734 0)"/>
      <use xlink:href="#DejaVuSans-20" transform="translate(667.791016 0)"/>
      <use xlink:href="#DejaVuSans-5b" transform="translate(699.578125 0)"/>
      <use xlink:href="#DejaVuSans-6d" transform="translate(738.591797 0)"/>
      <use xlink:href="#DejaVuSans-2f" transform="translate(836.003906 0)"/>
      <use xlink:href="#DejaVuSans-73" transform="translate(869.695312 0)"/>
      <use xlink:href="#DejaVuSans-5d" transform="translate(921.794922 0)"/>
     </g>
    </g>
   </g>
   <g id="line2d_32">
    <path d="M 74.315582 233.536062 
L 75.475783 232.609896 
L 75.707824 237.911955 
L 76.171904 225.683359 
L 77.332105 241.826327 
L 77.564145 229.707471 
L 78.028226 243.376478 
L 78.956386 278.646694 
L 79.188427 269.340581 
L 79.420467 259.404974 
L 79.884547 281.473263 
L 80.116587 280.505289 
L 82.436989 360.255025 
L 82.66903 360.587389 
L 83.13311 374.367836 
L 83.36515 370.351057 
L 83.59719 353.688926 
L 84.293311 372.462878 
L 84.525351 373.270443 
L 84.989432 368.228025 
L 85.221472 376.908839 
L 85.453512 374.532631 
L 85.685552 376.326981 
L 85.917592 370.337366 
L 86.381673 370.96192 
L 87.309834 371.38037 
L 87.541874 359.412961 
L 88.470035 376.802203 
L 88.702075 373.547684 
L 89.166155 356.011394 
L 89.630236 366.569575 
L 90.094316 374.732843 
L 90.790437 373.04432 
L 92.182678 362.821005 
L 92.414718 355.889189 
L 92.878798 364.114145 
L 93.110838 362.245237 
L 93.342879 362.869282 
L 94.96716 378.28668 
L 95.43124 378.394442 
L 96.359401 368.192963 
L 97.055522 364.434221 
L 97.751642 376.688127 
L 98.215723 374.518792 
L 98.447763 372.57491 
L 98.679803 377.844533 
L 98.911843 378.181726 
L 101.232245 363.254698 
L 101.464286 365.316494 
L 102.160406 350.909751 
L 102.624487 352.27172 
L 103.088567 355.998296 
L 103.552647 352.324372 
L 103.784688 353.359986 
L 104.016728 352.301228 
L 104.480808 346.707812 
L 105.176929 349.179494 
L 105.641009 358.583586 
L 106.33713 354.6359 
L 108.889572 367.79126 
L 109.121612 364.717584 
L 109.817733 366.549732 
L 110.049773 370.401423 
L 110.745894 368.761589 
L 110.977934 366.25847 
L 111.442014 369.625664 
L 111.906095 373.482598 
L 112.834255 371.969613 
L 113.066296 370.617758 
L 113.298336 376.603347 
L 113.762416 370.291192 
L 114.690577 362.554494 
L 115.386698 364.292873 
L 116.778939 377.539215 
L 117.475059 375.435589 
L 117.7071 376.59581 
L 118.17118 374.233306 
L 118.40322 373.843841 
L 119.099341 368.699055 
L 119.331381 371.086121 
L 120.491582 378.077449 
L 122.115863 376.483396 
L 122.347904 374.848088 
L 122.579944 377.895268 
L 122.811984 375.936999 
L 123.044024 378.56249 
L 123.740145 375.685479 
L 123.972185 376.625539 
L 124.204225 375.305351 
L 124.900346 367.915238 
L 125.364426 371.506628 
L 125.596466 372.85667 
L 125.828507 371.982638 
L 126.060547 367.560425 
L 126.756667 373.159376 
L 127.916868 378.577761 
L 128.148909 376.229969 
L 128.845029 376.578375 
L 129.077069 377.060505 
L 131.165431 362.236558 
L 131.397471 364.328687 
L 132.093592 363.819007 
L 132.325632 361.632546 
L 132.789712 363.921655 
L 133.253793 369.451307 
L 134.646034 378.622454 
L 133.717873 368.25111 
L 134.878074 377.753943 
L 135.342155 378.449223 
L 136.270315 375.405868 
L 136.734396 377.655852 
L 136.966436 375.137566 
L 138.822758 369.109757 
L 139.054798 369.542428 
L 139.286838 367.625353 
L 139.750918 371.890876 
L 139.982959 373.861289 
L 140.447039 369.468954 
L 140.911119 364.494817 
L 141.3752 365.66956 
L 141.60724 368.069609 
L 142.303361 365.328598 
L 142.767441 359.130924 
L 143.463562 362.646876 
L 143.695602 361.229977 
L 144.159682 362.663016 
L 145.087843 365.194856 
L 145.319883 364.198271 
L 146.016004 378.208026 
L 146.480084 376.794341 
L 146.944165 376.859149 
L 147.640285 377.979804 
L 148.336406 374.099963 
L 148.568446 374.740451 
L 149.496607 368.774383 
L 149.728647 368.795946 
L 150.424768 370.725621 
L 151.584969 365.364879 
L 151.817009 365.815545 
L 152.049049 363.825405 
L 152.281089 367.366048 
L 153.20925 378.556919 
L 154.601491 377.056767 
L 154.833531 377.2245 
L 155.065572 373.162786 
L 155.297612 378.025194 
L 155.761692 375.459403 
L 156.225773 376.567694 
L 156.457813 374.236242 
L 156.689853 375.238285 
L 157.850054 372.433865 
L 159.010255 362.583914 
L 159.242295 362.953127 
L 160.402496 357.410179 
L 161.330657 355.989684 
L 160.866577 358.293067 
L 161.562697 356.967071 
L 162.722898 368.441606 
L 162.954938 367.136752 
L 164.115139 372.153818 
L 163.419019 366.334458 
L 164.34718 371.882717 
L 164.57922 370.708871 
L 165.27534 376.172339 
L 165.507381 375.129475 
L 166.435541 365.707511 
L 167.131662 366.25583 
L 169.916144 358.213135 
L 170.380225 359.033837 
L 170.844305 361.760123 
L 171.076345 360.903359 
L 171.772466 362.473373 
L 172.236546 357.047672 
L 174.788988 369.851144 
L 175.949189 370.500648 
L 176.87735 365.178114 
L 177.10939 369.13598 
L 177.805511 367.407768 
L 178.269591 361.443415 
L 178.733672 365.260503 
L 180.125913 377.614726 
L 180.357953 372.656872 
L 180.589993 372.639012 
L 181.054074 367.146342 
L 181.750194 369.738166 
L 182.678355 378.516689 
L 182.910395 377.760039 
L 183.142436 377.682883 
L 183.374476 378.469368 
L 184.766717 369.689197 
L 184.998757 370.118733 
L 185.230797 372.353314 
L 185.462838 368.541723 
L 185.694878 369.507471 
L 185.926918 369.021076 
L 186.390998 374.000362 
L 186.855079 370.736565 
L 187.087119 370.058635 
L 188.01528 378.607646 
L 188.47936 378.347188 
L 188.7114 378.084679 
L 189.639561 367.49058 
L 190.103642 367.624246 
L 190.335682 366.350401 
L 191.263843 370.926273 
L 191.495883 370.423661 
L 192.192003 376.160309 
L 192.424044 371.832146 
L 192.888124 368.728061 
L 193.120164 364.849154 
L 193.584245 370.967483 
L 193.816285 369.475886 
L 194.976486 375.961262 
L 195.208526 375.825923 
L 195.904647 372.387219 
L 196.368727 373.787104 
L 196.832807 374.006365 
L 198.689129 364.323238 
L 199.84933 372.503526 
L 200.08137 369.450151 
L 201.009531 363.635024 
L 201.473611 364.998096 
L 201.705652 364.411955 
L 203.329933 378.576747 
L 205.650335 361.929298 
L 206.114415 362.236206 
L 206.346456 365.315523 
L 207.042576 362.675393 
L 208.202777 357.135993 
L 208.434817 358.430024 
L 208.898898 355.90929 
L 209.130938 354.626937 
L 209.362978 356.932577 
L 210.755219 367.369341 
L 211.68338 359.284511 
L 211.91542 360.706565 
L 212.147461 364.245553 
L 212.843581 359.828553 
L 213.075621 360.549529 
L 213.307662 358.797741 
L 213.771742 357.914248 
L 214.003782 355.114754 
L 214.467862 358.733279 
L 214.699903 359.538152 
L 214.931943 357.76616 
L 215.628063 354.199491 
L 215.860104 352.918677 
L 217.020305 364.147922 
L 218.180506 359.705883 
L 218.876626 362.288559 
L 220.268867 373.639058 
L 220.732948 370.963419 
L 220.964988 366.616765 
L 221.661109 371.686563 
L 221.893149 374.091548 
L 222.357229 370.024465 
L 222.589269 366.191216 
L 223.28539 370.870256 
L 224.213551 377.630797 
L 224.909671 376.739627 
L 225.373752 377.770887 
L 225.605792 376.922072 
L 226.998033 371.003461 
L 227.230073 371.273543 
L 227.694154 376.421312 
L 228.158234 370.712811 
L 229.318435 373.573817 
L 230.710676 366.659842 
L 231.406797 371.63379 
L 231.638837 369.56899 
L 232.566998 365.672691 
L 233.031078 370.55078 
L 233.727199 367.224487 
L 233.959239 366.817599 
L 235.35148 372.967637 
L 235.815561 369.731289 
L 236.279641 370.665537 
L 237.207802 376.089379 
L 237.439842 374.553475 
L 237.671882 371.191913 
L 238.135963 374.808252 
L 238.368003 374.360768 
L 239.064124 376.658688 
L 239.296164 375.440756 
L 239.528204 374.331093 
L 239.992284 375.932687 
L 240.456365 378.218706 
L 240.920445 376.123245 
L 241.384526 378.007927 
L 242.544727 371.895911 
L 242.776767 374.057312 
L 243.240847 369.653522 
L 243.472887 369.619531 
L 244.865129 376.176637 
L 245.793289 377.488433 
L 246.25737 375.522499 
L 247.185531 376.13649 
L 247.417571 378.066583 
L 247.881651 374.183554 
L 248.113691 372.165917 
L 248.345732 376.022197 
L 248.809812 374.27287 
L 249.737973 378.120029 
L 250.202053 376.035991 
L 251.130214 366.034713 
L 251.826335 361.012589 
L 252.290415 364.076692 
L 253.450616 372.398668 
L 254.610817 359.799575 
L 254.842857 363.037797 
L 255.074897 363.251415 
L 256.699179 371.1507 
L 256.931219 370.824891 
L 257.395299 374.170827 
L 258.09142 372.344806 
L 258.5555 377.516386 
L 259.251621 374.128193 
L 259.947741 372.063999 
L 260.643862 375.30389 
L 260.875902 373.362375 
L 262.268143 366.793478 
L 262.732224 365.405115 
L 263.660385 374.150079 
L 263.892425 373.273212 
L 264.356505 366.897641 
L 265.052626 368.672722 
L 265.980787 372.120566 
L 266.212827 367.84807 
L 266.908947 370.985588 
L 268.069148 377.359044 
L 268.301189 376.66525 
L 269.229349 372.600968 
L 269.69343 375.628074 
L 270.621591 377.859608 
L 271.317711 378.222133 
L 271.781792 374.361312 
L 272.013832 374.406017 
L 273.174033 369.837943 
L 273.406073 370.339357 
L 273.638113 367.916318 
L 274.334234 369.294456 
L 275.030354 375.429944 
L 275.494435 371.63878 
L 276.190555 368.591461 
L 276.654636 369.77785 
L 276.886676 372.797643 
L 277.350756 369.844216 
L 277.814837 366.235946 
L 278.046877 367.413292 
L 279.439118 376.610052 
L 279.671158 376.050789 
L 279.903199 376.379059 
L 280.135239 373.928443 
L 280.599319 376.039923 
L 281.0634 375.363633 
L 281.75952 378.215126 
L 282.687681 375.510741 
L 282.919721 378.061885 
L 283.615842 376.432318 
L 283.847882 376.907391 
L 284.544003 371.662491 
L 285.008083 372.088865 
L 286.168284 375.661267 
L 286.864405 378.399373 
L 287.328485 377.987352 
L 287.792565 374.277677 
L 288.024606 378.439846 
L 288.256646 378.423471 
L 288.720726 374.406825 
L 289.416847 375.755476 
L 289.648887 375.836574 
L 292.66541 360.607293 
L 294.521731 366.755987 
L 294.753771 365.280521 
L 294.985812 367.03886 
L 295.217852 373.350932 
L 295.913972 369.425997 
L 297.074173 373.584907 
L 298.466414 359.058892 
L 298.698455 361.35844 
L 300.090696 368.846879 
L 301.714977 358.725851 
L 302.179058 356.262986 
L 302.411098 359.727126 
L 302.643138 359.572224 
L 304.49946 370.894613 
L 306.123741 360.640011 
L 307.051902 362.891244 
L 307.980063 360.847291 
L 308.212103 361.6437 
L 309.372304 374.532447 
L 310.300465 372.395514 
L 310.532505 369.21779 
L 311.228625 373.284686 
L 312.156786 378.38145 
L 312.388826 377.149897 
L 312.620867 377.381221 
L 313.781068 371.587985 
L 314.477188 375.556842 
L 314.709228 373.11674 
L 315.173309 370.985782 
L 315.405349 371.842052 
L 316.33351 375.664205 
L 316.56555 373.272555 
L 317.261671 375.390095 
L 317.493711 377.866974 
L 318.189831 375.57532 
L 319.582073 377.540977 
L 320.046153 371.46881 
L 320.510233 375.178279 
L 320.742274 375.25178 
L 320.974314 373.300108 
L 321.670434 374.633967 
L 322.598595 377.413523 
L 322.830635 376.425366 
L 323.062676 373.558185 
L 323.990836 373.775877 
L 324.222877 377.879595 
L 324.918997 373.621429 
L 325.383078 375.924795 
L 325.615118 373.377412 
L 326.543279 357.434524 
L 327.239399 359.943753 
L 328.16756 353.538307 
L 328.63164 354.44678 
L 329.791841 358.585873 
L 330.720002 356.659952 
L 330.255922 359.473647 
L 330.952042 357.12329 
L 332.344284 366.29048 
L 332.576324 367.750236 
L 333.272444 365.97465 
L 333.736525 361.444241 
L 334.200605 366.316867 
L 334.432645 364.825229 
L 335.824887 373.96707 
L 336.753047 371.178563 
L 336.985087 372.799761 
L 337.913248 378.324446 
L 338.841409 376.458596 
L 339.073449 375.823754 
L 339.305489 378.231631 
L 340.00161 376.044489 
L 340.23365 376.059372 
L 340.46569 378.245279 
L 340.929771 374.190471 
L 342.322012 378.354877 
L 342.554052 376.997775 
L 342.786092 372.998071 
L 343.714253 374.2326 
L 345.106494 378.386819 
L 345.338535 376.960094 
L 347.194856 363.0577 
L 348.587097 370.75088 
L 349.515258 366.265082 
L 349.051178 371.111969 
L 349.747298 368.76709 
L 350.443419 372.131754 
L 350.907499 370.014406 
L 352.531781 359.562953 
L 353.227901 361.563267 
L 353.691982 360.128373 
L 354.852183 366.890974 
L 355.548303 359.354988 
L 356.012384 360.56681 
L 356.244424 359.838574 
L 357.868705 372.695545 
L 358.100746 372.253856 
L 359.492987 375.980068 
L 359.957067 372.077934 
L 360.189107 373.64828 
L 361.349308 378.380619 
L 361.813389 373.195412 
L 362.277469 374.776 
L 362.97359 378.032249 
L 363.20563 377.744285 
L 363.901751 373.213971 
L 364.133791 374.927789 
L 364.365831 377.065315 
L 364.597871 373.373497 
L 366.222153 365.25172 
L 367.846434 373.535263 
L 368.310514 370.395028 
L 368.542555 370.196785 
L 368.774595 372.140389 
L 369.006635 370.072442 
L 369.238675 371.385142 
L 370.862957 363.110375 
L 371.327037 369.074091 
L 371.791117 364.762023 
L 372.719278 369.993683 
L 373.415399 369.321857 
L 373.879479 365.469403 
L 374.111519 366.04716 
L 374.34356 369.950629 
L 374.80764 365.379055 
L 375.03968 363.600881 
L 375.503761 366.595056 
L 375.967841 366.014563 
L 376.431921 365.138855 
L 376.663962 367.04326 
L 376.896002 362.387411 
L 377.128042 360.784331 
L 377.360082 365.261967 
L 378.752323 373.887932 
L 379.680484 365.618916 
L 380.376605 368.926603 
L 381.304765 374.857781 
L 381.536806 374.124823 
L 382.000886 373.546932 
L 382.464966 378.434064 
L 382.929047 377.997597 
L 383.393127 374.207638 
L 383.857208 377.723102 
L 384.089248 377.984072 
L 384.321288 372.960482 
L 385.017409 378.494273 
L 385.945569 375.276967 
L 386.17761 376.452647 
L 387.10577 378.570104 
L 388.730052 368.901112 
L 389.658213 370.861536 
L 389.194132 368.697049 
L 389.890253 370.658866 
L 390.122293 370.181089 
L 390.354333 371.908654 
L 390.586373 374.929259 
L 390.818414 371.796387 
L 391.050454 372.030823 
L 392.674735 364.068561 
L 392.906775 364.157812 
L 393.138816 363.90452 
L 395.691258 377.643225 
L 396.155338 376.57737 
L 396.387378 375.016683 
L 396.619419 378.450943 
L 396.851459 376.543419 
L 397.083499 378.315531 
L 397.315539 376.929532 
L 398.47574 359.960999 
L 398.70778 362.679871 
L 398.939821 362.401748 
L 399.867981 372.933012 
L 400.332062 371.116249 
L 400.564102 370.662494 
L 401.260223 365.193117 
L 401.492263 368.523798 
L 403.812665 378.336021 
L 404.276745 376.306644 
L 404.740826 372.202963 
L 404.972866 373.582483 
L 405.204906 378.340599 
L 405.901027 373.764234 
L 407.525308 367.272199 
L 407.757348 369.026715 
L 408.221429 366.797895 
L 408.685509 367.888034 
L 408.917549 365.912785 
L 409.84571 369.386883 
L 410.07775 368.342502 
L 410.30979 368.359212 
L 410.773871 369.85707 
L 411.005911 367.890625 
L 411.237951 367.764186 
L 412.630192 374.157515 
L 412.862233 373.831122 
L 413.094273 377.120443 
L 413.558353 375.059552 
L 414.254474 369.571903 
L 414.486514 372.033663 
L 414.950594 375.185282 
L 415.182635 370.394935 
L 416.342836 354.378371 
L 416.574876 358.470015 
L 417.735077 350.019925 
L 418.895278 359.456719 
L 419.127318 358.290681 
L 419.591398 357.629137 
L 420.055479 358.104186 
L 420.983639 361.661494 
L 421.21568 357.334879 
L 421.9118 362.149271 
L 422.14384 361.933517 
L 423.304041 369.748348 
L 423.536082 366.022769 
L 424.464242 366.573421 
L 424.928323 369.087077 
L 425.392403 367.747821 
L 425.624443 365.46635 
L 426.088524 368.309011 
L 426.320564 367.725235 
L 426.784644 365.498333 
L 427.480765 378.571483 
L 427.944845 371.818667 
L 428.873006 374.076384 
L 429.337087 368.660832 
L 429.801167 373.189486 
L 430.033207 373.955101 
L 430.265247 372.68632 
L 431.657489 365.563794 
L 432.121569 362.471771 
L 432.353609 365.529115 
L 433.977891 376.003726 
L 434.209931 375.690587 
L 435.138092 378.321856 
L 435.370132 377.816752 
L 435.602172 378.551085 
L 435.834212 376.670828 
L 436.066252 377.835812 
L 436.530333 373.023322 
L 437.226453 374.541294 
L 438.154614 378.460826 
L 438.386654 376.840919 
L 438.618695 377.343696 
L 438.850735 377.095102 
L 439.082775 373.829839 
L 439.546855 377.658005 
L 439.778896 376.063567 
L 440.707056 372.907045 
L 440.939097 374.137327 
L 441.635217 376.383666 
L 442.331338 378.018121 
L 442.795418 378.179667 
L 444.187659 362.492322 
L 446.043981 370.263068 
L 448.132343 365.613621 
L 449.756624 375.775232 
L 450.220705 370.258786 
L 451.148865 371.438117 
L 452.077026 372.720247 
L 454.165388 355.323147 
L 454.397428 358.255359 
L 455.325589 367.228476 
L 455.557629 364.189768 
L 456.48579 369.155906 
L 456.71783 368.171196 
L 457.181911 366.165374 
L 457.413951 366.384817 
L 458.342112 370.790668 
L 458.574152 369.345813 
L 459.270272 368.791966 
L 460.198433 375.991574 
L 460.430473 377.916701 
L 461.358634 377.353961 
L 461.590674 377.336248 
L 461.822714 374.885843 
L 462.286795 378.193693 
L 463.214956 378.528751 
L 464.375157 370.215186 
L 464.607197 372.599593 
L 464.839237 373.612817 
L 465.071277 372.041289 
L 465.767398 368.017948 
L 466.231478 370.533648 
L 466.927599 366.528304 
L 466.695559 370.979712 
L 467.391679 367.87566 
L 468.55188 374.066527 
L 469.712081 368.07115 
L 471.104322 376.195611 
L 471.800443 375.040936 
L 472.496564 378.091168 
L 472.960644 377.527872 
L 473.424724 378.055101 
L 474.352885 375.132005 
L 475.049006 377.597977 
L 475.281046 375.655317 
L 475.745126 375.0847 
L 475.977167 377.008187 
L 476.441247 376.124777 
L 476.673287 369.798775 
L 477.369408 372.570827 
L 477.601448 374.450159 
L 478.297569 372.686722 
L 478.529609 372.058196 
L 478.993689 378.379211 
L 479.92185 378.046993 
L 482.242252 371.341207 
L 482.706332 378.577367 
L 483.402453 377.515496 
L 484.330614 372.407847 
L 484.562654 375.075996 
L 484.794694 378.506989 
L 485.490815 374.669228 
L 486.186935 373.860259 
L 486.651016 378.020973 
L 487.115096 375.285299 
L 487.579177 375.529874 
L 487.811217 377.210751 
L 488.043257 374.938543 
L 488.507337 369.255864 
L 488.971418 373.575692 
L 489.899579 378.012291 
L 490.131619 377.391805 
L 491.05978 373.727781 
L 491.98794 377.944798 
L 492.684061 371.734236 
L 493.148141 373.249724 
L 493.612222 377.898334 
L 493.844262 373.42319 
L 495.004463 365.59345 
L 495.236503 366.884882 
L 495.468543 365.432213 
L 495.932624 367.689649 
L 496.164664 367.550501 
L 496.396704 365.543233 
L 496.860785 369.751093 
L 497.092825 367.365117 
L 497.556905 370.963748 
L 498.020986 369.724353 
L 500.109347 356.560042 
L 500.341387 358.770448 
L 501.733629 368.229794 
L 501.965669 367.830627 
L 502.89383 362.240255 
L 503.12587 364.664704 
L 504.750151 375.248453 
L 505.446272 372.872337 
L 505.678312 375.276116 
L 505.910352 374.962116 
L 506.374433 367.691903 
L 507.070553 369.172073 
L 508.230754 377.947112 
L 508.462794 373.169128 
L 509.158915 377.937075 
L 509.390955 377.052178 
L 509.622995 371.587699 
L 510.087076 378.494592 
L 510.551156 372.536431 
L 510.783196 373.196176 
L 512.175438 366.333954 
L 512.407478 369.477943 
L 512.871558 365.082669 
L 513.103598 365.01464 
L 514.95992 375.126621 
L 515.19196 373.581316 
L 515.656041 376.377444 
L 515.888081 377.639918 
L 516.120121 373.974248 
L 516.352161 375.29973 
L 516.816242 372.001555 
L 517.048282 376.234199 
L 517.280322 377.513927 
L 517.744402 375.722581 
L 517.976443 375.817756 
L 518.672563 373.367453 
L 518.904603 374.640868 
L 519.136644 375.076739 
L 519.368684 372.351959 
L 519.600724 376.411815 
L 520.064804 374.75224 
L 520.992965 378.628672 
L 521.457046 378.199454 
L 521.689086 375.136399 
L 521.921126 378.515078 
L 522.385206 376.062388 
L 523.081327 375.892938 
L 523.545407 378.323818 
L 525.865809 366.857686 
L 526.09785 369.297048 
L 529.578453 378.575234 
L 530.506613 377.817851 
L 531.666814 375.856938 
L 531.202734 378.281229 
L 531.898855 376.908855 
L 532.130895 377.943373 
L 532.362935 376.383751 
L 532.827015 377.036287 
L 533.059056 377.015789 
L 533.291096 378.29277 
L 533.523136 378.121631 
L 534.683337 370.658187 
L 535.147417 371.950447 
L 535.611498 367.600894 
L 535.843538 371.81376 
L 536.075578 375.809912 
L 536.539659 369.59625 
L 536.771699 371.735751 
L 537.003739 371.899271 
L 537.235779 374.755208 
L 537.69986 372.008655 
L 538.16394 369.916529 
L 538.39598 373.619663 
L 538.39598 373.619663 
" clip-path="url(#pfd592af952)" style="fill: none; stroke: #e41a1c; stroke-width: 2; stroke-linecap: square"/>
   </g>
   <g id="patch_6">
    <path d="M 51.111563 386.275937 
L 51.111563 218.036094 
" style="fill: none; stroke: #7f7f7f; stroke-width: 1.8; stroke-linejoin: miter; stroke-linecap: square"/>
   </g>
   <g id="patch_7">
    <path d="M 51.111563 386.275937 
L 561.6 386.275937 
" style="fill: none; stroke: #7f7f7f; stroke-width: 1.8; stroke-linejoin: miter; stroke-linecap: square"/>
   </g>
  </g>
 </g>
 <defs>
  <clipPath id="p3924cb5d7e">
   <rect x="51.111563" y="22.318125" width="510.488437" height="168.239844"/>
  </clipPath>
  <clipPath id="pfd592af952">
   <rect x="51.111563" y="218.036094" width="510.488437" height="168.239844"/>
  </clipPath>
 </defs>
</svg>
