<?xml version="1.0" encoding="utf-8" standalone="no"?>
<!DOCTYPE svg PUBLIC "-//W3C//DTD SVG 1.1//EN"
  "http://www.w3.org/Graphics/SVG/1.1/DTD/svg11.dtd">
<svg xmlns:xlink="http://www.w3.org/1999/xlink" width="568.8pt" height="424.8pt" viewBox="0 0 568.8 424.8" xmlns="http://www.w3.org/2000/svg" version="1.1">
 <metadata>
  <rdf:RDF xmlns:dc="http://purl.org/dc/elements/1.1/" xmlns:cc="http://creativecommons.org/ns#" xmlns:rdf="http://www.w3.org/1999/02/22-rdf-syntax-ns#">
   <cc:Work>
    <dc:type rdf:resource="http://purl.org/dc/dcmitype/StillImage"/>
    <dc:date>2026-06-01T19:49:17.952029</dc:date>
    <dc:format>image/svg+xml</dc:format>
    <dc:creator>
     <cc:Agent>
      <dc:title>Matplotlib v3.10.9, https://matplotlib.org/</dc:title>
     </cc:Agent>
    </dc:creator>
   </cc:Work>
  </rdf:RDF>
 </metadata>
 <defs>
  <style type="text/css">*{stroke-linejoin: round; stroke-linecap: butt}</style>
 </defs>
 <g id="figure_1">
  <g id="patch_1">
   <path d="M 0 424.8 
L 568.8 424.8 
L 568.8 0 
L 0 0 
L 0 424.8 
z
" style="fill: none"/>
  </g>
  <g id="axes_1">
   <g id="patch_2">
    <path d="M 44.749063 190.557969 
L 561.6 190.557969 
L 561.6 22.318125 
L 44.749063 22.318125 
L 44.749063 190.557969 
z
" style="fill: none"/>
   </g>
   <g id="matplotlib.axis_1">
    <g id="xtick_1">
     <g id="line2d_1">
      <defs>
       <path id="mbbc8b64980" d="M 0 0 
L 0 3.5 
" style="stroke: #7f7f7f; stroke-width: 1.8"/>
      </defs>
      <g>
       <use xlink:href="#mbbc8b64980" x="68.242287" y="190.557969" style="fill: #7f7f7f; stroke: #7f7f7f; stroke-width: 1.8"/>
      </g>
     </g>
     <g id="text_1">
      <!-- 0.0 -->
      <g style="fill: #7f7f7f" transform="translate(60.290724 205.156406) scale(0.1 -0.1)">
       <defs>
        <path id="DejaVuSans-30" d="M 2034 4250 
Q 1547 4250 1301 3770 
Q 1056 3291 1056 2328 
Q 1056 1369 1301 889 
Q 1547 409 2034 409 
Q 2525 409 2770 889 
Q 3016 1369 3016 2328 
Q 3016 3291 2770 3770 
Q 2525 4250 2034 4250 
z
M 2034 4750 
Q 2819 4750 3233 4129 
Q 3647 3509 3647 2328 
Q 3647 1150 3233 529 
Q 2819 -91 2034 -91 
Q 1250 -91 836 529 
Q 422 1150 422 2328 
Q 422 3509 836 4129 
Q 1250 4750 2034 4750 
z
" transform="scale(0.015625)"/>
        <path id="DejaVuSans-2e" d="M 684 794 
L 1344 794 
L 1344 0 
L 684 0 
L 684 794 
z
" transform="scale(0.015625)"/>
       </defs>
       <use xlink:href="#DejaVuSans-30"/>
       <use xlink:href="#DejaVuSans-2e" transform="translate(63.623047 0)"/>
       <use xlink:href="#DejaVuSans-30" transform="translate(95.410156 0)"/>
      </g>
     </g>
    </g>
    <g id="xtick_2">
     <g id="line2d_2">
      <g>
       <use xlink:href="#mbbc8b64980" x="126.975348" y="190.557969" style="fill: #7f7f7f; stroke: #7f7f7f; stroke-width: 1.8"/>
      </g>
     </g>
     <g id="text_2">
      <!-- 2.5 -->
      <g style="fill: #7f7f7f" transform="translate(119.023786 205.156406) scale(0.1 -0.1)">
       <defs>
        <path id="DejaVuSans-32" d="M 1228 531 
L 3431 531 
L 3431 0 
L 469 0 
L 469 531 
Q 828 903 1448 1529 
Q 2069 2156 2228 2338 
Q 2531 2678 2651 2914 
Q 2772 3150 2772 3378 
Q 2772 3750 2511 3984 
Q 2250 4219 1831 4219 
Q 1534 4219 1204 4116 
Q 875 4013 500 3803 
L 500 4441 
Q 881 4594 1212 4672 
Q 1544 4750 1819 4750 
Q 2544 4750 2975 4387 
Q 3406 4025 3406 3419 
Q 3406 3131 3298 2873 
Q 3191 2616 2906 2266 
Q 2828 2175 2409 1742 
Q 1991 1309 1228 531 
z
" transform="scale(0.015625)"/>
        <path id="DejaVuSans-35" d="M 691 4666 
L 3169 4666 
L 3169 4134 
L 1269 4134 
L 1269 2991 
Q 1406 3038 1543 3061 
Q 1681 3084 1819 3084 
Q 2600 3084 3056 2656 
Q 3513 2228 3513 1497 
Q 3513 744 3044 326 
Q 2575 -91 1722 -91 
Q 1428 -91 1123 -41 
Q 819 9 494 109 
L 494 744 
Q 775 591 1075 516 
Q 1375 441 1709 441 
Q 2250 441 2565 725 
Q 2881 1009 2881 1497 
Q 2881 1984 2565 2268 
Q 2250 2553 1709 2553 
Q 1456 2553 1204 2497 
Q 953 2441 691 2322 
L 691 4666 
z
" transform="scale(0.015625)"/>
       </defs>
       <use xlink:href="#DejaVuSans-32"/>
       <use xlink:href="#DejaVuSans-2e" transform="translate(63.623047 0)"/>
       <use xlink:href="#DejaVuSans-35" transform="translate(95.410156 0)"/>
      </g>
     </g>
    </g>
    <g id="xtick_3">
     <g id="line2d_3">
      <g>
       <use xlink:href="#mbbc8b64980" x="185.708409" y="190.557969" style="fill: #7f7f7f; stroke: #7f7f7f; stroke-width: 1.8"/>
      </g>
     </g>
     <g id="text_3">
      <!-- 5.0 -->
      <g style="fill: #7f7f7f" transform="translate(177.756847 205.156406) scale(0.1 -0.1)">
       <use xlink:href="#DejaVuSans-35"/>
       <use xlink:href="#DejaVuSans-2e" transform="translate(63.623047 0)"/>
       <use xlink:href="#DejaVuSans-30" transform="translate(95.410156 0)"/>
      </g>
     </g>
    </g>
    <g id="xtick_4">
     <g id="line2d_4">
      <g>
       <use xlink:href="#mbbc8b64980" x="244.44147" y="190.557969" style="fill: #7f7f7f; stroke: #7f7f7f; stroke-width: 1.8"/>
      </g>
     </g>
     <g id="text_4">
      <!-- 7.5 -->
      <g style="fill: #7f7f7f" transform="translate(236.489908 205.156406) scale(0.1 -0.1)">
       <defs>
        <path id="DejaVuSans-37" d="M 525 4666 
L 3525 4666 
L 3525 4397 
L 1831 0 
L 1172 0 
L 2766 4134 
L 525 4134 
L 525 4666 
z
" transform="scale(0.015625)"/>
       </defs>
       <use xlink:href="#DejaVuSans-37"/>
       <use xlink:href="#DejaVuSans-2e" transform="translate(63.623047 0)"/>
       <use xlink:href="#DejaVuSans-35" transform="translate(95.410156 0)"/>
      </g>
     </g>
    </g>
    <g id="xtick_5">
     <g id="line2d_5">
      <g>
       <use xlink:href="#mbbc8b64980" x="303.174531" y="190.557969" style="fill: #7f7f7f; stroke: #7f7f7f; stroke-width: 1.8"/>
      </g>
     </g>
     <g id="text_5">
      <!-- 10.0 -->
      <g style="fill: #7f7f7f" transform="translate(292.041719 205.156406) scale(0.1 -0.1)">
       <defs>
        <path id="DejaVuSans-31" d="M 794 531 
L 1825 531 
L 1825 4091 
L 703 3866 
L 703 4441 
L 1819 4666 
L 2450 4666 
L 2450 531 
L 3481 531 
L 3481 0 
L 794 0 
L 794 531 
z
" transform="scale(0.015625)"/>
       </defs>
       <use xlink:href="#DejaVuSans-31"/>
       <use xlink:href="#DejaVuSans-30" transform="translate(63.623047 0)"/>
       <use xlink:href="#DejaVuSans-2e" transform="translate(127.246094 0)"/>
       <use xlink:href="#DejaVuSans-30" transform="translate(159.033203 0)"/>
      </g>
     </g>
    </g>
    <g id="xtick_6">
     <g id="line2d_6">
      <g>
       <use xlink:href="#mbbc8b64980" x="361.907592" y="190.557969" style="fill: #7f7f7f; stroke: #7f7f7f; stroke-width: 1.8"/>
      </g>
     </g>
     <g id="text_6">
      <!-- 12.5 -->
      <g style="fill: #7f7f7f" transform="translate(350.77478 205.156406) scale(0.1 -0.1)">
       <use xlink:href="#DejaVuSans-31"/>
       <use xlink:href="#DejaVuSans-32" transform="translate(63.623047 0)"/>
       <use xlink:href="#DejaVuSans-2e" transform="translate(127.246094 0)"/>
       <use xlink:href="#DejaVuSans-35" transform="translate(159.033203 0)"/>
      </g>
     </g>
    </g>
    <g id="xtick_7">
     <g id="line2d_7">
      <g>
       <use xlink:href="#mbbc8b64980" x="420.640653" y="190.557969" style="fill: #7f7f7f; stroke: #7f7f7f; stroke-width: 1.8"/>
      </g>
     </g>
     <g id="text_7">
      <!-- 15.0 -->
      <g style="fill: #7f7f7f" transform="translate(409.507841 205.156406) scale(0.1 -0.1)">
       <use xlink:href="#DejaVuSans-31"/>
       <use xlink:href="#DejaVuSans-35" transform="translate(63.623047 0)"/>
       <use xlink:href="#DejaVuSans-2e" transform="translate(127.246094 0)"/>
       <use xlink:href="#DejaVuSans-30" transform="translate(159.033203 0)"/>
      </g>
     </g>
    </g>
    <g id="xtick_8">
     <g id="line2d_8">
      <g>
       <use xlink:href="#mbbc8b64980" x="479.373714" y="190.557969" style="fill: #7f7f7f; stroke: #7f7f7f; stroke-width: 1.8"/>
      </g>
     </g>
     <g id="text_8">
      <!-- 17.5 -->
      <g style="fill: #7f7f7f" transform="translate(468.240902 205.156406) scale(0.1 -0.1)">
       <use xlink:href="#DejaVuSans-31"/>
       <use xlink:href="#DejaVuSans-37" transform="translate(63.623047 0)"/>
       <use xlink:href="#DejaVuSans-2e" transform="translate(127.246094 0)"/>
       <use xlink:href="#DejaVuSans-35" transform="translate(159.033203 0)"/>
      </g>
     </g>
    </g>
    <g id="xtick_9">
     <g id="line2d_9">
      <g>
       <use xlink:href="#mbbc8b64980" x="538.106776" y="190.557969" style="fill: #7f7f7f; stroke: #7f7f7f; stroke-width: 1.8"/>
      </g>
     </g>
     <g id="text_9">
      <!-- 20.0 -->
      <g style="fill: #7f7f7f" transform="translate(526.973963 205.156406) scale(0.1 -0.1)">
       <use xlink:href="#DejaVuSans-32"/>
       <use xlink:href="#DejaVuSans-30" transform="translate(63.623047 0)"/>
       <use xlink:href="#DejaVuSans-2e" transform="translate(127.246094 0)"/>
       <use xlink:href="#DejaVuSans-30" transform="translate(159.033203 0)"/>
      </g>
     </g>
    </g>
   </g>
   <g id="matplotlib.axis_2">
    <g id="ytick_1">
     <g id="line2d_10">
      <defs>
       <path id="m89f16514ca" d="M 0 0 
L -3.5 0 
" style="stroke: #7f7f7f; stroke-width: 1.8"/>
      </defs>
      <g>
       <use xlink:href="#m89f16514ca" x="44.749063" y="182.910703" style="fill: #7f7f7f; stroke: #7f7f7f; stroke-width: 1.8"/>
      </g>
     </g>
     <g id="text_10">
      <!-- 0.0 -->
      <g style="fill: #7f7f7f" transform="translate(21.845938 186.709922) scale(0.1 -0.1)">
       <use xlink:href="#DejaVuSans-30"/>
       <use xlink:href="#DejaVuSans-2e" transform="translate(63.623047 0)"/>
       <use xlink:href="#DejaVuSans-30" transform="translate(95.410156 0)"/>
      </g>
     </g>
    </g>
    <g id="ytick_2">
     <g id="line2d_11">
      <g>
       <use xlink:href="#m89f16514ca" x="44.749063" y="148.843321" style="fill: #7f7f7f; stroke: #7f7f7f; stroke-width: 1.8"/>
      </g>
     </g>
     <g id="text_11">
      <!-- 0.1 -->
      <g style="fill: #7f7f7f" transform="translate(21.845938 152.64254) scale(0.1 -0.1)">
       <use xlink:href="#DejaVuSans-30"/>
       <use xlink:href="#DejaVuSans-2e" transform="translate(63.623047 0)"/>
       <use xlink:href="#DejaVuSans-31" transform="translate(95.410156 0)"/>
      </g>
     </g>
    </g>
    <g id="ytick_3">
     <g id="line2d_12">
      <g>
       <use xlink:href="#m89f16514ca" x="44.749063" y="114.775939" style="fill: #7f7f7f; stroke: #7f7f7f; stroke-width: 1.8"/>
      </g>
     </g>
     <g id="text_12">
      <!-- 0.2 -->
      <g style="fill: #7f7f7f" transform="translate(21.845938 118.575158) scale(0.1 -0.1)">
       <use xlink:href="#DejaVuSans-30"/>
       <use xlink:href="#DejaVuSans-2e" transform="translate(63.623047 0)"/>
       <use xlink:href="#DejaVuSans-32" transform="translate(95.410156 0)"/>
      </g>
     </g>
    </g>
    <g id="ytick_4">
     <g id="line2d_13">
      <g>
       <use xlink:href="#m89f16514ca" x="44.749063" y="80.708557" style="fill: #7f7f7f; stroke: #7f7f7f; stroke-width: 1.8"/>
      </g>
     </g>
     <g id="text_13">
      <!-- 0.3 -->
      <g style="fill: #7f7f7f" transform="translate(21.845938 84.507775) scale(0.1 -0.1)">
       <defs>
        <path id="DejaVuSans-33" d="M 2597 2516 
Q 3050 2419 3304 2112 
Q 3559 1806 3559 1356 
Q 3559 666 3084 287 
Q 2609 -91 1734 -91 
Q 1441 -91 1130 -33 
Q 819 25 488 141 
L 488 750 
Q 750 597 1062 519 
Q 1375 441 1716 441 
Q 2309 441 2620 675 
Q 2931 909 2931 1356 
Q 2931 1769 2642 2001 
Q 2353 2234 1838 2234 
L 1294 2234 
L 1294 2753 
L 1863 2753 
Q 2328 2753 2575 2939 
Q 2822 3125 2822 3475 
Q 2822 3834 2567 4026 
Q 2313 4219 1838 4219 
Q 1578 4219 1281 4162 
Q 984 4106 628 3988 
L 628 4550 
Q 988 4650 1302 4700 
Q 1616 4750 1894 4750 
Q 2613 4750 3031 4423 
Q 3450 4097 3450 3541 
Q 3450 3153 3228 2886 
Q 3006 2619 2597 2516 
z
" transform="scale(0.015625)"/>
       </defs>
       <use xlink:href="#DejaVuSans-30"/>
       <use xlink:href="#DejaVuSans-2e" transform="translate(63.623047 0)"/>
       <use xlink:href="#DejaVuSans-33" transform="translate(95.410156 0)"/>
      </g>
     </g>
    </g>
    <g id="ytick_5">
     <g id="line2d_14">
      <g>
       <use xlink:href="#m89f16514ca" x="44.749063" y="46.641174" style="fill: #7f7f7f; stroke: #7f7f7f; stroke-width: 1.8"/>
      </g>
     </g>
     <g id="text_14">
      <!-- 0.4 -->
      <g style="fill: #7f7f7f" transform="translate(21.845938 50.440393) scale(0.1 -0.1)">
       <defs>
        <path id="DejaVuSans-34" d="M 2419 4116 
L 825 1625 
L 2419 1625 
L 2419 4116 
z
M 2253 4666 
L 3047 4666 
L 3047 1625 
L 3713 1625 
L 3713 1100 
L 3047 1100 
L 3047 0 
L 2419 0 
L 2419 1100 
L 313 1100 
L 313 1709 
L 2253 4666 
z
" transform="scale(0.015625)"/>
       </defs>
       <use xlink:href="#DejaVuSans-30"/>
       <use xlink:href="#DejaVuSans-2e" transform="translate(63.623047 0)"/>
       <use xlink:href="#DejaVuSans-34" transform="translate(95.410156 0)"/>
      </g>
     </g>
    </g>
    <g id="text_15">
     <!-- Position Error [m] -->
     <g style="fill: #7f7f7f" transform="translate(15.558281 154.397187) rotate(-90) scale(0.11 -0.11)">
      <defs>
       <path id="DejaVuSans-50" d="M 1259 4147 
L 1259 2394 
L 2053 2394 
Q 2494 2394 2734 2622 
Q 2975 2850 2975 3272 
Q 2975 3691 2734 3919 
Q 2494 4147 2053 4147 
L 1259 4147 
z
M 628 4666 
L 2053 4666 
Q 2838 4666 3239 4311 
Q 3641 3956 3641 3272 
Q 3641 2581 3239 2228 
Q 2838 1875 2053 1875 
L 1259 1875 
L 1259 0 
L 628 0 
L 628 4666 
z
" transform="scale(0.015625)"/>
       <path id="DejaVuSans-6f" d="M 1959 3097 
Q 1497 3097 1228 2736 
Q 959 2375 959 1747 
Q 959 1119 1226 758 
Q 1494 397 1959 397 
Q 2419 397 2687 759 
Q 2956 1122 2956 1747 
Q 2956 2369 2687 2733 
Q 2419 3097 1959 3097 
z
M 1959 3584 
Q 2709 3584 3137 3096 
Q 3566 2609 3566 1747 
Q 3566 888 3137 398 
Q 2709 -91 1959 -91 
Q 1206 -91 779 398 
Q 353 888 353 1747 
Q 353 2609 779 3096 
Q 1206 3584 1959 3584 
z
" transform="scale(0.015625)"/>
       <path id="DejaVuSans-73" d="M 2834 3397 
L 2834 2853 
Q 2591 2978 2328 3040 
Q 2066 3103 1784 3103 
Q 1356 3103 1142 2972 
Q 928 2841 928 2578 
Q 928 2378 1081 2264 
Q 1234 2150 1697 2047 
L 1894 2003 
Q 2506 1872 2764 1633 
Q 3022 1394 3022 966 
Q 3022 478 2636 193 
Q 2250 -91 1575 -91 
Q 1294 -91 989 -36 
Q 684 19 347 128 
L 347 722 
Q 666 556 975 473 
Q 1284 391 1588 391 
Q 1994 391 2212 530 
Q 2431 669 2431 922 
Q 2431 1156 2273 1281 
Q 2116 1406 1581 1522 
L 1381 1569 
Q 847 1681 609 1914 
Q 372 2147 372 2553 
Q 372 3047 722 3315 
Q 1072 3584 1716 3584 
Q 2034 3584 2315 3537 
Q 2597 3491 2834 3397 
z
" transform="scale(0.015625)"/>
       <path id="DejaVuSans-69" d="M 603 3500 
L 1178 3500 
L 1178 0 
L 603 0 
L 603 3500 
z
M 603 4863 
L 1178 4863 
L 1178 4134 
L 603 4134 
L 603 4863 
z
" transform="scale(0.015625)"/>
       <path id="DejaVuSans-74" d="M 1172 4494 
L 1172 3500 
L 2356 3500 
L 2356 3053 
L 1172 3053 
L 1172 1153 
Q 1172 725 1289 603 
Q 1406 481 1766 481 
L 2356 481 
L 2356 0 
L 1766 0 
Q 1100 0 847 248 
Q 594 497 594 1153 
L 594 3053 
L 172 3053 
L 172 3500 
L 594 3500 
L 594 4494 
L 1172 4494 
z
" transform="scale(0.015625)"/>
       <path id="DejaVuSans-6e" d="M 3513 2113 
L 3513 0 
L 2938 0 
L 2938 2094 
Q 2938 2591 2744 2837 
Q 2550 3084 2163 3084 
Q 1697 3084 1428 2787 
Q 1159 2491 1159 1978 
L 1159 0 
L 581 0 
L 581 3500 
L 1159 3500 
L 1159 2956 
Q 1366 3272 1645 3428 
Q 1925 3584 2291 3584 
Q 2894 3584 3203 3211 
Q 3513 2838 3513 2113 
z
" transform="scale(0.015625)"/>
       <path id="DejaVuSans-20" transform="scale(0.015625)"/>
       <path id="DejaVuSans-45" d="M 628 4666 
L 3578 4666 
L 3578 4134 
L 1259 4134 
L 1259 2753 
L 3481 2753 
L 3481 2222 
L 1259 2222 
L 1259 531 
L 3634 531 
L 3634 0 
L 628 0 
L 628 4666 
z
" transform="scale(0.015625)"/>
       <path id="DejaVuSans-72" d="M 2631 2963 
Q 2534 3019 2420 3045 
Q 2306 3072 2169 3072 
Q 1681 3072 1420 2755 
Q 1159 2438 1159 1844 
L 1159 0 
L 581 0 
L 581 3500 
L 1159 3500 
L 1159 2956 
Q 1341 3275 1631 3429 
Q 1922 3584 2338 3584 
Q 2397 3584 2469 3576 
Q 2541 3569 2628 3553 
L 2631 2963 
z
" transform="scale(0.015625)"/>
       <path id="DejaVuSans-5b" d="M 550 4863 
L 1875 4863 
L 1875 4416 
L 1125 4416 
L 1125 -397 
L 1875 -397 
L 1875 -844 
L 550 -844 
L 550 4863 
z
" transform="scale(0.015625)"/>
       <path id="DejaVuSans-6d" d="M 3328 2828 
Q 3544 3216 3844 3400 
Q 4144 3584 4550 3584 
Q 5097 3584 5394 3201 
Q 5691 2819 5691 2113 
L 5691 0 
L 5113 0 
L 5113 2094 
Q 5113 2597 4934 2840 
Q 4756 3084 4391 3084 
Q 3944 3084 3684 2787 
Q 3425 2491 3425 1978 
L 3425 0 
L 2847 0 
L 2847 2094 
Q 2847 2600 2669 2842 
Q 2491 3084 2119 3084 
Q 1678 3084 1418 2786 
Q 1159 2488 1159 1978 
L 1159 0 
L 581 0 
L 581 3500 
L 1159 3500 
L 1159 2956 
Q 1356 3278 1631 3431 
Q 1906 3584 2284 3584 
Q 2666 3584 2933 3390 
Q 3200 3197 3328 2828 
z
" transform="scale(0.015625)"/>
       <path id="DejaVuSans-5d" d="M 1947 4863 
L 1947 -844 
L 622 -844 
L 622 -397 
L 1369 -397 
L 1369 4416 
L 622 4416 
L 622 4863 
L 1947 4863 
z
" transform="scale(0.015625)"/>
      </defs>
      <use xlink:href="#DejaVuSans-50"/>
      <use xlink:href="#DejaVuSans-6f" transform="translate(56.677734 0)"/>
      <use xlink:href="#DejaVuSans-73" transform="translate(117.859375 0)"/>
      <use xlink:href="#DejaVuSans-69" transform="translate(169.958984 0)"/>
      <use xlink:href="#DejaVuSans-74" transform="translate(197.742188 0)"/>
      <use xlink:href="#DejaVuSans-69" transform="translate(236.951172 0)"/>
      <use xlink:href="#DejaVuSans-6f" transform="translate(264.734375 0)"/>
      <use xlink:href="#DejaVuSans-6e" transform="translate(325.916016 0)"/>
      <use xlink:href="#DejaVuSans-20" transform="translate(389.294922 0)"/>
      <use xlink:href="#DejaVuSans-45" transform="translate(421.082031 0)"/>
      <use xlink:href="#DejaVuSans-72" transform="translate(484.265625 0)"/>
      <use xlink:href="#DejaVuSans-72" transform="translate(523.628906 0)"/>
      <use xlink:href="#DejaVuSans-6f" transform="translate(562.492188 0)"/>
      <use xlink:href="#DejaVuSans-72" transform="translate(623.673828 0)"/>
      <use xlink:href="#DejaVuSans-20" transform="translate(664.787109 0)"/>
      <use xlink:href="#DejaVuSans-5b" transform="translate(696.574219 0)"/>
      <use xlink:href="#DejaVuSans-6d" transform="translate(735.587891 0)"/>
      <use xlink:href="#DejaVuSans-5d" transform="translate(833 0)"/>
     </g>
    </g>
   </g>
   <g id="line2d_15">
    <path d="M 68.242287 182.910703 
L 68.947084 156.669972 
L 69.65188 53.973536 
L 70.356677 95.679166 
L 72.001203 145.361406 
L 73.645729 59.336399 
L 73.880661 63.498742 
L 74.115593 71.742963 
L 74.585458 59.691952 
L 74.82039 67.928316 
L 75.290254 29.965391 
L 75.760119 51.407609 
L 75.995051 51.766937 
L 76.699848 49.987887 
L 77.639577 74.779033 
L 77.874509 69.792944 
L 78.109441 78.219961 
L 79.753967 129.556479 
L 78.579306 76.123082 
L 79.988899 119.063834 
L 80.223831 118.355021 
L 80.928628 182.127478 
L 81.633425 176.917549 
L 81.868357 181.786899 
L 82.103289 174.974905 
L 83.043018 155.605012 
L 83.277951 156.397228 
L 83.982747 181.483025 
L 84.452612 175.850416 
L 84.687544 178.55086 
L 86.097137 144.486108 
L 86.567002 154.827662 
L 87.036866 150.078378 
L 87.506731 131.312119 
L 87.741663 150.143801 
L 87.976595 152.428994 
L 88.916324 126.545779 
L 89.151257 135.135054 
L 90.795782 169.508169 
L 91.500579 158.163157 
L 91.970444 164.037353 
L 92.205376 165.629412 
L 93.849902 123.523436 
L 94.319766 108.783295 
L 94.554698 109.223956 
L 95.259495 149.932125 
L 95.72936 129.225576 
L 97.138953 164.163104 
L 97.608817 159.571992 
L 98.078682 164.097058 
L 98.548546 177.596681 
L 99.018411 174.786063 
L 99.253343 171.484288 
L 99.488275 176.83639 
L 99.723208 182.872299 
L 100.428004 178.469776 
L 100.897869 159.531706 
L 101.367733 171.992826 
L 101.602666 182.752331 
L 102.307462 172.758046 
L 102.542395 172.843523 
L 102.777327 168.542796 
L 103.012259 176.670006 
L 103.247191 173.57463 
L 103.717056 176.322445 
L 104.18692 149.151566 
L 105.126649 157.126839 
L 105.596514 170.978357 
L 106.066378 166.066345 
L 107.945836 131.338777 
L 108.180768 131.513288 
L 108.415701 130.752979 
L 108.650633 131.941434 
L 108.885565 119.601054 
L 109.590362 132.269675 
L 110.295159 168.230488 
L 110.765023 165.066401 
L 111.704752 149.258349 
L 111.939684 149.928174 
L 112.879413 177.831252 
L 113.114346 172.501784 
L 113.349278 167.996235 
L 113.58421 182.302759 
L 113.819142 177.788417 
L 114.054075 178.993796 
L 114.758871 178.22838 
L 115.463668 165.6786 
L 115.6986 166.608527 
L 115.933533 180.420361 
L 116.638329 178.03365 
L 117.108194 165.655318 
L 118.047923 166.842992 
L 118.517787 163.591935 
L 118.987652 172.713258 
L 119.927381 148.197429 
L 120.162313 148.658675 
L 120.397245 148.129619 
L 120.632177 158.388178 
L 121.102042 147.56508 
L 121.336974 143.66434 
L 121.571906 153.314502 
L 122.276703 165.401136 
L 122.511635 155.730673 
L 122.9815 145.798603 
L 123.686297 169.934268 
L 124.156161 165.408104 
L 125.09589 157.395624 
L 126.505484 175.017704 
L 127.680145 151.587097 
L 127.915077 152.65531 
L 128.150009 166.547013 
L 128.619874 150.107864 
L 130.734264 127.937168 
L 130.969196 136.142179 
L 131.673993 125.830563 
L 131.908925 123.320989 
L 132.143857 130.236465 
L 132.613722 131.787818 
L 133.083586 148.638487 
L 133.553451 132.820805 
L 134.023315 129.750361 
L 134.258248 131.288429 
L 134.49318 125.664878 
L 134.728112 139.807821 
L 134.963044 135.254986 
L 135.197977 135.832945 
L 135.667841 127.706578 
L 136.137706 136.436988 
L 136.372638 144.492641 
L 137.077435 141.299629 
L 137.312367 139.676797 
L 137.547299 141.014006 
L 138.487028 150.621695 
L 138.72196 148.615729 
L 138.956892 149.384617 
L 139.191825 148.469754 
L 139.896621 140.418529 
L 139.661689 149.179692 
L 140.131554 144.241583 
L 140.83635 155.476208 
L 141.071283 153.732666 
L 141.306215 147.770759 
L 141.541147 162.088451 
L 141.776079 159.533612 
L 142.011012 174.540872 
L 142.480876 166.413566 
L 142.715808 154.145216 
L 143.420605 161.673099 
L 145.769928 133.219646 
L 146.00486 133.723506 
L 146.944589 154.898438 
L 147.414453 154.742936 
L 148.824047 126.761028 
L 149.293911 128.641972 
L 149.998708 124.716045 
L 151.408301 151.737374 
L 151.878166 144.085622 
L 152.34803 147.117002 
L 152.582963 146.77879 
L 154.462421 171.048114 
L 154.697353 162.214183 
L 155.40215 168.911786 
L 155.637082 180.017008 
L 156.341879 172.050078 
L 156.811743 162.781667 
L 157.046675 166.736872 
L 158.221337 182.425574 
L 158.456269 181.983254 
L 158.691201 174.284111 
L 159.395998 179.727091 
L 159.63093 181.758942 
L 160.100794 181.159126 
L 161.510388 145.283158 
L 161.74532 141.234447 
L 161.980252 152.276149 
L 162.215185 146.024905 
L 164.329575 182.530524 
L 164.564507 180.844529 
L 164.799439 170.174339 
L 165.504236 181.841512 
L 165.974101 172.534977 
L 166.443965 179.161231 
L 166.678897 182.671802 
L 167.148762 176.867323 
L 167.383694 180.119076 
L 167.618626 179.61433 
L 168.793287 148.723083 
L 169.263152 153.927804 
L 169.967949 161.93061 
L 170.437813 160.108614 
L 171.14261 141.197704 
L 171.377542 142.757522 
L 171.612474 153.724095 
L 172.082339 136.532086 
L 172.317271 142.446464 
L 172.552203 138.273605 
L 173.022068 143.483049 
L 173.257 148.859108 
L 173.491932 141.230554 
L 174.901526 111.565682 
L 175.37139 123.924288 
L 175.606323 118.608286 
L 176.546052 97.842763 
L 176.780984 99.063545 
L 177.015916 101.792021 
L 177.250848 95.54056 
L 178.42551 80.214318 
L 178.190577 95.849465 
L 178.660442 84.976094 
L 180.5399 111.094274 
L 181.479629 129.255804 
L 181.714561 124.818884 
L 181.949493 119.435979 
L 182.184425 129.584003 
L 182.65429 120.95991 
L 184.76868 159.028307 
L 185.003612 149.429616 
L 185.238545 161.434664 
L 185.708409 154.461026 
L 185.943341 154.642465 
L 186.178274 164.345622 
L 186.413206 154.315614 
L 186.88307 160.054734 
L 187.118003 153.326479 
L 187.587867 167.595002 
L 187.822799 162.507663 
L 188.292664 173.314689 
L 188.762528 174.98987 
L 189.467325 162.656655 
L 190.641986 178.885513 
L 191.346783 175.894392 
L 192.521444 180.197091 
L 192.756376 180.187403 
L 194.870767 145.749101 
L 195.105699 148.605769 
L 195.575563 177.961456 
L 196.28036 159.86172 
L 197.455021 149.575931 
L 198.864615 176.65317 
L 199.099547 171.743703 
L 199.804344 176.744926 
L 200.039276 182.786228 
L 200.274208 173.575159 
L 200.744073 179.869897 
L 200.979005 181.051529 
L 202.858463 149.79242 
L 203.328327 156.327311 
L 203.56326 155.480236 
L 203.798192 155.81791 
L 205.442718 121.48722 
L 205.67765 131.096305 
L 205.912582 131.817744 
L 206.617379 139.224745 
L 206.382447 131.608081 
L 206.852311 133.173519 
L 207.322176 123.030254 
L 207.557108 133.224458 
L 208.496837 141.703723 
L 209.90643 180.088176 
L 210.141362 179.774022 
L 212.02082 167.336751 
L 212.725617 173.349931 
L 212.960549 164.646617 
L 213.430414 181.54506 
L 214.135211 172.428424 
L 214.605075 177.005517 
L 214.840007 178.966671 
L 215.309872 174.539281 
L 216.014669 159.428777 
L 216.484533 164.840685 
L 216.954398 171.824591 
L 217.659194 169.318254 
L 217.894127 163.315471 
L 218.363991 172.239735 
L 219.30372 181.487117 
L 219.538652 179.806893 
L 219.773585 180.271044 
L 221.653042 136.680822 
L 222.122907 145.614421 
L 223.767433 167.838174 
L 225.177026 160.625536 
L 225.411958 161.786136 
L 226.58662 150.189087 
L 227.291416 159.751984 
L 227.526349 153.523423 
L 227.996213 146.397704 
L 228.231145 147.382158 
L 230.110603 182.003721 
L 230.8154 167.744301 
L 231.520197 172.083835 
L 232.224993 180.9383 
L 234.104451 133.32737 
L 234.574316 119.913934 
L 234.809248 107.771815 
L 235.514045 110.995841 
L 237.863367 136.319136 
L 238.0983 133.433843 
L 238.333232 134.491427 
L 239.038029 126.059583 
L 239.272961 133.313593 
L 239.507893 135.414666 
L 239.742825 130.749083 
L 242.32708 96.530519 
L 243.736673 142.547338 
L 244.44147 111.574022 
L 244.676402 116.311641 
L 245.146267 136.7709 
L 245.851064 134.739819 
L 246.085996 132.999167 
L 246.320928 137.557978 
L 246.790793 135.282998 
L 247.730522 173.875163 
L 247.965454 182.650256 
L 248.435318 171.143142 
L 248.670251 175.610556 
L 248.905183 175.817059 
L 249.140115 169.700964 
L 249.60998 181.372186 
L 250.549709 166.565679 
L 250.784641 176.23346 
L 251.489437 182.066117 
L 251.959302 181.923831 
L 252.899031 156.377468 
L 253.133963 164.782037 
L 254.073692 182.385895 
L 254.308624 181.92053 
L 255.483286 165.257037 
L 255.718218 170.784163 
L 256.188082 182.038468 
L 256.657947 173.475471 
L 258.06754 145.79854 
L 259.242202 163.173309 
L 259.477134 156.465964 
L 260.181931 159.961163 
L 261.12166 178.583162 
L 261.356592 174.942825 
L 261.826456 171.39966 
L 262.061388 176.258653 
L 262.296321 175.76383 
L 262.766185 182.748079 
L 263.470982 180.132038 
L 263.940846 166.02401 
L 264.410711 179.232986 
L 264.880575 179.435742 
L 265.115508 170.516971 
L 265.35044 181.141762 
L 265.820304 170.765696 
L 266.525101 161.226168 
L 266.994966 161.3345 
L 269.344288 139.284535 
L 269.814153 140.051408 
L 270.049085 140.250532 
L 270.284017 152.326007 
L 270.753882 146.172903 
L 271.928543 120.153556 
L 272.163475 127.98116 
L 272.868272 120.567792 
L 274.042933 134.062645 
L 274.512797 121.221016 
L 274.982662 126.240588 
L 277.097052 161.521577 
L 277.566917 164.177718 
L 278.036781 152.396791 
L 279.681307 180.932006 
L 280.151171 171.675942 
L 280.621036 162.213048 
L 281.325833 165.28904 
L 281.560765 166.799165 
L 281.795697 159.245723 
L 282.030629 173.562863 
L 282.500494 181.41625 
L 282.970358 179.271108 
L 283.675155 167.565245 
L 284.145019 172.032902 
L 284.379952 181.247502 
L 285.084748 172.595949 
L 285.789545 182.208782 
L 286.25941 177.471307 
L 286.729274 177.018961 
L 286.964206 182.634706 
L 287.434071 171.044402 
L 288.3738 163.007049 
L 288.608732 171.113299 
L 289.313529 164.153479 
L 289.548461 163.609655 
L 289.783393 165.011422 
L 291.192987 181.682123 
L 292.132716 145.152271 
L 292.367648 147.456054 
L 293.777241 179.957222 
L 294.71697 162.237041 
L 294.247106 180.781402 
L 295.186835 166.655723 
L 296.596428 182.764322 
L 297.536157 182.136389 
L 298.945751 169.540086 
L 299.180683 174.166204 
L 299.650548 164.457272 
L 300.355344 154.973909 
L 300.590277 163.300467 
L 300.825209 165.475791 
L 301.764938 156.12879 
L 301.99987 167.099135 
L 302.469735 147.665548 
L 304.349192 176.103821 
L 304.819057 164.024104 
L 305.053989 172.331064 
L 305.288921 178.844359 
L 305.993718 177.628326 
L 306.933447 163.475938 
L 307.168379 169.666671 
L 307.403312 171.183188 
L 307.638244 170.591195 
L 307.873176 181.159457 
L 308.343041 160.815954 
L 310.457431 179.874796 
L 311.39716 149.154496 
L 312.101957 156.693918 
L 312.571821 153.07572 
L 312.806753 159.453727 
L 313.51155 167.181949 
L 313.981414 180.996676 
L 314.451279 173.450504 
L 314.921143 167.16314 
L 315.391008 172.972085 
L 316.330737 181.711878 
L 316.565669 179.003514 
L 317.74033 166.098875 
L 317.975263 167.054814 
L 318.445127 152.366465 
L 318.914992 166.447279 
L 319.619788 161.485004 
L 319.384856 167.601463 
L 319.854721 164.395331 
L 321.734179 182.499452 
L 321.969111 179.163794 
L 322.438975 166.758807 
L 322.90884 153.785197 
L 323.378704 169.065059 
L 325.728027 134.901737 
L 325.962959 137.112244 
L 326.667756 152.264653 
L 327.607485 147.910472 
L 328.077349 135.950534 
L 328.312281 150.386713 
L 329.017078 173.40752 
L 329.486943 168.466635 
L 329.721875 165.78373 
L 329.956807 173.782839 
L 330.191739 178.269952 
L 330.661604 171.548568 
L 330.896536 174.251378 
L 331.366401 168.886724 
L 332.071197 182.39471 
L 333.245859 149.389575 
L 333.950655 167.531355 
L 334.42052 162.271412 
L 334.890384 160.440513 
L 335.360249 158.947279 
L 336.299978 180.742973 
L 336.769842 152.636948 
L 337.709571 157.001146 
L 338.179436 140.799358 
L 339.354097 141.986298 
L 339.589029 146.039784 
L 339.823961 138.694908 
L 340.058894 141.394459 
L 340.528758 132.548939 
L 340.76369 136.011267 
L 341.468487 165.535228 
L 341.938352 153.896198 
L 343.347945 125.235555 
L 344.052742 145.348171 
L 344.522606 142.167073 
L 344.757538 132.942698 
L 345.462335 135.021464 
L 345.697267 146.401066 
L 346.402064 144.6408 
L 346.636996 143.076466 
L 346.871929 154.54041 
L 347.576725 152.842061 
L 348.281522 131.150209 
L 348.751387 133.361833 
L 349.221251 141.15473 
L 349.691116 136.834406 
L 349.926048 134.902868 
L 350.16098 140.466222 
L 350.630845 147.178476 
L 350.865777 140.995018 
L 351.100709 139.457491 
L 352.745235 168.71454 
L 352.980167 167.540396 
L 353.215099 171.754077 
L 353.684964 163.821151 
L 353.919896 167.628724 
L 354.154828 157.756516 
L 354.624693 167.552708 
L 355.094557 178.783186 
L 355.799354 175.617631 
L 356.034286 174.621452 
L 356.739083 161.8231 
L 357.208947 166.481788 
L 357.44388 171.903025 
L 357.913744 163.690744 
L 358.148676 170.757851 
L 358.853473 154.503603 
L 359.323338 162.823191 
L 359.55827 162.679984 
L 360.732931 181.565815 
L 360.967863 177.733449 
L 361.437728 164.245757 
L 361.907592 175.896106 
L 362.142525 179.013824 
L 362.612389 172.347403 
L 362.847321 167.901595 
L 363.082254 175.28851 
L 363.78705 172.586703 
L 364.256915 182.530137 
L 364.491847 167.744963 
L 365.196644 171.574013 
L 366.371305 181.770168 
L 366.841169 170.279717 
L 367.311034 174.754519 
L 368.015831 181.523451 
L 368.250763 175.175758 
L 368.485695 174.92944 
L 369.660356 160.334101 
L 370.130221 181.991584 
L 370.835018 175.701263 
L 371.06995 176.346468 
L 371.539814 182.489598 
L 372.244611 168.016681 
L 372.479543 171.040664 
L 372.949408 159.235614 
L 373.419272 163.979329 
L 374.124069 182.885923 
L 374.359001 177.551397 
L 376.708324 116.426748 
L 376.943256 128.541518 
L 377.41312 141.514594 
L 377.648053 127.254382 
L 377.882985 128.710125 
L 378.117917 123.872763 
L 378.587782 133.523873 
L 378.822714 137.998447 
L 379.292578 132.913057 
L 379.527511 136.777763 
L 379.762443 125.013786 
L 380.702172 127.074009 
L 381.641901 135.692758 
L 382.346698 103.31187 
L 382.816562 116.74113 
L 387.515207 169.967299 
L 387.985071 166.008713 
L 388.220004 161.391805 
L 388.454936 168.821844 
L 388.9248 182.151142 
L 389.394665 180.928658 
L 390.334394 166.416565 
L 390.804258 181.864242 
L 391.274123 175.520165 
L 391.509055 173.340444 
L 391.743987 176.467714 
L 391.97892 176.059089 
L 392.918649 181.381567 
L 393.153581 180.896946 
L 393.388513 171.102753 
L 394.09331 180.661865 
L 394.328242 180.15946 
L 394.563174 174.18103 
L 395.033039 182.642395 
L 395.267971 180.175921 
L 395.502903 180.305003 
L 395.737836 182.034592 
L 396.2077 178.856776 
L 396.442632 180.450286 
L 396.677564 179.037193 
L 396.912497 179.136685 
L 397.617293 150.425757 
L 398.32209 157.329659 
L 398.791955 153.411004 
L 400.201548 180.427074 
L 401.611142 140.544727 
L 401.846074 143.508804 
L 402.315938 127.594204 
L 402.785803 137.985089 
L 403.255667 140.531681 
L 403.4906 137.85631 
L 403.725532 136.368412 
L 403.960464 139.511542 
L 404.195396 123.355517 
L 404.900193 128.198623 
L 405.839922 136.780085 
L 406.074854 125.944187 
L 406.544719 144.793569 
L 406.779651 143.529976 
L 407.014583 135.157276 
L 407.249515 143.296235 
L 407.484448 155.972368 
L 408.189244 141.803398 
L 408.659109 126.055662 
L 408.894041 139.563202 
L 409.83377 144.052468 
L 410.068702 141.31367 
L 410.303635 149.899858 
L 410.538567 151.699803 
L 411.008431 165.333055 
L 411.478296 163.348449 
L 413.122822 137.795664 
L 413.357754 143.767848 
L 413.827618 136.329557 
L 414.532415 130.049401 
L 414.767347 130.28891 
L 415.00228 119.181283 
L 415.707076 128.033259 
L 415.942009 129.761399 
L 416.176941 127.612125 
L 416.411873 129.47648 
L 416.646805 122.694533 
L 417.11667 136.248744 
L 417.351602 139.436341 
L 417.586534 136.089074 
L 417.821466 124.769943 
L 418.291331 137.881018 
L 420.170789 155.467649 
L 421.34545 144.404646 
L 421.580382 146.756268 
L 423.694773 176.634332 
L 423.929705 172.543422 
L 424.399569 159.422651 
L 424.634502 166.33219 
L 425.104366 182.313476 
L 425.574231 175.470586 
L 427.218756 149.70762 
L 427.453688 155.391494 
L 428.393417 171.914466 
L 428.863282 168.32198 
L 429.098214 170.391599 
L 429.568079 166.761317 
L 430.272875 160.734226 
L 430.507808 160.837786 
L 431.447537 172.274413 
L 431.682469 163.909167 
L 432.152333 178.763662 
L 432.387266 180.469973 
L 432.622198 173.535488 
L 433.326995 178.548412 
L 433.561927 177.855817 
L 433.796859 180.252731 
L 434.031791 182.622762 
L 434.266724 178.916684 
L 434.501656 164.617861 
L 435.206453 175.862252 
L 435.441385 173.780086 
L 435.676317 177.226693 
L 436.146182 182.562698 
L 437.555775 146.844141 
L 438.965368 137.502924 
L 439.200301 147.589308 
L 440.14003 145.4761 
L 440.844826 166.257006 
L 441.549623 159.580899 
L 442.489352 133.612028 
L 442.724284 143.653797 
L 443.194149 159.343526 
L 443.898946 151.224917 
L 444.603742 143.965252 
L 444.36881 153.778454 
L 444.838675 150.360702 
L 445.073607 150.408716 
L 445.308539 149.312743 
L 445.543471 140.145911 
L 445.778404 159.147755 
L 446.013336 179.002035 
L 446.718133 168.28026 
L 447.187997 168.881612 
L 447.892794 155.135096 
L 449.067455 165.157605 
L 450.007184 172.884536 
L 450.711981 166.281863 
L 450.946913 172.574332 
L 451.65171 171.16742 
L 451.886642 178.292162 
L 452.826371 158.454637 
L 453.061303 168.420198 
L 453.296235 162.985863 
L 453.531168 171.790237 
L 453.7661 167.854376 
L 454.470897 179.516756 
L 455.175693 178.457813 
L 455.410626 182.772578 
L 455.645558 171.349078 
L 455.88049 168.495592 
L 456.115422 181.150296 
L 456.820219 175.279285 
L 457.055151 175.22108 
L 457.99488 182.80385 
L 458.464745 179.59578 
L 459.169541 163.924737 
L 459.639406 171.21688 
L 460.10927 180.177988 
L 460.814067 179.482186 
L 462.223661 159.213386 
L 462.693525 167.784905 
L 463.16339 164.718191 
L 463.633254 158.81415 
L 464.572983 179.057619 
L 465.042848 178.680054 
L 465.27778 172.500769 
L 465.512712 182.763453 
L 465.982577 177.641313 
L 466.217509 179.725268 
L 466.452441 178.911957 
L 467.39217 145.612487 
L 468.096967 150.806583 
L 468.331899 150.633577 
L 469.271628 163.597114 
L 469.50656 159.765895 
L 470.916154 122.259278 
L 472.325747 145.570908 
L 472.560679 144.498905 
L 473.500408 122.615535 
L 473.735341 131.753626 
L 474.67507 166.475985 
L 475.379866 159.901605 
L 476.084663 153.73694 
L 476.319595 157.520537 
L 477.964121 178.598501 
L 478.199053 169.277481 
L 478.90385 172.694422 
L 479.138782 179.577679 
L 479.373714 171.080083 
L 479.608647 172.485145 
L 479.843579 166.403349 
L 480.078511 182.524841 
L 480.548376 180.370689 
L 480.783308 179.290276 
L 481.253172 162.890071 
L 481.723037 176.548224 
L 481.957969 177.215922 
L 482.192901 176.204004 
L 482.662766 166.501249 
L 483.367563 167.989574 
L 483.602495 172.220443 
L 483.837427 160.486177 
L 484.307292 169.121466 
L 484.777156 171.27013 
L 485.247021 181.115146 
L 485.716885 169.256017 
L 486.18675 179.597267 
L 486.656614 168.369362 
L 486.891546 173.077761 
L 487.361411 167.321329 
L 487.596343 172.940917 
L 487.831275 165.708268 
L 488.30114 173.824885 
L 488.536072 180.455884 
L 489.240869 177.592613 
L 489.945665 181.314706 
L 490.41553 180.301863 
L 491.120327 160.298968 
L 491.590191 171.068122 
L 491.825123 172.711049 
L 492.060056 163.502959 
L 492.294988 181.390008 
L 492.52992 179.126554 
L 492.764852 181.991788 
L 492.999785 176.623989 
L 495.584039 141.078627 
L 496.053904 151.016367 
L 496.523768 145.444397 
L 496.758701 141.632518 
L 497.228565 146.588503 
L 497.463497 147.084508 
L 497.69843 154.002651 
L 498.403226 146.100774 
L 498.638159 145.030113 
L 498.873091 154.100902 
L 499.108023 142.545226 
L 499.342955 142.669114 
L 500.282684 132.243194 
L 499.81282 144.296588 
L 500.517616 132.953528 
L 500.752549 128.983188 
L 501.222413 137.576962 
L 501.457345 135.606204 
L 501.92721 150.031756 
L 502.632007 148.589427 
L 503.336803 123.814883 
L 503.806668 127.744885 
L 504.0416 127.427037 
L 504.981329 106.089389 
L 505.216261 109.05726 
L 505.451194 108.320716 
L 506.860787 79.926 
L 507.095719 84.80616 
L 507.330652 85.632552 
L 508.270381 107.370215 
L 508.975177 105.632972 
L 509.445042 99.208768 
L 509.679974 102.977826 
L 510.854635 121.729946 
L 511.3245 110.781136 
L 511.559432 126.159733 
L 514.848483 180.74591 
L 515.083416 181.857161 
L 515.318348 180.606141 
L 515.55328 169.394098 
L 516.258077 173.100604 
L 516.493009 175.86723 
L 516.727941 165.029838 
L 517.432738 178.026096 
L 519.547128 129.511136 
L 519.782061 136.097227 
L 520.251925 122.219095 
L 520.486857 119.934039 
L 520.956722 124.292143 
L 522.601247 154.331921 
L 522.83618 150.457388 
L 523.775909 167.149374 
L 524.010841 165.024976 
L 524.715638 173.618251 
L 524.95057 165.068576 
L 525.185502 163.673864 
L 525.420434 166.173321 
L 525.655367 164.617045 
L 526.830028 148.738225 
L 528.944418 182.617524 
L 529.17935 177.755862 
L 529.884147 180.926341 
L 530.354012 182.886724 
L 530.823876 181.103723 
L 531.998537 167.834674 
L 532.233469 176.330119 
L 532.703334 166.476527 
L 532.938266 165.4898 
L 534.582792 182.738203 
L 534.817724 181.861808 
L 535.052656 182.43744 
L 535.757453 182.803428 
L 536.227318 170.079951 
L 536.932114 181.814481 
L 537.401979 179.162691 
L 537.636911 178.117653 
L 537.871843 179.145704 
L 538.106776 181.802456 
L 538.106776 181.802456 
" clip-path="url(#pcc1f0c4c9b)" style="fill: none; stroke: #e41a1c; stroke-width: 2; stroke-linecap: square"/>
   </g>
   <g id="patch_3">
    <path d="M 44.749063 190.557969 
L 44.749063 22.318125 
" style="fill: none; stroke: #7f7f7f; stroke-width: 1.8; stroke-linejoin: miter; stroke-linecap: square"/>
   </g>
   <g id="patch_4">
    <path d="M 44.749063 190.557969 
L 561.6 190.557969 
" style="fill: none; stroke: #7f7f7f; stroke-width: 1.8; stroke-linejoin: miter; stroke-linecap: square"/>
   </g>
   <g id="text_16">
    <!-- Kalman Filter Estimation Error -->
    <g style="fill: #7f7f7f" transform="translate(200.161094 16.318125) scale(0.12 -0.12)">
     <defs>
      <path id="DejaVuSans-Bold-4b" d="M 588 4666 
L 1791 4666 
L 1791 2963 
L 3525 4666 
L 4922 4666 
L 2675 2456 
L 5153 0 
L 3647 0 
L 1791 1838 
L 1791 0 
L 588 0 
L 588 4666 
z
" transform="scale(0.015625)"/>
      <path id="DejaVuSans-Bold-61" d="M 2106 1575 
Q 1756 1575 1579 1456 
Q 1403 1338 1403 1106 
Q 1403 894 1545 773 
Q 1688 653 1941 653 
Q 2256 653 2472 879 
Q 2688 1106 2688 1447 
L 2688 1575 
L 2106 1575 
z
M 3816 1997 
L 3816 0 
L 2688 0 
L 2688 519 
Q 2463 200 2181 54 
Q 1900 -91 1497 -91 
Q 953 -91 614 226 
Q 275 544 275 1050 
Q 275 1666 698 1953 
Q 1122 2241 2028 2241 
L 2688 2241 
L 2688 2328 
Q 2688 2594 2478 2717 
Q 2269 2841 1825 2841 
Q 1466 2841 1156 2769 
Q 847 2697 581 2553 
L 581 3406 
Q 941 3494 1303 3539 
Q 1666 3584 2028 3584 
Q 2975 3584 3395 3211 
Q 3816 2838 3816 1997 
z
" transform="scale(0.015625)"/>
      <path id="DejaVuSans-Bold-6c" d="M 538 4863 
L 1656 4863 
L 1656 0 
L 538 0 
L 538 4863 
z
" transform="scale(0.015625)"/>
      <path id="DejaVuSans-Bold-6d" d="M 3781 2919 
Q 3994 3244 4286 3414 
Q 4578 3584 4928 3584 
Q 5531 3584 5847 3212 
Q 6163 2841 6163 2131 
L 6163 0 
L 5038 0 
L 5038 1825 
Q 5041 1866 5042 1909 
Q 5044 1953 5044 2034 
Q 5044 2406 4934 2573 
Q 4825 2741 4581 2741 
Q 4263 2741 4089 2478 
Q 3916 2216 3909 1719 
L 3909 0 
L 2784 0 
L 2784 1825 
Q 2784 2406 2684 2573 
Q 2584 2741 2328 2741 
Q 2006 2741 1831 2477 
Q 1656 2213 1656 1722 
L 1656 0 
L 531 0 
L 531 3500 
L 1656 3500 
L 1656 2988 
Q 1863 3284 2130 3434 
Q 2397 3584 2719 3584 
Q 3081 3584 3359 3409 
Q 3638 3234 3781 2919 
z
" transform="scale(0.015625)"/>
      <path id="DejaVuSans-Bold-6e" d="M 4056 2131 
L 4056 0 
L 2931 0 
L 2931 347 
L 2931 1631 
Q 2931 2084 2911 2256 
Q 2891 2428 2841 2509 
Q 2775 2619 2662 2680 
Q 2550 2741 2406 2741 
Q 2056 2741 1856 2470 
Q 1656 2200 1656 1722 
L 1656 0 
L 538 0 
L 538 3500 
L 1656 3500 
L 1656 2988 
Q 1909 3294 2193 3439 
Q 2478 3584 2822 3584 
Q 3428 3584 3742 3212 
Q 4056 2841 4056 2131 
z
" transform="scale(0.015625)"/>
      <path id="DejaVuSans-Bold-20" transform="scale(0.015625)"/>
      <path id="DejaVuSans-Bold-46" d="M 588 4666 
L 3834 4666 
L 3834 3756 
L 1791 3756 
L 1791 2888 
L 3713 2888 
L 3713 1978 
L 1791 1978 
L 1791 0 
L 588 0 
L 588 4666 
z
" transform="scale(0.015625)"/>
      <path id="DejaVuSans-Bold-69" d="M 538 3500 
L 1656 3500 
L 1656 0 
L 538 0 
L 538 3500 
z
M 538 4863 
L 1656 4863 
L 1656 3950 
L 538 3950 
L 538 4863 
z
" transform="scale(0.015625)"/>
      <path id="DejaVuSans-Bold-74" d="M 1759 4494 
L 1759 3500 
L 2913 3500 
L 2913 2700 
L 1759 2700 
L 1759 1216 
Q 1759 972 1856 886 
Q 1953 800 2241 800 
L 2816 800 
L 2816 0 
L 1856 0 
Q 1194 0 917 276 
Q 641 553 641 1216 
L 641 2700 
L 84 2700 
L 84 3500 
L 641 3500 
L 641 4494 
L 1759 4494 
z
" transform="scale(0.015625)"/>
      <path id="DejaVuSans-Bold-65" d="M 4031 1759 
L 4031 1441 
L 1416 1441 
Q 1456 1047 1700 850 
Q 1944 653 2381 653 
Q 2734 653 3104 758 
Q 3475 863 3866 1075 
L 3866 213 
Q 3469 63 3072 -14 
Q 2675 -91 2278 -91 
Q 1328 -91 801 392 
Q 275 875 275 1747 
Q 275 2603 792 3093 
Q 1309 3584 2216 3584 
Q 3041 3584 3536 3087 
Q 4031 2591 4031 1759 
z
M 2881 2131 
Q 2881 2450 2695 2645 
Q 2509 2841 2209 2841 
Q 1884 2841 1681 2658 
Q 1478 2475 1428 2131 
L 2881 2131 
z
" transform="scale(0.015625)"/>
      <path id="DejaVuSans-Bold-72" d="M 3138 2547 
Q 2991 2616 2845 2648 
Q 2700 2681 2553 2681 
Q 2122 2681 1889 2404 
Q 1656 2128 1656 1613 
L 1656 0 
L 538 0 
L 538 3500 
L 1656 3500 
L 1656 2925 
Q 1872 3269 2151 3426 
Q 2431 3584 2822 3584 
Q 2878 3584 2943 3579 
Q 3009 3575 3134 3559 
L 3138 2547 
z
" transform="scale(0.015625)"/>
      <path id="DejaVuSans-Bold-45" d="M 588 4666 
L 3834 4666 
L 3834 3756 
L 1791 3756 
L 1791 2888 
L 3713 2888 
L 3713 1978 
L 1791 1978 
L 1791 909 
L 3903 909 
L 3903 0 
L 588 0 
L 588 4666 
z
" transform="scale(0.015625)"/>
      <path id="DejaVuSans-Bold-73" d="M 3272 3391 
L 3272 2541 
Q 2913 2691 2578 2766 
Q 2244 2841 1947 2841 
Q 1628 2841 1473 2761 
Q 1319 2681 1319 2516 
Q 1319 2381 1436 2309 
Q 1553 2238 1856 2203 
L 2053 2175 
Q 2913 2066 3209 1816 
Q 3506 1566 3506 1031 
Q 3506 472 3093 190 
Q 2681 -91 1863 -91 
Q 1516 -91 1145 -36 
Q 775 19 384 128 
L 384 978 
Q 719 816 1070 734 
Q 1422 653 1784 653 
Q 2113 653 2278 743 
Q 2444 834 2444 1013 
Q 2444 1163 2330 1236 
Q 2216 1309 1875 1350 
L 1678 1375 
Q 931 1469 631 1722 
Q 331 1975 331 2491 
Q 331 3047 712 3315 
Q 1094 3584 1881 3584 
Q 2191 3584 2531 3537 
Q 2872 3491 3272 3391 
z
" transform="scale(0.015625)"/>
      <path id="DejaVuSans-Bold-6f" d="M 2203 2784 
Q 1831 2784 1636 2517 
Q 1441 2250 1441 1747 
Q 1441 1244 1636 976 
Q 1831 709 2203 709 
Q 2569 709 2762 976 
Q 2956 1244 2956 1747 
Q 2956 2250 2762 2517 
Q 2569 2784 2203 2784 
z
M 2203 3584 
Q 3106 3584 3614 3096 
Q 4122 2609 4122 1747 
Q 4122 884 3614 396 
Q 3106 -91 2203 -91 
Q 1297 -91 786 396 
Q 275 884 275 1747 
Q 275 2609 786 3096 
Q 1297 3584 2203 3584 
z
" transform="scale(0.015625)"/>
     </defs>
     <use xlink:href="#DejaVuSans-Bold-4b"/>
     <use xlink:href="#DejaVuSans-Bold-61" transform="translate(77.490234 0)"/>
     <use xlink:href="#DejaVuSans-Bold-6c" transform="translate(144.970703 0)"/>
     <use xlink:href="#DejaVuSans-Bold-6d" transform="translate(179.248047 0)"/>
     <use xlink:href="#DejaVuSans-Bold-61" transform="translate(283.447266 0)"/>
     <use xlink:href="#DejaVuSans-Bold-6e" transform="translate(350.927734 0)"/>
     <use xlink:href="#DejaVuSans-Bold-20" transform="translate(422.119141 0)"/>
     <use xlink:href="#DejaVuSans-Bold-46" transform="translate(456.933594 0)"/>
     <use xlink:href="#DejaVuSans-Bold-69" transform="translate(525.244141 0)"/>
     <use xlink:href="#DejaVuSans-Bold-6c" transform="translate(559.521484 0)"/>
     <use xlink:href="#DejaVuSans-Bold-74" transform="translate(593.798828 0)"/>
     <use xlink:href="#DejaVuSans-Bold-65" transform="translate(641.601562 0)"/>
     <use xlink:href="#DejaVuSans-Bold-72" transform="translate(709.423828 0)"/>
     <use xlink:href="#DejaVuSans-Bold-20" transform="translate(758.740234 0)"/>
     <use xlink:href="#DejaVuSans-Bold-45" transform="translate(793.554688 0)"/>
     <use xlink:href="#DejaVuSans-Bold-73" transform="translate(861.865234 0)"/>
     <use xlink:href="#DejaVuSans-Bold-74" transform="translate(921.386719 0)"/>
     <use xlink:href="#DejaVuSans-Bold-69" transform="translate(969.189453 0)"/>
     <use xlink:href="#DejaVuSans-Bold-6d" transform="translate(1003.466797 0)"/>
     <use xlink:href="#DejaVuSans-Bold-61" transform="translate(1107.666016 0)"/>
     <use xlink:href="#DejaVuSans-Bold-74" transform="translate(1175.146484 0)"/>
     <use xlink:href="#DejaVuSans-Bold-69" transform="translate(1222.949219 0)"/>
     <use xlink:href="#DejaVuSans-Bold-6f" transform="translate(1257.226562 0)"/>
     <use xlink:href="#DejaVuSans-Bold-6e" transform="translate(1325.927734 0)"/>
     <use xlink:href="#DejaVuSans-Bold-20" transform="translate(1397.119141 0)"/>
     <use xlink:href="#DejaVuSans-Bold-45" transform="translate(1431.933594 0)"/>
     <use xlink:href="#DejaVuSans-Bold-72" transform="translate(1500.244141 0)"/>
     <use xlink:href="#DejaVuSans-Bold-72" transform="translate(1549.560547 0)"/>
     <use xlink:href="#DejaVuSans-Bold-6f" transform="translate(1598.876953 0)"/>
     <use xlink:href="#DejaVuSans-Bold-72" transform="translate(1667.578125 0)"/>
    </g>
   </g>
  </g>
  <g id="axes_2">
   <g id="patch_5">
    <path d="M 44.749063 386.275937 
L 561.6 386.275937 
L 561.6 218.036094 
L 44.749063 218.036094 
L 44.749063 386.275937 
z
" style="fill: none"/>
   </g>
   <g id="matplotlib.axis_3">
    <g id="xtick_10">
     <g id="line2d_16">
      <g>
       <use xlink:href="#mbbc8b64980" x="68.242287" y="386.275937" style="fill: #7f7f7f; stroke: #7f7f7f; stroke-width: 1.8"/>
      </g>
     </g>
     <g id="text_17">
      <!-- 0.0 -->
      <g style="fill: #7f7f7f" transform="translate(60.290724 400.874375) scale(0.1 -0.1)">
       <use xlink:href="#DejaVuSans-30"/>
       <use xlink:href="#DejaVuSans-2e" transform="translate(63.623047 0)"/>
       <use xlink:href="#DejaVuSans-30" transform="translate(95.410156 0)"/>
      </g>
     </g>
    </g>
    <g id="xtick_11">
     <g id="line2d_17">
      <g>
       <use xlink:href="#mbbc8b64980" x="126.975348" y="386.275937" style="fill: #7f7f7f; stroke: #7f7f7f; stroke-width: 1.8"/>
      </g>
     </g>
     <g id="text_18">
      <!-- 2.5 -->
      <g style="fill: #7f7f7f" transform="translate(119.023786 400.874375) scale(0.1 -0.1)">
       <use xlink:href="#DejaVuSans-32"/>
       <use xlink:href="#DejaVuSans-2e" transform="translate(63.623047 0)"/>
       <use xlink:href="#DejaVuSans-35" transform="translate(95.410156 0)"/>
      </g>
     </g>
    </g>
    <g id="xtick_12">
     <g id="line2d_18">
      <g>
       <use xlink:href="#mbbc8b64980" x="185.708409" y="386.275937" style="fill: #7f7f7f; stroke: #7f7f7f; stroke-width: 1.8"/>
      </g>
     </g>
     <g id="text_19">
      <!-- 5.0 -->
      <g style="fill: #7f7f7f" transform="translate(177.756847 400.874375) scale(0.1 -0.1)">
       <use xlink:href="#DejaVuSans-35"/>
       <use xlink:href="#DejaVuSans-2e" transform="translate(63.623047 0)"/>
       <use xlink:href="#DejaVuSans-30" transform="translate(95.410156 0)"/>
      </g>
     </g>
    </g>
    <g id="xtick_13">
     <g id="line2d_19">
      <g>
       <use xlink:href="#mbbc8b64980" x="244.44147" y="386.275937" style="fill: #7f7f7f; stroke: #7f7f7f; stroke-width: 1.8"/>
      </g>
     </g>
     <g id="text_20">
      <!-- 7.5 -->
      <g style="fill: #7f7f7f" transform="translate(236.489908 400.874375) scale(0.1 -0.1)">
       <use xlink:href="#DejaVuSans-37"/>
       <use xlink:href="#DejaVuSans-2e" transform="translate(63.623047 0)"/>
       <use xlink:href="#DejaVuSans-35" transform="translate(95.410156 0)"/>
      </g>
     </g>
    </g>
    <g id="xtick_14">
     <g id="line2d_20">
      <g>
       <use xlink:href="#mbbc8b64980" x="303.174531" y="386.275937" style="fill: #7f7f7f; stroke: #7f7f7f; stroke-width: 1.8"/>
      </g>
     </g>
     <g id="text_21">
      <!-- 10.0 -->
      <g style="fill: #7f7f7f" transform="translate(292.041719 400.874375) scale(0.1 -0.1)">
       <use xlink:href="#DejaVuSans-31"/>
       <use xlink:href="#DejaVuSans-30" transform="translate(63.623047 0)"/>
       <use xlink:href="#DejaVuSans-2e" transform="translate(127.246094 0)"/>
       <use xlink:href="#DejaVuSans-30" transform="translate(159.033203 0)"/>
      </g>
     </g>
    </g>
    <g id="xtick_15">
     <g id="line2d_21">
      <g>
       <use xlink:href="#mbbc8b64980" x="361.907592" y="386.275937" style="fill: #7f7f7f; stroke: #7f7f7f; stroke-width: 1.8"/>
      </g>
     </g>
     <g id="text_22">
      <!-- 12.5 -->
      <g style="fill: #7f7f7f" transform="translate(350.77478 400.874375) scale(0.1 -0.1)">
       <use xlink:href="#DejaVuSans-31"/>
       <use xlink:href="#DejaVuSans-32" transform="translate(63.623047 0)"/>
       <use xlink:href="#DejaVuSans-2e" transform="translate(127.246094 0)"/>
       <use xlink:href="#DejaVuSans-35" transform="translate(159.033203 0)"/>
      </g>
     </g>
    </g>
    <g id="xtick_16">
     <g id="line2d_22">
      <g>
       <use xlink:href="#mbbc8b64980" x="420.640653" y="386.275937" style="fill: #7f7f7f; stroke: #7f7f7f; stroke-width: 1.8"/>
      </g>
     </g>
     <g id="text_23">
      <!-- 15.0 -->
      <g style="fill: #7f7f7f" transform="translate(409.507841 400.874375) scale(0.1 -0.1)">
       <use xlink:href="#DejaVuSans-31"/>
       <use xlink:href="#DejaVuSans-35" transform="translate(63.623047 0)"/>
       <use xlink:href="#DejaVuSans-2e" transform="translate(127.246094 0)"/>
       <use xlink:href="#DejaVuSans-30" transform="translate(159.033203 0)"/>
      </g>
     </g>
    </g>
    <g id="xtick_17">
     <g id="line2d_23">
      <g>
       <use xlink:href="#mbbc8b64980" x="479.373714" y="386.275937" style="fill: #7f7f7f; stroke: #7f7f7f; stroke-width: 1.8"/>
      </g>
     </g>
     <g id="text_24">
      <!-- 17.5 -->
      <g style="fill: #7f7f7f" transform="translate(468.240902 400.874375) scale(0.1 -0.1)">
       <use xlink:href="#DejaVuSans-31"/>
       <use xlink:href="#DejaVuSans-37" transform="translate(63.623047 0)"/>
       <use xlink:href="#DejaVuSans-2e" transform="translate(127.246094 0)"/>
       <use xlink:href="#DejaVuSans-35" transform="translate(159.033203 0)"/>
      </g>
     </g>
    </g>
    <g id="xtick_18">
     <g id="line2d_24">
      <g>
       <use xlink:href="#mbbc8b64980" x="538.106776" y="386.275937" style="fill: #7f7f7f; stroke: #7f7f7f; stroke-width: 1.8"/>
      </g>
     </g>
     <g id="text_25">
      <!-- 20.0 -->
      <g style="fill: #7f7f7f" transform="translate(526.973963 400.874375) scale(0.1 -0.1)">
       <use xlink:href="#DejaVuSans-32"/>
       <use xlink:href="#DejaVuSans-30" transform="translate(63.623047 0)"/>
       <use xlink:href="#DejaVuSans-2e" transform="translate(127.246094 0)"/>
       <use xlink:href="#DejaVuSans-30" transform="translate(159.033203 0)"/>
      </g>
     </g>
    </g>
    <g id="text_26">
     <!-- Time [s] -->
     <g style="fill: #7f7f7f" transform="translate(280.812734 415.312344) scale(0.11 -0.11)">
      <defs>
       <path id="DejaVuSans-54" d="M -19 4666 
L 3928 4666 
L 3928 4134 
L 2272 4134 
L 2272 0 
L 1638 0 
L 1638 4134 
L -19 4134 
L -19 4666 
z
" transform="scale(0.015625)"/>
       <path id="DejaVuSans-65" d="M 3597 1894 
L 3597 1613 
L 953 1613 
Q 991 1019 1311 708 
Q 1631 397 2203 397 
Q 2534 397 2845 478 
Q 3156 559 3463 722 
L 3463 178 
Q 3153 47 2828 -22 
Q 2503 -91 2169 -91 
Q 1331 -91 842 396 
Q 353 884 353 1716 
Q 353 2575 817 3079 
Q 1281 3584 2069 3584 
Q 2775 3584 3186 3129 
Q 3597 2675 3597 1894 
z
M 3022 2063 
Q 3016 2534 2758 2815 
Q 2500 3097 2075 3097 
Q 1594 3097 1305 2825 
Q 1016 2553 972 2059 
L 3022 2063 
z
" transform="scale(0.015625)"/>
      </defs>
      <use xlink:href="#DejaVuSans-54"/>
      <use xlink:href="#DejaVuSans-69" transform="translate(57.958984 0)"/>
      <use xlink:href="#DejaVuSans-6d" transform="translate(85.742188 0)"/>
      <use xlink:href="#DejaVuSans-65" transform="translate(183.154297 0)"/>
      <use xlink:href="#DejaVuSans-20" transform="translate(244.677734 0)"/>
      <use xlink:href="#DejaVuSans-5b" transform="translate(276.464844 0)"/>
      <use xlink:href="#DejaVuSans-73" transform="translate(315.478516 0)"/>
      <use xlink:href="#DejaVuSans-5d" transform="translate(367.578125 0)"/>
     </g>
    </g>
   </g>
   <g id="matplotlib.axis_4">
    <g id="ytick_6">
     <g id="line2d_25">
      <g>
       <use xlink:href="#m89f16514ca" x="44.749063" y="378.630029" style="fill: #7f7f7f; stroke: #7f7f7f; stroke-width: 1.8"/>
      </g>
     </g>
     <g id="text_27">
      <!-- 0.0 -->
      <g style="fill: #7f7f7f" transform="translate(21.845938 382.429248) scale(0.1 -0.1)">
       <use xlink:href="#DejaVuSans-30"/>
       <use xlink:href="#DejaVuSans-2e" transform="translate(63.623047 0)"/>
       <use xlink:href="#DejaVuSans-30" transform="translate(95.410156 0)"/>
      </g>
     </g>
    </g>
    <g id="ytick_7">
     <g id="line2d_26">
      <g>
       <use xlink:href="#m89f16514ca" x="44.749063" y="341.804372" style="fill: #7f7f7f; stroke: #7f7f7f; stroke-width: 1.8"/>
      </g>
     </g>
     <g id="text_28">
      <!-- 0.5 -->
      <g style="fill: #7f7f7f" transform="translate(21.845938 345.603591) scale(0.1 -0.1)">
       <use xlink:href="#DejaVuSans-30"/>
       <use xlink:href="#DejaVuSans-2e" transform="translate(63.623047 0)"/>
       <use xlink:href="#DejaVuSans-35" transform="translate(95.410156 0)"/>
      </g>
     </g>
    </g>
    <g id="ytick_8">
     <g id="line2d_27">
      <g>
       <use xlink:href="#m89f16514ca" x="44.749063" y="304.978716" style="fill: #7f7f7f; stroke: #7f7f7f; stroke-width: 1.8"/>
      </g>
     </g>
     <g id="text_29">
      <!-- 1.0 -->
      <g style="fill: #7f7f7f" transform="translate(21.845938 308.777934) scale(0.1 -0.1)">
       <use xlink:href="#DejaVuSans-31"/>
       <use xlink:href="#DejaVuSans-2e" transform="translate(63.623047 0)"/>
       <use xlink:href="#DejaVuSans-30" transform="translate(95.410156 0)"/>
      </g>
     </g>
    </g>
    <g id="ytick_9">
     <g id="line2d_28">
      <g>
       <use xlink:href="#m89f16514ca" x="44.749063" y="268.153059" style="fill: #7f7f7f; stroke: #7f7f7f; stroke-width: 1.8"/>
      </g>
     </g>
     <g id="text_30">
      <!-- 1.5 -->
      <g style="fill: #7f7f7f" transform="translate(21.845938 271.952278) scale(0.1 -0.1)">
       <use xlink:href="#DejaVuSans-31"/>
       <use xlink:href="#DejaVuSans-2e" transform="translate(63.623047 0)"/>
       <use xlink:href="#DejaVuSans-35" transform="translate(95.410156 0)"/>
      </g>
     </g>
    </g>
    <g id="ytick_10">
     <g id="line2d_29">
      <g>
       <use xlink:href="#m89f16514ca" x="44.749063" y="231.327403" style="fill: #7f7f7f; stroke: #7f7f7f; stroke-width: 1.8"/>
      </g>
     </g>
     <g id="text_31">
      <!-- 2.0 -->
      <g style="fill: #7f7f7f" transform="translate(21.845938 235.126621) scale(0.1 -0.1)">
       <use xlink:href="#DejaVuSans-32"/>
       <use xlink:href="#DejaVuSans-2e" transform="translate(63.623047 0)"/>
       <use xlink:href="#DejaVuSans-30" transform="translate(95.410156 0)"/>
      </g>
     </g>
    </g>
    <g id="text_32">
     <!-- Velocity Error [m/s] -->
     <g style="fill: #7f7f7f" transform="translate(15.558281 354.999844) rotate(-90) scale(0.11 -0.11)">
      <defs>
       <path id="DejaVuSans-56" d="M 1831 0 
L 50 4666 
L 709 4666 
L 2188 738 
L 3669 4666 
L 4325 4666 
L 2547 0 
L 1831 0 
z
" transform="scale(0.015625)"/>
       <path id="DejaVuSans-6c" d="M 603 4863 
L 1178 4863 
L 1178 0 
L 603 0 
L 603 4863 
z
" transform="scale(0.015625)"/>
       <path id="DejaVuSans-63" d="M 3122 3366 
L 3122 2828 
Q 2878 2963 2633 3030 
Q 2388 3097 2138 3097 
Q 1578 3097 1268 2742 
Q 959 2388 959 1747 
Q 959 1106 1268 751 
Q 1578 397 2138 397 
Q 2388 397 2633 464 
Q 2878 531 3122 666 
L 3122 134 
Q 2881 22 2623 -34 
Q 2366 -91 2075 -91 
Q 1284 -91 818 406 
Q 353 903 353 1747 
Q 353 2603 823 3093 
Q 1294 3584 2113 3584 
Q 2378 3584 2631 3529 
Q 2884 3475 3122 3366 
z
" transform="scale(0.015625)"/>
       <path id="DejaVuSans-79" d="M 2059 -325 
Q 1816 -950 1584 -1140 
Q 1353 -1331 966 -1331 
L 506 -1331 
L 506 -850 
L 844 -850 
Q 1081 -850 1212 -737 
Q 1344 -625 1503 -206 
L 1606 56 
L 191 3500 
L 800 3500 
L 1894 763 
L 2988 3500 
L 3597 3500 
L 2059 -325 
z
" transform="scale(0.015625)"/>
       <path id="DejaVuSans-2f" d="M 1625 4666 
L 2156 4666 
L 531 -594 
L 0 -594 
L 1625 4666 
z
" transform="scale(0.015625)"/>
      </defs>
      <use xlink:href="#DejaVuSans-56"/>
      <use xlink:href="#DejaVuSans-65" transform="translate(60.658203 0)"/>
      <use xlink:href="#DejaVuSans-6c" transform="translate(122.181641 0)"/>
      <use xlink:href="#DejaVuSans-6f" transform="translate(149.964844 0)"/>
      <use xlink:href="#DejaVuSans-63" transform="translate(211.146484 0)"/>
      <use xlink:href="#DejaVuSans-69" transform="translate(266.126953 0)"/>
      <use xlink:href="#DejaVuSans-74" transform="translate(293.910156 0)"/>
      <use xlink:href="#DejaVuSans-79" transform="translate(333.119141 0)"/>
      <use xlink:href="#DejaVuSans-20" transform="translate(392.298828 0)"/>
      <use xlink:href="#DejaVuSans-45" transform="translate(424.085938 0)"/>
      <use xlink:href="#DejaVuSans-72" transform="translate(487.269531 0)"/>
      <use xlink:href="#DejaVuSans-72" transform="translate(526.632812 0)"/>
      <use xlink:href="#DejaVuSans-6f" transform="translate(565.496094 0)"/>
      <use xlink:href="#DejaVuSans-72" transform="translate(626.677734 0)"/>
      <use xlink:href="#DejaVuSans-20" transform="translate(667.791016 0)"/>
      <use xlink:href="#DejaVuSans-5b" transform="translate(699.578125 0)"/>
      <use xlink:href="#DejaVuSans-6d" transform="translate(738.591797 0)"/>
      <use xlink:href="#DejaVuSans-2f" transform="translate(836.003906 0)"/>
      <use xlink:href="#DejaVuSans-73" transform="translate(869.695312 0)"/>
      <use xlink:href="#DejaVuSans-5d" transform="translate(921.794922 0)"/>
     </g>
    </g>
   </g>
   <g id="line2d_30">
    <path d="M 68.242287 231.327403 
L 68.947084 230.906683 
L 69.65188 225.683359 
L 70.121745 228.343328 
L 72.001203 277.478008 
L 73.645729 243.613197 
L 74.82039 272.108212 
L 75.290254 250.653784 
L 75.525187 276.168253 
L 75.760119 275.591401 
L 78.814238 339.179331 
L 80.693696 374.062548 
L 81.16356 358.262243 
L 81.868357 361.634617 
L 83.043018 350.559547 
L 83.277951 351.620329 
L 83.982747 366.925554 
L 84.452612 363.418391 
L 84.687544 365.031736 
L 85.627273 374.953596 
L 85.862205 373.907106 
L 86.097137 371.894417 
L 86.33207 375.888519 
L 86.567002 376.651212 
L 86.801934 375.825632 
L 87.271799 373.442577 
L 87.506731 366.925351 
L 87.976595 376.074791 
L 88.211528 371.926437 
L 88.44646 373.944086 
L 88.916324 365.983038 
L 89.386189 373.347139 
L 90.325918 376.958543 
L 90.795782 373.932456 
L 91.265647 376.541274 
L 91.500579 378.419601 
L 91.970444 376.234184 
L 92.67524 372.530584 
L 92.910173 376.959232 
L 93.380037 369.77548 
L 94.319766 361.742736 
L 94.554698 362.182399 
L 95.259495 377.312857 
L 95.72936 370.024341 
L 96.904021 377.875036 
L 97.138953 374.527727 
L 97.608817 376.245556 
L 98.078682 374.750343 
L 98.783479 364.77061 
L 99.488275 367.094371 
L 100.897869 378.120395 
L 101.837598 368.130347 
L 102.07253 369.093417 
L 102.777327 375.78194 
L 103.247191 374.178766 
L 103.482124 373.320374 
L 103.717056 373.385384 
L 104.891717 377.692224 
L 105.596514 375.225397 
L 106.066378 376.961671 
L 106.536243 378.077258 
L 106.771175 376.255764 
L 108.885565 365.247095 
L 109.120497 366.360464 
L 109.590362 370.250051 
L 110.060226 377.173362 
L 110.765023 375.538411 
L 111.46982 378.627438 
L 111.704752 376.176188 
L 112.409549 376.71931 
L 113.349278 364.532204 
L 113.819142 368.326359 
L 114.523939 372.169652 
L 114.758871 369.065855 
L 115.463668 365.170612 
L 115.6986 365.714314 
L 117.108194 378.060266 
L 117.578058 375.667291 
L 118.282855 376.316146 
L 118.517787 378.299782 
L 118.987652 375.761167 
L 119.222584 375.886674 
L 119.457516 376.12835 
L 119.692448 375.394252 
L 119.927381 372.98755 
L 120.397245 373.14283 
L 120.632177 376.832784 
L 121.102042 373.10622 
L 121.336974 371.826513 
L 121.571906 375.324954 
L 121.806839 377.860727 
L 122.511635 376.215879 
L 122.9815 372.826063 
L 123.216432 378.404222 
L 124.156161 377.453799 
L 124.391093 378.405855 
L 124.860958 377.836779 
L 125.565755 378.182358 
L 126.505484 374.206796 
L 126.975348 378.092781 
L 127.445212 375.983934 
L 127.680145 374.815501 
L 128.150009 377.074457 
L 128.384941 377.822187 
L 129.32467 367.508521 
L 130.029467 368.207487 
L 130.969196 370.935887 
L 130.734264 367.880526 
L 131.439061 369.372107 
L 131.908925 367.01492 
L 132.143857 369.631394 
L 132.613722 370.464381 
L 133.083586 376.592278 
L 133.553451 371.133663 
L 134.023315 370.300858 
L 134.258248 370.976012 
L 134.49318 369.12626 
L 134.728112 374.24509 
L 134.963044 372.718148 
L 135.197977 373.017007 
L 135.432909 370.309525 
L 136.137706 373.682551 
L 136.372638 376.590389 
L 137.077435 375.623685 
L 137.312367 375.102903 
L 137.547299 375.6295 
L 138.72196 378.372321 
L 138.956892 378.6137 
L 139.191825 378.32501 
L 139.896621 375.540518 
L 139.661689 378.615063 
L 140.131554 376.93239 
L 140.601418 378.489567 
L 140.83635 376.365232 
L 141.306215 378.127625 
L 142.011012 369.860817 
L 142.480876 372.969823 
L 142.715808 377.367143 
L 143.420605 374.853638 
L 144.125402 376.567734 
L 144.595266 372.300763 
L 145.065131 376.182527 
L 145.300063 377.189966 
L 145.534995 375.499106 
L 145.769928 372.632787 
L 146.239792 376.938991 
L 146.709657 378.333322 
L 147.179521 377.924694 
L 148.824047 370.779719 
L 147.649386 378.54383 
L 149.293911 371.661945 
L 149.998708 370.563589 
L 151.173369 378.379579 
L 151.408301 376.910603 
L 152.113098 377.859605 
L 152.582963 378.618788 
L 152.817895 377.087108 
L 153.522692 371.427902 
L 153.992556 372.328012 
L 154.462421 370.750628 
L 154.697353 373.97865 
L 155.40215 371.914575 
L 155.637082 368.126382 
L 156.341879 371.356014 
L 156.811743 374.82034 
L 157.046675 373.494159 
L 158.221337 368.199618 
L 158.456269 368.213704 
L 159.161065 371.945548 
L 159.395998 370.210533 
L 161.74532 356.905309 
L 163.154914 364.386986 
L 164.799439 378.50547 
L 165.974101 370.963232 
L 167.148762 377.038966 
L 167.383694 373.964239 
L 167.853559 378.194583 
L 168.088491 375.243248 
L 168.558355 373.32498 
L 168.793287 370.410632 
L 169.498084 373.418765 
L 169.967949 375.531553 
L 170.437813 375.011069 
L 171.14261 368.699694 
L 171.377542 369.408292 
L 171.612474 373.406593 
L 172.082339 367.607541 
L 172.317271 369.862056 
L 172.552203 368.539962 
L 173.022068 370.675292 
L 173.257 372.691092 
L 173.491932 370.110334 
L 174.901526 360.989677 
L 175.37139 365.827311 
L 175.606323 364.169538 
L 176.546052 358.036657 
L 176.780984 358.799363 
L 177.015916 360.078799 
L 177.485781 357.297179 
L 178.190577 359.63486 
L 178.42551 354.456211 
L 179.130306 358.661644 
L 181.009764 370.940816 
L 181.244696 370.836995 
L 182.184425 375.304871 
L 182.65429 372.429494 
L 183.124154 374.460858 
L 184.063883 378.414248 
L 184.298816 375.028063 
L 185.238545 370.594845 
L 185.473477 372.309131 
L 185.943341 373.298456 
L 186.178274 369.979782 
L 186.413206 373.640123 
L 186.88307 371.827287 
L 187.118003 374.298923 
L 187.587867 369.482461 
L 187.822799 371.416298 
L 188.762528 367.618991 
L 188.997461 370.261813 
L 189.467325 372.379505 
L 189.702257 369.335988 
L 190.876918 364.030555 
L 191.111851 364.695741 
L 191.346783 364.357728 
L 192.991309 371.120511 
L 193.931038 364.553926 
L 194.870767 356.955712 
L 195.105699 358.310061 
L 195.575563 369.218343 
L 196.28036 363.472964 
L 197.220089 360.946844 
L 197.455021 361.184112 
L 198.864615 371.841351 
L 199.099547 370.228624 
L 199.569412 370.658418 
L 200.274208 377.98288 
L 200.979005 374.196704 
L 202.858463 364.481648 
L 203.093395 365.656625 
L 203.798192 367.408891 
L 204.033124 365.561643 
L 204.502989 366.137057 
L 205.442718 356.987118 
L 206.617379 364.659244 
L 207.322176 359.736583 
L 207.557108 363.620822 
L 209.436566 374.79463 
L 209.90643 373.804637 
L 210.611227 378.51105 
L 212.490685 377.191609 
L 212.960549 375.987947 
L 213.195482 378.583865 
L 213.430414 374.341128 
L 214.135211 378.61236 
L 214.840007 376.37303 
L 215.07494 376.603399 
L 215.309872 377.99631 
L 216.014669 367.129922 
L 216.484533 369.386203 
L 216.954398 372.116508 
L 217.659194 371.614661 
L 217.894127 369.621927 
L 218.363991 373.023211 
L 219.30372 377.51165 
L 219.538652 375.940963 
L 219.773585 376.147503 
L 221.653042 361.877888 
L 222.122907 365.533911 
L 223.767433 374.289631 
L 225.177026 372.246656 
L 225.411958 372.757576 
L 225.646891 371.208129 
L 226.351687 372.060506 
L 226.58662 369.288481 
L 227.291416 373.008105 
L 227.526349 370.913517 
L 227.996213 368.68039 
L 228.231145 369.187383 
L 228.935942 378.380996 
L 229.640739 378.150705 
L 229.875671 373.767238 
L 230.580468 378.116106 
L 231.990061 374.68142 
L 232.224993 374.82868 
L 232.459926 377.023948 
L 232.92979 373.893922 
L 234.809248 356.888211 
L 236.453774 365.116734 
L 237.863367 370.112483 
L 238.333232 369.761785 
L 239.038029 367.292214 
L 239.272961 370.021975 
L 239.507893 370.899056 
L 239.742825 369.387214 
L 241.387351 363.004921 
L 241.622283 363.737908 
L 242.32708 359.946092 
L 243.736673 377.08921 
L 244.44147 366.492029 
L 244.676402 368.351678 
L 245.146267 375.761053 
L 245.851064 375.266968 
L 246.085996 374.710696 
L 246.320928 376.374184 
L 246.55586 377.768257 
L 246.790793 375.626411 
L 247.025725 377.28887 
L 248.435318 361.486339 
L 249.140115 361.749945 
L 250.549709 373.324248 
L 251.489437 367.819194 
L 251.72437 370.174885 
L 251.959302 368.774663 
L 252.194234 371.511565 
L 252.429166 372.143636 
L 252.899031 378.160722 
L 253.368895 371.940744 
L 253.603828 371.86535 
L 254.073692 369.02686 
L 254.778489 373.94748 
L 255.013421 372.870826 
L 255.248353 374.825197 
L 255.483286 376.04748 
L 255.718218 374.149716 
L 256.188082 370.383524 
L 256.657947 373.594334 
L 257.127811 378.38077 
L 257.832608 377.421154 
L 258.06754 373.794189 
L 258.772337 377.373012 
L 259.712066 378.467177 
L 261.12166 372.051395 
L 261.356592 373.435721 
L 261.826456 374.835789 
L 262.061388 373.192168 
L 262.296321 373.454092 
L 263.940846 365.871624 
L 264.175779 370.118962 
L 264.645643 369.933364 
L 264.880575 371.19101 
L 265.115508 368.181818 
L 265.585372 374.473029 
L 266.055237 377.359941 
L 266.760033 376.974668 
L 267.934695 376.337502 
L 269.344288 369.841135 
L 270.049085 370.580693 
L 270.284017 374.949115 
L 270.988814 369.588342 
L 271.928543 364.613261 
L 273.103204 369.920031 
L 273.338136 367.54874 
L 273.808001 370.071531 
L 274.042933 371.094195 
L 274.277865 370.224834 
L 274.512797 366.846329 
L 274.982662 368.960032 
L 276.86212 377.90126 
L 277.566917 374.258513 
L 277.331984 378.126361 
L 277.801849 376.575044 
L 278.036781 378.497223 
L 278.506646 376.669834 
L 279.681307 368.977876 
L 280.621036 375.963631 
L 281.0909 374.631634 
L 281.795697 377.288675 
L 282.735426 367.826225 
L 282.970358 370.841673 
L 283.675155 375.283615 
L 284.145019 373.830558 
L 284.614884 368.516373 
L 285.084748 374.114201 
L 286.494342 369.13047 
L 286.729274 369.237302 
L 286.964206 371.554273 
L 287.434071 367.52817 
L 288.3738 365.487309 
L 288.608732 368.545453 
L 289.313529 366.614518 
L 289.783393 367.305624 
L 291.427919 376.082477 
L 291.662851 372.14783 
L 291.897784 372.737728 
L 292.132716 369.69595 
L 292.60258 375.715176 
L 292.837512 378.097085 
L 293.307377 375.380928 
L 293.542309 377.995016 
L 294.247106 374.762072 
L 294.482038 377.991976 
L 294.71697 375.916895 
L 295.421767 378.348306 
L 297.77109 372.550273 
L 298.006022 373.155107 
L 298.240954 377.415386 
L 298.710819 372.398088 
L 300.355344 365.998291 
L 300.825209 370.043146 
L 301.295073 367.749901 
L 301.530006 368.191813 
L 301.764938 367.437756 
L 301.99987 371.469362 
L 302.469735 364.899037 
L 302.704667 366.741318 
L 302.939599 365.355222 
L 303.174531 366.822073 
L 303.409463 366.75346 
L 305.288921 376.875521 
L 306.22865 373.369166 
L 306.463583 376.324315 
L 306.933447 371.794204 
L 307.168379 374.07774 
L 307.873176 378.315353 
L 308.108108 377.026587 
L 308.343041 371.207154 
L 309.047837 372.713173 
L 310.457431 378.416597 
L 311.39716 367.910257 
L 312.101957 370.98434 
L 312.571821 369.976282 
L 313.981414 375.74368 
L 314.921143 371.25317 
L 315.156076 372.207441 
L 316.565669 378.607394 
L 317.505398 374.301946 
L 317.74033 374.330189 
L 317.975263 374.735463 
L 318.445127 369.758581 
L 318.914992 374.935028 
L 319.619788 373.373105 
L 319.384856 375.468287 
L 319.854721 374.479787 
L 320.79445 377.186286 
L 321.029382 376.256091 
L 321.499246 373.349088 
L 321.969111 374.949475 
L 322.204043 378.516803 
L 322.673908 371.340918 
L 322.90884 370.885709 
L 323.378704 376.444489 
L 323.848569 374.394316 
L 325.258162 367.162218 
L 325.728027 365.750282 
L 326.667756 372.559514 
L 326.902688 369.619861 
L 327.372552 372.889613 
L 327.607485 371.489215 
L 328.077349 367.539005 
L 328.312281 372.785265 
L 328.547214 377.592396 
L 329.017078 369.648281 
L 329.25201 366.919732 
L 329.721875 367.477172 
L 330.191739 372.172653 
L 330.896536 371.128213 
L 331.366401 369.500636 
L 332.541062 378.21927 
L 332.775994 377.876457 
L 333.245859 370.872367 
L 333.715723 373.1278 
L 333.950655 377.524221 
L 334.655452 375.723422 
L 335.125316 376.995583 
L 335.360249 374.774622 
L 335.595181 378.118456 
L 336.065045 376.467199 
L 336.769842 363.649789 
L 337.709571 366.096611 
L 338.179436 360.83699 
L 339.354097 362.49655 
L 339.589029 364.180967 
L 339.823961 361.837908 
L 340.058894 363.057868 
L 340.528758 360.479964 
L 340.76369 361.989655 
L 341.468487 372.93772 
L 341.938352 369.058723 
L 343.347945 360.263388 
L 344.052742 368.082988 
L 344.522606 367.32467 
L 344.757538 364.270991 
L 345.462335 365.655589 
L 346.871929 373.53299 
L 348.281522 366.031621 
L 348.751387 367.20686 
L 349.456183 370.354126 
L 349.691116 369.031385 
L 349.926048 368.509344 
L 351.335641 374.497529 
L 351.570574 373.229869 
L 351.805506 374.224926 
L 352.27537 378.013575 
L 352.745235 375.920062 
L 353.215099 374.933947 
L 354.389761 378.195679 
L 355.094557 372.690788 
L 355.799354 374.017721 
L 356.504151 376.578214 
L 356.739083 378.19281 
L 356.974015 376.478739 
L 357.208947 377.460155 
L 357.44388 375.57662 
L 357.678812 378.489248 
L 358.148676 376.032298 
L 358.853473 375.488363 
L 359.323338 378.451026 
L 359.55827 378.403675 
L 361.437728 365.806239 
L 361.67266 366.722852 
L 362.142525 371.525664 
L 362.612389 369.433382 
L 362.847321 368.02246 
L 363.082254 370.787008 
L 363.78705 370.170165 
L 364.491847 377.856388 
L 365.196644 378.189522 
L 365.90144 371.776565 
L 366.606237 378.371188 
L 367.311034 377.482168 
L 368.250763 372.15996 
L 368.485695 372.178544 
L 369.660356 367.649968 
L 370.130221 375.508967 
L 370.835018 373.511523 
L 371.06995 373.821038 
L 371.304882 371.566299 
L 371.539814 376.465195 
L 372.244611 375.682235 
L 372.479543 376.79132 
L 372.949408 372.767768 
L 373.419272 374.578261 
L 373.654205 378.628672 
L 374.359001 374.112036 
L 376.708324 355.102603 
L 377.41312 364.84711 
L 377.882985 360.87859 
L 378.117917 359.469123 
L 378.352849 361.573356 
L 379.527511 365.515364 
L 379.762443 361.599809 
L 380.46724 366.315387 
L 380.702172 363.291645 
L 381.406969 364.361536 
L 381.641901 367.213381 
L 381.876833 360.42829 
L 382.111765 361.700872 
L 382.346698 356.605245 
L 382.816562 362.000491 
L 386.81041 378.294469 
L 387.280275 378.039553 
L 388.689868 372.038198 
L 389.864529 365.439853 
L 390.334394 365.681379 
L 390.804258 372.189078 
L 391.509055 368.867586 
L 391.97892 374.927221 
L 392.918649 372.26984 
L 393.153581 372.20301 
L 393.388513 368.87017 
L 393.858378 374.089753 
L 394.09331 372.557684 
L 394.563174 376.577532 
L 395.267971 374.662646 
L 395.502903 374.681747 
L 395.737836 373.523934 
L 396.2077 375.408135 
L 396.442632 374.90121 
L 397.147429 377.979043 
L 397.382361 375.202073 
L 397.617293 371.72502 
L 398.32209 374.428326 
L 398.791955 373.164535 
L 399.731684 378.553692 
L 399.966616 378.073553 
L 401.141277 369.556839 
L 401.376209 373.284265 
L 401.611142 369.110809 
L 401.846074 370.305542 
L 402.315938 365.054852 
L 402.785803 369.116719 
L 403.960464 370.388897 
L 404.195396 364.852889 
L 404.900193 367.156421 
L 405.839922 370.829107 
L 406.074854 367.152994 
L 406.544719 374.078235 
L 406.779651 373.708678 
L 407.014583 370.850255 
L 407.249515 373.832822 
L 407.484448 378.359247 
L 408.189244 373.498878 
L 408.659109 368.157724 
L 408.894041 373.068045 
L 409.83377 374.943389 
L 410.068702 374.042081 
L 410.538567 377.785812 
L 411.008431 374.717651 
L 411.713228 378.558769 
L 412.183093 376.889111 
L 413.122822 372.981267 
L 413.357754 375.168836 
L 413.827618 372.676514 
L 414.532415 370.775616 
L 414.767347 370.987167 
L 415.00228 367.213128 
L 415.707076 370.763187 
L 416.411873 371.639299 
L 416.646805 369.372725 
L 417.11667 374.381923 
L 417.351602 375.569535 
L 417.586534 374.444527 
L 417.821466 370.540141 
L 418.291331 375.357991 
L 418.996128 378.492284 
L 419.465992 376.553456 
L 420.170789 375.765437 
L 420.640653 378.44826 
L 421.34545 377.523801 
L 421.580382 378.367035 
L 421.815315 377.510267 
L 423.694773 368.958318 
L 423.929705 370.550977 
L 424.399569 375.359176 
L 424.634502 372.987441 
L 425.809163 364.267652 
L 426.044095 364.833046 
L 426.748892 363.643449 
L 427.218756 357.857571 
L 427.688621 362.446717 
L 429.098214 367.133794 
L 428.158485 361.899759 
L 429.568079 366.240519 
L 430.272875 364.741591 
L 430.507808 365.003381 
L 432.152333 372.505919 
L 432.387266 373.204141 
L 432.622198 377.438897 
L 433.092062 372.420904 
L 433.326995 372.824897 
L 434.501656 376.191915 
L 434.97152 378.419312 
L 435.441385 377.813304 
L 436.146182 374.586374 
L 436.381114 376.890705 
L 436.616046 378.447219 
L 436.850978 375.699852 
L 438.260572 368.646712 
L 439.200301 371.429832 
L 438.965368 367.712909 
L 439.435233 370.120311 
L 439.905097 369.87578 
L 440.609894 376.897371 
L 440.844826 378.530277 
L 441.549623 376.444498 
L 442.489352 367.663701 
L 442.724284 371.365766 
L 443.194149 377.066122 
L 443.898946 374.343281 
L 444.603742 371.995482 
L 444.36881 375.386673 
L 444.838675 374.347594 
L 445.308539 374.117453 
L 445.543471 370.973702 
L 445.778404 377.766479 
L 446.248268 373.202183 
L 446.4832 378.244994 
L 447.422929 378.124125 
L 447.657862 378.576595 
L 447.892794 376.138823 
L 448.59759 377.290874 
L 449.067455 377.491472 
L 450.007184 374.914678 
L 450.711981 377.343577 
L 450.946913 375.156185 
L 451.65171 375.848791 
L 451.886642 373.393586 
L 452.356506 378.610178 
L 453.061303 376.960176 
L 453.296235 378.365654 
L 453.531168 375.800312 
L 453.7661 377.227494 
L 454.705829 367.822952 
L 454.940761 370.292318 
L 455.175693 374.096726 
L 455.645558 368.648737 
L 455.88049 367.80936 
L 456.115422 373.661634 
L 456.820219 370.665354 
L 457.290084 371.565373 
L 458.464745 375.16695 
L 459.169541 367.704171 
L 459.639406 370.596752 
L 460.814067 376.300465 
L 461.988728 368.862741 
L 462.223661 367.500377 
L 462.458593 370.040247 
L 462.693525 370.828559 
L 462.928457 369.111477 
L 463.398322 369.709195 
L 463.633254 368.245873 
L 463.868186 372.293583 
L 464.103119 371.935526 
L 465.042848 378.617794 
L 465.27778 376.47351 
L 465.747644 377.031283 
L 467.39217 364.573895 
L 466.217509 378.321879 
L 468.096967 367.057507 
L 468.331899 367.184646 
L 469.271628 372.305821 
L 469.50656 371.063954 
L 470.916154 359.090291 
L 472.325747 368.817978 
L 472.560679 368.601046 
L 473.500408 361.822523 
L 474.67507 378.093812 
L 475.379866 375.833059 
L 476.084663 373.827477 
L 476.319595 375.233248 
L 477.024392 378.509723 
L 477.494257 377.156368 
L 477.729189 377.068588 
L 477.964121 374.507207 
L 478.199053 377.845244 
L 478.668918 376.058995 
L 478.90385 376.716956 
L 479.843579 367.738901 
L 480.078511 373.844187 
L 480.783308 372.690545 
L 481.253172 367.177652 
L 481.723037 372.271629 
L 481.957969 372.609164 
L 482.427834 378.121358 
L 483.13263 377.406795 
L 483.367563 377.320209 
L 483.602495 378.433809 
L 483.837427 374.705049 
L 484.542224 378.146163 
L 484.777156 378.612522 
L 485.481953 373.642735 
L 485.716885 377.723535 
L 485.951817 377.55914 
L 487.831275 369.50524 
L 489.240869 377.876589 
L 490.180598 377.586376 
L 491.120327 368.440134 
L 491.590191 372.528757 
L 491.825123 373.204365 
L 492.060056 370.060957 
L 492.294988 376.477325 
L 492.52992 375.717934 
L 492.764852 376.770729 
L 492.999785 374.917138 
L 493.704581 373.135279 
L 493.939514 374.880688 
L 494.174446 373.997886 
L 495.584039 363.875676 
L 496.053904 367.797847 
L 496.523768 366.218102 
L 496.758701 365.081842 
L 497.228565 367.232673 
L 497.463497 367.591751 
L 497.69843 370.19878 
L 498.403226 367.866519 
L 498.638159 367.665502 
L 498.873091 371.026783 
L 499.108023 367.094863 
L 499.342955 367.325586 
L 500.282684 364.437947 
L 499.81282 368.307352 
L 500.517616 364.917607 
L 500.752549 363.746848 
L 500.987481 364.44487 
L 501.92721 372.132332 
L 502.397074 371.529563 
L 502.632007 371.969409 
L 503.336803 363.809227 
L 503.806668 365.661997 
L 504.0416 365.760957 
L 504.511465 358.920763 
L 505.216261 360.730152 
L 505.451194 360.762232 
L 506.15599 351.759588 
L 506.860787 352.985215 
L 508.975177 364.713982 
L 509.21011 362.905326 
L 509.679974 364.518017 
L 510.854635 371.96389 
L 511.3245 368.382145 
L 511.559432 373.94545 
L 512.029296 378.186402 
L 512.499161 376.810474 
L 514.848483 363.709073 
L 515.083416 364.341262 
L 516.727941 372.19864 
L 519.547128 350.739556 
L 519.782061 353.503611 
L 520.251925 349.507303 
L 520.486857 349.178127 
L 520.721789 350.161877 
L 524.715638 372.943267 
L 525.890299 366.070459 
L 526.125231 367.221037 
L 526.830028 365.556468 
L 527.299892 369.384016 
L 527.534825 367.298342 
L 528.004689 370.59736 
L 529.414283 378.416836 
L 529.649215 377.797075 
L 530.823876 377.923944 
L 531.998537 373.579151 
L 532.233469 376.642527 
L 532.938266 372.992276 
L 533.643063 377.620335 
L 534.112927 376.230379 
L 534.34786 376.305252 
L 534.817724 378.449264 
L 535.052656 378.250187 
L 536.227318 373.714554 
L 536.932114 378.583057 
L 537.401979 377.671003 
L 537.871843 376.915608 
L 538.106776 378.606406 
L 538.106776 378.606406 
" clip-path="url(#pa58483b512)" style="fill: none; stroke: #e41a1c; stroke-width: 2; stroke-linecap: square"/>
   </g>
   <g id="patch_6">
    <path d="M 44.749063 386.275937 
L 44.749063 218.036094 
" style="fill: none; stroke: #7f7f7f; stroke-width: 1.8; stroke-linejoin: miter; stroke-linecap: square"/>
   </g>
   <g id="patch_7">
    <path d="M 44.749063 386.275937 
L 561.6 386.275937 
" style="fill: none; stroke: #7f7f7f; stroke-width: 1.8; stroke-linejoin: miter; stroke-linecap: square"/>
   </g>
  </g>
 </g>
 <defs>
  <clipPath id="pcc1f0c4c9b">
   <rect x="44.749063" y="22.318125" width="516.850937" height="168.239844"/>
  </clipPath>
  <clipPath id="pa58483b512">
   <rect x="44.749063" y="218.036094" width="516.850937" height="168.239844"/>
  </clipPath>
 </defs>
</svg>
