<?xml version="1.0" encoding="utf-8" standalone="no"?>
<!DOCTYPE svg PUBLIC "-//W3C//DTD SVG 1.1//EN"
  "http://www.w3.org/Graphics/SVG/1.1/DTD/svg11.dtd">
<svg xmlns:xlink="http://www.w3.org/1999/xlink" width="568.8pt" height="424.8pt" viewBox="0 0 568.8 424.8" xmlns="http://www.w3.org/2000/svg" version="1.1">
 <metadata>
  <rdf:RDF xmlns:dc="http://purl.org/dc/elements/1.1/" xmlns:cc="http://creativecommons.org/ns#" xmlns:rdf="http://www.w3.org/1999/02/22-rdf-syntax-ns#">
   <cc:Work>
    <dc:type rdf:resource="http://purl.org/dc/dcmitype/StillImage"/>
    <dc:date>2026-07-24T08:28:23.388549</dc:date>
    <dc:format>image/svg+xml</dc:format>
    <dc:creator>
     <cc:Agent>
      <dc:title>Matplotlib v3.11.1, https://matplotlib.org/</dc:title>
     </cc:Agent>
    </dc:creator>
   </cc:Work>
  </rdf:RDF>
 </metadata>
 <defs>
  <style type="text/css">*{stroke-linejoin: round; stroke-linecap: butt}</style>
 </defs>
 <g id="figure_1">
  <g id="patch_1">
   <path d="M 0 424.8 
L 568.8 424.8 
L 568.8 0 
L 0 0 
L 0 424.8 
z
" style="fill: none"/>
  </g>
  <g id="axes_1">
   <g id="patch_2">
    <path d="M 45.103984 190.058633 
L 561.6 190.058633 
L 561.6 22.318125 
L 45.103984 22.318125 
L 45.103984 190.058633 
z
" style="fill: none"/>
   </g>
   <g id="matplotlib.axis_1">
    <g id="xtick_1">
     <g id="line2d_1">
      <defs>
       <path id="m80fbde9978" d="M 0 0 
L 0 3.5 
" style="stroke: #7f7f7f; stroke-width: 1.8"/>
      </defs>
      <g>
       <use xlink:href="#m80fbde9978" x="68.581076" y="190.058633" style="fill: #7f7f7f; stroke: #7f7f7f; stroke-width: 1.8"/>
      </g>
     </g>
     <g id="text_1">
      <!-- 0.0 -->
      <g style="fill: #7f7f7f" transform="translate(60.629513 204.656289) scale(0.1 -0.1)">
       <defs>
        <path id="DejaVuSans-13" d="M 2034 4250 
Q 1547 4250 1301 3770 
Q 1056 3291 1056 2328 
Q 1056 1369 1301 889 
Q 1547 409 2034 409 
Q 2525 409 2770 889 
Q 3016 1369 3016 2328 
Q 3016 3291 2770 3770 
Q 2525 4250 2034 4250 
z
M 2034 4750 
Q 2819 4750 3233 4129 
Q 3647 3509 3647 2328 
Q 3647 1150 3233 529 
Q 2819 -91 2034 -91 
Q 1250 -91 836 529 
Q 422 1150 422 2328 
Q 422 3509 836 4129 
Q 1250 4750 2034 4750 
z
" transform="scale(0.015625)"/>
        <path id="DejaVuSans-11" d="M 684 794 
L 1344 794 
L 1344 0 
L 684 0 
L 684 794 
z
" transform="scale(0.015625)"/>
       </defs>
       <use xlink:href="#DejaVuSans-13"/>
       <use xlink:href="#DejaVuSans-11" transform="translate(63.625 0)"/>
       <use xlink:href="#DejaVuSans-13" transform="translate(95.40625 0)"/>
      </g>
     </g>
    </g>
    <g id="xtick_2">
     <g id="line2d_2">
      <g>
       <use xlink:href="#m80fbde9978" x="127.273805" y="190.058633" style="fill: #7f7f7f; stroke: #7f7f7f; stroke-width: 1.8"/>
      </g>
     </g>
     <g id="text_2">
      <!-- 2.5 -->
      <g style="fill: #7f7f7f" transform="translate(119.322243 204.656289) scale(0.1 -0.1)">
       <defs>
        <path id="DejaVuSans-15" d="M 1228 531 
L 3431 531 
L 3431 0 
L 469 0 
L 469 531 
Q 828 903 1448 1529 
Q 2069 2156 2228 2338 
Q 2531 2678 2651 2914 
Q 2772 3150 2772 3378 
Q 2772 3750 2511 3984 
Q 2250 4219 1831 4219 
Q 1534 4219 1204 4116 
Q 875 4013 500 3803 
L 500 4441 
Q 881 4594 1212 4672 
Q 1544 4750 1819 4750 
Q 2544 4750 2975 4387 
Q 3406 4025 3406 3419 
Q 3406 3131 3298 2873 
Q 3191 2616 2906 2266 
Q 2828 2175 2409 1742 
Q 1991 1309 1228 531 
z
" transform="scale(0.015625)"/>
        <path id="DejaVuSans-18" d="M 691 4666 
L 3169 4666 
L 3169 4134 
L 1269 4134 
L 1269 2991 
Q 1406 3038 1543 3061 
Q 1681 3084 1819 3084 
Q 2600 3084 3056 2656 
Q 3513 2228 3513 1497 
Q 3513 744 3044 326 
Q 2575 -91 1722 -91 
Q 1428 -91 1123 -41 
Q 819 9 494 109 
L 494 744 
Q 775 591 1075 516 
Q 1375 441 1709 441 
Q 2250 441 2565 725 
Q 2881 1009 2881 1497 
Q 2881 1984 2565 2268 
Q 2250 2553 1709 2553 
Q 1456 2553 1204 2497 
Q 953 2441 691 2322 
L 691 4666 
z
" transform="scale(0.015625)"/>
       </defs>
       <use xlink:href="#DejaVuSans-15"/>
       <use xlink:href="#DejaVuSans-11" transform="translate(63.625 0)"/>
       <use xlink:href="#DejaVuSans-18" transform="translate(95.40625 0)"/>
      </g>
     </g>
    </g>
    <g id="xtick_3">
     <g id="line2d_3">
      <g>
       <use xlink:href="#m80fbde9978" x="185.966534" y="190.058633" style="fill: #7f7f7f; stroke: #7f7f7f; stroke-width: 1.8"/>
      </g>
     </g>
     <g id="text_3">
      <!-- 5.0 -->
      <g style="fill: #7f7f7f" transform="translate(178.014972 204.656289) scale(0.1 -0.1)">
       <use xlink:href="#DejaVuSans-18"/>
       <use xlink:href="#DejaVuSans-11" transform="translate(63.625 0)"/>
       <use xlink:href="#DejaVuSans-13" transform="translate(95.40625 0)"/>
      </g>
     </g>
    </g>
    <g id="xtick_4">
     <g id="line2d_4">
      <g>
       <use xlink:href="#m80fbde9978" x="244.659263" y="190.058633" style="fill: #7f7f7f; stroke: #7f7f7f; stroke-width: 1.8"/>
      </g>
     </g>
     <g id="text_4">
      <!-- 7.5 -->
      <g style="fill: #7f7f7f" transform="translate(236.707701 204.656289) scale(0.1 -0.1)">
       <defs>
        <path id="DejaVuSans-1a" d="M 525 4666 
L 3525 4666 
L 3525 4397 
L 1831 0 
L 1172 0 
L 2766 4134 
L 525 4134 
L 525 4666 
z
" transform="scale(0.015625)"/>
       </defs>
       <use xlink:href="#DejaVuSans-1a"/>
       <use xlink:href="#DejaVuSans-11" transform="translate(63.625 0)"/>
       <use xlink:href="#DejaVuSans-18" transform="translate(95.40625 0)"/>
      </g>
     </g>
    </g>
    <g id="xtick_5">
     <g id="line2d_5">
      <g>
       <use xlink:href="#m80fbde9978" x="303.351992" y="190.058633" style="fill: #7f7f7f; stroke: #7f7f7f; stroke-width: 1.8"/>
      </g>
     </g>
     <g id="text_5">
      <!-- 10.0 -->
      <g style="fill: #7f7f7f" transform="translate(292.21918 204.656289) scale(0.1 -0.1)">
       <defs>
        <path id="DejaVuSans-14" d="M 794 531 
L 1825 531 
L 1825 4091 
L 703 3866 
L 703 4441 
L 1819 4666 
L 2450 4666 
L 2450 531 
L 3481 531 
L 3481 0 
L 794 0 
L 794 531 
z
" transform="scale(0.015625)"/>
       </defs>
       <use xlink:href="#DejaVuSans-14"/>
       <use xlink:href="#DejaVuSans-13" transform="translate(63.625 0)"/>
       <use xlink:href="#DejaVuSans-11" transform="translate(127.25 0)"/>
       <use xlink:href="#DejaVuSans-13" transform="translate(159.03125 0)"/>
      </g>
     </g>
    </g>
    <g id="xtick_6">
     <g id="line2d_6">
      <g>
       <use xlink:href="#m80fbde9978" x="362.044721" y="190.058633" style="fill: #7f7f7f; stroke: #7f7f7f; stroke-width: 1.8"/>
      </g>
     </g>
     <g id="text_6">
      <!-- 12.5 -->
      <g style="fill: #7f7f7f" transform="translate(350.911909 204.656289) scale(0.1 -0.1)">
       <use xlink:href="#DejaVuSans-14"/>
       <use xlink:href="#DejaVuSans-15" transform="translate(63.625 0)"/>
       <use xlink:href="#DejaVuSans-11" transform="translate(127.25 0)"/>
       <use xlink:href="#DejaVuSans-18" transform="translate(159.03125 0)"/>
      </g>
     </g>
    </g>
    <g id="xtick_7">
     <g id="line2d_7">
      <g>
       <use xlink:href="#m80fbde9978" x="420.73745" y="190.058633" style="fill: #7f7f7f; stroke: #7f7f7f; stroke-width: 1.8"/>
      </g>
     </g>
     <g id="text_7">
      <!-- 15.0 -->
      <g style="fill: #7f7f7f" transform="translate(409.604638 204.656289) scale(0.1 -0.1)">
       <use xlink:href="#DejaVuSans-14"/>
       <use xlink:href="#DejaVuSans-18" transform="translate(63.625 0)"/>
       <use xlink:href="#DejaVuSans-11" transform="translate(127.25 0)"/>
       <use xlink:href="#DejaVuSans-13" transform="translate(159.03125 0)"/>
      </g>
     </g>
    </g>
    <g id="xtick_8">
     <g id="line2d_8">
      <g>
       <use xlink:href="#m80fbde9978" x="479.430179" y="190.058633" style="fill: #7f7f7f; stroke: #7f7f7f; stroke-width: 1.8"/>
      </g>
     </g>
     <g id="text_8">
      <!-- 17.5 -->
      <g style="fill: #7f7f7f" transform="translate(468.297367 204.656289) scale(0.1 -0.1)">
       <use xlink:href="#DejaVuSans-14"/>
       <use xlink:href="#DejaVuSans-1a" transform="translate(63.625 0)"/>
       <use xlink:href="#DejaVuSans-11" transform="translate(127.25 0)"/>
       <use xlink:href="#DejaVuSans-18" transform="translate(159.03125 0)"/>
      </g>
     </g>
    </g>
    <g id="xtick_9">
     <g id="line2d_9">
      <g>
       <use xlink:href="#m80fbde9978" x="538.122908" y="190.058633" style="fill: #7f7f7f; stroke: #7f7f7f; stroke-width: 1.8"/>
      </g>
     </g>
     <g id="text_9">
      <!-- 20.0 -->
      <g style="fill: #7f7f7f" transform="translate(526.990096 204.656289) scale(0.1 -0.1)">
       <use xlink:href="#DejaVuSans-15"/>
       <use xlink:href="#DejaVuSans-13" transform="translate(63.625 0)"/>
       <use xlink:href="#DejaVuSans-11" transform="translate(127.25 0)"/>
       <use xlink:href="#DejaVuSans-13" transform="translate(159.03125 0)"/>
      </g>
     </g>
    </g>
   </g>
   <g id="matplotlib.axis_2">
    <g id="ytick_1">
     <g id="line2d_10">
      <defs>
       <path id="m7d86d65cca" d="M 0 0 
L -3.5 0 
" style="stroke: #7f7f7f; stroke-width: 1.8"/>
      </defs>
      <g>
       <use xlink:href="#m7d86d65cca" x="45.103984" y="182.434064" style="fill: #7f7f7f; stroke: #7f7f7f; stroke-width: 1.8"/>
      </g>
     </g>
     <g id="text_10">
      <!-- 0.0 -->
      <g style="fill: #7f7f7f" transform="translate(22.200859 186.232892) scale(0.1 -0.1)">
       <use xlink:href="#DejaVuSans-13"/>
       <use xlink:href="#DejaVuSans-11" transform="translate(63.625 0)"/>
       <use xlink:href="#DejaVuSans-13" transform="translate(95.40625 0)"/>
      </g>
     </g>
    </g>
    <g id="ytick_2">
     <g id="line2d_11">
      <g>
       <use xlink:href="#m7d86d65cca" x="45.103984" y="153.002541" style="fill: #7f7f7f; stroke: #7f7f7f; stroke-width: 1.8"/>
      </g>
     </g>
     <g id="text_11">
      <!-- 0.1 -->
      <g style="fill: #7f7f7f" transform="translate(22.200859 156.801369) scale(0.1 -0.1)">
       <use xlink:href="#DejaVuSans-13"/>
       <use xlink:href="#DejaVuSans-11" transform="translate(63.625 0)"/>
       <use xlink:href="#DejaVuSans-14" transform="translate(95.40625 0)"/>
      </g>
     </g>
    </g>
    <g id="ytick_3">
     <g id="line2d_12">
      <g>
       <use xlink:href="#m7d86d65cca" x="45.103984" y="123.571018" style="fill: #7f7f7f; stroke: #7f7f7f; stroke-width: 1.8"/>
      </g>
     </g>
     <g id="text_12">
      <!-- 0.2 -->
      <g style="fill: #7f7f7f" transform="translate(22.200859 127.369846) scale(0.1 -0.1)">
       <use xlink:href="#DejaVuSans-13"/>
       <use xlink:href="#DejaVuSans-11" transform="translate(63.625 0)"/>
       <use xlink:href="#DejaVuSans-15" transform="translate(95.40625 0)"/>
      </g>
     </g>
    </g>
    <g id="ytick_4">
     <g id="line2d_13">
      <g>
       <use xlink:href="#m7d86d65cca" x="45.103984" y="94.139494" style="fill: #7f7f7f; stroke: #7f7f7f; stroke-width: 1.8"/>
      </g>
     </g>
     <g id="text_13">
      <!-- 0.3 -->
      <g style="fill: #7f7f7f" transform="translate(22.200859 97.938322) scale(0.1 -0.1)">
       <defs>
        <path id="DejaVuSans-16" d="M 2597 2516 
Q 3050 2419 3304 2112 
Q 3559 1806 3559 1356 
Q 3559 666 3084 287 
Q 2609 -91 1734 -91 
Q 1441 -91 1130 -33 
Q 819 25 488 141 
L 488 750 
Q 750 597 1062 519 
Q 1375 441 1716 441 
Q 2309 441 2620 675 
Q 2931 909 2931 1356 
Q 2931 1769 2642 2001 
Q 2353 2234 1838 2234 
L 1294 2234 
L 1294 2753 
L 1863 2753 
Q 2328 2753 2575 2939 
Q 2822 3125 2822 3475 
Q 2822 3834 2567 4026 
Q 2313 4219 1838 4219 
Q 1578 4219 1281 4162 
Q 984 4106 628 3988 
L 628 4550 
Q 988 4650 1302 4700 
Q 1616 4750 1894 4750 
Q 2613 4750 3031 4423 
Q 3450 4097 3450 3541 
Q 3450 3153 3228 2886 
Q 3006 2619 2597 2516 
z
" transform="scale(0.015625)"/>
       </defs>
       <use xlink:href="#DejaVuSans-13"/>
       <use xlink:href="#DejaVuSans-11" transform="translate(63.625 0)"/>
       <use xlink:href="#DejaVuSans-16" transform="translate(95.40625 0)"/>
      </g>
     </g>
    </g>
    <g id="ytick_5">
     <g id="line2d_14">
      <g>
       <use xlink:href="#m7d86d65cca" x="45.103984" y="64.707971" style="fill: #7f7f7f; stroke: #7f7f7f; stroke-width: 1.8"/>
      </g>
     </g>
     <g id="text_14">
      <!-- 0.4 -->
      <g style="fill: #7f7f7f" transform="translate(22.200859 68.506799) scale(0.1 -0.1)">
       <defs>
        <path id="DejaVuSans-17" d="M 2419 4116 
L 825 1625 
L 2419 1625 
L 2419 4116 
z
M 2253 4666 
L 3047 4666 
L 3047 1625 
L 3713 1625 
L 3713 1100 
L 3047 1100 
L 3047 0 
L 2419 0 
L 2419 1100 
L 313 1100 
L 313 1709 
L 2253 4666 
z
" transform="scale(0.015625)"/>
       </defs>
       <use xlink:href="#DejaVuSans-13"/>
       <use xlink:href="#DejaVuSans-11" transform="translate(63.625 0)"/>
       <use xlink:href="#DejaVuSans-17" transform="translate(95.40625 0)"/>
      </g>
     </g>
    </g>
    <g id="ytick_6">
     <g id="line2d_15">
      <g>
       <use xlink:href="#m7d86d65cca" x="45.103984" y="35.276448" style="fill: #7f7f7f; stroke: #7f7f7f; stroke-width: 1.8"/>
      </g>
     </g>
     <g id="text_15">
      <!-- 0.5 -->
      <g style="fill: #7f7f7f" transform="translate(22.200859 39.075276) scale(0.1 -0.1)">
       <use xlink:href="#DejaVuSans-13"/>
       <use xlink:href="#DejaVuSans-11" transform="translate(63.625 0)"/>
       <use xlink:href="#DejaVuSans-18" transform="translate(95.40625 0)"/>
      </g>
     </g>
    </g>
    <g id="text_16">
     <!-- Position Error [m] -->
     <g style="fill: #7f7f7f" transform="translate(15.558281 154.153535) rotate(-90) scale(0.11 -0.11)">
      <defs>
       <path id="DejaVuSans-33" d="M 1259 4147 
L 1259 2394 
L 2053 2394 
Q 2494 2394 2734 2622 
Q 2975 2850 2975 3272 
Q 2975 3691 2734 3919 
Q 2494 4147 2053 4147 
L 1259 4147 
z
M 628 4666 
L 2053 4666 
Q 2838 4666 3239 4311 
Q 3641 3956 3641 3272 
Q 3641 2581 3239 2228 
Q 2838 1875 2053 1875 
L 1259 1875 
L 1259 0 
L 628 0 
L 628 4666 
z
" transform="scale(0.015625)"/>
       <path id="DejaVuSans-52" d="M 1959 3097 
Q 1497 3097 1228 2736 
Q 959 2375 959 1747 
Q 959 1119 1226 758 
Q 1494 397 1959 397 
Q 2419 397 2687 759 
Q 2956 1122 2956 1747 
Q 2956 2369 2687 2733 
Q 2419 3097 1959 3097 
z
M 1959 3584 
Q 2709 3584 3137 3096 
Q 3566 2609 3566 1747 
Q 3566 888 3137 398 
Q 2709 -91 1959 -91 
Q 1206 -91 779 398 
Q 353 888 353 1747 
Q 353 2609 779 3096 
Q 1206 3584 1959 3584 
z
" transform="scale(0.015625)"/>
       <path id="DejaVuSans-56" d="M 2834 3397 
L 2834 2853 
Q 2591 2978 2328 3040 
Q 2066 3103 1784 3103 
Q 1356 3103 1142 2972 
Q 928 2841 928 2578 
Q 928 2378 1081 2264 
Q 1234 2150 1697 2047 
L 1894 2003 
Q 2506 1872 2764 1633 
Q 3022 1394 3022 966 
Q 3022 478 2636 193 
Q 2250 -91 1575 -91 
Q 1294 -91 989 -36 
Q 684 19 347 128 
L 347 722 
Q 666 556 975 473 
Q 1284 391 1588 391 
Q 1994 391 2212 530 
Q 2431 669 2431 922 
Q 2431 1156 2273 1281 
Q 2116 1406 1581 1522 
L 1381 1569 
Q 847 1681 609 1914 
Q 372 2147 372 2553 
Q 372 3047 722 3315 
Q 1072 3584 1716 3584 
Q 2034 3584 2315 3537 
Q 2597 3491 2834 3397 
z
" transform="scale(0.015625)"/>
       <path id="DejaVuSans-4c" d="M 603 3500 
L 1178 3500 
L 1178 0 
L 603 0 
L 603 3500 
z
M 603 4863 
L 1178 4863 
L 1178 4134 
L 603 4134 
L 603 4863 
z
" transform="scale(0.015625)"/>
       <path id="DejaVuSans-57" d="M 1172 4494 
L 1172 3500 
L 2356 3500 
L 2356 3053 
L 1172 3053 
L 1172 1153 
Q 1172 725 1289 603 
Q 1406 481 1766 481 
L 2356 481 
L 2356 0 
L 1766 0 
Q 1100 0 847 248 
Q 594 497 594 1153 
L 594 3053 
L 172 3053 
L 172 3500 
L 594 3500 
L 594 4494 
L 1172 4494 
z
" transform="scale(0.015625)"/>
       <path id="DejaVuSans-51" d="M 3513 2113 
L 3513 0 
L 2938 0 
L 2938 2094 
Q 2938 2591 2744 2837 
Q 2550 3084 2163 3084 
Q 1697 3084 1428 2787 
Q 1159 2491 1159 1978 
L 1159 0 
L 581 0 
L 581 3500 
L 1159 3500 
L 1159 2956 
Q 1366 3272 1645 3428 
Q 1925 3584 2291 3584 
Q 2894 3584 3203 3211 
Q 3513 2838 3513 2113 
z
" transform="scale(0.015625)"/>
       <path id="DejaVuSans-3" transform="scale(0.015625)"/>
       <path id="DejaVuSans-28" d="M 628 4666 
L 3578 4666 
L 3578 4134 
L 1259 4134 
L 1259 2753 
L 3481 2753 
L 3481 2222 
L 1259 2222 
L 1259 531 
L 3634 531 
L 3634 0 
L 628 0 
L 628 4666 
z
" transform="scale(0.015625)"/>
       <path id="DejaVuSans-55" d="M 2631 2963 
Q 2534 3019 2420 3045 
Q 2306 3072 2169 3072 
Q 1681 3072 1420 2755 
Q 1159 2438 1159 1844 
L 1159 0 
L 581 0 
L 581 3500 
L 1159 3500 
L 1159 2956 
Q 1341 3275 1631 3429 
Q 1922 3584 2338 3584 
Q 2397 3584 2469 3576 
Q 2541 3569 2628 3553 
L 2631 2963 
z
" transform="scale(0.015625)"/>
       <path id="DejaVuSans-3e" d="M 550 4863 
L 1875 4863 
L 1875 4416 
L 1125 4416 
L 1125 -397 
L 1875 -397 
L 1875 -844 
L 550 -844 
L 550 4863 
z
" transform="scale(0.015625)"/>
       <path id="DejaVuSans-50" d="M 3328 2828 
Q 3544 3216 3844 3400 
Q 4144 3584 4550 3584 
Q 5097 3584 5394 3201 
Q 5691 2819 5691 2113 
L 5691 0 
L 5113 0 
L 5113 2094 
Q 5113 2597 4934 2840 
Q 4756 3084 4391 3084 
Q 3944 3084 3684 2787 
Q 3425 2491 3425 1978 
L 3425 0 
L 2847 0 
L 2847 2094 
Q 2847 2600 2669 2842 
Q 2491 3084 2119 3084 
Q 1678 3084 1418 2786 
Q 1159 2488 1159 1978 
L 1159 0 
L 581 0 
L 581 3500 
L 1159 3500 
L 1159 2956 
Q 1356 3278 1631 3431 
Q 1906 3584 2284 3584 
Q 2666 3584 2933 3390 
Q 3200 3197 3328 2828 
z
" transform="scale(0.015625)"/>
       <path id="DejaVuSans-40" d="M 1947 4863 
L 1947 -844 
L 622 -844 
L 622 -397 
L 1369 -397 
L 1369 4416 
L 622 4416 
L 622 4863 
L 1947 4863 
z
" transform="scale(0.015625)"/>
      </defs>
      <use xlink:href="#DejaVuSans-33"/>
      <use xlink:href="#DejaVuSans-52" transform="translate(56.734375 0)"/>
      <use xlink:href="#DejaVuSans-56" transform="translate(117.921875 0)"/>
      <use xlink:href="#DejaVuSans-4c" transform="translate(170.015625 0)"/>
      <use xlink:href="#DejaVuSans-57" transform="translate(197.796875 0)"/>
      <use xlink:href="#DejaVuSans-4c" transform="translate(237 0)"/>
      <use xlink:href="#DejaVuSans-52" transform="translate(264.78125 0)"/>
      <use xlink:href="#DejaVuSans-51" transform="translate(325.96875 0)"/>
      <use xlink:href="#DejaVuSans-3" transform="translate(389.34375 0)"/>
      <use xlink:href="#DejaVuSans-28" transform="translate(421.125 0)"/>
      <use xlink:href="#DejaVuSans-55" transform="translate(484.3125 0)"/>
      <use xlink:href="#DejaVuSans-55" transform="translate(523.671875 0)"/>
      <use xlink:href="#DejaVuSans-52" transform="translate(562.578125 0)"/>
      <use xlink:href="#DejaVuSans-55" transform="translate(623.765625 0)"/>
      <use xlink:href="#DejaVuSans-3" transform="translate(664.875 0)"/>
      <use xlink:href="#DejaVuSans-3e" transform="translate(696.65625 0)"/>
      <use xlink:href="#DejaVuSans-50" transform="translate(735.671875 0)"/>
      <use xlink:href="#DejaVuSans-40" transform="translate(833.078125 0)"/>
     </g>
    </g>
   </g>
   <g id="line2d_16">
    <path d="M 68.581076 182.434064 
L 68.815847 176.54776 
L 69.050618 29.942694 
L 69.754931 69.63473 
L 69.989701 94.039441 
L 70.694014 83.68869 
L 71.163556 63.152643 
L 71.633098 86.742931 
L 72.572182 139.867122 
L 73.041723 136.8079 
L 73.511265 97.196781 
L 73.980807 112.182095 
L 74.919891 156.876871 
L 75.389433 140.144012 
L 76.093745 110.979003 
L 76.563287 126.534414 
L 76.798058 143.986048 
L 77.2676 114.562629 
L 78.676225 69.373795 
L 80.319622 136.00485 
L 80.554393 124.665176 
L 81.258705 136.448916 
L 81.493476 135.595447 
L 81.728247 129.206116 
L 81.963018 144.925584 
L 82.197789 144.322062 
L 82.902102 114.282884 
L 83.136873 136.30177 
L 83.841186 155.855624 
L 84.075956 128.665444 
L 84.780269 153.582079 
L 85.01504 147.780686 
L 85.249811 160.780996 
L 85.954124 166.978602 
L 86.658437 181.306449 
L 87.362749 180.32693 
L 89.006146 152.946707 
L 90.18 181.585795 
L 91.119084 158.696068 
L 92.058168 167.708085 
L 93.701564 181.383428 
L 95.814502 116.86996 
L 96.049273 118.309869 
L 97.223128 145.22798 
L 97.927441 138.875783 
L 99.101295 166.416421 
L 99.570837 167.372707 
L 100.509921 149.936239 
L 100.979462 143.937408 
L 101.449004 148.080865 
L 101.683775 148.762003 
L 101.918546 147.034114 
L 102.153317 146.074673 
L 102.85763 166.645293 
L 103.327172 165.951998 
L 103.561943 159.299346 
L 104.266255 162.837274 
L 104.501026 162.352916 
L 105.205339 175.706858 
L 105.909652 182.301285 
L 106.144423 176.865751 
L 107.787819 146.226088 
L 109.665986 173.21127 
L 109.900757 159.835364 
L 110.60507 167.490213 
L 111.309383 177.821159 
L 112.013695 159.432027 
L 112.483237 159.731706 
L 112.952779 176.163483 
L 114.126634 173.524408 
L 114.361405 168.125228 
L 114.830946 175.711282 
L 115.065717 177.547796 
L 115.300488 174.24479 
L 116.239572 154.698441 
L 117.178656 156.174757 
L 117.413427 159.158593 
L 117.648197 149.884709 
L 117.882968 157.397018 
L 118.117739 155.256976 
L 118.35251 163.758334 
L 118.822052 158.111497 
L 119.526365 148.570747 
L 119.995907 150.48463 
L 120.465448 168.846419 
L 121.169761 163.424803 
L 121.404532 163.522475 
L 122.813158 181.888014 
L 123.047929 181.726696 
L 123.282699 177.180785 
L 124.221783 177.702921 
L 124.456554 180.17172 
L 124.691325 177.323772 
L 125.160867 178.111503 
L 125.630409 173.918138 
L 125.86518 160.295079 
L 126.804263 163.751385 
L 127.039034 164.053402 
L 128.44766 181.027371 
L 128.682431 179.091893 
L 128.917201 182.022506 
L 129.386743 179.193334 
L 129.856285 181.74099 
L 130.091056 180.631459 
L 130.560598 182.254666 
L 132.203994 166.416133 
L 133.61262 180.114994 
L 134.082162 180.481005 
L 135.725558 151.393721 
L 136.664642 152.115286 
L 137.368954 157.754535 
L 137.838496 153.513017 
L 138.542809 169.633697 
L 139.012351 162.071518 
L 140.420976 145.50658 
L 140.655747 147.350496 
L 141.36006 139.298339 
L 141.594831 145.983592 
L 143.003456 170.219289 
L 143.707769 160.29898 
L 143.94254 159.957291 
L 144.412082 152.728754 
L 144.881624 158.162355 
L 145.116395 159.469933 
L 145.820707 173.870746 
L 146.055478 173.337143 
L 146.52502 165.07045 
L 146.994562 173.945132 
L 147.229333 180.864666 
L 147.698875 174.202649 
L 148.168417 170.844054 
L 148.637958 182.147664 
L 149.1075 181.972343 
L 150.985668 158.073777 
L 151.220438 159.553777 
L 151.924751 177.216173 
L 152.629064 168.45694 
L 153.802919 162.253777 
L 154.037689 158.519197 
L 154.27246 167.564795 
L 154.507231 167.378284 
L 154.742002 168.672965 
L 154.976773 166.933387 
L 155.446315 168.437221 
L 155.681086 166.785224 
L 155.915857 169.939055 
L 156.385399 173.990873 
L 156.62017 182.335957 
L 157.089711 172.109625 
L 157.324482 175.408181 
L 158.263566 161.856883 
L 158.498337 163.165285 
L 158.967879 167.157127 
L 159.20265 166.367407 
L 159.437421 162.020692 
L 159.672191 168.546335 
L 159.906962 178.942772 
L 160.846046 176.57877 
L 161.080817 175.340794 
L 162.254672 155.918953 
L 162.489442 156.659838 
L 163.428526 148.98351 
L 163.663297 153.09489 
L 164.837152 161.398382 
L 165.071923 159.352162 
L 165.306693 163.262597 
L 166.480548 176.844615 
L 166.715319 166.395419 
L 167.654403 166.76723 
L 167.889174 168.487205 
L 168.828257 151.062741 
L 169.297799 155.190874 
L 169.767341 168.445653 
L 170.706425 167.518404 
L 171.175966 161.72928 
L 171.410737 171.491382 
L 171.645508 171.613413 
L 172.11505 156.738129 
L 172.819363 162.787939 
L 173.054134 165.975813 
L 173.758446 163.327017 
L 174.462759 150.758602 
L 175.167072 154.014864 
L 175.401843 159.889113 
L 175.871385 153.58351 
L 176.340927 149.638609 
L 176.810468 152.693909 
L 178.219094 181.759872 
L 179.158178 182.009852 
L 179.392948 175.662939 
L 179.86249 179.697804 
L 180.332032 176.568694 
L 181.271116 161.435678 
L 181.505887 167.681737 
L 181.740658 165.985096 
L 181.975429 169.642476 
L 182.44497 181.04771 
L 183.149283 180.977136 
L 183.384054 180.689065 
L 184.557909 165.569011 
L 185.731763 179.783749 
L 185.966534 179.077146 
L 186.201305 182.327487 
L 186.905618 179.21083 
L 187.140389 173.953345 
L 187.609931 181.555627 
L 188.314243 180.282339 
L 188.549014 181.588963 
L 188.783785 181.947272 
L 189.95764 161.303754 
L 190.661952 169.688735 
L 191.131494 168.063169 
L 191.366265 163.939692 
L 191.601036 172.815134 
L 191.835807 168.139414 
L 192.774891 179.689044 
L 193.479203 158.105662 
L 193.948745 166.20137 
L 194.183516 173.680191 
L 194.653058 168.376641 
L 195.826913 154.583976 
L 196.296454 161.634298 
L 197.000767 161.261985 
L 198.878934 177.398726 
L 199.583247 176.869712 
L 199.818018 172.880187 
L 200.28756 179.155725 
L 200.522331 176.586683 
L 201.226644 181.800115 
L 201.696185 181.594376 
L 202.87004 167.218444 
L 204.043895 180.064617 
L 204.278666 180.058567 
L 205.217749 154.185143 
L 205.687291 163.929276 
L 205.922062 162.385378 
L 206.156833 164.30755 
L 206.391604 173.575496 
L 207.095917 168.455867 
L 207.800229 157.637445 
L 208.035 146.473707 
L 208.504542 167.038177 
L 209.678397 148.569705 
L 210.147938 156.190623 
L 210.852251 152.445774 
L 211.087022 161.401994 
L 212.026106 161.071179 
L 212.260877 167.465216 
L 212.730419 153.326484 
L 214.373815 167.905595 
L 213.19996 152.741404 
L 215.078128 162.005054 
L 216.017211 142.500961 
L 216.956295 146.886087 
L 217.660608 143.363477 
L 218.13015 153.222142 
L 218.599691 142.658388 
L 219.304004 143.277267 
L 220.477859 154.993816 
L 221.182172 147.498806 
L 221.416942 147.832284 
L 221.651713 153.818797 
L 222.121255 145.162314 
L 222.356026 148.068739 
L 222.590797 148.228585 
L 222.825568 151.137206 
L 223.29511 146.046701 
L 223.529881 145.917663 
L 224.938506 162.903442 
L 225.173277 162.892287 
L 225.408048 158.773381 
L 225.642819 167.028651 
L 225.87759 163.786609 
L 226.347132 165.820512 
L 226.581903 171.100432 
L 227.051444 168.546796 
L 227.286215 163.041282 
L 227.755757 168.035919 
L 227.990528 170.103591 
L 228.225299 169.195289 
L 228.694841 162.393322 
L 228.929612 169.273742 
L 229.164383 164.27842 
L 229.399154 164.599049 
L 229.633925 163.914197 
L 230.103466 160.041513 
L 230.573008 166.140443 
L 230.807779 157.17594 
L 231.512092 145.27583 
L 231.746863 135.66721 
L 232.216405 145.703272 
L 232.920717 163.689296 
L 233.390259 154.552515 
L 233.62503 148.245077 
L 234.094572 158.923642 
L 234.329343 153.406819 
L 235.737968 143.181931 
L 236.20751 145.691232 
L 236.677052 156.03911 
L 237.146594 147.84416 
L 238.320448 165.146252 
L 239.259532 164.74549 
L 239.963845 159.766117 
L 240.198616 165.193663 
L 240.902928 180.039548 
L 241.137699 175.297467 
L 242.076783 159.429655 
L 242.311554 162.99761 
L 242.546325 168.060382 
L 242.781096 158.383973 
L 243.015867 152.902488 
L 243.485409 159.057563 
L 243.720179 161.386473 
L 243.95495 155.898291 
L 244.659263 145.113278 
L 244.894034 156.23826 
L 245.128805 156.964622 
L 245.363576 156.571953 
L 245.598347 152.969402 
L 246.30266 156.991 
L 247.241743 167.434257 
L 247.476514 164.394406 
L 247.946056 166.882211 
L 248.180827 179.791049 
L 248.88514 163.573431 
L 249.354681 157.443768 
L 249.589452 162.421885 
L 250.763307 182.210802 
L 250.998078 179.15897 
L 251.232849 171.672215 
L 251.937162 177.226304 
L 252.641474 172.785224 
L 252.876245 173.155482 
L 253.345787 182.33752 
L 253.580558 175.107718 
L 254.284871 164.496755 
L 254.754413 168.663289 
L 255.928267 156.252658 
L 255.223954 171.01852 
L 256.163038 164.183261 
L 256.397809 166.308927 
L 257.571664 151.043149 
L 258.745518 180.985461 
L 258.980289 180.181751 
L 259.21506 180.262971 
L 259.449831 175.728743 
L 259.684602 181.390023 
L 260.154144 176.725765 
L 260.388915 177.144078 
L 260.623685 180.415046 
L 261.093227 174.609196 
L 261.327998 176.221739 
L 261.79754 161.777979 
L 262.501853 162.207983 
L 263.206166 157.618072 
L 264.145249 181.917919 
L 264.38002 174.352714 
L 264.614791 174.348356 
L 264.849562 181.250832 
L 265.084333 172.002733 
L 265.553875 174.854474 
L 265.788646 173.539597 
L 266.023417 164.302162 
L 266.258187 177.405139 
L 266.727729 167.396858 
L 266.9625 172.344234 
L 267.197271 162.689545 
L 268.605897 144.617669 
L 269.310209 172.883153 
L 270.014522 152.778877 
L 270.249293 150.75155 
L 270.484064 154.671314 
L 270.718835 154.206635 
L 270.953606 159.407227 
L 271.423148 152.75764 
L 271.657919 147.709395 
L 272.12746 156.452278 
L 272.597002 151.200602 
L 273.770857 168.636298 
L 274.005628 167.318482 
L 274.240399 171.119053 
L 275.883795 181.854679 
L 276.118566 175.033679 
L 277.05765 176.672483 
L 277.996733 181.911754 
L 278.466275 182.179763 
L 279.170588 170.553414 
L 280.344442 163.982745 
L 282.692152 180.592303 
L 283.161693 164.196274 
L 283.866006 174.490567 
L 284.100777 174.583367 
L 285.039861 181.746586 
L 285.274632 178.180793 
L 285.509403 178.100617 
L 285.744173 182.051395 
L 286.213715 178.653922 
L 286.448486 173.593488 
L 286.918028 181.045381 
L 287.152799 177.81568 
L 287.38757 181.18893 
L 287.622341 170.581467 
L 288.326654 146.461572 
L 289.030966 148.3965 
L 289.735279 145.596703 
L 289.500508 149.919783 
L 290.204821 145.908969 
L 292.082988 180.806115 
L 292.787301 173.022856 
L 293.022072 169.300566 
L 293.256843 178.507513 
L 293.491614 177.016377 
L 294.430697 182.078972 
L 294.195926 174.98442 
L 294.665468 179.981909 
L 295.369781 177.357161 
L 295.604552 177.732712 
L 296.074094 172.953881 
L 296.308865 179.425952 
L 296.543636 175.333551 
L 296.778407 178.581215 
L 297.013177 171.529694 
L 297.247948 172.048183 
L 297.952261 159.439051 
L 298.421803 163.164475 
L 298.656574 167.465234 
L 299.126116 158.769218 
L 299.360887 157.325047 
L 299.595658 161.268874 
L 300.29997 174.524165 
L 300.769512 167.298695 
L 301.004283 160.551908 
L 301.708596 162.248966 
L 302.178138 180.432016 
L 302.647679 165.59077 
L 303.821534 143.74721 
L 304.056305 149.41087 
L 304.995389 170.778231 
L 305.23016 167.454121 
L 306.404014 144.31469 
L 309.456036 181.437438 
L 309.690807 179.948663 
L 309.925578 173.205871 
L 310.629891 179.405968 
L 311.099432 180.965604 
L 311.334203 174.726559 
L 312.9776 140.841755 
L 313.212371 140.896819 
L 313.447142 140.852092 
L 314.151454 133.67054 
L 314.386225 135.450607 
L 315.090538 157.669529 
L 315.56008 149.251777 
L 316.499163 156.156724 
L 316.733934 155.066799 
L 318.14256 129.253418 
L 318.377331 132.799522 
L 319.316414 132.350746 
L 319.551185 132.715836 
L 320.490269 148.203929 
L 320.72504 142.786058 
L 320.959811 133.592284 
L 321.429353 146.755558 
L 321.664124 143.437781 
L 322.133665 156.625812 
L 322.603207 145.704487 
L 324.716146 116.151586 
L 325.185687 124.018089 
L 325.420458 124.359456 
L 325.655229 123.317516 
L 327.533397 155.775985 
L 328.942022 133.160664 
L 329.176793 139.527495 
L 329.881106 136.950401 
L 330.115877 137.798681 
L 330.350648 146.423789 
L 331.289731 145.916566 
L 331.524502 135.425951 
L 332.228815 144.225818 
L 332.463586 141.4356 
L 332.698357 146.420404 
L 333.402669 157.049433 
L 333.63744 155.016833 
L 333.872211 150.055076 
L 334.106982 155.412732 
L 334.811295 171.831831 
L 335.280837 164.468463 
L 335.750379 163.324306 
L 336.924233 180.917898 
L 337.393775 180.020799 
L 337.863317 161.982143 
L 338.56763 171.980188 
L 338.802401 167.430596 
L 339.271942 171.151916 
L 339.506713 176.010722 
L 339.741484 168.976964 
L 340.211026 152.967406 
L 340.915339 154.771295 
L 341.619652 158.330088 
L 343.497819 126.770694 
L 344.202132 143.864466 
L 344.671673 152.745505 
L 345.141215 144.833385 
L 345.610757 146.158491 
L 346.549841 131.549004 
L 347.019383 138.163732 
L 347.254154 139.247206 
L 349.601863 181.350561 
L 351.48003 165.586809 
L 351.714801 166.394597 
L 351.949572 172.58508 
L 352.184343 161.280199 
L 353.592968 142.009123 
L 354.532052 150.305635 
L 355.940677 124.29108 
L 356.175448 122.274306 
L 356.410219 123.203806 
L 357.818845 143.991061 
L 358.757928 154.815576 
L 358.992699 151.616138 
L 359.22747 147.833847 
L 359.462241 156.247145 
L 359.697012 150.776904 
L 361.105638 170.092002 
L 361.575179 180.815052 
L 362.279492 173.075192 
L 362.514263 171.645809 
L 362.749034 174.064126 
L 363.453347 182.208643 
L 364.627201 154.39534 
L 366.035827 181.91102 
L 366.270598 180.736765 
L 366.74014 182.404147 
L 367.679223 168.662079 
L 367.913994 176.04748 
L 368.853078 174.30471 
L 369.32262 179.394339 
L 370.026932 177.366877 
L 370.731245 168.793202 
L 370.966016 174.626572 
L 372.374642 181.716053 
L 373.548496 169.108374 
L 374.018038 176.772012 
L 374.48758 168.923984 
L 376.130976 142.004123 
L 376.365747 146.397169 
L 376.600518 145.084005 
L 377.304831 131.495489 
L 377.774373 135.931727 
L 378.009144 134.550025 
L 378.243914 135.717658 
L 380.356853 164.745367 
L 380.591624 160.265152 
L 381.765478 142.726481 
L 382.23502 147.120666 
L 382.704562 156.948864 
L 383.174104 149.706916 
L 383.408875 150.070602 
L 383.878416 163.386663 
L 384.347958 147.61014 
L 385.052271 139.848313 
L 384.8175 149.788482 
L 385.521813 143.20387 
L 385.756584 152.104776 
L 386.460897 144.919499 
L 386.695667 145.820387 
L 387.869522 135.471248 
L 388.339064 143.623786 
L 388.808606 140.591754 
L 389.043377 133.960038 
L 389.512918 136.99494 
L 390.452002 166.708623 
L 391.156315 163.994655 
L 392.330169 153.599311 
L 393.034482 138.675133 
L 393.269253 141.623314 
L 394.443108 165.12479 
L 394.677879 161.891798 
L 395.616962 144.209299 
L 395.851733 146.532856 
L 396.086504 143.454957 
L 396.321275 150.319034 
L 396.556046 145.673257 
L 397.49513 159.930852 
L 397.964671 158.302342 
L 399.608068 137.93883 
L 401.016693 123.962026 
L 401.486235 127.869178 
L 401.955777 123.719991 
L 402.425319 119.517332 
L 402.66009 121.457458 
L 404.303486 150.931187 
L 405.712112 166.096122 
L 407.120737 143.294628 
L 407.355508 150.006878 
L 407.590279 157.75041 
L 408.294592 153.12775 
L 409.703217 170.704258 
L 408.764134 152.861377 
L 409.937988 161.10077 
L 410.642301 143.58685 
L 411.111843 152.297521 
L 411.816155 145.206958 
L 412.050926 151.546452 
L 412.755239 169.043775 
L 413.694323 164.757697 
L 414.163865 162.392864 
L 414.868177 180.192122 
L 415.337719 177.22365 
L 415.57249 178.448521 
L 416.042032 164.206029 
L 416.511574 176.971033 
L 416.981116 182.042111 
L 417.450657 180.138074 
L 417.685428 180.184484 
L 418.15497 176.485055 
L 418.624512 182.218658 
L 419.798367 161.025254 
L 420.033138 164.029365 
L 420.267908 160.714509 
L 420.502679 154.619766 
L 421.206992 156.756025 
L 421.441763 160.829966 
L 421.676534 156.979402 
L 422.380847 143.964258 
L 422.615618 154.745589 
L 422.850389 162.378595 
L 423.31993 153.483429 
L 423.789472 151.627356 
L 424.024243 154.474579 
L 424.493785 160.466467 
L 425.66764 180.302001 
L 425.90241 179.788097 
L 426.371952 168.920558 
L 427.076265 173.909598 
L 427.311036 173.094389 
L 427.545807 175.876021 
L 428.015349 180.795669 
L 428.484891 176.458713 
L 428.954432 159.182821 
L 429.658745 167.201362 
L 429.893516 165.551809 
L 430.363058 174.151011 
L 430.8326 174.118306 
L 431.302142 163.770748 
L 431.771683 174.124284 
L 432.006454 182.011841 
L 432.710767 174.169492 
L 434.823705 143.618167 
L 435.762789 132.285285 
L 436.467102 138.823436 
L 437.171414 164.899746 
L 437.406185 160.581787 
L 437.640956 149.087925 
L 438.58004 150.58493 
L 439.988665 182.334012 
L 440.458207 182.160612 
L 440.927749 176.451054 
L 441.16252 159.531689 
L 441.632062 177.996002 
L 441.866833 175.479053 
L 442.101604 176.000474 
L 442.336375 174.156092 
L 443.510229 180.748116 
L 444.918855 170.296379 
L 444.214542 181.138513 
L 445.153626 173.5426 
L 445.388396 182.118475 
L 446.32748 180.398634 
L 446.562251 172.007303 
L 447.266564 173.842888 
L 447.501335 177.839574 
L 447.970877 170.993997 
L 449.379502 164.786441 
L 449.614273 172.259386 
L 450.083815 162.656152 
L 450.318586 164.17085 
L 450.553357 156.007734 
L 451.022898 171.325696 
L 451.257669 172.304063 
L 451.49244 168.047261 
L 451.961982 177.228627 
L 452.196753 178.792642 
L 452.431524 174.464372 
L 452.901066 177.774781 
L 453.135837 178.587896 
L 454.544462 161.068023 
L 455.014004 166.408392 
L 455.248775 165.867522 
L 456.42263 147.343727 
L 456.6574 149.365568 
L 457.361713 134.526216 
L 457.596484 137.996771 
L 458.770339 158.147081 
L 459.00511 157.439892 
L 459.239881 173.344004 
L 459.944193 160.102365 
L 461.352819 170.538935 
L 461.58759 170.016859 
L 462.057132 180.423569 
L 462.526673 175.820832 
L 462.761444 173.4592 
L 463.230986 178.114503 
L 463.465757 177.327745 
L 463.700528 180.713362 
L 464.404841 178.812621 
L 465.343924 170.879553 
L 466.048237 171.385328 
L 468.630717 126.464913 
L 466.987321 171.82231 
L 468.865488 135.748401 
L 469.100259 136.167087 
L 469.33503 128.604735 
L 470.039343 137.088699 
L 470.508885 144.81389 
L 470.743655 136.336211 
L 470.978426 136.537805 
L 471.213197 124.748388 
L 471.682739 132.166386 
L 473.091365 149.67383 
L 473.560906 143.438135 
L 474.030448 146.38047 
L 474.734761 158.84707 
L 474.969532 150.309705 
L 475.439074 140.443455 
L 475.673845 151.362824 
L 475.908616 143.51742 
L 476.378157 158.90463 
L 477.317241 156.350879 
L 477.786783 170.50348 
L 478.491096 165.621525 
L 478.725867 165.850745 
L 478.960637 164.540636 
L 479.195408 170.926097 
L 479.66495 157.735968 
L 479.899721 155.180117 
L 480.369263 167.957022 
L 480.838805 167.363166 
L 482.012659 153.44219 
L 482.24743 155.906295 
L 482.716972 152.624717 
L 482.951743 155.706963 
L 483.421285 149.781796 
L 483.656056 158.721583 
L 483.890827 155.293147 
L 484.82991 158.827161 
L 486.473307 129.509608 
L 487.41239 135.40887 
L 488.351474 162.736041 
L 489.525329 160.739197 
L 489.994871 150.448448 
L 490.229641 159.711021 
L 490.933954 168.340689 
L 491.168725 164.439667 
L 491.403496 156.938974 
L 491.638267 165.620505 
L 492.107809 181.469185 
L 492.577351 168.542944 
L 494.455518 180.256932 
L 495.629373 164.793786 
L 496.333685 162.525773 
L 497.742311 181.275755 
L 498.681394 181.929989 
L 499.150936 174.805569 
L 499.385707 180.095061 
L 499.855249 168.803863 
L 500.09002 166.710745 
L 500.324791 174.349747 
L 500.559562 165.159867 
L 501.029104 172.972835 
L 503.142042 155.137362 
L 503.611584 161.43513 
L 503.846355 162.135776 
L 504.315896 174.066719 
L 504.550667 163.962117 
L 504.785438 159.165898 
L 505.25498 169.059747 
L 505.489751 165.720631 
L 505.724522 170.978582 
L 505.959293 180.711387 
L 506.428835 169.221471 
L 506.663606 165.564779 
L 506.898377 170.933562 
L 507.83746 182.257822 
L 508.072231 176.341491 
L 508.776544 166.326156 
L 509.011315 167.743664 
L 509.480857 180.453812 
L 509.950398 176.954525 
L 510.41994 166.912842 
L 510.654711 178.590744 
L 511.124253 172.816104 
L 511.359024 177.896274 
L 511.828566 167.094538 
L 512.063337 169.063969 
L 512.298108 157.989562 
L 513.00242 167.334891 
L 513.237191 176.812602 
L 513.706733 163.658346 
L 514.411046 148.719613 
L 514.880588 149.158522 
L 516.523984 171.535591 
L 516.758755 171.725646 
L 517.463068 164.922241 
L 517.228297 174.762649 
L 517.697839 166.082273 
L 518.636922 181.072798 
L 518.871693 178.629459 
L 520.045548 163.401827 
L 519.341235 180.413636 
L 520.51509 166.543028 
L 520.984631 182.271423 
L 521.454173 177.667077 
L 521.688944 170.153493 
L 522.393257 177.514242 
L 523.09757 176.99469 
L 523.332341 180.766767 
L 523.801882 174.771379 
L 524.036653 169.170995 
L 524.506195 171.296018 
L 524.975737 182.152708 
L 525.68005 176.504251 
L 527.323446 160.270111 
L 527.792988 164.306301 
L 528.26253 181.534874 
L 528.966843 177.105505 
L 529.436384 172.65211 
L 530.140697 172.838941 
L 530.84501 167.242126 
L 531.079781 146.887449 
L 531.784094 159.935718 
L 533.192719 181.187319 
L 534.131803 180.331925 
L 536.00997 150.438293 
L 534.601345 181.699246 
L 536.244741 157.296296 
L 536.479512 158.345118 
L 536.714283 149.786887 
L 537.183825 156.826056 
L 538.122908 180.836678 
L 538.122908 180.836678 
" clip-path="url(#pc27e24a946)" style="fill: none; stroke: #e41a1c; stroke-width: 2; stroke-linecap: square"/>
   </g>
   <g id="patch_3">
    <path d="M 45.103984 190.058633 
L 45.103984 22.318125 
" style="fill: none; stroke: #7f7f7f; stroke-width: 1.8; stroke-linejoin: miter; stroke-linecap: square"/>
   </g>
   <g id="patch_4">
    <path d="M 45.103984 190.058633 
L 561.6 190.058633 
" style="fill: none; stroke: #7f7f7f; stroke-width: 1.8; stroke-linejoin: miter; stroke-linecap: square"/>
   </g>
   <g id="text_17">
    <!-- Kalman Filter Estimation Error -->
    <g style="fill: #7f7f7f" transform="translate(200.338555 16.318125) scale(0.12 -0.12)">
     <defs>
      <path id="DejaVuSans-Bold-2e" d="M 588 4666 
L 1791 4666 
L 1791 2963 
L 3525 4666 
L 4922 4666 
L 2675 2456 
L 5153 0 
L 3647 0 
L 1791 1838 
L 1791 0 
L 588 0 
L 588 4666 
z
" transform="scale(0.015625)"/>
      <path id="DejaVuSans-Bold-44" d="M 2106 1575 
Q 1756 1575 1579 1456 
Q 1403 1338 1403 1106 
Q 1403 894 1545 773 
Q 1688 653 1941 653 
Q 2256 653 2472 879 
Q 2688 1106 2688 1447 
L 2688 1575 
L 2106 1575 
z
M 3816 1997 
L 3816 0 
L 2688 0 
L 2688 519 
Q 2463 200 2181 54 
Q 1900 -91 1497 -91 
Q 953 -91 614 226 
Q 275 544 275 1050 
Q 275 1666 698 1953 
Q 1122 2241 2028 2241 
L 2688 2241 
L 2688 2328 
Q 2688 2594 2478 2717 
Q 2269 2841 1825 2841 
Q 1466 2841 1156 2769 
Q 847 2697 581 2553 
L 581 3406 
Q 941 3494 1303 3539 
Q 1666 3584 2028 3584 
Q 2975 3584 3395 3211 
Q 3816 2838 3816 1997 
z
" transform="scale(0.015625)"/>
      <path id="DejaVuSans-Bold-4f" d="M 538 4863 
L 1656 4863 
L 1656 0 
L 538 0 
L 538 4863 
z
" transform="scale(0.015625)"/>
      <path id="DejaVuSans-Bold-50" d="M 3781 2919 
Q 3994 3244 4286 3414 
Q 4578 3584 4928 3584 
Q 5531 3584 5847 3212 
Q 6163 2841 6163 2131 
L 6163 0 
L 5038 0 
L 5038 1825 
Q 5041 1866 5042 1909 
Q 5044 1953 5044 2034 
Q 5044 2406 4934 2573 
Q 4825 2741 4581 2741 
Q 4263 2741 4089 2478 
Q 3916 2216 3909 1719 
L 3909 0 
L 2784 0 
L 2784 1825 
Q 2784 2406 2684 2573 
Q 2584 2741 2328 2741 
Q 2006 2741 1831 2477 
Q 1656 2213 1656 1722 
L 1656 0 
L 531 0 
L 531 3500 
L 1656 3500 
L 1656 2988 
Q 1863 3284 2130 3434 
Q 2397 3584 2719 3584 
Q 3081 3584 3359 3409 
Q 3638 3234 3781 2919 
z
" transform="scale(0.015625)"/>
      <path id="DejaVuSans-Bold-51" d="M 4056 2131 
L 4056 0 
L 2931 0 
L 2931 347 
L 2931 1631 
Q 2931 2084 2911 2256 
Q 2891 2428 2841 2509 
Q 2775 2619 2662 2680 
Q 2550 2741 2406 2741 
Q 2056 2741 1856 2470 
Q 1656 2200 1656 1722 
L 1656 0 
L 538 0 
L 538 3500 
L 1656 3500 
L 1656 2988 
Q 1909 3294 2193 3439 
Q 2478 3584 2822 3584 
Q 3428 3584 3742 3212 
Q 4056 2841 4056 2131 
z
" transform="scale(0.015625)"/>
      <path id="DejaVuSans-Bold-3" transform="scale(0.015625)"/>
      <path id="DejaVuSans-Bold-29" d="M 588 4666 
L 3834 4666 
L 3834 3756 
L 1791 3756 
L 1791 2888 
L 3713 2888 
L 3713 1978 
L 1791 1978 
L 1791 0 
L 588 0 
L 588 4666 
z
" transform="scale(0.015625)"/>
      <path id="DejaVuSans-Bold-4c" d="M 538 3500 
L 1656 3500 
L 1656 0 
L 538 0 
L 538 3500 
z
M 538 4863 
L 1656 4863 
L 1656 3950 
L 538 3950 
L 538 4863 
z
" transform="scale(0.015625)"/>
      <path id="DejaVuSans-Bold-57" d="M 1759 4494 
L 1759 3500 
L 2913 3500 
L 2913 2700 
L 1759 2700 
L 1759 1216 
Q 1759 972 1856 886 
Q 1953 800 2241 800 
L 2816 800 
L 2816 0 
L 1856 0 
Q 1194 0 917 276 
Q 641 553 641 1216 
L 641 2700 
L 84 2700 
L 84 3500 
L 641 3500 
L 641 4494 
L 1759 4494 
z
" transform="scale(0.015625)"/>
      <path id="DejaVuSans-Bold-48" d="M 4031 1759 
L 4031 1441 
L 1416 1441 
Q 1456 1047 1700 850 
Q 1944 653 2381 653 
Q 2734 653 3104 758 
Q 3475 863 3866 1075 
L 3866 213 
Q 3469 63 3072 -14 
Q 2675 -91 2278 -91 
Q 1328 -91 801 392 
Q 275 875 275 1747 
Q 275 2603 792 3093 
Q 1309 3584 2216 3584 
Q 3041 3584 3536 3087 
Q 4031 2591 4031 1759 
z
M 2881 2131 
Q 2881 2450 2695 2645 
Q 2509 2841 2209 2841 
Q 1884 2841 1681 2658 
Q 1478 2475 1428 2131 
L 2881 2131 
z
" transform="scale(0.015625)"/>
      <path id="DejaVuSans-Bold-55" d="M 3138 2547 
Q 2991 2616 2845 2648 
Q 2700 2681 2553 2681 
Q 2122 2681 1889 2404 
Q 1656 2128 1656 1613 
L 1656 0 
L 538 0 
L 538 3500 
L 1656 3500 
L 1656 2925 
Q 1872 3269 2151 3426 
Q 2431 3584 2822 3584 
Q 2878 3584 2943 3579 
Q 3009 3575 3134 3559 
L 3138 2547 
z
" transform="scale(0.015625)"/>
      <path id="DejaVuSans-Bold-28" d="M 588 4666 
L 3834 4666 
L 3834 3756 
L 1791 3756 
L 1791 2888 
L 3713 2888 
L 3713 1978 
L 1791 1978 
L 1791 909 
L 3903 909 
L 3903 0 
L 588 0 
L 588 4666 
z
" transform="scale(0.015625)"/>
      <path id="DejaVuSans-Bold-56" d="M 3272 3391 
L 3272 2541 
Q 2913 2691 2578 2766 
Q 2244 2841 1947 2841 
Q 1628 2841 1473 2761 
Q 1319 2681 1319 2516 
Q 1319 2381 1436 2309 
Q 1553 2238 1856 2203 
L 2053 2175 
Q 2913 2066 3209 1816 
Q 3506 1566 3506 1031 
Q 3506 472 3093 190 
Q 2681 -91 1863 -91 
Q 1516 -91 1145 -36 
Q 775 19 384 128 
L 384 978 
Q 719 816 1070 734 
Q 1422 653 1784 653 
Q 2113 653 2278 743 
Q 2444 834 2444 1013 
Q 2444 1163 2330 1236 
Q 2216 1309 1875 1350 
L 1678 1375 
Q 931 1469 631 1722 
Q 331 1975 331 2491 
Q 331 3047 712 3315 
Q 1094 3584 1881 3584 
Q 2191 3584 2531 3537 
Q 2872 3491 3272 3391 
z
" transform="scale(0.015625)"/>
      <path id="DejaVuSans-Bold-52" d="M 2203 2784 
Q 1831 2784 1636 2517 
Q 1441 2250 1441 1747 
Q 1441 1244 1636 976 
Q 1831 709 2203 709 
Q 2569 709 2762 976 
Q 2956 1244 2956 1747 
Q 2956 2250 2762 2517 
Q 2569 2784 2203 2784 
z
M 2203 3584 
Q 3106 3584 3614 3096 
Q 4122 2609 4122 1747 
Q 4122 884 3614 396 
Q 3106 -91 2203 -91 
Q 1297 -91 786 396 
Q 275 884 275 1747 
Q 275 2609 786 3096 
Q 1297 3584 2203 3584 
z
" transform="scale(0.015625)"/>
     </defs>
     <use xlink:href="#DejaVuSans-Bold-2e"/>
     <use xlink:href="#DejaVuSans-Bold-44" transform="translate(77.484375 0)"/>
     <use xlink:href="#DejaVuSans-Bold-4f" transform="translate(144.96875 0)"/>
     <use xlink:href="#DejaVuSans-Bold-50" transform="translate(179.25 0)"/>
     <use xlink:href="#DejaVuSans-Bold-44" transform="translate(283.453125 0)"/>
     <use xlink:href="#DejaVuSans-Bold-51" transform="translate(350.9375 0)"/>
     <use xlink:href="#DejaVuSans-Bold-3" transform="translate(422.125 0)"/>
     <use xlink:href="#DejaVuSans-Bold-29" transform="translate(456.9375 0)"/>
     <use xlink:href="#DejaVuSans-Bold-4c" transform="translate(525.25 0)"/>
     <use xlink:href="#DejaVuSans-Bold-4f" transform="translate(559.53125 0)"/>
     <use xlink:href="#DejaVuSans-Bold-57" transform="translate(593.8125 0)"/>
     <use xlink:href="#DejaVuSans-Bold-48" transform="translate(641.609375 0)"/>
     <use xlink:href="#DejaVuSans-Bold-55" transform="translate(709.4375 0)"/>
     <use xlink:href="#DejaVuSans-Bold-3" transform="translate(758.75 0)"/>
     <use xlink:href="#DejaVuSans-Bold-28" transform="translate(793.5625 0)"/>
     <use xlink:href="#DejaVuSans-Bold-56" transform="translate(861.875 0)"/>
     <use xlink:href="#DejaVuSans-Bold-57" transform="translate(921.390625 0)"/>
     <use xlink:href="#DejaVuSans-Bold-4c" transform="translate(969.1875 0)"/>
     <use xlink:href="#DejaVuSans-Bold-50" transform="translate(1003.46875 0)"/>
     <use xlink:href="#DejaVuSans-Bold-44" transform="translate(1107.671875 0)"/>
     <use xlink:href="#DejaVuSans-Bold-57" transform="translate(1175.15625 0)"/>
     <use xlink:href="#DejaVuSans-Bold-4c" transform="translate(1222.953125 0)"/>
     <use xlink:href="#DejaVuSans-Bold-52" transform="translate(1257.234375 0)"/>
     <use xlink:href="#DejaVuSans-Bold-51" transform="translate(1325.9375 0)"/>
     <use xlink:href="#DejaVuSans-Bold-3" transform="translate(1397.125 0)"/>
     <use xlink:href="#DejaVuSans-Bold-28" transform="translate(1431.9375 0)"/>
     <use xlink:href="#DejaVuSans-Bold-55" transform="translate(1500.25 0)"/>
     <use xlink:href="#DejaVuSans-Bold-55" transform="translate(1549.5625 0)"/>
     <use xlink:href="#DejaVuSans-Bold-52" transform="translate(1598.875 0)"/>
     <use xlink:href="#DejaVuSans-Bold-55" transform="translate(1667.578125 0)"/>
    </g>
   </g>
  </g>
  <g id="axes_2">
   <g id="patch_5">
    <path d="M 45.103984 385.599141 
L 561.6 385.599141 
L 561.6 217.858633 
L 45.103984 217.858633 
L 45.103984 385.599141 
z
" style="fill: none"/>
   </g>
   <g id="matplotlib.axis_3">
    <g id="xtick_10">
     <g id="line2d_17">
      <g>
       <use xlink:href="#m80fbde9978" x="68.581076" y="385.599141" style="fill: #7f7f7f; stroke: #7f7f7f; stroke-width: 1.8"/>
      </g>
     </g>
     <g id="text_18">
      <!-- 0.0 -->
      <g style="fill: #7f7f7f" transform="translate(60.629513 400.196797) scale(0.1 -0.1)">
       <use xlink:href="#DejaVuSans-13"/>
       <use xlink:href="#DejaVuSans-11" transform="translate(63.625 0)"/>
       <use xlink:href="#DejaVuSans-13" transform="translate(95.40625 0)"/>
      </g>
     </g>
    </g>
    <g id="xtick_11">
     <g id="line2d_18">
      <g>
       <use xlink:href="#m80fbde9978" x="127.273805" y="385.599141" style="fill: #7f7f7f; stroke: #7f7f7f; stroke-width: 1.8"/>
      </g>
     </g>
     <g id="text_19">
      <!-- 2.5 -->
      <g style="fill: #7f7f7f" transform="translate(119.322243 400.196797) scale(0.1 -0.1)">
       <use xlink:href="#DejaVuSans-15"/>
       <use xlink:href="#DejaVuSans-11" transform="translate(63.625 0)"/>
       <use xlink:href="#DejaVuSans-18" transform="translate(95.40625 0)"/>
      </g>
     </g>
    </g>
    <g id="xtick_12">
     <g id="line2d_19">
      <g>
       <use xlink:href="#m80fbde9978" x="185.966534" y="385.599141" style="fill: #7f7f7f; stroke: #7f7f7f; stroke-width: 1.8"/>
      </g>
     </g>
     <g id="text_20">
      <!-- 5.0 -->
      <g style="fill: #7f7f7f" transform="translate(178.014972 400.196797) scale(0.1 -0.1)">
       <use xlink:href="#DejaVuSans-18"/>
       <use xlink:href="#DejaVuSans-11" transform="translate(63.625 0)"/>
       <use xlink:href="#DejaVuSans-13" transform="translate(95.40625 0)"/>
      </g>
     </g>
    </g>
    <g id="xtick_13">
     <g id="line2d_20">
      <g>
       <use xlink:href="#m80fbde9978" x="244.659263" y="385.599141" style="fill: #7f7f7f; stroke: #7f7f7f; stroke-width: 1.8"/>
      </g>
     </g>
     <g id="text_21">
      <!-- 7.5 -->
      <g style="fill: #7f7f7f" transform="translate(236.707701 400.196797) scale(0.1 -0.1)">
       <use xlink:href="#DejaVuSans-1a"/>
       <use xlink:href="#DejaVuSans-11" transform="translate(63.625 0)"/>
       <use xlink:href="#DejaVuSans-18" transform="translate(95.40625 0)"/>
      </g>
     </g>
    </g>
    <g id="xtick_14">
     <g id="line2d_21">
      <g>
       <use xlink:href="#m80fbde9978" x="303.351992" y="385.599141" style="fill: #7f7f7f; stroke: #7f7f7f; stroke-width: 1.8"/>
      </g>
     </g>
     <g id="text_22">
      <!-- 10.0 -->
      <g style="fill: #7f7f7f" transform="translate(292.21918 400.196797) scale(0.1 -0.1)">
       <use xlink:href="#DejaVuSans-14"/>
       <use xlink:href="#DejaVuSans-13" transform="translate(63.625 0)"/>
       <use xlink:href="#DejaVuSans-11" transform="translate(127.25 0)"/>
       <use xlink:href="#DejaVuSans-13" transform="translate(159.03125 0)"/>
      </g>
     </g>
    </g>
    <g id="xtick_15">
     <g id="line2d_22">
      <g>
       <use xlink:href="#m80fbde9978" x="362.044721" y="385.599141" style="fill: #7f7f7f; stroke: #7f7f7f; stroke-width: 1.8"/>
      </g>
     </g>
     <g id="text_23">
      <!-- 12.5 -->
      <g style="fill: #7f7f7f" transform="translate(350.911909 400.196797) scale(0.1 -0.1)">
       <use xlink:href="#DejaVuSans-14"/>
       <use xlink:href="#DejaVuSans-15" transform="translate(63.625 0)"/>
       <use xlink:href="#DejaVuSans-11" transform="translate(127.25 0)"/>
       <use xlink:href="#DejaVuSans-18" transform="translate(159.03125 0)"/>
      </g>
     </g>
    </g>
    <g id="xtick_16">
     <g id="line2d_23">
      <g>
       <use xlink:href="#m80fbde9978" x="420.73745" y="385.599141" style="fill: #7f7f7f; stroke: #7f7f7f; stroke-width: 1.8"/>
      </g>
     </g>
     <g id="text_24">
      <!-- 15.0 -->
      <g style="fill: #7f7f7f" transform="translate(409.604638 400.196797) scale(0.1 -0.1)">
       <use xlink:href="#DejaVuSans-14"/>
       <use xlink:href="#DejaVuSans-18" transform="translate(63.625 0)"/>
       <use xlink:href="#DejaVuSans-11" transform="translate(127.25 0)"/>
       <use xlink:href="#DejaVuSans-13" transform="translate(159.03125 0)"/>
      </g>
     </g>
    </g>
    <g id="xtick_17">
     <g id="line2d_24">
      <g>
       <use xlink:href="#m80fbde9978" x="479.430179" y="385.599141" style="fill: #7f7f7f; stroke: #7f7f7f; stroke-width: 1.8"/>
      </g>
     </g>
     <g id="text_25">
      <!-- 17.5 -->
      <g style="fill: #7f7f7f" transform="translate(468.297367 400.196797) scale(0.1 -0.1)">
       <use xlink:href="#DejaVuSans-14"/>
       <use xlink:href="#DejaVuSans-1a" transform="translate(63.625 0)"/>
       <use xlink:href="#DejaVuSans-11" transform="translate(127.25 0)"/>
       <use xlink:href="#DejaVuSans-18" transform="translate(159.03125 0)"/>
      </g>
     </g>
    </g>
    <g id="xtick_18">
     <g id="line2d_25">
      <g>
       <use xlink:href="#m80fbde9978" x="538.122908" y="385.599141" style="fill: #7f7f7f; stroke: #7f7f7f; stroke-width: 1.8"/>
      </g>
     </g>
     <g id="text_26">
      <!-- 20.0 -->
      <g style="fill: #7f7f7f" transform="translate(526.990096 400.196797) scale(0.1 -0.1)">
       <use xlink:href="#DejaVuSans-15"/>
       <use xlink:href="#DejaVuSans-13" transform="translate(63.625 0)"/>
       <use xlink:href="#DejaVuSans-11" transform="translate(127.25 0)"/>
       <use xlink:href="#DejaVuSans-13" transform="translate(159.03125 0)"/>
      </g>
     </g>
    </g>
    <g id="text_27">
     <!-- Time [s] -->
     <g style="fill: #7f7f7f" transform="translate(280.987617 414.957422) scale(0.11 -0.11)">
      <defs>
       <path id="DejaVuSans-37" d="M -19 4666 
L 3928 4666 
L 3928 4134 
L 2272 4134 
L 2272 0 
L 1638 0 
L 1638 4134 
L -19 4134 
L -19 4666 
z
" transform="scale(0.015625)"/>
       <path id="DejaVuSans-48" d="M 3597 1894 
L 3597 1613 
L 953 1613 
Q 991 1019 1311 708 
Q 1631 397 2203 397 
Q 2534 397 2845 478 
Q 3156 559 3463 722 
L 3463 178 
Q 3153 47 2828 -22 
Q 2503 -91 2169 -91 
Q 1331 -91 842 396 
Q 353 884 353 1716 
Q 353 2575 817 3079 
Q 1281 3584 2069 3584 
Q 2775 3584 3186 3129 
Q 3597 2675 3597 1894 
z
M 3022 2063 
Q 3016 2534 2758 2815 
Q 2500 3097 2075 3097 
Q 1594 3097 1305 2825 
Q 1016 2553 972 2059 
L 3022 2063 
z
" transform="scale(0.015625)"/>
      </defs>
      <use xlink:href="#DejaVuSans-37"/>
      <use xlink:href="#DejaVuSans-4c" transform="translate(58 0)"/>
      <use xlink:href="#DejaVuSans-50" transform="translate(85.78125 0)"/>
      <use xlink:href="#DejaVuSans-48" transform="translate(183.1875 0)"/>
      <use xlink:href="#DejaVuSans-3" transform="translate(244.71875 0)"/>
      <use xlink:href="#DejaVuSans-3e" transform="translate(276.5 0)"/>
      <use xlink:href="#DejaVuSans-56" transform="translate(315.515625 0)"/>
      <use xlink:href="#DejaVuSans-40" transform="translate(367.609375 0)"/>
     </g>
    </g>
   </g>
   <g id="matplotlib.axis_4">
    <g id="ytick_7">
     <g id="line2d_26">
      <g>
       <use xlink:href="#m7d86d65cca" x="45.103984" y="377.976755" style="fill: #7f7f7f; stroke: #7f7f7f; stroke-width: 1.8"/>
      </g>
     </g>
     <g id="text_28">
      <!-- 0.0 -->
      <g style="fill: #7f7f7f" transform="translate(22.200859 381.775583) scale(0.1 -0.1)">
       <use xlink:href="#DejaVuSans-13"/>
       <use xlink:href="#DejaVuSans-11" transform="translate(63.625 0)"/>
       <use xlink:href="#DejaVuSans-13" transform="translate(95.40625 0)"/>
      </g>
     </g>
    </g>
    <g id="ytick_8">
     <g id="line2d_27">
      <g>
       <use xlink:href="#m7d86d65cca" x="45.103984" y="340.284148" style="fill: #7f7f7f; stroke: #7f7f7f; stroke-width: 1.8"/>
      </g>
     </g>
     <g id="text_29">
      <!-- 0.5 -->
      <g style="fill: #7f7f7f" transform="translate(22.200859 344.082976) scale(0.1 -0.1)">
       <use xlink:href="#DejaVuSans-13"/>
       <use xlink:href="#DejaVuSans-11" transform="translate(63.625 0)"/>
       <use xlink:href="#DejaVuSans-18" transform="translate(95.40625 0)"/>
      </g>
     </g>
    </g>
    <g id="ytick_9">
     <g id="line2d_28">
      <g>
       <use xlink:href="#m7d86d65cca" x="45.103984" y="302.591541" style="fill: #7f7f7f; stroke: #7f7f7f; stroke-width: 1.8"/>
      </g>
     </g>
     <g id="text_30">
      <!-- 1.0 -->
      <g style="fill: #7f7f7f" transform="translate(22.200859 306.390369) scale(0.1 -0.1)">
       <use xlink:href="#DejaVuSans-14"/>
       <use xlink:href="#DejaVuSans-11" transform="translate(63.625 0)"/>
       <use xlink:href="#DejaVuSans-13" transform="translate(95.40625 0)"/>
      </g>
     </g>
    </g>
    <g id="ytick_10">
     <g id="line2d_29">
      <g>
       <use xlink:href="#m7d86d65cca" x="45.103984" y="264.898934" style="fill: #7f7f7f; stroke: #7f7f7f; stroke-width: 1.8"/>
      </g>
     </g>
     <g id="text_31">
      <!-- 1.5 -->
      <g style="fill: #7f7f7f" transform="translate(22.200859 268.697762) scale(0.1 -0.1)">
       <use xlink:href="#DejaVuSans-14"/>
       <use xlink:href="#DejaVuSans-11" transform="translate(63.625 0)"/>
       <use xlink:href="#DejaVuSans-18" transform="translate(95.40625 0)"/>
      </g>
     </g>
    </g>
    <g id="ytick_11">
     <g id="line2d_30">
      <g>
       <use xlink:href="#m7d86d65cca" x="45.103984" y="227.206327" style="fill: #7f7f7f; stroke: #7f7f7f; stroke-width: 1.8"/>
      </g>
     </g>
     <g id="text_32">
      <!-- 2.0 -->
      <g style="fill: #7f7f7f" transform="translate(22.200859 231.005156) scale(0.1 -0.1)">
       <use xlink:href="#DejaVuSans-15"/>
       <use xlink:href="#DejaVuSans-11" transform="translate(63.625 0)"/>
       <use xlink:href="#DejaVuSans-13" transform="translate(95.40625 0)"/>
      </g>
     </g>
    </g>
    <g id="text_33">
     <!-- Velocity Error [m/s] -->
     <g style="fill: #7f7f7f" transform="translate(15.558281 354.574434) rotate(-90) scale(0.11 -0.11)">
      <defs>
       <path id="DejaVuSans-39" d="M 1831 0 
L 50 4666 
L 709 4666 
L 2188 738 
L 3669 4666 
L 4325 4666 
L 2547 0 
L 1831 0 
z
" transform="scale(0.015625)"/>
       <path id="DejaVuSans-4f" d="M 603 4863 
L 1178 4863 
L 1178 0 
L 603 0 
L 603 4863 
z
" transform="scale(0.015625)"/>
       <path id="DejaVuSans-46" d="M 3122 3366 
L 3122 2828 
Q 2878 2963 2633 3030 
Q 2388 3097 2138 3097 
Q 1578 3097 1268 2742 
Q 959 2388 959 1747 
Q 959 1106 1268 751 
Q 1578 397 2138 397 
Q 2388 397 2633 464 
Q 2878 531 3122 666 
L 3122 134 
Q 2881 22 2623 -34 
Q 2366 -91 2075 -91 
Q 1284 -91 818 406 
Q 353 903 353 1747 
Q 353 2603 823 3093 
Q 1294 3584 2113 3584 
Q 2378 3584 2631 3529 
Q 2884 3475 3122 3366 
z
" transform="scale(0.015625)"/>
       <path id="DejaVuSans-5c" d="M 2059 -325 
Q 1816 -950 1584 -1140 
Q 1353 -1331 966 -1331 
L 506 -1331 
L 506 -850 
L 844 -850 
Q 1081 -850 1212 -737 
Q 1344 -625 1503 -206 
L 1606 56 
L 191 3500 
L 800 3500 
L 1894 763 
L 2988 3500 
L 3597 3500 
L 2059 -325 
z
" transform="scale(0.015625)"/>
       <path id="DejaVuSans-12" d="M 1625 4666 
L 2156 4666 
L 531 -594 
L 0 -594 
L 1625 4666 
z
" transform="scale(0.015625)"/>
      </defs>
      <use xlink:href="#DejaVuSans-39"/>
      <use xlink:href="#DejaVuSans-48" transform="translate(60.640625 0)"/>
      <use xlink:href="#DejaVuSans-4f" transform="translate(122.171875 0)"/>
      <use xlink:href="#DejaVuSans-52" transform="translate(149.953125 0)"/>
      <use xlink:href="#DejaVuSans-46" transform="translate(211.140625 0)"/>
      <use xlink:href="#DejaVuSans-4c" transform="translate(266.125 0)"/>
      <use xlink:href="#DejaVuSans-57" transform="translate(293.90625 0)"/>
      <use xlink:href="#DejaVuSans-5c" transform="translate(333.109375 0)"/>
      <use xlink:href="#DejaVuSans-3" transform="translate(392.296875 0)"/>
      <use xlink:href="#DejaVuSans-28" transform="translate(424.078125 0)"/>
      <use xlink:href="#DejaVuSans-55" transform="translate(487.265625 0)"/>
      <use xlink:href="#DejaVuSans-55" transform="translate(526.625 0)"/>
      <use xlink:href="#DejaVuSans-52" transform="translate(565.53125 0)"/>
      <use xlink:href="#DejaVuSans-55" transform="translate(626.71875 0)"/>
      <use xlink:href="#DejaVuSans-3" transform="translate(667.828125 0)"/>
      <use xlink:href="#DejaVuSans-3e" transform="translate(699.609375 0)"/>
      <use xlink:href="#DejaVuSans-50" transform="translate(738.625 0)"/>
      <use xlink:href="#DejaVuSans-12" transform="translate(836.03125 0)"/>
      <use xlink:href="#DejaVuSans-56" transform="translate(869.71875 0)"/>
      <use xlink:href="#DejaVuSans-40" transform="translate(921.8125 0)"/>
     </g>
    </g>
   </g>
   <g id="line2d_31">
    <path d="M 68.581076 227.206327 
L 68.815847 227.206327 
L 69.050618 225.483201 
L 69.52016 225.589128 
L 70.694014 234.139865 
L 70.928785 231.264801 
L 71.163556 231.191804 
L 73.041723 292.232272 
L 73.511265 265.410124 
L 73.980807 285.763283 
L 74.919891 336.523428 
L 75.389433 324.438334 
L 76.093745 304.453899 
L 76.328516 312.939511 
L 76.798058 340.764425 
L 77.2676 317.887145 
L 78.206684 292.885831 
L 78.676225 294.857518 
L 80.319622 356.612219 
L 80.554393 349.11516 
L 81.963018 366.407069 
L 82.197789 366.308643 
L 82.902102 348.621417 
L 83.136873 362.890787 
L 83.841186 375.464614 
L 84.075956 359.55753 
L 84.780269 374.688547 
L 85.01504 371.50306 
L 85.249811 377.087359 
L 85.719353 375.361189 
L 86.893207 361.129548 
L 87.362749 365.828533 
L 88.067062 377.090682 
L 88.536604 376.366657 
L 89.006146 373.979849 
L 89.710458 374.304542 
L 89.945229 377.326574 
L 90.18 368.468976 
L 91.119084 358.105203 
L 91.588626 362.747721 
L 93.232022 375.630247 
L 93.701564 370.467496 
L 95.814502 345.80389 
L 96.049273 346.938521 
L 97.223128 360.229315 
L 97.457899 357.882301 
L 97.927441 358.503783 
L 99.101295 370.961624 
L 99.570837 371.634306 
L 100.27515 366.676651 
L 100.979462 363.036173 
L 101.449004 365.186219 
L 102.388088 368.539578 
L 102.85763 373.853106 
L 103.561943 371.055136 
L 104.735797 373.594444 
L 105.205339 377.588219 
L 105.909652 374.872714 
L 107.787819 361.227761 
L 108.02259 363.653005 
L 108.257361 363.577657 
L 108.492132 364.322965 
L 109.665986 373.790401 
L 110.370299 371.285152 
L 111.309383 376.37524 
L 112.013695 369.039997 
L 112.483237 369.442992 
L 112.952779 376.485225 
L 114.126634 375.599194 
L 114.361405 373.400485 
L 114.830946 376.674079 
L 115.065717 377.456608 
L 115.300488 376.095293 
L 116.239572 368.336092 
L 116.943885 370.270263 
L 117.648197 367.085712 
L 117.413427 370.821589 
L 118.117739 369.617051 
L 118.35251 373.284938 
L 119.056823 368.830885 
L 119.526365 367.547208 
L 120.465448 376.507756 
L 120.700219 373.260742 
L 121.404532 374.512361 
L 121.639303 377.591634 
L 122.108845 371.574112 
L 122.578387 370.974982 
L 123.047929 373.616154 
L 123.282699 371.795783 
L 123.752241 374.966352 
L 123.987012 372.981048 
L 124.691325 376.488188 
L 124.926096 372.997016 
L 125.630409 371.102878 
L 125.86518 365.546434 
L 126.569492 367.935347 
L 126.804263 367.673754 
L 127.039034 367.966769 
L 128.44766 375.736844 
L 128.917201 376.236089 
L 129.386743 375.119591 
L 129.621514 377.085947 
L 130.325827 374.672687 
L 130.560598 376.57109 
L 131.969223 370.570011 
L 132.203994 370.496394 
L 133.61262 377.339295 
L 134.082162 377.509013 
L 135.725558 365.967476 
L 136.1951 368.801325 
L 136.429871 368.840723 
L 136.664642 366.900919 
L 137.134184 367.277478 
L 138.542809 375.268836 
L 138.77758 374.659335 
L 140.420976 366.071992 
L 140.655747 367.031939 
L 140.890518 364.423957 
L 141.125289 365.97637 
L 141.36006 364.276389 
L 141.594831 367.278437 
L 143.003456 377.913039 
L 143.707769 373.998936 
L 143.94254 373.92144 
L 144.412082 371.077928 
L 144.881624 373.517487 
L 146.759791 377.465108 
L 147.229333 371.635342 
L 147.698875 375.888525 
L 148.168417 377.331885 
L 149.577042 368.436839 
L 149.811813 369.32982 
L 150.046584 366.6443 
L 150.281355 369.169916 
L 150.985668 363.882344 
L 151.455209 366.772316 
L 151.924751 372.609568 
L 152.629064 369.249192 
L 152.863835 366.892948 
L 153.802919 367.444245 
L 154.037689 366.062479 
L 154.27246 370.016784 
L 155.681086 370.428735 
L 156.62017 377.35873 
L 157.324482 375.789985 
L 158.263566 370.469746 
L 158.498337 371.135606 
L 159.906962 377.71708 
L 160.141733 374.6033 
L 160.376504 377.934885 
L 160.846046 377.21082 
L 161.080817 376.70853 
L 162.254672 369.01639 
L 162.489442 369.469885 
L 163.428526 366.889661 
L 163.663297 368.779062 
L 164.837152 372.813975 
L 165.071923 372.047004 
L 165.306693 373.769141 
L 165.776235 377.517316 
L 166.480548 376.473701 
L 166.715319 375.110839 
L 167.419632 376.716282 
L 167.654403 375.360552 
L 167.889174 376.118152 
L 168.828257 369.218562 
L 169.297799 371.198642 
L 169.767341 376.890575 
L 170.706425 376.648419 
L 171.175966 374.321504 
L 171.410737 377.513777 
L 171.880279 377.005729 
L 172.11505 372.305645 
L 172.819363 375.005565 
L 173.054134 376.379251 
L 173.758446 375.375678 
L 174.462759 370.355792 
L 175.167072 372.028118 
L 175.401843 374.567079 
L 175.871385 372.091852 
L 176.340927 370.660095 
L 176.810468 372.150892 
L 177.045239 377.185711 
L 177.749552 372.521154 
L 178.688636 370.46063 
L 178.453865 373.702766 
L 178.923407 371.292226 
L 179.627719 370.835098 
L 181.975429 377.771661 
L 182.914512 370.776429 
L 183.149283 372.231725 
L 183.384054 372.205208 
L 184.557909 366.612914 
L 185.731763 373.250868 
L 185.966534 373.03379 
L 186.905618 376.030865 
L 187.140389 371.19618 
L 187.844701 374.49997 
L 188.079472 374.307888 
L 189.488098 377.808243 
L 189.95764 372.07978 
L 190.427181 373.705852 
L 190.896723 372.933331 
L 191.601036 377.307357 
L 191.835807 375.374152 
L 192.070578 377.512562 
L 192.774891 375.680639 
L 193.009662 375.851482 
L 193.244432 375.389575 
L 193.479203 371.338153 
L 193.713974 375.907108 
L 193.948745 374.845545 
L 194.183516 377.947591 
L 194.653058 375.817671 
L 195.826913 370.399165 
L 197.000767 373.651531 
L 198.644164 377.664432 
L 198.878934 375.334534 
L 199.583247 375.673023 
L 199.818018 377.369184 
L 200.28756 374.819259 
L 200.522331 375.93867 
L 201.930956 370.533855 
L 202.165727 372.585981 
L 203.104811 377.032514 
L 203.339582 376.731045 
L 203.574353 372.300185 
L 203.809124 377.307213 
L 204.278666 375.161149 
L 204.513436 377.337416 
L 204.748207 375.089434 
L 205.217749 370.154618 
L 205.687291 374.425858 
L 205.922062 373.841577 
L 206.156833 374.707902 
L 206.391604 377.339117 
L 207.095917 376.549072 
L 207.800229 372.171478 
L 208.035 367.624052 
L 208.504542 376.400304 
L 209.678397 369.084795 
L 210.147938 372.50987 
L 210.852251 371.223597 
L 212.260877 377.904467 
L 213.19996 371.994383 
L 213.434731 373.008793 
L 214.608586 377.959098 
L 216.017211 368.230973 
L 216.956295 370.556639 
L 217.660608 369.43118 
L 218.13015 373.778946 
L 218.599691 369.568287 
L 219.304004 370.147278 
L 220.477859 375.403502 
L 221.182172 372.490402 
L 221.416942 372.718114 
L 221.651713 375.292549 
L 222.121255 371.782153 
L 222.356026 373.091142 
L 222.825568 374.523196 
L 223.29511 372.528206 
L 223.529881 372.563 
L 224.234193 376.881632 
L 224.703735 376.498841 
L 225.173277 376.087495 
L 225.408048 377.830722 
L 225.642819 374.400715 
L 226.112361 375.606894 
L 226.581903 372.887249 
L 227.051444 374.096336 
L 227.286215 376.448409 
L 227.990528 373.632209 
L 228.225299 374.080386 
L 228.694841 376.988239 
L 229.399154 376.17691 
L 230.103466 377.811195 
L 230.338237 375.872321 
L 230.807779 376.550309 
L 231.277321 375.222646 
L 231.746863 367.816762 
L 232.216405 372.288899 
L 233.155488 376.632297 
L 233.390259 376.090379 
L 233.62503 373.498492 
L 234.094572 377.891326 
L 234.329343 375.76701 
L 235.737968 371.902778 
L 236.20751 373.114054 
L 236.677052 377.513062 
L 237.146594 374.176723 
L 238.085677 376.96108 
L 238.320448 374.427492 
L 239.259532 374.77019 
L 239.963845 376.936256 
L 240.198616 374.696481 
L 241.37247 361.246191 
L 241.607241 363.392907 
L 242.546325 363.642398 
L 243.015867 357.866948 
L 243.720179 362.311659 
L 243.95495 360.284068 
L 244.659263 356.739547 
L 245.363576 362.367497 
L 245.833118 361.446215 
L 246.30266 363.596172 
L 247.241743 368.672175 
L 247.476514 367.559304 
L 247.946056 368.925798 
L 248.180827 374.439958 
L 248.88514 367.980384 
L 249.354681 365.774567 
L 249.589452 368.042443 
L 250.998078 377.686239 
L 251.702391 373.810909 
L 252.171932 373.97982 
L 252.641474 373.07827 
L 252.876245 373.311731 
L 253.345787 377.260171 
L 253.815329 373.28083 
L 254.0501 371.33138 
L 254.519642 375.775925 
L 254.754413 373.281086 
L 255.928267 368.555324 
L 255.223954 374.422186 
L 256.163038 372.005647 
L 256.397809 372.986384 
L 256.63258 369.788133 
L 256.867351 371.311776 
L 257.571664 367.219194 
L 258.510747 377.751734 
L 258.980289 376.276732 
L 259.21506 376.270558 
L 260.154144 377.797232 
L 259.684602 375.826293 
L 260.388915 377.62622 
L 263.206166 366.471433 
L 264.145249 377.030477 
L 264.38002 375.333003 
L 264.614791 375.374107 
L 264.849562 377.667242 
L 265.084333 374.436067 
L 265.553875 375.707934 
L 265.788646 375.198063 
L 266.023417 371.402427 
L 266.258187 376.957104 
L 266.727729 372.835587 
L 266.9625 374.976063 
L 267.197271 371.010544 
L 268.605897 364.477432 
L 269.310209 376.713433 
L 270.014522 368.471526 
L 270.249293 367.782899 
L 270.484064 369.578132 
L 270.718835 369.52126 
L 270.953606 371.820818 
L 271.423148 369.293668 
L 271.657919 367.335658 
L 272.12746 371.295539 
L 272.597002 369.336013 
L 273.770857 376.898682 
L 276.118566 370.585196 
L 274.240399 377.974572 
L 276.353337 371.921049 
L 277.05765 376.396206 
L 277.527191 374.484744 
L 277.761962 373.893622 
L 277.996733 374.410128 
L 278.231504 377.450195 
L 278.466275 374.136577 
L 278.935817 374.484382 
L 279.170588 376.615528 
L 279.64013 374.401842 
L 279.874901 374.676196 
L 280.344442 374.101371 
L 281.283526 376.812311 
L 281.753068 377.083227 
L 282.692152 373.353004 
L 283.866006 377.397747 
L 284.100777 377.368561 
L 285.274632 372.579769 
L 285.509403 372.634041 
L 286.683257 377.819278 
L 288.326654 366.466596 
L 288.796195 369.533054 
L 289.500508 368.739042 
L 289.735279 367.091544 
L 290.439592 369.235569 
L 290.674363 369.657974 
L 291.378675 377.152834 
L 291.848217 374.831823 
L 292.317759 370.77046 
L 292.55253 373.676272 
L 293.022072 377.441703 
L 293.491614 375.348635 
L 294.195926 370.236705 
L 294.665468 372.515923 
L 295.369781 371.691466 
L 296.074094 377.883302 
L 296.543636 376.940573 
L 297.247948 377.601409 
L 297.952261 372.458012 
L 298.656574 375.985691 
L 298.891345 373.648485 
L 299.360887 371.961529 
L 299.595658 373.698937 
L 300.065199 377.082818 
L 300.769512 376.307766 
L 301.004283 373.529679 
L 301.708596 374.408608 
L 301.943367 377.135894 
L 302.178138 373.91318 
L 302.647679 375.81908 
L 303.821534 367.182355 
L 304.056305 369.712415 
L 305.23016 377.502205 
L 306.404014 368.397225 
L 307.577869 377.644041 
L 308.047411 374.727516 
L 308.516952 375.471445 
L 309.456036 371.321235 
L 309.925578 375.763331 
L 310.629891 373.345617 
L 312.9776 356.655023 
L 313.447142 357.345549 
L 314.151454 355.389103 
L 313.916683 357.66965 
L 314.386225 356.495878 
L 315.090538 366.579119 
L 315.56008 363.46496 
L 316.499163 367.18051 
L 316.733934 366.902592 
L 318.14256 357.736238 
L 319.785956 362.942936 
L 320.490269 368.357434 
L 320.72504 366.260938 
L 320.959811 362.628529 
L 321.429353 368.563029 
L 321.664124 367.336373 
L 322.133665 373.078203 
L 322.603207 368.742656 
L 324.246604 358.517916 
L 324.950916 360.931147 
L 327.533397 377.254488 
L 328.002938 375.831037 
L 328.942022 368.234596 
L 329.646335 369.400018 
L 331.289731 374.574344 
L 331.524502 370.267786 
L 332.228815 374.2215 
L 332.463586 373.122341 
L 332.698357 375.273723 
L 333.167899 377.898079 
L 333.63744 377.085085 
L 334.106982 376.915704 
L 334.811295 370.258282 
L 335.280837 373.520422 
L 335.750379 374.131993 
L 336.924233 367.18341 
L 337.393775 367.899525 
L 337.863317 375.655056 
L 338.56763 371.663039 
L 338.802401 373.657158 
L 339.271942 372.25195 
L 339.506713 370.324684 
L 339.741484 373.373395 
L 339.976255 377.263172 
L 340.915339 376.638642 
L 341.619652 377.789004 
L 343.497819 365.814414 
L 344.671673 377.18694 
L 345.845528 373.447862 
L 346.549841 368.889737 
L 346.784612 371.974418 
L 347.254154 372.434323 
L 347.958466 376.839083 
L 348.193237 376.7882 
L 349.601863 366.417549 
L 350.306175 368.863936 
L 350.540946 365.914782 
L 351.010488 372.439825 
L 351.48003 374.128965 
L 351.714801 373.855563 
L 351.949572 371.348581 
L 352.184343 376.156519 
L 352.419114 377.161137 
L 352.888656 376.872402 
L 353.592968 371.923964 
L 354.06251 372.447027 
L 354.532052 375.680738 
L 354.766823 370.346279 
L 356.175448 365.02401 
L 356.410219 365.620735 
L 357.818845 374.893705 
L 358.992699 377.804344 
L 359.22747 376.573765 
L 359.697012 377.785825 
L 361.340408 369.941287 
L 361.575179 365.070731 
L 362.279492 370.134675 
L 362.514263 370.856282 
L 362.749034 369.966378 
L 364.627201 356.649839 
L 366.035827 369.996903 
L 366.270598 369.203263 
L 366.505369 367.774959 
L 366.74014 370.229425 
L 368.618307 376.20193 
L 370.261703 365.9301 
L 370.731245 366.131574 
L 372.139871 373.906383 
L 373.548496 367.640557 
L 373.783267 369.869153 
L 374.018038 371.126337 
L 374.252809 369.461048 
L 377.304831 355.79495 
L 380.356853 372.554272 
L 381.765478 364.301429 
L 382.000249 366.628178 
L 382.23502 366.534649 
L 383.878416 374.300787 
L 385.052271 365.197151 
L 385.287042 366.4217 
L 385.521813 366.987342 
L 385.756584 370.866549 
L 386.460897 368.304469 
L 386.695667 368.836048 
L 386.930438 364.713584 
L 387.869522 365.430929 
L 388.339064 369.18115 
L 388.808606 368.212567 
L 389.043377 365.61373 
L 389.512918 367.237622 
L 390.921544 377.858382 
L 392.799711 369.774483 
L 393.034482 368.615409 
L 393.269253 369.993164 
L 394.677879 377.096999 
L 395.616962 371.725772 
L 395.851733 372.793331 
L 396.086504 371.597742 
L 396.321275 374.555238 
L 396.556046 372.679156 
L 397.964671 377.87466 
L 399.373297 373.485598 
L 399.842839 366.82034 
L 400.547151 367.136411 
L 400.781922 367.62794 
L 401.016693 364.950638 
L 401.955777 365.62359 
L 402.425319 364.280164 
L 402.66009 365.309162 
L 404.303486 377.511295 
L 405.24257 376.012186 
L 405.712112 371.389743 
L 406.181653 373.462222 
L 407.355508 377.652566 
L 407.590279 375.076074 
L 408.294592 377.086896 
L 409.703217 370.079527 
L 408.764134 377.239491 
L 409.937988 374.20066 
L 411.111843 377.835265 
L 411.581385 376.17547 
L 412.755239 370.908948 
L 412.050926 377.884337 
L 413.459552 372.486461 
L 414.163865 374.235847 
L 415.807261 361.889324 
L 416.042032 359.585554 
L 416.276803 362.28964 
L 417.685428 369.472598 
L 417.920199 368.568301 
L 418.15497 371.301517 
L 418.624512 368.969132 
L 419.798367 377.719339 
L 420.502679 375.050549 
L 421.206992 376.039713 
L 421.441763 377.76502 
L 421.676534 376.167469 
L 422.380847 370.954365 
L 422.615618 375.551021 
L 423.085159 377.552802 
L 423.31993 375.059718 
L 423.789472 374.390369 
L 424.024243 375.632404 
L 424.493785 377.761647 
L 424.728556 375.224307 
L 426.371952 363.820152 
L 426.841494 365.62475 
L 428.484891 373.4004 
L 429.658745 377.223257 
L 429.893516 377.92134 
L 430.363058 374.399773 
L 430.8326 374.476542 
L 431.302142 377.101235 
L 431.771683 374.568692 
L 432.475996 370.070238 
L 432.710767 374.909126 
L 433.649851 377.572449 
L 433.884622 376.745461 
L 435.293247 367.120396 
L 435.528018 367.195528 
L 435.762789 364.617374 
L 436.232331 367.575262 
L 436.467102 367.912223 
L 437.406185 377.212421 
L 437.640956 372.445908 
L 438.58004 373.358651 
L 438.814811 376.506574 
L 439.284353 374.486264 
L 441.16252 360.616664 
L 439.753894 374.801137 
L 441.397291 361.714119 
L 442.571145 370.52725 
L 443.040687 370.025898 
L 443.745 373.151032 
L 444.918855 367.428646 
L 445.153626 368.949584 
L 446.092709 375.860402 
L 446.32748 373.892941 
L 446.562251 368.7777 
L 447.266564 369.926117 
L 447.501335 371.718543 
L 447.970877 369.091759 
L 448.675189 367.124915 
L 449.379502 367.463452 
L 449.614273 370.741214 
L 450.083815 367.010295 
L 450.318586 367.818091 
L 450.553357 364.588932 
L 451.022898 371.33749 
L 453.135837 377.899408 
L 451.49244 370.181576 
L 453.370608 374.71238 
L 453.605379 370.674917 
L 454.544462 371.040933 
L 455.014004 373.45639 
L 455.248775 373.304885 
L 456.42263 366.315296 
L 456.6574 367.345234 
L 457.361713 361.800186 
L 457.596484 363.505763 
L 458.770339 372.627983 
L 459.00511 372.420773 
L 459.239881 376.829934 
L 460.178964 375.796657 
L 460.648506 375.089084 
L 461.352819 377.69624 
L 461.58759 377.917863 
L 462.761444 369.403356 
L 462.996215 369.968399 
L 463.935299 375.252745 
L 464.17007 372.9509 
L 466.283008 368.259241 
L 466.987321 370.78785 
L 468.630717 353.615162 
L 469.100259 358.370966 
L 469.804572 357.762899 
L 470.508885 363.864704 
L 470.978426 360.935324 
L 471.213197 356.310147 
L 471.682739 360.077996 
L 473.091365 368.751835 
L 473.560906 366.480424 
L 474.030448 368.055357 
L 474.734761 373.587967 
L 474.969532 370.109543 
L 475.439074 366.276526 
L 475.673845 371.006509 
L 475.908616 367.857691 
L 476.378157 374.533511 
L 477.317241 373.791581 
L 478.491096 377.748649 
L 478.960637 377.305035 
L 479.899721 373.430746 
L 480.838805 377.396125 
L 481.308347 377.612732 
L 482.012659 372.864696 
L 482.951743 374.117609 
L 483.421285 371.807649 
L 483.656056 375.624776 
L 483.890827 374.237479 
L 484.82991 375.919263 
L 486.473307 364.529573 
L 486.942849 370.101121 
L 487.41239 367.677265 
L 487.647161 369.63764 
L 488.586245 376.949264 
L 489.055787 376.698619 
L 489.290558 376.387992 
L 489.525329 377.177159 
L 489.7601 377.948711 
L 490.933954 374.039011 
L 491.403496 377.073418 
L 491.638267 375.255819 
L 492.107809 368.842943 
L 492.577351 374.475513 
L 493.281663 370.617823 
L 493.751205 373.293099 
L 494.220747 371.863202 
L 496.333685 362.695622 
L 498.446624 374.377069 
L 498.681394 372.195783 
L 499.150936 375.716644 
L 499.385707 373.554066 
L 499.855249 377.617602 
L 500.559562 376.096176 
L 500.794333 377.845398 
L 501.263875 377.263856 
L 501.498645 375.25959 
L 502.202958 376.140427 
L 502.6725 376.868729 
L 502.907271 376.752548 
L 503.142042 372.112032 
L 503.846355 375.227921 
L 504.081126 377.215328 
L 504.550667 376.00743 
L 504.785438 374.045225 
L 505.25498 377.694922 
L 505.959293 372.854685 
L 506.194064 373.956763 
L 506.428835 377.780364 
L 507.367918 376.993906 
L 507.83746 372.478172 
L 508.307002 375.919872 
L 509.011315 377.301158 
L 509.480857 373.407669 
L 509.950398 374.996164 
L 510.41994 376.713647 
L 510.654711 374.363918 
L 511.124253 368.945818 
L 511.359024 374.978094 
L 512.063337 377.262825 
L 512.298108 372.669896 
L 513.00242 376.71863 
L 514.411046 369.228998 
L 514.645817 373.561548 
L 515.35013 371.502437 
L 515.5849 370.225666 
L 516.289213 376.733699 
L 516.758755 376.404566 
L 516.993526 376.708136 
L 517.697839 377.172897 
L 518.402151 370.834472 
L 519.810777 375.885573 
L 520.045548 375.502252 
L 520.280319 376.112807 
L 520.51509 376.878726 
L 520.749861 374.608867 
L 521.688944 367.696406 
L 522.158486 370.698471 
L 523.567112 375.761968 
L 524.506195 377.565368 
L 525.210508 372.490027 
L 525.445279 374.798776 
L 525.914821 377.159754 
L 526.619133 376.680571 
L 527.323446 372.867302 
L 527.792988 374.689974 
L 528.027759 377.831497 
L 528.26253 373.301511 
L 528.732072 377.478363 
L 528.966843 375.994695 
L 529.436384 377.882115 
L 529.671155 377.015303 
L 530.140697 377.829731 
L 530.375468 377.410805 
L 530.84501 375.830281 
L 531.079781 367.402054 
L 531.784094 373.22558 
L 532.723177 377.668532 
L 532.957948 375.256696 
L 533.662261 377.011958 
L 534.366574 370.728876 
L 535.305657 377.245747 
L 535.540428 375.110702 
L 536.714283 369.070963 
L 537.418596 377.763374 
L 537.888137 375.167601 
L 538.122908 373.698142 
L 538.122908 373.698142 
" clip-path="url(#pc88537d14f)" style="fill: none; stroke: #e41a1c; stroke-width: 2; stroke-linecap: square"/>
   </g>
   <g id="patch_6">
    <path d="M 45.103984 385.599141 
L 45.103984 217.858633 
" style="fill: none; stroke: #7f7f7f; stroke-width: 1.8; stroke-linejoin: miter; stroke-linecap: square"/>
   </g>
   <g id="patch_7">
    <path d="M 45.103984 385.599141 
L 561.6 385.599141 
" style="fill: none; stroke: #7f7f7f; stroke-width: 1.8; stroke-linejoin: miter; stroke-linecap: square"/>
   </g>
  </g>
 </g>
 <defs>
  <clipPath id="pc27e24a946">
   <rect x="45.103984" y="22.318125" width="516.496016" height="167.740508"/>
  </clipPath>
  <clipPath id="pc88537d14f">
   <rect x="45.103984" y="217.858633" width="516.496016" height="167.740508"/>
  </clipPath>
 </defs>
</svg>
