<?xml version="1.0" encoding="utf-8" standalone="no"?>
<!DOCTYPE svg PUBLIC "-//W3C//DTD SVG 1.1//EN"
  "http://www.w3.org/Graphics/SVG/1.1/DTD/svg11.dtd">
<svg xmlns:xlink="http://www.w3.org/1999/xlink" width="568.8pt" height="280.8pt" viewBox="0 0 568.8 280.8" xmlns="http://www.w3.org/2000/svg" version="1.1">
 <metadata>
  <rdf:RDF xmlns:dc="http://purl.org/dc/elements/1.1/" xmlns:cc="http://creativecommons.org/ns#" xmlns:rdf="http://www.w3.org/1999/02/22-rdf-syntax-ns#">
   <cc:Work>
    <dc:type rdf:resource="http://purl.org/dc/dcmitype/StillImage"/>
    <dc:date>2026-05-28T00:46:18.496645</dc:date>
    <dc:format>image/svg+xml</dc:format>
    <dc:creator>
     <cc:Agent>
      <dc:title>Matplotlib v3.10.9, https://matplotlib.org/</dc:title>
     </cc:Agent>
    </dc:creator>
   </cc:Work>
  </rdf:RDF>
 </metadata>
 <defs>
  <style type="text/css">*{stroke-linejoin: round; stroke-linecap: butt}</style>
 </defs>
 <g id="figure_1">
  <g id="patch_1">
   <path d="M 0 280.8 
L 568.8 280.8 
L 568.8 0 
L 0 0 
L 0 280.8 
z
" style="fill: none"/>
  </g>
  <g id="axes_1">
   <g id="patch_2">
    <path d="M 28.942188 242.275937 
L 561.6 242.275937 
L 561.6 7.2 
L 28.942188 7.2 
L 28.942188 242.275937 
z
" style="fill: none"/>
   </g>
   <g id="matplotlib.axis_1">
    <g id="xtick_1">
     <g id="line2d_1">
      <defs>
       <path id="mabffa76cac" d="M 0 0 
L 0 3.5 
" style="stroke: #7f7f7f; stroke-width: 1.8"/>
      </defs>
      <g>
       <use xlink:href="#mabffa76cac" x="53.153906" y="242.275937" style="fill: #7f7f7f; stroke: #7f7f7f; stroke-width: 1.8"/>
      </g>
     </g>
     <g id="text_1">
      <!-- 0.00000 -->
      <g style="fill: #7f7f7f" transform="translate(32.477344 256.874375) scale(0.1 -0.1)">
       <defs>
        <path id="DejaVuSans-30" d="M 2034 4250 
Q 1547 4250 1301 3770 
Q 1056 3291 1056 2328 
Q 1056 1369 1301 889 
Q 1547 409 2034 409 
Q 2525 409 2770 889 
Q 3016 1369 3016 2328 
Q 3016 3291 2770 3770 
Q 2525 4250 2034 4250 
z
M 2034 4750 
Q 2819 4750 3233 4129 
Q 3647 3509 3647 2328 
Q 3647 1150 3233 529 
Q 2819 -91 2034 -91 
Q 1250 -91 836 529 
Q 422 1150 422 2328 
Q 422 3509 836 4129 
Q 1250 4750 2034 4750 
z
" transform="scale(0.015625)"/>
        <path id="DejaVuSans-2e" d="M 684 794 
L 1344 794 
L 1344 0 
L 684 0 
L 684 794 
z
" transform="scale(0.015625)"/>
       </defs>
       <use xlink:href="#DejaVuSans-30"/>
       <use xlink:href="#DejaVuSans-2e" transform="translate(63.623047 0)"/>
       <use xlink:href="#DejaVuSans-30" transform="translate(95.410156 0)"/>
       <use xlink:href="#DejaVuSans-30" transform="translate(159.033203 0)"/>
       <use xlink:href="#DejaVuSans-30" transform="translate(222.65625 0)"/>
       <use xlink:href="#DejaVuSans-30" transform="translate(286.279297 0)"/>
       <use xlink:href="#DejaVuSans-30" transform="translate(349.902344 0)"/>
      </g>
     </g>
    </g>
    <g id="xtick_2">
     <g id="line2d_2">
      <g>
       <use xlink:href="#mabffa76cac" x="149.981416" y="242.275937" style="fill: #7f7f7f; stroke: #7f7f7f; stroke-width: 1.8"/>
      </g>
     </g>
     <g id="text_2">
      <!-- 0.00002 -->
      <g style="fill: #7f7f7f" transform="translate(129.304853 256.874375) scale(0.1 -0.1)">
       <defs>
        <path id="DejaVuSans-32" d="M 1228 531 
L 3431 531 
L 3431 0 
L 469 0 
L 469 531 
Q 828 903 1448 1529 
Q 2069 2156 2228 2338 
Q 2531 2678 2651 2914 
Q 2772 3150 2772 3378 
Q 2772 3750 2511 3984 
Q 2250 4219 1831 4219 
Q 1534 4219 1204 4116 
Q 875 4013 500 3803 
L 500 4441 
Q 881 4594 1212 4672 
Q 1544 4750 1819 4750 
Q 2544 4750 2975 4387 
Q 3406 4025 3406 3419 
Q 3406 3131 3298 2873 
Q 3191 2616 2906 2266 
Q 2828 2175 2409 1742 
Q 1991 1309 1228 531 
z
" transform="scale(0.015625)"/>
       </defs>
       <use xlink:href="#DejaVuSans-30"/>
       <use xlink:href="#DejaVuSans-2e" transform="translate(63.623047 0)"/>
       <use xlink:href="#DejaVuSans-30" transform="translate(95.410156 0)"/>
       <use xlink:href="#DejaVuSans-30" transform="translate(159.033203 0)"/>
       <use xlink:href="#DejaVuSans-30" transform="translate(222.65625 0)"/>
       <use xlink:href="#DejaVuSans-30" transform="translate(286.279297 0)"/>
       <use xlink:href="#DejaVuSans-32" transform="translate(349.902344 0)"/>
      </g>
     </g>
    </g>
    <g id="xtick_3">
     <g id="line2d_3">
      <g>
       <use xlink:href="#mabffa76cac" x="246.808925" y="242.275937" style="fill: #7f7f7f; stroke: #7f7f7f; stroke-width: 1.8"/>
      </g>
     </g>
     <g id="text_3">
      <!-- 0.00004 -->
      <g style="fill: #7f7f7f" transform="translate(226.132363 256.874375) scale(0.1 -0.1)">
       <defs>
        <path id="DejaVuSans-34" d="M 2419 4116 
L 825 1625 
L 2419 1625 
L 2419 4116 
z
M 2253 4666 
L 3047 4666 
L 3047 1625 
L 3713 1625 
L 3713 1100 
L 3047 1100 
L 3047 0 
L 2419 0 
L 2419 1100 
L 313 1100 
L 313 1709 
L 2253 4666 
z
" transform="scale(0.015625)"/>
       </defs>
       <use xlink:href="#DejaVuSans-30"/>
       <use xlink:href="#DejaVuSans-2e" transform="translate(63.623047 0)"/>
       <use xlink:href="#DejaVuSans-30" transform="translate(95.410156 0)"/>
       <use xlink:href="#DejaVuSans-30" transform="translate(159.033203 0)"/>
       <use xlink:href="#DejaVuSans-30" transform="translate(222.65625 0)"/>
       <use xlink:href="#DejaVuSans-30" transform="translate(286.279297 0)"/>
       <use xlink:href="#DejaVuSans-34" transform="translate(349.902344 0)"/>
      </g>
     </g>
    </g>
    <g id="xtick_4">
     <g id="line2d_4">
      <g>
       <use xlink:href="#mabffa76cac" x="343.636435" y="242.275937" style="fill: #7f7f7f; stroke: #7f7f7f; stroke-width: 1.8"/>
      </g>
     </g>
     <g id="text_4">
      <!-- 0.00006 -->
      <g style="fill: #7f7f7f" transform="translate(322.959872 256.874375) scale(0.1 -0.1)">
       <defs>
        <path id="DejaVuSans-36" d="M 2113 2584 
Q 1688 2584 1439 2293 
Q 1191 2003 1191 1497 
Q 1191 994 1439 701 
Q 1688 409 2113 409 
Q 2538 409 2786 701 
Q 3034 994 3034 1497 
Q 3034 2003 2786 2293 
Q 2538 2584 2113 2584 
z
M 3366 4563 
L 3366 3988 
Q 3128 4100 2886 4159 
Q 2644 4219 2406 4219 
Q 1781 4219 1451 3797 
Q 1122 3375 1075 2522 
Q 1259 2794 1537 2939 
Q 1816 3084 2150 3084 
Q 2853 3084 3261 2657 
Q 3669 2231 3669 1497 
Q 3669 778 3244 343 
Q 2819 -91 2113 -91 
Q 1303 -91 875 529 
Q 447 1150 447 2328 
Q 447 3434 972 4092 
Q 1497 4750 2381 4750 
Q 2619 4750 2861 4703 
Q 3103 4656 3366 4563 
z
" transform="scale(0.015625)"/>
       </defs>
       <use xlink:href="#DejaVuSans-30"/>
       <use xlink:href="#DejaVuSans-2e" transform="translate(63.623047 0)"/>
       <use xlink:href="#DejaVuSans-30" transform="translate(95.410156 0)"/>
       <use xlink:href="#DejaVuSans-30" transform="translate(159.033203 0)"/>
       <use xlink:href="#DejaVuSans-30" transform="translate(222.65625 0)"/>
       <use xlink:href="#DejaVuSans-30" transform="translate(286.279297 0)"/>
       <use xlink:href="#DejaVuSans-36" transform="translate(349.902344 0)"/>
      </g>
     </g>
    </g>
    <g id="xtick_5">
     <g id="line2d_5">
      <g>
       <use xlink:href="#mabffa76cac" x="440.463944" y="242.275937" style="fill: #7f7f7f; stroke: #7f7f7f; stroke-width: 1.8"/>
      </g>
     </g>
     <g id="text_5">
      <!-- 0.00008 -->
      <g style="fill: #7f7f7f" transform="translate(419.787382 256.874375) scale(0.1 -0.1)">
       <defs>
        <path id="DejaVuSans-38" d="M 2034 2216 
Q 1584 2216 1326 1975 
Q 1069 1734 1069 1313 
Q 1069 891 1326 650 
Q 1584 409 2034 409 
Q 2484 409 2743 651 
Q 3003 894 3003 1313 
Q 3003 1734 2745 1975 
Q 2488 2216 2034 2216 
z
M 1403 2484 
Q 997 2584 770 2862 
Q 544 3141 544 3541 
Q 544 4100 942 4425 
Q 1341 4750 2034 4750 
Q 2731 4750 3128 4425 
Q 3525 4100 3525 3541 
Q 3525 3141 3298 2862 
Q 3072 2584 2669 2484 
Q 3125 2378 3379 2068 
Q 3634 1759 3634 1313 
Q 3634 634 3220 271 
Q 2806 -91 2034 -91 
Q 1263 -91 848 271 
Q 434 634 434 1313 
Q 434 1759 690 2068 
Q 947 2378 1403 2484 
z
M 1172 3481 
Q 1172 3119 1398 2916 
Q 1625 2713 2034 2713 
Q 2441 2713 2670 2916 
Q 2900 3119 2900 3481 
Q 2900 3844 2670 4047 
Q 2441 4250 2034 4250 
Q 1625 4250 1398 4047 
Q 1172 3844 1172 3481 
z
" transform="scale(0.015625)"/>
       </defs>
       <use xlink:href="#DejaVuSans-30"/>
       <use xlink:href="#DejaVuSans-2e" transform="translate(63.623047 0)"/>
       <use xlink:href="#DejaVuSans-30" transform="translate(95.410156 0)"/>
       <use xlink:href="#DejaVuSans-30" transform="translate(159.033203 0)"/>
       <use xlink:href="#DejaVuSans-30" transform="translate(222.65625 0)"/>
       <use xlink:href="#DejaVuSans-30" transform="translate(286.279297 0)"/>
       <use xlink:href="#DejaVuSans-38" transform="translate(349.902344 0)"/>
      </g>
     </g>
    </g>
    <g id="xtick_6">
     <g id="line2d_6">
      <g>
       <use xlink:href="#mabffa76cac" x="537.291454" y="242.275937" style="fill: #7f7f7f; stroke: #7f7f7f; stroke-width: 1.8"/>
      </g>
     </g>
     <g id="text_6">
      <!-- 0.00010 -->
      <g style="fill: #7f7f7f" transform="translate(516.614891 256.874375) scale(0.1 -0.1)">
       <defs>
        <path id="DejaVuSans-31" d="M 794 531 
L 1825 531 
L 1825 4091 
L 703 3866 
L 703 4441 
L 1819 4666 
L 2450 4666 
L 2450 531 
L 3481 531 
L 3481 0 
L 794 0 
L 794 531 
z
" transform="scale(0.015625)"/>
       </defs>
       <use xlink:href="#DejaVuSans-30"/>
       <use xlink:href="#DejaVuSans-2e" transform="translate(63.623047 0)"/>
       <use xlink:href="#DejaVuSans-30" transform="translate(95.410156 0)"/>
       <use xlink:href="#DejaVuSans-30" transform="translate(159.033203 0)"/>
       <use xlink:href="#DejaVuSans-30" transform="translate(222.65625 0)"/>
       <use xlink:href="#DejaVuSans-31" transform="translate(286.279297 0)"/>
       <use xlink:href="#DejaVuSans-30" transform="translate(349.902344 0)"/>
      </g>
     </g>
    </g>
    <g id="text_7">
     <!-- time [s] -->
     <g style="fill: #7f7f7f" transform="translate(273.940547 271.312344) scale(0.11 -0.11)">
      <defs>
       <path id="DejaVuSans-74" d="M 1172 4494 
L 1172 3500 
L 2356 3500 
L 2356 3053 
L 1172 3053 
L 1172 1153 
Q 1172 725 1289 603 
Q 1406 481 1766 481 
L 2356 481 
L 2356 0 
L 1766 0 
Q 1100 0 847 248 
Q 594 497 594 1153 
L 594 3053 
L 172 3053 
L 172 3500 
L 594 3500 
L 594 4494 
L 1172 4494 
z
" transform="scale(0.015625)"/>
       <path id="DejaVuSans-69" d="M 603 3500 
L 1178 3500 
L 1178 0 
L 603 0 
L 603 3500 
z
M 603 4863 
L 1178 4863 
L 1178 4134 
L 603 4134 
L 603 4863 
z
" transform="scale(0.015625)"/>
       <path id="DejaVuSans-6d" d="M 3328 2828 
Q 3544 3216 3844 3400 
Q 4144 3584 4550 3584 
Q 5097 3584 5394 3201 
Q 5691 2819 5691 2113 
L 5691 0 
L 5113 0 
L 5113 2094 
Q 5113 2597 4934 2840 
Q 4756 3084 4391 3084 
Q 3944 3084 3684 2787 
Q 3425 2491 3425 1978 
L 3425 0 
L 2847 0 
L 2847 2094 
Q 2847 2600 2669 2842 
Q 2491 3084 2119 3084 
Q 1678 3084 1418 2786 
Q 1159 2488 1159 1978 
L 1159 0 
L 581 0 
L 581 3500 
L 1159 3500 
L 1159 2956 
Q 1356 3278 1631 3431 
Q 1906 3584 2284 3584 
Q 2666 3584 2933 3390 
Q 3200 3197 3328 2828 
z
" transform="scale(0.015625)"/>
       <path id="DejaVuSans-65" d="M 3597 1894 
L 3597 1613 
L 953 1613 
Q 991 1019 1311 708 
Q 1631 397 2203 397 
Q 2534 397 2845 478 
Q 3156 559 3463 722 
L 3463 178 
Q 3153 47 2828 -22 
Q 2503 -91 2169 -91 
Q 1331 -91 842 396 
Q 353 884 353 1716 
Q 353 2575 817 3079 
Q 1281 3584 2069 3584 
Q 2775 3584 3186 3129 
Q 3597 2675 3597 1894 
z
M 3022 2063 
Q 3016 2534 2758 2815 
Q 2500 3097 2075 3097 
Q 1594 3097 1305 2825 
Q 1016 2553 972 2059 
L 3022 2063 
z
" transform="scale(0.015625)"/>
       <path id="DejaVuSans-20" transform="scale(0.015625)"/>
       <path id="DejaVuSans-5b" d="M 550 4863 
L 1875 4863 
L 1875 4416 
L 1125 4416 
L 1125 -397 
L 1875 -397 
L 1875 -844 
L 550 -844 
L 550 4863 
z
" transform="scale(0.015625)"/>
       <path id="DejaVuSans-73" d="M 2834 3397 
L 2834 2853 
Q 2591 2978 2328 3040 
Q 2066 3103 1784 3103 
Q 1356 3103 1142 2972 
Q 928 2841 928 2578 
Q 928 2378 1081 2264 
Q 1234 2150 1697 2047 
L 1894 2003 
Q 2506 1872 2764 1633 
Q 3022 1394 3022 966 
Q 3022 478 2636 193 
Q 2250 -91 1575 -91 
Q 1294 -91 989 -36 
Q 684 19 347 128 
L 347 722 
Q 666 556 975 473 
Q 1284 391 1588 391 
Q 1994 391 2212 530 
Q 2431 669 2431 922 
Q 2431 1156 2273 1281 
Q 2116 1406 1581 1522 
L 1381 1569 
Q 847 1681 609 1914 
Q 372 2147 372 2553 
Q 372 3047 722 3315 
Q 1072 3584 1716 3584 
Q 2034 3584 2315 3537 
Q 2597 3491 2834 3397 
z
" transform="scale(0.015625)"/>
       <path id="DejaVuSans-5d" d="M 1947 4863 
L 1947 -844 
L 622 -844 
L 622 -397 
L 1369 -397 
L 1369 4416 
L 622 4416 
L 622 4863 
L 1947 4863 
z
" transform="scale(0.015625)"/>
      </defs>
      <use xlink:href="#DejaVuSans-74"/>
      <use xlink:href="#DejaVuSans-69" transform="translate(39.208984 0)"/>
      <use xlink:href="#DejaVuSans-6d" transform="translate(66.992188 0)"/>
      <use xlink:href="#DejaVuSans-65" transform="translate(164.404297 0)"/>
      <use xlink:href="#DejaVuSans-20" transform="translate(225.927734 0)"/>
      <use xlink:href="#DejaVuSans-5b" transform="translate(257.714844 0)"/>
      <use xlink:href="#DejaVuSans-73" transform="translate(296.728516 0)"/>
      <use xlink:href="#DejaVuSans-5d" transform="translate(348.828125 0)"/>
     </g>
    </g>
   </g>
   <g id="matplotlib.axis_2">
    <g id="ytick_1">
     <g id="line2d_7">
      <defs>
       <path id="m5aac5868ea" d="M 0 0 
L -3.5 0 
" style="stroke: #7f7f7f; stroke-width: 1.8"/>
      </defs>
      <g>
       <use xlink:href="#m5aac5868ea" x="28.942188" y="231.08872" style="fill: #7f7f7f; stroke: #7f7f7f; stroke-width: 1.8"/>
      </g>
     </g>
     <g id="text_8">
      <!-- −8 -->
      <g style="fill: #7f7f7f" transform="translate(7.2 234.887939) scale(0.1 -0.1)">
       <defs>
        <path id="DejaVuSans-2212" d="M 678 2272 
L 4684 2272 
L 4684 1741 
L 678 1741 
L 678 2272 
z
" transform="scale(0.015625)"/>
       </defs>
       <use xlink:href="#DejaVuSans-2212"/>
       <use xlink:href="#DejaVuSans-38" transform="translate(83.789062 0)"/>
      </g>
     </g>
    </g>
    <g id="ytick_2">
     <g id="line2d_8">
      <g>
       <use xlink:href="#m5aac5868ea" x="28.942188" y="204.648532" style="fill: #7f7f7f; stroke: #7f7f7f; stroke-width: 1.8"/>
      </g>
     </g>
     <g id="text_9">
      <!-- −6 -->
      <g style="fill: #7f7f7f" transform="translate(7.2 208.447751) scale(0.1 -0.1)">
       <use xlink:href="#DejaVuSans-2212"/>
       <use xlink:href="#DejaVuSans-36" transform="translate(83.789062 0)"/>
      </g>
     </g>
    </g>
    <g id="ytick_3">
     <g id="line2d_9">
      <g>
       <use xlink:href="#m5aac5868ea" x="28.942188" y="178.208345" style="fill: #7f7f7f; stroke: #7f7f7f; stroke-width: 1.8"/>
      </g>
     </g>
     <g id="text_10">
      <!-- −4 -->
      <g style="fill: #7f7f7f" transform="translate(7.2 182.007563) scale(0.1 -0.1)">
       <use xlink:href="#DejaVuSans-2212"/>
       <use xlink:href="#DejaVuSans-34" transform="translate(83.789062 0)"/>
      </g>
     </g>
    </g>
    <g id="ytick_4">
     <g id="line2d_10">
      <g>
       <use xlink:href="#m5aac5868ea" x="28.942188" y="151.768157" style="fill: #7f7f7f; stroke: #7f7f7f; stroke-width: 1.8"/>
      </g>
     </g>
     <g id="text_11">
      <!-- −2 -->
      <g style="fill: #7f7f7f" transform="translate(7.2 155.567376) scale(0.1 -0.1)">
       <use xlink:href="#DejaVuSans-2212"/>
       <use xlink:href="#DejaVuSans-32" transform="translate(83.789062 0)"/>
      </g>
     </g>
    </g>
    <g id="ytick_5">
     <g id="line2d_11">
      <g>
       <use xlink:href="#m5aac5868ea" x="28.942188" y="125.327969" style="fill: #7f7f7f; stroke: #7f7f7f; stroke-width: 1.8"/>
      </g>
     </g>
     <g id="text_12">
      <!-- 0 -->
      <g style="fill: #7f7f7f" transform="translate(15.579688 129.127188) scale(0.1 -0.1)">
       <use xlink:href="#DejaVuSans-30"/>
      </g>
     </g>
    </g>
    <g id="ytick_6">
     <g id="line2d_12">
      <g>
       <use xlink:href="#m5aac5868ea" x="28.942188" y="98.887782" style="fill: #7f7f7f; stroke: #7f7f7f; stroke-width: 1.8"/>
      </g>
     </g>
     <g id="text_13">
      <!-- 2 -->
      <g style="fill: #7f7f7f" transform="translate(15.579688 102.687001) scale(0.1 -0.1)">
       <use xlink:href="#DejaVuSans-32"/>
      </g>
     </g>
    </g>
    <g id="ytick_7">
     <g id="line2d_13">
      <g>
       <use xlink:href="#m5aac5868ea" x="28.942188" y="72.447594" style="fill: #7f7f7f; stroke: #7f7f7f; stroke-width: 1.8"/>
      </g>
     </g>
     <g id="text_14">
      <!-- 4 -->
      <g style="fill: #7f7f7f" transform="translate(15.579688 76.246813) scale(0.1 -0.1)">
       <use xlink:href="#DejaVuSans-34"/>
      </g>
     </g>
    </g>
    <g id="ytick_8">
     <g id="line2d_14">
      <g>
       <use xlink:href="#m5aac5868ea" x="28.942188" y="46.007407" style="fill: #7f7f7f; stroke: #7f7f7f; stroke-width: 1.8"/>
      </g>
     </g>
     <g id="text_15">
      <!-- 6 -->
      <g style="fill: #7f7f7f" transform="translate(15.579688 49.806625) scale(0.1 -0.1)">
       <use xlink:href="#DejaVuSans-36"/>
      </g>
     </g>
    </g>
    <g id="ytick_9">
     <g id="line2d_15">
      <g>
       <use xlink:href="#m5aac5868ea" x="28.942188" y="19.567219" style="fill: #7f7f7f; stroke: #7f7f7f; stroke-width: 1.8"/>
      </g>
     </g>
     <g id="text_16">
      <!-- 8 -->
      <g style="fill: #7f7f7f" transform="translate(15.579688 23.366438) scale(0.1 -0.1)">
       <use xlink:href="#DejaVuSans-38"/>
      </g>
     </g>
    </g>
   </g>
   <g id="line2d_16">
    <path d="M 53.153906 125.327969 
L 57.656385 113.162418 
L 59.544522 112.15899 
L 61.142176 113.743113 
L 63.611277 119.849885 
L 70.437617 138.211306 
L 72.035271 138.313899 
L 73.778166 135.92476 
L 76.682991 127.641791 
L 82.056918 112.91782 
L 83.945054 112.233976 
L 85.542708 114.077743 
L 88.157051 120.928064 
L 94.402425 137.999717 
L 96.14532 138.37205 
L 97.888216 136.120051 
L 100.793041 127.968154 
L 106.312209 112.861546 
L 108.200345 112.257901 
L 109.797999 114.165875 
L 112.412342 121.085065 
L 118.512475 137.901026 
L 120.25537 138.421962 
L 121.853024 136.578196 
L 124.467367 129.727875 
L 130.712741 112.656221 
L 132.455637 112.283889 
L 134.198532 114.535888 
L 137.103357 122.687785 
L 142.622525 137.794393 
L 144.510661 138.398038 
L 146.108315 136.490064 
L 148.722658 129.570874 
L 154.822791 112.754913 
L 156.565686 112.233976 
L 158.16334 114.077743 
L 160.777683 120.928064 
L 167.023057 137.999717 
L 168.765953 138.37205 
L 170.508848 136.120051 
L 173.413673 127.968154 
L 178.932841 112.861546 
L 180.820978 112.257901 
L 182.418631 114.165875 
L 185.032974 121.085065 
L 191.133107 137.901026 
L 192.876002 138.421962 
L 194.473656 136.578196 
L 197.087999 129.727875 
L 203.333373 112.656221 
L 205.076269 112.283889 
L 206.819164 114.535888 
L 209.723989 122.687785 
L 215.243157 137.794393 
L 217.131294 138.398038 
L 218.728947 136.490064 
L 221.34329 129.570874 
L 227.443423 112.754913 
L 229.186319 112.233976 
L 230.783972 114.077743 
L 233.398315 120.928064 
L 239.64369 137.999717 
L 241.386585 138.37205 
L 243.12948 136.120051 
L 246.034305 127.968154 
L 251.553473 112.861546 
L 253.44161 112.257901 
L 255.039264 114.165875 
L 257.653606 121.085065 
L 263.753739 137.901026 
L 265.496635 138.421962 
L 267.094288 136.578196 
L 269.708631 129.727875 
L 275.954006 112.656221 
L 277.696901 112.283889 
L 279.439796 114.535888 
L 282.344621 122.687785 
L 287.863789 137.794393 
L 289.751926 138.398038 
L 291.34958 136.490064 
L 293.963922 129.570874 
L 300.064055 112.754913 
L 301.806951 112.233976 
L 303.404605 114.077743 
L 306.018947 120.928064 
L 312.264322 137.999717 
L 314.007217 138.37205 
L 315.750112 136.120051 
L 318.654937 127.968154 
L 324.174105 112.861546 
L 326.062242 112.257901 
L 327.659896 114.165875 
L 330.274238 121.085065 
L 336.374372 137.901026 
L 338.117267 138.421962 
L 339.714921 136.578196 
L 342.329263 129.727875 
L 348.574638 112.656221 
L 350.317533 112.283889 
L 352.060428 114.535888 
L 354.965253 122.687785 
L 360.484421 137.794393 
L 362.372558 138.398038 
L 363.970212 136.490064 
L 366.584554 129.570874 
L 372.684688 112.754913 
L 374.427583 112.233976 
L 376.025237 114.077743 
L 378.639579 120.928064 
L 384.884954 137.999717 
L 386.627849 138.37205 
L 388.370744 136.120051 
L 391.275569 127.968154 
L 396.794737 112.861546 
L 398.682874 112.257901 
L 400.280528 114.165875 
L 402.894871 121.085065 
L 408.995004 137.901026 
L 410.737899 138.421962 
L 412.335553 136.578196 
L 414.949895 129.727875 
L 421.19527 112.656221 
L 422.938165 112.283889 
L 424.68106 114.535888 
L 427.585885 122.687785 
L 433.105054 137.794393 
L 434.99319 138.398038 
L 436.590844 136.490064 
L 439.205187 129.570874 
L 445.30532 112.754913 
L 447.048215 112.233976 
L 448.645869 114.077743 
L 451.260212 120.928064 
L 457.505586 137.999717 
L 459.248481 138.37205 
L 460.991376 136.120051 
L 463.896202 127.968154 
L 469.41537 112.861546 
L 471.303506 112.257901 
L 472.90116 114.165875 
L 475.515503 121.085065 
L 481.615636 137.901026 
L 483.358531 138.421962 
L 484.956185 136.578196 
L 487.570528 129.727875 
L 493.815902 112.656221 
L 495.558797 112.283889 
L 497.301692 114.535888 
L 500.206518 122.687785 
L 505.725686 137.794393 
L 507.613822 138.398038 
L 509.211476 136.490064 
L 511.825819 129.570874 
L 517.925952 112.754913 
L 519.668847 112.233976 
L 521.266501 114.077743 
L 523.880844 120.928064 
L 530.126218 137.999717 
L 531.869113 138.37205 
L 533.612008 136.120051 
L 536.516834 127.968154 
L 537.388281 124.995747 
L 537.388281 124.995747 
" clip-path="url(#pd27c04d96e)" style="fill: none; stroke: #e41a1c; stroke-width: 2; stroke-linecap: square"/>
   </g>
   <g id="line2d_17">
    <path d="M 53.153906 125.327969 
L 53.58963 126.082954 
L 53.734871 125.493028 
L 54.606319 106.668154 
L 59.108798 21.515969 
L 60.706452 19.464971 
L 61.142176 20.932137 
L 62.885071 36.545675 
L 64.482725 57.405417 
L 65.644655 91.420092 
L 71.163823 225.508548 
L 72.180512 228.691431 
L 72.470994 227.883564 
L 75.085337 211.494915 
L 76.392509 185.01178 
L 78.135404 121.702874 
L 80.459264 61.288568 
L 83.50933 21.371746 
L 84.090296 22.009574 
L 87.721327 44.693914 
L 89.318981 76.46855 
L 93.82146 204.495693 
L 95.709597 218.124198 
L 96.581044 218.494154 
L 96.871527 219.73461 
L 97.307251 216.985063 
L 99.776352 202.857994 
L 100.502558 193.314095 
L 108.345587 24.694316 
L 108.490828 24.748875 
L 108.926552 25.061835 
L 109.217034 24.147561 
L 110.088482 21.4365 
L 110.378964 23.064996 
L 112.12186 45.072536 
L 114.881444 112.931451 
L 118.948199 214.746964 
L 120.25537 220.663161 
L 121.126818 219.216482 
L 122.288748 220.396594 
L 122.433989 220.101308 
L 123.450678 212.188782 
L 125.91978 170.795405 
L 127.662675 111.06 
L 130.712741 42.22614 
L 131.148465 39.110564 
L 133.617567 22.036089 
L 133.908049 21.467277 
L 134.198532 22.940861 
L 137.539081 76.705578 
L 142.767766 216.142394 
L 143.929696 219.942587 
L 144.074938 219.582112 
L 145.52735 214.477501 
L 145.672592 214.813046 
L 146.68928 217.662536 
L 147.125004 217.266804 
L 148.141693 209.774831 
L 149.739347 168.833094 
L 152.789414 84.861371 
L 155.83948 29.030062 
L 157.727617 24.824586 
L 157.872858 24.88764 
L 158.308582 26.740768 
L 160.051477 46.375955 
L 163.537267 141.330362 
L 166.006369 197.191996 
L 168.911194 226.178594 
L 169.346918 227.230557 
L 169.782641 226.314032 
L 170.944572 218.072188 
L 173.704156 188.307763 
L 176.028016 96.192608 
L 178.061394 54.008428 
L 181.401943 19.335958 
L 181.547184 19.485883 
L 182.854355 27.72366 
L 186.921111 95.569041 
L 188.809247 159.262686 
L 191.42359 218.007225 
L 193.602209 228.047907 
L 194.183174 226.929435 
L 194.90938 220.474766 
L 197.378482 192.080366 
L 204.350062 24.556078 
L 204.931027 23.384555 
L 205.366751 24.665299 
L 207.109646 34.886052 
L 210.595437 89.415919 
L 216.550329 223.99384 
L 216.840811 222.612593 
L 217.712259 217.356317 
L 218.293224 218.217865 
L 218.438465 218.444052 
L 218.583706 218.179038 
L 221.779014 185.314232 
L 224.829081 99.305727 
L 227.733906 31.596041 
L 229.33156 17.88527 
L 229.767284 18.459998 
L 230.49349 22.510574 
L 234.415004 77.937971 
L 237.029347 159.065677 
L 239.207966 208.595338 
L 241.96755 231.241301 
L 242.112791 231.590668 
L 242.548515 230.939958 
L 244.000927 217.337122 
L 246.179546 177.14491 
L 250.972508 52.225812 
L 252.570162 40.384447 
L 252.860645 40.084697 
L 253.296368 40.737774 
L 253.44161 41.062677 
L 253.732092 39.403387 
L 255.329746 29.359881 
L 255.474987 29.617455 
L 257.653606 55.869834 
L 259.686984 107.374806 
L 264.044222 216.42839 
L 265.496635 223.305539 
L 265.641876 223.179323 
L 266.0776 222.483058 
L 266.658565 223.350704 
L 267.094288 223.929359 
L 267.384771 223.112606 
L 268.982425 215.684592 
L 270.870561 176.425833 
L 277.55166 30.216004 
L 278.277866 29.380453 
L 278.568348 30.480928 
L 280.166002 41.53778 
L 289.316202 228.720662 
L 290.042408 229.474043 
L 290.18765 229.131284 
L 291.785303 224.36382 
L 292.075786 224.59812 
L 292.51151 222.781531 
L 293.67344 206.720492 
L 298.175919 74.278768 
L 300.354538 36.344562 
L 302.097433 27.290847 
L 302.387916 27.218296 
L 302.823639 27.920452 
L 303.259363 28.638143 
L 304.276052 35.43732 
L 305.292741 48.963036 
L 307.761842 92.645835 
L 314.297699 223.116285 
L 314.588182 222.410506 
L 315.750112 220.393366 
L 319.381144 156.448758 
L 324.028864 34.702081 
L 326.062242 21.547537 
L 326.207483 21.686725 
L 327.514654 20.847682 
L 327.805137 20.759484 
L 328.095619 21.460293 
L 328.676585 25.060952 
L 330.41948 51.728826 
L 337.681543 225.565211 
L 338.117267 224.95164 
L 339.279197 226.112563 
L 339.714921 227.052584 
L 340.005403 225.299022 
L 342.474505 193.121884 
L 348.138914 38.437024 
L 351.334222 24.039571 
L 351.624704 24.291763 
L 352.205669 26.216274 
L 353.512841 35.397888 
L 354.820012 63.935779 
L 360.774904 210.934281 
L 362.808282 221.786959 
L 363.82497 225.859626 
L 364.115453 225.103971 
L 364.986901 220.149425 
L 366.729796 197.60042 
L 369.925104 94.022227 
L 372.394205 38.047784 
L 374.1371 20.257648 
L 375.008548 19.357013 
L 375.153789 19.808378 
L 378.058614 44.714387 
L 381.689646 144.27454 
L 385.030195 223.159698 
L 386.192125 230.108401 
L 386.482608 229.247016 
L 388.080262 227.192252 
L 388.951709 220.107746 
L 391.566052 179.830213 
L 394.76136 88.106651 
L 397.08522 39.767241 
L 397.520944 37.70977 
L 398.973356 24.585641 
L 399.40908 25.60814 
L 399.844804 27.100185 
L 402.313906 49.34274 
L 410.011693 218.016505 
L 412.04507 228.826006 
L 412.916518 225.628339 
L 414.223689 211.590542 
L 415.676102 188.704854 
L 417.128514 147.661509 
L 419.742857 55.465435 
L 422.3572 25.771555 
L 422.502441 25.656212 
L 422.792924 26.368921 
L 423.954854 32.014374 
L 426.569197 47.328624 
L 427.585885 67.481071 
L 432.814571 209.386839 
L 434.121742 215.465314 
L 435.864638 230.343243 
L 436.445603 228.122113 
L 437.607533 222.365733 
L 441.964771 132.767753 
L 445.160078 36.809987 
L 447.193456 27.085978 
L 447.338697 26.858113 
L 447.919662 27.60307 
L 448.645869 28.459344 
L 450.098281 38.363668 
L 451.841177 65.533732 
L 457.215103 210.348407 
L 459.10324 220.660934 
L 459.538964 222.104271 
L 460.119929 221.154199 
L 460.846135 219.694027 
L 462.298548 213.594474 
L 463.460478 198.913931 
L 471.158265 23.568714 
L 471.303506 23.585671 
L 472.90116 26.654729 
L 475.951226 63.509711 
L 481.034671 202.570798 
L 482.777566 214.306727 
L 484.520461 225.328774 
L 485.246667 222.786159 
L 488.296734 178.897103 
L 493.525419 38.680168 
L 495.268315 21.968526 
L 495.413556 21.538463 
L 495.84928 22.723256 
L 496.865969 30.221672 
L 498.899346 53.190871 
L 501.077965 92.749047 
L 506.161409 221.397253 
L 506.887616 224.29857 
L 507.32334 222.53363 
L 508.48527 221.550314 
L 510.373406 215.942692 
L 512.261543 182.689821 
L 514.29492 117.949057 
L 518.071193 31.712822 
L 519.668847 27.99955 
L 520.830777 22.424278 
L 521.411742 24.403727 
L 524.897533 67.690306 
L 531.433389 224.375607 
L 532.014354 224.501186 
L 532.159596 224.177722 
L 533.902491 213.26729 
L 535.645386 195.065515 
L 537.388281 151.237758 
L 537.388281 151.237758 
" clip-path="url(#pd27c04d96e)" style="fill: none; stroke: #377eb8; stroke-width: 2; stroke-linecap: square"/>
   </g>
   <g id="patch_3">
    <path d="M 28.942188 242.275937 
L 28.942188 7.2 
" style="fill: none; stroke: #7f7f7f; stroke-width: 1.8; stroke-linejoin: miter; stroke-linecap: square"/>
   </g>
   <g id="patch_4">
    <path d="M 28.942188 242.275937 
L 561.6 242.275937 
" style="fill: none; stroke: #7f7f7f; stroke-width: 1.8; stroke-linejoin: miter; stroke-linecap: square"/>
   </g>
   <g id="legend_1">
    <g id="line2d_18">
     <path d="M 37.942188 213.018125 
L 47.942188 213.018125 
L 57.942188 213.018125 
" style="fill: none; stroke: #e41a1c; stroke-width: 2; stroke-linecap: square"/>
    </g>
    <g id="text_17">
     <!-- Src -->
     <g style="fill: #7f7f7f" transform="translate(65.942188 216.518125) scale(0.1 -0.1)">
      <defs>
       <path id="DejaVuSans-53" d="M 3425 4513 
L 3425 3897 
Q 3066 4069 2747 4153 
Q 2428 4238 2131 4238 
Q 1616 4238 1336 4038 
Q 1056 3838 1056 3469 
Q 1056 3159 1242 3001 
Q 1428 2844 1947 2747 
L 2328 2669 
Q 3034 2534 3370 2195 
Q 3706 1856 3706 1288 
Q 3706 609 3251 259 
Q 2797 -91 1919 -91 
Q 1588 -91 1214 -16 
Q 841 59 441 206 
L 441 856 
Q 825 641 1194 531 
Q 1563 422 1919 422 
Q 2459 422 2753 634 
Q 3047 847 3047 1241 
Q 3047 1584 2836 1778 
Q 2625 1972 2144 2069 
L 1759 2144 
Q 1053 2284 737 2584 
Q 422 2884 422 3419 
Q 422 4038 858 4394 
Q 1294 4750 2059 4750 
Q 2388 4750 2728 4690 
Q 3069 4631 3425 4513 
z
" transform="scale(0.015625)"/>
       <path id="DejaVuSans-72" d="M 2631 2963 
Q 2534 3019 2420 3045 
Q 2306 3072 2169 3072 
Q 1681 3072 1420 2755 
Q 1159 2438 1159 1844 
L 1159 0 
L 581 0 
L 581 3500 
L 1159 3500 
L 1159 2956 
Q 1341 3275 1631 3429 
Q 1922 3584 2338 3584 
Q 2397 3584 2469 3576 
Q 2541 3569 2628 3553 
L 2631 2963 
z
" transform="scale(0.015625)"/>
       <path id="DejaVuSans-63" d="M 3122 3366 
L 3122 2828 
Q 2878 2963 2633 3030 
Q 2388 3097 2138 3097 
Q 1578 3097 1268 2742 
Q 959 2388 959 1747 
Q 959 1106 1268 751 
Q 1578 397 2138 397 
Q 2388 397 2633 464 
Q 2878 531 3122 666 
L 3122 134 
Q 2881 22 2623 -34 
Q 2366 -91 2075 -91 
Q 1284 -91 818 406 
Q 353 903 353 1747 
Q 353 2603 823 3093 
Q 1294 3584 2113 3584 
Q 2378 3584 2631 3529 
Q 2884 3475 3122 3366 
z
" transform="scale(0.015625)"/>
      </defs>
      <use xlink:href="#DejaVuSans-53"/>
      <use xlink:href="#DejaVuSans-72" transform="translate(63.476562 0)"/>
      <use xlink:href="#DejaVuSans-63" transform="translate(102.339844 0)"/>
     </g>
    </g>
    <g id="line2d_19">
     <path d="M 37.942188 227.69625 
L 47.942188 227.69625 
L 57.942188 227.69625 
" style="fill: none; stroke: #377eb8; stroke-width: 2; stroke-linecap: square"/>
    </g>
    <g id="text_18">
     <!-- AMP -->
     <g style="fill: #7f7f7f" transform="translate(65.942188 231.19625) scale(0.1 -0.1)">
      <defs>
       <path id="DejaVuSans-41" d="M 2188 4044 
L 1331 1722 
L 3047 1722 
L 2188 4044 
z
M 1831 4666 
L 2547 4666 
L 4325 0 
L 3669 0 
L 3244 1197 
L 1141 1197 
L 716 0 
L 50 0 
L 1831 4666 
z
" transform="scale(0.015625)"/>
       <path id="DejaVuSans-4d" d="M 628 4666 
L 1569 4666 
L 2759 1491 
L 3956 4666 
L 4897 4666 
L 4897 0 
L 4281 0 
L 4281 4097 
L 3078 897 
L 2444 897 
L 1241 4097 
L 1241 0 
L 628 0 
L 628 4666 
z
" transform="scale(0.015625)"/>
       <path id="DejaVuSans-50" d="M 1259 4147 
L 1259 2394 
L 2053 2394 
Q 2494 2394 2734 2622 
Q 2975 2850 2975 3272 
Q 2975 3691 2734 3919 
Q 2494 4147 2053 4147 
L 1259 4147 
z
M 628 4666 
L 2053 4666 
Q 2838 4666 3239 4311 
Q 3641 3956 3641 3272 
Q 3641 2581 3239 2228 
Q 2838 1875 2053 1875 
L 1259 1875 
L 1259 0 
L 628 0 
L 628 4666 
z
" transform="scale(0.015625)"/>
      </defs>
      <use xlink:href="#DejaVuSans-41"/>
      <use xlink:href="#DejaVuSans-4d" transform="translate(68.408203 0)"/>
      <use xlink:href="#DejaVuSans-50" transform="translate(154.6875 0)"/>
     </g>
    </g>
   </g>
  </g>
 </g>
 <defs>
  <clipPath id="pd27c04d96e">
   <rect x="28.942188" y="7.2" width="532.657812" height="235.075937"/>
  </clipPath>
 </defs>
</svg>
