<?xml version="1.0" encoding="utf-8" standalone="no"?>
<!DOCTYPE svg PUBLIC "-//W3C//DTD SVG 1.1//EN"
  "http://www.w3.org/Graphics/SVG/1.1/DTD/svg11.dtd">
<svg xmlns:xlink="http://www.w3.org/1999/xlink" width="568.8pt" height="280.8pt" viewBox="0 0 568.8 280.8" xmlns="http://www.w3.org/2000/svg" version="1.1">
 <metadata>
  <rdf:RDF xmlns:dc="http://purl.org/dc/elements/1.1/" xmlns:cc="http://creativecommons.org/ns#" xmlns:rdf="http://www.w3.org/1999/02/22-rdf-syntax-ns#">
   <cc:Work>
    <dc:type rdf:resource="http://purl.org/dc/dcmitype/StillImage"/>
    <dc:date>2026-06-16T08:08:02.807631</dc:date>
    <dc:format>image/svg+xml</dc:format>
    <dc:creator>
     <cc:Agent>
      <dc:title>Matplotlib v3.11.0, https://matplotlib.org/</dc:title>
     </cc:Agent>
    </dc:creator>
   </cc:Work>
  </rdf:RDF>
 </metadata>
 <defs>
  <style type="text/css">*{stroke-linejoin: round; stroke-linecap: butt}</style>
 </defs>
 <g id="figure_1">
  <g id="patch_1">
   <path d="M 0 280.8 
L 568.8 280.8 
L 568.8 0 
L 0 0 
L 0 280.8 
z
" style="fill: none"/>
  </g>
  <g id="axes_1">
   <g id="patch_2">
    <path d="M 52.700859 239.796797 
L 561.6 239.796797 
L 561.6 7.2 
L 52.700859 7.2 
L 52.700859 239.796797 
z
" style="fill: none"/>
   </g>
   <g id="matplotlib.axis_1">
    <g id="xtick_1">
     <g id="line2d_1">
      <defs>
       <path id="m94bf80b454" d="M 0 0 
L 0 3.5 
" style="stroke: #7f7f7f; stroke-width: 1.8"/>
      </defs>
      <g>
       <use xlink:href="#m94bf80b454" x="59.879687" y="239.796797" style="fill: #7f7f7f; stroke: #7f7f7f; stroke-width: 1.8"/>
      </g>
     </g>
     <g id="text_1">
      <!-- $\mathdefault{10^{4}}$ -->
      <g style="fill: #7f7f7f" transform="translate(51.079687 256.096797) scale(0.1 -0.1)">
       <defs>
        <path id="DejaVuSans-14" d="M 794 531 
L 1825 531 
L 1825 4091 
L 703 3866 
L 703 4441 
L 1819 4666 
L 2450 4666 
L 2450 531 
L 3481 531 
L 3481 0 
L 794 0 
L 794 531 
z
" transform="scale(0.015625)"/>
        <path id="DejaVuSans-13" d="M 2034 4250 
Q 1547 4250 1301 3770 
Q 1056 3291 1056 2328 
Q 1056 1369 1301 889 
Q 1547 409 2034 409 
Q 2525 409 2770 889 
Q 3016 1369 3016 2328 
Q 3016 3291 2770 3770 
Q 2525 4250 2034 4250 
z
M 2034 4750 
Q 2819 4750 3233 4129 
Q 3647 3509 3647 2328 
Q 3647 1150 3233 529 
Q 2819 -91 2034 -91 
Q 1250 -91 836 529 
Q 422 1150 422 2328 
Q 422 3509 836 4129 
Q 1250 4750 2034 4750 
z
" transform="scale(0.015625)"/>
        <path id="DejaVuSans-17" d="M 2419 4116 
L 825 1625 
L 2419 1625 
L 2419 4116 
z
M 2253 4666 
L 3047 4666 
L 3047 1625 
L 3713 1625 
L 3713 1100 
L 3047 1100 
L 3047 0 
L 2419 0 
L 2419 1100 
L 313 1100 
L 313 1709 
L 2253 4666 
z
" transform="scale(0.015625)"/>
       </defs>
       <use xlink:href="#DejaVuSans-14" transform="translate(0 0.665625)"/>
       <use xlink:href="#DejaVuSans-13" transform="translate(63.623047 0.665625)"/>
       <use xlink:href="#DejaVuSans-17" transform="translate(128.203125 41.965625) scale(0.7)"/>
      </g>
     </g>
    </g>
    <g id="xtick_2">
     <g id="line2d_2">
      <g>
       <use xlink:href="#m94bf80b454" x="219.409199" y="239.796797" style="fill: #7f7f7f; stroke: #7f7f7f; stroke-width: 1.8"/>
      </g>
     </g>
     <g id="text_2">
      <!-- $\mathdefault{10^{5}}$ -->
      <g style="fill: #7f7f7f" transform="translate(210.609199 256.096797) scale(0.1 -0.1)">
       <defs>
        <path id="DejaVuSans-18" d="M 691 4666 
L 3169 4666 
L 3169 4134 
L 1269 4134 
L 1269 2991 
Q 1406 3038 1543 3061 
Q 1681 3084 1819 3084 
Q 2600 3084 3056 2656 
Q 3513 2228 3513 1497 
Q 3513 744 3044 326 
Q 2575 -91 1722 -91 
Q 1428 -91 1123 -41 
Q 819 9 494 109 
L 494 744 
Q 775 591 1075 516 
Q 1375 441 1709 441 
Q 2250 441 2565 725 
Q 2881 1009 2881 1497 
Q 2881 1984 2565 2268 
Q 2250 2553 1709 2553 
Q 1456 2553 1204 2497 
Q 953 2441 691 2322 
L 691 4666 
z
" transform="scale(0.015625)"/>
       </defs>
       <use xlink:href="#DejaVuSans-14" transform="translate(0 0.665625)"/>
       <use xlink:href="#DejaVuSans-13" transform="translate(63.623047 0.665625)"/>
       <use xlink:href="#DejaVuSans-18" transform="translate(128.203125 41.965625) scale(0.7)"/>
      </g>
     </g>
    </g>
    <g id="xtick_3">
     <g id="line2d_3">
      <g>
       <use xlink:href="#m94bf80b454" x="378.93871" y="239.796797" style="fill: #7f7f7f; stroke: #7f7f7f; stroke-width: 1.8"/>
      </g>
     </g>
     <g id="text_3">
      <!-- $\mathdefault{10^{6}}$ -->
      <g style="fill: #7f7f7f" transform="translate(370.13871 256.196797) scale(0.1 -0.1)">
       <defs>
        <path id="DejaVuSans-19" d="M 2113 2584 
Q 1688 2584 1439 2293 
Q 1191 2003 1191 1497 
Q 1191 994 1439 701 
Q 1688 409 2113 409 
Q 2538 409 2786 701 
Q 3034 994 3034 1497 
Q 3034 2003 2786 2293 
Q 2538 2584 2113 2584 
z
M 3366 4563 
L 3366 3988 
Q 3128 4100 2886 4159 
Q 2644 4219 2406 4219 
Q 1781 4219 1451 3797 
Q 1122 3375 1075 2522 
Q 1259 2794 1537 2939 
Q 1816 3084 2150 3084 
Q 2853 3084 3261 2657 
Q 3669 2231 3669 1497 
Q 3669 778 3244 343 
Q 2819 -91 2113 -91 
Q 1303 -91 875 529 
Q 447 1150 447 2328 
Q 447 3434 972 4092 
Q 1497 4750 2381 4750 
Q 2619 4750 2861 4703 
Q 3103 4656 3366 4563 
z
" transform="scale(0.015625)"/>
       </defs>
       <use xlink:href="#DejaVuSans-14" transform="translate(0 0.746875)"/>
       <use xlink:href="#DejaVuSans-13" transform="translate(63.623047 0.746875)"/>
       <use xlink:href="#DejaVuSans-19" transform="translate(128.203125 42.046875) scale(0.7)"/>
      </g>
     </g>
    </g>
    <g id="xtick_4">
     <g id="line2d_4">
      <g>
       <use xlink:href="#m94bf80b454" x="538.468221" y="239.796797" style="fill: #7f7f7f; stroke: #7f7f7f; stroke-width: 1.8"/>
      </g>
     </g>
     <g id="text_4">
      <!-- $\mathdefault{10^{7}}$ -->
      <g style="fill: #7f7f7f" transform="translate(529.668221 256.096797) scale(0.1 -0.1)">
       <defs>
        <path id="DejaVuSans-1a" d="M 525 4666 
L 3525 4666 
L 3525 4397 
L 1831 0 
L 1172 0 
L 2766 4134 
L 525 4134 
L 525 4666 
z
" transform="scale(0.015625)"/>
       </defs>
       <use xlink:href="#DejaVuSans-14" transform="translate(0 0.665625)"/>
       <use xlink:href="#DejaVuSans-13" transform="translate(63.623047 0.665625)"/>
       <use xlink:href="#DejaVuSans-1a" transform="translate(128.203125 41.965625) scale(0.7)"/>
      </g>
     </g>
    </g>
    <g id="xtick_5">
     <g id="line2d_5">
      <defs>
       <path id="m30b064de37" d="M 0 0 
L 0 2 
" style="stroke: #7f7f7f; stroke-width: 1.2"/>
      </defs>
      <g>
       <use xlink:href="#m30b064de37" x="107.902855" y="239.796797" style="fill: #7f7f7f; stroke: #7f7f7f; stroke-width: 1.2"/>
      </g>
     </g>
    </g>
    <g id="xtick_6">
     <g id="line2d_6">
      <g>
       <use xlink:href="#m30b064de37" x="135.994608" y="239.796797" style="fill: #7f7f7f; stroke: #7f7f7f; stroke-width: 1.2"/>
      </g>
     </g>
    </g>
    <g id="xtick_7">
     <g id="line2d_7">
      <g>
       <use xlink:href="#m30b064de37" x="155.926023" y="239.796797" style="fill: #7f7f7f; stroke: #7f7f7f; stroke-width: 1.2"/>
      </g>
     </g>
    </g>
    <g id="xtick_8">
     <g id="line2d_8">
      <g>
       <use xlink:href="#m30b064de37" x="171.38603" y="239.796797" style="fill: #7f7f7f; stroke: #7f7f7f; stroke-width: 1.2"/>
      </g>
     </g>
    </g>
    <g id="xtick_9">
     <g id="line2d_9">
      <g>
       <use xlink:href="#m30b064de37" x="184.017776" y="239.796797" style="fill: #7f7f7f; stroke: #7f7f7f; stroke-width: 1.2"/>
      </g>
     </g>
    </g>
    <g id="xtick_10">
     <g id="line2d_10">
      <g>
       <use xlink:href="#m30b064de37" x="194.697765" y="239.796797" style="fill: #7f7f7f; stroke: #7f7f7f; stroke-width: 1.2"/>
      </g>
     </g>
    </g>
    <g id="xtick_11">
     <g id="line2d_11">
      <g>
       <use xlink:href="#m30b064de37" x="203.949192" y="239.796797" style="fill: #7f7f7f; stroke: #7f7f7f; stroke-width: 1.2"/>
      </g>
     </g>
    </g>
    <g id="xtick_12">
     <g id="line2d_12">
      <g>
       <use xlink:href="#m30b064de37" x="212.109528" y="239.796797" style="fill: #7f7f7f; stroke: #7f7f7f; stroke-width: 1.2"/>
      </g>
     </g>
    </g>
    <g id="xtick_13">
     <g id="line2d_13">
      <g>
       <use xlink:href="#m30b064de37" x="267.432367" y="239.796797" style="fill: #7f7f7f; stroke: #7f7f7f; stroke-width: 1.2"/>
      </g>
     </g>
    </g>
    <g id="xtick_14">
     <g id="line2d_14">
      <g>
       <use xlink:href="#m30b064de37" x="295.524119" y="239.796797" style="fill: #7f7f7f; stroke: #7f7f7f; stroke-width: 1.2"/>
      </g>
     </g>
    </g>
    <g id="xtick_15">
     <g id="line2d_15">
      <g>
       <use xlink:href="#m30b064de37" x="315.455535" y="239.796797" style="fill: #7f7f7f; stroke: #7f7f7f; stroke-width: 1.2"/>
      </g>
     </g>
    </g>
    <g id="xtick_16">
     <g id="line2d_16">
      <g>
       <use xlink:href="#m30b064de37" x="330.915542" y="239.796797" style="fill: #7f7f7f; stroke: #7f7f7f; stroke-width: 1.2"/>
      </g>
     </g>
    </g>
    <g id="xtick_17">
     <g id="line2d_17">
      <g>
       <use xlink:href="#m30b064de37" x="343.547287" y="239.796797" style="fill: #7f7f7f; stroke: #7f7f7f; stroke-width: 1.2"/>
      </g>
     </g>
    </g>
    <g id="xtick_18">
     <g id="line2d_18">
      <g>
       <use xlink:href="#m30b064de37" x="354.227276" y="239.796797" style="fill: #7f7f7f; stroke: #7f7f7f; stroke-width: 1.2"/>
      </g>
     </g>
    </g>
    <g id="xtick_19">
     <g id="line2d_19">
      <g>
       <use xlink:href="#m30b064de37" x="363.478703" y="239.796797" style="fill: #7f7f7f; stroke: #7f7f7f; stroke-width: 1.2"/>
      </g>
     </g>
    </g>
    <g id="xtick_20">
     <g id="line2d_20">
      <g>
       <use xlink:href="#m30b064de37" x="371.63904" y="239.796797" style="fill: #7f7f7f; stroke: #7f7f7f; stroke-width: 1.2"/>
      </g>
     </g>
    </g>
    <g id="xtick_21">
     <g id="line2d_21">
      <g>
       <use xlink:href="#m30b064de37" x="426.961878" y="239.796797" style="fill: #7f7f7f; stroke: #7f7f7f; stroke-width: 1.2"/>
      </g>
     </g>
    </g>
    <g id="xtick_22">
     <g id="line2d_22">
      <g>
       <use xlink:href="#m30b064de37" x="455.05363" y="239.796797" style="fill: #7f7f7f; stroke: #7f7f7f; stroke-width: 1.2"/>
      </g>
     </g>
    </g>
    <g id="xtick_23">
     <g id="line2d_23">
      <g>
       <use xlink:href="#m30b064de37" x="474.985046" y="239.796797" style="fill: #7f7f7f; stroke: #7f7f7f; stroke-width: 1.2"/>
      </g>
     </g>
    </g>
    <g id="xtick_24">
     <g id="line2d_24">
      <g>
       <use xlink:href="#m30b064de37" x="490.445053" y="239.796797" style="fill: #7f7f7f; stroke: #7f7f7f; stroke-width: 1.2"/>
      </g>
     </g>
    </g>
    <g id="xtick_25">
     <g id="line2d_25">
      <g>
       <use xlink:href="#m30b064de37" x="503.076798" y="239.796797" style="fill: #7f7f7f; stroke: #7f7f7f; stroke-width: 1.2"/>
      </g>
     </g>
    </g>
    <g id="xtick_26">
     <g id="line2d_26">
      <g>
       <use xlink:href="#m30b064de37" x="513.756787" y="239.796797" style="fill: #7f7f7f; stroke: #7f7f7f; stroke-width: 1.2"/>
      </g>
     </g>
    </g>
    <g id="xtick_27">
     <g id="line2d_27">
      <g>
       <use xlink:href="#m30b064de37" x="523.008214" y="239.796797" style="fill: #7f7f7f; stroke: #7f7f7f; stroke-width: 1.2"/>
      </g>
     </g>
    </g>
    <g id="xtick_28">
     <g id="line2d_28">
      <g>
       <use xlink:href="#m30b064de37" x="531.168551" y="239.796797" style="fill: #7f7f7f; stroke: #7f7f7f; stroke-width: 1.2"/>
      </g>
     </g>
    </g>
    <g id="text_5">
     <!-- Freq [Hz] -->
     <g style="fill: #7f7f7f" transform="translate(282.309336 270.957422) scale(0.11 -0.11)">
      <defs>
       <path id="DejaVuSans-29" d="M 628 4666 
L 3309 4666 
L 3309 4134 
L 1259 4134 
L 1259 2759 
L 3109 2759 
L 3109 2228 
L 1259 2228 
L 1259 0 
L 628 0 
L 628 4666 
z
" transform="scale(0.015625)"/>
       <path id="DejaVuSans-55" d="M 2631 2963 
Q 2534 3019 2420 3045 
Q 2306 3072 2169 3072 
Q 1681 3072 1420 2755 
Q 1159 2438 1159 1844 
L 1159 0 
L 581 0 
L 581 3500 
L 1159 3500 
L 1159 2956 
Q 1341 3275 1631 3429 
Q 1922 3584 2338 3584 
Q 2397 3584 2469 3576 
Q 2541 3569 2628 3553 
L 2631 2963 
z
" transform="scale(0.015625)"/>
       <path id="DejaVuSans-48" d="M 3597 1894 
L 3597 1613 
L 953 1613 
Q 991 1019 1311 708 
Q 1631 397 2203 397 
Q 2534 397 2845 478 
Q 3156 559 3463 722 
L 3463 178 
Q 3153 47 2828 -22 
Q 2503 -91 2169 -91 
Q 1331 -91 842 396 
Q 353 884 353 1716 
Q 353 2575 817 3079 
Q 1281 3584 2069 3584 
Q 2775 3584 3186 3129 
Q 3597 2675 3597 1894 
z
M 3022 2063 
Q 3016 2534 2758 2815 
Q 2500 3097 2075 3097 
Q 1594 3097 1305 2825 
Q 1016 2553 972 2059 
L 3022 2063 
z
" transform="scale(0.015625)"/>
       <path id="DejaVuSans-54" d="M 947 1747 
Q 947 1113 1208 752 
Q 1469 391 1925 391 
Q 2381 391 2643 752 
Q 2906 1113 2906 1747 
Q 2906 2381 2643 2742 
Q 2381 3103 1925 3103 
Q 1469 3103 1208 2742 
Q 947 2381 947 1747 
z
M 2906 525 
Q 2725 213 2448 61 
Q 2172 -91 1784 -91 
Q 1150 -91 751 415 
Q 353 922 353 1747 
Q 353 2572 751 3078 
Q 1150 3584 1784 3584 
Q 2172 3584 2448 3432 
Q 2725 3281 2906 2969 
L 2906 3500 
L 3481 3500 
L 3481 -1331 
L 2906 -1331 
L 2906 525 
z
" transform="scale(0.015625)"/>
       <path id="DejaVuSans-3" transform="scale(0.015625)"/>
       <path id="DejaVuSans-3e" d="M 550 4863 
L 1875 4863 
L 1875 4416 
L 1125 4416 
L 1125 -397 
L 1875 -397 
L 1875 -844 
L 550 -844 
L 550 4863 
z
" transform="scale(0.015625)"/>
       <path id="DejaVuSans-2b" d="M 628 4666 
L 1259 4666 
L 1259 2753 
L 3553 2753 
L 3553 4666 
L 4184 4666 
L 4184 0 
L 3553 0 
L 3553 2222 
L 1259 2222 
L 1259 0 
L 628 0 
L 628 4666 
z
" transform="scale(0.015625)"/>
       <path id="DejaVuSans-5d" d="M 353 3500 
L 3084 3500 
L 3084 2975 
L 922 459 
L 3084 459 
L 3084 0 
L 275 0 
L 275 525 
L 2438 3041 
L 353 3041 
L 353 3500 
z
" transform="scale(0.015625)"/>
       <path id="DejaVuSans-40" d="M 1947 4863 
L 1947 -844 
L 622 -844 
L 622 -397 
L 1369 -397 
L 1369 4416 
L 622 4416 
L 622 4863 
L 1947 4863 
z
" transform="scale(0.015625)"/>
      </defs>
      <use xlink:href="#DejaVuSans-29"/>
      <use xlink:href="#DejaVuSans-55" transform="translate(50.234375 0)"/>
      <use xlink:href="#DejaVuSans-48" transform="translate(89.140625 0)"/>
      <use xlink:href="#DejaVuSans-54" transform="translate(150.671875 0)"/>
      <use xlink:href="#DejaVuSans-3" transform="translate(214.15625 0)"/>
      <use xlink:href="#DejaVuSans-3e" transform="translate(245.9375 0)"/>
      <use xlink:href="#DejaVuSans-2b" transform="translate(284.953125 0)"/>
      <use xlink:href="#DejaVuSans-5d" transform="translate(360.15625 0)"/>
      <use xlink:href="#DejaVuSans-40" transform="translate(412.640625 0)"/>
     </g>
    </g>
   </g>
   <g id="matplotlib.axis_2">
    <g id="ytick_1">
     <g id="line2d_29">
      <defs>
       <path id="m6b99fc62fe" d="M 0 0 
L -3.5 0 
" style="stroke: #7f7f7f; stroke-width: 1.8"/>
      </defs>
      <g>
       <use xlink:href="#m6b99fc62fe" x="52.700859" y="239.796797" style="fill: #7f7f7f; stroke: #7f7f7f; stroke-width: 1.8"/>
      </g>
     </g>
     <g id="text_6">
      <!-- $\mathdefault{10^{-6}}$ -->
      <g style="fill: #7f7f7f" transform="translate(22.200859 244.496797) scale(0.1 -0.1)">
       <defs>
        <path id="DejaVuSans-c9c" d="M 678 2272 
L 4684 2272 
L 4684 1741 
L 678 1741 
L 678 2272 
z
" transform="scale(0.015625)"/>
       </defs>
       <use xlink:href="#DejaVuSans-14" transform="translate(0 0.746875)"/>
       <use xlink:href="#DejaVuSans-13" transform="translate(63.623047 0.746875)"/>
       <use xlink:href="#DejaVuSans-c9c" transform="translate(128.203125 42.046875) scale(0.7)"/>
       <use xlink:href="#DejaVuSans-19" transform="translate(186.855469 42.046875) scale(0.7)"/>
      </g>
     </g>
    </g>
    <g id="ytick_2">
     <g id="line2d_30">
      <g>
       <use xlink:href="#m6b99fc62fe" x="52.700859" y="206.187193" style="fill: #7f7f7f; stroke: #7f7f7f; stroke-width: 1.8"/>
      </g>
     </g>
     <g id="text_7">
      <!-- $\mathdefault{10^{-5}}$ -->
      <g style="fill: #7f7f7f" transform="translate(22.200859 210.837193) scale(0.1 -0.1)">
       <use xlink:href="#DejaVuSans-14" transform="translate(0 0.665625)"/>
       <use xlink:href="#DejaVuSans-13" transform="translate(63.623047 0.665625)"/>
       <use xlink:href="#DejaVuSans-c9c" transform="translate(128.203125 41.965625) scale(0.7)"/>
       <use xlink:href="#DejaVuSans-18" transform="translate(186.855469 41.965625) scale(0.7)"/>
      </g>
     </g>
    </g>
    <g id="ytick_3">
     <g id="line2d_31">
      <g>
       <use xlink:href="#m6b99fc62fe" x="52.700859" y="172.577588" style="fill: #7f7f7f; stroke: #7f7f7f; stroke-width: 1.8"/>
      </g>
     </g>
     <g id="text_8">
      <!-- $\mathdefault{10^{-4}}$ -->
      <g style="fill: #7f7f7f" transform="translate(22.200859 177.227588) scale(0.1 -0.1)">
       <use xlink:href="#DejaVuSans-14" transform="translate(0 0.665625)"/>
       <use xlink:href="#DejaVuSans-13" transform="translate(63.623047 0.665625)"/>
       <use xlink:href="#DejaVuSans-c9c" transform="translate(128.203125 41.965625) scale(0.7)"/>
       <use xlink:href="#DejaVuSans-17" transform="translate(186.855469 41.965625) scale(0.7)"/>
      </g>
     </g>
    </g>
    <g id="ytick_4">
     <g id="line2d_32">
      <g>
       <use xlink:href="#m6b99fc62fe" x="52.700859" y="138.967984" style="fill: #7f7f7f; stroke: #7f7f7f; stroke-width: 1.8"/>
      </g>
     </g>
     <g id="text_9">
      <!-- $\mathdefault{10^{-3}}$ -->
      <g style="fill: #7f7f7f" transform="translate(22.200859 143.667984) scale(0.1 -0.1)">
       <defs>
        <path id="DejaVuSans-16" d="M 2597 2516 
Q 3050 2419 3304 2112 
Q 3559 1806 3559 1356 
Q 3559 666 3084 287 
Q 2609 -91 1734 -91 
Q 1441 -91 1130 -33 
Q 819 25 488 141 
L 488 750 
Q 750 597 1062 519 
Q 1375 441 1716 441 
Q 2309 441 2620 675 
Q 2931 909 2931 1356 
Q 2931 1769 2642 2001 
Q 2353 2234 1838 2234 
L 1294 2234 
L 1294 2753 
L 1863 2753 
Q 2328 2753 2575 2939 
Q 2822 3125 2822 3475 
Q 2822 3834 2567 4026 
Q 2313 4219 1838 4219 
Q 1578 4219 1281 4162 
Q 984 4106 628 3988 
L 628 4550 
Q 988 4650 1302 4700 
Q 1616 4750 1894 4750 
Q 2613 4750 3031 4423 
Q 3450 4097 3450 3541 
Q 3450 3153 3228 2886 
Q 3006 2619 2597 2516 
z
" transform="scale(0.015625)"/>
       </defs>
       <use xlink:href="#DejaVuSans-14" transform="translate(0 0.746875)"/>
       <use xlink:href="#DejaVuSans-13" transform="translate(63.623047 0.746875)"/>
       <use xlink:href="#DejaVuSans-c9c" transform="translate(128.203125 42.046875) scale(0.7)"/>
       <use xlink:href="#DejaVuSans-16" transform="translate(186.855469 42.046875) scale(0.7)"/>
      </g>
     </g>
    </g>
    <g id="ytick_5">
     <g id="line2d_33">
      <g>
       <use xlink:href="#m6b99fc62fe" x="52.700859" y="105.35838" style="fill: #7f7f7f; stroke: #7f7f7f; stroke-width: 1.8"/>
      </g>
     </g>
     <g id="text_10">
      <!-- $\mathdefault{10^{-2}}$ -->
      <g style="fill: #7f7f7f" transform="translate(22.200859 110.05838) scale(0.1 -0.1)">
       <defs>
        <path id="DejaVuSans-15" d="M 1228 531 
L 3431 531 
L 3431 0 
L 469 0 
L 469 531 
Q 828 903 1448 1529 
Q 2069 2156 2228 2338 
Q 2531 2678 2651 2914 
Q 2772 3150 2772 3378 
Q 2772 3750 2511 3984 
Q 2250 4219 1831 4219 
Q 1534 4219 1204 4116 
Q 875 4013 500 3803 
L 500 4441 
Q 881 4594 1212 4672 
Q 1544 4750 1819 4750 
Q 2544 4750 2975 4387 
Q 3406 4025 3406 3419 
Q 3406 3131 3298 2873 
Q 3191 2616 2906 2266 
Q 2828 2175 2409 1742 
Q 1991 1309 1228 531 
z
" transform="scale(0.015625)"/>
       </defs>
       <use xlink:href="#DejaVuSans-14" transform="translate(0 0.746875)"/>
       <use xlink:href="#DejaVuSans-13" transform="translate(63.623047 0.746875)"/>
       <use xlink:href="#DejaVuSans-c9c" transform="translate(128.203125 42.046875) scale(0.7)"/>
       <use xlink:href="#DejaVuSans-15" transform="translate(186.855469 42.046875) scale(0.7)"/>
      </g>
     </g>
    </g>
    <g id="ytick_6">
     <g id="line2d_34">
      <g>
       <use xlink:href="#m6b99fc62fe" x="52.700859" y="71.748775" style="fill: #7f7f7f; stroke: #7f7f7f; stroke-width: 1.8"/>
      </g>
     </g>
     <g id="text_11">
      <!-- $\mathdefault{10^{-1}}$ -->
      <g style="fill: #7f7f7f" transform="translate(22.200859 76.398775) scale(0.1 -0.1)">
       <use xlink:href="#DejaVuSans-14" transform="translate(0 0.665625)"/>
       <use xlink:href="#DejaVuSans-13" transform="translate(63.623047 0.665625)"/>
       <use xlink:href="#DejaVuSans-c9c" transform="translate(128.203125 41.965625) scale(0.7)"/>
       <use xlink:href="#DejaVuSans-14" transform="translate(186.855469 41.965625) scale(0.7)"/>
      </g>
     </g>
    </g>
    <g id="ytick_7">
     <g id="line2d_35">
      <g>
       <use xlink:href="#m6b99fc62fe" x="52.700859" y="38.139171" style="fill: #7f7f7f; stroke: #7f7f7f; stroke-width: 1.8"/>
      </g>
     </g>
     <g id="text_12">
      <!-- $\mathdefault{10^{0}}$ -->
      <g style="fill: #7f7f7f" transform="translate(28.100859 42.839171) scale(0.1 -0.1)">
       <use xlink:href="#DejaVuSans-14" transform="translate(0 0.746875)"/>
       <use xlink:href="#DejaVuSans-13" transform="translate(63.623047 0.746875)"/>
       <use xlink:href="#DejaVuSans-13" transform="translate(128.203125 42.046875) scale(0.7)"/>
      </g>
     </g>
    </g>
    <g id="ytick_8">
     <g id="line2d_36">
      <defs>
       <path id="m4bd587afa3" d="M 0 0 
L -2 0 
" style="stroke: #7f7f7f; stroke-width: 1.2"/>
      </defs>
      <g>
       <use xlink:href="#m4bd587afa3" x="52.700859" y="229.679298" style="fill: #7f7f7f; stroke: #7f7f7f; stroke-width: 1.2"/>
      </g>
     </g>
    </g>
    <g id="ytick_9">
     <g id="line2d_37">
      <g>
       <use xlink:href="#m4bd587afa3" x="52.700859" y="223.76094" style="fill: #7f7f7f; stroke: #7f7f7f; stroke-width: 1.2"/>
      </g>
     </g>
    </g>
    <g id="ytick_10">
     <g id="line2d_38">
      <g>
       <use xlink:href="#m4bd587afa3" x="52.700859" y="219.561799" style="fill: #7f7f7f; stroke: #7f7f7f; stroke-width: 1.2"/>
      </g>
     </g>
    </g>
    <g id="ytick_11">
     <g id="line2d_39">
      <g>
       <use xlink:href="#m4bd587afa3" x="52.700859" y="216.304692" style="fill: #7f7f7f; stroke: #7f7f7f; stroke-width: 1.2"/>
      </g>
     </g>
    </g>
    <g id="ytick_12">
     <g id="line2d_40">
      <g>
       <use xlink:href="#m4bd587afa3" x="52.700859" y="213.643441" style="fill: #7f7f7f; stroke: #7f7f7f; stroke-width: 1.2"/>
      </g>
     </g>
    </g>
    <g id="ytick_13">
     <g id="line2d_41">
      <g>
       <use xlink:href="#m4bd587afa3" x="52.700859" y="211.393386" style="fill: #7f7f7f; stroke: #7f7f7f; stroke-width: 1.2"/>
      </g>
     </g>
    </g>
    <g id="ytick_14">
     <g id="line2d_42">
      <g>
       <use xlink:href="#m4bd587afa3" x="52.700859" y="209.4443" style="fill: #7f7f7f; stroke: #7f7f7f; stroke-width: 1.2"/>
      </g>
     </g>
    </g>
    <g id="ytick_15">
     <g id="line2d_43">
      <g>
       <use xlink:href="#m4bd587afa3" x="52.700859" y="207.725084" style="fill: #7f7f7f; stroke: #7f7f7f; stroke-width: 1.2"/>
      </g>
     </g>
    </g>
    <g id="ytick_16">
     <g id="line2d_44">
      <g>
       <use xlink:href="#m4bd587afa3" x="52.700859" y="196.069694" style="fill: #7f7f7f; stroke: #7f7f7f; stroke-width: 1.2"/>
      </g>
     </g>
    </g>
    <g id="ytick_17">
     <g id="line2d_45">
      <g>
       <use xlink:href="#m4bd587afa3" x="52.700859" y="190.151336" style="fill: #7f7f7f; stroke: #7f7f7f; stroke-width: 1.2"/>
      </g>
     </g>
    </g>
    <g id="ytick_18">
     <g id="line2d_46">
      <g>
       <use xlink:href="#m4bd587afa3" x="52.700859" y="185.952194" style="fill: #7f7f7f; stroke: #7f7f7f; stroke-width: 1.2"/>
      </g>
     </g>
    </g>
    <g id="ytick_19">
     <g id="line2d_47">
      <g>
       <use xlink:href="#m4bd587afa3" x="52.700859" y="182.695087" style="fill: #7f7f7f; stroke: #7f7f7f; stroke-width: 1.2"/>
      </g>
     </g>
    </g>
    <g id="ytick_20">
     <g id="line2d_48">
      <g>
       <use xlink:href="#m4bd587afa3" x="52.700859" y="180.033837" style="fill: #7f7f7f; stroke: #7f7f7f; stroke-width: 1.2"/>
      </g>
     </g>
    </g>
    <g id="ytick_21">
     <g id="line2d_49">
      <g>
       <use xlink:href="#m4bd587afa3" x="52.700859" y="177.783782" style="fill: #7f7f7f; stroke: #7f7f7f; stroke-width: 1.2"/>
      </g>
     </g>
    </g>
    <g id="ytick_22">
     <g id="line2d_50">
      <g>
       <use xlink:href="#m4bd587afa3" x="52.700859" y="175.834695" style="fill: #7f7f7f; stroke: #7f7f7f; stroke-width: 1.2"/>
      </g>
     </g>
    </g>
    <g id="ytick_23">
     <g id="line2d_51">
      <g>
       <use xlink:href="#m4bd587afa3" x="52.700859" y="174.115479" style="fill: #7f7f7f; stroke: #7f7f7f; stroke-width: 1.2"/>
      </g>
     </g>
    </g>
    <g id="ytick_24">
     <g id="line2d_52">
      <g>
       <use xlink:href="#m4bd587afa3" x="52.700859" y="162.460089" style="fill: #7f7f7f; stroke: #7f7f7f; stroke-width: 1.2"/>
      </g>
     </g>
    </g>
    <g id="ytick_25">
     <g id="line2d_53">
      <g>
       <use xlink:href="#m4bd587afa3" x="52.700859" y="156.541732" style="fill: #7f7f7f; stroke: #7f7f7f; stroke-width: 1.2"/>
      </g>
     </g>
    </g>
    <g id="ytick_26">
     <g id="line2d_54">
      <g>
       <use xlink:href="#m4bd587afa3" x="52.700859" y="152.34259" style="fill: #7f7f7f; stroke: #7f7f7f; stroke-width: 1.2"/>
      </g>
     </g>
    </g>
    <g id="ytick_27">
     <g id="line2d_55">
      <g>
       <use xlink:href="#m4bd587afa3" x="52.700859" y="149.085483" style="fill: #7f7f7f; stroke: #7f7f7f; stroke-width: 1.2"/>
      </g>
     </g>
    </g>
    <g id="ytick_28">
     <g id="line2d_56">
      <g>
       <use xlink:href="#m4bd587afa3" x="52.700859" y="146.424233" style="fill: #7f7f7f; stroke: #7f7f7f; stroke-width: 1.2"/>
      </g>
     </g>
    </g>
    <g id="ytick_29">
     <g id="line2d_57">
      <g>
       <use xlink:href="#m4bd587afa3" x="52.700859" y="144.174178" style="fill: #7f7f7f; stroke: #7f7f7f; stroke-width: 1.2"/>
      </g>
     </g>
    </g>
    <g id="ytick_30">
     <g id="line2d_58">
      <g>
       <use xlink:href="#m4bd587afa3" x="52.700859" y="142.225091" style="fill: #7f7f7f; stroke: #7f7f7f; stroke-width: 1.2"/>
      </g>
     </g>
    </g>
    <g id="ytick_31">
     <g id="line2d_59">
      <g>
       <use xlink:href="#m4bd587afa3" x="52.700859" y="140.505875" style="fill: #7f7f7f; stroke: #7f7f7f; stroke-width: 1.2"/>
      </g>
     </g>
    </g>
    <g id="ytick_32">
     <g id="line2d_60">
      <g>
       <use xlink:href="#m4bd587afa3" x="52.700859" y="128.850485" style="fill: #7f7f7f; stroke: #7f7f7f; stroke-width: 1.2"/>
      </g>
     </g>
    </g>
    <g id="ytick_33">
     <g id="line2d_61">
      <g>
       <use xlink:href="#m4bd587afa3" x="52.700859" y="122.932127" style="fill: #7f7f7f; stroke: #7f7f7f; stroke-width: 1.2"/>
      </g>
     </g>
    </g>
    <g id="ytick_34">
     <g id="line2d_62">
      <g>
       <use xlink:href="#m4bd587afa3" x="52.700859" y="118.732986" style="fill: #7f7f7f; stroke: #7f7f7f; stroke-width: 1.2"/>
      </g>
     </g>
    </g>
    <g id="ytick_35">
     <g id="line2d_63">
      <g>
       <use xlink:href="#m4bd587afa3" x="52.700859" y="115.475879" style="fill: #7f7f7f; stroke: #7f7f7f; stroke-width: 1.2"/>
      </g>
     </g>
    </g>
    <g id="ytick_36">
     <g id="line2d_64">
      <g>
       <use xlink:href="#m4bd587afa3" x="52.700859" y="112.814628" style="fill: #7f7f7f; stroke: #7f7f7f; stroke-width: 1.2"/>
      </g>
     </g>
    </g>
    <g id="ytick_37">
     <g id="line2d_65">
      <g>
       <use xlink:href="#m4bd587afa3" x="52.700859" y="110.564573" style="fill: #7f7f7f; stroke: #7f7f7f; stroke-width: 1.2"/>
      </g>
     </g>
    </g>
    <g id="ytick_38">
     <g id="line2d_66">
      <g>
       <use xlink:href="#m4bd587afa3" x="52.700859" y="108.615487" style="fill: #7f7f7f; stroke: #7f7f7f; stroke-width: 1.2"/>
      </g>
     </g>
    </g>
    <g id="ytick_39">
     <g id="line2d_67">
      <g>
       <use xlink:href="#m4bd587afa3" x="52.700859" y="106.896271" style="fill: #7f7f7f; stroke: #7f7f7f; stroke-width: 1.2"/>
      </g>
     </g>
    </g>
    <g id="ytick_40">
     <g id="line2d_68">
      <g>
       <use xlink:href="#m4bd587afa3" x="52.700859" y="95.240881" style="fill: #7f7f7f; stroke: #7f7f7f; stroke-width: 1.2"/>
      </g>
     </g>
    </g>
    <g id="ytick_41">
     <g id="line2d_69">
      <g>
       <use xlink:href="#m4bd587afa3" x="52.700859" y="89.322523" style="fill: #7f7f7f; stroke: #7f7f7f; stroke-width: 1.2"/>
      </g>
     </g>
    </g>
    <g id="ytick_42">
     <g id="line2d_70">
      <g>
       <use xlink:href="#m4bd587afa3" x="52.700859" y="85.123382" style="fill: #7f7f7f; stroke: #7f7f7f; stroke-width: 1.2"/>
      </g>
     </g>
    </g>
    <g id="ytick_43">
     <g id="line2d_71">
      <g>
       <use xlink:href="#m4bd587afa3" x="52.700859" y="81.866274" style="fill: #7f7f7f; stroke: #7f7f7f; stroke-width: 1.2"/>
      </g>
     </g>
    </g>
    <g id="ytick_44">
     <g id="line2d_72">
      <g>
       <use xlink:href="#m4bd587afa3" x="52.700859" y="79.205024" style="fill: #7f7f7f; stroke: #7f7f7f; stroke-width: 1.2"/>
      </g>
     </g>
    </g>
    <g id="ytick_45">
     <g id="line2d_73">
      <g>
       <use xlink:href="#m4bd587afa3" x="52.700859" y="76.954969" style="fill: #7f7f7f; stroke: #7f7f7f; stroke-width: 1.2"/>
      </g>
     </g>
    </g>
    <g id="ytick_46">
     <g id="line2d_74">
      <g>
       <use xlink:href="#m4bd587afa3" x="52.700859" y="75.005883" style="fill: #7f7f7f; stroke: #7f7f7f; stroke-width: 1.2"/>
      </g>
     </g>
    </g>
    <g id="ytick_47">
     <g id="line2d_75">
      <g>
       <use xlink:href="#m4bd587afa3" x="52.700859" y="73.286666" style="fill: #7f7f7f; stroke: #7f7f7f; stroke-width: 1.2"/>
      </g>
     </g>
    </g>
    <g id="ytick_48">
     <g id="line2d_76">
      <g>
       <use xlink:href="#m4bd587afa3" x="52.700859" y="61.631276" style="fill: #7f7f7f; stroke: #7f7f7f; stroke-width: 1.2"/>
      </g>
     </g>
    </g>
    <g id="ytick_49">
     <g id="line2d_77">
      <g>
       <use xlink:href="#m4bd587afa3" x="52.700859" y="55.712919" style="fill: #7f7f7f; stroke: #7f7f7f; stroke-width: 1.2"/>
      </g>
     </g>
    </g>
    <g id="ytick_50">
     <g id="line2d_78">
      <g>
       <use xlink:href="#m4bd587afa3" x="52.700859" y="51.513777" style="fill: #7f7f7f; stroke: #7f7f7f; stroke-width: 1.2"/>
      </g>
     </g>
    </g>
    <g id="ytick_51">
     <g id="line2d_79">
      <g>
       <use xlink:href="#m4bd587afa3" x="52.700859" y="48.25667" style="fill: #7f7f7f; stroke: #7f7f7f; stroke-width: 1.2"/>
      </g>
     </g>
    </g>
    <g id="ytick_52">
     <g id="line2d_80">
      <g>
       <use xlink:href="#m4bd587afa3" x="52.700859" y="45.59542" style="fill: #7f7f7f; stroke: #7f7f7f; stroke-width: 1.2"/>
      </g>
     </g>
    </g>
    <g id="ytick_53">
     <g id="line2d_81">
      <g>
       <use xlink:href="#m4bd587afa3" x="52.700859" y="43.345365" style="fill: #7f7f7f; stroke: #7f7f7f; stroke-width: 1.2"/>
      </g>
     </g>
    </g>
    <g id="ytick_54">
     <g id="line2d_82">
      <g>
       <use xlink:href="#m4bd587afa3" x="52.700859" y="41.396278" style="fill: #7f7f7f; stroke: #7f7f7f; stroke-width: 1.2"/>
      </g>
     </g>
    </g>
    <g id="ytick_55">
     <g id="line2d_83">
      <g>
       <use xlink:href="#m4bd587afa3" x="52.700859" y="39.677062" style="fill: #7f7f7f; stroke: #7f7f7f; stroke-width: 1.2"/>
      </g>
     </g>
    </g>
    <g id="ytick_56">
     <g id="line2d_84">
      <g>
       <use xlink:href="#m4bd587afa3" x="52.700859" y="28.021672" style="fill: #7f7f7f; stroke: #7f7f7f; stroke-width: 1.2"/>
      </g>
     </g>
    </g>
    <g id="ytick_57">
     <g id="line2d_85">
      <g>
       <use xlink:href="#m4bd587afa3" x="52.700859" y="22.103314" style="fill: #7f7f7f; stroke: #7f7f7f; stroke-width: 1.2"/>
      </g>
     </g>
    </g>
    <g id="ytick_58">
     <g id="line2d_86">
      <g>
       <use xlink:href="#m4bd587afa3" x="52.700859" y="17.904173" style="fill: #7f7f7f; stroke: #7f7f7f; stroke-width: 1.2"/>
      </g>
     </g>
    </g>
    <g id="ytick_59">
     <g id="line2d_87">
      <g>
       <use xlink:href="#m4bd587afa3" x="52.700859" y="14.647066" style="fill: #7f7f7f; stroke: #7f7f7f; stroke-width: 1.2"/>
      </g>
     </g>
    </g>
    <g id="ytick_60">
     <g id="line2d_88">
      <g>
       <use xlink:href="#m4bd587afa3" x="52.700859" y="11.985815" style="fill: #7f7f7f; stroke: #7f7f7f; stroke-width: 1.2"/>
      </g>
     </g>
    </g>
    <g id="ytick_61">
     <g id="line2d_89">
      <g>
       <use xlink:href="#m4bd587afa3" x="52.700859" y="9.73576" style="fill: #7f7f7f; stroke: #7f7f7f; stroke-width: 1.2"/>
      </g>
     </g>
    </g>
    <g id="ytick_62">
     <g id="line2d_90">
      <g>
       <use xlink:href="#m4bd587afa3" x="52.700859" y="7.786674" style="fill: #7f7f7f; stroke: #7f7f7f; stroke-width: 1.2"/>
      </g>
     </g>
    </g>
    <g id="text_13">
     <!-- Magnitude -->
     <g style="fill: #7f7f7f" transform="translate(15.558281 152.637227) rotate(-90) scale(0.11 -0.11)">
      <defs>
       <path id="DejaVuSans-30" d="M 628 4666 
L 1569 4666 
L 2759 1491 
L 3956 4666 
L 4897 4666 
L 4897 0 
L 4281 0 
L 4281 4097 
L 3078 897 
L 2444 897 
L 1241 4097 
L 1241 0 
L 628 0 
L 628 4666 
z
" transform="scale(0.015625)"/>
       <path id="DejaVuSans-44" d="M 2194 1759 
Q 1497 1759 1228 1600 
Q 959 1441 959 1056 
Q 959 750 1161 570 
Q 1363 391 1709 391 
Q 2188 391 2477 730 
Q 2766 1069 2766 1631 
L 2766 1759 
L 2194 1759 
z
M 3341 1997 
L 3341 0 
L 2766 0 
L 2766 531 
Q 2569 213 2275 61 
Q 1981 -91 1556 -91 
Q 1019 -91 701 211 
Q 384 513 384 1019 
Q 384 1609 779 1909 
Q 1175 2209 1959 2209 
L 2766 2209 
L 2766 2266 
Q 2766 2663 2505 2880 
Q 2244 3097 1772 3097 
Q 1472 3097 1187 3025 
Q 903 2953 641 2809 
L 641 3341 
Q 956 3463 1253 3523 
Q 1550 3584 1831 3584 
Q 2591 3584 2966 3190 
Q 3341 2797 3341 1997 
z
" transform="scale(0.015625)"/>
       <path id="DejaVuSans-4a" d="M 2906 1791 
Q 2906 2416 2648 2759 
Q 2391 3103 1925 3103 
Q 1463 3103 1205 2759 
Q 947 2416 947 1791 
Q 947 1169 1205 825 
Q 1463 481 1925 481 
Q 2391 481 2648 825 
Q 2906 1169 2906 1791 
z
M 3481 434 
Q 3481 -459 3084 -895 
Q 2688 -1331 1869 -1331 
Q 1566 -1331 1297 -1286 
Q 1028 -1241 775 -1147 
L 775 -588 
Q 1028 -725 1275 -790 
Q 1522 -856 1778 -856 
Q 2344 -856 2625 -561 
Q 2906 -266 2906 331 
L 2906 616 
Q 2728 306 2450 153 
Q 2172 0 1784 0 
Q 1141 0 747 490 
Q 353 981 353 1791 
Q 353 2603 747 3093 
Q 1141 3584 1784 3584 
Q 2172 3584 2450 3431 
Q 2728 3278 2906 2969 
L 2906 3500 
L 3481 3500 
L 3481 434 
z
" transform="scale(0.015625)"/>
       <path id="DejaVuSans-51" d="M 3513 2113 
L 3513 0 
L 2938 0 
L 2938 2094 
Q 2938 2591 2744 2837 
Q 2550 3084 2163 3084 
Q 1697 3084 1428 2787 
Q 1159 2491 1159 1978 
L 1159 0 
L 581 0 
L 581 3500 
L 1159 3500 
L 1159 2956 
Q 1366 3272 1645 3428 
Q 1925 3584 2291 3584 
Q 2894 3584 3203 3211 
Q 3513 2838 3513 2113 
z
" transform="scale(0.015625)"/>
       <path id="DejaVuSans-4c" d="M 603 3500 
L 1178 3500 
L 1178 0 
L 603 0 
L 603 3500 
z
M 603 4863 
L 1178 4863 
L 1178 4134 
L 603 4134 
L 603 4863 
z
" transform="scale(0.015625)"/>
       <path id="DejaVuSans-57" d="M 1172 4494 
L 1172 3500 
L 2356 3500 
L 2356 3053 
L 1172 3053 
L 1172 1153 
Q 1172 725 1289 603 
Q 1406 481 1766 481 
L 2356 481 
L 2356 0 
L 1766 0 
Q 1100 0 847 248 
Q 594 497 594 1153 
L 594 3053 
L 172 3053 
L 172 3500 
L 594 3500 
L 594 4494 
L 1172 4494 
z
" transform="scale(0.015625)"/>
       <path id="DejaVuSans-58" d="M 544 1381 
L 544 3500 
L 1119 3500 
L 1119 1403 
Q 1119 906 1312 657 
Q 1506 409 1894 409 
Q 2359 409 2629 706 
Q 2900 1003 2900 1516 
L 2900 3500 
L 3475 3500 
L 3475 0 
L 2900 0 
L 2900 538 
Q 2691 219 2414 64 
Q 2138 -91 1772 -91 
Q 1169 -91 856 284 
Q 544 659 544 1381 
z
M 1991 3584 
L 1991 3584 
z
" transform="scale(0.015625)"/>
       <path id="DejaVuSans-47" d="M 2906 2969 
L 2906 4863 
L 3481 4863 
L 3481 0 
L 2906 0 
L 2906 525 
Q 2725 213 2448 61 
Q 2172 -91 1784 -91 
Q 1150 -91 751 415 
Q 353 922 353 1747 
Q 353 2572 751 3078 
Q 1150 3584 1784 3584 
Q 2172 3584 2448 3432 
Q 2725 3281 2906 2969 
z
M 947 1747 
Q 947 1113 1208 752 
Q 1469 391 1925 391 
Q 2381 391 2643 752 
Q 2906 1113 2906 1747 
Q 2906 2381 2643 2742 
Q 2381 3103 1925 3103 
Q 1469 3103 1208 2742 
Q 947 2381 947 1747 
z
" transform="scale(0.015625)"/>
      </defs>
      <use xlink:href="#DejaVuSans-30"/>
      <use xlink:href="#DejaVuSans-44" transform="translate(86.28125 0)"/>
      <use xlink:href="#DejaVuSans-4a" transform="translate(147.5625 0)"/>
      <use xlink:href="#DejaVuSans-51" transform="translate(211.046875 0)"/>
      <use xlink:href="#DejaVuSans-4c" transform="translate(274.421875 0)"/>
      <use xlink:href="#DejaVuSans-57" transform="translate(302.203125 0)"/>
      <use xlink:href="#DejaVuSans-58" transform="translate(341.40625 0)"/>
      <use xlink:href="#DejaVuSans-47" transform="translate(404.78125 0)"/>
      <use xlink:href="#DejaVuSans-48" transform="translate(468.265625 0)"/>
     </g>
    </g>
   </g>
   <g id="line2d_91">
    <path d="M 75.832638 103.185009 
L 81.406561 99.880825 
L 86.980484 98.534917 
L 92.554407 99.259613 
L 96.270355 101.276148 
L 99.986303 105.265776 
L 103.702252 113.313388 
L 105.560226 121.40808 
L 107.4182 144.101621 
L 111.134149 116.215216 
L 114.850097 105.492497 
L 118.566046 100.496825 
L 122.281994 98.467566 
L 125.997943 99.021249 
L 129.713891 102.920008 
L 131.571865 107.005951 
L 133.42984 114.199646 
L 135.287814 132.536303 
L 137.145788 125.240784 
L 140.861736 104.865377 
L 144.577685 98.953889 
L 146.435659 98.141741 
L 148.293633 98.604948 
L 150.151608 100.553106 
L 152.009582 104.632978 
L 153.867556 112.94884 
L 155.72553 146.388324 
L 157.583504 115.55048 
L 161.299453 100.279335 
L 163.157427 98.104587 
L 165.015401 98.069997 
L 166.873376 100.367602 
L 168.73135 106.259321 
L 170.589324 122.80325 
L 172.447298 118.434686 
L 174.305272 104.398729 
L 176.163247 99.022297 
L 178.021221 97.433466 
L 179.879195 99.100607 
L 181.737169 105.420797 
L 183.595144 128.870615 
L 187.311092 100.424443 
L 189.169066 97.070138 
L 191.027041 98.311434 
L 192.885015 105.82925 
L 194.742989 158.61111 
L 196.600963 104.63901 
L 198.458937 97.319678 
L 200.316912 96.920931 
L 202.174886 103.788711 
L 204.03286 147.037555 
L 205.890834 102.049473 
L 207.748809 95.884359 
L 209.606783 98.024775 
L 211.464757 115.069612 
L 215.180705 95.550194 
L 217.03868 96.720663 
L 218.896654 115.937761 
L 222.612602 93.954536 
L 224.470577 99.025098 
L 226.328551 120.260441 
L 228.186525 94.576397 
L 230.044499 94.425145 
L 231.902474 129.868699 
L 233.760448 94.684718 
L 235.618422 92.517619 
L 237.476396 130.537303 
L 239.33437 92.134479 
L 241.192345 92.258602 
L 243.050319 111.532145 
L 244.908293 87.995508 
L 246.766267 97.711439 
L 250.482216 86.636702 
L 252.34019 102.805473 
L 254.198164 81.870661 
L 256.056138 115.209971 
L 257.914113 78.091884 
L 259.772087 93.06924 
L 261.630061 72.12917 
L 263.488035 82.254251 
L 265.34601 57.766567 
L 267.203984 48.33974 
L 269.061958 54.346921 
L 270.919932 99.124267 
L 272.777906 73.236965 
L 274.635881 85.512652 
L 276.493855 88.373156 
L 278.351829 84.623707 
L 280.209803 113.720643 
L 282.067778 92.427464 
L 283.925752 92.499055 
L 285.783726 116.541367 
L 287.6417 101.411953 
L 289.499675 96.887585 
L 291.357649 103.603195 
L 293.215623 142.909454 
L 295.073597 109.600613 
L 296.931571 103.866414 
L 298.789546 104.41674 
L 300.64752 108.519477 
L 302.505494 115.826919 
L 304.363468 127.859498 
L 306.221443 161.582976 
L 308.079417 140.719411 
L 309.937391 135.317375 
L 311.795365 137.362102 
L 313.653339 149.578087 
L 315.511314 148.087009 
L 317.369288 130.217836 
L 321.085236 118.640364 
L 322.943211 118.978135 
L 324.801185 126.024335 
L 326.659159 160.484247 
L 328.517133 124.686925 
L 330.375108 123.405005 
L 332.233082 153.719835 
L 334.091056 126.140545 
L 335.94903 131.172397 
L 337.807004 132.229332 
L 339.664979 131.260038 
L 341.522953 132.042193 
L 343.380927 140.912868 
L 345.238901 129.716941 
L 347.096876 141.725082 
L 348.95485 144.985323 
L 350.812824 133.623966 
L 352.670798 133.367352 
L 358.244721 144.861859 
L 360.102695 144.586662 
L 363.818644 139.029282 
L 365.676618 139.478535 
L 369.392566 154.2931 
L 371.250541 141.499724 
L 373.108515 164.425236 
L 374.966489 143.509264 
L 376.824463 203.322023 
L 378.682437 146.031578 
L 380.540412 147.521202 
L 382.398386 160.89424 
L 384.25636 186.023868 
L 386.114334 167.040271 
L 387.972309 170.459917 
L 389.830283 187.393092 
L 391.688257 157.856401 
L 393.546231 151.239335 
L 395.404205 161.660391 
L 397.26218 156.769313 
L 399.120154 162.376613 
L 400.978128 154.512904 
L 402.836102 163.614645 
L 404.694077 192.102235 
L 406.552051 190.449844 
L 408.410025 199.665771 
L 410.267999 167.641867 
L 412.125973 159.258544 
L 413.983948 170.253829 
L 415.841922 162.445623 
L 417.699896 198.115234 
L 419.55787 166.39478 
L 421.415845 163.942428 
L 423.273819 165.055774 
L 425.131793 171.519582 
L 426.989767 185.17898 
L 428.847742 166.078523 
L 430.705716 183.028143 
L 434.421664 172.90514 
L 436.279638 176.425221 
L 438.137613 216.391039 
L 439.995587 171.378155 
L 441.853561 201.779636 
L 443.711535 175.262819 
L 445.56951 174.035672 
L 447.427484 178.046331 
L 449.285458 204.758522 
L 451.143432 175.293078 
L 454.859381 186.859517 
L 456.717355 180.594832 
L 458.575329 179.820637 
L 460.433303 184.945929 
L 462.291278 208.644719 
L 464.149252 198.162097 
L 466.007226 181.92745 
L 467.8652 207.033245 
L 469.723175 187.85202 
L 471.581149 193.335026 
L 473.439123 192.737212 
L 475.297097 193.618173 
L 477.155071 190.0193 
L 479.013046 214.90474 
L 480.87102 186.883429 
L 482.728994 190.043918 
L 484.586968 188.307927 
L 486.444943 220.326591 
L 488.302917 197.182453 
L 490.160891 223.69734 
L 492.018865 191.070197 
L 493.876839 192.284494 
L 495.734814 195.383301 
L 499.450762 194.099433 
L 501.308736 213.158327 
L 503.166711 203.644744 
L 505.024685 207.660709 
L 506.882659 216.059988 
L 508.740633 208.345739 
L 510.598607 209.224621 
L 512.456582 227.896595 
L 514.314556 202.406169 
L 516.17253 215.201823 
L 518.030504 201.018086 
L 519.888479 211.118373 
L 521.746453 202.78722 
L 523.604427 234.810777 
L 527.320376 203.647328 
L 531.036324 205.916301 
L 534.752272 219.688165 
L 536.610247 207.967055 
L 538.468221 222.444576 
L 538.468221 222.444576 
" clip-path="url(#peecedea9bb)" style="fill: none; stroke: #e41a1c; stroke-width: 2; stroke-linecap: square"/>
   </g>
   <g id="line2d_92">
    <path d="M 75.832638 80.665243 
L 81.406561 74.492597 
L 86.980484 71.244349 
L 92.554407 70.417263 
L 98.128329 72.219575 
L 101.844278 75.412481 
L 105.560226 80.984856 
L 109.276175 87.624691 
L 111.134149 87.109845 
L 118.566046 74.416663 
L 122.281994 71.917543 
L 125.997943 72.101718 
L 129.713891 75.518704 
L 135.287814 86.739699 
L 137.145788 83.392075 
L 140.861736 73.645113 
L 144.577685 68.999936 
L 146.435659 68.331244 
L 148.293633 68.745084 
L 150.151608 70.3853 
L 152.009582 73.578729 
L 155.72553 85.481908 
L 157.583504 83.927638 
L 161.299453 73.609095 
L 163.157427 72.068584 
L 165.015401 72.91279 
L 166.873376 76.824812 
L 168.73135 86.245876 
L 170.589324 88.710556 
L 174.305272 69.067337 
L 176.163247 65.900336 
L 178.021221 65.351929 
L 179.879195 67.488819 
L 183.595144 80.73615 
L 187.311092 67.646158 
L 189.169066 65.279906 
L 191.027041 66.677687 
L 194.742989 76.026863 
L 198.458937 63.782139 
L 200.316912 63.796384 
L 202.174886 69.510151 
L 204.03286 88.234062 
L 207.748809 66.953836 
L 209.606783 68.974317 
L 211.464757 84.607458 
L 215.180705 65.043296 
L 217.03868 66.7575 
L 218.896654 84.804463 
L 222.612602 62.983459 
L 224.470577 68.465217 
L 226.328551 80.590284 
L 228.186525 62.406406 
L 230.044499 62.067646 
L 231.902474 84.664591 
L 233.760448 66.152745 
L 235.618422 63.33208 
L 237.476396 94.15141 
L 239.33437 60.626874 
L 241.192345 60.420441 
L 243.050319 89.712107 
L 244.908293 58.795974 
L 246.766267 68.377589 
L 250.482216 55.782769 
L 252.34019 78.119044 
L 254.198164 53.394467 
L 256.056138 95.047335 
L 257.914113 46.90623 
L 259.772087 61.559066 
L 261.630061 41.956846 
L 263.488035 52.01931 
L 265.34601 27.46537 
L 267.203984 18.038608 
L 269.061958 24.039803 
L 270.919932 69.344012 
L 272.777906 43.339616 
L 274.635881 53.587785 
L 276.493855 57.483677 
L 278.351829 52.7665 
L 280.209803 95.708297 
L 282.067778 61.992774 
L 283.925752 63.20829 
L 285.783726 83.240286 
L 289.499675 64.646712 
L 293.215623 90.483 
L 295.073597 73.383921 
L 296.931571 72.063248 
L 298.789546 75.886605 
L 300.64752 75.244287 
L 302.505494 86.893799 
L 304.363468 85.788709 
L 306.221443 94.926755 
L 308.079417 92.922404 
L 309.937391 93.963772 
L 311.795365 96.418748 
L 313.653339 96.958516 
L 315.511314 90.235644 
L 317.369288 88.383061 
L 321.085236 79.037494 
L 322.943211 79.839685 
L 324.801185 87.39608 
L 326.659159 100.336801 
L 328.517133 83.368563 
L 332.233082 118.147604 
L 335.94903 92.538208 
L 339.664979 89.863615 
L 341.522953 86.097407 
L 343.380927 59.787918 
L 345.238901 78.076315 
L 347.096876 85.221061 
L 348.95485 85.011053 
L 350.812824 90.86067 
L 352.670798 114.770934 
L 354.528772 90.633244 
L 356.386747 90.25647 
L 358.244721 97.729157 
L 360.102695 98.747235 
L 361.960669 96.076427 
L 363.818644 107.44218 
L 365.676618 97.429151 
L 367.534592 93.558618 
L 369.392566 99.426683 
L 371.250541 125.594626 
L 374.966489 92.195835 
L 376.824463 104.811164 
L 378.682437 97.429432 
L 380.540412 99.049557 
L 382.398386 102.933713 
L 384.25636 94.997317 
L 386.114334 106.144836 
L 387.972309 99.62069 
L 389.830283 97.775891 
L 391.688257 105.456767 
L 393.546231 103.033152 
L 395.404205 113.052367 
L 397.26218 100.867535 
L 400.978128 116.616802 
L 404.694077 95.381391 
L 406.552051 137.945132 
L 408.410025 105.574612 
L 410.267999 103.445678 
L 412.125973 108.499471 
L 413.983948 100.013554 
L 415.841922 102.822961 
L 419.55787 116.583358 
L 421.415845 146.900227 
L 423.273819 110.670453 
L 425.131793 117.538839 
L 426.989767 120.003959 
L 430.705716 104.379025 
L 432.56369 114.116353 
L 434.421664 117.467899 
L 436.279638 109.309383 
L 438.137613 119.873704 
L 439.995587 117.245371 
L 441.853561 118.338198 
L 443.711535 131.942378 
L 445.56951 117.230856 
L 447.427484 118.036206 
L 449.285458 132.494673 
L 451.143432 126.443624 
L 453.001406 128.277405 
L 454.859381 128.254895 
L 456.717355 114.110279 
L 458.575329 136.33772 
L 460.433303 125.695679 
L 462.291278 155.787534 
L 464.149252 127.521995 
L 466.007226 130.485752 
L 467.8652 127.837951 
L 469.723175 130.88432 
L 471.581149 124.159041 
L 473.439123 132.323637 
L 475.297097 129.45564 
L 477.155071 143.667404 
L 479.013046 126.620122 
L 480.87102 134.743135 
L 482.728994 132.364235 
L 484.586968 144.806769 
L 486.444943 132.845312 
L 488.302917 128.288922 
L 490.160891 130.284256 
L 492.018865 172.347937 
L 493.876839 134.803287 
L 495.734814 157.820239 
L 497.592788 137.418072 
L 499.450762 138.773777 
L 501.308736 138.606842 
L 503.166711 147.437931 
L 505.024685 146.163521 
L 506.882659 146.577085 
L 508.740633 126.411749 
L 510.598607 141.009445 
L 512.456582 139.389257 
L 514.314556 131.144512 
L 516.17253 143.690846 
L 518.030504 144.508116 
L 519.888479 157.434537 
L 521.746453 146.802286 
L 523.604427 148.434117 
L 525.462401 140.02095 
L 527.320376 140.186014 
L 531.036324 147.556356 
L 532.894298 146.942272 
L 534.752272 165.542147 
L 536.610247 149.561837 
L 538.468221 162.706529 
L 538.468221 162.706529 
" clip-path="url(#peecedea9bb)" style="fill: none; stroke: #377eb8; stroke-width: 2; stroke-linecap: square"/>
   </g>
   <g id="patch_3">
    <path d="M 52.700859 239.796797 
L 52.700859 7.2 
" style="fill: none; stroke: #7f7f7f; stroke-width: 1.8; stroke-linejoin: miter; stroke-linecap: square"/>
   </g>
   <g id="patch_4">
    <path d="M 52.700859 239.796797 
L 561.6 239.796797 
" style="fill: none; stroke: #7f7f7f; stroke-width: 1.8; stroke-linejoin: miter; stroke-linecap: square"/>
   </g>
   <g id="legend_1">
    <g id="line2d_93">
     <path d="M 503.101562 20.298437 
L 513.101562 20.298437 
L 523.101562 20.298437 
" style="fill: none; stroke: #e41a1c; stroke-width: 2; stroke-linecap: square"/>
    </g>
    <g id="text_14">
     <!-- Src -->
     <g style="fill: #7f7f7f" transform="translate(531.101562 23.798437) scale(0.1 -0.1)">
      <defs>
       <path id="DejaVuSans-36" d="M 3425 4513 
L 3425 3897 
Q 3066 4069 2747 4153 
Q 2428 4238 2131 4238 
Q 1616 4238 1336 4038 
Q 1056 3838 1056 3469 
Q 1056 3159 1242 3001 
Q 1428 2844 1947 2747 
L 2328 2669 
Q 3034 2534 3370 2195 
Q 3706 1856 3706 1288 
Q 3706 609 3251 259 
Q 2797 -91 1919 -91 
Q 1588 -91 1214 -16 
Q 841 59 441 206 
L 441 856 
Q 825 641 1194 531 
Q 1563 422 1919 422 
Q 2459 422 2753 634 
Q 3047 847 3047 1241 
Q 3047 1584 2836 1778 
Q 2625 1972 2144 2069 
L 1759 2144 
Q 1053 2284 737 2584 
Q 422 2884 422 3419 
Q 422 4038 858 4394 
Q 1294 4750 2059 4750 
Q 2388 4750 2728 4690 
Q 3069 4631 3425 4513 
z
" transform="scale(0.015625)"/>
       <path id="DejaVuSans-46" d="M 3122 3366 
L 3122 2828 
Q 2878 2963 2633 3030 
Q 2388 3097 2138 3097 
Q 1578 3097 1268 2742 
Q 959 2388 959 1747 
Q 959 1106 1268 751 
Q 1578 397 2138 397 
Q 2388 397 2633 464 
Q 2878 531 3122 666 
L 3122 134 
Q 2881 22 2623 -34 
Q 2366 -91 2075 -91 
Q 1284 -91 818 406 
Q 353 903 353 1747 
Q 353 2603 823 3093 
Q 1294 3584 2113 3584 
Q 2378 3584 2631 3529 
Q 2884 3475 3122 3366 
z
" transform="scale(0.015625)"/>
      </defs>
      <use xlink:href="#DejaVuSans-36"/>
      <use xlink:href="#DejaVuSans-55" transform="translate(63.484375 0)"/>
      <use xlink:href="#DejaVuSans-46" transform="translate(102.390625 0)"/>
     </g>
    </g>
    <g id="line2d_94">
     <path d="M 503.101562 35.299219 
L 513.101562 35.299219 
L 523.101562 35.299219 
" style="fill: none; stroke: #377eb8; stroke-width: 2; stroke-linecap: square"/>
    </g>
    <g id="text_15">
     <!-- AMP -->
     <g style="fill: #7f7f7f" transform="translate(531.101562 38.799219) scale(0.1 -0.1)">
      <defs>
       <path id="DejaVuSans-24" d="M 2188 4044 
L 1331 1722 
L 3047 1722 
L 2188 4044 
z
M 1831 4666 
L 2547 4666 
L 4325 0 
L 3669 0 
L 3244 1197 
L 1141 1197 
L 716 0 
L 50 0 
L 1831 4666 
z
" transform="scale(0.015625)"/>
       <path id="DejaVuSans-33" d="M 1259 4147 
L 1259 2394 
L 2053 2394 
Q 2494 2394 2734 2622 
Q 2975 2850 2975 3272 
Q 2975 3691 2734 3919 
Q 2494 4147 2053 4147 
L 1259 4147 
z
M 628 4666 
L 2053 4666 
Q 2838 4666 3239 4311 
Q 3641 3956 3641 3272 
Q 3641 2581 3239 2228 
Q 2838 1875 2053 1875 
L 1259 1875 
L 1259 0 
L 628 0 
L 628 4666 
z
" transform="scale(0.015625)"/>
      </defs>
      <use xlink:href="#DejaVuSans-24"/>
      <use xlink:href="#DejaVuSans-30" transform="translate(68.40625 0)"/>
      <use xlink:href="#DejaVuSans-33" transform="translate(154.6875 0)"/>
     </g>
    </g>
   </g>
  </g>
 </g>
 <defs>
  <clipPath id="peecedea9bb">
   <rect x="52.700859" y="7.2" width="508.899141" height="232.596797"/>
  </clipPath>
 </defs>
</svg>
