<?xml version="1.0" encoding="utf-8" standalone="no"?>
<!DOCTYPE svg PUBLIC "-//W3C//DTD SVG 1.1//EN"
  "http://www.w3.org/Graphics/SVG/1.1/DTD/svg11.dtd">
<svg xmlns:xlink="http://www.w3.org/1999/xlink" width="568.8pt" height="280.8pt" viewBox="0 0 568.8 280.8" xmlns="http://www.w3.org/2000/svg" version="1.1">
 <metadata>
  <rdf:RDF xmlns:dc="http://purl.org/dc/elements/1.1/" xmlns:cc="http://creativecommons.org/ns#" xmlns:rdf="http://www.w3.org/1999/02/22-rdf-syntax-ns#">
   <cc:Work>
    <dc:type rdf:resource="http://purl.org/dc/dcmitype/StillImage"/>
    <dc:date>2026-06-16T01:02:51.262191</dc:date>
    <dc:format>image/svg+xml</dc:format>
    <dc:creator>
     <cc:Agent>
      <dc:title>Matplotlib v3.11.0, https://matplotlib.org/</dc:title>
     </cc:Agent>
    </dc:creator>
   </cc:Work>
  </rdf:RDF>
 </metadata>
 <defs>
  <style type="text/css">*{stroke-linejoin: round; stroke-linecap: butt}</style>
 </defs>
 <g id="figure_1">
  <g id="patch_1">
   <path d="M 0 280.8 
L 568.8 280.8 
L 568.8 0 
L 0 0 
L 0 280.8 
z
" style="fill: none"/>
  </g>
  <g id="axes_1">
   <g id="patch_2">
    <path d="M 28.942188 241.599141 
L 561.6 241.599141 
L 561.6 7.2 
L 28.942188 7.2 
L 28.942188 241.599141 
z
" style="fill: none"/>
   </g>
   <g id="matplotlib.axis_1">
    <g id="xtick_1">
     <g id="line2d_1">
      <defs>
       <path id="m9884e99ba6" d="M 0 0 
L 0 3.5 
" style="stroke: #7f7f7f; stroke-width: 1.8"/>
      </defs>
      <g>
       <use xlink:href="#m9884e99ba6" x="53.153906" y="241.599141" style="fill: #7f7f7f; stroke: #7f7f7f; stroke-width: 1.8"/>
      </g>
     </g>
     <g id="text_1">
      <!-- 0.00000 -->
      <g style="fill: #7f7f7f" transform="translate(32.477344 256.196797) scale(0.1 -0.1)">
       <defs>
        <path id="DejaVuSans-13" d="M 2034 4250 
Q 1547 4250 1301 3770 
Q 1056 3291 1056 2328 
Q 1056 1369 1301 889 
Q 1547 409 2034 409 
Q 2525 409 2770 889 
Q 3016 1369 3016 2328 
Q 3016 3291 2770 3770 
Q 2525 4250 2034 4250 
z
M 2034 4750 
Q 2819 4750 3233 4129 
Q 3647 3509 3647 2328 
Q 3647 1150 3233 529 
Q 2819 -91 2034 -91 
Q 1250 -91 836 529 
Q 422 1150 422 2328 
Q 422 3509 836 4129 
Q 1250 4750 2034 4750 
z
" transform="scale(0.015625)"/>
        <path id="DejaVuSans-11" d="M 684 794 
L 1344 794 
L 1344 0 
L 684 0 
L 684 794 
z
" transform="scale(0.015625)"/>
       </defs>
       <use xlink:href="#DejaVuSans-13"/>
       <use xlink:href="#DejaVuSans-11" transform="translate(63.625 0)"/>
       <use xlink:href="#DejaVuSans-13" transform="translate(95.40625 0)"/>
       <use xlink:href="#DejaVuSans-13" transform="translate(159.03125 0)"/>
       <use xlink:href="#DejaVuSans-13" transform="translate(222.65625 0)"/>
       <use xlink:href="#DejaVuSans-13" transform="translate(286.28125 0)"/>
       <use xlink:href="#DejaVuSans-13" transform="translate(349.90625 0)"/>
      </g>
     </g>
    </g>
    <g id="xtick_2">
     <g id="line2d_2">
      <g>
       <use xlink:href="#m9884e99ba6" x="149.981416" y="241.599141" style="fill: #7f7f7f; stroke: #7f7f7f; stroke-width: 1.8"/>
      </g>
     </g>
     <g id="text_2">
      <!-- 0.00002 -->
      <g style="fill: #7f7f7f" transform="translate(129.304853 256.196797) scale(0.1 -0.1)">
       <defs>
        <path id="DejaVuSans-15" d="M 1228 531 
L 3431 531 
L 3431 0 
L 469 0 
L 469 531 
Q 828 903 1448 1529 
Q 2069 2156 2228 2338 
Q 2531 2678 2651 2914 
Q 2772 3150 2772 3378 
Q 2772 3750 2511 3984 
Q 2250 4219 1831 4219 
Q 1534 4219 1204 4116 
Q 875 4013 500 3803 
L 500 4441 
Q 881 4594 1212 4672 
Q 1544 4750 1819 4750 
Q 2544 4750 2975 4387 
Q 3406 4025 3406 3419 
Q 3406 3131 3298 2873 
Q 3191 2616 2906 2266 
Q 2828 2175 2409 1742 
Q 1991 1309 1228 531 
z
" transform="scale(0.015625)"/>
       </defs>
       <use xlink:href="#DejaVuSans-13"/>
       <use xlink:href="#DejaVuSans-11" transform="translate(63.625 0)"/>
       <use xlink:href="#DejaVuSans-13" transform="translate(95.40625 0)"/>
       <use xlink:href="#DejaVuSans-13" transform="translate(159.03125 0)"/>
       <use xlink:href="#DejaVuSans-13" transform="translate(222.65625 0)"/>
       <use xlink:href="#DejaVuSans-13" transform="translate(286.28125 0)"/>
       <use xlink:href="#DejaVuSans-15" transform="translate(349.90625 0)"/>
      </g>
     </g>
    </g>
    <g id="xtick_3">
     <g id="line2d_3">
      <g>
       <use xlink:href="#m9884e99ba6" x="246.808925" y="241.599141" style="fill: #7f7f7f; stroke: #7f7f7f; stroke-width: 1.8"/>
      </g>
     </g>
     <g id="text_3">
      <!-- 0.00004 -->
      <g style="fill: #7f7f7f" transform="translate(226.132363 256.196797) scale(0.1 -0.1)">
       <defs>
        <path id="DejaVuSans-17" d="M 2419 4116 
L 825 1625 
L 2419 1625 
L 2419 4116 
z
M 2253 4666 
L 3047 4666 
L 3047 1625 
L 3713 1625 
L 3713 1100 
L 3047 1100 
L 3047 0 
L 2419 0 
L 2419 1100 
L 313 1100 
L 313 1709 
L 2253 4666 
z
" transform="scale(0.015625)"/>
       </defs>
       <use xlink:href="#DejaVuSans-13"/>
       <use xlink:href="#DejaVuSans-11" transform="translate(63.625 0)"/>
       <use xlink:href="#DejaVuSans-13" transform="translate(95.40625 0)"/>
       <use xlink:href="#DejaVuSans-13" transform="translate(159.03125 0)"/>
       <use xlink:href="#DejaVuSans-13" transform="translate(222.65625 0)"/>
       <use xlink:href="#DejaVuSans-13" transform="translate(286.28125 0)"/>
       <use xlink:href="#DejaVuSans-17" transform="translate(349.90625 0)"/>
      </g>
     </g>
    </g>
    <g id="xtick_4">
     <g id="line2d_4">
      <g>
       <use xlink:href="#m9884e99ba6" x="343.636435" y="241.599141" style="fill: #7f7f7f; stroke: #7f7f7f; stroke-width: 1.8"/>
      </g>
     </g>
     <g id="text_4">
      <!-- 0.00006 -->
      <g style="fill: #7f7f7f" transform="translate(322.959872 256.196797) scale(0.1 -0.1)">
       <defs>
        <path id="DejaVuSans-19" d="M 2113 2584 
Q 1688 2584 1439 2293 
Q 1191 2003 1191 1497 
Q 1191 994 1439 701 
Q 1688 409 2113 409 
Q 2538 409 2786 701 
Q 3034 994 3034 1497 
Q 3034 2003 2786 2293 
Q 2538 2584 2113 2584 
z
M 3366 4563 
L 3366 3988 
Q 3128 4100 2886 4159 
Q 2644 4219 2406 4219 
Q 1781 4219 1451 3797 
Q 1122 3375 1075 2522 
Q 1259 2794 1537 2939 
Q 1816 3084 2150 3084 
Q 2853 3084 3261 2657 
Q 3669 2231 3669 1497 
Q 3669 778 3244 343 
Q 2819 -91 2113 -91 
Q 1303 -91 875 529 
Q 447 1150 447 2328 
Q 447 3434 972 4092 
Q 1497 4750 2381 4750 
Q 2619 4750 2861 4703 
Q 3103 4656 3366 4563 
z
" transform="scale(0.015625)"/>
       </defs>
       <use xlink:href="#DejaVuSans-13"/>
       <use xlink:href="#DejaVuSans-11" transform="translate(63.625 0)"/>
       <use xlink:href="#DejaVuSans-13" transform="translate(95.40625 0)"/>
       <use xlink:href="#DejaVuSans-13" transform="translate(159.03125 0)"/>
       <use xlink:href="#DejaVuSans-13" transform="translate(222.65625 0)"/>
       <use xlink:href="#DejaVuSans-13" transform="translate(286.28125 0)"/>
       <use xlink:href="#DejaVuSans-19" transform="translate(349.90625 0)"/>
      </g>
     </g>
    </g>
    <g id="xtick_5">
     <g id="line2d_5">
      <g>
       <use xlink:href="#m9884e99ba6" x="440.463944" y="241.599141" style="fill: #7f7f7f; stroke: #7f7f7f; stroke-width: 1.8"/>
      </g>
     </g>
     <g id="text_5">
      <!-- 0.00008 -->
      <g style="fill: #7f7f7f" transform="translate(419.787382 256.196797) scale(0.1 -0.1)">
       <defs>
        <path id="DejaVuSans-1b" d="M 2034 2216 
Q 1584 2216 1326 1975 
Q 1069 1734 1069 1313 
Q 1069 891 1326 650 
Q 1584 409 2034 409 
Q 2484 409 2743 651 
Q 3003 894 3003 1313 
Q 3003 1734 2745 1975 
Q 2488 2216 2034 2216 
z
M 1403 2484 
Q 997 2584 770 2862 
Q 544 3141 544 3541 
Q 544 4100 942 4425 
Q 1341 4750 2034 4750 
Q 2731 4750 3128 4425 
Q 3525 4100 3525 3541 
Q 3525 3141 3298 2862 
Q 3072 2584 2669 2484 
Q 3125 2378 3379 2068 
Q 3634 1759 3634 1313 
Q 3634 634 3220 271 
Q 2806 -91 2034 -91 
Q 1263 -91 848 271 
Q 434 634 434 1313 
Q 434 1759 690 2068 
Q 947 2378 1403 2484 
z
M 1172 3481 
Q 1172 3119 1398 2916 
Q 1625 2713 2034 2713 
Q 2441 2713 2670 2916 
Q 2900 3119 2900 3481 
Q 2900 3844 2670 4047 
Q 2441 4250 2034 4250 
Q 1625 4250 1398 4047 
Q 1172 3844 1172 3481 
z
" transform="scale(0.015625)"/>
       </defs>
       <use xlink:href="#DejaVuSans-13"/>
       <use xlink:href="#DejaVuSans-11" transform="translate(63.625 0)"/>
       <use xlink:href="#DejaVuSans-13" transform="translate(95.40625 0)"/>
       <use xlink:href="#DejaVuSans-13" transform="translate(159.03125 0)"/>
       <use xlink:href="#DejaVuSans-13" transform="translate(222.65625 0)"/>
       <use xlink:href="#DejaVuSans-13" transform="translate(286.28125 0)"/>
       <use xlink:href="#DejaVuSans-1b" transform="translate(349.90625 0)"/>
      </g>
     </g>
    </g>
    <g id="xtick_6">
     <g id="line2d_6">
      <g>
       <use xlink:href="#m9884e99ba6" x="537.291454" y="241.599141" style="fill: #7f7f7f; stroke: #7f7f7f; stroke-width: 1.8"/>
      </g>
     </g>
     <g id="text_6">
      <!-- 0.00010 -->
      <g style="fill: #7f7f7f" transform="translate(516.614891 256.196797) scale(0.1 -0.1)">
       <defs>
        <path id="DejaVuSans-14" d="M 794 531 
L 1825 531 
L 1825 4091 
L 703 3866 
L 703 4441 
L 1819 4666 
L 2450 4666 
L 2450 531 
L 3481 531 
L 3481 0 
L 794 0 
L 794 531 
z
" transform="scale(0.015625)"/>
       </defs>
       <use xlink:href="#DejaVuSans-13"/>
       <use xlink:href="#DejaVuSans-11" transform="translate(63.625 0)"/>
       <use xlink:href="#DejaVuSans-13" transform="translate(95.40625 0)"/>
       <use xlink:href="#DejaVuSans-13" transform="translate(159.03125 0)"/>
       <use xlink:href="#DejaVuSans-13" transform="translate(222.65625 0)"/>
       <use xlink:href="#DejaVuSans-14" transform="translate(286.28125 0)"/>
       <use xlink:href="#DejaVuSans-13" transform="translate(349.90625 0)"/>
      </g>
     </g>
    </g>
    <g id="text_7">
     <!-- time [s] -->
     <g style="fill: #7f7f7f" transform="translate(273.940547 270.957422) scale(0.11 -0.11)">
      <defs>
       <path id="DejaVuSans-57" d="M 1172 4494 
L 1172 3500 
L 2356 3500 
L 2356 3053 
L 1172 3053 
L 1172 1153 
Q 1172 725 1289 603 
Q 1406 481 1766 481 
L 2356 481 
L 2356 0 
L 1766 0 
Q 1100 0 847 248 
Q 594 497 594 1153 
L 594 3053 
L 172 3053 
L 172 3500 
L 594 3500 
L 594 4494 
L 1172 4494 
z
" transform="scale(0.015625)"/>
       <path id="DejaVuSans-4c" d="M 603 3500 
L 1178 3500 
L 1178 0 
L 603 0 
L 603 3500 
z
M 603 4863 
L 1178 4863 
L 1178 4134 
L 603 4134 
L 603 4863 
z
" transform="scale(0.015625)"/>
       <path id="DejaVuSans-50" d="M 3328 2828 
Q 3544 3216 3844 3400 
Q 4144 3584 4550 3584 
Q 5097 3584 5394 3201 
Q 5691 2819 5691 2113 
L 5691 0 
L 5113 0 
L 5113 2094 
Q 5113 2597 4934 2840 
Q 4756 3084 4391 3084 
Q 3944 3084 3684 2787 
Q 3425 2491 3425 1978 
L 3425 0 
L 2847 0 
L 2847 2094 
Q 2847 2600 2669 2842 
Q 2491 3084 2119 3084 
Q 1678 3084 1418 2786 
Q 1159 2488 1159 1978 
L 1159 0 
L 581 0 
L 581 3500 
L 1159 3500 
L 1159 2956 
Q 1356 3278 1631 3431 
Q 1906 3584 2284 3584 
Q 2666 3584 2933 3390 
Q 3200 3197 3328 2828 
z
" transform="scale(0.015625)"/>
       <path id="DejaVuSans-48" d="M 3597 1894 
L 3597 1613 
L 953 1613 
Q 991 1019 1311 708 
Q 1631 397 2203 397 
Q 2534 397 2845 478 
Q 3156 559 3463 722 
L 3463 178 
Q 3153 47 2828 -22 
Q 2503 -91 2169 -91 
Q 1331 -91 842 396 
Q 353 884 353 1716 
Q 353 2575 817 3079 
Q 1281 3584 2069 3584 
Q 2775 3584 3186 3129 
Q 3597 2675 3597 1894 
z
M 3022 2063 
Q 3016 2534 2758 2815 
Q 2500 3097 2075 3097 
Q 1594 3097 1305 2825 
Q 1016 2553 972 2059 
L 3022 2063 
z
" transform="scale(0.015625)"/>
       <path id="DejaVuSans-3" transform="scale(0.015625)"/>
       <path id="DejaVuSans-3e" d="M 550 4863 
L 1875 4863 
L 1875 4416 
L 1125 4416 
L 1125 -397 
L 1875 -397 
L 1875 -844 
L 550 -844 
L 550 4863 
z
" transform="scale(0.015625)"/>
       <path id="DejaVuSans-56" d="M 2834 3397 
L 2834 2853 
Q 2591 2978 2328 3040 
Q 2066 3103 1784 3103 
Q 1356 3103 1142 2972 
Q 928 2841 928 2578 
Q 928 2378 1081 2264 
Q 1234 2150 1697 2047 
L 1894 2003 
Q 2506 1872 2764 1633 
Q 3022 1394 3022 966 
Q 3022 478 2636 193 
Q 2250 -91 1575 -91 
Q 1294 -91 989 -36 
Q 684 19 347 128 
L 347 722 
Q 666 556 975 473 
Q 1284 391 1588 391 
Q 1994 391 2212 530 
Q 2431 669 2431 922 
Q 2431 1156 2273 1281 
Q 2116 1406 1581 1522 
L 1381 1569 
Q 847 1681 609 1914 
Q 372 2147 372 2553 
Q 372 3047 722 3315 
Q 1072 3584 1716 3584 
Q 2034 3584 2315 3537 
Q 2597 3491 2834 3397 
z
" transform="scale(0.015625)"/>
       <path id="DejaVuSans-40" d="M 1947 4863 
L 1947 -844 
L 622 -844 
L 622 -397 
L 1369 -397 
L 1369 4416 
L 622 4416 
L 622 4863 
L 1947 4863 
z
" transform="scale(0.015625)"/>
      </defs>
      <use xlink:href="#DejaVuSans-57"/>
      <use xlink:href="#DejaVuSans-4c" transform="translate(39.203125 0)"/>
      <use xlink:href="#DejaVuSans-50" transform="translate(66.984375 0)"/>
      <use xlink:href="#DejaVuSans-48" transform="translate(164.390625 0)"/>
      <use xlink:href="#DejaVuSans-3" transform="translate(225.921875 0)"/>
      <use xlink:href="#DejaVuSans-3e" transform="translate(257.703125 0)"/>
      <use xlink:href="#DejaVuSans-56" transform="translate(296.71875 0)"/>
      <use xlink:href="#DejaVuSans-40" transform="translate(348.8125 0)"/>
     </g>
    </g>
   </g>
   <g id="matplotlib.axis_2">
    <g id="ytick_1">
     <g id="line2d_7">
      <defs>
       <path id="m25a508b8fa" d="M 0 0 
L -3.5 0 
" style="stroke: #7f7f7f; stroke-width: 1.8"/>
      </defs>
      <g>
       <use xlink:href="#m25a508b8fa" x="28.942188" y="228.824034" style="fill: #7f7f7f; stroke: #7f7f7f; stroke-width: 1.8"/>
      </g>
     </g>
     <g id="text_8">
      <!-- −8 -->
      <g style="fill: #7f7f7f" transform="translate(7.2 232.622862) scale(0.1 -0.1)">
       <defs>
        <path id="DejaVuSans-c9c" d="M 678 2272 
L 4684 2272 
L 4684 1741 
L 678 1741 
L 678 2272 
z
" transform="scale(0.015625)"/>
       </defs>
       <use xlink:href="#DejaVuSans-c9c"/>
       <use xlink:href="#DejaVuSans-1b" transform="translate(83.796875 0)"/>
      </g>
     </g>
    </g>
    <g id="ytick_2">
     <g id="line2d_8">
      <g>
       <use xlink:href="#m25a508b8fa" x="28.942188" y="202.226179" style="fill: #7f7f7f; stroke: #7f7f7f; stroke-width: 1.8"/>
      </g>
     </g>
     <g id="text_9">
      <!-- −6 -->
      <g style="fill: #7f7f7f" transform="translate(7.2 206.025007) scale(0.1 -0.1)">
       <use xlink:href="#DejaVuSans-c9c"/>
       <use xlink:href="#DejaVuSans-19" transform="translate(83.796875 0)"/>
      </g>
     </g>
    </g>
    <g id="ytick_3">
     <g id="line2d_9">
      <g>
       <use xlink:href="#m25a508b8fa" x="28.942188" y="175.628324" style="fill: #7f7f7f; stroke: #7f7f7f; stroke-width: 1.8"/>
      </g>
     </g>
     <g id="text_10">
      <!-- −4 -->
      <g style="fill: #7f7f7f" transform="translate(7.2 179.427152) scale(0.1 -0.1)">
       <use xlink:href="#DejaVuSans-c9c"/>
       <use xlink:href="#DejaVuSans-17" transform="translate(83.796875 0)"/>
      </g>
     </g>
    </g>
    <g id="ytick_4">
     <g id="line2d_10">
      <g>
       <use xlink:href="#m25a508b8fa" x="28.942188" y="149.030469" style="fill: #7f7f7f; stroke: #7f7f7f; stroke-width: 1.8"/>
      </g>
     </g>
     <g id="text_11">
      <!-- −2 -->
      <g style="fill: #7f7f7f" transform="translate(7.2 152.829297) scale(0.1 -0.1)">
       <use xlink:href="#DejaVuSans-c9c"/>
       <use xlink:href="#DejaVuSans-15" transform="translate(83.796875 0)"/>
      </g>
     </g>
    </g>
    <g id="ytick_5">
     <g id="line2d_11">
      <g>
       <use xlink:href="#m25a508b8fa" x="28.942188" y="122.432614" style="fill: #7f7f7f; stroke: #7f7f7f; stroke-width: 1.8"/>
      </g>
     </g>
     <g id="text_12">
      <!-- 0 -->
      <g style="fill: #7f7f7f" transform="translate(15.579688 126.231442) scale(0.1 -0.1)">
       <use xlink:href="#DejaVuSans-13"/>
      </g>
     </g>
    </g>
    <g id="ytick_6">
     <g id="line2d_12">
      <g>
       <use xlink:href="#m25a508b8fa" x="28.942188" y="95.834758" style="fill: #7f7f7f; stroke: #7f7f7f; stroke-width: 1.8"/>
      </g>
     </g>
     <g id="text_13">
      <!-- 2 -->
      <g style="fill: #7f7f7f" transform="translate(15.579688 99.633587) scale(0.1 -0.1)">
       <use xlink:href="#DejaVuSans-15"/>
      </g>
     </g>
    </g>
    <g id="ytick_7">
     <g id="line2d_13">
      <g>
       <use xlink:href="#m25a508b8fa" x="28.942188" y="69.236903" style="fill: #7f7f7f; stroke: #7f7f7f; stroke-width: 1.8"/>
      </g>
     </g>
     <g id="text_14">
      <!-- 4 -->
      <g style="fill: #7f7f7f" transform="translate(15.579688 73.035731) scale(0.1 -0.1)">
       <use xlink:href="#DejaVuSans-17"/>
      </g>
     </g>
    </g>
    <g id="ytick_8">
     <g id="line2d_14">
      <g>
       <use xlink:href="#m25a508b8fa" x="28.942188" y="42.639048" style="fill: #7f7f7f; stroke: #7f7f7f; stroke-width: 1.8"/>
      </g>
     </g>
     <g id="text_15">
      <!-- 6 -->
      <g style="fill: #7f7f7f" transform="translate(15.579688 46.437876) scale(0.1 -0.1)">
       <use xlink:href="#DejaVuSans-19"/>
      </g>
     </g>
    </g>
    <g id="ytick_9">
     <g id="line2d_15">
      <g>
       <use xlink:href="#m25a508b8fa" x="28.942188" y="16.041193" style="fill: #7f7f7f; stroke: #7f7f7f; stroke-width: 1.8"/>
      </g>
     </g>
     <g id="text_16">
      <!-- 8 -->
      <g style="fill: #7f7f7f" transform="translate(15.579688 19.840021) scale(0.1 -0.1)">
       <use xlink:href="#DejaVuSans-1b"/>
      </g>
     </g>
    </g>
   </g>
   <g id="line2d_16">
    <path d="M 53.153906 122.432614 
L 57.656385 110.194517 
L 59.544522 109.185105 
L 61.142176 110.778675 
L 63.611277 116.921863 
L 70.437617 135.392776 
L 72.035271 135.495981 
L 73.778166 133.092595 
L 76.682991 124.760233 
L 82.056918 109.94846 
L 83.945054 109.260539 
L 85.542708 111.1153 
L 88.157051 118.006471 
L 94.402425 135.179925 
L 96.14532 135.554478 
L 97.888216 133.28905 
L 100.793041 125.088542 
L 106.312209 109.891851 
L 108.200345 109.284606 
L 109.797999 111.203958 
L 112.412342 118.164408 
L 118.512475 135.080645 
L 120.25537 135.604688 
L 121.853024 133.749928 
L 124.467367 126.858757 
L 130.712741 109.685302 
L 132.455637 109.310749 
L 134.198532 111.576177 
L 137.103357 119.776685 
L 142.622525 134.973376 
L 144.510661 135.580621 
L 146.108315 133.661269 
L 148.722658 126.700819 
L 154.822791 109.784582 
L 156.565686 109.260539 
L 158.16334 111.1153 
L 160.777683 118.006471 
L 167.023057 135.179925 
L 168.765953 135.554478 
L 170.508848 133.28905 
L 173.413673 125.088542 
L 178.932841 109.891851 
L 180.820978 109.284606 
L 182.418631 111.203958 
L 185.032974 118.164408 
L 191.133107 135.080645 
L 192.876002 135.604688 
L 194.473656 133.749928 
L 197.087999 126.858757 
L 203.333373 109.685302 
L 205.076269 109.310749 
L 206.819164 111.576177 
L 209.723989 119.776685 
L 215.243157 134.973376 
L 217.131294 135.580621 
L 218.728947 133.661269 
L 221.34329 126.700819 
L 227.443423 109.784582 
L 229.186319 109.260539 
L 230.783972 111.1153 
L 233.398315 118.006471 
L 239.64369 135.179925 
L 241.386585 135.554478 
L 243.12948 133.28905 
L 246.034305 125.088542 
L 251.553473 109.891851 
L 253.44161 109.284606 
L 255.039264 111.203958 
L 257.653606 118.164408 
L 263.753739 135.080645 
L 265.496635 135.604688 
L 267.094288 133.749928 
L 269.708631 126.858757 
L 275.954006 109.685302 
L 277.696901 109.310749 
L 279.439796 111.576177 
L 282.344621 119.776685 
L 287.863789 134.973376 
L 289.751926 135.580621 
L 291.34958 133.661269 
L 293.963922 126.700819 
L 300.064055 109.784582 
L 301.806951 109.260539 
L 303.404605 111.1153 
L 306.018947 118.006471 
L 312.264322 135.179925 
L 314.007217 135.554478 
L 315.750112 133.28905 
L 318.654937 125.088542 
L 324.174105 109.891851 
L 326.062242 109.284606 
L 327.659896 111.203958 
L 330.274238 118.164408 
L 336.374372 135.080645 
L 338.117267 135.604688 
L 339.714921 133.749928 
L 342.329263 126.858757 
L 348.574638 109.685302 
L 350.317533 109.310749 
L 352.060428 111.576177 
L 354.965253 119.776685 
L 360.484421 134.973376 
L 362.372558 135.580621 
L 363.970212 133.661269 
L 366.584554 126.700819 
L 372.684688 109.784582 
L 374.427583 109.260539 
L 376.025237 111.1153 
L 378.639579 118.006471 
L 384.884954 135.179925 
L 386.627849 135.554478 
L 388.370744 133.28905 
L 391.275569 125.088542 
L 396.794737 109.891851 
L 398.682874 109.284606 
L 400.280528 111.203958 
L 402.894871 118.164408 
L 408.995004 135.080645 
L 410.737899 135.604688 
L 412.335553 133.749928 
L 414.949895 126.858757 
L 421.19527 109.685302 
L 422.938165 109.310749 
L 424.68106 111.576177 
L 427.585885 119.776685 
L 433.105054 134.973376 
L 434.99319 135.580621 
L 436.590844 133.661269 
L 439.205187 126.700819 
L 445.30532 109.784582 
L 447.048215 109.260539 
L 448.645869 111.1153 
L 451.260212 118.006471 
L 457.505586 135.179925 
L 459.248481 135.554478 
L 460.991376 133.28905 
L 463.896202 125.088542 
L 469.41537 109.891851 
L 471.303506 109.284606 
L 472.90116 111.203958 
L 475.515503 118.164408 
L 481.615636 135.080645 
L 483.358531 135.604688 
L 484.956185 133.749928 
L 487.570528 126.858757 
L 493.815902 109.685302 
L 495.558797 109.310749 
L 497.301692 111.576177 
L 500.206518 119.776685 
L 505.725686 134.973376 
L 507.613822 135.580621 
L 509.211476 133.661269 
L 511.825819 126.700819 
L 517.925952 109.784582 
L 519.668847 109.260539 
L 521.266501 111.1153 
L 523.880844 118.006471 
L 530.126218 135.179925 
L 531.869113 135.554478 
L 533.612008 133.28905 
L 536.516834 125.088542 
L 537.388281 122.09841 
L 537.388281 122.09841 
" clip-path="url(#p08e80dc807)" style="fill: none; stroke: #e41a1c; stroke-width: 2; stroke-linecap: square"/>
   </g>
   <g id="line2d_17">
    <path d="M 53.153906 122.432614 
L 54.896801 116.237063 
L 55.91349 88.365204 
L 58.23735 34.642394 
L 61.432658 24.540278 
L 61.723141 25.736973 
L 63.611277 53.508216 
L 65.208931 105.764983 
L 69.420928 205.449612 
L 71.599547 222.912893 
L 72.180512 222.841765 
L 72.616236 222.977174 
L 72.906718 222.636424 
L 73.487683 218.609322 
L 77.409197 164.490406 
L 79.297334 100.417122 
L 81.475953 48.893351 
L 83.945054 27.538113 
L 84.526019 25.652259 
L 84.961743 26.604287 
L 86.414156 28.413563 
L 87.866568 41.051519 
L 89.318981 74.456744 
L 93.095254 184.959414 
L 94.838149 209.954107 
L 95.854838 220.264617 
L 96.435803 219.544839 
L 97.162009 218.165506 
L 98.469181 209.734829 
L 100.938282 180.491697 
L 102.100212 147.076114 
L 105.150279 52.926132 
L 107.183657 21.428757 
L 107.328898 21.624875 
L 107.764622 22.878408 
L 112.267101 51.036194 
L 114.881444 121.85239 
L 117.641028 189.954886 
L 120.981577 223.562225 
L 121.4173 223.808795 
L 121.562542 223.527778 
L 123.595919 206.027327 
L 124.903091 183.450773 
L 131.293706 34.199594 
L 131.438948 34.413215 
L 131.874671 35.130683 
L 132.165154 34.267285 
L 133.762808 26.780619 
L 134.05329 28.004817 
L 137.974805 83.321483 
L 139.281976 134.506289 
L 141.605836 189.408746 
L 144.510661 224.742949 
L 147.415487 216.44124 
L 149.739347 160.931226 
L 154.532309 39.564885 
L 157.582375 22.034418 
L 157.727617 22.106923 
L 158.453823 24.327596 
L 160.777683 50.615966 
L 165.570645 182.832515 
L 169.056435 227.445409 
L 169.782641 224.655668 
L 170.508848 221.975364 
L 171.089813 217.852981 
L 174.285121 159.249769 
L 178.642359 36.679828 
L 179.513806 30.383551 
L 181.547184 17.862741 
L 181.837666 18.054391 
L 182.563873 20.437698 
L 183.871044 37.181565 
L 193.021244 229.701823 
L 193.892691 230.930359 
L 194.183174 229.609226 
L 195.199863 222.212748 
L 199.121377 140.330365 
L 202.89765 42.838813 
L 204.931027 22.598051 
L 205.22151 22.148584 
L 205.511992 23.043518 
L 206.964405 32.628157 
L 208.7073 56.491601 
L 217.567017 225.716997 
L 218.147982 225.963566 
L 218.293224 225.209336 
L 221.198049 188.837452 
L 225.264804 75.561256 
L 227.443423 32.853109 
L 229.041077 20.389847 
L 229.476801 21.699445 
L 230.057766 25.047911 
L 233.834039 58.606862 
L 240.660378 221.560216 
L 242.258032 224.932331 
L 242.548515 224.81262 
L 242.984239 221.729004 
L 246.760511 167.286522 
L 253.44161 24.58129 
L 253.732092 23.674184 
L 254.167816 25.102271 
L 255.910711 33.738477 
L 258.525054 75.962768 
L 263.753739 208.943445 
L 265.496635 226.005309 
L 265.932358 225.474329 
L 266.949047 224.964337 
L 267.820495 215.351297 
L 271.306285 154.548963 
L 275.663523 34.431686 
L 277.55166 22.904443 
L 279.294555 26.035926 
L 281.03745 34.141045 
L 282.054139 54.163967 
L 289.316202 222.134083 
L 289.897167 224.722341 
L 290.332891 222.84214 
L 294.254405 191.81086 
L 295.561576 159.273968 
L 299.48309 45.995384 
L 301.516468 25.29913 
L 302.097433 24.561834 
L 303.404605 22.837161 
L 303.549846 23.074526 
L 305.002258 34.177898 
L 306.30943 56.74633 
L 312.990528 220.9845 
L 313.861976 225.656831 
L 314.152458 224.115701 
L 315.169147 217.434865 
L 315.459629 218.098979 
L 315.895353 219.180414 
L 316.331077 217.466158 
L 317.202525 205.767471 
L 320.688315 120.137518 
L 323.302658 41.790402 
L 325.190794 25.596161 
L 326.207483 27.172117 
L 326.933689 25.310954 
L 327.514654 23.492546 
L 327.950378 24.600979 
L 328.821826 34.97322 
L 331.290927 80.355195 
L 338.117267 226.929233 
L 338.407749 225.766492 
L 339.424438 216.937145 
L 340.295886 217.886504 
L 340.876851 218.493039 
L 341.312575 215.068698 
L 343.345952 172.848694 
L 345.669812 93.377277 
L 349.155603 22.683748 
L 349.736568 20.336408 
L 350.172292 22.489743 
L 353.222358 36.948192 
L 356.998631 128.78984 
L 360.048698 204.610315 
L 362.372558 223.988848 
L 362.517799 224.262168 
L 363.098764 223.613365 
L 365.132142 208.640878 
L 368.182208 156.912554 
L 373.265653 24.804031 
L 375.153789 19.02523 
L 375.29903 19.540739 
L 377.622891 41.313029 
L 379.946751 88.276988 
L 384.303989 209.573509 
L 386.046884 222.294858 
L 386.77309 221.820684 
L 386.918331 222.248508 
L 387.208814 220.907672 
L 389.968398 196.452916 
L 391.711293 167.195541 
L 396.068531 38.901944 
L 398.101909 22.758438 
L 398.828115 21.437797 
L 399.40908 21.22644 
L 399.554321 21.424947 
L 401.73294 32.110479 
L 405.218731 118.348063 
L 409.140245 218.433147 
L 410.592658 226.458469 
L 411.028381 226.67327 
L 411.318864 226.199622 
L 412.771277 221.716586 
L 415.530861 187.697247 
L 421.921476 31.031482 
L 423.809613 20.491603 
L 424.100095 20.960314 
L 425.262025 28.295286 
L 426.423955 44.327723 
L 429.619263 137.785017 
L 432.378847 197.977997 
L 435.283672 226.251332 
L 435.864638 225.079867 
L 436.15512 225.934803 
L 436.736085 227.455266 
L 437.026568 225.788303 
L 439.64091 191.540752 
L 445.014837 33.615265 
L 446.46725 25.101082 
L 447.774421 25.479707 
L 448.645869 27.542723 
L 451.841177 71.649341 
L 455.907932 185.798999 
L 458.231792 226.276564 
L 458.667516 227.613971 
L 459.248481 226.275634 
L 459.829446 226.496882 
L 459.974687 226.093274 
L 462.58903 206.954362 
L 465.348614 143.871762 
L 467.962957 72.576392 
L 470.722541 33.026437 
L 471.158265 32.334911 
L 472.90116 25.28872 
L 473.336884 26.445385 
L 473.772608 28.026263 
L 475.515503 49.065153 
L 477.258398 100.914456 
L 480.744188 199.048747 
L 482.632325 218.706777 
L 483.21329 220.867816 
L 483.794255 219.760138 
L 484.229979 220.485059 
L 485.101426 222.169348 
L 485.391909 221.816094 
L 486.408597 216.603272 
L 488.296734 184.007361 
L 493.525419 38.539806 
L 495.123073 24.579742 
L 496.430245 20.430549 
L 496.575486 21.088028 
L 499.480311 42.930513 
L 506.451892 217.45829 
L 508.630511 226.68502 
L 509.066235 224.177244 
L 510.954371 213.762363 
L 511.825819 198.431195 
L 518.216434 33.06778 
L 518.797399 33.803292 
L 519.233123 32.838498 
L 520.976018 25.50395 
L 521.266501 24.8516 
L 521.556983 26.4155 
L 522.573672 39.267373 
L 530.997666 222.008745 
L 532.304837 229.463863 
L 532.59532 227.696447 
L 535.935869 189.175369 
L 537.388281 163.738027 
L 537.388281 163.738027 
" clip-path="url(#p08e80dc807)" style="fill: none; stroke: #377eb8; stroke-width: 2; stroke-linecap: square"/>
   </g>
   <g id="patch_3">
    <path d="M 28.942188 241.599141 
L 28.942188 7.2 
" style="fill: none; stroke: #7f7f7f; stroke-width: 1.8; stroke-linejoin: miter; stroke-linecap: square"/>
   </g>
   <g id="patch_4">
    <path d="M 28.942188 241.599141 
L 561.6 241.599141 
" style="fill: none; stroke: #7f7f7f; stroke-width: 1.8; stroke-linejoin: miter; stroke-linecap: square"/>
   </g>
   <g id="legend_1">
    <g id="line2d_18">
     <path d="M 503.101562 20.298438 
L 513.101562 20.298438 
L 523.101562 20.298438 
" style="fill: none; stroke: #e41a1c; stroke-width: 2; stroke-linecap: square"/>
    </g>
    <g id="text_17">
     <!-- Src -->
     <g style="fill: #7f7f7f" transform="translate(531.101562 23.798438) scale(0.1 -0.1)">
      <defs>
       <path id="DejaVuSans-36" d="M 3425 4513 
L 3425 3897 
Q 3066 4069 2747 4153 
Q 2428 4238 2131 4238 
Q 1616 4238 1336 4038 
Q 1056 3838 1056 3469 
Q 1056 3159 1242 3001 
Q 1428 2844 1947 2747 
L 2328 2669 
Q 3034 2534 3370 2195 
Q 3706 1856 3706 1288 
Q 3706 609 3251 259 
Q 2797 -91 1919 -91 
Q 1588 -91 1214 -16 
Q 841 59 441 206 
L 441 856 
Q 825 641 1194 531 
Q 1563 422 1919 422 
Q 2459 422 2753 634 
Q 3047 847 3047 1241 
Q 3047 1584 2836 1778 
Q 2625 1972 2144 2069 
L 1759 2144 
Q 1053 2284 737 2584 
Q 422 2884 422 3419 
Q 422 4038 858 4394 
Q 1294 4750 2059 4750 
Q 2388 4750 2728 4690 
Q 3069 4631 3425 4513 
z
" transform="scale(0.015625)"/>
       <path id="DejaVuSans-55" d="M 2631 2963 
Q 2534 3019 2420 3045 
Q 2306 3072 2169 3072 
Q 1681 3072 1420 2755 
Q 1159 2438 1159 1844 
L 1159 0 
L 581 0 
L 581 3500 
L 1159 3500 
L 1159 2956 
Q 1341 3275 1631 3429 
Q 1922 3584 2338 3584 
Q 2397 3584 2469 3576 
Q 2541 3569 2628 3553 
L 2631 2963 
z
" transform="scale(0.015625)"/>
       <path id="DejaVuSans-46" d="M 3122 3366 
L 3122 2828 
Q 2878 2963 2633 3030 
Q 2388 3097 2138 3097 
Q 1578 3097 1268 2742 
Q 959 2388 959 1747 
Q 959 1106 1268 751 
Q 1578 397 2138 397 
Q 2388 397 2633 464 
Q 2878 531 3122 666 
L 3122 134 
Q 2881 22 2623 -34 
Q 2366 -91 2075 -91 
Q 1284 -91 818 406 
Q 353 903 353 1747 
Q 353 2603 823 3093 
Q 1294 3584 2113 3584 
Q 2378 3584 2631 3529 
Q 2884 3475 3122 3366 
z
" transform="scale(0.015625)"/>
      </defs>
      <use xlink:href="#DejaVuSans-36"/>
      <use xlink:href="#DejaVuSans-55" transform="translate(63.484375 0)"/>
      <use xlink:href="#DejaVuSans-46" transform="translate(102.390625 0)"/>
     </g>
    </g>
    <g id="line2d_19">
     <path d="M 503.101562 35.299219 
L 513.101562 35.299219 
L 523.101562 35.299219 
" style="fill: none; stroke: #377eb8; stroke-width: 2; stroke-linecap: square"/>
    </g>
    <g id="text_18">
     <!-- AMP -->
     <g style="fill: #7f7f7f" transform="translate(531.101562 38.799219) scale(0.1 -0.1)">
      <defs>
       <path id="DejaVuSans-24" d="M 2188 4044 
L 1331 1722 
L 3047 1722 
L 2188 4044 
z
M 1831 4666 
L 2547 4666 
L 4325 0 
L 3669 0 
L 3244 1197 
L 1141 1197 
L 716 0 
L 50 0 
L 1831 4666 
z
" transform="scale(0.015625)"/>
       <path id="DejaVuSans-30" d="M 628 4666 
L 1569 4666 
L 2759 1491 
L 3956 4666 
L 4897 4666 
L 4897 0 
L 4281 0 
L 4281 4097 
L 3078 897 
L 2444 897 
L 1241 4097 
L 1241 0 
L 628 0 
L 628 4666 
z
" transform="scale(0.015625)"/>
       <path id="DejaVuSans-33" d="M 1259 4147 
L 1259 2394 
L 2053 2394 
Q 2494 2394 2734 2622 
Q 2975 2850 2975 3272 
Q 2975 3691 2734 3919 
Q 2494 4147 2053 4147 
L 1259 4147 
z
M 628 4666 
L 2053 4666 
Q 2838 4666 3239 4311 
Q 3641 3956 3641 3272 
Q 3641 2581 3239 2228 
Q 2838 1875 2053 1875 
L 1259 1875 
L 1259 0 
L 628 0 
L 628 4666 
z
" transform="scale(0.015625)"/>
      </defs>
      <use xlink:href="#DejaVuSans-24"/>
      <use xlink:href="#DejaVuSans-30" transform="translate(68.40625 0)"/>
      <use xlink:href="#DejaVuSans-33" transform="translate(154.6875 0)"/>
     </g>
    </g>
   </g>
  </g>
 </g>
 <defs>
  <clipPath id="p08e80dc807">
   <rect x="28.942188" y="7.2" width="532.657812" height="234.399141"/>
  </clipPath>
 </defs>
</svg>
