<?xml version="1.0" encoding="utf-8" standalone="no"?>
<!DOCTYPE svg PUBLIC "-//W3C//DTD SVG 1.1//EN"
  "http://www.w3.org/Graphics/SVG/1.1/DTD/svg11.dtd">
<svg xmlns:xlink="http://www.w3.org/1999/xlink" width="568.8pt" height="280.8pt" viewBox="0 0 568.8 280.8" xmlns="http://www.w3.org/2000/svg" version="1.1">
 <metadata>
  <rdf:RDF xmlns:dc="http://purl.org/dc/elements/1.1/" xmlns:cc="http://creativecommons.org/ns#" xmlns:rdf="http://www.w3.org/1999/02/22-rdf-syntax-ns#">
   <cc:Work>
    <dc:type rdf:resource="http://purl.org/dc/dcmitype/StillImage"/>
    <dc:date>2026-07-06T15:36:20.708900</dc:date>
    <dc:format>image/svg+xml</dc:format>
    <dc:creator>
     <cc:Agent>
      <dc:title>Matplotlib v3.11.0, https://matplotlib.org/</dc:title>
     </cc:Agent>
    </dc:creator>
   </cc:Work>
  </rdf:RDF>
 </metadata>
 <defs>
  <style type="text/css">*{stroke-linejoin: round; stroke-linecap: butt}</style>
 </defs>
 <g id="figure_1">
  <g id="patch_1">
   <path d="M 0 280.8 
L 568.8 280.8 
L 568.8 0 
L 0 0 
L 0 280.8 
z
" style="fill: none"/>
  </g>
  <g id="axes_1">
   <g id="patch_2">
    <path d="M 38.482813 241.599141 
L 561.6 241.599141 
L 561.6 7.2 
L 38.482813 7.2 
L 38.482813 241.599141 
z
" style="fill: none"/>
   </g>
   <g id="matplotlib.axis_1">
    <g id="xtick_1">
     <g id="line2d_1">
      <path d="M 62.260866 241.599141 
L 62.260866 7.2 
" clip-path="url(#p1d622b85a0)" style="fill: none; stroke-dasharray: 2.96,1.28; stroke-dashoffset: 0; stroke: #7f7f7f; stroke-opacity: 0.6; stroke-width: 0.8"/>
     </g>
     <g id="line2d_2">
      <defs>
       <path id="m3ff9901d0c" d="M 0 0 
L 0 3.5 
" style="stroke: #7f7f7f; stroke-width: 1.8"/>
      </defs>
      <g>
       <use xlink:href="#m3ff9901d0c" x="62.260866" y="241.599141" style="fill: #7f7f7f; stroke: #7f7f7f; stroke-width: 1.8"/>
      </g>
     </g>
     <g id="text_1">
      <!-- 0 -->
      <g style="fill: #7f7f7f" transform="translate(59.079616 256.196797) scale(0.1 -0.1)">
       <defs>
        <path id="DejaVuSans-13" d="M 2034 4250 
Q 1547 4250 1301 3770 
Q 1056 3291 1056 2328 
Q 1056 1369 1301 889 
Q 1547 409 2034 409 
Q 2525 409 2770 889 
Q 3016 1369 3016 2328 
Q 3016 3291 2770 3770 
Q 2525 4250 2034 4250 
z
M 2034 4750 
Q 2819 4750 3233 4129 
Q 3647 3509 3647 2328 
Q 3647 1150 3233 529 
Q 2819 -91 2034 -91 
Q 1250 -91 836 529 
Q 422 1150 422 2328 
Q 422 3509 836 4129 
Q 1250 4750 2034 4750 
z
" transform="scale(0.015625)"/>
       </defs>
       <use xlink:href="#DejaVuSans-13"/>
      </g>
     </g>
    </g>
    <g id="xtick_2">
     <g id="line2d_3">
      <path d="M 157.373082 241.599141 
L 157.373082 7.2 
" clip-path="url(#p1d622b85a0)" style="fill: none; stroke-dasharray: 2.96,1.28; stroke-dashoffset: 0; stroke: #7f7f7f; stroke-opacity: 0.6; stroke-width: 0.8"/>
     </g>
     <g id="line2d_4">
      <g>
       <use xlink:href="#m3ff9901d0c" x="157.373082" y="241.599141" style="fill: #7f7f7f; stroke: #7f7f7f; stroke-width: 1.8"/>
      </g>
     </g>
     <g id="text_2">
      <!-- 20 -->
      <g style="fill: #7f7f7f" transform="translate(151.010582 256.196797) scale(0.1 -0.1)">
       <defs>
        <path id="DejaVuSans-15" d="M 1228 531 
L 3431 531 
L 3431 0 
L 469 0 
L 469 531 
Q 828 903 1448 1529 
Q 2069 2156 2228 2338 
Q 2531 2678 2651 2914 
Q 2772 3150 2772 3378 
Q 2772 3750 2511 3984 
Q 2250 4219 1831 4219 
Q 1534 4219 1204 4116 
Q 875 4013 500 3803 
L 500 4441 
Q 881 4594 1212 4672 
Q 1544 4750 1819 4750 
Q 2544 4750 2975 4387 
Q 3406 4025 3406 3419 
Q 3406 3131 3298 2873 
Q 3191 2616 2906 2266 
Q 2828 2175 2409 1742 
Q 1991 1309 1228 531 
z
" transform="scale(0.015625)"/>
       </defs>
       <use xlink:href="#DejaVuSans-15"/>
       <use xlink:href="#DejaVuSans-13" transform="translate(63.625 0)"/>
      </g>
     </g>
    </g>
    <g id="xtick_3">
     <g id="line2d_5">
      <path d="M 252.485298 241.599141 
L 252.485298 7.2 
" clip-path="url(#p1d622b85a0)" style="fill: none; stroke-dasharray: 2.96,1.28; stroke-dashoffset: 0; stroke: #7f7f7f; stroke-opacity: 0.6; stroke-width: 0.8"/>
     </g>
     <g id="line2d_6">
      <g>
       <use xlink:href="#m3ff9901d0c" x="252.485298" y="241.599141" style="fill: #7f7f7f; stroke: #7f7f7f; stroke-width: 1.8"/>
      </g>
     </g>
     <g id="text_3">
      <!-- 40 -->
      <g style="fill: #7f7f7f" transform="translate(246.122798 256.196797) scale(0.1 -0.1)">
       <defs>
        <path id="DejaVuSans-17" d="M 2419 4116 
L 825 1625 
L 2419 1625 
L 2419 4116 
z
M 2253 4666 
L 3047 4666 
L 3047 1625 
L 3713 1625 
L 3713 1100 
L 3047 1100 
L 3047 0 
L 2419 0 
L 2419 1100 
L 313 1100 
L 313 1709 
L 2253 4666 
z
" transform="scale(0.015625)"/>
       </defs>
       <use xlink:href="#DejaVuSans-17"/>
       <use xlink:href="#DejaVuSans-13" transform="translate(63.625 0)"/>
      </g>
     </g>
    </g>
    <g id="xtick_4">
     <g id="line2d_7">
      <path d="M 347.597514 241.599141 
L 347.597514 7.2 
" clip-path="url(#p1d622b85a0)" style="fill: none; stroke-dasharray: 2.96,1.28; stroke-dashoffset: 0; stroke: #7f7f7f; stroke-opacity: 0.6; stroke-width: 0.8"/>
     </g>
     <g id="line2d_8">
      <g>
       <use xlink:href="#m3ff9901d0c" x="347.597514" y="241.599141" style="fill: #7f7f7f; stroke: #7f7f7f; stroke-width: 1.8"/>
      </g>
     </g>
     <g id="text_4">
      <!-- 60 -->
      <g style="fill: #7f7f7f" transform="translate(341.235014 256.196797) scale(0.1 -0.1)">
       <defs>
        <path id="DejaVuSans-19" d="M 2113 2584 
Q 1688 2584 1439 2293 
Q 1191 2003 1191 1497 
Q 1191 994 1439 701 
Q 1688 409 2113 409 
Q 2538 409 2786 701 
Q 3034 994 3034 1497 
Q 3034 2003 2786 2293 
Q 2538 2584 2113 2584 
z
M 3366 4563 
L 3366 3988 
Q 3128 4100 2886 4159 
Q 2644 4219 2406 4219 
Q 1781 4219 1451 3797 
Q 1122 3375 1075 2522 
Q 1259 2794 1537 2939 
Q 1816 3084 2150 3084 
Q 2853 3084 3261 2657 
Q 3669 2231 3669 1497 
Q 3669 778 3244 343 
Q 2819 -91 2113 -91 
Q 1303 -91 875 529 
Q 447 1150 447 2328 
Q 447 3434 972 4092 
Q 1497 4750 2381 4750 
Q 2619 4750 2861 4703 
Q 3103 4656 3366 4563 
z
" transform="scale(0.015625)"/>
       </defs>
       <use xlink:href="#DejaVuSans-19"/>
       <use xlink:href="#DejaVuSans-13" transform="translate(63.625 0)"/>
      </g>
     </g>
    </g>
    <g id="xtick_5">
     <g id="line2d_9">
      <path d="M 442.70973 241.599141 
L 442.70973 7.2 
" clip-path="url(#p1d622b85a0)" style="fill: none; stroke-dasharray: 2.96,1.28; stroke-dashoffset: 0; stroke: #7f7f7f; stroke-opacity: 0.6; stroke-width: 0.8"/>
     </g>
     <g id="line2d_10">
      <g>
       <use xlink:href="#m3ff9901d0c" x="442.70973" y="241.599141" style="fill: #7f7f7f; stroke: #7f7f7f; stroke-width: 1.8"/>
      </g>
     </g>
     <g id="text_5">
      <!-- 80 -->
      <g style="fill: #7f7f7f" transform="translate(436.34723 256.196797) scale(0.1 -0.1)">
       <defs>
        <path id="DejaVuSans-1b" d="M 2034 2216 
Q 1584 2216 1326 1975 
Q 1069 1734 1069 1313 
Q 1069 891 1326 650 
Q 1584 409 2034 409 
Q 2484 409 2743 651 
Q 3003 894 3003 1313 
Q 3003 1734 2745 1975 
Q 2488 2216 2034 2216 
z
M 1403 2484 
Q 997 2584 770 2862 
Q 544 3141 544 3541 
Q 544 4100 942 4425 
Q 1341 4750 2034 4750 
Q 2731 4750 3128 4425 
Q 3525 4100 3525 3541 
Q 3525 3141 3298 2862 
Q 3072 2584 2669 2484 
Q 3125 2378 3379 2068 
Q 3634 1759 3634 1313 
Q 3634 634 3220 271 
Q 2806 -91 2034 -91 
Q 1263 -91 848 271 
Q 434 634 434 1313 
Q 434 1759 690 2068 
Q 947 2378 1403 2484 
z
M 1172 3481 
Q 1172 3119 1398 2916 
Q 1625 2713 2034 2713 
Q 2441 2713 2670 2916 
Q 2900 3119 2900 3481 
Q 2900 3844 2670 4047 
Q 2441 4250 2034 4250 
Q 1625 4250 1398 4047 
Q 1172 3844 1172 3481 
z
" transform="scale(0.015625)"/>
       </defs>
       <use xlink:href="#DejaVuSans-1b"/>
       <use xlink:href="#DejaVuSans-13" transform="translate(63.625 0)"/>
      </g>
     </g>
    </g>
    <g id="xtick_6">
     <g id="line2d_11">
      <path d="M 537.821946 241.599141 
L 537.821946 7.2 
" clip-path="url(#p1d622b85a0)" style="fill: none; stroke-dasharray: 2.96,1.28; stroke-dashoffset: 0; stroke: #7f7f7f; stroke-opacity: 0.6; stroke-width: 0.8"/>
     </g>
     <g id="line2d_12">
      <g>
       <use xlink:href="#m3ff9901d0c" x="537.821946" y="241.599141" style="fill: #7f7f7f; stroke: #7f7f7f; stroke-width: 1.8"/>
      </g>
     </g>
     <g id="text_6">
      <!-- 100 -->
      <g style="fill: #7f7f7f" transform="translate(528.278196 256.196797) scale(0.1 -0.1)">
       <defs>
        <path id="DejaVuSans-14" d="M 794 531 
L 1825 531 
L 1825 4091 
L 703 3866 
L 703 4441 
L 1819 4666 
L 2450 4666 
L 2450 531 
L 3481 531 
L 3481 0 
L 794 0 
L 794 531 
z
" transform="scale(0.015625)"/>
       </defs>
       <use xlink:href="#DejaVuSans-14"/>
       <use xlink:href="#DejaVuSans-13" transform="translate(63.625 0)"/>
       <use xlink:href="#DejaVuSans-13" transform="translate(127.25 0)"/>
      </g>
     </g>
    </g>
    <g id="text_7">
     <!-- time [s] -->
     <g style="fill: #7f7f7f" transform="translate(278.710859 270.957422) scale(0.11 -0.11)">
      <defs>
       <path id="DejaVuSans-57" d="M 1172 4494 
L 1172 3500 
L 2356 3500 
L 2356 3053 
L 1172 3053 
L 1172 1153 
Q 1172 725 1289 603 
Q 1406 481 1766 481 
L 2356 481 
L 2356 0 
L 1766 0 
Q 1100 0 847 248 
Q 594 497 594 1153 
L 594 3053 
L 172 3053 
L 172 3500 
L 594 3500 
L 594 4494 
L 1172 4494 
z
" transform="scale(0.015625)"/>
       <path id="DejaVuSans-4c" d="M 603 3500 
L 1178 3500 
L 1178 0 
L 603 0 
L 603 3500 
z
M 603 4863 
L 1178 4863 
L 1178 4134 
L 603 4134 
L 603 4863 
z
" transform="scale(0.015625)"/>
       <path id="DejaVuSans-50" d="M 3328 2828 
Q 3544 3216 3844 3400 
Q 4144 3584 4550 3584 
Q 5097 3584 5394 3201 
Q 5691 2819 5691 2113 
L 5691 0 
L 5113 0 
L 5113 2094 
Q 5113 2597 4934 2840 
Q 4756 3084 4391 3084 
Q 3944 3084 3684 2787 
Q 3425 2491 3425 1978 
L 3425 0 
L 2847 0 
L 2847 2094 
Q 2847 2600 2669 2842 
Q 2491 3084 2119 3084 
Q 1678 3084 1418 2786 
Q 1159 2488 1159 1978 
L 1159 0 
L 581 0 
L 581 3500 
L 1159 3500 
L 1159 2956 
Q 1356 3278 1631 3431 
Q 1906 3584 2284 3584 
Q 2666 3584 2933 3390 
Q 3200 3197 3328 2828 
z
" transform="scale(0.015625)"/>
       <path id="DejaVuSans-48" d="M 3597 1894 
L 3597 1613 
L 953 1613 
Q 991 1019 1311 708 
Q 1631 397 2203 397 
Q 2534 397 2845 478 
Q 3156 559 3463 722 
L 3463 178 
Q 3153 47 2828 -22 
Q 2503 -91 2169 -91 
Q 1331 -91 842 396 
Q 353 884 353 1716 
Q 353 2575 817 3079 
Q 1281 3584 2069 3584 
Q 2775 3584 3186 3129 
Q 3597 2675 3597 1894 
z
M 3022 2063 
Q 3016 2534 2758 2815 
Q 2500 3097 2075 3097 
Q 1594 3097 1305 2825 
Q 1016 2553 972 2059 
L 3022 2063 
z
" transform="scale(0.015625)"/>
       <path id="DejaVuSans-3" transform="scale(0.015625)"/>
       <path id="DejaVuSans-3e" d="M 550 4863 
L 1875 4863 
L 1875 4416 
L 1125 4416 
L 1125 -397 
L 1875 -397 
L 1875 -844 
L 550 -844 
L 550 4863 
z
" transform="scale(0.015625)"/>
       <path id="DejaVuSans-56" d="M 2834 3397 
L 2834 2853 
Q 2591 2978 2328 3040 
Q 2066 3103 1784 3103 
Q 1356 3103 1142 2972 
Q 928 2841 928 2578 
Q 928 2378 1081 2264 
Q 1234 2150 1697 2047 
L 1894 2003 
Q 2506 1872 2764 1633 
Q 3022 1394 3022 966 
Q 3022 478 2636 193 
Q 2250 -91 1575 -91 
Q 1294 -91 989 -36 
Q 684 19 347 128 
L 347 722 
Q 666 556 975 473 
Q 1284 391 1588 391 
Q 1994 391 2212 530 
Q 2431 669 2431 922 
Q 2431 1156 2273 1281 
Q 2116 1406 1581 1522 
L 1381 1569 
Q 847 1681 609 1914 
Q 372 2147 372 2553 
Q 372 3047 722 3315 
Q 1072 3584 1716 3584 
Q 2034 3584 2315 3537 
Q 2597 3491 2834 3397 
z
" transform="scale(0.015625)"/>
       <path id="DejaVuSans-40" d="M 1947 4863 
L 1947 -844 
L 622 -844 
L 622 -397 
L 1369 -397 
L 1369 4416 
L 622 4416 
L 622 4863 
L 1947 4863 
z
" transform="scale(0.015625)"/>
      </defs>
      <use xlink:href="#DejaVuSans-57"/>
      <use xlink:href="#DejaVuSans-4c" transform="translate(39.203125 0)"/>
      <use xlink:href="#DejaVuSans-50" transform="translate(66.984375 0)"/>
      <use xlink:href="#DejaVuSans-48" transform="translate(164.390625 0)"/>
      <use xlink:href="#DejaVuSans-3" transform="translate(225.921875 0)"/>
      <use xlink:href="#DejaVuSans-3e" transform="translate(257.703125 0)"/>
      <use xlink:href="#DejaVuSans-56" transform="translate(296.71875 0)"/>
      <use xlink:href="#DejaVuSans-40" transform="translate(348.8125 0)"/>
     </g>
    </g>
   </g>
   <g id="matplotlib.axis_2">
    <g id="ytick_1">
     <g id="line2d_13">
      <path d="M 38.482813 233.822983 
L 561.6 233.822983 
" clip-path="url(#p1d622b85a0)" style="fill: none; stroke-dasharray: 2.96,1.28; stroke-dashoffset: 0; stroke: #7f7f7f; stroke-opacity: 0.6; stroke-width: 0.8"/>
     </g>
     <g id="line2d_14">
      <defs>
       <path id="m0d7502361a" d="M 0 0 
L -3.5 0 
" style="stroke: #7f7f7f; stroke-width: 1.8"/>
      </defs>
      <g>
       <use xlink:href="#m0d7502361a" x="38.482813" y="233.822983" style="fill: #7f7f7f; stroke: #7f7f7f; stroke-width: 1.8"/>
      </g>
     </g>
     <g id="text_8">
      <!-- −0.2 -->
      <g style="fill: #7f7f7f" transform="translate(7.2 237.621812) scale(0.1 -0.1)">
       <defs>
        <path id="DejaVuSans-c9c" d="M 678 2272 
L 4684 2272 
L 4684 1741 
L 678 1741 
L 678 2272 
z
" transform="scale(0.015625)"/>
        <path id="DejaVuSans-11" d="M 684 794 
L 1344 794 
L 1344 0 
L 684 0 
L 684 794 
z
" transform="scale(0.015625)"/>
       </defs>
       <use xlink:href="#DejaVuSans-c9c"/>
       <use xlink:href="#DejaVuSans-13" transform="translate(83.796875 0)"/>
       <use xlink:href="#DejaVuSans-11" transform="translate(147.421875 0)"/>
       <use xlink:href="#DejaVuSans-15" transform="translate(179.203125 0)"/>
      </g>
     </g>
    </g>
    <g id="ytick_2">
     <g id="line2d_15">
      <path d="M 38.482813 199.97089 
L 561.6 199.97089 
" clip-path="url(#p1d622b85a0)" style="fill: none; stroke-dasharray: 2.96,1.28; stroke-dashoffset: 0; stroke: #7f7f7f; stroke-opacity: 0.6; stroke-width: 0.8"/>
     </g>
     <g id="line2d_16">
      <g>
       <use xlink:href="#m0d7502361a" x="38.482813" y="199.97089" style="fill: #7f7f7f; stroke: #7f7f7f; stroke-width: 1.8"/>
      </g>
     </g>
     <g id="text_9">
      <!-- 0.0 -->
      <g style="fill: #7f7f7f" transform="translate(15.579688 203.769718) scale(0.1 -0.1)">
       <use xlink:href="#DejaVuSans-13"/>
       <use xlink:href="#DejaVuSans-11" transform="translate(63.625 0)"/>
       <use xlink:href="#DejaVuSans-13" transform="translate(95.40625 0)"/>
      </g>
     </g>
    </g>
    <g id="ytick_3">
     <g id="line2d_17">
      <path d="M 38.482813 166.118796 
L 561.6 166.118796 
" clip-path="url(#p1d622b85a0)" style="fill: none; stroke-dasharray: 2.96,1.28; stroke-dashoffset: 0; stroke: #7f7f7f; stroke-opacity: 0.6; stroke-width: 0.8"/>
     </g>
     <g id="line2d_18">
      <g>
       <use xlink:href="#m0d7502361a" x="38.482813" y="166.118796" style="fill: #7f7f7f; stroke: #7f7f7f; stroke-width: 1.8"/>
      </g>
     </g>
     <g id="text_10">
      <!-- 0.2 -->
      <g style="fill: #7f7f7f" transform="translate(15.579688 169.917624) scale(0.1 -0.1)">
       <use xlink:href="#DejaVuSans-13"/>
       <use xlink:href="#DejaVuSans-11" transform="translate(63.625 0)"/>
       <use xlink:href="#DejaVuSans-15" transform="translate(95.40625 0)"/>
      </g>
     </g>
    </g>
    <g id="ytick_4">
     <g id="line2d_19">
      <path d="M 38.482813 132.266702 
L 561.6 132.266702 
" clip-path="url(#p1d622b85a0)" style="fill: none; stroke-dasharray: 2.96,1.28; stroke-dashoffset: 0; stroke: #7f7f7f; stroke-opacity: 0.6; stroke-width: 0.8"/>
     </g>
     <g id="line2d_20">
      <g>
       <use xlink:href="#m0d7502361a" x="38.482813" y="132.266702" style="fill: #7f7f7f; stroke: #7f7f7f; stroke-width: 1.8"/>
      </g>
     </g>
     <g id="text_11">
      <!-- 0.4 -->
      <g style="fill: #7f7f7f" transform="translate(15.579688 136.06553) scale(0.1 -0.1)">
       <use xlink:href="#DejaVuSans-13"/>
       <use xlink:href="#DejaVuSans-11" transform="translate(63.625 0)"/>
       <use xlink:href="#DejaVuSans-17" transform="translate(95.40625 0)"/>
      </g>
     </g>
    </g>
    <g id="ytick_5">
     <g id="line2d_21">
      <path d="M 38.482813 98.414609 
L 561.6 98.414609 
" clip-path="url(#p1d622b85a0)" style="fill: none; stroke-dasharray: 2.96,1.28; stroke-dashoffset: 0; stroke: #7f7f7f; stroke-opacity: 0.6; stroke-width: 0.8"/>
     </g>
     <g id="line2d_22">
      <g>
       <use xlink:href="#m0d7502361a" x="38.482813" y="98.414609" style="fill: #7f7f7f; stroke: #7f7f7f; stroke-width: 1.8"/>
      </g>
     </g>
     <g id="text_12">
      <!-- 0.6 -->
      <g style="fill: #7f7f7f" transform="translate(15.579688 102.213437) scale(0.1 -0.1)">
       <use xlink:href="#DejaVuSans-13"/>
       <use xlink:href="#DejaVuSans-11" transform="translate(63.625 0)"/>
       <use xlink:href="#DejaVuSans-19" transform="translate(95.40625 0)"/>
      </g>
     </g>
    </g>
    <g id="ytick_6">
     <g id="line2d_23">
      <path d="M 38.482813 64.562515 
L 561.6 64.562515 
" clip-path="url(#p1d622b85a0)" style="fill: none; stroke-dasharray: 2.96,1.28; stroke-dashoffset: 0; stroke: #7f7f7f; stroke-opacity: 0.6; stroke-width: 0.8"/>
     </g>
     <g id="line2d_24">
      <g>
       <use xlink:href="#m0d7502361a" x="38.482813" y="64.562515" style="fill: #7f7f7f; stroke: #7f7f7f; stroke-width: 1.8"/>
      </g>
     </g>
     <g id="text_13">
      <!-- 0.8 -->
      <g style="fill: #7f7f7f" transform="translate(15.579688 68.361343) scale(0.1 -0.1)">
       <use xlink:href="#DejaVuSans-13"/>
       <use xlink:href="#DejaVuSans-11" transform="translate(63.625 0)"/>
       <use xlink:href="#DejaVuSans-1b" transform="translate(95.40625 0)"/>
      </g>
     </g>
    </g>
    <g id="ytick_7">
     <g id="line2d_25">
      <path d="M 38.482813 30.710421 
L 561.6 30.710421 
" clip-path="url(#p1d622b85a0)" style="fill: none; stroke-dasharray: 2.96,1.28; stroke-dashoffset: 0; stroke: #7f7f7f; stroke-opacity: 0.6; stroke-width: 0.8"/>
     </g>
     <g id="line2d_26">
      <g>
       <use xlink:href="#m0d7502361a" x="38.482813" y="30.710421" style="fill: #7f7f7f; stroke: #7f7f7f; stroke-width: 1.8"/>
      </g>
     </g>
     <g id="text_14">
      <!-- 1.0 -->
      <g style="fill: #7f7f7f" transform="translate(15.579688 34.509249) scale(0.1 -0.1)">
       <use xlink:href="#DejaVuSans-14"/>
       <use xlink:href="#DejaVuSans-11" transform="translate(63.625 0)"/>
       <use xlink:href="#DejaVuSans-13" transform="translate(95.40625 0)"/>
      </g>
     </g>
    </g>
   </g>
   <g id="line2d_27">
    <path d="M 62.260866 199.97089 
L 157.373044 199.97089 
L 158.24357 30.710421 
L 347.597511 30.710421 
L 348.581975 115.340655 
L 537.821946 115.340655 
L 537.821946 115.340655 
" clip-path="url(#p1d622b85a0)" style="fill: none; stroke: #e41a1c; stroke-width: 2; stroke-linecap: square"/>
   </g>
   <g id="line2d_28">
    <path d="M 62.260866 199.97089 
L 62.308423 202.136746 
L 62.433895 199.84504 
L 63.171684 200.514689 
L 63.435998 199.602472 
L 64.075918 200.798875 
L 64.45523 199.902442 
L 64.881762 200.087456 
L 66.728238 200.697576 
L 67.790843 199.320899 
L 69.404243 200.188483 
L 69.800437 199.443743 
L 70.239766 199.794915 
L 70.758735 199.79415 
L 71.137994 198.591863 
L 71.52281 200.175607 
L 71.899144 199.620834 
L 72.299192 200.260188 
L 72.627672 200.628831 
L 72.93509 199.652562 
L 74.529605 199.814207 
L 75.495233 199.88034 
L 76.338016 199.583569 
L 77.171669 200.681548 
L 77.79883 199.990646 
L 78.707043 199.701649 
L 79.067779 201.170964 
L 79.806242 200.361449 
L 81.500261 200.39844 
L 81.900392 200.697015 
L 83.268588 199.894523 
L 83.828713 201.220404 
L 84.101236 200.424756 
L 85.814385 200.308396 
L 92.974547 199.863708 
L 95.263391 200.904815 
L 95.600731 198.508882 
L 96.287676 200.133317 
L 97.344994 200.593921 
L 98.562134 199.759323 
L 100.679824 200.410346 
L 101.716843 199.589409 
L 102.107039 200.88122 
L 102.878621 200.13711 
L 103.300918 199.356478 
L 103.626755 199.661216 
L 103.931013 200.63791 
L 104.663055 200.127614 
L 105.898756 199.23876 
L 106.192369 199.649206 
L 106.479555 200.502357 
L 106.805764 200.103945 
L 107.962 199.631609 
L 109.028765 199.365062 
L 111.428024 199.832225 
L 115.457415 198.812464 
L 116.66945 200.266122 
L 118.021874 199.139533 
L 118.279095 199.769766 
L 118.545801 200.342247 
L 119.069536 199.925111 
L 119.826473 199.533387 
L 120.123389 200.004743 
L 121.252672 199.082552 
L 122.172096 200.328312 
L 123.302922 199.818359 
L 124.897878 199.667176 
L 126.435799 200.657888 
L 126.835226 200.200986 
L 127.656632 199.840619 
L 128.900095 200.390699 
L 129.855356 199.437356 
L 130.197143 199.796332 
L 132.169745 200.219913 
L 133.223344 200.390574 
L 133.943839 199.294609 
L 134.332025 200.355969 
L 134.693112 200.71099 
L 135.100329 199.961862 
L 135.654636 199.004584 
L 136.125596 199.78182 
L 138.180461 200.293162 
L 138.572284 199.535343 
L 138.971934 200.616862 
L 140.111251 200.643874 
L 140.484848 199.689303 
L 141.226924 200.46369 
L 141.58164 199.80558 
L 141.919576 200.032053 
L 142.193885 200.877886 
L 143.044327 200.515229 
L 144.22419 199.906452 
L 148.267946 200.659503 
L 148.504939 199.383697 
L 149.105933 200.287925 
L 150.61168 200.320187 
L 151.001586 199.521172 
L 151.315091 199.794573 
L 151.612443 200.801425 
L 151.945693 199.548772 
L 152.255181 200.039168 
L 153.742378 200.071825 
L 157.244749 199.957231 
L 157.267644 200.632079 
L 157.373181 177.617409 
L 157.373617 230.944634 
L 158.24357 199.445937 
L 158.709956 200.258965 
L 158.542814 198.925299 
L 158.874476 199.970602 
L 159.7648 198.689356 
L 160.388263 200.825336 
L 160.816512 199.580577 
L 161.241396 200.246181 
L 162.153709 199.070066 
L 162.404527 199.198332 
L 163.527311 197.35615 
L 163.829418 197.900886 
L 165.186707 194.445483 
L 165.525681 194.830426 
L 170.593079 176.816556 
L 174.586469 156.007309 
L 178.903184 131.143176 
L 194.599829 53.564855 
L 199.522415 37.433808 
L 200.69742 35.006819 
L 203.981139 28.875226 
L 207.162208 23.985248 
L 207.6281 24.415357 
L 209.450741 20.723385 
L 209.919153 21.962727 
L 210.354601 21.317059 
L 213.826885 18.605255 
L 214.231968 20.231386 
L 214.650301 18.608428 
L 219.33425 18.963562 
L 219.776409 17.854506 
L 220.209579 18.79351 
L 221.11124 18.50804 
L 222.580275 18.948045 
L 223.756775 19.707093 
L 224.170962 20.588028 
L 224.521126 19.898705 
L 225.686181 19.455553 
L 227.028482 20.590574 
L 228.244864 20.72685 
L 231.993675 22.539413 
L 232.320292 21.988911 
L 232.642027 22.778419 
L 234.181286 23.667806 
L 234.56941 22.244495 
L 235.001417 23.654258 
L 237.72747 24.185826 
L 239.253034 25.779203 
L 240.878796 26.65233 
L 243.303582 27.341969 
L 244.540775 28.502357 
L 244.975741 27.405921 
L 245.369442 28.507088 
L 248.036529 29.078391 
L 249.235291 29.583692 
L 249.635312 28.641343 
L 250.403359 29.218416 
L 255.683462 30.265712 
L 256.879114 31.10855 
L 258.677527 31.352912 
L 260.834743 30.888592 
L 262.813323 31.443826 
L 264.095442 30.967882 
L 264.504644 31.76551 
L 264.904383 30.838848 
L 265.309251 30.539448 
L 265.710387 31.423094 
L 266.098057 32.188224 
L 266.876547 31.751562 
L 268.451453 30.774495 
L 268.865005 32.014873 
L 269.263749 31.609718 
L 272.245612 31.285831 
L 272.685157 30.883212 
L 273.109873 31.481981 
L 275.120725 32.631215 
L 275.513121 31.212554 
L 275.911406 31.445884 
L 276.360894 32.371208 
L 276.783866 31.023831 
L 278.821594 31.662784 
L 280.429596 31.685409 
L 281.629832 31.146411 
L 282.944126 31.130693 
L 283.389427 31.762383 
L 283.801509 30.752696 
L 284.859921 31.351878 
L 285.231449 30.757791 
L 285.696419 30.674641 
L 286.079066 31.798741 
L 286.884515 31.24916 
L 287.67511 30.76011 
L 288.020825 31.851514 
L 288.409008 31.218282 
L 288.77166 30.324162 
L 289.142876 31.412776 
L 292.177176 31.109934 
L 295.364703 31.392868 
L 296.656909 31.047721 
L 297.034469 32.397868 
L 297.416905 31.759941 
L 298.939292 30.744698 
L 299.379935 30.333387 
L 299.810995 31.307033 
L 300.676113 30.900011 
L 302.422543 30.95783 
L 306.819127 31.402958 
L 307.178051 30.131485 
L 308.000578 30.699307 
L 310.505552 30.260727 
L 310.89444 31.473331 
L 311.287698 30.820445 
L 312.42164 30.140152 
L 312.787693 30.771114 
L 314.032384 31.076662 
L 314.856788 30.249899 
L 315.211082 30.843814 
L 319.198161 30.603477 
L 320.509017 30.589526 
L 322.686038 30.019684 
L 323.867375 31.48448 
L 324.250802 30.594198 
L 326.889235 31.408295 
L 327.717815 30.148232 
L 328.134342 31.296633 
L 328.519466 30.946235 
L 328.913401 30.22328 
L 329.311042 30.460232 
L 329.710354 31.204145 
L 330.113845 30.633418 
L 339.610604 31.100052 
L 339.989079 30.06387 
L 340.7862 30.520398 
L 342.547219 31.070907 
L 343.723925 29.807558 
L 344.999448 30.743183 
L 345.886833 30.594557 
L 347.314936 29.838909 
L 347.592405 30.313349 
L 347.597413 28.960198 
L 347.597511 43.836755 
L 347.620482 22.619545 
L 348.581975 31.046837 
L 349.96103 30.379696 
L 350.326861 31.497876 
L 350.742481 31.086014 
L 351.625851 30.571454 
L 352.38706 31.761956 
L 352.780453 30.282941 
L 353.340822 31.336251 
L 354.665229 33.017061 
L 355.04605 32.572323 
L 363.544137 49.15958 
L 380.643121 96.092548 
L 381.902983 98.689957 
L 383.996844 102.523048 
L 384.41135 102.447126 
L 385.979854 105.33527 
L 388.648767 110.577967 
L 389.011185 109.784808 
L 389.434582 110.394787 
L 391.700612 114.130153 
L 403.182783 120.95015 
L 403.639531 120.783972 
L 404.119817 121.949799 
L 404.6103 121.446824 
L 405.478033 121.26284 
L 406.712571 121.585612 
L 407.209686 120.860657 
L 408.388353 122.363409 
L 409.830005 121.727515 
L 411.720989 121.17046 
L 413.165826 121.479513 
L 414.807918 120.328882 
L 415.157305 120.953129 
L 415.883149 120.429366 
L 416.283621 120.142059 
L 416.734015 121.576545 
L 417.189437 120.379598 
L 418.941131 120.041103 
L 421.075566 119.726705 
L 422.234823 119.185839 
L 422.631472 118.465262 
L 423.117323 118.904449 
L 423.528178 119.392781 
L 423.937417 119.017955 
L 426.65999 118.545672 
L 427.527326 118.48736 
L 428.846082 117.855824 
L 430.164901 117.705215 
L 430.55358 117.079756 
L 430.940711 117.600646 
L 432.838773 117.231473 
L 434.174415 116.643649 
L 435.436472 116.821225 
L 438.962927 116.283968 
L 440.216576 115.869501 
L 441.457878 116.496072 
L 441.822207 115.453672 
L 442.63324 115.827937 
L 444.794027 115.473898 
L 446.069377 115.332417 
L 447.425963 114.841213 
L 448.263603 115.477485 
L 449.461788 114.356845 
L 451.893282 115.523574 
L 453.263242 114.649068 
L 455.507881 115.572618 
L 455.86729 113.73012 
L 456.614618 114.774559 
L 458.692366 115.119061 
L 459.942346 114.13229 
L 461.220561 114.836507 
L 462.950332 115.368533 
L 463.77036 114.65546 
L 464.126564 115.96618 
L 464.901509 115.315928 
L 466.071997 115.356877 
L 467.789349 114.545915 
L 468.592457 115.109515 
L 469.815942 114.629165 
L 470.53596 115.793566 
L 470.926047 115.386014 
L 474.669265 114.458843 
L 475.03866 115.691536 
L 475.83339 114.953692 
L 476.538899 114.909828 
L 477.363592 116.053994 
L 477.761837 114.673716 
L 478.550243 115.38379 
L 479.840826 114.359269 
L 480.6838 115.075012 
L 481.117626 114.676657 
L 482.45099 115.521534 
L 483.330338 114.736877 
L 483.800815 115.282292 
L 485.016501 114.498235 
L 485.365944 114.915569 
L 485.811427 115.276316 
L 486.243119 114.08255 
L 486.637535 114.776476 
L 487.978972 115.185327 
L 488.377907 114.191748 
L 488.781127 115.514881 
L 489.613612 114.318711 
L 490.023359 115.181012 
L 494.138457 115.542177 
L 494.449902 114.423629 
L 495.31294 115.025566 
L 496.079149 115.435192 
L 496.451316 114.940572 
L 497.592634 115.490045 
L 498.842119 114.847495 
L 500.441557 115.948651 
L 502.04269 114.726316 
L 503.19616 116.116386 
L 505.151145 114.810192 
L 505.539197 115.76634 
L 506.402918 115.395025 
L 507.964902 115.130341 
L 510.835913 114.489391 
L 511.219432 114.149908 
L 511.572466 115.799889 
L 512.340046 115.046167 
L 514.211716 116.003264 
L 515.891418 114.990988 
L 516.297398 114.572396 
L 517.093949 115.766505 
L 517.484547 115.569698 
L 518.621489 114.52708 
L 520.201117 115.548137 
L 521.022613 115.579289 
L 522.17254 114.448564 
L 522.512501 115.579369 
L 523.742975 115.149631 
L 524.200438 114.852646 
L 524.968609 116.11956 
L 525.389647 115.203985 
L 526.215525 116.500026 
L 526.646104 115.379288 
L 527.038983 115.655787 
L 527.431275 116.202713 
L 527.878363 115.577903 
L 529.322238 115.736556 
L 534.663074 115.451495 
L 535.065031 116.065922 
L 535.840096 115.535391 
L 537.821946 115.694388 
L 537.821946 115.694388 
" clip-path="url(#p1d622b85a0)" style="fill: none; stroke: #377eb8; stroke-width: 2; stroke-linecap: square"/>
   </g>
   <g id="line2d_29">
    <path d="M 62.260866 199.97089 
L 62.433895 199.066573 
L 63.715081 199.687018 
L 65.375715 199.963933 
L 66.429451 200.792113 
L 67.790843 199.436953 
L 68.966722 200.221441 
L 72.299192 199.725264 
L 72.627672 200.762198 
L 73.252071 200.093303 
L 75.914479 199.846428 
L 77.513619 200.620059 
L 77.79883 199.273508 
L 78.355251 200.332158 
L 80.286469 199.839983 
L 80.791341 199.708569 
L 81.159705 200.684331 
L 81.900392 199.981983 
L 83.559294 198.811438 
L 84.494538 200.018681 
L 86.295312 199.900796 
L 92.974547 199.981811 
L 93.623237 198.924387 
L 93.896778 200.61355 
L 94.487525 199.826361 
L 95.938569 199.716503 
L 96.287676 199.268601 
L 96.604833 200.109008 
L 99.861109 199.956094 
L 100.27153 199.624561 
L 100.679824 200.227917 
L 101.072322 200.351153 
L 101.399209 199.268769 
L 102.107039 200.287057 
L 103.300918 199.83416 
L 103.626755 199.112157 
L 103.931013 199.869301 
L 104.992982 200.390688 
L 105.898756 199.046823 
L 106.192369 200.256196 
L 106.805764 199.852407 
L 108.296731 199.871847 
L 108.700595 199.360602 
L 109.028765 200.463828 
L 110.239543 199.831273 
L 111.428024 200.280755 
L 111.814681 199.577666 
L 112.509044 200.11244 
L 113.803086 200.38995 
L 115.057234 199.597327 
L 116.241099 200.127497 
L 117.078161 199.569434 
L 117.403023 200.634843 
L 117.719589 199.851226 
L 118.021874 199.208706 
L 118.279095 200.757689 
L 118.545801 199.702186 
L 119.314639 200.340665 
L 119.069536 198.878229 
L 119.558059 199.652044 
L 120.819872 199.857083 
L 122.498515 200.224734 
L 123.706602 199.637899 
L 125.2795 200.626918 
L 126.835226 199.645237 
L 128.900095 199.880217 
L 129.545347 199.272052 
L 129.855356 200.064518 
L 130.485143 198.933327 
L 131.018924 200.028945 
L 132.521289 200.819438 
L 133.943839 199.775783 
L 134.332025 200.382645 
L 134.693112 199.884596 
L 135.100329 199.718684 
L 135.42136 201.000504 
L 135.654636 198.69198 
L 136.125596 199.740893 
L 138.971934 200.201931 
L 140.111251 200.279462 
L 140.863795 200.025659 
L 142.193885 198.819055 
L 142.454556 200.622202 
L 143.044327 199.979205 
L 143.431344 200.386043 
L 143.819291 199.798638 
L 146.947355 199.302029 
L 148.267946 201.027079 
L 148.75066 199.76867 
L 149.105933 200.415875 
L 151.001586 200.457674 
L 152.255181 199.260282 
L 153.291847 199.759132 
L 154.848357 199.905175 
L 155.210552 199.254462 
L 155.549461 200.386311 
L 155.861384 200.072046 
L 157.244749 199.85814 
L 157.267644 200.086544 
L 157.371665 202.352004 
L 157.373181 199.707554 
L 157.373305 161.998174 
L 157.393088 205.066806 
L 158.24357 199.960834 
L 159.953913 196.637674 
L 160.178983 197.8917 
L 160.816512 197.444966 
L 161.897606 194.363692 
L 162.153709 195.308303 
L 162.404527 195.563409 
L 163.527311 194.215396 
L 163.829418 194.589161 
L 164.108612 193.540422 
L 166.265477 191.81199 
L 166.663067 192.0333 
L 167.02835 191.3358 
L 177.583641 185.485183 
L 180.923492 184.619464 
L 182.496831 183.825637 
L 182.927456 183.951109 
L 183.355403 182.993695 
L 183.839876 183.633232 
L 184.216085 184.209092 
L 184.560857 183.168599 
L 184.98245 183.437617 
L 185.397005 182.782868 
L 185.807229 182.355073 
L 186.193605 183.214316 
L 186.593564 183.205732 
L 186.979264 181.987248 
L 187.384563 182.418445 
L 187.727675 183.259975 
L 188.066953 182.199626 
L 190.738119 183.184471 
L 191.394303 180.875244 
L 191.712588 181.905175 
L 195.016568 181.431 
L 195.385942 182.129967 
L 195.751716 180.826534 
L 196.125131 181.567652 
L 208.055282 181.433323 
L 209.450741 181.885507 
L 211.266837 182.312676 
L 212.088269 181.388906 
L 212.480795 182.062294 
L 216.343115 181.973485 
L 217.638219 181.908458 
L 220.68296 182.281197 
L 222.580275 182.155282 
L 222.992234 183.475887 
L 223.366751 181.928038 
L 225.686181 182.964604 
L 226.147193 182.281191 
L 226.576812 182.899518 
L 227.910359 182.953707 
L 229.276844 181.644079 
L 230.504259 183.099579 
L 231.24032 181.524701 
L 231.577986 183.031517 
L 231.993675 182.558838 
L 233.000387 183.800444 
L 233.789555 183.232955 
L 234.181286 183.625092 
L 238.458076 182.381067 
L 238.81758 183.330263 
L 239.253034 182.762852 
L 243.303582 183.284722 
L 244.975741 182.823565 
L 246.78039 183.358743 
L 248.036529 182.743898 
L 248.833982 182.446296 
L 250.018544 183.834678 
L 251.672099 182.533154 
L 252.986007 183.447568 
L 254.413444 183.042282 
L 256.879114 183.011159 
L 259.155992 182.702172 
L 260.834743 183.742368 
L 262.058604 182.942206 
L 263.236498 183.378142 
L 268.451453 182.910076 
L 268.865005 183.444909 
L 269.263749 182.91398 
L 273.574386 182.842797 
L 274.018444 182.383022 
L 274.782588 184.105418 
L 275.120725 183.163765 
L 280.827543 183.24211 
L 281.240945 182.232794 
L 281.629832 183.033151 
L 283.389427 183.426621 
L 284.161279 181.849289 
L 284.489132 183.44824 
L 286.884515 183.870468 
L 288.409008 182.724823 
L 289.142876 183.490916 
L 289.975824 182.412172 
L 290.365891 182.683331 
L 296.656909 182.81871 
L 309.256559 183.46191 
L 309.66956 182.691531 
L 310.099247 183.7459 
L 313.620315 182.478506 
L 314.856788 183.065209 
L 315.211082 182.343213 
L 315.562528 182.881021 
L 316.870465 183.350181 
L 317.334081 182.601699 
L 317.768218 183.199862 
L 323.477732 182.426758 
L 323.867375 182.157358 
L 324.250802 183.78452 
L 325.039921 183.580752 
L 327.717815 183.060218 
L 328.913401 183.309416 
L 330.574376 182.767395 
L 335.262268 182.857528 
L 347.592405 183.466538 
L 347.597413 182.502443 
L 347.597796 230.077448 
L 347.598762 173.965935 
L 348.581975 183.121036 
L 353.974682 186.450437 
L 354.322252 185.676167 
L 354.665229 185.991178 
L 355.714254 186.766923 
L 359.156013 187.614597 
L 362.047456 188.519979 
L 362.448732 189.545759 
L 362.894219 189.250537 
L 363.221531 188.092236 
L 363.544137 188.911049 
L 366.148565 189.876826 
L 367.061538 190.033086 
L 368.458499 190.518912 
L 370.203058 190.676212 
L 370.60705 190.239982 
L 370.972076 190.924225 
L 374.060442 191.11648 
L 374.406052 192.064936 
L 374.749016 191.160835 
L 375.135728 190.618361 
L 375.500135 191.856532 
L 375.921653 191.720693 
L 376.824826 191.043194 
L 377.645516 192.080579 
L 378.059664 191.637846 
L 384.887951 192.190803 
L 385.255586 191.580193 
L 385.619821 193.028118 
L 386.406024 192.230574 
L 389.434582 192.497307 
L 390.72656 192.230065 
L 407.718418 192.223364 
L 408.055351 191.085753 
L 408.388353 191.819891 
L 410.328131 191.944971 
L 410.825545 191.462344 
L 411.286285 192.07632 
L 414.12012 191.83065 
L 415.157305 190.727739 
L 415.883149 191.973576 
L 416.283621 191.539171 
L 419.722581 191.955838 
L 421.46681 190.781689 
L 422.234823 191.945761 
L 422.631472 191.532274 
L 441.457878 190.820306 
L 441.822207 192.246268 
L 442.18433 191.472522 
L 447.425963 190.869216 
L 449.044192 191.851399 
L 449.93273 191.596202 
L 451.194676 191.844324 
L 452.316817 191.107481 
L 455.86729 191.807512 
L 456.228316 191.039049 
L 457.061391 191.513545 
L 457.449669 191.898517 
L 457.844293 190.86509 
L 458.239772 191.746086 
L 459.942346 191.738707 
L 460.77373 191.188524 
L 462.120664 191.716571 
L 462.552651 190.719939 
L 462.950332 190.946162 
L 464.484591 191.877024 
L 466.071997 191.332069 
L 468.592457 191.814028 
L 469.815942 190.88643 
L 470.161988 192.035024 
L 470.926047 191.696242 
L 471.926759 191.721307 
L 472.283012 192.358453 
L 472.636305 191.638373 
L 472.966502 190.631241 
L 473.750134 191.060207 
L 478.135243 191.100679 
L 478.550243 192.245119 
L 478.953605 190.99425 
L 480.6838 191.790722 
L 484.662852 191.283021 
L 485.016501 192.277735 
L 485.365944 191.830615 
L 486.243119 191.074566 
L 486.637535 191.979327 
L 487.050584 191.437573 
L 490.023359 191.497738 
L 491.760926 192.319286 
L 492.969536 191.140753 
L 493.822812 190.800524 
L 494.138457 192.375955 
L 494.807046 191.574355 
L 496.079149 191.614521 
L 497.207949 192.110761 
L 499.74674 191.551001 
L 500.820823 190.565045 
L 501.203116 191.514302 
L 502.04269 191.160435 
L 503.584222 191.819592 
L 504.721741 191.075421 
L 507.964902 191.838948 
L 509.293113 191.582568 
L 509.637095 192.416436 
L 509.977973 191.583972 
L 516.297398 191.763512 
L 516.710523 192.294471 
L 517.093949 191.614434 
L 517.837102 190.913873 
L 519.019195 191.757996 
L 520.626783 190.896821 
L 521.022613 191.469911 
L 521.799382 191.781365 
L 522.17254 190.764494 
L 522.512501 192.161338 
L 522.867068 191.032382 
L 524.583073 191.563468 
L 526.646104 191.063125 
L 527.038983 192.202192 
L 527.878363 191.586849 
L 528.331055 191.807833 
L 528.985539 190.291165 
L 529.322238 191.468998 
L 529.755816 191.037756 
L 530.089686 192.200022 
L 530.839632 191.381007 
L 533.530506 191.91639 
L 534.301109 191.392304 
L 534.663074 191.671295 
L 535.840096 191.705623 
L 537.821946 190.838062 
L 537.821946 190.838062 
" clip-path="url(#p1d622b85a0)" style="fill: none; stroke: #4daf4a; stroke-width: 2; stroke-linecap: square"/>
   </g>
   <g id="patch_3">
    <path d="M 38.482813 241.599141 
L 38.482813 7.2 
" style="fill: none; stroke: #7f7f7f; stroke-width: 1.8; stroke-linejoin: miter; stroke-linecap: square"/>
   </g>
   <g id="patch_4">
    <path d="M 38.482813 241.599141 
L 561.6 241.599141 
" style="fill: none; stroke: #7f7f7f; stroke-width: 1.8; stroke-linejoin: miter; stroke-linecap: square"/>
   </g>
   <g id="legend_1">
    <g id="line2d_30">
     <path d="M 483.814062 20.298438 
L 493.814062 20.298438 
L 503.814062 20.298438 
" style="fill: none; stroke: #e41a1c; stroke-width: 2; stroke-linecap: square"/>
    </g>
    <g id="text_15">
     <!-- setpoint -->
     <g style="fill: #7f7f7f" transform="translate(511.814062 23.798438) scale(0.1 -0.1)">
      <defs>
       <path id="DejaVuSans-53" d="M 1159 525 
L 1159 -1331 
L 581 -1331 
L 581 3500 
L 1159 3500 
L 1159 2969 
Q 1341 3281 1617 3432 
Q 1894 3584 2278 3584 
Q 2916 3584 3314 3078 
Q 3713 2572 3713 1747 
Q 3713 922 3314 415 
Q 2916 -91 2278 -91 
Q 1894 -91 1617 61 
Q 1341 213 1159 525 
z
M 3116 1747 
Q 3116 2381 2855 2742 
Q 2594 3103 2138 3103 
Q 1681 3103 1420 2742 
Q 1159 2381 1159 1747 
Q 1159 1113 1420 752 
Q 1681 391 2138 391 
Q 2594 391 2855 752 
Q 3116 1113 3116 1747 
z
" transform="scale(0.015625)"/>
       <path id="DejaVuSans-52" d="M 1959 3097 
Q 1497 3097 1228 2736 
Q 959 2375 959 1747 
Q 959 1119 1226 758 
Q 1494 397 1959 397 
Q 2419 397 2687 759 
Q 2956 1122 2956 1747 
Q 2956 2369 2687 2733 
Q 2419 3097 1959 3097 
z
M 1959 3584 
Q 2709 3584 3137 3096 
Q 3566 2609 3566 1747 
Q 3566 888 3137 398 
Q 2709 -91 1959 -91 
Q 1206 -91 779 398 
Q 353 888 353 1747 
Q 353 2609 779 3096 
Q 1206 3584 1959 3584 
z
" transform="scale(0.015625)"/>
       <path id="DejaVuSans-51" d="M 3513 2113 
L 3513 0 
L 2938 0 
L 2938 2094 
Q 2938 2591 2744 2837 
Q 2550 3084 2163 3084 
Q 1697 3084 1428 2787 
Q 1159 2491 1159 1978 
L 1159 0 
L 581 0 
L 581 3500 
L 1159 3500 
L 1159 2956 
Q 1366 3272 1645 3428 
Q 1925 3584 2291 3584 
Q 2894 3584 3203 3211 
Q 3513 2838 3513 2113 
z
" transform="scale(0.015625)"/>
      </defs>
      <use xlink:href="#DejaVuSans-56"/>
      <use xlink:href="#DejaVuSans-48" transform="translate(52.09375 0)"/>
      <use xlink:href="#DejaVuSans-57" transform="translate(113.625 0)"/>
      <use xlink:href="#DejaVuSans-53" transform="translate(152.828125 0)"/>
      <use xlink:href="#DejaVuSans-52" transform="translate(216.3125 0)"/>
      <use xlink:href="#DejaVuSans-4c" transform="translate(277.5 0)"/>
      <use xlink:href="#DejaVuSans-51" transform="translate(305.28125 0)"/>
      <use xlink:href="#DejaVuSans-57" transform="translate(368.65625 0)"/>
     </g>
    </g>
    <g id="line2d_31">
     <path d="M 483.814062 35.299219 
L 493.814062 35.299219 
L 503.814062 35.299219 
" style="fill: none; stroke: #377eb8; stroke-width: 2; stroke-linecap: square"/>
    </g>
    <g id="text_16">
     <!-- plant 1 -->
     <g style="fill: #7f7f7f" transform="translate(511.814062 38.799219) scale(0.1 -0.1)">
      <defs>
       <path id="DejaVuSans-4f" d="M 603 4863 
L 1178 4863 
L 1178 0 
L 603 0 
L 603 4863 
z
" transform="scale(0.015625)"/>
       <path id="DejaVuSans-44" d="M 2194 1759 
Q 1497 1759 1228 1600 
Q 959 1441 959 1056 
Q 959 750 1161 570 
Q 1363 391 1709 391 
Q 2188 391 2477 730 
Q 2766 1069 2766 1631 
L 2766 1759 
L 2194 1759 
z
M 3341 1997 
L 3341 0 
L 2766 0 
L 2766 531 
Q 2569 213 2275 61 
Q 1981 -91 1556 -91 
Q 1019 -91 701 211 
Q 384 513 384 1019 
Q 384 1609 779 1909 
Q 1175 2209 1959 2209 
L 2766 2209 
L 2766 2266 
Q 2766 2663 2505 2880 
Q 2244 3097 1772 3097 
Q 1472 3097 1187 3025 
Q 903 2953 641 2809 
L 641 3341 
Q 956 3463 1253 3523 
Q 1550 3584 1831 3584 
Q 2591 3584 2966 3190 
Q 3341 2797 3341 1997 
z
" transform="scale(0.015625)"/>
      </defs>
      <use xlink:href="#DejaVuSans-53"/>
      <use xlink:href="#DejaVuSans-4f" transform="translate(63.484375 0)"/>
      <use xlink:href="#DejaVuSans-44" transform="translate(91.265625 0)"/>
      <use xlink:href="#DejaVuSans-51" transform="translate(152.546875 0)"/>
      <use xlink:href="#DejaVuSans-57" transform="translate(215.921875 0)"/>
      <use xlink:href="#DejaVuSans-3" transform="translate(255.125 0)"/>
      <use xlink:href="#DejaVuSans-14" transform="translate(286.90625 0)"/>
     </g>
    </g>
    <g id="line2d_32">
     <path d="M 483.814062 50.3 
L 493.814062 50.3 
L 503.814062 50.3 
" style="fill: none; stroke: #4daf4a; stroke-width: 2; stroke-linecap: square"/>
    </g>
    <g id="text_17">
     <!-- plant 2 -->
     <g style="fill: #7f7f7f" transform="translate(511.814062 53.8) scale(0.1 -0.1)">
      <use xlink:href="#DejaVuSans-53"/>
      <use xlink:href="#DejaVuSans-4f" transform="translate(63.484375 0)"/>
      <use xlink:href="#DejaVuSans-44" transform="translate(91.265625 0)"/>
      <use xlink:href="#DejaVuSans-51" transform="translate(152.546875 0)"/>
      <use xlink:href="#DejaVuSans-57" transform="translate(215.921875 0)"/>
      <use xlink:href="#DejaVuSans-3" transform="translate(255.125 0)"/>
      <use xlink:href="#DejaVuSans-15" transform="translate(286.90625 0)"/>
     </g>
    </g>
   </g>
  </g>
 </g>
 <defs>
  <clipPath id="p1d622b85a0">
   <rect x="38.482813" y="7.2" width="523.117187" height="234.399141"/>
  </clipPath>
 </defs>
</svg>
