<?xml version="1.0" encoding="utf-8" standalone="no"?>
<!DOCTYPE svg PUBLIC "-//W3C//DTD SVG 1.1//EN"
  "http://www.w3.org/Graphics/SVG/1.1/DTD/svg11.dtd">
<svg xmlns:xlink="http://www.w3.org/1999/xlink" width="568.8pt" height="280.8pt" viewBox="0 0 568.8 280.8" xmlns="http://www.w3.org/2000/svg" version="1.1">
 <metadata>
  <rdf:RDF xmlns:dc="http://purl.org/dc/elements/1.1/" xmlns:cc="http://creativecommons.org/ns#" xmlns:rdf="http://www.w3.org/1999/02/22-rdf-syntax-ns#">
   <cc:Work>
    <dc:type rdf:resource="http://purl.org/dc/dcmitype/StillImage"/>
    <dc:date>2026-07-09T02:47:45.000142</dc:date>
    <dc:format>image/svg+xml</dc:format>
    <dc:creator>
     <cc:Agent>
      <dc:title>Matplotlib v3.11.0, https://matplotlib.org/</dc:title>
     </cc:Agent>
    </dc:creator>
   </cc:Work>
  </rdf:RDF>
 </metadata>
 <defs>
  <style type="text/css">*{stroke-linejoin: round; stroke-linecap: butt}</style>
 </defs>
 <g id="figure_1">
  <g id="patch_1">
   <path d="M 0 280.8 
L 568.8 280.8 
L 568.8 0 
L 0 0 
L 0 280.8 
z
" style="fill: none"/>
  </g>
  <g id="axes_1">
   <g id="patch_2">
    <path d="M 38.482813 241.599141 
L 561.6 241.599141 
L 561.6 7.2 
L 38.482813 7.2 
L 38.482813 241.599141 
z
" style="fill: none"/>
   </g>
   <g id="matplotlib.axis_1">
    <g id="xtick_1">
     <g id="line2d_1">
      <path d="M 62.260866 241.599141 
L 62.260866 7.2 
" clip-path="url(#p8efea8193b)" style="fill: none; stroke-dasharray: 2.96,1.28; stroke-dashoffset: 0; stroke: #7f7f7f; stroke-opacity: 0.6; stroke-width: 0.8"/>
     </g>
     <g id="line2d_2">
      <defs>
       <path id="m9e0171d4e3" d="M 0 0 
L 0 3.5 
" style="stroke: #7f7f7f; stroke-width: 1.8"/>
      </defs>
      <g>
       <use xlink:href="#m9e0171d4e3" x="62.260866" y="241.599141" style="fill: #7f7f7f; stroke: #7f7f7f; stroke-width: 1.8"/>
      </g>
     </g>
     <g id="text_1">
      <!-- 0 -->
      <g style="fill: #7f7f7f" transform="translate(59.079616 256.196797) scale(0.1 -0.1)">
       <defs>
        <path id="DejaVuSans-13" d="M 2034 4250 
Q 1547 4250 1301 3770 
Q 1056 3291 1056 2328 
Q 1056 1369 1301 889 
Q 1547 409 2034 409 
Q 2525 409 2770 889 
Q 3016 1369 3016 2328 
Q 3016 3291 2770 3770 
Q 2525 4250 2034 4250 
z
M 2034 4750 
Q 2819 4750 3233 4129 
Q 3647 3509 3647 2328 
Q 3647 1150 3233 529 
Q 2819 -91 2034 -91 
Q 1250 -91 836 529 
Q 422 1150 422 2328 
Q 422 3509 836 4129 
Q 1250 4750 2034 4750 
z
" transform="scale(0.015625)"/>
       </defs>
       <use xlink:href="#DejaVuSans-13"/>
      </g>
     </g>
    </g>
    <g id="xtick_2">
     <g id="line2d_3">
      <path d="M 157.373082 241.599141 
L 157.373082 7.2 
" clip-path="url(#p8efea8193b)" style="fill: none; stroke-dasharray: 2.96,1.28; stroke-dashoffset: 0; stroke: #7f7f7f; stroke-opacity: 0.6; stroke-width: 0.8"/>
     </g>
     <g id="line2d_4">
      <g>
       <use xlink:href="#m9e0171d4e3" x="157.373082" y="241.599141" style="fill: #7f7f7f; stroke: #7f7f7f; stroke-width: 1.8"/>
      </g>
     </g>
     <g id="text_2">
      <!-- 20 -->
      <g style="fill: #7f7f7f" transform="translate(151.010582 256.196797) scale(0.1 -0.1)">
       <defs>
        <path id="DejaVuSans-15" d="M 1228 531 
L 3431 531 
L 3431 0 
L 469 0 
L 469 531 
Q 828 903 1448 1529 
Q 2069 2156 2228 2338 
Q 2531 2678 2651 2914 
Q 2772 3150 2772 3378 
Q 2772 3750 2511 3984 
Q 2250 4219 1831 4219 
Q 1534 4219 1204 4116 
Q 875 4013 500 3803 
L 500 4441 
Q 881 4594 1212 4672 
Q 1544 4750 1819 4750 
Q 2544 4750 2975 4387 
Q 3406 4025 3406 3419 
Q 3406 3131 3298 2873 
Q 3191 2616 2906 2266 
Q 2828 2175 2409 1742 
Q 1991 1309 1228 531 
z
" transform="scale(0.015625)"/>
       </defs>
       <use xlink:href="#DejaVuSans-15"/>
       <use xlink:href="#DejaVuSans-13" transform="translate(63.625 0)"/>
      </g>
     </g>
    </g>
    <g id="xtick_3">
     <g id="line2d_5">
      <path d="M 252.485298 241.599141 
L 252.485298 7.2 
" clip-path="url(#p8efea8193b)" style="fill: none; stroke-dasharray: 2.96,1.28; stroke-dashoffset: 0; stroke: #7f7f7f; stroke-opacity: 0.6; stroke-width: 0.8"/>
     </g>
     <g id="line2d_6">
      <g>
       <use xlink:href="#m9e0171d4e3" x="252.485298" y="241.599141" style="fill: #7f7f7f; stroke: #7f7f7f; stroke-width: 1.8"/>
      </g>
     </g>
     <g id="text_3">
      <!-- 40 -->
      <g style="fill: #7f7f7f" transform="translate(246.122798 256.196797) scale(0.1 -0.1)">
       <defs>
        <path id="DejaVuSans-17" d="M 2419 4116 
L 825 1625 
L 2419 1625 
L 2419 4116 
z
M 2253 4666 
L 3047 4666 
L 3047 1625 
L 3713 1625 
L 3713 1100 
L 3047 1100 
L 3047 0 
L 2419 0 
L 2419 1100 
L 313 1100 
L 313 1709 
L 2253 4666 
z
" transform="scale(0.015625)"/>
       </defs>
       <use xlink:href="#DejaVuSans-17"/>
       <use xlink:href="#DejaVuSans-13" transform="translate(63.625 0)"/>
      </g>
     </g>
    </g>
    <g id="xtick_4">
     <g id="line2d_7">
      <path d="M 347.597514 241.599141 
L 347.597514 7.2 
" clip-path="url(#p8efea8193b)" style="fill: none; stroke-dasharray: 2.96,1.28; stroke-dashoffset: 0; stroke: #7f7f7f; stroke-opacity: 0.6; stroke-width: 0.8"/>
     </g>
     <g id="line2d_8">
      <g>
       <use xlink:href="#m9e0171d4e3" x="347.597514" y="241.599141" style="fill: #7f7f7f; stroke: #7f7f7f; stroke-width: 1.8"/>
      </g>
     </g>
     <g id="text_4">
      <!-- 60 -->
      <g style="fill: #7f7f7f" transform="translate(341.235014 256.196797) scale(0.1 -0.1)">
       <defs>
        <path id="DejaVuSans-19" d="M 2113 2584 
Q 1688 2584 1439 2293 
Q 1191 2003 1191 1497 
Q 1191 994 1439 701 
Q 1688 409 2113 409 
Q 2538 409 2786 701 
Q 3034 994 3034 1497 
Q 3034 2003 2786 2293 
Q 2538 2584 2113 2584 
z
M 3366 4563 
L 3366 3988 
Q 3128 4100 2886 4159 
Q 2644 4219 2406 4219 
Q 1781 4219 1451 3797 
Q 1122 3375 1075 2522 
Q 1259 2794 1537 2939 
Q 1816 3084 2150 3084 
Q 2853 3084 3261 2657 
Q 3669 2231 3669 1497 
Q 3669 778 3244 343 
Q 2819 -91 2113 -91 
Q 1303 -91 875 529 
Q 447 1150 447 2328 
Q 447 3434 972 4092 
Q 1497 4750 2381 4750 
Q 2619 4750 2861 4703 
Q 3103 4656 3366 4563 
z
" transform="scale(0.015625)"/>
       </defs>
       <use xlink:href="#DejaVuSans-19"/>
       <use xlink:href="#DejaVuSans-13" transform="translate(63.625 0)"/>
      </g>
     </g>
    </g>
    <g id="xtick_5">
     <g id="line2d_9">
      <path d="M 442.70973 241.599141 
L 442.70973 7.2 
" clip-path="url(#p8efea8193b)" style="fill: none; stroke-dasharray: 2.96,1.28; stroke-dashoffset: 0; stroke: #7f7f7f; stroke-opacity: 0.6; stroke-width: 0.8"/>
     </g>
     <g id="line2d_10">
      <g>
       <use xlink:href="#m9e0171d4e3" x="442.70973" y="241.599141" style="fill: #7f7f7f; stroke: #7f7f7f; stroke-width: 1.8"/>
      </g>
     </g>
     <g id="text_5">
      <!-- 80 -->
      <g style="fill: #7f7f7f" transform="translate(436.34723 256.196797) scale(0.1 -0.1)">
       <defs>
        <path id="DejaVuSans-1b" d="M 2034 2216 
Q 1584 2216 1326 1975 
Q 1069 1734 1069 1313 
Q 1069 891 1326 650 
Q 1584 409 2034 409 
Q 2484 409 2743 651 
Q 3003 894 3003 1313 
Q 3003 1734 2745 1975 
Q 2488 2216 2034 2216 
z
M 1403 2484 
Q 997 2584 770 2862 
Q 544 3141 544 3541 
Q 544 4100 942 4425 
Q 1341 4750 2034 4750 
Q 2731 4750 3128 4425 
Q 3525 4100 3525 3541 
Q 3525 3141 3298 2862 
Q 3072 2584 2669 2484 
Q 3125 2378 3379 2068 
Q 3634 1759 3634 1313 
Q 3634 634 3220 271 
Q 2806 -91 2034 -91 
Q 1263 -91 848 271 
Q 434 634 434 1313 
Q 434 1759 690 2068 
Q 947 2378 1403 2484 
z
M 1172 3481 
Q 1172 3119 1398 2916 
Q 1625 2713 2034 2713 
Q 2441 2713 2670 2916 
Q 2900 3119 2900 3481 
Q 2900 3844 2670 4047 
Q 2441 4250 2034 4250 
Q 1625 4250 1398 4047 
Q 1172 3844 1172 3481 
z
" transform="scale(0.015625)"/>
       </defs>
       <use xlink:href="#DejaVuSans-1b"/>
       <use xlink:href="#DejaVuSans-13" transform="translate(63.625 0)"/>
      </g>
     </g>
    </g>
    <g id="xtick_6">
     <g id="line2d_11">
      <path d="M 537.821946 241.599141 
L 537.821946 7.2 
" clip-path="url(#p8efea8193b)" style="fill: none; stroke-dasharray: 2.96,1.28; stroke-dashoffset: 0; stroke: #7f7f7f; stroke-opacity: 0.6; stroke-width: 0.8"/>
     </g>
     <g id="line2d_12">
      <g>
       <use xlink:href="#m9e0171d4e3" x="537.821946" y="241.599141" style="fill: #7f7f7f; stroke: #7f7f7f; stroke-width: 1.8"/>
      </g>
     </g>
     <g id="text_6">
      <!-- 100 -->
      <g style="fill: #7f7f7f" transform="translate(528.278196 256.196797) scale(0.1 -0.1)">
       <defs>
        <path id="DejaVuSans-14" d="M 794 531 
L 1825 531 
L 1825 4091 
L 703 3866 
L 703 4441 
L 1819 4666 
L 2450 4666 
L 2450 531 
L 3481 531 
L 3481 0 
L 794 0 
L 794 531 
z
" transform="scale(0.015625)"/>
       </defs>
       <use xlink:href="#DejaVuSans-14"/>
       <use xlink:href="#DejaVuSans-13" transform="translate(63.625 0)"/>
       <use xlink:href="#DejaVuSans-13" transform="translate(127.25 0)"/>
      </g>
     </g>
    </g>
    <g id="text_7">
     <!-- time [s] -->
     <g style="fill: #7f7f7f" transform="translate(278.710859 270.957422) scale(0.11 -0.11)">
      <defs>
       <path id="DejaVuSans-57" d="M 1172 4494 
L 1172 3500 
L 2356 3500 
L 2356 3053 
L 1172 3053 
L 1172 1153 
Q 1172 725 1289 603 
Q 1406 481 1766 481 
L 2356 481 
L 2356 0 
L 1766 0 
Q 1100 0 847 248 
Q 594 497 594 1153 
L 594 3053 
L 172 3053 
L 172 3500 
L 594 3500 
L 594 4494 
L 1172 4494 
z
" transform="scale(0.015625)"/>
       <path id="DejaVuSans-4c" d="M 603 3500 
L 1178 3500 
L 1178 0 
L 603 0 
L 603 3500 
z
M 603 4863 
L 1178 4863 
L 1178 4134 
L 603 4134 
L 603 4863 
z
" transform="scale(0.015625)"/>
       <path id="DejaVuSans-50" d="M 3328 2828 
Q 3544 3216 3844 3400 
Q 4144 3584 4550 3584 
Q 5097 3584 5394 3201 
Q 5691 2819 5691 2113 
L 5691 0 
L 5113 0 
L 5113 2094 
Q 5113 2597 4934 2840 
Q 4756 3084 4391 3084 
Q 3944 3084 3684 2787 
Q 3425 2491 3425 1978 
L 3425 0 
L 2847 0 
L 2847 2094 
Q 2847 2600 2669 2842 
Q 2491 3084 2119 3084 
Q 1678 3084 1418 2786 
Q 1159 2488 1159 1978 
L 1159 0 
L 581 0 
L 581 3500 
L 1159 3500 
L 1159 2956 
Q 1356 3278 1631 3431 
Q 1906 3584 2284 3584 
Q 2666 3584 2933 3390 
Q 3200 3197 3328 2828 
z
" transform="scale(0.015625)"/>
       <path id="DejaVuSans-48" d="M 3597 1894 
L 3597 1613 
L 953 1613 
Q 991 1019 1311 708 
Q 1631 397 2203 397 
Q 2534 397 2845 478 
Q 3156 559 3463 722 
L 3463 178 
Q 3153 47 2828 -22 
Q 2503 -91 2169 -91 
Q 1331 -91 842 396 
Q 353 884 353 1716 
Q 353 2575 817 3079 
Q 1281 3584 2069 3584 
Q 2775 3584 3186 3129 
Q 3597 2675 3597 1894 
z
M 3022 2063 
Q 3016 2534 2758 2815 
Q 2500 3097 2075 3097 
Q 1594 3097 1305 2825 
Q 1016 2553 972 2059 
L 3022 2063 
z
" transform="scale(0.015625)"/>
       <path id="DejaVuSans-3" transform="scale(0.015625)"/>
       <path id="DejaVuSans-3e" d="M 550 4863 
L 1875 4863 
L 1875 4416 
L 1125 4416 
L 1125 -397 
L 1875 -397 
L 1875 -844 
L 550 -844 
L 550 4863 
z
" transform="scale(0.015625)"/>
       <path id="DejaVuSans-56" d="M 2834 3397 
L 2834 2853 
Q 2591 2978 2328 3040 
Q 2066 3103 1784 3103 
Q 1356 3103 1142 2972 
Q 928 2841 928 2578 
Q 928 2378 1081 2264 
Q 1234 2150 1697 2047 
L 1894 2003 
Q 2506 1872 2764 1633 
Q 3022 1394 3022 966 
Q 3022 478 2636 193 
Q 2250 -91 1575 -91 
Q 1294 -91 989 -36 
Q 684 19 347 128 
L 347 722 
Q 666 556 975 473 
Q 1284 391 1588 391 
Q 1994 391 2212 530 
Q 2431 669 2431 922 
Q 2431 1156 2273 1281 
Q 2116 1406 1581 1522 
L 1381 1569 
Q 847 1681 609 1914 
Q 372 2147 372 2553 
Q 372 3047 722 3315 
Q 1072 3584 1716 3584 
Q 2034 3584 2315 3537 
Q 2597 3491 2834 3397 
z
" transform="scale(0.015625)"/>
       <path id="DejaVuSans-40" d="M 1947 4863 
L 1947 -844 
L 622 -844 
L 622 -397 
L 1369 -397 
L 1369 4416 
L 622 4416 
L 622 4863 
L 1947 4863 
z
" transform="scale(0.015625)"/>
      </defs>
      <use xlink:href="#DejaVuSans-57"/>
      <use xlink:href="#DejaVuSans-4c" transform="translate(39.203125 0)"/>
      <use xlink:href="#DejaVuSans-50" transform="translate(66.984375 0)"/>
      <use xlink:href="#DejaVuSans-48" transform="translate(164.390625 0)"/>
      <use xlink:href="#DejaVuSans-3" transform="translate(225.921875 0)"/>
      <use xlink:href="#DejaVuSans-3e" transform="translate(257.703125 0)"/>
      <use xlink:href="#DejaVuSans-56" transform="translate(296.71875 0)"/>
      <use xlink:href="#DejaVuSans-40" transform="translate(348.8125 0)"/>
     </g>
    </g>
   </g>
   <g id="matplotlib.axis_2">
    <g id="ytick_1">
     <g id="line2d_13">
      <path d="M 38.482813 216.807614 
L 561.6 216.807614 
" clip-path="url(#p8efea8193b)" style="fill: none; stroke-dasharray: 2.96,1.28; stroke-dashoffset: 0; stroke: #7f7f7f; stroke-opacity: 0.6; stroke-width: 0.8"/>
     </g>
     <g id="line2d_14">
      <defs>
       <path id="m97e88ae6ca" d="M 0 0 
L -3.5 0 
" style="stroke: #7f7f7f; stroke-width: 1.8"/>
      </defs>
      <g>
       <use xlink:href="#m97e88ae6ca" x="38.482813" y="216.807614" style="fill: #7f7f7f; stroke: #7f7f7f; stroke-width: 1.8"/>
      </g>
     </g>
     <g id="text_8">
      <!-- −0.2 -->
      <g style="fill: #7f7f7f" transform="translate(7.2 220.606442) scale(0.1 -0.1)">
       <defs>
        <path id="DejaVuSans-c9c" d="M 678 2272 
L 4684 2272 
L 4684 1741 
L 678 1741 
L 678 2272 
z
" transform="scale(0.015625)"/>
        <path id="DejaVuSans-11" d="M 684 794 
L 1344 794 
L 1344 0 
L 684 0 
L 684 794 
z
" transform="scale(0.015625)"/>
       </defs>
       <use xlink:href="#DejaVuSans-c9c"/>
       <use xlink:href="#DejaVuSans-13" transform="translate(83.796875 0)"/>
       <use xlink:href="#DejaVuSans-11" transform="translate(147.421875 0)"/>
       <use xlink:href="#DejaVuSans-15" transform="translate(179.203125 0)"/>
      </g>
     </g>
    </g>
    <g id="ytick_2">
     <g id="line2d_15">
      <path d="M 38.482813 185.753763 
L 561.6 185.753763 
" clip-path="url(#p8efea8193b)" style="fill: none; stroke-dasharray: 2.96,1.28; stroke-dashoffset: 0; stroke: #7f7f7f; stroke-opacity: 0.6; stroke-width: 0.8"/>
     </g>
     <g id="line2d_16">
      <g>
       <use xlink:href="#m97e88ae6ca" x="38.482813" y="185.753763" style="fill: #7f7f7f; stroke: #7f7f7f; stroke-width: 1.8"/>
      </g>
     </g>
     <g id="text_9">
      <!-- 0.0 -->
      <g style="fill: #7f7f7f" transform="translate(15.579688 189.552591) scale(0.1 -0.1)">
       <use xlink:href="#DejaVuSans-13"/>
       <use xlink:href="#DejaVuSans-11" transform="translate(63.625 0)"/>
       <use xlink:href="#DejaVuSans-13" transform="translate(95.40625 0)"/>
      </g>
     </g>
    </g>
    <g id="ytick_3">
     <g id="line2d_17">
      <path d="M 38.482813 154.699912 
L 561.6 154.699912 
" clip-path="url(#p8efea8193b)" style="fill: none; stroke-dasharray: 2.96,1.28; stroke-dashoffset: 0; stroke: #7f7f7f; stroke-opacity: 0.6; stroke-width: 0.8"/>
     </g>
     <g id="line2d_18">
      <g>
       <use xlink:href="#m97e88ae6ca" x="38.482813" y="154.699912" style="fill: #7f7f7f; stroke: #7f7f7f; stroke-width: 1.8"/>
      </g>
     </g>
     <g id="text_10">
      <!-- 0.2 -->
      <g style="fill: #7f7f7f" transform="translate(15.579688 158.49874) scale(0.1 -0.1)">
       <use xlink:href="#DejaVuSans-13"/>
       <use xlink:href="#DejaVuSans-11" transform="translate(63.625 0)"/>
       <use xlink:href="#DejaVuSans-15" transform="translate(95.40625 0)"/>
      </g>
     </g>
    </g>
    <g id="ytick_4">
     <g id="line2d_19">
      <path d="M 38.482813 123.646061 
L 561.6 123.646061 
" clip-path="url(#p8efea8193b)" style="fill: none; stroke-dasharray: 2.96,1.28; stroke-dashoffset: 0; stroke: #7f7f7f; stroke-opacity: 0.6; stroke-width: 0.8"/>
     </g>
     <g id="line2d_20">
      <g>
       <use xlink:href="#m97e88ae6ca" x="38.482813" y="123.646061" style="fill: #7f7f7f; stroke: #7f7f7f; stroke-width: 1.8"/>
      </g>
     </g>
     <g id="text_11">
      <!-- 0.4 -->
      <g style="fill: #7f7f7f" transform="translate(15.579688 127.444889) scale(0.1 -0.1)">
       <use xlink:href="#DejaVuSans-13"/>
       <use xlink:href="#DejaVuSans-11" transform="translate(63.625 0)"/>
       <use xlink:href="#DejaVuSans-17" transform="translate(95.40625 0)"/>
      </g>
     </g>
    </g>
    <g id="ytick_5">
     <g id="line2d_21">
      <path d="M 38.482813 92.59221 
L 561.6 92.59221 
" clip-path="url(#p8efea8193b)" style="fill: none; stroke-dasharray: 2.96,1.28; stroke-dashoffset: 0; stroke: #7f7f7f; stroke-opacity: 0.6; stroke-width: 0.8"/>
     </g>
     <g id="line2d_22">
      <g>
       <use xlink:href="#m97e88ae6ca" x="38.482813" y="92.59221" style="fill: #7f7f7f; stroke: #7f7f7f; stroke-width: 1.8"/>
      </g>
     </g>
     <g id="text_12">
      <!-- 0.6 -->
      <g style="fill: #7f7f7f" transform="translate(15.579688 96.391038) scale(0.1 -0.1)">
       <use xlink:href="#DejaVuSans-13"/>
       <use xlink:href="#DejaVuSans-11" transform="translate(63.625 0)"/>
       <use xlink:href="#DejaVuSans-19" transform="translate(95.40625 0)"/>
      </g>
     </g>
    </g>
    <g id="ytick_6">
     <g id="line2d_23">
      <path d="M 38.482813 61.538359 
L 561.6 61.538359 
" clip-path="url(#p8efea8193b)" style="fill: none; stroke-dasharray: 2.96,1.28; stroke-dashoffset: 0; stroke: #7f7f7f; stroke-opacity: 0.6; stroke-width: 0.8"/>
     </g>
     <g id="line2d_24">
      <g>
       <use xlink:href="#m97e88ae6ca" x="38.482813" y="61.538359" style="fill: #7f7f7f; stroke: #7f7f7f; stroke-width: 1.8"/>
      </g>
     </g>
     <g id="text_13">
      <!-- 0.8 -->
      <g style="fill: #7f7f7f" transform="translate(15.579688 65.337187) scale(0.1 -0.1)">
       <use xlink:href="#DejaVuSans-13"/>
       <use xlink:href="#DejaVuSans-11" transform="translate(63.625 0)"/>
       <use xlink:href="#DejaVuSans-1b" transform="translate(95.40625 0)"/>
      </g>
     </g>
    </g>
    <g id="ytick_7">
     <g id="line2d_25">
      <path d="M 38.482813 30.484508 
L 561.6 30.484508 
" clip-path="url(#p8efea8193b)" style="fill: none; stroke-dasharray: 2.96,1.28; stroke-dashoffset: 0; stroke: #7f7f7f; stroke-opacity: 0.6; stroke-width: 0.8"/>
     </g>
     <g id="line2d_26">
      <g>
       <use xlink:href="#m97e88ae6ca" x="38.482813" y="30.484508" style="fill: #7f7f7f; stroke: #7f7f7f; stroke-width: 1.8"/>
      </g>
     </g>
     <g id="text_14">
      <!-- 1.0 -->
      <g style="fill: #7f7f7f" transform="translate(15.579688 34.283336) scale(0.1 -0.1)">
       <use xlink:href="#DejaVuSans-14"/>
       <use xlink:href="#DejaVuSans-11" transform="translate(63.625 0)"/>
       <use xlink:href="#DejaVuSans-13" transform="translate(95.40625 0)"/>
      </g>
     </g>
    </g>
   </g>
   <g id="line2d_27">
    <path d="M 62.260866 185.753763 
L 157.373074 185.753763 
L 158.273509 30.484508 
L 347.597501 30.484508 
L 348.494986 108.119135 
L 537.821946 108.119135 
L 537.821946 108.119135 
" clip-path="url(#p8efea8193b)" style="fill: none; stroke: #e41a1c; stroke-width: 2; stroke-linecap: square"/>
   </g>
   <g id="line2d_28">
    <path d="M 62.260866 185.753763 
L 62.479847 187.290688 
L 62.379949 185.248016 
L 62.971102 185.512098 
L 64.225467 186.461494 
L 65.158244 184.748861 
L 65.479174 186.626869 
L 66.216663 186.0286 
L 67.265414 185.10377 
L 68.460012 185.976116 
L 69.183885 185.164222 
L 69.590322 185.834755 
L 71.037877 186.419841 
L 71.853313 184.168826 
L 73.290807 185.855636 
L 74.057795 185.551005 
L 75.284795 185.566248 
L 77.962398 186.063629 
L 79.169206 185.792 
L 80.382526 186.183904 
L 80.74008 184.627058 
L 81.079378 186.453061 
L 83.56462 186.093746 
L 84.784762 186.146692 
L 86.514909 185.848402 
L 87.56079 185.95633 
L 89.158295 185.163649 
L 91.344883 185.706441 
L 91.591301 185.305429 
L 92.179402 186.117213 
L 97.071941 185.311455 
L 98.320041 185.502427 
L 104.259373 185.772859 
L 104.505454 186.252617 
L 104.848107 185.427322 
L 105.172006 185.621952 
L 106.183675 185.737871 
L 106.557398 184.397613 
L 107.261043 184.64055 
L 107.572345 185.602815 
L 108.352873 185.286462 
L 109.265613 185.444724 
L 109.69226 184.679623 
L 110.22752 185.049244 
L 111.722164 186.291774 
L 112.844479 185.194437 
L 113.181145 185.762155 
L 115.531454 185.936884 
L 116.903902 185.209849 
L 118.67423 186.554439 
L 119.738435 185.279613 
L 121.052546 185.479536 
L 122.730714 186.154909 
L 123.962548 185.386653 
L 124.614396 186.206817 
L 125.031 185.441686 
L 125.435564 185.1959 
L 126.514412 186.174464 
L 127.676115 186.0292 
L 128.019905 187.019106 
L 128.331338 184.978776 
L 128.613967 185.920479 
L 129.300321 186.169612 
L 129.614704 185.269257 
L 130.188952 186.379882 
L 131.458915 185.873482 
L 133.51233 187.297241 
L 134.89736 185.904736 
L 135.26724 186.366944 
L 135.689373 185.771151 
L 136.076967 185.462125 
L 136.436276 186.03162 
L 136.725982 186.537385 
L 137.349381 185.972379 
L 138.827144 185.628867 
L 139.15345 185.293349 
L 139.468158 186.278001 
L 139.759165 186.084703 
L 151.56516 185.993849 
L 151.880548 186.317791 
L 152.175847 185.876299 
L 153.219806 185.138498 
L 153.629012 186.015379 
L 154.024686 185.726722 
L 155.264468 185.521915 
L 157.364429 185.436692 
L 157.374999 201.28081 
L 157.373585 167.971438 
L 158.273509 185.946926 
L 158.73421 184.977569 
L 158.886118 185.740864 
L 159.048117 186.913543 
L 159.431653 184.903189 
L 159.761128 185.076662 
L 160.311337 186.283427 
L 161.380488 184.205486 
L 161.602506 185.321785 
L 162.472509 184.79808 
L 163.067432 184.519009 
L 164.304196 182.601168 
L 164.606326 182.72385 
L 165.240138 181.657615 
L 176.424042 136.347453 
L 179.933305 117.022721 
L 191.612364 61.051523 
L 192.05006 60.390232 
L 194.008091 52.856806 
L 205.185496 26.083539 
L 205.621559 26.263724 
L 206.890285 24.736955 
L 209.615323 21.540587 
L 210.385644 21.826554 
L 211.698736 20.723485 
L 214.280211 19.671518 
L 215.792012 19.266921 
L 218.252778 19.223198 
L 218.603654 19.803886 
L 219.136526 19.177274 
L 219.493627 18.705985 
L 220.190116 19.280559 
L 233.627893 23.388366 
L 233.996811 24.679134 
L 234.404625 23.931286 
L 236.447963 24.368768 
L 239.07919 26.227252 
L 240.26695 26.038416 
L 241.316724 27.243865 
L 241.730102 26.588876 
L 242.59294 26.748604 
L 244.69798 26.909295 
L 247.885639 28.555024 
L 252.82545 30.490504 
L 253.217313 29.597557 
L 253.616447 29.923957 
L 253.961304 30.619513 
L 254.777696 30.045801 
L 256.08759 30.89858 
L 256.923154 30.994384 
L 257.271215 30.221059 
L 257.612971 30.817617 
L 259.590411 31.045033 
L 259.962099 30.188473 
L 260.3423 30.545524 
L 260.693515 31.371081 
L 261.399278 30.919587 
L 262.184233 30.471862 
L 263.412892 31.033365 
L 264.953696 31.494658 
L 269.669146 31.189365 
L 271.264016 31.316179 
L 273.489527 31.338085 
L 275.090762 31.528553 
L 276.34959 30.825422 
L 277.244039 30.970058 
L 278.153418 31.369015 
L 278.987651 30.507207 
L 279.430519 30.895814 
L 280.994517 30.908975 
L 282.874432 30.780024 
L 286.871621 30.442987 
L 287.323075 30.171787 
L 287.71357 31.081366 
L 288.53798 30.889756 
L 290.641881 30.484803 
L 292.173897 31.17438 
L 293.45824 31.20066 
L 294.85438 31.372578 
L 295.189851 29.960977 
L 296.03836 30.589585 
L 300.98185 31.10903 
L 301.361988 30.23098 
L 301.746917 31.00331 
L 304.59485 30.401295 
L 304.948726 29.789958 
L 305.344849 30.517564 
L 308.231883 30.533312 
L 309.492918 31.107504 
L 311.050499 31.15154 
L 312.150071 30.77926 
L 313.472666 31.420709 
L 315.163663 29.812293 
L 316.329666 30.800265 
L 316.77273 30.086049 
L 317.193498 31.13594 
L 319.694185 29.487976 
L 321.726071 30.52557 
L 324.14617 29.941391 
L 325.919171 30.172569 
L 328.160564 30.694819 
L 328.566722 29.50432 
L 328.938638 29.903404 
L 330.415563 30.652332 
L 331.257365 29.80365 
L 331.71088 30.159526 
L 344.143846 30.793613 
L 345.291964 30.038808 
L 346.864492 30.665967 
L 347.367421 30.878905 
L 347.541001 29.812134 
L 347.591342 30.930684 
L 347.597391 29.902332 
L 347.599022 55.276451 
L 347.5979 17.854506 
L 348.494986 31.036272 
L 350.060046 29.972144 
L 350.872958 31.333685 
L 351.482388 30.603983 
L 351.83328 30.954087 
L 353.440729 31.65325 
L 356.076084 34.017514 
L 356.516771 33.649523 
L 356.888721 34.129561 
L 362.617362 45.143797 
L 365.166431 51.235242 
L 381.583549 92.067733 
L 388.867068 103.550421 
L 389.34015 103.261029 
L 390.734808 105.450703 
L 393.951374 109.062087 
L 395.416631 109.636782 
L 397.044163 110.72976 
L 401.696174 113.518158 
L 403.026284 113.10366 
L 405.78265 113.655406 
L 406.231978 114.020838 
L 406.681893 113.417266 
L 407.196785 112.890098 
L 408.555034 114.1536 
L 409.801769 113.098504 
L 411.830912 113.335357 
L 412.561541 112.600568 
L 412.897004 113.383839 
L 414.977275 113.492666 
L 415.446786 112.490693 
L 416.336701 112.940032 
L 416.73736 113.666432 
L 417.146668 112.365397 
L 419.132662 112.152424 
L 424.553559 110.968092 
L 425.033311 112.126319 
L 425.487768 111.089017 
L 426.992646 111.0743 
L 428.322326 110.203806 
L 429.633567 110.544729 
L 431.988786 109.905696 
L 432.373335 110.600751 
L 432.837206 109.798636 
L 433.283158 109.436704 
L 433.729376 110.030229 
L 437.479971 110.267701 
L 438.723127 108.60652 
L 440.033724 109.382385 
L 441.21765 108.898874 
L 442.848341 108.930793 
L 444.101487 107.798625 
L 444.954638 108.450279 
L 445.749224 107.572421 
L 446.121822 108.608598 
L 446.91401 108.065823 
L 448.03027 107.999777 
L 448.443363 107.438409 
L 448.859608 108.433702 
L 450.056976 107.231871 
L 450.430343 108.17882 
L 450.811039 108.533651 
L 451.222721 107.296054 
L 451.999563 108.087521 
L 454.836385 107.300409 
L 455.70479 108.129211 
L 456.036063 107.357882 
L 456.363603 107.200631 
L 456.732818 107.980209 
L 457.914827 107.935842 
L 461.124362 108.058475 
L 462.892471 107.363055 
L 463.896289 108.013861 
L 465.457973 107.336031 
L 465.847899 108.233524 
L 466.243183 107.49058 
L 470.29881 107.671707 
L 471.49843 107.653097 
L 474.526995 107.589596 
L 475.78699 107.938923 
L 477.091668 107.587002 
L 478.697222 108.009777 
L 481.293619 107.178306 
L 483.105949 107.809808 
L 485.308334 108.053494 
L 490.05941 107.764588 
L 491.396528 108.262646 
L 491.810385 108.79326 
L 492.210643 107.318179 
L 492.945944 108.3254 
L 494.137726 108.009458 
L 495.384995 108.050692 
L 496.712147 107.601282 
L 497.849803 108.310928 
L 498.225632 107.134286 
L 498.59923 107.941183 
L 499.00798 108.491772 
L 499.401516 107.999016 
L 499.803982 107.442262 
L 500.19422 108.112841 
L 501.956581 107.759354 
L 502.407857 107.388379 
L 502.750957 109.17953 
L 503.461739 107.885077 
L 507.574129 108.189346 
L 507.989463 107.248515 
L 508.763006 107.621208 
L 509.980507 108.488927 
L 510.408582 107.656275 
L 510.810403 107.895879 
L 511.603959 108.42485 
L 511.985773 107.956686 
L 512.787807 107.36312 
L 513.226716 107.821656 
L 514.477306 108.161105 
L 515.747566 108.23099 
L 520.54985 108.456518 
L 523.159137 107.854004 
L 524.853975 108.670176 
L 526.013029 109.042001 
L 526.384248 108.037476 
L 526.775685 108.843564 
L 527.724124 108.659766 
L 528.506263 107.72149 
L 528.916757 108.176757 
L 531.38674 108.409087 
L 532.642725 108.001817 
L 533.531171 108.057254 
L 534.723188 108.259291 
L 535.548808 108.118356 
L 537.821946 108.244538 
L 537.821946 108.244538 
" clip-path="url(#p8efea8193b)" style="fill: none; stroke: #377eb8; stroke-width: 2; stroke-linecap: square"/>
   </g>
   <g id="line2d_29">
    <path d="M 62.260866 185.753763 
L 62.479847 187.015993 
L 62.379949 185.578878 
L 62.971102 185.857646 
L 64.225467 185.960769 
L 64.545142 184.794599 
L 65.158244 185.335301 
L 66.56197 186.073031 
L 67.670532 185.56713 
L 68.460012 185.973253 
L 68.828084 185.26309 
L 69.590322 185.802303 
L 75.671602 185.724393 
L 76.005092 186.600753 
L 76.741447 186.18892 
L 77.962398 185.615451 
L 80.004409 185.514627 
L 80.382526 185.17316 
L 80.74008 186.056362 
L 81.417246 186.282472 
L 81.676397 184.541057 
L 82.281104 185.705498 
L 90.703543 185.293609 
L 91.344883 184.416401 
L 91.591301 185.607907 
L 91.875722 186.043639 
L 92.55156 185.417029 
L 93.641785 186.15973 
L 93.954766 186.453586 
L 94.224771 185.169065 
L 94.472805 186.579202 
L 94.727084 185.428676 
L 94.981191 186.434815 
L 95.531484 184.758067 
L 95.810457 185.700944 
L 98.320041 186.086686 
L 99.473289 185.704472 
L 103.994014 185.397032 
L 104.259373 186.975036 
L 104.848107 186.437666 
L 105.496403 185.59398 
L 105.846835 186.364871 
L 107.261043 185.037012 
L 108.352873 185.750436 
L 109.69226 185.735933 
L 109.968861 186.860367 
L 110.22752 185.313812 
L 110.471349 185.66652 
L 112.093112 185.556796 
L 114.806121 186.194112 
L 115.531454 185.131673 
L 115.850249 186.270315 
L 117.262413 185.491939 
L 118.301398 185.555573 
L 119.033053 185.576865 
L 119.403093 186.224721 
L 120.057757 185.70484 
L 123.464622 185.678522 
L 123.724321 187.145187 
L 124.206426 185.696868 
L 126.159272 186.280127 
L 127.676115 185.266029 
L 129.300321 186.319193 
L 129.614704 185.29643 
L 130.488661 185.61068 
L 130.833925 185.084281 
L 131.15934 186.176297 
L 135.689373 185.314842 
L 136.725982 186.400322 
L 137.016877 186.007523 
L 137.349381 184.940254 
L 137.654456 185.805743 
L 138.565522 186.803407 
L 138.827144 185.916287 
L 144.06958 185.679501 
L 144.462451 186.203601 
L 144.839589 185.669831 
L 146.869627 185.90558 
L 147.197555 186.416073 
L 147.47605 185.181926 
L 149.270497 185.950356 
L 150.783576 185.241609 
L 154.024686 186.032174 
L 155.990419 185.727549 
L 156.319902 186.64596 
L 157.071947 185.848712 
L 157.254422 185.370527 
L 157.364429 187.36893 
L 157.369375 187.289212 
L 157.373202 230.944634 
L 157.373585 171.226952 
L 158.273509 184.532006 
L 158.73421 186.034261 
L 159.048117 183.969058 
L 159.761128 185.721704 
L 159.909497 183.99606 
L 161.602506 181.449118 
L 162.472509 181.439742 
L 163.727116 179.777016 
L 164.029533 181.151726 
L 164.606326 179.605671 
L 164.933896 179.87283 
L 165.687713 178.09034 
L 166.151447 178.33268 
L 166.864653 178.522503 
L 167.198926 178.227762 
L 168.303498 176.879369 
L 168.702171 177.219042 
L 169.073 177.11762 
L 170.3962 175.44129 
L 172.298879 176.025887 
L 173.533169 174.634319 
L 173.924954 174.667587 
L 175.499673 173.109122 
L 178.34795 172.226798 
L 179.247454 171.411941 
L 179.592546 172.226825 
L 179.933305 171.69109 
L 181.991739 170.773309 
L 182.353715 171.556338 
L 183.10809 170.820511 
L 184.214589 170.953008 
L 185.004489 169.48536 
L 185.354642 170.053364 
L 201.54517 169.114106 
L 202.844853 168.68584 
L 203.947937 167.766403 
L 205.185496 168.935774 
L 206.890285 168.766744 
L 210.008945 169.134069 
L 211.198719 168.863222 
L 213.416722 169.031694 
L 214.733772 169.084196 
L 216.333509 169.325973 
L 219.136526 169.865388 
L 220.190116 168.765418 
L 221.511451 169.47746 
L 222.972136 169.911471 
L 224.219529 169.607223 
L 227.100821 169.934483 
L 228.367223 169.809048 
L 229.314112 170.064941 
L 230.484606 169.468218 
L 232.163544 170.475283 
L 232.517178 169.731558 
L 232.946846 169.957866 
L 233.627893 170.854003 
L 233.996811 169.818532 
L 234.404625 170.631415 
L 237.848343 169.630555 
L 239.07919 170.162326 
L 240.26695 169.706826 
L 240.597952 170.860131 
L 241.316724 169.831418 
L 242.59294 170.627347 
L 244.191856 170.15733 
L 246.141212 170.806786 
L 248.290706 169.58727 
L 248.598544 171.380762 
L 249.23378 170.212453 
L 249.639562 169.272189 
L 250.009863 170.288973 
L 250.397123 170.765162 
L 250.751238 170.236405 
L 260.693515 169.817358 
L 261.042099 169.517137 
L 261.399278 170.885759 
L 262.184233 170.254708 
L 264.133469 169.819164 
L 265.457541 170.572784 
L 267.288786 169.780467 
L 267.654142 170.491455 
L 268.120088 170.109793 
L 270.078868 170.764655 
L 271.264016 170.290577 
L 274.287762 170.39563 
L 280.994517 170.191892 
L 283.382466 170.506644 
L 286.871621 170.082154 
L 289.395701 170.816646 
L 289.767179 169.925056 
L 290.180251 170.317395 
L 291.04912 170.861057 
L 291.419144 169.31991 
L 292.173897 170.129251 
L 293.45824 170.355739 
L 294.85438 170.386587 
L 302.621612 170.210042 
L 303.011464 171.071555 
L 303.379941 170.327125 
L 307.078061 170.111805 
L 307.836464 170.731514 
L 308.231883 170.022975 
L 310.278783 170.628413 
L 311.759354 169.427135 
L 312.577907 170.325054 
L 312.996483 169.876457 
L 314.329733 169.996281 
L 320.120177 170.263846 
L 321.319958 170.143323 
L 321.726071 170.527642 
L 322.130268 169.989497 
L 322.958487 170.625971 
L 323.378681 170.882665 
L 323.761662 169.6834 
L 324.14617 170.479562 
L 325.919171 169.927188 
L 326.249146 171.058705 
L 326.574678 169.527639 
L 326.918497 170.42198 
L 327.316581 170.051915 
L 327.717234 170.545867 
L 329.334157 170.65211 
L 330.070746 169.524742 
L 330.415563 170.391307 
L 331.71088 170.006102 
L 332.603203 170.215347 
L 333.781369 170.753735 
L 335.823253 170.271063 
L 339.530764 170.807586 
L 340.855292 169.918781 
L 342.871991 170.281339 
L 344.526952 169.828177 
L 344.9172 170.938986 
L 345.291964 170.778256 
L 345.678591 169.700235 
L 346.061697 171.258892 
L 346.430783 170.54135 
L 347.583124 169.820689 
L 347.597709 163.357588 
L 347.599022 184.281003 
L 348.494986 169.511767 
L 348.791466 171.226741 
L 349.665118 170.83933 
L 352.179517 171.965216 
L 352.556583 171.239408 
L 352.906088 172.680907 
L 354.634058 173.647755 
L 354.959502 172.036429 
L 355.680845 173.149408 
L 357.264057 174.438554 
L 357.621483 173.889574 
L 364.7252 176.523372 
L 365.568357 175.997338 
L 365.950308 176.624593 
L 369.537734 176.821526 
L 369.976134 177.640323 
L 370.306189 176.304158 
L 370.631226 177.138325 
L 371.510715 177.474211 
L 371.844863 178.361326 
L 372.617051 177.779011 
L 374.82475 178.015025 
L 393.487691 178.754681 
L 395.416631 178.284955 
L 396.220404 179.222684 
L 396.605366 178.377812 
L 397.044163 178.898859 
L 398.866888 178.690509 
L 399.6275 177.260924 
L 399.973601 179.070638 
L 400.738024 178.409626 
L 404.395404 178.790895 
L 405.78265 178.457189 
L 407.701464 178.574293 
L 411.415118 178.448468 
L 411.830912 178.870126 
L 412.222627 178.342158 
L 413.2549 177.459238 
L 413.609006 178.202957 
L 414.086134 177.852412 
L 416.73736 178.383901 
L 418.755599 178.870578 
L 420.659598 177.397407 
L 422.23324 178.336992 
L 423.145517 177.748784 
L 423.576012 178.179351 
L 425.487768 177.906763 
L 427.420381 178.498706 
L 428.847768 178.005006 
L 430.024398 178.449485 
L 431.187772 177.497066 
L 432.837206 178.223355 
L 443.264349 177.981964 
L 443.703015 178.725812 
L 444.101487 178.106603 
L 445.749224 177.824299 
L 447.346817 178.115728 
L 447.690222 177.237796 
L 448.443363 177.950291 
L 449.240507 178.211796 
L 449.685129 177.489483 
L 450.056976 178.038355 
L 451.222721 178.110459 
L 451.999563 177.50893 
L 453.282838 178.322083 
L 453.668278 177.849176 
L 454.0563 178.260234 
L 455.70479 178.359725 
L 456.036063 177.251444 
L 456.363603 177.353079 
L 456.732818 179.043082 
L 457.45573 178.26022 
L 459.854097 177.863636 
L 463.210417 179.074221 
L 464.337324 177.886001 
L 464.724705 177.213315 
L 465.073978 178.33926 
L 466.694138 177.8244 
L 467.953804 178.045484 
L 468.275842 176.848395 
L 468.594015 178.396999 
L 468.93592 177.912548 
L 471.088833 178.221428 
L 471.49843 177.329501 
L 471.873854 177.731013 
L 473.226562 178.061286 
L 474.927167 177.878134 
L 476.254222 178.273929 
L 477.531164 177.795432 
L 477.925279 178.417589 
L 478.301469 177.473876 
L 481.293619 178.053311 
L 484.006994 178.389723 
L 485.308334 178.142216 
L 486.725445 178.293332 
L 487.582422 177.614084 
L 487.963298 177.350289 
L 488.326014 178.059988 
L 501.956581 178.032225 
L 502.750957 177.91032 
L 503.095175 178.565497 
L 503.461739 177.913838 
L 505.111564 177.770792 
L 506.470456 177.747811 
L 507.989463 178.33974 
L 508.377668 178.673167 
L 509.564717 177.556328 
L 511.603959 178.611943 
L 511.985773 177.591567 
L 512.378361 178.488163 
L 515.747566 177.765151 
L 517.527394 177.914919 
L 518.81199 178.019692 
L 520.094784 177.694766 
L 528.506263 178.208215 
L 529.309582 178.341915 
L 530.146832 177.228519 
L 530.517325 178.28433 
L 530.928715 177.746832 
L 534.311721 177.889621 
L 534.723188 178.751876 
L 535.107097 178.162544 
L 537.821946 177.776252 
L 537.821946 177.776252 
" clip-path="url(#p8efea8193b)" style="fill: none; stroke: #4daf4a; stroke-width: 2; stroke-linecap: square"/>
   </g>
   <g id="patch_3">
    <path d="M 38.482813 241.599141 
L 38.482813 7.2 
" style="fill: none; stroke: #7f7f7f; stroke-width: 1.8; stroke-linejoin: miter; stroke-linecap: square"/>
   </g>
   <g id="patch_4">
    <path d="M 38.482813 241.599141 
L 561.6 241.599141 
" style="fill: none; stroke: #7f7f7f; stroke-width: 1.8; stroke-linejoin: miter; stroke-linecap: square"/>
   </g>
   <g id="legend_1">
    <g id="line2d_30">
     <path d="M 483.814062 20.298438 
L 493.814062 20.298438 
L 503.814062 20.298438 
" style="fill: none; stroke: #e41a1c; stroke-width: 2; stroke-linecap: square"/>
    </g>
    <g id="text_15">
     <!-- setpoint -->
     <g style="fill: #7f7f7f" transform="translate(511.814062 23.798438) scale(0.1 -0.1)">
      <defs>
       <path id="DejaVuSans-53" d="M 1159 525 
L 1159 -1331 
L 581 -1331 
L 581 3500 
L 1159 3500 
L 1159 2969 
Q 1341 3281 1617 3432 
Q 1894 3584 2278 3584 
Q 2916 3584 3314 3078 
Q 3713 2572 3713 1747 
Q 3713 922 3314 415 
Q 2916 -91 2278 -91 
Q 1894 -91 1617 61 
Q 1341 213 1159 525 
z
M 3116 1747 
Q 3116 2381 2855 2742 
Q 2594 3103 2138 3103 
Q 1681 3103 1420 2742 
Q 1159 2381 1159 1747 
Q 1159 1113 1420 752 
Q 1681 391 2138 391 
Q 2594 391 2855 752 
Q 3116 1113 3116 1747 
z
" transform="scale(0.015625)"/>
       <path id="DejaVuSans-52" d="M 1959 3097 
Q 1497 3097 1228 2736 
Q 959 2375 959 1747 
Q 959 1119 1226 758 
Q 1494 397 1959 397 
Q 2419 397 2687 759 
Q 2956 1122 2956 1747 
Q 2956 2369 2687 2733 
Q 2419 3097 1959 3097 
z
M 1959 3584 
Q 2709 3584 3137 3096 
Q 3566 2609 3566 1747 
Q 3566 888 3137 398 
Q 2709 -91 1959 -91 
Q 1206 -91 779 398 
Q 353 888 353 1747 
Q 353 2609 779 3096 
Q 1206 3584 1959 3584 
z
" transform="scale(0.015625)"/>
       <path id="DejaVuSans-51" d="M 3513 2113 
L 3513 0 
L 2938 0 
L 2938 2094 
Q 2938 2591 2744 2837 
Q 2550 3084 2163 3084 
Q 1697 3084 1428 2787 
Q 1159 2491 1159 1978 
L 1159 0 
L 581 0 
L 581 3500 
L 1159 3500 
L 1159 2956 
Q 1366 3272 1645 3428 
Q 1925 3584 2291 3584 
Q 2894 3584 3203 3211 
Q 3513 2838 3513 2113 
z
" transform="scale(0.015625)"/>
      </defs>
      <use xlink:href="#DejaVuSans-56"/>
      <use xlink:href="#DejaVuSans-48" transform="translate(52.09375 0)"/>
      <use xlink:href="#DejaVuSans-57" transform="translate(113.625 0)"/>
      <use xlink:href="#DejaVuSans-53" transform="translate(152.828125 0)"/>
      <use xlink:href="#DejaVuSans-52" transform="translate(216.3125 0)"/>
      <use xlink:href="#DejaVuSans-4c" transform="translate(277.5 0)"/>
      <use xlink:href="#DejaVuSans-51" transform="translate(305.28125 0)"/>
      <use xlink:href="#DejaVuSans-57" transform="translate(368.65625 0)"/>
     </g>
    </g>
    <g id="line2d_31">
     <path d="M 483.814062 35.299219 
L 493.814062 35.299219 
L 503.814062 35.299219 
" style="fill: none; stroke: #377eb8; stroke-width: 2; stroke-linecap: square"/>
    </g>
    <g id="text_16">
     <!-- plant 1 -->
     <g style="fill: #7f7f7f" transform="translate(511.814062 38.799219) scale(0.1 -0.1)">
      <defs>
       <path id="DejaVuSans-4f" d="M 603 4863 
L 1178 4863 
L 1178 0 
L 603 0 
L 603 4863 
z
" transform="scale(0.015625)"/>
       <path id="DejaVuSans-44" d="M 2194 1759 
Q 1497 1759 1228 1600 
Q 959 1441 959 1056 
Q 959 750 1161 570 
Q 1363 391 1709 391 
Q 2188 391 2477 730 
Q 2766 1069 2766 1631 
L 2766 1759 
L 2194 1759 
z
M 3341 1997 
L 3341 0 
L 2766 0 
L 2766 531 
Q 2569 213 2275 61 
Q 1981 -91 1556 -91 
Q 1019 -91 701 211 
Q 384 513 384 1019 
Q 384 1609 779 1909 
Q 1175 2209 1959 2209 
L 2766 2209 
L 2766 2266 
Q 2766 2663 2505 2880 
Q 2244 3097 1772 3097 
Q 1472 3097 1187 3025 
Q 903 2953 641 2809 
L 641 3341 
Q 956 3463 1253 3523 
Q 1550 3584 1831 3584 
Q 2591 3584 2966 3190 
Q 3341 2797 3341 1997 
z
" transform="scale(0.015625)"/>
      </defs>
      <use xlink:href="#DejaVuSans-53"/>
      <use xlink:href="#DejaVuSans-4f" transform="translate(63.484375 0)"/>
      <use xlink:href="#DejaVuSans-44" transform="translate(91.265625 0)"/>
      <use xlink:href="#DejaVuSans-51" transform="translate(152.546875 0)"/>
      <use xlink:href="#DejaVuSans-57" transform="translate(215.921875 0)"/>
      <use xlink:href="#DejaVuSans-3" transform="translate(255.125 0)"/>
      <use xlink:href="#DejaVuSans-14" transform="translate(286.90625 0)"/>
     </g>
    </g>
    <g id="line2d_32">
     <path d="M 483.814062 50.3 
L 493.814062 50.3 
L 503.814062 50.3 
" style="fill: none; stroke: #4daf4a; stroke-width: 2; stroke-linecap: square"/>
    </g>
    <g id="text_17">
     <!-- plant 2 -->
     <g style="fill: #7f7f7f" transform="translate(511.814062 53.8) scale(0.1 -0.1)">
      <use xlink:href="#DejaVuSans-53"/>
      <use xlink:href="#DejaVuSans-4f" transform="translate(63.484375 0)"/>
      <use xlink:href="#DejaVuSans-44" transform="translate(91.265625 0)"/>
      <use xlink:href="#DejaVuSans-51" transform="translate(152.546875 0)"/>
      <use xlink:href="#DejaVuSans-57" transform="translate(215.921875 0)"/>
      <use xlink:href="#DejaVuSans-3" transform="translate(255.125 0)"/>
      <use xlink:href="#DejaVuSans-15" transform="translate(286.90625 0)"/>
     </g>
    </g>
   </g>
  </g>
 </g>
 <defs>
  <clipPath id="p8efea8193b">
   <rect x="38.482813" y="7.2" width="523.117187" height="234.399141"/>
  </clipPath>
 </defs>
</svg>
