<?xml version="1.0" encoding="utf-8" standalone="no"?>
<!DOCTYPE svg PUBLIC "-//W3C//DTD SVG 1.1//EN"
  "http://www.w3.org/Graphics/SVG/1.1/DTD/svg11.dtd">
<svg xmlns:xlink="http://www.w3.org/1999/xlink" width="568.8pt" height="280.8pt" viewBox="0 0 568.8 280.8" xmlns="http://www.w3.org/2000/svg" version="1.1">
 <metadata>
  <rdf:RDF xmlns:dc="http://purl.org/dc/elements/1.1/" xmlns:cc="http://creativecommons.org/ns#" xmlns:rdf="http://www.w3.org/1999/02/22-rdf-syntax-ns#">
   <cc:Work>
    <dc:type rdf:resource="http://purl.org/dc/dcmitype/StillImage"/>
    <dc:date>2026-06-28T01:00:52.431504</dc:date>
    <dc:format>image/svg+xml</dc:format>
    <dc:creator>
     <cc:Agent>
      <dc:title>Matplotlib v3.11.0, https://matplotlib.org/</dc:title>
     </cc:Agent>
    </dc:creator>
   </cc:Work>
  </rdf:RDF>
 </metadata>
 <defs>
  <style type="text/css">*{stroke-linejoin: round; stroke-linecap: butt}</style>
 </defs>
 <g id="figure_1">
  <g id="patch_1">
   <path d="M 0 280.8 
L 568.8 280.8 
L 568.8 0 
L 0 0 
L 0 280.8 
z
" style="fill: none"/>
  </g>
  <g id="axes_1">
   <g id="patch_2">
    <path d="M 44.845313 241.599141 
L 561.6 241.599141 
L 561.6 7.2 
L 44.845313 7.2 
L 44.845313 241.599141 
z
" style="fill: none"/>
   </g>
   <g id="matplotlib.axis_1">
    <g id="xtick_1">
     <g id="line2d_1">
      <path d="M 68.334162 241.599141 
L 68.334162 7.2 
" clip-path="url(#p037379b043)" style="fill: none; stroke-dasharray: 2.96,1.28; stroke-dashoffset: 0; stroke: #7f7f7f; stroke-opacity: 0.6; stroke-width: 0.8"/>
     </g>
     <g id="line2d_2">
      <defs>
       <path id="me64f7280a7" d="M 0 0 
L 0 3.5 
" style="stroke: #7f7f7f; stroke-width: 1.8"/>
      </defs>
      <g>
       <use xlink:href="#me64f7280a7" x="68.334162" y="241.599141" style="fill: #7f7f7f; stroke: #7f7f7f; stroke-width: 1.8"/>
      </g>
     </g>
     <g id="text_1">
      <!-- 0 -->
      <g style="fill: #7f7f7f" transform="translate(65.152912 256.196797) scale(0.1 -0.1)">
       <defs>
        <path id="DejaVuSans-13" d="M 2034 4250 
Q 1547 4250 1301 3770 
Q 1056 3291 1056 2328 
Q 1056 1369 1301 889 
Q 1547 409 2034 409 
Q 2525 409 2770 889 
Q 3016 1369 3016 2328 
Q 3016 3291 2770 3770 
Q 2525 4250 2034 4250 
z
M 2034 4750 
Q 2819 4750 3233 4129 
Q 3647 3509 3647 2328 
Q 3647 1150 3233 529 
Q 2819 -91 2034 -91 
Q 1250 -91 836 529 
Q 422 1150 422 2328 
Q 422 3509 836 4129 
Q 1250 4750 2034 4750 
z
" transform="scale(0.015625)"/>
       </defs>
       <use xlink:href="#DejaVuSans-13"/>
      </g>
     </g>
    </g>
    <g id="xtick_2">
     <g id="line2d_3">
      <path d="M 162.28956 241.599141 
L 162.28956 7.2 
" clip-path="url(#p037379b043)" style="fill: none; stroke-dasharray: 2.96,1.28; stroke-dashoffset: 0; stroke: #7f7f7f; stroke-opacity: 0.6; stroke-width: 0.8"/>
     </g>
     <g id="line2d_4">
      <g>
       <use xlink:href="#me64f7280a7" x="162.28956" y="241.599141" style="fill: #7f7f7f; stroke: #7f7f7f; stroke-width: 1.8"/>
      </g>
     </g>
     <g id="text_2">
      <!-- 20 -->
      <g style="fill: #7f7f7f" transform="translate(155.92706 256.196797) scale(0.1 -0.1)">
       <defs>
        <path id="DejaVuSans-15" d="M 1228 531 
L 3431 531 
L 3431 0 
L 469 0 
L 469 531 
Q 828 903 1448 1529 
Q 2069 2156 2228 2338 
Q 2531 2678 2651 2914 
Q 2772 3150 2772 3378 
Q 2772 3750 2511 3984 
Q 2250 4219 1831 4219 
Q 1534 4219 1204 4116 
Q 875 4013 500 3803 
L 500 4441 
Q 881 4594 1212 4672 
Q 1544 4750 1819 4750 
Q 2544 4750 2975 4387 
Q 3406 4025 3406 3419 
Q 3406 3131 3298 2873 
Q 3191 2616 2906 2266 
Q 2828 2175 2409 1742 
Q 1991 1309 1228 531 
z
" transform="scale(0.015625)"/>
       </defs>
       <use xlink:href="#DejaVuSans-15"/>
       <use xlink:href="#DejaVuSans-13" transform="translate(63.625 0)"/>
      </g>
     </g>
    </g>
    <g id="xtick_3">
     <g id="line2d_5">
      <path d="M 256.244957 241.599141 
L 256.244957 7.2 
" clip-path="url(#p037379b043)" style="fill: none; stroke-dasharray: 2.96,1.28; stroke-dashoffset: 0; stroke: #7f7f7f; stroke-opacity: 0.6; stroke-width: 0.8"/>
     </g>
     <g id="line2d_6">
      <g>
       <use xlink:href="#me64f7280a7" x="256.244957" y="241.599141" style="fill: #7f7f7f; stroke: #7f7f7f; stroke-width: 1.8"/>
      </g>
     </g>
     <g id="text_3">
      <!-- 40 -->
      <g style="fill: #7f7f7f" transform="translate(249.882457 256.196797) scale(0.1 -0.1)">
       <defs>
        <path id="DejaVuSans-17" d="M 2419 4116 
L 825 1625 
L 2419 1625 
L 2419 4116 
z
M 2253 4666 
L 3047 4666 
L 3047 1625 
L 3713 1625 
L 3713 1100 
L 3047 1100 
L 3047 0 
L 2419 0 
L 2419 1100 
L 313 1100 
L 313 1709 
L 2253 4666 
z
" transform="scale(0.015625)"/>
       </defs>
       <use xlink:href="#DejaVuSans-17"/>
       <use xlink:href="#DejaVuSans-13" transform="translate(63.625 0)"/>
      </g>
     </g>
    </g>
    <g id="xtick_4">
     <g id="line2d_7">
      <path d="M 350.200355 241.599141 
L 350.200355 7.2 
" clip-path="url(#p037379b043)" style="fill: none; stroke-dasharray: 2.96,1.28; stroke-dashoffset: 0; stroke: #7f7f7f; stroke-opacity: 0.6; stroke-width: 0.8"/>
     </g>
     <g id="line2d_8">
      <g>
       <use xlink:href="#me64f7280a7" x="350.200355" y="241.599141" style="fill: #7f7f7f; stroke: #7f7f7f; stroke-width: 1.8"/>
      </g>
     </g>
     <g id="text_4">
      <!-- 60 -->
      <g style="fill: #7f7f7f" transform="translate(343.837855 256.196797) scale(0.1 -0.1)">
       <defs>
        <path id="DejaVuSans-19" d="M 2113 2584 
Q 1688 2584 1439 2293 
Q 1191 2003 1191 1497 
Q 1191 994 1439 701 
Q 1688 409 2113 409 
Q 2538 409 2786 701 
Q 3034 994 3034 1497 
Q 3034 2003 2786 2293 
Q 2538 2584 2113 2584 
z
M 3366 4563 
L 3366 3988 
Q 3128 4100 2886 4159 
Q 2644 4219 2406 4219 
Q 1781 4219 1451 3797 
Q 1122 3375 1075 2522 
Q 1259 2794 1537 2939 
Q 1816 3084 2150 3084 
Q 2853 3084 3261 2657 
Q 3669 2231 3669 1497 
Q 3669 778 3244 343 
Q 2819 -91 2113 -91 
Q 1303 -91 875 529 
Q 447 1150 447 2328 
Q 447 3434 972 4092 
Q 1497 4750 2381 4750 
Q 2619 4750 2861 4703 
Q 3103 4656 3366 4563 
z
" transform="scale(0.015625)"/>
       </defs>
       <use xlink:href="#DejaVuSans-19"/>
       <use xlink:href="#DejaVuSans-13" transform="translate(63.625 0)"/>
      </g>
     </g>
    </g>
    <g id="xtick_5">
     <g id="line2d_9">
      <path d="M 444.155753 241.599141 
L 444.155753 7.2 
" clip-path="url(#p037379b043)" style="fill: none; stroke-dasharray: 2.96,1.28; stroke-dashoffset: 0; stroke: #7f7f7f; stroke-opacity: 0.6; stroke-width: 0.8"/>
     </g>
     <g id="line2d_10">
      <g>
       <use xlink:href="#me64f7280a7" x="444.155753" y="241.599141" style="fill: #7f7f7f; stroke: #7f7f7f; stroke-width: 1.8"/>
      </g>
     </g>
     <g id="text_5">
      <!-- 80 -->
      <g style="fill: #7f7f7f" transform="translate(437.793253 256.196797) scale(0.1 -0.1)">
       <defs>
        <path id="DejaVuSans-1b" d="M 2034 2216 
Q 1584 2216 1326 1975 
Q 1069 1734 1069 1313 
Q 1069 891 1326 650 
Q 1584 409 2034 409 
Q 2484 409 2743 651 
Q 3003 894 3003 1313 
Q 3003 1734 2745 1975 
Q 2488 2216 2034 2216 
z
M 1403 2484 
Q 997 2584 770 2862 
Q 544 3141 544 3541 
Q 544 4100 942 4425 
Q 1341 4750 2034 4750 
Q 2731 4750 3128 4425 
Q 3525 4100 3525 3541 
Q 3525 3141 3298 2862 
Q 3072 2584 2669 2484 
Q 3125 2378 3379 2068 
Q 3634 1759 3634 1313 
Q 3634 634 3220 271 
Q 2806 -91 2034 -91 
Q 1263 -91 848 271 
Q 434 634 434 1313 
Q 434 1759 690 2068 
Q 947 2378 1403 2484 
z
M 1172 3481 
Q 1172 3119 1398 2916 
Q 1625 2713 2034 2713 
Q 2441 2713 2670 2916 
Q 2900 3119 2900 3481 
Q 2900 3844 2670 4047 
Q 2441 4250 2034 4250 
Q 1625 4250 1398 4047 
Q 1172 3844 1172 3481 
z
" transform="scale(0.015625)"/>
       </defs>
       <use xlink:href="#DejaVuSans-1b"/>
       <use xlink:href="#DejaVuSans-13" transform="translate(63.625 0)"/>
      </g>
     </g>
    </g>
    <g id="xtick_6">
     <g id="line2d_11">
      <path d="M 538.111151 241.599141 
L 538.111151 7.2 
" clip-path="url(#p037379b043)" style="fill: none; stroke-dasharray: 2.96,1.28; stroke-dashoffset: 0; stroke: #7f7f7f; stroke-opacity: 0.6; stroke-width: 0.8"/>
     </g>
     <g id="line2d_12">
      <g>
       <use xlink:href="#me64f7280a7" x="538.111151" y="241.599141" style="fill: #7f7f7f; stroke: #7f7f7f; stroke-width: 1.8"/>
      </g>
     </g>
     <g id="text_6">
      <!-- 100 -->
      <g style="fill: #7f7f7f" transform="translate(528.567401 256.196797) scale(0.1 -0.1)">
       <defs>
        <path id="DejaVuSans-14" d="M 794 531 
L 1825 531 
L 1825 4091 
L 703 3866 
L 703 4441 
L 1819 4666 
L 2450 4666 
L 2450 531 
L 3481 531 
L 3481 0 
L 794 0 
L 794 531 
z
" transform="scale(0.015625)"/>
       </defs>
       <use xlink:href="#DejaVuSans-14"/>
       <use xlink:href="#DejaVuSans-13" transform="translate(63.625 0)"/>
       <use xlink:href="#DejaVuSans-13" transform="translate(127.25 0)"/>
      </g>
     </g>
    </g>
    <g id="text_7">
     <!-- time [s] -->
     <g style="fill: #7f7f7f" transform="translate(281.892109 270.957422) scale(0.11 -0.11)">
      <defs>
       <path id="DejaVuSans-57" d="M 1172 4494 
L 1172 3500 
L 2356 3500 
L 2356 3053 
L 1172 3053 
L 1172 1153 
Q 1172 725 1289 603 
Q 1406 481 1766 481 
L 2356 481 
L 2356 0 
L 1766 0 
Q 1100 0 847 248 
Q 594 497 594 1153 
L 594 3053 
L 172 3053 
L 172 3500 
L 594 3500 
L 594 4494 
L 1172 4494 
z
" transform="scale(0.015625)"/>
       <path id="DejaVuSans-4c" d="M 603 3500 
L 1178 3500 
L 1178 0 
L 603 0 
L 603 3500 
z
M 603 4863 
L 1178 4863 
L 1178 4134 
L 603 4134 
L 603 4863 
z
" transform="scale(0.015625)"/>
       <path id="DejaVuSans-50" d="M 3328 2828 
Q 3544 3216 3844 3400 
Q 4144 3584 4550 3584 
Q 5097 3584 5394 3201 
Q 5691 2819 5691 2113 
L 5691 0 
L 5113 0 
L 5113 2094 
Q 5113 2597 4934 2840 
Q 4756 3084 4391 3084 
Q 3944 3084 3684 2787 
Q 3425 2491 3425 1978 
L 3425 0 
L 2847 0 
L 2847 2094 
Q 2847 2600 2669 2842 
Q 2491 3084 2119 3084 
Q 1678 3084 1418 2786 
Q 1159 2488 1159 1978 
L 1159 0 
L 581 0 
L 581 3500 
L 1159 3500 
L 1159 2956 
Q 1356 3278 1631 3431 
Q 1906 3584 2284 3584 
Q 2666 3584 2933 3390 
Q 3200 3197 3328 2828 
z
" transform="scale(0.015625)"/>
       <path id="DejaVuSans-48" d="M 3597 1894 
L 3597 1613 
L 953 1613 
Q 991 1019 1311 708 
Q 1631 397 2203 397 
Q 2534 397 2845 478 
Q 3156 559 3463 722 
L 3463 178 
Q 3153 47 2828 -22 
Q 2503 -91 2169 -91 
Q 1331 -91 842 396 
Q 353 884 353 1716 
Q 353 2575 817 3079 
Q 1281 3584 2069 3584 
Q 2775 3584 3186 3129 
Q 3597 2675 3597 1894 
z
M 3022 2063 
Q 3016 2534 2758 2815 
Q 2500 3097 2075 3097 
Q 1594 3097 1305 2825 
Q 1016 2553 972 2059 
L 3022 2063 
z
" transform="scale(0.015625)"/>
       <path id="DejaVuSans-3" transform="scale(0.015625)"/>
       <path id="DejaVuSans-3e" d="M 550 4863 
L 1875 4863 
L 1875 4416 
L 1125 4416 
L 1125 -397 
L 1875 -397 
L 1875 -844 
L 550 -844 
L 550 4863 
z
" transform="scale(0.015625)"/>
       <path id="DejaVuSans-56" d="M 2834 3397 
L 2834 2853 
Q 2591 2978 2328 3040 
Q 2066 3103 1784 3103 
Q 1356 3103 1142 2972 
Q 928 2841 928 2578 
Q 928 2378 1081 2264 
Q 1234 2150 1697 2047 
L 1894 2003 
Q 2506 1872 2764 1633 
Q 3022 1394 3022 966 
Q 3022 478 2636 193 
Q 2250 -91 1575 -91 
Q 1294 -91 989 -36 
Q 684 19 347 128 
L 347 722 
Q 666 556 975 473 
Q 1284 391 1588 391 
Q 1994 391 2212 530 
Q 2431 669 2431 922 
Q 2431 1156 2273 1281 
Q 2116 1406 1581 1522 
L 1381 1569 
Q 847 1681 609 1914 
Q 372 2147 372 2553 
Q 372 3047 722 3315 
Q 1072 3584 1716 3584 
Q 2034 3584 2315 3537 
Q 2597 3491 2834 3397 
z
" transform="scale(0.015625)"/>
       <path id="DejaVuSans-40" d="M 1947 4863 
L 1947 -844 
L 622 -844 
L 622 -397 
L 1369 -397 
L 1369 4416 
L 622 4416 
L 622 4863 
L 1947 4863 
z
" transform="scale(0.015625)"/>
      </defs>
      <use xlink:href="#DejaVuSans-57"/>
      <use xlink:href="#DejaVuSans-4c" transform="translate(39.203125 0)"/>
      <use xlink:href="#DejaVuSans-50" transform="translate(66.984375 0)"/>
      <use xlink:href="#DejaVuSans-48" transform="translate(164.390625 0)"/>
      <use xlink:href="#DejaVuSans-3" transform="translate(225.921875 0)"/>
      <use xlink:href="#DejaVuSans-3e" transform="translate(257.703125 0)"/>
      <use xlink:href="#DejaVuSans-56" transform="translate(296.71875 0)"/>
      <use xlink:href="#DejaVuSans-40" transform="translate(348.8125 0)"/>
     </g>
    </g>
   </g>
   <g id="matplotlib.axis_2">
    <g id="ytick_1">
     <g id="line2d_13">
      <path d="M 44.845313 215.272697 
L 561.6 215.272697 
" clip-path="url(#p037379b043)" style="fill: none; stroke-dasharray: 2.96,1.28; stroke-dashoffset: 0; stroke: #7f7f7f; stroke-opacity: 0.6; stroke-width: 0.8"/>
     </g>
     <g id="line2d_14">
      <defs>
       <path id="mcb143436b2" d="M 0 0 
L -3.5 0 
" style="stroke: #7f7f7f; stroke-width: 1.8"/>
      </defs>
      <g>
       <use xlink:href="#mcb143436b2" x="44.845313" y="215.272697" style="fill: #7f7f7f; stroke: #7f7f7f; stroke-width: 1.8"/>
      </g>
     </g>
     <g id="text_8">
      <!-- −0.15 -->
      <g style="fill: #7f7f7f" transform="translate(7.2 219.071525) scale(0.1 -0.1)">
       <defs>
        <path id="DejaVuSans-c9c" d="M 678 2272 
L 4684 2272 
L 4684 1741 
L 678 1741 
L 678 2272 
z
" transform="scale(0.015625)"/>
        <path id="DejaVuSans-11" d="M 684 794 
L 1344 794 
L 1344 0 
L 684 0 
L 684 794 
z
" transform="scale(0.015625)"/>
        <path id="DejaVuSans-18" d="M 691 4666 
L 3169 4666 
L 3169 4134 
L 1269 4134 
L 1269 2991 
Q 1406 3038 1543 3061 
Q 1681 3084 1819 3084 
Q 2600 3084 3056 2656 
Q 3513 2228 3513 1497 
Q 3513 744 3044 326 
Q 2575 -91 1722 -91 
Q 1428 -91 1123 -41 
Q 819 9 494 109 
L 494 744 
Q 775 591 1075 516 
Q 1375 441 1709 441 
Q 2250 441 2565 725 
Q 2881 1009 2881 1497 
Q 2881 1984 2565 2268 
Q 2250 2553 1709 2553 
Q 1456 2553 1204 2497 
Q 953 2441 691 2322 
L 691 4666 
z
" transform="scale(0.015625)"/>
       </defs>
       <use xlink:href="#DejaVuSans-c9c"/>
       <use xlink:href="#DejaVuSans-13" transform="translate(83.796875 0)"/>
       <use xlink:href="#DejaVuSans-11" transform="translate(147.421875 0)"/>
       <use xlink:href="#DejaVuSans-14" transform="translate(179.203125 0)"/>
       <use xlink:href="#DejaVuSans-18" transform="translate(242.828125 0)"/>
      </g>
     </g>
    </g>
    <g id="ytick_2">
     <g id="line2d_15">
      <path d="M 44.845313 178.448889 
L 561.6 178.448889 
" clip-path="url(#p037379b043)" style="fill: none; stroke-dasharray: 2.96,1.28; stroke-dashoffset: 0; stroke: #7f7f7f; stroke-opacity: 0.6; stroke-width: 0.8"/>
     </g>
     <g id="line2d_16">
      <g>
       <use xlink:href="#mcb143436b2" x="44.845313" y="178.448889" style="fill: #7f7f7f; stroke: #7f7f7f; stroke-width: 1.8"/>
      </g>
     </g>
     <g id="text_9">
      <!-- −0.10 -->
      <g style="fill: #7f7f7f" transform="translate(7.2 182.247717) scale(0.1 -0.1)">
       <use xlink:href="#DejaVuSans-c9c"/>
       <use xlink:href="#DejaVuSans-13" transform="translate(83.796875 0)"/>
       <use xlink:href="#DejaVuSans-11" transform="translate(147.421875 0)"/>
       <use xlink:href="#DejaVuSans-14" transform="translate(179.203125 0)"/>
       <use xlink:href="#DejaVuSans-13" transform="translate(242.828125 0)"/>
      </g>
     </g>
    </g>
    <g id="ytick_3">
     <g id="line2d_17">
      <path d="M 44.845313 141.625081 
L 561.6 141.625081 
" clip-path="url(#p037379b043)" style="fill: none; stroke-dasharray: 2.96,1.28; stroke-dashoffset: 0; stroke: #7f7f7f; stroke-opacity: 0.6; stroke-width: 0.8"/>
     </g>
     <g id="line2d_18">
      <g>
       <use xlink:href="#mcb143436b2" x="44.845313" y="141.625081" style="fill: #7f7f7f; stroke: #7f7f7f; stroke-width: 1.8"/>
      </g>
     </g>
     <g id="text_10">
      <!-- −0.05 -->
      <g style="fill: #7f7f7f" transform="translate(7.2 145.423909) scale(0.1 -0.1)">
       <use xlink:href="#DejaVuSans-c9c"/>
       <use xlink:href="#DejaVuSans-13" transform="translate(83.796875 0)"/>
       <use xlink:href="#DejaVuSans-11" transform="translate(147.421875 0)"/>
       <use xlink:href="#DejaVuSans-13" transform="translate(179.203125 0)"/>
       <use xlink:href="#DejaVuSans-18" transform="translate(242.828125 0)"/>
      </g>
     </g>
    </g>
    <g id="ytick_4">
     <g id="line2d_19">
      <path d="M 44.845313 104.801273 
L 561.6 104.801273 
" clip-path="url(#p037379b043)" style="fill: none; stroke-dasharray: 2.96,1.28; stroke-dashoffset: 0; stroke: #7f7f7f; stroke-opacity: 0.6; stroke-width: 0.8"/>
     </g>
     <g id="line2d_20">
      <g>
       <use xlink:href="#mcb143436b2" x="44.845313" y="104.801273" style="fill: #7f7f7f; stroke: #7f7f7f; stroke-width: 1.8"/>
      </g>
     </g>
     <g id="text_11">
      <!-- 0.00 -->
      <g style="fill: #7f7f7f" transform="translate(15.579688 108.600101) scale(0.1 -0.1)">
       <use xlink:href="#DejaVuSans-13"/>
       <use xlink:href="#DejaVuSans-11" transform="translate(63.625 0)"/>
       <use xlink:href="#DejaVuSans-13" transform="translate(95.40625 0)"/>
       <use xlink:href="#DejaVuSans-13" transform="translate(159.03125 0)"/>
      </g>
     </g>
    </g>
    <g id="ytick_5">
     <g id="line2d_21">
      <path d="M 44.845313 67.977464 
L 561.6 67.977464 
" clip-path="url(#p037379b043)" style="fill: none; stroke-dasharray: 2.96,1.28; stroke-dashoffset: 0; stroke: #7f7f7f; stroke-opacity: 0.6; stroke-width: 0.8"/>
     </g>
     <g id="line2d_22">
      <g>
       <use xlink:href="#mcb143436b2" x="44.845313" y="67.977464" style="fill: #7f7f7f; stroke: #7f7f7f; stroke-width: 1.8"/>
      </g>
     </g>
     <g id="text_12">
      <!-- 0.05 -->
      <g style="fill: #7f7f7f" transform="translate(15.579688 71.776293) scale(0.1 -0.1)">
       <use xlink:href="#DejaVuSans-13"/>
       <use xlink:href="#DejaVuSans-11" transform="translate(63.625 0)"/>
       <use xlink:href="#DejaVuSans-13" transform="translate(95.40625 0)"/>
       <use xlink:href="#DejaVuSans-18" transform="translate(159.03125 0)"/>
      </g>
     </g>
    </g>
    <g id="ytick_6">
     <g id="line2d_23">
      <path d="M 44.845313 31.153656 
L 561.6 31.153656 
" clip-path="url(#p037379b043)" style="fill: none; stroke-dasharray: 2.96,1.28; stroke-dashoffset: 0; stroke: #7f7f7f; stroke-opacity: 0.6; stroke-width: 0.8"/>
     </g>
     <g id="line2d_24">
      <g>
       <use xlink:href="#mcb143436b2" x="44.845313" y="31.153656" style="fill: #7f7f7f; stroke: #7f7f7f; stroke-width: 1.8"/>
      </g>
     </g>
     <g id="text_13">
      <!-- 0.10 -->
      <g style="fill: #7f7f7f" transform="translate(15.579688 34.952484) scale(0.1 -0.1)">
       <use xlink:href="#DejaVuSans-13"/>
       <use xlink:href="#DejaVuSans-11" transform="translate(63.625 0)"/>
       <use xlink:href="#DejaVuSans-14" transform="translate(95.40625 0)"/>
       <use xlink:href="#DejaVuSans-13" transform="translate(159.03125 0)"/>
      </g>
     </g>
    </g>
   </g>
   <g id="line2d_25">
    <path d="M 68.334162 104.801273 
L 68.477315 100.980118 
L 68.994855 107.314226 
L 69.243416 107.899761 
L 69.777234 100.815562 
L 70.426687 102.469754 
L 71.51508 105.752986 
L 71.852544 101.691477 
L 72.137097 107.361669 
L 72.434932 107.787431 
L 73.34712 99.33469 
L 74.086884 108.535962 
L 74.323493 102.569285 
L 75.560691 107.502785 
L 76.120451 107.919824 
L 76.398749 102.085859 
L 76.65448 106.036199 
L 77.308599 103.275475 
L 78.03291 107.61605 
L 78.363866 103.908061 
L 78.700067 103.514742 
L 79.436956 107.107851 
L 79.781505 106.857587 
L 80.894203 102.703243 
L 81.264686 106.501877 
L 81.60648 104.756452 
L 81.941033 101.076921 
L 82.246904 104.950739 
L 82.586235 102.618612 
L 83.704298 106.443669 
L 84.076924 105.606444 
L 84.537988 106.359228 
L 84.884188 101.882372 
L 85.211599 106.279229 
L 86.116072 110.145617 
L 87.053324 99.61064 
L 87.266938 105.110716 
L 87.50655 101.820046 
L 87.746958 106.619149 
L 87.992704 106.57281 
L 88.290244 108.683323 
L 88.564282 105.644137 
L 89.867286 102.820378 
L 90.264938 105.673341 
L 91.075073 104.859251 
L 91.479619 102.935646 
L 92.264677 103.932839 
L 93.511843 104.935324 
L 93.913266 107.27773 
L 94.281637 105.205276 
L 94.618599 101.423026 
L 95.288332 104.560948 
L 95.67867 104.848215 
L 96.796497 106.902398 
L 97.145403 102.907791 
L 97.466528 107.241436 
L 97.760917 103.262869 
L 98.0534 104.508434 
L 98.413756 103.405633 
L 98.727506 101.22894 
L 99.025396 106.408157 
L 99.784321 105.881717 
L 100.179567 103.14579 
L 100.555121 105.399892 
L 101.318464 104.927845 
L 101.701216 107.417318 
L 102.060305 106.28246 
L 102.379424 100.923896 
L 103.038442 106.608671 
L 103.756922 102.051351 
L 104.101065 103.193607 
L 104.491443 104.976023 
L 104.951615 104.169539 
L 106.140123 101.878382 
L 107.088377 110.913984 
L 107.333476 104.792299 
L 107.598275 101.276982 
L 107.848087 106.718404 
L 108.095633 106.536936 
L 108.397084 107.344112 
L 108.700529 105.395215 
L 109.075766 101.959437 
L 109.416363 103.524162 
L 110.729984 109.669679 
L 111.521665 99.494588 
L 111.768344 105.604546 
L 112.02494 104.854399 
L 112.399106 107.010688 
L 113.138436 106.768255 
L 113.787104 100.904486 
L 114.034857 108.280656 
L 114.62876 105.200568 
L 115.501181 102.61533 
L 115.843181 106.74036 
L 116.192971 104.933422 
L 117.040408 101.986212 
L 118.15804 103.516885 
L 118.580966 103.781932 
L 118.984671 106.560528 
L 119.76734 105.528491 
L 121.064897 104.377197 
L 121.493867 103.747477 
L 121.893525 104.061473 
L 122.599311 108.411956 
L 122.900887 107.03789 
L 123.198841 102.167786 
L 123.832298 105.102691 
L 124.472675 108.635748 
L 125.626865 102.426406 
L 125.884675 105.036091 
L 126.561398 104.17082 
L 127.995456 104.030998 
L 128.350782 107.264335 
L 128.694063 104.115663 
L 129.05367 103.660403 
L 130.209513 107.868721 
L 130.933144 103.811475 
L 131.343046 105.07317 
L 132.205493 106.977032 
L 132.962964 102.583603 
L 133.312763 106.308302 
L 134.011204 104.552316 
L 134.389183 102.405878 
L 134.731942 104.091137 
L 135.141677 105.036846 
L 135.556834 103.745572 
L 136.74276 102.256479 
L 137.045122 107.510104 
L 137.713502 107.069816 
L 139.173467 101.830012 
L 140.515823 107.14527 
L 141.548079 103.522046 
L 141.910408 106.300377 
L 142.260702 105.396519 
L 142.667847 104.046252 
L 143.047699 106.84347 
L 143.813346 106.483752 
L 144.510479 108.228084 
L 145.100559 102.099841 
L 145.933881 105.938817 
L 145.663371 100.948181 
L 146.208787 104.744702 
L 146.608145 104.594236 
L 146.916452 108.981202 
L 147.525653 105.043926 
L 147.934682 104.835494 
L 148.347799 106.39741 
L 148.740808 103.983971 
L 150.790611 102.93307 
L 153.652946 108.526067 
L 153.960533 104.996374 
L 154.658554 107.450479 
L 155.836282 99.082927 
L 156.088123 103.364911 
L 156.784292 102.864705 
L 157.046472 108.914543 
L 157.866394 100.924151 
L 158.158046 106.280104 
L 158.775503 104.224846 
L 159.097713 107.581657 
L 159.73684 107.27284 
L 161.146523 100.248671 
L 161.420809 104.059637 
L 161.704058 109.691808 
L 162.273081 102.417101 
L 162.292365 17.854506 
L 162.289756 230.944634 
L 163.145522 92.59146 
L 163.460212 100.916242 
L 164.01908 92.230457 
L 164.685807 94.241896 
L 164.844168 88.357238 
L 165.385012 95.4608 
L 165.587052 91.20453 
L 167.825784 102.583877 
L 170.15287 95.998308 
L 171.42527 100.675397 
L 172.217869 102.057213 
L 172.666262 100.544446 
L 173.08199 101.965957 
L 173.52165 102.821519 
L 174.233966 98.446704 
L 174.5778 99.909732 
L 175.361213 102.792489 
L 175.742627 100.475414 
L 176.50659 99.8081 
L 177.267615 100.139916 
L 178.062576 98.112935 
L 178.8497 104.480026 
L 179.261053 104.156935 
L 179.99583 99.804705 
L 180.356834 105.548439 
L 180.78107 100.779125 
L 181.199488 100.814443 
L 181.588185 98.164981 
L 181.949649 99.163345 
L 182.323468 103.494693 
L 182.913489 102.044775 
L 183.358615 101.642868 
L 183.774944 103.610004 
L 184.217978 102.554829 
L 184.65376 102.023043 
L 185.563417 104.442067 
L 186.831299 100.387889 
L 187.205659 103.946447 
L 187.7193 103.863944 
L 188.126978 102.449074 
L 188.530363 106.271499 
L 188.947249 103.647834 
L 189.280134 99.640291 
L 189.609074 105.562935 
L 190.898529 101.404391 
L 192.1877 104.673043 
L 193.341703 100.27175 
L 194.4835 104.228327 
L 195.04802 104.302297 
L 196.301383 103.125545 
L 196.714574 103.869055 
L 197.072459 101.105922 
L 197.42711 105.894803 
L 198.861413 104.219919 
L 199.222537 107.143894 
L 199.580592 102.704057 
L 200.378531 104.299968 
L 200.733116 107.226313 
L 201.084818 102.759427 
L 201.482846 105.939435 
L 201.996596 103.938234 
L 202.359166 107.195036 
L 202.718293 107.031372 
L 203.113465 103.749653 
L 203.560914 105.292929 
L 204.074698 105.544494 
L 204.556819 103.503661 
L 205.407959 107.805441 
L 205.780798 107.175773 
L 206.089329 100.103505 
L 206.760526 107.288809 
L 207.510352 103.622927 
L 208.297839 105.81654 
L 208.759241 106.362774 
L 210.506441 101.497919 
L 212.863883 109.718666 
L 214.024332 103.005345 
L 214.367781 105.179744 
L 215.827767 103.64137 
L 217.157215 107.429578 
L 217.970716 103.077429 
L 218.340951 108.041714 
L 218.718639 103.943959 
L 219.11798 102.666491 
L 219.48954 104.117364 
L 220.459611 106.12103 
L 220.90297 105.485256 
L 221.670143 102.801253 
L 222.946026 107.184234 
L 223.811153 104.398638 
L 224.307045 106.16673 
L 225.153611 107.46045 
L 225.967784 103.207989 
L 227.249341 105.999669 
L 228.153673 102.533112 
L 228.555152 107.474596 
L 229.385059 105.467497 
L 229.776396 103.176582 
L 230.590648 103.554559 
L 230.919002 108.892268 
L 231.243514 106.323678 
L 231.677378 103.639738 
L 232.110049 104.616879 
L 232.593905 104.580638 
L 232.955669 107.408927 
L 233.766785 106.920657 
L 234.625499 103.198247 
L 235.005435 103.940026 
L 235.465695 106.32856 
L 235.905204 105.116868 
L 236.908651 103.451772 
L 238.230328 107.417697 
L 238.637644 107.306514 
L 239.053734 102.224741 
L 239.828393 102.716918 
L 240.730758 104.994476 
L 241.210556 102.854842 
L 242.897503 107.690309 
L 243.2747 106.836057 
L 243.70076 102.839506 
L 244.098842 107.150939 
L 245.373617 103.386625 
L 246.196854 108.834876 
L 246.547876 105.411813 
L 246.955058 103.531205 
L 247.32482 107.938825 
L 247.711703 102.325925 
L 248.527965 104.027112 
L 249.763996 101.905471 
L 251.085202 106.353538 
L 251.530037 102.928718 
L 251.9744 106.148841 
L 253.408745 103.380643 
L 254.313908 105.624425 
L 254.759598 104.181754 
L 255.25716 104.8744 
L 255.677372 105.97446 
L 256.095969 101.895838 
L 256.492595 104.498703 
L 257.397315 104.794205 
L 257.744561 108.080957 
L 258.088442 105.676631 
L 258.924771 104.225761 
L 259.296074 103.195139 
L 259.704858 106.278383 
L 260.157461 106.041977 
L 260.58968 104.915293 
L 260.954922 107.689873 
L 261.317062 105.003945 
L 261.697137 104.729276 
L 262.495519 102.936902 
L 262.91056 105.838593 
L 263.287849 103.096384 
L 263.668576 102.760375 
L 265.452295 108.061742 
L 266.165062 102.714456 
L 266.514798 105.654817 
L 267.000377 105.283784 
L 267.897079 102.641252 
L 269.078496 107.753435 
L 269.462292 102.06533 
L 270.231633 103.716098 
L 270.631844 105.219998 
L 271.043804 104.06353 
L 271.50385 102.783687 
L 271.92847 105.122118 
L 272.833721 104.658947 
L 273.276788 105.763218 
L 273.714541 104.224236 
L 274.059593 101.088055 
L 274.401464 107.856266 
L 275.135369 105.53137 
L 276.350532 104.032312 
L 276.843928 105.849868 
L 277.359298 105.5907 
L 277.739579 103.169558 
L 278.115014 107.561229 
L 278.506814 105.995019 
L 279.662545 102.630199 
L 280.05748 104.13248 
L 280.519948 105.30167 
L 280.862588 100.940563 
L 281.201267 102.862536 
L 281.998164 108.141355 
L 282.843378 106.484734 
L 285.911119 103.863049 
L 286.264398 107.362794 
L 286.614643 105.723306 
L 287.019683 101.868155 
L 287.822523 103.366726 
L 288.298333 106.417589 
L 288.699234 103.111512 
L 289.073554 104.733401 
L 289.657854 104.32341 
L 290.573799 103.666698 
L 291.057501 103.544246 
L 291.441649 105.961534 
L 292.22846 105.527614 
L 293.053623 102.678064 
L 293.459457 107.637654 
L 293.8573 103.961745 
L 295.326882 105.948976 
L 295.731546 104.186577 
L 296.141601 104.838018 
L 296.577731 105.426209 
L 297.026884 104.286216 
L 297.440984 106.698883 
L 297.871107 104.963102 
L 298.710975 104.288038 
L 299.12386 106.318517 
L 299.511823 103.861762 
L 299.890792 106.042118 
L 301.24721 104.99268 
L 302.239295 105.942863 
L 303.494036 101.923016 
L 304.26233 106.796315 
L 304.632511 102.92933 
L 305.003293 103.827326 
L 306.156412 105.83306 
L 307.035563 103.798975 
L 307.913926 105.999709 
L 308.591398 101.075955 
L 308.94848 104.900473 
L 310.826125 102.538025 
L 311.72734 105.467984 
L 312.17961 104.468736 
L 312.632678 105.67548 
L 313.074067 107.10712 
L 313.436777 103.305942 
L 314.217959 103.567482 
L 315.456598 103.445836 
L 316.854612 105.8904 
L 317.247275 108.155589 
L 317.605699 105.794215 
L 318.083982 106.521602 
L 319.27141 102.988136 
L 319.656244 108.220595 
L 320.031688 101.394201 
L 321.189079 107.699156 
L 321.938939 102.096411 
L 322.312408 103.77684 
L 322.769743 103.686811 
L 323.195605 102.154484 
L 323.974151 108.418261 
L 324.335186 106.995096 
L 325.612053 104.499056 
L 326.005536 104.197751 
L 326.405862 106.674125 
L 326.773871 104.410962 
L 328.33575 102.637825 
L 330.221204 106.409341 
L 330.58167 103.360398 
L 330.943421 106.723878 
L 331.326699 103.458971 
L 331.779493 108.176222 
L 332.187631 106.74704 
L 332.602407 104.70786 
L 333.05409 107.533586 
L 333.431976 102.932385 
L 334.191612 105.428512 
L 336.822316 105.783628 
L 337.27989 102.275289 
L 337.69251 102.755725 
L 338.630141 104.522932 
L 339.097813 103.503319 
L 339.52655 107.684182 
L 339.920986 103.913242 
L 342.229116 106.028335 
L 342.63695 105.723002 
L 343.877181 102.92263 
L 345.203462 105.294436 
L 346.650509 102.790239 
L 347.533384 105.738882 
L 347.975142 103.660012 
L 348.323333 107.85136 
L 348.667509 105.90257 
L 349.065626 102.433601 
L 349.453092 106.020603 
L 350.021356 103.024176 
L 350.087376 104.54724 
L 350.200345 134.149895 
L 350.200552 127.452085 
L 350.200741 196.203194 
L 350.201433 38.709831 
L 351.077898 108.230727 
L 351.496242 106.709579 
L 352.233874 111.363464 
L 352.592629 111.250016 
L 352.958305 108.444845 
L 353.39371 108.982018 
L 354.14625 112.347421 
L 354.502254 109.490557 
L 355.297374 110.719716 
L 355.681611 105.101399 
L 356.156089 106.815496 
L 356.688304 106.41029 
L 357.117331 107.905473 
L 357.50554 105.319453 
L 357.871209 108.566303 
L 358.231953 105.906701 
L 359.657746 107.536116 
L 360.08236 106.263445 
L 360.577548 106.166844 
L 360.92358 102.671685 
L 361.267688 112.889746 
L 361.966083 105.237094 
L 362.309962 110.415949 
L 362.648048 103.358893 
L 363.022856 104.405608 
L 363.427353 104.057678 
L 363.749219 110.199582 
L 364.443387 108.449112 
L 365.662999 106.582653 
L 366.155071 107.014796 
L 366.634221 104.545092 
L 366.980549 108.992696 
L 367.322033 104.207691 
L 367.754115 107.900154 
L 368.185743 105.623144 
L 368.576667 107.599494 
L 369.340791 111.424348 
L 369.695401 105.657679 
L 370.188636 106.0408 
L 370.567744 108.149231 
L 370.943061 105.672346 
L 371.503235 105.951958 
L 371.871333 103.320528 
L 372.237706 103.521009 
L 372.652958 105.524689 
L 373.169823 104.84516 
L 373.742883 104.671502 
L 374.100068 107.762876 
L 374.453545 104.008705 
L 374.893986 102.942745 
L 375.291479 108.911687 
L 375.662093 105.704554 
L 376.117793 105.651174 
L 376.915763 107.160884 
L 377.849846 104.441171 
L 378.327921 105.586002 
L 378.765258 106.802842 
L 380.150826 104.278314 
L 380.517951 107.062944 
L 380.882048 102.859767 
L 381.280959 105.524023 
L 381.685196 107.385605 
L 382.05326 106.018111 
L 384.08539 105.811963 
L 385.197845 101.946678 
L 386.87623 107.427562 
L 387.242454 102.506507 
L 388.027796 104.90415 
L 388.599524 103.66756 
L 389.347756 106.838707 
L 389.744064 104.299653 
L 390.106985 107.738601 
L 390.465858 108.582607 
L 391.169133 102.000583 
L 391.957755 103.734636 
L 392.315811 106.967395 
L 392.67126 105.906862 
L 394.049447 103.277792 
L 394.492169 106.086218 
L 395.373768 105.555782 
L 396.629451 103.540265 
L 397.823637 107.700506 
L 397.414182 103.045598 
L 398.649861 106.090575 
L 399.995369 102.978119 
L 400.369498 105.41585 
L 400.851098 104.176495 
L 401.359868 105.006298 
L 401.707118 101.287511 
L 402.050658 102.874129 
L 403.778312 106.476186 
L 404.190006 103.474141 
L 404.647583 105.114147 
L 405.013375 107.37307 
L 405.376579 104.930554 
L 405.706357 100.688626 
L 406.435778 102.523476 
L 406.835222 105.916275 
L 407.276535 103.673024 
L 407.689488 102.284652 
L 408.069186 106.635396 
L 408.470502 105.372694 
L 408.911502 103.893011 
L 409.399142 104.284967 
L 410.117671 107.901646 
L 410.491783 106.145107 
L 412.257081 103.779555 
L 412.690481 104.237937 
L 413.129821 105.890317 
L 413.588398 105.000401 
L 414.352596 101.024165 
L 414.721989 103.433262 
L 415.183651 103.130277 
L 415.523697 107.260348 
L 415.860363 105.326554 
L 417.243758 103.470052 
L 417.6481 104.787257 
L 418.291095 104.569091 
L 418.750937 103.950481 
L 419.143138 101.255872 
L 419.496615 102.329405 
L 420.270401 108.145366 
L 420.614719 106.000293 
L 422.122255 104.136505 
L 423.081732 105.698149 
L 423.965868 102.648866 
L 424.903062 104.841533 
L 425.295532 102.88378 
L 425.685203 105.27736 
L 427.08185 101.923741 
L 427.489894 106.560131 
L 428.332413 105.413139 
L 429.207182 105.911533 
L 429.687789 104.34761 
L 430.237806 104.938035 
L 430.599196 107.60638 
L 431.425159 106.537794 
L 431.891069 103.600669 
L 432.344618 105.423337 
L 433.220592 103.433382 
L 433.616815 105.786507 
L 434.093777 105.642185 
L 434.548462 105.066269 
L 434.902889 108.161088 
L 435.254192 104.608541 
L 435.632272 101.782496 
L 435.975228 101.953914 
L 436.73106 105.954226 
L 437.108075 100.325991 
L 437.467853 101.891507 
L 438.198187 107.309399 
L 438.537807 105.157508 
L 439.04197 104.767545 
L 440.756765 106.494488 
L 441.207602 103.544971 
L 441.652697 105.345187 
L 442.091171 105.234525 
L 442.48883 107.150828 
L 442.864672 104.333573 
L 443.249181 101.734487 
L 443.597227 107.248163 
L 443.966001 102.377993 
L 444.353001 100.418817 
L 444.713831 101.715961 
L 445.109109 107.766066 
L 445.861123 107.486791 
L 447.002628 102.715241 
L 447.725076 109.221969 
L 448.049879 106.275084 
L 448.923995 102.422877 
L 449.314868 104.727801 
L 450.273509 105.67493 
L 450.74695 102.694993 
L 451.176961 107.104045 
L 451.579677 105.881517 
L 451.894158 99.485252 
L 452.205036 107.727915 
L 452.527225 103.29777 
L 453.731357 107.810792 
L 454.95517 102.277811 
L 456.243326 105.882561 
L 456.632034 105.927361 
L 458.233793 101.387553 
L 458.993072 107.828453 
L 459.338161 105.145061 
L 460.160703 102.456691 
L 461.441405 105.002834 
L 461.868561 103.911657 
L 462.31094 104.628927 
L 462.649224 108.565455 
L 463.3678 105.888903 
L 464.312899 104.01861 
L 465.563418 108.321842 
L 466.763531 101.795292 
L 467.145182 101.743032 
L 467.512863 106.598722 
L 467.906255 102.868464 
L 468.73486 104.915902 
L 469.067718 109.01782 
L 469.396903 103.365172 
L 469.768379 101.639991 
L 470.128318 103.770895 
L 470.559218 104.11117 
L 470.902855 107.73787 
L 471.24324 105.343615 
L 471.654057 104.162146 
L 472.073921 104.567898 
L 472.549093 105.429573 
L 472.988604 104.651836 
L 473.791008 103.739766 
L 474.194264 103.332752 
L 474.581126 105.707418 
L 475.02303 104.652427 
L 475.388939 101.840779 
L 475.744039 104.495216 
L 476.159679 107.061632 
L 476.550021 105.83199 
L 476.889962 101.735173 
L 477.226805 105.065651 
L 477.631258 106.415081 
L 478.487358 102.570941 
L 478.891917 102.986052 
L 480.106682 107.848327 
L 480.484084 107.284348 
L 481.291771 103.522793 
L 481.698805 107.215586 
L 482.1168 105.14783 
L 482.547417 104.932232 
L 482.909814 102.872092 
L 483.274497 106.477319 
L 484.09026 106.858401 
L 484.509391 106.181998 
L 485.917742 103.897657 
L 486.728838 104.701401 
L 487.489844 107.527926 
L 488.198948 99.392121 
L 488.52236 104.707475 
L 488.936722 106.9366 
L 489.310923 103.821506 
L 489.759597 104.178603 
L 490.232842 102.881088 
L 490.66666 106.280815 
L 491.110985 101.306593 
L 491.925658 101.889837 
L 493.493757 107.522235 
L 494.654685 103.474388 
L 495.057367 107.367112 
L 495.839146 105.568066 
L 497.011439 104.789948 
L 497.430171 106.334352 
L 497.878951 104.224696 
L 498.218751 100.851803 
L 498.555173 103.755664 
L 499.023594 105.084232 
L 499.355027 109.054062 
L 499.683039 102.975824 
L 500.043535 107.254096 
L 500.81857 102.243651 
L 501.183725 103.078283 
L 502.014791 104.846981 
L 502.431257 103.936766 
L 503.765019 105.897944 
L 505.114911 103.670846 
L 505.53992 106.784891 
L 506.408766 105.765612 
L 506.842119 106.729815 
L 507.242777 106.228584 
L 507.695957 103.400848 
L 508.446254 104.391763 
L 508.85703 104.173471 
L 509.626504 107.589832 
L 510.010004 107.238915 
L 510.754937 101.760998 
L 511.48844 102.880634 
L 512.293146 107.001364 
L 512.685858 103.042041 
L 513.531953 103.762709 
L 513.891346 101.320107 
L 514.247744 103.76807 
L 515.900914 107.056567 
L 516.275537 101.826212 
L 516.652093 107.274435 
L 517.041021 107.840853 
L 517.41704 103.08149 
L 518.180499 103.521967 
L 519.818376 106.091991 
L 520.221666 102.687122 
L 520.640183 108.372933 
L 521.031405 106.00204 
L 522.24453 102.391942 
L 522.59982 105.799965 
L 523.381901 104.29365 
L 523.770378 106.014366 
L 524.47475 105.51489 
L 524.814541 101.395336 
L 525.150769 106.749895 
L 525.520867 102.194274 
L 525.907975 107.238794 
L 526.686244 105.673874 
L 527.13928 102.538002 
L 527.553805 106.31383 
L 527.926564 108.773019 
L 528.26974 102.582703 
L 528.632803 104.680328 
L 529.096036 106.130506 
L 529.868831 106.768878 
L 530.293545 102.620674 
L 531.508889 105.528697 
L 532.2629 103.374644 
L 532.649685 105.737296 
L 533.038874 102.515651 
L 533.879875 104.19347 
L 534.640436 107.324071 
L 535.025743 107.239369 
L 536.232441 104.220905 
L 538.038384 106.061698 
L 538.111151 105.614364 
" clip-path="url(#p037379b043)" style="fill: none; stroke: #e41a1c; stroke-width: 2; stroke-linecap: square"/>
   </g>
   <g id="line2d_26">
    <path d="M 68.334162 104.801273 
L 68.477315 103.709032 
L 68.994855 105.565576 
L 69.243416 106.01478 
L 69.505049 105.241209 
L 70.426687 103.808096 
L 71.51508 104.840827 
L 71.852544 103.428176 
L 72.137097 105.098499 
L 73.073023 105.349353 
L 73.34712 103.080402 
L 73.830991 104.278551 
L 74.086884 105.851366 
L 74.323493 104.187544 
L 74.55527 104.688208 
L 74.879076 104.208717 
L 75.225093 104.556567 
L 75.851813 104.004588 
L 76.120451 105.712577 
L 76.398749 103.990082 
L 77.308599 104.164213 
L 77.684473 104.299774 
L 78.03291 105.522833 
L 78.700067 104.23185 
L 79.781505 105.859375 
L 80.137423 105.06131 
L 81.264686 105.641245 
L 81.60648 105.211897 
L 82.586235 103.910102 
L 84.537988 105.318214 
L 84.884188 103.823009 
L 85.211599 105.088423 
L 86.116072 107.212194 
L 86.604379 106.793277 
L 87.053324 104.037191 
L 87.746958 105.664211 
L 88.960301 105.842754 
L 91.854798 104.499945 
L 93.511843 104.72182 
L 93.913266 105.690864 
L 94.281637 105.246163 
L 94.618599 103.868529 
L 95.288332 104.604697 
L 98.413756 104.555617 
L 98.727506 103.575731 
L 99.025396 105.026794 
L 99.30991 104.745285 
L 102.060305 106.066218 
L 102.379424 104.269849 
L 103.038442 105.886851 
L 106.140123 103.009542 
L 107.088377 106.302739 
L 107.333476 104.809636 
L 107.598275 103.582263 
L 108.095633 105.226264 
L 108.397084 105.730734 
L 108.700529 105.330839 
L 109.075766 104.069347 
L 109.416363 104.277361 
L 110.729984 107.131748 
L 111.521665 104.100074 
L 112.02494 105.494846 
L 113.138436 106.610833 
L 113.787104 104.456755 
L 114.296667 105.835042 
L 115.102324 105.315151 
L 115.501181 104.717395 
L 115.843181 105.986056 
L 118.580966 103.951373 
L 119.76734 104.722798 
L 121.893525 103.826178 
L 122.900887 105.506354 
L 123.503651 103.870176 
L 123.832298 104.504159 
L 124.472675 106.164567 
L 124.758729 105.043621 
L 125.060824 104.73356 
L 125.347161 106.401368 
L 125.626865 104.629375 
L 125.884675 105.292229 
L 127.455014 104.620754 
L 127.995456 104.40653 
L 128.350782 105.544029 
L 128.694063 104.682081 
L 129.854764 105.04258 
L 130.209513 106.090844 
L 130.540517 105.381726 
L 131.343046 105.321439 
L 132.205493 106.363168 
L 132.592213 105.391251 
L 132.962964 104.797264 
L 133.312763 105.918321 
L 134.011204 105.648103 
L 134.389183 104.762555 
L 135.141677 105.341783 
L 136.74276 103.496607 
L 137.713502 105.49488 
L 139.173467 103.191022 
L 140.515823 104.803134 
L 141.548079 103.760359 
L 143.047699 105.059133 
L 143.813346 105.496929 
L 144.510479 106.071595 
L 145.100559 104.148088 
L 145.933881 104.856524 
L 145.663371 103.517985 
L 146.208787 104.558283 
L 146.608145 104.48731 
L 146.916452 106.071401 
L 147.525653 105.155187 
L 150.790611 103.824831 
L 152.108068 103.855833 
L 154.658554 106.396917 
L 155.836282 103.155393 
L 156.784292 103.95624 
L 157.046472 105.858558 
L 157.556738 104.593592 
L 157.866394 103.219119 
L 158.439725 104.115064 
L 158.775503 104.040915 
L 159.73684 105.777273 
L 160.062833 105.683235 
L 161.146523 103.661233 
L 161.420809 104.509251 
L 161.704058 106.43393 
L 162.273081 104.493804 
L 162.292365 83.693404 
L 162.289756 135.767504 
L 163.145522 98.290663 
L 163.460212 99.583231 
L 163.663431 97.004084 
L 166.173137 85.763422 
L 166.382119 86.757916 
L 166.702905 86.127227 
L 167.51575 83.873355 
L 167.825784 84.260996 
L 173.08199 73.467548 
L 173.52165 73.359187 
L 174.946292 70.297463 
L 175.361213 70.327548 
L 178.062576 63.67785 
L 178.8497 65.076229 
L 179.261053 64.912408 
L 181.949649 59.476487 
L 182.323468 60.340778 
L 182.913489 59.334704 
L 184.65376 57.707217 
L 185.563417 58.14866 
L 188.126978 55.44631 
L 188.530363 56.625703 
L 188.947249 55.804817 
L 189.280134 54.147095 
L 190.014551 55.220368 
L 190.53865 55.149128 
L 191.712979 53.771146 
L 192.1877 54.197223 
L 192.573896 53.246809 
L 192.955998 53.17515 
L 194.091095 51.601634 
L 195.04802 51.955619 
L 197.072459 49.836372 
L 197.42711 51.151766 
L 197.847814 50.814668 
L 198.861413 50.417517 
L 199.222537 51.466231 
L 199.580592 50.08041 
L 200.378531 50.079581 
L 200.733116 51.133015 
L 201.084818 49.752958 
L 201.482846 50.706918 
L 201.996596 50.031987 
L 202.359166 51.171703 
L 202.718293 51.454104 
L 203.113465 50.48868 
L 203.560914 50.955692 
L 205.780798 52.558235 
L 206.089329 50.259849 
L 206.760526 52.547352 
L 210.12688 51.911785 
L 211.784035 50.558685 
L 213.682783 53.478695 
L 214.024332 52.227755 
L 214.903137 52.695029 
L 217.56495 53.374379 
L 217.970716 52.64454 
L 218.340951 54.335598 
L 218.718639 53.205845 
L 219.11798 52.548273 
L 219.48954 52.794016 
L 220.90297 53.62685 
L 221.670143 52.446253 
L 222.069832 52.953085 
L 225.153611 55.320427 
L 225.967784 53.899198 
L 226.352437 54.780269 
L 227.249341 55.207582 
L 228.153673 53.662628 
L 228.555152 55.294996 
L 229.385059 54.593547 
L 230.590648 53.639385 
L 230.919002 55.472876 
L 231.677378 54.18168 
L 235.905204 55.308413 
L 236.908651 54.485286 
L 237.356851 55.390453 
L 238.637644 56.849066 
L 239.828393 54.695262 
L 240.730758 55.252061 
L 242.192647 54.558294 
L 243.2747 56.344832 
L 243.70076 55.03705 
L 244.098842 56.467847 
L 245.373617 55.538793 
L 246.196854 57.872961 
L 246.547876 57.133155 
L 246.955058 56.477363 
L 247.32482 58.026291 
L 247.711703 56.281155 
L 249.342759 55.783358 
L 249.763996 54.851112 
L 250.607342 55.364386 
L 251.9744 56.035385 
L 254.759598 55.276818 
L 255.677372 55.923342 
L 256.095969 54.435568 
L 256.93782 54.817967 
L 257.397315 54.960232 
L 257.744561 56.215574 
L 258.566748 55.81687 
L 259.296074 54.953941 
L 259.704858 55.950121 
L 261.697137 56.291403 
L 263.668576 54.847628 
L 265.452295 56.911165 
L 265.813104 56.403148 
L 266.165062 55.427433 
L 266.514798 56.26694 
L 267.448762 55.661681 
L 267.897079 55.030952 
L 268.310665 55.916411 
L 269.078496 57.22494 
L 269.462292 55.421035 
L 270.231633 55.738174 
L 270.631844 56.173645 
L 271.043804 55.76956 
L 272.403279 55.468036 
L 273.714541 55.446952 
L 274.059593 54.166717 
L 274.401464 56.231974 
L 277.359298 56.388255 
L 277.739579 55.551886 
L 278.115014 57.042527 
L 280.519948 56.094164 
L 280.862588 54.498642 
L 281.619447 55.349107 
L 282.843378 56.508998 
L 285.402281 56.00867 
L 285.911119 55.634286 
L 286.264398 56.8502 
L 286.614643 56.58238 
L 287.822523 55.349129 
L 288.298333 56.402788 
L 289.073554 55.706176 
L 291.825874 55.642887 
L 292.637904 55.489054 
L 293.053623 54.629675 
L 293.459457 56.301373 
L 293.8573 55.271395 
L 296.577731 56.169234 
L 297.871107 56.322782 
L 298.710975 55.981407 
L 299.890792 56.713196 
L 301.24721 56.769939 
L 302.239295 57.456775 
L 302.706299 56.846139 
L 303.494036 55.535817 
L 303.883923 56.59022 
L 304.26233 57.160945 
L 304.632511 55.939482 
L 308.254406 55.686757 
L 308.591398 55.036485 
L 308.94848 55.97802 
L 312.632678 55.673518 
L 313.796306 56.440026 
L 315.456598 54.696991 
L 316.854612 55.404645 
L 318.083982 56.579898 
L 319.27141 55.30707 
L 319.656244 57.115805 
L 320.031688 54.941571 
L 320.409204 54.922209 
L 321.189079 56.952096 
L 321.938939 54.77391 
L 322.312408 55.026182 
L 323.195605 53.949863 
L 323.580627 55.085959 
L 324.335186 56.201661 
L 324.7414 55.565373 
L 326.405862 56.358562 
L 328.33575 54.400584 
L 330.943421 55.599295 
L 331.326699 54.595857 
L 332.187631 56.3455 
L 332.602407 55.842075 
L 333.05409 57.043269 
L 333.431976 55.647866 
L 335.560511 56.452237 
L 336.822316 57.018596 
L 337.69251 55.477166 
L 338.101659 55.828429 
L 339.097813 55.276776 
L 339.52655 56.791172 
L 339.920986 55.729708 
L 343.411745 56.094247 
L 344.745236 55.827738 
L 345.756639 55.710486 
L 346.650509 54.777986 
L 347.076307 55.419489 
L 348.667509 56.12654 
L 350.021356 55.101821 
L 350.197754 58.320766 
L 350.200233 58.28908 
L 350.200741 78.084311 
L 350.201433 39.638214 
L 351.077898 58.787628 
L 351.496242 58.709114 
L 354.14625 65.936223 
L 354.502254 65.913905 
L 355.297374 68.143927 
L 355.681611 66.829923 
L 357.871209 69.561848 
L 358.231953 69.064713 
L 358.751137 69.493884 
L 360.577548 70.781463 
L 360.92358 69.61944 
L 362.309962 73.929955 
L 363.427353 71.964836 
L 364.815095 74.571978 
L 366.155071 75.626847 
L 366.634221 74.962044 
L 367.754115 76.79783 
L 368.185743 76.377624 
L 368.576667 77.292588 
L 370.567744 79.988773 
L 372.237706 78.855212 
L 373.169823 79.284376 
L 373.742883 79.188088 
L 374.100068 80.357284 
L 374.453545 79.322356 
L 374.893986 78.717211 
L 375.291479 80.819122 
L 376.117793 80.300988 
L 377.333542 81.284822 
L 378.327921 81.285944 
L 378.765258 81.935938 
L 379.161965 81.257793 
L 381.280959 81.533157 
L 382.510316 82.503863 
L 384.08539 83.025929 
L 385.197845 81.027349 
L 386.87623 82.79892 
L 387.627812 81.169961 
L 388.027796 81.599974 
L 388.599524 81.018564 
L 388.974871 81.910739 
L 390.465858 83.650954 
L 390.83542 83.128692 
L 391.957755 81.977878 
L 392.67126 82.982988 
L 393.103448 82.774836 
L 394.955373 82.886762 
L 396.26724 82.500498 
L 397.414182 81.645762 
L 398.649861 83.153794 
L 402.977796 81.481943 
L 403.778312 82.561026 
L 404.190006 81.60988 
L 405.013375 82.999652 
L 405.376579 82.427654 
L 406.435778 80.839478 
L 406.835222 81.842659 
L 407.276535 81.090594 
L 407.689488 80.328109 
L 408.069186 81.663984 
L 409.399142 80.91523 
L 410.953975 82.427571 
L 412.257081 81.781205 
L 413.971749 81.471155 
L 415.183651 80.39471 
L 415.523697 81.731712 
L 416.329033 80.916526 
L 417.6481 80.899823 
L 418.750937 80.46742 
L 419.496615 79.150243 
L 420.270401 81.247924 
L 421.071189 80.728279 
L 423.081732 81.204221 
L 423.965868 79.738845 
L 424.373356 79.970624 
L 425.685203 80.024935 
L 427.08185 78.357568 
L 428.332413 79.572839 
L 432.782749 80.535585 
L 433.220592 79.944597 
L 433.616815 80.678651 
L 435.254192 81.079001 
L 435.975228 79.588898 
L 436.353069 79.993867 
L 436.73106 80.62407 
L 437.467853 78.522846 
L 437.855862 78.964707 
L 438.198187 80.066705 
L 439.04197 79.473981 
L 440.756765 80.890714 
L 441.207602 79.950013 
L 441.652697 80.492194 
L 442.864672 80.645954 
L 443.597227 81.229549 
L 444.353001 78.521319 
L 444.713831 78.382694 
L 445.861123 80.893343 
L 447.002628 79.319399 
L 447.396548 79.856781 
L 447.725076 81.496241 
L 448.049879 80.972057 
L 448.923995 79.406826 
L 449.314868 79.955072 
L 450.273509 80.400177 
L 450.74695 79.267044 
L 451.176961 80.739632 
L 451.579677 80.618692 
L 451.894158 78.391836 
L 452.205036 80.763544 
L 452.527225 79.488322 
L 453.731357 81.603432 
L 454.95517 79.564122 
L 456.243326 80.406452 
L 457.427318 80.188742 
L 458.233793 78.624508 
L 458.619 79.744895 
L 458.993072 80.752163 
L 459.338161 80.144753 
L 461.868561 79.016992 
L 462.31094 79.153098 
L 462.649224 80.620122 
L 463.3678 80.20681 
L 464.747697 80.235117 
L 466.370199 82.137984 
L 467.145182 79.595849 
L 467.512863 81.045921 
L 468.314746 79.946474 
L 468.73486 80.201803 
L 469.067718 81.762848 
L 469.396903 80.197523 
L 470.559218 79.627583 
L 470.902855 80.91217 
L 471.654057 80.007196 
L 475.02303 79.843354 
L 475.388939 78.719714 
L 475.744039 79.317603 
L 476.550021 80.177716 
L 476.889962 78.760769 
L 477.226805 79.605632 
L 477.631258 80.195457 
L 478.042168 79.480031 
L 479.317127 78.669658 
L 480.484084 80.712616 
L 481.291771 79.561392 
L 481.698805 80.863173 
L 482.547417 80.404071 
L 482.909814 79.625035 
L 483.274497 80.752372 
L 485.505594 81.738858 
L 486.728838 81.402718 
L 487.489844 82.602511 
L 487.852407 81.257287 
L 488.198948 79.619443 
L 488.52236 80.901236 
L 488.936722 81.799124 
L 489.310923 80.891744 
L 490.66666 81.254461 
L 491.925658 78.701777 
L 493.493757 80.797575 
L 494.654685 79.458296 
L 495.839146 80.678132 
L 497.011439 80.552919 
L 497.430171 81.193603 
L 497.878951 80.580991 
L 498.218751 79.222618 
L 498.555173 79.787742 
L 500.043535 81.370826 
L 500.428893 80.326627 
L 501.606817 79.743368 
L 502.930807 79.641826 
L 505.114911 78.821822 
L 506.408766 79.78371 
L 507.242777 80.471529 
L 508.85703 79.376131 
L 510.010004 81.166101 
L 510.415091 80.696057 
L 511.48844 79.486043 
L 512.293146 81.200815 
L 513.891346 78.721307 
L 515.900914 80.344321 
L 516.275537 78.618989 
L 516.652093 80.319068 
L 517.041021 80.934391 
L 518.180499 79.448563 
L 519.818376 80.31959 
L 520.221666 79.146097 
L 520.640183 81.137183 
L 521.031405 80.753435 
L 522.24453 79.522501 
L 522.59982 80.497487 
L 523.381901 80.040948 
L 524.47475 80.735092 
L 525.520867 79.339265 
L 525.907975 80.948148 
L 526.686244 80.760268 
L 527.13928 79.581815 
L 527.553805 80.754699 
L 527.926564 81.95205 
L 528.26974 80.142237 
L 529.868831 81.524518 
L 531.121728 79.977664 
L 531.508889 80.725131 
L 531.880306 80.062635 
L 533.879875 79.36346 
L 535.828678 80.982045 
L 537.154461 80.253847 
L 538.111151 80.911049 
L 538.111151 80.911049 
" clip-path="url(#p037379b043)" style="fill: none; stroke: #377eb8; stroke-width: 2; stroke-linecap: square"/>
   </g>
   <g id="patch_3">
    <path d="M 44.845313 241.599141 
L 44.845313 7.2 
" style="fill: none; stroke: #7f7f7f; stroke-width: 1.8; stroke-linejoin: miter; stroke-linecap: square"/>
   </g>
   <g id="patch_4">
    <path d="M 44.845313 241.599141 
L 561.6 241.599141 
" style="fill: none; stroke: #7f7f7f; stroke-width: 1.8; stroke-linejoin: miter; stroke-linecap: square"/>
   </g>
   <g id="legend_1">
    <g id="line2d_27">
     <path d="M 499.584375 20.298438 
L 509.584375 20.298438 
L 519.584375 20.298438 
" style="fill: none; stroke: #e41a1c; stroke-width: 2; stroke-linecap: square"/>
    </g>
    <g id="text_14">
     <!-- err 2 -->
     <g style="fill: #7f7f7f" transform="translate(527.584375 23.798438) scale(0.1 -0.1)">
      <defs>
       <path id="DejaVuSans-55" d="M 2631 2963 
Q 2534 3019 2420 3045 
Q 2306 3072 2169 3072 
Q 1681 3072 1420 2755 
Q 1159 2438 1159 1844 
L 1159 0 
L 581 0 
L 581 3500 
L 1159 3500 
L 1159 2956 
Q 1341 3275 1631 3429 
Q 1922 3584 2338 3584 
Q 2397 3584 2469 3576 
Q 2541 3569 2628 3553 
L 2631 2963 
z
" transform="scale(0.015625)"/>
      </defs>
      <use xlink:href="#DejaVuSans-48"/>
      <use xlink:href="#DejaVuSans-55" transform="translate(61.53125 0)"/>
      <use xlink:href="#DejaVuSans-55" transform="translate(100.890625 0)"/>
      <use xlink:href="#DejaVuSans-3" transform="translate(142 0)"/>
      <use xlink:href="#DejaVuSans-15" transform="translate(173.78125 0)"/>
     </g>
    </g>
    <g id="line2d_28">
     <path d="M 499.584375 35.299219 
L 509.584375 35.299219 
L 519.584375 35.299219 
" style="fill: none; stroke: #377eb8; stroke-width: 2; stroke-linecap: square"/>
    </g>
    <g id="text_15">
     <!-- pid 2 -->
     <g style="fill: #7f7f7f" transform="translate(527.584375 38.799219) scale(0.1 -0.1)">
      <defs>
       <path id="DejaVuSans-53" d="M 1159 525 
L 1159 -1331 
L 581 -1331 
L 581 3500 
L 1159 3500 
L 1159 2969 
Q 1341 3281 1617 3432 
Q 1894 3584 2278 3584 
Q 2916 3584 3314 3078 
Q 3713 2572 3713 1747 
Q 3713 922 3314 415 
Q 2916 -91 2278 -91 
Q 1894 -91 1617 61 
Q 1341 213 1159 525 
z
M 3116 1747 
Q 3116 2381 2855 2742 
Q 2594 3103 2138 3103 
Q 1681 3103 1420 2742 
Q 1159 2381 1159 1747 
Q 1159 1113 1420 752 
Q 1681 391 2138 391 
Q 2594 391 2855 752 
Q 3116 1113 3116 1747 
z
" transform="scale(0.015625)"/>
       <path id="DejaVuSans-47" d="M 2906 2969 
L 2906 4863 
L 3481 4863 
L 3481 0 
L 2906 0 
L 2906 525 
Q 2725 213 2448 61 
Q 2172 -91 1784 -91 
Q 1150 -91 751 415 
Q 353 922 353 1747 
Q 353 2572 751 3078 
Q 1150 3584 1784 3584 
Q 2172 3584 2448 3432 
Q 2725 3281 2906 2969 
z
M 947 1747 
Q 947 1113 1208 752 
Q 1469 391 1925 391 
Q 2381 391 2643 752 
Q 2906 1113 2906 1747 
Q 2906 2381 2643 2742 
Q 2381 3103 1925 3103 
Q 1469 3103 1208 2742 
Q 947 2381 947 1747 
z
" transform="scale(0.015625)"/>
      </defs>
      <use xlink:href="#DejaVuSans-53"/>
      <use xlink:href="#DejaVuSans-4c" transform="translate(63.484375 0)"/>
      <use xlink:href="#DejaVuSans-47" transform="translate(91.265625 0)"/>
      <use xlink:href="#DejaVuSans-3" transform="translate(154.75 0)"/>
      <use xlink:href="#DejaVuSans-15" transform="translate(186.53125 0)"/>
     </g>
    </g>
   </g>
  </g>
 </g>
 <defs>
  <clipPath id="p037379b043">
   <rect x="44.845313" y="7.2" width="516.754687" height="234.399141"/>
  </clipPath>
 </defs>
</svg>
