<?xml version="1.0" encoding="utf-8" standalone="no"?>
<!DOCTYPE svg PUBLIC "-//W3C//DTD SVG 1.1//EN"
  "http://www.w3.org/Graphics/SVG/1.1/DTD/svg11.dtd">
<svg xmlns:xlink="http://www.w3.org/1999/xlink" width="568.8pt" height="424.8pt" viewBox="0 0 568.8 424.8" xmlns="http://www.w3.org/2000/svg" version="1.1">
 <metadata>
  <rdf:RDF xmlns:dc="http://purl.org/dc/elements/1.1/" xmlns:cc="http://creativecommons.org/ns#" xmlns:rdf="http://www.w3.org/1999/02/22-rdf-syntax-ns#">
   <cc:Work>
    <dc:type rdf:resource="http://purl.org/dc/dcmitype/StillImage"/>
    <dc:date>2026-06-22T14:10:07.173530</dc:date>
    <dc:format>image/svg+xml</dc:format>
    <dc:creator>
     <cc:Agent>
      <dc:title>Matplotlib v3.11.0, https://matplotlib.org/</dc:title>
     </cc:Agent>
    </dc:creator>
   </cc:Work>
  </rdf:RDF>
 </metadata>
 <defs>
  <style type="text/css">*{stroke-linejoin: round; stroke-linecap: butt}</style>
 </defs>
 <g id="figure_1">
  <g id="patch_1">
   <path d="M 0 424.8 
L 568.8 424.8 
L 568.8 0 
L 0 0 
L 0 424.8 
z
" style="fill: none"/>
  </g>
  <g id="axes_1">
   <g id="patch_2">
    <path d="M 51.466484 190.058633 
L 561.6 190.058633 
L 561.6 22.318125 
L 51.466484 22.318125 
L 51.466484 190.058633 
z
" style="fill: none"/>
   </g>
   <g id="matplotlib.axis_1">
    <g id="xtick_1">
     <g id="line2d_1">
      <defs>
       <path id="m11915526e4" d="M 0 0 
L 0 3.5 
" style="stroke: #7f7f7f; stroke-width: 1.8"/>
      </defs>
      <g>
       <use xlink:href="#m11915526e4" x="74.654371" y="190.058633" style="fill: #7f7f7f; stroke: #7f7f7f; stroke-width: 1.8"/>
      </g>
     </g>
     <g id="text_1">
      <!-- 0.0 -->
      <g style="fill: #7f7f7f" transform="translate(66.702809 204.656289) scale(0.1 -0.1)">
       <defs>
        <path id="DejaVuSans-13" d="M 2034 4250 
Q 1547 4250 1301 3770 
Q 1056 3291 1056 2328 
Q 1056 1369 1301 889 
Q 1547 409 2034 409 
Q 2525 409 2770 889 
Q 3016 1369 3016 2328 
Q 3016 3291 2770 3770 
Q 2525 4250 2034 4250 
z
M 2034 4750 
Q 2819 4750 3233 4129 
Q 3647 3509 3647 2328 
Q 3647 1150 3233 529 
Q 2819 -91 2034 -91 
Q 1250 -91 836 529 
Q 422 1150 422 2328 
Q 422 3509 836 4129 
Q 1250 4750 2034 4750 
z
" transform="scale(0.015625)"/>
        <path id="DejaVuSans-11" d="M 684 794 
L 1344 794 
L 1344 0 
L 684 0 
L 684 794 
z
" transform="scale(0.015625)"/>
       </defs>
       <use xlink:href="#DejaVuSans-13"/>
       <use xlink:href="#DejaVuSans-11" transform="translate(63.625 0)"/>
       <use xlink:href="#DejaVuSans-13" transform="translate(95.40625 0)"/>
      </g>
     </g>
    </g>
    <g id="xtick_2">
     <g id="line2d_2">
      <g>
       <use xlink:href="#m11915526e4" x="132.624089" y="190.058633" style="fill: #7f7f7f; stroke: #7f7f7f; stroke-width: 1.8"/>
      </g>
     </g>
     <g id="text_2">
      <!-- 2.5 -->
      <g style="fill: #7f7f7f" transform="translate(124.672527 204.656289) scale(0.1 -0.1)">
       <defs>
        <path id="DejaVuSans-15" d="M 1228 531 
L 3431 531 
L 3431 0 
L 469 0 
L 469 531 
Q 828 903 1448 1529 
Q 2069 2156 2228 2338 
Q 2531 2678 2651 2914 
Q 2772 3150 2772 3378 
Q 2772 3750 2511 3984 
Q 2250 4219 1831 4219 
Q 1534 4219 1204 4116 
Q 875 4013 500 3803 
L 500 4441 
Q 881 4594 1212 4672 
Q 1544 4750 1819 4750 
Q 2544 4750 2975 4387 
Q 3406 4025 3406 3419 
Q 3406 3131 3298 2873 
Q 3191 2616 2906 2266 
Q 2828 2175 2409 1742 
Q 1991 1309 1228 531 
z
" transform="scale(0.015625)"/>
        <path id="DejaVuSans-18" d="M 691 4666 
L 3169 4666 
L 3169 4134 
L 1269 4134 
L 1269 2991 
Q 1406 3038 1543 3061 
Q 1681 3084 1819 3084 
Q 2600 3084 3056 2656 
Q 3513 2228 3513 1497 
Q 3513 744 3044 326 
Q 2575 -91 1722 -91 
Q 1428 -91 1123 -41 
Q 819 9 494 109 
L 494 744 
Q 775 591 1075 516 
Q 1375 441 1709 441 
Q 2250 441 2565 725 
Q 2881 1009 2881 1497 
Q 2881 1984 2565 2268 
Q 2250 2553 1709 2553 
Q 1456 2553 1204 2497 
Q 953 2441 691 2322 
L 691 4666 
z
" transform="scale(0.015625)"/>
       </defs>
       <use xlink:href="#DejaVuSans-15"/>
       <use xlink:href="#DejaVuSans-11" transform="translate(63.625 0)"/>
       <use xlink:href="#DejaVuSans-18" transform="translate(95.40625 0)"/>
      </g>
     </g>
    </g>
    <g id="xtick_3">
     <g id="line2d_3">
      <g>
       <use xlink:href="#m11915526e4" x="190.593807" y="190.058633" style="fill: #7f7f7f; stroke: #7f7f7f; stroke-width: 1.8"/>
      </g>
     </g>
     <g id="text_3">
      <!-- 5.0 -->
      <g style="fill: #7f7f7f" transform="translate(182.642244 204.656289) scale(0.1 -0.1)">
       <use xlink:href="#DejaVuSans-18"/>
       <use xlink:href="#DejaVuSans-11" transform="translate(63.625 0)"/>
       <use xlink:href="#DejaVuSans-13" transform="translate(95.40625 0)"/>
      </g>
     </g>
    </g>
    <g id="xtick_4">
     <g id="line2d_4">
      <g>
       <use xlink:href="#m11915526e4" x="248.563525" y="190.058633" style="fill: #7f7f7f; stroke: #7f7f7f; stroke-width: 1.8"/>
      </g>
     </g>
     <g id="text_4">
      <!-- 7.5 -->
      <g style="fill: #7f7f7f" transform="translate(240.611962 204.656289) scale(0.1 -0.1)">
       <defs>
        <path id="DejaVuSans-1a" d="M 525 4666 
L 3525 4666 
L 3525 4397 
L 1831 0 
L 1172 0 
L 2766 4134 
L 525 4134 
L 525 4666 
z
" transform="scale(0.015625)"/>
       </defs>
       <use xlink:href="#DejaVuSans-1a"/>
       <use xlink:href="#DejaVuSans-11" transform="translate(63.625 0)"/>
       <use xlink:href="#DejaVuSans-18" transform="translate(95.40625 0)"/>
      </g>
     </g>
    </g>
    <g id="xtick_5">
     <g id="line2d_5">
      <g>
       <use xlink:href="#m11915526e4" x="306.533242" y="190.058633" style="fill: #7f7f7f; stroke: #7f7f7f; stroke-width: 1.8"/>
      </g>
     </g>
     <g id="text_5">
      <!-- 10.0 -->
      <g style="fill: #7f7f7f" transform="translate(295.40043 204.656289) scale(0.1 -0.1)">
       <defs>
        <path id="DejaVuSans-14" d="M 794 531 
L 1825 531 
L 1825 4091 
L 703 3866 
L 703 4441 
L 1819 4666 
L 2450 4666 
L 2450 531 
L 3481 531 
L 3481 0 
L 794 0 
L 794 531 
z
" transform="scale(0.015625)"/>
       </defs>
       <use xlink:href="#DejaVuSans-14"/>
       <use xlink:href="#DejaVuSans-13" transform="translate(63.625 0)"/>
       <use xlink:href="#DejaVuSans-11" transform="translate(127.25 0)"/>
       <use xlink:href="#DejaVuSans-13" transform="translate(159.03125 0)"/>
      </g>
     </g>
    </g>
    <g id="xtick_6">
     <g id="line2d_6">
      <g>
       <use xlink:href="#m11915526e4" x="364.50296" y="190.058633" style="fill: #7f7f7f; stroke: #7f7f7f; stroke-width: 1.8"/>
      </g>
     </g>
     <g id="text_6">
      <!-- 12.5 -->
      <g style="fill: #7f7f7f" transform="translate(353.370147 204.656289) scale(0.1 -0.1)">
       <use xlink:href="#DejaVuSans-14"/>
       <use xlink:href="#DejaVuSans-15" transform="translate(63.625 0)"/>
       <use xlink:href="#DejaVuSans-11" transform="translate(127.25 0)"/>
       <use xlink:href="#DejaVuSans-18" transform="translate(159.03125 0)"/>
      </g>
     </g>
    </g>
    <g id="xtick_7">
     <g id="line2d_7">
      <g>
       <use xlink:href="#m11915526e4" x="422.472678" y="190.058633" style="fill: #7f7f7f; stroke: #7f7f7f; stroke-width: 1.8"/>
      </g>
     </g>
     <g id="text_7">
      <!-- 15.0 -->
      <g style="fill: #7f7f7f" transform="translate(411.339865 204.656289) scale(0.1 -0.1)">
       <use xlink:href="#DejaVuSans-14"/>
       <use xlink:href="#DejaVuSans-18" transform="translate(63.625 0)"/>
       <use xlink:href="#DejaVuSans-11" transform="translate(127.25 0)"/>
       <use xlink:href="#DejaVuSans-13" transform="translate(159.03125 0)"/>
      </g>
     </g>
    </g>
    <g id="xtick_8">
     <g id="line2d_8">
      <g>
       <use xlink:href="#m11915526e4" x="480.442395" y="190.058633" style="fill: #7f7f7f; stroke: #7f7f7f; stroke-width: 1.8"/>
      </g>
     </g>
     <g id="text_8">
      <!-- 17.5 -->
      <g style="fill: #7f7f7f" transform="translate(469.309583 204.656289) scale(0.1 -0.1)">
       <use xlink:href="#DejaVuSans-14"/>
       <use xlink:href="#DejaVuSans-1a" transform="translate(63.625 0)"/>
       <use xlink:href="#DejaVuSans-11" transform="translate(127.25 0)"/>
       <use xlink:href="#DejaVuSans-18" transform="translate(159.03125 0)"/>
      </g>
     </g>
    </g>
    <g id="xtick_9">
     <g id="line2d_9">
      <g>
       <use xlink:href="#m11915526e4" x="538.412113" y="190.058633" style="fill: #7f7f7f; stroke: #7f7f7f; stroke-width: 1.8"/>
      </g>
     </g>
     <g id="text_9">
      <!-- 20.0 -->
      <g style="fill: #7f7f7f" transform="translate(527.2793 204.656289) scale(0.1 -0.1)">
       <use xlink:href="#DejaVuSans-15"/>
       <use xlink:href="#DejaVuSans-13" transform="translate(63.625 0)"/>
       <use xlink:href="#DejaVuSans-11" transform="translate(127.25 0)"/>
       <use xlink:href="#DejaVuSans-13" transform="translate(159.03125 0)"/>
      </g>
     </g>
    </g>
   </g>
   <g id="matplotlib.axis_2">
    <g id="ytick_1">
     <g id="line2d_10">
      <defs>
       <path id="mfb73705a0e" d="M 0 0 
L -3.5 0 
" style="stroke: #7f7f7f; stroke-width: 1.8"/>
      </defs>
      <g>
       <use xlink:href="#mfb73705a0e" x="51.466484" y="182.434064" style="fill: #7f7f7f; stroke: #7f7f7f; stroke-width: 1.8"/>
      </g>
     </g>
     <g id="text_10">
      <!-- 0.00 -->
      <g style="fill: #7f7f7f" transform="translate(22.200859 186.232892) scale(0.1 -0.1)">
       <use xlink:href="#DejaVuSans-13"/>
       <use xlink:href="#DejaVuSans-11" transform="translate(63.625 0)"/>
       <use xlink:href="#DejaVuSans-13" transform="translate(95.40625 0)"/>
       <use xlink:href="#DejaVuSans-13" transform="translate(159.03125 0)"/>
      </g>
     </g>
    </g>
    <g id="ytick_2">
     <g id="line2d_11">
      <g>
       <use xlink:href="#mfb73705a0e" x="51.466484" y="155.480072" style="fill: #7f7f7f; stroke: #7f7f7f; stroke-width: 1.8"/>
      </g>
     </g>
     <g id="text_11">
      <!-- 0.05 -->
      <g style="fill: #7f7f7f" transform="translate(22.200859 159.2789) scale(0.1 -0.1)">
       <use xlink:href="#DejaVuSans-13"/>
       <use xlink:href="#DejaVuSans-11" transform="translate(63.625 0)"/>
       <use xlink:href="#DejaVuSans-13" transform="translate(95.40625 0)"/>
       <use xlink:href="#DejaVuSans-18" transform="translate(159.03125 0)"/>
      </g>
     </g>
    </g>
    <g id="ytick_3">
     <g id="line2d_12">
      <g>
       <use xlink:href="#mfb73705a0e" x="51.466484" y="128.52608" style="fill: #7f7f7f; stroke: #7f7f7f; stroke-width: 1.8"/>
      </g>
     </g>
     <g id="text_12">
      <!-- 0.10 -->
      <g style="fill: #7f7f7f" transform="translate(22.200859 132.324908) scale(0.1 -0.1)">
       <use xlink:href="#DejaVuSans-13"/>
       <use xlink:href="#DejaVuSans-11" transform="translate(63.625 0)"/>
       <use xlink:href="#DejaVuSans-14" transform="translate(95.40625 0)"/>
       <use xlink:href="#DejaVuSans-13" transform="translate(159.03125 0)"/>
      </g>
     </g>
    </g>
    <g id="ytick_4">
     <g id="line2d_13">
      <g>
       <use xlink:href="#mfb73705a0e" x="51.466484" y="101.572087" style="fill: #7f7f7f; stroke: #7f7f7f; stroke-width: 1.8"/>
      </g>
     </g>
     <g id="text_13">
      <!-- 0.15 -->
      <g style="fill: #7f7f7f" transform="translate(22.200859 105.370916) scale(0.1 -0.1)">
       <use xlink:href="#DejaVuSans-13"/>
       <use xlink:href="#DejaVuSans-11" transform="translate(63.625 0)"/>
       <use xlink:href="#DejaVuSans-14" transform="translate(95.40625 0)"/>
       <use xlink:href="#DejaVuSans-18" transform="translate(159.03125 0)"/>
      </g>
     </g>
    </g>
    <g id="ytick_5">
     <g id="line2d_14">
      <g>
       <use xlink:href="#mfb73705a0e" x="51.466484" y="74.618095" style="fill: #7f7f7f; stroke: #7f7f7f; stroke-width: 1.8"/>
      </g>
     </g>
     <g id="text_14">
      <!-- 0.20 -->
      <g style="fill: #7f7f7f" transform="translate(22.200859 78.416923) scale(0.1 -0.1)">
       <use xlink:href="#DejaVuSans-13"/>
       <use xlink:href="#DejaVuSans-11" transform="translate(63.625 0)"/>
       <use xlink:href="#DejaVuSans-15" transform="translate(95.40625 0)"/>
       <use xlink:href="#DejaVuSans-13" transform="translate(159.03125 0)"/>
      </g>
     </g>
    </g>
    <g id="ytick_6">
     <g id="line2d_15">
      <g>
       <use xlink:href="#mfb73705a0e" x="51.466484" y="47.664103" style="fill: #7f7f7f; stroke: #7f7f7f; stroke-width: 1.8"/>
      </g>
     </g>
     <g id="text_15">
      <!-- 0.25 -->
      <g style="fill: #7f7f7f" transform="translate(22.200859 51.462931) scale(0.1 -0.1)">
       <use xlink:href="#DejaVuSans-13"/>
       <use xlink:href="#DejaVuSans-11" transform="translate(63.625 0)"/>
       <use xlink:href="#DejaVuSans-15" transform="translate(95.40625 0)"/>
       <use xlink:href="#DejaVuSans-18" transform="translate(159.03125 0)"/>
      </g>
     </g>
    </g>
    <g id="text_16">
     <!-- Position Error [m] -->
     <g style="fill: #7f7f7f" transform="translate(15.558281 154.153535) rotate(-90) scale(0.11 -0.11)">
      <defs>
       <path id="DejaVuSans-33" d="M 1259 4147 
L 1259 2394 
L 2053 2394 
Q 2494 2394 2734 2622 
Q 2975 2850 2975 3272 
Q 2975 3691 2734 3919 
Q 2494 4147 2053 4147 
L 1259 4147 
z
M 628 4666 
L 2053 4666 
Q 2838 4666 3239 4311 
Q 3641 3956 3641 3272 
Q 3641 2581 3239 2228 
Q 2838 1875 2053 1875 
L 1259 1875 
L 1259 0 
L 628 0 
L 628 4666 
z
" transform="scale(0.015625)"/>
       <path id="DejaVuSans-52" d="M 1959 3097 
Q 1497 3097 1228 2736 
Q 959 2375 959 1747 
Q 959 1119 1226 758 
Q 1494 397 1959 397 
Q 2419 397 2687 759 
Q 2956 1122 2956 1747 
Q 2956 2369 2687 2733 
Q 2419 3097 1959 3097 
z
M 1959 3584 
Q 2709 3584 3137 3096 
Q 3566 2609 3566 1747 
Q 3566 888 3137 398 
Q 2709 -91 1959 -91 
Q 1206 -91 779 398 
Q 353 888 353 1747 
Q 353 2609 779 3096 
Q 1206 3584 1959 3584 
z
" transform="scale(0.015625)"/>
       <path id="DejaVuSans-56" d="M 2834 3397 
L 2834 2853 
Q 2591 2978 2328 3040 
Q 2066 3103 1784 3103 
Q 1356 3103 1142 2972 
Q 928 2841 928 2578 
Q 928 2378 1081 2264 
Q 1234 2150 1697 2047 
L 1894 2003 
Q 2506 1872 2764 1633 
Q 3022 1394 3022 966 
Q 3022 478 2636 193 
Q 2250 -91 1575 -91 
Q 1294 -91 989 -36 
Q 684 19 347 128 
L 347 722 
Q 666 556 975 473 
Q 1284 391 1588 391 
Q 1994 391 2212 530 
Q 2431 669 2431 922 
Q 2431 1156 2273 1281 
Q 2116 1406 1581 1522 
L 1381 1569 
Q 847 1681 609 1914 
Q 372 2147 372 2553 
Q 372 3047 722 3315 
Q 1072 3584 1716 3584 
Q 2034 3584 2315 3537 
Q 2597 3491 2834 3397 
z
" transform="scale(0.015625)"/>
       <path id="DejaVuSans-4c" d="M 603 3500 
L 1178 3500 
L 1178 0 
L 603 0 
L 603 3500 
z
M 603 4863 
L 1178 4863 
L 1178 4134 
L 603 4134 
L 603 4863 
z
" transform="scale(0.015625)"/>
       <path id="DejaVuSans-57" d="M 1172 4494 
L 1172 3500 
L 2356 3500 
L 2356 3053 
L 1172 3053 
L 1172 1153 
Q 1172 725 1289 603 
Q 1406 481 1766 481 
L 2356 481 
L 2356 0 
L 1766 0 
Q 1100 0 847 248 
Q 594 497 594 1153 
L 594 3053 
L 172 3053 
L 172 3500 
L 594 3500 
L 594 4494 
L 1172 4494 
z
" transform="scale(0.015625)"/>
       <path id="DejaVuSans-51" d="M 3513 2113 
L 3513 0 
L 2938 0 
L 2938 2094 
Q 2938 2591 2744 2837 
Q 2550 3084 2163 3084 
Q 1697 3084 1428 2787 
Q 1159 2491 1159 1978 
L 1159 0 
L 581 0 
L 581 3500 
L 1159 3500 
L 1159 2956 
Q 1366 3272 1645 3428 
Q 1925 3584 2291 3584 
Q 2894 3584 3203 3211 
Q 3513 2838 3513 2113 
z
" transform="scale(0.015625)"/>
       <path id="DejaVuSans-3" transform="scale(0.015625)"/>
       <path id="DejaVuSans-28" d="M 628 4666 
L 3578 4666 
L 3578 4134 
L 1259 4134 
L 1259 2753 
L 3481 2753 
L 3481 2222 
L 1259 2222 
L 1259 531 
L 3634 531 
L 3634 0 
L 628 0 
L 628 4666 
z
" transform="scale(0.015625)"/>
       <path id="DejaVuSans-55" d="M 2631 2963 
Q 2534 3019 2420 3045 
Q 2306 3072 2169 3072 
Q 1681 3072 1420 2755 
Q 1159 2438 1159 1844 
L 1159 0 
L 581 0 
L 581 3500 
L 1159 3500 
L 1159 2956 
Q 1341 3275 1631 3429 
Q 1922 3584 2338 3584 
Q 2397 3584 2469 3576 
Q 2541 3569 2628 3553 
L 2631 2963 
z
" transform="scale(0.015625)"/>
       <path id="DejaVuSans-3e" d="M 550 4863 
L 1875 4863 
L 1875 4416 
L 1125 4416 
L 1125 -397 
L 1875 -397 
L 1875 -844 
L 550 -844 
L 550 4863 
z
" transform="scale(0.015625)"/>
       <path id="DejaVuSans-50" d="M 3328 2828 
Q 3544 3216 3844 3400 
Q 4144 3584 4550 3584 
Q 5097 3584 5394 3201 
Q 5691 2819 5691 2113 
L 5691 0 
L 5113 0 
L 5113 2094 
Q 5113 2597 4934 2840 
Q 4756 3084 4391 3084 
Q 3944 3084 3684 2787 
Q 3425 2491 3425 1978 
L 3425 0 
L 2847 0 
L 2847 2094 
Q 2847 2600 2669 2842 
Q 2491 3084 2119 3084 
Q 1678 3084 1418 2786 
Q 1159 2488 1159 1978 
L 1159 0 
L 581 0 
L 581 3500 
L 1159 3500 
L 1159 2956 
Q 1356 3278 1631 3431 
Q 1906 3584 2284 3584 
Q 2666 3584 2933 3390 
Q 3200 3197 3328 2828 
z
" transform="scale(0.015625)"/>
       <path id="DejaVuSans-40" d="M 1947 4863 
L 1947 -844 
L 622 -844 
L 622 -397 
L 1369 -397 
L 1369 4416 
L 622 4416 
L 622 4863 
L 1947 4863 
z
" transform="scale(0.015625)"/>
      </defs>
      <use xlink:href="#DejaVuSans-33"/>
      <use xlink:href="#DejaVuSans-52" transform="translate(56.734375 0)"/>
      <use xlink:href="#DejaVuSans-56" transform="translate(117.921875 0)"/>
      <use xlink:href="#DejaVuSans-4c" transform="translate(170.015625 0)"/>
      <use xlink:href="#DejaVuSans-57" transform="translate(197.796875 0)"/>
      <use xlink:href="#DejaVuSans-4c" transform="translate(237 0)"/>
      <use xlink:href="#DejaVuSans-52" transform="translate(264.78125 0)"/>
      <use xlink:href="#DejaVuSans-51" transform="translate(325.96875 0)"/>
      <use xlink:href="#DejaVuSans-3" transform="translate(389.34375 0)"/>
      <use xlink:href="#DejaVuSans-28" transform="translate(421.125 0)"/>
      <use xlink:href="#DejaVuSans-55" transform="translate(484.3125 0)"/>
      <use xlink:href="#DejaVuSans-55" transform="translate(523.671875 0)"/>
      <use xlink:href="#DejaVuSans-52" transform="translate(562.578125 0)"/>
      <use xlink:href="#DejaVuSans-55" transform="translate(623.765625 0)"/>
      <use xlink:href="#DejaVuSans-3" transform="translate(664.875 0)"/>
      <use xlink:href="#DejaVuSans-3e" transform="translate(696.65625 0)"/>
      <use xlink:href="#DejaVuSans-50" transform="translate(735.671875 0)"/>
      <use xlink:href="#DejaVuSans-40" transform="translate(833.078125 0)"/>
     </g>
    </g>
   </g>
   <g id="line2d_16">
    <path d="M 74.654371 182.434064 
L 76.509402 90.903631 
L 77.900676 178.973695 
L 78.596312 123.322942 
L 79.291949 149.133076 
L 79.755707 146.989577 
L 79.987585 177.979887 
L 80.683222 105.57552 
L 80.915101 136.114206 
L 81.378859 181.870891 
L 82.074495 163.673704 
L 82.306374 142.591294 
L 82.770132 172.617662 
L 83.002011 170.003322 
L 83.465769 176.965621 
L 84.161405 98.059128 
L 84.625163 29.942694 
L 85.088921 71.767666 
L 86.712073 160.627489 
L 86.943952 149.355749 
L 87.17583 138.541451 
L 87.407709 160.952463 
L 87.639588 180.376451 
L 87.871467 159.892104 
L 88.335225 174.043954 
L 88.798983 147.1171 
L 89.26274 163.842023 
L 89.494619 180.166082 
L 89.958377 156.7012 
L 90.885892 108.837775 
L 91.117771 115.906756 
L 91.34965 144.497904 
L 91.813408 118.556237 
L 92.740923 88.851115 
L 92.972802 90.056611 
L 93.204681 91.804637 
L 93.43656 59.021508 
L 93.900318 94.787269 
L 94.132197 82.633066 
L 96.219106 168.212187 
L 94.595954 77.443712 
L 96.450985 148.229428 
L 96.914743 145.584729 
L 97.146622 133.221522 
L 97.61038 161.393406 
L 97.842259 145.361397 
L 98.306016 176.312077 
L 99.001653 168.636949 
L 99.233532 175.811725 
L 99.697289 165.381359 
L 99.929168 137.007654 
L 100.624805 173.645299 
L 101.55232 182.002838 
L 102.479836 155.500062 
L 102.711715 165.959498 
L 103.175473 175.572848 
L 103.407351 170.082049 
L 104.102988 151.470549 
L 103.871109 170.103182 
L 104.334867 163.86639 
L 104.798625 177.633662 
L 105.030504 163.123209 
L 105.494261 130.671838 
L 106.421777 136.201942 
L 107.581171 180.216281 
L 107.81305 159.049084 
L 108.044929 152.117883 
L 108.276808 168.390886 
L 108.740565 163.516322 
L 109.204323 178.249723 
L 109.436202 172.073878 
L 109.89996 182.283026 
L 110.131839 179.87817 
L 110.595596 173.433304 
L 110.827475 179.478156 
L 111.059354 181.773187 
L 111.754991 161.9434 
L 111.98687 175.971661 
L 112.218749 181.680021 
L 112.450627 165.504169 
L 112.682506 138.190536 
L 113.146264 158.242236 
L 113.378143 180.91515 
L 114.073779 175.299473 
L 115.001295 135.9314 
L 115.233174 154.25898 
L 115.92881 178.006005 
L 116.160689 167.887552 
L 116.392568 150.811971 
L 116.856326 169.336227 
L 117.088205 154.123439 
L 118.01572 161.288258 
L 117.551963 147.534128 
L 118.247599 159.837192 
L 118.479478 159.153695 
L 119.175115 180.742803 
L 119.638872 178.605333 
L 120.10263 182.014246 
L 121.493903 153.800869 
L 121.725782 155.33708 
L 121.957661 150.763409 
L 122.421419 180.107091 
L 123.117055 175.759149 
L 123.812692 180.68007 
L 123.580813 173.644408 
L 124.044571 177.783216 
L 124.972086 161.056731 
L 125.203965 166.492753 
L 125.435844 162.835402 
L 125.899602 165.16305 
L 126.36336 176.355074 
L 126.595238 167.365311 
L 126.827117 150.932286 
L 127.522754 167.875921 
L 127.754633 151.054343 
L 128.682148 133.280889 
L 129.145906 139.323451 
L 130.537179 116.794455 
L 131.000937 119.051885 
L 131.928453 140.97069 
L 133.087847 119.429945 
L 135.174757 162.744124 
L 135.406636 176.414523 
L 135.638514 160.29127 
L 135.870393 160.765734 
L 136.797909 138.390243 
L 137.029788 163.99021 
L 137.725424 131.282272 
L 138.189182 121.314313 
L 138.421061 137.411316 
L 138.65294 140.949097 
L 138.884819 133.163237 
L 139.348576 113.334177 
L 139.812334 124.525375 
L 140.73985 149.071646 
L 141.203607 148.230079 
L 142.363002 127.078055 
L 141.899244 149.704463 
L 142.594881 127.62155 
L 143.058638 136.802664 
L 143.290517 124.606321 
L 143.754275 112.443399 
L 143.986154 130.022729 
L 144.449912 128.091864 
L 145.377427 157.552093 
L 145.609306 159.271518 
L 148.623731 83.480618 
L 149.319368 120.839073 
L 149.551247 120.189231 
L 150.246883 78.593059 
L 150.478762 105.615243 
L 150.710641 106.068368 
L 151.174399 88.623289 
L 151.406278 113.34661 
L 152.101914 141.223444 
L 152.565672 136.404375 
L 153.725066 93.153201 
L 153.956945 105.193727 
L 154.652582 140.198746 
L 155.11634 136.898809 
L 156.275734 117.854292 
L 156.507613 116.932156 
L 156.739492 93.394741 
L 157.203249 121.171342 
L 157.435128 139.282129 
L 157.898886 108.955901 
L 158.130765 107.621195 
L 158.362644 113.263811 
L 158.594523 107.369494 
L 158.826402 109.193447 
L 159.05828 74.631242 
L 159.753917 93.582313 
L 160.449554 113.923574 
L 160.913311 103.451766 
L 161.608948 74.688624 
L 161.840827 74.797811 
L 162.072706 94.16988 
L 163.000221 88.67653 
L 165.550889 133.966039 
L 165.782768 133.844392 
L 166.014647 153.439753 
L 166.710283 143.599919 
L 167.637799 119.08472 
L 168.333435 126.204268 
L 169.724708 169.10515 
L 170.420345 168.151773 
L 170.652224 179.210292 
L 171.579739 159.997874 
L 171.811618 167.908552 
L 172.043497 166.4366 
L 172.739134 144.968893 
L 172.971013 163.455017 
L 173.202892 161.945467 
L 174.362286 134.890058 
L 174.594165 136.819384 
L 174.826044 137.009518 
L 175.057922 148.043817 
L 175.753559 143.991873 
L 175.985438 142.913015 
L 176.912953 103.673891 
L 177.144832 120.775045 
L 177.840469 157.846306 
L 178.536106 145.882324 
L 178.767984 131.037761 
L 179.463621 139.701038 
L 179.6955 139.275996 
L 179.927379 133.809486 
L 180.159258 140.066927 
L 181.78241 182.039515 
L 182.246167 170.787751 
L 182.941804 175.549539 
L 183.173683 171.458772 
L 183.637441 180.008998 
L 183.86932 176.536738 
L 184.101198 179.541261 
L 184.333077 174.098832 
L 184.564956 170.039629 
L 185.028714 170.680735 
L 185.492472 180.886639 
L 186.188108 177.345558 
L 186.419987 176.629 
L 186.651866 166.109289 
L 187.347503 178.22876 
L 187.579381 181.348468 
L 187.81126 173.258403 
L 188.043139 172.800297 
L 188.275018 173.435016 
L 189.434412 181.941125 
L 189.666291 179.922222 
L 190.825686 154.283084 
L 191.057565 160.85705 
L 191.753201 180.731454 
L 191.98508 178.630076 
L 193.144474 139.08918 
L 193.376353 139.451602 
L 193.608232 151.515793 
L 194.07199 130.327997 
L 194.535748 150.256779 
L 195.927021 125.093212 
L 197.318294 171.928873 
L 197.550173 176.696105 
L 198.013931 171.158435 
L 198.477688 155.249626 
L 198.941446 162.100111 
L 199.868962 179.472796 
L 200.100841 176.926469 
L 200.332719 175.299929 
L 201.028356 160.384162 
L 201.260235 166.100242 
L 202.651508 181.725716 
L 202.883387 180.575067 
L 204.042781 155.307832 
L 204.27466 159.313171 
L 204.738418 166.690045 
L 204.970297 162.825026 
L 206.825328 102.169064 
L 207.289086 128.616515 
L 207.984722 125.694547 
L 210.071632 175.363842 
L 210.303511 178.584608 
L 210.999147 161.921224 
L 211.462905 162.78886 
L 211.926663 175.232047 
L 212.390421 172.884801 
L 213.781694 118.33697 
L 214.013573 122.93456 
L 214.709209 155.37253 
L 215.172967 138.700426 
L 215.636725 135.144643 
L 215.868604 134.033851 
L 216.796119 103.88283 
L 217.027998 121.221972 
L 218.187392 79.752063 
L 218.65115 98.927867 
L 220.274302 133.194112 
L 220.506181 119.856249 
L 221.201818 133.41488 
L 222.129333 154.628196 
L 223.520606 114.928414 
L 223.984364 104.594011 
L 224.216243 112.154624 
L 224.680001 127.061879 
L 225.143759 122.283642 
L 225.375637 119.381063 
L 226.766911 85.024616 
L 227.230668 117.553823 
L 228.158184 116.331473 
L 228.390063 118.119473 
L 228.621942 112.6826 
L 228.85382 108.616327 
L 229.085699 111.027698 
L 230.476973 174.447559 
L 230.94073 161.518143 
L 232.332004 181.6787 
L 232.563882 180.934137 
L 232.795761 173.839984 
L 233.491398 175.094997 
L 233.723277 182.124014 
L 233.955156 167.599294 
L 235.11455 153.237534 
L 235.346429 155.042967 
L 236.505823 176.074077 
L 236.737702 175.319082 
L 236.969581 178.503459 
L 237.20146 171.940274 
L 239.984006 109.256072 
L 240.215885 107.138093 
L 240.447764 121.912221 
L 241.143401 105.107615 
L 241.37528 98.106312 
L 242.534674 135.57482 
L 243.694068 120.212621 
L 243.925947 135.601641 
L 244.853463 135.568013 
L 245.31722 135.604986 
L 245.780978 118.437599 
L 247.40413 179.206226 
L 247.867888 166.902074 
L 248.331646 173.345141 
L 248.563525 175.042941 
L 248.795403 158.155429 
L 249.49104 175.965824 
L 249.722919 175.322045 
L 250.650434 148.644654 
L 250.186677 175.729607 
L 250.882313 154.051573 
L 251.114192 155.192205 
L 251.57795 112.653066 
L 252.041708 141.113282 
L 253.66486 122.150815 
L 253.896739 128.39174 
L 254.128617 150.622044 
L 255.056133 149.728588 
L 255.751769 163.599333 
L 255.983648 144.887475 
L 256.679285 167.276299 
L 256.911164 167.728512 
L 257.838679 139.702476 
L 258.302437 152.340643 
L 259.925589 181.79351 
L 261.084984 173.77871 
L 261.316862 181.589554 
L 261.78062 164.179935 
L 262.940014 181.934751 
L 263.171893 178.342253 
L 263.403772 176.997976 
L 263.635651 182.008672 
L 264.331288 177.474615 
L 264.563167 178.84724 
L 264.795045 175.511474 
L 265.258803 177.187352 
L 265.95444 166.816478 
L 266.650076 169.709452 
L 267.577592 153.179259 
L 267.809471 157.826245 
L 268.736986 182.046115 
L 268.968865 169.059848 
L 269.896381 160.254775 
L 270.128259 164.537764 
L 270.360138 165.623256 
L 271.751412 137.310339 
L 271.98329 152.708861 
L 272.447048 130.781753 
L 272.678927 139.582339 
L 272.910806 143.933771 
L 273.374564 134.625433 
L 274.765837 97.767656 
L 274.997716 92.792861 
L 275.229595 102.980662 
L 276.620868 139.594476 
L 277.084626 130.378214 
L 277.316504 152.315086 
L 278.012141 146.697767 
L 278.24402 137.096951 
L 278.707778 147.256535 
L 278.939657 146.125192 
L 279.171535 148.857056 
L 279.867172 134.159073 
L 280.099051 143.220747 
L 281.490324 168.820057 
L 282.185961 152.439868 
L 282.649719 161.440352 
L 283.345355 182.39407 
L 283.809113 174.538515 
L 284.040992 151.678892 
L 284.504749 177.312949 
L 284.736628 167.781347 
L 284.968507 168.209902 
L 286.35978 128.704175 
L 286.591659 116.855305 
L 286.823538 132.581156 
L 287.751054 149.675444 
L 287.982933 147.731212 
L 288.678569 134.350926 
L 290.069842 171.119699 
L 290.5336 160.499303 
L 291.692994 127.907951 
L 293.779904 83.10747 
L 294.243662 96.013204 
L 294.475541 82.430837 
L 295.171178 55.348115 
L 295.403056 71.840717 
L 296.79433 96.196264 
L 297.489966 75.85514 
L 297.953724 84.929752 
L 298.185603 84.784178 
L 299.113118 54.700864 
L 299.344997 60.920425 
L 302.359423 152.491885 
L 302.591301 118.649278 
L 302.82318 123.13782 
L 303.055059 117.178422 
L 303.750696 101.220154 
L 303.982575 103.754055 
L 304.214453 117.300503 
L 304.678211 116.657757 
L 304.91009 98.262629 
L 305.605727 119.192526 
L 307.692637 153.847858 
L 308.388273 122.481727 
L 308.852031 123.608686 
L 310.011425 176.990123 
L 310.243304 167.74646 
L 310.475183 180.652074 
L 311.17082 174.578785 
L 311.402698 173.493629 
L 312.098335 150.229082 
L 312.330214 164.895903 
L 312.562093 170.142344 
L 312.793972 167.753387 
L 314.185245 140.39622 
L 314.417124 130.731147 
L 314.880882 148.410731 
L 315.576518 171.878401 
L 316.040276 156.79878 
L 316.504034 159.810679 
L 316.967791 146.120604 
L 317.19967 156.971318 
L 317.431549 143.850629 
L 317.663428 151.423684 
L 317.895307 138.131528 
L 318.359065 164.629659 
L 318.822822 145.97753 
L 319.054701 173.772637 
L 319.750338 158.11692 
L 320.909732 126.541599 
L 321.141611 135.245025 
L 321.37349 126.000323 
L 321.605369 94.628346 
L 322.301005 128.073686 
L 322.532884 127.437556 
L 323.4604 155.284937 
L 323.692279 137.83354 
L 326.706704 88.967501 
L 324.156036 139.67536 
L 326.938583 93.703721 
L 328.097977 144.880781 
L 328.329856 144.609739 
L 328.561735 144.096719 
L 329.257372 157.676837 
L 329.48925 148.054366 
L 329.953008 135.548114 
L 330.184887 142.431735 
L 331.112402 175.186718 
L 331.344281 162.451961 
L 331.57616 161.265849 
L 332.039918 181.03754 
L 332.735555 174.94664 
L 332.967433 182.091611 
L 333.66307 179.580416 
L 334.358707 158.038196 
L 334.822464 170.552161 
L 335.74998 182.188979 
L 336.213738 176.927383 
L 336.445617 177.80697 
L 337.605011 144.003691 
L 337.83689 129.265136 
L 338.300647 147.706731 
L 338.532526 145.148015 
L 340.155678 168.337944 
L 341.546952 142.516069 
L 340.619436 174.653642 
L 341.778831 147.39984 
L 342.938225 172.944138 
L 343.170104 168.596584 
L 343.401983 154.42608 
L 343.86574 170.171115 
L 344.097619 178.535267 
L 344.561377 171.845067 
L 345.025135 163.31034 
L 345.257014 172.424651 
L 345.488892 176.642845 
L 346.416408 154.658937 
L 346.648287 163.699116 
L 347.112045 180.269306 
L 347.807681 166.591719 
L 348.03956 166.099114 
L 349.198954 181.005841 
L 350.358349 163.479914 
L 351.517743 180.750025 
L 351.981501 156.660285 
L 352.677137 169.68759 
L 352.909016 177.183663 
L 353.604653 169.393368 
L 353.836532 167.150741 
L 354.068411 174.410692 
L 354.995926 164.619245 
L 355.923442 125.799186 
L 356.387199 127.512205 
L 356.619078 137.176295 
L 356.850957 120.913849 
L 357.082836 126.621476 
L 357.314715 123.461027 
L 358.24223 179.172934 
L 358.937867 166.620881 
L 360.097261 182.173327 
L 361.256656 154.30541 
L 361.488535 165.252097 
L 361.720413 166.697408 
L 361.952292 177.468779 
L 362.41605 152.711799 
L 363.111687 121.411388 
L 363.807323 127.311125 
L 364.966718 151.675251 
L 366.357991 99.185031 
L 366.58987 107.298128 
L 366.821749 116.602668 
L 367.285506 96.851233 
L 367.517385 86.993719 
L 367.749264 99.593895 
L 367.981143 95.097151 
L 369.140537 121.038017 
L 370.531811 64.025294 
L 371.227447 70.377582 
L 371.691205 78.613082 
L 371.923084 74.201862 
L 372.850599 63.597292 
L 373.546236 84.34281 
L 374.009994 77.792645 
L 374.473751 80.002023 
L 374.937509 52.752358 
L 375.169388 61.686753 
L 375.401267 100.98173 
L 376.096903 77.8724 
L 376.328782 81.536496 
L 376.560661 64.665405 
L 377.024419 87.328109 
L 378.415692 128.269146 
L 379.575086 100.924364 
L 380.270723 130.754608 
L 380.502602 117.643287 
L 380.734481 108.169913 
L 381.198239 122.61856 
L 381.430117 125.382342 
L 381.661996 112.577505 
L 382.125754 122.734052 
L 383.980785 163.740013 
L 384.212664 152.413232 
L 384.676422 165.095621 
L 384.9083 168.641843 
L 385.372058 166.939936 
L 386.067695 169.823864 
L 386.299574 158.203149 
L 386.763331 182.420628 
L 387.458968 174.310967 
L 388.154605 156.187459 
L 388.618362 162.46145 
L 388.850241 159.251188 
L 389.313999 162.908497 
L 389.777757 173.023886 
L 390.009636 154.448706 
L 390.937151 156.327405 
L 391.16903 138.129257 
L 393.024061 181.740744 
L 393.25594 178.871636 
L 393.951576 153.416231 
L 394.183455 174.721956 
L 394.415334 181.175568 
L 394.879092 167.488966 
L 395.34285 153.085468 
L 395.806607 166.230734 
L 396.038486 165.464335 
L 396.270365 180.921584 
L 396.966002 175.550822 
L 397.42976 171.113294 
L 397.661638 153.125067 
L 398.357275 172.032978 
L 399.28479 146.879681 
L 400.676064 109.075604 
L 400.907943 95.776307 
L 401.603579 103.820372 
L 401.835458 103.685941 
L 403.45861 69.358427 
L 403.690489 82.674883 
L 404.154247 65.759502 
L 404.386126 80.291523 
L 404.618005 70.941277 
L 404.849883 93.38691 
L 406.009278 121.605828 
L 406.241157 120.424203 
L 407.400551 101.644546 
L 408.791824 118.98837 
L 409.023703 118.834053 
L 409.255582 113.032954 
L 409.71934 125.181013 
L 411.110613 154.995369 
L 411.342492 147.510979 
L 411.80625 162.223045 
L 412.038128 182.407623 
L 412.733765 158.450065 
L 413.66128 176.760111 
L 413.893159 165.117955 
L 415.284433 129.088909 
L 415.516311 129.866509 
L 416.443827 153.454235 
L 416.675706 142.796814 
L 419.226373 180.866862 
L 419.458252 171.278748 
L 420.153889 174.798478 
L 420.385768 179.95683 
L 420.617647 177.98212 
L 421.313283 181.755057 
L 422.00892 142.514875 
L 422.240799 159.920317 
L 422.704556 137.929955 
L 423.632072 110.156752 
L 423.168314 141.96476 
L 424.327709 114.439968 
L 424.559587 130.810433 
L 425.255224 113.686481 
L 426.182739 127.825245 
L 426.646497 140.161735 
L 426.878376 133.649631 
L 427.342134 115.447172 
L 427.805892 136.498537 
L 428.03777 130.467296 
L 428.269649 148.312535 
L 428.501528 148.780503 
L 428.733407 157.26871 
L 428.965286 137.149883 
L 429.197165 152.387333 
L 430.820317 106.772507 
L 431.515954 123.154753 
L 431.747832 116.503558 
L 432.675348 102.569241 
L 433.602863 138.936049 
L 433.139106 102.409151 
L 434.066621 136.700535 
L 434.762258 106.130779 
L 434.994137 115.598353 
L 436.38541 135.720459 
L 436.617289 138.783451 
L 437.081046 132.305463 
L 437.312925 137.630189 
L 437.544804 137.259666 
L 437.776683 150.200654 
L 438.47232 143.349486 
L 438.936077 134.417827 
L 439.167956 142.80744 
L 440.095472 181.54992 
L 441.254866 180.909142 
L 441.486745 181.367633 
L 443.341776 121.392646 
L 443.573655 122.235111 
L 443.805534 138.793709 
L 444.269291 122.671106 
L 444.50117 112.378802 
L 444.733049 133.929924 
L 445.196807 174.983083 
L 445.892444 166.943814 
L 446.124322 163.623738 
L 447.051838 128.601911 
L 448.443111 167.169758 
L 449.602505 123.036139 
L 449.834384 128.543612 
L 450.066263 140.229075 
L 450.530021 116.737525 
L 451.457536 99.837945 
L 453.080688 159.034685 
L 453.776325 145.859338 
L 454.240083 146.857542 
L 454.935719 163.172431 
L 455.399477 158.737588 
L 455.631356 158.246824 
L 457.022629 182.255437 
L 458.413903 140.922181 
L 458.645781 141.075885 
L 458.87766 148.618636 
L 459.341418 135.389296 
L 459.573297 147.871981 
L 459.805176 138.172656 
L 460.268933 158.127745 
L 460.500812 146.644878 
L 461.660207 163.130837 
L 461.892086 161.169106 
L 462.123964 161.659809 
L 462.587722 174.18564 
L 463.05148 167.604436 
L 463.283359 161.522209 
L 463.515238 170.536624 
L 463.747117 181.624586 
L 463.978995 160.368887 
L 464.210874 145.467436 
L 464.674632 167.986237 
L 464.906511 159.943468 
L 465.834026 135.062011 
L 466.297784 140.89745 
L 466.993421 135.471398 
L 466.761542 141.994872 
L 467.2253 139.576641 
L 468.616573 167.085935 
L 469.544088 178.726214 
L 469.775967 176.616568 
L 470.239725 175.231259 
L 470.703483 181.993075 
L 472.326635 137.964671 
L 472.558514 141.346192 
L 472.790393 118.004967 
L 473.25415 147.003994 
L 475.804818 180.358449 
L 476.036697 160.149757 
L 476.732333 181.273237 
L 478.355485 147.026749 
L 479.051122 161.976332 
L 479.283001 153.803006 
L 480.442395 139.673164 
L 480.906153 158.615473 
L 481.60179 154.550387 
L 481.833668 150.611191 
L 482.065547 157.15928 
L 482.761184 182.21396 
L 482.993063 169.519503 
L 483.224942 159.416607 
L 483.688699 164.562429 
L 483.920578 182.177352 
L 484.616215 159.958285 
L 485.079973 176.239561 
L 485.54373 158.717967 
L 485.775609 169.024269 
L 486.007488 164.475423 
L 486.239367 168.200567 
L 486.471246 178.833787 
L 486.935004 163.818908 
L 487.166882 177.233011 
L 487.63064 162.498058 
L 487.862519 178.669627 
L 488.094398 168.888394 
L 488.326277 176.78256 
L 488.790035 173.787674 
L 490.181308 122.758923 
L 490.413187 129.688201 
L 491.340702 167.122385 
L 491.572581 158.510409 
L 491.80446 139.584926 
L 492.500097 143.927218 
L 492.963854 140.992419 
L 495.050764 181.475495 
L 495.282643 175.228933 
L 495.97828 180.9074 
L 496.210158 180.884347 
L 496.442037 167.975318 
L 497.369553 170.412118 
L 497.601432 180.265186 
L 497.833311 171.845015 
L 499.688342 104.492384 
L 499.92022 112.784612 
L 500.383978 105.530257 
L 500.615857 98.214434 
L 500.847736 110.574006 
L 501.543372 127.961375 
L 501.775251 113.465736 
L 502.00713 114.582411 
L 502.239009 111.850862 
L 502.470888 111.357866 
L 502.702767 111.862776 
L 502.934646 114.459027 
L 503.398403 111.324495 
L 504.789677 80.506789 
L 505.485313 77.041385 
L 506.18095 105.360548 
L 506.412829 111.21952 
L 506.876587 106.770856 
L 507.108465 102.198196 
L 507.572223 110.536473 
L 507.804102 104.564174 
L 508.035981 118.551715 
L 508.499739 99.018089 
L 508.731617 106.280886 
L 508.963496 94.580702 
L 509.195375 112.976422 
L 509.427254 108.511826 
L 512.673558 175.456826 
L 513.601074 139.48533 
L 513.832953 152.709848 
L 514.064831 136.564158 
L 514.992347 136.796766 
L 516.615499 179.844313 
L 518.006772 126.26939 
L 518.238651 127.094238 
L 518.47053 131.312172 
L 518.934288 129.137435 
L 519.398046 102.152567 
L 520.093682 120.624977 
L 520.325561 121.240815 
L 521.021198 145.429867 
L 521.253076 128.797628 
L 521.948713 113.953029 
L 523.339986 171.667292 
L 523.803744 179.132218 
L 524.267502 176.026988 
L 525.426896 151.06405 
L 525.658775 164.108648 
L 525.890654 158.291796 
L 526.122533 165.651302 
L 526.586291 180.892329 
L 527.050048 176.00198 
L 527.513806 169.120676 
L 527.977564 151.279417 
L 528.209443 174.094392 
L 528.441321 172.539949 
L 528.6732 180.430652 
L 529.368837 172.51159 
L 530.296352 165.27802 
L 530.76011 178.690844 
L 531.223868 169.124391 
L 532.615141 136.28634 
L 532.84702 144.216279 
L 534.006414 176.696049 
L 534.238293 178.022397 
L 534.470172 175.502315 
L 536.093324 113.680791 
L 536.325203 114.155649 
L 537.948355 153.83204 
L 538.180234 145.009067 
L 538.412113 150.861648 
" clip-path="url(#pe4aa49715e)" style="fill: none; stroke: #e41a1c; stroke-width: 2; stroke-linecap: square"/>
   </g>
   <g id="patch_3">
    <path d="M 51.466484 190.058633 
L 51.466484 22.318125 
" style="fill: none; stroke: #7f7f7f; stroke-width: 1.8; stroke-linejoin: miter; stroke-linecap: square"/>
   </g>
   <g id="patch_4">
    <path d="M 51.466484 190.058633 
L 561.6 190.058633 
" style="fill: none; stroke: #7f7f7f; stroke-width: 1.8; stroke-linejoin: miter; stroke-linecap: square"/>
   </g>
   <g id="text_17">
    <!-- Kalman Filter Estimation Error -->
    <g style="fill: #7f7f7f" transform="translate(203.519805 16.318125) scale(0.12 -0.12)">
     <defs>
      <path id="DejaVuSans-Bold-2e" d="M 588 4666 
L 1791 4666 
L 1791 2963 
L 3525 4666 
L 4922 4666 
L 2675 2456 
L 5153 0 
L 3647 0 
L 1791 1838 
L 1791 0 
L 588 0 
L 588 4666 
z
" transform="scale(0.015625)"/>
      <path id="DejaVuSans-Bold-44" d="M 2106 1575 
Q 1756 1575 1579 1456 
Q 1403 1338 1403 1106 
Q 1403 894 1545 773 
Q 1688 653 1941 653 
Q 2256 653 2472 879 
Q 2688 1106 2688 1447 
L 2688 1575 
L 2106 1575 
z
M 3816 1997 
L 3816 0 
L 2688 0 
L 2688 519 
Q 2463 200 2181 54 
Q 1900 -91 1497 -91 
Q 953 -91 614 226 
Q 275 544 275 1050 
Q 275 1666 698 1953 
Q 1122 2241 2028 2241 
L 2688 2241 
L 2688 2328 
Q 2688 2594 2478 2717 
Q 2269 2841 1825 2841 
Q 1466 2841 1156 2769 
Q 847 2697 581 2553 
L 581 3406 
Q 941 3494 1303 3539 
Q 1666 3584 2028 3584 
Q 2975 3584 3395 3211 
Q 3816 2838 3816 1997 
z
" transform="scale(0.015625)"/>
      <path id="DejaVuSans-Bold-4f" d="M 538 4863 
L 1656 4863 
L 1656 0 
L 538 0 
L 538 4863 
z
" transform="scale(0.015625)"/>
      <path id="DejaVuSans-Bold-50" d="M 3781 2919 
Q 3994 3244 4286 3414 
Q 4578 3584 4928 3584 
Q 5531 3584 5847 3212 
Q 6163 2841 6163 2131 
L 6163 0 
L 5038 0 
L 5038 1825 
Q 5041 1866 5042 1909 
Q 5044 1953 5044 2034 
Q 5044 2406 4934 2573 
Q 4825 2741 4581 2741 
Q 4263 2741 4089 2478 
Q 3916 2216 3909 1719 
L 3909 0 
L 2784 0 
L 2784 1825 
Q 2784 2406 2684 2573 
Q 2584 2741 2328 2741 
Q 2006 2741 1831 2477 
Q 1656 2213 1656 1722 
L 1656 0 
L 531 0 
L 531 3500 
L 1656 3500 
L 1656 2988 
Q 1863 3284 2130 3434 
Q 2397 3584 2719 3584 
Q 3081 3584 3359 3409 
Q 3638 3234 3781 2919 
z
" transform="scale(0.015625)"/>
      <path id="DejaVuSans-Bold-51" d="M 4056 2131 
L 4056 0 
L 2931 0 
L 2931 347 
L 2931 1631 
Q 2931 2084 2911 2256 
Q 2891 2428 2841 2509 
Q 2775 2619 2662 2680 
Q 2550 2741 2406 2741 
Q 2056 2741 1856 2470 
Q 1656 2200 1656 1722 
L 1656 0 
L 538 0 
L 538 3500 
L 1656 3500 
L 1656 2988 
Q 1909 3294 2193 3439 
Q 2478 3584 2822 3584 
Q 3428 3584 3742 3212 
Q 4056 2841 4056 2131 
z
" transform="scale(0.015625)"/>
      <path id="DejaVuSans-Bold-3" transform="scale(0.015625)"/>
      <path id="DejaVuSans-Bold-29" d="M 588 4666 
L 3834 4666 
L 3834 3756 
L 1791 3756 
L 1791 2888 
L 3713 2888 
L 3713 1978 
L 1791 1978 
L 1791 0 
L 588 0 
L 588 4666 
z
" transform="scale(0.015625)"/>
      <path id="DejaVuSans-Bold-4c" d="M 538 3500 
L 1656 3500 
L 1656 0 
L 538 0 
L 538 3500 
z
M 538 4863 
L 1656 4863 
L 1656 3950 
L 538 3950 
L 538 4863 
z
" transform="scale(0.015625)"/>
      <path id="DejaVuSans-Bold-57" d="M 1759 4494 
L 1759 3500 
L 2913 3500 
L 2913 2700 
L 1759 2700 
L 1759 1216 
Q 1759 972 1856 886 
Q 1953 800 2241 800 
L 2816 800 
L 2816 0 
L 1856 0 
Q 1194 0 917 276 
Q 641 553 641 1216 
L 641 2700 
L 84 2700 
L 84 3500 
L 641 3500 
L 641 4494 
L 1759 4494 
z
" transform="scale(0.015625)"/>
      <path id="DejaVuSans-Bold-48" d="M 4031 1759 
L 4031 1441 
L 1416 1441 
Q 1456 1047 1700 850 
Q 1944 653 2381 653 
Q 2734 653 3104 758 
Q 3475 863 3866 1075 
L 3866 213 
Q 3469 63 3072 -14 
Q 2675 -91 2278 -91 
Q 1328 -91 801 392 
Q 275 875 275 1747 
Q 275 2603 792 3093 
Q 1309 3584 2216 3584 
Q 3041 3584 3536 3087 
Q 4031 2591 4031 1759 
z
M 2881 2131 
Q 2881 2450 2695 2645 
Q 2509 2841 2209 2841 
Q 1884 2841 1681 2658 
Q 1478 2475 1428 2131 
L 2881 2131 
z
" transform="scale(0.015625)"/>
      <path id="DejaVuSans-Bold-55" d="M 3138 2547 
Q 2991 2616 2845 2648 
Q 2700 2681 2553 2681 
Q 2122 2681 1889 2404 
Q 1656 2128 1656 1613 
L 1656 0 
L 538 0 
L 538 3500 
L 1656 3500 
L 1656 2925 
Q 1872 3269 2151 3426 
Q 2431 3584 2822 3584 
Q 2878 3584 2943 3579 
Q 3009 3575 3134 3559 
L 3138 2547 
z
" transform="scale(0.015625)"/>
      <path id="DejaVuSans-Bold-28" d="M 588 4666 
L 3834 4666 
L 3834 3756 
L 1791 3756 
L 1791 2888 
L 3713 2888 
L 3713 1978 
L 1791 1978 
L 1791 909 
L 3903 909 
L 3903 0 
L 588 0 
L 588 4666 
z
" transform="scale(0.015625)"/>
      <path id="DejaVuSans-Bold-56" d="M 3272 3391 
L 3272 2541 
Q 2913 2691 2578 2766 
Q 2244 2841 1947 2841 
Q 1628 2841 1473 2761 
Q 1319 2681 1319 2516 
Q 1319 2381 1436 2309 
Q 1553 2238 1856 2203 
L 2053 2175 
Q 2913 2066 3209 1816 
Q 3506 1566 3506 1031 
Q 3506 472 3093 190 
Q 2681 -91 1863 -91 
Q 1516 -91 1145 -36 
Q 775 19 384 128 
L 384 978 
Q 719 816 1070 734 
Q 1422 653 1784 653 
Q 2113 653 2278 743 
Q 2444 834 2444 1013 
Q 2444 1163 2330 1236 
Q 2216 1309 1875 1350 
L 1678 1375 
Q 931 1469 631 1722 
Q 331 1975 331 2491 
Q 331 3047 712 3315 
Q 1094 3584 1881 3584 
Q 2191 3584 2531 3537 
Q 2872 3491 3272 3391 
z
" transform="scale(0.015625)"/>
      <path id="DejaVuSans-Bold-52" d="M 2203 2784 
Q 1831 2784 1636 2517 
Q 1441 2250 1441 1747 
Q 1441 1244 1636 976 
Q 1831 709 2203 709 
Q 2569 709 2762 976 
Q 2956 1244 2956 1747 
Q 2956 2250 2762 2517 
Q 2569 2784 2203 2784 
z
M 2203 3584 
Q 3106 3584 3614 3096 
Q 4122 2609 4122 1747 
Q 4122 884 3614 396 
Q 3106 -91 2203 -91 
Q 1297 -91 786 396 
Q 275 884 275 1747 
Q 275 2609 786 3096 
Q 1297 3584 2203 3584 
z
" transform="scale(0.015625)"/>
     </defs>
     <use xlink:href="#DejaVuSans-Bold-2e"/>
     <use xlink:href="#DejaVuSans-Bold-44" transform="translate(77.484375 0)"/>
     <use xlink:href="#DejaVuSans-Bold-4f" transform="translate(144.96875 0)"/>
     <use xlink:href="#DejaVuSans-Bold-50" transform="translate(179.25 0)"/>
     <use xlink:href="#DejaVuSans-Bold-44" transform="translate(283.453125 0)"/>
     <use xlink:href="#DejaVuSans-Bold-51" transform="translate(350.9375 0)"/>
     <use xlink:href="#DejaVuSans-Bold-3" transform="translate(422.125 0)"/>
     <use xlink:href="#DejaVuSans-Bold-29" transform="translate(456.9375 0)"/>
     <use xlink:href="#DejaVuSans-Bold-4c" transform="translate(525.25 0)"/>
     <use xlink:href="#DejaVuSans-Bold-4f" transform="translate(559.53125 0)"/>
     <use xlink:href="#DejaVuSans-Bold-57" transform="translate(593.8125 0)"/>
     <use xlink:href="#DejaVuSans-Bold-48" transform="translate(641.609375 0)"/>
     <use xlink:href="#DejaVuSans-Bold-55" transform="translate(709.4375 0)"/>
     <use xlink:href="#DejaVuSans-Bold-3" transform="translate(758.75 0)"/>
     <use xlink:href="#DejaVuSans-Bold-28" transform="translate(793.5625 0)"/>
     <use xlink:href="#DejaVuSans-Bold-56" transform="translate(861.875 0)"/>
     <use xlink:href="#DejaVuSans-Bold-57" transform="translate(921.390625 0)"/>
     <use xlink:href="#DejaVuSans-Bold-4c" transform="translate(969.1875 0)"/>
     <use xlink:href="#DejaVuSans-Bold-50" transform="translate(1003.46875 0)"/>
     <use xlink:href="#DejaVuSans-Bold-44" transform="translate(1107.671875 0)"/>
     <use xlink:href="#DejaVuSans-Bold-57" transform="translate(1175.15625 0)"/>
     <use xlink:href="#DejaVuSans-Bold-4c" transform="translate(1222.953125 0)"/>
     <use xlink:href="#DejaVuSans-Bold-52" transform="translate(1257.234375 0)"/>
     <use xlink:href="#DejaVuSans-Bold-51" transform="translate(1325.9375 0)"/>
     <use xlink:href="#DejaVuSans-Bold-3" transform="translate(1397.125 0)"/>
     <use xlink:href="#DejaVuSans-Bold-28" transform="translate(1431.9375 0)"/>
     <use xlink:href="#DejaVuSans-Bold-55" transform="translate(1500.25 0)"/>
     <use xlink:href="#DejaVuSans-Bold-55" transform="translate(1549.5625 0)"/>
     <use xlink:href="#DejaVuSans-Bold-52" transform="translate(1598.875 0)"/>
     <use xlink:href="#DejaVuSans-Bold-55" transform="translate(1667.578125 0)"/>
    </g>
   </g>
  </g>
  <g id="axes_2">
   <g id="patch_5">
    <path d="M 51.466484 385.599141 
L 561.6 385.599141 
L 561.6 217.858633 
L 51.466484 217.858633 
L 51.466484 385.599141 
z
" style="fill: none"/>
   </g>
   <g id="matplotlib.axis_3">
    <g id="xtick_10">
     <g id="line2d_17">
      <g>
       <use xlink:href="#m11915526e4" x="74.654371" y="385.599141" style="fill: #7f7f7f; stroke: #7f7f7f; stroke-width: 1.8"/>
      </g>
     </g>
     <g id="text_18">
      <!-- 0.0 -->
      <g style="fill: #7f7f7f" transform="translate(66.702809 400.196797) scale(0.1 -0.1)">
       <use xlink:href="#DejaVuSans-13"/>
       <use xlink:href="#DejaVuSans-11" transform="translate(63.625 0)"/>
       <use xlink:href="#DejaVuSans-13" transform="translate(95.40625 0)"/>
      </g>
     </g>
    </g>
    <g id="xtick_11">
     <g id="line2d_18">
      <g>
       <use xlink:href="#m11915526e4" x="132.624089" y="385.599141" style="fill: #7f7f7f; stroke: #7f7f7f; stroke-width: 1.8"/>
      </g>
     </g>
     <g id="text_19">
      <!-- 2.5 -->
      <g style="fill: #7f7f7f" transform="translate(124.672527 400.196797) scale(0.1 -0.1)">
       <use xlink:href="#DejaVuSans-15"/>
       <use xlink:href="#DejaVuSans-11" transform="translate(63.625 0)"/>
       <use xlink:href="#DejaVuSans-18" transform="translate(95.40625 0)"/>
      </g>
     </g>
    </g>
    <g id="xtick_12">
     <g id="line2d_19">
      <g>
       <use xlink:href="#m11915526e4" x="190.593807" y="385.599141" style="fill: #7f7f7f; stroke: #7f7f7f; stroke-width: 1.8"/>
      </g>
     </g>
     <g id="text_20">
      <!-- 5.0 -->
      <g style="fill: #7f7f7f" transform="translate(182.642244 400.196797) scale(0.1 -0.1)">
       <use xlink:href="#DejaVuSans-18"/>
       <use xlink:href="#DejaVuSans-11" transform="translate(63.625 0)"/>
       <use xlink:href="#DejaVuSans-13" transform="translate(95.40625 0)"/>
      </g>
     </g>
    </g>
    <g id="xtick_13">
     <g id="line2d_20">
      <g>
       <use xlink:href="#m11915526e4" x="248.563525" y="385.599141" style="fill: #7f7f7f; stroke: #7f7f7f; stroke-width: 1.8"/>
      </g>
     </g>
     <g id="text_21">
      <!-- 7.5 -->
      <g style="fill: #7f7f7f" transform="translate(240.611962 400.196797) scale(0.1 -0.1)">
       <use xlink:href="#DejaVuSans-1a"/>
       <use xlink:href="#DejaVuSans-11" transform="translate(63.625 0)"/>
       <use xlink:href="#DejaVuSans-18" transform="translate(95.40625 0)"/>
      </g>
     </g>
    </g>
    <g id="xtick_14">
     <g id="line2d_21">
      <g>
       <use xlink:href="#m11915526e4" x="306.533242" y="385.599141" style="fill: #7f7f7f; stroke: #7f7f7f; stroke-width: 1.8"/>
      </g>
     </g>
     <g id="text_22">
      <!-- 10.0 -->
      <g style="fill: #7f7f7f" transform="translate(295.40043 400.196797) scale(0.1 -0.1)">
       <use xlink:href="#DejaVuSans-14"/>
       <use xlink:href="#DejaVuSans-13" transform="translate(63.625 0)"/>
       <use xlink:href="#DejaVuSans-11" transform="translate(127.25 0)"/>
       <use xlink:href="#DejaVuSans-13" transform="translate(159.03125 0)"/>
      </g>
     </g>
    </g>
    <g id="xtick_15">
     <g id="line2d_22">
      <g>
       <use xlink:href="#m11915526e4" x="364.50296" y="385.599141" style="fill: #7f7f7f; stroke: #7f7f7f; stroke-width: 1.8"/>
      </g>
     </g>
     <g id="text_23">
      <!-- 12.5 -->
      <g style="fill: #7f7f7f" transform="translate(353.370147 400.196797) scale(0.1 -0.1)">
       <use xlink:href="#DejaVuSans-14"/>
       <use xlink:href="#DejaVuSans-15" transform="translate(63.625 0)"/>
       <use xlink:href="#DejaVuSans-11" transform="translate(127.25 0)"/>
       <use xlink:href="#DejaVuSans-18" transform="translate(159.03125 0)"/>
      </g>
     </g>
    </g>
    <g id="xtick_16">
     <g id="line2d_23">
      <g>
       <use xlink:href="#m11915526e4" x="422.472678" y="385.599141" style="fill: #7f7f7f; stroke: #7f7f7f; stroke-width: 1.8"/>
      </g>
     </g>
     <g id="text_24">
      <!-- 15.0 -->
      <g style="fill: #7f7f7f" transform="translate(411.339865 400.196797) scale(0.1 -0.1)">
       <use xlink:href="#DejaVuSans-14"/>
       <use xlink:href="#DejaVuSans-18" transform="translate(63.625 0)"/>
       <use xlink:href="#DejaVuSans-11" transform="translate(127.25 0)"/>
       <use xlink:href="#DejaVuSans-13" transform="translate(159.03125 0)"/>
      </g>
     </g>
    </g>
    <g id="xtick_17">
     <g id="line2d_24">
      <g>
       <use xlink:href="#m11915526e4" x="480.442395" y="385.599141" style="fill: #7f7f7f; stroke: #7f7f7f; stroke-width: 1.8"/>
      </g>
     </g>
     <g id="text_25">
      <!-- 17.5 -->
      <g style="fill: #7f7f7f" transform="translate(469.309583 400.196797) scale(0.1 -0.1)">
       <use xlink:href="#DejaVuSans-14"/>
       <use xlink:href="#DejaVuSans-1a" transform="translate(63.625 0)"/>
       <use xlink:href="#DejaVuSans-11" transform="translate(127.25 0)"/>
       <use xlink:href="#DejaVuSans-18" transform="translate(159.03125 0)"/>
      </g>
     </g>
    </g>
    <g id="xtick_18">
     <g id="line2d_25">
      <g>
       <use xlink:href="#m11915526e4" x="538.412113" y="385.599141" style="fill: #7f7f7f; stroke: #7f7f7f; stroke-width: 1.8"/>
      </g>
     </g>
     <g id="text_26">
      <!-- 20.0 -->
      <g style="fill: #7f7f7f" transform="translate(527.2793 400.196797) scale(0.1 -0.1)">
       <use xlink:href="#DejaVuSans-15"/>
       <use xlink:href="#DejaVuSans-13" transform="translate(63.625 0)"/>
       <use xlink:href="#DejaVuSans-11" transform="translate(127.25 0)"/>
       <use xlink:href="#DejaVuSans-13" transform="translate(159.03125 0)"/>
      </g>
     </g>
    </g>
    <g id="text_27">
     <!-- Time [s] -->
     <g style="fill: #7f7f7f" transform="translate(284.168867 414.957422) scale(0.11 -0.11)">
      <defs>
       <path id="DejaVuSans-37" d="M -19 4666 
L 3928 4666 
L 3928 4134 
L 2272 4134 
L 2272 0 
L 1638 0 
L 1638 4134 
L -19 4134 
L -19 4666 
z
" transform="scale(0.015625)"/>
       <path id="DejaVuSans-48" d="M 3597 1894 
L 3597 1613 
L 953 1613 
Q 991 1019 1311 708 
Q 1631 397 2203 397 
Q 2534 397 2845 478 
Q 3156 559 3463 722 
L 3463 178 
Q 3153 47 2828 -22 
Q 2503 -91 2169 -91 
Q 1331 -91 842 396 
Q 353 884 353 1716 
Q 353 2575 817 3079 
Q 1281 3584 2069 3584 
Q 2775 3584 3186 3129 
Q 3597 2675 3597 1894 
z
M 3022 2063 
Q 3016 2534 2758 2815 
Q 2500 3097 2075 3097 
Q 1594 3097 1305 2825 
Q 1016 2553 972 2059 
L 3022 2063 
z
" transform="scale(0.015625)"/>
      </defs>
      <use xlink:href="#DejaVuSans-37"/>
      <use xlink:href="#DejaVuSans-4c" transform="translate(58 0)"/>
      <use xlink:href="#DejaVuSans-50" transform="translate(85.78125 0)"/>
      <use xlink:href="#DejaVuSans-48" transform="translate(183.1875 0)"/>
      <use xlink:href="#DejaVuSans-3" transform="translate(244.71875 0)"/>
      <use xlink:href="#DejaVuSans-3e" transform="translate(276.5 0)"/>
      <use xlink:href="#DejaVuSans-56" transform="translate(315.515625 0)"/>
      <use xlink:href="#DejaVuSans-40" transform="translate(367.609375 0)"/>
     </g>
    </g>
   </g>
   <g id="matplotlib.axis_4">
    <g id="ytick_7">
     <g id="line2d_26">
      <g>
       <use xlink:href="#mfb73705a0e" x="51.466484" y="377.981085" style="fill: #7f7f7f; stroke: #7f7f7f; stroke-width: 1.8"/>
      </g>
     </g>
     <g id="text_28">
      <!-- 0.0 -->
      <g style="fill: #7f7f7f" transform="translate(28.563359 381.779913) scale(0.1 -0.1)">
       <use xlink:href="#DejaVuSans-13"/>
       <use xlink:href="#DejaVuSans-11" transform="translate(63.625 0)"/>
       <use xlink:href="#DejaVuSans-13" transform="translate(95.40625 0)"/>
      </g>
     </g>
    </g>
    <g id="ytick_8">
     <g id="line2d_27">
      <g>
       <use xlink:href="#mfb73705a0e" x="51.466484" y="340.625415" style="fill: #7f7f7f; stroke: #7f7f7f; stroke-width: 1.8"/>
      </g>
     </g>
     <g id="text_29">
      <!-- 0.5 -->
      <g style="fill: #7f7f7f" transform="translate(28.563359 344.424243) scale(0.1 -0.1)">
       <use xlink:href="#DejaVuSans-13"/>
       <use xlink:href="#DejaVuSans-11" transform="translate(63.625 0)"/>
       <use xlink:href="#DejaVuSans-18" transform="translate(95.40625 0)"/>
      </g>
     </g>
    </g>
    <g id="ytick_9">
     <g id="line2d_28">
      <g>
       <use xlink:href="#mfb73705a0e" x="51.466484" y="303.269745" style="fill: #7f7f7f; stroke: #7f7f7f; stroke-width: 1.8"/>
      </g>
     </g>
     <g id="text_30">
      <!-- 1.0 -->
      <g style="fill: #7f7f7f" transform="translate(28.563359 307.068573) scale(0.1 -0.1)">
       <use xlink:href="#DejaVuSans-14"/>
       <use xlink:href="#DejaVuSans-11" transform="translate(63.625 0)"/>
       <use xlink:href="#DejaVuSans-13" transform="translate(95.40625 0)"/>
      </g>
     </g>
    </g>
    <g id="ytick_10">
     <g id="line2d_29">
      <g>
       <use xlink:href="#mfb73705a0e" x="51.466484" y="265.914075" style="fill: #7f7f7f; stroke: #7f7f7f; stroke-width: 1.8"/>
      </g>
     </g>
     <g id="text_31">
      <!-- 1.5 -->
      <g style="fill: #7f7f7f" transform="translate(28.563359 269.712904) scale(0.1 -0.1)">
       <use xlink:href="#DejaVuSans-14"/>
       <use xlink:href="#DejaVuSans-11" transform="translate(63.625 0)"/>
       <use xlink:href="#DejaVuSans-18" transform="translate(95.40625 0)"/>
      </g>
     </g>
    </g>
    <g id="ytick_11">
     <g id="line2d_30">
      <g>
       <use xlink:href="#mfb73705a0e" x="51.466484" y="228.558406" style="fill: #7f7f7f; stroke: #7f7f7f; stroke-width: 1.8"/>
      </g>
     </g>
     <g id="text_32">
      <!-- 2.0 -->
      <g style="fill: #7f7f7f" transform="translate(28.563359 232.357234) scale(0.1 -0.1)">
       <use xlink:href="#DejaVuSans-15"/>
       <use xlink:href="#DejaVuSans-11" transform="translate(63.625 0)"/>
       <use xlink:href="#DejaVuSans-13" transform="translate(95.40625 0)"/>
      </g>
     </g>
    </g>
    <g id="text_33">
     <!-- Velocity Error [m/s] -->
     <g style="fill: #7f7f7f" transform="translate(21.920781 354.574434) rotate(-90) scale(0.11 -0.11)">
      <defs>
       <path id="DejaVuSans-39" d="M 1831 0 
L 50 4666 
L 709 4666 
L 2188 738 
L 3669 4666 
L 4325 4666 
L 2547 0 
L 1831 0 
z
" transform="scale(0.015625)"/>
       <path id="DejaVuSans-4f" d="M 603 4863 
L 1178 4863 
L 1178 0 
L 603 0 
L 603 4863 
z
" transform="scale(0.015625)"/>
       <path id="DejaVuSans-46" d="M 3122 3366 
L 3122 2828 
Q 2878 2963 2633 3030 
Q 2388 3097 2138 3097 
Q 1578 3097 1268 2742 
Q 959 2388 959 1747 
Q 959 1106 1268 751 
Q 1578 397 2138 397 
Q 2388 397 2633 464 
Q 2878 531 3122 666 
L 3122 134 
Q 2881 22 2623 -34 
Q 2366 -91 2075 -91 
Q 1284 -91 818 406 
Q 353 903 353 1747 
Q 353 2603 823 3093 
Q 1294 3584 2113 3584 
Q 2378 3584 2631 3529 
Q 2884 3475 3122 3366 
z
" transform="scale(0.015625)"/>
       <path id="DejaVuSans-5c" d="M 2059 -325 
Q 1816 -950 1584 -1140 
Q 1353 -1331 966 -1331 
L 506 -1331 
L 506 -850 
L 844 -850 
Q 1081 -850 1212 -737 
Q 1344 -625 1503 -206 
L 1606 56 
L 191 3500 
L 800 3500 
L 1894 763 
L 2988 3500 
L 3597 3500 
L 2059 -325 
z
" transform="scale(0.015625)"/>
       <path id="DejaVuSans-12" d="M 1625 4666 
L 2156 4666 
L 531 -594 
L 0 -594 
L 1625 4666 
z
" transform="scale(0.015625)"/>
      </defs>
      <use xlink:href="#DejaVuSans-39"/>
      <use xlink:href="#DejaVuSans-48" transform="translate(60.640625 0)"/>
      <use xlink:href="#DejaVuSans-4f" transform="translate(122.171875 0)"/>
      <use xlink:href="#DejaVuSans-52" transform="translate(149.953125 0)"/>
      <use xlink:href="#DejaVuSans-46" transform="translate(211.140625 0)"/>
      <use xlink:href="#DejaVuSans-4c" transform="translate(266.125 0)"/>
      <use xlink:href="#DejaVuSans-57" transform="translate(293.90625 0)"/>
      <use xlink:href="#DejaVuSans-5c" transform="translate(333.109375 0)"/>
      <use xlink:href="#DejaVuSans-3" transform="translate(392.296875 0)"/>
      <use xlink:href="#DejaVuSans-28" transform="translate(424.078125 0)"/>
      <use xlink:href="#DejaVuSans-55" transform="translate(487.265625 0)"/>
      <use xlink:href="#DejaVuSans-55" transform="translate(526.625 0)"/>
      <use xlink:href="#DejaVuSans-52" transform="translate(565.53125 0)"/>
      <use xlink:href="#DejaVuSans-55" transform="translate(626.71875 0)"/>
      <use xlink:href="#DejaVuSans-3" transform="translate(667.828125 0)"/>
      <use xlink:href="#DejaVuSans-3e" transform="translate(699.609375 0)"/>
      <use xlink:href="#DejaVuSans-50" transform="translate(738.625 0)"/>
      <use xlink:href="#DejaVuSans-12" transform="translate(836.03125 0)"/>
      <use xlink:href="#DejaVuSans-56" transform="translate(869.71875 0)"/>
      <use xlink:href="#DejaVuSans-40" transform="translate(921.8125 0)"/>
     </g>
    </g>
   </g>
   <g id="line2d_31">
    <path d="M 74.654371 228.558406 
L 75.350008 228.775296 
L 76.509402 237.650748 
L 75.813766 227.5334 
L 76.97316 233.638486 
L 77.205039 232.933959 
L 77.436918 227.351322 
L 77.900676 234.533269 
L 78.132555 232.941378 
L 78.364433 232.908725 
L 78.596312 225.483201 
L 79.06007 242.120905 
L 80.683222 322.252795 
L 81.378859 291.280942 
L 81.842616 299.537427 
L 82.306374 283.667491 
L 83.23389 323.588915 
L 83.465769 313.106871 
L 84.393284 258.686338 
L 84.857042 275.143894 
L 86.712073 335.485448 
L 86.943952 332.405069 
L 87.17583 329.61881 
L 88.798983 363.341838 
L 89.030861 361.276648 
L 90.190256 341.25566 
L 90.885892 334.540313 
L 90.654014 341.493001 
L 91.117771 337.607578 
L 91.34965 346.979925 
L 91.813408 340.763317 
L 92.045287 334.211789 
L 92.740923 335.600031 
L 93.204681 338.088036 
L 93.43656 329.910611 
L 93.900318 341.32083 
L 94.132197 338.783114 
L 96.219106 365.699771 
L 96.450985 360.939026 
L 96.914743 360.894219 
L 97.146622 358.165487 
L 97.378501 363.479832 
L 98.537895 374.74139 
L 97.842259 361.973036 
L 98.769774 368.694892 
L 99.001653 368.388233 
L 99.233532 370.239832 
L 99.697289 368.072181 
L 99.929168 361.631597 
L 100.392926 367.744242 
L 101.320442 374.64957 
L 101.55232 373.269935 
L 102.479836 367.472679 
L 102.711715 370.006398 
L 103.63923 377.676408 
L 103.871109 376.70492 
L 105.494261 362.797434 
L 104.334867 377.884391 
L 106.421777 364.945232 
L 108.508687 377.361634 
L 109.204323 374.780709 
L 109.436202 377.908921 
L 110.131839 375.2307 
L 110.363718 374.686596 
L 110.595596 377.888818 
L 111.291233 377.186483 
L 111.754991 375.496128 
L 112.218749 376.056012 
L 112.682506 366.185283 
L 113.146264 371.010033 
L 114.073779 377.722237 
L 114.305658 376.25477 
L 114.769416 374.34388 
L 115.001295 369.075399 
L 115.465053 376.71 
L 115.696932 375.103169 
L 115.92881 377.312322 
L 116.392568 372.593206 
L 116.624447 373.128449 
L 116.856326 376.8971 
L 117.551963 372.170335 
L 118.711357 377.468073 
L 118.943236 376.995628 
L 119.406994 372.496358 
L 120.10263 375.810372 
L 120.334509 377.645424 
L 120.798267 376.240665 
L 121.957661 369.210099 
L 122.653298 377.8948 
L 123.117055 375.051962 
L 124.044571 377.69496 
L 124.27645 376.09755 
L 124.972086 374.619926 
L 125.899602 375.714779 
L 126.36336 377.672507 
L 126.827117 369.302835 
L 127.522754 373.454617 
L 128.682148 366.364086 
L 128.914027 367.206137 
L 129.145906 368.088012 
L 129.377785 367.464888 
L 130.537179 364.153866 
L 131.928453 370.623277 
L 132.855968 370.855723 
L 133.087847 366.418824 
L 135.174757 377.159613 
L 135.870393 376.713528 
L 136.797909 371.868537 
L 137.029788 377.729503 
L 137.725424 370.451126 
L 138.189182 368.471023 
L 138.65294 373.137293 
L 139.116698 369.177968 
L 139.348576 367.250297 
L 139.812334 370.085682 
L 141.203607 375.87437 
L 141.435486 373.34487 
L 141.667365 372.068812 
L 141.899244 376.411513 
L 142.363002 371.419699 
L 142.594881 371.648509 
L 143.058638 373.88756 
L 143.290517 371.209905 
L 143.754275 368.707571 
L 144.913669 377.673947 
L 145.145548 377.339844 
L 145.841185 377.92177 
L 146.536821 372.227825 
L 147.232458 363.752804 
L 147.928095 364.409545 
L 148.159973 364.445081 
L 149.319368 373.194309 
L 148.623731 364.314416 
L 149.551247 373.125817 
L 150.246883 364.230069 
L 150.478762 370.532315 
L 150.710641 370.755163 
L 151.174399 367.103172 
L 151.406278 372.841594 
L 152.565672 377.838019 
L 153.725066 368.797719 
L 153.956945 371.655457 
L 155.11634 377.055813 
L 156.275734 374.759542 
L 156.507613 374.604387 
L 156.739492 369.364133 
L 157.435128 376.02047 
L 157.667007 377.853149 
L 157.898886 373.08963 
L 158.130765 372.868768 
L 158.362644 374.221143 
L 158.826402 373.448053 
L 159.05828 365.746345 
L 159.753917 370.492848 
L 160.449554 375.342546 
L 160.913311 373.11595 
L 161.608948 366.996147 
L 161.840827 367.199023 
L 162.072706 371.732116 
L 163.000221 371.050652 
L 165.087131 377.776069 
L 165.31901 376.002715 
L 166.014647 370.009804 
L 166.710283 372.571856 
L 167.637799 377.629294 
L 168.333435 376.789123 
L 169.029072 372.013795 
L 169.260951 375.97868 
L 171.579739 361.263753 
L 171.811618 363.314783 
L 172.275376 360.883685 
L 172.739134 359.197225 
L 172.971013 363.660957 
L 173.666649 360.538879 
L 174.362286 358.859188 
L 174.826044 359.944718 
L 175.057922 362.719882 
L 175.985438 362.561309 
L 176.681075 354.935939 
L 177.144832 359.209752 
L 177.840469 368.281265 
L 178.536106 366.149754 
L 178.767984 363.00223 
L 179.463621 365.604449 
L 179.6955 365.709733 
L 179.927379 364.679131 
L 180.159258 366.302792 
L 182.014289 377.463383 
L 183.173683 374.225973 
L 183.405562 377.911919 
L 184.333077 377.252002 
L 185.260593 375.275494 
L 186.188108 377.941539 
L 186.651866 373.165256 
L 187.347503 375.998391 
L 187.579381 376.732415 
L 187.81126 374.932666 
L 188.275018 375.072236 
L 189.666291 377.809254 
L 190.825686 372.516393 
L 191.057565 374.084041 
L 191.289443 377.188279 
L 191.98508 376.076543 
L 193.144474 367.565424 
L 193.376353 367.816032 
L 194.07199 366.181096 
L 194.535748 370.993496 
L 195.927021 366.256937 
L 197.318294 377.430664 
L 197.550173 377.450089 
L 198.477688 370.277309 
L 198.709567 372.620301 
L 198.941446 372.030532 
L 200.100841 377.806046 
L 200.332719 377.442966 
L 201.028356 374.196724 
L 201.260235 375.544099 
L 201.492114 376.23912 
L 201.723993 373.62965 
L 202.419629 375.883728 
L 202.883387 377.337295 
L 203.347145 375.724996 
L 204.042781 373.085996 
L 203.810902 375.853052 
L 204.27466 374.066536 
L 204.738418 375.838657 
L 204.970297 375.003923 
L 206.825328 362.678024 
L 207.289086 369.03115 
L 207.984722 368.866115 
L 209.607874 377.309932 
L 209.839753 377.034334 
L 210.999147 369.52758 
L 212.158542 376.996281 
L 212.390421 372.580541 
L 213.781694 361.22748 
L 214.013573 362.533754 
L 214.709209 370.417045 
L 215.172967 366.945485 
L 215.868604 366.439335 
L 216.332361 360.448609 
L 216.796119 360.642345 
L 217.027998 364.824578 
L 217.723635 361.571544 
L 218.187392 356.778089 
L 218.65115 361.718536 
L 220.274302 370.850041 
L 220.506181 367.965184 
L 221.201818 371.438814 
L 222.129333 376.476055 
L 223.520606 368.209444 
L 223.984364 366.206277 
L 224.216243 368.098322 
L 224.680001 371.719853 
L 225.375637 370.342932 
L 225.607516 366.231545 
L 226.535032 366.973309 
L 226.766911 363.614774 
L 227.230668 371.336016 
L 227.926305 370.208951 
L 228.158184 371.523935 
L 228.390063 372.030997 
L 228.621942 370.904452 
L 228.85382 370.104537 
L 229.085699 370.77488 
L 229.549457 377.616786 
L 230.013215 374.314281 
L 230.476973 370.955886 
L 231.172609 371.796856 
L 231.404488 370.576039 
L 231.636367 372.826271 
L 231.868246 374.346684 
L 232.100125 372.160395 
L 232.795761 368.215591 
L 233.259519 369.254868 
L 233.491398 372.247722 
L 233.955156 367.469578 
L 234.418913 364.87057 
L 234.650792 366.855249 
L 235.11455 365.166421 
L 236.505823 374.100088 
L 238.128975 364.636618 
L 238.592733 366.037684 
L 238.824612 364.787003 
L 239.520249 358.683461 
L 240.215885 358.906107 
L 240.447764 362.539474 
L 241.143401 359.597122 
L 241.37528 358.320463 
L 242.534674 367.847744 
L 243.694068 365.269771 
L 244.853463 369.549673 
L 245.31722 369.860273 
L 245.780978 366.304827 
L 246.476615 377.725551 
L 247.172251 376.686871 
L 247.867888 371.630271 
L 248.331646 373.282996 
L 248.563525 373.741212 
L 248.795403 370.010861 
L 249.49104 374.303364 
L 249.722919 374.218232 
L 250.650434 368.528859 
L 250.186677 374.497563 
L 250.882313 369.898686 
L 251.114192 370.286493 
L 251.57795 361.073334 
L 252.041708 367.988504 
L 253.66486 364.918165 
L 253.896739 366.534229 
L 255.056133 371.969564 
L 255.751769 375.303401 
L 255.983648 371.137269 
L 256.679285 376.422391 
L 256.911164 376.549427 
L 257.838679 370.455985 
L 258.302437 373.479154 
L 258.998074 376.528261 
L 259.229953 376.259063 
L 259.461831 373.459164 
L 260.157468 377.001989 
L 260.389347 376.996667 
L 261.084984 373.881353 
L 261.316862 375.705105 
L 261.548741 377.116604 
L 261.78062 371.839449 
L 262.244378 377.180203 
L 262.476257 373.641676 
L 264.331288 377.52174 
L 264.563167 377.220397 
L 265.95444 373.21909 
L 266.650076 374.081358 
L 266.881955 373.253555 
L 267.113834 373.329538 
L 267.577592 370.679046 
L 267.809471 371.843008 
L 268.736986 377.490008 
L 268.968865 375.368122 
L 269.896381 373.615599 
L 270.360138 374.948279 
L 270.592017 372.701134 
L 271.055775 372.108096 
L 271.287654 373.471656 
L 272.447048 367.947715 
L 272.678927 370.090447 
L 272.910806 371.197473 
L 273.142685 369.298133 
L 273.374564 369.354444 
L 274.0702 362.024582 
L 274.765837 362.263995 
L 274.997716 361.399948 
L 275.229595 363.961049 
L 276.620868 373.018052 
L 277.084626 371.121277 
L 277.316504 376.167759 
L 278.012141 375.01631 
L 278.24402 372.904545 
L 278.707778 375.327686 
L 278.939657 375.11624 
L 279.171535 375.77733 
L 279.867172 372.639414 
L 280.099051 374.764725 
L 281.258445 377.090522 
L 281.490324 375.39223 
L 282.185961 376.79473 
L 282.649719 377.110561 
L 283.113476 371.910441 
L 283.809113 374.494836 
L 284.040992 376.268024 
L 284.504749 373.960702 
L 284.968507 376.103266 
L 286.591659 368.745009 
L 287.751054 376.474814 
L 287.982933 376.061872 
L 288.678569 373.21107 
L 289.374206 377.448536 
L 289.606085 375.506773 
L 290.069842 374.46174 
L 290.5336 376.953234 
L 290.997358 371.906207 
L 291.692994 371.981518 
L 293.084268 365.86388 
L 293.316147 368.667436 
L 293.779904 363.237471 
L 294.011783 365.638681 
L 294.243662 366.580547 
L 294.475541 363.709989 
L 295.171178 358.418618 
L 295.403056 362.446502 
L 296.79433 369.116238 
L 297.026208 367.109174 
L 297.258087 367.169105 
L 298.185603 367.61462 
L 298.417482 364.880562 
L 298.649361 365.711986 
L 298.881239 363.038579 
L 299.113118 361.66944 
L 299.576876 364.909419 
L 301.663786 375.953239 
L 302.359423 371.084003 
L 302.82318 377.786284 
L 303.286938 373.581725 
L 303.750696 373.405291 
L 303.982575 374.049619 
L 304.214453 377.160975 
L 304.678211 377.073756 
L 304.91009 372.950141 
L 305.605727 377.783868 
L 307.692637 370.784245 
L 307.924515 372.630356 
L 308.852031 377.869623 
L 310.011425 366.355517 
L 310.243304 368.623774 
L 310.938941 365.327371 
L 311.17082 367.807022 
L 311.634577 370.610869 
L 312.098335 373.834392 
L 312.330214 370.602116 
L 312.562093 369.541607 
L 312.793972 370.216044 
L 314.185245 376.800486 
L 314.649003 377.464253 
L 315.576518 369.931623 
L 315.808397 370.194343 
L 316.967791 376.210714 
L 317.19967 373.798372 
L 317.431549 376.818024 
L 317.663428 375.133197 
L 318.127186 377.81036 
L 318.359065 372.208192 
L 318.822822 376.567261 
L 319.054701 370.337159 
L 319.28658 372.008026 
L 319.518459 372.105193 
L 320.214096 377.241707 
L 320.677853 376.436216 
L 321.605369 367.692865 
L 321.141611 376.757209 
L 322.069127 373.043175 
L 323.228521 376.746174 
L 323.4604 374.248426 
L 323.692279 377.72712 
L 323.924157 376.856937 
L 324.156036 377.798326 
L 325.54731 368.411846 
L 326.011067 369.261975 
L 326.474825 368.078103 
L 326.706704 367.842583 
L 327.866098 377.77249 
L 328.561735 375.29976 
L 328.793614 372.32287 
L 329.48925 374.723973 
L 329.953008 377.628557 
L 330.184887 376.085675 
L 331.112402 369.139963 
L 331.344281 372.148411 
L 331.57616 372.50993 
L 332.271797 366.976578 
L 332.735555 370.140127 
L 334.358707 364.114166 
L 335.74998 370.551995 
L 335.981859 368.938238 
L 336.445617 372.050939 
L 337.605011 375.954542 
L 337.83689 372.671713 
L 338.300647 376.952608 
L 338.532526 376.393669 
L 338.764405 377.551012 
L 339.228163 377.320107 
L 340.619436 373.135773 
L 340.851315 377.611654 
L 341.778831 376.694915 
L 342.242588 376.438087 
L 342.938225 373.618125 
L 342.706346 377.610642 
L 343.170104 374.667015 
L 343.401983 377.908743 
L 343.86574 374.39819 
L 344.097619 370.820449 
L 344.561377 374.263053 
L 345.025135 376.271679 
L 345.257014 374.248984 
L 345.488892 370.754905 
L 345.720771 376.920489 
L 346.184529 374.220571 
L 346.416408 377.410496 
L 346.880166 375.841623 
L 347.112045 372.839489 
L 347.575802 376.110961 
L 347.807681 376.065619 
L 348.03956 376.207534 
L 349.430833 371.014138 
L 349.662712 372.208101 
L 350.12647 371.380593 
L 350.358349 369.038453 
L 350.822106 372.742954 
L 351.053985 371.910772 
L 352.21338 377.134387 
L 352.445259 377.626017 
L 352.677137 376.713094 
L 352.909016 375.047289 
L 353.604653 376.898938 
L 354.068411 375.79685 
L 354.995926 377.889026 
L 355.923442 369.352425 
L 356.387199 369.986433 
L 356.850957 368.724155 
L 358.010351 377.658899 
L 358.705988 366.663597 
L 359.169746 372.524668 
L 360.32914 376.068358 
L 360.561019 376.173713 
L 361.256656 367.771951 
L 361.720413 370.84855 
L 361.952292 373.387561 
L 362.41605 367.98769 
L 363.111687 361.505333 
L 363.575444 363.918659 
L 363.807323 363.569009 
L 364.966718 370.005626 
L 366.357991 359.578959 
L 366.821749 364.060352 
L 367.285506 360.081178 
L 367.517385 358.154101 
L 367.749264 361.310602 
L 367.981143 360.569578 
L 369.140537 367.600112 
L 369.372416 365.575479 
L 370.531811 356.227455 
L 371.227447 358.651029 
L 371.691205 361.113617 
L 372.61872 360.652752 
L 372.850599 359.174602 
L 373.314357 362.325902 
L 374.473751 364.586622 
L 374.937509 358.919318 
L 375.169388 361.238708 
L 375.401267 370.350655 
L 376.096903 365.575155 
L 376.328782 366.600847 
L 376.560661 362.990097 
L 377.024419 368.534718 
L 378.415692 377.782489 
L 379.575086 372.287934 
L 379.806965 377.553078 
L 380.502602 376.118538 
L 380.734481 374.017552 
L 381.198239 377.359765 
L 381.430117 377.970552 
L 382.589512 374.737443 
L 382.821391 375.670703 
L 383.980785 369.835364 
L 384.212664 372.515772 
L 384.9083 369.187413 
L 386.299574 372.330747 
L 387.227089 364.68419 
L 388.154605 373.989799 
L 388.386484 372.505047 
L 388.850241 373.53944 
L 389.313999 372.866148 
L 389.777757 370.787269 
L 390.009636 375.082894 
L 390.241515 377.263847 
L 390.937151 374.7818 
L 391.16903 377.034408 
L 391.400909 376.831118 
L 391.632788 377.930259 
L 393.487819 364.54701 
L 393.719698 364.898908 
L 393.951576 363.747306 
L 395.34285 377.558536 
L 395.806607 374.625389 
L 396.038486 374.852278 
L 396.502244 369.118643 
L 396.966002 373.013733 
L 397.197881 373.330266 
L 397.661638 365.172288 
L 398.357275 369.968593 
L 399.28479 364.852275 
L 399.516669 360.155143 
L 400.444185 360.4862 
L 400.907943 355.253406 
L 401.603579 358.129001 
L 401.835458 358.42101 
L 402.994852 353.048638 
L 403.45861 353.221124 
L 404.386126 357.226175 
L 404.618005 355.459562 
L 404.849883 360.87473 
L 406.009278 368.373075 
L 406.473035 365.701456 
L 407.168672 364.795593 
L 406.936793 366.468109 
L 407.400551 365.005324 
L 410.878734 377.850931 
L 411.110613 377.138885 
L 411.574371 376.165064 
L 411.80625 375.542146 
L 412.038128 371.028924 
L 412.733765 376.696978 
L 413.66128 370.248167 
L 414.125038 377.786962 
L 414.588796 373.706777 
L 414.820675 373.717182 
L 415.284433 372.5122 
L 416.211948 376.957035 
L 416.443827 377.720824 
L 416.675706 375.839526 
L 417.139464 377.203232 
L 417.8351 377.562984 
L 418.762616 372.375761 
L 419.458252 369.132944 
L 419.92201 370.252729 
L 420.153889 373.751277 
L 420.617647 371.205089 
L 420.849525 368.392256 
L 421.313283 372.423212 
L 422.240799 377.609022 
L 422.472678 376.593933 
L 423.632072 367.542763 
L 423.863951 369.030009 
L 424.559587 372.776745 
L 424.791466 372.689397 
L 425.255224 369.235922 
L 425.718982 370.025912 
L 426.646497 375.837714 
L 426.878376 374.407482 
L 427.110255 370.425508 
L 427.805892 375.438033 
L 428.03777 374.122468 
L 428.269649 377.762431 
L 428.501528 377.660702 
L 429.892801 372.269755 
L 430.356559 374.553529 
L 430.820317 369.279214 
L 431.284075 370.984273 
L 431.515954 373.340426 
L 431.979711 370.454928 
L 432.443469 371.509271 
L 432.675348 369.245041 
L 433.602863 377.86514 
L 434.066621 377.398408 
L 434.762258 370.711969 
L 434.994137 372.959882 
L 436.38541 377.716293 
L 437.081046 376.957615 
L 437.544804 377.876497 
L 437.776683 374.966867 
L 438.47232 376.611448 
L 438.704199 377.502879 
L 439.167956 376.752516 
L 440.791108 364.858324 
L 441.022987 370.248398 
L 441.486745 368.854609 
L 441.718624 371.29477 
L 442.646139 377.286585 
L 442.878018 375.10716 
L 443.341776 372.790937 
L 443.573655 373.064716 
L 443.805534 376.869702 
L 444.269291 373.312433 
L 444.733049 376.033249 
L 445.196807 370.710057 
L 445.428686 375.205118 
L 446.356201 374.603697 
L 447.283717 377.237666 
L 447.515596 376.833213 
L 447.979353 376.967549 
L 448.443111 372.672089 
L 448.906869 377.920686 
L 449.370627 375.396981 
L 450.066263 377.286923 
L 450.7619 370.575726 
L 451.225658 370.116805 
L 451.457536 368.766223 
L 451.689415 373.264893 
L 451.921294 377.720332 
L 452.84881 376.696824 
L 453.080688 373.741689 
L 453.776325 376.843394 
L 454.935719 373.130838 
L 455.167598 373.250183 
L 455.631356 374.45449 
L 456.326993 374.569084 
L 457.254508 366.086472 
L 457.486387 366.796498 
L 458.413903 361.42125 
L 458.645781 361.72464 
L 459.341418 361.184117 
L 459.573297 364.265 
L 459.805176 362.305596 
L 460.037055 364.600001 
L 461.196449 368.823616 
L 461.428328 368.459678 
L 461.660207 369.439387 
L 461.892086 369.136712 
L 462.355843 370.224799 
L 463.283359 369.948195 
L 463.747117 374.696372 
L 464.674632 377.974572 
L 464.210874 372.745085 
L 464.906511 376.1653 
L 465.834026 370.79123 
L 466.297784 372.290504 
L 466.993421 371.346145 
L 466.761542 372.728464 
L 467.2253 372.377403 
L 467.457178 376.088316 
L 468.384694 375.971186 
L 468.616573 377.029141 
L 469.080331 371.538055 
L 469.544088 373.049913 
L 470.239725 375.686194 
L 470.471604 374.302298 
L 470.703483 374.26196 
L 471.399119 377.912548 
L 471.630998 377.617831 
L 472.790393 367.544324 
L 473.022271 371.088936 
L 474.181666 376.878322 
L 474.877302 377.739486 
L 475.34106 374.178067 
L 475.572939 374.448567 
L 475.804818 373.223116 
L 476.268576 377.612705 
L 476.964212 376.818729 
L 477.196091 376.407265 
L 477.42797 372.35397 
L 477.891728 377.356981 
L 478.123607 375.270662 
L 478.355485 373.985836 
L 478.819243 375.26175 
L 479.051122 377.502759 
L 479.51488 374.23563 
L 479.978637 375.104371 
L 480.442395 372.765316 
L 480.906153 377.167841 
L 481.60179 376.31637 
L 483.224942 368.43402 
L 482.065547 376.971284 
L 483.688699 369.872653 
L 483.920578 374.0826 
L 484.616215 369.229873 
L 485.079973 373.134368 
L 485.775609 371.865132 
L 486.007488 370.941059 
L 486.239367 371.893381 
L 486.471246 374.384352 
L 486.935004 371.16614 
L 487.166882 374.294529 
L 487.63064 371.140741 
L 487.862519 374.889889 
L 488.094398 372.739588 
L 488.790035 377.934535 
L 489.253792 374.884309 
L 489.485671 375.734675 
L 490.181308 366.83745 
L 490.645066 371.519082 
L 491.340702 377.357731 
L 491.572581 375.430418 
L 491.80446 371.214164 
L 492.500097 372.419639 
L 493.89137 377.792694 
L 492.963854 371.923593 
L 494.123249 375.93132 
L 494.355127 373.400035 
L 494.587006 376.817306 
L 495.050764 374.853806 
L 495.282643 376.309857 
L 495.514522 373.446915 
L 495.97828 375.172322 
L 496.210158 375.223102 
L 496.442037 371.666455 
L 496.905795 374.723684 
L 497.369553 377.884504 
L 497.601432 375.669432 
L 499.688342 359.210303 
L 500.615857 358.946052 
L 501.079615 365.436507 
L 501.775251 363.559873 
L 501.543372 366.636802 
L 502.239009 363.656888 
L 503.398403 364.65289 
L 503.630282 361.331501 
L 504.325919 364.893084 
L 504.557798 362.046589 
L 504.789677 359.151172 
L 505.021556 362.329447 
L 505.717192 359.950731 
L 507.340344 368.11506 
L 507.804102 367.456713 
L 508.035981 370.774322 
L 508.963496 366.021378 
L 510.35477 375.041971 
L 510.818527 375.254214 
L 511.050406 376.778809 
L 511.282285 375.228927 
L 511.977922 375.748107 
L 512.441679 367.526515 
L 513.369195 376.917369 
L 513.832953 376.624498 
L 514.528589 377.345118 
L 514.992347 375.846152 
L 515.224226 377.907615 
L 515.919862 375.696053 
L 516.38362 372.444775 
L 516.615499 369.458742 
L 516.847378 374.046468 
L 517.079257 373.152891 
L 517.311136 377.696948 
L 518.006772 373.1054 
L 518.934288 374.029652 
L 519.398046 368.107154 
L 520.093682 372.619602 
L 520.325561 372.845178 
L 521.021198 377.553837 
L 521.253076 374.659651 
L 521.948713 371.50596 
L 522.180592 377.870951 
L 522.876229 377.084057 
L 523.339986 366.537508 
L 524.499381 366.774513 
L 524.73126 366.87934 
L 525.426896 363.491241 
L 525.658775 366.661088 
L 525.890654 365.536227 
L 526.122533 367.393905 
L 527.745685 376.6432 
L 527.977564 377.034321 
L 529.368837 370.080476 
L 529.832595 370.272985 
L 530.296352 368.984466 
L 530.76011 372.266143 
L 531.223868 370.327646 
L 532.615141 363.947143 
L 534.238293 374.291458 
L 534.470172 373.784408 
L 535.629566 360.964802 
L 536.093324 361.371177 
L 536.325203 361.747629 
L 537.948355 371.813993 
L 538.180234 369.929201 
L 538.412113 371.376558 
" clip-path="url(#pe5e9538f4c)" style="fill: none; stroke: #e41a1c; stroke-width: 2; stroke-linecap: square"/>
   </g>
   <g id="patch_6">
    <path d="M 51.466484 385.599141 
L 51.466484 217.858633 
" style="fill: none; stroke: #7f7f7f; stroke-width: 1.8; stroke-linejoin: miter; stroke-linecap: square"/>
   </g>
   <g id="patch_7">
    <path d="M 51.466484 385.599141 
L 561.6 385.599141 
" style="fill: none; stroke: #7f7f7f; stroke-width: 1.8; stroke-linejoin: miter; stroke-linecap: square"/>
   </g>
  </g>
 </g>
 <defs>
  <clipPath id="pe4aa49715e">
   <rect x="51.466484" y="22.318125" width="510.133516" height="167.740508"/>
  </clipPath>
  <clipPath id="pe5e9538f4c">
   <rect x="51.466484" y="217.858633" width="510.133516" height="167.740508"/>
  </clipPath>
 </defs>
</svg>
