<?xml version="1.0" encoding="utf-8" standalone="no"?>
<!DOCTYPE svg PUBLIC "-//W3C//DTD SVG 1.1//EN"
  "http://www.w3.org/Graphics/SVG/1.1/DTD/svg11.dtd">
<svg xmlns:xlink="http://www.w3.org/1999/xlink" width="575.1625pt" height="424.8pt" viewBox="0 0 575.1625 424.8" xmlns="http://www.w3.org/2000/svg" version="1.1">
 <metadata>
  <rdf:RDF xmlns:dc="http://purl.org/dc/elements/1.1/" xmlns:cc="http://creativecommons.org/ns#" xmlns:rdf="http://www.w3.org/1999/02/22-rdf-syntax-ns#">
   <cc:Work>
    <dc:type rdf:resource="http://purl.org/dc/dcmitype/StillImage"/>
    <dc:date>2026-06-01T01:00:09.837173</dc:date>
    <dc:format>image/svg+xml</dc:format>
    <dc:creator>
     <cc:Agent>
      <dc:title>Matplotlib v3.10.9, https://matplotlib.org/</dc:title>
     </cc:Agent>
    </dc:creator>
   </cc:Work>
  </rdf:RDF>
 </metadata>
 <defs>
  <style type="text/css">*{stroke-linejoin: round; stroke-linecap: butt}</style>
 </defs>
 <g id="figure_1">
  <g id="patch_1">
   <path d="M 0 424.8 
L 575.1625 424.8 
L 575.1625 0 
L 0 0 
L 0 424.8 
z
" style="fill: none"/>
  </g>
  <g id="axes_1">
   <g id="patch_2">
    <path d="M 51.111563 190.557969 
L 567.9625 190.557969 
L 567.9625 22.318125 
L 51.111563 22.318125 
L 51.111563 190.557969 
z
" style="fill: none"/>
   </g>
   <g id="matplotlib.axis_1">
    <g id="xtick_1">
     <g id="line2d_1">
      <defs>
       <path id="m3a5883e0ab" d="M 0 0 
L 0 3.5 
" style="stroke: #7f7f7f; stroke-width: 1.8"/>
      </defs>
      <g>
       <use xlink:href="#m3a5883e0ab" x="74.604787" y="190.557969" style="fill: #7f7f7f; stroke: #7f7f7f; stroke-width: 1.8"/>
      </g>
     </g>
     <g id="text_1">
      <!-- 0.0 -->
      <g style="fill: #7f7f7f" transform="translate(66.653224 205.156406) scale(0.1 -0.1)">
       <defs>
        <path id="DejaVuSans-30" d="M 2034 4250 
Q 1547 4250 1301 3770 
Q 1056 3291 1056 2328 
Q 1056 1369 1301 889 
Q 1547 409 2034 409 
Q 2525 409 2770 889 
Q 3016 1369 3016 2328 
Q 3016 3291 2770 3770 
Q 2525 4250 2034 4250 
z
M 2034 4750 
Q 2819 4750 3233 4129 
Q 3647 3509 3647 2328 
Q 3647 1150 3233 529 
Q 2819 -91 2034 -91 
Q 1250 -91 836 529 
Q 422 1150 422 2328 
Q 422 3509 836 4129 
Q 1250 4750 2034 4750 
z
" transform="scale(0.015625)"/>
        <path id="DejaVuSans-2e" d="M 684 794 
L 1344 794 
L 1344 0 
L 684 0 
L 684 794 
z
" transform="scale(0.015625)"/>
       </defs>
       <use xlink:href="#DejaVuSans-30"/>
       <use xlink:href="#DejaVuSans-2e" transform="translate(63.623047 0)"/>
       <use xlink:href="#DejaVuSans-30" transform="translate(95.410156 0)"/>
      </g>
     </g>
    </g>
    <g id="xtick_2">
     <g id="line2d_2">
      <g>
       <use xlink:href="#m3a5883e0ab" x="133.337848" y="190.557969" style="fill: #7f7f7f; stroke: #7f7f7f; stroke-width: 1.8"/>
      </g>
     </g>
     <g id="text_2">
      <!-- 2.5 -->
      <g style="fill: #7f7f7f" transform="translate(125.386286 205.156406) scale(0.1 -0.1)">
       <defs>
        <path id="DejaVuSans-32" d="M 1228 531 
L 3431 531 
L 3431 0 
L 469 0 
L 469 531 
Q 828 903 1448 1529 
Q 2069 2156 2228 2338 
Q 2531 2678 2651 2914 
Q 2772 3150 2772 3378 
Q 2772 3750 2511 3984 
Q 2250 4219 1831 4219 
Q 1534 4219 1204 4116 
Q 875 4013 500 3803 
L 500 4441 
Q 881 4594 1212 4672 
Q 1544 4750 1819 4750 
Q 2544 4750 2975 4387 
Q 3406 4025 3406 3419 
Q 3406 3131 3298 2873 
Q 3191 2616 2906 2266 
Q 2828 2175 2409 1742 
Q 1991 1309 1228 531 
z
" transform="scale(0.015625)"/>
        <path id="DejaVuSans-35" d="M 691 4666 
L 3169 4666 
L 3169 4134 
L 1269 4134 
L 1269 2991 
Q 1406 3038 1543 3061 
Q 1681 3084 1819 3084 
Q 2600 3084 3056 2656 
Q 3513 2228 3513 1497 
Q 3513 744 3044 326 
Q 2575 -91 1722 -91 
Q 1428 -91 1123 -41 
Q 819 9 494 109 
L 494 744 
Q 775 591 1075 516 
Q 1375 441 1709 441 
Q 2250 441 2565 725 
Q 2881 1009 2881 1497 
Q 2881 1984 2565 2268 
Q 2250 2553 1709 2553 
Q 1456 2553 1204 2497 
Q 953 2441 691 2322 
L 691 4666 
z
" transform="scale(0.015625)"/>
       </defs>
       <use xlink:href="#DejaVuSans-32"/>
       <use xlink:href="#DejaVuSans-2e" transform="translate(63.623047 0)"/>
       <use xlink:href="#DejaVuSans-35" transform="translate(95.410156 0)"/>
      </g>
     </g>
    </g>
    <g id="xtick_3">
     <g id="line2d_3">
      <g>
       <use xlink:href="#m3a5883e0ab" x="192.070909" y="190.557969" style="fill: #7f7f7f; stroke: #7f7f7f; stroke-width: 1.8"/>
      </g>
     </g>
     <g id="text_3">
      <!-- 5.0 -->
      <g style="fill: #7f7f7f" transform="translate(184.119347 205.156406) scale(0.1 -0.1)">
       <use xlink:href="#DejaVuSans-35"/>
       <use xlink:href="#DejaVuSans-2e" transform="translate(63.623047 0)"/>
       <use xlink:href="#DejaVuSans-30" transform="translate(95.410156 0)"/>
      </g>
     </g>
    </g>
    <g id="xtick_4">
     <g id="line2d_4">
      <g>
       <use xlink:href="#m3a5883e0ab" x="250.80397" y="190.557969" style="fill: #7f7f7f; stroke: #7f7f7f; stroke-width: 1.8"/>
      </g>
     </g>
     <g id="text_4">
      <!-- 7.5 -->
      <g style="fill: #7f7f7f" transform="translate(242.852408 205.156406) scale(0.1 -0.1)">
       <defs>
        <path id="DejaVuSans-37" d="M 525 4666 
L 3525 4666 
L 3525 4397 
L 1831 0 
L 1172 0 
L 2766 4134 
L 525 4134 
L 525 4666 
z
" transform="scale(0.015625)"/>
       </defs>
       <use xlink:href="#DejaVuSans-37"/>
       <use xlink:href="#DejaVuSans-2e" transform="translate(63.623047 0)"/>
       <use xlink:href="#DejaVuSans-35" transform="translate(95.410156 0)"/>
      </g>
     </g>
    </g>
    <g id="xtick_5">
     <g id="line2d_5">
      <g>
       <use xlink:href="#m3a5883e0ab" x="309.537031" y="190.557969" style="fill: #7f7f7f; stroke: #7f7f7f; stroke-width: 1.8"/>
      </g>
     </g>
     <g id="text_5">
      <!-- 10.0 -->
      <g style="fill: #7f7f7f" transform="translate(298.404219 205.156406) scale(0.1 -0.1)">
       <defs>
        <path id="DejaVuSans-31" d="M 794 531 
L 1825 531 
L 1825 4091 
L 703 3866 
L 703 4441 
L 1819 4666 
L 2450 4666 
L 2450 531 
L 3481 531 
L 3481 0 
L 794 0 
L 794 531 
z
" transform="scale(0.015625)"/>
       </defs>
       <use xlink:href="#DejaVuSans-31"/>
       <use xlink:href="#DejaVuSans-30" transform="translate(63.623047 0)"/>
       <use xlink:href="#DejaVuSans-2e" transform="translate(127.246094 0)"/>
       <use xlink:href="#DejaVuSans-30" transform="translate(159.033203 0)"/>
      </g>
     </g>
    </g>
    <g id="xtick_6">
     <g id="line2d_6">
      <g>
       <use xlink:href="#m3a5883e0ab" x="368.270092" y="190.557969" style="fill: #7f7f7f; stroke: #7f7f7f; stroke-width: 1.8"/>
      </g>
     </g>
     <g id="text_6">
      <!-- 12.5 -->
      <g style="fill: #7f7f7f" transform="translate(357.13728 205.156406) scale(0.1 -0.1)">
       <use xlink:href="#DejaVuSans-31"/>
       <use xlink:href="#DejaVuSans-32" transform="translate(63.623047 0)"/>
       <use xlink:href="#DejaVuSans-2e" transform="translate(127.246094 0)"/>
       <use xlink:href="#DejaVuSans-35" transform="translate(159.033203 0)"/>
      </g>
     </g>
    </g>
    <g id="xtick_7">
     <g id="line2d_7">
      <g>
       <use xlink:href="#m3a5883e0ab" x="427.003153" y="190.557969" style="fill: #7f7f7f; stroke: #7f7f7f; stroke-width: 1.8"/>
      </g>
     </g>
     <g id="text_7">
      <!-- 15.0 -->
      <g style="fill: #7f7f7f" transform="translate(415.870341 205.156406) scale(0.1 -0.1)">
       <use xlink:href="#DejaVuSans-31"/>
       <use xlink:href="#DejaVuSans-35" transform="translate(63.623047 0)"/>
       <use xlink:href="#DejaVuSans-2e" transform="translate(127.246094 0)"/>
       <use xlink:href="#DejaVuSans-30" transform="translate(159.033203 0)"/>
      </g>
     </g>
    </g>
    <g id="xtick_8">
     <g id="line2d_8">
      <g>
       <use xlink:href="#m3a5883e0ab" x="485.736214" y="190.557969" style="fill: #7f7f7f; stroke: #7f7f7f; stroke-width: 1.8"/>
      </g>
     </g>
     <g id="text_8">
      <!-- 17.5 -->
      <g style="fill: #7f7f7f" transform="translate(474.603402 205.156406) scale(0.1 -0.1)">
       <use xlink:href="#DejaVuSans-31"/>
       <use xlink:href="#DejaVuSans-37" transform="translate(63.623047 0)"/>
       <use xlink:href="#DejaVuSans-2e" transform="translate(127.246094 0)"/>
       <use xlink:href="#DejaVuSans-35" transform="translate(159.033203 0)"/>
      </g>
     </g>
    </g>
    <g id="xtick_9">
     <g id="line2d_9">
      <g>
       <use xlink:href="#m3a5883e0ab" x="544.469276" y="190.557969" style="fill: #7f7f7f; stroke: #7f7f7f; stroke-width: 1.8"/>
      </g>
     </g>
     <g id="text_9">
      <!-- 20.0 -->
      <g style="fill: #7f7f7f" transform="translate(533.336463 205.156406) scale(0.1 -0.1)">
       <use xlink:href="#DejaVuSans-32"/>
       <use xlink:href="#DejaVuSans-30" transform="translate(63.623047 0)"/>
       <use xlink:href="#DejaVuSans-2e" transform="translate(127.246094 0)"/>
       <use xlink:href="#DejaVuSans-30" transform="translate(159.033203 0)"/>
      </g>
     </g>
    </g>
   </g>
   <g id="matplotlib.axis_2">
    <g id="ytick_1">
     <g id="line2d_10">
      <defs>
       <path id="mb0dae9e61f" d="M 0 0 
L -3.5 0 
" style="stroke: #7f7f7f; stroke-width: 1.8"/>
      </defs>
      <g>
       <use xlink:href="#mb0dae9e61f" x="51.111563" y="182.910703" style="fill: #7f7f7f; stroke: #7f7f7f; stroke-width: 1.8"/>
      </g>
     </g>
     <g id="text_10">
      <!-- 0.00 -->
      <g style="fill: #7f7f7f" transform="translate(21.845938 186.709922) scale(0.1 -0.1)">
       <use xlink:href="#DejaVuSans-30"/>
       <use xlink:href="#DejaVuSans-2e" transform="translate(63.623047 0)"/>
       <use xlink:href="#DejaVuSans-30" transform="translate(95.410156 0)"/>
       <use xlink:href="#DejaVuSans-30" transform="translate(159.033203 0)"/>
      </g>
     </g>
    </g>
    <g id="ytick_2">
     <g id="line2d_11">
      <g>
       <use xlink:href="#mb0dae9e61f" x="51.111563" y="160.610511" style="fill: #7f7f7f; stroke: #7f7f7f; stroke-width: 1.8"/>
      </g>
     </g>
     <g id="text_11">
      <!-- 0.05 -->
      <g style="fill: #7f7f7f" transform="translate(21.845938 164.40973) scale(0.1 -0.1)">
       <use xlink:href="#DejaVuSans-30"/>
       <use xlink:href="#DejaVuSans-2e" transform="translate(63.623047 0)"/>
       <use xlink:href="#DejaVuSans-30" transform="translate(95.410156 0)"/>
       <use xlink:href="#DejaVuSans-35" transform="translate(159.033203 0)"/>
      </g>
     </g>
    </g>
    <g id="ytick_3">
     <g id="line2d_12">
      <g>
       <use xlink:href="#mb0dae9e61f" x="51.111563" y="138.310319" style="fill: #7f7f7f; stroke: #7f7f7f; stroke-width: 1.8"/>
      </g>
     </g>
     <g id="text_12">
      <!-- 0.10 -->
      <g style="fill: #7f7f7f" transform="translate(21.845938 142.109537) scale(0.1 -0.1)">
       <use xlink:href="#DejaVuSans-30"/>
       <use xlink:href="#DejaVuSans-2e" transform="translate(63.623047 0)"/>
       <use xlink:href="#DejaVuSans-31" transform="translate(95.410156 0)"/>
       <use xlink:href="#DejaVuSans-30" transform="translate(159.033203 0)"/>
      </g>
     </g>
    </g>
    <g id="ytick_4">
     <g id="line2d_13">
      <g>
       <use xlink:href="#mb0dae9e61f" x="51.111563" y="116.010126" style="fill: #7f7f7f; stroke: #7f7f7f; stroke-width: 1.8"/>
      </g>
     </g>
     <g id="text_13">
      <!-- 0.15 -->
      <g style="fill: #7f7f7f" transform="translate(21.845938 119.809345) scale(0.1 -0.1)">
       <use xlink:href="#DejaVuSans-30"/>
       <use xlink:href="#DejaVuSans-2e" transform="translate(63.623047 0)"/>
       <use xlink:href="#DejaVuSans-31" transform="translate(95.410156 0)"/>
       <use xlink:href="#DejaVuSans-35" transform="translate(159.033203 0)"/>
      </g>
     </g>
    </g>
    <g id="ytick_5">
     <g id="line2d_14">
      <g>
       <use xlink:href="#mb0dae9e61f" x="51.111563" y="93.709934" style="fill: #7f7f7f; stroke: #7f7f7f; stroke-width: 1.8"/>
      </g>
     </g>
     <g id="text_14">
      <!-- 0.20 -->
      <g style="fill: #7f7f7f" transform="translate(21.845938 97.509153) scale(0.1 -0.1)">
       <use xlink:href="#DejaVuSans-30"/>
       <use xlink:href="#DejaVuSans-2e" transform="translate(63.623047 0)"/>
       <use xlink:href="#DejaVuSans-32" transform="translate(95.410156 0)"/>
       <use xlink:href="#DejaVuSans-30" transform="translate(159.033203 0)"/>
      </g>
     </g>
    </g>
    <g id="ytick_6">
     <g id="line2d_15">
      <g>
       <use xlink:href="#mb0dae9e61f" x="51.111563" y="71.409742" style="fill: #7f7f7f; stroke: #7f7f7f; stroke-width: 1.8"/>
      </g>
     </g>
     <g id="text_15">
      <!-- 0.25 -->
      <g style="fill: #7f7f7f" transform="translate(21.845938 75.20896) scale(0.1 -0.1)">
       <use xlink:href="#DejaVuSans-30"/>
       <use xlink:href="#DejaVuSans-2e" transform="translate(63.623047 0)"/>
       <use xlink:href="#DejaVuSans-32" transform="translate(95.410156 0)"/>
       <use xlink:href="#DejaVuSans-35" transform="translate(159.033203 0)"/>
      </g>
     </g>
    </g>
    <g id="ytick_7">
     <g id="line2d_16">
      <g>
       <use xlink:href="#mb0dae9e61f" x="51.111563" y="49.109549" style="fill: #7f7f7f; stroke: #7f7f7f; stroke-width: 1.8"/>
      </g>
     </g>
     <g id="text_16">
      <!-- 0.30 -->
      <g style="fill: #7f7f7f" transform="translate(21.845938 52.908768) scale(0.1 -0.1)">
       <defs>
        <path id="DejaVuSans-33" d="M 2597 2516 
Q 3050 2419 3304 2112 
Q 3559 1806 3559 1356 
Q 3559 666 3084 287 
Q 2609 -91 1734 -91 
Q 1441 -91 1130 -33 
Q 819 25 488 141 
L 488 750 
Q 750 597 1062 519 
Q 1375 441 1716 441 
Q 2309 441 2620 675 
Q 2931 909 2931 1356 
Q 2931 1769 2642 2001 
Q 2353 2234 1838 2234 
L 1294 2234 
L 1294 2753 
L 1863 2753 
Q 2328 2753 2575 2939 
Q 2822 3125 2822 3475 
Q 2822 3834 2567 4026 
Q 2313 4219 1838 4219 
Q 1578 4219 1281 4162 
Q 984 4106 628 3988 
L 628 4550 
Q 988 4650 1302 4700 
Q 1616 4750 1894 4750 
Q 2613 4750 3031 4423 
Q 3450 4097 3450 3541 
Q 3450 3153 3228 2886 
Q 3006 2619 2597 2516 
z
" transform="scale(0.015625)"/>
       </defs>
       <use xlink:href="#DejaVuSans-30"/>
       <use xlink:href="#DejaVuSans-2e" transform="translate(63.623047 0)"/>
       <use xlink:href="#DejaVuSans-33" transform="translate(95.410156 0)"/>
       <use xlink:href="#DejaVuSans-30" transform="translate(159.033203 0)"/>
      </g>
     </g>
    </g>
    <g id="ytick_8">
     <g id="line2d_17">
      <g>
       <use xlink:href="#mb0dae9e61f" x="51.111563" y="26.809357" style="fill: #7f7f7f; stroke: #7f7f7f; stroke-width: 1.8"/>
      </g>
     </g>
     <g id="text_17">
      <!-- 0.35 -->
      <g style="fill: #7f7f7f" transform="translate(21.845938 30.608576) scale(0.1 -0.1)">
       <use xlink:href="#DejaVuSans-30"/>
       <use xlink:href="#DejaVuSans-2e" transform="translate(63.623047 0)"/>
       <use xlink:href="#DejaVuSans-33" transform="translate(95.410156 0)"/>
       <use xlink:href="#DejaVuSans-35" transform="translate(159.033203 0)"/>
      </g>
     </g>
    </g>
    <g id="text_18">
     <!-- Position Error [m] -->
     <g style="fill: #7f7f7f" transform="translate(15.558281 154.397187) rotate(-90) scale(0.11 -0.11)">
      <defs>
       <path id="DejaVuSans-50" d="M 1259 4147 
L 1259 2394 
L 2053 2394 
Q 2494 2394 2734 2622 
Q 2975 2850 2975 3272 
Q 2975 3691 2734 3919 
Q 2494 4147 2053 4147 
L 1259 4147 
z
M 628 4666 
L 2053 4666 
Q 2838 4666 3239 4311 
Q 3641 3956 3641 3272 
Q 3641 2581 3239 2228 
Q 2838 1875 2053 1875 
L 1259 1875 
L 1259 0 
L 628 0 
L 628 4666 
z
" transform="scale(0.015625)"/>
       <path id="DejaVuSans-6f" d="M 1959 3097 
Q 1497 3097 1228 2736 
Q 959 2375 959 1747 
Q 959 1119 1226 758 
Q 1494 397 1959 397 
Q 2419 397 2687 759 
Q 2956 1122 2956 1747 
Q 2956 2369 2687 2733 
Q 2419 3097 1959 3097 
z
M 1959 3584 
Q 2709 3584 3137 3096 
Q 3566 2609 3566 1747 
Q 3566 888 3137 398 
Q 2709 -91 1959 -91 
Q 1206 -91 779 398 
Q 353 888 353 1747 
Q 353 2609 779 3096 
Q 1206 3584 1959 3584 
z
" transform="scale(0.015625)"/>
       <path id="DejaVuSans-73" d="M 2834 3397 
L 2834 2853 
Q 2591 2978 2328 3040 
Q 2066 3103 1784 3103 
Q 1356 3103 1142 2972 
Q 928 2841 928 2578 
Q 928 2378 1081 2264 
Q 1234 2150 1697 2047 
L 1894 2003 
Q 2506 1872 2764 1633 
Q 3022 1394 3022 966 
Q 3022 478 2636 193 
Q 2250 -91 1575 -91 
Q 1294 -91 989 -36 
Q 684 19 347 128 
L 347 722 
Q 666 556 975 473 
Q 1284 391 1588 391 
Q 1994 391 2212 530 
Q 2431 669 2431 922 
Q 2431 1156 2273 1281 
Q 2116 1406 1581 1522 
L 1381 1569 
Q 847 1681 609 1914 
Q 372 2147 372 2553 
Q 372 3047 722 3315 
Q 1072 3584 1716 3584 
Q 2034 3584 2315 3537 
Q 2597 3491 2834 3397 
z
" transform="scale(0.015625)"/>
       <path id="DejaVuSans-69" d="M 603 3500 
L 1178 3500 
L 1178 0 
L 603 0 
L 603 3500 
z
M 603 4863 
L 1178 4863 
L 1178 4134 
L 603 4134 
L 603 4863 
z
" transform="scale(0.015625)"/>
       <path id="DejaVuSans-74" d="M 1172 4494 
L 1172 3500 
L 2356 3500 
L 2356 3053 
L 1172 3053 
L 1172 1153 
Q 1172 725 1289 603 
Q 1406 481 1766 481 
L 2356 481 
L 2356 0 
L 1766 0 
Q 1100 0 847 248 
Q 594 497 594 1153 
L 594 3053 
L 172 3053 
L 172 3500 
L 594 3500 
L 594 4494 
L 1172 4494 
z
" transform="scale(0.015625)"/>
       <path id="DejaVuSans-6e" d="M 3513 2113 
L 3513 0 
L 2938 0 
L 2938 2094 
Q 2938 2591 2744 2837 
Q 2550 3084 2163 3084 
Q 1697 3084 1428 2787 
Q 1159 2491 1159 1978 
L 1159 0 
L 581 0 
L 581 3500 
L 1159 3500 
L 1159 2956 
Q 1366 3272 1645 3428 
Q 1925 3584 2291 3584 
Q 2894 3584 3203 3211 
Q 3513 2838 3513 2113 
z
" transform="scale(0.015625)"/>
       <path id="DejaVuSans-20" transform="scale(0.015625)"/>
       <path id="DejaVuSans-45" d="M 628 4666 
L 3578 4666 
L 3578 4134 
L 1259 4134 
L 1259 2753 
L 3481 2753 
L 3481 2222 
L 1259 2222 
L 1259 531 
L 3634 531 
L 3634 0 
L 628 0 
L 628 4666 
z
" transform="scale(0.015625)"/>
       <path id="DejaVuSans-72" d="M 2631 2963 
Q 2534 3019 2420 3045 
Q 2306 3072 2169 3072 
Q 1681 3072 1420 2755 
Q 1159 2438 1159 1844 
L 1159 0 
L 581 0 
L 581 3500 
L 1159 3500 
L 1159 2956 
Q 1341 3275 1631 3429 
Q 1922 3584 2338 3584 
Q 2397 3584 2469 3576 
Q 2541 3569 2628 3553 
L 2631 2963 
z
" transform="scale(0.015625)"/>
       <path id="DejaVuSans-5b" d="M 550 4863 
L 1875 4863 
L 1875 4416 
L 1125 4416 
L 1125 -397 
L 1875 -397 
L 1875 -844 
L 550 -844 
L 550 4863 
z
" transform="scale(0.015625)"/>
       <path id="DejaVuSans-6d" d="M 3328 2828 
Q 3544 3216 3844 3400 
Q 4144 3584 4550 3584 
Q 5097 3584 5394 3201 
Q 5691 2819 5691 2113 
L 5691 0 
L 5113 0 
L 5113 2094 
Q 5113 2597 4934 2840 
Q 4756 3084 4391 3084 
Q 3944 3084 3684 2787 
Q 3425 2491 3425 1978 
L 3425 0 
L 2847 0 
L 2847 2094 
Q 2847 2600 2669 2842 
Q 2491 3084 2119 3084 
Q 1678 3084 1418 2786 
Q 1159 2488 1159 1978 
L 1159 0 
L 581 0 
L 581 3500 
L 1159 3500 
L 1159 2956 
Q 1356 3278 1631 3431 
Q 1906 3584 2284 3584 
Q 2666 3584 2933 3390 
Q 3200 3197 3328 2828 
z
" transform="scale(0.015625)"/>
       <path id="DejaVuSans-5d" d="M 1947 4863 
L 1947 -844 
L 622 -844 
L 622 -397 
L 1369 -397 
L 1369 4416 
L 622 4416 
L 622 4863 
L 1947 4863 
z
" transform="scale(0.015625)"/>
      </defs>
      <use xlink:href="#DejaVuSans-50"/>
      <use xlink:href="#DejaVuSans-6f" transform="translate(56.677734 0)"/>
      <use xlink:href="#DejaVuSans-73" transform="translate(117.859375 0)"/>
      <use xlink:href="#DejaVuSans-69" transform="translate(169.958984 0)"/>
      <use xlink:href="#DejaVuSans-74" transform="translate(197.742188 0)"/>
      <use xlink:href="#DejaVuSans-69" transform="translate(236.951172 0)"/>
      <use xlink:href="#DejaVuSans-6f" transform="translate(264.734375 0)"/>
      <use xlink:href="#DejaVuSans-6e" transform="translate(325.916016 0)"/>
      <use xlink:href="#DejaVuSans-20" transform="translate(389.294922 0)"/>
      <use xlink:href="#DejaVuSans-45" transform="translate(421.082031 0)"/>
      <use xlink:href="#DejaVuSans-72" transform="translate(484.265625 0)"/>
      <use xlink:href="#DejaVuSans-72" transform="translate(523.628906 0)"/>
      <use xlink:href="#DejaVuSans-6f" transform="translate(562.492188 0)"/>
      <use xlink:href="#DejaVuSans-72" transform="translate(623.673828 0)"/>
      <use xlink:href="#DejaVuSans-20" transform="translate(664.787109 0)"/>
      <use xlink:href="#DejaVuSans-5b" transform="translate(696.574219 0)"/>
      <use xlink:href="#DejaVuSans-6d" transform="translate(735.587891 0)"/>
      <use xlink:href="#DejaVuSans-5d" transform="translate(833 0)"/>
     </g>
    </g>
   </g>
   <g id="line2d_18">
    <path d="M 74.604787 182.910703 
L 75.309584 143.558089 
L 75.544516 43.187059 
L 76.01438 148.224272 
L 76.249313 109.284717 
L 76.719177 93.79387 
L 76.954109 115.657404 
L 77.189042 124.636361 
L 78.598635 58.309082 
L 78.833567 59.673999 
L 79.773296 29.965391 
L 80.947958 126.095211 
L 81.417822 113.149817 
L 81.652754 92.061133 
L 81.887687 121.929434 
L 82.122619 118.114759 
L 82.357551 162.722192 
L 83.062348 110.976555 
L 84.237009 162.190048 
L 84.471941 137.64524 
L 85.176738 84.497366 
L 85.646602 107.952264 
L 85.881535 109.330297 
L 87.056196 156.913641 
L 88.465789 73.535002 
L 89.170586 128.841745 
L 89.640451 111.12963 
L 91.754841 176.858231 
L 92.224705 163.133208 
L 92.459637 158.48299 
L 92.69457 167.977319 
L 93.164434 167.144854 
L 93.399366 175.255737 
L 94.339095 128.275417 
L 94.574028 151.250383 
L 94.80896 160.464783 
L 95.278824 160.389152 
L 96.218553 129.454112 
L 96.453486 147.1315 
L 98.332944 179.573839 
L 99.272673 151.603945 
L 99.507605 163.641938 
L 99.742537 163.881235 
L 99.977469 156.225707 
L 100.212402 172.465097 
L 100.447334 180.711321 
L 100.917198 174.1434 
L 101.856927 133.712873 
L 102.796656 147.545094 
L 103.266521 142.334637 
L 103.501453 154.144323 
L 103.971317 154.443238 
L 105.380911 115.677038 
L 105.850775 121.179756 
L 106.085708 116.984947 
L 106.555572 93.0946 
L 107.025437 110.911679 
L 108.200098 155.220874 
L 108.904895 149.812978 
L 109.139827 128.983366 
L 109.609691 150.243845 
L 109.844624 142.488568 
L 110.079556 139.770002 
L 110.314488 144.233386 
L 111.724082 181.890797 
L 112.193946 178.731422 
L 112.428878 161.097932 
L 113.133675 180.677395 
L 113.368607 182.190261 
L 114.543268 146.063638 
L 114.778201 150.307503 
L 115.013133 156.565158 
L 115.248065 140.825915 
L 115.71793 141.741879 
L 116.187794 136.094328 
L 117.597388 165.718513 
L 117.83232 161.651649 
L 118.067252 158.879603 
L 118.302184 166.874311 
L 118.537117 165.114565 
L 119.711778 178.301906 
L 119.94671 179.090599 
L 120.181642 176.095927 
L 120.651507 180.868095 
L 120.886439 182.654865 
L 121.121371 171.96358 
L 122.0611 172.708104 
L 122.530965 181.912472 
L 123.000829 179.231805 
L 123.235762 168.289564 
L 123.705626 180.175977 
L 123.940558 182.478056 
L 125.115219 164.529461 
L 125.350152 172.845344 
L 125.585084 159.538628 
L 126.054948 163.687655 
L 126.289881 164.726961 
L 126.759745 182.285655 
L 127.22961 167.382193 
L 127.934406 154.646893 
L 128.639203 161.3319 
L 129.344 155.417219 
L 129.578932 168.985401 
L 129.813864 152.858813 
L 130.283729 166.000937 
L 130.518661 180.33012 
L 131.223458 168.659285 
L 131.45839 168.136875 
L 131.928255 167.725868 
L 132.398119 179.514866 
L 133.102916 165.963027 
L 133.57278 172.689815 
L 134.042645 179.018314 
L 134.512509 176.165041 
L 134.982374 169.226706 
L 135.452238 169.792936 
L 135.68717 181.752184 
L 136.391967 167.951564 
L 136.626899 171.373479 
L 136.861832 165.98828 
L 139.915951 94.224837 
L 140.150883 95.783786 
L 141.795409 128.388003 
L 142.030341 129.116489 
L 142.265273 110.743961 
L 142.97007 117.49557 
L 143.205002 117.552758 
L 144.849528 166.646857 
L 145.554325 144.808813 
L 146.259121 148.96093 
L 146.728986 163.644176 
L 147.19885 151.62471 
L 147.433783 136.884721 
L 147.903647 149.602504 
L 148.843376 178.176414 
L 149.078308 166.266844 
L 149.548173 176.724834 
L 150.018037 169.87591 
L 152.602292 136.349263 
L 153.542021 179.58142 
L 154.011886 159.594102 
L 154.716682 182.534792 
L 155.421479 178.038 
L 155.891343 179.790487 
L 156.361208 173.317696 
L 156.831072 170.720359 
L 157.066005 176.024135 
L 157.535869 179.501072 
L 159.180395 122.497012 
L 160.589988 148.302147 
L 159.650259 116.340695 
L 160.824921 144.811935 
L 161.529717 168.979623 
L 162.234514 157.064878 
L 163.87904 119.809301 
L 165.758498 79.855783 
L 165.99343 84.539236 
L 166.698227 119.258076 
L 167.168091 107.834392 
L 167.403023 106.579038 
L 168.577685 70.58142 
L 168.812617 78.680062 
L 169.047549 82.013088 
L 169.282481 78.282193 
L 169.517414 73.062979 
L 169.987278 81.666186 
L 170.22221 86.456643 
L 170.457143 69.012874 
L 171.161939 89.917134 
L 171.866736 78.723756 
L 172.101668 82.436213 
L 172.336601 90.990821 
L 172.571533 73.734729 
L 172.806465 78.314274 
L 173.27633 79.620142 
L 174.216059 62.632411 
L 174.920855 81.08398 
L 175.39072 75.532847 
L 175.625652 73.362792 
L 175.860584 76.097656 
L 176.330449 85.154568 
L 176.565381 80.834163 
L 176.800313 73.561086 
L 177.50511 79.449563 
L 178.209907 95.360449 
L 179.854432 161.531059 
L 180.794161 176.841575 
L 181.498958 176.46502 
L 181.73389 175.244693 
L 181.968823 180.731241 
L 182.438687 175.995618 
L 182.673619 156.528412 
L 183.613348 160.860074 
L 183.848281 178.479813 
L 184.553077 168.850381 
L 185.492806 147.867509 
L 185.022942 169.589579 
L 185.727738 155.481121 
L 187.137332 138.425063 
L 187.607196 154.209188 
L 188.077061 143.933329 
L 188.546925 129.889163 
L 189.251722 132.229158 
L 189.486654 142.094427 
L 189.956519 133.991944 
L 190.191451 128.459109 
L 190.661316 135.888833 
L 190.896248 133.92012 
L 191.13118 132.632685 
L 192.775706 96.459381 
L 193.010638 98.797102 
L 193.24557 87.630803 
L 193.715435 106.497595 
L 193.950367 106.57689 
L 194.185299 115.616779 
L 194.420232 102.774811 
L 194.655164 90.341105 
L 195.359961 105.393062 
L 196.769554 84.943297 
L 197.474351 85.474255 
L 198.649012 101.477709 
L 198.883944 97.050789 
L 199.118876 90.721754 
L 199.823673 97.675098 
L 200.058605 97.294284 
L 200.52847 98.141771 
L 200.763402 90.821809 
L 200.998334 101.328072 
L 201.233267 85.561967 
L 201.468199 74.408523 
L 201.938063 86.607642 
L 206.401776 177.494556 
L 207.106573 177.41483 
L 207.576437 168.108918 
L 207.811369 173.008721 
L 208.046302 179.738091 
L 208.751098 175.252361 
L 208.986031 177.520652 
L 210.865489 135.929384 
L 212.04015 163.165297 
L 212.510014 148.663775 
L 213.214811 151.147666 
L 214.624405 181.55008 
L 214.859337 182.103739 
L 215.094269 181.464993 
L 216.738795 147.316536 
L 216.973727 157.238234 
L 217.208659 169.05886 
L 217.913456 156.837114 
L 219.557982 136.985381 
L 219.792914 137.679082 
L 220.732643 151.785592 
L 222.377169 100.127153 
L 223.55183 89.272329 
L 223.786762 94.421416 
L 224.021694 79.424692 
L 224.491559 88.426823 
L 224.726491 81.13299 
L 224.961423 94.180411 
L 225.196356 101.739027 
L 225.431288 89.943206 
L 225.901152 96.132699 
L 226.136085 90.353179 
L 226.371017 106.456215 
L 227.310746 124.45823 
L 227.545678 120.174579 
L 227.78061 117.707926 
L 228.015542 122.139613 
L 228.720339 118.491345 
L 229.660068 154.253584 
L 229.895 154.936509 
L 231.774458 178.651724 
L 232.009391 178.697155 
L 232.479255 130.824979 
L 233.184052 153.787978 
L 233.418984 154.20721 
L 234.123781 140.909793 
L 234.593645 167.660916 
L 235.298442 157.449513 
L 236.942968 107.282956 
L 238.822426 147.343533 
L 239.057358 142.788175 
L 239.29229 150.118853 
L 240.232019 176.815462 
L 240.936816 161.636033 
L 241.171748 163.134071 
L 241.40668 158.995649 
L 242.111477 152.518041 
L 242.816274 134.523346 
L 243.051206 141.124944 
L 244.4608 180.969438 
L 245.165596 150.262156 
L 245.870393 154.36409 
L 246.105325 163.410359 
L 246.810122 157.122177 
L 247.045054 154.944359 
L 247.514919 154.861818 
L 248.219715 173.1897 
L 248.924512 143.845998 
L 249.629309 161.638037 
L 252.448496 182.49297 
L 252.683428 181.280822 
L 254.562886 154.638791 
L 255.032751 180.900389 
L 255.502615 174.957332 
L 255.737547 152.803509 
L 256.442344 160.143082 
L 256.912209 171.817532 
L 257.147141 157.096783 
L 257.382073 157.739089 
L 257.617005 162.953367 
L 257.851937 153.482145 
L 258.08687 148.470016 
L 258.321802 159.869145 
L 258.556734 156.962543 
L 258.791666 158.264688 
L 259.026599 156.943951 
L 259.731395 150.209115 
L 260.20126 163.189724 
L 260.436192 148.279126 
L 260.906057 132.148549 
L 261.375921 142.031691 
L 261.610853 147.240616 
L 262.080718 139.89825 
L 262.31565 136.20227 
L 262.550582 153.7605 
L 263.490311 150.758268 
L 263.725244 152.326699 
L 264.43004 132.607643 
L 264.899905 141.469887 
L 265.134837 141.274815 
L 265.604702 149.448414 
L 266.074566 130.287786 
L 266.544431 138.830686 
L 267.014295 147.193362 
L 267.249227 144.062735 
L 267.719092 131.78404 
L 267.954024 137.605941 
L 268.188956 152.339591 
L 268.893753 141.483429 
L 269.363617 118.432836 
L 269.833482 137.555314 
L 270.068414 136.205132 
L 270.303346 121.190179 
L 270.773211 143.921513 
L 271.008143 140.50934 
L 271.478008 146.543628 
L 271.71294 154.60704 
L 272.182804 144.134612 
L 272.887601 119.745214 
L 273.592398 132.329408 
L 274.297195 153.199246 
L 274.767059 151.617022 
L 275.236924 143.645872 
L 275.94172 144.241634 
L 278.291043 167.726306 
L 278.525975 166.124007 
L 278.995839 176.740114 
L 279.230772 165.939718 
L 279.465704 153.183318 
L 279.700636 174.130142 
L 279.935568 182.09188 
L 280.640365 179.885892 
L 280.875297 179.061987 
L 281.11023 179.327378 
L 281.345162 182.394671 
L 281.580094 176.388213 
L 282.049959 182.065173 
L 283.929417 164.807072 
L 284.399281 181.915876 
L 284.869146 162.29975 
L 285.33901 158.320442 
L 285.808875 173.018464 
L 286.043807 162.479383 
L 286.513671 177.016452 
L 286.748604 174.996564 
L 286.983536 166.169501 
L 287.4534 180.686504 
L 287.688333 171.757736 
L 288.393129 162.535467 
L 289.332858 164.232342 
L 289.802723 173.354701 
L 290.037655 179.282853 
L 290.272587 164.288786 
L 290.507519 163.457027 
L 290.977384 178.776803 
L 291.447248 166.697366 
L 291.682181 159.418785 
L 292.386977 167.283361 
L 293.091774 180.074532 
L 293.326706 176.452407 
L 293.561639 164.813619 
L 294.501368 166.836481 
L 295.676029 154.489439 
L 296.380826 175.966676 
L 296.85069 160.821057 
L 297.555487 163.426738 
L 298.025351 146.61637 
L 298.260284 150.184105 
L 298.730148 142.354737 
L 298.96508 130.618086 
L 299.669877 140.844605 
L 299.904809 140.265846 
L 300.139741 154.712851 
L 300.609606 135.288567 
L 300.844538 132.775091 
L 302.019199 159.549642 
L 302.489064 139.872034 
L 303.428793 141.689076 
L 305.308251 172.273409 
L 305.778115 172.391206 
L 306.717844 153.970497 
L 306.952777 151.756821 
L 307.187709 168.412508 
L 307.892506 154.974673 
L 308.36237 179.832348 
L 308.832235 157.076513 
L 309.067167 137.442208 
L 309.771963 148.229367 
L 310.946625 130.348721 
L 310.241828 151.735573 
L 311.181557 137.862268 
L 311.886354 169.045334 
L 312.121286 151.221028 
L 312.59115 139.331756 
L 312.826083 153.152529 
L 313.530879 181.877252 
L 314.000744 172.815036 
L 314.235676 169.815949 
L 314.470608 176.199376 
L 314.705541 175.6053 
L 314.940473 175.421806 
L 315.410337 181.169001 
L 315.880202 178.338299 
L 316.350066 180.040834 
L 317.75966 139.736145 
L 317.994592 125.324829 
L 318.464457 144.55572 
L 319.404186 150.099057 
L 319.639118 163.612168 
L 320.578847 162.075784 
L 321.753508 124.367552 
L 321.98844 137.539748 
L 322.458305 120.361142 
L 322.693237 109.15945 
L 322.928169 128.665464 
L 323.163101 126.344145 
L 324.10283 139.858212 
L 324.337763 136.224753 
L 324.572695 129.565151 
L 324.807627 144.659515 
L 325.042559 147.705652 
L 325.982288 173.3394 
L 326.217221 170.183481 
L 326.922017 180.448833 
L 326.687085 169.274155 
L 327.391882 179.341401 
L 327.626814 169.48842 
L 328.331611 174.432811 
L 329.036408 171.1053 
L 329.27134 182.629071 
L 329.506272 172.148695 
L 330.211069 179.251834 
L 330.680933 177.89762 
L 330.915865 182.801738 
L 331.620662 162.306992 
L 332.560391 162.976318 
L 334.204917 179.114528 
L 335.61451 152.363871 
L 335.849443 156.845342 
L 336.319307 180.0382 
L 337.493968 177.930343 
L 337.963833 177.562611 
L 338.198765 180.803172 
L 338.903562 181.946042 
L 339.373426 173.182846 
L 339.608359 179.693263 
L 340.078223 174.112051 
L 340.78302 152.285195 
L 341.252884 152.338337 
L 341.487816 155.636155 
L 341.722749 150.952941 
L 341.957681 154.416508 
L 342.192613 147.604719 
L 342.662478 160.948916 
L 343.602207 160.672964 
L 344.072071 182.840396 
L 345.481665 174.826319 
L 345.951529 181.218334 
L 346.186461 172.623586 
L 347.596055 135.297739 
L 348.770716 160.583056 
L 348.065919 134.931749 
L 349.005648 156.802558 
L 350.18031 126.95334 
L 350.415242 132.154203 
L 350.885106 125.205853 
L 351.589903 114.738229 
L 352.059767 133.112901 
L 352.529632 130.320454 
L 352.764564 118.7306 
L 353.234429 143.681137 
L 353.469361 139.64158 
L 353.704293 149.934048 
L 353.939225 155.913454 
L 354.174158 133.775023 
L 355.113887 135.718234 
L 355.583751 117.652738 
L 355.818683 125.251343 
L 356.053616 141.484479 
L 356.758412 136.447253 
L 358.402938 117.782177 
L 359.577599 155.605594 
L 359.812532 151.707722 
L 360.987193 168.405405 
L 361.926922 116.675486 
L 362.161854 120.462015 
L 362.866651 129.866511 
L 364.041312 97.00668 
L 364.276244 99.011017 
L 364.511176 99.852783 
L 364.746109 106.337253 
L 364.981041 92.219429 
L 366.155702 55.999488 
L 366.390634 71.595228 
L 366.860499 53.89086 
L 367.095431 47.813841 
L 367.330363 65.39886 
L 367.565296 57.761093 
L 367.800228 57.950678 
L 369.914618 135.771133 
L 371.794076 167.811824 
L 372.029008 161.29701 
L 373.438602 134.8915 
L 372.498873 169.396354 
L 373.673534 146.175869 
L 375.787924 166.993047 
L 376.492721 182.043839 
L 376.962585 180.215739 
L 377.902314 172.790594 
L 378.137247 179.00433 
L 378.372179 164.873294 
L 378.607111 160.794312 
L 378.842043 172.445631 
L 379.54684 182.609682 
L 379.781772 176.023064 
L 380.486569 172.176058 
L 380.721501 174.484524 
L 380.956434 175.912662 
L 381.191366 174.525329 
L 381.426298 163.992285 
L 381.896162 175.056822 
L 382.131095 173.671407 
L 382.366027 167.557961 
L 383.070824 170.000834 
L 383.305756 171.054983 
L 384.245485 179.562491 
L 384.480417 178.436566 
L 385.655078 157.87438 
L 385.890011 162.944039 
L 386.124943 170.688815 
L 386.594807 154.300502 
L 388.004401 168.320966 
L 388.239333 156.421116 
L 388.709198 173.387355 
L 389.648927 182.432456 
L 389.883859 178.465277 
L 390.353723 179.436867 
L 390.823588 163.070985 
L 391.293452 137.822048 
L 391.763317 155.438299 
L 391.998249 160.296861 
L 392.233181 155.140886 
L 393.642775 107.483515 
L 395.2873 138.749386 
L 397.871555 74.147713 
L 395.757165 140.808502 
L 398.34142 82.66781 
L 399.751013 94.844405 
L 400.220878 81.262224 
L 400.45581 91.802669 
L 401.160607 122.794605 
L 401.630471 101.050203 
L 402.5702 82.511945 
L 402.805132 86.520548 
L 403.274997 95.901402 
L 403.509929 79.546421 
L 403.744861 82.213541 
L 403.979793 77.945445 
L 404.214726 81.465142 
L 404.449658 65.671406 
L 404.919522 90.268185 
L 406.79898 130.965298 
L 408.208574 105.443792 
L 411.027761 171.770055 
L 408.678438 104.379084 
L 411.262693 168.230602 
L 411.732558 177.098093 
L 412.202422 173.745097 
L 412.437354 167.259771 
L 412.907219 179.704587 
L 413.142151 180.304579 
L 413.612015 181.74609 
L 414.316812 168.732678 
L 415.256541 181.193426 
L 415.491473 179.127173 
L 416.666135 155.854449 
L 416.901067 166.248899 
L 417.135999 165.090867 
L 418.31066 141.099082 
L 419.955186 173.744032 
L 421.599712 153.075198 
L 422.304509 181.462348 
L 422.774373 170.058099 
L 423.244237 175.803475 
L 423.949034 163.767937 
L 424.183966 177.150485 
L 424.418899 161.311896 
L 425.358628 124.785529 
L 425.59356 131.421496 
L 426.768221 164.838268 
L 427.003153 147.25902 
L 427.238086 148.617312 
L 427.70795 129.59351 
L 428.412747 131.480961 
L 428.647679 131.46632 
L 430.057273 118.529369 
L 430.997002 143.571773 
L 431.231934 139.032818 
L 431.466866 135.250988 
L 432.171663 159.412048 
L 432.641527 146.18588 
L 432.87646 128.445091 
L 433.581256 141.918387 
L 433.816188 150.613361 
L 434.286053 136.452401 
L 434.520985 141.881581 
L 434.99085 143.605796 
L 435.225782 154.314893 
L 435.695646 135.055378 
L 435.930579 133.522077 
L 436.635375 97.801434 
L 436.870308 107.775248 
L 437.10524 119.596593 
L 437.810037 107.423672 
L 438.044969 109.668962 
L 438.279901 104.272055 
L 438.514833 105.454612 
L 438.749766 103.84687 
L 438.984698 94.688743 
L 439.454562 106.791804 
L 439.689495 104.448443 
L 439.924427 103.348063 
L 442.038817 165.577907 
L 442.273749 146.888921 
L 442.978546 164.89084 
L 443.213478 166.28413 
L 444.153207 146.973252 
L 444.623072 168.455719 
L 445.327868 156.699299 
L 445.562801 154.433589 
L 445.797733 160.746215 
L 446.032665 159.593837 
L 446.737462 181.835731 
L 447.677191 174.686733 
L 447.912123 171.566215 
L 448.147055 173.8795 
L 448.381988 178.713298 
L 448.61692 173.642397 
L 449.556649 128.496649 
L 450.026513 143.592621 
L 450.261446 144.275833 
L 450.496378 151.860198 
L 450.73131 143.816591 
L 450.966242 129.944865 
L 451.436107 145.550216 
L 451.671039 150.554417 
L 451.905971 137.777835 
L 452.375836 115.393102 
L 452.610768 134.366881 
L 453.080633 150.334142 
L 453.550497 138.178585 
L 454.725158 161.333849 
L 455.429955 180.981127 
L 455.664887 168.059491 
L 455.899819 162.995321 
L 456.134752 182.404105 
L 456.839548 169.296037 
L 457.074481 170.276013 
L 457.309413 178.297012 
L 457.779277 144.851021 
L 458.484074 153.568957 
L 458.719006 155.734543 
L 458.953939 150.086846 
L 459.188871 147.68878 
L 459.423803 133.510982 
L 460.1286 144.372861 
L 460.363532 150.092348 
L 460.598464 134.422643 
L 460.833397 129.013899 
L 461.068329 139.012107 
L 462.712855 182.428779 
L 462.947787 177.879703 
L 463.887516 154.310455 
L 464.122448 167.811496 
L 464.592312 141.580266 
L 465.062177 124.244928 
L 465.297109 140.647523 
L 466.236838 166.190209 
L 466.47177 157.647714 
L 466.941635 157.499003 
L 467.176567 149.147362 
L 467.881364 156.560286 
L 468.116296 158.719088 
L 468.586161 182.205172 
L 469.056025 169.255662 
L 469.52589 160.920787 
L 469.760822 162.644973 
L 470.700551 137.278192 
L 470.935483 149.62985 
L 472.110144 160.07022 
L 472.814941 160.717153 
L 473.75467 129.435963 
L 473.989602 128.870049 
L 474.224535 129.73243 
L 474.694399 137.240768 
L 475.399196 119.05154 
L 475.86906 121.771114 
L 476.103992 126.80527 
L 476.338925 118.324497 
L 476.808789 103.432586 
L 477.278654 121.637696 
L 477.513586 104.950122 
L 478.453315 120.128697 
L 477.98345 103.611468 
L 478.688247 119.024276 
L 478.923179 117.606019 
L 479.627976 108.678893 
L 480.097841 130.14082 
L 480.567705 108.235003 
L 481.03757 109.557532 
L 482.212231 122.457705 
L 482.447163 121.722812 
L 483.15196 141.41424 
L 483.386892 131.117585 
L 483.621824 122.122629 
L 484.091689 127.919497 
L 485.031418 142.721482 
L 485.736214 122.321419 
L 485.971147 126.870403 
L 486.910876 169.958936 
L 487.38074 161.980963 
L 487.850605 151.444204 
L 488.085537 159.26466 
L 488.555401 178.764699 
L 489.260198 175.04209 
L 489.49513 174.491751 
L 490.669792 182.197101 
L 490.904724 181.144893 
L 491.374588 167.744089 
L 491.844453 169.287491 
L 492.54925 176.316761 
L 492.784182 174.734272 
L 493.488979 161.697527 
L 493.723911 182.479268 
L 494.66364 180.714688 
L 494.898572 180.633227 
L 495.368437 157.987997 
L 495.838301 166.684116 
L 496.073233 178.912934 
L 496.308165 164.361114 
L 497.012962 142.372962 
L 497.482827 152.45535 
L 497.717759 149.513791 
L 498.187623 125.492668 
L 498.657488 138.672705 
L 498.89242 143.0805 
L 499.127352 130.490688 
L 500.771878 86.163836 
L 501.00681 85.822348 
L 501.946539 67.175524 
L 502.181472 75.898414 
L 502.886268 88.71803 
L 503.121201 78.354445 
L 503.825997 55.640459 
L 504.295862 68.222873 
L 506.17532 88.467306 
L 506.645184 57.232728 
L 507.115049 73.927295 
L 507.584913 79.53032 
L 508.054778 62.538885 
L 508.28971 81.620881 
L 509.229439 124.807253 
L 509.699303 113.295635 
L 509.934236 110.255009 
L 510.169168 114.82779 
L 510.639032 129.362104 
L 511.108897 125.968926 
L 511.813694 113.144417 
L 512.283558 119.45331 
L 513.223287 150.263815 
L 513.928084 140.539024 
L 515.102745 123.312141 
L 515.337677 135.766963 
L 516.042474 132.883613 
L 516.277406 131.540614 
L 517.452067 175.950801 
L 517.921932 174.91868 
L 518.156864 181.710715 
L 518.391796 159.612373 
L 520.506187 120.913984 
L 521.210983 145.747741 
L 521.680848 133.122414 
L 522.855509 101.686015 
L 523.090441 96.354213 
L 523.325374 103.463977 
L 523.560306 109.400032 
L 523.795238 96.599288 
L 524.500035 80.883229 
L 524.265103 97.680732 
L 524.969899 88.35654 
L 525.204832 90.726826 
L 525.674696 77.793776 
L 525.909628 85.556522 
L 527.789086 137.812531 
L 528.024018 122.626566 
L 528.493883 135.852181 
L 529.433612 153.914371 
L 531.078138 107.643146 
L 531.548002 109.853132 
L 532.252799 137.027492 
L 532.722663 117.020081 
L 533.42746 102.501751 
L 533.897325 104.451022 
L 534.837054 119.14806 
L 535.071986 111.917965 
L 535.306918 119.448817 
L 536.481579 153.279293 
L 536.716512 144.043797 
L 538.361037 120.373789 
L 538.830902 130.572039 
L 539.300766 149.495976 
L 539.770631 138.875447 
L 540.005563 139.106343 
L 540.945292 155.67425 
L 542.119953 173.716588 
L 542.354885 179.205594 
L 542.589818 161.85431 
L 543.294614 126.113382 
L 543.764479 145.847846 
L 543.999411 157.144551 
L 544.469276 137.430709 
L 544.469276 137.430709 
" clip-path="url(#pe58413459b)" style="fill: none; stroke: #e41a1c; stroke-width: 2; stroke-linecap: square"/>
   </g>
   <g id="patch_3">
    <path d="M 51.111563 190.557969 
L 51.111563 22.318125 
" style="fill: none; stroke: #7f7f7f; stroke-width: 1.8; stroke-linejoin: miter; stroke-linecap: square"/>
   </g>
   <g id="patch_4">
    <path d="M 51.111563 190.557969 
L 567.9625 190.557969 
" style="fill: none; stroke: #7f7f7f; stroke-width: 1.8; stroke-linejoin: miter; stroke-linecap: square"/>
   </g>
   <g id="text_19">
    <!-- Kalman Filter Estimation Error -->
    <g style="fill: #7f7f7f" transform="translate(206.523594 16.318125) scale(0.12 -0.12)">
     <defs>
      <path id="DejaVuSans-Bold-4b" d="M 588 4666 
L 1791 4666 
L 1791 2963 
L 3525 4666 
L 4922 4666 
L 2675 2456 
L 5153 0 
L 3647 0 
L 1791 1838 
L 1791 0 
L 588 0 
L 588 4666 
z
" transform="scale(0.015625)"/>
      <path id="DejaVuSans-Bold-61" d="M 2106 1575 
Q 1756 1575 1579 1456 
Q 1403 1338 1403 1106 
Q 1403 894 1545 773 
Q 1688 653 1941 653 
Q 2256 653 2472 879 
Q 2688 1106 2688 1447 
L 2688 1575 
L 2106 1575 
z
M 3816 1997 
L 3816 0 
L 2688 0 
L 2688 519 
Q 2463 200 2181 54 
Q 1900 -91 1497 -91 
Q 953 -91 614 226 
Q 275 544 275 1050 
Q 275 1666 698 1953 
Q 1122 2241 2028 2241 
L 2688 2241 
L 2688 2328 
Q 2688 2594 2478 2717 
Q 2269 2841 1825 2841 
Q 1466 2841 1156 2769 
Q 847 2697 581 2553 
L 581 3406 
Q 941 3494 1303 3539 
Q 1666 3584 2028 3584 
Q 2975 3584 3395 3211 
Q 3816 2838 3816 1997 
z
" transform="scale(0.015625)"/>
      <path id="DejaVuSans-Bold-6c" d="M 538 4863 
L 1656 4863 
L 1656 0 
L 538 0 
L 538 4863 
z
" transform="scale(0.015625)"/>
      <path id="DejaVuSans-Bold-6d" d="M 3781 2919 
Q 3994 3244 4286 3414 
Q 4578 3584 4928 3584 
Q 5531 3584 5847 3212 
Q 6163 2841 6163 2131 
L 6163 0 
L 5038 0 
L 5038 1825 
Q 5041 1866 5042 1909 
Q 5044 1953 5044 2034 
Q 5044 2406 4934 2573 
Q 4825 2741 4581 2741 
Q 4263 2741 4089 2478 
Q 3916 2216 3909 1719 
L 3909 0 
L 2784 0 
L 2784 1825 
Q 2784 2406 2684 2573 
Q 2584 2741 2328 2741 
Q 2006 2741 1831 2477 
Q 1656 2213 1656 1722 
L 1656 0 
L 531 0 
L 531 3500 
L 1656 3500 
L 1656 2988 
Q 1863 3284 2130 3434 
Q 2397 3584 2719 3584 
Q 3081 3584 3359 3409 
Q 3638 3234 3781 2919 
z
" transform="scale(0.015625)"/>
      <path id="DejaVuSans-Bold-6e" d="M 4056 2131 
L 4056 0 
L 2931 0 
L 2931 347 
L 2931 1631 
Q 2931 2084 2911 2256 
Q 2891 2428 2841 2509 
Q 2775 2619 2662 2680 
Q 2550 2741 2406 2741 
Q 2056 2741 1856 2470 
Q 1656 2200 1656 1722 
L 1656 0 
L 538 0 
L 538 3500 
L 1656 3500 
L 1656 2988 
Q 1909 3294 2193 3439 
Q 2478 3584 2822 3584 
Q 3428 3584 3742 3212 
Q 4056 2841 4056 2131 
z
" transform="scale(0.015625)"/>
      <path id="DejaVuSans-Bold-20" transform="scale(0.015625)"/>
      <path id="DejaVuSans-Bold-46" d="M 588 4666 
L 3834 4666 
L 3834 3756 
L 1791 3756 
L 1791 2888 
L 3713 2888 
L 3713 1978 
L 1791 1978 
L 1791 0 
L 588 0 
L 588 4666 
z
" transform="scale(0.015625)"/>
      <path id="DejaVuSans-Bold-69" d="M 538 3500 
L 1656 3500 
L 1656 0 
L 538 0 
L 538 3500 
z
M 538 4863 
L 1656 4863 
L 1656 3950 
L 538 3950 
L 538 4863 
z
" transform="scale(0.015625)"/>
      <path id="DejaVuSans-Bold-74" d="M 1759 4494 
L 1759 3500 
L 2913 3500 
L 2913 2700 
L 1759 2700 
L 1759 1216 
Q 1759 972 1856 886 
Q 1953 800 2241 800 
L 2816 800 
L 2816 0 
L 1856 0 
Q 1194 0 917 276 
Q 641 553 641 1216 
L 641 2700 
L 84 2700 
L 84 3500 
L 641 3500 
L 641 4494 
L 1759 4494 
z
" transform="scale(0.015625)"/>
      <path id="DejaVuSans-Bold-65" d="M 4031 1759 
L 4031 1441 
L 1416 1441 
Q 1456 1047 1700 850 
Q 1944 653 2381 653 
Q 2734 653 3104 758 
Q 3475 863 3866 1075 
L 3866 213 
Q 3469 63 3072 -14 
Q 2675 -91 2278 -91 
Q 1328 -91 801 392 
Q 275 875 275 1747 
Q 275 2603 792 3093 
Q 1309 3584 2216 3584 
Q 3041 3584 3536 3087 
Q 4031 2591 4031 1759 
z
M 2881 2131 
Q 2881 2450 2695 2645 
Q 2509 2841 2209 2841 
Q 1884 2841 1681 2658 
Q 1478 2475 1428 2131 
L 2881 2131 
z
" transform="scale(0.015625)"/>
      <path id="DejaVuSans-Bold-72" d="M 3138 2547 
Q 2991 2616 2845 2648 
Q 2700 2681 2553 2681 
Q 2122 2681 1889 2404 
Q 1656 2128 1656 1613 
L 1656 0 
L 538 0 
L 538 3500 
L 1656 3500 
L 1656 2925 
Q 1872 3269 2151 3426 
Q 2431 3584 2822 3584 
Q 2878 3584 2943 3579 
Q 3009 3575 3134 3559 
L 3138 2547 
z
" transform="scale(0.015625)"/>
      <path id="DejaVuSans-Bold-45" d="M 588 4666 
L 3834 4666 
L 3834 3756 
L 1791 3756 
L 1791 2888 
L 3713 2888 
L 3713 1978 
L 1791 1978 
L 1791 909 
L 3903 909 
L 3903 0 
L 588 0 
L 588 4666 
z
" transform="scale(0.015625)"/>
      <path id="DejaVuSans-Bold-73" d="M 3272 3391 
L 3272 2541 
Q 2913 2691 2578 2766 
Q 2244 2841 1947 2841 
Q 1628 2841 1473 2761 
Q 1319 2681 1319 2516 
Q 1319 2381 1436 2309 
Q 1553 2238 1856 2203 
L 2053 2175 
Q 2913 2066 3209 1816 
Q 3506 1566 3506 1031 
Q 3506 472 3093 190 
Q 2681 -91 1863 -91 
Q 1516 -91 1145 -36 
Q 775 19 384 128 
L 384 978 
Q 719 816 1070 734 
Q 1422 653 1784 653 
Q 2113 653 2278 743 
Q 2444 834 2444 1013 
Q 2444 1163 2330 1236 
Q 2216 1309 1875 1350 
L 1678 1375 
Q 931 1469 631 1722 
Q 331 1975 331 2491 
Q 331 3047 712 3315 
Q 1094 3584 1881 3584 
Q 2191 3584 2531 3537 
Q 2872 3491 3272 3391 
z
" transform="scale(0.015625)"/>
      <path id="DejaVuSans-Bold-6f" d="M 2203 2784 
Q 1831 2784 1636 2517 
Q 1441 2250 1441 1747 
Q 1441 1244 1636 976 
Q 1831 709 2203 709 
Q 2569 709 2762 976 
Q 2956 1244 2956 1747 
Q 2956 2250 2762 2517 
Q 2569 2784 2203 2784 
z
M 2203 3584 
Q 3106 3584 3614 3096 
Q 4122 2609 4122 1747 
Q 4122 884 3614 396 
Q 3106 -91 2203 -91 
Q 1297 -91 786 396 
Q 275 884 275 1747 
Q 275 2609 786 3096 
Q 1297 3584 2203 3584 
z
" transform="scale(0.015625)"/>
     </defs>
     <use xlink:href="#DejaVuSans-Bold-4b"/>
     <use xlink:href="#DejaVuSans-Bold-61" transform="translate(77.490234 0)"/>
     <use xlink:href="#DejaVuSans-Bold-6c" transform="translate(144.970703 0)"/>
     <use xlink:href="#DejaVuSans-Bold-6d" transform="translate(179.248047 0)"/>
     <use xlink:href="#DejaVuSans-Bold-61" transform="translate(283.447266 0)"/>
     <use xlink:href="#DejaVuSans-Bold-6e" transform="translate(350.927734 0)"/>
     <use xlink:href="#DejaVuSans-Bold-20" transform="translate(422.119141 0)"/>
     <use xlink:href="#DejaVuSans-Bold-46" transform="translate(456.933594 0)"/>
     <use xlink:href="#DejaVuSans-Bold-69" transform="translate(525.244141 0)"/>
     <use xlink:href="#DejaVuSans-Bold-6c" transform="translate(559.521484 0)"/>
     <use xlink:href="#DejaVuSans-Bold-74" transform="translate(593.798828 0)"/>
     <use xlink:href="#DejaVuSans-Bold-65" transform="translate(641.601562 0)"/>
     <use xlink:href="#DejaVuSans-Bold-72" transform="translate(709.423828 0)"/>
     <use xlink:href="#DejaVuSans-Bold-20" transform="translate(758.740234 0)"/>
     <use xlink:href="#DejaVuSans-Bold-45" transform="translate(793.554688 0)"/>
     <use xlink:href="#DejaVuSans-Bold-73" transform="translate(861.865234 0)"/>
     <use xlink:href="#DejaVuSans-Bold-74" transform="translate(921.386719 0)"/>
     <use xlink:href="#DejaVuSans-Bold-69" transform="translate(969.189453 0)"/>
     <use xlink:href="#DejaVuSans-Bold-6d" transform="translate(1003.466797 0)"/>
     <use xlink:href="#DejaVuSans-Bold-61" transform="translate(1107.666016 0)"/>
     <use xlink:href="#DejaVuSans-Bold-74" transform="translate(1175.146484 0)"/>
     <use xlink:href="#DejaVuSans-Bold-69" transform="translate(1222.949219 0)"/>
     <use xlink:href="#DejaVuSans-Bold-6f" transform="translate(1257.226562 0)"/>
     <use xlink:href="#DejaVuSans-Bold-6e" transform="translate(1325.927734 0)"/>
     <use xlink:href="#DejaVuSans-Bold-20" transform="translate(1397.119141 0)"/>
     <use xlink:href="#DejaVuSans-Bold-45" transform="translate(1431.933594 0)"/>
     <use xlink:href="#DejaVuSans-Bold-72" transform="translate(1500.244141 0)"/>
     <use xlink:href="#DejaVuSans-Bold-72" transform="translate(1549.560547 0)"/>
     <use xlink:href="#DejaVuSans-Bold-6f" transform="translate(1598.876953 0)"/>
     <use xlink:href="#DejaVuSans-Bold-72" transform="translate(1667.578125 0)"/>
    </g>
   </g>
  </g>
  <g id="axes_2">
   <g id="patch_5">
    <path d="M 51.111563 386.275937 
L 567.9625 386.275937 
L 567.9625 218.036094 
L 51.111563 218.036094 
L 51.111563 386.275937 
z
" style="fill: none"/>
   </g>
   <g id="matplotlib.axis_3">
    <g id="xtick_10">
     <g id="line2d_19">
      <g>
       <use xlink:href="#m3a5883e0ab" x="74.604787" y="386.275937" style="fill: #7f7f7f; stroke: #7f7f7f; stroke-width: 1.8"/>
      </g>
     </g>
     <g id="text_20">
      <!-- 0.0 -->
      <g style="fill: #7f7f7f" transform="translate(66.653224 400.874375) scale(0.1 -0.1)">
       <use xlink:href="#DejaVuSans-30"/>
       <use xlink:href="#DejaVuSans-2e" transform="translate(63.623047 0)"/>
       <use xlink:href="#DejaVuSans-30" transform="translate(95.410156 0)"/>
      </g>
     </g>
    </g>
    <g id="xtick_11">
     <g id="line2d_20">
      <g>
       <use xlink:href="#m3a5883e0ab" x="133.337848" y="386.275937" style="fill: #7f7f7f; stroke: #7f7f7f; stroke-width: 1.8"/>
      </g>
     </g>
     <g id="text_21">
      <!-- 2.5 -->
      <g style="fill: #7f7f7f" transform="translate(125.386286 400.874375) scale(0.1 -0.1)">
       <use xlink:href="#DejaVuSans-32"/>
       <use xlink:href="#DejaVuSans-2e" transform="translate(63.623047 0)"/>
       <use xlink:href="#DejaVuSans-35" transform="translate(95.410156 0)"/>
      </g>
     </g>
    </g>
    <g id="xtick_12">
     <g id="line2d_21">
      <g>
       <use xlink:href="#m3a5883e0ab" x="192.070909" y="386.275937" style="fill: #7f7f7f; stroke: #7f7f7f; stroke-width: 1.8"/>
      </g>
     </g>
     <g id="text_22">
      <!-- 5.0 -->
      <g style="fill: #7f7f7f" transform="translate(184.119347 400.874375) scale(0.1 -0.1)">
       <use xlink:href="#DejaVuSans-35"/>
       <use xlink:href="#DejaVuSans-2e" transform="translate(63.623047 0)"/>
       <use xlink:href="#DejaVuSans-30" transform="translate(95.410156 0)"/>
      </g>
     </g>
    </g>
    <g id="xtick_13">
     <g id="line2d_22">
      <g>
       <use xlink:href="#m3a5883e0ab" x="250.80397" y="386.275937" style="fill: #7f7f7f; stroke: #7f7f7f; stroke-width: 1.8"/>
      </g>
     </g>
     <g id="text_23">
      <!-- 7.5 -->
      <g style="fill: #7f7f7f" transform="translate(242.852408 400.874375) scale(0.1 -0.1)">
       <use xlink:href="#DejaVuSans-37"/>
       <use xlink:href="#DejaVuSans-2e" transform="translate(63.623047 0)"/>
       <use xlink:href="#DejaVuSans-35" transform="translate(95.410156 0)"/>
      </g>
     </g>
    </g>
    <g id="xtick_14">
     <g id="line2d_23">
      <g>
       <use xlink:href="#m3a5883e0ab" x="309.537031" y="386.275937" style="fill: #7f7f7f; stroke: #7f7f7f; stroke-width: 1.8"/>
      </g>
     </g>
     <g id="text_24">
      <!-- 10.0 -->
      <g style="fill: #7f7f7f" transform="translate(298.404219 400.874375) scale(0.1 -0.1)">
       <use xlink:href="#DejaVuSans-31"/>
       <use xlink:href="#DejaVuSans-30" transform="translate(63.623047 0)"/>
       <use xlink:href="#DejaVuSans-2e" transform="translate(127.246094 0)"/>
       <use xlink:href="#DejaVuSans-30" transform="translate(159.033203 0)"/>
      </g>
     </g>
    </g>
    <g id="xtick_15">
     <g id="line2d_24">
      <g>
       <use xlink:href="#m3a5883e0ab" x="368.270092" y="386.275937" style="fill: #7f7f7f; stroke: #7f7f7f; stroke-width: 1.8"/>
      </g>
     </g>
     <g id="text_25">
      <!-- 12.5 -->
      <g style="fill: #7f7f7f" transform="translate(357.13728 400.874375) scale(0.1 -0.1)">
       <use xlink:href="#DejaVuSans-31"/>
       <use xlink:href="#DejaVuSans-32" transform="translate(63.623047 0)"/>
       <use xlink:href="#DejaVuSans-2e" transform="translate(127.246094 0)"/>
       <use xlink:href="#DejaVuSans-35" transform="translate(159.033203 0)"/>
      </g>
     </g>
    </g>
    <g id="xtick_16">
     <g id="line2d_25">
      <g>
       <use xlink:href="#m3a5883e0ab" x="427.003153" y="386.275937" style="fill: #7f7f7f; stroke: #7f7f7f; stroke-width: 1.8"/>
      </g>
     </g>
     <g id="text_26">
      <!-- 15.0 -->
      <g style="fill: #7f7f7f" transform="translate(415.870341 400.874375) scale(0.1 -0.1)">
       <use xlink:href="#DejaVuSans-31"/>
       <use xlink:href="#DejaVuSans-35" transform="translate(63.623047 0)"/>
       <use xlink:href="#DejaVuSans-2e" transform="translate(127.246094 0)"/>
       <use xlink:href="#DejaVuSans-30" transform="translate(159.033203 0)"/>
      </g>
     </g>
    </g>
    <g id="xtick_17">
     <g id="line2d_26">
      <g>
       <use xlink:href="#m3a5883e0ab" x="485.736214" y="386.275937" style="fill: #7f7f7f; stroke: #7f7f7f; stroke-width: 1.8"/>
      </g>
     </g>
     <g id="text_27">
      <!-- 17.5 -->
      <g style="fill: #7f7f7f" transform="translate(474.603402 400.874375) scale(0.1 -0.1)">
       <use xlink:href="#DejaVuSans-31"/>
       <use xlink:href="#DejaVuSans-37" transform="translate(63.623047 0)"/>
       <use xlink:href="#DejaVuSans-2e" transform="translate(127.246094 0)"/>
       <use xlink:href="#DejaVuSans-35" transform="translate(159.033203 0)"/>
      </g>
     </g>
    </g>
    <g id="xtick_18">
     <g id="line2d_27">
      <g>
       <use xlink:href="#m3a5883e0ab" x="544.469276" y="386.275937" style="fill: #7f7f7f; stroke: #7f7f7f; stroke-width: 1.8"/>
      </g>
     </g>
     <g id="text_28">
      <!-- 20.0 -->
      <g style="fill: #7f7f7f" transform="translate(533.336463 400.874375) scale(0.1 -0.1)">
       <use xlink:href="#DejaVuSans-32"/>
       <use xlink:href="#DejaVuSans-30" transform="translate(63.623047 0)"/>
       <use xlink:href="#DejaVuSans-2e" transform="translate(127.246094 0)"/>
       <use xlink:href="#DejaVuSans-30" transform="translate(159.033203 0)"/>
      </g>
     </g>
    </g>
    <g id="text_29">
     <!-- Time [s] -->
     <g style="fill: #7f7f7f" transform="translate(287.175234 415.312344) scale(0.11 -0.11)">
      <defs>
       <path id="DejaVuSans-54" d="M -19 4666 
L 3928 4666 
L 3928 4134 
L 2272 4134 
L 2272 0 
L 1638 0 
L 1638 4134 
L -19 4134 
L -19 4666 
z
" transform="scale(0.015625)"/>
       <path id="DejaVuSans-65" d="M 3597 1894 
L 3597 1613 
L 953 1613 
Q 991 1019 1311 708 
Q 1631 397 2203 397 
Q 2534 397 2845 478 
Q 3156 559 3463 722 
L 3463 178 
Q 3153 47 2828 -22 
Q 2503 -91 2169 -91 
Q 1331 -91 842 396 
Q 353 884 353 1716 
Q 353 2575 817 3079 
Q 1281 3584 2069 3584 
Q 2775 3584 3186 3129 
Q 3597 2675 3597 1894 
z
M 3022 2063 
Q 3016 2534 2758 2815 
Q 2500 3097 2075 3097 
Q 1594 3097 1305 2825 
Q 1016 2553 972 2059 
L 3022 2063 
z
" transform="scale(0.015625)"/>
      </defs>
      <use xlink:href="#DejaVuSans-54"/>
      <use xlink:href="#DejaVuSans-69" transform="translate(57.958984 0)"/>
      <use xlink:href="#DejaVuSans-6d" transform="translate(85.742188 0)"/>
      <use xlink:href="#DejaVuSans-65" transform="translate(183.154297 0)"/>
      <use xlink:href="#DejaVuSans-20" transform="translate(244.677734 0)"/>
      <use xlink:href="#DejaVuSans-5b" transform="translate(276.464844 0)"/>
      <use xlink:href="#DejaVuSans-73" transform="translate(315.478516 0)"/>
      <use xlink:href="#DejaVuSans-5d" transform="translate(367.578125 0)"/>
     </g>
    </g>
   </g>
   <g id="matplotlib.axis_4">
    <g id="ytick_9">
     <g id="line2d_28">
      <g>
       <use xlink:href="#mb0dae9e61f" x="51.111563" y="378.631726" style="fill: #7f7f7f; stroke: #7f7f7f; stroke-width: 1.8"/>
      </g>
     </g>
     <g id="text_30">
      <!-- 0.0 -->
      <g style="fill: #7f7f7f" transform="translate(28.208438 382.430944) scale(0.1 -0.1)">
       <use xlink:href="#DejaVuSans-30"/>
       <use xlink:href="#DejaVuSans-2e" transform="translate(63.623047 0)"/>
       <use xlink:href="#DejaVuSans-30" transform="translate(95.410156 0)"/>
      </g>
     </g>
    </g>
    <g id="ytick_10">
     <g id="line2d_29">
      <g>
       <use xlink:href="#mb0dae9e61f" x="51.111563" y="341.59592" style="fill: #7f7f7f; stroke: #7f7f7f; stroke-width: 1.8"/>
      </g>
     </g>
     <g id="text_31">
      <!-- 0.5 -->
      <g style="fill: #7f7f7f" transform="translate(28.208438 345.395138) scale(0.1 -0.1)">
       <use xlink:href="#DejaVuSans-30"/>
       <use xlink:href="#DejaVuSans-2e" transform="translate(63.623047 0)"/>
       <use xlink:href="#DejaVuSans-35" transform="translate(95.410156 0)"/>
      </g>
     </g>
    </g>
    <g id="ytick_11">
     <g id="line2d_30">
      <g>
       <use xlink:href="#mb0dae9e61f" x="51.111563" y="304.560114" style="fill: #7f7f7f; stroke: #7f7f7f; stroke-width: 1.8"/>
      </g>
     </g>
     <g id="text_32">
      <!-- 1.0 -->
      <g style="fill: #7f7f7f" transform="translate(28.208438 308.359332) scale(0.1 -0.1)">
       <use xlink:href="#DejaVuSans-31"/>
       <use xlink:href="#DejaVuSans-2e" transform="translate(63.623047 0)"/>
       <use xlink:href="#DejaVuSans-30" transform="translate(95.410156 0)"/>
      </g>
     </g>
    </g>
    <g id="ytick_12">
     <g id="line2d_31">
      <g>
       <use xlink:href="#mb0dae9e61f" x="51.111563" y="267.524308" style="fill: #7f7f7f; stroke: #7f7f7f; stroke-width: 1.8"/>
      </g>
     </g>
     <g id="text_33">
      <!-- 1.5 -->
      <g style="fill: #7f7f7f" transform="translate(28.208438 271.323527) scale(0.1 -0.1)">
       <use xlink:href="#DejaVuSans-31"/>
       <use xlink:href="#DejaVuSans-2e" transform="translate(63.623047 0)"/>
       <use xlink:href="#DejaVuSans-35" transform="translate(95.410156 0)"/>
      </g>
     </g>
    </g>
    <g id="ytick_13">
     <g id="line2d_32">
      <g>
       <use xlink:href="#mb0dae9e61f" x="51.111563" y="230.488502" style="fill: #7f7f7f; stroke: #7f7f7f; stroke-width: 1.8"/>
      </g>
     </g>
     <g id="text_34">
      <!-- 2.0 -->
      <g style="fill: #7f7f7f" transform="translate(28.208438 234.287721) scale(0.1 -0.1)">
       <use xlink:href="#DejaVuSans-32"/>
       <use xlink:href="#DejaVuSans-2e" transform="translate(63.623047 0)"/>
       <use xlink:href="#DejaVuSans-30" transform="translate(95.410156 0)"/>
      </g>
     </g>
    </g>
    <g id="text_35">
     <!-- Velocity Error [m/s] -->
     <g style="fill: #7f7f7f" transform="translate(21.920781 354.999844) rotate(-90) scale(0.11 -0.11)">
      <defs>
       <path id="DejaVuSans-56" d="M 1831 0 
L 50 4666 
L 709 4666 
L 2188 738 
L 3669 4666 
L 4325 4666 
L 2547 0 
L 1831 0 
z
" transform="scale(0.015625)"/>
       <path id="DejaVuSans-6c" d="M 603 4863 
L 1178 4863 
L 1178 0 
L 603 0 
L 603 4863 
z
" transform="scale(0.015625)"/>
       <path id="DejaVuSans-63" d="M 3122 3366 
L 3122 2828 
Q 2878 2963 2633 3030 
Q 2388 3097 2138 3097 
Q 1578 3097 1268 2742 
Q 959 2388 959 1747 
Q 959 1106 1268 751 
Q 1578 397 2138 397 
Q 2388 397 2633 464 
Q 2878 531 3122 666 
L 3122 134 
Q 2881 22 2623 -34 
Q 2366 -91 2075 -91 
Q 1284 -91 818 406 
Q 353 903 353 1747 
Q 353 2603 823 3093 
Q 1294 3584 2113 3584 
Q 2378 3584 2631 3529 
Q 2884 3475 3122 3366 
z
" transform="scale(0.015625)"/>
       <path id="DejaVuSans-79" d="M 2059 -325 
Q 1816 -950 1584 -1140 
Q 1353 -1331 966 -1331 
L 506 -1331 
L 506 -850 
L 844 -850 
Q 1081 -850 1212 -737 
Q 1344 -625 1503 -206 
L 1606 56 
L 191 3500 
L 800 3500 
L 1894 763 
L 2988 3500 
L 3597 3500 
L 2059 -325 
z
" transform="scale(0.015625)"/>
       <path id="DejaVuSans-2f" d="M 1625 4666 
L 2156 4666 
L 531 -594 
L 0 -594 
L 1625 4666 
z
" transform="scale(0.015625)"/>
      </defs>
      <use xlink:href="#DejaVuSans-56"/>
      <use xlink:href="#DejaVuSans-65" transform="translate(60.658203 0)"/>
      <use xlink:href="#DejaVuSans-6c" transform="translate(122.181641 0)"/>
      <use xlink:href="#DejaVuSans-6f" transform="translate(149.964844 0)"/>
      <use xlink:href="#DejaVuSans-63" transform="translate(211.146484 0)"/>
      <use xlink:href="#DejaVuSans-69" transform="translate(266.126953 0)"/>
      <use xlink:href="#DejaVuSans-74" transform="translate(293.910156 0)"/>
      <use xlink:href="#DejaVuSans-79" transform="translate(333.119141 0)"/>
      <use xlink:href="#DejaVuSans-20" transform="translate(392.298828 0)"/>
      <use xlink:href="#DejaVuSans-45" transform="translate(424.085938 0)"/>
      <use xlink:href="#DejaVuSans-72" transform="translate(487.269531 0)"/>
      <use xlink:href="#DejaVuSans-72" transform="translate(526.632812 0)"/>
      <use xlink:href="#DejaVuSans-6f" transform="translate(565.496094 0)"/>
      <use xlink:href="#DejaVuSans-72" transform="translate(626.677734 0)"/>
      <use xlink:href="#DejaVuSans-20" transform="translate(667.791016 0)"/>
      <use xlink:href="#DejaVuSans-5b" transform="translate(699.578125 0)"/>
      <use xlink:href="#DejaVuSans-6d" transform="translate(738.591797 0)"/>
      <use xlink:href="#DejaVuSans-2f" transform="translate(836.003906 0)"/>
      <use xlink:href="#DejaVuSans-73" transform="translate(869.695312 0)"/>
      <use xlink:href="#DejaVuSans-5d" transform="translate(921.794922 0)"/>
     </g>
    </g>
   </g>
   <g id="line2d_33">
    <path d="M 74.604787 230.488502 
L 75.074651 230.651315 
L 75.309584 231.509291 
L 75.544516 225.683359 
L 76.01438 234.130282 
L 76.249313 230.930723 
L 76.484245 230.431459 
L 76.719177 231.452391 
L 78.128771 248.219735 
L 78.598635 234.181065 
L 79.303432 235.66331 
L 82.357551 353.488473 
L 82.827415 335.770172 
L 83.062348 327.535613 
L 83.532212 342.284969 
L 84.237009 361.933218 
L 84.471941 349.537665 
L 85.176738 325.751249 
L 85.646602 340.252947 
L 85.881535 342.034839 
L 87.056196 367.45931 
L 88.465789 335.288902 
L 89.170586 360.06956 
L 89.640451 354.10266 
L 91.754841 376.33676 
L 92.459637 366.225738 
L 92.69457 369.702431 
L 93.399366 372.622719 
L 93.634299 371.606513 
L 94.104163 372.267816 
L 94.339095 364.703016 
L 95.278824 375.389161 
L 95.513757 371.509734 
L 96.218553 366.466213 
L 96.453486 371.998846 
L 97.628147 378.379994 
L 98.098011 376.99668 
L 99.272673 366.053185 
L 99.507605 369.662074 
L 99.742537 369.88108 
L 99.977469 367.88507 
L 100.212402 372.597141 
L 100.917198 378.117165 
L 101.387063 374.592607 
L 101.856927 368.257689 
L 102.326792 371.220085 
L 103.501453 374.617404 
L 104.911046 365.027991 
L 103.971317 374.859169 
L 105.380911 365.326706 
L 105.850775 367.200116 
L 106.085708 366.265724 
L 106.555572 360.394348 
L 107.025437 365.627553 
L 108.200098 378.106854 
L 108.904895 376.744601 
L 109.139827 371.24672 
L 109.609691 377.093739 
L 109.844624 375.059958 
L 110.079556 374.395437 
L 110.314488 375.648031 
L 111.019285 378.288847 
L 112.428878 366.084257 
L 113.133675 373.007673 
L 113.603539 368.829509 
L 114.543268 363.43825 
L 114.308336 369.620178 
L 114.778201 364.814628 
L 115.013133 366.706811 
L 115.248065 362.6964 
L 115.482997 362.031713 
L 115.71793 363.464699 
L 116.187794 362.448072 
L 118.302184 372.263776 
L 118.537117 371.894736 
L 119.711778 375.894884 
L 120.181642 375.386675 
L 120.886439 377.263477 
L 121.121371 374.411453 
L 121.591236 377.80275 
L 122.0611 374.803183 
L 123.470694 378.628672 
L 123.705626 378.36579 
L 125.115219 374.883831 
L 125.350152 377.185874 
L 125.585084 373.622728 
L 126.054948 374.883617 
L 126.524813 377.155079 
L 126.994677 374.62072 
L 127.464542 375.092028 
L 127.934406 372.548409 
L 128.874135 376.034636 
L 129.109068 375.825969 
L 129.813864 372.576003 
L 129.578932 376.898102 
L 130.048797 373.259316 
L 130.518661 377.053228 
L 130.988526 372.922005 
L 131.45839 372.655778 
L 132.867984 377.846472 
L 133.102916 375.726629 
L 133.337848 378.539887 
L 133.807712 378.23977 
L 134.042645 377.955694 
L 134.512509 378.52451 
L 134.982374 373.309886 
L 135.452238 376.671395 
L 135.922103 377.387833 
L 138.271425 360.476155 
L 138.976222 356.63637 
L 139.211154 358.835496 
L 139.446086 360.24256 
L 139.681019 357.595461 
L 139.915951 356.735732 
L 140.150883 357.511667 
L 142.030341 368.411801 
L 142.265273 363.62376 
L 142.500206 368.679464 
L 142.97007 366.055189 
L 143.205002 366.274789 
L 144.614596 376.152947 
L 145.08446 378.145054 
L 145.319392 375.905733 
L 145.554325 374.435052 
L 145.789257 377.146166 
L 146.259121 375.675316 
L 146.494054 378.603303 
L 147.19885 376.450369 
L 147.433783 372.511933 
L 148.138579 376.249901 
L 148.608444 376.758729 
L 150.018037 369.09343 
L 150.487902 366.508687 
L 150.722834 366.808198 
L 150.957766 369.680698 
L 151.427631 365.368799 
L 151.897495 363.231893 
L 152.132428 361.963094 
L 152.602292 362.341688 
L 153.542021 374.761181 
L 154.011886 369.550832 
L 155.656411 378.580321 
L 155.891343 377.074428 
L 156.59614 378.218044 
L 157.300937 376.69255 
L 157.535869 377.147616 
L 158.945463 361.24749 
L 159.180395 361.159841 
L 159.650259 360.027497 
L 161.059853 370.618786 
L 161.294785 370.470545 
L 161.529717 375.620679 
L 162.234514 372.618058 
L 163.644108 364.961588 
L 165.758498 355.520327 
L 165.99343 357.158088 
L 166.698227 367.384246 
L 167.168091 364.700677 
L 167.403023 364.588385 
L 168.577685 356.336054 
L 168.812617 358.881279 
L 169.517414 358.300643 
L 170.22221 362.830014 
L 170.457143 358.383859 
L 170.692075 363.587128 
L 170.927007 362.33461 
L 171.161939 364.856869 
L 171.866736 362.57029 
L 172.336601 366.378329 
L 172.571533 361.925165 
L 172.806465 363.430957 
L 173.27633 364.301949 
L 174.216059 360.738119 
L 174.920855 366.49141 
L 175.625652 365.043473 
L 176.330449 368.818414 
L 177.035245 366.94975 
L 177.270178 366.792564 
L 178.444839 378.571563 
L 179.384568 373.611579 
L 180.794161 363.42642 
L 181.264026 365.344579 
L 182.673619 356.743163 
L 183.848281 364.25813 
L 184.318145 364.171271 
L 185.492806 357.7896 
L 185.727738 360.180477 
L 186.197603 359.25952 
L 186.432535 360.433972 
L 186.667467 361.241603 
L 186.9024 359.808111 
L 187.137332 357.383701 
L 187.607196 362.270982 
L 188.077061 360.040746 
L 188.546925 356.899268 
L 189.01679 359.806104 
L 189.251722 358.496418 
L 189.486654 361.482845 
L 190.191451 358.687647 
L 190.661316 361.304262 
L 191.13118 360.99303 
L 191.835977 353.614762 
L 192.775706 353.705241 
L 194.185299 361.155998 
L 193.24557 352.117596 
L 194.420232 357.977612 
L 194.655164 354.960883 
L 195.125028 355.913206 
L 195.359961 360.120978 
L 196.064757 357.363386 
L 196.534622 357.659642 
L 196.769554 356.55779 
L 197.004486 358.222278 
L 197.474351 357.731843 
L 198.649012 363.622515 
L 198.883944 362.672703 
L 199.118876 361.225517 
L 199.353809 363.076909 
L 199.588741 361.776339 
L 200.52847 364.757671 
L 201.468199 359.310919 
L 200.998334 366.095469 
L 201.703131 361.959102 
L 202.407928 368.30708 
L 203.582589 378.495321 
L 203.817521 376.900106 
L 204.052454 377.285037 
L 204.522318 376.429926 
L 204.992183 371.560635 
L 205.931912 373.310849 
L 206.166844 373.354993 
L 206.401776 369.375641 
L 207.106573 369.806838 
L 207.576437 372.585252 
L 208.281234 371.050175 
L 208.751098 371.282271 
L 209.455895 362.680143 
L 209.92576 358.374059 
L 210.395624 362.694823 
L 210.865489 358.750737 
L 211.100421 363.208882 
L 211.570285 360.822685 
L 212.744947 367.627645 
L 212.979879 367.03428 
L 213.214811 365.233618 
L 213.449743 369.610727 
L 214.15454 375.618926 
L 214.624405 374.117328 
L 215.094269 374.237338 
L 215.799066 377.381843 
L 216.033998 374.986384 
L 216.503862 376.381932 
L 216.738795 373.0663 
L 217.443591 378.566478 
L 217.913456 375.787804 
L 219.557982 370.996962 
L 219.792914 371.30791 
L 220.732643 375.443912 
L 222.377169 362.373507 
L 222.612101 360.870854 
L 223.081965 362.728956 
L 223.316898 362.858521 
L 224.021694 358.686946 
L 224.256627 360.652461 
L 225.196356 366.134314 
L 224.726491 360.037464 
L 225.901152 365.298449 
L 226.136085 363.956784 
L 227.310746 373.860082 
L 227.545678 372.78271 
L 227.78061 372.21267 
L 228.015542 373.511607 
L 228.720339 372.691123 
L 229.190204 378.346723 
L 230.599797 369.965799 
L 230.834729 372.272173 
L 231.304594 371.790104 
L 232.479255 354.699173 
L 232.94912 357.509017 
L 233.418984 362.384061 
L 233.888849 359.707306 
L 234.123781 359.65933 
L 234.593645 367.39788 
L 235.298442 365.207944 
L 236.238171 353.903309 
L 236.942968 354.026292 
L 238.822426 367.248216 
L 239.057358 366.204922 
L 239.29229 368.382919 
L 240.232019 376.10188 
L 241.171748 372.773887 
L 242.816274 365.997533 
L 243.051206 367.982343 
L 243.990935 378.389281 
L 244.225867 377.335879 
L 244.930664 375.480795 
L 245.165596 370.901119 
L 245.870393 372.333183 
L 246.105325 374.874208 
L 246.810122 373.37305 
L 247.045054 372.871295 
L 248.219715 378.133581 
L 248.924512 370.304396 
L 249.394377 375.16853 
L 249.864241 376.009362 
L 251.038902 378.624921 
L 251.508767 377.785596 
L 251.743699 375.451297 
L 252.448496 376.178448 
L 252.91836 378.029027 
L 253.153293 377.58423 
L 254.562886 369.067382 
L 255.267683 378.390133 
L 255.502615 378.168927 
L 255.737547 372.203994 
L 256.442344 374.419583 
L 256.912209 377.667736 
L 257.147141 373.71482 
L 257.382073 373.967794 
L 257.617005 375.449218 
L 257.851937 372.947534 
L 258.08687 371.688585 
L 258.321802 374.87438 
L 258.556734 374.151781 
L 258.791666 374.575548 
L 259.026599 374.285333 
L 259.731395 372.725436 
L 260.20126 376.377237 
L 260.436192 372.394088 
L 260.906057 368.280543 
L 261.375921 371.254507 
L 261.610853 372.778532 
L 262.080718 370.996285 
L 262.31565 370.12383 
L 262.550582 374.995457 
L 263.490311 374.47202 
L 263.725244 374.962376 
L 264.43004 369.948652 
L 264.664973 371.725724 
L 265.604702 375.022195 
L 265.839634 369.975303 
L 266.544431 372.584179 
L 267.014295 375.022955 
L 267.249227 374.237549 
L 267.719092 371.108316 
L 267.954024 372.799967 
L 268.188956 376.866674 
L 268.893753 374.072791 
L 269.363617 368.055567 
L 269.833482 373.515077 
L 270.068414 373.234138 
L 270.303346 369.273877 
L 270.773211 375.668253 
L 271.008143 374.796471 
L 271.478008 376.543291 
L 271.947872 378.580788 
L 272.182804 375.926636 
L 272.887601 369.584941 
L 273.592398 373.347598 
L 274.767059 378.532263 
L 275.236924 376.611814 
L 275.94172 376.80731 
L 276.411585 378.462386 
L 276.881449 376.880718 
L 277.116382 376.317356 
L 277.351314 377.104069 
L 277.586246 376.719877 
L 278.056111 378.182143 
L 278.995839 371.984026 
L 279.230772 375.003613 
L 279.465704 378.501503 
L 279.935568 370.803909 
L 280.170501 371.050217 
L 280.405433 369.579856 
L 280.875297 370.0801 
L 281.580094 373.234699 
L 282.049959 371.918398 
L 282.284891 370.826757 
L 282.519823 373.848499 
L 282.754755 373.037306 
L 283.22462 374.226715 
L 283.929417 367.649039 
L 284.164349 370.92063 
L 286.043807 378.569854 
L 286.983536 368.768545 
L 287.923265 370.063986 
L 288.158197 370.348646 
L 288.393129 368.566354 
L 288.628062 370.980008 
L 289.097926 369.32521 
L 289.56779 370.16014 
L 290.037655 374.060778 
L 290.507519 370.007106 
L 290.977384 374.393743 
L 291.447248 371.298267 
L 291.682181 369.455077 
L 292.152045 371.803034 
L 292.386977 371.962544 
L 292.62191 378.329465 
L 293.326706 378.150831 
L 293.561639 375.967115 
L 294.266435 376.882704 
L 294.501368 376.640053 
L 295.206164 373.541725 
L 295.676029 373.600347 
L 296.380826 377.703149 
L 296.85069 375.535612 
L 297.555487 376.422369 
L 298.025351 372.028105 
L 298.260284 373.097125 
L 298.730148 371.186136 
L 298.96508 368.142916 
L 299.669877 371.373996 
L 299.904809 371.335781 
L 300.139741 375.348979 
L 300.609606 370.281158 
L 300.844538 369.739103 
L 302.019199 377.461651 
L 302.489064 372.228352 
L 303.428793 373.06721 
L 304.838386 377.95771 
L 305.073319 378.006461 
L 305.778115 375.627314 
L 305.543183 378.416918 
L 306.013048 376.506414 
L 306.482912 378.260012 
L 306.717844 376.592035 
L 306.952777 376.028361 
L 307.187709 376.702627 
L 308.127438 378.396444 
L 309.067167 372.121939 
L 309.302099 373.353693 
L 309.537031 373.049279 
L 310.241828 376.379547 
L 310.47676 373.732891 
L 310.946625 370.817357 
L 311.181557 372.969781 
L 311.651421 378.148272 
L 312.121286 376.649424 
L 312.826083 377.337396 
L 313.530879 371.774414 
L 314.235676 375.819049 
L 314.705541 374.376808 
L 314.940473 374.495344 
L 315.175405 374.021228 
L 315.64527 371.376882 
L 315.880202 374.074073 
L 316.819931 377.548919 
L 316.350066 373.747905 
L 317.054863 375.228795 
L 317.75966 372.700376 
L 317.994592 368.911514 
L 318.464457 374.329587 
L 320.578847 377.899948 
L 321.753508 369.468128 
L 321.98844 373.167967 
L 322.458305 368.7451 
L 322.693237 365.885725 
L 322.928169 371.351249 
L 323.163101 370.843627 
L 324.10283 374.910855 
L 324.337763 373.991712 
L 324.572695 372.27167 
L 324.807627 376.444198 
L 325.042559 377.300915 
L 325.277492 375.055191 
L 325.512424 375.648559 
L 325.747356 375.533458 
L 327.15695 370.266576 
L 327.391882 370.221193 
L 327.626814 367.701454 
L 327.861746 369.551861 
L 328.331611 374.013209 
L 328.801475 370.53793 
L 329.036408 368.860227 
L 329.27134 372.125536 
L 329.506272 375.208402 
L 330.211069 371.574128 
L 330.680933 371.418572 
L 331.150798 374.25686 
L 331.620662 367.624795 
L 332.325459 369.254129 
L 332.560391 368.419249 
L 332.795323 369.583124 
L 333.265188 368.957965 
L 333.969985 376.655268 
L 334.439849 372.055281 
L 335.144646 367.064798 
L 335.61451 367.306213 
L 337.024104 378.535632 
L 337.728901 375.082901 
L 337.963833 374.745035 
L 339.138494 378.398825 
L 339.843291 377.40519 
L 340.78302 368.476586 
L 341.252884 368.800837 
L 341.957681 369.823972 
L 342.192613 368.130556 
L 342.662478 372.016366 
L 344.072071 378.096152 
L 344.541936 378.48743 
L 345.0118 377.493098 
L 345.481665 377.001103 
L 345.951529 378.509712 
L 347.596055 366.93818 
L 348.065919 367.199415 
L 348.770716 374.584865 
L 349.005648 373.631373 
L 350.18031 366.360446 
L 350.415242 367.961741 
L 350.885106 366.441741 
L 351.589903 364.250648 
L 352.059767 369.61257 
L 352.529632 369.174331 
L 352.764564 366.203343 
L 352.999496 372.010094 
L 353.939225 376.785098 
L 354.174158 370.846778 
L 355.113887 371.797574 
L 355.583751 367.170496 
L 355.818683 369.405049 
L 356.053616 373.931111 
L 356.758412 372.824634 
L 358.402938 368.714742 
L 359.812532 378.30744 
L 360.282396 377.721467 
L 361.926922 368.892553 
L 362.396786 370.789113 
L 362.866651 372.968516 
L 363.101583 369.384758 
L 363.80638 364.753741 
L 364.276244 365.736553 
L 364.746109 368.123197 
L 366.155702 356.314243 
L 366.390634 360.880968 
L 367.095431 355.449736 
L 367.330363 360.566784 
L 367.565296 358.800963 
L 367.800228 359.173979 
L 369.679686 376.053714 
L 370.384483 373.628506 
L 371.559144 368.408534 
L 371.794076 367.744675 
L 372.029008 369.677728 
L 373.438602 377.500606 
L 372.498873 367.765657 
L 373.673534 374.476816 
L 375.787924 369.784569 
L 376.022856 365.022075 
L 376.962585 365.702608 
L 377.197518 364.872082 
L 377.43245 365.210298 
L 378.607111 373.610553 
L 379.311908 365.661865 
L 379.781772 370.254067 
L 380.486569 371.669318 
L 380.721501 371.159997 
L 381.426298 364.28613 
L 381.896162 367.722648 
L 382.366027 366.058386 
L 383.305756 367.758081 
L 385.655078 378.487328 
L 386.124943 375.339018 
L 386.594807 377.457869 
L 387.064672 378.478094 
L 387.534536 377.537556 
L 388.239333 377.976766 
L 389.648927 372.651377 
L 390.118791 370.801964 
L 390.353723 373.761272 
L 391.293452 361.288967 
L 391.763317 366.529631 
L 391.998249 368.0359 
L 392.233181 366.8179 
L 393.642775 355.621414 
L 395.2873 366.18541 
L 395.757165 367.167948 
L 397.871555 352.004965 
L 399.046216 357.76162 
L 399.751013 360.455159 
L 399.985945 358.722469 
L 400.220878 357.411776 
L 400.45581 360.59783 
L 401.160607 369.682041 
L 401.630471 364.128918 
L 402.5702 360.109934 
L 402.805132 361.491271 
L 403.274997 364.535431 
L 403.509929 360.355115 
L 403.744861 361.370822 
L 404.214726 361.743573 
L 404.449658 357.759882 
L 405.859251 371.765543 
L 406.094184 370.886109 
L 406.329116 372.402248 
L 406.79898 377.033157 
L 407.503777 376.014003 
L 408.678438 370.418358 
L 409.148303 371.071972 
L 409.383235 377.557274 
L 409.8531 370.557054 
L 410.088032 370.714935 
L 410.322964 370.474429 
L 410.557896 372.483805 
L 411.027761 369.066305 
L 411.262693 370.175778 
L 411.497625 369.501309 
L 412.437354 362.976679 
L 413.846948 369.537543 
L 414.316812 372.475746 
L 415.021609 370.780503 
L 416.666135 362.911551 
L 416.901067 365.968969 
L 417.135999 365.862327 
L 417.840796 366.045288 
L 418.31066 360.52517 
L 419.955186 370.861017 
L 421.599712 366.423981 
L 422.069576 375.541505 
L 423.009305 370.914064 
L 423.47917 370.42662 
L 424.183966 374.174752 
L 425.358628 360.994859 
L 425.59356 363.070142 
L 426.768221 373.001604 
L 427.003153 368.35381 
L 427.238086 368.88683 
L 427.70795 364.115755 
L 428.412747 365.27186 
L 429.117544 365.24817 
L 429.352476 364.785152 
L 430.057273 363.343804 
L 430.997002 370.819922 
L 431.231934 369.723073 
L 431.466866 368.848141 
L 432.171663 375.677671 
L 432.641527 372.212418 
L 432.87646 367.533884 
L 433.581256 371.64168 
L 433.816188 374.099223 
L 434.286053 370.45811 
L 434.520985 372.054442 
L 434.99085 372.726637 
L 435.225782 375.709556 
L 435.695646 370.658378 
L 435.930579 370.374445 
L 436.635375 361.380759 
L 436.870308 364.349627 
L 437.10524 367.768378 
L 437.810037 365.045544 
L 438.044969 365.871391 
L 438.279901 364.623574 
L 438.749766 364.954863 
L 438.984698 362.707937 
L 439.454562 366.439023 
L 439.924427 365.913509 
L 441.33402 377.676186 
L 441.803885 375.358916 
L 442.038817 373.858771 
L 442.273749 378.288842 
L 442.978546 374.211609 
L 443.213478 373.907742 
L 443.918275 378.498299 
L 444.153207 378.027139 
L 444.623072 373.482402 
L 445.092936 377.306484 
L 446.50253 372.964195 
L 446.972394 367.950563 
L 447.442259 373.352178 
L 447.912123 373.70757 
L 448.381988 371.94948 
L 448.851852 377.913843 
L 449.321717 374.193559 
L 449.556649 371.701472 
L 450.026513 375.946841 
L 450.261446 376.174611 
L 450.496378 378.259165 
L 450.73131 376.096738 
L 450.966242 372.398211 
L 451.436107 376.78831 
L 451.671039 378.167316 
L 451.905971 374.730418 
L 452.375836 368.888039 
L 452.610768 374.161343 
L 453.080633 378.554512 
L 453.550497 375.295778 
L 454.490226 378.362733 
L 455.899819 365.060516 
L 456.134752 370.786372 
L 456.369684 370.272172 
L 456.604616 371.733205 
L 456.839548 374.695204 
L 457.309413 369.912076 
L 457.779277 361.317395 
L 458.249142 363.992516 
L 458.719006 365.226984 
L 458.953939 363.922017 
L 459.188871 363.514301 
L 459.423803 359.937507 
L 459.893668 364.337995 
L 460.1286 363.685504 
L 460.363532 365.470037 
L 460.598464 361.459294 
L 460.833397 360.279906 
L 461.068329 363.27322 
L 462.712855 376.369217 
L 462.947787 374.919716 
L 463.887516 369.015551 
L 464.122448 372.811391 
L 464.592312 365.999725 
L 465.062177 361.762832 
L 465.297109 366.458633 
L 466.236838 373.938055 
L 466.47177 371.711276 
L 466.941635 371.894493 
L 467.176567 369.752339 
L 467.881364 372.141164 
L 468.116296 372.828515 
L 468.586161 377.59736 
L 469.056025 374.161724 
L 469.52589 372.065042 
L 469.760822 372.63646 
L 470.700551 366.408073 
L 472.110144 373.347844 
L 472.814941 373.840357 
L 473.75467 365.919678 
L 474.224535 366.411431 
L 474.694399 368.811476 
L 474.929331 365.343205 
L 475.399196 364.507393 
L 475.86906 365.688479 
L 476.103992 367.25574 
L 476.338925 365.154072 
L 476.573857 361.431862 
L 477.043721 365.460019 
L 477.278654 367.034932 
L 477.513586 362.724379 
L 477.748518 365.824649 
L 477.98345 362.829604 
L 478.453315 367.739111 
L 478.923179 367.414619 
L 479.627976 365.459226 
L 480.097841 371.612401 
L 480.567705 366.017832 
L 481.03757 366.775803 
L 482.682095 373.465425 
L 482.917028 373.8597 
L 483.15196 376.580259 
L 483.621824 371.490558 
L 484.091689 373.278795 
L 485.031418 377.459707 
L 485.736214 372.089437 
L 485.971147 373.421996 
L 486.206079 378.162461 
L 486.910876 372.329795 
L 487.850605 377.609413 
L 488.085537 375.517692 
L 489.260198 367.62572 
L 489.49513 367.656011 
L 490.199927 372.395484 
L 490.669792 370.75051 
L 490.904724 370.210019 
L 491.374588 374.987443 
L 492.079385 373.430894 
L 492.314317 369.334044 
L 492.784182 373.691508 
L 493.488979 377.356864 
L 494.66364 371.366562 
L 494.898572 371.462534 
L 495.368437 378.308622 
L 495.838301 376.643846 
L 497.012962 362.161001 
L 497.247894 362.659536 
L 497.482827 365.405745 
L 497.952691 360.051934 
L 498.187623 358.877255 
L 498.422556 360.053099 
L 498.89242 364.493894 
L 499.127352 361.329303 
L 500.771878 351.762224 
L 501.476675 352.855824 
L 501.241743 350.900669 
L 501.711607 351.947815 
L 501.946539 348.811623 
L 502.416404 353.568969 
L 502.651336 353.365246 
L 502.886268 356.358332 
L 503.356133 352.597395 
L 503.825997 349.068865 
L 504.06093 354.128001 
L 504.295862 353.338601 
L 504.530794 354.417521 
L 506.17532 361.512585 
L 506.645184 353.722431 
L 507.115049 358.98914 
L 507.584913 361.119292 
L 508.054778 357.166801 
L 508.28971 362.659547 
L 509.229439 374.994868 
L 509.699303 372.057656 
L 509.934236 371.344649 
L 510.169168 372.695713 
L 510.639032 376.752821 
L 511.108897 375.923562 
L 511.813694 372.660499 
L 512.048626 374.80861 
L 512.283558 374.520301 
L 512.753423 377.956305 
L 513.223287 374.365164 
L 514.632881 378.40532 
L 515.102745 375.601998 
L 515.57261 378.044824 
L 516.042474 378.269549 
L 519.80139 353.935335 
L 521.210983 361.014495 
L 520.506187 353.171495 
L 521.445916 359.414972 
L 523.090441 350.665849 
L 523.325374 353.03653 
L 523.560306 355.052309 
L 523.795238 351.984116 
L 524.500035 349.055641 
L 524.265103 353.170777 
L 524.734967 350.958182 
L 525.204832 353.070999 
L 525.439764 351.102153 
L 525.674696 350.446178 
L 527.789086 369.499355 
L 528.258951 368.791503 
L 529.433612 374.854934 
L 530.138409 372.584449 
L 531.078138 363.276546 
L 531.782934 365.958411 
L 532.252799 372.303439 
L 532.722663 367.148142 
L 533.42746 363.854947 
L 533.897325 364.847038 
L 535.54185 373.826874 
L 535.776783 374.043467 
L 536.246647 378.402196 
L 536.951444 376.327538 
L 537.186376 373.175282 
L 537.891173 375.85493 
L 538.361037 370.951849 
L 538.830902 373.924502 
L 539.535698 378.446883 
L 539.770631 376.250496 
L 540.240495 376.98198 
L 540.475427 378.426612 
L 540.945292 376.393908 
L 542.82475 361.868387 
L 543.294614 355.213873 
L 543.764479 361.236773 
L 543.999411 364.564616 
L 544.469276 359.721204 
L 544.469276 359.721204 
" clip-path="url(#pc897efe1c0)" style="fill: none; stroke: #e41a1c; stroke-width: 2; stroke-linecap: square"/>
   </g>
   <g id="patch_6">
    <path d="M 51.111563 386.275937 
L 51.111563 218.036094 
" style="fill: none; stroke: #7f7f7f; stroke-width: 1.8; stroke-linejoin: miter; stroke-linecap: square"/>
   </g>
   <g id="patch_7">
    <path d="M 51.111563 386.275937 
L 567.9625 386.275937 
" style="fill: none; stroke: #7f7f7f; stroke-width: 1.8; stroke-linejoin: miter; stroke-linecap: square"/>
   </g>
  </g>
 </g>
 <defs>
  <clipPath id="pe58413459b">
   <rect x="51.111563" y="22.318125" width="516.850937" height="168.239844"/>
  </clipPath>
  <clipPath id="pc897efe1c0">
   <rect x="51.111563" y="218.036094" width="516.850937" height="168.239844"/>
  </clipPath>
 </defs>
</svg>
