<?xml version="1.0" encoding="utf-8" standalone="no"?>
<!DOCTYPE svg PUBLIC "-//W3C//DTD SVG 1.1//EN"
  "http://www.w3.org/Graphics/SVG/1.1/DTD/svg11.dtd">
<svg xmlns:xlink="http://www.w3.org/1999/xlink" width="568.8pt" height="424.8pt" viewBox="0 0 568.8 424.8" xmlns="http://www.w3.org/2000/svg" version="1.1">
 <metadata>
  <rdf:RDF xmlns:dc="http://purl.org/dc/elements/1.1/" xmlns:cc="http://creativecommons.org/ns#" xmlns:rdf="http://www.w3.org/1999/02/22-rdf-syntax-ns#">
   <cc:Work>
    <dc:type rdf:resource="http://purl.org/dc/dcmitype/StillImage"/>
    <dc:date>2026-06-15T08:20:05.898080</dc:date>
    <dc:format>image/svg+xml</dc:format>
    <dc:creator>
     <cc:Agent>
      <dc:title>Matplotlib v3.11.0, https://matplotlib.org/</dc:title>
     </cc:Agent>
    </dc:creator>
   </cc:Work>
  </rdf:RDF>
 </metadata>
 <defs>
  <style type="text/css">*{stroke-linejoin: round; stroke-linecap: butt}</style>
 </defs>
 <g id="figure_1">
  <g id="patch_1">
   <path d="M 0 424.8 
L 568.8 424.8 
L 568.8 0 
L 0 0 
L 0 424.8 
z
" style="fill: none"/>
  </g>
  <g id="axes_1">
   <g id="patch_2">
    <path d="M 45.103984 188.48272 
L 561.6 188.48272 
L 561.6 22.318125 
L 45.103984 22.318125 
L 45.103984 188.48272 
z
" style="fill: none"/>
   </g>
   <g id="matplotlib.axis_1">
    <g id="xtick_1">
     <g id="line2d_1">
      <defs>
       <path id="mc79244c0bc" d="M 0 0 
L 0 3.5 
" style="stroke: #7f7f7f; stroke-width: 1.8"/>
      </defs>
      <g>
       <use xlink:href="#mc79244c0bc" x="68.581076" y="188.48272" style="fill: #7f7f7f; stroke: #7f7f7f; stroke-width: 1.8"/>
      </g>
     </g>
     <g id="text_1">
      <!-- 0.0 -->
      <g style="fill: #7f7f7f" transform="translate(60.629513 203.080376) scale(0.1 -0.1)">
       <defs>
        <path id="DejaVuSans-13" d="M 2034 4250 
Q 1547 4250 1301 3770 
Q 1056 3291 1056 2328 
Q 1056 1369 1301 889 
Q 1547 409 2034 409 
Q 2525 409 2770 889 
Q 3016 1369 3016 2328 
Q 3016 3291 2770 3770 
Q 2525 4250 2034 4250 
z
M 2034 4750 
Q 2819 4750 3233 4129 
Q 3647 3509 3647 2328 
Q 3647 1150 3233 529 
Q 2819 -91 2034 -91 
Q 1250 -91 836 529 
Q 422 1150 422 2328 
Q 422 3509 836 4129 
Q 1250 4750 2034 4750 
z
" transform="scale(0.015625)"/>
        <path id="DejaVuSans-11" d="M 684 794 
L 1344 794 
L 1344 0 
L 684 0 
L 684 794 
z
" transform="scale(0.015625)"/>
       </defs>
       <use xlink:href="#DejaVuSans-13"/>
       <use xlink:href="#DejaVuSans-11" transform="translate(63.625 0)"/>
       <use xlink:href="#DejaVuSans-13" transform="translate(95.40625 0)"/>
      </g>
     </g>
    </g>
    <g id="xtick_2">
     <g id="line2d_2">
      <g>
       <use xlink:href="#mc79244c0bc" x="127.273805" y="188.48272" style="fill: #7f7f7f; stroke: #7f7f7f; stroke-width: 1.8"/>
      </g>
     </g>
     <g id="text_2">
      <!-- 2.5 -->
      <g style="fill: #7f7f7f" transform="translate(119.322243 203.080376) scale(0.1 -0.1)">
       <defs>
        <path id="DejaVuSans-15" d="M 1228 531 
L 3431 531 
L 3431 0 
L 469 0 
L 469 531 
Q 828 903 1448 1529 
Q 2069 2156 2228 2338 
Q 2531 2678 2651 2914 
Q 2772 3150 2772 3378 
Q 2772 3750 2511 3984 
Q 2250 4219 1831 4219 
Q 1534 4219 1204 4116 
Q 875 4013 500 3803 
L 500 4441 
Q 881 4594 1212 4672 
Q 1544 4750 1819 4750 
Q 2544 4750 2975 4387 
Q 3406 4025 3406 3419 
Q 3406 3131 3298 2873 
Q 3191 2616 2906 2266 
Q 2828 2175 2409 1742 
Q 1991 1309 1228 531 
z
" transform="scale(0.015625)"/>
        <path id="DejaVuSans-18" d="M 691 4666 
L 3169 4666 
L 3169 4134 
L 1269 4134 
L 1269 2991 
Q 1406 3038 1543 3061 
Q 1681 3084 1819 3084 
Q 2600 3084 3056 2656 
Q 3513 2228 3513 1497 
Q 3513 744 3044 326 
Q 2575 -91 1722 -91 
Q 1428 -91 1123 -41 
Q 819 9 494 109 
L 494 744 
Q 775 591 1075 516 
Q 1375 441 1709 441 
Q 2250 441 2565 725 
Q 2881 1009 2881 1497 
Q 2881 1984 2565 2268 
Q 2250 2553 1709 2553 
Q 1456 2553 1204 2497 
Q 953 2441 691 2322 
L 691 4666 
z
" transform="scale(0.015625)"/>
       </defs>
       <use xlink:href="#DejaVuSans-15"/>
       <use xlink:href="#DejaVuSans-11" transform="translate(63.625 0)"/>
       <use xlink:href="#DejaVuSans-18" transform="translate(95.40625 0)"/>
      </g>
     </g>
    </g>
    <g id="xtick_3">
     <g id="line2d_3">
      <g>
       <use xlink:href="#mc79244c0bc" x="185.966534" y="188.48272" style="fill: #7f7f7f; stroke: #7f7f7f; stroke-width: 1.8"/>
      </g>
     </g>
     <g id="text_3">
      <!-- 5.0 -->
      <g style="fill: #7f7f7f" transform="translate(178.014972 203.080376) scale(0.1 -0.1)">
       <use xlink:href="#DejaVuSans-18"/>
       <use xlink:href="#DejaVuSans-11" transform="translate(63.625 0)"/>
       <use xlink:href="#DejaVuSans-13" transform="translate(95.40625 0)"/>
      </g>
     </g>
    </g>
    <g id="xtick_4">
     <g id="line2d_4">
      <g>
       <use xlink:href="#mc79244c0bc" x="244.659263" y="188.48272" style="fill: #7f7f7f; stroke: #7f7f7f; stroke-width: 1.8"/>
      </g>
     </g>
     <g id="text_4">
      <!-- 7.5 -->
      <g style="fill: #7f7f7f" transform="translate(236.707701 203.080376) scale(0.1 -0.1)">
       <defs>
        <path id="DejaVuSans-1a" d="M 525 4666 
L 3525 4666 
L 3525 4397 
L 1831 0 
L 1172 0 
L 2766 4134 
L 525 4134 
L 525 4666 
z
" transform="scale(0.015625)"/>
       </defs>
       <use xlink:href="#DejaVuSans-1a"/>
       <use xlink:href="#DejaVuSans-11" transform="translate(63.625 0)"/>
       <use xlink:href="#DejaVuSans-18" transform="translate(95.40625 0)"/>
      </g>
     </g>
    </g>
    <g id="xtick_5">
     <g id="line2d_5">
      <g>
       <use xlink:href="#mc79244c0bc" x="303.351992" y="188.48272" style="fill: #7f7f7f; stroke: #7f7f7f; stroke-width: 1.8"/>
      </g>
     </g>
     <g id="text_5">
      <!-- 10.0 -->
      <g style="fill: #7f7f7f" transform="translate(292.21918 203.080376) scale(0.1 -0.1)">
       <defs>
        <path id="DejaVuSans-14" d="M 794 531 
L 1825 531 
L 1825 4091 
L 703 3866 
L 703 4441 
L 1819 4666 
L 2450 4666 
L 2450 531 
L 3481 531 
L 3481 0 
L 794 0 
L 794 531 
z
" transform="scale(0.015625)"/>
       </defs>
       <use xlink:href="#DejaVuSans-14"/>
       <use xlink:href="#DejaVuSans-13" transform="translate(63.625 0)"/>
       <use xlink:href="#DejaVuSans-11" transform="translate(127.25 0)"/>
       <use xlink:href="#DejaVuSans-13" transform="translate(159.03125 0)"/>
      </g>
     </g>
    </g>
    <g id="xtick_6">
     <g id="line2d_6">
      <g>
       <use xlink:href="#mc79244c0bc" x="362.044721" y="188.48272" style="fill: #7f7f7f; stroke: #7f7f7f; stroke-width: 1.8"/>
      </g>
     </g>
     <g id="text_6">
      <!-- 12.5 -->
      <g style="fill: #7f7f7f" transform="translate(350.911909 203.080376) scale(0.1 -0.1)">
       <use xlink:href="#DejaVuSans-14"/>
       <use xlink:href="#DejaVuSans-15" transform="translate(63.625 0)"/>
       <use xlink:href="#DejaVuSans-11" transform="translate(127.25 0)"/>
       <use xlink:href="#DejaVuSans-18" transform="translate(159.03125 0)"/>
      </g>
     </g>
    </g>
    <g id="xtick_7">
     <g id="line2d_7">
      <g>
       <use xlink:href="#mc79244c0bc" x="420.73745" y="188.48272" style="fill: #7f7f7f; stroke: #7f7f7f; stroke-width: 1.8"/>
      </g>
     </g>
     <g id="text_7">
      <!-- 15.0 -->
      <g style="fill: #7f7f7f" transform="translate(409.604638 203.080376) scale(0.1 -0.1)">
       <use xlink:href="#DejaVuSans-14"/>
       <use xlink:href="#DejaVuSans-18" transform="translate(63.625 0)"/>
       <use xlink:href="#DejaVuSans-11" transform="translate(127.25 0)"/>
       <use xlink:href="#DejaVuSans-13" transform="translate(159.03125 0)"/>
      </g>
     </g>
    </g>
    <g id="xtick_8">
     <g id="line2d_8">
      <g>
       <use xlink:href="#mc79244c0bc" x="479.430179" y="188.48272" style="fill: #7f7f7f; stroke: #7f7f7f; stroke-width: 1.8"/>
      </g>
     </g>
     <g id="text_8">
      <!-- 17.5 -->
      <g style="fill: #7f7f7f" transform="translate(468.297367 203.080376) scale(0.1 -0.1)">
       <use xlink:href="#DejaVuSans-14"/>
       <use xlink:href="#DejaVuSans-1a" transform="translate(63.625 0)"/>
       <use xlink:href="#DejaVuSans-11" transform="translate(127.25 0)"/>
       <use xlink:href="#DejaVuSans-18" transform="translate(159.03125 0)"/>
      </g>
     </g>
    </g>
    <g id="xtick_9">
     <g id="line2d_9">
      <g>
       <use xlink:href="#mc79244c0bc" x="538.122908" y="188.48272" style="fill: #7f7f7f; stroke: #7f7f7f; stroke-width: 1.8"/>
      </g>
     </g>
     <g id="text_9">
      <!-- 20.0 -->
      <g style="fill: #7f7f7f" transform="translate(526.990096 203.080376) scale(0.1 -0.1)">
       <use xlink:href="#DejaVuSans-15"/>
       <use xlink:href="#DejaVuSans-13" transform="translate(63.625 0)"/>
       <use xlink:href="#DejaVuSans-11" transform="translate(127.25 0)"/>
       <use xlink:href="#DejaVuSans-13" transform="translate(159.03125 0)"/>
      </g>
     </g>
    </g>
   </g>
   <g id="matplotlib.axis_2">
    <g id="ytick_1">
     <g id="line2d_10">
      <defs>
       <path id="m0521a051b4" d="M 0 0 
L -3.5 0 
" style="stroke: #7f7f7f; stroke-width: 1.8"/>
      </defs>
      <g>
       <use xlink:href="#m0521a051b4" x="45.103984" y="180.929784" style="fill: #7f7f7f; stroke: #7f7f7f; stroke-width: 1.8"/>
      </g>
     </g>
     <g id="text_10">
      <!-- 0.0 -->
      <g style="fill: #7f7f7f" transform="translate(22.200859 184.728612) scale(0.1 -0.1)">
       <use xlink:href="#DejaVuSans-13"/>
       <use xlink:href="#DejaVuSans-11" transform="translate(63.625 0)"/>
       <use xlink:href="#DejaVuSans-13" transform="translate(95.40625 0)"/>
      </g>
     </g>
    </g>
    <g id="ytick_2">
     <g id="line2d_11">
      <g>
       <use xlink:href="#m0521a051b4" x="45.103984" y="156.711421" style="fill: #7f7f7f; stroke: #7f7f7f; stroke-width: 1.8"/>
      </g>
     </g>
     <g id="text_11">
      <!-- 0.1 -->
      <g style="fill: #7f7f7f" transform="translate(22.200859 160.510249) scale(0.1 -0.1)">
       <use xlink:href="#DejaVuSans-13"/>
       <use xlink:href="#DejaVuSans-11" transform="translate(63.625 0)"/>
       <use xlink:href="#DejaVuSans-14" transform="translate(95.40625 0)"/>
      </g>
     </g>
    </g>
    <g id="ytick_3">
     <g id="line2d_12">
      <g>
       <use xlink:href="#m0521a051b4" x="45.103984" y="132.493058" style="fill: #7f7f7f; stroke: #7f7f7f; stroke-width: 1.8"/>
      </g>
     </g>
     <g id="text_12">
      <!-- 0.2 -->
      <g style="fill: #7f7f7f" transform="translate(22.200859 136.291886) scale(0.1 -0.1)">
       <use xlink:href="#DejaVuSans-13"/>
       <use xlink:href="#DejaVuSans-11" transform="translate(63.625 0)"/>
       <use xlink:href="#DejaVuSans-15" transform="translate(95.40625 0)"/>
      </g>
     </g>
    </g>
    <g id="ytick_4">
     <g id="line2d_13">
      <g>
       <use xlink:href="#m0521a051b4" x="45.103984" y="108.274694" style="fill: #7f7f7f; stroke: #7f7f7f; stroke-width: 1.8"/>
      </g>
     </g>
     <g id="text_13">
      <!-- 0.3 -->
      <g style="fill: #7f7f7f" transform="translate(22.200859 112.073523) scale(0.1 -0.1)">
       <defs>
        <path id="DejaVuSans-16" d="M 2597 2516 
Q 3050 2419 3304 2112 
Q 3559 1806 3559 1356 
Q 3559 666 3084 287 
Q 2609 -91 1734 -91 
Q 1441 -91 1130 -33 
Q 819 25 488 141 
L 488 750 
Q 750 597 1062 519 
Q 1375 441 1716 441 
Q 2309 441 2620 675 
Q 2931 909 2931 1356 
Q 2931 1769 2642 2001 
Q 2353 2234 1838 2234 
L 1294 2234 
L 1294 2753 
L 1863 2753 
Q 2328 2753 2575 2939 
Q 2822 3125 2822 3475 
Q 2822 3834 2567 4026 
Q 2313 4219 1838 4219 
Q 1578 4219 1281 4162 
Q 984 4106 628 3988 
L 628 4550 
Q 988 4650 1302 4700 
Q 1616 4750 1894 4750 
Q 2613 4750 3031 4423 
Q 3450 4097 3450 3541 
Q 3450 3153 3228 2886 
Q 3006 2619 2597 2516 
z
" transform="scale(0.015625)"/>
       </defs>
       <use xlink:href="#DejaVuSans-13"/>
       <use xlink:href="#DejaVuSans-11" transform="translate(63.625 0)"/>
       <use xlink:href="#DejaVuSans-16" transform="translate(95.40625 0)"/>
      </g>
     </g>
    </g>
    <g id="ytick_5">
     <g id="line2d_14">
      <g>
       <use xlink:href="#m0521a051b4" x="45.103984" y="84.056331" style="fill: #7f7f7f; stroke: #7f7f7f; stroke-width: 1.8"/>
      </g>
     </g>
     <g id="text_14">
      <!-- 0.4 -->
      <g style="fill: #7f7f7f" transform="translate(22.200859 87.85516) scale(0.1 -0.1)">
       <defs>
        <path id="DejaVuSans-17" d="M 2419 4116 
L 825 1625 
L 2419 1625 
L 2419 4116 
z
M 2253 4666 
L 3047 4666 
L 3047 1625 
L 3713 1625 
L 3713 1100 
L 3047 1100 
L 3047 0 
L 2419 0 
L 2419 1100 
L 313 1100 
L 313 1709 
L 2253 4666 
z
" transform="scale(0.015625)"/>
       </defs>
       <use xlink:href="#DejaVuSans-13"/>
       <use xlink:href="#DejaVuSans-11" transform="translate(63.625 0)"/>
       <use xlink:href="#DejaVuSans-17" transform="translate(95.40625 0)"/>
      </g>
     </g>
    </g>
    <g id="ytick_6">
     <g id="line2d_15">
      <g>
       <use xlink:href="#m0521a051b4" x="45.103984" y="59.837968" style="fill: #7f7f7f; stroke: #7f7f7f; stroke-width: 1.8"/>
      </g>
     </g>
     <g id="text_15">
      <!-- 0.5 -->
      <g style="fill: #7f7f7f" transform="translate(22.200859 63.636797) scale(0.1 -0.1)">
       <use xlink:href="#DejaVuSans-13"/>
       <use xlink:href="#DejaVuSans-11" transform="translate(63.625 0)"/>
       <use xlink:href="#DejaVuSans-18" transform="translate(95.40625 0)"/>
      </g>
     </g>
    </g>
    <g id="ytick_7">
     <g id="line2d_16">
      <g>
       <use xlink:href="#m0521a051b4" x="45.103984" y="35.619605" style="fill: #7f7f7f; stroke: #7f7f7f; stroke-width: 1.8"/>
      </g>
     </g>
     <g id="text_16">
      <!-- 0.6 -->
      <g style="fill: #7f7f7f" transform="translate(22.200859 39.418434) scale(0.1 -0.1)">
       <defs>
        <path id="DejaVuSans-19" d="M 2113 2584 
Q 1688 2584 1439 2293 
Q 1191 2003 1191 1497 
Q 1191 994 1439 701 
Q 1688 409 2113 409 
Q 2538 409 2786 701 
Q 3034 994 3034 1497 
Q 3034 2003 2786 2293 
Q 2538 2584 2113 2584 
z
M 3366 4563 
L 3366 3988 
Q 3128 4100 2886 4159 
Q 2644 4219 2406 4219 
Q 1781 4219 1451 3797 
Q 1122 3375 1075 2522 
Q 1259 2794 1537 2939 
Q 1816 3084 2150 3084 
Q 2853 3084 3261 2657 
Q 3669 2231 3669 1497 
Q 3669 778 3244 343 
Q 2819 -91 2113 -91 
Q 1303 -91 875 529 
Q 447 1150 447 2328 
Q 447 3434 972 4092 
Q 1497 4750 2381 4750 
Q 2619 4750 2861 4703 
Q 3103 4656 3366 4563 
z
" transform="scale(0.015625)"/>
       </defs>
       <use xlink:href="#DejaVuSans-13"/>
       <use xlink:href="#DejaVuSans-11" transform="translate(63.625 0)"/>
       <use xlink:href="#DejaVuSans-19" transform="translate(95.40625 0)"/>
      </g>
     </g>
    </g>
    <g id="text_17">
     <!-- Position Error [m] -->
     <g style="fill: #7f7f7f" transform="translate(15.558281 153.365579) rotate(-90) scale(0.11 -0.11)">
      <defs>
       <path id="DejaVuSans-33" d="M 1259 4147 
L 1259 2394 
L 2053 2394 
Q 2494 2394 2734 2622 
Q 2975 2850 2975 3272 
Q 2975 3691 2734 3919 
Q 2494 4147 2053 4147 
L 1259 4147 
z
M 628 4666 
L 2053 4666 
Q 2838 4666 3239 4311 
Q 3641 3956 3641 3272 
Q 3641 2581 3239 2228 
Q 2838 1875 2053 1875 
L 1259 1875 
L 1259 0 
L 628 0 
L 628 4666 
z
" transform="scale(0.015625)"/>
       <path id="DejaVuSans-52" d="M 1959 3097 
Q 1497 3097 1228 2736 
Q 959 2375 959 1747 
Q 959 1119 1226 758 
Q 1494 397 1959 397 
Q 2419 397 2687 759 
Q 2956 1122 2956 1747 
Q 2956 2369 2687 2733 
Q 2419 3097 1959 3097 
z
M 1959 3584 
Q 2709 3584 3137 3096 
Q 3566 2609 3566 1747 
Q 3566 888 3137 398 
Q 2709 -91 1959 -91 
Q 1206 -91 779 398 
Q 353 888 353 1747 
Q 353 2609 779 3096 
Q 1206 3584 1959 3584 
z
" transform="scale(0.015625)"/>
       <path id="DejaVuSans-56" d="M 2834 3397 
L 2834 2853 
Q 2591 2978 2328 3040 
Q 2066 3103 1784 3103 
Q 1356 3103 1142 2972 
Q 928 2841 928 2578 
Q 928 2378 1081 2264 
Q 1234 2150 1697 2047 
L 1894 2003 
Q 2506 1872 2764 1633 
Q 3022 1394 3022 966 
Q 3022 478 2636 193 
Q 2250 -91 1575 -91 
Q 1294 -91 989 -36 
Q 684 19 347 128 
L 347 722 
Q 666 556 975 473 
Q 1284 391 1588 391 
Q 1994 391 2212 530 
Q 2431 669 2431 922 
Q 2431 1156 2273 1281 
Q 2116 1406 1581 1522 
L 1381 1569 
Q 847 1681 609 1914 
Q 372 2147 372 2553 
Q 372 3047 722 3315 
Q 1072 3584 1716 3584 
Q 2034 3584 2315 3537 
Q 2597 3491 2834 3397 
z
" transform="scale(0.015625)"/>
       <path id="DejaVuSans-4c" d="M 603 3500 
L 1178 3500 
L 1178 0 
L 603 0 
L 603 3500 
z
M 603 4863 
L 1178 4863 
L 1178 4134 
L 603 4134 
L 603 4863 
z
" transform="scale(0.015625)"/>
       <path id="DejaVuSans-57" d="M 1172 4494 
L 1172 3500 
L 2356 3500 
L 2356 3053 
L 1172 3053 
L 1172 1153 
Q 1172 725 1289 603 
Q 1406 481 1766 481 
L 2356 481 
L 2356 0 
L 1766 0 
Q 1100 0 847 248 
Q 594 497 594 1153 
L 594 3053 
L 172 3053 
L 172 3500 
L 594 3500 
L 594 4494 
L 1172 4494 
z
" transform="scale(0.015625)"/>
       <path id="DejaVuSans-51" d="M 3513 2113 
L 3513 0 
L 2938 0 
L 2938 2094 
Q 2938 2591 2744 2837 
Q 2550 3084 2163 3084 
Q 1697 3084 1428 2787 
Q 1159 2491 1159 1978 
L 1159 0 
L 581 0 
L 581 3500 
L 1159 3500 
L 1159 2956 
Q 1366 3272 1645 3428 
Q 1925 3584 2291 3584 
Q 2894 3584 3203 3211 
Q 3513 2838 3513 2113 
z
" transform="scale(0.015625)"/>
       <path id="DejaVuSans-3" transform="scale(0.015625)"/>
       <path id="DejaVuSans-28" d="M 628 4666 
L 3578 4666 
L 3578 4134 
L 1259 4134 
L 1259 2753 
L 3481 2753 
L 3481 2222 
L 1259 2222 
L 1259 531 
L 3634 531 
L 3634 0 
L 628 0 
L 628 4666 
z
" transform="scale(0.015625)"/>
       <path id="DejaVuSans-55" d="M 2631 2963 
Q 2534 3019 2420 3045 
Q 2306 3072 2169 3072 
Q 1681 3072 1420 2755 
Q 1159 2438 1159 1844 
L 1159 0 
L 581 0 
L 581 3500 
L 1159 3500 
L 1159 2956 
Q 1341 3275 1631 3429 
Q 1922 3584 2338 3584 
Q 2397 3584 2469 3576 
Q 2541 3569 2628 3553 
L 2631 2963 
z
" transform="scale(0.015625)"/>
       <path id="DejaVuSans-3e" d="M 550 4863 
L 1875 4863 
L 1875 4416 
L 1125 4416 
L 1125 -397 
L 1875 -397 
L 1875 -844 
L 550 -844 
L 550 4863 
z
" transform="scale(0.015625)"/>
       <path id="DejaVuSans-50" d="M 3328 2828 
Q 3544 3216 3844 3400 
Q 4144 3584 4550 3584 
Q 5097 3584 5394 3201 
Q 5691 2819 5691 2113 
L 5691 0 
L 5113 0 
L 5113 2094 
Q 5113 2597 4934 2840 
Q 4756 3084 4391 3084 
Q 3944 3084 3684 2787 
Q 3425 2491 3425 1978 
L 3425 0 
L 2847 0 
L 2847 2094 
Q 2847 2600 2669 2842 
Q 2491 3084 2119 3084 
Q 1678 3084 1418 2786 
Q 1159 2488 1159 1978 
L 1159 0 
L 581 0 
L 581 3500 
L 1159 3500 
L 1159 2956 
Q 1356 3278 1631 3431 
Q 1906 3584 2284 3584 
Q 2666 3584 2933 3390 
Q 3200 3197 3328 2828 
z
" transform="scale(0.015625)"/>
       <path id="DejaVuSans-40" d="M 1947 4863 
L 1947 -844 
L 622 -844 
L 622 -397 
L 1369 -397 
L 1369 4416 
L 622 4416 
L 622 4863 
L 1947 4863 
z
" transform="scale(0.015625)"/>
      </defs>
      <use xlink:href="#DejaVuSans-33"/>
      <use xlink:href="#DejaVuSans-52" transform="translate(56.734375 0)"/>
      <use xlink:href="#DejaVuSans-56" transform="translate(117.921875 0)"/>
      <use xlink:href="#DejaVuSans-4c" transform="translate(170.015625 0)"/>
      <use xlink:href="#DejaVuSans-57" transform="translate(197.796875 0)"/>
      <use xlink:href="#DejaVuSans-4c" transform="translate(237 0)"/>
      <use xlink:href="#DejaVuSans-52" transform="translate(264.78125 0)"/>
      <use xlink:href="#DejaVuSans-51" transform="translate(325.96875 0)"/>
      <use xlink:href="#DejaVuSans-3" transform="translate(389.34375 0)"/>
      <use xlink:href="#DejaVuSans-28" transform="translate(421.125 0)"/>
      <use xlink:href="#DejaVuSans-55" transform="translate(484.3125 0)"/>
      <use xlink:href="#DejaVuSans-55" transform="translate(523.671875 0)"/>
      <use xlink:href="#DejaVuSans-52" transform="translate(562.578125 0)"/>
      <use xlink:href="#DejaVuSans-55" transform="translate(623.765625 0)"/>
      <use xlink:href="#DejaVuSans-3" transform="translate(664.875 0)"/>
      <use xlink:href="#DejaVuSans-3e" transform="translate(696.65625 0)"/>
      <use xlink:href="#DejaVuSans-50" transform="translate(735.671875 0)"/>
      <use xlink:href="#DejaVuSans-40" transform="translate(833.078125 0)"/>
     </g>
    </g>
   </g>
   <g id="line2d_17">
    <path d="M 68.581076 180.929784 
L 68.815847 176.086111 
L 69.285389 29.871061 
L 69.754931 103.940633 
L 70.928785 166.777708 
L 71.163556 163.459919 
L 71.398327 161.772805 
L 71.867869 179.584668 
L 72.10264 166.337765 
L 72.806952 135.296391 
L 73.276494 143.079428 
L 74.919891 165.286725 
L 76.563287 118.210712 
L 76.798058 119.255326 
L 77.032829 119.421558 
L 77.2676 123.375145 
L 77.502371 99.630554 
L 78.206684 116.171516 
L 78.676225 141.065638 
L 79.145767 128.105724 
L 79.615309 110.830609 
L 79.85008 137.75218 
L 80.554393 179.369833 
L 81.258705 171.502791 
L 81.493476 172.28527 
L 81.728247 178.757697 
L 82.43256 176.96751 
L 82.667331 166.0861 
L 83.371644 178.593234 
L 84.310727 179.792219 
L 85.484582 173.015976 
L 85.01504 180.547206 
L 85.719353 173.682194 
L 85.954124 173.479142 
L 87.59752 141.867403 
L 88.536604 149.149602 
L 88.771375 147.504292 
L 89.006146 149.763477 
L 89.240917 134.850804 
L 89.945229 141.251798 
L 90.414771 159.980409 
L 90.884313 155.105199 
L 91.588626 145.591501 
L 91.823397 146.376899 
L 92.997251 172.436045 
L 93.232022 171.854363 
L 93.701564 162.829181 
L 93.936335 163.391025 
L 95.11019 179.94008 
L 95.814502 178.318271 
L 96.049273 180.715661 
L 96.753586 177.659828 
L 96.988357 171.386036 
L 97.457899 180.189535 
L 97.69267 177.643016 
L 97.927441 180.521338 
L 98.162211 174.782445 
L 98.396982 165.313867 
L 98.866524 171.5107 
L 99.101295 180.064832 
L 99.805608 177.983394 
L 100.040379 177.565728 
L 100.27515 178.037582 
L 100.509921 180.479232 
L 100.744692 175.886761 
L 101.214233 169.442816 
L 101.683775 174.905901 
L 101.918546 177.473549 
L 102.388088 168.405199 
L 102.85763 178.871353 
L 103.327172 180.166031 
L 103.561943 172.702194 
L 104.031484 180.2414 
L 104.501026 172.947807 
L 105.205339 179.388809 
L 106.379194 166.328143 
L 107.553048 138.899795 
L 108.02259 147.603055 
L 108.726903 143.707297 
L 108.961674 156.066625 
L 109.900757 143.411812 
L 110.135528 145.025504 
L 111.309383 171.52489 
L 111.544154 160.973415 
L 112.718008 147.825407 
L 112.952779 157.950958 
L 113.657092 146.298834 
L 113.891863 146.155855 
L 114.126634 148.94294 
L 114.596176 148.560153 
L 114.830946 142.413664 
L 115.065717 149.484497 
L 115.535259 147.526284 
L 115.77003 148.344814 
L 116.239572 157.783753 
L 116.474343 151.744641 
L 117.648197 137.794106 
L 118.117739 149.001717 
L 118.587281 143.725309 
L 119.056823 133.957543 
L 119.291594 135.096877 
L 119.761136 157.488809 
L 120.465448 154.703227 
L 120.700219 147.588935 
L 121.404532 152.565778 
L 122.813158 171.658597 
L 123.047929 169.634099 
L 123.51747 174.134233 
L 123.752241 179.481581 
L 124.456554 173.359817 
L 125.160867 165.639608 
L 125.86518 167.019783 
L 126.09995 171.683012 
L 126.569492 164.045465 
L 127.039034 170.631637 
L 127.508576 178.622691 
L 127.978118 174.962228 
L 128.682431 157.911009 
L 129.151972 166.662071 
L 129.386743 168.276029 
L 129.856285 154.917444 
L 130.325827 162.414068 
L 130.560598 163.696002 
L 130.795369 163.513972 
L 131.03014 156.626748 
L 131.499682 164.69488 
L 131.734452 162.977709 
L 131.969223 166.055634 
L 132.438765 159.323024 
L 132.908307 165.951769 
L 133.847391 149.42238 
L 134.082162 151.14404 
L 134.316933 149.536477 
L 134.786474 161.040275 
L 135.256016 151.451825 
L 135.960329 157.232086 
L 137.603725 176.366047 
L 137.838496 175.902416 
L 138.073267 179.085801 
L 138.308038 174.179487 
L 139.012351 168.168694 
L 139.247122 173.897167 
L 139.481893 173.24965 
L 139.716664 174.318579 
L 140.420976 178.941202 
L 141.125289 178.814755 
L 141.829602 173.070183 
L 142.064373 179.302865 
L 142.299144 178.714232 
L 143.238227 161.860451 
L 143.472998 171.402684 
L 143.707769 167.791943 
L 143.94254 173.331683 
L 144.412082 172.357225 
L 144.646853 173.22931 
L 144.881624 179.487788 
L 145.351166 171.502228 
L 146.055478 159.701001 
L 146.52502 162.307857 
L 146.994562 162.535298 
L 147.933646 139.865975 
L 148.637958 147.870932 
L 150.516126 170.416737 
L 151.220438 171.728572 
L 151.455209 168.383895 
L 151.68998 177.704699 
L 152.394293 175.642709 
L 153.802919 163.318 
L 154.27246 169.206277 
L 154.976773 172.860302 
L 155.211544 165.98132 
L 155.681086 174.053157 
L 156.150628 167.559027 
L 156.385399 165.922755 
L 156.62017 170.303526 
L 156.85494 177.967763 
L 157.324482 167.229179 
L 158.733108 149.247386 
L 158.967879 157.382309 
L 159.906962 156.833676 
L 160.141733 155.915482 
L 160.376504 156.392577 
L 161.315588 173.71405 
L 161.550359 170.076353 
L 162.019901 170.156097 
L 162.254672 179.336378 
L 162.724213 168.79031 
L 162.958984 166.283595 
L 163.193755 173.13535 
L 163.663297 178.442548 
L 164.132839 173.101418 
L 164.602381 172.537747 
L 166.011006 180.76128 
L 166.715319 171.25156 
L 167.184861 172.065414 
L 167.654403 164.551705 
L 167.889174 171.1701 
L 169.063028 179.868198 
L 168.358715 169.991667 
L 169.297799 176.848911 
L 169.53257 173.287176 
L 169.767341 179.924854 
L 170.002112 179.338505 
L 170.706425 180.219734 
L 171.175966 171.052693 
L 171.410737 166.013622 
L 171.645508 171.787538 
L 171.880279 177.701444 
L 172.349821 169.856652 
L 172.584592 176.81168 
L 172.819363 175.966137 
L 173.054134 167.962351 
L 173.523676 177.830955 
L 173.758446 179.919959 
L 174.227988 179.202046 
L 175.167072 164.381454 
L 175.401843 170.54444 
L 176.575697 157.45547 
L 177.28001 159.989585 
L 177.514781 162.417645 
L 177.749552 157.434925 
L 179.158178 140.692018 
L 180.801574 133.283422 
L 181.036345 134.002789 
L 181.271116 129.084243 
L 181.740658 129.939816 
L 182.914512 142.57289 
L 183.149283 141.391583 
L 184.79268 162.311528 
L 185.02745 159.042747 
L 185.731763 141.494689 
L 185.966534 152.771932 
L 186.436076 151.076566 
L 188.079472 174.184387 
L 188.314243 174.033378 
L 189.018556 167.285306 
L 189.488098 170.19719 
L 189.722869 175.730358 
L 190.427181 169.218843 
L 190.896723 163.685138 
L 191.366265 167.68868 
L 193.244432 178.63017 
L 193.479203 177.902979 
L 194.887829 157.719202 
L 196.061683 171.091996 
L 196.296454 169.75624 
L 197.470309 162.366872 
L 197.70508 163.441519 
L 197.939851 165.950011 
L 198.174622 165.475022 
L 199.348476 149.427009 
L 200.522331 177.549201 
L 200.991873 172.872183 
L 201.461415 179.06195 
L 201.930956 176.285499 
L 202.165727 175.92598 
L 203.574353 142.385635 
L 203.809124 150.165669 
L 204.043895 139.712098 
L 204.278666 144.626553 
L 204.513436 137.2004 
L 205.45252 137.695988 
L 206.391604 148.880948 
L 206.626375 148.757261 
L 208.035 139.115297 
L 209.678397 159.016295 
L 208.504542 139.008964 
L 210.147938 158.056649 
L 211.321793 138.049165 
L 211.791335 141.845853 
L 213.669502 164.690212 
L 213.904273 158.861658 
L 214.373815 164.583358 
L 216.017211 180.805996 
L 216.486753 180.206597 
L 217.425837 166.642442 
L 217.660608 172.508706 
L 217.895379 180.896995 
L 218.364921 170.247285 
L 218.599691 172.790638 
L 219.069233 170.082752 
L 219.538775 163.581376 
L 220.008317 169.993615 
L 221.416942 179.715525 
L 222.590797 172.471314 
L 222.825568 171.620174 
L 223.060339 165.799286 
L 223.764652 171.779015 
L 223.999423 171.8557 
L 224.938506 178.543885 
L 225.87759 155.060395 
L 226.112361 159.762805 
L 227.755757 176.881903 
L 228.694841 168.861141 
L 229.164383 169.937543 
L 230.573008 179.356554 
L 231.277321 180.086637 
L 232.216405 167.814319 
L 232.451175 161.588121 
L 232.920717 170.36823 
L 233.155488 170.142921 
L 234.329343 178.864244 
L 236.20751 168.894075 
L 236.442281 172.556089 
L 236.677052 164.473103 
L 237.381365 152.882507 
L 237.616136 159.412666 
L 238.555219 176.725759 
L 239.024761 176.370487 
L 239.259532 175.442534 
L 239.494303 176.801141 
L 239.963845 174.885608 
L 240.668158 180.302582 
L 241.37247 171.969557 
L 241.842012 175.621067 
L 242.076783 174.766275 
L 242.546325 165.329253 
L 243.015867 171.616086 
L 243.485409 165.817157 
L 243.720179 170.728974 
L 244.659263 179.243068 
L 244.189721 167.879909 
L 244.894034 177.528728 
L 246.53743 161.932214 
L 247.711285 180.553034 
L 248.180827 175.19624 
L 249.589452 149.89047 
L 249.824223 149.722122 
L 251.46762 165.70912 
L 251.702391 163.453174 
L 251.937162 170.212961 
L 252.171932 169.408082 
L 252.876245 179.311544 
L 253.345787 175.878678 
L 254.284871 180.606476 
L 253.815329 174.807895 
L 254.519642 178.534435 
L 254.989183 174.519245 
L 255.458725 178.271911 
L 255.693496 178.345333 
L 256.63258 160.899214 
L 256.867351 171.553566 
L 257.806434 171.019024 
L 258.745518 169.375789 
L 258.980289 177.870059 
L 259.21506 180.867194 
L 259.449831 173.543609 
L 259.684602 168.041195 
L 260.154144 172.883051 
L 260.388915 180.456489 
L 261.093227 175.972707 
L 262.267082 160.71942 
L 264.145249 180.634997 
L 265.788646 166.365449 
L 266.258187 180.186981 
L 266.9625 175.332165 
L 268.371126 156.3293 
L 268.605897 159.371316 
L 270.718835 138.271055 
L 270.953606 139.744769 
L 271.188377 141.891677 
L 271.423148 154.028947 
L 271.892689 131.292783 
L 272.12746 129.263253 
L 272.362231 132.88588 
L 272.597002 139.437521 
L 273.301315 135.415347 
L 274.475169 125.667643 
L 274.70994 131.695253 
L 274.944711 132.649218 
L 275.414253 145.894602 
L 275.883795 138.974341 
L 276.118566 131.195598 
L 276.588108 145.558377 
L 277.05765 152.909842 
L 277.527191 145.151478 
L 278.466275 147.555106 
L 278.701046 157.513858 
L 279.170588 146.756527 
L 279.405359 147.568427 
L 280.813984 162.791376 
L 281.283526 154.7328 
L 281.518297 160.015318 
L 282.457381 159.146721 
L 283.161693 175.39991 
L 283.866006 176.407517 
L 284.100777 169.967617 
L 285.274632 178.501133 
L 285.978944 171.560185 
L 285.744173 179.406494 
L 286.213715 174.121972 
L 286.448486 179.982557 
L 286.918028 173.525756 
L 287.152799 176.453225 
L 287.38757 176.072948 
L 288.326654 180.62058 
L 288.561424 170.186766 
L 289.265737 176.419104 
L 289.500508 176.178212 
L 291.613446 154.893473 
L 292.55253 171.154683 
L 292.787301 164.055743 
L 293.256843 165.090993 
L 293.961156 157.503713 
L 295.13501 172.975461 
L 297.013177 161.35008 
L 297.952261 172.265104 
L 298.421803 170.031607 
L 298.891345 170.61809 
L 300.29997 149.758333 
L 302.412909 165.504577 
L 302.647679 163.616976 
L 302.88245 166.426395 
L 303.117221 174.82703 
L 304.056305 174.755597 
L 304.291076 165.713363 
L 304.995389 173.793113 
L 305.23016 180.275751 
L 305.934472 177.863568 
L 306.169243 172.823533 
L 306.638785 180.774814 
L 306.873556 176.996198 
L 307.108327 177.115982 
L 308.282181 167.381529 
L 308.516952 163.683291 
L 308.751723 172.042539 
L 308.986494 170.907514 
L 309.221265 172.160167 
L 309.456036 171.802335 
L 309.690807 169.186581 
L 309.925578 175.313919 
L 310.160349 175.842901 
L 311.334203 165.748778 
L 311.568974 168.34681 
L 312.273287 180.383151 
L 313.212371 178.262284 
L 313.447142 165.021332 
L 314.151454 180.883056 
L 315.090538 165.517605 
L 315.56008 168.309606 
L 315.794851 168.727553 
L 317.203476 180.876347 
L 317.907789 173.489039 
L 318.377331 176.217813 
L 318.612102 171.908531 
L 319.316414 177.233223 
L 320.72504 172.672859 
L 321.194582 180.927461 
L 321.898895 179.786545 
L 323.072749 167.432792 
L 323.777062 172.124176 
L 324.011833 174.927123 
L 324.246604 167.329439 
L 324.716146 161.646023 
L 324.950916 169.264464 
L 325.420458 171.435189 
L 325.655229 163.156629 
L 326.124771 179.278196 
L 327.533397 168.248125 
L 327.768167 176.94145 
L 328.47248 168.977191 
L 328.707251 165.870015 
L 328.942022 172.528687 
L 330.350648 180.77713 
L 332.228815 165.594877 
L 332.463586 170.224486 
L 333.167899 180.497634 
L 334.341753 179.181373 
L 334.811295 169.991862 
L 335.280837 176.652463 
L 336.21992 180.759574 
L 338.332859 154.584936 
L 339.037171 162.010838 
L 339.741484 159.058304 
L 340.445797 160.329641 
L 341.15011 153.857193 
L 342.089193 171.634474 
L 342.323964 168.099769 
L 342.793506 162.013198 
L 343.028277 168.41007 
L 343.967361 180.559814 
L 344.436903 178.923161 
L 344.671673 180.062316 
L 345.141215 178.410637 
L 346.080299 173.771787 
L 346.31507 178.735039 
L 347.019383 177.361322 
L 347.254154 170.573564 
L 347.958466 177.468171 
L 348.193237 179.588165 
L 348.662779 177.131113 
L 348.89755 176.383047 
L 349.132321 180.094785 
L 349.367092 178.944885 
L 349.836634 165.351372 
L 350.306175 176.502474 
L 350.775717 180.56798 
L 351.245259 180.263886 
L 351.714801 180.596547 
L 352.653885 169.625793 
L 353.123426 171.686231 
L 353.358197 168.225583 
L 353.592968 162.56134 
L 354.06251 171.384504 
L 354.532052 174.748697 
L 354.766823 169.731533 
L 355.001594 169.345803 
L 355.471136 173.54379 
L 355.940677 170.445876 
L 357.114532 161.550207 
L 358.288387 177.140222 
L 358.757928 167.860288 
L 359.462241 169.92569 
L 359.697012 173.727877 
L 360.166554 168.979731 
L 360.401325 163.05771 
L 360.870867 167.667046 
L 361.575179 174.315504 
L 361.80995 171.904164 
L 362.044721 168.861176 
L 362.279492 173.065465 
L 362.749034 178.813582 
L 363.218576 176.00793 
L 363.453347 174.903106 
L 363.688118 176.214852 
L 363.922889 175.672787 
L 364.157659 176.960369 
L 364.39243 173.453834 
L 364.861972 163.235694 
L 365.331514 170.482355 
L 365.566285 174.489993 
L 366.035827 166.939752 
L 366.270598 166.175337 
L 367.209681 171.660843 
L 368.148765 160.741265 
L 368.383536 161.669311 
L 369.087849 157.516312 
L 368.853078 161.844452 
L 369.32262 158.584318 
L 369.557391 162.12424 
L 369.792161 156.814649 
L 370.261703 158.951807 
L 370.966016 156.443294 
L 371.200787 165.885806 
L 371.9051 161.96925 
L 372.609412 158.525692 
L 372.844183 160.245572 
L 374.957122 173.075576 
L 375.426663 170.63507 
L 375.661434 174.17047 
L 376.130976 177.57491 
L 376.365747 177.131075 
L 376.835289 170.236413 
L 377.07006 180.602689 
L 377.304831 173.980547 
L 378.243914 180.559118 
L 378.478685 180.110693 
L 379.417769 174.6195 
L 379.65254 179.201225 
L 379.887311 173.621056 
L 380.356853 175.79562 
L 380.591624 172.472384 
L 381.061165 178.880869 
L 381.530707 179.384491 
L 382.469791 169.944806 
L 382.704562 180.643071 
L 383.408875 169.411124 
L 384.582729 147.326316 
L 385.287042 147.222521 
L 385.991355 153.702598 
L 386.226126 155.572958 
L 387.39998 141.799529 
L 388.104293 150.96839 
L 388.339064 149.837117 
L 388.573835 146.01367 
L 389.043377 152.112477 
L 389.278148 152.509683 
L 391.391086 129.74599 
L 391.860628 137.743234 
L 392.095399 142.602259 
L 392.330169 133.15623 
L 392.56494 135.626122 
L 392.799711 136.390433 
L 393.269253 125.44003 
L 393.973566 128.140934 
L 394.443108 139.552347 
L 395.14742 136.023014 
L 396.086504 120.903753 
L 396.321275 126.398086 
L 396.556046 125.85541 
L 396.790817 121.605698 
L 397.260359 126.617311 
L 398.434213 134.89754 
L 398.668984 134.141803 
L 402.190548 174.125002 
L 402.66009 163.426215 
L 403.129632 147.636928 
L 403.833944 155.628127 
L 405.007799 176.883763 
L 405.24257 175.255174 
L 405.477341 176.479053 
L 405.712112 171.189569 
L 406.181653 179.774543 
L 406.416424 178.26606 
L 407.355508 166.00358 
L 408.059821 178.68279 
L 408.529363 172.358668 
L 408.998904 172.807143 
L 410.642301 147.23197 
L 411.346614 171.835376 
L 412.050926 158.782662 
L 412.99001 165.494725 
L 412.520468 157.02725 
L 413.224781 162.614242 
L 413.459552 156.018583 
L 413.929094 163.846368 
L 415.57249 179.851056 
L 415.807261 177.411165 
L 416.276803 161.700628 
L 416.746345 169.601609 
L 417.685428 180.736029 
L 418.15497 178.077055 
L 418.624512 180.615623 
L 418.859283 177.012591 
L 419.094054 177.31924 
L 419.328825 176.822488 
L 419.798367 172.641508 
L 420.502679 180.698338 
L 421.206992 178.868153 
L 421.441763 179.389934 
L 421.676534 180.800554 
L 422.146076 166.546354 
L 422.615618 176.152097 
L 423.31993 179.717811 
L 423.085159 173.514386 
L 424.024243 178.561402 
L 424.259014 178.717652 
L 425.66764 160.930432 
L 425.90241 162.327004 
L 426.841494 180.329793 
L 427.076265 175.863857 
L 427.545807 176.047115 
L 428.25012 167.053367 
L 429.189203 180.737762 
L 429.893516 176.889528 
L 430.8326 161.276652 
L 431.536912 170.237174 
L 432.241225 180.261273 
L 432.475996 179.695467 
L 433.649851 169.321044 
L 433.884622 172.622223 
L 434.119393 162.911546 
L 434.354163 162.147921 
L 434.823705 180.119005 
L 435.528018 176.311053 
L 435.762789 176.668947 
L 436.467102 177.67399 
L 436.701873 173.76371 
L 437.406185 180.238298 
L 437.875727 179.068846 
L 438.814811 170.617623 
L 439.049582 178.865535 
L 439.753894 174.941676 
L 440.223436 180.570126 
L 440.692978 174.674429 
L 440.927749 172.295738 
L 441.16252 177.098924 
L 441.632062 180.494528 
L 441.866833 178.630031 
L 442.336375 170.332708 
L 443.040687 172.710613 
L 443.275458 173.542611 
L 444.214542 156.854714 
L 444.449313 158.138947 
L 445.153626 167.818326 
L 445.623167 165.855461 
L 446.32748 152.640124 
L 446.797022 157.658665 
L 447.736106 146.594469 
L 448.90996 160.999706 
L 449.144731 159.458594 
L 450.083815 178.914972 
L 450.553357 174.918163 
L 450.788128 179.214918 
L 451.257669 171.372565 
L 451.49244 172.214029 
L 451.727211 167.214336 
L 452.196753 175.909663 
L 452.431524 178.597602 
L 452.666295 174.874831 
L 452.901066 169.238642 
L 453.370608 180.541179 
L 453.605379 175.618761 
L 453.840149 172.735409 
L 454.544462 174.133181 
L 455.718317 180.027003 
L 455.953088 180.677303 
L 457.126942 173.329936 
L 457.361713 177.592774 
L 457.831255 172.054996 
L 458.066026 170.175852 
L 458.535568 172.71101 
L 458.770339 172.495489 
L 459.00511 172.226351 
L 459.944193 161.22027 
L 460.413735 165.32134 
L 460.883277 179.715613 
L 461.58759 174.885851 
L 461.822361 175.538019 
L 462.057132 179.677126 
L 462.526673 170.967394 
L 462.761444 170.175859 
L 463.700528 180.77809 
L 463.935299 176.432463 
L 464.17007 179.955696 
L 464.404841 173.348858 
L 464.639612 170.435167 
L 465.109153 176.734892 
L 465.578695 177.299354 
L 465.813466 176.454608 
L 466.048237 176.319528 
L 466.75255 156.967281 
L 467.222092 164.830253 
L 467.456863 168.163846 
L 467.926404 162.941322 
L 468.395946 165.408675 
L 469.100259 156.082028 
L 469.804572 161.120214 
L 471.213197 148.823554 
L 471.447968 143.336635 
L 471.682739 150.438479 
L 473.091365 179.763442 
L 473.326136 171.907144 
L 474.030448 177.938499 
L 474.49999 177.233278 
L 475.673845 167.124782 
L 475.908616 170.043104 
L 476.378157 163.85672 
L 476.612928 165.298174 
L 477.08247 153.572214 
L 477.552012 161.641956 
L 478.256325 159.096209 
L 478.725867 166.745247 
L 480.604034 136.321189 
L 480.838805 136.229805 
L 481.777888 145.909282 
L 482.24743 139.941983 
L 482.951743 142.017297 
L 483.186514 136.596767 
L 483.890827 147.993981 
L 484.360369 146.773818 
L 484.82991 143.269636 
L 485.064681 145.66114 
L 486.238536 168.990268 
L 486.473307 163.006986 
L 486.942849 169.567628 
L 487.647161 164.623175 
L 488.116703 159.906899 
L 488.351474 161.4347 
L 489.055787 177.473883 
L 489.525329 172.946706 
L 490.464412 159.057928 
L 490.699183 168.475142 
L 490.933954 177.130163 
L 491.403496 168.46502 
L 492.812122 139.980998 
L 493.985976 147.206291 
L 494.690289 153.398982 
L 496.568456 170.8297 
L 496.803227 167.758985 
L 497.272769 164.756325 
L 497.50754 167.017857 
L 497.977082 152.45758 
L 498.681394 160.595567 
L 499.620478 168.513188 
L 499.855249 166.417811 
L 500.324791 165.430419 
L 500.794333 145.627087 
L 501.498645 150.903758 
L 501.733416 153.044239 
L 502.6725 180.565838 
L 502.907271 176.349505 
L 503.142042 175.911732 
L 504.785438 152.19305 
L 505.020209 157.987565 
L 505.25498 156.983425 
L 506.194064 141.1781 
L 506.428835 146.128303 
L 506.663606 147.120295 
L 506.898377 144.83412 
L 507.602689 143.068414 
L 508.072231 158.160462 
L 508.776544 153.689943 
L 510.41994 165.910818 
L 510.654711 165.271496 
L 511.359024 166.470704 
L 511.124253 164.80288 
L 511.593795 164.8622 
L 513.00242 152.526942 
L 513.237191 154.037728 
L 513.471962 149.445246 
L 513.706733 150.866861 
L 515.35013 112.912802 
L 515.819671 117.125355 
L 516.054442 121.332519 
L 516.289213 116.965799 
L 516.993526 120.863796 
L 517.228297 119.404311 
L 517.463068 119.813073 
L 518.167381 128.544417 
L 518.402151 128.50161 
L 519.106464 120.059552 
L 519.341235 124.468181 
L 521.219402 147.937185 
L 521.454173 147.817671 
L 522.158486 143.178655 
L 522.393257 147.690328 
L 523.332341 156.509049 
L 524.036653 142.426694 
L 524.271424 147.528391 
L 525.68005 173.61856 
L 525.914821 168.57911 
L 526.384363 172.605974 
L 526.619133 169.332557 
L 526.853904 165.549339 
L 527.088675 171.043987 
L 527.323446 175.777868 
L 527.558217 170.080687 
L 527.792988 161.697464 
L 528.497301 172.221722 
L 528.732072 168.25842 
L 528.966843 170.940452 
L 529.201614 178.402722 
L 530.140697 177.117158 
L 530.610239 178.578507 
L 531.079781 161.222236 
L 531.549323 165.56751 
L 531.784094 172.821303 
L 532.018865 164.974343 
L 532.488406 165.173171 
L 532.723177 164.473417 
L 532.957948 166.289187 
L 533.662261 162.064631 
L 533.897032 173.242207 
L 536.244741 132.618421 
L 536.714283 140.043754 
L 537.183825 134.714916 
L 537.418596 136.272138 
L 537.653367 134.298103 
L 537.888137 131.548798 
L 538.122908 138.344321 
L 538.122908 138.344321 
" clip-path="url(#p32522bf172)" style="fill: none; stroke: #e41a1c; stroke-width: 2; stroke-linecap: square"/>
   </g>
   <g id="patch_3">
    <path d="M 45.103984 188.48272 
L 45.103984 22.318125 
" style="fill: none; stroke: #7f7f7f; stroke-width: 1.8; stroke-linejoin: miter; stroke-linecap: square"/>
   </g>
   <g id="patch_4">
    <path d="M 45.103984 188.48272 
L 561.6 188.48272 
" style="fill: none; stroke: #7f7f7f; stroke-width: 1.8; stroke-linejoin: miter; stroke-linecap: square"/>
   </g>
   <g id="text_18">
    <!-- Kalman Filter Estimation Error -->
    <g style="fill: #7f7f7f" transform="translate(200.338555 16.318125) scale(0.12 -0.12)">
     <defs>
      <path id="DejaVuSans-Bold-2e" d="M 588 4666 
L 1791 4666 
L 1791 2963 
L 3525 4666 
L 4922 4666 
L 2675 2456 
L 5153 0 
L 3647 0 
L 1791 1838 
L 1791 0 
L 588 0 
L 588 4666 
z
" transform="scale(0.015625)"/>
      <path id="DejaVuSans-Bold-44" d="M 2106 1575 
Q 1756 1575 1579 1456 
Q 1403 1338 1403 1106 
Q 1403 894 1545 773 
Q 1688 653 1941 653 
Q 2256 653 2472 879 
Q 2688 1106 2688 1447 
L 2688 1575 
L 2106 1575 
z
M 3816 1997 
L 3816 0 
L 2688 0 
L 2688 519 
Q 2463 200 2181 54 
Q 1900 -91 1497 -91 
Q 953 -91 614 226 
Q 275 544 275 1050 
Q 275 1666 698 1953 
Q 1122 2241 2028 2241 
L 2688 2241 
L 2688 2328 
Q 2688 2594 2478 2717 
Q 2269 2841 1825 2841 
Q 1466 2841 1156 2769 
Q 847 2697 581 2553 
L 581 3406 
Q 941 3494 1303 3539 
Q 1666 3584 2028 3584 
Q 2975 3584 3395 3211 
Q 3816 2838 3816 1997 
z
" transform="scale(0.015625)"/>
      <path id="DejaVuSans-Bold-4f" d="M 538 4863 
L 1656 4863 
L 1656 0 
L 538 0 
L 538 4863 
z
" transform="scale(0.015625)"/>
      <path id="DejaVuSans-Bold-50" d="M 3781 2919 
Q 3994 3244 4286 3414 
Q 4578 3584 4928 3584 
Q 5531 3584 5847 3212 
Q 6163 2841 6163 2131 
L 6163 0 
L 5038 0 
L 5038 1825 
Q 5041 1866 5042 1909 
Q 5044 1953 5044 2034 
Q 5044 2406 4934 2573 
Q 4825 2741 4581 2741 
Q 4263 2741 4089 2478 
Q 3916 2216 3909 1719 
L 3909 0 
L 2784 0 
L 2784 1825 
Q 2784 2406 2684 2573 
Q 2584 2741 2328 2741 
Q 2006 2741 1831 2477 
Q 1656 2213 1656 1722 
L 1656 0 
L 531 0 
L 531 3500 
L 1656 3500 
L 1656 2988 
Q 1863 3284 2130 3434 
Q 2397 3584 2719 3584 
Q 3081 3584 3359 3409 
Q 3638 3234 3781 2919 
z
" transform="scale(0.015625)"/>
      <path id="DejaVuSans-Bold-51" d="M 4056 2131 
L 4056 0 
L 2931 0 
L 2931 347 
L 2931 1631 
Q 2931 2084 2911 2256 
Q 2891 2428 2841 2509 
Q 2775 2619 2662 2680 
Q 2550 2741 2406 2741 
Q 2056 2741 1856 2470 
Q 1656 2200 1656 1722 
L 1656 0 
L 538 0 
L 538 3500 
L 1656 3500 
L 1656 2988 
Q 1909 3294 2193 3439 
Q 2478 3584 2822 3584 
Q 3428 3584 3742 3212 
Q 4056 2841 4056 2131 
z
" transform="scale(0.015625)"/>
      <path id="DejaVuSans-Bold-3" transform="scale(0.015625)"/>
      <path id="DejaVuSans-Bold-29" d="M 588 4666 
L 3834 4666 
L 3834 3756 
L 1791 3756 
L 1791 2888 
L 3713 2888 
L 3713 1978 
L 1791 1978 
L 1791 0 
L 588 0 
L 588 4666 
z
" transform="scale(0.015625)"/>
      <path id="DejaVuSans-Bold-4c" d="M 538 3500 
L 1656 3500 
L 1656 0 
L 538 0 
L 538 3500 
z
M 538 4863 
L 1656 4863 
L 1656 3950 
L 538 3950 
L 538 4863 
z
" transform="scale(0.015625)"/>
      <path id="DejaVuSans-Bold-57" d="M 1759 4494 
L 1759 3500 
L 2913 3500 
L 2913 2700 
L 1759 2700 
L 1759 1216 
Q 1759 972 1856 886 
Q 1953 800 2241 800 
L 2816 800 
L 2816 0 
L 1856 0 
Q 1194 0 917 276 
Q 641 553 641 1216 
L 641 2700 
L 84 2700 
L 84 3500 
L 641 3500 
L 641 4494 
L 1759 4494 
z
" transform="scale(0.015625)"/>
      <path id="DejaVuSans-Bold-48" d="M 4031 1759 
L 4031 1441 
L 1416 1441 
Q 1456 1047 1700 850 
Q 1944 653 2381 653 
Q 2734 653 3104 758 
Q 3475 863 3866 1075 
L 3866 213 
Q 3469 63 3072 -14 
Q 2675 -91 2278 -91 
Q 1328 -91 801 392 
Q 275 875 275 1747 
Q 275 2603 792 3093 
Q 1309 3584 2216 3584 
Q 3041 3584 3536 3087 
Q 4031 2591 4031 1759 
z
M 2881 2131 
Q 2881 2450 2695 2645 
Q 2509 2841 2209 2841 
Q 1884 2841 1681 2658 
Q 1478 2475 1428 2131 
L 2881 2131 
z
" transform="scale(0.015625)"/>
      <path id="DejaVuSans-Bold-55" d="M 3138 2547 
Q 2991 2616 2845 2648 
Q 2700 2681 2553 2681 
Q 2122 2681 1889 2404 
Q 1656 2128 1656 1613 
L 1656 0 
L 538 0 
L 538 3500 
L 1656 3500 
L 1656 2925 
Q 1872 3269 2151 3426 
Q 2431 3584 2822 3584 
Q 2878 3584 2943 3579 
Q 3009 3575 3134 3559 
L 3138 2547 
z
" transform="scale(0.015625)"/>
      <path id="DejaVuSans-Bold-28" d="M 588 4666 
L 3834 4666 
L 3834 3756 
L 1791 3756 
L 1791 2888 
L 3713 2888 
L 3713 1978 
L 1791 1978 
L 1791 909 
L 3903 909 
L 3903 0 
L 588 0 
L 588 4666 
z
" transform="scale(0.015625)"/>
      <path id="DejaVuSans-Bold-56" d="M 3272 3391 
L 3272 2541 
Q 2913 2691 2578 2766 
Q 2244 2841 1947 2841 
Q 1628 2841 1473 2761 
Q 1319 2681 1319 2516 
Q 1319 2381 1436 2309 
Q 1553 2238 1856 2203 
L 2053 2175 
Q 2913 2066 3209 1816 
Q 3506 1566 3506 1031 
Q 3506 472 3093 190 
Q 2681 -91 1863 -91 
Q 1516 -91 1145 -36 
Q 775 19 384 128 
L 384 978 
Q 719 816 1070 734 
Q 1422 653 1784 653 
Q 2113 653 2278 743 
Q 2444 834 2444 1013 
Q 2444 1163 2330 1236 
Q 2216 1309 1875 1350 
L 1678 1375 
Q 931 1469 631 1722 
Q 331 1975 331 2491 
Q 331 3047 712 3315 
Q 1094 3584 1881 3584 
Q 2191 3584 2531 3537 
Q 2872 3491 3272 3391 
z
" transform="scale(0.015625)"/>
      <path id="DejaVuSans-Bold-52" d="M 2203 2784 
Q 1831 2784 1636 2517 
Q 1441 2250 1441 1747 
Q 1441 1244 1636 976 
Q 1831 709 2203 709 
Q 2569 709 2762 976 
Q 2956 1244 2956 1747 
Q 2956 2250 2762 2517 
Q 2569 2784 2203 2784 
z
M 2203 3584 
Q 3106 3584 3614 3096 
Q 4122 2609 4122 1747 
Q 4122 884 3614 396 
Q 3106 -91 2203 -91 
Q 1297 -91 786 396 
Q 275 884 275 1747 
Q 275 2609 786 3096 
Q 1297 3584 2203 3584 
z
" transform="scale(0.015625)"/>
     </defs>
     <use xlink:href="#DejaVuSans-Bold-2e"/>
     <use xlink:href="#DejaVuSans-Bold-44" transform="translate(77.484375 0)"/>
     <use xlink:href="#DejaVuSans-Bold-4f" transform="translate(144.96875 0)"/>
     <use xlink:href="#DejaVuSans-Bold-50" transform="translate(179.25 0)"/>
     <use xlink:href="#DejaVuSans-Bold-44" transform="translate(283.453125 0)"/>
     <use xlink:href="#DejaVuSans-Bold-51" transform="translate(350.9375 0)"/>
     <use xlink:href="#DejaVuSans-Bold-3" transform="translate(422.125 0)"/>
     <use xlink:href="#DejaVuSans-Bold-29" transform="translate(456.9375 0)"/>
     <use xlink:href="#DejaVuSans-Bold-4c" transform="translate(525.25 0)"/>
     <use xlink:href="#DejaVuSans-Bold-4f" transform="translate(559.53125 0)"/>
     <use xlink:href="#DejaVuSans-Bold-57" transform="translate(593.8125 0)"/>
     <use xlink:href="#DejaVuSans-Bold-48" transform="translate(641.609375 0)"/>
     <use xlink:href="#DejaVuSans-Bold-55" transform="translate(709.4375 0)"/>
     <use xlink:href="#DejaVuSans-Bold-3" transform="translate(758.75 0)"/>
     <use xlink:href="#DejaVuSans-Bold-28" transform="translate(793.5625 0)"/>
     <use xlink:href="#DejaVuSans-Bold-56" transform="translate(861.875 0)"/>
     <use xlink:href="#DejaVuSans-Bold-57" transform="translate(921.390625 0)"/>
     <use xlink:href="#DejaVuSans-Bold-4c" transform="translate(969.1875 0)"/>
     <use xlink:href="#DejaVuSans-Bold-50" transform="translate(1003.46875 0)"/>
     <use xlink:href="#DejaVuSans-Bold-44" transform="translate(1107.671875 0)"/>
     <use xlink:href="#DejaVuSans-Bold-57" transform="translate(1175.15625 0)"/>
     <use xlink:href="#DejaVuSans-Bold-4c" transform="translate(1222.953125 0)"/>
     <use xlink:href="#DejaVuSans-Bold-52" transform="translate(1257.234375 0)"/>
     <use xlink:href="#DejaVuSans-Bold-51" transform="translate(1325.9375 0)"/>
     <use xlink:href="#DejaVuSans-Bold-3" transform="translate(1397.125 0)"/>
     <use xlink:href="#DejaVuSans-Bold-28" transform="translate(1431.9375 0)"/>
     <use xlink:href="#DejaVuSans-Bold-55" transform="translate(1500.25 0)"/>
     <use xlink:href="#DejaVuSans-Bold-55" transform="translate(1549.5625 0)"/>
     <use xlink:href="#DejaVuSans-Bold-52" transform="translate(1598.875 0)"/>
     <use xlink:href="#DejaVuSans-Bold-55" transform="translate(1667.578125 0)"/>
    </g>
   </g>
  </g>
  <g id="axes_2">
   <g id="patch_5">
    <path d="M 45.103984 385.599141 
L 561.6 385.599141 
L 561.6 219.434546 
L 45.103984 219.434546 
L 45.103984 385.599141 
z
" style="fill: none"/>
   </g>
   <g id="matplotlib.axis_3">
    <g id="xtick_10">
     <g id="line2d_18">
      <g>
       <use xlink:href="#mc79244c0bc" x="68.581076" y="385.599141" style="fill: #7f7f7f; stroke: #7f7f7f; stroke-width: 1.8"/>
      </g>
     </g>
     <g id="text_19">
      <!-- 0.0 -->
      <g style="fill: #7f7f7f" transform="translate(60.629513 400.196797) scale(0.1 -0.1)">
       <use xlink:href="#DejaVuSans-13"/>
       <use xlink:href="#DejaVuSans-11" transform="translate(63.625 0)"/>
       <use xlink:href="#DejaVuSans-13" transform="translate(95.40625 0)"/>
      </g>
     </g>
    </g>
    <g id="xtick_11">
     <g id="line2d_19">
      <g>
       <use xlink:href="#mc79244c0bc" x="127.273805" y="385.599141" style="fill: #7f7f7f; stroke: #7f7f7f; stroke-width: 1.8"/>
      </g>
     </g>
     <g id="text_20">
      <!-- 2.5 -->
      <g style="fill: #7f7f7f" transform="translate(119.322243 400.196797) scale(0.1 -0.1)">
       <use xlink:href="#DejaVuSans-15"/>
       <use xlink:href="#DejaVuSans-11" transform="translate(63.625 0)"/>
       <use xlink:href="#DejaVuSans-18" transform="translate(95.40625 0)"/>
      </g>
     </g>
    </g>
    <g id="xtick_12">
     <g id="line2d_20">
      <g>
       <use xlink:href="#mc79244c0bc" x="185.966534" y="385.599141" style="fill: #7f7f7f; stroke: #7f7f7f; stroke-width: 1.8"/>
      </g>
     </g>
     <g id="text_21">
      <!-- 5.0 -->
      <g style="fill: #7f7f7f" transform="translate(178.014972 400.196797) scale(0.1 -0.1)">
       <use xlink:href="#DejaVuSans-18"/>
       <use xlink:href="#DejaVuSans-11" transform="translate(63.625 0)"/>
       <use xlink:href="#DejaVuSans-13" transform="translate(95.40625 0)"/>
      </g>
     </g>
    </g>
    <g id="xtick_13">
     <g id="line2d_21">
      <g>
       <use xlink:href="#mc79244c0bc" x="244.659263" y="385.599141" style="fill: #7f7f7f; stroke: #7f7f7f; stroke-width: 1.8"/>
      </g>
     </g>
     <g id="text_22">
      <!-- 7.5 -->
      <g style="fill: #7f7f7f" transform="translate(236.707701 400.196797) scale(0.1 -0.1)">
       <use xlink:href="#DejaVuSans-1a"/>
       <use xlink:href="#DejaVuSans-11" transform="translate(63.625 0)"/>
       <use xlink:href="#DejaVuSans-18" transform="translate(95.40625 0)"/>
      </g>
     </g>
    </g>
    <g id="xtick_14">
     <g id="line2d_22">
      <g>
       <use xlink:href="#mc79244c0bc" x="303.351992" y="385.599141" style="fill: #7f7f7f; stroke: #7f7f7f; stroke-width: 1.8"/>
      </g>
     </g>
     <g id="text_23">
      <!-- 10.0 -->
      <g style="fill: #7f7f7f" transform="translate(292.21918 400.196797) scale(0.1 -0.1)">
       <use xlink:href="#DejaVuSans-14"/>
       <use xlink:href="#DejaVuSans-13" transform="translate(63.625 0)"/>
       <use xlink:href="#DejaVuSans-11" transform="translate(127.25 0)"/>
       <use xlink:href="#DejaVuSans-13" transform="translate(159.03125 0)"/>
      </g>
     </g>
    </g>
    <g id="xtick_15">
     <g id="line2d_23">
      <g>
       <use xlink:href="#mc79244c0bc" x="362.044721" y="385.599141" style="fill: #7f7f7f; stroke: #7f7f7f; stroke-width: 1.8"/>
      </g>
     </g>
     <g id="text_24">
      <!-- 12.5 -->
      <g style="fill: #7f7f7f" transform="translate(350.911909 400.196797) scale(0.1 -0.1)">
       <use xlink:href="#DejaVuSans-14"/>
       <use xlink:href="#DejaVuSans-15" transform="translate(63.625 0)"/>
       <use xlink:href="#DejaVuSans-11" transform="translate(127.25 0)"/>
       <use xlink:href="#DejaVuSans-18" transform="translate(159.03125 0)"/>
      </g>
     </g>
    </g>
    <g id="xtick_16">
     <g id="line2d_24">
      <g>
       <use xlink:href="#mc79244c0bc" x="420.73745" y="385.599141" style="fill: #7f7f7f; stroke: #7f7f7f; stroke-width: 1.8"/>
      </g>
     </g>
     <g id="text_25">
      <!-- 15.0 -->
      <g style="fill: #7f7f7f" transform="translate(409.604638 400.196797) scale(0.1 -0.1)">
       <use xlink:href="#DejaVuSans-14"/>
       <use xlink:href="#DejaVuSans-18" transform="translate(63.625 0)"/>
       <use xlink:href="#DejaVuSans-11" transform="translate(127.25 0)"/>
       <use xlink:href="#DejaVuSans-13" transform="translate(159.03125 0)"/>
      </g>
     </g>
    </g>
    <g id="xtick_17">
     <g id="line2d_25">
      <g>
       <use xlink:href="#mc79244c0bc" x="479.430179" y="385.599141" style="fill: #7f7f7f; stroke: #7f7f7f; stroke-width: 1.8"/>
      </g>
     </g>
     <g id="text_26">
      <!-- 17.5 -->
      <g style="fill: #7f7f7f" transform="translate(468.297367 400.196797) scale(0.1 -0.1)">
       <use xlink:href="#DejaVuSans-14"/>
       <use xlink:href="#DejaVuSans-1a" transform="translate(63.625 0)"/>
       <use xlink:href="#DejaVuSans-11" transform="translate(127.25 0)"/>
       <use xlink:href="#DejaVuSans-18" transform="translate(159.03125 0)"/>
      </g>
     </g>
    </g>
    <g id="xtick_18">
     <g id="line2d_26">
      <g>
       <use xlink:href="#mc79244c0bc" x="538.122908" y="385.599141" style="fill: #7f7f7f; stroke: #7f7f7f; stroke-width: 1.8"/>
      </g>
     </g>
     <g id="text_27">
      <!-- 20.0 -->
      <g style="fill: #7f7f7f" transform="translate(526.990096 400.196797) scale(0.1 -0.1)">
       <use xlink:href="#DejaVuSans-15"/>
       <use xlink:href="#DejaVuSans-13" transform="translate(63.625 0)"/>
       <use xlink:href="#DejaVuSans-11" transform="translate(127.25 0)"/>
       <use xlink:href="#DejaVuSans-13" transform="translate(159.03125 0)"/>
      </g>
     </g>
    </g>
    <g id="text_28">
     <!-- Time [s] -->
     <g style="fill: #7f7f7f" transform="translate(280.987617 414.957422) scale(0.11 -0.11)">
      <defs>
       <path id="DejaVuSans-37" d="M -19 4666 
L 3928 4666 
L 3928 4134 
L 2272 4134 
L 2272 0 
L 1638 0 
L 1638 4134 
L -19 4134 
L -19 4666 
z
" transform="scale(0.015625)"/>
       <path id="DejaVuSans-48" d="M 3597 1894 
L 3597 1613 
L 953 1613 
Q 991 1019 1311 708 
Q 1631 397 2203 397 
Q 2534 397 2845 478 
Q 3156 559 3463 722 
L 3463 178 
Q 3153 47 2828 -22 
Q 2503 -91 2169 -91 
Q 1331 -91 842 396 
Q 353 884 353 1716 
Q 353 2575 817 3079 
Q 1281 3584 2069 3584 
Q 2775 3584 3186 3129 
Q 3597 2675 3597 1894 
z
M 3022 2063 
Q 3016 2534 2758 2815 
Q 2500 3097 2075 3097 
Q 1594 3097 1305 2825 
Q 1016 2553 972 2059 
L 3022 2063 
z
" transform="scale(0.015625)"/>
      </defs>
      <use xlink:href="#DejaVuSans-37"/>
      <use xlink:href="#DejaVuSans-4c" transform="translate(58 0)"/>
      <use xlink:href="#DejaVuSans-50" transform="translate(85.78125 0)"/>
      <use xlink:href="#DejaVuSans-48" transform="translate(183.1875 0)"/>
      <use xlink:href="#DejaVuSans-3" transform="translate(244.71875 0)"/>
      <use xlink:href="#DejaVuSans-3e" transform="translate(276.5 0)"/>
      <use xlink:href="#DejaVuSans-56" transform="translate(315.515625 0)"/>
      <use xlink:href="#DejaVuSans-40" transform="translate(367.609375 0)"/>
     </g>
    </g>
   </g>
   <g id="matplotlib.axis_4">
    <g id="ytick_8">
     <g id="line2d_27">
      <g>
       <use xlink:href="#m0521a051b4" x="45.103984" y="378.059927" style="fill: #7f7f7f; stroke: #7f7f7f; stroke-width: 1.8"/>
      </g>
     </g>
     <g id="text_29">
      <!-- 0.0 -->
      <g style="fill: #7f7f7f" transform="translate(22.200859 381.858755) scale(0.1 -0.1)">
       <use xlink:href="#DejaVuSans-13"/>
       <use xlink:href="#DejaVuSans-11" transform="translate(63.625 0)"/>
       <use xlink:href="#DejaVuSans-13" transform="translate(95.40625 0)"/>
      </g>
     </g>
    </g>
    <g id="ytick_9">
     <g id="line2d_28">
      <g>
       <use xlink:href="#m0521a051b4" x="45.103984" y="346.477058" style="fill: #7f7f7f; stroke: #7f7f7f; stroke-width: 1.8"/>
      </g>
     </g>
     <g id="text_30">
      <!-- 0.5 -->
      <g style="fill: #7f7f7f" transform="translate(22.200859 350.275886) scale(0.1 -0.1)">
       <use xlink:href="#DejaVuSans-13"/>
       <use xlink:href="#DejaVuSans-11" transform="translate(63.625 0)"/>
       <use xlink:href="#DejaVuSans-18" transform="translate(95.40625 0)"/>
      </g>
     </g>
    </g>
    <g id="ytick_10">
     <g id="line2d_29">
      <g>
       <use xlink:href="#m0521a051b4" x="45.103984" y="314.89419" style="fill: #7f7f7f; stroke: #7f7f7f; stroke-width: 1.8"/>
      </g>
     </g>
     <g id="text_31">
      <!-- 1.0 -->
      <g style="fill: #7f7f7f" transform="translate(22.200859 318.693018) scale(0.1 -0.1)">
       <use xlink:href="#DejaVuSans-14"/>
       <use xlink:href="#DejaVuSans-11" transform="translate(63.625 0)"/>
       <use xlink:href="#DejaVuSans-13" transform="translate(95.40625 0)"/>
      </g>
     </g>
    </g>
    <g id="ytick_11">
     <g id="line2d_30">
      <g>
       <use xlink:href="#m0521a051b4" x="45.103984" y="283.311321" style="fill: #7f7f7f; stroke: #7f7f7f; stroke-width: 1.8"/>
      </g>
     </g>
     <g id="text_32">
      <!-- 1.5 -->
      <g style="fill: #7f7f7f" transform="translate(22.200859 287.110149) scale(0.1 -0.1)">
       <use xlink:href="#DejaVuSans-14"/>
       <use xlink:href="#DejaVuSans-11" transform="translate(63.625 0)"/>
       <use xlink:href="#DejaVuSans-18" transform="translate(95.40625 0)"/>
      </g>
     </g>
    </g>
    <g id="ytick_12">
     <g id="line2d_31">
      <g>
       <use xlink:href="#m0521a051b4" x="45.103984" y="251.728452" style="fill: #7f7f7f; stroke: #7f7f7f; stroke-width: 1.8"/>
      </g>
     </g>
     <g id="text_33">
      <!-- 2.0 -->
      <g style="fill: #7f7f7f" transform="translate(22.200859 255.52728) scale(0.1 -0.1)">
       <use xlink:href="#DejaVuSans-15"/>
       <use xlink:href="#DejaVuSans-11" transform="translate(63.625 0)"/>
       <use xlink:href="#DejaVuSans-13" transform="translate(95.40625 0)"/>
      </g>
     </g>
    </g>
    <g id="ytick_13">
     <g id="line2d_32">
      <g>
       <use xlink:href="#m0521a051b4" x="45.103984" y="220.145583" style="fill: #7f7f7f; stroke: #7f7f7f; stroke-width: 1.8"/>
      </g>
     </g>
     <g id="text_34">
      <!-- 2.5 -->
      <g style="fill: #7f7f7f" transform="translate(22.200859 223.944411) scale(0.1 -0.1)">
       <use xlink:href="#DejaVuSans-15"/>
       <use xlink:href="#DejaVuSans-11" transform="translate(63.625 0)"/>
       <use xlink:href="#DejaVuSans-18" transform="translate(95.40625 0)"/>
      </g>
     </g>
    </g>
    <g id="text_35">
     <!-- Velocity Error [m/s] -->
     <g style="fill: #7f7f7f" transform="translate(15.558281 355.36239) rotate(-90) scale(0.11 -0.11)">
      <defs>
       <path id="DejaVuSans-39" d="M 1831 0 
L 50 4666 
L 709 4666 
L 2188 738 
L 3669 4666 
L 4325 4666 
L 2547 0 
L 1831 0 
z
" transform="scale(0.015625)"/>
       <path id="DejaVuSans-4f" d="M 603 4863 
L 1178 4863 
L 1178 0 
L 603 0 
L 603 4863 
z
" transform="scale(0.015625)"/>
       <path id="DejaVuSans-46" d="M 3122 3366 
L 3122 2828 
Q 2878 2963 2633 3030 
Q 2388 3097 2138 3097 
Q 1578 3097 1268 2742 
Q 959 2388 959 1747 
Q 959 1106 1268 751 
Q 1578 397 2138 397 
Q 2388 397 2633 464 
Q 2878 531 3122 666 
L 3122 134 
Q 2881 22 2623 -34 
Q 2366 -91 2075 -91 
Q 1284 -91 818 406 
Q 353 903 353 1747 
Q 353 2603 823 3093 
Q 1294 3584 2113 3584 
Q 2378 3584 2631 3529 
Q 2884 3475 3122 3366 
z
" transform="scale(0.015625)"/>
       <path id="DejaVuSans-5c" d="M 2059 -325 
Q 1816 -950 1584 -1140 
Q 1353 -1331 966 -1331 
L 506 -1331 
L 506 -850 
L 844 -850 
Q 1081 -850 1212 -737 
Q 1344 -625 1503 -206 
L 1606 56 
L 191 3500 
L 800 3500 
L 1894 763 
L 2988 3500 
L 3597 3500 
L 2059 -325 
z
" transform="scale(0.015625)"/>
       <path id="DejaVuSans-12" d="M 1625 4666 
L 2156 4666 
L 531 -594 
L 0 -594 
L 1625 4666 
z
" transform="scale(0.015625)"/>
      </defs>
      <use xlink:href="#DejaVuSans-39"/>
      <use xlink:href="#DejaVuSans-48" transform="translate(60.640625 0)"/>
      <use xlink:href="#DejaVuSans-4f" transform="translate(122.171875 0)"/>
      <use xlink:href="#DejaVuSans-52" transform="translate(149.953125 0)"/>
      <use xlink:href="#DejaVuSans-46" transform="translate(211.140625 0)"/>
      <use xlink:href="#DejaVuSans-4c" transform="translate(266.125 0)"/>
      <use xlink:href="#DejaVuSans-57" transform="translate(293.90625 0)"/>
      <use xlink:href="#DejaVuSans-5c" transform="translate(333.109375 0)"/>
      <use xlink:href="#DejaVuSans-3" transform="translate(392.296875 0)"/>
      <use xlink:href="#DejaVuSans-28" transform="translate(424.078125 0)"/>
      <use xlink:href="#DejaVuSans-55" transform="translate(487.265625 0)"/>
      <use xlink:href="#DejaVuSans-55" transform="translate(526.625 0)"/>
      <use xlink:href="#DejaVuSans-52" transform="translate(565.53125 0)"/>
      <use xlink:href="#DejaVuSans-55" transform="translate(626.71875 0)"/>
      <use xlink:href="#DejaVuSans-3" transform="translate(667.828125 0)"/>
      <use xlink:href="#DejaVuSans-3e" transform="translate(699.609375 0)"/>
      <use xlink:href="#DejaVuSans-50" transform="translate(738.625 0)"/>
      <use xlink:href="#DejaVuSans-12" transform="translate(836.03125 0)"/>
      <use xlink:href="#DejaVuSans-56" transform="translate(869.71875 0)"/>
      <use xlink:href="#DejaVuSans-40" transform="translate(921.8125 0)"/>
     </g>
    </g>
   </g>
   <g id="line2d_33">
    <path d="M 68.581076 251.728452 
L 68.815847 251.728452 
L 69.285389 254.301148 
L 69.52016 253.659729 
L 71.163556 233.235399 
L 71.398327 251.976604 
L 72.10264 240.846969 
L 72.572182 226.987482 
L 72.806952 231.389012 
L 74.919891 292.353892 
L 76.328516 269.532223 
L 76.563287 272.607113 
L 77.2676 287.611807 
L 77.502371 269.908036 
L 77.971913 288.513593 
L 81.023935 370.190004 
L 82.197789 361.091896 
L 82.43256 361.619176 
L 82.667331 355.025331 
L 83.136873 369.160614 
L 83.371644 364.181466 
L 84.075956 367.826152 
L 85.484582 363.548077 
L 85.719353 364.225623 
L 86.188895 377.451777 
L 86.893207 374.020807 
L 87.59752 367.153706 
L 88.067062 370.31529 
L 88.301833 369.472641 
L 88.536604 371.518614 
L 88.771375 370.828802 
L 89.006146 372.074354 
L 89.240917 364.914988 
L 89.945229 368.605269 
L 90.414771 377.678557 
L 90.884313 375.420008 
L 91.588626 371.259037 
L 91.823397 371.736785 
L 92.527709 377.04358 
L 92.76248 372.562261 
L 93.232022 372.927529 
L 93.701564 377.032497 
L 94.171106 371.927607 
L 95.34496 368.934231 
L 96.049273 370.215593 
L 96.284044 371.389335 
L 96.753586 369.102163 
L 96.988357 366.581359 
L 97.457899 370.637914 
L 97.69267 369.681194 
L 97.927441 371.032524 
L 98.162211 368.725653 
L 98.396982 364.887872 
L 98.866524 367.866978 
L 99.101295 372.348908 
L 99.805608 371.079019 
L 100.040379 371.016242 
L 101.214233 377.563095 
L 101.449004 376.567702 
L 102.153317 367.753329 
L 102.85763 372.570727 
L 103.327172 373.901026 
L 103.561943 370.219938 
L 103.796713 375.186024 
L 104.266255 374.652174 
L 104.501026 377.275369 
L 104.970568 372.764685 
L 105.205339 373.430105 
L 106.379194 368.554314 
L 107.553048 358.065749 
L 108.02259 362.331005 
L 108.726903 361.410837 
L 108.961674 366.858742 
L 109.900757 362.403162 
L 110.135528 363.332665 
L 111.309383 375.200184 
L 111.544154 370.808206 
L 112.718008 366.032934 
L 112.952779 370.493289 
L 113.657092 366.015027 
L 113.891863 366.14949 
L 114.596176 367.701523 
L 114.830946 365.274708 
L 115.065717 368.466889 
L 115.535259 367.991262 
L 115.77003 368.500106 
L 116.239572 372.731851 
L 116.709114 367.576294 
L 117.178656 368.821902 
L 117.413427 367.748825 
L 117.648197 365.146952 
L 118.117739 370.232852 
L 118.35251 367.883789 
L 118.587281 368.292554 
L 119.056823 364.516893 
L 119.291594 365.218895 
L 119.761136 375.029247 
L 120.465448 374.114667 
L 120.700219 371.166253 
L 121.404532 373.541491 
L 121.639303 377.435825 
L 122.343616 376.756102 
L 125.160867 365.146624 
L 125.630409 365.689853 
L 127.508576 372.466901 
L 127.978118 371.128535 
L 128.682431 364.351233 
L 129.151972 368.448101 
L 129.386743 369.287919 
L 129.856285 363.982288 
L 130.325827 367.557577 
L 130.795369 368.35303 
L 131.03014 365.593397 
L 131.499682 369.374297 
L 131.734452 368.788025 
L 132.438765 367.651099 
L 132.908307 370.781884 
L 133.847391 364.522513 
L 134.082162 365.471451 
L 134.316933 364.995057 
L 134.786474 370.244633 
L 135.490787 367.128526 
L 137.603725 378.009409 
L 137.838496 377.91331 
L 139.012351 370.995801 
L 140.420976 377.677348 
L 140.655747 375.18884 
L 141.125289 377.82377 
L 141.36006 377.068856 
L 141.829602 375.881519 
L 142.299144 377.84379 
L 143.238227 371.322737 
L 143.94254 376.396861 
L 144.412082 376.060457 
L 144.881624 376.982147 
L 146.055478 367.840748 
L 146.290249 368.328435 
L 146.994562 369.646068 
L 147.229333 368.254874 
L 147.933646 360.818735 
L 148.403187 363.352188 
L 151.220438 376.260423 
L 151.455209 374.873611 
L 151.924751 377.389424 
L 152.159522 375.455236 
L 152.394293 378.03846 
L 153.098606 376.709314 
L 153.802919 372.95982 
L 154.27246 375.582953 
L 154.976773 377.228085 
L 155.211544 374.329234 
L 155.681086 377.85043 
L 155.915857 375.980046 
L 156.385399 374.492845 
L 156.62017 376.40544 
L 156.85494 376.442738 
L 157.089711 377.752181 
L 157.324482 375.109446 
L 158.733108 368.048396 
L 159.906962 371.903378 
L 160.141733 371.614575 
L 160.376504 371.921189 
L 161.550359 377.895102 
L 162.019901 377.933568 
L 162.254672 374.297528 
L 162.958984 376.22158 
L 163.193755 376.967564 
L 163.428526 375.199909 
L 164.602381 370.621293 
L 166.245777 377.767417 
L 166.480548 377.01006 
L 166.95009 378.009503 
L 167.419632 376.892213 
L 167.654403 374.532183 
L 168.123944 377.727239 
L 168.358715 376.898053 
L 168.593486 377.699594 
L 168.828257 375.914209 
L 169.063028 375.062122 
L 169.297799 376.389083 
L 169.53257 377.924162 
L 169.767341 375.116124 
L 170.002112 375.412157 
L 170.236883 373.603725 
L 170.471654 377.379751 
L 170.706425 374.564184 
L 171.645508 377.383264 
L 171.880279 376.221792 
L 172.584592 376.591855 
L 173.054134 375.73993 
L 173.288905 377.840561 
L 173.758446 375.313962 
L 174.227988 375.699302 
L 174.462759 376.851391 
L 174.932301 375.415974 
L 175.401843 376.880394 
L 176.575697 371.579159 
L 177.514781 374.027557 
L 179.392948 365.595738 
L 181.271116 362.67791 
L 181.740658 363.508362 
L 182.914512 369.799963 
L 183.149283 369.433907 
L 184.323138 377.94342 
L 185.02745 377.320833 
L 185.731763 370.102549 
L 185.966534 375.006243 
L 186.436076 374.397337 
L 186.670847 377.770581 
L 187.37516 377.246513 
L 188.079472 372.060808 
L 188.549014 372.890061 
L 189.018556 375.308723 
L 189.488098 374.187449 
L 189.722869 371.907695 
L 190.192411 373.399492 
L 190.896723 377.356776 
L 191.366265 375.718579 
L 192.070578 371.398307 
L 192.54012 372.372397 
L 192.774891 373.875629 
L 193.009662 372.69184 
L 194.653058 363.066509 
L 194.887829 362.168879 
L 195.1226 364.089171 
L 196.061683 368.884704 
L 197.235538 368.401541 
L 198.644164 363.878573 
L 199.113705 364.791985 
L 199.348476 362.265833 
L 200.522331 374.985395 
L 200.991873 373.155974 
L 201.461415 377.475576 
L 201.930956 374.805429 
L 202.165727 374.706046 
L 203.574353 361.303053 
L 203.809124 364.868948 
L 204.043895 360.657273 
L 204.278666 363.020431 
L 204.513436 360.120501 
L 205.217749 361.041721 
L 205.45252 361.408202 
L 206.626375 367.187371 
L 206.861146 365.573091 
L 207.330687 363.730353 
L 207.565458 366.959492 
L 208.035 364.340205 
L 209.678397 373.976435 
L 210.147938 373.703702 
L 211.321793 365.82973 
L 211.791335 367.814363 
L 213.669502 377.84976 
L 213.904273 375.799009 
L 214.608586 376.607651 
L 214.843357 376.776271 
L 215.078128 376.327606 
L 216.017211 371.297003 
L 216.251982 371.834595 
L 216.486753 371.761609 
L 217.425837 377.760858 
L 217.660608 375.282073 
L 218.364921 367.458207 
L 219.069233 367.864701 
L 219.538775 365.465091 
L 219.773546 368.124173 
L 220.243088 370.381696 
L 220.947401 374.406474 
L 221.416942 373.297531 
L 222.590797 370.686191 
L 222.825568 370.445533 
L 223.060339 368.104706 
L 223.764652 371.066453 
L 223.999423 371.212442 
L 224.938506 374.386742 
L 225.87759 364.963968 
L 226.112361 367.167442 
L 227.755757 375.077916 
L 228.694841 371.960668 
L 229.164383 372.582374 
L 230.573008 376.846571 
L 231.04255 375.761196 
L 231.512092 377.889777 
L 232.451175 370.540165 
L 232.920717 374.485718 
L 233.155488 374.448346 
L 234.329343 377.831637 
L 235.503197 372.1832 
L 235.737968 372.797114 
L 236.20751 372.364833 
L 236.442281 374.007692 
L 236.677052 370.651321 
L 237.381365 366.227223 
L 237.616136 369.184018 
L 238.555219 376.815963 
L 239.024761 376.720403 
L 239.963845 374.863568 
L 240.433387 376.092545 
L 240.668158 377.264952 
L 241.137699 375.334144 
L 241.37247 374.847628 
L 241.607241 376.837278 
L 242.076783 376.129565 
L 242.546325 372.253523 
L 243.015867 375.06723 
L 243.485409 372.716606 
L 243.720179 374.882892 
L 244.189721 373.736708 
L 244.894034 377.933338 
L 245.598347 371.450629 
L 246.30266 371.955619 
L 246.53743 371.807685 
L 248.180827 377.658051 
L 249.589452 367.533267 
L 249.824223 367.632869 
L 251.46762 375.203474 
L 251.702391 374.294727 
L 251.937162 377.217784 
L 252.876245 375.091493 
L 253.815329 372.129275 
L 254.0501 373.100762 
L 254.989183 377.723604 
L 255.458725 376.158612 
L 256.63258 367.058858 
L 257.102122 368.512223 
L 257.336893 368.247059 
L 258.041205 374.831891 
L 258.510747 373.02041 
L 258.745518 371.638418 
L 258.980289 375.338933 
L 259.21506 376.705018 
L 259.684602 373.991307 
L 259.919373 375.231009 
L 260.623685 377.702959 
L 260.858456 375.629548 
L 262.267082 368.593273 
L 262.736624 370.009569 
L 264.145249 377.850464 
L 264.38002 377.394415 
L 265.788646 372.39423 
L 266.258187 377.120206 
L 266.9625 376.360238 
L 268.371126 368.846603 
L 268.605897 370.284079 
L 269.075438 367.467432 
L 270.718835 362.96561 
L 269.54498 368.601074 
L 271.188377 364.974434 
L 271.423148 370.325486 
L 271.892689 361.01518 
L 272.12746 360.432606 
L 272.362231 362.252482 
L 272.597002 365.282892 
L 273.301315 364.241362 
L 274.475169 361.326515 
L 275.414253 370.758693 
L 275.883795 368.08455 
L 276.118566 364.953137 
L 276.588108 371.415723 
L 277.05765 374.691734 
L 277.527191 371.520223 
L 278.466275 372.940861 
L 278.701046 377.240262 
L 279.170588 372.736483 
L 279.64013 376.204298 
L 279.874901 376.618924 
L 280.109671 374.991972 
L 280.344442 376.76157 
L 280.813984 376.281656 
L 281.518297 377.468424 
L 282.457381 377.942336 
L 283.161693 371.207146 
L 284.100777 373.932716 
L 285.509403 367.076703 
L 285.978944 374.172191 
L 286.918028 373.719876 
L 288.326654 371.254496 
L 288.561424 375.782402 
L 289.030966 371.034523 
L 289.97005 367.739648 
L 290.204821 367.82137 
L 290.439592 369.169434 
L 290.674363 367.807572 
L 291.613446 362.148538 
L 291.848217 365.418813 
L 292.082988 365.113453 
L 292.317759 366.171079 
L 292.55253 369.899785 
L 293.256843 367.825113 
L 293.726385 366.73403 
L 293.961156 365.131233 
L 294.195926 368.544915 
L 294.430697 366.864991 
L 294.900239 370.25424 
L 295.13501 372.526562 
L 295.839323 370.169771 
L 296.543636 368.361039 
L 296.308865 370.569385 
L 297.013177 368.61279 
L 297.952261 373.697787 
L 298.421803 372.909407 
L 298.891345 373.357408 
L 300.29997 365.392062 
L 302.412909 373.263519 
L 302.647679 372.542211 
L 302.88245 373.821221 
L 304.056305 377.512422 
L 304.291076 373.693037 
L 304.995389 377.29171 
L 306.169243 372.43159 
L 306.873556 377.681269 
L 307.108327 377.636702 
L 307.81264 377.826262 
L 308.282181 374.472002 
L 308.516952 372.964495 
L 308.751723 376.58632 
L 308.986494 376.129697 
L 309.925578 378.004829 
L 309.690807 375.478956 
L 310.39512 376.956059 
L 311.334203 374.208594 
L 311.803745 376.265733 
L 312.038516 377.640105 
L 312.508058 374.717843 
L 313.212371 374.435117 
L 313.447142 368.888045 
L 313.916683 373.730895 
L 314.151454 375.992525 
L 314.386225 373.899995 
L 314.855767 369.75638 
L 315.56008 371.239736 
L 315.794851 371.527395 
L 316.968705 377.958282 
L 317.203476 377.035855 
L 317.907789 374.033908 
L 318.377331 375.306305 
L 318.612102 373.526553 
L 319.081644 375.10858 
L 319.316414 377.018435 
L 320.255498 376.582108 
L 320.72504 373.99242 
L 320.959811 377.170974 
L 321.898895 378.046205 
L 323.072749 372.020301 
L 323.30752 373.92178 
L 323.777062 374.23967 
L 324.011833 375.488386 
L 324.246604 372.313445 
L 324.716146 370.11294 
L 324.950916 373.467412 
L 325.420458 374.527192 
L 325.655229 371.079587 
L 326.124771 378.027168 
L 326.359542 375.120671 
L 326.594313 375.024333 
L 326.829084 376.635552 
L 327.298626 375.1517 
L 327.533397 373.38357 
L 327.768167 377.140032 
L 328.002938 374.933379 
L 328.707251 372.607275 
L 329.176793 377.348364 
L 329.411564 377.447857 
L 329.646335 374.186718 
L 330.115877 377.790335 
L 330.350648 377.026329 
L 331.05496 375.844235 
L 331.289731 377.973339 
L 332.228815 372.737201 
L 332.463586 374.783672 
L 334.341753 377.467681 
L 334.811295 372.177635 
L 335.280837 375.148582 
L 335.98515 377.619172 
L 336.454691 377.006484 
L 338.098088 368.736132 
L 338.332859 366.555306 
L 338.802401 369.531729 
L 339.037171 370.196983 
L 339.271942 368.168752 
L 339.741484 369.374718 
L 339.976255 368.887386 
L 340.211026 369.689891 
L 340.445797 370.33872 
L 340.680568 368.551522 
L 340.915339 368.790889 
L 341.15011 368.02858 
L 342.089193 375.948363 
L 342.323964 374.486127 
L 342.793506 372.063575 
L 343.028277 374.869199 
L 343.497819 377.626838 
L 344.202132 376.802163 
L 344.671673 376.34057 
L 345.375986 374.224839 
L 345.610757 377.433353 
L 346.080299 373.19687 
L 346.549841 377.356356 
L 346.784612 377.986223 
L 347.019383 377.873311 
L 347.254154 375.369735 
L 347.488924 378.026339 
L 348.193237 375.756566 
L 348.428008 375.260302 
L 348.662779 378.015681 
L 349.367092 375.584482 
L 349.836634 369.979998 
L 350.306175 374.923896 
L 351.010488 377.323007 
L 351.245259 376.622203 
L 351.714801 377.128905 
L 352.653885 372.361029 
L 353.123426 373.404458 
L 353.358197 372.01487 
L 353.592968 369.714888 
L 354.06251 373.688896 
L 354.532052 375.245305 
L 354.766823 373.166842 
L 355.001594 373.082961 
L 355.471136 374.995543 
L 355.940677 373.79514 
L 357.114532 370.500163 
L 358.288387 377.573447 
L 358.523157 375.34166 
L 358.757928 373.69656 
L 358.992699 375.788062 
L 359.462241 374.729134 
L 359.697012 376.39296 
L 360.166554 374.4489 
L 360.401325 372.00027 
L 360.870867 374.144077 
L 361.575179 377.082575 
L 361.80995 376.077535 
L 362.044721 374.821384 
L 362.514263 377.243276 
L 362.983805 376.784461 
L 363.453347 377.447784 
L 363.688118 378.013083 
L 363.922889 377.784346 
L 364.861972 368.879875 
L 365.096743 369.843646 
L 365.566285 374.021704 
L 366.035827 370.988794 
L 366.270598 370.779942 
L 367.209681 373.488399 
L 368.148765 369.324127 
L 368.383536 369.858846 
L 369.087849 368.515527 
L 368.853078 370.22071 
L 369.32262 369.122628 
L 369.557391 370.766425 
L 369.792161 368.63686 
L 370.261703 369.821831 
L 370.966016 369.163646 
L 371.200787 373.305798 
L 371.9051 371.97234 
L 372.139871 370.696746 
L 372.844183 371.687203 
L 374.957122 377.627107 
L 376.130976 376.561612 
L 376.835289 370.818889 
L 377.304831 372.566001 
L 379.182998 377.971045 
L 379.65254 375.176263 
L 380.591624 372.583376 
L 381.295936 377.745423 
L 382.000249 377.457201 
L 383.643646 366.296621 
L 384.113187 368.421096 
L 384.347958 367.64474 
L 384.582729 363.078473 
L 385.287042 363.713165 
L 386.226126 368.087597 
L 386.460897 365.429243 
L 387.165209 365.661472 
L 387.39998 363.284713 
L 388.104293 367.769734 
L 388.573835 366.011159 
L 389.278148 369.281917 
L 389.747689 367.120191 
L 391.391086 361.504067 
L 392.095399 367.674513 
L 392.799711 365.653963 
L 393.269253 361.456986 
L 393.973566 363.380747 
L 394.677879 368.718734 
L 395.14742 367.649913 
L 396.086504 362.073709 
L 396.321275 364.659382 
L 396.556046 364.647152 
L 396.790817 363.065647 
L 397.260359 365.647147 
L 398.434213 369.96865 
L 398.668984 369.780031 
L 400.312381 377.711431 
L 401.955777 369.598985 
L 402.190548 369.643495 
L 402.66009 374.430904 
L 403.599173 377.798995 
L 403.833944 377.706963 
L 405.007799 369.077609 
L 405.24257 369.912923 
L 405.477341 369.527009 
L 406.181653 367.517598 
L 406.651195 373.135627 
L 406.885966 370.257303 
L 407.355508 374.899213 
L 407.590279 372.103195 
L 408.294592 367.45526 
L 409.937988 361.088625 
L 410.172759 361.524075 
L 410.642301 357.023353 
L 411.111843 362.145174 
L 411.346614 368.331964 
L 412.050926 363.405412 
L 412.99001 367.160064 
L 412.520468 363.126365 
L 413.224781 366.117469 
L 413.459552 363.518878 
L 413.929094 367.276595 
L 415.807261 376.961549 
L 416.276803 367.458507 
L 416.746345 371.105711 
L 417.685428 376.112165 
L 418.15497 375.095632 
L 418.624512 376.255348 
L 418.859283 374.759201 
L 419.094054 374.942609 
L 419.328825 374.782898 
L 419.563596 376.851109 
L 419.798367 373.085585 
L 420.502679 376.667187 
L 420.73745 376.220097 
L 420.972221 376.501211 
L 421.206992 377.715797 
L 421.441763 376.1966 
L 421.676534 376.824071 
L 422.146076 370.889393 
L 422.615618 375.134762 
L 423.789472 376.777872 
L 423.085159 374.104169 
L 424.259014 376.46599 
L 424.493785 376.940862 
L 424.728556 376.257038 
L 425.66764 370.513869 
L 425.90241 371.227638 
L 426.371952 377.893839 
L 426.841494 376.683331 
L 428.25012 371.453632 
L 429.189203 377.709394 
L 429.893516 375.925584 
L 430.8326 369.613064 
L 431.536912 373.774799 
L 432.241225 377.475449 
L 432.475996 377.245388 
L 433.649851 373.609704 
L 433.884622 375.079586 
L 434.119393 371.016689 
L 434.354163 370.807719 
L 434.823705 377.562279 
L 435.528018 375.350043 
L 436.467102 376.104709 
L 436.701873 374.480925 
L 437.171414 376.830765 
L 437.875727 377.700017 
L 438.110498 376.62411 
L 438.814811 374.214508 
L 439.049582 377.768904 
L 439.519124 374.105653 
L 439.753894 374.98959 
L 440.223436 377.769335 
L 440.692978 375.008608 
L 440.927749 374.051057 
L 441.16252 376.149689 
L 441.397291 377.99399 
L 441.866833 376.837154 
L 442.336375 373.418447 
L 442.805916 376.399621 
L 444.214542 368.307826 
L 444.449313 369.009843 
L 445.153626 373.472263 
L 445.623167 372.832393 
L 446.32748 367.59773 
L 446.797022 370.059081 
L 447.736106 366.035044 
L 449.379502 376.021056 
L 449.614273 377.52539 
L 449.849044 375.525807 
L 450.083815 373.782773 
L 450.553357 377.286211 
L 450.788128 375.479624 
L 451.49244 377.631792 
L 451.961982 376.663023 
L 452.196753 376.852594 
L 452.431524 373.759398 
L 452.666295 377.380126 
L 453.135837 376.152646 
L 453.370608 374.995241 
L 453.605379 377.129027 
L 454.544462 377.77049 
L 455.718317 375.406147 
L 455.953088 374.960115 
L 456.187859 377.831301 
L 456.6574 374.212052 
L 456.892171 374.584652 
L 458.066026 371.054636 
L 459.00511 372.32531 
L 459.944193 368.127342 
L 460.413735 370.140758 
L 461.352819 377.817861 
L 461.822361 376.829053 
L 462.291902 377.5362 
L 463.230986 377.651799 
L 463.465757 374.501666 
L 464.17007 377.366067 
L 464.639612 372.591621 
L 465.109153 375.414708 
L 465.343924 375.591802 
L 465.578695 377.309084 
L 466.048237 376.924232 
L 466.75255 368.978586 
L 467.222092 372.566526 
L 467.691634 374.065766 
L 467.926404 371.985619 
L 468.395946 373.239063 
L 469.100259 369.595117 
L 469.804572 372.097664 
L 470.039343 369.402256 
L 470.743655 371.802446 
L 471.447968 365.472802 
L 471.682739 368.683881 
L 472.387052 377.883201 
L 472.856594 377.285189 
L 473.326136 377.989759 
L 474.030448 373.084357 
L 474.734761 378.029078 
L 475.439074 377.872494 
L 477.08247 370.3504 
L 478.725867 376.467237 
L 480.369263 364.714067 
L 480.838805 364.872879 
L 481.777888 369.728549 
L 482.24743 367.506875 
L 482.482201 366.401705 
L 482.951743 368.903291 
L 483.186514 366.757 
L 483.890827 372.003873 
L 484.360369 371.691911 
L 484.82991 370.429671 
L 485.064681 371.566037 
L 485.768994 377.731764 
L 486.238536 374.517872 
L 486.473307 377.108552 
L 486.942849 374.374024 
L 487.17762 375.502043 
L 487.41239 374.982467 
L 487.647161 376.618699 
L 488.351474 377.998157 
L 489.055787 371.383991 
L 489.525329 373.471879 
L 490.229641 377.627555 
L 490.699183 375.488551 
L 490.933954 371.865957 
L 491.403496 375.688669 
L 492.107809 377.666704 
L 492.812122 368.470414 
L 493.516434 371.553556 
L 495.394602 377.625676 
L 495.864143 376.552064 
L 496.568456 373.840235 
L 496.803227 375.208801 
L 497.742311 377.018044 
L 497.977082 374.298327 
L 498.446624 376.486598 
L 498.681394 377.874585 
L 499.150936 376.424961 
L 499.620478 374.977562 
L 500.09002 376.314561 
L 500.324791 376.395925 
L 500.794333 371.361153 
L 501.263875 376.562886 
L 501.498645 373.810293 
L 501.968187 375.218983 
L 502.202958 373.289963 
L 502.437729 373.51597 
L 504.081126 362.717244 
L 504.785438 359.348769 
L 505.020209 362.105764 
L 505.25498 361.939614 
L 506.194064 356.432973 
L 506.428835 358.879838 
L 506.663606 359.611168 
L 507.133147 358.645601 
L 507.367918 359.033729 
L 507.602689 359.129485 
L 508.072231 366.052325 
L 508.776544 364.800562 
L 510.41994 371.16138 
L 510.654711 371.002688 
L 511.359024 371.849774 
L 511.593795 371.269578 
L 513.00242 366.957893 
L 513.237191 367.77774 
L 513.471962 366.000297 
L 513.706733 366.797936 
L 515.35013 352.599092 
L 515.819671 355.160932 
L 516.993526 358.48838 
L 517.228297 358.188166 
L 517.463068 358.683798 
L 518.402151 363.452413 
L 518.871693 360.591319 
L 519.341235 362.830648 
L 521.219402 374.081884 
L 521.454173 374.095859 
L 522.158486 372.370659 
L 522.393257 374.373149 
L 523.332341 377.854629 
L 524.036653 372.44249 
L 524.271424 374.693617 
L 524.506195 377.612596 
L 524.975737 374.368589 
L 525.68005 370.61334 
L 526.149592 371.916191 
L 526.384363 371.346935 
L 526.619133 372.841793 
L 526.853904 374.528225 
L 527.088675 372.259247 
L 527.323446 370.349192 
L 527.558217 372.886412 
L 527.792988 376.519655 
L 528.497301 372.215889 
L 528.732072 373.988724 
L 528.966843 372.919301 
L 529.201614 369.843394 
L 529.671155 373.025046 
L 529.905926 371.161639 
L 530.610239 368.461793 
L 531.079781 361.512398 
L 531.549323 363.874576 
L 531.784094 367.17593 
L 532.488406 364.562752 
L 532.723177 364.485588 
L 533.897032 369.182153 
L 533.662261 364.225253 
L 534.131803 366.886672 
L 536.244741 354.656972 
L 536.949054 357.023532 
L 537.183825 356.914399 
L 538.122908 359.805149 
L 537.888137 356.579395 
L 538.122908 359.805149 
" clip-path="url(#pd7465dd2b4)" style="fill: none; stroke: #e41a1c; stroke-width: 2; stroke-linecap: square"/>
   </g>
   <g id="patch_6">
    <path d="M 45.103984 385.599141 
L 45.103984 219.434546 
" style="fill: none; stroke: #7f7f7f; stroke-width: 1.8; stroke-linejoin: miter; stroke-linecap: square"/>
   </g>
   <g id="patch_7">
    <path d="M 45.103984 385.599141 
L 561.6 385.599141 
" style="fill: none; stroke: #7f7f7f; stroke-width: 1.8; stroke-linejoin: miter; stroke-linecap: square"/>
   </g>
  </g>
 </g>
 <defs>
  <clipPath id="p32522bf172">
   <rect x="45.103984" y="22.318125" width="516.496016" height="166.164595"/>
  </clipPath>
  <clipPath id="pd7465dd2b4">
   <rect x="45.103984" y="219.434546" width="516.496016" height="166.164595"/>
  </clipPath>
 </defs>
</svg>
