<?xml version="1.0" encoding="utf-8" standalone="no"?>
<!DOCTYPE svg PUBLIC "-//W3C//DTD SVG 1.1//EN"
  "http://www.w3.org/Graphics/SVG/1.1/DTD/svg11.dtd">
<svg xmlns:xlink="http://www.w3.org/1999/xlink" width="568.8pt" height="280.8pt" viewBox="0 0 568.8 280.8" xmlns="http://www.w3.org/2000/svg" version="1.1">
 <metadata>
  <rdf:RDF xmlns:dc="http://purl.org/dc/elements/1.1/" xmlns:cc="http://creativecommons.org/ns#" xmlns:rdf="http://www.w3.org/1999/02/22-rdf-syntax-ns#">
   <cc:Work>
    <dc:type rdf:resource="http://purl.org/dc/dcmitype/StillImage"/>
    <dc:date>2026-06-28T01:01:25.228012</dc:date>
    <dc:format>image/svg+xml</dc:format>
    <dc:creator>
     <cc:Agent>
      <dc:title>Matplotlib v3.11.0, https://matplotlib.org/</dc:title>
     </cc:Agent>
    </dc:creator>
   </cc:Work>
  </rdf:RDF>
 </metadata>
 <defs>
  <style type="text/css">*{stroke-linejoin: round; stroke-linecap: butt}</style>
 </defs>
 <g id="figure_1">
  <g id="patch_1">
   <path d="M 0 280.8 
L 568.8 280.8 
L 568.8 0 
L 0 0 
L 0 280.8 
z
" style="fill: none"/>
  </g>
  <g id="axes_1">
   <g id="patch_2">
    <path d="M 28.942188 241.599141 
L 561.6 241.599141 
L 561.6 7.2 
L 28.942188 7.2 
L 28.942188 241.599141 
z
" style="fill: none"/>
   </g>
   <g id="matplotlib.axis_1">
    <g id="xtick_1">
     <g id="line2d_1">
      <defs>
       <path id="m616bbab400" d="M 0 0 
L 0 3.5 
" style="stroke: #7f7f7f; stroke-width: 1.8"/>
      </defs>
      <g>
       <use xlink:href="#m616bbab400" x="53.153906" y="241.599141" style="fill: #7f7f7f; stroke: #7f7f7f; stroke-width: 1.8"/>
      </g>
     </g>
     <g id="text_1">
      <!-- 0.00000 -->
      <g style="fill: #7f7f7f" transform="translate(32.477344 256.196797) scale(0.1 -0.1)">
       <defs>
        <path id="DejaVuSans-13" d="M 2034 4250 
Q 1547 4250 1301 3770 
Q 1056 3291 1056 2328 
Q 1056 1369 1301 889 
Q 1547 409 2034 409 
Q 2525 409 2770 889 
Q 3016 1369 3016 2328 
Q 3016 3291 2770 3770 
Q 2525 4250 2034 4250 
z
M 2034 4750 
Q 2819 4750 3233 4129 
Q 3647 3509 3647 2328 
Q 3647 1150 3233 529 
Q 2819 -91 2034 -91 
Q 1250 -91 836 529 
Q 422 1150 422 2328 
Q 422 3509 836 4129 
Q 1250 4750 2034 4750 
z
" transform="scale(0.015625)"/>
        <path id="DejaVuSans-11" d="M 684 794 
L 1344 794 
L 1344 0 
L 684 0 
L 684 794 
z
" transform="scale(0.015625)"/>
       </defs>
       <use xlink:href="#DejaVuSans-13"/>
       <use xlink:href="#DejaVuSans-11" transform="translate(63.625 0)"/>
       <use xlink:href="#DejaVuSans-13" transform="translate(95.40625 0)"/>
       <use xlink:href="#DejaVuSans-13" transform="translate(159.03125 0)"/>
       <use xlink:href="#DejaVuSans-13" transform="translate(222.65625 0)"/>
       <use xlink:href="#DejaVuSans-13" transform="translate(286.28125 0)"/>
       <use xlink:href="#DejaVuSans-13" transform="translate(349.90625 0)"/>
      </g>
     </g>
    </g>
    <g id="xtick_2">
     <g id="line2d_2">
      <g>
       <use xlink:href="#m616bbab400" x="149.981416" y="241.599141" style="fill: #7f7f7f; stroke: #7f7f7f; stroke-width: 1.8"/>
      </g>
     </g>
     <g id="text_2">
      <!-- 0.00002 -->
      <g style="fill: #7f7f7f" transform="translate(129.304853 256.196797) scale(0.1 -0.1)">
       <defs>
        <path id="DejaVuSans-15" d="M 1228 531 
L 3431 531 
L 3431 0 
L 469 0 
L 469 531 
Q 828 903 1448 1529 
Q 2069 2156 2228 2338 
Q 2531 2678 2651 2914 
Q 2772 3150 2772 3378 
Q 2772 3750 2511 3984 
Q 2250 4219 1831 4219 
Q 1534 4219 1204 4116 
Q 875 4013 500 3803 
L 500 4441 
Q 881 4594 1212 4672 
Q 1544 4750 1819 4750 
Q 2544 4750 2975 4387 
Q 3406 4025 3406 3419 
Q 3406 3131 3298 2873 
Q 3191 2616 2906 2266 
Q 2828 2175 2409 1742 
Q 1991 1309 1228 531 
z
" transform="scale(0.015625)"/>
       </defs>
       <use xlink:href="#DejaVuSans-13"/>
       <use xlink:href="#DejaVuSans-11" transform="translate(63.625 0)"/>
       <use xlink:href="#DejaVuSans-13" transform="translate(95.40625 0)"/>
       <use xlink:href="#DejaVuSans-13" transform="translate(159.03125 0)"/>
       <use xlink:href="#DejaVuSans-13" transform="translate(222.65625 0)"/>
       <use xlink:href="#DejaVuSans-13" transform="translate(286.28125 0)"/>
       <use xlink:href="#DejaVuSans-15" transform="translate(349.90625 0)"/>
      </g>
     </g>
    </g>
    <g id="xtick_3">
     <g id="line2d_3">
      <g>
       <use xlink:href="#m616bbab400" x="246.808925" y="241.599141" style="fill: #7f7f7f; stroke: #7f7f7f; stroke-width: 1.8"/>
      </g>
     </g>
     <g id="text_3">
      <!-- 0.00004 -->
      <g style="fill: #7f7f7f" transform="translate(226.132363 256.196797) scale(0.1 -0.1)">
       <defs>
        <path id="DejaVuSans-17" d="M 2419 4116 
L 825 1625 
L 2419 1625 
L 2419 4116 
z
M 2253 4666 
L 3047 4666 
L 3047 1625 
L 3713 1625 
L 3713 1100 
L 3047 1100 
L 3047 0 
L 2419 0 
L 2419 1100 
L 313 1100 
L 313 1709 
L 2253 4666 
z
" transform="scale(0.015625)"/>
       </defs>
       <use xlink:href="#DejaVuSans-13"/>
       <use xlink:href="#DejaVuSans-11" transform="translate(63.625 0)"/>
       <use xlink:href="#DejaVuSans-13" transform="translate(95.40625 0)"/>
       <use xlink:href="#DejaVuSans-13" transform="translate(159.03125 0)"/>
       <use xlink:href="#DejaVuSans-13" transform="translate(222.65625 0)"/>
       <use xlink:href="#DejaVuSans-13" transform="translate(286.28125 0)"/>
       <use xlink:href="#DejaVuSans-17" transform="translate(349.90625 0)"/>
      </g>
     </g>
    </g>
    <g id="xtick_4">
     <g id="line2d_4">
      <g>
       <use xlink:href="#m616bbab400" x="343.636435" y="241.599141" style="fill: #7f7f7f; stroke: #7f7f7f; stroke-width: 1.8"/>
      </g>
     </g>
     <g id="text_4">
      <!-- 0.00006 -->
      <g style="fill: #7f7f7f" transform="translate(322.959872 256.196797) scale(0.1 -0.1)">
       <defs>
        <path id="DejaVuSans-19" d="M 2113 2584 
Q 1688 2584 1439 2293 
Q 1191 2003 1191 1497 
Q 1191 994 1439 701 
Q 1688 409 2113 409 
Q 2538 409 2786 701 
Q 3034 994 3034 1497 
Q 3034 2003 2786 2293 
Q 2538 2584 2113 2584 
z
M 3366 4563 
L 3366 3988 
Q 3128 4100 2886 4159 
Q 2644 4219 2406 4219 
Q 1781 4219 1451 3797 
Q 1122 3375 1075 2522 
Q 1259 2794 1537 2939 
Q 1816 3084 2150 3084 
Q 2853 3084 3261 2657 
Q 3669 2231 3669 1497 
Q 3669 778 3244 343 
Q 2819 -91 2113 -91 
Q 1303 -91 875 529 
Q 447 1150 447 2328 
Q 447 3434 972 4092 
Q 1497 4750 2381 4750 
Q 2619 4750 2861 4703 
Q 3103 4656 3366 4563 
z
" transform="scale(0.015625)"/>
       </defs>
       <use xlink:href="#DejaVuSans-13"/>
       <use xlink:href="#DejaVuSans-11" transform="translate(63.625 0)"/>
       <use xlink:href="#DejaVuSans-13" transform="translate(95.40625 0)"/>
       <use xlink:href="#DejaVuSans-13" transform="translate(159.03125 0)"/>
       <use xlink:href="#DejaVuSans-13" transform="translate(222.65625 0)"/>
       <use xlink:href="#DejaVuSans-13" transform="translate(286.28125 0)"/>
       <use xlink:href="#DejaVuSans-19" transform="translate(349.90625 0)"/>
      </g>
     </g>
    </g>
    <g id="xtick_5">
     <g id="line2d_5">
      <g>
       <use xlink:href="#m616bbab400" x="440.463944" y="241.599141" style="fill: #7f7f7f; stroke: #7f7f7f; stroke-width: 1.8"/>
      </g>
     </g>
     <g id="text_5">
      <!-- 0.00008 -->
      <g style="fill: #7f7f7f" transform="translate(419.787382 256.196797) scale(0.1 -0.1)">
       <defs>
        <path id="DejaVuSans-1b" d="M 2034 2216 
Q 1584 2216 1326 1975 
Q 1069 1734 1069 1313 
Q 1069 891 1326 650 
Q 1584 409 2034 409 
Q 2484 409 2743 651 
Q 3003 894 3003 1313 
Q 3003 1734 2745 1975 
Q 2488 2216 2034 2216 
z
M 1403 2484 
Q 997 2584 770 2862 
Q 544 3141 544 3541 
Q 544 4100 942 4425 
Q 1341 4750 2034 4750 
Q 2731 4750 3128 4425 
Q 3525 4100 3525 3541 
Q 3525 3141 3298 2862 
Q 3072 2584 2669 2484 
Q 3125 2378 3379 2068 
Q 3634 1759 3634 1313 
Q 3634 634 3220 271 
Q 2806 -91 2034 -91 
Q 1263 -91 848 271 
Q 434 634 434 1313 
Q 434 1759 690 2068 
Q 947 2378 1403 2484 
z
M 1172 3481 
Q 1172 3119 1398 2916 
Q 1625 2713 2034 2713 
Q 2441 2713 2670 2916 
Q 2900 3119 2900 3481 
Q 2900 3844 2670 4047 
Q 2441 4250 2034 4250 
Q 1625 4250 1398 4047 
Q 1172 3844 1172 3481 
z
" transform="scale(0.015625)"/>
       </defs>
       <use xlink:href="#DejaVuSans-13"/>
       <use xlink:href="#DejaVuSans-11" transform="translate(63.625 0)"/>
       <use xlink:href="#DejaVuSans-13" transform="translate(95.40625 0)"/>
       <use xlink:href="#DejaVuSans-13" transform="translate(159.03125 0)"/>
       <use xlink:href="#DejaVuSans-13" transform="translate(222.65625 0)"/>
       <use xlink:href="#DejaVuSans-13" transform="translate(286.28125 0)"/>
       <use xlink:href="#DejaVuSans-1b" transform="translate(349.90625 0)"/>
      </g>
     </g>
    </g>
    <g id="xtick_6">
     <g id="line2d_6">
      <g>
       <use xlink:href="#m616bbab400" x="537.291454" y="241.599141" style="fill: #7f7f7f; stroke: #7f7f7f; stroke-width: 1.8"/>
      </g>
     </g>
     <g id="text_6">
      <!-- 0.00010 -->
      <g style="fill: #7f7f7f" transform="translate(516.614891 256.196797) scale(0.1 -0.1)">
       <defs>
        <path id="DejaVuSans-14" d="M 794 531 
L 1825 531 
L 1825 4091 
L 703 3866 
L 703 4441 
L 1819 4666 
L 2450 4666 
L 2450 531 
L 3481 531 
L 3481 0 
L 794 0 
L 794 531 
z
" transform="scale(0.015625)"/>
       </defs>
       <use xlink:href="#DejaVuSans-13"/>
       <use xlink:href="#DejaVuSans-11" transform="translate(63.625 0)"/>
       <use xlink:href="#DejaVuSans-13" transform="translate(95.40625 0)"/>
       <use xlink:href="#DejaVuSans-13" transform="translate(159.03125 0)"/>
       <use xlink:href="#DejaVuSans-13" transform="translate(222.65625 0)"/>
       <use xlink:href="#DejaVuSans-14" transform="translate(286.28125 0)"/>
       <use xlink:href="#DejaVuSans-13" transform="translate(349.90625 0)"/>
      </g>
     </g>
    </g>
    <g id="text_7">
     <!-- time [s] -->
     <g style="fill: #7f7f7f" transform="translate(273.940547 270.957422) scale(0.11 -0.11)">
      <defs>
       <path id="DejaVuSans-57" d="M 1172 4494 
L 1172 3500 
L 2356 3500 
L 2356 3053 
L 1172 3053 
L 1172 1153 
Q 1172 725 1289 603 
Q 1406 481 1766 481 
L 2356 481 
L 2356 0 
L 1766 0 
Q 1100 0 847 248 
Q 594 497 594 1153 
L 594 3053 
L 172 3053 
L 172 3500 
L 594 3500 
L 594 4494 
L 1172 4494 
z
" transform="scale(0.015625)"/>
       <path id="DejaVuSans-4c" d="M 603 3500 
L 1178 3500 
L 1178 0 
L 603 0 
L 603 3500 
z
M 603 4863 
L 1178 4863 
L 1178 4134 
L 603 4134 
L 603 4863 
z
" transform="scale(0.015625)"/>
       <path id="DejaVuSans-50" d="M 3328 2828 
Q 3544 3216 3844 3400 
Q 4144 3584 4550 3584 
Q 5097 3584 5394 3201 
Q 5691 2819 5691 2113 
L 5691 0 
L 5113 0 
L 5113 2094 
Q 5113 2597 4934 2840 
Q 4756 3084 4391 3084 
Q 3944 3084 3684 2787 
Q 3425 2491 3425 1978 
L 3425 0 
L 2847 0 
L 2847 2094 
Q 2847 2600 2669 2842 
Q 2491 3084 2119 3084 
Q 1678 3084 1418 2786 
Q 1159 2488 1159 1978 
L 1159 0 
L 581 0 
L 581 3500 
L 1159 3500 
L 1159 2956 
Q 1356 3278 1631 3431 
Q 1906 3584 2284 3584 
Q 2666 3584 2933 3390 
Q 3200 3197 3328 2828 
z
" transform="scale(0.015625)"/>
       <path id="DejaVuSans-48" d="M 3597 1894 
L 3597 1613 
L 953 1613 
Q 991 1019 1311 708 
Q 1631 397 2203 397 
Q 2534 397 2845 478 
Q 3156 559 3463 722 
L 3463 178 
Q 3153 47 2828 -22 
Q 2503 -91 2169 -91 
Q 1331 -91 842 396 
Q 353 884 353 1716 
Q 353 2575 817 3079 
Q 1281 3584 2069 3584 
Q 2775 3584 3186 3129 
Q 3597 2675 3597 1894 
z
M 3022 2063 
Q 3016 2534 2758 2815 
Q 2500 3097 2075 3097 
Q 1594 3097 1305 2825 
Q 1016 2553 972 2059 
L 3022 2063 
z
" transform="scale(0.015625)"/>
       <path id="DejaVuSans-3" transform="scale(0.015625)"/>
       <path id="DejaVuSans-3e" d="M 550 4863 
L 1875 4863 
L 1875 4416 
L 1125 4416 
L 1125 -397 
L 1875 -397 
L 1875 -844 
L 550 -844 
L 550 4863 
z
" transform="scale(0.015625)"/>
       <path id="DejaVuSans-56" d="M 2834 3397 
L 2834 2853 
Q 2591 2978 2328 3040 
Q 2066 3103 1784 3103 
Q 1356 3103 1142 2972 
Q 928 2841 928 2578 
Q 928 2378 1081 2264 
Q 1234 2150 1697 2047 
L 1894 2003 
Q 2506 1872 2764 1633 
Q 3022 1394 3022 966 
Q 3022 478 2636 193 
Q 2250 -91 1575 -91 
Q 1294 -91 989 -36 
Q 684 19 347 128 
L 347 722 
Q 666 556 975 473 
Q 1284 391 1588 391 
Q 1994 391 2212 530 
Q 2431 669 2431 922 
Q 2431 1156 2273 1281 
Q 2116 1406 1581 1522 
L 1381 1569 
Q 847 1681 609 1914 
Q 372 2147 372 2553 
Q 372 3047 722 3315 
Q 1072 3584 1716 3584 
Q 2034 3584 2315 3537 
Q 2597 3491 2834 3397 
z
" transform="scale(0.015625)"/>
       <path id="DejaVuSans-40" d="M 1947 4863 
L 1947 -844 
L 622 -844 
L 622 -397 
L 1369 -397 
L 1369 4416 
L 622 4416 
L 622 4863 
L 1947 4863 
z
" transform="scale(0.015625)"/>
      </defs>
      <use xlink:href="#DejaVuSans-57"/>
      <use xlink:href="#DejaVuSans-4c" transform="translate(39.203125 0)"/>
      <use xlink:href="#DejaVuSans-50" transform="translate(66.984375 0)"/>
      <use xlink:href="#DejaVuSans-48" transform="translate(164.390625 0)"/>
      <use xlink:href="#DejaVuSans-3" transform="translate(225.921875 0)"/>
      <use xlink:href="#DejaVuSans-3e" transform="translate(257.703125 0)"/>
      <use xlink:href="#DejaVuSans-56" transform="translate(296.71875 0)"/>
      <use xlink:href="#DejaVuSans-40" transform="translate(348.8125 0)"/>
     </g>
    </g>
   </g>
   <g id="matplotlib.axis_2">
    <g id="ytick_1">
     <g id="line2d_7">
      <defs>
       <path id="mc945d1e964" d="M 0 0 
L -3.5 0 
" style="stroke: #7f7f7f; stroke-width: 1.8"/>
      </defs>
      <g>
       <use xlink:href="#mc945d1e964" x="28.942188" y="228.005629" style="fill: #7f7f7f; stroke: #7f7f7f; stroke-width: 1.8"/>
      </g>
     </g>
     <g id="text_8">
      <!-- −8 -->
      <g style="fill: #7f7f7f" transform="translate(7.2 231.804457) scale(0.1 -0.1)">
       <defs>
        <path id="DejaVuSans-c9c" d="M 678 2272 
L 4684 2272 
L 4684 1741 
L 678 1741 
L 678 2272 
z
" transform="scale(0.015625)"/>
       </defs>
       <use xlink:href="#DejaVuSans-c9c"/>
       <use xlink:href="#DejaVuSans-1b" transform="translate(83.796875 0)"/>
      </g>
     </g>
    </g>
    <g id="ytick_2">
     <g id="line2d_8">
      <g>
       <use xlink:href="#mc945d1e964" x="28.942188" y="201.367899" style="fill: #7f7f7f; stroke: #7f7f7f; stroke-width: 1.8"/>
      </g>
     </g>
     <g id="text_9">
      <!-- −6 -->
      <g style="fill: #7f7f7f" transform="translate(7.2 205.166728) scale(0.1 -0.1)">
       <use xlink:href="#DejaVuSans-c9c"/>
       <use xlink:href="#DejaVuSans-19" transform="translate(83.796875 0)"/>
      </g>
     </g>
    </g>
    <g id="ytick_3">
     <g id="line2d_9">
      <g>
       <use xlink:href="#mc945d1e964" x="28.942188" y="174.73017" style="fill: #7f7f7f; stroke: #7f7f7f; stroke-width: 1.8"/>
      </g>
     </g>
     <g id="text_10">
      <!-- −4 -->
      <g style="fill: #7f7f7f" transform="translate(7.2 178.528999) scale(0.1 -0.1)">
       <use xlink:href="#DejaVuSans-c9c"/>
       <use xlink:href="#DejaVuSans-17" transform="translate(83.796875 0)"/>
      </g>
     </g>
    </g>
    <g id="ytick_4">
     <g id="line2d_10">
      <g>
       <use xlink:href="#mc945d1e964" x="28.942188" y="148.092441" style="fill: #7f7f7f; stroke: #7f7f7f; stroke-width: 1.8"/>
      </g>
     </g>
     <g id="text_11">
      <!-- −2 -->
      <g style="fill: #7f7f7f" transform="translate(7.2 151.89127) scale(0.1 -0.1)">
       <use xlink:href="#DejaVuSans-c9c"/>
       <use xlink:href="#DejaVuSans-15" transform="translate(83.796875 0)"/>
      </g>
     </g>
    </g>
    <g id="ytick_5">
     <g id="line2d_11">
      <g>
       <use xlink:href="#mc945d1e964" x="28.942188" y="121.454712" style="fill: #7f7f7f; stroke: #7f7f7f; stroke-width: 1.8"/>
      </g>
     </g>
     <g id="text_12">
      <!-- 0 -->
      <g style="fill: #7f7f7f" transform="translate(15.579688 125.25354) scale(0.1 -0.1)">
       <use xlink:href="#DejaVuSans-13"/>
      </g>
     </g>
    </g>
    <g id="ytick_6">
     <g id="line2d_12">
      <g>
       <use xlink:href="#mc945d1e964" x="28.942188" y="94.816983" style="fill: #7f7f7f; stroke: #7f7f7f; stroke-width: 1.8"/>
      </g>
     </g>
     <g id="text_13">
      <!-- 2 -->
      <g style="fill: #7f7f7f" transform="translate(15.579688 98.615811) scale(0.1 -0.1)">
       <use xlink:href="#DejaVuSans-15"/>
      </g>
     </g>
    </g>
    <g id="ytick_7">
     <g id="line2d_13">
      <g>
       <use xlink:href="#mc945d1e964" x="28.942188" y="68.179254" style="fill: #7f7f7f; stroke: #7f7f7f; stroke-width: 1.8"/>
      </g>
     </g>
     <g id="text_14">
      <!-- 4 -->
      <g style="fill: #7f7f7f" transform="translate(15.579688 71.978082) scale(0.1 -0.1)">
       <use xlink:href="#DejaVuSans-17"/>
      </g>
     </g>
    </g>
    <g id="ytick_8">
     <g id="line2d_14">
      <g>
       <use xlink:href="#mc945d1e964" x="28.942188" y="41.541525" style="fill: #7f7f7f; stroke: #7f7f7f; stroke-width: 1.8"/>
      </g>
     </g>
     <g id="text_15">
      <!-- 6 -->
      <g style="fill: #7f7f7f" transform="translate(15.579688 45.340353) scale(0.1 -0.1)">
       <use xlink:href="#DejaVuSans-19"/>
      </g>
     </g>
    </g>
    <g id="ytick_9">
     <g id="line2d_15">
      <g>
       <use xlink:href="#mc945d1e964" x="28.942188" y="14.903796" style="fill: #7f7f7f; stroke: #7f7f7f; stroke-width: 1.8"/>
      </g>
     </g>
     <g id="text_16">
      <!-- 8 -->
      <g style="fill: #7f7f7f" transform="translate(15.579688 18.702624) scale(0.1 -0.1)">
       <use xlink:href="#DejaVuSans-1b"/>
      </g>
     </g>
    </g>
   </g>
   <g id="line2d_16">
    <path d="M 53.153906 121.454712 
L 57.656385 109.198269 
L 59.544522 108.187344 
L 61.142176 109.783302 
L 63.611277 115.9357 
L 70.437617 134.434304 
L 72.035271 134.537663 
L 73.778166 132.130674 
L 76.682991 123.785821 
L 82.056918 108.951843 
L 83.945054 108.262891 
L 85.542708 110.120432 
L 88.157051 117.021934 
L 94.402425 134.221134 
L 96.14532 134.596249 
L 97.888216 132.327424 
L 100.793041 124.114623 
L 106.166968 109.071145 
L 108.055104 108.220938 
L 109.652758 109.948233 
L 112.12186 116.24206 
L 118.802958 134.395744 
L 120.545853 134.470814 
L 122.288748 131.927181 
L 125.338815 122.957831 
L 130.422259 109.010512 
L 132.310395 108.240871 
L 133.908049 110.033431 
L 136.522392 116.86446 
L 142.767766 134.172424 
L 144.510661 134.622431 
L 146.108315 132.700202 
L 148.722658 125.729317 
L 154.822791 108.787719 
L 156.565686 108.262891 
L 158.16334 110.120432 
L 160.777683 117.021934 
L 167.023057 134.221134 
L 168.765953 134.596249 
L 170.508848 132.327424 
L 173.413673 124.114623 
L 178.7876 109.071145 
L 180.675736 108.220938 
L 182.27339 109.948233 
L 184.742492 116.24206 
L 191.42359 134.395744 
L 193.166485 134.470814 
L 194.90938 131.927181 
L 197.959447 122.957831 
L 203.042891 109.010512 
L 204.931027 108.240871 
L 206.528681 110.033431 
L 209.143024 116.86446 
L 215.388398 134.172424 
L 217.131294 134.622431 
L 218.728947 132.700202 
L 221.34329 125.729317 
L 227.443423 108.787719 
L 229.186319 108.262891 
L 230.783972 110.120432 
L 233.398315 117.021934 
L 239.64369 134.221134 
L 241.386585 134.596249 
L 243.12948 132.327424 
L 246.034305 124.114623 
L 251.408232 109.071145 
L 253.296368 108.220938 
L 254.894022 109.948233 
L 257.363124 116.24206 
L 264.044222 134.395744 
L 265.787117 134.470814 
L 267.530012 131.927181 
L 270.580079 122.957831 
L 275.663523 109.010512 
L 277.55166 108.240871 
L 279.149313 110.033431 
L 281.763656 116.86446 
L 288.009031 134.172424 
L 289.751926 134.622431 
L 291.34958 132.700202 
L 293.963922 125.729317 
L 300.064055 108.787719 
L 301.806951 108.262891 
L 303.404605 110.120432 
L 306.018947 117.021934 
L 312.264322 134.221134 
L 314.007217 134.596249 
L 315.750112 132.327424 
L 318.654937 124.114623 
L 324.028864 109.071145 
L 325.917001 108.220938 
L 327.514654 109.948233 
L 329.983756 116.24206 
L 336.664854 134.395744 
L 338.407749 134.470814 
L 340.150644 131.927181 
L 343.200711 122.957831 
L 348.284155 109.010512 
L 350.172292 108.240871 
L 351.769946 110.033431 
L 354.384288 116.86446 
L 360.629663 134.172424 
L 362.372558 134.622431 
L 363.970212 132.700202 
L 366.584554 125.729317 
L 372.684688 108.787719 
L 374.427583 108.262891 
L 376.025237 110.120432 
L 378.639579 117.021934 
L 384.884954 134.221134 
L 386.627849 134.596249 
L 388.370744 132.327424 
L 391.275569 124.114623 
L 396.649496 109.071145 
L 398.537633 108.220938 
L 400.135287 109.948233 
L 402.604388 116.24206 
L 409.285486 134.395744 
L 411.028381 134.470814 
L 412.771277 131.927181 
L 415.821343 122.957831 
L 420.904787 109.010512 
L 422.792924 108.240871 
L 424.390578 110.033431 
L 427.00492 116.86446 
L 433.250295 134.172424 
L 434.99319 134.622431 
L 436.590844 132.700202 
L 439.205187 125.729317 
L 445.30532 108.787719 
L 447.048215 108.262891 
L 448.645869 110.120432 
L 451.260212 117.021934 
L 457.505586 134.221134 
L 459.248481 134.596249 
L 460.991376 132.327424 
L 463.896202 124.114623 
L 469.270128 109.071145 
L 471.158265 108.220938 
L 472.755919 109.948233 
L 475.22502 116.24206 
L 481.906118 134.395744 
L 483.649013 134.470814 
L 485.391909 131.927181 
L 488.441975 122.957831 
L 493.525419 109.010512 
L 495.413556 108.240871 
L 497.01121 110.033431 
L 499.625553 116.86446 
L 505.870927 134.172424 
L 507.613822 134.622431 
L 509.211476 132.700202 
L 511.825819 125.729317 
L 517.925952 108.787719 
L 519.668847 108.262891 
L 521.266501 110.120432 
L 523.880844 117.021934 
L 530.126218 134.221134 
L 531.869113 134.596249 
L 533.612008 132.327424 
L 536.516834 124.114623 
L 537.388281 121.120008 
L 537.388281 121.120008 
" clip-path="url(#pce4feebbb9)" style="fill: none; stroke: #e41a1c; stroke-width: 2; stroke-linecap: square"/>
   </g>
   <g id="line2d_17">
    <path d="M 53.153906 121.454712 
L 53.444389 122.334894 
L 53.734871 120.514534 
L 54.315836 112.249824 
L 58.963557 28.396711 
L 59.980246 27.661648 
L 60.415969 28.286121 
L 60.996935 27.704444 
L 61.5779 26.602409 
L 61.868382 27.545099 
L 63.466036 39.092164 
L 64.773207 73.109008 
L 69.130445 194.259808 
L 71.890029 222.807737 
L 72.761477 222.536944 
L 72.906718 223.207758 
L 73.342442 224.194961 
L 73.632925 222.843741 
L 76.392509 193.657238 
L 83.945054 25.566091 
L 84.961743 21.156389 
L 85.542708 22.904712 
L 86.704638 36.852186 
L 90.480911 116.922816 
L 93.385736 201.313334 
L 95.709597 226.052601 
L 97.307251 230.519033 
L 97.742974 228.574563 
L 98.904904 215.699486 
L 101.80973 161.913448 
L 107.61938 32.042878 
L 108.345587 27.120248 
L 108.926552 28.526594 
L 111.976618 47.785226 
L 114.736202 128.702124 
L 118.367234 213.898893 
L 119.674405 221.596166 
L 119.819647 221.130219 
L 120.110129 220.304763 
L 120.836335 221.003779 
L 121.4173 222.394128 
L 121.853024 221.199947 
L 122.579231 213.948359 
L 125.774538 164.166389 
L 132.600878 28.48033 
L 132.89136 27.807852 
L 133.181843 28.968443 
L 133.472325 29.905171 
L 134.198532 29.38891 
L 134.779497 28.313553 
L 135.069979 29.806167 
L 135.941427 40.826499 
L 138.55577 112.119547 
L 141.605836 195.385949 
L 144.510661 224.999233 
L 145.091627 225.249448 
L 145.236868 224.86558 
L 147.415487 213.406518 
L 150.02983 180.063837 
L 156.129963 30.417007 
L 156.565686 28.095373 
L 157.437134 22.958139 
L 157.872858 25.551609 
L 161.068166 73.936212 
L 163.972991 141.987528 
L 167.023057 216.090813 
L 168.330229 227.454129 
L 168.765953 224.534696 
L 169.492159 220.268679 
L 169.927883 220.918497 
L 170.508848 220.549419 
L 170.944572 220.769384 
L 171.670778 217.304452 
L 173.704156 184.710709 
L 176.754222 90.09358 
L 179.659047 28.407766 
L 180.675736 20.540897 
L 181.11146 21.167059 
L 181.692425 22.101598 
L 184.016285 43.028531 
L 187.356834 117.452904 
L 191.714072 206.372732 
L 193.602209 222.26753 
L 194.037933 223.200607 
L 194.618898 222.696199 
L 195.490345 218.074745 
L 197.087999 198.150337 
L 198.540412 159.100705 
L 202.89765 33.744629 
L 204.785786 20.02697 
L 205.366751 18.829128 
L 205.947716 19.552763 
L 206.673923 23.781213 
L 209.143024 55.275827 
L 213.645503 174.864758 
L 217.421776 225.490633 
L 217.712259 224.324833 
L 222.359979 178.275932 
L 224.393357 107.493319 
L 228.16963 29.774373 
L 230.203007 23.191927 
L 230.638731 25.031966 
L 232.81735 44.235573 
L 234.415004 88.539806 
L 237.900794 181.80044 
L 240.224655 215.637422 
L 242.258032 220.332838 
L 242.838997 219.734824 
L 244.727134 210.51558 
L 246.760511 158.497538 
L 251.553473 30.465458 
L 253.005886 23.736985 
L 253.877333 25.025818 
L 254.167816 24.394861 
L 254.60354 23.333945 
L 254.894022 24.496578 
L 257.363124 44.939513 
L 258.815536 96.733223 
L 262.446568 193.110539 
L 265.351393 224.431002 
L 265.787117 222.112924 
L 267.384771 214.441077 
L 273.04918 100.823021 
L 275.518282 39.305825 
L 278.568348 18.964671 
L 278.858831 19.01192 
L 279.004072 19.399059 
L 281.473174 40.202469 
L 283.797034 115.657156 
L 287.428065 202.70867 
L 289.461443 223.794503 
L 290.768615 227.323015 
L 291.059097 225.952948 
L 292.366268 212.496243 
L 293.092475 197.65226 
L 296.578265 120.193361 
L 301.516468 25.714414 
L 303.114122 21.349108 
L 304.421293 28.961216 
L 307.47136 89.454693 
L 312.990528 223.130067 
L 314.297699 224.675493 
L 315.023906 225.515052 
L 315.169147 224.772177 
L 318.219214 193.20455 
L 323.012175 55.909158 
L 325.045553 24.399611 
L 325.626518 21.110839 
L 326.207483 22.639109 
L 326.643207 22.673466 
L 326.788448 22.250866 
L 326.933689 21.919723 
L 327.369413 22.996595 
L 328.531343 30.068631 
L 330.128997 51.316214 
L 333.033822 139.511072 
L 336.083889 217.813231 
L 337.826784 227.722463 
L 339.569679 227.169331 
L 340.586368 221.443886 
L 343.926917 171.282767 
L 349.010362 30.433491 
L 350.462774 23.152415 
L 350.608015 23.17924 
L 354.384288 48.528859 
L 356.85339 131.035086 
L 359.322491 191.396317 
L 362.808282 225.99187 
L 363.244005 226.926462 
L 363.534488 225.571868 
L 366.003589 211.742853 
L 368.472691 146.393519 
L 371.81324 49.36426 
L 371.958481 49.776943 
L 372.539446 51.93861 
L 372.829929 49.764908 
L 375.008548 21.073518 
L 375.879995 25.172263 
L 377.477649 44.593827 
L 379.365786 79.028959 
L 385.175436 214.089229 
L 387.789779 230.944634 
L 388.080262 230.073827 
L 391.130328 196.2787 
L 398.537633 20.147971 
L 398.828115 20.570838 
L 402.313906 46.782664 
L 404.637766 108.761973 
L 409.285486 214.831448 
L 411.028381 224.435572 
L 411.464105 224.528695 
L 411.754588 225.05325 
L 411.899829 225.208593 
L 412.190311 224.627319 
L 413.207 218.360038 
L 414.659413 195.1682 
L 421.340511 34.058168 
L 422.938165 24.715797 
L 424.100095 25.112051 
L 424.826301 24.921288 
L 427.00492 59.631006 
L 434.412225 224.806872 
L 434.99319 227.17048 
L 435.574155 226.119928 
L 436.009879 224.899622 
L 438.624222 198.364226 
L 440.802841 162.147957 
L 446.46725 26.115472 
L 447.62918 17.854506 
L 447.919662 18.833264 
L 453.729313 107.049606 
L 457.796068 223.032359 
L 459.393722 229.900341 
L 459.829446 228.861582 
L 460.991376 223.801375 
L 463.896202 185.853101 
L 471.303506 22.446302 
L 471.448747 22.4575 
L 472.610677 25.605664 
L 475.805985 56.729614 
L 480.889429 204.684782 
L 483.794255 224.689736 
L 484.37522 225.801756 
L 484.665702 224.820363 
L 487.86101 187.717128 
L 492.653972 51.293321 
L 494.832591 31.721779 
L 495.84928 28.498904 
L 496.139762 29.598802 
L 497.01121 35.887361 
L 497.737416 40.249685 
L 498.17314 39.360745 
L 498.754105 43.046974 
L 499.480311 57.755098 
L 505.870927 209.998401 
L 508.194787 224.516717 
L 508.775752 222.834466 
L 511.535336 203.351895 
L 515.45685 73.29336 
L 517.344987 38.746086 
L 520.249812 28.426609 
L 520.540295 28.56195 
L 521.847466 27.457895 
L 521.992707 27.267418 
L 522.28319 27.991866 
L 522.718914 31.899864 
L 531.433389 221.82309 
L 531.723872 221.162342 
L 532.014354 220.454496 
L 532.450078 218.256564 
L 533.031043 220.015526 
L 533.176285 220.856654 
L 533.612008 218.090014 
L 536.08111 192.653186 
L 537.388281 156.66214 
L 537.388281 156.66214 
" clip-path="url(#pce4feebbb9)" style="fill: none; stroke: #377eb8; stroke-width: 2; stroke-linecap: square"/>
   </g>
   <g id="patch_3">
    <path d="M 28.942188 241.599141 
L 28.942188 7.2 
" style="fill: none; stroke: #7f7f7f; stroke-width: 1.8; stroke-linejoin: miter; stroke-linecap: square"/>
   </g>
   <g id="patch_4">
    <path d="M 28.942188 241.599141 
L 561.6 241.599141 
" style="fill: none; stroke: #7f7f7f; stroke-width: 1.8; stroke-linejoin: miter; stroke-linecap: square"/>
   </g>
   <g id="legend_1">
    <g id="line2d_18">
     <path d="M 37.942188 211.696016 
L 47.942188 211.696016 
L 57.942188 211.696016 
" style="fill: none; stroke: #e41a1c; stroke-width: 2; stroke-linecap: square"/>
    </g>
    <g id="text_17">
     <!-- Src -->
     <g style="fill: #7f7f7f" transform="translate(65.942188 215.196016) scale(0.1 -0.1)">
      <defs>
       <path id="DejaVuSans-36" d="M 3425 4513 
L 3425 3897 
Q 3066 4069 2747 4153 
Q 2428 4238 2131 4238 
Q 1616 4238 1336 4038 
Q 1056 3838 1056 3469 
Q 1056 3159 1242 3001 
Q 1428 2844 1947 2747 
L 2328 2669 
Q 3034 2534 3370 2195 
Q 3706 1856 3706 1288 
Q 3706 609 3251 259 
Q 2797 -91 1919 -91 
Q 1588 -91 1214 -16 
Q 841 59 441 206 
L 441 856 
Q 825 641 1194 531 
Q 1563 422 1919 422 
Q 2459 422 2753 634 
Q 3047 847 3047 1241 
Q 3047 1584 2836 1778 
Q 2625 1972 2144 2069 
L 1759 2144 
Q 1053 2284 737 2584 
Q 422 2884 422 3419 
Q 422 4038 858 4394 
Q 1294 4750 2059 4750 
Q 2388 4750 2728 4690 
Q 3069 4631 3425 4513 
z
" transform="scale(0.015625)"/>
       <path id="DejaVuSans-55" d="M 2631 2963 
Q 2534 3019 2420 3045 
Q 2306 3072 2169 3072 
Q 1681 3072 1420 2755 
Q 1159 2438 1159 1844 
L 1159 0 
L 581 0 
L 581 3500 
L 1159 3500 
L 1159 2956 
Q 1341 3275 1631 3429 
Q 1922 3584 2338 3584 
Q 2397 3584 2469 3576 
Q 2541 3569 2628 3553 
L 2631 2963 
z
" transform="scale(0.015625)"/>
       <path id="DejaVuSans-46" d="M 3122 3366 
L 3122 2828 
Q 2878 2963 2633 3030 
Q 2388 3097 2138 3097 
Q 1578 3097 1268 2742 
Q 959 2388 959 1747 
Q 959 1106 1268 751 
Q 1578 397 2138 397 
Q 2388 397 2633 464 
Q 2878 531 3122 666 
L 3122 134 
Q 2881 22 2623 -34 
Q 2366 -91 2075 -91 
Q 1284 -91 818 406 
Q 353 903 353 1747 
Q 353 2603 823 3093 
Q 1294 3584 2113 3584 
Q 2378 3584 2631 3529 
Q 2884 3475 3122 3366 
z
" transform="scale(0.015625)"/>
      </defs>
      <use xlink:href="#DejaVuSans-36"/>
      <use xlink:href="#DejaVuSans-55" transform="translate(63.484375 0)"/>
      <use xlink:href="#DejaVuSans-46" transform="translate(102.390625 0)"/>
     </g>
    </g>
    <g id="line2d_19">
     <path d="M 37.942188 226.696797 
L 47.942188 226.696797 
L 57.942188 226.696797 
" style="fill: none; stroke: #377eb8; stroke-width: 2; stroke-linecap: square"/>
    </g>
    <g id="text_18">
     <!-- AMP -->
     <g style="fill: #7f7f7f" transform="translate(65.942188 230.196797) scale(0.1 -0.1)">
      <defs>
       <path id="DejaVuSans-24" d="M 2188 4044 
L 1331 1722 
L 3047 1722 
L 2188 4044 
z
M 1831 4666 
L 2547 4666 
L 4325 0 
L 3669 0 
L 3244 1197 
L 1141 1197 
L 716 0 
L 50 0 
L 1831 4666 
z
" transform="scale(0.015625)"/>
       <path id="DejaVuSans-30" d="M 628 4666 
L 1569 4666 
L 2759 1491 
L 3956 4666 
L 4897 4666 
L 4897 0 
L 4281 0 
L 4281 4097 
L 3078 897 
L 2444 897 
L 1241 4097 
L 1241 0 
L 628 0 
L 628 4666 
z
" transform="scale(0.015625)"/>
       <path id="DejaVuSans-33" d="M 1259 4147 
L 1259 2394 
L 2053 2394 
Q 2494 2394 2734 2622 
Q 2975 2850 2975 3272 
Q 2975 3691 2734 3919 
Q 2494 4147 2053 4147 
L 1259 4147 
z
M 628 4666 
L 2053 4666 
Q 2838 4666 3239 4311 
Q 3641 3956 3641 3272 
Q 3641 2581 3239 2228 
Q 2838 1875 2053 1875 
L 1259 1875 
L 1259 0 
L 628 0 
L 628 4666 
z
" transform="scale(0.015625)"/>
      </defs>
      <use xlink:href="#DejaVuSans-24"/>
      <use xlink:href="#DejaVuSans-30" transform="translate(68.40625 0)"/>
      <use xlink:href="#DejaVuSans-33" transform="translate(154.6875 0)"/>
     </g>
    </g>
   </g>
  </g>
 </g>
 <defs>
  <clipPath id="pce4feebbb9">
   <rect x="28.942188" y="7.2" width="532.657812" height="234.399141"/>
  </clipPath>
 </defs>
</svg>
