<?xml version="1.0" encoding="utf-8" standalone="no"?>
<!DOCTYPE svg PUBLIC "-//W3C//DTD SVG 1.1//EN"
  "http://www.w3.org/Graphics/SVG/1.1/DTD/svg11.dtd">
<svg xmlns:xlink="http://www.w3.org/1999/xlink" width="568.8pt" height="280.8pt" viewBox="0 0 568.8 280.8" xmlns="http://www.w3.org/2000/svg" version="1.1">
 <metadata>
  <rdf:RDF xmlns:dc="http://purl.org/dc/elements/1.1/" xmlns:cc="http://creativecommons.org/ns#" xmlns:rdf="http://www.w3.org/1999/02/22-rdf-syntax-ns#">
   <cc:Work>
    <dc:type rdf:resource="http://purl.org/dc/dcmitype/StillImage"/>
    <dc:date>2026-07-09T19:52:13.602539</dc:date>
    <dc:format>image/svg+xml</dc:format>
    <dc:creator>
     <cc:Agent>
      <dc:title>Matplotlib v3.11.0, https://matplotlib.org/</dc:title>
     </cc:Agent>
    </dc:creator>
   </cc:Work>
  </rdf:RDF>
 </metadata>
 <defs>
  <style type="text/css">*{stroke-linejoin: round; stroke-linecap: butt}</style>
 </defs>
 <g id="figure_1">
  <g id="patch_1">
   <path d="M 0 280.8 
L 568.8 280.8 
L 568.8 0 
L 0 0 
L 0 280.8 
z
" style="fill: none"/>
  </g>
  <g id="axes_1">
   <g id="patch_2">
    <path d="M 28.942188 241.599141 
L 561.6 241.599141 
L 561.6 7.2 
L 28.942188 7.2 
L 28.942188 241.599141 
z
" style="fill: none"/>
   </g>
   <g id="matplotlib.axis_1">
    <g id="xtick_1">
     <g id="line2d_1">
      <defs>
       <path id="m30a7c32468" d="M 0 0 
L 0 3.5 
" style="stroke: #7f7f7f; stroke-width: 1.8"/>
      </defs>
      <g>
       <use xlink:href="#m30a7c32468" x="53.153906" y="241.599141" style="fill: #7f7f7f; stroke: #7f7f7f; stroke-width: 1.8"/>
      </g>
     </g>
     <g id="text_1">
      <!-- 0.00000 -->
      <g style="fill: #7f7f7f" transform="translate(32.477344 256.196797) scale(0.1 -0.1)">
       <defs>
        <path id="DejaVuSans-13" d="M 2034 4250 
Q 1547 4250 1301 3770 
Q 1056 3291 1056 2328 
Q 1056 1369 1301 889 
Q 1547 409 2034 409 
Q 2525 409 2770 889 
Q 3016 1369 3016 2328 
Q 3016 3291 2770 3770 
Q 2525 4250 2034 4250 
z
M 2034 4750 
Q 2819 4750 3233 4129 
Q 3647 3509 3647 2328 
Q 3647 1150 3233 529 
Q 2819 -91 2034 -91 
Q 1250 -91 836 529 
Q 422 1150 422 2328 
Q 422 3509 836 4129 
Q 1250 4750 2034 4750 
z
" transform="scale(0.015625)"/>
        <path id="DejaVuSans-11" d="M 684 794 
L 1344 794 
L 1344 0 
L 684 0 
L 684 794 
z
" transform="scale(0.015625)"/>
       </defs>
       <use xlink:href="#DejaVuSans-13"/>
       <use xlink:href="#DejaVuSans-11" transform="translate(63.625 0)"/>
       <use xlink:href="#DejaVuSans-13" transform="translate(95.40625 0)"/>
       <use xlink:href="#DejaVuSans-13" transform="translate(159.03125 0)"/>
       <use xlink:href="#DejaVuSans-13" transform="translate(222.65625 0)"/>
       <use xlink:href="#DejaVuSans-13" transform="translate(286.28125 0)"/>
       <use xlink:href="#DejaVuSans-13" transform="translate(349.90625 0)"/>
      </g>
     </g>
    </g>
    <g id="xtick_2">
     <g id="line2d_2">
      <g>
       <use xlink:href="#m30a7c32468" x="149.981416" y="241.599141" style="fill: #7f7f7f; stroke: #7f7f7f; stroke-width: 1.8"/>
      </g>
     </g>
     <g id="text_2">
      <!-- 0.00002 -->
      <g style="fill: #7f7f7f" transform="translate(129.304853 256.196797) scale(0.1 -0.1)">
       <defs>
        <path id="DejaVuSans-15" d="M 1228 531 
L 3431 531 
L 3431 0 
L 469 0 
L 469 531 
Q 828 903 1448 1529 
Q 2069 2156 2228 2338 
Q 2531 2678 2651 2914 
Q 2772 3150 2772 3378 
Q 2772 3750 2511 3984 
Q 2250 4219 1831 4219 
Q 1534 4219 1204 4116 
Q 875 4013 500 3803 
L 500 4441 
Q 881 4594 1212 4672 
Q 1544 4750 1819 4750 
Q 2544 4750 2975 4387 
Q 3406 4025 3406 3419 
Q 3406 3131 3298 2873 
Q 3191 2616 2906 2266 
Q 2828 2175 2409 1742 
Q 1991 1309 1228 531 
z
" transform="scale(0.015625)"/>
       </defs>
       <use xlink:href="#DejaVuSans-13"/>
       <use xlink:href="#DejaVuSans-11" transform="translate(63.625 0)"/>
       <use xlink:href="#DejaVuSans-13" transform="translate(95.40625 0)"/>
       <use xlink:href="#DejaVuSans-13" transform="translate(159.03125 0)"/>
       <use xlink:href="#DejaVuSans-13" transform="translate(222.65625 0)"/>
       <use xlink:href="#DejaVuSans-13" transform="translate(286.28125 0)"/>
       <use xlink:href="#DejaVuSans-15" transform="translate(349.90625 0)"/>
      </g>
     </g>
    </g>
    <g id="xtick_3">
     <g id="line2d_3">
      <g>
       <use xlink:href="#m30a7c32468" x="246.808925" y="241.599141" style="fill: #7f7f7f; stroke: #7f7f7f; stroke-width: 1.8"/>
      </g>
     </g>
     <g id="text_3">
      <!-- 0.00004 -->
      <g style="fill: #7f7f7f" transform="translate(226.132363 256.196797) scale(0.1 -0.1)">
       <defs>
        <path id="DejaVuSans-17" d="M 2419 4116 
L 825 1625 
L 2419 1625 
L 2419 4116 
z
M 2253 4666 
L 3047 4666 
L 3047 1625 
L 3713 1625 
L 3713 1100 
L 3047 1100 
L 3047 0 
L 2419 0 
L 2419 1100 
L 313 1100 
L 313 1709 
L 2253 4666 
z
" transform="scale(0.015625)"/>
       </defs>
       <use xlink:href="#DejaVuSans-13"/>
       <use xlink:href="#DejaVuSans-11" transform="translate(63.625 0)"/>
       <use xlink:href="#DejaVuSans-13" transform="translate(95.40625 0)"/>
       <use xlink:href="#DejaVuSans-13" transform="translate(159.03125 0)"/>
       <use xlink:href="#DejaVuSans-13" transform="translate(222.65625 0)"/>
       <use xlink:href="#DejaVuSans-13" transform="translate(286.28125 0)"/>
       <use xlink:href="#DejaVuSans-17" transform="translate(349.90625 0)"/>
      </g>
     </g>
    </g>
    <g id="xtick_4">
     <g id="line2d_4">
      <g>
       <use xlink:href="#m30a7c32468" x="343.636435" y="241.599141" style="fill: #7f7f7f; stroke: #7f7f7f; stroke-width: 1.8"/>
      </g>
     </g>
     <g id="text_4">
      <!-- 0.00006 -->
      <g style="fill: #7f7f7f" transform="translate(322.959872 256.196797) scale(0.1 -0.1)">
       <defs>
        <path id="DejaVuSans-19" d="M 2113 2584 
Q 1688 2584 1439 2293 
Q 1191 2003 1191 1497 
Q 1191 994 1439 701 
Q 1688 409 2113 409 
Q 2538 409 2786 701 
Q 3034 994 3034 1497 
Q 3034 2003 2786 2293 
Q 2538 2584 2113 2584 
z
M 3366 4563 
L 3366 3988 
Q 3128 4100 2886 4159 
Q 2644 4219 2406 4219 
Q 1781 4219 1451 3797 
Q 1122 3375 1075 2522 
Q 1259 2794 1537 2939 
Q 1816 3084 2150 3084 
Q 2853 3084 3261 2657 
Q 3669 2231 3669 1497 
Q 3669 778 3244 343 
Q 2819 -91 2113 -91 
Q 1303 -91 875 529 
Q 447 1150 447 2328 
Q 447 3434 972 4092 
Q 1497 4750 2381 4750 
Q 2619 4750 2861 4703 
Q 3103 4656 3366 4563 
z
" transform="scale(0.015625)"/>
       </defs>
       <use xlink:href="#DejaVuSans-13"/>
       <use xlink:href="#DejaVuSans-11" transform="translate(63.625 0)"/>
       <use xlink:href="#DejaVuSans-13" transform="translate(95.40625 0)"/>
       <use xlink:href="#DejaVuSans-13" transform="translate(159.03125 0)"/>
       <use xlink:href="#DejaVuSans-13" transform="translate(222.65625 0)"/>
       <use xlink:href="#DejaVuSans-13" transform="translate(286.28125 0)"/>
       <use xlink:href="#DejaVuSans-19" transform="translate(349.90625 0)"/>
      </g>
     </g>
    </g>
    <g id="xtick_5">
     <g id="line2d_5">
      <g>
       <use xlink:href="#m30a7c32468" x="440.463944" y="241.599141" style="fill: #7f7f7f; stroke: #7f7f7f; stroke-width: 1.8"/>
      </g>
     </g>
     <g id="text_5">
      <!-- 0.00008 -->
      <g style="fill: #7f7f7f" transform="translate(419.787382 256.196797) scale(0.1 -0.1)">
       <defs>
        <path id="DejaVuSans-1b" d="M 2034 2216 
Q 1584 2216 1326 1975 
Q 1069 1734 1069 1313 
Q 1069 891 1326 650 
Q 1584 409 2034 409 
Q 2484 409 2743 651 
Q 3003 894 3003 1313 
Q 3003 1734 2745 1975 
Q 2488 2216 2034 2216 
z
M 1403 2484 
Q 997 2584 770 2862 
Q 544 3141 544 3541 
Q 544 4100 942 4425 
Q 1341 4750 2034 4750 
Q 2731 4750 3128 4425 
Q 3525 4100 3525 3541 
Q 3525 3141 3298 2862 
Q 3072 2584 2669 2484 
Q 3125 2378 3379 2068 
Q 3634 1759 3634 1313 
Q 3634 634 3220 271 
Q 2806 -91 2034 -91 
Q 1263 -91 848 271 
Q 434 634 434 1313 
Q 434 1759 690 2068 
Q 947 2378 1403 2484 
z
M 1172 3481 
Q 1172 3119 1398 2916 
Q 1625 2713 2034 2713 
Q 2441 2713 2670 2916 
Q 2900 3119 2900 3481 
Q 2900 3844 2670 4047 
Q 2441 4250 2034 4250 
Q 1625 4250 1398 4047 
Q 1172 3844 1172 3481 
z
" transform="scale(0.015625)"/>
       </defs>
       <use xlink:href="#DejaVuSans-13"/>
       <use xlink:href="#DejaVuSans-11" transform="translate(63.625 0)"/>
       <use xlink:href="#DejaVuSans-13" transform="translate(95.40625 0)"/>
       <use xlink:href="#DejaVuSans-13" transform="translate(159.03125 0)"/>
       <use xlink:href="#DejaVuSans-13" transform="translate(222.65625 0)"/>
       <use xlink:href="#DejaVuSans-13" transform="translate(286.28125 0)"/>
       <use xlink:href="#DejaVuSans-1b" transform="translate(349.90625 0)"/>
      </g>
     </g>
    </g>
    <g id="xtick_6">
     <g id="line2d_6">
      <g>
       <use xlink:href="#m30a7c32468" x="537.291454" y="241.599141" style="fill: #7f7f7f; stroke: #7f7f7f; stroke-width: 1.8"/>
      </g>
     </g>
     <g id="text_6">
      <!-- 0.00010 -->
      <g style="fill: #7f7f7f" transform="translate(516.614891 256.196797) scale(0.1 -0.1)">
       <defs>
        <path id="DejaVuSans-14" d="M 794 531 
L 1825 531 
L 1825 4091 
L 703 3866 
L 703 4441 
L 1819 4666 
L 2450 4666 
L 2450 531 
L 3481 531 
L 3481 0 
L 794 0 
L 794 531 
z
" transform="scale(0.015625)"/>
       </defs>
       <use xlink:href="#DejaVuSans-13"/>
       <use xlink:href="#DejaVuSans-11" transform="translate(63.625 0)"/>
       <use xlink:href="#DejaVuSans-13" transform="translate(95.40625 0)"/>
       <use xlink:href="#DejaVuSans-13" transform="translate(159.03125 0)"/>
       <use xlink:href="#DejaVuSans-13" transform="translate(222.65625 0)"/>
       <use xlink:href="#DejaVuSans-14" transform="translate(286.28125 0)"/>
       <use xlink:href="#DejaVuSans-13" transform="translate(349.90625 0)"/>
      </g>
     </g>
    </g>
    <g id="text_7">
     <!-- time [s] -->
     <g style="fill: #7f7f7f" transform="translate(273.940547 270.957422) scale(0.11 -0.11)">
      <defs>
       <path id="DejaVuSans-57" d="M 1172 4494 
L 1172 3500 
L 2356 3500 
L 2356 3053 
L 1172 3053 
L 1172 1153 
Q 1172 725 1289 603 
Q 1406 481 1766 481 
L 2356 481 
L 2356 0 
L 1766 0 
Q 1100 0 847 248 
Q 594 497 594 1153 
L 594 3053 
L 172 3053 
L 172 3500 
L 594 3500 
L 594 4494 
L 1172 4494 
z
" transform="scale(0.015625)"/>
       <path id="DejaVuSans-4c" d="M 603 3500 
L 1178 3500 
L 1178 0 
L 603 0 
L 603 3500 
z
M 603 4863 
L 1178 4863 
L 1178 4134 
L 603 4134 
L 603 4863 
z
" transform="scale(0.015625)"/>
       <path id="DejaVuSans-50" d="M 3328 2828 
Q 3544 3216 3844 3400 
Q 4144 3584 4550 3584 
Q 5097 3584 5394 3201 
Q 5691 2819 5691 2113 
L 5691 0 
L 5113 0 
L 5113 2094 
Q 5113 2597 4934 2840 
Q 4756 3084 4391 3084 
Q 3944 3084 3684 2787 
Q 3425 2491 3425 1978 
L 3425 0 
L 2847 0 
L 2847 2094 
Q 2847 2600 2669 2842 
Q 2491 3084 2119 3084 
Q 1678 3084 1418 2786 
Q 1159 2488 1159 1978 
L 1159 0 
L 581 0 
L 581 3500 
L 1159 3500 
L 1159 2956 
Q 1356 3278 1631 3431 
Q 1906 3584 2284 3584 
Q 2666 3584 2933 3390 
Q 3200 3197 3328 2828 
z
" transform="scale(0.015625)"/>
       <path id="DejaVuSans-48" d="M 3597 1894 
L 3597 1613 
L 953 1613 
Q 991 1019 1311 708 
Q 1631 397 2203 397 
Q 2534 397 2845 478 
Q 3156 559 3463 722 
L 3463 178 
Q 3153 47 2828 -22 
Q 2503 -91 2169 -91 
Q 1331 -91 842 396 
Q 353 884 353 1716 
Q 353 2575 817 3079 
Q 1281 3584 2069 3584 
Q 2775 3584 3186 3129 
Q 3597 2675 3597 1894 
z
M 3022 2063 
Q 3016 2534 2758 2815 
Q 2500 3097 2075 3097 
Q 1594 3097 1305 2825 
Q 1016 2553 972 2059 
L 3022 2063 
z
" transform="scale(0.015625)"/>
       <path id="DejaVuSans-3" transform="scale(0.015625)"/>
       <path id="DejaVuSans-3e" d="M 550 4863 
L 1875 4863 
L 1875 4416 
L 1125 4416 
L 1125 -397 
L 1875 -397 
L 1875 -844 
L 550 -844 
L 550 4863 
z
" transform="scale(0.015625)"/>
       <path id="DejaVuSans-56" d="M 2834 3397 
L 2834 2853 
Q 2591 2978 2328 3040 
Q 2066 3103 1784 3103 
Q 1356 3103 1142 2972 
Q 928 2841 928 2578 
Q 928 2378 1081 2264 
Q 1234 2150 1697 2047 
L 1894 2003 
Q 2506 1872 2764 1633 
Q 3022 1394 3022 966 
Q 3022 478 2636 193 
Q 2250 -91 1575 -91 
Q 1294 -91 989 -36 
Q 684 19 347 128 
L 347 722 
Q 666 556 975 473 
Q 1284 391 1588 391 
Q 1994 391 2212 530 
Q 2431 669 2431 922 
Q 2431 1156 2273 1281 
Q 2116 1406 1581 1522 
L 1381 1569 
Q 847 1681 609 1914 
Q 372 2147 372 2553 
Q 372 3047 722 3315 
Q 1072 3584 1716 3584 
Q 2034 3584 2315 3537 
Q 2597 3491 2834 3397 
z
" transform="scale(0.015625)"/>
       <path id="DejaVuSans-40" d="M 1947 4863 
L 1947 -844 
L 622 -844 
L 622 -397 
L 1369 -397 
L 1369 4416 
L 622 4416 
L 622 4863 
L 1947 4863 
z
" transform="scale(0.015625)"/>
      </defs>
      <use xlink:href="#DejaVuSans-57"/>
      <use xlink:href="#DejaVuSans-4c" transform="translate(39.203125 0)"/>
      <use xlink:href="#DejaVuSans-50" transform="translate(66.984375 0)"/>
      <use xlink:href="#DejaVuSans-48" transform="translate(164.390625 0)"/>
      <use xlink:href="#DejaVuSans-3" transform="translate(225.921875 0)"/>
      <use xlink:href="#DejaVuSans-3e" transform="translate(257.703125 0)"/>
      <use xlink:href="#DejaVuSans-56" transform="translate(296.71875 0)"/>
      <use xlink:href="#DejaVuSans-40" transform="translate(348.8125 0)"/>
     </g>
    </g>
   </g>
   <g id="matplotlib.axis_2">
    <g id="ytick_1">
     <g id="line2d_7">
      <defs>
       <path id="m814845146c" d="M 0 0 
L -3.5 0 
" style="stroke: #7f7f7f; stroke-width: 1.8"/>
      </defs>
      <g>
       <use xlink:href="#m814845146c" x="28.942188" y="234.730222" style="fill: #7f7f7f; stroke: #7f7f7f; stroke-width: 1.8"/>
      </g>
     </g>
     <g id="text_8">
      <!-- −8 -->
      <g style="fill: #7f7f7f" transform="translate(7.2 238.52905) scale(0.1 -0.1)">
       <defs>
        <path id="DejaVuSans-c9c" d="M 678 2272 
L 4684 2272 
L 4684 1741 
L 678 1741 
L 678 2272 
z
" transform="scale(0.015625)"/>
       </defs>
       <use xlink:href="#DejaVuSans-c9c"/>
       <use xlink:href="#DejaVuSans-1b" transform="translate(83.796875 0)"/>
      </g>
     </g>
    </g>
    <g id="ytick_2">
     <g id="line2d_8">
      <g>
       <use xlink:href="#m814845146c" x="28.942188" y="207.840545" style="fill: #7f7f7f; stroke: #7f7f7f; stroke-width: 1.8"/>
      </g>
     </g>
     <g id="text_9">
      <!-- −6 -->
      <g style="fill: #7f7f7f" transform="translate(7.2 211.639373) scale(0.1 -0.1)">
       <use xlink:href="#DejaVuSans-c9c"/>
       <use xlink:href="#DejaVuSans-19" transform="translate(83.796875 0)"/>
      </g>
     </g>
    </g>
    <g id="ytick_3">
     <g id="line2d_9">
      <g>
       <use xlink:href="#m814845146c" x="28.942188" y="180.950869" style="fill: #7f7f7f; stroke: #7f7f7f; stroke-width: 1.8"/>
      </g>
     </g>
     <g id="text_10">
      <!-- −4 -->
      <g style="fill: #7f7f7f" transform="translate(7.2 184.749697) scale(0.1 -0.1)">
       <use xlink:href="#DejaVuSans-c9c"/>
       <use xlink:href="#DejaVuSans-17" transform="translate(83.796875 0)"/>
      </g>
     </g>
    </g>
    <g id="ytick_4">
     <g id="line2d_10">
      <g>
       <use xlink:href="#m814845146c" x="28.942188" y="154.061193" style="fill: #7f7f7f; stroke: #7f7f7f; stroke-width: 1.8"/>
      </g>
     </g>
     <g id="text_11">
      <!-- −2 -->
      <g style="fill: #7f7f7f" transform="translate(7.2 157.860021) scale(0.1 -0.1)">
       <use xlink:href="#DejaVuSans-c9c"/>
       <use xlink:href="#DejaVuSans-15" transform="translate(83.796875 0)"/>
      </g>
     </g>
    </g>
    <g id="ytick_5">
     <g id="line2d_11">
      <g>
       <use xlink:href="#m814845146c" x="28.942188" y="127.171517" style="fill: #7f7f7f; stroke: #7f7f7f; stroke-width: 1.8"/>
      </g>
     </g>
     <g id="text_12">
      <!-- 0 -->
      <g style="fill: #7f7f7f" transform="translate(15.579688 130.970345) scale(0.1 -0.1)">
       <use xlink:href="#DejaVuSans-13"/>
      </g>
     </g>
    </g>
    <g id="ytick_6">
     <g id="line2d_12">
      <g>
       <use xlink:href="#m814845146c" x="28.942188" y="100.281841" style="fill: #7f7f7f; stroke: #7f7f7f; stroke-width: 1.8"/>
      </g>
     </g>
     <g id="text_13">
      <!-- 2 -->
      <g style="fill: #7f7f7f" transform="translate(15.579688 104.080669) scale(0.1 -0.1)">
       <use xlink:href="#DejaVuSans-15"/>
      </g>
     </g>
    </g>
    <g id="ytick_7">
     <g id="line2d_13">
      <g>
       <use xlink:href="#m814845146c" x="28.942188" y="73.392165" style="fill: #7f7f7f; stroke: #7f7f7f; stroke-width: 1.8"/>
      </g>
     </g>
     <g id="text_14">
      <!-- 4 -->
      <g style="fill: #7f7f7f" transform="translate(15.579688 77.190993) scale(0.1 -0.1)">
       <use xlink:href="#DejaVuSans-17"/>
      </g>
     </g>
    </g>
    <g id="ytick_8">
     <g id="line2d_14">
      <g>
       <use xlink:href="#m814845146c" x="28.942188" y="46.502488" style="fill: #7f7f7f; stroke: #7f7f7f; stroke-width: 1.8"/>
      </g>
     </g>
     <g id="text_15">
      <!-- 6 -->
      <g style="fill: #7f7f7f" transform="translate(15.579688 50.301317) scale(0.1 -0.1)">
       <use xlink:href="#DejaVuSans-19"/>
      </g>
     </g>
    </g>
    <g id="ytick_9">
     <g id="line2d_15">
      <g>
       <use xlink:href="#m814845146c" x="28.942188" y="19.612812" style="fill: #7f7f7f; stroke: #7f7f7f; stroke-width: 1.8"/>
      </g>
     </g>
     <g id="text_16">
      <!-- 8 -->
      <g style="fill: #7f7f7f" transform="translate(15.579688 23.41164) scale(0.1 -0.1)">
       <use xlink:href="#DejaVuSans-1b"/>
      </g>
     </g>
    </g>
   </g>
   <g id="line2d_16">
    <path d="M 53.153906 127.171517 
L 57.656385 114.799149 
L 59.544522 113.778662 
L 61.142176 115.389715 
L 63.611277 121.600304 
L 70.437617 140.273873 
L 72.035271 140.37821 
L 73.778166 137.948455 
L 76.682991 129.524674 
L 82.056918 114.550392 
L 83.945054 113.854923 
L 85.542708 115.730034 
L 88.157051 122.696812 
L 94.402425 140.058687 
L 96.14532 140.43735 
L 97.742974 138.431946 
L 100.502558 130.841311 
L 106.312209 114.493162 
L 108.200345 113.879254 
L 109.797999 115.819665 
L 112.412342 122.856482 
L 118.512475 139.958318 
L 120.25537 140.48811 
L 121.853024 138.613 
L 124.467367 131.646222 
L 130.712741 114.284347 
L 132.455637 113.905684 
L 134.05329 115.911088 
L 136.812874 123.501722 
L 142.622525 139.849872 
L 144.510661 140.46378 
L 146.108315 138.523369 
L 148.722658 131.486552 
L 154.822791 114.384716 
L 156.565686 113.854923 
L 158.16334 115.730034 
L 160.777683 122.696812 
L 167.023057 140.058687 
L 168.765953 140.43735 
L 170.363606 138.431946 
L 173.123191 130.841311 
L 178.932841 114.493162 
L 180.820978 113.879254 
L 182.418631 115.819665 
L 185.032974 122.856482 
L 191.133107 139.958318 
L 192.876002 140.48811 
L 194.473656 138.613 
L 197.087999 131.646222 
L 203.333373 114.284347 
L 205.076269 113.905684 
L 206.673923 115.911088 
L 209.433507 123.501722 
L 215.243157 139.849872 
L 217.131294 140.46378 
L 218.728947 138.523369 
L 221.34329 131.486552 
L 227.443423 114.384716 
L 229.186319 113.854923 
L 230.783972 115.730034 
L 233.398315 122.696812 
L 239.64369 140.058687 
L 241.386585 140.43735 
L 242.984239 138.431946 
L 245.743823 130.841311 
L 251.553473 114.493162 
L 253.44161 113.879254 
L 255.039264 115.819665 
L 257.653606 122.856482 
L 263.753739 139.958318 
L 265.496635 140.48811 
L 267.094288 138.613 
L 269.708631 131.646222 
L 275.954006 114.284347 
L 277.696901 113.905684 
L 279.294555 115.911088 
L 282.054139 123.501722 
L 287.863789 139.849872 
L 289.751926 140.46378 
L 291.34958 138.523369 
L 293.963922 131.486552 
L 300.064055 114.384716 
L 301.806951 113.854923 
L 303.404605 115.730034 
L 306.018947 122.696812 
L 312.264322 140.058687 
L 314.007217 140.43735 
L 315.604871 138.431946 
L 318.364455 130.841311 
L 324.174105 114.493162 
L 326.062242 113.879254 
L 327.659896 115.819665 
L 330.274238 122.856482 
L 336.374372 139.958318 
L 338.117267 140.48811 
L 339.714921 138.613 
L 342.329263 131.646222 
L 348.574638 114.284347 
L 350.317533 113.905684 
L 351.915187 115.911088 
L 354.674771 123.501722 
L 360.484421 139.849872 
L 362.372558 140.46378 
L 363.970212 138.523369 
L 366.584554 131.486552 
L 372.684688 114.384716 
L 374.427583 113.854923 
L 376.025237 115.730034 
L 378.639579 122.696812 
L 384.884954 140.058687 
L 386.627849 140.43735 
L 388.225503 138.431946 
L 390.985087 130.841311 
L 396.794737 114.493162 
L 398.682874 113.879254 
L 400.280528 115.819665 
L 402.894871 122.856482 
L 408.995004 139.958318 
L 410.737899 140.48811 
L 412.335553 138.613 
L 414.949895 131.646222 
L 421.19527 114.284347 
L 422.938165 113.905684 
L 424.535819 115.911088 
L 427.295403 123.501722 
L 433.105054 139.849872 
L 434.99319 140.46378 
L 436.590844 138.523369 
L 439.205187 131.486552 
L 445.30532 114.384716 
L 447.048215 113.854923 
L 448.645869 115.730034 
L 451.260212 122.696812 
L 457.505586 140.058687 
L 459.248481 140.43735 
L 460.846135 138.431946 
L 463.605719 130.841311 
L 469.41537 114.493162 
L 471.303506 113.879254 
L 472.90116 115.819665 
L 475.515503 122.856482 
L 481.615636 139.958318 
L 483.358531 140.48811 
L 484.956185 138.613 
L 487.570528 131.646222 
L 493.815902 114.284347 
L 495.558797 113.905684 
L 497.156451 115.911088 
L 499.916035 123.501722 
L 505.725686 139.849872 
L 507.613822 140.46378 
L 509.211476 138.523369 
L 511.825819 131.486552 
L 517.925952 114.384716 
L 519.668847 113.854923 
L 521.266501 115.730034 
L 523.880844 122.696812 
L 530.126218 140.058687 
L 531.869113 140.43735 
L 533.466767 138.431946 
L 536.226351 130.841311 
L 537.388281 126.833647 
L 537.388281 126.833647 
" clip-path="url(#pc26c633eee)" style="fill: none; stroke: #e41a1c; stroke-width: 2; stroke-linecap: square"/>
   </g>
   <g id="line2d_17">
    <path d="M 53.153906 127.171517 
L 53.734871 121.111796 
L 60.415969 24.047653 
L 61.142176 23.236192 
L 61.723141 23.81995 
L 62.594588 33.000806 
L 65.789896 98.118187 
L 70.582858 212.80928 
L 72.470994 225.118578 
L 73.051959 221.704075 
L 75.666302 201.367114 
L 78.716369 113.579728 
L 81.475953 49.079965 
L 83.945054 22.564785 
L 84.235537 21.82187 
L 84.671261 23.134029 
L 86.268914 29.361216 
L 87.576086 44.668792 
L 89.17374 74.234541 
L 91.4976 152.274225 
L 94.257184 213.282205 
L 95.564355 220.446657 
L 95.709597 220.381168 
L 98.323939 216.534783 
L 99.776352 199.720592 
L 101.519247 153.544801 
L 105.005038 53.466928 
L 107.183657 30.174352 
L 108.78131 27.078925 
L 109.071793 25.495726 
L 109.652758 27.820081 
L 110.378964 35.211392 
L 111.686136 50.321287 
L 111.976618 50.08348 
L 112.412342 52.31103 
L 113.138548 70.197263 
L 118.512475 212.902597 
L 120.110129 226.758692 
L 120.400612 225.551139 
L 120.545853 224.942268 
L 121.126818 225.949989 
L 121.4173 226.419328 
L 121.998266 225.828517 
L 124.031643 209.841702 
L 125.484056 171.304003 
L 128.679364 88.02765 
L 132.455637 21.996431 
L 132.89136 20.52262 
L 133.327084 21.978724 
L 133.762808 22.917322 
L 136.377151 54.880718 
L 138.410528 107.211161 
L 142.332042 215.684994 
L 143.348731 219.906859 
L 145.091627 229.799585 
L 145.236868 229.523403 
L 147.560728 217.182189 
L 148.577417 196.969337 
L 156.129963 32.449098 
L 156.275204 32.527562 
L 156.710928 31.481437 
L 158.018099 29.979404 
L 158.16334 29.884022 
L 158.453823 30.797127 
L 159.034788 29.905858 
L 159.615753 34.871256 
L 160.922924 55.228798 
L 163.101543 116.609829 
L 165.715886 196.589878 
L 168.039746 225.145972 
L 168.184988 224.93048 
L 168.47547 225.803928 
L 168.620711 226.161561 
L 169.056435 224.712228 
L 170.363606 222.398937 
L 170.79933 222.914247 
L 171.089813 221.881664 
L 172.542225 201.364874 
L 175.156568 138.18961 
L 178.206635 44.029183 
L 180.240012 17.854506 
L 180.385254 18.098099 
L 182.128149 25.160483 
L 182.563873 24.370152 
L 182.709114 23.939264 
L 182.999596 24.629736 
L 184.742492 48.488945 
L 192.004555 219.359252 
L 192.295037 219.235377 
L 192.876002 220.906937 
L 193.602209 222.82324 
L 193.892691 221.743295 
L 195.780828 215.057488 
L 197.814205 181.468285 
L 203.623856 27.702917 
L 204.785786 25.439017 
L 206.092958 21.149842 
L 206.673923 22.261974 
L 208.562059 44.119479 
L 210.595437 80.750201 
L 214.662192 199.740513 
L 217.8575 228.110024 
L 218.583706 225.671757 
L 221.198049 199.870112 
L 224.102874 124.019031 
L 228.750595 23.16297 
L 228.895836 22.767216 
L 229.186319 23.762234 
L 230.638731 26.162802 
L 231.65542 33.018035 
L 234.415004 64.549319 
L 235.867417 113.968413 
L 239.062724 211.499804 
L 241.531826 230.844057 
L 241.96755 230.254088 
L 244.436651 213.109798 
L 246.905753 151.096231 
L 250.972508 43.739691 
L 253.44161 23.812237 
L 254.167816 20.792824 
L 254.60354 21.970267 
L 255.184505 24.124988 
L 256.9274 41.044802 
L 265.206152 221.408923 
L 266.368082 226.403639 
L 266.803806 224.843141 
L 268.837184 198.761215 
L 271.88725 127.313108 
L 275.082558 45.181425 
L 277.987383 27.347578 
L 278.568348 26.568031 
L 279.004072 27.248605 
L 280.456485 38.434755 
L 281.618415 53.611511 
L 290.042408 230.618769 
L 290.332891 230.944634 
L 290.623373 229.902552 
L 292.947234 215.778014 
L 295.561576 151.070615 
L 300.645021 31.370046 
L 302.387916 19.16458 
L 303.114122 22.069874 
L 305.002258 38.577817 
L 307.180877 88.365466 
L 310.95715 192.927381 
L 313.281011 225.759521 
L 313.571493 225.607743 
L 313.861976 223.94508 
L 314.588182 216.682644 
L 315.169147 218.317601 
L 315.604871 216.42737 
L 318.364455 183.589302 
L 320.10735 148.918808 
L 325.336035 22.550048 
L 325.481277 22.67665 
L 325.917001 23.710548 
L 326.643207 23.285701 
L 327.805137 22.446639 
L 328.095619 23.175379 
L 330.564721 46.423741 
L 334.486235 161.117553 
L 338.843473 228.379657 
L 339.279197 228.973177 
L 339.569679 227.660845 
L 340.441127 221.807674 
L 342.619746 182.099218 
L 349.736568 26.591695 
L 349.881809 25.992915 
L 350.608015 26.620173 
L 353.222358 32.132683 
L 354.52953 57.660534 
L 362.082075 219.306357 
L 363.82497 224.303264 
L 364.115453 223.255351 
L 366.294072 193.149528 
L 374.863307 22.711561 
L 375.734754 24.349974 
L 377.477649 31.993456 
L 378.639579 45.683755 
L 381.834887 130.966026 
L 385.030195 218.607029 
L 385.465919 222.594985 
L 386.192125 220.587159 
L 390.258881 200.15704 
L 398.392391 19.821517 
L 398.828115 19.256316 
L 399.118598 19.739355 
L 401.151975 27.250396 
L 401.442458 26.960914 
L 401.587699 26.722661 
L 402.023423 27.918556 
L 403.040112 45.380913 
L 404.637766 91.17267 
L 407.687832 193.828453 
L 410.447416 223.357712 
L 410.88314 225.46928 
L 411.318864 223.306065 
L 413.207 211.179923 
L 413.787965 204.196072 
L 415.676102 165.215843 
L 422.3572 21.732348 
L 422.502441 21.749607 
L 422.938165 23.035517 
L 423.809613 26.175758 
L 425.84299 42.106744 
L 427.00492 50.421515 
L 434.412225 218.430476 
L 435.574155 224.758059 
L 436.009879 222.877947 
L 436.590844 220.32167 
L 438.914704 198.965176 
L 442.255253 107.277547 
L 445.741044 24.392401 
L 446.612491 19.745992 
L 447.048215 20.019783 
L 448.210145 21.253182 
L 449.517316 26.753584 
L 451.550694 52.078 
L 458.812757 223.073809 
L 460.119929 228.464169 
L 460.410411 227.416756 
L 462.58903 210.70003 
L 463.605719 193.920181 
L 468.979646 42.137563 
L 471.303506 25.312838 
L 473.191642 20.608838 
L 473.336884 21.219196 
L 476.532192 65.578947 
L 482.922807 225.247319 
L 483.068048 225.876554 
L 483.794255 224.910612 
L 486.69908 215.086613 
L 487.715769 193.929821 
L 493.670661 35.477747 
L 495.558797 22.437141 
L 495.704038 22.517098 
L 496.430245 25.967692 
L 500.497 65.662255 
L 501.949413 116.502586 
L 504.418514 179.044203 
L 507.468581 226.170346 
L 508.194787 229.687425 
L 508.775752 228.454043 
L 509.6472 225.280957 
L 510.228165 221.272574 
L 512.406784 180.781132 
L 518.071193 37.224355 
L 519.523606 23.512797 
L 519.814088 24.07249 
L 520.104571 23.866391 
L 520.540295 24.634359 
L 521.411742 29.355676 
L 524.897533 78.220086 
L 530.126218 213.176898 
L 531.723872 225.246677 
L 532.159596 224.640631 
L 532.740561 221.00699 
L 536.371592 176.132913 
L 537.388281 147.334823 
L 537.388281 147.334823 
" clip-path="url(#pc26c633eee)" style="fill: none; stroke: #377eb8; stroke-width: 2; stroke-linecap: square"/>
   </g>
   <g id="patch_3">
    <path d="M 28.942188 241.599141 
L 28.942188 7.2 
" style="fill: none; stroke: #7f7f7f; stroke-width: 1.8; stroke-linejoin: miter; stroke-linecap: square"/>
   </g>
   <g id="patch_4">
    <path d="M 28.942188 241.599141 
L 561.6 241.599141 
" style="fill: none; stroke: #7f7f7f; stroke-width: 1.8; stroke-linejoin: miter; stroke-linecap: square"/>
   </g>
   <g id="legend_1">
    <g id="line2d_18">
     <path d="M 503.101562 20.298438 
L 513.101562 20.298438 
L 523.101562 20.298438 
" style="fill: none; stroke: #e41a1c; stroke-width: 2; stroke-linecap: square"/>
    </g>
    <g id="text_17">
     <!-- Src -->
     <g style="fill: #7f7f7f" transform="translate(531.101562 23.798438) scale(0.1 -0.1)">
      <defs>
       <path id="DejaVuSans-36" d="M 3425 4513 
L 3425 3897 
Q 3066 4069 2747 4153 
Q 2428 4238 2131 4238 
Q 1616 4238 1336 4038 
Q 1056 3838 1056 3469 
Q 1056 3159 1242 3001 
Q 1428 2844 1947 2747 
L 2328 2669 
Q 3034 2534 3370 2195 
Q 3706 1856 3706 1288 
Q 3706 609 3251 259 
Q 2797 -91 1919 -91 
Q 1588 -91 1214 -16 
Q 841 59 441 206 
L 441 856 
Q 825 641 1194 531 
Q 1563 422 1919 422 
Q 2459 422 2753 634 
Q 3047 847 3047 1241 
Q 3047 1584 2836 1778 
Q 2625 1972 2144 2069 
L 1759 2144 
Q 1053 2284 737 2584 
Q 422 2884 422 3419 
Q 422 4038 858 4394 
Q 1294 4750 2059 4750 
Q 2388 4750 2728 4690 
Q 3069 4631 3425 4513 
z
" transform="scale(0.015625)"/>
       <path id="DejaVuSans-55" d="M 2631 2963 
Q 2534 3019 2420 3045 
Q 2306 3072 2169 3072 
Q 1681 3072 1420 2755 
Q 1159 2438 1159 1844 
L 1159 0 
L 581 0 
L 581 3500 
L 1159 3500 
L 1159 2956 
Q 1341 3275 1631 3429 
Q 1922 3584 2338 3584 
Q 2397 3584 2469 3576 
Q 2541 3569 2628 3553 
L 2631 2963 
z
" transform="scale(0.015625)"/>
       <path id="DejaVuSans-46" d="M 3122 3366 
L 3122 2828 
Q 2878 2963 2633 3030 
Q 2388 3097 2138 3097 
Q 1578 3097 1268 2742 
Q 959 2388 959 1747 
Q 959 1106 1268 751 
Q 1578 397 2138 397 
Q 2388 397 2633 464 
Q 2878 531 3122 666 
L 3122 134 
Q 2881 22 2623 -34 
Q 2366 -91 2075 -91 
Q 1284 -91 818 406 
Q 353 903 353 1747 
Q 353 2603 823 3093 
Q 1294 3584 2113 3584 
Q 2378 3584 2631 3529 
Q 2884 3475 3122 3366 
z
" transform="scale(0.015625)"/>
      </defs>
      <use xlink:href="#DejaVuSans-36"/>
      <use xlink:href="#DejaVuSans-55" transform="translate(63.484375 0)"/>
      <use xlink:href="#DejaVuSans-46" transform="translate(102.390625 0)"/>
     </g>
    </g>
    <g id="line2d_19">
     <path d="M 503.101562 35.299219 
L 513.101562 35.299219 
L 523.101562 35.299219 
" style="fill: none; stroke: #377eb8; stroke-width: 2; stroke-linecap: square"/>
    </g>
    <g id="text_18">
     <!-- AMP -->
     <g style="fill: #7f7f7f" transform="translate(531.101562 38.799219) scale(0.1 -0.1)">
      <defs>
       <path id="DejaVuSans-24" d="M 2188 4044 
L 1331 1722 
L 3047 1722 
L 2188 4044 
z
M 1831 4666 
L 2547 4666 
L 4325 0 
L 3669 0 
L 3244 1197 
L 1141 1197 
L 716 0 
L 50 0 
L 1831 4666 
z
" transform="scale(0.015625)"/>
       <path id="DejaVuSans-30" d="M 628 4666 
L 1569 4666 
L 2759 1491 
L 3956 4666 
L 4897 4666 
L 4897 0 
L 4281 0 
L 4281 4097 
L 3078 897 
L 2444 897 
L 1241 4097 
L 1241 0 
L 628 0 
L 628 4666 
z
" transform="scale(0.015625)"/>
       <path id="DejaVuSans-33" d="M 1259 4147 
L 1259 2394 
L 2053 2394 
Q 2494 2394 2734 2622 
Q 2975 2850 2975 3272 
Q 2975 3691 2734 3919 
Q 2494 4147 2053 4147 
L 1259 4147 
z
M 628 4666 
L 2053 4666 
Q 2838 4666 3239 4311 
Q 3641 3956 3641 3272 
Q 3641 2581 3239 2228 
Q 2838 1875 2053 1875 
L 1259 1875 
L 1259 0 
L 628 0 
L 628 4666 
z
" transform="scale(0.015625)"/>
      </defs>
      <use xlink:href="#DejaVuSans-24"/>
      <use xlink:href="#DejaVuSans-30" transform="translate(68.40625 0)"/>
      <use xlink:href="#DejaVuSans-33" transform="translate(154.6875 0)"/>
     </g>
    </g>
   </g>
  </g>
 </g>
 <defs>
  <clipPath id="pc26c633eee">
   <rect x="28.942188" y="7.2" width="532.657812" height="234.399141"/>
  </clipPath>
 </defs>
</svg>
