<?xml version="1.0" encoding="utf-8" standalone="no"?>
<!DOCTYPE svg PUBLIC "-//W3C//DTD SVG 1.1//EN"
  "http://www.w3.org/Graphics/SVG/1.1/DTD/svg11.dtd">
<svg xmlns:xlink="http://www.w3.org/1999/xlink" width="568.8pt" height="280.8pt" viewBox="0 0 568.8 280.8" xmlns="http://www.w3.org/2000/svg" version="1.1">
 <metadata>
  <rdf:RDF xmlns:dc="http://purl.org/dc/elements/1.1/" xmlns:cc="http://creativecommons.org/ns#" xmlns:rdf="http://www.w3.org/1999/02/22-rdf-syntax-ns#">
   <cc:Work>
    <dc:type rdf:resource="http://purl.org/dc/dcmitype/StillImage"/>
    <dc:date>2026-07-19T19:18:03.482402</dc:date>
    <dc:format>image/svg+xml</dc:format>
    <dc:creator>
     <cc:Agent>
      <dc:title>Matplotlib v3.11.1, https://matplotlib.org/</dc:title>
     </cc:Agent>
    </dc:creator>
   </cc:Work>
  </rdf:RDF>
 </metadata>
 <defs>
  <style type="text/css">*{stroke-linejoin: round; stroke-linecap: butt}</style>
 </defs>
 <g id="figure_1">
  <g id="patch_1">
   <path d="M 0 280.8 
L 568.8 280.8 
L 568.8 0 
L 0 0 
L 0 280.8 
z
" style="fill: none"/>
  </g>
  <g id="axes_1">
   <g id="patch_2">
    <path d="M 28.942188 241.599141 
L 561.6 241.599141 
L 561.6 7.2 
L 28.942188 7.2 
L 28.942188 241.599141 
z
" style="fill: none"/>
   </g>
   <g id="matplotlib.axis_1">
    <g id="xtick_1">
     <g id="line2d_1">
      <defs>
       <path id="m52f7fd60fe" d="M 0 0 
L 0 3.5 
" style="stroke: #7f7f7f; stroke-width: 1.8"/>
      </defs>
      <g>
       <use xlink:href="#m52f7fd60fe" x="53.153906" y="241.599141" style="fill: #7f7f7f; stroke: #7f7f7f; stroke-width: 1.8"/>
      </g>
     </g>
     <g id="text_1">
      <!-- 0.00000 -->
      <g style="fill: #7f7f7f" transform="translate(32.477344 256.196797) scale(0.1 -0.1)">
       <defs>
        <path id="DejaVuSans-13" d="M 2034 4250 
Q 1547 4250 1301 3770 
Q 1056 3291 1056 2328 
Q 1056 1369 1301 889 
Q 1547 409 2034 409 
Q 2525 409 2770 889 
Q 3016 1369 3016 2328 
Q 3016 3291 2770 3770 
Q 2525 4250 2034 4250 
z
M 2034 4750 
Q 2819 4750 3233 4129 
Q 3647 3509 3647 2328 
Q 3647 1150 3233 529 
Q 2819 -91 2034 -91 
Q 1250 -91 836 529 
Q 422 1150 422 2328 
Q 422 3509 836 4129 
Q 1250 4750 2034 4750 
z
" transform="scale(0.015625)"/>
        <path id="DejaVuSans-11" d="M 684 794 
L 1344 794 
L 1344 0 
L 684 0 
L 684 794 
z
" transform="scale(0.015625)"/>
       </defs>
       <use xlink:href="#DejaVuSans-13"/>
       <use xlink:href="#DejaVuSans-11" transform="translate(63.625 0)"/>
       <use xlink:href="#DejaVuSans-13" transform="translate(95.40625 0)"/>
       <use xlink:href="#DejaVuSans-13" transform="translate(159.03125 0)"/>
       <use xlink:href="#DejaVuSans-13" transform="translate(222.65625 0)"/>
       <use xlink:href="#DejaVuSans-13" transform="translate(286.28125 0)"/>
       <use xlink:href="#DejaVuSans-13" transform="translate(349.90625 0)"/>
      </g>
     </g>
    </g>
    <g id="xtick_2">
     <g id="line2d_2">
      <g>
       <use xlink:href="#m52f7fd60fe" x="149.981416" y="241.599141" style="fill: #7f7f7f; stroke: #7f7f7f; stroke-width: 1.8"/>
      </g>
     </g>
     <g id="text_2">
      <!-- 0.00002 -->
      <g style="fill: #7f7f7f" transform="translate(129.304853 256.196797) scale(0.1 -0.1)">
       <defs>
        <path id="DejaVuSans-15" d="M 1228 531 
L 3431 531 
L 3431 0 
L 469 0 
L 469 531 
Q 828 903 1448 1529 
Q 2069 2156 2228 2338 
Q 2531 2678 2651 2914 
Q 2772 3150 2772 3378 
Q 2772 3750 2511 3984 
Q 2250 4219 1831 4219 
Q 1534 4219 1204 4116 
Q 875 4013 500 3803 
L 500 4441 
Q 881 4594 1212 4672 
Q 1544 4750 1819 4750 
Q 2544 4750 2975 4387 
Q 3406 4025 3406 3419 
Q 3406 3131 3298 2873 
Q 3191 2616 2906 2266 
Q 2828 2175 2409 1742 
Q 1991 1309 1228 531 
z
" transform="scale(0.015625)"/>
       </defs>
       <use xlink:href="#DejaVuSans-13"/>
       <use xlink:href="#DejaVuSans-11" transform="translate(63.625 0)"/>
       <use xlink:href="#DejaVuSans-13" transform="translate(95.40625 0)"/>
       <use xlink:href="#DejaVuSans-13" transform="translate(159.03125 0)"/>
       <use xlink:href="#DejaVuSans-13" transform="translate(222.65625 0)"/>
       <use xlink:href="#DejaVuSans-13" transform="translate(286.28125 0)"/>
       <use xlink:href="#DejaVuSans-15" transform="translate(349.90625 0)"/>
      </g>
     </g>
    </g>
    <g id="xtick_3">
     <g id="line2d_3">
      <g>
       <use xlink:href="#m52f7fd60fe" x="246.808925" y="241.599141" style="fill: #7f7f7f; stroke: #7f7f7f; stroke-width: 1.8"/>
      </g>
     </g>
     <g id="text_3">
      <!-- 0.00004 -->
      <g style="fill: #7f7f7f" transform="translate(226.132363 256.196797) scale(0.1 -0.1)">
       <defs>
        <path id="DejaVuSans-17" d="M 2419 4116 
L 825 1625 
L 2419 1625 
L 2419 4116 
z
M 2253 4666 
L 3047 4666 
L 3047 1625 
L 3713 1625 
L 3713 1100 
L 3047 1100 
L 3047 0 
L 2419 0 
L 2419 1100 
L 313 1100 
L 313 1709 
L 2253 4666 
z
" transform="scale(0.015625)"/>
       </defs>
       <use xlink:href="#DejaVuSans-13"/>
       <use xlink:href="#DejaVuSans-11" transform="translate(63.625 0)"/>
       <use xlink:href="#DejaVuSans-13" transform="translate(95.40625 0)"/>
       <use xlink:href="#DejaVuSans-13" transform="translate(159.03125 0)"/>
       <use xlink:href="#DejaVuSans-13" transform="translate(222.65625 0)"/>
       <use xlink:href="#DejaVuSans-13" transform="translate(286.28125 0)"/>
       <use xlink:href="#DejaVuSans-17" transform="translate(349.90625 0)"/>
      </g>
     </g>
    </g>
    <g id="xtick_4">
     <g id="line2d_4">
      <g>
       <use xlink:href="#m52f7fd60fe" x="343.636435" y="241.599141" style="fill: #7f7f7f; stroke: #7f7f7f; stroke-width: 1.8"/>
      </g>
     </g>
     <g id="text_4">
      <!-- 0.00006 -->
      <g style="fill: #7f7f7f" transform="translate(322.959872 256.196797) scale(0.1 -0.1)">
       <defs>
        <path id="DejaVuSans-19" d="M 2113 2584 
Q 1688 2584 1439 2293 
Q 1191 2003 1191 1497 
Q 1191 994 1439 701 
Q 1688 409 2113 409 
Q 2538 409 2786 701 
Q 3034 994 3034 1497 
Q 3034 2003 2786 2293 
Q 2538 2584 2113 2584 
z
M 3366 4563 
L 3366 3988 
Q 3128 4100 2886 4159 
Q 2644 4219 2406 4219 
Q 1781 4219 1451 3797 
Q 1122 3375 1075 2522 
Q 1259 2794 1537 2939 
Q 1816 3084 2150 3084 
Q 2853 3084 3261 2657 
Q 3669 2231 3669 1497 
Q 3669 778 3244 343 
Q 2819 -91 2113 -91 
Q 1303 -91 875 529 
Q 447 1150 447 2328 
Q 447 3434 972 4092 
Q 1497 4750 2381 4750 
Q 2619 4750 2861 4703 
Q 3103 4656 3366 4563 
z
" transform="scale(0.015625)"/>
       </defs>
       <use xlink:href="#DejaVuSans-13"/>
       <use xlink:href="#DejaVuSans-11" transform="translate(63.625 0)"/>
       <use xlink:href="#DejaVuSans-13" transform="translate(95.40625 0)"/>
       <use xlink:href="#DejaVuSans-13" transform="translate(159.03125 0)"/>
       <use xlink:href="#DejaVuSans-13" transform="translate(222.65625 0)"/>
       <use xlink:href="#DejaVuSans-13" transform="translate(286.28125 0)"/>
       <use xlink:href="#DejaVuSans-19" transform="translate(349.90625 0)"/>
      </g>
     </g>
    </g>
    <g id="xtick_5">
     <g id="line2d_5">
      <g>
       <use xlink:href="#m52f7fd60fe" x="440.463944" y="241.599141" style="fill: #7f7f7f; stroke: #7f7f7f; stroke-width: 1.8"/>
      </g>
     </g>
     <g id="text_5">
      <!-- 0.00008 -->
      <g style="fill: #7f7f7f" transform="translate(419.787382 256.196797) scale(0.1 -0.1)">
       <defs>
        <path id="DejaVuSans-1b" d="M 2034 2216 
Q 1584 2216 1326 1975 
Q 1069 1734 1069 1313 
Q 1069 891 1326 650 
Q 1584 409 2034 409 
Q 2484 409 2743 651 
Q 3003 894 3003 1313 
Q 3003 1734 2745 1975 
Q 2488 2216 2034 2216 
z
M 1403 2484 
Q 997 2584 770 2862 
Q 544 3141 544 3541 
Q 544 4100 942 4425 
Q 1341 4750 2034 4750 
Q 2731 4750 3128 4425 
Q 3525 4100 3525 3541 
Q 3525 3141 3298 2862 
Q 3072 2584 2669 2484 
Q 3125 2378 3379 2068 
Q 3634 1759 3634 1313 
Q 3634 634 3220 271 
Q 2806 -91 2034 -91 
Q 1263 -91 848 271 
Q 434 634 434 1313 
Q 434 1759 690 2068 
Q 947 2378 1403 2484 
z
M 1172 3481 
Q 1172 3119 1398 2916 
Q 1625 2713 2034 2713 
Q 2441 2713 2670 2916 
Q 2900 3119 2900 3481 
Q 2900 3844 2670 4047 
Q 2441 4250 2034 4250 
Q 1625 4250 1398 4047 
Q 1172 3844 1172 3481 
z
" transform="scale(0.015625)"/>
       </defs>
       <use xlink:href="#DejaVuSans-13"/>
       <use xlink:href="#DejaVuSans-11" transform="translate(63.625 0)"/>
       <use xlink:href="#DejaVuSans-13" transform="translate(95.40625 0)"/>
       <use xlink:href="#DejaVuSans-13" transform="translate(159.03125 0)"/>
       <use xlink:href="#DejaVuSans-13" transform="translate(222.65625 0)"/>
       <use xlink:href="#DejaVuSans-13" transform="translate(286.28125 0)"/>
       <use xlink:href="#DejaVuSans-1b" transform="translate(349.90625 0)"/>
      </g>
     </g>
    </g>
    <g id="xtick_6">
     <g id="line2d_6">
      <g>
       <use xlink:href="#m52f7fd60fe" x="537.291454" y="241.599141" style="fill: #7f7f7f; stroke: #7f7f7f; stroke-width: 1.8"/>
      </g>
     </g>
     <g id="text_6">
      <!-- 0.00010 -->
      <g style="fill: #7f7f7f" transform="translate(516.614891 256.196797) scale(0.1 -0.1)">
       <defs>
        <path id="DejaVuSans-14" d="M 794 531 
L 1825 531 
L 1825 4091 
L 703 3866 
L 703 4441 
L 1819 4666 
L 2450 4666 
L 2450 531 
L 3481 531 
L 3481 0 
L 794 0 
L 794 531 
z
" transform="scale(0.015625)"/>
       </defs>
       <use xlink:href="#DejaVuSans-13"/>
       <use xlink:href="#DejaVuSans-11" transform="translate(63.625 0)"/>
       <use xlink:href="#DejaVuSans-13" transform="translate(95.40625 0)"/>
       <use xlink:href="#DejaVuSans-13" transform="translate(159.03125 0)"/>
       <use xlink:href="#DejaVuSans-13" transform="translate(222.65625 0)"/>
       <use xlink:href="#DejaVuSans-14" transform="translate(286.28125 0)"/>
       <use xlink:href="#DejaVuSans-13" transform="translate(349.90625 0)"/>
      </g>
     </g>
    </g>
    <g id="text_7">
     <!-- time [s] -->
     <g style="fill: #7f7f7f" transform="translate(273.940547 270.957422) scale(0.11 -0.11)">
      <defs>
       <path id="DejaVuSans-57" d="M 1172 4494 
L 1172 3500 
L 2356 3500 
L 2356 3053 
L 1172 3053 
L 1172 1153 
Q 1172 725 1289 603 
Q 1406 481 1766 481 
L 2356 481 
L 2356 0 
L 1766 0 
Q 1100 0 847 248 
Q 594 497 594 1153 
L 594 3053 
L 172 3053 
L 172 3500 
L 594 3500 
L 594 4494 
L 1172 4494 
z
" transform="scale(0.015625)"/>
       <path id="DejaVuSans-4c" d="M 603 3500 
L 1178 3500 
L 1178 0 
L 603 0 
L 603 3500 
z
M 603 4863 
L 1178 4863 
L 1178 4134 
L 603 4134 
L 603 4863 
z
" transform="scale(0.015625)"/>
       <path id="DejaVuSans-50" d="M 3328 2828 
Q 3544 3216 3844 3400 
Q 4144 3584 4550 3584 
Q 5097 3584 5394 3201 
Q 5691 2819 5691 2113 
L 5691 0 
L 5113 0 
L 5113 2094 
Q 5113 2597 4934 2840 
Q 4756 3084 4391 3084 
Q 3944 3084 3684 2787 
Q 3425 2491 3425 1978 
L 3425 0 
L 2847 0 
L 2847 2094 
Q 2847 2600 2669 2842 
Q 2491 3084 2119 3084 
Q 1678 3084 1418 2786 
Q 1159 2488 1159 1978 
L 1159 0 
L 581 0 
L 581 3500 
L 1159 3500 
L 1159 2956 
Q 1356 3278 1631 3431 
Q 1906 3584 2284 3584 
Q 2666 3584 2933 3390 
Q 3200 3197 3328 2828 
z
" transform="scale(0.015625)"/>
       <path id="DejaVuSans-48" d="M 3597 1894 
L 3597 1613 
L 953 1613 
Q 991 1019 1311 708 
Q 1631 397 2203 397 
Q 2534 397 2845 478 
Q 3156 559 3463 722 
L 3463 178 
Q 3153 47 2828 -22 
Q 2503 -91 2169 -91 
Q 1331 -91 842 396 
Q 353 884 353 1716 
Q 353 2575 817 3079 
Q 1281 3584 2069 3584 
Q 2775 3584 3186 3129 
Q 3597 2675 3597 1894 
z
M 3022 2063 
Q 3016 2534 2758 2815 
Q 2500 3097 2075 3097 
Q 1594 3097 1305 2825 
Q 1016 2553 972 2059 
L 3022 2063 
z
" transform="scale(0.015625)"/>
       <path id="DejaVuSans-3" transform="scale(0.015625)"/>
       <path id="DejaVuSans-3e" d="M 550 4863 
L 1875 4863 
L 1875 4416 
L 1125 4416 
L 1125 -397 
L 1875 -397 
L 1875 -844 
L 550 -844 
L 550 4863 
z
" transform="scale(0.015625)"/>
       <path id="DejaVuSans-56" d="M 2834 3397 
L 2834 2853 
Q 2591 2978 2328 3040 
Q 2066 3103 1784 3103 
Q 1356 3103 1142 2972 
Q 928 2841 928 2578 
Q 928 2378 1081 2264 
Q 1234 2150 1697 2047 
L 1894 2003 
Q 2506 1872 2764 1633 
Q 3022 1394 3022 966 
Q 3022 478 2636 193 
Q 2250 -91 1575 -91 
Q 1294 -91 989 -36 
Q 684 19 347 128 
L 347 722 
Q 666 556 975 473 
Q 1284 391 1588 391 
Q 1994 391 2212 530 
Q 2431 669 2431 922 
Q 2431 1156 2273 1281 
Q 2116 1406 1581 1522 
L 1381 1569 
Q 847 1681 609 1914 
Q 372 2147 372 2553 
Q 372 3047 722 3315 
Q 1072 3584 1716 3584 
Q 2034 3584 2315 3537 
Q 2597 3491 2834 3397 
z
" transform="scale(0.015625)"/>
       <path id="DejaVuSans-40" d="M 1947 4863 
L 1947 -844 
L 622 -844 
L 622 -397 
L 1369 -397 
L 1369 4416 
L 622 4416 
L 622 4863 
L 1947 4863 
z
" transform="scale(0.015625)"/>
      </defs>
      <use xlink:href="#DejaVuSans-57"/>
      <use xlink:href="#DejaVuSans-4c" transform="translate(39.203125 0)"/>
      <use xlink:href="#DejaVuSans-50" transform="translate(66.984375 0)"/>
      <use xlink:href="#DejaVuSans-48" transform="translate(164.390625 0)"/>
      <use xlink:href="#DejaVuSans-3" transform="translate(225.921875 0)"/>
      <use xlink:href="#DejaVuSans-3e" transform="translate(257.703125 0)"/>
      <use xlink:href="#DejaVuSans-56" transform="translate(296.71875 0)"/>
      <use xlink:href="#DejaVuSans-40" transform="translate(348.8125 0)"/>
     </g>
    </g>
   </g>
   <g id="matplotlib.axis_2">
    <g id="ytick_1">
     <g id="line2d_7">
      <defs>
       <path id="m300f32a822" d="M 0 0 
L -3.5 0 
" style="stroke: #7f7f7f; stroke-width: 1.8"/>
      </defs>
      <g>
       <use xlink:href="#m300f32a822" x="28.942188" y="230.191591" style="fill: #7f7f7f; stroke: #7f7f7f; stroke-width: 1.8"/>
      </g>
     </g>
     <g id="text_8">
      <!-- −8 -->
      <g style="fill: #7f7f7f" transform="translate(7.2 233.990419) scale(0.1 -0.1)">
       <defs>
        <path id="DejaVuSans-c9c" d="M 678 2272 
L 4684 2272 
L 4684 1741 
L 678 1741 
L 678 2272 
z
" transform="scale(0.015625)"/>
       </defs>
       <use xlink:href="#DejaVuSans-c9c"/>
       <use xlink:href="#DejaVuSans-1b" transform="translate(83.796875 0)"/>
      </g>
     </g>
    </g>
    <g id="ytick_2">
     <g id="line2d_8">
      <g>
       <use xlink:href="#m300f32a822" x="28.942188" y="203.889584" style="fill: #7f7f7f; stroke: #7f7f7f; stroke-width: 1.8"/>
      </g>
     </g>
     <g id="text_9">
      <!-- −6 -->
      <g style="fill: #7f7f7f" transform="translate(7.2 207.688412) scale(0.1 -0.1)">
       <use xlink:href="#DejaVuSans-c9c"/>
       <use xlink:href="#DejaVuSans-19" transform="translate(83.796875 0)"/>
      </g>
     </g>
    </g>
    <g id="ytick_3">
     <g id="line2d_9">
      <g>
       <use xlink:href="#m300f32a822" x="28.942188" y="177.587577" style="fill: #7f7f7f; stroke: #7f7f7f; stroke-width: 1.8"/>
      </g>
     </g>
     <g id="text_10">
      <!-- −4 -->
      <g style="fill: #7f7f7f" transform="translate(7.2 181.386405) scale(0.1 -0.1)">
       <use xlink:href="#DejaVuSans-c9c"/>
       <use xlink:href="#DejaVuSans-17" transform="translate(83.796875 0)"/>
      </g>
     </g>
    </g>
    <g id="ytick_4">
     <g id="line2d_10">
      <g>
       <use xlink:href="#m300f32a822" x="28.942188" y="151.28557" style="fill: #7f7f7f; stroke: #7f7f7f; stroke-width: 1.8"/>
      </g>
     </g>
     <g id="text_11">
      <!-- −2 -->
      <g style="fill: #7f7f7f" transform="translate(7.2 155.084399) scale(0.1 -0.1)">
       <use xlink:href="#DejaVuSans-c9c"/>
       <use xlink:href="#DejaVuSans-15" transform="translate(83.796875 0)"/>
      </g>
     </g>
    </g>
    <g id="ytick_5">
     <g id="line2d_11">
      <g>
       <use xlink:href="#m300f32a822" x="28.942188" y="124.983564" style="fill: #7f7f7f; stroke: #7f7f7f; stroke-width: 1.8"/>
      </g>
     </g>
     <g id="text_12">
      <!-- 0 -->
      <g style="fill: #7f7f7f" transform="translate(15.579688 128.782392) scale(0.1 -0.1)">
       <use xlink:href="#DejaVuSans-13"/>
      </g>
     </g>
    </g>
    <g id="ytick_6">
     <g id="line2d_12">
      <g>
       <use xlink:href="#m300f32a822" x="28.942188" y="98.681557" style="fill: #7f7f7f; stroke: #7f7f7f; stroke-width: 1.8"/>
      </g>
     </g>
     <g id="text_13">
      <!-- 2 -->
      <g style="fill: #7f7f7f" transform="translate(15.579688 102.480385) scale(0.1 -0.1)">
       <use xlink:href="#DejaVuSans-15"/>
      </g>
     </g>
    </g>
    <g id="ytick_7">
     <g id="line2d_13">
      <g>
       <use xlink:href="#m300f32a822" x="28.942188" y="72.37955" style="fill: #7f7f7f; stroke: #7f7f7f; stroke-width: 1.8"/>
      </g>
     </g>
     <g id="text_14">
      <!-- 4 -->
      <g style="fill: #7f7f7f" transform="translate(15.579688 76.178378) scale(0.1 -0.1)">
       <use xlink:href="#DejaVuSans-17"/>
      </g>
     </g>
    </g>
    <g id="ytick_8">
     <g id="line2d_14">
      <g>
       <use xlink:href="#m300f32a822" x="28.942188" y="46.077544" style="fill: #7f7f7f; stroke: #7f7f7f; stroke-width: 1.8"/>
      </g>
     </g>
     <g id="text_15">
      <!-- 6 -->
      <g style="fill: #7f7f7f" transform="translate(15.579688 49.876372) scale(0.1 -0.1)">
       <use xlink:href="#DejaVuSans-19"/>
      </g>
     </g>
    </g>
    <g id="ytick_9">
     <g id="line2d_15">
      <g>
       <use xlink:href="#m300f32a822" x="28.942188" y="19.775537" style="fill: #7f7f7f; stroke: #7f7f7f; stroke-width: 1.8"/>
      </g>
     </g>
     <g id="text_16">
      <!-- 8 -->
      <g style="fill: #7f7f7f" transform="translate(15.579688 23.574365) scale(0.1 -0.1)">
       <use xlink:href="#DejaVuSans-1b"/>
      </g>
     </g>
    </g>
   </g>
   <g id="line2d_16">
    <path d="M 53.153906 124.983564 
L 57.656385 112.881592 
L 59.544522 111.883407 
L 61.142176 113.459252 
L 63.611277 119.534109 
L 70.437617 137.79957 
L 72.035271 137.901627 
L 73.778166 135.524974 
L 76.682991 127.285293 
L 82.056918 112.638272 
L 83.945054 111.958002 
L 85.542708 113.792132 
L 88.157051 120.606653 
L 94.402425 137.589087 
L 96.14532 137.959474 
L 97.888216 135.719244 
L 100.793041 127.60995 
L 106.312209 112.582292 
L 108.200345 111.981801 
L 109.797999 113.879804 
L 112.412342 120.762833 
L 118.512475 137.490911 
L 120.25537 138.009125 
L 121.853024 136.174995 
L 124.467367 129.360475 
L 130.712741 112.37804 
L 132.455637 112.007654 
L 134.198532 114.247883 
L 137.103357 122.357177 
L 142.622525 137.384835 
L 144.510661 137.985326 
L 146.108315 136.087323 
L 148.722658 129.204294 
L 154.822791 112.476216 
L 156.565686 111.958002 
L 158.16334 113.792132 
L 160.777683 120.606653 
L 167.023057 137.589087 
L 168.765953 137.959474 
L 170.508848 135.719244 
L 173.413673 127.60995 
L 178.932841 112.582292 
L 180.820978 111.981801 
L 182.418631 113.879804 
L 185.032974 120.762833 
L 191.133107 137.490911 
L 192.876002 138.009125 
L 194.473656 136.174995 
L 197.087999 129.360475 
L 203.333373 112.37804 
L 205.076269 112.007654 
L 206.819164 114.247883 
L 209.723989 122.357177 
L 215.243157 137.384835 
L 217.131294 137.985326 
L 218.728947 136.087323 
L 221.34329 129.204294 
L 227.443423 112.476216 
L 229.186319 111.958002 
L 230.783972 113.792132 
L 233.398315 120.606653 
L 239.64369 137.589087 
L 241.386585 137.959474 
L 243.12948 135.719244 
L 246.034305 127.60995 
L 251.553473 112.582292 
L 253.44161 111.981801 
L 255.039264 113.879804 
L 257.653606 120.762833 
L 263.753739 137.490911 
L 265.496635 138.009125 
L 267.094288 136.174995 
L 269.708631 129.360475 
L 275.954006 112.37804 
L 277.696901 112.007654 
L 279.439796 114.247883 
L 282.344621 122.357177 
L 287.863789 137.384835 
L 289.751926 137.985326 
L 291.34958 136.087323 
L 293.963922 129.204294 
L 300.064055 112.476216 
L 301.806951 111.958002 
L 303.404605 113.792132 
L 306.018947 120.606653 
L 312.264322 137.589087 
L 314.007217 137.959474 
L 315.750112 135.719244 
L 318.654937 127.60995 
L 324.174105 112.582292 
L 326.062242 111.981801 
L 327.659896 113.879804 
L 330.274238 120.762833 
L 336.374372 137.490911 
L 338.117267 138.009125 
L 339.714921 136.174995 
L 342.329263 129.360475 
L 348.574638 112.37804 
L 350.317533 112.007654 
L 352.060428 114.247883 
L 354.965253 122.357177 
L 360.484421 137.384835 
L 362.372558 137.985326 
L 363.970212 136.087323 
L 366.584554 129.204294 
L 372.684688 112.476216 
L 374.427583 111.958002 
L 376.025237 113.792132 
L 378.639579 120.606653 
L 384.884954 137.589087 
L 386.627849 137.959474 
L 388.370744 135.719244 
L 391.275569 127.60995 
L 396.794737 112.582292 
L 398.682874 111.981801 
L 400.280528 113.879804 
L 402.894871 120.762833 
L 408.995004 137.490911 
L 410.737899 138.009125 
L 412.335553 136.174995 
L 414.949895 129.360475 
L 421.19527 112.37804 
L 422.938165 112.007654 
L 424.68106 114.247883 
L 427.585885 122.357177 
L 433.105054 137.384835 
L 434.99319 137.985326 
L 436.590844 136.087323 
L 439.205187 129.204294 
L 445.30532 112.476216 
L 447.048215 111.958002 
L 448.645869 113.792132 
L 451.260212 120.606653 
L 457.505586 137.589087 
L 459.248481 137.959474 
L 460.991376 135.719244 
L 463.896202 127.60995 
L 469.41537 112.582292 
L 471.303506 111.981801 
L 472.90116 113.879804 
L 475.515503 120.762833 
L 481.615636 137.490911 
L 483.358531 138.009125 
L 484.956185 136.174995 
L 487.570528 129.360475 
L 493.815902 112.37804 
L 495.558797 112.007654 
L 497.301692 114.247883 
L 500.206518 122.357177 
L 505.725686 137.384835 
L 507.613822 137.985326 
L 509.211476 136.087323 
L 511.825819 129.204294 
L 517.925952 112.476216 
L 519.668847 111.958002 
L 521.266501 113.792132 
L 523.880844 120.606653 
L 530.126218 137.589087 
L 531.869113 137.959474 
L 533.612008 135.719244 
L 536.516834 127.60995 
L 537.388281 124.653078 
L 537.388281 124.653078 
" clip-path="url(#pacac4154fd)" style="fill: none; stroke: #e41a1c; stroke-width: 2; stroke-linecap: square"/>
   </g>
   <g id="line2d_17">
    <path d="M 53.153906 124.983564 
L 53.734871 127.089691 
L 54.025354 124.999524 
L 55.042043 106.31546 
L 58.527833 28.398122 
L 58.963557 28.885509 
L 59.544522 25.626608 
L 60.561211 17.854506 
L 60.996935 20.581989 
L 62.594588 34.359341 
L 71.599547 222.579612 
L 72.180512 220.785828 
L 72.761477 219.136788 
L 73.923407 218.066884 
L 74.21389 217.503665 
L 75.37582 203.064857 
L 81.330712 54.56189 
L 84.816502 24.893817 
L 85.252226 27.282421 
L 88.883257 67.834102 
L 90.190429 99.286155 
L 93.966702 207.189357 
L 96.435803 227.576408 
L 97.016768 225.142917 
L 97.742974 220.227088 
L 98.323939 220.774813 
L 98.759663 218.691371 
L 101.228765 168.148673 
L 105.150279 56.324116 
L 108.345587 22.046851 
L 109.362276 21.250391 
L 109.507517 21.319425 
L 110.088482 23.809755 
L 111.395653 38.191829 
L 114.155237 103.73571 
L 119.09344 217.777963 
L 120.545853 226.824232 
L 120.691094 226.589192 
L 122.288748 220.093983 
L 123.450678 204.379161 
L 131.874671 28.142064 
L 132.89136 22.586165 
L 133.327084 22.732121 
L 133.762808 24.49661 
L 136.667633 55.245498 
L 143.929696 222.836846 
L 144.801144 225.158975 
L 145.091627 224.199441 
L 147.851211 205.478065 
L 150.175071 164.84265 
L 155.83948 28.628378 
L 156.856169 17.963272 
L 157.582375 19.750265 
L 160.051477 41.880211 
L 161.939613 75.531879 
L 163.392026 122.791507 
L 166.15161 200.459803 
L 168.330229 226.203833 
L 168.620711 225.648532 
L 170.79933 210.774663 
L 172.542225 191.335117 
L 173.704156 168.561904 
L 179.078082 32.342383 
L 180.240012 24.24703 
L 180.675736 24.769661 
L 181.11146 25.754015 
L 183.43532 34.277108 
L 186.921111 101.694193 
L 190.116418 201.232709 
L 192.004555 218.892265 
L 193.74745 222.97849 
L 194.764139 221.188359 
L 196.216552 197.673098 
L 197.814205 160.954707 
L 200.573789 91.68103 
L 202.752408 49.13899 
L 205.366751 20.158646 
L 205.947716 19.413331 
L 206.092958 19.880159 
L 207.254888 32.46587 
L 210.159713 71.004961 
L 216.405087 220.126936 
L 217.276535 223.956484 
L 217.712259 223.130808 
L 219.455154 215.719755 
L 222.069497 170.072238 
L 224.393357 100.864923 
L 226.862458 41.916618 
L 228.460112 26.664325 
L 228.750595 27.800242 
L 230.783972 35.559372 
L 231.219696 37.392026 
L 234.269763 85.575362 
L 236.448382 143.165757 
L 239.64369 217.955339 
L 241.096102 224.385326 
L 241.241343 224.088955 
L 241.677067 223.324849 
L 242.112791 224.330698 
L 242.403274 224.480733 
L 242.838997 223.691543 
L 243.855686 217.871384 
L 245.308099 199.79901 
L 248.358165 123.171467 
L 251.989197 33.107429 
L 254.022575 20.591008 
L 254.167816 20.798352 
L 255.184505 24.093397 
L 256.346435 32.391425 
L 258.08933 71.331755 
L 262.591809 187.527641 
L 265.932358 227.085756 
L 266.513323 223.953477 
L 267.384771 220.779737 
L 267.820495 221.963377 
L 268.110977 220.833976 
L 269.999114 189.008191 
L 275.518282 46.004054 
L 277.406418 28.312658 
L 277.987383 30.772412 
L 278.568348 31.980258 
L 279.004072 30.958212 
L 279.87552 32.430408 
L 281.473174 52.989186 
L 287.573307 205.028266 
L 289.751926 222.672248 
L 289.897167 222.96003 
L 290.18765 222.123837 
L 291.059097 220.061689 
L 291.34958 220.679104 
L 291.494821 220.974661 
L 291.930545 219.768302 
L 292.801992 209.75512 
L 296.142541 136.932646 
L 300.354538 35.110052 
L 301.952192 26.029794 
L 302.097433 26.163913 
L 305.002258 33.093601 
L 306.018947 44.813989 
L 307.761842 100.308735 
L 310.521426 178.154135 
L 313.716734 230.944634 
L 314.007217 229.994621 
L 316.912042 210.900808 
L 318.073972 194.155303 
L 325.917001 21.905297 
L 326.062242 22.023141 
L 329.25755 41.3364 
L 331.436169 83.519819 
L 337.100578 225.482808 
L 338.407749 228.639278 
L 338.698232 229.241516 
L 339.133956 228.637327 
L 340.586368 219.268055 
L 342.474505 197.579491 
L 345.37933 114.419203 
L 349.591327 29.129947 
L 350.608015 24.669313 
L 351.18898 26.328905 
L 354.093806 41.536672 
L 356.998631 127.123154 
L 360.484421 216.00735 
L 362.808282 227.90751 
L 363.82497 224.978135 
L 365.132142 215.919588 
L 367.746485 163.319337 
L 373.410894 30.856298 
L 374.1371 25.371913 
L 374.718065 26.706064 
L 377.622891 46.656556 
L 378.784821 71.89979 
L 385.756401 220.360247 
L 387.789779 227.281882 
L 387.93502 226.194526 
L 391.566052 182.282539 
L 393.018465 131.98764 
L 395.778049 48.176889 
L 398.537633 21.492178 
L 398.682874 21.153867 
L 399.118598 22.559658 
L 402.749629 52.412009 
L 405.218731 125.359903 
L 409.430727 213.624472 
L 411.318864 224.460606 
L 411.609346 224.166179 
L 412.04507 223.737235 
L 412.335553 224.580996 
L 412.626035 225.253552 
L 413.061759 224.588256 
L 414.223689 215.981028 
L 415.676102 169.906266 
L 421.630994 28.219331 
L 423.228648 20.427993 
L 423.373889 20.481695 
L 425.262025 36.123493 
L 426.859679 52.614698 
L 429.038298 99.532568 
L 432.524088 197.279642 
L 434.99319 219.101887 
L 436.736085 222.539198 
L 436.881326 222.388744 
L 437.462291 218.513531 
L 440.221875 161.027466 
L 444.14339 52.145205 
L 447.62918 19.08568 
L 448.210145 21.095499 
L 450.679246 39.161038 
L 454.019796 120.955422 
L 457.069862 201.481497 
L 458.812757 217.440005 
L 458.957999 217.255257 
L 459.393722 216.531652 
L 460.26517 215.301105 
L 460.555652 215.752231 
L 461.136618 217.804085 
L 461.4271 216.799966 
L 463.460478 190.17037 
L 464.622408 153.054105 
L 468.398681 53.618498 
L 470.722541 29.395712 
L 471.593989 28.085286 
L 472.465436 24.339739 
L 472.90116 27.078125 
L 477.258398 100.690638 
L 482.777566 216.030016 
L 485.53715 223.547886 
L 485.682391 223.12499 
L 487.280045 206.856858 
L 489.749147 144.506021 
L 494.396867 30.417591 
L 495.994521 22.033126 
L 496.285003 23.844967 
L 499.33507 60.463285 
L 502.82086 152.386057 
L 504.708997 198.5325 
L 508.194787 223.37354 
L 508.630511 223.025859 
L 508.920993 223.518488 
L 509.501959 224.685197 
L 509.792441 223.930421 
L 510.663889 213.723237 
L 513.423473 144.197168 
L 515.602092 87.673458 
L 518.797399 33.535041 
L 520.830777 25.777815 
L 520.976018 25.92793 
L 521.556983 26.080716 
L 523.880844 56.772486 
L 528.238082 175.114469 
L 530.852424 214.034548 
L 532.59532 221.275548 
L 533.466767 219.179998 
L 534.91918 201.633721 
L 537.388281 161.165309 
L 537.388281 161.165309 
" clip-path="url(#pacac4154fd)" style="fill: none; stroke: #377eb8; stroke-width: 2; stroke-linecap: square"/>
   </g>
   <g id="patch_3">
    <path d="M 28.942188 241.599141 
L 28.942188 7.2 
" style="fill: none; stroke: #7f7f7f; stroke-width: 1.8; stroke-linejoin: miter; stroke-linecap: square"/>
   </g>
   <g id="patch_4">
    <path d="M 28.942188 241.599141 
L 561.6 241.599141 
" style="fill: none; stroke: #7f7f7f; stroke-width: 1.8; stroke-linejoin: miter; stroke-linecap: square"/>
   </g>
   <g id="legend_1">
    <g id="line2d_18">
     <path d="M 37.942188 211.696016 
L 47.942188 211.696016 
L 57.942188 211.696016 
" style="fill: none; stroke: #e41a1c; stroke-width: 2; stroke-linecap: square"/>
    </g>
    <g id="text_17">
     <!-- Src -->
     <g style="fill: #7f7f7f" transform="translate(65.942188 215.196016) scale(0.1 -0.1)">
      <defs>
       <path id="DejaVuSans-36" d="M 3425 4513 
L 3425 3897 
Q 3066 4069 2747 4153 
Q 2428 4238 2131 4238 
Q 1616 4238 1336 4038 
Q 1056 3838 1056 3469 
Q 1056 3159 1242 3001 
Q 1428 2844 1947 2747 
L 2328 2669 
Q 3034 2534 3370 2195 
Q 3706 1856 3706 1288 
Q 3706 609 3251 259 
Q 2797 -91 1919 -91 
Q 1588 -91 1214 -16 
Q 841 59 441 206 
L 441 856 
Q 825 641 1194 531 
Q 1563 422 1919 422 
Q 2459 422 2753 634 
Q 3047 847 3047 1241 
Q 3047 1584 2836 1778 
Q 2625 1972 2144 2069 
L 1759 2144 
Q 1053 2284 737 2584 
Q 422 2884 422 3419 
Q 422 4038 858 4394 
Q 1294 4750 2059 4750 
Q 2388 4750 2728 4690 
Q 3069 4631 3425 4513 
z
" transform="scale(0.015625)"/>
       <path id="DejaVuSans-55" d="M 2631 2963 
Q 2534 3019 2420 3045 
Q 2306 3072 2169 3072 
Q 1681 3072 1420 2755 
Q 1159 2438 1159 1844 
L 1159 0 
L 581 0 
L 581 3500 
L 1159 3500 
L 1159 2956 
Q 1341 3275 1631 3429 
Q 1922 3584 2338 3584 
Q 2397 3584 2469 3576 
Q 2541 3569 2628 3553 
L 2631 2963 
z
" transform="scale(0.015625)"/>
       <path id="DejaVuSans-46" d="M 3122 3366 
L 3122 2828 
Q 2878 2963 2633 3030 
Q 2388 3097 2138 3097 
Q 1578 3097 1268 2742 
Q 959 2388 959 1747 
Q 959 1106 1268 751 
Q 1578 397 2138 397 
Q 2388 397 2633 464 
Q 2878 531 3122 666 
L 3122 134 
Q 2881 22 2623 -34 
Q 2366 -91 2075 -91 
Q 1284 -91 818 406 
Q 353 903 353 1747 
Q 353 2603 823 3093 
Q 1294 3584 2113 3584 
Q 2378 3584 2631 3529 
Q 2884 3475 3122 3366 
z
" transform="scale(0.015625)"/>
      </defs>
      <use xlink:href="#DejaVuSans-36"/>
      <use xlink:href="#DejaVuSans-55" transform="translate(63.484375 0)"/>
      <use xlink:href="#DejaVuSans-46" transform="translate(102.390625 0)"/>
     </g>
    </g>
    <g id="line2d_19">
     <path d="M 37.942188 226.696797 
L 47.942188 226.696797 
L 57.942188 226.696797 
" style="fill: none; stroke: #377eb8; stroke-width: 2; stroke-linecap: square"/>
    </g>
    <g id="text_18">
     <!-- AMP -->
     <g style="fill: #7f7f7f" transform="translate(65.942188 230.196797) scale(0.1 -0.1)">
      <defs>
       <path id="DejaVuSans-24" d="M 2188 4044 
L 1331 1722 
L 3047 1722 
L 2188 4044 
z
M 1831 4666 
L 2547 4666 
L 4325 0 
L 3669 0 
L 3244 1197 
L 1141 1197 
L 716 0 
L 50 0 
L 1831 4666 
z
" transform="scale(0.015625)"/>
       <path id="DejaVuSans-30" d="M 628 4666 
L 1569 4666 
L 2759 1491 
L 3956 4666 
L 4897 4666 
L 4897 0 
L 4281 0 
L 4281 4097 
L 3078 897 
L 2444 897 
L 1241 4097 
L 1241 0 
L 628 0 
L 628 4666 
z
" transform="scale(0.015625)"/>
       <path id="DejaVuSans-33" d="M 1259 4147 
L 1259 2394 
L 2053 2394 
Q 2494 2394 2734 2622 
Q 2975 2850 2975 3272 
Q 2975 3691 2734 3919 
Q 2494 4147 2053 4147 
L 1259 4147 
z
M 628 4666 
L 2053 4666 
Q 2838 4666 3239 4311 
Q 3641 3956 3641 3272 
Q 3641 2581 3239 2228 
Q 2838 1875 2053 1875 
L 1259 1875 
L 1259 0 
L 628 0 
L 628 4666 
z
" transform="scale(0.015625)"/>
      </defs>
      <use xlink:href="#DejaVuSans-24"/>
      <use xlink:href="#DejaVuSans-30" transform="translate(68.40625 0)"/>
      <use xlink:href="#DejaVuSans-33" transform="translate(154.6875 0)"/>
     </g>
    </g>
   </g>
  </g>
 </g>
 <defs>
  <clipPath id="pacac4154fd">
   <rect x="28.942188" y="7.2" width="532.657812" height="234.399141"/>
  </clipPath>
 </defs>
</svg>
