<?xml version="1.0" encoding="utf-8" standalone="no"?>
<!DOCTYPE svg PUBLIC "-//W3C//DTD SVG 1.1//EN"
  "http://www.w3.org/Graphics/SVG/1.1/DTD/svg11.dtd">
<svg xmlns:xlink="http://www.w3.org/1999/xlink" width="568.8pt" height="280.8pt" viewBox="0 0 568.8 280.8" xmlns="http://www.w3.org/2000/svg" version="1.1">
 <metadata>
  <rdf:RDF xmlns:dc="http://purl.org/dc/elements/1.1/" xmlns:cc="http://creativecommons.org/ns#" xmlns:rdf="http://www.w3.org/1999/02/22-rdf-syntax-ns#">
   <cc:Work>
    <dc:type rdf:resource="http://purl.org/dc/dcmitype/StillImage"/>
    <dc:date>2026-06-13T18:43:15.250526</dc:date>
    <dc:format>image/svg+xml</dc:format>
    <dc:creator>
     <cc:Agent>
      <dc:title>Matplotlib v3.11.0, https://matplotlib.org/</dc:title>
     </cc:Agent>
    </dc:creator>
   </cc:Work>
  </rdf:RDF>
 </metadata>
 <defs>
  <style type="text/css">*{stroke-linejoin: round; stroke-linecap: butt}</style>
 </defs>
 <g id="figure_1">
  <g id="patch_1">
   <path d="M 0 280.8 
L 568.8 280.8 
L 568.8 0 
L 0 0 
L 0 280.8 
z
" style="fill: none"/>
  </g>
  <g id="axes_1">
   <g id="patch_2">
    <path d="M 28.942188 241.599141 
L 561.6 241.599141 
L 561.6 7.2 
L 28.942188 7.2 
L 28.942188 241.599141 
z
" style="fill: none"/>
   </g>
   <g id="matplotlib.axis_1">
    <g id="xtick_1">
     <g id="line2d_1">
      <defs>
       <path id="m0684e3d799" d="M 0 0 
L 0 3.5 
" style="stroke: #7f7f7f; stroke-width: 1.8"/>
      </defs>
      <g>
       <use xlink:href="#m0684e3d799" x="53.153906" y="241.599141" style="fill: #7f7f7f; stroke: #7f7f7f; stroke-width: 1.8"/>
      </g>
     </g>
     <g id="text_1">
      <!-- 0.00000 -->
      <g style="fill: #7f7f7f" transform="translate(32.477344 256.196797) scale(0.1 -0.1)">
       <defs>
        <path id="DejaVuSans-13" d="M 2034 4250 
Q 1547 4250 1301 3770 
Q 1056 3291 1056 2328 
Q 1056 1369 1301 889 
Q 1547 409 2034 409 
Q 2525 409 2770 889 
Q 3016 1369 3016 2328 
Q 3016 3291 2770 3770 
Q 2525 4250 2034 4250 
z
M 2034 4750 
Q 2819 4750 3233 4129 
Q 3647 3509 3647 2328 
Q 3647 1150 3233 529 
Q 2819 -91 2034 -91 
Q 1250 -91 836 529 
Q 422 1150 422 2328 
Q 422 3509 836 4129 
Q 1250 4750 2034 4750 
z
" transform="scale(0.015625)"/>
        <path id="DejaVuSans-11" d="M 684 794 
L 1344 794 
L 1344 0 
L 684 0 
L 684 794 
z
" transform="scale(0.015625)"/>
       </defs>
       <use xlink:href="#DejaVuSans-13"/>
       <use xlink:href="#DejaVuSans-11" transform="translate(63.625 0)"/>
       <use xlink:href="#DejaVuSans-13" transform="translate(95.40625 0)"/>
       <use xlink:href="#DejaVuSans-13" transform="translate(159.03125 0)"/>
       <use xlink:href="#DejaVuSans-13" transform="translate(222.65625 0)"/>
       <use xlink:href="#DejaVuSans-13" transform="translate(286.28125 0)"/>
       <use xlink:href="#DejaVuSans-13" transform="translate(349.90625 0)"/>
      </g>
     </g>
    </g>
    <g id="xtick_2">
     <g id="line2d_2">
      <g>
       <use xlink:href="#m0684e3d799" x="149.981416" y="241.599141" style="fill: #7f7f7f; stroke: #7f7f7f; stroke-width: 1.8"/>
      </g>
     </g>
     <g id="text_2">
      <!-- 0.00002 -->
      <g style="fill: #7f7f7f" transform="translate(129.304853 256.196797) scale(0.1 -0.1)">
       <defs>
        <path id="DejaVuSans-15" d="M 1228 531 
L 3431 531 
L 3431 0 
L 469 0 
L 469 531 
Q 828 903 1448 1529 
Q 2069 2156 2228 2338 
Q 2531 2678 2651 2914 
Q 2772 3150 2772 3378 
Q 2772 3750 2511 3984 
Q 2250 4219 1831 4219 
Q 1534 4219 1204 4116 
Q 875 4013 500 3803 
L 500 4441 
Q 881 4594 1212 4672 
Q 1544 4750 1819 4750 
Q 2544 4750 2975 4387 
Q 3406 4025 3406 3419 
Q 3406 3131 3298 2873 
Q 3191 2616 2906 2266 
Q 2828 2175 2409 1742 
Q 1991 1309 1228 531 
z
" transform="scale(0.015625)"/>
       </defs>
       <use xlink:href="#DejaVuSans-13"/>
       <use xlink:href="#DejaVuSans-11" transform="translate(63.625 0)"/>
       <use xlink:href="#DejaVuSans-13" transform="translate(95.40625 0)"/>
       <use xlink:href="#DejaVuSans-13" transform="translate(159.03125 0)"/>
       <use xlink:href="#DejaVuSans-13" transform="translate(222.65625 0)"/>
       <use xlink:href="#DejaVuSans-13" transform="translate(286.28125 0)"/>
       <use xlink:href="#DejaVuSans-15" transform="translate(349.90625 0)"/>
      </g>
     </g>
    </g>
    <g id="xtick_3">
     <g id="line2d_3">
      <g>
       <use xlink:href="#m0684e3d799" x="246.808925" y="241.599141" style="fill: #7f7f7f; stroke: #7f7f7f; stroke-width: 1.8"/>
      </g>
     </g>
     <g id="text_3">
      <!-- 0.00004 -->
      <g style="fill: #7f7f7f" transform="translate(226.132363 256.196797) scale(0.1 -0.1)">
       <defs>
        <path id="DejaVuSans-17" d="M 2419 4116 
L 825 1625 
L 2419 1625 
L 2419 4116 
z
M 2253 4666 
L 3047 4666 
L 3047 1625 
L 3713 1625 
L 3713 1100 
L 3047 1100 
L 3047 0 
L 2419 0 
L 2419 1100 
L 313 1100 
L 313 1709 
L 2253 4666 
z
" transform="scale(0.015625)"/>
       </defs>
       <use xlink:href="#DejaVuSans-13"/>
       <use xlink:href="#DejaVuSans-11" transform="translate(63.625 0)"/>
       <use xlink:href="#DejaVuSans-13" transform="translate(95.40625 0)"/>
       <use xlink:href="#DejaVuSans-13" transform="translate(159.03125 0)"/>
       <use xlink:href="#DejaVuSans-13" transform="translate(222.65625 0)"/>
       <use xlink:href="#DejaVuSans-13" transform="translate(286.28125 0)"/>
       <use xlink:href="#DejaVuSans-17" transform="translate(349.90625 0)"/>
      </g>
     </g>
    </g>
    <g id="xtick_4">
     <g id="line2d_4">
      <g>
       <use xlink:href="#m0684e3d799" x="343.636435" y="241.599141" style="fill: #7f7f7f; stroke: #7f7f7f; stroke-width: 1.8"/>
      </g>
     </g>
     <g id="text_4">
      <!-- 0.00006 -->
      <g style="fill: #7f7f7f" transform="translate(322.959872 256.196797) scale(0.1 -0.1)">
       <defs>
        <path id="DejaVuSans-19" d="M 2113 2584 
Q 1688 2584 1439 2293 
Q 1191 2003 1191 1497 
Q 1191 994 1439 701 
Q 1688 409 2113 409 
Q 2538 409 2786 701 
Q 3034 994 3034 1497 
Q 3034 2003 2786 2293 
Q 2538 2584 2113 2584 
z
M 3366 4563 
L 3366 3988 
Q 3128 4100 2886 4159 
Q 2644 4219 2406 4219 
Q 1781 4219 1451 3797 
Q 1122 3375 1075 2522 
Q 1259 2794 1537 2939 
Q 1816 3084 2150 3084 
Q 2853 3084 3261 2657 
Q 3669 2231 3669 1497 
Q 3669 778 3244 343 
Q 2819 -91 2113 -91 
Q 1303 -91 875 529 
Q 447 1150 447 2328 
Q 447 3434 972 4092 
Q 1497 4750 2381 4750 
Q 2619 4750 2861 4703 
Q 3103 4656 3366 4563 
z
" transform="scale(0.015625)"/>
       </defs>
       <use xlink:href="#DejaVuSans-13"/>
       <use xlink:href="#DejaVuSans-11" transform="translate(63.625 0)"/>
       <use xlink:href="#DejaVuSans-13" transform="translate(95.40625 0)"/>
       <use xlink:href="#DejaVuSans-13" transform="translate(159.03125 0)"/>
       <use xlink:href="#DejaVuSans-13" transform="translate(222.65625 0)"/>
       <use xlink:href="#DejaVuSans-13" transform="translate(286.28125 0)"/>
       <use xlink:href="#DejaVuSans-19" transform="translate(349.90625 0)"/>
      </g>
     </g>
    </g>
    <g id="xtick_5">
     <g id="line2d_5">
      <g>
       <use xlink:href="#m0684e3d799" x="440.463944" y="241.599141" style="fill: #7f7f7f; stroke: #7f7f7f; stroke-width: 1.8"/>
      </g>
     </g>
     <g id="text_5">
      <!-- 0.00008 -->
      <g style="fill: #7f7f7f" transform="translate(419.787382 256.196797) scale(0.1 -0.1)">
       <defs>
        <path id="DejaVuSans-1b" d="M 2034 2216 
Q 1584 2216 1326 1975 
Q 1069 1734 1069 1313 
Q 1069 891 1326 650 
Q 1584 409 2034 409 
Q 2484 409 2743 651 
Q 3003 894 3003 1313 
Q 3003 1734 2745 1975 
Q 2488 2216 2034 2216 
z
M 1403 2484 
Q 997 2584 770 2862 
Q 544 3141 544 3541 
Q 544 4100 942 4425 
Q 1341 4750 2034 4750 
Q 2731 4750 3128 4425 
Q 3525 4100 3525 3541 
Q 3525 3141 3298 2862 
Q 3072 2584 2669 2484 
Q 3125 2378 3379 2068 
Q 3634 1759 3634 1313 
Q 3634 634 3220 271 
Q 2806 -91 2034 -91 
Q 1263 -91 848 271 
Q 434 634 434 1313 
Q 434 1759 690 2068 
Q 947 2378 1403 2484 
z
M 1172 3481 
Q 1172 3119 1398 2916 
Q 1625 2713 2034 2713 
Q 2441 2713 2670 2916 
Q 2900 3119 2900 3481 
Q 2900 3844 2670 4047 
Q 2441 4250 2034 4250 
Q 1625 4250 1398 4047 
Q 1172 3844 1172 3481 
z
" transform="scale(0.015625)"/>
       </defs>
       <use xlink:href="#DejaVuSans-13"/>
       <use xlink:href="#DejaVuSans-11" transform="translate(63.625 0)"/>
       <use xlink:href="#DejaVuSans-13" transform="translate(95.40625 0)"/>
       <use xlink:href="#DejaVuSans-13" transform="translate(159.03125 0)"/>
       <use xlink:href="#DejaVuSans-13" transform="translate(222.65625 0)"/>
       <use xlink:href="#DejaVuSans-13" transform="translate(286.28125 0)"/>
       <use xlink:href="#DejaVuSans-1b" transform="translate(349.90625 0)"/>
      </g>
     </g>
    </g>
    <g id="xtick_6">
     <g id="line2d_6">
      <g>
       <use xlink:href="#m0684e3d799" x="537.291454" y="241.599141" style="fill: #7f7f7f; stroke: #7f7f7f; stroke-width: 1.8"/>
      </g>
     </g>
     <g id="text_6">
      <!-- 0.00010 -->
      <g style="fill: #7f7f7f" transform="translate(516.614891 256.196797) scale(0.1 -0.1)">
       <defs>
        <path id="DejaVuSans-14" d="M 794 531 
L 1825 531 
L 1825 4091 
L 703 3866 
L 703 4441 
L 1819 4666 
L 2450 4666 
L 2450 531 
L 3481 531 
L 3481 0 
L 794 0 
L 794 531 
z
" transform="scale(0.015625)"/>
       </defs>
       <use xlink:href="#DejaVuSans-13"/>
       <use xlink:href="#DejaVuSans-11" transform="translate(63.625 0)"/>
       <use xlink:href="#DejaVuSans-13" transform="translate(95.40625 0)"/>
       <use xlink:href="#DejaVuSans-13" transform="translate(159.03125 0)"/>
       <use xlink:href="#DejaVuSans-13" transform="translate(222.65625 0)"/>
       <use xlink:href="#DejaVuSans-14" transform="translate(286.28125 0)"/>
       <use xlink:href="#DejaVuSans-13" transform="translate(349.90625 0)"/>
      </g>
     </g>
    </g>
    <g id="text_7">
     <!-- time [s] -->
     <g style="fill: #7f7f7f" transform="translate(273.940547 270.957422) scale(0.11 -0.11)">
      <defs>
       <path id="DejaVuSans-57" d="M 1172 4494 
L 1172 3500 
L 2356 3500 
L 2356 3053 
L 1172 3053 
L 1172 1153 
Q 1172 725 1289 603 
Q 1406 481 1766 481 
L 2356 481 
L 2356 0 
L 1766 0 
Q 1100 0 847 248 
Q 594 497 594 1153 
L 594 3053 
L 172 3053 
L 172 3500 
L 594 3500 
L 594 4494 
L 1172 4494 
z
" transform="scale(0.015625)"/>
       <path id="DejaVuSans-4c" d="M 603 3500 
L 1178 3500 
L 1178 0 
L 603 0 
L 603 3500 
z
M 603 4863 
L 1178 4863 
L 1178 4134 
L 603 4134 
L 603 4863 
z
" transform="scale(0.015625)"/>
       <path id="DejaVuSans-50" d="M 3328 2828 
Q 3544 3216 3844 3400 
Q 4144 3584 4550 3584 
Q 5097 3584 5394 3201 
Q 5691 2819 5691 2113 
L 5691 0 
L 5113 0 
L 5113 2094 
Q 5113 2597 4934 2840 
Q 4756 3084 4391 3084 
Q 3944 3084 3684 2787 
Q 3425 2491 3425 1978 
L 3425 0 
L 2847 0 
L 2847 2094 
Q 2847 2600 2669 2842 
Q 2491 3084 2119 3084 
Q 1678 3084 1418 2786 
Q 1159 2488 1159 1978 
L 1159 0 
L 581 0 
L 581 3500 
L 1159 3500 
L 1159 2956 
Q 1356 3278 1631 3431 
Q 1906 3584 2284 3584 
Q 2666 3584 2933 3390 
Q 3200 3197 3328 2828 
z
" transform="scale(0.015625)"/>
       <path id="DejaVuSans-48" d="M 3597 1894 
L 3597 1613 
L 953 1613 
Q 991 1019 1311 708 
Q 1631 397 2203 397 
Q 2534 397 2845 478 
Q 3156 559 3463 722 
L 3463 178 
Q 3153 47 2828 -22 
Q 2503 -91 2169 -91 
Q 1331 -91 842 396 
Q 353 884 353 1716 
Q 353 2575 817 3079 
Q 1281 3584 2069 3584 
Q 2775 3584 3186 3129 
Q 3597 2675 3597 1894 
z
M 3022 2063 
Q 3016 2534 2758 2815 
Q 2500 3097 2075 3097 
Q 1594 3097 1305 2825 
Q 1016 2553 972 2059 
L 3022 2063 
z
" transform="scale(0.015625)"/>
       <path id="DejaVuSans-3" transform="scale(0.015625)"/>
       <path id="DejaVuSans-3e" d="M 550 4863 
L 1875 4863 
L 1875 4416 
L 1125 4416 
L 1125 -397 
L 1875 -397 
L 1875 -844 
L 550 -844 
L 550 4863 
z
" transform="scale(0.015625)"/>
       <path id="DejaVuSans-56" d="M 2834 3397 
L 2834 2853 
Q 2591 2978 2328 3040 
Q 2066 3103 1784 3103 
Q 1356 3103 1142 2972 
Q 928 2841 928 2578 
Q 928 2378 1081 2264 
Q 1234 2150 1697 2047 
L 1894 2003 
Q 2506 1872 2764 1633 
Q 3022 1394 3022 966 
Q 3022 478 2636 193 
Q 2250 -91 1575 -91 
Q 1294 -91 989 -36 
Q 684 19 347 128 
L 347 722 
Q 666 556 975 473 
Q 1284 391 1588 391 
Q 1994 391 2212 530 
Q 2431 669 2431 922 
Q 2431 1156 2273 1281 
Q 2116 1406 1581 1522 
L 1381 1569 
Q 847 1681 609 1914 
Q 372 2147 372 2553 
Q 372 3047 722 3315 
Q 1072 3584 1716 3584 
Q 2034 3584 2315 3537 
Q 2597 3491 2834 3397 
z
" transform="scale(0.015625)"/>
       <path id="DejaVuSans-40" d="M 1947 4863 
L 1947 -844 
L 622 -844 
L 622 -397 
L 1369 -397 
L 1369 4416 
L 622 4416 
L 622 4863 
L 1947 4863 
z
" transform="scale(0.015625)"/>
      </defs>
      <use xlink:href="#DejaVuSans-57"/>
      <use xlink:href="#DejaVuSans-4c" transform="translate(39.203125 0)"/>
      <use xlink:href="#DejaVuSans-50" transform="translate(66.984375 0)"/>
      <use xlink:href="#DejaVuSans-48" transform="translate(164.390625 0)"/>
      <use xlink:href="#DejaVuSans-3" transform="translate(225.921875 0)"/>
      <use xlink:href="#DejaVuSans-3e" transform="translate(257.703125 0)"/>
      <use xlink:href="#DejaVuSans-56" transform="translate(296.71875 0)"/>
      <use xlink:href="#DejaVuSans-40" transform="translate(348.8125 0)"/>
     </g>
    </g>
   </g>
   <g id="matplotlib.axis_2">
    <g id="ytick_1">
     <g id="line2d_7">
      <defs>
       <path id="m5f29ea3931" d="M 0 0 
L -3.5 0 
" style="stroke: #7f7f7f; stroke-width: 1.8"/>
      </defs>
      <g>
       <use xlink:href="#m5f29ea3931" x="28.942188" y="233.199161" style="fill: #7f7f7f; stroke: #7f7f7f; stroke-width: 1.8"/>
      </g>
     </g>
     <g id="text_8">
      <!-- −8 -->
      <g style="fill: #7f7f7f" transform="translate(7.2 236.997989) scale(0.1 -0.1)">
       <defs>
        <path id="DejaVuSans-c9c" d="M 678 2272 
L 4684 2272 
L 4684 1741 
L 678 1741 
L 678 2272 
z
" transform="scale(0.015625)"/>
       </defs>
       <use xlink:href="#DejaVuSans-c9c"/>
       <use xlink:href="#DejaVuSans-1b" transform="translate(83.796875 0)"/>
      </g>
     </g>
    </g>
    <g id="ytick_2">
     <g id="line2d_8">
      <g>
       <use xlink:href="#m5f29ea3931" x="28.942188" y="207.030287" style="fill: #7f7f7f; stroke: #7f7f7f; stroke-width: 1.8"/>
      </g>
     </g>
     <g id="text_9">
      <!-- −6 -->
      <g style="fill: #7f7f7f" transform="translate(7.2 210.829115) scale(0.1 -0.1)">
       <use xlink:href="#DejaVuSans-c9c"/>
       <use xlink:href="#DejaVuSans-19" transform="translate(83.796875 0)"/>
      </g>
     </g>
    </g>
    <g id="ytick_3">
     <g id="line2d_9">
      <g>
       <use xlink:href="#m5f29ea3931" x="28.942188" y="180.861413" style="fill: #7f7f7f; stroke: #7f7f7f; stroke-width: 1.8"/>
      </g>
     </g>
     <g id="text_10">
      <!-- −4 -->
      <g style="fill: #7f7f7f" transform="translate(7.2 184.660241) scale(0.1 -0.1)">
       <use xlink:href="#DejaVuSans-c9c"/>
       <use xlink:href="#DejaVuSans-17" transform="translate(83.796875 0)"/>
      </g>
     </g>
    </g>
    <g id="ytick_4">
     <g id="line2d_10">
      <g>
       <use xlink:href="#m5f29ea3931" x="28.942188" y="154.692539" style="fill: #7f7f7f; stroke: #7f7f7f; stroke-width: 1.8"/>
      </g>
     </g>
     <g id="text_11">
      <!-- −2 -->
      <g style="fill: #7f7f7f" transform="translate(7.2 158.491367) scale(0.1 -0.1)">
       <use xlink:href="#DejaVuSans-c9c"/>
       <use xlink:href="#DejaVuSans-15" transform="translate(83.796875 0)"/>
      </g>
     </g>
    </g>
    <g id="ytick_5">
     <g id="line2d_11">
      <g>
       <use xlink:href="#m5f29ea3931" x="28.942188" y="128.523665" style="fill: #7f7f7f; stroke: #7f7f7f; stroke-width: 1.8"/>
      </g>
     </g>
     <g id="text_12">
      <!-- 0 -->
      <g style="fill: #7f7f7f" transform="translate(15.579688 132.322493) scale(0.1 -0.1)">
       <use xlink:href="#DejaVuSans-13"/>
      </g>
     </g>
    </g>
    <g id="ytick_6">
     <g id="line2d_12">
      <g>
       <use xlink:href="#m5f29ea3931" x="28.942188" y="102.354791" style="fill: #7f7f7f; stroke: #7f7f7f; stroke-width: 1.8"/>
      </g>
     </g>
     <g id="text_13">
      <!-- 2 -->
      <g style="fill: #7f7f7f" transform="translate(15.579688 106.153619) scale(0.1 -0.1)">
       <use xlink:href="#DejaVuSans-15"/>
      </g>
     </g>
    </g>
    <g id="ytick_7">
     <g id="line2d_13">
      <g>
       <use xlink:href="#m5f29ea3931" x="28.942188" y="76.185917" style="fill: #7f7f7f; stroke: #7f7f7f; stroke-width: 1.8"/>
      </g>
     </g>
     <g id="text_14">
      <!-- 4 -->
      <g style="fill: #7f7f7f" transform="translate(15.579688 79.984745) scale(0.1 -0.1)">
       <use xlink:href="#DejaVuSans-17"/>
      </g>
     </g>
    </g>
    <g id="ytick_8">
     <g id="line2d_14">
      <g>
       <use xlink:href="#m5f29ea3931" x="28.942188" y="50.017043" style="fill: #7f7f7f; stroke: #7f7f7f; stroke-width: 1.8"/>
      </g>
     </g>
     <g id="text_15">
      <!-- 6 -->
      <g style="fill: #7f7f7f" transform="translate(15.579688 53.815871) scale(0.1 -0.1)">
       <use xlink:href="#DejaVuSans-19"/>
      </g>
     </g>
    </g>
    <g id="ytick_9">
     <g id="line2d_15">
      <g>
       <use xlink:href="#m5f29ea3931" x="28.942188" y="23.848169" style="fill: #7f7f7f; stroke: #7f7f7f; stroke-width: 1.8"/>
      </g>
     </g>
     <g id="text_16">
      <!-- 8 -->
      <g style="fill: #7f7f7f" transform="translate(15.579688 27.646998) scale(0.1 -0.1)">
       <use xlink:href="#DejaVuSans-1b"/>
      </g>
     </g>
    </g>
   </g>
   <g id="line2d_16">
    <path d="M 53.153906 128.523665 
L 57.656385 116.482949 
L 59.544522 115.489818 
L 61.142176 117.057686 
L 63.611277 123.101794 
L 70.437617 141.2748 
L 72.180512 141.2748 
L 73.923407 138.709406 
L 77.118715 129.345244 
L 81.911677 116.419551 
L 83.799813 115.505291 
L 85.397467 117.137801 
L 87.866568 123.251861 
L 94.547667 141.19703 
L 96.290562 141.344517 
L 98.033457 138.912582 
L 101.083523 130.16358 
L 106.166968 116.358063 
L 108.055104 115.52282 
L 109.652758 117.219714 
L 112.267101 123.860216 
L 118.657716 141.111255 
L 120.400612 141.406135 
L 122.143507 139.109197 
L 125.048332 130.975444 
L 130.422259 116.298497 
L 132.310395 115.542403 
L 133.908049 117.303412 
L 136.522392 124.014206 
L 142.767766 141.01753 
L 144.510661 141.459616 
L 146.108315 139.571221 
L 148.722658 132.723031 
L 154.822791 116.079626 
L 156.565686 115.564035 
L 158.16334 117.388881 
L 160.777683 124.168909 
L 167.023057 141.065383 
L 168.765953 141.433895 
L 170.508848 139.205004 
L 173.413673 131.136758 
L 178.932841 116.185165 
L 180.820978 115.587714 
L 182.418631 117.47611 
L 185.032974 124.324299 
L 191.133107 140.967704 
L 192.876002 141.483295 
L 194.473656 139.658449 
L 197.087999 132.878421 
L 203.333373 115.981947 
L 205.076269 115.613435 
L 206.819164 117.842326 
L 209.723989 125.910572 
L 215.243157 140.862165 
L 217.131294 141.459616 
L 218.728947 139.571221 
L 221.34329 132.723031 
L 227.443423 116.079626 
L 229.186319 115.564035 
L 230.783972 117.388881 
L 233.398315 124.168909 
L 239.64369 141.065383 
L 241.386585 141.433895 
L 243.12948 139.205004 
L 246.034305 131.136758 
L 251.553473 116.185165 
L 253.44161 115.587714 
L 255.039264 117.47611 
L 257.653606 124.324299 
L 263.753739 140.967704 
L 265.496635 141.483295 
L 267.094288 139.658449 
L 269.708631 132.878421 
L 275.954006 115.981947 
L 277.696901 115.613435 
L 279.439796 117.842326 
L 282.344621 125.910572 
L 287.863789 140.862165 
L 289.751926 141.459616 
L 291.34958 139.571221 
L 293.963922 132.723031 
L 300.064055 116.079626 
L 301.806951 115.564035 
L 303.404605 117.388881 
L 306.018947 124.168909 
L 312.264322 141.065383 
L 314.007217 141.433895 
L 315.750112 139.205004 
L 318.654937 131.136758 
L 324.174105 116.185165 
L 326.062242 115.587714 
L 327.659896 117.47611 
L 330.274238 124.324299 
L 336.374372 140.967704 
L 338.117267 141.483295 
L 339.714921 139.658449 
L 342.329263 132.878421 
L 348.574638 115.981947 
L 350.317533 115.613435 
L 352.060428 117.842326 
L 354.965253 125.910572 
L 360.484421 140.862165 
L 362.372558 141.459616 
L 363.970212 139.571221 
L 366.584554 132.723031 
L 372.684688 116.079626 
L 374.427583 115.564035 
L 376.025237 117.388881 
L 378.639579 124.168909 
L 384.884954 141.065383 
L 386.627849 141.433895 
L 388.370744 139.205004 
L 391.275569 131.136758 
L 396.794737 116.185165 
L 398.682874 115.587714 
L 400.280528 117.47611 
L 402.894871 124.324299 
L 408.995004 140.967704 
L 410.737899 141.483295 
L 412.335553 139.658449 
L 414.949895 132.878421 
L 421.19527 115.981947 
L 422.938165 115.613435 
L 424.68106 117.842326 
L 427.585885 125.910572 
L 433.105054 140.862165 
L 434.99319 141.459616 
L 436.590844 139.571221 
L 439.205187 132.723031 
L 445.30532 116.079626 
L 447.048215 115.564035 
L 448.645869 117.388881 
L 451.260212 124.168909 
L 457.505586 141.065383 
L 459.248481 141.433895 
L 460.991376 139.205004 
L 463.896202 131.136758 
L 469.41537 116.185165 
L 471.303506 115.587714 
L 472.90116 117.47611 
L 475.515503 124.324299 
L 481.615636 140.967704 
L 483.358531 141.483295 
L 484.956185 139.658449 
L 487.570528 132.878421 
L 493.815902 115.981947 
L 495.558797 115.613435 
L 497.301692 117.842326 
L 500.206518 125.910572 
L 505.725686 140.862165 
L 507.613822 141.459616 
L 509.211476 139.571221 
L 511.825819 132.723031 
L 517.925952 116.079626 
L 519.668847 115.564035 
L 521.266501 117.388881 
L 523.880844 124.168909 
L 530.126218 141.065383 
L 531.869113 141.433895 
L 533.612008 139.205004 
L 536.516834 131.136758 
L 537.388281 128.194852 
L 537.388281 128.194852 
" clip-path="url(#pc58772586a)" style="fill: none; stroke: #e41a1c; stroke-width: 2; stroke-linecap: square"/>
   </g>
   <g id="line2d_17">
    <path d="M 53.153906 128.523665 
L 53.880113 124.591492 
L 56.058732 64.595446 
L 58.963557 22.040516 
L 60.125487 17.854506 
L 60.415969 18.929259 
L 62.013623 31.933146 
L 62.885071 29.873236 
L 63.466036 36.388295 
L 66.080379 104.531073 
L 69.130445 185.25615 
L 71.454306 216.098143 
L 72.470994 221.518771 
L 73.051959 219.340152 
L 73.923407 214.663044 
L 76.682991 173.664281 
L 81.621194 39.74435 
L 83.50933 24.999559 
L 83.799813 26.02092 
L 88.157051 56.368017 
L 90.190429 109.075454 
L 93.966702 205.600895 
L 95.128632 216.436625 
L 96.435803 227.733555 
L 96.581044 227.54689 
L 98.614422 216.523986 
L 101.374006 170.12405 
L 108.200345 28.581474 
L 108.345587 28.073487 
L 108.926552 29.662335 
L 112.12186 60.555715 
L 114.881444 125.726619 
L 118.221993 216.818082 
L 119.819647 223.110014 
L 120.836335 223.527055 
L 121.126818 222.812382 
L 121.707783 222.688922 
L 121.853024 223.088202 
L 122.143507 223.417197 
L 122.288748 223.098156 
L 123.160196 210.44086 
L 132.165154 28.09326 
L 133.181843 27.667458 
L 133.327084 27.949459 
L 134.198532 30.097684 
L 134.634255 29.798295 
L 134.924738 30.348307 
L 135.796186 43.639569 
L 137.974805 91.258167 
L 141.896319 209.473476 
L 143.493973 220.256455 
L 145.091627 229.120949 
L 145.52735 227.749012 
L 146.108315 226.335961 
L 149.158382 192.868822 
L 151.627483 102.248937 
L 154.096585 55.501096 
L 156.275204 29.344819 
L 156.565686 30.003916 
L 157.146651 30.893129 
L 160.341959 52.095513 
L 161.649131 79.995233 
L 166.877816 209.856064 
L 169.927883 230.944634 
L 170.363606 229.360992 
L 171.816019 221.936948 
L 173.268432 200.356207 
L 175.882775 110.763747 
L 178.351876 42.368361 
L 180.094771 29.888429 
L 180.675736 31.393482 
L 182.27339 34.366205 
L 182.418631 34.138331 
L 183.144838 34.488974 
L 184.742492 50.859694 
L 186.194904 95.68879 
L 191.42359 212.011089 
L 193.602209 225.953321 
L 194.037933 226.835894 
L 194.328415 227.654684 
L 194.764139 225.714103 
L 196.652275 205.882218 
L 198.685653 156.978516 
L 202.607167 42.69707 
L 203.914339 38.89834 
L 204.640545 34.910384 
L 206.092958 27.785612 
L 206.38344 28.000288 
L 206.819164 29.917445 
L 208.997783 56.922114 
L 210.450195 93.044486 
L 215.097916 206.935298 
L 217.276535 227.83248 
L 219.455154 223.939821 
L 220.907566 198.642907 
L 224.102874 129.502932 
L 229.041077 31.440052 
L 229.622042 30.355359 
L 229.912525 31.595514 
L 231.364937 42.472611 
L 234.705487 83.992525 
L 238.627001 195.785219 
L 241.531826 230.604477 
L 241.96755 229.21087 
L 244.000927 220.987396 
L 247.050994 156.194169 
L 250.536784 63.868587 
L 253.151127 27.367642 
L 253.586851 28.001007 
L 255.910711 41.979037 
L 256.782159 55.62185 
L 264.044222 218.130982 
L 265.060911 221.277986 
L 266.222841 228.709512 
L 266.949047 226.903012 
L 268.691942 210.093168 
L 271.596768 143.911143 
L 274.646834 60.143908 
L 276.825453 40.855991 
L 278.568348 27.709405 
L 279.585037 30.938097 
L 280.020761 32.148492 
L 280.892209 42.379494 
L 289.606684 221.797822 
L 291.204338 229.612849 
L 291.494821 229.399931 
L 292.366268 218.572566 
L 296.287783 144.987115 
L 301.516468 28.486335 
L 302.097433 27.063514 
L 302.533157 27.986872 
L 305.1475 39.908974 
L 307.907084 101.939398 
L 311.392874 197.104371 
L 313.426252 220.954409 
L 314.442941 227.616235 
L 314.878664 225.687633 
L 316.476318 215.157027 
L 318.654937 182.185411 
L 324.319347 43.759823 
L 326.497966 35.41381 
L 327.078931 37.378578 
L 328.386102 47.335778 
L 328.967067 45.013286 
L 329.402791 43.542205 
L 329.693273 44.599641 
L 330.564721 66.48071 
L 333.90527 158.649156 
L 336.519613 210.903061 
L 338.698232 220.914822 
L 340.005403 215.172441 
L 340.586368 217.358587 
L 340.876851 217.779799 
L 341.022092 217.284007 
L 342.619746 187.967894 
L 349.591327 34.921352 
L 351.915187 24.223352 
L 352.060428 24.318201 
L 352.786634 29.207058 
L 355.546218 78.284948 
L 357.143872 129.698611 
L 360.33918 209.191031 
L 362.227317 223.681073 
L 362.808282 224.19744 
L 362.953523 223.772653 
L 364.551177 212.292606 
L 367.020278 172.691764 
L 373.265653 37.375028 
L 375.444272 24.247394 
L 375.734754 25.086432 
L 378.203856 42.353406 
L 379.656268 72.228822 
L 385.320678 219.226699 
L 387.208814 229.950679 
L 387.499297 229.37711 
L 388.515985 224.123193 
L 395.92329 53.896675 
L 397.956668 29.0301 
L 399.118598 27.083523 
L 399.554321 27.773651 
L 400.57101 28.779129 
L 401.878182 44.136019 
L 404.783007 91.209814 
L 408.995004 207.608171 
L 411.173623 227.975112 
L 411.464105 228.658437 
L 411.899829 227.421645 
L 413.642724 220.32827 
L 414.659413 204.612721 
L 417.999962 103.164521 
L 420.469064 37.149249 
L 422.647682 27.548813 
L 423.083406 26.650115 
L 423.373889 27.855646 
L 425.262025 37.474018 
L 426.133473 50.359274 
L 428.312092 87.472193 
L 433.540777 218.895598 
L 434.266984 224.725617 
L 434.99319 224.081982 
L 436.590844 216.432101 
L 438.188498 203.229743 
L 438.914704 193.050095 
L 445.30532 42.510983 
L 447.338697 31.485671 
L 448.355386 29.405947 
L 448.936351 30.049581 
L 449.662558 33.617319 
L 450.969729 60.751675 
L 453.729313 128.49695 
L 456.924621 205.924472 
L 458.957999 222.37062 
L 460.700894 225.695779 
L 460.846135 225.063193 
L 462.298548 209.67225 
L 470.286817 34.646552 
L 470.5773 35.885281 
L 471.158265 38.215644 
L 471.593989 37.078345 
L 472.320195 35.817191 
L 472.610677 36.744703 
L 474.644055 52.832644 
L 476.822674 94.221499 
L 481.034671 202.579626 
L 483.649013 226.163322 
L 484.37522 225.790006 
L 486.263356 219.98931 
L 487.86101 192.979634 
L 493.961143 35.693899 
L 495.84928 24.9687 
L 496.139762 24.614563 
L 496.575486 25.172377 
L 498.027899 34.03291 
L 499.625553 54.986202 
L 503.837549 178.338 
L 506.451892 228.093999 
L 507.32334 229.959717 
L 507.759063 229.499273 
L 509.211476 227.588986 
L 510.373406 219.800101 
L 512.697266 180.964588 
L 517.054504 55.202494 
L 519.814088 31.547954 
L 520.540295 29.260174 
L 520.976018 30.950008 
L 524.026085 64.012879 
L 531.288148 227.078496 
L 532.450078 230.752948 
L 533.176285 230.150843 
L 533.75725 228.359648 
L 535.209662 211.716825 
L 537.388281 155.212261 
L 537.388281 155.212261 
" clip-path="url(#pc58772586a)" style="fill: none; stroke: #377eb8; stroke-width: 2; stroke-linecap: square"/>
   </g>
   <g id="patch_3">
    <path d="M 28.942188 241.599141 
L 28.942188 7.2 
" style="fill: none; stroke: #7f7f7f; stroke-width: 1.8; stroke-linejoin: miter; stroke-linecap: square"/>
   </g>
   <g id="patch_4">
    <path d="M 28.942188 241.599141 
L 561.6 241.599141 
" style="fill: none; stroke: #7f7f7f; stroke-width: 1.8; stroke-linejoin: miter; stroke-linecap: square"/>
   </g>
   <g id="legend_1">
    <g id="line2d_18">
     <path d="M 503.101562 20.298438 
L 513.101562 20.298438 
L 523.101562 20.298438 
" style="fill: none; stroke: #e41a1c; stroke-width: 2; stroke-linecap: square"/>
    </g>
    <g id="text_17">
     <!-- Src -->
     <g style="fill: #7f7f7f" transform="translate(531.101562 23.798438) scale(0.1 -0.1)">
      <defs>
       <path id="DejaVuSans-36" d="M 3425 4513 
L 3425 3897 
Q 3066 4069 2747 4153 
Q 2428 4238 2131 4238 
Q 1616 4238 1336 4038 
Q 1056 3838 1056 3469 
Q 1056 3159 1242 3001 
Q 1428 2844 1947 2747 
L 2328 2669 
Q 3034 2534 3370 2195 
Q 3706 1856 3706 1288 
Q 3706 609 3251 259 
Q 2797 -91 1919 -91 
Q 1588 -91 1214 -16 
Q 841 59 441 206 
L 441 856 
Q 825 641 1194 531 
Q 1563 422 1919 422 
Q 2459 422 2753 634 
Q 3047 847 3047 1241 
Q 3047 1584 2836 1778 
Q 2625 1972 2144 2069 
L 1759 2144 
Q 1053 2284 737 2584 
Q 422 2884 422 3419 
Q 422 4038 858 4394 
Q 1294 4750 2059 4750 
Q 2388 4750 2728 4690 
Q 3069 4631 3425 4513 
z
" transform="scale(0.015625)"/>
       <path id="DejaVuSans-55" d="M 2631 2963 
Q 2534 3019 2420 3045 
Q 2306 3072 2169 3072 
Q 1681 3072 1420 2755 
Q 1159 2438 1159 1844 
L 1159 0 
L 581 0 
L 581 3500 
L 1159 3500 
L 1159 2956 
Q 1341 3275 1631 3429 
Q 1922 3584 2338 3584 
Q 2397 3584 2469 3576 
Q 2541 3569 2628 3553 
L 2631 2963 
z
" transform="scale(0.015625)"/>
       <path id="DejaVuSans-46" d="M 3122 3366 
L 3122 2828 
Q 2878 2963 2633 3030 
Q 2388 3097 2138 3097 
Q 1578 3097 1268 2742 
Q 959 2388 959 1747 
Q 959 1106 1268 751 
Q 1578 397 2138 397 
Q 2388 397 2633 464 
Q 2878 531 3122 666 
L 3122 134 
Q 2881 22 2623 -34 
Q 2366 -91 2075 -91 
Q 1284 -91 818 406 
Q 353 903 353 1747 
Q 353 2603 823 3093 
Q 1294 3584 2113 3584 
Q 2378 3584 2631 3529 
Q 2884 3475 3122 3366 
z
" transform="scale(0.015625)"/>
      </defs>
      <use xlink:href="#DejaVuSans-36"/>
      <use xlink:href="#DejaVuSans-55" transform="translate(63.484375 0)"/>
      <use xlink:href="#DejaVuSans-46" transform="translate(102.390625 0)"/>
     </g>
    </g>
    <g id="line2d_19">
     <path d="M 503.101562 35.299219 
L 513.101562 35.299219 
L 523.101562 35.299219 
" style="fill: none; stroke: #377eb8; stroke-width: 2; stroke-linecap: square"/>
    </g>
    <g id="text_18">
     <!-- AMP -->
     <g style="fill: #7f7f7f" transform="translate(531.101562 38.799219) scale(0.1 -0.1)">
      <defs>
       <path id="DejaVuSans-24" d="M 2188 4044 
L 1331 1722 
L 3047 1722 
L 2188 4044 
z
M 1831 4666 
L 2547 4666 
L 4325 0 
L 3669 0 
L 3244 1197 
L 1141 1197 
L 716 0 
L 50 0 
L 1831 4666 
z
" transform="scale(0.015625)"/>
       <path id="DejaVuSans-30" d="M 628 4666 
L 1569 4666 
L 2759 1491 
L 3956 4666 
L 4897 4666 
L 4897 0 
L 4281 0 
L 4281 4097 
L 3078 897 
L 2444 897 
L 1241 4097 
L 1241 0 
L 628 0 
L 628 4666 
z
" transform="scale(0.015625)"/>
       <path id="DejaVuSans-33" d="M 1259 4147 
L 1259 2394 
L 2053 2394 
Q 2494 2394 2734 2622 
Q 2975 2850 2975 3272 
Q 2975 3691 2734 3919 
Q 2494 4147 2053 4147 
L 1259 4147 
z
M 628 4666 
L 2053 4666 
Q 2838 4666 3239 4311 
Q 3641 3956 3641 3272 
Q 3641 2581 3239 2228 
Q 2838 1875 2053 1875 
L 1259 1875 
L 1259 0 
L 628 0 
L 628 4666 
z
" transform="scale(0.015625)"/>
      </defs>
      <use xlink:href="#DejaVuSans-24"/>
      <use xlink:href="#DejaVuSans-30" transform="translate(68.40625 0)"/>
      <use xlink:href="#DejaVuSans-33" transform="translate(154.6875 0)"/>
     </g>
    </g>
   </g>
  </g>
 </g>
 <defs>
  <clipPath id="pc58772586a">
   <rect x="28.942188" y="7.2" width="532.657812" height="234.399141"/>
  </clipPath>
 </defs>
</svg>
