<?xml version="1.0" encoding="utf-8" standalone="no"?>
<!DOCTYPE svg PUBLIC "-//W3C//DTD SVG 1.1//EN"
  "http://www.w3.org/Graphics/SVG/1.1/DTD/svg11.dtd">
<svg xmlns:xlink="http://www.w3.org/1999/xlink" width="568.8pt" height="280.8pt" viewBox="0 0 568.8 280.8" xmlns="http://www.w3.org/2000/svg" version="1.1">
 <metadata>
  <rdf:RDF xmlns:dc="http://purl.org/dc/elements/1.1/" xmlns:cc="http://creativecommons.org/ns#" xmlns:rdf="http://www.w3.org/1999/02/22-rdf-syntax-ns#">
   <cc:Work>
    <dc:type rdf:resource="http://purl.org/dc/dcmitype/StillImage"/>
    <dc:date>2026-06-19T18:51:20.669168</dc:date>
    <dc:format>image/svg+xml</dc:format>
    <dc:creator>
     <cc:Agent>
      <dc:title>Matplotlib v3.11.0, https://matplotlib.org/</dc:title>
     </cc:Agent>
    </dc:creator>
   </cc:Work>
  </rdf:RDF>
 </metadata>
 <defs>
  <style type="text/css">*{stroke-linejoin: round; stroke-linecap: butt}</style>
 </defs>
 <g id="figure_1">
  <g id="patch_1">
   <path d="M 0 280.8 
L 568.8 280.8 
L 568.8 0 
L 0 0 
L 0 280.8 
z
" style="fill: none"/>
  </g>
  <g id="axes_1">
   <g id="patch_2">
    <path d="M 38.482813 241.599141 
L 561.6 241.599141 
L 561.6 7.2 
L 38.482813 7.2 
L 38.482813 241.599141 
z
" style="fill: none"/>
   </g>
   <g id="matplotlib.axis_1">
    <g id="xtick_1">
     <g id="line2d_1">
      <path d="M 62.260866 241.599141 
L 62.260866 7.2 
" clip-path="url(#p715ddf26ac)" style="fill: none; stroke-dasharray: 2.96,1.28; stroke-dashoffset: 0; stroke: #7f7f7f; stroke-opacity: 0.6; stroke-width: 0.8"/>
     </g>
     <g id="line2d_2">
      <defs>
       <path id="m11eb0703bf" d="M 0 0 
L 0 3.5 
" style="stroke: #7f7f7f; stroke-width: 1.8"/>
      </defs>
      <g>
       <use xlink:href="#m11eb0703bf" x="62.260866" y="241.599141" style="fill: #7f7f7f; stroke: #7f7f7f; stroke-width: 1.8"/>
      </g>
     </g>
     <g id="text_1">
      <!-- 0 -->
      <g style="fill: #7f7f7f" transform="translate(59.079616 256.196797) scale(0.1 -0.1)">
       <defs>
        <path id="DejaVuSans-13" d="M 2034 4250 
Q 1547 4250 1301 3770 
Q 1056 3291 1056 2328 
Q 1056 1369 1301 889 
Q 1547 409 2034 409 
Q 2525 409 2770 889 
Q 3016 1369 3016 2328 
Q 3016 3291 2770 3770 
Q 2525 4250 2034 4250 
z
M 2034 4750 
Q 2819 4750 3233 4129 
Q 3647 3509 3647 2328 
Q 3647 1150 3233 529 
Q 2819 -91 2034 -91 
Q 1250 -91 836 529 
Q 422 1150 422 2328 
Q 422 3509 836 4129 
Q 1250 4750 2034 4750 
z
" transform="scale(0.015625)"/>
       </defs>
       <use xlink:href="#DejaVuSans-13"/>
      </g>
     </g>
    </g>
    <g id="xtick_2">
     <g id="line2d_3">
      <path d="M 157.373082 241.599141 
L 157.373082 7.2 
" clip-path="url(#p715ddf26ac)" style="fill: none; stroke-dasharray: 2.96,1.28; stroke-dashoffset: 0; stroke: #7f7f7f; stroke-opacity: 0.6; stroke-width: 0.8"/>
     </g>
     <g id="line2d_4">
      <g>
       <use xlink:href="#m11eb0703bf" x="157.373082" y="241.599141" style="fill: #7f7f7f; stroke: #7f7f7f; stroke-width: 1.8"/>
      </g>
     </g>
     <g id="text_2">
      <!-- 20 -->
      <g style="fill: #7f7f7f" transform="translate(151.010582 256.196797) scale(0.1 -0.1)">
       <defs>
        <path id="DejaVuSans-15" d="M 1228 531 
L 3431 531 
L 3431 0 
L 469 0 
L 469 531 
Q 828 903 1448 1529 
Q 2069 2156 2228 2338 
Q 2531 2678 2651 2914 
Q 2772 3150 2772 3378 
Q 2772 3750 2511 3984 
Q 2250 4219 1831 4219 
Q 1534 4219 1204 4116 
Q 875 4013 500 3803 
L 500 4441 
Q 881 4594 1212 4672 
Q 1544 4750 1819 4750 
Q 2544 4750 2975 4387 
Q 3406 4025 3406 3419 
Q 3406 3131 3298 2873 
Q 3191 2616 2906 2266 
Q 2828 2175 2409 1742 
Q 1991 1309 1228 531 
z
" transform="scale(0.015625)"/>
       </defs>
       <use xlink:href="#DejaVuSans-15"/>
       <use xlink:href="#DejaVuSans-13" transform="translate(63.625 0)"/>
      </g>
     </g>
    </g>
    <g id="xtick_3">
     <g id="line2d_5">
      <path d="M 252.485298 241.599141 
L 252.485298 7.2 
" clip-path="url(#p715ddf26ac)" style="fill: none; stroke-dasharray: 2.96,1.28; stroke-dashoffset: 0; stroke: #7f7f7f; stroke-opacity: 0.6; stroke-width: 0.8"/>
     </g>
     <g id="line2d_6">
      <g>
       <use xlink:href="#m11eb0703bf" x="252.485298" y="241.599141" style="fill: #7f7f7f; stroke: #7f7f7f; stroke-width: 1.8"/>
      </g>
     </g>
     <g id="text_3">
      <!-- 40 -->
      <g style="fill: #7f7f7f" transform="translate(246.122798 256.196797) scale(0.1 -0.1)">
       <defs>
        <path id="DejaVuSans-17" d="M 2419 4116 
L 825 1625 
L 2419 1625 
L 2419 4116 
z
M 2253 4666 
L 3047 4666 
L 3047 1625 
L 3713 1625 
L 3713 1100 
L 3047 1100 
L 3047 0 
L 2419 0 
L 2419 1100 
L 313 1100 
L 313 1709 
L 2253 4666 
z
" transform="scale(0.015625)"/>
       </defs>
       <use xlink:href="#DejaVuSans-17"/>
       <use xlink:href="#DejaVuSans-13" transform="translate(63.625 0)"/>
      </g>
     </g>
    </g>
    <g id="xtick_4">
     <g id="line2d_7">
      <path d="M 347.597514 241.599141 
L 347.597514 7.2 
" clip-path="url(#p715ddf26ac)" style="fill: none; stroke-dasharray: 2.96,1.28; stroke-dashoffset: 0; stroke: #7f7f7f; stroke-opacity: 0.6; stroke-width: 0.8"/>
     </g>
     <g id="line2d_8">
      <g>
       <use xlink:href="#m11eb0703bf" x="347.597514" y="241.599141" style="fill: #7f7f7f; stroke: #7f7f7f; stroke-width: 1.8"/>
      </g>
     </g>
     <g id="text_4">
      <!-- 60 -->
      <g style="fill: #7f7f7f" transform="translate(341.235014 256.196797) scale(0.1 -0.1)">
       <defs>
        <path id="DejaVuSans-19" d="M 2113 2584 
Q 1688 2584 1439 2293 
Q 1191 2003 1191 1497 
Q 1191 994 1439 701 
Q 1688 409 2113 409 
Q 2538 409 2786 701 
Q 3034 994 3034 1497 
Q 3034 2003 2786 2293 
Q 2538 2584 2113 2584 
z
M 3366 4563 
L 3366 3988 
Q 3128 4100 2886 4159 
Q 2644 4219 2406 4219 
Q 1781 4219 1451 3797 
Q 1122 3375 1075 2522 
Q 1259 2794 1537 2939 
Q 1816 3084 2150 3084 
Q 2853 3084 3261 2657 
Q 3669 2231 3669 1497 
Q 3669 778 3244 343 
Q 2819 -91 2113 -91 
Q 1303 -91 875 529 
Q 447 1150 447 2328 
Q 447 3434 972 4092 
Q 1497 4750 2381 4750 
Q 2619 4750 2861 4703 
Q 3103 4656 3366 4563 
z
" transform="scale(0.015625)"/>
       </defs>
       <use xlink:href="#DejaVuSans-19"/>
       <use xlink:href="#DejaVuSans-13" transform="translate(63.625 0)"/>
      </g>
     </g>
    </g>
    <g id="xtick_5">
     <g id="line2d_9">
      <path d="M 442.70973 241.599141 
L 442.70973 7.2 
" clip-path="url(#p715ddf26ac)" style="fill: none; stroke-dasharray: 2.96,1.28; stroke-dashoffset: 0; stroke: #7f7f7f; stroke-opacity: 0.6; stroke-width: 0.8"/>
     </g>
     <g id="line2d_10">
      <g>
       <use xlink:href="#m11eb0703bf" x="442.70973" y="241.599141" style="fill: #7f7f7f; stroke: #7f7f7f; stroke-width: 1.8"/>
      </g>
     </g>
     <g id="text_5">
      <!-- 80 -->
      <g style="fill: #7f7f7f" transform="translate(436.34723 256.196797) scale(0.1 -0.1)">
       <defs>
        <path id="DejaVuSans-1b" d="M 2034 2216 
Q 1584 2216 1326 1975 
Q 1069 1734 1069 1313 
Q 1069 891 1326 650 
Q 1584 409 2034 409 
Q 2484 409 2743 651 
Q 3003 894 3003 1313 
Q 3003 1734 2745 1975 
Q 2488 2216 2034 2216 
z
M 1403 2484 
Q 997 2584 770 2862 
Q 544 3141 544 3541 
Q 544 4100 942 4425 
Q 1341 4750 2034 4750 
Q 2731 4750 3128 4425 
Q 3525 4100 3525 3541 
Q 3525 3141 3298 2862 
Q 3072 2584 2669 2484 
Q 3125 2378 3379 2068 
Q 3634 1759 3634 1313 
Q 3634 634 3220 271 
Q 2806 -91 2034 -91 
Q 1263 -91 848 271 
Q 434 634 434 1313 
Q 434 1759 690 2068 
Q 947 2378 1403 2484 
z
M 1172 3481 
Q 1172 3119 1398 2916 
Q 1625 2713 2034 2713 
Q 2441 2713 2670 2916 
Q 2900 3119 2900 3481 
Q 2900 3844 2670 4047 
Q 2441 4250 2034 4250 
Q 1625 4250 1398 4047 
Q 1172 3844 1172 3481 
z
" transform="scale(0.015625)"/>
       </defs>
       <use xlink:href="#DejaVuSans-1b"/>
       <use xlink:href="#DejaVuSans-13" transform="translate(63.625 0)"/>
      </g>
     </g>
    </g>
    <g id="xtick_6">
     <g id="line2d_11">
      <path d="M 537.821946 241.599141 
L 537.821946 7.2 
" clip-path="url(#p715ddf26ac)" style="fill: none; stroke-dasharray: 2.96,1.28; stroke-dashoffset: 0; stroke: #7f7f7f; stroke-opacity: 0.6; stroke-width: 0.8"/>
     </g>
     <g id="line2d_12">
      <g>
       <use xlink:href="#m11eb0703bf" x="537.821946" y="241.599141" style="fill: #7f7f7f; stroke: #7f7f7f; stroke-width: 1.8"/>
      </g>
     </g>
     <g id="text_6">
      <!-- 100 -->
      <g style="fill: #7f7f7f" transform="translate(528.278196 256.196797) scale(0.1 -0.1)">
       <defs>
        <path id="DejaVuSans-14" d="M 794 531 
L 1825 531 
L 1825 4091 
L 703 3866 
L 703 4441 
L 1819 4666 
L 2450 4666 
L 2450 531 
L 3481 531 
L 3481 0 
L 794 0 
L 794 531 
z
" transform="scale(0.015625)"/>
       </defs>
       <use xlink:href="#DejaVuSans-14"/>
       <use xlink:href="#DejaVuSans-13" transform="translate(63.625 0)"/>
       <use xlink:href="#DejaVuSans-13" transform="translate(127.25 0)"/>
      </g>
     </g>
    </g>
    <g id="text_7">
     <!-- time [s] -->
     <g style="fill: #7f7f7f" transform="translate(278.710859 270.957422) scale(0.11 -0.11)">
      <defs>
       <path id="DejaVuSans-57" d="M 1172 4494 
L 1172 3500 
L 2356 3500 
L 2356 3053 
L 1172 3053 
L 1172 1153 
Q 1172 725 1289 603 
Q 1406 481 1766 481 
L 2356 481 
L 2356 0 
L 1766 0 
Q 1100 0 847 248 
Q 594 497 594 1153 
L 594 3053 
L 172 3053 
L 172 3500 
L 594 3500 
L 594 4494 
L 1172 4494 
z
" transform="scale(0.015625)"/>
       <path id="DejaVuSans-4c" d="M 603 3500 
L 1178 3500 
L 1178 0 
L 603 0 
L 603 3500 
z
M 603 4863 
L 1178 4863 
L 1178 4134 
L 603 4134 
L 603 4863 
z
" transform="scale(0.015625)"/>
       <path id="DejaVuSans-50" d="M 3328 2828 
Q 3544 3216 3844 3400 
Q 4144 3584 4550 3584 
Q 5097 3584 5394 3201 
Q 5691 2819 5691 2113 
L 5691 0 
L 5113 0 
L 5113 2094 
Q 5113 2597 4934 2840 
Q 4756 3084 4391 3084 
Q 3944 3084 3684 2787 
Q 3425 2491 3425 1978 
L 3425 0 
L 2847 0 
L 2847 2094 
Q 2847 2600 2669 2842 
Q 2491 3084 2119 3084 
Q 1678 3084 1418 2786 
Q 1159 2488 1159 1978 
L 1159 0 
L 581 0 
L 581 3500 
L 1159 3500 
L 1159 2956 
Q 1356 3278 1631 3431 
Q 1906 3584 2284 3584 
Q 2666 3584 2933 3390 
Q 3200 3197 3328 2828 
z
" transform="scale(0.015625)"/>
       <path id="DejaVuSans-48" d="M 3597 1894 
L 3597 1613 
L 953 1613 
Q 991 1019 1311 708 
Q 1631 397 2203 397 
Q 2534 397 2845 478 
Q 3156 559 3463 722 
L 3463 178 
Q 3153 47 2828 -22 
Q 2503 -91 2169 -91 
Q 1331 -91 842 396 
Q 353 884 353 1716 
Q 353 2575 817 3079 
Q 1281 3584 2069 3584 
Q 2775 3584 3186 3129 
Q 3597 2675 3597 1894 
z
M 3022 2063 
Q 3016 2534 2758 2815 
Q 2500 3097 2075 3097 
Q 1594 3097 1305 2825 
Q 1016 2553 972 2059 
L 3022 2063 
z
" transform="scale(0.015625)"/>
       <path id="DejaVuSans-3" transform="scale(0.015625)"/>
       <path id="DejaVuSans-3e" d="M 550 4863 
L 1875 4863 
L 1875 4416 
L 1125 4416 
L 1125 -397 
L 1875 -397 
L 1875 -844 
L 550 -844 
L 550 4863 
z
" transform="scale(0.015625)"/>
       <path id="DejaVuSans-56" d="M 2834 3397 
L 2834 2853 
Q 2591 2978 2328 3040 
Q 2066 3103 1784 3103 
Q 1356 3103 1142 2972 
Q 928 2841 928 2578 
Q 928 2378 1081 2264 
Q 1234 2150 1697 2047 
L 1894 2003 
Q 2506 1872 2764 1633 
Q 3022 1394 3022 966 
Q 3022 478 2636 193 
Q 2250 -91 1575 -91 
Q 1294 -91 989 -36 
Q 684 19 347 128 
L 347 722 
Q 666 556 975 473 
Q 1284 391 1588 391 
Q 1994 391 2212 530 
Q 2431 669 2431 922 
Q 2431 1156 2273 1281 
Q 2116 1406 1581 1522 
L 1381 1569 
Q 847 1681 609 1914 
Q 372 2147 372 2553 
Q 372 3047 722 3315 
Q 1072 3584 1716 3584 
Q 2034 3584 2315 3537 
Q 2597 3491 2834 3397 
z
" transform="scale(0.015625)"/>
       <path id="DejaVuSans-40" d="M 1947 4863 
L 1947 -844 
L 622 -844 
L 622 -397 
L 1369 -397 
L 1369 4416 
L 622 4416 
L 622 4863 
L 1947 4863 
z
" transform="scale(0.015625)"/>
      </defs>
      <use xlink:href="#DejaVuSans-57"/>
      <use xlink:href="#DejaVuSans-4c" transform="translate(39.203125 0)"/>
      <use xlink:href="#DejaVuSans-50" transform="translate(66.984375 0)"/>
      <use xlink:href="#DejaVuSans-48" transform="translate(164.390625 0)"/>
      <use xlink:href="#DejaVuSans-3" transform="translate(225.921875 0)"/>
      <use xlink:href="#DejaVuSans-3e" transform="translate(257.703125 0)"/>
      <use xlink:href="#DejaVuSans-56" transform="translate(296.71875 0)"/>
      <use xlink:href="#DejaVuSans-40" transform="translate(348.8125 0)"/>
     </g>
    </g>
   </g>
   <g id="matplotlib.axis_2">
    <g id="ytick_1">
     <g id="line2d_13">
      <path d="M 38.482813 210.84207 
L 561.6 210.84207 
" clip-path="url(#p715ddf26ac)" style="fill: none; stroke-dasharray: 2.96,1.28; stroke-dashoffset: 0; stroke: #7f7f7f; stroke-opacity: 0.6; stroke-width: 0.8"/>
     </g>
     <g id="line2d_14">
      <defs>
       <path id="m686e7010fd" d="M 0 0 
L -3.5 0 
" style="stroke: #7f7f7f; stroke-width: 1.8"/>
      </defs>
      <g>
       <use xlink:href="#m686e7010fd" x="38.482813" y="210.84207" style="fill: #7f7f7f; stroke: #7f7f7f; stroke-width: 1.8"/>
      </g>
     </g>
     <g id="text_8">
      <!-- −0.1 -->
      <g style="fill: #7f7f7f" transform="translate(7.2 214.640898) scale(0.1 -0.1)">
       <defs>
        <path id="DejaVuSans-c9c" d="M 678 2272 
L 4684 2272 
L 4684 1741 
L 678 1741 
L 678 2272 
z
" transform="scale(0.015625)"/>
        <path id="DejaVuSans-11" d="M 684 794 
L 1344 794 
L 1344 0 
L 684 0 
L 684 794 
z
" transform="scale(0.015625)"/>
       </defs>
       <use xlink:href="#DejaVuSans-c9c"/>
       <use xlink:href="#DejaVuSans-13" transform="translate(83.796875 0)"/>
       <use xlink:href="#DejaVuSans-11" transform="translate(147.421875 0)"/>
       <use xlink:href="#DejaVuSans-14" transform="translate(179.203125 0)"/>
      </g>
     </g>
    </g>
    <g id="ytick_2">
     <g id="line2d_15">
      <path d="M 38.482813 166.773326 
L 561.6 166.773326 
" clip-path="url(#p715ddf26ac)" style="fill: none; stroke-dasharray: 2.96,1.28; stroke-dashoffset: 0; stroke: #7f7f7f; stroke-opacity: 0.6; stroke-width: 0.8"/>
     </g>
     <g id="line2d_16">
      <g>
       <use xlink:href="#m686e7010fd" x="38.482813" y="166.773326" style="fill: #7f7f7f; stroke: #7f7f7f; stroke-width: 1.8"/>
      </g>
     </g>
     <g id="text_9">
      <!-- 0.0 -->
      <g style="fill: #7f7f7f" transform="translate(15.579688 170.572154) scale(0.1 -0.1)">
       <use xlink:href="#DejaVuSans-13"/>
       <use xlink:href="#DejaVuSans-11" transform="translate(63.625 0)"/>
       <use xlink:href="#DejaVuSans-13" transform="translate(95.40625 0)"/>
      </g>
     </g>
    </g>
    <g id="ytick_3">
     <g id="line2d_17">
      <path d="M 38.482813 122.704581 
L 561.6 122.704581 
" clip-path="url(#p715ddf26ac)" style="fill: none; stroke-dasharray: 2.96,1.28; stroke-dashoffset: 0; stroke: #7f7f7f; stroke-opacity: 0.6; stroke-width: 0.8"/>
     </g>
     <g id="line2d_18">
      <g>
       <use xlink:href="#m686e7010fd" x="38.482813" y="122.704581" style="fill: #7f7f7f; stroke: #7f7f7f; stroke-width: 1.8"/>
      </g>
     </g>
     <g id="text_10">
      <!-- 0.1 -->
      <g style="fill: #7f7f7f" transform="translate(15.579688 126.503409) scale(0.1 -0.1)">
       <use xlink:href="#DejaVuSans-13"/>
       <use xlink:href="#DejaVuSans-11" transform="translate(63.625 0)"/>
       <use xlink:href="#DejaVuSans-14" transform="translate(95.40625 0)"/>
      </g>
     </g>
    </g>
    <g id="ytick_4">
     <g id="line2d_19">
      <path d="M 38.482813 78.635837 
L 561.6 78.635837 
" clip-path="url(#p715ddf26ac)" style="fill: none; stroke-dasharray: 2.96,1.28; stroke-dashoffset: 0; stroke: #7f7f7f; stroke-opacity: 0.6; stroke-width: 0.8"/>
     </g>
     <g id="line2d_20">
      <g>
       <use xlink:href="#m686e7010fd" x="38.482813" y="78.635837" style="fill: #7f7f7f; stroke: #7f7f7f; stroke-width: 1.8"/>
      </g>
     </g>
     <g id="text_11">
      <!-- 0.2 -->
      <g style="fill: #7f7f7f" transform="translate(15.579688 82.434665) scale(0.1 -0.1)">
       <use xlink:href="#DejaVuSans-13"/>
       <use xlink:href="#DejaVuSans-11" transform="translate(63.625 0)"/>
       <use xlink:href="#DejaVuSans-15" transform="translate(95.40625 0)"/>
      </g>
     </g>
    </g>
    <g id="ytick_5">
     <g id="line2d_21">
      <path d="M 38.482813 34.567092 
L 561.6 34.567092 
" clip-path="url(#p715ddf26ac)" style="fill: none; stroke-dasharray: 2.96,1.28; stroke-dashoffset: 0; stroke: #7f7f7f; stroke-opacity: 0.6; stroke-width: 0.8"/>
     </g>
     <g id="line2d_22">
      <g>
       <use xlink:href="#m686e7010fd" x="38.482813" y="34.567092" style="fill: #7f7f7f; stroke: #7f7f7f; stroke-width: 1.8"/>
      </g>
     </g>
     <g id="text_12">
      <!-- 0.3 -->
      <g style="fill: #7f7f7f" transform="translate(15.579688 38.36592) scale(0.1 -0.1)">
       <defs>
        <path id="DejaVuSans-16" d="M 2597 2516 
Q 3050 2419 3304 2112 
Q 3559 1806 3559 1356 
Q 3559 666 3084 287 
Q 2609 -91 1734 -91 
Q 1441 -91 1130 -33 
Q 819 25 488 141 
L 488 750 
Q 750 597 1062 519 
Q 1375 441 1716 441 
Q 2309 441 2620 675 
Q 2931 909 2931 1356 
Q 2931 1769 2642 2001 
Q 2353 2234 1838 2234 
L 1294 2234 
L 1294 2753 
L 1863 2753 
Q 2328 2753 2575 2939 
Q 2822 3125 2822 3475 
Q 2822 3834 2567 4026 
Q 2313 4219 1838 4219 
Q 1578 4219 1281 4162 
Q 984 4106 628 3988 
L 628 4550 
Q 988 4650 1302 4700 
Q 1616 4750 1894 4750 
Q 2613 4750 3031 4423 
Q 3450 4097 3450 3541 
Q 3450 3153 3228 2886 
Q 3006 2619 2597 2516 
z
" transform="scale(0.015625)"/>
       </defs>
       <use xlink:href="#DejaVuSans-13"/>
       <use xlink:href="#DejaVuSans-11" transform="translate(63.625 0)"/>
       <use xlink:href="#DejaVuSans-16" transform="translate(95.40625 0)"/>
      </g>
     </g>
    </g>
   </g>
   <g id="line2d_23">
    <path d="M 62.260866 166.773326 
L 62.308423 166.842549 
L 62.976995 168.406095 
L 63.414778 162.970056 
L 63.924172 168.455725 
L 64.577395 167.153335 
L 65.726268 164.853443 
L 66.052148 168.121744 
L 66.666065 166.083438 
L 66.992835 165.482211 
L 67.951883 169.049078 
L 69.184691 165.382852 
L 70.221935 167.654512 
L 70.556798 165.280295 
L 71.241735 165.914244 
L 71.635468 165.653269 
L 72.019007 167.861465 
L 72.746689 166.670289 
L 73.141418 165.430997 
L 73.425187 169.855901 
L 73.994164 166.781259 
L 74.829358 165.689964 
L 75.16151 168.451861 
L 75.818574 166.005571 
L 76.189855 167.802224 
L 76.502612 165.327764 
L 76.824829 164.575124 
L 77.118994 165.061211 
L 77.735501 168.69288 
L 78.021762 165.447039 
L 78.292417 164.626068 
L 78.558688 166.829507 
L 79.17752 166.507152 
L 79.859905 168.708074 
L 80.556496 166.892546 
L 80.939004 167.938085 
L 82.088816 164.954739 
L 82.414452 166.87079 
L 82.788689 166.140008 
L 83.183248 167.908431 
L 83.542565 166.939941 
L 83.887492 164.850335 
L 84.209548 166.605462 
L 84.614839 167.535939 
L 85.014732 166.075985 
L 85.405009 167.127339 
L 86.992128 167.473039 
L 88.194048 165.412535 
L 88.541622 167.761485 
L 89.262222 166.436892 
L 89.642942 166.401731 
L 89.93378 163.724451 
L 90.200856 165.656034 
L 90.575932 167.947703 
L 90.863929 164.565364 
L 91.147473 166.566754 
L 92.284483 167.207936 
L 92.698141 167.512173 
L 93.12053 166.882192 
L 93.962202 165.472762 
L 94.268692 168.778622 
L 94.867853 164.634406 
L 95.750443 168.779632 
L 96.038736 167.872894 
L 97.325136 165.88486 
L 98.177752 167.605899 
L 98.51549 165.015774 
L 98.840008 167.76681 
L 99.147427 167.118555 
L 100.841756 166.7077 
L 102.702206 165.44082 
L 103.032705 168.261306 
L 103.705861 168.070445 
L 104.02755 166.181623 
L 104.719998 168.029869 
L 105.731461 165.489815 
L 105.407137 168.642891 
L 106.026193 165.887164 
L 107.262083 167.077677 
L 108.038846 167.453213 
L 108.396396 165.358167 
L 109.181414 165.816758 
L 109.601579 165.446959 
L 110.382073 165.197439 
L 111.573556 168.786634 
L 112.322002 167.20974 
L 112.751756 167.650592 
L 113.589821 166.02347 
L 114.016193 166.573376 
L 114.426502 166.875168 
L 114.759508 164.555536 
L 115.068756 168.167105 
L 115.349304 166.484681 
L 115.676626 168.58943 
L 115.971618 165.943029 
L 116.58192 168.408839 
L 116.887064 168.671127 
L 117.139584 164.352882 
L 117.765991 165.402372 
L 118.915357 166.586664 
L 120.116224 168.602216 
L 120.441698 166.565252 
L 120.799494 166.857383 
L 121.508437 168.473105 
L 121.840171 167.85461 
L 122.140346 164.397497 
L 122.76601 167.467853 
L 125.210212 165.64905 
L 126.048833 167.463581 
L 126.449522 165.757265 
L 127.272626 166.047059 
L 129.874665 167.026366 
L 130.21034 168.96813 
L 130.479482 164.914865 
L 130.759515 166.406012 
L 132.037779 167.154357 
L 132.445122 165.6631 
L 132.820391 166.967649 
L 133.24632 167.777935 
L 133.645315 167.331821 
L 134.116095 165.965554 
L 134.993974 166.392076 
L 135.817969 168.356532 
L 136.525494 166.850069 
L 136.949932 166.834203 
L 137.321925 165.634032 
L 138.076021 166.353349 
L 138.545399 167.513006 
L 138.980314 166.572412 
L 139.464819 166.054491 
L 139.922877 166.82494 
L 140.399268 167.312092 
L 140.834066 166.304283 
L 141.281593 167.577607 
L 141.697861 167.869709 
L 143.054328 166.204628 
L 144.248409 168.606761 
L 144.886267 165.308042 
L 145.198179 166.54685 
L 145.650357 166.282665 
L 146.137151 167.459642 
L 146.586331 166.806772 
L 148.055741 166.622014 
L 148.451911 165.331468 
L 148.741765 169.530168 
L 149.306432 163.850417 
L 150.805484 170.042733 
L 151.053654 167.130413 
L 151.609516 163.159156 
L 151.850639 166.773959 
L 152.0846 169.692118 
L 152.69049 166.59558 
L 153.482766 165.344943 
L 154.953554 168.067031 
L 155.6693 165.528121 
L 156.013793 166.988176 
L 157.371969 168.730093 
L 157.373298 230.944634 
L 157.373761 17.854506 
L 158.349676 160.570809 
L 158.516886 158.284742 
L 159.190613 161.364556 
L 159.37508 158.696856 
L 160.667377 162.061147 
L 160.889419 160.70114 
L 161.101096 164.561603 
L 161.374329 162.418685 
L 161.639973 162.566368 
L 161.904341 161.695516 
L 162.155248 161.461975 
L 162.400449 163.886813 
L 162.992619 163.456309 
L 163.580813 161.711448 
L 164.166913 162.492547 
L 165.196652 164.502554 
L 165.530468 162.183091 
L 166.200036 164.347571 
L 167.426087 165.788584 
L 167.940816 165.108968 
L 168.669799 162.90527 
L 169.010161 163.222205 
L 169.77809 166.286665 
L 171.136783 161.874923 
L 171.466462 162.310823 
L 171.800493 166.118332 
L 172.248919 164.005182 
L 172.672383 163.61948 
L 173.065657 164.61091 
L 173.492978 164.433162 
L 173.871492 162.70182 
L 174.222369 164.757436 
L 174.66031 166.78153 
L 175.105124 164.617274 
L 177.169258 164.913123 
L 178.429944 166.698856 
L 180.017537 164.355962 
L 181.503045 166.189396 
L 184.143847 166.136316 
L 184.963596 164.397818 
L 185.353023 165.852957 
L 186.309678 165.120634 
L 187.148018 167.756077 
L 187.531738 165.734598 
L 187.965384 166.245611 
L 188.882059 167.450597 
L 189.69175 165.280057 
L 190.414785 164.456897 
L 191.194234 167.520739 
L 191.563392 166.931704 
L 191.918725 164.872371 
L 192.270692 166.095814 
L 193.808048 167.150193 
L 194.337214 166.007726 
L 194.815344 166.47056 
L 195.335742 166.782318 
L 195.730455 165.642903 
L 196.122663 167.040349 
L 197.103744 164.912785 
L 198.446533 167.339453 
L 198.940109 167.258639 
L 199.296 165.195105 
L 199.648892 165.791366 
L 200.064988 168.436329 
L 200.458044 166.736223 
L 200.822015 165.315243 
L 201.183707 167.619792 
L 203.866076 166.982117 
L 204.67628 166.78468 
L 205.011928 169.647849 
L 205.771115 168.128974 
L 206.227835 167.784274 
L 206.589719 165.906797 
L 206.952789 166.324182 
L 208.268214 168.035132 
L 209.161263 168.640822 
L 209.938616 164.387717 
L 210.279972 165.462819 
L 210.6946 167.975137 
L 211.555041 167.564792 
L 211.912312 165.100234 
L 212.659833 166.784906 
L 213.065281 165.603769 
L 213.467671 167.249554 
L 214.646754 169.083196 
L 215.032077 165.198246 
L 215.830596 167.080903 
L 216.323092 166.887881 
L 216.697823 168.382645 
L 217.069365 167.44748 
L 217.427689 165.568311 
L 218.238978 166.305193 
L 218.757041 167.510235 
L 219.225747 166.785144 
L 221.644062 167.422236 
L 222.11412 168.374798 
L 222.540822 167.566004 
L 222.887477 165.338047 
L 223.6819 166.637702 
L 224.070932 167.923861 
L 224.457398 165.875765 
L 225.320317 166.374332 
L 226.883855 168.454674 
L 228.616171 165.263955 
L 229.004811 164.899243 
L 229.395395 168.640358 
L 230.183473 168.222849 
L 231.54794 165.575089 
L 233.616889 168.825704 
L 234.459498 166.094837 
L 235.434441 166.669816 
L 235.820762 168.00424 
L 236.620055 165.520059 
L 237.020861 166.323849 
L 237.511472 165.682298 
L 237.983736 166.947767 
L 238.57662 166.39896 
L 239.126438 167.108139 
L 239.649844 166.330437 
L 240.137707 166.36134 
L 241.528476 167.821222 
L 242.859391 166.261506 
L 243.98277 168.405337 
L 245.37692 166.825587 
L 246.449445 167.567054 
L 246.913153 165.639775 
L 247.344653 166.582724 
L 248.356461 166.150665 
L 249.218109 167.861242 
L 250.497596 165.123512 
L 251.325234 167.859973 
L 251.706078 165.069032 
L 252.096526 165.595585 
L 252.883178 164.271962 
L 253.589488 169.274937 
L 254.321188 165.541812 
L 254.685307 166.988039 
L 255.863125 168.645334 
L 256.266204 165.62378 
L 257.058405 165.980191 
L 259.005844 166.483936 
L 259.363402 164.665379 
L 259.717706 166.249157 
L 260.174017 165.916094 
L 260.580918 166.647967 
L 261.408358 168.409291 
L 261.802431 167.456917 
L 262.277522 167.416832 
L 262.661926 166.046325 
L 263.437492 166.551641 
L 263.836779 167.409686 
L 264.245437 166.895806 
L 264.629954 166.421157 
L 265.027842 164.207043 
L 265.396548 167.771929 
L 268.050386 166.008674 
L 268.514109 167.027196 
L 268.948997 166.590751 
L 271.259714 167.151806 
L 271.64445 165.83958 
L 272.027048 168.487074 
L 272.422626 165.587654 
L 273.734171 166.19372 
L 274.165686 164.480308 
L 274.562175 165.549875 
L 275.370837 168.161152 
L 275.759013 166.97546 
L 276.257118 166.866195 
L 276.649868 168.011481 
L 277.039585 166.22322 
L 277.900155 168.864506 
L 278.256963 167.374591 
L 278.619175 165.744572 
L 278.979245 166.281601 
L 280.683824 168.000673 
L 281.530741 165.862119 
L 281.947405 167.356084 
L 282.446721 166.770242 
L 283.287617 167.113326 
L 283.659806 165.408965 
L 284.028876 167.959553 
L 284.437023 168.279541 
L 286.143547 165.289003 
L 287.415155 167.23402 
L 288.584079 164.646119 
L 291.86788 169.045593 
L 293.10942 165.969522 
L 293.502258 166.204432 
L 293.922227 168.795492 
L 294.308763 166.151236 
L 295.223113 167.497596 
L 295.690359 167.076864 
L 296.585944 166.745699 
L 297.093109 167.359017 
L 297.572913 166.786992 
L 298.470923 166.08874 
L 298.859783 164.594266 
L 299.216811 166.454467 
L 300.457256 168.099203 
L 301.171521 164.949542 
L 301.519126 168.405927 
L 302.315125 167.004895 
L 303.257208 165.655893 
L 303.687574 168.345455 
L 304.089494 166.721668 
L 304.513868 166.196132 
L 304.856994 168.97949 
L 305.196257 166.084727 
L 306.44482 167.759157 
L 306.860612 166.0559 
L 307.306173 166.966749 
L 309.594197 166.780077 
L 309.98395 165.525972 
L 310.370769 168.68337 
L 310.750764 166.8588 
L 311.968062 166.301394 
L 312.377062 164.995742 
L 313.532863 168.676725 
L 314.323201 166.014997 
L 315.616785 168.383779 
L 316.856371 165.403177 
L 318.391248 169.129302 
L 318.717818 164.658844 
L 319.474114 166.095154 
L 320.740347 165.052082 
L 322.026351 168.246879 
L 322.395919 165.350338 
L 322.786548 167.028746 
L 324.559278 167.762354 
L 325.44473 168.03306 
L 325.800127 165.604092 
L 326.532699 168.037603 
L 326.902052 167.052753 
L 327.306487 165.149767 
L 327.696783 168.183271 
L 328.10876 166.264668 
L 328.44146 163.761365 
L 328.77045 166.358753 
L 329.225294 166.59534 
L 329.565228 168.882223 
L 329.901937 166.303275 
L 330.296126 165.362359 
L 330.663645 167.443461 
L 331.114652 166.214085 
L 332.488162 167.156567 
L 332.869202 163.857052 
L 333.226608 166.820739 
L 334.856498 168.461288 
L 336.202371 167.098621 
L 336.682904 167.321191 
L 337.0933 166.344958 
L 337.507201 167.69275 
L 338.821819 165.278507 
L 339.224557 166.740352 
L 340.567953 167.819788 
L 341.428323 165.715759 
L 342.192526 166.442877 
L 342.625826 167.106963 
L 343.073601 165.725274 
L 343.44335 167.986133 
L 343.805466 166.202916 
L 344.207802 165.2206 
L 345.470145 168.212833 
L 345.889073 168.338192 
L 346.27896 166.397583 
L 346.701712 167.254636 
L 347.346775 167.750594 
L 347.597024 150.763975 
L 347.59749 192.163327 
L 347.597733 105.495884 
L 347.598669 204.298576 
L 348.583277 168.918272 
L 349.379583 171.310337 
L 349.72691 170.324351 
L 350.501015 170.914205 
L 350.858226 169.143745 
L 351.281345 170.52987 
L 351.675771 168.423742 
L 352.74626 167.539989 
L 353.101882 169.547512 
L 353.846129 168.812084 
L 354.750814 167.034287 
L 355.292385 167.749522 
L 357.52475 167.680062 
L 358.379833 168.979186 
L 358.781199 167.982388 
L 359.896384 167.689655 
L 360.66531 169.13962 
L 361.05237 166.769127 
L 361.385076 170.661908 
L 363.853429 166.997164 
L 364.781931 167.272501 
L 365.519039 168.765714 
L 366.9646 167.35483 
L 367.393388 166.597695 
L 367.728835 169.755246 
L 368.060231 167.882476 
L 368.989672 168.232867 
L 369.457019 165.644631 
L 369.888296 167.909474 
L 370.79053 167.694856 
L 372.101137 168.615588 
L 372.477725 166.791189 
L 373.009536 168.217448 
L 373.428832 168.52589 
L 373.828122 167.919678 
L 375.192591 166.782134 
L 376.114804 167.613623 
L 376.448847 164.588865 
L 376.778884 168.724158 
L 377.115659 168.606916 
L 377.485281 164.512973 
L 378.212705 165.016278 
L 379.026882 167.283668 
L 379.437199 166.669843 
L 380.28703 165.035732 
L 380.682806 169.01143 
L 381.468258 167.246846 
L 381.974818 167.227966 
L 382.363288 165.911711 
L 382.750261 169.007641 
L 383.125159 168.822626 
L 383.503645 166.110663 
L 383.930589 166.246063 
L 384.344809 168.147962 
L 384.768164 166.383151 
L 385.744356 165.592688 
L 386.587681 167.954045 
L 386.976732 167.324663 
L 387.457522 165.974155 
L 387.902047 168.257784 
L 388.332743 168.00852 
L 388.746852 164.984321 
L 389.538111 165.138252 
L 390.426444 167.276738 
L 390.876127 166.183154 
L 391.381313 167.72235 
L 391.85544 167.276762 
L 392.33366 166.183493 
L 392.808326 167.053941 
L 393.279267 166.736849 
L 393.64568 165.144369 
L 394.008926 166.391889 
L 394.87714 167.862133 
L 395.270855 167.175158 
L 396.19687 166.79429 
L 396.574435 165.491243 
L 396.949487 168.331991 
L 397.811811 167.230745 
L 398.328729 166.826394 
L 398.690434 165.108842 
L 399.489789 165.27744 
L 400.359995 166.371152 
L 400.780138 165.720351 
L 401.197627 166.271495 
L 401.563827 167.943501 
L 401.927408 167.065897 
L 404.318008 166.370259 
L 405.40312 166.919248 
L 409.149109 165.67894 
L 409.529881 167.651925 
L 409.964703 165.779818 
L 412.308116 166.815996 
L 412.670832 165.113531 
L 413.030476 167.740382 
L 413.43224 166.197419 
L 414.791239 166.196936 
L 416.060286 168.43987 
L 416.448029 166.270766 
L 417.402949 166.525839 
L 418.407201 166.481178 
L 418.754699 164.332316 
L 419.098457 166.944962 
L 419.486163 168.084 
L 419.846485 166.491193 
L 421.359645 167.406066 
L 424.743061 165.89686 
L 425.161652 167.627768 
L 425.609048 165.62841 
L 426.55453 167.237437 
L 427.036777 166.603236 
L 427.423857 165.548535 
L 427.80859 168.493796 
L 428.195632 167.172957 
L 429.090725 166.414278 
L 429.967077 165.839995 
L 431.643534 168.047434 
L 432.464737 166.88306 
L 432.802603 164.562286 
L 433.13732 166.570207 
L 434.042226 166.535223 
L 434.876444 164.904812 
L 435.273487 167.781233 
L 435.684852 166.695552 
L 437.437872 164.933763 
L 438.212786 166.628225 
L 438.587891 165.17048 
L 438.960013 168.451985 
L 439.337664 167.762192 
L 439.74198 166.463268 
L 440.25869 166.703546 
L 441.059887 167.781596 
L 441.465305 167.45819 
L 442.254841 168.085519 
L 442.636237 165.452684 
L 443.414296 168.07437 
L 444.245284 166.899245 
L 445.557963 167.90325 
L 445.992797 165.04168 
L 446.820727 165.836368 
L 447.252512 166.860762 
L 448.447713 165.045316 
L 449.266508 168.111451 
L 449.637431 167.237337 
L 450.01263 165.781454 
L 450.38603 165.925379 
L 451.59349 169.366176 
L 451.931578 165.762437 
L 452.706164 167.530314 
L 453.94913 167.984033 
L 455.058362 164.412699 
L 455.895698 165.732644 
L 456.815592 167.294373 
L 458.072678 164.690671 
L 458.475474 168.556226 
L 458.853525 168.27648 
L 459.231236 165.295992 
L 459.617451 167.856421 
L 459.985319 169.065362 
L 460.338681 167.738756 
L 460.789305 167.024708 
L 461.267851 167.775898 
L 462.2522 166.651197 
L 462.666563 165.528609 
L 463.459186 164.542892 
L 463.852692 167.856536 
L 464.65622 167.815795 
L 466.230858 165.703577 
L 467.005048 168.024305 
L 467.400202 166.746452 
L 467.741052 164.431363 
L 468.078758 166.379906 
L 468.843427 168.150598 
L 469.675063 165.487385 
L 470.075206 166.882612 
L 470.545571 166.044049 
L 470.931498 167.510298 
L 471.321387 164.838082 
L 471.714034 166.796203 
L 472.046314 169.291356 
L 472.375298 165.234701 
L 473.977009 166.734743 
L 474.354445 165.353023 
L 474.733683 166.551971 
L 475.594436 167.431663 
L 476.468971 168.096323 
L 476.881179 169.189617 
L 477.266958 167.935551 
L 478.793991 166.673369 
L 479.165218 168.345669 
L 479.533619 168.183755 
L 479.938082 165.122161 
L 480.323125 166.828166 
L 481.606419 166.21364 
L 482.431065 165.281844 
L 482.840573 168.107768 
L 483.238947 165.069043 
L 483.639763 167.306543 
L 484.451276 164.650036 
L 485.946498 169.481155 
L 486.738292 167.078287 
L 487.122667 168.081895 
L 487.94814 167.790909 
L 489.162647 165.205619 
L 489.526034 167.584714 
L 489.904484 165.833728 
L 490.731028 165.487699 
L 492.415867 167.861056 
L 493.143433 165.111777 
L 493.892869 165.837776 
L 494.317105 167.436583 
L 494.722298 166.152683 
L 498.112113 168.47103 
L 499.540614 166.105469 
L 500.773423 166.815955 
L 502.420748 165.526722 
L 503.275408 167.869482 
L 504.56076 166.003403 
L 505.381386 165.749399 
L 505.80686 167.876537 
L 506.209779 166.511541 
L 507.073622 165.740991 
L 507.459382 167.873313 
L 508.221567 167.231126 
L 509.087766 166.238014 
L 509.556275 166.652748 
L 510.533594 167.118978 
L 510.897206 165.230356 
L 511.257644 167.660523 
L 512.059958 168.662455 
L 514.10858 165.070683 
L 514.476762 169.557322 
L 514.823097 166.475496 
L 515.212621 165.448467 
L 515.59819 167.1216 
L 515.970723 166.257434 
L 516.347896 167.3361 
L 516.767775 165.863567 
L 517.163813 165.846884 
L 517.596132 168.022975 
L 518.014225 165.037045 
L 518.426737 167.742606 
L 518.844695 165.397375 
L 519.191763 168.405667 
L 519.536098 166.826028 
L 519.994196 166.731894 
L 520.358806 165.172402 
L 520.720616 165.958332 
L 521.148757 167.828469 
L 521.566658 167.300007 
L 522.012644 165.72184 
L 522.44665 167.469345 
L 523.238157 166.982699 
L 523.593467 165.085501 
L 523.946048 166.270478 
L 524.353949 167.465298 
L 524.744461 166.260528 
L 525.201948 166.139555 
L 526.038785 169.037454 
L 526.38944 167.901885 
L 527.663647 165.938484 
L 529.239079 167.317072 
L 530.394595 165.457543 
L 531.9867 167.11979 
L 532.412911 165.944173 
L 532.809753 167.177833 
L 533.236768 167.459918 
L 533.667691 165.133601 
L 534.073947 167.585997 
L 535.445232 165.185261 
L 536.226891 167.920356 
L 537.09034 166.753117 
L 537.533366 166.103177 
L 537.821946 166.714653 
" clip-path="url(#p715ddf26ac)" style="fill: none; stroke: #e41a1c; stroke-width: 2; stroke-linecap: square"/>
   </g>
   <g id="line2d_24">
    <path d="M 62.260866 166.773326 
L 62.453765 165.935902 
L 62.61114 166.795351 
L 63.414778 165.330952 
L 62.976995 166.992566 
L 63.6486 166.1006 
L 64.577395 166.569036 
L 66.992835 166.000934 
L 67.951883 167.484751 
L 68.243555 166.722392 
L 70.221935 167.42816 
L 71.635468 166.298736 
L 72.36518 167.07137 
L 72.746689 166.815329 
L 73.141418 166.30226 
L 73.425187 167.724736 
L 73.994164 167.004854 
L 77.429314 166.585905 
L 77.735501 167.096191 
L 78.021762 166.154086 
L 78.292417 165.72408 
L 78.866935 166.678323 
L 79.17752 166.292612 
L 79.530486 166.858537 
L 80.939004 167.302452 
L 84.209548 166.737883 
L 85.830564 167.074576 
L 87.431595 166.868854 
L 88.871388 167.240849 
L 91.878523 166.642692 
L 93.563078 166.462612 
L 93.962202 166.128537 
L 94.268692 167.175434 
L 97.750315 166.661563 
L 99.517313 166.929932 
L 101.824118 166.643296 
L 103.36005 166.448136 
L 104.719998 167.228847 
L 106.379825 166.915249 
L 111.221962 166.418936 
L 112.322002 166.741663 
L 113.589821 166.39785 
L 117.393615 166.484663 
L 118.915357 166.220099 
L 120.116224 167.049038 
L 120.441698 166.526379 
L 124.790133 166.77872 
L 127.272626 166.458897 
L 129.874665 166.548394 
L 130.21034 167.312623 
L 130.479482 166.128407 
L 130.759515 166.451707 
L 133.645315 166.997356 
L 134.993974 166.518342 
L 137.695325 166.504459 
L 141.281593 166.872086 
L 142.524849 166.81059 
L 143.920649 166.619789 
L 144.248409 167.381278 
L 144.564739 166.729557 
L 145.650357 166.44153 
L 147.036249 166.779406 
L 148.451911 166.087724 
L 148.741765 167.424934 
L 149.306432 165.783235 
L 150.213576 166.814764 
L 150.805484 167.825928 
L 151.347392 166.857376 
L 151.609516 165.748428 
L 152.0846 167.609208 
L 153.482766 166.285253 
L 154.953554 167.385711 
L 155.6693 166.464285 
L 156.013793 166.849085 
L 157.371969 167.398836 
L 157.373298 182.596716 
L 157.373761 130.576337 
L 158.349676 162.753634 
L 159.888613 158.25291 
L 160.059884 158.561856 
L 160.460951 157.466092 
L 161.904341 155.070883 
L 164.166913 151.598891 
L 164.465377 151.833064 
L 164.832593 151.334437 
L 167.940816 148.990467 
L 169.010161 147.004135 
L 169.357263 147.167659 
L 169.77809 147.441682 
L 171.466462 144.06716 
L 171.800493 144.914936 
L 172.248919 143.915149 
L 174.222369 141.971345 
L 174.66031 142.473948 
L 175.105124 141.573978 
L 180.421574 138.035674 
L 184.143847 137.175481 
L 186.309678 135.569218 
L 187.148018 136.45856 
L 187.531738 135.810634 
L 190.051552 135.158333 
L 190.795934 135.245267 
L 191.563392 135.523732 
L 191.918725 134.753963 
L 192.734482 135.238605 
L 199.648892 134.039939 
L 200.064988 134.956168 
L 200.458044 134.533767 
L 200.822015 133.974696 
L 201.183707 134.654976 
L 208.714376 136.162522 
L 209.161263 136.686936 
L 209.576931 135.799155 
L 210.279972 135.223106 
L 211.555041 135.883378 
L 213.065281 134.756533 
L 214.646754 136.509543 
L 215.032077 135.321815 
L 215.830596 136.044236 
L 221.644062 136.747914 
L 222.540822 137.226305 
L 222.887477 136.48893 
L 223.6819 136.882738 
L 224.070932 137.375193 
L 224.457398 136.738802 
L 226.124155 136.720123 
L 227.84971 137.540602 
L 229.004811 136.296075 
L 230.183473 137.408024 
L 231.54794 136.616516 
L 235.820762 138.24762 
L 237.511472 137.010072 
L 239.126438 137.352834 
L 241.127233 137.19288 
L 242.38673 137.212889 
L 243.225312 137.71237 
L 246.449445 138.469482 
L 247.847295 137.723686 
L 250.91985 137.70116 
L 251.325234 138.11705 
L 251.706078 137.177706 
L 252.096526 137.120317 
L 252.883178 136.707751 
L 253.589488 138.273106 
L 254.321188 137.170285 
L 254.685307 137.552623 
L 255.863125 138.713074 
L 257.058405 137.593545 
L 271.64445 137.469436 
L 272.027048 138.377902 
L 272.422626 137.487671 
L 273.734171 137.238865 
L 274.949021 136.639743 
L 276.649868 137.482092 
L 277.505137 137.281851 
L 277.900155 138.015808 
L 278.256963 137.740898 
L 279.420909 137.388454 
L 281.119769 137.662311 
L 282.864377 137.708261 
L 285.74953 138.019152 
L 287.005095 137.668805 
L 287.415155 137.988088 
L 288.975434 136.311294 
L 298.041463 137.335237 
L 300.080571 136.637002 
L 300.457256 137.337861 
L 300.820875 137.075792 
L 301.171521 136.338574 
L 301.890599 136.882376 
L 304.089494 136.884373 
L 304.513868 136.657966 
L 304.856994 137.635965 
L 305.605231 137.038497 
L 307.306173 137.33389 
L 309.594197 137.109659 
L 309.98395 136.609348 
L 310.750764 137.239999 
L 313.163489 137.201768 
L 313.532863 137.881558 
L 313.894944 137.146942 
L 314.73539 137.524299 
L 316.511708 138.463882 
L 317.64241 137.411352 
L 318.060762 137.368205 
L 318.391248 138.421167 
L 318.717818 137.059036 
L 319.05923 137.923497 
L 321.117365 136.781972 
L 324.559278 137.977833 
L 326.161025 137.548025 
L 326.902052 137.915577 
L 328.44146 136.596083 
L 329.565228 138.03276 
L 329.901937 137.340824 
L 331.114652 137.088214 
L 335.727661 137.825176 
L 343.805466 137.367268 
L 345.024033 136.668924 
L 345.889073 137.92359 
L 346.27896 137.393201 
L 347.542466 138.671152 
L 347.593796 138.088764 
L 347.598669 147.094618 
L 347.597733 122.976116 
L 348.583277 139.566755 
L 352.142599 143.258253 
L 353.453198 144.402189 
L 357.076105 145.946238 
L 357.973457 146.432461 
L 359.247424 146.762168 
L 361.05237 147.480739 
L 361.712003 149.153521 
L 362.074626 148.471645 
L 363.446857 149.573692 
L 364.781931 149.418991 
L 366.421246 150.434514 
L 370.343631 151.329101 
L 376.114804 153.437679 
L 376.448847 152.412664 
L 376.778884 153.675009 
L 377.115659 153.891365 
L 378.212705 152.411802 
L 379.437199 152.84961 
L 380.28703 151.999146 
L 380.682806 153.313507 
L 381.468258 152.841937 
L 389.131041 153.907055 
L 389.538111 152.96345 
L 389.94289 153.527905 
L 393.279267 153.656742 
L 394.441659 153.483373 
L 396.19687 153.741573 
L 397.336143 153.660452 
L 398.328729 153.859792 
L 399.489789 152.865783 
L 401.927408 153.111955 
L 409.149109 152.576514 
L 409.529881 153.192835 
L 409.964703 152.566895 
L 415.293209 151.834071 
L 416.908217 152.306335 
L 420.324042 152.111954 
L 424.743061 152.025473 
L 425.161652 152.59146 
L 425.609048 151.900719 
L 432.464737 152.654334 
L 432.802603 151.795844 
L 433.587892 152.310697 
L 440.25869 151.553885 
L 442.254841 152.403953 
L 443.037815 151.703173 
L 444.245284 152.181913 
L 447.252512 152.323211 
L 448.447713 151.20491 
L 449.637431 152.103837 
L 450.38603 151.50775 
L 450.806967 152.08729 
L 451.251873 151.880293 
L 451.59349 152.853339 
L 451.931578 151.841236 
L 453.1025 152.468742 
L 454.384793 152.830323 
L 455.895698 151.671695 
L 459.617451 151.783866 
L 460.789305 152.102513 
L 462.2522 152.350822 
L 463.459186 151.437621 
L 464.65622 152.796884 
L 466.615233 151.940107 
L 467.005048 152.574048 
L 467.400202 152.257946 
L 467.741052 151.377146 
L 468.46175 152.184606 
L 468.843427 152.546523 
L 469.234409 151.871319 
L 470.545571 151.543344 
L 472.046314 152.468114 
L 473.114693 151.051652 
L 481.184674 152.689811 
L 482.431065 151.607259 
L 482.840573 152.511393 
L 483.639763 152.126383 
L 485.203704 151.715451 
L 490.336081 151.873326 
L 492.040343 151.684189 
L 492.789088 152.029121 
L 493.892869 151.287357 
L 495.150022 151.442717 
L 496.081866 151.149354 
L 497.6614 152.416142 
L 499.033946 152.804477 
L 501.18512 152.159919 
L 501.643188 152.514367 
L 502.03743 151.945433 
L 502.834138 152.358084 
L 504.160858 152.50828 
L 505.381386 151.723453 
L 505.80686 152.426596 
L 506.209779 152.051036 
L 507.821959 151.982285 
L 509.983518 151.887797 
L 513.736611 152.27235 
L 514.10858 151.776239 
L 514.476762 153.277675 
L 514.823097 152.488058 
L 515.970723 152.210014 
L 516.347896 152.557517 
L 516.767775 152.046277 
L 518.844695 151.633696 
L 519.191763 152.589205 
L 519.994196 152.179431 
L 520.720616 151.638965 
L 521.566658 152.229473 
L 522.012644 151.655997 
L 522.44665 152.200888 
L 524.744461 151.754416 
L 525.652944 152.046984 
L 526.38944 152.663024 
L 526.823108 152.148519 
L 527.253176 152.834883 
L 528.033103 152.198625 
L 529.61246 152.314006 
L 531.204663 152.039201 
L 533.236768 152.302833 
L 534.522712 151.825243 
L 536.638097 152.041296 
L 537.821946 151.810925 
L 537.821946 151.810925 
" clip-path="url(#p715ddf26ac)" style="fill: none; stroke: #377eb8; stroke-width: 2; stroke-linecap: square"/>
   </g>
   <g id="patch_3">
    <path d="M 38.482813 241.599141 
L 38.482813 7.2 
" style="fill: none; stroke: #7f7f7f; stroke-width: 1.8; stroke-linejoin: miter; stroke-linecap: square"/>
   </g>
   <g id="patch_4">
    <path d="M 38.482813 241.599141 
L 561.6 241.599141 
" style="fill: none; stroke: #7f7f7f; stroke-width: 1.8; stroke-linejoin: miter; stroke-linecap: square"/>
   </g>
   <g id="legend_1">
    <g id="line2d_25">
     <path d="M 499.584375 20.298438 
L 509.584375 20.298438 
L 519.584375 20.298438 
" style="fill: none; stroke: #e41a1c; stroke-width: 2; stroke-linecap: square"/>
    </g>
    <g id="text_13">
     <!-- err 2 -->
     <g style="fill: #7f7f7f" transform="translate(527.584375 23.798438) scale(0.1 -0.1)">
      <defs>
       <path id="DejaVuSans-55" d="M 2631 2963 
Q 2534 3019 2420 3045 
Q 2306 3072 2169 3072 
Q 1681 3072 1420 2755 
Q 1159 2438 1159 1844 
L 1159 0 
L 581 0 
L 581 3500 
L 1159 3500 
L 1159 2956 
Q 1341 3275 1631 3429 
Q 1922 3584 2338 3584 
Q 2397 3584 2469 3576 
Q 2541 3569 2628 3553 
L 2631 2963 
z
" transform="scale(0.015625)"/>
      </defs>
      <use xlink:href="#DejaVuSans-48"/>
      <use xlink:href="#DejaVuSans-55" transform="translate(61.53125 0)"/>
      <use xlink:href="#DejaVuSans-55" transform="translate(100.890625 0)"/>
      <use xlink:href="#DejaVuSans-3" transform="translate(142 0)"/>
      <use xlink:href="#DejaVuSans-15" transform="translate(173.78125 0)"/>
     </g>
    </g>
    <g id="line2d_26">
     <path d="M 499.584375 35.299219 
L 509.584375 35.299219 
L 519.584375 35.299219 
" style="fill: none; stroke: #377eb8; stroke-width: 2; stroke-linecap: square"/>
    </g>
    <g id="text_14">
     <!-- pid 2 -->
     <g style="fill: #7f7f7f" transform="translate(527.584375 38.799219) scale(0.1 -0.1)">
      <defs>
       <path id="DejaVuSans-53" d="M 1159 525 
L 1159 -1331 
L 581 -1331 
L 581 3500 
L 1159 3500 
L 1159 2969 
Q 1341 3281 1617 3432 
Q 1894 3584 2278 3584 
Q 2916 3584 3314 3078 
Q 3713 2572 3713 1747 
Q 3713 922 3314 415 
Q 2916 -91 2278 -91 
Q 1894 -91 1617 61 
Q 1341 213 1159 525 
z
M 3116 1747 
Q 3116 2381 2855 2742 
Q 2594 3103 2138 3103 
Q 1681 3103 1420 2742 
Q 1159 2381 1159 1747 
Q 1159 1113 1420 752 
Q 1681 391 2138 391 
Q 2594 391 2855 752 
Q 3116 1113 3116 1747 
z
" transform="scale(0.015625)"/>
       <path id="DejaVuSans-47" d="M 2906 2969 
L 2906 4863 
L 3481 4863 
L 3481 0 
L 2906 0 
L 2906 525 
Q 2725 213 2448 61 
Q 2172 -91 1784 -91 
Q 1150 -91 751 415 
Q 353 922 353 1747 
Q 353 2572 751 3078 
Q 1150 3584 1784 3584 
Q 2172 3584 2448 3432 
Q 2725 3281 2906 2969 
z
M 947 1747 
Q 947 1113 1208 752 
Q 1469 391 1925 391 
Q 2381 391 2643 752 
Q 2906 1113 2906 1747 
Q 2906 2381 2643 2742 
Q 2381 3103 1925 3103 
Q 1469 3103 1208 2742 
Q 947 2381 947 1747 
z
" transform="scale(0.015625)"/>
      </defs>
      <use xlink:href="#DejaVuSans-53"/>
      <use xlink:href="#DejaVuSans-4c" transform="translate(63.484375 0)"/>
      <use xlink:href="#DejaVuSans-47" transform="translate(91.265625 0)"/>
      <use xlink:href="#DejaVuSans-3" transform="translate(154.75 0)"/>
      <use xlink:href="#DejaVuSans-15" transform="translate(186.53125 0)"/>
     </g>
    </g>
   </g>
  </g>
 </g>
 <defs>
  <clipPath id="p715ddf26ac">
   <rect x="38.482813" y="7.2" width="523.117187" height="234.399141"/>
  </clipPath>
 </defs>
</svg>
