<?xml version="1.0" encoding="utf-8" standalone="no"?>
<!DOCTYPE svg PUBLIC "-//W3C//DTD SVG 1.1//EN"
  "http://www.w3.org/Graphics/SVG/1.1/DTD/svg11.dtd">
<svg xmlns:xlink="http://www.w3.org/1999/xlink" width="568.8pt" height="280.8pt" viewBox="0 0 568.8 280.8" xmlns="http://www.w3.org/2000/svg" version="1.1">
 <metadata>
  <rdf:RDF xmlns:dc="http://purl.org/dc/elements/1.1/" xmlns:cc="http://creativecommons.org/ns#" xmlns:rdf="http://www.w3.org/1999/02/22-rdf-syntax-ns#">
   <cc:Work>
    <dc:type rdf:resource="http://purl.org/dc/dcmitype/StillImage"/>
    <dc:date>2026-07-19T19:15:32.927304</dc:date>
    <dc:format>image/svg+xml</dc:format>
    <dc:creator>
     <cc:Agent>
      <dc:title>Matplotlib v3.11.1, https://matplotlib.org/</dc:title>
     </cc:Agent>
    </dc:creator>
   </cc:Work>
  </rdf:RDF>
 </metadata>
 <defs>
  <style type="text/css">*{stroke-linejoin: round; stroke-linecap: butt}</style>
 </defs>
 <g id="figure_1">
  <g id="patch_1">
   <path d="M 0 280.8 
L 568.8 280.8 
L 568.8 0 
L 0 0 
L 0 280.8 
z
" style="fill: none"/>
  </g>
  <g id="axes_1">
   <g id="patch_2">
    <path d="M 51.207813 241.599141 
L 561.6 241.599141 
L 561.6 7.2 
L 51.207813 7.2 
L 51.207813 241.599141 
z
" style="fill: none"/>
   </g>
   <g id="matplotlib.axis_1">
    <g id="xtick_1">
     <g id="line2d_1">
      <path d="M 74.407457 241.599141 
L 74.407457 7.2 
" clip-path="url(#pfbe3556516)" style="fill: none; stroke-dasharray: 2.96,1.28; stroke-dashoffset: 0; stroke: #7f7f7f; stroke-opacity: 0.6; stroke-width: 0.8"/>
     </g>
     <g id="line2d_2">
      <defs>
       <path id="mf1697fc9d0" d="M 0 0 
L 0 3.5 
" style="stroke: #7f7f7f; stroke-width: 1.8"/>
      </defs>
      <g>
       <use xlink:href="#mf1697fc9d0" x="74.407457" y="241.599141" style="fill: #7f7f7f; stroke: #7f7f7f; stroke-width: 1.8"/>
      </g>
     </g>
     <g id="text_1">
      <!-- 0 -->
      <g style="fill: #7f7f7f" transform="translate(71.226207 256.196797) scale(0.1 -0.1)">
       <defs>
        <path id="DejaVuSans-13" d="M 2034 4250 
Q 1547 4250 1301 3770 
Q 1056 3291 1056 2328 
Q 1056 1369 1301 889 
Q 1547 409 2034 409 
Q 2525 409 2770 889 
Q 3016 1369 3016 2328 
Q 3016 3291 2770 3770 
Q 2525 4250 2034 4250 
z
M 2034 4750 
Q 2819 4750 3233 4129 
Q 3647 3509 3647 2328 
Q 3647 1150 3233 529 
Q 2819 -91 2034 -91 
Q 1250 -91 836 529 
Q 422 1150 422 2328 
Q 422 3509 836 4129 
Q 1250 4750 2034 4750 
z
" transform="scale(0.015625)"/>
       </defs>
       <use xlink:href="#DejaVuSans-13"/>
      </g>
     </g>
    </g>
    <g id="xtick_2">
     <g id="line2d_3">
      <path d="M 167.206037 241.599141 
L 167.206037 7.2 
" clip-path="url(#pfbe3556516)" style="fill: none; stroke-dasharray: 2.96,1.28; stroke-dashoffset: 0; stroke: #7f7f7f; stroke-opacity: 0.6; stroke-width: 0.8"/>
     </g>
     <g id="line2d_4">
      <g>
       <use xlink:href="#mf1697fc9d0" x="167.206037" y="241.599141" style="fill: #7f7f7f; stroke: #7f7f7f; stroke-width: 1.8"/>
      </g>
     </g>
     <g id="text_2">
      <!-- 20 -->
      <g style="fill: #7f7f7f" transform="translate(160.843537 256.196797) scale(0.1 -0.1)">
       <defs>
        <path id="DejaVuSans-15" d="M 1228 531 
L 3431 531 
L 3431 0 
L 469 0 
L 469 531 
Q 828 903 1448 1529 
Q 2069 2156 2228 2338 
Q 2531 2678 2651 2914 
Q 2772 3150 2772 3378 
Q 2772 3750 2511 3984 
Q 2250 4219 1831 4219 
Q 1534 4219 1204 4116 
Q 875 4013 500 3803 
L 500 4441 
Q 881 4594 1212 4672 
Q 1544 4750 1819 4750 
Q 2544 4750 2975 4387 
Q 3406 4025 3406 3419 
Q 3406 3131 3298 2873 
Q 3191 2616 2906 2266 
Q 2828 2175 2409 1742 
Q 1991 1309 1228 531 
z
" transform="scale(0.015625)"/>
       </defs>
       <use xlink:href="#DejaVuSans-15"/>
       <use xlink:href="#DejaVuSans-13" transform="translate(63.625 0)"/>
      </g>
     </g>
    </g>
    <g id="xtick_3">
     <g id="line2d_5">
      <path d="M 260.004616 241.599141 
L 260.004616 7.2 
" clip-path="url(#pfbe3556516)" style="fill: none; stroke-dasharray: 2.96,1.28; stroke-dashoffset: 0; stroke: #7f7f7f; stroke-opacity: 0.6; stroke-width: 0.8"/>
     </g>
     <g id="line2d_6">
      <g>
       <use xlink:href="#mf1697fc9d0" x="260.004616" y="241.599141" style="fill: #7f7f7f; stroke: #7f7f7f; stroke-width: 1.8"/>
      </g>
     </g>
     <g id="text_3">
      <!-- 40 -->
      <g style="fill: #7f7f7f" transform="translate(253.642116 256.196797) scale(0.1 -0.1)">
       <defs>
        <path id="DejaVuSans-17" d="M 2419 4116 
L 825 1625 
L 2419 1625 
L 2419 4116 
z
M 2253 4666 
L 3047 4666 
L 3047 1625 
L 3713 1625 
L 3713 1100 
L 3047 1100 
L 3047 0 
L 2419 0 
L 2419 1100 
L 313 1100 
L 313 1709 
L 2253 4666 
z
" transform="scale(0.015625)"/>
       </defs>
       <use xlink:href="#DejaVuSans-17"/>
       <use xlink:href="#DejaVuSans-13" transform="translate(63.625 0)"/>
      </g>
     </g>
    </g>
    <g id="xtick_4">
     <g id="line2d_7">
      <path d="M 352.803196 241.599141 
L 352.803196 7.2 
" clip-path="url(#pfbe3556516)" style="fill: none; stroke-dasharray: 2.96,1.28; stroke-dashoffset: 0; stroke: #7f7f7f; stroke-opacity: 0.6; stroke-width: 0.8"/>
     </g>
     <g id="line2d_8">
      <g>
       <use xlink:href="#mf1697fc9d0" x="352.803196" y="241.599141" style="fill: #7f7f7f; stroke: #7f7f7f; stroke-width: 1.8"/>
      </g>
     </g>
     <g id="text_4">
      <!-- 60 -->
      <g style="fill: #7f7f7f" transform="translate(346.440696 256.196797) scale(0.1 -0.1)">
       <defs>
        <path id="DejaVuSans-19" d="M 2113 2584 
Q 1688 2584 1439 2293 
Q 1191 2003 1191 1497 
Q 1191 994 1439 701 
Q 1688 409 2113 409 
Q 2538 409 2786 701 
Q 3034 994 3034 1497 
Q 3034 2003 2786 2293 
Q 2538 2584 2113 2584 
z
M 3366 4563 
L 3366 3988 
Q 3128 4100 2886 4159 
Q 2644 4219 2406 4219 
Q 1781 4219 1451 3797 
Q 1122 3375 1075 2522 
Q 1259 2794 1537 2939 
Q 1816 3084 2150 3084 
Q 2853 3084 3261 2657 
Q 3669 2231 3669 1497 
Q 3669 778 3244 343 
Q 2819 -91 2113 -91 
Q 1303 -91 875 529 
Q 447 1150 447 2328 
Q 447 3434 972 4092 
Q 1497 4750 2381 4750 
Q 2619 4750 2861 4703 
Q 3103 4656 3366 4563 
z
" transform="scale(0.015625)"/>
       </defs>
       <use xlink:href="#DejaVuSans-19"/>
       <use xlink:href="#DejaVuSans-13" transform="translate(63.625 0)"/>
      </g>
     </g>
    </g>
    <g id="xtick_5">
     <g id="line2d_9">
      <path d="M 445.601776 241.599141 
L 445.601776 7.2 
" clip-path="url(#pfbe3556516)" style="fill: none; stroke-dasharray: 2.96,1.28; stroke-dashoffset: 0; stroke: #7f7f7f; stroke-opacity: 0.6; stroke-width: 0.8"/>
     </g>
     <g id="line2d_10">
      <g>
       <use xlink:href="#mf1697fc9d0" x="445.601776" y="241.599141" style="fill: #7f7f7f; stroke: #7f7f7f; stroke-width: 1.8"/>
      </g>
     </g>
     <g id="text_5">
      <!-- 80 -->
      <g style="fill: #7f7f7f" transform="translate(439.239276 256.196797) scale(0.1 -0.1)">
       <defs>
        <path id="DejaVuSans-1b" d="M 2034 2216 
Q 1584 2216 1326 1975 
Q 1069 1734 1069 1313 
Q 1069 891 1326 650 
Q 1584 409 2034 409 
Q 2484 409 2743 651 
Q 3003 894 3003 1313 
Q 3003 1734 2745 1975 
Q 2488 2216 2034 2216 
z
M 1403 2484 
Q 997 2584 770 2862 
Q 544 3141 544 3541 
Q 544 4100 942 4425 
Q 1341 4750 2034 4750 
Q 2731 4750 3128 4425 
Q 3525 4100 3525 3541 
Q 3525 3141 3298 2862 
Q 3072 2584 2669 2484 
Q 3125 2378 3379 2068 
Q 3634 1759 3634 1313 
Q 3634 634 3220 271 
Q 2806 -91 2034 -91 
Q 1263 -91 848 271 
Q 434 634 434 1313 
Q 434 1759 690 2068 
Q 947 2378 1403 2484 
z
M 1172 3481 
Q 1172 3119 1398 2916 
Q 1625 2713 2034 2713 
Q 2441 2713 2670 2916 
Q 2900 3119 2900 3481 
Q 2900 3844 2670 4047 
Q 2441 4250 2034 4250 
Q 1625 4250 1398 4047 
Q 1172 3844 1172 3481 
z
" transform="scale(0.015625)"/>
       </defs>
       <use xlink:href="#DejaVuSans-1b"/>
       <use xlink:href="#DejaVuSans-13" transform="translate(63.625 0)"/>
      </g>
     </g>
    </g>
    <g id="xtick_6">
     <g id="line2d_11">
      <path d="M 538.400355 241.599141 
L 538.400355 7.2 
" clip-path="url(#pfbe3556516)" style="fill: none; stroke-dasharray: 2.96,1.28; stroke-dashoffset: 0; stroke: #7f7f7f; stroke-opacity: 0.6; stroke-width: 0.8"/>
     </g>
     <g id="line2d_12">
      <g>
       <use xlink:href="#mf1697fc9d0" x="538.400355" y="241.599141" style="fill: #7f7f7f; stroke: #7f7f7f; stroke-width: 1.8"/>
      </g>
     </g>
     <g id="text_6">
      <!-- 100 -->
      <g style="fill: #7f7f7f" transform="translate(528.856605 256.196797) scale(0.1 -0.1)">
       <defs>
        <path id="DejaVuSans-14" d="M 794 531 
L 1825 531 
L 1825 4091 
L 703 3866 
L 703 4441 
L 1819 4666 
L 2450 4666 
L 2450 531 
L 3481 531 
L 3481 0 
L 794 0 
L 794 531 
z
" transform="scale(0.015625)"/>
       </defs>
       <use xlink:href="#DejaVuSans-14"/>
       <use xlink:href="#DejaVuSans-13" transform="translate(63.625 0)"/>
       <use xlink:href="#DejaVuSans-13" transform="translate(127.25 0)"/>
      </g>
     </g>
    </g>
    <g id="text_7">
     <!-- time [s] -->
     <g style="fill: #7f7f7f" transform="translate(285.073359 270.957422) scale(0.11 -0.11)">
      <defs>
       <path id="DejaVuSans-57" d="M 1172 4494 
L 1172 3500 
L 2356 3500 
L 2356 3053 
L 1172 3053 
L 1172 1153 
Q 1172 725 1289 603 
Q 1406 481 1766 481 
L 2356 481 
L 2356 0 
L 1766 0 
Q 1100 0 847 248 
Q 594 497 594 1153 
L 594 3053 
L 172 3053 
L 172 3500 
L 594 3500 
L 594 4494 
L 1172 4494 
z
" transform="scale(0.015625)"/>
       <path id="DejaVuSans-4c" d="M 603 3500 
L 1178 3500 
L 1178 0 
L 603 0 
L 603 3500 
z
M 603 4863 
L 1178 4863 
L 1178 4134 
L 603 4134 
L 603 4863 
z
" transform="scale(0.015625)"/>
       <path id="DejaVuSans-50" d="M 3328 2828 
Q 3544 3216 3844 3400 
Q 4144 3584 4550 3584 
Q 5097 3584 5394 3201 
Q 5691 2819 5691 2113 
L 5691 0 
L 5113 0 
L 5113 2094 
Q 5113 2597 4934 2840 
Q 4756 3084 4391 3084 
Q 3944 3084 3684 2787 
Q 3425 2491 3425 1978 
L 3425 0 
L 2847 0 
L 2847 2094 
Q 2847 2600 2669 2842 
Q 2491 3084 2119 3084 
Q 1678 3084 1418 2786 
Q 1159 2488 1159 1978 
L 1159 0 
L 581 0 
L 581 3500 
L 1159 3500 
L 1159 2956 
Q 1356 3278 1631 3431 
Q 1906 3584 2284 3584 
Q 2666 3584 2933 3390 
Q 3200 3197 3328 2828 
z
" transform="scale(0.015625)"/>
       <path id="DejaVuSans-48" d="M 3597 1894 
L 3597 1613 
L 953 1613 
Q 991 1019 1311 708 
Q 1631 397 2203 397 
Q 2534 397 2845 478 
Q 3156 559 3463 722 
L 3463 178 
Q 3153 47 2828 -22 
Q 2503 -91 2169 -91 
Q 1331 -91 842 396 
Q 353 884 353 1716 
Q 353 2575 817 3079 
Q 1281 3584 2069 3584 
Q 2775 3584 3186 3129 
Q 3597 2675 3597 1894 
z
M 3022 2063 
Q 3016 2534 2758 2815 
Q 2500 3097 2075 3097 
Q 1594 3097 1305 2825 
Q 1016 2553 972 2059 
L 3022 2063 
z
" transform="scale(0.015625)"/>
       <path id="DejaVuSans-3" transform="scale(0.015625)"/>
       <path id="DejaVuSans-3e" d="M 550 4863 
L 1875 4863 
L 1875 4416 
L 1125 4416 
L 1125 -397 
L 1875 -397 
L 1875 -844 
L 550 -844 
L 550 4863 
z
" transform="scale(0.015625)"/>
       <path id="DejaVuSans-56" d="M 2834 3397 
L 2834 2853 
Q 2591 2978 2328 3040 
Q 2066 3103 1784 3103 
Q 1356 3103 1142 2972 
Q 928 2841 928 2578 
Q 928 2378 1081 2264 
Q 1234 2150 1697 2047 
L 1894 2003 
Q 2506 1872 2764 1633 
Q 3022 1394 3022 966 
Q 3022 478 2636 193 
Q 2250 -91 1575 -91 
Q 1294 -91 989 -36 
Q 684 19 347 128 
L 347 722 
Q 666 556 975 473 
Q 1284 391 1588 391 
Q 1994 391 2212 530 
Q 2431 669 2431 922 
Q 2431 1156 2273 1281 
Q 2116 1406 1581 1522 
L 1381 1569 
Q 847 1681 609 1914 
Q 372 2147 372 2553 
Q 372 3047 722 3315 
Q 1072 3584 1716 3584 
Q 2034 3584 2315 3537 
Q 2597 3491 2834 3397 
z
" transform="scale(0.015625)"/>
       <path id="DejaVuSans-40" d="M 1947 4863 
L 1947 -844 
L 622 -844 
L 622 -397 
L 1369 -397 
L 1369 4416 
L 622 4416 
L 622 4863 
L 1947 4863 
z
" transform="scale(0.015625)"/>
      </defs>
      <use xlink:href="#DejaVuSans-57"/>
      <use xlink:href="#DejaVuSans-4c" transform="translate(39.203125 0)"/>
      <use xlink:href="#DejaVuSans-50" transform="translate(66.984375 0)"/>
      <use xlink:href="#DejaVuSans-48" transform="translate(164.390625 0)"/>
      <use xlink:href="#DejaVuSans-3" transform="translate(225.921875 0)"/>
      <use xlink:href="#DejaVuSans-3e" transform="translate(257.703125 0)"/>
      <use xlink:href="#DejaVuSans-56" transform="translate(296.71875 0)"/>
      <use xlink:href="#DejaVuSans-40" transform="translate(348.8125 0)"/>
     </g>
    </g>
   </g>
   <g id="matplotlib.axis_2">
    <g id="ytick_1">
     <g id="line2d_13">
      <path d="M 51.207813 240.979525 
L 561.6 240.979525 
" clip-path="url(#pfbe3556516)" style="fill: none; stroke-dasharray: 2.96,1.28; stroke-dashoffset: 0; stroke: #7f7f7f; stroke-opacity: 0.6; stroke-width: 0.8"/>
     </g>
     <g id="line2d_14">
      <defs>
       <path id="m4d7c168fca" d="M 0 0 
L -3.5 0 
" style="stroke: #7f7f7f; stroke-width: 1.8"/>
      </defs>
      <g>
       <use xlink:href="#m4d7c168fca" x="51.207813" y="240.979525" style="fill: #7f7f7f; stroke: #7f7f7f; stroke-width: 1.8"/>
      </g>
     </g>
     <g id="text_8">
      <!-- −0.050 -->
      <g style="fill: #7f7f7f" transform="translate(7.2 244.778354) scale(0.1 -0.1)">
       <defs>
        <path id="DejaVuSans-c9c" d="M 678 2272 
L 4684 2272 
L 4684 1741 
L 678 1741 
L 678 2272 
z
" transform="scale(0.015625)"/>
        <path id="DejaVuSans-11" d="M 684 794 
L 1344 794 
L 1344 0 
L 684 0 
L 684 794 
z
" transform="scale(0.015625)"/>
        <path id="DejaVuSans-18" d="M 691 4666 
L 3169 4666 
L 3169 4134 
L 1269 4134 
L 1269 2991 
Q 1406 3038 1543 3061 
Q 1681 3084 1819 3084 
Q 2600 3084 3056 2656 
Q 3513 2228 3513 1497 
Q 3513 744 3044 326 
Q 2575 -91 1722 -91 
Q 1428 -91 1123 -41 
Q 819 9 494 109 
L 494 744 
Q 775 591 1075 516 
Q 1375 441 1709 441 
Q 2250 441 2565 725 
Q 2881 1009 2881 1497 
Q 2881 1984 2565 2268 
Q 2250 2553 1709 2553 
Q 1456 2553 1204 2497 
Q 953 2441 691 2322 
L 691 4666 
z
" transform="scale(0.015625)"/>
       </defs>
       <use xlink:href="#DejaVuSans-c9c"/>
       <use xlink:href="#DejaVuSans-13" transform="translate(83.796875 0)"/>
       <use xlink:href="#DejaVuSans-11" transform="translate(147.421875 0)"/>
       <use xlink:href="#DejaVuSans-13" transform="translate(179.203125 0)"/>
       <use xlink:href="#DejaVuSans-18" transform="translate(242.828125 0)"/>
       <use xlink:href="#DejaVuSans-13" transform="translate(306.453125 0)"/>
      </g>
     </g>
    </g>
    <g id="ytick_2">
     <g id="line2d_15">
      <path d="M 51.207813 211.423771 
L 561.6 211.423771 
" clip-path="url(#pfbe3556516)" style="fill: none; stroke-dasharray: 2.96,1.28; stroke-dashoffset: 0; stroke: #7f7f7f; stroke-opacity: 0.6; stroke-width: 0.8"/>
     </g>
     <g id="line2d_16">
      <g>
       <use xlink:href="#m4d7c168fca" x="51.207813" y="211.423771" style="fill: #7f7f7f; stroke: #7f7f7f; stroke-width: 1.8"/>
      </g>
     </g>
     <g id="text_9">
      <!-- −0.025 -->
      <g style="fill: #7f7f7f" transform="translate(7.2 215.222599) scale(0.1 -0.1)">
       <use xlink:href="#DejaVuSans-c9c"/>
       <use xlink:href="#DejaVuSans-13" transform="translate(83.796875 0)"/>
       <use xlink:href="#DejaVuSans-11" transform="translate(147.421875 0)"/>
       <use xlink:href="#DejaVuSans-13" transform="translate(179.203125 0)"/>
       <use xlink:href="#DejaVuSans-15" transform="translate(242.828125 0)"/>
       <use xlink:href="#DejaVuSans-18" transform="translate(306.453125 0)"/>
      </g>
     </g>
    </g>
    <g id="ytick_3">
     <g id="line2d_17">
      <path d="M 51.207813 181.868016 
L 561.6 181.868016 
" clip-path="url(#pfbe3556516)" style="fill: none; stroke-dasharray: 2.96,1.28; stroke-dashoffset: 0; stroke: #7f7f7f; stroke-opacity: 0.6; stroke-width: 0.8"/>
     </g>
     <g id="line2d_18">
      <g>
       <use xlink:href="#m4d7c168fca" x="51.207813" y="181.868016" style="fill: #7f7f7f; stroke: #7f7f7f; stroke-width: 1.8"/>
      </g>
     </g>
     <g id="text_10">
      <!-- 0.000 -->
      <g style="fill: #7f7f7f" transform="translate(15.579688 185.666844) scale(0.1 -0.1)">
       <use xlink:href="#DejaVuSans-13"/>
       <use xlink:href="#DejaVuSans-11" transform="translate(63.625 0)"/>
       <use xlink:href="#DejaVuSans-13" transform="translate(95.40625 0)"/>
       <use xlink:href="#DejaVuSans-13" transform="translate(159.03125 0)"/>
       <use xlink:href="#DejaVuSans-13" transform="translate(222.65625 0)"/>
      </g>
     </g>
    </g>
    <g id="ytick_4">
     <g id="line2d_19">
      <path d="M 51.207813 152.312261 
L 561.6 152.312261 
" clip-path="url(#pfbe3556516)" style="fill: none; stroke-dasharray: 2.96,1.28; stroke-dashoffset: 0; stroke: #7f7f7f; stroke-opacity: 0.6; stroke-width: 0.8"/>
     </g>
     <g id="line2d_20">
      <g>
       <use xlink:href="#m4d7c168fca" x="51.207813" y="152.312261" style="fill: #7f7f7f; stroke: #7f7f7f; stroke-width: 1.8"/>
      </g>
     </g>
     <g id="text_11">
      <!-- 0.025 -->
      <g style="fill: #7f7f7f" transform="translate(15.579688 156.111089) scale(0.1 -0.1)">
       <use xlink:href="#DejaVuSans-13"/>
       <use xlink:href="#DejaVuSans-11" transform="translate(63.625 0)"/>
       <use xlink:href="#DejaVuSans-13" transform="translate(95.40625 0)"/>
       <use xlink:href="#DejaVuSans-15" transform="translate(159.03125 0)"/>
       <use xlink:href="#DejaVuSans-18" transform="translate(222.65625 0)"/>
      </g>
     </g>
    </g>
    <g id="ytick_5">
     <g id="line2d_21">
      <path d="M 51.207813 122.756507 
L 561.6 122.756507 
" clip-path="url(#pfbe3556516)" style="fill: none; stroke-dasharray: 2.96,1.28; stroke-dashoffset: 0; stroke: #7f7f7f; stroke-opacity: 0.6; stroke-width: 0.8"/>
     </g>
     <g id="line2d_22">
      <g>
       <use xlink:href="#m4d7c168fca" x="51.207813" y="122.756507" style="fill: #7f7f7f; stroke: #7f7f7f; stroke-width: 1.8"/>
      </g>
     </g>
     <g id="text_12">
      <!-- 0.050 -->
      <g style="fill: #7f7f7f" transform="translate(15.579688 126.555335) scale(0.1 -0.1)">
       <use xlink:href="#DejaVuSans-13"/>
       <use xlink:href="#DejaVuSans-11" transform="translate(63.625 0)"/>
       <use xlink:href="#DejaVuSans-13" transform="translate(95.40625 0)"/>
       <use xlink:href="#DejaVuSans-18" transform="translate(159.03125 0)"/>
       <use xlink:href="#DejaVuSans-13" transform="translate(222.65625 0)"/>
      </g>
     </g>
    </g>
    <g id="ytick_6">
     <g id="line2d_23">
      <path d="M 51.207813 93.200752 
L 561.6 93.200752 
" clip-path="url(#pfbe3556516)" style="fill: none; stroke-dasharray: 2.96,1.28; stroke-dashoffset: 0; stroke: #7f7f7f; stroke-opacity: 0.6; stroke-width: 0.8"/>
     </g>
     <g id="line2d_24">
      <g>
       <use xlink:href="#m4d7c168fca" x="51.207813" y="93.200752" style="fill: #7f7f7f; stroke: #7f7f7f; stroke-width: 1.8"/>
      </g>
     </g>
     <g id="text_13">
      <!-- 0.075 -->
      <g style="fill: #7f7f7f" transform="translate(15.579688 96.99958) scale(0.1 -0.1)">
       <defs>
        <path id="DejaVuSans-1a" d="M 525 4666 
L 3525 4666 
L 3525 4397 
L 1831 0 
L 1172 0 
L 2766 4134 
L 525 4134 
L 525 4666 
z
" transform="scale(0.015625)"/>
       </defs>
       <use xlink:href="#DejaVuSans-13"/>
       <use xlink:href="#DejaVuSans-11" transform="translate(63.625 0)"/>
       <use xlink:href="#DejaVuSans-13" transform="translate(95.40625 0)"/>
       <use xlink:href="#DejaVuSans-1a" transform="translate(159.03125 0)"/>
       <use xlink:href="#DejaVuSans-18" transform="translate(222.65625 0)"/>
      </g>
     </g>
    </g>
    <g id="ytick_7">
     <g id="line2d_25">
      <path d="M 51.207813 63.644997 
L 561.6 63.644997 
" clip-path="url(#pfbe3556516)" style="fill: none; stroke-dasharray: 2.96,1.28; stroke-dashoffset: 0; stroke: #7f7f7f; stroke-opacity: 0.6; stroke-width: 0.8"/>
     </g>
     <g id="line2d_26">
      <g>
       <use xlink:href="#m4d7c168fca" x="51.207813" y="63.644997" style="fill: #7f7f7f; stroke: #7f7f7f; stroke-width: 1.8"/>
      </g>
     </g>
     <g id="text_14">
      <!-- 0.100 -->
      <g style="fill: #7f7f7f" transform="translate(15.579688 67.443825) scale(0.1 -0.1)">
       <use xlink:href="#DejaVuSans-13"/>
       <use xlink:href="#DejaVuSans-11" transform="translate(63.625 0)"/>
       <use xlink:href="#DejaVuSans-14" transform="translate(95.40625 0)"/>
       <use xlink:href="#DejaVuSans-13" transform="translate(159.03125 0)"/>
       <use xlink:href="#DejaVuSans-13" transform="translate(222.65625 0)"/>
      </g>
     </g>
    </g>
    <g id="ytick_8">
     <g id="line2d_27">
      <path d="M 51.207813 34.089242 
L 561.6 34.089242 
" clip-path="url(#pfbe3556516)" style="fill: none; stroke-dasharray: 2.96,1.28; stroke-dashoffset: 0; stroke: #7f7f7f; stroke-opacity: 0.6; stroke-width: 0.8"/>
     </g>
     <g id="line2d_28">
      <g>
       <use xlink:href="#m4d7c168fca" x="51.207813" y="34.089242" style="fill: #7f7f7f; stroke: #7f7f7f; stroke-width: 1.8"/>
      </g>
     </g>
     <g id="text_15">
      <!-- 0.125 -->
      <g style="fill: #7f7f7f" transform="translate(15.579688 37.888071) scale(0.1 -0.1)">
       <use xlink:href="#DejaVuSans-13"/>
       <use xlink:href="#DejaVuSans-11" transform="translate(63.625 0)"/>
       <use xlink:href="#DejaVuSans-14" transform="translate(95.40625 0)"/>
       <use xlink:href="#DejaVuSans-15" transform="translate(159.03125 0)"/>
       <use xlink:href="#DejaVuSans-18" transform="translate(222.65625 0)"/>
      </g>
     </g>
    </g>
   </g>
   <g id="line2d_29">
    <path d="M 74.407457 181.868016 
L 74.453857 170.09357 
L 74.609451 193.152102 
L 75.378877 186.652099 
L 75.62617 179.674795 
L 75.883224 187.501621 
L 76.384374 182.513845 
L 77.055112 177.57685 
L 77.377645 181.758787 
L 77.781412 182.694402 
L 79.071271 179.944712 
L 79.438785 185.17005 
L 79.795011 180.253227 
L 81.401744 180.260238 
L 81.767257 184.410555 
L 82.130894 182.879361 
L 83.10926 181.434875 
L 83.642009 183.462549 
L 84.578483 179.006133 
L 85.88767 183.83592 
L 86.306448 181.776387 
L 86.689896 185.084991 
L 87.043326 184.764332 
L 88.048846 177.78976 
L 89.000232 184.417072 
L 89.704416 177.42421 
L 90.043483 178.743177 
L 90.404725 183.661769 
L 91.113161 182.243499 
L 91.826479 176.75682 
L 92.143304 183.838552 
L 92.78955 181.163767 
L 93.218697 183.602836 
L 93.563112 177.740195 
L 94.258545 182.340638 
L 94.642052 186.705154 
L 95.378569 185.510372 
L 95.737307 184.976032 
L 96.107497 180.140352 
L 96.854338 180.228003 
L 97.241885 182.534534 
L 97.694067 181.864121 
L 98.758367 177.556805 
L 99.092634 184.869806 
L 99.399989 177.3237 
L 99.67927 184.09237 
L 100.310983 178.262939 
L 100.589943 187.84094 
L 101.157521 181.663921 
L 102.26833 178.254867 
L 103.602985 187.620681 
L 103.899773 184.320146 
L 104.716652 179.761348 
L 105.109682 181.612534 
L 105.49397 185.102587 
L 105.862168 183.441479 
L 106.805103 173.419593 
L 107.025771 188.265971 
L 107.683036 185.584279 
L 107.945429 182.149622 
L 108.304588 185.321832 
L 108.641203 186.839196 
L 108.952622 185.457896 
L 110.309725 181.700996 
L 112.049786 179.438964 
L 112.430595 179.718064 
L 112.840506 181.383016 
L 113.252679 179.874995 
L 113.670261 178.73436 
L 114.060959 179.885686 
L 114.39863 187.823655 
L 114.703033 183.096806 
L 115.606845 180.315032 
L 115.925837 175.485222 
L 116.544518 176.372873 
L 117.977266 184.038986 
L 118.385778 183.748138 
L 118.790241 184.372248 
L 119.191384 184.829389 
L 119.580547 181.096185 
L 119.902617 188.471057 
L 120.196602 182.032333 
L 120.826517 177.169876 
L 121.580215 189.383139 
L 121.817588 179.847593 
L 122.368345 179.67163 
L 122.641008 188.364944 
L 122.907701 178.508976 
L 123.719861 182.257929 
L 124.095307 181.090164 
L 124.541799 181.863518 
L 124.964983 183.136308 
L 125.349874 181.731645 
L 126.514131 179.053919 
L 126.898945 179.2634 
L 127.65029 185.212833 
L 128.733785 184.696754 
L 130.211568 177.751946 
L 130.554495 180.528208 
L 130.976727 182.981224 
L 131.375107 178.774224 
L 131.677931 186.739521 
L 132.290352 182.582876 
L 133.453094 179.131793 
L 133.791875 185.244687 
L 134.489284 181.355205 
L 134.971572 181.313565 
L 135.690556 185.698535 
L 136.030681 183.318381 
L 136.386726 176.930094 
L 136.714185 184.972524 
L 137.013956 181.522889 
L 138.293672 181.866545 
L 138.637791 187.018991 
L 138.957612 183.781139 
L 139.684571 179.823434 
L 140.515199 180.610264 
L 140.895383 185.728781 
L 141.202013 177.804682 
L 141.513737 181.203205 
L 141.895654 182.919509 
L 142.949141 174.976302 
L 143.49061 184.992266 
L 143.786394 184.059235 
L 144.513691 178.340471 
L 144.874177 181.008455 
L 146.048375 184.131798 
L 146.811107 177.152104 
L 147.137476 184.901847 
L 147.747816 180.183422 
L 148.497208 180.015059 
L 149.260158 185.090759 
L 149.62307 180.534338 
L 149.995768 185.251045 
L 150.333463 186.454571 
L 150.930883 187.396707 
L 151.739636 176.217284 
L 152.285163 189.963724 
L 152.813925 178.211898 
L 153.091915 179.13844 
L 153.37945 186.698223 
L 154.066247 182.21165 
L 154.450294 177.626161 
L 154.79919 183.781586 
L 155.138554 180.922641 
L 155.523696 182.640141 
L 156.293634 178.06385 
L 156.647126 180.830216 
L 157.086783 181.060418 
L 157.462088 178.020789 
L 158.169608 185.99009 
L 158.49076 185.352539 
L 158.824187 179.167167 
L 159.519318 180.883577 
L 160.295291 186.042504 
L 160.636795 181.926435 
L 161.445679 180.234523 
L 161.881994 181.155173 
L 162.342946 182.517773 
L 163.595512 179.1898 
L 163.964677 184.926119 
L 164.634418 183.980788 
L 165.348457 185.017707 
L 165.693643 179.017629 
L 166.396455 182.925666 
L 167.178101 178.854786 
L 167.066742 186.077875 
L 167.196136 185.07376 
L 167.206023 223.725327 
L 167.206593 30.586078 
L 168.165155 167.981754 
L 169.029665 155.275935 
L 169.6728 160.00848 
L 170.264864 172.243974 
L 170.738875 165.813407 
L 170.955583 165.062419 
L 171.167227 176.753152 
L 171.923575 169.002252 
L 172.752253 176.877055 
L 173.088292 172.591325 
L 173.731411 173.716843 
L 174.825048 178.588967 
L 175.134289 166.765232 
L 175.74107 172.87732 
L 176.44547 172.349914 
L 176.795111 177.344936 
L 177.173069 172.519913 
L 177.530532 179.720468 
L 179.020346 172.251935 
L 179.705595 174.870541 
L 180.082715 179.464159 
L 180.618293 178.244018 
L 181.267307 170.155894 
L 181.591747 175.766415 
L 181.991112 176.219258 
L 182.420204 182.849601 
L 182.834712 176.826083 
L 183.638132 172.771089 
L 184.390023 173.888716 
L 185.179099 176.821195 
L 186.058179 176.370453 
L 186.433448 172.432201 
L 187.517339 179.617564 
L 187.895941 175.689217 
L 188.268926 180.705724 
L 189.874684 177.734444 
L 190.261926 180.500416 
L 190.791994 178.942244 
L 191.195147 176.023562 
L 192.30141 181.726641 
L 192.641918 174.112171 
L 193.36531 176.973815 
L 194.141619 175.590372 
L 194.531285 179.947126 
L 195.077118 179.758902 
L 195.747827 180.793794 
L 196.170847 183.531682 
L 196.560005 178.481678 
L 197.429089 179.089744 
L 198.375812 180.065911 
L 199.40057 180.574758 
L 199.949991 181.291867 
L 200.492405 180.613471 
L 200.833644 175.179233 
L 201.171431 179.800026 
L 201.645258 181.72683 
L 202.161041 180.235424 
L 203.29409 182.260167 
L 204.133847 184.55174 
L 204.955624 178.082316 
L 205.316026 181.364121 
L 206.020125 188.513973 
L 206.370876 180.807051 
L 206.822735 183.167886 
L 207.758906 178.453072 
L 208.125698 175.903649 
L 208.489942 178.964592 
L 208.921773 178.423349 
L 209.608765 185.122243 
L 209.982203 180.516836 
L 210.899997 180.04658 
L 211.356352 179.007759 
L 212.192274 186.297622 
L 212.571992 182.410963 
L 213.409801 185.51532 
L 213.836897 181.759069 
L 214.273057 184.003462 
L 214.705442 183.296475 
L 215.071329 186.763203 
L 215.434235 182.684643 
L 215.959352 181.516511 
L 216.436125 182.241915 
L 216.856256 183.823341 
L 217.274814 179.554715 
L 218.14717 179.780759 
L 218.605371 179.826621 
L 219.590242 182.88842 
L 220.06517 182.063452 
L 220.685912 182.487192 
L 221.941514 186.067853 
L 222.350557 185.882263 
L 222.767433 185.901575 
L 224.002638 178.021879 
L 224.344201 178.310356 
L 225.533529 187.970868 
L 226.829164 180.266646 
L 227.266703 180.026173 
L 228.073505 185.904617 
L 228.801259 176.96454 
L 229.150408 183.680526 
L 230.519639 182.376027 
L 231.014944 181.92608 
L 232.397767 184.634277 
L 232.808685 179.198773 
L 233.22682 183.945878 
L 233.647185 184.801365 
L 234.454803 177.042553 
L 235.558004 188.40146 
L 236.390773 183.345833 
L 236.79197 185.294162 
L 237.606852 179.674869 
L 237.992856 182.562554 
L 238.409469 184.95344 
L 238.78762 184.68343 
L 239.204751 182.477127 
L 239.659586 183.741915 
L 240.611595 182.925778 
L 240.947894 176.581723 
L 241.649088 179.945333 
L 242.125411 183.200496 
L 242.563814 182.976552 
L 243.015445 179.432875 
L 243.462233 181.215618 
L 243.962146 181.796133 
L 244.355021 179.186368 
L 244.746083 180.615336 
L 245.225869 183.890566 
L 245.670166 179.923605 
L 246.163179 182.298505 
L 246.642103 183.283029 
L 247.084717 180.911349 
L 247.551529 182.159983 
L 248.844433 184.9991 
L 249.731702 180.593144 
L 250.168388 180.700353 
L 251.113774 184.410459 
L 252.43386 180.459108 
L 252.925945 180.750144 
L 253.418095 182.714464 
L 253.815515 181.496331 
L 254.715442 179.816707 
L 256.024121 185.353604 
L 256.427783 184.118392 
L 256.74691 175.358391 
L 257.481022 178.888923 
L 258.315945 183.151161 
L 258.712056 187.901994 
L 259.074774 184.710434 
L 259.493992 182.530809 
L 259.992467 184.540301 
L 260.484837 184.614281 
L 261.987902 180.426908 
L 262.4629 183.628622 
L 262.820096 178.125378 
L 263.173629 181.2101 
L 263.552525 184.152365 
L 263.930169 181.334496 
L 264.364016 178.95502 
L 264.781174 179.803781 
L 265.224603 185.265251 
L 265.629834 181.558431 
L 266.017415 178.646354 
L 266.414615 182.275653 
L 266.817962 179.693258 
L 267.57611 185.038652 
L 267.946976 181.22528 
L 268.430607 181.605391 
L 268.871409 178.365602 
L 269.694155 179.348992 
L 270.130293 182.727585 
L 270.586009 182.175304 
L 271.928479 180.455986 
L 272.419764 182.252365 
L 272.815196 179.458818 
L 273.208844 183.909054 
L 273.660294 183.070183 
L 274.072254 180.214595 
L 274.493977 188.120327 
L 274.875055 177.506515 
L 275.259112 187.86015 
L 276.893129 178.201602 
L 277.278194 183.073829 
L 277.774683 178.580095 
L 278.24346 179.391226 
L 279.098278 184.332821 
L 280.687878 176.793745 
L 281.085572 182.947195 
L 281.991165 181.93237 
L 282.411189 180.008802 
L 282.832097 180.814227 
L 283.320472 183.07703 
L 283.785311 182.377322 
L 284.201135 181.601813 
L 285.07115 184.37441 
L 286.272726 178.797367 
L 287.926387 185.253478 
L 289.142721 178.530607 
L 289.986026 182.419418 
L 291.310114 179.803372 
L 293.025399 184.861075 
L 295.044805 180.64607 
L 296.256688 183.07788 
L 297.039406 184.855792 
L 297.464458 178.945962 
L 298.304204 184.359901 
L 299.105234 183.559161 
L 300.20091 179.287355 
L 300.58597 183.845582 
L 301.038898 181.267655 
L 301.509197 182.255359 
L 302.360893 178.791662 
L 303.166737 187.154064 
L 303.53596 183.143209 
L 304.405643 179.232782 
L 304.772815 175.104391 
L 305.113527 180.763314 
L 305.478866 181.110113 
L 305.851212 180.541714 
L 307.069726 183.674743 
L 307.510898 178.090934 
L 307.927105 186.284612 
L 308.728296 183.108804 
L 309.156664 181.56016 
L 310.329776 185.7973 
L 310.702447 176.241955 
L 311.423087 179.973171 
L 311.830171 179.111192 
L 312.247702 185.824031 
L 312.635197 179.629543 
L 313.013923 181.697098 
L 313.457685 181.327313 
L 313.867292 179.528117 
L 314.700795 183.118494 
L 315.138871 182.971089 
L 315.5401 183.79302 
L 317.166365 178.732376 
L 317.953208 184.595617 
L 319.210664 178.274761 
L 320.421259 185.85975 
L 321.223661 179.804882 
L 321.6197 184.62238 
L 322.049833 179.950953 
L 322.497451 178.931897 
L 322.910184 181.473135 
L 323.394689 180.294581 
L 323.837467 178.907947 
L 324.242073 179.960853 
L 325.031363 184.7515 
L 325.808982 178.998617 
L 326.595189 177.106782 
L 327.384552 189.134753 
L 328.557035 179.79375 
L 328.945999 184.472598 
L 329.316938 183.758797 
L 329.758389 180.42781 
L 330.19076 183.898415 
L 330.634942 180.799328 
L 331.089715 183.444239 
L 331.604899 183.233985 
L 332.419864 181.64478 
L 332.81782 182.105338 
L 333.59748 183.505135 
L 334.395803 177.56351 
L 334.780379 180.303073 
L 336.002042 176.43091 
L 336.797746 183.221214 
L 337.60752 182.812995 
L 337.98925 179.353993 
L 338.369459 187.142815 
L 339.152758 183.82068 
L 339.563079 185.383913 
L 339.984311 180.197219 
L 340.439078 184.947835 
L 341.856533 178.733926 
L 342.271677 181.049419 
L 343.506895 183.187793 
L 343.86759 185.418373 
L 344.261332 184.227947 
L 344.621769 180.428138 
L 344.983779 184.297093 
L 345.432871 181.906501 
L 345.892411 178.817868 
L 346.307502 179.823908 
L 346.747737 181.446106 
L 347.079001 174.01337 
L 347.824919 175.026998 
L 348.966436 190.976306 
L 349.30019 182.770089 
L 349.660226 186.019655 
L 350.080978 183.505548 
L 350.916956 184.360246 
L 352.059056 178.17501 
L 352.773091 187.464498 
L 352.801164 186.6724 
L 352.803407 17.854506 
L 352.803609 230.944634 
L 353.570039 191.810192 
L 353.892957 191.64217 
L 354.24441 189.124373 
L 354.637593 192.262427 
L 355.012151 193.214314 
L 355.71601 194.017833 
L 356.052376 186.668881 
L 356.385467 195.09104 
L 356.713829 192.443962 
L 358.033894 182.535427 
L 358.413756 186.363725 
L 359.22575 185.606718 
L 359.619724 188.218893 
L 360.787603 183.486563 
L 361.280112 182.375357 
L 362.544994 188.937272 
L 362.926513 183.325893 
L 363.321937 186.971385 
L 363.709844 188.11615 
L 364.096672 187.770632 
L 365.662153 180.297672 
L 367.152441 191.704371 
L 367.476389 183.822169 
L 368.0019 185.805477 
L 368.354373 189.803699 
L 368.703042 188.044167 
L 369.997964 180.566559 
L 370.436699 182.922899 
L 371.148681 181.321717 
L 371.478481 190.254366 
L 372.790179 182.586748 
L 373.150326 187.290222 
L 373.506503 178.931842 
L 373.887745 180.021608 
L 374.285956 185.870053 
L 374.686524 183.60094 
L 375.740456 182.962465 
L 376.113946 186.178999 
L 376.484235 185.687172 
L 378.067935 178.118753 
L 378.920769 183.056192 
L 379.364229 179.354566 
L 379.808518 184.553651 
L 380.26755 184.167891 
L 381.258968 182.80247 
L 381.615967 187.130784 
L 381.969593 186.897518 
L 383.079179 179.763043 
L 382.717099 187.770035 
L 383.480502 180.941741 
L 383.893123 185.561454 
L 384.307718 180.878574 
L 385.667276 186.12517 
L 386.036413 175.357023 
L 386.800088 179.263047 
L 387.668511 183.244971 
L 388.077791 178.561175 
L 388.502736 183.090649 
L 388.949347 183.360842 
L 389.385899 186.425329 
L 389.782358 185.900128 
L 391.622398 176.955595 
L 391.961339 178.44709 
L 392.853002 182.635374 
L 393.325734 181.024763 
L 393.784678 179.737208 
L 394.203138 184.15493 
L 394.641896 178.260911 
L 395.077244 179.505989 
L 395.927237 184.351951 
L 396.727788 177.436154 
L 397.106958 182.670851 
L 398.018657 182.546128 
L 398.466134 180.715549 
L 399.57351 182.672561 
L 399.931252 178.041943 
L 400.713887 179.848568 
L 401.207553 184.40893 
L 402.126803 184.171723 
L 402.590238 180.463339 
L 403.074551 183.220661 
L 404.230136 181.690548 
L 404.736104 182.345466 
L 405.244659 179.770933 
L 406.152721 179.968058 
L 406.591069 180.206704 
L 407.07175 183.296861 
L 407.54049 183.150533 
L 407.998947 180.569306 
L 408.498892 182.821274 
L 408.980674 183.173736 
L 409.438099 182.008783 
L 409.779302 176.450689 
L 410.117041 185.449445 
L 410.477852 177.100774 
L 411.252521 181.332391 
L 411.714558 178.044681 
L 412.152006 181.626208 
L 412.663705 178.652459 
L 413.555555 185.287926 
L 413.950236 175.319186 
L 414.310723 181.215384 
L 414.791705 183.034494 
L 415.237568 177.111206 
L 415.643813 182.875431 
L 416.037722 185.310451 
L 416.40189 183.170769 
L 416.869897 180.842099 
L 417.590038 177.537115 
L 417.961509 189.74886 
L 419.28663 181.122215 
L 420.012473 176.630068 
L 420.721474 185.837226 
L 421.057061 185.510493 
L 421.431592 179.584839 
L 421.852916 181.447292 
L 422.211832 185.826196 
L 422.568102 182.975177 
L 423.650362 176.044205 
L 424.04653 185.551339 
L 424.829901 181.275447 
L 426.704488 182.245876 
L 427.140861 184.223584 
L 427.535452 182.264151 
L 428.022275 182.458222 
L 428.447341 180.589387 
L 429.739814 184.542696 
L 430.521202 186.048954 
L 430.917141 176.794173 
L 431.30207 182.295526 
L 431.75967 180.454683 
L 432.180382 180.516415 
L 433.009275 183.856072 
L 433.440551 176.902906 
L 433.83765 178.730032 
L 435.125444 183.96434 
L 435.558227 178.854059 
L 435.981976 183.254032 
L 436.480849 180.13028 
L 436.945559 182.961302 
L 437.364858 186.183492 
L 437.75579 181.946064 
L 438.147968 182.572526 
L 438.54879 180.440273 
L 438.898545 186.478622 
L 439.244926 180.326716 
L 440.062267 183.57376 
L 440.96891 182.313629 
L 441.327388 178.011113 
L 441.683165 185.882138 
L 442.058945 180.71264 
L 443.458544 182.40859 
L 445.18485 178.470971 
L 445.590105 185.904895 
L 445.978835 177.008037 
L 446.780228 181.696636 
L 447.198588 180.867901 
L 447.622005 181.233645 
L 448.444535 187.401334 
L 449.210811 178.733454 
L 449.5648 185.078546 
L 449.957036 186.528731 
L 450.705978 177.215403 
L 451.489573 179.705233 
L 451.797885 191.169951 
L 452.101689 177.147604 
L 452.415038 179.325113 
L 453.217673 184.45017 
L 454.095547 185.251063 
L 454.86715 175.49562 
L 455.51494 187.638007 
L 455.831791 183.41107 
L 456.280999 180.113214 
L 456.732701 186.750864 
L 457.542732 184.874315 
L 457.951587 184.514305 
L 459.624885 177.765576 
L 460.482076 182.345396 
L 460.893745 176.120022 
L 461.283238 177.360975 
L 462.513084 185.207049 
L 462.931753 183.93704 
L 463.348647 178.750745 
L 463.757989 182.7996 
L 464.265096 182.694211 
L 464.742277 181.504526 
L 465.098431 182.066565 
L 465.46781 185.503125 
L 465.861979 179.354748 
L 466.731101 181.227943 
L 467.172384 181.469953 
L 467.903891 186.291556 
L 468.719695 179.309552 
L 469.114767 179.832157 
L 469.48986 184.347097 
L 469.89834 180.249916 
L 470.381732 182.687893 
L 471.170565 182.120404 
L 472.130607 180.898085 
L 472.641924 181.831037 
L 473.052748 184.689602 
L 473.900249 183.98965 
L 474.231987 176.690963 
L 474.942813 182.632869 
L 475.30685 181.440372 
L 476.091842 184.438947 
L 476.40004 173.025626 
L 477.062407 179.86922 
L 477.440429 185.429471 
L 477.830277 179.190464 
L 478.199735 179.931787 
L 478.625004 178.637339 
L 479.397495 188.051179 
L 479.75439 179.282329 
L 480.145128 187.098316 
L 482.173098 178.636605 
L 482.55008 179.467018 
L 482.929091 185.469694 
L 483.312258 182.273685 
L 484.725373 181.835822 
L 485.070048 176.617384 
L 485.411674 180.657297 
L 485.818754 183.615688 
L 486.240128 179.054441 
L 487.035756 179.659352 
L 487.910912 183.523883 
L 488.368367 181.351181 
L 488.783825 180.051184 
L 489.23005 181.804583 
L 489.653644 181.474566 
L 490.118722 183.690599 
L 490.950037 182.875851 
L 491.339987 179.856367 
L 491.728614 183.529238 
L 492.153399 184.89612 
L 492.551278 183.800511 
L 493.394299 178.784914 
L 493.797654 179.237966 
L 494.628086 187.078485 
L 495.384589 184.313846 
L 495.777264 181.947054 
L 496.139201 182.140224 
L 496.503131 185.810857 
L 497.760712 178.063961 
L 498.173063 180.992084 
L 498.562985 176.366827 
L 498.952751 181.860341 
L 499.374235 181.807356 
L 499.804121 180.132334 
L 501.054195 185.70402 
L 501.91255 181.461524 
L 502.389448 181.636773 
L 502.742085 186.556972 
L 503.091546 181.500528 
L 503.477401 184.45996 
L 505.128523 179.467547 
L 507.126506 183.366451 
L 507.982188 177.651353 
L 508.753137 186.68381 
L 509.121675 180.736587 
L 509.512344 178.624262 
L 509.878222 183.113795 
L 510.681106 181.163394 
L 511.015872 174.386963 
L 511.346767 184.384239 
L 512.096292 180.39403 
L 512.526888 181.473656 
L 512.848459 189.557261 
L 513.586189 185.484652 
L 514.809418 176.23759 
L 516.308895 188.062117 
L 517.04776 180.030405 
L 517.440258 181.306252 
L 517.873619 183.756507 
L 518.214682 176.826371 
L 518.990986 180.759464 
L 519.369654 176.547165 
L 519.72216 182.011996 
L 520.108226 185.449304 
L 520.460142 180.051262 
L 520.883702 184.339232 
L 521.68071 180.235377 
L 522.043397 186.330733 
L 522.390732 181.610648 
L 522.805986 178.005326 
L 523.611968 179.410655 
L 524.037192 180.717436 
L 524.754357 186.299938 
L 525.126181 184.181977 
L 525.491754 178.684977 
L 525.867321 181.189407 
L 526.68628 185.015023 
L 527.06247 182.438092 
L 527.495173 182.603719 
L 527.959086 181.21439 
L 528.416227 183.168416 
L 528.796486 179.28821 
L 529.174183 181.411404 
L 529.580102 181.872104 
L 529.909335 188.689066 
L 530.671569 185.609196 
L 531.816551 177.732692 
L 532.208401 187.037705 
L 532.963838 181.280439 
L 534.203226 180.027146 
L 534.588321 181.948854 
L 534.981343 177.025861 
L 535.376019 188.310435 
L 535.7389 175.346078 
L 537.231637 183.596233 
L 537.94191 179.065924 
L 538.296244 185.400572 
L 538.400355 182.985869 
" clip-path="url(#pfbe3556516)" style="fill: none; stroke: #e41a1c; stroke-width: 2; stroke-linecap: square"/>
   </g>
   <g id="line2d_30">
    <path d="M 74.407457 181.868016 
L 74.453857 178.779801 
L 74.609451 184.741503 
L 75.145889 182.920731 
L 76.122981 184.867466 
L 75.62617 181.961175 
L 76.384374 183.824795 
L 77.055112 181.863293 
L 77.377645 182.871949 
L 78.646412 182.750721 
L 79.071271 182.032247 
L 79.438785 183.798781 
L 79.795011 182.36698 
L 81.401744 181.052177 
L 81.767257 182.431888 
L 82.535194 181.887411 
L 85.428865 181.688798 
L 87.043326 183.468311 
L 88.048846 181.245466 
L 89.000232 183.380936 
L 90.759226 181.119088 
L 91.113161 181.769475 
L 91.49406 180.419852 
L 91.826479 179.241437 
L 92.143304 181.211012 
L 92.451383 180.122253 
L 93.218697 181.128406 
L 93.563112 179.115115 
L 94.258545 180.4223 
L 95.737307 183.075459 
L 96.854338 181.636089 
L 97.694067 182.155483 
L 98.758367 179.428016 
L 99.092634 181.609518 
L 99.399989 179.198926 
L 99.67927 181.094097 
L 100.310983 179.06176 
L 100.86341 182.212585 
L 101.157521 181.031753 
L 102.26833 178.969 
L 102.631192 179.186414 
L 103.602985 182.922186 
L 103.899773 182.417884 
L 105.109682 181.485146 
L 105.49397 182.849742 
L 105.862168 182.690692 
L 106.805103 178.875626 
L 107.025771 183.060814 
L 107.945429 181.71764 
L 108.952622 184.18094 
L 109.291229 183.937067 
L 110.750757 183.373673 
L 114.060959 180.689076 
L 114.39863 183.430179 
L 115.177947 182.138291 
L 116.544518 178.45817 
L 117.198991 180.330642 
L 119.902617 184.152134 
L 120.196602 182.610421 
L 120.826517 180.265196 
L 121.580215 184.388382 
L 121.817588 181.873143 
L 122.368345 181.638634 
L 122.641008 184.47475 
L 122.907701 181.714104 
L 123.719861 183.059569 
L 124.541799 182.857129 
L 124.964983 183.393007 
L 125.349874 183.035399 
L 127.294825 181.247953 
L 128.733785 183.306163 
L 129.460495 182.798091 
L 130.211568 180.750037 
L 130.554495 181.233885 
L 130.976727 182.014119 
L 131.375107 180.476542 
L 131.677931 183.009403 
L 131.974707 183.211201 
L 132.290352 182.544857 
L 133.453094 180.625787 
L 133.791875 182.574379 
L 134.489284 181.367128 
L 135.342584 181.616672 
L 135.690556 182.937878 
L 136.030681 182.559913 
L 136.386726 180.290824 
L 137.013956 181.781157 
L 138.293672 181.779208 
L 138.637791 183.757131 
L 139.308056 182.748917 
L 140.515199 181.898654 
L 140.895383 183.747232 
L 141.202013 181.314036 
L 141.513737 182.059562 
L 141.895654 182.642282 
L 142.949141 179.405346 
L 143.786394 182.543538 
L 144.142822 181.802923 
L 144.513691 180.537909 
L 144.874177 181.057183 
L 146.048375 182.830826 
L 146.811107 180.229795 
L 147.747816 180.908637 
L 149.260158 182.219274 
L 149.62307 180.909791 
L 149.995768 182.572057 
L 150.650883 181.816278 
L 150.930883 184.16624 
L 151.739636 180.678137 
L 152.004752 181.787647 
L 152.285163 184.866127 
L 152.813925 181.51492 
L 153.091915 181.43647 
L 153.37945 183.84079 
L 154.066247 183.073881 
L 154.450294 181.296832 
L 155.138554 182.242544 
L 155.523696 182.783405 
L 156.293634 180.595924 
L 156.647126 181.112812 
L 157.086783 181.008603 
L 157.462088 179.668417 
L 157.823143 181.304232 
L 158.49076 182.734459 
L 158.824187 180.862641 
L 159.519318 181.15199 
L 160.295291 183.472174 
L 160.636795 182.483433 
L 163.595512 180.488374 
L 163.964677 182.340636 
L 164.634418 182.12959 
L 165.348457 182.720329 
L 165.693643 180.859903 
L 166.396455 182.041707 
L 166.76488 180.597672 
L 167.066742 182.870327 
L 167.196136 182.755508 
L 167.206023 192.227079 
L 167.206593 145.075048 
L 168.038086 168.984285 
L 168.165155 171.43684 
L 168.716044 165.790478 
L 172.469657 146.28582 
L 172.752253 147.185633 
L 174.460042 141.140169 
L 174.825048 141.852978 
L 175.74107 136.421567 
L 176.066818 136.568708 
L 177.173069 132.182231 
L 177.530532 133.659019 
L 179.705595 126.495746 
L 180.082715 127.282939 
L 180.618293 126.266372 
L 181.991112 121.098967 
L 182.420204 122.928015 
L 182.834712 120.650945 
L 186.433448 109.500853 
L 186.782094 110.87352 
L 187.152874 108.577216 
L 187.517339 109.488638 
L 187.895941 107.586667 
L 188.268926 108.641226 
L 191.934447 103.40596 
L 192.30141 104.700115 
L 193.747369 100.684075 
L 195.077118 99.643328 
L 196.978626 98.979527 
L 198.897668 97.280413 
L 200.492405 96.748947 
L 200.833644 94.494914 
L 201.645258 95.757868 
L 202.741867 94.936458 
L 204.133847 96.756962 
L 204.558181 95.809083 
L 204.955624 94.44976 
L 205.316026 95.173239 
L 206.020125 98.401726 
L 206.370876 96.380982 
L 206.822735 97.211173 
L 207.389699 96.871827 
L 208.921773 93.578773 
L 209.608765 96.030592 
L 209.982203 94.692069 
L 211.356352 93.119608 
L 212.938607 96.120791 
L 214.273057 97.187244 
L 214.705442 97.274553 
L 215.071329 98.85572 
L 215.434235 97.991121 
L 216.436125 97.90357 
L 216.856256 98.629206 
L 218.605371 96.109714 
L 220.06517 97.003179 
L 221.103897 98.017978 
L 223.657488 101.069609 
L 224.344201 98.547773 
L 225.533529 102.021972 
L 227.266703 99.531527 
L 227.719258 99.810489 
L 228.073505 101.456044 
L 228.424972 99.760188 
L 228.801259 98.248052 
L 229.150408 100.129508 
L 230.519639 100.205535 
L 231.014944 100.092449 
L 232.397767 101.894701 
L 232.808685 100.120961 
L 233.22682 101.631441 
L 233.647185 102.345163 
L 234.454803 99.153151 
L 234.828672 101.555131 
L 235.222692 100.747312 
L 235.558004 103.248132 
L 236.390773 102.540068 
L 236.79197 103.58363 
L 237.190147 102.596157 
L 237.606852 101.790565 
L 237.992856 102.605039 
L 239.659586 104.335542 
L 240.611595 104.659713 
L 241.280531 101.879561 
L 241.649088 102.278111 
L 242.563814 103.453309 
L 243.015445 102.128627 
L 243.462233 102.430548 
L 243.962146 102.540297 
L 244.746083 101.59783 
L 245.225869 102.777342 
L 245.670166 101.443675 
L 246.642103 102.600672 
L 247.084717 101.840832 
L 248.844433 104.21778 
L 249.731702 102.69379 
L 250.168388 102.512238 
L 251.113774 104.310412 
L 251.539889 103.269039 
L 251.984437 103.730707 
L 252.43386 103.013574 
L 255.59761 102.930326 
L 256.427783 104.205096 
L 257.481022 101.253312 
L 258.315945 102.207292 
L 258.712056 104.334747 
L 259.493992 103.571933 
L 261.486662 105.810198 
L 262.820096 103.960761 
L 263.552525 105.699482 
L 263.930169 104.936505 
L 264.781174 103.695024 
L 265.224603 105.641859 
L 265.629834 104.689808 
L 266.817962 103.426386 
L 267.57611 105.544623 
L 267.946976 104.520968 
L 268.430607 104.565204 
L 269.694155 102.389198 
L 271.047275 103.107664 
L 272.419764 103.108916 
L 272.815196 102.032973 
L 273.208844 103.439451 
L 274.072254 102.478564 
L 274.875055 102.229911 
L 275.259112 105.699283 
L 276.893129 103.098825 
L 277.278194 104.479446 
L 277.774683 102.711606 
L 278.24346 102.423064 
L 279.098278 104.239714 
L 279.488942 103.343101 
L 280.687878 101.001843 
L 281.531465 102.711988 
L 281.991165 102.549152 
L 282.832097 101.759137 
L 285.07115 103.76683 
L 286.272726 101.662219 
L 287.083263 102.8483 
L 288.782692 104.149317 
L 289.142721 102.614096 
L 289.500106 103.416857 
L 290.893927 103.283501 
L 292.192884 102.330738 
L 292.606063 102.291733 
L 293.025399 103.724341 
L 293.439312 103.600256 
L 295.044805 102.720689 
L 296.256688 103.637287 
L 297.039406 104.221917 
L 297.464458 102.275124 
L 299.813878 103.74385 
L 300.20091 102.710943 
L 300.58597 104.134412 
L 302.360893 101.993637 
L 303.166737 105.15471 
L 303.947287 104.051454 
L 304.772815 100.912223 
L 305.851212 101.740337 
L 307.069726 102.856645 
L 307.510898 100.802964 
L 307.927105 103.544808 
L 309.594314 104.789917 
L 310.329776 105.995062 
L 311.051932 102.67107 
L 311.423087 102.894507 
L 311.830171 102.221678 
L 312.247702 104.529096 
L 312.635197 102.66523 
L 313.457685 102.94854 
L 313.867292 102.112752 
L 314.273362 102.985528 
L 316.364528 103.623237 
L 317.541423 102.78219 
L 318.343584 102.089983 
L 318.765955 103.794409 
L 319.210664 101.706679 
L 319.643927 102.952833 
L 320.421259 104.852201 
L 320.812635 103.365856 
L 321.223661 102.836365 
L 321.6197 104.459272 
L 322.049833 102.987686 
L 323.837467 101.244957 
L 324.663476 101.353703 
L 325.031363 102.63168 
L 325.397334 101.280409 
L 325.808982 100.483291 
L 326.595189 99.578342 
L 327.384552 104.453269 
L 327.736792 102.10444 
L 328.557035 102.25238 
L 329.316938 103.939209 
L 330.634942 103.1614 
L 332.008941 104.430639 
L 332.81782 104.283091 
L 333.59748 105.121156 
L 335.600443 101.247283 
L 336.002042 99.734101 
L 336.40141 100.53674 
L 337.60752 101.347432 
L 337.98925 100.099214 
L 338.369459 102.804492 
L 339.152758 102.441889 
L 339.984311 101.874232 
L 340.439078 103.618064 
L 343.148306 102.777801 
L 344.983779 104.533811 
L 345.432871 103.972273 
L 347.079001 99.99448 
L 347.406099 101.576472 
L 347.824919 98.922498 
L 348.966436 104.304521 
L 350.080978 103.510667 
L 351.719304 104.176217 
L 352.059056 102.635554 
L 352.480489 104.628485 
L 352.660336 104.300022 
L 352.773091 105.598489 
L 352.803065 97.292898 
L 352.803407 64.234704 
L 352.803609 116.232586 
L 353.570039 108.841421 
L 356.713829 120.862477 
L 357.523247 119.873585 
L 358.033894 119.331331 
L 359.619724 123.457839 
L 359.986758 122.602235 
L 360.390466 124.051876 
L 361.280112 123.329163 
L 363.709844 129.410467 
L 364.881155 131.485609 
L 365.662153 129.344679 
L 367.152441 135.139009 
L 367.476389 133.466611 
L 368.0019 134.789319 
L 369.537964 138.282918 
L 369.997964 136.693833 
L 370.436699 137.44886 
L 371.478481 141.00664 
L 371.803446 139.97322 
L 373.150326 142.135285 
L 373.887745 139.636613 
L 374.285956 141.697569 
L 375.124247 141.407126 
L 375.740456 141.675286 
L 376.484235 143.555119 
L 376.888235 142.148115 
L 377.345326 142.88833 
L 378.067935 140.660412 
L 378.452832 141.966313 
L 378.920769 142.202895 
L 379.364229 140.81653 
L 379.808518 142.545877 
L 381.615967 144.699357 
L 382.717099 146.757763 
L 383.079179 144.506274 
L 383.480502 144.650015 
L 384.806389 146.511191 
L 385.295194 146.286578 
L 385.667276 147.765867 
L 386.036413 144.169503 
L 386.800088 144.834722 
L 387.668511 145.903237 
L 388.077791 144.201374 
L 388.502736 145.50864 
L 389.385899 147.404876 
L 390.653193 147.7087 
L 391.279915 147.961867 
L 391.961339 145.804457 
L 392.353977 145.981243 
L 392.853002 146.71747 
L 393.325734 146.158409 
L 393.784678 145.437266 
L 394.203138 146.900741 
L 394.641896 144.810971 
L 395.077244 144.683024 
L 395.927237 146.685124 
L 396.727788 143.546972 
L 397.106958 144.936638 
L 398.466134 144.116547 
L 399.57351 144.956858 
L 399.931252 143.271315 
L 400.713887 143.478468 
L 402.126803 145.709013 
L 402.590238 144.551881 
L 403.074551 145.508968 
L 407.07175 144.823773 
L 409.438099 145.035638 
L 410.117041 145.622931 
L 410.477852 142.890945 
L 411.252521 143.403881 
L 412.663705 141.254472 
L 413.555555 143.980553 
L 413.950236 140.494688 
L 414.310723 141.830187 
L 414.791705 142.495161 
L 415.237568 140.172782 
L 415.643813 141.734087 
L 416.037722 142.875445 
L 416.40189 142.54734 
L 416.869897 141.787364 
L 417.590038 140.947585 
L 417.961509 145.122892 
L 419.668149 141.811206 
L 420.012473 141.051725 
L 420.383444 141.886493 
L 421.057061 144.086233 
L 421.431592 142.298799 
L 422.211832 144.33468 
L 422.568102 143.807543 
L 423.650362 140.475826 
L 424.443018 143.612845 
L 424.829901 142.702452 
L 426.704488 142.534795 
L 428.022275 143.208086 
L 428.447341 142.536747 
L 428.871681 143.64887 
L 429.34764 143.127128 
L 429.739814 144.251513 
L 430.521202 144.639426 
L 430.917141 141.568891 
L 431.30207 142.976526 
L 431.75967 142.259165 
L 432.614544 142.313934 
L 433.009275 143.141651 
L 433.83765 140.489612 
L 434.242589 141.12156 
L 435.125444 142.305359 
L 436.480849 140.697059 
L 437.364858 143.112194 
L 438.147968 142.36896 
L 438.54879 141.620653 
L 438.898545 143.752011 
L 439.659274 142.295682 
L 440.96891 143.03398 
L 441.327388 141.427972 
L 441.683165 143.930331 
L 442.058945 142.49794 
L 444.448147 142.207468 
L 445.18485 140.668285 
L 445.590105 143.140229 
L 445.978835 140.194607 
L 448.052772 141.542102 
L 448.444535 143.252371 
L 448.817564 142.087983 
L 449.210811 140.714652 
L 449.5648 142.724769 
L 449.957036 143.831609 
L 450.334096 143.115758 
L 450.705978 141.036097 
L 451.489573 141.324147 
L 451.797885 145.280746 
L 452.415038 141.497539 
L 454.095547 144.227296 
L 454.86715 140.937136 
L 455.194602 141.515887 
L 455.51494 144.299241 
L 456.280999 142.344119 
L 457.542732 145.137928 
L 457.951587 145.510431 
L 458.395716 144.687248 
L 459.624885 142.592359 
L 460.052643 142.857777 
L 460.482076 143.473058 
L 461.283238 140.546419 
L 461.674523 142.087516 
L 462.078536 140.341806 
L 462.513084 142.587818 
L 462.931753 142.620322 
L 463.348647 140.81522 
L 463.757989 141.94768 
L 465.46781 143.26042 
L 465.861979 141.358532 
L 466.731101 141.752363 
L 467.172384 141.737508 
L 467.903891 144.132997 
L 468.284206 142.680573 
L 469.114767 141.641609 
L 469.48986 143.120185 
L 470.381732 142.608592 
L 473.433218 143.221928 
L 473.900249 143.822014 
L 474.56027 141.263553 
L 474.942813 142.439398 
L 475.30685 142.081417 
L 475.674669 143.092686 
L 476.091842 143.5972 
L 476.40004 139.714091 
L 477.062407 141.239128 
L 477.440429 143.138189 
L 477.830277 141.189663 
L 478.625004 140.183845 
L 480.532002 144.32452 
L 482.55008 142.064996 
L 482.929091 144.085311 
L 483.784179 143.337773 
L 484.725373 143.445914 
L 485.070048 141.44029 
L 485.411674 142.254554 
L 485.818754 143.261414 
L 486.240128 141.658601 
L 486.646405 142.780728 
L 487.035756 141.622698 
L 487.435772 141.941577 
L 487.910912 142.788145 
L 488.368367 142.156922 
L 489.653644 141.779198 
L 490.950037 142.771088 
L 491.339987 141.717267 
L 491.728614 142.876309 
L 492.551278 143.797324 
L 493.797654 141.562301 
L 494.221284 142.395323 
L 494.628086 144.415737 
L 495.384589 144.177213 
L 496.139201 143.717795 
L 496.503131 145.205881 
L 496.895752 143.232842 
L 497.321346 143.45468 
L 498.562985 140.628795 
L 499.374235 141.91434 
L 499.804121 141.184993 
L 501.054195 143.513256 
L 502.389448 142.57768 
L 502.742085 144.452395 
L 503.477401 144.311049 
L 505.128523 142.857062 
L 507.126506 143.853343 
L 507.982188 141.419081 
L 508.349371 143.442653 
L 508.753137 144.78897 
L 509.121675 143.17339 
L 510.284 141.88402 
L 510.681106 142.323889 
L 511.015872 139.648955 
L 511.346767 142.413124 
L 511.710073 141.416032 
L 512.526888 141.222135 
L 512.848459 144.188477 
L 513.586189 143.833418 
L 514.809418 139.93846 
L 515.64894 141.174392 
L 516.308895 144.316602 
L 516.664086 142.350758 
L 517.440258 142.135835 
L 517.873619 143.071954 
L 519.369654 139.66248 
L 520.883702 142.287686 
L 521.68071 141.060847 
L 522.043397 143.205802 
L 522.390732 142.021857 
L 523.611968 140.018 
L 524.037192 140.122193 
L 524.754357 142.682501 
L 525.126181 142.521059 
L 525.491754 140.712762 
L 525.867321 141.221101 
L 527.495173 142.447485 
L 528.796486 141.382755 
L 529.174183 141.83132 
L 529.580102 141.944877 
L 530.671569 144.476266 
L 531.816551 141.673278 
L 532.587821 145.216148 
L 532.963838 143.960674 
L 534.981343 141.217164 
L 535.376019 145.000584 
L 535.7389 140.87534 
L 537.231637 142.373439 
L 537.94191 140.767886 
L 538.296244 142.81318 
L 538.400355 142.269767 
" clip-path="url(#pfbe3556516)" style="fill: none; stroke: #377eb8; stroke-width: 2; stroke-linecap: square"/>
   </g>
   <g id="patch_3">
    <path d="M 51.207813 241.599141 
L 51.207813 7.2 
" style="fill: none; stroke: #7f7f7f; stroke-width: 1.8; stroke-linejoin: miter; stroke-linecap: square"/>
   </g>
   <g id="patch_4">
    <path d="M 51.207813 241.599141 
L 561.6 241.599141 
" style="fill: none; stroke: #7f7f7f; stroke-width: 1.8; stroke-linejoin: miter; stroke-linecap: square"/>
   </g>
   <g id="legend_1">
    <g id="line2d_31">
     <path d="M 499.584375 20.298438 
L 509.584375 20.298438 
L 519.584375 20.298438 
" style="fill: none; stroke: #e41a1c; stroke-width: 2; stroke-linecap: square"/>
    </g>
    <g id="text_16">
     <!-- err 2 -->
     <g style="fill: #7f7f7f" transform="translate(527.584375 23.798438) scale(0.1 -0.1)">
      <defs>
       <path id="DejaVuSans-55" d="M 2631 2963 
Q 2534 3019 2420 3045 
Q 2306 3072 2169 3072 
Q 1681 3072 1420 2755 
Q 1159 2438 1159 1844 
L 1159 0 
L 581 0 
L 581 3500 
L 1159 3500 
L 1159 2956 
Q 1341 3275 1631 3429 
Q 1922 3584 2338 3584 
Q 2397 3584 2469 3576 
Q 2541 3569 2628 3553 
L 2631 2963 
z
" transform="scale(0.015625)"/>
      </defs>
      <use xlink:href="#DejaVuSans-48"/>
      <use xlink:href="#DejaVuSans-55" transform="translate(61.53125 0)"/>
      <use xlink:href="#DejaVuSans-55" transform="translate(100.890625 0)"/>
      <use xlink:href="#DejaVuSans-3" transform="translate(142 0)"/>
      <use xlink:href="#DejaVuSans-15" transform="translate(173.78125 0)"/>
     </g>
    </g>
    <g id="line2d_32">
     <path d="M 499.584375 35.299219 
L 509.584375 35.299219 
L 519.584375 35.299219 
" style="fill: none; stroke: #377eb8; stroke-width: 2; stroke-linecap: square"/>
    </g>
    <g id="text_17">
     <!-- pid 2 -->
     <g style="fill: #7f7f7f" transform="translate(527.584375 38.799219) scale(0.1 -0.1)">
      <defs>
       <path id="DejaVuSans-53" d="M 1159 525 
L 1159 -1331 
L 581 -1331 
L 581 3500 
L 1159 3500 
L 1159 2969 
Q 1341 3281 1617 3432 
Q 1894 3584 2278 3584 
Q 2916 3584 3314 3078 
Q 3713 2572 3713 1747 
Q 3713 922 3314 415 
Q 2916 -91 2278 -91 
Q 1894 -91 1617 61 
Q 1341 213 1159 525 
z
M 3116 1747 
Q 3116 2381 2855 2742 
Q 2594 3103 2138 3103 
Q 1681 3103 1420 2742 
Q 1159 2381 1159 1747 
Q 1159 1113 1420 752 
Q 1681 391 2138 391 
Q 2594 391 2855 752 
Q 3116 1113 3116 1747 
z
" transform="scale(0.015625)"/>
       <path id="DejaVuSans-47" d="M 2906 2969 
L 2906 4863 
L 3481 4863 
L 3481 0 
L 2906 0 
L 2906 525 
Q 2725 213 2448 61 
Q 2172 -91 1784 -91 
Q 1150 -91 751 415 
Q 353 922 353 1747 
Q 353 2572 751 3078 
Q 1150 3584 1784 3584 
Q 2172 3584 2448 3432 
Q 2725 3281 2906 2969 
z
M 947 1747 
Q 947 1113 1208 752 
Q 1469 391 1925 391 
Q 2381 391 2643 752 
Q 2906 1113 2906 1747 
Q 2906 2381 2643 2742 
Q 2381 3103 1925 3103 
Q 1469 3103 1208 2742 
Q 947 2381 947 1747 
z
" transform="scale(0.015625)"/>
      </defs>
      <use xlink:href="#DejaVuSans-53"/>
      <use xlink:href="#DejaVuSans-4c" transform="translate(63.484375 0)"/>
      <use xlink:href="#DejaVuSans-47" transform="translate(91.265625 0)"/>
      <use xlink:href="#DejaVuSans-3" transform="translate(154.75 0)"/>
      <use xlink:href="#DejaVuSans-15" transform="translate(186.53125 0)"/>
     </g>
    </g>
   </g>
  </g>
 </g>
 <defs>
  <clipPath id="pfbe3556516">
   <rect x="51.207813" y="7.2" width="510.392187" height="234.399141"/>
  </clipPath>
 </defs>
</svg>
