<?xml version="1.0" encoding="utf-8" standalone="no"?>
<!DOCTYPE svg PUBLIC "-//W3C//DTD SVG 1.1//EN"
  "http://www.w3.org/Graphics/SVG/1.1/DTD/svg11.dtd">
<svg xmlns:xlink="http://www.w3.org/1999/xlink" width="568.8pt" height="280.8pt" viewBox="0 0 568.8 280.8" xmlns="http://www.w3.org/2000/svg" version="1.1">
 <metadata>
  <rdf:RDF xmlns:dc="http://purl.org/dc/elements/1.1/" xmlns:cc="http://creativecommons.org/ns#" xmlns:rdf="http://www.w3.org/1999/02/22-rdf-syntax-ns#">
   <cc:Work>
    <dc:type rdf:resource="http://purl.org/dc/dcmitype/StillImage"/>
    <dc:date>2026-07-09T09:45:13.796626</dc:date>
    <dc:format>image/svg+xml</dc:format>
    <dc:creator>
     <cc:Agent>
      <dc:title>Matplotlib v3.11.0, https://matplotlib.org/</dc:title>
     </cc:Agent>
    </dc:creator>
   </cc:Work>
  </rdf:RDF>
 </metadata>
 <defs>
  <style type="text/css">*{stroke-linejoin: round; stroke-linecap: butt}</style>
 </defs>
 <g id="figure_1">
  <g id="patch_1">
   <path d="M 0 280.8 
L 568.8 280.8 
L 568.8 0 
L 0 0 
L 0 280.8 
z
" style="fill: none"/>
  </g>
  <g id="axes_1">
   <g id="patch_2">
    <path d="M 30.103125 241.599141 
L 561.6 241.599141 
L 561.6 7.2 
L 30.103125 7.2 
L 30.103125 241.599141 
z
" style="fill: none"/>
   </g>
   <g id="matplotlib.axis_1">
    <g id="xtick_1">
     <g id="line2d_1">
      <path d="M 54.262074 241.599141 
L 54.262074 7.2 
" clip-path="url(#pcabffda58a)" style="fill: none; stroke-dasharray: 2.96,1.28; stroke-dashoffset: 0; stroke: #7f7f7f; stroke-opacity: 0.6; stroke-width: 0.8"/>
     </g>
     <g id="line2d_2">
      <defs>
       <path id="m45f04be7c2" d="M 0 0 
L 0 3.5 
" style="stroke: #7f7f7f; stroke-width: 1.8"/>
      </defs>
      <g>
       <use xlink:href="#m45f04be7c2" x="54.262074" y="241.599141" style="fill: #7f7f7f; stroke: #7f7f7f; stroke-width: 1.8"/>
      </g>
     </g>
     <g id="text_1">
      <!-- 0 -->
      <g style="fill: #7f7f7f" transform="translate(51.080824 256.196797) scale(0.1 -0.1)">
       <defs>
        <path id="DejaVuSans-13" d="M 2034 4250 
Q 1547 4250 1301 3770 
Q 1056 3291 1056 2328 
Q 1056 1369 1301 889 
Q 1547 409 2034 409 
Q 2525 409 2770 889 
Q 3016 1369 3016 2328 
Q 3016 3291 2770 3770 
Q 2525 4250 2034 4250 
z
M 2034 4750 
Q 2819 4750 3233 4129 
Q 3647 3509 3647 2328 
Q 3647 1150 3233 529 
Q 2819 -91 2034 -91 
Q 1250 -91 836 529 
Q 422 1150 422 2328 
Q 422 3509 836 4129 
Q 1250 4750 2034 4750 
z
" transform="scale(0.015625)"/>
       </defs>
       <use xlink:href="#DejaVuSans-13"/>
      </g>
     </g>
    </g>
    <g id="xtick_2">
     <g id="line2d_3">
      <path d="M 150.897869 241.599141 
L 150.897869 7.2 
" clip-path="url(#pcabffda58a)" style="fill: none; stroke-dasharray: 2.96,1.28; stroke-dashoffset: 0; stroke: #7f7f7f; stroke-opacity: 0.6; stroke-width: 0.8"/>
     </g>
     <g id="line2d_4">
      <g>
       <use xlink:href="#m45f04be7c2" x="150.897869" y="241.599141" style="fill: #7f7f7f; stroke: #7f7f7f; stroke-width: 1.8"/>
      </g>
     </g>
     <g id="text_2">
      <!-- 20 -->
      <g style="fill: #7f7f7f" transform="translate(144.535369 256.196797) scale(0.1 -0.1)">
       <defs>
        <path id="DejaVuSans-15" d="M 1228 531 
L 3431 531 
L 3431 0 
L 469 0 
L 469 531 
Q 828 903 1448 1529 
Q 2069 2156 2228 2338 
Q 2531 2678 2651 2914 
Q 2772 3150 2772 3378 
Q 2772 3750 2511 3984 
Q 2250 4219 1831 4219 
Q 1534 4219 1204 4116 
Q 875 4013 500 3803 
L 500 4441 
Q 881 4594 1212 4672 
Q 1544 4750 1819 4750 
Q 2544 4750 2975 4387 
Q 3406 4025 3406 3419 
Q 3406 3131 3298 2873 
Q 3191 2616 2906 2266 
Q 2828 2175 2409 1742 
Q 1991 1309 1228 531 
z
" transform="scale(0.015625)"/>
       </defs>
       <use xlink:href="#DejaVuSans-15"/>
       <use xlink:href="#DejaVuSans-13" transform="translate(63.625 0)"/>
      </g>
     </g>
    </g>
    <g id="xtick_3">
     <g id="line2d_5">
      <path d="M 247.533665 241.599141 
L 247.533665 7.2 
" clip-path="url(#pcabffda58a)" style="fill: none; stroke-dasharray: 2.96,1.28; stroke-dashoffset: 0; stroke: #7f7f7f; stroke-opacity: 0.6; stroke-width: 0.8"/>
     </g>
     <g id="line2d_6">
      <g>
       <use xlink:href="#m45f04be7c2" x="247.533665" y="241.599141" style="fill: #7f7f7f; stroke: #7f7f7f; stroke-width: 1.8"/>
      </g>
     </g>
     <g id="text_3">
      <!-- 40 -->
      <g style="fill: #7f7f7f" transform="translate(241.171165 256.196797) scale(0.1 -0.1)">
       <defs>
        <path id="DejaVuSans-17" d="M 2419 4116 
L 825 1625 
L 2419 1625 
L 2419 4116 
z
M 2253 4666 
L 3047 4666 
L 3047 1625 
L 3713 1625 
L 3713 1100 
L 3047 1100 
L 3047 0 
L 2419 0 
L 2419 1100 
L 313 1100 
L 313 1709 
L 2253 4666 
z
" transform="scale(0.015625)"/>
       </defs>
       <use xlink:href="#DejaVuSans-17"/>
       <use xlink:href="#DejaVuSans-13" transform="translate(63.625 0)"/>
      </g>
     </g>
    </g>
    <g id="xtick_4">
     <g id="line2d_7">
      <path d="M 344.16946 241.599141 
L 344.16946 7.2 
" clip-path="url(#pcabffda58a)" style="fill: none; stroke-dasharray: 2.96,1.28; stroke-dashoffset: 0; stroke: #7f7f7f; stroke-opacity: 0.6; stroke-width: 0.8"/>
     </g>
     <g id="line2d_8">
      <g>
       <use xlink:href="#m45f04be7c2" x="344.16946" y="241.599141" style="fill: #7f7f7f; stroke: #7f7f7f; stroke-width: 1.8"/>
      </g>
     </g>
     <g id="text_4">
      <!-- 60 -->
      <g style="fill: #7f7f7f" transform="translate(337.80696 256.196797) scale(0.1 -0.1)">
       <defs>
        <path id="DejaVuSans-19" d="M 2113 2584 
Q 1688 2584 1439 2293 
Q 1191 2003 1191 1497 
Q 1191 994 1439 701 
Q 1688 409 2113 409 
Q 2538 409 2786 701 
Q 3034 994 3034 1497 
Q 3034 2003 2786 2293 
Q 2538 2584 2113 2584 
z
M 3366 4563 
L 3366 3988 
Q 3128 4100 2886 4159 
Q 2644 4219 2406 4219 
Q 1781 4219 1451 3797 
Q 1122 3375 1075 2522 
Q 1259 2794 1537 2939 
Q 1816 3084 2150 3084 
Q 2853 3084 3261 2657 
Q 3669 2231 3669 1497 
Q 3669 778 3244 343 
Q 2819 -91 2113 -91 
Q 1303 -91 875 529 
Q 447 1150 447 2328 
Q 447 3434 972 4092 
Q 1497 4750 2381 4750 
Q 2619 4750 2861 4703 
Q 3103 4656 3366 4563 
z
" transform="scale(0.015625)"/>
       </defs>
       <use xlink:href="#DejaVuSans-19"/>
       <use xlink:href="#DejaVuSans-13" transform="translate(63.625 0)"/>
      </g>
     </g>
    </g>
    <g id="xtick_5">
     <g id="line2d_9">
      <path d="M 440.805256 241.599141 
L 440.805256 7.2 
" clip-path="url(#pcabffda58a)" style="fill: none; stroke-dasharray: 2.96,1.28; stroke-dashoffset: 0; stroke: #7f7f7f; stroke-opacity: 0.6; stroke-width: 0.8"/>
     </g>
     <g id="line2d_10">
      <g>
       <use xlink:href="#m45f04be7c2" x="440.805256" y="241.599141" style="fill: #7f7f7f; stroke: #7f7f7f; stroke-width: 1.8"/>
      </g>
     </g>
     <g id="text_5">
      <!-- 80 -->
      <g style="fill: #7f7f7f" transform="translate(434.442756 256.196797) scale(0.1 -0.1)">
       <defs>
        <path id="DejaVuSans-1b" d="M 2034 2216 
Q 1584 2216 1326 1975 
Q 1069 1734 1069 1313 
Q 1069 891 1326 650 
Q 1584 409 2034 409 
Q 2484 409 2743 651 
Q 3003 894 3003 1313 
Q 3003 1734 2745 1975 
Q 2488 2216 2034 2216 
z
M 1403 2484 
Q 997 2584 770 2862 
Q 544 3141 544 3541 
Q 544 4100 942 4425 
Q 1341 4750 2034 4750 
Q 2731 4750 3128 4425 
Q 3525 4100 3525 3541 
Q 3525 3141 3298 2862 
Q 3072 2584 2669 2484 
Q 3125 2378 3379 2068 
Q 3634 1759 3634 1313 
Q 3634 634 3220 271 
Q 2806 -91 2034 -91 
Q 1263 -91 848 271 
Q 434 634 434 1313 
Q 434 1759 690 2068 
Q 947 2378 1403 2484 
z
M 1172 3481 
Q 1172 3119 1398 2916 
Q 1625 2713 2034 2713 
Q 2441 2713 2670 2916 
Q 2900 3119 2900 3481 
Q 2900 3844 2670 4047 
Q 2441 4250 2034 4250 
Q 1625 4250 1398 4047 
Q 1172 3844 1172 3481 
z
" transform="scale(0.015625)"/>
       </defs>
       <use xlink:href="#DejaVuSans-1b"/>
       <use xlink:href="#DejaVuSans-13" transform="translate(63.625 0)"/>
      </g>
     </g>
    </g>
    <g id="xtick_6">
     <g id="line2d_11">
      <path d="M 537.441051 241.599141 
L 537.441051 7.2 
" clip-path="url(#pcabffda58a)" style="fill: none; stroke-dasharray: 2.96,1.28; stroke-dashoffset: 0; stroke: #7f7f7f; stroke-opacity: 0.6; stroke-width: 0.8"/>
     </g>
     <g id="line2d_12">
      <g>
       <use xlink:href="#m45f04be7c2" x="537.441051" y="241.599141" style="fill: #7f7f7f; stroke: #7f7f7f; stroke-width: 1.8"/>
      </g>
     </g>
     <g id="text_6">
      <!-- 100 -->
      <g style="fill: #7f7f7f" transform="translate(527.897301 256.196797) scale(0.1 -0.1)">
       <defs>
        <path id="DejaVuSans-14" d="M 794 531 
L 1825 531 
L 1825 4091 
L 703 3866 
L 703 4441 
L 1819 4666 
L 2450 4666 
L 2450 531 
L 3481 531 
L 3481 0 
L 794 0 
L 794 531 
z
" transform="scale(0.015625)"/>
       </defs>
       <use xlink:href="#DejaVuSans-14"/>
       <use xlink:href="#DejaVuSans-13" transform="translate(63.625 0)"/>
       <use xlink:href="#DejaVuSans-13" transform="translate(127.25 0)"/>
      </g>
     </g>
    </g>
    <g id="text_7">
     <!-- time [s] -->
     <g style="fill: #7f7f7f" transform="translate(274.521016 270.957422) scale(0.11 -0.11)">
      <defs>
       <path id="DejaVuSans-57" d="M 1172 4494 
L 1172 3500 
L 2356 3500 
L 2356 3053 
L 1172 3053 
L 1172 1153 
Q 1172 725 1289 603 
Q 1406 481 1766 481 
L 2356 481 
L 2356 0 
L 1766 0 
Q 1100 0 847 248 
Q 594 497 594 1153 
L 594 3053 
L 172 3053 
L 172 3500 
L 594 3500 
L 594 4494 
L 1172 4494 
z
" transform="scale(0.015625)"/>
       <path id="DejaVuSans-4c" d="M 603 3500 
L 1178 3500 
L 1178 0 
L 603 0 
L 603 3500 
z
M 603 4863 
L 1178 4863 
L 1178 4134 
L 603 4134 
L 603 4863 
z
" transform="scale(0.015625)"/>
       <path id="DejaVuSans-50" d="M 3328 2828 
Q 3544 3216 3844 3400 
Q 4144 3584 4550 3584 
Q 5097 3584 5394 3201 
Q 5691 2819 5691 2113 
L 5691 0 
L 5113 0 
L 5113 2094 
Q 5113 2597 4934 2840 
Q 4756 3084 4391 3084 
Q 3944 3084 3684 2787 
Q 3425 2491 3425 1978 
L 3425 0 
L 2847 0 
L 2847 2094 
Q 2847 2600 2669 2842 
Q 2491 3084 2119 3084 
Q 1678 3084 1418 2786 
Q 1159 2488 1159 1978 
L 1159 0 
L 581 0 
L 581 3500 
L 1159 3500 
L 1159 2956 
Q 1356 3278 1631 3431 
Q 1906 3584 2284 3584 
Q 2666 3584 2933 3390 
Q 3200 3197 3328 2828 
z
" transform="scale(0.015625)"/>
       <path id="DejaVuSans-48" d="M 3597 1894 
L 3597 1613 
L 953 1613 
Q 991 1019 1311 708 
Q 1631 397 2203 397 
Q 2534 397 2845 478 
Q 3156 559 3463 722 
L 3463 178 
Q 3153 47 2828 -22 
Q 2503 -91 2169 -91 
Q 1331 -91 842 396 
Q 353 884 353 1716 
Q 353 2575 817 3079 
Q 1281 3584 2069 3584 
Q 2775 3584 3186 3129 
Q 3597 2675 3597 1894 
z
M 3022 2063 
Q 3016 2534 2758 2815 
Q 2500 3097 2075 3097 
Q 1594 3097 1305 2825 
Q 1016 2553 972 2059 
L 3022 2063 
z
" transform="scale(0.015625)"/>
       <path id="DejaVuSans-3" transform="scale(0.015625)"/>
       <path id="DejaVuSans-3e" d="M 550 4863 
L 1875 4863 
L 1875 4416 
L 1125 4416 
L 1125 -397 
L 1875 -397 
L 1875 -844 
L 550 -844 
L 550 4863 
z
" transform="scale(0.015625)"/>
       <path id="DejaVuSans-56" d="M 2834 3397 
L 2834 2853 
Q 2591 2978 2328 3040 
Q 2066 3103 1784 3103 
Q 1356 3103 1142 2972 
Q 928 2841 928 2578 
Q 928 2378 1081 2264 
Q 1234 2150 1697 2047 
L 1894 2003 
Q 2506 1872 2764 1633 
Q 3022 1394 3022 966 
Q 3022 478 2636 193 
Q 2250 -91 1575 -91 
Q 1294 -91 989 -36 
Q 684 19 347 128 
L 347 722 
Q 666 556 975 473 
Q 1284 391 1588 391 
Q 1994 391 2212 530 
Q 2431 669 2431 922 
Q 2431 1156 2273 1281 
Q 2116 1406 1581 1522 
L 1381 1569 
Q 847 1681 609 1914 
Q 372 2147 372 2553 
Q 372 3047 722 3315 
Q 1072 3584 1716 3584 
Q 2034 3584 2315 3537 
Q 2597 3491 2834 3397 
z
" transform="scale(0.015625)"/>
       <path id="DejaVuSans-40" d="M 1947 4863 
L 1947 -844 
L 622 -844 
L 622 -397 
L 1369 -397 
L 1369 4416 
L 622 4416 
L 622 4863 
L 1947 4863 
z
" transform="scale(0.015625)"/>
      </defs>
      <use xlink:href="#DejaVuSans-57"/>
      <use xlink:href="#DejaVuSans-4c" transform="translate(39.203125 0)"/>
      <use xlink:href="#DejaVuSans-50" transform="translate(66.984375 0)"/>
      <use xlink:href="#DejaVuSans-48" transform="translate(164.390625 0)"/>
      <use xlink:href="#DejaVuSans-3" transform="translate(225.921875 0)"/>
      <use xlink:href="#DejaVuSans-3e" transform="translate(257.703125 0)"/>
      <use xlink:href="#DejaVuSans-56" transform="translate(296.71875 0)"/>
      <use xlink:href="#DejaVuSans-40" transform="translate(348.8125 0)"/>
     </g>
    </g>
   </g>
   <g id="matplotlib.axis_2">
    <g id="ytick_1">
     <g id="line2d_13">
      <path d="M 30.103125 217.023737 
L 561.6 217.023737 
" clip-path="url(#pcabffda58a)" style="fill: none; stroke-dasharray: 2.96,1.28; stroke-dashoffset: 0; stroke: #7f7f7f; stroke-opacity: 0.6; stroke-width: 0.8"/>
     </g>
     <g id="line2d_14">
      <defs>
       <path id="m34d1cc6ce8" d="M 0 0 
L -3.5 0 
" style="stroke: #7f7f7f; stroke-width: 1.8"/>
      </defs>
      <g>
       <use xlink:href="#m34d1cc6ce8" x="30.103125" y="217.023737" style="fill: #7f7f7f; stroke: #7f7f7f; stroke-width: 1.8"/>
      </g>
     </g>
     <g id="text_8">
      <!-- 0.0 -->
      <g style="fill: #7f7f7f" transform="translate(7.2 220.822565) scale(0.1 -0.1)">
       <defs>
        <path id="DejaVuSans-11" d="M 684 794 
L 1344 794 
L 1344 0 
L 684 0 
L 684 794 
z
" transform="scale(0.015625)"/>
       </defs>
       <use xlink:href="#DejaVuSans-13"/>
       <use xlink:href="#DejaVuSans-11" transform="translate(63.625 0)"/>
       <use xlink:href="#DejaVuSans-13" transform="translate(95.40625 0)"/>
      </g>
     </g>
    </g>
    <g id="ytick_2">
     <g id="line2d_15">
      <path d="M 30.103125 179.945699 
L 561.6 179.945699 
" clip-path="url(#pcabffda58a)" style="fill: none; stroke-dasharray: 2.96,1.28; stroke-dashoffset: 0; stroke: #7f7f7f; stroke-opacity: 0.6; stroke-width: 0.8"/>
     </g>
     <g id="line2d_16">
      <g>
       <use xlink:href="#m34d1cc6ce8" x="30.103125" y="179.945699" style="fill: #7f7f7f; stroke: #7f7f7f; stroke-width: 1.8"/>
      </g>
     </g>
     <g id="text_9">
      <!-- 0.2 -->
      <g style="fill: #7f7f7f" transform="translate(7.2 183.744527) scale(0.1 -0.1)">
       <use xlink:href="#DejaVuSans-13"/>
       <use xlink:href="#DejaVuSans-11" transform="translate(63.625 0)"/>
       <use xlink:href="#DejaVuSans-15" transform="translate(95.40625 0)"/>
      </g>
     </g>
    </g>
    <g id="ytick_3">
     <g id="line2d_17">
      <path d="M 30.103125 142.867662 
L 561.6 142.867662 
" clip-path="url(#pcabffda58a)" style="fill: none; stroke-dasharray: 2.96,1.28; stroke-dashoffset: 0; stroke: #7f7f7f; stroke-opacity: 0.6; stroke-width: 0.8"/>
     </g>
     <g id="line2d_18">
      <g>
       <use xlink:href="#m34d1cc6ce8" x="30.103125" y="142.867662" style="fill: #7f7f7f; stroke: #7f7f7f; stroke-width: 1.8"/>
      </g>
     </g>
     <g id="text_10">
      <!-- 0.4 -->
      <g style="fill: #7f7f7f" transform="translate(7.2 146.66649) scale(0.1 -0.1)">
       <use xlink:href="#DejaVuSans-13"/>
       <use xlink:href="#DejaVuSans-11" transform="translate(63.625 0)"/>
       <use xlink:href="#DejaVuSans-17" transform="translate(95.40625 0)"/>
      </g>
     </g>
    </g>
    <g id="ytick_4">
     <g id="line2d_19">
      <path d="M 30.103125 105.789624 
L 561.6 105.789624 
" clip-path="url(#pcabffda58a)" style="fill: none; stroke-dasharray: 2.96,1.28; stroke-dashoffset: 0; stroke: #7f7f7f; stroke-opacity: 0.6; stroke-width: 0.8"/>
     </g>
     <g id="line2d_20">
      <g>
       <use xlink:href="#m34d1cc6ce8" x="30.103125" y="105.789624" style="fill: #7f7f7f; stroke: #7f7f7f; stroke-width: 1.8"/>
      </g>
     </g>
     <g id="text_11">
      <!-- 0.6 -->
      <g style="fill: #7f7f7f" transform="translate(7.2 109.588452) scale(0.1 -0.1)">
       <use xlink:href="#DejaVuSans-13"/>
       <use xlink:href="#DejaVuSans-11" transform="translate(63.625 0)"/>
       <use xlink:href="#DejaVuSans-19" transform="translate(95.40625 0)"/>
      </g>
     </g>
    </g>
    <g id="ytick_5">
     <g id="line2d_21">
      <path d="M 30.103125 68.711586 
L 561.6 68.711586 
" clip-path="url(#pcabffda58a)" style="fill: none; stroke-dasharray: 2.96,1.28; stroke-dashoffset: 0; stroke: #7f7f7f; stroke-opacity: 0.6; stroke-width: 0.8"/>
     </g>
     <g id="line2d_22">
      <g>
       <use xlink:href="#m34d1cc6ce8" x="30.103125" y="68.711586" style="fill: #7f7f7f; stroke: #7f7f7f; stroke-width: 1.8"/>
      </g>
     </g>
     <g id="text_12">
      <!-- 0.8 -->
      <g style="fill: #7f7f7f" transform="translate(7.2 72.510415) scale(0.1 -0.1)">
       <use xlink:href="#DejaVuSans-13"/>
       <use xlink:href="#DejaVuSans-11" transform="translate(63.625 0)"/>
       <use xlink:href="#DejaVuSans-1b" transform="translate(95.40625 0)"/>
      </g>
     </g>
    </g>
    <g id="ytick_6">
     <g id="line2d_23">
      <path d="M 30.103125 31.633549 
L 561.6 31.633549 
" clip-path="url(#pcabffda58a)" style="fill: none; stroke-dasharray: 2.96,1.28; stroke-dashoffset: 0; stroke: #7f7f7f; stroke-opacity: 0.6; stroke-width: 0.8"/>
     </g>
     <g id="line2d_24">
      <g>
       <use xlink:href="#m34d1cc6ce8" x="30.103125" y="31.633549" style="fill: #7f7f7f; stroke: #7f7f7f; stroke-width: 1.8"/>
      </g>
     </g>
     <g id="text_13">
      <!-- 1.0 -->
      <g style="fill: #7f7f7f" transform="translate(7.2 35.432377) scale(0.1 -0.1)">
       <use xlink:href="#DejaVuSans-14"/>
       <use xlink:href="#DejaVuSans-11" transform="translate(63.625 0)"/>
       <use xlink:href="#DejaVuSans-13" transform="translate(95.40625 0)"/>
      </g>
     </g>
    </g>
   </g>
   <g id="line2d_25">
    <path d="M 54.262074 217.023737 
L 150.897862 217.023737 
L 151.81102 31.633549 
L 344.169436 31.633549 
L 344.904382 124.328643 
L 537.441051 124.328643 
L 537.441051 124.328643 
" clip-path="url(#pcabffda58a)" style="fill: none; stroke: #e41a1c; stroke-width: 2; stroke-linecap: square"/>
   </g>
   <g id="line2d_26">
    <path d="M 54.262074 217.023737 
L 54.518204 218.497174 
L 55.044328 216.29568 
L 56.254295 217.959779 
L 57.000215 217.312095 
L 57.453482 217.685686 
L 58.996168 216.64563 
L 60.906667 217.285911 
L 63.01098 216.436912 
L 64.319719 217.024121 
L 64.641699 215.915286 
L 65.037728 217.464452 
L 66.344673 216.640431 
L 67.021546 217.764126 
L 67.707273 217.419793 
L 68.308885 216.749165 
L 68.795479 217.345994 
L 69.247805 217.617282 
L 70.352484 216.682176 
L 71.721272 217.902033 
L 72.77821 216.58604 
L 73.158505 217.099148 
L 75.171768 217.117163 
L 76.45772 216.753666 
L 76.820853 217.867646 
L 77.626925 217.517449 
L 80.186568 216.415085 
L 80.516436 215.6556 
L 80.893454 216.960987 
L 82.084526 217.383795 
L 83.513303 216.105313 
L 84.472914 217.585381 
L 85.994454 215.754167 
L 87.174333 217.026082 
L 87.557085 216.553375 
L 90.007761 216.241272 
L 90.975417 217.403003 
L 91.237635 217.150048 
L 92.533776 216.748839 
L 92.944107 217.724738 
L 93.793245 217.22416 
L 97.835066 216.795044 
L 98.88029 218.285079 
L 99.540289 216.539528 
L 99.942551 217.443582 
L 102.796743 217.120602 
L 103.139544 216.327306 
L 103.468588 217.425473 
L 103.804131 217.18161 
L 105.049529 217.071129 
L 105.780763 216.689932 
L 106.18121 217.370527 
L 108.189259 216.681173 
L 110.3022 218.031136 
L 111.940821 215.695074 
L 112.313372 217.200468 
L 113.133225 216.823004 
L 114.224988 215.861127 
L 114.526338 217.997365 
L 115.082386 217.297681 
L 116.799325 216.098283 
L 118.326469 217.632762 
L 119.692727 216.924589 
L 120.071358 217.484901 
L 120.459868 216.829994 
L 121.053948 216.052459 
L 121.378001 216.430842 
L 123.567574 217.859689 
L 123.95902 216.667918 
L 124.779059 217.177907 
L 125.663835 218.557511 
L 125.887183 216.624346 
L 126.850753 216.952116 
L 127.500679 217.744762 
L 128.287297 217.771557 
L 130.26608 216.687218 
L 131.709268 218.139339 
L 132.893755 216.736196 
L 133.203599 217.044304 
L 133.501098 216.728616 
L 133.81591 216.00289 
L 134.222636 216.977832 
L 135.067363 217.778425 
L 135.468223 218.229143 
L 135.88979 217.077025 
L 136.663724 217.827493 
L 137.839145 216.723952 
L 138.245748 217.007887 
L 139.318135 216.619295 
L 139.791023 216.453441 
L 140.564279 218.345296 
L 140.95493 217.260186 
L 142.457515 217.132977 
L 143.022439 216.432696 
L 143.693563 217.602619 
L 144.042231 216.535774 
L 144.426024 217.128699 
L 145.435817 217.770328 
L 145.722865 217.158019 
L 146.276706 216.100276 
L 146.573225 216.98026 
L 147.505116 218.067045 
L 147.839412 216.374422 
L 148.594984 216.832715 
L 150.082843 217.540903 
L 150.802141 216.977498 
L 150.897993 183.535476 
L 150.897813 230.944634 
L 151.669144 218.226256 
L 152.322506 218.540357 
L 152.982737 215.909214 
L 154.575853 217.551411 
L 155.049663 215.287271 
L 155.572671 215.47776 
L 155.824513 216.663841 
L 156.319332 216.058001 
L 161.873867 202.680159 
L 172.76059 141.734024 
L 175.95077 120.868926 
L 184.89867 71.601737 
L 193.497922 40.014893 
L 196.206108 33.849804 
L 197.79865 30.149331 
L 199.878629 27.586084 
L 201.460477 24.774945 
L 201.935198 24.900354 
L 204.066841 21.646164 
L 207.976104 18.848716 
L 208.390193 19.800292 
L 208.780273 19.159202 
L 213.114913 17.854506 
L 216.540294 18.890775 
L 218.295733 19.05208 
L 219.192577 18.711693 
L 219.727572 20.473183 
L 220.139703 19.111024 
L 220.51674 20.670649 
L 221.766355 20.06428 
L 227.031922 22.529244 
L 227.422429 20.329251 
L 227.812012 22.483277 
L 229.440213 23.968495 
L 229.785799 22.465976 
L 230.126904 24.215711 
L 230.520782 22.932051 
L 232.248471 25.160958 
L 232.777393 24.832343 
L 234.38872 26.970909 
L 234.731407 25.917822 
L 235.485108 26.314909 
L 236.277603 25.754695 
L 237.210532 27.459295 
L 240.66639 28.829588 
L 241.997537 28.865443 
L 242.738371 29.65582 
L 243.231966 29.181997 
L 243.740059 29.043229 
L 245.103516 30.981551 
L 245.521042 29.947891 
L 246.341464 30.399231 
L 247.88544 30.592262 
L 251.365183 31.398833 
L 251.738796 31.185769 
L 252.116013 32.618158 
L 252.899397 32.02593 
L 255.494792 32.996652 
L 256.314791 31.843458 
L 256.781044 32.155507 
L 259.242483 32.858113 
L 260.431185 32.980098 
L 260.844363 33.436392 
L 261.28314 32.514418 
L 264.446915 32.299437 
L 265.189278 33.96428 
L 265.943638 31.84964 
L 266.356798 32.924349 
L 266.761498 33.035981 
L 267.183849 32.098695 
L 267.614996 32.426262 
L 268.471316 33.162711 
L 269.267132 31.83232 
L 269.639737 32.22451 
L 275.203023 33.523365 
L 276.451216 32.060262 
L 277.809248 32.542824 
L 281.268709 31.921782 
L 282.661258 31.898196 
L 287.31954 32.682244 
L 287.724713 31.360529 
L 288.532229 32.054929 
L 290.700466 31.865783 
L 291.887872 33.221794 
L 292.273353 31.615775 
L 292.657412 31.30787 
L 293.052774 32.073834 
L 298.410272 32.298679 
L 300.375578 31.020312 
L 301.681413 32.431944 
L 303.403945 31.322404 
L 304.743233 31.905265 
L 310.44722 31.675989 
L 310.842821 32.123829 
L 311.260627 31.319317 
L 311.681119 30.912693 
L 312.887486 32.288917 
L 314.641455 31.155032 
L 315.938757 31.620267 
L 317.434782 31.56622 
L 317.867406 32.059363 
L 318.291773 31.593941 
L 318.73691 30.668809 
L 319.138957 31.375432 
L 321.832611 31.23929 
L 323.465903 30.835265 
L 324.564282 31.020884 
L 330.956647 30.893226 
L 332.421446 32.580908 
L 333.178128 31.476957 
L 333.578737 31.769254 
L 338.193793 32.066373 
L 338.88822 32.107713 
L 339.266451 31.034863 
L 340.144668 31.526996 
L 343.047692 31.10544 
L 344.166948 33.863726 
L 344.169216 26.225046 
L 344.17385 44.569227 
L 344.904382 31.529989 
L 345.224884 32.586996 
L 345.619417 32.057985 
L 345.984134 30.96624 
L 346.422204 31.150983 
L 346.865415 32.360094 
L 347.288769 31.297891 
L 348.416722 32.054848 
L 348.824704 31.210342 
L 349.265834 31.900912 
L 356.049304 40.436327 
L 361.100628 54.743915 
L 361.461024 54.528567 
L 365.389867 67.19204 
L 369.225705 79.492521 
L 377.250445 102.204072 
L 379.045097 105.629572 
L 381.077611 110.005168 
L 389.983884 124.499197 
L 390.787447 124.246142 
L 392.84151 127.523299 
L 393.618995 127.378971 
L 399.746285 130.027792 
L 400.679137 129.279333 
L 401.513931 130.660145 
L 401.994702 129.950263 
L 402.6905 130.564723 
L 403.123289 131.228498 
L 404.358697 130.383661 
L 405.57943 130.876057 
L 405.944611 131.260458 
L 407.376677 130.097088 
L 408.32025 131.604596 
L 409.346934 130.432656 
L 409.808628 130.890874 
L 412.792636 130.704357 
L 416.425173 130.08017 
L 416.83845 130.560935 
L 417.372836 129.797616 
L 420.549415 128.726953 
L 420.945971 129.833196 
L 421.383056 128.401084 
L 422.352209 128.844088 
L 423.969448 128.092063 
L 424.792108 127.862214 
L 425.594756 127.058797 
L 426.049799 128.023299 
L 426.517562 126.580266 
L 426.956249 127.132819 
L 431.576651 125.629022 
L 432.896951 127.167983 
L 433.741833 125.087855 
L 434.122157 126.552839 
L 436.299707 124.38157 
L 436.689771 125.789158 
L 437.469936 125.394201 
L 439.952647 124.620464 
L 440.371895 123.975922 
L 440.770587 124.779897 
L 444.149735 124.698799 
L 445.43862 124.965424 
L 445.802012 124.753317 
L 446.166384 123.240366 
L 446.533478 124.496865 
L 447.395183 124.712229 
L 448.198656 123.632754 
L 448.667989 124.016464 
L 450.476333 123.904229 
L 451.643029 123.804872 
L 453.126037 123.661269 
L 453.97887 123.942518 
L 454.405477 124.342226 
L 454.837056 122.888175 
L 455.637381 123.603675 
L 457.229556 124.190672 
L 458.491528 123.385511 
L 461.805051 123.930548 
L 462.2132 122.978045 
L 462.637174 123.641801 
L 463.724848 123.590707 
L 466.004685 123.291634 
L 466.427722 124.227295 
L 467.272366 123.76622 
L 467.718033 123.71799 
L 468.116288 122.45749 
L 468.517412 124.380723 
L 469.727048 123.590962 
L 472.426879 123.978515 
L 474.771103 123.856805 
L 475.12577 123.494629 
L 475.491873 125.051318 
L 476.254142 124.184094 
L 477.535339 123.406364 
L 477.949928 124.39067 
L 478.362804 123.897892 
L 479.087505 123.166586 
L 479.496634 124.271035 
L 482.458325 124.084902 
L 482.821893 123.04825 
L 483.182288 124.683637 
L 483.561657 125.155928 
L 483.955081 123.675819 
L 484.773882 124.215975 
L 488.118599 123.869116 
L 489.524549 124.508071 
L 489.907014 123.028891 
L 490.679415 123.605373 
L 492.221482 124.301486 
L 493.902059 124.867959 
L 494.615934 123.993853 
L 495.030644 124.909762 
L 498.36815 124.408696 
L 499.284455 123.804655 
L 499.710471 124.442037 
L 502.166308 124.226743 
L 502.920036 125.122044 
L 503.32353 124.44756 
L 504.5875 124.541721 
L 505.432948 123.632479 
L 506.714358 124.563088 
L 508.614247 124.512549 
L 513.581786 123.847025 
L 514.38507 124.731909 
L 514.836059 124.430814 
L 515.548825 123.120265 
L 516.799873 125.003625 
L 518.899307 123.29317 
L 520.558947 124.823516 
L 521.395243 123.884411 
L 521.798298 124.492019 
L 523.689531 124.624165 
L 528.782277 124.161234 
L 530.055801 124.039815 
L 535.549172 124.520797 
L 537.441051 123.456617 
L 537.441051 123.456617 
" clip-path="url(#pcabffda58a)" style="fill: none; stroke: #377eb8; stroke-width: 2; stroke-linecap: square"/>
   </g>
   <g id="line2d_27">
    <path d="M 54.262074 217.023737 
L 54.401795 218.271561 
L 54.847004 215.887998 
L 55.044328 217.09808 
L 56.613584 216.701235 
L 58.269963 217.888051 
L 58.596455 217.086877 
L 58.996168 216.707562 
L 59.394514 217.280089 
L 60.906667 217.450869 
L 62.678793 216.415273 
L 63.684929 217.695305 
L 64.00734 216.624976 
L 64.641699 216.962004 
L 65.420113 216.643463 
L 65.738952 216.097452 
L 66.041361 217.273193 
L 66.344673 217.510703 
L 66.665509 216.847294 
L 67.382171 217.020125 
L 67.707273 217.963614 
L 68.0105 216.702886 
L 68.308885 216.904445 
L 73.648964 217.060086 
L 74.814118 216.382115 
L 76.023342 217.132519 
L 77.626925 216.932199 
L 79.677834 217.573027 
L 79.933019 215.892447 
L 80.516436 216.744915 
L 82.847877 216.69738 
L 83.191224 217.837909 
L 83.862921 217.146266 
L 84.177946 215.959899 
L 84.472914 216.98559 
L 85.148536 217.286201 
L 85.574888 216.910444 
L 87.174333 217.527158 
L 89.022905 217.010657 
L 90.711729 217.84063 
L 90.975417 215.990888 
L 91.546548 216.491519 
L 92.17599 217.388188 
L 92.533776 217.106566 
L 93.35718 217.207444 
L 95.023598 217.00496 
L 97.835066 216.973606 
L 98.18916 216.257754 
L 98.525342 216.95759 
L 98.88029 217.724042 
L 99.219068 216.612719 
L 99.540289 216.858868 
L 99.942551 217.523529 
L 100.308149 216.712953 
L 105.049529 217.418396 
L 105.419082 216.539833 
L 106.18121 216.966496 
L 106.934511 218.024493 
L 107.196638 216.153549 
L 107.79169 217.066249 
L 109.661284 217.290887 
L 109.996902 216.004935 
L 110.701706 216.982058 
L 113.576069 217.176501 
L 113.931397 216.234038 
L 114.224988 217.790917 
L 114.526338 216.830931 
L 114.80709 218.091819 
L 115.39706 216.80711 
L 116.444656 217.630313 
L 118.668323 216.397338 
L 119.692727 217.334906 
L 120.459868 216.459551 
L 120.761968 218.000317 
L 121.378001 216.497853 
L 121.695858 216.259326 
L 122.566327 215.805013 
L 122.82328 217.554001 
L 123.067447 216.192025 
L 123.95902 216.550181 
L 125.036179 218.564937 
L 125.248339 215.990366 
L 126.20125 216.324823 
L 126.850753 217.662967 
L 127.500679 217.193602 
L 129.162284 216.882539 
L 129.913996 217.68968 
L 130.595912 216.271903 
L 130.906646 216.617559 
L 132.534703 217.534552 
L 132.893755 217.472022 
L 133.203599 216.122653 
L 133.81591 216.940817 
L 141.853562 216.60333 
L 142.185571 215.992748 
L 142.457515 217.685887 
L 143.022439 216.426992 
L 145.126942 217.589815 
L 146.003531 215.977222 
L 146.276706 217.125674 
L 146.874768 217.893033 
L 147.505116 216.779646 
L 147.839412 216.235548 
L 148.594984 216.784937 
L 149.704797 217.472309 
L 150.441558 216.291281 
L 150.820545 216.957534 
L 150.898606 230.344283 
L 150.897862 214.531097 
L 151.669144 217.735573 
L 152.805396 215.323347 
L 152.982737 215.186138 
L 153.164006 216.235747 
L 154.068385 212.853858 
L 154.575853 213.574787 
L 154.812489 213.287361 
L 156.319332 210.689567 
L 156.635682 211.705096 
L 157.257713 211.020934 
L 158.955105 208.575224 
L 160.979206 207.755834 
L 161.34931 206.40241 
L 161.873867 206.58241 
L 162.260038 207.245926 
L 162.609309 206.700795 
L 164.099572 204.999515 
L 164.465068 205.672772 
L 164.825749 205.265682 
L 165.922567 204.40112 
L 166.320045 204.625586 
L 167.189253 202.867869 
L 167.597237 203.164555 
L 170.683051 202.046566 
L 171.466334 200.153203 
L 171.851588 200.7472 
L 174.741538 199.796702 
L 175.091824 200.70937 
L 175.437997 199.563888 
L 177.712883 199.365609 
L 179.01206 198.304855 
L 179.782588 198.973577 
L 181.229751 196.870784 
L 182.477336 197.855218 
L 183.765407 197.525338 
L 184.130673 196.718723 
L 184.493536 197.809128 
L 192.133172 196.265352 
L 192.527393 195.902583 
L 192.916047 196.786246 
L 195.459643 196.635919 
L 197.440094 198.525192 
L 198.564488 196.083898 
L 199.878629 196.521075 
L 201.935198 197.474015 
L 202.761008 195.661685 
L 203.097104 196.610493 
L 204.066841 197.182135 
L 204.561102 196.702597 
L 205.024302 197.294982 
L 205.816926 197.959711 
L 206.213993 197.449514 
L 209.979218 197.671821 
L 210.406739 198.464769 
L 210.796967 197.423557 
L 212.041979 197.601796 
L 221.368858 197.586178 
L 222.657467 198.613685 
L 224.069392 198.029836 
L 225.735555 198.19808 
L 230.126904 198.385341 
L 231.313436 198.826456 
L 232.777393 198.375293 
L 238.516272 198.851435 
L 238.875881 197.983403 
L 239.232723 198.922986 
L 245.103516 198.78187 
L 245.521042 199.470615 
L 245.9204 198.631964 
L 246.341464 198.245498 
L 246.727228 198.792215 
L 247.132166 199.407029 
L 248.387406 198.123715 
L 250.582256 198.683523 
L 250.97482 198.161474 
L 251.365183 199.665221 
L 251.738796 198.804703 
L 252.899397 198.22905 
L 254.576924 199.052693 
L 264.446915 198.879046 
L 264.834037 199.496742 
L 265.189278 197.799323 
L 265.943638 198.248601 
L 266.356798 199.45634 
L 267.183849 198.885031 
L 268.014938 198.925717 
L 269.267132 197.448456 
L 269.639737 198.734511 
L 270.117426 198.063294 
L 274.123931 198.889161 
L 275.60024 197.564482 
L 276.893062 198.807432 
L 277.809248 198.034505 
L 278.235366 198.972769 
L 278.668086 198.14809 
L 279.900977 198.301113 
L 281.268709 198.933044 
L 282.661258 198.441657 
L 283.131452 199.17968 
L 283.562624 198.835955 
L 283.90047 197.626786 
L 284.637982 198.544218 
L 285.528854 198.562394 
L 285.870679 199.598976 
L 286.208933 197.779764 
L 286.562057 197.609072 
L 287.724713 198.79745 
L 288.532229 198.470915 
L 288.933375 197.845059 
L 289.296871 198.806968 
L 291.526222 197.589202 
L 291.887872 198.990521 
L 292.657412 198.522293 
L 293.981454 198.477435 
L 295.491829 198.364554 
L 296.703007 198.368326 
L 298.410272 199.166825 
L 299.603208 198.491461 
L 299.990543 199.007795 
L 300.375578 198.094448 
L 302.933523 198.72037 
L 306.069676 198.433076 
L 307.354519 198.736524 
L 308.143014 197.984512 
L 310.01115 198.971214 
L 310.44722 197.668725 
L 311.260627 198.309612 
L 312.887486 199.065796 
L 314.209018 198.212144 
L 315.068165 197.659921 
L 315.474316 198.412673 
L 325.887669 198.499746 
L 326.247451 197.786864 
L 326.604119 198.596842 
L 331.767061 197.878624 
L 332.096435 199.525878 
L 332.421446 198.537679 
L 333.178128 197.896525 
L 333.578737 198.865814 
L 334.007643 198.28722 
L 335.245628 197.895499 
L 335.683582 198.663846 
L 336.121093 198.249675 
L 336.970388 198.597656 
L 337.377401 199.156292 
L 337.744731 198.837493 
L 338.193793 198.259724 
L 338.5432 199.494221 
L 339.266451 198.911767 
L 341.325285 198.03988 
L 342.271687 198.889016 
L 342.706797 198.400348 
L 343.047692 197.366993 
L 343.384751 198.973727 
L 343.756533 198.207776 
L 343.880444 198.11831 
L 344.16025 198.513729 
L 344.169436 225.530567 
L 344.169883 187.310074 
L 344.904382 198.508774 
L 346.422204 199.543474 
L 358.613326 204.688901 
L 359.441303 204.889707 
L 360.329002 205.912797 
L 360.719003 205.179327 
L 361.100628 204.785157 
L 361.461024 205.185673 
L 361.867534 206.024433 
L 362.431191 205.745013 
L 362.852359 205.408429 
L 363.756881 206.31277 
L 370.368461 207.034819 
L 371.679675 208.133758 
L 373.11813 207.564769 
L 373.574111 208.493047 
L 374.011352 207.76008 
L 374.798648 207.04655 
L 375.173865 209.253593 
L 375.97139 208.443383 
L 377.250445 207.647603 
L 377.668277 208.244781 
L 380.714171 209.342505 
L 381.931264 208.269719 
L 382.403507 208.060383 
L 382.842127 209.265378 
L 383.248495 208.546968 
L 384.3087 208.380297 
L 384.723007 207.944178 
L 385.101198 208.885644 
L 388.692714 208.255965 
L 389.983884 208.380455 
L 391.69161 208.828796 
L 392.065144 207.906169 
L 392.429938 208.543871 
L 393.21527 209.118951 
L 393.618995 208.75075 
L 394.130688 208.92184 
L 394.847219 207.811761 
L 395.228106 208.480603 
L 396.235496 208.243551 
L 397.680489 208.233607 
L 399.354187 207.849356 
L 400.679137 208.895368 
L 401.994702 207.821295 
L 402.344728 209.055459 
L 403.123289 208.47105 
L 403.649345 207.988172 
L 405.202347 209.593153 
L 405.57943 207.463858 
L 406.418062 207.946137 
L 408.84599 208.382412 
L 410.769867 208.191077 
L 415.450657 207.999157 
L 417.372836 208.010551 
L 417.74636 207.27756 
L 418.11689 207.508131 
L 419.109883 207.535997 
L 430.024785 207.762085 
L 430.367342 206.638322 
L 431.151762 207.32373 
L 434.554682 207.116025 
L 435.427778 207.990091 
L 435.86136 207.729257 
L 437.065224 208.281904 
L 439.952647 207.234995 
L 440.371895 208.047251 
L 440.770587 207.543141 
L 441.165253 206.784192 
L 441.522752 207.95998 
L 444.149735 207.39869 
L 445.072267 207.609035 
L 445.43862 206.906773 
L 446.166384 207.308969 
L 450.051247 208.055854 
L 450.476333 206.891751 
L 450.874049 207.60404 
L 451.643029 207.954977 
L 453.126037 207.66961 
L 454.837056 207.910446 
L 455.637381 208.033855 
L 456.820924 207.217563 
L 457.229556 207.833076 
L 457.644465 207.022005 
L 462.2132 208.019882 
L 463.365276 206.469456 
L 463.724848 207.202691 
L 464.418667 208.124114 
L 464.812333 207.734169 
L 465.200603 207.262361 
L 465.587111 207.607319 
L 466.004685 208.205127 
L 466.427722 207.8166 
L 466.843822 207.316856 
L 467.272366 208.264339 
L 469.727048 206.983156 
L 471.042782 207.869505 
L 477.096378 207.236358 
L 477.535339 208.44269 
L 478.362804 207.835208 
L 478.726754 208.554196 
L 479.087505 207.411547 
L 480.386166 208.055349 
L 480.848266 208.268112 
L 481.274062 207.016939 
L 482.091398 207.473863 
L 482.458325 206.783178 
L 482.821893 208.542789 
L 483.561657 207.855377 
L 485.288135 207.611642 
L 486.49892 208.017261 
L 487.29906 208.705403 
L 488.605491 207.486306 
L 489.524549 208.418108 
L 489.907014 207.991751 
L 490.679415 208.612562 
L 491.428295 207.065306 
L 492.221482 208.360003 
L 493.034417 207.47925 
L 496.965612 207.874572 
L 499.284455 207.944653 
L 501.10074 207.813949 
L 502.166308 206.659173 
L 503.32353 208.036289 
L 503.767769 207.23106 
L 504.198209 208.850043 
L 504.989524 208.084477 
L 506.714358 207.383607 
L 508.614247 208.458909 
L 509.804547 206.658983 
L 510.152633 208.201765 
L 510.950235 207.582525 
L 512.698878 207.373465 
L 514.38507 207.769044 
L 514.836059 207.537982 
L 515.977525 208.393665 
L 523.689531 207.489005 
L 524.630176 207.532337 
L 525.520584 207.701821 
L 526.352455 208.178125 
L 526.775107 207.01276 
L 527.594736 207.316283 
L 530.055801 208.200639 
L 530.983525 207.625373 
L 531.440951 208.109895 
L 537.441051 207.628719 
L 537.441051 207.628719 
" clip-path="url(#pcabffda58a)" style="fill: none; stroke: #4daf4a; stroke-width: 2; stroke-linecap: square"/>
   </g>
   <g id="patch_3">
    <path d="M 30.103125 241.599141 
L 30.103125 7.2 
" style="fill: none; stroke: #7f7f7f; stroke-width: 1.8; stroke-linejoin: miter; stroke-linecap: square"/>
   </g>
   <g id="patch_4">
    <path d="M 30.103125 241.599141 
L 561.6 241.599141 
" style="fill: none; stroke: #7f7f7f; stroke-width: 1.8; stroke-linejoin: miter; stroke-linecap: square"/>
   </g>
   <g id="legend_1">
    <g id="line2d_28">
     <path d="M 483.814062 20.298438 
L 493.814062 20.298438 
L 503.814062 20.298438 
" style="fill: none; stroke: #e41a1c; stroke-width: 2; stroke-linecap: square"/>
    </g>
    <g id="text_14">
     <!-- setpoint -->
     <g style="fill: #7f7f7f" transform="translate(511.814062 23.798438) scale(0.1 -0.1)">
      <defs>
       <path id="DejaVuSans-53" d="M 1159 525 
L 1159 -1331 
L 581 -1331 
L 581 3500 
L 1159 3500 
L 1159 2969 
Q 1341 3281 1617 3432 
Q 1894 3584 2278 3584 
Q 2916 3584 3314 3078 
Q 3713 2572 3713 1747 
Q 3713 922 3314 415 
Q 2916 -91 2278 -91 
Q 1894 -91 1617 61 
Q 1341 213 1159 525 
z
M 3116 1747 
Q 3116 2381 2855 2742 
Q 2594 3103 2138 3103 
Q 1681 3103 1420 2742 
Q 1159 2381 1159 1747 
Q 1159 1113 1420 752 
Q 1681 391 2138 391 
Q 2594 391 2855 752 
Q 3116 1113 3116 1747 
z
" transform="scale(0.015625)"/>
       <path id="DejaVuSans-52" d="M 1959 3097 
Q 1497 3097 1228 2736 
Q 959 2375 959 1747 
Q 959 1119 1226 758 
Q 1494 397 1959 397 
Q 2419 397 2687 759 
Q 2956 1122 2956 1747 
Q 2956 2369 2687 2733 
Q 2419 3097 1959 3097 
z
M 1959 3584 
Q 2709 3584 3137 3096 
Q 3566 2609 3566 1747 
Q 3566 888 3137 398 
Q 2709 -91 1959 -91 
Q 1206 -91 779 398 
Q 353 888 353 1747 
Q 353 2609 779 3096 
Q 1206 3584 1959 3584 
z
" transform="scale(0.015625)"/>
       <path id="DejaVuSans-51" d="M 3513 2113 
L 3513 0 
L 2938 0 
L 2938 2094 
Q 2938 2591 2744 2837 
Q 2550 3084 2163 3084 
Q 1697 3084 1428 2787 
Q 1159 2491 1159 1978 
L 1159 0 
L 581 0 
L 581 3500 
L 1159 3500 
L 1159 2956 
Q 1366 3272 1645 3428 
Q 1925 3584 2291 3584 
Q 2894 3584 3203 3211 
Q 3513 2838 3513 2113 
z
" transform="scale(0.015625)"/>
      </defs>
      <use xlink:href="#DejaVuSans-56"/>
      <use xlink:href="#DejaVuSans-48" transform="translate(52.09375 0)"/>
      <use xlink:href="#DejaVuSans-57" transform="translate(113.625 0)"/>
      <use xlink:href="#DejaVuSans-53" transform="translate(152.828125 0)"/>
      <use xlink:href="#DejaVuSans-52" transform="translate(216.3125 0)"/>
      <use xlink:href="#DejaVuSans-4c" transform="translate(277.5 0)"/>
      <use xlink:href="#DejaVuSans-51" transform="translate(305.28125 0)"/>
      <use xlink:href="#DejaVuSans-57" transform="translate(368.65625 0)"/>
     </g>
    </g>
    <g id="line2d_29">
     <path d="M 483.814062 35.299219 
L 493.814062 35.299219 
L 503.814062 35.299219 
" style="fill: none; stroke: #377eb8; stroke-width: 2; stroke-linecap: square"/>
    </g>
    <g id="text_15">
     <!-- plant 1 -->
     <g style="fill: #7f7f7f" transform="translate(511.814062 38.799219) scale(0.1 -0.1)">
      <defs>
       <path id="DejaVuSans-4f" d="M 603 4863 
L 1178 4863 
L 1178 0 
L 603 0 
L 603 4863 
z
" transform="scale(0.015625)"/>
       <path id="DejaVuSans-44" d="M 2194 1759 
Q 1497 1759 1228 1600 
Q 959 1441 959 1056 
Q 959 750 1161 570 
Q 1363 391 1709 391 
Q 2188 391 2477 730 
Q 2766 1069 2766 1631 
L 2766 1759 
L 2194 1759 
z
M 3341 1997 
L 3341 0 
L 2766 0 
L 2766 531 
Q 2569 213 2275 61 
Q 1981 -91 1556 -91 
Q 1019 -91 701 211 
Q 384 513 384 1019 
Q 384 1609 779 1909 
Q 1175 2209 1959 2209 
L 2766 2209 
L 2766 2266 
Q 2766 2663 2505 2880 
Q 2244 3097 1772 3097 
Q 1472 3097 1187 3025 
Q 903 2953 641 2809 
L 641 3341 
Q 956 3463 1253 3523 
Q 1550 3584 1831 3584 
Q 2591 3584 2966 3190 
Q 3341 2797 3341 1997 
z
" transform="scale(0.015625)"/>
      </defs>
      <use xlink:href="#DejaVuSans-53"/>
      <use xlink:href="#DejaVuSans-4f" transform="translate(63.484375 0)"/>
      <use xlink:href="#DejaVuSans-44" transform="translate(91.265625 0)"/>
      <use xlink:href="#DejaVuSans-51" transform="translate(152.546875 0)"/>
      <use xlink:href="#DejaVuSans-57" transform="translate(215.921875 0)"/>
      <use xlink:href="#DejaVuSans-3" transform="translate(255.125 0)"/>
      <use xlink:href="#DejaVuSans-14" transform="translate(286.90625 0)"/>
     </g>
    </g>
    <g id="line2d_30">
     <path d="M 483.814062 50.3 
L 493.814062 50.3 
L 503.814062 50.3 
" style="fill: none; stroke: #4daf4a; stroke-width: 2; stroke-linecap: square"/>
    </g>
    <g id="text_16">
     <!-- plant 2 -->
     <g style="fill: #7f7f7f" transform="translate(511.814062 53.8) scale(0.1 -0.1)">
      <use xlink:href="#DejaVuSans-53"/>
      <use xlink:href="#DejaVuSans-4f" transform="translate(63.484375 0)"/>
      <use xlink:href="#DejaVuSans-44" transform="translate(91.265625 0)"/>
      <use xlink:href="#DejaVuSans-51" transform="translate(152.546875 0)"/>
      <use xlink:href="#DejaVuSans-57" transform="translate(215.921875 0)"/>
      <use xlink:href="#DejaVuSans-3" transform="translate(255.125 0)"/>
      <use xlink:href="#DejaVuSans-15" transform="translate(286.90625 0)"/>
     </g>
    </g>
   </g>
  </g>
 </g>
 <defs>
  <clipPath id="pcabffda58a">
   <rect x="30.103125" y="7.2" width="531.496875" height="234.399141"/>
  </clipPath>
 </defs>
</svg>
