<?xml version="1.0" encoding="utf-8" standalone="no"?>
<!DOCTYPE svg PUBLIC "-//W3C//DTD SVG 1.1//EN"
  "http://www.w3.org/Graphics/SVG/1.1/DTD/svg11.dtd">
<svg xmlns:xlink="http://www.w3.org/1999/xlink" width="568.8pt" height="280.8pt" viewBox="0 0 568.8 280.8" xmlns="http://www.w3.org/2000/svg" version="1.1">
 <metadata>
  <rdf:RDF xmlns:dc="http://purl.org/dc/elements/1.1/" xmlns:cc="http://creativecommons.org/ns#" xmlns:rdf="http://www.w3.org/1999/02/22-rdf-syntax-ns#">
   <cc:Work>
    <dc:type rdf:resource="http://purl.org/dc/dcmitype/StillImage"/>
    <dc:date>2026-07-02T19:58:44.151902</dc:date>
    <dc:format>image/svg+xml</dc:format>
    <dc:creator>
     <cc:Agent>
      <dc:title>Matplotlib v3.11.0, https://matplotlib.org/</dc:title>
     </cc:Agent>
    </dc:creator>
   </cc:Work>
  </rdf:RDF>
 </metadata>
 <defs>
  <style type="text/css">*{stroke-linejoin: round; stroke-linecap: butt}</style>
 </defs>
 <g id="figure_1">
  <g id="patch_1">
   <path d="M 0 280.8 
L 568.8 280.8 
L 568.8 0 
L 0 0 
L 0 280.8 
z
" style="fill: none"/>
  </g>
  <g id="axes_1">
   <g id="patch_2">
    <path d="M 30.103125 241.599141 
L 561.6 241.599141 
L 561.6 7.2 
L 30.103125 7.2 
L 30.103125 241.599141 
z
" style="fill: none"/>
   </g>
   <g id="matplotlib.axis_1">
    <g id="xtick_1">
     <g id="line2d_1">
      <path d="M 54.262074 241.599141 
L 54.262074 7.2 
" clip-path="url(#p8b7696e8f7)" style="fill: none; stroke-dasharray: 2.96,1.28; stroke-dashoffset: 0; stroke: #7f7f7f; stroke-opacity: 0.6; stroke-width: 0.8"/>
     </g>
     <g id="line2d_2">
      <defs>
       <path id="m90ff7a7a83" d="M 0 0 
L 0 3.5 
" style="stroke: #7f7f7f; stroke-width: 1.8"/>
      </defs>
      <g>
       <use xlink:href="#m90ff7a7a83" x="54.262074" y="241.599141" style="fill: #7f7f7f; stroke: #7f7f7f; stroke-width: 1.8"/>
      </g>
     </g>
     <g id="text_1">
      <!-- 0 -->
      <g style="fill: #7f7f7f" transform="translate(51.080824 256.196797) scale(0.1 -0.1)">
       <defs>
        <path id="DejaVuSans-13" d="M 2034 4250 
Q 1547 4250 1301 3770 
Q 1056 3291 1056 2328 
Q 1056 1369 1301 889 
Q 1547 409 2034 409 
Q 2525 409 2770 889 
Q 3016 1369 3016 2328 
Q 3016 3291 2770 3770 
Q 2525 4250 2034 4250 
z
M 2034 4750 
Q 2819 4750 3233 4129 
Q 3647 3509 3647 2328 
Q 3647 1150 3233 529 
Q 2819 -91 2034 -91 
Q 1250 -91 836 529 
Q 422 1150 422 2328 
Q 422 3509 836 4129 
Q 1250 4750 2034 4750 
z
" transform="scale(0.015625)"/>
       </defs>
       <use xlink:href="#DejaVuSans-13"/>
      </g>
     </g>
    </g>
    <g id="xtick_2">
     <g id="line2d_3">
      <path d="M 150.897869 241.599141 
L 150.897869 7.2 
" clip-path="url(#p8b7696e8f7)" style="fill: none; stroke-dasharray: 2.96,1.28; stroke-dashoffset: 0; stroke: #7f7f7f; stroke-opacity: 0.6; stroke-width: 0.8"/>
     </g>
     <g id="line2d_4">
      <g>
       <use xlink:href="#m90ff7a7a83" x="150.897869" y="241.599141" style="fill: #7f7f7f; stroke: #7f7f7f; stroke-width: 1.8"/>
      </g>
     </g>
     <g id="text_2">
      <!-- 20 -->
      <g style="fill: #7f7f7f" transform="translate(144.535369 256.196797) scale(0.1 -0.1)">
       <defs>
        <path id="DejaVuSans-15" d="M 1228 531 
L 3431 531 
L 3431 0 
L 469 0 
L 469 531 
Q 828 903 1448 1529 
Q 2069 2156 2228 2338 
Q 2531 2678 2651 2914 
Q 2772 3150 2772 3378 
Q 2772 3750 2511 3984 
Q 2250 4219 1831 4219 
Q 1534 4219 1204 4116 
Q 875 4013 500 3803 
L 500 4441 
Q 881 4594 1212 4672 
Q 1544 4750 1819 4750 
Q 2544 4750 2975 4387 
Q 3406 4025 3406 3419 
Q 3406 3131 3298 2873 
Q 3191 2616 2906 2266 
Q 2828 2175 2409 1742 
Q 1991 1309 1228 531 
z
" transform="scale(0.015625)"/>
       </defs>
       <use xlink:href="#DejaVuSans-15"/>
       <use xlink:href="#DejaVuSans-13" transform="translate(63.625 0)"/>
      </g>
     </g>
    </g>
    <g id="xtick_3">
     <g id="line2d_5">
      <path d="M 247.533665 241.599141 
L 247.533665 7.2 
" clip-path="url(#p8b7696e8f7)" style="fill: none; stroke-dasharray: 2.96,1.28; stroke-dashoffset: 0; stroke: #7f7f7f; stroke-opacity: 0.6; stroke-width: 0.8"/>
     </g>
     <g id="line2d_6">
      <g>
       <use xlink:href="#m90ff7a7a83" x="247.533665" y="241.599141" style="fill: #7f7f7f; stroke: #7f7f7f; stroke-width: 1.8"/>
      </g>
     </g>
     <g id="text_3">
      <!-- 40 -->
      <g style="fill: #7f7f7f" transform="translate(241.171165 256.196797) scale(0.1 -0.1)">
       <defs>
        <path id="DejaVuSans-17" d="M 2419 4116 
L 825 1625 
L 2419 1625 
L 2419 4116 
z
M 2253 4666 
L 3047 4666 
L 3047 1625 
L 3713 1625 
L 3713 1100 
L 3047 1100 
L 3047 0 
L 2419 0 
L 2419 1100 
L 313 1100 
L 313 1709 
L 2253 4666 
z
" transform="scale(0.015625)"/>
       </defs>
       <use xlink:href="#DejaVuSans-17"/>
       <use xlink:href="#DejaVuSans-13" transform="translate(63.625 0)"/>
      </g>
     </g>
    </g>
    <g id="xtick_4">
     <g id="line2d_7">
      <path d="M 344.16946 241.599141 
L 344.16946 7.2 
" clip-path="url(#p8b7696e8f7)" style="fill: none; stroke-dasharray: 2.96,1.28; stroke-dashoffset: 0; stroke: #7f7f7f; stroke-opacity: 0.6; stroke-width: 0.8"/>
     </g>
     <g id="line2d_8">
      <g>
       <use xlink:href="#m90ff7a7a83" x="344.16946" y="241.599141" style="fill: #7f7f7f; stroke: #7f7f7f; stroke-width: 1.8"/>
      </g>
     </g>
     <g id="text_4">
      <!-- 60 -->
      <g style="fill: #7f7f7f" transform="translate(337.80696 256.196797) scale(0.1 -0.1)">
       <defs>
        <path id="DejaVuSans-19" d="M 2113 2584 
Q 1688 2584 1439 2293 
Q 1191 2003 1191 1497 
Q 1191 994 1439 701 
Q 1688 409 2113 409 
Q 2538 409 2786 701 
Q 3034 994 3034 1497 
Q 3034 2003 2786 2293 
Q 2538 2584 2113 2584 
z
M 3366 4563 
L 3366 3988 
Q 3128 4100 2886 4159 
Q 2644 4219 2406 4219 
Q 1781 4219 1451 3797 
Q 1122 3375 1075 2522 
Q 1259 2794 1537 2939 
Q 1816 3084 2150 3084 
Q 2853 3084 3261 2657 
Q 3669 2231 3669 1497 
Q 3669 778 3244 343 
Q 2819 -91 2113 -91 
Q 1303 -91 875 529 
Q 447 1150 447 2328 
Q 447 3434 972 4092 
Q 1497 4750 2381 4750 
Q 2619 4750 2861 4703 
Q 3103 4656 3366 4563 
z
" transform="scale(0.015625)"/>
       </defs>
       <use xlink:href="#DejaVuSans-19"/>
       <use xlink:href="#DejaVuSans-13" transform="translate(63.625 0)"/>
      </g>
     </g>
    </g>
    <g id="xtick_5">
     <g id="line2d_9">
      <path d="M 440.805256 241.599141 
L 440.805256 7.2 
" clip-path="url(#p8b7696e8f7)" style="fill: none; stroke-dasharray: 2.96,1.28; stroke-dashoffset: 0; stroke: #7f7f7f; stroke-opacity: 0.6; stroke-width: 0.8"/>
     </g>
     <g id="line2d_10">
      <g>
       <use xlink:href="#m90ff7a7a83" x="440.805256" y="241.599141" style="fill: #7f7f7f; stroke: #7f7f7f; stroke-width: 1.8"/>
      </g>
     </g>
     <g id="text_5">
      <!-- 80 -->
      <g style="fill: #7f7f7f" transform="translate(434.442756 256.196797) scale(0.1 -0.1)">
       <defs>
        <path id="DejaVuSans-1b" d="M 2034 2216 
Q 1584 2216 1326 1975 
Q 1069 1734 1069 1313 
Q 1069 891 1326 650 
Q 1584 409 2034 409 
Q 2484 409 2743 651 
Q 3003 894 3003 1313 
Q 3003 1734 2745 1975 
Q 2488 2216 2034 2216 
z
M 1403 2484 
Q 997 2584 770 2862 
Q 544 3141 544 3541 
Q 544 4100 942 4425 
Q 1341 4750 2034 4750 
Q 2731 4750 3128 4425 
Q 3525 4100 3525 3541 
Q 3525 3141 3298 2862 
Q 3072 2584 2669 2484 
Q 3125 2378 3379 2068 
Q 3634 1759 3634 1313 
Q 3634 634 3220 271 
Q 2806 -91 2034 -91 
Q 1263 -91 848 271 
Q 434 634 434 1313 
Q 434 1759 690 2068 
Q 947 2378 1403 2484 
z
M 1172 3481 
Q 1172 3119 1398 2916 
Q 1625 2713 2034 2713 
Q 2441 2713 2670 2916 
Q 2900 3119 2900 3481 
Q 2900 3844 2670 4047 
Q 2441 4250 2034 4250 
Q 1625 4250 1398 4047 
Q 1172 3844 1172 3481 
z
" transform="scale(0.015625)"/>
       </defs>
       <use xlink:href="#DejaVuSans-1b"/>
       <use xlink:href="#DejaVuSans-13" transform="translate(63.625 0)"/>
      </g>
     </g>
    </g>
    <g id="xtick_6">
     <g id="line2d_11">
      <path d="M 537.441051 241.599141 
L 537.441051 7.2 
" clip-path="url(#p8b7696e8f7)" style="fill: none; stroke-dasharray: 2.96,1.28; stroke-dashoffset: 0; stroke: #7f7f7f; stroke-opacity: 0.6; stroke-width: 0.8"/>
     </g>
     <g id="line2d_12">
      <g>
       <use xlink:href="#m90ff7a7a83" x="537.441051" y="241.599141" style="fill: #7f7f7f; stroke: #7f7f7f; stroke-width: 1.8"/>
      </g>
     </g>
     <g id="text_6">
      <!-- 100 -->
      <g style="fill: #7f7f7f" transform="translate(527.897301 256.196797) scale(0.1 -0.1)">
       <defs>
        <path id="DejaVuSans-14" d="M 794 531 
L 1825 531 
L 1825 4091 
L 703 3866 
L 703 4441 
L 1819 4666 
L 2450 4666 
L 2450 531 
L 3481 531 
L 3481 0 
L 794 0 
L 794 531 
z
" transform="scale(0.015625)"/>
       </defs>
       <use xlink:href="#DejaVuSans-14"/>
       <use xlink:href="#DejaVuSans-13" transform="translate(63.625 0)"/>
       <use xlink:href="#DejaVuSans-13" transform="translate(127.25 0)"/>
      </g>
     </g>
    </g>
    <g id="text_7">
     <!-- time [s] -->
     <g style="fill: #7f7f7f" transform="translate(274.521016 270.957422) scale(0.11 -0.11)">
      <defs>
       <path id="DejaVuSans-57" d="M 1172 4494 
L 1172 3500 
L 2356 3500 
L 2356 3053 
L 1172 3053 
L 1172 1153 
Q 1172 725 1289 603 
Q 1406 481 1766 481 
L 2356 481 
L 2356 0 
L 1766 0 
Q 1100 0 847 248 
Q 594 497 594 1153 
L 594 3053 
L 172 3053 
L 172 3500 
L 594 3500 
L 594 4494 
L 1172 4494 
z
" transform="scale(0.015625)"/>
       <path id="DejaVuSans-4c" d="M 603 3500 
L 1178 3500 
L 1178 0 
L 603 0 
L 603 3500 
z
M 603 4863 
L 1178 4863 
L 1178 4134 
L 603 4134 
L 603 4863 
z
" transform="scale(0.015625)"/>
       <path id="DejaVuSans-50" d="M 3328 2828 
Q 3544 3216 3844 3400 
Q 4144 3584 4550 3584 
Q 5097 3584 5394 3201 
Q 5691 2819 5691 2113 
L 5691 0 
L 5113 0 
L 5113 2094 
Q 5113 2597 4934 2840 
Q 4756 3084 4391 3084 
Q 3944 3084 3684 2787 
Q 3425 2491 3425 1978 
L 3425 0 
L 2847 0 
L 2847 2094 
Q 2847 2600 2669 2842 
Q 2491 3084 2119 3084 
Q 1678 3084 1418 2786 
Q 1159 2488 1159 1978 
L 1159 0 
L 581 0 
L 581 3500 
L 1159 3500 
L 1159 2956 
Q 1356 3278 1631 3431 
Q 1906 3584 2284 3584 
Q 2666 3584 2933 3390 
Q 3200 3197 3328 2828 
z
" transform="scale(0.015625)"/>
       <path id="DejaVuSans-48" d="M 3597 1894 
L 3597 1613 
L 953 1613 
Q 991 1019 1311 708 
Q 1631 397 2203 397 
Q 2534 397 2845 478 
Q 3156 559 3463 722 
L 3463 178 
Q 3153 47 2828 -22 
Q 2503 -91 2169 -91 
Q 1331 -91 842 396 
Q 353 884 353 1716 
Q 353 2575 817 3079 
Q 1281 3584 2069 3584 
Q 2775 3584 3186 3129 
Q 3597 2675 3597 1894 
z
M 3022 2063 
Q 3016 2534 2758 2815 
Q 2500 3097 2075 3097 
Q 1594 3097 1305 2825 
Q 1016 2553 972 2059 
L 3022 2063 
z
" transform="scale(0.015625)"/>
       <path id="DejaVuSans-3" transform="scale(0.015625)"/>
       <path id="DejaVuSans-3e" d="M 550 4863 
L 1875 4863 
L 1875 4416 
L 1125 4416 
L 1125 -397 
L 1875 -397 
L 1875 -844 
L 550 -844 
L 550 4863 
z
" transform="scale(0.015625)"/>
       <path id="DejaVuSans-56" d="M 2834 3397 
L 2834 2853 
Q 2591 2978 2328 3040 
Q 2066 3103 1784 3103 
Q 1356 3103 1142 2972 
Q 928 2841 928 2578 
Q 928 2378 1081 2264 
Q 1234 2150 1697 2047 
L 1894 2003 
Q 2506 1872 2764 1633 
Q 3022 1394 3022 966 
Q 3022 478 2636 193 
Q 2250 -91 1575 -91 
Q 1294 -91 989 -36 
Q 684 19 347 128 
L 347 722 
Q 666 556 975 473 
Q 1284 391 1588 391 
Q 1994 391 2212 530 
Q 2431 669 2431 922 
Q 2431 1156 2273 1281 
Q 2116 1406 1581 1522 
L 1381 1569 
Q 847 1681 609 1914 
Q 372 2147 372 2553 
Q 372 3047 722 3315 
Q 1072 3584 1716 3584 
Q 2034 3584 2315 3537 
Q 2597 3491 2834 3397 
z
" transform="scale(0.015625)"/>
       <path id="DejaVuSans-40" d="M 1947 4863 
L 1947 -844 
L 622 -844 
L 622 -397 
L 1369 -397 
L 1369 4416 
L 622 4416 
L 622 4863 
L 1947 4863 
z
" transform="scale(0.015625)"/>
      </defs>
      <use xlink:href="#DejaVuSans-57"/>
      <use xlink:href="#DejaVuSans-4c" transform="translate(39.203125 0)"/>
      <use xlink:href="#DejaVuSans-50" transform="translate(66.984375 0)"/>
      <use xlink:href="#DejaVuSans-48" transform="translate(164.390625 0)"/>
      <use xlink:href="#DejaVuSans-3" transform="translate(225.921875 0)"/>
      <use xlink:href="#DejaVuSans-3e" transform="translate(257.703125 0)"/>
      <use xlink:href="#DejaVuSans-56" transform="translate(296.71875 0)"/>
      <use xlink:href="#DejaVuSans-40" transform="translate(348.8125 0)"/>
     </g>
    </g>
   </g>
   <g id="matplotlib.axis_2">
    <g id="ytick_1">
     <g id="line2d_13">
      <path d="M 30.103125 211.587552 
L 561.6 211.587552 
" clip-path="url(#p8b7696e8f7)" style="fill: none; stroke-dasharray: 2.96,1.28; stroke-dashoffset: 0; stroke: #7f7f7f; stroke-opacity: 0.6; stroke-width: 0.8"/>
     </g>
     <g id="line2d_14">
      <defs>
       <path id="m250d60096e" d="M 0 0 
L -3.5 0 
" style="stroke: #7f7f7f; stroke-width: 1.8"/>
      </defs>
      <g>
       <use xlink:href="#m250d60096e" x="30.103125" y="211.587552" style="fill: #7f7f7f; stroke: #7f7f7f; stroke-width: 1.8"/>
      </g>
     </g>
     <g id="text_8">
      <!-- 0.0 -->
      <g style="fill: #7f7f7f" transform="translate(7.2 215.38638) scale(0.1 -0.1)">
       <defs>
        <path id="DejaVuSans-11" d="M 684 794 
L 1344 794 
L 1344 0 
L 684 0 
L 684 794 
z
" transform="scale(0.015625)"/>
       </defs>
       <use xlink:href="#DejaVuSans-13"/>
       <use xlink:href="#DejaVuSans-11" transform="translate(63.625 0)"/>
       <use xlink:href="#DejaVuSans-13" transform="translate(95.40625 0)"/>
      </g>
     </g>
    </g>
    <g id="ytick_2">
     <g id="line2d_15">
      <path d="M 30.103125 175.567425 
L 561.6 175.567425 
" clip-path="url(#p8b7696e8f7)" style="fill: none; stroke-dasharray: 2.96,1.28; stroke-dashoffset: 0; stroke: #7f7f7f; stroke-opacity: 0.6; stroke-width: 0.8"/>
     </g>
     <g id="line2d_16">
      <g>
       <use xlink:href="#m250d60096e" x="30.103125" y="175.567425" style="fill: #7f7f7f; stroke: #7f7f7f; stroke-width: 1.8"/>
      </g>
     </g>
     <g id="text_9">
      <!-- 0.2 -->
      <g style="fill: #7f7f7f" transform="translate(7.2 179.366254) scale(0.1 -0.1)">
       <use xlink:href="#DejaVuSans-13"/>
       <use xlink:href="#DejaVuSans-11" transform="translate(63.625 0)"/>
       <use xlink:href="#DejaVuSans-15" transform="translate(95.40625 0)"/>
      </g>
     </g>
    </g>
    <g id="ytick_3">
     <g id="line2d_17">
      <path d="M 30.103125 139.547299 
L 561.6 139.547299 
" clip-path="url(#p8b7696e8f7)" style="fill: none; stroke-dasharray: 2.96,1.28; stroke-dashoffset: 0; stroke: #7f7f7f; stroke-opacity: 0.6; stroke-width: 0.8"/>
     </g>
     <g id="line2d_18">
      <g>
       <use xlink:href="#m250d60096e" x="30.103125" y="139.547299" style="fill: #7f7f7f; stroke: #7f7f7f; stroke-width: 1.8"/>
      </g>
     </g>
     <g id="text_10">
      <!-- 0.4 -->
      <g style="fill: #7f7f7f" transform="translate(7.2 143.346127) scale(0.1 -0.1)">
       <use xlink:href="#DejaVuSans-13"/>
       <use xlink:href="#DejaVuSans-11" transform="translate(63.625 0)"/>
       <use xlink:href="#DejaVuSans-17" transform="translate(95.40625 0)"/>
      </g>
     </g>
    </g>
    <g id="ytick_4">
     <g id="line2d_19">
      <path d="M 30.103125 103.527172 
L 561.6 103.527172 
" clip-path="url(#p8b7696e8f7)" style="fill: none; stroke-dasharray: 2.96,1.28; stroke-dashoffset: 0; stroke: #7f7f7f; stroke-opacity: 0.6; stroke-width: 0.8"/>
     </g>
     <g id="line2d_20">
      <g>
       <use xlink:href="#m250d60096e" x="30.103125" y="103.527172" style="fill: #7f7f7f; stroke: #7f7f7f; stroke-width: 1.8"/>
      </g>
     </g>
     <g id="text_11">
      <!-- 0.6 -->
      <g style="fill: #7f7f7f" transform="translate(7.2 107.326) scale(0.1 -0.1)">
       <use xlink:href="#DejaVuSans-13"/>
       <use xlink:href="#DejaVuSans-11" transform="translate(63.625 0)"/>
       <use xlink:href="#DejaVuSans-19" transform="translate(95.40625 0)"/>
      </g>
     </g>
    </g>
    <g id="ytick_5">
     <g id="line2d_21">
      <path d="M 30.103125 67.507045 
L 561.6 67.507045 
" clip-path="url(#p8b7696e8f7)" style="fill: none; stroke-dasharray: 2.96,1.28; stroke-dashoffset: 0; stroke: #7f7f7f; stroke-opacity: 0.6; stroke-width: 0.8"/>
     </g>
     <g id="line2d_22">
      <g>
       <use xlink:href="#m250d60096e" x="30.103125" y="67.507045" style="fill: #7f7f7f; stroke: #7f7f7f; stroke-width: 1.8"/>
      </g>
     </g>
     <g id="text_12">
      <!-- 0.8 -->
      <g style="fill: #7f7f7f" transform="translate(7.2 71.305873) scale(0.1 -0.1)">
       <use xlink:href="#DejaVuSans-13"/>
       <use xlink:href="#DejaVuSans-11" transform="translate(63.625 0)"/>
       <use xlink:href="#DejaVuSans-1b" transform="translate(95.40625 0)"/>
      </g>
     </g>
    </g>
    <g id="ytick_6">
     <g id="line2d_23">
      <path d="M 30.103125 31.486918 
L 561.6 31.486918 
" clip-path="url(#p8b7696e8f7)" style="fill: none; stroke-dasharray: 2.96,1.28; stroke-dashoffset: 0; stroke: #7f7f7f; stroke-opacity: 0.6; stroke-width: 0.8"/>
     </g>
     <g id="line2d_24">
      <g>
       <use xlink:href="#m250d60096e" x="30.103125" y="31.486918" style="fill: #7f7f7f; stroke: #7f7f7f; stroke-width: 1.8"/>
      </g>
     </g>
     <g id="text_13">
      <!-- 1.0 -->
      <g style="fill: #7f7f7f" transform="translate(7.2 35.285746) scale(0.1 -0.1)">
       <use xlink:href="#DejaVuSans-14"/>
       <use xlink:href="#DejaVuSans-11" transform="translate(63.625 0)"/>
       <use xlink:href="#DejaVuSans-13" transform="translate(95.40625 0)"/>
      </g>
     </g>
    </g>
   </g>
   <g id="line2d_25">
    <path d="M 54.262074 211.587552 
L 150.897867 211.587552 
L 151.755432 31.486918 
L 344.169444 31.486918 
L 345.104592 121.537235 
L 537.441051 121.537235 
L 537.441051 121.537235 
" clip-path="url(#p8b7696e8f7)" style="fill: none; stroke: #e41a1c; stroke-width: 2; stroke-linecap: square"/>
   </g>
   <g id="line2d_26">
    <path d="M 54.262074 211.587552 
L 54.386778 211.292501 
L 54.642318 212.605369 
L 54.785114 210.522375 
L 55.456252 211.626575 
L 56.987707 211.569448 
L 58.564091 211.090172 
L 59.71094 211.358824 
L 61.987895 211.420654 
L 62.821157 212.232285 
L 63.145658 211.971071 
L 64.022703 211.840586 
L 64.346253 212.79159 
L 64.667908 211.165792 
L 65.70571 211.338172 
L 66.103057 212.61962 
L 66.46088 212.194614 
L 67.911064 210.280981 
L 68.260739 211.150598 
L 69.688092 211.738538 
L 71.162064 210.193622 
L 72.212896 212.258688 
L 73.60755 210.760584 
L 74.296216 211.564479 
L 74.704643 210.775173 
L 75.952134 212.063005 
L 78.592237 211.787418 
L 78.970141 212.469913 
L 79.504583 211.815388 
L 80.032395 211.248326 
L 80.512341 212.026382 
L 81.063639 211.702005 
L 81.321963 213.254242 
L 81.575885 211.138898 
L 81.940991 210.516203 
L 82.585578 211.338559 
L 83.533718 211.305704 
L 88.755928 210.961857 
L 89.62051 211.774261 
L 90.439288 210.858756 
L 90.810018 212.159655 
L 91.553296 211.389669 
L 93.391214 212.189661 
L 94.22594 211.148797 
L 94.579197 212.919296 
L 95.322197 211.547334 
L 96.036675 212.319022 
L 96.377308 211.497892 
L 98.1756 211.905213 
L 98.551742 212.842912 
L 99.271249 212.335615 
L 100.210017 212.107972 
L 101.580263 211.843063 
L 104.457104 211.247866 
L 105.882489 211.360604 
L 106.208828 211.853821 
L 106.532799 211.246167 
L 106.849171 210.331279 
L 107.189857 210.564365 
L 108.558007 212.099818 
L 108.858234 210.598864 
L 109.456666 211.769396 
L 109.766064 212.956204 
L 110.147706 211.526233 
L 111.003342 210.871812 
L 111.429993 211.983289 
L 120.277999 211.294024 
L 121.822247 211.801653 
L 123.026737 211.247691 
L 126.075134 212.589175 
L 126.38295 211.121765 
L 127.176286 210.846628 
L 127.45583 212.568226 
L 128.093337 211.583209 
L 129.741412 209.731299 
L 130.502096 212.126265 
L 130.875861 211.153446 
L 132.166906 211.106431 
L 132.554 212.020834 
L 132.943388 211.591129 
L 133.354369 210.922488 
L 133.752781 212.61568 
L 134.341917 211.507262 
L 135.821713 212.485955 
L 136.094508 211.689264 
L 137.099711 211.167663 
L 138.882503 212.556247 
L 139.290817 211.757269 
L 145.127503 211.908955 
L 145.471881 210.558463 
L 145.864651 211.748234 
L 148.038416 211.146658 
L 149.016098 212.801734 
L 150.470029 211.056134 
L 150.897269 208.168777 
L 150.897867 218.742458 
L 150.897983 194.60102 
L 150.89929 225.442031 
L 151.755432 211.76153 
L 151.911583 210.502001 
L 152.584781 211.965698 
L 152.750659 210.955694 
L 152.969749 212.328702 
L 153.697513 211.676555 
L 155.100644 211.599294 
L 155.543828 210.612924 
L 156.088436 211.545609 
L 158.96905 206.444133 
L 161.015185 201.650771 
L 186.811891 62.876167 
L 193.64988 38.823567 
L 194.055875 38.837817 
L 195.678123 34.338216 
L 198.683487 28.651773 
L 202.713671 23.00917 
L 212.373262 17.92535 
L 213.71542 18.822749 
L 214.509512 18.04894 
L 215.238575 19.157456 
L 216.651005 17.983885 
L 216.995002 19.117988 
L 217.334512 18.005266 
L 217.822473 17.854506 
L 219.206902 19.156727 
L 220.414243 20.906467 
L 220.796233 19.759872 
L 237.857732 28.445364 
L 238.321515 27.405761 
L 238.791134 27.989598 
L 240.170935 28.674034 
L 242.365407 29.840649 
L 242.763961 30.273321 
L 243.12691 28.610696 
L 243.487686 30.127419 
L 246.098302 30.359582 
L 246.459637 30.947103 
L 246.818063 30.607591 
L 247.194913 30.130376 
L 247.650392 30.783041 
L 249.707508 31.58464 
L 250.966828 30.951673 
L 253.8526 32.132802 
L 254.573642 31.008727 
L 255.332222 32.890548 
L 255.734843 31.899605 
L 256.677002 31.999626 
L 258.37003 31.632749 
L 260.811033 32.496425 
L 261.144539 31.555675 
L 261.506406 32.171676 
L 261.893753 33.225046 
L 262.304055 32.470282 
L 263.592186 31.931934 
L 264.952091 32.471423 
L 266.095139 31.090077 
L 266.838618 32.777524 
L 267.256633 31.825575 
L 268.133012 32.333874 
L 269.860348 31.616194 
L 271.66834 32.536125 
L 273.38623 31.439676 
L 274.256379 32.102799 
L 275.539159 32.204096 
L 275.970502 33.211807 
L 276.389905 32.978556 
L 276.801341 31.533616 
L 277.176712 32.324471 
L 278.152157 32.259725 
L 278.55993 31.533777 
L 278.972302 31.968821 
L 281.614404 32.584263 
L 284.11989 32.167925 
L 286.196493 32.134113 
L 288.303917 31.979359 
L 289.029525 32.052394 
L 289.441978 32.921598 
L 289.851361 31.356362 
L 290.648041 32.21786 
L 291.08452 32.589086 
L 291.47941 31.433657 
L 292.286441 32.038978 
L 292.76289 31.665745 
L 294.020358 32.295479 
L 296.279317 31.540721 
L 298.019359 31.61673 
L 298.937275 32.36171 
L 299.300192 30.784658 
L 300.084389 31.445099 
L 300.488602 30.698963 
L 300.881477 31.744358 
L 305.55782 31.857952 
L 306.410425 30.810364 
L 306.821062 31.701103 
L 308.149563 32.132935 
L 310.470812 31.630437 
L 311.62091 32.630888 
L 312.870415 31.380189 
L 314.100729 32.163188 
L 315.434904 31.86945 
L 315.809005 31.75954 
L 316.180076 32.718883 
L 316.540534 30.968746 
L 316.907255 30.672108 
L 317.289919 32.018673 
L 318.074864 31.458801 
L 320.780273 30.840698 
L 321.189318 29.675322 
L 321.518588 32.268748 
L 322.289538 30.615615 
L 323.150972 31.270363 
L 323.989286 31.641446 
L 324.805331 30.490803 
L 325.161209 32.180706 
L 325.877272 31.308538 
L 327.174168 31.263918 
L 332.174741 31.46405 
L 333.465539 32.31302 
L 334.342659 31.551263 
L 334.773335 32.269222 
L 335.663189 31.459441 
L 336.089198 30.782118 
L 336.875636 31.376658 
L 338.221836 31.094702 
L 339.937731 31.100495 
L 340.324862 30.169397 
L 340.741123 30.817452 
L 342.439387 31.84173 
L 343.584418 31.059693 
L 344.134057 31.44603 
L 344.158601 30.893572 
L 344.170727 18.355818 
L 344.169693 60.896813 
L 345.104592 31.144284 
L 346.298637 30.206447 
L 347.079009 32.296239 
L 347.907183 31.490593 
L 353.425619 35.731774 
L 368.477218 74.904924 
L 374.08784 92.422163 
L 374.519378 92.316704 
L 377.739263 101.226066 
L 378.197634 101.486349 
L 381.15993 108.140447 
L 387.933513 119.578887 
L 389.17585 119.662399 
L 391.222767 122.271787 
L 391.60184 121.428124 
L 391.985431 122.50791 
L 398.243859 127.672701 
L 398.65099 126.938621 
L 399.129825 127.440091 
L 399.493481 128.392973 
L 400.205681 127.846449 
L 401.742867 127.427634 
L 402.243381 127.925833 
L 402.704753 127.341308 
L 403.686485 127.914808 
L 408.985645 128.068272 
L 410.110623 127.392989 
L 412.28143 127.288271 
L 412.852138 126.544459 
L 413.383996 127.302679 
L 414.872141 127.153949 
L 422.434742 125.561575 
L 422.806932 126.504993 
L 423.275018 125.294285 
L 423.805714 125.956069 
L 424.17885 125.597651 
L 425.395235 124.299179 
L 426.269136 125.246185 
L 427.753204 124.16581 
L 436.906641 122.362611 
L 437.279365 123.58069 
L 437.640937 121.34304 
L 438.441103 122.126666 
L 438.813569 122.350314 
L 439.182638 121.306117 
L 440.026092 121.836191 
L 447.207159 122.041309 
L 447.601515 120.312072 
L 447.980749 121.03987 
L 448.359266 121.623357 
L 449.186091 121.068461 
L 452.296334 121.763461 
L 452.657829 122.060494 
L 453.860124 120.699708 
L 455.576953 122.187163 
L 455.95215 120.687862 
L 456.847949 120.975283 
L 457.293022 121.448614 
L 457.747393 120.516106 
L 463.028264 121.059516 
L 463.456023 120.562806 
L 464.648998 121.48585 
L 466.023901 121.234871 
L 468.147727 121.335538 
L 468.553598 120.585892 
L 468.995159 121.272236 
L 471.475211 121.235892 
L 472.76824 121.878948 
L 473.162276 121.087847 
L 490.700797 121.871414 
L 491.853032 120.995534 
L 492.950139 121.642382 
L 493.814869 120.410172 
L 494.209608 122.107744 
L 494.981064 121.706751 
L 495.420458 121.153789 
L 495.834566 121.889244 
L 497.36116 121.647223 
L 498.960761 120.779292 
L 499.36951 121.816299 
L 499.75768 120.460522 
L 501.452682 121.508778 
L 502.833703 121.030997 
L 504.425511 121.903014 
L 506.600556 121.015888 
L 507.866423 121.778211 
L 508.668466 120.735243 
L 509.108916 121.3717 
L 510.76824 121.506566 
L 511.60955 120.77723 
L 512.058865 121.273743 
L 513.794802 121.176862 
L 514.174287 122.672482 
L 514.941833 121.78693 
L 516.498018 121.353922 
L 517.285916 122.318308 
L 518.589121 121.171928 
L 519.527473 121.195355 
L 520.024444 120.769027 
L 520.77771 122.205761 
L 521.152728 120.684967 
L 521.529271 121.163061 
L 523.79741 121.847854 
L 524.22646 121.451658 
L 524.643691 122.029651 
L 525.119651 122.112898 
L 525.48627 120.852502 
L 526.282542 121.35931 
L 527.857213 121.285917 
L 529.567799 121.19778 
L 530.826563 121.259571 
L 531.204151 122.528623 
L 531.587547 121.461055 
L 532.800984 121.914632 
L 533.145379 123.0722 
L 533.539816 121.402643 
L 536.113421 121.976303 
L 536.521142 121.082605 
L 536.931496 121.737315 
L 537.395431 122.022191 
L 537.441051 121.400892 
" clip-path="url(#p8b7696e8f7)" style="fill: none; stroke: #377eb8; stroke-width: 2; stroke-linecap: square"/>
   </g>
   <g id="line2d_27">
    <path d="M 54.262074 211.587552 
L 54.642318 210.633657 
L 54.508916 212.552718 
L 55.199535 212.114552 
L 55.737194 210.654073 
L 56.000662 211.439158 
L 56.987707 212.722102 
L 57.27416 211.85236 
L 58.564091 211.550844 
L 59.71094 211.929455 
L 61.110412 211.945111 
L 62.821157 211.157105 
L 63.74639 210.477106 
L 64.346253 212.199676 
L 64.960938 211.633904 
L 68.648706 211.968606 
L 68.988712 212.491202 
L 69.688092 211.798774 
L 70.838418 211.061361 
L 71.162064 212.273244 
L 71.850189 211.68485 
L 72.912183 211.176289 
L 75.545967 211.285521 
L 78.592237 211.669618 
L 78.970141 210.835974 
L 79.244986 212.763193 
L 79.76156 211.396884 
L 80.032395 210.126998 
L 80.282739 212.220647 
L 80.512341 212.127958 
L 81.575885 211.360936 
L 81.063639 212.848277 
L 81.940991 211.693317 
L 82.267558 212.339862 
L 82.585578 211.086406 
L 82.879758 211.771418 
L 83.860846 210.640582 
L 84.165766 211.366177 
L 85.015931 211.34444 
L 85.402215 210.863553 
L 85.713458 212.229705 
L 86.449923 212.02834 
L 91.951097 211.984288 
L 92.299395 212.368862 
L 92.971654 211.718496 
L 94.92081 211.222223 
L 95.706666 211.02442 
L 96.773394 211.9892 
L 97.860836 211.176205 
L 99.76459 211.939735 
L 101.047043 211.668872 
L 102.064645 211.495711 
L 102.431739 210.869714 
L 102.776612 211.342448 
L 103.677863 211.283233 
L 104.112308 211.077068 
L 105.173953 212.140578 
L 105.882489 212.032842 
L 106.208828 210.944876 
L 106.849171 212.072642 
L 108.257429 210.592198 
L 109.150439 211.752772 
L 109.456666 211.112525 
L 111.818742 212.105837 
L 113.051566 211.625567 
L 118.480179 211.635345 
L 118.814834 212.581867 
L 119.120314 211.122728 
L 119.404023 211.608223 
L 125.755765 212.050455 
L 126.692982 212.812836 
L 126.931492 210.595804 
L 127.45583 211.110679 
L 127.784712 212.10451 
L 128.376227 211.116212 
L 128.701026 211.035203 
L 129.741412 211.871302 
L 131.671778 211.816263 
L 133.752781 211.771313 
L 134.055587 210.597798 
L 134.704233 211.124325 
L 138.882503 211.135375 
L 140.203229 211.521423 
L 140.92388 212.137218 
L 141.267396 211.438614 
L 143.189358 212.381219 
L 144.456702 210.80174 
L 145.471881 211.557208 
L 146.679363 211.61361 
L 147.02338 212.537272 
L 147.283469 210.54664 
L 147.542224 210.464152 
L 148.038416 212.850723 
L 148.665569 211.652461 
L 149.016098 212.424547 
L 149.341726 211.258988 
L 149.654283 211.748091 
L 150.470029 211.458352 
L 150.540393 212.380496 
L 150.66717 213.350737 
L 150.89447 210.200381 
L 150.897269 212.413695 
L 150.897983 230.944634 
L 150.897867 191.297197 
L 151.755432 210.743252 
L 152.26244 210.952874 
L 152.750659 209.089231 
L 153.51961 209.998073 
L 154.132813 207.752266 
L 154.65146 208.518798 
L 157.917292 204.938995 
L 158.54564 203.713719 
L 162.555278 200.984849 
L 162.933527 201.882797 
L 163.277542 200.557897 
L 164.763543 199.895072 
L 165.545337 199.809088 
L 167.678386 197.311097 
L 168.003973 198.948236 
L 168.324984 197.800788 
L 168.746422 196.479826 
L 169.577778 197.080618 
L 169.993885 196.880687 
L 170.355249 198.220552 
L 170.682005 196.884011 
L 172.309287 196.019595 
L 173.568403 195.476112 
L 174.027021 194.85774 
L 174.793801 195.485999 
L 177.730401 193.549586 
L 178.109946 194.051823 
L 179.290881 193.85525 
L 182.214107 193.437902 
L 183.427121 191.897227 
L 184.375447 192.389842 
L 187.361111 192.199766 
L 189.653862 191.974056 
L 191.43732 191.417481 
L 191.825667 192.572835 
L 192.224534 191.562467 
L 195.678123 192.451423 
L 197.762548 191.647789 
L 198.240544 192.414576 
L 198.683487 191.599275 
L 204.218795 192.294959 
L 204.569402 191.408447 
L 204.916201 191.813851 
L 205.333238 193.054226 
L 205.720429 192.020732 
L 206.489069 191.813852 
L 206.901004 192.589527 
L 207.396252 192.214843 
L 207.835634 191.924149 
L 208.234927 192.703627 
L 208.635186 193.181795 
L 209.003208 192.591503 
L 212.824571 192.73364 
L 213.71542 192.488237 
L 214.876128 191.95738 
L 216.252578 193.247007 
L 216.651005 192.672971 
L 217.822473 193.739969 
L 218.266136 192.855325 
L 218.745189 193.257795 
L 219.206902 193.541667 
L 219.623325 192.316662 
L 220.011676 192.610039 
L 220.414243 193.90965 
L 221.284602 193.590778 
L 224.767353 193.64164 
L 227.866706 193.754942 
L 246.098302 193.76568 
L 246.459637 193.032862 
L 246.818063 194.43851 
L 247.194913 193.413371 
L 247.650392 194.208526 
L 248.117923 193.451463 
L 252.477835 194.038151 
L 253.8526 193.389129 
L 258.37003 193.768924 
L 258.714534 192.752979 
L 259.055234 193.702337 
L 260.473484 193.625723 
L 260.811033 194.726133 
L 261.144539 193.098388 
L 270.306761 194.21936 
L 270.625375 192.386679 
L 271.305192 194.113064 
L 272.959948 193.343596 
L 274.256379 194.075207 
L 275.539159 193.119515 
L 277.176712 193.903732 
L 280.685532 193.360394 
L 281.156621 194.084449 
L 281.614404 193.220854 
L 284.11989 194.916816 
L 285.37949 193.124333 
L 285.795629 192.865102 
L 286.196493 194.207892 
L 286.590035 192.996539 
L 288.303917 193.286343 
L 289.029525 194.02109 
L 289.441978 193.832699 
L 291.47941 193.475258 
L 292.76289 193.58942 
L 298.019359 193.476885 
L 299.300192 193.028509 
L 300.084389 194.117304 
L 300.488602 192.860909 
L 300.881477 193.77682 
L 302.996393 193.456633 
L 306.410425 193.693453 
L 308.66874 193.721196 
L 310.077879 193.958626 
L 314.525442 193.168328 
L 315.434904 193.600687 
L 315.809005 192.897511 
L 316.180076 193.180204 
L 316.540534 193.984157 
L 316.907255 192.708571 
L 317.289919 193.543781 
L 317.675493 192.726549 
L 318.074864 193.346593 
L 322.716924 194.116277 
L 324.406456 192.86299 
L 327.624047 194.445493 
L 328.949527 193.088142 
L 330.389056 193.523646 
L 331.726106 193.181729 
L 333.02771 193.078701 
L 335.663189 193.712955 
L 336.089198 194.263452 
L 336.487822 193.710397 
L 337.749571 193.145354 
L 339.51491 193.438054 
L 339.937731 193.043522 
L 340.324862 193.83943 
L 342.812759 193.727903 
L 344.076482 193.767578 
L 344.169693 189.144295 
L 344.16992 206.169825 
L 344.170727 228.683129 
L 344.176882 188.552145 
L 345.104592 194.188902 
L 346.688239 194.500769 
L 349.498117 196.150921 
L 359.59963 200.11921 
L 359.936276 198.735145 
L 360.267526 199.255797 
L 361.831415 200.575142 
L 363.377802 200.766749 
L 364.211284 201.431176 
L 382.066622 203.347451 
L 383.324109 203.125349 
L 383.771066 202.854171 
L 384.17683 203.747349 
L 386.059843 203.511508 
L 386.417833 202.687762 
L 386.772745 204.475952 
L 387.538929 203.536711 
L 388.326732 202.926783 
L 388.737899 203.823018 
L 389.17585 202.635831 
L 390.786488 203.519923 
L 393.713657 203.213166 
L 394.069045 202.516541 
L 394.42147 202.948587 
L 395.853126 203.300199 
L 396.250074 202.832539 
L 396.645 204.487382 
L 397.004616 203.204744 
L 399.853359 203.298757 
L 400.205681 202.371678 
L 400.554797 203.882182 
L 408.632459 202.684084 
L 408.985645 203.697171 
L 409.334895 202.413852 
L 411.010546 202.75542 
L 412.28143 202.99905 
L 416.306276 203.09404 
L 418.713707 202.940972 
L 419.978847 202.534738 
L 422.434742 203.218967 
L 424.548884 201.81748 
L 424.929634 202.735766 
L 425.395235 201.695634 
L 426.672498 203.203797 
L 427.035757 202.67525 
L 427.395787 201.91761 
L 427.753204 202.519266 
L 428.10759 203.34151 
L 428.897177 202.960694 
L 430.457729 202.45549 
L 436.061958 202.952189 
L 437.640937 202.005361 
L 439.182638 203.179439 
L 440.459761 202.285936 
L 440.928433 202.259748 
L 441.258493 203.681675 
L 441.584151 202.428737 
L 442.787355 202.347472 
L 445.186897 202.767056 
L 449.631196 202.119115 
L 451.023264 203.136024 
L 451.444231 202.255995 
L 451.903804 202.644115 
L 453.078817 202.988426 
L 454.293033 202.138644 
L 456.847949 202.652986 
L 459.883349 202.491769 
L 461.09222 202.360114 
L 461.907677 202.670712 
L 462.257854 201.604555 
L 462.604039 202.362184 
L 466.965867 202.68692 
L 468.147727 201.871714 
L 469.801104 203.373088 
L 471.033647 202.631925 
L 472.76824 203.017508 
L 474.071463 202.492657 
L 478.281898 202.799864 
L 478.673758 202.425231 
L 479.071336 202.969999 
L 482.962675 202.849354 
L 483.298634 201.555158 
L 483.630129 203.118848 
L 483.988565 202.090411 
L 486.988362 202.468811 
L 488.170425 203.209329 
L 491.484953 201.566957 
L 492.238766 203.6543 
L 493.387092 201.940758 
L 494.572148 203.001757 
L 495.834566 202.242853 
L 496.259064 201.843985 
L 496.678894 202.389566 
L 497.798295 203.140819 
L 498.593284 201.944872 
L 498.960761 203.00358 
L 503.277452 202.102308 
L 504.068574 203.37523 
L 504.816846 202.883864 
L 506.139243 202.221725 
L 507.866423 203.121489 
L 509.108916 202.231243 
L 509.991274 203.452081 
L 510.76824 201.940605 
L 511.125484 202.615021 
L 513.794802 202.596257 
L 514.174287 202.18131 
L 514.555544 203.342369 
L 514.941833 202.145582 
L 515.305823 201.36946 
L 515.644888 202.235226 
L 516.498018 203.066955 
L 516.901023 201.647796 
L 517.285916 202.686125 
L 521.529271 202.855529 
L 522.976701 202.377205 
L 524.22646 202.909245 
L 525.858571 202.133191 
L 527.857213 202.869663 
L 528.220805 202.031272 
L 529.093827 202.414854 
L 531.204151 202.527968 
L 532.453148 202.934153 
L 532.800984 201.884994 
L 533.539816 202.706525 
L 535.318258 202.040995 
L 536.931496 202.668081 
L 537.441051 202.738324 
L 537.441051 202.738324 
" clip-path="url(#p8b7696e8f7)" style="fill: none; stroke: #4daf4a; stroke-width: 2; stroke-linecap: square"/>
   </g>
   <g id="patch_3">
    <path d="M 30.103125 241.599141 
L 30.103125 7.2 
" style="fill: none; stroke: #7f7f7f; stroke-width: 1.8; stroke-linejoin: miter; stroke-linecap: square"/>
   </g>
   <g id="patch_4">
    <path d="M 30.103125 241.599141 
L 561.6 241.599141 
" style="fill: none; stroke: #7f7f7f; stroke-width: 1.8; stroke-linejoin: miter; stroke-linecap: square"/>
   </g>
   <g id="legend_1">
    <g id="line2d_28">
     <path d="M 483.814062 20.298438 
L 493.814062 20.298438 
L 503.814062 20.298438 
" style="fill: none; stroke: #e41a1c; stroke-width: 2; stroke-linecap: square"/>
    </g>
    <g id="text_14">
     <!-- setpoint -->
     <g style="fill: #7f7f7f" transform="translate(511.814062 23.798438) scale(0.1 -0.1)">
      <defs>
       <path id="DejaVuSans-53" d="M 1159 525 
L 1159 -1331 
L 581 -1331 
L 581 3500 
L 1159 3500 
L 1159 2969 
Q 1341 3281 1617 3432 
Q 1894 3584 2278 3584 
Q 2916 3584 3314 3078 
Q 3713 2572 3713 1747 
Q 3713 922 3314 415 
Q 2916 -91 2278 -91 
Q 1894 -91 1617 61 
Q 1341 213 1159 525 
z
M 3116 1747 
Q 3116 2381 2855 2742 
Q 2594 3103 2138 3103 
Q 1681 3103 1420 2742 
Q 1159 2381 1159 1747 
Q 1159 1113 1420 752 
Q 1681 391 2138 391 
Q 2594 391 2855 752 
Q 3116 1113 3116 1747 
z
" transform="scale(0.015625)"/>
       <path id="DejaVuSans-52" d="M 1959 3097 
Q 1497 3097 1228 2736 
Q 959 2375 959 1747 
Q 959 1119 1226 758 
Q 1494 397 1959 397 
Q 2419 397 2687 759 
Q 2956 1122 2956 1747 
Q 2956 2369 2687 2733 
Q 2419 3097 1959 3097 
z
M 1959 3584 
Q 2709 3584 3137 3096 
Q 3566 2609 3566 1747 
Q 3566 888 3137 398 
Q 2709 -91 1959 -91 
Q 1206 -91 779 398 
Q 353 888 353 1747 
Q 353 2609 779 3096 
Q 1206 3584 1959 3584 
z
" transform="scale(0.015625)"/>
       <path id="DejaVuSans-51" d="M 3513 2113 
L 3513 0 
L 2938 0 
L 2938 2094 
Q 2938 2591 2744 2837 
Q 2550 3084 2163 3084 
Q 1697 3084 1428 2787 
Q 1159 2491 1159 1978 
L 1159 0 
L 581 0 
L 581 3500 
L 1159 3500 
L 1159 2956 
Q 1366 3272 1645 3428 
Q 1925 3584 2291 3584 
Q 2894 3584 3203 3211 
Q 3513 2838 3513 2113 
z
" transform="scale(0.015625)"/>
      </defs>
      <use xlink:href="#DejaVuSans-56"/>
      <use xlink:href="#DejaVuSans-48" transform="translate(52.09375 0)"/>
      <use xlink:href="#DejaVuSans-57" transform="translate(113.625 0)"/>
      <use xlink:href="#DejaVuSans-53" transform="translate(152.828125 0)"/>
      <use xlink:href="#DejaVuSans-52" transform="translate(216.3125 0)"/>
      <use xlink:href="#DejaVuSans-4c" transform="translate(277.5 0)"/>
      <use xlink:href="#DejaVuSans-51" transform="translate(305.28125 0)"/>
      <use xlink:href="#DejaVuSans-57" transform="translate(368.65625 0)"/>
     </g>
    </g>
    <g id="line2d_29">
     <path d="M 483.814062 35.299219 
L 493.814062 35.299219 
L 503.814062 35.299219 
" style="fill: none; stroke: #377eb8; stroke-width: 2; stroke-linecap: square"/>
    </g>
    <g id="text_15">
     <!-- plant 1 -->
     <g style="fill: #7f7f7f" transform="translate(511.814062 38.799219) scale(0.1 -0.1)">
      <defs>
       <path id="DejaVuSans-4f" d="M 603 4863 
L 1178 4863 
L 1178 0 
L 603 0 
L 603 4863 
z
" transform="scale(0.015625)"/>
       <path id="DejaVuSans-44" d="M 2194 1759 
Q 1497 1759 1228 1600 
Q 959 1441 959 1056 
Q 959 750 1161 570 
Q 1363 391 1709 391 
Q 2188 391 2477 730 
Q 2766 1069 2766 1631 
L 2766 1759 
L 2194 1759 
z
M 3341 1997 
L 3341 0 
L 2766 0 
L 2766 531 
Q 2569 213 2275 61 
Q 1981 -91 1556 -91 
Q 1019 -91 701 211 
Q 384 513 384 1019 
Q 384 1609 779 1909 
Q 1175 2209 1959 2209 
L 2766 2209 
L 2766 2266 
Q 2766 2663 2505 2880 
Q 2244 3097 1772 3097 
Q 1472 3097 1187 3025 
Q 903 2953 641 2809 
L 641 3341 
Q 956 3463 1253 3523 
Q 1550 3584 1831 3584 
Q 2591 3584 2966 3190 
Q 3341 2797 3341 1997 
z
" transform="scale(0.015625)"/>
      </defs>
      <use xlink:href="#DejaVuSans-53"/>
      <use xlink:href="#DejaVuSans-4f" transform="translate(63.484375 0)"/>
      <use xlink:href="#DejaVuSans-44" transform="translate(91.265625 0)"/>
      <use xlink:href="#DejaVuSans-51" transform="translate(152.546875 0)"/>
      <use xlink:href="#DejaVuSans-57" transform="translate(215.921875 0)"/>
      <use xlink:href="#DejaVuSans-3" transform="translate(255.125 0)"/>
      <use xlink:href="#DejaVuSans-14" transform="translate(286.90625 0)"/>
     </g>
    </g>
    <g id="line2d_30">
     <path d="M 483.814062 50.3 
L 493.814062 50.3 
L 503.814062 50.3 
" style="fill: none; stroke: #4daf4a; stroke-width: 2; stroke-linecap: square"/>
    </g>
    <g id="text_16">
     <!-- plant 2 -->
     <g style="fill: #7f7f7f" transform="translate(511.814062 53.8) scale(0.1 -0.1)">
      <use xlink:href="#DejaVuSans-53"/>
      <use xlink:href="#DejaVuSans-4f" transform="translate(63.484375 0)"/>
      <use xlink:href="#DejaVuSans-44" transform="translate(91.265625 0)"/>
      <use xlink:href="#DejaVuSans-51" transform="translate(152.546875 0)"/>
      <use xlink:href="#DejaVuSans-57" transform="translate(215.921875 0)"/>
      <use xlink:href="#DejaVuSans-3" transform="translate(255.125 0)"/>
      <use xlink:href="#DejaVuSans-15" transform="translate(286.90625 0)"/>
     </g>
    </g>
   </g>
  </g>
 </g>
 <defs>
  <clipPath id="p8b7696e8f7">
   <rect x="30.103125" y="7.2" width="531.496875" height="234.399141"/>
  </clipPath>
 </defs>
</svg>
