<?xml version="1.0" encoding="utf-8" standalone="no"?>
<!DOCTYPE svg PUBLIC "-//W3C//DTD SVG 1.1//EN"
  "http://www.w3.org/Graphics/SVG/1.1/DTD/svg11.dtd">
<svg xmlns:xlink="http://www.w3.org/1999/xlink" width="568.8pt" height="280.8pt" viewBox="0 0 568.8 280.8" xmlns="http://www.w3.org/2000/svg" version="1.1">
 <metadata>
  <rdf:RDF xmlns:dc="http://purl.org/dc/elements/1.1/" xmlns:cc="http://creativecommons.org/ns#" xmlns:rdf="http://www.w3.org/1999/02/22-rdf-syntax-ns#">
   <cc:Work>
    <dc:type rdf:resource="http://purl.org/dc/dcmitype/StillImage"/>
    <dc:date>2026-05-22T14:43:10.526992</dc:date>
    <dc:format>image/svg+xml</dc:format>
    <dc:creator>
     <cc:Agent>
      <dc:title>Matplotlib v3.10.9, https://matplotlib.org/</dc:title>
     </cc:Agent>
    </dc:creator>
   </cc:Work>
  </rdf:RDF>
 </metadata>
 <defs>
  <style type="text/css">*{stroke-linejoin: round; stroke-linecap: butt}</style>
 </defs>
 <g id="figure_1">
  <g id="patch_1">
   <path d="M 0 280.8 
L 568.8 280.8 
L 568.8 0 
L 0 0 
L 0 280.8 
z
" style="fill: none"/>
  </g>
  <g id="axes_1">
   <g id="patch_2">
    <path d="M 38.482813 242.275937 
L 561.6 242.275937 
L 561.6 7.2 
L 38.482813 7.2 
L 38.482813 242.275937 
z
" style="fill: none"/>
   </g>
   <g id="matplotlib.axis_1">
    <g id="xtick_1">
     <g id="line2d_1">
      <path d="M 62.260866 242.275937 
L 62.260866 7.2 
" clip-path="url(#p3147c03a1e)" style="fill: none; stroke-dasharray: 2.96,1.28; stroke-dashoffset: 0; stroke: #7f7f7f; stroke-opacity: 0.6; stroke-width: 0.8"/>
     </g>
     <g id="line2d_2">
      <defs>
       <path id="mb9ac192f33" d="M 0 0 
L 0 3.5 
" style="stroke: #7f7f7f; stroke-width: 1.8"/>
      </defs>
      <g>
       <use xlink:href="#mb9ac192f33" x="62.260866" y="242.275937" style="fill: #7f7f7f; stroke: #7f7f7f; stroke-width: 1.8"/>
      </g>
     </g>
     <g id="text_1">
      <!-- 0 -->
      <g style="fill: #7f7f7f" transform="translate(59.079616 256.874375) scale(0.1 -0.1)">
       <defs>
        <path id="DejaVuSans-30" d="M 2034 4250 
Q 1547 4250 1301 3770 
Q 1056 3291 1056 2328 
Q 1056 1369 1301 889 
Q 1547 409 2034 409 
Q 2525 409 2770 889 
Q 3016 1369 3016 2328 
Q 3016 3291 2770 3770 
Q 2525 4250 2034 4250 
z
M 2034 4750 
Q 2819 4750 3233 4129 
Q 3647 3509 3647 2328 
Q 3647 1150 3233 529 
Q 2819 -91 2034 -91 
Q 1250 -91 836 529 
Q 422 1150 422 2328 
Q 422 3509 836 4129 
Q 1250 4750 2034 4750 
z
" transform="scale(0.015625)"/>
       </defs>
       <use xlink:href="#DejaVuSans-30"/>
      </g>
     </g>
    </g>
    <g id="xtick_2">
     <g id="line2d_3">
      <path d="M 157.373082 242.275937 
L 157.373082 7.2 
" clip-path="url(#p3147c03a1e)" style="fill: none; stroke-dasharray: 2.96,1.28; stroke-dashoffset: 0; stroke: #7f7f7f; stroke-opacity: 0.6; stroke-width: 0.8"/>
     </g>
     <g id="line2d_4">
      <g>
       <use xlink:href="#mb9ac192f33" x="157.373082" y="242.275937" style="fill: #7f7f7f; stroke: #7f7f7f; stroke-width: 1.8"/>
      </g>
     </g>
     <g id="text_2">
      <!-- 20 -->
      <g style="fill: #7f7f7f" transform="translate(151.010582 256.874375) scale(0.1 -0.1)">
       <defs>
        <path id="DejaVuSans-32" d="M 1228 531 
L 3431 531 
L 3431 0 
L 469 0 
L 469 531 
Q 828 903 1448 1529 
Q 2069 2156 2228 2338 
Q 2531 2678 2651 2914 
Q 2772 3150 2772 3378 
Q 2772 3750 2511 3984 
Q 2250 4219 1831 4219 
Q 1534 4219 1204 4116 
Q 875 4013 500 3803 
L 500 4441 
Q 881 4594 1212 4672 
Q 1544 4750 1819 4750 
Q 2544 4750 2975 4387 
Q 3406 4025 3406 3419 
Q 3406 3131 3298 2873 
Q 3191 2616 2906 2266 
Q 2828 2175 2409 1742 
Q 1991 1309 1228 531 
z
" transform="scale(0.015625)"/>
       </defs>
       <use xlink:href="#DejaVuSans-32"/>
       <use xlink:href="#DejaVuSans-30" transform="translate(63.623047 0)"/>
      </g>
     </g>
    </g>
    <g id="xtick_3">
     <g id="line2d_5">
      <path d="M 252.485298 242.275937 
L 252.485298 7.2 
" clip-path="url(#p3147c03a1e)" style="fill: none; stroke-dasharray: 2.96,1.28; stroke-dashoffset: 0; stroke: #7f7f7f; stroke-opacity: 0.6; stroke-width: 0.8"/>
     </g>
     <g id="line2d_6">
      <g>
       <use xlink:href="#mb9ac192f33" x="252.485298" y="242.275937" style="fill: #7f7f7f; stroke: #7f7f7f; stroke-width: 1.8"/>
      </g>
     </g>
     <g id="text_3">
      <!-- 40 -->
      <g style="fill: #7f7f7f" transform="translate(246.122798 256.874375) scale(0.1 -0.1)">
       <defs>
        <path id="DejaVuSans-34" d="M 2419 4116 
L 825 1625 
L 2419 1625 
L 2419 4116 
z
M 2253 4666 
L 3047 4666 
L 3047 1625 
L 3713 1625 
L 3713 1100 
L 3047 1100 
L 3047 0 
L 2419 0 
L 2419 1100 
L 313 1100 
L 313 1709 
L 2253 4666 
z
" transform="scale(0.015625)"/>
       </defs>
       <use xlink:href="#DejaVuSans-34"/>
       <use xlink:href="#DejaVuSans-30" transform="translate(63.623047 0)"/>
      </g>
     </g>
    </g>
    <g id="xtick_4">
     <g id="line2d_7">
      <path d="M 347.597514 242.275937 
L 347.597514 7.2 
" clip-path="url(#p3147c03a1e)" style="fill: none; stroke-dasharray: 2.96,1.28; stroke-dashoffset: 0; stroke: #7f7f7f; stroke-opacity: 0.6; stroke-width: 0.8"/>
     </g>
     <g id="line2d_8">
      <g>
       <use xlink:href="#mb9ac192f33" x="347.597514" y="242.275937" style="fill: #7f7f7f; stroke: #7f7f7f; stroke-width: 1.8"/>
      </g>
     </g>
     <g id="text_4">
      <!-- 60 -->
      <g style="fill: #7f7f7f" transform="translate(341.235014 256.874375) scale(0.1 -0.1)">
       <defs>
        <path id="DejaVuSans-36" d="M 2113 2584 
Q 1688 2584 1439 2293 
Q 1191 2003 1191 1497 
Q 1191 994 1439 701 
Q 1688 409 2113 409 
Q 2538 409 2786 701 
Q 3034 994 3034 1497 
Q 3034 2003 2786 2293 
Q 2538 2584 2113 2584 
z
M 3366 4563 
L 3366 3988 
Q 3128 4100 2886 4159 
Q 2644 4219 2406 4219 
Q 1781 4219 1451 3797 
Q 1122 3375 1075 2522 
Q 1259 2794 1537 2939 
Q 1816 3084 2150 3084 
Q 2853 3084 3261 2657 
Q 3669 2231 3669 1497 
Q 3669 778 3244 343 
Q 2819 -91 2113 -91 
Q 1303 -91 875 529 
Q 447 1150 447 2328 
Q 447 3434 972 4092 
Q 1497 4750 2381 4750 
Q 2619 4750 2861 4703 
Q 3103 4656 3366 4563 
z
" transform="scale(0.015625)"/>
       </defs>
       <use xlink:href="#DejaVuSans-36"/>
       <use xlink:href="#DejaVuSans-30" transform="translate(63.623047 0)"/>
      </g>
     </g>
    </g>
    <g id="xtick_5">
     <g id="line2d_9">
      <path d="M 442.70973 242.275937 
L 442.70973 7.2 
" clip-path="url(#p3147c03a1e)" style="fill: none; stroke-dasharray: 2.96,1.28; stroke-dashoffset: 0; stroke: #7f7f7f; stroke-opacity: 0.6; stroke-width: 0.8"/>
     </g>
     <g id="line2d_10">
      <g>
       <use xlink:href="#mb9ac192f33" x="442.70973" y="242.275937" style="fill: #7f7f7f; stroke: #7f7f7f; stroke-width: 1.8"/>
      </g>
     </g>
     <g id="text_5">
      <!-- 80 -->
      <g style="fill: #7f7f7f" transform="translate(436.34723 256.874375) scale(0.1 -0.1)">
       <defs>
        <path id="DejaVuSans-38" d="M 2034 2216 
Q 1584 2216 1326 1975 
Q 1069 1734 1069 1313 
Q 1069 891 1326 650 
Q 1584 409 2034 409 
Q 2484 409 2743 651 
Q 3003 894 3003 1313 
Q 3003 1734 2745 1975 
Q 2488 2216 2034 2216 
z
M 1403 2484 
Q 997 2584 770 2862 
Q 544 3141 544 3541 
Q 544 4100 942 4425 
Q 1341 4750 2034 4750 
Q 2731 4750 3128 4425 
Q 3525 4100 3525 3541 
Q 3525 3141 3298 2862 
Q 3072 2584 2669 2484 
Q 3125 2378 3379 2068 
Q 3634 1759 3634 1313 
Q 3634 634 3220 271 
Q 2806 -91 2034 -91 
Q 1263 -91 848 271 
Q 434 634 434 1313 
Q 434 1759 690 2068 
Q 947 2378 1403 2484 
z
M 1172 3481 
Q 1172 3119 1398 2916 
Q 1625 2713 2034 2713 
Q 2441 2713 2670 2916 
Q 2900 3119 2900 3481 
Q 2900 3844 2670 4047 
Q 2441 4250 2034 4250 
Q 1625 4250 1398 4047 
Q 1172 3844 1172 3481 
z
" transform="scale(0.015625)"/>
       </defs>
       <use xlink:href="#DejaVuSans-38"/>
       <use xlink:href="#DejaVuSans-30" transform="translate(63.623047 0)"/>
      </g>
     </g>
    </g>
    <g id="xtick_6">
     <g id="line2d_11">
      <path d="M 537.821946 242.275937 
L 537.821946 7.2 
" clip-path="url(#p3147c03a1e)" style="fill: none; stroke-dasharray: 2.96,1.28; stroke-dashoffset: 0; stroke: #7f7f7f; stroke-opacity: 0.6; stroke-width: 0.8"/>
     </g>
     <g id="line2d_12">
      <g>
       <use xlink:href="#mb9ac192f33" x="537.821946" y="242.275937" style="fill: #7f7f7f; stroke: #7f7f7f; stroke-width: 1.8"/>
      </g>
     </g>
     <g id="text_6">
      <!-- 100 -->
      <g style="fill: #7f7f7f" transform="translate(528.278196 256.874375) scale(0.1 -0.1)">
       <defs>
        <path id="DejaVuSans-31" d="M 794 531 
L 1825 531 
L 1825 4091 
L 703 3866 
L 703 4441 
L 1819 4666 
L 2450 4666 
L 2450 531 
L 3481 531 
L 3481 0 
L 794 0 
L 794 531 
z
" transform="scale(0.015625)"/>
       </defs>
       <use xlink:href="#DejaVuSans-31"/>
       <use xlink:href="#DejaVuSans-30" transform="translate(63.623047 0)"/>
       <use xlink:href="#DejaVuSans-30" transform="translate(127.246094 0)"/>
      </g>
     </g>
    </g>
    <g id="text_7">
     <!-- time [s] -->
     <g style="fill: #7f7f7f" transform="translate(278.710859 271.312344) scale(0.11 -0.11)">
      <defs>
       <path id="DejaVuSans-74" d="M 1172 4494 
L 1172 3500 
L 2356 3500 
L 2356 3053 
L 1172 3053 
L 1172 1153 
Q 1172 725 1289 603 
Q 1406 481 1766 481 
L 2356 481 
L 2356 0 
L 1766 0 
Q 1100 0 847 248 
Q 594 497 594 1153 
L 594 3053 
L 172 3053 
L 172 3500 
L 594 3500 
L 594 4494 
L 1172 4494 
z
" transform="scale(0.015625)"/>
       <path id="DejaVuSans-69" d="M 603 3500 
L 1178 3500 
L 1178 0 
L 603 0 
L 603 3500 
z
M 603 4863 
L 1178 4863 
L 1178 4134 
L 603 4134 
L 603 4863 
z
" transform="scale(0.015625)"/>
       <path id="DejaVuSans-6d" d="M 3328 2828 
Q 3544 3216 3844 3400 
Q 4144 3584 4550 3584 
Q 5097 3584 5394 3201 
Q 5691 2819 5691 2113 
L 5691 0 
L 5113 0 
L 5113 2094 
Q 5113 2597 4934 2840 
Q 4756 3084 4391 3084 
Q 3944 3084 3684 2787 
Q 3425 2491 3425 1978 
L 3425 0 
L 2847 0 
L 2847 2094 
Q 2847 2600 2669 2842 
Q 2491 3084 2119 3084 
Q 1678 3084 1418 2786 
Q 1159 2488 1159 1978 
L 1159 0 
L 581 0 
L 581 3500 
L 1159 3500 
L 1159 2956 
Q 1356 3278 1631 3431 
Q 1906 3584 2284 3584 
Q 2666 3584 2933 3390 
Q 3200 3197 3328 2828 
z
" transform="scale(0.015625)"/>
       <path id="DejaVuSans-65" d="M 3597 1894 
L 3597 1613 
L 953 1613 
Q 991 1019 1311 708 
Q 1631 397 2203 397 
Q 2534 397 2845 478 
Q 3156 559 3463 722 
L 3463 178 
Q 3153 47 2828 -22 
Q 2503 -91 2169 -91 
Q 1331 -91 842 396 
Q 353 884 353 1716 
Q 353 2575 817 3079 
Q 1281 3584 2069 3584 
Q 2775 3584 3186 3129 
Q 3597 2675 3597 1894 
z
M 3022 2063 
Q 3016 2534 2758 2815 
Q 2500 3097 2075 3097 
Q 1594 3097 1305 2825 
Q 1016 2553 972 2059 
L 3022 2063 
z
" transform="scale(0.015625)"/>
       <path id="DejaVuSans-20" transform="scale(0.015625)"/>
       <path id="DejaVuSans-5b" d="M 550 4863 
L 1875 4863 
L 1875 4416 
L 1125 4416 
L 1125 -397 
L 1875 -397 
L 1875 -844 
L 550 -844 
L 550 4863 
z
" transform="scale(0.015625)"/>
       <path id="DejaVuSans-73" d="M 2834 3397 
L 2834 2853 
Q 2591 2978 2328 3040 
Q 2066 3103 1784 3103 
Q 1356 3103 1142 2972 
Q 928 2841 928 2578 
Q 928 2378 1081 2264 
Q 1234 2150 1697 2047 
L 1894 2003 
Q 2506 1872 2764 1633 
Q 3022 1394 3022 966 
Q 3022 478 2636 193 
Q 2250 -91 1575 -91 
Q 1294 -91 989 -36 
Q 684 19 347 128 
L 347 722 
Q 666 556 975 473 
Q 1284 391 1588 391 
Q 1994 391 2212 530 
Q 2431 669 2431 922 
Q 2431 1156 2273 1281 
Q 2116 1406 1581 1522 
L 1381 1569 
Q 847 1681 609 1914 
Q 372 2147 372 2553 
Q 372 3047 722 3315 
Q 1072 3584 1716 3584 
Q 2034 3584 2315 3537 
Q 2597 3491 2834 3397 
z
" transform="scale(0.015625)"/>
       <path id="DejaVuSans-5d" d="M 1947 4863 
L 1947 -844 
L 622 -844 
L 622 -397 
L 1369 -397 
L 1369 4416 
L 622 4416 
L 622 4863 
L 1947 4863 
z
" transform="scale(0.015625)"/>
      </defs>
      <use xlink:href="#DejaVuSans-74"/>
      <use xlink:href="#DejaVuSans-69" transform="translate(39.208984 0)"/>
      <use xlink:href="#DejaVuSans-6d" transform="translate(66.992188 0)"/>
      <use xlink:href="#DejaVuSans-65" transform="translate(164.404297 0)"/>
      <use xlink:href="#DejaVuSans-20" transform="translate(225.927734 0)"/>
      <use xlink:href="#DejaVuSans-5b" transform="translate(257.714844 0)"/>
      <use xlink:href="#DejaVuSans-73" transform="translate(296.728516 0)"/>
      <use xlink:href="#DejaVuSans-5d" transform="translate(348.828125 0)"/>
     </g>
    </g>
   </g>
   <g id="matplotlib.axis_2">
    <g id="ytick_1">
     <g id="line2d_13">
      <path d="M 38.482813 203.716215 
L 561.6 203.716215 
" clip-path="url(#p3147c03a1e)" style="fill: none; stroke-dasharray: 2.96,1.28; stroke-dashoffset: 0; stroke: #7f7f7f; stroke-opacity: 0.6; stroke-width: 0.8"/>
     </g>
     <g id="line2d_14">
      <defs>
       <path id="m027555b5eb" d="M 0 0 
L -3.5 0 
" style="stroke: #7f7f7f; stroke-width: 1.8"/>
      </defs>
      <g>
       <use xlink:href="#m027555b5eb" x="38.482813" y="203.716215" style="fill: #7f7f7f; stroke: #7f7f7f; stroke-width: 1.8"/>
      </g>
     </g>
     <g id="text_8">
      <!-- −0.2 -->
      <g style="fill: #7f7f7f" transform="translate(7.2 207.515434) scale(0.1 -0.1)">
       <defs>
        <path id="DejaVuSans-2212" d="M 678 2272 
L 4684 2272 
L 4684 1741 
L 678 1741 
L 678 2272 
z
" transform="scale(0.015625)"/>
        <path id="DejaVuSans-2e" d="M 684 794 
L 1344 794 
L 1344 0 
L 684 0 
L 684 794 
z
" transform="scale(0.015625)"/>
       </defs>
       <use xlink:href="#DejaVuSans-2212"/>
       <use xlink:href="#DejaVuSans-30" transform="translate(83.789062 0)"/>
       <use xlink:href="#DejaVuSans-2e" transform="translate(147.412109 0)"/>
       <use xlink:href="#DejaVuSans-32" transform="translate(179.199219 0)"/>
      </g>
     </g>
    </g>
    <g id="ytick_2">
     <g id="line2d_15">
      <path d="M 38.482813 159.280525 
L 561.6 159.280525 
" clip-path="url(#p3147c03a1e)" style="fill: none; stroke-dasharray: 2.96,1.28; stroke-dashoffset: 0; stroke: #7f7f7f; stroke-opacity: 0.6; stroke-width: 0.8"/>
     </g>
     <g id="line2d_16">
      <g>
       <use xlink:href="#m027555b5eb" x="38.482813" y="159.280525" style="fill: #7f7f7f; stroke: #7f7f7f; stroke-width: 1.8"/>
      </g>
     </g>
     <g id="text_9">
      <!-- −0.1 -->
      <g style="fill: #7f7f7f" transform="translate(7.2 163.079744) scale(0.1 -0.1)">
       <use xlink:href="#DejaVuSans-2212"/>
       <use xlink:href="#DejaVuSans-30" transform="translate(83.789062 0)"/>
       <use xlink:href="#DejaVuSans-2e" transform="translate(147.412109 0)"/>
       <use xlink:href="#DejaVuSans-31" transform="translate(179.199219 0)"/>
      </g>
     </g>
    </g>
    <g id="ytick_3">
     <g id="line2d_17">
      <path d="M 38.482813 114.844836 
L 561.6 114.844836 
" clip-path="url(#p3147c03a1e)" style="fill: none; stroke-dasharray: 2.96,1.28; stroke-dashoffset: 0; stroke: #7f7f7f; stroke-opacity: 0.6; stroke-width: 0.8"/>
     </g>
     <g id="line2d_18">
      <g>
       <use xlink:href="#m027555b5eb" x="38.482813" y="114.844836" style="fill: #7f7f7f; stroke: #7f7f7f; stroke-width: 1.8"/>
      </g>
     </g>
     <g id="text_10">
      <!-- 0.0 -->
      <g style="fill: #7f7f7f" transform="translate(15.579688 118.644054) scale(0.1 -0.1)">
       <use xlink:href="#DejaVuSans-30"/>
       <use xlink:href="#DejaVuSans-2e" transform="translate(63.623047 0)"/>
       <use xlink:href="#DejaVuSans-30" transform="translate(95.410156 0)"/>
      </g>
     </g>
    </g>
    <g id="ytick_4">
     <g id="line2d_19">
      <path d="M 38.482813 70.409146 
L 561.6 70.409146 
" clip-path="url(#p3147c03a1e)" style="fill: none; stroke-dasharray: 2.96,1.28; stroke-dashoffset: 0; stroke: #7f7f7f; stroke-opacity: 0.6; stroke-width: 0.8"/>
     </g>
     <g id="line2d_20">
      <g>
       <use xlink:href="#m027555b5eb" x="38.482813" y="70.409146" style="fill: #7f7f7f; stroke: #7f7f7f; stroke-width: 1.8"/>
      </g>
     </g>
     <g id="text_11">
      <!-- 0.1 -->
      <g style="fill: #7f7f7f" transform="translate(15.579688 74.208365) scale(0.1 -0.1)">
       <use xlink:href="#DejaVuSans-30"/>
       <use xlink:href="#DejaVuSans-2e" transform="translate(63.623047 0)"/>
       <use xlink:href="#DejaVuSans-31" transform="translate(95.410156 0)"/>
      </g>
     </g>
    </g>
    <g id="ytick_5">
     <g id="line2d_21">
      <path d="M 38.482813 25.973456 
L 561.6 25.973456 
" clip-path="url(#p3147c03a1e)" style="fill: none; stroke-dasharray: 2.96,1.28; stroke-dashoffset: 0; stroke: #7f7f7f; stroke-opacity: 0.6; stroke-width: 0.8"/>
     </g>
     <g id="line2d_22">
      <g>
       <use xlink:href="#m027555b5eb" x="38.482813" y="25.973456" style="fill: #7f7f7f; stroke: #7f7f7f; stroke-width: 1.8"/>
      </g>
     </g>
     <g id="text_12">
      <!-- 0.2 -->
      <g style="fill: #7f7f7f" transform="translate(15.579688 29.772675) scale(0.1 -0.1)">
       <use xlink:href="#DejaVuSans-30"/>
       <use xlink:href="#DejaVuSans-2e" transform="translate(63.623047 0)"/>
       <use xlink:href="#DejaVuSans-32" transform="translate(95.410156 0)"/>
      </g>
     </g>
    </g>
   </g>
   <g id="line2d_23">
    <path d="M 62.260866 114.844836 
L 62.875059 113.134075 
L 62.673929 116.028535 
L 63.082646 113.407263 
L 63.341916 115.028565 
L 64.053702 114.764901 
L 64.543817 115.71672 
L 64.985364 114.142361 
L 65.400138 115.191842 
L 65.845629 115.955526 
L 66.249915 114.850645 
L 66.675714 114.285106 
L 67.533593 116.000366 
L 67.883073 113.687752 
L 68.61547 114.52054 
L 68.983821 113.31823 
L 69.279645 116.806604 
L 69.978064 115.21109 
L 71.637882 114.971382 
L 72.282394 112.440536 
L 72.572253 115.075765 
L 72.884744 116.06442 
L 73.199859 113.50564 
L 73.835817 115.534677 
L 74.178485 115.44249 
L 74.55483 113.860701 
L 74.913615 115.526728 
L 75.711111 114.816266 
L 76.132235 115.909299 
L 77.434587 115.334844 
L 78.886314 114.465219 
L 79.625529 115.222971 
L 79.964334 113.221371 
L 80.60127 114.491796 
L 81.401315 114.975378 
L 81.751834 116.679318 
L 82.082923 113.567093 
L 82.38509 114.548114 
L 83.108815 113.713866 
L 83.373891 111.450593 
L 83.6223 116.031143 
L 83.857065 114.943535 
L 84.216595 114.615869 
L 85.271566 117.1211 
L 85.947764 114.077122 
L 86.579148 114.5567 
L 86.917843 115.549148 
L 87.28031 114.57375 
L 88.066609 114.135785 
L 88.396589 116.469445 
L 88.68373 113.127897 
L 88.979562 114.837683 
L 89.77807 114.570073 
L 90.221544 114.096724 
L 91.017521 113.445618 
L 91.698611 116.485066 
L 92.307901 116.576152 
L 92.850118 112.984881 
L 93.131494 113.532569 
L 93.409211 116.895229 
L 94.368395 116.425384 
L 94.703268 114.036487 
L 95.029191 114.241618 
L 95.365374 116.670918 
L 95.691232 113.792104 
L 95.998197 116.481251 
L 96.580524 112.44256 
L 97.140109 114.962107 
L 97.473766 113.0793 
L 97.77789 113.705659 
L 98.134706 115.167527 
L 98.886664 114.624869 
L 99.350633 115.445548 
L 99.798627 115.00045 
L 100.206014 114.439671 
L 100.580195 116.437805 
L 100.930495 115.120526 
L 101.341597 113.754376 
L 101.71792 115.377478 
L 102.100224 114.413403 
L 103.448711 114.49396 
L 103.781787 117.281728 
L 104.083401 114.055503 
L 104.37755 116.105735 
L 105.501837 114.175531 
L 105.895888 115.021059 
L 106.276576 115.219976 
L 106.588407 112.385952 
L 106.877762 114.723878 
L 107.219181 115.914171 
L 107.555929 114.525612 
L 109.754932 115.027864 
L 110.17205 113.937846 
L 110.571848 115.309002 
L 110.918345 116.705756 
L 111.244938 115.636216 
L 111.923751 116.33766 
L 112.591776 113.349463 
L 113.718008 116.485831 
L 114.064256 115.608477 
L 115.298156 113.570181 
L 115.66391 113.774483 
L 118.195767 116.073712 
L 118.575809 115.354622 
L 118.968581 113.775632 
L 119.339185 114.91548 
L 119.78957 115.836943 
L 120.201803 115.493449 
L 120.60002 115.178031 
L 120.956129 113.497143 
L 121.677611 114.66314 
L 122.449465 113.248344 
L 123.160924 115.262769 
L 123.59687 115.038465 
L 124.457118 115.328323 
L 124.81831 113.046518 
L 125.502284 114.315259 
L 126.228665 113.019862 
L 126.559211 113.602371 
L 127.266829 116.540515 
L 127.987925 115.434442 
L 128.650205 116.122391 
L 129.265455 112.71832 
L 129.872044 116.682828 
L 130.482242 116.17525 
L 131.712934 113.741708 
L 132.442404 116.669703 
L 132.783624 116.225831 
L 133.086896 113.085568 
L 133.349865 116.971955 
L 133.932974 114.655872 
L 134.293181 113.099816 
L 134.628858 115.666933 
L 135.805292 113.914975 
L 136.992902 115.929258 
L 137.352232 115.150615 
L 137.739996 116.751206 
L 138.089831 113.857237 
L 138.744916 116.010268 
L 139.090772 115.718004 
L 139.466226 113.826384 
L 140.215018 114.148874 
L 141.859276 115.891801 
L 142.516344 112.562897 
L 142.813238 114.934164 
L 143.145375 113.827171 
L 143.445837 116.505666 
L 143.751483 114.284178 
L 144.07294 112.786031 
L 144.365342 113.965077 
L 145.702486 115.609188 
L 146.558305 115.324735 
L 147.825103 114.975252 
L 148.581304 114.40636 
L 148.946927 115.695256 
L 150.470778 113.580944 
L 151.171353 112.794327 
L 151.48894 114.226988 
L 151.878894 113.300181 
L 152.248313 114.394519 
L 154.097784 115.616945 
L 154.432804 116.907524 
L 154.74709 113.748532 
L 155.342466 114.710783 
L 156.809163 116.690087 
L 157.372597 117.419793 
L 157.372866 105.258578 
L 157.373082 231.590668 
L 157.373214 21.340258 
L 158.294253 107.373184 
L 158.734617 109.361328 
L 159.204142 105.693742 
L 159.69771 103.847844 
L 160.468311 111.049913 
L 161.17735 111.158172 
L 161.661911 108.378673 
L 161.88361 108.555561 
L 162.103998 111.952365 
L 163.050447 111.21978 
L 163.354008 113.055272 
L 163.653184 108.42965 
L 164.236659 113.651471 
L 165.676118 110.14848 
L 165.981309 113.005787 
L 166.779682 111.394533 
L 167.495075 111.20691 
L 167.842143 112.902013 
L 168.257505 111.318046 
L 168.63643 111.071532 
L 168.999395 113.62624 
L 169.766931 112.371249 
L 170.170585 112.349946 
L 170.584393 113.988321 
L 170.958768 112.075985 
L 173.014863 112.536092 
L 173.763754 110.536448 
L 174.118608 112.09001 
L 174.947495 112.753362 
L 175.395651 113.827333 
L 175.976468 113.490552 
L 176.871301 113.234679 
L 177.248018 111.118985 
L 177.592602 111.997288 
L 177.975974 114.692291 
L 178.460578 113.011004 
L 179.942827 114.674527 
L 181.060393 112.009885 
L 181.411621 112.154813 
L 182.243731 114.20321 
L 182.705925 113.640427 
L 183.105837 112.363915 
L 183.473381 113.341903 
L 184.389245 114.779251 
L 184.866709 114.422986 
L 185.248199 113.23662 
L 186.114558 113.591465 
L 187.042479 114.341379 
L 187.414685 112.770501 
L 187.782872 114.660533 
L 188.218621 113.711058 
L 188.648139 115.559093 
L 189.093712 113.816201 
L 189.506195 113.23756 
L 189.892893 113.560583 
L 190.766969 115.325778 
L 191.168304 114.971422 
L 191.51473 112.610172 
L 191.857451 113.680532 
L 192.68123 116.044136 
L 193.059203 115.226334 
L 194.531818 115.605079 
L 194.876837 113.089615 
L 195.218018 113.630037 
L 195.615803 115.18434 
L 196.121306 114.348914 
L 196.788983 114.876527 
L 197.188523 113.795475 
L 197.585622 114.536414 
L 198.112693 114.515708 
L 198.487336 116.02697 
L 198.859512 113.627361 
L 199.273731 113.579979 
L 200.516302 116.239458 
L 201.3924 114.909581 
L 201.917886 115.750767 
L 202.773133 116.29 
L 203.555924 114.3341 
L 204.84606 117.213868 
L 205.999018 114.182583 
L 206.909966 114.030045 
L 207.256499 116.559237 
L 207.994633 116.183092 
L 208.825006 114.239801 
L 209.234737 115.711061 
L 210.515112 113.398206 
L 211.912536 115.432358 
L 212.324512 116.169748 
L 212.731813 114.598038 
L 213.314307 115.312358 
L 214.79178 115.271574 
L 215.157965 116.954902 
L 215.520407 114.999511 
L 217.377813 116.291439 
L 217.765553 113.315394 
L 218.567571 114.565921 
L 218.924707 116.421672 
L 219.278819 114.610678 
L 220.334165 115.546741 
L 221.878946 114.300532 
L 223.14874 117.657292 
L 223.884146 112.817024 
L 224.218745 114.52784 
L 224.628521 115.362789 
L 225.037962 113.726364 
L 225.484865 115.90114 
L 225.942957 114.142505 
L 227.182617 116.298201 
L 227.626063 115.700159 
L 228.068596 113.304243 
L 228.467069 115.64598 
L 228.887857 115.87724 
L 229.677467 116.186585 
L 230.387078 112.266397 
L 230.712151 116.046699 
L 231.077371 114.178144 
L 231.482382 113.148467 
L 231.853755 114.165706 
L 232.780903 115.422533 
L 233.815629 114.845422 
L 235.113142 116.297699 
L 235.867079 112.564572 
L 236.211401 115.206151 
L 236.58161 117.161845 
L 236.918042 115.658234 
L 237.266409 113.431773 
L 237.612067 115.569846 
L 238.013314 116.422612 
L 238.387685 115.888353 
L 239.329591 114.753842 
L 239.836317 115.695796 
L 240.315673 113.884961 
L 240.773416 114.567968 
L 242.358391 114.148034 
L 243.824416 115.485777 
L 244.263301 116.13689 
L 245.572213 114.040195 
L 246.039475 115.459703 
L 246.533543 113.692667 
L 246.999189 114.935879 
L 247.826776 116.321515 
L 248.628853 113.595859 
L 249.011215 115.302977 
L 249.991468 113.782777 
L 250.431288 115.10461 
L 250.956439 114.766774 
L 253.203846 114.130847 
L 253.889735 117.168141 
L 254.251759 114.024364 
L 255.078303 115.179616 
L 255.550393 115.416566 
L 255.932884 113.828954 
L 256.754605 114.390345 
L 257.202433 115.918075 
L 257.635982 113.206434 
L 258.053954 114.451972 
L 259.450862 115.587918 
L 259.81634 113.580632 
L 260.590336 113.902351 
L 261.821823 115.599257 
L 262.226838 114.727258 
L 262.673262 113.782504 
L 263.100629 115.203866 
L 264.017326 116.271022 
L 264.433191 115.291401 
L 265.822372 113.25635 
L 266.977407 115.593957 
L 268.709902 115.041756 
L 269.145583 115.25388 
L 269.627995 113.704923 
L 270.065681 115.199275 
L 271.530902 114.075795 
L 271.946483 116.359157 
L 272.356263 115.153547 
L 272.710026 113.210693 
L 273.060863 115.841859 
L 273.473091 114.451723 
L 273.906625 113.718861 
L 274.302913 115.188677 
L 274.832242 114.509298 
L 275.192998 112.857605 
L 275.550726 114.96476 
L 277.92703 115.408162 
L 278.425471 114.082731 
L 278.796208 114.949916 
L 280.109057 115.663221 
L 280.512759 114.348676 
L 280.990266 115.799036 
L 281.915878 113.48184 
L 282.327014 113.964651 
L 282.734477 115.804854 
L 283.156263 114.207616 
L 283.622938 113.885561 
L 284.059561 115.594871 
L 284.522444 114.454048 
L 284.977558 113.484926 
L 286.163026 116.535524 
L 287.806049 113.395469 
L 288.9535 116.455873 
L 289.31894 113.169139 
L 289.696839 114.97408 
L 290.129167 115.919473 
L 290.549449 114.645245 
L 291.564548 114.528321 
L 292.018315 113.856634 
L 292.429424 114.625816 
L 292.813274 115.409474 
L 293.666139 113.862339 
L 294.422864 116.479531 
L 294.804894 115.597643 
L 295.673334 114.303081 
L 296.074918 113.195328 
L 297.220849 116.094919 
L 298.054126 114.666389 
L 298.568963 115.654187 
L 298.977474 114.900075 
L 300.338779 115.339787 
L 301.221884 112.820046 
L 302.781527 117.513218 
L 303.128884 114.866362 
L 303.87441 116.676187 
L 304.276226 116.538931 
L 304.706117 113.979737 
L 305.581757 114.651048 
L 306.864045 113.145887 
L 308.633179 115.251288 
L 309.068968 113.784185 
L 309.471003 114.737339 
L 309.875734 115.817613 
L 310.296868 115.389611 
L 310.676214 113.570627 
L 311.073927 115.327207 
L 312.777394 114.551804 
L 313.322023 115.193365 
L 313.698876 113.583811 
L 314.07294 115.158279 
L 314.503283 116.348586 
L 315.814252 114.173587 
L 317.504017 115.935466 
L 317.895257 113.545277 
L 318.306871 115.21605 
L 318.720666 116.146474 
L 319.127674 112.718299 
L 319.511442 112.913989 
L 319.889289 117.310223 
L 320.240821 112.630565 
L 320.606303 114.228603 
L 321.044382 114.16119 
L 322.228983 117.227732 
L 322.566958 113.988616 
L 323.387313 114.786927 
L 323.755497 116.352302 
L 324.120798 116.154401 
L 325.427146 115.215705 
L 326.71511 113.437504 
L 327.128095 114.390396 
L 328.783757 114.768819 
L 329.255582 113.940562 
L 329.649806 114.694488 
L 331.677514 115.382352 
L 332.899806 113.898055 
L 333.331625 116.742329 
L 334.144322 115.780296 
L 334.564017 113.544471 
L 334.978923 116.036211 
L 335.390329 114.199283 
L 337.182137 115.641444 
L 337.609899 114.796379 
L 338.041115 113.613413 
L 338.430276 116.382564 
L 338.830311 114.810822 
L 340.540624 113.215097 
L 340.966764 116.247615 
L 341.373608 114.238106 
L 342.356219 115.833003 
L 342.782495 114.615423 
L 343.134402 117.011085 
L 343.482417 113.817362 
L 343.87291 113.745899 
L 345.10868 116.531494 
L 346.228382 114.434166 
L 346.686217 116.177463 
L 347.123039 115.71461 
L 347.589773 115.179285 
L 347.597688 17.88527 
L 347.597879 157.078979 
L 348.334384 118.176214 
L 348.66826 120.946429 
L 348.990597 116.944 
L 349.343137 119.797048 
L 349.689833 119.526096 
L 351.020691 115.63068 
L 351.583535 115.735882 
L 352.313487 117.402895 
L 353.173437 115.054901 
L 354.829096 116.915781 
L 355.224827 115.871797 
L 355.711525 116.9012 
L 358.750944 116.031148 
L 359.131349 114.417986 
L 359.515945 114.659283 
L 359.853311 117.660562 
L 360.56998 115.316827 
L 361.351451 116.923746 
L 362.796014 115.482063 
L 363.397368 115.467117 
L 363.748226 117.586083 
L 364.557322 116.557788 
L 365.011072 114.645414 
L 365.519323 115.909472 
L 365.942639 116.599861 
L 366.333723 114.98678 
L 366.717406 116.667869 
L 367.945166 114.064101 
L 368.332322 115.446244 
L 368.717572 117.258489 
L 369.065734 116.29611 
L 370.504686 114.462001 
L 372.240371 118.742281 
L 372.89758 112.993134 
L 373.595128 116.21438 
L 374.003691 114.937494 
L 374.628839 115.158775 
L 375.571333 116.41673 
L 376.811571 113.959877 
L 377.157666 116.643217 
L 377.500072 113.107338 
L 379.496919 116.499779 
L 380.796083 114.266502 
L 381.210861 114.711954 
L 384.0756 115.828364 
L 384.419492 113.225924 
L 385.22669 113.910889 
L 385.693396 114.920447 
L 386.337985 114.516806 
L 386.931742 114.678446 
L 387.279113 112.416738 
L 387.622753 113.591583 
L 388.734266 116.538107 
L 389.549165 115.895543 
L 390.022835 116.062324 
L 390.473991 114.086957 
L 390.914313 114.894606 
L 391.435501 115.093389 
L 391.812396 113.544411 
L 392.186134 115.523332 
L 393.867231 114.069132 
L 394.300435 114.598339 
L 394.649033 112.347757 
L 394.993959 114.52815 
L 395.990404 115.428142 
L 396.882594 115.969529 
L 398.232952 113.673277 
L 399.171528 115.201605 
L 400.144147 114.420025 
L 401.085247 115.260741 
L 401.577792 114.214287 
L 402.08113 115.160896 
L 403.046811 115.088031 
L 403.833033 113.298967 
L 404.229428 114.097467 
L 405.788932 115.24668 
L 407.056202 114.905078 
L 408.301461 115.320983 
L 408.64576 117.432891 
L 408.987013 115.74666 
L 410.307386 112.522868 
L 410.651454 114.436303 
L 411.135779 114.904861 
L 411.582906 114.387683 
L 411.918448 111.68098 
L 412.249816 115.46121 
L 414.067044 113.704986 
L 414.50886 114.058284 
L 414.977357 114.840104 
L 415.358334 113.343242 
L 415.736225 117.063772 
L 416.101547 114.608466 
L 416.941454 116.395651 
L 417.31913 115.513044 
L 417.681856 113.72511 
L 418.501291 114.177739 
L 419.996346 114.83509 
L 421.35883 114.026558 
L 421.787904 116.009425 
L 422.214573 115.402235 
L 422.66455 113.870038 
L 423.495827 116.648518 
L 423.87045 113.151653 
L 424.644609 114.600932 
L 425.921735 115.75251 
L 426.406757 114.898799 
L 426.789663 116.288992 
L 427.169623 116.048976 
L 428.580065 113.823039 
L 430.972958 113.916528 
L 431.43135 113.613495 
L 431.855187 115.088693 
L 432.394711 114.567594 
L 432.794387 113.693556 
L 434.027734 116.68417 
L 434.441397 114.010032 
L 434.881428 114.923196 
L 435.91755 115.003373 
L 438.741683 113.571677 
L 439.12739 115.844438 
L 439.962985 115.430137 
L 440.335437 113.771711 
L 440.705639 115.607676 
L 441.087695 117.056772 
L 441.795144 113.839986 
L 442.154828 114.659487 
L 442.982988 113.269252 
L 443.365665 116.249942 
L 444.221639 116.061708 
L 445.571173 114.135944 
L 445.962042 114.509322 
L 446.356047 114.5753 
L 446.722096 112.967947 
L 447.084815 116.540677 
L 447.899773 114.94243 
L 448.34601 113.344679 
L 448.757072 115.483872 
L 449.124816 114.327411 
L 449.495857 115.577822 
L 449.894429 115.239266 
L 450.247415 117.153861 
L 450.597232 114.362086 
L 451.847296 114.694153 
L 452.28195 113.66599 
L 452.681357 116.323401 
L 453.479364 116.162452 
L 453.906824 113.619887 
L 454.76239 113.947146 
L 455.588025 116.105588 
L 455.997436 115.311992 
L 456.396989 114.854373 
L 456.885603 116.251472 
L 457.327173 114.103377 
L 458.197445 114.713693 
L 459.45188 113.515661 
L 459.845423 115.504092 
L 460.296147 114.837442 
L 461.075169 113.588829 
L 462.352644 115.462157 
L 463.51013 114.685601 
L 463.962772 116.066546 
L 464.395588 114.799702 
L 464.744731 114.821723 
L 465.101318 116.160358 
L 465.899066 115.91872 
L 467.87876 114.142907 
L 469.122832 113.822934 
L 470.353152 116.41361 
L 471.941591 111.937501 
L 472.648532 114.416824 
L 472.979512 116.997489 
L 473.306839 113.855098 
L 474.550197 114.19236 
L 475.37077 115.050074 
L 475.766262 117.184982 
L 476.136452 115.785848 
L 477.873069 113.83614 
L 478.307751 115.171186 
L 479.113254 115.107231 
L 479.491152 113.627809 
L 479.866278 115.089218 
L 481.100536 114.517505 
L 481.462535 116.532646 
L 481.821252 114.448241 
L 482.672544 114.039561 
L 483.0688 112.89074 
L 483.457726 114.432633 
L 483.857397 115.38627 
L 484.253699 114.365061 
L 484.679225 114.580176 
L 485.060731 115.974862 
L 485.439572 114.767668 
L 485.88387 114.071523 
L 486.288585 114.418347 
L 487.66335 116.190113 
L 488.897999 114.857584 
L 489.751998 115.820531 
L 490.131958 114.918756 
L 490.515033 114.1812 
L 490.917602 115.284251 
L 492.670659 114.326429 
L 493.123513 113.339553 
L 493.544802 116.993059 
L 494.353405 115.287939 
L 494.743674 114.030532 
L 495.532608 114.516887 
L 496.338099 114.427312 
L 496.687915 112.293283 
L 497.032931 115.015631 
L 497.439952 113.836569 
L 497.908677 115.30583 
L 498.415667 114.651385 
L 499.335114 114.97783 
L 499.687805 113.125228 
L 500.04209 116.500797 
L 500.410585 113.57893 
L 501.66613 114.920497 
L 503.018823 114.841858 
L 503.435531 116.881556 
L 503.812954 114.578649 
L 504.202994 113.394044 
L 504.564567 114.948833 
L 505.434379 115.007319 
L 505.895339 115.67142 
L 506.310894 113.920013 
L 507.130199 114.621848 
L 508.350044 117.264767 
L 508.696761 111.326362 
L 509.377471 115.528026 
L 510.160751 115.819822 
L 510.537434 113.619269 
L 511.748783 115.906929 
L 512.147923 114.1449 
L 512.524099 114.290961 
L 512.969702 115.335956 
L 513.485986 114.660429 
L 515.792547 116.194147 
L 516.196321 115.348892 
L 516.601963 114.446604 
L 517.017003 114.907551 
L 517.502652 115.409354 
L 517.99877 114.22135 
L 518.501312 115.05734 
L 521.039575 114.015874 
L 521.39817 115.990901 
L 521.754239 113.463586 
L 522.143301 115.301885 
L 522.601243 115.33888 
L 522.942717 112.619476 
L 523.280735 116.718797 
L 524.849524 114.250614 
L 525.317416 114.239634 
L 526.133759 117.662244 
L 526.472801 115.764633 
L 526.818424 113.609024 
L 527.572753 114.892421 
L 528.681428 112.50557 
L 529.44683 116.237322 
L 529.801179 115.976346 
L 530.962626 113.923783 
L 531.363624 114.938328 
L 531.715659 116.750587 
L 532.06492 113.622303 
L 532.445202 115.837304 
L 532.844995 113.563734 
L 533.268634 115.584005 
L 533.658922 116.836388 
L 534.432606 113.757969 
L 534.829055 114.725439 
L 535.192886 116.310561 
L 535.554109 113.485694 
L 537.575097 116.499778 
L 537.821946 115.650197 
L 537.821946 115.650197 
" clip-path="url(#p3147c03a1e)" style="fill: none; stroke: #e41a1c; stroke-width: 2; stroke-linecap: square"/>
   </g>
   <g id="line2d_24">
    <path d="M 62.260866 114.844836 
L 62.673929 115.200135 
L 63.082646 114.309923 
L 64.543817 115.02929 
L 65.400138 114.833994 
L 67.533593 115.467854 
L 68.983821 114.456745 
L 69.279645 115.535405 
L 69.978064 115.252056 
L 71.637882 115.417984 
L 72.282394 114.278354 
L 72.572253 114.945907 
L 72.884744 115.335709 
L 73.199859 114.544103 
L 75.711111 114.915261 
L 77.434587 115.586231 
L 79.964334 114.612173 
L 80.9947 114.981736 
L 83.108815 114.420913 
L 83.373891 113.513397 
L 83.6223 114.743204 
L 83.857065 114.484659 
L 84.931644 114.619379 
L 86.266368 115.503146 
L 87.28031 115.020794 
L 106.276576 115.066974 
L 106.588407 114.074422 
L 107.219181 115.064393 
L 108.419883 114.764881 
L 113.341917 115.311948 
L 114.510266 115.353194 
L 117.800914 114.734252 
L 118.575809 115.162276 
L 118.968581 114.610788 
L 119.339185 114.898589 
L 120.60002 115.305216 
L 122.089615 114.689052 
L 123.160924 114.871219 
L 127.987925 114.45744 
L 129.265455 113.398576 
L 130.482242 114.900648 
L 132.07806 114.650305 
L 133.349865 115.610167 
L 134.293181 114.393831 
L 134.628858 115.130005 
L 156.447139 115.247617 
L 157.316859 115.574884 
L 157.354683 115.328947 
L 157.373214 92.344518 
L 157.373082 143.650324 
L 158.443302 110.434495 
L 161.88361 102.882218 
L 162.103998 103.46182 
L 172.10972 92.128153 
L 173.014863 91.578485 
L 174.947495 89.321546 
L 176.437526 88.671077 
L 186.5843 83.537953 
L 188.648139 83.491244 
L 190.321588 82.490603 
L 191.168304 82.72969 
L 191.857451 81.948681 
L 192.277181 82.411547 
L 194.531818 83.228174 
L 195.218018 82.34958 
L 195.615803 82.783773 
L 198.112693 82.236401 
L 198.487336 82.778472 
L 198.859512 82.012136 
L 200.149901 81.92721 
L 201.3924 82.229398 
L 203.148404 82.709977 
L 204.452945 82.914665 
L 204.84606 83.728787 
L 205.200483 83.261835 
L 206.909966 82.524759 
L 207.994633 83.513764 
L 209.70087 82.631972 
L 210.885346 82.766871 
L 212.731813 82.848224 
L 217.377813 84.509317 
L 218.567571 83.677746 
L 219.802742 84.310545 
L 224.628521 84.869963 
L 225.942957 84.442761 
L 227.626063 85.287902 
L 228.068596 84.431774 
L 228.467069 85.128197 
L 230.057944 85.439202 
L 230.387078 84.367299 
L 231.077371 84.889564 
L 231.853755 84.505523 
L 233.232036 84.810772 
L 257.202433 85.779957 
L 257.635982 84.835772 
L 258.053954 85.072211 
L 259.450862 85.636097 
L 261.007658 84.698387 
L 264.433191 85.43572 
L 266.977407 85.358481 
L 271.530902 84.897401 
L 271.946483 85.704943 
L 272.356263 85.463421 
L 273.473091 85.139787 
L 275.192998 84.248261 
L 276.437042 84.901339 
L 284.522444 84.7698 
L 285.796416 84.732459 
L 286.163026 85.480016 
L 286.957846 84.983901 
L 292.429424 84.741478 
L 293.257446 84.429451 
L 294.037215 85.055098 
L 295.271028 85.310591 
L 296.838869 84.668657 
L 298.054126 84.908004 
L 299.87838 85.130334 
L 300.790918 84.706833 
L 301.221884 84.17101 
L 301.6101 84.650727 
L 304.276226 86.699151 
L 305.581757 86.113284 
L 307.282851 85.119774 
L 308.633179 85.502141 
L 309.471003 85.166354 
L 310.296868 85.568719 
L 311.535013 85.326633 
L 314.07294 85.214148 
L 315.272025 85.511615 
L 317.115674 85.22894 
L 318.720666 85.779553 
L 319.511442 84.350451 
L 319.889289 85.789207 
L 320.606303 84.635729 
L 321.8871 84.631502 
L 322.228983 85.581034 
L 322.96231 84.692111 
L 327.550568 85.100995 
L 329.255582 84.486137 
L 332.053837 85.122976 
L 332.899806 84.527891 
L 334.144322 85.465175 
L 335.390329 84.958401 
L 347.589773 85.92352 
L 347.593494 85.048474 
L 347.597688 62.15124 
L 347.597879 96.1176 
L 348.334384 87.649573 
L 349.689833 90.364315 
L 351.583535 90.444514 
L 352.313487 91.565059 
L 352.693557 91.274505 
L 354.065413 91.582918 
L 356.572418 94.077697 
L 358.287213 94.915638 
L 371.876177 100.019071 
L 372.240371 101.060026 
L 372.583138 100.782863 
L 372.89758 99.674041 
L 373.595128 100.765239 
L 375.148758 100.8017 
L 375.571333 101.305508 
L 375.956396 100.526419 
L 380.796083 100.802946 
L 386.931742 101.149176 
L 388.044467 100.528875 
L 389.549165 101.66868 
L 391.435501 101.656042 
L 392.626116 101.412773 
L 393.068592 101.870111 
L 393.479695 101.422594 
L 395.990404 101.193936 
L 397.760573 101.192052 
L 398.6727 101.158439 
L 403.046811 101.193611 
L 404.696597 100.578443 
L 408.301461 100.886822 
L 408.64576 101.757096 
L 409.449809 101.402648 
L 415.358334 99.369741 
L 415.736225 100.606368 
L 416.560975 100.194287 
L 417.31913 100.601784 
L 418.501291 100.070758 
L 442.560272 99.783805 
L 443.754991 99.888021 
L 445.104861 100.224631 
L 446.722096 99.241552 
L 447.084815 100.35426 
L 447.899773 99.992099 
L 449.124816 99.597873 
L 450.247415 100.779607 
L 450.597232 100.034617 
L 496.338099 100.081676 
L 497.439952 99.432078 
L 498.871969 99.759888 
L 508.350044 100.732936 
L 508.696761 98.804785 
L 509.377471 100.01278 
L 510.537434 99.337598 
L 511.748783 100.171262 
L 512.147923 99.631871 
L 515.35747 100.087362 
L 516.601963 100.091119 
L 519.807045 100.14329 
L 522.942717 99.073694 
L 524.034842 100.20689 
L 526.472801 100.899488 
L 527.93905 100.050537 
L 528.681428 99.218464 
L 529.064658 99.872731 
L 530.20444 100.426815 
L 531.363624 100.053018 
L 532.445202 100.519085 
L 532.844995 99.761288 
L 533.268634 100.378174 
L 533.658922 100.99395 
L 534.017233 100.256894 
L 534.829055 100.191323 
L 535.192886 100.789327 
L 535.554109 99.906948 
L 537.821946 100.413131 
L 537.821946 100.413131 
" clip-path="url(#p3147c03a1e)" style="fill: none; stroke: #377eb8; stroke-width: 2; stroke-linecap: square"/>
   </g>
   <g id="patch_3">
    <path d="M 38.482813 242.275937 
L 38.482813 7.2 
" style="fill: none; stroke: #7f7f7f; stroke-width: 1.8; stroke-linejoin: miter; stroke-linecap: square"/>
   </g>
   <g id="patch_4">
    <path d="M 38.482813 242.275937 
L 561.6 242.275937 
" style="fill: none; stroke: #7f7f7f; stroke-width: 1.8; stroke-linejoin: miter; stroke-linecap: square"/>
   </g>
   <g id="legend_1">
    <g id="line2d_25">
     <path d="M 499.584375 20.298437 
L 509.584375 20.298437 
L 519.584375 20.298437 
" style="fill: none; stroke: #e41a1c; stroke-width: 2; stroke-linecap: square"/>
    </g>
    <g id="text_13">
     <!-- err 2 -->
     <g style="fill: #7f7f7f" transform="translate(527.584375 23.798437) scale(0.1 -0.1)">
      <defs>
       <path id="DejaVuSans-72" d="M 2631 2963 
Q 2534 3019 2420 3045 
Q 2306 3072 2169 3072 
Q 1681 3072 1420 2755 
Q 1159 2438 1159 1844 
L 1159 0 
L 581 0 
L 581 3500 
L 1159 3500 
L 1159 2956 
Q 1341 3275 1631 3429 
Q 1922 3584 2338 3584 
Q 2397 3584 2469 3576 
Q 2541 3569 2628 3553 
L 2631 2963 
z
" transform="scale(0.015625)"/>
      </defs>
      <use xlink:href="#DejaVuSans-65"/>
      <use xlink:href="#DejaVuSans-72" transform="translate(61.523438 0)"/>
      <use xlink:href="#DejaVuSans-72" transform="translate(100.886719 0)"/>
      <use xlink:href="#DejaVuSans-20" transform="translate(142 0)"/>
      <use xlink:href="#DejaVuSans-32" transform="translate(173.787109 0)"/>
     </g>
    </g>
    <g id="line2d_26">
     <path d="M 499.584375 34.976562 
L 509.584375 34.976562 
L 519.584375 34.976562 
" style="fill: none; stroke: #377eb8; stroke-width: 2; stroke-linecap: square"/>
    </g>
    <g id="text_14">
     <!-- pid 2 -->
     <g style="fill: #7f7f7f" transform="translate(527.584375 38.476562) scale(0.1 -0.1)">
      <defs>
       <path id="DejaVuSans-70" d="M 1159 525 
L 1159 -1331 
L 581 -1331 
L 581 3500 
L 1159 3500 
L 1159 2969 
Q 1341 3281 1617 3432 
Q 1894 3584 2278 3584 
Q 2916 3584 3314 3078 
Q 3713 2572 3713 1747 
Q 3713 922 3314 415 
Q 2916 -91 2278 -91 
Q 1894 -91 1617 61 
Q 1341 213 1159 525 
z
M 3116 1747 
Q 3116 2381 2855 2742 
Q 2594 3103 2138 3103 
Q 1681 3103 1420 2742 
Q 1159 2381 1159 1747 
Q 1159 1113 1420 752 
Q 1681 391 2138 391 
Q 2594 391 2855 752 
Q 3116 1113 3116 1747 
z
" transform="scale(0.015625)"/>
       <path id="DejaVuSans-64" d="M 2906 2969 
L 2906 4863 
L 3481 4863 
L 3481 0 
L 2906 0 
L 2906 525 
Q 2725 213 2448 61 
Q 2172 -91 1784 -91 
Q 1150 -91 751 415 
Q 353 922 353 1747 
Q 353 2572 751 3078 
Q 1150 3584 1784 3584 
Q 2172 3584 2448 3432 
Q 2725 3281 2906 2969 
z
M 947 1747 
Q 947 1113 1208 752 
Q 1469 391 1925 391 
Q 2381 391 2643 752 
Q 2906 1113 2906 1747 
Q 2906 2381 2643 2742 
Q 2381 3103 1925 3103 
Q 1469 3103 1208 2742 
Q 947 2381 947 1747 
z
" transform="scale(0.015625)"/>
      </defs>
      <use xlink:href="#DejaVuSans-70"/>
      <use xlink:href="#DejaVuSans-69" transform="translate(63.476562 0)"/>
      <use xlink:href="#DejaVuSans-64" transform="translate(91.259766 0)"/>
      <use xlink:href="#DejaVuSans-20" transform="translate(154.736328 0)"/>
      <use xlink:href="#DejaVuSans-32" transform="translate(186.523438 0)"/>
     </g>
    </g>
   </g>
  </g>
 </g>
 <defs>
  <clipPath id="p3147c03a1e">
   <rect x="38.482813" y="7.2" width="523.117187" height="235.075938"/>
  </clipPath>
 </defs>
</svg>
