<?xml version="1.0" encoding="utf-8" standalone="no"?>
<!DOCTYPE svg PUBLIC "-//W3C//DTD SVG 1.1//EN"
  "http://www.w3.org/Graphics/SVG/1.1/DTD/svg11.dtd">
<svg xmlns:xlink="http://www.w3.org/1999/xlink" width="568.8pt" height="280.8pt" viewBox="0 0 568.8 280.8" xmlns="http://www.w3.org/2000/svg" version="1.1">
 <metadata>
  <rdf:RDF xmlns:dc="http://purl.org/dc/elements/1.1/" xmlns:cc="http://creativecommons.org/ns#" xmlns:rdf="http://www.w3.org/1999/02/22-rdf-syntax-ns#">
   <cc:Work>
    <dc:type rdf:resource="http://purl.org/dc/dcmitype/StillImage"/>
    <dc:date>2026-07-23T02:29:48.567892</dc:date>
    <dc:format>image/svg+xml</dc:format>
    <dc:creator>
     <cc:Agent>
      <dc:title>Matplotlib v3.11.1, https://matplotlib.org/</dc:title>
     </cc:Agent>
    </dc:creator>
   </cc:Work>
  </rdf:RDF>
 </metadata>
 <defs>
  <style type="text/css">*{stroke-linejoin: round; stroke-linecap: butt}</style>
 </defs>
 <g id="figure_1">
  <g id="patch_1">
   <path d="M 0 280.8 
L 568.8 280.8 
L 568.8 0 
L 0 0 
L 0 280.8 
z
" style="fill: none"/>
  </g>
  <g id="axes_1">
   <g id="patch_2">
    <path d="M 30.103125 241.599141 
L 561.6 241.599141 
L 561.6 7.2 
L 30.103125 7.2 
L 30.103125 241.599141 
z
" style="fill: none"/>
   </g>
   <g id="matplotlib.axis_1">
    <g id="xtick_1">
     <g id="line2d_1">
      <path d="M 54.262074 241.599141 
L 54.262074 7.2 
" clip-path="url(#pa81265f7e1)" style="fill: none; stroke-dasharray: 2.96,1.28; stroke-dashoffset: 0; stroke: #7f7f7f; stroke-opacity: 0.6; stroke-width: 0.8"/>
     </g>
     <g id="line2d_2">
      <defs>
       <path id="m608cd3abe5" d="M 0 0 
L 0 3.5 
" style="stroke: #7f7f7f; stroke-width: 1.8"/>
      </defs>
      <g>
       <use xlink:href="#m608cd3abe5" x="54.262074" y="241.599141" style="fill: #7f7f7f; stroke: #7f7f7f; stroke-width: 1.8"/>
      </g>
     </g>
     <g id="text_1">
      <!-- 0 -->
      <g style="fill: #7f7f7f" transform="translate(51.080824 256.196797) scale(0.1 -0.1)">
       <defs>
        <path id="DejaVuSans-13" d="M 2034 4250 
Q 1547 4250 1301 3770 
Q 1056 3291 1056 2328 
Q 1056 1369 1301 889 
Q 1547 409 2034 409 
Q 2525 409 2770 889 
Q 3016 1369 3016 2328 
Q 3016 3291 2770 3770 
Q 2525 4250 2034 4250 
z
M 2034 4750 
Q 2819 4750 3233 4129 
Q 3647 3509 3647 2328 
Q 3647 1150 3233 529 
Q 2819 -91 2034 -91 
Q 1250 -91 836 529 
Q 422 1150 422 2328 
Q 422 3509 836 4129 
Q 1250 4750 2034 4750 
z
" transform="scale(0.015625)"/>
       </defs>
       <use xlink:href="#DejaVuSans-13"/>
      </g>
     </g>
    </g>
    <g id="xtick_2">
     <g id="line2d_3">
      <path d="M 150.897869 241.599141 
L 150.897869 7.2 
" clip-path="url(#pa81265f7e1)" style="fill: none; stroke-dasharray: 2.96,1.28; stroke-dashoffset: 0; stroke: #7f7f7f; stroke-opacity: 0.6; stroke-width: 0.8"/>
     </g>
     <g id="line2d_4">
      <g>
       <use xlink:href="#m608cd3abe5" x="150.897869" y="241.599141" style="fill: #7f7f7f; stroke: #7f7f7f; stroke-width: 1.8"/>
      </g>
     </g>
     <g id="text_2">
      <!-- 20 -->
      <g style="fill: #7f7f7f" transform="translate(144.535369 256.196797) scale(0.1 -0.1)">
       <defs>
        <path id="DejaVuSans-15" d="M 1228 531 
L 3431 531 
L 3431 0 
L 469 0 
L 469 531 
Q 828 903 1448 1529 
Q 2069 2156 2228 2338 
Q 2531 2678 2651 2914 
Q 2772 3150 2772 3378 
Q 2772 3750 2511 3984 
Q 2250 4219 1831 4219 
Q 1534 4219 1204 4116 
Q 875 4013 500 3803 
L 500 4441 
Q 881 4594 1212 4672 
Q 1544 4750 1819 4750 
Q 2544 4750 2975 4387 
Q 3406 4025 3406 3419 
Q 3406 3131 3298 2873 
Q 3191 2616 2906 2266 
Q 2828 2175 2409 1742 
Q 1991 1309 1228 531 
z
" transform="scale(0.015625)"/>
       </defs>
       <use xlink:href="#DejaVuSans-15"/>
       <use xlink:href="#DejaVuSans-13" transform="translate(63.625 0)"/>
      </g>
     </g>
    </g>
    <g id="xtick_3">
     <g id="line2d_5">
      <path d="M 247.533665 241.599141 
L 247.533665 7.2 
" clip-path="url(#pa81265f7e1)" style="fill: none; stroke-dasharray: 2.96,1.28; stroke-dashoffset: 0; stroke: #7f7f7f; stroke-opacity: 0.6; stroke-width: 0.8"/>
     </g>
     <g id="line2d_6">
      <g>
       <use xlink:href="#m608cd3abe5" x="247.533665" y="241.599141" style="fill: #7f7f7f; stroke: #7f7f7f; stroke-width: 1.8"/>
      </g>
     </g>
     <g id="text_3">
      <!-- 40 -->
      <g style="fill: #7f7f7f" transform="translate(241.171165 256.196797) scale(0.1 -0.1)">
       <defs>
        <path id="DejaVuSans-17" d="M 2419 4116 
L 825 1625 
L 2419 1625 
L 2419 4116 
z
M 2253 4666 
L 3047 4666 
L 3047 1625 
L 3713 1625 
L 3713 1100 
L 3047 1100 
L 3047 0 
L 2419 0 
L 2419 1100 
L 313 1100 
L 313 1709 
L 2253 4666 
z
" transform="scale(0.015625)"/>
       </defs>
       <use xlink:href="#DejaVuSans-17"/>
       <use xlink:href="#DejaVuSans-13" transform="translate(63.625 0)"/>
      </g>
     </g>
    </g>
    <g id="xtick_4">
     <g id="line2d_7">
      <path d="M 344.16946 241.599141 
L 344.16946 7.2 
" clip-path="url(#pa81265f7e1)" style="fill: none; stroke-dasharray: 2.96,1.28; stroke-dashoffset: 0; stroke: #7f7f7f; stroke-opacity: 0.6; stroke-width: 0.8"/>
     </g>
     <g id="line2d_8">
      <g>
       <use xlink:href="#m608cd3abe5" x="344.16946" y="241.599141" style="fill: #7f7f7f; stroke: #7f7f7f; stroke-width: 1.8"/>
      </g>
     </g>
     <g id="text_4">
      <!-- 60 -->
      <g style="fill: #7f7f7f" transform="translate(337.80696 256.196797) scale(0.1 -0.1)">
       <defs>
        <path id="DejaVuSans-19" d="M 2113 2584 
Q 1688 2584 1439 2293 
Q 1191 2003 1191 1497 
Q 1191 994 1439 701 
Q 1688 409 2113 409 
Q 2538 409 2786 701 
Q 3034 994 3034 1497 
Q 3034 2003 2786 2293 
Q 2538 2584 2113 2584 
z
M 3366 4563 
L 3366 3988 
Q 3128 4100 2886 4159 
Q 2644 4219 2406 4219 
Q 1781 4219 1451 3797 
Q 1122 3375 1075 2522 
Q 1259 2794 1537 2939 
Q 1816 3084 2150 3084 
Q 2853 3084 3261 2657 
Q 3669 2231 3669 1497 
Q 3669 778 3244 343 
Q 2819 -91 2113 -91 
Q 1303 -91 875 529 
Q 447 1150 447 2328 
Q 447 3434 972 4092 
Q 1497 4750 2381 4750 
Q 2619 4750 2861 4703 
Q 3103 4656 3366 4563 
z
" transform="scale(0.015625)"/>
       </defs>
       <use xlink:href="#DejaVuSans-19"/>
       <use xlink:href="#DejaVuSans-13" transform="translate(63.625 0)"/>
      </g>
     </g>
    </g>
    <g id="xtick_5">
     <g id="line2d_9">
      <path d="M 440.805256 241.599141 
L 440.805256 7.2 
" clip-path="url(#pa81265f7e1)" style="fill: none; stroke-dasharray: 2.96,1.28; stroke-dashoffset: 0; stroke: #7f7f7f; stroke-opacity: 0.6; stroke-width: 0.8"/>
     </g>
     <g id="line2d_10">
      <g>
       <use xlink:href="#m608cd3abe5" x="440.805256" y="241.599141" style="fill: #7f7f7f; stroke: #7f7f7f; stroke-width: 1.8"/>
      </g>
     </g>
     <g id="text_5">
      <!-- 80 -->
      <g style="fill: #7f7f7f" transform="translate(434.442756 256.196797) scale(0.1 -0.1)">
       <defs>
        <path id="DejaVuSans-1b" d="M 2034 2216 
Q 1584 2216 1326 1975 
Q 1069 1734 1069 1313 
Q 1069 891 1326 650 
Q 1584 409 2034 409 
Q 2484 409 2743 651 
Q 3003 894 3003 1313 
Q 3003 1734 2745 1975 
Q 2488 2216 2034 2216 
z
M 1403 2484 
Q 997 2584 770 2862 
Q 544 3141 544 3541 
Q 544 4100 942 4425 
Q 1341 4750 2034 4750 
Q 2731 4750 3128 4425 
Q 3525 4100 3525 3541 
Q 3525 3141 3298 2862 
Q 3072 2584 2669 2484 
Q 3125 2378 3379 2068 
Q 3634 1759 3634 1313 
Q 3634 634 3220 271 
Q 2806 -91 2034 -91 
Q 1263 -91 848 271 
Q 434 634 434 1313 
Q 434 1759 690 2068 
Q 947 2378 1403 2484 
z
M 1172 3481 
Q 1172 3119 1398 2916 
Q 1625 2713 2034 2713 
Q 2441 2713 2670 2916 
Q 2900 3119 2900 3481 
Q 2900 3844 2670 4047 
Q 2441 4250 2034 4250 
Q 1625 4250 1398 4047 
Q 1172 3844 1172 3481 
z
" transform="scale(0.015625)"/>
       </defs>
       <use xlink:href="#DejaVuSans-1b"/>
       <use xlink:href="#DejaVuSans-13" transform="translate(63.625 0)"/>
      </g>
     </g>
    </g>
    <g id="xtick_6">
     <g id="line2d_11">
      <path d="M 537.441051 241.599141 
L 537.441051 7.2 
" clip-path="url(#pa81265f7e1)" style="fill: none; stroke-dasharray: 2.96,1.28; stroke-dashoffset: 0; stroke: #7f7f7f; stroke-opacity: 0.6; stroke-width: 0.8"/>
     </g>
     <g id="line2d_12">
      <g>
       <use xlink:href="#m608cd3abe5" x="537.441051" y="241.599141" style="fill: #7f7f7f; stroke: #7f7f7f; stroke-width: 1.8"/>
      </g>
     </g>
     <g id="text_6">
      <!-- 100 -->
      <g style="fill: #7f7f7f" transform="translate(527.897301 256.196797) scale(0.1 -0.1)">
       <defs>
        <path id="DejaVuSans-14" d="M 794 531 
L 1825 531 
L 1825 4091 
L 703 3866 
L 703 4441 
L 1819 4666 
L 2450 4666 
L 2450 531 
L 3481 531 
L 3481 0 
L 794 0 
L 794 531 
z
" transform="scale(0.015625)"/>
       </defs>
       <use xlink:href="#DejaVuSans-14"/>
       <use xlink:href="#DejaVuSans-13" transform="translate(63.625 0)"/>
       <use xlink:href="#DejaVuSans-13" transform="translate(127.25 0)"/>
      </g>
     </g>
    </g>
    <g id="text_7">
     <!-- time [s] -->
     <g style="fill: #7f7f7f" transform="translate(274.521016 270.957422) scale(0.11 -0.11)">
      <defs>
       <path id="DejaVuSans-57" d="M 1172 4494 
L 1172 3500 
L 2356 3500 
L 2356 3053 
L 1172 3053 
L 1172 1153 
Q 1172 725 1289 603 
Q 1406 481 1766 481 
L 2356 481 
L 2356 0 
L 1766 0 
Q 1100 0 847 248 
Q 594 497 594 1153 
L 594 3053 
L 172 3053 
L 172 3500 
L 594 3500 
L 594 4494 
L 1172 4494 
z
" transform="scale(0.015625)"/>
       <path id="DejaVuSans-4c" d="M 603 3500 
L 1178 3500 
L 1178 0 
L 603 0 
L 603 3500 
z
M 603 4863 
L 1178 4863 
L 1178 4134 
L 603 4134 
L 603 4863 
z
" transform="scale(0.015625)"/>
       <path id="DejaVuSans-50" d="M 3328 2828 
Q 3544 3216 3844 3400 
Q 4144 3584 4550 3584 
Q 5097 3584 5394 3201 
Q 5691 2819 5691 2113 
L 5691 0 
L 5113 0 
L 5113 2094 
Q 5113 2597 4934 2840 
Q 4756 3084 4391 3084 
Q 3944 3084 3684 2787 
Q 3425 2491 3425 1978 
L 3425 0 
L 2847 0 
L 2847 2094 
Q 2847 2600 2669 2842 
Q 2491 3084 2119 3084 
Q 1678 3084 1418 2786 
Q 1159 2488 1159 1978 
L 1159 0 
L 581 0 
L 581 3500 
L 1159 3500 
L 1159 2956 
Q 1356 3278 1631 3431 
Q 1906 3584 2284 3584 
Q 2666 3584 2933 3390 
Q 3200 3197 3328 2828 
z
" transform="scale(0.015625)"/>
       <path id="DejaVuSans-48" d="M 3597 1894 
L 3597 1613 
L 953 1613 
Q 991 1019 1311 708 
Q 1631 397 2203 397 
Q 2534 397 2845 478 
Q 3156 559 3463 722 
L 3463 178 
Q 3153 47 2828 -22 
Q 2503 -91 2169 -91 
Q 1331 -91 842 396 
Q 353 884 353 1716 
Q 353 2575 817 3079 
Q 1281 3584 2069 3584 
Q 2775 3584 3186 3129 
Q 3597 2675 3597 1894 
z
M 3022 2063 
Q 3016 2534 2758 2815 
Q 2500 3097 2075 3097 
Q 1594 3097 1305 2825 
Q 1016 2553 972 2059 
L 3022 2063 
z
" transform="scale(0.015625)"/>
       <path id="DejaVuSans-3" transform="scale(0.015625)"/>
       <path id="DejaVuSans-3e" d="M 550 4863 
L 1875 4863 
L 1875 4416 
L 1125 4416 
L 1125 -397 
L 1875 -397 
L 1875 -844 
L 550 -844 
L 550 4863 
z
" transform="scale(0.015625)"/>
       <path id="DejaVuSans-56" d="M 2834 3397 
L 2834 2853 
Q 2591 2978 2328 3040 
Q 2066 3103 1784 3103 
Q 1356 3103 1142 2972 
Q 928 2841 928 2578 
Q 928 2378 1081 2264 
Q 1234 2150 1697 2047 
L 1894 2003 
Q 2506 1872 2764 1633 
Q 3022 1394 3022 966 
Q 3022 478 2636 193 
Q 2250 -91 1575 -91 
Q 1294 -91 989 -36 
Q 684 19 347 128 
L 347 722 
Q 666 556 975 473 
Q 1284 391 1588 391 
Q 1994 391 2212 530 
Q 2431 669 2431 922 
Q 2431 1156 2273 1281 
Q 2116 1406 1581 1522 
L 1381 1569 
Q 847 1681 609 1914 
Q 372 2147 372 2553 
Q 372 3047 722 3315 
Q 1072 3584 1716 3584 
Q 2034 3584 2315 3537 
Q 2597 3491 2834 3397 
z
" transform="scale(0.015625)"/>
       <path id="DejaVuSans-40" d="M 1947 4863 
L 1947 -844 
L 622 -844 
L 622 -397 
L 1369 -397 
L 1369 4416 
L 622 4416 
L 622 4863 
L 1947 4863 
z
" transform="scale(0.015625)"/>
      </defs>
      <use xlink:href="#DejaVuSans-57"/>
      <use xlink:href="#DejaVuSans-4c" transform="translate(39.203125 0)"/>
      <use xlink:href="#DejaVuSans-50" transform="translate(66.984375 0)"/>
      <use xlink:href="#DejaVuSans-48" transform="translate(164.390625 0)"/>
      <use xlink:href="#DejaVuSans-3" transform="translate(225.921875 0)"/>
      <use xlink:href="#DejaVuSans-3e" transform="translate(257.703125 0)"/>
      <use xlink:href="#DejaVuSans-56" transform="translate(296.71875 0)"/>
      <use xlink:href="#DejaVuSans-40" transform="translate(348.8125 0)"/>
     </g>
    </g>
   </g>
   <g id="matplotlib.axis_2">
    <g id="ytick_1">
     <g id="line2d_13">
      <path d="M 30.103125 215.274907 
L 561.6 215.274907 
" clip-path="url(#pa81265f7e1)" style="fill: none; stroke-dasharray: 2.96,1.28; stroke-dashoffset: 0; stroke: #7f7f7f; stroke-opacity: 0.6; stroke-width: 0.8"/>
     </g>
     <g id="line2d_14">
      <defs>
       <path id="mb0448632ee" d="M 0 0 
L -3.5 0 
" style="stroke: #7f7f7f; stroke-width: 1.8"/>
      </defs>
      <g>
       <use xlink:href="#mb0448632ee" x="30.103125" y="215.274907" style="fill: #7f7f7f; stroke: #7f7f7f; stroke-width: 1.8"/>
      </g>
     </g>
     <g id="text_8">
      <!-- 0.0 -->
      <g style="fill: #7f7f7f" transform="translate(7.2 219.073735) scale(0.1 -0.1)">
       <defs>
        <path id="DejaVuSans-11" d="M 684 794 
L 1344 794 
L 1344 0 
L 684 0 
L 684 794 
z
" transform="scale(0.015625)"/>
       </defs>
       <use xlink:href="#DejaVuSans-13"/>
       <use xlink:href="#DejaVuSans-11" transform="translate(63.625 0)"/>
       <use xlink:href="#DejaVuSans-13" transform="translate(95.40625 0)"/>
      </g>
     </g>
    </g>
    <g id="ytick_2">
     <g id="line2d_15">
      <path d="M 30.103125 182.669074 
L 561.6 182.669074 
" clip-path="url(#pa81265f7e1)" style="fill: none; stroke-dasharray: 2.96,1.28; stroke-dashoffset: 0; stroke: #7f7f7f; stroke-opacity: 0.6; stroke-width: 0.8"/>
     </g>
     <g id="line2d_16">
      <g>
       <use xlink:href="#mb0448632ee" x="30.103125" y="182.669074" style="fill: #7f7f7f; stroke: #7f7f7f; stroke-width: 1.8"/>
      </g>
     </g>
     <g id="text_9">
      <!-- 0.2 -->
      <g style="fill: #7f7f7f" transform="translate(7.2 186.467902) scale(0.1 -0.1)">
       <use xlink:href="#DejaVuSans-13"/>
       <use xlink:href="#DejaVuSans-11" transform="translate(63.625 0)"/>
       <use xlink:href="#DejaVuSans-15" transform="translate(95.40625 0)"/>
      </g>
     </g>
    </g>
    <g id="ytick_3">
     <g id="line2d_17">
      <path d="M 30.103125 150.06324 
L 561.6 150.06324 
" clip-path="url(#pa81265f7e1)" style="fill: none; stroke-dasharray: 2.96,1.28; stroke-dashoffset: 0; stroke: #7f7f7f; stroke-opacity: 0.6; stroke-width: 0.8"/>
     </g>
     <g id="line2d_18">
      <g>
       <use xlink:href="#mb0448632ee" x="30.103125" y="150.06324" style="fill: #7f7f7f; stroke: #7f7f7f; stroke-width: 1.8"/>
      </g>
     </g>
     <g id="text_10">
      <!-- 0.4 -->
      <g style="fill: #7f7f7f" transform="translate(7.2 153.862068) scale(0.1 -0.1)">
       <use xlink:href="#DejaVuSans-13"/>
       <use xlink:href="#DejaVuSans-11" transform="translate(63.625 0)"/>
       <use xlink:href="#DejaVuSans-17" transform="translate(95.40625 0)"/>
      </g>
     </g>
    </g>
    <g id="ytick_4">
     <g id="line2d_19">
      <path d="M 30.103125 117.457407 
L 561.6 117.457407 
" clip-path="url(#pa81265f7e1)" style="fill: none; stroke-dasharray: 2.96,1.28; stroke-dashoffset: 0; stroke: #7f7f7f; stroke-opacity: 0.6; stroke-width: 0.8"/>
     </g>
     <g id="line2d_20">
      <g>
       <use xlink:href="#mb0448632ee" x="30.103125" y="117.457407" style="fill: #7f7f7f; stroke: #7f7f7f; stroke-width: 1.8"/>
      </g>
     </g>
     <g id="text_11">
      <!-- 0.6 -->
      <g style="fill: #7f7f7f" transform="translate(7.2 121.256235) scale(0.1 -0.1)">
       <use xlink:href="#DejaVuSans-13"/>
       <use xlink:href="#DejaVuSans-11" transform="translate(63.625 0)"/>
       <use xlink:href="#DejaVuSans-19" transform="translate(95.40625 0)"/>
      </g>
     </g>
    </g>
    <g id="ytick_5">
     <g id="line2d_21">
      <path d="M 30.103125 84.851574 
L 561.6 84.851574 
" clip-path="url(#pa81265f7e1)" style="fill: none; stroke-dasharray: 2.96,1.28; stroke-dashoffset: 0; stroke: #7f7f7f; stroke-opacity: 0.6; stroke-width: 0.8"/>
     </g>
     <g id="line2d_22">
      <g>
       <use xlink:href="#mb0448632ee" x="30.103125" y="84.851574" style="fill: #7f7f7f; stroke: #7f7f7f; stroke-width: 1.8"/>
      </g>
     </g>
     <g id="text_12">
      <!-- 0.8 -->
      <g style="fill: #7f7f7f" transform="translate(7.2 88.650402) scale(0.1 -0.1)">
       <use xlink:href="#DejaVuSans-13"/>
       <use xlink:href="#DejaVuSans-11" transform="translate(63.625 0)"/>
       <use xlink:href="#DejaVuSans-1b" transform="translate(95.40625 0)"/>
      </g>
     </g>
    </g>
    <g id="ytick_6">
     <g id="line2d_23">
      <path d="M 30.103125 52.24574 
L 561.6 52.24574 
" clip-path="url(#pa81265f7e1)" style="fill: none; stroke-dasharray: 2.96,1.28; stroke-dashoffset: 0; stroke: #7f7f7f; stroke-opacity: 0.6; stroke-width: 0.8"/>
     </g>
     <g id="line2d_24">
      <g>
       <use xlink:href="#mb0448632ee" x="30.103125" y="52.24574" style="fill: #7f7f7f; stroke: #7f7f7f; stroke-width: 1.8"/>
      </g>
     </g>
     <g id="text_13">
      <!-- 1.0 -->
      <g style="fill: #7f7f7f" transform="translate(7.2 56.044568) scale(0.1 -0.1)">
       <use xlink:href="#DejaVuSans-14"/>
       <use xlink:href="#DejaVuSans-11" transform="translate(63.625 0)"/>
       <use xlink:href="#DejaVuSans-13" transform="translate(95.40625 0)"/>
      </g>
     </g>
    </g>
    <g id="ytick_7">
     <g id="line2d_25">
      <path d="M 30.103125 19.639907 
L 561.6 19.639907 
" clip-path="url(#pa81265f7e1)" style="fill: none; stroke-dasharray: 2.96,1.28; stroke-dashoffset: 0; stroke: #7f7f7f; stroke-opacity: 0.6; stroke-width: 0.8"/>
     </g>
     <g id="line2d_26">
      <g>
       <use xlink:href="#mb0448632ee" x="30.103125" y="19.639907" style="fill: #7f7f7f; stroke: #7f7f7f; stroke-width: 1.8"/>
      </g>
     </g>
     <g id="text_14">
      <!-- 1.2 -->
      <g style="fill: #7f7f7f" transform="translate(7.2 23.438735) scale(0.1 -0.1)">
       <use xlink:href="#DejaVuSans-14"/>
       <use xlink:href="#DejaVuSans-11" transform="translate(63.625 0)"/>
       <use xlink:href="#DejaVuSans-15" transform="translate(95.40625 0)"/>
      </g>
     </g>
    </g>
   </g>
   <g id="line2d_27">
    <path d="M 54.262074 215.274907 
L 150.897852 215.274907 
L 151.782839 52.24574 
L 344.16944 52.24574 
L 345.163101 133.760324 
L 537.441051 133.760324 
L 537.441051 133.760324 
" clip-path="url(#pa81265f7e1)" style="fill: none; stroke: #e41a1c; stroke-width: 2; stroke-linecap: square"/>
   </g>
   <g id="line2d_28">
    <path d="M 54.262074 215.274907 
L 54.310392 215.285544 
L 54.424688 213.227657 
L 55.111111 214.69729 
L 56.619607 215.404009 
L 57.631295 214.329411 
L 58.033696 214.911623 
L 58.576344 214.704122 
L 58.946207 215.655446 
L 59.325926 215.341058 
L 59.729044 214.472511 
L 60.417088 215.260248 
L 60.780114 214.657998 
L 61.587946 215.253929 
L 63.482409 216.402182 
L 63.845235 214.553776 
L 64.574952 215.087331 
L 82.897549 214.958134 
L 83.274956 216.156194 
L 83.634506 215.965424 
L 85.091585 215.05786 
L 86.36483 215.322841 
L 90.254959 215.445897 
L 92.405577 215.306572 
L 93.680138 214.568565 
L 94.435036 215.704732 
L 95.870918 214.61686 
L 96.169706 214.555337 
L 96.526659 216.099618 
L 97.286632 215.552424 
L 101.554146 214.751831 
L 101.953667 215.848364 
L 102.358772 215.371997 
L 103.139932 215.243128 
L 104.21479 215.573969 
L 105.530558 215.53587 
L 107.0029 215.646921 
L 108.123846 214.338096 
L 109.246433 216.100943 
L 111.259339 215.04332 
L 112.969555 215.855561 
L 113.356101 214.936319 
L 114.094752 215.63686 
L 115.065133 215.658756 
L 116.123073 214.783613 
L 117.227929 216.098655 
L 117.480367 215.701311 
L 118.487125 215.097047 
L 118.91064 215.961357 
L 119.272799 214.878143 
L 121.228957 215.093563 
L 122.780183 215.613823 
L 123.565095 214.682461 
L 124.189686 215.294137 
L 124.979302 215.40243 
L 126.116571 215.04377 
L 126.402396 215.784106 
L 126.801635 215.256983 
L 128.11912 214.622328 
L 128.484537 216.162389 
L 128.851101 215.233824 
L 129.880824 214.891993 
L 132.848984 215.443314 
L 133.238577 214.527719 
L 133.634779 215.128181 
L 135.445963 215.671621 
L 136.632835 215.523889 
L 137.358501 215.881797 
L 138.055153 214.695606 
L 138.386842 215.356759 
L 139.506412 216.055502 
L 140.152314 214.86438 
L 140.506313 215.615092 
L 141.348064 215.770036 
L 142.545482 215.475276 
L 143.778615 215.351914 
L 150.749164 215.736669 
L 150.897852 202.896184 
L 150.896299 221.963766 
L 150.897972 210.810915 
L 150.898081 178.185234 
L 150.914122 217.811822 
L 151.782839 214.371045 
L 152.070652 215.989055 
L 152.669646 214.382591 
L 152.825526 214.221541 
L 152.98923 215.362753 
L 153.164632 215.550249 
L 153.35662 214.038756 
L 153.981847 216.319314 
L 155.118211 214.346064 
L 155.363358 215.026157 
L 155.878003 213.776503 
L 156.42696 214.230155 
L 156.773699 212.937914 
L 157.502167 213.70202 
L 162.718491 200.279859 
L 165.300871 188.531855 
L 176.303209 129.844624 
L 179.280391 113.747561 
L 183.424601 94.083702 
L 189.012456 73.200418 
L 193.932209 58.580007 
L 194.29826 58.470507 
L 196.835955 52.57128 
L 203.39952 43.794631 
L 204.41324 43.726531 
L 205.320407 42.34644 
L 205.795551 42.504815 
L 207.0677 41.101284 
L 207.536617 42.731263 
L 207.908473 41.065033 
L 209.167825 40.881676 
L 210.567463 40.373593 
L 211.773862 40.575249 
L 212.228857 39.952241 
L 212.699911 40.497634 
L 214.758044 41.044753 
L 215.204329 41.253263 
L 215.665687 39.660942 
L 216.110207 40.495117 
L 218.042051 41.223024 
L 219.189104 41.683846 
L 219.550825 40.956864 
L 219.909228 41.17526 
L 221.235299 42.854074 
L 222.526584 42.413188 
L 223.276261 43.395955 
L 223.669166 42.524424 
L 224.538626 42.715682 
L 225.036823 43.995872 
L 225.56287 43.582192 
L 226.832435 43.914949 
L 227.663177 44.290663 
L 229.078852 45.154475 
L 230.313455 45.383919 
L 232.332679 46.872255 
L 232.886696 46.52079 
L 233.415947 47.751716 
L 233.915047 47.530865 
L 234.409715 47.110921 
L 235.275433 48.296588 
L 236.259738 47.480265 
L 237.697316 49.360432 
L 238.062898 48.44945 
L 238.460241 49.274416 
L 239.355359 49.706294 
L 250.202217 52.424186 
L 251.020074 51.581158 
L 251.448615 51.98619 
L 252.686538 52.423101 
L 254.372671 52.244795 
L 255.664204 51.892491 
L 259.353802 52.256037 
L 260.505782 51.99177 
L 261.258773 53.380122 
L 261.714205 52.649315 
L 262.477793 53.309664 
L 262.872386 52.287573 
L 269.079024 53.20022 
L 269.457287 52.597482 
L 269.825414 52.913017 
L 270.968734 52.947314 
L 271.780335 52.489159 
L 273.19769 53.098618 
L 274.588328 53.538665 
L 278.189907 53.019774 
L 278.664999 53.598788 
L 279.893971 52.783542 
L 281.207793 53.211858 
L 282.589721 52.981648 
L 282.981197 52.256813 
L 283.832632 52.768283 
L 284.779054 52.811927 
L 290.010833 52.542503 
L 290.431584 53.427739 
L 290.853904 52.371256 
L 294.967793 52.752418 
L 295.399465 52.080796 
L 295.805929 52.620065 
L 297.66118 52.918172 
L 299.778903 51.626175 
L 301.836562 53.419675 
L 302.24326 52.325727 
L 302.650009 52.608797 
L 303.042615 53.093709 
L 303.447998 52.511534 
L 303.796094 52.032576 
L 304.140678 52.419142 
L 305.32414 52.80941 
L 305.742319 51.563512 
L 306.493044 52.195101 
L 307.34424 51.887908 
L 309.211452 52.041212 
L 310.499881 51.949456 
L 311.613729 52.200756 
L 313.151756 51.98882 
L 313.954519 52.922189 
L 314.386768 52.19699 
L 316.504811 52.4116 
L 316.870057 51.287715 
L 317.236396 51.695364 
L 317.654463 52.614902 
L 318.39188 51.865254 
L 322.236871 52.279595 
L 323.018015 52.422016 
L 324.195906 52.94406 
L 325.483735 52.421926 
L 326.394139 52.583702 
L 327.975687 51.943254 
L 332.795709 51.791261 
L 333.201323 51.011353 
L 333.526515 51.715098 
L 334.260224 52.23295 
L 334.758434 51.956912 
L 335.938009 51.79056 
L 337.198745 52.377885 
L 338.932936 52.0685 
L 341.082616 52.233834 
L 344.162139 51.527409 
L 344.168937 61.851852 
L 344.169714 17.854506 
L 344.811606 53.104828 
L 346.303529 51.643987 
L 351.456208 54.067556 
L 351.824534 53.910319 
L 352.187953 54.79627 
L 356.227705 60.384932 
L 383.560755 126.387736 
L 396.015255 138.203174 
L 397.215344 138.042684 
L 399.046239 138.745831 
L 399.558902 138.358912 
L 399.988451 139.655406 
L 400.38074 138.869295 
L 400.761289 138.549939 
L 401.119764 139.527328 
L 409.199009 139.490372 
L 410.080578 138.875904 
L 410.484985 139.403519 
L 413.423829 138.661872 
L 413.780571 138.331467 
L 414.238451 139.130987 
L 416.552947 138.49873 
L 416.947519 137.67712 
L 417.466389 138.58166 
L 419.695304 137.545073 
L 420.175214 137.72301 
L 421.583883 136.998908 
L 423.122124 136.64895 
L 423.585624 137.526155 
L 424.027546 136.989335 
L 424.437514 135.780347 
L 424.872047 136.380199 
L 428.994257 135.858221 
L 432.236179 134.917574 
L 433.727317 135.89495 
L 435.015125 134.199889 
L 436.740212 134.888682 
L 437.098839 133.470328 
L 437.89562 133.855401 
L 439.32458 134.524267 
L 440.678985 133.653265 
L 442.413754 135.104484 
L 443.147237 133.529082 
L 443.574324 134.550626 
L 443.979146 133.924609 
L 444.432484 133.641506 
L 445.143346 135.042653 
L 445.518197 134.529498 
L 446.714963 132.838323 
L 447.089265 134.210018 
L 448.343163 133.898884 
L 448.753811 132.956139 
L 449.132136 134.261143 
L 451.648876 133.553586 
L 452.530311 134.100713 
L 452.935665 132.851355 
L 453.679806 133.158424 
L 455.281033 132.650407 
L 455.656924 133.913803 
L 456.039317 133.0942 
L 456.978133 133.172591 
L 458.277123 133.577527 
L 459.926074 132.62925 
L 461.636434 133.060912 
L 461.989298 133.829144 
L 462.339071 132.676819 
L 464.563138 133.592796 
L 465.918057 133.116912 
L 466.788209 134.140385 
L 467.172586 133.436059 
L 468.62352 132.625673 
L 469.03014 133.183938 
L 496.065816 133.873571 
L 496.813507 133.07881 
L 497.266238 133.811285 
L 497.68147 134.297178 
L 498.091927 133.866062 
L 499.452699 133.721813 
L 501.340869 134.267071 
L 501.687508 132.839688 
L 502.042792 133.923684 
L 502.420041 134.847189 
L 503.218739 134.256229 
L 503.603453 133.815461 
L 503.984256 134.949184 
L 504.386765 133.880592 
L 505.523674 133.299294 
L 507.137306 133.945646 
L 508.441852 133.4679 
L 509.752592 134.085133 
L 512.664076 133.673828 
L 514.917771 134.27847 
L 516.143851 132.801193 
L 516.928744 133.942372 
L 517.30661 133.494026 
L 519.346747 133.489468 
L 520.621526 133.155179 
L 521.470205 133.800866 
L 523.158247 134.130779 
L 524.979479 133.296532 
L 527.10404 133.785419 
L 528.235293 133.704957 
L 528.634272 134.401244 
L 529.461267 133.911427 
L 529.926626 134.469526 
L 530.368517 133.916657 
L 531.682901 134.283282 
L 533.254955 134.20884 
L 533.640658 133.68235 
L 534.052215 134.004993 
L 535.288039 134.411478 
L 537.105279 133.711293 
L 537.441051 133.843037 
L 537.441051 133.843037 
" clip-path="url(#pa81265f7e1)" style="fill: none; stroke: #377eb8; stroke-width: 2; stroke-linecap: square"/>
   </g>
   <g id="line2d_29">
    <path d="M 54.262074 215.274907 
L 54.424688 216.802452 
L 55.432765 214.288306 
L 56.338042 215.737112 
L 56.619607 214.980101 
L 65.800858 214.637975 
L 66.069696 216.203173 
L 66.725131 215.778085 
L 68.539766 214.850717 
L 71.460541 215.690805 
L 72.981106 214.917192 
L 73.3091 215.905568 
L 73.583831 214.426067 
L 73.857967 215.142334 
L 75.869094 215.093671 
L 79.611901 215.213108 
L 84.783768 216.12868 
L 85.091585 214.894498 
L 85.881536 215.101387 
L 86.807921 214.958916 
L 87.140981 214.397041 
L 87.839701 215.17368 
L 88.188461 214.671356 
L 88.529806 215.095682 
L 90.254959 215.475502 
L 92.90455 215.054694 
L 93.306311 215.710452 
L 94.053068 215.140538 
L 98.105796 215.620621 
L 98.874079 214.551283 
L 99.560259 215.571109 
L 99.948569 215.84261 
L 100.30576 215.224992 
L 103.865488 214.72285 
L 104.885466 216.119926 
L 105.193187 215.817702 
L 108.432047 214.274137 
L 108.681423 216.00655 
L 109.246433 215.338095 
L 110.378923 215.259206 
L 112.113989 215.383692 
L 114.416177 215.308002 
L 115.32858 214.293443 
L 115.588474 215.867362 
L 116.459212 215.324135 
L 117.227929 215.944929 
L 117.480367 213.671584 
L 118.218126 214.693877 
L 119.969127 216.023538 
L 121.228957 215.009368 
L 122.188724 216.234716 
L 122.460224 215.833001 
L 125.271293 214.271668 
L 126.116571 215.581064 
L 126.402396 215.438995 
L 129.518462 214.93887 
L 137.727504 214.866708 
L 138.708048 216.001803 
L 138.96504 214.325232 
L 139.827728 214.781948 
L 140.792357 216.014527 
L 141.07764 214.787697 
L 143.778615 215.165265 
L 145.009408 215.42062 
L 150.890423 215.506495 
L 150.89838 182.473827 
L 150.897852 230.944634 
L 151.782839 214.836298 
L 152.070652 216.535372 
L 153.35662 213.280316 
L 153.549564 213.50368 
L 154.218366 212.143269 
L 154.633858 212.384148 
L 155.878003 210.767605 
L 156.15347 210.737181 
L 157.502167 208.892796 
L 158.56538 209.015676 
L 159.639406 207.300054 
L 162.263065 205.807376 
L 165.300871 204.006589 
L 166.458256 204.072814 
L 168.814866 202.451171 
L 169.20967 202.973964 
L 169.57157 202.208765 
L 177.172602 199.514313 
L 178.420507 199.277333 
L 178.851935 198.354691 
L 179.280391 198.84929 
L 179.731581 198.907129 
L 180.157288 197.91203 
L 180.568322 198.442666 
L 181.307487 198.655379 
L 182.93525 198.015274 
L 186.497304 198.629243 
L 187.779969 197.390552 
L 189.012456 197.985228 
L 193.932209 197.295803 
L 194.661544 197.991905 
L 195.058568 196.47696 
L 195.423324 197.187393 
L 198.980605 198.266622 
L 200.210055 197.538491 
L 200.915596 198.364072 
L 201.297129 197.899213 
L 202.510382 197.454403 
L 203.773177 197.395115 
L 204.095306 198.753847 
L 204.861886 198.329769 
L 206.686631 197.30426 
L 207.0677 198.150714 
L 207.536617 197.870332 
L 208.712616 197.573318 
L 209.624605 198.34856 
L 210.05887 197.926652 
L 210.984546 198.7507 
L 212.228857 197.917178 
L 213.133239 197.501604 
L 213.538944 198.983412 
L 213.915567 198.168039 
L 216.110207 198.007754 
L 219.189104 198.644974 
L 219.550825 197.926694 
L 219.909228 199.05357 
L 220.306751 198.537403 
L 222.129831 198.813989 
L 222.526584 199.348953 
L 222.886353 198.205249 
L 223.276261 198.203711 
L 224.538626 199.171165 
L 226.491904 198.430086 
L 226.832435 199.695391 
L 227.663177 198.943153 
L 228.456121 199.285072 
L 228.769919 197.555737 
L 229.078852 198.702225 
L 229.945755 198.198836 
L 230.313455 198.020884 
L 231.486299 199.475962 
L 232.886696 199.175752 
L 251.838513 199.026317 
L 253.545383 198.968707 
L 254.835593 198.798137 
L 255.262228 199.763372 
L 255.664204 198.386554 
L 256.063369 199.246263 
L 257.277526 199.180919 
L 268.697623 199.009144 
L 269.079024 198.46415 
L 269.457287 199.878024 
L 270.22584 199.338672 
L 270.612711 199.878654 
L 271.780335 198.493621 
L 273.668003 199.2099 
L 275.646562 198.697437 
L 276.001194 199.612743 
L 276.352237 199.257493 
L 278.189907 198.779933 
L 279.893971 199.419874 
L 282.098208 198.850473 
L 283.832632 199.290692 
L 287.306661 198.157703 
L 287.690686 199.134754 
L 288.159796 198.94843 
L 289.246985 197.712623 
L 290.010833 199.173167 
L 290.431584 198.97757 
L 306.127044 199.005566 
L 306.493044 199.742302 
L 306.855 198.908514 
L 311.277972 199.050444 
L 311.613729 200.140024 
L 311.946022 198.195798 
L 312.278263 198.939091 
L 313.556781 199.336134 
L 314.812049 198.685122 
L 322.641643 198.927145 
L 323.018015 199.801783 
L 323.359258 198.626379 
L 326.394139 199.243888 
L 327.601034 198.406205 
L 328.816035 199.419661 
L 330.001085 198.58501 
L 331.299743 199.261808 
L 331.777657 199.266622 
L 332.116264 198.153298 
L 332.45064 199.836975 
L 332.795709 199.181784 
L 333.201323 199.322338 
L 333.526515 197.919633 
L 334.260224 199.060135 
L 335.135525 198.303677 
L 335.509543 199.050584 
L 335.938009 199.343346 
L 336.347877 198.29347 
L 336.752997 199.393286 
L 341.082616 198.583282 
L 342.699026 199.875972 
L 343.497016 198.649967 
L 344.096182 199.01708 
L 344.162139 200.01081 
L 344.164776 198.524771 
L 344.168937 207.753981 
L 344.169963 183.401314 
L 345.163101 199.202481 
L 346.303529 199.567435 
L 346.689397 199.213131 
L 348.050391 200.98892 
L 349.331574 201.023812 
L 351.002625 201.964987 
L 353.106781 202.833037 
L 354.006365 203.046319 
L 355.348345 203.60052 
L 356.227705 203.811709 
L 357.779997 204.499756 
L 361.175808 204.948294 
L 371.315686 206.864222 
L 371.694119 206.415849 
L 372.069065 207.105513 
L 372.399525 208.181796 
L 373.206928 207.712586 
L 377.021675 207.178284 
L 378.306171 208.287647 
L 380.457186 207.047852 
L 381.741037 208.019243 
L 384.499719 207.570251 
L 385.427926 207.793013 
L 385.749624 206.298373 
L 386.066737 208.424191 
L 387.098229 208.920267 
L 387.43868 207.205882 
L 388.270612 207.871282 
L 390.668928 207.243779 
L 391.061373 208.525644 
L 391.847957 207.813322 
L 392.603522 208.473466 
L 392.99358 207.740616 
L 397.911293 207.970227 
L 398.282734 208.532961 
L 399.046239 207.923307 
L 399.988451 207.229249 
L 400.38074 208.444079 
L 400.761289 206.703392 
L 401.119764 208.095305 
L 401.909536 207.247855 
L 403.315804 207.604096 
L 404.189516 207.393223 
L 404.608691 207.003235 
L 404.989381 208.075555 
L 405.783477 207.742518 
L 407.433726 207.035422 
L 408.781461 207.800661 
L 410.080578 207.668179 
L 411.566086 206.519011 
L 413.423829 208.236752 
L 414.759847 207.504658 
L 418.436174 206.926989 
L 420.175214 207.331023 
L 422.077689 206.90402 
L 424.027546 207.730426 
L 425.909206 207.137387 
L 426.871462 207.169553 
L 427.225108 206.404904 
L 428.070201 206.822318 
L 430.61089 207.354808 
L 431.454278 207.801591 
L 432.236179 206.311011 
L 432.579357 206.692417 
L 434.174071 207.506603 
L 434.5981 206.525787 
L 435.015125 207.435372 
L 436.350026 207.559256 
L 438.874731 207.048808 
L 440.678985 206.966185 
L 441.106223 206.628668 
L 441.540847 207.22934 
L 443.574324 207.320182 
L 444.789335 206.380809 
L 445.518197 207.911754 
L 445.861804 207.101415 
L 447.478064 206.978956 
L 449.520389 206.431128 
L 450.765119 207.331019 
L 451.200347 206.918261 
L 452.935665 206.742189 
L 453.319156 207.921016 
L 453.679806 207.639068 
L 454.071262 206.460792 
L 454.453206 207.45205 
L 456.039317 207.019947 
L 457.792037 207.292102 
L 468.62352 207.025314 
L 470.389506 207.196725 
L 471.619888 207.260465 
L 474.628143 207.258756 
L 476.045504 207.451176 
L 476.890871 206.744856 
L 477.313902 207.324193 
L 478.197246 207.162452 
L 479.320039 206.401529 
L 480.483028 208.198979 
L 481.606437 206.654705 
L 482.412545 207.518821 
L 483.647038 206.562108 
L 485.014453 207.358309 
L 486.859501 206.848211 
L 488.633413 207.063707 
L 489.469766 207.089146 
L 491.319069 207.188643 
L 492.078881 206.874423 
L 493.94962 207.576691 
L 495.187515 206.955413 
L 499.452699 207.44951 
L 502.810584 206.48155 
L 503.984256 207.213634 
L 504.386765 206.577725 
L 504.762693 207.622379 
L 507.595312 207.168297 
L 508.905617 207.187428 
L 509.328343 206.750681 
L 509.752592 207.40153 
L 510.981075 207.415954 
L 514.041757 206.657035 
L 514.442601 207.330311 
L 514.917771 206.401309 
L 516.143851 207.250103 
L 516.548683 206.186682 
L 516.928744 207.732266 
L 520.621526 207.241853 
L 523.158247 207.44907 
L 523.826572 206.380308 
L 524.192019 207.204987 
L 524.979479 206.811655 
L 525.394763 207.414172 
L 526.265349 207.361998 
L 526.702304 206.519115 
L 527.10404 207.131587 
L 528.235293 207.415226 
L 528.634272 206.694887 
L 528.99772 207.30782 
L 532.149002 206.929652 
L 532.52017 206.372819 
L 532.888289 207.803717 
L 533.640658 207.364011 
L 534.886895 206.880731 
L 537.105279 206.594363 
L 537.441051 207.253457 
L 537.441051 207.253457 
" clip-path="url(#pa81265f7e1)" style="fill: none; stroke: #4daf4a; stroke-width: 2; stroke-linecap: square"/>
   </g>
   <g id="patch_3">
    <path d="M 30.103125 241.599141 
L 30.103125 7.2 
" style="fill: none; stroke: #7f7f7f; stroke-width: 1.8; stroke-linejoin: miter; stroke-linecap: square"/>
   </g>
   <g id="patch_4">
    <path d="M 30.103125 241.599141 
L 561.6 241.599141 
" style="fill: none; stroke: #7f7f7f; stroke-width: 1.8; stroke-linejoin: miter; stroke-linecap: square"/>
   </g>
   <g id="legend_1">
    <g id="line2d_30">
     <path d="M 483.814062 20.298438 
L 493.814062 20.298438 
L 503.814062 20.298438 
" style="fill: none; stroke: #e41a1c; stroke-width: 2; stroke-linecap: square"/>
    </g>
    <g id="text_15">
     <!-- setpoint -->
     <g style="fill: #7f7f7f" transform="translate(511.814062 23.798438) scale(0.1 -0.1)">
      <defs>
       <path id="DejaVuSans-53" d="M 1159 525 
L 1159 -1331 
L 581 -1331 
L 581 3500 
L 1159 3500 
L 1159 2969 
Q 1341 3281 1617 3432 
Q 1894 3584 2278 3584 
Q 2916 3584 3314 3078 
Q 3713 2572 3713 1747 
Q 3713 922 3314 415 
Q 2916 -91 2278 -91 
Q 1894 -91 1617 61 
Q 1341 213 1159 525 
z
M 3116 1747 
Q 3116 2381 2855 2742 
Q 2594 3103 2138 3103 
Q 1681 3103 1420 2742 
Q 1159 2381 1159 1747 
Q 1159 1113 1420 752 
Q 1681 391 2138 391 
Q 2594 391 2855 752 
Q 3116 1113 3116 1747 
z
" transform="scale(0.015625)"/>
       <path id="DejaVuSans-52" d="M 1959 3097 
Q 1497 3097 1228 2736 
Q 959 2375 959 1747 
Q 959 1119 1226 758 
Q 1494 397 1959 397 
Q 2419 397 2687 759 
Q 2956 1122 2956 1747 
Q 2956 2369 2687 2733 
Q 2419 3097 1959 3097 
z
M 1959 3584 
Q 2709 3584 3137 3096 
Q 3566 2609 3566 1747 
Q 3566 888 3137 398 
Q 2709 -91 1959 -91 
Q 1206 -91 779 398 
Q 353 888 353 1747 
Q 353 2609 779 3096 
Q 1206 3584 1959 3584 
z
" transform="scale(0.015625)"/>
       <path id="DejaVuSans-51" d="M 3513 2113 
L 3513 0 
L 2938 0 
L 2938 2094 
Q 2938 2591 2744 2837 
Q 2550 3084 2163 3084 
Q 1697 3084 1428 2787 
Q 1159 2491 1159 1978 
L 1159 0 
L 581 0 
L 581 3500 
L 1159 3500 
L 1159 2956 
Q 1366 3272 1645 3428 
Q 1925 3584 2291 3584 
Q 2894 3584 3203 3211 
Q 3513 2838 3513 2113 
z
" transform="scale(0.015625)"/>
      </defs>
      <use xlink:href="#DejaVuSans-56"/>
      <use xlink:href="#DejaVuSans-48" transform="translate(52.09375 0)"/>
      <use xlink:href="#DejaVuSans-57" transform="translate(113.625 0)"/>
      <use xlink:href="#DejaVuSans-53" transform="translate(152.828125 0)"/>
      <use xlink:href="#DejaVuSans-52" transform="translate(216.3125 0)"/>
      <use xlink:href="#DejaVuSans-4c" transform="translate(277.5 0)"/>
      <use xlink:href="#DejaVuSans-51" transform="translate(305.28125 0)"/>
      <use xlink:href="#DejaVuSans-57" transform="translate(368.65625 0)"/>
     </g>
    </g>
    <g id="line2d_31">
     <path d="M 483.814062 35.299219 
L 493.814062 35.299219 
L 503.814062 35.299219 
" style="fill: none; stroke: #377eb8; stroke-width: 2; stroke-linecap: square"/>
    </g>
    <g id="text_16">
     <!-- plant 1 -->
     <g style="fill: #7f7f7f" transform="translate(511.814062 38.799219) scale(0.1 -0.1)">
      <defs>
       <path id="DejaVuSans-4f" d="M 603 4863 
L 1178 4863 
L 1178 0 
L 603 0 
L 603 4863 
z
" transform="scale(0.015625)"/>
       <path id="DejaVuSans-44" d="M 2194 1759 
Q 1497 1759 1228 1600 
Q 959 1441 959 1056 
Q 959 750 1161 570 
Q 1363 391 1709 391 
Q 2188 391 2477 730 
Q 2766 1069 2766 1631 
L 2766 1759 
L 2194 1759 
z
M 3341 1997 
L 3341 0 
L 2766 0 
L 2766 531 
Q 2569 213 2275 61 
Q 1981 -91 1556 -91 
Q 1019 -91 701 211 
Q 384 513 384 1019 
Q 384 1609 779 1909 
Q 1175 2209 1959 2209 
L 2766 2209 
L 2766 2266 
Q 2766 2663 2505 2880 
Q 2244 3097 1772 3097 
Q 1472 3097 1187 3025 
Q 903 2953 641 2809 
L 641 3341 
Q 956 3463 1253 3523 
Q 1550 3584 1831 3584 
Q 2591 3584 2966 3190 
Q 3341 2797 3341 1997 
z
" transform="scale(0.015625)"/>
      </defs>
      <use xlink:href="#DejaVuSans-53"/>
      <use xlink:href="#DejaVuSans-4f" transform="translate(63.484375 0)"/>
      <use xlink:href="#DejaVuSans-44" transform="translate(91.265625 0)"/>
      <use xlink:href="#DejaVuSans-51" transform="translate(152.546875 0)"/>
      <use xlink:href="#DejaVuSans-57" transform="translate(215.921875 0)"/>
      <use xlink:href="#DejaVuSans-3" transform="translate(255.125 0)"/>
      <use xlink:href="#DejaVuSans-14" transform="translate(286.90625 0)"/>
     </g>
    </g>
    <g id="line2d_32">
     <path d="M 483.814062 50.3 
L 493.814062 50.3 
L 503.814062 50.3 
" style="fill: none; stroke: #4daf4a; stroke-width: 2; stroke-linecap: square"/>
    </g>
    <g id="text_17">
     <!-- plant 2 -->
     <g style="fill: #7f7f7f" transform="translate(511.814062 53.8) scale(0.1 -0.1)">
      <use xlink:href="#DejaVuSans-53"/>
      <use xlink:href="#DejaVuSans-4f" transform="translate(63.484375 0)"/>
      <use xlink:href="#DejaVuSans-44" transform="translate(91.265625 0)"/>
      <use xlink:href="#DejaVuSans-51" transform="translate(152.546875 0)"/>
      <use xlink:href="#DejaVuSans-57" transform="translate(215.921875 0)"/>
      <use xlink:href="#DejaVuSans-3" transform="translate(255.125 0)"/>
      <use xlink:href="#DejaVuSans-15" transform="translate(286.90625 0)"/>
     </g>
    </g>
   </g>
  </g>
 </g>
 <defs>
  <clipPath id="pa81265f7e1">
   <rect x="30.103125" y="7.2" width="531.496875" height="234.399141"/>
  </clipPath>
 </defs>
</svg>
