<?xml version="1.0" encoding="utf-8" standalone="no"?>
<!DOCTYPE svg PUBLIC "-//W3C//DTD SVG 1.1//EN"
  "http://www.w3.org/Graphics/SVG/1.1/DTD/svg11.dtd">
<svg xmlns:xlink="http://www.w3.org/1999/xlink" width="568.8pt" height="424.8pt" viewBox="0 0 568.8 424.8" xmlns="http://www.w3.org/2000/svg" version="1.1">
 <metadata>
  <rdf:RDF xmlns:dc="http://purl.org/dc/elements/1.1/" xmlns:cc="http://creativecommons.org/ns#" xmlns:rdf="http://www.w3.org/1999/02/22-rdf-syntax-ns#">
   <cc:Work>
    <dc:type rdf:resource="http://purl.org/dc/dcmitype/StillImage"/>
    <dc:date>2026-06-24T00:53:53.371192</dc:date>
    <dc:format>image/svg+xml</dc:format>
    <dc:creator>
     <cc:Agent>
      <dc:title>Matplotlib v3.11.0, https://matplotlib.org/</dc:title>
     </cc:Agent>
    </dc:creator>
   </cc:Work>
  </rdf:RDF>
 </metadata>
 <defs>
  <style type="text/css">*{stroke-linejoin: round; stroke-linecap: butt}</style>
 </defs>
 <g id="figure_1">
  <g id="patch_1">
   <path d="M 0 424.8 
L 568.8 424.8 
L 568.8 0 
L 0 0 
L 0 424.8 
z
" style="fill: none"/>
  </g>
  <g id="axes_1">
   <g id="patch_2">
    <path d="M 45.103984 190.058633 
L 561.6 190.058633 
L 561.6 22.318125 
L 45.103984 22.318125 
L 45.103984 190.058633 
z
" style="fill: none"/>
   </g>
   <g id="matplotlib.axis_1">
    <g id="xtick_1">
     <g id="line2d_1">
      <defs>
       <path id="m261dd72676" d="M 0 0 
L 0 3.5 
" style="stroke: #7f7f7f; stroke-width: 1.8"/>
      </defs>
      <g>
       <use xlink:href="#m261dd72676" x="68.581076" y="190.058633" style="fill: #7f7f7f; stroke: #7f7f7f; stroke-width: 1.8"/>
      </g>
     </g>
     <g id="text_1">
      <!-- 0.0 -->
      <g style="fill: #7f7f7f" transform="translate(60.629513 204.656289) scale(0.1 -0.1)">
       <defs>
        <path id="DejaVuSans-13" d="M 2034 4250 
Q 1547 4250 1301 3770 
Q 1056 3291 1056 2328 
Q 1056 1369 1301 889 
Q 1547 409 2034 409 
Q 2525 409 2770 889 
Q 3016 1369 3016 2328 
Q 3016 3291 2770 3770 
Q 2525 4250 2034 4250 
z
M 2034 4750 
Q 2819 4750 3233 4129 
Q 3647 3509 3647 2328 
Q 3647 1150 3233 529 
Q 2819 -91 2034 -91 
Q 1250 -91 836 529 
Q 422 1150 422 2328 
Q 422 3509 836 4129 
Q 1250 4750 2034 4750 
z
" transform="scale(0.015625)"/>
        <path id="DejaVuSans-11" d="M 684 794 
L 1344 794 
L 1344 0 
L 684 0 
L 684 794 
z
" transform="scale(0.015625)"/>
       </defs>
       <use xlink:href="#DejaVuSans-13"/>
       <use xlink:href="#DejaVuSans-11" transform="translate(63.625 0)"/>
       <use xlink:href="#DejaVuSans-13" transform="translate(95.40625 0)"/>
      </g>
     </g>
    </g>
    <g id="xtick_2">
     <g id="line2d_2">
      <g>
       <use xlink:href="#m261dd72676" x="127.273805" y="190.058633" style="fill: #7f7f7f; stroke: #7f7f7f; stroke-width: 1.8"/>
      </g>
     </g>
     <g id="text_2">
      <!-- 2.5 -->
      <g style="fill: #7f7f7f" transform="translate(119.322243 204.656289) scale(0.1 -0.1)">
       <defs>
        <path id="DejaVuSans-15" d="M 1228 531 
L 3431 531 
L 3431 0 
L 469 0 
L 469 531 
Q 828 903 1448 1529 
Q 2069 2156 2228 2338 
Q 2531 2678 2651 2914 
Q 2772 3150 2772 3378 
Q 2772 3750 2511 3984 
Q 2250 4219 1831 4219 
Q 1534 4219 1204 4116 
Q 875 4013 500 3803 
L 500 4441 
Q 881 4594 1212 4672 
Q 1544 4750 1819 4750 
Q 2544 4750 2975 4387 
Q 3406 4025 3406 3419 
Q 3406 3131 3298 2873 
Q 3191 2616 2906 2266 
Q 2828 2175 2409 1742 
Q 1991 1309 1228 531 
z
" transform="scale(0.015625)"/>
        <path id="DejaVuSans-18" d="M 691 4666 
L 3169 4666 
L 3169 4134 
L 1269 4134 
L 1269 2991 
Q 1406 3038 1543 3061 
Q 1681 3084 1819 3084 
Q 2600 3084 3056 2656 
Q 3513 2228 3513 1497 
Q 3513 744 3044 326 
Q 2575 -91 1722 -91 
Q 1428 -91 1123 -41 
Q 819 9 494 109 
L 494 744 
Q 775 591 1075 516 
Q 1375 441 1709 441 
Q 2250 441 2565 725 
Q 2881 1009 2881 1497 
Q 2881 1984 2565 2268 
Q 2250 2553 1709 2553 
Q 1456 2553 1204 2497 
Q 953 2441 691 2322 
L 691 4666 
z
" transform="scale(0.015625)"/>
       </defs>
       <use xlink:href="#DejaVuSans-15"/>
       <use xlink:href="#DejaVuSans-11" transform="translate(63.625 0)"/>
       <use xlink:href="#DejaVuSans-18" transform="translate(95.40625 0)"/>
      </g>
     </g>
    </g>
    <g id="xtick_3">
     <g id="line2d_3">
      <g>
       <use xlink:href="#m261dd72676" x="185.966534" y="190.058633" style="fill: #7f7f7f; stroke: #7f7f7f; stroke-width: 1.8"/>
      </g>
     </g>
     <g id="text_3">
      <!-- 5.0 -->
      <g style="fill: #7f7f7f" transform="translate(178.014972 204.656289) scale(0.1 -0.1)">
       <use xlink:href="#DejaVuSans-18"/>
       <use xlink:href="#DejaVuSans-11" transform="translate(63.625 0)"/>
       <use xlink:href="#DejaVuSans-13" transform="translate(95.40625 0)"/>
      </g>
     </g>
    </g>
    <g id="xtick_4">
     <g id="line2d_4">
      <g>
       <use xlink:href="#m261dd72676" x="244.659263" y="190.058633" style="fill: #7f7f7f; stroke: #7f7f7f; stroke-width: 1.8"/>
      </g>
     </g>
     <g id="text_4">
      <!-- 7.5 -->
      <g style="fill: #7f7f7f" transform="translate(236.707701 204.656289) scale(0.1 -0.1)">
       <defs>
        <path id="DejaVuSans-1a" d="M 525 4666 
L 3525 4666 
L 3525 4397 
L 1831 0 
L 1172 0 
L 2766 4134 
L 525 4134 
L 525 4666 
z
" transform="scale(0.015625)"/>
       </defs>
       <use xlink:href="#DejaVuSans-1a"/>
       <use xlink:href="#DejaVuSans-11" transform="translate(63.625 0)"/>
       <use xlink:href="#DejaVuSans-18" transform="translate(95.40625 0)"/>
      </g>
     </g>
    </g>
    <g id="xtick_5">
     <g id="line2d_5">
      <g>
       <use xlink:href="#m261dd72676" x="303.351992" y="190.058633" style="fill: #7f7f7f; stroke: #7f7f7f; stroke-width: 1.8"/>
      </g>
     </g>
     <g id="text_5">
      <!-- 10.0 -->
      <g style="fill: #7f7f7f" transform="translate(292.21918 204.656289) scale(0.1 -0.1)">
       <defs>
        <path id="DejaVuSans-14" d="M 794 531 
L 1825 531 
L 1825 4091 
L 703 3866 
L 703 4441 
L 1819 4666 
L 2450 4666 
L 2450 531 
L 3481 531 
L 3481 0 
L 794 0 
L 794 531 
z
" transform="scale(0.015625)"/>
       </defs>
       <use xlink:href="#DejaVuSans-14"/>
       <use xlink:href="#DejaVuSans-13" transform="translate(63.625 0)"/>
       <use xlink:href="#DejaVuSans-11" transform="translate(127.25 0)"/>
       <use xlink:href="#DejaVuSans-13" transform="translate(159.03125 0)"/>
      </g>
     </g>
    </g>
    <g id="xtick_6">
     <g id="line2d_6">
      <g>
       <use xlink:href="#m261dd72676" x="362.044721" y="190.058633" style="fill: #7f7f7f; stroke: #7f7f7f; stroke-width: 1.8"/>
      </g>
     </g>
     <g id="text_6">
      <!-- 12.5 -->
      <g style="fill: #7f7f7f" transform="translate(350.911909 204.656289) scale(0.1 -0.1)">
       <use xlink:href="#DejaVuSans-14"/>
       <use xlink:href="#DejaVuSans-15" transform="translate(63.625 0)"/>
       <use xlink:href="#DejaVuSans-11" transform="translate(127.25 0)"/>
       <use xlink:href="#DejaVuSans-18" transform="translate(159.03125 0)"/>
      </g>
     </g>
    </g>
    <g id="xtick_7">
     <g id="line2d_7">
      <g>
       <use xlink:href="#m261dd72676" x="420.73745" y="190.058633" style="fill: #7f7f7f; stroke: #7f7f7f; stroke-width: 1.8"/>
      </g>
     </g>
     <g id="text_7">
      <!-- 15.0 -->
      <g style="fill: #7f7f7f" transform="translate(409.604638 204.656289) scale(0.1 -0.1)">
       <use xlink:href="#DejaVuSans-14"/>
       <use xlink:href="#DejaVuSans-18" transform="translate(63.625 0)"/>
       <use xlink:href="#DejaVuSans-11" transform="translate(127.25 0)"/>
       <use xlink:href="#DejaVuSans-13" transform="translate(159.03125 0)"/>
      </g>
     </g>
    </g>
    <g id="xtick_8">
     <g id="line2d_8">
      <g>
       <use xlink:href="#m261dd72676" x="479.430179" y="190.058633" style="fill: #7f7f7f; stroke: #7f7f7f; stroke-width: 1.8"/>
      </g>
     </g>
     <g id="text_8">
      <!-- 17.5 -->
      <g style="fill: #7f7f7f" transform="translate(468.297367 204.656289) scale(0.1 -0.1)">
       <use xlink:href="#DejaVuSans-14"/>
       <use xlink:href="#DejaVuSans-1a" transform="translate(63.625 0)"/>
       <use xlink:href="#DejaVuSans-11" transform="translate(127.25 0)"/>
       <use xlink:href="#DejaVuSans-18" transform="translate(159.03125 0)"/>
      </g>
     </g>
    </g>
    <g id="xtick_9">
     <g id="line2d_9">
      <g>
       <use xlink:href="#m261dd72676" x="538.122908" y="190.058633" style="fill: #7f7f7f; stroke: #7f7f7f; stroke-width: 1.8"/>
      </g>
     </g>
     <g id="text_9">
      <!-- 20.0 -->
      <g style="fill: #7f7f7f" transform="translate(526.990096 204.656289) scale(0.1 -0.1)">
       <use xlink:href="#DejaVuSans-15"/>
       <use xlink:href="#DejaVuSans-13" transform="translate(63.625 0)"/>
       <use xlink:href="#DejaVuSans-11" transform="translate(127.25 0)"/>
       <use xlink:href="#DejaVuSans-13" transform="translate(159.03125 0)"/>
      </g>
     </g>
    </g>
   </g>
   <g id="matplotlib.axis_2">
    <g id="ytick_1">
     <g id="line2d_10">
      <defs>
       <path id="m1d4842d3ef" d="M 0 0 
L -3.5 0 
" style="stroke: #7f7f7f; stroke-width: 1.8"/>
      </defs>
      <g>
       <use xlink:href="#m1d4842d3ef" x="45.103984" y="182.434064" style="fill: #7f7f7f; stroke: #7f7f7f; stroke-width: 1.8"/>
      </g>
     </g>
     <g id="text_10">
      <!-- 0.0 -->
      <g style="fill: #7f7f7f" transform="translate(22.200859 186.232892) scale(0.1 -0.1)">
       <use xlink:href="#DejaVuSans-13"/>
       <use xlink:href="#DejaVuSans-11" transform="translate(63.625 0)"/>
       <use xlink:href="#DejaVuSans-13" transform="translate(95.40625 0)"/>
      </g>
     </g>
    </g>
    <g id="ytick_2">
     <g id="line2d_11">
      <g>
       <use xlink:href="#m1d4842d3ef" x="45.103984" y="150.326998" style="fill: #7f7f7f; stroke: #7f7f7f; stroke-width: 1.8"/>
      </g>
     </g>
     <g id="text_11">
      <!-- 0.1 -->
      <g style="fill: #7f7f7f" transform="translate(22.200859 154.125826) scale(0.1 -0.1)">
       <use xlink:href="#DejaVuSans-13"/>
       <use xlink:href="#DejaVuSans-11" transform="translate(63.625 0)"/>
       <use xlink:href="#DejaVuSans-14" transform="translate(95.40625 0)"/>
      </g>
     </g>
    </g>
    <g id="ytick_3">
     <g id="line2d_12">
      <g>
       <use xlink:href="#m1d4842d3ef" x="45.103984" y="118.219931" style="fill: #7f7f7f; stroke: #7f7f7f; stroke-width: 1.8"/>
      </g>
     </g>
     <g id="text_12">
      <!-- 0.2 -->
      <g style="fill: #7f7f7f" transform="translate(22.200859 122.018759) scale(0.1 -0.1)">
       <use xlink:href="#DejaVuSans-13"/>
       <use xlink:href="#DejaVuSans-11" transform="translate(63.625 0)"/>
       <use xlink:href="#DejaVuSans-15" transform="translate(95.40625 0)"/>
      </g>
     </g>
    </g>
    <g id="ytick_4">
     <g id="line2d_13">
      <g>
       <use xlink:href="#m1d4842d3ef" x="45.103984" y="86.112864" style="fill: #7f7f7f; stroke: #7f7f7f; stroke-width: 1.8"/>
      </g>
     </g>
     <g id="text_13">
      <!-- 0.3 -->
      <g style="fill: #7f7f7f" transform="translate(22.200859 89.911693) scale(0.1 -0.1)">
       <defs>
        <path id="DejaVuSans-16" d="M 2597 2516 
Q 3050 2419 3304 2112 
Q 3559 1806 3559 1356 
Q 3559 666 3084 287 
Q 2609 -91 1734 -91 
Q 1441 -91 1130 -33 
Q 819 25 488 141 
L 488 750 
Q 750 597 1062 519 
Q 1375 441 1716 441 
Q 2309 441 2620 675 
Q 2931 909 2931 1356 
Q 2931 1769 2642 2001 
Q 2353 2234 1838 2234 
L 1294 2234 
L 1294 2753 
L 1863 2753 
Q 2328 2753 2575 2939 
Q 2822 3125 2822 3475 
Q 2822 3834 2567 4026 
Q 2313 4219 1838 4219 
Q 1578 4219 1281 4162 
Q 984 4106 628 3988 
L 628 4550 
Q 988 4650 1302 4700 
Q 1616 4750 1894 4750 
Q 2613 4750 3031 4423 
Q 3450 4097 3450 3541 
Q 3450 3153 3228 2886 
Q 3006 2619 2597 2516 
z
" transform="scale(0.015625)"/>
       </defs>
       <use xlink:href="#DejaVuSans-13"/>
       <use xlink:href="#DejaVuSans-11" transform="translate(63.625 0)"/>
       <use xlink:href="#DejaVuSans-16" transform="translate(95.40625 0)"/>
      </g>
     </g>
    </g>
    <g id="ytick_5">
     <g id="line2d_14">
      <g>
       <use xlink:href="#m1d4842d3ef" x="45.103984" y="54.005798" style="fill: #7f7f7f; stroke: #7f7f7f; stroke-width: 1.8"/>
      </g>
     </g>
     <g id="text_14">
      <!-- 0.4 -->
      <g style="fill: #7f7f7f" transform="translate(22.200859 57.804626) scale(0.1 -0.1)">
       <defs>
        <path id="DejaVuSans-17" d="M 2419 4116 
L 825 1625 
L 2419 1625 
L 2419 4116 
z
M 2253 4666 
L 3047 4666 
L 3047 1625 
L 3713 1625 
L 3713 1100 
L 3047 1100 
L 3047 0 
L 2419 0 
L 2419 1100 
L 313 1100 
L 313 1709 
L 2253 4666 
z
" transform="scale(0.015625)"/>
       </defs>
       <use xlink:href="#DejaVuSans-13"/>
       <use xlink:href="#DejaVuSans-11" transform="translate(63.625 0)"/>
       <use xlink:href="#DejaVuSans-17" transform="translate(95.40625 0)"/>
      </g>
     </g>
    </g>
    <g id="text_15">
     <!-- Position Error [m] -->
     <g style="fill: #7f7f7f" transform="translate(15.558281 154.153535) rotate(-90) scale(0.11 -0.11)">
      <defs>
       <path id="DejaVuSans-33" d="M 1259 4147 
L 1259 2394 
L 2053 2394 
Q 2494 2394 2734 2622 
Q 2975 2850 2975 3272 
Q 2975 3691 2734 3919 
Q 2494 4147 2053 4147 
L 1259 4147 
z
M 628 4666 
L 2053 4666 
Q 2838 4666 3239 4311 
Q 3641 3956 3641 3272 
Q 3641 2581 3239 2228 
Q 2838 1875 2053 1875 
L 1259 1875 
L 1259 0 
L 628 0 
L 628 4666 
z
" transform="scale(0.015625)"/>
       <path id="DejaVuSans-52" d="M 1959 3097 
Q 1497 3097 1228 2736 
Q 959 2375 959 1747 
Q 959 1119 1226 758 
Q 1494 397 1959 397 
Q 2419 397 2687 759 
Q 2956 1122 2956 1747 
Q 2956 2369 2687 2733 
Q 2419 3097 1959 3097 
z
M 1959 3584 
Q 2709 3584 3137 3096 
Q 3566 2609 3566 1747 
Q 3566 888 3137 398 
Q 2709 -91 1959 -91 
Q 1206 -91 779 398 
Q 353 888 353 1747 
Q 353 2609 779 3096 
Q 1206 3584 1959 3584 
z
" transform="scale(0.015625)"/>
       <path id="DejaVuSans-56" d="M 2834 3397 
L 2834 2853 
Q 2591 2978 2328 3040 
Q 2066 3103 1784 3103 
Q 1356 3103 1142 2972 
Q 928 2841 928 2578 
Q 928 2378 1081 2264 
Q 1234 2150 1697 2047 
L 1894 2003 
Q 2506 1872 2764 1633 
Q 3022 1394 3022 966 
Q 3022 478 2636 193 
Q 2250 -91 1575 -91 
Q 1294 -91 989 -36 
Q 684 19 347 128 
L 347 722 
Q 666 556 975 473 
Q 1284 391 1588 391 
Q 1994 391 2212 530 
Q 2431 669 2431 922 
Q 2431 1156 2273 1281 
Q 2116 1406 1581 1522 
L 1381 1569 
Q 847 1681 609 1914 
Q 372 2147 372 2553 
Q 372 3047 722 3315 
Q 1072 3584 1716 3584 
Q 2034 3584 2315 3537 
Q 2597 3491 2834 3397 
z
" transform="scale(0.015625)"/>
       <path id="DejaVuSans-4c" d="M 603 3500 
L 1178 3500 
L 1178 0 
L 603 0 
L 603 3500 
z
M 603 4863 
L 1178 4863 
L 1178 4134 
L 603 4134 
L 603 4863 
z
" transform="scale(0.015625)"/>
       <path id="DejaVuSans-57" d="M 1172 4494 
L 1172 3500 
L 2356 3500 
L 2356 3053 
L 1172 3053 
L 1172 1153 
Q 1172 725 1289 603 
Q 1406 481 1766 481 
L 2356 481 
L 2356 0 
L 1766 0 
Q 1100 0 847 248 
Q 594 497 594 1153 
L 594 3053 
L 172 3053 
L 172 3500 
L 594 3500 
L 594 4494 
L 1172 4494 
z
" transform="scale(0.015625)"/>
       <path id="DejaVuSans-51" d="M 3513 2113 
L 3513 0 
L 2938 0 
L 2938 2094 
Q 2938 2591 2744 2837 
Q 2550 3084 2163 3084 
Q 1697 3084 1428 2787 
Q 1159 2491 1159 1978 
L 1159 0 
L 581 0 
L 581 3500 
L 1159 3500 
L 1159 2956 
Q 1366 3272 1645 3428 
Q 1925 3584 2291 3584 
Q 2894 3584 3203 3211 
Q 3513 2838 3513 2113 
z
" transform="scale(0.015625)"/>
       <path id="DejaVuSans-3" transform="scale(0.015625)"/>
       <path id="DejaVuSans-28" d="M 628 4666 
L 3578 4666 
L 3578 4134 
L 1259 4134 
L 1259 2753 
L 3481 2753 
L 3481 2222 
L 1259 2222 
L 1259 531 
L 3634 531 
L 3634 0 
L 628 0 
L 628 4666 
z
" transform="scale(0.015625)"/>
       <path id="DejaVuSans-55" d="M 2631 2963 
Q 2534 3019 2420 3045 
Q 2306 3072 2169 3072 
Q 1681 3072 1420 2755 
Q 1159 2438 1159 1844 
L 1159 0 
L 581 0 
L 581 3500 
L 1159 3500 
L 1159 2956 
Q 1341 3275 1631 3429 
Q 1922 3584 2338 3584 
Q 2397 3584 2469 3576 
Q 2541 3569 2628 3553 
L 2631 2963 
z
" transform="scale(0.015625)"/>
       <path id="DejaVuSans-3e" d="M 550 4863 
L 1875 4863 
L 1875 4416 
L 1125 4416 
L 1125 -397 
L 1875 -397 
L 1875 -844 
L 550 -844 
L 550 4863 
z
" transform="scale(0.015625)"/>
       <path id="DejaVuSans-50" d="M 3328 2828 
Q 3544 3216 3844 3400 
Q 4144 3584 4550 3584 
Q 5097 3584 5394 3201 
Q 5691 2819 5691 2113 
L 5691 0 
L 5113 0 
L 5113 2094 
Q 5113 2597 4934 2840 
Q 4756 3084 4391 3084 
Q 3944 3084 3684 2787 
Q 3425 2491 3425 1978 
L 3425 0 
L 2847 0 
L 2847 2094 
Q 2847 2600 2669 2842 
Q 2491 3084 2119 3084 
Q 1678 3084 1418 2786 
Q 1159 2488 1159 1978 
L 1159 0 
L 581 0 
L 581 3500 
L 1159 3500 
L 1159 2956 
Q 1356 3278 1631 3431 
Q 1906 3584 2284 3584 
Q 2666 3584 2933 3390 
Q 3200 3197 3328 2828 
z
" transform="scale(0.015625)"/>
       <path id="DejaVuSans-40" d="M 1947 4863 
L 1947 -844 
L 622 -844 
L 622 -397 
L 1369 -397 
L 1369 4416 
L 622 4416 
L 622 4863 
L 1947 4863 
z
" transform="scale(0.015625)"/>
      </defs>
      <use xlink:href="#DejaVuSans-33"/>
      <use xlink:href="#DejaVuSans-52" transform="translate(56.734375 0)"/>
      <use xlink:href="#DejaVuSans-56" transform="translate(117.921875 0)"/>
      <use xlink:href="#DejaVuSans-4c" transform="translate(170.015625 0)"/>
      <use xlink:href="#DejaVuSans-57" transform="translate(197.796875 0)"/>
      <use xlink:href="#DejaVuSans-4c" transform="translate(237 0)"/>
      <use xlink:href="#DejaVuSans-52" transform="translate(264.78125 0)"/>
      <use xlink:href="#DejaVuSans-51" transform="translate(325.96875 0)"/>
      <use xlink:href="#DejaVuSans-3" transform="translate(389.34375 0)"/>
      <use xlink:href="#DejaVuSans-28" transform="translate(421.125 0)"/>
      <use xlink:href="#DejaVuSans-55" transform="translate(484.3125 0)"/>
      <use xlink:href="#DejaVuSans-55" transform="translate(523.671875 0)"/>
      <use xlink:href="#DejaVuSans-52" transform="translate(562.578125 0)"/>
      <use xlink:href="#DejaVuSans-55" transform="translate(623.765625 0)"/>
      <use xlink:href="#DejaVuSans-3" transform="translate(664.875 0)"/>
      <use xlink:href="#DejaVuSans-3e" transform="translate(696.65625 0)"/>
      <use xlink:href="#DejaVuSans-50" transform="translate(735.671875 0)"/>
      <use xlink:href="#DejaVuSans-40" transform="translate(833.078125 0)"/>
     </g>
    </g>
   </g>
   <g id="line2d_15">
    <path d="M 68.581076 182.434064 
L 69.050618 169.740452 
L 69.52016 82.224378 
L 69.989701 159.978221 
L 70.224472 166.656376 
L 71.163556 100.497891 
L 72.10264 182.379536 
L 72.337411 170.866047 
L 73.041723 163.554677 
L 73.980807 72.918851 
L 74.450349 90.493385 
L 76.093745 39.584166 
L 76.328516 54.008903 
L 76.563287 66.748614 
L 76.798058 45.736889 
L 77.032829 58.837564 
L 77.971913 29.942694 
L 78.206684 34.033852 
L 78.441454 30.799973 
L 79.615309 74.216888 
L 79.85008 72.73672 
L 80.554393 58.649135 
L 81.963018 104.21618 
L 82.43256 95.239656 
L 83.136873 117.440609 
L 83.606415 116.406565 
L 84.075956 114.778375 
L 85.01504 152.228436 
L 85.484582 130.269405 
L 85.719353 148.071947 
L 87.127978 181.116913 
L 88.771375 130.850132 
L 89.240917 119.308162 
L 89.475688 131.202348 
L 89.710458 125.864672 
L 89.945229 128.344679 
L 90.18 116.019662 
L 90.649542 136.389168 
L 90.884313 130.106028 
L 91.588626 175.678512 
L 92.058168 166.109516 
L 92.76248 167.175909 
L 93.466793 153.128812 
L 94.640648 175.210143 
L 94.875419 166.178446 
L 95.34496 163.505838 
L 95.579731 163.697731 
L 95.814502 181.464688 
L 96.284044 163.255384 
L 96.753586 178.007089 
L 96.988357 177.870513 
L 97.457899 162.988258 
L 98.631753 141.753315 
L 98.866524 141.639466 
L 100.040379 158.590144 
L 100.27515 145.075121 
L 100.979462 152.474751 
L 101.918546 169.399507 
L 103.092401 125.30608 
L 103.561943 127.567126 
L 104.031484 130.38709 
L 108.02259 181.066578 
L 108.257361 178.389641 
L 109.431215 157.936579 
L 109.665986 153.319664 
L 110.370299 156.373002 
L 111.074612 170.231834 
L 111.309383 154.630999 
L 112.013695 161.672669 
L 112.718008 152.152799 
L 112.952779 153.419755 
L 113.891863 177.37678 
L 114.126634 176.190089 
L 115.77003 157.369259 
L 116.004801 159.100317 
L 116.709114 167.109269 
L 116.943885 164.967291 
L 117.648197 151.747836 
L 118.117739 153.568106 
L 119.291594 159.459921 
L 119.761136 148.612534 
L 120.230678 151.8619 
L 121.874074 181.372827 
L 122.108845 165.63615 
L 123.047929 166.92966 
L 125.630409 120.200747 
L 126.334721 127.384616 
L 127.508576 142.573335 
L 127.978118 147.739876 
L 129.151972 161.072043 
L 128.682431 145.469185 
L 129.386743 156.225007 
L 129.621514 156.600542 
L 130.091056 156.04405 
L 130.795369 138.933781 
L 131.264911 145.912987 
L 131.734452 157.946049 
L 132.203994 147.33507 
L 132.438765 147.371879 
L 134.551703 182.031331 
L 133.143078 145.781989 
L 134.786474 180.944276 
L 135.725558 162.202844 
L 136.1951 171.519642 
L 136.429871 177.120718 
L 136.899413 168.780213 
L 137.368954 162.524568 
L 138.073267 166.254202 
L 138.308038 173.213561 
L 139.012351 165.421458 
L 139.247122 163.084049 
L 139.481893 168.077537 
L 139.716664 177.893214 
L 140.186205 177.854044 
L 141.125289 154.462849 
L 141.594831 154.587315 
L 142.533915 165.451931 
L 142.768686 163.546767 
L 143.238227 157.257414 
L 143.707769 180.613001 
L 144.412082 176.999453 
L 145.116395 176.094512 
L 145.351166 180.093162 
L 147.464104 153.557718 
L 147.698875 158.325775 
L 147.933646 162.068732 
L 148.403187 158.459704 
L 149.811813 142.001625 
L 151.455209 161.606494 
L 151.68998 149.91422 
L 152.394293 154.963958 
L 153.568148 165.51791 
L 154.037689 152.701279 
L 154.507231 165.449349 
L 154.742002 167.53092 
L 154.976773 164.848494 
L 156.385399 144.81993 
L 156.85494 151.416243 
L 157.089711 144.22984 
L 157.324482 134.539259 
L 157.794024 141.22133 
L 158.498337 153.536942 
L 158.967879 147.021654 
L 159.20265 145.275123 
L 159.437421 146.739104 
L 161.78513 181.303163 
L 162.254672 179.351907 
L 162.489442 174.717145 
L 163.193755 180.147466 
L 163.663297 177.199523 
L 164.36761 164.503459 
L 164.837152 170.101789 
L 165.541464 167.702302 
L 165.776235 170.491627 
L 167.654403 181.857814 
L 167.889174 170.771819 
L 168.593486 174.462084 
L 168.828257 181.440931 
L 169.297799 172.208686 
L 169.53257 176.284519 
L 170.002112 178.11617 
L 170.471654 166.026396 
L 170.941195 170.586616 
L 171.410737 180.790062 
L 172.11505 179.935014 
L 173.054134 175.069226 
L 172.819363 182.001962 
L 173.288905 176.222994 
L 173.523676 182.409068 
L 173.993217 181.082759 
L 174.462759 171.545255 
L 174.932301 179.173091 
L 176.575697 149.02052 
L 177.045239 153.308555 
L 178.923407 182.065827 
L 181.036345 148.774395 
L 181.975429 166.664918 
L 182.210199 163.74771 
L 184.088367 135.909897 
L 185.262221 155.181121 
L 185.496992 156.113502 
L 186.436076 177.050204 
L 186.670847 175.031624 
L 187.140389 174.291264 
L 187.37516 175.609788 
L 187.609931 181.990531 
L 187.844701 172.067118 
L 188.314243 175.942999 
L 189.018556 163.534204 
L 189.488098 165.581958 
L 189.95764 159.713847 
L 190.192411 157.430129 
L 190.427181 161.523703 
L 190.896723 167.38431 
L 191.366265 161.096678 
L 191.835807 165.302318 
L 192.774891 148.807855 
L 193.009662 155.837018 
L 193.244432 158.705836 
L 193.479203 153.789258 
L 193.948745 157.818692 
L 195.1226 146.267698 
L 195.357371 152.364624 
L 195.592142 156.281626 
L 195.826913 152.040804 
L 197.000767 126.766687 
L 197.235538 122.751667 
L 197.70508 125.030145 
L 198.174622 134.046763 
L 198.409393 122.253433 
L 198.878934 129.499317 
L 199.113705 129.701582 
L 199.583247 138.032431 
L 200.052789 130.188314 
L 200.991873 129.952758 
L 202.165727 151.644749 
L 203.104811 145.824825 
L 203.339582 160.185463 
L 204.043895 152.951947 
L 204.278666 152.542989 
L 205.687291 125.198967 
L 205.922062 132.134724 
L 208.504542 180.766514 
L 208.739313 180.324712 
L 210.61748 141.467425 
L 210.852251 142.863152 
L 212.260877 160.194505 
L 213.434731 159.425755 
L 215.078128 132.033703 
L 216.017211 146.497396 
L 216.251982 138.18729 
L 216.486753 131.001754 
L 217.191066 135.22827 
L 217.660608 139.110571 
L 219.069233 164.866685 
L 219.304004 167.307391 
L 219.538775 156.448076 
L 220.243088 159.649129 
L 220.947401 165.992357 
L 221.182172 164.051805 
L 221.416942 158.253385 
L 221.886484 163.91735 
L 223.29511 178.746116 
L 223.529881 174.569333 
L 224.234193 158.271639 
L 224.703735 162.900771 
L 225.173277 163.716982 
L 225.87759 180.949234 
L 226.347132 179.573722 
L 226.581903 173.170003 
L 227.051444 180.375155 
L 227.286215 178.046654 
L 227.520986 175.240197 
L 227.990528 181.115072 
L 228.694841 178.246101 
L 229.633925 158.290129 
L 229.868695 164.100014 
L 230.573008 168.047431 
L 231.277321 151.910682 
L 231.746863 156.078767 
L 231.981634 157.087088 
L 233.155488 143.37693 
L 233.390259 147.253672 
L 233.62503 137.013466 
L 233.859801 140.497635 
L 234.094572 137.505052 
L 234.329343 150.221471 
L 234.798885 137.417698 
L 235.033656 143.337272 
L 235.503197 142.770287 
L 235.972739 149.349084 
L 236.442281 145.117236 
L 236.677052 144.652711 
L 237.616136 158.260067 
L 237.850907 155.042258 
L 238.085677 147.402173 
L 238.555219 157.55562 
L 239.024761 154.92199 
L 239.494303 161.383809 
L 239.963845 149.348987 
L 240.433387 150.580679 
L 241.842012 167.986014 
L 242.076783 160.985844 
L 242.546325 167.665486 
L 243.250638 181.981973 
L 243.720179 180.298323 
L 243.95495 170.121181 
L 244.424492 180.341755 
L 244.659263 176.156328 
L 244.894034 174.582689 
L 245.363576 178.118436 
L 245.833118 173.085635 
L 246.067889 181.32666 
L 247.006972 174.702115 
L 247.241743 174.795225 
L 247.476514 177.185868 
L 247.711285 169.462117 
L 248.180827 167.622129 
L 248.415598 168.053198 
L 248.650369 165.105267 
L 248.88514 166.53093 
L 249.824223 181.219901 
L 250.058994 176.278436 
L 250.293765 173.449976 
L 250.528536 179.039796 
L 250.998078 177.021459 
L 251.232849 181.666001 
L 252.641474 173.122311 
L 252.876245 173.556231 
L 253.345787 178.206934 
L 253.580558 168.505842 
L 254.0501 179.498698 
L 254.284871 175.848492 
L 254.519642 173.899392 
L 254.989183 177.737098 
L 255.458725 181.561843 
L 257.806434 143.310283 
L 258.745518 150.865563 
L 258.980289 147.10175 
L 259.21506 140.868919 
L 259.684602 141.565956 
L 261.327998 178.195098 
L 262.032311 168.139559 
L 262.267082 176.150887 
L 262.736624 181.301865 
L 262.971395 173.943976 
L 263.440936 180.533043 
L 265.084333 158.932492 
L 264.145249 180.988207 
L 265.319104 162.698171 
L 265.553875 171.440952 
L 266.023417 164.298577 
L 266.492958 150.469683 
L 266.9625 161.545062 
L 267.901584 152.358226 
L 268.840668 133.37634 
L 269.310209 135.625574 
L 269.54498 144.144638 
L 270.014522 127.398478 
L 270.249293 133.912625 
L 271.423148 119.65562 
L 271.892689 125.13161 
L 272.597002 117.976419 
L 272.831773 124.61779 
L 273.066544 132.333241 
L 273.536086 119.658306 
L 274.240399 102.655865 
L 274.70994 104.380994 
L 276.353337 129.882066 
L 277.05765 119.72399 
L 277.527191 126.314713 
L 278.466275 144.799635 
L 278.701046 139.341504 
L 278.935817 134.693727 
L 279.405359 144.309979 
L 279.64013 139.796453 
L 280.579213 155.320167 
L 280.813984 152.09053 
L 281.518297 154.661147 
L 281.987839 146.828947 
L 283.161693 159.027307 
L 283.396464 158.237476 
L 283.866006 176.42346 
L 284.570319 172.198462 
L 284.80509 174.028389 
L 285.744173 157.044042 
L 286.918028 170.959334 
L 287.622341 181.913357 
L 287.38757 170.697421 
L 287.857112 181.144465 
L 289.97005 145.326614 
L 290.204821 147.827754 
L 290.439592 149.775302 
L 290.674363 142.457108 
L 291.143905 155.27165 
L 291.378675 145.565217 
L 293.726385 177.925356 
L 293.961156 170.329432 
L 294.430697 175.100041 
L 294.665468 169.264622 
L 294.900239 165.150812 
L 295.13501 168.611342 
L 296.074094 178.841183 
L 296.543636 168.571299 
L 297.013177 175.36522 
L 297.482719 174.099099 
L 298.187032 181.159247 
L 298.891345 169.405873 
L 299.126116 159.199468 
L 299.595658 169.552717 
L 299.830428 169.25736 
L 300.534741 173.604084 
L 301.943367 151.711863 
L 302.412909 141.826886 
L 302.647679 148.341954 
L 302.88245 154.966719 
L 303.351992 142.708963 
L 303.821534 146.067702 
L 304.056305 142.314459 
L 304.291076 143.82059 
L 304.525847 143.950962 
L 304.995389 130.031718 
L 307.108327 112.864042 
L 307.343098 112.965546 
L 307.577869 114.111742 
L 308.516952 134.99098 
L 308.751723 129.731091 
L 309.456036 139.050803 
L 309.690807 137.835642 
L 309.925578 129.958433 
L 310.39512 139.210936 
L 312.273287 177.347755 
L 312.742829 176.148146 
L 312.9776 180.558321 
L 313.212371 174.548365 
L 313.681912 178.068793 
L 313.916683 171.078903 
L 314.386225 178.672145 
L 314.620996 182.009144 
L 315.090538 180.974651 
L 316.968705 143.34212 
L 317.203476 145.507156 
L 318.377331 157.484862 
L 319.551185 145.514583 
L 320.020727 143.773647 
L 320.255498 146.501917 
L 320.490269 142.244212 
L 321.898895 134.800201 
L 322.837978 155.175615 
L 323.542291 144.241775 
L 323.777062 138.284558 
L 324.246604 151.018292 
L 324.481375 143.330426 
L 324.950916 139.218317 
L 325.185687 144.421593 
L 325.420458 146.743485 
L 325.89 142.280437 
L 326.594313 119.635976 
L 327.063855 128.138937 
L 327.768167 130.33499 
L 328.002938 129.008185 
L 328.237709 134.317438 
L 328.47248 127.870418 
L 328.707251 120.101705 
L 329.176793 128.925546 
L 329.881106 127.465382 
L 330.820189 142.812447 
L 331.524502 169.944988 
L 331.994044 161.082712 
L 332.228815 160.32136 
L 332.463586 152.603501 
L 333.167899 156.29633 
L 333.63744 169.929822 
L 334.106982 158.590815 
L 335.046066 139.335109 
L 335.515608 151.048949 
L 336.924233 164.96056 
L 337.159004 163.984319 
L 337.393775 153.967146 
L 337.863317 155.607045 
L 339.271942 178.969057 
L 339.506713 178.325254 
L 339.741484 178.83874 
L 340.445797 165.89245 
L 340.915339 168.592332 
L 341.384881 172.03921 
L 342.089193 153.780102 
L 342.558735 155.344341 
L 343.263048 140.626174 
L 343.967361 129.451377 
L 344.202132 130.214108 
L 344.906444 152.370397 
L 345.141215 140.085346 
L 346.784612 121.944411 
L 347.019383 125.207858 
L 347.723695 124.200074 
L 348.428008 146.439364 
L 349.601863 182.159223 
L 350.071405 172.191965 
L 350.540946 180.107056 
L 350.775717 170.620938 
L 351.010488 178.048928 
L 353.123426 146.784966 
L 353.592968 152.481636 
L 353.827739 146.036334 
L 354.532052 138.425659 
L 354.766823 142.220244 
L 355.471136 150.991269 
L 355.705906 145.621095 
L 355.940677 142.112367 
L 356.175448 159.173281 
L 356.879761 149.980871 
L 358.053616 135.54656 
L 360.166554 177.771306 
L 360.401325 166.722861 
L 360.636096 180.333223 
L 360.870867 178.207256 
L 361.105638 181.514212 
L 361.340408 181.44172 
L 362.983805 135.738261 
L 363.453347 144.896645 
L 363.922889 139.137203 
L 364.157659 139.432115 
L 364.39243 141.555067 
L 364.627201 134.710856 
L 364.861972 135.800217 
L 365.566285 122.462844 
L 365.801056 124.800255 
L 369.32262 176.073723 
L 369.792161 170.734743 
L 370.026932 182.014514 
L 370.496474 169.663765 
L 370.966016 152.25646 
L 371.435558 170.096431 
L 371.670329 182.234992 
L 372.139871 169.84353 
L 372.374642 174.463145 
L 372.609412 161.673875 
L 373.313725 173.597419 
L 373.783267 167.976206 
L 374.018038 173.744488 
L 374.252809 181.603858 
L 374.722351 171.328057 
L 376.835289 145.816688 
L 377.304831 159.017384 
L 377.539602 153.429603 
L 378.948227 125.172229 
L 379.182998 122.082243 
L 379.417769 130.076041 
L 379.65254 130.201662 
L 379.887311 138.500496 
L 380.356853 128.498842 
L 380.591624 125.756477 
L 380.826395 141.151025 
L 381.530707 131.425946 
L 382.469791 127.526179 
L 382.704562 129.081938 
L 383.174104 136.192235 
L 383.408875 130.710177 
L 383.878416 122.377974 
L 384.113187 134.430686 
L 384.582729 136.02453 
L 384.8175 138.195975 
L 385.052271 134.138166 
L 385.287042 132.502722 
L 385.521813 137.144895 
L 386.460897 156.917699 
L 386.930438 156.515996 
L 387.165209 155.944158 
L 387.39998 149.166691 
L 387.869522 160.038389 
L 388.104293 158.480797 
L 388.339064 166.667214 
L 388.808606 153.041451 
L 389.043377 164.128154 
L 389.512918 153.230519 
L 390.217231 160.752449 
L 390.686773 176.770495 
L 391.156315 164.397948 
L 391.391086 161.708076 
L 391.625857 166.411803 
L 391.860628 166.285355 
L 392.56494 179.237832 
L 393.034482 175.236072 
L 393.269253 176.501179 
L 393.504024 172.540508 
L 393.738795 174.089061 
L 393.973566 173.201242 
L 395.14742 182.269342 
L 395.382191 182.297697 
L 396.321275 161.25185 
L 396.790817 165.003985 
L 397.260359 174.191634 
L 397.7299 165.896421 
L 397.964671 163.781604 
L 398.434213 179.362455 
L 399.138526 179.103009 
L 400.781922 147.778232 
L 401.016693 149.71641 
L 401.486235 154.69 
L 401.721006 143.350285 
L 402.190548 155.963812 
L 402.425319 152.832789 
L 402.894861 159.156717 
L 403.364402 157.171774 
L 405.007799 118.490234 
L 405.712112 108.856888 
L 405.946883 110.926116 
L 406.181653 130.777719 
L 406.885966 118.130646 
L 407.82505 133.415744 
L 408.059821 128.389473 
L 409.233675 120.065212 
L 409.468446 122.412581 
L 410.642301 94.321158 
L 410.877072 95.571681 
L 412.99001 126.003275 
L 413.224781 125.38651 
L 413.929094 147.820325 
L 414.633406 137.539143 
L 414.868177 137.869651 
L 415.102948 147.016574 
L 416.042032 146.153441 
L 417.920199 137.16128 
L 418.15497 141.487861 
L 418.389741 137.65358 
L 419.094054 122.700746 
L 419.563596 132.086475 
L 420.502679 159.972523 
L 420.73745 153.220752 
L 420.972221 154.727341 
L 421.676534 182.313079 
L 421.911305 165.372869 
L 422.146076 160.586102 
L 422.380847 169.674875 
L 422.615618 166.828762 
L 424.259014 175.924402 
L 424.728556 166.514276 
L 425.198098 171.237099 
L 425.432869 173.975027 
L 425.66764 173.37375 
L 425.90241 166.002476 
L 426.137181 177.902409 
L 426.606723 170.922981 
L 427.545807 179.621867 
L 428.25012 166.589145 
L 428.719661 169.21102 
L 429.189203 170.228924 
L 429.423974 175.649496 
L 430.363058 174.547191 
L 430.597829 170.598732 
L 431.067371 177.091304 
L 431.302142 174.312029 
L 431.771683 179.606524 
L 432.710767 149.070971 
L 433.180309 153.102072 
L 433.41508 153.693719 
L 434.354163 140.002401 
L 435.058476 140.19279 
L 435.762789 143.840007 
L 435.528018 136.702247 
L 435.99756 139.474416 
L 436.467102 137.608835 
L 437.875727 149.868147 
L 438.345269 148.984058 
L 439.284353 156.907195 
L 439.519124 152.781972 
L 439.753894 162.403016 
L 439.988665 157.480661 
L 441.16252 178.635978 
L 441.866833 176.604621 
L 442.101604 176.972451 
L 443.979771 147.193313 
L 444.214542 151.271967 
L 444.449313 150.388354 
L 445.623167 166.45296 
L 445.857938 164.044727 
L 446.092709 173.811662 
L 446.562251 165.693967 
L 446.797022 156.539533 
L 447.031793 166.25309 
L 447.501335 159.699937 
L 447.736106 160.9361 
L 447.970877 157.843728 
L 448.205647 158.078238 
L 448.440418 157.961727 
L 449.379502 176.770639 
L 450.083815 175.583851 
L 451.257669 181.867797 
L 451.727211 175.495785 
L 452.901066 176.568752 
L 453.135837 181.837742 
L 453.840149 177.924332 
L 454.309691 157.888699 
L 455.014004 161.747567 
L 455.248775 164.05348 
L 455.953088 146.063797 
L 456.187859 153.063464 
L 456.42263 159.434042 
L 456.892171 156.402281 
L 457.126942 149.481248 
L 457.596484 154.9361 
L 459.00511 177.13875 
L 459.239881 172.74535 
L 459.474651 180.129372 
L 459.944193 176.75402 
L 460.178964 179.450277 
L 460.883277 141.827232 
L 461.58759 151.440129 
L 462.057132 164.394803 
L 462.526673 158.506319 
L 462.761444 151.615165 
L 463.465757 155.232741 
L 463.700528 159.192495 
L 464.17007 153.469505 
L 465.109153 147.678905 
L 465.343924 150.381562 
L 466.517779 157.418139 
L 466.987321 160.71793 
L 468.161175 176.412532 
L 468.865488 178.740521 
L 469.33503 164.592279 
L 469.804572 162.41899 
L 470.039343 164.438114 
L 470.508885 151.582642 
L 470.978426 159.607511 
L 471.213197 159.295757 
L 472.152281 144.924536 
L 472.387052 157.129254 
L 473.091365 144.937974 
L 473.326136 145.934275 
L 473.795677 155.817784 
L 474.265219 150.547673 
L 474.969532 146.28731 
L 475.204303 149.955751 
L 475.908616 169.027006 
L 476.612928 163.762151 
L 476.847699 163.83772 
L 477.08247 160.376245 
L 477.317241 167.642255 
L 477.552012 165.480353 
L 478.491096 175.821627 
L 478.725867 175.076676 
L 479.195408 180.822216 
L 479.899721 178.977394 
L 480.604034 169.721841 
L 480.838805 179.731046 
L 481.073576 180.024538 
L 481.777888 161.881173 
L 482.716972 164.556604 
L 483.656056 176.578866 
L 483.421285 162.644936 
L 483.890827 172.827672 
L 485.064681 159.910082 
L 485.534223 170.527067 
L 486.003765 167.267789 
L 486.238536 164.412344 
L 486.473307 179.475549 
L 486.942849 159.061283 
L 487.17762 166.37084 
L 488.116703 178.437338 
L 488.351474 176.463316 
L 489.525329 156.069167 
L 489.7601 156.621659 
L 490.229641 172.654915 
L 490.699183 168.908153 
L 491.403496 152.815224 
L 491.873038 158.626872 
L 492.107809 159.915916 
L 492.34258 159.492056 
L 492.577351 155.945024 
L 492.812122 164.514917 
L 493.516434 178.636153 
L 494.220747 176.722067 
L 494.455518 175.251483 
L 494.690289 181.351926 
L 495.394602 174.975205 
L 496.333685 159.562273 
L 496.568456 167.115766 
L 497.272769 160.491443 
L 497.50754 174.667838 
L 499.385707 140.865525 
L 499.620478 142.30064 
L 499.855249 154.852291 
L 500.559562 148.735499 
L 501.733416 137.008402 
L 502.202958 130.972991 
L 502.437729 131.297728 
L 503.611584 150.762855 
L 504.081126 132.828646 
L 504.785438 136.106519 
L 505.489751 149.374659 
L 505.959293 148.754229 
L 506.194064 150.12914 
L 507.602689 178.080837 
L 508.072231 157.917381 
L 508.776544 171.000675 
L 509.246086 173.387866 
L 509.715628 164.227659 
L 509.950398 172.329131 
L 510.41994 162.68487 
L 511.828566 137.077233 
L 512.298108 146.300252 
L 513.237191 162.416612 
L 513.471962 159.160209 
L 513.941504 147.53896 
L 514.880588 150.650044 
L 515.115359 153.967956 
L 515.35013 149.592969 
L 515.819671 144.633105 
L 516.054442 146.595595 
L 517.697839 173.765552 
L 517.93261 170.1182 
L 518.402151 175.977595 
L 518.636922 182.195709 
L 519.106464 173.100197 
L 519.810777 159.62698 
L 520.045548 166.400061 
L 520.280319 165.890407 
L 520.749861 182.426604 
L 521.688944 179.000186 
L 522.862799 163.603171 
L 524.036653 175.421738 
L 525.210508 153.064308 
L 526.853904 181.415356 
L 527.088675 178.807251 
L 529.671155 155.779962 
L 531.079781 181.19596 
L 531.314552 175.714931 
L 531.549323 179.321395 
L 531.784094 170.103464 
L 532.253635 176.769393 
L 532.488406 172.322734 
L 532.957948 173.382432 
L 533.897032 181.480218 
L 534.131803 177.051614 
L 534.836116 179.599298 
L 535.540428 182.395958 
L 536.00997 180.258414 
L 536.479512 166.501329 
L 537.183825 173.713719 
L 537.653367 170.450898 
L 537.888137 171.958504 
L 538.122908 180.133115 
L 538.122908 180.133115 
" clip-path="url(#p1c1e18ac55)" style="fill: none; stroke: #e41a1c; stroke-width: 2; stroke-linecap: square"/>
   </g>
   <g id="patch_3">
    <path d="M 45.103984 190.058633 
L 45.103984 22.318125 
" style="fill: none; stroke: #7f7f7f; stroke-width: 1.8; stroke-linejoin: miter; stroke-linecap: square"/>
   </g>
   <g id="patch_4">
    <path d="M 45.103984 190.058633 
L 561.6 190.058633 
" style="fill: none; stroke: #7f7f7f; stroke-width: 1.8; stroke-linejoin: miter; stroke-linecap: square"/>
   </g>
   <g id="text_16">
    <!-- Kalman Filter Estimation Error -->
    <g style="fill: #7f7f7f" transform="translate(200.338555 16.318125) scale(0.12 -0.12)">
     <defs>
      <path id="DejaVuSans-Bold-2e" d="M 588 4666 
L 1791 4666 
L 1791 2963 
L 3525 4666 
L 4922 4666 
L 2675 2456 
L 5153 0 
L 3647 0 
L 1791 1838 
L 1791 0 
L 588 0 
L 588 4666 
z
" transform="scale(0.015625)"/>
      <path id="DejaVuSans-Bold-44" d="M 2106 1575 
Q 1756 1575 1579 1456 
Q 1403 1338 1403 1106 
Q 1403 894 1545 773 
Q 1688 653 1941 653 
Q 2256 653 2472 879 
Q 2688 1106 2688 1447 
L 2688 1575 
L 2106 1575 
z
M 3816 1997 
L 3816 0 
L 2688 0 
L 2688 519 
Q 2463 200 2181 54 
Q 1900 -91 1497 -91 
Q 953 -91 614 226 
Q 275 544 275 1050 
Q 275 1666 698 1953 
Q 1122 2241 2028 2241 
L 2688 2241 
L 2688 2328 
Q 2688 2594 2478 2717 
Q 2269 2841 1825 2841 
Q 1466 2841 1156 2769 
Q 847 2697 581 2553 
L 581 3406 
Q 941 3494 1303 3539 
Q 1666 3584 2028 3584 
Q 2975 3584 3395 3211 
Q 3816 2838 3816 1997 
z
" transform="scale(0.015625)"/>
      <path id="DejaVuSans-Bold-4f" d="M 538 4863 
L 1656 4863 
L 1656 0 
L 538 0 
L 538 4863 
z
" transform="scale(0.015625)"/>
      <path id="DejaVuSans-Bold-50" d="M 3781 2919 
Q 3994 3244 4286 3414 
Q 4578 3584 4928 3584 
Q 5531 3584 5847 3212 
Q 6163 2841 6163 2131 
L 6163 0 
L 5038 0 
L 5038 1825 
Q 5041 1866 5042 1909 
Q 5044 1953 5044 2034 
Q 5044 2406 4934 2573 
Q 4825 2741 4581 2741 
Q 4263 2741 4089 2478 
Q 3916 2216 3909 1719 
L 3909 0 
L 2784 0 
L 2784 1825 
Q 2784 2406 2684 2573 
Q 2584 2741 2328 2741 
Q 2006 2741 1831 2477 
Q 1656 2213 1656 1722 
L 1656 0 
L 531 0 
L 531 3500 
L 1656 3500 
L 1656 2988 
Q 1863 3284 2130 3434 
Q 2397 3584 2719 3584 
Q 3081 3584 3359 3409 
Q 3638 3234 3781 2919 
z
" transform="scale(0.015625)"/>
      <path id="DejaVuSans-Bold-51" d="M 4056 2131 
L 4056 0 
L 2931 0 
L 2931 347 
L 2931 1631 
Q 2931 2084 2911 2256 
Q 2891 2428 2841 2509 
Q 2775 2619 2662 2680 
Q 2550 2741 2406 2741 
Q 2056 2741 1856 2470 
Q 1656 2200 1656 1722 
L 1656 0 
L 538 0 
L 538 3500 
L 1656 3500 
L 1656 2988 
Q 1909 3294 2193 3439 
Q 2478 3584 2822 3584 
Q 3428 3584 3742 3212 
Q 4056 2841 4056 2131 
z
" transform="scale(0.015625)"/>
      <path id="DejaVuSans-Bold-3" transform="scale(0.015625)"/>
      <path id="DejaVuSans-Bold-29" d="M 588 4666 
L 3834 4666 
L 3834 3756 
L 1791 3756 
L 1791 2888 
L 3713 2888 
L 3713 1978 
L 1791 1978 
L 1791 0 
L 588 0 
L 588 4666 
z
" transform="scale(0.015625)"/>
      <path id="DejaVuSans-Bold-4c" d="M 538 3500 
L 1656 3500 
L 1656 0 
L 538 0 
L 538 3500 
z
M 538 4863 
L 1656 4863 
L 1656 3950 
L 538 3950 
L 538 4863 
z
" transform="scale(0.015625)"/>
      <path id="DejaVuSans-Bold-57" d="M 1759 4494 
L 1759 3500 
L 2913 3500 
L 2913 2700 
L 1759 2700 
L 1759 1216 
Q 1759 972 1856 886 
Q 1953 800 2241 800 
L 2816 800 
L 2816 0 
L 1856 0 
Q 1194 0 917 276 
Q 641 553 641 1216 
L 641 2700 
L 84 2700 
L 84 3500 
L 641 3500 
L 641 4494 
L 1759 4494 
z
" transform="scale(0.015625)"/>
      <path id="DejaVuSans-Bold-48" d="M 4031 1759 
L 4031 1441 
L 1416 1441 
Q 1456 1047 1700 850 
Q 1944 653 2381 653 
Q 2734 653 3104 758 
Q 3475 863 3866 1075 
L 3866 213 
Q 3469 63 3072 -14 
Q 2675 -91 2278 -91 
Q 1328 -91 801 392 
Q 275 875 275 1747 
Q 275 2603 792 3093 
Q 1309 3584 2216 3584 
Q 3041 3584 3536 3087 
Q 4031 2591 4031 1759 
z
M 2881 2131 
Q 2881 2450 2695 2645 
Q 2509 2841 2209 2841 
Q 1884 2841 1681 2658 
Q 1478 2475 1428 2131 
L 2881 2131 
z
" transform="scale(0.015625)"/>
      <path id="DejaVuSans-Bold-55" d="M 3138 2547 
Q 2991 2616 2845 2648 
Q 2700 2681 2553 2681 
Q 2122 2681 1889 2404 
Q 1656 2128 1656 1613 
L 1656 0 
L 538 0 
L 538 3500 
L 1656 3500 
L 1656 2925 
Q 1872 3269 2151 3426 
Q 2431 3584 2822 3584 
Q 2878 3584 2943 3579 
Q 3009 3575 3134 3559 
L 3138 2547 
z
" transform="scale(0.015625)"/>
      <path id="DejaVuSans-Bold-28" d="M 588 4666 
L 3834 4666 
L 3834 3756 
L 1791 3756 
L 1791 2888 
L 3713 2888 
L 3713 1978 
L 1791 1978 
L 1791 909 
L 3903 909 
L 3903 0 
L 588 0 
L 588 4666 
z
" transform="scale(0.015625)"/>
      <path id="DejaVuSans-Bold-56" d="M 3272 3391 
L 3272 2541 
Q 2913 2691 2578 2766 
Q 2244 2841 1947 2841 
Q 1628 2841 1473 2761 
Q 1319 2681 1319 2516 
Q 1319 2381 1436 2309 
Q 1553 2238 1856 2203 
L 2053 2175 
Q 2913 2066 3209 1816 
Q 3506 1566 3506 1031 
Q 3506 472 3093 190 
Q 2681 -91 1863 -91 
Q 1516 -91 1145 -36 
Q 775 19 384 128 
L 384 978 
Q 719 816 1070 734 
Q 1422 653 1784 653 
Q 2113 653 2278 743 
Q 2444 834 2444 1013 
Q 2444 1163 2330 1236 
Q 2216 1309 1875 1350 
L 1678 1375 
Q 931 1469 631 1722 
Q 331 1975 331 2491 
Q 331 3047 712 3315 
Q 1094 3584 1881 3584 
Q 2191 3584 2531 3537 
Q 2872 3491 3272 3391 
z
" transform="scale(0.015625)"/>
      <path id="DejaVuSans-Bold-52" d="M 2203 2784 
Q 1831 2784 1636 2517 
Q 1441 2250 1441 1747 
Q 1441 1244 1636 976 
Q 1831 709 2203 709 
Q 2569 709 2762 976 
Q 2956 1244 2956 1747 
Q 2956 2250 2762 2517 
Q 2569 2784 2203 2784 
z
M 2203 3584 
Q 3106 3584 3614 3096 
Q 4122 2609 4122 1747 
Q 4122 884 3614 396 
Q 3106 -91 2203 -91 
Q 1297 -91 786 396 
Q 275 884 275 1747 
Q 275 2609 786 3096 
Q 1297 3584 2203 3584 
z
" transform="scale(0.015625)"/>
     </defs>
     <use xlink:href="#DejaVuSans-Bold-2e"/>
     <use xlink:href="#DejaVuSans-Bold-44" transform="translate(77.484375 0)"/>
     <use xlink:href="#DejaVuSans-Bold-4f" transform="translate(144.96875 0)"/>
     <use xlink:href="#DejaVuSans-Bold-50" transform="translate(179.25 0)"/>
     <use xlink:href="#DejaVuSans-Bold-44" transform="translate(283.453125 0)"/>
     <use xlink:href="#DejaVuSans-Bold-51" transform="translate(350.9375 0)"/>
     <use xlink:href="#DejaVuSans-Bold-3" transform="translate(422.125 0)"/>
     <use xlink:href="#DejaVuSans-Bold-29" transform="translate(456.9375 0)"/>
     <use xlink:href="#DejaVuSans-Bold-4c" transform="translate(525.25 0)"/>
     <use xlink:href="#DejaVuSans-Bold-4f" transform="translate(559.53125 0)"/>
     <use xlink:href="#DejaVuSans-Bold-57" transform="translate(593.8125 0)"/>
     <use xlink:href="#DejaVuSans-Bold-48" transform="translate(641.609375 0)"/>
     <use xlink:href="#DejaVuSans-Bold-55" transform="translate(709.4375 0)"/>
     <use xlink:href="#DejaVuSans-Bold-3" transform="translate(758.75 0)"/>
     <use xlink:href="#DejaVuSans-Bold-28" transform="translate(793.5625 0)"/>
     <use xlink:href="#DejaVuSans-Bold-56" transform="translate(861.875 0)"/>
     <use xlink:href="#DejaVuSans-Bold-57" transform="translate(921.390625 0)"/>
     <use xlink:href="#DejaVuSans-Bold-4c" transform="translate(969.1875 0)"/>
     <use xlink:href="#DejaVuSans-Bold-50" transform="translate(1003.46875 0)"/>
     <use xlink:href="#DejaVuSans-Bold-44" transform="translate(1107.671875 0)"/>
     <use xlink:href="#DejaVuSans-Bold-57" transform="translate(1175.15625 0)"/>
     <use xlink:href="#DejaVuSans-Bold-4c" transform="translate(1222.953125 0)"/>
     <use xlink:href="#DejaVuSans-Bold-52" transform="translate(1257.234375 0)"/>
     <use xlink:href="#DejaVuSans-Bold-51" transform="translate(1325.9375 0)"/>
     <use xlink:href="#DejaVuSans-Bold-3" transform="translate(1397.125 0)"/>
     <use xlink:href="#DejaVuSans-Bold-28" transform="translate(1431.9375 0)"/>
     <use xlink:href="#DejaVuSans-Bold-55" transform="translate(1500.25 0)"/>
     <use xlink:href="#DejaVuSans-Bold-55" transform="translate(1549.5625 0)"/>
     <use xlink:href="#DejaVuSans-Bold-52" transform="translate(1598.875 0)"/>
     <use xlink:href="#DejaVuSans-Bold-55" transform="translate(1667.578125 0)"/>
    </g>
   </g>
  </g>
  <g id="axes_2">
   <g id="patch_5">
    <path d="M 45.103984 385.599141 
L 561.6 385.599141 
L 561.6 217.858633 
L 45.103984 217.858633 
L 45.103984 385.599141 
z
" style="fill: none"/>
   </g>
   <g id="matplotlib.axis_3">
    <g id="xtick_10">
     <g id="line2d_16">
      <g>
       <use xlink:href="#m261dd72676" x="68.581076" y="385.599141" style="fill: #7f7f7f; stroke: #7f7f7f; stroke-width: 1.8"/>
      </g>
     </g>
     <g id="text_17">
      <!-- 0.0 -->
      <g style="fill: #7f7f7f" transform="translate(60.629513 400.196797) scale(0.1 -0.1)">
       <use xlink:href="#DejaVuSans-13"/>
       <use xlink:href="#DejaVuSans-11" transform="translate(63.625 0)"/>
       <use xlink:href="#DejaVuSans-13" transform="translate(95.40625 0)"/>
      </g>
     </g>
    </g>
    <g id="xtick_11">
     <g id="line2d_17">
      <g>
       <use xlink:href="#m261dd72676" x="127.273805" y="385.599141" style="fill: #7f7f7f; stroke: #7f7f7f; stroke-width: 1.8"/>
      </g>
     </g>
     <g id="text_18">
      <!-- 2.5 -->
      <g style="fill: #7f7f7f" transform="translate(119.322243 400.196797) scale(0.1 -0.1)">
       <use xlink:href="#DejaVuSans-15"/>
       <use xlink:href="#DejaVuSans-11" transform="translate(63.625 0)"/>
       <use xlink:href="#DejaVuSans-18" transform="translate(95.40625 0)"/>
      </g>
     </g>
    </g>
    <g id="xtick_12">
     <g id="line2d_18">
      <g>
       <use xlink:href="#m261dd72676" x="185.966534" y="385.599141" style="fill: #7f7f7f; stroke: #7f7f7f; stroke-width: 1.8"/>
      </g>
     </g>
     <g id="text_19">
      <!-- 5.0 -->
      <g style="fill: #7f7f7f" transform="translate(178.014972 400.196797) scale(0.1 -0.1)">
       <use xlink:href="#DejaVuSans-18"/>
       <use xlink:href="#DejaVuSans-11" transform="translate(63.625 0)"/>
       <use xlink:href="#DejaVuSans-13" transform="translate(95.40625 0)"/>
      </g>
     </g>
    </g>
    <g id="xtick_13">
     <g id="line2d_19">
      <g>
       <use xlink:href="#m261dd72676" x="244.659263" y="385.599141" style="fill: #7f7f7f; stroke: #7f7f7f; stroke-width: 1.8"/>
      </g>
     </g>
     <g id="text_20">
      <!-- 7.5 -->
      <g style="fill: #7f7f7f" transform="translate(236.707701 400.196797) scale(0.1 -0.1)">
       <use xlink:href="#DejaVuSans-1a"/>
       <use xlink:href="#DejaVuSans-11" transform="translate(63.625 0)"/>
       <use xlink:href="#DejaVuSans-18" transform="translate(95.40625 0)"/>
      </g>
     </g>
    </g>
    <g id="xtick_14">
     <g id="line2d_20">
      <g>
       <use xlink:href="#m261dd72676" x="303.351992" y="385.599141" style="fill: #7f7f7f; stroke: #7f7f7f; stroke-width: 1.8"/>
      </g>
     </g>
     <g id="text_21">
      <!-- 10.0 -->
      <g style="fill: #7f7f7f" transform="translate(292.21918 400.196797) scale(0.1 -0.1)">
       <use xlink:href="#DejaVuSans-14"/>
       <use xlink:href="#DejaVuSans-13" transform="translate(63.625 0)"/>
       <use xlink:href="#DejaVuSans-11" transform="translate(127.25 0)"/>
       <use xlink:href="#DejaVuSans-13" transform="translate(159.03125 0)"/>
      </g>
     </g>
    </g>
    <g id="xtick_15">
     <g id="line2d_21">
      <g>
       <use xlink:href="#m261dd72676" x="362.044721" y="385.599141" style="fill: #7f7f7f; stroke: #7f7f7f; stroke-width: 1.8"/>
      </g>
     </g>
     <g id="text_22">
      <!-- 12.5 -->
      <g style="fill: #7f7f7f" transform="translate(350.911909 400.196797) scale(0.1 -0.1)">
       <use xlink:href="#DejaVuSans-14"/>
       <use xlink:href="#DejaVuSans-15" transform="translate(63.625 0)"/>
       <use xlink:href="#DejaVuSans-11" transform="translate(127.25 0)"/>
       <use xlink:href="#DejaVuSans-18" transform="translate(159.03125 0)"/>
      </g>
     </g>
    </g>
    <g id="xtick_16">
     <g id="line2d_22">
      <g>
       <use xlink:href="#m261dd72676" x="420.73745" y="385.599141" style="fill: #7f7f7f; stroke: #7f7f7f; stroke-width: 1.8"/>
      </g>
     </g>
     <g id="text_23">
      <!-- 15.0 -->
      <g style="fill: #7f7f7f" transform="translate(409.604638 400.196797) scale(0.1 -0.1)">
       <use xlink:href="#DejaVuSans-14"/>
       <use xlink:href="#DejaVuSans-18" transform="translate(63.625 0)"/>
       <use xlink:href="#DejaVuSans-11" transform="translate(127.25 0)"/>
       <use xlink:href="#DejaVuSans-13" transform="translate(159.03125 0)"/>
      </g>
     </g>
    </g>
    <g id="xtick_17">
     <g id="line2d_23">
      <g>
       <use xlink:href="#m261dd72676" x="479.430179" y="385.599141" style="fill: #7f7f7f; stroke: #7f7f7f; stroke-width: 1.8"/>
      </g>
     </g>
     <g id="text_24">
      <!-- 17.5 -->
      <g style="fill: #7f7f7f" transform="translate(468.297367 400.196797) scale(0.1 -0.1)">
       <use xlink:href="#DejaVuSans-14"/>
       <use xlink:href="#DejaVuSans-1a" transform="translate(63.625 0)"/>
       <use xlink:href="#DejaVuSans-11" transform="translate(127.25 0)"/>
       <use xlink:href="#DejaVuSans-18" transform="translate(159.03125 0)"/>
      </g>
     </g>
    </g>
    <g id="xtick_18">
     <g id="line2d_24">
      <g>
       <use xlink:href="#m261dd72676" x="538.122908" y="385.599141" style="fill: #7f7f7f; stroke: #7f7f7f; stroke-width: 1.8"/>
      </g>
     </g>
     <g id="text_25">
      <!-- 20.0 -->
      <g style="fill: #7f7f7f" transform="translate(526.990096 400.196797) scale(0.1 -0.1)">
       <use xlink:href="#DejaVuSans-15"/>
       <use xlink:href="#DejaVuSans-13" transform="translate(63.625 0)"/>
       <use xlink:href="#DejaVuSans-11" transform="translate(127.25 0)"/>
       <use xlink:href="#DejaVuSans-13" transform="translate(159.03125 0)"/>
      </g>
     </g>
    </g>
    <g id="text_26">
     <!-- Time [s] -->
     <g style="fill: #7f7f7f" transform="translate(280.987617 414.957422) scale(0.11 -0.11)">
      <defs>
       <path id="DejaVuSans-37" d="M -19 4666 
L 3928 4666 
L 3928 4134 
L 2272 4134 
L 2272 0 
L 1638 0 
L 1638 4134 
L -19 4134 
L -19 4666 
z
" transform="scale(0.015625)"/>
       <path id="DejaVuSans-48" d="M 3597 1894 
L 3597 1613 
L 953 1613 
Q 991 1019 1311 708 
Q 1631 397 2203 397 
Q 2534 397 2845 478 
Q 3156 559 3463 722 
L 3463 178 
Q 3153 47 2828 -22 
Q 2503 -91 2169 -91 
Q 1331 -91 842 396 
Q 353 884 353 1716 
Q 353 2575 817 3079 
Q 1281 3584 2069 3584 
Q 2775 3584 3186 3129 
Q 3597 2675 3597 1894 
z
M 3022 2063 
Q 3016 2534 2758 2815 
Q 2500 3097 2075 3097 
Q 1594 3097 1305 2825 
Q 1016 2553 972 2059 
L 3022 2063 
z
" transform="scale(0.015625)"/>
      </defs>
      <use xlink:href="#DejaVuSans-37"/>
      <use xlink:href="#DejaVuSans-4c" transform="translate(58 0)"/>
      <use xlink:href="#DejaVuSans-50" transform="translate(85.78125 0)"/>
      <use xlink:href="#DejaVuSans-48" transform="translate(183.1875 0)"/>
      <use xlink:href="#DejaVuSans-3" transform="translate(244.71875 0)"/>
      <use xlink:href="#DejaVuSans-3e" transform="translate(276.5 0)"/>
      <use xlink:href="#DejaVuSans-56" transform="translate(315.515625 0)"/>
      <use xlink:href="#DejaVuSans-40" transform="translate(367.609375 0)"/>
     </g>
    </g>
   </g>
   <g id="matplotlib.axis_4">
    <g id="ytick_6">
     <g id="line2d_25">
      <g>
       <use xlink:href="#m1d4842d3ef" x="45.103984" y="377.984348" style="fill: #7f7f7f; stroke: #7f7f7f; stroke-width: 1.8"/>
      </g>
     </g>
     <g id="text_27">
      <!-- 0.0 -->
      <g style="fill: #7f7f7f" transform="translate(22.200859 381.783176) scale(0.1 -0.1)">
       <use xlink:href="#DejaVuSans-13"/>
       <use xlink:href="#DejaVuSans-11" transform="translate(63.625 0)"/>
       <use xlink:href="#DejaVuSans-13" transform="translate(95.40625 0)"/>
      </g>
     </g>
    </g>
    <g id="ytick_7">
     <g id="line2d_26">
      <g>
       <use xlink:href="#m1d4842d3ef" x="45.103984" y="342.170182" style="fill: #7f7f7f; stroke: #7f7f7f; stroke-width: 1.8"/>
      </g>
     </g>
     <g id="text_28">
      <!-- 0.5 -->
      <g style="fill: #7f7f7f" transform="translate(22.200859 345.96901) scale(0.1 -0.1)">
       <use xlink:href="#DejaVuSans-13"/>
       <use xlink:href="#DejaVuSans-11" transform="translate(63.625 0)"/>
       <use xlink:href="#DejaVuSans-18" transform="translate(95.40625 0)"/>
      </g>
     </g>
    </g>
    <g id="ytick_8">
     <g id="line2d_27">
      <g>
       <use xlink:href="#m1d4842d3ef" x="45.103984" y="306.356016" style="fill: #7f7f7f; stroke: #7f7f7f; stroke-width: 1.8"/>
      </g>
     </g>
     <g id="text_29">
      <!-- 1.0 -->
      <g style="fill: #7f7f7f" transform="translate(22.200859 310.154844) scale(0.1 -0.1)">
       <use xlink:href="#DejaVuSans-14"/>
       <use xlink:href="#DejaVuSans-11" transform="translate(63.625 0)"/>
       <use xlink:href="#DejaVuSans-13" transform="translate(95.40625 0)"/>
      </g>
     </g>
    </g>
    <g id="ytick_9">
     <g id="line2d_28">
      <g>
       <use xlink:href="#m1d4842d3ef" x="45.103984" y="270.54185" style="fill: #7f7f7f; stroke: #7f7f7f; stroke-width: 1.8"/>
      </g>
     </g>
     <g id="text_30">
      <!-- 1.5 -->
      <g style="fill: #7f7f7f" transform="translate(22.200859 274.340678) scale(0.1 -0.1)">
       <use xlink:href="#DejaVuSans-14"/>
       <use xlink:href="#DejaVuSans-11" transform="translate(63.625 0)"/>
       <use xlink:href="#DejaVuSans-18" transform="translate(95.40625 0)"/>
      </g>
     </g>
    </g>
    <g id="ytick_10">
     <g id="line2d_29">
      <g>
       <use xlink:href="#m1d4842d3ef" x="45.103984" y="234.727684" style="fill: #7f7f7f; stroke: #7f7f7f; stroke-width: 1.8"/>
      </g>
     </g>
     <g id="text_31">
      <!-- 2.0 -->
      <g style="fill: #7f7f7f" transform="translate(22.200859 238.526512) scale(0.1 -0.1)">
       <use xlink:href="#DejaVuSans-15"/>
       <use xlink:href="#DejaVuSans-11" transform="translate(63.625 0)"/>
       <use xlink:href="#DejaVuSans-13" transform="translate(95.40625 0)"/>
      </g>
     </g>
    </g>
    <g id="text_32">
     <!-- Velocity Error [m/s] -->
     <g style="fill: #7f7f7f" transform="translate(15.558281 354.574434) rotate(-90) scale(0.11 -0.11)">
      <defs>
       <path id="DejaVuSans-39" d="M 1831 0 
L 50 4666 
L 709 4666 
L 2188 738 
L 3669 4666 
L 4325 4666 
L 2547 0 
L 1831 0 
z
" transform="scale(0.015625)"/>
       <path id="DejaVuSans-4f" d="M 603 4863 
L 1178 4863 
L 1178 0 
L 603 0 
L 603 4863 
z
" transform="scale(0.015625)"/>
       <path id="DejaVuSans-46" d="M 3122 3366 
L 3122 2828 
Q 2878 2963 2633 3030 
Q 2388 3097 2138 3097 
Q 1578 3097 1268 2742 
Q 959 2388 959 1747 
Q 959 1106 1268 751 
Q 1578 397 2138 397 
Q 2388 397 2633 464 
Q 2878 531 3122 666 
L 3122 134 
Q 2881 22 2623 -34 
Q 2366 -91 2075 -91 
Q 1284 -91 818 406 
Q 353 903 353 1747 
Q 353 2603 823 3093 
Q 1294 3584 2113 3584 
Q 2378 3584 2631 3529 
Q 2884 3475 3122 3366 
z
" transform="scale(0.015625)"/>
       <path id="DejaVuSans-5c" d="M 2059 -325 
Q 1816 -950 1584 -1140 
Q 1353 -1331 966 -1331 
L 506 -1331 
L 506 -850 
L 844 -850 
Q 1081 -850 1212 -737 
Q 1344 -625 1503 -206 
L 1606 56 
L 191 3500 
L 800 3500 
L 1894 763 
L 2988 3500 
L 3597 3500 
L 2059 -325 
z
" transform="scale(0.015625)"/>
       <path id="DejaVuSans-12" d="M 1625 4666 
L 2156 4666 
L 531 -594 
L 0 -594 
L 1625 4666 
z
" transform="scale(0.015625)"/>
      </defs>
      <use xlink:href="#DejaVuSans-39"/>
      <use xlink:href="#DejaVuSans-48" transform="translate(60.640625 0)"/>
      <use xlink:href="#DejaVuSans-4f" transform="translate(122.171875 0)"/>
      <use xlink:href="#DejaVuSans-52" transform="translate(149.953125 0)"/>
      <use xlink:href="#DejaVuSans-46" transform="translate(211.140625 0)"/>
      <use xlink:href="#DejaVuSans-4c" transform="translate(266.125 0)"/>
      <use xlink:href="#DejaVuSans-57" transform="translate(293.90625 0)"/>
      <use xlink:href="#DejaVuSans-5c" transform="translate(333.109375 0)"/>
      <use xlink:href="#DejaVuSans-3" transform="translate(392.296875 0)"/>
      <use xlink:href="#DejaVuSans-28" transform="translate(424.078125 0)"/>
      <use xlink:href="#DejaVuSans-55" transform="translate(487.265625 0)"/>
      <use xlink:href="#DejaVuSans-55" transform="translate(526.625 0)"/>
      <use xlink:href="#DejaVuSans-52" transform="translate(565.53125 0)"/>
      <use xlink:href="#DejaVuSans-55" transform="translate(626.71875 0)"/>
      <use xlink:href="#DejaVuSans-3" transform="translate(667.828125 0)"/>
      <use xlink:href="#DejaVuSans-3e" transform="translate(699.609375 0)"/>
      <use xlink:href="#DejaVuSans-50" transform="translate(738.625 0)"/>
      <use xlink:href="#DejaVuSans-12" transform="translate(836.03125 0)"/>
      <use xlink:href="#DejaVuSans-56" transform="translate(869.71875 0)"/>
      <use xlink:href="#DejaVuSans-40" transform="translate(921.8125 0)"/>
     </g>
    </g>
   </g>
   <g id="line2d_30">
    <path d="M 68.581076 234.727684 
L 69.285389 233.980136 
L 69.52016 231.911138 
L 69.754931 237.101756 
L 70.224472 240.937353 
L 70.459243 237.443264 
L 71.163556 232.036371 
L 72.10264 274.821229 
L 72.572182 271.354189 
L 72.806952 276.605693 
L 73.041723 275.218416 
L 73.980807 225.483201 
L 74.215578 249.183544 
L 74.450349 249.292261 
L 75.154662 233.079273 
L 75.389433 228.516553 
L 76.563287 273.161814 
L 76.798058 260.534695 
L 77.032829 274.591069 
L 77.502371 273.066265 
L 77.737142 266.907261 
L 78.206684 273.910815 
L 78.441454 274.923171 
L 79.85008 318.000643 
L 80.084851 313.626676 
L 81.023935 336.90941 
L 83.841186 367.504987 
L 84.075956 359.552475 
L 84.545498 372.169133 
L 84.780269 377.174264 
L 85.249811 374.254096 
L 86.423666 354.141626 
L 85.719353 377.231443 
L 86.658437 359.942965 
L 86.893207 359.625589 
L 87.832291 377.034551 
L 88.301833 369.233963 
L 88.536604 370.292568 
L 88.771375 369.173253 
L 89.240917 364.72514 
L 89.475688 369.897807 
L 89.710458 367.850889 
L 89.945229 369.050265 
L 90.18 364.206794 
L 90.649542 372.846031 
L 91.588626 367.552269 
L 91.119084 376.693387 
L 91.823397 370.032224 
L 93.466793 377.052626 
L 94.640648 369.156028 
L 94.875419 372.656779 
L 95.579731 373.80579 
L 95.814502 367.346699 
L 96.284044 374.269659 
L 96.518815 368.875239 
L 96.988357 369.289376 
L 98.631753 354.924596 
L 99.101295 357.26122 
L 100.040379 362.854696 
L 100.27515 358.262633 
L 100.979462 361.802034 
L 101.918546 368.714666 
L 102.153317 363.687241 
L 102.622859 364.619485 
L 102.85763 361.91992 
L 103.092401 354.081414 
L 103.796713 356.171423 
L 104.735797 363.277 
L 106.379194 375.284304 
L 108.02259 377.524285 
L 108.257361 376.572888 
L 109.196444 369.650333 
L 109.431215 369.749176 
L 109.665986 368.224765 
L 110.135528 369.943579 
L 110.370299 369.749698 
L 111.074612 375.054899 
L 111.309383 369.491014 
L 112.013695 372.379381 
L 112.718008 369.281257 
L 112.952779 369.878427 
L 114.126634 377.649496 
L 114.361405 377.504489 
L 115.77003 371.778525 
L 116.709114 375.588729 
L 116.943885 374.852986 
L 117.648197 370.284669 
L 118.117739 371.154509 
L 119.291594 373.738565 
L 119.761136 369.982037 
L 120.230678 371.384385 
L 121.169761 377.917175 
L 121.404532 377.09028 
L 122.108845 367.324726 
L 123.047929 368.271837 
L 125.630409 353.869416 
L 125.86518 357.456923 
L 127.273805 363.018735 
L 129.151972 372.317326 
L 129.621514 370.908213 
L 130.091056 370.93611 
L 130.795369 365.166407 
L 131.264911 368.095617 
L 131.734452 372.718355 
L 132.203994 369.066973 
L 132.438765 369.225117 
L 133.61262 377.811344 
L 133.143078 369.035336 
L 134.082162 376.55892 
L 134.551703 373.678178 
L 135.021245 375.715916 
L 135.725558 374.967195 
L 136.1951 377.545611 
L 137.368954 375.151062 
L 137.603725 377.497993 
L 138.542809 377.009683 
L 139.716664 375.100264 
L 141.125289 364.180598 
L 141.36006 364.897738 
L 141.594831 364.662187 
L 142.533915 369.342331 
L 142.768686 368.79268 
L 143.003456 366.714126 
L 143.238227 366.847218 
L 144.646853 377.779079 
L 144.881624 377.605703 
L 145.820707 374.195698 
L 146.055478 374.341967 
L 147.464104 366.919826 
L 147.698875 368.826073 
L 148.168417 370.357168 
L 148.403187 369.271282 
L 149.811813 364.456028 
L 151.455209 372.673047 
L 151.68998 368.52515 
L 152.394293 370.796405 
L 153.568148 375.077939 
L 154.037689 370.598758 
L 154.507231 375.408368 
L 154.742002 376.203986 
L 154.976773 375.261493 
L 156.385399 368.677369 
L 156.85494 371.332104 
L 157.089711 368.837646 
L 157.324482 365.476829 
L 157.559253 368.986255 
L 157.794024 368.245726 
L 158.498337 373.065637 
L 158.967879 370.883778 
L 159.20265 370.366558 
L 159.437421 371.020374 
L 160.376504 377.568384 
L 160.846046 375.078322 
L 162.019901 371.542392 
L 162.254672 373.320811 
L 162.489442 369.485763 
L 162.958984 373.494774 
L 163.193755 371.778067 
L 163.663297 370.915045 
L 164.36761 366.764505 
L 164.602381 371.116051 
L 164.837152 369.085492 
L 165.541464 368.658235 
L 168.123944 377.0092 
L 168.593486 377.686126 
L 169.297799 371.2435 
L 169.767341 373.125482 
L 170.002112 376.782164 
L 170.471654 369.398696 
L 172.349821 377.428392 
L 173.054134 373.398628 
L 173.288905 373.89089 
L 173.758446 376.364196 
L 174.462759 375.762579 
L 175.401843 377.829312 
L 175.636614 377.531049 
L 176.575697 367.988288 
L 176.810468 370.286973 
L 177.045239 369.828363 
L 177.984323 377.579397 
L 178.219094 377.197015 
L 178.688636 371.879667 
L 179.158178 377.899019 
L 180.801574 368.948793 
L 181.036345 368.703493 
L 181.975429 375.54871 
L 182.210199 374.531814 
L 184.088367 365.508482 
L 185.262221 373.168125 
L 185.496992 373.583956 
L 185.731763 377.842959 
L 186.201305 375.283475 
L 187.140389 370.287357 
L 187.37516 370.889788 
L 188.783785 377.633406 
L 190.192411 373.499065 
L 190.896723 377.261823 
L 191.366265 375.040154 
L 191.835807 376.645252 
L 192.070578 374.447872 
L 192.774891 370.961234 
L 193.009662 373.620768 
L 193.479203 373.002846 
L 193.948745 374.618053 
L 195.1226 370.827781 
L 195.357371 373.151882 
L 195.592142 374.648823 
L 195.826913 373.167203 
L 197.000767 364.841966 
L 197.235538 363.60131 
L 197.70508 364.887203 
L 198.409393 364.433749 
L 199.583247 371.012412 
L 200.052789 368.430294 
L 200.522331 369.842643 
L 202.165727 377.146105 
L 200.991873 368.876325 
L 202.87004 375.75229 
L 203.104811 375.149757 
L 203.339582 375.572388 
L 203.809124 377.859837 
L 204.278666 377.585688 
L 205.687291 368.113046 
L 205.922062 370.784988 
L 206.391604 377.843076 
L 207.330687 377.707388 
L 209.208855 363.054935 
L 210.61748 354.873047 
L 211.556564 356.804792 
L 213.434731 364.865565 
L 215.078128 356.773572 
L 216.017211 363.21046 
L 216.251982 360.440872 
L 216.486753 358.123492 
L 217.191066 360.575515 
L 217.895379 366.890428 
L 218.13015 366.51412 
L 219.304004 373.757975 
L 219.538775 369.894006 
L 220.008317 374.030052 
L 220.243088 371.331264 
L 220.947401 373.892263 
L 221.182172 373.255941 
L 221.416942 371.232865 
L 221.886484 373.493209 
L 223.529881 377.558345 
L 224.234193 371.796929 
L 224.703735 373.643558 
L 225.173277 374.075093 
L 225.408048 377.015249 
L 226.112361 376.051089 
L 226.581903 371.864749 
L 227.286215 373.847934 
L 227.520986 372.898754 
L 227.755757 377.858184 
L 228.46007 374.494206 
L 228.694841 374.228314 
L 229.633925 367.496398 
L 229.868695 369.770628 
L 230.573008 371.576978 
L 231.277321 366.155725 
L 231.746863 368.020234 
L 231.981634 368.54713 
L 233.155488 364.522238 
L 233.390259 366.144681 
L 233.62503 362.6285 
L 233.859801 364.139518 
L 234.094572 363.280527 
L 234.329343 368.124313 
L 235.033656 366.252182 
L 235.503197 366.424666 
L 235.972739 369.142446 
L 236.442281 367.915241 
L 236.677052 367.910467 
L 238.78999 374.88535 
L 239.494303 375.191237 
L 239.963845 370.955798 
L 242.546325 377.743879 
L 243.485409 371.175835 
L 243.720179 371.883776 
L 243.95495 377.215206 
L 244.659263 370.62855 
L 244.894034 370.17808 
L 245.128805 370.391025 
L 245.833118 376.825192 
L 247.006972 376.476648 
L 247.476514 375.626284 
L 247.711285 377.507068 
L 248.415598 377.031858 
L 248.650369 375.979761 
L 249.119911 377.302536 
L 249.354681 376.964561 
L 249.589452 377.450245 
L 250.293765 370.621528 
L 250.528536 372.765334 
L 251.46762 372.554536 
L 251.937162 376.050294 
L 252.171932 375.303381 
L 252.406703 377.022351 
L 252.641474 377.829939 
L 253.111016 376.379627 
L 253.580558 369.528974 
L 254.284871 372.520635 
L 254.519642 371.903482 
L 254.754413 372.086158 
L 255.458725 375.014104 
L 255.693496 373.192125 
L 256.63258 364.001734 
L 256.867351 367.652119 
L 257.102122 367.601421 
L 257.806434 362.749658 
L 258.275976 364.02216 
L 258.745518 366.3785 
L 258.980289 365.203873 
L 259.21506 363.154187 
L 259.684602 363.87611 
L 260.623685 376.092152 
L 261.093227 375.818975 
L 262.032311 371.637037 
L 262.267082 374.64128 
L 263.440936 377.669877 
L 263.910478 377.311931 
L 264.614791 371.792109 
L 264.849562 371.979924 
L 265.084333 368.749343 
L 265.553875 373.554384 
L 265.788646 371.773312 
L 266.023417 371.140588 
L 266.492958 366.417334 
L 266.9625 370.751051 
L 267.901584 367.966473 
L 268.840668 361.845924 
L 269.310209 363.133673 
L 269.54498 366.459819 
L 270.014522 360.832458 
L 270.249293 363.469902 
L 271.423148 359.539285 
L 271.657919 362.417094 
L 272.362231 360.768145 
L 272.597002 360.290381 
L 273.066544 366.020275 
L 273.536086 361.839391 
L 274.240399 356.550826 
L 274.70994 357.839853 
L 276.353337 368.957561 
L 277.05765 365.770412 
L 277.527191 368.546945 
L 278.466275 375.614261 
L 278.701046 373.676135 
L 278.935817 372.062931 
L 279.405359 375.695353 
L 279.64013 374.097988 
L 280.813984 377.461352 
L 281.987839 376.5913 
L 282.692152 377.902824 
L 282.926922 377.790472 
L 283.866006 368.81801 
L 284.335548 371.374116 
L 284.80509 370.198355 
L 285.744173 376.693031 
L 286.918028 372.01895 
L 288.326654 364.032284 
L 287.38757 372.345387 
L 288.561424 364.973088 
L 289.265737 360.612868 
L 290.674363 356.965126 
L 294.195926 377.452445 
L 295.13501 376.696098 
L 295.369781 376.447986 
L 296.074094 375.600518 
L 296.308865 377.778121 
L 297.247948 374.954873 
L 297.482719 377.434519 
L 298.187032 374.944058 
L 299.126116 366.419684 
L 299.595658 370.523368 
L 299.830428 370.53752 
L 300.534741 372.447954 
L 301.943367 365.42119 
L 302.412909 362.259007 
L 302.647679 364.873628 
L 302.88245 367.485531 
L 303.351992 363.445883 
L 303.586763 364.728102 
L 304.056305 363.963131 
L 304.525847 364.998427 
L 304.760618 364.397955 
L 305.934472 358.316794 
L 306.169243 360.935279 
L 306.638785 356.751662 
L 306.873556 357.885885 
L 307.108327 356.942727 
L 307.577869 358.07155 
L 308.986494 367.307575 
L 309.456036 368.828415 
L 309.925578 365.837701 
L 311.568974 377.974572 
L 312.9776 371.430473 
L 313.212371 373.713295 
L 313.681912 369.431454 
L 313.916683 367.038983 
L 314.386225 370.120989 
L 314.620996 371.764847 
L 315.090538 371.293836 
L 316.968705 359.149733 
L 317.203476 360.239512 
L 318.377331 365.844643 
L 318.612102 362.493956 
L 319.551185 362.654663 
L 320.255498 363.760194 
L 320.490269 362.449212 
L 320.72504 361.275166 
L 321.429353 361.500935 
L 322.133665 362.838595 
L 323.072749 369.707365 
L 323.30752 366.940214 
L 323.777062 364.108096 
L 324.011833 365.644612 
L 324.246604 369.145025 
L 324.950916 365.389803 
L 325.420458 368.489936 
L 325.89 367.200473 
L 326.594313 359.690869 
L 327.063855 363.325248 
L 328.237709 366.687879 
L 328.47248 364.536538 
L 328.707251 361.941483 
L 329.176793 365.651266 
L 330.820189 371.922186 
L 331.994044 377.435941 
L 332.228815 377.720558 
L 332.463586 375.448924 
L 332.698357 377.863041 
L 333.167899 376.853624 
L 333.63744 374.188172 
L 333.872211 376.217822 
L 334.106982 377.583938 
L 334.576524 375.523211 
L 335.046066 370.787267 
L 335.515608 375.22329 
L 336.21992 377.534946 
L 336.689462 375.967798 
L 336.924233 375.659691 
L 337.393775 376.258749 
L 337.863317 376.903167 
L 339.506713 368.350541 
L 340.445797 376.180483 
L 340.915339 375.287209 
L 341.384881 374.141981 
L 341.619652 376.125418 
L 342.323964 376.529704 
L 342.089193 375.206137 
L 342.558735 375.841319 
L 343.497819 369.527747 
L 343.967361 367.005806 
L 344.202132 367.460232 
L 344.906444 375.84996 
L 345.375986 370.216846 
L 345.610757 370.899381 
L 345.845528 370.792038 
L 346.549841 365.830951 
L 347.019383 367.265602 
L 348.89755 377.924074 
L 349.132321 377.591728 
L 349.601863 367.240449 
L 350.306175 369.688753 
L 351.949572 361.942789 
L 352.184343 362.900404 
L 352.419114 360.935985 
L 353.123426 357.672149 
L 353.358197 358.518184 
L 353.592968 360.380841 
L 354.06251 356.972194 
L 354.297281 358.210268 
L 354.532052 356.557457 
L 355.001594 359.083414 
L 356.175448 366.142264 
L 356.410219 365.06633 
L 356.879761 363.428237 
L 358.053616 359.474528 
L 360.166554 376.365493 
L 360.401325 372.390705 
L 360.636096 377.410339 
L 360.870867 376.649763 
L 361.340408 377.844622 
L 362.983805 362.270819 
L 363.453347 366.055526 
L 364.157659 364.724024 
L 364.39243 365.708077 
L 364.627201 363.428803 
L 364.861972 364.059578 
L 365.566285 360.013957 
L 365.801056 361.152131 
L 368.148765 377.664369 
L 368.853078 377.289295 
L 369.087849 377.448876 
L 370.026932 372.48491 
L 370.496474 377.367641 
L 370.966016 372.331411 
L 371.200787 376.255193 
L 371.435558 377.056917 
L 372.609412 365.594484 
L 372.844183 369.194822 
L 373.078954 368.238068 
L 373.313725 370.414463 
L 373.783267 368.635297 
L 374.722351 377.704685 
L 375.426663 375.942339 
L 375.661434 376.629346 
L 376.835289 368.963192 
L 377.304831 373.9933 
L 377.539602 372.034536 
L 378.948227 362.876492 
L 379.182998 362.002731 
L 379.887311 368.62016 
L 380.356853 365.34775 
L 380.591624 364.55976 
L 380.826395 370.352634 
L 381.530707 367.25143 
L 382.23502 367.59515 
L 382.469791 366.55506 
L 383.174104 370.211798 
L 383.643646 367.38944 
L 383.878416 365.663625 
L 384.113187 370.228373 
L 385.521813 371.918384 
L 386.695667 377.613091 
L 388.339064 373.283962 
L 388.573835 373.722066 
L 389.512918 377.586702 
L 390.686773 370.034876 
L 390.921544 372.534642 
L 391.391086 375.759839 
L 391.860628 374.201514 
L 392.799711 365.849635 
L 393.034482 366.347475 
L 393.504024 372.83452 
L 394.208337 370.307577 
L 394.677879 371.470463 
L 396.321275 363.08737 
L 397.260359 368.588342 
L 397.49513 366.630535 
L 397.964671 365.351114 
L 399.138526 371.617989 
L 400.781922 361.559001 
L 401.016693 362.527517 
L 401.721006 360.916994 
L 402.894861 367.723347 
L 405.477341 352.861489 
L 405.712112 352.89721 
L 405.946883 354.053789 
L 406.181653 361.631273 
L 407.120737 360.318336 
L 407.82505 364.659636 
L 408.529363 361.933192 
L 408.764134 361.836844 
L 408.998904 362.853196 
L 409.233675 361.32295 
L 409.468446 362.443481 
L 410.642301 353.837781 
L 410.877072 354.682607 
L 412.99001 367.921527 
L 413.224781 367.861519 
L 413.929094 376.371122 
L 414.633406 372.840386 
L 414.868177 373.043576 
L 415.102948 376.43623 
L 416.042032 376.326676 
L 417.920199 373.40618 
L 418.15497 375.047317 
L 418.624512 371.457204 
L 419.094054 368.609913 
L 419.328825 371.235834 
L 419.798367 377.493845 
L 420.972221 375.571988 
L 421.676534 365.775718 
L 421.911305 372.196223 
L 422.146076 374.023652 
L 422.380847 370.796551 
L 422.615618 371.943915 
L 423.789472 370.037066 
L 424.024243 371.214102 
L 424.259014 369.428179 
L 424.728556 361.678475 
L 425.432869 365.101848 
L 425.66764 365.09322 
L 425.90241 362.633056 
L 426.137181 367.191671 
L 426.606723 365.048727 
L 427.545807 368.903854 
L 428.25012 364.707181 
L 428.719661 366.061405 
L 429.189203 366.811493 
L 430.363058 369.172738 
L 430.597829 367.885886 
L 431.067371 370.561705 
L 431.302142 369.675712 
L 431.536912 371.34259 
L 431.771683 371.835736 
L 432.006454 377.957501 
L 432.710767 370.973494 
L 433.41508 372.957685 
L 433.649851 371.531641 
L 434.354163 368.459663 
L 435.058476 368.973415 
L 435.762789 370.730195 
L 435.528018 367.98299 
L 435.99756 369.267002 
L 436.467102 368.877226 
L 438.110498 374.514589 
L 438.345269 373.734308 
L 438.58004 374.179856 
L 439.753894 377.124438 
L 440.223436 377.214049 
L 441.16252 371.465412 
L 441.397291 372.117504 
L 441.632062 372.602446 
L 442.805916 364.094444 
L 443.275458 363.835987 
L 443.510229 366.568165 
L 443.979771 359.390381 
L 444.449313 361.122212 
L 445.623167 367.983445 
L 445.857938 367.273673 
L 446.092709 370.984518 
L 446.562251 368.312734 
L 446.797022 365.154559 
L 447.031793 368.880472 
L 447.501335 366.846266 
L 449.849044 374.373795 
L 447.970877 366.525462 
L 450.083815 374.068323 
L 450.553357 377.919275 
L 451.257669 376.856359 
L 452.196753 377.48288 
L 452.666295 377.778024 
L 453.370608 375.693715 
L 453.840149 377.645451 
L 454.07492 374.124732 
L 454.309691 370.457933 
L 455.014004 372.163243 
L 455.248775 373.092795 
L 455.483546 370.088084 
L 455.953088 366.926552 
L 456.187859 369.640898 
L 456.42263 372.083365 
L 456.892171 371.199488 
L 457.126942 368.803253 
L 457.596484 371.067121 
L 458.770339 375.63823 
L 459.239881 377.893256 
L 460.883277 360.523651 
L 461.118048 361.23483 
L 462.057132 369.883795 
L 463.230986 367.572354 
L 463.465757 367.53768 
L 463.700528 369.141236 
L 464.17007 367.376998 
L 465.109153 365.98254 
L 468.161175 377.775082 
L 469.804572 369.025946 
L 470.039343 369.902568 
L 470.274114 365.528726 
L 470.978426 368.868374 
L 471.447968 367.937109 
L 472.152281 364.401237 
L 472.387052 369.041523 
L 473.091365 365.126573 
L 473.560906 368.215214 
L 473.795677 369.633336 
L 474.030448 366.803076 
L 474.49999 367.811255 
L 474.734761 366.872911 
L 475.204303 368.512637 
L 475.908616 375.73296 
L 476.612928 374.002963 
L 476.847699 374.094958 
L 477.08247 372.904561 
L 477.317241 375.61832 
L 477.552012 374.873819 
L 477.786783 377.898453 
L 478.725867 377.532404 
L 479.195408 374.317879 
L 479.899721 376.283422 
L 480.134492 377.808662 
L 480.838805 376.028953 
L 481.777888 367.912182 
L 482.482201 368.507515 
L 483.890827 375.959805 
L 484.360369 373.763849 
L 485.064681 371.597118 
L 485.768994 375.610991 
L 486.003765 374.486495 
L 486.238536 373.509209 
L 486.473307 376.93188 
L 486.708078 373.53956 
L 486.942849 367.485543 
L 487.647161 374.635249 
L 487.881932 377.866845 
L 488.351474 374.209016 
L 489.525329 367.499218 
L 489.7601 367.869498 
L 490.229641 373.938026 
L 490.699183 372.740967 
L 491.168725 367.140848 
L 491.873038 369.716939 
L 493.046892 374.682306 
L 492.577351 369.129305 
L 493.281663 374.363405 
L 493.516434 377.693783 
L 493.751205 372.311892 
L 494.220747 376.841323 
L 494.690289 377.405271 
L 495.629373 373.4523 
L 496.333685 370.872274 
L 496.803227 376.166052 
L 497.272769 371.473136 
L 497.50754 376.712647 
L 497.977082 373.047194 
L 498.211853 375.759444 
L 498.681394 373.992492 
L 499.385707 365.110668 
L 499.855249 370.581933 
L 500.794333 365.343529 
L 501.029104 366.75614 
L 501.263875 368.527962 
L 501.733416 365.444738 
L 502.202958 363.68302 
L 502.437729 364.032768 
L 503.611584 371.78307 
L 504.081126 365.54555 
L 504.785438 367.312915 
L 505.724522 372.557667 
L 505.959293 372.488373 
L 506.194064 373.075496 
L 506.663606 377.064924 
L 507.133147 376.685566 
L 507.602689 372.802899 
L 508.072231 375.748195 
L 508.307002 377.478954 
L 508.541773 375.126218 
L 509.011315 375.995369 
L 509.246086 374.708946 
L 509.480857 376.291321 
L 509.715628 377.861837 
L 509.950398 375.171017 
L 510.41994 377.266793 
L 511.828566 368.46716 
L 512.298108 372.074104 
L 513.237191 377.896066 
L 513.471962 376.891929 
L 513.941504 372.744243 
L 514.880588 374.136311 
L 515.115359 375.400318 
L 515.35013 373.857913 
L 515.819671 372.218565 
L 516.054442 373.022851 
L 516.993526 377.676535 
L 517.228297 376.425281 
L 518.636922 370.110964 
L 519.106464 373.781629 
L 519.341235 377.819605 
L 520.045548 376.304364 
L 520.280319 376.5162 
L 522.862799 365.048357 
L 524.036653 370.220367 
L 525.210508 363.050928 
L 527.558217 377.852699 
L 528.497301 375.258489 
L 529.671155 371.859834 
L 530.140697 377.149648 
L 530.84501 376.399411 
L 531.784094 369.982882 
L 532.018865 372.96713 
L 532.488406 371.085162 
L 532.957948 371.685005 
L 533.42749 377.272556 
L 534.366574 376.488265 
L 534.601345 374.143315 
L 535.305657 376.406659 
L 535.775199 375.397767 
L 536.00997 376.344981 
L 536.479512 374.628248 
L 537.183825 377.325357 
L 538.122908 374.575159 
L 538.122908 374.575159 
" clip-path="url(#p29fd6a286f)" style="fill: none; stroke: #e41a1c; stroke-width: 2; stroke-linecap: square"/>
   </g>
   <g id="patch_6">
    <path d="M 45.103984 385.599141 
L 45.103984 217.858633 
" style="fill: none; stroke: #7f7f7f; stroke-width: 1.8; stroke-linejoin: miter; stroke-linecap: square"/>
   </g>
   <g id="patch_7">
    <path d="M 45.103984 385.599141 
L 561.6 385.599141 
" style="fill: none; stroke: #7f7f7f; stroke-width: 1.8; stroke-linejoin: miter; stroke-linecap: square"/>
   </g>
  </g>
 </g>
 <defs>
  <clipPath id="p1c1e18ac55">
   <rect x="45.103984" y="22.318125" width="516.496016" height="167.740508"/>
  </clipPath>
  <clipPath id="p29fd6a286f">
   <rect x="45.103984" y="217.858633" width="516.496016" height="167.740508"/>
  </clipPath>
 </defs>
</svg>
