<?xml version="1.0" encoding="utf-8" standalone="no"?>
<!DOCTYPE svg PUBLIC "-//W3C//DTD SVG 1.1//EN"
  "http://www.w3.org/Graphics/SVG/1.1/DTD/svg11.dtd">
<svg xmlns:xlink="http://www.w3.org/1999/xlink" width="568.8pt" height="424.8pt" viewBox="0 0 568.8 424.8" xmlns="http://www.w3.org/2000/svg" version="1.1">
 <metadata>
  <rdf:RDF xmlns:dc="http://purl.org/dc/elements/1.1/" xmlns:cc="http://creativecommons.org/ns#" xmlns:rdf="http://www.w3.org/1999/02/22-rdf-syntax-ns#">
   <cc:Work>
    <dc:type rdf:resource="http://purl.org/dc/dcmitype/StillImage"/>
    <dc:date>2026-06-23T00:57:11.440096</dc:date>
    <dc:format>image/svg+xml</dc:format>
    <dc:creator>
     <cc:Agent>
      <dc:title>Matplotlib v3.11.0, https://matplotlib.org/</dc:title>
     </cc:Agent>
    </dc:creator>
   </cc:Work>
  </rdf:RDF>
 </metadata>
 <defs>
  <style type="text/css">*{stroke-linejoin: round; stroke-linecap: butt}</style>
 </defs>
 <g id="figure_1">
  <g id="patch_1">
   <path d="M 0 424.8 
L 568.8 424.8 
L 568.8 0 
L 0 0 
L 0 424.8 
z
" style="fill: none"/>
  </g>
  <g id="axes_1">
   <g id="patch_2">
    <path d="M 45.103984 190.058633 
L 561.6 190.058633 
L 561.6 22.318125 
L 45.103984 22.318125 
L 45.103984 190.058633 
z
" style="fill: none"/>
   </g>
   <g id="matplotlib.axis_1">
    <g id="xtick_1">
     <g id="line2d_1">
      <defs>
       <path id="mcd77564425" d="M 0 0 
L 0 3.5 
" style="stroke: #7f7f7f; stroke-width: 1.8"/>
      </defs>
      <g>
       <use xlink:href="#mcd77564425" x="68.581076" y="190.058633" style="fill: #7f7f7f; stroke: #7f7f7f; stroke-width: 1.8"/>
      </g>
     </g>
     <g id="text_1">
      <!-- 0.0 -->
      <g style="fill: #7f7f7f" transform="translate(60.629513 204.656289) scale(0.1 -0.1)">
       <defs>
        <path id="DejaVuSans-13" d="M 2034 4250 
Q 1547 4250 1301 3770 
Q 1056 3291 1056 2328 
Q 1056 1369 1301 889 
Q 1547 409 2034 409 
Q 2525 409 2770 889 
Q 3016 1369 3016 2328 
Q 3016 3291 2770 3770 
Q 2525 4250 2034 4250 
z
M 2034 4750 
Q 2819 4750 3233 4129 
Q 3647 3509 3647 2328 
Q 3647 1150 3233 529 
Q 2819 -91 2034 -91 
Q 1250 -91 836 529 
Q 422 1150 422 2328 
Q 422 3509 836 4129 
Q 1250 4750 2034 4750 
z
" transform="scale(0.015625)"/>
        <path id="DejaVuSans-11" d="M 684 794 
L 1344 794 
L 1344 0 
L 684 0 
L 684 794 
z
" transform="scale(0.015625)"/>
       </defs>
       <use xlink:href="#DejaVuSans-13"/>
       <use xlink:href="#DejaVuSans-11" transform="translate(63.625 0)"/>
       <use xlink:href="#DejaVuSans-13" transform="translate(95.40625 0)"/>
      </g>
     </g>
    </g>
    <g id="xtick_2">
     <g id="line2d_2">
      <g>
       <use xlink:href="#mcd77564425" x="127.273805" y="190.058633" style="fill: #7f7f7f; stroke: #7f7f7f; stroke-width: 1.8"/>
      </g>
     </g>
     <g id="text_2">
      <!-- 2.5 -->
      <g style="fill: #7f7f7f" transform="translate(119.322243 204.656289) scale(0.1 -0.1)">
       <defs>
        <path id="DejaVuSans-15" d="M 1228 531 
L 3431 531 
L 3431 0 
L 469 0 
L 469 531 
Q 828 903 1448 1529 
Q 2069 2156 2228 2338 
Q 2531 2678 2651 2914 
Q 2772 3150 2772 3378 
Q 2772 3750 2511 3984 
Q 2250 4219 1831 4219 
Q 1534 4219 1204 4116 
Q 875 4013 500 3803 
L 500 4441 
Q 881 4594 1212 4672 
Q 1544 4750 1819 4750 
Q 2544 4750 2975 4387 
Q 3406 4025 3406 3419 
Q 3406 3131 3298 2873 
Q 3191 2616 2906 2266 
Q 2828 2175 2409 1742 
Q 1991 1309 1228 531 
z
" transform="scale(0.015625)"/>
        <path id="DejaVuSans-18" d="M 691 4666 
L 3169 4666 
L 3169 4134 
L 1269 4134 
L 1269 2991 
Q 1406 3038 1543 3061 
Q 1681 3084 1819 3084 
Q 2600 3084 3056 2656 
Q 3513 2228 3513 1497 
Q 3513 744 3044 326 
Q 2575 -91 1722 -91 
Q 1428 -91 1123 -41 
Q 819 9 494 109 
L 494 744 
Q 775 591 1075 516 
Q 1375 441 1709 441 
Q 2250 441 2565 725 
Q 2881 1009 2881 1497 
Q 2881 1984 2565 2268 
Q 2250 2553 1709 2553 
Q 1456 2553 1204 2497 
Q 953 2441 691 2322 
L 691 4666 
z
" transform="scale(0.015625)"/>
       </defs>
       <use xlink:href="#DejaVuSans-15"/>
       <use xlink:href="#DejaVuSans-11" transform="translate(63.625 0)"/>
       <use xlink:href="#DejaVuSans-18" transform="translate(95.40625 0)"/>
      </g>
     </g>
    </g>
    <g id="xtick_3">
     <g id="line2d_3">
      <g>
       <use xlink:href="#mcd77564425" x="185.966534" y="190.058633" style="fill: #7f7f7f; stroke: #7f7f7f; stroke-width: 1.8"/>
      </g>
     </g>
     <g id="text_3">
      <!-- 5.0 -->
      <g style="fill: #7f7f7f" transform="translate(178.014972 204.656289) scale(0.1 -0.1)">
       <use xlink:href="#DejaVuSans-18"/>
       <use xlink:href="#DejaVuSans-11" transform="translate(63.625 0)"/>
       <use xlink:href="#DejaVuSans-13" transform="translate(95.40625 0)"/>
      </g>
     </g>
    </g>
    <g id="xtick_4">
     <g id="line2d_4">
      <g>
       <use xlink:href="#mcd77564425" x="244.659263" y="190.058633" style="fill: #7f7f7f; stroke: #7f7f7f; stroke-width: 1.8"/>
      </g>
     </g>
     <g id="text_4">
      <!-- 7.5 -->
      <g style="fill: #7f7f7f" transform="translate(236.707701 204.656289) scale(0.1 -0.1)">
       <defs>
        <path id="DejaVuSans-1a" d="M 525 4666 
L 3525 4666 
L 3525 4397 
L 1831 0 
L 1172 0 
L 2766 4134 
L 525 4134 
L 525 4666 
z
" transform="scale(0.015625)"/>
       </defs>
       <use xlink:href="#DejaVuSans-1a"/>
       <use xlink:href="#DejaVuSans-11" transform="translate(63.625 0)"/>
       <use xlink:href="#DejaVuSans-18" transform="translate(95.40625 0)"/>
      </g>
     </g>
    </g>
    <g id="xtick_5">
     <g id="line2d_5">
      <g>
       <use xlink:href="#mcd77564425" x="303.351992" y="190.058633" style="fill: #7f7f7f; stroke: #7f7f7f; stroke-width: 1.8"/>
      </g>
     </g>
     <g id="text_5">
      <!-- 10.0 -->
      <g style="fill: #7f7f7f" transform="translate(292.21918 204.656289) scale(0.1 -0.1)">
       <defs>
        <path id="DejaVuSans-14" d="M 794 531 
L 1825 531 
L 1825 4091 
L 703 3866 
L 703 4441 
L 1819 4666 
L 2450 4666 
L 2450 531 
L 3481 531 
L 3481 0 
L 794 0 
L 794 531 
z
" transform="scale(0.015625)"/>
       </defs>
       <use xlink:href="#DejaVuSans-14"/>
       <use xlink:href="#DejaVuSans-13" transform="translate(63.625 0)"/>
       <use xlink:href="#DejaVuSans-11" transform="translate(127.25 0)"/>
       <use xlink:href="#DejaVuSans-13" transform="translate(159.03125 0)"/>
      </g>
     </g>
    </g>
    <g id="xtick_6">
     <g id="line2d_6">
      <g>
       <use xlink:href="#mcd77564425" x="362.044721" y="190.058633" style="fill: #7f7f7f; stroke: #7f7f7f; stroke-width: 1.8"/>
      </g>
     </g>
     <g id="text_6">
      <!-- 12.5 -->
      <g style="fill: #7f7f7f" transform="translate(350.911909 204.656289) scale(0.1 -0.1)">
       <use xlink:href="#DejaVuSans-14"/>
       <use xlink:href="#DejaVuSans-15" transform="translate(63.625 0)"/>
       <use xlink:href="#DejaVuSans-11" transform="translate(127.25 0)"/>
       <use xlink:href="#DejaVuSans-18" transform="translate(159.03125 0)"/>
      </g>
     </g>
    </g>
    <g id="xtick_7">
     <g id="line2d_7">
      <g>
       <use xlink:href="#mcd77564425" x="420.73745" y="190.058633" style="fill: #7f7f7f; stroke: #7f7f7f; stroke-width: 1.8"/>
      </g>
     </g>
     <g id="text_7">
      <!-- 15.0 -->
      <g style="fill: #7f7f7f" transform="translate(409.604638 204.656289) scale(0.1 -0.1)">
       <use xlink:href="#DejaVuSans-14"/>
       <use xlink:href="#DejaVuSans-18" transform="translate(63.625 0)"/>
       <use xlink:href="#DejaVuSans-11" transform="translate(127.25 0)"/>
       <use xlink:href="#DejaVuSans-13" transform="translate(159.03125 0)"/>
      </g>
     </g>
    </g>
    <g id="xtick_8">
     <g id="line2d_8">
      <g>
       <use xlink:href="#mcd77564425" x="479.430179" y="190.058633" style="fill: #7f7f7f; stroke: #7f7f7f; stroke-width: 1.8"/>
      </g>
     </g>
     <g id="text_8">
      <!-- 17.5 -->
      <g style="fill: #7f7f7f" transform="translate(468.297367 204.656289) scale(0.1 -0.1)">
       <use xlink:href="#DejaVuSans-14"/>
       <use xlink:href="#DejaVuSans-1a" transform="translate(63.625 0)"/>
       <use xlink:href="#DejaVuSans-11" transform="translate(127.25 0)"/>
       <use xlink:href="#DejaVuSans-18" transform="translate(159.03125 0)"/>
      </g>
     </g>
    </g>
    <g id="xtick_9">
     <g id="line2d_9">
      <g>
       <use xlink:href="#mcd77564425" x="538.122908" y="190.058633" style="fill: #7f7f7f; stroke: #7f7f7f; stroke-width: 1.8"/>
      </g>
     </g>
     <g id="text_9">
      <!-- 20.0 -->
      <g style="fill: #7f7f7f" transform="translate(526.990096 204.656289) scale(0.1 -0.1)">
       <use xlink:href="#DejaVuSans-15"/>
       <use xlink:href="#DejaVuSans-13" transform="translate(63.625 0)"/>
       <use xlink:href="#DejaVuSans-11" transform="translate(127.25 0)"/>
       <use xlink:href="#DejaVuSans-13" transform="translate(159.03125 0)"/>
      </g>
     </g>
    </g>
   </g>
   <g id="matplotlib.axis_2">
    <g id="ytick_1">
     <g id="line2d_10">
      <defs>
       <path id="m11e8773352" d="M 0 0 
L -3.5 0 
" style="stroke: #7f7f7f; stroke-width: 1.8"/>
      </defs>
      <g>
       <use xlink:href="#m11e8773352" x="45.103984" y="182.434064" style="fill: #7f7f7f; stroke: #7f7f7f; stroke-width: 1.8"/>
      </g>
     </g>
     <g id="text_10">
      <!-- 0.0 -->
      <g style="fill: #7f7f7f" transform="translate(22.200859 186.232892) scale(0.1 -0.1)">
       <use xlink:href="#DejaVuSans-13"/>
       <use xlink:href="#DejaVuSans-11" transform="translate(63.625 0)"/>
       <use xlink:href="#DejaVuSans-13" transform="translate(95.40625 0)"/>
      </g>
     </g>
    </g>
    <g id="ytick_2">
     <g id="line2d_11">
      <g>
       <use xlink:href="#m11e8773352" x="45.103984" y="141.805066" style="fill: #7f7f7f; stroke: #7f7f7f; stroke-width: 1.8"/>
      </g>
     </g>
     <g id="text_11">
      <!-- 0.1 -->
      <g style="fill: #7f7f7f" transform="translate(22.200859 145.603894) scale(0.1 -0.1)">
       <use xlink:href="#DejaVuSans-13"/>
       <use xlink:href="#DejaVuSans-11" transform="translate(63.625 0)"/>
       <use xlink:href="#DejaVuSans-14" transform="translate(95.40625 0)"/>
      </g>
     </g>
    </g>
    <g id="ytick_3">
     <g id="line2d_12">
      <g>
       <use xlink:href="#m11e8773352" x="45.103984" y="101.176068" style="fill: #7f7f7f; stroke: #7f7f7f; stroke-width: 1.8"/>
      </g>
     </g>
     <g id="text_12">
      <!-- 0.2 -->
      <g style="fill: #7f7f7f" transform="translate(22.200859 104.974897) scale(0.1 -0.1)">
       <use xlink:href="#DejaVuSans-13"/>
       <use xlink:href="#DejaVuSans-11" transform="translate(63.625 0)"/>
       <use xlink:href="#DejaVuSans-15" transform="translate(95.40625 0)"/>
      </g>
     </g>
    </g>
    <g id="ytick_4">
     <g id="line2d_13">
      <g>
       <use xlink:href="#m11e8773352" x="45.103984" y="60.547071" style="fill: #7f7f7f; stroke: #7f7f7f; stroke-width: 1.8"/>
      </g>
     </g>
     <g id="text_13">
      <!-- 0.3 -->
      <g style="fill: #7f7f7f" transform="translate(22.200859 64.345899) scale(0.1 -0.1)">
       <defs>
        <path id="DejaVuSans-16" d="M 2597 2516 
Q 3050 2419 3304 2112 
Q 3559 1806 3559 1356 
Q 3559 666 3084 287 
Q 2609 -91 1734 -91 
Q 1441 -91 1130 -33 
Q 819 25 488 141 
L 488 750 
Q 750 597 1062 519 
Q 1375 441 1716 441 
Q 2309 441 2620 675 
Q 2931 909 2931 1356 
Q 2931 1769 2642 2001 
Q 2353 2234 1838 2234 
L 1294 2234 
L 1294 2753 
L 1863 2753 
Q 2328 2753 2575 2939 
Q 2822 3125 2822 3475 
Q 2822 3834 2567 4026 
Q 2313 4219 1838 4219 
Q 1578 4219 1281 4162 
Q 984 4106 628 3988 
L 628 4550 
Q 988 4650 1302 4700 
Q 1616 4750 1894 4750 
Q 2613 4750 3031 4423 
Q 3450 4097 3450 3541 
Q 3450 3153 3228 2886 
Q 3006 2619 2597 2516 
z
" transform="scale(0.015625)"/>
       </defs>
       <use xlink:href="#DejaVuSans-13"/>
       <use xlink:href="#DejaVuSans-11" transform="translate(63.625 0)"/>
       <use xlink:href="#DejaVuSans-16" transform="translate(95.40625 0)"/>
      </g>
     </g>
    </g>
    <g id="text_14">
     <!-- Position Error [m] -->
     <g style="fill: #7f7f7f" transform="translate(15.558281 154.153535) rotate(-90) scale(0.11 -0.11)">
      <defs>
       <path id="DejaVuSans-33" d="M 1259 4147 
L 1259 2394 
L 2053 2394 
Q 2494 2394 2734 2622 
Q 2975 2850 2975 3272 
Q 2975 3691 2734 3919 
Q 2494 4147 2053 4147 
L 1259 4147 
z
M 628 4666 
L 2053 4666 
Q 2838 4666 3239 4311 
Q 3641 3956 3641 3272 
Q 3641 2581 3239 2228 
Q 2838 1875 2053 1875 
L 1259 1875 
L 1259 0 
L 628 0 
L 628 4666 
z
" transform="scale(0.015625)"/>
       <path id="DejaVuSans-52" d="M 1959 3097 
Q 1497 3097 1228 2736 
Q 959 2375 959 1747 
Q 959 1119 1226 758 
Q 1494 397 1959 397 
Q 2419 397 2687 759 
Q 2956 1122 2956 1747 
Q 2956 2369 2687 2733 
Q 2419 3097 1959 3097 
z
M 1959 3584 
Q 2709 3584 3137 3096 
Q 3566 2609 3566 1747 
Q 3566 888 3137 398 
Q 2709 -91 1959 -91 
Q 1206 -91 779 398 
Q 353 888 353 1747 
Q 353 2609 779 3096 
Q 1206 3584 1959 3584 
z
" transform="scale(0.015625)"/>
       <path id="DejaVuSans-56" d="M 2834 3397 
L 2834 2853 
Q 2591 2978 2328 3040 
Q 2066 3103 1784 3103 
Q 1356 3103 1142 2972 
Q 928 2841 928 2578 
Q 928 2378 1081 2264 
Q 1234 2150 1697 2047 
L 1894 2003 
Q 2506 1872 2764 1633 
Q 3022 1394 3022 966 
Q 3022 478 2636 193 
Q 2250 -91 1575 -91 
Q 1294 -91 989 -36 
Q 684 19 347 128 
L 347 722 
Q 666 556 975 473 
Q 1284 391 1588 391 
Q 1994 391 2212 530 
Q 2431 669 2431 922 
Q 2431 1156 2273 1281 
Q 2116 1406 1581 1522 
L 1381 1569 
Q 847 1681 609 1914 
Q 372 2147 372 2553 
Q 372 3047 722 3315 
Q 1072 3584 1716 3584 
Q 2034 3584 2315 3537 
Q 2597 3491 2834 3397 
z
" transform="scale(0.015625)"/>
       <path id="DejaVuSans-4c" d="M 603 3500 
L 1178 3500 
L 1178 0 
L 603 0 
L 603 3500 
z
M 603 4863 
L 1178 4863 
L 1178 4134 
L 603 4134 
L 603 4863 
z
" transform="scale(0.015625)"/>
       <path id="DejaVuSans-57" d="M 1172 4494 
L 1172 3500 
L 2356 3500 
L 2356 3053 
L 1172 3053 
L 1172 1153 
Q 1172 725 1289 603 
Q 1406 481 1766 481 
L 2356 481 
L 2356 0 
L 1766 0 
Q 1100 0 847 248 
Q 594 497 594 1153 
L 594 3053 
L 172 3053 
L 172 3500 
L 594 3500 
L 594 4494 
L 1172 4494 
z
" transform="scale(0.015625)"/>
       <path id="DejaVuSans-51" d="M 3513 2113 
L 3513 0 
L 2938 0 
L 2938 2094 
Q 2938 2591 2744 2837 
Q 2550 3084 2163 3084 
Q 1697 3084 1428 2787 
Q 1159 2491 1159 1978 
L 1159 0 
L 581 0 
L 581 3500 
L 1159 3500 
L 1159 2956 
Q 1366 3272 1645 3428 
Q 1925 3584 2291 3584 
Q 2894 3584 3203 3211 
Q 3513 2838 3513 2113 
z
" transform="scale(0.015625)"/>
       <path id="DejaVuSans-3" transform="scale(0.015625)"/>
       <path id="DejaVuSans-28" d="M 628 4666 
L 3578 4666 
L 3578 4134 
L 1259 4134 
L 1259 2753 
L 3481 2753 
L 3481 2222 
L 1259 2222 
L 1259 531 
L 3634 531 
L 3634 0 
L 628 0 
L 628 4666 
z
" transform="scale(0.015625)"/>
       <path id="DejaVuSans-55" d="M 2631 2963 
Q 2534 3019 2420 3045 
Q 2306 3072 2169 3072 
Q 1681 3072 1420 2755 
Q 1159 2438 1159 1844 
L 1159 0 
L 581 0 
L 581 3500 
L 1159 3500 
L 1159 2956 
Q 1341 3275 1631 3429 
Q 1922 3584 2338 3584 
Q 2397 3584 2469 3576 
Q 2541 3569 2628 3553 
L 2631 2963 
z
" transform="scale(0.015625)"/>
       <path id="DejaVuSans-3e" d="M 550 4863 
L 1875 4863 
L 1875 4416 
L 1125 4416 
L 1125 -397 
L 1875 -397 
L 1875 -844 
L 550 -844 
L 550 4863 
z
" transform="scale(0.015625)"/>
       <path id="DejaVuSans-50" d="M 3328 2828 
Q 3544 3216 3844 3400 
Q 4144 3584 4550 3584 
Q 5097 3584 5394 3201 
Q 5691 2819 5691 2113 
L 5691 0 
L 5113 0 
L 5113 2094 
Q 5113 2597 4934 2840 
Q 4756 3084 4391 3084 
Q 3944 3084 3684 2787 
Q 3425 2491 3425 1978 
L 3425 0 
L 2847 0 
L 2847 2094 
Q 2847 2600 2669 2842 
Q 2491 3084 2119 3084 
Q 1678 3084 1418 2786 
Q 1159 2488 1159 1978 
L 1159 0 
L 581 0 
L 581 3500 
L 1159 3500 
L 1159 2956 
Q 1356 3278 1631 3431 
Q 1906 3584 2284 3584 
Q 2666 3584 2933 3390 
Q 3200 3197 3328 2828 
z
" transform="scale(0.015625)"/>
       <path id="DejaVuSans-40" d="M 1947 4863 
L 1947 -844 
L 622 -844 
L 622 -397 
L 1369 -397 
L 1369 4416 
L 622 4416 
L 622 4863 
L 1947 4863 
z
" transform="scale(0.015625)"/>
      </defs>
      <use xlink:href="#DejaVuSans-33"/>
      <use xlink:href="#DejaVuSans-52" transform="translate(56.734375 0)"/>
      <use xlink:href="#DejaVuSans-56" transform="translate(117.921875 0)"/>
      <use xlink:href="#DejaVuSans-4c" transform="translate(170.015625 0)"/>
      <use xlink:href="#DejaVuSans-57" transform="translate(197.796875 0)"/>
      <use xlink:href="#DejaVuSans-4c" transform="translate(237 0)"/>
      <use xlink:href="#DejaVuSans-52" transform="translate(264.78125 0)"/>
      <use xlink:href="#DejaVuSans-51" transform="translate(325.96875 0)"/>
      <use xlink:href="#DejaVuSans-3" transform="translate(389.34375 0)"/>
      <use xlink:href="#DejaVuSans-28" transform="translate(421.125 0)"/>
      <use xlink:href="#DejaVuSans-55" transform="translate(484.3125 0)"/>
      <use xlink:href="#DejaVuSans-55" transform="translate(523.671875 0)"/>
      <use xlink:href="#DejaVuSans-52" transform="translate(562.578125 0)"/>
      <use xlink:href="#DejaVuSans-55" transform="translate(623.765625 0)"/>
      <use xlink:href="#DejaVuSans-3" transform="translate(664.875 0)"/>
      <use xlink:href="#DejaVuSans-3e" transform="translate(696.65625 0)"/>
      <use xlink:href="#DejaVuSans-50" transform="translate(735.671875 0)"/>
      <use xlink:href="#DejaVuSans-40" transform="translate(833.078125 0)"/>
     </g>
    </g>
   </g>
   <g id="line2d_14">
    <path d="M 68.581076 182.434064 
L 69.52016 133.576921 
L 69.989701 163.348453 
L 70.224472 174.416765 
L 70.459243 134.013087 
L 70.928785 174.872513 
L 71.163556 169.253602 
L 71.633098 157.607228 
L 72.10264 178.5358 
L 72.572182 171.43313 
L 73.041723 132.045672 
L 73.511265 157.281329 
L 73.980807 146.432753 
L 74.68512 178.943444 
L 75.624203 125.957342 
L 75.858974 136.775943 
L 77.032829 179.304476 
L 79.615309 72.83137 
L 81.258705 165.012365 
L 82.197789 140.824639 
L 82.667331 173.583008 
L 83.371644 160.921151 
L 83.606415 165.365124 
L 83.841186 146.673336 
L 84.310727 150.318336 
L 85.01504 177.746995 
L 85.249811 170.580214 
L 85.954124 156.033294 
L 85.719353 179.517342 
L 86.188895 163.641194 
L 86.658437 171.192789 
L 86.893207 157.022273 
L 87.362749 144.721093 
L 87.832291 157.448113 
L 89.240917 128.028734 
L 89.475688 131.965342 
L 89.945229 169.417093 
L 90.414771 146.01442 
L 92.527709 169.284985 
L 92.997251 153.525304 
L 93.466793 171.284456 
L 93.701564 177.532064 
L 94.171106 171.844342 
L 96.988357 122.635342 
L 97.457899 138.821181 
L 97.927441 153.793022 
L 98.396982 135.389416 
L 98.866524 158.911814 
L 99.805608 152.569979 
L 100.27515 139.96314 
L 100.509921 144.467722 
L 101.449004 168.456806 
L 101.918546 167.360923 
L 102.153317 164.889028 
L 102.388088 169.527106 
L 102.85763 180.110716 
L 103.092401 167.819513 
L 103.796713 165.018359 
L 104.735797 174.509756 
L 104.501026 164.7119 
L 104.970568 168.320404 
L 106.848735 137.701052 
L 107.553048 163.001558 
L 108.257361 161.906883 
L 108.961674 181.853796 
L 109.665986 181.76857 
L 110.60507 145.907345 
L 110.839841 150.946611 
L 112.013695 177.504592 
L 112.248466 174.506239 
L 112.718008 153.998797 
L 113.18755 169.131451 
L 113.657092 182.24816 
L 114.361405 178.478308 
L 114.596176 180.578816 
L 114.830946 176.947038 
L 118.117739 135.831754 
L 115.535259 177.841452 
L 119.761136 136.805864 
L 120.700219 156.98647 
L 120.93499 154.762188 
L 121.874074 134.489049 
L 122.108845 147.353085 
L 122.578387 146.062387 
L 123.047929 152.092668 
L 123.282699 140.534899 
L 123.51747 138.789273 
L 123.752241 143.334834 
L 123.987012 143.131585 
L 125.395638 134.692077 
L 125.630409 134.741554 
L 125.86518 137.248019 
L 126.09995 132.805827 
L 126.334721 136.01317 
L 127.039034 131.334954 
L 127.273805 133.960676 
L 128.212889 144.228946 
L 128.682431 165.835342 
L 129.151972 152.316463 
L 130.560598 119.443652 
L 130.795369 123.212644 
L 133.847391 181.380552 
L 135.256016 148.829923 
L 135.490787 159.893105 
L 135.960329 172.647504 
L 136.429871 163.762048 
L 137.838496 127.445487 
L 138.77758 139.858547 
L 139.951435 127.79903 
L 141.36006 151.766614 
L 142.768686 119.568551 
L 144.177311 140.381783 
L 144.881624 126.465659 
L 145.116395 132.348125 
L 146.52502 163.358345 
L 146.759791 154.86794 
L 146.994562 170.839603 
L 147.464104 164.381702 
L 148.168417 174.968737 
L 148.403187 165.290085 
L 148.637958 151.122469 
L 149.342271 165.440438 
L 149.577042 181.141737 
L 150.046584 158.439979 
L 150.281355 155.905732 
L 150.516126 158.428329 
L 151.220438 175.25272 
L 151.68998 172.548108 
L 152.159522 156.506452 
L 152.394293 162.747128 
L 152.863835 180.934967 
L 153.333377 175.92697 
L 154.037689 171.613906 
L 153.802919 177.900206 
L 154.27246 172.485404 
L 154.507231 180.80771 
L 155.211544 174.797002 
L 157.794024 125.602781 
L 158.028795 127.3193 
L 158.733108 142.540661 
L 159.437421 140.803115 
L 159.672191 139.964381 
L 159.906962 142.586126 
L 160.141733 141.01002 
L 160.611275 149.84802 
L 161.080817 148.135722 
L 161.315588 145.185115 
L 161.550359 145.492548 
L 162.724213 172.196114 
L 164.132839 155.14809 
L 164.837152 169.620267 
L 165.306693 163.165928 
L 166.245777 151.327457 
L 167.654403 178.160075 
L 167.889174 161.53399 
L 168.593486 179.454453 
L 169.063028 167.530809 
L 169.53257 171.813536 
L 170.706425 182.306991 
L 171.645508 159.293065 
L 172.11505 173.911865 
L 172.584592 166.031461 
L 173.054134 153.306309 
L 173.523676 161.52714 
L 173.758446 159.809574 
L 174.932301 180.986181 
L 175.167072 179.22509 
L 176.106156 163.925476 
L 177.28001 124.471493 
L 177.514781 135.259653 
L 178.219094 143.066762 
L 178.688636 142.424964 
L 178.923407 144.078266 
L 179.158178 156.749014 
L 179.627719 128.947412 
L 179.86249 120.963045 
L 180.332032 129.886444 
L 180.801574 142.572922 
L 182.210199 181.866098 
L 182.679741 169.397114 
L 183.384054 176.305915 
L 183.618825 182.306033 
L 183.853596 175.544075 
L 184.323138 179.410434 
L 185.731763 163.821777 
L 185.966534 166.474337 
L 186.670847 180.497253 
L 187.140389 176.500369 
L 187.37516 177.899111 
L 188.783785 159.166707 
L 189.018556 155.59458 
L 189.253327 164.960216 
L 189.95764 175.068978 
L 190.192411 163.754504 
L 191.131494 150.499638 
L 191.366265 153.375874 
L 191.601036 159.07771 
L 191.835807 148.495374 
L 192.305349 144.634214 
L 192.774891 109.730816 
L 193.479203 112.981404 
L 193.713974 112.173345 
L 194.183516 121.737416 
L 194.418287 107.429764 
L 194.887829 120.601828 
L 197.235538 178.158242 
L 195.592142 115.588233 
L 197.939851 177.04216 
L 198.878934 159.494239 
L 199.113705 162.96346 
L 199.348476 167.8519 
L 199.818018 164.943556 
L 202.635269 115.813309 
L 202.87004 117.9413 
L 203.104811 117.178311 
L 203.339582 117.893458 
L 204.278666 153.455584 
L 204.513436 139.061505 
L 205.45252 121.734803 
L 205.217749 139.132209 
L 205.922062 122.008817 
L 206.156833 122.09112 
L 207.800229 137.983814 
L 208.035 137.431907 
L 208.504542 145.583503 
L 208.739313 138.557909 
L 208.974084 134.269797 
L 209.208855 139.21101 
L 209.443626 139.035338 
L 210.382709 177.298288 
L 211.087022 169.768431 
L 211.321793 168.760258 
L 211.556564 157.857684 
L 212.260877 168.496507 
L 212.965189 168.030582 
L 213.904273 182.371315 
L 214.608586 167.793191 
L 215.078128 172.514344 
L 215.312899 171.700347 
L 215.78244 150.034951 
L 216.486753 162.974155 
L 217.191066 147.353644 
L 217.660608 157.99947 
L 218.599691 163.841651 
L 218.364921 157.068823 
L 219.069233 160.388183 
L 220.243088 148.179753 
L 220.477859 150.637806 
L 220.947401 151.82784 
L 221.182172 141.280502 
L 221.651713 144.960521 
L 222.356026 144.77395 
L 222.825568 158.685898 
L 223.060339 157.327924 
L 223.764652 166.928648 
L 224.938506 134.781829 
L 225.173277 135.483437 
L 225.408048 134.838085 
L 226.581903 112.00079 
L 226.816674 110.073309 
L 227.051444 120.45003 
L 227.755757 108.058652 
L 227.990528 107.858927 
L 228.694841 122.464897 
L 229.164383 134.358815 
L 229.399154 132.046066 
L 230.103466 107.459134 
L 230.573008 113.250689 
L 231.277321 105.671991 
L 231.512092 106.458585 
L 232.216405 123.445535 
L 232.451175 117.288751 
L 233.155488 118.397984 
L 234.329343 94.505154 
L 234.564114 97.521143 
L 234.798885 94.037041 
L 235.268426 87.171879 
L 235.503197 97.300828 
L 236.677052 108.524859 
L 236.911823 104.760928 
L 237.146594 102.017328 
L 237.381365 105.464279 
L 239.494303 177.158581 
L 240.433387 163.891789 
L 241.607241 178.426974 
L 241.842012 166.797968 
L 242.311554 180.214371 
L 242.546325 175.604557 
L 242.781096 180.031142 
L 243.015867 171.731082 
L 243.250638 178.825322 
L 243.485409 171.503839 
L 243.720179 181.064419 
L 244.189721 179.077677 
L 244.659263 176.885042 
L 244.894034 178.161251 
L 245.128805 180.379423 
L 247.006972 135.119679 
L 247.711285 135.088225 
L 248.180827 152.913837 
L 248.415598 134.688452 
L 248.88514 153.800306 
L 249.119911 149.041813 
L 249.354681 149.166814 
L 249.589452 144.72255 
L 250.058994 146.269716 
L 250.528536 163.412 
L 250.998078 151.797499 
L 252.171932 130.87686 
L 253.345787 168.317833 
L 253.580558 159.797281 
L 253.815329 159.006734 
L 255.223954 145.30928 
L 254.284871 161.347774 
L 255.458725 145.78413 
L 255.693496 151.623804 
L 256.163038 140.152311 
L 256.63258 138.701185 
L 256.867351 143.77682 
L 258.275976 177.056626 
L 258.510747 179.637592 
L 258.745518 173.252464 
L 258.980289 173.495073 
L 259.449831 182.081375 
L 259.919373 175.790081 
L 260.154144 179.099365 
L 260.388915 168.168397 
L 260.623685 179.756967 
L 261.093227 178.236654 
L 261.327998 179.033026 
L 262.032311 181.040836 
L 263.910478 147.781698 
L 264.849562 159.024777 
L 265.084333 153.537087 
L 265.553875 155.833255 
L 265.788646 152.405414 
L 266.023417 143.769882 
L 266.492958 157.445496 
L 266.9625 169.005626 
L 267.197271 156.294353 
L 268.605897 136.480468 
L 269.779751 150.399085 
L 270.953606 123.490494 
L 272.12746 144.029344 
L 273.536086 111.679269 
L 273.770857 110.528386 
L 274.005628 110.705164 
L 275.649024 146.660039 
L 277.527191 114.795348 
L 278.466275 114.213823 
L 278.701046 122.551609 
L 278.935817 111.490316 
L 279.405359 114.674266 
L 281.048755 148.227258 
L 281.753068 171.175571 
L 282.22261 156.956869 
L 282.692152 161.737446 
L 283.866006 182.257385 
L 284.570319 173.077171 
L 284.80509 180.140774 
L 285.039861 178.472691 
L 285.274632 166.949517 
L 285.744173 181.017538 
L 285.978944 178.451545 
L 286.213715 178.366754 
L 286.683257 180.015556 
L 287.622341 170.574044 
L 288.796195 181.243341 
L 289.030966 178.381808 
L 289.265737 162.390008 
L 289.97005 166.559778 
L 291.378675 177.701708 
L 291.613446 176.846368 
L 291.848217 181.994033 
L 292.317759 173.133567 
L 293.256843 156.484426 
L 294.430697 171.119241 
L 294.900239 157.668904 
L 295.604552 160.469465 
L 296.308865 167.505412 
L 296.543636 164.87932 
L 297.482719 165.532821 
L 297.952261 149.088968 
L 298.421803 154.988361 
L 298.656574 150.378108 
L 300.065199 135.587646 
L 301.004283 156.707894 
L 301.239054 154.545388 
L 301.708596 137.035421 
L 302.178138 155.851488 
L 303.586763 181.625095 
L 304.056305 169.767694 
L 304.291076 164.013075 
L 304.525847 169.355151 
L 304.760618 179.840362 
L 305.23016 163.944143 
L 305.699701 152.980208 
L 305.934472 173.48873 
L 306.638785 161.315886 
L 306.873556 168.025172 
L 307.108327 166.170656 
L 308.516952 106.915374 
L 310.160349 150.934778 
L 310.864662 138.3863 
L 311.099432 147.276967 
L 312.508058 178.693738 
L 312.742829 174.264283 
L 313.447142 152.668102 
L 313.916683 155.391008 
L 314.386225 180.649784 
L 315.090538 173.729952 
L 315.56008 168.657417 
L 315.794851 176.262913 
L 316.029622 182.405993 
L 316.499163 174.086932 
L 316.733934 163.444181 
L 317.203476 180.209736 
L 317.673018 177.119291 
L 319.081644 148.52645 
L 320.72504 181.17055 
L 321.429353 164.425647 
L 321.898895 168.180308 
L 323.072749 181.882634 
L 324.481375 153.122174 
L 324.950916 168.573488 
L 326.359542 179.41123 
L 326.594313 174.171761 
L 326.829084 172.503306 
L 328.47248 120.896152 
L 328.707251 131.315589 
L 329.881106 150.015433 
L 330.115877 149.664433 
L 330.350648 154.871726 
L 330.585418 146.146535 
L 330.820189 146.709165 
L 331.05496 146.566398 
L 331.289731 149.045628 
L 331.759273 148.044155 
L 332.228815 152.771551 
L 333.167899 137.573638 
L 333.402669 154.196439 
L 333.872211 133.502314 
L 334.341753 150.003516 
L 334.576524 158.055076 
L 335.046066 141.608985 
L 335.515608 156.8509 
L 335.98515 154.861447 
L 336.21992 159.966255 
L 336.689462 152.878052 
L 336.924233 153.76863 
L 337.159004 148.03172 
L 337.393775 162.516403 
L 337.863317 164.841279 
L 338.098088 176.927254 
L 338.56763 163.800354 
L 338.802401 166.168877 
L 339.271942 160.003617 
L 339.976255 174.529808 
L 340.445797 166.407208 
L 340.680568 167.887759 
L 340.915339 180.876423 
L 341.619652 179.350429 
L 341.854422 170.672195 
L 342.323964 182.210417 
L 342.558735 175.961618 
L 342.793506 177.544404 
L 343.263048 160.994341 
L 343.967361 165.913252 
L 344.436903 181.82184 
L 345.141215 179.787485 
L 345.845528 163.309799 
L 345.610757 181.83456 
L 346.080299 173.119981 
L 346.31507 176.451208 
L 346.549841 162.431346 
L 347.019383 182.210013 
L 347.254154 167.418871 
L 347.488924 182.175519 
L 348.193237 181.085777 
L 348.428008 169.893968 
L 349.132321 170.188244 
L 350.306175 181.081159 
L 351.245259 158.828871 
L 351.48003 174.286499 
L 351.949572 156.626458 
L 352.419114 129.768283 
L 353.123426 144.102162 
L 354.532052 134.552365 
L 355.471136 151.196439 
L 355.705906 147.812917 
L 356.175448 147.667717 
L 356.64499 162.350467 
L 357.114532 181.655161 
L 357.584074 161.388599 
L 357.818845 141.386739 
L 358.523157 159.374286 
L 358.757928 159.093357 
L 358.992699 163.241963 
L 359.22747 156.555785 
L 359.697012 151.846754 
L 359.931783 160.77122 
L 361.105638 178.902387 
L 361.575179 177.171032 
L 361.80995 181.49845 
L 362.044721 179.804346 
L 362.983805 181.427007 
L 363.218576 165.566509 
L 363.453347 171.518717 
L 363.688118 164.470584 
L 363.922889 156.9424 
L 364.157659 166.890139 
L 364.627201 158.697642 
L 365.801056 170.983225 
L 366.035827 170.157292 
L 366.505369 158.172378 
L 366.97491 161.889075 
L 367.679223 181.408837 
L 368.148765 178.153869 
L 368.853078 158.267874 
L 369.32262 164.275497 
L 370.261703 147.585687 
L 370.496474 150.894057 
L 370.731245 148.189619 
L 370.966016 155.904158 
L 372.374642 178.393154 
L 372.609412 165.167855 
L 373.313725 150.180786 
L 374.48758 175.338206 
L 374.722351 173.238269 
L 374.957122 180.308892 
L 375.191893 171.784066 
L 375.426663 163.477596 
L 375.896205 178.723028 
L 376.130976 182.081144 
L 376.365747 175.694803 
L 377.07006 157.730486 
L 377.304831 169.390261 
L 377.774373 178.784414 
L 378.243914 169.490339 
L 379.417769 135.566208 
L 380.356853 106.722149 
L 380.591624 120.63264 
L 380.826395 120.577067 
L 381.061165 107.292552 
L 381.765478 112.643528 
L 382.000249 113.450765 
L 382.704562 99.938435 
L 382.939333 113.07679 
L 384.582729 157.821165 
L 384.8175 155.053124 
L 385.287042 137.774366 
L 385.756584 159.087193 
L 386.695667 137.971713 
L 386.930438 140.430249 
L 388.339064 180.24706 
L 389.043377 171.537195 
L 389.512918 177.150819 
L 389.98246 180.389304 
L 390.217231 160.433687 
L 390.921544 175.978351 
L 391.156315 177.011153 
L 393.034482 148.029853 
L 394.208337 178.841972 
L 394.443108 173.057685 
L 397.49513 110.340322 
L 397.964671 113.553491 
L 398.668984 155.824408 
L 399.373297 152.384005 
L 399.608068 152.149604 
L 400.547151 131.553769 
L 400.781922 134.729182 
L 402.425319 172.60668 
L 402.66009 171.416845 
L 403.364402 172.291124 
L 404.068715 159.920664 
L 405.007799 174.102237 
L 405.24257 162.821523 
L 405.712112 178.114339 
L 405.946883 172.611722 
L 406.181653 174.226584 
L 407.120737 131.131674 
L 408.059821 149.706025 
L 408.294592 149.391499 
L 408.529363 152.923378 
L 408.764134 146.988561 
L 408.998904 141.714098 
L 409.233675 150.87117 
L 410.877072 179.20781 
L 409.703217 147.520004 
L 411.346614 165.955623 
L 411.816155 167.929173 
L 412.99001 145.462521 
L 413.224781 151.599238 
L 413.929094 143.524186 
L 414.163865 143.614247 
L 414.633406 158.090704 
L 415.337719 150.074231 
L 415.57249 147.985667 
L 415.807261 155.114022 
L 416.042032 136.408256 
L 416.511574 144.46131 
L 416.746345 140.6168 
L 417.920199 177.290853 
L 418.624512 177.659191 
L 419.563596 155.060669 
L 420.033138 153.715608 
L 420.267908 159.160626 
L 421.206992 177.766307 
L 421.676534 170.175224 
L 422.615618 133.851533 
L 423.085159 145.100395 
L 424.259014 161.514004 
L 426.371952 182.250572 
L 428.484891 117.969886 
L 428.954432 118.35579 
L 430.128287 132.434432 
L 430.363058 133.500323 
L 431.067371 107.968229 
L 431.536912 111.765616 
L 432.006454 111.107709 
L 433.180309 134.082416 
L 434.354163 104.166066 
L 434.823705 115.263973 
L 435.293247 119.277319 
L 436.701873 157.553859 
L 437.171414 135.117946 
L 437.640956 148.770875 
L 437.875727 160.021823 
L 438.58004 147.768754 
L 438.814811 146.285186 
L 439.519124 159.558398 
L 439.753894 158.935759 
L 440.223436 145.869303 
L 440.458207 161.49936 
L 441.632062 178.439487 
L 440.927749 159.224239 
L 442.101604 178.273309 
L 442.571145 181.363464 
L 442.805916 179.720856 
L 444.684084 135.731932 
L 445.623167 158.616157 
L 446.797022 125.926082 
L 447.501335 142.100098 
L 447.736106 138.587504 
L 448.90996 122.586297 
L 450.318586 156.799208 
L 450.553357 157.071028 
L 451.257669 179.20902 
L 451.727211 176.454979 
L 452.901066 153.233103 
L 453.135837 158.116797 
L 453.605379 181.864212 
L 454.07492 173.763382 
L 454.309691 173.817009 
L 455.483546 146.791755 
L 457.126942 181.649592 
L 458.300797 168.528454 
L 458.535568 180.864097 
L 459.00511 163.730187 
L 459.239881 160.504336 
L 459.474651 162.122559 
L 460.648506 180.792024 
L 461.352819 151.238949 
L 461.822361 166.178183 
L 462.057132 167.964642 
L 462.291902 166.179682 
L 463.935299 119.059145 
L 464.17007 125.354996 
L 465.343924 157.160305 
L 465.813466 140.958924 
L 466.75255 121.739627 
L 466.987321 125.198668 
L 469.100259 168.096894 
L 470.508885 139.61697 
L 470.743655 148.244278 
L 470.978426 128.297666 
L 471.682739 137.821214 
L 472.152281 132.122462 
L 472.387052 140.116336 
L 474.265219 159.899749 
L 474.49999 158.157344 
L 477.08247 84.483033 
L 479.430179 29.942694 
L 479.66495 45.338043 
L 480.369263 64.9585 
L 480.604034 47.97183 
L 481.073576 59.164645 
L 481.543118 55.805812 
L 481.777888 51.688036 
L 482.012659 63.633518 
L 482.24743 61.46453 
L 482.716972 70.222646 
L 483.186514 59.926899 
L 483.421285 57.916222 
L 484.82991 107.237252 
L 485.064681 100.207673 
L 485.299452 89.535669 
L 485.534223 98.034629 
L 485.768994 114.298051 
L 486.238536 93.352115 
L 486.942849 94.840132 
L 487.17762 100.766953 
L 487.41239 91.505869 
L 488.586245 75.46207 
L 489.994871 112.739591 
L 490.464412 116.80937 
L 490.933954 110.092862 
L 493.046892 180.628465 
L 494.220747 155.279699 
L 493.516434 181.266412 
L 494.455518 167.863619 
L 495.159831 180.29857 
L 495.394602 174.366803 
L 495.629373 156.026144 
L 496.333685 162.474052 
L 496.568456 170.92241 
L 496.803227 166.479465 
L 497.037998 147.22738 
L 497.50754 167.905772 
L 497.742311 160.251582 
L 497.977082 170.497905 
L 498.446624 160.474873 
L 498.681394 156.829065 
L 499.150936 163.223603 
L 499.385707 165.063506 
L 499.620478 161.637823 
L 499.855249 161.637223 
L 500.09002 151.782196 
L 500.559562 164.052228 
L 500.794333 154.863951 
L 501.029104 157.759295 
L 502.907271 117.278432 
L 503.142042 116.774147 
L 503.846355 124.850614 
L 504.550667 142.388179 
L 505.020209 134.984384 
L 506.428835 153.042571 
L 507.133147 131.231162 
L 507.602689 133.833842 
L 507.83746 136.635667 
L 508.072231 129.363994 
L 508.307002 128.857747 
L 508.541773 116.355366 
L 509.246086 128.697384 
L 509.715628 130.937213 
L 509.950398 126.981913 
L 510.654711 106.262222 
L 510.889482 116.769883 
L 512.063337 150.671541 
L 513.237191 181.812632 
L 514.411046 129.956529 
L 514.880588 140.579465 
L 515.115359 147.794311 
L 515.5849 132.33239 
L 516.054442 121.79004 
L 517.463068 159.215157 
L 518.167381 144.578415 
L 518.402151 154.764036 
L 518.871693 160.43552 
L 519.106464 155.015444 
L 519.341235 171.544188 
L 520.280319 170.564781 
L 520.749861 181.776044 
L 520.984631 176.437208 
L 522.393257 149.082603 
L 522.628028 148.909278 
L 523.09757 156.930629 
L 523.332341 140.641366 
L 523.567112 136.153321 
L 523.801882 141.482451 
L 524.975737 162.723036 
L 525.445279 162.517526 
L 525.68005 157.737845 
L 525.914821 164.517009 
L 526.149592 169.697438 
L 526.619133 158.329527 
L 526.853904 160.630959 
L 527.323446 142.812082 
L 528.027759 145.641424 
L 528.966843 119.176632 
L 529.436384 125.567603 
L 531.079781 159.533686 
L 531.314552 161.770163 
L 531.549323 160.577638 
L 532.253635 146.476796 
L 532.488406 151.859579 
L 533.192719 181.217155 
L 533.662261 163.523811 
L 534.836116 182.172781 
L 535.070886 177.136376 
L 536.479512 158.764976 
L 536.949054 163.707397 
L 537.183825 163.446894 
L 537.888137 151.830349 
L 538.122908 159.870374 
" clip-path="url(#pc7ae660ad5)" style="fill: none; stroke: #e41a1c; stroke-width: 2; stroke-linecap: square"/>
   </g>
   <g id="patch_3">
    <path d="M 45.103984 190.058633 
L 45.103984 22.318125 
" style="fill: none; stroke: #7f7f7f; stroke-width: 1.8; stroke-linejoin: miter; stroke-linecap: square"/>
   </g>
   <g id="patch_4">
    <path d="M 45.103984 190.058633 
L 561.6 190.058633 
" style="fill: none; stroke: #7f7f7f; stroke-width: 1.8; stroke-linejoin: miter; stroke-linecap: square"/>
   </g>
   <g id="text_15">
    <!-- Kalman Filter Estimation Error -->
    <g style="fill: #7f7f7f" transform="translate(200.338555 16.318125) scale(0.12 -0.12)">
     <defs>
      <path id="DejaVuSans-Bold-2e" d="M 588 4666 
L 1791 4666 
L 1791 2963 
L 3525 4666 
L 4922 4666 
L 2675 2456 
L 5153 0 
L 3647 0 
L 1791 1838 
L 1791 0 
L 588 0 
L 588 4666 
z
" transform="scale(0.015625)"/>
      <path id="DejaVuSans-Bold-44" d="M 2106 1575 
Q 1756 1575 1579 1456 
Q 1403 1338 1403 1106 
Q 1403 894 1545 773 
Q 1688 653 1941 653 
Q 2256 653 2472 879 
Q 2688 1106 2688 1447 
L 2688 1575 
L 2106 1575 
z
M 3816 1997 
L 3816 0 
L 2688 0 
L 2688 519 
Q 2463 200 2181 54 
Q 1900 -91 1497 -91 
Q 953 -91 614 226 
Q 275 544 275 1050 
Q 275 1666 698 1953 
Q 1122 2241 2028 2241 
L 2688 2241 
L 2688 2328 
Q 2688 2594 2478 2717 
Q 2269 2841 1825 2841 
Q 1466 2841 1156 2769 
Q 847 2697 581 2553 
L 581 3406 
Q 941 3494 1303 3539 
Q 1666 3584 2028 3584 
Q 2975 3584 3395 3211 
Q 3816 2838 3816 1997 
z
" transform="scale(0.015625)"/>
      <path id="DejaVuSans-Bold-4f" d="M 538 4863 
L 1656 4863 
L 1656 0 
L 538 0 
L 538 4863 
z
" transform="scale(0.015625)"/>
      <path id="DejaVuSans-Bold-50" d="M 3781 2919 
Q 3994 3244 4286 3414 
Q 4578 3584 4928 3584 
Q 5531 3584 5847 3212 
Q 6163 2841 6163 2131 
L 6163 0 
L 5038 0 
L 5038 1825 
Q 5041 1866 5042 1909 
Q 5044 1953 5044 2034 
Q 5044 2406 4934 2573 
Q 4825 2741 4581 2741 
Q 4263 2741 4089 2478 
Q 3916 2216 3909 1719 
L 3909 0 
L 2784 0 
L 2784 1825 
Q 2784 2406 2684 2573 
Q 2584 2741 2328 2741 
Q 2006 2741 1831 2477 
Q 1656 2213 1656 1722 
L 1656 0 
L 531 0 
L 531 3500 
L 1656 3500 
L 1656 2988 
Q 1863 3284 2130 3434 
Q 2397 3584 2719 3584 
Q 3081 3584 3359 3409 
Q 3638 3234 3781 2919 
z
" transform="scale(0.015625)"/>
      <path id="DejaVuSans-Bold-51" d="M 4056 2131 
L 4056 0 
L 2931 0 
L 2931 347 
L 2931 1631 
Q 2931 2084 2911 2256 
Q 2891 2428 2841 2509 
Q 2775 2619 2662 2680 
Q 2550 2741 2406 2741 
Q 2056 2741 1856 2470 
Q 1656 2200 1656 1722 
L 1656 0 
L 538 0 
L 538 3500 
L 1656 3500 
L 1656 2988 
Q 1909 3294 2193 3439 
Q 2478 3584 2822 3584 
Q 3428 3584 3742 3212 
Q 4056 2841 4056 2131 
z
" transform="scale(0.015625)"/>
      <path id="DejaVuSans-Bold-3" transform="scale(0.015625)"/>
      <path id="DejaVuSans-Bold-29" d="M 588 4666 
L 3834 4666 
L 3834 3756 
L 1791 3756 
L 1791 2888 
L 3713 2888 
L 3713 1978 
L 1791 1978 
L 1791 0 
L 588 0 
L 588 4666 
z
" transform="scale(0.015625)"/>
      <path id="DejaVuSans-Bold-4c" d="M 538 3500 
L 1656 3500 
L 1656 0 
L 538 0 
L 538 3500 
z
M 538 4863 
L 1656 4863 
L 1656 3950 
L 538 3950 
L 538 4863 
z
" transform="scale(0.015625)"/>
      <path id="DejaVuSans-Bold-57" d="M 1759 4494 
L 1759 3500 
L 2913 3500 
L 2913 2700 
L 1759 2700 
L 1759 1216 
Q 1759 972 1856 886 
Q 1953 800 2241 800 
L 2816 800 
L 2816 0 
L 1856 0 
Q 1194 0 917 276 
Q 641 553 641 1216 
L 641 2700 
L 84 2700 
L 84 3500 
L 641 3500 
L 641 4494 
L 1759 4494 
z
" transform="scale(0.015625)"/>
      <path id="DejaVuSans-Bold-48" d="M 4031 1759 
L 4031 1441 
L 1416 1441 
Q 1456 1047 1700 850 
Q 1944 653 2381 653 
Q 2734 653 3104 758 
Q 3475 863 3866 1075 
L 3866 213 
Q 3469 63 3072 -14 
Q 2675 -91 2278 -91 
Q 1328 -91 801 392 
Q 275 875 275 1747 
Q 275 2603 792 3093 
Q 1309 3584 2216 3584 
Q 3041 3584 3536 3087 
Q 4031 2591 4031 1759 
z
M 2881 2131 
Q 2881 2450 2695 2645 
Q 2509 2841 2209 2841 
Q 1884 2841 1681 2658 
Q 1478 2475 1428 2131 
L 2881 2131 
z
" transform="scale(0.015625)"/>
      <path id="DejaVuSans-Bold-55" d="M 3138 2547 
Q 2991 2616 2845 2648 
Q 2700 2681 2553 2681 
Q 2122 2681 1889 2404 
Q 1656 2128 1656 1613 
L 1656 0 
L 538 0 
L 538 3500 
L 1656 3500 
L 1656 2925 
Q 1872 3269 2151 3426 
Q 2431 3584 2822 3584 
Q 2878 3584 2943 3579 
Q 3009 3575 3134 3559 
L 3138 2547 
z
" transform="scale(0.015625)"/>
      <path id="DejaVuSans-Bold-28" d="M 588 4666 
L 3834 4666 
L 3834 3756 
L 1791 3756 
L 1791 2888 
L 3713 2888 
L 3713 1978 
L 1791 1978 
L 1791 909 
L 3903 909 
L 3903 0 
L 588 0 
L 588 4666 
z
" transform="scale(0.015625)"/>
      <path id="DejaVuSans-Bold-56" d="M 3272 3391 
L 3272 2541 
Q 2913 2691 2578 2766 
Q 2244 2841 1947 2841 
Q 1628 2841 1473 2761 
Q 1319 2681 1319 2516 
Q 1319 2381 1436 2309 
Q 1553 2238 1856 2203 
L 2053 2175 
Q 2913 2066 3209 1816 
Q 3506 1566 3506 1031 
Q 3506 472 3093 190 
Q 2681 -91 1863 -91 
Q 1516 -91 1145 -36 
Q 775 19 384 128 
L 384 978 
Q 719 816 1070 734 
Q 1422 653 1784 653 
Q 2113 653 2278 743 
Q 2444 834 2444 1013 
Q 2444 1163 2330 1236 
Q 2216 1309 1875 1350 
L 1678 1375 
Q 931 1469 631 1722 
Q 331 1975 331 2491 
Q 331 3047 712 3315 
Q 1094 3584 1881 3584 
Q 2191 3584 2531 3537 
Q 2872 3491 3272 3391 
z
" transform="scale(0.015625)"/>
      <path id="DejaVuSans-Bold-52" d="M 2203 2784 
Q 1831 2784 1636 2517 
Q 1441 2250 1441 1747 
Q 1441 1244 1636 976 
Q 1831 709 2203 709 
Q 2569 709 2762 976 
Q 2956 1244 2956 1747 
Q 2956 2250 2762 2517 
Q 2569 2784 2203 2784 
z
M 2203 3584 
Q 3106 3584 3614 3096 
Q 4122 2609 4122 1747 
Q 4122 884 3614 396 
Q 3106 -91 2203 -91 
Q 1297 -91 786 396 
Q 275 884 275 1747 
Q 275 2609 786 3096 
Q 1297 3584 2203 3584 
z
" transform="scale(0.015625)"/>
     </defs>
     <use xlink:href="#DejaVuSans-Bold-2e"/>
     <use xlink:href="#DejaVuSans-Bold-44" transform="translate(77.484375 0)"/>
     <use xlink:href="#DejaVuSans-Bold-4f" transform="translate(144.96875 0)"/>
     <use xlink:href="#DejaVuSans-Bold-50" transform="translate(179.25 0)"/>
     <use xlink:href="#DejaVuSans-Bold-44" transform="translate(283.453125 0)"/>
     <use xlink:href="#DejaVuSans-Bold-51" transform="translate(350.9375 0)"/>
     <use xlink:href="#DejaVuSans-Bold-3" transform="translate(422.125 0)"/>
     <use xlink:href="#DejaVuSans-Bold-29" transform="translate(456.9375 0)"/>
     <use xlink:href="#DejaVuSans-Bold-4c" transform="translate(525.25 0)"/>
     <use xlink:href="#DejaVuSans-Bold-4f" transform="translate(559.53125 0)"/>
     <use xlink:href="#DejaVuSans-Bold-57" transform="translate(593.8125 0)"/>
     <use xlink:href="#DejaVuSans-Bold-48" transform="translate(641.609375 0)"/>
     <use xlink:href="#DejaVuSans-Bold-55" transform="translate(709.4375 0)"/>
     <use xlink:href="#DejaVuSans-Bold-3" transform="translate(758.75 0)"/>
     <use xlink:href="#DejaVuSans-Bold-28" transform="translate(793.5625 0)"/>
     <use xlink:href="#DejaVuSans-Bold-56" transform="translate(861.875 0)"/>
     <use xlink:href="#DejaVuSans-Bold-57" transform="translate(921.390625 0)"/>
     <use xlink:href="#DejaVuSans-Bold-4c" transform="translate(969.1875 0)"/>
     <use xlink:href="#DejaVuSans-Bold-50" transform="translate(1003.46875 0)"/>
     <use xlink:href="#DejaVuSans-Bold-44" transform="translate(1107.671875 0)"/>
     <use xlink:href="#DejaVuSans-Bold-57" transform="translate(1175.15625 0)"/>
     <use xlink:href="#DejaVuSans-Bold-4c" transform="translate(1222.953125 0)"/>
     <use xlink:href="#DejaVuSans-Bold-52" transform="translate(1257.234375 0)"/>
     <use xlink:href="#DejaVuSans-Bold-51" transform="translate(1325.9375 0)"/>
     <use xlink:href="#DejaVuSans-Bold-3" transform="translate(1397.125 0)"/>
     <use xlink:href="#DejaVuSans-Bold-28" transform="translate(1431.9375 0)"/>
     <use xlink:href="#DejaVuSans-Bold-55" transform="translate(1500.25 0)"/>
     <use xlink:href="#DejaVuSans-Bold-55" transform="translate(1549.5625 0)"/>
     <use xlink:href="#DejaVuSans-Bold-52" transform="translate(1598.875 0)"/>
     <use xlink:href="#DejaVuSans-Bold-55" transform="translate(1667.578125 0)"/>
    </g>
   </g>
  </g>
  <g id="axes_2">
   <g id="patch_5">
    <path d="M 45.103984 385.599141 
L 561.6 385.599141 
L 561.6 217.858633 
L 45.103984 217.858633 
L 45.103984 385.599141 
z
" style="fill: none"/>
   </g>
   <g id="matplotlib.axis_3">
    <g id="xtick_10">
     <g id="line2d_15">
      <g>
       <use xlink:href="#mcd77564425" x="68.581076" y="385.599141" style="fill: #7f7f7f; stroke: #7f7f7f; stroke-width: 1.8"/>
      </g>
     </g>
     <g id="text_16">
      <!-- 0.0 -->
      <g style="fill: #7f7f7f" transform="translate(60.629513 400.196797) scale(0.1 -0.1)">
       <use xlink:href="#DejaVuSans-13"/>
       <use xlink:href="#DejaVuSans-11" transform="translate(63.625 0)"/>
       <use xlink:href="#DejaVuSans-13" transform="translate(95.40625 0)"/>
      </g>
     </g>
    </g>
    <g id="xtick_11">
     <g id="line2d_16">
      <g>
       <use xlink:href="#mcd77564425" x="127.273805" y="385.599141" style="fill: #7f7f7f; stroke: #7f7f7f; stroke-width: 1.8"/>
      </g>
     </g>
     <g id="text_17">
      <!-- 2.5 -->
      <g style="fill: #7f7f7f" transform="translate(119.322243 400.196797) scale(0.1 -0.1)">
       <use xlink:href="#DejaVuSans-15"/>
       <use xlink:href="#DejaVuSans-11" transform="translate(63.625 0)"/>
       <use xlink:href="#DejaVuSans-18" transform="translate(95.40625 0)"/>
      </g>
     </g>
    </g>
    <g id="xtick_12">
     <g id="line2d_17">
      <g>
       <use xlink:href="#mcd77564425" x="185.966534" y="385.599141" style="fill: #7f7f7f; stroke: #7f7f7f; stroke-width: 1.8"/>
      </g>
     </g>
     <g id="text_18">
      <!-- 5.0 -->
      <g style="fill: #7f7f7f" transform="translate(178.014972 400.196797) scale(0.1 -0.1)">
       <use xlink:href="#DejaVuSans-18"/>
       <use xlink:href="#DejaVuSans-11" transform="translate(63.625 0)"/>
       <use xlink:href="#DejaVuSans-13" transform="translate(95.40625 0)"/>
      </g>
     </g>
    </g>
    <g id="xtick_13">
     <g id="line2d_18">
      <g>
       <use xlink:href="#mcd77564425" x="244.659263" y="385.599141" style="fill: #7f7f7f; stroke: #7f7f7f; stroke-width: 1.8"/>
      </g>
     </g>
     <g id="text_19">
      <!-- 7.5 -->
      <g style="fill: #7f7f7f" transform="translate(236.707701 400.196797) scale(0.1 -0.1)">
       <use xlink:href="#DejaVuSans-1a"/>
       <use xlink:href="#DejaVuSans-11" transform="translate(63.625 0)"/>
       <use xlink:href="#DejaVuSans-18" transform="translate(95.40625 0)"/>
      </g>
     </g>
    </g>
    <g id="xtick_14">
     <g id="line2d_19">
      <g>
       <use xlink:href="#mcd77564425" x="303.351992" y="385.599141" style="fill: #7f7f7f; stroke: #7f7f7f; stroke-width: 1.8"/>
      </g>
     </g>
     <g id="text_20">
      <!-- 10.0 -->
      <g style="fill: #7f7f7f" transform="translate(292.21918 400.196797) scale(0.1 -0.1)">
       <use xlink:href="#DejaVuSans-14"/>
       <use xlink:href="#DejaVuSans-13" transform="translate(63.625 0)"/>
       <use xlink:href="#DejaVuSans-11" transform="translate(127.25 0)"/>
       <use xlink:href="#DejaVuSans-13" transform="translate(159.03125 0)"/>
      </g>
     </g>
    </g>
    <g id="xtick_15">
     <g id="line2d_20">
      <g>
       <use xlink:href="#mcd77564425" x="362.044721" y="385.599141" style="fill: #7f7f7f; stroke: #7f7f7f; stroke-width: 1.8"/>
      </g>
     </g>
     <g id="text_21">
      <!-- 12.5 -->
      <g style="fill: #7f7f7f" transform="translate(350.911909 400.196797) scale(0.1 -0.1)">
       <use xlink:href="#DejaVuSans-14"/>
       <use xlink:href="#DejaVuSans-15" transform="translate(63.625 0)"/>
       <use xlink:href="#DejaVuSans-11" transform="translate(127.25 0)"/>
       <use xlink:href="#DejaVuSans-18" transform="translate(159.03125 0)"/>
      </g>
     </g>
    </g>
    <g id="xtick_16">
     <g id="line2d_21">
      <g>
       <use xlink:href="#mcd77564425" x="420.73745" y="385.599141" style="fill: #7f7f7f; stroke: #7f7f7f; stroke-width: 1.8"/>
      </g>
     </g>
     <g id="text_22">
      <!-- 15.0 -->
      <g style="fill: #7f7f7f" transform="translate(409.604638 400.196797) scale(0.1 -0.1)">
       <use xlink:href="#DejaVuSans-14"/>
       <use xlink:href="#DejaVuSans-18" transform="translate(63.625 0)"/>
       <use xlink:href="#DejaVuSans-11" transform="translate(127.25 0)"/>
       <use xlink:href="#DejaVuSans-13" transform="translate(159.03125 0)"/>
      </g>
     </g>
    </g>
    <g id="xtick_17">
     <g id="line2d_22">
      <g>
       <use xlink:href="#mcd77564425" x="479.430179" y="385.599141" style="fill: #7f7f7f; stroke: #7f7f7f; stroke-width: 1.8"/>
      </g>
     </g>
     <g id="text_23">
      <!-- 17.5 -->
      <g style="fill: #7f7f7f" transform="translate(468.297367 400.196797) scale(0.1 -0.1)">
       <use xlink:href="#DejaVuSans-14"/>
       <use xlink:href="#DejaVuSans-1a" transform="translate(63.625 0)"/>
       <use xlink:href="#DejaVuSans-11" transform="translate(127.25 0)"/>
       <use xlink:href="#DejaVuSans-18" transform="translate(159.03125 0)"/>
      </g>
     </g>
    </g>
    <g id="xtick_18">
     <g id="line2d_23">
      <g>
       <use xlink:href="#mcd77564425" x="538.122908" y="385.599141" style="fill: #7f7f7f; stroke: #7f7f7f; stroke-width: 1.8"/>
      </g>
     </g>
     <g id="text_24">
      <!-- 20.0 -->
      <g style="fill: #7f7f7f" transform="translate(526.990096 400.196797) scale(0.1 -0.1)">
       <use xlink:href="#DejaVuSans-15"/>
       <use xlink:href="#DejaVuSans-13" transform="translate(63.625 0)"/>
       <use xlink:href="#DejaVuSans-11" transform="translate(127.25 0)"/>
       <use xlink:href="#DejaVuSans-13" transform="translate(159.03125 0)"/>
      </g>
     </g>
    </g>
    <g id="text_25">
     <!-- Time [s] -->
     <g style="fill: #7f7f7f" transform="translate(280.987617 414.957422) scale(0.11 -0.11)">
      <defs>
       <path id="DejaVuSans-37" d="M -19 4666 
L 3928 4666 
L 3928 4134 
L 2272 4134 
L 2272 0 
L 1638 0 
L 1638 4134 
L -19 4134 
L -19 4666 
z
" transform="scale(0.015625)"/>
       <path id="DejaVuSans-48" d="M 3597 1894 
L 3597 1613 
L 953 1613 
Q 991 1019 1311 708 
Q 1631 397 2203 397 
Q 2534 397 2845 478 
Q 3156 559 3463 722 
L 3463 178 
Q 3153 47 2828 -22 
Q 2503 -91 2169 -91 
Q 1331 -91 842 396 
Q 353 884 353 1716 
Q 353 2575 817 3079 
Q 1281 3584 2069 3584 
Q 2775 3584 3186 3129 
Q 3597 2675 3597 1894 
z
M 3022 2063 
Q 3016 2534 2758 2815 
Q 2500 3097 2075 3097 
Q 1594 3097 1305 2825 
Q 1016 2553 972 2059 
L 3022 2063 
z
" transform="scale(0.015625)"/>
      </defs>
      <use xlink:href="#DejaVuSans-37"/>
      <use xlink:href="#DejaVuSans-4c" transform="translate(58 0)"/>
      <use xlink:href="#DejaVuSans-50" transform="translate(85.78125 0)"/>
      <use xlink:href="#DejaVuSans-48" transform="translate(183.1875 0)"/>
      <use xlink:href="#DejaVuSans-3" transform="translate(244.71875 0)"/>
      <use xlink:href="#DejaVuSans-3e" transform="translate(276.5 0)"/>
      <use xlink:href="#DejaVuSans-56" transform="translate(315.515625 0)"/>
      <use xlink:href="#DejaVuSans-40" transform="translate(367.609375 0)"/>
     </g>
    </g>
   </g>
   <g id="matplotlib.axis_4">
    <g id="ytick_5">
     <g id="line2d_24">
      <g>
       <use xlink:href="#m11e8773352" x="45.103984" y="377.974963" style="fill: #7f7f7f; stroke: #7f7f7f; stroke-width: 1.8"/>
      </g>
     </g>
     <g id="text_26">
      <!-- 0.0 -->
      <g style="fill: #7f7f7f" transform="translate(22.200859 381.773791) scale(0.1 -0.1)">
       <use xlink:href="#DejaVuSans-13"/>
       <use xlink:href="#DejaVuSans-11" transform="translate(63.625 0)"/>
       <use xlink:href="#DejaVuSans-13" transform="translate(95.40625 0)"/>
      </g>
     </g>
    </g>
    <g id="ytick_6">
     <g id="line2d_25">
      <g>
       <use xlink:href="#m11e8773352" x="45.103984" y="339.936625" style="fill: #7f7f7f; stroke: #7f7f7f; stroke-width: 1.8"/>
      </g>
     </g>
     <g id="text_27">
      <!-- 0.5 -->
      <g style="fill: #7f7f7f" transform="translate(22.200859 343.735453) scale(0.1 -0.1)">
       <use xlink:href="#DejaVuSans-13"/>
       <use xlink:href="#DejaVuSans-11" transform="translate(63.625 0)"/>
       <use xlink:href="#DejaVuSans-18" transform="translate(95.40625 0)"/>
      </g>
     </g>
    </g>
    <g id="ytick_7">
     <g id="line2d_26">
      <g>
       <use xlink:href="#m11e8773352" x="45.103984" y="301.898288" style="fill: #7f7f7f; stroke: #7f7f7f; stroke-width: 1.8"/>
      </g>
     </g>
     <g id="text_28">
      <!-- 1.0 -->
      <g style="fill: #7f7f7f" transform="translate(22.200859 305.697116) scale(0.1 -0.1)">
       <use xlink:href="#DejaVuSans-14"/>
       <use xlink:href="#DejaVuSans-11" transform="translate(63.625 0)"/>
       <use xlink:href="#DejaVuSans-13" transform="translate(95.40625 0)"/>
      </g>
     </g>
    </g>
    <g id="ytick_8">
     <g id="line2d_27">
      <g>
       <use xlink:href="#m11e8773352" x="45.103984" y="263.859951" style="fill: #7f7f7f; stroke: #7f7f7f; stroke-width: 1.8"/>
      </g>
     </g>
     <g id="text_29">
      <!-- 1.5 -->
      <g style="fill: #7f7f7f" transform="translate(22.200859 267.658779) scale(0.1 -0.1)">
       <use xlink:href="#DejaVuSans-14"/>
       <use xlink:href="#DejaVuSans-11" transform="translate(63.625 0)"/>
       <use xlink:href="#DejaVuSans-18" transform="translate(95.40625 0)"/>
      </g>
     </g>
    </g>
    <g id="ytick_9">
     <g id="line2d_28">
      <g>
       <use xlink:href="#m11e8773352" x="45.103984" y="225.821613" style="fill: #7f7f7f; stroke: #7f7f7f; stroke-width: 1.8"/>
      </g>
     </g>
     <g id="text_30">
      <!-- 2.0 -->
      <g style="fill: #7f7f7f" transform="translate(22.200859 229.620441) scale(0.1 -0.1)">
       <use xlink:href="#DejaVuSans-15"/>
       <use xlink:href="#DejaVuSans-11" transform="translate(63.625 0)"/>
       <use xlink:href="#DejaVuSans-13" transform="translate(95.40625 0)"/>
      </g>
     </g>
    </g>
    <g id="text_31">
     <!-- Velocity Error [m/s] -->
     <g style="fill: #7f7f7f" transform="translate(15.558281 354.574434) rotate(-90) scale(0.11 -0.11)">
      <defs>
       <path id="DejaVuSans-39" d="M 1831 0 
L 50 4666 
L 709 4666 
L 2188 738 
L 3669 4666 
L 4325 4666 
L 2547 0 
L 1831 0 
z
" transform="scale(0.015625)"/>
       <path id="DejaVuSans-4f" d="M 603 4863 
L 1178 4863 
L 1178 0 
L 603 0 
L 603 4863 
z
" transform="scale(0.015625)"/>
       <path id="DejaVuSans-46" d="M 3122 3366 
L 3122 2828 
Q 2878 2963 2633 3030 
Q 2388 3097 2138 3097 
Q 1578 3097 1268 2742 
Q 959 2388 959 1747 
Q 959 1106 1268 751 
Q 1578 397 2138 397 
Q 2388 397 2633 464 
Q 2878 531 3122 666 
L 3122 134 
Q 2881 22 2623 -34 
Q 2366 -91 2075 -91 
Q 1284 -91 818 406 
Q 353 903 353 1747 
Q 353 2603 823 3093 
Q 1294 3584 2113 3584 
Q 2378 3584 2631 3529 
Q 2884 3475 3122 3366 
z
" transform="scale(0.015625)"/>
       <path id="DejaVuSans-5c" d="M 2059 -325 
Q 1816 -950 1584 -1140 
Q 1353 -1331 966 -1331 
L 506 -1331 
L 506 -850 
L 844 -850 
Q 1081 -850 1212 -737 
Q 1344 -625 1503 -206 
L 1606 56 
L 191 3500 
L 800 3500 
L 1894 763 
L 2988 3500 
L 3597 3500 
L 2059 -325 
z
" transform="scale(0.015625)"/>
       <path id="DejaVuSans-12" d="M 1625 4666 
L 2156 4666 
L 531 -594 
L 0 -594 
L 1625 4666 
z
" transform="scale(0.015625)"/>
      </defs>
      <use xlink:href="#DejaVuSans-39"/>
      <use xlink:href="#DejaVuSans-48" transform="translate(60.640625 0)"/>
      <use xlink:href="#DejaVuSans-4f" transform="translate(122.171875 0)"/>
      <use xlink:href="#DejaVuSans-52" transform="translate(149.953125 0)"/>
      <use xlink:href="#DejaVuSans-46" transform="translate(211.140625 0)"/>
      <use xlink:href="#DejaVuSans-4c" transform="translate(266.125 0)"/>
      <use xlink:href="#DejaVuSans-57" transform="translate(293.90625 0)"/>
      <use xlink:href="#DejaVuSans-5c" transform="translate(333.109375 0)"/>
      <use xlink:href="#DejaVuSans-3" transform="translate(392.296875 0)"/>
      <use xlink:href="#DejaVuSans-28" transform="translate(424.078125 0)"/>
      <use xlink:href="#DejaVuSans-55" transform="translate(487.265625 0)"/>
      <use xlink:href="#DejaVuSans-55" transform="translate(526.625 0)"/>
      <use xlink:href="#DejaVuSans-52" transform="translate(565.53125 0)"/>
      <use xlink:href="#DejaVuSans-55" transform="translate(626.71875 0)"/>
      <use xlink:href="#DejaVuSans-3" transform="translate(667.828125 0)"/>
      <use xlink:href="#DejaVuSans-3e" transform="translate(699.609375 0)"/>
      <use xlink:href="#DejaVuSans-50" transform="translate(738.625 0)"/>
      <use xlink:href="#DejaVuSans-12" transform="translate(836.03125 0)"/>
      <use xlink:href="#DejaVuSans-56" transform="translate(869.71875 0)"/>
      <use xlink:href="#DejaVuSans-40" transform="translate(921.8125 0)"/>
     </g>
    </g>
   </g>
   <g id="line2d_29">
    <path d="M 68.581076 225.821613 
L 69.52016 225.483201 
L 70.459243 238.032851 
L 70.694014 233.772998 
L 70.928785 229.402746 
L 71.633098 231.27899 
L 72.10264 248.88497 
L 72.572182 248.625197 
L 73.041723 234.392076 
L 73.276494 245.926213 
L 75.624203 341.145882 
L 75.858974 335.191072 
L 77.737142 276.163078 
L 78.441454 301.585052 
L 78.910996 293.968544 
L 79.145767 293.770073 
L 79.615309 278.067574 
L 79.85008 293.966525 
L 81.963018 343.26135 
L 82.197789 332.715575 
L 82.667331 349.918922 
L 83.136873 370.325296 
L 83.606415 348.364223 
L 83.841186 340.933627 
L 84.310727 344.086807 
L 85.954124 371.358519 
L 86.658437 366.049514 
L 86.893207 371.665379 
L 87.362749 376.458371 
L 87.832291 371.897225 
L 88.536604 376.655839 
L 89.006146 376.164528 
L 89.945229 368.373992 
L 90.414771 376.576615 
L 90.884313 371.756342 
L 91.119084 369.692529 
L 91.588626 372.310689 
L 92.058168 370.091654 
L 92.527709 369.771435 
L 92.997251 375.057002 
L 94.405877 361.812141 
L 94.875419 362.994025 
L 96.049273 353.561574 
L 96.284044 353.944458 
L 96.518815 354.877225 
L 96.753586 353.587026 
L 96.988357 351.95514 
L 97.223128 353.454384 
L 98.162211 363.066262 
L 98.396982 357.747644 
L 98.866524 365.460399 
L 99.805608 364.411339 
L 100.27515 361.079289 
L 100.509921 362.701765 
L 101.449004 370.663492 
L 101.918546 370.597129 
L 102.153317 369.975142 
L 102.388088 371.491141 
L 102.85763 374.840641 
L 103.092401 371.212943 
L 103.796713 370.700086 
L 104.735797 373.969516 
L 104.970568 372.180194 
L 106.144423 365.008971 
L 106.613964 365.284881 
L 106.848735 364.316777 
L 108.02259 372.591332 
L 108.257361 372.394426 
L 109.665986 377.459822 
L 110.60507 367.982943 
L 110.839841 369.664251 
L 112.013695 377.814468 
L 112.248466 377.226675 
L 112.718008 371.09527 
L 113.18755 375.836179 
L 113.657092 376.032567 
L 114.361405 377.315486 
L 114.596176 376.689755 
L 116.239572 368.377392 
L 116.474343 369.963431 
L 116.943885 368.385192 
L 118.117739 363.868663 
L 118.35251 364.152068 
L 120.230678 370.078829 
L 120.700219 372.334574 
L 121.404532 371.510788 
L 121.874074 366.085925 
L 122.343616 370.046932 
L 122.578387 370.053428 
L 123.047929 372.114144 
L 123.282699 368.694284 
L 123.51747 368.314119 
L 124.456554 370.064651 
L 125.160867 368.076535 
L 125.630409 368.399663 
L 126.09995 368.107059 
L 126.804263 369.175632 
L 127.039034 368.256548 
L 127.508576 369.992012 
L 127.978118 370.871592 
L 128.44766 376.860329 
L 129.151972 375.414731 
L 130.560598 366.081912 
L 130.795369 367.421217 
L 132.673536 377.549208 
L 134.786474 363.468652 
L 135.021245 363.489959 
L 135.256016 361.108039 
L 135.725558 366.396698 
L 135.960329 369.025606 
L 136.1951 365.921575 
L 136.429871 366.665332 
L 137.134184 357.625814 
L 137.603725 359.431 
L 137.838496 357.300651 
L 138.308038 359.956899 
L 139.716664 362.309096 
L 139.951435 359.936485 
L 140.420976 362.247315 
L 141.36006 368.649538 
L 141.594831 364.530437 
L 142.064373 364.745377 
L 142.768686 360.176556 
L 144.177311 367.900088 
L 144.412082 366.217474 
L 144.646853 366.5593 
L 144.881624 364.210017 
L 145.351166 369.545841 
L 145.585937 368.319904 
L 145.820707 370.569085 
L 147.229333 377.885176 
L 147.698875 376.694343 
L 148.168417 375.957014 
L 148.403187 377.018393 
L 148.637958 372.727766 
L 149.342271 377.25218 
L 149.577042 373.128114 
L 150.281355 365.833283 
L 150.750897 370.809081 
L 151.220438 372.303883 
L 151.455209 370.186031 
L 151.68998 371.700318 
L 152.159522 367.053105 
L 152.394293 369.127215 
L 153.568148 377.702045 
L 155.915857 367.567167 
L 156.150628 362.654063 
L 157.089711 363.92767 
L 157.794024 360.350172 
L 158.028795 361.158002 
L 159.437421 366.571403 
L 159.672191 366.501579 
L 160.611275 370.169165 
L 161.315588 369.161894 
L 161.550359 369.398397 
L 162.724213 377.796193 
L 164.132839 372.800561 
L 164.837152 377.373932 
L 165.306693 375.470869 
L 166.245777 372.118947 
L 167.419632 377.657958 
L 168.593486 375.063188 
L 168.828257 377.779546 
L 169.53257 377.468096 
L 171.410737 367.917439 
L 171.645508 367.977548 
L 172.11505 372.671243 
L 172.584592 370.462527 
L 173.054134 366.880735 
L 173.523676 369.7214 
L 173.758446 369.333319 
L 175.167072 377.5549 
L 175.401843 377.65039 
L 177.28001 362.535163 
L 178.688636 369.0844 
L 178.923407 369.731244 
L 179.158178 373.716369 
L 179.627719 365.477956 
L 179.86249 363.253946 
L 180.332032 366.437968 
L 180.801574 370.655145 
L 181.505887 376.974759 
L 181.975429 374.936864 
L 182.679741 369.31021 
L 183.384054 371.751622 
L 183.853596 375.878054 
L 184.323138 372.939597 
L 185.731763 368.847892 
L 188.314243 377.199396 
L 189.018556 372.88987 
L 189.253327 375.819124 
L 189.488098 377.782789 
L 190.192411 375.493424 
L 191.131494 371.701001 
L 191.366265 372.677084 
L 191.601036 374.496169 
L 192.070578 370.574119 
L 192.305349 370.390405 
L 192.774891 360.128774 
L 193.479203 361.931808 
L 193.713974 361.94662 
L 195.1226 367.544191 
L 194.418287 361.210681 
L 195.357371 367.400837 
L 195.592142 364.713317 
L 195.826913 368.080893 
L 196.765996 377.314079 
L 197.000767 372.580234 
L 197.70508 373.089376 
L 198.174622 366.110199 
L 198.409393 368.182708 
L 198.878934 364.553246 
L 199.113705 365.825594 
L 199.348476 367.508665 
L 200.052789 365.597221 
L 200.522331 363.475387 
L 200.757102 367.045638 
L 201.226644 359.822479 
L 201.461415 360.618492 
L 201.696185 360.165991 
L 202.400498 354.996383 
L 203.104811 356.33038 
L 203.339582 356.8991 
L 204.278666 368.664907 
L 204.513436 364.440918 
L 205.45252 360.126714 
L 205.217749 365.207448 
L 205.922062 360.770121 
L 206.391604 362.770878 
L 208.504542 370.288151 
L 208.974084 367.131516 
L 209.443626 368.904813 
L 210.147938 375.726623 
L 210.382709 371.988886 
L 211.556564 366.749137 
L 215.078128 377.54906 
L 215.312899 377.308557 
L 215.78244 370.79596 
L 216.486753 374.978917 
L 217.191066 370.462447 
L 217.660608 373.930618 
L 218.599691 375.960031 
L 219.069233 374.991916 
L 220.243088 371.628768 
L 220.477859 372.478916 
L 220.947401 373.012944 
L 221.182172 369.887601 
L 221.651713 371.230043 
L 222.825568 375.855573 
L 223.060339 375.477217 
L 223.529881 377.710214 
L 223.764652 377.50263 
L 225.642819 364.62889 
L 226.112361 368.021044 
L 226.347132 366.090976 
L 226.816674 362.90111 
L 227.051444 366.299829 
L 227.286215 363.023751 
L 227.520986 364.426883 
L 228.225299 364.2537 
L 228.46007 363.921216 
L 229.164383 372.355108 
L 229.399154 371.743367 
L 230.103466 364.747233 
L 230.573008 366.869238 
L 231.277321 365.122865 
L 231.04255 366.996646 
L 231.512092 365.570577 
L 232.216405 371.255645 
L 232.685946 368.097223 
L 233.155488 370.267238 
L 233.390259 366.391952 
L 233.62503 367.684982 
L 233.859801 367.680928 
L 235.033656 363.332113 
L 235.268426 362.54489 
L 236.677052 370.134935 
L 237.146594 368.427989 
L 237.381365 369.630672 
L 238.085677 376.624982 
L 238.555219 373.080301 
L 239.494303 364.873934 
L 239.963845 368.525095 
L 240.198616 368.261739 
L 240.433387 369.607632 
L 240.668158 367.140199 
L 241.137699 368.359563 
L 241.842012 360.239806 
L 242.546325 363.611264 
L 243.485409 369.901333 
L 243.015867 362.874609 
L 243.720179 367.126428 
L 243.95495 365.375421 
L 244.424492 368.795576 
L 244.659263 369.119631 
L 245.128805 368.348961 
L 246.772201 356.547305 
L 247.006972 355.30508 
L 248.180827 362.298211 
L 248.415598 357.013036 
L 248.88514 363.466553 
L 249.119911 362.255708 
L 249.824223 362.881941 
L 249.589452 361.448429 
L 250.058994 362.431965 
L 250.528536 368.09681 
L 250.998078 364.903644 
L 252.171932 359.811276 
L 253.345787 372.180149 
L 253.580558 369.684372 
L 253.815329 369.578661 
L 254.284871 370.584359 
L 255.223954 366.271287 
L 255.693496 368.565139 
L 255.928267 366.797825 
L 256.63258 365.368319 
L 256.867351 367.11571 
L 257.571664 375.754054 
L 258.275976 374.888282 
L 258.510747 377.422868 
L 258.745518 373.791065 
L 259.21506 376.447051 
L 260.154144 377.747199 
L 260.388915 374.876534 
L 261.093227 377.935872 
L 261.562769 374.658318 
L 262.032311 376.395002 
L 262.267082 376.757832 
L 263.910478 369.103506 
L 264.849562 372.998163 
L 265.084333 371.410952 
L 265.553875 372.311637 
L 265.788646 371.361667 
L 266.023417 368.844227 
L 266.492958 373.261983 
L 266.9625 376.89397 
L 267.197271 373.047894 
L 268.605897 367.670806 
L 269.779751 372.584605 
L 270.953606 365.050392 
L 272.12746 372.0556 
L 272.831773 363.723026 
L 273.301315 364.912391 
L 273.770857 363.28356 
L 274.005628 363.575773 
L 275.649024 375.526791 
L 276.588108 370.780865 
L 276.822879 372.423793 
L 277.05765 372.219504 
L 277.527191 366.541155 
L 278.466275 367.049568 
L 278.935817 366.532431 
L 279.64013 371.287131 
L 279.874901 371.105565 
L 281.048755 377.323468 
L 281.283526 375.22482 
L 281.518297 374.845122 
L 281.753068 370.454295 
L 282.22261 374.968255 
L 282.457381 374.326654 
L 282.692152 373.623215 
L 283.631235 367.5692 
L 283.866006 368.035942 
L 284.570319 365.659278 
L 284.80509 368.006194 
L 285.039861 367.660996 
L 285.274632 364.325922 
L 285.744173 369.006932 
L 286.213715 368.463368 
L 286.918028 372.018347 
L 287.622341 366.913834 
L 287.857112 369.106099 
L 288.326654 373.975811 
L 288.796195 370.742238 
L 289.030966 369.989875 
L 289.265737 365.258747 
L 289.97005 367.118785 
L 290.909134 374.524143 
L 291.378675 371.272152 
L 291.613446 371.120974 
L 292.082988 373.37054 
L 292.317759 370.262514 
L 293.256843 365.826222 
L 294.430697 371.056205 
L 294.900239 367.228426 
L 295.604552 368.533443 
L 296.308865 371.069514 
L 296.543636 370.383401 
L 297.013177 367.441057 
L 297.247948 368.560563 
L 297.482719 371.192221 
L 297.952261 366.44847 
L 298.421803 368.603855 
L 299.126116 367.43636 
L 300.065199 363.970894 
L 301.004283 371.10885 
L 301.239054 370.563006 
L 301.708596 365.548451 
L 302.178138 371.611803 
L 303.821534 377.05739 
L 304.056305 376.111309 
L 305.699701 367.328256 
L 305.934472 373.734697 
L 306.873556 372.452297 
L 307.108327 371.97826 
L 308.516952 355.372088 
L 310.160349 370.433464 
L 310.864662 367.060727 
L 311.099432 369.940235 
L 312.038516 377.794039 
L 312.742829 377.45668 
L 313.212371 374.605212 
L 313.447142 371.99253 
L 313.916683 372.99942 
L 314.151454 377.565512 
L 314.855767 372.945492 
L 315.56008 370.827585 
L 315.794851 373.255316 
L 316.029622 375.216198 
L 316.499163 372.770648 
L 316.733934 369.620237 
L 317.203476 374.962141 
L 317.438247 374.769486 
L 317.673018 377.354609 
L 318.14256 376.136247 
L 319.081644 370.210844 
L 319.316414 372.617756 
L 319.551185 371.451409 
L 319.785956 374.488152 
L 320.255498 376.696042 
L 320.72504 375.439838 
L 321.429353 369.829159 
L 321.898895 371.206786 
L 322.368436 376.858567 
L 323.072749 375.967087 
L 323.30752 374.656709 
L 323.542291 376.05217 
L 323.777062 377.884734 
L 324.481375 367.207033 
L 324.950916 372.238168 
L 326.359542 375.981983 
L 326.829084 373.972332 
L 328.47248 359.410797 
L 330.115877 369.578493 
L 330.350648 371.29756 
L 330.585418 368.753909 
L 331.05496 369.175686 
L 332.228815 371.736178 
L 333.167899 367.645974 
L 333.402669 372.866183 
L 333.872211 366.796287 
L 334.341753 372.131374 
L 335.046066 369.803862 
L 335.515608 374.651249 
L 335.98515 374.157626 
L 336.454691 375.758612 
L 336.689462 373.688484 
L 336.924233 374.028759 
L 337.159004 372.349068 
L 337.393775 376.843047 
L 337.863317 377.584178 
L 338.098088 374.685842 
L 338.802401 377.91298 
L 339.976255 375.493663 
L 340.445797 377.925008 
L 340.680568 377.574089 
L 341.854422 369.961078 
L 343.028277 377.157271 
L 343.497819 376.902626 
L 343.967361 368.993798 
L 344.671673 372.493089 
L 345.141215 373.682076 
L 345.375986 370.598744 
L 346.31507 376.788417 
L 345.845528 368.913657 
L 346.549841 374.880875 
L 347.254154 376.433063 
L 347.488924 374.849342 
L 348.428008 371.31214 
L 347.958466 376.835172 
L 348.89755 372.091714 
L 349.132321 371.708608 
L 350.775717 377.42893 
L 352.419114 364.569875 
L 351.48003 377.819451 
L 352.653885 368.048443 
L 353.123426 369.457971 
L 353.358197 368.926327 
L 353.592968 367.244084 
L 354.532052 367.505646 
L 355.471136 373.047256 
L 355.705906 372.098816 
L 356.64499 376.852639 
L 357.114532 373.275914 
L 357.584074 366.822085 
L 357.818845 360.92351 
L 358.523157 367.056322 
L 358.757928 367.148172 
L 358.992699 368.584899 
L 359.462241 365.559942 
L 359.697012 365.658193 
L 360.636096 377.343965 
L 361.575179 377.144686 
L 362.044721 374.793753 
L 362.514263 376.110282 
L 362.749034 377.287155 
L 362.983805 375.289951 
L 363.922889 368.225425 
L 364.157659 371.407326 
L 364.627201 369.14015 
L 365.331514 371.036882 
L 365.801056 373.482668 
L 366.270598 371.289636 
L 366.505369 369.846036 
L 366.74014 372.917073 
L 366.97491 371.189792 
L 367.679223 377.974572 
L 368.148765 376.428386 
L 368.853078 370.597125 
L 369.32262 372.628456 
L 370.261703 368.092741 
L 370.496474 369.258743 
L 370.731245 368.57821 
L 372.374642 377.69218 
L 373.313725 369.929374 
L 374.48758 377.903828 
L 374.957122 376.522593 
L 375.426663 370.224577 
L 375.896205 375.063969 
L 376.365747 377.635875 
L 376.600518 374.90031 
L 377.07006 372.298495 
L 377.304831 375.934657 
L 377.539602 377.939356 
L 377.774373 374.907554 
L 378.243914 375.974411 
L 379.417769 365.985699 
L 380.356853 358.192078 
L 380.591624 362.741336 
L 380.826395 362.971727 
L 381.061165 359.177409 
L 381.530707 363.318547 
L 381.765478 361.587453 
L 382.000249 362.098828 
L 382.23502 360.612579 
L 382.704562 358.818049 
L 384.582729 377.827642 
L 384.8175 376.988681 
L 385.052271 371.792464 
L 385.756584 377.442213 
L 386.695667 372.217284 
L 386.930438 373.058025 
L 387.165209 377.645524 
L 387.634751 373.304731 
L 388.104293 367.313121 
L 388.573835 371.881096 
L 389.043377 374.056754 
L 389.512918 372.489193 
L 389.98246 371.686769 
L 390.217231 377.854403 
L 390.921544 373.167897 
L 391.156315 372.932006 
L 391.860628 362.900257 
L 392.330169 363.236186 
L 393.034482 362.400921 
L 394.208337 372.654524 
L 395.14742 365.725153 
L 395.851733 367.297518 
L 396.086504 366.810629 
L 397.49513 354.717114 
L 398.668984 370.112495 
L 399.842839 365.894163 
L 400.547151 364.030549 
L 400.312381 366.708547 
L 400.781922 365.222079 
L 402.425319 377.657531 
L 402.66009 377.30103 
L 402.894861 376.696864 
L 403.129632 377.307992 
L 403.833944 368.708956 
L 404.303486 372.971927 
L 405.007799 373.540686 
L 405.24257 370.183865 
L 405.712112 375.047498 
L 406.416424 372.350273 
L 407.120737 361.423319 
L 407.590279 366.366291 
L 408.529363 369.236155 
L 408.764134 367.574107 
L 408.998904 366.139755 
L 409.233675 369.115187 
L 410.642301 377.326845 
L 409.703217 368.366273 
L 411.111843 374.066191 
L 412.285697 369.799918 
L 412.520468 371.475631 
L 412.755239 368.121794 
L 413.694323 368.628686 
L 413.929094 366.342091 
L 414.163865 366.558298 
L 414.633406 371.287614 
L 415.337719 369.235781 
L 415.57249 368.742817 
L 415.807261 371.059361 
L 416.042032 365.485956 
L 416.511574 368.328813 
L 416.746345 367.316847 
L 417.920199 377.116771 
L 419.094054 374.989369 
L 420.033138 371.999935 
L 420.972221 377.339393 
L 421.206992 376.406746 
L 422.380847 366.441366 
L 421.676534 377.119627 
L 422.615618 366.507418 
L 424.493785 376.743325 
L 424.963327 375.766714 
L 425.198098 377.201309 
L 425.432869 377.420115 
L 426.371952 373.98956 
L 427.311036 377.887575 
L 428.484891 362.856174 
L 428.954432 363.436296 
L 430.363058 369.187406 
L 431.067371 362.043628 
L 431.536912 363.64238 
L 433.180309 371.743019 
L 434.119393 363.306808 
L 434.588934 365.947609 
L 436.467102 377.47876 
L 436.936644 377.377702 
L 437.171414 373.918132 
L 437.640956 377.805169 
L 437.875727 374.388171 
L 438.58004 377.764145 
L 438.814811 377.316633 
L 439.519124 374.659303 
L 439.753894 374.902378 
L 439.988665 377.346571 
L 440.458207 374.167673 
L 441.866833 365.571383 
L 440.927749 375.009076 
L 442.101604 367.266729 
L 442.571145 369.174889 
L 442.805916 368.16764 
L 443.745 359.145759 
L 444.449313 359.485014 
L 444.684084 356.842012 
L 444.918855 360.75689 
L 445.153626 359.67376 
L 445.623167 364.976715 
L 445.857938 359.535926 
L 446.092709 360.132851 
L 446.797022 356.481823 
L 447.031793 360.511553 
L 447.501335 362.293631 
L 447.970877 360.275969 
L 448.205647 360.70287 
L 448.440418 360.159012 
L 448.90996 358.064278 
L 450.318586 369.898775 
L 450.553357 370.112493 
L 451.257669 377.07292 
L 451.727211 376.313635 
L 452.901066 369.707555 
L 453.135837 371.326168 
L 453.370608 377.78306 
L 454.309691 376.212319 
L 455.483546 368.470507 
L 456.187859 377.883397 
L 456.892171 377.375398 
L 457.596484 377.734417 
L 458.300797 375.2986 
L 458.535568 376.858431 
L 459.00511 373.900632 
L 459.239881 372.986264 
L 459.474651 373.559107 
L 459.709422 377.413373 
L 459.944193 372.745371 
L 460.413735 373.516636 
L 460.883277 376.109258 
L 461.118048 372.339063 
L 461.352819 370.204285 
L 461.822361 374.976219 
L 462.057132 375.567896 
L 462.291902 375.064426 
L 463.935299 361.795025 
L 465.343924 374.496368 
L 465.578695 370.316345 
L 466.048237 366.938178 
L 466.283008 368.394895 
L 466.75255 364.583737 
L 467.222092 368.209658 
L 467.691634 369.423802 
L 469.33503 377.018663 
L 469.804572 376.627166 
L 470.978426 368.020515 
L 471.213197 373.907005 
L 471.91751 370.329959 
L 472.152281 369.712268 
L 473.795677 376.832137 
L 474.030448 377.914391 
L 474.49999 377.794296 
L 477.08247 357.518754 
L 479.430179 344.811552 
L 477.552012 358.104401 
L 479.66495 350.029338 
L 480.369263 357.179836 
L 480.838805 354.332038 
L 482.482201 361.961428 
L 482.716972 362.23078 
L 483.421285 359.331648 
L 483.656056 362.504239 
L 484.82991 375.447867 
L 485.064681 373.352231 
L 485.299452 370.183488 
L 485.534223 372.893245 
L 485.768994 377.919042 
L 486.238536 371.610971 
L 486.473307 371.756503 
L 486.942849 372.365984 
L 487.17762 374.258505 
L 487.647161 370.330195 
L 487.881932 370.289396 
L 488.116703 371.736791 
L 488.351474 367.849754 
L 488.586245 367.246867 
L 489.7601 377.872243 
L 490.464412 375.737362 
L 490.699183 377.695279 
L 490.933954 377.819724 
L 493.281663 354.904612 
L 493.516434 358.297601 
L 493.985976 353.147373 
L 494.220747 350.76868 
L 494.455518 355.035225 
L 495.159831 359.815497 
L 495.394602 358.307299 
L 495.629373 353.051869 
L 496.333685 356.149956 
L 496.568456 359.072134 
L 497.037998 352.500598 
L 498.211853 360.996488 
L 498.446624 358.496809 
L 498.681394 357.704839 
L 498.916165 358.70419 
L 499.385707 361.136642 
L 499.855249 360.654342 
L 500.09002 357.940042 
L 500.559562 362.277191 
L 500.794333 359.739208 
L 501.029104 360.91527 
L 501.263875 358.219707 
L 501.968187 351.297523 
L 502.437729 351.779657 
L 502.907271 351.67269 
L 504.550667 361.930255 
L 504.785438 359.016216 
L 505.489751 361.505394 
L 506.428835 367.192336 
L 506.663606 364.051824 
L 507.133147 361.22777 
L 507.602689 362.520165 
L 507.83746 363.622659 
L 508.072231 361.645392 
L 508.307002 361.75659 
L 508.541773 358.219728 
L 509.011315 361.509653 
L 509.715628 364.014347 
L 509.950398 363.038742 
L 510.654711 357.556496 
L 510.889482 361.081772 
L 512.063337 372.333287 
L 512.298108 377.179139 
L 513.00242 375.423921 
L 516.054442 358.294564 
L 517.463068 370.852542 
L 518.167381 366.849642 
L 518.402151 370.12618 
L 518.871693 372.097875 
L 519.106464 370.54583 
L 519.341235 375.690378 
L 520.280319 375.628362 
L 520.51509 376.918055 
L 520.984631 374.860472 
L 522.393257 367.177958 
L 522.628028 367.30054 
L 523.09757 370.045678 
L 523.332341 365.223229 
L 523.567112 364.066072 
L 523.801882 365.911653 
L 525.445279 373.331422 
L 525.68005 371.954004 
L 525.914821 374.112284 
L 526.149592 375.74959 
L 526.384363 372.388255 
L 526.619133 372.421096 
L 526.853904 373.210776 
L 527.323446 368.030693 
L 528.027759 369.293524 
L 528.966843 362.030899 
L 529.201614 365.943615 
L 529.436384 364.427566 
L 529.671155 367.755363 
L 531.314552 376.321259 
L 531.549323 375.985632 
L 532.253635 371.869443 
L 532.488406 373.604662 
L 532.723177 377.121322 
L 533.192719 373.369913 
L 533.662261 367.428143 
L 534.366574 369.231399 
L 535.540428 377.812854 
L 535.775199 377.667403 
L 536.479512 374.811697 
L 536.949054 376.407488 
L 537.183825 376.353752 
L 537.888137 372.974494 
L 538.122908 375.499451 
" clip-path="url(#pfa44ca13f2)" style="fill: none; stroke: #e41a1c; stroke-width: 2; stroke-linecap: square"/>
   </g>
   <g id="patch_6">
    <path d="M 45.103984 385.599141 
L 45.103984 217.858633 
" style="fill: none; stroke: #7f7f7f; stroke-width: 1.8; stroke-linejoin: miter; stroke-linecap: square"/>
   </g>
   <g id="patch_7">
    <path d="M 45.103984 385.599141 
L 561.6 385.599141 
" style="fill: none; stroke: #7f7f7f; stroke-width: 1.8; stroke-linejoin: miter; stroke-linecap: square"/>
   </g>
  </g>
 </g>
 <defs>
  <clipPath id="pc7ae660ad5">
   <rect x="45.103984" y="22.318125" width="516.496016" height="167.740508"/>
  </clipPath>
  <clipPath id="pfa44ca13f2">
   <rect x="45.103984" y="217.858633" width="516.496016" height="167.740508"/>
  </clipPath>
 </defs>
</svg>
