<?xml version="1.0" encoding="utf-8" standalone="no"?>
<!DOCTYPE svg PUBLIC "-//W3C//DTD SVG 1.1//EN"
  "http://www.w3.org/Graphics/SVG/1.1/DTD/svg11.dtd">
<svg xmlns:xlink="http://www.w3.org/1999/xlink" width="568.8pt" height="424.8pt" viewBox="0 0 568.8 424.8" xmlns="http://www.w3.org/2000/svg" version="1.1">
 <metadata>
  <rdf:RDF xmlns:dc="http://purl.org/dc/elements/1.1/" xmlns:cc="http://creativecommons.org/ns#" xmlns:rdf="http://www.w3.org/1999/02/22-rdf-syntax-ns#">
   <cc:Work>
    <dc:type rdf:resource="http://purl.org/dc/dcmitype/StillImage"/>
    <dc:date>2026-06-06T00:53:42.997744</dc:date>
    <dc:format>image/svg+xml</dc:format>
    <dc:creator>
     <cc:Agent>
      <dc:title>Matplotlib v3.10.9, https://matplotlib.org/</dc:title>
     </cc:Agent>
    </dc:creator>
   </cc:Work>
  </rdf:RDF>
 </metadata>
 <defs>
  <style type="text/css">*{stroke-linejoin: round; stroke-linecap: butt}</style>
 </defs>
 <g id="figure_1">
  <g id="patch_1">
   <path d="M 0 424.8 
L 568.8 424.8 
L 568.8 0 
L 0 0 
L 0 424.8 
z
" style="fill: none"/>
  </g>
  <g id="axes_1">
   <g id="patch_2">
    <path d="M 44.749063 190.557969 
L 561.6 190.557969 
L 561.6 22.318125 
L 44.749063 22.318125 
L 44.749063 190.557969 
z
" style="fill: none"/>
   </g>
   <g id="matplotlib.axis_1">
    <g id="xtick_1">
     <g id="line2d_1">
      <defs>
       <path id="m836d6ddc3d" d="M 0 0 
L 0 3.5 
" style="stroke: #7f7f7f; stroke-width: 1.8"/>
      </defs>
      <g>
       <use xlink:href="#m836d6ddc3d" x="68.242287" y="190.557969" style="fill: #7f7f7f; stroke: #7f7f7f; stroke-width: 1.8"/>
      </g>
     </g>
     <g id="text_1">
      <!-- 0.0 -->
      <g style="fill: #7f7f7f" transform="translate(60.290724 205.156406) scale(0.1 -0.1)">
       <defs>
        <path id="DejaVuSans-30" d="M 2034 4250 
Q 1547 4250 1301 3770 
Q 1056 3291 1056 2328 
Q 1056 1369 1301 889 
Q 1547 409 2034 409 
Q 2525 409 2770 889 
Q 3016 1369 3016 2328 
Q 3016 3291 2770 3770 
Q 2525 4250 2034 4250 
z
M 2034 4750 
Q 2819 4750 3233 4129 
Q 3647 3509 3647 2328 
Q 3647 1150 3233 529 
Q 2819 -91 2034 -91 
Q 1250 -91 836 529 
Q 422 1150 422 2328 
Q 422 3509 836 4129 
Q 1250 4750 2034 4750 
z
" transform="scale(0.015625)"/>
        <path id="DejaVuSans-2e" d="M 684 794 
L 1344 794 
L 1344 0 
L 684 0 
L 684 794 
z
" transform="scale(0.015625)"/>
       </defs>
       <use xlink:href="#DejaVuSans-30"/>
       <use xlink:href="#DejaVuSans-2e" transform="translate(63.623047 0)"/>
       <use xlink:href="#DejaVuSans-30" transform="translate(95.410156 0)"/>
      </g>
     </g>
    </g>
    <g id="xtick_2">
     <g id="line2d_2">
      <g>
       <use xlink:href="#m836d6ddc3d" x="126.975348" y="190.557969" style="fill: #7f7f7f; stroke: #7f7f7f; stroke-width: 1.8"/>
      </g>
     </g>
     <g id="text_2">
      <!-- 2.5 -->
      <g style="fill: #7f7f7f" transform="translate(119.023786 205.156406) scale(0.1 -0.1)">
       <defs>
        <path id="DejaVuSans-32" d="M 1228 531 
L 3431 531 
L 3431 0 
L 469 0 
L 469 531 
Q 828 903 1448 1529 
Q 2069 2156 2228 2338 
Q 2531 2678 2651 2914 
Q 2772 3150 2772 3378 
Q 2772 3750 2511 3984 
Q 2250 4219 1831 4219 
Q 1534 4219 1204 4116 
Q 875 4013 500 3803 
L 500 4441 
Q 881 4594 1212 4672 
Q 1544 4750 1819 4750 
Q 2544 4750 2975 4387 
Q 3406 4025 3406 3419 
Q 3406 3131 3298 2873 
Q 3191 2616 2906 2266 
Q 2828 2175 2409 1742 
Q 1991 1309 1228 531 
z
" transform="scale(0.015625)"/>
        <path id="DejaVuSans-35" d="M 691 4666 
L 3169 4666 
L 3169 4134 
L 1269 4134 
L 1269 2991 
Q 1406 3038 1543 3061 
Q 1681 3084 1819 3084 
Q 2600 3084 3056 2656 
Q 3513 2228 3513 1497 
Q 3513 744 3044 326 
Q 2575 -91 1722 -91 
Q 1428 -91 1123 -41 
Q 819 9 494 109 
L 494 744 
Q 775 591 1075 516 
Q 1375 441 1709 441 
Q 2250 441 2565 725 
Q 2881 1009 2881 1497 
Q 2881 1984 2565 2268 
Q 2250 2553 1709 2553 
Q 1456 2553 1204 2497 
Q 953 2441 691 2322 
L 691 4666 
z
" transform="scale(0.015625)"/>
       </defs>
       <use xlink:href="#DejaVuSans-32"/>
       <use xlink:href="#DejaVuSans-2e" transform="translate(63.623047 0)"/>
       <use xlink:href="#DejaVuSans-35" transform="translate(95.410156 0)"/>
      </g>
     </g>
    </g>
    <g id="xtick_3">
     <g id="line2d_3">
      <g>
       <use xlink:href="#m836d6ddc3d" x="185.708409" y="190.557969" style="fill: #7f7f7f; stroke: #7f7f7f; stroke-width: 1.8"/>
      </g>
     </g>
     <g id="text_3">
      <!-- 5.0 -->
      <g style="fill: #7f7f7f" transform="translate(177.756847 205.156406) scale(0.1 -0.1)">
       <use xlink:href="#DejaVuSans-35"/>
       <use xlink:href="#DejaVuSans-2e" transform="translate(63.623047 0)"/>
       <use xlink:href="#DejaVuSans-30" transform="translate(95.410156 0)"/>
      </g>
     </g>
    </g>
    <g id="xtick_4">
     <g id="line2d_4">
      <g>
       <use xlink:href="#m836d6ddc3d" x="244.44147" y="190.557969" style="fill: #7f7f7f; stroke: #7f7f7f; stroke-width: 1.8"/>
      </g>
     </g>
     <g id="text_4">
      <!-- 7.5 -->
      <g style="fill: #7f7f7f" transform="translate(236.489908 205.156406) scale(0.1 -0.1)">
       <defs>
        <path id="DejaVuSans-37" d="M 525 4666 
L 3525 4666 
L 3525 4397 
L 1831 0 
L 1172 0 
L 2766 4134 
L 525 4134 
L 525 4666 
z
" transform="scale(0.015625)"/>
       </defs>
       <use xlink:href="#DejaVuSans-37"/>
       <use xlink:href="#DejaVuSans-2e" transform="translate(63.623047 0)"/>
       <use xlink:href="#DejaVuSans-35" transform="translate(95.410156 0)"/>
      </g>
     </g>
    </g>
    <g id="xtick_5">
     <g id="line2d_5">
      <g>
       <use xlink:href="#m836d6ddc3d" x="303.174531" y="190.557969" style="fill: #7f7f7f; stroke: #7f7f7f; stroke-width: 1.8"/>
      </g>
     </g>
     <g id="text_5">
      <!-- 10.0 -->
      <g style="fill: #7f7f7f" transform="translate(292.041719 205.156406) scale(0.1 -0.1)">
       <defs>
        <path id="DejaVuSans-31" d="M 794 531 
L 1825 531 
L 1825 4091 
L 703 3866 
L 703 4441 
L 1819 4666 
L 2450 4666 
L 2450 531 
L 3481 531 
L 3481 0 
L 794 0 
L 794 531 
z
" transform="scale(0.015625)"/>
       </defs>
       <use xlink:href="#DejaVuSans-31"/>
       <use xlink:href="#DejaVuSans-30" transform="translate(63.623047 0)"/>
       <use xlink:href="#DejaVuSans-2e" transform="translate(127.246094 0)"/>
       <use xlink:href="#DejaVuSans-30" transform="translate(159.033203 0)"/>
      </g>
     </g>
    </g>
    <g id="xtick_6">
     <g id="line2d_6">
      <g>
       <use xlink:href="#m836d6ddc3d" x="361.907592" y="190.557969" style="fill: #7f7f7f; stroke: #7f7f7f; stroke-width: 1.8"/>
      </g>
     </g>
     <g id="text_6">
      <!-- 12.5 -->
      <g style="fill: #7f7f7f" transform="translate(350.77478 205.156406) scale(0.1 -0.1)">
       <use xlink:href="#DejaVuSans-31"/>
       <use xlink:href="#DejaVuSans-32" transform="translate(63.623047 0)"/>
       <use xlink:href="#DejaVuSans-2e" transform="translate(127.246094 0)"/>
       <use xlink:href="#DejaVuSans-35" transform="translate(159.033203 0)"/>
      </g>
     </g>
    </g>
    <g id="xtick_7">
     <g id="line2d_7">
      <g>
       <use xlink:href="#m836d6ddc3d" x="420.640653" y="190.557969" style="fill: #7f7f7f; stroke: #7f7f7f; stroke-width: 1.8"/>
      </g>
     </g>
     <g id="text_7">
      <!-- 15.0 -->
      <g style="fill: #7f7f7f" transform="translate(409.507841 205.156406) scale(0.1 -0.1)">
       <use xlink:href="#DejaVuSans-31"/>
       <use xlink:href="#DejaVuSans-35" transform="translate(63.623047 0)"/>
       <use xlink:href="#DejaVuSans-2e" transform="translate(127.246094 0)"/>
       <use xlink:href="#DejaVuSans-30" transform="translate(159.033203 0)"/>
      </g>
     </g>
    </g>
    <g id="xtick_8">
     <g id="line2d_8">
      <g>
       <use xlink:href="#m836d6ddc3d" x="479.373714" y="190.557969" style="fill: #7f7f7f; stroke: #7f7f7f; stroke-width: 1.8"/>
      </g>
     </g>
     <g id="text_8">
      <!-- 17.5 -->
      <g style="fill: #7f7f7f" transform="translate(468.240902 205.156406) scale(0.1 -0.1)">
       <use xlink:href="#DejaVuSans-31"/>
       <use xlink:href="#DejaVuSans-37" transform="translate(63.623047 0)"/>
       <use xlink:href="#DejaVuSans-2e" transform="translate(127.246094 0)"/>
       <use xlink:href="#DejaVuSans-35" transform="translate(159.033203 0)"/>
      </g>
     </g>
    </g>
    <g id="xtick_9">
     <g id="line2d_9">
      <g>
       <use xlink:href="#m836d6ddc3d" x="538.106776" y="190.557969" style="fill: #7f7f7f; stroke: #7f7f7f; stroke-width: 1.8"/>
      </g>
     </g>
     <g id="text_9">
      <!-- 20.0 -->
      <g style="fill: #7f7f7f" transform="translate(526.973963 205.156406) scale(0.1 -0.1)">
       <use xlink:href="#DejaVuSans-32"/>
       <use xlink:href="#DejaVuSans-30" transform="translate(63.623047 0)"/>
       <use xlink:href="#DejaVuSans-2e" transform="translate(127.246094 0)"/>
       <use xlink:href="#DejaVuSans-30" transform="translate(159.033203 0)"/>
      </g>
     </g>
    </g>
   </g>
   <g id="matplotlib.axis_2">
    <g id="ytick_1">
     <g id="line2d_10">
      <defs>
       <path id="m0a3619b9de" d="M 0 0 
L -3.5 0 
" style="stroke: #7f7f7f; stroke-width: 1.8"/>
      </defs>
      <g>
       <use xlink:href="#m0a3619b9de" x="44.749063" y="182.910703" style="fill: #7f7f7f; stroke: #7f7f7f; stroke-width: 1.8"/>
      </g>
     </g>
     <g id="text_10">
      <!-- 0.0 -->
      <g style="fill: #7f7f7f" transform="translate(21.845938 186.709922) scale(0.1 -0.1)">
       <use xlink:href="#DejaVuSans-30"/>
       <use xlink:href="#DejaVuSans-2e" transform="translate(63.623047 0)"/>
       <use xlink:href="#DejaVuSans-30" transform="translate(95.410156 0)"/>
      </g>
     </g>
    </g>
    <g id="ytick_2">
     <g id="line2d_11">
      <g>
       <use xlink:href="#m0a3619b9de" x="44.749063" y="144.424942" style="fill: #7f7f7f; stroke: #7f7f7f; stroke-width: 1.8"/>
      </g>
     </g>
     <g id="text_11">
      <!-- 0.1 -->
      <g style="fill: #7f7f7f" transform="translate(21.845938 148.22416) scale(0.1 -0.1)">
       <use xlink:href="#DejaVuSans-30"/>
       <use xlink:href="#DejaVuSans-2e" transform="translate(63.623047 0)"/>
       <use xlink:href="#DejaVuSans-31" transform="translate(95.410156 0)"/>
      </g>
     </g>
    </g>
    <g id="ytick_3">
     <g id="line2d_12">
      <g>
       <use xlink:href="#m0a3619b9de" x="44.749063" y="105.93918" style="fill: #7f7f7f; stroke: #7f7f7f; stroke-width: 1.8"/>
      </g>
     </g>
     <g id="text_12">
      <!-- 0.2 -->
      <g style="fill: #7f7f7f" transform="translate(21.845938 109.738399) scale(0.1 -0.1)">
       <use xlink:href="#DejaVuSans-30"/>
       <use xlink:href="#DejaVuSans-2e" transform="translate(63.623047 0)"/>
       <use xlink:href="#DejaVuSans-32" transform="translate(95.410156 0)"/>
      </g>
     </g>
    </g>
    <g id="ytick_4">
     <g id="line2d_13">
      <g>
       <use xlink:href="#m0a3619b9de" x="44.749063" y="67.453418" style="fill: #7f7f7f; stroke: #7f7f7f; stroke-width: 1.8"/>
      </g>
     </g>
     <g id="text_13">
      <!-- 0.3 -->
      <g style="fill: #7f7f7f" transform="translate(21.845938 71.252637) scale(0.1 -0.1)">
       <defs>
        <path id="DejaVuSans-33" d="M 2597 2516 
Q 3050 2419 3304 2112 
Q 3559 1806 3559 1356 
Q 3559 666 3084 287 
Q 2609 -91 1734 -91 
Q 1441 -91 1130 -33 
Q 819 25 488 141 
L 488 750 
Q 750 597 1062 519 
Q 1375 441 1716 441 
Q 2309 441 2620 675 
Q 2931 909 2931 1356 
Q 2931 1769 2642 2001 
Q 2353 2234 1838 2234 
L 1294 2234 
L 1294 2753 
L 1863 2753 
Q 2328 2753 2575 2939 
Q 2822 3125 2822 3475 
Q 2822 3834 2567 4026 
Q 2313 4219 1838 4219 
Q 1578 4219 1281 4162 
Q 984 4106 628 3988 
L 628 4550 
Q 988 4650 1302 4700 
Q 1616 4750 1894 4750 
Q 2613 4750 3031 4423 
Q 3450 4097 3450 3541 
Q 3450 3153 3228 2886 
Q 3006 2619 2597 2516 
z
" transform="scale(0.015625)"/>
       </defs>
       <use xlink:href="#DejaVuSans-30"/>
       <use xlink:href="#DejaVuSans-2e" transform="translate(63.623047 0)"/>
       <use xlink:href="#DejaVuSans-33" transform="translate(95.410156 0)"/>
      </g>
     </g>
    </g>
    <g id="ytick_5">
     <g id="line2d_14">
      <g>
       <use xlink:href="#m0a3619b9de" x="44.749063" y="28.967657" style="fill: #7f7f7f; stroke: #7f7f7f; stroke-width: 1.8"/>
      </g>
     </g>
     <g id="text_14">
      <!-- 0.4 -->
      <g style="fill: #7f7f7f" transform="translate(21.845938 32.766875) scale(0.1 -0.1)">
       <defs>
        <path id="DejaVuSans-34" d="M 2419 4116 
L 825 1625 
L 2419 1625 
L 2419 4116 
z
M 2253 4666 
L 3047 4666 
L 3047 1625 
L 3713 1625 
L 3713 1100 
L 3047 1100 
L 3047 0 
L 2419 0 
L 2419 1100 
L 313 1100 
L 313 1709 
L 2253 4666 
z
" transform="scale(0.015625)"/>
       </defs>
       <use xlink:href="#DejaVuSans-30"/>
       <use xlink:href="#DejaVuSans-2e" transform="translate(63.623047 0)"/>
       <use xlink:href="#DejaVuSans-34" transform="translate(95.410156 0)"/>
      </g>
     </g>
    </g>
    <g id="text_15">
     <!-- Position Error [m] -->
     <g style="fill: #7f7f7f" transform="translate(15.558281 154.397187) rotate(-90) scale(0.11 -0.11)">
      <defs>
       <path id="DejaVuSans-50" d="M 1259 4147 
L 1259 2394 
L 2053 2394 
Q 2494 2394 2734 2622 
Q 2975 2850 2975 3272 
Q 2975 3691 2734 3919 
Q 2494 4147 2053 4147 
L 1259 4147 
z
M 628 4666 
L 2053 4666 
Q 2838 4666 3239 4311 
Q 3641 3956 3641 3272 
Q 3641 2581 3239 2228 
Q 2838 1875 2053 1875 
L 1259 1875 
L 1259 0 
L 628 0 
L 628 4666 
z
" transform="scale(0.015625)"/>
       <path id="DejaVuSans-6f" d="M 1959 3097 
Q 1497 3097 1228 2736 
Q 959 2375 959 1747 
Q 959 1119 1226 758 
Q 1494 397 1959 397 
Q 2419 397 2687 759 
Q 2956 1122 2956 1747 
Q 2956 2369 2687 2733 
Q 2419 3097 1959 3097 
z
M 1959 3584 
Q 2709 3584 3137 3096 
Q 3566 2609 3566 1747 
Q 3566 888 3137 398 
Q 2709 -91 1959 -91 
Q 1206 -91 779 398 
Q 353 888 353 1747 
Q 353 2609 779 3096 
Q 1206 3584 1959 3584 
z
" transform="scale(0.015625)"/>
       <path id="DejaVuSans-73" d="M 2834 3397 
L 2834 2853 
Q 2591 2978 2328 3040 
Q 2066 3103 1784 3103 
Q 1356 3103 1142 2972 
Q 928 2841 928 2578 
Q 928 2378 1081 2264 
Q 1234 2150 1697 2047 
L 1894 2003 
Q 2506 1872 2764 1633 
Q 3022 1394 3022 966 
Q 3022 478 2636 193 
Q 2250 -91 1575 -91 
Q 1294 -91 989 -36 
Q 684 19 347 128 
L 347 722 
Q 666 556 975 473 
Q 1284 391 1588 391 
Q 1994 391 2212 530 
Q 2431 669 2431 922 
Q 2431 1156 2273 1281 
Q 2116 1406 1581 1522 
L 1381 1569 
Q 847 1681 609 1914 
Q 372 2147 372 2553 
Q 372 3047 722 3315 
Q 1072 3584 1716 3584 
Q 2034 3584 2315 3537 
Q 2597 3491 2834 3397 
z
" transform="scale(0.015625)"/>
       <path id="DejaVuSans-69" d="M 603 3500 
L 1178 3500 
L 1178 0 
L 603 0 
L 603 3500 
z
M 603 4863 
L 1178 4863 
L 1178 4134 
L 603 4134 
L 603 4863 
z
" transform="scale(0.015625)"/>
       <path id="DejaVuSans-74" d="M 1172 4494 
L 1172 3500 
L 2356 3500 
L 2356 3053 
L 1172 3053 
L 1172 1153 
Q 1172 725 1289 603 
Q 1406 481 1766 481 
L 2356 481 
L 2356 0 
L 1766 0 
Q 1100 0 847 248 
Q 594 497 594 1153 
L 594 3053 
L 172 3053 
L 172 3500 
L 594 3500 
L 594 4494 
L 1172 4494 
z
" transform="scale(0.015625)"/>
       <path id="DejaVuSans-6e" d="M 3513 2113 
L 3513 0 
L 2938 0 
L 2938 2094 
Q 2938 2591 2744 2837 
Q 2550 3084 2163 3084 
Q 1697 3084 1428 2787 
Q 1159 2491 1159 1978 
L 1159 0 
L 581 0 
L 581 3500 
L 1159 3500 
L 1159 2956 
Q 1366 3272 1645 3428 
Q 1925 3584 2291 3584 
Q 2894 3584 3203 3211 
Q 3513 2838 3513 2113 
z
" transform="scale(0.015625)"/>
       <path id="DejaVuSans-20" transform="scale(0.015625)"/>
       <path id="DejaVuSans-45" d="M 628 4666 
L 3578 4666 
L 3578 4134 
L 1259 4134 
L 1259 2753 
L 3481 2753 
L 3481 2222 
L 1259 2222 
L 1259 531 
L 3634 531 
L 3634 0 
L 628 0 
L 628 4666 
z
" transform="scale(0.015625)"/>
       <path id="DejaVuSans-72" d="M 2631 2963 
Q 2534 3019 2420 3045 
Q 2306 3072 2169 3072 
Q 1681 3072 1420 2755 
Q 1159 2438 1159 1844 
L 1159 0 
L 581 0 
L 581 3500 
L 1159 3500 
L 1159 2956 
Q 1341 3275 1631 3429 
Q 1922 3584 2338 3584 
Q 2397 3584 2469 3576 
Q 2541 3569 2628 3553 
L 2631 2963 
z
" transform="scale(0.015625)"/>
       <path id="DejaVuSans-5b" d="M 550 4863 
L 1875 4863 
L 1875 4416 
L 1125 4416 
L 1125 -397 
L 1875 -397 
L 1875 -844 
L 550 -844 
L 550 4863 
z
" transform="scale(0.015625)"/>
       <path id="DejaVuSans-6d" d="M 3328 2828 
Q 3544 3216 3844 3400 
Q 4144 3584 4550 3584 
Q 5097 3584 5394 3201 
Q 5691 2819 5691 2113 
L 5691 0 
L 5113 0 
L 5113 2094 
Q 5113 2597 4934 2840 
Q 4756 3084 4391 3084 
Q 3944 3084 3684 2787 
Q 3425 2491 3425 1978 
L 3425 0 
L 2847 0 
L 2847 2094 
Q 2847 2600 2669 2842 
Q 2491 3084 2119 3084 
Q 1678 3084 1418 2786 
Q 1159 2488 1159 1978 
L 1159 0 
L 581 0 
L 581 3500 
L 1159 3500 
L 1159 2956 
Q 1356 3278 1631 3431 
Q 1906 3584 2284 3584 
Q 2666 3584 2933 3390 
Q 3200 3197 3328 2828 
z
" transform="scale(0.015625)"/>
       <path id="DejaVuSans-5d" d="M 1947 4863 
L 1947 -844 
L 622 -844 
L 622 -397 
L 1369 -397 
L 1369 4416 
L 622 4416 
L 622 4863 
L 1947 4863 
z
" transform="scale(0.015625)"/>
      </defs>
      <use xlink:href="#DejaVuSans-50"/>
      <use xlink:href="#DejaVuSans-6f" transform="translate(56.677734 0)"/>
      <use xlink:href="#DejaVuSans-73" transform="translate(117.859375 0)"/>
      <use xlink:href="#DejaVuSans-69" transform="translate(169.958984 0)"/>
      <use xlink:href="#DejaVuSans-74" transform="translate(197.742188 0)"/>
      <use xlink:href="#DejaVuSans-69" transform="translate(236.951172 0)"/>
      <use xlink:href="#DejaVuSans-6f" transform="translate(264.734375 0)"/>
      <use xlink:href="#DejaVuSans-6e" transform="translate(325.916016 0)"/>
      <use xlink:href="#DejaVuSans-20" transform="translate(389.294922 0)"/>
      <use xlink:href="#DejaVuSans-45" transform="translate(421.082031 0)"/>
      <use xlink:href="#DejaVuSans-72" transform="translate(484.265625 0)"/>
      <use xlink:href="#DejaVuSans-72" transform="translate(523.628906 0)"/>
      <use xlink:href="#DejaVuSans-6f" transform="translate(562.492188 0)"/>
      <use xlink:href="#DejaVuSans-72" transform="translate(623.673828 0)"/>
      <use xlink:href="#DejaVuSans-20" transform="translate(664.787109 0)"/>
      <use xlink:href="#DejaVuSans-5b" transform="translate(696.574219 0)"/>
      <use xlink:href="#DejaVuSans-6d" transform="translate(735.587891 0)"/>
      <use xlink:href="#DejaVuSans-5d" transform="translate(833 0)"/>
     </g>
    </g>
   </g>
   <g id="line2d_15">
    <path d="M 68.242287 182.910703 
L 70.356677 128.337291 
L 70.591609 146.663754 
L 70.826542 99.07312 
L 71.296406 132.238721 
L 72.001203 150.651461 
L 73.645729 92.645522 
L 73.880661 93.102808 
L 74.350525 87.39622 
L 74.82039 106.92991 
L 75.525187 109.166095 
L 75.995051 71.262425 
L 76.229983 77.017093 
L 76.464915 41.493399 
L 76.93478 80.371058 
L 77.169712 51.967778 
L 77.639577 66.760145 
L 78.109441 62.452143 
L 78.579306 29.965391 
L 79.04917 32.919741 
L 80.458764 91.249356 
L 80.693696 101.506266 
L 81.16356 86.010845 
L 81.398493 87.329972 
L 82.338222 64.583608 
L 82.808086 66.772019 
L 83.982747 96.582738 
L 84.21768 68.592379 
L 84.922476 84.889988 
L 85.392341 118.599769 
L 86.097137 114.808521 
L 87.506731 80.93914 
L 87.741663 77.30297 
L 88.681392 104.286779 
L 88.916324 103.420202 
L 89.856053 91.404247 
L 90.325918 112.653288 
L 91.030715 110.420023 
L 91.970444 137.71548 
L 92.440308 130.108979 
L 93.614969 153.372762 
L 94.084834 147.673628 
L 94.789631 139.464439 
L 94.554698 150.932029 
L 95.024563 144.895092 
L 95.494427 165.577005 
L 96.199224 150.92022 
L 96.434156 150.248567 
L 96.669088 139.312003 
L 97.138953 147.906005 
L 97.608817 164.453288 
L 98.313614 160.140364 
L 98.548546 160.65064 
L 99.488275 127.347089 
L 99.95814 131.313818 
L 100.193072 133.362315 
L 100.428004 115.92407 
L 100.897869 120.485911 
L 102.307462 180.48592 
L 102.542395 179.711508 
L 102.777327 179.79651 
L 104.421853 158.025054 
L 104.656785 166.830856 
L 105.126649 159.850662 
L 105.831446 138.64434 
L 106.301311 147.925011 
L 106.536243 148.981699 
L 106.771175 157.205489 
L 107.241039 144.378311 
L 108.180768 109.429089 
L 108.650633 117.619029 
L 108.885565 117.92927 
L 109.120497 105.466792 
L 109.35543 131.725965 
L 109.825294 117.10987 
L 112.409549 180.197336 
L 113.114346 182.071799 
L 113.58421 167.963857 
L 114.289007 141.568268 
L 114.523939 156.1144 
L 114.993804 166.758904 
L 115.463668 158.344964 
L 115.6986 148.162402 
L 116.403397 156.252032 
L 116.638329 168.760402 
L 117.343126 160.635342 
L 117.578058 163.230769 
L 117.81299 158.814884 
L 118.047923 162.074402 
L 118.752719 139.085555 
L 118.987652 141.897307 
L 120.162313 169.814396 
L 120.397245 172.932735 
L 120.632177 165.174186 
L 120.86711 163.765554 
L 121.571906 150.290279 
L 121.806839 166.335166 
L 122.276703 177.281416 
L 122.9815 176.489988 
L 123.216432 182.199229 
L 123.451364 175.936068 
L 123.686297 176.392126 
L 124.626026 143.63428 
L 124.860958 143.852749 
L 126.270551 181.171792 
L 127.21028 169.667801 
L 127.680145 172.226346 
L 127.915077 174.048196 
L 128.150009 171.167812 
L 128.619874 134.656168 
L 129.559603 139.904337 
L 130.734264 153.03357 
L 130.969196 144.824169 
L 131.439061 160.129328 
L 131.673993 161.707762 
L 131.908925 155.754408 
L 132.143857 161.78444 
L 132.37879 160.905046 
L 132.848654 164.959038 
L 133.083586 144.417321 
L 133.788383 153.484481 
L 134.728112 182.516014 
L 135.432909 179.799408 
L 136.137706 163.109436 
L 136.372638 168.795175 
L 137.547299 182.795388 
L 138.017163 180.077169 
L 138.956892 167.442579 
L 139.661689 179.140293 
L 139.426757 167.213988 
L 140.131554 177.132181 
L 141.071283 152.201919 
L 141.306215 163.361781 
L 141.776079 175.475335 
L 142.480876 169.215088 
L 142.715808 170.028637 
L 143.420605 179.552476 
L 143.655537 176.752693 
L 144.125402 157.032389 
L 144.595266 176.918508 
L 145.065131 167.703814 
L 145.300063 176.828617 
L 145.769928 175.836093 
L 147.414453 121.483254 
L 147.649386 127.902084 
L 147.884318 117.47056 
L 148.354182 125.575948 
L 149.293911 113.246563 
L 149.528843 117.689 
L 150.468572 131.470926 
L 150.703505 124.563685 
L 153.052827 149.020901 
L 153.522692 138.28232 
L 153.757624 141.487824 
L 153.992556 153.776993 
L 154.462421 132.586465 
L 154.932285 129.476582 
L 155.167217 130.514136 
L 155.637082 148.195994 
L 156.106946 132.290162 
L 157.046675 133.556331 
L 157.281608 112.683046 
L 157.51654 122.041892 
L 157.986404 108.511394 
L 158.221337 102.43149 
L 158.691201 112.631254 
L 158.926133 107.242815 
L 159.161065 117.79403 
L 160.100794 116.310789 
L 161.510388 128.185851 
L 161.980252 124.446147 
L 162.919981 122.367195 
L 163.85971 141.532083 
L 164.564507 165.939608 
L 165.034372 158.782466 
L 165.269304 147.599695 
L 165.974101 157.371942 
L 166.209033 154.137636 
L 166.443965 161.331066 
L 167.148762 181.287629 
L 167.618626 180.271403 
L 170.907678 108.618223 
L 171.14261 109.549754 
L 171.612474 120.877183 
L 172.317271 116.969096 
L 173.022068 105.842359 
L 173.491932 133.826682 
L 174.196729 124.687803 
L 175.37139 89.119956 
L 175.606323 97.686747 
L 176.311119 110.780951 
L 177.250848 146.9853 
L 177.485781 140.599825 
L 179.365238 112.058383 
L 180.774832 134.206611 
L 181.009764 129.836018 
L 181.244696 139.608064 
L 181.714561 133.440571 
L 182.184425 133.234964 
L 182.889222 141.435829 
L 183.124154 141.527994 
L 183.359087 138.669429 
L 184.76868 173.224023 
L 185.003612 172.568075 
L 185.238545 182.217136 
L 185.473477 169.528519 
L 185.943341 176.747745 
L 186.88307 151.97653 
L 187.822799 155.98074 
L 189.232393 181.694123 
L 189.702257 180.459462 
L 191.346783 146.574431 
L 191.581715 142.864563 
L 191.816647 146.719965 
L 192.05158 144.554487 
L 192.756376 169.96254 
L 193.226241 163.584577 
L 193.461173 158.793068 
L 193.931038 168.446759 
L 194.16597 175.44718 
L 194.400902 158.932965 
L 194.635834 144.045497 
L 195.340631 156.916571 
L 195.575563 161.885115 
L 195.810496 145.900765 
L 196.045428 141.088494 
L 196.28036 153.064015 
L 196.750225 156.372269 
L 196.985157 152.986606 
L 197.220089 147.197006 
L 197.455021 165.411531 
L 198.159818 175.24226 
L 198.39475 175.004702 
L 199.804344 135.461573 
L 200.50914 162.653918 
L 200.979005 158.901698 
L 201.448869 143.059322 
L 202.153666 153.468724 
L 202.623531 153.916189 
L 202.858463 148.489477 
L 203.093395 161.918975 
L 203.56326 164.994265 
L 203.798192 164.251362 
L 204.268056 179.803826 
L 204.737921 169.966377 
L 206.147514 123.507496 
L 207.322176 133.818802 
L 207.557108 132.933749 
L 207.79204 142.53829 
L 208.261905 129.760954 
L 208.496837 125.096303 
L 208.731769 137.604465 
L 209.671498 158.047904 
L 209.90643 152.32288 
L 210.141362 141.208848 
L 210.611227 159.753838 
L 210.846159 160.90854 
L 211.081091 159.280197 
L 212.255753 180.220824 
L 212.490685 181.249099 
L 212.725617 179.844421 
L 214.605075 150.578244 
L 214.840007 163.007169 
L 215.544804 149.316185 
L 215.779736 155.225123 
L 216.249601 146.654655 
L 217.18933 142.876249 
L 217.894127 174.943518 
L 218.363991 159.241629 
L 218.598923 158.449293 
L 218.833856 159.419752 
L 220.008517 174.483155 
L 220.243449 171.618415 
L 220.948246 157.879011 
L 221.41811 164.237673 
L 222.592771 179.84465 
L 223.297568 182.047826 
L 224.002365 161.37608 
L 224.472229 167.938545 
L 224.707162 163.752286 
L 226.116755 133.578116 
L 226.58662 126.407393 
L 227.056484 128.574109 
L 227.291416 143.237917 
L 227.761281 117.316864 
L 227.996213 111.113466 
L 228.466078 114.15715 
L 230.345536 154.785781 
L 230.580468 154.902511 
L 231.520197 154.269667 
L 232.92979 182.287644 
L 234.104451 147.392653 
L 234.339384 151.615515 
L 235.514045 178.691694 
L 236.218842 164.389466 
L 236.453774 172.903474 
L 237.863367 182.674392 
L 238.568164 162.950611 
L 239.272961 163.983022 
L 239.507893 173.220189 
L 239.977758 154.968863 
L 240.21269 152.733949 
L 240.447622 154.461369 
L 240.682554 160.41432 
L 240.917487 146.920507 
L 241.152419 150.655196 
L 241.387351 143.427852 
L 241.857215 157.403278 
L 242.796944 156.436906 
L 244.206538 178.041058 
L 244.911335 165.83709 
L 245.146267 170.484344 
L 245.616131 171.510833 
L 246.085996 153.669248 
L 247.025725 153.837191 
L 247.260657 160.137683 
L 247.965454 156.310877 
L 248.435318 142.394418 
L 249.140115 145.306416 
L 250.549709 166.772343 
L 251.019573 157.161388 
L 251.254505 166.504468 
L 251.489437 172.853101 
L 251.72437 167.308786 
L 252.194234 152.092794 
L 252.664099 169.986479 
L 253.603828 159.837175 
L 253.83876 160.589867 
L 254.778489 178.796868 
L 255.013421 177.382976 
L 256.188082 152.552356 
L 255.483286 180.257459 
L 256.423015 159.316469 
L 256.892879 182.307193 
L 257.832608 179.159229 
L 259.007269 162.615448 
L 258.302473 182.841135 
L 259.242202 172.034965 
L 260.181931 163.41726 
L 260.416863 171.789361 
L 260.651795 158.94578 
L 262.061388 133.400714 
L 262.296321 146.370758 
L 262.531253 132.452604 
L 263.001117 141.673447 
L 263.470982 130.399397 
L 263.940846 132.112536 
L 264.410711 139.109133 
L 264.645643 132.53279 
L 264.880575 124.340064 
L 265.35044 133.536786 
L 265.585372 126.473272 
L 266.760033 182.456303 
L 266.994966 180.989217 
L 268.639491 156.260097 
L 269.109356 176.924785 
L 270.049085 174.009331 
L 270.518949 170.946046 
L 270.988814 179.276648 
L 271.223746 169.234569 
L 271.458678 169.743982 
L 271.928543 182.547425 
L 272.398407 168.055145 
L 273.808001 141.649073 
L 274.74773 156.110146 
L 274.982662 149.100085 
L 275.452526 159.885672 
L 275.687459 179.912637 
L 276.392255 171.150305 
L 276.86212 162.914036 
L 277.331984 165.632035 
L 277.566917 155.646641 
L 278.271713 165.675528 
L 278.97651 161.108296 
L 278.741578 166.703532 
L 279.446375 161.262904 
L 279.916239 174.617197 
L 280.621036 172.556156 
L 281.0909 162.605708 
L 281.325833 172.978405 
L 281.560765 181.714089 
L 281.795697 163.234275 
L 282.030629 161.936539 
L 282.500494 150.523679 
L 282.735426 164.670657 
L 282.970358 167.883984 
L 283.20529 165.841293 
L 284.379952 149.50447 
L 284.614884 150.85234 
L 285.789545 163.822082 
L 287.199139 130.651777 
L 287.669003 133.846178 
L 288.843664 124.037804 
L 289.313529 166.306959 
L 290.018326 158.298531 
L 290.253258 156.440029 
L 291.427919 175.120173 
L 291.662851 175.016184 
L 291.897784 170.913849 
L 292.132716 178.585804 
L 292.60258 174.424045 
L 292.837512 182.778491 
L 293.542309 182.118097 
L 294.012174 169.398022 
L 294.247106 182.381523 
L 294.482038 178.744133 
L 294.71697 181.67191 
L 294.951903 176.244757 
L 295.656699 179.94896 
L 296.831361 159.062041 
L 297.77109 148.717442 
L 298.240954 155.381355 
L 300.590277 182.451737 
L 298.710819 154.363398 
L 300.825209 174.406301 
L 301.295073 175.132352 
L 301.764938 162.594926 
L 302.469735 165.889602 
L 303.409463 177.980238 
L 303.879328 177.023985 
L 306.22865 130.598286 
L 306.933447 146.028509 
L 307.638244 173.166602 
L 307.873176 167.890881 
L 308.577973 141.793326 
L 309.047837 147.770616 
L 309.517702 144.890241 
L 309.987566 133.36763 
L 310.222499 146.650792 
L 310.457431 147.037777 
L 311.632092 178.754189 
L 311.867024 173.877279 
L 312.336889 159.125126 
L 313.041686 163.323853 
L 313.981414 136.53489 
L 314.216347 153.397444 
L 314.686211 143.513436 
L 314.921143 139.179483 
L 315.156076 140.013741 
L 315.860872 154.013324 
L 316.330737 147.515733 
L 316.800601 143.572083 
L 317.975263 153.985159 
L 318.210195 154.698025 
L 318.680059 154.890995 
L 319.854721 128.343951 
L 320.559517 138.686355 
L 320.79445 138.606651 
L 321.734179 139.816278 
L 322.204043 126.484088 
L 323.143772 162.19335 
L 323.848569 151.213259 
L 325.02323 132.736732 
L 325.258162 150.460389 
L 325.962959 132.312761 
L 326.432823 125.479327 
L 326.667756 139.060882 
L 328.077349 169.528644 
L 329.017078 173.855222 
L 329.25201 172.331707 
L 329.721875 175.586293 
L 329.956807 182.157782 
L 330.426672 180.259922 
L 331.601333 162.19122 
L 331.836265 173.141755 
L 332.541062 160.644583 
L 333.010926 147.302943 
L 333.715723 154.818556 
L 334.42052 172.799613 
L 334.890384 162.558626 
L 335.125316 139.499951 
L 335.830113 152.440987 
L 337.004774 160.080163 
L 337.474639 173.837647 
L 337.944503 159.320039 
L 338.179436 158.036814 
L 339.119165 181.027181 
L 339.354097 172.901877 
L 340.058894 168.632389 
L 341.703419 152.17466 
L 341.938352 156.547247 
L 342.408216 148.080442 
L 342.878081 136.340343 
L 343.347945 148.396194 
L 344.757538 113.104378 
L 345.9322 97.970751 
L 346.636996 90.962463 
L 347.341793 100.531849 
L 347.811658 81.742977 
L 348.281522 92.334813 
L 350.395912 139.124495 
L 350.865777 138.769752 
L 351.100709 134.337872 
L 351.570574 138.094754 
L 352.27537 152.796664 
L 352.510303 151.810747 
L 352.980167 139.221162 
L 353.215099 158.386822 
L 353.450032 162.093534 
L 353.919896 157.144874 
L 354.154828 158.612634 
L 355.094557 168.652808 
L 355.329489 164.281015 
L 355.564422 154.057237 
L 356.034286 163.573364 
L 356.739083 182.166505 
L 356.974015 181.064809 
L 357.44388 154.082087 
L 357.913744 169.568789 
L 358.853473 154.830874 
L 360.028134 181.584416 
L 361.437728 162.748133 
L 361.67266 171.908616 
L 362.377457 162.490981 
L 362.847321 181.860009 
L 363.317186 177.358639 
L 364.491847 155.471785 
L 364.961712 154.598599 
L 365.196644 159.644467 
L 365.666508 172.455488 
L 365.90144 171.560658 
L 366.606237 133.011039 
L 367.311034 135.876893 
L 368.720627 163.487719 
L 369.425424 159.661432 
L 369.660356 153.436223 
L 370.130221 164.606264 
L 371.539814 181.788031 
L 371.774747 180.404231 
L 373.18434 120.968253 
L 373.654205 124.365671 
L 373.889137 115.09664 
L 374.593934 125.215834 
L 374.828866 123.106044 
L 375.29873 108.821961 
L 375.768595 108.852135 
L 376.943256 130.065512 
L 378.352849 101.921335 
L 378.587782 104.091888 
L 379.292578 105.701882 
L 379.527511 100.904626 
L 380.46724 135.701069 
L 380.702172 126.087303 
L 382.816562 97.664227 
L 384.461088 119.767734 
L 384.69602 112.989462 
L 384.930952 125.346872 
L 385.165885 116.935176 
L 385.400817 125.604099 
L 385.870681 110.231058 
L 386.575478 107.850815 
L 388.220004 141.844945 
L 388.454936 138.827443 
L 388.689868 133.557045 
L 388.9248 147.507905 
L 389.629597 154.649688 
L 389.864529 146.201421 
L 390.569326 132.143478 
L 391.743987 132.625756 
L 392.683716 167.937027 
L 393.153581 157.781192 
L 394.563174 136.920428 
L 395.737836 147.875453 
L 396.677564 114.498923 
L 396.912497 119.313906 
L 397.617293 120.891542 
L 398.32209 103.347586 
L 398.791955 101.82242 
L 399.026887 109.619873 
L 399.731684 96.980751 
L 399.966616 100.068977 
L 401.141277 117.810802 
L 401.376209 114.965279 
L 402.081006 89.829509 
L 402.785803 95.912479 
L 404.430329 157.957797 
L 404.665261 153.717976 
L 404.900193 153.769725 
L 406.309787 182.458571 
L 406.544719 174.693992 
L 407.249515 174.748138 
L 407.71938 173.658884 
L 407.954312 181.70278 
L 409.598838 146.603379 
L 410.538567 160.269694 
L 410.773499 154.990179 
L 411.713228 121.035697 
L 411.94816 134.35451 
L 412.183093 141.955745 
L 412.418025 135.280247 
L 412.652957 116.418312 
L 413.357754 133.086523 
L 413.592686 132.62348 
L 413.827618 134.269827 
L 415.00228 140.782425 
L 416.646805 173.548923 
L 417.586534 156.072106 
L 418.056399 164.627391 
L 418.291331 167.047167 
L 418.526263 163.161407 
L 419.23106 137.205176 
L 419.700924 146.153169 
L 420.640653 157.387102 
L 420.875586 150.374735 
L 421.34545 166.167343 
L 422.050247 176.523269 
L 422.520111 174.372566 
L 423.224908 146.727751 
L 423.929705 161.987422 
L 424.164637 169.940824 
L 424.399569 152.856989 
L 424.869434 168.579102 
L 425.339298 156.943056 
L 425.574231 168.075893 
L 426.279027 182.704753 
L 426.51396 174.667191 
L 427.218756 163.218683 
L 427.453688 175.697582 
L 427.688621 181.392656 
L 428.158485 180.445477 
L 429.333146 159.138421 
L 430.037943 147.402729 
L 430.74274 150.601234 
L 431.212604 182.606213 
L 432.152333 177.730593 
L 432.387266 170.92102 
L 432.85713 180.687541 
L 433.092062 177.28603 
L 433.326995 176.841606 
L 434.97152 150.465962 
L 435.441385 150.90945 
L 435.911249 139.748224 
L 436.381114 143.002628 
L 437.085911 159.370104 
L 437.320843 149.483485 
L 437.555775 145.867322 
L 438.025639 151.375473 
L 438.965368 172.952082 
L 439.435233 167.390127 
L 439.670165 167.66887 
L 440.14003 156.055897 
L 440.374962 161.774353 
L 440.844826 176.029562 
L 441.079759 163.317407 
L 441.549623 142.014146 
L 442.25442 146.422605 
L 442.489352 144.087336 
L 442.724284 151.119569 
L 442.959217 147.135522 
L 444.36881 164.73046 
L 445.308539 148.304155 
L 445.543471 149.21947 
L 445.778404 148.628503 
L 446.013336 148.78516 
L 446.248268 161.268445 
L 446.953065 157.04779 
L 447.187997 141.011107 
L 447.892794 154.793251 
L 448.127726 158.80908 
L 449.302387 140.208205 
L 449.772252 136.310171 
L 450.477048 145.689735 
L 450.711981 143.445514 
L 450.946913 148.546573 
L 451.181845 150.675773 
L 451.65171 168.223837 
L 452.121574 153.303886 
L 452.356506 157.627186 
L 452.591439 156.12669 
L 453.061303 140.109826 
L 453.531168 158.001923 
L 453.7661 171.707072 
L 454.470897 161.392057 
L 454.705829 163.124893 
L 455.175693 148.334235 
L 455.645558 156.407161 
L 455.88049 163.125557 
L 456.115422 154.068413 
L 456.350355 155.502835 
L 456.585287 147.535131 
L 457.055151 164.740388 
L 457.290084 160.903127 
L 457.525016 162.265439 
L 457.99488 178.181213 
L 458.464745 169.421452 
L 458.699677 158.441233 
L 459.169541 174.831467 
L 459.404474 181.522601 
L 459.639406 167.907894 
L 459.874338 172.071955 
L 460.814067 141.611569 
L 461.753796 146.616068 
L 462.223661 157.426536 
L 462.693525 148.556217 
L 463.16339 144.516344 
L 463.868186 159.729995 
L 464.103119 146.640485 
L 464.338051 146.641064 
L 464.807915 151.623525 
L 465.27778 164.56441 
L 465.747644 153.626259 
L 466.452441 121.779451 
L 467.39217 136.73669 
L 468.801763 162.183969 
L 469.50656 145.351905 
L 469.976425 156.893205 
L 471.151086 171.960319 
L 471.62095 149.538666 
L 472.325747 156.455683 
L 472.560679 162.115382 
L 473.030544 150.975715 
L 473.735341 132.297322 
L 473.970273 140.212757 
L 474.910002 179.018277 
L 475.614799 168.88942 
L 476.554528 144.63712 
L 477.024392 146.920186 
L 478.433986 182.865729 
L 479.138782 175.661258 
L 479.843579 149.197576 
L 481.01824 157.736235 
L 481.253172 165.261716 
L 481.723037 148.591667 
L 481.957969 146.39267 
L 483.367563 181.423678 
L 483.837427 182.697357 
L 485.012088 168.496371 
L 485.247021 174.420554 
L 485.481953 161.628274 
L 485.716885 156.68772 
L 486.18675 161.285605 
L 487.361411 180.219546 
L 487.596343 178.862648 
L 488.066208 181.485295 
L 488.30114 182.415016 
L 488.536072 180.776174 
L 488.771004 181.513839 
L 489.240869 168.608409 
L 489.475801 181.869091 
L 489.710733 180.036763 
L 489.945665 180.48469 
L 490.180598 169.762185 
L 490.650462 182.1329 
L 490.885394 180.26003 
L 492.060056 177.623676 
L 492.52992 180.716793 
L 492.764852 172.530691 
L 492.999785 181.000973 
L 493.469649 179.289761 
L 493.704581 182.442432 
L 494.174446 178.036601 
L 494.409378 180.902737 
L 494.64431 174.854241 
L 494.879243 182.839309 
L 495.349107 177.539171 
L 496.288836 182.371393 
L 496.523768 171.639471 
L 497.463497 174.258556 
L 498.403226 181.614375 
L 497.933362 171.743221 
L 498.638159 179.521334 
L 498.873091 181.200843 
L 499.108023 179.205321 
L 499.577887 170.878644 
L 499.81282 182.139977 
L 500.047752 176.635366 
L 500.282684 181.602272 
L 500.517616 169.915663 
L 501.692278 144.091995 
L 500.987481 176.466438 
L 501.92721 149.665005 
L 502.397074 173.945215 
L 502.866939 166.749293 
L 503.101871 152.730213 
L 503.806668 163.739072 
L 505.451194 128.850735 
L 505.686126 141.787712 
L 506.15599 146.866382 
L 507.095719 122.155158 
L 507.330652 123.853512 
L 507.800516 135.813655 
L 508.270381 131.675592 
L 509.445042 113.559687 
L 509.914906 119.784342 
L 510.854635 137.828854 
L 511.089567 132.206697 
L 512.264229 106.862486 
L 512.734093 106.482415 
L 513.673822 137.643784 
L 514.848483 111.492867 
L 516.023145 135.296541 
L 516.258077 135.272697 
L 516.962874 141.737272 
L 516.727941 134.462088 
L 517.197806 136.944265 
L 517.902603 139.075009 
L 518.137535 129.948924 
L 519.547128 171.565457 
L 519.782061 167.237111 
L 520.486857 182.726147 
L 520.721789 180.814857 
L 521.426586 166.102748 
L 521.896451 172.387459 
L 522.366315 182.415826 
L 522.83618 172.247735 
L 523.071112 180.502985 
L 523.306044 179.497641 
L 524.010841 157.389129 
L 524.95057 157.589611 
L 526.125231 178.170064 
L 526.360163 178.158156 
L 527.06496 169.105982 
L 527.299892 175.755915 
L 528.004689 182.614256 
L 528.239621 177.418455 
L 529.17935 164.915016 
L 529.414283 169.554215 
L 531.29374 133.145468 
L 531.763605 140.633667 
L 532.703334 161.654397 
L 532.938266 152.609134 
L 533.408131 157.985638 
L 534.817724 141.199251 
L 535.052656 139.476442 
L 535.992385 164.789931 
L 536.227318 161.994592 
L 537.401979 139.21523 
L 537.871843 142.907628 
L 538.106776 136.331196 
L 538.106776 136.331196 
" clip-path="url(#p1bf2ea4845)" style="fill: none; stroke: #e41a1c; stroke-width: 2; stroke-linecap: square"/>
   </g>
   <g id="patch_3">
    <path d="M 44.749063 190.557969 
L 44.749063 22.318125 
" style="fill: none; stroke: #7f7f7f; stroke-width: 1.8; stroke-linejoin: miter; stroke-linecap: square"/>
   </g>
   <g id="patch_4">
    <path d="M 44.749063 190.557969 
L 561.6 190.557969 
" style="fill: none; stroke: #7f7f7f; stroke-width: 1.8; stroke-linejoin: miter; stroke-linecap: square"/>
   </g>
   <g id="text_16">
    <!-- Kalman Filter Estimation Error -->
    <g style="fill: #7f7f7f" transform="translate(200.161094 16.318125) scale(0.12 -0.12)">
     <defs>
      <path id="DejaVuSans-Bold-4b" d="M 588 4666 
L 1791 4666 
L 1791 2963 
L 3525 4666 
L 4922 4666 
L 2675 2456 
L 5153 0 
L 3647 0 
L 1791 1838 
L 1791 0 
L 588 0 
L 588 4666 
z
" transform="scale(0.015625)"/>
      <path id="DejaVuSans-Bold-61" d="M 2106 1575 
Q 1756 1575 1579 1456 
Q 1403 1338 1403 1106 
Q 1403 894 1545 773 
Q 1688 653 1941 653 
Q 2256 653 2472 879 
Q 2688 1106 2688 1447 
L 2688 1575 
L 2106 1575 
z
M 3816 1997 
L 3816 0 
L 2688 0 
L 2688 519 
Q 2463 200 2181 54 
Q 1900 -91 1497 -91 
Q 953 -91 614 226 
Q 275 544 275 1050 
Q 275 1666 698 1953 
Q 1122 2241 2028 2241 
L 2688 2241 
L 2688 2328 
Q 2688 2594 2478 2717 
Q 2269 2841 1825 2841 
Q 1466 2841 1156 2769 
Q 847 2697 581 2553 
L 581 3406 
Q 941 3494 1303 3539 
Q 1666 3584 2028 3584 
Q 2975 3584 3395 3211 
Q 3816 2838 3816 1997 
z
" transform="scale(0.015625)"/>
      <path id="DejaVuSans-Bold-6c" d="M 538 4863 
L 1656 4863 
L 1656 0 
L 538 0 
L 538 4863 
z
" transform="scale(0.015625)"/>
      <path id="DejaVuSans-Bold-6d" d="M 3781 2919 
Q 3994 3244 4286 3414 
Q 4578 3584 4928 3584 
Q 5531 3584 5847 3212 
Q 6163 2841 6163 2131 
L 6163 0 
L 5038 0 
L 5038 1825 
Q 5041 1866 5042 1909 
Q 5044 1953 5044 2034 
Q 5044 2406 4934 2573 
Q 4825 2741 4581 2741 
Q 4263 2741 4089 2478 
Q 3916 2216 3909 1719 
L 3909 0 
L 2784 0 
L 2784 1825 
Q 2784 2406 2684 2573 
Q 2584 2741 2328 2741 
Q 2006 2741 1831 2477 
Q 1656 2213 1656 1722 
L 1656 0 
L 531 0 
L 531 3500 
L 1656 3500 
L 1656 2988 
Q 1863 3284 2130 3434 
Q 2397 3584 2719 3584 
Q 3081 3584 3359 3409 
Q 3638 3234 3781 2919 
z
" transform="scale(0.015625)"/>
      <path id="DejaVuSans-Bold-6e" d="M 4056 2131 
L 4056 0 
L 2931 0 
L 2931 347 
L 2931 1631 
Q 2931 2084 2911 2256 
Q 2891 2428 2841 2509 
Q 2775 2619 2662 2680 
Q 2550 2741 2406 2741 
Q 2056 2741 1856 2470 
Q 1656 2200 1656 1722 
L 1656 0 
L 538 0 
L 538 3500 
L 1656 3500 
L 1656 2988 
Q 1909 3294 2193 3439 
Q 2478 3584 2822 3584 
Q 3428 3584 3742 3212 
Q 4056 2841 4056 2131 
z
" transform="scale(0.015625)"/>
      <path id="DejaVuSans-Bold-20" transform="scale(0.015625)"/>
      <path id="DejaVuSans-Bold-46" d="M 588 4666 
L 3834 4666 
L 3834 3756 
L 1791 3756 
L 1791 2888 
L 3713 2888 
L 3713 1978 
L 1791 1978 
L 1791 0 
L 588 0 
L 588 4666 
z
" transform="scale(0.015625)"/>
      <path id="DejaVuSans-Bold-69" d="M 538 3500 
L 1656 3500 
L 1656 0 
L 538 0 
L 538 3500 
z
M 538 4863 
L 1656 4863 
L 1656 3950 
L 538 3950 
L 538 4863 
z
" transform="scale(0.015625)"/>
      <path id="DejaVuSans-Bold-74" d="M 1759 4494 
L 1759 3500 
L 2913 3500 
L 2913 2700 
L 1759 2700 
L 1759 1216 
Q 1759 972 1856 886 
Q 1953 800 2241 800 
L 2816 800 
L 2816 0 
L 1856 0 
Q 1194 0 917 276 
Q 641 553 641 1216 
L 641 2700 
L 84 2700 
L 84 3500 
L 641 3500 
L 641 4494 
L 1759 4494 
z
" transform="scale(0.015625)"/>
      <path id="DejaVuSans-Bold-65" d="M 4031 1759 
L 4031 1441 
L 1416 1441 
Q 1456 1047 1700 850 
Q 1944 653 2381 653 
Q 2734 653 3104 758 
Q 3475 863 3866 1075 
L 3866 213 
Q 3469 63 3072 -14 
Q 2675 -91 2278 -91 
Q 1328 -91 801 392 
Q 275 875 275 1747 
Q 275 2603 792 3093 
Q 1309 3584 2216 3584 
Q 3041 3584 3536 3087 
Q 4031 2591 4031 1759 
z
M 2881 2131 
Q 2881 2450 2695 2645 
Q 2509 2841 2209 2841 
Q 1884 2841 1681 2658 
Q 1478 2475 1428 2131 
L 2881 2131 
z
" transform="scale(0.015625)"/>
      <path id="DejaVuSans-Bold-72" d="M 3138 2547 
Q 2991 2616 2845 2648 
Q 2700 2681 2553 2681 
Q 2122 2681 1889 2404 
Q 1656 2128 1656 1613 
L 1656 0 
L 538 0 
L 538 3500 
L 1656 3500 
L 1656 2925 
Q 1872 3269 2151 3426 
Q 2431 3584 2822 3584 
Q 2878 3584 2943 3579 
Q 3009 3575 3134 3559 
L 3138 2547 
z
" transform="scale(0.015625)"/>
      <path id="DejaVuSans-Bold-45" d="M 588 4666 
L 3834 4666 
L 3834 3756 
L 1791 3756 
L 1791 2888 
L 3713 2888 
L 3713 1978 
L 1791 1978 
L 1791 909 
L 3903 909 
L 3903 0 
L 588 0 
L 588 4666 
z
" transform="scale(0.015625)"/>
      <path id="DejaVuSans-Bold-73" d="M 3272 3391 
L 3272 2541 
Q 2913 2691 2578 2766 
Q 2244 2841 1947 2841 
Q 1628 2841 1473 2761 
Q 1319 2681 1319 2516 
Q 1319 2381 1436 2309 
Q 1553 2238 1856 2203 
L 2053 2175 
Q 2913 2066 3209 1816 
Q 3506 1566 3506 1031 
Q 3506 472 3093 190 
Q 2681 -91 1863 -91 
Q 1516 -91 1145 -36 
Q 775 19 384 128 
L 384 978 
Q 719 816 1070 734 
Q 1422 653 1784 653 
Q 2113 653 2278 743 
Q 2444 834 2444 1013 
Q 2444 1163 2330 1236 
Q 2216 1309 1875 1350 
L 1678 1375 
Q 931 1469 631 1722 
Q 331 1975 331 2491 
Q 331 3047 712 3315 
Q 1094 3584 1881 3584 
Q 2191 3584 2531 3537 
Q 2872 3491 3272 3391 
z
" transform="scale(0.015625)"/>
      <path id="DejaVuSans-Bold-6f" d="M 2203 2784 
Q 1831 2784 1636 2517 
Q 1441 2250 1441 1747 
Q 1441 1244 1636 976 
Q 1831 709 2203 709 
Q 2569 709 2762 976 
Q 2956 1244 2956 1747 
Q 2956 2250 2762 2517 
Q 2569 2784 2203 2784 
z
M 2203 3584 
Q 3106 3584 3614 3096 
Q 4122 2609 4122 1747 
Q 4122 884 3614 396 
Q 3106 -91 2203 -91 
Q 1297 -91 786 396 
Q 275 884 275 1747 
Q 275 2609 786 3096 
Q 1297 3584 2203 3584 
z
" transform="scale(0.015625)"/>
     </defs>
     <use xlink:href="#DejaVuSans-Bold-4b"/>
     <use xlink:href="#DejaVuSans-Bold-61" transform="translate(77.490234 0)"/>
     <use xlink:href="#DejaVuSans-Bold-6c" transform="translate(144.970703 0)"/>
     <use xlink:href="#DejaVuSans-Bold-6d" transform="translate(179.248047 0)"/>
     <use xlink:href="#DejaVuSans-Bold-61" transform="translate(283.447266 0)"/>
     <use xlink:href="#DejaVuSans-Bold-6e" transform="translate(350.927734 0)"/>
     <use xlink:href="#DejaVuSans-Bold-20" transform="translate(422.119141 0)"/>
     <use xlink:href="#DejaVuSans-Bold-46" transform="translate(456.933594 0)"/>
     <use xlink:href="#DejaVuSans-Bold-69" transform="translate(525.244141 0)"/>
     <use xlink:href="#DejaVuSans-Bold-6c" transform="translate(559.521484 0)"/>
     <use xlink:href="#DejaVuSans-Bold-74" transform="translate(593.798828 0)"/>
     <use xlink:href="#DejaVuSans-Bold-65" transform="translate(641.601562 0)"/>
     <use xlink:href="#DejaVuSans-Bold-72" transform="translate(709.423828 0)"/>
     <use xlink:href="#DejaVuSans-Bold-20" transform="translate(758.740234 0)"/>
     <use xlink:href="#DejaVuSans-Bold-45" transform="translate(793.554688 0)"/>
     <use xlink:href="#DejaVuSans-Bold-73" transform="translate(861.865234 0)"/>
     <use xlink:href="#DejaVuSans-Bold-74" transform="translate(921.386719 0)"/>
     <use xlink:href="#DejaVuSans-Bold-69" transform="translate(969.189453 0)"/>
     <use xlink:href="#DejaVuSans-Bold-6d" transform="translate(1003.466797 0)"/>
     <use xlink:href="#DejaVuSans-Bold-61" transform="translate(1107.666016 0)"/>
     <use xlink:href="#DejaVuSans-Bold-74" transform="translate(1175.146484 0)"/>
     <use xlink:href="#DejaVuSans-Bold-69" transform="translate(1222.949219 0)"/>
     <use xlink:href="#DejaVuSans-Bold-6f" transform="translate(1257.226562 0)"/>
     <use xlink:href="#DejaVuSans-Bold-6e" transform="translate(1325.927734 0)"/>
     <use xlink:href="#DejaVuSans-Bold-20" transform="translate(1397.119141 0)"/>
     <use xlink:href="#DejaVuSans-Bold-45" transform="translate(1431.933594 0)"/>
     <use xlink:href="#DejaVuSans-Bold-72" transform="translate(1500.244141 0)"/>
     <use xlink:href="#DejaVuSans-Bold-72" transform="translate(1549.560547 0)"/>
     <use xlink:href="#DejaVuSans-Bold-6f" transform="translate(1598.876953 0)"/>
     <use xlink:href="#DejaVuSans-Bold-72" transform="translate(1667.578125 0)"/>
    </g>
   </g>
  </g>
  <g id="axes_2">
   <g id="patch_5">
    <path d="M 44.749063 386.275937 
L 561.6 386.275937 
L 561.6 218.036094 
L 44.749063 218.036094 
L 44.749063 386.275937 
z
" style="fill: none"/>
   </g>
   <g id="matplotlib.axis_3">
    <g id="xtick_10">
     <g id="line2d_16">
      <g>
       <use xlink:href="#m836d6ddc3d" x="68.242287" y="386.275937" style="fill: #7f7f7f; stroke: #7f7f7f; stroke-width: 1.8"/>
      </g>
     </g>
     <g id="text_17">
      <!-- 0.0 -->
      <g style="fill: #7f7f7f" transform="translate(60.290724 400.874375) scale(0.1 -0.1)">
       <use xlink:href="#DejaVuSans-30"/>
       <use xlink:href="#DejaVuSans-2e" transform="translate(63.623047 0)"/>
       <use xlink:href="#DejaVuSans-30" transform="translate(95.410156 0)"/>
      </g>
     </g>
    </g>
    <g id="xtick_11">
     <g id="line2d_17">
      <g>
       <use xlink:href="#m836d6ddc3d" x="126.975348" y="386.275937" style="fill: #7f7f7f; stroke: #7f7f7f; stroke-width: 1.8"/>
      </g>
     </g>
     <g id="text_18">
      <!-- 2.5 -->
      <g style="fill: #7f7f7f" transform="translate(119.023786 400.874375) scale(0.1 -0.1)">
       <use xlink:href="#DejaVuSans-32"/>
       <use xlink:href="#DejaVuSans-2e" transform="translate(63.623047 0)"/>
       <use xlink:href="#DejaVuSans-35" transform="translate(95.410156 0)"/>
      </g>
     </g>
    </g>
    <g id="xtick_12">
     <g id="line2d_18">
      <g>
       <use xlink:href="#m836d6ddc3d" x="185.708409" y="386.275937" style="fill: #7f7f7f; stroke: #7f7f7f; stroke-width: 1.8"/>
      </g>
     </g>
     <g id="text_19">
      <!-- 5.0 -->
      <g style="fill: #7f7f7f" transform="translate(177.756847 400.874375) scale(0.1 -0.1)">
       <use xlink:href="#DejaVuSans-35"/>
       <use xlink:href="#DejaVuSans-2e" transform="translate(63.623047 0)"/>
       <use xlink:href="#DejaVuSans-30" transform="translate(95.410156 0)"/>
      </g>
     </g>
    </g>
    <g id="xtick_13">
     <g id="line2d_19">
      <g>
       <use xlink:href="#m836d6ddc3d" x="244.44147" y="386.275937" style="fill: #7f7f7f; stroke: #7f7f7f; stroke-width: 1.8"/>
      </g>
     </g>
     <g id="text_20">
      <!-- 7.5 -->
      <g style="fill: #7f7f7f" transform="translate(236.489908 400.874375) scale(0.1 -0.1)">
       <use xlink:href="#DejaVuSans-37"/>
       <use xlink:href="#DejaVuSans-2e" transform="translate(63.623047 0)"/>
       <use xlink:href="#DejaVuSans-35" transform="translate(95.410156 0)"/>
      </g>
     </g>
    </g>
    <g id="xtick_14">
     <g id="line2d_20">
      <g>
       <use xlink:href="#m836d6ddc3d" x="303.174531" y="386.275937" style="fill: #7f7f7f; stroke: #7f7f7f; stroke-width: 1.8"/>
      </g>
     </g>
     <g id="text_21">
      <!-- 10.0 -->
      <g style="fill: #7f7f7f" transform="translate(292.041719 400.874375) scale(0.1 -0.1)">
       <use xlink:href="#DejaVuSans-31"/>
       <use xlink:href="#DejaVuSans-30" transform="translate(63.623047 0)"/>
       <use xlink:href="#DejaVuSans-2e" transform="translate(127.246094 0)"/>
       <use xlink:href="#DejaVuSans-30" transform="translate(159.033203 0)"/>
      </g>
     </g>
    </g>
    <g id="xtick_15">
     <g id="line2d_21">
      <g>
       <use xlink:href="#m836d6ddc3d" x="361.907592" y="386.275937" style="fill: #7f7f7f; stroke: #7f7f7f; stroke-width: 1.8"/>
      </g>
     </g>
     <g id="text_22">
      <!-- 12.5 -->
      <g style="fill: #7f7f7f" transform="translate(350.77478 400.874375) scale(0.1 -0.1)">
       <use xlink:href="#DejaVuSans-31"/>
       <use xlink:href="#DejaVuSans-32" transform="translate(63.623047 0)"/>
       <use xlink:href="#DejaVuSans-2e" transform="translate(127.246094 0)"/>
       <use xlink:href="#DejaVuSans-35" transform="translate(159.033203 0)"/>
      </g>
     </g>
    </g>
    <g id="xtick_16">
     <g id="line2d_22">
      <g>
       <use xlink:href="#m836d6ddc3d" x="420.640653" y="386.275937" style="fill: #7f7f7f; stroke: #7f7f7f; stroke-width: 1.8"/>
      </g>
     </g>
     <g id="text_23">
      <!-- 15.0 -->
      <g style="fill: #7f7f7f" transform="translate(409.507841 400.874375) scale(0.1 -0.1)">
       <use xlink:href="#DejaVuSans-31"/>
       <use xlink:href="#DejaVuSans-35" transform="translate(63.623047 0)"/>
       <use xlink:href="#DejaVuSans-2e" transform="translate(127.246094 0)"/>
       <use xlink:href="#DejaVuSans-30" transform="translate(159.033203 0)"/>
      </g>
     </g>
    </g>
    <g id="xtick_17">
     <g id="line2d_23">
      <g>
       <use xlink:href="#m836d6ddc3d" x="479.373714" y="386.275937" style="fill: #7f7f7f; stroke: #7f7f7f; stroke-width: 1.8"/>
      </g>
     </g>
     <g id="text_24">
      <!-- 17.5 -->
      <g style="fill: #7f7f7f" transform="translate(468.240902 400.874375) scale(0.1 -0.1)">
       <use xlink:href="#DejaVuSans-31"/>
       <use xlink:href="#DejaVuSans-37" transform="translate(63.623047 0)"/>
       <use xlink:href="#DejaVuSans-2e" transform="translate(127.246094 0)"/>
       <use xlink:href="#DejaVuSans-35" transform="translate(159.033203 0)"/>
      </g>
     </g>
    </g>
    <g id="xtick_18">
     <g id="line2d_24">
      <g>
       <use xlink:href="#m836d6ddc3d" x="538.106776" y="386.275937" style="fill: #7f7f7f; stroke: #7f7f7f; stroke-width: 1.8"/>
      </g>
     </g>
     <g id="text_25">
      <!-- 20.0 -->
      <g style="fill: #7f7f7f" transform="translate(526.973963 400.874375) scale(0.1 -0.1)">
       <use xlink:href="#DejaVuSans-32"/>
       <use xlink:href="#DejaVuSans-30" transform="translate(63.623047 0)"/>
       <use xlink:href="#DejaVuSans-2e" transform="translate(127.246094 0)"/>
       <use xlink:href="#DejaVuSans-30" transform="translate(159.033203 0)"/>
      </g>
     </g>
    </g>
    <g id="text_26">
     <!-- Time [s] -->
     <g style="fill: #7f7f7f" transform="translate(280.812734 415.312344) scale(0.11 -0.11)">
      <defs>
       <path id="DejaVuSans-54" d="M -19 4666 
L 3928 4666 
L 3928 4134 
L 2272 4134 
L 2272 0 
L 1638 0 
L 1638 4134 
L -19 4134 
L -19 4666 
z
" transform="scale(0.015625)"/>
       <path id="DejaVuSans-65" d="M 3597 1894 
L 3597 1613 
L 953 1613 
Q 991 1019 1311 708 
Q 1631 397 2203 397 
Q 2534 397 2845 478 
Q 3156 559 3463 722 
L 3463 178 
Q 3153 47 2828 -22 
Q 2503 -91 2169 -91 
Q 1331 -91 842 396 
Q 353 884 353 1716 
Q 353 2575 817 3079 
Q 1281 3584 2069 3584 
Q 2775 3584 3186 3129 
Q 3597 2675 3597 1894 
z
M 3022 2063 
Q 3016 2534 2758 2815 
Q 2500 3097 2075 3097 
Q 1594 3097 1305 2825 
Q 1016 2553 972 2059 
L 3022 2063 
z
" transform="scale(0.015625)"/>
      </defs>
      <use xlink:href="#DejaVuSans-54"/>
      <use xlink:href="#DejaVuSans-69" transform="translate(57.958984 0)"/>
      <use xlink:href="#DejaVuSans-6d" transform="translate(85.742188 0)"/>
      <use xlink:href="#DejaVuSans-65" transform="translate(183.154297 0)"/>
      <use xlink:href="#DejaVuSans-20" transform="translate(244.677734 0)"/>
      <use xlink:href="#DejaVuSans-5b" transform="translate(276.464844 0)"/>
      <use xlink:href="#DejaVuSans-73" transform="translate(315.478516 0)"/>
      <use xlink:href="#DejaVuSans-5d" transform="translate(367.578125 0)"/>
     </g>
    </g>
   </g>
   <g id="matplotlib.axis_4">
    <g id="ytick_6">
     <g id="line2d_25">
      <g>
       <use xlink:href="#m0a3619b9de" x="44.749063" y="378.631919" style="fill: #7f7f7f; stroke: #7f7f7f; stroke-width: 1.8"/>
      </g>
     </g>
     <g id="text_27">
      <!-- 0.0 -->
      <g style="fill: #7f7f7f" transform="translate(21.845938 382.431138) scale(0.1 -0.1)">
       <use xlink:href="#DejaVuSans-30"/>
       <use xlink:href="#DejaVuSans-2e" transform="translate(63.623047 0)"/>
       <use xlink:href="#DejaVuSans-30" transform="translate(95.410156 0)"/>
      </g>
     </g>
    </g>
    <g id="ytick_7">
     <g id="line2d_26">
      <g>
       <use xlink:href="#m0a3619b9de" x="44.749063" y="341.953888" style="fill: #7f7f7f; stroke: #7f7f7f; stroke-width: 1.8"/>
      </g>
     </g>
     <g id="text_28">
      <!-- 0.5 -->
      <g style="fill: #7f7f7f" transform="translate(21.845938 345.753106) scale(0.1 -0.1)">
       <use xlink:href="#DejaVuSans-30"/>
       <use xlink:href="#DejaVuSans-2e" transform="translate(63.623047 0)"/>
       <use xlink:href="#DejaVuSans-35" transform="translate(95.410156 0)"/>
      </g>
     </g>
    </g>
    <g id="ytick_8">
     <g id="line2d_27">
      <g>
       <use xlink:href="#m0a3619b9de" x="44.749063" y="305.275856" style="fill: #7f7f7f; stroke: #7f7f7f; stroke-width: 1.8"/>
      </g>
     </g>
     <g id="text_29">
      <!-- 1.0 -->
      <g style="fill: #7f7f7f" transform="translate(21.845938 309.075075) scale(0.1 -0.1)">
       <use xlink:href="#DejaVuSans-31"/>
       <use xlink:href="#DejaVuSans-2e" transform="translate(63.623047 0)"/>
       <use xlink:href="#DejaVuSans-30" transform="translate(95.410156 0)"/>
      </g>
     </g>
    </g>
    <g id="ytick_9">
     <g id="line2d_28">
      <g>
       <use xlink:href="#m0a3619b9de" x="44.749063" y="268.597825" style="fill: #7f7f7f; stroke: #7f7f7f; stroke-width: 1.8"/>
      </g>
     </g>
     <g id="text_30">
      <!-- 1.5 -->
      <g style="fill: #7f7f7f" transform="translate(21.845938 272.397044) scale(0.1 -0.1)">
       <use xlink:href="#DejaVuSans-31"/>
       <use xlink:href="#DejaVuSans-2e" transform="translate(63.623047 0)"/>
       <use xlink:href="#DejaVuSans-35" transform="translate(95.410156 0)"/>
      </g>
     </g>
    </g>
    <g id="ytick_10">
     <g id="line2d_29">
      <g>
       <use xlink:href="#m0a3619b9de" x="44.749063" y="231.919793" style="fill: #7f7f7f; stroke: #7f7f7f; stroke-width: 1.8"/>
      </g>
     </g>
     <g id="text_31">
      <!-- 2.0 -->
      <g style="fill: #7f7f7f" transform="translate(21.845938 235.719012) scale(0.1 -0.1)">
       <use xlink:href="#DejaVuSans-32"/>
       <use xlink:href="#DejaVuSans-2e" transform="translate(63.623047 0)"/>
       <use xlink:href="#DejaVuSans-30" transform="translate(95.410156 0)"/>
      </g>
     </g>
    </g>
    <g id="text_32">
     <!-- Velocity Error [m/s] -->
     <g style="fill: #7f7f7f" transform="translate(15.558281 354.999844) rotate(-90) scale(0.11 -0.11)">
      <defs>
       <path id="DejaVuSans-56" d="M 1831 0 
L 50 4666 
L 709 4666 
L 2188 738 
L 3669 4666 
L 4325 4666 
L 2547 0 
L 1831 0 
z
" transform="scale(0.015625)"/>
       <path id="DejaVuSans-6c" d="M 603 4863 
L 1178 4863 
L 1178 0 
L 603 0 
L 603 4863 
z
" transform="scale(0.015625)"/>
       <path id="DejaVuSans-63" d="M 3122 3366 
L 3122 2828 
Q 2878 2963 2633 3030 
Q 2388 3097 2138 3097 
Q 1578 3097 1268 2742 
Q 959 2388 959 1747 
Q 959 1106 1268 751 
Q 1578 397 2138 397 
Q 2388 397 2633 464 
Q 2878 531 3122 666 
L 3122 134 
Q 2881 22 2623 -34 
Q 2366 -91 2075 -91 
Q 1284 -91 818 406 
Q 353 903 353 1747 
Q 353 2603 823 3093 
Q 1294 3584 2113 3584 
Q 2378 3584 2631 3529 
Q 2884 3475 3122 3366 
z
" transform="scale(0.015625)"/>
       <path id="DejaVuSans-79" d="M 2059 -325 
Q 1816 -950 1584 -1140 
Q 1353 -1331 966 -1331 
L 506 -1331 
L 506 -850 
L 844 -850 
Q 1081 -850 1212 -737 
Q 1344 -625 1503 -206 
L 1606 56 
L 191 3500 
L 800 3500 
L 1894 763 
L 2988 3500 
L 3597 3500 
L 2059 -325 
z
" transform="scale(0.015625)"/>
       <path id="DejaVuSans-2f" d="M 1625 4666 
L 2156 4666 
L 531 -594 
L 0 -594 
L 1625 4666 
z
" transform="scale(0.015625)"/>
      </defs>
      <use xlink:href="#DejaVuSans-56"/>
      <use xlink:href="#DejaVuSans-65" transform="translate(60.658203 0)"/>
      <use xlink:href="#DejaVuSans-6c" transform="translate(122.181641 0)"/>
      <use xlink:href="#DejaVuSans-6f" transform="translate(149.964844 0)"/>
      <use xlink:href="#DejaVuSans-63" transform="translate(211.146484 0)"/>
      <use xlink:href="#DejaVuSans-69" transform="translate(266.126953 0)"/>
      <use xlink:href="#DejaVuSans-74" transform="translate(293.910156 0)"/>
      <use xlink:href="#DejaVuSans-79" transform="translate(333.119141 0)"/>
      <use xlink:href="#DejaVuSans-20" transform="translate(392.298828 0)"/>
      <use xlink:href="#DejaVuSans-45" transform="translate(424.085938 0)"/>
      <use xlink:href="#DejaVuSans-72" transform="translate(487.269531 0)"/>
      <use xlink:href="#DejaVuSans-72" transform="translate(526.632812 0)"/>
      <use xlink:href="#DejaVuSans-6f" transform="translate(565.496094 0)"/>
      <use xlink:href="#DejaVuSans-72" transform="translate(626.677734 0)"/>
      <use xlink:href="#DejaVuSans-20" transform="translate(667.791016 0)"/>
      <use xlink:href="#DejaVuSans-5b" transform="translate(699.578125 0)"/>
      <use xlink:href="#DejaVuSans-6d" transform="translate(738.591797 0)"/>
      <use xlink:href="#DejaVuSans-2f" transform="translate(836.003906 0)"/>
      <use xlink:href="#DejaVuSans-73" transform="translate(869.695312 0)"/>
      <use xlink:href="#DejaVuSans-5d" transform="translate(921.794922 0)"/>
     </g>
    </g>
   </g>
   <g id="line2d_30">
    <path d="M 68.242287 231.919793 
L 68.712151 231.919463 
L 69.182016 234.146257 
L 69.416948 228.014501 
L 70.121745 231.826739 
L 70.356677 230.760824 
L 70.826542 225.683359 
L 72.001203 260.90285 
L 72.236135 253.622865 
L 72.706 258.059283 
L 72.940932 272.927897 
L 73.410796 251.172703 
L 73.645729 251.931785 
L 75.525187 295.487208 
L 75.760119 279.00456 
L 76.229983 283.687013 
L 76.464915 263.488304 
L 77.639577 296.109537 
L 78.109441 298.81524 
L 78.579306 284.794448 
L 80.458764 334.940102 
L 80.693696 341.419259 
L 81.398493 337.415556 
L 82.338222 330.906069 
L 82.573154 333.493555 
L 82.808086 334.17464 
L 83.982747 351.827195 
L 84.21768 340.472999 
L 84.687544 352.820626 
L 84.922476 349.461614 
L 85.392341 364.293414 
L 86.097137 363.747023 
L 87.506731 353.07778 
L 87.741663 352.228559 
L 88.681392 363.683738 
L 88.916324 363.654401 
L 89.856053 360.609354 
L 91.265647 371.335969 
L 91.970444 377.875251 
L 92.67524 376.536752 
L 92.910173 377.495819 
L 93.380037 376.746644 
L 93.614969 374.219084 
L 94.084834 376.162304 
L 94.789631 378.397644 
L 94.554698 375.181024 
L 95.024563 377.148931 
L 95.494427 370.739766 
L 95.964292 373.611872 
L 96.904021 378.391394 
L 97.138953 376.673372 
L 97.608817 371.671269 
L 98.313614 373.265372 
L 98.548546 373.195121 
L 99.018411 378.247366 
L 99.488275 373.818959 
L 100.193072 375.861472 
L 100.428004 370.581956 
L 100.897869 372.199201 
L 101.132801 378.145269 
L 101.602666 373.688101 
L 103.012259 364.412649 
L 104.421853 375.320228 
L 104.656785 372.68903 
L 105.126649 374.982022 
L 106.301311 378.625112 
L 106.536243 378.302477 
L 108.180768 367.090153 
L 108.885565 370.172061 
L 109.120497 366.488186 
L 109.35543 374.734967 
L 109.825294 370.390619 
L 110.765023 378.079078 
L 110.999955 376.576881 
L 111.704752 369.445266 
L 112.174617 369.691954 
L 112.879413 363.966257 
L 113.114346 367.887849 
L 114.054075 378.538005 
L 114.523939 376.293375 
L 114.993804 373.12422 
L 115.463668 375.870552 
L 115.933533 378.397031 
L 116.403397 376.569649 
L 116.638329 372.738511 
L 117.343126 375.472392 
L 117.578058 374.721329 
L 117.81299 376.149966 
L 118.047923 375.182407 
L 118.282855 377.539343 
L 118.752719 374.965071 
L 118.987652 375.89429 
L 119.457516 374.190926 
L 119.692448 378.494597 
L 120.162313 372.84103 
L 120.397245 371.970078 
L 120.632177 374.479255 
L 120.86711 374.98263 
L 121.102042 378.623324 
L 121.806839 374.250642 
L 122.746568 365.63398 
L 122.9815 367.752692 
L 124.391093 378.516498 
L 124.626026 374.741745 
L 124.860958 374.872578 
L 125.09589 377.206175 
L 125.330822 375.149808 
L 125.800687 370.985325 
L 126.270551 371.200353 
L 127.21028 375.131366 
L 127.680145 374.475289 
L 127.915077 373.978762 
L 128.150009 374.946097 
L 128.384941 376.991296 
L 128.619874 370.980861 
L 130.029467 376.206734 
L 130.264399 375.903581 
L 130.499332 373.447175 
L 130.734264 377.415333 
L 130.969196 374.893897 
L 131.908925 378.279894 
L 132.143857 377.111785 
L 132.37879 377.40866 
L 132.613722 376.561788 
L 133.083586 374.659288 
L 133.553451 378.301461 
L 134.023315 378.165091 
L 134.963044 368.856948 
L 135.197977 369.95021 
L 135.432909 372.241864 
L 135.667841 366.111429 
L 136.137706 365.650879 
L 136.60757 369.064244 
L 137.077435 376.084322 
L 137.782231 373.725075 
L 138.017163 373.547477 
L 138.252096 368.198469 
L 138.956892 368.462177 
L 140.366486 377.909453 
L 140.83635 375.167119 
L 141.071283 373.872351 
L 141.306215 377.402589 
L 141.541147 377.665628 
L 141.776079 376.108942 
L 142.245944 378.405418 
L 142.480876 378.102579 
L 142.715808 377.859457 
L 144.125402 366.183379 
L 144.360334 367.404057 
L 145.300063 373.087863 
L 147.414453 357.804173 
L 148.354182 360.383899 
L 147.884318 357.201102 
L 148.589114 359.531934 
L 148.824047 357.256927 
L 149.528843 359.566708 
L 150.468572 364.916323 
L 150.938437 364.56506 
L 153.052827 372.250709 
L 153.522692 369.171185 
L 153.757624 370.316532 
L 153.992556 374.253758 
L 154.462421 367.874216 
L 155.167217 367.767965 
L 155.637082 373.543206 
L 156.106946 368.829725 
L 156.341879 367.016087 
L 156.811743 368.241124 
L 157.046675 369.921579 
L 158.221337 361.367414 
L 161.510388 372.024618 
L 161.74532 371.552961 
L 162.919981 370.930319 
L 163.85971 377.247901 
L 164.329575 375.706197 
L 164.564507 372.548018 
L 165.034372 374.931617 
L 165.269304 378.451679 
L 165.974101 375.462371 
L 166.209033 376.51453 
L 166.443965 374.323222 
L 168.088491 363.354344 
L 168.793287 358.114583 
L 170.202881 352.334782 
L 170.437813 352.610251 
L 170.907678 350.041534 
L 171.14261 350.793854 
L 172.317271 355.115443 
L 172.787136 354.536203 
L 173.022068 352.830531 
L 173.257 358.270361 
L 173.491932 362.238358 
L 173.726865 357.605299 
L 174.196729 360.346609 
L 175.37139 351.125861 
L 175.606323 354.222962 
L 177.250848 371.424321 
L 177.955645 365.451505 
L 178.42551 365.502385 
L 179.365238 362.379959 
L 180.774832 370.421675 
L 181.009764 369.202669 
L 181.244696 372.379245 
L 181.714561 370.703452 
L 183.124154 373.812979 
L 183.359087 373.006751 
L 183.828951 378.427833 
L 184.298816 374.824249 
L 185.003612 373.87936 
L 186.648138 364.634599 
L 186.88307 362.404886 
L 187.352935 365.013253 
L 187.587867 363.262172 
L 189.937189 378.265101 
L 190.641986 377.150728 
L 191.581715 370.998048 
L 192.05158 371.747379 
L 193.226241 377.71491 
L 194.635834 371.698652 
L 193.696105 378.187874 
L 194.870767 372.943566 
L 195.575563 377.529451 
L 195.810496 372.601722 
L 196.045428 371.210672 
L 196.28036 375.036415 
L 196.750225 376.168033 
L 196.985157 375.16049 
L 197.220089 373.425514 
L 197.455021 378.118159 
L 197.689954 376.901402 
L 198.159818 375.1531 
L 198.39475 375.283072 
L 198.629683 378.140133 
L 199.334479 378.001981 
L 199.804344 369.757947 
L 200.274208 376.696234 
L 200.50914 378.395671 
L 200.979005 377.269254 
L 201.448869 372.437101 
L 202.153666 375.926528 
L 202.623531 376.150734 
L 202.858463 374.511962 
L 203.093395 378.529855 
L 203.328327 378.005752 
L 203.56326 377.590168 
L 203.798192 377.836936 
L 204.502989 370.461498 
L 204.737921 376.380341 
L 204.972853 377.923532 
L 205.207785 376.288102 
L 206.147514 366.898645 
L 206.852311 367.995033 
L 207.79204 373.845703 
L 208.026972 371.141751 
L 208.496837 368.786989 
L 209.436566 378.170205 
L 209.90643 377.498072 
L 210.141362 374.077749 
L 210.376295 378.129991 
L 210.846159 377.029395 
L 211.081091 377.559224 
L 212.255753 371.397266 
L 212.490685 370.168337 
L 212.725617 371.768552 
L 214.135211 378.494053 
L 214.370143 376.706979 
L 214.605075 376.082825 
L 214.840007 377.294073 
L 215.07494 378.480979 
L 215.544804 375.725847 
L 215.779736 377.601271 
L 217.18933 374.08816 
L 217.894127 373.211789 
L 218.363991 378.195372 
L 218.598923 378.44761 
L 218.833856 378.150338 
L 220.008517 373.687305 
L 220.948246 364.029328 
L 221.183178 367.667332 
L 221.41811 366.411748 
L 221.653042 370.319712 
L 222.357839 373.901858 
L 222.592771 373.797144 
L 223.297568 372.723233 
L 223.767433 378.479313 
L 224.237297 378.586576 
L 225.646891 370.289314 
L 225.881823 374.019374 
L 226.351687 368.347542 
L 226.58662 367.504946 
L 227.056484 368.52703 
L 227.291416 373.228104 
L 227.761281 365.42148 
L 227.996213 363.716564 
L 228.466078 365.120803 
L 230.345536 378.565166 
L 230.580468 378.530133 
L 232.694858 368.775974 
L 232.92979 370.284253 
L 233.399655 375.936349 
L 234.104451 375.434265 
L 234.339384 376.792743 
L 234.574316 376.190515 
L 235.04418 372.313867 
L 235.514045 372.363486 
L 236.218842 377.014801 
L 236.453774 374.406781 
L 237.158571 370.090233 
L 237.863367 372.007669 
L 238.568164 378.332454 
L 239.272961 378.083396 
L 239.507893 375.234282 
L 240.21269 375.656997 
L 240.682554 378.120458 
L 241.387351 373.004965 
L 241.622283 376.40254 
L 243.031877 378.176378 
L 244.206538 373.556323 
L 244.911335 377.466394 
L 245.381199 375.893678 
L 245.616131 375.816236 
L 246.55586 378.128443 
L 247.025725 375.997277 
L 247.730522 376.845562 
L 247.965454 376.860642 
L 248.435318 372.654331 
L 249.140115 373.818049 
L 250.079844 377.81688 
L 250.314776 376.696083 
L 250.549709 376.568965 
L 250.784641 378.291345 
L 251.254505 376.664569 
L 251.489437 374.73221 
L 251.959302 376.831944 
L 252.194234 376.039788 
L 252.664099 375.662788 
L 253.133963 378.547876 
L 253.368895 376.625368 
L 254.073692 377.014649 
L 254.308624 378.09545 
L 254.543557 377.457271 
L 256.188082 363.06186 
L 257.362744 372.968099 
L 257.832608 372.393476 
L 258.06754 371.269087 
L 258.302473 373.753459 
L 259.477134 377.928478 
L 259.946998 377.607593 
L 260.651795 375.850825 
L 262.061388 368.600945 
L 262.296321 372.776761 
L 262.531253 368.565471 
L 263.001117 371.698978 
L 263.470982 368.479494 
L 263.940846 369.319853 
L 264.410711 371.764594 
L 264.645643 369.84132 
L 264.880575 367.449152 
L 265.35044 370.637144 
L 265.585372 368.581439 
L 266.290169 378.2066 
L 266.525101 374.288046 
L 266.994966 370.593165 
L 267.46483 374.599397 
L 267.934695 378.157834 
L 268.874424 376.884736 
L 269.109356 373.457866 
L 269.814153 375.681571 
L 270.284017 368.969337 
L 270.988814 373.295322 
L 271.223746 376.489011 
L 271.928543 372.521658 
L 273.808001 361.150117 
L 276.157323 378.498285 
L 276.392255 377.890797 
L 276.86212 375.373946 
L 277.331984 376.29506 
L 277.566917 373.24347 
L 278.271713 376.533912 
L 278.741578 376.931491 
L 279.446375 375.367073 
L 279.681307 378.447593 
L 280.621036 378.293077 
L 280.855968 378.068934 
L 282.265562 372.967716 
L 282.500494 372.310533 
L 282.970358 377.814393 
L 283.440223 375.480864 
L 284.379952 372.494138 
L 284.614884 373.010807 
L 285.789545 377.291349 
L 287.199139 367.530726 
L 287.669003 368.872567 
L 287.903935 367.390353 
L 288.138868 366.768562 
L 289.783393 378.020213 
L 290.018326 377.500314 
L 290.48819 378.136766 
L 290.723122 376.972623 
L 291.192987 378.590553 
L 291.897784 368.64576 
L 292.367648 375.304031 
L 292.60258 375.320507 
L 293.072445 371.482598 
L 293.777241 372.009898 
L 294.012174 377.41457 
L 294.71697 373.786394 
L 295.421767 369.209762 
L 295.891632 371.167143 
L 296.126564 371.008021 
L 297.301225 366.17297 
L 297.536157 366.597873 
L 297.77109 364.772965 
L 298.240954 367.251107 
L 300.120412 377.861426 
L 300.825209 374.25276 
L 301.295073 374.618259 
L 301.764938 370.896612 
L 302.469735 372.263291 
L 303.409463 377.8877 
L 304.11426 376.549938 
L 305.523854 368.317458 
L 305.758786 368.559806 
L 306.22865 364.364243 
L 306.698515 368.450606 
L 307.638244 378.410125 
L 308.108108 371.232166 
L 308.577973 368.997832 
L 309.047837 371.156559 
L 309.517702 370.510067 
L 309.987566 367.230551 
L 310.222499 371.525492 
L 310.457431 371.760584 
L 310.927295 377.51953 
L 311.632092 375.568662 
L 312.336889 367.269312 
L 312.806753 369.679815 
L 313.276618 366.212417 
L 313.981414 361.634478 
L 314.216347 367.127737 
L 314.921143 363.338597 
L 315.156076 363.844971 
L 315.860872 368.780626 
L 316.330737 367.104617 
L 316.800601 366.262155 
L 317.975263 370.285162 
L 318.210195 370.641216 
L 318.680059 370.986796 
L 319.854721 363.588695 
L 320.79445 367.583566 
L 321.029382 365.688823 
L 321.264314 364.534743 
L 321.499246 367.214864 
L 321.734179 368.76144 
L 321.969111 365.111442 
L 322.204043 365.016102 
L 323.143772 376.68182 
L 323.848569 373.455427 
L 325.02323 368.312119 
L 325.258162 373.963411 
L 325.962959 368.703617 
L 326.197891 366.857181 
L 326.432823 366.941622 
L 327.842417 378.050845 
L 328.312281 374.918788 
L 329.017078 375.078237 
L 329.25201 375.607305 
L 329.721875 374.711218 
L 329.956807 372.741616 
L 330.426672 373.508846 
L 331.366401 378.628672 
L 331.601333 377.965731 
L 333.010926 373.407878 
L 334.890384 378.343237 
L 335.125316 371.213471 
L 335.830113 375.542241 
L 337.004774 378.078372 
L 337.239707 376.712095 
L 337.474639 374.951021 
L 337.944503 377.727645 
L 338.179436 377.345289 
L 339.823961 369.067712 
L 342.878081 361.118082 
L 343.113013 363.403086 
L 343.347945 365.379714 
L 343.81781 364.731408 
L 344.992471 352.966318 
L 346.167132 353.236206 
L 346.636996 352.300626 
L 347.341793 356.466372 
L 347.576725 352.48427 
L 347.811658 351.437268 
L 348.04659 352.775621 
L 350.395912 372.461721 
L 350.630845 370.091076 
L 350.865777 372.590762 
L 351.335641 372.392045 
L 352.040438 374.650085 
L 352.27537 377.476232 
L 352.745235 373.730901 
L 352.980167 373.397638 
L 353.919896 378.300548 
L 354.154828 377.851796 
L 355.094557 374.869542 
L 355.329489 376.283266 
L 355.564422 377.779167 
L 356.034286 376.546634 
L 356.739083 371.034778 
L 356.974015 371.49897 
L 357.678812 377.371677 
L 358.148676 375.94583 
L 359.088405 375.588499 
L 359.323338 378.356225 
L 360.028134 371.807856 
L 360.732931 372.803797 
L 360.967863 373.056251 
L 361.437728 378.093853 
L 362.142525 376.090568 
L 362.377457 378.32937 
L 362.612389 376.26869 
L 364.256915 364.606833 
L 364.961712 364.890768 
L 365.666508 370.976271 
L 366.136373 366.365572 
L 366.606237 359.487122 
L 367.311034 361.239644 
L 368.720627 371.053905 
L 369.425424 370.278266 
L 369.660356 368.487763 
L 370.130221 372.25977 
L 371.539814 377.945735 
L 371.774747 377.52872 
L 373.889137 359.531543 
L 374.593934 363.523242 
L 374.828866 363.115719 
L 375.29873 359.255834 
L 375.768595 359.887374 
L 376.943256 367.627422 
L 378.352849 360.324782 
L 380.46724 372.944301 
L 381.172036 369.961774 
L 382.816562 362.918271 
L 384.930952 373.114121 
L 385.400817 373.413639 
L 386.105613 368.464688 
L 387.515207 373.355934 
L 388.454936 378.427396 
L 388.689868 377.202439 
L 389.629597 373.712397 
L 390.804258 377.288371 
L 391.274123 376.630831 
L 391.509055 377.625353 
L 392.683716 369.804208 
L 393.153581 373.181854 
L 393.858378 377.879235 
L 394.328242 377.710112 
L 394.798107 377.342808 
L 395.033039 378.173827 
L 395.502903 378.358379 
L 396.677564 370.603294 
L 397.147429 371.094838 
L 397.617293 373.03454 
L 397.852226 370.412832 
L 398.791955 367.825058 
L 399.026887 370.413047 
L 399.496751 367.073348 
L 399.731684 367.004529 
L 401.141277 374.295645 
L 401.611142 372.05286 
L 402.081006 366.054189 
L 402.785803 368.519998 
L 403.255667 378.290647 
L 403.960464 372.301106 
L 405.60499 364.878997 
L 406.074854 365.464828 
L 406.544719 361.146401 
L 407.014583 364.716291 
L 407.484448 363.838018 
L 407.71938 362.088412 
L 407.954312 364.845773 
L 408.189244 368.597943 
L 408.424177 364.308782 
L 409.598838 355.92694 
L 410.538567 361.493031 
L 410.773499 360.137737 
L 411.713228 351.062404 
L 411.94816 355.630828 
L 412.183093 358.356052 
L 412.418025 356.619756 
L 412.652957 351.141111 
L 413.357754 357.561964 
L 414.297483 359.546964 
L 415.00228 362.154824 
L 416.646805 373.70011 
L 417.586534 368.729844 
L 418.056399 371.655495 
L 418.291331 372.51743 
L 418.526263 371.414414 
L 419.23106 363.857944 
L 419.700924 367.087507 
L 420.640653 371.166776 
L 420.875586 369.118299 
L 421.110518 371.612484 
L 422.520111 376.900439 
L 423.224908 368.562031 
L 423.929705 373.599418 
L 424.164637 376.141925 
L 424.399569 370.896534 
L 424.869434 376.00302 
L 425.339298 372.505167 
L 425.574231 376.049168 
L 426.51396 378.104136 
L 427.218756 374.670789 
L 427.453688 378.596113 
L 430.037943 366.566123 
L 430.74274 368.112725 
L 431.447537 378.549432 
L 432.152333 377.291594 
L 432.387266 374.638081 
L 432.85713 377.762769 
L 433.092062 377.058808 
L 433.561927 374.945447 
L 433.796859 373.047707 
L 434.031791 376.293191 
L 434.501656 373.686843 
L 434.736588 373.764685 
L 435.911249 366.137126 
L 437.085911 373.072237 
L 437.320843 370.103524 
L 437.555775 369.123107 
L 438.025639 371.125004 
L 438.965368 378.112475 
L 439.435233 376.419698 
L 439.670165 376.541852 
L 439.905097 375.744135 
L 440.14003 373.029553 
L 440.609894 377.54105 
L 440.844826 377.884955 
L 441.549623 369.008056 
L 442.489352 370.158174 
L 443.664013 374.564577 
L 443.898946 373.715736 
L 444.133878 376.550377 
L 444.36881 377.270198 
L 444.838675 372.385638 
L 445.543471 372.822708 
L 446.013336 372.878367 
L 446.248268 376.834143 
L 446.953065 375.681222 
L 447.187997 370.767302 
L 447.892794 375.349659 
L 448.127726 376.645453 
L 449.302387 371.340246 
L 449.772252 370.341625 
L 450.477048 373.60718 
L 450.711981 372.994374 
L 450.946913 374.664176 
L 451.886642 378.459588 
L 452.591439 377.141321 
L 453.061303 372.278301 
L 453.296235 374.678272 
L 454.470897 378.359484 
L 455.175693 374.891053 
L 455.645558 377.500112 
L 456.115422 376.779197 
L 456.350355 377.253087 
L 456.585287 374.810228 
L 456.820219 378.376917 
L 457.055151 377.064055 
L 457.290084 378.27677 
L 457.525016 377.86103 
L 458.699677 364.427436 
L 459.169541 369.901609 
L 460.10927 377.904138 
L 460.344203 376.179014 
L 460.814067 371.887971 
L 461.518864 373.936347 
L 461.753796 373.80526 
L 462.223661 377.259887 
L 462.693525 374.597445 
L 463.16339 373.493158 
L 463.868186 378.347781 
L 464.103119 374.302444 
L 464.572983 374.862428 
L 465.512712 378.039472 
L 465.747644 376.700734 
L 466.452441 367.072059 
L 467.157238 369.332412 
L 468.566831 378.151369 
L 469.50656 375.281337 
L 469.741492 376.706232 
L 469.976425 378.325926 
L 470.211357 374.729674 
L 470.446289 375.561958 
L 470.916154 376.584909 
L 471.151086 373.862439 
L 471.386018 376.823726 
L 471.855883 376.801438 
L 472.090815 376.924266 
L 472.325747 378.591783 
L 473.030544 376.887164 
L 473.735341 371.271186 
L 473.970273 373.839739 
L 474.440137 377.795479 
L 474.67507 375.349602 
L 474.910002 371.366339 
L 475.379866 378.035709 
L 475.614799 374.719713 
L 475.849731 377.486635 
L 476.554528 375.017434 
L 477.259324 377.24734 
L 477.494257 378.601379 
L 477.729189 376.796211 
L 478.433986 370.419847 
L 478.90385 373.262341 
L 479.138782 372.992056 
L 481.01824 378.54169 
L 481.957969 375.039413 
L 482.192901 378.131813 
L 482.427834 373.233068 
L 482.897698 374.793216 
L 483.602495 369.510545 
L 484.072359 371.923112 
L 485.481953 378.577376 
L 487.126479 371.355357 
L 487.361411 371.4773 
L 487.596343 373.67858 
L 488.536072 373.477196 
L 489.240869 368.699612 
L 489.475801 373.60831 
L 490.180598 377.578921 
L 490.41553 374.023403 
L 491.355259 372.506399 
L 491.590191 373.134912 
L 492.060056 372.447071 
L 492.764852 377.537361 
L 492.999785 373.752631 
L 493.939514 373.906428 
L 494.174446 373.155008 
L 494.409378 374.130708 
L 494.64431 377.317751 
L 495.349107 376.639359 
L 495.818972 374.718294 
L 496.288836 375.323153 
L 496.523768 378.566473 
L 497.463497 377.930354 
L 497.933362 371.879307 
L 498.403226 375.907395 
L 499.577887 377.871405 
L 500.047752 373.760118 
L 500.752549 374.658531 
L 500.987481 377.730279 
L 501.457345 373.346576 
L 501.692278 369.657518 
L 502.162142 376.62162 
L 502.397074 378.075973 
L 502.632007 375.253162 
L 502.866939 377.007238 
L 503.101871 372.696049 
L 503.806668 376.315671 
L 505.451194 366.198756 
L 506.15599 372.224688 
L 506.390923 368.734112 
L 507.095719 365.238922 
L 507.330652 365.981804 
L 507.800516 370.046101 
L 508.505313 368.283685 
L 508.740245 368.713649 
L 508.975177 367.73502 
L 509.21011 367.874808 
L 509.445042 364.294081 
L 509.914906 366.660644 
L 510.854635 372.857281 
L 511.089567 371.2115 
L 512.264229 364.173756 
L 513.673822 374.811407 
L 514.848483 367.324142 
L 516.258077 375.328931 
L 516.962874 377.484329 
L 517.197806 376.01998 
L 517.902603 376.8345 
L 518.137535 374.040027 
L 518.372467 378.230157 
L 518.842332 372.093544 
L 519.077264 375.01699 
L 519.312196 375.458824 
L 520.486857 367.573795 
L 520.721789 367.047732 
L 521.426586 363.120164 
L 521.661518 366.598102 
L 521.896451 365.511819 
L 522.131383 367.289438 
L 522.601247 370.667976 
L 522.83618 366.151119 
L 523.306044 368.754714 
L 524.010841 362.497236 
L 524.715638 364.974269 
L 524.95057 363.459884 
L 525.185502 367.406507 
L 525.420434 365.580775 
L 525.655367 365.585221 
L 527.06496 376.939437 
L 527.299892 374.909393 
L 530.823876 363.00219 
L 531.29374 359.980281 
L 531.998537 366.316937 
L 532.233469 365.374831 
L 532.468402 366.170676 
L 532.703334 370.254804 
L 533.408131 369.601965 
L 533.877995 365.803449 
L 534.34786 367.87221 
L 534.582792 367.80016 
L 535.052656 365.15815 
L 535.287589 367.543575 
L 535.992385 373.628667 
L 536.227318 372.844994 
L 537.401979 366.502495 
L 537.871843 368.022301 
L 538.106776 366.159748 
L 538.106776 366.159748 
" clip-path="url(#pdb8fe8dbed)" style="fill: none; stroke: #e41a1c; stroke-width: 2; stroke-linecap: square"/>
   </g>
   <g id="patch_6">
    <path d="M 44.749063 386.275937 
L 44.749063 218.036094 
" style="fill: none; stroke: #7f7f7f; stroke-width: 1.8; stroke-linejoin: miter; stroke-linecap: square"/>
   </g>
   <g id="patch_7">
    <path d="M 44.749063 386.275937 
L 561.6 386.275937 
" style="fill: none; stroke: #7f7f7f; stroke-width: 1.8; stroke-linejoin: miter; stroke-linecap: square"/>
   </g>
  </g>
 </g>
 <defs>
  <clipPath id="p1bf2ea4845">
   <rect x="44.749063" y="22.318125" width="516.850937" height="168.239844"/>
  </clipPath>
  <clipPath id="pdb8fe8dbed">
   <rect x="44.749063" y="218.036094" width="516.850937" height="168.239844"/>
  </clipPath>
 </defs>
</svg>
