<?xml version="1.0" encoding="utf-8" standalone="no"?>
<!DOCTYPE svg PUBLIC "-//W3C//DTD SVG 1.1//EN"
  "http://www.w3.org/Graphics/SVG/1.1/DTD/svg11.dtd">
<svg xmlns:xlink="http://www.w3.org/1999/xlink" width="568.8pt" height="280.8pt" viewBox="0 0 568.8 280.8" xmlns="http://www.w3.org/2000/svg" version="1.1">
 <metadata>
  <rdf:RDF xmlns:dc="http://purl.org/dc/elements/1.1/" xmlns:cc="http://creativecommons.org/ns#" xmlns:rdf="http://www.w3.org/1999/02/22-rdf-syntax-ns#">
   <cc:Work>
    <dc:type rdf:resource="http://purl.org/dc/dcmitype/StillImage"/>
    <dc:date>2026-06-20T12:51:23.534799</dc:date>
    <dc:format>image/svg+xml</dc:format>
    <dc:creator>
     <cc:Agent>
      <dc:title>Matplotlib v3.11.0, https://matplotlib.org/</dc:title>
     </cc:Agent>
    </dc:creator>
   </cc:Work>
  </rdf:RDF>
 </metadata>
 <defs>
  <style type="text/css">*{stroke-linejoin: round; stroke-linecap: butt}</style>
 </defs>
 <g id="figure_1">
  <g id="patch_1">
   <path d="M 0 280.8 
L 568.8 280.8 
L 568.8 0 
L 0 0 
L 0 280.8 
z
" style="fill: none"/>
  </g>
  <g id="axes_1">
   <g id="patch_2">
    <path d="M 28.942188 241.599141 
L 561.6 241.599141 
L 561.6 7.2 
L 28.942188 7.2 
L 28.942188 241.599141 
z
" style="fill: none"/>
   </g>
   <g id="matplotlib.axis_1">
    <g id="xtick_1">
     <g id="line2d_1">
      <defs>
       <path id="m1c31c1f3d6" d="M 0 0 
L 0 3.5 
" style="stroke: #7f7f7f; stroke-width: 1.8"/>
      </defs>
      <g>
       <use xlink:href="#m1c31c1f3d6" x="53.153906" y="241.599141" style="fill: #7f7f7f; stroke: #7f7f7f; stroke-width: 1.8"/>
      </g>
     </g>
     <g id="text_1">
      <!-- 0.00000 -->
      <g style="fill: #7f7f7f" transform="translate(32.477344 256.196797) scale(0.1 -0.1)">
       <defs>
        <path id="DejaVuSans-13" d="M 2034 4250 
Q 1547 4250 1301 3770 
Q 1056 3291 1056 2328 
Q 1056 1369 1301 889 
Q 1547 409 2034 409 
Q 2525 409 2770 889 
Q 3016 1369 3016 2328 
Q 3016 3291 2770 3770 
Q 2525 4250 2034 4250 
z
M 2034 4750 
Q 2819 4750 3233 4129 
Q 3647 3509 3647 2328 
Q 3647 1150 3233 529 
Q 2819 -91 2034 -91 
Q 1250 -91 836 529 
Q 422 1150 422 2328 
Q 422 3509 836 4129 
Q 1250 4750 2034 4750 
z
" transform="scale(0.015625)"/>
        <path id="DejaVuSans-11" d="M 684 794 
L 1344 794 
L 1344 0 
L 684 0 
L 684 794 
z
" transform="scale(0.015625)"/>
       </defs>
       <use xlink:href="#DejaVuSans-13"/>
       <use xlink:href="#DejaVuSans-11" transform="translate(63.625 0)"/>
       <use xlink:href="#DejaVuSans-13" transform="translate(95.40625 0)"/>
       <use xlink:href="#DejaVuSans-13" transform="translate(159.03125 0)"/>
       <use xlink:href="#DejaVuSans-13" transform="translate(222.65625 0)"/>
       <use xlink:href="#DejaVuSans-13" transform="translate(286.28125 0)"/>
       <use xlink:href="#DejaVuSans-13" transform="translate(349.90625 0)"/>
      </g>
     </g>
    </g>
    <g id="xtick_2">
     <g id="line2d_2">
      <g>
       <use xlink:href="#m1c31c1f3d6" x="149.981416" y="241.599141" style="fill: #7f7f7f; stroke: #7f7f7f; stroke-width: 1.8"/>
      </g>
     </g>
     <g id="text_2">
      <!-- 0.00002 -->
      <g style="fill: #7f7f7f" transform="translate(129.304853 256.196797) scale(0.1 -0.1)">
       <defs>
        <path id="DejaVuSans-15" d="M 1228 531 
L 3431 531 
L 3431 0 
L 469 0 
L 469 531 
Q 828 903 1448 1529 
Q 2069 2156 2228 2338 
Q 2531 2678 2651 2914 
Q 2772 3150 2772 3378 
Q 2772 3750 2511 3984 
Q 2250 4219 1831 4219 
Q 1534 4219 1204 4116 
Q 875 4013 500 3803 
L 500 4441 
Q 881 4594 1212 4672 
Q 1544 4750 1819 4750 
Q 2544 4750 2975 4387 
Q 3406 4025 3406 3419 
Q 3406 3131 3298 2873 
Q 3191 2616 2906 2266 
Q 2828 2175 2409 1742 
Q 1991 1309 1228 531 
z
" transform="scale(0.015625)"/>
       </defs>
       <use xlink:href="#DejaVuSans-13"/>
       <use xlink:href="#DejaVuSans-11" transform="translate(63.625 0)"/>
       <use xlink:href="#DejaVuSans-13" transform="translate(95.40625 0)"/>
       <use xlink:href="#DejaVuSans-13" transform="translate(159.03125 0)"/>
       <use xlink:href="#DejaVuSans-13" transform="translate(222.65625 0)"/>
       <use xlink:href="#DejaVuSans-13" transform="translate(286.28125 0)"/>
       <use xlink:href="#DejaVuSans-15" transform="translate(349.90625 0)"/>
      </g>
     </g>
    </g>
    <g id="xtick_3">
     <g id="line2d_3">
      <g>
       <use xlink:href="#m1c31c1f3d6" x="246.808925" y="241.599141" style="fill: #7f7f7f; stroke: #7f7f7f; stroke-width: 1.8"/>
      </g>
     </g>
     <g id="text_3">
      <!-- 0.00004 -->
      <g style="fill: #7f7f7f" transform="translate(226.132363 256.196797) scale(0.1 -0.1)">
       <defs>
        <path id="DejaVuSans-17" d="M 2419 4116 
L 825 1625 
L 2419 1625 
L 2419 4116 
z
M 2253 4666 
L 3047 4666 
L 3047 1625 
L 3713 1625 
L 3713 1100 
L 3047 1100 
L 3047 0 
L 2419 0 
L 2419 1100 
L 313 1100 
L 313 1709 
L 2253 4666 
z
" transform="scale(0.015625)"/>
       </defs>
       <use xlink:href="#DejaVuSans-13"/>
       <use xlink:href="#DejaVuSans-11" transform="translate(63.625 0)"/>
       <use xlink:href="#DejaVuSans-13" transform="translate(95.40625 0)"/>
       <use xlink:href="#DejaVuSans-13" transform="translate(159.03125 0)"/>
       <use xlink:href="#DejaVuSans-13" transform="translate(222.65625 0)"/>
       <use xlink:href="#DejaVuSans-13" transform="translate(286.28125 0)"/>
       <use xlink:href="#DejaVuSans-17" transform="translate(349.90625 0)"/>
      </g>
     </g>
    </g>
    <g id="xtick_4">
     <g id="line2d_4">
      <g>
       <use xlink:href="#m1c31c1f3d6" x="343.636435" y="241.599141" style="fill: #7f7f7f; stroke: #7f7f7f; stroke-width: 1.8"/>
      </g>
     </g>
     <g id="text_4">
      <!-- 0.00006 -->
      <g style="fill: #7f7f7f" transform="translate(322.959872 256.196797) scale(0.1 -0.1)">
       <defs>
        <path id="DejaVuSans-19" d="M 2113 2584 
Q 1688 2584 1439 2293 
Q 1191 2003 1191 1497 
Q 1191 994 1439 701 
Q 1688 409 2113 409 
Q 2538 409 2786 701 
Q 3034 994 3034 1497 
Q 3034 2003 2786 2293 
Q 2538 2584 2113 2584 
z
M 3366 4563 
L 3366 3988 
Q 3128 4100 2886 4159 
Q 2644 4219 2406 4219 
Q 1781 4219 1451 3797 
Q 1122 3375 1075 2522 
Q 1259 2794 1537 2939 
Q 1816 3084 2150 3084 
Q 2853 3084 3261 2657 
Q 3669 2231 3669 1497 
Q 3669 778 3244 343 
Q 2819 -91 2113 -91 
Q 1303 -91 875 529 
Q 447 1150 447 2328 
Q 447 3434 972 4092 
Q 1497 4750 2381 4750 
Q 2619 4750 2861 4703 
Q 3103 4656 3366 4563 
z
" transform="scale(0.015625)"/>
       </defs>
       <use xlink:href="#DejaVuSans-13"/>
       <use xlink:href="#DejaVuSans-11" transform="translate(63.625 0)"/>
       <use xlink:href="#DejaVuSans-13" transform="translate(95.40625 0)"/>
       <use xlink:href="#DejaVuSans-13" transform="translate(159.03125 0)"/>
       <use xlink:href="#DejaVuSans-13" transform="translate(222.65625 0)"/>
       <use xlink:href="#DejaVuSans-13" transform="translate(286.28125 0)"/>
       <use xlink:href="#DejaVuSans-19" transform="translate(349.90625 0)"/>
      </g>
     </g>
    </g>
    <g id="xtick_5">
     <g id="line2d_5">
      <g>
       <use xlink:href="#m1c31c1f3d6" x="440.463944" y="241.599141" style="fill: #7f7f7f; stroke: #7f7f7f; stroke-width: 1.8"/>
      </g>
     </g>
     <g id="text_5">
      <!-- 0.00008 -->
      <g style="fill: #7f7f7f" transform="translate(419.787382 256.196797) scale(0.1 -0.1)">
       <defs>
        <path id="DejaVuSans-1b" d="M 2034 2216 
Q 1584 2216 1326 1975 
Q 1069 1734 1069 1313 
Q 1069 891 1326 650 
Q 1584 409 2034 409 
Q 2484 409 2743 651 
Q 3003 894 3003 1313 
Q 3003 1734 2745 1975 
Q 2488 2216 2034 2216 
z
M 1403 2484 
Q 997 2584 770 2862 
Q 544 3141 544 3541 
Q 544 4100 942 4425 
Q 1341 4750 2034 4750 
Q 2731 4750 3128 4425 
Q 3525 4100 3525 3541 
Q 3525 3141 3298 2862 
Q 3072 2584 2669 2484 
Q 3125 2378 3379 2068 
Q 3634 1759 3634 1313 
Q 3634 634 3220 271 
Q 2806 -91 2034 -91 
Q 1263 -91 848 271 
Q 434 634 434 1313 
Q 434 1759 690 2068 
Q 947 2378 1403 2484 
z
M 1172 3481 
Q 1172 3119 1398 2916 
Q 1625 2713 2034 2713 
Q 2441 2713 2670 2916 
Q 2900 3119 2900 3481 
Q 2900 3844 2670 4047 
Q 2441 4250 2034 4250 
Q 1625 4250 1398 4047 
Q 1172 3844 1172 3481 
z
" transform="scale(0.015625)"/>
       </defs>
       <use xlink:href="#DejaVuSans-13"/>
       <use xlink:href="#DejaVuSans-11" transform="translate(63.625 0)"/>
       <use xlink:href="#DejaVuSans-13" transform="translate(95.40625 0)"/>
       <use xlink:href="#DejaVuSans-13" transform="translate(159.03125 0)"/>
       <use xlink:href="#DejaVuSans-13" transform="translate(222.65625 0)"/>
       <use xlink:href="#DejaVuSans-13" transform="translate(286.28125 0)"/>
       <use xlink:href="#DejaVuSans-1b" transform="translate(349.90625 0)"/>
      </g>
     </g>
    </g>
    <g id="xtick_6">
     <g id="line2d_6">
      <g>
       <use xlink:href="#m1c31c1f3d6" x="537.291454" y="241.599141" style="fill: #7f7f7f; stroke: #7f7f7f; stroke-width: 1.8"/>
      </g>
     </g>
     <g id="text_6">
      <!-- 0.00010 -->
      <g style="fill: #7f7f7f" transform="translate(516.614891 256.196797) scale(0.1 -0.1)">
       <defs>
        <path id="DejaVuSans-14" d="M 794 531 
L 1825 531 
L 1825 4091 
L 703 3866 
L 703 4441 
L 1819 4666 
L 2450 4666 
L 2450 531 
L 3481 531 
L 3481 0 
L 794 0 
L 794 531 
z
" transform="scale(0.015625)"/>
       </defs>
       <use xlink:href="#DejaVuSans-13"/>
       <use xlink:href="#DejaVuSans-11" transform="translate(63.625 0)"/>
       <use xlink:href="#DejaVuSans-13" transform="translate(95.40625 0)"/>
       <use xlink:href="#DejaVuSans-13" transform="translate(159.03125 0)"/>
       <use xlink:href="#DejaVuSans-13" transform="translate(222.65625 0)"/>
       <use xlink:href="#DejaVuSans-14" transform="translate(286.28125 0)"/>
       <use xlink:href="#DejaVuSans-13" transform="translate(349.90625 0)"/>
      </g>
     </g>
    </g>
    <g id="text_7">
     <!-- time [s] -->
     <g style="fill: #7f7f7f" transform="translate(273.940547 270.957422) scale(0.11 -0.11)">
      <defs>
       <path id="DejaVuSans-57" d="M 1172 4494 
L 1172 3500 
L 2356 3500 
L 2356 3053 
L 1172 3053 
L 1172 1153 
Q 1172 725 1289 603 
Q 1406 481 1766 481 
L 2356 481 
L 2356 0 
L 1766 0 
Q 1100 0 847 248 
Q 594 497 594 1153 
L 594 3053 
L 172 3053 
L 172 3500 
L 594 3500 
L 594 4494 
L 1172 4494 
z
" transform="scale(0.015625)"/>
       <path id="DejaVuSans-4c" d="M 603 3500 
L 1178 3500 
L 1178 0 
L 603 0 
L 603 3500 
z
M 603 4863 
L 1178 4863 
L 1178 4134 
L 603 4134 
L 603 4863 
z
" transform="scale(0.015625)"/>
       <path id="DejaVuSans-50" d="M 3328 2828 
Q 3544 3216 3844 3400 
Q 4144 3584 4550 3584 
Q 5097 3584 5394 3201 
Q 5691 2819 5691 2113 
L 5691 0 
L 5113 0 
L 5113 2094 
Q 5113 2597 4934 2840 
Q 4756 3084 4391 3084 
Q 3944 3084 3684 2787 
Q 3425 2491 3425 1978 
L 3425 0 
L 2847 0 
L 2847 2094 
Q 2847 2600 2669 2842 
Q 2491 3084 2119 3084 
Q 1678 3084 1418 2786 
Q 1159 2488 1159 1978 
L 1159 0 
L 581 0 
L 581 3500 
L 1159 3500 
L 1159 2956 
Q 1356 3278 1631 3431 
Q 1906 3584 2284 3584 
Q 2666 3584 2933 3390 
Q 3200 3197 3328 2828 
z
" transform="scale(0.015625)"/>
       <path id="DejaVuSans-48" d="M 3597 1894 
L 3597 1613 
L 953 1613 
Q 991 1019 1311 708 
Q 1631 397 2203 397 
Q 2534 397 2845 478 
Q 3156 559 3463 722 
L 3463 178 
Q 3153 47 2828 -22 
Q 2503 -91 2169 -91 
Q 1331 -91 842 396 
Q 353 884 353 1716 
Q 353 2575 817 3079 
Q 1281 3584 2069 3584 
Q 2775 3584 3186 3129 
Q 3597 2675 3597 1894 
z
M 3022 2063 
Q 3016 2534 2758 2815 
Q 2500 3097 2075 3097 
Q 1594 3097 1305 2825 
Q 1016 2553 972 2059 
L 3022 2063 
z
" transform="scale(0.015625)"/>
       <path id="DejaVuSans-3" transform="scale(0.015625)"/>
       <path id="DejaVuSans-3e" d="M 550 4863 
L 1875 4863 
L 1875 4416 
L 1125 4416 
L 1125 -397 
L 1875 -397 
L 1875 -844 
L 550 -844 
L 550 4863 
z
" transform="scale(0.015625)"/>
       <path id="DejaVuSans-56" d="M 2834 3397 
L 2834 2853 
Q 2591 2978 2328 3040 
Q 2066 3103 1784 3103 
Q 1356 3103 1142 2972 
Q 928 2841 928 2578 
Q 928 2378 1081 2264 
Q 1234 2150 1697 2047 
L 1894 2003 
Q 2506 1872 2764 1633 
Q 3022 1394 3022 966 
Q 3022 478 2636 193 
Q 2250 -91 1575 -91 
Q 1294 -91 989 -36 
Q 684 19 347 128 
L 347 722 
Q 666 556 975 473 
Q 1284 391 1588 391 
Q 1994 391 2212 530 
Q 2431 669 2431 922 
Q 2431 1156 2273 1281 
Q 2116 1406 1581 1522 
L 1381 1569 
Q 847 1681 609 1914 
Q 372 2147 372 2553 
Q 372 3047 722 3315 
Q 1072 3584 1716 3584 
Q 2034 3584 2315 3537 
Q 2597 3491 2834 3397 
z
" transform="scale(0.015625)"/>
       <path id="DejaVuSans-40" d="M 1947 4863 
L 1947 -844 
L 622 -844 
L 622 -397 
L 1369 -397 
L 1369 4416 
L 622 4416 
L 622 4863 
L 1947 4863 
z
" transform="scale(0.015625)"/>
      </defs>
      <use xlink:href="#DejaVuSans-57"/>
      <use xlink:href="#DejaVuSans-4c" transform="translate(39.203125 0)"/>
      <use xlink:href="#DejaVuSans-50" transform="translate(66.984375 0)"/>
      <use xlink:href="#DejaVuSans-48" transform="translate(164.390625 0)"/>
      <use xlink:href="#DejaVuSans-3" transform="translate(225.921875 0)"/>
      <use xlink:href="#DejaVuSans-3e" transform="translate(257.703125 0)"/>
      <use xlink:href="#DejaVuSans-56" transform="translate(296.71875 0)"/>
      <use xlink:href="#DejaVuSans-40" transform="translate(348.8125 0)"/>
     </g>
    </g>
   </g>
   <g id="matplotlib.axis_2">
    <g id="ytick_1">
     <g id="line2d_7">
      <defs>
       <path id="maa6c43bc15" d="M 0 0 
L -3.5 0 
" style="stroke: #7f7f7f; stroke-width: 1.8"/>
      </defs>
      <g>
       <use xlink:href="#maa6c43bc15" x="28.942188" y="231.235345" style="fill: #7f7f7f; stroke: #7f7f7f; stroke-width: 1.8"/>
      </g>
     </g>
     <g id="text_8">
      <!-- −8 -->
      <g style="fill: #7f7f7f" transform="translate(7.2 235.034173) scale(0.1 -0.1)">
       <defs>
        <path id="DejaVuSans-c9c" d="M 678 2272 
L 4684 2272 
L 4684 1741 
L 678 1741 
L 678 2272 
z
" transform="scale(0.015625)"/>
       </defs>
       <use xlink:href="#DejaVuSans-c9c"/>
       <use xlink:href="#DejaVuSans-1b" transform="translate(83.796875 0)"/>
      </g>
     </g>
    </g>
    <g id="ytick_2">
     <g id="line2d_8">
      <g>
       <use xlink:href="#maa6c43bc15" x="28.942188" y="204.869128" style="fill: #7f7f7f; stroke: #7f7f7f; stroke-width: 1.8"/>
      </g>
     </g>
     <g id="text_9">
      <!-- −6 -->
      <g style="fill: #7f7f7f" transform="translate(7.2 208.667956) scale(0.1 -0.1)">
       <use xlink:href="#DejaVuSans-c9c"/>
       <use xlink:href="#DejaVuSans-19" transform="translate(83.796875 0)"/>
      </g>
     </g>
    </g>
    <g id="ytick_3">
     <g id="line2d_9">
      <g>
       <use xlink:href="#maa6c43bc15" x="28.942188" y="178.502912" style="fill: #7f7f7f; stroke: #7f7f7f; stroke-width: 1.8"/>
      </g>
     </g>
     <g id="text_10">
      <!-- −4 -->
      <g style="fill: #7f7f7f" transform="translate(7.2 182.30174) scale(0.1 -0.1)">
       <use xlink:href="#DejaVuSans-c9c"/>
       <use xlink:href="#DejaVuSans-17" transform="translate(83.796875 0)"/>
      </g>
     </g>
    </g>
    <g id="ytick_4">
     <g id="line2d_10">
      <g>
       <use xlink:href="#maa6c43bc15" x="28.942188" y="152.136695" style="fill: #7f7f7f; stroke: #7f7f7f; stroke-width: 1.8"/>
      </g>
     </g>
     <g id="text_11">
      <!-- −2 -->
      <g style="fill: #7f7f7f" transform="translate(7.2 155.935523) scale(0.1 -0.1)">
       <use xlink:href="#DejaVuSans-c9c"/>
       <use xlink:href="#DejaVuSans-15" transform="translate(83.796875 0)"/>
      </g>
     </g>
    </g>
    <g id="ytick_5">
     <g id="line2d_11">
      <g>
       <use xlink:href="#maa6c43bc15" x="28.942188" y="125.770479" style="fill: #7f7f7f; stroke: #7f7f7f; stroke-width: 1.8"/>
      </g>
     </g>
     <g id="text_12">
      <!-- 0 -->
      <g style="fill: #7f7f7f" transform="translate(15.579688 129.569307) scale(0.1 -0.1)">
       <use xlink:href="#DejaVuSans-13"/>
      </g>
     </g>
    </g>
    <g id="ytick_6">
     <g id="line2d_12">
      <g>
       <use xlink:href="#maa6c43bc15" x="28.942188" y="99.404262" style="fill: #7f7f7f; stroke: #7f7f7f; stroke-width: 1.8"/>
      </g>
     </g>
     <g id="text_13">
      <!-- 2 -->
      <g style="fill: #7f7f7f" transform="translate(15.579688 103.20309) scale(0.1 -0.1)">
       <use xlink:href="#DejaVuSans-15"/>
      </g>
     </g>
    </g>
    <g id="ytick_7">
     <g id="line2d_13">
      <g>
       <use xlink:href="#maa6c43bc15" x="28.942188" y="73.038046" style="fill: #7f7f7f; stroke: #7f7f7f; stroke-width: 1.8"/>
      </g>
     </g>
     <g id="text_14">
      <!-- 4 -->
      <g style="fill: #7f7f7f" transform="translate(15.579688 76.836874) scale(0.1 -0.1)">
       <use xlink:href="#DejaVuSans-17"/>
      </g>
     </g>
    </g>
    <g id="ytick_8">
     <g id="line2d_14">
      <g>
       <use xlink:href="#maa6c43bc15" x="28.942188" y="46.671829" style="fill: #7f7f7f; stroke: #7f7f7f; stroke-width: 1.8"/>
      </g>
     </g>
     <g id="text_15">
      <!-- 6 -->
      <g style="fill: #7f7f7f" transform="translate(15.579688 50.470657) scale(0.1 -0.1)">
       <use xlink:href="#DejaVuSans-19"/>
      </g>
     </g>
    </g>
    <g id="ytick_9">
     <g id="line2d_15">
      <g>
       <use xlink:href="#maa6c43bc15" x="28.942188" y="20.305613" style="fill: #7f7f7f; stroke: #7f7f7f; stroke-width: 1.8"/>
      </g>
     </g>
     <g id="text_16">
      <!-- 8 -->
      <g style="fill: #7f7f7f" transform="translate(15.579688 24.104441) scale(0.1 -0.1)">
       <use xlink:href="#DejaVuSans-1b"/>
      </g>
     </g>
    </g>
   </g>
   <g id="line2d_16">
    <path d="M 53.153906 125.770479 
L 57.656385 113.638963 
L 59.544522 112.638342 
L 61.142176 114.218033 
L 63.611277 120.307721 
L 70.437617 138.617772 
L 72.035271 138.720078 
L 73.778166 136.337623 
L 76.682991 128.077827 
L 82.056918 113.395049 
L 83.945054 112.713119 
L 85.542708 114.551726 
L 88.157051 121.382883 
L 94.402425 138.406775 
L 96.14532 138.778066 
L 97.888216 136.532368 
L 100.793041 128.403277 
L 106.312209 113.338933 
L 108.200345 112.736976 
L 109.797999 114.639612 
L 112.412342 121.539444 
L 118.512475 138.30836 
L 120.25537 138.827839 
L 121.853024 136.989231 
L 124.467367 130.158075 
L 130.712741 113.134182 
L 132.455637 112.762891 
L 134.198532 115.00859 
L 137.103357 123.137681 
L 142.622525 138.202025 
L 144.510661 138.803982 
L 146.108315 136.901345 
L 148.722658 130.001513 
L 154.822791 113.232598 
L 156.565686 112.713119 
L 158.16334 114.551726 
L 160.777683 121.382883 
L 167.023057 138.406775 
L 168.765953 138.778066 
L 170.508848 136.532368 
L 173.413673 128.403277 
L 178.932841 113.338933 
L 180.820978 112.736976 
L 182.418631 114.639612 
L 185.032974 121.539444 
L 191.133107 138.30836 
L 192.876002 138.827839 
L 194.473656 136.989231 
L 197.087999 130.158075 
L 203.333373 113.134182 
L 205.076269 112.762891 
L 206.819164 115.00859 
L 209.723989 123.137681 
L 215.243157 138.202025 
L 217.131294 138.803982 
L 218.728947 136.901345 
L 221.34329 130.001513 
L 227.443423 113.232598 
L 229.186319 112.713119 
L 230.783972 114.551726 
L 233.398315 121.382883 
L 239.64369 138.406775 
L 241.386585 138.778066 
L 243.12948 136.532368 
L 246.034305 128.403277 
L 251.553473 113.338933 
L 253.44161 112.736976 
L 255.039264 114.639612 
L 257.653606 121.539444 
L 263.753739 138.30836 
L 265.496635 138.827839 
L 267.094288 136.989231 
L 269.708631 130.158075 
L 275.954006 113.134182 
L 277.696901 112.762891 
L 279.439796 115.00859 
L 282.344621 123.137681 
L 287.863789 138.202025 
L 289.751926 138.803982 
L 291.34958 136.901345 
L 293.963922 130.001513 
L 300.064055 113.232598 
L 301.806951 112.713119 
L 303.404605 114.551726 
L 306.018947 121.382883 
L 312.264322 138.406775 
L 314.007217 138.778066 
L 315.750112 136.532368 
L 318.654937 128.403277 
L 324.174105 113.338933 
L 326.062242 112.736976 
L 327.659896 114.639612 
L 330.274238 121.539444 
L 336.374372 138.30836 
L 338.117267 138.827839 
L 339.714921 136.989231 
L 342.329263 130.158075 
L 348.574638 113.134182 
L 350.317533 112.762891 
L 352.060428 115.00859 
L 354.965253 123.137681 
L 360.484421 138.202025 
L 362.372558 138.803982 
L 363.970212 136.901345 
L 366.584554 130.001513 
L 372.684688 113.232598 
L 374.427583 112.713119 
L 376.025237 114.551726 
L 378.639579 121.382883 
L 384.884954 138.406775 
L 386.627849 138.778066 
L 388.370744 136.532368 
L 391.275569 128.403277 
L 396.794737 113.338933 
L 398.682874 112.736976 
L 400.280528 114.639612 
L 402.894871 121.539444 
L 408.995004 138.30836 
L 410.737899 138.827839 
L 412.335553 136.989231 
L 414.949895 130.158075 
L 421.19527 113.134182 
L 422.938165 112.762891 
L 424.68106 115.00859 
L 427.585885 123.137681 
L 433.105054 138.202025 
L 434.99319 138.803982 
L 436.590844 136.901345 
L 439.205187 130.001513 
L 445.30532 113.232598 
L 447.048215 112.713119 
L 448.645869 114.551726 
L 451.260212 121.382883 
L 457.505586 138.406775 
L 459.248481 138.778066 
L 460.991376 136.532368 
L 463.896202 128.403277 
L 469.41537 113.338933 
L 471.303506 112.736976 
L 472.90116 114.639612 
L 475.515503 121.539444 
L 481.615636 138.30836 
L 483.358531 138.827839 
L 484.956185 136.989231 
L 487.570528 130.158075 
L 493.815902 113.134182 
L 495.558797 112.762891 
L 497.301692 115.00859 
L 500.206518 123.137681 
L 505.725686 138.202025 
L 507.613822 138.803982 
L 509.211476 136.901345 
L 511.825819 130.001513 
L 517.925952 113.232598 
L 519.668847 112.713119 
L 521.266501 114.551726 
L 523.880844 121.382883 
L 530.126218 138.406775 
L 531.869113 138.778066 
L 533.612008 136.532368 
L 536.516834 128.403277 
L 537.388281 125.439186 
L 537.388281 125.439186 
" clip-path="url(#p6de124f303)" style="fill: none; stroke: #e41a1c; stroke-width: 2; stroke-linecap: square"/>
   </g>
   <g id="line2d_17">
    <path d="M 53.153906 125.770479 
L 54.606319 119.271962 
L 55.623008 92.541969 
L 58.527833 43.342472 
L 60.996935 28.530629 
L 61.432658 31.062939 
L 62.158865 40.339524 
L 64.047001 57.747863 
L 65.06369 69.536188 
L 71.454306 218.954085 
L 71.890029 218.730771 
L 73.632925 214.947805 
L 76.828232 173.847515 
L 78.425886 134.265157 
L 81.766435 38.356529 
L 83.945054 22.171371 
L 84.235537 22.615286 
L 85.106984 29.601235 
L 87.285603 51.244363 
L 91.4976 162.056339 
L 94.111943 213.481389 
L 95.564355 223.481413 
L 96.000079 221.93672 
L 96.14532 221.698901 
L 96.435803 222.596931 
L 97.307251 223.63532 
L 97.597733 223.094475 
L 99.631111 207.079825 
L 101.664489 162.61052 
L 102.826419 125.649553 
L 105.586003 45.803866 
L 107.474139 29.135564 
L 107.61938 28.746755 
L 108.055104 30.349857 
L 108.78131 32.074161 
L 109.071793 31.149624 
L 109.507517 29.686622 
L 109.943241 31.316979 
L 111.105171 41.53372 
L 116.043374 162.44887 
L 119.09344 228.32582 
L 120.110129 230.941404 
L 120.400612 230.356656 
L 124.176884 200.14382 
L 130.5675 36.414822 
L 131.293706 32.894138 
L 131.72943 33.662688 
L 132.019913 34.661343 
L 132.455637 33.520837 
L 133.327084 28.43733 
L 133.908049 30.519538 
L 134.343773 30.872894 
L 136.812874 61.529105 
L 139.136735 126.496116 
L 143.348731 224.785926 
L 144.220179 229.009332 
L 144.655903 228.305317 
L 147.996452 199.603029 
L 150.610795 144.813546 
L 156.856169 22.974986 
L 157.437134 22.280969 
L 157.727617 22.673394 
L 158.744305 28.514993 
L 159.615753 39.810764 
L 163.682508 124.847352 
L 167.31354 212.264869 
L 168.765953 224.603073 
L 169.6374 221.956579 
L 169.782641 222.099892 
L 170.073124 221.398077 
L 171.235054 210.739862 
L 174.430362 139.032082 
L 180.240012 29.137264 
L 180.675736 28.240326 
L 182.128149 20.445831 
L 182.563873 21.146047 
L 183.290079 28.847116 
L 186.194904 80.81917 
L 189.825936 197.938673 
L 193.456968 225.811168 
L 193.74745 225.247318 
L 196.216552 207.71331 
L 198.39517 168.06474 
L 203.914339 28.061892 
L 205.076269 24.820856 
L 205.22151 25.038366 
L 206.238199 26.685483 
L 210.014472 68.792363 
L 215.969363 219.289818 
L 217.276535 224.35506 
L 217.567017 223.743431 
L 219.455154 214.477184 
L 222.795703 161.958446 
L 227.152941 37.718242 
L 228.895836 24.738609 
L 229.767284 26.348216 
L 232.091144 32.958372 
L 235.14121 84.216086 
L 240.950861 221.448839 
L 241.386585 221.968247 
L 241.822309 221.151829 
L 242.838997 223.006289 
L 242.984239 223.232439 
L 243.274721 222.096097 
L 244.29141 213.803166 
L 246.034305 175.762521 
L 251.117749 48.236148 
L 253.151127 31.550393 
L 253.296368 31.734297 
L 254.022575 37.459141 
L 254.748781 35.393967 
L 255.474987 32.713567 
L 256.055952 34.37166 
L 256.782159 41.737961 
L 258.960778 87.234266 
L 264.189463 216.478974 
L 265.496635 227.286135 
L 265.932358 227.122369 
L 267.675254 219.548823 
L 271.015803 156.238086 
L 275.373041 37.833057 
L 277.406418 22.867166 
L 278.568348 21.720463 
L 278.71359 22.178037 
L 281.182691 37.204266 
L 283.216069 84.693692 
L 288.589996 212.992969 
L 290.18765 223.586303 
L 290.332891 223.026206 
L 293.237716 205.133178 
L 296.287783 127.470283 
L 299.192608 48.405228 
L 302.678398 23.634893 
L 302.823639 23.417828 
L 303.259363 24.529215 
L 304.421293 27.805238 
L 305.728465 48.63863 
L 307.326119 82.106752 
L 311.828598 198.823528 
L 314.442941 223.403071 
L 314.588182 223.351306 
L 315.750112 221.005637 
L 318.654937 180.153388 
L 321.124039 108.648397 
L 325.045553 25.962885 
L 325.626518 25.548007 
L 326.062242 26.143254 
L 326.352724 26.510507 
L 326.933689 26.17306 
L 328.095619 23.458886 
L 328.531343 25.057509 
L 329.548032 35.854043 
L 330.855203 72.540539 
L 336.083889 215.935034 
L 338.407749 225.925203 
L 339.133956 226.574596 
L 339.424438 225.896196 
L 341.167333 209.103321 
L 345.234089 97.369883 
L 347.848431 37.930414 
L 349.300844 27.687378 
L 349.446085 27.742175 
L 350.172292 29.238696 
L 354.384288 44.593064 
L 355.836701 70.015422 
L 361.646352 221.058498 
L 362.227317 225.596956 
L 362.66304 223.756109 
L 367.456002 177.221889 
L 372.829929 39.898674 
L 374.718065 23.845869 
L 375.008548 23.137586 
L 375.444272 24.53799 
L 376.46096 32.082426 
L 379.365786 71.45088 
L 385.030195 210.388354 
L 387.354055 225.577261 
L 387.499297 225.716007 
L 387.644538 225.231192 
L 389.09695 212.744583 
L 390.404122 193.927259 
L 397.666185 22.376096 
L 399.699563 17.854506 
L 399.844804 18.20425 
L 400.861493 23.742554 
L 402.749629 50.025926 
L 405.07349 99.977883 
L 409.72121 217.254645 
L 410.88314 221.45235 
L 411.318864 220.563123 
L 411.609346 220.495134 
L 411.754588 219.839475 
L 414.36893 197.01425 
L 416.402308 152.104258 
L 419.888098 53.328611 
L 423.083406 19.897854 
L 423.809613 19.698352 
L 423.954854 19.91784 
L 426.133473 32.272899 
L 427.440644 59.665625 
L 433.976501 216.199986 
L 435.138431 221.041628 
L 435.574155 220.238673 
L 438.188498 209.614168 
L 441.383806 143.63955 
L 442.400494 110.71003 
L 444.869596 44.643444 
L 446.757732 22.714099 
L 447.048215 22.54376 
L 447.193456 22.980587 
L 450.243523 43.127226 
L 453.293589 112.653897 
L 458.522275 219.437907 
L 459.684205 221.350084 
L 460.119929 223.193088 
L 460.555652 221.984809 
L 462.153306 211.620354 
L 465.058132 148.919157 
L 469.705852 30.404605 
L 471.593989 20.559059 
L 471.884471 21.13774 
L 472.90116 24.868838 
L 473.627366 24.582571 
L 474.353573 31.02751 
L 476.967915 93.94808 
L 481.034671 203.551952 
L 481.906118 211.866201 
L 483.794255 226.590353 
L 484.665702 225.779868 
L 485.53715 219.259598 
L 488.441975 170.045078 
L 491.782524 72.509529 
L 494.396867 34.854564 
L 496.720727 22.40329 
L 496.865969 22.854386 
L 497.882657 29.149214 
L 500.351759 63.687575 
L 503.256584 155.794316 
L 505.870927 204.707433 
L 506.597133 212.301387 
L 507.904305 223.147372 
L 508.340028 222.706035 
L 508.630511 222.61231 
L 508.775752 222.220551 
L 509.6472 217.286962 
L 511.390095 197.794178 
L 519.087882 20.652647 
L 519.233123 20.808849 
L 520.976018 25.004262 
L 524.316567 59.493844 
L 529.835736 210.28033 
L 531.723872 222.040131 
L 532.740561 225.060758 
L 533.176285 224.387823 
L 535.064421 206.398183 
L 536.371592 184.455983 
L 537.388281 152.759843 
L 537.388281 152.759843 
" clip-path="url(#p6de124f303)" style="fill: none; stroke: #377eb8; stroke-width: 2; stroke-linecap: square"/>
   </g>
   <g id="patch_3">
    <path d="M 28.942188 241.599141 
L 28.942188 7.2 
" style="fill: none; stroke: #7f7f7f; stroke-width: 1.8; stroke-linejoin: miter; stroke-linecap: square"/>
   </g>
   <g id="patch_4">
    <path d="M 28.942188 241.599141 
L 561.6 241.599141 
" style="fill: none; stroke: #7f7f7f; stroke-width: 1.8; stroke-linejoin: miter; stroke-linecap: square"/>
   </g>
   <g id="legend_1">
    <g id="line2d_18">
     <path d="M 37.942188 211.696016 
L 47.942188 211.696016 
L 57.942188 211.696016 
" style="fill: none; stroke: #e41a1c; stroke-width: 2; stroke-linecap: square"/>
    </g>
    <g id="text_17">
     <!-- Src -->
     <g style="fill: #7f7f7f" transform="translate(65.942188 215.196016) scale(0.1 -0.1)">
      <defs>
       <path id="DejaVuSans-36" d="M 3425 4513 
L 3425 3897 
Q 3066 4069 2747 4153 
Q 2428 4238 2131 4238 
Q 1616 4238 1336 4038 
Q 1056 3838 1056 3469 
Q 1056 3159 1242 3001 
Q 1428 2844 1947 2747 
L 2328 2669 
Q 3034 2534 3370 2195 
Q 3706 1856 3706 1288 
Q 3706 609 3251 259 
Q 2797 -91 1919 -91 
Q 1588 -91 1214 -16 
Q 841 59 441 206 
L 441 856 
Q 825 641 1194 531 
Q 1563 422 1919 422 
Q 2459 422 2753 634 
Q 3047 847 3047 1241 
Q 3047 1584 2836 1778 
Q 2625 1972 2144 2069 
L 1759 2144 
Q 1053 2284 737 2584 
Q 422 2884 422 3419 
Q 422 4038 858 4394 
Q 1294 4750 2059 4750 
Q 2388 4750 2728 4690 
Q 3069 4631 3425 4513 
z
" transform="scale(0.015625)"/>
       <path id="DejaVuSans-55" d="M 2631 2963 
Q 2534 3019 2420 3045 
Q 2306 3072 2169 3072 
Q 1681 3072 1420 2755 
Q 1159 2438 1159 1844 
L 1159 0 
L 581 0 
L 581 3500 
L 1159 3500 
L 1159 2956 
Q 1341 3275 1631 3429 
Q 1922 3584 2338 3584 
Q 2397 3584 2469 3576 
Q 2541 3569 2628 3553 
L 2631 2963 
z
" transform="scale(0.015625)"/>
       <path id="DejaVuSans-46" d="M 3122 3366 
L 3122 2828 
Q 2878 2963 2633 3030 
Q 2388 3097 2138 3097 
Q 1578 3097 1268 2742 
Q 959 2388 959 1747 
Q 959 1106 1268 751 
Q 1578 397 2138 397 
Q 2388 397 2633 464 
Q 2878 531 3122 666 
L 3122 134 
Q 2881 22 2623 -34 
Q 2366 -91 2075 -91 
Q 1284 -91 818 406 
Q 353 903 353 1747 
Q 353 2603 823 3093 
Q 1294 3584 2113 3584 
Q 2378 3584 2631 3529 
Q 2884 3475 3122 3366 
z
" transform="scale(0.015625)"/>
      </defs>
      <use xlink:href="#DejaVuSans-36"/>
      <use xlink:href="#DejaVuSans-55" transform="translate(63.484375 0)"/>
      <use xlink:href="#DejaVuSans-46" transform="translate(102.390625 0)"/>
     </g>
    </g>
    <g id="line2d_19">
     <path d="M 37.942188 226.696797 
L 47.942188 226.696797 
L 57.942188 226.696797 
" style="fill: none; stroke: #377eb8; stroke-width: 2; stroke-linecap: square"/>
    </g>
    <g id="text_18">
     <!-- AMP -->
     <g style="fill: #7f7f7f" transform="translate(65.942188 230.196797) scale(0.1 -0.1)">
      <defs>
       <path id="DejaVuSans-24" d="M 2188 4044 
L 1331 1722 
L 3047 1722 
L 2188 4044 
z
M 1831 4666 
L 2547 4666 
L 4325 0 
L 3669 0 
L 3244 1197 
L 1141 1197 
L 716 0 
L 50 0 
L 1831 4666 
z
" transform="scale(0.015625)"/>
       <path id="DejaVuSans-30" d="M 628 4666 
L 1569 4666 
L 2759 1491 
L 3956 4666 
L 4897 4666 
L 4897 0 
L 4281 0 
L 4281 4097 
L 3078 897 
L 2444 897 
L 1241 4097 
L 1241 0 
L 628 0 
L 628 4666 
z
" transform="scale(0.015625)"/>
       <path id="DejaVuSans-33" d="M 1259 4147 
L 1259 2394 
L 2053 2394 
Q 2494 2394 2734 2622 
Q 2975 2850 2975 3272 
Q 2975 3691 2734 3919 
Q 2494 4147 2053 4147 
L 1259 4147 
z
M 628 4666 
L 2053 4666 
Q 2838 4666 3239 4311 
Q 3641 3956 3641 3272 
Q 3641 2581 3239 2228 
Q 2838 1875 2053 1875 
L 1259 1875 
L 1259 0 
L 628 0 
L 628 4666 
z
" transform="scale(0.015625)"/>
      </defs>
      <use xlink:href="#DejaVuSans-24"/>
      <use xlink:href="#DejaVuSans-30" transform="translate(68.40625 0)"/>
      <use xlink:href="#DejaVuSans-33" transform="translate(154.6875 0)"/>
     </g>
    </g>
   </g>
  </g>
 </g>
 <defs>
  <clipPath id="p6de124f303">
   <rect x="28.942188" y="7.2" width="532.657812" height="234.399141"/>
  </clipPath>
 </defs>
</svg>
