<?xml version="1.0" encoding="utf-8" standalone="no"?>
<!DOCTYPE svg PUBLIC "-//W3C//DTD SVG 1.1//EN"
  "http://www.w3.org/Graphics/SVG/1.1/DTD/svg11.dtd">
<svg xmlns:xlink="http://www.w3.org/1999/xlink" width="568.8pt" height="280.8pt" viewBox="0 0 568.8 280.8" xmlns="http://www.w3.org/2000/svg" version="1.1">
 <metadata>
  <rdf:RDF xmlns:dc="http://purl.org/dc/elements/1.1/" xmlns:cc="http://creativecommons.org/ns#" xmlns:rdf="http://www.w3.org/1999/02/22-rdf-syntax-ns#">
   <cc:Work>
    <dc:type rdf:resource="http://purl.org/dc/dcmitype/StillImage"/>
    <dc:date>2026-05-25T07:48:17.153043</dc:date>
    <dc:format>image/svg+xml</dc:format>
    <dc:creator>
     <cc:Agent>
      <dc:title>Matplotlib v3.10.9, https://matplotlib.org/</dc:title>
     </cc:Agent>
    </dc:creator>
   </cc:Work>
  </rdf:RDF>
 </metadata>
 <defs>
  <style type="text/css">*{stroke-linejoin: round; stroke-linecap: butt}</style>
 </defs>
 <g id="figure_1">
  <g id="patch_1">
   <path d="M 0 280.8 
L 568.8 280.8 
L 568.8 0 
L 0 0 
L 0 280.8 
z
" style="fill: none"/>
  </g>
  <g id="axes_1">
   <g id="patch_2">
    <path d="M 28.942188 242.275937 
L 561.6 242.275937 
L 561.6 7.2 
L 28.942188 7.2 
L 28.942188 242.275937 
z
" style="fill: none"/>
   </g>
   <g id="matplotlib.axis_1">
    <g id="xtick_1">
     <g id="line2d_1">
      <defs>
       <path id="m8e95963ecb" d="M 0 0 
L 0 3.5 
" style="stroke: #7f7f7f; stroke-width: 1.8"/>
      </defs>
      <g>
       <use xlink:href="#m8e95963ecb" x="53.153906" y="242.275937" style="fill: #7f7f7f; stroke: #7f7f7f; stroke-width: 1.8"/>
      </g>
     </g>
     <g id="text_1">
      <!-- 0.00000 -->
      <g style="fill: #7f7f7f" transform="translate(32.477344 256.874375) scale(0.1 -0.1)">
       <defs>
        <path id="DejaVuSans-30" d="M 2034 4250 
Q 1547 4250 1301 3770 
Q 1056 3291 1056 2328 
Q 1056 1369 1301 889 
Q 1547 409 2034 409 
Q 2525 409 2770 889 
Q 3016 1369 3016 2328 
Q 3016 3291 2770 3770 
Q 2525 4250 2034 4250 
z
M 2034 4750 
Q 2819 4750 3233 4129 
Q 3647 3509 3647 2328 
Q 3647 1150 3233 529 
Q 2819 -91 2034 -91 
Q 1250 -91 836 529 
Q 422 1150 422 2328 
Q 422 3509 836 4129 
Q 1250 4750 2034 4750 
z
" transform="scale(0.015625)"/>
        <path id="DejaVuSans-2e" d="M 684 794 
L 1344 794 
L 1344 0 
L 684 0 
L 684 794 
z
" transform="scale(0.015625)"/>
       </defs>
       <use xlink:href="#DejaVuSans-30"/>
       <use xlink:href="#DejaVuSans-2e" transform="translate(63.623047 0)"/>
       <use xlink:href="#DejaVuSans-30" transform="translate(95.410156 0)"/>
       <use xlink:href="#DejaVuSans-30" transform="translate(159.033203 0)"/>
       <use xlink:href="#DejaVuSans-30" transform="translate(222.65625 0)"/>
       <use xlink:href="#DejaVuSans-30" transform="translate(286.279297 0)"/>
       <use xlink:href="#DejaVuSans-30" transform="translate(349.902344 0)"/>
      </g>
     </g>
    </g>
    <g id="xtick_2">
     <g id="line2d_2">
      <g>
       <use xlink:href="#m8e95963ecb" x="149.981416" y="242.275937" style="fill: #7f7f7f; stroke: #7f7f7f; stroke-width: 1.8"/>
      </g>
     </g>
     <g id="text_2">
      <!-- 0.00002 -->
      <g style="fill: #7f7f7f" transform="translate(129.304853 256.874375) scale(0.1 -0.1)">
       <defs>
        <path id="DejaVuSans-32" d="M 1228 531 
L 3431 531 
L 3431 0 
L 469 0 
L 469 531 
Q 828 903 1448 1529 
Q 2069 2156 2228 2338 
Q 2531 2678 2651 2914 
Q 2772 3150 2772 3378 
Q 2772 3750 2511 3984 
Q 2250 4219 1831 4219 
Q 1534 4219 1204 4116 
Q 875 4013 500 3803 
L 500 4441 
Q 881 4594 1212 4672 
Q 1544 4750 1819 4750 
Q 2544 4750 2975 4387 
Q 3406 4025 3406 3419 
Q 3406 3131 3298 2873 
Q 3191 2616 2906 2266 
Q 2828 2175 2409 1742 
Q 1991 1309 1228 531 
z
" transform="scale(0.015625)"/>
       </defs>
       <use xlink:href="#DejaVuSans-30"/>
       <use xlink:href="#DejaVuSans-2e" transform="translate(63.623047 0)"/>
       <use xlink:href="#DejaVuSans-30" transform="translate(95.410156 0)"/>
       <use xlink:href="#DejaVuSans-30" transform="translate(159.033203 0)"/>
       <use xlink:href="#DejaVuSans-30" transform="translate(222.65625 0)"/>
       <use xlink:href="#DejaVuSans-30" transform="translate(286.279297 0)"/>
       <use xlink:href="#DejaVuSans-32" transform="translate(349.902344 0)"/>
      </g>
     </g>
    </g>
    <g id="xtick_3">
     <g id="line2d_3">
      <g>
       <use xlink:href="#m8e95963ecb" x="246.808925" y="242.275937" style="fill: #7f7f7f; stroke: #7f7f7f; stroke-width: 1.8"/>
      </g>
     </g>
     <g id="text_3">
      <!-- 0.00004 -->
      <g style="fill: #7f7f7f" transform="translate(226.132363 256.874375) scale(0.1 -0.1)">
       <defs>
        <path id="DejaVuSans-34" d="M 2419 4116 
L 825 1625 
L 2419 1625 
L 2419 4116 
z
M 2253 4666 
L 3047 4666 
L 3047 1625 
L 3713 1625 
L 3713 1100 
L 3047 1100 
L 3047 0 
L 2419 0 
L 2419 1100 
L 313 1100 
L 313 1709 
L 2253 4666 
z
" transform="scale(0.015625)"/>
       </defs>
       <use xlink:href="#DejaVuSans-30"/>
       <use xlink:href="#DejaVuSans-2e" transform="translate(63.623047 0)"/>
       <use xlink:href="#DejaVuSans-30" transform="translate(95.410156 0)"/>
       <use xlink:href="#DejaVuSans-30" transform="translate(159.033203 0)"/>
       <use xlink:href="#DejaVuSans-30" transform="translate(222.65625 0)"/>
       <use xlink:href="#DejaVuSans-30" transform="translate(286.279297 0)"/>
       <use xlink:href="#DejaVuSans-34" transform="translate(349.902344 0)"/>
      </g>
     </g>
    </g>
    <g id="xtick_4">
     <g id="line2d_4">
      <g>
       <use xlink:href="#m8e95963ecb" x="343.636435" y="242.275937" style="fill: #7f7f7f; stroke: #7f7f7f; stroke-width: 1.8"/>
      </g>
     </g>
     <g id="text_4">
      <!-- 0.00006 -->
      <g style="fill: #7f7f7f" transform="translate(322.959872 256.874375) scale(0.1 -0.1)">
       <defs>
        <path id="DejaVuSans-36" d="M 2113 2584 
Q 1688 2584 1439 2293 
Q 1191 2003 1191 1497 
Q 1191 994 1439 701 
Q 1688 409 2113 409 
Q 2538 409 2786 701 
Q 3034 994 3034 1497 
Q 3034 2003 2786 2293 
Q 2538 2584 2113 2584 
z
M 3366 4563 
L 3366 3988 
Q 3128 4100 2886 4159 
Q 2644 4219 2406 4219 
Q 1781 4219 1451 3797 
Q 1122 3375 1075 2522 
Q 1259 2794 1537 2939 
Q 1816 3084 2150 3084 
Q 2853 3084 3261 2657 
Q 3669 2231 3669 1497 
Q 3669 778 3244 343 
Q 2819 -91 2113 -91 
Q 1303 -91 875 529 
Q 447 1150 447 2328 
Q 447 3434 972 4092 
Q 1497 4750 2381 4750 
Q 2619 4750 2861 4703 
Q 3103 4656 3366 4563 
z
" transform="scale(0.015625)"/>
       </defs>
       <use xlink:href="#DejaVuSans-30"/>
       <use xlink:href="#DejaVuSans-2e" transform="translate(63.623047 0)"/>
       <use xlink:href="#DejaVuSans-30" transform="translate(95.410156 0)"/>
       <use xlink:href="#DejaVuSans-30" transform="translate(159.033203 0)"/>
       <use xlink:href="#DejaVuSans-30" transform="translate(222.65625 0)"/>
       <use xlink:href="#DejaVuSans-30" transform="translate(286.279297 0)"/>
       <use xlink:href="#DejaVuSans-36" transform="translate(349.902344 0)"/>
      </g>
     </g>
    </g>
    <g id="xtick_5">
     <g id="line2d_5">
      <g>
       <use xlink:href="#m8e95963ecb" x="440.463944" y="242.275937" style="fill: #7f7f7f; stroke: #7f7f7f; stroke-width: 1.8"/>
      </g>
     </g>
     <g id="text_5">
      <!-- 0.00008 -->
      <g style="fill: #7f7f7f" transform="translate(419.787382 256.874375) scale(0.1 -0.1)">
       <defs>
        <path id="DejaVuSans-38" d="M 2034 2216 
Q 1584 2216 1326 1975 
Q 1069 1734 1069 1313 
Q 1069 891 1326 650 
Q 1584 409 2034 409 
Q 2484 409 2743 651 
Q 3003 894 3003 1313 
Q 3003 1734 2745 1975 
Q 2488 2216 2034 2216 
z
M 1403 2484 
Q 997 2584 770 2862 
Q 544 3141 544 3541 
Q 544 4100 942 4425 
Q 1341 4750 2034 4750 
Q 2731 4750 3128 4425 
Q 3525 4100 3525 3541 
Q 3525 3141 3298 2862 
Q 3072 2584 2669 2484 
Q 3125 2378 3379 2068 
Q 3634 1759 3634 1313 
Q 3634 634 3220 271 
Q 2806 -91 2034 -91 
Q 1263 -91 848 271 
Q 434 634 434 1313 
Q 434 1759 690 2068 
Q 947 2378 1403 2484 
z
M 1172 3481 
Q 1172 3119 1398 2916 
Q 1625 2713 2034 2713 
Q 2441 2713 2670 2916 
Q 2900 3119 2900 3481 
Q 2900 3844 2670 4047 
Q 2441 4250 2034 4250 
Q 1625 4250 1398 4047 
Q 1172 3844 1172 3481 
z
" transform="scale(0.015625)"/>
       </defs>
       <use xlink:href="#DejaVuSans-30"/>
       <use xlink:href="#DejaVuSans-2e" transform="translate(63.623047 0)"/>
       <use xlink:href="#DejaVuSans-30" transform="translate(95.410156 0)"/>
       <use xlink:href="#DejaVuSans-30" transform="translate(159.033203 0)"/>
       <use xlink:href="#DejaVuSans-30" transform="translate(222.65625 0)"/>
       <use xlink:href="#DejaVuSans-30" transform="translate(286.279297 0)"/>
       <use xlink:href="#DejaVuSans-38" transform="translate(349.902344 0)"/>
      </g>
     </g>
    </g>
    <g id="xtick_6">
     <g id="line2d_6">
      <g>
       <use xlink:href="#m8e95963ecb" x="537.291454" y="242.275937" style="fill: #7f7f7f; stroke: #7f7f7f; stroke-width: 1.8"/>
      </g>
     </g>
     <g id="text_6">
      <!-- 0.00010 -->
      <g style="fill: #7f7f7f" transform="translate(516.614891 256.874375) scale(0.1 -0.1)">
       <defs>
        <path id="DejaVuSans-31" d="M 794 531 
L 1825 531 
L 1825 4091 
L 703 3866 
L 703 4441 
L 1819 4666 
L 2450 4666 
L 2450 531 
L 3481 531 
L 3481 0 
L 794 0 
L 794 531 
z
" transform="scale(0.015625)"/>
       </defs>
       <use xlink:href="#DejaVuSans-30"/>
       <use xlink:href="#DejaVuSans-2e" transform="translate(63.623047 0)"/>
       <use xlink:href="#DejaVuSans-30" transform="translate(95.410156 0)"/>
       <use xlink:href="#DejaVuSans-30" transform="translate(159.033203 0)"/>
       <use xlink:href="#DejaVuSans-30" transform="translate(222.65625 0)"/>
       <use xlink:href="#DejaVuSans-31" transform="translate(286.279297 0)"/>
       <use xlink:href="#DejaVuSans-30" transform="translate(349.902344 0)"/>
      </g>
     </g>
    </g>
    <g id="text_7">
     <!-- time [s] -->
     <g style="fill: #7f7f7f" transform="translate(273.940547 271.312344) scale(0.11 -0.11)">
      <defs>
       <path id="DejaVuSans-74" d="M 1172 4494 
L 1172 3500 
L 2356 3500 
L 2356 3053 
L 1172 3053 
L 1172 1153 
Q 1172 725 1289 603 
Q 1406 481 1766 481 
L 2356 481 
L 2356 0 
L 1766 0 
Q 1100 0 847 248 
Q 594 497 594 1153 
L 594 3053 
L 172 3053 
L 172 3500 
L 594 3500 
L 594 4494 
L 1172 4494 
z
" transform="scale(0.015625)"/>
       <path id="DejaVuSans-69" d="M 603 3500 
L 1178 3500 
L 1178 0 
L 603 0 
L 603 3500 
z
M 603 4863 
L 1178 4863 
L 1178 4134 
L 603 4134 
L 603 4863 
z
" transform="scale(0.015625)"/>
       <path id="DejaVuSans-6d" d="M 3328 2828 
Q 3544 3216 3844 3400 
Q 4144 3584 4550 3584 
Q 5097 3584 5394 3201 
Q 5691 2819 5691 2113 
L 5691 0 
L 5113 0 
L 5113 2094 
Q 5113 2597 4934 2840 
Q 4756 3084 4391 3084 
Q 3944 3084 3684 2787 
Q 3425 2491 3425 1978 
L 3425 0 
L 2847 0 
L 2847 2094 
Q 2847 2600 2669 2842 
Q 2491 3084 2119 3084 
Q 1678 3084 1418 2786 
Q 1159 2488 1159 1978 
L 1159 0 
L 581 0 
L 581 3500 
L 1159 3500 
L 1159 2956 
Q 1356 3278 1631 3431 
Q 1906 3584 2284 3584 
Q 2666 3584 2933 3390 
Q 3200 3197 3328 2828 
z
" transform="scale(0.015625)"/>
       <path id="DejaVuSans-65" d="M 3597 1894 
L 3597 1613 
L 953 1613 
Q 991 1019 1311 708 
Q 1631 397 2203 397 
Q 2534 397 2845 478 
Q 3156 559 3463 722 
L 3463 178 
Q 3153 47 2828 -22 
Q 2503 -91 2169 -91 
Q 1331 -91 842 396 
Q 353 884 353 1716 
Q 353 2575 817 3079 
Q 1281 3584 2069 3584 
Q 2775 3584 3186 3129 
Q 3597 2675 3597 1894 
z
M 3022 2063 
Q 3016 2534 2758 2815 
Q 2500 3097 2075 3097 
Q 1594 3097 1305 2825 
Q 1016 2553 972 2059 
L 3022 2063 
z
" transform="scale(0.015625)"/>
       <path id="DejaVuSans-20" transform="scale(0.015625)"/>
       <path id="DejaVuSans-5b" d="M 550 4863 
L 1875 4863 
L 1875 4416 
L 1125 4416 
L 1125 -397 
L 1875 -397 
L 1875 -844 
L 550 -844 
L 550 4863 
z
" transform="scale(0.015625)"/>
       <path id="DejaVuSans-73" d="M 2834 3397 
L 2834 2853 
Q 2591 2978 2328 3040 
Q 2066 3103 1784 3103 
Q 1356 3103 1142 2972 
Q 928 2841 928 2578 
Q 928 2378 1081 2264 
Q 1234 2150 1697 2047 
L 1894 2003 
Q 2506 1872 2764 1633 
Q 3022 1394 3022 966 
Q 3022 478 2636 193 
Q 2250 -91 1575 -91 
Q 1294 -91 989 -36 
Q 684 19 347 128 
L 347 722 
Q 666 556 975 473 
Q 1284 391 1588 391 
Q 1994 391 2212 530 
Q 2431 669 2431 922 
Q 2431 1156 2273 1281 
Q 2116 1406 1581 1522 
L 1381 1569 
Q 847 1681 609 1914 
Q 372 2147 372 2553 
Q 372 3047 722 3315 
Q 1072 3584 1716 3584 
Q 2034 3584 2315 3537 
Q 2597 3491 2834 3397 
z
" transform="scale(0.015625)"/>
       <path id="DejaVuSans-5d" d="M 1947 4863 
L 1947 -844 
L 622 -844 
L 622 -397 
L 1369 -397 
L 1369 4416 
L 622 4416 
L 622 4863 
L 1947 4863 
z
" transform="scale(0.015625)"/>
      </defs>
      <use xlink:href="#DejaVuSans-74"/>
      <use xlink:href="#DejaVuSans-69" transform="translate(39.208984 0)"/>
      <use xlink:href="#DejaVuSans-6d" transform="translate(66.992188 0)"/>
      <use xlink:href="#DejaVuSans-65" transform="translate(164.404297 0)"/>
      <use xlink:href="#DejaVuSans-20" transform="translate(225.927734 0)"/>
      <use xlink:href="#DejaVuSans-5b" transform="translate(257.714844 0)"/>
      <use xlink:href="#DejaVuSans-73" transform="translate(296.728516 0)"/>
      <use xlink:href="#DejaVuSans-5d" transform="translate(348.828125 0)"/>
     </g>
    </g>
   </g>
   <g id="matplotlib.axis_2">
    <g id="ytick_1">
     <g id="line2d_7">
      <defs>
       <path id="mf339fc0e67" d="M 0 0 
L -3.5 0 
" style="stroke: #7f7f7f; stroke-width: 1.8"/>
      </defs>
      <g>
       <use xlink:href="#mf339fc0e67" x="28.942188" y="230.925255" style="fill: #7f7f7f; stroke: #7f7f7f; stroke-width: 1.8"/>
      </g>
     </g>
     <g id="text_8">
      <!-- −8 -->
      <g style="fill: #7f7f7f" transform="translate(7.2 234.724474) scale(0.1 -0.1)">
       <defs>
        <path id="DejaVuSans-2212" d="M 678 2272 
L 4684 2272 
L 4684 1741 
L 678 1741 
L 678 2272 
z
" transform="scale(0.015625)"/>
       </defs>
       <use xlink:href="#DejaVuSans-2212"/>
       <use xlink:href="#DejaVuSans-38" transform="translate(83.789062 0)"/>
      </g>
     </g>
    </g>
    <g id="ytick_2">
     <g id="line2d_8">
      <g>
       <use xlink:href="#mf339fc0e67" x="28.942188" y="204.247611" style="fill: #7f7f7f; stroke: #7f7f7f; stroke-width: 1.8"/>
      </g>
     </g>
     <g id="text_9">
      <!-- −6 -->
      <g style="fill: #7f7f7f" transform="translate(7.2 208.04683) scale(0.1 -0.1)">
       <use xlink:href="#DejaVuSans-2212"/>
       <use xlink:href="#DejaVuSans-36" transform="translate(83.789062 0)"/>
      </g>
     </g>
    </g>
    <g id="ytick_3">
     <g id="line2d_9">
      <g>
       <use xlink:href="#mf339fc0e67" x="28.942188" y="177.569967" style="fill: #7f7f7f; stroke: #7f7f7f; stroke-width: 1.8"/>
      </g>
     </g>
     <g id="text_10">
      <!-- −4 -->
      <g style="fill: #7f7f7f" transform="translate(7.2 181.369185) scale(0.1 -0.1)">
       <use xlink:href="#DejaVuSans-2212"/>
       <use xlink:href="#DejaVuSans-34" transform="translate(83.789062 0)"/>
      </g>
     </g>
    </g>
    <g id="ytick_4">
     <g id="line2d_10">
      <g>
       <use xlink:href="#mf339fc0e67" x="28.942188" y="150.892322" style="fill: #7f7f7f; stroke: #7f7f7f; stroke-width: 1.8"/>
      </g>
     </g>
     <g id="text_11">
      <!-- −2 -->
      <g style="fill: #7f7f7f" transform="translate(7.2 154.691541) scale(0.1 -0.1)">
       <use xlink:href="#DejaVuSans-2212"/>
       <use xlink:href="#DejaVuSans-32" transform="translate(83.789062 0)"/>
      </g>
     </g>
    </g>
    <g id="ytick_5">
     <g id="line2d_11">
      <g>
       <use xlink:href="#mf339fc0e67" x="28.942188" y="124.214678" style="fill: #7f7f7f; stroke: #7f7f7f; stroke-width: 1.8"/>
      </g>
     </g>
     <g id="text_12">
      <!-- 0 -->
      <g style="fill: #7f7f7f" transform="translate(15.579688 128.013897) scale(0.1 -0.1)">
       <use xlink:href="#DejaVuSans-30"/>
      </g>
     </g>
    </g>
    <g id="ytick_6">
     <g id="line2d_12">
      <g>
       <use xlink:href="#mf339fc0e67" x="28.942188" y="97.537033" style="fill: #7f7f7f; stroke: #7f7f7f; stroke-width: 1.8"/>
      </g>
     </g>
     <g id="text_13">
      <!-- 2 -->
      <g style="fill: #7f7f7f" transform="translate(15.579688 101.336252) scale(0.1 -0.1)">
       <use xlink:href="#DejaVuSans-32"/>
      </g>
     </g>
    </g>
    <g id="ytick_7">
     <g id="line2d_13">
      <g>
       <use xlink:href="#mf339fc0e67" x="28.942188" y="70.859389" style="fill: #7f7f7f; stroke: #7f7f7f; stroke-width: 1.8"/>
      </g>
     </g>
     <g id="text_14">
      <!-- 4 -->
      <g style="fill: #7f7f7f" transform="translate(15.579688 74.658608) scale(0.1 -0.1)">
       <use xlink:href="#DejaVuSans-34"/>
      </g>
     </g>
    </g>
    <g id="ytick_8">
     <g id="line2d_14">
      <g>
       <use xlink:href="#mf339fc0e67" x="28.942188" y="44.181745" style="fill: #7f7f7f; stroke: #7f7f7f; stroke-width: 1.8"/>
      </g>
     </g>
     <g id="text_15">
      <!-- 6 -->
      <g style="fill: #7f7f7f" transform="translate(15.579688 47.980963) scale(0.1 -0.1)">
       <use xlink:href="#DejaVuSans-36"/>
      </g>
     </g>
    </g>
    <g id="ytick_9">
     <g id="line2d_15">
      <g>
       <use xlink:href="#mf339fc0e67" x="28.942188" y="17.5041" style="fill: #7f7f7f; stroke: #7f7f7f; stroke-width: 1.8"/>
      </g>
     </g>
     <g id="text_16">
      <!-- 8 -->
      <g style="fill: #7f7f7f" transform="translate(15.579688 21.303319) scale(0.1 -0.1)">
       <use xlink:href="#DejaVuSans-38"/>
      </g>
     </g>
    </g>
   </g>
   <g id="line2d_16">
    <path d="M 53.153906 124.214678 
L 57.656385 111.939869 
L 59.544522 110.927429 
L 61.142176 112.525779 
L 63.611277 118.687396 
L 70.437617 137.213718 
L 72.035271 137.317233 
L 73.778166 134.906637 
L 76.682991 126.549279 
L 82.056918 111.693074 
L 83.945054 111.003089 
L 85.542708 112.863414 
L 88.157051 119.775257 
L 94.402425 137.000229 
L 96.14532 137.375906 
L 97.888216 135.103682 
L 100.793041 126.878574 
L 106.166968 111.812555 
L 108.055104 110.961073 
L 109.652758 112.690957 
L 112.12186 118.994214 
L 118.802958 137.175101 
L 120.545853 137.250284 
L 122.288748 134.702839 
L 125.338815 125.720049 
L 130.422259 111.75183 
L 132.310395 110.981036 
L 133.908049 112.776282 
L 136.522392 119.617547 
L 142.767766 136.951446 
L 144.510661 137.402128 
L 146.108315 135.477018 
L 148.722658 128.495688 
L 154.822791 111.528704 
L 156.565686 111.003089 
L 158.16334 112.863414 
L 160.777683 119.775257 
L 167.023057 137.000229 
L 168.765953 137.375906 
L 170.508848 135.103682 
L 173.413673 126.878574 
L 178.7876 111.812555 
L 180.675736 110.961073 
L 182.27339 112.690957 
L 184.742492 118.994214 
L 191.42359 137.175101 
L 193.166485 137.250284 
L 194.90938 134.702839 
L 197.959447 125.720049 
L 203.042891 111.75183 
L 204.931027 110.981036 
L 206.528681 112.776282 
L 209.143024 119.617547 
L 215.388398 136.951446 
L 217.131294 137.402128 
L 218.728947 135.477018 
L 221.34329 128.495688 
L 227.443423 111.528704 
L 229.186319 111.003089 
L 230.783972 112.863414 
L 233.398315 119.775257 
L 239.64369 137.000229 
L 241.386585 137.375906 
L 243.12948 135.103682 
L 246.034305 126.878574 
L 251.408232 111.812555 
L 253.296368 110.961073 
L 254.894022 112.690957 
L 257.363124 118.994214 
L 264.044222 137.175101 
L 265.787117 137.250284 
L 267.530012 134.702839 
L 270.580079 125.720049 
L 275.663523 111.75183 
L 277.55166 110.981036 
L 279.149313 112.776282 
L 281.763656 119.617547 
L 288.009031 136.951446 
L 289.751926 137.402128 
L 291.34958 135.477018 
L 293.963922 128.495688 
L 300.064055 111.528704 
L 301.806951 111.003089 
L 303.404605 112.863414 
L 306.018947 119.775257 
L 312.264322 137.000229 
L 314.007217 137.375906 
L 315.750112 135.103682 
L 318.654937 126.878574 
L 324.028864 111.812555 
L 325.917001 110.961073 
L 327.514654 112.690957 
L 329.983756 118.994214 
L 336.664854 137.175101 
L 338.407749 137.250284 
L 340.150644 134.702839 
L 343.200711 125.720049 
L 348.284155 111.75183 
L 350.172292 110.981036 
L 351.769946 112.776282 
L 354.384288 119.617547 
L 360.629663 136.951446 
L 362.372558 137.402128 
L 363.970212 135.477018 
L 366.584554 128.495688 
L 372.684688 111.528704 
L 374.427583 111.003089 
L 376.025237 112.863414 
L 378.639579 119.775257 
L 384.884954 137.000229 
L 386.627849 137.375906 
L 388.370744 135.103682 
L 391.275569 126.878574 
L 396.649496 111.812555 
L 398.537633 110.961073 
L 400.135287 112.690957 
L 402.604388 118.994214 
L 409.285486 137.175101 
L 411.028381 137.250284 
L 412.771277 134.702839 
L 415.821343 125.720049 
L 420.904787 111.75183 
L 422.792924 110.981036 
L 424.390578 112.776282 
L 427.00492 119.617547 
L 433.250295 136.951446 
L 434.99319 137.402128 
L 436.590844 135.477018 
L 439.205187 128.495688 
L 445.30532 111.528704 
L 447.048215 111.003089 
L 448.645869 112.863414 
L 451.260212 119.775257 
L 457.505586 137.000229 
L 459.248481 137.375906 
L 460.991376 135.103682 
L 463.896202 126.878574 
L 469.270128 111.812555 
L 471.158265 110.961073 
L 472.755919 112.690957 
L 475.22502 118.994214 
L 481.906118 137.175101 
L 483.649013 137.250284 
L 485.391909 134.702839 
L 488.441975 125.720049 
L 493.525419 111.75183 
L 495.413556 110.981036 
L 497.01121 112.776282 
L 499.625553 119.617547 
L 505.870927 136.951446 
L 507.613822 137.402128 
L 509.211476 135.477018 
L 511.825819 128.495688 
L 517.925952 111.528704 
L 519.668847 111.003089 
L 521.266501 112.863414 
L 523.880844 119.775257 
L 530.126218 137.000229 
L 531.869113 137.375906 
L 533.612008 135.103682 
L 536.516834 126.878574 
L 537.388281 123.879472 
L 537.388281 123.879472 
" clip-path="url(#p83418fb1fe)" style="fill: none; stroke: #e41a1c; stroke-width: 2; stroke-linecap: square"/>
   </g>
   <g id="line2d_17">
    <path d="M 53.153906 124.214678 
L 54.025354 125.479821 
L 54.170595 124.677707 
L 55.187284 101.769914 
L 58.23735 32.122036 
L 59.544522 24.59118 
L 59.689763 25.317544 
L 62.449347 43.79672 
L 64.918449 89.530662 
L 69.420928 201.732167 
L 71.744788 226.317075 
L 73.778166 221.504388 
L 74.940096 212.440158 
L 76.392509 183.655511 
L 80.604505 80.998689 
L 82.783124 40.904869 
L 85.106984 24.348713 
L 85.252226 24.740354 
L 88.01181 45.671054 
L 89.754705 94.343621 
L 93.966702 206.310527 
L 95.564355 215.594302 
L 97.742974 224.668711 
L 97.888216 224.29277 
L 98.178698 223.012773 
L 98.759663 224.416582 
L 99.050146 223.102624 
L 101.083523 186.864868 
L 108.345587 23.213871 
L 109.071793 20.496302 
L 109.507517 22.237635 
L 111.686136 43.598417 
L 119.383923 219.968611 
L 121.562542 227.161974 
L 121.707783 227.022084 
L 123.014954 221.042386 
L 124.467367 202.505136 
L 127.807916 99.656028 
L 130.5675 43.47929 
L 133.617567 27.35929 
L 133.908049 28.089413 
L 135.505703 43.548551 
L 136.958116 66.033879 
L 139.7177 149.386452 
L 142.767766 222.744138 
L 143.20349 224.80731 
L 143.639214 223.281253 
L 144.074938 221.691858 
L 144.510661 222.97365 
L 145.091627 225.876807 
L 145.52735 223.674382 
L 149.158382 197.490889 
L 153.370379 67.873303 
L 155.548998 31.722763 
L 157.582375 26.505477 
L 158.018099 30.04311 
L 159.906235 42.710158 
L 160.632442 52.210749 
L 162.665819 116.6301 
L 165.861127 204.806149 
L 166.296851 205.776998 
L 169.782641 225.74669 
L 170.363606 226.342112 
L 170.508848 225.705997 
L 172.251743 209.735303 
L 174.285121 162.791084 
L 177.335187 61.616817 
L 179.368565 31.746019 
L 181.547184 24.201463 
L 184.742492 48.271049 
L 185.759181 71.162785 
L 190.987866 209.000717 
L 192.730761 221.97681 
L 193.456968 225.239264 
L 194.473656 227.992489 
L 194.764139 227.313805 
L 195.780828 221.205539 
L 197.814205 172.570107 
L 204.204821 34.81582 
L 206.528681 27.83841 
L 206.964405 30.377695 
L 210.014472 81.053787 
L 216.114605 223.166573 
L 217.712259 224.017163 
L 217.8575 223.836486 
L 218.438465 223.126513 
L 218.728947 223.805992 
L 219.309913 225.304127 
L 219.600395 224.35863 
L 220.617084 212.652969 
L 222.069497 177.565574 
L 226.717217 47.213309 
L 228.750595 30.300286 
L 229.33156 31.647821 
L 229.476801 31.853504 
L 229.767284 31.180401 
L 230.783972 25.506477 
L 231.219696 27.998092 
L 232.962591 49.025475 
L 235.576934 117.49748 
L 238.627001 203.171262 
L 240.660378 220.222627 
L 242.403274 227.71515 
L 242.693756 225.510114 
L 247.050994 165.791085 
L 252.27968 35.277674 
L 253.877333 20.616293 
L 254.167816 21.022818 
L 256.491676 32.016225 
L 259.686984 111.087004 
L 262.737051 199.560216 
L 264.770428 222.305988 
L 265.351393 224.637792 
L 266.0776 229.437713 
L 266.803806 227.993363 
L 267.965736 216.739933 
L 270.434838 174.331269 
L 275.227799 42.326703 
L 277.696901 22.488834 
L 278.423107 21.21612 
L 278.71359 22.119797 
L 280.020761 25.047155 
L 282.054139 50.027656 
L 285.539929 153.791214 
L 289.461443 225.295143 
L 289.897167 226.028124 
L 290.332891 225.323385 
L 291.640062 220.942882 
L 295.125852 163.719123 
L 301.225986 25.02278 
L 301.371227 24.555267 
L 301.806951 26.1764 
L 305.437982 45.133866 
L 307.761842 92.122774 
L 311.538115 201.60188 
L 313.426252 224.327662 
L 314.733423 227.764464 
L 315.314388 225.330745 
L 317.928731 196.432738 
L 325.626518 28.985458 
L 326.352724 25.581395 
L 326.788448 26.829179 
L 327.078931 27.512267 
L 327.805137 26.933635 
L 328.676585 30.042698 
L 333.760029 149.416205 
L 336.810095 218.635611 
L 339.424438 223.532418 
L 339.569679 223.429728 
L 340.586368 216.502822 
L 342.764987 177.261857 
L 348.719879 31.708911 
L 350.02705 25.841337 
L 350.462774 24.496777 
L 350.898498 26.037239 
L 353.803323 42.282131 
L 355.981942 95.889677 
L 360.484421 215.847623 
L 361.936834 222.486244 
L 362.66304 224.160573 
L 363.244005 222.490366 
L 364.986901 208.332415 
L 368.036967 158.04156 
L 371.232275 66.282892 
L 373.556135 28.215019 
L 374.863307 25.987073 
L 375.444272 24.422529 
L 375.879995 25.638658 
L 376.751443 31.172106 
L 380.527716 110.729409 
L 384.44923 214.154884 
L 386.482608 229.313259 
L 386.918331 228.51769 
L 389.242192 217.947201 
L 391.130328 185.599713 
L 395.197084 66.427022 
L 398.101909 24.121543 
L 398.24715 24.151275 
L 398.682874 23.681945 
L 398.828115 24.164234 
L 399.118598 25.192852 
L 399.699563 23.44734 
L 399.844804 23.287484 
L 399.990045 23.672382 
L 402.313906 41.13557 
L 405.07349 127.948762 
L 407.833074 200.853676 
L 410.156934 224.691221 
L 411.318864 227.813122 
L 411.754588 227.081072 
L 412.190311 226.122308 
L 414.36893 206.059842 
L 417.273756 138.368463 
L 421.485752 33.038319 
L 423.51913 21.9752 
L 424.100095 24.914482 
L 425.988232 40.616195 
L 429.909746 137.909747 
L 433.395536 213.311911 
L 434.702707 217.409941 
L 436.445603 220.126447 
L 436.590844 219.90043 
L 438.624222 198.089754 
L 445.595802 38.642175 
L 447.62918 19.922658 
L 448.355386 24.14467 
L 451.405453 51.308634 
L 457.94131 216.695321 
L 460.119929 225.448738 
L 460.410411 225.059873 
L 462.008065 218.357344 
L 463.605719 190.475391 
L 468.108198 59.496184 
L 471.013023 19.983165 
L 471.73923 17.88527 
L 472.174954 18.436937 
L 472.610677 19.783292 
L 476.38695 86.478937 
L 481.760877 216.486245 
L 483.794255 225.025491 
L 485.101426 226.963372 
L 485.53715 226.482657 
L 486.263356 222.814678 
L 488.441975 190.182641 
L 494.251626 35.09713 
L 494.68735 33.456011 
L 497.01121 22.848059 
L 497.156451 22.655012 
L 497.446934 23.235742 
L 498.608864 30.666038 
L 500.351759 78.717348 
L 503.256584 173.133309 
L 506.887616 226.092805 
L 507.178098 226.523391 
L 507.613822 225.62355 
L 507.759063 225.754311 
L 508.630511 226.351841 
L 508.920993 225.886157 
L 510.228165 219.455045 
L 513.713955 158.493616 
L 518.506917 31.204928 
L 519.814088 25.645321 
L 520.249812 26.591449 
L 521.411742 33.320071 
L 524.60705 78.425556 
L 530.707183 223.927069 
L 532.159596 231.573441 
L 532.450078 231.012464 
L 534.192973 224.373813 
L 536.807316 176.500848 
L 537.388281 159.672018 
L 537.388281 159.672018 
" clip-path="url(#p83418fb1fe)" style="fill: none; stroke: #377eb8; stroke-width: 2; stroke-linecap: square"/>
   </g>
   <g id="patch_3">
    <path d="M 28.942188 242.275937 
L 28.942188 7.2 
" style="fill: none; stroke: #7f7f7f; stroke-width: 1.8; stroke-linejoin: miter; stroke-linecap: square"/>
   </g>
   <g id="patch_4">
    <path d="M 28.942188 242.275937 
L 561.6 242.275937 
" style="fill: none; stroke: #7f7f7f; stroke-width: 1.8; stroke-linejoin: miter; stroke-linecap: square"/>
   </g>
   <g id="legend_1">
    <g id="line2d_18">
     <path d="M 503.101562 20.298437 
L 513.101562 20.298437 
L 523.101562 20.298437 
" style="fill: none; stroke: #e41a1c; stroke-width: 2; stroke-linecap: square"/>
    </g>
    <g id="text_17">
     <!-- Src -->
     <g style="fill: #7f7f7f" transform="translate(531.101562 23.798437) scale(0.1 -0.1)">
      <defs>
       <path id="DejaVuSans-53" d="M 3425 4513 
L 3425 3897 
Q 3066 4069 2747 4153 
Q 2428 4238 2131 4238 
Q 1616 4238 1336 4038 
Q 1056 3838 1056 3469 
Q 1056 3159 1242 3001 
Q 1428 2844 1947 2747 
L 2328 2669 
Q 3034 2534 3370 2195 
Q 3706 1856 3706 1288 
Q 3706 609 3251 259 
Q 2797 -91 1919 -91 
Q 1588 -91 1214 -16 
Q 841 59 441 206 
L 441 856 
Q 825 641 1194 531 
Q 1563 422 1919 422 
Q 2459 422 2753 634 
Q 3047 847 3047 1241 
Q 3047 1584 2836 1778 
Q 2625 1972 2144 2069 
L 1759 2144 
Q 1053 2284 737 2584 
Q 422 2884 422 3419 
Q 422 4038 858 4394 
Q 1294 4750 2059 4750 
Q 2388 4750 2728 4690 
Q 3069 4631 3425 4513 
z
" transform="scale(0.015625)"/>
       <path id="DejaVuSans-72" d="M 2631 2963 
Q 2534 3019 2420 3045 
Q 2306 3072 2169 3072 
Q 1681 3072 1420 2755 
Q 1159 2438 1159 1844 
L 1159 0 
L 581 0 
L 581 3500 
L 1159 3500 
L 1159 2956 
Q 1341 3275 1631 3429 
Q 1922 3584 2338 3584 
Q 2397 3584 2469 3576 
Q 2541 3569 2628 3553 
L 2631 2963 
z
" transform="scale(0.015625)"/>
       <path id="DejaVuSans-63" d="M 3122 3366 
L 3122 2828 
Q 2878 2963 2633 3030 
Q 2388 3097 2138 3097 
Q 1578 3097 1268 2742 
Q 959 2388 959 1747 
Q 959 1106 1268 751 
Q 1578 397 2138 397 
Q 2388 397 2633 464 
Q 2878 531 3122 666 
L 3122 134 
Q 2881 22 2623 -34 
Q 2366 -91 2075 -91 
Q 1284 -91 818 406 
Q 353 903 353 1747 
Q 353 2603 823 3093 
Q 1294 3584 2113 3584 
Q 2378 3584 2631 3529 
Q 2884 3475 3122 3366 
z
" transform="scale(0.015625)"/>
      </defs>
      <use xlink:href="#DejaVuSans-53"/>
      <use xlink:href="#DejaVuSans-72" transform="translate(63.476562 0)"/>
      <use xlink:href="#DejaVuSans-63" transform="translate(102.339844 0)"/>
     </g>
    </g>
    <g id="line2d_19">
     <path d="M 503.101562 34.976562 
L 513.101562 34.976562 
L 523.101562 34.976562 
" style="fill: none; stroke: #377eb8; stroke-width: 2; stroke-linecap: square"/>
    </g>
    <g id="text_18">
     <!-- AMP -->
     <g style="fill: #7f7f7f" transform="translate(531.101562 38.476562) scale(0.1 -0.1)">
      <defs>
       <path id="DejaVuSans-41" d="M 2188 4044 
L 1331 1722 
L 3047 1722 
L 2188 4044 
z
M 1831 4666 
L 2547 4666 
L 4325 0 
L 3669 0 
L 3244 1197 
L 1141 1197 
L 716 0 
L 50 0 
L 1831 4666 
z
" transform="scale(0.015625)"/>
       <path id="DejaVuSans-4d" d="M 628 4666 
L 1569 4666 
L 2759 1491 
L 3956 4666 
L 4897 4666 
L 4897 0 
L 4281 0 
L 4281 4097 
L 3078 897 
L 2444 897 
L 1241 4097 
L 1241 0 
L 628 0 
L 628 4666 
z
" transform="scale(0.015625)"/>
       <path id="DejaVuSans-50" d="M 1259 4147 
L 1259 2394 
L 2053 2394 
Q 2494 2394 2734 2622 
Q 2975 2850 2975 3272 
Q 2975 3691 2734 3919 
Q 2494 4147 2053 4147 
L 1259 4147 
z
M 628 4666 
L 2053 4666 
Q 2838 4666 3239 4311 
Q 3641 3956 3641 3272 
Q 3641 2581 3239 2228 
Q 2838 1875 2053 1875 
L 1259 1875 
L 1259 0 
L 628 0 
L 628 4666 
z
" transform="scale(0.015625)"/>
      </defs>
      <use xlink:href="#DejaVuSans-41"/>
      <use xlink:href="#DejaVuSans-4d" transform="translate(68.408203 0)"/>
      <use xlink:href="#DejaVuSans-50" transform="translate(154.6875 0)"/>
     </g>
    </g>
   </g>
  </g>
 </g>
 <defs>
  <clipPath id="p83418fb1fe">
   <rect x="28.942188" y="7.2" width="532.657812" height="235.075937"/>
  </clipPath>
 </defs>
</svg>
