<?xml version="1.0" encoding="utf-8" standalone="no"?>
<!DOCTYPE svg PUBLIC "-//W3C//DTD SVG 1.1//EN"
  "http://www.w3.org/Graphics/SVG/1.1/DTD/svg11.dtd">
<svg xmlns:xlink="http://www.w3.org/1999/xlink" width="568.8pt" height="280.8pt" viewBox="0 0 568.8 280.8" xmlns="http://www.w3.org/2000/svg" version="1.1">
 <metadata>
  <rdf:RDF xmlns:dc="http://purl.org/dc/elements/1.1/" xmlns:cc="http://creativecommons.org/ns#" xmlns:rdf="http://www.w3.org/1999/02/22-rdf-syntax-ns#">
   <cc:Work>
    <dc:type rdf:resource="http://purl.org/dc/dcmitype/StillImage"/>
    <dc:date>2026-06-19T13:25:58.373551</dc:date>
    <dc:format>image/svg+xml</dc:format>
    <dc:creator>
     <cc:Agent>
      <dc:title>Matplotlib v3.11.0, https://matplotlib.org/</dc:title>
     </cc:Agent>
    </dc:creator>
   </cc:Work>
  </rdf:RDF>
 </metadata>
 <defs>
  <style type="text/css">*{stroke-linejoin: round; stroke-linecap: butt}</style>
 </defs>
 <g id="figure_1">
  <g id="patch_1">
   <path d="M 0 280.8 
L 568.8 280.8 
L 568.8 0 
L 0 0 
L 0 280.8 
z
" style="fill: none"/>
  </g>
  <g id="axes_1">
   <g id="patch_2">
    <path d="M 28.942188 241.599141 
L 561.6 241.599141 
L 561.6 7.2 
L 28.942188 7.2 
L 28.942188 241.599141 
z
" style="fill: none"/>
   </g>
   <g id="matplotlib.axis_1">
    <g id="xtick_1">
     <g id="line2d_1">
      <defs>
       <path id="mec9ba94388" d="M 0 0 
L 0 3.5 
" style="stroke: #7f7f7f; stroke-width: 1.8"/>
      </defs>
      <g>
       <use xlink:href="#mec9ba94388" x="53.153906" y="241.599141" style="fill: #7f7f7f; stroke: #7f7f7f; stroke-width: 1.8"/>
      </g>
     </g>
     <g id="text_1">
      <!-- 0.00000 -->
      <g style="fill: #7f7f7f" transform="translate(32.477344 256.196797) scale(0.1 -0.1)">
       <defs>
        <path id="DejaVuSans-13" d="M 2034 4250 
Q 1547 4250 1301 3770 
Q 1056 3291 1056 2328 
Q 1056 1369 1301 889 
Q 1547 409 2034 409 
Q 2525 409 2770 889 
Q 3016 1369 3016 2328 
Q 3016 3291 2770 3770 
Q 2525 4250 2034 4250 
z
M 2034 4750 
Q 2819 4750 3233 4129 
Q 3647 3509 3647 2328 
Q 3647 1150 3233 529 
Q 2819 -91 2034 -91 
Q 1250 -91 836 529 
Q 422 1150 422 2328 
Q 422 3509 836 4129 
Q 1250 4750 2034 4750 
z
" transform="scale(0.015625)"/>
        <path id="DejaVuSans-11" d="M 684 794 
L 1344 794 
L 1344 0 
L 684 0 
L 684 794 
z
" transform="scale(0.015625)"/>
       </defs>
       <use xlink:href="#DejaVuSans-13"/>
       <use xlink:href="#DejaVuSans-11" transform="translate(63.625 0)"/>
       <use xlink:href="#DejaVuSans-13" transform="translate(95.40625 0)"/>
       <use xlink:href="#DejaVuSans-13" transform="translate(159.03125 0)"/>
       <use xlink:href="#DejaVuSans-13" transform="translate(222.65625 0)"/>
       <use xlink:href="#DejaVuSans-13" transform="translate(286.28125 0)"/>
       <use xlink:href="#DejaVuSans-13" transform="translate(349.90625 0)"/>
      </g>
     </g>
    </g>
    <g id="xtick_2">
     <g id="line2d_2">
      <g>
       <use xlink:href="#mec9ba94388" x="149.981416" y="241.599141" style="fill: #7f7f7f; stroke: #7f7f7f; stroke-width: 1.8"/>
      </g>
     </g>
     <g id="text_2">
      <!-- 0.00002 -->
      <g style="fill: #7f7f7f" transform="translate(129.304853 256.196797) scale(0.1 -0.1)">
       <defs>
        <path id="DejaVuSans-15" d="M 1228 531 
L 3431 531 
L 3431 0 
L 469 0 
L 469 531 
Q 828 903 1448 1529 
Q 2069 2156 2228 2338 
Q 2531 2678 2651 2914 
Q 2772 3150 2772 3378 
Q 2772 3750 2511 3984 
Q 2250 4219 1831 4219 
Q 1534 4219 1204 4116 
Q 875 4013 500 3803 
L 500 4441 
Q 881 4594 1212 4672 
Q 1544 4750 1819 4750 
Q 2544 4750 2975 4387 
Q 3406 4025 3406 3419 
Q 3406 3131 3298 2873 
Q 3191 2616 2906 2266 
Q 2828 2175 2409 1742 
Q 1991 1309 1228 531 
z
" transform="scale(0.015625)"/>
       </defs>
       <use xlink:href="#DejaVuSans-13"/>
       <use xlink:href="#DejaVuSans-11" transform="translate(63.625 0)"/>
       <use xlink:href="#DejaVuSans-13" transform="translate(95.40625 0)"/>
       <use xlink:href="#DejaVuSans-13" transform="translate(159.03125 0)"/>
       <use xlink:href="#DejaVuSans-13" transform="translate(222.65625 0)"/>
       <use xlink:href="#DejaVuSans-13" transform="translate(286.28125 0)"/>
       <use xlink:href="#DejaVuSans-15" transform="translate(349.90625 0)"/>
      </g>
     </g>
    </g>
    <g id="xtick_3">
     <g id="line2d_3">
      <g>
       <use xlink:href="#mec9ba94388" x="246.808925" y="241.599141" style="fill: #7f7f7f; stroke: #7f7f7f; stroke-width: 1.8"/>
      </g>
     </g>
     <g id="text_3">
      <!-- 0.00004 -->
      <g style="fill: #7f7f7f" transform="translate(226.132363 256.196797) scale(0.1 -0.1)">
       <defs>
        <path id="DejaVuSans-17" d="M 2419 4116 
L 825 1625 
L 2419 1625 
L 2419 4116 
z
M 2253 4666 
L 3047 4666 
L 3047 1625 
L 3713 1625 
L 3713 1100 
L 3047 1100 
L 3047 0 
L 2419 0 
L 2419 1100 
L 313 1100 
L 313 1709 
L 2253 4666 
z
" transform="scale(0.015625)"/>
       </defs>
       <use xlink:href="#DejaVuSans-13"/>
       <use xlink:href="#DejaVuSans-11" transform="translate(63.625 0)"/>
       <use xlink:href="#DejaVuSans-13" transform="translate(95.40625 0)"/>
       <use xlink:href="#DejaVuSans-13" transform="translate(159.03125 0)"/>
       <use xlink:href="#DejaVuSans-13" transform="translate(222.65625 0)"/>
       <use xlink:href="#DejaVuSans-13" transform="translate(286.28125 0)"/>
       <use xlink:href="#DejaVuSans-17" transform="translate(349.90625 0)"/>
      </g>
     </g>
    </g>
    <g id="xtick_4">
     <g id="line2d_4">
      <g>
       <use xlink:href="#mec9ba94388" x="343.636435" y="241.599141" style="fill: #7f7f7f; stroke: #7f7f7f; stroke-width: 1.8"/>
      </g>
     </g>
     <g id="text_4">
      <!-- 0.00006 -->
      <g style="fill: #7f7f7f" transform="translate(322.959872 256.196797) scale(0.1 -0.1)">
       <defs>
        <path id="DejaVuSans-19" d="M 2113 2584 
Q 1688 2584 1439 2293 
Q 1191 2003 1191 1497 
Q 1191 994 1439 701 
Q 1688 409 2113 409 
Q 2538 409 2786 701 
Q 3034 994 3034 1497 
Q 3034 2003 2786 2293 
Q 2538 2584 2113 2584 
z
M 3366 4563 
L 3366 3988 
Q 3128 4100 2886 4159 
Q 2644 4219 2406 4219 
Q 1781 4219 1451 3797 
Q 1122 3375 1075 2522 
Q 1259 2794 1537 2939 
Q 1816 3084 2150 3084 
Q 2853 3084 3261 2657 
Q 3669 2231 3669 1497 
Q 3669 778 3244 343 
Q 2819 -91 2113 -91 
Q 1303 -91 875 529 
Q 447 1150 447 2328 
Q 447 3434 972 4092 
Q 1497 4750 2381 4750 
Q 2619 4750 2861 4703 
Q 3103 4656 3366 4563 
z
" transform="scale(0.015625)"/>
       </defs>
       <use xlink:href="#DejaVuSans-13"/>
       <use xlink:href="#DejaVuSans-11" transform="translate(63.625 0)"/>
       <use xlink:href="#DejaVuSans-13" transform="translate(95.40625 0)"/>
       <use xlink:href="#DejaVuSans-13" transform="translate(159.03125 0)"/>
       <use xlink:href="#DejaVuSans-13" transform="translate(222.65625 0)"/>
       <use xlink:href="#DejaVuSans-13" transform="translate(286.28125 0)"/>
       <use xlink:href="#DejaVuSans-19" transform="translate(349.90625 0)"/>
      </g>
     </g>
    </g>
    <g id="xtick_5">
     <g id="line2d_5">
      <g>
       <use xlink:href="#mec9ba94388" x="440.463944" y="241.599141" style="fill: #7f7f7f; stroke: #7f7f7f; stroke-width: 1.8"/>
      </g>
     </g>
     <g id="text_5">
      <!-- 0.00008 -->
      <g style="fill: #7f7f7f" transform="translate(419.787382 256.196797) scale(0.1 -0.1)">
       <defs>
        <path id="DejaVuSans-1b" d="M 2034 2216 
Q 1584 2216 1326 1975 
Q 1069 1734 1069 1313 
Q 1069 891 1326 650 
Q 1584 409 2034 409 
Q 2484 409 2743 651 
Q 3003 894 3003 1313 
Q 3003 1734 2745 1975 
Q 2488 2216 2034 2216 
z
M 1403 2484 
Q 997 2584 770 2862 
Q 544 3141 544 3541 
Q 544 4100 942 4425 
Q 1341 4750 2034 4750 
Q 2731 4750 3128 4425 
Q 3525 4100 3525 3541 
Q 3525 3141 3298 2862 
Q 3072 2584 2669 2484 
Q 3125 2378 3379 2068 
Q 3634 1759 3634 1313 
Q 3634 634 3220 271 
Q 2806 -91 2034 -91 
Q 1263 -91 848 271 
Q 434 634 434 1313 
Q 434 1759 690 2068 
Q 947 2378 1403 2484 
z
M 1172 3481 
Q 1172 3119 1398 2916 
Q 1625 2713 2034 2713 
Q 2441 2713 2670 2916 
Q 2900 3119 2900 3481 
Q 2900 3844 2670 4047 
Q 2441 4250 2034 4250 
Q 1625 4250 1398 4047 
Q 1172 3844 1172 3481 
z
" transform="scale(0.015625)"/>
       </defs>
       <use xlink:href="#DejaVuSans-13"/>
       <use xlink:href="#DejaVuSans-11" transform="translate(63.625 0)"/>
       <use xlink:href="#DejaVuSans-13" transform="translate(95.40625 0)"/>
       <use xlink:href="#DejaVuSans-13" transform="translate(159.03125 0)"/>
       <use xlink:href="#DejaVuSans-13" transform="translate(222.65625 0)"/>
       <use xlink:href="#DejaVuSans-13" transform="translate(286.28125 0)"/>
       <use xlink:href="#DejaVuSans-1b" transform="translate(349.90625 0)"/>
      </g>
     </g>
    </g>
    <g id="xtick_6">
     <g id="line2d_6">
      <g>
       <use xlink:href="#mec9ba94388" x="537.291454" y="241.599141" style="fill: #7f7f7f; stroke: #7f7f7f; stroke-width: 1.8"/>
      </g>
     </g>
     <g id="text_6">
      <!-- 0.00010 -->
      <g style="fill: #7f7f7f" transform="translate(516.614891 256.196797) scale(0.1 -0.1)">
       <defs>
        <path id="DejaVuSans-14" d="M 794 531 
L 1825 531 
L 1825 4091 
L 703 3866 
L 703 4441 
L 1819 4666 
L 2450 4666 
L 2450 531 
L 3481 531 
L 3481 0 
L 794 0 
L 794 531 
z
" transform="scale(0.015625)"/>
       </defs>
       <use xlink:href="#DejaVuSans-13"/>
       <use xlink:href="#DejaVuSans-11" transform="translate(63.625 0)"/>
       <use xlink:href="#DejaVuSans-13" transform="translate(95.40625 0)"/>
       <use xlink:href="#DejaVuSans-13" transform="translate(159.03125 0)"/>
       <use xlink:href="#DejaVuSans-13" transform="translate(222.65625 0)"/>
       <use xlink:href="#DejaVuSans-14" transform="translate(286.28125 0)"/>
       <use xlink:href="#DejaVuSans-13" transform="translate(349.90625 0)"/>
      </g>
     </g>
    </g>
    <g id="text_7">
     <!-- time [s] -->
     <g style="fill: #7f7f7f" transform="translate(273.940547 270.957422) scale(0.11 -0.11)">
      <defs>
       <path id="DejaVuSans-57" d="M 1172 4494 
L 1172 3500 
L 2356 3500 
L 2356 3053 
L 1172 3053 
L 1172 1153 
Q 1172 725 1289 603 
Q 1406 481 1766 481 
L 2356 481 
L 2356 0 
L 1766 0 
Q 1100 0 847 248 
Q 594 497 594 1153 
L 594 3053 
L 172 3053 
L 172 3500 
L 594 3500 
L 594 4494 
L 1172 4494 
z
" transform="scale(0.015625)"/>
       <path id="DejaVuSans-4c" d="M 603 3500 
L 1178 3500 
L 1178 0 
L 603 0 
L 603 3500 
z
M 603 4863 
L 1178 4863 
L 1178 4134 
L 603 4134 
L 603 4863 
z
" transform="scale(0.015625)"/>
       <path id="DejaVuSans-50" d="M 3328 2828 
Q 3544 3216 3844 3400 
Q 4144 3584 4550 3584 
Q 5097 3584 5394 3201 
Q 5691 2819 5691 2113 
L 5691 0 
L 5113 0 
L 5113 2094 
Q 5113 2597 4934 2840 
Q 4756 3084 4391 3084 
Q 3944 3084 3684 2787 
Q 3425 2491 3425 1978 
L 3425 0 
L 2847 0 
L 2847 2094 
Q 2847 2600 2669 2842 
Q 2491 3084 2119 3084 
Q 1678 3084 1418 2786 
Q 1159 2488 1159 1978 
L 1159 0 
L 581 0 
L 581 3500 
L 1159 3500 
L 1159 2956 
Q 1356 3278 1631 3431 
Q 1906 3584 2284 3584 
Q 2666 3584 2933 3390 
Q 3200 3197 3328 2828 
z
" transform="scale(0.015625)"/>
       <path id="DejaVuSans-48" d="M 3597 1894 
L 3597 1613 
L 953 1613 
Q 991 1019 1311 708 
Q 1631 397 2203 397 
Q 2534 397 2845 478 
Q 3156 559 3463 722 
L 3463 178 
Q 3153 47 2828 -22 
Q 2503 -91 2169 -91 
Q 1331 -91 842 396 
Q 353 884 353 1716 
Q 353 2575 817 3079 
Q 1281 3584 2069 3584 
Q 2775 3584 3186 3129 
Q 3597 2675 3597 1894 
z
M 3022 2063 
Q 3016 2534 2758 2815 
Q 2500 3097 2075 3097 
Q 1594 3097 1305 2825 
Q 1016 2553 972 2059 
L 3022 2063 
z
" transform="scale(0.015625)"/>
       <path id="DejaVuSans-3" transform="scale(0.015625)"/>
       <path id="DejaVuSans-3e" d="M 550 4863 
L 1875 4863 
L 1875 4416 
L 1125 4416 
L 1125 -397 
L 1875 -397 
L 1875 -844 
L 550 -844 
L 550 4863 
z
" transform="scale(0.015625)"/>
       <path id="DejaVuSans-56" d="M 2834 3397 
L 2834 2853 
Q 2591 2978 2328 3040 
Q 2066 3103 1784 3103 
Q 1356 3103 1142 2972 
Q 928 2841 928 2578 
Q 928 2378 1081 2264 
Q 1234 2150 1697 2047 
L 1894 2003 
Q 2506 1872 2764 1633 
Q 3022 1394 3022 966 
Q 3022 478 2636 193 
Q 2250 -91 1575 -91 
Q 1294 -91 989 -36 
Q 684 19 347 128 
L 347 722 
Q 666 556 975 473 
Q 1284 391 1588 391 
Q 1994 391 2212 530 
Q 2431 669 2431 922 
Q 2431 1156 2273 1281 
Q 2116 1406 1581 1522 
L 1381 1569 
Q 847 1681 609 1914 
Q 372 2147 372 2553 
Q 372 3047 722 3315 
Q 1072 3584 1716 3584 
Q 2034 3584 2315 3537 
Q 2597 3491 2834 3397 
z
" transform="scale(0.015625)"/>
       <path id="DejaVuSans-40" d="M 1947 4863 
L 1947 -844 
L 622 -844 
L 622 -397 
L 1369 -397 
L 1369 4416 
L 622 4416 
L 622 4863 
L 1947 4863 
z
" transform="scale(0.015625)"/>
      </defs>
      <use xlink:href="#DejaVuSans-57"/>
      <use xlink:href="#DejaVuSans-4c" transform="translate(39.203125 0)"/>
      <use xlink:href="#DejaVuSans-50" transform="translate(66.984375 0)"/>
      <use xlink:href="#DejaVuSans-48" transform="translate(164.390625 0)"/>
      <use xlink:href="#DejaVuSans-3" transform="translate(225.921875 0)"/>
      <use xlink:href="#DejaVuSans-3e" transform="translate(257.703125 0)"/>
      <use xlink:href="#DejaVuSans-56" transform="translate(296.71875 0)"/>
      <use xlink:href="#DejaVuSans-40" transform="translate(348.8125 0)"/>
     </g>
    </g>
   </g>
   <g id="matplotlib.axis_2">
    <g id="ytick_1">
     <g id="line2d_7">
      <defs>
       <path id="mf5fa5a30f4" d="M 0 0 
L -3.5 0 
" style="stroke: #7f7f7f; stroke-width: 1.8"/>
      </defs>
      <g>
       <use xlink:href="#mf5fa5a30f4" x="28.942188" y="230.328742" style="fill: #7f7f7f; stroke: #7f7f7f; stroke-width: 1.8"/>
      </g>
     </g>
     <g id="text_8">
      <!-- −8 -->
      <g style="fill: #7f7f7f" transform="translate(7.2 234.12757) scale(0.1 -0.1)">
       <defs>
        <path id="DejaVuSans-c9c" d="M 678 2272 
L 4684 2272 
L 4684 1741 
L 678 1741 
L 678 2272 
z
" transform="scale(0.015625)"/>
       </defs>
       <use xlink:href="#DejaVuSans-c9c"/>
       <use xlink:href="#DejaVuSans-1b" transform="translate(83.796875 0)"/>
      </g>
     </g>
    </g>
    <g id="ytick_2">
     <g id="line2d_8">
      <g>
       <use xlink:href="#mf5fa5a30f4" x="28.942188" y="203.791093" style="fill: #7f7f7f; stroke: #7f7f7f; stroke-width: 1.8"/>
      </g>
     </g>
     <g id="text_9">
      <!-- −6 -->
      <g style="fill: #7f7f7f" transform="translate(7.2 207.589921) scale(0.1 -0.1)">
       <use xlink:href="#DejaVuSans-c9c"/>
       <use xlink:href="#DejaVuSans-19" transform="translate(83.796875 0)"/>
      </g>
     </g>
    </g>
    <g id="ytick_3">
     <g id="line2d_9">
      <g>
       <use xlink:href="#mf5fa5a30f4" x="28.942188" y="177.253444" style="fill: #7f7f7f; stroke: #7f7f7f; stroke-width: 1.8"/>
      </g>
     </g>
     <g id="text_10">
      <!-- −4 -->
      <g style="fill: #7f7f7f" transform="translate(7.2 181.052272) scale(0.1 -0.1)">
       <use xlink:href="#DejaVuSans-c9c"/>
       <use xlink:href="#DejaVuSans-17" transform="translate(83.796875 0)"/>
      </g>
     </g>
    </g>
    <g id="ytick_4">
     <g id="line2d_10">
      <g>
       <use xlink:href="#mf5fa5a30f4" x="28.942188" y="150.715795" style="fill: #7f7f7f; stroke: #7f7f7f; stroke-width: 1.8"/>
      </g>
     </g>
     <g id="text_11">
      <!-- −2 -->
      <g style="fill: #7f7f7f" transform="translate(7.2 154.514623) scale(0.1 -0.1)">
       <use xlink:href="#DejaVuSans-c9c"/>
       <use xlink:href="#DejaVuSans-15" transform="translate(83.796875 0)"/>
      </g>
     </g>
    </g>
    <g id="ytick_5">
     <g id="line2d_11">
      <g>
       <use xlink:href="#mf5fa5a30f4" x="28.942188" y="124.178145" style="fill: #7f7f7f; stroke: #7f7f7f; stroke-width: 1.8"/>
      </g>
     </g>
     <g id="text_12">
      <!-- 0 -->
      <g style="fill: #7f7f7f" transform="translate(15.579688 127.976973) scale(0.1 -0.1)">
       <use xlink:href="#DejaVuSans-13"/>
      </g>
     </g>
    </g>
    <g id="ytick_6">
     <g id="line2d_12">
      <g>
       <use xlink:href="#mf5fa5a30f4" x="28.942188" y="97.640496" style="fill: #7f7f7f; stroke: #7f7f7f; stroke-width: 1.8"/>
      </g>
     </g>
     <g id="text_13">
      <!-- 2 -->
      <g style="fill: #7f7f7f" transform="translate(15.579688 101.439324) scale(0.1 -0.1)">
       <use xlink:href="#DejaVuSans-15"/>
      </g>
     </g>
    </g>
    <g id="ytick_7">
     <g id="line2d_13">
      <g>
       <use xlink:href="#mf5fa5a30f4" x="28.942188" y="71.102847" style="fill: #7f7f7f; stroke: #7f7f7f; stroke-width: 1.8"/>
      </g>
     </g>
     <g id="text_14">
      <!-- 4 -->
      <g style="fill: #7f7f7f" transform="translate(15.579688 74.901675) scale(0.1 -0.1)">
       <use xlink:href="#DejaVuSans-17"/>
      </g>
     </g>
    </g>
    <g id="ytick_8">
     <g id="line2d_14">
      <g>
       <use xlink:href="#mf5fa5a30f4" x="28.942188" y="44.565198" style="fill: #7f7f7f; stroke: #7f7f7f; stroke-width: 1.8"/>
      </g>
     </g>
     <g id="text_15">
      <!-- 6 -->
      <g style="fill: #7f7f7f" transform="translate(15.579688 48.364026) scale(0.1 -0.1)">
       <use xlink:href="#DejaVuSans-19"/>
      </g>
     </g>
    </g>
    <g id="ytick_9">
     <g id="line2d_15">
      <g>
       <use xlink:href="#mf5fa5a30f4" x="28.942188" y="18.027548" style="fill: #7f7f7f; stroke: #7f7f7f; stroke-width: 1.8"/>
      </g>
     </g>
     <g id="text_16">
      <!-- 8 -->
      <g style="fill: #7f7f7f" transform="translate(15.579688 21.826376) scale(0.1 -0.1)">
       <use xlink:href="#DejaVuSans-1b"/>
      </g>
     </g>
    </g>
   </g>
   <g id="line2d_16">
    <path d="M 53.153906 124.178145 
L 57.656385 111.96775 
L 59.544522 110.960623 
L 61.142176 112.550586 
L 63.611277 118.679868 
L 70.437617 137.108971 
L 72.035271 137.211943 
L 73.778166 134.813997 
L 76.682991 126.500496 
L 82.056918 111.72225 
L 83.945054 111.035886 
L 85.542708 112.886449 
L 88.157051 119.762021 
L 94.402425 136.896603 
L 96.14532 137.270308 
L 97.888216 135.010008 
L 100.793041 126.828062 
L 106.312209 111.665769 
L 108.200345 111.059899 
L 109.797999 112.974906 
L 112.412342 119.919601 
L 118.512475 136.797547 
L 120.25537 137.320404 
L 121.853024 135.469842 
L 124.467367 128.594269 
L 130.712741 111.459688 
L 132.455637 111.085983 
L 134.198532 113.346283 
L 137.103357 121.528229 
L 142.622525 136.690521 
L 144.510661 137.296392 
L 146.108315 135.381384 
L 148.722658 128.43669 
L 154.822791 111.558743 
L 156.565686 111.035886 
L 158.16334 112.886449 
L 160.777683 119.762021 
L 167.023057 136.896603 
L 168.765953 137.270308 
L 170.508848 135.010008 
L 173.413673 126.828062 
L 178.932841 111.665769 
L 180.820978 111.059899 
L 182.418631 112.974906 
L 185.032974 119.919601 
L 191.133107 136.797547 
L 192.876002 137.320404 
L 194.473656 135.469842 
L 197.087999 128.594269 
L 203.333373 111.459688 
L 205.076269 111.085983 
L 206.819164 113.346283 
L 209.723989 121.528229 
L 215.243157 136.690521 
L 217.131294 137.296392 
L 218.728947 135.381384 
L 221.34329 128.43669 
L 227.443423 111.558743 
L 229.186319 111.035886 
L 230.783972 112.886449 
L 233.398315 119.762021 
L 239.64369 136.896603 
L 241.386585 137.270308 
L 243.12948 135.010008 
L 246.034305 126.828062 
L 251.553473 111.665769 
L 253.44161 111.059899 
L 255.039264 112.974906 
L 257.653606 119.919601 
L 263.753739 136.797547 
L 265.496635 137.320404 
L 267.094288 135.469842 
L 269.708631 128.594269 
L 275.954006 111.459688 
L 277.696901 111.085983 
L 279.439796 113.346283 
L 282.344621 121.528229 
L 287.863789 136.690521 
L 289.751926 137.296392 
L 291.34958 135.381384 
L 293.963922 128.43669 
L 300.064055 111.558743 
L 301.806951 111.035886 
L 303.404605 112.886449 
L 306.018947 119.762021 
L 312.264322 136.896603 
L 314.007217 137.270308 
L 315.750112 135.010008 
L 318.654937 126.828062 
L 324.174105 111.665769 
L 326.062242 111.059899 
L 327.659896 112.974906 
L 330.274238 119.919601 
L 336.374372 136.797547 
L 338.117267 137.320404 
L 339.714921 135.469842 
L 342.329263 128.594269 
L 348.574638 111.459688 
L 350.317533 111.085983 
L 352.060428 113.346283 
L 354.965253 121.528229 
L 360.484421 136.690521 
L 362.372558 137.296392 
L 363.970212 135.381384 
L 366.584554 128.43669 
L 372.684688 111.558743 
L 374.427583 111.035886 
L 376.025237 112.886449 
L 378.639579 119.762021 
L 384.884954 136.896603 
L 386.627849 137.270308 
L 388.370744 135.010008 
L 391.275569 126.828062 
L 396.794737 111.665769 
L 398.682874 111.059899 
L 400.280528 112.974906 
L 402.894871 119.919601 
L 408.995004 136.797547 
L 410.737899 137.320404 
L 412.335553 135.469842 
L 414.949895 128.594269 
L 421.19527 111.459688 
L 422.938165 111.085983 
L 424.68106 113.346283 
L 427.585885 121.528229 
L 433.105054 136.690521 
L 434.99319 137.296392 
L 436.590844 135.381384 
L 439.205187 128.43669 
L 445.30532 111.558743 
L 447.048215 111.035886 
L 448.645869 112.886449 
L 451.260212 119.762021 
L 457.505586 136.896603 
L 459.248481 137.270308 
L 460.991376 135.010008 
L 463.896202 126.828062 
L 469.41537 111.665769 
L 471.303506 111.059899 
L 472.90116 112.974906 
L 475.515503 119.919601 
L 481.615636 136.797547 
L 483.358531 137.320404 
L 484.956185 135.469842 
L 487.570528 128.594269 
L 493.815902 111.459688 
L 495.558797 111.085983 
L 497.301692 113.346283 
L 500.206518 121.528229 
L 505.725686 136.690521 
L 507.613822 137.296392 
L 509.211476 135.381384 
L 511.825819 128.43669 
L 517.925952 111.558743 
L 519.668847 111.035886 
L 521.266501 112.886449 
L 523.880844 119.762021 
L 530.126218 136.896603 
L 531.869113 137.270308 
L 533.612008 135.010008 
L 536.516834 126.828062 
L 537.388281 123.844698 
L 537.388281 123.844698 
" clip-path="url(#p2067bcb5ec)" style="fill: none; stroke: #e41a1c; stroke-width: 2; stroke-linecap: square"/>
   </g>
   <g id="line2d_17">
    <path d="M 53.153906 124.178145 
L 53.880113 125.408496 
L 54.025354 124.637803 
L 55.042043 110.31937 
L 60.125487 27.710645 
L 60.706452 25.061016 
L 61.287417 26.834126 
L 62.594588 35.158697 
L 64.482725 68.566313 
L 67.823274 171.727833 
L 70.582858 221.577112 
L 71.890029 225.928901 
L 72.325753 227.229464 
L 72.761477 225.298432 
L 76.828232 193.954739 
L 78.280645 146.798498 
L 82.492642 41.343925 
L 84.961743 30.285922 
L 85.106984 30.1262 
L 85.252226 30.754824 
L 88.883257 78.147264 
L 93.240495 192.976968 
L 96.000079 223.910415 
L 97.452492 227.227538 
L 97.597733 227.17394 
L 98.033457 224.550938 
L 101.228765 168.620129 
L 105.876485 46.526805 
L 107.764622 33.300789 
L 108.055104 32.894562 
L 108.490828 33.742763 
L 108.926552 34.483848 
L 109.362276 33.258119 
L 109.797999 32.892896 
L 110.088482 33.732668 
L 110.959929 47.082588 
L 116.333856 169.003397 
L 119.238681 222.235355 
L 120.25537 220.987963 
L 120.545853 221.736508 
L 121.4173 224.235552 
L 121.707783 223.043798 
L 123.305437 213.528296 
L 126.210262 158.911371 
L 131.584189 27.578001 
L 132.600878 20.954481 
L 133.036602 22.112005 
L 134.05329 24.003652 
L 134.634255 27.297758 
L 136.958116 67.354321 
L 142.767766 212.773997 
L 144.655903 226.310099 
L 144.801144 226.250491 
L 145.382109 225.359058 
L 149.739347 182.005777 
L 155.984721 26.966038 
L 156.856169 20.769449 
L 157.437134 23.580131 
L 158.744305 24.753503 
L 159.760994 33.473763 
L 161.068166 66.048234 
L 167.894505 220.229663 
L 168.184988 219.668296 
L 168.47547 219.332473 
L 168.911194 220.153083 
L 169.346918 220.734853 
L 169.6374 219.608113 
L 170.944572 217.138316 
L 171.670778 217.640283 
L 171.816019 217.403945 
L 172.832708 207.713322 
L 174.139879 172.916512 
L 179.513806 32.946385 
L 180.820978 22.190699 
L 180.966219 22.227361 
L 181.547184 26.558562 
L 183.290079 36.576218 
L 183.580562 36.744315 
L 183.725803 37.364085 
L 184.452009 44.864051 
L 186.775869 108.696131 
L 190.26166 201.515873 
L 192.149796 223.479361 
L 192.876002 223.635653 
L 193.021244 223.037967 
L 193.74745 221.260225 
L 194.037933 222.340043 
L 194.328415 223.567072 
L 194.618898 221.461311 
L 197.23324 192.422749 
L 204.931027 27.152741 
L 205.947716 28.726326 
L 208.126335 50.964147 
L 210.304954 100.074214 
L 214.662192 210.373587 
L 216.69557 228.051756 
L 216.986052 227.431246 
L 220.036119 213.14851 
L 221.488532 192.460314 
L 223.66715 135.137979 
L 227.443423 42.65503 
L 229.767284 21.847256 
L 230.203007 24.099959 
L 233.834039 61.710465 
L 237.755553 182.221801 
L 240.515137 223.377694 
L 241.241343 225.94887 
L 241.96755 224.962563 
L 242.838997 223.915496 
L 243.710445 219.369872 
L 245.889064 191.447903 
L 247.631959 141.619587 
L 250.827267 52.197865 
L 253.296368 23.761961 
L 253.877333 21.985656 
L 254.167816 23.058354 
L 257.653606 63.500139 
L 265.206152 228.857346 
L 265.932358 230.944634 
L 266.513323 229.935905 
L 269.418149 207.417799 
L 271.451526 155.741361 
L 276.970694 26.26231 
L 278.858831 19.953615 
L 279.294555 22.040724 
L 280.892209 37.234995 
L 288.589996 222.414945 
L 289.606684 227.722533 
L 290.18765 227.224366 
L 291.494821 220.976722 
L 295.416335 156.827753 
L 299.918814 39.31526 
L 301.952192 27.163814 
L 302.242674 27.846037 
L 304.711776 37.222592 
L 306.30943 74.14314 
L 311.392874 201.802274 
L 313.571493 224.9126 
L 314.152458 227.322207 
L 314.588182 225.932229 
L 316.912042 213.856805 
L 318.073972 192.961227 
L 321.995486 84.318543 
L 325.045553 24.749058 
L 326.788448 17.854506 
L 326.933689 17.929535 
L 327.514654 19.845079 
L 329.838515 46.879886 
L 331.871892 87.400909 
L 336.374372 214.892679 
L 338.262508 223.602048 
L 338.55299 223.483353 
L 338.698232 223.836033 
L 339.279197 225.451915 
L 339.714921 224.381977 
L 340.441127 221.144161 
L 342.474505 196.258932 
L 350.317533 19.835439 
L 353.077117 37.299705 
L 353.948565 54.036625 
L 360.048698 206.079467 
L 361.791593 222.868078 
L 364.696418 215.967937 
L 365.713107 200.526207 
L 369.779862 108.944629 
L 372.539446 40.313484 
L 374.282342 25.657375 
L 374.718065 26.411402 
L 376.170478 28.185068 
L 377.187167 36.176862 
L 379.365786 68.147806 
L 385.175436 221.085437 
L 386.482608 230.522989 
L 386.77309 229.335114 
L 389.968398 202.717285 
L 398.682874 30.288061 
L 399.118598 31.805341 
L 402.023423 53.214593 
L 403.911559 102.87526 
L 409.140245 215.750503 
L 411.028381 228.779421 
L 411.318864 228.397 
L 412.04507 226.786736 
L 414.804654 203.313507 
L 415.676102 185.174799 
L 420.323822 54.69681 
L 422.502441 26.333011 
L 423.373889 24.334855 
L 423.664371 24.883862 
L 424.390578 30.193975 
L 428.312092 77.571692 
L 434.412225 221.08533 
L 435.283672 223.310388 
L 435.574155 222.402912 
L 436.15512 220.54577 
L 436.590844 221.831044 
L 437.171809 223.766786 
L 437.462291 222.596071 
L 439.350428 195.359102 
L 445.450561 42.156232 
L 447.193456 32.864217 
L 447.483939 31.747851 
L 447.919662 34.039541 
L 449.081593 42.223527 
L 449.372075 41.740335 
L 449.807799 40.921845 
L 450.098281 40.458876 
L 450.388764 42.011108 
L 452.131659 76.764737 
L 458.377033 225.412249 
L 460.119929 228.879299 
L 460.700894 227.395731 
L 461.717583 220.844463 
L 464.91289 162.045772 
L 465.929579 129.980603 
L 469.270128 39.913912 
L 471.73923 21.853053 
L 471.884471 22.98323 
L 473.917849 36.591113 
L 474.498814 38.269175 
L 475.805985 68.864178 
L 480.017982 187.336505 
L 483.939496 228.895142 
L 484.520461 230.485337 
L 485.101426 229.905621 
L 485.827632 227.361737 
L 486.844321 208.635974 
L 490.330112 109.691488 
L 493.234937 46.170243 
L 496.139762 22.555117 
L 496.575486 24.198316 
L 500.932724 91.551674 
L 504.708997 198.10757 
L 507.468581 221.864914 
L 508.48527 225.810028 
L 509.501959 223.570328 
L 509.792441 223.248364 
L 510.80913 212.784075 
L 513.278231 155.577592 
L 517.054504 56.241652 
L 520.249812 23.601133 
L 520.830777 21.159713 
L 521.266501 23.020455 
L 523.299879 39.57291 
L 527.366634 159.35004 
L 529.25477 187.388973 
L 532.885802 223.288977 
L 533.176285 220.344455 
L 537.388281 163.694304 
L 537.388281 163.694304 
" clip-path="url(#p2067bcb5ec)" style="fill: none; stroke: #377eb8; stroke-width: 2; stroke-linecap: square"/>
   </g>
   <g id="patch_3">
    <path d="M 28.942188 241.599141 
L 28.942188 7.2 
" style="fill: none; stroke: #7f7f7f; stroke-width: 1.8; stroke-linejoin: miter; stroke-linecap: square"/>
   </g>
   <g id="patch_4">
    <path d="M 28.942188 241.599141 
L 561.6 241.599141 
" style="fill: none; stroke: #7f7f7f; stroke-width: 1.8; stroke-linejoin: miter; stroke-linecap: square"/>
   </g>
   <g id="legend_1">
    <g id="line2d_18">
     <path d="M 503.101562 20.298438 
L 513.101562 20.298438 
L 523.101562 20.298438 
" style="fill: none; stroke: #e41a1c; stroke-width: 2; stroke-linecap: square"/>
    </g>
    <g id="text_17">
     <!-- Src -->
     <g style="fill: #7f7f7f" transform="translate(531.101562 23.798438) scale(0.1 -0.1)">
      <defs>
       <path id="DejaVuSans-36" d="M 3425 4513 
L 3425 3897 
Q 3066 4069 2747 4153 
Q 2428 4238 2131 4238 
Q 1616 4238 1336 4038 
Q 1056 3838 1056 3469 
Q 1056 3159 1242 3001 
Q 1428 2844 1947 2747 
L 2328 2669 
Q 3034 2534 3370 2195 
Q 3706 1856 3706 1288 
Q 3706 609 3251 259 
Q 2797 -91 1919 -91 
Q 1588 -91 1214 -16 
Q 841 59 441 206 
L 441 856 
Q 825 641 1194 531 
Q 1563 422 1919 422 
Q 2459 422 2753 634 
Q 3047 847 3047 1241 
Q 3047 1584 2836 1778 
Q 2625 1972 2144 2069 
L 1759 2144 
Q 1053 2284 737 2584 
Q 422 2884 422 3419 
Q 422 4038 858 4394 
Q 1294 4750 2059 4750 
Q 2388 4750 2728 4690 
Q 3069 4631 3425 4513 
z
" transform="scale(0.015625)"/>
       <path id="DejaVuSans-55" d="M 2631 2963 
Q 2534 3019 2420 3045 
Q 2306 3072 2169 3072 
Q 1681 3072 1420 2755 
Q 1159 2438 1159 1844 
L 1159 0 
L 581 0 
L 581 3500 
L 1159 3500 
L 1159 2956 
Q 1341 3275 1631 3429 
Q 1922 3584 2338 3584 
Q 2397 3584 2469 3576 
Q 2541 3569 2628 3553 
L 2631 2963 
z
" transform="scale(0.015625)"/>
       <path id="DejaVuSans-46" d="M 3122 3366 
L 3122 2828 
Q 2878 2963 2633 3030 
Q 2388 3097 2138 3097 
Q 1578 3097 1268 2742 
Q 959 2388 959 1747 
Q 959 1106 1268 751 
Q 1578 397 2138 397 
Q 2388 397 2633 464 
Q 2878 531 3122 666 
L 3122 134 
Q 2881 22 2623 -34 
Q 2366 -91 2075 -91 
Q 1284 -91 818 406 
Q 353 903 353 1747 
Q 353 2603 823 3093 
Q 1294 3584 2113 3584 
Q 2378 3584 2631 3529 
Q 2884 3475 3122 3366 
z
" transform="scale(0.015625)"/>
      </defs>
      <use xlink:href="#DejaVuSans-36"/>
      <use xlink:href="#DejaVuSans-55" transform="translate(63.484375 0)"/>
      <use xlink:href="#DejaVuSans-46" transform="translate(102.390625 0)"/>
     </g>
    </g>
    <g id="line2d_19">
     <path d="M 503.101562 35.299219 
L 513.101562 35.299219 
L 523.101562 35.299219 
" style="fill: none; stroke: #377eb8; stroke-width: 2; stroke-linecap: square"/>
    </g>
    <g id="text_18">
     <!-- AMP -->
     <g style="fill: #7f7f7f" transform="translate(531.101562 38.799219) scale(0.1 -0.1)">
      <defs>
       <path id="DejaVuSans-24" d="M 2188 4044 
L 1331 1722 
L 3047 1722 
L 2188 4044 
z
M 1831 4666 
L 2547 4666 
L 4325 0 
L 3669 0 
L 3244 1197 
L 1141 1197 
L 716 0 
L 50 0 
L 1831 4666 
z
" transform="scale(0.015625)"/>
       <path id="DejaVuSans-30" d="M 628 4666 
L 1569 4666 
L 2759 1491 
L 3956 4666 
L 4897 4666 
L 4897 0 
L 4281 0 
L 4281 4097 
L 3078 897 
L 2444 897 
L 1241 4097 
L 1241 0 
L 628 0 
L 628 4666 
z
" transform="scale(0.015625)"/>
       <path id="DejaVuSans-33" d="M 1259 4147 
L 1259 2394 
L 2053 2394 
Q 2494 2394 2734 2622 
Q 2975 2850 2975 3272 
Q 2975 3691 2734 3919 
Q 2494 4147 2053 4147 
L 1259 4147 
z
M 628 4666 
L 2053 4666 
Q 2838 4666 3239 4311 
Q 3641 3956 3641 3272 
Q 3641 2581 3239 2228 
Q 2838 1875 2053 1875 
L 1259 1875 
L 1259 0 
L 628 0 
L 628 4666 
z
" transform="scale(0.015625)"/>
      </defs>
      <use xlink:href="#DejaVuSans-24"/>
      <use xlink:href="#DejaVuSans-30" transform="translate(68.40625 0)"/>
      <use xlink:href="#DejaVuSans-33" transform="translate(154.6875 0)"/>
     </g>
    </g>
   </g>
  </g>
 </g>
 <defs>
  <clipPath id="p2067bcb5ec">
   <rect x="28.942188" y="7.2" width="532.657812" height="234.399141"/>
  </clipPath>
 </defs>
</svg>
