<?xml version="1.0" encoding="utf-8" standalone="no"?>
<!DOCTYPE svg PUBLIC "-//W3C//DTD SVG 1.1//EN"
  "http://www.w3.org/Graphics/SVG/1.1/DTD/svg11.dtd">
<svg xmlns:xlink="http://www.w3.org/1999/xlink" width="568.8pt" height="280.8pt" viewBox="0 0 568.8 280.8" xmlns="http://www.w3.org/2000/svg" version="1.1">
 <metadata>
  <rdf:RDF xmlns:dc="http://purl.org/dc/elements/1.1/" xmlns:cc="http://creativecommons.org/ns#" xmlns:rdf="http://www.w3.org/1999/02/22-rdf-syntax-ns#">
   <cc:Work>
    <dc:type rdf:resource="http://purl.org/dc/dcmitype/StillImage"/>
    <dc:date>2026-07-20T09:06:09.513178</dc:date>
    <dc:format>image/svg+xml</dc:format>
    <dc:creator>
     <cc:Agent>
      <dc:title>Matplotlib v3.11.1, https://matplotlib.org/</dc:title>
     </cc:Agent>
    </dc:creator>
   </cc:Work>
  </rdf:RDF>
 </metadata>
 <defs>
  <style type="text/css">*{stroke-linejoin: round; stroke-linecap: butt}</style>
 </defs>
 <g id="figure_1">
  <g id="patch_1">
   <path d="M 0 280.8 
L 568.8 280.8 
L 568.8 0 
L 0 0 
L 0 280.8 
z
" style="fill: none"/>
  </g>
  <g id="axes_1">
   <g id="patch_2">
    <path d="M 28.942188 241.599141 
L 561.6 241.599141 
L 561.6 7.2 
L 28.942188 7.2 
L 28.942188 241.599141 
z
" style="fill: none"/>
   </g>
   <g id="matplotlib.axis_1">
    <g id="xtick_1">
     <g id="line2d_1">
      <defs>
       <path id="m8f5de80b44" d="M 0 0 
L 0 3.5 
" style="stroke: #7f7f7f; stroke-width: 1.8"/>
      </defs>
      <g>
       <use xlink:href="#m8f5de80b44" x="53.153906" y="241.599141" style="fill: #7f7f7f; stroke: #7f7f7f; stroke-width: 1.8"/>
      </g>
     </g>
     <g id="text_1">
      <!-- 0.00000 -->
      <g style="fill: #7f7f7f" transform="translate(32.477344 256.196797) scale(0.1 -0.1)">
       <defs>
        <path id="DejaVuSans-13" d="M 2034 4250 
Q 1547 4250 1301 3770 
Q 1056 3291 1056 2328 
Q 1056 1369 1301 889 
Q 1547 409 2034 409 
Q 2525 409 2770 889 
Q 3016 1369 3016 2328 
Q 3016 3291 2770 3770 
Q 2525 4250 2034 4250 
z
M 2034 4750 
Q 2819 4750 3233 4129 
Q 3647 3509 3647 2328 
Q 3647 1150 3233 529 
Q 2819 -91 2034 -91 
Q 1250 -91 836 529 
Q 422 1150 422 2328 
Q 422 3509 836 4129 
Q 1250 4750 2034 4750 
z
" transform="scale(0.015625)"/>
        <path id="DejaVuSans-11" d="M 684 794 
L 1344 794 
L 1344 0 
L 684 0 
L 684 794 
z
" transform="scale(0.015625)"/>
       </defs>
       <use xlink:href="#DejaVuSans-13"/>
       <use xlink:href="#DejaVuSans-11" transform="translate(63.625 0)"/>
       <use xlink:href="#DejaVuSans-13" transform="translate(95.40625 0)"/>
       <use xlink:href="#DejaVuSans-13" transform="translate(159.03125 0)"/>
       <use xlink:href="#DejaVuSans-13" transform="translate(222.65625 0)"/>
       <use xlink:href="#DejaVuSans-13" transform="translate(286.28125 0)"/>
       <use xlink:href="#DejaVuSans-13" transform="translate(349.90625 0)"/>
      </g>
     </g>
    </g>
    <g id="xtick_2">
     <g id="line2d_2">
      <g>
       <use xlink:href="#m8f5de80b44" x="149.981416" y="241.599141" style="fill: #7f7f7f; stroke: #7f7f7f; stroke-width: 1.8"/>
      </g>
     </g>
     <g id="text_2">
      <!-- 0.00002 -->
      <g style="fill: #7f7f7f" transform="translate(129.304853 256.196797) scale(0.1 -0.1)">
       <defs>
        <path id="DejaVuSans-15" d="M 1228 531 
L 3431 531 
L 3431 0 
L 469 0 
L 469 531 
Q 828 903 1448 1529 
Q 2069 2156 2228 2338 
Q 2531 2678 2651 2914 
Q 2772 3150 2772 3378 
Q 2772 3750 2511 3984 
Q 2250 4219 1831 4219 
Q 1534 4219 1204 4116 
Q 875 4013 500 3803 
L 500 4441 
Q 881 4594 1212 4672 
Q 1544 4750 1819 4750 
Q 2544 4750 2975 4387 
Q 3406 4025 3406 3419 
Q 3406 3131 3298 2873 
Q 3191 2616 2906 2266 
Q 2828 2175 2409 1742 
Q 1991 1309 1228 531 
z
" transform="scale(0.015625)"/>
       </defs>
       <use xlink:href="#DejaVuSans-13"/>
       <use xlink:href="#DejaVuSans-11" transform="translate(63.625 0)"/>
       <use xlink:href="#DejaVuSans-13" transform="translate(95.40625 0)"/>
       <use xlink:href="#DejaVuSans-13" transform="translate(159.03125 0)"/>
       <use xlink:href="#DejaVuSans-13" transform="translate(222.65625 0)"/>
       <use xlink:href="#DejaVuSans-13" transform="translate(286.28125 0)"/>
       <use xlink:href="#DejaVuSans-15" transform="translate(349.90625 0)"/>
      </g>
     </g>
    </g>
    <g id="xtick_3">
     <g id="line2d_3">
      <g>
       <use xlink:href="#m8f5de80b44" x="246.808925" y="241.599141" style="fill: #7f7f7f; stroke: #7f7f7f; stroke-width: 1.8"/>
      </g>
     </g>
     <g id="text_3">
      <!-- 0.00004 -->
      <g style="fill: #7f7f7f" transform="translate(226.132363 256.196797) scale(0.1 -0.1)">
       <defs>
        <path id="DejaVuSans-17" d="M 2419 4116 
L 825 1625 
L 2419 1625 
L 2419 4116 
z
M 2253 4666 
L 3047 4666 
L 3047 1625 
L 3713 1625 
L 3713 1100 
L 3047 1100 
L 3047 0 
L 2419 0 
L 2419 1100 
L 313 1100 
L 313 1709 
L 2253 4666 
z
" transform="scale(0.015625)"/>
       </defs>
       <use xlink:href="#DejaVuSans-13"/>
       <use xlink:href="#DejaVuSans-11" transform="translate(63.625 0)"/>
       <use xlink:href="#DejaVuSans-13" transform="translate(95.40625 0)"/>
       <use xlink:href="#DejaVuSans-13" transform="translate(159.03125 0)"/>
       <use xlink:href="#DejaVuSans-13" transform="translate(222.65625 0)"/>
       <use xlink:href="#DejaVuSans-13" transform="translate(286.28125 0)"/>
       <use xlink:href="#DejaVuSans-17" transform="translate(349.90625 0)"/>
      </g>
     </g>
    </g>
    <g id="xtick_4">
     <g id="line2d_4">
      <g>
       <use xlink:href="#m8f5de80b44" x="343.636435" y="241.599141" style="fill: #7f7f7f; stroke: #7f7f7f; stroke-width: 1.8"/>
      </g>
     </g>
     <g id="text_4">
      <!-- 0.00006 -->
      <g style="fill: #7f7f7f" transform="translate(322.959872 256.196797) scale(0.1 -0.1)">
       <defs>
        <path id="DejaVuSans-19" d="M 2113 2584 
Q 1688 2584 1439 2293 
Q 1191 2003 1191 1497 
Q 1191 994 1439 701 
Q 1688 409 2113 409 
Q 2538 409 2786 701 
Q 3034 994 3034 1497 
Q 3034 2003 2786 2293 
Q 2538 2584 2113 2584 
z
M 3366 4563 
L 3366 3988 
Q 3128 4100 2886 4159 
Q 2644 4219 2406 4219 
Q 1781 4219 1451 3797 
Q 1122 3375 1075 2522 
Q 1259 2794 1537 2939 
Q 1816 3084 2150 3084 
Q 2853 3084 3261 2657 
Q 3669 2231 3669 1497 
Q 3669 778 3244 343 
Q 2819 -91 2113 -91 
Q 1303 -91 875 529 
Q 447 1150 447 2328 
Q 447 3434 972 4092 
Q 1497 4750 2381 4750 
Q 2619 4750 2861 4703 
Q 3103 4656 3366 4563 
z
" transform="scale(0.015625)"/>
       </defs>
       <use xlink:href="#DejaVuSans-13"/>
       <use xlink:href="#DejaVuSans-11" transform="translate(63.625 0)"/>
       <use xlink:href="#DejaVuSans-13" transform="translate(95.40625 0)"/>
       <use xlink:href="#DejaVuSans-13" transform="translate(159.03125 0)"/>
       <use xlink:href="#DejaVuSans-13" transform="translate(222.65625 0)"/>
       <use xlink:href="#DejaVuSans-13" transform="translate(286.28125 0)"/>
       <use xlink:href="#DejaVuSans-19" transform="translate(349.90625 0)"/>
      </g>
     </g>
    </g>
    <g id="xtick_5">
     <g id="line2d_5">
      <g>
       <use xlink:href="#m8f5de80b44" x="440.463944" y="241.599141" style="fill: #7f7f7f; stroke: #7f7f7f; stroke-width: 1.8"/>
      </g>
     </g>
     <g id="text_5">
      <!-- 0.00008 -->
      <g style="fill: #7f7f7f" transform="translate(419.787382 256.196797) scale(0.1 -0.1)">
       <defs>
        <path id="DejaVuSans-1b" d="M 2034 2216 
Q 1584 2216 1326 1975 
Q 1069 1734 1069 1313 
Q 1069 891 1326 650 
Q 1584 409 2034 409 
Q 2484 409 2743 651 
Q 3003 894 3003 1313 
Q 3003 1734 2745 1975 
Q 2488 2216 2034 2216 
z
M 1403 2484 
Q 997 2584 770 2862 
Q 544 3141 544 3541 
Q 544 4100 942 4425 
Q 1341 4750 2034 4750 
Q 2731 4750 3128 4425 
Q 3525 4100 3525 3541 
Q 3525 3141 3298 2862 
Q 3072 2584 2669 2484 
Q 3125 2378 3379 2068 
Q 3634 1759 3634 1313 
Q 3634 634 3220 271 
Q 2806 -91 2034 -91 
Q 1263 -91 848 271 
Q 434 634 434 1313 
Q 434 1759 690 2068 
Q 947 2378 1403 2484 
z
M 1172 3481 
Q 1172 3119 1398 2916 
Q 1625 2713 2034 2713 
Q 2441 2713 2670 2916 
Q 2900 3119 2900 3481 
Q 2900 3844 2670 4047 
Q 2441 4250 2034 4250 
Q 1625 4250 1398 4047 
Q 1172 3844 1172 3481 
z
" transform="scale(0.015625)"/>
       </defs>
       <use xlink:href="#DejaVuSans-13"/>
       <use xlink:href="#DejaVuSans-11" transform="translate(63.625 0)"/>
       <use xlink:href="#DejaVuSans-13" transform="translate(95.40625 0)"/>
       <use xlink:href="#DejaVuSans-13" transform="translate(159.03125 0)"/>
       <use xlink:href="#DejaVuSans-13" transform="translate(222.65625 0)"/>
       <use xlink:href="#DejaVuSans-13" transform="translate(286.28125 0)"/>
       <use xlink:href="#DejaVuSans-1b" transform="translate(349.90625 0)"/>
      </g>
     </g>
    </g>
    <g id="xtick_6">
     <g id="line2d_6">
      <g>
       <use xlink:href="#m8f5de80b44" x="537.291454" y="241.599141" style="fill: #7f7f7f; stroke: #7f7f7f; stroke-width: 1.8"/>
      </g>
     </g>
     <g id="text_6">
      <!-- 0.00010 -->
      <g style="fill: #7f7f7f" transform="translate(516.614891 256.196797) scale(0.1 -0.1)">
       <defs>
        <path id="DejaVuSans-14" d="M 794 531 
L 1825 531 
L 1825 4091 
L 703 3866 
L 703 4441 
L 1819 4666 
L 2450 4666 
L 2450 531 
L 3481 531 
L 3481 0 
L 794 0 
L 794 531 
z
" transform="scale(0.015625)"/>
       </defs>
       <use xlink:href="#DejaVuSans-13"/>
       <use xlink:href="#DejaVuSans-11" transform="translate(63.625 0)"/>
       <use xlink:href="#DejaVuSans-13" transform="translate(95.40625 0)"/>
       <use xlink:href="#DejaVuSans-13" transform="translate(159.03125 0)"/>
       <use xlink:href="#DejaVuSans-13" transform="translate(222.65625 0)"/>
       <use xlink:href="#DejaVuSans-14" transform="translate(286.28125 0)"/>
       <use xlink:href="#DejaVuSans-13" transform="translate(349.90625 0)"/>
      </g>
     </g>
    </g>
    <g id="text_7">
     <!-- time [s] -->
     <g style="fill: #7f7f7f" transform="translate(273.940547 270.957422) scale(0.11 -0.11)">
      <defs>
       <path id="DejaVuSans-57" d="M 1172 4494 
L 1172 3500 
L 2356 3500 
L 2356 3053 
L 1172 3053 
L 1172 1153 
Q 1172 725 1289 603 
Q 1406 481 1766 481 
L 2356 481 
L 2356 0 
L 1766 0 
Q 1100 0 847 248 
Q 594 497 594 1153 
L 594 3053 
L 172 3053 
L 172 3500 
L 594 3500 
L 594 4494 
L 1172 4494 
z
" transform="scale(0.015625)"/>
       <path id="DejaVuSans-4c" d="M 603 3500 
L 1178 3500 
L 1178 0 
L 603 0 
L 603 3500 
z
M 603 4863 
L 1178 4863 
L 1178 4134 
L 603 4134 
L 603 4863 
z
" transform="scale(0.015625)"/>
       <path id="DejaVuSans-50" d="M 3328 2828 
Q 3544 3216 3844 3400 
Q 4144 3584 4550 3584 
Q 5097 3584 5394 3201 
Q 5691 2819 5691 2113 
L 5691 0 
L 5113 0 
L 5113 2094 
Q 5113 2597 4934 2840 
Q 4756 3084 4391 3084 
Q 3944 3084 3684 2787 
Q 3425 2491 3425 1978 
L 3425 0 
L 2847 0 
L 2847 2094 
Q 2847 2600 2669 2842 
Q 2491 3084 2119 3084 
Q 1678 3084 1418 2786 
Q 1159 2488 1159 1978 
L 1159 0 
L 581 0 
L 581 3500 
L 1159 3500 
L 1159 2956 
Q 1356 3278 1631 3431 
Q 1906 3584 2284 3584 
Q 2666 3584 2933 3390 
Q 3200 3197 3328 2828 
z
" transform="scale(0.015625)"/>
       <path id="DejaVuSans-48" d="M 3597 1894 
L 3597 1613 
L 953 1613 
Q 991 1019 1311 708 
Q 1631 397 2203 397 
Q 2534 397 2845 478 
Q 3156 559 3463 722 
L 3463 178 
Q 3153 47 2828 -22 
Q 2503 -91 2169 -91 
Q 1331 -91 842 396 
Q 353 884 353 1716 
Q 353 2575 817 3079 
Q 1281 3584 2069 3584 
Q 2775 3584 3186 3129 
Q 3597 2675 3597 1894 
z
M 3022 2063 
Q 3016 2534 2758 2815 
Q 2500 3097 2075 3097 
Q 1594 3097 1305 2825 
Q 1016 2553 972 2059 
L 3022 2063 
z
" transform="scale(0.015625)"/>
       <path id="DejaVuSans-3" transform="scale(0.015625)"/>
       <path id="DejaVuSans-3e" d="M 550 4863 
L 1875 4863 
L 1875 4416 
L 1125 4416 
L 1125 -397 
L 1875 -397 
L 1875 -844 
L 550 -844 
L 550 4863 
z
" transform="scale(0.015625)"/>
       <path id="DejaVuSans-56" d="M 2834 3397 
L 2834 2853 
Q 2591 2978 2328 3040 
Q 2066 3103 1784 3103 
Q 1356 3103 1142 2972 
Q 928 2841 928 2578 
Q 928 2378 1081 2264 
Q 1234 2150 1697 2047 
L 1894 2003 
Q 2506 1872 2764 1633 
Q 3022 1394 3022 966 
Q 3022 478 2636 193 
Q 2250 -91 1575 -91 
Q 1294 -91 989 -36 
Q 684 19 347 128 
L 347 722 
Q 666 556 975 473 
Q 1284 391 1588 391 
Q 1994 391 2212 530 
Q 2431 669 2431 922 
Q 2431 1156 2273 1281 
Q 2116 1406 1581 1522 
L 1381 1569 
Q 847 1681 609 1914 
Q 372 2147 372 2553 
Q 372 3047 722 3315 
Q 1072 3584 1716 3584 
Q 2034 3584 2315 3537 
Q 2597 3491 2834 3397 
z
" transform="scale(0.015625)"/>
       <path id="DejaVuSans-40" d="M 1947 4863 
L 1947 -844 
L 622 -844 
L 622 -397 
L 1369 -397 
L 1369 4416 
L 622 4416 
L 622 4863 
L 1947 4863 
z
" transform="scale(0.015625)"/>
      </defs>
      <use xlink:href="#DejaVuSans-57"/>
      <use xlink:href="#DejaVuSans-4c" transform="translate(39.203125 0)"/>
      <use xlink:href="#DejaVuSans-50" transform="translate(66.984375 0)"/>
      <use xlink:href="#DejaVuSans-48" transform="translate(164.390625 0)"/>
      <use xlink:href="#DejaVuSans-3" transform="translate(225.921875 0)"/>
      <use xlink:href="#DejaVuSans-3e" transform="translate(257.703125 0)"/>
      <use xlink:href="#DejaVuSans-56" transform="translate(296.71875 0)"/>
      <use xlink:href="#DejaVuSans-40" transform="translate(348.8125 0)"/>
     </g>
    </g>
   </g>
   <g id="matplotlib.axis_2">
    <g id="ytick_1">
     <g id="line2d_7">
      <defs>
       <path id="m2a98cfecb2" d="M 0 0 
L -3.5 0 
" style="stroke: #7f7f7f; stroke-width: 1.8"/>
      </defs>
      <g>
       <use xlink:href="#m2a98cfecb2" x="28.942188" y="233.868489" style="fill: #7f7f7f; stroke: #7f7f7f; stroke-width: 1.8"/>
      </g>
     </g>
     <g id="text_8">
      <!-- −8 -->
      <g style="fill: #7f7f7f" transform="translate(7.2 237.667317) scale(0.1 -0.1)">
       <defs>
        <path id="DejaVuSans-c9c" d="M 678 2272 
L 4684 2272 
L 4684 1741 
L 678 1741 
L 678 2272 
z
" transform="scale(0.015625)"/>
       </defs>
       <use xlink:href="#DejaVuSans-c9c"/>
       <use xlink:href="#DejaVuSans-1b" transform="translate(83.796875 0)"/>
      </g>
     </g>
    </g>
    <g id="ytick_2">
     <g id="line2d_8">
      <g>
       <use xlink:href="#m2a98cfecb2" x="28.942188" y="207.334885" style="fill: #7f7f7f; stroke: #7f7f7f; stroke-width: 1.8"/>
      </g>
     </g>
     <g id="text_9">
      <!-- −6 -->
      <g style="fill: #7f7f7f" transform="translate(7.2 211.133713) scale(0.1 -0.1)">
       <use xlink:href="#DejaVuSans-c9c"/>
       <use xlink:href="#DejaVuSans-19" transform="translate(83.796875 0)"/>
      </g>
     </g>
    </g>
    <g id="ytick_3">
     <g id="line2d_9">
      <g>
       <use xlink:href="#m2a98cfecb2" x="28.942188" y="180.801281" style="fill: #7f7f7f; stroke: #7f7f7f; stroke-width: 1.8"/>
      </g>
     </g>
     <g id="text_10">
      <!-- −4 -->
      <g style="fill: #7f7f7f" transform="translate(7.2 184.600109) scale(0.1 -0.1)">
       <use xlink:href="#DejaVuSans-c9c"/>
       <use xlink:href="#DejaVuSans-17" transform="translate(83.796875 0)"/>
      </g>
     </g>
    </g>
    <g id="ytick_4">
     <g id="line2d_10">
      <g>
       <use xlink:href="#m2a98cfecb2" x="28.942188" y="154.267677" style="fill: #7f7f7f; stroke: #7f7f7f; stroke-width: 1.8"/>
      </g>
     </g>
     <g id="text_11">
      <!-- −2 -->
      <g style="fill: #7f7f7f" transform="translate(7.2 158.066505) scale(0.1 -0.1)">
       <use xlink:href="#DejaVuSans-c9c"/>
       <use xlink:href="#DejaVuSans-15" transform="translate(83.796875 0)"/>
      </g>
     </g>
    </g>
    <g id="ytick_5">
     <g id="line2d_11">
      <g>
       <use xlink:href="#m2a98cfecb2" x="28.942188" y="127.734073" style="fill: #7f7f7f; stroke: #7f7f7f; stroke-width: 1.8"/>
      </g>
     </g>
     <g id="text_12">
      <!-- 0 -->
      <g style="fill: #7f7f7f" transform="translate(15.579688 131.532901) scale(0.1 -0.1)">
       <use xlink:href="#DejaVuSans-13"/>
      </g>
     </g>
    </g>
    <g id="ytick_6">
     <g id="line2d_12">
      <g>
       <use xlink:href="#m2a98cfecb2" x="28.942188" y="101.200469" style="fill: #7f7f7f; stroke: #7f7f7f; stroke-width: 1.8"/>
      </g>
     </g>
     <g id="text_13">
      <!-- 2 -->
      <g style="fill: #7f7f7f" transform="translate(15.579688 104.999298) scale(0.1 -0.1)">
       <use xlink:href="#DejaVuSans-15"/>
      </g>
     </g>
    </g>
    <g id="ytick_7">
     <g id="line2d_13">
      <g>
       <use xlink:href="#m2a98cfecb2" x="28.942188" y="74.666866" style="fill: #7f7f7f; stroke: #7f7f7f; stroke-width: 1.8"/>
      </g>
     </g>
     <g id="text_14">
      <!-- 4 -->
      <g style="fill: #7f7f7f" transform="translate(15.579688 78.465694) scale(0.1 -0.1)">
       <use xlink:href="#DejaVuSans-17"/>
      </g>
     </g>
    </g>
    <g id="ytick_8">
     <g id="line2d_14">
      <g>
       <use xlink:href="#m2a98cfecb2" x="28.942188" y="48.133262" style="fill: #7f7f7f; stroke: #7f7f7f; stroke-width: 1.8"/>
      </g>
     </g>
     <g id="text_15">
      <!-- 6 -->
      <g style="fill: #7f7f7f" transform="translate(15.579688 51.93209) scale(0.1 -0.1)">
       <use xlink:href="#DejaVuSans-19"/>
      </g>
     </g>
    </g>
    <g id="ytick_9">
     <g id="line2d_15">
      <g>
       <use xlink:href="#m2a98cfecb2" x="28.942188" y="21.599658" style="fill: #7f7f7f; stroke: #7f7f7f; stroke-width: 1.8"/>
      </g>
     </g>
     <g id="text_16">
      <!-- 8 -->
      <g style="fill: #7f7f7f" transform="translate(15.579688 25.398486) scale(0.1 -0.1)">
       <use xlink:href="#DejaVuSans-1b"/>
      </g>
     </g>
    </g>
   </g>
   <g id="line2d_16">
    <path d="M 53.153906 127.734073 
L 57.656385 115.52554 
L 59.544522 114.518566 
L 61.142176 116.108286 
L 63.611277 122.236635 
L 70.437617 140.662928 
L 72.035271 140.765884 
L 73.778166 138.368304 
L 76.682991 130.05607 
L 82.056918 115.280077 
L 83.945054 114.593818 
L 85.542708 116.444098 
L 88.157051 123.318622 
L 94.402425 140.450592 
L 96.14532 140.82424 
L 97.888216 138.564284 
L 100.793041 130.383586 
L 106.312209 115.223605 
L 108.200345 114.617826 
L 109.797999 116.532542 
L 112.412342 123.476178 
L 118.512475 140.351552 
L 120.25537 140.874329 
L 121.853024 139.024048 
L 124.467367 132.149524 
L 130.712741 115.017555 
L 132.455637 114.643906 
L 134.198532 116.903862 
L 137.103357 125.084561 
L 142.622525 140.244542 
L 144.510661 140.85032 
L 146.108315 138.935605 
L 148.722658 131.991969 
L 154.822791 115.116595 
L 156.565686 114.593818 
L 158.16334 116.444098 
L 160.777683 123.318622 
L 167.023057 140.450592 
L 168.765953 140.82424 
L 170.508848 138.564284 
L 173.413673 130.383586 
L 178.932841 115.223605 
L 180.820978 114.617826 
L 182.418631 116.532542 
L 185.032974 123.476178 
L 191.133107 140.351552 
L 192.876002 140.874329 
L 194.473656 139.024048 
L 197.087999 132.149524 
L 203.333373 115.017555 
L 205.076269 114.643906 
L 206.819164 116.903862 
L 209.723989 125.084561 
L 215.243157 140.244542 
L 217.131294 140.85032 
L 218.728947 138.935605 
L 221.34329 131.991969 
L 227.443423 115.116595 
L 229.186319 114.593818 
L 230.783972 116.444098 
L 233.398315 123.318622 
L 239.64369 140.450592 
L 241.386585 140.82424 
L 243.12948 138.564284 
L 246.034305 130.383586 
L 251.553473 115.223605 
L 253.44161 114.617826 
L 255.039264 116.532542 
L 257.653606 123.476178 
L 263.753739 140.351552 
L 265.496635 140.874329 
L 267.094288 139.024048 
L 269.708631 132.149524 
L 275.954006 115.017555 
L 277.696901 114.643906 
L 279.439796 116.903862 
L 282.344621 125.084561 
L 287.863789 140.244542 
L 289.751926 140.85032 
L 291.34958 138.935605 
L 293.963922 131.991969 
L 300.064055 115.116595 
L 301.806951 114.593818 
L 303.404605 116.444098 
L 306.018947 123.318622 
L 312.264322 140.450592 
L 314.007217 140.82424 
L 315.750112 138.564284 
L 318.654937 130.383586 
L 324.174105 115.223605 
L 326.062242 114.617826 
L 327.659896 116.532542 
L 330.274238 123.476178 
L 336.374372 140.351552 
L 338.117267 140.874329 
L 339.714921 139.024048 
L 342.329263 132.149524 
L 348.574638 115.017555 
L 350.317533 114.643906 
L 352.060428 116.903862 
L 354.965253 125.084561 
L 360.484421 140.244542 
L 362.372558 140.85032 
L 363.970212 138.935605 
L 366.584554 131.991969 
L 372.684688 115.116595 
L 374.427583 114.593818 
L 376.025237 116.444098 
L 378.639579 123.318622 
L 384.884954 140.450592 
L 386.627849 140.82424 
L 388.370744 138.564284 
L 391.275569 130.383586 
L 396.794737 115.223605 
L 398.682874 114.617826 
L 400.280528 116.532542 
L 402.894871 123.476178 
L 408.995004 140.351552 
L 410.737899 140.874329 
L 412.335553 139.024048 
L 414.949895 132.149524 
L 421.19527 115.017555 
L 422.938165 114.643906 
L 424.68106 116.903862 
L 427.585885 125.084561 
L 433.105054 140.244542 
L 434.99319 140.85032 
L 436.590844 138.935605 
L 439.205187 131.991969 
L 445.30532 115.116595 
L 447.048215 114.593818 
L 448.645869 116.444098 
L 451.260212 123.318622 
L 457.505586 140.450592 
L 459.248481 140.82424 
L 460.991376 138.564284 
L 463.896202 130.383586 
L 469.41537 115.223605 
L 471.303506 114.617826 
L 472.90116 116.532542 
L 475.515503 123.476178 
L 481.615636 140.351552 
L 483.358531 140.874329 
L 484.956185 139.024048 
L 487.570528 132.149524 
L 493.815902 115.017555 
L 495.558797 114.643906 
L 497.301692 116.903862 
L 500.206518 125.084561 
L 505.725686 140.244542 
L 507.613822 140.85032 
L 509.211476 138.935605 
L 511.825819 131.991969 
L 517.925952 115.116595 
L 519.668847 114.593818 
L 521.266501 116.444098 
L 523.880844 123.318622 
L 530.126218 140.450592 
L 531.869113 140.82424 
L 533.612008 138.564284 
L 536.516834 130.383586 
L 537.388281 127.400677 
L 537.388281 127.400677 
" clip-path="url(#pd773247ee6)" style="fill: none; stroke: #e41a1c; stroke-width: 2; stroke-linecap: square"/>
   </g>
   <g id="line2d_17">
    <path d="M 53.153906 127.734073 
L 53.299148 127.963386 
L 53.58963 126.815612 
L 54.461078 113.8085 
L 58.382592 37.91996 
L 60.996935 27.693601 
L 61.142176 27.983449 
L 61.868382 30.007524 
L 63.90176 58.679593 
L 65.499414 95.414012 
L 68.54948 177.791983 
L 72.616236 224.503432 
L 73.051959 223.807569 
L 73.632925 220.734309 
L 76.53775 186.019397 
L 82.492642 33.703699 
L 83.799813 26.286583 
L 84.090296 27.301499 
L 87.140362 40.490209 
L 88.592775 63.9846 
L 94.838149 216.858233 
L 94.98339 216.5183 
L 95.128632 216.276448 
L 95.564355 217.318264 
L 96.581044 224.078481 
L 97.162009 221.282563 
L 97.888216 220.290572 
L 99.48587 203.44376 
L 102.245454 138.913686 
L 105.876485 39.342331 
L 108.200345 18.958746 
L 108.345587 19.122087 
L 110.524206 32.900009 
L 113.429031 78.864894 
L 119.09344 220.831 
L 120.691094 226.443392 
L 120.836335 226.142797 
L 122.579231 214.02117 
L 124.322126 193.100499 
L 131.584189 31.506876 
L 133.181843 24.319167 
L 133.472325 25.014094 
L 135.650944 38.762618 
L 136.522392 52.360937 
L 142.622525 209.652293 
L 142.913008 209.483452 
L 143.348731 210.946649 
L 144.801144 219.408461 
L 145.236868 218.85225 
L 145.382109 218.675707 
L 145.672592 219.350056 
L 146.253557 222.483016 
L 146.68928 219.768434 
L 149.739347 163.686143 
L 153.660861 55.879701 
L 157.291893 22.348298 
L 157.582375 22.369742 
L 157.727617 22.968756 
L 159.615753 37.013146 
L 162.956302 105.482288 
L 166.442092 200.67247 
L 169.346918 227.740984 
L 169.6374 226.556913 
L 174.139879 171.4538 
L 179.223324 36.124113 
L 181.547184 20.403139 
L 181.982908 21.190548 
L 186.049663 73.760772 
L 192.295037 218.777044 
L 192.440279 218.652719 
L 194.037933 212.691357 
L 194.473656 214.301384 
L 195.345104 217.21881 
L 195.780828 216.299276 
L 196.652275 202.972877 
L 197.523723 174.690611 
L 201.445237 58.295813 
L 203.623856 27.838926 
L 205.366751 21.412488 
L 205.947716 23.571873 
L 208.126335 34.813052 
L 208.852542 43.757461 
L 211.176402 107.624246 
L 215.097916 209.976926 
L 215.388398 209.450554 
L 215.678881 210.388386 
L 217.276535 224.882364 
L 217.8575 221.696266 
L 221.633773 190.863088 
L 223.231427 152.465147 
L 227.733906 32.909655 
L 228.750595 29.120766 
L 229.476801 29.880103 
L 230.49349 30.5495 
L 231.65542 42.042517 
L 235.14121 105.838376 
L 238.046036 193.108275 
L 241.096102 223.823683 
L 241.241343 223.515517 
L 241.531826 222.479693 
L 242.112791 223.745386 
L 242.984239 226.294308 
L 243.565204 225.244938 
L 244.581893 215.205166 
L 247.7772 134.806873 
L 251.262991 47.103611 
L 254.60354 22.268116 
L 254.748781 22.023333 
L 255.039264 22.817579 
L 256.201194 33.599926 
L 258.815536 84.810465 
L 263.463257 212.577078 
L 264.044222 212.042246 
L 264.91567 213.211254 
L 265.496635 216.633076 
L 266.803806 224.554609 
L 267.094288 223.033202 
L 268.110977 212.833527 
L 271.161044 154.734454 
L 277.406418 19.656559 
L 277.842142 20.930155 
L 281.763656 49.040907 
L 283.070828 75.87125 
L 289.170961 223.014392 
L 290.913856 228.345451 
L 291.34958 227.183147 
L 292.656751 213.884411 
L 295.852059 141.896416 
L 300.645021 33.552615 
L 300.935503 33.732291 
L 301.080744 34.236999 
L 301.225986 34.461767 
L 301.661709 33.516703 
L 303.404605 26.605065 
L 303.695087 27.316364 
L 304.711776 35.834615 
L 307.180877 84.078608 
L 311.102392 185.534505 
L 315.169147 226.248911 
L 315.750112 224.099089 
L 317.202525 207.963615 
L 320.397832 132.495088 
L 323.302658 49.633307 
L 325.917001 17.938008 
L 326.207483 18.064984 
L 326.352724 18.321225 
L 327.514654 24.820815 
L 330.564721 69.331439 
L 337.536302 222.428754 
L 338.117267 220.854286 
L 340.150644 214.190577 
L 342.038781 193.482069 
L 344.072159 141.011622 
L 348.574638 38.354966 
L 350.753257 22.669929 
L 351.915187 25.749605 
L 355.546218 70.056365 
L 360.33918 215.294201 
L 361.355869 219.381308 
L 361.646352 219.280867 
L 363.970212 227.061221 
L 364.115453 226.466801 
L 367.456002 181.862383 
L 372.829929 39.899948 
L 374.718065 26.680333 
L 375.29903 23.225051 
L 375.734754 24.973848 
L 377.768132 40.702428 
L 379.511027 78.300231 
L 383.577782 196.290407 
L 385.901643 225.935875 
L 386.046884 225.61593 
L 387.499297 215.518672 
L 388.225503 214.081494 
L 388.661227 214.404161 
L 389.387433 213.011927 
L 389.968398 208.89384 
L 391.711293 178.447595 
L 397.375703 33.489338 
L 399.263839 24.50012 
L 403.185353 57.034735 
L 409.72121 219.702953 
L 410.592658 224.384422 
L 411.028381 222.716498 
L 412.916518 218.564675 
L 413.497483 213.455139 
L 417.128514 127.800333 
L 421.050029 32.346314 
L 423.083406 21.592006 
L 424.68106 18.243436 
L 424.971543 18.697772 
L 425.988232 29.193332 
L 428.312092 74.047967 
L 430.781193 151.263297 
L 433.540777 213.966985 
L 435.283672 225.81724 
L 435.719396 224.692937 
L 436.590844 222.889248 
L 440.367117 168.266249 
L 442.545736 94.421172 
L 444.724355 54.043151 
L 448.210145 21.127595 
L 448.645869 21.445567 
L 449.662558 28.759547 
L 450.969729 45.836823 
L 452.857865 87.722118 
L 454.891243 146.293802 
L 458.231792 222.398937 
L 458.522275 221.978865 
L 459.393722 223.039602 
L 459.829446 224.477477 
L 460.700894 224.198768 
L 460.846135 224.336114 
L 460.991376 223.864126 
L 462.153306 211.204045 
L 465.058132 152.988722 
L 469.705852 40.41632 
L 471.73923 23.888409 
L 471.884471 24.3629 
L 472.90116 27.085466 
L 473.191642 26.180031 
L 473.772608 24.589482 
L 474.06309 25.856538 
L 474.934538 41.050186 
L 481.325153 206.785183 
L 483.794255 230.112209 
L 484.229979 227.152721 
L 486.553839 209.692811 
L 487.425286 202.213298 
L 488.587216 180.969559 
L 494.68735 33.667056 
L 497.01121 24.686964 
L 497.882657 27.14949 
L 499.044587 38.294982 
L 501.077965 82.384537 
L 505.580444 203.791127 
L 507.904305 230.944634 
L 508.48527 229.578033 
L 511.535336 195.218806 
L 517.199746 47.638749 
L 518.942641 30.665035 
L 519.814088 26.312116 
L 520.395053 27.325744 
L 520.830777 28.502275 
L 523.880844 56.343283 
L 525.333256 102.809777 
L 527.511875 159.214901 
L 528.673805 190.384801 
L 530.997666 224.637426 
L 532.59532 229.226466 
L 532.885802 227.19853 
L 536.516834 183.678451 
L 537.388281 166.036908 
L 537.388281 166.036908 
" clip-path="url(#pd773247ee6)" style="fill: none; stroke: #377eb8; stroke-width: 2; stroke-linecap: square"/>
   </g>
   <g id="patch_3">
    <path d="M 28.942188 241.599141 
L 28.942188 7.2 
" style="fill: none; stroke: #7f7f7f; stroke-width: 1.8; stroke-linejoin: miter; stroke-linecap: square"/>
   </g>
   <g id="patch_4">
    <path d="M 28.942188 241.599141 
L 561.6 241.599141 
" style="fill: none; stroke: #7f7f7f; stroke-width: 1.8; stroke-linejoin: miter; stroke-linecap: square"/>
   </g>
   <g id="legend_1">
    <g id="line2d_18">
     <path d="M 37.942188 211.696016 
L 47.942188 211.696016 
L 57.942188 211.696016 
" style="fill: none; stroke: #e41a1c; stroke-width: 2; stroke-linecap: square"/>
    </g>
    <g id="text_17">
     <!-- Src -->
     <g style="fill: #7f7f7f" transform="translate(65.942188 215.196016) scale(0.1 -0.1)">
      <defs>
       <path id="DejaVuSans-36" d="M 3425 4513 
L 3425 3897 
Q 3066 4069 2747 4153 
Q 2428 4238 2131 4238 
Q 1616 4238 1336 4038 
Q 1056 3838 1056 3469 
Q 1056 3159 1242 3001 
Q 1428 2844 1947 2747 
L 2328 2669 
Q 3034 2534 3370 2195 
Q 3706 1856 3706 1288 
Q 3706 609 3251 259 
Q 2797 -91 1919 -91 
Q 1588 -91 1214 -16 
Q 841 59 441 206 
L 441 856 
Q 825 641 1194 531 
Q 1563 422 1919 422 
Q 2459 422 2753 634 
Q 3047 847 3047 1241 
Q 3047 1584 2836 1778 
Q 2625 1972 2144 2069 
L 1759 2144 
Q 1053 2284 737 2584 
Q 422 2884 422 3419 
Q 422 4038 858 4394 
Q 1294 4750 2059 4750 
Q 2388 4750 2728 4690 
Q 3069 4631 3425 4513 
z
" transform="scale(0.015625)"/>
       <path id="DejaVuSans-55" d="M 2631 2963 
Q 2534 3019 2420 3045 
Q 2306 3072 2169 3072 
Q 1681 3072 1420 2755 
Q 1159 2438 1159 1844 
L 1159 0 
L 581 0 
L 581 3500 
L 1159 3500 
L 1159 2956 
Q 1341 3275 1631 3429 
Q 1922 3584 2338 3584 
Q 2397 3584 2469 3576 
Q 2541 3569 2628 3553 
L 2631 2963 
z
" transform="scale(0.015625)"/>
       <path id="DejaVuSans-46" d="M 3122 3366 
L 3122 2828 
Q 2878 2963 2633 3030 
Q 2388 3097 2138 3097 
Q 1578 3097 1268 2742 
Q 959 2388 959 1747 
Q 959 1106 1268 751 
Q 1578 397 2138 397 
Q 2388 397 2633 464 
Q 2878 531 3122 666 
L 3122 134 
Q 2881 22 2623 -34 
Q 2366 -91 2075 -91 
Q 1284 -91 818 406 
Q 353 903 353 1747 
Q 353 2603 823 3093 
Q 1294 3584 2113 3584 
Q 2378 3584 2631 3529 
Q 2884 3475 3122 3366 
z
" transform="scale(0.015625)"/>
      </defs>
      <use xlink:href="#DejaVuSans-36"/>
      <use xlink:href="#DejaVuSans-55" transform="translate(63.484375 0)"/>
      <use xlink:href="#DejaVuSans-46" transform="translate(102.390625 0)"/>
     </g>
    </g>
    <g id="line2d_19">
     <path d="M 37.942188 226.696797 
L 47.942188 226.696797 
L 57.942188 226.696797 
" style="fill: none; stroke: #377eb8; stroke-width: 2; stroke-linecap: square"/>
    </g>
    <g id="text_18">
     <!-- AMP -->
     <g style="fill: #7f7f7f" transform="translate(65.942188 230.196797) scale(0.1 -0.1)">
      <defs>
       <path id="DejaVuSans-24" d="M 2188 4044 
L 1331 1722 
L 3047 1722 
L 2188 4044 
z
M 1831 4666 
L 2547 4666 
L 4325 0 
L 3669 0 
L 3244 1197 
L 1141 1197 
L 716 0 
L 50 0 
L 1831 4666 
z
" transform="scale(0.015625)"/>
       <path id="DejaVuSans-30" d="M 628 4666 
L 1569 4666 
L 2759 1491 
L 3956 4666 
L 4897 4666 
L 4897 0 
L 4281 0 
L 4281 4097 
L 3078 897 
L 2444 897 
L 1241 4097 
L 1241 0 
L 628 0 
L 628 4666 
z
" transform="scale(0.015625)"/>
       <path id="DejaVuSans-33" d="M 1259 4147 
L 1259 2394 
L 2053 2394 
Q 2494 2394 2734 2622 
Q 2975 2850 2975 3272 
Q 2975 3691 2734 3919 
Q 2494 4147 2053 4147 
L 1259 4147 
z
M 628 4666 
L 2053 4666 
Q 2838 4666 3239 4311 
Q 3641 3956 3641 3272 
Q 3641 2581 3239 2228 
Q 2838 1875 2053 1875 
L 1259 1875 
L 1259 0 
L 628 0 
L 628 4666 
z
" transform="scale(0.015625)"/>
      </defs>
      <use xlink:href="#DejaVuSans-24"/>
      <use xlink:href="#DejaVuSans-30" transform="translate(68.40625 0)"/>
      <use xlink:href="#DejaVuSans-33" transform="translate(154.6875 0)"/>
     </g>
    </g>
   </g>
  </g>
 </g>
 <defs>
  <clipPath id="pd773247ee6">
   <rect x="28.942188" y="7.2" width="532.657812" height="234.399141"/>
  </clipPath>
 </defs>
</svg>
