<?xml version="1.0" encoding="utf-8" standalone="no"?>
<!DOCTYPE svg PUBLIC "-//W3C//DTD SVG 1.1//EN"
  "http://www.w3.org/Graphics/SVG/1.1/DTD/svg11.dtd">
<svg xmlns:xlink="http://www.w3.org/1999/xlink" width="568.8pt" height="280.8pt" viewBox="0 0 568.8 280.8" xmlns="http://www.w3.org/2000/svg" version="1.1">
 <metadata>
  <rdf:RDF xmlns:dc="http://purl.org/dc/elements/1.1/" xmlns:cc="http://creativecommons.org/ns#" xmlns:rdf="http://www.w3.org/1999/02/22-rdf-syntax-ns#">
   <cc:Work>
    <dc:type rdf:resource="http://purl.org/dc/dcmitype/StillImage"/>
    <dc:date>2026-06-30T12:58:03.392183</dc:date>
    <dc:format>image/svg+xml</dc:format>
    <dc:creator>
     <cc:Agent>
      <dc:title>Matplotlib v3.11.0, https://matplotlib.org/</dc:title>
     </cc:Agent>
    </dc:creator>
   </cc:Work>
  </rdf:RDF>
 </metadata>
 <defs>
  <style type="text/css">*{stroke-linejoin: round; stroke-linecap: butt}</style>
 </defs>
 <g id="figure_1">
  <g id="patch_1">
   <path d="M 0 280.8 
L 568.8 280.8 
L 568.8 0 
L 0 0 
L 0 280.8 
z
" style="fill: none"/>
  </g>
  <g id="axes_1">
   <g id="patch_2">
    <path d="M 28.942188 241.599141 
L 561.6 241.599141 
L 561.6 7.2 
L 28.942188 7.2 
L 28.942188 241.599141 
z
" style="fill: none"/>
   </g>
   <g id="matplotlib.axis_1">
    <g id="xtick_1">
     <g id="line2d_1">
      <defs>
       <path id="m3ef4b4bc39" d="M 0 0 
L 0 3.5 
" style="stroke: #7f7f7f; stroke-width: 1.8"/>
      </defs>
      <g>
       <use xlink:href="#m3ef4b4bc39" x="53.153906" y="241.599141" style="fill: #7f7f7f; stroke: #7f7f7f; stroke-width: 1.8"/>
      </g>
     </g>
     <g id="text_1">
      <!-- 0.00000 -->
      <g style="fill: #7f7f7f" transform="translate(32.477344 256.196797) scale(0.1 -0.1)">
       <defs>
        <path id="DejaVuSans-13" d="M 2034 4250 
Q 1547 4250 1301 3770 
Q 1056 3291 1056 2328 
Q 1056 1369 1301 889 
Q 1547 409 2034 409 
Q 2525 409 2770 889 
Q 3016 1369 3016 2328 
Q 3016 3291 2770 3770 
Q 2525 4250 2034 4250 
z
M 2034 4750 
Q 2819 4750 3233 4129 
Q 3647 3509 3647 2328 
Q 3647 1150 3233 529 
Q 2819 -91 2034 -91 
Q 1250 -91 836 529 
Q 422 1150 422 2328 
Q 422 3509 836 4129 
Q 1250 4750 2034 4750 
z
" transform="scale(0.015625)"/>
        <path id="DejaVuSans-11" d="M 684 794 
L 1344 794 
L 1344 0 
L 684 0 
L 684 794 
z
" transform="scale(0.015625)"/>
       </defs>
       <use xlink:href="#DejaVuSans-13"/>
       <use xlink:href="#DejaVuSans-11" transform="translate(63.625 0)"/>
       <use xlink:href="#DejaVuSans-13" transform="translate(95.40625 0)"/>
       <use xlink:href="#DejaVuSans-13" transform="translate(159.03125 0)"/>
       <use xlink:href="#DejaVuSans-13" transform="translate(222.65625 0)"/>
       <use xlink:href="#DejaVuSans-13" transform="translate(286.28125 0)"/>
       <use xlink:href="#DejaVuSans-13" transform="translate(349.90625 0)"/>
      </g>
     </g>
    </g>
    <g id="xtick_2">
     <g id="line2d_2">
      <g>
       <use xlink:href="#m3ef4b4bc39" x="149.981416" y="241.599141" style="fill: #7f7f7f; stroke: #7f7f7f; stroke-width: 1.8"/>
      </g>
     </g>
     <g id="text_2">
      <!-- 0.00002 -->
      <g style="fill: #7f7f7f" transform="translate(129.304853 256.196797) scale(0.1 -0.1)">
       <defs>
        <path id="DejaVuSans-15" d="M 1228 531 
L 3431 531 
L 3431 0 
L 469 0 
L 469 531 
Q 828 903 1448 1529 
Q 2069 2156 2228 2338 
Q 2531 2678 2651 2914 
Q 2772 3150 2772 3378 
Q 2772 3750 2511 3984 
Q 2250 4219 1831 4219 
Q 1534 4219 1204 4116 
Q 875 4013 500 3803 
L 500 4441 
Q 881 4594 1212 4672 
Q 1544 4750 1819 4750 
Q 2544 4750 2975 4387 
Q 3406 4025 3406 3419 
Q 3406 3131 3298 2873 
Q 3191 2616 2906 2266 
Q 2828 2175 2409 1742 
Q 1991 1309 1228 531 
z
" transform="scale(0.015625)"/>
       </defs>
       <use xlink:href="#DejaVuSans-13"/>
       <use xlink:href="#DejaVuSans-11" transform="translate(63.625 0)"/>
       <use xlink:href="#DejaVuSans-13" transform="translate(95.40625 0)"/>
       <use xlink:href="#DejaVuSans-13" transform="translate(159.03125 0)"/>
       <use xlink:href="#DejaVuSans-13" transform="translate(222.65625 0)"/>
       <use xlink:href="#DejaVuSans-13" transform="translate(286.28125 0)"/>
       <use xlink:href="#DejaVuSans-15" transform="translate(349.90625 0)"/>
      </g>
     </g>
    </g>
    <g id="xtick_3">
     <g id="line2d_3">
      <g>
       <use xlink:href="#m3ef4b4bc39" x="246.808925" y="241.599141" style="fill: #7f7f7f; stroke: #7f7f7f; stroke-width: 1.8"/>
      </g>
     </g>
     <g id="text_3">
      <!-- 0.00004 -->
      <g style="fill: #7f7f7f" transform="translate(226.132363 256.196797) scale(0.1 -0.1)">
       <defs>
        <path id="DejaVuSans-17" d="M 2419 4116 
L 825 1625 
L 2419 1625 
L 2419 4116 
z
M 2253 4666 
L 3047 4666 
L 3047 1625 
L 3713 1625 
L 3713 1100 
L 3047 1100 
L 3047 0 
L 2419 0 
L 2419 1100 
L 313 1100 
L 313 1709 
L 2253 4666 
z
" transform="scale(0.015625)"/>
       </defs>
       <use xlink:href="#DejaVuSans-13"/>
       <use xlink:href="#DejaVuSans-11" transform="translate(63.625 0)"/>
       <use xlink:href="#DejaVuSans-13" transform="translate(95.40625 0)"/>
       <use xlink:href="#DejaVuSans-13" transform="translate(159.03125 0)"/>
       <use xlink:href="#DejaVuSans-13" transform="translate(222.65625 0)"/>
       <use xlink:href="#DejaVuSans-13" transform="translate(286.28125 0)"/>
       <use xlink:href="#DejaVuSans-17" transform="translate(349.90625 0)"/>
      </g>
     </g>
    </g>
    <g id="xtick_4">
     <g id="line2d_4">
      <g>
       <use xlink:href="#m3ef4b4bc39" x="343.636435" y="241.599141" style="fill: #7f7f7f; stroke: #7f7f7f; stroke-width: 1.8"/>
      </g>
     </g>
     <g id="text_4">
      <!-- 0.00006 -->
      <g style="fill: #7f7f7f" transform="translate(322.959872 256.196797) scale(0.1 -0.1)">
       <defs>
        <path id="DejaVuSans-19" d="M 2113 2584 
Q 1688 2584 1439 2293 
Q 1191 2003 1191 1497 
Q 1191 994 1439 701 
Q 1688 409 2113 409 
Q 2538 409 2786 701 
Q 3034 994 3034 1497 
Q 3034 2003 2786 2293 
Q 2538 2584 2113 2584 
z
M 3366 4563 
L 3366 3988 
Q 3128 4100 2886 4159 
Q 2644 4219 2406 4219 
Q 1781 4219 1451 3797 
Q 1122 3375 1075 2522 
Q 1259 2794 1537 2939 
Q 1816 3084 2150 3084 
Q 2853 3084 3261 2657 
Q 3669 2231 3669 1497 
Q 3669 778 3244 343 
Q 2819 -91 2113 -91 
Q 1303 -91 875 529 
Q 447 1150 447 2328 
Q 447 3434 972 4092 
Q 1497 4750 2381 4750 
Q 2619 4750 2861 4703 
Q 3103 4656 3366 4563 
z
" transform="scale(0.015625)"/>
       </defs>
       <use xlink:href="#DejaVuSans-13"/>
       <use xlink:href="#DejaVuSans-11" transform="translate(63.625 0)"/>
       <use xlink:href="#DejaVuSans-13" transform="translate(95.40625 0)"/>
       <use xlink:href="#DejaVuSans-13" transform="translate(159.03125 0)"/>
       <use xlink:href="#DejaVuSans-13" transform="translate(222.65625 0)"/>
       <use xlink:href="#DejaVuSans-13" transform="translate(286.28125 0)"/>
       <use xlink:href="#DejaVuSans-19" transform="translate(349.90625 0)"/>
      </g>
     </g>
    </g>
    <g id="xtick_5">
     <g id="line2d_5">
      <g>
       <use xlink:href="#m3ef4b4bc39" x="440.463944" y="241.599141" style="fill: #7f7f7f; stroke: #7f7f7f; stroke-width: 1.8"/>
      </g>
     </g>
     <g id="text_5">
      <!-- 0.00008 -->
      <g style="fill: #7f7f7f" transform="translate(419.787382 256.196797) scale(0.1 -0.1)">
       <defs>
        <path id="DejaVuSans-1b" d="M 2034 2216 
Q 1584 2216 1326 1975 
Q 1069 1734 1069 1313 
Q 1069 891 1326 650 
Q 1584 409 2034 409 
Q 2484 409 2743 651 
Q 3003 894 3003 1313 
Q 3003 1734 2745 1975 
Q 2488 2216 2034 2216 
z
M 1403 2484 
Q 997 2584 770 2862 
Q 544 3141 544 3541 
Q 544 4100 942 4425 
Q 1341 4750 2034 4750 
Q 2731 4750 3128 4425 
Q 3525 4100 3525 3541 
Q 3525 3141 3298 2862 
Q 3072 2584 2669 2484 
Q 3125 2378 3379 2068 
Q 3634 1759 3634 1313 
Q 3634 634 3220 271 
Q 2806 -91 2034 -91 
Q 1263 -91 848 271 
Q 434 634 434 1313 
Q 434 1759 690 2068 
Q 947 2378 1403 2484 
z
M 1172 3481 
Q 1172 3119 1398 2916 
Q 1625 2713 2034 2713 
Q 2441 2713 2670 2916 
Q 2900 3119 2900 3481 
Q 2900 3844 2670 4047 
Q 2441 4250 2034 4250 
Q 1625 4250 1398 4047 
Q 1172 3844 1172 3481 
z
" transform="scale(0.015625)"/>
       </defs>
       <use xlink:href="#DejaVuSans-13"/>
       <use xlink:href="#DejaVuSans-11" transform="translate(63.625 0)"/>
       <use xlink:href="#DejaVuSans-13" transform="translate(95.40625 0)"/>
       <use xlink:href="#DejaVuSans-13" transform="translate(159.03125 0)"/>
       <use xlink:href="#DejaVuSans-13" transform="translate(222.65625 0)"/>
       <use xlink:href="#DejaVuSans-13" transform="translate(286.28125 0)"/>
       <use xlink:href="#DejaVuSans-1b" transform="translate(349.90625 0)"/>
      </g>
     </g>
    </g>
    <g id="xtick_6">
     <g id="line2d_6">
      <g>
       <use xlink:href="#m3ef4b4bc39" x="537.291454" y="241.599141" style="fill: #7f7f7f; stroke: #7f7f7f; stroke-width: 1.8"/>
      </g>
     </g>
     <g id="text_6">
      <!-- 0.00010 -->
      <g style="fill: #7f7f7f" transform="translate(516.614891 256.196797) scale(0.1 -0.1)">
       <defs>
        <path id="DejaVuSans-14" d="M 794 531 
L 1825 531 
L 1825 4091 
L 703 3866 
L 703 4441 
L 1819 4666 
L 2450 4666 
L 2450 531 
L 3481 531 
L 3481 0 
L 794 0 
L 794 531 
z
" transform="scale(0.015625)"/>
       </defs>
       <use xlink:href="#DejaVuSans-13"/>
       <use xlink:href="#DejaVuSans-11" transform="translate(63.625 0)"/>
       <use xlink:href="#DejaVuSans-13" transform="translate(95.40625 0)"/>
       <use xlink:href="#DejaVuSans-13" transform="translate(159.03125 0)"/>
       <use xlink:href="#DejaVuSans-13" transform="translate(222.65625 0)"/>
       <use xlink:href="#DejaVuSans-14" transform="translate(286.28125 0)"/>
       <use xlink:href="#DejaVuSans-13" transform="translate(349.90625 0)"/>
      </g>
     </g>
    </g>
    <g id="text_7">
     <!-- time [s] -->
     <g style="fill: #7f7f7f" transform="translate(273.940547 270.957422) scale(0.11 -0.11)">
      <defs>
       <path id="DejaVuSans-57" d="M 1172 4494 
L 1172 3500 
L 2356 3500 
L 2356 3053 
L 1172 3053 
L 1172 1153 
Q 1172 725 1289 603 
Q 1406 481 1766 481 
L 2356 481 
L 2356 0 
L 1766 0 
Q 1100 0 847 248 
Q 594 497 594 1153 
L 594 3053 
L 172 3053 
L 172 3500 
L 594 3500 
L 594 4494 
L 1172 4494 
z
" transform="scale(0.015625)"/>
       <path id="DejaVuSans-4c" d="M 603 3500 
L 1178 3500 
L 1178 0 
L 603 0 
L 603 3500 
z
M 603 4863 
L 1178 4863 
L 1178 4134 
L 603 4134 
L 603 4863 
z
" transform="scale(0.015625)"/>
       <path id="DejaVuSans-50" d="M 3328 2828 
Q 3544 3216 3844 3400 
Q 4144 3584 4550 3584 
Q 5097 3584 5394 3201 
Q 5691 2819 5691 2113 
L 5691 0 
L 5113 0 
L 5113 2094 
Q 5113 2597 4934 2840 
Q 4756 3084 4391 3084 
Q 3944 3084 3684 2787 
Q 3425 2491 3425 1978 
L 3425 0 
L 2847 0 
L 2847 2094 
Q 2847 2600 2669 2842 
Q 2491 3084 2119 3084 
Q 1678 3084 1418 2786 
Q 1159 2488 1159 1978 
L 1159 0 
L 581 0 
L 581 3500 
L 1159 3500 
L 1159 2956 
Q 1356 3278 1631 3431 
Q 1906 3584 2284 3584 
Q 2666 3584 2933 3390 
Q 3200 3197 3328 2828 
z
" transform="scale(0.015625)"/>
       <path id="DejaVuSans-48" d="M 3597 1894 
L 3597 1613 
L 953 1613 
Q 991 1019 1311 708 
Q 1631 397 2203 397 
Q 2534 397 2845 478 
Q 3156 559 3463 722 
L 3463 178 
Q 3153 47 2828 -22 
Q 2503 -91 2169 -91 
Q 1331 -91 842 396 
Q 353 884 353 1716 
Q 353 2575 817 3079 
Q 1281 3584 2069 3584 
Q 2775 3584 3186 3129 
Q 3597 2675 3597 1894 
z
M 3022 2063 
Q 3016 2534 2758 2815 
Q 2500 3097 2075 3097 
Q 1594 3097 1305 2825 
Q 1016 2553 972 2059 
L 3022 2063 
z
" transform="scale(0.015625)"/>
       <path id="DejaVuSans-3" transform="scale(0.015625)"/>
       <path id="DejaVuSans-3e" d="M 550 4863 
L 1875 4863 
L 1875 4416 
L 1125 4416 
L 1125 -397 
L 1875 -397 
L 1875 -844 
L 550 -844 
L 550 4863 
z
" transform="scale(0.015625)"/>
       <path id="DejaVuSans-56" d="M 2834 3397 
L 2834 2853 
Q 2591 2978 2328 3040 
Q 2066 3103 1784 3103 
Q 1356 3103 1142 2972 
Q 928 2841 928 2578 
Q 928 2378 1081 2264 
Q 1234 2150 1697 2047 
L 1894 2003 
Q 2506 1872 2764 1633 
Q 3022 1394 3022 966 
Q 3022 478 2636 193 
Q 2250 -91 1575 -91 
Q 1294 -91 989 -36 
Q 684 19 347 128 
L 347 722 
Q 666 556 975 473 
Q 1284 391 1588 391 
Q 1994 391 2212 530 
Q 2431 669 2431 922 
Q 2431 1156 2273 1281 
Q 2116 1406 1581 1522 
L 1381 1569 
Q 847 1681 609 1914 
Q 372 2147 372 2553 
Q 372 3047 722 3315 
Q 1072 3584 1716 3584 
Q 2034 3584 2315 3537 
Q 2597 3491 2834 3397 
z
" transform="scale(0.015625)"/>
       <path id="DejaVuSans-40" d="M 1947 4863 
L 1947 -844 
L 622 -844 
L 622 -397 
L 1369 -397 
L 1369 4416 
L 622 4416 
L 622 4863 
L 1947 4863 
z
" transform="scale(0.015625)"/>
      </defs>
      <use xlink:href="#DejaVuSans-57"/>
      <use xlink:href="#DejaVuSans-4c" transform="translate(39.203125 0)"/>
      <use xlink:href="#DejaVuSans-50" transform="translate(66.984375 0)"/>
      <use xlink:href="#DejaVuSans-48" transform="translate(164.390625 0)"/>
      <use xlink:href="#DejaVuSans-3" transform="translate(225.921875 0)"/>
      <use xlink:href="#DejaVuSans-3e" transform="translate(257.703125 0)"/>
      <use xlink:href="#DejaVuSans-56" transform="translate(296.71875 0)"/>
      <use xlink:href="#DejaVuSans-40" transform="translate(348.8125 0)"/>
     </g>
    </g>
   </g>
   <g id="matplotlib.axis_2">
    <g id="ytick_1">
     <g id="line2d_7">
      <defs>
       <path id="m73b4969cb4" d="M 0 0 
L -3.5 0 
" style="stroke: #7f7f7f; stroke-width: 1.8"/>
      </defs>
      <g>
       <use xlink:href="#m73b4969cb4" x="28.942188" y="231.287148" style="fill: #7f7f7f; stroke: #7f7f7f; stroke-width: 1.8"/>
      </g>
     </g>
     <g id="text_8">
      <!-- −8 -->
      <g style="fill: #7f7f7f" transform="translate(7.2 235.085976) scale(0.1 -0.1)">
       <defs>
        <path id="DejaVuSans-c9c" d="M 678 2272 
L 4684 2272 
L 4684 1741 
L 678 1741 
L 678 2272 
z
" transform="scale(0.015625)"/>
       </defs>
       <use xlink:href="#DejaVuSans-c9c"/>
       <use xlink:href="#DejaVuSans-1b" transform="translate(83.796875 0)"/>
      </g>
     </g>
    </g>
    <g id="ytick_2">
     <g id="line2d_8">
      <g>
       <use xlink:href="#m73b4969cb4" x="28.942188" y="204.73887" style="fill: #7f7f7f; stroke: #7f7f7f; stroke-width: 1.8"/>
      </g>
     </g>
     <g id="text_9">
      <!-- −6 -->
      <g style="fill: #7f7f7f" transform="translate(7.2 208.537698) scale(0.1 -0.1)">
       <use xlink:href="#DejaVuSans-c9c"/>
       <use xlink:href="#DejaVuSans-19" transform="translate(83.796875 0)"/>
      </g>
     </g>
    </g>
    <g id="ytick_3">
     <g id="line2d_9">
      <g>
       <use xlink:href="#m73b4969cb4" x="28.942188" y="178.190591" style="fill: #7f7f7f; stroke: #7f7f7f; stroke-width: 1.8"/>
      </g>
     </g>
     <g id="text_10">
      <!-- −4 -->
      <g style="fill: #7f7f7f" transform="translate(7.2 181.98942) scale(0.1 -0.1)">
       <use xlink:href="#DejaVuSans-c9c"/>
       <use xlink:href="#DejaVuSans-17" transform="translate(83.796875 0)"/>
      </g>
     </g>
    </g>
    <g id="ytick_4">
     <g id="line2d_10">
      <g>
       <use xlink:href="#m73b4969cb4" x="28.942188" y="151.642313" style="fill: #7f7f7f; stroke: #7f7f7f; stroke-width: 1.8"/>
      </g>
     </g>
     <g id="text_11">
      <!-- −2 -->
      <g style="fill: #7f7f7f" transform="translate(7.2 155.441141) scale(0.1 -0.1)">
       <use xlink:href="#DejaVuSans-c9c"/>
       <use xlink:href="#DejaVuSans-15" transform="translate(83.796875 0)"/>
      </g>
     </g>
    </g>
    <g id="ytick_5">
     <g id="line2d_11">
      <g>
       <use xlink:href="#m73b4969cb4" x="28.942188" y="125.094035" style="fill: #7f7f7f; stroke: #7f7f7f; stroke-width: 1.8"/>
      </g>
     </g>
     <g id="text_12">
      <!-- 0 -->
      <g style="fill: #7f7f7f" transform="translate(15.579688 128.892863) scale(0.1 -0.1)">
       <use xlink:href="#DejaVuSans-13"/>
      </g>
     </g>
    </g>
    <g id="ytick_6">
     <g id="line2d_12">
      <g>
       <use xlink:href="#m73b4969cb4" x="28.942188" y="98.545757" style="fill: #7f7f7f; stroke: #7f7f7f; stroke-width: 1.8"/>
      </g>
     </g>
     <g id="text_13">
      <!-- 2 -->
      <g style="fill: #7f7f7f" transform="translate(15.579688 102.344585) scale(0.1 -0.1)">
       <use xlink:href="#DejaVuSans-15"/>
      </g>
     </g>
    </g>
    <g id="ytick_7">
     <g id="line2d_13">
      <g>
       <use xlink:href="#m73b4969cb4" x="28.942188" y="71.997479" style="fill: #7f7f7f; stroke: #7f7f7f; stroke-width: 1.8"/>
      </g>
     </g>
     <g id="text_14">
      <!-- 4 -->
      <g style="fill: #7f7f7f" transform="translate(15.579688 75.796307) scale(0.1 -0.1)">
       <use xlink:href="#DejaVuSans-17"/>
      </g>
     </g>
    </g>
    <g id="ytick_8">
     <g id="line2d_14">
      <g>
       <use xlink:href="#m73b4969cb4" x="28.942188" y="45.449201" style="fill: #7f7f7f; stroke: #7f7f7f; stroke-width: 1.8"/>
      </g>
     </g>
     <g id="text_15">
      <!-- 6 -->
      <g style="fill: #7f7f7f" transform="translate(15.579688 49.248029) scale(0.1 -0.1)">
       <use xlink:href="#DejaVuSans-19"/>
      </g>
     </g>
    </g>
    <g id="ytick_9">
     <g id="line2d_15">
      <g>
       <use xlink:href="#m73b4969cb4" x="28.942188" y="18.900923" style="fill: #7f7f7f; stroke: #7f7f7f; stroke-width: 1.8"/>
      </g>
     </g>
     <g id="text_16">
      <!-- 8 -->
      <g style="fill: #7f7f7f" transform="translate(15.579688 22.699751) scale(0.1 -0.1)">
       <use xlink:href="#DejaVuSans-1b"/>
      </g>
     </g>
    </g>
   </g>
   <g id="line2d_16">
    <path d="M 53.153906 125.094035 
L 57.656385 112.87875 
L 59.544522 111.871219 
L 61.142176 113.461819 
L 63.611277 119.593556 
L 70.437617 138.03004 
L 72.035271 138.133053 
L 73.778166 135.734147 
L 76.682991 127.417316 
L 82.056918 112.633151 
L 83.945054 111.946513 
L 85.542708 113.797816 
L 88.157051 120.676142 
L 94.402425 137.817587 
L 96.14532 138.191442 
L 97.888216 135.930236 
L 100.793041 127.745013 
L 106.312209 112.576648 
L 108.200345 111.970535 
L 109.797999 113.886309 
L 112.412342 120.833785 
L 118.512475 137.718492 
L 120.25537 138.241558 
L 121.853024 136.390254 
L 124.467367 129.511928 
L 130.712741 112.370484 
L 132.455637 111.996629 
L 134.198532 114.257835 
L 137.103357 122.443057 
L 142.622525 137.611423 
L 144.510661 138.217536 
L 146.108315 136.301762 
L 148.722658 129.354285 
L 154.822791 112.469579 
L 156.565686 111.946513 
L 158.16334 113.797816 
L 160.777683 120.676142 
L 167.023057 137.817587 
L 168.765953 138.191442 
L 170.508848 135.930236 
L 173.413673 127.745013 
L 178.932841 112.576648 
L 180.820978 111.970535 
L 182.418631 113.886309 
L 185.032974 120.833785 
L 191.133107 137.718492 
L 192.876002 138.241558 
L 194.473656 136.390254 
L 197.087999 129.511928 
L 203.333373 112.370484 
L 205.076269 111.996629 
L 206.819164 114.257835 
L 209.723989 122.443057 
L 215.243157 137.611423 
L 217.131294 138.217536 
L 218.728947 136.301762 
L 221.34329 129.354285 
L 227.443423 112.469579 
L 229.186319 111.946513 
L 230.783972 113.797816 
L 233.398315 120.676142 
L 239.64369 137.817587 
L 241.386585 138.191442 
L 243.12948 135.930236 
L 246.034305 127.745013 
L 251.553473 112.576648 
L 253.44161 111.970535 
L 255.039264 113.886309 
L 257.653606 120.833785 
L 263.753739 137.718492 
L 265.496635 138.241558 
L 267.094288 136.390254 
L 269.708631 129.511928 
L 275.954006 112.370484 
L 277.696901 111.996629 
L 279.439796 114.257835 
L 282.344621 122.443057 
L 287.863789 137.611423 
L 289.751926 138.217536 
L 291.34958 136.301762 
L 293.963922 129.354285 
L 300.064055 112.469579 
L 301.806951 111.946513 
L 303.404605 113.797816 
L 306.018947 120.676142 
L 312.264322 137.817587 
L 314.007217 138.191442 
L 315.750112 135.930236 
L 318.654937 127.745013 
L 324.174105 112.576648 
L 326.062242 111.970535 
L 327.659896 113.886309 
L 330.274238 120.833785 
L 336.374372 137.718492 
L 338.117267 138.241558 
L 339.714921 136.390254 
L 342.329263 129.511928 
L 348.574638 112.370484 
L 350.317533 111.996629 
L 352.060428 114.257835 
L 354.965253 122.443057 
L 360.484421 137.611423 
L 362.372558 138.217536 
L 363.970212 136.301762 
L 366.584554 129.354285 
L 372.684688 112.469579 
L 374.427583 111.946513 
L 376.025237 113.797816 
L 378.639579 120.676142 
L 384.884954 137.817587 
L 386.627849 138.191442 
L 388.370744 135.930236 
L 391.275569 127.745013 
L 396.794737 112.576648 
L 398.682874 111.970535 
L 400.280528 113.886309 
L 402.894871 120.833785 
L 408.995004 137.718492 
L 410.737899 138.241558 
L 412.335553 136.390254 
L 414.949895 129.511928 
L 421.19527 112.370484 
L 422.938165 111.996629 
L 424.68106 114.257835 
L 427.585885 122.443057 
L 433.105054 137.611423 
L 434.99319 138.217536 
L 436.590844 136.301762 
L 439.205187 129.354285 
L 445.30532 112.469579 
L 447.048215 111.946513 
L 448.645869 113.797816 
L 451.260212 120.676142 
L 457.505586 137.817587 
L 459.248481 138.191442 
L 460.991376 135.930236 
L 463.896202 127.745013 
L 469.41537 112.576648 
L 471.303506 111.970535 
L 472.90116 113.886309 
L 475.515503 120.833785 
L 481.615636 137.718492 
L 483.358531 138.241558 
L 484.956185 136.390254 
L 487.570528 129.511928 
L 493.815902 112.370484 
L 495.558797 111.996629 
L 497.301692 114.257835 
L 500.206518 122.443057 
L 505.725686 137.611423 
L 507.613822 138.217536 
L 509.211476 136.301762 
L 511.825819 129.354285 
L 517.925952 112.469579 
L 519.668847 111.946513 
L 521.266501 113.797816 
L 523.880844 120.676142 
L 530.126218 137.817587 
L 531.869113 138.191442 
L 533.612008 135.930236 
L 536.516834 127.745013 
L 537.388281 124.760455 
L 537.388281 124.760455 
" clip-path="url(#p1a512d3753)" style="fill: none; stroke: #e41a1c; stroke-width: 2; stroke-linecap: square"/>
   </g>
   <g id="line2d_17">
    <path d="M 53.153906 125.094035 
L 53.880113 125.678692 
L 54.461078 119.736908 
L 59.544522 24.172092 
L 60.996935 19.675562 
L 61.432658 22.089788 
L 63.030312 37.172361 
L 70.582858 214.249239 
L 71.018582 215.946147 
L 72.325753 222.873713 
L 72.616236 221.802877 
L 75.811543 197.89216 
L 79.152093 103.888879 
L 83.218848 28.523468 
L 84.961743 28.186088 
L 85.978432 25.411767 
L 86.268914 25.627603 
L 86.995121 34.176188 
L 90.771394 126.947917 
L 94.111943 213.992161 
L 96.726286 229.312447 
L 97.307251 227.660804 
L 100.066835 193.191906 
L 102.100212 145.750016 
L 105.150279 51.403411 
L 107.474139 27.569783 
L 108.345587 31.055455 
L 109.507517 32.218694 
L 108.926552 30.792559 
L 109.652758 32.074104 
L 110.378964 31.445152 
L 110.524206 32.006114 
L 111.250412 41.586839 
L 115.026685 130.228845 
L 117.495786 192.181109 
L 120.691094 222.953968 
L 121.562542 226.657659 
L 121.707783 225.458116 
L 126.645986 140.535696 
L 129.841294 56.038087 
L 132.746119 24.866219 
L 133.762808 28.026911 
L 134.198532 27.675593 
L 134.343773 28.108446 
L 135.941427 40.511503 
L 136.958116 57.559004 
L 143.639214 220.797647 
L 144.946385 227.683604 
L 145.382109 226.94691 
L 146.253557 221.581419 
L 151.627483 95.76508 
L 154.67755 38.814677 
L 156.856169 21.479826 
L 157.291893 20.134791 
L 157.582375 21.870146 
L 162.375337 76.397566 
L 167.31354 208.718021 
L 169.056435 218.388772 
L 169.492159 219.999121 
L 169.927883 219.171485 
L 172.542225 196.662527 
L 174.285121 148.295549 
L 177.480428 50.572535 
L 180.240012 24.46266 
L 181.837666 17.854506 
L 182.27339 19.872596 
L 185.613939 60.864479 
L 190.987866 197.256436 
L 193.311726 226.778627 
L 194.618898 220.895137 
L 198.39517 156.793024 
L 201.154755 65.564365 
L 203.333373 27.692403 
L 204.204821 22.351215 
L 204.785786 23.537287 
L 205.366751 24.381155 
L 208.416818 40.352279 
L 211.321643 114.379565 
L 215.243157 205.619832 
L 217.712259 225.324397 
L 218.583706 224.131566 
L 220.471843 207.239223 
L 221.488532 193.341435 
L 228.024388 26.451378 
L 228.605353 24.684342 
L 229.041077 25.595862 
L 230.203007 26.853776 
L 230.49349 27.084632 
L 230.783972 26.217615 
L 231.074455 25.580022 
L 231.510179 27.049319 
L 232.962591 51.104377 
L 237.319829 162.134518 
L 239.64369 211.675406 
L 241.822309 230.905929 
L 242.112791 230.443778 
L 244.146169 216.88897 
L 245.889064 177.92251 
L 253.296368 22.56795 
L 255.184505 25.109032 
L 258.234571 67.100428 
L 265.206152 223.107522 
L 265.496635 223.031341 
L 267.23953 224.068954 
L 267.384771 223.622931 
L 269.418149 200.110794 
L 270.434838 171.723512 
L 273.339663 86.199292 
L 275.373041 57.872573 
L 276.099247 50.78392 
L 277.987383 28.236777 
L 278.423107 28.525164 
L 278.858831 28.870221 
L 279.149313 27.966391 
L 279.439796 27.297508 
L 280.166002 27.931512 
L 280.746967 33.749717 
L 282.925586 74.374098 
L 285.539929 160.101096 
L 288.444754 217.504936 
L 290.913856 230.124876 
L 291.059097 229.552513 
L 295.852059 153.841953 
L 300.790262 29.684733 
L 302.242674 24.521013 
L 302.968881 22.230693 
L 303.549846 23.923691 
L 305.002258 33.991455 
L 306.745154 69.773084 
L 311.683357 215.929304 
L 313.135769 229.245079 
L 313.281011 228.78054 
L 314.297699 226.003873 
L 314.733423 226.840824 
L 315.459629 225.56602 
L 317.493007 197.748719 
L 319.962109 142.091883 
L 322.721693 64.918918 
L 325.626518 26.266457 
L 326.207483 23.507203 
L 326.643207 24.43316 
L 330.128997 49.161643 
L 331.58141 80.51914 
L 338.117267 223.015655 
L 339.133956 225.968219 
L 339.424438 225.078778 
L 342.619746 188.555386 
L 348.86512 34.094248 
L 350.753257 22.839162 
L 350.898498 23.251649 
L 352.496152 30.663812 
L 355.981942 84.144696 
L 360.920145 217.345203 
L 361.791593 226.208477 
L 362.372558 225.375075 
L 362.808282 223.341637 
L 366.294072 203.401585 
L 369.053656 126.757359 
L 372.829929 33.103644 
L 374.427583 21.409102 
L 375.008548 21.837361 
L 375.29903 21.800995 
L 375.444272 22.347755 
L 377.187167 32.476399 
L 381.108681 107.618828 
L 384.594471 205.497665 
L 386.918331 219.403633 
L 387.208814 218.164593 
L 389.387433 209.628821 
L 390.113639 204.532455 
L 392.727982 124.130121 
L 395.92329 36.446201 
L 398.392391 20.157754 
L 399.263839 18.759615 
L 399.699563 19.427058 
L 401.297217 25.995569 
L 402.459147 45.481466 
L 405.799696 126.738426 
L 409.140245 209.480897 
L 411.173623 222.504774 
L 412.335553 223.778664 
L 412.626035 223.10314 
L 413.642724 213.510105 
L 416.111826 163.554655 
L 421.776235 26.542241 
L 423.51913 18.463953 
L 424.245336 21.053942 
L 426.859679 42.691279 
L 428.893057 97.410959 
L 432.66933 207.712503 
L 434.121742 216.97809 
L 435.138431 219.606867 
L 435.574155 217.858873 
L 436.590844 214.454672 
L 437.026568 215.111587 
L 437.462291 214.233313 
L 438.624222 201.496382 
L 440.802841 151.567078 
L 444.869596 32.321681 
L 446.322009 24.138958 
L 446.612491 24.277977 
L 447.193456 22.670525 
L 447.919662 23.325419 
L 449.372075 28.000891 
L 451.260212 44.980326 
L 454.019796 109.626049 
L 458.231792 218.72855 
L 460.119929 224.66362 
L 460.700894 223.009767 
L 462.734271 203.245903 
L 464.622408 166.053408 
L 468.543922 44.110345 
L 470.5773 25.448239 
L 471.448747 24.617847 
L 471.73923 24.717622 
L 472.465436 23.139311 
L 472.90116 24.081871 
L 474.353573 31.083669 
L 476.677433 78.175547 
L 482.341842 218.734814 
L 485.101426 222.777957 
L 486.263356 218.098359 
L 487.715769 191.218811 
L 495.268315 31.394778 
L 496.575486 32.843854 
L 496.865969 32.094558 
L 497.01121 31.93869 
L 497.156451 32.421973 
L 499.770794 50.210147 
L 501.804172 103.12173 
L 506.451892 222.131546 
L 508.48527 230.301989 
L 509.066235 227.62318 
L 512.406784 181.108881 
L 519.523606 25.253844 
L 519.95933 23.507997 
L 520.395053 25.868129 
L 524.316567 56.94457 
L 525.478498 93.023538 
L 529.109529 205.433081 
L 531.869113 226.679655 
L 532.014354 226.462166 
L 535.354904 211.28972 
L 536.952557 170.484216 
L 537.388281 158.117793 
L 537.388281 158.117793 
" clip-path="url(#p1a512d3753)" style="fill: none; stroke: #377eb8; stroke-width: 2; stroke-linecap: square"/>
   </g>
   <g id="patch_3">
    <path d="M 28.942188 241.599141 
L 28.942188 7.2 
" style="fill: none; stroke: #7f7f7f; stroke-width: 1.8; stroke-linejoin: miter; stroke-linecap: square"/>
   </g>
   <g id="patch_4">
    <path d="M 28.942188 241.599141 
L 561.6 241.599141 
" style="fill: none; stroke: #7f7f7f; stroke-width: 1.8; stroke-linejoin: miter; stroke-linecap: square"/>
   </g>
   <g id="legend_1">
    <g id="line2d_18">
     <path d="M 503.101562 20.298438 
L 513.101562 20.298438 
L 523.101562 20.298438 
" style="fill: none; stroke: #e41a1c; stroke-width: 2; stroke-linecap: square"/>
    </g>
    <g id="text_17">
     <!-- Src -->
     <g style="fill: #7f7f7f" transform="translate(531.101562 23.798438) scale(0.1 -0.1)">
      <defs>
       <path id="DejaVuSans-36" d="M 3425 4513 
L 3425 3897 
Q 3066 4069 2747 4153 
Q 2428 4238 2131 4238 
Q 1616 4238 1336 4038 
Q 1056 3838 1056 3469 
Q 1056 3159 1242 3001 
Q 1428 2844 1947 2747 
L 2328 2669 
Q 3034 2534 3370 2195 
Q 3706 1856 3706 1288 
Q 3706 609 3251 259 
Q 2797 -91 1919 -91 
Q 1588 -91 1214 -16 
Q 841 59 441 206 
L 441 856 
Q 825 641 1194 531 
Q 1563 422 1919 422 
Q 2459 422 2753 634 
Q 3047 847 3047 1241 
Q 3047 1584 2836 1778 
Q 2625 1972 2144 2069 
L 1759 2144 
Q 1053 2284 737 2584 
Q 422 2884 422 3419 
Q 422 4038 858 4394 
Q 1294 4750 2059 4750 
Q 2388 4750 2728 4690 
Q 3069 4631 3425 4513 
z
" transform="scale(0.015625)"/>
       <path id="DejaVuSans-55" d="M 2631 2963 
Q 2534 3019 2420 3045 
Q 2306 3072 2169 3072 
Q 1681 3072 1420 2755 
Q 1159 2438 1159 1844 
L 1159 0 
L 581 0 
L 581 3500 
L 1159 3500 
L 1159 2956 
Q 1341 3275 1631 3429 
Q 1922 3584 2338 3584 
Q 2397 3584 2469 3576 
Q 2541 3569 2628 3553 
L 2631 2963 
z
" transform="scale(0.015625)"/>
       <path id="DejaVuSans-46" d="M 3122 3366 
L 3122 2828 
Q 2878 2963 2633 3030 
Q 2388 3097 2138 3097 
Q 1578 3097 1268 2742 
Q 959 2388 959 1747 
Q 959 1106 1268 751 
Q 1578 397 2138 397 
Q 2388 397 2633 464 
Q 2878 531 3122 666 
L 3122 134 
Q 2881 22 2623 -34 
Q 2366 -91 2075 -91 
Q 1284 -91 818 406 
Q 353 903 353 1747 
Q 353 2603 823 3093 
Q 1294 3584 2113 3584 
Q 2378 3584 2631 3529 
Q 2884 3475 3122 3366 
z
" transform="scale(0.015625)"/>
      </defs>
      <use xlink:href="#DejaVuSans-36"/>
      <use xlink:href="#DejaVuSans-55" transform="translate(63.484375 0)"/>
      <use xlink:href="#DejaVuSans-46" transform="translate(102.390625 0)"/>
     </g>
    </g>
    <g id="line2d_19">
     <path d="M 503.101562 35.299219 
L 513.101562 35.299219 
L 523.101562 35.299219 
" style="fill: none; stroke: #377eb8; stroke-width: 2; stroke-linecap: square"/>
    </g>
    <g id="text_18">
     <!-- AMP -->
     <g style="fill: #7f7f7f" transform="translate(531.101562 38.799219) scale(0.1 -0.1)">
      <defs>
       <path id="DejaVuSans-24" d="M 2188 4044 
L 1331 1722 
L 3047 1722 
L 2188 4044 
z
M 1831 4666 
L 2547 4666 
L 4325 0 
L 3669 0 
L 3244 1197 
L 1141 1197 
L 716 0 
L 50 0 
L 1831 4666 
z
" transform="scale(0.015625)"/>
       <path id="DejaVuSans-30" d="M 628 4666 
L 1569 4666 
L 2759 1491 
L 3956 4666 
L 4897 4666 
L 4897 0 
L 4281 0 
L 4281 4097 
L 3078 897 
L 2444 897 
L 1241 4097 
L 1241 0 
L 628 0 
L 628 4666 
z
" transform="scale(0.015625)"/>
       <path id="DejaVuSans-33" d="M 1259 4147 
L 1259 2394 
L 2053 2394 
Q 2494 2394 2734 2622 
Q 2975 2850 2975 3272 
Q 2975 3691 2734 3919 
Q 2494 4147 2053 4147 
L 1259 4147 
z
M 628 4666 
L 2053 4666 
Q 2838 4666 3239 4311 
Q 3641 3956 3641 3272 
Q 3641 2581 3239 2228 
Q 2838 1875 2053 1875 
L 1259 1875 
L 1259 0 
L 628 0 
L 628 4666 
z
" transform="scale(0.015625)"/>
      </defs>
      <use xlink:href="#DejaVuSans-24"/>
      <use xlink:href="#DejaVuSans-30" transform="translate(68.40625 0)"/>
      <use xlink:href="#DejaVuSans-33" transform="translate(154.6875 0)"/>
     </g>
    </g>
   </g>
  </g>
 </g>
 <defs>
  <clipPath id="p1a512d3753">
   <rect x="28.942188" y="7.2" width="532.657812" height="234.399141"/>
  </clipPath>
 </defs>
</svg>
