<?xml version="1.0" encoding="utf-8" standalone="no"?>
<!DOCTYPE svg PUBLIC "-//W3C//DTD SVG 1.1//EN"
  "http://www.w3.org/Graphics/SVG/1.1/DTD/svg11.dtd">
<svg xmlns:xlink="http://www.w3.org/1999/xlink" width="568.8pt" height="280.8pt" viewBox="0 0 568.8 280.8" xmlns="http://www.w3.org/2000/svg" version="1.1">
 <metadata>
  <rdf:RDF xmlns:dc="http://purl.org/dc/elements/1.1/" xmlns:cc="http://creativecommons.org/ns#" xmlns:rdf="http://www.w3.org/1999/02/22-rdf-syntax-ns#">
   <cc:Work>
    <dc:type rdf:resource="http://purl.org/dc/dcmitype/StillImage"/>
    <dc:date>2026-07-11T07:55:38.695032</dc:date>
    <dc:format>image/svg+xml</dc:format>
    <dc:creator>
     <cc:Agent>
      <dc:title>Matplotlib v3.11.0, https://matplotlib.org/</dc:title>
     </cc:Agent>
    </dc:creator>
   </cc:Work>
  </rdf:RDF>
 </metadata>
 <defs>
  <style type="text/css">*{stroke-linejoin: round; stroke-linecap: butt}</style>
 </defs>
 <g id="figure_1">
  <g id="patch_1">
   <path d="M 0 280.8 
L 568.8 280.8 
L 568.8 0 
L 0 0 
L 0 280.8 
z
" style="fill: none"/>
  </g>
  <g id="axes_1">
   <g id="patch_2">
    <path d="M 38.482813 241.599141 
L 561.6 241.599141 
L 561.6 7.2 
L 38.482813 7.2 
L 38.482813 241.599141 
z
" style="fill: none"/>
   </g>
   <g id="matplotlib.axis_1">
    <g id="xtick_1">
     <g id="line2d_1">
      <path d="M 62.260866 241.599141 
L 62.260866 7.2 
" clip-path="url(#p02e486ea36)" style="fill: none; stroke-dasharray: 2.96,1.28; stroke-dashoffset: 0; stroke: #7f7f7f; stroke-opacity: 0.6; stroke-width: 0.8"/>
     </g>
     <g id="line2d_2">
      <defs>
       <path id="m588e9dc804" d="M 0 0 
L 0 3.5 
" style="stroke: #7f7f7f; stroke-width: 1.8"/>
      </defs>
      <g>
       <use xlink:href="#m588e9dc804" x="62.260866" y="241.599141" style="fill: #7f7f7f; stroke: #7f7f7f; stroke-width: 1.8"/>
      </g>
     </g>
     <g id="text_1">
      <!-- 0 -->
      <g style="fill: #7f7f7f" transform="translate(59.079616 256.196797) scale(0.1 -0.1)">
       <defs>
        <path id="DejaVuSans-13" d="M 2034 4250 
Q 1547 4250 1301 3770 
Q 1056 3291 1056 2328 
Q 1056 1369 1301 889 
Q 1547 409 2034 409 
Q 2525 409 2770 889 
Q 3016 1369 3016 2328 
Q 3016 3291 2770 3770 
Q 2525 4250 2034 4250 
z
M 2034 4750 
Q 2819 4750 3233 4129 
Q 3647 3509 3647 2328 
Q 3647 1150 3233 529 
Q 2819 -91 2034 -91 
Q 1250 -91 836 529 
Q 422 1150 422 2328 
Q 422 3509 836 4129 
Q 1250 4750 2034 4750 
z
" transform="scale(0.015625)"/>
       </defs>
       <use xlink:href="#DejaVuSans-13"/>
      </g>
     </g>
    </g>
    <g id="xtick_2">
     <g id="line2d_3">
      <path d="M 157.373082 241.599141 
L 157.373082 7.2 
" clip-path="url(#p02e486ea36)" style="fill: none; stroke-dasharray: 2.96,1.28; stroke-dashoffset: 0; stroke: #7f7f7f; stroke-opacity: 0.6; stroke-width: 0.8"/>
     </g>
     <g id="line2d_4">
      <g>
       <use xlink:href="#m588e9dc804" x="157.373082" y="241.599141" style="fill: #7f7f7f; stroke: #7f7f7f; stroke-width: 1.8"/>
      </g>
     </g>
     <g id="text_2">
      <!-- 20 -->
      <g style="fill: #7f7f7f" transform="translate(151.010582 256.196797) scale(0.1 -0.1)">
       <defs>
        <path id="DejaVuSans-15" d="M 1228 531 
L 3431 531 
L 3431 0 
L 469 0 
L 469 531 
Q 828 903 1448 1529 
Q 2069 2156 2228 2338 
Q 2531 2678 2651 2914 
Q 2772 3150 2772 3378 
Q 2772 3750 2511 3984 
Q 2250 4219 1831 4219 
Q 1534 4219 1204 4116 
Q 875 4013 500 3803 
L 500 4441 
Q 881 4594 1212 4672 
Q 1544 4750 1819 4750 
Q 2544 4750 2975 4387 
Q 3406 4025 3406 3419 
Q 3406 3131 3298 2873 
Q 3191 2616 2906 2266 
Q 2828 2175 2409 1742 
Q 1991 1309 1228 531 
z
" transform="scale(0.015625)"/>
       </defs>
       <use xlink:href="#DejaVuSans-15"/>
       <use xlink:href="#DejaVuSans-13" transform="translate(63.625 0)"/>
      </g>
     </g>
    </g>
    <g id="xtick_3">
     <g id="line2d_5">
      <path d="M 252.485298 241.599141 
L 252.485298 7.2 
" clip-path="url(#p02e486ea36)" style="fill: none; stroke-dasharray: 2.96,1.28; stroke-dashoffset: 0; stroke: #7f7f7f; stroke-opacity: 0.6; stroke-width: 0.8"/>
     </g>
     <g id="line2d_6">
      <g>
       <use xlink:href="#m588e9dc804" x="252.485298" y="241.599141" style="fill: #7f7f7f; stroke: #7f7f7f; stroke-width: 1.8"/>
      </g>
     </g>
     <g id="text_3">
      <!-- 40 -->
      <g style="fill: #7f7f7f" transform="translate(246.122798 256.196797) scale(0.1 -0.1)">
       <defs>
        <path id="DejaVuSans-17" d="M 2419 4116 
L 825 1625 
L 2419 1625 
L 2419 4116 
z
M 2253 4666 
L 3047 4666 
L 3047 1625 
L 3713 1625 
L 3713 1100 
L 3047 1100 
L 3047 0 
L 2419 0 
L 2419 1100 
L 313 1100 
L 313 1709 
L 2253 4666 
z
" transform="scale(0.015625)"/>
       </defs>
       <use xlink:href="#DejaVuSans-17"/>
       <use xlink:href="#DejaVuSans-13" transform="translate(63.625 0)"/>
      </g>
     </g>
    </g>
    <g id="xtick_4">
     <g id="line2d_7">
      <path d="M 347.597514 241.599141 
L 347.597514 7.2 
" clip-path="url(#p02e486ea36)" style="fill: none; stroke-dasharray: 2.96,1.28; stroke-dashoffset: 0; stroke: #7f7f7f; stroke-opacity: 0.6; stroke-width: 0.8"/>
     </g>
     <g id="line2d_8">
      <g>
       <use xlink:href="#m588e9dc804" x="347.597514" y="241.599141" style="fill: #7f7f7f; stroke: #7f7f7f; stroke-width: 1.8"/>
      </g>
     </g>
     <g id="text_4">
      <!-- 60 -->
      <g style="fill: #7f7f7f" transform="translate(341.235014 256.196797) scale(0.1 -0.1)">
       <defs>
        <path id="DejaVuSans-19" d="M 2113 2584 
Q 1688 2584 1439 2293 
Q 1191 2003 1191 1497 
Q 1191 994 1439 701 
Q 1688 409 2113 409 
Q 2538 409 2786 701 
Q 3034 994 3034 1497 
Q 3034 2003 2786 2293 
Q 2538 2584 2113 2584 
z
M 3366 4563 
L 3366 3988 
Q 3128 4100 2886 4159 
Q 2644 4219 2406 4219 
Q 1781 4219 1451 3797 
Q 1122 3375 1075 2522 
Q 1259 2794 1537 2939 
Q 1816 3084 2150 3084 
Q 2853 3084 3261 2657 
Q 3669 2231 3669 1497 
Q 3669 778 3244 343 
Q 2819 -91 2113 -91 
Q 1303 -91 875 529 
Q 447 1150 447 2328 
Q 447 3434 972 4092 
Q 1497 4750 2381 4750 
Q 2619 4750 2861 4703 
Q 3103 4656 3366 4563 
z
" transform="scale(0.015625)"/>
       </defs>
       <use xlink:href="#DejaVuSans-19"/>
       <use xlink:href="#DejaVuSans-13" transform="translate(63.625 0)"/>
      </g>
     </g>
    </g>
    <g id="xtick_5">
     <g id="line2d_9">
      <path d="M 442.70973 241.599141 
L 442.70973 7.2 
" clip-path="url(#p02e486ea36)" style="fill: none; stroke-dasharray: 2.96,1.28; stroke-dashoffset: 0; stroke: #7f7f7f; stroke-opacity: 0.6; stroke-width: 0.8"/>
     </g>
     <g id="line2d_10">
      <g>
       <use xlink:href="#m588e9dc804" x="442.70973" y="241.599141" style="fill: #7f7f7f; stroke: #7f7f7f; stroke-width: 1.8"/>
      </g>
     </g>
     <g id="text_5">
      <!-- 80 -->
      <g style="fill: #7f7f7f" transform="translate(436.34723 256.196797) scale(0.1 -0.1)">
       <defs>
        <path id="DejaVuSans-1b" d="M 2034 2216 
Q 1584 2216 1326 1975 
Q 1069 1734 1069 1313 
Q 1069 891 1326 650 
Q 1584 409 2034 409 
Q 2484 409 2743 651 
Q 3003 894 3003 1313 
Q 3003 1734 2745 1975 
Q 2488 2216 2034 2216 
z
M 1403 2484 
Q 997 2584 770 2862 
Q 544 3141 544 3541 
Q 544 4100 942 4425 
Q 1341 4750 2034 4750 
Q 2731 4750 3128 4425 
Q 3525 4100 3525 3541 
Q 3525 3141 3298 2862 
Q 3072 2584 2669 2484 
Q 3125 2378 3379 2068 
Q 3634 1759 3634 1313 
Q 3634 634 3220 271 
Q 2806 -91 2034 -91 
Q 1263 -91 848 271 
Q 434 634 434 1313 
Q 434 1759 690 2068 
Q 947 2378 1403 2484 
z
M 1172 3481 
Q 1172 3119 1398 2916 
Q 1625 2713 2034 2713 
Q 2441 2713 2670 2916 
Q 2900 3119 2900 3481 
Q 2900 3844 2670 4047 
Q 2441 4250 2034 4250 
Q 1625 4250 1398 4047 
Q 1172 3844 1172 3481 
z
" transform="scale(0.015625)"/>
       </defs>
       <use xlink:href="#DejaVuSans-1b"/>
       <use xlink:href="#DejaVuSans-13" transform="translate(63.625 0)"/>
      </g>
     </g>
    </g>
    <g id="xtick_6">
     <g id="line2d_11">
      <path d="M 537.821946 241.599141 
L 537.821946 7.2 
" clip-path="url(#p02e486ea36)" style="fill: none; stroke-dasharray: 2.96,1.28; stroke-dashoffset: 0; stroke: #7f7f7f; stroke-opacity: 0.6; stroke-width: 0.8"/>
     </g>
     <g id="line2d_12">
      <g>
       <use xlink:href="#m588e9dc804" x="537.821946" y="241.599141" style="fill: #7f7f7f; stroke: #7f7f7f; stroke-width: 1.8"/>
      </g>
     </g>
     <g id="text_6">
      <!-- 100 -->
      <g style="fill: #7f7f7f" transform="translate(528.278196 256.196797) scale(0.1 -0.1)">
       <defs>
        <path id="DejaVuSans-14" d="M 794 531 
L 1825 531 
L 1825 4091 
L 703 3866 
L 703 4441 
L 1819 4666 
L 2450 4666 
L 2450 531 
L 3481 531 
L 3481 0 
L 794 0 
L 794 531 
z
" transform="scale(0.015625)"/>
       </defs>
       <use xlink:href="#DejaVuSans-14"/>
       <use xlink:href="#DejaVuSans-13" transform="translate(63.625 0)"/>
       <use xlink:href="#DejaVuSans-13" transform="translate(127.25 0)"/>
      </g>
     </g>
    </g>
    <g id="text_7">
     <!-- time [s] -->
     <g style="fill: #7f7f7f" transform="translate(278.710859 270.957422) scale(0.11 -0.11)">
      <defs>
       <path id="DejaVuSans-57" d="M 1172 4494 
L 1172 3500 
L 2356 3500 
L 2356 3053 
L 1172 3053 
L 1172 1153 
Q 1172 725 1289 603 
Q 1406 481 1766 481 
L 2356 481 
L 2356 0 
L 1766 0 
Q 1100 0 847 248 
Q 594 497 594 1153 
L 594 3053 
L 172 3053 
L 172 3500 
L 594 3500 
L 594 4494 
L 1172 4494 
z
" transform="scale(0.015625)"/>
       <path id="DejaVuSans-4c" d="M 603 3500 
L 1178 3500 
L 1178 0 
L 603 0 
L 603 3500 
z
M 603 4863 
L 1178 4863 
L 1178 4134 
L 603 4134 
L 603 4863 
z
" transform="scale(0.015625)"/>
       <path id="DejaVuSans-50" d="M 3328 2828 
Q 3544 3216 3844 3400 
Q 4144 3584 4550 3584 
Q 5097 3584 5394 3201 
Q 5691 2819 5691 2113 
L 5691 0 
L 5113 0 
L 5113 2094 
Q 5113 2597 4934 2840 
Q 4756 3084 4391 3084 
Q 3944 3084 3684 2787 
Q 3425 2491 3425 1978 
L 3425 0 
L 2847 0 
L 2847 2094 
Q 2847 2600 2669 2842 
Q 2491 3084 2119 3084 
Q 1678 3084 1418 2786 
Q 1159 2488 1159 1978 
L 1159 0 
L 581 0 
L 581 3500 
L 1159 3500 
L 1159 2956 
Q 1356 3278 1631 3431 
Q 1906 3584 2284 3584 
Q 2666 3584 2933 3390 
Q 3200 3197 3328 2828 
z
" transform="scale(0.015625)"/>
       <path id="DejaVuSans-48" d="M 3597 1894 
L 3597 1613 
L 953 1613 
Q 991 1019 1311 708 
Q 1631 397 2203 397 
Q 2534 397 2845 478 
Q 3156 559 3463 722 
L 3463 178 
Q 3153 47 2828 -22 
Q 2503 -91 2169 -91 
Q 1331 -91 842 396 
Q 353 884 353 1716 
Q 353 2575 817 3079 
Q 1281 3584 2069 3584 
Q 2775 3584 3186 3129 
Q 3597 2675 3597 1894 
z
M 3022 2063 
Q 3016 2534 2758 2815 
Q 2500 3097 2075 3097 
Q 1594 3097 1305 2825 
Q 1016 2553 972 2059 
L 3022 2063 
z
" transform="scale(0.015625)"/>
       <path id="DejaVuSans-3" transform="scale(0.015625)"/>
       <path id="DejaVuSans-3e" d="M 550 4863 
L 1875 4863 
L 1875 4416 
L 1125 4416 
L 1125 -397 
L 1875 -397 
L 1875 -844 
L 550 -844 
L 550 4863 
z
" transform="scale(0.015625)"/>
       <path id="DejaVuSans-56" d="M 2834 3397 
L 2834 2853 
Q 2591 2978 2328 3040 
Q 2066 3103 1784 3103 
Q 1356 3103 1142 2972 
Q 928 2841 928 2578 
Q 928 2378 1081 2264 
Q 1234 2150 1697 2047 
L 1894 2003 
Q 2506 1872 2764 1633 
Q 3022 1394 3022 966 
Q 3022 478 2636 193 
Q 2250 -91 1575 -91 
Q 1294 -91 989 -36 
Q 684 19 347 128 
L 347 722 
Q 666 556 975 473 
Q 1284 391 1588 391 
Q 1994 391 2212 530 
Q 2431 669 2431 922 
Q 2431 1156 2273 1281 
Q 2116 1406 1581 1522 
L 1381 1569 
Q 847 1681 609 1914 
Q 372 2147 372 2553 
Q 372 3047 722 3315 
Q 1072 3584 1716 3584 
Q 2034 3584 2315 3537 
Q 2597 3491 2834 3397 
z
" transform="scale(0.015625)"/>
       <path id="DejaVuSans-40" d="M 1947 4863 
L 1947 -844 
L 622 -844 
L 622 -397 
L 1369 -397 
L 1369 4416 
L 622 4416 
L 622 4863 
L 1947 4863 
z
" transform="scale(0.015625)"/>
      </defs>
      <use xlink:href="#DejaVuSans-57"/>
      <use xlink:href="#DejaVuSans-4c" transform="translate(39.203125 0)"/>
      <use xlink:href="#DejaVuSans-50" transform="translate(66.984375 0)"/>
      <use xlink:href="#DejaVuSans-48" transform="translate(164.390625 0)"/>
      <use xlink:href="#DejaVuSans-3" transform="translate(225.921875 0)"/>
      <use xlink:href="#DejaVuSans-3e" transform="translate(257.703125 0)"/>
      <use xlink:href="#DejaVuSans-56" transform="translate(296.71875 0)"/>
      <use xlink:href="#DejaVuSans-40" transform="translate(348.8125 0)"/>
     </g>
    </g>
   </g>
   <g id="matplotlib.axis_2">
    <g id="ytick_1">
     <g id="line2d_13">
      <path d="M 38.482813 227.696933 
L 561.6 227.696933 
" clip-path="url(#p02e486ea36)" style="fill: none; stroke-dasharray: 2.96,1.28; stroke-dashoffset: 0; stroke: #7f7f7f; stroke-opacity: 0.6; stroke-width: 0.8"/>
     </g>
     <g id="line2d_14">
      <defs>
       <path id="m2e9e1e628e" d="M 0 0 
L -3.5 0 
" style="stroke: #7f7f7f; stroke-width: 1.8"/>
      </defs>
      <g>
       <use xlink:href="#m2e9e1e628e" x="38.482813" y="227.696933" style="fill: #7f7f7f; stroke: #7f7f7f; stroke-width: 1.8"/>
      </g>
     </g>
     <g id="text_8">
      <!-- −0.2 -->
      <g style="fill: #7f7f7f" transform="translate(7.2 231.495761) scale(0.1 -0.1)">
       <defs>
        <path id="DejaVuSans-c9c" d="M 678 2272 
L 4684 2272 
L 4684 1741 
L 678 1741 
L 678 2272 
z
" transform="scale(0.015625)"/>
        <path id="DejaVuSans-11" d="M 684 794 
L 1344 794 
L 1344 0 
L 684 0 
L 684 794 
z
" transform="scale(0.015625)"/>
       </defs>
       <use xlink:href="#DejaVuSans-c9c"/>
       <use xlink:href="#DejaVuSans-13" transform="translate(83.796875 0)"/>
       <use xlink:href="#DejaVuSans-11" transform="translate(147.421875 0)"/>
       <use xlink:href="#DejaVuSans-15" transform="translate(179.203125 0)"/>
      </g>
     </g>
    </g>
    <g id="ytick_2">
     <g id="line2d_15">
      <path d="M 38.482813 199.600643 
L 561.6 199.600643 
" clip-path="url(#p02e486ea36)" style="fill: none; stroke-dasharray: 2.96,1.28; stroke-dashoffset: 0; stroke: #7f7f7f; stroke-opacity: 0.6; stroke-width: 0.8"/>
     </g>
     <g id="line2d_16">
      <g>
       <use xlink:href="#m2e9e1e628e" x="38.482813" y="199.600643" style="fill: #7f7f7f; stroke: #7f7f7f; stroke-width: 1.8"/>
      </g>
     </g>
     <g id="text_9">
      <!-- 0.0 -->
      <g style="fill: #7f7f7f" transform="translate(15.579688 203.399471) scale(0.1 -0.1)">
       <use xlink:href="#DejaVuSans-13"/>
       <use xlink:href="#DejaVuSans-11" transform="translate(63.625 0)"/>
       <use xlink:href="#DejaVuSans-13" transform="translate(95.40625 0)"/>
      </g>
     </g>
    </g>
    <g id="ytick_3">
     <g id="line2d_17">
      <path d="M 38.482813 171.504353 
L 561.6 171.504353 
" clip-path="url(#p02e486ea36)" style="fill: none; stroke-dasharray: 2.96,1.28; stroke-dashoffset: 0; stroke: #7f7f7f; stroke-opacity: 0.6; stroke-width: 0.8"/>
     </g>
     <g id="line2d_18">
      <g>
       <use xlink:href="#m2e9e1e628e" x="38.482813" y="171.504353" style="fill: #7f7f7f; stroke: #7f7f7f; stroke-width: 1.8"/>
      </g>
     </g>
     <g id="text_10">
      <!-- 0.2 -->
      <g style="fill: #7f7f7f" transform="translate(15.579688 175.303181) scale(0.1 -0.1)">
       <use xlink:href="#DejaVuSans-13"/>
       <use xlink:href="#DejaVuSans-11" transform="translate(63.625 0)"/>
       <use xlink:href="#DejaVuSans-15" transform="translate(95.40625 0)"/>
      </g>
     </g>
    </g>
    <g id="ytick_4">
     <g id="line2d_19">
      <path d="M 38.482813 143.408064 
L 561.6 143.408064 
" clip-path="url(#p02e486ea36)" style="fill: none; stroke-dasharray: 2.96,1.28; stroke-dashoffset: 0; stroke: #7f7f7f; stroke-opacity: 0.6; stroke-width: 0.8"/>
     </g>
     <g id="line2d_20">
      <g>
       <use xlink:href="#m2e9e1e628e" x="38.482813" y="143.408064" style="fill: #7f7f7f; stroke: #7f7f7f; stroke-width: 1.8"/>
      </g>
     </g>
     <g id="text_11">
      <!-- 0.4 -->
      <g style="fill: #7f7f7f" transform="translate(15.579688 147.206892) scale(0.1 -0.1)">
       <use xlink:href="#DejaVuSans-13"/>
       <use xlink:href="#DejaVuSans-11" transform="translate(63.625 0)"/>
       <use xlink:href="#DejaVuSans-17" transform="translate(95.40625 0)"/>
      </g>
     </g>
    </g>
    <g id="ytick_5">
     <g id="line2d_21">
      <path d="M 38.482813 115.311774 
L 561.6 115.311774 
" clip-path="url(#p02e486ea36)" style="fill: none; stroke-dasharray: 2.96,1.28; stroke-dashoffset: 0; stroke: #7f7f7f; stroke-opacity: 0.6; stroke-width: 0.8"/>
     </g>
     <g id="line2d_22">
      <g>
       <use xlink:href="#m2e9e1e628e" x="38.482813" y="115.311774" style="fill: #7f7f7f; stroke: #7f7f7f; stroke-width: 1.8"/>
      </g>
     </g>
     <g id="text_12">
      <!-- 0.6 -->
      <g style="fill: #7f7f7f" transform="translate(15.579688 119.110602) scale(0.1 -0.1)">
       <use xlink:href="#DejaVuSans-13"/>
       <use xlink:href="#DejaVuSans-11" transform="translate(63.625 0)"/>
       <use xlink:href="#DejaVuSans-19" transform="translate(95.40625 0)"/>
      </g>
     </g>
    </g>
    <g id="ytick_6">
     <g id="line2d_23">
      <path d="M 38.482813 87.215484 
L 561.6 87.215484 
" clip-path="url(#p02e486ea36)" style="fill: none; stroke-dasharray: 2.96,1.28; stroke-dashoffset: 0; stroke: #7f7f7f; stroke-opacity: 0.6; stroke-width: 0.8"/>
     </g>
     <g id="line2d_24">
      <g>
       <use xlink:href="#m2e9e1e628e" x="38.482813" y="87.215484" style="fill: #7f7f7f; stroke: #7f7f7f; stroke-width: 1.8"/>
      </g>
     </g>
     <g id="text_13">
      <!-- 0.8 -->
      <g style="fill: #7f7f7f" transform="translate(15.579688 91.014312) scale(0.1 -0.1)">
       <use xlink:href="#DejaVuSans-13"/>
       <use xlink:href="#DejaVuSans-11" transform="translate(63.625 0)"/>
       <use xlink:href="#DejaVuSans-1b" transform="translate(95.40625 0)"/>
      </g>
     </g>
    </g>
    <g id="ytick_7">
     <g id="line2d_25">
      <path d="M 38.482813 59.119194 
L 561.6 59.119194 
" clip-path="url(#p02e486ea36)" style="fill: none; stroke-dasharray: 2.96,1.28; stroke-dashoffset: 0; stroke: #7f7f7f; stroke-opacity: 0.6; stroke-width: 0.8"/>
     </g>
     <g id="line2d_26">
      <g>
       <use xlink:href="#m2e9e1e628e" x="38.482813" y="59.119194" style="fill: #7f7f7f; stroke: #7f7f7f; stroke-width: 1.8"/>
      </g>
     </g>
     <g id="text_14">
      <!-- 1.0 -->
      <g style="fill: #7f7f7f" transform="translate(15.579688 62.918023) scale(0.1 -0.1)">
       <use xlink:href="#DejaVuSans-14"/>
       <use xlink:href="#DejaVuSans-11" transform="translate(63.625 0)"/>
       <use xlink:href="#DejaVuSans-13" transform="translate(95.40625 0)"/>
      </g>
     </g>
    </g>
    <g id="ytick_8">
     <g id="line2d_27">
      <path d="M 38.482813 31.022905 
L 561.6 31.022905 
" clip-path="url(#p02e486ea36)" style="fill: none; stroke-dasharray: 2.96,1.28; stroke-dashoffset: 0; stroke: #7f7f7f; stroke-opacity: 0.6; stroke-width: 0.8"/>
     </g>
     <g id="line2d_28">
      <g>
       <use xlink:href="#m2e9e1e628e" x="38.482813" y="31.022905" style="fill: #7f7f7f; stroke: #7f7f7f; stroke-width: 1.8"/>
      </g>
     </g>
     <g id="text_15">
      <!-- 1.2 -->
      <g style="fill: #7f7f7f" transform="translate(15.579688 34.821733) scale(0.1 -0.1)">
       <use xlink:href="#DejaVuSans-14"/>
       <use xlink:href="#DejaVuSans-11" transform="translate(63.625 0)"/>
       <use xlink:href="#DejaVuSans-15" transform="translate(95.40625 0)"/>
      </g>
     </g>
    </g>
   </g>
   <g id="line2d_29">
    <path d="M 62.260866 199.600643 
L 157.373075 199.600643 
L 158.369735 59.119194 
L 347.597507 59.119194 
L 348.396277 129.359919 
L 537.821946 129.359919 
L 537.821946 129.359919 
" clip-path="url(#p02e486ea36)" style="fill: none; stroke: #e41a1c; stroke-width: 2; stroke-linecap: square"/>
   </g>
   <g id="line2d_30">
    <path d="M 62.260866 199.600643 
L 62.493326 199.237131 
L 63.500832 199.769036 
L 65.417909 198.887106 
L 66.715847 199.907514 
L 68.1766 199.422713 
L 68.593734 200.167251 
L 69.352903 199.652869 
L 71.242887 199.453962 
L 71.64578 200.154683 
L 72.049473 199.881939 
L 72.773519 198.966208 
L 73.133401 199.387965 
L 76.59622 199.771325 
L 76.971531 198.798367 
L 77.352872 200.120043 
L 77.718176 199.343885 
L 79.671546 199.182297 
L 81.543483 199.661146 
L 82.331752 198.582339 
L 82.698662 199.540261 
L 84.008792 199.203568 
L 85.087188 199.55115 
L 86.498366 199.518289 
L 88.055031 200.583762 
L 88.758694 199.390156 
L 89.46562 199.877541 
L 92.190183 199.732938 
L 95.472495 200.083337 
L 102.779984 199.16569 
L 103.878678 199.696377 
L 104.55352 199.085325 
L 104.830626 199.277294 
L 106.165909 199.761716 
L 108.769999 199.762499 
L 109.080152 199.235809 
L 109.4043 199.937373 
L 110.782419 199.367242 
L 111.933028 199.176773 
L 112.870245 200.238507 
L 113.362272 199.057813 
L 113.884433 199.947745 
L 115.756378 199.170014 
L 116.142816 199.861598 
L 116.533337 199.369179 
L 118.632458 199.519184 
L 119.43528 200.083215 
L 119.84527 199.487448 
L 120.946781 199.202717 
L 121.340585 198.783136 
L 121.729492 199.26145 
L 124.095207 199.766102 
L 125.494045 199.621805 
L 126.661036 200.203202 
L 126.956747 199.885771 
L 128.87172 199.436609 
L 129.166488 199.762907 
L 129.427709 199.491585 
L 129.696351 198.340374 
L 130.30418 199.929905 
L 131.576557 199.686323 
L 132.748817 200.156535 
L 133.930489 199.159473 
L 134.94824 199.958726 
L 136.146868 199.577702 
L 139.371266 199.314323 
L 140.43867 199.367054 
L 141.295094 198.519144 
L 141.67152 199.464319 
L 142.448248 199.608492 
L 142.808247 198.426156 
L 143.426958 199.194211 
L 144.161561 199.641903 
L 144.524069 199.066933 
L 145.277596 199.189431 
L 145.675616 199.759738 
L 146.068562 198.505528 
L 146.807804 199.142283 
L 157.28548 199.315812 
L 157.368549 200.782599 
L 157.373075 192.000506 
L 157.37319 209.914034 
L 158.369735 200.336181 
L 159.188 199.70433 
L 158.866931 200.633829 
L 159.354369 199.968626 
L 159.529887 200.469305 
L 160.102907 199.791087 
L 160.312544 198.6536 
L 160.944885 200.135882 
L 161.181595 199.27294 
L 162.440128 199.065288 
L 162.742356 198.971541 
L 164.149437 196.704737 
L 165.394523 195.455698 
L 169.670633 183.990133 
L 178.708443 143.322462 
L 183.845716 118.716518 
L 195.930795 73.39229 
L 197.066782 71.101792 
L 200.551333 63.29187 
L 200.945847 63.667316 
L 203.511902 57.992578 
L 204.394142 57.1155 
L 209.378278 51.408196 
L 213.634335 50.152404 
L 213.970913 50.234129 
L 214.302812 48.962762 
L 214.741761 49.464043 
L 216.788409 49.257126 
L 218.066579 48.385312 
L 218.440672 49.795804 
L 219.365522 49.479147 
L 220.234557 49.221252 
L 221.024782 49.417414 
L 221.395706 48.68246 
L 221.807162 49.651331 
L 223.271964 49.30655 
L 225.453478 50.401372 
L 225.906082 49.325192 
L 226.27208 50.775144 
L 226.6353 50.371549 
L 226.983781 50.782897 
L 228.748057 51.171485 
L 235.316382 53.788546 
L 236.26135 53.975689 
L 237.748522 54.647073 
L 240.481663 55.663485 
L 240.930214 54.994965 
L 241.404182 55.384154 
L 248.12373 57.398301 
L 249.010465 57.639345 
L 250.221052 58.239106 
L 250.961586 57.361958 
L 251.398205 58.042741 
L 252.613562 58.200881 
L 257.790111 59.09042 
L 258.202684 58.699587 
L 258.62542 59.674538 
L 264.784661 59.844053 
L 266.530958 60.417375 
L 266.896888 59.051513 
L 267.688305 59.71126 
L 268.105978 59.304233 
L 268.497837 59.864624 
L 270.19851 59.667016 
L 270.593013 58.91563 
L 271.397102 59.458828 
L 273.765404 59.784689 
L 274.159179 59.173587 
L 274.562742 59.635652 
L 274.979842 60.217787 
L 275.385484 59.200388 
L 276.18321 59.802308 
L 280.837106 59.244394 
L 281.616486 60.834188 
L 281.994964 60.254901 
L 307.410231 59.489183 
L 308.700448 59.509124 
L 309.530432 58.747535 
L 310.715322 59.623621 
L 313.208829 59.121055 
L 314.015573 59.714165 
L 314.381228 59.372524 
L 317.422637 58.879499 
L 317.803155 59.811325 
L 318.146629 59.065366 
L 318.952943 58.675216 
L 319.386902 59.223822 
L 322.788762 58.951279 
L 324.861714 59.173041 
L 326.055397 58.612087 
L 327.293384 59.169639 
L 328.486425 58.994014 
L 347.419002 58.859949 
L 347.564273 58.498267 
L 347.593653 59.514841 
L 347.597722 81.330983 
L 347.597918 17.854506 
L 348.396277 59.290497 
L 348.738315 60.23209 
L 349.099312 58.832236 
L 349.827059 58.889248 
L 350.634122 59.6211 
L 350.985204 58.553123 
L 351.377365 59.118074 
L 357.617669 62.840755 
L 359.229801 66.023213 
L 359.990168 66.174229 
L 362.08512 70.800123 
L 366.926616 82.393319 
L 369.235945 87.477694 
L 372.570792 96.014097 
L 384.97079 120.717017 
L 385.820224 121.758962 
L 394.354947 129.946302 
L 397.127254 132.191659 
L 397.586023 131.556461 
L 398.018216 132.505062 
L 399.645839 133.199011 
L 400.583477 133.317255 
L 401.866719 133.658029 
L 406.57789 134.442946 
L 407.851383 135.3548 
L 409.451975 133.895228 
L 409.853704 134.779399 
L 410.252066 134.59708 
L 412.284716 133.879429 
L 414.126238 134.465329 
L 414.919092 133.846521 
L 416.320343 133.942512 
L 416.730272 133.951005 
L 417.138959 132.952203 
L 417.520974 133.73647 
L 419.87037 133.476593 
L 421.364337 132.938822 
L 424.04418 132.103238 
L 424.467678 132.547181 
L 424.969196 131.93684 
L 425.848623 131.734052 
L 427.755613 132.044844 
L 429.8214 131.290927 
L 432.901684 130.734108 
L 434.207464 131.148828 
L 435.615414 130.406514 
L 436.449746 131.542168 
L 437.371956 130.156167 
L 437.794485 131.116138 
L 439.572702 129.935349 
L 440.715942 130.974471 
L 441.566293 130.057267 
L 441.998461 130.452766 
L 444.498873 129.352161 
L 445.667028 129.015053 
L 446.881573 128.913429 
L 447.67977 129.721793 
L 448.097278 129.090148 
L 451.836029 129.355584 
L 452.600675 128.091466 
L 453.013625 128.842143 
L 455.6276 129.21692 
L 456.038373 128.240112 
L 456.436887 128.5765 
L 457.579624 129.570676 
L 458.781189 128.51263 
L 459.171308 128.952905 
L 463.749655 128.494162 
L 465.485244 129.392582 
L 467.98361 128.930805 
L 468.330486 130.073947 
L 469.15052 129.369199 
L 470.391127 128.751025 
L 471.910783 129.847262 
L 473.564003 128.798644 
L 473.928618 129.177479 
L 474.401208 128.678223 
L 475.295277 128.45987 
L 476.131757 129.423256 
L 476.534178 128.796695 
L 478.925279 129.430756 
L 480.271992 128.637773 
L 481.556686 128.926856 
L 483.809474 129.612353 
L 484.567983 128.98265 
L 484.95086 129.603437 
L 486.639375 128.833544 
L 490.704996 129.602121 
L 491.484828 129.093642 
L 491.953904 129.394494 
L 494.425367 128.565838 
L 494.769654 129.792281 
L 495.505043 129.274506 
L 496.237151 129.510974 
L 496.623663 128.720667 
L 497.334083 129.361787 
L 499.176886 129.619985 
L 500.397091 129.623481 
L 500.862211 129.994319 
L 501.25721 129.2389 
L 503.030397 128.86163 
L 503.773401 130.322223 
L 504.158206 129.435344 
L 504.527116 128.702711 
L 505.257881 129.148869 
L 508.487216 129.246492 
L 511.108607 129.651219 
L 524.110608 129.393854 
L 525.299021 129.663623 
L 526.965447 129.084526 
L 530.486183 129.334159 
L 531.823521 129.623706 
L 533.652237 129.643839 
L 537.821946 129.738837 
L 537.821946 129.738837 
" clip-path="url(#p02e486ea36)" style="fill: none; stroke: #377eb8; stroke-width: 2; stroke-linecap: square"/>
   </g>
   <g id="line2d_31">
    <path d="M 62.260866 199.600643 
L 62.493326 200.509092 
L 62.907187 199.497067 
L 63.211809 200.11421 
L 64.520236 198.848324 
L 64.826399 199.954665 
L 65.737813 199.670766 
L 66.715847 200.030694 
L 69.352903 199.046577 
L 70.454944 199.436126 
L 73.515481 199.516045 
L 74.619196 199.605944 
L 77.352872 199.732624 
L 78.519472 199.445523 
L 80.061896 200.000322 
L 80.735635 199.290443 
L 81.109231 199.446614 
L 82.698662 199.988114 
L 83.066162 199.30335 
L 83.409461 199.761854 
L 83.717385 200.339846 
L 84.319871 199.726889 
L 85.805799 199.111601 
L 86.148254 199.756052 
L 87.405111 200.021036 
L 88.758694 199.471453 
L 89.864994 199.685518 
L 93.172655 199.439724 
L 94.541843 199.629134 
L 96.381271 199.688131 
L 100.653931 199.623667 
L 112.870245 199.521094 
L 113.12526 200.753068 
L 113.884433 199.684628 
L 114.195119 200.20584 
L 114.483873 199.822404 
L 114.800704 198.842522 
L 115.419109 199.178256 
L 117.879343 199.569888 
L 119.021606 199.693675 
L 125.187018 199.47053 
L 125.494045 198.796089 
L 125.781498 199.737792 
L 126.078308 200.095744 
L 126.371053 199.268513 
L 127.283984 199.042875 
L 128.5549 200.05015 
L 129.166488 199.066571 
L 129.696351 199.660557 
L 131.012241 199.066903 
L 131.297934 200.284564 
L 132.076051 199.439049 
L 134.275423 200.245724 
L 135.728268 199.354657 
L 137.299905 200.110206 
L 138.709861 199.276468 
L 139.371266 198.607883 
L 139.946381 199.386371 
L 144.524069 200.16504 
L 146.068562 199.498903 
L 146.452237 199.995912 
L 147.152497 199.340126 
L 148.956497 200.20625 
L 149.613245 199.276332 
L 149.953904 199.931796 
L 150.944933 199.798572 
L 152.429572 199.431138 
L 153.22165 200.237086 
L 153.491177 198.891 
L 154.338141 199.327773 
L 155.36106 200.083579 
L 155.698288 199.493841 
L 157.28548 198.203153 
L 157.360878 198.914465 
L 157.37319 150.362929 
L 157.373541 230.944634 
L 158.19891 199.04247 
L 158.541737 199.802635 
L 159.354369 197.853124 
L 159.529887 198.66643 
L 159.885717 197.032129 
L 160.312544 197.767958 
L 161.436422 195.92364 
L 161.673964 197.012826 
L 162.142392 195.47337 
L 166.977034 192.979089 
L 168.259342 191.514283 
L 168.602842 192.055324 
L 169.303995 191.509992 
L 174.221252 189.168021 
L 174.600021 188.173349 
L 175.106268 188.491566 
L 176.286971 188.341497 
L 178.320817 186.993127 
L 179.45322 187.696008 
L 180.738295 186.53414 
L 182.14893 185.617794 
L 183.438214 186.101615 
L 184.44677 185.547046 
L 185.555504 185.782659 
L 188.121879 184.244814 
L 189.711131 185.493806 
L 190.09864 184.306242 
L 190.505496 184.881619 
L 192.851669 184.445936 
L 194.223275 184.325467 
L 195.518232 184.077502 
L 197.066782 184.504312 
L 198.378949 184.375484 
L 222.834309 185.194995 
L 224.107105 184.927765 
L 231.983281 185.565803 
L 232.34467 184.867728 
L 232.701911 185.054384 
L 233.528542 185.695636 
L 234.788024 185.31378 
L 236.708111 185.506319 
L 241.907623 185.692886 
L 247.444293 185.71701 
L 247.786032 184.872804 
L 248.12373 185.295662 
L 249.461106 185.96215 
L 252.174643 185.562005 
L 253.834179 186.204624 
L 255.022052 186.034356 
L 257.432139 184.932742 
L 258.62542 185.928615 
L 259.39944 185.401334 
L 260.692767 185.947938 
L 266.896888 185.005835 
L 268.105978 185.851637 
L 269.437969 185.668211 
L 270.984225 185.963151 
L 271.397102 185.251841 
L 271.842753 185.900927 
L 272.972366 186.390082 
L 274.159179 185.416271 
L 279.96474 185.555854 
L 280.410336 185.227757 
L 280.837106 186.174785 
L 281.230673 185.435751 
L 281.994964 185.242853 
L 282.418504 186.152041 
L 282.802555 185.11973 
L 294.676143 185.509359 
L 295.789494 185.329219 
L 296.925943 185.824957 
L 300.855987 185.855465 
L 302.549169 185.339663 
L 303.681747 185.348267 
L 305.240454 185.958345 
L 305.602819 185.251384 
L 306.03488 186.003042 
L 308.298752 185.031288 
L 309.530432 185.869108 
L 313.625252 185.008936 
L 315.498199 186.305663 
L 316.670191 185.532367 
L 317.422637 185.894167 
L 317.803155 185.080351 
L 318.549161 185.672295 
L 320.243439 185.56863 
L 321.497574 185.378979 
L 323.629792 185.405787 
L 324.486975 186.276191 
L 324.861714 185.732876 
L 325.645659 185.263887 
L 326.055397 186.037727 
L 328.08828 185.595677 
L 328.90924 185.453421 
L 330.109261 185.467681 
L 332.15657 185.676631 
L 332.90745 184.734041 
L 333.248083 185.544309 
L 333.570383 186.44461 
L 333.888838 185.862106 
L 335.121094 185.653792 
L 336.373957 185.839562 
L 342.868466 185.10693 
L 343.669542 184.789227 
L 344.047595 186.005297 
L 345.300407 184.983185 
L 346.860238 185.787852 
L 347.564273 186.05323 
L 347.60453 173.951472 
L 347.597918 207.485688 
L 348.396277 186.399561 
L 350.985204 186.639177 
L 359.990168 190.472458 
L 360.39953 189.203377 
L 361.17427 189.877435 
L 362.457974 191.035172 
L 362.830061 190.350058 
L 366.525471 190.888709 
L 368.365625 191.869182 
L 372.158815 191.759523 
L 372.913796 193.015474 
L 373.254193 192.261771 
L 374.491433 192.304564 
L 375.406611 192.987235 
L 375.832606 192.190811 
L 376.231322 192.861179 
L 384.116132 193.049605 
L 385.396927 192.898902 
L 386.814535 193.497655 
L 387.278202 192.977603 
L 387.746552 193.402853 
L 395.743029 193.035599 
L 397.586023 193.045356 
L 398.441381 193.410968 
L 398.866144 192.888753 
L 400.13076 192.858796 
L 401.059018 192.866541 
L 402.330133 192.82381 
L 403.523266 193.213623 
L 405.268906 193.56432 
L 406.57789 192.961807 
L 414.126238 192.258002 
L 415.386686 193.162923 
L 417.138959 192.065466 
L 419.87037 192.670646 
L 433.369423 192.84616 
L 434.207464 191.612338 
L 434.549708 192.255258 
L 435.240546 192.964319 
L 435.615414 192.653806 
L 436.927424 192.32051 
L 439.572702 192.31599 
L 440.715942 192.126001 
L 444.498873 192.939476 
L 445.311088 191.896267 
L 445.667028 192.388696 
L 447.67977 192.7766 
L 448.527375 192.321929 
L 449.853256 192.733833 
L 450.994755 192.543661 
L 453.89638 192.905855 
L 455.6276 192.035501 
L 456.809743 192.887252 
L 457.160252 192.285234 
L 460.147911 192.877472 
L 462.367463 192.278966 
L 464.18176 193.09893 
L 465.034933 192.446459 
L 465.922273 192.908012 
L 466.765065 192.300308 
L 467.186605 192.705828 
L 468.330486 192.787953 
L 473.181272 192.133298 
L 473.564003 193.319821 
L 473.928618 192.68226 
L 478.925279 192.579311 
L 479.25708 193.430057 
L 479.585462 191.985786 
L 480.736548 192.498213 
L 481.157875 193.02015 
L 481.556686 192.582796 
L 485.860815 192.721021 
L 487.512461 193.06347 
L 489.859073 191.95627 
L 491.484828 192.43957 
L 494.425367 193.151809 
L 495.138731 191.925429 
L 495.871168 193.203042 
L 496.237151 192.802292 
L 497.014303 192.672939 
L 497.334083 193.887751 
L 497.649101 192.155661 
L 497.978537 192.494732 
L 502.544962 192.818808 
L 504.527116 192.588566 
L 505.614325 192.486503 
L 506.88273 192.896099 
L 508.038917 192.372657 
L 509.408353 192.463767 
L 510.707836 192.850425 
L 515.648294 192.407495 
L 516.400506 192.069255 
L 516.805397 193.050996 
L 517.186729 192.801396 
L 517.564273 192.121152 
L 517.957119 192.350423 
L 518.806247 192.992924 
L 519.210005 192.515039 
L 537.821946 191.919092 
L 537.821946 191.919092 
" clip-path="url(#p02e486ea36)" style="fill: none; stroke: #4daf4a; stroke-width: 2; stroke-linecap: square"/>
   </g>
   <g id="patch_3">
    <path d="M 38.482813 241.599141 
L 38.482813 7.2 
" style="fill: none; stroke: #7f7f7f; stroke-width: 1.8; stroke-linejoin: miter; stroke-linecap: square"/>
   </g>
   <g id="patch_4">
    <path d="M 38.482813 241.599141 
L 561.6 241.599141 
" style="fill: none; stroke: #7f7f7f; stroke-width: 1.8; stroke-linejoin: miter; stroke-linecap: square"/>
   </g>
   <g id="legend_1">
    <g id="line2d_32">
     <path d="M 483.814062 20.298438 
L 493.814062 20.298438 
L 503.814062 20.298438 
" style="fill: none; stroke: #e41a1c; stroke-width: 2; stroke-linecap: square"/>
    </g>
    <g id="text_16">
     <!-- setpoint -->
     <g style="fill: #7f7f7f" transform="translate(511.814062 23.798438) scale(0.1 -0.1)">
      <defs>
       <path id="DejaVuSans-53" d="M 1159 525 
L 1159 -1331 
L 581 -1331 
L 581 3500 
L 1159 3500 
L 1159 2969 
Q 1341 3281 1617 3432 
Q 1894 3584 2278 3584 
Q 2916 3584 3314 3078 
Q 3713 2572 3713 1747 
Q 3713 922 3314 415 
Q 2916 -91 2278 -91 
Q 1894 -91 1617 61 
Q 1341 213 1159 525 
z
M 3116 1747 
Q 3116 2381 2855 2742 
Q 2594 3103 2138 3103 
Q 1681 3103 1420 2742 
Q 1159 2381 1159 1747 
Q 1159 1113 1420 752 
Q 1681 391 2138 391 
Q 2594 391 2855 752 
Q 3116 1113 3116 1747 
z
" transform="scale(0.015625)"/>
       <path id="DejaVuSans-52" d="M 1959 3097 
Q 1497 3097 1228 2736 
Q 959 2375 959 1747 
Q 959 1119 1226 758 
Q 1494 397 1959 397 
Q 2419 397 2687 759 
Q 2956 1122 2956 1747 
Q 2956 2369 2687 2733 
Q 2419 3097 1959 3097 
z
M 1959 3584 
Q 2709 3584 3137 3096 
Q 3566 2609 3566 1747 
Q 3566 888 3137 398 
Q 2709 -91 1959 -91 
Q 1206 -91 779 398 
Q 353 888 353 1747 
Q 353 2609 779 3096 
Q 1206 3584 1959 3584 
z
" transform="scale(0.015625)"/>
       <path id="DejaVuSans-51" d="M 3513 2113 
L 3513 0 
L 2938 0 
L 2938 2094 
Q 2938 2591 2744 2837 
Q 2550 3084 2163 3084 
Q 1697 3084 1428 2787 
Q 1159 2491 1159 1978 
L 1159 0 
L 581 0 
L 581 3500 
L 1159 3500 
L 1159 2956 
Q 1366 3272 1645 3428 
Q 1925 3584 2291 3584 
Q 2894 3584 3203 3211 
Q 3513 2838 3513 2113 
z
" transform="scale(0.015625)"/>
      </defs>
      <use xlink:href="#DejaVuSans-56"/>
      <use xlink:href="#DejaVuSans-48" transform="translate(52.09375 0)"/>
      <use xlink:href="#DejaVuSans-57" transform="translate(113.625 0)"/>
      <use xlink:href="#DejaVuSans-53" transform="translate(152.828125 0)"/>
      <use xlink:href="#DejaVuSans-52" transform="translate(216.3125 0)"/>
      <use xlink:href="#DejaVuSans-4c" transform="translate(277.5 0)"/>
      <use xlink:href="#DejaVuSans-51" transform="translate(305.28125 0)"/>
      <use xlink:href="#DejaVuSans-57" transform="translate(368.65625 0)"/>
     </g>
    </g>
    <g id="line2d_33">
     <path d="M 483.814062 35.299219 
L 493.814062 35.299219 
L 503.814062 35.299219 
" style="fill: none; stroke: #377eb8; stroke-width: 2; stroke-linecap: square"/>
    </g>
    <g id="text_17">
     <!-- plant 1 -->
     <g style="fill: #7f7f7f" transform="translate(511.814062 38.799219) scale(0.1 -0.1)">
      <defs>
       <path id="DejaVuSans-4f" d="M 603 4863 
L 1178 4863 
L 1178 0 
L 603 0 
L 603 4863 
z
" transform="scale(0.015625)"/>
       <path id="DejaVuSans-44" d="M 2194 1759 
Q 1497 1759 1228 1600 
Q 959 1441 959 1056 
Q 959 750 1161 570 
Q 1363 391 1709 391 
Q 2188 391 2477 730 
Q 2766 1069 2766 1631 
L 2766 1759 
L 2194 1759 
z
M 3341 1997 
L 3341 0 
L 2766 0 
L 2766 531 
Q 2569 213 2275 61 
Q 1981 -91 1556 -91 
Q 1019 -91 701 211 
Q 384 513 384 1019 
Q 384 1609 779 1909 
Q 1175 2209 1959 2209 
L 2766 2209 
L 2766 2266 
Q 2766 2663 2505 2880 
Q 2244 3097 1772 3097 
Q 1472 3097 1187 3025 
Q 903 2953 641 2809 
L 641 3341 
Q 956 3463 1253 3523 
Q 1550 3584 1831 3584 
Q 2591 3584 2966 3190 
Q 3341 2797 3341 1997 
z
" transform="scale(0.015625)"/>
      </defs>
      <use xlink:href="#DejaVuSans-53"/>
      <use xlink:href="#DejaVuSans-4f" transform="translate(63.484375 0)"/>
      <use xlink:href="#DejaVuSans-44" transform="translate(91.265625 0)"/>
      <use xlink:href="#DejaVuSans-51" transform="translate(152.546875 0)"/>
      <use xlink:href="#DejaVuSans-57" transform="translate(215.921875 0)"/>
      <use xlink:href="#DejaVuSans-3" transform="translate(255.125 0)"/>
      <use xlink:href="#DejaVuSans-14" transform="translate(286.90625 0)"/>
     </g>
    </g>
    <g id="line2d_34">
     <path d="M 483.814062 50.3 
L 493.814062 50.3 
L 503.814062 50.3 
" style="fill: none; stroke: #4daf4a; stroke-width: 2; stroke-linecap: square"/>
    </g>
    <g id="text_18">
     <!-- plant 2 -->
     <g style="fill: #7f7f7f" transform="translate(511.814062 53.8) scale(0.1 -0.1)">
      <use xlink:href="#DejaVuSans-53"/>
      <use xlink:href="#DejaVuSans-4f" transform="translate(63.484375 0)"/>
      <use xlink:href="#DejaVuSans-44" transform="translate(91.265625 0)"/>
      <use xlink:href="#DejaVuSans-51" transform="translate(152.546875 0)"/>
      <use xlink:href="#DejaVuSans-57" transform="translate(215.921875 0)"/>
      <use xlink:href="#DejaVuSans-3" transform="translate(255.125 0)"/>
      <use xlink:href="#DejaVuSans-15" transform="translate(286.90625 0)"/>
     </g>
    </g>
   </g>
  </g>
 </g>
 <defs>
  <clipPath id="p02e486ea36">
   <rect x="38.482813" y="7.2" width="523.117187" height="234.399141"/>
  </clipPath>
 </defs>
</svg>
