<?xml version="1.0" encoding="utf-8" standalone="no"?>
<!DOCTYPE svg PUBLIC "-//W3C//DTD SVG 1.1//EN"
  "http://www.w3.org/Graphics/SVG/1.1/DTD/svg11.dtd">
<svg xmlns:xlink="http://www.w3.org/1999/xlink" width="568.8pt" height="280.8pt" viewBox="0 0 568.8 280.8" xmlns="http://www.w3.org/2000/svg" version="1.1">
 <metadata>
  <rdf:RDF xmlns:dc="http://purl.org/dc/elements/1.1/" xmlns:cc="http://creativecommons.org/ns#" xmlns:rdf="http://www.w3.org/1999/02/22-rdf-syntax-ns#">
   <cc:Work>
    <dc:type rdf:resource="http://purl.org/dc/dcmitype/StillImage"/>
    <dc:date>2026-07-11T02:17:04.223980</dc:date>
    <dc:format>image/svg+xml</dc:format>
    <dc:creator>
     <cc:Agent>
      <dc:title>Matplotlib v3.11.0, https://matplotlib.org/</dc:title>
     </cc:Agent>
    </dc:creator>
   </cc:Work>
  </rdf:RDF>
 </metadata>
 <defs>
  <style type="text/css">*{stroke-linejoin: round; stroke-linecap: butt}</style>
 </defs>
 <g id="figure_1">
  <g id="patch_1">
   <path d="M 0 280.8 
L 568.8 280.8 
L 568.8 0 
L 0 0 
L 0 280.8 
z
" style="fill: none"/>
  </g>
  <g id="axes_1">
   <g id="patch_2">
    <path d="M 38.482813 241.599141 
L 561.6 241.599141 
L 561.6 7.2 
L 38.482813 7.2 
L 38.482813 241.599141 
z
" style="fill: none"/>
   </g>
   <g id="matplotlib.axis_1">
    <g id="xtick_1">
     <g id="line2d_1">
      <path d="M 62.260866 241.599141 
L 62.260866 7.2 
" clip-path="url(#p8098fe70dd)" style="fill: none; stroke-dasharray: 2.96,1.28; stroke-dashoffset: 0; stroke: #7f7f7f; stroke-opacity: 0.6; stroke-width: 0.8"/>
     </g>
     <g id="line2d_2">
      <defs>
       <path id="m4ac72245e8" d="M 0 0 
L 0 3.5 
" style="stroke: #7f7f7f; stroke-width: 1.8"/>
      </defs>
      <g>
       <use xlink:href="#m4ac72245e8" x="62.260866" y="241.599141" style="fill: #7f7f7f; stroke: #7f7f7f; stroke-width: 1.8"/>
      </g>
     </g>
     <g id="text_1">
      <!-- 0 -->
      <g style="fill: #7f7f7f" transform="translate(59.079616 256.196797) scale(0.1 -0.1)">
       <defs>
        <path id="DejaVuSans-13" d="M 2034 4250 
Q 1547 4250 1301 3770 
Q 1056 3291 1056 2328 
Q 1056 1369 1301 889 
Q 1547 409 2034 409 
Q 2525 409 2770 889 
Q 3016 1369 3016 2328 
Q 3016 3291 2770 3770 
Q 2525 4250 2034 4250 
z
M 2034 4750 
Q 2819 4750 3233 4129 
Q 3647 3509 3647 2328 
Q 3647 1150 3233 529 
Q 2819 -91 2034 -91 
Q 1250 -91 836 529 
Q 422 1150 422 2328 
Q 422 3509 836 4129 
Q 1250 4750 2034 4750 
z
" transform="scale(0.015625)"/>
       </defs>
       <use xlink:href="#DejaVuSans-13"/>
      </g>
     </g>
    </g>
    <g id="xtick_2">
     <g id="line2d_3">
      <path d="M 157.373082 241.599141 
L 157.373082 7.2 
" clip-path="url(#p8098fe70dd)" style="fill: none; stroke-dasharray: 2.96,1.28; stroke-dashoffset: 0; stroke: #7f7f7f; stroke-opacity: 0.6; stroke-width: 0.8"/>
     </g>
     <g id="line2d_4">
      <g>
       <use xlink:href="#m4ac72245e8" x="157.373082" y="241.599141" style="fill: #7f7f7f; stroke: #7f7f7f; stroke-width: 1.8"/>
      </g>
     </g>
     <g id="text_2">
      <!-- 20 -->
      <g style="fill: #7f7f7f" transform="translate(151.010582 256.196797) scale(0.1 -0.1)">
       <defs>
        <path id="DejaVuSans-15" d="M 1228 531 
L 3431 531 
L 3431 0 
L 469 0 
L 469 531 
Q 828 903 1448 1529 
Q 2069 2156 2228 2338 
Q 2531 2678 2651 2914 
Q 2772 3150 2772 3378 
Q 2772 3750 2511 3984 
Q 2250 4219 1831 4219 
Q 1534 4219 1204 4116 
Q 875 4013 500 3803 
L 500 4441 
Q 881 4594 1212 4672 
Q 1544 4750 1819 4750 
Q 2544 4750 2975 4387 
Q 3406 4025 3406 3419 
Q 3406 3131 3298 2873 
Q 3191 2616 2906 2266 
Q 2828 2175 2409 1742 
Q 1991 1309 1228 531 
z
" transform="scale(0.015625)"/>
       </defs>
       <use xlink:href="#DejaVuSans-15"/>
       <use xlink:href="#DejaVuSans-13" transform="translate(63.625 0)"/>
      </g>
     </g>
    </g>
    <g id="xtick_3">
     <g id="line2d_5">
      <path d="M 252.485298 241.599141 
L 252.485298 7.2 
" clip-path="url(#p8098fe70dd)" style="fill: none; stroke-dasharray: 2.96,1.28; stroke-dashoffset: 0; stroke: #7f7f7f; stroke-opacity: 0.6; stroke-width: 0.8"/>
     </g>
     <g id="line2d_6">
      <g>
       <use xlink:href="#m4ac72245e8" x="252.485298" y="241.599141" style="fill: #7f7f7f; stroke: #7f7f7f; stroke-width: 1.8"/>
      </g>
     </g>
     <g id="text_3">
      <!-- 40 -->
      <g style="fill: #7f7f7f" transform="translate(246.122798 256.196797) scale(0.1 -0.1)">
       <defs>
        <path id="DejaVuSans-17" d="M 2419 4116 
L 825 1625 
L 2419 1625 
L 2419 4116 
z
M 2253 4666 
L 3047 4666 
L 3047 1625 
L 3713 1625 
L 3713 1100 
L 3047 1100 
L 3047 0 
L 2419 0 
L 2419 1100 
L 313 1100 
L 313 1709 
L 2253 4666 
z
" transform="scale(0.015625)"/>
       </defs>
       <use xlink:href="#DejaVuSans-17"/>
       <use xlink:href="#DejaVuSans-13" transform="translate(63.625 0)"/>
      </g>
     </g>
    </g>
    <g id="xtick_4">
     <g id="line2d_7">
      <path d="M 347.597514 241.599141 
L 347.597514 7.2 
" clip-path="url(#p8098fe70dd)" style="fill: none; stroke-dasharray: 2.96,1.28; stroke-dashoffset: 0; stroke: #7f7f7f; stroke-opacity: 0.6; stroke-width: 0.8"/>
     </g>
     <g id="line2d_8">
      <g>
       <use xlink:href="#m4ac72245e8" x="347.597514" y="241.599141" style="fill: #7f7f7f; stroke: #7f7f7f; stroke-width: 1.8"/>
      </g>
     </g>
     <g id="text_4">
      <!-- 60 -->
      <g style="fill: #7f7f7f" transform="translate(341.235014 256.196797) scale(0.1 -0.1)">
       <defs>
        <path id="DejaVuSans-19" d="M 2113 2584 
Q 1688 2584 1439 2293 
Q 1191 2003 1191 1497 
Q 1191 994 1439 701 
Q 1688 409 2113 409 
Q 2538 409 2786 701 
Q 3034 994 3034 1497 
Q 3034 2003 2786 2293 
Q 2538 2584 2113 2584 
z
M 3366 4563 
L 3366 3988 
Q 3128 4100 2886 4159 
Q 2644 4219 2406 4219 
Q 1781 4219 1451 3797 
Q 1122 3375 1075 2522 
Q 1259 2794 1537 2939 
Q 1816 3084 2150 3084 
Q 2853 3084 3261 2657 
Q 3669 2231 3669 1497 
Q 3669 778 3244 343 
Q 2819 -91 2113 -91 
Q 1303 -91 875 529 
Q 447 1150 447 2328 
Q 447 3434 972 4092 
Q 1497 4750 2381 4750 
Q 2619 4750 2861 4703 
Q 3103 4656 3366 4563 
z
" transform="scale(0.015625)"/>
       </defs>
       <use xlink:href="#DejaVuSans-19"/>
       <use xlink:href="#DejaVuSans-13" transform="translate(63.625 0)"/>
      </g>
     </g>
    </g>
    <g id="xtick_5">
     <g id="line2d_9">
      <path d="M 442.70973 241.599141 
L 442.70973 7.2 
" clip-path="url(#p8098fe70dd)" style="fill: none; stroke-dasharray: 2.96,1.28; stroke-dashoffset: 0; stroke: #7f7f7f; stroke-opacity: 0.6; stroke-width: 0.8"/>
     </g>
     <g id="line2d_10">
      <g>
       <use xlink:href="#m4ac72245e8" x="442.70973" y="241.599141" style="fill: #7f7f7f; stroke: #7f7f7f; stroke-width: 1.8"/>
      </g>
     </g>
     <g id="text_5">
      <!-- 80 -->
      <g style="fill: #7f7f7f" transform="translate(436.34723 256.196797) scale(0.1 -0.1)">
       <defs>
        <path id="DejaVuSans-1b" d="M 2034 2216 
Q 1584 2216 1326 1975 
Q 1069 1734 1069 1313 
Q 1069 891 1326 650 
Q 1584 409 2034 409 
Q 2484 409 2743 651 
Q 3003 894 3003 1313 
Q 3003 1734 2745 1975 
Q 2488 2216 2034 2216 
z
M 1403 2484 
Q 997 2584 770 2862 
Q 544 3141 544 3541 
Q 544 4100 942 4425 
Q 1341 4750 2034 4750 
Q 2731 4750 3128 4425 
Q 3525 4100 3525 3541 
Q 3525 3141 3298 2862 
Q 3072 2584 2669 2484 
Q 3125 2378 3379 2068 
Q 3634 1759 3634 1313 
Q 3634 634 3220 271 
Q 2806 -91 2034 -91 
Q 1263 -91 848 271 
Q 434 634 434 1313 
Q 434 1759 690 2068 
Q 947 2378 1403 2484 
z
M 1172 3481 
Q 1172 3119 1398 2916 
Q 1625 2713 2034 2713 
Q 2441 2713 2670 2916 
Q 2900 3119 2900 3481 
Q 2900 3844 2670 4047 
Q 2441 4250 2034 4250 
Q 1625 4250 1398 4047 
Q 1172 3844 1172 3481 
z
" transform="scale(0.015625)"/>
       </defs>
       <use xlink:href="#DejaVuSans-1b"/>
       <use xlink:href="#DejaVuSans-13" transform="translate(63.625 0)"/>
      </g>
     </g>
    </g>
    <g id="xtick_6">
     <g id="line2d_11">
      <path d="M 537.821946 241.599141 
L 537.821946 7.2 
" clip-path="url(#p8098fe70dd)" style="fill: none; stroke-dasharray: 2.96,1.28; stroke-dashoffset: 0; stroke: #7f7f7f; stroke-opacity: 0.6; stroke-width: 0.8"/>
     </g>
     <g id="line2d_12">
      <g>
       <use xlink:href="#m4ac72245e8" x="537.821946" y="241.599141" style="fill: #7f7f7f; stroke: #7f7f7f; stroke-width: 1.8"/>
      </g>
     </g>
     <g id="text_6">
      <!-- 100 -->
      <g style="fill: #7f7f7f" transform="translate(528.278196 256.196797) scale(0.1 -0.1)">
       <defs>
        <path id="DejaVuSans-14" d="M 794 531 
L 1825 531 
L 1825 4091 
L 703 3866 
L 703 4441 
L 1819 4666 
L 2450 4666 
L 2450 531 
L 3481 531 
L 3481 0 
L 794 0 
L 794 531 
z
" transform="scale(0.015625)"/>
       </defs>
       <use xlink:href="#DejaVuSans-14"/>
       <use xlink:href="#DejaVuSans-13" transform="translate(63.625 0)"/>
       <use xlink:href="#DejaVuSans-13" transform="translate(127.25 0)"/>
      </g>
     </g>
    </g>
    <g id="text_7">
     <!-- time [s] -->
     <g style="fill: #7f7f7f" transform="translate(278.710859 270.957422) scale(0.11 -0.11)">
      <defs>
       <path id="DejaVuSans-57" d="M 1172 4494 
L 1172 3500 
L 2356 3500 
L 2356 3053 
L 1172 3053 
L 1172 1153 
Q 1172 725 1289 603 
Q 1406 481 1766 481 
L 2356 481 
L 2356 0 
L 1766 0 
Q 1100 0 847 248 
Q 594 497 594 1153 
L 594 3053 
L 172 3053 
L 172 3500 
L 594 3500 
L 594 4494 
L 1172 4494 
z
" transform="scale(0.015625)"/>
       <path id="DejaVuSans-4c" d="M 603 3500 
L 1178 3500 
L 1178 0 
L 603 0 
L 603 3500 
z
M 603 4863 
L 1178 4863 
L 1178 4134 
L 603 4134 
L 603 4863 
z
" transform="scale(0.015625)"/>
       <path id="DejaVuSans-50" d="M 3328 2828 
Q 3544 3216 3844 3400 
Q 4144 3584 4550 3584 
Q 5097 3584 5394 3201 
Q 5691 2819 5691 2113 
L 5691 0 
L 5113 0 
L 5113 2094 
Q 5113 2597 4934 2840 
Q 4756 3084 4391 3084 
Q 3944 3084 3684 2787 
Q 3425 2491 3425 1978 
L 3425 0 
L 2847 0 
L 2847 2094 
Q 2847 2600 2669 2842 
Q 2491 3084 2119 3084 
Q 1678 3084 1418 2786 
Q 1159 2488 1159 1978 
L 1159 0 
L 581 0 
L 581 3500 
L 1159 3500 
L 1159 2956 
Q 1356 3278 1631 3431 
Q 1906 3584 2284 3584 
Q 2666 3584 2933 3390 
Q 3200 3197 3328 2828 
z
" transform="scale(0.015625)"/>
       <path id="DejaVuSans-48" d="M 3597 1894 
L 3597 1613 
L 953 1613 
Q 991 1019 1311 708 
Q 1631 397 2203 397 
Q 2534 397 2845 478 
Q 3156 559 3463 722 
L 3463 178 
Q 3153 47 2828 -22 
Q 2503 -91 2169 -91 
Q 1331 -91 842 396 
Q 353 884 353 1716 
Q 353 2575 817 3079 
Q 1281 3584 2069 3584 
Q 2775 3584 3186 3129 
Q 3597 2675 3597 1894 
z
M 3022 2063 
Q 3016 2534 2758 2815 
Q 2500 3097 2075 3097 
Q 1594 3097 1305 2825 
Q 1016 2553 972 2059 
L 3022 2063 
z
" transform="scale(0.015625)"/>
       <path id="DejaVuSans-3" transform="scale(0.015625)"/>
       <path id="DejaVuSans-3e" d="M 550 4863 
L 1875 4863 
L 1875 4416 
L 1125 4416 
L 1125 -397 
L 1875 -397 
L 1875 -844 
L 550 -844 
L 550 4863 
z
" transform="scale(0.015625)"/>
       <path id="DejaVuSans-56" d="M 2834 3397 
L 2834 2853 
Q 2591 2978 2328 3040 
Q 2066 3103 1784 3103 
Q 1356 3103 1142 2972 
Q 928 2841 928 2578 
Q 928 2378 1081 2264 
Q 1234 2150 1697 2047 
L 1894 2003 
Q 2506 1872 2764 1633 
Q 3022 1394 3022 966 
Q 3022 478 2636 193 
Q 2250 -91 1575 -91 
Q 1294 -91 989 -36 
Q 684 19 347 128 
L 347 722 
Q 666 556 975 473 
Q 1284 391 1588 391 
Q 1994 391 2212 530 
Q 2431 669 2431 922 
Q 2431 1156 2273 1281 
Q 2116 1406 1581 1522 
L 1381 1569 
Q 847 1681 609 1914 
Q 372 2147 372 2553 
Q 372 3047 722 3315 
Q 1072 3584 1716 3584 
Q 2034 3584 2315 3537 
Q 2597 3491 2834 3397 
z
" transform="scale(0.015625)"/>
       <path id="DejaVuSans-40" d="M 1947 4863 
L 1947 -844 
L 622 -844 
L 622 -397 
L 1369 -397 
L 1369 4416 
L 622 4416 
L 622 4863 
L 1947 4863 
z
" transform="scale(0.015625)"/>
      </defs>
      <use xlink:href="#DejaVuSans-57"/>
      <use xlink:href="#DejaVuSans-4c" transform="translate(39.203125 0)"/>
      <use xlink:href="#DejaVuSans-50" transform="translate(66.984375 0)"/>
      <use xlink:href="#DejaVuSans-48" transform="translate(164.390625 0)"/>
      <use xlink:href="#DejaVuSans-3" transform="translate(225.921875 0)"/>
      <use xlink:href="#DejaVuSans-3e" transform="translate(257.703125 0)"/>
      <use xlink:href="#DejaVuSans-56" transform="translate(296.71875 0)"/>
      <use xlink:href="#DejaVuSans-40" transform="translate(348.8125 0)"/>
     </g>
    </g>
   </g>
   <g id="matplotlib.axis_2">
    <g id="ytick_1">
     <g id="line2d_13">
      <path d="M 38.482813 237.80683 
L 561.6 237.80683 
" clip-path="url(#p8098fe70dd)" style="fill: none; stroke-dasharray: 2.96,1.28; stroke-dashoffset: 0; stroke: #7f7f7f; stroke-opacity: 0.6; stroke-width: 0.8"/>
     </g>
     <g id="line2d_14">
      <defs>
       <path id="m0eee01ea3f" d="M 0 0 
L -3.5 0 
" style="stroke: #7f7f7f; stroke-width: 1.8"/>
      </defs>
      <g>
       <use xlink:href="#m0eee01ea3f" x="38.482813" y="237.80683" style="fill: #7f7f7f; stroke: #7f7f7f; stroke-width: 1.8"/>
      </g>
     </g>
     <g id="text_8">
      <!-- −0.6 -->
      <g style="fill: #7f7f7f" transform="translate(7.2 241.605658) scale(0.1 -0.1)">
       <defs>
        <path id="DejaVuSans-c9c" d="M 678 2272 
L 4684 2272 
L 4684 1741 
L 678 1741 
L 678 2272 
z
" transform="scale(0.015625)"/>
        <path id="DejaVuSans-11" d="M 684 794 
L 1344 794 
L 1344 0 
L 684 0 
L 684 794 
z
" transform="scale(0.015625)"/>
       </defs>
       <use xlink:href="#DejaVuSans-c9c"/>
       <use xlink:href="#DejaVuSans-13" transform="translate(83.796875 0)"/>
       <use xlink:href="#DejaVuSans-11" transform="translate(147.421875 0)"/>
       <use xlink:href="#DejaVuSans-19" transform="translate(179.203125 0)"/>
      </g>
     </g>
    </g>
    <g id="ytick_2">
     <g id="line2d_15">
      <path d="M 38.482813 211.665485 
L 561.6 211.665485 
" clip-path="url(#p8098fe70dd)" style="fill: none; stroke-dasharray: 2.96,1.28; stroke-dashoffset: 0; stroke: #7f7f7f; stroke-opacity: 0.6; stroke-width: 0.8"/>
     </g>
     <g id="line2d_16">
      <g>
       <use xlink:href="#m0eee01ea3f" x="38.482813" y="211.665485" style="fill: #7f7f7f; stroke: #7f7f7f; stroke-width: 1.8"/>
      </g>
     </g>
     <g id="text_9">
      <!-- −0.4 -->
      <g style="fill: #7f7f7f" transform="translate(7.2 215.464313) scale(0.1 -0.1)">
       <use xlink:href="#DejaVuSans-c9c"/>
       <use xlink:href="#DejaVuSans-13" transform="translate(83.796875 0)"/>
       <use xlink:href="#DejaVuSans-11" transform="translate(147.421875 0)"/>
       <use xlink:href="#DejaVuSans-17" transform="translate(179.203125 0)"/>
      </g>
     </g>
    </g>
    <g id="ytick_3">
     <g id="line2d_17">
      <path d="M 38.482813 185.524141 
L 561.6 185.524141 
" clip-path="url(#p8098fe70dd)" style="fill: none; stroke-dasharray: 2.96,1.28; stroke-dashoffset: 0; stroke: #7f7f7f; stroke-opacity: 0.6; stroke-width: 0.8"/>
     </g>
     <g id="line2d_18">
      <g>
       <use xlink:href="#m0eee01ea3f" x="38.482813" y="185.524141" style="fill: #7f7f7f; stroke: #7f7f7f; stroke-width: 1.8"/>
      </g>
     </g>
     <g id="text_10">
      <!-- −0.2 -->
      <g style="fill: #7f7f7f" transform="translate(7.2 189.322969) scale(0.1 -0.1)">
       <use xlink:href="#DejaVuSans-c9c"/>
       <use xlink:href="#DejaVuSans-13" transform="translate(83.796875 0)"/>
       <use xlink:href="#DejaVuSans-11" transform="translate(147.421875 0)"/>
       <use xlink:href="#DejaVuSans-15" transform="translate(179.203125 0)"/>
      </g>
     </g>
    </g>
    <g id="ytick_4">
     <g id="line2d_19">
      <path d="M 38.482813 159.382796 
L 561.6 159.382796 
" clip-path="url(#p8098fe70dd)" style="fill: none; stroke-dasharray: 2.96,1.28; stroke-dashoffset: 0; stroke: #7f7f7f; stroke-opacity: 0.6; stroke-width: 0.8"/>
     </g>
     <g id="line2d_20">
      <g>
       <use xlink:href="#m0eee01ea3f" x="38.482813" y="159.382796" style="fill: #7f7f7f; stroke: #7f7f7f; stroke-width: 1.8"/>
      </g>
     </g>
     <g id="text_11">
      <!-- 0.0 -->
      <g style="fill: #7f7f7f" transform="translate(15.579688 163.181624) scale(0.1 -0.1)">
       <use xlink:href="#DejaVuSans-13"/>
       <use xlink:href="#DejaVuSans-11" transform="translate(63.625 0)"/>
       <use xlink:href="#DejaVuSans-13" transform="translate(95.40625 0)"/>
      </g>
     </g>
    </g>
    <g id="ytick_5">
     <g id="line2d_21">
      <path d="M 38.482813 133.241452 
L 561.6 133.241452 
" clip-path="url(#p8098fe70dd)" style="fill: none; stroke-dasharray: 2.96,1.28; stroke-dashoffset: 0; stroke: #7f7f7f; stroke-opacity: 0.6; stroke-width: 0.8"/>
     </g>
     <g id="line2d_22">
      <g>
       <use xlink:href="#m0eee01ea3f" x="38.482813" y="133.241452" style="fill: #7f7f7f; stroke: #7f7f7f; stroke-width: 1.8"/>
      </g>
     </g>
     <g id="text_12">
      <!-- 0.2 -->
      <g style="fill: #7f7f7f" transform="translate(15.579688 137.04028) scale(0.1 -0.1)">
       <use xlink:href="#DejaVuSans-13"/>
       <use xlink:href="#DejaVuSans-11" transform="translate(63.625 0)"/>
       <use xlink:href="#DejaVuSans-15" transform="translate(95.40625 0)"/>
      </g>
     </g>
    </g>
    <g id="ytick_6">
     <g id="line2d_23">
      <path d="M 38.482813 107.100107 
L 561.6 107.100107 
" clip-path="url(#p8098fe70dd)" style="fill: none; stroke-dasharray: 2.96,1.28; stroke-dashoffset: 0; stroke: #7f7f7f; stroke-opacity: 0.6; stroke-width: 0.8"/>
     </g>
     <g id="line2d_24">
      <g>
       <use xlink:href="#m0eee01ea3f" x="38.482813" y="107.100107" style="fill: #7f7f7f; stroke: #7f7f7f; stroke-width: 1.8"/>
      </g>
     </g>
     <g id="text_13">
      <!-- 0.4 -->
      <g style="fill: #7f7f7f" transform="translate(15.579688 110.898935) scale(0.1 -0.1)">
       <use xlink:href="#DejaVuSans-13"/>
       <use xlink:href="#DejaVuSans-11" transform="translate(63.625 0)"/>
       <use xlink:href="#DejaVuSans-17" transform="translate(95.40625 0)"/>
      </g>
     </g>
    </g>
    <g id="ytick_7">
     <g id="line2d_25">
      <path d="M 38.482813 80.958763 
L 561.6 80.958763 
" clip-path="url(#p8098fe70dd)" style="fill: none; stroke-dasharray: 2.96,1.28; stroke-dashoffset: 0; stroke: #7f7f7f; stroke-opacity: 0.6; stroke-width: 0.8"/>
     </g>
     <g id="line2d_26">
      <g>
       <use xlink:href="#m0eee01ea3f" x="38.482813" y="80.958763" style="fill: #7f7f7f; stroke: #7f7f7f; stroke-width: 1.8"/>
      </g>
     </g>
     <g id="text_14">
      <!-- 0.6 -->
      <g style="fill: #7f7f7f" transform="translate(15.579688 84.757591) scale(0.1 -0.1)">
       <use xlink:href="#DejaVuSans-13"/>
       <use xlink:href="#DejaVuSans-11" transform="translate(63.625 0)"/>
       <use xlink:href="#DejaVuSans-19" transform="translate(95.40625 0)"/>
      </g>
     </g>
    </g>
    <g id="ytick_8">
     <g id="line2d_27">
      <path d="M 38.482813 54.817418 
L 561.6 54.817418 
" clip-path="url(#p8098fe70dd)" style="fill: none; stroke-dasharray: 2.96,1.28; stroke-dashoffset: 0; stroke: #7f7f7f; stroke-opacity: 0.6; stroke-width: 0.8"/>
     </g>
     <g id="line2d_28">
      <g>
       <use xlink:href="#m0eee01ea3f" x="38.482813" y="54.817418" style="fill: #7f7f7f; stroke: #7f7f7f; stroke-width: 1.8"/>
      </g>
     </g>
     <g id="text_15">
      <!-- 0.8 -->
      <g style="fill: #7f7f7f" transform="translate(15.579688 58.616246) scale(0.1 -0.1)">
       <use xlink:href="#DejaVuSans-13"/>
       <use xlink:href="#DejaVuSans-11" transform="translate(63.625 0)"/>
       <use xlink:href="#DejaVuSans-1b" transform="translate(95.40625 0)"/>
      </g>
     </g>
    </g>
    <g id="ytick_9">
     <g id="line2d_29">
      <path d="M 38.482813 28.676074 
L 561.6 28.676074 
" clip-path="url(#p8098fe70dd)" style="fill: none; stroke-dasharray: 2.96,1.28; stroke-dashoffset: 0; stroke: #7f7f7f; stroke-opacity: 0.6; stroke-width: 0.8"/>
     </g>
     <g id="line2d_30">
      <g>
       <use xlink:href="#m0eee01ea3f" x="38.482813" y="28.676074" style="fill: #7f7f7f; stroke: #7f7f7f; stroke-width: 1.8"/>
      </g>
     </g>
     <g id="text_16">
      <!-- 1.0 -->
      <g style="fill: #7f7f7f" transform="translate(15.579688 32.474902) scale(0.1 -0.1)">
       <use xlink:href="#DejaVuSans-14"/>
       <use xlink:href="#DejaVuSans-11" transform="translate(63.625 0)"/>
       <use xlink:href="#DejaVuSans-13" transform="translate(95.40625 0)"/>
      </g>
     </g>
    </g>
   </g>
   <g id="line2d_31">
    <path d="M 62.260866 159.382796 
L 62.47885 161.081533 
L 62.977054 158.612081 
L 63.144276 160.502991 
L 64.501516 159.200974 
L 65.673942 159.692354 
L 65.950061 158.678523 
L 66.225538 159.845212 
L 66.829046 159.092193 
L 67.924953 159.085471 
L 72.461281 160.222042 
L 72.688864 159.035062 
L 73.523152 159.502314 
L 75.683777 159.518325 
L 77.431837 159.513837 
L 79.256807 159.947019 
L 79.592684 159.962362 
L 80.865072 158.456293 
L 82.215424 160.05164 
L 83.625359 158.881233 
L 87.365246 159.621485 
L 87.780549 158.745529 
L 88.164523 159.371341 
L 88.871303 159.411571 
L 89.183993 158.575751 
L 90.073649 159.002579 
L 91.545316 159.40441 
L 92.647983 159.037482 
L 93.03968 159.527194 
L 93.493694 159.146506 
L 94.801172 159.130157 
L 95.687611 159.495997 
L 96.855007 159.073114 
L 98.256334 160.345786 
L 99.374848 159.128712 
L 99.658275 160.061969 
L 100.4136 159.400872 
L 101.848812 159.47093 
L 103.012384 159.792811 
L 103.36502 158.588703 
L 104.065269 159.10058 
L 112.972051 159.004435 
L 113.294956 158.610277 
L 113.660604 159.435321 
L 114.022699 159.517306 
L 114.41775 158.538093 
L 114.802401 159.037629 
L 119.345223 159.265291 
L 120.541391 159.47963 
L 122.247096 159.241972 
L 128.190623 159.886235 
L 129.799788 159.375703 
L 131.560496 159.691487 
L 133.392178 159.488426 
L 134.16023 159.664031 
L 134.547472 159.067434 
L 135.313501 159.669877 
L 140.134167 159.079631 
L 140.419721 159.89618 
L 141.079987 159.333269 
L 142.760119 159.390167 
L 144.245847 159.541621 
L 144.611798 158.749672 
L 145.337348 159.383744 
L 147.600725 159.174206 
L 148.722032 159.399854 
L 150.608509 159.195678 
L 157.364037 158.835277 
L 157.373185 17.854506 
L 157.371691 165.003278 
L 158.505132 29.070919 
L 158.66633 28.192502 
L 159.345562 29.980433 
L 159.515118 28.699637 
L 161.11243 29.25965 
L 161.365883 28.141841 
L 161.912542 29.459778 
L 162.648784 29.604187 
L 164.201019 32.360336 
L 164.480048 31.449211 
L 164.841424 32.665172 
L 165.170811 32.262531 
L 167.569602 37.862994 
L 173.039811 55.607976 
L 176.314382 70.225976 
L 195.246958 144.524622 
L 198.162764 151.006519 
L 205.82324 163.138581 
L 212.50556 167.953679 
L 212.864265 167.219739 
L 213.582834 167.820769 
L 214.873737 168.832821 
L 215.981843 169.134563 
L 219.476414 168.740009 
L 222.993798 168.777394 
L 224.889363 167.591489 
L 226.667203 167.449039 
L 233.889366 164.906541 
L 236.640461 163.329845 
L 236.971996 164.145354 
L 237.317758 162.603793 
L 237.640803 163.277073 
L 238.079635 163.950168 
L 238.518247 163.377775 
L 240.216956 162.570052 
L 241.435259 162.355675 
L 245.445059 161.096859 
L 246.699981 161.231611 
L 252.669094 159.939761 
L 253.524767 159.930743 
L 254.645823 160.000186 
L 256.348741 159.286583 
L 257.551624 159.395158 
L 259.261881 158.177279 
L 259.659985 159.000011 
L 275.209324 158.906576 
L 276.120377 158.973581 
L 276.511543 158.124481 
L 277.249561 158.869653 
L 278.17626 158.302099 
L 279.455628 159.10332 
L 279.897639 159.0392 
L 280.265329 157.798029 
L 280.641143 159.17544 
L 281.833015 159.050201 
L 283.131196 159.07866 
L 283.536558 158.260846 
L 283.94484 158.806585 
L 285.226757 158.910154 
L 286.565918 159.29884 
L 286.943731 158.813336 
L 287.268095 159.156354 
L 288.326601 159.233763 
L 292.585761 159.664862 
L 293.758452 158.527056 
L 294.133994 158.99848 
L 295.884952 159.263044 
L 299.212246 159.071666 
L 300.343583 159.3257 
L 300.691065 158.506451 
L 301.035939 159.641866 
L 303.057865 159.509887 
L 303.454902 158.585321 
L 304.182015 159.302128 
L 306.9732 159.579701 
L 308.136827 159.34974 
L 309.825136 158.856228 
L 310.535823 160.008601 
L 310.928441 159.237523 
L 311.326072 159.572895 
L 311.717707 158.6289 
L 316.299646 159.57213 
L 317.127691 158.829045 
L 317.488587 159.601662 
L 317.867507 159.193036 
L 318.537496 158.851615 
L 318.884196 160.048762 
L 319.642634 159.4784 
L 320.965456 159.057497 
L 321.3493 159.828616 
L 321.736455 158.848983 
L 322.510772 158.920022 
L 322.874557 159.707717 
L 323.247413 158.819368 
L 324.371089 159.320359 
L 327.780261 159.001426 
L 329.356389 159.337652 
L 330.589819 158.825687 
L 332.874717 159.465811 
L 335.065036 159.297693 
L 338.927688 159.745694 
L 339.714098 158.748284 
L 340.873702 159.561522 
L 347.59617 159.951946 
L 347.603777 230.944634 
L 347.597504 147.918547 
L 348.618656 224.737888 
L 355.400489 223.049561 
L 364.549213 208.013834 
L 368.605247 199.223354 
L 369.945658 196.420435 
L 372.58378 190.412935 
L 379.699286 175.476435 
L 382.260282 171.793118 
L 384.549293 168.530362 
L 387.839418 164.222489 
L 392.96689 159.533251 
L 393.356042 160.040793 
L 393.756076 159.265473 
L 395.447158 157.675128 
L 398.020829 156.883472 
L 399.626326 155.590856 
L 402.229673 155.713578 
L 404.567075 154.337497 
L 404.91715 155.057799 
L 405.263725 154.299837 
L 414.986813 155.132535 
L 416.404964 155.156759 
L 418.429321 156.265343 
L 418.759059 155.772654 
L 419.439034 155.490899 
L 420.770263 156.295189 
L 426.51792 157.126159 
L 427.388978 156.657604 
L 429.272452 157.607332 
L 431.194569 157.608015 
L 437.184334 158.816718 
L 438.524505 158.383023 
L 441.516444 158.865838 
L 443.106492 158.94023 
L 444.271278 159.550188 
L 445.998843 159.116226 
L 477.272893 159.850767 
L 477.620102 158.988436 
L 478.423949 159.500045 
L 480.55337 159.381411 
L 481.987985 160.250486 
L 483.498658 158.761896 
L 484.27775 159.528365 
L 484.655119 159.276163 
L 488.294917 159.472434 
L 489.925502 159.286173 
L 492.090924 159.376466 
L 492.477193 159.934962 
L 492.864716 159.179929 
L 497.24919 159.432106 
L 498.509998 159.539308 
L 498.893532 160.342164 
L 499.279425 159.755304 
L 499.648864 159.156831 
L 500.033636 159.423432 
L 501.304781 159.468078 
L 501.703204 158.762614 
L 502.46266 159.314673 
L 503.220878 159.147371 
L 503.589192 160.116708 
L 503.959723 159.341906 
L 509.922864 159.364226 
L 511.179019 159.023089 
L 512.399777 159.645788 
L 514.11898 159.082879 
L 515.401129 159.653178 
L 516.989557 159.296362 
L 518.592186 159.383973 
L 520.19396 159.847691 
L 521.334414 158.942395 
L 523.902236 159.277146 
L 527.316409 159.476711 
L 529.340239 158.718658 
L 529.703263 160.138715 
L 530.463311 159.536063 
L 531.900537 159.570022 
L 533.459407 159.942851 
L 533.811912 158.902802 
L 534.585178 159.664388 
L 535.886136 159.663308 
L 537.127402 158.98869 
L 537.821946 158.561452 
L 537.821946 158.561452 
" clip-path="url(#p8098fe70dd)" style="fill: none; stroke: #e41a1c; stroke-width: 2; stroke-linecap: square"/>
   </g>
   <g id="line2d_32">
    <path d="M 62.260866 159.382796 
L 65.103862 159.386512 
L 94.801172 159.379563 
L 157.373078 159.396804 
L 158.352974 156.867855 
L 170.655339 150.33432 
L 180.354188 146.984694 
L 194.513649 145.187744 
L 211.77195 145.48572 
L 349.010273 147.695071 
L 364.549213 151.583336 
L 380.514631 153.283969 
L 404.91715 153.212664 
L 430.066065 152.82853 
L 481.987985 152.859262 
L 510.375818 152.837923 
L 537.821946 152.831173 
L 537.821946 152.831173 
" clip-path="url(#p8098fe70dd)" style="fill: none; stroke: #377eb8; stroke-width: 2; stroke-linecap: square"/>
   </g>
   <g id="patch_3">
    <path d="M 38.482813 241.599141 
L 38.482813 7.2 
" style="fill: none; stroke: #7f7f7f; stroke-width: 1.8; stroke-linejoin: miter; stroke-linecap: square"/>
   </g>
   <g id="patch_4">
    <path d="M 38.482813 241.599141 
L 561.6 241.599141 
" style="fill: none; stroke: #7f7f7f; stroke-width: 1.8; stroke-linejoin: miter; stroke-linecap: square"/>
   </g>
   <g id="legend_1">
    <g id="line2d_33">
     <path d="M 499.584375 20.298438 
L 509.584375 20.298438 
L 519.584375 20.298438 
" style="fill: none; stroke: #e41a1c; stroke-width: 2; stroke-linecap: square"/>
    </g>
    <g id="text_17">
     <!-- err 1 -->
     <g style="fill: #7f7f7f" transform="translate(527.584375 23.798438) scale(0.1 -0.1)">
      <defs>
       <path id="DejaVuSans-55" d="M 2631 2963 
Q 2534 3019 2420 3045 
Q 2306 3072 2169 3072 
Q 1681 3072 1420 2755 
Q 1159 2438 1159 1844 
L 1159 0 
L 581 0 
L 581 3500 
L 1159 3500 
L 1159 2956 
Q 1341 3275 1631 3429 
Q 1922 3584 2338 3584 
Q 2397 3584 2469 3576 
Q 2541 3569 2628 3553 
L 2631 2963 
z
" transform="scale(0.015625)"/>
      </defs>
      <use xlink:href="#DejaVuSans-48"/>
      <use xlink:href="#DejaVuSans-55" transform="translate(61.53125 0)"/>
      <use xlink:href="#DejaVuSans-55" transform="translate(100.890625 0)"/>
      <use xlink:href="#DejaVuSans-3" transform="translate(142 0)"/>
      <use xlink:href="#DejaVuSans-14" transform="translate(173.78125 0)"/>
     </g>
    </g>
    <g id="line2d_34">
     <path d="M 499.584375 35.299219 
L 509.584375 35.299219 
L 519.584375 35.299219 
" style="fill: none; stroke: #377eb8; stroke-width: 2; stroke-linecap: square"/>
    </g>
    <g id="text_18">
     <!-- pid 1 -->
     <g style="fill: #7f7f7f" transform="translate(527.584375 38.799219) scale(0.1 -0.1)">
      <defs>
       <path id="DejaVuSans-53" d="M 1159 525 
L 1159 -1331 
L 581 -1331 
L 581 3500 
L 1159 3500 
L 1159 2969 
Q 1341 3281 1617 3432 
Q 1894 3584 2278 3584 
Q 2916 3584 3314 3078 
Q 3713 2572 3713 1747 
Q 3713 922 3314 415 
Q 2916 -91 2278 -91 
Q 1894 -91 1617 61 
Q 1341 213 1159 525 
z
M 3116 1747 
Q 3116 2381 2855 2742 
Q 2594 3103 2138 3103 
Q 1681 3103 1420 2742 
Q 1159 2381 1159 1747 
Q 1159 1113 1420 752 
Q 1681 391 2138 391 
Q 2594 391 2855 752 
Q 3116 1113 3116 1747 
z
" transform="scale(0.015625)"/>
       <path id="DejaVuSans-47" d="M 2906 2969 
L 2906 4863 
L 3481 4863 
L 3481 0 
L 2906 0 
L 2906 525 
Q 2725 213 2448 61 
Q 2172 -91 1784 -91 
Q 1150 -91 751 415 
Q 353 922 353 1747 
Q 353 2572 751 3078 
Q 1150 3584 1784 3584 
Q 2172 3584 2448 3432 
Q 2725 3281 2906 2969 
z
M 947 1747 
Q 947 1113 1208 752 
Q 1469 391 1925 391 
Q 2381 391 2643 752 
Q 2906 1113 2906 1747 
Q 2906 2381 2643 2742 
Q 2381 3103 1925 3103 
Q 1469 3103 1208 2742 
Q 947 2381 947 1747 
z
" transform="scale(0.015625)"/>
      </defs>
      <use xlink:href="#DejaVuSans-53"/>
      <use xlink:href="#DejaVuSans-4c" transform="translate(63.484375 0)"/>
      <use xlink:href="#DejaVuSans-47" transform="translate(91.265625 0)"/>
      <use xlink:href="#DejaVuSans-3" transform="translate(154.75 0)"/>
      <use xlink:href="#DejaVuSans-14" transform="translate(186.53125 0)"/>
     </g>
    </g>
   </g>
  </g>
 </g>
 <defs>
  <clipPath id="p8098fe70dd">
   <rect x="38.482813" y="7.2" width="523.117187" height="234.399141"/>
  </clipPath>
 </defs>
</svg>
