<?xml version="1.0" encoding="utf-8" standalone="no"?>
<!DOCTYPE svg PUBLIC "-//W3C//DTD SVG 1.1//EN"
  "http://www.w3.org/Graphics/SVG/1.1/DTD/svg11.dtd">
<svg xmlns:xlink="http://www.w3.org/1999/xlink" width="568.8pt" height="280.8pt" viewBox="0 0 568.8 280.8" xmlns="http://www.w3.org/2000/svg" version="1.1">
 <metadata>
  <rdf:RDF xmlns:dc="http://purl.org/dc/elements/1.1/" xmlns:cc="http://creativecommons.org/ns#" xmlns:rdf="http://www.w3.org/1999/02/22-rdf-syntax-ns#">
   <cc:Work>
    <dc:type rdf:resource="http://purl.org/dc/dcmitype/StillImage"/>
    <dc:date>2026-07-10T14:19:02.489188</dc:date>
    <dc:format>image/svg+xml</dc:format>
    <dc:creator>
     <cc:Agent>
      <dc:title>Matplotlib v3.11.0, https://matplotlib.org/</dc:title>
     </cc:Agent>
    </dc:creator>
   </cc:Work>
  </rdf:RDF>
 </metadata>
 <defs>
  <style type="text/css">*{stroke-linejoin: round; stroke-linecap: butt}</style>
 </defs>
 <g id="figure_1">
  <g id="patch_1">
   <path d="M 0 280.8 
L 568.8 280.8 
L 568.8 0 
L 0 0 
L 0 280.8 
z
" style="fill: none"/>
  </g>
  <g id="axes_1">
   <g id="patch_2">
    <path d="M 38.482813 241.599141 
L 561.6 241.599141 
L 561.6 7.2 
L 38.482813 7.2 
L 38.482813 241.599141 
z
" style="fill: none"/>
   </g>
   <g id="matplotlib.axis_1">
    <g id="xtick_1">
     <g id="line2d_1">
      <path d="M 62.260866 241.599141 
L 62.260866 7.2 
" clip-path="url(#p7fd8ef23f8)" style="fill: none; stroke-dasharray: 2.96,1.28; stroke-dashoffset: 0; stroke: #7f7f7f; stroke-opacity: 0.6; stroke-width: 0.8"/>
     </g>
     <g id="line2d_2">
      <defs>
       <path id="mafd5153879" d="M 0 0 
L 0 3.5 
" style="stroke: #7f7f7f; stroke-width: 1.8"/>
      </defs>
      <g>
       <use xlink:href="#mafd5153879" x="62.260866" y="241.599141" style="fill: #7f7f7f; stroke: #7f7f7f; stroke-width: 1.8"/>
      </g>
     </g>
     <g id="text_1">
      <!-- 0 -->
      <g style="fill: #7f7f7f" transform="translate(59.079616 256.196797) scale(0.1 -0.1)">
       <defs>
        <path id="DejaVuSans-13" d="M 2034 4250 
Q 1547 4250 1301 3770 
Q 1056 3291 1056 2328 
Q 1056 1369 1301 889 
Q 1547 409 2034 409 
Q 2525 409 2770 889 
Q 3016 1369 3016 2328 
Q 3016 3291 2770 3770 
Q 2525 4250 2034 4250 
z
M 2034 4750 
Q 2819 4750 3233 4129 
Q 3647 3509 3647 2328 
Q 3647 1150 3233 529 
Q 2819 -91 2034 -91 
Q 1250 -91 836 529 
Q 422 1150 422 2328 
Q 422 3509 836 4129 
Q 1250 4750 2034 4750 
z
" transform="scale(0.015625)"/>
       </defs>
       <use xlink:href="#DejaVuSans-13"/>
      </g>
     </g>
    </g>
    <g id="xtick_2">
     <g id="line2d_3">
      <path d="M 157.373082 241.599141 
L 157.373082 7.2 
" clip-path="url(#p7fd8ef23f8)" style="fill: none; stroke-dasharray: 2.96,1.28; stroke-dashoffset: 0; stroke: #7f7f7f; stroke-opacity: 0.6; stroke-width: 0.8"/>
     </g>
     <g id="line2d_4">
      <g>
       <use xlink:href="#mafd5153879" x="157.373082" y="241.599141" style="fill: #7f7f7f; stroke: #7f7f7f; stroke-width: 1.8"/>
      </g>
     </g>
     <g id="text_2">
      <!-- 20 -->
      <g style="fill: #7f7f7f" transform="translate(151.010582 256.196797) scale(0.1 -0.1)">
       <defs>
        <path id="DejaVuSans-15" d="M 1228 531 
L 3431 531 
L 3431 0 
L 469 0 
L 469 531 
Q 828 903 1448 1529 
Q 2069 2156 2228 2338 
Q 2531 2678 2651 2914 
Q 2772 3150 2772 3378 
Q 2772 3750 2511 3984 
Q 2250 4219 1831 4219 
Q 1534 4219 1204 4116 
Q 875 4013 500 3803 
L 500 4441 
Q 881 4594 1212 4672 
Q 1544 4750 1819 4750 
Q 2544 4750 2975 4387 
Q 3406 4025 3406 3419 
Q 3406 3131 3298 2873 
Q 3191 2616 2906 2266 
Q 2828 2175 2409 1742 
Q 1991 1309 1228 531 
z
" transform="scale(0.015625)"/>
       </defs>
       <use xlink:href="#DejaVuSans-15"/>
       <use xlink:href="#DejaVuSans-13" transform="translate(63.625 0)"/>
      </g>
     </g>
    </g>
    <g id="xtick_3">
     <g id="line2d_5">
      <path d="M 252.485298 241.599141 
L 252.485298 7.2 
" clip-path="url(#p7fd8ef23f8)" style="fill: none; stroke-dasharray: 2.96,1.28; stroke-dashoffset: 0; stroke: #7f7f7f; stroke-opacity: 0.6; stroke-width: 0.8"/>
     </g>
     <g id="line2d_6">
      <g>
       <use xlink:href="#mafd5153879" x="252.485298" y="241.599141" style="fill: #7f7f7f; stroke: #7f7f7f; stroke-width: 1.8"/>
      </g>
     </g>
     <g id="text_3">
      <!-- 40 -->
      <g style="fill: #7f7f7f" transform="translate(246.122798 256.196797) scale(0.1 -0.1)">
       <defs>
        <path id="DejaVuSans-17" d="M 2419 4116 
L 825 1625 
L 2419 1625 
L 2419 4116 
z
M 2253 4666 
L 3047 4666 
L 3047 1625 
L 3713 1625 
L 3713 1100 
L 3047 1100 
L 3047 0 
L 2419 0 
L 2419 1100 
L 313 1100 
L 313 1709 
L 2253 4666 
z
" transform="scale(0.015625)"/>
       </defs>
       <use xlink:href="#DejaVuSans-17"/>
       <use xlink:href="#DejaVuSans-13" transform="translate(63.625 0)"/>
      </g>
     </g>
    </g>
    <g id="xtick_4">
     <g id="line2d_7">
      <path d="M 347.597514 241.599141 
L 347.597514 7.2 
" clip-path="url(#p7fd8ef23f8)" style="fill: none; stroke-dasharray: 2.96,1.28; stroke-dashoffset: 0; stroke: #7f7f7f; stroke-opacity: 0.6; stroke-width: 0.8"/>
     </g>
     <g id="line2d_8">
      <g>
       <use xlink:href="#mafd5153879" x="347.597514" y="241.599141" style="fill: #7f7f7f; stroke: #7f7f7f; stroke-width: 1.8"/>
      </g>
     </g>
     <g id="text_4">
      <!-- 60 -->
      <g style="fill: #7f7f7f" transform="translate(341.235014 256.196797) scale(0.1 -0.1)">
       <defs>
        <path id="DejaVuSans-19" d="M 2113 2584 
Q 1688 2584 1439 2293 
Q 1191 2003 1191 1497 
Q 1191 994 1439 701 
Q 1688 409 2113 409 
Q 2538 409 2786 701 
Q 3034 994 3034 1497 
Q 3034 2003 2786 2293 
Q 2538 2584 2113 2584 
z
M 3366 4563 
L 3366 3988 
Q 3128 4100 2886 4159 
Q 2644 4219 2406 4219 
Q 1781 4219 1451 3797 
Q 1122 3375 1075 2522 
Q 1259 2794 1537 2939 
Q 1816 3084 2150 3084 
Q 2853 3084 3261 2657 
Q 3669 2231 3669 1497 
Q 3669 778 3244 343 
Q 2819 -91 2113 -91 
Q 1303 -91 875 529 
Q 447 1150 447 2328 
Q 447 3434 972 4092 
Q 1497 4750 2381 4750 
Q 2619 4750 2861 4703 
Q 3103 4656 3366 4563 
z
" transform="scale(0.015625)"/>
       </defs>
       <use xlink:href="#DejaVuSans-19"/>
       <use xlink:href="#DejaVuSans-13" transform="translate(63.625 0)"/>
      </g>
     </g>
    </g>
    <g id="xtick_5">
     <g id="line2d_9">
      <path d="M 442.70973 241.599141 
L 442.70973 7.2 
" clip-path="url(#p7fd8ef23f8)" style="fill: none; stroke-dasharray: 2.96,1.28; stroke-dashoffset: 0; stroke: #7f7f7f; stroke-opacity: 0.6; stroke-width: 0.8"/>
     </g>
     <g id="line2d_10">
      <g>
       <use xlink:href="#mafd5153879" x="442.70973" y="241.599141" style="fill: #7f7f7f; stroke: #7f7f7f; stroke-width: 1.8"/>
      </g>
     </g>
     <g id="text_5">
      <!-- 80 -->
      <g style="fill: #7f7f7f" transform="translate(436.34723 256.196797) scale(0.1 -0.1)">
       <defs>
        <path id="DejaVuSans-1b" d="M 2034 2216 
Q 1584 2216 1326 1975 
Q 1069 1734 1069 1313 
Q 1069 891 1326 650 
Q 1584 409 2034 409 
Q 2484 409 2743 651 
Q 3003 894 3003 1313 
Q 3003 1734 2745 1975 
Q 2488 2216 2034 2216 
z
M 1403 2484 
Q 997 2584 770 2862 
Q 544 3141 544 3541 
Q 544 4100 942 4425 
Q 1341 4750 2034 4750 
Q 2731 4750 3128 4425 
Q 3525 4100 3525 3541 
Q 3525 3141 3298 2862 
Q 3072 2584 2669 2484 
Q 3125 2378 3379 2068 
Q 3634 1759 3634 1313 
Q 3634 634 3220 271 
Q 2806 -91 2034 -91 
Q 1263 -91 848 271 
Q 434 634 434 1313 
Q 434 1759 690 2068 
Q 947 2378 1403 2484 
z
M 1172 3481 
Q 1172 3119 1398 2916 
Q 1625 2713 2034 2713 
Q 2441 2713 2670 2916 
Q 2900 3119 2900 3481 
Q 2900 3844 2670 4047 
Q 2441 4250 2034 4250 
Q 1625 4250 1398 4047 
Q 1172 3844 1172 3481 
z
" transform="scale(0.015625)"/>
       </defs>
       <use xlink:href="#DejaVuSans-1b"/>
       <use xlink:href="#DejaVuSans-13" transform="translate(63.625 0)"/>
      </g>
     </g>
    </g>
    <g id="xtick_6">
     <g id="line2d_11">
      <path d="M 537.821946 241.599141 
L 537.821946 7.2 
" clip-path="url(#p7fd8ef23f8)" style="fill: none; stroke-dasharray: 2.96,1.28; stroke-dashoffset: 0; stroke: #7f7f7f; stroke-opacity: 0.6; stroke-width: 0.8"/>
     </g>
     <g id="line2d_12">
      <g>
       <use xlink:href="#mafd5153879" x="537.821946" y="241.599141" style="fill: #7f7f7f; stroke: #7f7f7f; stroke-width: 1.8"/>
      </g>
     </g>
     <g id="text_6">
      <!-- 100 -->
      <g style="fill: #7f7f7f" transform="translate(528.278196 256.196797) scale(0.1 -0.1)">
       <defs>
        <path id="DejaVuSans-14" d="M 794 531 
L 1825 531 
L 1825 4091 
L 703 3866 
L 703 4441 
L 1819 4666 
L 2450 4666 
L 2450 531 
L 3481 531 
L 3481 0 
L 794 0 
L 794 531 
z
" transform="scale(0.015625)"/>
       </defs>
       <use xlink:href="#DejaVuSans-14"/>
       <use xlink:href="#DejaVuSans-13" transform="translate(63.625 0)"/>
       <use xlink:href="#DejaVuSans-13" transform="translate(127.25 0)"/>
      </g>
     </g>
    </g>
    <g id="text_7">
     <!-- time [s] -->
     <g style="fill: #7f7f7f" transform="translate(278.710859 270.957422) scale(0.11 -0.11)">
      <defs>
       <path id="DejaVuSans-57" d="M 1172 4494 
L 1172 3500 
L 2356 3500 
L 2356 3053 
L 1172 3053 
L 1172 1153 
Q 1172 725 1289 603 
Q 1406 481 1766 481 
L 2356 481 
L 2356 0 
L 1766 0 
Q 1100 0 847 248 
Q 594 497 594 1153 
L 594 3053 
L 172 3053 
L 172 3500 
L 594 3500 
L 594 4494 
L 1172 4494 
z
" transform="scale(0.015625)"/>
       <path id="DejaVuSans-4c" d="M 603 3500 
L 1178 3500 
L 1178 0 
L 603 0 
L 603 3500 
z
M 603 4863 
L 1178 4863 
L 1178 4134 
L 603 4134 
L 603 4863 
z
" transform="scale(0.015625)"/>
       <path id="DejaVuSans-50" d="M 3328 2828 
Q 3544 3216 3844 3400 
Q 4144 3584 4550 3584 
Q 5097 3584 5394 3201 
Q 5691 2819 5691 2113 
L 5691 0 
L 5113 0 
L 5113 2094 
Q 5113 2597 4934 2840 
Q 4756 3084 4391 3084 
Q 3944 3084 3684 2787 
Q 3425 2491 3425 1978 
L 3425 0 
L 2847 0 
L 2847 2094 
Q 2847 2600 2669 2842 
Q 2491 3084 2119 3084 
Q 1678 3084 1418 2786 
Q 1159 2488 1159 1978 
L 1159 0 
L 581 0 
L 581 3500 
L 1159 3500 
L 1159 2956 
Q 1356 3278 1631 3431 
Q 1906 3584 2284 3584 
Q 2666 3584 2933 3390 
Q 3200 3197 3328 2828 
z
" transform="scale(0.015625)"/>
       <path id="DejaVuSans-48" d="M 3597 1894 
L 3597 1613 
L 953 1613 
Q 991 1019 1311 708 
Q 1631 397 2203 397 
Q 2534 397 2845 478 
Q 3156 559 3463 722 
L 3463 178 
Q 3153 47 2828 -22 
Q 2503 -91 2169 -91 
Q 1331 -91 842 396 
Q 353 884 353 1716 
Q 353 2575 817 3079 
Q 1281 3584 2069 3584 
Q 2775 3584 3186 3129 
Q 3597 2675 3597 1894 
z
M 3022 2063 
Q 3016 2534 2758 2815 
Q 2500 3097 2075 3097 
Q 1594 3097 1305 2825 
Q 1016 2553 972 2059 
L 3022 2063 
z
" transform="scale(0.015625)"/>
       <path id="DejaVuSans-3" transform="scale(0.015625)"/>
       <path id="DejaVuSans-3e" d="M 550 4863 
L 1875 4863 
L 1875 4416 
L 1125 4416 
L 1125 -397 
L 1875 -397 
L 1875 -844 
L 550 -844 
L 550 4863 
z
" transform="scale(0.015625)"/>
       <path id="DejaVuSans-56" d="M 2834 3397 
L 2834 2853 
Q 2591 2978 2328 3040 
Q 2066 3103 1784 3103 
Q 1356 3103 1142 2972 
Q 928 2841 928 2578 
Q 928 2378 1081 2264 
Q 1234 2150 1697 2047 
L 1894 2003 
Q 2506 1872 2764 1633 
Q 3022 1394 3022 966 
Q 3022 478 2636 193 
Q 2250 -91 1575 -91 
Q 1294 -91 989 -36 
Q 684 19 347 128 
L 347 722 
Q 666 556 975 473 
Q 1284 391 1588 391 
Q 1994 391 2212 530 
Q 2431 669 2431 922 
Q 2431 1156 2273 1281 
Q 2116 1406 1581 1522 
L 1381 1569 
Q 847 1681 609 1914 
Q 372 2147 372 2553 
Q 372 3047 722 3315 
Q 1072 3584 1716 3584 
Q 2034 3584 2315 3537 
Q 2597 3491 2834 3397 
z
" transform="scale(0.015625)"/>
       <path id="DejaVuSans-40" d="M 1947 4863 
L 1947 -844 
L 622 -844 
L 622 -397 
L 1369 -397 
L 1369 4416 
L 622 4416 
L 622 4863 
L 1947 4863 
z
" transform="scale(0.015625)"/>
      </defs>
      <use xlink:href="#DejaVuSans-57"/>
      <use xlink:href="#DejaVuSans-4c" transform="translate(39.203125 0)"/>
      <use xlink:href="#DejaVuSans-50" transform="translate(66.984375 0)"/>
      <use xlink:href="#DejaVuSans-48" transform="translate(164.390625 0)"/>
      <use xlink:href="#DejaVuSans-3" transform="translate(225.921875 0)"/>
      <use xlink:href="#DejaVuSans-3e" transform="translate(257.703125 0)"/>
      <use xlink:href="#DejaVuSans-56" transform="translate(296.71875 0)"/>
      <use xlink:href="#DejaVuSans-40" transform="translate(348.8125 0)"/>
     </g>
    </g>
   </g>
   <g id="matplotlib.axis_2">
    <g id="ytick_1">
     <g id="line2d_13">
      <path d="M 38.482813 203.956908 
L 561.6 203.956908 
" clip-path="url(#p7fd8ef23f8)" style="fill: none; stroke-dasharray: 2.96,1.28; stroke-dashoffset: 0; stroke: #7f7f7f; stroke-opacity: 0.6; stroke-width: 0.8"/>
     </g>
     <g id="line2d_14">
      <defs>
       <path id="m73900625f9" d="M 0 0 
L -3.5 0 
" style="stroke: #7f7f7f; stroke-width: 1.8"/>
      </defs>
      <g>
       <use xlink:href="#m73900625f9" x="38.482813" y="203.956908" style="fill: #7f7f7f; stroke: #7f7f7f; stroke-width: 1.8"/>
      </g>
     </g>
     <g id="text_8">
      <!-- −0.3 -->
      <g style="fill: #7f7f7f" transform="translate(7.2 207.755737) scale(0.1 -0.1)">
       <defs>
        <path id="DejaVuSans-c9c" d="M 678 2272 
L 4684 2272 
L 4684 1741 
L 678 1741 
L 678 2272 
z
" transform="scale(0.015625)"/>
        <path id="DejaVuSans-11" d="M 684 794 
L 1344 794 
L 1344 0 
L 684 0 
L 684 794 
z
" transform="scale(0.015625)"/>
        <path id="DejaVuSans-16" d="M 2597 2516 
Q 3050 2419 3304 2112 
Q 3559 1806 3559 1356 
Q 3559 666 3084 287 
Q 2609 -91 1734 -91 
Q 1441 -91 1130 -33 
Q 819 25 488 141 
L 488 750 
Q 750 597 1062 519 
Q 1375 441 1716 441 
Q 2309 441 2620 675 
Q 2931 909 2931 1356 
Q 2931 1769 2642 2001 
Q 2353 2234 1838 2234 
L 1294 2234 
L 1294 2753 
L 1863 2753 
Q 2328 2753 2575 2939 
Q 2822 3125 2822 3475 
Q 2822 3834 2567 4026 
Q 2313 4219 1838 4219 
Q 1578 4219 1281 4162 
Q 984 4106 628 3988 
L 628 4550 
Q 988 4650 1302 4700 
Q 1616 4750 1894 4750 
Q 2613 4750 3031 4423 
Q 3450 4097 3450 3541 
Q 3450 3153 3228 2886 
Q 3006 2619 2597 2516 
z
" transform="scale(0.015625)"/>
       </defs>
       <use xlink:href="#DejaVuSans-c9c"/>
       <use xlink:href="#DejaVuSans-13" transform="translate(83.796875 0)"/>
       <use xlink:href="#DejaVuSans-11" transform="translate(147.421875 0)"/>
       <use xlink:href="#DejaVuSans-16" transform="translate(179.203125 0)"/>
      </g>
     </g>
    </g>
    <g id="ytick_2">
     <g id="line2d_15">
      <path d="M 38.482813 163.536957 
L 561.6 163.536957 
" clip-path="url(#p7fd8ef23f8)" style="fill: none; stroke-dasharray: 2.96,1.28; stroke-dashoffset: 0; stroke: #7f7f7f; stroke-opacity: 0.6; stroke-width: 0.8"/>
     </g>
     <g id="line2d_16">
      <g>
       <use xlink:href="#m73900625f9" x="38.482813" y="163.536957" style="fill: #7f7f7f; stroke: #7f7f7f; stroke-width: 1.8"/>
      </g>
     </g>
     <g id="text_9">
      <!-- −0.2 -->
      <g style="fill: #7f7f7f" transform="translate(7.2 167.335785) scale(0.1 -0.1)">
       <use xlink:href="#DejaVuSans-c9c"/>
       <use xlink:href="#DejaVuSans-13" transform="translate(83.796875 0)"/>
       <use xlink:href="#DejaVuSans-11" transform="translate(147.421875 0)"/>
       <use xlink:href="#DejaVuSans-15" transform="translate(179.203125 0)"/>
      </g>
     </g>
    </g>
    <g id="ytick_3">
     <g id="line2d_17">
      <path d="M 38.482813 123.117006 
L 561.6 123.117006 
" clip-path="url(#p7fd8ef23f8)" style="fill: none; stroke-dasharray: 2.96,1.28; stroke-dashoffset: 0; stroke: #7f7f7f; stroke-opacity: 0.6; stroke-width: 0.8"/>
     </g>
     <g id="line2d_18">
      <g>
       <use xlink:href="#m73900625f9" x="38.482813" y="123.117006" style="fill: #7f7f7f; stroke: #7f7f7f; stroke-width: 1.8"/>
      </g>
     </g>
     <g id="text_10">
      <!-- −0.1 -->
      <g style="fill: #7f7f7f" transform="translate(7.2 126.915834) scale(0.1 -0.1)">
       <use xlink:href="#DejaVuSans-c9c"/>
       <use xlink:href="#DejaVuSans-13" transform="translate(83.796875 0)"/>
       <use xlink:href="#DejaVuSans-11" transform="translate(147.421875 0)"/>
       <use xlink:href="#DejaVuSans-14" transform="translate(179.203125 0)"/>
      </g>
     </g>
    </g>
    <g id="ytick_4">
     <g id="line2d_19">
      <path d="M 38.482813 82.697054 
L 561.6 82.697054 
" clip-path="url(#p7fd8ef23f8)" style="fill: none; stroke-dasharray: 2.96,1.28; stroke-dashoffset: 0; stroke: #7f7f7f; stroke-opacity: 0.6; stroke-width: 0.8"/>
     </g>
     <g id="line2d_20">
      <g>
       <use xlink:href="#m73900625f9" x="38.482813" y="82.697054" style="fill: #7f7f7f; stroke: #7f7f7f; stroke-width: 1.8"/>
      </g>
     </g>
     <g id="text_11">
      <!-- 0.0 -->
      <g style="fill: #7f7f7f" transform="translate(15.579688 86.495882) scale(0.1 -0.1)">
       <use xlink:href="#DejaVuSans-13"/>
       <use xlink:href="#DejaVuSans-11" transform="translate(63.625 0)"/>
       <use xlink:href="#DejaVuSans-13" transform="translate(95.40625 0)"/>
      </g>
     </g>
    </g>
    <g id="ytick_5">
     <g id="line2d_21">
      <path d="M 38.482813 42.277103 
L 561.6 42.277103 
" clip-path="url(#p7fd8ef23f8)" style="fill: none; stroke-dasharray: 2.96,1.28; stroke-dashoffset: 0; stroke: #7f7f7f; stroke-opacity: 0.6; stroke-width: 0.8"/>
     </g>
     <g id="line2d_22">
      <g>
       <use xlink:href="#m73900625f9" x="38.482813" y="42.277103" style="fill: #7f7f7f; stroke: #7f7f7f; stroke-width: 1.8"/>
      </g>
     </g>
     <g id="text_12">
      <!-- 0.1 -->
      <g style="fill: #7f7f7f" transform="translate(15.579688 46.075931) scale(0.1 -0.1)">
       <use xlink:href="#DejaVuSans-13"/>
       <use xlink:href="#DejaVuSans-11" transform="translate(63.625 0)"/>
       <use xlink:href="#DejaVuSans-14" transform="translate(95.40625 0)"/>
      </g>
     </g>
    </g>
   </g>
   <g id="line2d_23">
    <path d="M 62.260866 82.697054 
L 62.388858 88.733233 
L 62.800582 79.95147 
L 63.203213 81.167673 
L 63.414027 83.486343 
L 63.926787 80.818552 
L 64.192958 82.780763 
L 65.396198 83.195146 
L 65.842141 83.240403 
L 66.259596 81.852243 
L 66.639687 82.659662 
L 67.090385 83.285089 
L 67.450841 81.902538 
L 67.813796 82.477787 
L 68.601012 83.369963 
L 69.712092 81.867639 
L 70.072062 83.913895 
L 70.398104 82.248453 
L 70.741438 81.717101 
L 71.089228 83.866824 
L 71.725706 82.520597 
L 72.719534 79.672274 
L 73.978002 83.731456 
L 74.663701 81.385743 
L 75.003073 82.742462 
L 75.803485 83.481205 
L 76.131172 84.961421 
L 76.431134 81.522196 
L 77.087336 83.879046 
L 78.26758 83.083814 
L 81.016982 81.103016 
L 81.352093 82.846908 
L 82.535965 84.031976 
L 83.689097 82.023169 
L 84.074623 83.297257 
L 84.411324 81.32402 
L 84.745075 82.41822 
L 86.052547 82.56552 
L 86.465887 81.438296 
L 86.845486 82.023529 
L 87.560476 83.690919 
L 88.570863 81.585055 
L 88.884068 83.770302 
L 89.58886 82.257318 
L 89.992475 83.32172 
L 90.392822 82.233684 
L 91.216436 82.106741 
L 92.775794 84.824546 
L 93.92132 81.014848 
L 94.193907 83.401383 
L 94.802615 81.781373 
L 95.144946 81.973656 
L 95.871049 84.335419 
L 96.193337 82.376589 
L 98.726607 83.222667 
L 99.646727 81.685089 
L 100.047157 82.545782 
L 100.875739 83.635959 
L 101.932807 80.388909 
L 102.208685 81.725161 
L 102.947227 83.618101 
L 103.304508 82.983205 
L 104.475291 81.051728 
L 105.55516 84.50578 
L 106.686815 81.858824 
L 107.103316 83.055192 
L 107.528562 82.193231 
L 107.960985 82.273266 
L 108.350784 83.487712 
L 108.668886 80.822761 
L 109.372492 82.804442 
L 109.701426 84.678816 
L 110.333904 83.217708 
L 111.149361 81.406991 
L 111.474214 83.912015 
L 112.185156 83.069698 
L 113.024953 83.588112 
L 113.402645 82.077407 
L 114.166898 83.118761 
L 114.566111 82.829633 
L 114.8964 80.700592 
L 115.202778 82.233337 
L 115.57584 83.528353 
L 115.888677 80.971053 
L 116.195032 83.868788 
L 116.478262 81.380589 
L 117.364476 83.887993 
L 118.007581 80.613495 
L 118.295458 82.493448 
L 119.033607 81.848425 
L 119.397043 83.831144 
L 119.683658 80.937546 
L 119.942772 84.376992 
L 120.216688 82.442911 
L 120.525811 83.63295 
L 120.841771 81.568954 
L 121.142458 82.200253 
L 121.526664 81.324211 
L 121.891848 82.208793 
L 122.907918 83.194366 
L 123.373976 82.722032 
L 123.842681 82.171472 
L 124.265798 83.312378 
L 125.079312 82.707266 
L 128.104894 83.831635 
L 128.476325 81.960558 
L 128.828644 83.45022 
L 129.550239 83.001641 
L 129.917429 81.548939 
L 130.277592 83.251754 
L 130.642089 82.701559 
L 131.072908 82.247741 
L 131.510643 83.483616 
L 131.918707 82.619604 
L 132.284083 80.891674 
L 132.582662 83.925148 
L 135.455261 81.887369 
L 135.882342 83.482445 
L 136.272514 81.647655 
L 136.626082 83.064006 
L 136.956133 81.244052 
L 137.647135 81.370025 
L 138.718494 84.465848 
L 139.449838 82.441628 
L 139.898472 82.592043 
L 141.070399 82.291557 
L 141.471698 83.650773 
L 141.843664 83.349258 
L 143.076999 82.159393 
L 144.854498 83.389914 
L 145.155707 85.091665 
L 145.43747 82.846664 
L 146.199862 82.977012 
L 147.667746 82.86911 
L 148.157204 82.006206 
L 148.60601 82.340566 
L 149.511254 84.008505 
L 150.865568 80.555755 
L 151.782106 83.776454 
L 152.506634 82.516736 
L 153.505719 80.903925 
L 153.835738 82.434066 
L 154.653203 82.061475 
L 155.864924 84.182801 
L 156.208368 82.769368 
L 156.585054 81.419387 
L 156.941891 83.183332 
L 157.305413 82.01722 
L 157.37302 76.195835 
L 157.373074 120.775755 
L 157.373226 230.944634 
L 157.373364 17.854506 
L 158.23854 77.426809 
L 158.924569 75.547633 
L 159.088815 78.18063 
L 159.266734 75.699781 
L 159.615583 79.098984 
L 159.848097 80.211564 
L 160.112865 78.959266 
L 160.326767 76.445444 
L 160.982112 76.864313 
L 161.666067 79.851143 
L 161.901336 76.235248 
L 162.590075 77.216345 
L 162.823387 80.140503 
L 163.464167 79.090842 
L 163.768832 78.601382 
L 164.061626 81.447002 
L 164.920854 80.605481 
L 165.328937 81.784165 
L 165.833826 80.990279 
L 167.383444 79.423927 
L 168.90264 81.189436 
L 169.832053 81.103833 
L 170.210533 78.990647 
L 170.553346 80.983673 
L 170.982772 82.453348 
L 172.039609 79.092904 
L 172.401586 80.441659 
L 173.214007 79.982523 
L 174.00943 78.771937 
L 174.381337 79.337809 
L 175.74964 81.697292 
L 176.136633 80.676343 
L 176.519046 81.238191 
L 176.947027 81.491003 
L 177.285588 79.048639 
L 177.619975 83.289631 
L 179.327623 79.344245 
L 179.667609 80.738671 
L 180.466053 80.337421 
L 182.202186 82.704591 
L 182.717728 82.206219 
L 183.283954 82.570739 
L 184.06984 80.507938 
L 184.447906 82.007624 
L 185.38667 83.193557 
L 186.643939 81.512231 
L 187.084077 81.211043 
L 187.855107 80.285493 
L 188.196175 82.973645 
L 188.646265 80.774553 
L 189.079769 81.376367 
L 190.468878 82.942431 
L 191.477639 80.946279 
L 191.849296 81.551171 
L 192.649774 81.022409 
L 193.427224 84.124051 
L 193.808547 81.672813 
L 194.222494 83.795276 
L 195.057838 81.513229 
L 195.423893 83.773619 
L 195.835985 82.502209 
L 196.440949 83.191296 
L 196.986053 82.541091 
L 197.876139 81.951076 
L 199.164582 84.415259 
L 199.554847 83.288401 
L 199.881302 80.352656 
L 200.204052 82.730416 
L 200.595727 84.211492 
L 200.948683 82.790419 
L 201.383708 81.982691 
L 202.606948 84.330738 
L 203.788224 82.901443 
L 204.267032 83.421806 
L 205.602051 81.69434 
L 206.512718 83.019482 
L 206.955292 81.684767 
L 207.402766 83.219457 
L 209.28626 83.554777 
L 209.70423 84.350278 
L 210.481176 80.816732 
L 210.845668 83.035584 
L 211.5687 84.585558 
L 212.817376 81.513587 
L 213.165058 82.950389 
L 213.685341 82.690556 
L 215.908489 84.271813 
L 217.101339 82.115152 
L 217.541268 83.351546 
L 218.015915 82.9251 
L 219.036721 82.388134 
L 220.467466 83.247529 
L 221.854623 81.377842 
L 222.701719 80.979001 
L 223.130003 84.05907 
L 224.50578 82.475122 
L 225.455158 82.412438 
L 226.615757 84.233024 
L 227.781156 81.552904 
L 228.164452 83.283365 
L 229.388289 82.835645 
L 231.397736 82.00977 
L 232.721869 84.27744 
L 233.089675 81.595011 
L 233.483751 83.066103 
L 234.027374 82.415493 
L 234.491549 83.014147 
L 234.956143 83.63445 
L 236.258876 81.326624 
L 236.632297 83.037748 
L 237.137326 82.104756 
L 237.700471 82.846137 
L 238.027564 85.671628 
L 238.350364 83.429911 
L 238.872852 83.779317 
L 240.945383 81.01949 
L 241.780606 83.683713 
L 242.647523 83.130751 
L 243.010492 81.403268 
L 243.370623 83.600227 
L 245.091139 81.395258 
L 245.47091 84.384408 
L 245.84842 84.232437 
L 246.228444 82.159192 
L 246.677271 82.994594 
L 247.028452 84.816664 
L 247.376249 83.146649 
L 247.749148 81.940058 
L 248.120436 83.69716 
L 248.559766 83.524 
L 249.428893 81.335919 
L 250.816253 83.087525 
L 251.700211 81.906752 
L 252.8057 85.076801 
L 253.942146 81.259303 
L 255.519333 84.025345 
L 256.231812 81.246776 
L 256.952423 82.675456 
L 257.730704 85.225011 
L 258.091981 83.074843 
L 258.442652 81.564649 
L 258.79106 83.151514 
L 259.133778 85.031346 
L 259.47346 82.298567 
L 259.903715 83.41571 
L 260.372974 81.975005 
L 261.655351 81.814779 
L 262.037225 79.303062 
L 262.394635 82.202816 
L 265.40631 82.128723 
L 265.811086 83.900475 
L 266.597828 83.64935 
L 267.04503 83.696711 
L 267.460672 82.684734 
L 267.946509 83.479458 
L 269.345069 83.422139 
L 269.818411 81.738564 
L 270.254679 83.362816 
L 270.771373 82.125111 
L 271.337847 82.863207 
L 271.719612 83.869383 
L 272.099202 81.009217 
L 272.480264 83.152806 
L 272.897312 83.291174 
L 273.322605 81.284933 
L 273.734849 81.959543 
L 274.60933 82.217823 
L 274.99264 81.260938 
L 275.373238 84.944704 
L 276.165495 83.449786 
L 276.517307 81.398871 
L 277.308642 82.214426 
L 277.757796 81.464096 
L 278.182606 82.567792 
L 278.638711 82.07636 
L 279.022983 83.461978 
L 279.846104 83.155692 
L 280.349263 82.444929 
L 280.821824 83.808643 
L 281.270191 82.679494 
L 282.206611 82.955377 
L 282.554448 84.816949 
L 282.898968 81.611184 
L 283.275141 84.207878 
L 284.577432 81.462999 
L 285.015346 81.605649 
L 285.444664 84.216542 
L 285.835183 83.158632 
L 287.231675 81.894071 
L 288.554583 83.661404 
L 290.801426 81.977307 
L 291.762578 83.483349 
L 293.880529 81.663274 
L 294.336638 83.337852 
L 294.714165 82.996916 
L 295.095082 80.653833 
L 295.466419 83.4628 
L 295.906221 81.796413 
L 297.218626 83.298405 
L 299.001499 82.876779 
L 300.714209 81.065786 
L 301.494675 84.907512 
L 301.834934 83.320774 
L 302.170249 80.974253 
L 302.899815 81.651845 
L 303.333429 83.92115 
L 303.743434 81.179896 
L 305.025125 83.1678 
L 306.251282 81.791703 
L 307.05656 83.315332 
L 307.441822 82.644762 
L 307.829851 82.101134 
L 308.20119 82.537676 
L 308.967818 83.913083 
L 309.371591 82.271858 
L 309.840426 82.649759 
L 310.33735 82.634529 
L 310.741758 84.112187 
L 311.108747 82.814772 
L 311.899405 81.515024 
L 313.041505 84.86653 
L 313.412402 84.482128 
L 313.807917 84.23049 
L 314.234673 81.538692 
L 315.035114 81.776568 
L 315.901805 82.676919 
L 316.340164 81.072599 
L 317.147863 83.440205 
L 317.545292 81.290268 
L 318.384302 81.850383 
L 319.196807 83.95615 
L 320.742112 80.725814 
L 321.460566 83.653472 
L 322.246238 83.184442 
L 322.671841 82.323764 
L 323.965913 83.976512 
L 324.795692 82.283702 
L 325.211408 82.76629 
L 325.556404 84.821824 
L 325.898265 80.937776 
L 326.248473 80.779241 
L 326.980865 83.923062 
L 327.358813 83.351844 
L 328.171037 80.749214 
L 328.544153 83.026267 
L 328.918954 82.10996 
L 329.298681 80.880267 
L 329.685315 82.592232 
L 330.099592 83.533232 
L 330.477506 80.932082 
L 330.863793 83.741441 
L 331.237241 84.697158 
L 331.589497 84.206024 
L 331.988305 80.930291 
L 332.355894 83.423735 
L 333.509451 83.721751 
L 333.917125 83.316553 
L 334.265883 81.324536 
L 334.61129 82.274962 
L 334.992387 84.461006 
L 335.367212 82.328358 
L 337.517645 82.38185 
L 337.900968 84.459683 
L 338.279521 82.117346 
L 341.387755 83.803543 
L 341.746725 84.056483 
L 343.001416 81.996649 
L 343.458135 81.913873 
L 343.889256 83.256188 
L 344.314011 82.507678 
L 344.697258 80.604659 
L 345.043687 82.235518 
L 346.925738 82.984319 
L 347.303957 82.299436 
L 347.595892 81.731031 
L 347.596666 84.696039 
L 347.597447 39.72778 
L 347.678521 94.83288 
L 348.499921 85.213325 
L 349.193229 84.134314 
L 349.872384 87.404863 
L 350.21623 85.185749 
L 351.031024 86.431275 
L 351.395958 84.897547 
L 351.822712 86.004213 
L 352.222267 86.088177 
L 352.605394 83.793113 
L 353.178043 84.098061 
L 353.527294 86.032473 
L 353.872303 83.770167 
L 356.372028 82.607515 
L 356.715303 85.268392 
L 357.557558 84.055435 
L 357.969961 84.791392 
L 358.353191 82.216048 
L 358.786233 83.938524 
L 359.572648 84.58708 
L 360.480965 83.112762 
L 360.832619 85.253045 
L 361.179429 84.15553 
L 361.596032 81.887283 
L 361.998198 82.31281 
L 363.223102 84.600914 
L 364.469931 84.467228 
L 365.342931 82.428784 
L 366.520811 85.736697 
L 366.851711 82.644849 
L 367.768674 83.301215 
L 369.028329 82.996491 
L 369.374253 85.084815 
L 369.716456 82.285127 
L 370.132948 84.630423 
L 370.540693 82.50697 
L 371.052882 84.244216 
L 371.51559 84.080843 
L 372.863374 82.079712 
L 374.808251 84.517085 
L 375.16476 82.19651 
L 375.591621 83.14593 
L 376.119085 82.58408 
L 376.545238 83.390221 
L 377.415876 84.104644 
L 377.836557 81.389145 
L 378.235962 83.167445 
L 379.994562 83.592791 
L 381.380397 81.697838 
L 382.755885 83.533329 
L 383.155209 81.131012 
L 383.550757 82.430309 
L 384.858726 83.733406 
L 385.241526 84.50139 
L 385.604583 83.090678 
L 387.821865 83.589125 
L 388.144151 80.050869 
L 388.462574 82.679583 
L 389.315169 84.000022 
L 389.717713 82.889677 
L 390.600063 80.812089 
L 390.954999 82.546614 
L 391.868121 81.538569 
L 392.262892 83.683775 
L 392.679703 83.026558 
L 393.132844 81.902788 
L 393.571592 84.258925 
L 394.393528 83.224944 
L 394.828263 83.7705 
L 395.153475 80.387826 
L 395.844463 82.126981 
L 396.242445 81.177453 
L 396.636532 83.098682 
L 397.102203 81.887776 
L 399.613272 84.008543 
L 399.99494 82.135314 
L 400.443064 83.195276 
L 400.85939 84.183717 
L 401.235235 83.868101 
L 402.366851 80.383711 
L 403.231033 81.198087 
L 404.149074 82.916395 
L 404.606083 82.681911 
L 405.009692 81.839743 
L 405.873384 83.513115 
L 406.301467 83.123489 
L 407.262805 82.455245 
L 407.718388 84.208549 
L 408.136814 83.520248 
L 409.090063 83.504268 
L 409.771884 80.787377 
L 410.132975 82.553079 
L 411.073983 81.4758 
L 411.477412 83.333763 
L 411.921626 83.223527 
L 412.353671 81.303526 
L 412.767405 82.008271 
L 413.20833 82.107639 
L 413.544072 84.662466 
L 413.875823 83.16692 
L 414.35877 82.08265 
L 414.809726 83.368965 
L 416.645942 82.247211 
L 417.618376 83.090393 
L 418.979753 81.752997 
L 420.362847 83.966995 
L 420.744479 82.524948 
L 421.247653 83.520474 
L 423.093971 82.544901 
L 423.579852 83.160514 
L 424.082322 82.669815 
L 424.811985 79.926034 
L 425.166488 82.614658 
L 426.103882 82.087955 
L 426.560336 81.062802 
L 426.981119 83.662281 
L 427.813636 82.646497 
L 428.239907 81.84805 
L 428.663873 82.420613 
L 429.031432 83.873495 
L 429.396074 83.509239 
L 429.819484 82.184764 
L 430.27089 84.612757 
L 430.680588 84.166171 
L 431.083937 81.721521 
L 431.484234 82.949511 
L 431.873287 83.824033 
L 432.650632 80.668724 
L 433.942923 83.130259 
L 435.799464 82.713119 
L 436.77258 83.70983 
L 437.213174 83.438582 
L 437.545057 80.707816 
L 438.36849 82.055842 
L 442.190691 83.958155 
L 443.447919 82.466395 
L 445.047504 82.273064 
L 446.039422 83.451932 
L 446.440851 81.809928 
L 446.830058 83.868878 
L 447.197829 82.175031 
L 447.538989 84.970793 
L 448.257965 83.712205 
L 449.010919 82.462259 
L 449.484425 83.700733 
L 449.937076 81.204002 
L 450.781082 81.438729 
L 451.217039 82.687588 
L 451.669468 82.026745 
L 452.057269 80.50579 
L 452.411051 83.188185 
L 453.250839 82.982592 
L 454.440712 84.097981 
L 454.823024 81.867909 
L 455.242175 82.084402 
L 455.664091 84.27751 
L 456.065137 83.434623 
L 457.381024 81.516384 
L 458.689482 83.956513 
L 459.495036 81.301797 
L 459.859469 83.45539 
L 460.274746 83.022795 
L 460.728583 81.842575 
L 461.136069 82.414189 
L 461.546004 83.072008 
L 461.947344 82.46882 
L 463.676439 80.676384 
L 464.023875 81.72578 
L 466.528149 83.39871 
L 467.913783 81.995124 
L 468.31865 83.659401 
L 468.758514 82.991676 
L 469.155596 81.31093 
L 469.549637 82.164823 
L 470.410011 83.971642 
L 470.788299 81.510475 
L 471.188202 82.809667 
L 472.911767 84.511554 
L 473.303565 81.115708 
L 473.684528 83.154363 
L 474.078347 84.378114 
L 474.438198 83.144833 
L 475.242459 81.651798 
L 475.650339 82.62227 
L 476.027218 83.764285 
L 476.402125 82.764989 
L 476.740428 80.500927 
L 477.503564 81.961866 
L 477.931834 82.342054 
L 478.634151 84.607025 
L 479.000474 82.743635 
L 479.779639 81.774907 
L 480.190176 82.129267 
L 480.530703 84.506384 
L 480.867684 82.683224 
L 481.33604 82.589394 
L 481.69232 84.501306 
L 482.044985 83.743006 
L 482.893568 81.948021 
L 483.285168 82.406219 
L 483.724464 83.603104 
L 484.628641 83.249232 
L 485.007543 83.586522 
L 485.39196 81.190095 
L 486.177633 81.858446 
L 486.639419 81.187167 
L 487.058213 81.937255 
L 487.447508 83.861962 
L 487.832568 82.82606 
L 489.606129 82.925501 
L 490.481137 83.797336 
L 490.912549 81.695885 
L 491.337911 82.124359 
L 492.147546 83.144095 
L 492.614333 81.85198 
L 493.066998 83.60839 
L 493.526892 81.534271 
L 495.312687 83.610496 
L 496.211848 83.86583 
L 496.666756 81.420459 
L 497.482862 82.823347 
L 498.248818 80.615758 
L 498.606212 82.058086 
L 499.352949 83.850091 
L 499.742364 83.527798 
L 501.022704 82.41225 
L 501.374785 84.692131 
L 501.722711 81.853431 
L 502.111455 83.211898 
L 504.062496 82.983583 
L 504.870046 83.684077 
L 505.283871 81.405998 
L 505.687936 82.964274 
L 506.103023 83.047074 
L 506.581131 81.957374 
L 507.026933 82.186101 
L 507.430124 83.097872 
L 507.810369 81.775771 
L 508.218906 82.536288 
L 508.63552 81.629046 
L 509.032627 84.380405 
L 509.806897 83.251385 
L 510.68727 82.319722 
L 511.155289 83.556026 
L 511.561117 82.769528 
L 512.396927 82.355379 
L 512.870843 83.606683 
L 513.327416 81.73886 
L 514.205097 82.105417 
L 515.528706 82.655213 
L 518.096885 82.434919 
L 519.00101 84.277263 
L 519.368582 83.529619 
L 519.815047 81.994822 
L 520.247972 83.22482 
L 520.651237 83.704762 
L 521.055509 82.651123 
L 521.387044 80.213816 
L 521.714797 82.052307 
L 522.693072 82.19385 
L 523.048998 83.933999 
L 523.842326 83.354573 
L 525.114684 81.74247 
L 526.785614 83.851159 
L 527.191369 81.405386 
L 527.59954 82.00266 
L 528.986054 83.652924 
L 529.848635 82.461468 
L 530.29546 82.974985 
L 531.160427 82.424614 
L 532.517813 82.397826 
L 533.288391 84.548761 
L 534.472057 81.593502 
L 535.767487 82.980158 
L 536.186516 80.690333 
L 536.578859 82.083877 
L 537.41151 83.479029 
L 537.821946 82.854668 
" clip-path="url(#p7fd8ef23f8)" style="fill: none; stroke: #e41a1c; stroke-width: 2; stroke-linecap: square"/>
   </g>
   <g id="line2d_24">
    <path d="M 62.260866 82.697054 
L 62.388858 84.380133 
L 62.800582 82.061119 
L 63.203213 82.315237 
L 63.414027 82.94574 
L 63.926787 82.049143 
L 64.192958 82.535408 
L 68.208312 82.910464 
L 71.725706 82.734134 
L 72.719534 81.428553 
L 72.986251 82.368937 
L 78.69835 82.914109 
L 79.851836 82.703719 
L 80.660652 82.694803 
L 81.016982 82.201468 
L 81.723198 82.841082 
L 87.205534 82.638859 
L 88.244357 82.680856 
L 89.58886 82.327688 
L 90.807107 82.118223 
L 92.446677 82.706012 
L 93.663469 83.224828 
L 94.802615 82.3114 
L 95.536878 82.724626 
L 96.534727 82.697946 
L 105.195917 82.676262 
L 105.55516 83.289418 
L 106.234467 82.827702 
L 107.960985 82.467367 
L 108.350784 82.88472 
L 108.973437 82.231889 
L 112.185156 82.926338 
L 113.402645 82.626676 
L 114.566111 82.97092 
L 115.888677 82.109328 
L 117.01598 82.879832 
L 117.364476 83.163862 
L 117.706016 82.696639 
L 118.007581 82.055706 
L 118.653768 82.760413 
L 119.683658 82.025518 
L 120.525811 82.939334 
L 121.891848 82.107048 
L 125.079312 82.262709 
L 136.626082 82.726943 
L 137.647135 81.786623 
L 137.9985 82.211247 
L 141.843664 82.707978 
L 143.47152 82.359772 
L 144.854498 82.731572 
L 145.155707 83.431897 
L 145.766022 82.808234 
L 149.511254 83.617462 
L 151.157198 82.292941 
L 152.107251 83.122827 
L 152.506634 82.891272 
L 153.505719 81.905274 
L 153.835738 82.240017 
L 155.087585 81.959524 
L 156.208368 82.377792 
L 157.305413 81.970796 
L 157.37302 80.648728 
L 157.373074 91.527015 
L 157.373226 118.416887 
L 157.373364 66.419457 
L 158.23854 78.865145 
L 159.440159 75.663475 
L 159.615583 76.141335 
L 160.112865 75.501214 
L 161.421428 72.961588 
L 161.666067 72.93502 
L 162.590075 70.266196 
L 162.823387 70.745856 
L 164.920854 68.663357 
L 165.833826 68.301338 
L 168.119371 65.449641 
L 169.361046 65.211566 
L 171.658249 63.211377 
L 174.00943 60.015485 
L 176.519046 58.817026 
L 178.952695 57.774558 
L 180.466053 55.899811 
L 184.943958 55.367607 
L 185.790281 54.980299 
L 191.066514 53.377352 
L 192.649774 52.452523 
L 194.222494 53.503321 
L 197.876139 52.900417 
L 199.554847 53.443946 
L 199.881302 52.425807 
L 200.204052 53.008353 
L 200.595727 53.603173 
L 200.948683 53.269471 
L 202.253081 52.962867 
L 203.373192 53.540389 
L 211.224852 54.314574 
L 212.466386 54.589946 
L 213.685341 54.197668 
L 220.467466 55.334464 
L 222.701719 54.108204 
L 224.039494 54.82827 
L 226.195898 55.101113 
L 227.405758 55.992856 
L 228.671129 55.432595 
L 235.882883 55.504794 
L 237.137326 55.136152 
L 240.573504 55.355028 
L 241.335188 55.038289 
L 242.647523 55.68341 
L 243.010492 55.074733 
L 243.792405 55.703891 
L 245.091139 54.922711 
L 245.84842 56.09675 
L 246.228444 55.511572 
L 248.559766 56.45472 
L 249.428893 55.541078 
L 249.826279 56.066787 
L 251.700211 55.591203 
L 252.8057 57.075136 
L 253.942146 55.677393 
L 254.305547 55.88125 
L 255.873849 56.139963 
L 256.952423 55.8588 
L 257.730704 57.042803 
L 258.091981 56.576554 
L 258.442652 56.054767 
L 258.79106 56.506797 
L 259.903715 56.971153 
L 263.23747 54.924726 
L 271.719612 56.161013 
L 272.099202 55.21149 
L 272.480264 55.803955 
L 274.170672 55.364305 
L 275.731745 55.667314 
L 277.308642 55.264493 
L 278.638711 54.86374 
L 279.846104 55.406599 
L 281.752689 55.323707 
L 284.117638 55.632895 
L 285.015346 54.94077 
L 286.276408 55.521872 
L 288.139962 55.923959 
L 290.341447 56.051139 
L 290.801426 55.609593 
L 291.276769 56.136641 
L 292.960938 55.680084 
L 297.608642 55.814196 
L 299.001499 56.113217 
L 301.122634 55.887975 
L 301.494675 56.59458 
L 301.834934 56.293655 
L 302.899815 55.393236 
L 303.333429 56.156738 
L 303.743434 55.239661 
L 305.843723 55.378275 
L 307.05656 55.343362 
L 308.585726 55.454511 
L 309.840426 55.310628 
L 312.666725 55.885047 
L 313.807917 56.798821 
L 315.035114 55.772258 
L 317.94703 55.416152 
L 318.796159 55.596332 
L 319.196807 55.992683 
L 319.591575 55.46064 
L 321.819575 55.386123 
L 327.783123 55.655578 
L 329.298681 54.790569 
L 331.589497 56.106599 
L 331.988305 55.029339 
L 332.355894 55.7436 
L 333.917125 56.379296 
L 334.61129 55.885172 
L 334.992387 56.688416 
L 335.367212 56.117577 
L 337.517645 55.760197 
L 337.900968 56.535051 
L 338.279521 55.878145 
L 347.595892 54.977714 
L 347.596666 55.701768 
L 347.597447 44.721069 
L 347.678521 58.469913 
L 348.499921 56.914337 
L 351.031024 60.482917 
L 351.822712 61.267069 
L 353.527294 62.784497 
L 354.382283 62.584058 
L 364.021304 66.91039 
L 365.745929 67.438189 
L 366.185145 67.234554 
L 366.520811 68.313989 
L 367.276814 67.914373 
L 371.052882 69.177878 
L 372.863374 68.934629 
L 382.755885 70.781858 
L 384.030811 70.234626 
L 384.445877 69.90382 
L 384.858726 70.533422 
L 386.156278 70.758856 
L 387.411331 70.762348 
L 387.821865 71.112588 
L 388.144151 69.914977 
L 388.878289 70.721919 
L 390.209239 70.69176 
L 391.470409 70.389392 
L 392.679703 70.543084 
L 393.977286 70.475484 
L 394.828263 71.089967 
L 396.242445 69.616456 
L 396.636532 70.144339 
L 397.102203 69.693839 
L 400.443064 70.050048 
L 401.65626 70.434672 
L 403.231033 69.12798 
L 404.606083 69.545743 
L 405.009692 69.201534 
L 405.411399 69.687923 
L 409.090063 70.704463 
L 409.771884 69.580833 
L 410.132975 69.992547 
L 413.20833 69.299105 
L 413.544072 70.181229 
L 413.875823 69.878391 
L 415.319136 69.930743 
L 418.979753 69.157658 
L 421.247653 70.065807 
L 426.103882 69.066647 
L 427.400536 68.354321 
L 429.396074 69.026244 
L 429.819484 68.614817 
L 430.27089 69.552141 
L 431.873287 69.670923 
L 432.650632 68.360231 
L 433.02018 68.942054 
L 436.296153 69.452219 
L 437.213174 69.763994 
L 438.36849 68.989533 
L 497.863802 68.684267 
L 498.248818 68.079708 
L 498.96588 68.802296 
L 501.374785 69.835627 
L 501.722711 69.030139 
L 502.57259 69.421834 
L 510.68727 69.222322 
L 511.96944 69.485475 
L 515.926926 69.18256 
L 517.60388 69.163595 
L 518.597451 69.256691 
L 519.368582 69.742146 
L 519.815047 69.246225 
L 521.055509 69.661468 
L 522.207525 68.794938 
L 535.767487 69.161109 
L 536.186516 68.263756 
L 536.985216 68.887172 
L 537.821946 68.934134 
L 537.821946 68.934134 
" clip-path="url(#p7fd8ef23f8)" style="fill: none; stroke: #377eb8; stroke-width: 2; stroke-linecap: square"/>
   </g>
   <g id="patch_3">
    <path d="M 38.482813 241.599141 
L 38.482813 7.2 
" style="fill: none; stroke: #7f7f7f; stroke-width: 1.8; stroke-linejoin: miter; stroke-linecap: square"/>
   </g>
   <g id="patch_4">
    <path d="M 38.482813 241.599141 
L 561.6 241.599141 
" style="fill: none; stroke: #7f7f7f; stroke-width: 1.8; stroke-linejoin: miter; stroke-linecap: square"/>
   </g>
   <g id="legend_1">
    <g id="line2d_25">
     <path d="M 499.584375 20.298438 
L 509.584375 20.298438 
L 519.584375 20.298438 
" style="fill: none; stroke: #e41a1c; stroke-width: 2; stroke-linecap: square"/>
    </g>
    <g id="text_13">
     <!-- err 2 -->
     <g style="fill: #7f7f7f" transform="translate(527.584375 23.798438) scale(0.1 -0.1)">
      <defs>
       <path id="DejaVuSans-55" d="M 2631 2963 
Q 2534 3019 2420 3045 
Q 2306 3072 2169 3072 
Q 1681 3072 1420 2755 
Q 1159 2438 1159 1844 
L 1159 0 
L 581 0 
L 581 3500 
L 1159 3500 
L 1159 2956 
Q 1341 3275 1631 3429 
Q 1922 3584 2338 3584 
Q 2397 3584 2469 3576 
Q 2541 3569 2628 3553 
L 2631 2963 
z
" transform="scale(0.015625)"/>
      </defs>
      <use xlink:href="#DejaVuSans-48"/>
      <use xlink:href="#DejaVuSans-55" transform="translate(61.53125 0)"/>
      <use xlink:href="#DejaVuSans-55" transform="translate(100.890625 0)"/>
      <use xlink:href="#DejaVuSans-3" transform="translate(142 0)"/>
      <use xlink:href="#DejaVuSans-15" transform="translate(173.78125 0)"/>
     </g>
    </g>
    <g id="line2d_26">
     <path d="M 499.584375 35.299219 
L 509.584375 35.299219 
L 519.584375 35.299219 
" style="fill: none; stroke: #377eb8; stroke-width: 2; stroke-linecap: square"/>
    </g>
    <g id="text_14">
     <!-- pid 2 -->
     <g style="fill: #7f7f7f" transform="translate(527.584375 38.799219) scale(0.1 -0.1)">
      <defs>
       <path id="DejaVuSans-53" d="M 1159 525 
L 1159 -1331 
L 581 -1331 
L 581 3500 
L 1159 3500 
L 1159 2969 
Q 1341 3281 1617 3432 
Q 1894 3584 2278 3584 
Q 2916 3584 3314 3078 
Q 3713 2572 3713 1747 
Q 3713 922 3314 415 
Q 2916 -91 2278 -91 
Q 1894 -91 1617 61 
Q 1341 213 1159 525 
z
M 3116 1747 
Q 3116 2381 2855 2742 
Q 2594 3103 2138 3103 
Q 1681 3103 1420 2742 
Q 1159 2381 1159 1747 
Q 1159 1113 1420 752 
Q 1681 391 2138 391 
Q 2594 391 2855 752 
Q 3116 1113 3116 1747 
z
" transform="scale(0.015625)"/>
       <path id="DejaVuSans-47" d="M 2906 2969 
L 2906 4863 
L 3481 4863 
L 3481 0 
L 2906 0 
L 2906 525 
Q 2725 213 2448 61 
Q 2172 -91 1784 -91 
Q 1150 -91 751 415 
Q 353 922 353 1747 
Q 353 2572 751 3078 
Q 1150 3584 1784 3584 
Q 2172 3584 2448 3432 
Q 2725 3281 2906 2969 
z
M 947 1747 
Q 947 1113 1208 752 
Q 1469 391 1925 391 
Q 2381 391 2643 752 
Q 2906 1113 2906 1747 
Q 2906 2381 2643 2742 
Q 2381 3103 1925 3103 
Q 1469 3103 1208 2742 
Q 947 2381 947 1747 
z
" transform="scale(0.015625)"/>
      </defs>
      <use xlink:href="#DejaVuSans-53"/>
      <use xlink:href="#DejaVuSans-4c" transform="translate(63.484375 0)"/>
      <use xlink:href="#DejaVuSans-47" transform="translate(91.265625 0)"/>
      <use xlink:href="#DejaVuSans-3" transform="translate(154.75 0)"/>
      <use xlink:href="#DejaVuSans-15" transform="translate(186.53125 0)"/>
     </g>
    </g>
   </g>
  </g>
 </g>
 <defs>
  <clipPath id="p7fd8ef23f8">
   <rect x="38.482813" y="7.2" width="523.117187" height="234.399141"/>
  </clipPath>
 </defs>
</svg>
