<?xml version="1.0" encoding="utf-8" standalone="no"?>
<!DOCTYPE svg PUBLIC "-//W3C//DTD SVG 1.1//EN"
  "http://www.w3.org/Graphics/SVG/1.1/DTD/svg11.dtd">
<svg xmlns:xlink="http://www.w3.org/1999/xlink" width="568.8pt" height="280.8pt" viewBox="0 0 568.8 280.8" xmlns="http://www.w3.org/2000/svg" version="1.1">
 <metadata>
  <rdf:RDF xmlns:dc="http://purl.org/dc/elements/1.1/" xmlns:cc="http://creativecommons.org/ns#" xmlns:rdf="http://www.w3.org/1999/02/22-rdf-syntax-ns#">
   <cc:Work>
    <dc:type rdf:resource="http://purl.org/dc/dcmitype/StillImage"/>
    <dc:date>2026-06-19T18:43:08.654335</dc:date>
    <dc:format>image/svg+xml</dc:format>
    <dc:creator>
     <cc:Agent>
      <dc:title>Matplotlib v3.11.0, https://matplotlib.org/</dc:title>
     </cc:Agent>
    </dc:creator>
   </cc:Work>
  </rdf:RDF>
 </metadata>
 <defs>
  <style type="text/css">*{stroke-linejoin: round; stroke-linecap: butt}</style>
 </defs>
 <g id="figure_1">
  <g id="patch_1">
   <path d="M 0 280.8 
L 568.8 280.8 
L 568.8 0 
L 0 0 
L 0 280.8 
z
" style="fill: none"/>
  </g>
  <g id="axes_1">
   <g id="patch_2">
    <path d="M 44.845313 241.599141 
L 561.6 241.599141 
L 561.6 7.2 
L 44.845313 7.2 
L 44.845313 241.599141 
z
" style="fill: none"/>
   </g>
   <g id="matplotlib.axis_1">
    <g id="xtick_1">
     <g id="line2d_1">
      <path d="M 68.334162 241.599141 
L 68.334162 7.2 
" clip-path="url(#p77dd60322e)" style="fill: none; stroke-dasharray: 2.96,1.28; stroke-dashoffset: 0; stroke: #7f7f7f; stroke-opacity: 0.6; stroke-width: 0.8"/>
     </g>
     <g id="line2d_2">
      <defs>
       <path id="m1973b2327a" d="M 0 0 
L 0 3.5 
" style="stroke: #7f7f7f; stroke-width: 1.8"/>
      </defs>
      <g>
       <use xlink:href="#m1973b2327a" x="68.334162" y="241.599141" style="fill: #7f7f7f; stroke: #7f7f7f; stroke-width: 1.8"/>
      </g>
     </g>
     <g id="text_1">
      <!-- 0 -->
      <g style="fill: #7f7f7f" transform="translate(65.152912 256.196797) scale(0.1 -0.1)">
       <defs>
        <path id="DejaVuSans-13" d="M 2034 4250 
Q 1547 4250 1301 3770 
Q 1056 3291 1056 2328 
Q 1056 1369 1301 889 
Q 1547 409 2034 409 
Q 2525 409 2770 889 
Q 3016 1369 3016 2328 
Q 3016 3291 2770 3770 
Q 2525 4250 2034 4250 
z
M 2034 4750 
Q 2819 4750 3233 4129 
Q 3647 3509 3647 2328 
Q 3647 1150 3233 529 
Q 2819 -91 2034 -91 
Q 1250 -91 836 529 
Q 422 1150 422 2328 
Q 422 3509 836 4129 
Q 1250 4750 2034 4750 
z
" transform="scale(0.015625)"/>
       </defs>
       <use xlink:href="#DejaVuSans-13"/>
      </g>
     </g>
    </g>
    <g id="xtick_2">
     <g id="line2d_3">
      <path d="M 162.28956 241.599141 
L 162.28956 7.2 
" clip-path="url(#p77dd60322e)" style="fill: none; stroke-dasharray: 2.96,1.28; stroke-dashoffset: 0; stroke: #7f7f7f; stroke-opacity: 0.6; stroke-width: 0.8"/>
     </g>
     <g id="line2d_4">
      <g>
       <use xlink:href="#m1973b2327a" x="162.28956" y="241.599141" style="fill: #7f7f7f; stroke: #7f7f7f; stroke-width: 1.8"/>
      </g>
     </g>
     <g id="text_2">
      <!-- 20 -->
      <g style="fill: #7f7f7f" transform="translate(155.92706 256.196797) scale(0.1 -0.1)">
       <defs>
        <path id="DejaVuSans-15" d="M 1228 531 
L 3431 531 
L 3431 0 
L 469 0 
L 469 531 
Q 828 903 1448 1529 
Q 2069 2156 2228 2338 
Q 2531 2678 2651 2914 
Q 2772 3150 2772 3378 
Q 2772 3750 2511 3984 
Q 2250 4219 1831 4219 
Q 1534 4219 1204 4116 
Q 875 4013 500 3803 
L 500 4441 
Q 881 4594 1212 4672 
Q 1544 4750 1819 4750 
Q 2544 4750 2975 4387 
Q 3406 4025 3406 3419 
Q 3406 3131 3298 2873 
Q 3191 2616 2906 2266 
Q 2828 2175 2409 1742 
Q 1991 1309 1228 531 
z
" transform="scale(0.015625)"/>
       </defs>
       <use xlink:href="#DejaVuSans-15"/>
       <use xlink:href="#DejaVuSans-13" transform="translate(63.625 0)"/>
      </g>
     </g>
    </g>
    <g id="xtick_3">
     <g id="line2d_5">
      <path d="M 256.244957 241.599141 
L 256.244957 7.2 
" clip-path="url(#p77dd60322e)" style="fill: none; stroke-dasharray: 2.96,1.28; stroke-dashoffset: 0; stroke: #7f7f7f; stroke-opacity: 0.6; stroke-width: 0.8"/>
     </g>
     <g id="line2d_6">
      <g>
       <use xlink:href="#m1973b2327a" x="256.244957" y="241.599141" style="fill: #7f7f7f; stroke: #7f7f7f; stroke-width: 1.8"/>
      </g>
     </g>
     <g id="text_3">
      <!-- 40 -->
      <g style="fill: #7f7f7f" transform="translate(249.882457 256.196797) scale(0.1 -0.1)">
       <defs>
        <path id="DejaVuSans-17" d="M 2419 4116 
L 825 1625 
L 2419 1625 
L 2419 4116 
z
M 2253 4666 
L 3047 4666 
L 3047 1625 
L 3713 1625 
L 3713 1100 
L 3047 1100 
L 3047 0 
L 2419 0 
L 2419 1100 
L 313 1100 
L 313 1709 
L 2253 4666 
z
" transform="scale(0.015625)"/>
       </defs>
       <use xlink:href="#DejaVuSans-17"/>
       <use xlink:href="#DejaVuSans-13" transform="translate(63.625 0)"/>
      </g>
     </g>
    </g>
    <g id="xtick_4">
     <g id="line2d_7">
      <path d="M 350.200355 241.599141 
L 350.200355 7.2 
" clip-path="url(#p77dd60322e)" style="fill: none; stroke-dasharray: 2.96,1.28; stroke-dashoffset: 0; stroke: #7f7f7f; stroke-opacity: 0.6; stroke-width: 0.8"/>
     </g>
     <g id="line2d_8">
      <g>
       <use xlink:href="#m1973b2327a" x="350.200355" y="241.599141" style="fill: #7f7f7f; stroke: #7f7f7f; stroke-width: 1.8"/>
      </g>
     </g>
     <g id="text_4">
      <!-- 60 -->
      <g style="fill: #7f7f7f" transform="translate(343.837855 256.196797) scale(0.1 -0.1)">
       <defs>
        <path id="DejaVuSans-19" d="M 2113 2584 
Q 1688 2584 1439 2293 
Q 1191 2003 1191 1497 
Q 1191 994 1439 701 
Q 1688 409 2113 409 
Q 2538 409 2786 701 
Q 3034 994 3034 1497 
Q 3034 2003 2786 2293 
Q 2538 2584 2113 2584 
z
M 3366 4563 
L 3366 3988 
Q 3128 4100 2886 4159 
Q 2644 4219 2406 4219 
Q 1781 4219 1451 3797 
Q 1122 3375 1075 2522 
Q 1259 2794 1537 2939 
Q 1816 3084 2150 3084 
Q 2853 3084 3261 2657 
Q 3669 2231 3669 1497 
Q 3669 778 3244 343 
Q 2819 -91 2113 -91 
Q 1303 -91 875 529 
Q 447 1150 447 2328 
Q 447 3434 972 4092 
Q 1497 4750 2381 4750 
Q 2619 4750 2861 4703 
Q 3103 4656 3366 4563 
z
" transform="scale(0.015625)"/>
       </defs>
       <use xlink:href="#DejaVuSans-19"/>
       <use xlink:href="#DejaVuSans-13" transform="translate(63.625 0)"/>
      </g>
     </g>
    </g>
    <g id="xtick_5">
     <g id="line2d_9">
      <path d="M 444.155753 241.599141 
L 444.155753 7.2 
" clip-path="url(#p77dd60322e)" style="fill: none; stroke-dasharray: 2.96,1.28; stroke-dashoffset: 0; stroke: #7f7f7f; stroke-opacity: 0.6; stroke-width: 0.8"/>
     </g>
     <g id="line2d_10">
      <g>
       <use xlink:href="#m1973b2327a" x="444.155753" y="241.599141" style="fill: #7f7f7f; stroke: #7f7f7f; stroke-width: 1.8"/>
      </g>
     </g>
     <g id="text_5">
      <!-- 80 -->
      <g style="fill: #7f7f7f" transform="translate(437.793253 256.196797) scale(0.1 -0.1)">
       <defs>
        <path id="DejaVuSans-1b" d="M 2034 2216 
Q 1584 2216 1326 1975 
Q 1069 1734 1069 1313 
Q 1069 891 1326 650 
Q 1584 409 2034 409 
Q 2484 409 2743 651 
Q 3003 894 3003 1313 
Q 3003 1734 2745 1975 
Q 2488 2216 2034 2216 
z
M 1403 2484 
Q 997 2584 770 2862 
Q 544 3141 544 3541 
Q 544 4100 942 4425 
Q 1341 4750 2034 4750 
Q 2731 4750 3128 4425 
Q 3525 4100 3525 3541 
Q 3525 3141 3298 2862 
Q 3072 2584 2669 2484 
Q 3125 2378 3379 2068 
Q 3634 1759 3634 1313 
Q 3634 634 3220 271 
Q 2806 -91 2034 -91 
Q 1263 -91 848 271 
Q 434 634 434 1313 
Q 434 1759 690 2068 
Q 947 2378 1403 2484 
z
M 1172 3481 
Q 1172 3119 1398 2916 
Q 1625 2713 2034 2713 
Q 2441 2713 2670 2916 
Q 2900 3119 2900 3481 
Q 2900 3844 2670 4047 
Q 2441 4250 2034 4250 
Q 1625 4250 1398 4047 
Q 1172 3844 1172 3481 
z
" transform="scale(0.015625)"/>
       </defs>
       <use xlink:href="#DejaVuSans-1b"/>
       <use xlink:href="#DejaVuSans-13" transform="translate(63.625 0)"/>
      </g>
     </g>
    </g>
    <g id="xtick_6">
     <g id="line2d_11">
      <path d="M 538.111151 241.599141 
L 538.111151 7.2 
" clip-path="url(#p77dd60322e)" style="fill: none; stroke-dasharray: 2.96,1.28; stroke-dashoffset: 0; stroke: #7f7f7f; stroke-opacity: 0.6; stroke-width: 0.8"/>
     </g>
     <g id="line2d_12">
      <g>
       <use xlink:href="#m1973b2327a" x="538.111151" y="241.599141" style="fill: #7f7f7f; stroke: #7f7f7f; stroke-width: 1.8"/>
      </g>
     </g>
     <g id="text_6">
      <!-- 100 -->
      <g style="fill: #7f7f7f" transform="translate(528.567401 256.196797) scale(0.1 -0.1)">
       <defs>
        <path id="DejaVuSans-14" d="M 794 531 
L 1825 531 
L 1825 4091 
L 703 3866 
L 703 4441 
L 1819 4666 
L 2450 4666 
L 2450 531 
L 3481 531 
L 3481 0 
L 794 0 
L 794 531 
z
" transform="scale(0.015625)"/>
       </defs>
       <use xlink:href="#DejaVuSans-14"/>
       <use xlink:href="#DejaVuSans-13" transform="translate(63.625 0)"/>
       <use xlink:href="#DejaVuSans-13" transform="translate(127.25 0)"/>
      </g>
     </g>
    </g>
    <g id="text_7">
     <!-- time [s] -->
     <g style="fill: #7f7f7f" transform="translate(281.892109 270.957422) scale(0.11 -0.11)">
      <defs>
       <path id="DejaVuSans-57" d="M 1172 4494 
L 1172 3500 
L 2356 3500 
L 2356 3053 
L 1172 3053 
L 1172 1153 
Q 1172 725 1289 603 
Q 1406 481 1766 481 
L 2356 481 
L 2356 0 
L 1766 0 
Q 1100 0 847 248 
Q 594 497 594 1153 
L 594 3053 
L 172 3053 
L 172 3500 
L 594 3500 
L 594 4494 
L 1172 4494 
z
" transform="scale(0.015625)"/>
       <path id="DejaVuSans-4c" d="M 603 3500 
L 1178 3500 
L 1178 0 
L 603 0 
L 603 3500 
z
M 603 4863 
L 1178 4863 
L 1178 4134 
L 603 4134 
L 603 4863 
z
" transform="scale(0.015625)"/>
       <path id="DejaVuSans-50" d="M 3328 2828 
Q 3544 3216 3844 3400 
Q 4144 3584 4550 3584 
Q 5097 3584 5394 3201 
Q 5691 2819 5691 2113 
L 5691 0 
L 5113 0 
L 5113 2094 
Q 5113 2597 4934 2840 
Q 4756 3084 4391 3084 
Q 3944 3084 3684 2787 
Q 3425 2491 3425 1978 
L 3425 0 
L 2847 0 
L 2847 2094 
Q 2847 2600 2669 2842 
Q 2491 3084 2119 3084 
Q 1678 3084 1418 2786 
Q 1159 2488 1159 1978 
L 1159 0 
L 581 0 
L 581 3500 
L 1159 3500 
L 1159 2956 
Q 1356 3278 1631 3431 
Q 1906 3584 2284 3584 
Q 2666 3584 2933 3390 
Q 3200 3197 3328 2828 
z
" transform="scale(0.015625)"/>
       <path id="DejaVuSans-48" d="M 3597 1894 
L 3597 1613 
L 953 1613 
Q 991 1019 1311 708 
Q 1631 397 2203 397 
Q 2534 397 2845 478 
Q 3156 559 3463 722 
L 3463 178 
Q 3153 47 2828 -22 
Q 2503 -91 2169 -91 
Q 1331 -91 842 396 
Q 353 884 353 1716 
Q 353 2575 817 3079 
Q 1281 3584 2069 3584 
Q 2775 3584 3186 3129 
Q 3597 2675 3597 1894 
z
M 3022 2063 
Q 3016 2534 2758 2815 
Q 2500 3097 2075 3097 
Q 1594 3097 1305 2825 
Q 1016 2553 972 2059 
L 3022 2063 
z
" transform="scale(0.015625)"/>
       <path id="DejaVuSans-3" transform="scale(0.015625)"/>
       <path id="DejaVuSans-3e" d="M 550 4863 
L 1875 4863 
L 1875 4416 
L 1125 4416 
L 1125 -397 
L 1875 -397 
L 1875 -844 
L 550 -844 
L 550 4863 
z
" transform="scale(0.015625)"/>
       <path id="DejaVuSans-56" d="M 2834 3397 
L 2834 2853 
Q 2591 2978 2328 3040 
Q 2066 3103 1784 3103 
Q 1356 3103 1142 2972 
Q 928 2841 928 2578 
Q 928 2378 1081 2264 
Q 1234 2150 1697 2047 
L 1894 2003 
Q 2506 1872 2764 1633 
Q 3022 1394 3022 966 
Q 3022 478 2636 193 
Q 2250 -91 1575 -91 
Q 1294 -91 989 -36 
Q 684 19 347 128 
L 347 722 
Q 666 556 975 473 
Q 1284 391 1588 391 
Q 1994 391 2212 530 
Q 2431 669 2431 922 
Q 2431 1156 2273 1281 
Q 2116 1406 1581 1522 
L 1381 1569 
Q 847 1681 609 1914 
Q 372 2147 372 2553 
Q 372 3047 722 3315 
Q 1072 3584 1716 3584 
Q 2034 3584 2315 3537 
Q 2597 3491 2834 3397 
z
" transform="scale(0.015625)"/>
       <path id="DejaVuSans-40" d="M 1947 4863 
L 1947 -844 
L 622 -844 
L 622 -397 
L 1369 -397 
L 1369 4416 
L 622 4416 
L 622 4863 
L 1947 4863 
z
" transform="scale(0.015625)"/>
      </defs>
      <use xlink:href="#DejaVuSans-57"/>
      <use xlink:href="#DejaVuSans-4c" transform="translate(39.203125 0)"/>
      <use xlink:href="#DejaVuSans-50" transform="translate(66.984375 0)"/>
      <use xlink:href="#DejaVuSans-48" transform="translate(164.390625 0)"/>
      <use xlink:href="#DejaVuSans-3" transform="translate(225.921875 0)"/>
      <use xlink:href="#DejaVuSans-3e" transform="translate(257.703125 0)"/>
      <use xlink:href="#DejaVuSans-56" transform="translate(296.71875 0)"/>
      <use xlink:href="#DejaVuSans-40" transform="translate(348.8125 0)"/>
     </g>
    </g>
   </g>
   <g id="matplotlib.axis_2">
    <g id="ytick_1">
     <g id="line2d_13">
      <path d="M 44.845313 223.651764 
L 561.6 223.651764 
" clip-path="url(#p77dd60322e)" style="fill: none; stroke-dasharray: 2.96,1.28; stroke-dashoffset: 0; stroke: #7f7f7f; stroke-opacity: 0.6; stroke-width: 0.8"/>
     </g>
     <g id="line2d_14">
      <defs>
       <path id="m6369b48786" d="M 0 0 
L -3.5 0 
" style="stroke: #7f7f7f; stroke-width: 1.8"/>
      </defs>
      <g>
       <use xlink:href="#m6369b48786" x="44.845313" y="223.651764" style="fill: #7f7f7f; stroke: #7f7f7f; stroke-width: 1.8"/>
      </g>
     </g>
     <g id="text_8">
      <!-- −0.15 -->
      <g style="fill: #7f7f7f" transform="translate(7.2 227.450593) scale(0.1 -0.1)">
       <defs>
        <path id="DejaVuSans-c9c" d="M 678 2272 
L 4684 2272 
L 4684 1741 
L 678 1741 
L 678 2272 
z
" transform="scale(0.015625)"/>
        <path id="DejaVuSans-11" d="M 684 794 
L 1344 794 
L 1344 0 
L 684 0 
L 684 794 
z
" transform="scale(0.015625)"/>
        <path id="DejaVuSans-18" d="M 691 4666 
L 3169 4666 
L 3169 4134 
L 1269 4134 
L 1269 2991 
Q 1406 3038 1543 3061 
Q 1681 3084 1819 3084 
Q 2600 3084 3056 2656 
Q 3513 2228 3513 1497 
Q 3513 744 3044 326 
Q 2575 -91 1722 -91 
Q 1428 -91 1123 -41 
Q 819 9 494 109 
L 494 744 
Q 775 591 1075 516 
Q 1375 441 1709 441 
Q 2250 441 2565 725 
Q 2881 1009 2881 1497 
Q 2881 1984 2565 2268 
Q 2250 2553 1709 2553 
Q 1456 2553 1204 2497 
Q 953 2441 691 2322 
L 691 4666 
z
" transform="scale(0.015625)"/>
       </defs>
       <use xlink:href="#DejaVuSans-c9c"/>
       <use xlink:href="#DejaVuSans-13" transform="translate(83.796875 0)"/>
       <use xlink:href="#DejaVuSans-11" transform="translate(147.421875 0)"/>
       <use xlink:href="#DejaVuSans-14" transform="translate(179.203125 0)"/>
       <use xlink:href="#DejaVuSans-18" transform="translate(242.828125 0)"/>
      </g>
     </g>
    </g>
    <g id="ytick_2">
     <g id="line2d_15">
      <path d="M 44.845313 188.680711 
L 561.6 188.680711 
" clip-path="url(#p77dd60322e)" style="fill: none; stroke-dasharray: 2.96,1.28; stroke-dashoffset: 0; stroke: #7f7f7f; stroke-opacity: 0.6; stroke-width: 0.8"/>
     </g>
     <g id="line2d_16">
      <g>
       <use xlink:href="#m6369b48786" x="44.845313" y="188.680711" style="fill: #7f7f7f; stroke: #7f7f7f; stroke-width: 1.8"/>
      </g>
     </g>
     <g id="text_9">
      <!-- −0.10 -->
      <g style="fill: #7f7f7f" transform="translate(7.2 192.479539) scale(0.1 -0.1)">
       <use xlink:href="#DejaVuSans-c9c"/>
       <use xlink:href="#DejaVuSans-13" transform="translate(83.796875 0)"/>
       <use xlink:href="#DejaVuSans-11" transform="translate(147.421875 0)"/>
       <use xlink:href="#DejaVuSans-14" transform="translate(179.203125 0)"/>
       <use xlink:href="#DejaVuSans-13" transform="translate(242.828125 0)"/>
      </g>
     </g>
    </g>
    <g id="ytick_3">
     <g id="line2d_17">
      <path d="M 44.845313 153.709657 
L 561.6 153.709657 
" clip-path="url(#p77dd60322e)" style="fill: none; stroke-dasharray: 2.96,1.28; stroke-dashoffset: 0; stroke: #7f7f7f; stroke-opacity: 0.6; stroke-width: 0.8"/>
     </g>
     <g id="line2d_18">
      <g>
       <use xlink:href="#m6369b48786" x="44.845313" y="153.709657" style="fill: #7f7f7f; stroke: #7f7f7f; stroke-width: 1.8"/>
      </g>
     </g>
     <g id="text_10">
      <!-- −0.05 -->
      <g style="fill: #7f7f7f" transform="translate(7.2 157.508485) scale(0.1 -0.1)">
       <use xlink:href="#DejaVuSans-c9c"/>
       <use xlink:href="#DejaVuSans-13" transform="translate(83.796875 0)"/>
       <use xlink:href="#DejaVuSans-11" transform="translate(147.421875 0)"/>
       <use xlink:href="#DejaVuSans-13" transform="translate(179.203125 0)"/>
       <use xlink:href="#DejaVuSans-18" transform="translate(242.828125 0)"/>
      </g>
     </g>
    </g>
    <g id="ytick_4">
     <g id="line2d_19">
      <path d="M 44.845313 118.738604 
L 561.6 118.738604 
" clip-path="url(#p77dd60322e)" style="fill: none; stroke-dasharray: 2.96,1.28; stroke-dashoffset: 0; stroke: #7f7f7f; stroke-opacity: 0.6; stroke-width: 0.8"/>
     </g>
     <g id="line2d_20">
      <g>
       <use xlink:href="#m6369b48786" x="44.845313" y="118.738604" style="fill: #7f7f7f; stroke: #7f7f7f; stroke-width: 1.8"/>
      </g>
     </g>
     <g id="text_11">
      <!-- 0.00 -->
      <g style="fill: #7f7f7f" transform="translate(15.579688 122.537432) scale(0.1 -0.1)">
       <use xlink:href="#DejaVuSans-13"/>
       <use xlink:href="#DejaVuSans-11" transform="translate(63.625 0)"/>
       <use xlink:href="#DejaVuSans-13" transform="translate(95.40625 0)"/>
       <use xlink:href="#DejaVuSans-13" transform="translate(159.03125 0)"/>
      </g>
     </g>
    </g>
    <g id="ytick_5">
     <g id="line2d_21">
      <path d="M 44.845313 83.76755 
L 561.6 83.76755 
" clip-path="url(#p77dd60322e)" style="fill: none; stroke-dasharray: 2.96,1.28; stroke-dashoffset: 0; stroke: #7f7f7f; stroke-opacity: 0.6; stroke-width: 0.8"/>
     </g>
     <g id="line2d_22">
      <g>
       <use xlink:href="#m6369b48786" x="44.845313" y="83.76755" style="fill: #7f7f7f; stroke: #7f7f7f; stroke-width: 1.8"/>
      </g>
     </g>
     <g id="text_12">
      <!-- 0.05 -->
      <g style="fill: #7f7f7f" transform="translate(15.579688 87.566378) scale(0.1 -0.1)">
       <use xlink:href="#DejaVuSans-13"/>
       <use xlink:href="#DejaVuSans-11" transform="translate(63.625 0)"/>
       <use xlink:href="#DejaVuSans-13" transform="translate(95.40625 0)"/>
       <use xlink:href="#DejaVuSans-18" transform="translate(159.03125 0)"/>
      </g>
     </g>
    </g>
    <g id="ytick_6">
     <g id="line2d_23">
      <path d="M 44.845313 48.796496 
L 561.6 48.796496 
" clip-path="url(#p77dd60322e)" style="fill: none; stroke-dasharray: 2.96,1.28; stroke-dashoffset: 0; stroke: #7f7f7f; stroke-opacity: 0.6; stroke-width: 0.8"/>
     </g>
     <g id="line2d_24">
      <g>
       <use xlink:href="#m6369b48786" x="44.845313" y="48.796496" style="fill: #7f7f7f; stroke: #7f7f7f; stroke-width: 1.8"/>
      </g>
     </g>
     <g id="text_13">
      <!-- 0.10 -->
      <g style="fill: #7f7f7f" transform="translate(15.579688 52.595325) scale(0.1 -0.1)">
       <use xlink:href="#DejaVuSans-13"/>
       <use xlink:href="#DejaVuSans-11" transform="translate(63.625 0)"/>
       <use xlink:href="#DejaVuSans-14" transform="translate(95.40625 0)"/>
       <use xlink:href="#DejaVuSans-13" transform="translate(159.03125 0)"/>
      </g>
     </g>
    </g>
    <g id="ytick_7">
     <g id="line2d_25">
      <path d="M 44.845313 13.825443 
L 561.6 13.825443 
" clip-path="url(#p77dd60322e)" style="fill: none; stroke-dasharray: 2.96,1.28; stroke-dashoffset: 0; stroke: #7f7f7f; stroke-opacity: 0.6; stroke-width: 0.8"/>
     </g>
     <g id="line2d_26">
      <g>
       <use xlink:href="#m6369b48786" x="44.845313" y="13.825443" style="fill: #7f7f7f; stroke: #7f7f7f; stroke-width: 1.8"/>
      </g>
     </g>
     <g id="text_14">
      <!-- 0.15 -->
      <g style="fill: #7f7f7f" transform="translate(15.579688 17.624271) scale(0.1 -0.1)">
       <use xlink:href="#DejaVuSans-13"/>
       <use xlink:href="#DejaVuSans-11" transform="translate(63.625 0)"/>
       <use xlink:href="#DejaVuSans-14" transform="translate(95.40625 0)"/>
       <use xlink:href="#DejaVuSans-18" transform="translate(159.03125 0)"/>
      </g>
     </g>
    </g>
   </g>
   <g id="line2d_27">
    <path d="M 68.334162 118.738604 
L 68.38114 111.188144 
L 68.443187 120.99703 
L 69.230477 114.19534 
L 69.807671 121.24185 
L 70.494151 118.876268 
L 70.849914 121.638319 
L 71.180466 117.67915 
L 71.50675 120.043576 
L 71.839921 116.221386 
L 72.139798 120.449677 
L 72.429169 118.909521 
L 72.780075 121.553582 
L 73.111053 119.763667 
L 73.592243 119.724351 
L 73.958107 117.115556 
L 74.32197 120.220575 
L 74.668559 121.225422 
L 74.998024 117.898754 
L 75.718133 118.75865 
L 76.123688 119.716205 
L 76.536823 118.282014 
L 77.758318 115.952765 
L 78.912999 120.138882 
L 79.288107 118.086597 
L 80.219093 118.543853 
L 80.700686 119.940958 
L 81.143585 118.914955 
L 81.581708 117.528603 
L 82.590258 121.858049 
L 82.911457 116.932031 
L 83.579261 118.421262 
L 83.988651 118.651819 
L 84.357899 121.551079 
L 84.663795 116.701929 
L 84.986119 119.545325 
L 85.249211 112.934251 
L 86.069751 116.969068 
L 87.171112 119.377241 
L 87.532771 116.644904 
L 87.85606 120.75979 
L 88.18787 118.852 
L 88.856154 121.186092 
L 89.178287 117.315108 
L 89.849202 120.805305 
L 90.175178 121.307261 
L 90.460497 116.328184 
L 91.103969 116.771208 
L 91.71172 122.629958 
L 91.989956 120.588751 
L 93.140696 119.769051 
L 93.510826 116.237712 
L 93.85392 119.8822 
L 94.19301 119.526797 
L 94.552039 116.015672 
L 94.887195 120.156989 
L 95.20826 119.622604 
L 95.486267 113.942605 
L 96.123009 119.696495 
L 96.43161 115.402176 
L 97.146299 119.105052 
L 97.915975 121.30043 
L 98.922757 116.968065 
L 99.23061 118.861237 
L 99.623172 117.198346 
L 100.352329 115.863017 
L 101.704578 120.550834 
L 102.019732 118.668655 
L 102.828684 119.569725 
L 105.396265 118.415815 
L 106.77983 119.909859 
L 108.366711 115.586994 
L 108.680055 117.57531 
L 109.420761 117.256386 
L 109.830617 118.119861 
L 110.132873 122.788019 
L 110.886734 120.11304 
L 111.789372 118.686466 
L 112.170756 121.143031 
L 112.530749 118.256768 
L 113.454314 114.201969 
L 113.723374 116.731447 
L 114.423613 121.57023 
L 115.176937 120.088165 
L 115.592544 120.461173 
L 115.98997 119.891391 
L 116.43271 117.982775 
L 116.802524 120.991232 
L 117.16083 119.487656 
L 117.549206 117.243897 
L 118.347639 117.744966 
L 118.777399 117.348771 
L 119.614891 119.478812 
L 120.050013 119.050352 
L 120.457236 119.416898 
L 120.762867 115.152355 
L 121.052166 118.8488 
L 121.377748 121.499446 
L 121.674901 119.738821 
L 122.062171 117.083787 
L 122.788025 119.001868 
L 123.470919 115.174026 
L 123.766619 120.686729 
L 124.398609 119.7914 
L 125.547909 116.303224 
L 127.117792 121.917475 
L 127.430549 116.786654 
L 128.006194 122.242518 
L 128.286564 118.578742 
L 129.349722 116.700575 
L 130.824073 125.935221 
L 131.517454 116.20298 
L 132.052294 117.601182 
L 132.384043 117.306272 
L 133.582927 120.324604 
L 134.329545 117.169668 
L 134.704608 120.515336 
L 135.412165 118.251819 
L 135.812266 119.152068 
L 136.119697 114.662205 
L 136.403157 118.019285 
L 136.784076 120.56669 
L 137.13404 120.174504 
L 138.29926 118.206023 
L 139.250762 117.570432 
L 139.715719 119.666137 
L 140.15221 119.489302 
L 140.549534 116.973585 
L 141.286899 118.589981 
L 141.696551 117.819881 
L 142.111342 120.056261 
L 142.501571 118.401938 
L 142.9357 117.578487 
L 143.36646 119.633956 
L 143.788632 118.824409 
L 144.973873 117.0718 
L 145.370648 118.727834 
L 145.680669 114.473871 
L 146.328888 117.919349 
L 146.710632 120.642515 
L 147.067396 118.540871 
L 147.496171 116.863445 
L 149.25836 123.033197 
L 150.587863 116.686173 
L 150.841323 122.046308 
L 151.351767 117.696829 
L 151.672961 116.472305 
L 152.319454 119.869448 
L 152.704558 116.793798 
L 153.051188 117.025906 
L 153.416783 118.862004 
L 153.809097 116.83244 
L 154.193837 116.170366 
L 155.568715 119.980609 
L 155.94058 117.949949 
L 156.332719 119.921233 
L 156.716038 120.065518 
L 158.23374 115.84991 
L 158.961709 118.516506 
L 159.337339 116.386537 
L 159.67866 119.891196 
L 160.972438 119.308219 
L 162.061938 118.241738 
L 162.099809 121.245886 
L 162.286204 98.586244 
L 162.28954 100.170824 
L 162.289673 17.854506 
L 162.290133 144.367918 
L 163.183391 108.875835 
L 163.340457 110.726711 
L 163.512802 108.383579 
L 163.676956 109.98107 
L 163.830577 103.956251 
L 164.205611 112.20825 
L 164.590147 111.795036 
L 165.201313 106.49198 
L 165.790231 109.77451 
L 166.703958 114.317956 
L 166.478893 108.999398 
L 167.020149 113.232954 
L 167.869819 109.279681 
L 168.71559 116.023548 
L 169.048852 112.297561 
L 169.694553 116.308529 
L 170.10759 115.423984 
L 170.888434 112.702299 
L 171.233102 114.311365 
L 171.595052 115.743246 
L 171.998853 114.951443 
L 172.783574 114.682048 
L 173.174238 116.139288 
L 174.037675 115.558926 
L 174.857543 112.768564 
L 175.59461 113.29004 
L 177.457227 113.538052 
L 177.848799 112.672995 
L 178.646769 115.499961 
L 179.107178 114.732752 
L 179.939278 114.359361 
L 180.711325 119.638924 
L 182.250562 113.785599 
L 182.632464 113.46629 
L 183.467905 117.979134 
L 183.916253 115.437159 
L 184.341122 116.774128 
L 184.783381 118.194317 
L 185.443996 117.618491 
L 187.239889 115.996309 
L 188.792128 120.342001 
L 189.141507 117.010362 
L 189.570268 117.284212 
L 190.003392 118.960608 
L 190.362484 115.636279 
L 190.71704 116.003575 
L 191.106329 119.310694 
L 191.570412 118.28583 
L 192.568688 119.411016 
L 193.005272 116.04735 
L 193.825753 116.490465 
L 194.254995 117.97034 
L 194.624515 115.485072 
L 194.989958 117.636156 
L 197.440359 117.699617 
L 197.829348 119.756695 
L 198.216842 118.761836 
L 198.766091 118.331136 
L 199.521351 118.502318 
L 199.893138 116.04673 
L 200.261545 120.463488 
L 200.658001 118.01989 
L 201.213138 118.709207 
L 201.572531 115.983482 
L 201.928929 116.51618 
L 202.32788 122.550858 
L 203.095588 120.370154 
L 203.552718 117.73863 
L 204.000688 120.278145 
L 204.495432 119.47973 
L 204.978798 120.673443 
L 205.421532 119.15234 
L 206.606443 118.860032 
L 207.505633 118.189225 
L 207.961863 120.885967 
L 208.377735 117.872829 
L 208.79478 120.408247 
L 210.037881 117.198667 
L 210.460237 121.078188 
L 210.894924 117.722388 
L 211.304759 116.905261 
L 212.462445 121.237399 
L 213.761154 118.420176 
L 214.140778 120.996552 
L 214.516673 118.377362 
L 214.858422 115.508405 
L 215.197262 119.362638 
L 215.660484 116.067006 
L 216.537464 119.535594 
L 216.9732 117.825611 
L 218.050337 121.745266 
L 218.837937 116.552736 
L 219.709902 117.759492 
L 221.073121 120.816902 
L 221.486853 120.274812 
L 222.76492 117.572165 
L 223.614155 120.892424 
L 223.987962 118.698942 
L 224.836986 116.779076 
L 225.244708 117.201075 
L 226.077026 120.977911 
L 226.446789 119.723078 
L 227.318465 121.837314 
L 227.693766 117.821811 
L 228.024896 123.756575 
L 228.35146 120.432677 
L 228.810276 119.609664 
L 229.197952 121.368131 
L 229.966803 115.347501 
L 230.326793 119.208137 
L 230.819367 117.642884 
L 231.434849 118.647365 
L 232.043113 118.356396 
L 233.668552 122.183784 
L 234.452074 116.714347 
L 234.811649 117.933247 
L 235.268175 116.871226 
L 236.126726 120.232075 
L 236.509231 117.954551 
L 237.015259 118.46146 
L 237.389793 120.71775 
L 237.761554 120.045472 
L 238.574972 117.280492 
L 238.954056 118.763705 
L 239.342452 120.311731 
L 239.728969 115.896882 
L 240.115323 120.06053 
L 241.361296 117.472801 
L 243.269712 120.349277 
L 244.561971 116.155321 
L 245.919979 119.349448 
L 246.406791 119.19625 
L 246.773278 116.671579 
L 247.137107 118.807905 
L 248.395488 120.873591 
L 249.75072 117.310211 
L 250.199676 117.438352 
L 250.652744 116.4679 
L 252.00973 119.633693 
L 253.35332 116.684164 
L 254.681319 120.194137 
L 255.587043 117.799854 
L 255.997482 118.733565 
L 256.438022 119.959499 
L 257.225451 117.450286 
L 257.616008 121.744458 
L 257.994748 116.71105 
L 258.409936 120.491876 
L 258.822967 120.627829 
L 259.224879 116.49715 
L 259.620501 122.964351 
L 259.99477 119.941069 
L 261.283388 116.562828 
L 261.648973 121.257456 
L 262.03152 116.05289 
L 263.292604 120.172892 
L 263.677768 117.147618 
L 264.112087 117.986009 
L 265.321863 119.28789 
L 265.77107 116.162878 
L 266.183715 118.706132 
L 266.602134 118.450343 
L 267.476521 120.976305 
L 267.855226 118.883775 
L 268.26244 118.554942 
L 268.673071 120.872086 
L 269.523052 120.409374 
L 269.98546 120.882238 
L 271.597787 112.70016 
L 272.303168 120.081395 
L 272.674542 116.512982 
L 273.086901 120.712049 
L 273.938654 119.314718 
L 274.303721 116.227369 
L 275.103989 117.136169 
L 276.439876 120.057222 
L 277.7827 119.77771 
L 278.910149 115.481242 
L 280.022894 121.922056 
L 280.387095 115.307003 
L 280.740532 115.540058 
L 281.099961 122.10092 
L 281.830382 119.247674 
L 282.631743 118.569743 
L 283.049855 122.1552 
L 284.247163 115.196161 
L 286.209736 122.973376 
L 286.565288 117.054909 
L 287.324283 118.618562 
L 287.70662 121.306601 
L 288.07153 118.578172 
L 289.232697 116.063982 
L 289.601722 116.237887 
L 290.364846 121.167984 
L 290.736868 119.320542 
L 291.075653 115.76478 
L 291.41161 121.789419 
L 291.766699 121.894098 
L 292.131348 124.200087 
L 293.606459 115.864176 
L 293.943696 117.138421 
L 294.352298 115.441927 
L 294.743536 116.137144 
L 295.113741 119.772134 
L 295.898787 117.655345 
L 296.277086 115.767067 
L 297.416921 120.893207 
L 297.778284 117.82553 
L 298.113831 122.835254 
L 298.444944 118.37828 
L 299.692054 120.292913 
L 301.335183 114.485834 
L 302.95033 120.702371 
L 303.719944 116.786836 
L 304.110612 119.901865 
L 304.575332 118.848278 
L 305.579703 119.410821 
L 305.988262 118.444839 
L 306.401076 116.742782 
L 306.787407 117.679243 
L 307.196046 118.815228 
L 307.609354 116.857745 
L 308.034107 118.701398 
L 308.514186 119.176474 
L 308.971622 117.734136 
L 309.783309 117.346429 
L 310.233046 120.108156 
L 311.095456 116.680144 
L 312.287431 121.451418 
L 313.041211 118.480476 
L 313.433575 121.129757 
L 313.842382 117.608268 
L 314.278399 120.280566 
L 315.385412 116.09731 
L 316.088963 121.363076 
L 316.428178 118.752949 
L 317.5939 117.300187 
L 318.0347 119.799193 
L 318.49187 119.65956 
L 318.937637 117.282154 
L 319.382701 119.518488 
L 319.778024 121.41507 
L 320.140542 118.81108 
L 321.365678 117.063334 
L 322.52929 119.245553 
L 323.039659 119.823313 
L 323.769288 116.062201 
L 324.145717 117.591906 
L 324.494922 120.750404 
L 324.841526 115.962335 
L 325.219002 119.182254 
L 325.600206 115.920538 
L 325.959569 117.131248 
L 326.291831 121.571379 
L 326.620652 119.625781 
L 327.062951 117.435681 
L 327.505913 119.936498 
L 327.911917 120.725108 
L 329.118943 116.169937 
L 329.501905 121.12787 
L 329.915737 116.089553 
L 330.330934 118.934764 
L 330.742031 117.155077 
L 331.11202 119.359295 
L 331.940973 120.417872 
L 332.26959 115.195178 
L 332.594375 118.368454 
L 332.935809 121.707719 
L 333.274253 116.883183 
L 333.659963 119.802255 
L 334.061397 120.10265 
L 334.922763 117.479505 
L 335.324272 119.146826 
L 336.112867 114.999767 
L 336.455313 118.357004 
L 338.073887 121.902742 
L 338.474383 118.761286 
L 338.903631 120.199268 
L 339.372814 119.977193 
L 339.77743 121.990307 
L 340.142716 116.913749 
L 340.949606 118.033217 
L 341.335752 118.484784 
L 341.670275 122.494397 
L 342.001482 117.983313 
L 342.384417 119.115344 
L 343.219144 117.799263 
L 343.677822 117.948019 
L 344.077019 119.182524 
L 344.886573 114.884146 
L 345.259376 116.983722 
L 347.241659 122.508037 
L 348.009534 116.770901 
L 348.384577 119.229685 
L 348.777118 117.919439 
L 349.22099 118.978776 
L 349.668896 120.923241 
L 350.160067 108.059776 
L 350.200295 119.515743 
L 350.200557 230.944634 
L 350.211183 90.731467 
L 351.043526 123.409903 
L 351.726104 126.912306 
L 352.063965 125.892802 
L 352.806842 120.683958 
L 354.002317 121.166748 
L 354.838688 124.83258 
L 355.186615 121.674113 
L 355.624203 122.565726 
L 356.406501 123.936127 
L 356.749813 119.64828 
L 358.261067 124.906346 
L 358.605121 119.637645 
L 359.129303 119.822606 
L 360.44644 123.466252 
L 360.785512 119.143655 
L 361.495771 120.382035 
L 361.966304 119.298313 
L 362.7607 123.019424 
L 363.135479 119.687113 
L 363.7028 120.664376 
L 364.930992 123.598414 
L 366.133362 117.982234 
L 366.519056 118.801605 
L 366.879756 121.54116 
L 367.236832 118.178187 
L 367.706291 121.221203 
L 368.160323 120.372279 
L 368.494999 124.4007 
L 368.825965 119.442254 
L 369.207972 117.42079 
L 370.006352 118.552889 
L 371.195258 122.840542 
L 371.567451 119.180236 
L 372.123568 120.027775 
L 373.833559 119.622451 
L 374.322592 120.315654 
L 375.577099 116.16351 
L 375.918309 118.394707 
L 376.434637 118.907901 
L 376.774888 122.454467 
L 377.111307 121.792759 
L 377.487898 119.102147 
L 378.084139 119.470207 
L 379.242509 121.614108 
L 379.655336 117.934105 
L 380.113136 119.086091 
L 381.844963 118.775957 
L 384.83587 118.329534 
L 385.202489 116.215121 
L 385.566575 118.787799 
L 387.203667 117.999541 
L 388.072384 120.979705 
L 388.45091 118.832274 
L 388.900368 118.04062 
L 389.317391 118.735748 
L 389.665687 121.921625 
L 390.010629 118.453385 
L 391.410523 118.894537 
L 391.897377 118.140218 
L 392.230778 122.666765 
L 392.560085 119.838767 
L 392.90109 116.273468 
L 393.238989 118.701796 
L 393.966788 121.737639 
L 394.747148 117.009692 
L 395.137725 118.499859 
L 396.76498 120.214101 
L 397.196669 117.034419 
L 397.642682 118.167363 
L 398.667482 118.274939 
L 399.850921 119.212161 
L 400.615124 119.780709 
L 401.447702 115.257758 
L 401.808625 118.846413 
L 402.272036 116.920281 
L 404.201121 120.134115 
L 404.628011 119.884744 
L 405.542833 121.017431 
L 406.969718 117.487516 
L 407.814416 119.861795 
L 409.460751 116.221681 
L 410.221943 120.481204 
L 410.573062 119.049095 
L 411.275997 115.74936 
L 411.650372 117.678935 
L 412.142102 119.200778 
L 412.609054 118.227282 
L 413.087791 118.490718 
L 413.57394 117.601653 
L 414.051905 119.242474 
L 414.617837 118.974443 
L 415.153638 119.105972 
L 416.334675 116.522365 
L 417.455773 122.86812 
L 417.817296 118.242506 
L 418.245444 118.489523 
L 418.677259 121.225104 
L 419.098176 118.50225 
L 419.626708 118.689167 
L 420.042393 117.56151 
L 420.456045 118.227855 
L 421.47388 119.005489 
L 422.017769 117.63867 
L 422.512606 119.71525 
L 422.866315 116.038369 
L 423.216206 117.709135 
L 423.564328 121.056102 
L 423.909676 114.921094 
L 424.250257 120.681022 
L 424.615527 119.183398 
L 425.531122 119.518818 
L 426.864497 116.489278 
L 427.23398 120.050951 
L 427.656151 117.296733 
L 429.366539 120.890865 
L 430.509964 115.501788 
L 431.847044 119.646215 
L 433.12903 116.53469 
L 435.286435 124.360569 
L 435.631078 118.145407 
L 436.400208 119.157367 
L 437.297224 118.459217 
L 437.661887 121.153332 
L 438.024206 116.661732 
L 439.273445 118.00853 
L 440.130628 115.893631 
L 441.681831 120.095543 
L 442.087081 116.337759 
L 442.479156 119.567585 
L 442.914638 119.458115 
L 443.372649 118.01314 
L 444.122724 121.199085 
L 444.955871 117.145708 
L 446.17108 120.388656 
L 447.733918 115.630519 
L 449.184642 119.726796 
L 449.614438 119.087165 
L 450.051856 116.489072 
L 450.464982 118.061856 
L 450.871391 120.463448 
L 451.237812 118.042074 
L 452.69414 119.720597 
L 453.977666 120.735962 
L 455.236676 116.978297 
L 456.427819 120.549316 
L 457.270843 116.123728 
L 457.633442 118.625448 
L 458.052049 117.143614 
L 458.518086 117.733858 
L 458.841678 122.761878 
L 459.161436 115.496985 
L 459.488928 118.593296 
L 460.66666 121.708726 
L 461.03328 121.459512 
L 462.204344 117.367454 
L 462.612211 118.434324 
L 463.086112 119.912079 
L 463.534066 117.381005 
L 464.008702 118.604923 
L 464.550916 118.480423 
L 465.040571 117.2888 
L 465.498747 117.994479 
L 466.000399 118.359773 
L 466.486285 117.375367 
L 466.960212 118.600202 
L 467.732602 118.513751 
L 468.088156 121.43739 
L 468.440309 117.23168 
L 468.839722 118.081969 
L 469.277877 117.410652 
L 469.708848 117.349332 
L 470.11052 119.2729 
L 470.525442 116.324873 
L 470.947216 120.880373 
L 471.788531 120.3952 
L 472.16262 122.843524 
L 472.505947 122.585729 
L 472.876937 119.930166 
L 473.6007 120.380969 
L 474.489763 120.446645 
L 474.920668 120.901939 
L 475.736443 116.157767 
L 476.49519 116.97693 
L 476.938862 119.094636 
L 477.447785 118.170739 
L 478.698769 116.548675 
L 479.122709 116.543259 
L 479.525809 119.695199 
L 480.416198 119.483734 
L 480.88752 117.10991 
L 481.322707 119.304977 
L 481.670586 119.013799 
L 482.038068 122.866611 
L 482.395294 120.568326 
L 483.694998 117.856067 
L 484.144718 120.277714 
L 484.542446 116.946276 
L 486.127285 120.362689 
L 486.939371 117.60736 
L 487.353597 120.9744 
L 487.763137 119.724228 
L 489.102918 116.752575 
L 489.524261 121.348875 
L 489.916086 119.485933 
L 491.307571 117.865803 
L 492.642071 120.991621 
L 493.941745 115.698817 
L 494.338082 119.12082 
L 495.059591 118.460364 
L 495.499897 116.113041 
L 496.300567 120.791933 
L 496.671222 116.935142 
L 497.559704 117.673006 
L 499.036838 116.89576 
L 500.251079 121.447508 
L 500.649517 116.944804 
L 501.046155 118.828748 
L 501.528292 120.365096 
L 501.965087 117.265829 
L 502.414956 121.662875 
L 502.828737 117.487651 
L 503.951425 121.573445 
L 504.293204 119.039043 
L 505.278272 118.634407 
L 505.768577 119.354007 
L 506.230351 117.072452 
L 506.672278 119.954004 
L 507.010419 115.135258 
L 507.747903 115.901738 
L 508.967873 121.309273 
L 510.318685 118.276554 
L 511.079414 120.592509 
L 511.491139 118.54081 
L 512.029849 120.285153 
L 512.526531 119.873586 
L 512.985744 116.974988 
L 513.404551 117.942111 
L 514.165092 121.512986 
L 514.542298 116.830997 
L 515.380579 117.006999 
L 515.835967 117.533833 
L 516.274365 120.693027 
L 517.111968 120.294319 
L 517.563484 118.255341 
L 518.45069 118.494462 
L 519.8709 119.331655 
L 520.814832 116.821753 
L 521.232264 121.287211 
L 522.044377 121.000715 
L 522.463628 120.238247 
L 523.323425 116.439069 
L 523.712469 117.859738 
L 524.164952 118.17957 
L 524.560882 116.678522 
L 525.898561 120.762405 
L 526.327027 116.961744 
L 526.776539 119.100638 
L 527.186059 120.075896 
L 528.423246 114.689869 
L 528.722053 124.264441 
L 529.343802 117.460508 
L 531.819913 121.480303 
L 532.97229 114.449461 
L 533.323007 121.847769 
L 534.098704 120.776608 
L 534.511702 116.270186 
L 534.916886 119.635017 
L 535.324349 120.69378 
L 535.705094 119.9727 
L 536.085005 117.580974 
L 536.461977 120.001118 
L 536.840046 122.564695 
L 537.185487 120.000523 
L 538.111151 118.188888 
L 538.111151 118.188888 
" clip-path="url(#p77dd60322e)" style="fill: none; stroke: #e41a1c; stroke-width: 2; stroke-linecap: square"/>
   </g>
   <g id="line2d_28">
    <path d="M 68.334162 118.738604 
L 68.38114 116.758291 
L 68.443187 119.206217 
L 69.230477 116.866827 
L 70.849914 119.297566 
L 71.839921 117.672886 
L 72.780075 119.595157 
L 73.111053 119.298379 
L 76.123688 120.001646 
L 78.536147 118.347234 
L 78.912999 119.020896 
L 79.692158 118.453795 
L 81.581708 118.223269 
L 82.590258 120.130698 
L 83.207404 118.733265 
L 83.579261 118.886065 
L 83.988651 118.928644 
L 84.357899 120.053922 
L 84.663795 118.625266 
L 84.986119 119.424389 
L 85.249211 117.205932 
L 86.069751 117.703589 
L 87.171112 118.140765 
L 87.532771 117.163998 
L 87.85606 118.422617 
L 88.18787 117.968823 
L 88.856154 119.119682 
L 89.178287 117.993706 
L 89.491018 117.840149 
L 90.175178 119.432307 
L 90.460497 117.946889 
L 91.103969 117.584268 
L 92.351306 119.75215 
L 93.140696 119.940246 
L 94.552039 118.548429 
L 95.20826 119.736134 
L 96.43161 117.707849 
L 98.591262 120.103236 
L 99.998083 118.177173 
L 100.678243 118.612787 
L 101.36136 117.480379 
L 102.429897 118.735437 
L 108.031878 119.253093 
L 109.420761 117.592135 
L 109.830617 117.689815 
L 110.132873 119.311655 
L 110.886734 119.043707 
L 112.530749 119.044492 
L 113.454314 117.082987 
L 113.723374 117.482128 
L 117.16083 119.545229 
L 118.777399 118.428815 
L 120.457236 119.243174 
L 120.762867 117.766169 
L 121.377748 119.683386 
L 123.470919 117.617499 
L 124.398609 119.114958 
L 126.340019 117.6823 
L 126.782398 118.273737 
L 127.430549 117.765534 
L 128.006194 119.565867 
L 129.349722 117.566628 
L 130.824073 121.092884 
L 131.273435 120.411121 
L 132.384043 118.787712 
L 133.582927 119.595303 
L 133.95716 118.814148 
L 134.329545 118.441759 
L 135.04651 119.712805 
L 135.412165 119.127782 
L 135.812266 119.416683 
L 136.119697 117.822498 
L 136.784076 119.457775 
L 138.29926 119.070111 
L 145.370648 118.435258 
L 145.680669 116.866348 
L 146.328888 117.492997 
L 146.710632 118.440867 
L 147.067396 117.895334 
L 147.496171 117.154241 
L 147.8857 117.888785 
L 150.328769 120.391652 
L 150.587863 119.115689 
L 150.841323 120.76064 
L 151.351767 119.571532 
L 151.672961 118.987155 
L 151.986461 119.8636 
L 152.319454 120.08259 
L 153.809097 118.52193 
L 154.891914 118.048193 
L 156.332719 119.106422 
L 157.522882 118.949002 
L 159.337339 117.202616 
L 160.448113 118.188764 
L 162.189604 118.935171 
L 162.289673 93.581131 
L 162.290133 124.45314 
L 163.340457 112.196076 
L 165.201313 104.304631 
L 165.383022 104.433767 
L 169.36483 95.218911 
L 169.694553 95.531786 
L 170.10759 94.78569 
L 172.783574 90.119005 
L 173.613074 89.235461 
L 174.465167 87.607887 
L 177.848799 79.895977 
L 178.646769 79.456418 
L 179.939278 77.302848 
L 180.312705 77.812373 
L 180.711325 78.535724 
L 181.074123 77.26898 
L 182.632464 73.915866 
L 183.006716 74.598162 
L 183.467905 74.652994 
L 184.341122 73.439806 
L 184.783381 73.699021 
L 191.570412 70.328122 
L 192.568688 70.766548 
L 193.825753 68.922985 
L 194.254995 69.149988 
L 195.484793 68.200907 
L 198.216842 67.572635 
L 201.928929 65.529095 
L 203.095588 67.554201 
L 203.552718 66.728518 
L 204.000688 67.628323 
L 207.505633 67.727797 
L 208.79478 68.802901 
L 210.037881 68.086289 
L 210.460237 69.431807 
L 210.894924 68.435585 
L 211.304759 67.930309 
L 212.462445 69.609413 
L 213.761154 69.305575 
L 214.140778 70.280059 
L 214.516673 69.589207 
L 215.660484 68.152538 
L 217.331381 69.836543 
L 217.685569 69.271613 
L 218.050337 70.407508 
L 218.410956 70.366676 
L 219.709902 69.089754 
L 221.933694 70.199026 
L 222.76492 69.544366 
L 223.20333 70.065637 
L 223.614155 70.802633 
L 223.987962 70.260069 
L 225.244708 69.141161 
L 225.678329 69.838267 
L 227.318465 71.71702 
L 227.693766 70.603883 
L 228.024896 72.719502 
L 228.810276 72.112063 
L 229.197952 72.961499 
L 229.582155 71.486581 
L 229.966803 70.654499 
L 230.819367 71.056663 
L 233.233035 72.383488 
L 233.668552 73.43538 
L 234.066104 72.371817 
L 235.268175 71.282558 
L 237.761554 72.598455 
L 240.584277 71.683201 
L 240.97394 72.460959 
L 241.82119 71.979187 
L 244.141516 73.149305 
L 244.561971 71.746657 
L 244.957941 72.219959 
L 246.406791 72.744246 
L 246.773278 71.825049 
L 247.137107 72.354703 
L 248.395488 73.681188 
L 250.199676 72.128303 
L 250.652744 71.467504 
L 251.07794 72.192208 
L 253.35332 70.858547 
L 254.681319 72.296967 
L 255.997482 71.784383 
L 256.438022 72.300059 
L 256.844184 71.533578 
L 257.225451 71.301447 
L 257.616008 72.820346 
L 258.409936 72.501429 
L 258.822967 72.853569 
L 259.224879 71.487816 
L 259.620501 73.74235 
L 260.427867 72.99189 
L 265.321863 72.480421 
L 265.77107 71.246011 
L 266.602134 71.737264 
L 268.673071 73.205938 
L 269.095808 72.658529 
L 269.523052 73.381067 
L 269.98546 73.911131 
L 270.404768 73.233721 
L 271.243707 72.544779 
L 271.597787 70.640074 
L 271.921375 72.44005 
L 272.303168 72.752011 
L 273.505938 71.473548 
L 273.938654 72.261588 
L 274.665253 71.688017 
L 275.955981 70.963423 
L 277.7827 72.436877 
L 278.910149 70.511624 
L 280.022894 72.831145 
L 280.740532 70.319375 
L 281.099961 72.400335 
L 282.631743 72.226167 
L 283.049855 73.686464 
L 283.846192 72.902795 
L 284.247163 71.335307 
L 285.023366 71.903013 
L 285.432454 71.386776 
L 285.821724 72.249526 
L 286.209736 73.642548 
L 286.565288 71.962582 
L 286.944156 72.84347 
L 287.324283 72.513213 
L 287.70662 73.568299 
L 288.07153 72.886236 
L 289.601722 71.162121 
L 290.364846 73.01814 
L 290.736868 72.656039 
L 291.075653 71.386679 
L 291.41161 73.265808 
L 292.131348 75.114487 
L 292.483197 73.647894 
L 297.051928 71.33177 
L 298.113831 73.246079 
L 298.444944 72.111974 
L 299.181428 72.543222 
L 300.579414 73.050028 
L 301.007011 73.116806 
L 301.335183 71.40399 
L 302.148489 71.99702 
L 302.95033 73.109307 
L 303.349159 72.38346 
L 303.719944 71.766217 
L 304.110612 72.70719 
L 308.034107 71.776106 
L 309.392192 72.19146 
L 310.72462 71.4729 
L 311.095456 70.896243 
L 311.47093 72.01836 
L 313.041211 72.125864 
L 314.278399 73.0457 
L 315.385412 71.388536 
L 315.746965 71.718271 
L 316.088963 72.911981 
L 316.812681 71.919907 
L 319.382701 72.198076 
L 319.778024 73.087739 
L 320.140542 72.467213 
L 322.52929 72.590095 
L 323.039659 72.962338 
L 323.769288 71.314858 
L 324.145717 71.509766 
L 324.494922 72.557392 
L 324.841526 71.001007 
L 325.219002 71.848252 
L 325.959569 70.67119 
L 326.291831 72.124001 
L 326.620652 71.762855 
L 327.062951 70.990543 
L 327.505913 71.809903 
L 328.734204 72.680702 
L 329.915737 71.058884 
L 331.491657 71.843679 
L 331.940973 72.384761 
L 332.26959 70.646491 
L 332.594375 71.371034 
L 332.935809 72.590029 
L 333.274253 71.162479 
L 333.659963 72.039702 
L 334.49079 71.913772 
L 336.112867 70.260028 
L 336.455313 71.021162 
L 338.073887 73.158303 
L 338.474383 72.404338 
L 338.903631 73.018813 
L 340.949606 72.828692 
L 341.335752 72.90406 
L 341.670275 74.388581 
L 342.384417 73.53457 
L 343.677822 72.782218 
L 344.077019 73.153911 
L 344.886573 70.997291 
L 345.259376 71.235068 
L 347.241659 73.523581 
L 348.009534 71.580472 
L 348.384577 72.252767 
L 349.22099 72.100715 
L 349.668896 72.970981 
L 350.102897 72.127216 
L 350.211183 65.047438 
L 350.200557 99.28366 
L 351.043526 73.931124 
L 353.210684 78.486416 
L 356.406501 83.415429 
L 356.749813 82.492234 
L 357.12202 83.839787 
L 357.892411 84.712377 
L 358.261067 86.289098 
L 358.605121 85.128817 
L 360.102896 85.938618 
L 361.143435 88.02061 
L 361.495771 87.609048 
L 362.366137 88.271511 
L 363.7028 89.385016 
L 365.284836 91.491968 
L 365.718857 91.06752 
L 366.519056 90.842106 
L 367.706291 92.195496 
L 368.160323 92.275993 
L 368.494999 94.011743 
L 368.825965 92.893354 
L 370.006352 92.354823 
L 372.723866 94.547702 
L 374.779035 95.035955 
L 375.23289 95.475119 
L 375.577099 94.186595 
L 376.434637 94.821203 
L 377.111307 96.43386 
L 377.487898 95.832421 
L 378.825956 97.177466 
L 379.242509 97.857617 
L 379.655336 96.834804 
L 381.199951 97.190021 
L 384.83587 97.182834 
L 385.202489 96.292297 
L 386.066586 96.700485 
L 389.317391 97.04353 
L 389.665687 98.265967 
L 390.452814 97.426188 
L 391.897377 97.167393 
L 392.230778 98.797321 
L 392.560085 98.257761 
L 392.90109 97.057522 
L 393.238989 97.648255 
L 393.966788 99.156024 
L 394.341515 97.874951 
L 395.612914 97.988608 
L 396.76498 98.603273 
L 398.114331 97.544771 
L 401.064431 96.725216 
L 402.272036 95.929885 
L 405.096313 97.427671 
L 405.542833 97.96087 
L 405.967185 97.48272 
L 408.662204 96.943181 
L 409.868526 96.081403 
L 410.221943 97.018547 
L 410.573062 96.711224 
L 411.275997 95.089026 
L 411.650372 95.39256 
L 413.087791 95.509397 
L 414.051905 95.54985 
L 415.921053 94.629684 
L 416.334675 94.127085 
L 417.455773 97.104742 
L 417.817296 95.913694 
L 418.245444 95.941619 
L 418.677259 97.054437 
L 419.098176 96.363735 
L 422.512606 96.370837 
L 422.866315 95.092553 
L 423.216206 95.354391 
L 423.564328 96.492272 
L 423.909676 94.467041 
L 424.250257 96.134026 
L 425.531122 96.284391 
L 428.995091 95.630071 
L 429.366539 96.529141 
L 429.735289 95.865472 
L 431.455521 94.520707 
L 432.690123 94.657534 
L 433.5542 93.776379 
L 434.009551 94.020058 
L 434.911312 94.664616 
L 436.028117 96.798285 
L 437.297224 95.666679 
L 437.661887 96.684574 
L 438.024206 95.295223 
L 439.273445 95.089669 
L 440.130628 93.736586 
L 440.53517 94.241292 
L 441.681831 95.279725 
L 442.087081 93.969029 
L 442.479156 94.884045 
L 447.389964 95.571157 
L 447.733918 94.334464 
L 448.443739 94.710903 
L 448.818438 94.315893 
L 449.184642 95.050348 
L 452.69414 94.916005 
L 453.977666 95.903019 
L 454.415421 95.403611 
L 456.870452 95.108548 
L 458.052049 94.176954 
L 458.518086 94.121212 
L 458.841678 95.863983 
L 459.161436 93.675774 
L 459.488928 94.408639 
L 461.03328 96.413725 
L 461.430424 96.156953 
L 462.612211 95.485879 
L 463.086112 96.077255 
L 463.534066 95.218382 
L 464.550916 95.405323 
L 466.486285 94.337131 
L 468.088156 95.585525 
L 468.440309 94.345622 
L 470.11052 94.322407 
L 470.525442 93.191152 
L 470.947216 94.658352 
L 471.365039 93.553235 
L 473.232347 96.882258 
L 473.6007 96.68162 
L 475.348896 97.158695 
L 476.49519 95.86513 
L 477.447785 96.103302 
L 479.122709 94.246024 
L 480.416198 94.819594 
L 480.88752 93.912835 
L 481.670586 94.495197 
L 482.038068 96.039304 
L 482.81605 95.588551 
L 485.743343 95.344193 
L 486.127285 95.857086 
L 486.485878 95.163726 
L 486.939371 94.869716 
L 487.763137 95.927087 
L 489.102918 94.471509 
L 489.524261 96.033583 
L 490.356266 95.691626 
L 491.307571 95.074594 
L 492.642071 96.424693 
L 493.941745 94.569705 
L 495.059591 95.265913 
L 495.499897 94.220738 
L 495.904298 95.190375 
L 496.671222 94.603499 
L 497.078733 95.370338 
L 499.036838 93.639716 
L 500.251079 95.920377 
L 500.649517 94.539018 
L 501.046155 95.014956 
L 502.414956 96.310906 
L 503.606262 94.919448 
L 503.951425 96.263404 
L 504.735965 95.597028 
L 506.672278 95.928401 
L 507.747903 93.710116 
L 509.818182 95.111704 
L 510.318685 94.735209 
L 510.695712 95.521948 
L 512.526531 96.238749 
L 513.404551 95.317913 
L 513.783421 95.610623 
L 514.165092 96.65681 
L 514.542298 95.230055 
L 514.936489 96.254389 
L 515.835967 95.09247 
L 517.111968 96.49209 
L 518.45069 95.917088 
L 519.8709 96.464467 
L 520.814832 95.254926 
L 522.044377 97.283945 
L 522.463628 97.361389 
L 523.323425 95.734821 
L 523.712469 95.942617 
L 528.013158 95.75291 
L 528.423246 93.91425 
L 528.722053 96.903296 
L 529.017068 94.929983 
L 530.984819 95.463231 
L 531.819913 96.727945 
L 532.219672 96.088946 
L 532.97229 94.123507 
L 534.098704 96.370103 
L 534.511702 94.862182 
L 534.916886 95.828802 
L 535.705094 96.427643 
L 536.085005 95.672228 
L 536.461977 96.457341 
L 536.840046 97.670105 
L 537.185487 97.227944 
L 538.111151 96.675215 
L 538.111151 96.675215 
" clip-path="url(#p77dd60322e)" style="fill: none; stroke: #377eb8; stroke-width: 2; stroke-linecap: square"/>
   </g>
   <g id="patch_3">
    <path d="M 44.845313 241.599141 
L 44.845313 7.2 
" style="fill: none; stroke: #7f7f7f; stroke-width: 1.8; stroke-linejoin: miter; stroke-linecap: square"/>
   </g>
   <g id="patch_4">
    <path d="M 44.845313 241.599141 
L 561.6 241.599141 
" style="fill: none; stroke: #7f7f7f; stroke-width: 1.8; stroke-linejoin: miter; stroke-linecap: square"/>
   </g>
   <g id="legend_1">
    <g id="line2d_29">
     <path d="M 499.584375 20.298438 
L 509.584375 20.298438 
L 519.584375 20.298438 
" style="fill: none; stroke: #e41a1c; stroke-width: 2; stroke-linecap: square"/>
    </g>
    <g id="text_15">
     <!-- err 2 -->
     <g style="fill: #7f7f7f" transform="translate(527.584375 23.798438) scale(0.1 -0.1)">
      <defs>
       <path id="DejaVuSans-55" d="M 2631 2963 
Q 2534 3019 2420 3045 
Q 2306 3072 2169 3072 
Q 1681 3072 1420 2755 
Q 1159 2438 1159 1844 
L 1159 0 
L 581 0 
L 581 3500 
L 1159 3500 
L 1159 2956 
Q 1341 3275 1631 3429 
Q 1922 3584 2338 3584 
Q 2397 3584 2469 3576 
Q 2541 3569 2628 3553 
L 2631 2963 
z
" transform="scale(0.015625)"/>
      </defs>
      <use xlink:href="#DejaVuSans-48"/>
      <use xlink:href="#DejaVuSans-55" transform="translate(61.53125 0)"/>
      <use xlink:href="#DejaVuSans-55" transform="translate(100.890625 0)"/>
      <use xlink:href="#DejaVuSans-3" transform="translate(142 0)"/>
      <use xlink:href="#DejaVuSans-15" transform="translate(173.78125 0)"/>
     </g>
    </g>
    <g id="line2d_30">
     <path d="M 499.584375 35.299219 
L 509.584375 35.299219 
L 519.584375 35.299219 
" style="fill: none; stroke: #377eb8; stroke-width: 2; stroke-linecap: square"/>
    </g>
    <g id="text_16">
     <!-- pid 2 -->
     <g style="fill: #7f7f7f" transform="translate(527.584375 38.799219) scale(0.1 -0.1)">
      <defs>
       <path id="DejaVuSans-53" d="M 1159 525 
L 1159 -1331 
L 581 -1331 
L 581 3500 
L 1159 3500 
L 1159 2969 
Q 1341 3281 1617 3432 
Q 1894 3584 2278 3584 
Q 2916 3584 3314 3078 
Q 3713 2572 3713 1747 
Q 3713 922 3314 415 
Q 2916 -91 2278 -91 
Q 1894 -91 1617 61 
Q 1341 213 1159 525 
z
M 3116 1747 
Q 3116 2381 2855 2742 
Q 2594 3103 2138 3103 
Q 1681 3103 1420 2742 
Q 1159 2381 1159 1747 
Q 1159 1113 1420 752 
Q 1681 391 2138 391 
Q 2594 391 2855 752 
Q 3116 1113 3116 1747 
z
" transform="scale(0.015625)"/>
       <path id="DejaVuSans-47" d="M 2906 2969 
L 2906 4863 
L 3481 4863 
L 3481 0 
L 2906 0 
L 2906 525 
Q 2725 213 2448 61 
Q 2172 -91 1784 -91 
Q 1150 -91 751 415 
Q 353 922 353 1747 
Q 353 2572 751 3078 
Q 1150 3584 1784 3584 
Q 2172 3584 2448 3432 
Q 2725 3281 2906 2969 
z
M 947 1747 
Q 947 1113 1208 752 
Q 1469 391 1925 391 
Q 2381 391 2643 752 
Q 2906 1113 2906 1747 
Q 2906 2381 2643 2742 
Q 2381 3103 1925 3103 
Q 1469 3103 1208 2742 
Q 947 2381 947 1747 
z
" transform="scale(0.015625)"/>
      </defs>
      <use xlink:href="#DejaVuSans-53"/>
      <use xlink:href="#DejaVuSans-4c" transform="translate(63.484375 0)"/>
      <use xlink:href="#DejaVuSans-47" transform="translate(91.265625 0)"/>
      <use xlink:href="#DejaVuSans-3" transform="translate(154.75 0)"/>
      <use xlink:href="#DejaVuSans-15" transform="translate(186.53125 0)"/>
     </g>
    </g>
   </g>
  </g>
 </g>
 <defs>
  <clipPath id="p77dd60322e">
   <rect x="44.845313" y="7.2" width="516.754687" height="234.399141"/>
  </clipPath>
 </defs>
</svg>
