<?xml version="1.0" encoding="utf-8" standalone="no"?>
<!DOCTYPE svg PUBLIC "-//W3C//DTD SVG 1.1//EN"
  "http://www.w3.org/Graphics/SVG/1.1/DTD/svg11.dtd">
<svg xmlns:xlink="http://www.w3.org/1999/xlink" width="575.1625pt" height="424.8pt" viewBox="0 0 575.1625 424.8" xmlns="http://www.w3.org/2000/svg" version="1.1">
 <metadata>
  <rdf:RDF xmlns:dc="http://purl.org/dc/elements/1.1/" xmlns:cc="http://creativecommons.org/ns#" xmlns:rdf="http://www.w3.org/1999/02/22-rdf-syntax-ns#">
   <cc:Work>
    <dc:type rdf:resource="http://purl.org/dc/dcmitype/StillImage"/>
    <dc:date>2026-06-03T13:43:10.879672</dc:date>
    <dc:format>image/svg+xml</dc:format>
    <dc:creator>
     <cc:Agent>
      <dc:title>Matplotlib v3.10.9, https://matplotlib.org/</dc:title>
     </cc:Agent>
    </dc:creator>
   </cc:Work>
  </rdf:RDF>
 </metadata>
 <defs>
  <style type="text/css">*{stroke-linejoin: round; stroke-linecap: butt}</style>
 </defs>
 <g id="figure_1">
  <g id="patch_1">
   <path d="M 0 424.8 
L 575.1625 424.8 
L 575.1625 0 
L 0 0 
L 0 424.8 
z
" style="fill: none"/>
  </g>
  <g id="axes_1">
   <g id="patch_2">
    <path d="M 51.111563 190.557969 
L 567.9625 190.557969 
L 567.9625 22.318125 
L 51.111563 22.318125 
L 51.111563 190.557969 
z
" style="fill: none"/>
   </g>
   <g id="matplotlib.axis_1">
    <g id="xtick_1">
     <g id="line2d_1">
      <defs>
       <path id="md21dadc425" d="M 0 0 
L 0 3.5 
" style="stroke: #7f7f7f; stroke-width: 1.8"/>
      </defs>
      <g>
       <use xlink:href="#md21dadc425" x="74.604787" y="190.557969" style="fill: #7f7f7f; stroke: #7f7f7f; stroke-width: 1.8"/>
      </g>
     </g>
     <g id="text_1">
      <!-- 0.0 -->
      <g style="fill: #7f7f7f" transform="translate(66.653224 205.156406) scale(0.1 -0.1)">
       <defs>
        <path id="DejaVuSans-30" d="M 2034 4250 
Q 1547 4250 1301 3770 
Q 1056 3291 1056 2328 
Q 1056 1369 1301 889 
Q 1547 409 2034 409 
Q 2525 409 2770 889 
Q 3016 1369 3016 2328 
Q 3016 3291 2770 3770 
Q 2525 4250 2034 4250 
z
M 2034 4750 
Q 2819 4750 3233 4129 
Q 3647 3509 3647 2328 
Q 3647 1150 3233 529 
Q 2819 -91 2034 -91 
Q 1250 -91 836 529 
Q 422 1150 422 2328 
Q 422 3509 836 4129 
Q 1250 4750 2034 4750 
z
" transform="scale(0.015625)"/>
        <path id="DejaVuSans-2e" d="M 684 794 
L 1344 794 
L 1344 0 
L 684 0 
L 684 794 
z
" transform="scale(0.015625)"/>
       </defs>
       <use xlink:href="#DejaVuSans-30"/>
       <use xlink:href="#DejaVuSans-2e" transform="translate(63.623047 0)"/>
       <use xlink:href="#DejaVuSans-30" transform="translate(95.410156 0)"/>
      </g>
     </g>
    </g>
    <g id="xtick_2">
     <g id="line2d_2">
      <g>
       <use xlink:href="#md21dadc425" x="133.337848" y="190.557969" style="fill: #7f7f7f; stroke: #7f7f7f; stroke-width: 1.8"/>
      </g>
     </g>
     <g id="text_2">
      <!-- 2.5 -->
      <g style="fill: #7f7f7f" transform="translate(125.386286 205.156406) scale(0.1 -0.1)">
       <defs>
        <path id="DejaVuSans-32" d="M 1228 531 
L 3431 531 
L 3431 0 
L 469 0 
L 469 531 
Q 828 903 1448 1529 
Q 2069 2156 2228 2338 
Q 2531 2678 2651 2914 
Q 2772 3150 2772 3378 
Q 2772 3750 2511 3984 
Q 2250 4219 1831 4219 
Q 1534 4219 1204 4116 
Q 875 4013 500 3803 
L 500 4441 
Q 881 4594 1212 4672 
Q 1544 4750 1819 4750 
Q 2544 4750 2975 4387 
Q 3406 4025 3406 3419 
Q 3406 3131 3298 2873 
Q 3191 2616 2906 2266 
Q 2828 2175 2409 1742 
Q 1991 1309 1228 531 
z
" transform="scale(0.015625)"/>
        <path id="DejaVuSans-35" d="M 691 4666 
L 3169 4666 
L 3169 4134 
L 1269 4134 
L 1269 2991 
Q 1406 3038 1543 3061 
Q 1681 3084 1819 3084 
Q 2600 3084 3056 2656 
Q 3513 2228 3513 1497 
Q 3513 744 3044 326 
Q 2575 -91 1722 -91 
Q 1428 -91 1123 -41 
Q 819 9 494 109 
L 494 744 
Q 775 591 1075 516 
Q 1375 441 1709 441 
Q 2250 441 2565 725 
Q 2881 1009 2881 1497 
Q 2881 1984 2565 2268 
Q 2250 2553 1709 2553 
Q 1456 2553 1204 2497 
Q 953 2441 691 2322 
L 691 4666 
z
" transform="scale(0.015625)"/>
       </defs>
       <use xlink:href="#DejaVuSans-32"/>
       <use xlink:href="#DejaVuSans-2e" transform="translate(63.623047 0)"/>
       <use xlink:href="#DejaVuSans-35" transform="translate(95.410156 0)"/>
      </g>
     </g>
    </g>
    <g id="xtick_3">
     <g id="line2d_3">
      <g>
       <use xlink:href="#md21dadc425" x="192.070909" y="190.557969" style="fill: #7f7f7f; stroke: #7f7f7f; stroke-width: 1.8"/>
      </g>
     </g>
     <g id="text_3">
      <!-- 5.0 -->
      <g style="fill: #7f7f7f" transform="translate(184.119347 205.156406) scale(0.1 -0.1)">
       <use xlink:href="#DejaVuSans-35"/>
       <use xlink:href="#DejaVuSans-2e" transform="translate(63.623047 0)"/>
       <use xlink:href="#DejaVuSans-30" transform="translate(95.410156 0)"/>
      </g>
     </g>
    </g>
    <g id="xtick_4">
     <g id="line2d_4">
      <g>
       <use xlink:href="#md21dadc425" x="250.80397" y="190.557969" style="fill: #7f7f7f; stroke: #7f7f7f; stroke-width: 1.8"/>
      </g>
     </g>
     <g id="text_4">
      <!-- 7.5 -->
      <g style="fill: #7f7f7f" transform="translate(242.852408 205.156406) scale(0.1 -0.1)">
       <defs>
        <path id="DejaVuSans-37" d="M 525 4666 
L 3525 4666 
L 3525 4397 
L 1831 0 
L 1172 0 
L 2766 4134 
L 525 4134 
L 525 4666 
z
" transform="scale(0.015625)"/>
       </defs>
       <use xlink:href="#DejaVuSans-37"/>
       <use xlink:href="#DejaVuSans-2e" transform="translate(63.623047 0)"/>
       <use xlink:href="#DejaVuSans-35" transform="translate(95.410156 0)"/>
      </g>
     </g>
    </g>
    <g id="xtick_5">
     <g id="line2d_5">
      <g>
       <use xlink:href="#md21dadc425" x="309.537031" y="190.557969" style="fill: #7f7f7f; stroke: #7f7f7f; stroke-width: 1.8"/>
      </g>
     </g>
     <g id="text_5">
      <!-- 10.0 -->
      <g style="fill: #7f7f7f" transform="translate(298.404219 205.156406) scale(0.1 -0.1)">
       <defs>
        <path id="DejaVuSans-31" d="M 794 531 
L 1825 531 
L 1825 4091 
L 703 3866 
L 703 4441 
L 1819 4666 
L 2450 4666 
L 2450 531 
L 3481 531 
L 3481 0 
L 794 0 
L 794 531 
z
" transform="scale(0.015625)"/>
       </defs>
       <use xlink:href="#DejaVuSans-31"/>
       <use xlink:href="#DejaVuSans-30" transform="translate(63.623047 0)"/>
       <use xlink:href="#DejaVuSans-2e" transform="translate(127.246094 0)"/>
       <use xlink:href="#DejaVuSans-30" transform="translate(159.033203 0)"/>
      </g>
     </g>
    </g>
    <g id="xtick_6">
     <g id="line2d_6">
      <g>
       <use xlink:href="#md21dadc425" x="368.270092" y="190.557969" style="fill: #7f7f7f; stroke: #7f7f7f; stroke-width: 1.8"/>
      </g>
     </g>
     <g id="text_6">
      <!-- 12.5 -->
      <g style="fill: #7f7f7f" transform="translate(357.13728 205.156406) scale(0.1 -0.1)">
       <use xlink:href="#DejaVuSans-31"/>
       <use xlink:href="#DejaVuSans-32" transform="translate(63.623047 0)"/>
       <use xlink:href="#DejaVuSans-2e" transform="translate(127.246094 0)"/>
       <use xlink:href="#DejaVuSans-35" transform="translate(159.033203 0)"/>
      </g>
     </g>
    </g>
    <g id="xtick_7">
     <g id="line2d_7">
      <g>
       <use xlink:href="#md21dadc425" x="427.003153" y="190.557969" style="fill: #7f7f7f; stroke: #7f7f7f; stroke-width: 1.8"/>
      </g>
     </g>
     <g id="text_7">
      <!-- 15.0 -->
      <g style="fill: #7f7f7f" transform="translate(415.870341 205.156406) scale(0.1 -0.1)">
       <use xlink:href="#DejaVuSans-31"/>
       <use xlink:href="#DejaVuSans-35" transform="translate(63.623047 0)"/>
       <use xlink:href="#DejaVuSans-2e" transform="translate(127.246094 0)"/>
       <use xlink:href="#DejaVuSans-30" transform="translate(159.033203 0)"/>
      </g>
     </g>
    </g>
    <g id="xtick_8">
     <g id="line2d_8">
      <g>
       <use xlink:href="#md21dadc425" x="485.736214" y="190.557969" style="fill: #7f7f7f; stroke: #7f7f7f; stroke-width: 1.8"/>
      </g>
     </g>
     <g id="text_8">
      <!-- 17.5 -->
      <g style="fill: #7f7f7f" transform="translate(474.603402 205.156406) scale(0.1 -0.1)">
       <use xlink:href="#DejaVuSans-31"/>
       <use xlink:href="#DejaVuSans-37" transform="translate(63.623047 0)"/>
       <use xlink:href="#DejaVuSans-2e" transform="translate(127.246094 0)"/>
       <use xlink:href="#DejaVuSans-35" transform="translate(159.033203 0)"/>
      </g>
     </g>
    </g>
    <g id="xtick_9">
     <g id="line2d_9">
      <g>
       <use xlink:href="#md21dadc425" x="544.469276" y="190.557969" style="fill: #7f7f7f; stroke: #7f7f7f; stroke-width: 1.8"/>
      </g>
     </g>
     <g id="text_9">
      <!-- 20.0 -->
      <g style="fill: #7f7f7f" transform="translate(533.336463 205.156406) scale(0.1 -0.1)">
       <use xlink:href="#DejaVuSans-32"/>
       <use xlink:href="#DejaVuSans-30" transform="translate(63.623047 0)"/>
       <use xlink:href="#DejaVuSans-2e" transform="translate(127.246094 0)"/>
       <use xlink:href="#DejaVuSans-30" transform="translate(159.033203 0)"/>
      </g>
     </g>
    </g>
   </g>
   <g id="matplotlib.axis_2">
    <g id="ytick_1">
     <g id="line2d_10">
      <defs>
       <path id="mc6f22f8198" d="M 0 0 
L -3.5 0 
" style="stroke: #7f7f7f; stroke-width: 1.8"/>
      </defs>
      <g>
       <use xlink:href="#mc6f22f8198" x="51.111563" y="182.910703" style="fill: #7f7f7f; stroke: #7f7f7f; stroke-width: 1.8"/>
      </g>
     </g>
     <g id="text_10">
      <!-- 0.00 -->
      <g style="fill: #7f7f7f" transform="translate(21.845938 186.709922) scale(0.1 -0.1)">
       <use xlink:href="#DejaVuSans-30"/>
       <use xlink:href="#DejaVuSans-2e" transform="translate(63.623047 0)"/>
       <use xlink:href="#DejaVuSans-30" transform="translate(95.410156 0)"/>
       <use xlink:href="#DejaVuSans-30" transform="translate(159.033203 0)"/>
      </g>
     </g>
    </g>
    <g id="ytick_2">
     <g id="line2d_11">
      <g>
       <use xlink:href="#mc6f22f8198" x="51.111563" y="159.797795" style="fill: #7f7f7f; stroke: #7f7f7f; stroke-width: 1.8"/>
      </g>
     </g>
     <g id="text_11">
      <!-- 0.05 -->
      <g style="fill: #7f7f7f" transform="translate(21.845938 163.597014) scale(0.1 -0.1)">
       <use xlink:href="#DejaVuSans-30"/>
       <use xlink:href="#DejaVuSans-2e" transform="translate(63.623047 0)"/>
       <use xlink:href="#DejaVuSans-30" transform="translate(95.410156 0)"/>
       <use xlink:href="#DejaVuSans-35" transform="translate(159.033203 0)"/>
      </g>
     </g>
    </g>
    <g id="ytick_3">
     <g id="line2d_12">
      <g>
       <use xlink:href="#mc6f22f8198" x="51.111563" y="136.684887" style="fill: #7f7f7f; stroke: #7f7f7f; stroke-width: 1.8"/>
      </g>
     </g>
     <g id="text_12">
      <!-- 0.10 -->
      <g style="fill: #7f7f7f" transform="translate(21.845938 140.484105) scale(0.1 -0.1)">
       <use xlink:href="#DejaVuSans-30"/>
       <use xlink:href="#DejaVuSans-2e" transform="translate(63.623047 0)"/>
       <use xlink:href="#DejaVuSans-31" transform="translate(95.410156 0)"/>
       <use xlink:href="#DejaVuSans-30" transform="translate(159.033203 0)"/>
      </g>
     </g>
    </g>
    <g id="ytick_4">
     <g id="line2d_13">
      <g>
       <use xlink:href="#mc6f22f8198" x="51.111563" y="113.571979" style="fill: #7f7f7f; stroke: #7f7f7f; stroke-width: 1.8"/>
      </g>
     </g>
     <g id="text_13">
      <!-- 0.15 -->
      <g style="fill: #7f7f7f" transform="translate(21.845938 117.371197) scale(0.1 -0.1)">
       <use xlink:href="#DejaVuSans-30"/>
       <use xlink:href="#DejaVuSans-2e" transform="translate(63.623047 0)"/>
       <use xlink:href="#DejaVuSans-31" transform="translate(95.410156 0)"/>
       <use xlink:href="#DejaVuSans-35" transform="translate(159.033203 0)"/>
      </g>
     </g>
    </g>
    <g id="ytick_5">
     <g id="line2d_14">
      <g>
       <use xlink:href="#mc6f22f8198" x="51.111563" y="90.45907" style="fill: #7f7f7f; stroke: #7f7f7f; stroke-width: 1.8"/>
      </g>
     </g>
     <g id="text_14">
      <!-- 0.20 -->
      <g style="fill: #7f7f7f" transform="translate(21.845938 94.258289) scale(0.1 -0.1)">
       <use xlink:href="#DejaVuSans-30"/>
       <use xlink:href="#DejaVuSans-2e" transform="translate(63.623047 0)"/>
       <use xlink:href="#DejaVuSans-32" transform="translate(95.410156 0)"/>
       <use xlink:href="#DejaVuSans-30" transform="translate(159.033203 0)"/>
      </g>
     </g>
    </g>
    <g id="ytick_6">
     <g id="line2d_15">
      <g>
       <use xlink:href="#mc6f22f8198" x="51.111563" y="67.346162" style="fill: #7f7f7f; stroke: #7f7f7f; stroke-width: 1.8"/>
      </g>
     </g>
     <g id="text_15">
      <!-- 0.25 -->
      <g style="fill: #7f7f7f" transform="translate(21.845938 71.145381) scale(0.1 -0.1)">
       <use xlink:href="#DejaVuSans-30"/>
       <use xlink:href="#DejaVuSans-2e" transform="translate(63.623047 0)"/>
       <use xlink:href="#DejaVuSans-32" transform="translate(95.410156 0)"/>
       <use xlink:href="#DejaVuSans-35" transform="translate(159.033203 0)"/>
      </g>
     </g>
    </g>
    <g id="ytick_7">
     <g id="line2d_16">
      <g>
       <use xlink:href="#mc6f22f8198" x="51.111563" y="44.233254" style="fill: #7f7f7f; stroke: #7f7f7f; stroke-width: 1.8"/>
      </g>
     </g>
     <g id="text_16">
      <!-- 0.30 -->
      <g style="fill: #7f7f7f" transform="translate(21.845938 48.032473) scale(0.1 -0.1)">
       <defs>
        <path id="DejaVuSans-33" d="M 2597 2516 
Q 3050 2419 3304 2112 
Q 3559 1806 3559 1356 
Q 3559 666 3084 287 
Q 2609 -91 1734 -91 
Q 1441 -91 1130 -33 
Q 819 25 488 141 
L 488 750 
Q 750 597 1062 519 
Q 1375 441 1716 441 
Q 2309 441 2620 675 
Q 2931 909 2931 1356 
Q 2931 1769 2642 2001 
Q 2353 2234 1838 2234 
L 1294 2234 
L 1294 2753 
L 1863 2753 
Q 2328 2753 2575 2939 
Q 2822 3125 2822 3475 
Q 2822 3834 2567 4026 
Q 2313 4219 1838 4219 
Q 1578 4219 1281 4162 
Q 984 4106 628 3988 
L 628 4550 
Q 988 4650 1302 4700 
Q 1616 4750 1894 4750 
Q 2613 4750 3031 4423 
Q 3450 4097 3450 3541 
Q 3450 3153 3228 2886 
Q 3006 2619 2597 2516 
z
" transform="scale(0.015625)"/>
       </defs>
       <use xlink:href="#DejaVuSans-30"/>
       <use xlink:href="#DejaVuSans-2e" transform="translate(63.623047 0)"/>
       <use xlink:href="#DejaVuSans-33" transform="translate(95.410156 0)"/>
       <use xlink:href="#DejaVuSans-30" transform="translate(159.033203 0)"/>
      </g>
     </g>
    </g>
    <g id="text_17">
     <!-- Position Error [m] -->
     <g style="fill: #7f7f7f" transform="translate(15.558281 154.397187) rotate(-90) scale(0.11 -0.11)">
      <defs>
       <path id="DejaVuSans-50" d="M 1259 4147 
L 1259 2394 
L 2053 2394 
Q 2494 2394 2734 2622 
Q 2975 2850 2975 3272 
Q 2975 3691 2734 3919 
Q 2494 4147 2053 4147 
L 1259 4147 
z
M 628 4666 
L 2053 4666 
Q 2838 4666 3239 4311 
Q 3641 3956 3641 3272 
Q 3641 2581 3239 2228 
Q 2838 1875 2053 1875 
L 1259 1875 
L 1259 0 
L 628 0 
L 628 4666 
z
" transform="scale(0.015625)"/>
       <path id="DejaVuSans-6f" d="M 1959 3097 
Q 1497 3097 1228 2736 
Q 959 2375 959 1747 
Q 959 1119 1226 758 
Q 1494 397 1959 397 
Q 2419 397 2687 759 
Q 2956 1122 2956 1747 
Q 2956 2369 2687 2733 
Q 2419 3097 1959 3097 
z
M 1959 3584 
Q 2709 3584 3137 3096 
Q 3566 2609 3566 1747 
Q 3566 888 3137 398 
Q 2709 -91 1959 -91 
Q 1206 -91 779 398 
Q 353 888 353 1747 
Q 353 2609 779 3096 
Q 1206 3584 1959 3584 
z
" transform="scale(0.015625)"/>
       <path id="DejaVuSans-73" d="M 2834 3397 
L 2834 2853 
Q 2591 2978 2328 3040 
Q 2066 3103 1784 3103 
Q 1356 3103 1142 2972 
Q 928 2841 928 2578 
Q 928 2378 1081 2264 
Q 1234 2150 1697 2047 
L 1894 2003 
Q 2506 1872 2764 1633 
Q 3022 1394 3022 966 
Q 3022 478 2636 193 
Q 2250 -91 1575 -91 
Q 1294 -91 989 -36 
Q 684 19 347 128 
L 347 722 
Q 666 556 975 473 
Q 1284 391 1588 391 
Q 1994 391 2212 530 
Q 2431 669 2431 922 
Q 2431 1156 2273 1281 
Q 2116 1406 1581 1522 
L 1381 1569 
Q 847 1681 609 1914 
Q 372 2147 372 2553 
Q 372 3047 722 3315 
Q 1072 3584 1716 3584 
Q 2034 3584 2315 3537 
Q 2597 3491 2834 3397 
z
" transform="scale(0.015625)"/>
       <path id="DejaVuSans-69" d="M 603 3500 
L 1178 3500 
L 1178 0 
L 603 0 
L 603 3500 
z
M 603 4863 
L 1178 4863 
L 1178 4134 
L 603 4134 
L 603 4863 
z
" transform="scale(0.015625)"/>
       <path id="DejaVuSans-74" d="M 1172 4494 
L 1172 3500 
L 2356 3500 
L 2356 3053 
L 1172 3053 
L 1172 1153 
Q 1172 725 1289 603 
Q 1406 481 1766 481 
L 2356 481 
L 2356 0 
L 1766 0 
Q 1100 0 847 248 
Q 594 497 594 1153 
L 594 3053 
L 172 3053 
L 172 3500 
L 594 3500 
L 594 4494 
L 1172 4494 
z
" transform="scale(0.015625)"/>
       <path id="DejaVuSans-6e" d="M 3513 2113 
L 3513 0 
L 2938 0 
L 2938 2094 
Q 2938 2591 2744 2837 
Q 2550 3084 2163 3084 
Q 1697 3084 1428 2787 
Q 1159 2491 1159 1978 
L 1159 0 
L 581 0 
L 581 3500 
L 1159 3500 
L 1159 2956 
Q 1366 3272 1645 3428 
Q 1925 3584 2291 3584 
Q 2894 3584 3203 3211 
Q 3513 2838 3513 2113 
z
" transform="scale(0.015625)"/>
       <path id="DejaVuSans-20" transform="scale(0.015625)"/>
       <path id="DejaVuSans-45" d="M 628 4666 
L 3578 4666 
L 3578 4134 
L 1259 4134 
L 1259 2753 
L 3481 2753 
L 3481 2222 
L 1259 2222 
L 1259 531 
L 3634 531 
L 3634 0 
L 628 0 
L 628 4666 
z
" transform="scale(0.015625)"/>
       <path id="DejaVuSans-72" d="M 2631 2963 
Q 2534 3019 2420 3045 
Q 2306 3072 2169 3072 
Q 1681 3072 1420 2755 
Q 1159 2438 1159 1844 
L 1159 0 
L 581 0 
L 581 3500 
L 1159 3500 
L 1159 2956 
Q 1341 3275 1631 3429 
Q 1922 3584 2338 3584 
Q 2397 3584 2469 3576 
Q 2541 3569 2628 3553 
L 2631 2963 
z
" transform="scale(0.015625)"/>
       <path id="DejaVuSans-5b" d="M 550 4863 
L 1875 4863 
L 1875 4416 
L 1125 4416 
L 1125 -397 
L 1875 -397 
L 1875 -844 
L 550 -844 
L 550 4863 
z
" transform="scale(0.015625)"/>
       <path id="DejaVuSans-6d" d="M 3328 2828 
Q 3544 3216 3844 3400 
Q 4144 3584 4550 3584 
Q 5097 3584 5394 3201 
Q 5691 2819 5691 2113 
L 5691 0 
L 5113 0 
L 5113 2094 
Q 5113 2597 4934 2840 
Q 4756 3084 4391 3084 
Q 3944 3084 3684 2787 
Q 3425 2491 3425 1978 
L 3425 0 
L 2847 0 
L 2847 2094 
Q 2847 2600 2669 2842 
Q 2491 3084 2119 3084 
Q 1678 3084 1418 2786 
Q 1159 2488 1159 1978 
L 1159 0 
L 581 0 
L 581 3500 
L 1159 3500 
L 1159 2956 
Q 1356 3278 1631 3431 
Q 1906 3584 2284 3584 
Q 2666 3584 2933 3390 
Q 3200 3197 3328 2828 
z
" transform="scale(0.015625)"/>
       <path id="DejaVuSans-5d" d="M 1947 4863 
L 1947 -844 
L 622 -844 
L 622 -397 
L 1369 -397 
L 1369 4416 
L 622 4416 
L 622 4863 
L 1947 4863 
z
" transform="scale(0.015625)"/>
      </defs>
      <use xlink:href="#DejaVuSans-50"/>
      <use xlink:href="#DejaVuSans-6f" transform="translate(56.677734 0)"/>
      <use xlink:href="#DejaVuSans-73" transform="translate(117.859375 0)"/>
      <use xlink:href="#DejaVuSans-69" transform="translate(169.958984 0)"/>
      <use xlink:href="#DejaVuSans-74" transform="translate(197.742188 0)"/>
      <use xlink:href="#DejaVuSans-69" transform="translate(236.951172 0)"/>
      <use xlink:href="#DejaVuSans-6f" transform="translate(264.734375 0)"/>
      <use xlink:href="#DejaVuSans-6e" transform="translate(325.916016 0)"/>
      <use xlink:href="#DejaVuSans-20" transform="translate(389.294922 0)"/>
      <use xlink:href="#DejaVuSans-45" transform="translate(421.082031 0)"/>
      <use xlink:href="#DejaVuSans-72" transform="translate(484.265625 0)"/>
      <use xlink:href="#DejaVuSans-72" transform="translate(523.628906 0)"/>
      <use xlink:href="#DejaVuSans-6f" transform="translate(562.492188 0)"/>
      <use xlink:href="#DejaVuSans-72" transform="translate(623.673828 0)"/>
      <use xlink:href="#DejaVuSans-20" transform="translate(664.787109 0)"/>
      <use xlink:href="#DejaVuSans-5b" transform="translate(696.574219 0)"/>
      <use xlink:href="#DejaVuSans-6d" transform="translate(735.587891 0)"/>
      <use xlink:href="#DejaVuSans-5d" transform="translate(833 0)"/>
     </g>
    </g>
   </g>
   <g id="line2d_17">
    <path d="M 74.604787 182.910703 
L 75.074651 125.346244 
L 75.309584 84.373698 
L 75.779448 163.042248 
L 76.719177 36.792174 
L 77.658906 58.892734 
L 77.893838 66.779435 
L 78.833567 141.896375 
L 79.0685 116.06417 
L 79.538364 122.066237 
L 80.008229 92.034539 
L 80.947958 128.606574 
L 81.18289 125.537071 
L 81.417822 117.589361 
L 81.652754 131.144853 
L 81.887687 127.383966 
L 82.122619 130.858616 
L 83.532212 70.990736 
L 85.41167 117.786311 
L 85.881535 121.045936 
L 86.586331 81.040815 
L 86.821264 62.633754 
L 87.291128 87.633858 
L 87.52606 80.563023 
L 87.760993 78.340962 
L 87.995925 84.499711 
L 88.935654 40.560532 
L 89.170586 45.267938 
L 89.640451 29.965391 
L 90.815112 73.984177 
L 91.050044 60.597232 
L 91.519909 80.232887 
L 91.754841 65.122258 
L 94.80896 180.409159 
L 95.748689 143.295778 
L 95.983621 150.137739 
L 96.92335 181.283454 
L 97.158282 174.787488 
L 97.863079 151.241124 
L 98.098011 164.347717 
L 98.332944 160.731811 
L 98.567876 182.055591 
L 99.507605 179.024848 
L 101.621995 142.861957 
L 101.856927 152.743679 
L 102.09186 160.121017 
L 102.796656 156.745484 
L 103.501453 157.308766 
L 104.20625 130.717174 
L 104.441182 130.927181 
L 105.615843 154.757584 
L 105.850775 153.815575 
L 106.085708 149.61887 
L 106.555572 156.974344 
L 107.260369 166.641944 
L 108.43503 181.604836 
L 109.844624 161.581311 
L 110.314488 163.31791 
L 110.784353 180.009243 
L 111.254217 173.831225 
L 111.724082 156.492938 
L 112.193946 161.459723 
L 112.663811 181.535179 
L 113.368607 166.940938 
L 113.838472 150.209203 
L 114.308336 163.951583 
L 114.778201 160.795418 
L 115.482997 145.86616 
L 115.71793 159.214376 
L 116.892591 182.345611 
L 116.187794 154.778309 
L 117.597388 178.770728 
L 118.067252 165.389766 
L 118.537117 167.989649 
L 119.476846 182.764677 
L 119.711778 179.644923 
L 120.181642 136.735784 
L 120.651507 152.094641 
L 121.356304 180.721452 
L 121.826168 171.259734 
L 122.765897 158.12245 
L 122.296033 177.242541 
L 123.000829 162.490886 
L 123.235762 176.284925 
L 123.705626 159.799558 
L 124.410423 130.267219 
L 124.645355 141.700941 
L 125.350152 172.609451 
L 126.054948 163.085431 
L 127.22961 142.189651 
L 127.464542 146.589749 
L 127.699474 147.219128 
L 128.169339 159.10659 
L 128.404271 148.684126 
L 128.874135 129.355019 
L 129.578932 131.991868 
L 130.048797 139.754314 
L 130.283729 154.158067 
L 130.988526 146.403342 
L 131.223458 137.822555 
L 131.928255 143.545347 
L 133.337848 161.498029 
L 133.57278 159.892692 
L 134.277577 156.40018 
L 135.217306 178.10166 
L 134.982374 153.527057 
L 135.452238 163.424253 
L 136.626899 151.275226 
L 136.157035 164.48154 
L 136.861832 154.866403 
L 137.801561 181.063769 
L 138.036493 174.430846 
L 138.506357 164.656906 
L 138.74129 169.618685 
L 138.976222 182.503978 
L 139.211154 166.872956 
L 139.681019 167.93567 
L 141.795409 125.504533 
L 143.439935 153.158883 
L 143.674867 147.934526 
L 144.144731 126.589463 
L 144.379663 121.487028 
L 144.614596 127.654357 
L 145.08446 127.289215 
L 146.259121 154.394688 
L 146.494054 139.625183 
L 147.19885 116.747058 
L 147.433783 127.027956 
L 148.843376 170.588404 
L 150.25297 138.352593 
L 150.487902 145.89266 
L 150.722834 133.976613 
L 151.192699 138.914643 
L 151.427631 138.528047 
L 151.662563 133.367306 
L 152.132428 142.926274 
L 152.36736 138.65742 
L 154.011886 111.672737 
L 154.246818 122.461723 
L 155.421479 135.353041 
L 156.59614 98.000173 
L 156.831072 103.325847 
L 157.066005 107.002716 
L 157.535869 73.529669 
L 158.240666 82.018999 
L 159.650259 104.181903 
L 159.885192 102.880384 
L 161.059853 124.406356 
L 161.294785 117.388954 
L 161.529717 118.442033 
L 161.999582 149.594088 
L 162.469446 126.85324 
L 163.644108 115.566302 
L 164.113972 128.335615 
L 164.583837 116.818372 
L 165.053701 94.169547 
L 165.758498 102.760226 
L 166.698227 88.801038 
L 166.933159 91.240245 
L 168.577685 126.391291 
L 168.812617 122.548654 
L 170.22221 159.741684 
L 170.457143 154.787401 
L 170.927007 157.403691 
L 171.866736 170.836075 
L 171.631804 156.075839 
L 172.101668 168.323148 
L 172.336601 167.026549 
L 172.571533 169.040199 
L 172.806465 181.226146 
L 173.511262 173.729829 
L 173.981126 178.370244 
L 175.155787 137.268522 
L 175.625652 155.367263 
L 175.860584 167.753502 
L 176.565381 157.992046 
L 177.035245 144.06343 
L 177.50511 146.300995 
L 177.740042 137.431002 
L 177.974974 147.478653 
L 178.444839 133.882192 
L 179.6195 101.726849 
L 179.854432 102.192508 
L 180.324297 101.439953 
L 181.029094 130.572589 
L 181.968823 109.114457 
L 182.203755 111.875188 
L 183.143484 147.606934 
L 183.378416 145.046252 
L 183.613348 143.447273 
L 185.022942 166.715686 
L 185.257874 161.56256 
L 186.197603 140.794226 
L 186.9024 144.707419 
L 187.372264 147.033278 
L 188.781858 118.895743 
L 189.01679 121.513503 
L 189.486654 108.050234 
L 189.956519 113.124942 
L 192.070909 180.611648 
L 192.540774 182.078282 
L 193.24557 166.96837 
L 194.185299 182.218568 
L 194.420232 179.280757 
L 195.359961 155.75868 
L 195.829825 160.892172 
L 196.064757 180.376432 
L 196.769554 162.952398 
L 197.709283 180.15639 
L 197.944215 173.181986 
L 199.353809 149.395297 
L 200.293538 167.901499 
L 200.52847 159.154347 
L 200.763402 153.152269 
L 200.998334 165.612525 
L 201.703131 154.227272 
L 201.938063 152.452164 
L 202.64286 130.560173 
L 203.112725 138.273963 
L 204.052454 164.520237 
L 203.582589 136.264969 
L 204.522318 149.019289 
L 206.166844 112.161064 
L 207.576437 117.78746 
L 210.160692 175.225843 
L 211.335353 155.984136 
L 211.805218 160.97239 
L 212.275082 139.634692 
L 213.449743 181.848796 
L 214.15454 157.788903 
L 214.624405 160.101353 
L 215.329201 175.051512 
L 215.564134 169.877536 
L 216.26893 153.211389 
L 216.503862 155.24525 
L 216.973727 169.733038 
L 217.443591 160.365608 
L 218.148388 140.057044 
L 218.38332 151.522449 
L 219.088117 181.435447 
L 219.557982 175.586792 
L 219.792914 179.749255 
L 220.027846 170.266035 
L 220.497711 152.021402 
L 220.967575 160.346861 
L 221.202507 166.727205 
L 221.43744 160.766574 
L 222.142236 130.201463 
L 222.612101 132.110774 
L 223.316898 159.57585 
L 223.55183 148.206385 
L 223.786762 139.712881 
L 224.021694 158.422882 
L 224.256627 160.288697 
L 224.726491 178.210471 
L 225.431288 177.519845 
L 226.371017 163.505075 
L 226.840881 166.011694 
L 227.545678 165.164646 
L 228.015542 182.49052 
L 228.955271 158.819456 
L 229.190204 176.152863 
L 229.895 154.422118 
L 230.129933 147.151468 
L 230.599797 159.281309 
L 231.304594 182.124555 
L 231.539526 169.213325 
L 231.774458 159.469589 
L 232.479255 165.795558 
L 232.94912 179.420635 
L 233.418984 165.353685 
L 233.653916 158.390013 
L 233.888849 167.693376 
L 234.358713 164.006585 
L 235.06351 154.375975 
L 236.003239 175.534088 
L 236.238171 171.854782 
L 236.473103 162.329277 
L 236.708036 181.491518 
L 236.942968 180.219974 
L 237.1779 180.900943 
L 237.882697 161.152133 
L 238.117629 165.175015 
L 238.587493 164.550037 
L 239.29229 178.566746 
L 240.466951 153.522195 
L 241.876545 180.314593 
L 243.521071 139.971644 
L 243.756003 137.890432 
L 244.225867 149.775682 
L 244.930664 144.460095 
L 245.165596 140.119383 
L 245.400529 144.093094 
L 246.340258 173.430405 
L 246.57519 171.366592 
L 248.219715 115.420949 
L 248.68958 138.598564 
L 249.159444 124.879116 
L 249.394377 124.509572 
L 250.099173 115.654961 
L 250.569038 132.868784 
L 251.508767 105.419331 
L 251.743699 120.748255 
L 251.978631 108.926197 
L 252.213564 123.674002 
L 252.683428 118.473009 
L 252.91836 116.056992 
L 253.388225 120.078578 
L 253.623157 125.054996 
L 253.858089 109.620334 
L 254.093022 115.404307 
L 255.502615 98.16454 
L 255.737547 98.733483 
L 255.97248 104.741882 
L 256.442344 96.023112 
L 257.851937 61.496359 
L 258.08687 67.724519 
L 258.321802 63.483228 
L 258.556734 45.01447 
L 259.261531 59.172443 
L 259.496463 71.630171 
L 259.966328 55.151272 
L 260.20126 54.018838 
L 260.436192 54.191274 
L 261.140989 76.499609 
L 261.610853 90.925051 
L 262.550582 88.418189 
L 262.785515 85.356181 
L 264.43004 126.278875 
L 265.369769 140.034471 
L 265.604702 138.818626 
L 265.839634 131.507461 
L 266.309498 138.393053 
L 266.779363 154.938529 
L 267.249227 154.422428 
L 268.893753 110.921408 
L 269.833482 132.392875 
L 270.068414 130.832571 
L 270.303346 128.429448 
L 270.538279 135.595961 
L 270.773211 130.883647 
L 271.478008 124.926815 
L 272.652669 163.920864 
L 273.82733 132.458432 
L 274.062262 139.327225 
L 274.767059 163.59392 
L 275.236924 153.558521 
L 275.706788 152.640479 
L 275.94172 158.268747 
L 276.646517 132.970614 
L 276.881449 135.487139 
L 277.116382 151.359975 
L 277.586246 138.836315 
L 278.760907 112.503934 
L 280.405433 160.606675 
L 280.640365 160.463921 
L 280.875297 152.075072 
L 281.11023 170.126445 
L 281.580094 179.402451 
L 282.049959 179.129831 
L 282.754755 170.112466 
L 282.989688 181.042759 
L 283.459552 168.0391 
L 283.694484 172.31924 
L 284.869146 157.984257 
L 284.399281 174.734893 
L 285.104078 158.916438 
L 285.808875 176.98681 
L 286.043807 160.358147 
L 286.513671 140.912043 
L 286.983536 157.967004 
L 287.218468 155.269968 
L 288.158197 181.335615 
L 288.628062 180.336333 
L 289.097926 162.934869 
L 289.802723 167.139492 
L 290.037655 171.676671 
L 290.272587 165.847729 
L 290.507519 166.818822 
L 291.212316 168.277573 
L 292.152045 150.498528 
L 292.856842 165.213846 
L 293.091774 158.227242 
L 293.326706 153.147724 
L 294.266435 182.898994 
L 294.501368 176.256274 
L 294.7363 180.437295 
L 295.206164 172.458331 
L 295.441097 163.93237 
L 295.910961 180.622717 
L 296.145893 164.627786 
L 296.380826 173.99636 
L 296.85069 159.620694 
L 297.320555 173.318221 
L 297.555487 180.109477 
L 297.790419 166.994856 
L 298.495216 154.084775 
L 298.96508 155.622914 
L 300.139741 182.613867 
L 300.374674 181.955972 
L 301.07947 163.470006 
L 301.314403 133.26056 
L 302.019199 156.175716 
L 302.958928 145.2028 
L 303.663725 146.792422 
L 303.898657 149.162641 
L 304.13359 142.010192 
L 304.838386 130.495596 
L 305.073319 135.745614 
L 305.543183 144.674926 
L 306.013048 139.361957 
L 306.24798 139.250875 
L 306.717844 139.168011 
L 307.187709 150.308018 
L 308.127438 118.573369 
L 308.597302 129.068309 
L 309.771963 150.899991 
L 310.006896 149.883233 
L 310.241828 151.722971 
L 311.416489 178.581799 
L 312.826083 146.432809 
L 313.061015 146.367889 
L 313.295947 141.636572 
L 313.530879 150.346079 
L 314.000744 169.172146 
L 314.470608 158.028704 
L 314.940473 161.174637 
L 315.64527 132.506788 
L 316.350066 126.068621 
L 317.289795 163.469547 
L 317.75966 148.947593 
L 318.229524 163.957507 
L 319.169253 182.029843 
L 319.404186 172.457444 
L 320.108982 177.591772 
L 320.578847 166.755269 
L 320.813779 167.143333 
L 321.048711 176.810926 
L 321.753508 172.235386 
L 321.98844 165.963693 
L 322.223372 172.860525 
L 322.693237 169.323296 
L 322.928169 168.859289 
L 324.10283 180.929189 
L 325.747356 139.76686 
L 327.626814 98.056898 
L 327.861746 99.589743 
L 328.096679 97.193673 
L 328.331611 90.84428 
L 328.566543 97.07822 
L 329.036408 108.590847 
L 329.27134 95.952336 
L 329.506272 76.843123 
L 330.211069 82.856087 
L 330.680933 87.529712 
L 330.915865 87.491674 
L 331.150798 76.239953 
L 331.620662 87.89653 
L 333.969985 132.312009 
L 334.204917 130.51966 
L 334.439849 133.281435 
L 334.909714 138.01498 
L 336.084375 181.671324 
L 337.259036 146.518053 
L 337.493968 160.716997 
L 337.728901 161.557084 
L 338.66863 182.789587 
L 338.903562 174.666508 
L 339.608359 157.247102 
L 339.843291 158.498933 
L 340.078223 177.323327 
L 340.78302 158.439371 
L 341.017952 175.350417 
L 341.487816 178.463772 
L 342.89741 137.014869 
L 343.132342 147.714828 
L 343.602207 134.196441 
L 343.837139 139.88131 
L 344.307003 150.11681 
L 344.541936 142.794675 
L 344.776868 135.872089 
L 345.0118 152.460646 
L 345.481665 156.626807 
L 345.716597 153.721622 
L 346.186461 149.032047 
L 346.656326 163.125614 
L 347.361123 158.996959 
L 347.596055 156.874992 
L 348.065919 171.054954 
L 348.535784 155.465355 
L 348.770716 166.389333 
L 349.945377 129.132352 
L 350.18031 138.991259 
L 350.885106 160.379961 
L 351.354971 156.792049 
L 351.589903 142.472211 
L 352.059767 157.677946 
L 353.704293 182.598393 
L 355.348819 154.358934 
L 355.583751 170.845046 
L 356.053616 154.226623 
L 356.52348 144.279406 
L 356.758412 150.752048 
L 358.402938 182.128386 
L 358.872803 180.49542 
L 359.107735 181.153883 
L 359.342667 174.383271 
L 359.577599 182.347609 
L 360.047464 181.328429 
L 360.987193 175.883694 
L 361.222125 178.03949 
L 361.457057 182.175853 
L 361.691989 165.509567 
L 362.396786 180.382864 
L 363.571447 167.32832 
L 362.866651 181.985775 
L 363.80638 172.708907 
L 364.041312 181.704989 
L 364.276244 153.475151 
L 365.215973 171.302526 
L 364.746109 150.666783 
L 365.685838 167.058546 
L 366.390634 138.995052 
L 367.095431 144.737864 
L 368.739957 108.902749 
L 369.209821 136.241188 
L 369.679686 126.269851 
L 369.914618 120.539724 
L 370.384483 129.493846 
L 371.559144 155.64385 
L 372.26394 182.295792 
L 372.968737 181.830712 
L 374.613263 158.073372 
L 375.083127 157.61445 
L 375.31806 159.538904 
L 376.022856 150.75948 
L 376.257789 164.063564 
L 376.727653 158.472103 
L 377.43245 136.564129 
L 377.667382 147.784452 
L 380.251637 180.257492 
L 380.486569 179.04086 
L 380.721501 171.685477 
L 381.191366 181.414105 
L 381.426298 180.375377 
L 381.66123 182.739829 
L 381.896162 176.057198 
L 382.600959 182.436805 
L 383.305756 165.142935 
L 383.77562 173.950558 
L 384.245485 160.187827 
L 384.715349 172.134303 
L 384.950282 169.959573 
L 385.420146 143.021768 
L 385.890011 153.709894 
L 386.124943 156.206255 
L 387.064672 127.3361 
L 387.299604 146.357222 
L 387.534536 147.289653 
L 388.004401 140.950099 
L 388.474265 147.966713 
L 388.709198 144.295006 
L 389.179062 150.577112 
L 390.353723 181.522304 
L 390.588656 180.548641 
L 393.17291 117.327589 
L 393.877707 121.350109 
L 394.347571 130.707905 
L 394.582504 121.987679 
L 395.522233 101.26768 
L 395.052368 128.223998 
L 395.992097 113.896581 
L 396.696894 119.603593 
L 396.461962 112.52533 
L 396.931826 114.085677 
L 397.166758 113.594363 
L 397.401691 108.294037 
L 397.636623 128.151452 
L 398.34142 117.030786 
L 400.220878 146.734665 
L 400.45581 139.821572 
L 400.690742 138.91824 
L 400.925674 147.713577 
L 401.160607 127.822986 
L 401.630471 121.066526 
L 401.865403 124.272641 
L 403.509929 180.898562 
L 403.744861 176.275467 
L 405.154455 161.983527 
L 405.389387 164.781393 
L 405.624319 172.003138 
L 406.094184 160.61362 
L 407.268845 143.181616 
L 407.503777 145.229359 
L 407.738709 145.481333 
L 407.973642 149.959528 
L 408.208574 139.637874 
L 408.913371 116.56079 
L 409.148303 130.636992 
L 410.088032 175.104612 
L 411.027761 162.687783 
L 411.262693 150.038196 
L 411.732558 171.525521 
L 411.96749 173.174172 
L 412.202422 182.837941 
L 412.672287 172.829632 
L 413.142151 166.430284 
L 413.377083 168.222622 
L 413.846948 182.846388 
L 414.551744 181.224731 
L 414.786677 182.238992 
L 415.256541 180.134261 
L 415.726406 178.409588 
L 416.19627 179.952692 
L 416.901067 144.468353 
L 417.370931 145.018936 
L 418.545593 175.349621 
L 417.840796 139.085825 
L 418.780525 168.216568 
L 419.485322 182.34925 
L 420.190118 176.670396 
L 420.659983 181.507606 
L 420.894915 177.311556 
L 421.599712 145.103739 
L 421.834644 163.152751 
L 422.539441 181.258653 
L 423.009305 168.057189 
L 423.244237 162.463088 
L 423.47917 171.228976 
L 423.714102 175.230077 
L 423.949034 166.414161 
L 424.183966 164.026822 
L 424.418899 171.852689 
L 424.888763 159.568292 
L 425.123695 158.917636 
L 425.358628 159.335141 
L 426.768221 147.972672 
L 427.003153 152.523768 
L 427.238086 147.679369 
L 427.473018 141.311811 
L 427.942882 150.771558 
L 428.882611 179.902127 
L 429.117544 173.798225 
L 429.82234 151.407254 
L 430.057273 137.242508 
L 430.527137 155.02757 
L 430.762069 151.707054 
L 430.997002 163.97365 
L 431.466866 151.675486 
L 431.936731 133.587827 
L 432.641527 143.304556 
L 433.346324 160.898768 
L 434.051121 157.877608 
L 435.225782 119.455055 
L 435.695646 133.415052 
L 436.165511 131.73876 
L 436.635375 140.09412 
L 436.870308 131.313456 
L 437.340172 132.54975 
L 437.575104 145.823716 
L 438.279901 134.853824 
L 439.689495 168.192657 
L 440.159359 179.291453 
L 440.394291 166.401542 
L 440.629224 162.121307 
L 440.864156 174.347593 
L 441.33402 179.543837 
L 441.568953 176.439761 
L 442.273749 182.263744 
L 442.743614 167.548904 
L 443.448411 182.297187 
L 443.683343 173.756563 
L 445.092936 133.010515 
L 445.327868 142.343665 
L 445.562801 143.159569 
L 446.032665 170.298932 
L 446.737462 158.160384 
L 447.912123 149.119654 
L 448.147055 161.957322 
L 448.61692 147.544818 
L 449.791581 115.059914 
L 450.73131 121.716643 
L 452.140904 174.595706 
L 452.8457 165.373817 
L 454.255294 140.808533 
L 454.490226 142.781663 
L 454.725158 156.995915 
L 455.429955 154.96573 
L 456.134752 128.441704 
L 457.074481 132.167801 
L 457.544345 144.847455 
L 458.01421 139.515821 
L 458.484074 134.007945 
L 458.719006 134.947316 
L 459.423803 99.114672 
L 459.893668 108.466546 
L 460.598464 83.284771 
L 461.303261 87.228635 
L 461.538193 88.201995 
L 462.24299 81.554318 
L 462.477922 87.408718 
L 462.712855 85.74748 
L 464.122448 121.928201 
L 464.592312 115.552438 
L 464.827245 109.239106 
L 465.766974 149.846184 
L 466.001906 142.450419 
L 466.236838 149.186136 
L 466.47177 128.571323 
L 466.706703 141.755827 
L 467.881364 116.737755 
L 468.351228 129.588883 
L 469.056025 119.252731 
L 469.290957 118.328831 
L 469.52589 109.039994 
L 469.995754 115.305268 
L 470.935483 164.896483 
L 471.170415 148.65896 
L 471.64028 177.170507 
L 472.110144 163.191468 
L 472.580009 162.330574 
L 472.814941 167.145481 
L 473.049873 158.058968 
L 473.519738 124.37193 
L 473.989602 149.13029 
L 474.694399 168.816904 
L 475.164263 157.3809 
L 475.399196 159.659647 
L 475.634128 155.529778 
L 477.513586 119.401564 
L 476.103992 164.787122 
L 477.748518 122.112882 
L 478.453315 129.971392 
L 479.158112 113.538441 
L 479.862908 146.410095 
L 480.332773 129.587013 
L 480.567705 129.714255 
L 481.272502 138.133738 
L 481.742366 112.685589 
L 482.447163 117.786801 
L 482.682095 117.286856 
L 483.856757 98.259736 
L 484.091689 104.522001 
L 487.38074 182.146408 
L 487.615672 177.675107 
L 488.555401 167.278829 
L 488.790334 167.513152 
L 489.260198 169.027385 
L 489.49513 163.705516 
L 489.964995 175.711104 
L 490.434859 175.516035 
L 490.904724 161.777466 
L 491.374588 169.91136 
L 491.609521 181.973024 
L 492.079385 162.986883 
L 492.314317 173.616108 
L 492.784182 159.383404 
L 494.428708 103.992408 
L 494.66364 102.830515 
L 495.838301 130.344248 
L 496.073233 125.941658 
L 497.717759 87.035283 
L 497.952691 100.825356 
L 498.422556 100.73632 
L 499.362285 132.206206 
L 499.597217 123.869372 
L 499.832149 136.175204 
L 500.067081 128.451672 
L 501.476675 155.160676 
L 500.771878 128.409959 
L 501.711607 153.547187 
L 501.946539 144.213358 
L 502.416404 144.646516 
L 503.121201 168.448009 
L 503.591065 155.843022 
L 504.765726 170.2013 
L 505.235591 166.134511 
L 505.470523 167.3743 
L 505.940387 182.33744 
L 506.17532 173.66223 
L 506.410252 166.16507 
L 506.645184 180.15245 
L 506.880116 174.053609 
L 507.349981 179.039047 
L 508.054778 151.030269 
L 508.524642 155.996405 
L 508.759574 152.955436 
L 509.699303 179.38952 
L 509.934236 168.063444 
L 511.343829 148.500342 
L 511.578761 157.292972 
L 512.048626 150.300227 
L 512.283558 141.099018 
L 512.51849 153.216436 
L 512.753423 167.677936 
L 513.458219 164.643864 
L 513.693152 151.091501 
L 514.163016 167.744399 
L 514.397948 166.806174 
L 514.867813 177.319856 
L 515.102745 173.050566 
L 515.807542 156.83341 
L 516.042474 165.041592 
L 516.277406 180.208473 
L 516.982203 174.751448 
L 518.391796 149.834645 
L 517.452067 180.816658 
L 518.626729 154.523261 
L 519.331525 181.498561 
L 519.80139 180.08343 
L 520.741119 145.519065 
L 521.210983 162.654513 
L 521.445916 171.140921 
L 521.91578 157.019165 
L 522.385645 147.749973 
L 522.620577 157.3042 
L 522.855509 165.162302 
L 523.090441 148.638867 
L 523.325374 151.462136 
L 523.560306 149.314114 
L 523.795238 151.293813 
L 524.265103 156.033181 
L 524.500035 140.445158 
L 524.969899 159.72518 
L 525.909628 169.021979 
L 526.379493 143.033375 
L 526.849357 164.465601 
L 527.084289 165.394105 
L 528.728815 112.880421 
L 528.963747 124.768072 
L 529.433612 115.755189 
L 529.903476 126.363154 
L 530.843205 159.386853 
L 531.078138 158.476851 
L 531.31307 157.144442 
L 531.782934 181.289491 
L 532.722663 179.072595 
L 533.662392 163.704588 
L 533.42746 180.8416 
L 533.897325 165.809784 
L 534.132257 165.63211 
L 534.367189 174.373096 
L 534.837054 159.971562 
L 535.071986 164.541566 
L 535.54185 150.034685 
L 536.011715 156.315622 
L 536.246647 163.555739 
L 536.716512 155.822683 
L 538.361037 128.086205 
L 538.595969 128.554033 
L 541.180224 161.802709 
L 541.650089 161.396941 
L 542.82475 130.775125 
L 543.059682 133.015664 
L 543.294614 134.249051 
L 543.529547 123.830693 
L 543.764479 136.763787 
L 544.234343 135.248648 
L 544.469276 152.617719 
L 544.469276 152.617719 
" clip-path="url(#p39dcb05678)" style="fill: none; stroke: #e41a1c; stroke-width: 2; stroke-linecap: square"/>
   </g>
   <g id="patch_3">
    <path d="M 51.111563 190.557969 
L 51.111563 22.318125 
" style="fill: none; stroke: #7f7f7f; stroke-width: 1.8; stroke-linejoin: miter; stroke-linecap: square"/>
   </g>
   <g id="patch_4">
    <path d="M 51.111563 190.557969 
L 567.9625 190.557969 
" style="fill: none; stroke: #7f7f7f; stroke-width: 1.8; stroke-linejoin: miter; stroke-linecap: square"/>
   </g>
   <g id="text_18">
    <!-- Kalman Filter Estimation Error -->
    <g style="fill: #7f7f7f" transform="translate(206.523594 16.318125) scale(0.12 -0.12)">
     <defs>
      <path id="DejaVuSans-Bold-4b" d="M 588 4666 
L 1791 4666 
L 1791 2963 
L 3525 4666 
L 4922 4666 
L 2675 2456 
L 5153 0 
L 3647 0 
L 1791 1838 
L 1791 0 
L 588 0 
L 588 4666 
z
" transform="scale(0.015625)"/>
      <path id="DejaVuSans-Bold-61" d="M 2106 1575 
Q 1756 1575 1579 1456 
Q 1403 1338 1403 1106 
Q 1403 894 1545 773 
Q 1688 653 1941 653 
Q 2256 653 2472 879 
Q 2688 1106 2688 1447 
L 2688 1575 
L 2106 1575 
z
M 3816 1997 
L 3816 0 
L 2688 0 
L 2688 519 
Q 2463 200 2181 54 
Q 1900 -91 1497 -91 
Q 953 -91 614 226 
Q 275 544 275 1050 
Q 275 1666 698 1953 
Q 1122 2241 2028 2241 
L 2688 2241 
L 2688 2328 
Q 2688 2594 2478 2717 
Q 2269 2841 1825 2841 
Q 1466 2841 1156 2769 
Q 847 2697 581 2553 
L 581 3406 
Q 941 3494 1303 3539 
Q 1666 3584 2028 3584 
Q 2975 3584 3395 3211 
Q 3816 2838 3816 1997 
z
" transform="scale(0.015625)"/>
      <path id="DejaVuSans-Bold-6c" d="M 538 4863 
L 1656 4863 
L 1656 0 
L 538 0 
L 538 4863 
z
" transform="scale(0.015625)"/>
      <path id="DejaVuSans-Bold-6d" d="M 3781 2919 
Q 3994 3244 4286 3414 
Q 4578 3584 4928 3584 
Q 5531 3584 5847 3212 
Q 6163 2841 6163 2131 
L 6163 0 
L 5038 0 
L 5038 1825 
Q 5041 1866 5042 1909 
Q 5044 1953 5044 2034 
Q 5044 2406 4934 2573 
Q 4825 2741 4581 2741 
Q 4263 2741 4089 2478 
Q 3916 2216 3909 1719 
L 3909 0 
L 2784 0 
L 2784 1825 
Q 2784 2406 2684 2573 
Q 2584 2741 2328 2741 
Q 2006 2741 1831 2477 
Q 1656 2213 1656 1722 
L 1656 0 
L 531 0 
L 531 3500 
L 1656 3500 
L 1656 2988 
Q 1863 3284 2130 3434 
Q 2397 3584 2719 3584 
Q 3081 3584 3359 3409 
Q 3638 3234 3781 2919 
z
" transform="scale(0.015625)"/>
      <path id="DejaVuSans-Bold-6e" d="M 4056 2131 
L 4056 0 
L 2931 0 
L 2931 347 
L 2931 1631 
Q 2931 2084 2911 2256 
Q 2891 2428 2841 2509 
Q 2775 2619 2662 2680 
Q 2550 2741 2406 2741 
Q 2056 2741 1856 2470 
Q 1656 2200 1656 1722 
L 1656 0 
L 538 0 
L 538 3500 
L 1656 3500 
L 1656 2988 
Q 1909 3294 2193 3439 
Q 2478 3584 2822 3584 
Q 3428 3584 3742 3212 
Q 4056 2841 4056 2131 
z
" transform="scale(0.015625)"/>
      <path id="DejaVuSans-Bold-20" transform="scale(0.015625)"/>
      <path id="DejaVuSans-Bold-46" d="M 588 4666 
L 3834 4666 
L 3834 3756 
L 1791 3756 
L 1791 2888 
L 3713 2888 
L 3713 1978 
L 1791 1978 
L 1791 0 
L 588 0 
L 588 4666 
z
" transform="scale(0.015625)"/>
      <path id="DejaVuSans-Bold-69" d="M 538 3500 
L 1656 3500 
L 1656 0 
L 538 0 
L 538 3500 
z
M 538 4863 
L 1656 4863 
L 1656 3950 
L 538 3950 
L 538 4863 
z
" transform="scale(0.015625)"/>
      <path id="DejaVuSans-Bold-74" d="M 1759 4494 
L 1759 3500 
L 2913 3500 
L 2913 2700 
L 1759 2700 
L 1759 1216 
Q 1759 972 1856 886 
Q 1953 800 2241 800 
L 2816 800 
L 2816 0 
L 1856 0 
Q 1194 0 917 276 
Q 641 553 641 1216 
L 641 2700 
L 84 2700 
L 84 3500 
L 641 3500 
L 641 4494 
L 1759 4494 
z
" transform="scale(0.015625)"/>
      <path id="DejaVuSans-Bold-65" d="M 4031 1759 
L 4031 1441 
L 1416 1441 
Q 1456 1047 1700 850 
Q 1944 653 2381 653 
Q 2734 653 3104 758 
Q 3475 863 3866 1075 
L 3866 213 
Q 3469 63 3072 -14 
Q 2675 -91 2278 -91 
Q 1328 -91 801 392 
Q 275 875 275 1747 
Q 275 2603 792 3093 
Q 1309 3584 2216 3584 
Q 3041 3584 3536 3087 
Q 4031 2591 4031 1759 
z
M 2881 2131 
Q 2881 2450 2695 2645 
Q 2509 2841 2209 2841 
Q 1884 2841 1681 2658 
Q 1478 2475 1428 2131 
L 2881 2131 
z
" transform="scale(0.015625)"/>
      <path id="DejaVuSans-Bold-72" d="M 3138 2547 
Q 2991 2616 2845 2648 
Q 2700 2681 2553 2681 
Q 2122 2681 1889 2404 
Q 1656 2128 1656 1613 
L 1656 0 
L 538 0 
L 538 3500 
L 1656 3500 
L 1656 2925 
Q 1872 3269 2151 3426 
Q 2431 3584 2822 3584 
Q 2878 3584 2943 3579 
Q 3009 3575 3134 3559 
L 3138 2547 
z
" transform="scale(0.015625)"/>
      <path id="DejaVuSans-Bold-45" d="M 588 4666 
L 3834 4666 
L 3834 3756 
L 1791 3756 
L 1791 2888 
L 3713 2888 
L 3713 1978 
L 1791 1978 
L 1791 909 
L 3903 909 
L 3903 0 
L 588 0 
L 588 4666 
z
" transform="scale(0.015625)"/>
      <path id="DejaVuSans-Bold-73" d="M 3272 3391 
L 3272 2541 
Q 2913 2691 2578 2766 
Q 2244 2841 1947 2841 
Q 1628 2841 1473 2761 
Q 1319 2681 1319 2516 
Q 1319 2381 1436 2309 
Q 1553 2238 1856 2203 
L 2053 2175 
Q 2913 2066 3209 1816 
Q 3506 1566 3506 1031 
Q 3506 472 3093 190 
Q 2681 -91 1863 -91 
Q 1516 -91 1145 -36 
Q 775 19 384 128 
L 384 978 
Q 719 816 1070 734 
Q 1422 653 1784 653 
Q 2113 653 2278 743 
Q 2444 834 2444 1013 
Q 2444 1163 2330 1236 
Q 2216 1309 1875 1350 
L 1678 1375 
Q 931 1469 631 1722 
Q 331 1975 331 2491 
Q 331 3047 712 3315 
Q 1094 3584 1881 3584 
Q 2191 3584 2531 3537 
Q 2872 3491 3272 3391 
z
" transform="scale(0.015625)"/>
      <path id="DejaVuSans-Bold-6f" d="M 2203 2784 
Q 1831 2784 1636 2517 
Q 1441 2250 1441 1747 
Q 1441 1244 1636 976 
Q 1831 709 2203 709 
Q 2569 709 2762 976 
Q 2956 1244 2956 1747 
Q 2956 2250 2762 2517 
Q 2569 2784 2203 2784 
z
M 2203 3584 
Q 3106 3584 3614 3096 
Q 4122 2609 4122 1747 
Q 4122 884 3614 396 
Q 3106 -91 2203 -91 
Q 1297 -91 786 396 
Q 275 884 275 1747 
Q 275 2609 786 3096 
Q 1297 3584 2203 3584 
z
" transform="scale(0.015625)"/>
     </defs>
     <use xlink:href="#DejaVuSans-Bold-4b"/>
     <use xlink:href="#DejaVuSans-Bold-61" transform="translate(77.490234 0)"/>
     <use xlink:href="#DejaVuSans-Bold-6c" transform="translate(144.970703 0)"/>
     <use xlink:href="#DejaVuSans-Bold-6d" transform="translate(179.248047 0)"/>
     <use xlink:href="#DejaVuSans-Bold-61" transform="translate(283.447266 0)"/>
     <use xlink:href="#DejaVuSans-Bold-6e" transform="translate(350.927734 0)"/>
     <use xlink:href="#DejaVuSans-Bold-20" transform="translate(422.119141 0)"/>
     <use xlink:href="#DejaVuSans-Bold-46" transform="translate(456.933594 0)"/>
     <use xlink:href="#DejaVuSans-Bold-69" transform="translate(525.244141 0)"/>
     <use xlink:href="#DejaVuSans-Bold-6c" transform="translate(559.521484 0)"/>
     <use xlink:href="#DejaVuSans-Bold-74" transform="translate(593.798828 0)"/>
     <use xlink:href="#DejaVuSans-Bold-65" transform="translate(641.601562 0)"/>
     <use xlink:href="#DejaVuSans-Bold-72" transform="translate(709.423828 0)"/>
     <use xlink:href="#DejaVuSans-Bold-20" transform="translate(758.740234 0)"/>
     <use xlink:href="#DejaVuSans-Bold-45" transform="translate(793.554688 0)"/>
     <use xlink:href="#DejaVuSans-Bold-73" transform="translate(861.865234 0)"/>
     <use xlink:href="#DejaVuSans-Bold-74" transform="translate(921.386719 0)"/>
     <use xlink:href="#DejaVuSans-Bold-69" transform="translate(969.189453 0)"/>
     <use xlink:href="#DejaVuSans-Bold-6d" transform="translate(1003.466797 0)"/>
     <use xlink:href="#DejaVuSans-Bold-61" transform="translate(1107.666016 0)"/>
     <use xlink:href="#DejaVuSans-Bold-74" transform="translate(1175.146484 0)"/>
     <use xlink:href="#DejaVuSans-Bold-69" transform="translate(1222.949219 0)"/>
     <use xlink:href="#DejaVuSans-Bold-6f" transform="translate(1257.226562 0)"/>
     <use xlink:href="#DejaVuSans-Bold-6e" transform="translate(1325.927734 0)"/>
     <use xlink:href="#DejaVuSans-Bold-20" transform="translate(1397.119141 0)"/>
     <use xlink:href="#DejaVuSans-Bold-45" transform="translate(1431.933594 0)"/>
     <use xlink:href="#DejaVuSans-Bold-72" transform="translate(1500.244141 0)"/>
     <use xlink:href="#DejaVuSans-Bold-72" transform="translate(1549.560547 0)"/>
     <use xlink:href="#DejaVuSans-Bold-6f" transform="translate(1598.876953 0)"/>
     <use xlink:href="#DejaVuSans-Bold-72" transform="translate(1667.578125 0)"/>
    </g>
   </g>
  </g>
  <g id="axes_2">
   <g id="patch_5">
    <path d="M 51.111563 386.275937 
L 567.9625 386.275937 
L 567.9625 218.036094 
L 51.111563 218.036094 
L 51.111563 386.275937 
z
" style="fill: none"/>
   </g>
   <g id="matplotlib.axis_3">
    <g id="xtick_10">
     <g id="line2d_18">
      <g>
       <use xlink:href="#md21dadc425" x="74.604787" y="386.275937" style="fill: #7f7f7f; stroke: #7f7f7f; stroke-width: 1.8"/>
      </g>
     </g>
     <g id="text_19">
      <!-- 0.0 -->
      <g style="fill: #7f7f7f" transform="translate(66.653224 400.874375) scale(0.1 -0.1)">
       <use xlink:href="#DejaVuSans-30"/>
       <use xlink:href="#DejaVuSans-2e" transform="translate(63.623047 0)"/>
       <use xlink:href="#DejaVuSans-30" transform="translate(95.410156 0)"/>
      </g>
     </g>
    </g>
    <g id="xtick_11">
     <g id="line2d_19">
      <g>
       <use xlink:href="#md21dadc425" x="133.337848" y="386.275937" style="fill: #7f7f7f; stroke: #7f7f7f; stroke-width: 1.8"/>
      </g>
     </g>
     <g id="text_20">
      <!-- 2.5 -->
      <g style="fill: #7f7f7f" transform="translate(125.386286 400.874375) scale(0.1 -0.1)">
       <use xlink:href="#DejaVuSans-32"/>
       <use xlink:href="#DejaVuSans-2e" transform="translate(63.623047 0)"/>
       <use xlink:href="#DejaVuSans-35" transform="translate(95.410156 0)"/>
      </g>
     </g>
    </g>
    <g id="xtick_12">
     <g id="line2d_20">
      <g>
       <use xlink:href="#md21dadc425" x="192.070909" y="386.275937" style="fill: #7f7f7f; stroke: #7f7f7f; stroke-width: 1.8"/>
      </g>
     </g>
     <g id="text_21">
      <!-- 5.0 -->
      <g style="fill: #7f7f7f" transform="translate(184.119347 400.874375) scale(0.1 -0.1)">
       <use xlink:href="#DejaVuSans-35"/>
       <use xlink:href="#DejaVuSans-2e" transform="translate(63.623047 0)"/>
       <use xlink:href="#DejaVuSans-30" transform="translate(95.410156 0)"/>
      </g>
     </g>
    </g>
    <g id="xtick_13">
     <g id="line2d_21">
      <g>
       <use xlink:href="#md21dadc425" x="250.80397" y="386.275937" style="fill: #7f7f7f; stroke: #7f7f7f; stroke-width: 1.8"/>
      </g>
     </g>
     <g id="text_22">
      <!-- 7.5 -->
      <g style="fill: #7f7f7f" transform="translate(242.852408 400.874375) scale(0.1 -0.1)">
       <use xlink:href="#DejaVuSans-37"/>
       <use xlink:href="#DejaVuSans-2e" transform="translate(63.623047 0)"/>
       <use xlink:href="#DejaVuSans-35" transform="translate(95.410156 0)"/>
      </g>
     </g>
    </g>
    <g id="xtick_14">
     <g id="line2d_22">
      <g>
       <use xlink:href="#md21dadc425" x="309.537031" y="386.275937" style="fill: #7f7f7f; stroke: #7f7f7f; stroke-width: 1.8"/>
      </g>
     </g>
     <g id="text_23">
      <!-- 10.0 -->
      <g style="fill: #7f7f7f" transform="translate(298.404219 400.874375) scale(0.1 -0.1)">
       <use xlink:href="#DejaVuSans-31"/>
       <use xlink:href="#DejaVuSans-30" transform="translate(63.623047 0)"/>
       <use xlink:href="#DejaVuSans-2e" transform="translate(127.246094 0)"/>
       <use xlink:href="#DejaVuSans-30" transform="translate(159.033203 0)"/>
      </g>
     </g>
    </g>
    <g id="xtick_15">
     <g id="line2d_23">
      <g>
       <use xlink:href="#md21dadc425" x="368.270092" y="386.275937" style="fill: #7f7f7f; stroke: #7f7f7f; stroke-width: 1.8"/>
      </g>
     </g>
     <g id="text_24">
      <!-- 12.5 -->
      <g style="fill: #7f7f7f" transform="translate(357.13728 400.874375) scale(0.1 -0.1)">
       <use xlink:href="#DejaVuSans-31"/>
       <use xlink:href="#DejaVuSans-32" transform="translate(63.623047 0)"/>
       <use xlink:href="#DejaVuSans-2e" transform="translate(127.246094 0)"/>
       <use xlink:href="#DejaVuSans-35" transform="translate(159.033203 0)"/>
      </g>
     </g>
    </g>
    <g id="xtick_16">
     <g id="line2d_24">
      <g>
       <use xlink:href="#md21dadc425" x="427.003153" y="386.275937" style="fill: #7f7f7f; stroke: #7f7f7f; stroke-width: 1.8"/>
      </g>
     </g>
     <g id="text_25">
      <!-- 15.0 -->
      <g style="fill: #7f7f7f" transform="translate(415.870341 400.874375) scale(0.1 -0.1)">
       <use xlink:href="#DejaVuSans-31"/>
       <use xlink:href="#DejaVuSans-35" transform="translate(63.623047 0)"/>
       <use xlink:href="#DejaVuSans-2e" transform="translate(127.246094 0)"/>
       <use xlink:href="#DejaVuSans-30" transform="translate(159.033203 0)"/>
      </g>
     </g>
    </g>
    <g id="xtick_17">
     <g id="line2d_25">
      <g>
       <use xlink:href="#md21dadc425" x="485.736214" y="386.275937" style="fill: #7f7f7f; stroke: #7f7f7f; stroke-width: 1.8"/>
      </g>
     </g>
     <g id="text_26">
      <!-- 17.5 -->
      <g style="fill: #7f7f7f" transform="translate(474.603402 400.874375) scale(0.1 -0.1)">
       <use xlink:href="#DejaVuSans-31"/>
       <use xlink:href="#DejaVuSans-37" transform="translate(63.623047 0)"/>
       <use xlink:href="#DejaVuSans-2e" transform="translate(127.246094 0)"/>
       <use xlink:href="#DejaVuSans-35" transform="translate(159.033203 0)"/>
      </g>
     </g>
    </g>
    <g id="xtick_18">
     <g id="line2d_26">
      <g>
       <use xlink:href="#md21dadc425" x="544.469276" y="386.275937" style="fill: #7f7f7f; stroke: #7f7f7f; stroke-width: 1.8"/>
      </g>
     </g>
     <g id="text_27">
      <!-- 20.0 -->
      <g style="fill: #7f7f7f" transform="translate(533.336463 400.874375) scale(0.1 -0.1)">
       <use xlink:href="#DejaVuSans-32"/>
       <use xlink:href="#DejaVuSans-30" transform="translate(63.623047 0)"/>
       <use xlink:href="#DejaVuSans-2e" transform="translate(127.246094 0)"/>
       <use xlink:href="#DejaVuSans-30" transform="translate(159.033203 0)"/>
      </g>
     </g>
    </g>
    <g id="text_28">
     <!-- Time [s] -->
     <g style="fill: #7f7f7f" transform="translate(287.175234 415.312344) scale(0.11 -0.11)">
      <defs>
       <path id="DejaVuSans-54" d="M -19 4666 
L 3928 4666 
L 3928 4134 
L 2272 4134 
L 2272 0 
L 1638 0 
L 1638 4134 
L -19 4134 
L -19 4666 
z
" transform="scale(0.015625)"/>
       <path id="DejaVuSans-65" d="M 3597 1894 
L 3597 1613 
L 953 1613 
Q 991 1019 1311 708 
Q 1631 397 2203 397 
Q 2534 397 2845 478 
Q 3156 559 3463 722 
L 3463 178 
Q 3153 47 2828 -22 
Q 2503 -91 2169 -91 
Q 1331 -91 842 396 
Q 353 884 353 1716 
Q 353 2575 817 3079 
Q 1281 3584 2069 3584 
Q 2775 3584 3186 3129 
Q 3597 2675 3597 1894 
z
M 3022 2063 
Q 3016 2534 2758 2815 
Q 2500 3097 2075 3097 
Q 1594 3097 1305 2825 
Q 1016 2553 972 2059 
L 3022 2063 
z
" transform="scale(0.015625)"/>
      </defs>
      <use xlink:href="#DejaVuSans-54"/>
      <use xlink:href="#DejaVuSans-69" transform="translate(57.958984 0)"/>
      <use xlink:href="#DejaVuSans-6d" transform="translate(85.742188 0)"/>
      <use xlink:href="#DejaVuSans-65" transform="translate(183.154297 0)"/>
      <use xlink:href="#DejaVuSans-20" transform="translate(244.677734 0)"/>
      <use xlink:href="#DejaVuSans-5b" transform="translate(276.464844 0)"/>
      <use xlink:href="#DejaVuSans-73" transform="translate(315.478516 0)"/>
      <use xlink:href="#DejaVuSans-5d" transform="translate(367.578125 0)"/>
     </g>
    </g>
   </g>
   <g id="matplotlib.axis_4">
    <g id="ytick_8">
     <g id="line2d_27">
      <g>
       <use xlink:href="#mc6f22f8198" x="51.111563" y="378.628973" style="fill: #7f7f7f; stroke: #7f7f7f; stroke-width: 1.8"/>
      </g>
     </g>
     <g id="text_29">
      <!-- 0.0 -->
      <g style="fill: #7f7f7f" transform="translate(28.208438 382.428192) scale(0.1 -0.1)">
       <use xlink:href="#DejaVuSans-30"/>
       <use xlink:href="#DejaVuSans-2e" transform="translate(63.623047 0)"/>
       <use xlink:href="#DejaVuSans-30" transform="translate(95.410156 0)"/>
      </g>
     </g>
    </g>
    <g id="ytick_9">
     <g id="line2d_28">
      <g>
       <use xlink:href="#mc6f22f8198" x="51.111563" y="342.13861" style="fill: #7f7f7f; stroke: #7f7f7f; stroke-width: 1.8"/>
      </g>
     </g>
     <g id="text_30">
      <!-- 0.5 -->
      <g style="fill: #7f7f7f" transform="translate(28.208438 345.937829) scale(0.1 -0.1)">
       <use xlink:href="#DejaVuSans-30"/>
       <use xlink:href="#DejaVuSans-2e" transform="translate(63.623047 0)"/>
       <use xlink:href="#DejaVuSans-35" transform="translate(95.410156 0)"/>
      </g>
     </g>
    </g>
    <g id="ytick_10">
     <g id="line2d_29">
      <g>
       <use xlink:href="#mc6f22f8198" x="51.111563" y="305.648247" style="fill: #7f7f7f; stroke: #7f7f7f; stroke-width: 1.8"/>
      </g>
     </g>
     <g id="text_31">
      <!-- 1.0 -->
      <g style="fill: #7f7f7f" transform="translate(28.208438 309.447466) scale(0.1 -0.1)">
       <use xlink:href="#DejaVuSans-31"/>
       <use xlink:href="#DejaVuSans-2e" transform="translate(63.623047 0)"/>
       <use xlink:href="#DejaVuSans-30" transform="translate(95.410156 0)"/>
      </g>
     </g>
    </g>
    <g id="ytick_11">
     <g id="line2d_30">
      <g>
       <use xlink:href="#mc6f22f8198" x="51.111563" y="269.157884" style="fill: #7f7f7f; stroke: #7f7f7f; stroke-width: 1.8"/>
      </g>
     </g>
     <g id="text_32">
      <!-- 1.5 -->
      <g style="fill: #7f7f7f" transform="translate(28.208438 272.957103) scale(0.1 -0.1)">
       <use xlink:href="#DejaVuSans-31"/>
       <use xlink:href="#DejaVuSans-2e" transform="translate(63.623047 0)"/>
       <use xlink:href="#DejaVuSans-35" transform="translate(95.410156 0)"/>
      </g>
     </g>
    </g>
    <g id="ytick_12">
     <g id="line2d_31">
      <g>
       <use xlink:href="#mc6f22f8198" x="51.111563" y="232.667521" style="fill: #7f7f7f; stroke: #7f7f7f; stroke-width: 1.8"/>
      </g>
     </g>
     <g id="text_33">
      <!-- 2.0 -->
      <g style="fill: #7f7f7f" transform="translate(28.208438 236.46674) scale(0.1 -0.1)">
       <use xlink:href="#DejaVuSans-32"/>
       <use xlink:href="#DejaVuSans-2e" transform="translate(63.623047 0)"/>
       <use xlink:href="#DejaVuSans-30" transform="translate(95.410156 0)"/>
      </g>
     </g>
    </g>
    <g id="text_34">
     <!-- Velocity Error [m/s] -->
     <g style="fill: #7f7f7f" transform="translate(21.920781 354.999844) rotate(-90) scale(0.11 -0.11)">
      <defs>
       <path id="DejaVuSans-56" d="M 1831 0 
L 50 4666 
L 709 4666 
L 2188 738 
L 3669 4666 
L 4325 4666 
L 2547 0 
L 1831 0 
z
" transform="scale(0.015625)"/>
       <path id="DejaVuSans-6c" d="M 603 4863 
L 1178 4863 
L 1178 0 
L 603 0 
L 603 4863 
z
" transform="scale(0.015625)"/>
       <path id="DejaVuSans-63" d="M 3122 3366 
L 3122 2828 
Q 2878 2963 2633 3030 
Q 2388 3097 2138 3097 
Q 1578 3097 1268 2742 
Q 959 2388 959 1747 
Q 959 1106 1268 751 
Q 1578 397 2138 397 
Q 2388 397 2633 464 
Q 2878 531 3122 666 
L 3122 134 
Q 2881 22 2623 -34 
Q 2366 -91 2075 -91 
Q 1284 -91 818 406 
Q 353 903 353 1747 
Q 353 2603 823 3093 
Q 1294 3584 2113 3584 
Q 2378 3584 2631 3529 
Q 2884 3475 3122 3366 
z
" transform="scale(0.015625)"/>
       <path id="DejaVuSans-79" d="M 2059 -325 
Q 1816 -950 1584 -1140 
Q 1353 -1331 966 -1331 
L 506 -1331 
L 506 -850 
L 844 -850 
Q 1081 -850 1212 -737 
Q 1344 -625 1503 -206 
L 1606 56 
L 191 3500 
L 800 3500 
L 1894 763 
L 2988 3500 
L 3597 3500 
L 2059 -325 
z
" transform="scale(0.015625)"/>
       <path id="DejaVuSans-2f" d="M 1625 4666 
L 2156 4666 
L 531 -594 
L 0 -594 
L 1625 4666 
z
" transform="scale(0.015625)"/>
      </defs>
      <use xlink:href="#DejaVuSans-56"/>
      <use xlink:href="#DejaVuSans-65" transform="translate(60.658203 0)"/>
      <use xlink:href="#DejaVuSans-6c" transform="translate(122.181641 0)"/>
      <use xlink:href="#DejaVuSans-6f" transform="translate(149.964844 0)"/>
      <use xlink:href="#DejaVuSans-63" transform="translate(211.146484 0)"/>
      <use xlink:href="#DejaVuSans-69" transform="translate(266.126953 0)"/>
      <use xlink:href="#DejaVuSans-74" transform="translate(293.910156 0)"/>
      <use xlink:href="#DejaVuSans-79" transform="translate(333.119141 0)"/>
      <use xlink:href="#DejaVuSans-20" transform="translate(392.298828 0)"/>
      <use xlink:href="#DejaVuSans-45" transform="translate(424.085938 0)"/>
      <use xlink:href="#DejaVuSans-72" transform="translate(487.269531 0)"/>
      <use xlink:href="#DejaVuSans-72" transform="translate(526.632812 0)"/>
      <use xlink:href="#DejaVuSans-6f" transform="translate(565.496094 0)"/>
      <use xlink:href="#DejaVuSans-72" transform="translate(626.677734 0)"/>
      <use xlink:href="#DejaVuSans-20" transform="translate(667.791016 0)"/>
      <use xlink:href="#DejaVuSans-5b" transform="translate(699.578125 0)"/>
      <use xlink:href="#DejaVuSans-6d" transform="translate(738.591797 0)"/>
      <use xlink:href="#DejaVuSans-2f" transform="translate(836.003906 0)"/>
      <use xlink:href="#DejaVuSans-73" transform="translate(869.695312 0)"/>
      <use xlink:href="#DejaVuSans-5d" transform="translate(921.794922 0)"/>
     </g>
    </g>
   </g>
   <g id="line2d_32">
    <path d="M 74.604787 232.667521 
L 75.074651 233.241561 
L 75.779448 234.35709 
L 76.719177 225.683359 
L 78.833567 285.718899 
L 79.0685 276.037532 
L 79.538364 285.873268 
L 80.008229 276.157194 
L 81.18289 310.337549 
L 81.417822 308.265532 
L 82.122619 322.662157 
L 82.357551 310.912098 
L 82.592483 302.293625 
L 83.062348 310.410244 
L 83.532212 303.903745 
L 84.002077 320.037392 
L 84.237009 313.237641 
L 84.471941 314.568073 
L 85.41167 341.603465 
L 85.646602 340.684946 
L 85.881535 345.267565 
L 86.116467 334.814065 
L 86.821264 324.143674 
L 87.056196 334.151549 
L 87.995925 339.41041 
L 88.230857 326.513973 
L 89.170586 329.68587 
L 89.405518 329.722938 
L 89.640451 326.31263 
L 89.875383 334.525827 
L 90.110315 333.837044 
L 92.459637 353.650642 
L 93.634299 371.570271 
L 93.869231 372.207696 
L 94.104163 377.907911 
L 94.574028 372.571833 
L 95.748689 359.126205 
L 96.453486 362.998425 
L 96.92335 371.384733 
L 97.628147 365.786681 
L 97.863079 363.765009 
L 98.098011 367.629532 
L 98.332944 366.830239 
L 98.802808 375.659055 
L 99.507605 372.362031 
L 101.621995 364.306826 
L 102.09186 369.215102 
L 102.796656 368.821919 
L 103.501453 369.514054 
L 104.20625 363.301037 
L 104.441182 363.602143 
L 105.615843 370.713201 
L 105.850775 370.601503 
L 106.085708 369.667199 
L 106.555572 371.794276 
L 107.260369 374.538965 
L 108.43503 378.487043 
L 109.844624 373.027914 
L 110.079556 373.921165 
L 110.314488 373.630843 
L 110.784353 377.971132 
L 111.254217 376.301395 
L 111.724082 372.033536 
L 112.193946 373.475073 
L 112.663811 377.870662 
L 113.368607 375.017479 
L 113.838472 370.951996 
L 114.308336 374.646234 
L 114.778201 373.977118 
L 115.482997 370.474357 
L 115.71793 373.99556 
L 116.657659 378.416347 
L 116.187794 372.997751 
L 116.892591 377.113877 
L 117.127523 374.481675 
L 117.597388 378.145612 
L 117.83232 377.852695 
L 118.067252 375.708555 
L 118.772049 376.510969 
L 119.006981 376.802242 
L 120.181642 368.43678 
L 119.711778 377.944117 
L 120.651507 372.650876 
L 121.121371 378.385032 
L 121.591236 375.917377 
L 122.0611 372.778551 
L 122.296033 378.331148 
L 122.765897 374.060606 
L 123.235762 378.42009 
L 123.705626 374.632776 
L 124.17549 367.38284 
L 124.645355 370.604728 
L 125.350152 378.427143 
L 126.054948 376.440018 
L 127.22961 371.423733 
L 127.464542 372.66873 
L 127.934406 374.252295 
L 128.169339 376.138327 
L 128.404271 373.50646 
L 128.874135 368.791633 
L 129.578932 369.881207 
L 130.048797 372.143213 
L 130.283729 375.942346 
L 130.988526 374.161542 
L 131.223458 372.033528 
L 131.693322 374.32438 
L 131.928255 373.773076 
L 133.337848 378.57954 
L 133.57278 378.265917 
L 135.217306 374.242858 
L 135.68717 378.307155 
L 136.157035 377.787014 
L 136.626899 376.108652 
L 137.096764 378.234954 
L 138.506357 368.73805 
L 139.211154 369.685697 
L 139.446086 371.941425 
L 139.915951 368.614625 
L 140.150883 368.914567 
L 141.795409 361.192112 
L 142.265273 362.549979 
L 143.439935 369.87257 
L 143.909799 367.930247 
L 144.379663 362.477195 
L 144.849528 363.879939 
L 146.024189 371.103815 
L 146.259121 372.568428 
L 146.494054 368.881525 
L 147.19885 363.536895 
L 147.433783 366.416732 
L 148.843376 378.180466 
L 150.25297 370.364372 
L 150.487902 372.430861 
L 150.722834 369.477686 
L 151.192699 371.017793 
L 151.427631 371.042265 
L 151.662563 369.842854 
L 152.132428 372.567028 
L 154.011886 365.748259 
L 155.421479 372.617926 
L 156.59614 363.861473 
L 156.831072 365.466006 
L 157.066005 366.621951 
L 157.300937 363.001458 
L 157.535869 358.492292 
L 158.240666 361.549326 
L 159.650259 368.471733 
L 159.885192 368.303063 
L 161.059853 374.457402 
L 161.294785 372.72673 
L 161.529717 373.092416 
L 161.76465 378.628672 
L 162.469446 375.284082 
L 163.644108 372.799646 
L 164.113972 376.214268 
L 164.583837 373.391761 
L 165.053701 367.82002 
L 165.758498 370.498938 
L 166.698227 367.476913 
L 166.463294 370.907459 
L 166.933159 368.283056 
L 168.577685 377.850322 
L 171.161939 370.007056 
L 171.631804 372.749391 
L 171.866736 369.062086 
L 172.101668 369.861394 
L 172.336601 370.336008 
L 172.571533 369.954567 
L 172.806465 366.108931 
L 173.511262 369.4406 
L 173.981126 368.551176 
L 175.155787 356.903618 
L 175.39072 360.622288 
L 175.860584 365.628161 
L 176.800313 363.356827 
L 177.270178 359.591215 
L 177.740042 359.871825 
L 177.974974 362.751315 
L 178.444839 359.80745 
L 178.914703 352.459251 
L 179.6195 353.496332 
L 179.854432 354.023641 
L 181.029094 363.033 
L 181.968823 358.689365 
L 182.203755 359.720558 
L 183.143484 369.765362 
L 183.613348 368.995403 
L 185.022942 375.646224 
L 185.257874 374.374001 
L 186.197603 369.367057 
L 186.432535 373.606512 
L 189.486654 363.287272 
L 193.24557 377.798307 
L 193.715435 371.684197 
L 194.420232 373.138998 
L 195.594893 378.268438 
L 196.534622 372.258819 
L 196.769554 369.240152 
L 197.474351 372.171827 
L 197.709283 375.56881 
L 198.179147 369.60126 
L 198.41408 369.639297 
L 198.649012 371.464142 
L 199.118876 368.565461 
L 199.353809 367.153289 
L 199.588741 368.614943 
L 200.293538 372.493176 
L 200.52847 370.351061 
L 200.763402 368.947224 
L 200.998334 372.297693 
L 201.233267 369.806425 
L 201.468199 371.212 
L 201.938063 369.435537 
L 202.64286 364.387114 
L 202.877792 367.729872 
L 203.347657 367.920135 
L 203.582589 366.623543 
L 204.052454 374.208871 
L 204.75725 369.689256 
L 205.931912 366.697357 
L 206.166844 362.083484 
L 206.87164 366.970378 
L 207.106573 363.363801 
L 207.811369 366.545515 
L 208.751098 375.091517 
L 209.220963 373.619682 
L 209.92576 377.597758 
L 210.395624 367.857364 
L 211.335353 368.353459 
L 211.570285 367.821314 
L 211.805218 369.974082 
L 212.04015 365.901368 
L 212.275082 364.852763 
L 213.449743 376.982241 
L 213.684676 373.727155 
L 214.15454 370.495428 
L 214.624405 371.328485 
L 215.329201 375.439293 
L 215.564134 374.165086 
L 216.26893 370.175362 
L 216.503862 370.833824 
L 216.973727 374.747158 
L 217.443591 372.484902 
L 218.148388 367.640934 
L 218.38332 370.757647 
L 219.088117 378.626322 
L 219.557982 377.144849 
L 219.792914 378.235695 
L 220.027846 375.811724 
L 220.497711 371.282048 
L 220.967575 373.618033 
L 221.202507 375.334526 
L 221.672372 371.63319 
L 222.142236 366.384223 
L 222.612101 367.250221 
L 223.316898 374.70945 
L 223.55183 371.859313 
L 223.786762 369.792492 
L 224.021694 374.730921 
L 224.256627 375.272368 
L 224.491559 378.522098 
L 225.196356 377.654149 
L 226.136085 377.956081 
L 227.545678 371.6016 
L 227.78061 376.774975 
L 228.485407 371.325052 
L 228.955271 370.477375 
L 229.190204 375.051894 
L 229.895 369.763981 
L 230.129933 368.044565 
L 230.599797 371.483609 
L 231.304594 377.99257 
L 232.009391 375.261629 
L 232.244323 374.597515 
L 232.714187 376.114084 
L 233.184052 376.567833 
L 233.653916 373.568 
L 234.358713 375.202106 
L 235.06351 372.917542 
L 236.003239 378.567435 
L 236.238171 377.625503 
L 237.412832 375.048851 
L 237.882697 374.982736 
L 238.352561 378.563371 
L 238.822426 378.259814 
L 239.997087 369.557294 
L 240.232019 369.649262 
L 240.466951 369.653429 
L 241.876545 378.304917 
L 243.051206 367.48617 
L 243.286138 367.621227 
L 243.756003 367.097628 
L 244.695732 370.584984 
L 244.930664 369.531753 
L 245.165596 368.56699 
L 245.400529 369.748704 
L 246.340258 377.609983 
L 246.57519 377.097611 
L 248.219715 363.814356 
L 248.68958 370.177297 
L 249.394377 367.050588 
L 250.099173 365.329576 
L 250.569038 370.120884 
L 251.038902 363.776724 
L 251.508767 363.893055 
L 252.213564 369.200054 
L 252.683428 368.182681 
L 252.91836 367.733077 
L 253.153293 367.973638 
L 253.623157 370.543376 
L 253.858089 366.719039 
L 254.093022 368.394683 
L 255.032751 364.895718 
L 255.502615 365.153146 
L 255.97248 367.270364 
L 256.442344 365.407721 
L 256.912209 357.764811 
L 257.851937 358.210995 
L 258.08687 360.138584 
L 258.321802 359.351776 
L 258.556734 354.931532 
L 259.261531 359.627457 
L 259.496463 363.128563 
L 259.966328 359.460032 
L 260.20126 359.480976 
L 260.671124 360.96708 
L 261.610853 370.449253 
L 262.31565 369.898349 
L 263.255379 374.050319 
L 264.195108 377.601647 
L 264.43004 376.649101 
L 265.369769 373.319951 
L 265.604702 373.717727 
L 265.839634 375.671151 
L 266.309498 374.01782 
L 266.779363 369.966789 
L 267.249227 370.339577 
L 268.658821 378.277707 
L 268.893753 375.277746 
L 269.363617 378.542954 
L 269.59855 377.625014 
L 270.538279 375.705393 
L 271.008143 374.790902 
L 271.478008 378.592821 
L 272.652669 368.97625 
L 273.82733 377.525639 
L 274.062262 375.783218 
L 274.767059 369.834725 
L 275.236924 372.634097 
L 275.94172 371.71408 
L 276.646517 378.405768 
L 276.881449 377.764457 
L 277.116382 373.710608 
L 277.821178 376.250381 
L 278.291043 377.298612 
L 278.760907 373.590307 
L 279.700636 377.676332 
L 281.345162 365.103268 
L 282.284891 365.262052 
L 282.754755 364.196503 
L 283.22462 369.426705 
L 283.694484 365.564385 
L 283.929417 365.290338 
L 284.164349 365.894866 
L 284.869146 375.532013 
L 285.33901 373.2668 
L 285.808875 370.971017 
L 286.043807 375.356912 
L 286.748604 377.936778 
L 287.218468 376.695129 
L 289.097926 365.394041 
L 291.447248 377.497854 
L 291.682181 376.867904 
L 291.917113 378.229867 
L 292.386977 377.632892 
L 292.62191 378.252663 
L 292.856842 376.13966 
L 293.326706 377.97489 
L 294.7363 371.457302 
L 295.441097 377.195797 
L 295.676029 373.28382 
L 296.85069 367.0604 
L 297.085622 369.177585 
L 297.555487 372.777732 
L 297.790419 369.511705 
L 298.260284 366.535591 
L 298.96508 367.489722 
L 299.904809 377.472007 
L 300.609606 376.303167 
L 300.844538 375.919795 
L 301.07947 377.136872 
L 301.314403 369.419031 
L 302.019199 375.581432 
L 302.958928 373.04942 
L 303.663725 373.703971 
L 303.898657 374.391355 
L 304.13359 372.627117 
L 304.838386 369.985689 
L 305.073319 371.471465 
L 305.543183 373.960927 
L 306.013048 372.769573 
L 306.24798 372.836219 
L 307.187709 375.965894 
L 308.127438 368.22258 
L 308.597302 371.197548 
L 309.771963 377.198845 
L 310.006896 376.961485 
L 310.241828 377.46004 
L 310.47676 376.395448 
L 311.416489 370.921448 
L 312.356218 378.222103 
L 312.59115 376.791258 
L 313.295947 374.524306 
L 313.765812 375.630258 
L 314.235676 376.371043 
L 314.470608 378.570745 
L 314.705541 376.04791 
L 314.940473 377.723554 
L 316.350066 370.974593 
L 317.524728 378.104166 
L 319.639118 368.420001 
L 319.87405 368.880501 
L 320.578847 376.78192 
L 321.283643 374.444813 
L 321.98844 368.772673 
L 322.458305 370.768566 
L 322.928169 370.07031 
L 324.337763 375.677748 
L 324.572695 375.191957 
L 324.807627 378.414527 
L 325.277492 374.188574 
L 325.747356 372.120561 
L 327.15695 366.349193 
L 327.391882 365.964382 
L 328.331611 361.641222 
L 328.566543 363.514609 
L 329.036408 366.913999 
L 329.27134 363.865173 
L 329.506272 359.207529 
L 330.211069 361.642499 
L 330.915865 363.608615 
L 331.150798 360.968851 
L 331.620662 364.49366 
L 333.969985 377.170555 
L 334.204917 376.734887 
L 334.439849 377.473419 
L 334.674781 378.604136 
L 334.909714 378.552255 
L 335.61451 366.938686 
L 336.084375 368.027469 
L 336.319307 370.973939 
L 336.789172 365.373902 
L 337.259036 359.322224 
L 337.728901 363.739064 
L 339.608359 376.962672 
L 339.843291 376.668902 
L 340.078223 371.876413 
L 340.78302 377.006115 
L 341.017952 372.698504 
L 341.252884 375.225252 
L 341.487816 372.052134 
L 342.89741 360.34543 
L 343.132342 363.384402 
L 343.602207 360.425224 
L 344.072071 363.599654 
L 344.776868 362.120468 
L 345.481665 368.080308 
L 346.186461 366.679344 
L 346.656326 370.63033 
L 347.361123 370.010075 
L 347.596055 369.606166 
L 348.065919 373.50168 
L 348.770716 372.651596 
L 349.945377 363.859543 
L 350.18031 366.625927 
L 350.885106 372.534238 
L 351.354971 371.822931 
L 351.589903 368.26353 
L 352.059767 372.483583 
L 353.704293 378.030959 
L 354.878954 370.93954 
L 354.174158 378.305892 
L 355.348819 371.025574 
L 355.583751 375.37405 
L 356.053616 371.249954 
L 356.52348 368.97353 
L 356.758412 370.789069 
L 358.63787 378.628601 
L 359.107735 377.205028 
L 359.342667 375.492974 
L 359.577599 377.873595 
L 359.812532 376.985961 
L 360.282396 378.154114 
L 360.752261 376.929615 
L 361.222125 378.203287 
L 361.457057 377.987684 
L 361.691989 374.988624 
L 362.396786 377.017637 
L 362.631718 375.945408 
L 362.866651 377.498148 
L 363.101583 377.38352 
L 363.336515 378.522844 
L 363.571447 375.532895 
L 364.041312 377.963289 
L 364.746109 371.517442 
L 364.981041 373.377212 
L 365.215973 377.006649 
L 365.92077 372.886867 
L 366.390634 369.069667 
L 366.860499 369.537238 
L 367.095431 370.992584 
L 367.330363 368.991783 
L 367.800228 369.139932 
L 368.739957 363.012826 
L 369.209821 370.420307 
L 369.679686 368.154318 
L 369.914618 366.855836 
L 370.384483 369.500691 
L 371.794076 377.566156 
L 372.733805 376.353476 
L 372.968737 373.422501 
L 373.438602 377.138403 
L 373.673534 377.985207 
L 373.908466 376.947183 
L 374.143398 375.872422 
L 374.378331 377.849012 
L 374.613263 376.964823 
L 375.31806 377.415865 
L 376.022856 375.252908 
L 376.257789 378.540671 
L 376.727653 377.299162 
L 377.43245 371.89107 
L 377.667382 374.875983 
L 378.372179 378.081568 
L 379.076976 376.845232 
L 379.781772 372.168393 
L 380.251637 372.881104 
L 380.721501 376.595819 
L 381.426298 374.529884 
L 381.66123 373.902879 
L 381.896162 375.779801 
L 382.131095 375.563805 
L 383.305756 369.947378 
L 384.010553 378.558293 
L 384.480417 378.299341 
L 387.064672 368.982498 
L 387.534536 374.327689 
L 388.239333 373.23638 
L 389.413994 378.296976 
L 390.353723 372.958348 
L 390.588656 374.011564 
L 391.05852 377.964975 
L 391.528385 376.777673 
L 393.17291 367.617465 
L 394.347571 371.787511 
L 395.522233 364.894655 
L 395.757165 366.320525 
L 396.696894 370.494302 
L 396.931826 369.21222 
L 397.166758 369.239166 
L 397.401691 368.033223 
L 397.636623 373.294269 
L 398.576352 372.049165 
L 400.220878 378.345135 
L 401.630471 372.539851 
L 401.865403 373.460356 
L 402.100336 377.00369 
L 402.5702 375.319953 
L 403.744861 367.587091 
L 404.449658 368.055032 
L 404.68459 366.520323 
L 405.154455 365.034732 
L 405.624319 368.028673 
L 406.564048 361.900506 
L 406.79898 364.441612 
L 407.033913 364.674933 
L 408.443506 359.531618 
L 408.913371 357.271748 
L 410.088032 373.421839 
L 410.557896 369.401398 
L 411.262693 367.618007 
L 412.672287 378.101368 
L 413.846948 376.487612 
L 414.08188 376.501948 
L 414.316812 377.873558 
L 415.021609 377.044607 
L 415.726406 377.863246 
L 417.840796 366.466743 
L 419.250389 378.524994 
L 419.485322 378.170894 
L 419.720254 377.048362 
L 420.425051 377.980322 
L 420.659983 377.968938 
L 421.36478 370.173782 
L 421.599712 368.918616 
L 422.539441 378.463435 
L 422.774373 375.84523 
L 423.244237 373.238608 
L 423.47917 375.572626 
L 423.714102 376.647639 
L 423.949034 374.420462 
L 424.183966 373.876952 
L 424.418899 375.959699 
L 424.888763 372.941847 
L 426.533289 371.666938 
L 427.003153 372.034307 
L 427.473018 369.393426 
L 428.647679 377.878003 
L 428.882611 377.558127 
L 430.057273 365.545667 
L 430.292205 366.283981 
L 430.997002 373.084135 
L 431.466866 370.124044 
L 431.936731 365.786177 
L 432.641527 368.808067 
L 433.346324 373.738306 
L 434.051121 373.242715 
L 435.225782 364.114187 
L 435.695646 368.116254 
L 436.635375 370.480919 
L 436.870308 368.362879 
L 437.340172 368.983887 
L 437.575104 372.542299 
L 438.279901 370.057901 
L 440.394291 378.515674 
L 440.629224 377.420576 
L 441.33402 373.708593 
L 441.568953 376.309693 
L 442.273749 374.565266 
L 442.743614 378.499158 
L 445.092936 363.098007 
L 445.562801 366.160301 
L 446.032665 373.446369 
L 446.737462 370.612105 
L 447.912123 369.001792 
L 448.147055 372.448098 
L 448.61692 368.968794 
L 449.791581 361.653434 
L 450.261446 364.241413 
L 452.140904 378.452543 
L 452.8457 376.569184 
L 454.255294 370.747749 
L 454.490226 371.381355 
L 454.725158 375.141825 
L 455.429955 374.880196 
L 456.134752 368.333587 
L 457.074481 369.88429 
L 457.544345 373.384462 
L 458.249142 371.48034 
L 458.484074 371.013619 
L 458.719006 371.377979 
L 459.423803 362.743263 
L 459.893668 365.579316 
L 460.363532 359.84727 
L 460.833397 365.325543 
L 461.773126 360.826381 
L 462.24299 361.303706 
L 464.122448 373.27612 
L 464.592312 371.829454 
L 464.827245 370.321851 
L 466.001906 378.243132 
L 466.706703 378.409456 
L 467.411499 374.390733 
L 467.881364 372.661326 
L 468.116296 373.450394 
L 468.351228 376.13574 
L 469.056025 373.659611 
L 469.290957 373.5035 
L 469.52589 371.206162 
L 469.995754 373.016861 
L 470.230686 375.712784 
L 470.700551 373.288335 
L 473.519738 354.392221 
L 471.170415 375.936753 
L 473.75467 357.330712 
L 474.694399 367.218734 
L 475.164263 364.705833 
L 475.399196 365.515839 
L 475.634128 364.670299 
L 475.86906 363.285505 
L 476.103992 367.518419 
L 476.338925 365.05254 
L 476.573857 365.691852 
L 476.808789 363.921101 
L 477.513586 357.309852 
L 477.98345 359.292441 
L 478.218383 359.244446 
L 478.453315 361.322465 
L 478.688247 358.999276 
L 478.923179 359.481612 
L 479.158112 358.021423 
L 479.862908 367.280987 
L 480.332773 363.362197 
L 481.03757 364.814849 
L 481.272502 366.495092 
L 481.507434 362.696582 
L 481.742366 360.428844 
L 482.212231 363.008511 
L 482.447163 362.551484 
L 482.682095 362.684339 
L 483.856757 359.227273 
L 486.206079 378.252311 
L 486.910876 376.856696 
L 487.38074 374.72685 
L 487.615672 376.327841 
L 488.085537 378.470273 
L 488.790334 378.27171 
L 490.434859 376.957136 
L 490.904724 376.767377 
L 491.374588 378.356872 
L 493.488979 361.246912 
L 493.723911 361.025216 
L 494.193775 356.83865 
L 494.66364 357.214388 
L 495.838301 365.68939 
L 496.073233 364.771141 
L 496.543098 361.282453 
L 496.77803 364.101282 
L 497.012962 365.262992 
L 497.247894 364.868619 
L 497.717759 356.499748 
L 498.422556 360.922083 
L 499.832149 371.269844 
L 500.067081 369.40992 
L 500.771878 369.806716 
L 501.00681 370.590978 
L 501.476675 376.991162 
L 502.181472 375.299023 
L 502.416404 374.481268 
L 502.886268 377.816747 
L 503.591065 377.370002 
L 504.06093 378.428284 
L 504.295862 376.560538 
L 504.765726 376.263544 
L 505.235591 377.365672 
L 505.705455 376.012445 
L 506.410252 369.080132 
L 506.645184 372.819814 
L 506.880116 375.890888 
L 507.349981 372.728617 
L 508.054778 366.000091 
L 508.524642 367.630389 
L 508.759574 367.029587 
L 509.934236 378.183676 
L 510.169168 377.25987 
L 510.873965 377.649841 
L 511.343829 373.320436 
L 511.578761 375.659978 
L 512.048626 373.969501 
L 512.283558 371.687056 
L 512.51849 374.905187 
L 512.753423 378.586125 
L 513.458219 377.939595 
L 513.693152 374.477592 
L 514.397948 378.596542 
L 515.807542 376.009401 
L 516.042474 378.155513 
L 516.277406 375.207787 
L 516.747271 377.355572 
L 517.921932 368.250225 
L 518.156864 368.409548 
L 518.391796 366.845457 
L 518.626729 368.238331 
L 520.036322 378.208308 
L 520.271254 378.178979 
L 520.741119 371.692055 
L 521.210983 376.229525 
L 521.445916 378.443366 
L 521.91578 374.845241 
L 522.385645 372.619752 
L 522.620577 375.16585 
L 522.855509 377.235937 
L 523.090441 373.023931 
L 523.325374 373.838462 
L 523.560306 373.365731 
L 523.795238 373.958524 
L 524.265103 375.3104 
L 524.500035 371.369379 
L 524.969899 376.525813 
L 525.909628 378.265818 
L 526.379493 372.393295 
L 526.849357 378.028889 
L 527.084289 378.276587 
L 528.728815 365.454856 
L 530.373341 377.990649 
L 530.608273 377.811002 
L 530.843205 378.520925 
L 531.31307 377.953506 
L 532.957596 370.123842 
L 533.42746 372.883438 
L 533.662392 368.584839 
L 534.367189 371.783557 
L 534.602121 370.213494 
L 535.54185 366.269129 
L 536.246647 370.260491 
L 536.716512 368.576366 
L 538.361037 362.97912 
L 538.830902 364.433462 
L 540.240495 371.959432 
L 540.71036 369.191772 
L 540.945292 370.429494 
L 541.650089 373.762694 
L 541.885021 370.792045 
L 542.119953 372.656631 
L 542.589818 369.1802 
L 543.529547 365.27825 
L 544.469276 373.397196 
L 544.469276 373.397196 
" clip-path="url(#pa7726017ac)" style="fill: none; stroke: #e41a1c; stroke-width: 2; stroke-linecap: square"/>
   </g>
   <g id="patch_6">
    <path d="M 51.111563 386.275937 
L 51.111563 218.036094 
" style="fill: none; stroke: #7f7f7f; stroke-width: 1.8; stroke-linejoin: miter; stroke-linecap: square"/>
   </g>
   <g id="patch_7">
    <path d="M 51.111563 386.275937 
L 567.9625 386.275937 
" style="fill: none; stroke: #7f7f7f; stroke-width: 1.8; stroke-linejoin: miter; stroke-linecap: square"/>
   </g>
  </g>
 </g>
 <defs>
  <clipPath id="p39dcb05678">
   <rect x="51.111563" y="22.318125" width="516.850937" height="168.239844"/>
  </clipPath>
  <clipPath id="pa7726017ac">
   <rect x="51.111563" y="218.036094" width="516.850937" height="168.239844"/>
  </clipPath>
 </defs>
</svg>
