<?xml version="1.0" encoding="utf-8" standalone="no"?>
<!DOCTYPE svg PUBLIC "-//W3C//DTD SVG 1.1//EN"
  "http://www.w3.org/Graphics/SVG/1.1/DTD/svg11.dtd">
<svg xmlns:xlink="http://www.w3.org/1999/xlink" width="575.1625pt" height="424.8pt" viewBox="0 0 575.1625 424.8" xmlns="http://www.w3.org/2000/svg" version="1.1">
 <metadata>
  <rdf:RDF xmlns:dc="http://purl.org/dc/elements/1.1/" xmlns:cc="http://creativecommons.org/ns#" xmlns:rdf="http://www.w3.org/1999/02/22-rdf-syntax-ns#">
   <cc:Work>
    <dc:type rdf:resource="http://purl.org/dc/dcmitype/StillImage"/>
    <dc:date>2026-06-08T18:56:19.904671</dc:date>
    <dc:format>image/svg+xml</dc:format>
    <dc:creator>
     <cc:Agent>
      <dc:title>Matplotlib v3.10.9, https://matplotlib.org/</dc:title>
     </cc:Agent>
    </dc:creator>
   </cc:Work>
  </rdf:RDF>
 </metadata>
 <defs>
  <style type="text/css">*{stroke-linejoin: round; stroke-linecap: butt}</style>
 </defs>
 <g id="figure_1">
  <g id="patch_1">
   <path d="M 0 424.8 
L 575.1625 424.8 
L 575.1625 0 
L 0 0 
L 0 424.8 
z
" style="fill: none"/>
  </g>
  <g id="axes_1">
   <g id="patch_2">
    <path d="M 51.111563 190.557969 
L 567.9625 190.557969 
L 567.9625 22.318125 
L 51.111563 22.318125 
L 51.111563 190.557969 
z
" style="fill: none"/>
   </g>
   <g id="matplotlib.axis_1">
    <g id="xtick_1">
     <g id="line2d_1">
      <defs>
       <path id="m1ada8da4f9" d="M 0 0 
L 0 3.5 
" style="stroke: #7f7f7f; stroke-width: 1.8"/>
      </defs>
      <g>
       <use xlink:href="#m1ada8da4f9" x="74.604787" y="190.557969" style="fill: #7f7f7f; stroke: #7f7f7f; stroke-width: 1.8"/>
      </g>
     </g>
     <g id="text_1">
      <!-- 0.0 -->
      <g style="fill: #7f7f7f" transform="translate(66.653224 205.156406) scale(0.1 -0.1)">
       <defs>
        <path id="DejaVuSans-30" d="M 2034 4250 
Q 1547 4250 1301 3770 
Q 1056 3291 1056 2328 
Q 1056 1369 1301 889 
Q 1547 409 2034 409 
Q 2525 409 2770 889 
Q 3016 1369 3016 2328 
Q 3016 3291 2770 3770 
Q 2525 4250 2034 4250 
z
M 2034 4750 
Q 2819 4750 3233 4129 
Q 3647 3509 3647 2328 
Q 3647 1150 3233 529 
Q 2819 -91 2034 -91 
Q 1250 -91 836 529 
Q 422 1150 422 2328 
Q 422 3509 836 4129 
Q 1250 4750 2034 4750 
z
" transform="scale(0.015625)"/>
        <path id="DejaVuSans-2e" d="M 684 794 
L 1344 794 
L 1344 0 
L 684 0 
L 684 794 
z
" transform="scale(0.015625)"/>
       </defs>
       <use xlink:href="#DejaVuSans-30"/>
       <use xlink:href="#DejaVuSans-2e" transform="translate(63.623047 0)"/>
       <use xlink:href="#DejaVuSans-30" transform="translate(95.410156 0)"/>
      </g>
     </g>
    </g>
    <g id="xtick_2">
     <g id="line2d_2">
      <g>
       <use xlink:href="#m1ada8da4f9" x="133.337848" y="190.557969" style="fill: #7f7f7f; stroke: #7f7f7f; stroke-width: 1.8"/>
      </g>
     </g>
     <g id="text_2">
      <!-- 2.5 -->
      <g style="fill: #7f7f7f" transform="translate(125.386286 205.156406) scale(0.1 -0.1)">
       <defs>
        <path id="DejaVuSans-32" d="M 1228 531 
L 3431 531 
L 3431 0 
L 469 0 
L 469 531 
Q 828 903 1448 1529 
Q 2069 2156 2228 2338 
Q 2531 2678 2651 2914 
Q 2772 3150 2772 3378 
Q 2772 3750 2511 3984 
Q 2250 4219 1831 4219 
Q 1534 4219 1204 4116 
Q 875 4013 500 3803 
L 500 4441 
Q 881 4594 1212 4672 
Q 1544 4750 1819 4750 
Q 2544 4750 2975 4387 
Q 3406 4025 3406 3419 
Q 3406 3131 3298 2873 
Q 3191 2616 2906 2266 
Q 2828 2175 2409 1742 
Q 1991 1309 1228 531 
z
" transform="scale(0.015625)"/>
        <path id="DejaVuSans-35" d="M 691 4666 
L 3169 4666 
L 3169 4134 
L 1269 4134 
L 1269 2991 
Q 1406 3038 1543 3061 
Q 1681 3084 1819 3084 
Q 2600 3084 3056 2656 
Q 3513 2228 3513 1497 
Q 3513 744 3044 326 
Q 2575 -91 1722 -91 
Q 1428 -91 1123 -41 
Q 819 9 494 109 
L 494 744 
Q 775 591 1075 516 
Q 1375 441 1709 441 
Q 2250 441 2565 725 
Q 2881 1009 2881 1497 
Q 2881 1984 2565 2268 
Q 2250 2553 1709 2553 
Q 1456 2553 1204 2497 
Q 953 2441 691 2322 
L 691 4666 
z
" transform="scale(0.015625)"/>
       </defs>
       <use xlink:href="#DejaVuSans-32"/>
       <use xlink:href="#DejaVuSans-2e" transform="translate(63.623047 0)"/>
       <use xlink:href="#DejaVuSans-35" transform="translate(95.410156 0)"/>
      </g>
     </g>
    </g>
    <g id="xtick_3">
     <g id="line2d_3">
      <g>
       <use xlink:href="#m1ada8da4f9" x="192.070909" y="190.557969" style="fill: #7f7f7f; stroke: #7f7f7f; stroke-width: 1.8"/>
      </g>
     </g>
     <g id="text_3">
      <!-- 5.0 -->
      <g style="fill: #7f7f7f" transform="translate(184.119347 205.156406) scale(0.1 -0.1)">
       <use xlink:href="#DejaVuSans-35"/>
       <use xlink:href="#DejaVuSans-2e" transform="translate(63.623047 0)"/>
       <use xlink:href="#DejaVuSans-30" transform="translate(95.410156 0)"/>
      </g>
     </g>
    </g>
    <g id="xtick_4">
     <g id="line2d_4">
      <g>
       <use xlink:href="#m1ada8da4f9" x="250.80397" y="190.557969" style="fill: #7f7f7f; stroke: #7f7f7f; stroke-width: 1.8"/>
      </g>
     </g>
     <g id="text_4">
      <!-- 7.5 -->
      <g style="fill: #7f7f7f" transform="translate(242.852408 205.156406) scale(0.1 -0.1)">
       <defs>
        <path id="DejaVuSans-37" d="M 525 4666 
L 3525 4666 
L 3525 4397 
L 1831 0 
L 1172 0 
L 2766 4134 
L 525 4134 
L 525 4666 
z
" transform="scale(0.015625)"/>
       </defs>
       <use xlink:href="#DejaVuSans-37"/>
       <use xlink:href="#DejaVuSans-2e" transform="translate(63.623047 0)"/>
       <use xlink:href="#DejaVuSans-35" transform="translate(95.410156 0)"/>
      </g>
     </g>
    </g>
    <g id="xtick_5">
     <g id="line2d_5">
      <g>
       <use xlink:href="#m1ada8da4f9" x="309.537031" y="190.557969" style="fill: #7f7f7f; stroke: #7f7f7f; stroke-width: 1.8"/>
      </g>
     </g>
     <g id="text_5">
      <!-- 10.0 -->
      <g style="fill: #7f7f7f" transform="translate(298.404219 205.156406) scale(0.1 -0.1)">
       <defs>
        <path id="DejaVuSans-31" d="M 794 531 
L 1825 531 
L 1825 4091 
L 703 3866 
L 703 4441 
L 1819 4666 
L 2450 4666 
L 2450 531 
L 3481 531 
L 3481 0 
L 794 0 
L 794 531 
z
" transform="scale(0.015625)"/>
       </defs>
       <use xlink:href="#DejaVuSans-31"/>
       <use xlink:href="#DejaVuSans-30" transform="translate(63.623047 0)"/>
       <use xlink:href="#DejaVuSans-2e" transform="translate(127.246094 0)"/>
       <use xlink:href="#DejaVuSans-30" transform="translate(159.033203 0)"/>
      </g>
     </g>
    </g>
    <g id="xtick_6">
     <g id="line2d_6">
      <g>
       <use xlink:href="#m1ada8da4f9" x="368.270092" y="190.557969" style="fill: #7f7f7f; stroke: #7f7f7f; stroke-width: 1.8"/>
      </g>
     </g>
     <g id="text_6">
      <!-- 12.5 -->
      <g style="fill: #7f7f7f" transform="translate(357.13728 205.156406) scale(0.1 -0.1)">
       <use xlink:href="#DejaVuSans-31"/>
       <use xlink:href="#DejaVuSans-32" transform="translate(63.623047 0)"/>
       <use xlink:href="#DejaVuSans-2e" transform="translate(127.246094 0)"/>
       <use xlink:href="#DejaVuSans-35" transform="translate(159.033203 0)"/>
      </g>
     </g>
    </g>
    <g id="xtick_7">
     <g id="line2d_7">
      <g>
       <use xlink:href="#m1ada8da4f9" x="427.003153" y="190.557969" style="fill: #7f7f7f; stroke: #7f7f7f; stroke-width: 1.8"/>
      </g>
     </g>
     <g id="text_7">
      <!-- 15.0 -->
      <g style="fill: #7f7f7f" transform="translate(415.870341 205.156406) scale(0.1 -0.1)">
       <use xlink:href="#DejaVuSans-31"/>
       <use xlink:href="#DejaVuSans-35" transform="translate(63.623047 0)"/>
       <use xlink:href="#DejaVuSans-2e" transform="translate(127.246094 0)"/>
       <use xlink:href="#DejaVuSans-30" transform="translate(159.033203 0)"/>
      </g>
     </g>
    </g>
    <g id="xtick_8">
     <g id="line2d_8">
      <g>
       <use xlink:href="#m1ada8da4f9" x="485.736214" y="190.557969" style="fill: #7f7f7f; stroke: #7f7f7f; stroke-width: 1.8"/>
      </g>
     </g>
     <g id="text_8">
      <!-- 17.5 -->
      <g style="fill: #7f7f7f" transform="translate(474.603402 205.156406) scale(0.1 -0.1)">
       <use xlink:href="#DejaVuSans-31"/>
       <use xlink:href="#DejaVuSans-37" transform="translate(63.623047 0)"/>
       <use xlink:href="#DejaVuSans-2e" transform="translate(127.246094 0)"/>
       <use xlink:href="#DejaVuSans-35" transform="translate(159.033203 0)"/>
      </g>
     </g>
    </g>
    <g id="xtick_9">
     <g id="line2d_9">
      <g>
       <use xlink:href="#m1ada8da4f9" x="544.469276" y="190.557969" style="fill: #7f7f7f; stroke: #7f7f7f; stroke-width: 1.8"/>
      </g>
     </g>
     <g id="text_9">
      <!-- 20.0 -->
      <g style="fill: #7f7f7f" transform="translate(533.336463 205.156406) scale(0.1 -0.1)">
       <use xlink:href="#DejaVuSans-32"/>
       <use xlink:href="#DejaVuSans-30" transform="translate(63.623047 0)"/>
       <use xlink:href="#DejaVuSans-2e" transform="translate(127.246094 0)"/>
       <use xlink:href="#DejaVuSans-30" transform="translate(159.033203 0)"/>
      </g>
     </g>
    </g>
   </g>
   <g id="matplotlib.axis_2">
    <g id="ytick_1">
     <g id="line2d_10">
      <defs>
       <path id="ma937cc9469" d="M 0 0 
L -3.5 0 
" style="stroke: #7f7f7f; stroke-width: 1.8"/>
      </defs>
      <g>
       <use xlink:href="#ma937cc9469" x="51.111563" y="182.910703" style="fill: #7f7f7f; stroke: #7f7f7f; stroke-width: 1.8"/>
      </g>
     </g>
     <g id="text_10">
      <!-- 0.00 -->
      <g style="fill: #7f7f7f" transform="translate(21.845938 186.709922) scale(0.1 -0.1)">
       <use xlink:href="#DejaVuSans-30"/>
       <use xlink:href="#DejaVuSans-2e" transform="translate(63.623047 0)"/>
       <use xlink:href="#DejaVuSans-30" transform="translate(95.410156 0)"/>
       <use xlink:href="#DejaVuSans-30" transform="translate(159.033203 0)"/>
      </g>
     </g>
    </g>
    <g id="ytick_2">
     <g id="line2d_11">
      <g>
       <use xlink:href="#ma937cc9469" x="51.111563" y="159.14821" style="fill: #7f7f7f; stroke: #7f7f7f; stroke-width: 1.8"/>
      </g>
     </g>
     <g id="text_11">
      <!-- 0.05 -->
      <g style="fill: #7f7f7f" transform="translate(21.845938 162.947429) scale(0.1 -0.1)">
       <use xlink:href="#DejaVuSans-30"/>
       <use xlink:href="#DejaVuSans-2e" transform="translate(63.623047 0)"/>
       <use xlink:href="#DejaVuSans-30" transform="translate(95.410156 0)"/>
       <use xlink:href="#DejaVuSans-35" transform="translate(159.033203 0)"/>
      </g>
     </g>
    </g>
    <g id="ytick_3">
     <g id="line2d_12">
      <g>
       <use xlink:href="#ma937cc9469" x="51.111563" y="135.385717" style="fill: #7f7f7f; stroke: #7f7f7f; stroke-width: 1.8"/>
      </g>
     </g>
     <g id="text_12">
      <!-- 0.10 -->
      <g style="fill: #7f7f7f" transform="translate(21.845938 139.184936) scale(0.1 -0.1)">
       <use xlink:href="#DejaVuSans-30"/>
       <use xlink:href="#DejaVuSans-2e" transform="translate(63.623047 0)"/>
       <use xlink:href="#DejaVuSans-31" transform="translate(95.410156 0)"/>
       <use xlink:href="#DejaVuSans-30" transform="translate(159.033203 0)"/>
      </g>
     </g>
    </g>
    <g id="ytick_4">
     <g id="line2d_13">
      <g>
       <use xlink:href="#ma937cc9469" x="51.111563" y="111.623224" style="fill: #7f7f7f; stroke: #7f7f7f; stroke-width: 1.8"/>
      </g>
     </g>
     <g id="text_13">
      <!-- 0.15 -->
      <g style="fill: #7f7f7f" transform="translate(21.845938 115.422443) scale(0.1 -0.1)">
       <use xlink:href="#DejaVuSans-30"/>
       <use xlink:href="#DejaVuSans-2e" transform="translate(63.623047 0)"/>
       <use xlink:href="#DejaVuSans-31" transform="translate(95.410156 0)"/>
       <use xlink:href="#DejaVuSans-35" transform="translate(159.033203 0)"/>
      </g>
     </g>
    </g>
    <g id="ytick_5">
     <g id="line2d_14">
      <g>
       <use xlink:href="#ma937cc9469" x="51.111563" y="87.860731" style="fill: #7f7f7f; stroke: #7f7f7f; stroke-width: 1.8"/>
      </g>
     </g>
     <g id="text_14">
      <!-- 0.20 -->
      <g style="fill: #7f7f7f" transform="translate(21.845938 91.65995) scale(0.1 -0.1)">
       <use xlink:href="#DejaVuSans-30"/>
       <use xlink:href="#DejaVuSans-2e" transform="translate(63.623047 0)"/>
       <use xlink:href="#DejaVuSans-32" transform="translate(95.410156 0)"/>
       <use xlink:href="#DejaVuSans-30" transform="translate(159.033203 0)"/>
      </g>
     </g>
    </g>
    <g id="ytick_6">
     <g id="line2d_15">
      <g>
       <use xlink:href="#ma937cc9469" x="51.111563" y="64.098238" style="fill: #7f7f7f; stroke: #7f7f7f; stroke-width: 1.8"/>
      </g>
     </g>
     <g id="text_15">
      <!-- 0.25 -->
      <g style="fill: #7f7f7f" transform="translate(21.845938 67.897457) scale(0.1 -0.1)">
       <use xlink:href="#DejaVuSans-30"/>
       <use xlink:href="#DejaVuSans-2e" transform="translate(63.623047 0)"/>
       <use xlink:href="#DejaVuSans-32" transform="translate(95.410156 0)"/>
       <use xlink:href="#DejaVuSans-35" transform="translate(159.033203 0)"/>
      </g>
     </g>
    </g>
    <g id="ytick_7">
     <g id="line2d_16">
      <g>
       <use xlink:href="#ma937cc9469" x="51.111563" y="40.335745" style="fill: #7f7f7f; stroke: #7f7f7f; stroke-width: 1.8"/>
      </g>
     </g>
     <g id="text_16">
      <!-- 0.30 -->
      <g style="fill: #7f7f7f" transform="translate(21.845938 44.134964) scale(0.1 -0.1)">
       <defs>
        <path id="DejaVuSans-33" d="M 2597 2516 
Q 3050 2419 3304 2112 
Q 3559 1806 3559 1356 
Q 3559 666 3084 287 
Q 2609 -91 1734 -91 
Q 1441 -91 1130 -33 
Q 819 25 488 141 
L 488 750 
Q 750 597 1062 519 
Q 1375 441 1716 441 
Q 2309 441 2620 675 
Q 2931 909 2931 1356 
Q 2931 1769 2642 2001 
Q 2353 2234 1838 2234 
L 1294 2234 
L 1294 2753 
L 1863 2753 
Q 2328 2753 2575 2939 
Q 2822 3125 2822 3475 
Q 2822 3834 2567 4026 
Q 2313 4219 1838 4219 
Q 1578 4219 1281 4162 
Q 984 4106 628 3988 
L 628 4550 
Q 988 4650 1302 4700 
Q 1616 4750 1894 4750 
Q 2613 4750 3031 4423 
Q 3450 4097 3450 3541 
Q 3450 3153 3228 2886 
Q 3006 2619 2597 2516 
z
" transform="scale(0.015625)"/>
       </defs>
       <use xlink:href="#DejaVuSans-30"/>
       <use xlink:href="#DejaVuSans-2e" transform="translate(63.623047 0)"/>
       <use xlink:href="#DejaVuSans-33" transform="translate(95.410156 0)"/>
       <use xlink:href="#DejaVuSans-30" transform="translate(159.033203 0)"/>
      </g>
     </g>
    </g>
    <g id="text_17">
     <!-- Position Error [m] -->
     <g style="fill: #7f7f7f" transform="translate(15.558281 154.397187) rotate(-90) scale(0.11 -0.11)">
      <defs>
       <path id="DejaVuSans-50" d="M 1259 4147 
L 1259 2394 
L 2053 2394 
Q 2494 2394 2734 2622 
Q 2975 2850 2975 3272 
Q 2975 3691 2734 3919 
Q 2494 4147 2053 4147 
L 1259 4147 
z
M 628 4666 
L 2053 4666 
Q 2838 4666 3239 4311 
Q 3641 3956 3641 3272 
Q 3641 2581 3239 2228 
Q 2838 1875 2053 1875 
L 1259 1875 
L 1259 0 
L 628 0 
L 628 4666 
z
" transform="scale(0.015625)"/>
       <path id="DejaVuSans-6f" d="M 1959 3097 
Q 1497 3097 1228 2736 
Q 959 2375 959 1747 
Q 959 1119 1226 758 
Q 1494 397 1959 397 
Q 2419 397 2687 759 
Q 2956 1122 2956 1747 
Q 2956 2369 2687 2733 
Q 2419 3097 1959 3097 
z
M 1959 3584 
Q 2709 3584 3137 3096 
Q 3566 2609 3566 1747 
Q 3566 888 3137 398 
Q 2709 -91 1959 -91 
Q 1206 -91 779 398 
Q 353 888 353 1747 
Q 353 2609 779 3096 
Q 1206 3584 1959 3584 
z
" transform="scale(0.015625)"/>
       <path id="DejaVuSans-73" d="M 2834 3397 
L 2834 2853 
Q 2591 2978 2328 3040 
Q 2066 3103 1784 3103 
Q 1356 3103 1142 2972 
Q 928 2841 928 2578 
Q 928 2378 1081 2264 
Q 1234 2150 1697 2047 
L 1894 2003 
Q 2506 1872 2764 1633 
Q 3022 1394 3022 966 
Q 3022 478 2636 193 
Q 2250 -91 1575 -91 
Q 1294 -91 989 -36 
Q 684 19 347 128 
L 347 722 
Q 666 556 975 473 
Q 1284 391 1588 391 
Q 1994 391 2212 530 
Q 2431 669 2431 922 
Q 2431 1156 2273 1281 
Q 2116 1406 1581 1522 
L 1381 1569 
Q 847 1681 609 1914 
Q 372 2147 372 2553 
Q 372 3047 722 3315 
Q 1072 3584 1716 3584 
Q 2034 3584 2315 3537 
Q 2597 3491 2834 3397 
z
" transform="scale(0.015625)"/>
       <path id="DejaVuSans-69" d="M 603 3500 
L 1178 3500 
L 1178 0 
L 603 0 
L 603 3500 
z
M 603 4863 
L 1178 4863 
L 1178 4134 
L 603 4134 
L 603 4863 
z
" transform="scale(0.015625)"/>
       <path id="DejaVuSans-74" d="M 1172 4494 
L 1172 3500 
L 2356 3500 
L 2356 3053 
L 1172 3053 
L 1172 1153 
Q 1172 725 1289 603 
Q 1406 481 1766 481 
L 2356 481 
L 2356 0 
L 1766 0 
Q 1100 0 847 248 
Q 594 497 594 1153 
L 594 3053 
L 172 3053 
L 172 3500 
L 594 3500 
L 594 4494 
L 1172 4494 
z
" transform="scale(0.015625)"/>
       <path id="DejaVuSans-6e" d="M 3513 2113 
L 3513 0 
L 2938 0 
L 2938 2094 
Q 2938 2591 2744 2837 
Q 2550 3084 2163 3084 
Q 1697 3084 1428 2787 
Q 1159 2491 1159 1978 
L 1159 0 
L 581 0 
L 581 3500 
L 1159 3500 
L 1159 2956 
Q 1366 3272 1645 3428 
Q 1925 3584 2291 3584 
Q 2894 3584 3203 3211 
Q 3513 2838 3513 2113 
z
" transform="scale(0.015625)"/>
       <path id="DejaVuSans-20" transform="scale(0.015625)"/>
       <path id="DejaVuSans-45" d="M 628 4666 
L 3578 4666 
L 3578 4134 
L 1259 4134 
L 1259 2753 
L 3481 2753 
L 3481 2222 
L 1259 2222 
L 1259 531 
L 3634 531 
L 3634 0 
L 628 0 
L 628 4666 
z
" transform="scale(0.015625)"/>
       <path id="DejaVuSans-72" d="M 2631 2963 
Q 2534 3019 2420 3045 
Q 2306 3072 2169 3072 
Q 1681 3072 1420 2755 
Q 1159 2438 1159 1844 
L 1159 0 
L 581 0 
L 581 3500 
L 1159 3500 
L 1159 2956 
Q 1341 3275 1631 3429 
Q 1922 3584 2338 3584 
Q 2397 3584 2469 3576 
Q 2541 3569 2628 3553 
L 2631 2963 
z
" transform="scale(0.015625)"/>
       <path id="DejaVuSans-5b" d="M 550 4863 
L 1875 4863 
L 1875 4416 
L 1125 4416 
L 1125 -397 
L 1875 -397 
L 1875 -844 
L 550 -844 
L 550 4863 
z
" transform="scale(0.015625)"/>
       <path id="DejaVuSans-6d" d="M 3328 2828 
Q 3544 3216 3844 3400 
Q 4144 3584 4550 3584 
Q 5097 3584 5394 3201 
Q 5691 2819 5691 2113 
L 5691 0 
L 5113 0 
L 5113 2094 
Q 5113 2597 4934 2840 
Q 4756 3084 4391 3084 
Q 3944 3084 3684 2787 
Q 3425 2491 3425 1978 
L 3425 0 
L 2847 0 
L 2847 2094 
Q 2847 2600 2669 2842 
Q 2491 3084 2119 3084 
Q 1678 3084 1418 2786 
Q 1159 2488 1159 1978 
L 1159 0 
L 581 0 
L 581 3500 
L 1159 3500 
L 1159 2956 
Q 1356 3278 1631 3431 
Q 1906 3584 2284 3584 
Q 2666 3584 2933 3390 
Q 3200 3197 3328 2828 
z
" transform="scale(0.015625)"/>
       <path id="DejaVuSans-5d" d="M 1947 4863 
L 1947 -844 
L 622 -844 
L 622 -397 
L 1369 -397 
L 1369 4416 
L 622 4416 
L 622 4863 
L 1947 4863 
z
" transform="scale(0.015625)"/>
      </defs>
      <use xlink:href="#DejaVuSans-50"/>
      <use xlink:href="#DejaVuSans-6f" transform="translate(56.677734 0)"/>
      <use xlink:href="#DejaVuSans-73" transform="translate(117.859375 0)"/>
      <use xlink:href="#DejaVuSans-69" transform="translate(169.958984 0)"/>
      <use xlink:href="#DejaVuSans-74" transform="translate(197.742188 0)"/>
      <use xlink:href="#DejaVuSans-69" transform="translate(236.951172 0)"/>
      <use xlink:href="#DejaVuSans-6f" transform="translate(264.734375 0)"/>
      <use xlink:href="#DejaVuSans-6e" transform="translate(325.916016 0)"/>
      <use xlink:href="#DejaVuSans-20" transform="translate(389.294922 0)"/>
      <use xlink:href="#DejaVuSans-45" transform="translate(421.082031 0)"/>
      <use xlink:href="#DejaVuSans-72" transform="translate(484.265625 0)"/>
      <use xlink:href="#DejaVuSans-72" transform="translate(523.628906 0)"/>
      <use xlink:href="#DejaVuSans-6f" transform="translate(562.492188 0)"/>
      <use xlink:href="#DejaVuSans-72" transform="translate(623.673828 0)"/>
      <use xlink:href="#DejaVuSans-20" transform="translate(664.787109 0)"/>
      <use xlink:href="#DejaVuSans-5b" transform="translate(696.574219 0)"/>
      <use xlink:href="#DejaVuSans-6d" transform="translate(735.587891 0)"/>
      <use xlink:href="#DejaVuSans-5d" transform="translate(833 0)"/>
     </g>
    </g>
   </g>
   <g id="line2d_17">
    <path d="M 74.604787 182.910703 
L 74.839719 173.405706 
L 75.309584 29.965391 
L 75.779448 169.701116 
L 76.249313 120.266772 
L 76.484245 180.714314 
L 76.954109 144.295231 
L 78.598635 94.911231 
L 79.0685 109.603391 
L 79.303432 89.577109 
L 79.538364 46.066968 
L 80.008229 55.385798 
L 81.18289 137.578638 
L 81.417822 116.817487 
L 81.652754 154.709849 
L 81.887687 164.037113 
L 82.357551 148.466793 
L 82.592483 125.765211 
L 83.29728 134.479697 
L 84.706873 173.441942 
L 84.941806 173.242123 
L 85.41167 182.827469 
L 85.646602 165.135128 
L 86.116467 169.314826 
L 87.52606 124.126821 
L 87.760993 131.426409 
L 88.230857 120.850751 
L 88.465789 128.371951 
L 89.405518 159.105478 
L 89.640451 178.921819 
L 90.110315 169.015565 
L 90.58018 141.594193 
L 90.815112 163.586967 
L 91.754841 180.31873 
L 93.399366 118.295667 
L 93.634299 119.949587 
L 94.574028 137.229644 
L 94.80896 131.208968 
L 95.043892 131.058721 
L 95.278824 118.98598 
L 95.513757 136.357701 
L 95.748689 132.449589 
L 97.628147 181.576579 
L 97.863079 174.173848 
L 98.332944 176.356139 
L 99.977469 117.792605 
L 100.917198 150.5726 
L 101.152131 129.881163 
L 101.387063 113.394907 
L 101.856927 144.591353 
L 102.561724 127.42986 
L 102.796656 141.923211 
L 103.031588 142.283735 
L 103.266521 135.967444 
L 103.501453 154.415724 
L 103.736385 149.815008 
L 104.20625 142.950025 
L 104.676114 117.079123 
L 105.145979 136.243166 
L 105.380911 137.691441 
L 106.085708 110.052527 
L 106.32064 121.360527 
L 106.790504 118.468564 
L 107.495301 133.288687 
L 107.730233 111.858246 
L 108.669962 112.501579 
L 109.374759 141.950502 
L 111.019285 175.682724 
L 111.254217 160.711014 
L 111.489149 176.237891 
L 111.959014 168.221845 
L 112.193946 167.08245 
L 112.428878 170.790027 
L 112.663811 182.062209 
L 113.368607 180.516695 
L 114.073404 181.031513 
L 114.543268 163.198416 
L 115.952862 182.197207 
L 115.013133 160.275668 
L 116.187794 171.21455 
L 116.657659 155.167309 
L 117.127523 161.755369 
L 119.006981 182.640247 
L 119.94671 172.688454 
L 119.711778 182.679101 
L 120.181642 176.79087 
L 120.416575 174.644944 
L 120.651507 181.820235 
L 121.121371 173.591851 
L 121.356304 170.713903 
L 121.591236 181.065574 
L 122.296033 174.802447 
L 122.765897 166.181714 
L 123.000829 178.842661 
L 123.235762 182.086011 
L 123.470694 180.951872 
L 124.17549 167.202356 
L 124.645355 171.724292 
L 124.880287 177.719459 
L 125.350152 164.452455 
L 125.585084 151.100959 
L 126.289881 157.286118 
L 126.759745 175.815527 
L 127.22961 167.498279 
L 127.699474 155.293685 
L 128.169339 167.567585 
L 129.109068 179.885235 
L 129.344 170.53204 
L 129.578932 170.363092 
L 130.283729 181.693251 
L 130.048797 170.223202 
L 130.518661 180.257546 
L 130.753593 168.187156 
L 131.45839 174.636807 
L 132.163187 182.090308 
L 131.928255 169.122935 
L 132.398119 176.490428 
L 132.867984 169.307864 
L 133.337848 173.91211 
L 133.57278 175.731185 
L 134.747441 160.120115 
L 134.982374 161.782459 
L 135.217306 172.561795 
L 135.452238 159.978541 
L 135.68717 161.82979 
L 135.922103 149.89443 
L 136.391967 166.328348 
L 136.626899 159.089323 
L 137.331696 166.18117 
L 138.271425 150.401109 
L 138.506357 150.897727 
L 139.915951 181.312168 
L 140.620748 151.937017 
L 141.090612 156.671067 
L 141.325544 160.207243 
L 141.560477 153.338789 
L 143.205002 107.054315 
L 143.439935 110.689509 
L 144.614596 179.682296 
L 145.319392 176.200724 
L 146.963918 151.914192 
L 147.668715 166.404082 
L 147.903647 160.62852 
L 148.373512 164.16201 
L 151.192699 86.188405 
L 151.427631 67.788115 
L 151.897495 88.770315 
L 154.011886 165.760797 
L 155.186547 151.938412 
L 155.421479 144.910148 
L 155.656411 150.6399 
L 156.831072 176.289747 
L 157.300937 178.983928 
L 158.005734 162.292031 
L 158.240666 179.249285 
L 159.180395 175.333743 
L 159.650259 162.620235 
L 159.885192 167.417299 
L 160.589988 181.423784 
L 161.059853 176.677252 
L 161.76465 174.072622 
L 161.999582 182.184353 
L 162.469446 169.980566 
L 162.939311 179.222307 
L 163.174243 182.875942 
L 164.348904 167.501998 
L 164.583837 166.430036 
L 164.818769 167.624426 
L 165.053701 171.70096 
L 165.288633 160.03532 
L 165.523565 163.92991 
L 165.758498 163.425674 
L 165.99343 165.521328 
L 166.463294 149.900237 
L 166.698227 165.371357 
L 166.933159 182.738746 
L 167.637956 167.784652 
L 167.872888 164.346714 
L 168.10782 178.429545 
L 168.577685 163.687621 
L 169.047549 175.639255 
L 169.282481 176.623822 
L 169.517414 172.483448 
L 169.987278 178.484247 
L 170.457143 182.673297 
L 170.692075 175.555838 
L 170.927007 179.987052 
L 172.806465 138.536809 
L 174.216059 166.65067 
L 174.450991 161.892504 
L 175.860584 126.205468 
L 176.095516 122.48027 
L 176.330449 127.061864 
L 177.270178 153.487304 
L 177.50511 149.383579 
L 177.740042 148.540956 
L 178.209907 137.989706 
L 178.914703 138.909238 
L 179.384568 130.629648 
L 179.6195 140.14145 
L 179.854432 134.132338 
L 180.794161 157.288941 
L 181.029094 152.873467 
L 181.264026 137.694286 
L 182.203755 139.780314 
L 183.378416 160.525067 
L 183.613348 155.593954 
L 183.848281 153.286341 
L 184.083213 155.151401 
L 184.553077 180.591169 
L 185.257874 171.570238 
L 185.727738 180.016472 
L 185.962671 169.895691 
L 186.197603 174.55631 
L 186.432535 165.515686 
L 186.667467 181.307024 
L 187.137332 175.016469 
L 187.372264 181.688299 
L 187.842129 170.825327 
L 188.311993 180.142744 
L 188.546925 179.197504 
L 189.01679 180.936012 
L 189.251722 180.021156 
L 189.486654 167.145982 
L 189.956519 181.763302 
L 190.191451 176.466121 
L 191.366112 155.703172 
L 191.835977 158.950627 
L 192.305841 165.106146 
L 192.540774 155.582676 
L 192.775706 156.477903 
L 193.010638 153.371209 
L 193.24557 168.573977 
L 193.715435 149.874732 
L 194.185299 149.168685 
L 194.890096 155.809548 
L 195.359961 145.169657 
L 195.829825 154.936507 
L 197.944215 181.389819 
L 198.41408 180.436365 
L 198.649012 170.869215 
L 199.118876 181.429688 
L 199.353809 174.802682 
L 199.588741 181.095958 
L 200.058605 170.948869 
L 201.233267 127.959044 
L 201.468199 145.871553 
L 202.64286 169.730659 
L 203.347657 169.22249 
L 203.582589 164.061832 
L 204.052454 174.882617 
L 204.287386 168.982478 
L 204.522318 166.206011 
L 204.75725 178.789249 
L 205.227115 163.222003 
L 205.462047 174.934733 
L 205.696979 166.731834 
L 205.931912 182.199356 
L 206.166844 174.447583 
L 207.106573 180.627727 
L 207.341505 179.217886 
L 207.811369 163.777293 
L 208.281234 172.035459 
L 208.516166 181.495479 
L 209.220963 179.984384 
L 209.92576 161.28323 
L 210.395624 163.100001 
L 210.630556 174.874712 
L 211.570285 174.446347 
L 211.805218 178.424732 
L 212.04015 168.694729 
L 212.510014 173.653657 
L 212.744947 176.580591 
L 212.979879 159.317839 
L 213.919608 160.024446 
L 214.859337 182.789564 
L 215.799066 177.286185 
L 216.738795 159.459573 
L 216.26893 177.671715 
L 216.973727 161.174937 
L 217.208659 174.459685 
L 217.913456 160.085747 
L 219.088117 134.717164 
L 219.792914 144.275316 
L 220.497711 170.860828 
L 220.967575 157.617764 
L 221.43744 159.813676 
L 221.672372 171.424791 
L 221.907304 159.122005 
L 222.142236 160.504876 
L 223.55183 133.949555 
L 223.786762 141.67993 
L 224.256627 130.448266 
L 224.491559 133.085993 
L 224.726491 129.329323 
L 224.961423 140.825952 
L 225.66622 147.133777 
L 225.901152 166.112503 
L 226.371017 154.397525 
L 226.840881 125.314081 
L 227.310746 135.251394 
L 228.250475 182.714047 
L 228.720339 179.133777 
L 229.190204 165.940897 
L 229.895 174.520376 
L 230.599797 181.334348 
L 230.834729 174.077199 
L 231.069662 180.695109 
L 231.304594 180.872223 
L 233.888849 150.012572 
L 234.828578 165.425511 
L 235.06351 158.88358 
L 235.533374 176.285025 
L 236.473103 175.942604 
L 236.708036 174.51827 
L 236.942968 164.998929 
L 237.412832 181.145059 
L 237.647764 168.839206 
L 237.882697 180.084774 
L 238.352561 167.659531 
L 240.466951 119.833506 
L 240.701884 118.815932 
L 242.346409 182.574216 
L 243.286138 162.725697 
L 243.521071 147.080142 
L 244.225867 157.102679 
L 244.4608 165.643156 
L 244.930664 147.056199 
L 246.340258 164.272304 
L 245.400529 140.253949 
L 246.57519 160.198393 
L 246.810122 156.668777 
L 247.045054 168.978021 
L 247.749851 163.584092 
L 249.394377 122.864392 
L 249.864241 142.143644 
L 250.80397 173.485101 
L 251.038902 154.582717 
L 251.273835 154.190231 
L 251.743699 159.270009 
L 252.448496 137.052618 
L 252.91836 140.872306 
L 254.797818 181.83817 
L 253.388225 136.404573 
L 255.032751 167.502339 
L 256.207412 150.966524 
L 256.912209 157.410267 
L 257.382073 174.89976 
L 257.851937 158.42371 
L 258.08687 157.721679 
L 259.731395 124.334674 
L 259.966328 141.643576 
L 260.671124 128.917208 
L 261.845786 163.022668 
L 262.080718 154.346105 
L 262.550582 139.319221 
L 262.785515 145.077775 
L 263.490311 144.262986 
L 263.960176 159.948751 
L 264.195108 151.965492 
L 264.43004 177.722472 
L 264.664973 180.282864 
L 264.899905 174.159867 
L 265.134837 175.649583 
L 268.893753 113.181508 
L 265.604702 177.711899 
L 269.128685 130.829891 
L 269.363617 130.869701 
L 269.833482 144.129719 
L 270.303346 134.157245 
L 270.773211 119.744496 
L 271.478008 120.133002 
L 273.592398 148.775087 
L 274.062262 145.981543 
L 274.532127 120.209577 
L 275.236924 130.510368 
L 276.646517 182.0986 
L 279.465704 134.244434 
L 279.700636 139.820797 
L 280.640365 182.711104 
L 280.875297 182.591629 
L 281.580094 153.481838 
L 282.049959 171.260056 
L 283.22462 182.133313 
L 283.459552 171.266949 
L 284.164349 177.147673 
L 284.634213 173.861151 
L 284.869146 178.010525 
L 285.104078 182.561099 
L 285.33901 172.464743 
L 285.573942 172.250686 
L 285.808875 173.256016 
L 286.278739 155.49751 
L 286.748604 175.400255 
L 287.4534 150.428379 
L 287.688333 161.048476 
L 287.923265 171.104772 
L 288.393129 156.731369 
L 290.742452 104.340719 
L 290.977384 106.245245 
L 291.212316 112.238464 
L 291.447248 90.002949 
L 291.682181 113.616373 
L 292.152045 102.170838 
L 293.326706 122.074125 
L 292.856842 98.682747 
L 293.796571 119.1187 
L 295.206164 97.09804 
L 295.441097 98.289032 
L 296.615758 113.339454 
L 296.85069 110.352504 
L 298.025351 163.141242 
L 298.260284 141.969092 
L 298.495216 143.77332 
L 299.200012 115.831521 
L 299.669877 127.771293 
L 301.549335 93.372917 
L 300.139741 131.856558 
L 301.784267 95.324663 
L 302.019199 112.604261 
L 302.723996 107.757623 
L 302.958928 106.826365 
L 303.193861 108.108879 
L 303.428793 107.549659 
L 304.838386 142.52612 
L 306.24798 152.302151 
L 306.482912 141.594801 
L 306.717844 149.527732 
L 307.422641 179.857675 
L 307.892506 172.847016 
L 308.127438 181.570662 
L 308.597302 164.767437 
L 311.181557 104.050858 
L 311.416489 105.141447 
L 312.826083 81.949147 
L 313.061015 93.894454 
L 313.530879 76.085076 
L 314.000744 71.06638 
L 314.940473 91.019903 
L 315.175405 90.585411 
L 315.410337 92.974261 
L 315.64527 108.813943 
L 316.350066 103.116305 
L 317.289795 82.827676 
L 317.524728 86.889285 
L 317.75966 96.058231 
L 318.229524 79.894747 
L 318.464457 81.569772 
L 319.639118 63.779184 
L 320.108982 82.281699 
L 320.578847 70.915401 
L 321.048711 56.360836 
L 321.518576 62.451788 
L 322.693237 100.204274 
L 322.928169 96.340897 
L 323.163101 87.212131 
L 323.398034 99.203341 
L 323.632966 98.804229 
L 324.10283 120.59134 
L 324.572695 96.703996 
L 324.807627 114.861623 
L 325.042559 113.285025 
L 325.277492 113.737984 
L 325.512424 124.424147 
L 326.452153 123.901239 
L 328.566543 157.467016 
L 327.15695 123.02211 
L 328.801475 152.7663 
L 329.036408 152.363367 
L 329.506272 160.209367 
L 329.741204 158.685473 
L 329.976137 143.088372 
L 330.446001 163.226613 
L 331.38573 181.258615 
L 331.855594 177.110171 
L 332.090527 173.959729 
L 332.325459 174.239578 
L 332.560391 182.461157 
L 333.030256 173.281955 
L 333.50012 182.419615 
L 334.439849 167.89959 
L 334.674781 172.251815 
L 335.379578 182.102026 
L 335.849443 179.40861 
L 337.259036 129.832406 
L 337.963833 133.862397 
L 338.433697 134.984897 
L 338.66863 130.552283 
L 340.548087 168.300767 
L 340.78302 169.36368 
L 341.017952 182.811136 
L 341.722749 173.200896 
L 343.837139 120.650549 
L 344.072071 133.23076 
L 345.246732 143.027751 
L 347.596055 181.876399 
L 347.830987 176.104077 
L 349.240581 154.794738 
L 349.710445 179.146209 
L 350.415242 173.546289 
L 350.650174 169.106178 
L 350.885106 178.461755 
L 351.120038 176.336742 
L 351.354971 177.459922 
L 351.589903 175.882936 
L 351.824835 173.537925 
L 352.999496 128.338636 
L 353.234429 137.520006 
L 353.704293 141.237057 
L 353.939225 131.587301 
L 354.878954 153.31994 
L 355.113887 151.763458 
L 355.348819 151.531814 
L 355.583751 143.019539 
L 355.818683 155.252363 
L 356.288548 152.381757 
L 357.228277 164.468277 
L 357.698141 158.144971 
L 358.63787 129.087786 
L 358.872803 137.427143 
L 359.107735 146.815843 
L 360.047464 145.551841 
L 360.282396 151.40441 
L 360.517328 144.271189 
L 360.752261 132.158907 
L 361.222125 133.99274 
L 362.631718 160.521464 
L 362.866651 160.598326 
L 363.571447 160.451135 
L 364.276244 178.719636 
L 364.511176 181.83007 
L 364.746109 179.593853 
L 365.685838 148.182068 
L 365.92077 162.865748 
L 366.390634 179.745763 
L 367.095431 168.951166 
L 367.800228 148.924406 
L 368.03516 152.945283 
L 368.739957 182.719233 
L 369.679686 179.85418 
L 369.914618 171.344974 
L 370.384483 181.009441 
L 370.619415 172.159603 
L 370.854347 173.64785 
L 371.089279 167.310872 
L 371.324212 182.806394 
L 371.559144 178.248665 
L 371.794076 182.116412 
L 372.029008 180.48797 
L 372.733805 159.381239 
L 372.968737 175.922196 
L 373.673534 182.517094 
L 373.908466 178.951333 
L 374.613263 180.335533 
L 374.848195 169.533922 
L 375.31806 180.594602 
L 375.552992 170.767207 
L 375.787924 163.998194 
L 376.257789 178.56109 
L 377.667382 161.856245 
L 378.137247 175.275319 
L 378.607111 163.622932 
L 380.721501 87.500117 
L 381.66123 99.1518 
L 382.131095 96.7402 
L 383.070824 134.731059 
L 383.77562 164.06607 
L 384.010553 155.517651 
L 385.185214 122.928078 
L 385.420146 128.061527 
L 387.769469 154.033859 
L 388.474265 137.346918 
L 388.709198 141.413059 
L 390.118791 178.060086 
L 390.823588 142.661447 
L 391.05852 152.879052 
L 391.998249 181.378586 
L 392.233181 174.893838 
L 392.703046 178.966566 
L 393.17291 177.016881 
L 393.642775 167.729695 
L 393.877707 168.700539 
L 394.347571 181.312664 
L 394.817436 169.268711 
L 395.052368 169.768171 
L 395.2873 167.016769 
L 395.522233 175.670407 
L 395.757165 176.5903 
L 396.696894 132.654099 
L 397.401691 144.853148 
L 398.576352 181.177722 
L 398.811284 178.522707 
L 399.985945 146.955305 
L 400.220878 172.176923 
L 400.925674 152.042718 
L 401.865403 133.007143 
L 402.335268 133.738439 
L 402.5702 124.43373 
L 403.040064 136.280096 
L 403.274997 134.038328 
L 404.449658 160.664068 
L 405.154455 182.581136 
L 405.389387 166.645183 
L 405.624319 170.803401 
L 407.033913 127.323105 
L 407.268845 126.104701 
L 408.678438 171.852869 
L 409.148303 151.876851 
L 409.383235 152.319037 
L 411.027761 114.814292 
L 411.262693 114.919444 
L 411.497625 116.447269 
L 411.96749 96.663496 
L 412.437354 106.874983 
L 414.551744 143.577861 
L 414.786677 135.347773 
L 415.021609 131.016653 
L 415.256541 132.439813 
L 416.666135 161.344298 
L 417.840796 135.017707 
L 417.135999 162.687305 
L 418.075728 143.980095 
L 418.31066 151.276453 
L 418.780525 144.085548 
L 419.720254 127.387981 
L 419.955186 132.313664 
L 421.599712 178.595582 
L 421.834644 176.508525 
L 422.774373 142.231817 
L 423.009305 144.049122 
L 424.888763 181.632265 
L 425.358628 177.866499 
L 425.828492 170.256921 
L 426.063424 173.574867 
L 427.238086 180.593012 
L 427.473018 181.488307 
L 427.942882 166.07212 
L 428.412747 182.223604 
L 428.647679 170.238565 
L 429.117544 167.100492 
L 429.352476 169.691884 
L 429.82234 178.395004 
L 430.057273 163.592489 
L 430.527137 162.363483 
L 431.466866 139.502634 
L 431.936731 149.810781 
L 432.171663 152.123935 
L 432.406595 148.050564 
L 433.346324 126.243939 
L 433.581256 130.52689 
L 434.99085 181.082602 
L 435.695646 166.083108 
L 435.930579 169.331287 
L 436.870308 182.315253 
L 437.10524 176.461812 
L 437.340172 174.266135 
L 437.575104 178.632818 
L 437.810037 182.697366 
L 438.044969 171.283416 
L 439.21963 152.090265 
L 440.629224 113.891493 
L 440.864156 116.300438 
L 441.099088 114.873925 
L 441.33402 107.690823 
L 441.568953 118.191114 
L 442.038817 137.785068 
L 442.508682 121.184193 
L 443.213478 114.807261 
L 442.978546 124.774299 
L 443.448411 116.57717 
L 443.683343 119.575284 
L 445.092936 83.168739 
L 445.562801 83.965986 
L 447.442259 119.069661 
L 447.677191 115.746948 
L 447.912123 119.322603 
L 449.321717 141.088292 
L 449.556649 145.212476 
L 449.791581 135.792675 
L 450.261446 121.567898 
L 450.73131 133.751177 
L 451.201175 148.275334 
L 451.436107 148.159471 
L 452.140904 176.532605 
L 452.610768 170.534844 
L 453.080633 181.460669 
L 453.550497 170.075017 
L 454.490226 155.525218 
L 454.725158 157.38571 
L 455.195023 182.72023 
L 455.899819 179.376717 
L 457.309413 158.981397 
L 457.544345 171.923441 
L 458.249142 170.403882 
L 459.893668 127.985938 
L 461.773126 179.507463 
L 462.008058 173.193694 
L 463.417651 135.348466 
L 463.652584 136.01105 
L 465.062177 179.77125 
L 465.766974 156.575881 
L 466.001906 163.725629 
L 466.706703 180.172852 
L 467.176567 174.79987 
L 467.646432 180.489567 
L 467.881364 175.017288 
L 468.116296 164.244372 
L 468.586161 168.276898 
L 469.290957 181.603417 
L 469.52589 178.077138 
L 471.170415 138.420666 
L 471.405348 139.533602 
L 471.64028 140.877995 
L 471.875212 140.601725 
L 472.814941 109.699234 
L 473.049873 121.099118 
L 474.459467 157.288399 
L 474.694399 155.590505 
L 475.164263 130.134175 
L 475.634128 139.506195 
L 476.103992 162.689799 
L 476.808789 156.56851 
L 477.278654 147.403015 
L 477.748518 155.00359 
L 477.98345 155.855639 
L 478.218383 154.284209 
L 478.453315 162.538399 
L 478.688247 142.377188 
L 480.097841 100.899403 
L 481.272502 140.443864 
L 481.742366 139.291048 
L 482.917028 108.409825 
L 483.15196 119.598966 
L 483.621824 136.410045 
L 484.326621 133.439433 
L 485.736214 110.645571 
L 487.615672 123.90508 
L 487.850605 116.108909 
L 488.085537 131.951507 
L 488.320469 138.125038 
L 488.790334 126.531587 
L 489.025266 125.790328 
L 489.260198 129.115206 
L 490.199927 164.447298 
L 490.434859 155.828169 
L 490.669792 157.046541 
L 491.139656 178.414873 
L 491.844453 176.37549 
L 492.314317 180.382324 
L 492.54925 176.665411 
L 493.254046 179.10748 
L 493.488979 163.636415 
L 494.66364 180.095862 
L 495.368437 178.117041 
L 495.838301 171.687303 
L 496.308165 182.62137 
L 496.543098 165.817957 
L 497.247894 181.118762 
L 498.187623 168.628788 
L 498.657488 171.573874 
L 499.362285 164.721026 
L 499.597217 180.167162 
L 500.536946 170.270406 
L 500.771878 173.337434 
L 501.241743 181.791749 
L 501.946539 178.513737 
L 503.121201 132.644018 
L 504.06093 147.657826 
L 504.295862 141.949461 
L 504.530794 141.761391 
L 504.765726 147.102569 
L 505.000659 145.305521 
L 505.235591 132.326087 
L 505.705455 158.922254 
L 505.940387 154.986852 
L 506.17532 162.738182 
L 506.410252 158.725072 
L 506.645184 167.820071 
L 506.880116 145.175653 
L 507.349981 158.111508 
L 507.584913 154.775509 
L 507.819845 162.257449 
L 508.054778 162.093686 
L 508.994507 182.690186 
L 509.229439 170.476928 
L 509.699303 154.79039 
L 509.934236 170.876853 
L 510.4041 163.923357 
L 511.343829 182.576742 
L 512.048626 179.455105 
L 512.283558 170.379742 
L 512.988355 180.333687 
L 513.458219 156.553698 
L 515.57261 79.391162 
L 516.042474 84.37621 
L 516.277406 83.792442 
L 516.512338 62.122307 
L 517.217135 75.092812 
L 521.91578 136.548573 
L 517.687 72.395104 
L 522.150712 132.060909 
L 522.385645 118.977801 
L 523.090441 134.15702 
L 523.795238 148.769374 
L 524.03017 141.949185 
L 524.265103 137.343507 
L 524.500035 147.681578 
L 525.439764 162.666307 
L 524.969899 144.750377 
L 525.674696 155.000394 
L 526.144561 159.552262 
L 527.084289 137.086441 
L 527.319222 155.818085 
L 528.024018 151.790606 
L 528.258951 130.582569 
L 529.19868 132.300352 
L 529.433612 117.10895 
L 530.138409 120.056545 
L 530.373341 123.800424 
L 531.078138 106.90662 
L 531.31307 118.307592 
L 532.957596 147.760792 
L 533.42746 131.72448 
L 533.897325 147.490474 
L 534.602121 125.440416 
L 535.071986 137.681116 
L 536.246647 157.907585 
L 536.481579 162.749188 
L 536.716512 159.876449 
L 537.891173 133.140024 
L 538.126105 135.548656 
L 538.595969 133.483044 
L 539.065834 148.159463 
L 539.300766 132.696731 
L 539.770631 140.958636 
L 540.475427 169.895715 
L 540.945292 160.229065 
L 541.180224 158.719129 
L 541.415156 161.297001 
L 542.119953 180.847749 
L 542.589818 171.985458 
L 542.82475 169.725223 
L 543.294614 179.878929 
L 543.764479 176.47946 
L 544.469276 165.860275 
L 544.469276 165.860275 
" clip-path="url(#pd26ee3f291)" style="fill: none; stroke: #e41a1c; stroke-width: 2; stroke-linecap: square"/>
   </g>
   <g id="patch_3">
    <path d="M 51.111563 190.557969 
L 51.111563 22.318125 
" style="fill: none; stroke: #7f7f7f; stroke-width: 1.8; stroke-linejoin: miter; stroke-linecap: square"/>
   </g>
   <g id="patch_4">
    <path d="M 51.111563 190.557969 
L 567.9625 190.557969 
" style="fill: none; stroke: #7f7f7f; stroke-width: 1.8; stroke-linejoin: miter; stroke-linecap: square"/>
   </g>
   <g id="text_18">
    <!-- Kalman Filter Estimation Error -->
    <g style="fill: #7f7f7f" transform="translate(206.523594 16.318125) scale(0.12 -0.12)">
     <defs>
      <path id="DejaVuSans-Bold-4b" d="M 588 4666 
L 1791 4666 
L 1791 2963 
L 3525 4666 
L 4922 4666 
L 2675 2456 
L 5153 0 
L 3647 0 
L 1791 1838 
L 1791 0 
L 588 0 
L 588 4666 
z
" transform="scale(0.015625)"/>
      <path id="DejaVuSans-Bold-61" d="M 2106 1575 
Q 1756 1575 1579 1456 
Q 1403 1338 1403 1106 
Q 1403 894 1545 773 
Q 1688 653 1941 653 
Q 2256 653 2472 879 
Q 2688 1106 2688 1447 
L 2688 1575 
L 2106 1575 
z
M 3816 1997 
L 3816 0 
L 2688 0 
L 2688 519 
Q 2463 200 2181 54 
Q 1900 -91 1497 -91 
Q 953 -91 614 226 
Q 275 544 275 1050 
Q 275 1666 698 1953 
Q 1122 2241 2028 2241 
L 2688 2241 
L 2688 2328 
Q 2688 2594 2478 2717 
Q 2269 2841 1825 2841 
Q 1466 2841 1156 2769 
Q 847 2697 581 2553 
L 581 3406 
Q 941 3494 1303 3539 
Q 1666 3584 2028 3584 
Q 2975 3584 3395 3211 
Q 3816 2838 3816 1997 
z
" transform="scale(0.015625)"/>
      <path id="DejaVuSans-Bold-6c" d="M 538 4863 
L 1656 4863 
L 1656 0 
L 538 0 
L 538 4863 
z
" transform="scale(0.015625)"/>
      <path id="DejaVuSans-Bold-6d" d="M 3781 2919 
Q 3994 3244 4286 3414 
Q 4578 3584 4928 3584 
Q 5531 3584 5847 3212 
Q 6163 2841 6163 2131 
L 6163 0 
L 5038 0 
L 5038 1825 
Q 5041 1866 5042 1909 
Q 5044 1953 5044 2034 
Q 5044 2406 4934 2573 
Q 4825 2741 4581 2741 
Q 4263 2741 4089 2478 
Q 3916 2216 3909 1719 
L 3909 0 
L 2784 0 
L 2784 1825 
Q 2784 2406 2684 2573 
Q 2584 2741 2328 2741 
Q 2006 2741 1831 2477 
Q 1656 2213 1656 1722 
L 1656 0 
L 531 0 
L 531 3500 
L 1656 3500 
L 1656 2988 
Q 1863 3284 2130 3434 
Q 2397 3584 2719 3584 
Q 3081 3584 3359 3409 
Q 3638 3234 3781 2919 
z
" transform="scale(0.015625)"/>
      <path id="DejaVuSans-Bold-6e" d="M 4056 2131 
L 4056 0 
L 2931 0 
L 2931 347 
L 2931 1631 
Q 2931 2084 2911 2256 
Q 2891 2428 2841 2509 
Q 2775 2619 2662 2680 
Q 2550 2741 2406 2741 
Q 2056 2741 1856 2470 
Q 1656 2200 1656 1722 
L 1656 0 
L 538 0 
L 538 3500 
L 1656 3500 
L 1656 2988 
Q 1909 3294 2193 3439 
Q 2478 3584 2822 3584 
Q 3428 3584 3742 3212 
Q 4056 2841 4056 2131 
z
" transform="scale(0.015625)"/>
      <path id="DejaVuSans-Bold-20" transform="scale(0.015625)"/>
      <path id="DejaVuSans-Bold-46" d="M 588 4666 
L 3834 4666 
L 3834 3756 
L 1791 3756 
L 1791 2888 
L 3713 2888 
L 3713 1978 
L 1791 1978 
L 1791 0 
L 588 0 
L 588 4666 
z
" transform="scale(0.015625)"/>
      <path id="DejaVuSans-Bold-69" d="M 538 3500 
L 1656 3500 
L 1656 0 
L 538 0 
L 538 3500 
z
M 538 4863 
L 1656 4863 
L 1656 3950 
L 538 3950 
L 538 4863 
z
" transform="scale(0.015625)"/>
      <path id="DejaVuSans-Bold-74" d="M 1759 4494 
L 1759 3500 
L 2913 3500 
L 2913 2700 
L 1759 2700 
L 1759 1216 
Q 1759 972 1856 886 
Q 1953 800 2241 800 
L 2816 800 
L 2816 0 
L 1856 0 
Q 1194 0 917 276 
Q 641 553 641 1216 
L 641 2700 
L 84 2700 
L 84 3500 
L 641 3500 
L 641 4494 
L 1759 4494 
z
" transform="scale(0.015625)"/>
      <path id="DejaVuSans-Bold-65" d="M 4031 1759 
L 4031 1441 
L 1416 1441 
Q 1456 1047 1700 850 
Q 1944 653 2381 653 
Q 2734 653 3104 758 
Q 3475 863 3866 1075 
L 3866 213 
Q 3469 63 3072 -14 
Q 2675 -91 2278 -91 
Q 1328 -91 801 392 
Q 275 875 275 1747 
Q 275 2603 792 3093 
Q 1309 3584 2216 3584 
Q 3041 3584 3536 3087 
Q 4031 2591 4031 1759 
z
M 2881 2131 
Q 2881 2450 2695 2645 
Q 2509 2841 2209 2841 
Q 1884 2841 1681 2658 
Q 1478 2475 1428 2131 
L 2881 2131 
z
" transform="scale(0.015625)"/>
      <path id="DejaVuSans-Bold-72" d="M 3138 2547 
Q 2991 2616 2845 2648 
Q 2700 2681 2553 2681 
Q 2122 2681 1889 2404 
Q 1656 2128 1656 1613 
L 1656 0 
L 538 0 
L 538 3500 
L 1656 3500 
L 1656 2925 
Q 1872 3269 2151 3426 
Q 2431 3584 2822 3584 
Q 2878 3584 2943 3579 
Q 3009 3575 3134 3559 
L 3138 2547 
z
" transform="scale(0.015625)"/>
      <path id="DejaVuSans-Bold-45" d="M 588 4666 
L 3834 4666 
L 3834 3756 
L 1791 3756 
L 1791 2888 
L 3713 2888 
L 3713 1978 
L 1791 1978 
L 1791 909 
L 3903 909 
L 3903 0 
L 588 0 
L 588 4666 
z
" transform="scale(0.015625)"/>
      <path id="DejaVuSans-Bold-73" d="M 3272 3391 
L 3272 2541 
Q 2913 2691 2578 2766 
Q 2244 2841 1947 2841 
Q 1628 2841 1473 2761 
Q 1319 2681 1319 2516 
Q 1319 2381 1436 2309 
Q 1553 2238 1856 2203 
L 2053 2175 
Q 2913 2066 3209 1816 
Q 3506 1566 3506 1031 
Q 3506 472 3093 190 
Q 2681 -91 1863 -91 
Q 1516 -91 1145 -36 
Q 775 19 384 128 
L 384 978 
Q 719 816 1070 734 
Q 1422 653 1784 653 
Q 2113 653 2278 743 
Q 2444 834 2444 1013 
Q 2444 1163 2330 1236 
Q 2216 1309 1875 1350 
L 1678 1375 
Q 931 1469 631 1722 
Q 331 1975 331 2491 
Q 331 3047 712 3315 
Q 1094 3584 1881 3584 
Q 2191 3584 2531 3537 
Q 2872 3491 3272 3391 
z
" transform="scale(0.015625)"/>
      <path id="DejaVuSans-Bold-6f" d="M 2203 2784 
Q 1831 2784 1636 2517 
Q 1441 2250 1441 1747 
Q 1441 1244 1636 976 
Q 1831 709 2203 709 
Q 2569 709 2762 976 
Q 2956 1244 2956 1747 
Q 2956 2250 2762 2517 
Q 2569 2784 2203 2784 
z
M 2203 3584 
Q 3106 3584 3614 3096 
Q 4122 2609 4122 1747 
Q 4122 884 3614 396 
Q 3106 -91 2203 -91 
Q 1297 -91 786 396 
Q 275 884 275 1747 
Q 275 2609 786 3096 
Q 1297 3584 2203 3584 
z
" transform="scale(0.015625)"/>
     </defs>
     <use xlink:href="#DejaVuSans-Bold-4b"/>
     <use xlink:href="#DejaVuSans-Bold-61" transform="translate(77.490234 0)"/>
     <use xlink:href="#DejaVuSans-Bold-6c" transform="translate(144.970703 0)"/>
     <use xlink:href="#DejaVuSans-Bold-6d" transform="translate(179.248047 0)"/>
     <use xlink:href="#DejaVuSans-Bold-61" transform="translate(283.447266 0)"/>
     <use xlink:href="#DejaVuSans-Bold-6e" transform="translate(350.927734 0)"/>
     <use xlink:href="#DejaVuSans-Bold-20" transform="translate(422.119141 0)"/>
     <use xlink:href="#DejaVuSans-Bold-46" transform="translate(456.933594 0)"/>
     <use xlink:href="#DejaVuSans-Bold-69" transform="translate(525.244141 0)"/>
     <use xlink:href="#DejaVuSans-Bold-6c" transform="translate(559.521484 0)"/>
     <use xlink:href="#DejaVuSans-Bold-74" transform="translate(593.798828 0)"/>
     <use xlink:href="#DejaVuSans-Bold-65" transform="translate(641.601562 0)"/>
     <use xlink:href="#DejaVuSans-Bold-72" transform="translate(709.423828 0)"/>
     <use xlink:href="#DejaVuSans-Bold-20" transform="translate(758.740234 0)"/>
     <use xlink:href="#DejaVuSans-Bold-45" transform="translate(793.554688 0)"/>
     <use xlink:href="#DejaVuSans-Bold-73" transform="translate(861.865234 0)"/>
     <use xlink:href="#DejaVuSans-Bold-74" transform="translate(921.386719 0)"/>
     <use xlink:href="#DejaVuSans-Bold-69" transform="translate(969.189453 0)"/>
     <use xlink:href="#DejaVuSans-Bold-6d" transform="translate(1003.466797 0)"/>
     <use xlink:href="#DejaVuSans-Bold-61" transform="translate(1107.666016 0)"/>
     <use xlink:href="#DejaVuSans-Bold-74" transform="translate(1175.146484 0)"/>
     <use xlink:href="#DejaVuSans-Bold-69" transform="translate(1222.949219 0)"/>
     <use xlink:href="#DejaVuSans-Bold-6f" transform="translate(1257.226562 0)"/>
     <use xlink:href="#DejaVuSans-Bold-6e" transform="translate(1325.927734 0)"/>
     <use xlink:href="#DejaVuSans-Bold-20" transform="translate(1397.119141 0)"/>
     <use xlink:href="#DejaVuSans-Bold-45" transform="translate(1431.933594 0)"/>
     <use xlink:href="#DejaVuSans-Bold-72" transform="translate(1500.244141 0)"/>
     <use xlink:href="#DejaVuSans-Bold-72" transform="translate(1549.560547 0)"/>
     <use xlink:href="#DejaVuSans-Bold-6f" transform="translate(1598.876953 0)"/>
     <use xlink:href="#DejaVuSans-Bold-72" transform="translate(1667.578125 0)"/>
    </g>
   </g>
  </g>
  <g id="axes_2">
   <g id="patch_5">
    <path d="M 51.111563 386.275937 
L 567.9625 386.275937 
L 567.9625 218.036094 
L 51.111563 218.036094 
L 51.111563 386.275937 
z
" style="fill: none"/>
   </g>
   <g id="matplotlib.axis_3">
    <g id="xtick_10">
     <g id="line2d_18">
      <g>
       <use xlink:href="#m1ada8da4f9" x="74.604787" y="386.275937" style="fill: #7f7f7f; stroke: #7f7f7f; stroke-width: 1.8"/>
      </g>
     </g>
     <g id="text_19">
      <!-- 0.0 -->
      <g style="fill: #7f7f7f" transform="translate(66.653224 400.874375) scale(0.1 -0.1)">
       <use xlink:href="#DejaVuSans-30"/>
       <use xlink:href="#DejaVuSans-2e" transform="translate(63.623047 0)"/>
       <use xlink:href="#DejaVuSans-30" transform="translate(95.410156 0)"/>
      </g>
     </g>
    </g>
    <g id="xtick_11">
     <g id="line2d_19">
      <g>
       <use xlink:href="#m1ada8da4f9" x="133.337848" y="386.275937" style="fill: #7f7f7f; stroke: #7f7f7f; stroke-width: 1.8"/>
      </g>
     </g>
     <g id="text_20">
      <!-- 2.5 -->
      <g style="fill: #7f7f7f" transform="translate(125.386286 400.874375) scale(0.1 -0.1)">
       <use xlink:href="#DejaVuSans-32"/>
       <use xlink:href="#DejaVuSans-2e" transform="translate(63.623047 0)"/>
       <use xlink:href="#DejaVuSans-35" transform="translate(95.410156 0)"/>
      </g>
     </g>
    </g>
    <g id="xtick_12">
     <g id="line2d_20">
      <g>
       <use xlink:href="#m1ada8da4f9" x="192.070909" y="386.275937" style="fill: #7f7f7f; stroke: #7f7f7f; stroke-width: 1.8"/>
      </g>
     </g>
     <g id="text_21">
      <!-- 5.0 -->
      <g style="fill: #7f7f7f" transform="translate(184.119347 400.874375) scale(0.1 -0.1)">
       <use xlink:href="#DejaVuSans-35"/>
       <use xlink:href="#DejaVuSans-2e" transform="translate(63.623047 0)"/>
       <use xlink:href="#DejaVuSans-30" transform="translate(95.410156 0)"/>
      </g>
     </g>
    </g>
    <g id="xtick_13">
     <g id="line2d_21">
      <g>
       <use xlink:href="#m1ada8da4f9" x="250.80397" y="386.275937" style="fill: #7f7f7f; stroke: #7f7f7f; stroke-width: 1.8"/>
      </g>
     </g>
     <g id="text_22">
      <!-- 7.5 -->
      <g style="fill: #7f7f7f" transform="translate(242.852408 400.874375) scale(0.1 -0.1)">
       <use xlink:href="#DejaVuSans-37"/>
       <use xlink:href="#DejaVuSans-2e" transform="translate(63.623047 0)"/>
       <use xlink:href="#DejaVuSans-35" transform="translate(95.410156 0)"/>
      </g>
     </g>
    </g>
    <g id="xtick_14">
     <g id="line2d_22">
      <g>
       <use xlink:href="#m1ada8da4f9" x="309.537031" y="386.275937" style="fill: #7f7f7f; stroke: #7f7f7f; stroke-width: 1.8"/>
      </g>
     </g>
     <g id="text_23">
      <!-- 10.0 -->
      <g style="fill: #7f7f7f" transform="translate(298.404219 400.874375) scale(0.1 -0.1)">
       <use xlink:href="#DejaVuSans-31"/>
       <use xlink:href="#DejaVuSans-30" transform="translate(63.623047 0)"/>
       <use xlink:href="#DejaVuSans-2e" transform="translate(127.246094 0)"/>
       <use xlink:href="#DejaVuSans-30" transform="translate(159.033203 0)"/>
      </g>
     </g>
    </g>
    <g id="xtick_15">
     <g id="line2d_23">
      <g>
       <use xlink:href="#m1ada8da4f9" x="368.270092" y="386.275937" style="fill: #7f7f7f; stroke: #7f7f7f; stroke-width: 1.8"/>
      </g>
     </g>
     <g id="text_24">
      <!-- 12.5 -->
      <g style="fill: #7f7f7f" transform="translate(357.13728 400.874375) scale(0.1 -0.1)">
       <use xlink:href="#DejaVuSans-31"/>
       <use xlink:href="#DejaVuSans-32" transform="translate(63.623047 0)"/>
       <use xlink:href="#DejaVuSans-2e" transform="translate(127.246094 0)"/>
       <use xlink:href="#DejaVuSans-35" transform="translate(159.033203 0)"/>
      </g>
     </g>
    </g>
    <g id="xtick_16">
     <g id="line2d_24">
      <g>
       <use xlink:href="#m1ada8da4f9" x="427.003153" y="386.275937" style="fill: #7f7f7f; stroke: #7f7f7f; stroke-width: 1.8"/>
      </g>
     </g>
     <g id="text_25">
      <!-- 15.0 -->
      <g style="fill: #7f7f7f" transform="translate(415.870341 400.874375) scale(0.1 -0.1)">
       <use xlink:href="#DejaVuSans-31"/>
       <use xlink:href="#DejaVuSans-35" transform="translate(63.623047 0)"/>
       <use xlink:href="#DejaVuSans-2e" transform="translate(127.246094 0)"/>
       <use xlink:href="#DejaVuSans-30" transform="translate(159.033203 0)"/>
      </g>
     </g>
    </g>
    <g id="xtick_17">
     <g id="line2d_25">
      <g>
       <use xlink:href="#m1ada8da4f9" x="485.736214" y="386.275937" style="fill: #7f7f7f; stroke: #7f7f7f; stroke-width: 1.8"/>
      </g>
     </g>
     <g id="text_26">
      <!-- 17.5 -->
      <g style="fill: #7f7f7f" transform="translate(474.603402 400.874375) scale(0.1 -0.1)">
       <use xlink:href="#DejaVuSans-31"/>
       <use xlink:href="#DejaVuSans-37" transform="translate(63.623047 0)"/>
       <use xlink:href="#DejaVuSans-2e" transform="translate(127.246094 0)"/>
       <use xlink:href="#DejaVuSans-35" transform="translate(159.033203 0)"/>
      </g>
     </g>
    </g>
    <g id="xtick_18">
     <g id="line2d_26">
      <g>
       <use xlink:href="#m1ada8da4f9" x="544.469276" y="386.275937" style="fill: #7f7f7f; stroke: #7f7f7f; stroke-width: 1.8"/>
      </g>
     </g>
     <g id="text_27">
      <!-- 20.0 -->
      <g style="fill: #7f7f7f" transform="translate(533.336463 400.874375) scale(0.1 -0.1)">
       <use xlink:href="#DejaVuSans-32"/>
       <use xlink:href="#DejaVuSans-30" transform="translate(63.623047 0)"/>
       <use xlink:href="#DejaVuSans-2e" transform="translate(127.246094 0)"/>
       <use xlink:href="#DejaVuSans-30" transform="translate(159.033203 0)"/>
      </g>
     </g>
    </g>
    <g id="text_28">
     <!-- Time [s] -->
     <g style="fill: #7f7f7f" transform="translate(287.175234 415.312344) scale(0.11 -0.11)">
      <defs>
       <path id="DejaVuSans-54" d="M -19 4666 
L 3928 4666 
L 3928 4134 
L 2272 4134 
L 2272 0 
L 1638 0 
L 1638 4134 
L -19 4134 
L -19 4666 
z
" transform="scale(0.015625)"/>
       <path id="DejaVuSans-65" d="M 3597 1894 
L 3597 1613 
L 953 1613 
Q 991 1019 1311 708 
Q 1631 397 2203 397 
Q 2534 397 2845 478 
Q 3156 559 3463 722 
L 3463 178 
Q 3153 47 2828 -22 
Q 2503 -91 2169 -91 
Q 1331 -91 842 396 
Q 353 884 353 1716 
Q 353 2575 817 3079 
Q 1281 3584 2069 3584 
Q 2775 3584 3186 3129 
Q 3597 2675 3597 1894 
z
M 3022 2063 
Q 3016 2534 2758 2815 
Q 2500 3097 2075 3097 
Q 1594 3097 1305 2825 
Q 1016 2553 972 2059 
L 3022 2063 
z
" transform="scale(0.015625)"/>
      </defs>
      <use xlink:href="#DejaVuSans-54"/>
      <use xlink:href="#DejaVuSans-69" transform="translate(57.958984 0)"/>
      <use xlink:href="#DejaVuSans-6d" transform="translate(85.742188 0)"/>
      <use xlink:href="#DejaVuSans-65" transform="translate(183.154297 0)"/>
      <use xlink:href="#DejaVuSans-20" transform="translate(244.677734 0)"/>
      <use xlink:href="#DejaVuSans-5b" transform="translate(276.464844 0)"/>
      <use xlink:href="#DejaVuSans-73" transform="translate(315.478516 0)"/>
      <use xlink:href="#DejaVuSans-5d" transform="translate(367.578125 0)"/>
     </g>
    </g>
   </g>
   <g id="matplotlib.axis_4">
    <g id="ytick_8">
     <g id="line2d_27">
      <g>
       <use xlink:href="#ma937cc9469" x="51.111563" y="378.630617" style="fill: #7f7f7f; stroke: #7f7f7f; stroke-width: 1.8"/>
      </g>
     </g>
     <g id="text_29">
      <!-- 0.0 -->
      <g style="fill: #7f7f7f" transform="translate(28.208438 382.429836) scale(0.1 -0.1)">
       <use xlink:href="#DejaVuSans-30"/>
       <use xlink:href="#DejaVuSans-2e" transform="translate(63.623047 0)"/>
       <use xlink:href="#DejaVuSans-30" transform="translate(95.410156 0)"/>
      </g>
     </g>
    </g>
    <g id="ytick_9">
     <g id="line2d_28">
      <g>
       <use xlink:href="#ma937cc9469" x="51.111563" y="343.354695" style="fill: #7f7f7f; stroke: #7f7f7f; stroke-width: 1.8"/>
      </g>
     </g>
     <g id="text_30">
      <!-- 0.5 -->
      <g style="fill: #7f7f7f" transform="translate(28.208438 347.153914) scale(0.1 -0.1)">
       <use xlink:href="#DejaVuSans-30"/>
       <use xlink:href="#DejaVuSans-2e" transform="translate(63.623047 0)"/>
       <use xlink:href="#DejaVuSans-35" transform="translate(95.410156 0)"/>
      </g>
     </g>
    </g>
    <g id="ytick_10">
     <g id="line2d_29">
      <g>
       <use xlink:href="#ma937cc9469" x="51.111563" y="308.078773" style="fill: #7f7f7f; stroke: #7f7f7f; stroke-width: 1.8"/>
      </g>
     </g>
     <g id="text_31">
      <!-- 1.0 -->
      <g style="fill: #7f7f7f" transform="translate(28.208438 311.877992) scale(0.1 -0.1)">
       <use xlink:href="#DejaVuSans-31"/>
       <use xlink:href="#DejaVuSans-2e" transform="translate(63.623047 0)"/>
       <use xlink:href="#DejaVuSans-30" transform="translate(95.410156 0)"/>
      </g>
     </g>
    </g>
    <g id="ytick_11">
     <g id="line2d_30">
      <g>
       <use xlink:href="#ma937cc9469" x="51.111563" y="272.802852" style="fill: #7f7f7f; stroke: #7f7f7f; stroke-width: 1.8"/>
      </g>
     </g>
     <g id="text_32">
      <!-- 1.5 -->
      <g style="fill: #7f7f7f" transform="translate(28.208438 276.60207) scale(0.1 -0.1)">
       <use xlink:href="#DejaVuSans-31"/>
       <use xlink:href="#DejaVuSans-2e" transform="translate(63.623047 0)"/>
       <use xlink:href="#DejaVuSans-35" transform="translate(95.410156 0)"/>
      </g>
     </g>
    </g>
    <g id="ytick_12">
     <g id="line2d_31">
      <g>
       <use xlink:href="#ma937cc9469" x="51.111563" y="237.52693" style="fill: #7f7f7f; stroke: #7f7f7f; stroke-width: 1.8"/>
      </g>
     </g>
     <g id="text_33">
      <!-- 2.0 -->
      <g style="fill: #7f7f7f" transform="translate(28.208438 241.326149) scale(0.1 -0.1)">
       <use xlink:href="#DejaVuSans-32"/>
       <use xlink:href="#DejaVuSans-2e" transform="translate(63.623047 0)"/>
       <use xlink:href="#DejaVuSans-30" transform="translate(95.410156 0)"/>
      </g>
     </g>
    </g>
    <g id="text_34">
     <!-- Velocity Error [m/s] -->
     <g style="fill: #7f7f7f" transform="translate(21.920781 354.999844) rotate(-90) scale(0.11 -0.11)">
      <defs>
       <path id="DejaVuSans-56" d="M 1831 0 
L 50 4666 
L 709 4666 
L 2188 738 
L 3669 4666 
L 4325 4666 
L 2547 0 
L 1831 0 
z
" transform="scale(0.015625)"/>
       <path id="DejaVuSans-6c" d="M 603 4863 
L 1178 4863 
L 1178 0 
L 603 0 
L 603 4863 
z
" transform="scale(0.015625)"/>
       <path id="DejaVuSans-63" d="M 3122 3366 
L 3122 2828 
Q 2878 2963 2633 3030 
Q 2388 3097 2138 3097 
Q 1578 3097 1268 2742 
Q 959 2388 959 1747 
Q 959 1106 1268 751 
Q 1578 397 2138 397 
Q 2388 397 2633 464 
Q 2878 531 3122 666 
L 3122 134 
Q 2881 22 2623 -34 
Q 2366 -91 2075 -91 
Q 1284 -91 818 406 
Q 353 903 353 1747 
Q 353 2603 823 3093 
Q 1294 3584 2113 3584 
Q 2378 3584 2631 3529 
Q 2884 3475 3122 3366 
z
" transform="scale(0.015625)"/>
       <path id="DejaVuSans-79" d="M 2059 -325 
Q 1816 -950 1584 -1140 
Q 1353 -1331 966 -1331 
L 506 -1331 
L 506 -850 
L 844 -850 
Q 1081 -850 1212 -737 
Q 1344 -625 1503 -206 
L 1606 56 
L 191 3500 
L 800 3500 
L 1894 763 
L 2988 3500 
L 3597 3500 
L 2059 -325 
z
" transform="scale(0.015625)"/>
       <path id="DejaVuSans-2f" d="M 1625 4666 
L 2156 4666 
L 531 -594 
L 0 -594 
L 1625 4666 
z
" transform="scale(0.015625)"/>
      </defs>
      <use xlink:href="#DejaVuSans-56"/>
      <use xlink:href="#DejaVuSans-65" transform="translate(60.658203 0)"/>
      <use xlink:href="#DejaVuSans-6c" transform="translate(122.181641 0)"/>
      <use xlink:href="#DejaVuSans-6f" transform="translate(149.964844 0)"/>
      <use xlink:href="#DejaVuSans-63" transform="translate(211.146484 0)"/>
      <use xlink:href="#DejaVuSans-69" transform="translate(266.126953 0)"/>
      <use xlink:href="#DejaVuSans-74" transform="translate(293.910156 0)"/>
      <use xlink:href="#DejaVuSans-79" transform="translate(333.119141 0)"/>
      <use xlink:href="#DejaVuSans-20" transform="translate(392.298828 0)"/>
      <use xlink:href="#DejaVuSans-45" transform="translate(424.085938 0)"/>
      <use xlink:href="#DejaVuSans-72" transform="translate(487.269531 0)"/>
      <use xlink:href="#DejaVuSans-72" transform="translate(526.632812 0)"/>
      <use xlink:href="#DejaVuSans-6f" transform="translate(565.496094 0)"/>
      <use xlink:href="#DejaVuSans-72" transform="translate(626.677734 0)"/>
      <use xlink:href="#DejaVuSans-20" transform="translate(667.791016 0)"/>
      <use xlink:href="#DejaVuSans-5b" transform="translate(699.578125 0)"/>
      <use xlink:href="#DejaVuSans-6d" transform="translate(738.591797 0)"/>
      <use xlink:href="#DejaVuSans-2f" transform="translate(836.003906 0)"/>
      <use xlink:href="#DejaVuSans-73" transform="translate(869.695312 0)"/>
      <use xlink:href="#DejaVuSans-5d" transform="translate(921.794922 0)"/>
     </g>
    </g>
   </g>
   <g id="line2d_32">
    <path d="M 74.604787 237.52693 
L 75.074651 238.393169 
L 75.309584 239.391336 
L 75.544516 237.213226 
L 76.249313 240.254149 
L 77.423974 225.683359 
L 79.0685 254.793776 
L 79.303432 249.236862 
L 79.538364 232.12081 
L 80.008229 246.763629 
L 81.18289 308.843021 
L 81.417822 300.204506 
L 81.887687 330.312432 
L 82.357551 325.713057 
L 82.592483 315.7529 
L 83.29728 326.233164 
L 84.706873 352.822943 
L 84.941806 353.526813 
L 85.646602 352.025552 
L 86.586331 374.411089 
L 87.056196 378.100712 
L 87.52606 371.446775 
L 88.230857 370.703725 
L 88.935654 377.541212 
L 89.170586 378.001648 
L 90.58018 352.071436 
L 90.815112 359.895455 
L 91.989773 371.723752 
L 93.399366 350.195585 
L 93.634299 351.241076 
L 94.574028 358.096444 
L 94.80896 356.790758 
L 95.043892 357.159962 
L 95.278824 354.210846 
L 95.513757 359.452162 
L 95.748689 358.735909 
L 98.098011 377.900812 
L 98.332944 375.923793 
L 99.272673 363.131837 
L 99.507605 363.836889 
L 99.977469 359.175254 
L 100.447334 364.014944 
L 100.682266 360.863855 
L 100.917198 368.448127 
L 101.387063 359.717873 
L 101.856927 367.892233 
L 102.561724 364.305778 
L 102.796656 368.052762 
L 103.031588 368.31238 
L 103.266521 366.954766 
L 103.501453 371.592578 
L 104.20625 369.216824 
L 104.676114 363.396699 
L 105.145979 368.431805 
L 105.380911 368.941611 
L 106.085708 362.96953 
L 106.32064 365.91242 
L 106.790504 365.622955 
L 107.495301 369.656982 
L 107.730233 364.712381 
L 108.669962 365.637819 
L 111.724082 378.544326 
L 111.959014 377.67972 
L 112.193946 377.965756 
L 112.428878 377.094945 
L 113.603539 371.338786 
L 114.073404 374.216645 
L 114.308336 370.893857 
L 115.013133 369.723906 
L 116.187794 378.337144 
L 116.422726 375.195307 
L 116.657659 375.138789 
L 117.597388 378.42606 
L 117.83232 377.365631 
L 118.537117 377.34438 
L 119.476846 374.367651 
L 119.711778 375.625876 
L 119.94671 373.165094 
L 120.181642 374.23847 
L 120.416575 373.794176 
L 120.651507 376.119823 
L 121.121371 373.707817 
L 121.356304 373.095809 
L 121.826168 378.443993 
L 122.296033 374.216662 
L 122.765897 372.308563 
L 123.705626 378.250096 
L 123.940558 375.648016 
L 124.410423 378.345703 
L 124.645355 378.027395 
L 125.350152 376.25826 
L 125.585084 373.080018 
L 126.289881 374.786689 
L 126.994677 378.287622 
L 127.22961 377.339368 
L 127.699474 374.480995 
L 128.169339 377.5467 
L 128.874135 378.508464 
L 129.344 373.043121 
L 130.048797 373.209764 
L 130.753593 377.286054 
L 130.988526 375.156832 
L 131.223458 373.937048 
L 131.45839 378.530769 
L 131.928255 373.25133 
L 132.163187 376.861374 
L 132.867984 373.544676 
L 133.337848 374.80792 
L 133.57278 375.308658 
L 133.807712 371.665558 
L 134.747441 371.950294 
L 135.217306 375.158952 
L 135.68717 372.732429 
L 135.922103 369.950502 
L 136.391967 374.134477 
L 136.626899 372.462177 
L 137.331696 374.437477 
L 137.566628 372.316642 
L 138.271425 371.030454 
L 138.506357 371.273593 
L 139.915951 377.536955 
L 140.620748 371.962229 
L 141.090612 373.291396 
L 141.325544 374.230421 
L 141.560477 372.646357 
L 143.205002 362.825632 
L 143.439935 363.958345 
L 144.379663 378.415952 
L 145.08446 377.187923 
L 145.319392 377.014602 
L 146.024189 378.481409 
L 145.789257 375.278321 
L 146.494054 378.058591 
L 146.963918 374.427346 
L 147.433783 377.786802 
L 147.668715 378.03433 
L 151.427631 356.434942 
L 153.072157 369.779696 
L 155.186547 378.609858 
L 156.831072 373.006094 
L 157.066005 375.848982 
L 157.535869 370.430193 
L 158.005734 366.973517 
L 158.240666 371.248957 
L 158.475598 373.234087 
L 158.71053 369.421147 
L 159.180395 370.781876 
L 159.650259 368.009689 
L 159.885192 369.338053 
L 160.824921 375.787091 
L 161.059853 375.046789 
L 161.76465 375.875605 
L 162.469446 370.86321 
L 162.704379 375.592032 
L 163.409175 371.034576 
L 163.644108 371.408082 
L 164.583837 378.619782 
L 164.818769 378.33214 
L 165.288633 377.074746 
L 165.758498 377.926607 
L 165.99343 378.443037 
L 166.228362 376.677529 
L 166.698227 378.505234 
L 167.168091 373.478231 
L 167.637956 378.361929 
L 168.10782 375.79196 
L 168.577685 370.23977 
L 169.047549 376.847125 
L 169.517414 377.668886 
L 170.457143 375.242666 
L 170.692075 377.127228 
L 170.927007 376.083809 
L 172.336601 369.740976 
L 172.806465 365.600621 
L 173.27633 366.810351 
L 174.216059 373.378885 
L 174.450991 372.317522 
L 175.860584 364.703584 
L 176.095516 364.031967 
L 176.330449 365.373006 
L 177.270178 372.371041 
L 177.50511 371.483744 
L 177.740042 371.396703 
L 178.209907 369.120126 
L 178.914703 369.759046 
L 179.384568 368.062114 
L 179.6195 370.525804 
L 179.854432 369.209304 
L 180.794161 375.203631 
L 181.029094 374.195229 
L 181.264026 370.609381 
L 181.968823 371.000984 
L 184.78801 377.803594 
L 186.432535 371.016702 
L 186.9024 377.987038 
L 187.607196 376.486028 
L 187.842129 372.570873 
L 188.077061 377.147581 
L 188.546925 374.770752 
L 189.01679 375.313309 
L 189.721587 378.127321 
L 189.956519 376.128322 
L 190.191451 374.339443 
L 190.426383 378.544905 
L 190.896248 375.839337 
L 191.13118 376.249182 
L 191.366112 374.854621 
L 191.835977 375.758565 
L 192.305841 377.313257 
L 192.540774 375.039698 
L 192.775706 375.313718 
L 193.010638 374.618916 
L 193.24557 378.347564 
L 193.950367 373.844426 
L 194.420232 374.700896 
L 194.890096 375.6988 
L 195.359961 373.265136 
L 195.829825 375.767011 
L 196.534622 377.254109 
L 196.769554 373.252985 
L 197.239418 377.749755 
L 197.474351 376.519015 
L 197.709283 377.375456 
L 197.944215 375.227757 
L 198.179147 376.031362 
L 198.41408 374.362428 
L 198.649012 377.929701 
L 199.118876 375.422296 
L 199.353809 377.071335 
L 199.823673 374.180985 
L 201.233267 362.808085 
L 201.468199 367.38144 
L 203.347657 374.032387 
L 203.582589 372.863425 
L 203.817521 373.967913 
L 204.522318 373.668803 
L 204.992183 377.473792 
L 205.227115 374.730659 
L 205.931912 377.829406 
L 206.401776 378.593589 
L 207.106573 377.114737 
L 207.341505 378.579376 
L 207.811369 373.161335 
L 208.281234 375.309297 
L 209.220963 378.576574 
L 209.92576 374.168483 
L 210.395624 374.749837 
L 211.570285 377.642699 
L 211.805218 378.617438 
L 212.04015 376.272939 
L 212.510014 377.517032 
L 212.744947 378.240434 
L 212.979879 374.086831 
L 213.919608 374.436936 
L 214.389472 378.525327 
L 215.329201 376.676451 
L 216.033998 372.72849 
L 216.26893 376.096046 
L 217.208659 377.981833 
L 216.738795 374.232215 
L 217.443591 377.399525 
L 219.088117 369.012015 
L 220.497711 378.327206 
L 220.732643 376.961897 
L 220.967575 375.167937 
L 221.43744 375.804679 
L 221.672372 378.612663 
L 221.907304 375.683583 
L 222.142236 376.064663 
L 223.081965 370.116365 
L 223.316898 370.890164 
L 223.786762 372.229688 
L 224.726491 369.747093 
L 225.901152 378.164015 
L 226.136085 377.997523 
L 226.840881 369.407618 
L 227.310746 372.097642 
L 227.545678 376.144202 
L 228.250475 373.613123 
L 229.190204 378.033976 
L 228.720339 372.894547 
L 229.660068 377.336228 
L 230.834729 372.123058 
L 231.069662 373.823461 
L 231.539526 375.683258 
L 232.479255 370.362416 
L 232.714187 371.876485 
L 232.94912 371.995736 
L 233.418984 367.565778 
L 233.888849 367.798614 
L 235.298442 372.821818 
L 236.473103 375.255595 
L 236.708036 374.967148 
L 236.942968 372.732668 
L 237.412832 377.638868 
L 237.882697 377.878172 
L 240.701884 363.294694 
L 242.111477 377.203606 
L 242.581342 378.626514 
L 242.816274 377.425738 
L 243.286138 374.500508 
L 243.521071 370.797323 
L 244.225867 373.526498 
L 244.4608 375.667415 
L 244.930664 371.330663 
L 246.340258 376.045223 
L 245.400529 369.908699 
L 246.57519 375.10547 
L 246.810122 374.312134 
L 247.045054 377.348487 
L 247.749851 376.181335 
L 249.394377 366.899791 
L 249.864241 371.828426 
L 250.80397 377.538897 
L 251.038902 375.149564 
L 251.508767 375.597236 
L 251.743699 376.441968 
L 252.448496 371.285046 
L 252.91836 372.440926 
L 253.388225 371.544991 
L 254.327954 378.203532 
L 255.502615 369.492379 
L 255.737547 371.12888 
L 256.207412 367.468931 
L 257.382073 373.976897 
L 257.851937 370.173705 
L 258.08687 370.14181 
L 259.026599 363.241605 
L 259.731395 363.48476 
L 259.966328 367.901676 
L 260.906057 367.146306 
L 261.845786 374.357381 
L 262.080718 372.33589 
L 262.550582 368.951088 
L 262.785515 370.495895 
L 263.960176 374.587635 
L 264.195108 372.729477 
L 264.43004 378.229111 
L 264.664973 376.35213 
L 265.839634 378.464611 
L 266.544431 371.725275 
L 267.014295 373.563576 
L 267.719092 373.786718 
L 268.893753 364.932294 
L 269.833482 373.019208 
L 270.068414 370.538452 
L 270.303346 370.838511 
L 270.773211 367.659784 
L 271.478008 368.254106 
L 273.592398 376.118975 
L 274.062262 375.53674 
L 274.532127 369.463535 
L 275.236924 372.308893 
L 275.471856 377.753318 
L 276.176653 375.074956 
L 277.821178 366.232554 
L 278.056111 366.435606 
L 278.760907 367.308109 
L 278.995839 367.809256 
L 279.465704 362.569685 
L 279.700636 364.174176 
L 280.875297 375.288155 
L 281.580094 368.356331 
L 282.049959 372.941642 
L 282.754755 376.849378 
L 283.22462 376.208009 
L 283.929417 378.490589 
L 284.634213 374.045719 
L 284.869146 375.120051 
L 285.104078 376.273623 
L 285.33901 373.878888 
L 285.573942 373.904438 
L 285.808875 374.223419 
L 286.278739 370.128057 
L 286.513671 374.959155 
L 286.748604 375.12179 
L 287.4534 369.342855 
L 287.688333 372.052826 
L 287.923265 374.582943 
L 288.393129 371.300796 
L 290.037655 364.146257 
L 290.272587 364.287032 
L 290.507519 365.815252 
L 291.447248 357.869033 
L 292.62191 365.446388 
L 292.856842 361.513503 
L 293.326706 367.676341 
L 295.206164 363.218204 
L 295.441097 363.755391 
L 296.615758 368.366492 
L 296.85069 367.813319 
L 297.790419 378.448992 
L 298.260284 375.754372 
L 298.495216 376.235839 
L 299.200012 369.735906 
L 299.669877 372.87418 
L 301.549335 365.542666 
L 300.139741 374.062003 
L 301.784267 366.225446 
L 302.489064 370.801773 
L 302.958928 369.748674 
L 303.428793 370.20397 
L 304.838386 378.245183 
L 306.24798 376.023326 
L 306.482912 378.615353 
L 306.717844 376.733975 
L 307.892506 366.884556 
L 308.127438 369.177429 
L 308.597302 365.486948 
L 310.946625 354.612227 
L 311.651421 353.595233 
L 311.886354 354.500886 
L 312.121286 355.025059 
L 312.826083 351.757577 
L 313.061015 355.07235 
L 313.295947 354.731162 
L 314.000744 351.220663 
L 314.235676 354.863954 
L 315.64527 362.864452 
L 316.350066 362.349784 
L 317.289795 358.627443 
L 317.524728 359.930905 
L 317.75966 362.443962 
L 317.994592 358.869587 
L 318.464457 359.852603 
L 319.404186 357.003658 
L 319.639118 357.20022 
L 320.108982 362.335984 
L 320.578847 360.154533 
L 321.048711 357.290724 
L 321.518576 359.414263 
L 322.693237 369.709298 
L 322.928169 368.923128 
L 323.163101 366.880878 
L 323.632966 370.005771 
L 324.10283 375.481642 
L 324.572695 369.850837 
L 324.807627 374.368938 
L 325.042559 374.058192 
L 325.277492 374.241567 
L 326.452153 376.912115 
L 326.922017 378.519368 
L 327.15695 376.738438 
L 327.391882 378.401922 
L 328.566543 372.466576 
L 328.801475 373.699402 
L 329.036408 373.876547 
L 329.27134 372.930391 
L 329.506272 372.155538 
L 329.741204 372.62787 
L 329.976137 376.483863 
L 330.446001 371.716703 
L 331.150798 365.955366 
L 331.855594 366.560865 
L 333.030256 371.072371 
L 333.735052 368.25358 
L 334.204917 369.990905 
L 334.439849 373.260245 
L 335.144646 369.554205 
L 336.789172 376.602874 
L 337.728901 376.196821 
L 338.66863 374.291609 
L 339.373426 378.388046 
L 339.843291 376.935224 
L 340.078223 377.218502 
L 340.78302 367.199173 
L 341.722749 368.731867 
L 342.427545 364.123462 
L 342.662478 366.465486 
L 342.89741 368.068279 
L 343.132342 365.845908 
L 343.837139 357.980979 
L 344.307003 361.89196 
L 344.776868 362.842555 
L 348.300852 378.220331 
L 348.770716 378.067862 
L 349.240581 374.508141 
L 349.475513 378.562788 
L 349.945377 374.971207 
L 350.18031 378.313835 
L 350.885106 377.060439 
L 352.999496 363.852572 
L 354.644022 371.049324 
L 355.348819 371.15802 
L 355.583751 369.228053 
L 355.818683 372.328518 
L 356.053616 371.683288 
L 356.52348 372.58175 
L 357.228277 375.138501 
L 357.698141 373.735085 
L 358.402938 367.196685 
L 358.872803 369.470461 
L 360.047464 372.058191 
L 360.282396 373.575217 
L 360.517328 371.938333 
L 360.752261 369.128178 
L 361.222125 369.842646 
L 362.631718 376.754468 
L 362.866651 376.803445 
L 364.041312 378.225838 
L 365.450905 369.193622 
L 365.685838 367.241183 
L 365.92077 370.964502 
L 367.095431 377.895469 
L 367.565296 374.107227 
L 367.800228 373.224601 
L 368.03516 374.281297 
L 368.505025 378.549466 
L 369.209821 375.979192 
L 369.914618 373.106303 
L 370.14955 373.52474 
L 370.619415 378.570324 
L 371.324212 376.109143 
L 371.794076 376.375254 
L 372.733805 370.74838 
L 373.438602 378.241635 
L 374.143398 377.967885 
L 374.378331 375.413731 
L 375.083127 377.671644 
L 375.787924 375.895816 
L 376.022856 378.344779 
L 376.492721 374.350308 
L 376.727653 375.800014 
L 376.962585 375.749584 
L 377.667382 372.085822 
L 377.902314 373.114688 
L 378.137247 375.515296 
L 378.607111 372.82173 
L 380.721501 356.395722 
L 381.191366 359.143451 
L 382.366027 364.937889 
L 382.600959 362.844926 
L 382.835891 365.59459 
L 383.77562 377.898071 
L 384.010553 375.849985 
L 385.185214 368.592013 
L 386.82974 374.783226 
L 387.064672 373.045675 
L 387.534536 376.697819 
L 387.769469 377.132918 
L 388.004401 376.026821 
L 388.474265 373.240129 
L 388.709198 374.30748 
L 389.179062 377.707473 
L 389.413994 375.655554 
L 390.823588 363.912405 
L 392.233181 376.404456 
L 392.703046 375.54581 
L 392.937978 376.393 
L 393.642775 371.205397 
L 393.877707 371.55988 
L 394.347571 375.552728 
L 394.817436 372.029317 
L 395.522233 373.89515 
L 395.992097 378.568522 
L 396.227029 374.796782 
L 396.696894 369.568013 
L 397.401691 372.88465 
L 397.636623 376.182711 
L 398.576352 375.612304 
L 399.046216 378.570507 
L 399.516081 376.00567 
L 399.985945 373.430176 
L 400.45581 378.477775 
L 400.925674 374.77455 
L 401.865403 370.533334 
L 402.100336 372.525045 
L 402.5702 368.822722 
L 403.040064 371.9839 
L 403.274997 371.551578 
L 403.509929 372.442795 
L 404.449658 378.357938 
L 404.68459 375.059001 
L 405.154455 373.580567 
L 405.389387 377.661587 
L 406.094184 373.013994 
L 406.564048 374.081575 
L 407.268845 370.344532 
L 408.208574 377.994996 
L 409.148303 376.825355 
L 409.383235 376.961216 
L 411.027761 368.594621 
L 411.497625 369.310898 
L 411.96749 364.888112 
L 412.437354 367.788511 
L 414.551744 377.610603 
L 414.786677 375.643893 
L 415.021609 374.648673 
L 415.256541 375.05626 
L 416.19627 378.088289 
L 417.135999 374.998413 
L 418.545593 378.523646 
L 419.720254 373.945719 
L 419.955186 375.208747 
L 420.190118 378.533535 
L 420.659983 372.675321 
L 420.894915 375.594749 
L 421.599712 371.248429 
L 421.834644 371.871195 
L 422.304509 378.627366 
L 423.009305 377.493106 
L 423.244237 378.335231 
L 424.418899 371.518703 
L 425.123695 372.727487 
L 424.888763 370.653453 
L 425.358628 372.402383 
L 425.828492 368.390177 
L 426.298357 370.911074 
L 426.768221 370.006627 
L 427.942882 376.553573 
L 429.117544 369.16784 
L 429.587408 371.258308 
L 429.82234 372.303819 
L 430.057273 368.839445 
L 430.527137 368.85912 
L 431.466866 364.092758 
L 431.701798 366.379384 
L 432.171663 367.757674 
L 432.406595 366.95258 
L 433.346324 362.544509 
L 433.581256 363.837725 
L 434.755917 378.343432 
L 434.99085 377.679495 
L 435.695646 373.29844 
L 435.930579 374.167734 
L 437.10524 378.089155 
L 439.21963 372.487662 
L 440.629224 364.270391 
L 442.038817 371.309355 
L 441.33402 363.45108 
L 442.508682 367.57023 
L 443.213478 366.560064 
L 442.978546 368.802358 
L 443.448411 367.182509 
L 443.683343 368.090821 
L 445.092936 360.700876 
L 445.562801 361.469569 
L 447.442259 371.581585 
L 447.677191 370.89531 
L 447.912123 371.882528 
L 449.321717 377.444126 
L 449.556649 378.457222 
L 449.791581 376.190076 
L 450.261446 372.883861 
L 450.73131 375.967125 
L 451.436107 377.765907 
L 452.140904 371.110791 
L 452.610768 372.759425 
L 453.080633 370.352766 
L 453.550497 373.339146 
L 454.490226 377.118012 
L 454.725158 376.694228 
L 455.664887 370.293021 
L 455.899819 371.905773 
L 457.309413 377.192366 
L 457.544345 374.09697 
L 458.249142 374.652347 
L 458.953939 377.993976 
L 459.188871 377.360577 
L 459.893668 372.442979 
L 460.1286 374.527823 
L 460.598464 377.774374 
L 460.833397 377.232934 
L 462.477922 364.873874 
L 462.712855 369.861387 
L 463.182719 361.903127 
L 463.417651 361.560325 
L 463.652584 361.99709 
L 464.35738 374.765353 
L 465.062177 373.445974 
L 465.766974 368.241994 
L 466.001906 370.133558 
L 467.411499 376.893647 
L 467.646432 374.768319 
L 467.881364 377.31659 
L 468.116296 377.327282 
L 468.586161 378.336966 
L 468.821093 374.782143 
L 469.52589 376.704044 
L 469.760822 378.063155 
L 469.995754 377.11515 
L 471.170415 371.37005 
L 471.405348 371.756101 
L 471.875212 372.229608 
L 472.814941 365.383317 
L 473.049873 368.345473 
L 474.459467 377.6445 
L 474.694399 377.251353 
L 475.164263 371.250191 
L 475.634128 373.741168 
L 476.573857 378.319481 
L 476.808789 377.976301 
L 477.278654 375.795843 
L 477.748518 377.708399 
L 478.453315 377.693394 
L 480.097841 365.589576 
L 481.272502 375.693767 
L 481.742366 375.512058 
L 482.917028 368.4929 
L 483.15196 371.353795 
L 483.621824 375.587756 
L 484.326621 375.116926 
L 485.736214 370.139038 
L 487.615672 374.218977 
L 487.850605 372.411888 
L 488.085537 376.330545 
L 488.320469 377.855564 
L 488.790334 375.110171 
L 489.49513 373.678807 
L 489.964995 374.928844 
L 491.139656 370.030582 
L 490.434859 375.225936 
L 491.374588 371.578274 
L 491.609521 372.944834 
L 492.079385 370.361188 
L 493.488979 365.755514 
L 494.428708 371.839214 
L 494.66364 370.56065 
L 495.368437 370.476604 
L 496.543098 376.39259 
L 495.838301 369.167385 
L 497.012962 375.124994 
L 497.247894 371.975509 
L 497.952691 373.322495 
L 498.187623 376.191457 
L 498.657488 370.191062 
L 499.597217 372.768507 
L 499.362285 368.888189 
L 499.832149 372.111321 
L 500.536946 370.824795 
L 500.771878 371.69059 
L 501.241743 374.472597 
L 501.946539 373.389265 
L 503.121201 363.295101 
L 504.765726 368.212872 
L 505.000659 367.948931 
L 505.235591 364.994571 
L 505.470523 367.781521 
L 506.645184 374.379035 
L 506.880116 368.991252 
L 507.584913 371.704844 
L 508.994507 378.376909 
L 509.699303 371.682645 
L 510.169168 373.682699 
L 510.873965 375.10634 
L 511.343829 378.302325 
L 512.048626 378.028968 
L 512.283558 375.851776 
L 512.988355 377.663318 
L 513.458219 371.979418 
L 515.57261 355.371186 
L 516.277406 357.516896 
L 516.512338 352.637611 
L 517.217135 356.944483 
L 521.91578 375.844144 
L 522.385645 371.717265 
L 522.855509 372.878655 
L 523.795238 377.977038 
L 524.03017 377.630073 
L 524.500035 378.199547 
L 524.734967 376.551406 
L 524.969899 378.314585 
L 525.439764 374.674032 
L 525.674696 376.585571 
L 526.144561 375.563579 
L 526.379493 378.179284 
L 527.084289 376.292823 
L 528.024018 377.463339 
L 528.728815 378.26574 
L 529.433612 371.617539 
L 529.903476 374.598276 
L 530.373341 373.581384 
L 531.078138 369.828703 
L 531.31307 372.71896 
L 532.722663 378.600956 
L 533.42746 376.202045 
L 533.897325 377.195836 
L 534.132257 378.156227 
L 534.367189 377.03038 
L 534.602121 374.746814 
L 535.071986 377.794933 
L 535.306918 375.033386 
L 535.54185 378.561292 
L 536.246647 374.720025 
L 536.481579 373.616786 
L 536.716512 374.39044 
L 537.186376 378.628672 
L 537.891173 376.372682 
L 538.361037 378.610691 
L 539.065834 377.188925 
L 540.475427 372.05906 
L 539.770631 378.340673 
L 540.71036 373.02271 
L 541.180224 375.015724 
L 541.650089 372.959359 
L 542.82475 366.855145 
L 543.529547 373.464301 
L 543.999411 373.260455 
L 544.469276 374.922996 
L 544.469276 374.922996 
" clip-path="url(#p1edbf5e08c)" style="fill: none; stroke: #e41a1c; stroke-width: 2; stroke-linecap: square"/>
   </g>
   <g id="patch_6">
    <path d="M 51.111563 386.275937 
L 51.111563 218.036094 
" style="fill: none; stroke: #7f7f7f; stroke-width: 1.8; stroke-linejoin: miter; stroke-linecap: square"/>
   </g>
   <g id="patch_7">
    <path d="M 51.111563 386.275937 
L 567.9625 386.275937 
" style="fill: none; stroke: #7f7f7f; stroke-width: 1.8; stroke-linejoin: miter; stroke-linecap: square"/>
   </g>
  </g>
 </g>
 <defs>
  <clipPath id="pd26ee3f291">
   <rect x="51.111563" y="22.318125" width="516.850937" height="168.239844"/>
  </clipPath>
  <clipPath id="p1edbf5e08c">
   <rect x="51.111563" y="218.036094" width="516.850937" height="168.239844"/>
  </clipPath>
 </defs>
</svg>
