<?xml version="1.0" encoding="utf-8" standalone="no"?>
<!DOCTYPE svg PUBLIC "-//W3C//DTD SVG 1.1//EN"
  "http://www.w3.org/Graphics/SVG/1.1/DTD/svg11.dtd">
<svg xmlns:xlink="http://www.w3.org/1999/xlink" width="568.8pt" height="280.8pt" viewBox="0 0 568.8 280.8" xmlns="http://www.w3.org/2000/svg" version="1.1">
 <metadata>
  <rdf:RDF xmlns:dc="http://purl.org/dc/elements/1.1/" xmlns:cc="http://creativecommons.org/ns#" xmlns:rdf="http://www.w3.org/1999/02/22-rdf-syntax-ns#">
   <cc:Work>
    <dc:type rdf:resource="http://purl.org/dc/dcmitype/StillImage"/>
    <dc:date>2026-05-30T00:45:38.986283</dc:date>
    <dc:format>image/svg+xml</dc:format>
    <dc:creator>
     <cc:Agent>
      <dc:title>Matplotlib v3.10.9, https://matplotlib.org/</dc:title>
     </cc:Agent>
    </dc:creator>
   </cc:Work>
  </rdf:RDF>
 </metadata>
 <defs>
  <style type="text/css">*{stroke-linejoin: round; stroke-linecap: butt}</style>
 </defs>
 <g id="figure_1">
  <g id="patch_1">
   <path d="M 0 280.8 
L 568.8 280.8 
L 568.8 0 
L 0 0 
L 0 280.8 
z
" style="fill: none"/>
  </g>
  <g id="axes_1">
   <g id="patch_2">
    <path d="M 28.942188 242.275937 
L 561.6 242.275937 
L 561.6 7.2 
L 28.942188 7.2 
L 28.942188 242.275937 
z
" style="fill: none"/>
   </g>
   <g id="matplotlib.axis_1">
    <g id="xtick_1">
     <g id="line2d_1">
      <defs>
       <path id="m8273c206c7" d="M 0 0 
L 0 3.5 
" style="stroke: #7f7f7f; stroke-width: 1.8"/>
      </defs>
      <g>
       <use xlink:href="#m8273c206c7" x="53.153906" y="242.275937" style="fill: #7f7f7f; stroke: #7f7f7f; stroke-width: 1.8"/>
      </g>
     </g>
     <g id="text_1">
      <!-- 0.00000 -->
      <g style="fill: #7f7f7f" transform="translate(32.477344 256.874375) scale(0.1 -0.1)">
       <defs>
        <path id="DejaVuSans-30" d="M 2034 4250 
Q 1547 4250 1301 3770 
Q 1056 3291 1056 2328 
Q 1056 1369 1301 889 
Q 1547 409 2034 409 
Q 2525 409 2770 889 
Q 3016 1369 3016 2328 
Q 3016 3291 2770 3770 
Q 2525 4250 2034 4250 
z
M 2034 4750 
Q 2819 4750 3233 4129 
Q 3647 3509 3647 2328 
Q 3647 1150 3233 529 
Q 2819 -91 2034 -91 
Q 1250 -91 836 529 
Q 422 1150 422 2328 
Q 422 3509 836 4129 
Q 1250 4750 2034 4750 
z
" transform="scale(0.015625)"/>
        <path id="DejaVuSans-2e" d="M 684 794 
L 1344 794 
L 1344 0 
L 684 0 
L 684 794 
z
" transform="scale(0.015625)"/>
       </defs>
       <use xlink:href="#DejaVuSans-30"/>
       <use xlink:href="#DejaVuSans-2e" transform="translate(63.623047 0)"/>
       <use xlink:href="#DejaVuSans-30" transform="translate(95.410156 0)"/>
       <use xlink:href="#DejaVuSans-30" transform="translate(159.033203 0)"/>
       <use xlink:href="#DejaVuSans-30" transform="translate(222.65625 0)"/>
       <use xlink:href="#DejaVuSans-30" transform="translate(286.279297 0)"/>
       <use xlink:href="#DejaVuSans-30" transform="translate(349.902344 0)"/>
      </g>
     </g>
    </g>
    <g id="xtick_2">
     <g id="line2d_2">
      <g>
       <use xlink:href="#m8273c206c7" x="149.981416" y="242.275937" style="fill: #7f7f7f; stroke: #7f7f7f; stroke-width: 1.8"/>
      </g>
     </g>
     <g id="text_2">
      <!-- 0.00002 -->
      <g style="fill: #7f7f7f" transform="translate(129.304853 256.874375) scale(0.1 -0.1)">
       <defs>
        <path id="DejaVuSans-32" d="M 1228 531 
L 3431 531 
L 3431 0 
L 469 0 
L 469 531 
Q 828 903 1448 1529 
Q 2069 2156 2228 2338 
Q 2531 2678 2651 2914 
Q 2772 3150 2772 3378 
Q 2772 3750 2511 3984 
Q 2250 4219 1831 4219 
Q 1534 4219 1204 4116 
Q 875 4013 500 3803 
L 500 4441 
Q 881 4594 1212 4672 
Q 1544 4750 1819 4750 
Q 2544 4750 2975 4387 
Q 3406 4025 3406 3419 
Q 3406 3131 3298 2873 
Q 3191 2616 2906 2266 
Q 2828 2175 2409 1742 
Q 1991 1309 1228 531 
z
" transform="scale(0.015625)"/>
       </defs>
       <use xlink:href="#DejaVuSans-30"/>
       <use xlink:href="#DejaVuSans-2e" transform="translate(63.623047 0)"/>
       <use xlink:href="#DejaVuSans-30" transform="translate(95.410156 0)"/>
       <use xlink:href="#DejaVuSans-30" transform="translate(159.033203 0)"/>
       <use xlink:href="#DejaVuSans-30" transform="translate(222.65625 0)"/>
       <use xlink:href="#DejaVuSans-30" transform="translate(286.279297 0)"/>
       <use xlink:href="#DejaVuSans-32" transform="translate(349.902344 0)"/>
      </g>
     </g>
    </g>
    <g id="xtick_3">
     <g id="line2d_3">
      <g>
       <use xlink:href="#m8273c206c7" x="246.808925" y="242.275937" style="fill: #7f7f7f; stroke: #7f7f7f; stroke-width: 1.8"/>
      </g>
     </g>
     <g id="text_3">
      <!-- 0.00004 -->
      <g style="fill: #7f7f7f" transform="translate(226.132363 256.874375) scale(0.1 -0.1)">
       <defs>
        <path id="DejaVuSans-34" d="M 2419 4116 
L 825 1625 
L 2419 1625 
L 2419 4116 
z
M 2253 4666 
L 3047 4666 
L 3047 1625 
L 3713 1625 
L 3713 1100 
L 3047 1100 
L 3047 0 
L 2419 0 
L 2419 1100 
L 313 1100 
L 313 1709 
L 2253 4666 
z
" transform="scale(0.015625)"/>
       </defs>
       <use xlink:href="#DejaVuSans-30"/>
       <use xlink:href="#DejaVuSans-2e" transform="translate(63.623047 0)"/>
       <use xlink:href="#DejaVuSans-30" transform="translate(95.410156 0)"/>
       <use xlink:href="#DejaVuSans-30" transform="translate(159.033203 0)"/>
       <use xlink:href="#DejaVuSans-30" transform="translate(222.65625 0)"/>
       <use xlink:href="#DejaVuSans-30" transform="translate(286.279297 0)"/>
       <use xlink:href="#DejaVuSans-34" transform="translate(349.902344 0)"/>
      </g>
     </g>
    </g>
    <g id="xtick_4">
     <g id="line2d_4">
      <g>
       <use xlink:href="#m8273c206c7" x="343.636435" y="242.275937" style="fill: #7f7f7f; stroke: #7f7f7f; stroke-width: 1.8"/>
      </g>
     </g>
     <g id="text_4">
      <!-- 0.00006 -->
      <g style="fill: #7f7f7f" transform="translate(322.959872 256.874375) scale(0.1 -0.1)">
       <defs>
        <path id="DejaVuSans-36" d="M 2113 2584 
Q 1688 2584 1439 2293 
Q 1191 2003 1191 1497 
Q 1191 994 1439 701 
Q 1688 409 2113 409 
Q 2538 409 2786 701 
Q 3034 994 3034 1497 
Q 3034 2003 2786 2293 
Q 2538 2584 2113 2584 
z
M 3366 4563 
L 3366 3988 
Q 3128 4100 2886 4159 
Q 2644 4219 2406 4219 
Q 1781 4219 1451 3797 
Q 1122 3375 1075 2522 
Q 1259 2794 1537 2939 
Q 1816 3084 2150 3084 
Q 2853 3084 3261 2657 
Q 3669 2231 3669 1497 
Q 3669 778 3244 343 
Q 2819 -91 2113 -91 
Q 1303 -91 875 529 
Q 447 1150 447 2328 
Q 447 3434 972 4092 
Q 1497 4750 2381 4750 
Q 2619 4750 2861 4703 
Q 3103 4656 3366 4563 
z
" transform="scale(0.015625)"/>
       </defs>
       <use xlink:href="#DejaVuSans-30"/>
       <use xlink:href="#DejaVuSans-2e" transform="translate(63.623047 0)"/>
       <use xlink:href="#DejaVuSans-30" transform="translate(95.410156 0)"/>
       <use xlink:href="#DejaVuSans-30" transform="translate(159.033203 0)"/>
       <use xlink:href="#DejaVuSans-30" transform="translate(222.65625 0)"/>
       <use xlink:href="#DejaVuSans-30" transform="translate(286.279297 0)"/>
       <use xlink:href="#DejaVuSans-36" transform="translate(349.902344 0)"/>
      </g>
     </g>
    </g>
    <g id="xtick_5">
     <g id="line2d_5">
      <g>
       <use xlink:href="#m8273c206c7" x="440.463944" y="242.275937" style="fill: #7f7f7f; stroke: #7f7f7f; stroke-width: 1.8"/>
      </g>
     </g>
     <g id="text_5">
      <!-- 0.00008 -->
      <g style="fill: #7f7f7f" transform="translate(419.787382 256.874375) scale(0.1 -0.1)">
       <defs>
        <path id="DejaVuSans-38" d="M 2034 2216 
Q 1584 2216 1326 1975 
Q 1069 1734 1069 1313 
Q 1069 891 1326 650 
Q 1584 409 2034 409 
Q 2484 409 2743 651 
Q 3003 894 3003 1313 
Q 3003 1734 2745 1975 
Q 2488 2216 2034 2216 
z
M 1403 2484 
Q 997 2584 770 2862 
Q 544 3141 544 3541 
Q 544 4100 942 4425 
Q 1341 4750 2034 4750 
Q 2731 4750 3128 4425 
Q 3525 4100 3525 3541 
Q 3525 3141 3298 2862 
Q 3072 2584 2669 2484 
Q 3125 2378 3379 2068 
Q 3634 1759 3634 1313 
Q 3634 634 3220 271 
Q 2806 -91 2034 -91 
Q 1263 -91 848 271 
Q 434 634 434 1313 
Q 434 1759 690 2068 
Q 947 2378 1403 2484 
z
M 1172 3481 
Q 1172 3119 1398 2916 
Q 1625 2713 2034 2713 
Q 2441 2713 2670 2916 
Q 2900 3119 2900 3481 
Q 2900 3844 2670 4047 
Q 2441 4250 2034 4250 
Q 1625 4250 1398 4047 
Q 1172 3844 1172 3481 
z
" transform="scale(0.015625)"/>
       </defs>
       <use xlink:href="#DejaVuSans-30"/>
       <use xlink:href="#DejaVuSans-2e" transform="translate(63.623047 0)"/>
       <use xlink:href="#DejaVuSans-30" transform="translate(95.410156 0)"/>
       <use xlink:href="#DejaVuSans-30" transform="translate(159.033203 0)"/>
       <use xlink:href="#DejaVuSans-30" transform="translate(222.65625 0)"/>
       <use xlink:href="#DejaVuSans-30" transform="translate(286.279297 0)"/>
       <use xlink:href="#DejaVuSans-38" transform="translate(349.902344 0)"/>
      </g>
     </g>
    </g>
    <g id="xtick_6">
     <g id="line2d_6">
      <g>
       <use xlink:href="#m8273c206c7" x="537.291454" y="242.275937" style="fill: #7f7f7f; stroke: #7f7f7f; stroke-width: 1.8"/>
      </g>
     </g>
     <g id="text_6">
      <!-- 0.00010 -->
      <g style="fill: #7f7f7f" transform="translate(516.614891 256.874375) scale(0.1 -0.1)">
       <defs>
        <path id="DejaVuSans-31" d="M 794 531 
L 1825 531 
L 1825 4091 
L 703 3866 
L 703 4441 
L 1819 4666 
L 2450 4666 
L 2450 531 
L 3481 531 
L 3481 0 
L 794 0 
L 794 531 
z
" transform="scale(0.015625)"/>
       </defs>
       <use xlink:href="#DejaVuSans-30"/>
       <use xlink:href="#DejaVuSans-2e" transform="translate(63.623047 0)"/>
       <use xlink:href="#DejaVuSans-30" transform="translate(95.410156 0)"/>
       <use xlink:href="#DejaVuSans-30" transform="translate(159.033203 0)"/>
       <use xlink:href="#DejaVuSans-30" transform="translate(222.65625 0)"/>
       <use xlink:href="#DejaVuSans-31" transform="translate(286.279297 0)"/>
       <use xlink:href="#DejaVuSans-30" transform="translate(349.902344 0)"/>
      </g>
     </g>
    </g>
    <g id="text_7">
     <!-- time [s] -->
     <g style="fill: #7f7f7f" transform="translate(273.940547 271.312344) scale(0.11 -0.11)">
      <defs>
       <path id="DejaVuSans-74" d="M 1172 4494 
L 1172 3500 
L 2356 3500 
L 2356 3053 
L 1172 3053 
L 1172 1153 
Q 1172 725 1289 603 
Q 1406 481 1766 481 
L 2356 481 
L 2356 0 
L 1766 0 
Q 1100 0 847 248 
Q 594 497 594 1153 
L 594 3053 
L 172 3053 
L 172 3500 
L 594 3500 
L 594 4494 
L 1172 4494 
z
" transform="scale(0.015625)"/>
       <path id="DejaVuSans-69" d="M 603 3500 
L 1178 3500 
L 1178 0 
L 603 0 
L 603 3500 
z
M 603 4863 
L 1178 4863 
L 1178 4134 
L 603 4134 
L 603 4863 
z
" transform="scale(0.015625)"/>
       <path id="DejaVuSans-6d" d="M 3328 2828 
Q 3544 3216 3844 3400 
Q 4144 3584 4550 3584 
Q 5097 3584 5394 3201 
Q 5691 2819 5691 2113 
L 5691 0 
L 5113 0 
L 5113 2094 
Q 5113 2597 4934 2840 
Q 4756 3084 4391 3084 
Q 3944 3084 3684 2787 
Q 3425 2491 3425 1978 
L 3425 0 
L 2847 0 
L 2847 2094 
Q 2847 2600 2669 2842 
Q 2491 3084 2119 3084 
Q 1678 3084 1418 2786 
Q 1159 2488 1159 1978 
L 1159 0 
L 581 0 
L 581 3500 
L 1159 3500 
L 1159 2956 
Q 1356 3278 1631 3431 
Q 1906 3584 2284 3584 
Q 2666 3584 2933 3390 
Q 3200 3197 3328 2828 
z
" transform="scale(0.015625)"/>
       <path id="DejaVuSans-65" d="M 3597 1894 
L 3597 1613 
L 953 1613 
Q 991 1019 1311 708 
Q 1631 397 2203 397 
Q 2534 397 2845 478 
Q 3156 559 3463 722 
L 3463 178 
Q 3153 47 2828 -22 
Q 2503 -91 2169 -91 
Q 1331 -91 842 396 
Q 353 884 353 1716 
Q 353 2575 817 3079 
Q 1281 3584 2069 3584 
Q 2775 3584 3186 3129 
Q 3597 2675 3597 1894 
z
M 3022 2063 
Q 3016 2534 2758 2815 
Q 2500 3097 2075 3097 
Q 1594 3097 1305 2825 
Q 1016 2553 972 2059 
L 3022 2063 
z
" transform="scale(0.015625)"/>
       <path id="DejaVuSans-20" transform="scale(0.015625)"/>
       <path id="DejaVuSans-5b" d="M 550 4863 
L 1875 4863 
L 1875 4416 
L 1125 4416 
L 1125 -397 
L 1875 -397 
L 1875 -844 
L 550 -844 
L 550 4863 
z
" transform="scale(0.015625)"/>
       <path id="DejaVuSans-73" d="M 2834 3397 
L 2834 2853 
Q 2591 2978 2328 3040 
Q 2066 3103 1784 3103 
Q 1356 3103 1142 2972 
Q 928 2841 928 2578 
Q 928 2378 1081 2264 
Q 1234 2150 1697 2047 
L 1894 2003 
Q 2506 1872 2764 1633 
Q 3022 1394 3022 966 
Q 3022 478 2636 193 
Q 2250 -91 1575 -91 
Q 1294 -91 989 -36 
Q 684 19 347 128 
L 347 722 
Q 666 556 975 473 
Q 1284 391 1588 391 
Q 1994 391 2212 530 
Q 2431 669 2431 922 
Q 2431 1156 2273 1281 
Q 2116 1406 1581 1522 
L 1381 1569 
Q 847 1681 609 1914 
Q 372 2147 372 2553 
Q 372 3047 722 3315 
Q 1072 3584 1716 3584 
Q 2034 3584 2315 3537 
Q 2597 3491 2834 3397 
z
" transform="scale(0.015625)"/>
       <path id="DejaVuSans-5d" d="M 1947 4863 
L 1947 -844 
L 622 -844 
L 622 -397 
L 1369 -397 
L 1369 4416 
L 622 4416 
L 622 4863 
L 1947 4863 
z
" transform="scale(0.015625)"/>
      </defs>
      <use xlink:href="#DejaVuSans-74"/>
      <use xlink:href="#DejaVuSans-69" transform="translate(39.208984 0)"/>
      <use xlink:href="#DejaVuSans-6d" transform="translate(66.992188 0)"/>
      <use xlink:href="#DejaVuSans-65" transform="translate(164.404297 0)"/>
      <use xlink:href="#DejaVuSans-20" transform="translate(225.927734 0)"/>
      <use xlink:href="#DejaVuSans-5b" transform="translate(257.714844 0)"/>
      <use xlink:href="#DejaVuSans-73" transform="translate(296.728516 0)"/>
      <use xlink:href="#DejaVuSans-5d" transform="translate(348.828125 0)"/>
     </g>
    </g>
   </g>
   <g id="matplotlib.axis_2">
    <g id="ytick_1">
     <g id="line2d_7">
      <defs>
       <path id="m248d07c194" d="M 0 0 
L -3.5 0 
" style="stroke: #7f7f7f; stroke-width: 1.8"/>
      </defs>
      <g>
       <use xlink:href="#m248d07c194" x="28.942188" y="232.697539" style="fill: #7f7f7f; stroke: #7f7f7f; stroke-width: 1.8"/>
      </g>
     </g>
     <g id="text_8">
      <!-- −8 -->
      <g style="fill: #7f7f7f" transform="translate(7.2 236.496758) scale(0.1 -0.1)">
       <defs>
        <path id="DejaVuSans-2212" d="M 678 2272 
L 4684 2272 
L 4684 1741 
L 678 1741 
L 678 2272 
z
" transform="scale(0.015625)"/>
       </defs>
       <use xlink:href="#DejaVuSans-2212"/>
       <use xlink:href="#DejaVuSans-38" transform="translate(83.789062 0)"/>
      </g>
     </g>
    </g>
    <g id="ytick_2">
     <g id="line2d_8">
      <g>
       <use xlink:href="#m248d07c194" x="28.942188" y="206.396984" style="fill: #7f7f7f; stroke: #7f7f7f; stroke-width: 1.8"/>
      </g>
     </g>
     <g id="text_9">
      <!-- −6 -->
      <g style="fill: #7f7f7f" transform="translate(7.2 210.196202) scale(0.1 -0.1)">
       <use xlink:href="#DejaVuSans-2212"/>
       <use xlink:href="#DejaVuSans-36" transform="translate(83.789062 0)"/>
      </g>
     </g>
    </g>
    <g id="ytick_3">
     <g id="line2d_9">
      <g>
       <use xlink:href="#m248d07c194" x="28.942188" y="180.096428" style="fill: #7f7f7f; stroke: #7f7f7f; stroke-width: 1.8"/>
      </g>
     </g>
     <g id="text_10">
      <!-- −4 -->
      <g style="fill: #7f7f7f" transform="translate(7.2 183.895646) scale(0.1 -0.1)">
       <use xlink:href="#DejaVuSans-2212"/>
       <use xlink:href="#DejaVuSans-34" transform="translate(83.789062 0)"/>
      </g>
     </g>
    </g>
    <g id="ytick_4">
     <g id="line2d_10">
      <g>
       <use xlink:href="#m248d07c194" x="28.942188" y="153.795872" style="fill: #7f7f7f; stroke: #7f7f7f; stroke-width: 1.8"/>
      </g>
     </g>
     <g id="text_11">
      <!-- −2 -->
      <g style="fill: #7f7f7f" transform="translate(7.2 157.595091) scale(0.1 -0.1)">
       <use xlink:href="#DejaVuSans-2212"/>
       <use xlink:href="#DejaVuSans-32" transform="translate(83.789062 0)"/>
      </g>
     </g>
    </g>
    <g id="ytick_5">
     <g id="line2d_11">
      <g>
       <use xlink:href="#m248d07c194" x="28.942188" y="127.495316" style="fill: #7f7f7f; stroke: #7f7f7f; stroke-width: 1.8"/>
      </g>
     </g>
     <g id="text_12">
      <!-- 0 -->
      <g style="fill: #7f7f7f" transform="translate(15.579688 131.294535) scale(0.1 -0.1)">
       <use xlink:href="#DejaVuSans-30"/>
      </g>
     </g>
    </g>
    <g id="ytick_6">
     <g id="line2d_12">
      <g>
       <use xlink:href="#m248d07c194" x="28.942188" y="101.19476" style="fill: #7f7f7f; stroke: #7f7f7f; stroke-width: 1.8"/>
      </g>
     </g>
     <g id="text_13">
      <!-- 2 -->
      <g style="fill: #7f7f7f" transform="translate(15.579688 104.993979) scale(0.1 -0.1)">
       <use xlink:href="#DejaVuSans-32"/>
      </g>
     </g>
    </g>
    <g id="ytick_7">
     <g id="line2d_13">
      <g>
       <use xlink:href="#m248d07c194" x="28.942188" y="74.894204" style="fill: #7f7f7f; stroke: #7f7f7f; stroke-width: 1.8"/>
      </g>
     </g>
     <g id="text_14">
      <!-- 4 -->
      <g style="fill: #7f7f7f" transform="translate(15.579688 78.693423) scale(0.1 -0.1)">
       <use xlink:href="#DejaVuSans-34"/>
      </g>
     </g>
    </g>
    <g id="ytick_8">
     <g id="line2d_14">
      <g>
       <use xlink:href="#m248d07c194" x="28.942188" y="48.593648" style="fill: #7f7f7f; stroke: #7f7f7f; stroke-width: 1.8"/>
      </g>
     </g>
     <g id="text_15">
      <!-- 6 -->
      <g style="fill: #7f7f7f" transform="translate(15.579688 52.392867) scale(0.1 -0.1)">
       <use xlink:href="#DejaVuSans-36"/>
      </g>
     </g>
    </g>
    <g id="ytick_9">
     <g id="line2d_15">
      <g>
       <use xlink:href="#m248d07c194" x="28.942188" y="22.293093" style="fill: #7f7f7f; stroke: #7f7f7f; stroke-width: 1.8"/>
      </g>
     </g>
     <g id="text_16">
      <!-- 8 -->
      <g style="fill: #7f7f7f" transform="translate(15.579688 26.092311) scale(0.1 -0.1)">
       <use xlink:href="#DejaVuSans-38"/>
      </g>
     </g>
    </g>
   </g>
   <g id="line2d_16">
    <path d="M 53.153906 127.495316 
L 57.656385 115.394011 
L 59.544522 114.395882 
L 61.142176 115.97164 
L 63.611277 122.046162 
L 70.437617 140.310615 
L 72.035271 140.412666 
L 73.778166 138.036145 
L 76.682991 129.796918 
L 82.056918 115.150705 
L 83.945054 114.470473 
L 85.542708 116.304502 
L 88.157051 123.118647 
L 94.402425 140.100144 
L 96.14532 140.47051 
L 97.888216 138.230404 
L 100.793041 130.121558 
L 106.312209 115.094728 
L 108.200345 114.494271 
L 109.797999 116.392169 
L 112.412342 123.274818 
L 118.512475 140.001974 
L 120.25537 140.520159 
L 121.853024 138.68613 
L 124.467367 131.871986 
L 130.712741 114.890488 
L 132.455637 114.520122 
L 134.198532 116.760228 
L 137.103357 124.869074 
L 142.622525 139.895904 
L 144.510661 140.496361 
L 146.108315 138.598463 
L 148.722658 131.715814 
L 154.822791 114.988658 
L 156.565686 114.470473 
L 158.16334 116.304502 
L 160.777683 123.118647 
L 167.023057 140.100144 
L 168.765953 140.47051 
L 170.508848 138.230404 
L 173.413673 130.121558 
L 178.932841 115.094728 
L 180.820978 114.494271 
L 182.418631 116.392169 
L 185.032974 123.274818 
L 191.133107 140.001974 
L 192.876002 140.520159 
L 194.473656 138.68613 
L 197.087999 131.871986 
L 203.333373 114.890488 
L 205.076269 114.520122 
L 206.819164 116.760228 
L 209.723989 124.869074 
L 215.243157 139.895904 
L 217.131294 140.496361 
L 218.728947 138.598463 
L 221.34329 131.715814 
L 227.443423 114.988658 
L 229.186319 114.470473 
L 230.783972 116.304502 
L 233.398315 123.118647 
L 239.64369 140.100144 
L 241.386585 140.47051 
L 243.12948 138.230404 
L 246.034305 130.121558 
L 251.553473 115.094728 
L 253.44161 114.494271 
L 255.039264 116.392169 
L 257.653606 123.274818 
L 263.753739 140.001974 
L 265.496635 140.520159 
L 267.094288 138.68613 
L 269.708631 131.871986 
L 275.954006 114.890488 
L 277.696901 114.520122 
L 279.439796 116.760228 
L 282.344621 124.869074 
L 287.863789 139.895904 
L 289.751926 140.496361 
L 291.34958 138.598463 
L 293.963922 131.715814 
L 300.064055 114.988658 
L 301.806951 114.470473 
L 303.404605 116.304502 
L 306.018947 123.118647 
L 312.264322 140.100144 
L 314.007217 140.47051 
L 315.750112 138.230404 
L 318.654937 130.121558 
L 324.174105 115.094728 
L 326.062242 114.494271 
L 327.659896 116.392169 
L 330.274238 123.274818 
L 336.374372 140.001974 
L 338.117267 140.520159 
L 339.714921 138.68613 
L 342.329263 131.871986 
L 348.574638 114.890488 
L 350.317533 114.520122 
L 352.060428 116.760228 
L 354.965253 124.869074 
L 360.484421 139.895904 
L 362.372558 140.496361 
L 363.970212 138.598463 
L 366.584554 131.715814 
L 372.684688 114.988658 
L 374.427583 114.470473 
L 376.025237 116.304502 
L 378.639579 123.118647 
L 384.884954 140.100144 
L 386.627849 140.47051 
L 388.370744 138.230404 
L 391.275569 130.121558 
L 396.794737 115.094728 
L 398.682874 114.494271 
L 400.280528 116.392169 
L 402.894871 123.274818 
L 408.995004 140.001974 
L 410.737899 140.520159 
L 412.335553 138.68613 
L 414.949895 131.871986 
L 421.19527 114.890488 
L 422.938165 114.520122 
L 424.68106 116.760228 
L 427.585885 124.869074 
L 433.105054 139.895904 
L 434.99319 140.496361 
L 436.590844 138.598463 
L 439.205187 131.715814 
L 445.30532 114.988658 
L 447.048215 114.470473 
L 448.645869 116.304502 
L 451.260212 123.118647 
L 457.505586 140.100144 
L 459.248481 140.47051 
L 460.991376 138.230404 
L 463.896202 130.121558 
L 469.41537 115.094728 
L 471.303506 114.494271 
L 472.90116 116.392169 
L 475.515503 123.274818 
L 481.615636 140.001974 
L 483.358531 140.520159 
L 484.956185 138.68613 
L 487.570528 131.871986 
L 493.815902 114.890488 
L 495.558797 114.520122 
L 497.301692 116.760228 
L 500.206518 124.869074 
L 505.725686 139.895904 
L 507.613822 140.496361 
L 509.211476 138.598463 
L 511.825819 131.715814 
L 517.925952 114.988658 
L 519.668847 114.470473 
L 521.266501 116.304502 
L 523.880844 123.118647 
L 530.126218 140.100144 
L 531.869113 140.47051 
L 533.612008 138.230404 
L 536.516834 130.121558 
L 537.388281 127.164848 
L 537.388281 127.164848 
" clip-path="url(#p48e0f88e3e)" style="fill: none; stroke: #e41a1c; stroke-width: 2; stroke-linecap: square"/>
   </g>
   <g id="line2d_17">
    <path d="M 53.153906 127.495316 
L 53.734871 128.863055 
L 54.025354 127.529604 
L 55.91349 81.013494 
L 58.382592 35.825534 
L 60.125487 28.478643 
L 60.415969 28.759926 
L 62.73983 34.014014 
L 64.047001 57.261086 
L 71.018582 218.771227 
L 72.616236 226.446542 
L 72.906718 226.940902 
L 73.051959 226.398217 
L 77.118715 174.177206 
L 83.364089 30.029786 
L 84.961743 24.627438 
L 85.106984 24.501309 
L 85.252226 25.090446 
L 86.559397 35.722411 
L 88.592775 62.691853 
L 95.709597 222.378766 
L 96.726286 224.933078 
L 97.162009 222.741369 
L 99.340628 198.871491 
L 102.100212 137.974139 
L 104.714555 61.122313 
L 107.474139 28.709488 
L 108.055104 27.52167 
L 108.490828 28.181383 
L 111.686136 41.898016 
L 115.026685 127.32033 
L 118.221993 200.456168 
L 120.545853 224.155349 
L 120.836335 222.470356 
L 123.014954 213.807531 
L 123.741161 207.216302 
L 128.388881 83.279193 
L 131.148465 29.309325 
L 132.455637 23.614309 
L 132.89136 24.536385 
L 134.634255 32.452573 
L 137.539081 84.652779 
L 144.074938 213.475529 
L 145.963074 222.185184 
L 146.108315 221.60535 
L 147.270245 211.811903 
L 149.303623 172.013744 
L 150.756036 130.772177 
L 153.660861 51.493022 
L 156.710928 17.88527 
L 157.00141 18.900772 
L 159.906235 40.699224 
L 164.118232 141.083516 
L 167.023057 214.21524 
L 168.620711 223.61595 
L 168.765953 223.300383 
L 172.106502 206.670698 
L 173.994638 165.351834 
L 176.318498 86.076761 
L 178.497117 38.350685 
L 180.820978 21.963968 
L 181.11146 23.025531 
L 182.854355 28.580198 
L 184.742492 47.082784 
L 186.775869 96.935229 
L 189.971177 196.362229 
L 191.568831 210.093791 
L 193.311726 218.680966 
L 194.183174 219.931607 
L 194.764139 219.214098 
L 196.361793 206.190196 
L 203.769097 29.551636 
L 205.22151 26.573532 
L 205.511992 27.121893 
L 209.143024 45.534786 
L 210.740678 92.812498 
L 214.37171 200.541291 
L 216.840811 227.217941 
L 217.276535 226.260538 
L 220.617084 207.231267 
L 222.940944 147.235376 
L 226.281493 66.419698 
L 228.460112 41.894343 
L 230.348249 29.254454 
L 231.65542 33.115421 
L 234.269763 75.343561 
L 240.224655 221.65411 
L 241.822309 228.592806 
L 242.258032 229.042193 
L 242.548515 228.318756 
L 244.872375 204.963748 
L 246.034305 181.291306 
L 252.134438 34.99253 
L 253.151127 30.288578 
L 254.167816 26.351333 
L 254.60354 26.927475 
L 254.894022 27.372416 
L 257.653606 54.128842 
L 264.770428 217.432168 
L 265.787117 223.886953 
L 266.513323 223.620061 
L 267.23953 223.697597 
L 267.965736 215.885215 
L 271.161044 161.963033 
L 275.954006 38.314764 
L 277.261177 29.912348 
L 277.55166 29.982345 
L 278.71359 28.763614 
L 279.004072 29.521494 
L 280.601726 40.810523 
L 281.763656 59.454017 
L 289.461443 224.624437 
L 292.221027 223.318066 
L 295.706818 164.62849 
L 301.080744 32.363367 
L 302.968881 24.688943 
L 303.259363 26.663354 
L 305.873706 57.277419 
L 308.923773 138.790917 
L 311.538115 208.212799 
L 311.973839 209.703286 
L 313.716734 226.173947 
L 314.733423 231.590668 
L 315.023906 229.779884 
L 319.526385 165.178908 
L 322.576451 75.552841 
L 324.609829 38.678023 
L 326.497966 34.496181 
L 326.643207 34.576322 
L 327.078931 35.278511 
L 327.805137 34.800107 
L 328.531343 33.927447 
L 328.676585 34.518116 
L 329.693273 47.974263 
L 331.58141 95.015332 
L 336.22913 217.932246 
L 338.698232 224.20762 
L 340.731609 220.753853 
L 341.603057 210.222623 
L 343.636435 154.130269 
L 346.105536 86.35864 
L 350.462774 26.119771 
L 350.753257 26.442397 
L 351.334222 28.136715 
L 353.658082 44.061427 
L 354.674771 53.567029 
L 356.272425 97.160402 
L 360.484421 208.597161 
L 362.517799 223.286021 
L 362.808282 224.037344 
L 363.389247 222.966445 
L 364.841659 217.090882 
L 366.148831 202.743871 
L 368.908415 131.260526 
L 371.667999 60.73743 
L 373.846618 31.286867 
L 375.29903 31.698207 
L 375.444272 31.600617 
L 375.589513 32.254408 
L 378.349097 50.477314 
L 379.220544 68.579847 
L 386.337366 227.888967 
L 386.627849 226.957525 
L 390.258881 209.205647 
L 392.147017 162.421127 
L 396.794737 47.011754 
L 396.939979 47.573698 
L 397.230461 48.039497 
L 397.666185 47.052047 
L 398.973356 38.930385 
L 399.990045 33.892027 
L 400.280528 34.86435 
L 404.056801 85.477847 
L 409.575969 223.47666 
L 410.447416 228.198354 
L 411.028381 227.233301 
L 414.078448 208.340501 
L 414.949895 193.692089 
L 417.564238 126.689566 
L 420.323822 51.085132 
L 421.19527 39.894846 
L 421.776235 41.248391 
L 422.066717 42.202149 
L 422.502441 40.857643 
L 423.809613 28.994045 
L 424.826301 30.788045 
L 427.150162 58.372019 
L 434.412225 226.66589 
L 434.847949 226.350511 
L 436.300361 218.307216 
L 437.026568 220.194977 
L 437.31705 220.158481 
L 437.462291 219.739248 
L 439.205187 196.512165 
L 441.674288 128.635446 
L 444.14339 61.590005 
L 446.902974 26.787407 
L 448.064904 22.862616 
L 448.355386 23.917849 
L 449.95304 32.076077 
L 458.522275 227.760045 
L 458.667516 227.502216 
L 459.10324 226.647899 
L 459.538964 227.757804 
L 460.119929 228.886475 
L 460.555652 228.223918 
L 460.991376 225.029149 
L 464.331925 170.983162 
L 470.286817 30.018793 
L 470.722541 29.531807 
L 471.884471 24.929657 
L 472.465436 26.786326 
L 473.482125 35.117846 
L 477.113157 90.600916 
L 482.487083 222.859208 
L 482.777566 222.095495 
L 483.649013 220.628402 
L 483.939496 221.466406 
L 484.520461 223.276826 
L 484.956185 221.831852 
L 486.989563 206.286265 
L 496.139762 29.806609 
L 496.285003 29.901409 
L 497.01121 31.880027 
L 499.770794 57.932334 
L 501.513689 110.728322 
L 504.418514 188.821871 
L 507.613822 221.586121 
L 509.066235 222.518186 
L 509.356717 223.387011 
L 509.792441 221.803933 
L 510.663889 213.042489 
L 514.730644 119.588242 
L 517.199746 51.457288 
L 519.668847 27.801891 
L 519.95933 28.192195 
L 520.976018 30.816716 
L 521.992707 38.501634 
L 523.735602 55.582236 
L 526.93091 141.46894 
L 530.126218 221.472581 
L 531.578631 227.235049 
L 532.59532 225.368343 
L 532.740561 225.604849 
L 532.885802 226.012543 
L 533.321526 224.718657 
L 533.902491 222.784628 
L 535.935869 190.113814 
L 537.388281 149.720031 
L 537.388281 149.720031 
" clip-path="url(#p48e0f88e3e)" style="fill: none; stroke: #377eb8; stroke-width: 2; stroke-linecap: square"/>
   </g>
   <g id="patch_3">
    <path d="M 28.942188 242.275937 
L 28.942188 7.2 
" style="fill: none; stroke: #7f7f7f; stroke-width: 1.8; stroke-linejoin: miter; stroke-linecap: square"/>
   </g>
   <g id="patch_4">
    <path d="M 28.942188 242.275937 
L 561.6 242.275937 
" style="fill: none; stroke: #7f7f7f; stroke-width: 1.8; stroke-linejoin: miter; stroke-linecap: square"/>
   </g>
   <g id="legend_1">
    <g id="line2d_18">
     <path d="M 503.101562 20.298438 
L 513.101562 20.298438 
L 523.101562 20.298438 
" style="fill: none; stroke: #e41a1c; stroke-width: 2; stroke-linecap: square"/>
    </g>
    <g id="text_17">
     <!-- Src -->
     <g style="fill: #7f7f7f" transform="translate(531.101562 23.798438) scale(0.1 -0.1)">
      <defs>
       <path id="DejaVuSans-53" d="M 3425 4513 
L 3425 3897 
Q 3066 4069 2747 4153 
Q 2428 4238 2131 4238 
Q 1616 4238 1336 4038 
Q 1056 3838 1056 3469 
Q 1056 3159 1242 3001 
Q 1428 2844 1947 2747 
L 2328 2669 
Q 3034 2534 3370 2195 
Q 3706 1856 3706 1288 
Q 3706 609 3251 259 
Q 2797 -91 1919 -91 
Q 1588 -91 1214 -16 
Q 841 59 441 206 
L 441 856 
Q 825 641 1194 531 
Q 1563 422 1919 422 
Q 2459 422 2753 634 
Q 3047 847 3047 1241 
Q 3047 1584 2836 1778 
Q 2625 1972 2144 2069 
L 1759 2144 
Q 1053 2284 737 2584 
Q 422 2884 422 3419 
Q 422 4038 858 4394 
Q 1294 4750 2059 4750 
Q 2388 4750 2728 4690 
Q 3069 4631 3425 4513 
z
" transform="scale(0.015625)"/>
       <path id="DejaVuSans-72" d="M 2631 2963 
Q 2534 3019 2420 3045 
Q 2306 3072 2169 3072 
Q 1681 3072 1420 2755 
Q 1159 2438 1159 1844 
L 1159 0 
L 581 0 
L 581 3500 
L 1159 3500 
L 1159 2956 
Q 1341 3275 1631 3429 
Q 1922 3584 2338 3584 
Q 2397 3584 2469 3576 
Q 2541 3569 2628 3553 
L 2631 2963 
z
" transform="scale(0.015625)"/>
       <path id="DejaVuSans-63" d="M 3122 3366 
L 3122 2828 
Q 2878 2963 2633 3030 
Q 2388 3097 2138 3097 
Q 1578 3097 1268 2742 
Q 959 2388 959 1747 
Q 959 1106 1268 751 
Q 1578 397 2138 397 
Q 2388 397 2633 464 
Q 2878 531 3122 666 
L 3122 134 
Q 2881 22 2623 -34 
Q 2366 -91 2075 -91 
Q 1284 -91 818 406 
Q 353 903 353 1747 
Q 353 2603 823 3093 
Q 1294 3584 2113 3584 
Q 2378 3584 2631 3529 
Q 2884 3475 3122 3366 
z
" transform="scale(0.015625)"/>
      </defs>
      <use xlink:href="#DejaVuSans-53"/>
      <use xlink:href="#DejaVuSans-72" transform="translate(63.476562 0)"/>
      <use xlink:href="#DejaVuSans-63" transform="translate(102.339844 0)"/>
     </g>
    </g>
    <g id="line2d_19">
     <path d="M 503.101562 34.976563 
L 513.101562 34.976563 
L 523.101562 34.976563 
" style="fill: none; stroke: #377eb8; stroke-width: 2; stroke-linecap: square"/>
    </g>
    <g id="text_18">
     <!-- AMP -->
     <g style="fill: #7f7f7f" transform="translate(531.101562 38.476563) scale(0.1 -0.1)">
      <defs>
       <path id="DejaVuSans-41" d="M 2188 4044 
L 1331 1722 
L 3047 1722 
L 2188 4044 
z
M 1831 4666 
L 2547 4666 
L 4325 0 
L 3669 0 
L 3244 1197 
L 1141 1197 
L 716 0 
L 50 0 
L 1831 4666 
z
" transform="scale(0.015625)"/>
       <path id="DejaVuSans-4d" d="M 628 4666 
L 1569 4666 
L 2759 1491 
L 3956 4666 
L 4897 4666 
L 4897 0 
L 4281 0 
L 4281 4097 
L 3078 897 
L 2444 897 
L 1241 4097 
L 1241 0 
L 628 0 
L 628 4666 
z
" transform="scale(0.015625)"/>
       <path id="DejaVuSans-50" d="M 1259 4147 
L 1259 2394 
L 2053 2394 
Q 2494 2394 2734 2622 
Q 2975 2850 2975 3272 
Q 2975 3691 2734 3919 
Q 2494 4147 2053 4147 
L 1259 4147 
z
M 628 4666 
L 2053 4666 
Q 2838 4666 3239 4311 
Q 3641 3956 3641 3272 
Q 3641 2581 3239 2228 
Q 2838 1875 2053 1875 
L 1259 1875 
L 1259 0 
L 628 0 
L 628 4666 
z
" transform="scale(0.015625)"/>
      </defs>
      <use xlink:href="#DejaVuSans-41"/>
      <use xlink:href="#DejaVuSans-4d" transform="translate(68.408203 0)"/>
      <use xlink:href="#DejaVuSans-50" transform="translate(154.6875 0)"/>
     </g>
    </g>
   </g>
  </g>
 </g>
 <defs>
  <clipPath id="p48e0f88e3e">
   <rect x="28.942188" y="7.2" width="532.657812" height="235.075937"/>
  </clipPath>
 </defs>
</svg>
