<?xml version="1.0" encoding="utf-8" standalone="no"?>
<!DOCTYPE svg PUBLIC "-//W3C//DTD SVG 1.1//EN"
  "http://www.w3.org/Graphics/SVG/1.1/DTD/svg11.dtd">
<svg xmlns:xlink="http://www.w3.org/1999/xlink" width="568.8pt" height="280.8pt" viewBox="0 0 568.8 280.8" xmlns="http://www.w3.org/2000/svg" version="1.1">
 <metadata>
  <rdf:RDF xmlns:dc="http://purl.org/dc/elements/1.1/" xmlns:cc="http://creativecommons.org/ns#" xmlns:rdf="http://www.w3.org/1999/02/22-rdf-syntax-ns#">
   <cc:Work>
    <dc:type rdf:resource="http://purl.org/dc/dcmitype/StillImage"/>
    <dc:date>2026-05-29T07:26:37.075164</dc:date>
    <dc:format>image/svg+xml</dc:format>
    <dc:creator>
     <cc:Agent>
      <dc:title>Matplotlib v3.10.9, https://matplotlib.org/</dc:title>
     </cc:Agent>
    </dc:creator>
   </cc:Work>
  </rdf:RDF>
 </metadata>
 <defs>
  <style type="text/css">*{stroke-linejoin: round; stroke-linecap: butt}</style>
 </defs>
 <g id="figure_1">
  <g id="patch_1">
   <path d="M 0 280.8 
L 568.8 280.8 
L 568.8 0 
L 0 0 
L 0 280.8 
z
" style="fill: none"/>
  </g>
  <g id="axes_1">
   <g id="patch_2">
    <path d="M 28.942188 242.275937 
L 561.6 242.275937 
L 561.6 7.2 
L 28.942188 7.2 
L 28.942188 242.275937 
z
" style="fill: none"/>
   </g>
   <g id="matplotlib.axis_1">
    <g id="xtick_1">
     <g id="line2d_1">
      <defs>
       <path id="m9cebb9bac5" d="M 0 0 
L 0 3.5 
" style="stroke: #7f7f7f; stroke-width: 1.8"/>
      </defs>
      <g>
       <use xlink:href="#m9cebb9bac5" x="53.153906" y="242.275937" style="fill: #7f7f7f; stroke: #7f7f7f; stroke-width: 1.8"/>
      </g>
     </g>
     <g id="text_1">
      <!-- 0.00000 -->
      <g style="fill: #7f7f7f" transform="translate(32.477344 256.874375) scale(0.1 -0.1)">
       <defs>
        <path id="DejaVuSans-30" d="M 2034 4250 
Q 1547 4250 1301 3770 
Q 1056 3291 1056 2328 
Q 1056 1369 1301 889 
Q 1547 409 2034 409 
Q 2525 409 2770 889 
Q 3016 1369 3016 2328 
Q 3016 3291 2770 3770 
Q 2525 4250 2034 4250 
z
M 2034 4750 
Q 2819 4750 3233 4129 
Q 3647 3509 3647 2328 
Q 3647 1150 3233 529 
Q 2819 -91 2034 -91 
Q 1250 -91 836 529 
Q 422 1150 422 2328 
Q 422 3509 836 4129 
Q 1250 4750 2034 4750 
z
" transform="scale(0.015625)"/>
        <path id="DejaVuSans-2e" d="M 684 794 
L 1344 794 
L 1344 0 
L 684 0 
L 684 794 
z
" transform="scale(0.015625)"/>
       </defs>
       <use xlink:href="#DejaVuSans-30"/>
       <use xlink:href="#DejaVuSans-2e" transform="translate(63.623047 0)"/>
       <use xlink:href="#DejaVuSans-30" transform="translate(95.410156 0)"/>
       <use xlink:href="#DejaVuSans-30" transform="translate(159.033203 0)"/>
       <use xlink:href="#DejaVuSans-30" transform="translate(222.65625 0)"/>
       <use xlink:href="#DejaVuSans-30" transform="translate(286.279297 0)"/>
       <use xlink:href="#DejaVuSans-30" transform="translate(349.902344 0)"/>
      </g>
     </g>
    </g>
    <g id="xtick_2">
     <g id="line2d_2">
      <g>
       <use xlink:href="#m9cebb9bac5" x="149.981416" y="242.275937" style="fill: #7f7f7f; stroke: #7f7f7f; stroke-width: 1.8"/>
      </g>
     </g>
     <g id="text_2">
      <!-- 0.00002 -->
      <g style="fill: #7f7f7f" transform="translate(129.304853 256.874375) scale(0.1 -0.1)">
       <defs>
        <path id="DejaVuSans-32" d="M 1228 531 
L 3431 531 
L 3431 0 
L 469 0 
L 469 531 
Q 828 903 1448 1529 
Q 2069 2156 2228 2338 
Q 2531 2678 2651 2914 
Q 2772 3150 2772 3378 
Q 2772 3750 2511 3984 
Q 2250 4219 1831 4219 
Q 1534 4219 1204 4116 
Q 875 4013 500 3803 
L 500 4441 
Q 881 4594 1212 4672 
Q 1544 4750 1819 4750 
Q 2544 4750 2975 4387 
Q 3406 4025 3406 3419 
Q 3406 3131 3298 2873 
Q 3191 2616 2906 2266 
Q 2828 2175 2409 1742 
Q 1991 1309 1228 531 
z
" transform="scale(0.015625)"/>
       </defs>
       <use xlink:href="#DejaVuSans-30"/>
       <use xlink:href="#DejaVuSans-2e" transform="translate(63.623047 0)"/>
       <use xlink:href="#DejaVuSans-30" transform="translate(95.410156 0)"/>
       <use xlink:href="#DejaVuSans-30" transform="translate(159.033203 0)"/>
       <use xlink:href="#DejaVuSans-30" transform="translate(222.65625 0)"/>
       <use xlink:href="#DejaVuSans-30" transform="translate(286.279297 0)"/>
       <use xlink:href="#DejaVuSans-32" transform="translate(349.902344 0)"/>
      </g>
     </g>
    </g>
    <g id="xtick_3">
     <g id="line2d_3">
      <g>
       <use xlink:href="#m9cebb9bac5" x="246.808925" y="242.275937" style="fill: #7f7f7f; stroke: #7f7f7f; stroke-width: 1.8"/>
      </g>
     </g>
     <g id="text_3">
      <!-- 0.00004 -->
      <g style="fill: #7f7f7f" transform="translate(226.132363 256.874375) scale(0.1 -0.1)">
       <defs>
        <path id="DejaVuSans-34" d="M 2419 4116 
L 825 1625 
L 2419 1625 
L 2419 4116 
z
M 2253 4666 
L 3047 4666 
L 3047 1625 
L 3713 1625 
L 3713 1100 
L 3047 1100 
L 3047 0 
L 2419 0 
L 2419 1100 
L 313 1100 
L 313 1709 
L 2253 4666 
z
" transform="scale(0.015625)"/>
       </defs>
       <use xlink:href="#DejaVuSans-30"/>
       <use xlink:href="#DejaVuSans-2e" transform="translate(63.623047 0)"/>
       <use xlink:href="#DejaVuSans-30" transform="translate(95.410156 0)"/>
       <use xlink:href="#DejaVuSans-30" transform="translate(159.033203 0)"/>
       <use xlink:href="#DejaVuSans-30" transform="translate(222.65625 0)"/>
       <use xlink:href="#DejaVuSans-30" transform="translate(286.279297 0)"/>
       <use xlink:href="#DejaVuSans-34" transform="translate(349.902344 0)"/>
      </g>
     </g>
    </g>
    <g id="xtick_4">
     <g id="line2d_4">
      <g>
       <use xlink:href="#m9cebb9bac5" x="343.636435" y="242.275937" style="fill: #7f7f7f; stroke: #7f7f7f; stroke-width: 1.8"/>
      </g>
     </g>
     <g id="text_4">
      <!-- 0.00006 -->
      <g style="fill: #7f7f7f" transform="translate(322.959872 256.874375) scale(0.1 -0.1)">
       <defs>
        <path id="DejaVuSans-36" d="M 2113 2584 
Q 1688 2584 1439 2293 
Q 1191 2003 1191 1497 
Q 1191 994 1439 701 
Q 1688 409 2113 409 
Q 2538 409 2786 701 
Q 3034 994 3034 1497 
Q 3034 2003 2786 2293 
Q 2538 2584 2113 2584 
z
M 3366 4563 
L 3366 3988 
Q 3128 4100 2886 4159 
Q 2644 4219 2406 4219 
Q 1781 4219 1451 3797 
Q 1122 3375 1075 2522 
Q 1259 2794 1537 2939 
Q 1816 3084 2150 3084 
Q 2853 3084 3261 2657 
Q 3669 2231 3669 1497 
Q 3669 778 3244 343 
Q 2819 -91 2113 -91 
Q 1303 -91 875 529 
Q 447 1150 447 2328 
Q 447 3434 972 4092 
Q 1497 4750 2381 4750 
Q 2619 4750 2861 4703 
Q 3103 4656 3366 4563 
z
" transform="scale(0.015625)"/>
       </defs>
       <use xlink:href="#DejaVuSans-30"/>
       <use xlink:href="#DejaVuSans-2e" transform="translate(63.623047 0)"/>
       <use xlink:href="#DejaVuSans-30" transform="translate(95.410156 0)"/>
       <use xlink:href="#DejaVuSans-30" transform="translate(159.033203 0)"/>
       <use xlink:href="#DejaVuSans-30" transform="translate(222.65625 0)"/>
       <use xlink:href="#DejaVuSans-30" transform="translate(286.279297 0)"/>
       <use xlink:href="#DejaVuSans-36" transform="translate(349.902344 0)"/>
      </g>
     </g>
    </g>
    <g id="xtick_5">
     <g id="line2d_5">
      <g>
       <use xlink:href="#m9cebb9bac5" x="440.463944" y="242.275937" style="fill: #7f7f7f; stroke: #7f7f7f; stroke-width: 1.8"/>
      </g>
     </g>
     <g id="text_5">
      <!-- 0.00008 -->
      <g style="fill: #7f7f7f" transform="translate(419.787382 256.874375) scale(0.1 -0.1)">
       <defs>
        <path id="DejaVuSans-38" d="M 2034 2216 
Q 1584 2216 1326 1975 
Q 1069 1734 1069 1313 
Q 1069 891 1326 650 
Q 1584 409 2034 409 
Q 2484 409 2743 651 
Q 3003 894 3003 1313 
Q 3003 1734 2745 1975 
Q 2488 2216 2034 2216 
z
M 1403 2484 
Q 997 2584 770 2862 
Q 544 3141 544 3541 
Q 544 4100 942 4425 
Q 1341 4750 2034 4750 
Q 2731 4750 3128 4425 
Q 3525 4100 3525 3541 
Q 3525 3141 3298 2862 
Q 3072 2584 2669 2484 
Q 3125 2378 3379 2068 
Q 3634 1759 3634 1313 
Q 3634 634 3220 271 
Q 2806 -91 2034 -91 
Q 1263 -91 848 271 
Q 434 634 434 1313 
Q 434 1759 690 2068 
Q 947 2378 1403 2484 
z
M 1172 3481 
Q 1172 3119 1398 2916 
Q 1625 2713 2034 2713 
Q 2441 2713 2670 2916 
Q 2900 3119 2900 3481 
Q 2900 3844 2670 4047 
Q 2441 4250 2034 4250 
Q 1625 4250 1398 4047 
Q 1172 3844 1172 3481 
z
" transform="scale(0.015625)"/>
       </defs>
       <use xlink:href="#DejaVuSans-30"/>
       <use xlink:href="#DejaVuSans-2e" transform="translate(63.623047 0)"/>
       <use xlink:href="#DejaVuSans-30" transform="translate(95.410156 0)"/>
       <use xlink:href="#DejaVuSans-30" transform="translate(159.033203 0)"/>
       <use xlink:href="#DejaVuSans-30" transform="translate(222.65625 0)"/>
       <use xlink:href="#DejaVuSans-30" transform="translate(286.279297 0)"/>
       <use xlink:href="#DejaVuSans-38" transform="translate(349.902344 0)"/>
      </g>
     </g>
    </g>
    <g id="xtick_6">
     <g id="line2d_6">
      <g>
       <use xlink:href="#m9cebb9bac5" x="537.291454" y="242.275937" style="fill: #7f7f7f; stroke: #7f7f7f; stroke-width: 1.8"/>
      </g>
     </g>
     <g id="text_6">
      <!-- 0.00010 -->
      <g style="fill: #7f7f7f" transform="translate(516.614891 256.874375) scale(0.1 -0.1)">
       <defs>
        <path id="DejaVuSans-31" d="M 794 531 
L 1825 531 
L 1825 4091 
L 703 3866 
L 703 4441 
L 1819 4666 
L 2450 4666 
L 2450 531 
L 3481 531 
L 3481 0 
L 794 0 
L 794 531 
z
" transform="scale(0.015625)"/>
       </defs>
       <use xlink:href="#DejaVuSans-30"/>
       <use xlink:href="#DejaVuSans-2e" transform="translate(63.623047 0)"/>
       <use xlink:href="#DejaVuSans-30" transform="translate(95.410156 0)"/>
       <use xlink:href="#DejaVuSans-30" transform="translate(159.033203 0)"/>
       <use xlink:href="#DejaVuSans-30" transform="translate(222.65625 0)"/>
       <use xlink:href="#DejaVuSans-31" transform="translate(286.279297 0)"/>
       <use xlink:href="#DejaVuSans-30" transform="translate(349.902344 0)"/>
      </g>
     </g>
    </g>
    <g id="text_7">
     <!-- time [s] -->
     <g style="fill: #7f7f7f" transform="translate(273.940547 271.312344) scale(0.11 -0.11)">
      <defs>
       <path id="DejaVuSans-74" d="M 1172 4494 
L 1172 3500 
L 2356 3500 
L 2356 3053 
L 1172 3053 
L 1172 1153 
Q 1172 725 1289 603 
Q 1406 481 1766 481 
L 2356 481 
L 2356 0 
L 1766 0 
Q 1100 0 847 248 
Q 594 497 594 1153 
L 594 3053 
L 172 3053 
L 172 3500 
L 594 3500 
L 594 4494 
L 1172 4494 
z
" transform="scale(0.015625)"/>
       <path id="DejaVuSans-69" d="M 603 3500 
L 1178 3500 
L 1178 0 
L 603 0 
L 603 3500 
z
M 603 4863 
L 1178 4863 
L 1178 4134 
L 603 4134 
L 603 4863 
z
" transform="scale(0.015625)"/>
       <path id="DejaVuSans-6d" d="M 3328 2828 
Q 3544 3216 3844 3400 
Q 4144 3584 4550 3584 
Q 5097 3584 5394 3201 
Q 5691 2819 5691 2113 
L 5691 0 
L 5113 0 
L 5113 2094 
Q 5113 2597 4934 2840 
Q 4756 3084 4391 3084 
Q 3944 3084 3684 2787 
Q 3425 2491 3425 1978 
L 3425 0 
L 2847 0 
L 2847 2094 
Q 2847 2600 2669 2842 
Q 2491 3084 2119 3084 
Q 1678 3084 1418 2786 
Q 1159 2488 1159 1978 
L 1159 0 
L 581 0 
L 581 3500 
L 1159 3500 
L 1159 2956 
Q 1356 3278 1631 3431 
Q 1906 3584 2284 3584 
Q 2666 3584 2933 3390 
Q 3200 3197 3328 2828 
z
" transform="scale(0.015625)"/>
       <path id="DejaVuSans-65" d="M 3597 1894 
L 3597 1613 
L 953 1613 
Q 991 1019 1311 708 
Q 1631 397 2203 397 
Q 2534 397 2845 478 
Q 3156 559 3463 722 
L 3463 178 
Q 3153 47 2828 -22 
Q 2503 -91 2169 -91 
Q 1331 -91 842 396 
Q 353 884 353 1716 
Q 353 2575 817 3079 
Q 1281 3584 2069 3584 
Q 2775 3584 3186 3129 
Q 3597 2675 3597 1894 
z
M 3022 2063 
Q 3016 2534 2758 2815 
Q 2500 3097 2075 3097 
Q 1594 3097 1305 2825 
Q 1016 2553 972 2059 
L 3022 2063 
z
" transform="scale(0.015625)"/>
       <path id="DejaVuSans-20" transform="scale(0.015625)"/>
       <path id="DejaVuSans-5b" d="M 550 4863 
L 1875 4863 
L 1875 4416 
L 1125 4416 
L 1125 -397 
L 1875 -397 
L 1875 -844 
L 550 -844 
L 550 4863 
z
" transform="scale(0.015625)"/>
       <path id="DejaVuSans-73" d="M 2834 3397 
L 2834 2853 
Q 2591 2978 2328 3040 
Q 2066 3103 1784 3103 
Q 1356 3103 1142 2972 
Q 928 2841 928 2578 
Q 928 2378 1081 2264 
Q 1234 2150 1697 2047 
L 1894 2003 
Q 2506 1872 2764 1633 
Q 3022 1394 3022 966 
Q 3022 478 2636 193 
Q 2250 -91 1575 -91 
Q 1294 -91 989 -36 
Q 684 19 347 128 
L 347 722 
Q 666 556 975 473 
Q 1284 391 1588 391 
Q 1994 391 2212 530 
Q 2431 669 2431 922 
Q 2431 1156 2273 1281 
Q 2116 1406 1581 1522 
L 1381 1569 
Q 847 1681 609 1914 
Q 372 2147 372 2553 
Q 372 3047 722 3315 
Q 1072 3584 1716 3584 
Q 2034 3584 2315 3537 
Q 2597 3491 2834 3397 
z
" transform="scale(0.015625)"/>
       <path id="DejaVuSans-5d" d="M 1947 4863 
L 1947 -844 
L 622 -844 
L 622 -397 
L 1369 -397 
L 1369 4416 
L 622 4416 
L 622 4863 
L 1947 4863 
z
" transform="scale(0.015625)"/>
      </defs>
      <use xlink:href="#DejaVuSans-74"/>
      <use xlink:href="#DejaVuSans-69" transform="translate(39.208984 0)"/>
      <use xlink:href="#DejaVuSans-6d" transform="translate(66.992188 0)"/>
      <use xlink:href="#DejaVuSans-65" transform="translate(164.404297 0)"/>
      <use xlink:href="#DejaVuSans-20" transform="translate(225.927734 0)"/>
      <use xlink:href="#DejaVuSans-5b" transform="translate(257.714844 0)"/>
      <use xlink:href="#DejaVuSans-73" transform="translate(296.728516 0)"/>
      <use xlink:href="#DejaVuSans-5d" transform="translate(348.828125 0)"/>
     </g>
    </g>
   </g>
   <g id="matplotlib.axis_2">
    <g id="ytick_1">
     <g id="line2d_7">
      <defs>
       <path id="md91786d4fb" d="M 0 0 
L -3.5 0 
" style="stroke: #7f7f7f; stroke-width: 1.8"/>
      </defs>
      <g>
       <use xlink:href="#md91786d4fb" x="28.942188" y="234.55096" style="fill: #7f7f7f; stroke: #7f7f7f; stroke-width: 1.8"/>
      </g>
     </g>
     <g id="text_8">
      <!-- −8 -->
      <g style="fill: #7f7f7f" transform="translate(7.2 238.350179) scale(0.1 -0.1)">
       <defs>
        <path id="DejaVuSans-2212" d="M 678 2272 
L 4684 2272 
L 4684 1741 
L 678 1741 
L 678 2272 
z
" transform="scale(0.015625)"/>
       </defs>
       <use xlink:href="#DejaVuSans-2212"/>
       <use xlink:href="#DejaVuSans-38" transform="translate(83.789062 0)"/>
      </g>
     </g>
    </g>
    <g id="ytick_2">
     <g id="line2d_8">
      <g>
       <use xlink:href="#md91786d4fb" x="28.942188" y="207.653829" style="fill: #7f7f7f; stroke: #7f7f7f; stroke-width: 1.8"/>
      </g>
     </g>
     <g id="text_9">
      <!-- −6 -->
      <g style="fill: #7f7f7f" transform="translate(7.2 211.453048) scale(0.1 -0.1)">
       <use xlink:href="#DejaVuSans-2212"/>
       <use xlink:href="#DejaVuSans-36" transform="translate(83.789062 0)"/>
      </g>
     </g>
    </g>
    <g id="ytick_3">
     <g id="line2d_9">
      <g>
       <use xlink:href="#md91786d4fb" x="28.942188" y="180.756698" style="fill: #7f7f7f; stroke: #7f7f7f; stroke-width: 1.8"/>
      </g>
     </g>
     <g id="text_10">
      <!-- −4 -->
      <g style="fill: #7f7f7f" transform="translate(7.2 184.555916) scale(0.1 -0.1)">
       <use xlink:href="#DejaVuSans-2212"/>
       <use xlink:href="#DejaVuSans-34" transform="translate(83.789062 0)"/>
      </g>
     </g>
    </g>
    <g id="ytick_4">
     <g id="line2d_10">
      <g>
       <use xlink:href="#md91786d4fb" x="28.942188" y="153.859566" style="fill: #7f7f7f; stroke: #7f7f7f; stroke-width: 1.8"/>
      </g>
     </g>
     <g id="text_11">
      <!-- −2 -->
      <g style="fill: #7f7f7f" transform="translate(7.2 157.658785) scale(0.1 -0.1)">
       <use xlink:href="#DejaVuSans-2212"/>
       <use xlink:href="#DejaVuSans-32" transform="translate(83.789062 0)"/>
      </g>
     </g>
    </g>
    <g id="ytick_5">
     <g id="line2d_11">
      <g>
       <use xlink:href="#md91786d4fb" x="28.942188" y="126.962435" style="fill: #7f7f7f; stroke: #7f7f7f; stroke-width: 1.8"/>
      </g>
     </g>
     <g id="text_12">
      <!-- 0 -->
      <g style="fill: #7f7f7f" transform="translate(15.579688 130.761653) scale(0.1 -0.1)">
       <use xlink:href="#DejaVuSans-30"/>
      </g>
     </g>
    </g>
    <g id="ytick_6">
     <g id="line2d_12">
      <g>
       <use xlink:href="#md91786d4fb" x="28.942188" y="100.065303" style="fill: #7f7f7f; stroke: #7f7f7f; stroke-width: 1.8"/>
      </g>
     </g>
     <g id="text_13">
      <!-- 2 -->
      <g style="fill: #7f7f7f" transform="translate(15.579688 103.864522) scale(0.1 -0.1)">
       <use xlink:href="#DejaVuSans-32"/>
      </g>
     </g>
    </g>
    <g id="ytick_7">
     <g id="line2d_13">
      <g>
       <use xlink:href="#md91786d4fb" x="28.942188" y="73.168172" style="fill: #7f7f7f; stroke: #7f7f7f; stroke-width: 1.8"/>
      </g>
     </g>
     <g id="text_14">
      <!-- 4 -->
      <g style="fill: #7f7f7f" transform="translate(15.579688 76.967391) scale(0.1 -0.1)">
       <use xlink:href="#DejaVuSans-34"/>
      </g>
     </g>
    </g>
    <g id="ytick_8">
     <g id="line2d_14">
      <g>
       <use xlink:href="#md91786d4fb" x="28.942188" y="46.27104" style="fill: #7f7f7f; stroke: #7f7f7f; stroke-width: 1.8"/>
      </g>
     </g>
     <g id="text_15">
      <!-- 6 -->
      <g style="fill: #7f7f7f" transform="translate(15.579688 50.070259) scale(0.1 -0.1)">
       <use xlink:href="#DejaVuSans-36"/>
      </g>
     </g>
    </g>
    <g id="ytick_9">
     <g id="line2d_15">
      <g>
       <use xlink:href="#md91786d4fb" x="28.942188" y="19.373909" style="fill: #7f7f7f; stroke: #7f7f7f; stroke-width: 1.8"/>
      </g>
     </g>
     <g id="text_16">
      <!-- 8 -->
      <g style="fill: #7f7f7f" transform="translate(15.579688 23.173128) scale(0.1 -0.1)">
       <use xlink:href="#DejaVuSans-38"/>
      </g>
     </g>
    </g>
   </g>
   <g id="line2d_16">
    <path d="M 53.153906 126.962435 
L 57.656385 114.586636 
L 59.544522 113.565866 
L 61.142176 115.177367 
L 63.611277 121.389677 
L 70.437617 140.068423 
L 72.035271 140.172789 
L 73.778166 137.742361 
L 76.682991 129.316244 
L 82.056918 114.337811 
L 83.945054 113.642149 
L 85.542708 115.517779 
L 88.157051 122.486489 
L 94.402425 139.853178 
L 96.14532 140.231945 
L 97.742974 138.225986 
L 100.502558 130.633247 
L 106.312209 114.280565 
L 108.200345 113.666487 
L 109.797999 115.607435 
L 112.412342 122.646203 
L 118.512475 139.752781 
L 120.25537 140.28272 
L 121.853024 138.40709 
L 124.467367 131.43838 
L 130.712741 114.071691 
L 132.455637 113.692924 
L 134.05329 115.698884 
L 136.812874 123.291623 
L 142.622525 139.644305 
L 144.510661 140.258383 
L 146.108315 138.317434 
L 148.722658 131.278666 
L 154.822791 114.172089 
L 156.565686 113.642149 
L 158.16334 115.517779 
L 160.777683 122.486489 
L 167.023057 139.853178 
L 168.765953 140.231945 
L 170.363606 138.225986 
L 173.123191 130.633247 
L 178.932841 114.280565 
L 180.820978 113.666487 
L 182.418631 115.607435 
L 185.032974 122.646203 
L 191.133107 139.752781 
L 192.876002 140.28272 
L 194.473656 138.40709 
L 197.087999 131.43838 
L 203.333373 114.071691 
L 205.076269 113.692924 
L 206.673923 115.698884 
L 209.433507 123.291623 
L 215.243157 139.644305 
L 217.131294 140.258383 
L 218.728947 138.317434 
L 221.34329 131.278666 
L 227.443423 114.172089 
L 229.186319 113.642149 
L 230.783972 115.517779 
L 233.398315 122.486489 
L 239.64369 139.853178 
L 241.386585 140.231945 
L 242.984239 138.225986 
L 245.743823 130.633247 
L 251.553473 114.280565 
L 253.44161 113.666487 
L 255.039264 115.607435 
L 257.653606 122.646203 
L 263.753739 139.752781 
L 265.496635 140.28272 
L 267.094288 138.40709 
L 269.708631 131.43838 
L 275.954006 114.071691 
L 277.696901 113.692924 
L 279.294555 115.698884 
L 282.054139 123.291623 
L 287.863789 139.644305 
L 289.751926 140.258383 
L 291.34958 138.317434 
L 293.963922 131.278666 
L 300.064055 114.172089 
L 301.806951 113.642149 
L 303.404605 115.517779 
L 306.018947 122.486489 
L 312.264322 139.853178 
L 314.007217 140.231945 
L 315.604871 138.225986 
L 318.364455 130.633247 
L 324.174105 114.280565 
L 326.062242 113.666487 
L 327.659896 115.607435 
L 330.274238 122.646203 
L 336.374372 139.752781 
L 338.117267 140.28272 
L 339.714921 138.40709 
L 342.329263 131.43838 
L 348.574638 114.071691 
L 350.317533 113.692924 
L 351.915187 115.698884 
L 354.674771 123.291623 
L 360.484421 139.644305 
L 362.372558 140.258383 
L 363.970212 138.317434 
L 366.584554 131.278666 
L 372.684688 114.172089 
L 374.427583 113.642149 
L 376.025237 115.517779 
L 378.639579 122.486489 
L 384.884954 139.853178 
L 386.627849 140.231945 
L 388.225503 138.225986 
L 390.985087 130.633247 
L 396.794737 114.280565 
L 398.682874 113.666487 
L 400.280528 115.607435 
L 402.894871 122.646203 
L 408.995004 139.752781 
L 410.737899 140.28272 
L 412.335553 138.40709 
L 414.949895 131.43838 
L 421.19527 114.071691 
L 422.938165 113.692924 
L 424.535819 115.698884 
L 427.295403 123.291623 
L 433.105054 139.644305 
L 434.99319 140.258383 
L 436.590844 138.317434 
L 439.205187 131.278666 
L 445.30532 114.172089 
L 447.048215 113.642149 
L 448.645869 115.517779 
L 451.260212 122.486489 
L 457.505586 139.853178 
L 459.248481 140.231945 
L 460.846135 138.225986 
L 463.605719 130.633247 
L 469.41537 114.280565 
L 471.303506 113.666487 
L 472.90116 115.607435 
L 475.515503 122.646203 
L 481.615636 139.752781 
L 483.358531 140.28272 
L 484.956185 138.40709 
L 487.570528 131.43838 
L 493.815902 114.071691 
L 495.558797 113.692924 
L 497.156451 115.698884 
L 499.916035 123.291623 
L 505.725686 139.644305 
L 507.613822 140.258383 
L 509.211476 138.317434 
L 511.825819 131.278666 
L 517.925952 114.172089 
L 519.668847 113.642149 
L 521.266501 115.517779 
L 523.880844 122.486489 
L 530.126218 139.853178 
L 531.869113 140.231945 
L 533.466767 138.225986 
L 536.226351 130.633247 
L 537.388281 126.624471 
L 537.388281 126.624471 
" clip-path="url(#pe0f7eb8dad)" style="fill: none; stroke: #e41a1c; stroke-width: 2; stroke-linecap: square"/>
   </g>
   <g id="line2d_17">
    <path d="M 53.153906 126.962435 
L 53.880113 117.709279 
L 59.980246 21.932285 
L 60.125487 22.028824 
L 61.5779 26.199382 
L 62.304106 30.903127 
L 66.22562 106.726829 
L 70.437617 213.347716 
L 71.599547 224.825909 
L 71.890029 223.464109 
L 74.940096 209.332048 
L 79.733058 73.066104 
L 81.911677 29.515922 
L 83.799813 18.891523 
L 84.090296 19.358158 
L 86.268914 27.405719 
L 86.995121 31.229337 
L 89.754705 89.179563 
L 95.564355 221.048152 
L 96.871527 219.13528 
L 97.016768 219.41099 
L 98.323939 220.949186 
L 98.469181 220.570335 
L 100.357317 192.627785 
L 102.535936 117.691287 
L 106.312209 34.180824 
L 107.474139 29.645868 
L 107.909863 30.571541 
L 108.636069 31.181776 
L 108.926552 30.776118 
L 109.507517 29.587487 
L 110.669447 24.326742 
L 111.105171 26.792068 
L 111.686136 36.745088 
L 114.881444 115.669082 
L 118.657716 209.146231 
L 119.819647 223.965591 
L 120.400612 223.813016 
L 121.998266 228.387342 
L 122.288748 226.941763 
L 123.450678 208.29286 
L 132.310395 19.830412 
L 132.455637 20.034312 
L 133.181843 21.17257 
L 134.779497 29.626044 
L 137.248598 68.194628 
L 141.751077 197.698668 
L 145.091627 226.989919 
L 145.52735 227.414352 
L 145.817833 226.308648 
L 147.996452 208.855694 
L 155.403756 26.414107 
L 157.437134 18.513749 
L 157.727617 18.843282 
L 158.16334 19.787735 
L 160.051477 39.019988 
L 161.939613 71.738155 
L 163.972991 142.836431 
L 166.732575 214.691999 
L 167.458781 220.760044 
L 168.039746 219.550592 
L 168.330229 220.285942 
L 169.346918 225.108012 
L 169.782641 223.233056 
L 171.525537 211.505249 
L 173.268432 188.867357 
L 176.46374 83.253548 
L 179.513806 32.091427 
L 181.401943 25.095167 
L 181.547184 24.965169 
L 181.837666 25.75874 
L 185.323457 51.340583 
L 187.066352 102.15495 
L 190.842625 214.598128 
L 192.149796 222.231942 
L 192.295037 222.06569 
L 192.440279 221.839796 
L 192.876002 222.961514 
L 193.602209 225.351798 
L 194.037933 224.546305 
L 196.507034 195.765699 
L 199.411859 130.082737 
L 202.607167 42.651784 
L 204.640545 24.785291 
L 205.366751 25.412123 
L 206.964405 29.615488 
L 207.835853 45.20785 
L 216.840811 225.419227 
L 217.8575 231.142418 
L 218.293224 230.051722 
L 219.309913 220.070249 
L 225.700528 71.241994 
L 227.879147 27.453208 
L 229.186319 23.80486 
L 230.057766 21.85179 
L 230.638731 23.403994 
L 232.236385 33.759938 
L 233.97928 56.246642 
L 240.660378 217.832548 
L 242.112791 229.014718 
L 242.403274 228.653821 
L 242.984239 225.603285 
L 246.760511 160.742624 
L 251.408232 35.738109 
L 251.989197 30.851185 
L 252.570162 31.965085 
L 253.296368 34.884525 
L 253.732092 32.664193 
L 254.167816 30.890235 
L 254.894022 31.759292 
L 257.217883 46.004771 
L 259.686984 89.966761 
L 263.318016 210.825016 
L 265.351393 222.228748 
L 265.641876 222.007597 
L 266.0776 223.312079 
L 266.513323 225.156141 
L 266.803806 222.888173 
L 269.56339 192.272788 
L 276.825453 21.251088 
L 278.132625 20.316391 
L 278.277866 20.50087 
L 280.020761 27.430895 
L 282.19938 54.873681 
L 283.651793 87.807076 
L 286.8471 183.356449 
L 289.316202 226.810328 
L 289.897167 227.428802 
L 290.18765 226.648742 
L 291.930545 221.335446 
L 293.528199 197.964985 
L 295.706818 139.62811 
L 299.918814 33.928247 
L 301.806951 29.431028 
L 303.404605 27.813045 
L 304.276052 29.979538 
L 306.599912 55.154577 
L 314.152458 226.430797 
L 314.733423 227.104012 
L 315.023906 226.37424 
L 319.090661 170.710448 
L 323.302658 46.34154 
L 325.190794 27.614477 
L 326.643207 21.620143 
L 326.788448 22.154506 
L 331.000445 71.468465 
L 337.681543 227.376503 
L 338.988714 229.863364 
L 339.133956 229.487651 
L 341.89354 196.245472 
L 348.86512 33.658218 
L 350.172292 22.670149 
L 350.608015 23.284662 
L 351.18898 24.573035 
L 353.367599 36.5356 
L 355.981942 100.426883 
L 359.903456 200.114136 
L 362.517799 223.355343 
L 362.66304 223.671815 
L 363.098764 222.888906 
L 363.534488 223.209898 
L 363.679729 223.324013 
L 363.82497 222.909805 
L 366.729796 195.454613 
L 373.701376 31.329231 
L 374.282342 30.462549 
L 374.863307 30.951498 
L 375.153789 30.61678 
L 376.025237 27.394481 
L 376.315719 28.394206 
L 377.768132 39.284097 
L 380.672957 120.008432 
L 385.030195 220.8586 
L 385.901643 225.776625 
L 386.337366 224.332947 
L 387.208814 221.914238 
L 387.499297 222.299023 
L 388.951709 221.713973 
L 391.566052 188.626434 
L 398.392391 19.895254 
L 399.118598 17.88527 
L 399.554321 19.294494 
L 401.006734 28.765213 
L 403.911559 69.358503 
L 410.592658 223.304402 
L 411.028381 224.465331 
L 411.318864 223.086343 
L 412.190311 219.526014 
L 412.626035 219.871273 
L 413.497483 216.116989 
L 416.402308 153.924748 
L 419.888098 59.2096 
L 422.3572 27.88433 
L 423.228648 24.828865 
L 423.664371 25.794577 
L 423.954854 26.077335 
L 425.552508 39.642222 
L 428.893057 100.677053 
L 431.362158 167.306116 
L 434.847949 230.242552 
L 435.428914 231.558437 
L 435.864638 230.781958 
L 436.881326 223.049135 
L 440.367117 161.485502 
L 443.562425 71.218895 
L 446.757732 28.836102 
L 448.064904 25.566706 
L 448.645869 26.42664 
L 451.260212 59.061181 
L 457.215103 209.556395 
L 460.119929 230.544618 
L 460.555652 230.018079 
L 461.862824 217.746407 
L 465.058132 142.910871 
L 469.851093 23.65457 
L 470.286817 20.616699 
L 471.013023 21.789844 
L 471.73923 22.892221 
L 472.174954 22.250865 
L 472.90116 24.34211 
L 475.079779 40.166986 
L 476.241709 57.866103 
L 478.71081 140.244609 
L 481.906118 216.805288 
L 482.922807 222.618303 
L 483.21329 222.428835 
L 484.956185 218.139614 
L 487.86101 185.68433 
L 490.475353 106.72947 
L 494.396867 29.210788 
L 496.139762 19.443158 
L 497.446934 25.905108 
L 499.625553 59.718433 
L 507.032857 224.158933 
L 507.613822 224.739112 
L 507.904305 223.67446 
L 510.228165 215.77431 
L 512.261543 181.608694 
L 515.166368 93.381868 
L 518.361676 27.18726 
L 519.814088 22.771408 
L 520.104571 24.36349 
L 520.830777 28.50403 
L 521.266501 27.350163 
L 521.847466 25.535905 
L 522.28319 27.062315 
L 524.461809 53.891585 
L 530.416701 212.74096 
L 532.450078 229.934799 
L 535.500145 208.738588 
L 536.516834 191.489252 
L 537.388281 158.390968 
L 537.388281 158.390968 
" clip-path="url(#pe0f7eb8dad)" style="fill: none; stroke: #377eb8; stroke-width: 2; stroke-linecap: square"/>
   </g>
   <g id="patch_3">
    <path d="M 28.942188 242.275937 
L 28.942188 7.2 
" style="fill: none; stroke: #7f7f7f; stroke-width: 1.8; stroke-linejoin: miter; stroke-linecap: square"/>
   </g>
   <g id="patch_4">
    <path d="M 28.942188 242.275937 
L 561.6 242.275937 
" style="fill: none; stroke: #7f7f7f; stroke-width: 1.8; stroke-linejoin: miter; stroke-linecap: square"/>
   </g>
   <g id="legend_1">
    <g id="line2d_18">
     <path d="M 37.942188 213.018125 
L 47.942188 213.018125 
L 57.942188 213.018125 
" style="fill: none; stroke: #e41a1c; stroke-width: 2; stroke-linecap: square"/>
    </g>
    <g id="text_17">
     <!-- Src -->
     <g style="fill: #7f7f7f" transform="translate(65.942188 216.518125) scale(0.1 -0.1)">
      <defs>
       <path id="DejaVuSans-53" d="M 3425 4513 
L 3425 3897 
Q 3066 4069 2747 4153 
Q 2428 4238 2131 4238 
Q 1616 4238 1336 4038 
Q 1056 3838 1056 3469 
Q 1056 3159 1242 3001 
Q 1428 2844 1947 2747 
L 2328 2669 
Q 3034 2534 3370 2195 
Q 3706 1856 3706 1288 
Q 3706 609 3251 259 
Q 2797 -91 1919 -91 
Q 1588 -91 1214 -16 
Q 841 59 441 206 
L 441 856 
Q 825 641 1194 531 
Q 1563 422 1919 422 
Q 2459 422 2753 634 
Q 3047 847 3047 1241 
Q 3047 1584 2836 1778 
Q 2625 1972 2144 2069 
L 1759 2144 
Q 1053 2284 737 2584 
Q 422 2884 422 3419 
Q 422 4038 858 4394 
Q 1294 4750 2059 4750 
Q 2388 4750 2728 4690 
Q 3069 4631 3425 4513 
z
" transform="scale(0.015625)"/>
       <path id="DejaVuSans-72" d="M 2631 2963 
Q 2534 3019 2420 3045 
Q 2306 3072 2169 3072 
Q 1681 3072 1420 2755 
Q 1159 2438 1159 1844 
L 1159 0 
L 581 0 
L 581 3500 
L 1159 3500 
L 1159 2956 
Q 1341 3275 1631 3429 
Q 1922 3584 2338 3584 
Q 2397 3584 2469 3576 
Q 2541 3569 2628 3553 
L 2631 2963 
z
" transform="scale(0.015625)"/>
       <path id="DejaVuSans-63" d="M 3122 3366 
L 3122 2828 
Q 2878 2963 2633 3030 
Q 2388 3097 2138 3097 
Q 1578 3097 1268 2742 
Q 959 2388 959 1747 
Q 959 1106 1268 751 
Q 1578 397 2138 397 
Q 2388 397 2633 464 
Q 2878 531 3122 666 
L 3122 134 
Q 2881 22 2623 -34 
Q 2366 -91 2075 -91 
Q 1284 -91 818 406 
Q 353 903 353 1747 
Q 353 2603 823 3093 
Q 1294 3584 2113 3584 
Q 2378 3584 2631 3529 
Q 2884 3475 3122 3366 
z
" transform="scale(0.015625)"/>
      </defs>
      <use xlink:href="#DejaVuSans-53"/>
      <use xlink:href="#DejaVuSans-72" transform="translate(63.476562 0)"/>
      <use xlink:href="#DejaVuSans-63" transform="translate(102.339844 0)"/>
     </g>
    </g>
    <g id="line2d_19">
     <path d="M 37.942188 227.69625 
L 47.942188 227.69625 
L 57.942188 227.69625 
" style="fill: none; stroke: #377eb8; stroke-width: 2; stroke-linecap: square"/>
    </g>
    <g id="text_18">
     <!-- AMP -->
     <g style="fill: #7f7f7f" transform="translate(65.942188 231.19625) scale(0.1 -0.1)">
      <defs>
       <path id="DejaVuSans-41" d="M 2188 4044 
L 1331 1722 
L 3047 1722 
L 2188 4044 
z
M 1831 4666 
L 2547 4666 
L 4325 0 
L 3669 0 
L 3244 1197 
L 1141 1197 
L 716 0 
L 50 0 
L 1831 4666 
z
" transform="scale(0.015625)"/>
       <path id="DejaVuSans-4d" d="M 628 4666 
L 1569 4666 
L 2759 1491 
L 3956 4666 
L 4897 4666 
L 4897 0 
L 4281 0 
L 4281 4097 
L 3078 897 
L 2444 897 
L 1241 4097 
L 1241 0 
L 628 0 
L 628 4666 
z
" transform="scale(0.015625)"/>
       <path id="DejaVuSans-50" d="M 1259 4147 
L 1259 2394 
L 2053 2394 
Q 2494 2394 2734 2622 
Q 2975 2850 2975 3272 
Q 2975 3691 2734 3919 
Q 2494 4147 2053 4147 
L 1259 4147 
z
M 628 4666 
L 2053 4666 
Q 2838 4666 3239 4311 
Q 3641 3956 3641 3272 
Q 3641 2581 3239 2228 
Q 2838 1875 2053 1875 
L 1259 1875 
L 1259 0 
L 628 0 
L 628 4666 
z
" transform="scale(0.015625)"/>
      </defs>
      <use xlink:href="#DejaVuSans-41"/>
      <use xlink:href="#DejaVuSans-4d" transform="translate(68.408203 0)"/>
      <use xlink:href="#DejaVuSans-50" transform="translate(154.6875 0)"/>
     </g>
    </g>
   </g>
  </g>
 </g>
 <defs>
  <clipPath id="pe0f7eb8dad">
   <rect x="28.942188" y="7.2" width="532.657812" height="235.075937"/>
  </clipPath>
 </defs>
</svg>
