<?xml version="1.0" encoding="utf-8" standalone="no"?>
<!DOCTYPE svg PUBLIC "-//W3C//DTD SVG 1.1//EN"
  "http://www.w3.org/Graphics/SVG/1.1/DTD/svg11.dtd">
<svg xmlns:xlink="http://www.w3.org/1999/xlink" width="568.8pt" height="280.8pt" viewBox="0 0 568.8 280.8" xmlns="http://www.w3.org/2000/svg" version="1.1">
 <metadata>
  <rdf:RDF xmlns:dc="http://purl.org/dc/elements/1.1/" xmlns:cc="http://creativecommons.org/ns#" xmlns:rdf="http://www.w3.org/1999/02/22-rdf-syntax-ns#">
   <cc:Work>
    <dc:type rdf:resource="http://purl.org/dc/dcmitype/StillImage"/>
    <dc:date>2026-05-20T02:53:37.424864</dc:date>
    <dc:format>image/svg+xml</dc:format>
    <dc:creator>
     <cc:Agent>
      <dc:title>Matplotlib v3.10.9, https://matplotlib.org/</dc:title>
     </cc:Agent>
    </dc:creator>
   </cc:Work>
  </rdf:RDF>
 </metadata>
 <defs>
  <style type="text/css">*{stroke-linejoin: round; stroke-linecap: butt}</style>
 </defs>
 <g id="figure_1">
  <g id="patch_1">
   <path d="M 0 280.8 
L 568.8 280.8 
L 568.8 0 
L 0 0 
L 0 280.8 
z
" style="fill: none"/>
  </g>
  <g id="axes_1">
   <g id="patch_2">
    <path d="M 28.942188 242.275937 
L 561.6 242.275937 
L 561.6 7.2 
L 28.942188 7.2 
L 28.942188 242.275937 
z
" style="fill: none"/>
   </g>
   <g id="matplotlib.axis_1">
    <g id="xtick_1">
     <g id="line2d_1">
      <defs>
       <path id="m5d8ea68eea" d="M 0 0 
L 0 3.5 
" style="stroke: #7f7f7f; stroke-width: 1.8"/>
      </defs>
      <g>
       <use xlink:href="#m5d8ea68eea" x="53.153906" y="242.275937" style="fill: #7f7f7f; stroke: #7f7f7f; stroke-width: 1.8"/>
      </g>
     </g>
     <g id="text_1">
      <!-- 0.00000 -->
      <g style="fill: #7f7f7f" transform="translate(32.477344 256.874375) scale(0.1 -0.1)">
       <defs>
        <path id="DejaVuSans-30" d="M 2034 4250 
Q 1547 4250 1301 3770 
Q 1056 3291 1056 2328 
Q 1056 1369 1301 889 
Q 1547 409 2034 409 
Q 2525 409 2770 889 
Q 3016 1369 3016 2328 
Q 3016 3291 2770 3770 
Q 2525 4250 2034 4250 
z
M 2034 4750 
Q 2819 4750 3233 4129 
Q 3647 3509 3647 2328 
Q 3647 1150 3233 529 
Q 2819 -91 2034 -91 
Q 1250 -91 836 529 
Q 422 1150 422 2328 
Q 422 3509 836 4129 
Q 1250 4750 2034 4750 
z
" transform="scale(0.015625)"/>
        <path id="DejaVuSans-2e" d="M 684 794 
L 1344 794 
L 1344 0 
L 684 0 
L 684 794 
z
" transform="scale(0.015625)"/>
       </defs>
       <use xlink:href="#DejaVuSans-30"/>
       <use xlink:href="#DejaVuSans-2e" transform="translate(63.623047 0)"/>
       <use xlink:href="#DejaVuSans-30" transform="translate(95.410156 0)"/>
       <use xlink:href="#DejaVuSans-30" transform="translate(159.033203 0)"/>
       <use xlink:href="#DejaVuSans-30" transform="translate(222.65625 0)"/>
       <use xlink:href="#DejaVuSans-30" transform="translate(286.279297 0)"/>
       <use xlink:href="#DejaVuSans-30" transform="translate(349.902344 0)"/>
      </g>
     </g>
    </g>
    <g id="xtick_2">
     <g id="line2d_2">
      <g>
       <use xlink:href="#m5d8ea68eea" x="149.981416" y="242.275937" style="fill: #7f7f7f; stroke: #7f7f7f; stroke-width: 1.8"/>
      </g>
     </g>
     <g id="text_2">
      <!-- 0.00002 -->
      <g style="fill: #7f7f7f" transform="translate(129.304853 256.874375) scale(0.1 -0.1)">
       <defs>
        <path id="DejaVuSans-32" d="M 1228 531 
L 3431 531 
L 3431 0 
L 469 0 
L 469 531 
Q 828 903 1448 1529 
Q 2069 2156 2228 2338 
Q 2531 2678 2651 2914 
Q 2772 3150 2772 3378 
Q 2772 3750 2511 3984 
Q 2250 4219 1831 4219 
Q 1534 4219 1204 4116 
Q 875 4013 500 3803 
L 500 4441 
Q 881 4594 1212 4672 
Q 1544 4750 1819 4750 
Q 2544 4750 2975 4387 
Q 3406 4025 3406 3419 
Q 3406 3131 3298 2873 
Q 3191 2616 2906 2266 
Q 2828 2175 2409 1742 
Q 1991 1309 1228 531 
z
" transform="scale(0.015625)"/>
       </defs>
       <use xlink:href="#DejaVuSans-30"/>
       <use xlink:href="#DejaVuSans-2e" transform="translate(63.623047 0)"/>
       <use xlink:href="#DejaVuSans-30" transform="translate(95.410156 0)"/>
       <use xlink:href="#DejaVuSans-30" transform="translate(159.033203 0)"/>
       <use xlink:href="#DejaVuSans-30" transform="translate(222.65625 0)"/>
       <use xlink:href="#DejaVuSans-30" transform="translate(286.279297 0)"/>
       <use xlink:href="#DejaVuSans-32" transform="translate(349.902344 0)"/>
      </g>
     </g>
    </g>
    <g id="xtick_3">
     <g id="line2d_3">
      <g>
       <use xlink:href="#m5d8ea68eea" x="246.808925" y="242.275937" style="fill: #7f7f7f; stroke: #7f7f7f; stroke-width: 1.8"/>
      </g>
     </g>
     <g id="text_3">
      <!-- 0.00004 -->
      <g style="fill: #7f7f7f" transform="translate(226.132363 256.874375) scale(0.1 -0.1)">
       <defs>
        <path id="DejaVuSans-34" d="M 2419 4116 
L 825 1625 
L 2419 1625 
L 2419 4116 
z
M 2253 4666 
L 3047 4666 
L 3047 1625 
L 3713 1625 
L 3713 1100 
L 3047 1100 
L 3047 0 
L 2419 0 
L 2419 1100 
L 313 1100 
L 313 1709 
L 2253 4666 
z
" transform="scale(0.015625)"/>
       </defs>
       <use xlink:href="#DejaVuSans-30"/>
       <use xlink:href="#DejaVuSans-2e" transform="translate(63.623047 0)"/>
       <use xlink:href="#DejaVuSans-30" transform="translate(95.410156 0)"/>
       <use xlink:href="#DejaVuSans-30" transform="translate(159.033203 0)"/>
       <use xlink:href="#DejaVuSans-30" transform="translate(222.65625 0)"/>
       <use xlink:href="#DejaVuSans-30" transform="translate(286.279297 0)"/>
       <use xlink:href="#DejaVuSans-34" transform="translate(349.902344 0)"/>
      </g>
     </g>
    </g>
    <g id="xtick_4">
     <g id="line2d_4">
      <g>
       <use xlink:href="#m5d8ea68eea" x="343.636435" y="242.275937" style="fill: #7f7f7f; stroke: #7f7f7f; stroke-width: 1.8"/>
      </g>
     </g>
     <g id="text_4">
      <!-- 0.00006 -->
      <g style="fill: #7f7f7f" transform="translate(322.959872 256.874375) scale(0.1 -0.1)">
       <defs>
        <path id="DejaVuSans-36" d="M 2113 2584 
Q 1688 2584 1439 2293 
Q 1191 2003 1191 1497 
Q 1191 994 1439 701 
Q 1688 409 2113 409 
Q 2538 409 2786 701 
Q 3034 994 3034 1497 
Q 3034 2003 2786 2293 
Q 2538 2584 2113 2584 
z
M 3366 4563 
L 3366 3988 
Q 3128 4100 2886 4159 
Q 2644 4219 2406 4219 
Q 1781 4219 1451 3797 
Q 1122 3375 1075 2522 
Q 1259 2794 1537 2939 
Q 1816 3084 2150 3084 
Q 2853 3084 3261 2657 
Q 3669 2231 3669 1497 
Q 3669 778 3244 343 
Q 2819 -91 2113 -91 
Q 1303 -91 875 529 
Q 447 1150 447 2328 
Q 447 3434 972 4092 
Q 1497 4750 2381 4750 
Q 2619 4750 2861 4703 
Q 3103 4656 3366 4563 
z
" transform="scale(0.015625)"/>
       </defs>
       <use xlink:href="#DejaVuSans-30"/>
       <use xlink:href="#DejaVuSans-2e" transform="translate(63.623047 0)"/>
       <use xlink:href="#DejaVuSans-30" transform="translate(95.410156 0)"/>
       <use xlink:href="#DejaVuSans-30" transform="translate(159.033203 0)"/>
       <use xlink:href="#DejaVuSans-30" transform="translate(222.65625 0)"/>
       <use xlink:href="#DejaVuSans-30" transform="translate(286.279297 0)"/>
       <use xlink:href="#DejaVuSans-36" transform="translate(349.902344 0)"/>
      </g>
     </g>
    </g>
    <g id="xtick_5">
     <g id="line2d_5">
      <g>
       <use xlink:href="#m5d8ea68eea" x="440.463944" y="242.275937" style="fill: #7f7f7f; stroke: #7f7f7f; stroke-width: 1.8"/>
      </g>
     </g>
     <g id="text_5">
      <!-- 0.00008 -->
      <g style="fill: #7f7f7f" transform="translate(419.787382 256.874375) scale(0.1 -0.1)">
       <defs>
        <path id="DejaVuSans-38" d="M 2034 2216 
Q 1584 2216 1326 1975 
Q 1069 1734 1069 1313 
Q 1069 891 1326 650 
Q 1584 409 2034 409 
Q 2484 409 2743 651 
Q 3003 894 3003 1313 
Q 3003 1734 2745 1975 
Q 2488 2216 2034 2216 
z
M 1403 2484 
Q 997 2584 770 2862 
Q 544 3141 544 3541 
Q 544 4100 942 4425 
Q 1341 4750 2034 4750 
Q 2731 4750 3128 4425 
Q 3525 4100 3525 3541 
Q 3525 3141 3298 2862 
Q 3072 2584 2669 2484 
Q 3125 2378 3379 2068 
Q 3634 1759 3634 1313 
Q 3634 634 3220 271 
Q 2806 -91 2034 -91 
Q 1263 -91 848 271 
Q 434 634 434 1313 
Q 434 1759 690 2068 
Q 947 2378 1403 2484 
z
M 1172 3481 
Q 1172 3119 1398 2916 
Q 1625 2713 2034 2713 
Q 2441 2713 2670 2916 
Q 2900 3119 2900 3481 
Q 2900 3844 2670 4047 
Q 2441 4250 2034 4250 
Q 1625 4250 1398 4047 
Q 1172 3844 1172 3481 
z
" transform="scale(0.015625)"/>
       </defs>
       <use xlink:href="#DejaVuSans-30"/>
       <use xlink:href="#DejaVuSans-2e" transform="translate(63.623047 0)"/>
       <use xlink:href="#DejaVuSans-30" transform="translate(95.410156 0)"/>
       <use xlink:href="#DejaVuSans-30" transform="translate(159.033203 0)"/>
       <use xlink:href="#DejaVuSans-30" transform="translate(222.65625 0)"/>
       <use xlink:href="#DejaVuSans-30" transform="translate(286.279297 0)"/>
       <use xlink:href="#DejaVuSans-38" transform="translate(349.902344 0)"/>
      </g>
     </g>
    </g>
    <g id="xtick_6">
     <g id="line2d_6">
      <g>
       <use xlink:href="#m5d8ea68eea" x="537.291454" y="242.275937" style="fill: #7f7f7f; stroke: #7f7f7f; stroke-width: 1.8"/>
      </g>
     </g>
     <g id="text_6">
      <!-- 0.00010 -->
      <g style="fill: #7f7f7f" transform="translate(516.614891 256.874375) scale(0.1 -0.1)">
       <defs>
        <path id="DejaVuSans-31" d="M 794 531 
L 1825 531 
L 1825 4091 
L 703 3866 
L 703 4441 
L 1819 4666 
L 2450 4666 
L 2450 531 
L 3481 531 
L 3481 0 
L 794 0 
L 794 531 
z
" transform="scale(0.015625)"/>
       </defs>
       <use xlink:href="#DejaVuSans-30"/>
       <use xlink:href="#DejaVuSans-2e" transform="translate(63.623047 0)"/>
       <use xlink:href="#DejaVuSans-30" transform="translate(95.410156 0)"/>
       <use xlink:href="#DejaVuSans-30" transform="translate(159.033203 0)"/>
       <use xlink:href="#DejaVuSans-30" transform="translate(222.65625 0)"/>
       <use xlink:href="#DejaVuSans-31" transform="translate(286.279297 0)"/>
       <use xlink:href="#DejaVuSans-30" transform="translate(349.902344 0)"/>
      </g>
     </g>
    </g>
    <g id="text_7">
     <!-- time [s] -->
     <g style="fill: #7f7f7f" transform="translate(273.940547 271.312344) scale(0.11 -0.11)">
      <defs>
       <path id="DejaVuSans-74" d="M 1172 4494 
L 1172 3500 
L 2356 3500 
L 2356 3053 
L 1172 3053 
L 1172 1153 
Q 1172 725 1289 603 
Q 1406 481 1766 481 
L 2356 481 
L 2356 0 
L 1766 0 
Q 1100 0 847 248 
Q 594 497 594 1153 
L 594 3053 
L 172 3053 
L 172 3500 
L 594 3500 
L 594 4494 
L 1172 4494 
z
" transform="scale(0.015625)"/>
       <path id="DejaVuSans-69" d="M 603 3500 
L 1178 3500 
L 1178 0 
L 603 0 
L 603 3500 
z
M 603 4863 
L 1178 4863 
L 1178 4134 
L 603 4134 
L 603 4863 
z
" transform="scale(0.015625)"/>
       <path id="DejaVuSans-6d" d="M 3328 2828 
Q 3544 3216 3844 3400 
Q 4144 3584 4550 3584 
Q 5097 3584 5394 3201 
Q 5691 2819 5691 2113 
L 5691 0 
L 5113 0 
L 5113 2094 
Q 5113 2597 4934 2840 
Q 4756 3084 4391 3084 
Q 3944 3084 3684 2787 
Q 3425 2491 3425 1978 
L 3425 0 
L 2847 0 
L 2847 2094 
Q 2847 2600 2669 2842 
Q 2491 3084 2119 3084 
Q 1678 3084 1418 2786 
Q 1159 2488 1159 1978 
L 1159 0 
L 581 0 
L 581 3500 
L 1159 3500 
L 1159 2956 
Q 1356 3278 1631 3431 
Q 1906 3584 2284 3584 
Q 2666 3584 2933 3390 
Q 3200 3197 3328 2828 
z
" transform="scale(0.015625)"/>
       <path id="DejaVuSans-65" d="M 3597 1894 
L 3597 1613 
L 953 1613 
Q 991 1019 1311 708 
Q 1631 397 2203 397 
Q 2534 397 2845 478 
Q 3156 559 3463 722 
L 3463 178 
Q 3153 47 2828 -22 
Q 2503 -91 2169 -91 
Q 1331 -91 842 396 
Q 353 884 353 1716 
Q 353 2575 817 3079 
Q 1281 3584 2069 3584 
Q 2775 3584 3186 3129 
Q 3597 2675 3597 1894 
z
M 3022 2063 
Q 3016 2534 2758 2815 
Q 2500 3097 2075 3097 
Q 1594 3097 1305 2825 
Q 1016 2553 972 2059 
L 3022 2063 
z
" transform="scale(0.015625)"/>
       <path id="DejaVuSans-20" transform="scale(0.015625)"/>
       <path id="DejaVuSans-5b" d="M 550 4863 
L 1875 4863 
L 1875 4416 
L 1125 4416 
L 1125 -397 
L 1875 -397 
L 1875 -844 
L 550 -844 
L 550 4863 
z
" transform="scale(0.015625)"/>
       <path id="DejaVuSans-73" d="M 2834 3397 
L 2834 2853 
Q 2591 2978 2328 3040 
Q 2066 3103 1784 3103 
Q 1356 3103 1142 2972 
Q 928 2841 928 2578 
Q 928 2378 1081 2264 
Q 1234 2150 1697 2047 
L 1894 2003 
Q 2506 1872 2764 1633 
Q 3022 1394 3022 966 
Q 3022 478 2636 193 
Q 2250 -91 1575 -91 
Q 1294 -91 989 -36 
Q 684 19 347 128 
L 347 722 
Q 666 556 975 473 
Q 1284 391 1588 391 
Q 1994 391 2212 530 
Q 2431 669 2431 922 
Q 2431 1156 2273 1281 
Q 2116 1406 1581 1522 
L 1381 1569 
Q 847 1681 609 1914 
Q 372 2147 372 2553 
Q 372 3047 722 3315 
Q 1072 3584 1716 3584 
Q 2034 3584 2315 3537 
Q 2597 3491 2834 3397 
z
" transform="scale(0.015625)"/>
       <path id="DejaVuSans-5d" d="M 1947 4863 
L 1947 -844 
L 622 -844 
L 622 -397 
L 1369 -397 
L 1369 4416 
L 622 4416 
L 622 4863 
L 1947 4863 
z
" transform="scale(0.015625)"/>
      </defs>
      <use xlink:href="#DejaVuSans-74"/>
      <use xlink:href="#DejaVuSans-69" transform="translate(39.208984 0)"/>
      <use xlink:href="#DejaVuSans-6d" transform="translate(66.992188 0)"/>
      <use xlink:href="#DejaVuSans-65" transform="translate(164.404297 0)"/>
      <use xlink:href="#DejaVuSans-20" transform="translate(225.927734 0)"/>
      <use xlink:href="#DejaVuSans-5b" transform="translate(257.714844 0)"/>
      <use xlink:href="#DejaVuSans-73" transform="translate(296.728516 0)"/>
      <use xlink:href="#DejaVuSans-5d" transform="translate(348.828125 0)"/>
     </g>
    </g>
   </g>
   <g id="matplotlib.axis_2">
    <g id="ytick_1">
     <g id="line2d_7">
      <defs>
       <path id="m7d0acadfbb" d="M 0 0 
L -3.5 0 
" style="stroke: #7f7f7f; stroke-width: 1.8"/>
      </defs>
      <g>
       <use xlink:href="#m7d0acadfbb" x="28.942188" y="228.620881" style="fill: #7f7f7f; stroke: #7f7f7f; stroke-width: 1.8"/>
      </g>
     </g>
     <g id="text_8">
      <!-- −8 -->
      <g style="fill: #7f7f7f" transform="translate(7.2 232.4201) scale(0.1 -0.1)">
       <defs>
        <path id="DejaVuSans-2212" d="M 678 2272 
L 4684 2272 
L 4684 1741 
L 678 1741 
L 678 2272 
z
" transform="scale(0.015625)"/>
       </defs>
       <use xlink:href="#DejaVuSans-2212"/>
       <use xlink:href="#DejaVuSans-38" transform="translate(83.789062 0)"/>
      </g>
     </g>
    </g>
    <g id="ytick_2">
     <g id="line2d_8">
      <g>
       <use xlink:href="#m7d0acadfbb" x="28.942188" y="202.070897" style="fill: #7f7f7f; stroke: #7f7f7f; stroke-width: 1.8"/>
      </g>
     </g>
     <g id="text_9">
      <!-- −6 -->
      <g style="fill: #7f7f7f" transform="translate(7.2 205.870116) scale(0.1 -0.1)">
       <use xlink:href="#DejaVuSans-2212"/>
       <use xlink:href="#DejaVuSans-36" transform="translate(83.789062 0)"/>
      </g>
     </g>
    </g>
    <g id="ytick_3">
     <g id="line2d_9">
      <g>
       <use xlink:href="#m7d0acadfbb" x="28.942188" y="175.520913" style="fill: #7f7f7f; stroke: #7f7f7f; stroke-width: 1.8"/>
      </g>
     </g>
     <g id="text_10">
      <!-- −4 -->
      <g style="fill: #7f7f7f" transform="translate(7.2 179.320132) scale(0.1 -0.1)">
       <use xlink:href="#DejaVuSans-2212"/>
       <use xlink:href="#DejaVuSans-34" transform="translate(83.789062 0)"/>
      </g>
     </g>
    </g>
    <g id="ytick_4">
     <g id="line2d_10">
      <g>
       <use xlink:href="#m7d0acadfbb" x="28.942188" y="148.97093" style="fill: #7f7f7f; stroke: #7f7f7f; stroke-width: 1.8"/>
      </g>
     </g>
     <g id="text_11">
      <!-- −2 -->
      <g style="fill: #7f7f7f" transform="translate(7.2 152.770148) scale(0.1 -0.1)">
       <use xlink:href="#DejaVuSans-2212"/>
       <use xlink:href="#DejaVuSans-32" transform="translate(83.789062 0)"/>
      </g>
     </g>
    </g>
    <g id="ytick_5">
     <g id="line2d_11">
      <g>
       <use xlink:href="#m7d0acadfbb" x="28.942188" y="122.420946" style="fill: #7f7f7f; stroke: #7f7f7f; stroke-width: 1.8"/>
      </g>
     </g>
     <g id="text_12">
      <!-- 0 -->
      <g style="fill: #7f7f7f" transform="translate(15.579688 126.220165) scale(0.1 -0.1)">
       <use xlink:href="#DejaVuSans-30"/>
      </g>
     </g>
    </g>
    <g id="ytick_6">
     <g id="line2d_12">
      <g>
       <use xlink:href="#m7d0acadfbb" x="28.942188" y="95.870962" style="fill: #7f7f7f; stroke: #7f7f7f; stroke-width: 1.8"/>
      </g>
     </g>
     <g id="text_13">
      <!-- 2 -->
      <g style="fill: #7f7f7f" transform="translate(15.579688 99.670181) scale(0.1 -0.1)">
       <use xlink:href="#DejaVuSans-32"/>
      </g>
     </g>
    </g>
    <g id="ytick_7">
     <g id="line2d_13">
      <g>
       <use xlink:href="#m7d0acadfbb" x="28.942188" y="69.320978" style="fill: #7f7f7f; stroke: #7f7f7f; stroke-width: 1.8"/>
      </g>
     </g>
     <g id="text_14">
      <!-- 4 -->
      <g style="fill: #7f7f7f" transform="translate(15.579688 73.120197) scale(0.1 -0.1)">
       <use xlink:href="#DejaVuSans-34"/>
      </g>
     </g>
    </g>
    <g id="ytick_8">
     <g id="line2d_14">
      <g>
       <use xlink:href="#m7d0acadfbb" x="28.942188" y="42.770995" style="fill: #7f7f7f; stroke: #7f7f7f; stroke-width: 1.8"/>
      </g>
     </g>
     <g id="text_15">
      <!-- 6 -->
      <g style="fill: #7f7f7f" transform="translate(15.579688 46.570213) scale(0.1 -0.1)">
       <use xlink:href="#DejaVuSans-36"/>
      </g>
     </g>
    </g>
    <g id="ytick_9">
     <g id="line2d_15">
      <g>
       <use xlink:href="#m7d0acadfbb" x="28.942188" y="16.221011" style="fill: #7f7f7f; stroke: #7f7f7f; stroke-width: 1.8"/>
      </g>
     </g>
     <g id="text_16">
      <!-- 8 -->
      <g style="fill: #7f7f7f" transform="translate(15.579688 20.02023) scale(0.1 -0.1)">
       <use xlink:href="#DejaVuSans-38"/>
      </g>
     </g>
    </g>
   </g>
   <g id="line2d_16">
    <path d="M 53.153906 122.420946 
L 57.656385 110.204876 
L 59.544522 109.19728 
L 61.142176 110.787982 
L 63.611277 116.920113 
L 70.437617 135.357782 
L 72.035271 135.460801 
L 73.778166 133.061741 
L 76.682991 124.744376 
L 82.056918 109.959262 
L 83.945054 109.272579 
L 85.542708 111.124001 
L 88.157051 118.002769 
L 94.402425 135.145315 
L 96.14532 135.519194 
L 97.888216 133.257843 
L 100.793041 125.072094 
L 106.312209 109.902754 
L 108.200345 109.296602 
L 109.797999 111.2125 
L 112.412342 118.160422 
L 118.512475 135.046213 
L 120.25537 135.569313 
L 121.853024 133.717891 
L 124.467367 126.839123 
L 130.712741 109.696577 
L 132.455637 109.322698 
L 134.198532 111.584049 
L 137.103357 119.769798 
L 142.622525 134.939138 
L 144.510661 135.54529 
L 146.108315 133.629392 
L 148.722658 126.68147 
L 154.822791 109.795678 
L 156.565686 109.272579 
L 158.16334 111.124001 
L 160.777683 118.002769 
L 167.023057 135.145315 
L 168.765953 135.519194 
L 170.508848 133.257843 
L 173.413673 125.072094 
L 178.932841 109.902754 
L 180.820978 109.296602 
L 182.418631 111.2125 
L 185.032974 118.160422 
L 191.133107 135.046213 
L 192.876002 135.569313 
L 194.473656 133.717891 
L 197.087999 126.839123 
L 203.333373 109.696577 
L 205.076269 109.322698 
L 206.819164 111.584049 
L 209.723989 119.769798 
L 215.243157 134.939138 
L 217.131294 135.54529 
L 218.728947 133.629392 
L 221.34329 126.68147 
L 227.443423 109.795678 
L 229.186319 109.272579 
L 230.783972 111.124001 
L 233.398315 118.002769 
L 239.64369 135.145315 
L 241.386585 135.519194 
L 243.12948 133.257843 
L 246.034305 125.072094 
L 251.553473 109.902754 
L 253.44161 109.296602 
L 255.039264 111.2125 
L 257.653606 118.160422 
L 263.753739 135.046213 
L 265.496635 135.569313 
L 267.094288 133.717891 
L 269.708631 126.839123 
L 275.954006 109.696577 
L 277.696901 109.322698 
L 279.439796 111.584049 
L 282.344621 119.769798 
L 287.863789 134.939138 
L 289.751926 135.54529 
L 291.34958 133.629392 
L 293.963922 126.68147 
L 300.064055 109.795678 
L 301.806951 109.272579 
L 303.404605 111.124001 
L 306.018947 118.002769 
L 312.264322 135.145315 
L 314.007217 135.519194 
L 315.750112 133.257843 
L 318.654937 125.072094 
L 324.174105 109.902754 
L 326.062242 109.296602 
L 327.659896 111.2125 
L 330.274238 118.160422 
L 336.374372 135.046213 
L 338.117267 135.569313 
L 339.714921 133.717891 
L 342.329263 126.839123 
L 348.574638 109.696577 
L 350.317533 109.322698 
L 352.060428 111.584049 
L 354.965253 119.769798 
L 360.484421 134.939138 
L 362.372558 135.54529 
L 363.970212 133.629392 
L 366.584554 126.68147 
L 372.684688 109.795678 
L 374.427583 109.272579 
L 376.025237 111.124001 
L 378.639579 118.002769 
L 384.884954 135.145315 
L 386.627849 135.519194 
L 388.370744 133.257843 
L 391.275569 125.072094 
L 396.794737 109.902754 
L 398.682874 109.296602 
L 400.280528 111.2125 
L 402.894871 118.160422 
L 408.995004 135.046213 
L 410.737899 135.569313 
L 412.335553 133.717891 
L 414.949895 126.839123 
L 421.19527 109.696577 
L 422.938165 109.322698 
L 424.68106 111.584049 
L 427.585885 119.769798 
L 433.105054 134.939138 
L 434.99319 135.54529 
L 436.590844 133.629392 
L 439.205187 126.68147 
L 445.30532 109.795678 
L 447.048215 109.272579 
L 448.645869 111.124001 
L 451.260212 118.002769 
L 457.505586 135.145315 
L 459.248481 135.519194 
L 460.991376 133.257843 
L 463.896202 125.072094 
L 469.41537 109.902754 
L 471.303506 109.296602 
L 472.90116 111.2125 
L 475.515503 118.160422 
L 481.615636 135.046213 
L 483.358531 135.569313 
L 484.956185 133.717891 
L 487.570528 126.839123 
L 493.815902 109.696577 
L 495.558797 109.322698 
L 497.301692 111.584049 
L 500.206518 119.769798 
L 505.725686 134.939138 
L 507.613822 135.54529 
L 509.211476 133.629392 
L 511.825819 126.68147 
L 517.925952 109.795678 
L 519.668847 109.272579 
L 521.266501 111.124001 
L 523.880844 118.002769 
L 530.126218 135.145315 
L 531.869113 135.519194 
L 533.612008 133.257843 
L 536.516834 125.072094 
L 537.388281 122.087344 
L 537.388281 122.087344 
" clip-path="url(#p7d0f0f0d8a)" style="fill: none; stroke: #e41a1c; stroke-width: 2; stroke-linecap: square"/>
   </g>
   <g id="line2d_17">
    <path d="M 53.153906 122.420946 
L 53.58963 124.736253 
L 54.025354 127.684405 
L 54.315836 124.24536 
L 55.623008 96.8926 
L 58.527833 33.40676 
L 59.544522 29.38798 
L 59.980246 29.508755 
L 61.287417 26.811081 
L 61.5779 27.977248 
L 64.047001 47.851263 
L 64.918449 68.630672 
L 70.728099 223.516653 
L 70.87334 223.380973 
L 71.454306 224.927904 
L 72.616236 228.201349 
L 73.051959 227.626697 
L 73.778166 223.333705 
L 75.666302 201.238216 
L 76.973474 162.993724 
L 80.604505 65.662044 
L 83.218848 26.609639 
L 84.090296 20.681574 
L 84.526019 21.510954 
L 86.995121 29.844055 
L 87.721327 34.42036 
L 89.318981 86.078446 
L 94.257184 214.346697 
L 94.98339 218.174289 
L 97.307251 224.363595 
L 97.452492 224.124138 
L 99.340628 211.665115 
L 101.228765 175.50471 
L 106.602691 39.464489 
L 108.490828 25.348591 
L 108.78131 24.508329 
L 109.217034 25.847045 
L 111.540894 38.48081 
L 116.479097 181.753952 
L 118.221993 213.840434 
L 119.383923 218.208492 
L 119.674405 217.155106 
L 121.707783 217.869679 
L 121.998266 218.810029 
L 122.433989 217.391694 
L 124.031643 199.765156 
L 126.355503 140.932538 
L 129.986535 32.317082 
L 133.036602 21.98073 
L 133.327084 22.227093 
L 133.908049 22.988639 
L 135.069979 27.909244 
L 138.991493 111.614954 
L 142.477284 206.559749 
L 143.929696 218.312662 
L 145.091627 222.940509 
L 145.672592 221.316519 
L 146.834522 209.919662 
L 149.884588 159.912106 
L 156.710928 20.387441 
L 157.727617 17.88527 
L 158.018099 18.116656 
L 158.889547 24.242992 
L 161.794372 79.445202 
L 166.732575 208.334439 
L 168.620711 222.93588 
L 168.765953 222.537061 
L 170.654089 215.47339 
L 172.106502 197.91479 
L 181.11146 19.032746 
L 181.401943 19.537638 
L 185.178215 53.078553 
L 187.792558 138.346132 
L 190.26166 203.91894 
L 194.328415 222.763523 
L 195.054621 218.009953 
L 197.814205 179.853876 
L 200.428548 99.771297 
L 203.623856 31.966198 
L 204.640545 30.240093 
L 205.076269 30.437441 
L 205.802475 28.180161 
L 206.528681 24.209126 
L 207.109646 25.164295 
L 208.416818 44.294072 
L 209.723989 72.96795 
L 215.243157 211.107616 
L 216.69557 221.587181 
L 216.840811 221.326811 
L 218.293224 218.489307 
L 218.438465 218.531168 
L 218.728947 218.95641 
L 219.01943 218.082143 
L 221.052808 201.569536 
L 224.393357 111.471496 
L 228.314871 25.216836 
L 229.622042 21.616797 
L 229.767284 22.122354 
L 230.348249 23.827165 
L 231.074455 23.362862 
L 231.510179 24.901478 
L 232.236385 34.223029 
L 235.722175 115.635921 
L 238.627001 197.942674 
L 241.096102 226.945505 
L 241.822309 225.853006 
L 244.436651 215.942173 
L 246.324788 194.637278 
L 248.648648 99.525966 
L 250.827267 48.302145 
L 253.151127 27.912044 
L 253.586851 28.225492 
L 254.748781 25.398026 
L 254.894022 26.116169 
L 258.08933 76.788305 
L 260.848914 144.902835 
L 263.898981 215.678456 
L 265.787117 227.262302 
L 266.513323 226.644866 
L 267.23953 223.930463 
L 269.708631 199.430028 
L 273.484904 84.669133 
L 275.954006 37.117888 
L 278.277866 19.69353 
L 278.71359 17.933128 
L 279.004072 19.322989 
L 282.19938 74.187744 
L 287.428065 204.401911 
L 290.042408 222.19923 
L 290.768615 221.458744 
L 294.109164 201.622224 
L 300.354538 26.457127 
L 302.097433 21.006263 
L 302.242674 21.258706 
L 302.968881 25.686872 
L 305.002258 43.534446 
L 311.538115 202.976155 
L 312.554804 212.772122 
L 313.571493 221.815686 
L 314.297699 220.572537 
L 314.878664 217.312232 
L 318.073972 189.8329 
L 323.883623 41.16031 
L 325.771759 24.823427 
L 326.207483 24.144047 
L 326.933689 24.705858 
L 327.224172 24.717487 
L 327.369413 25.155015 
L 328.967067 35.116347 
L 332.452857 113.065019 
L 336.664854 226.224209 
L 337.681543 229.062521 
L 337.972025 228.889473 
L 339.133956 226.362419 
L 343.345952 165.93077 
L 348.574638 40.219576 
L 351.043739 20.851618 
L 351.624704 21.675783 
L 353.803323 33.89381 
L 355.546218 84.135543 
L 357.870079 162.86025 
L 360.33918 217.60249 
L 361.646352 226.222778 
L 362.082075 225.766962 
L 363.970212 225.398868 
L 365.858348 209.897567 
L 366.875037 194.208874 
L 371.81324 50.023991 
L 373.991859 26.015547 
L 374.572824 23.571651 
L 375.29903 24.263913 
L 377.622891 39.165151 
L 379.80151 82.217323 
L 384.739713 204.252549 
L 386.918331 221.450152 
L 387.644538 220.13935 
L 390.404122 201.041606 
L 392.001776 161.149738 
L 396.939979 34.177902 
L 398.682874 24.858395 
L 399.118598 26.490045 
L 399.844804 30.475988 
L 400.425769 30.006961 
L 401.297217 36.272634 
L 403.330594 63.809133 
L 406.380661 164.252295 
L 409.140245 212.298424 
L 411.028381 220.851889 
L 411.464105 220.38172 
L 413.497483 210.174521 
L 417.273756 130.703566 
L 420.323822 50.809326 
L 422.211959 23.620349 
L 422.3572 23.955462 
L 422.938165 25.219178 
L 423.373889 24.364861 
L 424.826301 23.131387 
L 425.262025 26.595373 
L 427.585885 64.742467 
L 432.959812 211.803027 
L 434.847949 223.953443 
L 435.138431 223.429454 
L 436.736085 222.735475 
L 438.333739 212.253627 
L 441.383806 149.542461 
L 445.014837 47.571237 
L 447.048215 32.884202 
L 447.774421 30.382298 
L 448.210145 31.97644 
L 448.79111 30.476877 
L 449.226834 31.626466 
L 450.969729 48.058266 
L 452.857865 93.666474 
L 457.650827 215.238812 
L 458.812757 225.797788 
L 459.393722 224.14646 
L 463.460478 195.569344 
L 469.270128 43.114537 
L 471.303506 19.831 
L 471.448747 19.979561 
L 473.917849 32.616397 
L 475.079779 48.609954 
L 477.113157 108.421439 
L 481.179912 208.160555 
L 481.760877 211.429201 
L 484.084737 228.808308 
L 484.665702 228.439578 
L 485.101426 227.773234 
L 488.296734 185.805774 
L 495.558797 25.010186 
L 496.430245 23.005551 
L 496.720727 23.718982 
L 498.754105 46.466505 
L 502.385137 133.253697 
L 505.435203 209.680104 
L 507.759063 231.590668 
L 507.904305 231.51878 
L 509.937682 225.289507 
L 510.954371 215.670907 
L 514.004438 141.203361 
L 518.652158 29.453221 
L 519.233123 26.961888 
L 519.668847 28.174329 
L 523.154637 51.878509 
L 526.640428 142.755375 
L 529.545253 206.760827 
L 531.578631 228.600948 
L 532.159596 229.543014 
L 532.450078 228.783956 
L 536.226351 191.862097 
L 537.388281 167.916114 
L 537.388281 167.916114 
" clip-path="url(#p7d0f0f0d8a)" style="fill: none; stroke: #377eb8; stroke-width: 2; stroke-linecap: square"/>
   </g>
   <g id="patch_3">
    <path d="M 28.942188 242.275937 
L 28.942188 7.2 
" style="fill: none; stroke: #7f7f7f; stroke-width: 1.8; stroke-linejoin: miter; stroke-linecap: square"/>
   </g>
   <g id="patch_4">
    <path d="M 28.942188 242.275937 
L 561.6 242.275937 
" style="fill: none; stroke: #7f7f7f; stroke-width: 1.8; stroke-linejoin: miter; stroke-linecap: square"/>
   </g>
   <g id="legend_1">
    <g id="line2d_18">
     <path d="M 503.101562 20.298438 
L 513.101562 20.298438 
L 523.101562 20.298438 
" style="fill: none; stroke: #e41a1c; stroke-width: 2; stroke-linecap: square"/>
    </g>
    <g id="text_17">
     <!-- Src -->
     <g style="fill: #7f7f7f" transform="translate(531.101562 23.798438) scale(0.1 -0.1)">
      <defs>
       <path id="DejaVuSans-53" d="M 3425 4513 
L 3425 3897 
Q 3066 4069 2747 4153 
Q 2428 4238 2131 4238 
Q 1616 4238 1336 4038 
Q 1056 3838 1056 3469 
Q 1056 3159 1242 3001 
Q 1428 2844 1947 2747 
L 2328 2669 
Q 3034 2534 3370 2195 
Q 3706 1856 3706 1288 
Q 3706 609 3251 259 
Q 2797 -91 1919 -91 
Q 1588 -91 1214 -16 
Q 841 59 441 206 
L 441 856 
Q 825 641 1194 531 
Q 1563 422 1919 422 
Q 2459 422 2753 634 
Q 3047 847 3047 1241 
Q 3047 1584 2836 1778 
Q 2625 1972 2144 2069 
L 1759 2144 
Q 1053 2284 737 2584 
Q 422 2884 422 3419 
Q 422 4038 858 4394 
Q 1294 4750 2059 4750 
Q 2388 4750 2728 4690 
Q 3069 4631 3425 4513 
z
" transform="scale(0.015625)"/>
       <path id="DejaVuSans-72" d="M 2631 2963 
Q 2534 3019 2420 3045 
Q 2306 3072 2169 3072 
Q 1681 3072 1420 2755 
Q 1159 2438 1159 1844 
L 1159 0 
L 581 0 
L 581 3500 
L 1159 3500 
L 1159 2956 
Q 1341 3275 1631 3429 
Q 1922 3584 2338 3584 
Q 2397 3584 2469 3576 
Q 2541 3569 2628 3553 
L 2631 2963 
z
" transform="scale(0.015625)"/>
       <path id="DejaVuSans-63" d="M 3122 3366 
L 3122 2828 
Q 2878 2963 2633 3030 
Q 2388 3097 2138 3097 
Q 1578 3097 1268 2742 
Q 959 2388 959 1747 
Q 959 1106 1268 751 
Q 1578 397 2138 397 
Q 2388 397 2633 464 
Q 2878 531 3122 666 
L 3122 134 
Q 2881 22 2623 -34 
Q 2366 -91 2075 -91 
Q 1284 -91 818 406 
Q 353 903 353 1747 
Q 353 2603 823 3093 
Q 1294 3584 2113 3584 
Q 2378 3584 2631 3529 
Q 2884 3475 3122 3366 
z
" transform="scale(0.015625)"/>
      </defs>
      <use xlink:href="#DejaVuSans-53"/>
      <use xlink:href="#DejaVuSans-72" transform="translate(63.476562 0)"/>
      <use xlink:href="#DejaVuSans-63" transform="translate(102.339844 0)"/>
     </g>
    </g>
    <g id="line2d_19">
     <path d="M 503.101562 34.976563 
L 513.101562 34.976563 
L 523.101562 34.976563 
" style="fill: none; stroke: #377eb8; stroke-width: 2; stroke-linecap: square"/>
    </g>
    <g id="text_18">
     <!-- AMP -->
     <g style="fill: #7f7f7f" transform="translate(531.101562 38.476563) scale(0.1 -0.1)">
      <defs>
       <path id="DejaVuSans-41" d="M 2188 4044 
L 1331 1722 
L 3047 1722 
L 2188 4044 
z
M 1831 4666 
L 2547 4666 
L 4325 0 
L 3669 0 
L 3244 1197 
L 1141 1197 
L 716 0 
L 50 0 
L 1831 4666 
z
" transform="scale(0.015625)"/>
       <path id="DejaVuSans-4d" d="M 628 4666 
L 1569 4666 
L 2759 1491 
L 3956 4666 
L 4897 4666 
L 4897 0 
L 4281 0 
L 4281 4097 
L 3078 897 
L 2444 897 
L 1241 4097 
L 1241 0 
L 628 0 
L 628 4666 
z
" transform="scale(0.015625)"/>
       <path id="DejaVuSans-50" d="M 1259 4147 
L 1259 2394 
L 2053 2394 
Q 2494 2394 2734 2622 
Q 2975 2850 2975 3272 
Q 2975 3691 2734 3919 
Q 2494 4147 2053 4147 
L 1259 4147 
z
M 628 4666 
L 2053 4666 
Q 2838 4666 3239 4311 
Q 3641 3956 3641 3272 
Q 3641 2581 3239 2228 
Q 2838 1875 2053 1875 
L 1259 1875 
L 1259 0 
L 628 0 
L 628 4666 
z
" transform="scale(0.015625)"/>
      </defs>
      <use xlink:href="#DejaVuSans-41"/>
      <use xlink:href="#DejaVuSans-4d" transform="translate(68.408203 0)"/>
      <use xlink:href="#DejaVuSans-50" transform="translate(154.6875 0)"/>
     </g>
    </g>
   </g>
  </g>
 </g>
 <defs>
  <clipPath id="p7d0f0f0d8a">
   <rect x="28.942188" y="7.2" width="532.657812" height="235.075937"/>
  </clipPath>
 </defs>
</svg>
